<?xml version="1.0" encoding="utf-8" standalone="no"?>
<!DOCTYPE svg PUBLIC "-//W3C//DTD SVG 1.1//EN"
  "http://www.w3.org/Graphics/SVG/1.1/DTD/svg11.dtd">
<svg xmlns:xlink="http://www.w3.org/1999/xlink" width="432pt" height="360pt" viewBox="0 0 432 360" xmlns="http://www.w3.org/2000/svg" version="1.1">
 <metadata>
  <rdf:RDF xmlns:dc="http://purl.org/dc/elements/1.1/" xmlns:cc="http://creativecommons.org/ns#" xmlns:rdf="http://www.w3.org/1999/02/22-rdf-syntax-ns#">
   <cc:Work>
    <dc:type rdf:resource="http://purl.org/dc/dcmitype/StillImage"/>
    <dc:date>2024-05-13T15:07:54.393752</dc:date>
    <dc:format>image/svg+xml</dc:format>
    <dc:creator>
     <cc:Agent>
      <dc:title>Matplotlib v3.5.1, https://matplotlib.org/</dc:title>
     </cc:Agent>
    </dc:creator>
   </cc:Work>
  </rdf:RDF>
 </metadata>
 <defs>
  <style type="text/css">*{stroke-linejoin: round; stroke-linecap: butt}</style>
 </defs>
 <g id="figure_1">
  <g id="patch_1">
   <path d="M 0 360 
L 432 360 
L 432 0 
L 0 0 
L 0 360 
z
" style="fill: none"/>
  </g>
  <g id="axes_1">
   <g id="patch_2">
    <path d="M 36.425 320.2 
L 414.552999 320.2 
L 414.552999 69.788 
L 36.425 69.788 
L 36.425 320.2 
z
" style="fill: none"/>
   </g>
   <g id="matplotlib.axis_1">
    <g id="xtick_1">
     <g id="line2d_1">
      <path d="M 78.256948 320.2 
L 78.256948 69.788 
" clip-path="url(#p457a499782)" style="fill: none; stroke: #ffffff; stroke-width: 0.8; stroke-linecap: round"/>
     </g>
     <g id="text_1">
      <!-- 0.0 -->
      <g style="fill: #262626" transform="translate(71.306948 334.357813)scale(0.1 -0.1)">
       <defs>
        <path id="ArialMT-30" d="M 266 2259 
Q 266 3072 433 3567 
Q 600 4063 929 4331 
Q 1259 4600 1759 4600 
Q 2128 4600 2406 4451 
Q 2684 4303 2865 4023 
Q 3047 3744 3150 3342 
Q 3253 2941 3253 2259 
Q 3253 1453 3087 958 
Q 2922 463 2592 192 
Q 2263 -78 1759 -78 
Q 1097 -78 719 397 
Q 266 969 266 2259 
z
M 844 2259 
Q 844 1131 1108 757 
Q 1372 384 1759 384 
Q 2147 384 2411 759 
Q 2675 1134 2675 2259 
Q 2675 3391 2411 3762 
Q 2147 4134 1753 4134 
Q 1366 4134 1134 3806 
Q 844 3388 844 2259 
z
" transform="scale(0.015625)"/>
        <path id="ArialMT-2e" d="M 581 0 
L 581 641 
L 1222 641 
L 1222 0 
L 581 0 
z
" transform="scale(0.015625)"/>
       </defs>
       <use xlink:href="#ArialMT-30"/>
       <use xlink:href="#ArialMT-2e" x="55.615234"/>
       <use xlink:href="#ArialMT-30" x="83.398438"/>
      </g>
     </g>
    </g>
    <g id="xtick_2">
     <g id="line2d_2">
      <path d="M 162.248937 320.2 
L 162.248937 69.788 
" clip-path="url(#p457a499782)" style="fill: none; stroke: #ffffff; stroke-width: 0.8; stroke-linecap: round"/>
     </g>
     <g id="text_2">
      <!-- 0.2 -->
      <g style="fill: #262626" transform="translate(155.298937 334.357813)scale(0.1 -0.1)">
       <defs>
        <path id="ArialMT-32" d="M 3222 541 
L 3222 0 
L 194 0 
Q 188 203 259 391 
Q 375 700 629 1000 
Q 884 1300 1366 1694 
Q 2113 2306 2375 2664 
Q 2638 3022 2638 3341 
Q 2638 3675 2398 3904 
Q 2159 4134 1775 4134 
Q 1369 4134 1125 3890 
Q 881 3647 878 3216 
L 300 3275 
Q 359 3922 746 4261 
Q 1134 4600 1788 4600 
Q 2447 4600 2831 4234 
Q 3216 3869 3216 3328 
Q 3216 3053 3103 2787 
Q 2991 2522 2730 2228 
Q 2469 1934 1863 1422 
Q 1356 997 1212 845 
Q 1069 694 975 541 
L 3222 541 
z
" transform="scale(0.015625)"/>
       </defs>
       <use xlink:href="#ArialMT-30"/>
       <use xlink:href="#ArialMT-2e" x="55.615234"/>
       <use xlink:href="#ArialMT-32" x="83.398438"/>
      </g>
     </g>
    </g>
    <g id="xtick_3">
     <g id="line2d_3">
      <path d="M 246.240927 320.2 
L 246.240927 69.788 
" clip-path="url(#p457a499782)" style="fill: none; stroke: #ffffff; stroke-width: 0.8; stroke-linecap: round"/>
     </g>
     <g id="text_3">
      <!-- 0.4 -->
      <g style="fill: #262626" transform="translate(239.290927 334.357813)scale(0.1 -0.1)">
       <defs>
        <path id="ArialMT-34" d="M 2069 0 
L 2069 1097 
L 81 1097 
L 81 1613 
L 2172 4581 
L 2631 4581 
L 2631 1613 
L 3250 1613 
L 3250 1097 
L 2631 1097 
L 2631 0 
L 2069 0 
z
M 2069 1613 
L 2069 3678 
L 634 1613 
L 2069 1613 
z
" transform="scale(0.015625)"/>
       </defs>
       <use xlink:href="#ArialMT-30"/>
       <use xlink:href="#ArialMT-2e" x="55.615234"/>
       <use xlink:href="#ArialMT-34" x="83.398438"/>
      </g>
     </g>
    </g>
    <g id="xtick_4">
     <g id="line2d_4">
      <path d="M 330.232916 320.2 
L 330.232916 69.788 
" clip-path="url(#p457a499782)" style="fill: none; stroke: #ffffff; stroke-width: 0.8; stroke-linecap: round"/>
     </g>
     <g id="text_4">
      <!-- 0.6 -->
      <g style="fill: #262626" transform="translate(323.282916 334.357813)scale(0.1 -0.1)">
       <defs>
        <path id="ArialMT-36" d="M 3184 3459 
L 2625 3416 
Q 2550 3747 2413 3897 
Q 2184 4138 1850 4138 
Q 1581 4138 1378 3988 
Q 1113 3794 959 3422 
Q 806 3050 800 2363 
Q 1003 2672 1297 2822 
Q 1591 2972 1913 2972 
Q 2475 2972 2870 2558 
Q 3266 2144 3266 1488 
Q 3266 1056 3080 686 
Q 2894 316 2569 119 
Q 2244 -78 1831 -78 
Q 1128 -78 684 439 
Q 241 956 241 2144 
Q 241 3472 731 4075 
Q 1159 4600 1884 4600 
Q 2425 4600 2770 4297 
Q 3116 3994 3184 3459 
z
M 888 1484 
Q 888 1194 1011 928 
Q 1134 663 1356 523 
Q 1578 384 1822 384 
Q 2178 384 2434 671 
Q 2691 959 2691 1453 
Q 2691 1928 2437 2201 
Q 2184 2475 1800 2475 
Q 1419 2475 1153 2201 
Q 888 1928 888 1484 
z
" transform="scale(0.015625)"/>
       </defs>
       <use xlink:href="#ArialMT-30"/>
       <use xlink:href="#ArialMT-2e" x="55.615234"/>
       <use xlink:href="#ArialMT-36" x="83.398438"/>
      </g>
     </g>
    </g>
    <g id="xtick_5">
     <g id="line2d_5">
      <path d="M 414.224905 320.2 
L 414.224905 69.788 
" clip-path="url(#p457a499782)" style="fill: none; stroke: #ffffff; stroke-width: 0.8; stroke-linecap: round"/>
     </g>
     <g id="text_5">
      <!-- 0.8 -->
      <g style="fill: #262626" transform="translate(407.274905 334.357813)scale(0.1 -0.1)">
       <defs>
        <path id="ArialMT-38" d="M 1131 2484 
Q 781 2613 612 2850 
Q 444 3088 444 3419 
Q 444 3919 803 4259 
Q 1163 4600 1759 4600 
Q 2359 4600 2725 4251 
Q 3091 3903 3091 3403 
Q 3091 3084 2923 2848 
Q 2756 2613 2416 2484 
Q 2838 2347 3058 2040 
Q 3278 1734 3278 1309 
Q 3278 722 2862 322 
Q 2447 -78 1769 -78 
Q 1091 -78 675 323 
Q 259 725 259 1325 
Q 259 1772 486 2073 
Q 713 2375 1131 2484 
z
M 1019 3438 
Q 1019 3113 1228 2906 
Q 1438 2700 1772 2700 
Q 2097 2700 2305 2904 
Q 2513 3109 2513 3406 
Q 2513 3716 2298 3927 
Q 2084 4138 1766 4138 
Q 1444 4138 1231 3931 
Q 1019 3725 1019 3438 
z
M 838 1322 
Q 838 1081 952 856 
Q 1066 631 1291 507 
Q 1516 384 1775 384 
Q 2178 384 2440 643 
Q 2703 903 2703 1303 
Q 2703 1709 2433 1975 
Q 2163 2241 1756 2241 
Q 1359 2241 1098 1978 
Q 838 1716 838 1322 
z
" transform="scale(0.015625)"/>
       </defs>
       <use xlink:href="#ArialMT-30"/>
       <use xlink:href="#ArialMT-2e" x="55.615234"/>
       <use xlink:href="#ArialMT-38" x="83.398438"/>
      </g>
     </g>
    </g>
    <g id="text_6">
     <!-- seconds -->
     <g style="fill: #262626" transform="translate(206.867124 347.503125)scale(0.1 -0.1)">
      <defs>
       <path id="ArialMT-73" d="M 197 991 
L 753 1078 
Q 800 744 1014 566 
Q 1228 388 1613 388 
Q 2000 388 2187 545 
Q 2375 703 2375 916 
Q 2375 1106 2209 1216 
Q 2094 1291 1634 1406 
Q 1016 1563 777 1677 
Q 538 1791 414 1992 
Q 291 2194 291 2438 
Q 291 2659 392 2848 
Q 494 3038 669 3163 
Q 800 3259 1026 3326 
Q 1253 3394 1513 3394 
Q 1903 3394 2198 3281 
Q 2494 3169 2634 2976 
Q 2775 2784 2828 2463 
L 2278 2388 
Q 2241 2644 2061 2787 
Q 1881 2931 1553 2931 
Q 1166 2931 1000 2803 
Q 834 2675 834 2503 
Q 834 2394 903 2306 
Q 972 2216 1119 2156 
Q 1203 2125 1616 2013 
Q 2213 1853 2448 1751 
Q 2684 1650 2818 1456 
Q 2953 1263 2953 975 
Q 2953 694 2789 445 
Q 2625 197 2315 61 
Q 2006 -75 1616 -75 
Q 969 -75 630 194 
Q 291 463 197 991 
z
" transform="scale(0.015625)"/>
       <path id="ArialMT-65" d="M 2694 1069 
L 3275 997 
Q 3138 488 2766 206 
Q 2394 -75 1816 -75 
Q 1088 -75 661 373 
Q 234 822 234 1631 
Q 234 2469 665 2931 
Q 1097 3394 1784 3394 
Q 2450 3394 2872 2941 
Q 3294 2488 3294 1666 
Q 3294 1616 3291 1516 
L 816 1516 
Q 847 969 1125 678 
Q 1403 388 1819 388 
Q 2128 388 2347 550 
Q 2566 713 2694 1069 
z
M 847 1978 
L 2700 1978 
Q 2663 2397 2488 2606 
Q 2219 2931 1791 2931 
Q 1403 2931 1139 2672 
Q 875 2413 847 1978 
z
" transform="scale(0.015625)"/>
       <path id="ArialMT-63" d="M 2588 1216 
L 3141 1144 
Q 3050 572 2676 248 
Q 2303 -75 1759 -75 
Q 1078 -75 664 370 
Q 250 816 250 1647 
Q 250 2184 428 2587 
Q 606 2991 970 3192 
Q 1334 3394 1763 3394 
Q 2303 3394 2647 3120 
Q 2991 2847 3088 2344 
L 2541 2259 
Q 2463 2594 2264 2762 
Q 2066 2931 1784 2931 
Q 1359 2931 1093 2626 
Q 828 2322 828 1663 
Q 828 994 1084 691 
Q 1341 388 1753 388 
Q 2084 388 2306 591 
Q 2528 794 2588 1216 
z
" transform="scale(0.015625)"/>
       <path id="ArialMT-6f" d="M 213 1659 
Q 213 2581 725 3025 
Q 1153 3394 1769 3394 
Q 2453 3394 2887 2945 
Q 3322 2497 3322 1706 
Q 3322 1066 3130 698 
Q 2938 331 2570 128 
Q 2203 -75 1769 -75 
Q 1072 -75 642 372 
Q 213 819 213 1659 
z
M 791 1659 
Q 791 1022 1069 705 
Q 1347 388 1769 388 
Q 2188 388 2466 706 
Q 2744 1025 2744 1678 
Q 2744 2294 2464 2611 
Q 2184 2928 1769 2928 
Q 1347 2928 1069 2612 
Q 791 2297 791 1659 
z
" transform="scale(0.015625)"/>
       <path id="ArialMT-6e" d="M 422 0 
L 422 3319 
L 928 3319 
L 928 2847 
Q 1294 3394 1984 3394 
Q 2284 3394 2536 3286 
Q 2788 3178 2913 3003 
Q 3038 2828 3088 2588 
Q 3119 2431 3119 2041 
L 3119 0 
L 2556 0 
L 2556 2019 
Q 2556 2363 2490 2533 
Q 2425 2703 2258 2804 
Q 2091 2906 1866 2906 
Q 1506 2906 1245 2678 
Q 984 2450 984 1813 
L 984 0 
L 422 0 
z
" transform="scale(0.015625)"/>
       <path id="ArialMT-64" d="M 2575 0 
L 2575 419 
Q 2259 -75 1647 -75 
Q 1250 -75 917 144 
Q 584 363 401 755 
Q 219 1147 219 1656 
Q 219 2153 384 2558 
Q 550 2963 881 3178 
Q 1213 3394 1622 3394 
Q 1922 3394 2156 3267 
Q 2391 3141 2538 2938 
L 2538 4581 
L 3097 4581 
L 3097 0 
L 2575 0 
z
M 797 1656 
Q 797 1019 1065 703 
Q 1334 388 1700 388 
Q 2069 388 2326 689 
Q 2584 991 2584 1609 
Q 2584 2291 2321 2609 
Q 2059 2928 1675 2928 
Q 1300 2928 1048 2622 
Q 797 2316 797 1656 
z
" transform="scale(0.015625)"/>
      </defs>
      <use xlink:href="#ArialMT-73"/>
      <use xlink:href="#ArialMT-65" x="50"/>
      <use xlink:href="#ArialMT-63" x="105.615234"/>
      <use xlink:href="#ArialMT-6f" x="155.615234"/>
      <use xlink:href="#ArialMT-6e" x="211.230469"/>
      <use xlink:href="#ArialMT-64" x="266.845703"/>
      <use xlink:href="#ArialMT-73" x="322.460938"/>
     </g>
    </g>
   </g>
   <g id="matplotlib.axis_2">
    <g id="ytick_1">
     <g id="line2d_6">
      <path d="M 36.425 285.196172 
L 414.552999 285.196172 
" clip-path="url(#p457a499782)" style="fill: none; stroke: #ffffff; stroke-width: 0.8; stroke-linecap: round"/>
     </g>
     <g id="text_7">
      <!-- 0 -->
      <g style="fill: #262626" transform="translate(23.864063 288.775078)scale(0.1 -0.1)">
       <use xlink:href="#ArialMT-30"/>
      </g>
     </g>
    </g>
    <g id="ytick_2">
     <g id="line2d_7">
      <path d="M 36.425 231.344129 
L 414.552999 231.344129 
" clip-path="url(#p457a499782)" style="fill: none; stroke: #ffffff; stroke-width: 0.8; stroke-linecap: round"/>
     </g>
     <g id="text_8">
      <!-- 2 -->
      <g style="fill: #262626" transform="translate(23.864063 234.923035)scale(0.1 -0.1)">
       <use xlink:href="#ArialMT-32"/>
      </g>
     </g>
    </g>
    <g id="ytick_3">
     <g id="line2d_8">
      <path d="M 36.425 177.492086 
L 414.552999 177.492086 
" clip-path="url(#p457a499782)" style="fill: none; stroke: #ffffff; stroke-width: 0.8; stroke-linecap: round"/>
     </g>
     <g id="text_9">
      <!-- 4 -->
      <g style="fill: #262626" transform="translate(23.864063 181.070992)scale(0.1 -0.1)">
       <use xlink:href="#ArialMT-34"/>
      </g>
     </g>
    </g>
    <g id="ytick_4">
     <g id="line2d_9">
      <path d="M 36.425 123.640043 
L 414.552999 123.640043 
" clip-path="url(#p457a499782)" style="fill: none; stroke: #ffffff; stroke-width: 0.8; stroke-linecap: round"/>
     </g>
     <g id="text_10">
      <!-- 6 -->
      <g style="fill: #262626" transform="translate(23.864063 127.218949)scale(0.1 -0.1)">
       <use xlink:href="#ArialMT-36"/>
      </g>
     </g>
    </g>
    <g id="ytick_5">
     <g id="line2d_10">
      <path d="M 36.425 69.788 
L 414.552999 69.788 
" clip-path="url(#p457a499782)" style="fill: none; stroke: #ffffff; stroke-width: 0.8; stroke-linecap: round"/>
     </g>
     <g id="text_11">
      <!-- 8 -->
      <g style="fill: #262626" transform="translate(23.864063 73.366906)scale(0.1 -0.1)">
       <use xlink:href="#ArialMT-38"/>
      </g>
     </g>
    </g>
    <g id="text_12">
     <!-- µV -->
     <g style="fill: #262626" transform="translate(17.876563 201.210406)rotate(-90)scale(0.1 -0.1)">
      <defs>
       <path id="ArialMT-b5" d="M 3181 3319 
L 3181 0 
L 2678 0 
L 2678 394 
Q 2516 144 2356 50 
Q 2138 -78 1847 -78 
Q 1588 -78 1388 25 
Q 1238 103 1056 334 
L 1056 -1272 
L 500 -1272 
L 500 3319 
L 1056 3319 
L 1056 1913 
Q 1056 1147 1137 920 
Q 1219 694 1401 562 
Q 1584 431 1822 431 
Q 2072 431 2269 568 
Q 2466 706 2547 923 
Q 2628 1141 2628 1903 
L 2628 3319 
L 3181 3319 
z
" transform="scale(0.015625)"/>
       <path id="ArialMT-56" d="M 1803 0 
L 28 4581 
L 684 4581 
L 1875 1253 
Q 2019 853 2116 503 
Q 2222 878 2363 1253 
L 3600 4581 
L 4219 4581 
L 2425 0 
L 1803 0 
z
" transform="scale(0.015625)"/>
      </defs>
      <use xlink:href="#ArialMT-b5"/>
      <use xlink:href="#ArialMT-56" x="57.617188"/>
     </g>
    </g>
   </g>
   <g id="PolyCollection_1">
    <defs>
     <path id="mfd737e6140" d="M 36.425 -68.730494 
L 36.425 -59.068548 
L 37.245234 -58.849608 
L 38.065469 -58.613599 
L 38.885703 -58.505194 
L 39.705937 -58.682427 
L 40.526171 -59.251247 
L 41.346406 -60.213751 
L 42.16664 -61.444328 
L 42.986874 -62.711868 
L 43.807108 -63.791203 
L 44.627343 -64.621829 
L 45.447577 -65.299587 
L 46.267811 -65.922327 
L 47.088046 -66.507066 
L 47.90828 -66.997296 
L 48.728514 -67.314224 
L 49.548748 -67.43518 
L 50.368983 -67.450226 
L 51.189217 -67.527252 
L 52.009451 -67.811968 
L 52.829685 -68.344722 
L 53.64992 -69.027841 
L 54.470154 -69.693104 
L 55.290388 -70.293635 
L 56.110623 -70.94241 
L 56.930857 -71.740689 
L 57.751091 -72.692064 
L 58.571325 -73.713874 
L 59.39156 -74.673861 
L 60.211794 -75.434786 
L 61.032028 -75.901072 
L 61.852262 -76.049419 
L 62.672497 -75.922414 
L 63.492731 -75.599085 
L 64.312965 -75.180611 
L 65.133199 -74.791218 
L 65.953434 -74.564083 
L 66.773668 -74.607045 
L 67.593902 -74.968151 
L 68.414137 -75.617502 
L 69.234371 -76.451286 
L 70.054605 -77.319637 
L 70.874839 -78.077025 
L 71.695074 -78.638981 
L 72.515308 -79.008473 
L 73.335542 -79.249935 
L 74.155776 -79.436631 
L 74.976011 -79.610247 
L 75.796245 -79.767986 
L 76.616479 -79.875468 
L 77.436714 -79.895201 
L 78.256948 -79.809443 
L 79.077182 -79.620943 
L 79.897416 -79.341878 
L 80.717651 -78.990495 
L 81.537885 -78.597165 
L 82.358119 -78.209138 
L 83.178353 -77.886474 
L 83.998588 -77.690096 
L 84.818822 -77.667943 
L 85.639056 -77.844428 
L 86.459291 -78.215361 
L 87.279525 -78.747809 
L 88.099759 -79.383414 
L 88.919993 -80.045246 
L 89.740228 -80.650654 
L 90.560462 -81.130778 
L 91.380696 -81.449474 
L 92.20093 -81.608267 
L 93.021165 -81.630575 
L 93.841399 -81.534733 
L 94.661633 -81.317171 
L 95.481868 -80.966345 
L 96.302102 -80.505185 
L 97.122336 -80.020149 
L 97.94257 -79.636404 
L 98.762805 -79.456606 
L 99.583039 -79.509014 
L 100.403273 -79.733593 
L 101.223507 -80.02155 
L 102.043742 -80.299434 
L 102.863976 -80.590351 
L 103.68421 -80.984886 
L 104.504444 -81.555176 
L 105.324679 -82.288189 
L 106.144913 -83.06833 
L 106.965147 -83.710299 
L 107.785382 -84.04098 
L 108.605616 -84.000227 
L 109.42585 -83.674394 
L 110.246084 -83.220223 
L 111.066319 -82.761037 
L 111.886553 -82.339342 
L 112.706787 -81.936561 
L 113.527021 -81.527979 
L 114.347256 -81.118366 
L 115.16749 -80.726183 
L 115.987724 -80.347493 
L 116.807959 -79.945877 
L 117.628193 -79.475229 
L 118.448427 -78.91028 
L 119.268661 -78.257555 
L 120.088896 -77.53815 
L 120.90913 -76.756221 
L 121.729364 -75.879697 
L 122.549598 -74.858086 
L 123.369833 -73.677362 
L 124.190067 -72.406411 
L 125.010301 -71.18523 
L 125.830536 -70.167974 
L 126.65077 -69.470179 
L 127.471004 -69.143711 
L 128.291238 -69.175723 
L 129.111473 -69.503046 
L 129.931707 -70.036373 
L 130.751941 -70.688206 
L 131.572175 -71.393394 
L 132.39241 -72.108847 
L 133.212644 -72.791404 
L 134.032878 -73.375548 
L 134.853113 -73.780819 
L 135.673347 -73.955106 
L 136.493581 -73.920028 
L 137.313815 -73.775563 
L 138.13405 -73.660342 
L 138.954284 -73.698256 
L 139.774518 -73.958115 
L 140.594752 -74.43665 
L 141.414987 -75.065138 
L 142.235221 -75.73364 
L 143.055455 -76.32143 
L 143.875689 -76.721947 
L 144.695924 -76.860502 
L 145.516158 -76.712731 
L 146.336392 -76.323192 
L 147.156627 -75.806433 
L 147.976861 -75.317897 
L 148.797095 -75.005633 
L 149.617329 -74.966508 
L 150.437564 -75.225894 
L 151.257798 -75.746833 
L 152.078032 -76.457932 
L 152.898266 -77.276363 
L 153.718501 -78.109969 
L 154.538735 -78.849702 
L 155.358969 -79.380761 
L 156.179204 -79.625014 
L 156.999438 -79.589587 
L 157.819672 -79.375919 
L 158.639906 -79.132069 
L 159.460141 -78.978343 
L 160.280375 -78.950916 
L 161.100609 -78.994797 
L 161.920843 -79.017857 
L 162.741078 -78.976371 
L 163.561312 -78.911221 
L 164.381546 -78.891856 
L 165.201781 -78.936723 
L 166.022015 -78.996232 
L 166.842249 -79.009565 
L 167.662483 -78.978818 
L 168.482718 -78.988882 
L 169.302952 -79.157715 
L 170.123186 -79.563769 
L 170.94342 -80.197517 
L 171.763655 -80.953432 
L 172.583889 -81.66063 
L 173.404123 -82.143548 
L 174.224358 -82.291169 
L 175.044592 -82.093605 
L 175.864826 -81.616974 
L 176.68506 -80.943958 
L 177.505295 -80.134677 
L 178.325529 -79.227337 
L 179.145763 -78.258445 
L 179.965997 -77.275261 
L 180.786232 -76.33081 
L 181.606466 -75.471061 
L 182.4267 -74.727707 
L 183.246935 -74.12136 
L 184.067169 -73.670926 
L 184.887403 -73.401782 
L 185.707637 -73.346588 
L 186.527872 -73.536281 
L 187.348106 -73.983905 
L 188.16834 -74.668227 
L 188.988574 -75.524921 
L 189.808809 -76.450658 
L 190.629043 -77.321865 
L 191.449277 -78.024901 
L 192.269511 -78.4876 
L 193.089746 -78.698147 
L 193.90998 -78.702653 
L 194.730214 -78.585859 
L 195.550449 -78.447428 
L 196.370683 -78.382559 
L 197.190917 -78.467269 
L 198.011151 -78.745542 
L 198.831386 -79.218885 
L 199.65162 -79.842938 
L 200.471854 -80.535307 
L 201.292088 -81.194642 
L 202.112323 -81.726289 
L 202.932557 -82.066538 
L 203.752791 -82.197357 
L 204.573026 -82.147856 
L 205.39326 -81.984196 
L 206.213494 -81.791607 
L 207.033728 -81.651346 
L 207.853963 -81.616115 
L 208.674197 -81.690853 
L 209.494431 -81.827438 
L 210.314665 -81.938314 
L 211.1349 -81.92539 
L 211.955134 -81.711653 
L 212.775368 -81.261009 
L 213.595603 -80.579913 
L 214.415837 -79.707491 
L 215.236071 -78.70925 
L 216.056305 -77.683122 
L 216.87654 -76.764606 
L 217.696774 -76.104084 
L 218.517008 -75.810757 
L 219.337242 -75.893306 
L 220.157477 -76.235495 
L 220.977711 -76.625597 
L 221.797945 -76.831488 
L 222.61818 -76.685121 
L 223.438414 -76.127729 
L 224.258648 -75.194684 
L 225.078882 -73.966044 
L 225.899117 -72.527369 
L 226.719351 -70.967871 
L 227.539585 -69.40835 
L 228.359819 -68.017137 
L 229.180054 -66.974565 
L 230.000288 -66.398899 
L 230.820522 -66.28818 
L 231.640756 -66.519058 
L 232.460991 -66.904508 
L 233.281225 -67.277115 
L 234.101459 -67.546641 
L 234.921694 -67.700386 
L 235.741928 -67.762232 
L 236.562162 -67.752896 
L 237.382396 -67.682737 
L 238.202631 -67.580001 
L 239.022865 -67.525851 
L 239.843099 -67.653286 
L 240.663333 -68.097792 
L 241.483568 -68.935447 
L 242.303802 -70.151032 
L 243.124036 -71.64906 
L 243.944271 -73.293905 
L 244.764505 -74.954608 
L 245.584739 -76.533457 
L 246.404973 -77.972124 
L 247.225208 -79.244285 
L 248.045442 -80.346862 
L 248.865676 -81.295362 
L 249.68591 -82.121946 
L 250.506145 -82.87285 
L 251.326379 -83.603396 
L 252.146613 -84.37037 
L 252.966848 -85.221242 
L 253.787082 -86.180506 
L 254.607316 -87.237724 
L 255.42755 -88.345104 
L 256.247785 -89.429342 
L 257.068019 -90.414612 
L 257.888253 -91.246826 
L 258.708487 -91.908204 
L 259.528722 -92.41749 
L 260.348956 -92.821204 
L 261.16919 -93.186304 
L 261.989425 -93.598784 
L 262.809659 -94.16024 
L 263.629893 -94.969277 
L 264.450127 -96.086494 
L 265.270362 -97.499536 
L 266.090596 -99.110024 
L 266.91083 -100.754013 
L 267.731064 -102.251162 
L 268.551299 -103.463214 
L 269.371533 -104.335919 
L 270.191767 -104.905695 
L 271.012001 -105.271709 
L 271.832236 -105.552057 
L 272.65247 -105.847163 
L 273.472704 -106.225426 
L 274.292939 -106.730587 
L 275.113173 -107.393894 
L 275.933407 -108.232585 
L 276.753641 -109.235492 
L 277.573876 -110.353209 
L 278.39411 -111.505426 
L 279.214344 -112.60353 
L 280.034578 -113.579074 
L 280.854813 -114.408886 
L 281.675047 -115.128897 
L 282.495281 -115.829614 
L 283.315516 -116.630369 
L 284.13575 -117.638939 
L 284.955984 -118.912729 
L 285.776218 -120.438949 
L 286.596453 -122.141607 
L 287.416687 -123.909489 
L 288.236921 -125.630228 
L 289.057155 -127.215662 
L 289.87739 -128.61149 
L 290.697624 -129.793873 
L 291.517858 -130.76158 
L 292.338093 -131.531357 
L 293.158327 -132.137137 
L 293.978561 -132.62633 
L 294.798795 -133.046704 
L 295.61903 -133.427177 
L 296.439264 -133.765061 
L 297.259498 -134.030557 
L 298.079732 -134.188443 
L 298.899967 -134.22631 
L 299.720201 -134.175024 
L 300.540435 -134.111578 
L 301.36067 -134.143515 
L 302.180904 -134.382483 
L 303.001138 -134.917647 
L 303.821372 -135.796493 
L 304.641607 -137.014761 
L 305.461841 -138.514337 
L 306.282075 -140.188643 
L 307.102309 -141.896494 
L 307.922544 -143.485361 
L 308.742778 -144.821754 
L 309.563012 -145.820634 
L 310.383247 -146.462433 
L 311.203481 -146.790494 
L 312.023715 -146.891252 
L 312.843949 -146.866363 
L 313.664184 -146.806721 
L 314.484418 -146.774778 
L 315.304652 -146.797041 
L 316.124886 -146.865738 
L 316.945121 -146.947951 
L 317.765355 -147.000094 
L 318.585589 -146.984922 
L 319.405823 -146.888224 
L 320.226058 -146.732193 
L 321.046292 -146.581502 
L 321.866526 -146.538205 
L 322.686761 -146.723967 
L 323.506995 -147.251808 
L 324.327229 -148.193593 
L 325.147463 -149.552676 
L 325.967698 -151.251656 
L 326.787932 -153.14218 
L 327.608166 -155.036662 
L 328.4284 -156.751339 
L 329.248635 -158.142699 
L 330.068869 -159.125599 
L 330.889103 -159.67789 
L 331.709338 -159.843452 
L 332.529572 -159.735326 
L 333.349806 -159.527851 
L 334.17004 -159.426904 
L 334.990275 -159.620829 
L 335.810509 -160.22907 
L 336.630743 -161.269463 
L 337.450977 -162.656626 
L 338.271212 -164.22936 
L 339.091446 -165.793712 
L 339.91168 -167.16639 
L 340.731915 -168.210084 
L 341.552149 -168.860192 
L 342.372383 -169.142137 
L 343.192617 -169.171459 
L 344.012852 -169.127826 
L 344.833086 -169.205832 
L 345.65332 -169.560396 
L 346.473554 -170.269864 
L 347.293789 -171.331836 
L 348.114023 -172.688412 
L 348.934257 -174.259343 
L 349.754492 -175.960512 
L 350.574726 -177.704616 
L 351.39496 -179.39973 
L 352.215194 -180.961594 
L 353.035429 -182.340168 
L 353.855663 -183.543815 
L 354.675897 -184.639282 
L 355.496131 -185.720902 
L 356.316366 -186.867041 
L 357.1366 -188.112114 
L 357.956834 -189.449984 
L 358.777068 -190.861666 
L 359.597303 -192.343668 
L 360.417537 -193.915586 
L 361.237771 -195.604785 
L 362.058006 -197.422934 
L 362.87824 -199.350023 
L 363.698474 -201.331802 
L 364.518708 -203.288048 
L 365.338943 -205.125392 
L 366.159177 -206.74948 
L 366.979411 -208.075846 
L 367.799645 -209.042858 
L 368.61988 -209.628918 
L 369.440114 -209.869311 
L 370.260348 -209.861387 
L 371.080583 -209.748711 
L 371.900817 -209.686647 
L 372.721051 -209.803134 
L 373.541285 -210.169555 
L 374.36152 -210.789467 
L 375.181754 -211.605512 
L 376.001988 -212.520149 
L 376.822222 -213.423141 
L 377.642457 -214.218469 
L 378.462691 -214.846144 
L 379.282925 -215.296873 
L 380.10316 -215.617012 
L 380.923394 -215.899893 
L 381.743628 -216.261645 
L 382.563862 -216.806134 
L 383.384097 -217.590415 
L 384.204331 -218.604319 
L 385.024565 -219.772959 
L 385.844799 -220.981392 
L 386.665034 -222.111334 
L 387.485268 -223.074728 
L 388.305502 -223.831198 
L 389.125737 -224.386094 
L 389.945971 -224.776714 
L 390.766205 -225.058335 
L 391.586439 -225.296773 
L 392.406674 -225.565181 
L 393.226908 -225.937161 
L 394.047142 -226.471589 
L 394.867376 -227.194223 
L 395.687611 -228.087452 
L 396.507845 -229.096374 
L 397.328079 -230.150513 
L 398.148313 -231.191788 
L 398.968548 -232.194648 
L 399.788782 -233.167431 
L 400.609016 -234.135245 
L 401.429251 -235.116553 
L 402.249485 -236.109217 
L 403.069719 -237.094801 
L 403.889953 -238.056376 
L 404.710188 -238.992818 
L 405.530422 -239.913865 
L 406.350656 -240.817212 
L 407.17089 -241.666469 
L 407.991125 -242.390928 
L 408.811359 -242.914188 
L 409.631593 -243.196861 
L 410.451828 -243.263219 
L 411.272062 -243.190406 
L 412.092296 -243.068726 
L 412.91253 -242.96285 
L 413.732765 -242.897722 
L 414.552999 -242.870758 
L 414.552999 -293.648835 
L 414.552999 -293.648835 
L 413.732765 -293.161071 
L 412.91253 -292.562052 
L 412.092296 -291.85535 
L 411.272062 -291.045303 
L 410.451828 -290.157352 
L 409.631593 -289.236168 
L 408.811359 -288.320163 
L 407.991125 -287.413482 
L 407.17089 -286.482265 
L 406.350656 -285.481811 
L 405.530422 -284.393657 
L 404.710188 -283.24381 
L 403.889953 -282.089268 
L 403.069719 -280.983146 
L 402.249485 -279.942747 
L 401.429251 -278.941354 
L 400.609016 -277.926408 
L 399.788782 -276.848673 
L 398.968548 -275.683081 
L 398.148313 -274.432116 
L 397.328079 -273.116494 
L 396.507845 -271.764834 
L 395.687611 -270.410954 
L 394.867376 -269.0985 
L 394.047142 -267.884939 
L 393.226908 -266.835777 
L 392.406674 -266.006026 
L 391.586439 -265.415484 
L 390.766205 -265.031095 
L 389.945971 -264.768463 
L 389.125737 -264.514804 
L 388.305502 -264.16287 
L 387.485268 -263.6392 
L 386.665034 -262.915283 
L 385.844799 -262.001815 
L 385.024565 -260.934977 
L 384.204331 -259.764386 
L 383.384097 -258.546617 
L 382.563862 -257.341579 
L 381.743628 -256.206611 
L 380.923394 -255.185874 
L 380.10316 -254.297649 
L 379.282925 -253.525888 
L 378.462691 -252.822557 
L 377.642457 -252.12265 
L 376.822222 -251.365854 
L 376.001988 -250.514405 
L 375.181754 -249.560216 
L 374.36152 -248.521781 
L 373.541285 -247.435669 
L 372.721051 -246.34751 
L 371.900817 -245.305057 
L 371.080583 -244.352891 
L 370.260348 -243.526229 
L 369.440114 -242.841864 
L 368.61988 -242.288111 
L 367.799645 -241.820234 
L 366.979411 -241.367818 
L 366.159177 -240.852414 
L 365.338943 -240.2049 
L 364.518708 -239.373341 
L 363.698474 -238.321923 
L 362.87824 -237.028727 
L 362.058006 -235.48922 
L 361.237771 -233.725954 
L 360.417537 -231.797922 
L 359.597303 -229.799485 
L 358.777068 -227.842029 
L 357.956834 -226.022032 
L 357.1366 -224.391283 
L 356.316366 -222.947401 
L 355.496131 -221.649029 
L 354.675897 -220.441256 
L 353.855663 -219.271347 
L 353.035429 -218.087372 
L 352.215194 -216.831133 
L 351.39496 -215.444777 
L 350.574726 -213.898214 
L 349.754492 -212.22196 
L 348.934257 -210.518895 
L 348.114023 -208.938651 
L 347.293789 -207.622368 
L 346.473554 -206.646728 
L 345.65332 -205.997391 
L 344.833086 -205.58098 
L 344.012852 -205.260761 
L 343.192617 -204.894119 
L 342.372383 -204.359181 
L 341.552149 -203.570812 
L 340.731915 -202.492374 
L 339.91168 -201.145695 
L 339.091446 -199.612877 
L 338.271212 -198.02068 
L 337.450977 -196.507059 
L 336.630743 -195.182918 
L 335.810509 -194.106486 
L 334.990275 -193.278301 
L 334.17004 -192.65161 
L 333.349806 -192.147775 
L 332.529572 -191.670199 
L 331.709338 -191.11761 
L 330.889103 -190.402139 
L 330.068869 -189.474084 
L 329.248635 -188.344248 
L 328.4284 -187.087374 
L 327.608166 -185.817808 
L 326.787932 -184.647696 
L 325.967698 -183.651232 
L 325.147463 -182.852163 
L 324.327229 -182.23333 
L 323.506995 -181.75545 
L 322.686761 -181.373995 
L 321.866526 -181.050014 
L 321.046292 -180.755375 
L 320.226058 -180.474204 
L 319.405823 -180.202041 
L 318.585589 -179.943603 
L 317.765355 -179.709003 
L 316.945121 -179.508003 
L 316.124886 -179.34285 
L 315.304652 -179.20144 
L 314.484418 -179.053051 
L 313.664184 -178.849008 
L 312.843949 -178.529572 
L 312.023715 -178.03586 
L 311.203481 -177.323186 
L 310.383247 -176.37127 
L 309.563012 -175.187668 
L 308.742778 -173.804012 
L 307.922544 -172.269254 
L 307.102309 -170.645368 
L 306.282075 -169.006343 
L 305.461841 -167.435525 
L 304.641607 -166.016131 
L 303.821372 -164.815146 
L 303.001138 -163.86674 
L 302.180904 -163.163301 
L 301.36067 -162.658645 
L 300.540435 -162.281596 
L 299.720201 -161.953531 
L 298.899967 -161.603337 
L 298.079732 -161.176869 
L 297.259498 -160.642515 
L 296.439264 -159.995777 
L 295.61903 -159.262111 
L 294.798795 -158.492854 
L 293.978561 -157.7496 
L 293.158327 -157.078073 
L 292.338093 -156.480782 
L 291.517858 -155.904217 
L 290.697624 -155.252553 
L 289.87739 -154.424184 
L 289.057155 -153.352952 
L 288.236921 -152.035047 
L 287.416687 -150.532079 
L 286.596453 -148.952477 
L 285.776218 -147.421801 
L 284.955984 -146.054169 
L 284.13575 -144.931488 
L 283.315516 -144.090327 
L 282.495281 -143.513693 
L 281.675047 -143.12719 
L 280.854813 -142.80389 
L 280.034578 -142.384881 
L 279.214344 -141.717005 
L 278.39411 -140.698017 
L 277.573876 -139.312994 
L 276.753641 -137.648614 
L 275.933407 -135.879226 
L 275.113173 -134.225465 
L 274.292939 -132.892547 
L 273.472704 -132.00405 
L 272.65247 -131.557393 
L 271.832236 -131.426141 
L 271.012001 -131.409837 
L 270.191767 -131.303274 
L 269.371533 -130.952417 
L 268.551299 -130.279773 
L 267.731064 -129.279686 
L 266.91083 -127.997251 
L 266.090596 -126.509002 
L 265.270362 -124.914177 
L 264.450127 -123.330464 
L 263.629893 -121.88266 
L 262.809659 -120.678596 
L 261.989425 -119.776749 
L 261.16919 -119.159711 
L 260.348956 -118.731822 
L 259.528722 -118.348713 
L 258.708487 -117.865177 
L 257.888253 -117.176723 
L 257.068019 -116.238808 
L 256.247785 -115.064093 
L 255.42755 -113.708248 
L 254.607316 -112.254749 
L 253.787082 -110.801735 
L 252.966848 -109.447809 
L 252.146613 -108.274338 
L 251.326379 -107.326788 
L 250.506145 -106.601568 
L 249.68591 -106.044681 
L 248.865676 -105.563672 
L 248.045442 -105.049053 
L 247.225208 -104.39952 
L 246.404973 -103.546025 
L 245.584739 -102.469062 
L 244.764505 -101.202339 
L 243.944271 -99.819276 
L 243.124036 -98.408112 
L 242.303802 -97.049901 
L 241.483568 -95.81209 
L 240.663333 -94.757662 
L 239.843099 -93.955784 
L 239.022865 -93.475238 
L 238.202631 -93.351187 
L 237.382396 -93.540287 
L 236.562162 -93.904552 
L 235.741928 -94.253678 
L 234.921694 -94.425866 
L 234.101459 -94.355196 
L 233.281225 -94.087799 
L 232.460991 -93.743493 
L 231.640756 -93.452415 
L 230.820522 -93.311928 
L 230.000288 -93.387641 
L 229.180054 -93.739243 
L 228.359819 -94.432595 
L 227.539585 -95.514924 
L 226.719351 -96.961317 
L 225.899117 -98.633873 
L 225.078882 -100.301371 
L 224.258648 -101.721235 
L 223.438414 -102.7311 
L 222.61818 -103.294656 
L 221.797945 -103.483756 
L 220.977711 -103.419648 
L 220.157477 -103.220043 
L 219.337242 -102.985561 
L 218.517008 -102.816721 
L 217.696774 -102.827256 
L 216.87654 -103.129981 
L 216.056305 -103.79553 
L 215.236071 -104.806182 
L 214.415837 -106.039614 
L 213.595603 -107.302942 
L 212.775368 -108.398735 
L 211.955134 -109.182978 
L 211.1349 -109.590408 
L 210.314665 -109.629672 
L 209.494431 -109.364194 
L 208.674197 -108.891531 
L 207.853963 -108.324751 
L 207.033728 -107.773752 
L 206.213494 -107.325195 
L 205.39326 -107.024181 
L 204.573026 -106.864756 
L 203.752791 -106.794698 
L 202.932557 -106.733082 
L 202.112323 -106.593163 
L 201.292088 -106.303347 
L 200.471854 -105.822482 
L 199.65162 -105.148121 
L 198.831386 -104.316738 
L 198.011151 -103.39498 
L 197.190917 -102.462541 
L 196.370683 -101.590885 
L 195.550449 -100.825394 
L 194.730214 -100.17835 
L 193.90998 -99.635325 
L 193.089746 -99.170183 
L 192.269511 -98.758603 
L 191.449277 -98.38224 
L 190.629043 -98.025433 
L 189.808809 -97.673664 
L 188.988574 -97.318561 
L 188.16834 -96.964996 
L 187.348106 -96.633408 
L 186.527872 -96.354744 
L 185.707637 -96.160067 
L 184.887403 -96.069204 
L 184.067169 -96.082908 
L 183.246935 -96.181878 
L 182.4267 -96.33406 
L 181.606466 -96.508442 
L 180.786232 -96.689707 
L 179.965997 -96.886251 
L 179.145763 -97.125822 
L 178.325529 -97.438315 
L 177.505295 -97.834025 
L 176.68506 -98.294295 
L 175.864826 -98.786775 
L 175.044592 -99.295205 
L 174.224358 -99.833265 
L 173.404123 -100.418479 
L 172.583889 -101.02196 
L 171.763655 -101.545625 
L 170.94342 -101.854004 
L 170.123186 -101.833871 
L 169.302952 -101.443572 
L 168.482718 -100.733887 
L 167.662483 -99.835041 
L 166.842249 -98.909095 
L 166.022015 -98.082252 
L 165.201781 -97.401035 
L 164.381546 -96.855839 
L 163.561312 -96.453091 
L 162.741078 -96.262903 
L 161.920843 -96.387517 
L 161.100609 -96.865799 
L 160.280375 -97.604723 
L 159.460141 -98.411886 
L 158.639906 -99.089771 
L 157.819672 -99.510841 
L 156.999438 -99.640468 
L 156.179204 -99.513133 
L 155.358969 -99.184921 
L 154.538735 -98.699435 
L 153.718501 -98.093287 
L 152.898266 -97.423969 
L 152.078032 -96.778233 
L 151.257798 -96.24342 
L 150.437564 -95.863893 
L 149.617329 -95.619236 
L 148.797095 -95.441027 
L 147.976861 -95.253733 
L 147.156627 -95.01237 
L 146.336392 -94.718163 
L 145.516158 -94.409097 
L 144.695924 -94.135887 
L 143.875689 -93.941131 
L 143.055455 -93.851434 
L 142.235221 -93.873879 
L 141.414987 -93.986009 
L 140.594752 -94.126747 
L 139.774518 -94.204131 
L 138.954284 -94.122618 
L 138.13405 -93.817989 
L 137.313815 -93.284637 
L 136.493581 -92.583228 
L 135.673347 -91.821402 
L 134.853113 -91.11173 
L 134.032878 -90.531321 
L 133.212644 -90.114376 
L 132.39241 -89.877733 
L 131.572175 -89.843106 
L 130.751941 -90.028746 
L 129.931707 -90.420201 
L 129.111473 -90.951015 
L 128.291238 -91.513534 
L 127.471004 -91.99393 
L 126.65077 -92.31206 
L 125.830536 -92.451161 
L 125.010301 -92.469748 
L 124.190067 -92.490228 
L 123.369833 -92.658929 
L 122.549598 -93.079715 
L 121.729364 -93.750073 
L 120.90913 -94.552551 
L 120.088896 -95.315839 
L 119.268661 -95.892978 
L 118.448427 -96.205007 
L 117.628193 -96.242824 
L 116.807959 -96.04606 
L 115.987724 -95.681503 
L 115.16749 -95.235195 
L 114.347256 -94.814219 
L 113.527021 -94.537341 
L 112.706787 -94.496572 
L 111.886553 -94.703793 
L 111.066319 -95.073378 
L 110.246084 -95.471653 
L 109.42585 -95.797103 
L 108.605616 -96.030825 
L 107.785382 -96.218041 
L 106.965147 -96.384896 
L 106.144913 -96.47122 
L 105.324679 -96.360564 
L 104.504444 -95.966809 
L 103.68421 -95.295667 
L 102.863976 -94.456729 
L 102.043742 -93.629143 
L 101.223507 -92.984219 
L 100.403273 -92.596019 
L 99.583039 -92.414433 
L 98.762805 -92.330911 
L 97.94257 -92.266838 
L 97.122336 -92.215783 
L 96.302102 -92.229955 
L 95.481868 -92.367545 
L 94.661633 -92.632685 
L 93.841399 -92.955949 
L 93.021165 -93.233361 
L 92.20093 -93.382816 
L 91.380696 -93.373235 
L 90.560462 -93.219615 
L 89.740228 -92.960775 
L 88.919993 -92.639572 
L 88.099759 -92.29512 
L 87.279525 -91.962142 
L 86.459291 -91.668256 
L 85.639056 -91.426974 
L 84.818822 -91.231628 
L 83.998588 -91.056086 
L 83.178353 -90.863467 
L 82.358119 -90.618949 
L 81.537885 -90.301306 
L 80.717651 -89.909639 
L 79.897416 -89.464876 
L 79.077182 -89.007852 
L 78.256948 -88.595055 
L 77.436714 -88.287809 
L 76.616479 -88.128783 
L 75.796245 -88.113077 
L 74.976011 -88.179055 
L 74.155776 -88.232423 
L 73.335542 -88.18696 
L 72.515308 -87.998193 
L 71.695074 -87.674766 
L 70.874839 -87.259164 
L 70.054605 -86.78732 
L 69.234371 -86.262512 
L 68.414137 -85.668173 
L 67.593902 -85.000016 
L 66.773668 -84.286365 
L 65.953434 -83.587364 
L 65.133199 -82.977784 
L 64.312965 -82.520194 
L 63.492731 -82.236544 
L 62.672497 -82.093037 
L 61.852262 -82.014371 
L 61.032028 -81.916855 
L 60.211794 -81.723684 
L 59.39156 -81.356642 
L 58.571325 -80.73919 
L 57.751091 -79.823765 
L 56.930857 -78.623041 
L 56.110623 -77.230391 
L 55.290388 -75.828471 
L 54.470154 -74.673005 
L 53.64992 -73.983789 
L 52.829685 -73.758477 
L 52.009451 -73.80664 
L 51.189217 -73.946959 
L 50.368983 -74.088376 
L 49.548748 -74.21744 
L 48.728514 -74.338608 
L 47.90828 -74.398125 
L 47.088046 -74.270413 
L 46.267811 -73.830171 
L 45.447577 -73.037922 
L 44.627343 -71.989138 
L 43.807108 -70.910325 
L 42.986874 -70.056808 
L 42.16664 -69.533545 
L 41.346406 -69.260546 
L 40.526171 -69.107858 
L 39.705937 -68.989747 
L 38.885703 -68.880021 
L 38.065469 -68.793222 
L 37.245234 -68.748854 
L 36.425 -68.730494 
z
" style="stroke: #e41a1c; stroke-opacity: 0.3"/>
    </defs>
    <g clip-path="url(#p457a499782)">
     <use xlink:href="#mfd737e6140" x="0" y="360" style="fill: #e41a1c; fill-opacity: 0.3; stroke: #e41a1c; stroke-opacity: 0.3"/>
    </g>
   </g>
   <g id="PolyCollection_2">
    <defs>
     <path id="m3ad9c23f7a" d="M 36.425 -74.39824 
L 36.425 -70.484455 
L 37.245234 -70.84434 
L 38.065469 -71.102184 
L 38.885703 -71.249822 
L 39.705937 -71.293861 
L 40.526171 -71.273048 
L 41.346406 -71.238729 
L 42.16664 -71.224068 
L 42.986874 -71.23395 
L 43.807108 -71.251951 
L 44.627343 -71.254346 
L 45.447577 -71.224247 
L 46.267811 -71.160285 
L 47.088046 -71.077313 
L 47.90828 -71.002279 
L 48.728514 -70.970959 
L 49.548748 -71.024557 
L 50.368983 -71.198777 
L 51.189217 -71.505906 
L 52.009451 -71.921375 
L 52.829685 -72.385439 
L 53.64992 -72.824632 
L 54.470154 -73.187796 
L 55.290388 -73.472314 
L 56.110623 -73.71526 
L 56.930857 -73.959949 
L 57.751091 -74.226132 
L 58.571325 -74.498928 
L 59.39156 -74.744997 
L 60.211794 -74.949454 
L 61.032028 -75.126494 
L 61.852262 -75.284213 
L 62.672497 -75.392982 
L 63.492731 -75.384511 
L 64.312965 -75.182479 
L 65.133199 -74.76231 
L 65.953434 -74.185385 
L 66.773668 -73.565335 
L 67.593902 -73.020647 
L 68.414137 -72.647752 
L 69.234371 -72.505068 
L 70.054605 -72.601708 
L 70.874839 -72.89466 
L 71.695074 -73.303062 
L 72.515308 -73.742618 
L 73.335542 -74.159977 
L 74.155776 -74.53607 
L 74.976011 -74.861836 
L 75.796245 -75.115288 
L 76.616479 -75.257395 
L 77.436714 -75.253979 
L 78.256948 -75.113642 
L 79.077182 -74.898445 
L 79.897416 -74.687809 
L 80.717651 -74.536507 
L 81.537885 -74.45971 
L 82.358119 -74.443518 
L 83.178353 -74.466799 
L 83.998588 -74.517909 
L 84.818822 -74.595717 
L 85.639056 -74.700965 
L 86.459291 -74.835658 
L 87.279525 -75.016089 
L 88.099759 -75.279703 
L 88.919993 -75.666617 
L 89.740228 -76.186342 
L 90.560462 -76.794989 
L 91.380696 -77.402009 
L 92.20093 -77.914276 
L 93.021165 -78.294928 
L 93.841399 -78.582142 
L 94.661633 -78.850389 
L 95.481868 -79.157073 
L 96.302102 -79.511209 
L 97.122336 -79.874784 
L 97.94257 -80.199007 
L 98.762805 -80.476304 
L 99.583039 -80.755666 
L 100.403273 -81.099759 
L 101.223507 -81.530751 
L 102.043742 -82.008874 
L 102.863976 -82.452914 
L 103.68421 -82.794808 
L 104.504444 -83.029127 
L 105.324679 -83.203056 
L 106.144913 -83.360279 
L 106.965147 -83.499598 
L 107.785382 -83.574049 
L 108.605616 -83.52357 
L 109.42585 -83.319869 
L 110.246084 -82.989979 
L 111.066319 -82.60066 
L 111.886553 -82.2231 
L 112.706787 -81.905647 
L 113.527021 -81.664633 
L 114.347256 -81.491243 
L 115.16749 -81.366376 
L 115.987724 -81.270352 
L 116.807959 -81.179802 
L 117.628193 -81.060296 
L 118.448427 -80.868216 
L 119.268661 -80.563977 
L 120.088896 -80.128399 
L 120.90913 -79.573278 
L 121.729364 -78.942288 
L 122.549598 -78.303171 
L 123.369833 -77.733818 
L 124.190067 -77.30455 
L 125.010301 -77.059743 
L 125.830536 -77.004589 
L 126.65077 -77.104045 
L 127.471004 -77.297364 
L 128.291238 -77.522613 
L 129.111473 -77.737672 
L 129.931707 -77.92701 
L 130.751941 -78.095037 
L 131.572175 -78.254543 
L 132.39241 -78.418019 
L 133.212644 -78.595173 
L 134.032878 -78.794443 
L 134.853113 -79.022161 
L 135.673347 -79.275258 
L 136.493581 -79.532078 
L 137.313815 -79.751368 
L 138.13405 -79.884872 
L 138.954284 -79.89834 
L 139.774518 -79.788397 
L 140.594752 -79.584901 
L 141.414987 -79.338517 
L 142.235221 -79.102467 
L 143.055455 -78.919001 
L 143.875689 -78.815832 
L 144.695924 -78.809253 
L 145.516158 -78.905201 
L 146.336392 -79.093829 
L 147.156627 -79.343652 
L 147.976861 -79.604502 
L 148.797095 -79.821077 
L 149.617329 -79.950597 
L 150.437564 -79.976064 
L 151.257798 -79.910537 
L 152.078032 -79.793101 
L 152.898266 -79.679717 
L 153.718501 -79.631114 
L 154.538735 -79.698417 
L 155.358969 -79.908171 
L 156.179204 -80.250943 
L 156.999438 -80.678558 
L 157.819672 -81.112693 
L 158.639906 -81.463016 
L 159.460141 -81.648391 
L 160.280375 -81.613157 
L 161.100609 -81.334471 
L 161.920843 -80.82284 
L 162.741078 -80.119198 
L 163.561312 -79.28828 
L 164.381546 -78.406463 
L 165.201781 -77.54556 
L 166.022015 -76.75816 
L 166.842249 -76.070539 
L 167.662483 -75.485163 
L 168.482718 -74.988985 
L 169.302952 -74.560504 
L 170.123186 -74.171298 
L 170.94342 -73.784463 
L 171.763655 -73.357094 
L 172.583889 -72.852834 
L 173.404123 -72.262585 
L 174.224358 -71.619818 
L 175.044592 -70.994181 
L 175.864826 -70.463312 
L 176.68506 -70.080876 
L 177.505295 -69.858679 
L 178.325529 -69.768538 
L 179.145763 -69.758486 
L 179.965997 -69.771954 
L 180.786232 -69.760039 
L 181.606466 -69.685293 
L 182.4267 -69.522709 
L 183.246935 -69.263087 
L 184.067169 -68.918285 
L 184.887403 -68.523361 
L 185.707637 -68.130784 
L 186.527872 -67.796831 
L 187.348106 -67.565661 
L 188.16834 -67.457546 
L 188.988574 -67.464597 
L 189.808809 -67.55373 
L 190.629043 -67.675312 
L 191.449277 -67.77599 
L 192.269511 -67.813715 
L 193.089746 -67.771197 
L 193.90998 -67.662336 
L 194.730214 -67.52783 
L 195.550449 -67.421471 
L 196.370683 -67.393767 
L 197.190917 -67.479734 
L 198.011151 -67.693598 
L 198.831386 -68.028661 
L 199.65162 -68.459438 
L 200.471854 -68.945079 
L 201.292088 -69.434915 
L 202.112323 -69.876259 
L 202.932557 -70.222788 
L 203.752791 -70.440888 
L 204.573026 -70.512116 
L 205.39326 -70.43176 
L 206.213494 -70.205193 
L 207.033728 -69.844291 
L 207.853963 -69.365236 
L 208.674197 -68.78786 
L 209.494431 -68.136129 
L 210.314665 -67.439165 
L 211.1349 -66.73133 
L 211.955134 -66.04902 
L 212.775368 -65.422503 
L 213.595603 -64.864307 
L 214.415837 -64.359384 
L 215.236071 -63.863773 
L 216.056305 -63.31553 
L 216.87654 -62.654736 
L 217.696774 -61.842411 
L 218.517008 -60.868559 
L 219.337242 -59.748075 
L 220.157477 -58.511489 
L 220.977711 -57.197819 
L 221.797945 -55.851694 
L 222.61818 -54.522059 
L 223.438414 -53.258241 
L 224.258648 -52.101513 
L 225.078882 -51.07514 
L 225.899117 -50.179142 
L 226.719351 -49.393726 
L 227.539585 -48.688894 
L 228.359819 -48.033472 
L 229.180054 -47.399314 
L 230.000288 -46.762368 
L 230.820522 -46.104786 
L 231.640756 -45.419785 
L 232.460991 -44.716994 
L 233.281225 -44.024024 
L 234.101459 -43.381516 
L 234.921694 -42.832688 
L 235.741928 -42.411264 
L 236.562162 -42.131923 
L 237.382396 -41.985808 
L 238.202631 -41.942069 
L 239.022865 -41.955558 
L 239.843099 -41.97995 
L 240.663333 -41.983377 
L 241.483568 -41.960137 
L 242.303802 -41.930696 
L 243.124036 -41.927983 
L 243.944271 -41.978311 
L 244.764505 -42.089774 
L 245.584739 -42.254863 
L 246.404973 -42.462616 
L 247.225208 -42.708364 
L 248.045442 -42.992866 
L 248.865676 -43.313139 
L 249.68591 -43.653485 
L 250.506145 -43.983142 
L 251.326379 -44.26181 
L 252.146613 -44.450611 
L 252.966848 -44.524624 
L 253.787082 -44.483362 
L 254.607316 -44.356402 
L 255.42755 -44.202311 
L 256.247785 -44.100043 
L 257.068019 -44.133926 
L 257.888253 -44.375618 
L 258.708487 -44.867618 
L 259.528722 -45.612506 
L 260.348956 -46.570513 
L 261.16919 -47.665874 
L 261.989425 -48.800503 
L 262.809659 -49.872206 
L 263.629893 -50.793898 
L 264.450127 -51.509826 
L 265.270362 -52.004903 
L 266.090596 -52.304492 
L 266.91083 -52.464697 
L 267.731064 -52.556653 
L 268.551299 -52.650332 
L 269.371533 -52.802023 
L 270.191767 -53.046586 
L 271.012001 -53.393586 
L 271.832236 -53.826723 
L 272.65247 -54.307135 
L 273.472704 -54.781451 
L 274.292939 -55.194648 
L 275.113173 -55.505703 
L 275.933407 -55.701272 
L 276.753641 -55.801015 
L 277.573876 -55.85052 
L 278.39411 -55.904587 
L 279.214344 -56.009267 
L 280.034578 -56.190329 
L 280.854813 -56.450472 
L 281.675047 -56.772987 
L 282.495281 -57.128434 
L 283.315516 -57.4821 
L 284.13575 -57.801449 
L 284.955984 -58.062982 
L 285.776218 -58.257268 
L 286.596453 -58.390551 
L 287.416687 -58.482296 
L 288.236921 -58.559593 
L 289.057155 -58.650036 
L 289.87739 -58.774588 
L 290.697624 -58.94159 
L 291.517858 -59.143495 
L 292.338093 -59.358615 
L 293.158327 -59.559337 
L 293.978561 -59.724702 
L 294.798795 -59.850482 
L 295.61903 -59.949517 
L 296.439264 -60.041765 
L 297.259498 -60.141305 
L 298.079732 -60.249164 
L 298.899967 -60.356336 
L 299.720201 -60.453892 
L 300.540435 -60.541273 
L 301.36067 -60.625061 
L 302.180904 -60.709166 
L 303.001138 -60.785176 
L 303.821372 -60.832249 
L 304.641607 -60.830215 
L 305.461841 -60.779004 
L 306.282075 -60.707806 
L 307.102309 -60.663423 
L 307.922544 -60.68753 
L 308.742778 -60.801066 
L 309.563012 -61.003886 
L 310.383247 -61.285144 
L 311.203481 -61.634209 
L 312.023715 -62.043841 
L 312.843949 -62.505091 
L 313.664184 -63.000234 
L 314.484418 -63.500209 
L 315.304652 -63.967724 
L 316.124886 -64.362635 
L 316.945121 -64.646586 
L 317.765355 -64.787851 
L 318.585589 -64.768979 
L 319.405823 -64.595814 
L 320.226058 -64.30182 
L 321.046292 -63.942783 
L 321.866526 -63.583187 
L 322.686761 -63.28036 
L 323.506995 -63.072494 
L 324.327229 -62.973778 
L 325.147463 -62.976303 
L 325.967698 -63.055831 
L 326.787932 -63.178619 
L 327.608166 -63.308997 
L 328.4284 -63.418722 
L 329.248635 -63.49644 
L 330.068869 -63.55158 
L 330.889103 -63.608132 
L 331.709338 -63.690468 
L 332.529572 -63.808862 
L 333.349806 -63.952205 
L 334.17004 -64.0911 
L 334.990275 -64.188916 
L 335.810509 -64.214232 
L 336.630743 -64.148534 
L 337.450977 -63.988531 
L 338.271212 -63.747392 
L 339.091446 -63.457912 
L 339.91168 -63.174629 
L 340.731915 -62.968259 
L 341.552149 -62.90963 
L 342.372383 -63.048368 
L 343.192617 -63.395875 
L 344.012852 -63.919855 
L 344.833086 -64.552026 
L 345.65332 -65.205452 
L 346.473554 -65.795303 
L 347.293789 -66.257055 
L 348.114023 -66.558359 
L 348.934257 -66.702977 
L 349.754492 -66.726216 
L 350.574726 -66.682306 
L 351.39496 -66.626769 
L 352.215194 -66.599745 
L 353.035429 -66.616964 
L 353.855663 -66.67173 
L 354.675897 -66.745443 
L 355.496131 -66.819482 
L 356.316366 -66.881971 
L 357.1366 -66.928395 
L 357.956834 -66.959616 
L 358.777068 -66.980758 
L 359.597303 -67.001343 
L 360.417537 -67.034064 
L 361.237771 -67.089048 
L 362.058006 -67.16375 
L 362.87824 -67.234174 
L 363.698474 -67.255881 
L 364.518708 -67.178883 
L 365.338943 -66.970585 
L 366.159177 -66.632991 
L 366.979411 -66.203454 
L 367.799645 -65.740394 
L 368.61988 -65.303717 
L 369.440114 -64.938608 
L 370.260348 -64.666305 
L 371.080583 -64.481426 
L 371.900817 -64.353544 
L 372.721051 -64.231541 
L 373.541285 -64.051789 
L 374.36152 -63.751834 
L 375.181754 -63.287921 
L 376.001988 -62.649877 
L 376.822222 -61.866148 
L 377.642457 -60.996638 
L 378.462691 -60.117323 
L 379.282925 -59.30351 
L 380.10316 -58.617002 
L 380.923394 -58.09865 
L 381.743628 -57.765084 
L 382.563862 -57.608621 
L 383.384097 -57.601035 
L 384.204331 -57.70177 
L 385.024565 -57.868811 
L 385.844799 -58.068416 
L 386.665034 -58.280293 
L 387.485268 -58.497195 
L 388.305502 -58.720392 
L 389.125737 -58.953369 
L 389.945971 -59.195457 
L 390.766205 -59.436578 
L 391.586439 -59.654912 
L 392.406674 -59.819825 
L 393.226908 -59.90085 
L 394.047142 -59.879845 
L 394.867376 -59.760103 
L 395.687611 -59.566578 
L 396.507845 -59.336397 
L 397.328079 -59.10486 
L 398.148313 -58.894809 
L 398.968548 -58.715262 
L 399.788782 -58.569149 
L 400.609016 -58.462801 
L 401.429251 -58.408036 
L 402.249485 -58.415258 
L 403.069719 -58.485186 
L 403.889953 -58.607335 
L 404.710188 -58.766337 
L 405.530422 -58.950943 
L 406.350656 -59.15908 
L 407.17089 -59.395611 
L 407.991125 -59.664704 
L 408.811359 -59.962005 
L 409.631593 -60.271234 
L 410.451828 -60.566673 
L 411.272062 -60.819996 
L 412.092296 -61.008096 
L 412.91253 -61.118498 
L 413.732765 -61.150246 
L 414.552999 -61.110256 
L 414.552999 -76.398577 
L 414.552999 -76.398577 
L 413.732765 -76.293565 
L 412.91253 -76.155495 
L 412.092296 -76.000799 
L 411.272062 -75.843141 
L 410.451828 -75.689913 
L 409.631593 -75.540975 
L 408.811359 -75.390082 
L 407.991125 -75.228445 
L 407.17089 -75.048903 
L 406.350656 -74.848758 
L 405.530422 -74.629927 
L 404.710188 -74.397125 
L 403.889953 -74.156849 
L 403.069719 -73.919855 
L 402.249485 -73.706643 
L 401.429251 -73.55139 
L 400.609016 -73.498174 
L 399.788782 -73.586711 
L 398.968548 -73.832429 
L 398.148313 -74.212704 
L 397.328079 -74.669451 
L 396.507845 -75.127301 
L 395.687611 -75.516593 
L 394.867376 -75.790162 
L 394.047142 -75.929009 
L 393.226908 -75.938353 
L 392.406674 -75.838937 
L 391.586439 -75.658411 
L 390.766205 -75.424661 
L 389.945971 -75.160177 
L 389.125737 -74.876617 
L 388.305502 -74.571275 
L 387.485268 -74.228624 
L 386.665034 -73.828311 
L 385.844799 -73.357233 
L 385.024565 -72.820902 
L 384.204331 -72.249664 
L 383.384097 -71.697648 
L 382.563862 -71.234685 
L 381.743628 -70.932785 
L 380.923394 -70.849428 
L 380.10316 -71.011234 
L 379.282925 -71.40338 
L 378.462691 -71.970058 
L 377.642457 -72.627502 
L 376.822222 -73.285325 
L 376.001988 -73.868085 
L 375.181754 -74.329811 
L 374.36152 -74.658719 
L 373.541285 -74.874072 
L 372.721051 -75.018426 
L 371.900817 -75.146406 
L 371.080583 -75.309884 
L 370.260348 -75.541773 
L 369.440114 -75.844467 
L 368.61988 -76.189372 
L 367.799645 -76.52914 
L 366.979411 -76.817387 
L 366.159177 -77.026581 
L 365.338943 -77.155672 
L 364.518708 -77.224562 
L 363.698474 -77.26065 
L 362.87824 -77.287839 
L 362.058006 -77.323735 
L 361.237771 -77.380888 
L 360.417537 -77.465117 
L 359.597303 -77.570055 
L 358.777068 -77.673507 
L 357.956834 -77.741904 
L 357.1366 -77.743564 
L 356.316366 -77.664486 
L 355.496131 -77.517623 
L 354.675897 -77.339845 
L 353.855663 -77.177323 
L 353.035429 -77.066359 
L 352.215194 -77.019186 
L 351.39496 -77.020522 
L 350.574726 -77.033781 
L 349.754492 -77.01196 
L 348.934257 -76.909106 
L 348.114023 -76.690639 
L 347.293789 -76.341712 
L 346.473554 -75.872114 
L 345.65332 -75.315703 
L 344.833086 -74.723582 
L 344.012852 -74.153017 
L 343.192617 -73.656173 
L 342.372383 -73.272129 
L 341.552149 -73.023197 
L 340.731915 -72.914218 
L 339.91168 -72.932841 
L 339.091446 -73.050081 
L 338.271212 -73.223175 
L 337.450977 -73.403889 
L 336.630743 -73.55163 
L 335.810509 -73.644543 
L 334.990275 -73.680908 
L 334.17004 -73.670006 
L 333.349806 -73.619696 
L 332.529572 -73.529943 
L 331.709338 -73.395988 
L 330.889103 -73.217345 
L 330.068869 -73.005686 
L 329.248635 -72.786505 
L 328.4284 -72.593822 
L 327.608166 -72.461522 
L 326.787932 -72.416469 
L 325.967698 -72.475262 
L 325.147463 -72.641883 
L 324.327229 -72.904004 
L 323.506995 -73.230436 
L 322.686761 -73.573988 
L 321.866526 -73.880733 
L 321.046292 -74.102199 
L 320.226058 -74.205267 
L 319.405823 -74.175998 
L 318.585589 -74.016993 
L 317.765355 -73.741602 
L 316.945121 -73.369599 
L 316.124886 -72.925946 
L 315.304652 -72.439767 
L 314.484418 -71.940455 
L 313.664184 -71.45232 
L 312.843949 -70.992254 
L 312.023715 -70.572195 
L 311.203481 -70.202884 
L 310.383247 -69.893933 
L 309.563012 -69.649514 
L 308.742778 -69.464778 
L 307.922544 -69.328824 
L 307.102309 -69.234043 
L 306.282075 -69.184825 
L 305.461841 -69.196834 
L 304.641607 -69.283306 
L 303.821372 -69.436558 
L 303.001138 -69.621986 
L 302.180904 -69.792639 
L 301.36067 -69.912294 
L 300.540435 -69.969383 
L 299.720201 -69.97459 
L 298.899967 -69.946474 
L 298.079732 -69.896137 
L 297.259498 -69.821599 
L 296.439264 -69.714283 
L 295.61903 -69.570618 
L 294.798795 -69.399451 
L 293.978561 -69.220557 
L 293.158327 -69.056411 
L 292.338093 -68.924094 
L 291.517858 -68.833199 
L 290.697624 -68.789041 
L 289.87739 -68.795572 
L 289.057155 -68.854015 
L 288.236921 -68.958201 
L 287.416687 -69.090602 
L 286.596453 -69.222433 
L 285.776218 -69.318457 
L 284.955984 -69.344805 
L 284.13575 -69.277476 
L 283.315516 -69.109329 
L 282.495281 -68.853491 
L 281.675047 -68.541493 
L 280.854813 -68.215836 
L 280.034578 -67.918894 
L 279.214344 -67.682067 
L 278.39411 -67.51939 
L 277.573876 -67.427267 
L 276.753641 -67.388256 
L 275.933407 -67.375166 
L 275.113173 -67.353963 
L 274.292939 -67.287883 
L 273.472704 -67.145833 
L 272.65247 -66.913747 
L 271.832236 -66.602965 
L 271.012001 -66.25012 
L 270.191767 -65.907426 
L 269.371533 -65.626838 
L 268.551299 -65.444008 
L 267.731064 -65.367924 
L 266.91083 -65.379485 
L 266.090596 -65.437963 
L 265.270362 -65.491286 
L 264.450127 -65.48621 
L 263.629893 -65.376755 
L 262.809659 -65.131081 
L 261.989425 -64.736902 
L 261.16919 -64.204545 
L 260.348956 -63.56647 
L 259.528722 -62.872983 
L 258.708487 -62.185061 
L 257.888253 -61.565605 
L 257.068019 -61.070338 
L 256.247785 -60.739244 
L 255.42755 -60.58929 
L 254.607316 -60.609463 
L 253.787082 -60.759733 
L 252.966848 -60.975374 
L 252.146613 -61.17679 
L 251.326379 -61.283255 
L 250.506145 -61.228059 
L 249.68591 -60.972359 
L 248.865676 -60.51497 
L 248.045442 -59.89529 
L 247.225208 -59.187072 
L 246.404973 -58.482307 
L 245.584739 -57.868441 
L 244.764505 -57.407479 
L 243.944271 -57.127363 
L 243.124036 -57.029147 
L 242.303802 -57.102002 
L 241.483568 -57.33339 
L 240.663333 -57.707975 
L 239.843099 -58.199752 
L 239.022865 -58.767818 
L 238.202631 -59.361969 
L 237.382396 -59.93492 
L 236.562162 -60.453383 
L 235.741928 -60.902874 
L 234.921694 -61.285773 
L 234.101459 -61.614912 
L 233.281225 -61.905601 
L 232.460991 -62.16866 
L 231.640756 -62.406895 
L 230.820522 -62.617243 
L 230.000288 -62.799086 
L 229.180054 -62.965762 
L 228.359819 -63.153199 
L 227.539585 -63.419622 
L 226.719351 -63.834194 
L 225.899117 -64.458681 
L 225.078882 -65.330596 
L 224.258648 -66.454405 
L 223.438414 -67.800984 
L 222.61818 -69.311403 
L 221.797945 -70.902947 
L 220.977711 -72.47908 
L 220.157477 -73.945357 
L 219.337242 -75.229153 
L 218.517008 -76.2964 
L 217.696774 -77.157417 
L 216.87654 -77.857829 
L 216.056305 -78.45796 
L 215.236071 -79.011303 
L 214.415837 -79.553297 
L 213.595603 -80.103353 
L 212.775368 -80.673256 
L 211.955134 -81.27317 
L 211.1349 -81.911506 
L 210.314665 -82.590451 
L 209.494431 -83.301287 
L 208.674197 -84.022672 
L 207.853963 -84.722277 
L 207.033728 -85.360075 
L 206.213494 -85.891836 
L 205.39326 -86.273021 
L 204.573026 -86.46378 
L 203.752791 -86.434849 
L 202.932557 -86.173214 
L 202.112323 -85.686441 
L 201.292088 -85.004987 
L 200.471854 -84.181863 
L 199.65162 -83.288601 
L 198.831386 -82.406454 
L 198.011151 -81.613076 
L 197.190917 -80.967671 
L 196.370683 -80.499779 
L 195.550449 -80.206364 
L 194.730214 -80.058166 
L 193.90998 -80.011427 
L 193.089746 -80.019317 
L 192.269511 -80.040019 
L 191.449277 -80.042356 
L 190.629043 -80.010786 
L 189.808809 -79.948909 
L 188.988574 -79.878485 
L 188.16834 -79.832391 
L 187.348106 -79.84346 
L 186.527872 -79.933498 
L 185.707637 -80.106136 
L 184.887403 -80.344649 
L 184.067169 -80.614173 
L 183.246935 -80.868129 
L 182.4267 -81.059566 
L 181.606466 -81.156279 
L 180.786232 -81.15457 
L 179.965997 -81.084083 
L 179.145763 -80.998997 
L 178.325529 -80.958333 
L 177.505295 -81.005811 
L 176.68506 -81.160648 
L 175.864826 -81.422622 
L 175.044592 -81.784566 
L 174.224358 -82.241443 
L 173.404123 -82.788357 
L 172.583889 -83.409131 
L 171.763655 -84.068301 
L 170.94342 -84.719689 
L 170.123186 -85.32796 
L 169.302952 -85.885786 
L 168.482718 -86.414342 
L 167.662483 -86.948323 
L 166.842249 -87.515691 
L 166.022015 -88.123635 
L 165.201781 -88.756509 
L 164.381546 -89.383174 
L 163.561312 -89.966838 
L 162.741078 -90.472244 
L 161.920843 -90.869654 
L 161.100609 -91.138237 
L 160.280375 -91.270695 
L 159.460141 -91.277075 
L 158.639906 -91.1836 
L 157.819672 -91.025697 
L 156.999438 -90.839677 
L 156.179204 -90.657829 
L 155.358969 -90.506946 
L 154.538735 -90.406929 
L 153.718501 -90.367145 
L 152.898266 -90.381686 
L 152.078032 -90.427146 
L 151.257798 -90.466294 
L 150.437564 -90.457943 
L 149.617329 -90.369347 
L 148.797095 -90.186136 
L 147.976861 -89.917221 
L 147.156627 -89.595415 
L 146.336392 -89.274776 
L 145.516158 -89.02322 
L 144.695924 -88.907679 
L 143.875689 -88.972448 
L 143.055455 -89.218822 
L 142.235221 -89.598997 
L 141.414987 -90.030694 
L 140.594752 -90.424872 
L 139.774518 -90.711531 
L 138.954284 -90.852942 
L 138.13405 -90.842993 
L 137.313815 -90.698836 
L 136.493581 -90.452841 
L 135.673347 -90.147708 
L 134.853113 -89.830601 
L 134.032878 -89.541343 
L 133.212644 -89.296368 
L 132.39241 -89.078127 
L 131.572175 -88.840414 
L 130.751941 -88.53043 
L 129.931707 -88.116675 
L 129.111473 -87.608344 
L 128.291238 -87.057225 
L 127.471004 -86.541787 
L 126.65077 -86.141867 
L 125.830536 -85.916913 
L 125.010301 -85.896071 
L 124.190067 -86.077764 
L 123.369833 -86.432154 
L 122.549598 -86.904441 
L 121.729364 -87.421732 
L 120.90913 -87.905653 
L 120.088896 -88.288626 
L 119.268661 -88.528431 
L 118.448427 -88.616395 
L 117.628193 -88.578211 
L 116.807959 -88.469114 
L 115.987724 -88.364057 
L 115.16749 -88.340912 
L 114.347256 -88.455997 
L 113.527021 -88.720239 
L 112.706787 -89.092649 
L 111.886553 -89.4991 
L 111.066319 -89.865198 
L 110.246084 -90.144744 
L 109.42585 -90.330027 
L 108.605616 -90.437404 
L 107.785382 -90.476157 
L 106.965147 -90.428832 
L 106.144913 -90.265202 
L 105.324679 -89.975896 
L 104.504444 -89.595982 
L 103.68421 -89.199395 
L 102.863976 -88.857467 
L 102.043742 -88.585846 
L 101.223507 -88.338002 
L 100.403273 -88.056115 
L 99.583039 -87.723615 
L 98.762805 -87.380527 
L 97.94257 -87.095507 
L 97.122336 -86.906202 
L 96.302102 -86.774498 
L 95.481868 -86.605263 
L 94.661633 -86.307027 
L 93.841399 -85.84069 
L 93.021165 -85.234072 
L 92.20093 -84.56076 
L 91.380696 -83.890591 
L 90.560462 -83.246918 
L 89.740228 -82.614269 
L 88.919993 -81.981793 
L 88.099759 -81.371825 
L 87.279525 -80.834981 
L 86.459291 -80.422338 
L 85.639056 -80.154638 
L 84.818822 -80.012639 
L 83.998588 -79.956117 
L 83.178353 -79.948465 
L 82.358119 -79.963591 
L 81.537885 -79.978553 
L 80.717651 -79.969463 
L 79.897416 -79.918895 
L 79.077182 -79.827864 
L 78.256948 -79.719836 
L 77.436714 -79.625588 
L 76.616479 -79.548497 
L 75.796245 -79.442024 
L 74.976011 -79.236948 
L 74.155776 -78.894168 
L 73.335542 -78.435014 
L 72.515308 -77.935598 
L 71.695074 -77.491602 
L 70.874839 -77.173068 
L 70.054605 -77.002658 
L 69.234371 -76.966794 
L 68.414137 -77.034642 
L 67.593902 -77.16875 
L 66.773668 -77.331231 
L 65.953434 -77.49197 
L 65.133199 -77.63819 
L 64.312965 -77.773221 
L 63.492731 -77.889094 
L 62.672497 -77.942717 
L 61.852262 -77.887835 
L 61.032028 -77.721325 
L 60.211794 -77.492994 
L 59.39156 -77.282128 
L 58.571325 -77.147531 
L 57.751091 -77.082849 
L 56.930857 -77.028773 
L 56.110623 -76.921826 
L 55.290388 -76.729239 
L 54.470154 -76.457977 
L 53.64992 -76.14055 
L 52.829685 -75.808086 
L 52.009451 -75.477092 
L 51.189217 -75.161431 
L 50.368983 -74.887956 
L 49.548748 -74.696849 
L 48.728514 -74.62715 
L 47.90828 -74.696334 
L 47.088046 -74.886241 
L 46.267811 -75.145843 
L 45.447577 -75.40781 
L 44.627343 -75.606302 
L 43.807108 -75.689642 
L 42.986874 -75.629418 
L 42.16664 -75.42716 
L 41.346406 -75.117051 
L 40.526171 -74.762731 
L 39.705937 -74.446231 
L 38.885703 -74.24394 
L 38.065469 -74.189834 
L 37.245234 -74.259365 
L 36.425 -74.39824 
z
" style="stroke: #377eb8; stroke-opacity: 0.3"/>
    </defs>
    <g clip-path="url(#p457a499782)">
     <use xlink:href="#m3ad9c23f7a" x="0" y="360" style="fill: #377eb8; fill-opacity: 0.3; stroke: #377eb8; stroke-opacity: 0.3"/>
    </g>
   </g>
   <g id="patch_3">
    <path d="M 225.242929 320.2 
L 225.242929 69.788 
L 330.232916 69.788 
L 330.232916 320.2 
z
" clip-path="url(#p457a499782)" style="fill: #808080; opacity: 0.3; stroke: #ffffff; stroke-linejoin: miter"/>
   </g>
   <g id="line2d_11">
    <path d="M 36.425 296.100479 
L 38.885703 296.307393 
L 39.705937 296.163913 
L 40.526171 295.820448 
L 41.346406 295.262851 
L 42.986874 293.615662 
L 45.447577 290.831246 
L 46.267811 290.123751 
L 47.088046 289.611261 
L 47.90828 289.30229 
L 48.728514 289.173584 
L 52.009451 289.190696 
L 52.829685 288.948401 
L 53.64992 288.494185 
L 54.470154 287.816946 
L 56.110623 285.9136 
L 58.571325 282.773468 
L 59.39156 281.984748 
L 60.211794 281.420765 
L 61.032028 281.091037 
L 61.852262 280.968105 
L 65.133199 281.115499 
L 65.953434 280.924277 
L 66.773668 280.553295 
L 68.414137 279.357162 
L 70.874839 277.331906 
L 71.695074 276.843126 
L 72.515308 276.496667 
L 74.155776 276.165473 
L 78.256948 275.797751 
L 80.717651 275.549933 
L 84.818822 275.550215 
L 85.639056 275.364299 
L 87.279525 274.645024 
L 90.560462 272.824804 
L 91.380696 272.588645 
L 92.20093 272.504459 
L 93.021165 272.568032 
L 94.661633 273.025072 
L 97.122336 273.882034 
L 98.762805 274.106242 
L 99.583039 274.038277 
L 100.403273 273.835194 
L 101.223507 273.497115 
L 102.863976 272.47646 
L 105.324679 270.675624 
L 106.144913 270.230225 
L 106.965147 269.952402 
L 107.785382 269.87049 
L 108.605616 269.984474 
L 110.246084 270.654062 
L 111.886553 271.478432 
L 112.706787 271.783433 
L 113.527021 271.96734 
L 115.16749 272.019311 
L 116.807959 272.004031 
L 117.628193 272.140973 
L 118.448427 272.442356 
L 119.268661 272.924733 
L 120.90913 274.345614 
L 124.190067 277.551681 
L 125.830536 278.690433 
L 127.471004 279.43118 
L 129.111473 279.772969 
L 129.931707 279.771713 
L 130.751941 279.641524 
L 132.39241 279.00671 
L 136.493581 276.748372 
L 138.13405 276.260835 
L 141.414987 275.474427 
L 143.875689 274.668461 
L 145.516158 274.439086 
L 147.156627 274.590599 
L 148.797095 274.77667 
L 149.617329 274.707128 
L 150.437564 274.455106 
L 151.257798 274.004873 
L 152.898266 272.649834 
L 154.538735 271.225431 
L 155.358969 270.717159 
L 156.179204 270.430926 
L 156.999438 270.384973 
L 157.819672 270.55662 
L 159.460141 271.304886 
L 161.100609 272.069702 
L 161.920843 272.297313 
L 162.741078 272.380363 
L 163.561312 272.317844 
L 165.201781 271.831121 
L 166.842249 271.04067 
L 170.123186 269.30118 
L 171.763655 268.750472 
L 172.583889 268.658705 
L 173.404123 268.718986 
L 174.224358 268.937783 
L 175.044592 269.305595 
L 176.68506 270.380873 
L 180.786232 273.489741 
L 182.4267 274.469116 
L 184.067169 275.123083 
L 184.887403 275.264507 
L 185.707637 275.246672 
L 186.527872 275.054488 
L 187.348106 274.691344 
L 188.988574 273.578259 
L 191.449277 271.796429 
L 193.089746 271.065835 
L 196.370683 270.013278 
L 198.011151 268.929739 
L 201.292088 266.251006 
L 202.112323 265.840274 
L 202.932557 265.60019 
L 204.573026 265.493694 
L 206.213494 265.441599 
L 207.853963 265.029567 
L 209.494431 264.404184 
L 210.314665 264.216007 
L 211.1349 264.242101 
L 211.955134 264.552684 
L 212.775368 265.170128 
L 213.595603 266.058572 
L 216.056305 269.260674 
L 216.87654 270.052706 
L 217.696774 270.53433 
L 218.517008 270.686261 
L 219.337242 270.560566 
L 220.977711 269.977378 
L 221.797945 269.842378 
L 222.61818 270.010112 
L 223.438414 270.570585 
L 224.258648 271.54204 
L 225.078882 272.866293 
L 227.539585 277.538363 
L 228.359819 278.775134 
L 229.180054 279.643096 
L 230.000288 280.10673 
L 230.820522 280.199946 
L 231.640756 280.014264 
L 234.101459 279.049081 
L 234.921694 278.936874 
L 235.741928 278.992045 
L 238.202631 279.534406 
L 239.022865 279.499455 
L 239.843099 279.195465 
L 240.663333 278.572273 
L 241.483568 277.626231 
L 242.303802 276.399534 
L 246.404973 269.240925 
L 247.225208 268.178097 
L 248.865676 266.570483 
L 251.326379 264.534908 
L 252.966848 262.665475 
L 254.607316 260.253764 
L 256.247785 257.753282 
L 257.068019 256.67329 
L 257.888253 255.788225 
L 258.708487 255.113309 
L 260.348956 254.223487 
L 261.989425 253.312234 
L 262.809659 252.580582 
L 263.629893 251.574031 
L 264.450127 250.291521 
L 267.731064 244.234576 
L 268.551299 243.128506 
L 269.371533 242.355832 
L 270.191767 241.895516 
L 273.472704 240.885262 
L 274.292939 240.188433 
L 275.113173 239.190321 
L 276.753641 236.557947 
L 278.39411 233.898278 
L 279.214344 232.839733 
L 280.034578 232.018022 
L 281.675047 230.871956 
L 282.495281 230.328347 
L 283.315516 229.639652 
L 284.13575 228.714787 
L 284.955984 227.516551 
L 286.596453 224.452958 
L 288.236921 221.167363 
L 289.87739 218.482163 
L 290.697624 217.476787 
L 292.338093 215.99393 
L 296.439264 213.119581 
L 298.079732 212.317344 
L 299.720201 211.935723 
L 301.36067 211.59892 
L 302.180904 211.227108 
L 303.001138 210.607807 
L 303.821372 209.69418 
L 304.641607 208.484554 
L 306.282075 205.402507 
L 307.922544 202.122692 
L 308.742778 200.687117 
L 309.563012 199.495849 
L 310.383247 198.583148 
L 311.203481 197.94316 
L 312.023715 197.536444 
L 313.664184 197.172136 
L 317.765355 196.645451 
L 320.226058 196.396802 
L 321.866526 196.205891 
L 322.686761 195.951019 
L 323.506995 195.496371 
L 324.327229 194.786538 
L 325.147463 193.797581 
L 326.787932 191.105062 
L 328.4284 188.080644 
L 329.248635 186.756527 
L 330.068869 185.700158 
L 330.889103 184.959985 
L 331.709338 184.519469 
L 334.990275 183.550435 
L 335.810509 182.832222 
L 336.630743 181.77381 
L 338.271212 178.87498 
L 339.91168 175.843958 
L 340.731915 174.648771 
L 341.552149 173.784498 
L 342.372383 173.249341 
L 343.192617 172.967211 
L 344.833086 172.606594 
L 345.65332 172.221106 
L 346.473554 171.541704 
L 347.293789 170.522898 
L 348.114023 169.186468 
L 349.754492 165.908764 
L 351.39496 162.577746 
L 353.035429 159.78623 
L 357.1366 153.748301 
L 358.777068 150.648152 
L 364.518708 138.669305 
L 366.159177 136.199053 
L 366.979411 135.278168 
L 367.799645 134.568454 
L 369.440114 133.644413 
L 371.080583 132.949199 
L 371.900817 132.504148 
L 372.721051 131.924678 
L 374.36152 130.344376 
L 376.822222 127.605502 
L 378.462691 126.165649 
L 381.743628 123.765872 
L 383.384097 121.931484 
L 386.665034 117.486692 
L 387.485268 116.643036 
L 388.305502 116.002966 
L 389.125737 115.549551 
L 392.406674 114.214397 
L 393.226908 113.613531 
L 394.047142 112.821736 
L 395.687611 110.750797 
L 399.788782 104.991948 
L 407.17089 95.925633 
L 408.811359 94.382824 
L 410.451828 93.289715 
L 412.092296 92.537962 
L 414.552999 91.740204 
L 414.552999 91.740204 
" clip-path="url(#p457a499782)" style="fill: none; stroke: #e41a1c; stroke-width: 1.5; stroke-linecap: round"/>
   </g>
   <g id="line2d_12">
    <path d="M 36.425 287.558653 
L 43.807108 286.529203 
L 45.447577 286.683971 
L 47.90828 287.150694 
L 48.728514 287.200945 
L 49.548748 287.139297 
L 51.189217 286.666332 
L 55.290388 284.899224 
L 57.751091 284.345509 
L 62.672497 283.33215 
L 63.492731 283.363198 
L 64.312965 283.52215 
L 65.953434 284.161322 
L 67.593902 284.905302 
L 68.414137 285.158803 
L 69.234371 285.264069 
L 70.054605 285.197817 
L 70.874839 284.966136 
L 72.515308 284.160892 
L 74.155776 283.284881 
L 75.796245 282.721344 
L 77.436714 282.560216 
L 84.818822 282.695822 
L 86.459291 282.371002 
L 88.099759 281.674236 
L 89.740228 280.599695 
L 93.021165 278.2355 
L 94.661633 277.421292 
L 97.122336 276.609507 
L 99.583039 275.76036 
L 105.324679 273.410524 
L 106.965147 273.035785 
L 108.605616 273.019513 
L 110.246084 273.432638 
L 114.347256 275.02638 
L 115.987724 275.182796 
L 118.448427 275.257695 
L 119.268661 275.453796 
L 120.088896 275.791488 
L 121.729364 276.81799 
L 123.369833 277.917014 
L 124.190067 278.308843 
L 125.010301 278.522093 
L 125.830536 278.539249 
L 126.65077 278.377044 
L 128.291238 277.710081 
L 129.931707 276.978158 
L 131.572175 276.452521 
L 134.853113 275.573619 
L 137.313815 274.774898 
L 138.13405 274.636067 
L 138.954284 274.624359 
L 139.774518 274.750036 
L 141.414987 275.315394 
L 143.055455 275.931088 
L 143.875689 276.10586 
L 144.695924 276.141534 
L 145.516158 276.035789 
L 147.156627 275.530466 
L 148.797095 274.996393 
L 150.437564 274.782996 
L 154.538735 274.947327 
L 156.179204 274.545614 
L 158.639906 273.676692 
L 159.460141 273.537267 
L 160.280375 273.558074 
L 161.100609 273.763646 
L 161.920843 274.153753 
L 163.561312 275.372441 
L 166.842249 278.206885 
L 168.482718 279.298336 
L 171.763655 281.287303 
L 175.044592 283.610626 
L 176.68506 284.379238 
L 177.505295 284.567755 
L 179.145763 284.621259 
L 181.606466 284.579214 
L 183.246935 284.934392 
L 186.527872 286.134835 
L 188.16834 286.355032 
L 189.808809 286.248681 
L 192.269511 286.073133 
L 195.550449 286.186082 
L 196.370683 286.053227 
L 197.190917 285.776297 
L 198.011151 285.346663 
L 199.65162 284.125981 
L 201.292088 282.780049 
L 202.112323 282.21865 
L 202.932557 281.801999 
L 203.752791 281.562132 
L 204.573026 281.512052 
L 205.39326 281.64761 
L 206.213494 281.951485 
L 207.853963 282.956244 
L 210.314665 284.985192 
L 212.775368 286.95212 
L 216.87654 289.743718 
L 217.696774 290.500086 
L 218.517008 291.417521 
L 220.157477 293.771577 
L 224.258648 300.722041 
L 225.078882 301.797132 
L 225.899117 302.681088 
L 227.539585 303.945742 
L 230.000288 305.219273 
L 232.460991 306.557173 
L 235.741928 308.342931 
L 238.202631 309.347981 
L 240.663333 310.154324 
L 242.303802 310.483651 
L 243.124036 310.521435 
L 243.944271 310.447163 
L 244.764505 310.251374 
L 246.404973 309.527539 
L 249.68591 307.687078 
L 250.506145 307.3944 
L 251.326379 307.227467 
L 252.966848 307.250001 
L 255.42755 307.6042 
L 256.247785 307.580357 
L 257.068019 307.397868 
L 257.888253 307.029389 
L 258.708487 306.473661 
L 260.348956 304.931509 
L 261.989425 303.231298 
L 262.809659 302.498357 
L 263.629893 301.914674 
L 264.450127 301.501982 
L 265.270362 301.251905 
L 266.91083 301.077909 
L 268.551299 300.95283 
L 270.191767 300.522994 
L 275.113173 298.570167 
L 276.753641 298.405364 
L 278.39411 298.288012 
L 280.034578 297.945388 
L 282.495281 297.009038 
L 284.13575 296.460538 
L 285.776218 296.212137 
L 291.517858 296.011653 
L 297.259498 295.018548 
L 300.540435 294.744672 
L 303.001138 294.796419 
L 307.102309 295.051267 
L 308.742778 294.867078 
L 310.383247 294.410461 
L 312.023715 293.691982 
L 314.484418 292.279668 
L 316.124886 291.355709 
L 317.765355 290.735273 
L 318.585589 290.607014 
L 319.405823 290.614094 
L 321.046292 290.977509 
L 324.327229 292.061109 
L 325.967698 292.234453 
L 327.608166 292.114741 
L 334.990275 291.065088 
L 336.630743 291.149918 
L 338.271212 291.514717 
L 339.91168 291.946265 
L 340.731915 292.058761 
L 341.552149 292.033587 
L 342.372383 291.839752 
L 343.192617 291.473976 
L 344.833086 290.362196 
L 346.473554 289.166292 
L 347.293789 288.700616 
L 348.114023 288.375501 
L 348.934257 288.193958 
L 350.574726 288.141956 
L 353.035429 288.158339 
L 358.777068 287.672867 
L 362.058006 287.756258 
L 364.518708 287.798278 
L 366.159177 288.170214 
L 367.799645 288.865233 
L 369.440114 289.608463 
L 371.080583 290.104345 
L 374.36152 290.794724 
L 375.181754 291.191134 
L 376.822222 292.424264 
L 379.282925 294.646555 
L 380.10316 295.185882 
L 380.923394 295.525961 
L 381.743628 295.651065 
L 382.563862 295.578347 
L 384.204331 295.024283 
L 387.485268 293.637091 
L 390.766205 292.56938 
L 392.406674 292.170619 
L 394.047142 292.095573 
L 395.687611 292.458415 
L 399.788782 293.92207 
L 401.429251 294.020287 
L 403.069719 293.797479 
L 406.350656 292.996081 
L 412.91253 291.363004 
L 414.552999 291.245584 
L 414.552999 291.245584 
" clip-path="url(#p457a499782)" style="fill: none; stroke: #377eb8; stroke-width: 1.5; stroke-linecap: round"/>
   </g>
   <g id="line2d_13">
    <path d="M 78.256948 320.2 
L 78.256948 69.788 
" clip-path="url(#p457a499782)" style="fill: none; stroke: #000000; stroke-width: 0.5; stroke-linecap: round"/>
   </g>
   <g id="line2d_14">
    <path d="M 36.425 285.196172 
L 414.552999 285.196172 
" clip-path="url(#p457a499782)" style="fill: none; stroke: #000000; stroke-width: 0.5; stroke-linecap: round"/>
   </g>
   <g id="patch_4">
    <path d="M 36.425 320.2 
L 36.425 69.788 
" style="fill: none; stroke: #ffffff; stroke-width: 0.8; stroke-linejoin: miter; stroke-linecap: square"/>
   </g>
   <g id="patch_5">
    <path d="M 414.552999 320.2 
L 414.552999 69.788 
" style="fill: none; stroke: #ffffff; stroke-width: 0.8; stroke-linejoin: miter; stroke-linecap: square"/>
   </g>
   <g id="patch_6">
    <path d="M 36.425 320.2 
L 414.552999 320.2 
" style="fill: none; stroke: #ffffff; stroke-width: 0.8; stroke-linejoin: miter; stroke-linecap: square"/>
   </g>
   <g id="patch_7">
    <path d="M 36.425 69.788 
L 414.552999 69.788 
" style="fill: none; stroke: #ffffff; stroke-width: 0.8; stroke-linejoin: miter; stroke-linecap: square"/>
   </g>
   <g id="legend_1">
    <g id="patch_8">
     <path d="M 78.467124 45.545518 
L 372.510874 45.545518 
Q 374.510874 45.545518 374.510874 43.545518 
L 374.510874 15.898642 
Q 374.510874 13.898642 372.510874 13.898642 
L 78.467124 13.898642 
Q 76.467124 13.898642 76.467124 15.898642 
L 76.467124 43.545518 
Q 76.467124 45.545518 78.467124 45.545518 
z
" style="fill: #eaeaf2; opacity: 0.8; stroke: #cccccc; stroke-linejoin: miter"/>
    </g>
    <g id="text_13">
     <!-- Average of Sessions with  6 Tactors (Legs Excluded) at Fz (n=23) -->
     <g style="fill: #262626" transform="translate(80.467124 25.17833)scale(0.1 -0.1)">
      <defs>
       <path id="ArialMT-41" d="M -9 0 
L 1750 4581 
L 2403 4581 
L 4278 0 
L 3588 0 
L 3053 1388 
L 1138 1388 
L 634 0 
L -9 0 
z
M 1313 1881 
L 2866 1881 
L 2388 3150 
Q 2169 3728 2063 4100 
Q 1975 3659 1816 3225 
L 1313 1881 
z
" transform="scale(0.015625)"/>
       <path id="ArialMT-76" d="M 1344 0 
L 81 3319 
L 675 3319 
L 1388 1331 
Q 1503 1009 1600 663 
Q 1675 925 1809 1294 
L 2547 3319 
L 3125 3319 
L 1869 0 
L 1344 0 
z
" transform="scale(0.015625)"/>
       <path id="ArialMT-72" d="M 416 0 
L 416 3319 
L 922 3319 
L 922 2816 
Q 1116 3169 1280 3281 
Q 1444 3394 1641 3394 
Q 1925 3394 2219 3213 
L 2025 2691 
Q 1819 2813 1613 2813 
Q 1428 2813 1281 2702 
Q 1134 2591 1072 2394 
Q 978 2094 978 1738 
L 978 0 
L 416 0 
z
" transform="scale(0.015625)"/>
       <path id="ArialMT-61" d="M 2588 409 
Q 2275 144 1986 34 
Q 1697 -75 1366 -75 
Q 819 -75 525 192 
Q 231 459 231 875 
Q 231 1119 342 1320 
Q 453 1522 633 1644 
Q 813 1766 1038 1828 
Q 1203 1872 1538 1913 
Q 2219 1994 2541 2106 
Q 2544 2222 2544 2253 
Q 2544 2597 2384 2738 
Q 2169 2928 1744 2928 
Q 1347 2928 1158 2789 
Q 969 2650 878 2297 
L 328 2372 
Q 403 2725 575 2942 
Q 747 3159 1072 3276 
Q 1397 3394 1825 3394 
Q 2250 3394 2515 3294 
Q 2781 3194 2906 3042 
Q 3031 2891 3081 2659 
Q 3109 2516 3109 2141 
L 3109 1391 
Q 3109 606 3145 398 
Q 3181 191 3288 0 
L 2700 0 
Q 2613 175 2588 409 
z
M 2541 1666 
Q 2234 1541 1622 1453 
Q 1275 1403 1131 1340 
Q 988 1278 909 1158 
Q 831 1038 831 891 
Q 831 666 1001 516 
Q 1172 366 1500 366 
Q 1825 366 2078 508 
Q 2331 650 2450 897 
Q 2541 1088 2541 1459 
L 2541 1666 
z
" transform="scale(0.015625)"/>
       <path id="ArialMT-67" d="M 319 -275 
L 866 -356 
Q 900 -609 1056 -725 
Q 1266 -881 1628 -881 
Q 2019 -881 2231 -725 
Q 2444 -569 2519 -288 
Q 2563 -116 2559 434 
Q 2191 0 1641 0 
Q 956 0 581 494 
Q 206 988 206 1678 
Q 206 2153 378 2554 
Q 550 2956 876 3175 
Q 1203 3394 1644 3394 
Q 2231 3394 2613 2919 
L 2613 3319 
L 3131 3319 
L 3131 450 
Q 3131 -325 2973 -648 
Q 2816 -972 2473 -1159 
Q 2131 -1347 1631 -1347 
Q 1038 -1347 672 -1080 
Q 306 -813 319 -275 
z
M 784 1719 
Q 784 1066 1043 766 
Q 1303 466 1694 466 
Q 2081 466 2343 764 
Q 2606 1063 2606 1700 
Q 2606 2309 2336 2618 
Q 2066 2928 1684 2928 
Q 1309 2928 1046 2623 
Q 784 2319 784 1719 
z
" transform="scale(0.015625)"/>
       <path id="ArialMT-20" transform="scale(0.015625)"/>
       <path id="ArialMT-66" d="M 556 0 
L 556 2881 
L 59 2881 
L 59 3319 
L 556 3319 
L 556 3672 
Q 556 4006 616 4169 
Q 697 4388 901 4523 
Q 1106 4659 1475 4659 
Q 1713 4659 2000 4603 
L 1916 4113 
Q 1741 4144 1584 4144 
Q 1328 4144 1222 4034 
Q 1116 3925 1116 3625 
L 1116 3319 
L 1763 3319 
L 1763 2881 
L 1116 2881 
L 1116 0 
L 556 0 
z
" transform="scale(0.015625)"/>
       <path id="ArialMT-53" d="M 288 1472 
L 859 1522 
Q 900 1178 1048 958 
Q 1197 738 1509 602 
Q 1822 466 2213 466 
Q 2559 466 2825 569 
Q 3091 672 3220 851 
Q 3350 1031 3350 1244 
Q 3350 1459 3225 1620 
Q 3100 1781 2813 1891 
Q 2628 1963 1997 2114 
Q 1366 2266 1113 2400 
Q 784 2572 623 2826 
Q 463 3081 463 3397 
Q 463 3744 659 4045 
Q 856 4347 1234 4503 
Q 1613 4659 2075 4659 
Q 2584 4659 2973 4495 
Q 3363 4331 3572 4012 
Q 3781 3694 3797 3291 
L 3216 3247 
Q 3169 3681 2898 3903 
Q 2628 4125 2100 4125 
Q 1550 4125 1298 3923 
Q 1047 3722 1047 3438 
Q 1047 3191 1225 3031 
Q 1400 2872 2139 2705 
Q 2878 2538 3153 2413 
Q 3553 2228 3743 1945 
Q 3934 1663 3934 1294 
Q 3934 928 3725 604 
Q 3516 281 3123 101 
Q 2731 -78 2241 -78 
Q 1619 -78 1198 103 
Q 778 284 539 648 
Q 300 1013 288 1472 
z
" transform="scale(0.015625)"/>
       <path id="ArialMT-69" d="M 425 3934 
L 425 4581 
L 988 4581 
L 988 3934 
L 425 3934 
z
M 425 0 
L 425 3319 
L 988 3319 
L 988 0 
L 425 0 
z
" transform="scale(0.015625)"/>
       <path id="ArialMT-77" d="M 1034 0 
L 19 3319 
L 600 3319 
L 1128 1403 
L 1325 691 
Q 1338 744 1497 1375 
L 2025 3319 
L 2603 3319 
L 3100 1394 
L 3266 759 
L 3456 1400 
L 4025 3319 
L 4572 3319 
L 3534 0 
L 2950 0 
L 2422 1988 
L 2294 2553 
L 1622 0 
L 1034 0 
z
" transform="scale(0.015625)"/>
       <path id="ArialMT-74" d="M 1650 503 
L 1731 6 
Q 1494 -44 1306 -44 
Q 1000 -44 831 53 
Q 663 150 594 308 
Q 525 466 525 972 
L 525 2881 
L 113 2881 
L 113 3319 
L 525 3319 
L 525 4141 
L 1084 4478 
L 1084 3319 
L 1650 3319 
L 1650 2881 
L 1084 2881 
L 1084 941 
Q 1084 700 1114 631 
Q 1144 563 1211 522 
Q 1278 481 1403 481 
Q 1497 481 1650 503 
z
" transform="scale(0.015625)"/>
       <path id="ArialMT-68" d="M 422 0 
L 422 4581 
L 984 4581 
L 984 2938 
Q 1378 3394 1978 3394 
Q 2347 3394 2619 3248 
Q 2891 3103 3008 2847 
Q 3125 2591 3125 2103 
L 3125 0 
L 2563 0 
L 2563 2103 
Q 2563 2525 2380 2717 
Q 2197 2909 1863 2909 
Q 1613 2909 1392 2779 
Q 1172 2650 1078 2428 
Q 984 2206 984 1816 
L 984 0 
L 422 0 
z
" transform="scale(0.015625)"/>
       <path id="ArialMT-54" d="M 1659 0 
L 1659 4041 
L 150 4041 
L 150 4581 
L 3781 4581 
L 3781 4041 
L 2266 4041 
L 2266 0 
L 1659 0 
z
" transform="scale(0.015625)"/>
       <path id="ArialMT-28" d="M 1497 -1347 
Q 1031 -759 709 28 
Q 388 816 388 1659 
Q 388 2403 628 3084 
Q 909 3875 1497 4659 
L 1900 4659 
Q 1522 4009 1400 3731 
Q 1209 3300 1100 2831 
Q 966 2247 966 1656 
Q 966 153 1900 -1347 
L 1497 -1347 
z
" transform="scale(0.015625)"/>
       <path id="ArialMT-4c" d="M 469 0 
L 469 4581 
L 1075 4581 
L 1075 541 
L 3331 541 
L 3331 0 
L 469 0 
z
" transform="scale(0.015625)"/>
       <path id="ArialMT-45" d="M 506 0 
L 506 4581 
L 3819 4581 
L 3819 4041 
L 1113 4041 
L 1113 2638 
L 3647 2638 
L 3647 2100 
L 1113 2100 
L 1113 541 
L 3925 541 
L 3925 0 
L 506 0 
z
" transform="scale(0.015625)"/>
       <path id="ArialMT-78" d="M 47 0 
L 1259 1725 
L 138 3319 
L 841 3319 
L 1350 2541 
Q 1494 2319 1581 2169 
Q 1719 2375 1834 2534 
L 2394 3319 
L 3066 3319 
L 1919 1756 
L 3153 0 
L 2463 0 
L 1781 1031 
L 1600 1309 
L 728 0 
L 47 0 
z
" transform="scale(0.015625)"/>
       <path id="ArialMT-6c" d="M 409 0 
L 409 4581 
L 972 4581 
L 972 0 
L 409 0 
z
" transform="scale(0.015625)"/>
       <path id="ArialMT-75" d="M 2597 0 
L 2597 488 
Q 2209 -75 1544 -75 
Q 1250 -75 995 37 
Q 741 150 617 320 
Q 494 491 444 738 
Q 409 903 409 1263 
L 409 3319 
L 972 3319 
L 972 1478 
Q 972 1038 1006 884 
Q 1059 663 1231 536 
Q 1403 409 1656 409 
Q 1909 409 2131 539 
Q 2353 669 2445 892 
Q 2538 1116 2538 1541 
L 2538 3319 
L 3100 3319 
L 3100 0 
L 2597 0 
z
" transform="scale(0.015625)"/>
       <path id="ArialMT-29" d="M 791 -1347 
L 388 -1347 
Q 1322 153 1322 1656 
Q 1322 2244 1188 2822 
Q 1081 3291 891 3722 
Q 769 4003 388 4659 
L 791 4659 
Q 1378 3875 1659 3084 
Q 1900 2403 1900 1659 
Q 1900 816 1576 28 
Q 1253 -759 791 -1347 
z
" transform="scale(0.015625)"/>
       <path id="ArialMT-46" d="M 525 0 
L 525 4581 
L 3616 4581 
L 3616 4041 
L 1131 4041 
L 1131 2622 
L 3281 2622 
L 3281 2081 
L 1131 2081 
L 1131 0 
L 525 0 
z
" transform="scale(0.015625)"/>
       <path id="ArialMT-7a" d="M 125 0 
L 125 456 
L 2238 2881 
Q 1878 2863 1603 2863 
L 250 2863 
L 250 3319 
L 2963 3319 
L 2963 2947 
L 1166 841 
L 819 456 
Q 1197 484 1528 484 
L 3063 484 
L 3063 0 
L 125 0 
z
" transform="scale(0.015625)"/>
       <path id="ArialMT-3d" d="M 3381 2694 
L 356 2694 
L 356 3219 
L 3381 3219 
L 3381 2694 
z
M 3381 1303 
L 356 1303 
L 356 1828 
L 3381 1828 
L 3381 1303 
z
" transform="scale(0.015625)"/>
       <path id="ArialMT-33" d="M 269 1209 
L 831 1284 
Q 928 806 1161 595 
Q 1394 384 1728 384 
Q 2125 384 2398 659 
Q 2672 934 2672 1341 
Q 2672 1728 2419 1979 
Q 2166 2231 1775 2231 
Q 1616 2231 1378 2169 
L 1441 2663 
Q 1497 2656 1531 2656 
Q 1891 2656 2178 2843 
Q 2466 3031 2466 3422 
Q 2466 3731 2256 3934 
Q 2047 4138 1716 4138 
Q 1388 4138 1169 3931 
Q 950 3725 888 3313 
L 325 3413 
Q 428 3978 793 4289 
Q 1159 4600 1703 4600 
Q 2078 4600 2393 4439 
Q 2709 4278 2876 4000 
Q 3044 3722 3044 3409 
Q 3044 3113 2884 2869 
Q 2725 2625 2413 2481 
Q 2819 2388 3044 2092 
Q 3269 1797 3269 1353 
Q 3269 753 2831 336 
Q 2394 -81 1725 -81 
Q 1122 -81 723 278 
Q 325 638 269 1209 
z
" transform="scale(0.015625)"/>
      </defs>
      <use xlink:href="#ArialMT-41"/>
      <use xlink:href="#ArialMT-76" x="64.949219"/>
      <use xlink:href="#ArialMT-65" x="114.949219"/>
      <use xlink:href="#ArialMT-72" x="170.564453"/>
      <use xlink:href="#ArialMT-61" x="203.865234"/>
      <use xlink:href="#ArialMT-67" x="259.480469"/>
      <use xlink:href="#ArialMT-65" x="315.095703"/>
      <use xlink:href="#ArialMT-20" x="370.710938"/>
      <use xlink:href="#ArialMT-6f" x="398.494141"/>
      <use xlink:href="#ArialMT-66" x="454.109375"/>
      <use xlink:href="#ArialMT-20" x="481.892578"/>
      <use xlink:href="#ArialMT-53" x="509.675781"/>
      <use xlink:href="#ArialMT-65" x="576.375"/>
      <use xlink:href="#ArialMT-73" x="631.990234"/>
      <use xlink:href="#ArialMT-73" x="681.990234"/>
      <use xlink:href="#ArialMT-69" x="731.990234"/>
      <use xlink:href="#ArialMT-6f" x="754.207031"/>
      <use xlink:href="#ArialMT-6e" x="809.822266"/>
      <use xlink:href="#ArialMT-73" x="865.4375"/>
      <use xlink:href="#ArialMT-20" x="915.4375"/>
      <use xlink:href="#ArialMT-77" x="943.220703"/>
      <use xlink:href="#ArialMT-69" x="1015.4375"/>
      <use xlink:href="#ArialMT-74" x="1037.654297"/>
      <use xlink:href="#ArialMT-68" x="1065.4375"/>
      <use xlink:href="#ArialMT-20" x="1121.052734"/>
      <use xlink:href="#ArialMT-20" x="1148.835938"/>
      <use xlink:href="#ArialMT-36" x="1176.619141"/>
      <use xlink:href="#ArialMT-20" x="1232.234375"/>
      <use xlink:href="#ArialMT-54" x="1258.267578"/>
      <use xlink:href="#ArialMT-61" x="1308.226562"/>
      <use xlink:href="#ArialMT-63" x="1363.841797"/>
      <use xlink:href="#ArialMT-74" x="1413.841797"/>
      <use xlink:href="#ArialMT-6f" x="1441.625"/>
      <use xlink:href="#ArialMT-72" x="1497.240234"/>
      <use xlink:href="#ArialMT-73" x="1530.541016"/>
      <use xlink:href="#ArialMT-20" x="1580.541016"/>
      <use xlink:href="#ArialMT-28" x="1608.324219"/>
      <use xlink:href="#ArialMT-4c" x="1641.625"/>
      <use xlink:href="#ArialMT-65" x="1697.240234"/>
      <use xlink:href="#ArialMT-67" x="1752.855469"/>
      <use xlink:href="#ArialMT-73" x="1808.470703"/>
      <use xlink:href="#ArialMT-20" x="1858.470703"/>
      <use xlink:href="#ArialMT-45" x="1886.253906"/>
      <use xlink:href="#ArialMT-78" x="1952.953125"/>
      <use xlink:href="#ArialMT-63" x="2002.953125"/>
      <use xlink:href="#ArialMT-6c" x="2052.953125"/>
      <use xlink:href="#ArialMT-75" x="2075.169922"/>
      <use xlink:href="#ArialMT-64" x="2130.785156"/>
      <use xlink:href="#ArialMT-65" x="2186.400391"/>
      <use xlink:href="#ArialMT-64" x="2242.015625"/>
      <use xlink:href="#ArialMT-29" x="2297.630859"/>
      <use xlink:href="#ArialMT-20" x="2330.931641"/>
      <use xlink:href="#ArialMT-61" x="2358.714844"/>
      <use xlink:href="#ArialMT-74" x="2414.330078"/>
      <use xlink:href="#ArialMT-20" x="2442.113281"/>
      <use xlink:href="#ArialMT-46" x="2469.896484"/>
      <use xlink:href="#ArialMT-7a" x="2530.980469"/>
      <use xlink:href="#ArialMT-20" x="2580.980469"/>
      <use xlink:href="#ArialMT-28" x="2608.763672"/>
      <use xlink:href="#ArialMT-6e" x="2642.064453"/>
      <use xlink:href="#ArialMT-3d" x="2697.679688"/>
      <use xlink:href="#ArialMT-32" x="2756.078125"/>
      <use xlink:href="#ArialMT-33" x="2811.693359"/>
      <use xlink:href="#ArialMT-29" x="2867.308594"/>
     </g>
    </g>
    <g id="line2d_15">
     <path d="M 148.866343 35.94083 
L 158.866343 35.94083 
L 168.866343 35.94083 
" style="fill: none; stroke: #e41a1c; stroke-width: 1.5; stroke-linecap: round"/>
    </g>
    <g id="text_14">
     <!-- Target -->
     <g style="fill: #262626" transform="translate(176.866343 39.44083)scale(0.1 -0.1)">
      <use xlink:href="#ArialMT-54"/>
      <use xlink:href="#ArialMT-61" x="49.958984"/>
      <use xlink:href="#ArialMT-72" x="105.574219"/>
      <use xlink:href="#ArialMT-67" x="138.875"/>
      <use xlink:href="#ArialMT-65" x="194.490234"/>
      <use xlink:href="#ArialMT-74" x="250.105469"/>
     </g>
    </g>
    <g id="line2d_16">
     <path d="M 224.652281 35.94083 
L 234.652281 35.94083 
L 244.652281 35.94083 
" style="fill: none; stroke: #377eb8; stroke-width: 1.5; stroke-linecap: round"/>
    </g>
    <g id="text_15">
     <!-- Non-Target -->
     <g style="fill: #262626" transform="translate(252.652281 39.44083)scale(0.1 -0.1)">
      <defs>
       <path id="ArialMT-4e" d="M 488 0 
L 488 4581 
L 1109 4581 
L 3516 984 
L 3516 4581 
L 4097 4581 
L 4097 0 
L 3475 0 
L 1069 3600 
L 1069 0 
L 488 0 
z
" transform="scale(0.015625)"/>
       <path id="ArialMT-2d" d="M 203 1375 
L 203 1941 
L 1931 1941 
L 1931 1375 
L 203 1375 
z
" transform="scale(0.015625)"/>
      </defs>
      <use xlink:href="#ArialMT-4e"/>
      <use xlink:href="#ArialMT-6f" x="72.216797"/>
      <use xlink:href="#ArialMT-6e" x="127.832031"/>
      <use xlink:href="#ArialMT-2d" x="183.447266"/>
      <use xlink:href="#ArialMT-54" x="216.748047"/>
      <use xlink:href="#ArialMT-61" x="266.707031"/>
      <use xlink:href="#ArialMT-72" x="322.322266"/>
      <use xlink:href="#ArialMT-67" x="355.623047"/>
      <use xlink:href="#ArialMT-65" x="411.238281"/>
      <use xlink:href="#ArialMT-74" x="466.853516"/>
     </g>
    </g>
   </g>
  </g>
 </g>
 <defs>
  <clipPath id="p457a499782">
   <rect x="36.425" y="69.788" width="378.127999" height="250.412"/>
  </clipPath>
 </defs>
</svg>
