<?xml version="1.0" encoding="utf-8" standalone="no"?>
<!DOCTYPE svg PUBLIC "-//W3C//DTD SVG 1.1//EN"
  "http://www.w3.org/Graphics/SVG/1.1/DTD/svg11.dtd">
<svg xmlns:xlink="http://www.w3.org/1999/xlink" width="432pt" height="360pt" viewBox="0 0 432 360" xmlns="http://www.w3.org/2000/svg" version="1.1">
 <metadata>
  <rdf:RDF xmlns:dc="http://purl.org/dc/elements/1.1/" xmlns:cc="http://creativecommons.org/ns#" xmlns:rdf="http://www.w3.org/1999/02/22-rdf-syntax-ns#">
   <cc:Work>
    <dc:type rdf:resource="http://purl.org/dc/dcmitype/StillImage"/>
    <dc:date>2024-05-13T15:07:54.158036</dc:date>
    <dc:format>image/svg+xml</dc:format>
    <dc:creator>
     <cc:Agent>
      <dc:title>Matplotlib v3.5.1, https://matplotlib.org/</dc:title>
     </cc:Agent>
    </dc:creator>
   </cc:Work>
  </rdf:RDF>
 </metadata>
 <defs>
  <style type="text/css">*{stroke-linejoin: round; stroke-linecap: butt}</style>
 </defs>
 <g id="figure_1">
  <g id="patch_1">
   <path d="M 0 360 
L 432 360 
L 432 0 
L 0 0 
L 0 360 
z
" style="fill: none"/>
  </g>
  <g id="axes_1">
   <g id="patch_2">
    <path d="M 36.425 320.2 
L 414.552999 320.2 
L 414.552999 69.788 
L 36.425 69.788 
L 36.425 320.2 
z
" style="fill: none"/>
   </g>
   <g id="matplotlib.axis_1">
    <g id="xtick_1">
     <g id="line2d_1">
      <path d="M 78.256948 320.2 
L 78.256948 69.788 
" clip-path="url(#pca08ddfa20)" style="fill: none; stroke: #ffffff; stroke-width: 0.8; stroke-linecap: round"/>
     </g>
     <g id="text_1">
      <!-- 0.0 -->
      <g style="fill: #262626" transform="translate(71.306948 334.357813)scale(0.1 -0.1)">
       <defs>
        <path id="ArialMT-30" d="M 266 2259 
Q 266 3072 433 3567 
Q 600 4063 929 4331 
Q 1259 4600 1759 4600 
Q 2128 4600 2406 4451 
Q 2684 4303 2865 4023 
Q 3047 3744 3150 3342 
Q 3253 2941 3253 2259 
Q 3253 1453 3087 958 
Q 2922 463 2592 192 
Q 2263 -78 1759 -78 
Q 1097 -78 719 397 
Q 266 969 266 2259 
z
M 844 2259 
Q 844 1131 1108 757 
Q 1372 384 1759 384 
Q 2147 384 2411 759 
Q 2675 1134 2675 2259 
Q 2675 3391 2411 3762 
Q 2147 4134 1753 4134 
Q 1366 4134 1134 3806 
Q 844 3388 844 2259 
z
" transform="scale(0.015625)"/>
        <path id="ArialMT-2e" d="M 581 0 
L 581 641 
L 1222 641 
L 1222 0 
L 581 0 
z
" transform="scale(0.015625)"/>
       </defs>
       <use xlink:href="#ArialMT-30"/>
       <use xlink:href="#ArialMT-2e" x="55.615234"/>
       <use xlink:href="#ArialMT-30" x="83.398438"/>
      </g>
     </g>
    </g>
    <g id="xtick_2">
     <g id="line2d_2">
      <path d="M 162.248937 320.2 
L 162.248937 69.788 
" clip-path="url(#pca08ddfa20)" style="fill: none; stroke: #ffffff; stroke-width: 0.8; stroke-linecap: round"/>
     </g>
     <g id="text_2">
      <!-- 0.2 -->
      <g style="fill: #262626" transform="translate(155.298937 334.357813)scale(0.1 -0.1)">
       <defs>
        <path id="ArialMT-32" d="M 3222 541 
L 3222 0 
L 194 0 
Q 188 203 259 391 
Q 375 700 629 1000 
Q 884 1300 1366 1694 
Q 2113 2306 2375 2664 
Q 2638 3022 2638 3341 
Q 2638 3675 2398 3904 
Q 2159 4134 1775 4134 
Q 1369 4134 1125 3890 
Q 881 3647 878 3216 
L 300 3275 
Q 359 3922 746 4261 
Q 1134 4600 1788 4600 
Q 2447 4600 2831 4234 
Q 3216 3869 3216 3328 
Q 3216 3053 3103 2787 
Q 2991 2522 2730 2228 
Q 2469 1934 1863 1422 
Q 1356 997 1212 845 
Q 1069 694 975 541 
L 3222 541 
z
" transform="scale(0.015625)"/>
       </defs>
       <use xlink:href="#ArialMT-30"/>
       <use xlink:href="#ArialMT-2e" x="55.615234"/>
       <use xlink:href="#ArialMT-32" x="83.398438"/>
      </g>
     </g>
    </g>
    <g id="xtick_3">
     <g id="line2d_3">
      <path d="M 246.240927 320.2 
L 246.240927 69.788 
" clip-path="url(#pca08ddfa20)" style="fill: none; stroke: #ffffff; stroke-width: 0.8; stroke-linecap: round"/>
     </g>
     <g id="text_3">
      <!-- 0.4 -->
      <g style="fill: #262626" transform="translate(239.290927 334.357813)scale(0.1 -0.1)">
       <defs>
        <path id="ArialMT-34" d="M 2069 0 
L 2069 1097 
L 81 1097 
L 81 1613 
L 2172 4581 
L 2631 4581 
L 2631 1613 
L 3250 1613 
L 3250 1097 
L 2631 1097 
L 2631 0 
L 2069 0 
z
M 2069 1613 
L 2069 3678 
L 634 1613 
L 2069 1613 
z
" transform="scale(0.015625)"/>
       </defs>
       <use xlink:href="#ArialMT-30"/>
       <use xlink:href="#ArialMT-2e" x="55.615234"/>
       <use xlink:href="#ArialMT-34" x="83.398438"/>
      </g>
     </g>
    </g>
    <g id="xtick_4">
     <g id="line2d_4">
      <path d="M 330.232916 320.2 
L 330.232916 69.788 
" clip-path="url(#pca08ddfa20)" style="fill: none; stroke: #ffffff; stroke-width: 0.8; stroke-linecap: round"/>
     </g>
     <g id="text_4">
      <!-- 0.6 -->
      <g style="fill: #262626" transform="translate(323.282916 334.357813)scale(0.1 -0.1)">
       <defs>
        <path id="ArialMT-36" d="M 3184 3459 
L 2625 3416 
Q 2550 3747 2413 3897 
Q 2184 4138 1850 4138 
Q 1581 4138 1378 3988 
Q 1113 3794 959 3422 
Q 806 3050 800 2363 
Q 1003 2672 1297 2822 
Q 1591 2972 1913 2972 
Q 2475 2972 2870 2558 
Q 3266 2144 3266 1488 
Q 3266 1056 3080 686 
Q 2894 316 2569 119 
Q 2244 -78 1831 -78 
Q 1128 -78 684 439 
Q 241 956 241 2144 
Q 241 3472 731 4075 
Q 1159 4600 1884 4600 
Q 2425 4600 2770 4297 
Q 3116 3994 3184 3459 
z
M 888 1484 
Q 888 1194 1011 928 
Q 1134 663 1356 523 
Q 1578 384 1822 384 
Q 2178 384 2434 671 
Q 2691 959 2691 1453 
Q 2691 1928 2437 2201 
Q 2184 2475 1800 2475 
Q 1419 2475 1153 2201 
Q 888 1928 888 1484 
z
" transform="scale(0.015625)"/>
       </defs>
       <use xlink:href="#ArialMT-30"/>
       <use xlink:href="#ArialMT-2e" x="55.615234"/>
       <use xlink:href="#ArialMT-36" x="83.398438"/>
      </g>
     </g>
    </g>
    <g id="xtick_5">
     <g id="line2d_5">
      <path d="M 414.224905 320.2 
L 414.224905 69.788 
" clip-path="url(#pca08ddfa20)" style="fill: none; stroke: #ffffff; stroke-width: 0.8; stroke-linecap: round"/>
     </g>
     <g id="text_5">
      <!-- 0.8 -->
      <g style="fill: #262626" transform="translate(407.274905 334.357813)scale(0.1 -0.1)">
       <defs>
        <path id="ArialMT-38" d="M 1131 2484 
Q 781 2613 612 2850 
Q 444 3088 444 3419 
Q 444 3919 803 4259 
Q 1163 4600 1759 4600 
Q 2359 4600 2725 4251 
Q 3091 3903 3091 3403 
Q 3091 3084 2923 2848 
Q 2756 2613 2416 2484 
Q 2838 2347 3058 2040 
Q 3278 1734 3278 1309 
Q 3278 722 2862 322 
Q 2447 -78 1769 -78 
Q 1091 -78 675 323 
Q 259 725 259 1325 
Q 259 1772 486 2073 
Q 713 2375 1131 2484 
z
M 1019 3438 
Q 1019 3113 1228 2906 
Q 1438 2700 1772 2700 
Q 2097 2700 2305 2904 
Q 2513 3109 2513 3406 
Q 2513 3716 2298 3927 
Q 2084 4138 1766 4138 
Q 1444 4138 1231 3931 
Q 1019 3725 1019 3438 
z
M 838 1322 
Q 838 1081 952 856 
Q 1066 631 1291 507 
Q 1516 384 1775 384 
Q 2178 384 2440 643 
Q 2703 903 2703 1303 
Q 2703 1709 2433 1975 
Q 2163 2241 1756 2241 
Q 1359 2241 1098 1978 
Q 838 1716 838 1322 
z
" transform="scale(0.015625)"/>
       </defs>
       <use xlink:href="#ArialMT-30"/>
       <use xlink:href="#ArialMT-2e" x="55.615234"/>
       <use xlink:href="#ArialMT-38" x="83.398438"/>
      </g>
     </g>
    </g>
    <g id="text_6">
     <!-- seconds -->
     <g style="fill: #262626" transform="translate(206.867124 347.503125)scale(0.1 -0.1)">
      <defs>
       <path id="ArialMT-73" d="M 197 991 
L 753 1078 
Q 800 744 1014 566 
Q 1228 388 1613 388 
Q 2000 388 2187 545 
Q 2375 703 2375 916 
Q 2375 1106 2209 1216 
Q 2094 1291 1634 1406 
Q 1016 1563 777 1677 
Q 538 1791 414 1992 
Q 291 2194 291 2438 
Q 291 2659 392 2848 
Q 494 3038 669 3163 
Q 800 3259 1026 3326 
Q 1253 3394 1513 3394 
Q 1903 3394 2198 3281 
Q 2494 3169 2634 2976 
Q 2775 2784 2828 2463 
L 2278 2388 
Q 2241 2644 2061 2787 
Q 1881 2931 1553 2931 
Q 1166 2931 1000 2803 
Q 834 2675 834 2503 
Q 834 2394 903 2306 
Q 972 2216 1119 2156 
Q 1203 2125 1616 2013 
Q 2213 1853 2448 1751 
Q 2684 1650 2818 1456 
Q 2953 1263 2953 975 
Q 2953 694 2789 445 
Q 2625 197 2315 61 
Q 2006 -75 1616 -75 
Q 969 -75 630 194 
Q 291 463 197 991 
z
" transform="scale(0.015625)"/>
       <path id="ArialMT-65" d="M 2694 1069 
L 3275 997 
Q 3138 488 2766 206 
Q 2394 -75 1816 -75 
Q 1088 -75 661 373 
Q 234 822 234 1631 
Q 234 2469 665 2931 
Q 1097 3394 1784 3394 
Q 2450 3394 2872 2941 
Q 3294 2488 3294 1666 
Q 3294 1616 3291 1516 
L 816 1516 
Q 847 969 1125 678 
Q 1403 388 1819 388 
Q 2128 388 2347 550 
Q 2566 713 2694 1069 
z
M 847 1978 
L 2700 1978 
Q 2663 2397 2488 2606 
Q 2219 2931 1791 2931 
Q 1403 2931 1139 2672 
Q 875 2413 847 1978 
z
" transform="scale(0.015625)"/>
       <path id="ArialMT-63" d="M 2588 1216 
L 3141 1144 
Q 3050 572 2676 248 
Q 2303 -75 1759 -75 
Q 1078 -75 664 370 
Q 250 816 250 1647 
Q 250 2184 428 2587 
Q 606 2991 970 3192 
Q 1334 3394 1763 3394 
Q 2303 3394 2647 3120 
Q 2991 2847 3088 2344 
L 2541 2259 
Q 2463 2594 2264 2762 
Q 2066 2931 1784 2931 
Q 1359 2931 1093 2626 
Q 828 2322 828 1663 
Q 828 994 1084 691 
Q 1341 388 1753 388 
Q 2084 388 2306 591 
Q 2528 794 2588 1216 
z
" transform="scale(0.015625)"/>
       <path id="ArialMT-6f" d="M 213 1659 
Q 213 2581 725 3025 
Q 1153 3394 1769 3394 
Q 2453 3394 2887 2945 
Q 3322 2497 3322 1706 
Q 3322 1066 3130 698 
Q 2938 331 2570 128 
Q 2203 -75 1769 -75 
Q 1072 -75 642 372 
Q 213 819 213 1659 
z
M 791 1659 
Q 791 1022 1069 705 
Q 1347 388 1769 388 
Q 2188 388 2466 706 
Q 2744 1025 2744 1678 
Q 2744 2294 2464 2611 
Q 2184 2928 1769 2928 
Q 1347 2928 1069 2612 
Q 791 2297 791 1659 
z
" transform="scale(0.015625)"/>
       <path id="ArialMT-6e" d="M 422 0 
L 422 3319 
L 928 3319 
L 928 2847 
Q 1294 3394 1984 3394 
Q 2284 3394 2536 3286 
Q 2788 3178 2913 3003 
Q 3038 2828 3088 2588 
Q 3119 2431 3119 2041 
L 3119 0 
L 2556 0 
L 2556 2019 
Q 2556 2363 2490 2533 
Q 2425 2703 2258 2804 
Q 2091 2906 1866 2906 
Q 1506 2906 1245 2678 
Q 984 2450 984 1813 
L 984 0 
L 422 0 
z
" transform="scale(0.015625)"/>
       <path id="ArialMT-64" d="M 2575 0 
L 2575 419 
Q 2259 -75 1647 -75 
Q 1250 -75 917 144 
Q 584 363 401 755 
Q 219 1147 219 1656 
Q 219 2153 384 2558 
Q 550 2963 881 3178 
Q 1213 3394 1622 3394 
Q 1922 3394 2156 3267 
Q 2391 3141 2538 2938 
L 2538 4581 
L 3097 4581 
L 3097 0 
L 2575 0 
z
M 797 1656 
Q 797 1019 1065 703 
Q 1334 388 1700 388 
Q 2069 388 2326 689 
Q 2584 991 2584 1609 
Q 2584 2291 2321 2609 
Q 2059 2928 1675 2928 
Q 1300 2928 1048 2622 
Q 797 2316 797 1656 
z
" transform="scale(0.015625)"/>
      </defs>
      <use xlink:href="#ArialMT-73"/>
      <use xlink:href="#ArialMT-65" x="50"/>
      <use xlink:href="#ArialMT-63" x="105.615234"/>
      <use xlink:href="#ArialMT-6f" x="155.615234"/>
      <use xlink:href="#ArialMT-6e" x="211.230469"/>
      <use xlink:href="#ArialMT-64" x="266.845703"/>
      <use xlink:href="#ArialMT-73" x="322.460938"/>
     </g>
    </g>
   </g>
   <g id="matplotlib.axis_2">
    <g id="ytick_1">
     <g id="line2d_6">
      <path d="M 36.425 285.196172 
L 414.552999 285.196172 
" clip-path="url(#pca08ddfa20)" style="fill: none; stroke: #ffffff; stroke-width: 0.8; stroke-linecap: round"/>
     </g>
     <g id="text_7">
      <!-- 0 -->
      <g style="fill: #262626" transform="translate(23.864063 288.775078)scale(0.1 -0.1)">
       <use xlink:href="#ArialMT-30"/>
      </g>
     </g>
    </g>
    <g id="ytick_2">
     <g id="line2d_7">
      <path d="M 36.425 231.344129 
L 414.552999 231.344129 
" clip-path="url(#pca08ddfa20)" style="fill: none; stroke: #ffffff; stroke-width: 0.8; stroke-linecap: round"/>
     </g>
     <g id="text_8">
      <!-- 2 -->
      <g style="fill: #262626" transform="translate(23.864063 234.923035)scale(0.1 -0.1)">
       <use xlink:href="#ArialMT-32"/>
      </g>
     </g>
    </g>
    <g id="ytick_3">
     <g id="line2d_8">
      <path d="M 36.425 177.492086 
L 414.552999 177.492086 
" clip-path="url(#pca08ddfa20)" style="fill: none; stroke: #ffffff; stroke-width: 0.8; stroke-linecap: round"/>
     </g>
     <g id="text_9">
      <!-- 4 -->
      <g style="fill: #262626" transform="translate(23.864063 181.070992)scale(0.1 -0.1)">
       <use xlink:href="#ArialMT-34"/>
      </g>
     </g>
    </g>
    <g id="ytick_4">
     <g id="line2d_9">
      <path d="M 36.425 123.640043 
L 414.552999 123.640043 
" clip-path="url(#pca08ddfa20)" style="fill: none; stroke: #ffffff; stroke-width: 0.8; stroke-linecap: round"/>
     </g>
     <g id="text_10">
      <!-- 6 -->
      <g style="fill: #262626" transform="translate(23.864063 127.218949)scale(0.1 -0.1)">
       <use xlink:href="#ArialMT-36"/>
      </g>
     </g>
    </g>
    <g id="ytick_5">
     <g id="line2d_10">
      <path d="M 36.425 69.788 
L 414.552999 69.788 
" clip-path="url(#pca08ddfa20)" style="fill: none; stroke: #ffffff; stroke-width: 0.8; stroke-linecap: round"/>
     </g>
     <g id="text_11">
      <!-- 8 -->
      <g style="fill: #262626" transform="translate(23.864063 73.366906)scale(0.1 -0.1)">
       <use xlink:href="#ArialMT-38"/>
      </g>
     </g>
    </g>
    <g id="text_12">
     <!-- µV -->
     <g style="fill: #262626" transform="translate(17.876563 201.210406)rotate(-90)scale(0.1 -0.1)">
      <defs>
       <path id="ArialMT-b5" d="M 3181 3319 
L 3181 0 
L 2678 0 
L 2678 394 
Q 2516 144 2356 50 
Q 2138 -78 1847 -78 
Q 1588 -78 1388 25 
Q 1238 103 1056 334 
L 1056 -1272 
L 500 -1272 
L 500 3319 
L 1056 3319 
L 1056 1913 
Q 1056 1147 1137 920 
Q 1219 694 1401 562 
Q 1584 431 1822 431 
Q 2072 431 2269 568 
Q 2466 706 2547 923 
Q 2628 1141 2628 1903 
L 2628 3319 
L 3181 3319 
z
" transform="scale(0.015625)"/>
       <path id="ArialMT-56" d="M 1803 0 
L 28 4581 
L 684 4581 
L 1875 1253 
Q 2019 853 2116 503 
Q 2222 878 2363 1253 
L 3600 4581 
L 4219 4581 
L 2425 0 
L 1803 0 
z
" transform="scale(0.015625)"/>
      </defs>
      <use xlink:href="#ArialMT-b5"/>
      <use xlink:href="#ArialMT-56" x="57.617188"/>
     </g>
    </g>
   </g>
   <g id="PolyCollection_1">
    <defs>
     <path id="mec5e525ec0" d="M 36.425 -72.49322 
L 36.425 -64.020789 
L 37.245234 -64.455431 
L 38.065469 -64.714034 
L 38.885703 -64.844016 
L 39.705937 -64.919617 
L 40.526171 -65.003655 
L 41.346406 -65.141811 
L 42.16664 -65.377778 
L 42.986874 -65.752204 
L 43.807108 -66.283046 
L 44.627343 -66.953862 
L 45.447577 -67.720894 
L 46.267811 -68.5265 
L 47.088046 -69.30034 
L 47.90828 -69.943083 
L 48.728514 -70.327001 
L 49.548748 -70.383135 
L 50.368983 -70.207972 
L 51.189217 -70.000008 
L 52.009451 -69.918704 
L 52.829685 -70.014665 
L 53.64992 -70.222163 
L 54.470154 -70.401486 
L 55.290388 -70.443394 
L 56.110623 -70.38349 
L 56.930857 -70.392594 
L 57.751091 -70.640296 
L 58.571325 -71.159477 
L 59.39156 -71.769132 
L 60.211794 -72.163219 
L 61.032028 -72.294139 
L 61.852262 -72.42767 
L 62.672497 -72.783725 
L 63.492731 -73.408255 
L 64.312965 -74.187547 
L 65.133199 -74.873441 
L 65.953434 -75.177222 
L 66.773668 -75.041041 
L 67.593902 -74.734917 
L 68.414137 -74.554744 
L 69.234371 -74.632085 
L 70.054605 -74.936529 
L 70.874839 -75.338924 
L 71.695074 -75.693325 
L 72.515308 -75.900207 
L 73.335542 -75.915677 
L 74.155776 -75.724671 
L 74.976011 -75.326069 
L 75.796245 -74.747567 
L 76.616479 -74.068872 
L 77.436714 -73.418744 
L 78.256948 -72.936237 
L 79.077182 -72.72031 
L 79.897416 -72.794621 
L 80.717651 -73.098351 
L 81.537885 -73.504479 
L 82.358119 -73.863906 
L 83.178353 -74.065078 
L 83.998588 -74.08165 
L 84.818822 -73.978431 
L 85.639056 -73.875631 
L 86.459291 -73.899661 
L 87.279525 -74.145456 
L 88.099759 -74.657512 
L 88.919993 -75.424494 
L 89.740228 -76.379575 
L 90.560462 -77.40545 
L 91.380696 -78.352562 
L 92.20093 -79.078159 
L 93.021165 -79.496861 
L 93.841399 -79.614369 
L 94.661633 -79.520267 
L 95.481868 -79.344014 
L 96.302102 -79.200083 
L 97.122336 -79.149922 
L 97.94257 -79.20067 
L 98.762805 -79.341011 
L 99.583039 -79.575347 
L 100.403273 -79.907945 
L 101.223507 -80.294221 
L 102.043742 -80.623419 
L 102.863976 -80.762345 
L 103.68421 -80.633699 
L 104.504444 -80.267274 
L 105.324679 -79.781759 
L 106.144913 -79.31905 
L 106.965147 -78.981148 
L 107.785382 -78.799782 
L 108.605616 -78.745836 
L 109.42585 -78.767033 
L 110.246084 -78.824834 
L 111.066319 -78.904934 
L 111.886553 -79.004701 
L 112.706787 -79.118827 
L 113.527021 -79.235217 
L 114.347256 -79.339083 
L 115.16749 -79.419687 
L 115.987724 -79.476921 
L 116.807959 -79.525967 
L 117.628193 -79.594894 
L 118.448427 -79.708949 
L 119.268661 -79.864624 
L 120.088896 -80.009684 
L 120.90913 -80.046464 
L 121.729364 -79.863155 
L 122.549598 -79.380775 
L 123.369833 -78.591684 
L 124.190067 -77.569286 
L 125.010301 -76.447747 
L 125.830536 -75.38643 
L 126.65077 -74.533873 
L 127.471004 -73.998524 
L 128.291238 -73.82866 
L 129.111473 -74.003413 
L 129.931707 -74.437487 
L 130.751941 -75.001033 
L 131.572175 -75.551742 
L 132.39241 -75.970327 
L 133.212644 -76.187903 
L 134.032878 -76.197614 
L 134.853113 -76.049965 
L 135.673347 -75.836125 
L 136.493581 -75.664741 
L 137.313815 -75.637287 
L 138.13405 -75.826532 
L 138.954284 -76.262295 
L 139.774518 -76.927388 
L 140.594752 -77.763504 
L 141.414987 -78.68274 
L 142.235221 -79.579496 
L 143.055455 -80.342841 
L 143.875689 -80.875819 
L 144.695924 -81.125232 
L 145.516158 -81.110787 
L 146.336392 -80.931613 
L 147.156627 -80.738959 
L 147.976861 -80.686334 
L 148.797095 -80.878653 
L 149.617329 -81.338591 
L 150.437564 -82.001863 
L 151.257798 -82.744374 
L 152.078032 -83.428932 
L 152.898266 -83.944525 
L 153.718501 -84.217145 
L 154.538735 -84.198332 
L 155.358969 -83.855294 
L 156.179204 -83.180273 
L 156.999438 -82.21859 
L 157.819672 -81.092671 
L 158.639906 -79.988865 
L 159.460141 -79.099945 
L 160.280375 -78.557385 
L 161.100609 -78.394501 
L 161.920843 -78.555389 
L 162.741078 -78.93397 
L 163.561312 -79.411465 
L 164.381546 -79.87218 
L 165.201781 -80.204163 
L 166.022015 -80.302818 
L 166.842249 -80.086725 
L 167.662483 -79.521984 
L 168.482718 -78.642765 
L 169.302952 -77.553165 
L 170.123186 -76.402657 
L 170.94342 -75.344085 
L 171.763655 -74.496058 
L 172.583889 -73.926905 
L 173.404123 -73.658585 
L 174.224358 -73.675114 
L 175.044592 -73.924871 
L 175.864826 -74.320985 
L 176.68506 -74.749968 
L 177.505295 -75.092473 
L 178.325529 -75.250768 
L 179.145763 -75.172191 
L 179.965997 -74.858682 
L 180.786232 -74.359619 
L 181.606466 -73.754798 
L 182.4267 -73.138946 
L 183.246935 -72.613312 
L 184.067169 -72.278644 
L 184.887403 -72.220001 
L 185.707637 -72.482697 
L 186.527872 -73.049832 
L 187.348106 -73.834804 
L 188.16834 -74.698033 
L 188.988574 -75.488217 
L 189.808809 -76.092631 
L 190.629043 -76.466275 
L 191.449277 -76.621096 
L 192.269511 -76.591958 
L 193.089746 -76.412476 
L 193.90998 -76.116578 
L 194.730214 -75.75708 
L 195.550449 -75.42076 
L 196.370683 -75.223374 
L 197.190917 -75.282519 
L 198.011151 -75.68005 
L 198.831386 -76.430656 
L 199.65162 -77.469944 
L 200.471854 -78.668326 
L 201.292088 -79.866865 
L 202.112323 -80.919377 
L 202.932557 -81.719729 
L 203.752791 -82.205445 
L 204.573026 -82.349649 
L 205.39326 -82.159194 
L 206.213494 -81.682427 
L 207.033728 -81.013286 
L 207.853963 -80.276667 
L 208.674197 -79.594633 
L 209.494431 -79.049257 
L 210.314665 -78.661239 
L 211.1349 -78.393969 
L 211.955134 -78.179192 
L 212.775368 -77.950435 
L 213.595603 -77.668873 
L 214.415837 -77.333463 
L 215.236071 -76.977268 
L 216.056305 -76.656976 
L 216.87654 -76.439866 
L 217.696774 -76.386885 
L 218.517008 -76.529728 
L 219.337242 -76.846448 
L 220.157477 -77.247737 
L 220.977711 -77.58614 
L 221.797945 -77.691324 
L 222.61818 -77.421173 
L 223.438414 -76.70872 
L 224.258648 -75.586115 
L 225.078882 -74.178879 
L 225.899117 -72.676687 
L 226.719351 -71.2922 
L 227.539585 -70.217825 
L 228.359819 -69.58729 
L 229.180054 -69.447886 
L 230.000288 -69.749658 
L 230.820522 -70.356854 
L 231.640756 -71.082062 
L 232.460991 -71.734984 
L 233.281225 -72.169901 
L 234.101459 -72.315092 
L 234.921694 -72.176284 
L 235.741928 -71.818907 
L 236.562162 -71.341474 
L 237.382396 -70.851543 
L 238.202631 -70.448894 
L 239.022865 -70.213006 
L 239.843099 -70.189721 
L 240.663333 -70.377659 
L 241.483568 -70.722673 
L 242.303802 -71.129555 
L 243.124036 -71.492492 
L 243.944271 -71.733826 
L 244.764505 -71.832392 
L 245.584739 -71.82593 
L 246.404973 -71.786985 
L 247.225208 -71.787538 
L 248.045442 -71.872326 
L 248.865676 -72.052823 
L 249.68591 -72.319548 
L 250.506145 -72.658438 
L 251.326379 -73.056318 
L 252.146613 -73.492457 
L 252.966848 -73.927562 
L 253.787082 -74.305604 
L 254.607316 -74.575056 
L 255.42755 -74.72017 
L 256.247785 -74.780479 
L 257.068019 -74.841495 
L 257.888253 -75.001991 
L 258.708487 -75.340358 
L 259.528722 -75.897057 
L 260.348956 -76.672956 
L 261.16919 -77.633263 
L 261.989425 -78.710126 
L 262.809659 -79.806948 
L 263.629893 -80.813422 
L 264.450127 -81.635259 
L 265.270362 -82.227939 
L 266.090596 -82.611764 
L 266.91083 -82.853846 
L 267.731064 -83.029592 
L 268.551299 -83.195246 
L 269.371533 -83.391332 
L 270.191767 -83.664384 
L 271.012001 -84.073633 
L 271.832236 -84.664489 
L 272.65247 -85.425772 
L 273.472704 -86.264349 
L 274.292939 -87.020091 
L 275.113173 -87.522129 
L 275.933407 -87.663977 
L 276.753641 -87.456935 
L 277.573876 -87.02789 
L 278.39411 -86.565964 
L 279.214344 -86.256481 
L 280.034578 -86.237077 
L 280.854813 -86.583242 
L 281.675047 -87.308912 
L 282.495281 -88.365893 
L 283.315516 -89.640569 
L 284.13575 -90.961371 
L 284.955984 -92.130483 
L 285.776218 -92.978286 
L 286.596453 -93.420628 
L 287.416687 -93.491165 
L 288.236921 -93.332494 
L 289.057155 -93.152083 
L 289.87739 -93.163753 
L 290.697624 -93.53457 
L 291.517858 -94.348527 
L 292.338093 -95.591588 
L 293.158327 -97.159209 
L 293.978561 -98.884753 
L 294.798795 -100.583392 
L 295.61903 -102.100838 
L 296.439264 -103.352425 
L 297.259498 -104.340039 
L 298.079732 -105.142811 
L 298.899967 -105.886996 
L 299.720201 -106.70576 
L 300.540435 -107.700029 
L 301.36067 -108.90937 
L 302.180904 -110.298651 
L 303.001138 -111.762438 
L 303.821372 -113.145871 
L 304.641607 -114.278898 
L 305.461841 -115.018913 
L 306.282075 -115.292123 
L 307.102309 -115.118048 
L 307.922544 -114.603614 
L 308.742778 -113.907851 
L 309.563012 -113.194066 
L 310.383247 -112.589747 
L 311.203481 -112.166402 
L 312.023715 -111.9404 
L 312.843949 -111.887329 
L 313.664184 -111.959915 
L 314.484418 -112.103805 
L 315.304652 -112.272047 
L 316.124886 -112.440315 
L 316.945121 -112.619205 
L 317.765355 -112.854869 
L 318.585589 -113.212616 
L 319.405823 -113.748383 
L 320.226058 -114.481119 
L 321.046292 -115.379568 
L 321.866526 -116.370704 
L 322.686761 -117.367293 
L 323.506995 -118.301968 
L 324.327229 -119.150061 
L 325.147463 -119.929317 
L 325.967698 -120.679341 
L 326.787932 -121.435032 
L 327.608166 -122.208435 
L 328.4284 -122.98567 
L 329.248635 -123.736922 
L 330.068869 -124.431642 
L 330.889103 -125.04963 
L 331.709338 -125.582393 
L 332.529572 -126.026495 
L 333.349806 -126.376959 
L 334.17004 -126.6299 
L 334.990275 -126.797343 
L 335.810509 -126.924502 
L 336.630743 -127.090747 
L 337.450977 -127.38501 
L 338.271212 -127.868614 
L 339.091446 -128.548506 
L 339.91168 -129.374649 
L 340.731915 -130.259387 
L 341.552149 -131.107081 
L 342.372383 -131.841028 
L 343.192617 -132.419656 
L 344.012852 -132.841127 
L 344.833086 -133.139991 
L 345.65332 -133.379565 
L 346.473554 -133.640936 
L 347.293789 -134.007872 
L 348.114023 -134.548343 
L 348.934257 -135.296863 
L 349.754492 -136.244249 
L 350.574726 -137.339652 
L 351.39496 -138.504164 
L 352.215194 -139.650097 
L 353.035429 -140.698423 
L 353.855663 -141.590324 
L 354.675897 -142.293207 
L 355.496131 -142.803207 
L 356.316366 -143.14454 
L 357.1366 -143.36386 
L 357.956834 -143.518276 
L 358.777068 -143.659125 
L 359.597303 -143.817176 
L 360.417537 -143.995791 
L 361.237771 -144.175601 
L 362.058006 -144.328861 
L 362.87824 -144.436799 
L 363.698474 -144.502345 
L 364.518708 -144.554271 
L 365.338943 -144.643988 
L 366.159177 -144.83862 
L 366.979411 -145.212588 
L 367.799645 -145.837119 
L 368.61988 -146.766034 
L 369.440114 -148.018216 
L 370.260348 -149.560963 
L 371.080583 -151.301599 
L 371.900817 -153.094432 
L 372.721051 -154.765684 
L 373.541285 -156.151069 
L 374.36152 -157.134051 
L 375.181754 -157.672084 
L 376.001988 -157.803913 
L 376.822222 -157.638562 
L 377.642457 -157.331001 
L 378.462691 -157.04997 
L 379.282925 -156.943202 
L 380.10316 -157.106107 
L 380.923394 -157.560955 
L 381.743628 -158.252704 
L 382.563862 -159.063875 
L 383.384097 -159.845389 
L 384.204331 -160.455581 
L 385.024565 -160.797365 
L 385.844799 -160.845428 
L 386.665034 -160.657749 
L 387.485268 -160.368196 
L 388.305502 -160.159487 
L 389.125737 -160.220073 
L 389.945971 -160.694147 
L 390.766205 -161.638243 
L 391.586439 -162.997747 
L 392.406674 -164.611563 
L 393.226908 -166.244781 
L 394.047142 -167.640786 
L 394.867376 -168.579166 
L 395.687611 -168.925491 
L 396.507845 -168.662541 
L 397.328079 -167.89764 
L 398.148313 -166.844888 
L 398.968548 -165.784209 
L 399.788782 -165.002909 
L 400.609016 -164.731062 
L 401.429251 -165.0868 
L 402.249485 -166.047402 
L 403.069719 -167.45551 
L 403.889953 -169.059203 
L 404.710188 -170.57459 
L 405.530422 -171.753287 
L 406.350656 -172.437442 
L 407.17089 -172.589756 
L 407.991125 -172.293936 
L 408.811359 -171.728462 
L 409.631593 -171.121738 
L 410.451828 -170.699422 
L 411.272062 -170.635681 
L 412.092296 -171.019184 
L 412.91253 -171.840984 
L 413.732765 -173.005579 
L 414.552999 -174.360322 
L 414.552999 -253.35789 
L 414.552999 -253.35789 
L 413.732765 -251.893395 
L 412.91253 -250.518247 
L 412.092296 -249.434647 
L 411.272062 -248.794522 
L 410.451828 -248.661244 
L 409.631593 -248.989687 
L 408.811359 -249.630216 
L 407.991125 -250.35756 
L 407.17089 -250.919221 
L 406.350656 -251.091898 
L 405.530422 -250.731404 
L 404.710188 -249.803691 
L 403.889953 -248.390421 
L 403.069719 -246.669414 
L 402.249485 -244.875652 
L 401.429251 -243.251692 
L 400.609016 -241.99709 
L 399.788782 -241.226188 
L 398.968548 -240.94229 
L 398.148313 -241.034454 
L 397.328079 -241.299941 
L 396.507845 -241.489673 
L 395.687611 -241.366749 
L 394.867376 -240.762222 
L 394.047142 -239.611953 
L 393.226908 -237.964872 
L 392.406674 -235.963057 
L 391.586439 -233.802684 
L 390.766205 -231.688383 
L 389.945971 -229.792191 
L 389.125737 -228.224572 
L 388.305502 -227.021246 
L 387.485268 -226.14675 
L 386.665034 -225.513164 
L 385.844799 -225.009642 
L 385.024565 -224.534959 
L 384.204331 -224.023246 
L 383.384097 -223.454785 
L 382.563862 -222.849389 
L 381.743628 -222.246648 
L 380.923394 -221.681544 
L 380.10316 -221.164207 
L 379.282925 -220.669964 
L 378.462691 -220.141858 
L 377.642457 -219.504331 
L 376.822222 -218.684244 
L 376.001988 -217.633471 
L 375.181754 -216.346168 
L 374.36152 -214.864352 
L 373.541285 -213.268586 
L 372.721051 -211.656654 
L 371.900817 -210.119153 
L 371.080583 -208.721681 
L 370.260348 -207.497832 
L 369.440114 -206.450643 
L 368.61988 -205.557742 
L 367.799645 -204.777375 
L 366.979411 -204.055423 
L 366.159177 -203.334788 
L 365.338943 -202.56706 
L 364.518708 -201.723579 
L 363.698474 -200.80103 
L 362.87824 -199.817801 
L 362.058006 -198.801388 
L 361.237771 -197.772315 
L 360.417537 -196.732551 
L 359.597303 -195.663894 
L 358.777068 -194.535848 
L 357.956834 -193.317586 
L 357.1366 -191.987798 
L 356.316366 -190.539215 
L 355.496131 -188.978832 
L 354.675897 -187.327186 
L 353.855663 -185.619162 
L 353.035429 -183.905459 
L 352.215194 -182.251087 
L 351.39496 -180.72788 
L 350.574726 -179.402075 
L 349.754492 -178.321708 
L 348.934257 -177.508262 
L 348.114023 -176.953266 
L 347.293789 -176.617497 
L 346.473554 -176.43084 
L 345.65332 -176.29419 
L 344.833086 -176.087243 
L 344.012852 -175.684994 
L 343.192617 -174.980751 
L 342.372383 -173.908369 
L 341.552149 -172.455568 
L 340.731915 -170.664471 
L 339.91168 -168.621605 
L 339.091446 -166.443483 
L 338.271212 -164.2632 
L 337.450977 -162.218874 
L 336.630743 -160.440152 
L 335.810509 -159.028047 
L 334.990275 -158.029142 
L 334.17004 -157.415865 
L 333.349806 -157.090613 
L 332.529572 -156.919238 
L 331.709338 -156.776913 
L 330.889103 -156.581131 
L 330.068869 -156.298677 
L 329.248635 -155.930546 
L 328.4284 -155.488789 
L 327.608166 -154.979669 
L 326.787932 -154.400672 
L 325.967698 -153.749317 
L 325.147463 -153.03529 
L 324.327229 -152.286202 
L 323.506995 -151.540742 
L 322.686761 -150.830665 
L 321.866526 -150.162188 
L 321.046292 -149.510167 
L 320.226058 -148.830123 
L 319.405823 -148.080649 
L 318.585589 -147.243239 
L 317.765355 -146.330381 
L 316.945121 -145.380332 
L 316.124886 -144.443705 
L 315.304652 -143.570697 
L 314.484418 -142.805908 
L 313.664184 -142.190167 
L 312.843949 -141.761305 
L 312.023715 -141.54667 
L 311.203481 -141.549338 
L 310.383247 -141.738043 
L 309.563012 -142.049951 
L 308.742778 -142.406869 
L 307.922544 -142.737114 
L 307.102309 -142.992121 
L 306.282075 -143.150017 
L 305.461841 -143.206704 
L 304.641607 -143.163908 
L 303.821372 -143.023978 
L 303.001138 -142.791112 
L 302.180904 -142.470945 
L 301.36067 -142.064216 
L 300.540435 -141.558459 
L 299.720201 -140.924858 
L 298.899967 -140.124636 
L 298.079732 -139.124065 
L 297.259498 -137.912651 
L 296.439264 -136.517121 
L 295.61903 -135.005097 
L 294.798795 -133.476324 
L 293.978561 -132.044392 
L 293.158327 -130.814906 
L 292.338093 -129.86484 
L 291.517858 -129.225724 
L 290.697624 -128.873661 
L 289.87739 -128.7305 
L 289.057155 -128.678839 
L 288.236921 -128.588456 
L 287.416687 -128.345894 
L 286.596453 -127.876259 
L 285.776218 -127.150576 
L 284.955984 -126.182367 
L 284.13575 -125.024138 
L 283.315516 -123.768605 
L 282.495281 -122.546062 
L 281.675047 -121.50512 
L 280.854813 -120.774548 
L 280.034578 -120.420484 
L 279.214344 -120.422821 
L 278.39411 -120.687223 
L 277.573876 -121.086806 
L 276.753641 -121.506554 
L 275.933407 -121.861928 
L 275.113173 -122.084997 
L 274.292939 -122.102635 
L 273.472704 -121.840388 
L 272.65247 -121.25743 
L 271.832236 -120.384848 
L 271.012001 -119.336314 
L 270.191767 -118.279289 
L 269.371533 -117.37667 
L 268.551299 -116.72717 
L 267.731064 -116.339238 
L 266.91083 -116.15302 
L 266.090596 -116.087504 
L 265.270362 -116.073845 
L 264.450127 -116.05667 
L 263.629893 -115.978209 
L 262.809659 -115.773125 
L 261.989425 -115.385335 
L 261.16919 -114.792601 
L 260.348956 -114.018462 
L 259.528722 -113.124095 
L 258.708487 -112.188183 
L 257.888253 -111.288434 
L 257.068019 -110.492363 
L 256.247785 -109.853502 
L 255.42755 -109.403308 
L 254.607316 -109.13626 
L 253.787082 -109.000612 
L 252.966848 -108.911531 
L 252.146613 -108.786388 
L 251.326379 -108.58105 
L 250.506145 -108.303643 
L 249.68591 -107.997983 
L 248.865676 -107.708217 
L 248.045442 -107.447201 
L 247.225208 -107.187261 
L 246.404973 -106.87575 
L 245.584739 -106.462008 
L 244.764505 -105.9186 
L 243.944271 -105.247559 
L 243.124036 -104.474334 
L 242.303802 -103.639921 
L 241.483568 -102.799408 
L 240.663333 -102.024835 
L 239.843099 -101.402095 
L 239.022865 -101.01364 
L 238.202631 -100.908968 
L 237.382396 -101.076082 
L 236.562162 -101.43139 
L 235.741928 -101.838251 
L 234.921694 -102.148871 
L 234.101459 -102.251751 
L 233.281225 -102.105324 
L 232.460991 -101.746844 
L 231.640756 -101.277481 
L 230.820522 -100.833242 
L 230.000288 -100.552655 
L 229.180054 -100.547594 
L 228.359819 -100.879332 
L 227.539585 -101.54216 
L 226.719351 -102.459383 
L 225.899117 -103.496317 
L 225.078882 -104.489841 
L 224.258648 -105.286911 
L 223.438414 -105.779494 
L 222.61818 -105.924221 
L 221.797945 -105.742553 
L 220.977711 -105.307004 
L 220.157477 -104.723194 
L 219.337242 -104.112928 
L 218.517008 -103.596553 
L 217.696774 -103.27199 
L 216.87654 -103.193195 
L 216.056305 -103.356766 
L 215.236071 -103.706037 
L 214.415837 -104.154561 
L 213.595603 -104.619045 
L 212.775368 -105.045162 
L 211.955134 -105.414628 
L 211.1349 -105.73443 
L 210.314665 -106.01932 
L 209.494431 -106.279311 
L 208.674197 -106.516144 
L 207.853963 -106.724689 
L 207.033728 -106.892961 
L 206.213494 -106.998233 
L 205.39326 -107.003707 
L 204.573026 -106.865161 
L 203.752791 -106.552325 
L 202.932557 -106.075167 
L 202.112323 -105.494567 
L 201.292088 -104.903669 
L 200.471854 -104.38778 
L 199.65162 -103.988776 
L 198.831386 -103.695752 
L 198.011151 -103.461775 
L 197.190917 -103.230599 
L 196.370683 -102.957499 
L 195.550449 -102.616643 
L 194.730214 -102.195254 
L 193.90998 -101.681689 
L 193.089746 -101.058988 
L 192.269511 -100.312768 
L 191.449277 -99.450947 
L 190.629043 -98.520548 
L 189.808809 -97.604241 
L 188.988574 -96.790793 
L 188.16834 -96.136078 
L 187.348106 -95.646582 
L 186.527872 -95.299903 
L 185.707637 -95.081932 
L 184.887403 -95.010664 
L 184.067169 -95.133215 
L 183.246935 -95.499883 
L 182.4267 -96.128981 
L 181.606466 -96.980895 
L 180.786232 -97.955643 
L 179.965997 -98.913808 
L 179.145763 -99.707656 
L 178.325529 -100.209479 
L 177.505295 -100.333518 
L 176.68506 -100.053628 
L 175.864826 -99.416504 
L 175.044592 -98.544883 
L 174.224358 -97.623266 
L 173.404123 -96.862774 
L 172.583889 -96.450604 
L 171.763655 -96.500169 
L 170.94342 -97.022914 
L 170.123186 -97.932884 
L 169.302952 -99.075036 
L 168.482718 -100.25781 
L 167.662483 -101.279531 
L 166.842249 -101.953275 
L 166.022015 -102.138411 
L 165.201781 -101.776319 
L 164.381546 -100.916066 
L 163.561312 -99.714355 
L 162.741078 -98.402155 
L 161.920843 -97.224037 
L 161.100609 -96.372224 
L 160.280375 -95.946176 
L 159.460141 -95.954708 
L 158.639906 -96.346912 
L 157.819672 -97.041095 
L 156.999438 -97.931402 
L 156.179204 -98.878079 
L 155.358969 -99.710916 
L 154.538735 -100.267887 
L 153.718501 -100.451807 
L 152.898266 -100.26599 
L 152.078032 -99.805637 
L 151.257798 -99.209202 
L 150.437564 -98.596527 
L 149.617329 -98.028865 
L 148.797095 -97.507691 
L 147.976861 -96.999779 
L 147.156627 -96.465997 
L 146.336392 -95.880564 
L 145.516158 -95.237487 
L 144.695924 -94.546151 
L 143.875689 -93.82335 
L 143.055455 -93.09307 
L 142.235221 -92.39859 
L 141.414987 -91.813892 
L 140.594752 -91.43615 
L 139.774518 -91.356699 
L 138.954284 -91.625286 
L 138.13405 -92.225634 
L 137.313815 -93.071496 
L 136.493581 -94.022199 
L 135.673347 -94.911813 
L 134.853113 -95.584791 
L 134.032878 -95.930127 
L 133.212644 -95.905772 
L 132.39241 -95.546504 
L 131.572175 -94.95271 
L 130.751941 -94.264081 
L 129.931707 -93.627407 
L 129.111473 -93.167487 
L 128.291238 -92.965758 
L 127.471004 -93.047799 
L 126.65077 -93.381095 
L 125.830536 -93.885242 
L 125.010301 -94.454367 
L 124.190067 -94.986234 
L 123.369833 -95.407858 
L 122.549598 -95.687528 
L 121.729364 -95.829956 
L 120.90913 -95.862742 
L 120.088896 -95.827837 
L 119.268661 -95.782001 
L 118.448427 -95.795953 
L 117.628193 -95.940596 
L 116.807959 -96.259635 
L 115.987724 -96.740626 
L 115.16749 -97.303235 
L 114.347256 -97.816742 
L 113.527021 -98.140995 
L 112.706787 -98.172637 
L 111.886553 -97.879856 
L 111.066319 -97.316019 
L 110.246084 -96.607493 
L 109.42585 -95.9146 
L 108.605616 -95.373181 
L 107.785382 -95.040593 
L 106.965147 -94.878736 
L 106.144913 -94.785438 
L 105.324679 -94.650961 
L 104.504444 -94.406211 
L 103.68421 -94.04103 
L 102.863976 -93.586312 
L 102.043742 -93.077255 
L 101.223507 -92.539013 
L 100.403273 -92.014803 
L 99.583039 -91.599815 
L 98.762805 -91.430205 
L 97.94257 -91.614593 
L 97.122336 -92.151527 
L 96.302102 -92.906965 
L 95.481868 -93.671646 
L 94.661633 -94.244785 
L 93.841399 -94.493671 
L 93.021165 -94.374227 
L 92.20093 -93.917513 
L 91.380696 -93.199275 
L 90.560462 -92.314859 
L 89.740228 -91.368185 
L 88.919993 -90.462622 
L 88.099759 -89.681172 
L 87.279525 -89.061771 
L 86.459291 -88.586014 
L 85.639056 -88.193188 
L 84.818822 -87.813826 
L 83.998588 -87.403409 
L 83.178353 -86.956176 
L 82.358119 -86.492097 
L 81.537885 -86.032418 
L 80.717651 -85.589628 
L 79.897416 -85.177067 
L 79.077182 -84.819531 
L 78.256948 -84.551251 
L 77.436714 -84.403853 
L 76.616479 -84.391221 
L 75.796245 -84.494219 
L 74.976011 -84.650266 
L 74.155776 -84.763001 
L 73.335542 -84.742499 
L 72.515308 -84.554744 
L 71.695074 -84.239253 
L 70.874839 -83.87327 
L 70.054605 -83.506828 
L 69.234371 -83.127876 
L 68.414137 -82.688083 
L 67.593902 -82.16437 
L 66.773668 -81.624056 
L 65.953434 -81.250168 
L 65.133199 -81.18777 
L 64.312965 -81.28107 
L 63.492731 -81.20106 
L 62.672497 -80.730828 
L 61.852262 -79.853091 
L 61.032028 -78.750917 
L 60.211794 -77.786709 
L 59.39156 -77.338312 
L 58.571325 -77.413721 
L 57.751091 -77.696561 
L 56.930857 -77.938146 
L 56.110623 -78.068894 
L 55.290388 -78.15033 
L 54.470154 -78.266723 
L 53.64992 -78.405927 
L 52.829685 -78.452827 
L 52.009451 -78.2928 
L 51.189217 -77.895855 
L 50.368983 -77.336928 
L 49.548748 -76.772829 
L 48.728514 -76.368828 
L 47.90828 -76.167038 
L 47.088046 -76.042391 
L 46.267811 -75.832629 
L 45.447577 -75.445114 
L 44.627343 -74.866639 
L 43.807108 -74.141943 
L 42.986874 -73.35535 
L 42.16664 -72.615073 
L 41.346406 -72.029781 
L 40.526171 -71.673805 
L 39.705937 -71.558638 
L 38.885703 -71.640205 
L 38.065469 -71.857428 
L 37.245234 -72.158366 
L 36.425 -72.49322 
z
" style="stroke: #e41a1c; stroke-opacity: 0.3"/>
    </defs>
    <g clip-path="url(#pca08ddfa20)">
     <use xlink:href="#mec5e525ec0" x="0" y="360" style="fill: #e41a1c; fill-opacity: 0.3; stroke: #e41a1c; stroke-opacity: 0.3"/>
    </g>
   </g>
   <g id="PolyCollection_2">
    <defs>
     <path id="mcae5d18a7e" d="M 36.425 -73.952304 
L 36.425 -65.70901 
L 37.245234 -65.933291 
L 38.065469 -66.095764 
L 38.885703 -66.22431 
L 39.705937 -66.350347 
L 40.526171 -66.50456 
L 41.346406 -66.714178 
L 42.16664 -66.998551 
L 42.986874 -67.363499 
L 43.807108 -67.798823 
L 44.627343 -68.283947 
L 45.447577 -68.801306 
L 46.267811 -69.347047 
L 47.088046 -69.926421 
L 47.90828 -70.53644 
L 48.728514 -71.150998 
L 49.548748 -71.719168 
L 50.368983 -72.180904 
L 51.189217 -72.497375 
L 52.009451 -72.671744 
L 52.829685 -72.737346 
L 53.64992 -72.733001 
L 54.470154 -72.690699 
L 55.290388 -72.634631 
L 56.110623 -72.583389 
L 56.930857 -72.551785 
L 57.751091 -72.551966 
L 58.571325 -72.594026 
L 59.39156 -72.685855 
L 60.211794 -72.832533 
L 61.032028 -73.037236 
L 61.852262 -73.304297 
L 62.672497 -73.638659 
L 63.492731 -74.036042 
L 64.312965 -74.469841 
L 65.133199 -74.888367 
L 65.953434 -75.232951 
L 66.773668 -75.470187 
L 67.593902 -75.610345 
L 68.414137 -75.696993 
L 69.234371 -75.782057 
L 70.054605 -75.902551 
L 70.874839 -76.065321 
L 71.695074 -76.242695 
L 72.515308 -76.381546 
L 73.335542 -76.425015 
L 74.155776 -76.337472 
L 74.976011 -76.117139 
L 75.796245 -75.791365 
L 76.616479 -75.40644 
L 77.436714 -75.022496 
L 78.256948 -74.710844 
L 79.077182 -74.546209 
L 79.897416 -74.591752 
L 80.717651 -74.881507 
L 81.537885 -75.40725 
L 82.358119 -76.115477 
L 83.178353 -76.917525 
L 83.998588 -77.71184 
L 84.818822 -78.410563 
L 85.639056 -78.957566 
L 86.459291 -79.331239 
L 87.279525 -79.537561 
L 88.099759 -79.601884 
L 88.919993 -79.562742 
L 89.740228 -79.467737 
L 90.560462 -79.371145 
L 91.380696 -79.331906 
L 92.20093 -79.408621 
L 93.021165 -79.64837 
L 93.841399 -80.070672 
L 94.661633 -80.654065 
L 95.481868 -81.33488 
L 96.302102 -82.023124 
L 97.122336 -82.629934 
L 97.94257 -83.092058 
L 98.762805 -83.381374 
L 99.583039 -83.500243 
L 100.403273 -83.47185 
L 101.223507 -83.332502 
L 102.043742 -83.127106 
L 102.863976 -82.905863 
L 103.68421 -82.719359 
L 104.504444 -82.610583 
L 105.324679 -82.605372 
L 106.144913 -82.705717 
L 106.965147 -82.890202 
L 107.785382 -83.121975 
L 108.605616 -83.360438 
L 109.42585 -83.571807 
L 110.246084 -83.735878 
L 111.066319 -83.848849 
L 111.886553 -83.923144 
L 112.706787 -83.984811 
L 113.527021 -84.068178 
L 114.347256 -84.206882 
L 115.16749 -84.421371 
L 115.987724 -84.706002 
L 116.807959 -85.021936 
L 117.628193 -85.301711 
L 118.448427 -85.466433 
L 119.268661 -85.449567 
L 120.088896 -85.21729 
L 120.90913 -84.777473 
L 121.729364 -84.175806 
L 122.549598 -83.483346 
L 123.369833 -82.781695 
L 124.190067 -82.150264 
L 125.010301 -81.656382 
L 125.830536 -81.346229 
L 126.65077 -81.235494 
L 127.471004 -81.303129 
L 128.291238 -81.494505 
L 129.111473 -81.737054 
L 129.931707 -81.963755 
L 130.751941 -82.134003 
L 131.572175 -82.242897 
L 132.39241 -82.317181 
L 133.212644 -82.402465 
L 134.032878 -82.547675 
L 134.853113 -82.790456 
L 135.673347 -83.145254 
L 136.493581 -83.595908 
L 137.313815 -84.095567 
L 138.13405 -84.576257 
L 138.954284 -84.966949 
L 139.774518 -85.213998 
L 140.594752 -85.295467 
L 141.414987 -85.224453 
L 142.235221 -85.043645 
L 143.055455 -84.816834 
L 143.875689 -84.619638 
L 144.695924 -84.526651 
L 145.516158 -84.593002 
L 146.336392 -84.834731 
L 147.156627 -85.217588 
L 147.976861 -85.66276 
L 148.797095 -86.071194 
L 149.617329 -86.358519 
L 150.437564 -86.484836 
L 151.257798 -86.464495 
L 152.078032 -86.353352 
L 152.898266 -86.22468 
L 153.718501 -86.147726 
L 154.538735 -86.174902 
L 155.358969 -86.334976 
L 156.179204 -86.62767 
L 156.999438 -87.01961 
L 157.819672 -87.446707 
L 158.639906 -87.82768 
L 159.460141 -88.086846 
L 160.280375 -88.176767 
L 161.100609 -88.089861 
L 161.920843 -87.855026 
L 162.741078 -87.524414 
L 163.561312 -87.158721 
L 164.381546 -86.815734 
L 165.201781 -86.541611 
L 166.022015 -86.362646 
L 166.842249 -86.277622 
L 167.662483 -86.25429 
L 168.482718 -86.234474 
L 169.302952 -86.14941 
L 170.123186 -85.941441 
L 170.94342 -85.583189 
L 171.763655 -85.08512 
L 172.583889 -84.488446 
L 173.404123 -83.848109 
L 174.224358 -83.214136 
L 175.044592 -82.617893 
L 175.864826 -82.066139 
L 176.68506 -81.542975 
L 177.505295 -81.018241 
L 178.325529 -80.459891 
L 179.145763 -79.846992 
L 179.965997 -79.179576 
L 180.786232 -78.482245 
L 181.606466 -77.800399 
L 182.4267 -77.190332 
L 183.246935 -76.706019 
L 184.067169 -76.385774 
L 184.887403 -76.241717 
L 185.707637 -76.254489 
L 186.527872 -76.374808 
L 187.348106 -76.532283 
L 188.16834 -76.650415 
L 188.988574 -76.665008 
L 189.808809 -76.541213 
L 190.629043 -76.283024 
L 191.449277 -75.930767 
L 192.269511 -75.547588 
L 193.089746 -75.200953 
L 193.90998 -74.945951 
L 194.730214 -74.814558 
L 195.550449 -74.812247 
L 196.370683 -74.921403 
L 197.190917 -75.109815 
L 198.011151 -75.341693 
L 198.831386 -75.588573 
L 199.65162 -75.837973 
L 200.471854 -76.098133 
L 201.292088 -76.397212 
L 202.112323 -76.77579 
L 202.932557 -77.273534 
L 203.752791 -77.913746 
L 204.573026 -78.691133 
L 205.39326 -79.567395 
L 206.213494 -80.476563 
L 207.033728 -81.338693 
L 207.853963 -82.077459 
L 208.674197 -82.635886 
L 209.494431 -82.985761 
L 210.314665 -83.129527 
L 211.1349 -83.09612 
L 211.955134 -82.932494 
L 212.775368 -82.691941 
L 213.595603 -82.42082 
L 214.415837 -82.14699 
L 215.236071 -81.873913 
L 216.056305 -81.582733 
L 216.87654 -81.241252 
L 217.696774 -80.815475 
L 218.517008 -80.278881 
L 219.337242 -79.617438 
L 220.157477 -78.831957 
L 220.977711 -77.940062 
L 221.797945 -76.977328 
L 222.61818 -75.994389 
L 223.438414 -75.047749 
L 224.258648 -74.186155 
L 225.078882 -73.437997 
L 225.899117 -72.805359 
L 226.719351 -72.267156 
L 227.539585 -71.789193 
L 228.359819 -71.335548 
L 229.180054 -70.875929 
L 230.000288 -70.387799 
L 230.820522 -69.856144 
L 231.640756 -69.273706 
L 232.460991 -68.641513 
L 233.281225 -67.967846 
L 234.101459 -67.265221 
L 234.921694 -66.547464 
L 235.741928 -65.829501 
L 236.562162 -65.12968 
L 237.382396 -64.470549 
L 238.202631 -63.873766 
L 239.022865 -63.350138 
L 239.843099 -62.891538 
L 240.663333 -62.471261 
L 241.483568 -62.053588 
L 242.303802 -61.60739 
L 243.124036 -61.116417 
L 243.944271 -60.581959 
L 244.764505 -60.018924 
L 245.584739 -59.449726 
L 246.404973 -58.899362 
L 247.225208 -58.391712 
L 248.045442 -57.945212 
L 248.865676 -57.56767 
L 249.68591 -57.253159 
L 250.506145 -56.984948 
L 251.326379 -56.745195 
L 252.146613 -56.526778 
L 252.966848 -56.339813 
L 253.787082 -56.208589 
L 254.607316 -56.161264 
L 255.42755 -56.218805 
L 256.247785 -56.388249 
L 257.068019 -56.661142 
L 257.888253 -57.014815 
L 258.708487 -57.414275 
L 259.528722 -57.814785 
L 260.348956 -58.167259 
L 261.16919 -58.428205 
L 261.989425 -58.57302 
L 262.809659 -58.607625 
L 263.629893 -58.571837 
L 264.450127 -58.530962 
L 265.270362 -58.558308 
L 266.090596 -58.715278 
L 266.91083 -59.034939 
L 267.731064 -59.512212 
L 268.551299 -60.10209 
L 269.371533 -60.726608 
L 270.191767 -61.29035 
L 271.012001 -61.702514 
L 271.832236 -61.901034 
L 272.65247 -61.871645 
L 273.472704 -61.654108 
L 274.292939 -61.332301 
L 275.113173 -61.012408 
L 275.933407 -60.797384 
L 276.753641 -60.76424 
L 277.573876 -60.947746 
L 278.39411 -61.332751 
L 279.214344 -61.85659 
L 280.034578 -62.421745 
L 280.854813 -62.917129 
L 281.675047 -63.24448 
L 282.495281 -63.344358 
L 283.315516 -63.214185 
L 284.13575 -62.910774 
L 284.955984 -62.535053 
L 285.776218 -62.204628 
L 286.596453 -62.023898 
L 287.416687 -62.05985 
L 288.236921 -62.328242 
L 289.057155 -62.791902 
L 289.87739 -63.370474 
L 290.697624 -63.958741 
L 291.517858 -64.449437 
L 292.338093 -64.756565 
L 293.158327 -64.835785 
L 293.978561 -64.697391 
L 294.798795 -64.406087 
L 295.61903 -64.06486 
L 296.439264 -63.787596 
L 297.259498 -63.670013 
L 298.079732 -63.767669 
L 298.899967 -64.086138 
L 299.720201 -64.584512 
L 300.540435 -65.18994 
L 301.36067 -65.818032 
L 302.180904 -66.392768 
L 303.001138 -66.860985 
L 303.821372 -67.199964 
L 304.641607 -67.418699 
L 305.461841 -67.552757 
L 306.282075 -67.65261 
L 307.102309 -67.768233 
L 307.922544 -67.935279 
L 308.742778 -68.167321 
L 309.563012 -68.455457 
L 310.383247 -68.773662 
L 311.203481 -69.087059 
L 312.023715 -69.360805 
L 312.843949 -69.568693 
L 313.664184 -69.701124 
L 314.484418 -69.770688 
L 315.304652 -69.811231 
L 316.124886 -69.867388 
L 316.945121 -69.978217 
L 317.765355 -70.164392 
L 318.585589 -70.425923 
L 319.405823 -70.748889 
L 320.226058 -71.113811 
L 321.046292 -71.499906 
L 321.866526 -71.885914 
L 322.686761 -72.252261 
L 323.506995 -72.58721 
L 324.327229 -72.893508 
L 325.147463 -73.188239 
L 325.967698 -73.492414 
L 326.787932 -73.815481 
L 327.608166 -74.144599 
L 328.4284 -74.445417 
L 329.248635 -74.67419 
L 330.068869 -74.794647 
L 330.889103 -74.790387 
L 331.709338 -74.667772 
L 332.529572 -74.453222 
L 333.349806 -74.192729 
L 334.17004 -73.953488 
L 334.990275 -73.818172 
L 335.810509 -73.866755 
L 336.630743 -74.153023 
L 337.450977 -74.686986 
L 338.271212 -75.429338 
L 339.091446 -76.298659 
L 339.91168 -77.189542 
L 340.731915 -77.9984 
L 341.552149 -78.650162 
L 342.372383 -79.113893 
L 343.192617 -79.398572 
L 344.012852 -79.53528 
L 344.833086 -79.561121 
L 345.65332 -79.513111 
L 346.473554 -79.429643 
L 347.293789 -79.352966 
L 348.114023 -79.327421 
L 348.934257 -79.391971 
L 349.754492 -79.569496 
L 350.574726 -79.857581 
L 351.39496 -80.225462 
L 352.215194 -80.619851 
L 353.035429 -80.978623 
L 353.855663 -81.247287 
L 354.675897 -81.391712 
L 355.496131 -81.403359 
L 356.316366 -81.297878 
L 357.1366 -81.110164 
L 357.956834 -80.888381 
L 358.777068 -80.687896 
L 359.597303 -80.564474 
L 360.417537 -80.565242 
L 361.237771 -80.717118 
L 362.058006 -81.015954 
L 362.87824 -81.422696 
L 363.698474 -81.871248 
L 364.518708 -82.286389 
L 365.338943 -82.60427 
L 366.159177 -82.787366 
L 366.979411 -82.830019 
L 367.799645 -82.755519 
L 368.61988 -82.608115 
L 369.440114 -82.443103 
L 370.260348 -82.316195 
L 371.080583 -82.271417 
L 371.900817 -82.327559 
L 372.721051 -82.467014 
L 373.541285 -82.633799 
L 374.36152 -82.745185 
L 375.181754 -82.714858 
L 376.001988 -82.479217 
L 376.822222 -82.016747 
L 377.642457 -81.353886 
L 378.462691 -80.557276 
L 379.282925 -79.717624 
L 380.10316 -78.932057 
L 380.923394 -78.289159 
L 381.743628 -77.856343 
L 382.563862 -77.667666 
L 383.384097 -77.713905 
L 384.204331 -77.941263 
L 385.024565 -78.263801 
L 385.844799 -78.587641 
L 386.665034 -78.837781 
L 387.485268 -78.976406 
L 388.305502 -79.006184 
L 389.125737 -78.95975 
L 389.945971 -78.882294 
L 390.766205 -78.815211 
L 391.586439 -78.786302 
L 392.406674 -78.807953 
L 393.226908 -78.881087 
L 394.047142 -79.000937 
L 394.867376 -79.161577 
L 395.687611 -79.358418 
L 396.507845 -79.589155 
L 397.328079 -79.853566 
L 398.148313 -80.152249 
L 398.968548 -80.48462 
L 399.788782 -80.846808 
L 400.609016 -81.229742 
L 401.429251 -81.617342 
L 402.249485 -81.985287 
L 403.069719 -82.302249 
L 403.889953 -82.535835 
L 404.710188 -82.663227 
L 405.530422 -82.68233 
L 406.350656 -82.616925 
L 407.17089 -82.511855 
L 407.991125 -82.419902 
L 408.811359 -82.386213 
L 409.631593 -82.436348 
L 410.451828 -82.571282 
L 411.272062 -82.76933 
L 412.092296 -82.992777 
L 412.91253 -83.196566 
L 413.732765 -83.337416 
L 414.552999 -83.382928 
L 414.552999 -104.247841 
L 414.552999 -104.247841 
L 413.732765 -104.235946 
L 412.91253 -104.243688 
L 412.092296 -104.254046 
L 411.272062 -104.251899 
L 410.451828 -104.222376 
L 409.631593 -104.148718 
L 408.811359 -104.012707 
L 407.991125 -103.798571 
L 407.17089 -103.498636 
L 406.350656 -103.117499 
L 405.530422 -102.672135 
L 404.710188 -102.187538 
L 403.889953 -101.690348 
L 403.069719 -101.20413 
L 402.249485 -100.747934 
L 401.429251 -100.336302 
L 400.609016 -99.977743 
L 399.788782 -99.671301 
L 398.968548 -99.404058 
L 398.148313 -99.153156 
L 397.328079 -98.893447 
L 396.507845 -98.60822 
L 395.687611 -98.298393 
L 394.867376 -97.985966 
L 394.047142 -97.709531 
L 393.226908 -97.512323 
L 392.406674 -97.425931 
L 391.586439 -97.455176 
L 390.766205 -97.570412 
L 389.945971 -97.711325 
L 389.125737 -97.801658 
L 388.305502 -97.769875 
L 387.485268 -97.568849 
L 386.665034 -97.188775 
L 385.844799 -96.660573 
L 385.024565 -96.050942 
L 384.204331 -95.45246 
L 383.384097 -94.971231 
L 382.563862 -94.711691 
L 381.743628 -94.757083 
L 380.923394 -95.147077 
L 380.10316 -95.859508 
L 379.282925 -96.806356 
L 378.462691 -97.849953 
L 377.642457 -98.835254 
L 376.822222 -99.626014 
L 376.001988 -100.132668 
L 375.181754 -100.32539 
L 374.36152 -100.232276 
L 373.541285 -99.926615 
L 372.721051 -99.507997 
L 371.900817 -99.08056 
L 371.080583 -98.73038 
L 370.260348 -98.504866 
L 369.440114 -98.399512 
L 368.61988 -98.358554 
L 367.799645 -98.292735 
L 366.979411 -98.109567 
L 366.159177 -97.745011 
L 365.338943 -97.184873 
L 364.518708 -96.469379 
L 363.698474 -95.681407 
L 362.87824 -94.924554 
L 362.058006 -94.299286 
L 361.237771 -93.883085 
L 360.417537 -93.71621 
L 359.597303 -93.792906 
L 358.777068 -94.059701 
L 357.956834 -94.424045 
L 357.1366 -94.774025 
L 356.316366 -95.004521 
L 355.496131 -95.04134 
L 354.675897 -94.855419 
L 353.855663 -94.463185 
L 353.035429 -93.914126 
L 352.215194 -93.271532 
L 351.39496 -92.59469 
L 350.574726 -91.928903 
L 349.754492 -91.304123 
L 348.934257 -90.7382 
L 348.114023 -90.240048 
L 347.293789 -89.810415 
L 346.473554 -89.440549 
L 345.65332 -89.111104 
L 344.833086 -88.794261 
L 344.012852 -88.460818 
L 343.192617 -88.090717 
L 342.372383 -87.681764 
L 341.552149 -87.249727 
L 340.731915 -86.816626 
L 339.91168 -86.394378 
L 339.091446 -85.977956 
L 338.271212 -85.553656 
L 337.450977 -85.114045 
L 336.630743 -84.669044 
L 335.810509 -84.248747 
L 334.990275 -83.897895 
L 334.17004 -83.663321 
L 333.349806 -83.577094 
L 332.529572 -83.641756 
L 331.709338 -83.826951 
L 330.889103 -84.081278 
L 330.068869 -84.350246 
L 329.248635 -84.587274 
L 328.4284 -84.755224 
L 327.608166 -84.825793 
L 326.787932 -84.782337 
L 325.967698 -84.624339 
L 325.147463 -84.36821 
L 324.327229 -84.041104 
L 323.506995 -83.669402 
L 322.686761 -83.268439 
L 321.866526 -82.841229 
L 321.046292 -82.387917 
L 320.226058 -81.918795 
L 319.405823 -81.460769 
L 318.585589 -81.052861 
L 317.765355 -80.734731 
L 316.945121 -80.536208 
L 316.124886 -80.472734 
L 315.304652 -80.544916 
L 314.484418 -80.737245 
L 313.664184 -81.014743 
L 312.843949 -81.322335 
L 312.023715 -81.592387 
L 311.203481 -81.759374 
L 310.383247 -81.774704 
L 309.563012 -81.615419 
L 308.742778 -81.285219 
L 307.922544 -80.809955 
L 307.102309 -80.230487 
L 306.282075 -79.595038 
L 305.461841 -78.952012 
L 304.641607 -78.343622 
L 303.821372 -77.80098 
L 303.001138 -77.342195 
L 302.180904 -76.974468 
L 301.36067 -76.698328 
L 300.540435 -76.510415 
L 299.720201 -76.403453 
L 298.899967 -76.365375 
L 298.079732 -76.379829 
L 297.259498 -76.42837 
L 296.439264 -76.493371 
L 295.61903 -76.560475 
L 294.798795 -76.619634 
L 293.978561 -76.664064 
L 293.158327 -76.68746 
L 292.338093 -76.681935 
L 291.517858 -76.640013 
L 290.697624 -76.56055 
L 289.87739 -76.453828 
L 289.057155 -76.341312 
L 288.236921 -76.250042 
L 287.416687 -76.204796 
L 286.596453 -76.22127 
L 285.776218 -76.302196 
L 284.955984 -76.437015 
L 284.13575 -76.604429 
L 283.315516 -76.776074 
L 282.495281 -76.919635 
L 281.675047 -77.001826 
L 280.854813 -76.993726 
L 280.034578 -76.87919 
L 279.214344 -76.662726 
L 278.39411 -76.371752 
L 277.573876 -76.051212 
L 276.753641 -75.752349 
L 275.933407 -75.51962 
L 275.113173 -75.380192 
L 274.292939 -75.339137 
L 273.472704 -75.380793 
L 272.65247 -75.473848 
L 271.832236 -75.577031 
L 271.012001 -75.644838 
L 270.191767 -75.635451 
L 269.371533 -75.521213 
L 268.551299 -75.297625 
L 267.731064 -74.9859 
L 266.91083 -74.6275 
L 266.090596 -74.273106 
L 265.270362 -73.970302 
L 264.450127 -73.753789 
L 263.629893 -73.639962 
L 262.809659 -73.625498 
L 261.989425 -73.68874 
L 261.16919 -73.794128 
L 260.348956 -73.900851 
L 259.528722 -73.97464 
L 258.708487 -73.997908 
L 257.888253 -73.973114 
L 257.068019 -73.917875 
L 256.247785 -73.85501 
L 255.42755 -73.803358 
L 254.607316 -73.774141 
L 253.787082 -73.773787 
L 252.966848 -73.809619 
L 252.146613 -73.893219 
L 251.326379 -74.038613 
L 250.506145 -74.257093 
L 249.68591 -74.553527 
L 248.865676 -74.926883 
L 248.045442 -75.372819 
L 247.225208 -75.884091 
L 246.404973 -76.44739 
L 245.584739 -77.039747 
L 244.764505 -77.629194 
L 243.944271 -78.181467 
L 243.124036 -78.669719 
L 242.303802 -79.081968 
L 241.483568 -79.422959 
L 240.663333 -79.711396 
L 239.843099 -79.976123 
L 239.022865 -80.253616 
L 238.202631 -80.585442 
L 237.382396 -81.012237 
L 236.562162 -81.562578 
L 235.741928 -82.240368 
L 234.921694 -83.018307 
L 234.101459 -83.843282 
L 233.281225 -84.65218 
L 232.460991 -85.390381 
L 231.640756 -86.025357 
L 230.820522 -86.552476 
L 230.000288 -86.993965 
L 229.180054 -87.393092 
L 228.359819 -87.804468 
L 227.539585 -88.280991 
L 226.719351 -88.859939 
L 225.899117 -89.553359 
L 225.078882 -90.347492 
L 224.258648 -91.211187 
L 223.438414 -92.108162 
L 222.61818 -93.006691 
L 221.797945 -93.883195 
L 220.977711 -94.720452 
L 220.157477 -95.504287 
L 219.337242 -96.222647 
L 218.517008 -96.867758 
L 217.696774 -97.438337 
L 216.87654 -97.938467 
L 216.056305 -98.37318 
L 215.236071 -98.744133 
L 214.415837 -99.048671 
L 213.595603 -99.282408 
L 212.775368 -99.442636 
L 211.955134 -99.529737 
L 211.1349 -99.545889 
L 210.314665 -99.492702 
L 209.494431 -99.370027 
L 208.674197 -99.17675 
L 207.853963 -98.912345 
L 207.033728 -98.577736 
L 206.213494 -98.17571 
L 205.39326 -97.712336 
L 204.573026 -97.199851 
L 203.752791 -96.659468 
L 202.932557 -96.12176 
L 202.112323 -95.623156 
L 201.292088 -95.198897 
L 200.471854 -94.874592 
L 199.65162 -94.659761 
L 198.831386 -94.546321 
L 198.011151 -94.512632 
L 197.190917 -94.530882 
L 196.370683 -94.574518 
L 195.550449 -94.623599 
L 194.730214 -94.667636 
L 193.90998 -94.706467 
L 193.089746 -94.749724 
L 192.269511 -94.815098 
L 191.449277 -94.925279 
L 190.629043 -95.103176 
L 189.808809 -95.365342 
L 188.988574 -95.715058 
L 188.16834 -96.13873 
L 187.348106 -96.608923 
L 186.527872 -97.093487 
L 185.707637 -97.566284 
L 184.887403 -98.014827 
L 184.067169 -98.442729 
L 183.246935 -98.867447 
L 182.4267 -99.315115 
L 181.606466 -99.814365 
L 180.786232 -100.39049 
L 179.965997 -101.060594 
L 179.145763 -101.829941 
L 178.325529 -102.689812 
L 177.505295 -103.617487 
L 176.68506 -104.578705 
L 175.864826 -105.532289 
L 175.044592 -106.435947 
L 174.224358 -107.252381 
L 173.404123 -107.95503 
L 172.583889 -108.532572 
L 171.763655 -108.990591 
L 170.94342 -109.348674 
L 170.123186 -109.632734 
L 169.302952 -109.865566 
L 168.482718 -110.061149 
L 167.662483 -110.226071 
L 166.842249 -110.365653 
L 166.022015 -110.488447 
L 165.201781 -110.604455 
L 164.381546 -110.717683 
L 163.561312 -110.818362 
L 162.741078 -110.881352 
L 161.920843 -110.873673 
L 161.100609 -110.767927 
L 160.280375 -110.554061 
L 159.460141 -110.24307 
L 158.639906 -109.862328 
L 157.819672 -109.448163 
L 156.999438 -109.041096 
L 156.179204 -108.683309 
L 155.358969 -108.413455 
L 154.538735 -108.256346 
L 153.718501 -108.211677 
L 152.898266 -108.25005 
L 152.078032 -108.32161 
L 151.257798 -108.374069 
L 150.437564 -108.36948 
L 149.617329 -108.289917 
L 148.797095 -108.13134 
L 147.976861 -107.89497 
L 147.156627 -107.586218 
L 146.336392 -107.221399 
L 145.516158 -106.833437 
L 144.695924 -106.468328 
L 143.875689 -106.171484 
L 143.055455 -105.970367 
L 142.235221 -105.863286 
L 141.414987 -105.821665 
L 140.594752 -105.804571 
L 139.774518 -105.77597 
L 138.954284 -105.714652 
L 138.13405 -105.614173 
L 137.313815 -105.477419 
L 136.493581 -105.310987 
L 135.673347 -105.120657 
L 134.853113 -104.906917 
L 134.032878 -104.661053 
L 133.212644 -104.364731 
L 132.39241 -103.995827 
L 131.572175 -103.539825 
L 130.751941 -103.002058 
L 129.931707 -102.414501 
L 129.111473 -101.833658 
L 128.291238 -101.33124 
L 127.471004 -100.98233 
L 126.65077 -100.853883 
L 125.830536 -100.992533 
L 125.010301 -101.410445 
L 124.190067 -102.072524 
L 123.369833 -102.893047 
L 122.549598 -103.748223 
L 121.729364 -104.503309 
L 120.90913 -105.044774 
L 120.088896 -105.305718 
L 119.268661 -105.276431 
L 118.448427 -104.998672 
L 117.628193 -104.548411 
L 116.807959 -104.014879 
L 115.987724 -103.482143 
L 115.16749 -103.015125 
L 114.347256 -102.649107 
L 113.527021 -102.382916 
L 112.706787 -102.178779 
L 111.886553 -101.97227 
L 111.066319 -101.692095 
L 110.246084 -101.284215 
L 109.42585 -100.731717 
L 108.605616 -100.063246 
L 107.785382 -99.347145 
L 106.965147 -98.673661 
L 106.144913 -98.131446 
L 105.324679 -97.785674 
L 104.504444 -97.662913 
L 103.68421 -97.74428 
L 102.863976 -97.966519 
L 102.043742 -98.231198 
L 101.223507 -98.42256 
L 100.403273 -98.432187 
L 99.583039 -98.184933 
L 98.762805 -97.658365 
L 97.94257 -96.888747 
L 97.122336 -95.959822 
L 96.302102 -94.976992 
L 95.481868 -94.03744 
L 94.661633 -93.210528 
L 93.841399 -92.534828 
L 93.021165 -92.024591 
L 92.20093 -91.674325 
L 91.380696 -91.45734 
L 90.560462 -91.322572 
L 89.740228 -91.197132 
L 88.919993 -90.998536 
L 88.099759 -90.654069 
L 87.279525 -90.120204 
L 86.459291 -89.395296 
L 85.639056 -88.521716 
L 84.818822 -87.5762 
L 83.998588 -86.64924 
L 83.178353 -85.819091 
L 82.358119 -85.132354 
L 81.537885 -84.600756 
L 80.717651 -84.211155 
L 79.897416 -83.938506 
L 79.077182 -83.755227 
L 78.256948 -83.635666 
L 77.436714 -83.556756 
L 76.616479 -83.497377 
L 75.796245 -83.439686 
L 74.976011 -83.373647 
L 74.155776 -83.300521 
L 73.335542 -83.227405 
L 72.515308 -83.151339 
L 71.695074 -83.045773 
L 70.874839 -82.86414 
L 70.054605 -82.558282 
L 69.234371 -82.097991 
L 68.414137 -81.482662 
L 67.593902 -80.743209 
L 66.773668 -79.934486 
L 65.953434 -79.118529 
L 65.133199 -78.342856 
L 64.312965 -77.628786 
L 63.492731 -76.98385 
L 62.672497 -76.424426 
L 61.852262 -75.982793 
L 61.032028 -75.694392 
L 60.211794 -75.578077 
L 59.39156 -75.624393 
L 58.571325 -75.79801 
L 57.751091 -76.047631 
L 56.930857 -76.315795 
L 56.110623 -76.547206 
L 55.290388 -76.695811 
L 54.470154 -76.729967 
L 53.64992 -76.63543 
L 52.829685 -76.417102 
L 52.009451 -76.100173 
L 51.189217 -75.727914 
L 50.368983 -75.34834 
L 49.548748 -74.98882 
L 48.728514 -74.643712 
L 47.90828 -74.294224 
L 47.088046 -73.936783 
L 46.267811 -73.59532 
L 45.447577 -73.314773 
L 44.627343 -73.140526 
L 43.807108 -73.095444 
L 42.986874 -73.170831 
L 42.16664 -73.334806 
L 41.346406 -73.546136 
L 40.526171 -73.763375 
L 39.705937 -73.94881 
L 38.885703 -74.071358 
L 38.065469 -74.111385 
L 37.245234 -74.066305 
L 36.425 -73.952304 
z
" style="stroke: #377eb8; stroke-opacity: 0.3"/>
    </defs>
    <g clip-path="url(#pca08ddfa20)">
     <use xlink:href="#mcae5d18a7e" x="0" y="360" style="fill: #377eb8; fill-opacity: 0.3; stroke: #377eb8; stroke-opacity: 0.3"/>
    </g>
   </g>
   <g id="patch_3">
    <path d="M 225.242929 320.2 
L 225.242929 69.788 
L 330.232916 69.788 
L 330.232916 320.2 
z
" clip-path="url(#pca08ddfa20)" style="fill: #808080; opacity: 0.3; stroke: #ffffff; stroke-linejoin: miter"/>
   </g>
   <g id="line2d_11">
    <path d="M 36.425 291.742996 
L 38.065469 291.714269 
L 39.705937 291.760872 
L 40.526171 291.66127 
L 41.346406 291.414204 
L 42.16664 291.003574 
L 43.807108 289.787505 
L 46.267811 287.820435 
L 47.90828 286.944939 
L 49.548748 286.422018 
L 52.009451 285.894248 
L 53.64992 285.685955 
L 55.290388 285.703138 
L 57.751091 285.831571 
L 58.571325 285.713401 
L 59.39156 285.446278 
L 60.211794 285.025036 
L 61.852262 283.85962 
L 63.492731 282.695343 
L 64.312965 282.265692 
L 65.953434 281.786305 
L 68.414137 281.378586 
L 70.054605 280.778322 
L 71.695074 280.033711 
L 72.515308 279.772525 
L 73.335542 279.670912 
L 74.155776 279.756164 
L 75.796245 280.379107 
L 77.436714 281.088701 
L 78.256948 281.256256 
L 79.077182 281.230079 
L 79.897416 281.014156 
L 83.998588 279.257471 
L 86.459291 278.757163 
L 87.279525 278.396386 
L 88.099759 277.830658 
L 88.919993 277.056442 
L 92.20093 273.502164 
L 93.021165 273.064456 
L 93.841399 272.94598 
L 94.661633 273.117474 
L 97.94257 274.592368 
L 98.762805 274.614392 
L 99.583039 274.412419 
L 101.223507 273.583383 
L 102.863976 272.825671 
L 103.68421 272.662636 
L 104.504444 272.663257 
L 107.785382 273.079813 
L 108.605616 272.940492 
L 110.246084 272.283837 
L 111.886553 271.557722 
L 112.706787 271.354268 
L 113.527021 271.311894 
L 115.16749 271.638539 
L 116.807959 272.107199 
L 118.448427 272.247549 
L 120.90913 272.045397 
L 121.729364 272.153444 
L 122.549598 272.465848 
L 123.369833 273.000229 
L 125.010301 274.548943 
L 126.65077 276.042516 
L 127.471004 276.476839 
L 128.291238 276.602791 
L 129.111473 276.41455 
L 129.931707 275.967553 
L 132.39241 274.241584 
L 133.212644 273.953163 
L 134.032878 273.936129 
L 134.853113 274.182622 
L 136.493581 275.15653 
L 137.313815 275.645608 
L 138.13405 275.973917 
L 138.954284 276.056209 
L 139.774518 275.857956 
L 140.594752 275.400173 
L 142.235221 274.010957 
L 143.875689 272.650415 
L 144.695924 272.164309 
L 146.336392 271.593912 
L 147.976861 271.156944 
L 148.797095 270.806828 
L 150.437564 269.700805 
L 152.078032 268.382715 
L 152.898266 267.894743 
L 153.718501 267.665524 
L 154.538735 267.766891 
L 155.358969 268.216895 
L 156.179204 268.970824 
L 158.639906 271.832112 
L 159.460141 272.472673 
L 160.280375 272.748219 
L 161.100609 272.616637 
L 161.920843 272.110287 
L 163.561312 270.43709 
L 164.381546 269.605877 
L 165.201781 269.009759 
L 166.022015 268.779385 
L 166.842249 268.98 
L 167.662483 269.599243 
L 168.482718 270.549712 
L 170.94342 273.816501 
L 171.763655 274.501887 
L 172.583889 274.811246 
L 173.404123 274.73932 
L 174.224358 274.35081 
L 176.68506 272.598202 
L 177.505295 272.287004 
L 178.325529 272.269876 
L 179.145763 272.560077 
L 179.965997 273.113755 
L 183.246935 275.943402 
L 184.067169 276.29407 
L 184.887403 276.384668 
L 185.707637 276.217685 
L 186.527872 275.825133 
L 188.16834 274.582944 
L 190.629043 272.506589 
L 192.269511 271.547637 
L 193.089746 271.264268 
L 194.730214 271.023833 
L 196.370683 270.909563 
L 197.190917 270.743441 
L 198.011151 270.429087 
L 198.831386 269.936796 
L 200.471854 268.471947 
L 202.112323 266.793028 
L 202.932557 266.102552 
L 203.752791 265.621115 
L 204.573026 265.392595 
L 205.39326 265.418549 
L 206.213494 265.65967 
L 207.853963 266.499322 
L 209.494431 267.335716 
L 211.955134 268.20309 
L 213.595603 268.856041 
L 216.056305 269.993129 
L 216.87654 270.18347 
L 217.696774 270.170563 
L 218.517008 269.936859 
L 220.157477 269.014534 
L 220.977711 268.553428 
L 221.797945 268.283062 
L 222.61818 268.327303 
L 223.438414 268.755893 
L 224.258648 269.563487 
L 225.899117 271.913498 
L 226.719351 273.124209 
L 227.539585 274.120008 
L 228.359819 274.766689 
L 229.180054 275.00226 
L 230.000288 274.848844 
L 230.820522 274.404952 
L 232.460991 273.259086 
L 233.281225 272.862387 
L 234.101459 272.716578 
L 234.921694 272.837423 
L 236.562162 273.613568 
L 237.382396 274.036188 
L 238.202631 274.321069 
L 239.022865 274.386677 
L 239.843099 274.204092 
L 240.663333 273.798753 
L 244.764505 271.124504 
L 246.404973 270.668632 
L 248.865676 270.11948 
L 251.326379 269.181316 
L 252.966848 268.580454 
L 257.068019 267.333071 
L 257.888253 266.854787 
L 259.528722 265.489424 
L 262.809659 262.209964 
L 263.629893 261.604184 
L 264.450127 261.154035 
L 266.090596 260.650366 
L 267.731064 260.315585 
L 268.551299 260.038792 
L 269.371533 259.615999 
L 270.191767 259.028164 
L 271.832236 257.475331 
L 273.472704 255.947631 
L 274.292939 255.438637 
L 275.113173 255.196437 
L 275.933407 255.237047 
L 276.753641 255.518255 
L 278.39411 256.373406 
L 279.214344 256.660349 
L 280.034578 256.67122 
L 280.854813 256.321105 
L 281.675047 255.592984 
L 282.495281 254.544023 
L 284.955984 250.843575 
L 285.776218 249.935569 
L 286.596453 249.351557 
L 287.416687 249.08147 
L 289.87739 249.052873 
L 290.697624 248.795884 
L 291.517858 248.212875 
L 292.338093 247.271786 
L 293.158327 246.012943 
L 296.439264 240.065227 
L 298.079732 237.866562 
L 303.821372 231.915076 
L 304.641607 231.278597 
L 305.461841 230.887192 
L 306.282075 230.77893 
L 307.102309 230.944916 
L 307.922544 231.329636 
L 310.383247 232.836105 
L 311.203481 233.14213 
L 312.023715 233.256465 
L 312.843949 233.175683 
L 313.664184 232.924959 
L 315.304652 232.078628 
L 317.765355 230.407375 
L 319.405823 229.085484 
L 321.866526 226.733554 
L 325.147463 223.517696 
L 327.608166 221.405948 
L 329.248635 220.166266 
L 330.889103 219.18462 
L 332.529572 218.527134 
L 334.17004 217.977118 
L 334.990275 217.586757 
L 335.810509 217.023725 
L 336.630743 216.234551 
L 337.450977 215.198058 
L 339.091446 212.504006 
L 341.552149 208.218676 
L 342.372383 207.125302 
L 343.192617 206.299797 
L 344.012852 205.73694 
L 344.833086 205.386383 
L 347.293789 204.687316 
L 348.114023 204.249196 
L 348.934257 203.597438 
L 349.754492 202.717021 
L 351.39496 200.383978 
L 354.675897 195.189803 
L 356.316366 193.158123 
L 357.956834 191.582069 
L 360.417537 189.635829 
L 362.87824 187.8727 
L 365.338943 186.394476 
L 366.979411 185.365994 
L 367.799645 184.692753 
L 368.61988 183.838112 
L 369.440114 182.765571 
L 371.080583 179.98836 
L 373.541285 175.290172 
L 374.36152 174.000799 
L 375.181754 172.990874 
L 376.001988 172.281308 
L 376.822222 171.838597 
L 378.462691 171.404086 
L 379.282925 171.193417 
L 380.10316 170.864843 
L 380.923394 170.37875 
L 382.563862 169.043368 
L 384.204331 167.760587 
L 385.024565 167.333838 
L 386.665034 166.914543 
L 387.485268 166.742527 
L 388.305502 166.409633 
L 389.125737 165.777678 
L 389.945971 164.756831 
L 390.766205 163.336687 
L 394.047142 156.373631 
L 394.867376 155.329306 
L 395.687611 154.85388 
L 396.507845 154.923893 
L 397.328079 155.40121 
L 398.968548 156.636751 
L 399.788782 156.885452 
L 400.609016 156.635924 
L 401.429251 155.830754 
L 402.249485 154.538473 
L 404.710188 149.81086 
L 405.530422 148.757654 
L 406.350656 148.23533 
L 407.17089 148.245511 
L 407.991125 148.674252 
L 409.631593 149.944287 
L 410.451828 150.319667 
L 411.272062 150.284898 
L 412.092296 149.773084 
L 412.91253 148.820384 
L 414.552999 146.140894 
L 414.552999 146.140894 
" clip-path="url(#pca08ddfa20)" style="fill: none; stroke: #e41a1c; stroke-width: 1.5; stroke-linecap: round"/>
   </g>
   <g id="line2d_12">
    <path d="M 36.425 290.169343 
L 38.065469 289.896426 
L 40.526171 289.866033 
L 42.16664 289.833321 
L 43.807108 289.552867 
L 45.447577 288.94196 
L 47.90828 287.584668 
L 50.368983 286.235378 
L 52.009451 285.614042 
L 53.64992 285.315785 
L 55.290388 285.334779 
L 59.39156 285.844876 
L 61.032028 285.634186 
L 62.672497 284.968457 
L 64.312965 283.950686 
L 66.773668 282.297664 
L 68.414137 281.410173 
L 70.054605 280.769583 
L 71.695074 280.355766 
L 73.335542 280.17379 
L 74.976011 280.254607 
L 79.077182 280.849282 
L 79.897416 280.734871 
L 80.717651 280.453669 
L 81.537885 279.995997 
L 83.178353 278.631692 
L 85.639056 276.260359 
L 86.459291 275.636733 
L 87.279525 275.171118 
L 88.099759 274.872024 
L 89.740228 274.667566 
L 91.380696 274.605377 
L 92.20093 274.458527 
L 93.021165 274.16352 
L 93.841399 273.69725 
L 95.481868 272.31384 
L 97.94257 270.009597 
L 98.762805 269.48013 
L 99.583039 269.157412 
L 100.403273 269.047981 
L 101.223507 269.122469 
L 104.504444 269.863252 
L 105.324679 269.804477 
L 106.144913 269.581418 
L 107.785382 268.76544 
L 109.42585 267.848238 
L 111.066319 267.229528 
L 115.16749 266.281752 
L 118.448427 264.767448 
L 119.268661 264.637001 
L 120.088896 264.738496 
L 120.90913 265.088877 
L 121.729364 265.660443 
L 125.010301 268.466587 
L 125.830536 268.830619 
L 126.65077 268.955312 
L 127.471004 268.857271 
L 129.111473 268.214644 
L 131.572175 267.108639 
L 139.774518 264.505016 
L 141.414987 264.476941 
L 143.875689 264.604439 
L 144.695924 264.50251 
L 146.336392 263.971935 
L 148.797095 262.898733 
L 149.617329 262.675782 
L 151.257798 262.580718 
L 153.718501 262.820298 
L 154.538735 262.784376 
L 155.358969 262.625784 
L 156.999438 261.969647 
L 159.460141 260.835042 
L 160.280375 260.634586 
L 161.100609 260.571106 
L 162.741078 260.797117 
L 166.022015 261.574453 
L 169.302952 261.992512 
L 170.94342 262.534068 
L 172.583889 263.489491 
L 174.224358 264.766742 
L 178.325529 268.425149 
L 180.786232 270.563632 
L 182.4267 271.747277 
L 184.067169 272.585748 
L 185.707637 273.089613 
L 189.808809 274.046722 
L 193.089746 275.024661 
L 194.730214 275.258903 
L 196.370683 275.25204 
L 198.831386 274.932553 
L 200.471854 274.513637 
L 202.112323 273.800527 
L 203.752791 272.713393 
L 207.853963 269.505098 
L 208.674197 269.093682 
L 209.494431 268.822106 
L 210.314665 268.688885 
L 211.955134 268.768884 
L 213.595603 269.148386 
L 216.056305 270.022043 
L 217.696774 270.873094 
L 219.337242 272.079958 
L 220.977711 273.669743 
L 225.078882 278.107255 
L 226.719351 279.436453 
L 228.359819 280.429992 
L 230.820522 281.79569 
L 232.460991 282.984053 
L 234.921694 285.217114 
L 236.562162 286.653871 
L 238.202631 287.770396 
L 239.843099 288.566169 
L 242.303802 289.655321 
L 243.944271 290.618287 
L 248.045442 293.340984 
L 249.68591 294.096657 
L 251.326379 294.608096 
L 252.966848 294.925284 
L 254.607316 295.032297 
L 256.247785 294.87837 
L 261.16919 293.888834 
L 265.270362 293.735695 
L 266.91083 293.168781 
L 270.191767 291.537099 
L 271.012001 291.326324 
L 271.832236 291.260967 
L 273.472704 291.48255 
L 275.113173 291.8037 
L 275.933407 291.841498 
L 276.753641 291.741705 
L 278.39411 291.147748 
L 280.854813 290.044573 
L 281.675047 289.876847 
L 282.495281 289.868004 
L 284.13575 290.242398 
L 285.776218 290.746588 
L 286.596453 290.877416 
L 287.416687 290.867677 
L 288.236921 290.710858 
L 289.87739 290.087849 
L 291.517858 289.455275 
L 292.338093 289.28075 
L 293.158327 289.238377 
L 294.798795 289.48714 
L 296.439264 289.859516 
L 297.259498 289.950809 
L 298.079732 289.926251 
L 298.899967 289.774243 
L 300.540435 289.149822 
L 307.102309 286.00064 
L 309.563012 284.964562 
L 311.203481 284.576784 
L 312.843949 284.554486 
L 316.124886 284.829939 
L 317.765355 284.550439 
L 319.405823 283.895171 
L 324.327229 281.532694 
L 326.787932 280.701091 
L 328.4284 280.39968 
L 330.068869 280.427554 
L 331.709338 280.752638 
L 333.349806 281.115088 
L 334.17004 281.191596 
L 334.990275 281.141966 
L 335.810509 280.942249 
L 336.630743 280.588966 
L 338.271212 279.508503 
L 341.552149 277.050055 
L 343.192617 276.255356 
L 344.833086 275.822309 
L 348.114023 275.216265 
L 349.754492 274.56319 
L 351.39496 273.589924 
L 353.035429 272.553626 
L 353.855663 272.144764 
L 354.675897 271.876435 
L 355.496131 271.777651 
L 356.316366 271.8488 
L 357.956834 272.343787 
L 359.597303 272.82131 
L 360.417537 272.859274 
L 361.237771 272.699898 
L 362.058006 272.34238 
L 363.698474 271.223673 
L 365.338943 270.105429 
L 366.159177 269.733811 
L 366.979411 269.530207 
L 368.61988 269.516666 
L 370.260348 269.589469 
L 371.080583 269.499102 
L 372.721051 269.012494 
L 374.36152 268.511269 
L 375.181754 268.479876 
L 376.001988 268.694058 
L 376.822222 269.17862 
L 377.642457 269.90543 
L 380.10316 272.604218 
L 380.923394 273.281882 
L 381.743628 273.693287 
L 382.563862 273.810322 
L 383.384097 273.657432 
L 385.024565 272.842629 
L 386.665034 271.986722 
L 387.485268 271.727372 
L 388.305502 271.611971 
L 389.945971 271.70319 
L 391.586439 271.879261 
L 393.226908 271.803295 
L 394.867376 271.426228 
L 398.968548 270.055661 
L 401.429251 269.023178 
L 404.710188 267.574618 
L 406.350656 267.132788 
L 408.811359 266.80054 
L 414.552999 266.184616 
L 414.552999 266.184616 
" clip-path="url(#pca08ddfa20)" style="fill: none; stroke: #377eb8; stroke-width: 1.5; stroke-linecap: round"/>
   </g>
   <g id="line2d_13">
    <path d="M 78.256948 320.2 
L 78.256948 69.788 
" clip-path="url(#pca08ddfa20)" style="fill: none; stroke: #000000; stroke-width: 0.5; stroke-linecap: round"/>
   </g>
   <g id="line2d_14">
    <path d="M 36.425 285.196172 
L 414.552999 285.196172 
" clip-path="url(#pca08ddfa20)" style="fill: none; stroke: #000000; stroke-width: 0.5; stroke-linecap: round"/>
   </g>
   <g id="patch_4">
    <path d="M 36.425 320.2 
L 36.425 69.788 
" style="fill: none; stroke: #ffffff; stroke-width: 0.8; stroke-linejoin: miter; stroke-linecap: square"/>
   </g>
   <g id="patch_5">
    <path d="M 414.552999 320.2 
L 414.552999 69.788 
" style="fill: none; stroke: #ffffff; stroke-width: 0.8; stroke-linejoin: miter; stroke-linecap: square"/>
   </g>
   <g id="patch_6">
    <path d="M 36.425 320.2 
L 414.552999 320.2 
" style="fill: none; stroke: #ffffff; stroke-width: 0.8; stroke-linejoin: miter; stroke-linecap: square"/>
   </g>
   <g id="patch_7">
    <path d="M 36.425 69.788 
L 414.552999 69.788 
" style="fill: none; stroke: #ffffff; stroke-width: 0.8; stroke-linejoin: miter; stroke-linecap: square"/>
   </g>
   <g id="legend_1">
    <g id="patch_8">
     <path d="M 80.132749 45.545518 
L 370.845249 45.545518 
Q 372.845249 45.545518 372.845249 43.545518 
L 372.845249 15.898642 
Q 372.845249 13.898642 370.845249 13.898642 
L 80.132749 13.898642 
Q 78.132749 13.898642 78.132749 15.898642 
L 78.132749 43.545518 
Q 78.132749 45.545518 80.132749 45.545518 
z
" style="fill: #eaeaf2; opacity: 0.8; stroke: #cccccc; stroke-linejoin: miter"/>
    </g>
    <g id="text_13">
     <!-- Average of Sessions with  6 Tactors (Legs Included) at Fz (n=16) -->
     <g style="fill: #262626" transform="translate(82.132749 25.17833)scale(0.1 -0.1)">
      <defs>
       <path id="ArialMT-41" d="M -9 0 
L 1750 4581 
L 2403 4581 
L 4278 0 
L 3588 0 
L 3053 1388 
L 1138 1388 
L 634 0 
L -9 0 
z
M 1313 1881 
L 2866 1881 
L 2388 3150 
Q 2169 3728 2063 4100 
Q 1975 3659 1816 3225 
L 1313 1881 
z
" transform="scale(0.015625)"/>
       <path id="ArialMT-76" d="M 1344 0 
L 81 3319 
L 675 3319 
L 1388 1331 
Q 1503 1009 1600 663 
Q 1675 925 1809 1294 
L 2547 3319 
L 3125 3319 
L 1869 0 
L 1344 0 
z
" transform="scale(0.015625)"/>
       <path id="ArialMT-72" d="M 416 0 
L 416 3319 
L 922 3319 
L 922 2816 
Q 1116 3169 1280 3281 
Q 1444 3394 1641 3394 
Q 1925 3394 2219 3213 
L 2025 2691 
Q 1819 2813 1613 2813 
Q 1428 2813 1281 2702 
Q 1134 2591 1072 2394 
Q 978 2094 978 1738 
L 978 0 
L 416 0 
z
" transform="scale(0.015625)"/>
       <path id="ArialMT-61" d="M 2588 409 
Q 2275 144 1986 34 
Q 1697 -75 1366 -75 
Q 819 -75 525 192 
Q 231 459 231 875 
Q 231 1119 342 1320 
Q 453 1522 633 1644 
Q 813 1766 1038 1828 
Q 1203 1872 1538 1913 
Q 2219 1994 2541 2106 
Q 2544 2222 2544 2253 
Q 2544 2597 2384 2738 
Q 2169 2928 1744 2928 
Q 1347 2928 1158 2789 
Q 969 2650 878 2297 
L 328 2372 
Q 403 2725 575 2942 
Q 747 3159 1072 3276 
Q 1397 3394 1825 3394 
Q 2250 3394 2515 3294 
Q 2781 3194 2906 3042 
Q 3031 2891 3081 2659 
Q 3109 2516 3109 2141 
L 3109 1391 
Q 3109 606 3145 398 
Q 3181 191 3288 0 
L 2700 0 
Q 2613 175 2588 409 
z
M 2541 1666 
Q 2234 1541 1622 1453 
Q 1275 1403 1131 1340 
Q 988 1278 909 1158 
Q 831 1038 831 891 
Q 831 666 1001 516 
Q 1172 366 1500 366 
Q 1825 366 2078 508 
Q 2331 650 2450 897 
Q 2541 1088 2541 1459 
L 2541 1666 
z
" transform="scale(0.015625)"/>
       <path id="ArialMT-67" d="M 319 -275 
L 866 -356 
Q 900 -609 1056 -725 
Q 1266 -881 1628 -881 
Q 2019 -881 2231 -725 
Q 2444 -569 2519 -288 
Q 2563 -116 2559 434 
Q 2191 0 1641 0 
Q 956 0 581 494 
Q 206 988 206 1678 
Q 206 2153 378 2554 
Q 550 2956 876 3175 
Q 1203 3394 1644 3394 
Q 2231 3394 2613 2919 
L 2613 3319 
L 3131 3319 
L 3131 450 
Q 3131 -325 2973 -648 
Q 2816 -972 2473 -1159 
Q 2131 -1347 1631 -1347 
Q 1038 -1347 672 -1080 
Q 306 -813 319 -275 
z
M 784 1719 
Q 784 1066 1043 766 
Q 1303 466 1694 466 
Q 2081 466 2343 764 
Q 2606 1063 2606 1700 
Q 2606 2309 2336 2618 
Q 2066 2928 1684 2928 
Q 1309 2928 1046 2623 
Q 784 2319 784 1719 
z
" transform="scale(0.015625)"/>
       <path id="ArialMT-20" transform="scale(0.015625)"/>
       <path id="ArialMT-66" d="M 556 0 
L 556 2881 
L 59 2881 
L 59 3319 
L 556 3319 
L 556 3672 
Q 556 4006 616 4169 
Q 697 4388 901 4523 
Q 1106 4659 1475 4659 
Q 1713 4659 2000 4603 
L 1916 4113 
Q 1741 4144 1584 4144 
Q 1328 4144 1222 4034 
Q 1116 3925 1116 3625 
L 1116 3319 
L 1763 3319 
L 1763 2881 
L 1116 2881 
L 1116 0 
L 556 0 
z
" transform="scale(0.015625)"/>
       <path id="ArialMT-53" d="M 288 1472 
L 859 1522 
Q 900 1178 1048 958 
Q 1197 738 1509 602 
Q 1822 466 2213 466 
Q 2559 466 2825 569 
Q 3091 672 3220 851 
Q 3350 1031 3350 1244 
Q 3350 1459 3225 1620 
Q 3100 1781 2813 1891 
Q 2628 1963 1997 2114 
Q 1366 2266 1113 2400 
Q 784 2572 623 2826 
Q 463 3081 463 3397 
Q 463 3744 659 4045 
Q 856 4347 1234 4503 
Q 1613 4659 2075 4659 
Q 2584 4659 2973 4495 
Q 3363 4331 3572 4012 
Q 3781 3694 3797 3291 
L 3216 3247 
Q 3169 3681 2898 3903 
Q 2628 4125 2100 4125 
Q 1550 4125 1298 3923 
Q 1047 3722 1047 3438 
Q 1047 3191 1225 3031 
Q 1400 2872 2139 2705 
Q 2878 2538 3153 2413 
Q 3553 2228 3743 1945 
Q 3934 1663 3934 1294 
Q 3934 928 3725 604 
Q 3516 281 3123 101 
Q 2731 -78 2241 -78 
Q 1619 -78 1198 103 
Q 778 284 539 648 
Q 300 1013 288 1472 
z
" transform="scale(0.015625)"/>
       <path id="ArialMT-69" d="M 425 3934 
L 425 4581 
L 988 4581 
L 988 3934 
L 425 3934 
z
M 425 0 
L 425 3319 
L 988 3319 
L 988 0 
L 425 0 
z
" transform="scale(0.015625)"/>
       <path id="ArialMT-77" d="M 1034 0 
L 19 3319 
L 600 3319 
L 1128 1403 
L 1325 691 
Q 1338 744 1497 1375 
L 2025 3319 
L 2603 3319 
L 3100 1394 
L 3266 759 
L 3456 1400 
L 4025 3319 
L 4572 3319 
L 3534 0 
L 2950 0 
L 2422 1988 
L 2294 2553 
L 1622 0 
L 1034 0 
z
" transform="scale(0.015625)"/>
       <path id="ArialMT-74" d="M 1650 503 
L 1731 6 
Q 1494 -44 1306 -44 
Q 1000 -44 831 53 
Q 663 150 594 308 
Q 525 466 525 972 
L 525 2881 
L 113 2881 
L 113 3319 
L 525 3319 
L 525 4141 
L 1084 4478 
L 1084 3319 
L 1650 3319 
L 1650 2881 
L 1084 2881 
L 1084 941 
Q 1084 700 1114 631 
Q 1144 563 1211 522 
Q 1278 481 1403 481 
Q 1497 481 1650 503 
z
" transform="scale(0.015625)"/>
       <path id="ArialMT-68" d="M 422 0 
L 422 4581 
L 984 4581 
L 984 2938 
Q 1378 3394 1978 3394 
Q 2347 3394 2619 3248 
Q 2891 3103 3008 2847 
Q 3125 2591 3125 2103 
L 3125 0 
L 2563 0 
L 2563 2103 
Q 2563 2525 2380 2717 
Q 2197 2909 1863 2909 
Q 1613 2909 1392 2779 
Q 1172 2650 1078 2428 
Q 984 2206 984 1816 
L 984 0 
L 422 0 
z
" transform="scale(0.015625)"/>
       <path id="ArialMT-54" d="M 1659 0 
L 1659 4041 
L 150 4041 
L 150 4581 
L 3781 4581 
L 3781 4041 
L 2266 4041 
L 2266 0 
L 1659 0 
z
" transform="scale(0.015625)"/>
       <path id="ArialMT-28" d="M 1497 -1347 
Q 1031 -759 709 28 
Q 388 816 388 1659 
Q 388 2403 628 3084 
Q 909 3875 1497 4659 
L 1900 4659 
Q 1522 4009 1400 3731 
Q 1209 3300 1100 2831 
Q 966 2247 966 1656 
Q 966 153 1900 -1347 
L 1497 -1347 
z
" transform="scale(0.015625)"/>
       <path id="ArialMT-4c" d="M 469 0 
L 469 4581 
L 1075 4581 
L 1075 541 
L 3331 541 
L 3331 0 
L 469 0 
z
" transform="scale(0.015625)"/>
       <path id="ArialMT-49" d="M 597 0 
L 597 4581 
L 1203 4581 
L 1203 0 
L 597 0 
z
" transform="scale(0.015625)"/>
       <path id="ArialMT-6c" d="M 409 0 
L 409 4581 
L 972 4581 
L 972 0 
L 409 0 
z
" transform="scale(0.015625)"/>
       <path id="ArialMT-75" d="M 2597 0 
L 2597 488 
Q 2209 -75 1544 -75 
Q 1250 -75 995 37 
Q 741 150 617 320 
Q 494 491 444 738 
Q 409 903 409 1263 
L 409 3319 
L 972 3319 
L 972 1478 
Q 972 1038 1006 884 
Q 1059 663 1231 536 
Q 1403 409 1656 409 
Q 1909 409 2131 539 
Q 2353 669 2445 892 
Q 2538 1116 2538 1541 
L 2538 3319 
L 3100 3319 
L 3100 0 
L 2597 0 
z
" transform="scale(0.015625)"/>
       <path id="ArialMT-29" d="M 791 -1347 
L 388 -1347 
Q 1322 153 1322 1656 
Q 1322 2244 1188 2822 
Q 1081 3291 891 3722 
Q 769 4003 388 4659 
L 791 4659 
Q 1378 3875 1659 3084 
Q 1900 2403 1900 1659 
Q 1900 816 1576 28 
Q 1253 -759 791 -1347 
z
" transform="scale(0.015625)"/>
       <path id="ArialMT-46" d="M 525 0 
L 525 4581 
L 3616 4581 
L 3616 4041 
L 1131 4041 
L 1131 2622 
L 3281 2622 
L 3281 2081 
L 1131 2081 
L 1131 0 
L 525 0 
z
" transform="scale(0.015625)"/>
       <path id="ArialMT-7a" d="M 125 0 
L 125 456 
L 2238 2881 
Q 1878 2863 1603 2863 
L 250 2863 
L 250 3319 
L 2963 3319 
L 2963 2947 
L 1166 841 
L 819 456 
Q 1197 484 1528 484 
L 3063 484 
L 3063 0 
L 125 0 
z
" transform="scale(0.015625)"/>
       <path id="ArialMT-3d" d="M 3381 2694 
L 356 2694 
L 356 3219 
L 3381 3219 
L 3381 2694 
z
M 3381 1303 
L 356 1303 
L 356 1828 
L 3381 1828 
L 3381 1303 
z
" transform="scale(0.015625)"/>
       <path id="ArialMT-31" d="M 2384 0 
L 1822 0 
L 1822 3584 
Q 1619 3391 1289 3197 
Q 959 3003 697 2906 
L 697 3450 
Q 1169 3672 1522 3987 
Q 1875 4303 2022 4600 
L 2384 4600 
L 2384 0 
z
" transform="scale(0.015625)"/>
      </defs>
      <use xlink:href="#ArialMT-41"/>
      <use xlink:href="#ArialMT-76" x="64.949219"/>
      <use xlink:href="#ArialMT-65" x="114.949219"/>
      <use xlink:href="#ArialMT-72" x="170.564453"/>
      <use xlink:href="#ArialMT-61" x="203.865234"/>
      <use xlink:href="#ArialMT-67" x="259.480469"/>
      <use xlink:href="#ArialMT-65" x="315.095703"/>
      <use xlink:href="#ArialMT-20" x="370.710938"/>
      <use xlink:href="#ArialMT-6f" x="398.494141"/>
      <use xlink:href="#ArialMT-66" x="454.109375"/>
      <use xlink:href="#ArialMT-20" x="481.892578"/>
      <use xlink:href="#ArialMT-53" x="509.675781"/>
      <use xlink:href="#ArialMT-65" x="576.375"/>
      <use xlink:href="#ArialMT-73" x="631.990234"/>
      <use xlink:href="#ArialMT-73" x="681.990234"/>
      <use xlink:href="#ArialMT-69" x="731.990234"/>
      <use xlink:href="#ArialMT-6f" x="754.207031"/>
      <use xlink:href="#ArialMT-6e" x="809.822266"/>
      <use xlink:href="#ArialMT-73" x="865.4375"/>
      <use xlink:href="#ArialMT-20" x="915.4375"/>
      <use xlink:href="#ArialMT-77" x="943.220703"/>
      <use xlink:href="#ArialMT-69" x="1015.4375"/>
      <use xlink:href="#ArialMT-74" x="1037.654297"/>
      <use xlink:href="#ArialMT-68" x="1065.4375"/>
      <use xlink:href="#ArialMT-20" x="1121.052734"/>
      <use xlink:href="#ArialMT-20" x="1148.835938"/>
      <use xlink:href="#ArialMT-36" x="1176.619141"/>
      <use xlink:href="#ArialMT-20" x="1232.234375"/>
      <use xlink:href="#ArialMT-54" x="1258.267578"/>
      <use xlink:href="#ArialMT-61" x="1308.226562"/>
      <use xlink:href="#ArialMT-63" x="1363.841797"/>
      <use xlink:href="#ArialMT-74" x="1413.841797"/>
      <use xlink:href="#ArialMT-6f" x="1441.625"/>
      <use xlink:href="#ArialMT-72" x="1497.240234"/>
      <use xlink:href="#ArialMT-73" x="1530.541016"/>
      <use xlink:href="#ArialMT-20" x="1580.541016"/>
      <use xlink:href="#ArialMT-28" x="1608.324219"/>
      <use xlink:href="#ArialMT-4c" x="1641.625"/>
      <use xlink:href="#ArialMT-65" x="1697.240234"/>
      <use xlink:href="#ArialMT-67" x="1752.855469"/>
      <use xlink:href="#ArialMT-73" x="1808.470703"/>
      <use xlink:href="#ArialMT-20" x="1858.470703"/>
      <use xlink:href="#ArialMT-49" x="1886.253906"/>
      <use xlink:href="#ArialMT-6e" x="1914.037109"/>
      <use xlink:href="#ArialMT-63" x="1969.652344"/>
      <use xlink:href="#ArialMT-6c" x="2019.652344"/>
      <use xlink:href="#ArialMT-75" x="2041.869141"/>
      <use xlink:href="#ArialMT-64" x="2097.484375"/>
      <use xlink:href="#ArialMT-65" x="2153.099609"/>
      <use xlink:href="#ArialMT-64" x="2208.714844"/>
      <use xlink:href="#ArialMT-29" x="2264.330078"/>
      <use xlink:href="#ArialMT-20" x="2297.630859"/>
      <use xlink:href="#ArialMT-61" x="2325.414062"/>
      <use xlink:href="#ArialMT-74" x="2381.029297"/>
      <use xlink:href="#ArialMT-20" x="2408.8125"/>
      <use xlink:href="#ArialMT-46" x="2436.595703"/>
      <use xlink:href="#ArialMT-7a" x="2497.679688"/>
      <use xlink:href="#ArialMT-20" x="2547.679688"/>
      <use xlink:href="#ArialMT-28" x="2575.462891"/>
      <use xlink:href="#ArialMT-6e" x="2608.763672"/>
      <use xlink:href="#ArialMT-3d" x="2664.378906"/>
      <use xlink:href="#ArialMT-31" x="2722.777344"/>
      <use xlink:href="#ArialMT-36" x="2778.392578"/>
      <use xlink:href="#ArialMT-29" x="2834.007812"/>
     </g>
    </g>
    <g id="line2d_15">
     <path d="M 148.866343 35.94083 
L 158.866343 35.94083 
L 168.866343 35.94083 
" style="fill: none; stroke: #e41a1c; stroke-width: 1.5; stroke-linecap: round"/>
    </g>
    <g id="text_14">
     <!-- Target -->
     <g style="fill: #262626" transform="translate(176.866343 39.44083)scale(0.1 -0.1)">
      <use xlink:href="#ArialMT-54"/>
      <use xlink:href="#ArialMT-61" x="49.958984"/>
      <use xlink:href="#ArialMT-72" x="105.574219"/>
      <use xlink:href="#ArialMT-67" x="138.875"/>
      <use xlink:href="#ArialMT-65" x="194.490234"/>
      <use xlink:href="#ArialMT-74" x="250.105469"/>
     </g>
    </g>
    <g id="line2d_16">
     <path d="M 224.652281 35.94083 
L 234.652281 35.94083 
L 244.652281 35.94083 
" style="fill: none; stroke: #377eb8; stroke-width: 1.5; stroke-linecap: round"/>
    </g>
    <g id="text_15">
     <!-- Non-Target -->
     <g style="fill: #262626" transform="translate(252.652281 39.44083)scale(0.1 -0.1)">
      <defs>
       <path id="ArialMT-4e" d="M 488 0 
L 488 4581 
L 1109 4581 
L 3516 984 
L 3516 4581 
L 4097 4581 
L 4097 0 
L 3475 0 
L 1069 3600 
L 1069 0 
L 488 0 
z
" transform="scale(0.015625)"/>
       <path id="ArialMT-2d" d="M 203 1375 
L 203 1941 
L 1931 1941 
L 1931 1375 
L 203 1375 
z
" transform="scale(0.015625)"/>
      </defs>
      <use xlink:href="#ArialMT-4e"/>
      <use xlink:href="#ArialMT-6f" x="72.216797"/>
      <use xlink:href="#ArialMT-6e" x="127.832031"/>
      <use xlink:href="#ArialMT-2d" x="183.447266"/>
      <use xlink:href="#ArialMT-54" x="216.748047"/>
      <use xlink:href="#ArialMT-61" x="266.707031"/>
      <use xlink:href="#ArialMT-72" x="322.322266"/>
      <use xlink:href="#ArialMT-67" x="355.623047"/>
      <use xlink:href="#ArialMT-65" x="411.238281"/>
      <use xlink:href="#ArialMT-74" x="466.853516"/>
     </g>
    </g>
   </g>
  </g>
 </g>
 <defs>
  <clipPath id="pca08ddfa20">
   <rect x="36.425" y="69.788" width="378.127999" height="250.412"/>
  </clipPath>
 </defs>
</svg>
