<?xml version="1.0" encoding="utf-8" standalone="no"?>
<!DOCTYPE svg PUBLIC "-//W3C//DTD SVG 1.1//EN"
  "http://www.w3.org/Graphics/SVG/1.1/DTD/svg11.dtd">
<svg xmlns:xlink="http://www.w3.org/1999/xlink" width="432pt" height="360pt" viewBox="0 0 432 360" xmlns="http://www.w3.org/2000/svg" version="1.1">
 <metadata>
  <rdf:RDF xmlns:dc="http://purl.org/dc/elements/1.1/" xmlns:cc="http://creativecommons.org/ns#" xmlns:rdf="http://www.w3.org/1999/02/22-rdf-syntax-ns#">
   <cc:Work>
    <dc:type rdf:resource="http://purl.org/dc/dcmitype/StillImage"/>
    <dc:date>2022-12-20T14:57:13.536530</dc:date>
    <dc:format>image/svg+xml</dc:format>
    <dc:creator>
     <cc:Agent>
      <dc:title>Matplotlib v3.5.1, https://matplotlib.org/</dc:title>
     </cc:Agent>
    </dc:creator>
   </cc:Work>
  </rdf:RDF>
 </metadata>
 <defs>
  <style type="text/css">*{stroke-linejoin: round; stroke-linecap: butt}</style>
 </defs>
 <g id="figure_1">
  <g id="patch_1">
   <path d="M 0 360 
L 432 360 
L 432 0 
L 0 0 
L 0 360 
z
" style="fill: none"/>
  </g>
  <g id="axes_1">
   <g id="patch_2">
    <path d="M 38.175 318.2 
L 413.615499 318.2 
L 413.615499 70.788 
L 38.175 70.788 
L 38.175 318.2 
z
" style="fill: none"/>
   </g>
   <g id="PolyCollection_1">
    <defs>
     <path id="m47d8c32e62" d="M 38.175 -75.675293 
L 38.175 -67.974809 
L 38.989405 -68.311388 
L 39.803809 -68.834419 
L 40.618214 -69.454455 
L 41.432618 -70.053504 
L 42.247023 -70.541826 
L 43.061427 -70.895068 
L 43.875832 -71.138196 
L 44.690236 -71.307463 
L 45.504641 -71.429702 
L 46.319046 -71.522628 
L 47.13345 -71.606611 
L 47.947855 -71.716759 
L 48.762259 -71.901423 
L 49.576664 -72.200422 
L 50.391068 -72.616775 
L 51.205473 -73.107143 
L 52.019877 -73.602951 
L 52.834282 -74.045532 
L 53.648687 -74.401446 
L 54.463091 -74.649362 
L 55.277496 -74.763125 
L 56.0919 -74.713738 
L 56.906305 -74.494777 
L 57.720709 -74.152428 
L 58.535114 -73.783972 
L 59.349518 -73.49555 
L 60.163923 -73.354144 
L 60.978327 -73.366372 
L 61.792732 -73.493288 
L 62.607137 -73.68985 
L 63.421541 -73.934751 
L 64.235946 -74.223 
L 65.05035 -74.537588 
L 65.864755 -74.832883 
L 66.679159 -75.04475 
L 67.493564 -75.125588 
L 68.307968 -75.081758 
L 69.122373 -74.975513 
L 69.936778 -74.885016 
L 70.751182 -74.855433 
L 71.565587 -74.868136 
L 72.379991 -74.84682 
L 73.194396 -74.729018 
L 74.0088 -74.555607 
L 74.823205 -74.450286 
L 75.637609 -74.527215 
L 76.452014 -74.834487 
L 77.266419 -75.337228 
L 78.080823 -75.92485 
L 78.895228 -76.453221 
L 79.709632 -76.825396 
L 80.524037 -77.046418 
L 81.338441 -77.186824 
L 82.152846 -77.307597 
L 82.96725 -77.418328 
L 83.781655 -77.47882 
L 84.59606 -77.434767 
L 85.410464 -77.269472 
L 86.224869 -77.030603 
L 87.039273 -76.803932 
L 87.853678 -76.660976 
L 88.668082 -76.625239 
L 89.482487 -76.675907 
L 90.296891 -76.784102 
L 91.111296 -76.954683 
L 91.9257 -77.2347 
L 92.740105 -77.681957 
L 93.55451 -78.326986 
L 94.368914 -79.155133 
L 95.183319 -80.109878 
L 95.997723 -81.1078 
L 96.812128 -82.056541 
L 97.626532 -82.871191 
L 98.440937 -83.486471 
L 99.255341 -83.863606 
L 100.069746 -83.991957 
L 100.884151 -83.887835 
L 101.698555 -83.593451 
L 102.51296 -83.175512 
L 103.327364 -82.718545 
L 104.141769 -82.309236 
L 104.956173 -82.015247 
L 105.770578 -81.86753 
L 106.584982 -81.856066 
L 107.399387 -81.944164 
L 108.213792 -82.096023 
L 109.028196 -82.298591 
L 109.842601 -82.557359 
L 110.657005 -82.8677 
L 111.47141 -83.188104 
L 112.285814 -83.444106 
L 113.100219 -83.569437 
L 113.914623 -83.552596 
L 114.729028 -83.441412 
L 115.543433 -83.304158 
L 116.357837 -83.188969 
L 117.172242 -83.110212 
L 117.986646 -83.063172 
L 118.801051 -83.052139 
L 119.615455 -83.106275 
L 120.42986 -83.264257 
L 121.244264 -83.538003 
L 122.058669 -83.88672 
L 122.873074 -84.223387 
L 123.687478 -84.450304 
L 124.501883 -84.498513 
L 125.316287 -84.344405 
L 126.130692 -84.001746 
L 126.945096 -83.507877 
L 127.759501 -82.918071 
L 128.573905 -82.307114 
L 129.38831 -81.768304 
L 130.202714 -81.40123 
L 131.017119 -81.288404 
L 131.831524 -81.471392 
L 132.645928 -81.940356 
L 133.460333 -82.643968 
L 134.274737 -83.512295 
L 135.089142 -84.475338 
L 135.903546 -85.465674 
L 136.717951 -86.411144 
L 137.532355 -87.233023 
L 138.34676 -87.860655 
L 139.161165 -88.261099 
L 139.975569 -88.465019 
L 140.789974 -88.56371 
L 141.604378 -88.672646 
L 142.418783 -88.884568 
L 143.233187 -89.238818 
L 144.047592 -89.718823 
L 144.861996 -90.273749 
L 145.676401 -90.847387 
L 146.490806 -91.392476 
L 147.30521 -91.864799 
L 148.119615 -92.217026 
L 148.934019 -92.412596 
L 149.748424 -92.45216 
L 150.562828 -92.384124 
L 151.377233 -92.285822 
L 152.191637 -92.229783 
L 153.006042 -92.257071 
L 153.820447 -92.369855 
L 154.634851 -92.544491 
L 155.449256 -92.757769 
L 156.26366 -93.010396 
L 157.078065 -93.330127 
L 157.892469 -93.752377 
L 158.706874 -94.295444 
L 159.521278 -94.948597 
L 160.335683 -95.675613 
L 161.150087 -96.424766 
L 161.964492 -97.138067 
L 162.778897 -97.760251 
L 163.593301 -98.250627 
L 164.407706 -98.595258 
L 165.22211 -98.812078 
L 166.036515 -98.944277 
L 166.850919 -99.045671 
L 167.665324 -99.167515 
L 168.479728 -99.354117 
L 169.294133 -99.645613 
L 170.108538 -100.077682 
L 170.922942 -100.669432 
L 171.737347 -101.403333 
L 172.551751 -102.21324 
L 173.366156 -102.996221 
L 174.18056 -103.65092 
L 174.994965 -104.123881 
L 175.809369 -104.430781 
L 176.623774 -104.636126 
L 177.438179 -104.811859 
L 178.252583 -105.007977 
L 179.066988 -105.250459 
L 179.881392 -105.55777 
L 180.695797 -105.952388 
L 181.510201 -106.450439 
L 182.324606 -107.037962 
L 183.13901 -107.657798 
L 183.953415 -108.222441 
L 184.76782 -108.647654 
L 185.582224 -108.885577 
L 186.396629 -108.935707 
L 187.211033 -108.831313 
L 188.025438 -108.618412 
L 188.839842 -108.343288 
L 189.654247 -108.05034 
L 190.468651 -107.780963 
L 191.283056 -107.566472 
L 192.097461 -107.418273 
L 192.911865 -107.325333 
L 193.72627 -107.266012 
L 194.540674 -107.230438 
L 195.355079 -107.238067 
L 196.169483 -107.334009 
L 196.983888 -107.563891 
L 197.798292 -107.945189 
L 198.612697 -108.455298 
L 199.427101 -109.042899 
L 200.241506 -109.652447 
L 201.055911 -110.243954 
L 201.870315 -110.798475 
L 202.68472 -111.314565 
L 203.499124 -111.804042 
L 204.313529 -112.287683 
L 205.127933 -112.786698 
L 205.942338 -113.30906 
L 206.756742 -113.836918 
L 207.571147 -114.326086 
L 208.385552 -114.723834 
L 209.199956 -114.995502 
L 210.014361 -115.137406 
L 210.828765 -115.165991 
L 211.64317 -115.098951 
L 212.457574 -114.948503 
L 213.271979 -114.730975 
L 214.086383 -114.481732 
L 214.900788 -114.260133 
L 215.715193 -114.135657 
L 216.529597 -114.16052 
L 217.344002 -114.344499 
L 218.158406 -114.647071 
L 218.972811 -114.992158 
L 219.787215 -115.29841 
L 220.60162 -115.509123 
L 221.416024 -115.606911 
L 222.230429 -115.610274 
L 223.044834 -115.560106 
L 223.859238 -115.505223 
L 224.673643 -115.490335 
L 225.488047 -115.545758 
L 226.302452 -115.678073 
L 227.116856 -115.863718 
L 227.931261 -116.04924 
L 228.745665 -116.161097 
L 229.56007 -116.124052 
L 230.374474 -115.883509 
L 231.188879 -115.424792 
L 232.003284 -114.78262 
L 232.817688 -114.036586 
L 233.632093 -113.292963 
L 234.446497 -112.658653 
L 235.260902 -112.215666 
L 236.075306 -112.00483 
L 236.889711 -112.022601 
L 237.704115 -112.228685 
L 238.51852 -112.558691 
L 239.332925 -112.937881 
L 240.147329 -113.29629 
L 240.961734 -113.585705 
L 241.776138 -113.795348 
L 242.590543 -113.958411 
L 243.404947 -114.142395 
L 244.219352 -114.4241 
L 245.033756 -114.859742 
L 245.848161 -115.463814 
L 246.662566 -116.203932 
L 247.47697 -117.009342 
L 248.291375 -117.784665 
L 249.105779 -118.423143 
L 249.920184 -118.820773 
L 250.734588 -118.897254 
L 251.548993 -118.625389 
L 252.363397 -118.057785 
L 253.177802 -117.330179 
L 253.992207 -116.629578 
L 254.806611 -116.14096 
L 255.621016 -115.998645 
L 256.43542 -116.260379 
L 257.249825 -116.9067 
L 258.064229 -117.858002 
L 258.878634 -118.999025 
L 259.693038 -120.203848 
L 260.507443 -121.359479 
L 261.321848 -122.386907 
L 262.136252 -123.254605 
L 262.950657 -123.97778 
L 263.765061 -124.602253 
L 264.579466 -125.18065 
L 265.39387 -125.752273 
L 266.208275 -126.334957 
L 267.022679 -126.928274 
L 267.837084 -127.52051 
L 268.651488 -128.090811 
L 269.465893 -128.606755 
L 270.280298 -129.026919 
L 271.094702 -129.315288 
L 271.909107 -129.461488 
L 272.723511 -129.491905 
L 273.537916 -129.463337 
L 274.35232 -129.443975 
L 275.166725 -129.49361 
L 275.981129 -129.651039 
L 276.795534 -129.929284 
L 277.609939 -130.314935 
L 278.424343 -130.768771 
L 279.238748 -131.229405 
L 280.053152 -131.625055 
L 280.867557 -131.895314 
L 281.681961 -132.014681 
L 282.496366 -132.003374 
L 283.31077 -131.919276 
L 284.125175 -131.838847 
L 284.93958 -131.838401 
L 285.753984 -131.980812 
L 286.568389 -132.307034 
L 287.382793 -132.829799 
L 288.197198 -133.528907 
L 289.011602 -134.351099 
L 289.826007 -135.219449 
L 290.640411 -136.052937 
L 291.454816 -136.787877 
L 292.269221 -137.389435 
L 293.083625 -137.850265 
L 293.89803 -138.183813 
L 294.712434 -138.419608 
L 295.526839 -138.60099 
L 296.341243 -138.780893 
L 297.155648 -139.011722 
L 297.970052 -139.329516 
L 298.784457 -139.736977 
L 299.598862 -140.193746 
L 300.413266 -140.622593 
L 301.227671 -140.93608 
L 302.042075 -141.074191 
L 302.85648 -141.028447 
L 303.670884 -140.836898 
L 304.485289 -140.56137 
L 305.299693 -140.265971 
L 306.114098 -140.004001 
L 306.928502 -139.811991 
L 307.742907 -139.709166 
L 308.557312 -139.700569 
L 309.371716 -139.780209 
L 310.186121 -139.930485 
L 311.000525 -140.118471 
L 311.81493 -140.295651 
L 312.629334 -140.408471 
L 313.443739 -140.419371 
L 314.258143 -140.325792 
L 315.072548 -140.16099 
L 315.886953 -139.973276 
L 316.701357 -139.798074 
L 317.515762 -139.642586 
L 318.330166 -139.493616 
L 319.144571 -139.342011 
L 319.958975 -139.201532 
L 320.77338 -139.102642 
L 321.587784 -139.066502 
L 322.402189 -139.084063 
L 323.216594 -139.119042 
L 324.030998 -139.132692 
L 324.845403 -139.11019 
L 325.659807 -139.067114 
L 326.474212 -139.032036 
L 327.288616 -139.022133 
L 328.103021 -139.033591 
L 328.917425 -139.05566 
L 329.73183 -139.096781 
L 330.546235 -139.197643 
L 331.360639 -139.415568 
L 332.175044 -139.791721 
L 332.989448 -140.326384 
L 333.803853 -140.977179 
L 334.618257 -141.67716 
L 335.432662 -142.358218 
L 336.247066 -142.965608 
L 337.061471 -143.46008 
L 337.875875 -143.815291 
L 338.69028 -144.020252 
L 339.504685 -144.087971 
L 340.319089 -144.061625 
L 341.133494 -144.008838 
L 341.947898 -144.004254 
L 342.762303 -144.110048 
L 343.576707 -144.364034 
L 344.391112 -144.778292 
L 345.205516 -145.344776 
L 346.019921 -146.043152 
L 346.834326 -146.84723 
L 347.64873 -147.729231 
L 348.463135 -148.661885 
L 349.277539 -149.618125 
L 350.091944 -150.568941 
L 350.906348 -151.482086 
L 351.720753 -152.326062 
L 352.535157 -153.079858 
L 353.349562 -153.74297 
L 354.163967 -154.33683 
L 354.978371 -154.894405 
L 355.792776 -155.443901 
L 356.60718 -155.99657 
L 357.421585 -156.545871 
L 358.235989 -157.077256 
L 359.050394 -157.581423 
L 359.864798 -158.059529 
L 360.679203 -158.514816 
L 361.493608 -158.93837 
L 362.308012 -159.305311 
L 363.122417 -159.590704 
L 363.936821 -159.794854 
L 364.751226 -159.956172 
L 365.56563 -160.138788 
L 366.380035 -160.403593 
L 367.194439 -160.780944 
L 368.008844 -161.258981 
L 368.823249 -161.789053 
L 369.637653 -162.302779 
L 370.452058 -162.732568 
L 371.266462 -163.028102 
L 372.080867 -163.166513 
L 372.895271 -163.15929 
L 373.709676 -163.056344 
L 374.52408 -162.943253 
L 375.338485 -162.924863 
L 376.152889 -163.096301 
L 376.967294 -163.51196 
L 377.781699 -164.166327 
L 378.596103 -164.994322 
L 379.410508 -165.890041 
L 380.224912 -166.736358 
L 381.039317 -167.435166 
L 381.853721 -167.930208 
L 382.668126 -168.218584 
L 383.48253 -168.35058 
L 384.296935 -168.418996 
L 385.11134 -168.538745 
L 385.925744 -168.819451 
L 386.740149 -169.336377 
L 387.554553 -170.107733 
L 388.368958 -171.085905 
L 389.183362 -172.16653 
L 389.997767 -173.213952 
L 390.812171 -174.096543 
L 391.626576 -174.723469 
L 392.440981 -175.072942 
L 393.255385 -175.203888 
L 394.06979 -175.245967 
L 394.884194 -175.36875 
L 395.698599 -175.737669 
L 396.513003 -176.468597 
L 397.327408 -177.594547 
L 398.141812 -179.053441 
L 398.956217 -180.699779 
L 399.770622 -182.336079 
L 400.585026 -183.755612 
L 401.399431 -184.786874 
L 402.213835 -185.331157 
L 403.02824 -185.385748 
L 403.842644 -185.046736 
L 404.657049 -184.489013 
L 405.471453 -183.926097 
L 406.285858 -183.560243 
L 407.100262 -183.53679 
L 407.914667 -183.91509 
L 408.729072 -184.662644 
L 409.543476 -185.671117 
L 410.357881 -186.7873 
L 411.172285 -187.849539 
L 411.98669 -188.722078 
L 412.801094 -189.32185 
L 413.615499 -189.633703 
L 413.615499 -229.271519 
L 413.615499 -229.271519 
L 412.801094 -228.965355 
L 411.98669 -228.441541 
L 411.172285 -227.680617 
L 410.357881 -226.726991 
L 409.543476 -225.681547 
L 408.729072 -224.676122 
L 407.914667 -223.837043 
L 407.100262 -223.249387 
L 406.285858 -222.932154 
L 405.471453 -222.830993 
L 404.657049 -222.828867 
L 403.842644 -222.771191 
L 403.02824 -222.499845 
L 402.213835 -221.889723 
L 401.399431 -220.880613 
L 400.585026 -219.496047 
L 399.770622 -217.842971 
L 398.956217 -216.089232 
L 398.141812 -214.423572 
L 397.327408 -213.009944 
L 396.513003 -211.949799 
L 395.698599 -211.262424 
L 394.884194 -210.886319 
L 394.06979 -210.698586 
L 393.255385 -210.545485 
L 392.440981 -210.277278 
L 391.626576 -209.780174 
L 390.812171 -208.999496 
L 389.997767 -207.949209 
L 389.183362 -206.70565 
L 388.368958 -205.387163 
L 387.554553 -204.124479 
L 386.740149 -203.029828 
L 385.925744 -202.171559 
L 385.11134 -201.559892 
L 384.296935 -201.146657 
L 383.48253 -200.83889 
L 382.668126 -200.523382 
L 381.853721 -200.095821 
L 381.039317 -199.485997 
L 380.224912 -198.670999 
L 379.410508 -197.673974 
L 378.596103 -196.551765 
L 377.781699 -195.379033 
L 376.967294 -194.235518 
L 376.152889 -193.198542 
L 375.338485 -192.338268 
L 374.52408 -191.711052 
L 373.709676 -191.348593 
L 372.895271 -191.246572 
L 372.080867 -191.359876 
L 371.266462 -191.610117 
L 370.452058 -191.901297 
L 369.637653 -192.134677 
L 368.823249 -192.217686 
L 368.008844 -192.071803 
L 367.194439 -191.643388 
L 366.380035 -190.91751 
L 365.56563 -189.928835 
L 364.751226 -188.761304 
L 363.936821 -187.531133 
L 363.122417 -186.355561 
L 362.308012 -185.318643 
L 361.493608 -184.453132 
L 360.679203 -183.747754 
L 359.864798 -183.168987 
L 359.050394 -182.676244 
L 358.235989 -182.222188 
L 357.421585 -181.746955 
L 356.60718 -181.180935 
L 355.792776 -180.461403 
L 354.978371 -179.554644 
L 354.163967 -178.47024 
L 353.349562 -177.258282 
L 352.535157 -175.990808 
L 351.720753 -174.736259 
L 350.906348 -173.539925 
L 350.091944 -172.41904 
L 349.277539 -171.3709 
L 348.463135 -170.385218 
L 347.64873 -169.452888 
L 346.834326 -168.570077 
L 346.019921 -167.738885 
L 345.205516 -166.966044 
L 344.391112 -166.259812 
L 343.576707 -165.625903 
L 342.762303 -165.064639 
L 341.947898 -164.571122 
L 341.133494 -164.138016 
L 340.319089 -163.756843 
L 339.504685 -163.414858 
L 338.69028 -163.088885 
L 337.875875 -162.74349 
L 337.061471 -162.339969 
L 336.247066 -161.852958 
L 335.432662 -161.282488 
L 334.618257 -160.652126 
L 333.803853 -159.995215 
L 332.989448 -159.341254 
L 332.175044 -158.713701 
L 331.360639 -158.138708 
L 330.546235 -157.653471 
L 329.73183 -157.301303 
L 328.917425 -157.109999 
L 328.103021 -157.067119 
L 327.288616 -157.115472 
L 326.474212 -157.177962 
L 325.659807 -157.194279 
L 324.845403 -157.142943 
L 324.030998 -157.036639 
L 323.216594 -156.899053 
L 322.402189 -156.744474 
L 321.587784 -156.577519 
L 320.77338 -156.410176 
L 319.958975 -156.275866 
L 319.144571 -156.222919 
L 318.330166 -156.287069 
L 317.515762 -156.463178 
L 316.701357 -156.70165 
L 315.886953 -156.934629 
L 315.072548 -157.111053 
L 314.258143 -157.216083 
L 313.443739 -157.266011 
L 312.629334 -157.286975 
L 311.81493 -157.295504 
L 311.000525 -157.294686 
L 310.186121 -157.283217 
L 309.371716 -157.26318 
L 308.557312 -157.237263 
L 307.742907 -157.198475 
L 306.928502 -157.122732 
L 306.114098 -156.972274 
L 305.299693 -156.709967 
L 304.485289 -156.318249 
L 303.670884 -155.814888 
L 302.85648 -155.25894 
L 302.042075 -154.741426 
L 301.227671 -154.358169 
L 300.413266 -154.172797 
L 299.598862 -154.192612 
L 298.784457 -154.373282 
L 297.970052 -154.641538 
L 297.155648 -154.915842 
L 296.341243 -155.117899 
L 295.526839 -155.178655 
L 294.712434 -155.044217 
L 293.89803 -154.684467 
L 293.083625 -154.103911 
L 292.269221 -153.349734 
L 291.454816 -152.509876 
L 290.640411 -151.696154 
L 289.826007 -151.015251 
L 289.011602 -150.540032 
L 288.197198 -150.294778 
L 287.382793 -150.257028 
L 286.568389 -150.368401 
L 285.753984 -150.548108 
L 284.93958 -150.70863 
L 284.125175 -150.774275 
L 283.31077 -150.700194 
L 282.496366 -150.485152 
L 281.681961 -150.171369 
L 280.867557 -149.828113 
L 280.053152 -149.524862 
L 279.238748 -149.307789 
L 278.424343 -149.191136 
L 277.609939 -149.16199 
L 276.795534 -149.188078 
L 275.981129 -149.222776 
L 275.166725 -149.210358 
L 274.35232 -149.096481 
L 273.537916 -148.842989 
L 272.723511 -148.440673 
L 271.909107 -147.912497 
L 271.094702 -147.304443 
L 270.280298 -146.669459 
L 269.465893 -146.054651 
L 268.651488 -145.498441 
L 267.837084 -145.031515 
L 267.022679 -144.671565 
L 266.208275 -144.410387 
L 265.39387 -144.20412 
L 264.579466 -143.9785 
L 263.765061 -143.649873 
L 262.950657 -143.151407 
L 262.136252 -142.451729 
L 261.321848 -141.56099 
L 260.507443 -140.525634 
L 259.693038 -139.418501 
L 258.878634 -138.328814 
L 258.064229 -137.351179 
L 257.249825 -136.570541 
L 256.43542 -136.044828 
L 255.621016 -135.792607 
L 254.806611 -135.792217 
L 253.992207 -135.992398 
L 253.177802 -136.32708 
L 252.363397 -136.724794 
L 251.548993 -137.108331 
L 250.734588 -137.391845 
L 249.920184 -137.490612 
L 249.105779 -137.346837 
L 248.291375 -136.955901 
L 247.47697 -136.37182 
L 246.662566 -135.687167 
L 245.848161 -134.999175 
L 245.033756 -134.379702 
L 244.219352 -133.86118 
L 243.404947 -133.439213 
L 242.590543 -133.084502 
L 241.776138 -132.755968 
L 240.961734 -132.413048 
L 240.147329 -132.029039 
L 239.332925 -131.605615 
L 238.51852 -131.182659 
L 237.704115 -130.834734 
L 236.889711 -130.651091 
L 236.075306 -130.705593 
L 235.260902 -131.029877 
L 234.446497 -131.601125 
L 233.632093 -132.347633 
L 232.817688 -133.167229 
L 232.003284 -133.95063 
L 231.188879 -134.603306 
L 230.374474 -135.061558 
L 229.56007 -135.301457 
L 228.745665 -135.339526 
L 227.931261 -135.225463 
L 227.116856 -135.028139 
L 226.302452 -134.817524 
L 225.488047 -134.646609 
L 224.673643 -134.538086 
L 223.859238 -134.480393 
L 223.044834 -134.435622 
L 222.230429 -134.357786 
L 221.416024 -134.214872 
L 220.60162 -134.004445 
L 219.787215 -133.753976 
L 218.972811 -133.505388 
L 218.158406 -133.293915 
L 217.344002 -133.134981 
L 216.529597 -133.02468 
L 215.715193 -132.948198 
L 214.900788 -132.886437 
L 214.086383 -132.815855 
L 213.271979 -132.704246 
L 212.457574 -132.510845 
L 211.64317 -132.198313 
L 210.828765 -131.754344 
L 210.014361 -131.20981 
L 209.199956 -130.637097 
L 208.385552 -130.121821 
L 207.571147 -129.719365 
L 206.756742 -129.424297 
L 205.942338 -129.174275 
L 205.127933 -128.880995 
L 204.313529 -128.463683 
L 203.499124 -127.870681 
L 202.68472 -127.089345 
L 201.870315 -126.14849 
L 201.055911 -125.114978 
L 200.241506 -124.081956 
L 199.427101 -123.146559 
L 198.612697 -122.383022 
L 197.798292 -121.82555 
L 196.983888 -121.471919 
L 196.169483 -121.302526 
L 195.355079 -121.297413 
L 194.540674 -121.438617 
L 193.72627 -121.699608 
L 192.911865 -122.036217 
L 192.097461 -122.39237 
L 191.283056 -122.717707 
L 190.468651 -122.98199 
L 189.654247 -123.175085 
L 188.839842 -123.294013 
L 188.025438 -123.328836 
L 187.211033 -123.259725 
L 186.396629 -123.067768 
L 185.582224 -122.749632 
L 184.76782 -122.321892 
L 183.953415 -121.81086 
L 183.13901 -121.24003 
L 182.324606 -120.630691 
L 181.510201 -120.014977 
L 180.695797 -119.444455 
L 179.881392 -118.979312 
L 179.066988 -118.659056 
L 178.252583 -118.473909 
L 177.438179 -118.362734 
L 176.623774 -118.244305 
L 175.809369 -118.060174 
L 174.994965 -117.799336 
L 174.18056 -117.489582 
L 173.366156 -117.165587 
L 172.551751 -116.844271 
L 171.737347 -116.528836 
L 170.922942 -116.22918 
L 170.108538 -115.971998 
L 169.294133 -115.788995 
L 168.479728 -115.691691 
L 167.665324 -115.651593 
L 166.850919 -115.60138 
L 166.036515 -115.457506 
L 165.22211 -115.149859 
L 164.407706 -114.642113 
L 163.593301 -113.936097 
L 162.778897 -113.064248 
L 161.964492 -112.079142 
L 161.150087 -111.045764 
L 160.335683 -110.035059 
L 159.521278 -109.114836 
L 158.706874 -108.339292 
L 157.892469 -107.74377 
L 157.078065 -107.347274 
L 156.26366 -107.155795 
L 155.449256 -107.156342 
L 154.634851 -107.302612 
L 153.820447 -107.508012 
L 153.006042 -107.660772 
L 152.191637 -107.657102 
L 151.377233 -107.434495 
L 150.562828 -106.989605 
L 149.748424 -106.373828 
L 148.934019 -105.668313 
L 148.119615 -104.950316 
L 147.30521 -104.272241 
L 146.490806 -103.667344 
L 145.676401 -103.167463 
L 144.861996 -102.804907 
L 144.047592 -102.591959 
L 143.233187 -102.501378 
L 142.418783 -102.470676 
L 141.604378 -102.42789 
L 140.789974 -102.318636 
L 139.975569 -102.117258 
L 139.161165 -101.81686 
L 138.34676 -101.406726 
L 137.532355 -100.859132 
L 136.717951 -100.143752 
L 135.903546 -99.261035 
L 135.089142 -98.266876 
L 134.274737 -97.269454 
L 133.460333 -96.39877 
L 132.645928 -95.76509 
L 131.831524 -95.428556 
L 131.017119 -95.392248 
L 130.202714 -95.613264 
L 129.38831 -96.017117 
L 128.573905 -96.508094 
L 127.759501 -96.978052 
L 126.945096 -97.320777 
L 126.130692 -97.45434 
L 125.316287 -97.344889 
L 124.501883 -97.01869 
L 123.687478 -96.551314 
L 122.873074 -96.034829 
L 122.058669 -95.541936 
L 121.244264 -95.112471 
L 120.42986 -94.766593 
L 119.615455 -94.523185 
L 118.801051 -94.40052 
L 117.986646 -94.39625 
L 117.172242 -94.466151 
L 116.357837 -94.528716 
L 115.543433 -94.500978 
L 114.729028 -94.34191 
L 113.914623 -94.075088 
L 113.100219 -93.775161 
L 112.285814 -93.520911 
L 111.47141 -93.346375 
L 110.657005 -93.235004 
L 109.842601 -93.15814 
L 109.028196 -93.111833 
L 108.213792 -93.119759 
L 107.399387 -93.207312 
L 106.584982 -93.373241 
L 105.770578 -93.584112 
L 104.956173 -93.793044 
L 104.141769 -93.963343 
L 103.327364 -94.079762 
L 102.51296 -94.143938 
L 101.698555 -94.160575 
L 100.884151 -94.124545 
L 100.069746 -94.017215 
L 99.255341 -93.813234 
L 98.440937 -93.491053 
L 97.626532 -93.039573 
L 96.812128 -92.459195 
L 95.997723 -91.760029 
L 95.183319 -90.959839 
L 94.368914 -90.083079 
L 93.55451 -89.162201 
L 92.740105 -88.24168 
L 91.9257 -87.382129 
L 91.111296 -86.657655 
L 90.296891 -86.137199 
L 89.482487 -85.850146 
L 88.668082 -85.76128 
L 87.853678 -85.786402 
L 87.039273 -85.84025 
L 86.224869 -85.87743 
L 85.410464 -85.899872 
L 84.59606 -85.926775 
L 83.781655 -85.946417 
L 82.96725 -85.894691 
L 82.152846 -85.686927 
L 81.338441 -85.273597 
L 80.524037 -84.677894 
L 79.709632 -83.996398 
L 78.895228 -83.353409 
L 78.080823 -82.819494 
L 77.266419 -82.367169 
L 76.452014 -81.917874 
L 75.637609 -81.415966 
L 74.823205 -80.8665 
L 74.0088 -80.339424 
L 73.194396 -79.951378 
L 72.379991 -79.809295 
L 71.565587 -79.91973 
L 70.751182 -80.171348 
L 69.936778 -80.428356 
L 69.122373 -80.60699 
L 68.307968 -80.688271 
L 67.493564 -80.694904 
L 66.679159 -80.651082 
L 65.864755 -80.550268 
L 65.05035 -80.362458 
L 64.235946 -80.072664 
L 63.421541 -79.711534 
L 62.607137 -79.355108 
L 61.792732 -79.092638 
L 60.978327 -78.979797 
L 60.163923 -79.013873 
L 59.349518 -79.151189 
L 58.535114 -79.342702 
L 57.720709 -79.555636 
L 56.906305 -79.769332 
L 56.0919 -79.951483 
L 55.277496 -80.042361 
L 54.463091 -79.975966 
L 53.648687 -79.723756 
L 52.834282 -79.320475 
L 52.019877 -78.85325 
L 51.205473 -78.421346 
L 50.391068 -78.094726 
L 49.576664 -77.902131 
L 48.762259 -77.845531 
L 47.947855 -77.911851 
L 47.13345 -78.067577 
L 46.319046 -78.247911 
L 45.504641 -78.361433 
L 44.690236 -78.317793 
L 43.875832 -78.065139 
L 43.061427 -77.617936 
L 42.247023 -77.060533 
L 41.432618 -76.516102 
L 40.618214 -76.087678 
L 39.803809 -75.815344 
L 38.989405 -75.68713 
L 38.175 -75.675293 
z
" style="stroke: #e41a1c; stroke-opacity: 0.3"/>
    </defs>
    <g clip-path="url(#p125eb78bb5)">
     <use xlink:href="#m47d8c32e62" x="0" y="360" style="fill: #e41a1c; fill-opacity: 0.3; stroke: #e41a1c; stroke-opacity: 0.3"/>
    </g>
   </g>
   <g id="PolyCollection_2">
    <defs>
     <path id="m873bf17a17" d="M 38.175 -81.201504 
L 38.175 -76.721991 
L 38.989405 -76.698059 
L 39.803809 -76.588573 
L 40.618214 -76.396437 
L 41.432618 -76.142407 
L 42.247023 -75.866644 
L 43.061427 -75.617685 
L 43.875832 -75.433431 
L 44.690236 -75.328591 
L 45.504641 -75.295629 
L 46.319046 -75.312571 
L 47.13345 -75.34941 
L 47.947855 -75.372851 
L 48.762259 -75.354178 
L 49.576664 -75.281594 
L 50.391068 -75.17002 
L 51.205473 -75.058252 
L 52.019877 -74.992274 
L 52.834282 -75.00435 
L 53.648687 -75.098633 
L 54.463091 -75.248443 
L 55.277496 -75.405075 
L 56.0919 -75.513982 
L 56.906305 -75.531352 
L 57.720709 -75.435458 
L 58.535114 -75.231819 
L 59.349518 -74.953731 
L 60.163923 -74.656252 
L 60.978327 -74.401867 
L 61.792732 -74.241079 
L 62.607137 -74.194464 
L 63.421541 -74.243145 
L 64.235946 -74.335331 
L 65.05035 -74.414289 
L 65.864755 -74.450786 
L 66.679159 -74.444901 
L 67.493564 -74.40227 
L 68.307968 -74.31764 
L 69.122373 -74.17472 
L 69.936778 -73.959876 
L 70.751182 -73.684149 
L 71.565587 -73.390666 
L 72.379991 -73.132713 
L 73.194396 -72.945131 
L 74.0088 -72.832776 
L 74.823205 -72.77713 
L 75.637609 -72.752055 
L 76.452014 -72.738064 
L 77.266419 -72.727657 
L 78.080823 -72.722207 
L 78.895228 -72.726013 
L 79.709632 -72.743194 
L 80.524037 -72.778937 
L 81.338441 -72.84166 
L 82.152846 -72.941026 
L 82.96725 -73.08075 
L 83.781655 -73.250902 
L 84.59606 -73.425967 
L 85.410464 -73.572295 
L 86.224869 -73.663482 
L 87.039273 -73.69643 
L 87.853678 -73.697405 
L 88.668082 -73.71264 
L 89.482487 -73.788767 
L 90.296891 -73.954251 
L 91.111296 -74.210432 
L 91.9257 -74.536697 
L 92.740105 -74.907185 
L 93.55451 -75.307018 
L 94.368914 -75.735256 
L 95.183319 -76.195812 
L 95.997723 -76.687766 
L 96.812128 -77.201788 
L 97.626532 -77.721959 
L 98.440937 -78.229967 
L 99.255341 -78.708658 
L 100.069746 -79.142423 
L 100.884151 -79.513752 
L 101.698555 -79.799133 
L 102.51296 -79.97073 
L 103.327364 -80.008146 
L 104.141769 -79.91408 
L 104.956173 -79.720201 
L 105.770578 -79.476623 
L 106.584982 -79.23265 
L 107.399387 -79.020821 
L 108.213792 -78.851988 
L 109.028196 -78.723347 
L 109.842601 -78.633509 
L 110.657005 -78.591619 
L 111.47141 -78.611093 
L 112.285814 -78.694061 
L 113.100219 -78.821598 
L 113.914623 -78.958103 
L 114.729028 -79.0665 
L 115.543433 -79.123782 
L 116.357837 -79.127324 
L 117.172242 -79.090076 
L 117.986646 -79.030505 
L 118.801051 -78.965498 
L 119.615455 -78.910298 
L 120.42986 -78.883096 
L 121.244264 -78.906995 
L 122.058669 -79.003976 
L 122.873074 -79.18326 
L 123.687478 -79.432876 
L 124.501883 -79.720418 
L 125.316287 -80.002068 
L 126.130692 -80.234111 
L 126.945096 -80.381598 
L 127.759501 -80.422885 
L 128.573905 -80.352156 
L 129.38831 -80.181842 
L 130.202714 -79.943849 
L 131.017119 -79.685855 
L 131.831524 -79.461126 
L 132.645928 -79.314832 
L 133.460333 -79.273171 
L 134.274737 -79.340214 
L 135.089142 -79.503051 
L 135.903546 -79.741849 
L 136.717951 -80.039338 
L 137.532355 -80.386448 
L 138.34676 -80.783025 
L 139.161165 -81.235535 
L 139.975569 -81.753799 
L 140.789974 -82.34799 
L 141.604378 -83.025744 
L 142.418783 -83.788181 
L 143.233187 -84.624613 
L 144.047592 -85.507401 
L 144.861996 -86.390555 
L 145.676401 -87.215032 
L 146.490806 -87.920589 
L 147.30521 -88.460373 
L 148.119615 -88.812818 
L 148.934019 -88.987082 
L 149.748424 -89.02109 
L 150.562828 -88.974021 
L 151.377233 -88.914748 
L 152.191637 -88.908296 
L 153.006042 -89.002414 
L 153.820447 -89.217066 
L 154.634851 -89.539847 
L 155.449256 -89.92895 
L 156.26366 -90.323062 
L 157.078065 -90.6549 
L 157.892469 -90.864377 
L 158.706874 -90.908805 
L 159.521278 -90.769825 
L 160.335683 -90.457482 
L 161.150087 -90.010859 
L 161.964492 -89.49343 
L 162.778897 -88.982033 
L 163.593301 -88.551247 
L 164.407706 -88.257411 
L 165.22211 -88.12714 
L 166.036515 -88.153304 
L 166.850919 -88.298899 
L 167.665324 -88.507145 
L 168.479728 -88.714785 
L 169.294133 -88.864961 
L 170.108538 -88.916241 
L 170.922942 -88.846445 
L 171.737347 -88.65199 
L 172.551751 -88.345267 
L 173.366156 -87.952282 
L 174.18056 -87.511235 
L 174.994965 -87.070404 
L 175.809369 -86.682513 
L 176.623774 -86.39456 
L 177.438179 -86.235645 
L 178.252583 -86.208024 
L 179.066988 -86.28564 
L 179.881392 -86.420652 
L 180.695797 -86.554792 
L 181.510201 -86.630906 
L 182.324606 -86.602003 
L 183.13901 -86.437835 
L 183.953415 -86.130174 
L 184.76782 -85.696666 
L 185.582224 -85.181378 
L 186.396629 -84.649413 
L 187.211033 -84.17496 
L 188.025438 -83.825358 
L 188.839842 -83.645789 
L 189.654247 -83.648651 
L 190.468651 -83.810187 
L 191.283056 -84.074843 
L 192.097461 -84.366439 
L 192.911865 -84.603999 
L 193.72627 -84.719369 
L 194.540674 -84.672866 
L 195.355079 -84.463345 
L 196.169483 -84.129996 
L 196.983888 -83.744699 
L 197.798292 -83.396523 
L 198.612697 -83.172132 
L 199.427101 -83.137145 
L 200.241506 -83.323124 
L 201.055911 -83.72302 
L 201.870315 -84.294966 
L 202.68472 -84.972163 
L 203.499124 -85.675558 
L 204.313529 -86.326943 
L 205.127933 -86.861734 
L 205.942338 -87.241019 
L 206.756742 -87.460061 
L 207.571147 -87.547816 
L 208.385552 -87.554319 
L 209.199956 -87.52978 
L 210.014361 -87.504432 
L 210.828765 -87.477223 
L 211.64317 -87.417 
L 212.457574 -87.27529 
L 213.271979 -87.005763 
L 214.086383 -86.582355 
L 214.900788 -86.008614 
L 215.715193 -85.316182 
L 216.529597 -84.55642 
L 217.344002 -83.789242 
L 218.158406 -83.07064 
L 218.972811 -82.44011 
L 219.787215 -81.910769 
L 220.60162 -81.465612 
L 221.416024 -81.062248 
L 222.230429 -80.645435 
L 223.044834 -80.163208 
L 223.859238 -79.580105 
L 224.673643 -78.88243 
L 225.488047 -78.076037 
L 226.302452 -77.181606 
L 227.116856 -76.230983 
L 227.931261 -75.262962 
L 228.745665 -74.315932 
L 229.56007 -73.417938 
L 230.374474 -72.578917 
L 231.188879 -71.789376 
L 232.003284 -71.026452 
L 232.817688 -70.264402 
L 233.632093 -69.483985 
L 234.446497 -68.676232 
L 235.260902 -67.840617 
L 236.075306 -66.983132 
L 236.889711 -66.118883 
L 237.704115 -65.276415 
L 238.51852 -64.496163 
L 239.332925 -63.820445 
L 240.147329 -63.28044 
L 240.961734 -62.887251 
L 241.776138 -62.630903 
L 242.590543 -62.486639 
L 243.404947 -62.425225 
L 244.219352 -62.421866 
L 245.033756 -62.458674 
L 245.848161 -62.52 
L 246.662566 -62.58584 
L 247.47697 -62.630464 
L 248.291375 -62.628135 
L 249.105779 -62.561944 
L 249.920184 -62.429324 
L 250.734588 -62.24177 
L 251.548993 -62.0208 
L 252.363397 -61.793117 
L 253.177802 -61.58618 
L 253.992207 -61.424068 
L 254.806611 -61.323887 
L 255.621016 -61.293834 
L 256.43542 -61.334414 
L 257.249825 -61.44272 
L 258.064229 -61.616819 
L 258.878634 -61.856362 
L 259.693038 -62.158694 
L 260.507443 -62.513696 
L 261.321848 -62.90107 
L 262.136252 -63.291793 
L 262.950657 -63.653233 
L 263.765061 -63.956586 
L 264.579466 -64.184423 
L 265.39387 -64.33544 
L 266.208275 -64.423788 
L 267.022679 -64.472829 
L 267.837084 -64.505983 
L 268.651488 -64.538823 
L 269.465893 -64.575622 
L 270.280298 -64.611651 
L 271.094702 -64.640422 
L 271.909107 -64.662112 
L 272.723511 -64.687347 
L 273.537916 -64.732802 
L 274.35232 -64.811221 
L 275.166725 -64.921981 
L 275.981129 -65.047169 
L 276.795534 -65.155123 
L 277.609939 -65.211215 
L 278.424343 -65.192699 
L 279.238748 -65.100706 
L 280.053152 -64.961691 
L 280.867557 -64.816747 
L 281.681961 -64.705732 
L 282.496366 -64.655097 
L 283.31077 -64.674572 
L 284.125175 -64.761687 
L 284.93958 -64.907734 
L 285.753984 -65.097863 
L 286.568389 -65.305154 
L 287.382793 -65.486958 
L 288.197198 -65.593275 
L 289.011602 -65.587075 
L 289.826007 -65.462941 
L 290.640411 -65.248966 
L 291.454816 -64.992446 
L 292.269221 -64.742239 
L 293.083625 -64.537713 
L 293.89803 -64.405968 
L 294.712434 -64.363919 
L 295.526839 -64.41976 
L 296.341243 -64.570579 
L 297.155648 -64.797741 
L 297.970052 -65.065813 
L 298.784457 -65.329927 
L 299.598862 -65.551264 
L 300.413266 -65.712835 
L 301.227671 -65.825045 
L 302.042075 -65.918097 
L 302.85648 -66.028819 
L 303.670884 -66.190172 
L 304.485289 -66.425064 
L 305.299693 -66.742036 
L 306.114098 -67.130906 
L 306.928502 -67.559323 
L 307.742907 -67.972931 
L 308.557312 -68.302105 
L 309.371716 -68.476888 
L 310.186121 -68.44822 
L 311.000525 -68.207342 
L 311.81493 -67.791837 
L 312.629334 -67.275035 
L 313.443739 -66.747302 
L 314.258143 -66.298212 
L 315.072548 -66.002225 
L 315.886953 -65.90746 
L 316.701357 -66.027727 
L 317.515762 -66.339151 
L 318.330166 -66.78292 
L 319.144571 -67.275334 
L 319.958975 -67.724846 
L 320.77338 -68.053198 
L 321.587784 -68.213863 
L 322.402189 -68.199935 
L 323.216594 -68.039473 
L 324.030998 -67.783889 
L 324.845403 -67.495513 
L 325.659807 -67.236248 
L 326.474212 -67.056946 
L 327.288616 -66.988087 
L 328.103021 -67.033993 
L 328.917425 -67.173587 
L 329.73183 -67.369387 
L 330.546235 -67.582546 
L 331.360639 -67.786918 
L 332.175044 -67.9747 
L 332.989448 -68.151922 
L 333.803853 -68.329832 
L 334.618257 -68.518384 
L 335.432662 -68.723144 
L 336.247066 -68.943315 
L 337.061471 -69.16903 
L 337.875875 -69.379309 
L 338.69028 -69.544145 
L 339.504685 -69.634228 
L 340.319089 -69.636801 
L 341.133494 -69.569269 
L 341.947898 -69.479591 
L 342.762303 -69.431299 
L 343.576707 -69.482478 
L 344.391112 -69.670504 
L 345.205516 -70.007328 
L 346.019921 -70.483387 
L 346.834326 -71.074469 
L 347.64873 -71.746391 
L 348.463135 -72.456593 
L 349.277539 -73.156142 
L 350.091944 -73.795916 
L 350.906348 -74.336792 
L 351.720753 -74.759231 
L 352.535157 -75.06626 
L 353.349562 -75.277793 
L 354.163967 -75.419942 
L 354.978371 -75.515546 
L 355.792776 -75.579857 
L 356.60718 -75.621093 
L 357.421585 -75.643045 
L 358.235989 -75.646989 
L 359.050394 -75.632418 
L 359.864798 -75.598124 
L 360.679203 -75.545132 
L 361.493608 -75.48104 
L 362.308012 -75.423111 
L 363.122417 -75.396765 
L 363.936821 -75.428183 
L 364.751226 -75.533842 
L 365.56563 -75.712181 
L 366.380035 -75.94202 
L 367.194439 -76.188567 
L 368.008844 -76.413777 
L 368.823249 -76.586012 
L 369.637653 -76.685667 
L 370.452058 -76.706761 
L 371.266462 -76.656394 
L 372.080867 -76.55353 
L 372.895271 -76.426945 
L 373.709676 -76.311006 
L 374.52408 -76.238495 
L 375.338485 -76.231786 
L 376.152889 -76.295604 
L 376.967294 -76.414708 
L 377.781699 -76.557576 
L 378.596103 -76.684637 
L 379.410508 -76.758413 
L 380.224912 -76.752932 
L 381.039317 -76.660434 
L 381.853721 -76.493829 
L 382.668126 -76.284002 
L 383.48253 -76.072279 
L 384.296935 -75.900145 
L 385.11134 -75.799679 
L 385.925744 -75.788481 
L 386.740149 -75.870411 
L 387.554553 -76.040348 
L 388.368958 -76.289118 
L 389.183362 -76.606128 
L 389.997767 -76.980008 
L 390.812171 -77.399268 
L 391.626576 -77.854132 
L 392.440981 -78.338753 
L 393.255385 -78.852062 
L 394.06979 -79.395924 
L 394.884194 -79.971386 
L 395.698599 -80.575601 
L 396.513003 -81.201715 
L 397.327408 -81.84118 
L 398.141812 -82.485687 
L 398.956217 -83.126247 
L 399.770622 -83.750393 
L 400.585026 -84.340767 
L 401.399431 -84.877784 
L 402.213835 -85.346253 
L 403.02824 -85.742378 
L 403.842644 -86.076332 
L 404.657049 -86.367791 
L 405.471453 -86.6367 
L 406.285858 -86.894953 
L 407.100262 -87.143919 
L 407.914667 -87.378541 
L 408.729072 -87.594257 
L 409.543476 -87.791493 
L 410.357881 -87.975123 
L 411.172285 -88.150388 
L 411.98669 -88.318869 
L 412.801094 -88.47702 
L 413.615499 -88.617477 
L 413.615499 -106.891014 
L 413.615499 -106.891014 
L 412.801094 -106.589416 
L 411.98669 -106.213277 
L 411.172285 -105.781878 
L 410.357881 -105.321003 
L 409.543476 -104.860003 
L 408.729072 -104.427253 
L 407.914667 -104.044006 
L 407.100262 -103.71865 
L 406.285858 -103.444656 
L 405.471453 -103.20387 
L 404.657049 -102.973106 
L 403.842644 -102.729684 
L 403.02824 -102.452823 
L 402.213835 -102.121623 
L 401.399431 -101.713725 
L 400.585026 -101.208637 
L 399.770622 -100.595755 
L 398.956217 -99.882788 
L 398.141812 -99.098945 
L 397.327408 -98.28982 
L 396.513003 -97.505461 
L 395.698599 -96.786903 
L 394.884194 -96.156929 
L 394.06979 -95.61771 
L 393.255385 -95.154202 
L 392.440981 -94.740188 
L 391.626576 -94.345296 
L 390.812171 -93.942887 
L 389.997767 -93.518545 
L 389.183362 -93.076919 
L 388.368958 -92.643487 
L 387.554553 -92.258806 
L 386.740149 -91.9662 
L 385.925744 -91.79713 
L 385.11134 -91.760149 
L 384.296935 -91.837482 
L 383.48253 -91.989487 
L 382.668126 -92.164114 
L 381.853721 -92.307758 
L 381.039317 -92.375265 
L 380.224912 -92.337784 
L 379.410508 -92.187824 
L 378.596103 -91.940433 
L 377.781699 -91.629717 
L 376.967294 -91.301081 
L 376.152889 -91.001137 
L 375.338485 -90.767887 
L 374.52408 -90.623145 
L 373.709676 -90.568112 
L 372.895271 -90.582454 
L 372.080867 -90.62757 
L 371.266462 -90.654766 
L 370.452058 -90.617647 
L 369.637653 -90.485413 
L 368.823249 -90.252043 
L 368.008844 -89.937486 
L 367.194439 -89.580325 
L 366.380035 -89.22538 
L 365.56563 -88.911843 
L 364.751226 -88.666242 
L 363.936821 -88.500869 
L 363.122417 -88.415231 
L 362.308012 -88.397815 
L 361.493608 -88.427536 
L 360.679203 -88.47622 
L 359.864798 -88.513768 
L 359.050394 -88.515316 
L 358.235989 -88.467394 
L 357.421585 -88.369579 
L 356.60718 -88.230313 
L 355.792776 -88.058892 
L 354.978371 -87.857995 
L 354.163967 -87.620842 
L 353.349562 -87.334085 
L 352.535157 -86.983889 
L 351.720753 -86.560951 
L 350.906348 -86.062153 
L 350.091944 -85.490058 
L 349.277539 -84.853478 
L 348.463135 -84.170591 
L 347.64873 -83.471937 
L 346.834326 -82.798646 
L 346.019921 -82.193746 
L 345.205516 -81.689778 
L 344.391112 -81.299593 
L 343.576707 -81.016035 
L 342.762303 -80.820468 
L 341.947898 -80.694344 
L 341.133494 -80.625811 
L 340.319089 -80.606634 
L 339.504685 -80.622015 
L 338.69028 -80.642876 
L 337.875875 -80.629451 
L 337.061471 -80.544291 
L 336.247066 -80.364736 
L 335.432662 -80.087567 
L 334.618257 -79.726091 
L 333.803853 -79.304059 
L 332.989448 -78.851109 
L 332.175044 -78.400899 
L 331.360639 -77.989407 
L 330.546235 -77.649765 
L 329.73183 -77.403559 
L 328.917425 -77.253904 
L 328.103021 -77.18577 
L 327.288616 -77.173153 
L 326.474212 -77.187355 
L 325.659807 -77.201946 
L 324.845403 -77.194144 
L 324.030998 -77.145105 
L 323.216594 -77.041587 
L 322.402189 -76.879423 
L 321.587784 -76.666269 
L 320.77338 -76.420039 
L 319.958975 -76.162342 
L 319.144571 -75.911361 
L 318.330166 -75.67973 
L 317.515762 -75.47733 
L 316.701357 -75.314182 
L 315.886953 -75.200016 
L 315.072548 -75.14092 
L 314.258143 -75.13558 
L 313.443739 -75.173644 
L 312.629334 -75.237789 
L 311.81493 -75.308991 
L 311.000525 -75.371884 
L 310.186121 -75.415656 
L 309.371716 -75.429079 
L 308.557312 -75.395836 
L 307.742907 -75.297773 
L 306.928502 -75.124123 
L 306.114098 -74.877913 
L 305.299693 -74.575069 
L 304.485289 -74.238117 
L 303.670884 -73.888636 
L 302.85648 -73.542374 
L 302.042075 -73.209324 
L 301.227671 -72.898135 
L 300.413266 -72.620663 
L 299.598862 -72.39142 
L 298.784457 -72.221102 
L 297.970052 -72.110704 
L 297.155648 -72.053414 
L 296.341243 -72.042301 
L 295.526839 -72.075115 
L 294.712434 -72.151244 
L 293.89803 -72.263162 
L 293.083625 -72.389509 
L 292.269221 -72.496309 
L 291.454816 -72.547485 
L 290.640411 -72.519376 
L 289.826007 -72.411111 
L 289.011602 -72.244003 
L 288.197198 -72.049358 
L 287.382793 -71.853465 
L 286.568389 -71.672981 
L 285.753984 -71.52276 
L 284.93958 -71.423383 
L 284.125175 -71.397596 
L 283.31077 -71.457901 
L 282.496366 -71.596296 
L 281.681961 -71.785289 
L 280.867557 -71.989334 
L 280.053152 -72.178591 
L 279.238748 -72.336694 
L 278.424343 -72.459238 
L 277.609939 -72.545731 
L 276.795534 -72.592579 
L 275.981129 -72.593296 
L 275.166725 -72.545234 
L 274.35232 -72.456661 
L 273.537916 -72.34909 
L 272.723511 -72.253651 
L 271.909107 -72.202559 
L 271.094702 -72.218102 
L 270.280298 -72.303468 
L 269.465893 -72.440755 
L 268.651488 -72.597605 
L 267.837084 -72.738607 
L 267.022679 -72.835322 
L 266.208275 -72.871264 
L 265.39387 -72.841224 
L 264.579466 -72.746503 
L 263.765061 -72.589147 
L 262.950657 -72.368887 
L 262.136252 -72.08507 
L 261.321848 -71.74253 
L 260.507443 -71.357923 
L 259.693038 -70.963102 
L 258.878634 -70.603587 
L 258.064229 -70.331557 
L 257.249825 -70.194147 
L 256.43542 -70.219888 
L 255.621016 -70.408678 
L 254.806611 -70.730149 
L 253.992207 -71.130843 
L 253.177802 -71.546475 
L 252.363397 -71.91506 
L 251.548993 -72.188468 
L 250.734588 -72.341038 
L 249.920184 -72.373675 
L 249.105779 -72.311723 
L 248.291375 -72.1964 
L 247.47697 -72.072434 
L 246.662566 -71.977381 
L 245.848161 -71.937397 
L 245.033756 -71.968921 
L 244.219352 -72.081096 
L 243.404947 -72.274604 
L 242.590543 -72.53852 
L 241.776138 -72.850529 
L 240.961734 -73.184045 
L 240.147329 -73.520106 
L 239.332925 -73.857937 
L 238.51852 -74.218662 
L 237.704115 -74.639648 
L 236.889711 -75.160977 
L 236.075306 -75.80921 
L 235.260902 -76.587006 
L 234.446497 -77.474553 
L 233.632093 -78.439712 
L 232.817688 -79.447839 
L 232.003284 -80.466403 
L 231.188879 -81.466766 
L 230.374474 -82.427092 
L 229.56007 -83.336465 
L 228.745665 -84.197262 
L 227.931261 -85.022966 
L 227.116856 -85.83124 
L 226.302452 -86.63523 
L 225.488047 -87.438014 
L 224.673643 -88.233503 
L 223.859238 -89.012335 
L 223.044834 -89.766813 
L 222.230429 -90.491037 
L 221.416024 -91.178177 
L 220.60162 -91.819791 
L 219.787215 -92.409007 
L 218.972811 -92.944966 
L 218.158406 -93.434927 
L 217.344002 -93.89258 
L 216.529597 -94.33369 
L 215.715193 -94.771613 
L 214.900788 -95.214926 
L 214.086383 -95.667188 
L 213.271979 -96.126483 
L 212.457574 -96.583081 
L 211.64317 -97.0176 
L 210.828765 -97.403167 
L 210.014361 -97.71194 
L 209.199956 -97.922429 
L 208.385552 -98.024001 
L 207.571147 -98.016918 
L 206.756742 -97.908071 
L 205.942338 -97.704652 
L 205.127933 -97.410403 
L 204.313529 -97.028794 
L 203.499124 -96.572218 
L 202.68472 -96.070146 
L 201.870315 -95.569677 
L 201.055911 -95.127478 
L 200.241506 -94.797093 
L 199.427101 -94.616771 
L 198.612697 -94.601303 
L 197.798292 -94.739138 
L 196.983888 -94.994546 
L 196.169483 -95.314175 
L 195.355079 -95.636855 
L 194.540674 -95.905265 
L 193.72627 -96.07758 
L 192.911865 -96.136787 
L 192.097461 -96.095211 
L 191.283056 -95.992628 
L 190.468651 -95.88769 
L 189.654247 -95.844443 
L 188.839842 -95.91737 
L 188.025438 -96.138906 
L 187.211033 -96.512589 
L 186.396629 -97.012834 
L 185.582224 -97.590377 
L 184.76782 -98.181543 
L 183.953415 -98.72015 
L 183.13901 -99.150814 
L 182.324606 -99.44129 
L 181.510201 -99.590288 
L 180.695797 -99.627485 
L 179.881392 -99.605021 
L 179.066988 -99.583611 
L 178.252583 -99.618634 
L 177.438179 -99.750608 
L 176.623774 -100.001027 
L 175.809369 -100.371493 
L 174.994965 -100.843745 
L 174.18056 -101.380383 
L 173.366156 -101.928349 
L 172.551751 -102.427182 
L 171.737347 -102.821397 
L 170.922942 -103.073252 
L 170.108538 -103.17118 
L 169.294133 -103.131004 
L 168.479728 -102.99019 
L 167.665324 -102.798037 
L 166.850919 -102.605338 
L 166.036515 -102.4563 
L 165.22211 -102.383337 
L 164.407706 -102.404378 
L 163.593301 -102.521828 
L 162.778897 -102.722697 
L 161.964492 -102.979741 
L 161.150087 -103.253822 
L 160.335683 -103.498243 
L 159.521278 -103.665981 
L 158.706874 -103.719682 
L 157.892469 -103.641619 
L 157.078065 -103.439249 
L 156.26366 -103.14336 
L 155.449256 -102.799316 
L 154.634851 -102.45509 
L 153.820447 -102.150231 
L 153.006042 -101.908169 
L 152.191637 -101.73218 
L 151.377233 -101.604875 
L 150.562828 -101.491204 
L 149.748424 -101.345336 
L 148.934019 -101.120742 
L 148.119615 -100.781292 
L 147.30521 -100.310065 
L 146.490806 -99.712984 
L 145.676401 -99.017142 
L 144.861996 -98.265159 
L 144.047592 -97.507696 
L 143.233187 -96.795054 
L 142.418783 -96.16814 
L 141.604378 -95.649885 
L 140.789974 -95.239659 
L 139.975569 -94.913761 
L 139.161165 -94.633117 
L 138.34676 -94.356244 
L 137.532355 -94.052569 
L 136.717951 -93.71122 
L 135.903546 -93.342352 
L 135.089142 -92.971298 
L 134.274737 -92.628819 
L 133.460333 -92.341726 
L 132.645928 -92.127366 
L 131.831524 -91.991864 
L 131.017119 -91.930202 
L 130.202714 -91.925919 
L 129.38831 -91.950661 
L 128.573905 -91.966368 
L 127.759501 -91.932634 
L 126.945096 -91.818204 
L 126.130692 -91.611223 
L 125.316287 -91.322954 
L 124.501883 -90.983528 
L 123.687478 -90.633202 
L 122.873074 -90.314177 
L 122.058669 -90.065251 
L 121.244264 -89.91741 
L 120.42986 -89.887084 
L 119.615455 -89.967154 
L 118.801051 -90.121827 
L 117.986646 -90.292285 
L 117.172242 -90.413573 
L 116.357837 -90.434428 
L 115.543433 -90.330056 
L 114.729028 -90.102975 
L 113.914623 -89.774557 
L 113.100219 -89.374919 
L 112.285814 -88.938418 
L 111.47141 -88.505116 
L 110.657005 -88.121485 
L 109.842601 -87.83279 
L 109.028196 -87.666169 
L 108.213792 -87.614142 
L 107.399387 -87.633234 
L 106.584982 -87.662533 
L 105.770578 -87.650065 
L 104.956173 -87.571285 
L 104.141769 -87.431895 
L 103.327364 -87.255751 
L 102.51296 -87.065194 
L 101.698555 -86.866542 
L 100.884151 -86.649929 
L 100.069746 -86.398977 
L 99.255341 -86.098248 
L 98.440937 -85.734118 
L 97.626532 -85.29329 
L 96.812128 -84.76469 
L 95.997723 -84.146135 
L 95.183319 -83.452771 
L 94.368914 -82.7224 
L 93.55451 -82.013559 
L 92.740105 -81.393239 
L 91.9257 -80.915672 
L 91.111296 -80.601652 
L 90.296891 -80.432989 
L 89.482487 -80.365872 
L 88.668082 -80.351475 
L 87.853678 -80.351179 
L 87.039273 -80.341582 
L 86.224869 -80.309959 
L 85.410464 -80.245745 
L 84.59606 -80.136126 
L 83.781655 -79.970383 
L 82.96725 -79.748413 
L 82.152846 -79.485049 
L 81.338441 -79.205769 
L 80.524037 -78.935652 
L 79.709632 -78.687395 
L 78.895228 -78.456076 
L 78.080823 -78.224725 
L 77.266419 -77.977122 
L 76.452014 -77.709286 
L 75.637609 -77.432849 
L 74.823205 -77.169342 
L 74.0088 -76.940418 
L 73.194396 -76.761504 
L 72.379991 -76.642287 
L 71.565587 -76.591135 
L 70.751182 -76.616683 
L 69.936778 -76.719783 
L 69.122373 -76.87646 
L 68.307968 -77.032503 
L 67.493564 -77.127894 
L 66.679159 -77.131447 
L 65.864755 -77.059281 
L 65.05035 -76.97003 
L 64.235946 -76.935152 
L 63.421541 -76.996901 
L 62.607137 -77.151634 
L 61.792732 -77.368397 
L 60.978327 -77.611128 
L 60.163923 -77.849146 
L 59.349518 -78.060173 
L 58.535114 -78.230515 
L 57.720709 -78.354574 
L 56.906305 -78.435281 
L 56.0919 -78.484622 
L 55.277496 -78.520494 
L 54.463091 -78.559113 
L 53.648687 -78.608087 
L 52.834282 -78.665078 
L 52.019877 -78.721364 
L 51.205473 -78.766979 
L 50.391068 -78.794458 
L 49.576664 -78.799064 
L 48.762259 -78.776215 
L 47.947855 -78.721068 
L 47.13345 -78.635117 
L 46.319046 -78.535603 
L 45.504641 -78.457776 
L 44.690236 -78.445585 
L 43.875832 -78.536391 
L 43.061427 -78.749812 
L 42.247023 -79.085296 
L 41.432618 -79.522929 
L 40.618214 -80.021111 
L 39.803809 -80.515688 
L 38.989405 -80.930919 
L 38.175 -81.201504 
z
" style="stroke: #377eb8; stroke-opacity: 0.3"/>
    </defs>
    <g clip-path="url(#p125eb78bb5)">
     <use xlink:href="#m873bf17a17" x="0" y="360" style="fill: #377eb8; fill-opacity: 0.3; stroke: #377eb8; stroke-opacity: 0.3"/>
    </g>
   </g>
   <g id="patch_3">
    <path d="M 225.650928 318.2 
L 225.650928 70.788 
L 329.894711 70.788 
L 329.894711 318.2 
z
" clip-path="url(#p125eb78bb5)" style="fill: #808080; opacity: 0.3"/>
   </g>
   <g id="matplotlib.axis_1">
    <g id="xtick_1">
     <g id="line2d_1">
      <defs>
       <path id="mbca6d641d4" d="M 0 0 
L 0 3.5 
" style="stroke: #000000; stroke-width: 0.8"/>
      </defs>
      <g>
       <use xlink:href="#mbca6d641d4" x="79.709632" y="318.2" style="stroke: #000000; stroke-width: 0.8"/>
      </g>
     </g>
     <g id="text_1">
      <!-- 0.0 -->
      <g transform="translate(71.75807 332.798437)scale(0.1 -0.1)">
       <defs>
        <path id="DejaVuSans-30" d="M 2034 4250 
Q 1547 4250 1301 3770 
Q 1056 3291 1056 2328 
Q 1056 1369 1301 889 
Q 1547 409 2034 409 
Q 2525 409 2770 889 
Q 3016 1369 3016 2328 
Q 3016 3291 2770 3770 
Q 2525 4250 2034 4250 
z
M 2034 4750 
Q 2819 4750 3233 4129 
Q 3647 3509 3647 2328 
Q 3647 1150 3233 529 
Q 2819 -91 2034 -91 
Q 1250 -91 836 529 
Q 422 1150 422 2328 
Q 422 3509 836 4129 
Q 1250 4750 2034 4750 
z
" transform="scale(0.015625)"/>
        <path id="DejaVuSans-2e" d="M 684 794 
L 1344 794 
L 1344 0 
L 684 0 
L 684 794 
z
" transform="scale(0.015625)"/>
       </defs>
       <use xlink:href="#DejaVuSans-30"/>
       <use xlink:href="#DejaVuSans-2e" x="63.623047"/>
       <use xlink:href="#DejaVuSans-30" x="95.410156"/>
      </g>
     </g>
    </g>
    <g id="xtick_2">
     <g id="line2d_2">
      <g>
       <use xlink:href="#mbca6d641d4" x="163.104658" y="318.2" style="stroke: #000000; stroke-width: 0.8"/>
      </g>
     </g>
     <g id="text_2">
      <!-- 0.2 -->
      <g transform="translate(155.153096 332.798437)scale(0.1 -0.1)">
       <defs>
        <path id="DejaVuSans-32" d="M 1228 531 
L 3431 531 
L 3431 0 
L 469 0 
L 469 531 
Q 828 903 1448 1529 
Q 2069 2156 2228 2338 
Q 2531 2678 2651 2914 
Q 2772 3150 2772 3378 
Q 2772 3750 2511 3984 
Q 2250 4219 1831 4219 
Q 1534 4219 1204 4116 
Q 875 4013 500 3803 
L 500 4441 
Q 881 4594 1212 4672 
Q 1544 4750 1819 4750 
Q 2544 4750 2975 4387 
Q 3406 4025 3406 3419 
Q 3406 3131 3298 2873 
Q 3191 2616 2906 2266 
Q 2828 2175 2409 1742 
Q 1991 1309 1228 531 
z
" transform="scale(0.015625)"/>
       </defs>
       <use xlink:href="#DejaVuSans-30"/>
       <use xlink:href="#DejaVuSans-2e" x="63.623047"/>
       <use xlink:href="#DejaVuSans-32" x="95.410156"/>
      </g>
     </g>
    </g>
    <g id="xtick_3">
     <g id="line2d_3">
      <g>
       <use xlink:href="#mbca6d641d4" x="246.499685" y="318.2" style="stroke: #000000; stroke-width: 0.8"/>
      </g>
     </g>
     <g id="text_3">
      <!-- 0.4 -->
      <g transform="translate(238.548122 332.798437)scale(0.1 -0.1)">
       <defs>
        <path id="DejaVuSans-34" d="M 2419 4116 
L 825 1625 
L 2419 1625 
L 2419 4116 
z
M 2253 4666 
L 3047 4666 
L 3047 1625 
L 3713 1625 
L 3713 1100 
L 3047 1100 
L 3047 0 
L 2419 0 
L 2419 1100 
L 313 1100 
L 313 1709 
L 2253 4666 
z
" transform="scale(0.015625)"/>
       </defs>
       <use xlink:href="#DejaVuSans-30"/>
       <use xlink:href="#DejaVuSans-2e" x="63.623047"/>
       <use xlink:href="#DejaVuSans-34" x="95.410156"/>
      </g>
     </g>
    </g>
    <g id="xtick_4">
     <g id="line2d_4">
      <g>
       <use xlink:href="#mbca6d641d4" x="329.894711" y="318.2" style="stroke: #000000; stroke-width: 0.8"/>
      </g>
     </g>
     <g id="text_4">
      <!-- 0.6 -->
      <g transform="translate(321.943148 332.798437)scale(0.1 -0.1)">
       <defs>
        <path id="DejaVuSans-36" d="M 2113 2584 
Q 1688 2584 1439 2293 
Q 1191 2003 1191 1497 
Q 1191 994 1439 701 
Q 1688 409 2113 409 
Q 2538 409 2786 701 
Q 3034 994 3034 1497 
Q 3034 2003 2786 2293 
Q 2538 2584 2113 2584 
z
M 3366 4563 
L 3366 3988 
Q 3128 4100 2886 4159 
Q 2644 4219 2406 4219 
Q 1781 4219 1451 3797 
Q 1122 3375 1075 2522 
Q 1259 2794 1537 2939 
Q 1816 3084 2150 3084 
Q 2853 3084 3261 2657 
Q 3669 2231 3669 1497 
Q 3669 778 3244 343 
Q 2819 -91 2113 -91 
Q 1303 -91 875 529 
Q 447 1150 447 2328 
Q 447 3434 972 4092 
Q 1497 4750 2381 4750 
Q 2619 4750 2861 4703 
Q 3103 4656 3366 4563 
z
" transform="scale(0.015625)"/>
       </defs>
       <use xlink:href="#DejaVuSans-30"/>
       <use xlink:href="#DejaVuSans-2e" x="63.623047"/>
       <use xlink:href="#DejaVuSans-36" x="95.410156"/>
      </g>
     </g>
    </g>
    <g id="xtick_5">
     <g id="line2d_5">
      <g>
       <use xlink:href="#mbca6d641d4" x="413.289737" y="318.2" style="stroke: #000000; stroke-width: 0.8"/>
      </g>
     </g>
     <g id="text_5">
      <!-- 0.8 -->
      <g transform="translate(405.338175 332.798437)scale(0.1 -0.1)">
       <defs>
        <path id="DejaVuSans-38" d="M 2034 2216 
Q 1584 2216 1326 1975 
Q 1069 1734 1069 1313 
Q 1069 891 1326 650 
Q 1584 409 2034 409 
Q 2484 409 2743 651 
Q 3003 894 3003 1313 
Q 3003 1734 2745 1975 
Q 2488 2216 2034 2216 
z
M 1403 2484 
Q 997 2584 770 2862 
Q 544 3141 544 3541 
Q 544 4100 942 4425 
Q 1341 4750 2034 4750 
Q 2731 4750 3128 4425 
Q 3525 4100 3525 3541 
Q 3525 3141 3298 2862 
Q 3072 2584 2669 2484 
Q 3125 2378 3379 2068 
Q 3634 1759 3634 1313 
Q 3634 634 3220 271 
Q 2806 -91 2034 -91 
Q 1263 -91 848 271 
Q 434 634 434 1313 
Q 434 1759 690 2068 
Q 947 2378 1403 2484 
z
M 1172 3481 
Q 1172 3119 1398 2916 
Q 1625 2713 2034 2713 
Q 2441 2713 2670 2916 
Q 2900 3119 2900 3481 
Q 2900 3844 2670 4047 
Q 2441 4250 2034 4250 
Q 1625 4250 1398 4047 
Q 1172 3844 1172 3481 
z
" transform="scale(0.015625)"/>
       </defs>
       <use xlink:href="#DejaVuSans-30"/>
       <use xlink:href="#DejaVuSans-2e" x="63.623047"/>
       <use xlink:href="#DejaVuSans-38" x="95.410156"/>
      </g>
     </g>
    </g>
    <g id="text_6">
     <!-- seconds -->
     <g transform="translate(205.457749 346.476562)scale(0.1 -0.1)">
      <defs>
       <path id="DejaVuSans-73" d="M 2834 3397 
L 2834 2853 
Q 2591 2978 2328 3040 
Q 2066 3103 1784 3103 
Q 1356 3103 1142 2972 
Q 928 2841 928 2578 
Q 928 2378 1081 2264 
Q 1234 2150 1697 2047 
L 1894 2003 
Q 2506 1872 2764 1633 
Q 3022 1394 3022 966 
Q 3022 478 2636 193 
Q 2250 -91 1575 -91 
Q 1294 -91 989 -36 
Q 684 19 347 128 
L 347 722 
Q 666 556 975 473 
Q 1284 391 1588 391 
Q 1994 391 2212 530 
Q 2431 669 2431 922 
Q 2431 1156 2273 1281 
Q 2116 1406 1581 1522 
L 1381 1569 
Q 847 1681 609 1914 
Q 372 2147 372 2553 
Q 372 3047 722 3315 
Q 1072 3584 1716 3584 
Q 2034 3584 2315 3537 
Q 2597 3491 2834 3397 
z
" transform="scale(0.015625)"/>
       <path id="DejaVuSans-65" d="M 3597 1894 
L 3597 1613 
L 953 1613 
Q 991 1019 1311 708 
Q 1631 397 2203 397 
Q 2534 397 2845 478 
Q 3156 559 3463 722 
L 3463 178 
Q 3153 47 2828 -22 
Q 2503 -91 2169 -91 
Q 1331 -91 842 396 
Q 353 884 353 1716 
Q 353 2575 817 3079 
Q 1281 3584 2069 3584 
Q 2775 3584 3186 3129 
Q 3597 2675 3597 1894 
z
M 3022 2063 
Q 3016 2534 2758 2815 
Q 2500 3097 2075 3097 
Q 1594 3097 1305 2825 
Q 1016 2553 972 2059 
L 3022 2063 
z
" transform="scale(0.015625)"/>
       <path id="DejaVuSans-63" d="M 3122 3366 
L 3122 2828 
Q 2878 2963 2633 3030 
Q 2388 3097 2138 3097 
Q 1578 3097 1268 2742 
Q 959 2388 959 1747 
Q 959 1106 1268 751 
Q 1578 397 2138 397 
Q 2388 397 2633 464 
Q 2878 531 3122 666 
L 3122 134 
Q 2881 22 2623 -34 
Q 2366 -91 2075 -91 
Q 1284 -91 818 406 
Q 353 903 353 1747 
Q 353 2603 823 3093 
Q 1294 3584 2113 3584 
Q 2378 3584 2631 3529 
Q 2884 3475 3122 3366 
z
" transform="scale(0.015625)"/>
       <path id="DejaVuSans-6f" d="M 1959 3097 
Q 1497 3097 1228 2736 
Q 959 2375 959 1747 
Q 959 1119 1226 758 
Q 1494 397 1959 397 
Q 2419 397 2687 759 
Q 2956 1122 2956 1747 
Q 2956 2369 2687 2733 
Q 2419 3097 1959 3097 
z
M 1959 3584 
Q 2709 3584 3137 3096 
Q 3566 2609 3566 1747 
Q 3566 888 3137 398 
Q 2709 -91 1959 -91 
Q 1206 -91 779 398 
Q 353 888 353 1747 
Q 353 2609 779 3096 
Q 1206 3584 1959 3584 
z
" transform="scale(0.015625)"/>
       <path id="DejaVuSans-6e" d="M 3513 2113 
L 3513 0 
L 2938 0 
L 2938 2094 
Q 2938 2591 2744 2837 
Q 2550 3084 2163 3084 
Q 1697 3084 1428 2787 
Q 1159 2491 1159 1978 
L 1159 0 
L 581 0 
L 581 3500 
L 1159 3500 
L 1159 2956 
Q 1366 3272 1645 3428 
Q 1925 3584 2291 3584 
Q 2894 3584 3203 3211 
Q 3513 2838 3513 2113 
z
" transform="scale(0.015625)"/>
       <path id="DejaVuSans-64" d="M 2906 2969 
L 2906 4863 
L 3481 4863 
L 3481 0 
L 2906 0 
L 2906 525 
Q 2725 213 2448 61 
Q 2172 -91 1784 -91 
Q 1150 -91 751 415 
Q 353 922 353 1747 
Q 353 2572 751 3078 
Q 1150 3584 1784 3584 
Q 2172 3584 2448 3432 
Q 2725 3281 2906 2969 
z
M 947 1747 
Q 947 1113 1208 752 
Q 1469 391 1925 391 
Q 2381 391 2643 752 
Q 2906 1113 2906 1747 
Q 2906 2381 2643 2742 
Q 2381 3103 1925 3103 
Q 1469 3103 1208 2742 
Q 947 2381 947 1747 
z
" transform="scale(0.015625)"/>
      </defs>
      <use xlink:href="#DejaVuSans-73"/>
      <use xlink:href="#DejaVuSans-65" x="52.099609"/>
      <use xlink:href="#DejaVuSans-63" x="113.623047"/>
      <use xlink:href="#DejaVuSans-6f" x="168.603516"/>
      <use xlink:href="#DejaVuSans-6e" x="229.785156"/>
      <use xlink:href="#DejaVuSans-64" x="293.164062"/>
      <use xlink:href="#DejaVuSans-73" x="356.640625"/>
     </g>
    </g>
   </g>
   <g id="matplotlib.axis_2">
    <g id="ytick_1">
     <g id="line2d_6">
      <defs>
       <path id="m09e345f0e2" d="M 0 0 
L -3.5 0 
" style="stroke: #000000; stroke-width: 0.8"/>
      </defs>
      <g>
       <use xlink:href="#m09e345f0e2" x="38.175" y="283.615527" style="stroke: #000000; stroke-width: 0.8"/>
      </g>
     </g>
     <g id="text_7">
      <!-- 0 -->
      <g transform="translate(24.8125 287.414746)scale(0.1 -0.1)">
       <use xlink:href="#DejaVuSans-30"/>
      </g>
     </g>
    </g>
    <g id="ytick_2">
     <g id="line2d_7">
      <g>
       <use xlink:href="#m09e345f0e2" x="38.175" y="230.408645" style="stroke: #000000; stroke-width: 0.8"/>
      </g>
     </g>
     <g id="text_8">
      <!-- 2 -->
      <g transform="translate(24.8125 234.207864)scale(0.1 -0.1)">
       <use xlink:href="#DejaVuSans-32"/>
      </g>
     </g>
    </g>
    <g id="ytick_3">
     <g id="line2d_8">
      <g>
       <use xlink:href="#m09e345f0e2" x="38.175" y="177.201763" style="stroke: #000000; stroke-width: 0.8"/>
      </g>
     </g>
     <g id="text_9">
      <!-- 4 -->
      <g transform="translate(24.8125 181.000982)scale(0.1 -0.1)">
       <use xlink:href="#DejaVuSans-34"/>
      </g>
     </g>
    </g>
    <g id="ytick_4">
     <g id="line2d_9">
      <g>
       <use xlink:href="#m09e345f0e2" x="38.175" y="123.994882" style="stroke: #000000; stroke-width: 0.8"/>
      </g>
     </g>
     <g id="text_10">
      <!-- 6 -->
      <g transform="translate(24.8125 127.7941)scale(0.1 -0.1)">
       <use xlink:href="#DejaVuSans-36"/>
      </g>
     </g>
    </g>
    <g id="ytick_5">
     <g id="line2d_10">
      <g>
       <use xlink:href="#m09e345f0e2" x="38.175" y="70.788" style="stroke: #000000; stroke-width: 0.8"/>
      </g>
     </g>
     <g id="text_11">
      <!-- 8 -->
      <g transform="translate(24.8125 74.587219)scale(0.1 -0.1)">
       <use xlink:href="#DejaVuSans-38"/>
      </g>
     </g>
    </g>
    <g id="text_12">
     <!-- V -->
     <g transform="translate(18.732813 201.095562)rotate(-90)scale(0.1 -0.1)">
      <defs>
       <path id="DejaVuSans-b5" d="M 544 -1331 
L 544 3500 
L 1119 3500 
L 1119 1325 
Q 1119 872 1334 640 
Q 1550 409 1972 409 
Q 2434 409 2667 671 
Q 2900 934 2900 1459 
L 2900 3500 
L 3475 3500 
L 3475 806 
Q 3475 619 3529 530 
Q 3584 441 3700 441 
Q 3728 441 3778 458 
Q 3828 475 3916 513 
L 3916 50 
Q 3788 -22 3673 -56 
Q 3559 -91 3450 -91 
Q 3234 -91 3106 31 
Q 2978 153 2931 403 
Q 2775 156 2548 32 
Q 2322 -91 2016 -91 
Q 1697 -91 1473 31 
Q 1250 153 1119 397 
L 1119 -1331 
L 544 -1331 
z
" transform="scale(0.015625)"/>
       <path id="DejaVuSans-56" d="M 1831 0 
L 50 4666 
L 709 4666 
L 2188 738 
L 3669 4666 
L 4325 4666 
L 2547 0 
L 1831 0 
z
" transform="scale(0.015625)"/>
      </defs>
      <use xlink:href="#DejaVuSans-b5"/>
      <use xlink:href="#DejaVuSans-56" x="63.623047"/>
     </g>
    </g>
   </g>
   <g id="line2d_11">
    <path d="M 38.175 288.174949 
L 38.989405 288.000741 
L 39.803809 287.675118 
L 41.432618 286.715197 
L 43.061427 285.743498 
L 43.875832 285.398332 
L 44.690236 285.187372 
L 46.319046 285.114731 
L 47.947855 285.185695 
L 48.762259 285.126523 
L 49.576664 284.948724 
L 51.205473 284.235756 
L 53.648687 282.937399 
L 54.463091 282.687336 
L 55.277496 282.597257 
L 56.0919 282.667389 
L 57.720709 283.145968 
L 59.349518 283.676631 
L 60.163923 283.815991 
L 60.978327 283.826916 
L 62.607137 283.477521 
L 65.864755 282.308424 
L 67.493564 282.089754 
L 69.122373 282.208748 
L 72.379991 282.671943 
L 74.0088 282.552484 
L 75.637609 282.02841 
L 77.266419 281.147801 
L 80.524037 279.137844 
L 82.152846 278.502738 
L 83.781655 278.287382 
L 85.410464 278.415328 
L 87.853678 278.776311 
L 89.482487 278.736973 
L 90.296891 278.539349 
L 91.111296 278.193831 
L 91.9257 277.691586 
L 93.55451 276.255406 
L 97.626532 272.044618 
L 98.440937 271.511238 
L 99.255341 271.16158 
L 100.069746 270.995414 
L 100.884151 270.99381 
L 102.51296 271.340275 
L 105.770578 272.274179 
L 107.399387 272.424262 
L 109.028196 272.294788 
L 111.47141 271.732761 
L 113.914623 271.186158 
L 115.543433 271.097432 
L 118.801051 271.273671 
L 119.615455 271.18527 
L 121.244264 270.674763 
L 124.501883 269.241398 
L 125.316287 269.155353 
L 126.130692 269.271957 
L 126.945096 269.585673 
L 130.202714 271.492753 
L 131.017119 271.659674 
L 131.831524 271.550026 
L 132.645928 271.147277 
L 133.460333 270.478631 
L 135.089142 268.628893 
L 136.717951 266.722552 
L 137.532355 265.953923 
L 138.34676 265.36631 
L 139.161165 264.961021 
L 140.789974 264.558827 
L 143.233187 264.129902 
L 144.861996 263.460672 
L 147.30521 261.93148 
L 148.934019 260.959545 
L 150.562828 260.313135 
L 152.191637 260.056558 
L 156.26366 259.916905 
L 157.078065 259.6613 
L 157.892469 259.251927 
L 158.706874 258.682632 
L 160.335683 257.144664 
L 162.778897 254.587751 
L 163.593301 253.906638 
L 164.407706 253.381314 
L 165.22211 253.019031 
L 166.850919 252.676474 
L 168.479728 252.477096 
L 170.108538 251.97516 
L 171.737347 251.033915 
L 174.18056 249.429749 
L 175.809369 248.754523 
L 179.881392 247.731459 
L 181.510201 246.767292 
L 183.953415 244.98335 
L 184.76782 244.515227 
L 185.582224 244.182395 
L 186.396629 243.998263 
L 187.211033 243.954481 
L 188.839842 244.181349 
L 195.355079 245.73226 
L 196.169483 245.681732 
L 196.983888 245.482095 
L 197.798292 245.114631 
L 198.612697 244.58084 
L 200.241506 243.132799 
L 202.68472 240.798045 
L 204.313529 239.624317 
L 206.756742 238.369393 
L 210.014361 236.826392 
L 211.64317 236.351368 
L 213.271979 236.282389 
L 215.715193 236.458073 
L 217.344002 236.26026 
L 221.416024 235.089108 
L 223.044834 235.002136 
L 224.673643 234.985789 
L 226.302452 234.752202 
L 228.745665 234.249689 
L 229.56007 234.287245 
L 230.374474 234.527466 
L 231.188879 234.985951 
L 232.817688 236.398092 
L 234.446497 237.870111 
L 235.260902 238.377228 
L 236.075306 238.644789 
L 236.889711 238.663154 
L 237.704115 238.468291 
L 245.033756 235.380278 
L 246.662566 234.05445 
L 248.291375 232.629717 
L 249.105779 232.11501 
L 249.920184 231.844307 
L 250.734588 231.85545 
L 251.548993 232.13314 
L 253.177802 233.171371 
L 253.992207 233.689012 
L 254.806611 234.033411 
L 255.621016 234.104374 
L 256.43542 233.847396 
L 257.249825 233.26138 
L 258.064229 232.395409 
L 262.136252 227.146833 
L 262.950657 226.435406 
L 264.579466 225.420425 
L 267.837084 223.723987 
L 271.094702 221.690135 
L 272.723511 221.033711 
L 274.35232 220.729772 
L 276.795534 220.441319 
L 278.424343 220.020047 
L 281.681961 218.906975 
L 283.31077 218.690265 
L 286.568389 218.662283 
L 287.382793 218.456586 
L 288.197198 218.088158 
L 289.011602 217.554435 
L 290.640411 216.125455 
L 292.269221 214.630415 
L 293.083625 214.022912 
L 293.89803 213.56586 
L 294.712434 213.268088 
L 296.341243 213.050604 
L 298.784457 212.944871 
L 300.413266 212.602305 
L 303.670884 211.674107 
L 305.299693 211.512031 
L 309.371716 211.478305 
L 313.443739 211.157309 
L 315.072548 211.363978 
L 319.144571 212.217535 
L 320.77338 212.243591 
L 326.474212 211.895001 
L 328.917425 211.91717 
L 330.546235 211.574443 
L 331.360639 211.222862 
L 332.989448 210.166181 
L 336.247066 207.590717 
L 337.875875 206.72061 
L 339.504685 206.248586 
L 341.947898 205.712312 
L 343.576707 205.005032 
L 345.205516 203.84459 
L 346.834326 202.291346 
L 349.277539 199.505488 
L 354.163967 193.596465 
L 355.792776 192.047348 
L 357.421585 190.853587 
L 361.493608 188.304249 
L 363.936821 186.337006 
L 366.380035 184.339449 
L 368.008844 183.334608 
L 368.823249 182.996631 
L 369.637653 182.781272 
L 371.266462 182.68089 
L 373.709676 182.797531 
L 374.52408 182.672848 
L 375.338485 182.368434 
L 376.152889 181.852579 
L 376.967294 181.126261 
L 378.596103 179.226956 
L 380.224912 177.296322 
L 381.039317 176.539419 
L 381.853721 175.986985 
L 382.668126 175.629017 
L 385.11134 174.950681 
L 385.925744 174.504495 
L 386.740149 173.816898 
L 387.554553 172.883894 
L 390.812171 168.45198 
L 391.626576 167.748178 
L 392.440981 167.32489 
L 394.06979 167.027723 
L 394.884194 166.872466 
L 395.698599 166.499953 
L 396.513003 165.790802 
L 397.327408 164.697754 
L 398.956217 161.605495 
L 400.585026 158.374171 
L 401.399431 157.166257 
L 402.213835 156.38956 
L 403.02824 156.057204 
L 403.842644 156.091037 
L 406.285858 156.753801 
L 407.100262 156.606912 
L 407.914667 156.123933 
L 408.729072 155.330617 
L 411.98669 151.418191 
L 412.801094 150.856398 
L 413.615499 150.547389 
L 413.615499 150.547389 
" clip-path="url(#p125eb78bb5)" style="fill: none; stroke: #e41a1c; stroke-width: 1.5; stroke-linecap: square"/>
   </g>
   <g id="line2d_12">
    <path d="M 38.175 281.038253 
L 38.989405 281.185511 
L 40.618214 281.791226 
L 43.061427 282.816252 
L 44.690236 283.112912 
L 46.319046 283.075913 
L 48.762259 282.934803 
L 55.277496 283.037216 
L 56.906305 283.016683 
L 58.535114 283.268833 
L 62.607137 284.326951 
L 64.235946 284.364758 
L 67.493564 284.234918 
L 69.122373 284.47441 
L 72.379991 285.1125 
L 74.0088 285.113403 
L 76.452014 284.776325 
L 82.152846 283.786962 
L 85.410464 283.09098 
L 87.039273 282.980994 
L 89.482487 282.92268 
L 91.111296 282.593958 
L 92.740105 281.849788 
L 94.368914 280.771172 
L 97.626532 278.492376 
L 99.255341 277.596547 
L 100.884151 276.91816 
L 102.51296 276.482038 
L 104.141769 276.327012 
L 105.770578 276.436656 
L 109.028196 276.805242 
L 110.657005 276.643448 
L 112.285814 276.183761 
L 114.729028 275.415262 
L 116.357837 275.219124 
L 117.986646 275.338605 
L 120.42986 275.61491 
L 122.058669 275.465386 
L 123.687478 274.966961 
L 126.130692 274.077333 
L 127.759501 273.822241 
L 129.38831 273.933749 
L 131.831524 274.273505 
L 133.460333 274.192551 
L 135.089142 273.762826 
L 138.34676 272.430365 
L 139.975569 271.66622 
L 141.604378 270.662186 
L 143.233187 269.290167 
L 146.490806 266.183214 
L 147.30521 265.614781 
L 148.119615 265.202945 
L 148.934019 264.946088 
L 150.562828 264.767387 
L 152.191637 264.679762 
L 153.820447 264.316351 
L 157.892469 262.747002 
L 158.706874 262.685757 
L 159.521278 262.782097 
L 161.150087 263.36766 
L 163.593301 264.463462 
L 164.407706 264.669105 
L 165.22211 264.744762 
L 166.850919 264.547881 
L 169.294133 264.002017 
L 170.108538 263.95629 
L 170.922942 264.040152 
L 171.737347 264.263306 
L 173.366156 265.059684 
L 175.809369 266.472997 
L 176.623774 266.802206 
L 177.438179 267.006874 
L 179.066988 267.065374 
L 181.510201 266.889403 
L 182.324606 266.978353 
L 183.13901 267.205676 
L 184.76782 268.060895 
L 187.211033 269.656226 
L 188.025438 270.017868 
L 188.839842 270.218421 
L 189.654247 270.253453 
L 191.283056 269.966264 
L 192.911865 269.629607 
L 193.72627 269.601526 
L 194.540674 269.710934 
L 196.169483 270.277915 
L 197.798292 270.93217 
L 198.612697 271.113283 
L 199.427101 271.123042 
L 200.241506 270.939891 
L 201.055911 270.574751 
L 202.68472 269.478845 
L 204.313529 268.322131 
L 205.942338 267.527165 
L 207.571147 267.217633 
L 209.199956 267.273896 
L 210.828765 267.559805 
L 212.457574 268.070814 
L 214.086383 268.875228 
L 215.715193 269.956103 
L 219.787215 272.840112 
L 223.044834 275.03499 
L 224.673643 276.442033 
L 227.116856 278.968889 
L 236.075306 288.603829 
L 237.704115 290.041968 
L 239.332925 291.160809 
L 240.961734 291.964352 
L 242.590543 292.487421 
L 244.219352 292.748519 
L 245.848161 292.771301 
L 249.920184 292.598501 
L 251.548993 292.895366 
L 255.621016 294.148744 
L 256.43542 294.222849 
L 257.249825 294.181567 
L 258.878634 293.770025 
L 261.321848 292.6782 
L 262.950657 291.98894 
L 264.579466 291.534537 
L 266.208275 291.352474 
L 268.651488 291.431786 
L 271.909107 291.567665 
L 274.35232 291.366059 
L 276.795534 291.126149 
L 278.424343 291.174031 
L 280.867557 291.596959 
L 282.496366 291.874303 
L 284.125175 291.920359 
L 285.753984 291.689688 
L 289.011602 291.084461 
L 290.640411 291.115829 
L 295.526839 291.752563 
L 297.155648 291.574422 
L 300.413266 290.833251 
L 303.670884 289.960596 
L 306.114098 288.99559 
L 307.742907 288.364648 
L 309.371716 288.047017 
L 310.186121 288.068062 
L 311.81493 288.449586 
L 314.258143 289.283104 
L 315.072548 289.428427 
L 315.886953 289.446262 
L 316.701357 289.329046 
L 318.330166 288.768675 
L 320.77338 287.763382 
L 322.402189 287.460321 
L 324.030998 287.535503 
L 327.288616 287.91938 
L 328.917425 287.786254 
L 330.546235 287.383844 
L 333.803853 286.183054 
L 336.247066 285.345975 
L 337.875875 284.99562 
L 339.504685 284.871878 
L 342.762303 284.874117 
L 343.576707 284.750744 
L 344.391112 284.514952 
L 345.205516 284.151447 
L 346.834326 283.063442 
L 350.906348 279.800528 
L 352.535157 278.974925 
L 354.163967 278.479608 
L 356.60718 278.074297 
L 359.050394 277.926133 
L 363.936821 278.035474 
L 365.56563 277.687988 
L 369.637653 276.41446 
L 371.266462 276.34442 
L 374.52408 276.56918 
L 376.152889 276.35163 
L 379.410508 275.526882 
L 381.039317 275.48215 
L 382.668126 275.775942 
L 384.296935 276.131187 
L 385.925744 276.207194 
L 387.554553 275.850423 
L 389.183362 275.158476 
L 393.255385 272.996868 
L 394.884194 271.935843 
L 396.513003 270.646412 
L 400.585026 267.225298 
L 402.213835 266.266062 
L 403.842644 265.596992 
L 410.357881 263.351937 
L 412.801094 262.466782 
L 413.615499 262.245754 
L 413.615499 262.245754 
" clip-path="url(#p125eb78bb5)" style="fill: none; stroke: #377eb8; stroke-width: 1.5; stroke-linecap: square"/>
   </g>
   <g id="line2d_13">
    <path d="M 79.709632 318.2 
L 79.709632 70.788 
" clip-path="url(#p125eb78bb5)" style="fill: none; stroke: #000000; stroke-width: 0.5; stroke-linecap: square"/>
   </g>
   <g id="line2d_14">
    <path d="M 38.175 283.615527 
L 413.615499 283.615527 
" clip-path="url(#p125eb78bb5)" style="fill: none; stroke: #000000; stroke-width: 0.5; stroke-linecap: square"/>
   </g>
   <g id="patch_4">
    <path d="M 38.175 318.2 
L 38.175 70.788 
" style="fill: none; stroke: #000000; stroke-width: 0.8; stroke-linejoin: miter; stroke-linecap: square"/>
   </g>
   <g id="patch_5">
    <path d="M 413.615499 318.2 
L 413.615499 70.788 
" style="fill: none; stroke: #000000; stroke-width: 0.8; stroke-linejoin: miter; stroke-linecap: square"/>
   </g>
   <g id="patch_6">
    <path d="M 38.175 318.2 
L 413.615499 318.2 
" style="fill: none; stroke: #000000; stroke-width: 0.8; stroke-linejoin: miter; stroke-linecap: square"/>
   </g>
   <g id="patch_7">
    <path d="M 38.175 70.788 
L 413.615499 70.788 
" style="fill: none; stroke: #000000; stroke-width: 0.8; stroke-linejoin: miter; stroke-linecap: square"/>
   </g>
   <g id="legend_1">
    <g id="patch_8">
     <path d="M 102.902281 47.380205 
L 348.888218 47.380205 
Q 350.888218 47.380205 350.888218 45.380205 
L 350.888218 17.023955 
Q 350.888218 15.023955 348.888218 15.023955 
L 102.902281 15.023955 
Q 100.902281 15.023955 100.902281 17.023955 
L 100.902281 45.380205 
Q 100.902281 47.380205 102.902281 47.380205 
z
" style="fill: #ffffff; opacity: 0.8; stroke: #cccccc; stroke-linejoin: miter"/>
    </g>
    <g id="text_13">
     <!-- Average of Sessions with  4 Tactors at Fz (n=30) -->
     <g transform="translate(104.902281 26.622393)scale(0.1 -0.1)">
      <defs>
       <path id="DejaVuSans-41" d="M 2188 4044 
L 1331 1722 
L 3047 1722 
L 2188 4044 
z
M 1831 4666 
L 2547 4666 
L 4325 0 
L 3669 0 
L 3244 1197 
L 1141 1197 
L 716 0 
L 50 0 
L 1831 4666 
z
" transform="scale(0.015625)"/>
       <path id="DejaVuSans-76" d="M 191 3500 
L 800 3500 
L 1894 563 
L 2988 3500 
L 3597 3500 
L 2284 0 
L 1503 0 
L 191 3500 
z
" transform="scale(0.015625)"/>
       <path id="DejaVuSans-72" d="M 2631 2963 
Q 2534 3019 2420 3045 
Q 2306 3072 2169 3072 
Q 1681 3072 1420 2755 
Q 1159 2438 1159 1844 
L 1159 0 
L 581 0 
L 581 3500 
L 1159 3500 
L 1159 2956 
Q 1341 3275 1631 3429 
Q 1922 3584 2338 3584 
Q 2397 3584 2469 3576 
Q 2541 3569 2628 3553 
L 2631 2963 
z
" transform="scale(0.015625)"/>
       <path id="DejaVuSans-61" d="M 2194 1759 
Q 1497 1759 1228 1600 
Q 959 1441 959 1056 
Q 959 750 1161 570 
Q 1363 391 1709 391 
Q 2188 391 2477 730 
Q 2766 1069 2766 1631 
L 2766 1759 
L 2194 1759 
z
M 3341 1997 
L 3341 0 
L 2766 0 
L 2766 531 
Q 2569 213 2275 61 
Q 1981 -91 1556 -91 
Q 1019 -91 701 211 
Q 384 513 384 1019 
Q 384 1609 779 1909 
Q 1175 2209 1959 2209 
L 2766 2209 
L 2766 2266 
Q 2766 2663 2505 2880 
Q 2244 3097 1772 3097 
Q 1472 3097 1187 3025 
Q 903 2953 641 2809 
L 641 3341 
Q 956 3463 1253 3523 
Q 1550 3584 1831 3584 
Q 2591 3584 2966 3190 
Q 3341 2797 3341 1997 
z
" transform="scale(0.015625)"/>
       <path id="DejaVuSans-67" d="M 2906 1791 
Q 2906 2416 2648 2759 
Q 2391 3103 1925 3103 
Q 1463 3103 1205 2759 
Q 947 2416 947 1791 
Q 947 1169 1205 825 
Q 1463 481 1925 481 
Q 2391 481 2648 825 
Q 2906 1169 2906 1791 
z
M 3481 434 
Q 3481 -459 3084 -895 
Q 2688 -1331 1869 -1331 
Q 1566 -1331 1297 -1286 
Q 1028 -1241 775 -1147 
L 775 -588 
Q 1028 -725 1275 -790 
Q 1522 -856 1778 -856 
Q 2344 -856 2625 -561 
Q 2906 -266 2906 331 
L 2906 616 
Q 2728 306 2450 153 
Q 2172 0 1784 0 
Q 1141 0 747 490 
Q 353 981 353 1791 
Q 353 2603 747 3093 
Q 1141 3584 1784 3584 
Q 2172 3584 2450 3431 
Q 2728 3278 2906 2969 
L 2906 3500 
L 3481 3500 
L 3481 434 
z
" transform="scale(0.015625)"/>
       <path id="DejaVuSans-20" transform="scale(0.015625)"/>
       <path id="DejaVuSans-66" d="M 2375 4863 
L 2375 4384 
L 1825 4384 
Q 1516 4384 1395 4259 
Q 1275 4134 1275 3809 
L 1275 3500 
L 2222 3500 
L 2222 3053 
L 1275 3053 
L 1275 0 
L 697 0 
L 697 3053 
L 147 3053 
L 147 3500 
L 697 3500 
L 697 3744 
Q 697 4328 969 4595 
Q 1241 4863 1831 4863 
L 2375 4863 
z
" transform="scale(0.015625)"/>
       <path id="DejaVuSans-53" d="M 3425 4513 
L 3425 3897 
Q 3066 4069 2747 4153 
Q 2428 4238 2131 4238 
Q 1616 4238 1336 4038 
Q 1056 3838 1056 3469 
Q 1056 3159 1242 3001 
Q 1428 2844 1947 2747 
L 2328 2669 
Q 3034 2534 3370 2195 
Q 3706 1856 3706 1288 
Q 3706 609 3251 259 
Q 2797 -91 1919 -91 
Q 1588 -91 1214 -16 
Q 841 59 441 206 
L 441 856 
Q 825 641 1194 531 
Q 1563 422 1919 422 
Q 2459 422 2753 634 
Q 3047 847 3047 1241 
Q 3047 1584 2836 1778 
Q 2625 1972 2144 2069 
L 1759 2144 
Q 1053 2284 737 2584 
Q 422 2884 422 3419 
Q 422 4038 858 4394 
Q 1294 4750 2059 4750 
Q 2388 4750 2728 4690 
Q 3069 4631 3425 4513 
z
" transform="scale(0.015625)"/>
       <path id="DejaVuSans-69" d="M 603 3500 
L 1178 3500 
L 1178 0 
L 603 0 
L 603 3500 
z
M 603 4863 
L 1178 4863 
L 1178 4134 
L 603 4134 
L 603 4863 
z
" transform="scale(0.015625)"/>
       <path id="DejaVuSans-77" d="M 269 3500 
L 844 3500 
L 1563 769 
L 2278 3500 
L 2956 3500 
L 3675 769 
L 4391 3500 
L 4966 3500 
L 4050 0 
L 3372 0 
L 2619 2869 
L 1863 0 
L 1184 0 
L 269 3500 
z
" transform="scale(0.015625)"/>
       <path id="DejaVuSans-74" d="M 1172 4494 
L 1172 3500 
L 2356 3500 
L 2356 3053 
L 1172 3053 
L 1172 1153 
Q 1172 725 1289 603 
Q 1406 481 1766 481 
L 2356 481 
L 2356 0 
L 1766 0 
Q 1100 0 847 248 
Q 594 497 594 1153 
L 594 3053 
L 172 3053 
L 172 3500 
L 594 3500 
L 594 4494 
L 1172 4494 
z
" transform="scale(0.015625)"/>
       <path id="DejaVuSans-68" d="M 3513 2113 
L 3513 0 
L 2938 0 
L 2938 2094 
Q 2938 2591 2744 2837 
Q 2550 3084 2163 3084 
Q 1697 3084 1428 2787 
Q 1159 2491 1159 1978 
L 1159 0 
L 581 0 
L 581 4863 
L 1159 4863 
L 1159 2956 
Q 1366 3272 1645 3428 
Q 1925 3584 2291 3584 
Q 2894 3584 3203 3211 
Q 3513 2838 3513 2113 
z
" transform="scale(0.015625)"/>
       <path id="DejaVuSans-54" d="M -19 4666 
L 3928 4666 
L 3928 4134 
L 2272 4134 
L 2272 0 
L 1638 0 
L 1638 4134 
L -19 4134 
L -19 4666 
z
" transform="scale(0.015625)"/>
       <path id="DejaVuSans-46" d="M 628 4666 
L 3309 4666 
L 3309 4134 
L 1259 4134 
L 1259 2759 
L 3109 2759 
L 3109 2228 
L 1259 2228 
L 1259 0 
L 628 0 
L 628 4666 
z
" transform="scale(0.015625)"/>
       <path id="DejaVuSans-7a" d="M 353 3500 
L 3084 3500 
L 3084 2975 
L 922 459 
L 3084 459 
L 3084 0 
L 275 0 
L 275 525 
L 2438 3041 
L 353 3041 
L 353 3500 
z
" transform="scale(0.015625)"/>
       <path id="DejaVuSans-28" d="M 1984 4856 
Q 1566 4138 1362 3434 
Q 1159 2731 1159 2009 
Q 1159 1288 1364 580 
Q 1569 -128 1984 -844 
L 1484 -844 
Q 1016 -109 783 600 
Q 550 1309 550 2009 
Q 550 2706 781 3412 
Q 1013 4119 1484 4856 
L 1984 4856 
z
" transform="scale(0.015625)"/>
       <path id="DejaVuSans-3d" d="M 678 2906 
L 4684 2906 
L 4684 2381 
L 678 2381 
L 678 2906 
z
M 678 1631 
L 4684 1631 
L 4684 1100 
L 678 1100 
L 678 1631 
z
" transform="scale(0.015625)"/>
       <path id="DejaVuSans-33" d="M 2597 2516 
Q 3050 2419 3304 2112 
Q 3559 1806 3559 1356 
Q 3559 666 3084 287 
Q 2609 -91 1734 -91 
Q 1441 -91 1130 -33 
Q 819 25 488 141 
L 488 750 
Q 750 597 1062 519 
Q 1375 441 1716 441 
Q 2309 441 2620 675 
Q 2931 909 2931 1356 
Q 2931 1769 2642 2001 
Q 2353 2234 1838 2234 
L 1294 2234 
L 1294 2753 
L 1863 2753 
Q 2328 2753 2575 2939 
Q 2822 3125 2822 3475 
Q 2822 3834 2567 4026 
Q 2313 4219 1838 4219 
Q 1578 4219 1281 4162 
Q 984 4106 628 3988 
L 628 4550 
Q 988 4650 1302 4700 
Q 1616 4750 1894 4750 
Q 2613 4750 3031 4423 
Q 3450 4097 3450 3541 
Q 3450 3153 3228 2886 
Q 3006 2619 2597 2516 
z
" transform="scale(0.015625)"/>
       <path id="DejaVuSans-29" d="M 513 4856 
L 1013 4856 
Q 1481 4119 1714 3412 
Q 1947 2706 1947 2009 
Q 1947 1309 1714 600 
Q 1481 -109 1013 -844 
L 513 -844 
Q 928 -128 1133 580 
Q 1338 1288 1338 2009 
Q 1338 2731 1133 3434 
Q 928 4138 513 4856 
z
" transform="scale(0.015625)"/>
      </defs>
      <use xlink:href="#DejaVuSans-41"/>
      <use xlink:href="#DejaVuSans-76" x="62.533203"/>
      <use xlink:href="#DejaVuSans-65" x="121.712891"/>
      <use xlink:href="#DejaVuSans-72" x="183.236328"/>
      <use xlink:href="#DejaVuSans-61" x="224.349609"/>
      <use xlink:href="#DejaVuSans-67" x="285.628906"/>
      <use xlink:href="#DejaVuSans-65" x="349.105469"/>
      <use xlink:href="#DejaVuSans-20" x="410.628906"/>
      <use xlink:href="#DejaVuSans-6f" x="442.416016"/>
      <use xlink:href="#DejaVuSans-66" x="503.597656"/>
      <use xlink:href="#DejaVuSans-20" x="538.802734"/>
      <use xlink:href="#DejaVuSans-53" x="570.589844"/>
      <use xlink:href="#DejaVuSans-65" x="634.066406"/>
      <use xlink:href="#DejaVuSans-73" x="695.589844"/>
      <use xlink:href="#DejaVuSans-73" x="747.689453"/>
      <use xlink:href="#DejaVuSans-69" x="799.789062"/>
      <use xlink:href="#DejaVuSans-6f" x="827.572266"/>
      <use xlink:href="#DejaVuSans-6e" x="888.753906"/>
      <use xlink:href="#DejaVuSans-73" x="952.132812"/>
      <use xlink:href="#DejaVuSans-20" x="1004.232422"/>
      <use xlink:href="#DejaVuSans-77" x="1036.019531"/>
      <use xlink:href="#DejaVuSans-69" x="1117.806641"/>
      <use xlink:href="#DejaVuSans-74" x="1145.589844"/>
      <use xlink:href="#DejaVuSans-68" x="1184.798828"/>
      <use xlink:href="#DejaVuSans-20" x="1248.177734"/>
      <use xlink:href="#DejaVuSans-20" x="1279.964844"/>
      <use xlink:href="#DejaVuSans-34" x="1311.751953"/>
      <use xlink:href="#DejaVuSans-20" x="1375.375"/>
      <use xlink:href="#DejaVuSans-54" x="1407.162109"/>
      <use xlink:href="#DejaVuSans-61" x="1451.746094"/>
      <use xlink:href="#DejaVuSans-63" x="1513.025391"/>
      <use xlink:href="#DejaVuSans-74" x="1568.005859"/>
      <use xlink:href="#DejaVuSans-6f" x="1607.214844"/>
      <use xlink:href="#DejaVuSans-72" x="1668.396484"/>
      <use xlink:href="#DejaVuSans-73" x="1709.509766"/>
      <use xlink:href="#DejaVuSans-20" x="1761.609375"/>
      <use xlink:href="#DejaVuSans-61" x="1793.396484"/>
      <use xlink:href="#DejaVuSans-74" x="1854.675781"/>
      <use xlink:href="#DejaVuSans-20" x="1893.884766"/>
      <use xlink:href="#DejaVuSans-46" x="1925.671875"/>
      <use xlink:href="#DejaVuSans-7a" x="1983.191406"/>
      <use xlink:href="#DejaVuSans-20" x="2035.681641"/>
      <use xlink:href="#DejaVuSans-28" x="2067.46875"/>
      <use xlink:href="#DejaVuSans-6e" x="2106.482422"/>
      <use xlink:href="#DejaVuSans-3d" x="2169.861328"/>
      <use xlink:href="#DejaVuSans-33" x="2253.650391"/>
      <use xlink:href="#DejaVuSans-30" x="2317.273438"/>
      <use xlink:href="#DejaVuSans-29" x="2380.896484"/>
     </g>
    </g>
    <g id="line2d_15">
     <path d="M 145.635093 37.800518 
L 155.635093 37.800518 
L 165.635093 37.800518 
" style="fill: none; stroke: #e41a1c; stroke-width: 1.5; stroke-linecap: square"/>
    </g>
    <g id="text_14">
     <!-- Target -->
     <g transform="translate(173.635093 41.300518)scale(0.1 -0.1)">
      <use xlink:href="#DejaVuSans-54"/>
      <use xlink:href="#DejaVuSans-61" x="44.583984"/>
      <use xlink:href="#DejaVuSans-72" x="105.863281"/>
      <use xlink:href="#DejaVuSans-67" x="145.226562"/>
      <use xlink:href="#DejaVuSans-65" x="208.703125"/>
      <use xlink:href="#DejaVuSans-74" x="270.226562"/>
     </g>
    </g>
    <g id="line2d_16">
     <path d="M 224.578843 37.800518 
L 234.578843 37.800518 
L 244.578843 37.800518 
" style="fill: none; stroke: #377eb8; stroke-width: 1.5; stroke-linecap: square"/>
    </g>
    <g id="text_15">
     <!-- Non-Target -->
     <g transform="translate(252.578843 41.300518)scale(0.1 -0.1)">
      <defs>
       <path id="DejaVuSans-4e" d="M 628 4666 
L 1478 4666 
L 3547 763 
L 3547 4666 
L 4159 4666 
L 4159 0 
L 3309 0 
L 1241 3903 
L 1241 0 
L 628 0 
L 628 4666 
z
" transform="scale(0.015625)"/>
       <path id="DejaVuSans-2d" d="M 313 2009 
L 1997 2009 
L 1997 1497 
L 313 1497 
L 313 2009 
z
" transform="scale(0.015625)"/>
      </defs>
      <use xlink:href="#DejaVuSans-4e"/>
      <use xlink:href="#DejaVuSans-6f" x="74.804688"/>
      <use xlink:href="#DejaVuSans-6e" x="135.986328"/>
      <use xlink:href="#DejaVuSans-2d" x="199.365234"/>
      <use xlink:href="#DejaVuSans-54" x="226.324219"/>
      <use xlink:href="#DejaVuSans-61" x="270.908203"/>
      <use xlink:href="#DejaVuSans-72" x="332.1875"/>
      <use xlink:href="#DejaVuSans-67" x="371.550781"/>
      <use xlink:href="#DejaVuSans-65" x="435.027344"/>
      <use xlink:href="#DejaVuSans-74" x="496.550781"/>
     </g>
    </g>
   </g>
  </g>
 </g>
 <defs>
  <clipPath id="p125eb78bb5">
   <rect x="38.175" y="70.788" width="375.440499" height="247.412"/>
  </clipPath>
 </defs>
</svg>
