<?xml version="1.0" encoding="utf-8" standalone="no"?>
<!DOCTYPE svg PUBLIC "-//W3C//DTD SVG 1.1//EN"
  "http://www.w3.org/Graphics/SVG/1.1/DTD/svg11.dtd">
<svg xmlns:xlink="http://www.w3.org/1999/xlink" width="432pt" height="360pt" viewBox="0 0 432 360" xmlns="http://www.w3.org/2000/svg" version="1.1">
 <metadata>
  <rdf:RDF xmlns:dc="http://purl.org/dc/elements/1.1/" xmlns:cc="http://creativecommons.org/ns#" xmlns:rdf="http://www.w3.org/1999/02/22-rdf-syntax-ns#">
   <cc:Work>
    <dc:type rdf:resource="http://purl.org/dc/dcmitype/StillImage"/>
    <dc:date>2022-12-20T14:57:13.645890</dc:date>
    <dc:format>image/svg+xml</dc:format>
    <dc:creator>
     <cc:Agent>
      <dc:title>Matplotlib v3.5.1, https://matplotlib.org/</dc:title>
     </cc:Agent>
    </dc:creator>
   </cc:Work>
  </rdf:RDF>
 </metadata>
 <defs>
  <style type="text/css">*{stroke-linejoin: round; stroke-linecap: butt}</style>
 </defs>
 <g id="figure_1">
  <g id="patch_1">
   <path d="M 0 360 
L 432 360 
L 432 0 
L 0 0 
L 0 360 
z
" style="fill: none"/>
  </g>
  <g id="axes_1">
   <g id="patch_2">
    <path d="M 38.175 318.2 
L 413.615499 318.2 
L 413.615499 70.788 
L 38.175 70.788 
L 38.175 318.2 
z
" style="fill: none"/>
   </g>
   <g id="PolyCollection_1">
    <defs>
     <path id="m609b649064" d="M 38.175 -70.383899 
L 38.175 -60.837706 
L 38.989405 -60.621389 
L 39.803809 -60.388207 
L 40.618214 -60.281101 
L 41.432618 -60.456211 
L 42.247023 -61.018216 
L 43.061427 -61.969189 
L 43.875832 -63.185023 
L 44.690236 -64.437378 
L 45.504641 -65.503783 
L 46.319046 -66.324457 
L 47.13345 -66.994095 
L 47.947855 -67.609375 
L 48.762259 -68.187108 
L 49.576664 -68.671465 
L 50.391068 -68.984596 
L 51.205473 -69.104104 
L 52.019877 -69.118969 
L 52.834282 -69.195072 
L 53.648687 -69.476377 
L 54.463091 -70.002748 
L 55.277496 -70.677684 
L 56.0919 -71.334977 
L 56.906305 -71.928314 
L 57.720709 -72.569316 
L 58.535114 -73.358031 
L 59.349518 -74.298008 
L 60.163923 -75.307577 
L 60.978327 -76.256063 
L 61.792732 -77.007872 
L 62.607137 -77.468572 
L 63.421541 -77.615142 
L 64.235946 -77.489658 
L 65.05035 -77.170203 
L 65.864755 -76.756742 
L 66.679159 -76.372014 
L 67.493564 -76.147601 
L 68.307968 -76.190048 
L 69.122373 -76.546827 
L 69.936778 -77.188399 
L 70.751182 -78.012194 
L 71.565587 -78.870142 
L 72.379991 -79.618456 
L 73.194396 -80.17368 
L 74.0088 -80.538746 
L 74.823205 -80.777315 
L 75.637609 -80.961774 
L 76.452014 -81.13331 
L 77.266419 -81.289159 
L 78.080823 -81.395354 
L 78.895228 -81.41485 
L 79.709632 -81.33012 
L 80.524037 -81.143878 
L 81.338441 -80.868156 
L 82.152846 -80.520983 
L 82.96725 -80.132365 
L 83.781655 -79.748987 
L 84.59606 -79.430189 
L 85.410464 -79.236163 
L 86.224869 -79.214275 
L 87.039273 -79.388646 
L 87.853678 -79.755135 
L 88.668082 -80.281205 
L 89.482487 -80.909195 
L 90.296891 -81.563098 
L 91.111296 -82.161252 
L 91.9257 -82.635625 
L 92.740105 -82.950503 
L 93.55451 -83.107393 
L 94.368914 -83.129434 
L 95.183319 -83.03474 
L 95.997723 -82.819785 
L 96.812128 -82.473161 
L 97.626532 -82.017526 
L 98.440937 -81.538302 
L 99.255341 -81.159154 
L 100.069746 -80.981509 
L 100.884151 -81.03329 
L 101.698555 -81.255178 
L 102.51296 -81.539686 
L 103.327364 -81.814241 
L 104.141769 -82.101672 
L 104.956173 -82.49148 
L 105.770578 -83.054939 
L 106.584982 -83.779169 
L 107.399387 -84.549964 
L 108.213792 -85.184243 
L 109.028196 -85.510961 
L 109.842601 -85.470697 
L 110.657005 -85.148767 
L 111.47141 -84.700038 
L 112.285814 -84.246353 
L 113.100219 -83.82971 
L 113.914623 -83.431754 
L 114.729028 -83.028067 
L 115.543433 -82.623361 
L 116.357837 -82.235877 
L 117.172242 -81.861723 
L 117.986646 -81.464919 
L 118.801051 -80.99991 
L 119.615455 -80.441729 
L 120.42986 -79.796824 
L 121.244264 -79.086037 
L 122.058669 -78.313476 
L 122.873074 -77.447453 
L 123.687478 -76.438082 
L 124.501883 -75.271502 
L 125.316287 -74.015778 
L 126.130692 -72.809227 
L 126.945096 -71.804157 
L 127.759501 -71.114723 
L 128.573905 -70.792166 
L 129.38831 -70.823794 
L 130.202714 -71.147196 
L 131.017119 -71.674133 
L 131.831524 -72.318158 
L 132.645928 -73.014897 
L 133.460333 -73.721779 
L 134.274737 -74.396159 
L 135.089142 -74.973304 
L 135.903546 -75.37372 
L 136.717951 -75.545919 
L 137.532355 -75.511261 
L 138.34676 -75.368527 
L 139.161165 -75.254686 
L 139.975569 -75.292147 
L 140.789974 -75.548892 
L 141.604378 -76.021694 
L 142.418783 -76.642652 
L 143.233187 -77.303145 
L 144.047592 -77.883894 
L 144.861996 -78.279613 
L 145.676401 -78.416507 
L 146.490806 -78.270507 
L 147.30521 -77.885635 
L 148.119615 -77.375067 
L 148.934019 -76.892383 
L 149.748424 -76.58386 
L 150.562828 -76.545205 
L 151.377233 -76.801483 
L 152.191637 -77.316181 
L 153.006042 -78.01876 
L 153.820447 -78.827386 
L 154.634851 -79.651006 
L 155.449256 -80.381877 
L 156.26366 -80.906573 
L 157.078065 -81.1479 
L 157.892469 -81.112897 
L 158.706874 -80.90179 
L 159.521278 -80.660861 
L 160.335683 -80.508977 
L 161.150087 -80.481878 
L 161.964492 -80.525233 
L 162.778897 -80.548017 
L 163.593301 -80.507028 
L 164.407706 -80.442658 
L 165.22211 -80.423525 
L 166.036515 -80.467855 
L 166.850919 -80.526651 
L 167.665324 -80.539825 
L 168.479728 -80.509446 
L 169.294133 -80.51939 
L 170.108538 -80.686199 
L 170.922942 -81.087389 
L 171.737347 -81.713544 
L 172.551751 -82.460403 
L 173.366156 -83.159129 
L 174.18056 -83.636262 
L 174.994965 -83.782114 
L 175.809369 -83.586917 
L 176.623774 -83.115996 
L 177.438179 -82.451043 
L 178.252583 -81.651457 
L 179.066988 -80.754987 
L 179.881392 -79.797703 
L 180.695797 -78.826297 
L 181.510201 -77.893162 
L 182.324606 -77.043712 
L 183.13901 -76.309264 
L 183.953415 -75.710181 
L 184.76782 -75.265143 
L 185.582224 -74.999224 
L 186.396629 -74.944691 
L 187.211033 -75.132112 
L 188.025438 -75.574373 
L 188.839842 -76.250497 
L 189.654247 -77.096928 
L 190.468651 -78.011573 
L 191.283056 -78.872343 
L 192.097461 -79.566957 
L 192.911865 -80.024113 
L 193.72627 -80.232137 
L 194.540674 -80.236589 
L 195.355079 -80.121194 
L 196.169483 -79.984422 
L 196.983888 -79.92033 
L 197.798292 -80.004025 
L 198.612697 -80.278964 
L 199.427101 -80.746637 
L 200.241506 -81.363213 
L 201.055911 -82.047288 
L 201.870315 -82.698723 
L 202.68472 -83.224001 
L 203.499124 -83.560174 
L 204.313529 -83.689426 
L 205.127933 -83.640518 
L 205.942338 -83.478818 
L 206.756742 -83.288537 
L 207.571147 -83.149956 
L 208.385552 -83.115147 
L 209.199956 -83.18899 
L 210.014361 -83.323938 
L 210.828765 -83.433486 
L 211.64317 -83.420717 
L 212.457574 -83.209541 
L 213.271979 -82.764295 
L 214.086383 -82.091359 
L 214.900788 -81.229389 
L 215.715193 -80.243107 
L 216.529597 -79.229272 
L 217.344002 -78.321761 
L 218.158406 -77.669152 
L 218.972811 -77.379339 
L 219.787215 -77.460899 
L 220.60162 -77.798989 
L 221.416024 -78.184416 
L 222.230429 -78.387841 
L 223.044834 -78.243228 
L 223.859238 -77.692513 
L 224.673643 -76.770646 
L 225.488047 -75.556726 
L 226.302452 -74.135286 
L 227.116856 -72.594472 
L 227.931261 -71.053634 
L 228.745665 -69.679088 
L 229.56007 -68.649006 
L 230.374474 -68.080237 
L 231.188879 -67.970845 
L 232.003284 -68.198957 
L 232.817688 -68.579789 
L 233.632093 -68.947932 
L 234.446497 -69.214229 
L 235.260902 -69.366132 
L 236.075306 -69.427237 
L 236.889711 -69.418013 
L 237.704115 -69.348695 
L 238.51852 -69.247189 
L 239.332925 -69.193688 
L 240.147329 -69.319597 
L 240.961734 -69.758777 
L 241.776138 -70.586397 
L 242.590543 -71.787419 
L 243.404947 -73.2675 
L 244.219352 -74.892639 
L 245.033756 -76.533447 
L 245.848161 -78.093381 
L 246.662566 -79.514812 
L 247.47697 -80.771732 
L 248.291375 -81.8611 
L 249.105779 -82.798237 
L 249.920184 -83.614918 
L 250.734588 -84.356826 
L 251.548993 -85.07862 
L 252.363397 -85.836406 
L 253.177802 -86.677083 
L 253.992207 -87.624855 
L 254.806611 -88.669407 
L 255.621016 -89.763521 
L 256.43542 -90.83477 
L 257.249825 -91.808236 
L 258.064229 -92.63048 
L 258.878634 -93.283934 
L 259.693038 -93.787119 
L 260.507443 -94.185996 
L 261.321848 -94.546722 
L 262.136252 -94.954261 
L 262.950657 -95.50899 
L 263.765061 -96.308335 
L 264.579466 -97.412167 
L 265.39387 -98.808281 
L 266.208275 -100.399474 
L 267.022679 -102.023768 
L 267.837084 -103.502981 
L 268.651488 -104.700513 
L 269.465893 -105.562762 
L 270.280298 -106.125712 
L 271.094702 -106.487341 
L 271.909107 -106.764331 
L 272.723511 -107.055901 
L 273.537916 -107.429632 
L 274.35232 -107.928741 
L 275.166725 -108.584102 
L 275.981129 -109.412745 
L 276.795534 -110.403637 
L 277.609939 -111.507963 
L 278.424343 -112.646376 
L 279.238748 -113.731325 
L 280.053152 -114.695182 
L 280.867557 -115.515053 
L 281.681961 -116.226438 
L 282.496366 -116.91876 
L 283.31077 -117.709921 
L 284.125175 -118.706408 
L 284.93958 -119.964938 
L 285.753984 -121.472874 
L 286.568389 -123.155134 
L 287.382793 -124.901836 
L 288.197198 -126.601959 
L 289.011602 -128.1684 
L 289.826007 -129.547506 
L 290.640411 -130.715723 
L 291.454816 -131.671837 
L 292.269221 -132.432392 
L 293.083625 -133.030915 
L 293.89803 -133.514247 
L 294.712434 -133.929584 
L 295.526839 -134.305499 
L 296.341243 -134.639336 
L 297.155648 -134.901651 
L 297.970052 -135.057645 
L 298.784457 -135.095058 
L 299.598862 -135.044387 
L 300.413266 -134.981701 
L 301.227671 -135.013256 
L 302.042075 -135.24936 
L 302.85648 -135.778113 
L 303.670884 -136.646431 
L 304.485289 -137.850103 
L 305.299693 -139.331714 
L 306.114098 -140.985961 
L 306.928502 -142.673351 
L 307.742907 -144.243184 
L 308.557312 -145.563566 
L 309.371716 -146.55048 
L 310.186121 -147.18459 
L 311.000525 -147.508721 
L 311.81493 -147.608271 
L 312.629334 -147.583681 
L 313.443739 -147.524753 
L 314.258143 -147.493193 
L 315.072548 -147.515189 
L 315.886953 -147.583063 
L 316.701357 -147.664291 
L 317.515762 -147.71581 
L 318.330166 -147.700819 
L 319.144571 -147.60528 
L 319.958975 -147.451118 
L 320.77338 -147.302232 
L 321.587784 -147.259453 
L 322.402189 -147.442991 
L 323.216594 -147.964507 
L 324.030998 -148.89501 
L 324.845403 -150.237811 
L 325.659807 -151.916436 
L 326.474212 -153.784311 
L 327.288616 -155.656097 
L 328.103021 -157.350232 
L 328.917425 -158.724923 
L 329.73183 -159.696048 
L 330.546235 -160.241722 
L 331.360639 -160.405301 
L 332.175044 -160.29847 
L 332.989448 -160.093481 
L 333.803853 -159.993743 
L 334.618257 -160.185345 
L 335.432662 -160.786298 
L 336.247066 -161.814227 
L 337.061471 -163.184772 
L 337.875875 -164.738664 
L 338.69028 -166.284275 
L 339.504685 -167.640508 
L 340.319089 -168.671699 
L 341.133494 -169.314018 
L 341.947898 -169.592585 
L 342.762303 -169.621556 
L 343.576707 -169.578445 
L 344.391112 -169.655517 
L 345.205516 -170.005833 
L 346.019921 -170.706802 
L 346.834326 -171.756051 
L 347.64873 -173.096375 
L 348.463135 -174.648485 
L 349.277539 -176.329274 
L 350.091944 -178.052484 
L 350.906348 -179.72729 
L 351.720753 -181.270442 
L 352.535157 -182.6325 
L 353.349562 -183.821727 
L 354.163967 -184.904071 
L 354.978371 -185.972732 
L 355.792776 -187.10514 
L 356.60718 -188.335297 
L 357.421585 -189.657138 
L 358.235989 -191.051909 
L 359.050394 -192.516156 
L 359.864798 -194.069242 
L 360.679203 -195.738204 
L 361.493608 -197.534571 
L 362.308012 -199.438573 
L 363.122417 -201.396609 
L 363.936821 -203.32942 
L 364.751226 -205.144752 
L 365.56563 -206.749383 
L 366.380035 -208.059858 
L 367.194439 -209.015285 
L 368.008844 -209.594324 
L 368.823249 -209.831837 
L 369.637653 -209.824008 
L 370.452058 -209.712682 
L 371.266462 -209.651362 
L 372.080867 -209.766453 
L 372.895271 -210.128484 
L 373.709676 -210.740969 
L 374.52408 -211.547237 
L 375.338485 -212.450918 
L 376.152889 -213.343091 
L 376.967294 -214.128891 
L 377.781699 -214.749047 
L 378.596103 -215.194375 
L 379.410508 -215.51068 
L 380.224912 -215.790171 
L 381.039317 -216.147589 
L 381.853721 -216.685555 
L 382.668126 -217.46044 
L 383.48253 -218.462198 
L 384.296935 -219.616837 
L 385.11134 -220.810792 
L 385.925744 -221.927197 
L 386.740149 -222.879049 
L 387.554553 -223.626457 
L 388.368958 -224.174705 
L 389.183362 -224.560645 
L 389.997767 -224.838892 
L 390.812171 -225.074475 
L 391.626576 -225.339666 
L 392.440981 -225.70719 
L 393.255385 -226.235216 
L 394.06979 -226.949192 
L 394.884194 -227.83172 
L 395.698599 -228.828555 
L 396.513003 -229.870065 
L 397.327408 -230.898865 
L 398.141812 -231.88971 
L 398.956217 -232.85084 
L 399.770622 -233.807059 
L 400.585026 -234.776611 
L 401.399431 -235.757382 
L 402.213835 -236.731159 
L 403.02824 -237.681214 
L 403.842644 -238.606437 
L 404.657049 -239.51645 
L 405.471453 -240.408975 
L 406.285858 -241.248057 
L 407.100262 -241.963837 
L 407.914667 -242.480828 
L 408.729072 -242.760114 
L 409.543476 -242.825677 
L 410.357881 -242.753736 
L 411.172285 -242.633515 
L 411.98669 -242.528907 
L 412.801094 -242.46456 
L 413.615499 -242.437918 
L 413.615499 -292.607661 
L 413.615499 -292.607661 
L 412.801094 -292.12574 
L 411.98669 -291.533897 
L 411.172285 -290.835662 
L 410.357881 -290.035319 
L 409.543476 -289.158006 
L 408.729072 -288.247859 
L 407.914667 -287.342828 
L 407.100262 -286.447009 
L 406.285858 -285.526949 
L 405.471453 -284.53848 
L 404.657049 -283.463362 
L 403.842644 -282.327291 
L 403.02824 -281.186581 
L 402.213835 -280.093711 
L 401.399431 -279.065775 
L 400.585026 -278.076379 
L 399.770622 -277.073592 
L 398.956217 -276.008769 
L 398.141812 -274.857141 
L 397.327408 -273.621163 
L 396.513003 -272.321302 
L 395.698599 -270.985836 
L 394.884194 -269.648176 
L 394.06979 -268.351445 
L 393.255385 -267.152423 
L 392.440981 -266.11583 
L 391.626576 -265.29602 
L 390.812171 -264.712553 
L 389.997767 -264.332769 
L 389.183362 -264.073283 
L 388.368958 -263.822663 
L 387.554553 -263.474945 
L 386.740149 -262.957549 
L 385.925744 -262.242305 
L 385.11134 -261.33978 
L 384.296935 -260.285723 
L 383.48253 -259.129156 
L 382.668126 -257.925976 
L 381.853721 -256.735375 
L 381.039317 -255.614005 
L 380.224912 -254.605496 
L 379.410508 -253.727912 
L 378.596103 -252.965397 
L 377.781699 -252.270492 
L 376.967294 -251.57897 
L 376.152889 -250.831241 
L 375.338485 -249.989992 
L 374.52408 -249.047235 
L 373.709676 -248.021241 
L 372.895271 -246.94814 
L 372.080867 -245.873018 
L 371.266462 -244.843054 
L 370.452058 -243.902295 
L 369.637653 -243.085536 
L 368.823249 -242.40937 
L 368.008844 -241.862252 
L 367.194439 -241.39998 
L 366.380035 -240.952984 
L 365.56563 -240.443755 
L 364.751226 -239.803998 
L 363.936821 -238.982401 
L 363.122417 -237.94358 
L 362.308012 -236.665876 
L 361.493608 -235.144813 
L 360.679203 -233.402671 
L 359.864798 -231.497737 
L 359.050394 -229.523242 
L 358.235989 -227.589238 
L 357.421585 -225.791044 
L 356.60718 -224.179832 
L 355.792776 -222.753248 
L 354.978371 -221.470431 
L 354.163967 -220.277127 
L 353.349562 -219.121234 
L 352.535157 -217.951444 
L 351.720753 -216.710255 
L 350.906348 -215.340508 
L 350.091944 -213.812473 
L 349.277539 -212.1563 
L 348.463135 -210.473639 
L 347.64873 -208.912326 
L 346.834326 -207.611813 
L 346.019921 -206.647862 
L 345.205516 -206.006304 
L 344.391112 -205.594881 
L 343.576707 -205.278499 
L 342.762303 -204.916249 
L 341.947898 -204.387719 
L 341.133494 -203.608796 
L 340.319089 -202.543278 
L 339.504685 -201.212732 
L 338.69028 -199.698278 
L 337.875875 -198.125156 
L 337.061471 -196.629669 
L 336.247066 -195.321391 
L 335.432662 -194.257854 
L 334.618257 -193.439592 
L 333.803853 -192.820409 
L 332.989448 -192.32261 
L 332.175044 -191.850755 
L 331.360639 -191.304786 
L 330.546235 -190.597887 
L 329.73183 -189.68095 
L 328.917425 -188.564649 
L 328.103021 -187.322833 
L 327.288616 -186.068477 
L 326.474212 -184.912384 
L 325.659807 -183.927857 
L 324.845403 -183.138361 
L 324.030998 -182.526942 
L 323.216594 -182.054787 
L 322.402189 -181.677903 
L 321.587784 -181.357803 
L 320.77338 -181.066694 
L 319.958975 -180.788891 
L 319.144571 -180.519988 
L 318.330166 -180.264646 
L 317.515762 -180.032857 
L 316.701357 -179.834265 
L 315.886953 -179.671091 
L 315.072548 -179.531375 
L 314.258143 -179.384764 
L 313.443739 -179.183165 
L 312.629334 -178.867556 
L 311.81493 -178.379758 
L 311.000525 -177.675623 
L 310.186121 -176.735111 
L 309.371716 -175.565689 
L 308.557312 -174.19861 
L 307.742907 -172.682239 
L 306.928502 -171.077807 
L 306.114098 -169.458418 
L 305.299693 -167.906418 
L 304.485289 -166.50403 
L 303.670884 -165.317432 
L 302.85648 -164.380389 
L 302.042075 -163.685377 
L 301.227671 -163.186767 
L 300.413266 -162.814235 
L 299.598862 -162.490101 
L 298.784457 -162.144101 
L 297.970052 -161.722743 
L 297.155648 -161.194791 
L 296.341243 -160.555801 
L 295.526839 -159.830925 
L 294.712434 -159.070883 
L 293.89803 -158.336534 
L 293.083625 -157.673051 
L 292.269221 -157.082917 
L 291.454816 -156.513259 
L 290.640411 -155.869402 
L 289.826007 -155.050957 
L 289.011602 -153.992559 
L 288.197198 -152.690442 
L 287.382793 -151.20548 
L 286.568389 -149.644802 
L 285.753984 -148.132464 
L 284.93958 -146.781217 
L 284.125175 -145.671986 
L 283.31077 -144.840903 
L 282.496366 -144.271176 
L 281.681961 -143.889304 
L 280.867557 -143.569877 
L 280.053152 -143.155888 
L 279.238748 -142.496013 
L 278.424343 -141.489233 
L 277.609939 -140.120803 
L 276.795534 -138.476362 
L 275.981129 -136.728172 
L 275.166725 -135.094223 
L 274.35232 -133.777274 
L 273.537916 -132.899422 
L 272.723511 -132.458116 
L 271.909107 -132.328436 
L 271.094702 -132.312328 
L 270.280298 -132.207041 
L 269.465893 -131.860387 
L 268.651488 -131.195802 
L 267.837084 -130.207697 
L 267.022679 -128.940625 
L 266.208275 -127.470206 
L 265.39387 -125.894487 
L 264.579466 -124.329748 
L 263.765061 -122.899289 
L 262.950657 -121.70965 
L 262.136252 -120.818607 
L 261.321848 -120.208962 
L 260.507443 -119.786199 
L 259.693038 -119.407679 
L 258.878634 -118.929936 
L 258.064229 -118.24973 
L 257.249825 -117.323051 
L 256.43542 -116.16241 
L 255.621016 -114.822808 
L 254.806611 -113.386722 
L 253.992207 -111.951116 
L 253.177802 -110.61341 
L 252.363397 -109.453998 
L 251.548993 -108.5178 
L 250.734588 -107.801268 
L 249.920184 -107.251053 
L 249.105779 -106.775807 
L 248.291375 -106.267353 
L 247.47697 -105.625602 
L 246.662566 -104.782331 
L 245.848161 -103.718271 
L 245.033756 -102.466723 
L 244.219352 -101.100229 
L 243.404947 -99.705972 
L 242.590543 -98.364032 
L 241.776138 -97.141051 
L 240.961734 -96.099255 
L 240.147329 -95.306984 
L 239.332925 -94.832195 
L 238.51852 -94.70963 
L 237.704115 -94.896465 
L 236.889711 -95.256366 
L 236.075306 -95.601309 
L 235.260902 -95.771434 
L 234.446497 -95.701611 
L 233.632093 -95.437417 
L 232.817688 -95.097236 
L 232.003284 -94.809645 
L 231.188879 -94.670841 
L 230.374474 -94.745647 
L 229.56007 -95.093037 
L 228.745665 -95.778083 
L 227.931261 -96.847445 
L 227.116856 -98.27651 
L 226.302452 -99.929028 
L 225.488047 -101.576549 
L 224.673643 -102.979403 
L 223.859238 -103.97717 
L 223.044834 -104.533973 
L 222.230429 -104.720808 
L 221.416024 -104.657469 
L 220.60162 -104.460255 
L 219.787215 -104.228582 
L 218.972811 -104.061765 
L 218.158406 -104.072173 
L 217.344002 -104.371272 
L 216.529597 -105.028847 
L 215.715193 -106.027391 
L 214.900788 -107.246046 
L 214.086383 -108.49424 
L 213.271979 -109.576904 
L 212.457574 -110.351752 
L 211.64317 -110.754301 
L 210.828765 -110.793094 
L 210.014361 -110.530797 
L 209.199956 -110.063797 
L 208.385552 -109.503807 
L 207.571147 -108.959409 
L 206.756742 -108.516225 
L 205.942338 -108.218819 
L 205.127933 -108.061303 
L 204.313529 -107.992084 
L 203.499124 -107.931206 
L 202.68472 -107.792964 
L 201.870315 -107.50662 
L 201.055911 -107.031516 
L 200.241506 -106.365233 
L 199.427101 -105.543811 
L 198.612697 -104.633096 
L 197.798292 -103.711827 
L 196.983888 -102.850615 
L 196.169483 -102.094294 
L 195.355079 -101.455002 
L 194.540674 -100.918483 
L 193.72627 -100.458913 
L 192.911865 -100.052264 
L 192.097461 -99.68041 
L 191.283056 -99.327877 
L 190.468651 -98.980322 
L 189.654247 -98.629474 
L 188.839842 -98.280145 
L 188.025438 -97.952529 
L 187.211033 -97.677203 
L 186.396629 -97.484859 
L 185.582224 -97.395085 
L 184.76782 -97.408624 
L 183.953415 -97.506409 
L 183.13901 -97.656768 
L 182.324606 -97.82906 
L 181.510201 -98.008154 
L 180.695797 -98.202343 
L 179.881392 -98.439044 
L 179.066988 -98.747793 
L 178.252583 -99.138763 
L 177.438179 -99.593518 
L 176.623774 -100.080098 
L 175.809369 -100.582437 
L 174.994965 -101.114051 
L 174.18056 -101.692254 
L 173.366156 -102.288505 
L 172.551751 -102.805896 
L 171.737347 -103.110581 
L 170.922942 -103.090689 
L 170.108538 -102.705066 
L 169.294133 -102.003884 
L 168.479728 -101.115806 
L 167.665324 -100.200953 
L 166.850919 -99.384016 
L 166.036515 -98.71096 
L 165.22211 -98.172295 
L 164.407706 -97.774372 
L 163.593301 -97.586463 
L 162.778897 -97.709584 
L 161.964492 -98.182136 
L 161.150087 -98.912207 
L 160.335683 -99.7097 
L 159.521278 -100.379464 
L 158.706874 -100.795489 
L 157.892469 -100.923564 
L 157.078065 -100.797754 
L 156.26366 -100.473474 
L 155.449256 -99.993805 
L 154.634851 -99.394918 
L 153.820447 -98.733619 
L 153.006042 -98.095619 
L 152.191637 -97.567214 
L 151.377233 -97.192233 
L 150.562828 -96.950507 
L 149.748424 -96.774433 
L 148.934019 -96.589383 
L 148.119615 -96.350911 
L 147.30521 -96.060229 
L 146.490806 -95.754866 
L 145.676401 -95.484929 
L 144.861996 -95.292506 
L 144.047592 -95.203884 
L 143.233187 -95.22606 
L 142.418783 -95.336846 
L 141.604378 -95.475899 
L 140.789974 -95.552355 
L 139.975569 -95.471819 
L 139.161165 -95.170839 
L 138.34676 -94.643877 
L 137.532355 -93.950872 
L 136.717951 -93.198172 
L 135.903546 -92.497002 
L 135.089142 -91.923547 
L 134.274737 -91.511597 
L 133.460333 -91.277789 
L 132.645928 -91.243577 
L 131.831524 -91.426993 
L 131.017119 -91.813758 
L 130.202714 -92.338213 
L 129.38831 -92.893992 
L 128.573905 -93.368633 
L 127.759501 -93.682952 
L 126.945096 -93.820387 
L 126.130692 -93.838751 
L 125.316287 -93.858985 
L 124.501883 -94.025666 
L 123.687478 -94.44141 
L 122.873074 -95.103737 
L 122.058669 -95.896601 
L 121.244264 -96.650745 
L 120.42986 -97.22097 
L 119.615455 -97.529261 
L 118.801051 -97.566624 
L 117.986646 -97.372218 
L 117.172242 -97.012028 
L 116.357837 -96.571067 
L 115.543433 -96.155135 
L 114.729028 -95.881574 
L 113.914623 -95.841293 
L 113.100219 -96.046031 
L 112.285814 -96.411189 
L 111.47141 -96.804692 
L 110.657005 -97.126244 
L 109.842601 -97.357165 
L 109.028196 -97.542139 
L 108.213792 -97.706995 
L 107.399387 -97.792285 
L 106.584982 -97.682954 
L 105.770578 -97.293916 
L 104.956173 -96.630815 
L 104.141769 -95.801928 
L 103.327364 -94.984256 
L 102.51296 -94.347058 
L 101.698555 -93.963509 
L 100.884151 -93.784099 
L 100.069746 -93.701577 
L 99.255341 -93.638272 
L 98.440937 -93.587828 
L 97.626532 -93.601831 
L 96.812128 -93.737772 
L 95.997723 -93.999736 
L 95.183319 -94.319127 
L 94.368914 -94.593216 
L 93.55451 -94.74088 
L 92.740105 -94.731413 
L 91.9257 -94.579634 
L 91.111296 -94.323895 
L 90.296891 -94.00654 
L 89.482487 -93.666215 
L 88.668082 -93.337227 
L 87.853678 -93.046861 
L 87.039273 -92.80847 
L 86.224869 -92.615464 
L 85.410464 -92.442025 
L 84.59606 -92.251713 
L 83.781655 -92.010125 
L 82.96725 -91.696287 
L 82.152846 -91.309313 
L 81.338441 -90.869878 
L 80.524037 -90.418329 
L 79.709632 -90.010478 
L 78.895228 -89.706913 
L 78.080823 -89.549791 
L 77.266419 -89.534274 
L 76.452014 -89.599461 
L 75.637609 -89.652191 
L 74.823205 -89.607272 
L 74.0088 -89.420766 
L 73.194396 -89.101214 
L 72.379991 -88.690591 
L 71.565587 -88.2244 
L 70.751182 -87.705879 
L 69.936778 -87.118661 
L 69.122373 -86.458508 
L 68.307968 -85.753407 
L 67.493564 -85.06278 
L 66.679159 -84.460503 
L 65.864755 -84.008395 
L 65.05035 -83.728143 
L 64.235946 -83.586355 
L 63.421541 -83.508632 
L 62.607137 -83.412284 
L 61.792732 -83.221427 
L 60.978327 -82.858783 
L 60.163923 -82.248728 
L 59.349518 -81.34427 
L 58.535114 -80.157931 
L 57.720709 -78.781966 
L 56.906305 -77.396841 
L 56.0919 -76.255217 
L 55.277496 -75.574258 
L 54.463091 -75.351646 
L 53.648687 -75.399231 
L 52.834282 -75.53787 
L 52.019877 -75.677593 
L 51.205473 -75.80511 
L 50.391068 -75.924826 
L 49.576664 -75.98363 
L 48.762259 -75.857449 
L 47.947855 -75.42248 
L 47.13345 -74.639723 
L 46.319046 -73.603504 
L 45.504641 -72.537615 
L 44.690236 -71.694323 
L 43.875832 -71.17733 
L 43.061427 -70.907601 
L 42.247023 -70.756742 
L 41.432618 -70.640046 
L 40.618214 -70.531635 
L 39.803809 -70.445876 
L 38.989405 -70.402039 
L 38.175 -70.383899 
z
" style="stroke: #e41a1c; stroke-opacity: 0.3"/>
    </defs>
    <g clip-path="url(#pfb37774af1)">
     <use xlink:href="#m609b649064" x="0" y="360" style="fill: #e41a1c; fill-opacity: 0.3; stroke: #e41a1c; stroke-opacity: 0.3"/>
    </g>
   </g>
   <g id="PolyCollection_2">
    <defs>
     <path id="m01c008dba5" d="M 38.175 -75.983744 
L 38.175 -72.116847 
L 38.989405 -72.472421 
L 39.803809 -72.727176 
L 40.618214 -72.873045 
L 41.432618 -72.916556 
L 42.247023 -72.895992 
L 43.061427 -72.862085 
L 43.875832 -72.8476 
L 44.690236 -72.857363 
L 45.504641 -72.875148 
L 46.319046 -72.877515 
L 47.13345 -72.847776 
L 47.947855 -72.784581 
L 48.762259 -72.702602 
L 49.576664 -72.628468 
L 50.391068 -72.597523 
L 51.205473 -72.650479 
L 52.019877 -72.822612 
L 52.834282 -73.126061 
L 53.648687 -73.536552 
L 54.463091 -73.995057 
L 55.277496 -74.428988 
L 56.0919 -74.787802 
L 56.906305 -75.068911 
L 57.720709 -75.308946 
L 58.535114 -75.550704 
L 59.349518 -75.813698 
L 60.163923 -76.083226 
L 60.978327 -76.326347 
L 61.792732 -76.528355 
L 62.607137 -76.703274 
L 63.421541 -76.859103 
L 64.235946 -76.966569 
L 65.05035 -76.958199 
L 65.864755 -76.758587 
L 66.679159 -76.343453 
L 67.493564 -75.773439 
L 68.307968 -75.160818 
L 69.122373 -74.622655 
L 69.936778 -74.254227 
L 70.751182 -74.113253 
L 71.565587 -74.208735 
L 72.379991 -74.498177 
L 73.194396 -74.901687 
L 74.0088 -75.335977 
L 74.823205 -75.748336 
L 75.637609 -76.119923 
L 76.452014 -76.441786 
L 77.266419 -76.692202 
L 78.080823 -76.832606 
L 78.895228 -76.829231 
L 79.709632 -76.690576 
L 80.524037 -76.477957 
L 81.338441 -76.269844 
L 82.152846 -76.120354 
L 82.96725 -76.044477 
L 83.781655 -76.02848 
L 84.59606 -76.051482 
L 85.410464 -76.10198 
L 86.224869 -76.178855 
L 87.039273 -76.282842 
L 87.853678 -76.415922 
L 88.668082 -76.594191 
L 89.482487 -76.854647 
L 90.296891 -77.236926 
L 91.111296 -77.750425 
L 91.9257 -78.35178 
L 92.740105 -78.951527 
L 93.55451 -79.457657 
L 94.368914 -79.833749 
L 95.183319 -80.117522 
L 95.997723 -80.382556 
L 96.812128 -80.685565 
L 97.626532 -81.035459 
L 98.440937 -81.394677 
L 99.255341 -81.715016 
L 100.069746 -81.988991 
L 100.884151 -82.265007 
L 101.698555 -82.604978 
L 102.51296 -83.030805 
L 103.327364 -83.503201 
L 104.141769 -83.941921 
L 104.956173 -84.279719 
L 105.770578 -84.511231 
L 106.584982 -84.683076 
L 107.399387 -84.838416 
L 108.213792 -84.976066 
L 109.028196 -85.049624 
L 109.842601 -84.99975 
L 110.657005 -84.79849 
L 111.47141 -84.472552 
L 112.285814 -84.087897 
L 113.100219 -83.714861 
L 113.914623 -83.401211 
L 114.729028 -83.163084 
L 115.543433 -82.991771 
L 116.357837 -82.8684 
L 117.172242 -82.773526 
L 117.986646 -82.684061 
L 118.801051 -82.565987 
L 119.615455 -82.376208 
L 120.42986 -82.075615 
L 121.244264 -81.645254 
L 122.058669 -81.096784 
L 122.873074 -80.473354 
L 123.687478 -79.841893 
L 124.501883 -79.279361 
L 125.316287 -78.855236 
L 126.130692 -78.613362 
L 126.945096 -78.558868 
L 127.759501 -78.657133 
L 128.573905 -78.848136 
L 129.38831 -79.070686 
L 130.202714 -79.283169 
L 131.017119 -79.470238 
L 131.831524 -79.636253 
L 132.645928 -79.793848 
L 133.460333 -79.955365 
L 134.274737 -80.130397 
L 135.089142 -80.32728 
L 135.903546 -80.55227 
L 136.717951 -80.802335 
L 137.532355 -81.056077 
L 138.34676 -81.27274 
L 139.161165 -81.404645 
L 139.975569 -81.417952 
L 140.789974 -81.309326 
L 141.604378 -81.108267 
L 142.418783 -80.864836 
L 143.233187 -80.631613 
L 144.047592 -80.450345 
L 144.861996 -80.348412 
L 145.676401 -80.341912 
L 146.490806 -80.436711 
L 147.30521 -80.623079 
L 148.119615 -80.869909 
L 148.934019 -81.127633 
L 149.748424 -81.341614 
L 150.562828 -81.469583 
L 151.377233 -81.494744 
L 152.191637 -81.430003 
L 153.006042 -81.313974 
L 153.820447 -81.201948 
L 154.634851 -81.153927 
L 155.449256 -81.220424 
L 156.26366 -81.427665 
L 157.078065 -81.76633 
L 157.892469 -82.188822 
L 158.706874 -82.617757 
L 159.521278 -82.963882 
L 160.335683 -83.147037 
L 161.150087 -83.112225 
L 161.964492 -82.836877 
L 162.778897 -82.331375 
L 163.593301 -81.636163 
L 164.407706 -80.8152 
L 165.22211 -79.943948 
L 166.036515 -79.093359 
L 166.850919 -78.315392 
L 167.665324 -77.636009 
L 168.479728 -77.057646 
L 169.294133 -76.567412 
L 170.108538 -76.144064 
L 170.922942 -75.759521 
L 171.737347 -75.37732 
L 172.551751 -74.955071 
L 173.366156 -74.456853 
L 174.18056 -73.873675 
L 174.994965 -73.238608 
L 175.809369 -72.620467 
L 176.623774 -72.095958 
L 177.438179 -71.718103 
L 178.252583 -71.498568 
L 179.066988 -71.409507 
L 179.881392 -71.399576 
L 180.695797 -71.412883 
L 181.510201 -71.40111 
L 182.324606 -71.327259 
L 183.13901 -71.166624 
L 183.953415 -70.910112 
L 184.76782 -70.569441 
L 185.582224 -70.179248 
L 186.396629 -69.791374 
L 187.211033 -69.461422 
L 188.025438 -69.233021 
L 188.839842 -69.126202 
L 189.654247 -69.133168 
L 190.468651 -69.221233 
L 191.283056 -69.341359 
L 192.097461 -69.44083 
L 192.911865 -69.478104 
L 193.72627 -69.436095 
L 194.540674 -69.328538 
L 195.355079 -69.195643 
L 196.169483 -69.090559 
L 196.983888 -69.063187 
L 197.798292 -69.148124 
L 198.612697 -69.359426 
L 199.427101 -69.690475 
L 200.241506 -70.11609 
L 201.055911 -70.595913 
L 201.870315 -71.079881 
L 202.68472 -71.515938 
L 203.499124 -71.858315 
L 204.313529 -72.073802 
L 205.127933 -72.144177 
L 205.942338 -72.064784 
L 206.756742 -71.840931 
L 207.571147 -71.484353 
L 208.385552 -71.011037 
L 209.199956 -70.440578 
L 210.014361 -69.796655 
L 210.828765 -69.108041 
L 211.64317 -68.408685 
L 212.457574 -67.73455 
L 213.271979 -67.115539 
L 214.086383 -66.56403 
L 214.900788 -66.065157 
L 215.715193 -65.575482 
L 216.529597 -65.033808 
L 217.344002 -64.38093 
L 218.158406 -63.578338 
L 218.972811 -62.616152 
L 219.787215 -61.509092 
L 220.60162 -60.287321 
L 221.416024 -58.989389 
L 222.230429 -57.65939 
L 223.044834 -56.345685 
L 223.859238 -55.097008 
L 224.673643 -53.954137 
L 225.488047 -52.940061 
L 226.302452 -52.054797 
L 227.116856 -51.27879 
L 227.931261 -50.582403 
L 228.745665 -49.934833 
L 229.56007 -49.308272 
L 230.374474 -48.678957 
L 231.188879 -48.029253 
L 232.003284 -47.352458 
L 232.817688 -46.658087 
L 233.632093 -45.973419 
L 234.446497 -45.338609 
L 235.260902 -44.796356 
L 236.075306 -44.37998 
L 236.889711 -44.103986 
L 237.704115 -43.959622 
L 238.51852 -43.916406 
L 239.332925 -43.929734 
L 240.147329 -43.953834 
L 240.961734 -43.95722 
L 241.776138 -43.934258 
L 242.590543 -43.90517 
L 243.404947 -43.902489 
L 244.219352 -43.952214 
L 245.033756 -44.062342 
L 245.848161 -44.225453 
L 246.662566 -44.430717 
L 247.47697 -44.673521 
L 248.291375 -44.954615 
L 249.105779 -45.271051 
L 249.920184 -45.60732 
L 250.734588 -45.933027 
L 251.548993 -46.208356 
L 252.363397 -46.394895 
L 253.177802 -46.468022 
L 253.992207 -46.427254 
L 254.806611 -46.301815 
L 255.621016 -46.14957 
L 256.43542 -46.048527 
L 257.249825 -46.082004 
L 258.064229 -46.320801 
L 258.878634 -46.806906 
L 259.693038 -47.542871 
L 260.507443 -48.4894 
L 261.321848 -49.571638 
L 262.136252 -50.692675 
L 262.950657 -51.751538 
L 263.765061 -52.662188 
L 264.579466 -53.369539 
L 265.39387 -53.858685 
L 266.208275 -54.154685 
L 267.022679 -54.31297 
L 267.837084 -54.403825 
L 268.651488 -54.496382 
L 269.465893 -54.646255 
L 270.280298 -54.887889 
L 271.094702 -55.230731 
L 271.909107 -55.65868 
L 272.723511 -56.133336 
L 273.537916 -56.601969 
L 274.35232 -57.010217 
L 275.166725 -57.317544 
L 275.981129 -57.51077 
L 276.795534 -57.609319 
L 277.609939 -57.658231 
L 278.424343 -57.71165 
L 279.238748 -57.815076 
L 280.053152 -57.993969 
L 280.867557 -58.250995 
L 281.681961 -58.569647 
L 282.496366 -58.920835 
L 283.31077 -59.270264 
L 284.125175 -59.585787 
L 284.93958 -59.844187 
L 285.753984 -60.036146 
L 286.568389 -60.167831 
L 287.382793 -60.258478 
L 288.197198 -60.334848 
L 289.011602 -60.424207 
L 289.826007 -60.547268 
L 290.640411 -60.712269 
L 291.454816 -60.911755 
L 292.269221 -61.124298 
L 293.083625 -61.322615 
L 293.89803 -61.485999 
L 294.712434 -61.610273 
L 295.526839 -61.70812 
L 296.341243 -61.799264 
L 297.155648 -61.897611 
L 297.970052 -62.004178 
L 298.784457 -62.110066 
L 299.598862 -62.206453 
L 300.413266 -62.292787 
L 301.227671 -62.375571 
L 302.042075 -62.458669 
L 302.85648 -62.533768 
L 303.670884 -62.580277 
L 304.485289 -62.578268 
L 305.299693 -62.52767 
L 306.114098 -62.457325 
L 306.928502 -62.413474 
L 307.742907 -62.437292 
L 308.557312 -62.549468 
L 309.371716 -62.749858 
L 310.186121 -63.027747 
L 311.000525 -63.372629 
L 311.81493 -63.777354 
L 312.629334 -64.233078 
L 313.443739 -64.722289 
L 314.258143 -65.216274 
L 315.072548 -65.678188 
L 315.886953 -66.068369 
L 316.701357 -66.348917 
L 317.515762 -66.48849 
L 318.330166 -66.469844 
L 319.144571 -66.298753 
L 319.958975 -66.008282 
L 320.77338 -65.653546 
L 321.587784 -65.298258 
L 322.402189 -64.999059 
L 323.216594 -64.793684 
L 324.030998 -64.69615 
L 324.845403 -64.698645 
L 325.659807 -64.77722 
L 326.474212 -64.898537 
L 327.288616 -65.027353 
L 328.103021 -65.135764 
L 328.917425 -65.212551 
L 329.73183 -65.26703 
L 330.546235 -65.322904 
L 331.360639 -65.404254 
L 332.175044 -65.52123 
L 332.989448 -65.662856 
L 333.803853 -65.800087 
L 334.618257 -65.896731 
L 335.432662 -65.921743 
L 336.247066 -65.856832 
L 337.061471 -65.698746 
L 337.875875 -65.460496 
L 338.69028 -65.174484 
L 339.504685 -64.894595 
L 340.319089 -64.690698 
L 341.133494 -64.632771 
L 341.947898 -64.769846 
L 342.762303 -65.11319 
L 343.576707 -65.630893 
L 344.391112 -66.255491 
L 345.205516 -66.901088 
L 346.019921 -67.483873 
L 346.834326 -67.940093 
L 347.64873 -68.237787 
L 348.463135 -68.380673 
L 349.277539 -68.403633 
L 350.091944 -68.360249 
L 350.906348 -68.305378 
L 351.720753 -68.278678 
L 352.535157 -68.29569 
L 353.349562 -68.3498 
L 354.163967 -68.42263 
L 354.978371 -68.495781 
L 355.792776 -68.557522 
L 356.60718 -68.60339 
L 357.421585 -68.634236 
L 358.235989 -68.655125 
L 359.050394 -68.675464 
L 359.864798 -68.707792 
L 360.679203 -68.762119 
L 361.493608 -68.835925 
L 362.308012 -68.905505 
L 363.122417 -68.926952 
L 363.936821 -68.850876 
L 364.751226 -68.645074 
L 365.56563 -68.311524 
L 366.380035 -67.887134 
L 367.194439 -67.429622 
L 368.008844 -66.998176 
L 368.823249 -66.637441 
L 369.637653 -66.3684 
L 370.452058 -66.185737 
L 371.266462 -66.059386 
L 372.080867 -65.938845 
L 372.895271 -65.761246 
L 373.709676 -65.464885 
L 374.52408 -65.00653 
L 375.338485 -64.37613 
L 376.152889 -63.60179 
L 376.967294 -62.742697 
L 377.781699 -61.873916 
L 378.596103 -61.069853 
L 379.410508 -60.391569 
L 380.224912 -59.879427 
L 381.039317 -59.549858 
L 381.853721 -59.395269 
L 382.668126 -59.387774 
L 383.48253 -59.487302 
L 384.296935 -59.652342 
L 385.11134 -59.849556 
L 385.925744 -60.058894 
L 386.740149 -60.273198 
L 387.554553 -60.493721 
L 388.368958 -60.723906 
L 389.183362 -60.963094 
L 389.997767 -61.201327 
L 390.812171 -61.417045 
L 391.626576 -61.579983 
L 392.440981 -61.660037 
L 393.255385 -61.639283 
L 394.06979 -61.520976 
L 394.884194 -61.329769 
L 395.698599 -61.102346 
L 396.513003 -60.873582 
L 397.327408 -60.666048 
L 398.141812 -60.488652 
L 398.956217 -60.34429 
L 399.770622 -60.239216 
L 400.585026 -60.185107 
L 401.399431 -60.192242 
L 402.213835 -60.261333 
L 403.02824 -60.382018 
L 403.842644 -60.539115 
L 404.657049 -60.72151 
L 405.471453 -60.927153 
L 406.285858 -61.160851 
L 407.100262 -61.42672 
L 407.914667 -61.720459 
L 408.729072 -62.025983 
L 409.543476 -62.317883 
L 410.357881 -62.568171 
L 411.172285 -62.754017 
L 411.98669 -62.863097 
L 412.801094 -62.894465 
L 413.615499 -62.854954 
L 413.615499 -77.960116 
L 413.615499 -77.960116 
L 412.801094 -77.856363 
L 411.98669 -77.719946 
L 411.172285 -77.567105 
L 410.357881 -77.411335 
L 409.543476 -77.259942 
L 408.729072 -77.112789 
L 407.914667 -76.963704 
L 407.100262 -76.804003 
L 406.285858 -76.626613 
L 405.471453 -76.428865 
L 404.657049 -76.212656 
L 403.842644 -75.982643 
L 403.02824 -75.745245 
L 402.213835 -75.51109 
L 401.399431 -75.300433 
L 400.585026 -75.147039 
L 399.770622 -75.094461 
L 398.956217 -75.181937 
L 398.141812 -75.424712 
L 397.327408 -75.800431 
L 396.513003 -76.251707 
L 395.698599 -76.70407 
L 394.884194 -77.088699 
L 394.06979 -77.358991 
L 393.255385 -77.496175 
L 392.440981 -77.505406 
L 391.626576 -77.407181 
L 390.812171 -77.228818 
L 389.997767 -76.997868 
L 389.183362 -76.736553 
L 388.368958 -76.45639 
L 387.554553 -76.154706 
L 386.740149 -75.81616 
L 385.925744 -75.420643 
L 385.11134 -74.955209 
L 384.296935 -74.425303 
L 383.48253 -73.860909 
L 382.668126 -73.315506 
L 381.853721 -72.858089 
L 381.039317 -72.559806 
L 380.224912 -72.477448 
L 379.410508 -72.637315 
L 378.596103 -73.024764 
L 377.781699 -73.584652 
L 376.967294 -74.23422 
L 376.152889 -74.884162 
L 375.338485 -75.459941 
L 374.52408 -75.916135 
L 373.709676 -76.241103 
L 372.895271 -76.453876 
L 372.080867 -76.5965 
L 371.266462 -76.722947 
L 370.452058 -76.884467 
L 369.637653 -77.113577 
L 368.823249 -77.412645 
L 368.008844 -77.753418 
L 367.194439 -78.089115 
L 366.380035 -78.373909 
L 365.56563 -78.580597 
L 364.751226 -78.708142 
L 363.936821 -78.776206 
L 363.122417 -78.811862 
L 362.308012 -78.838725 
L 361.493608 -78.874191 
L 360.679203 -78.930659 
L 359.864798 -79.013879 
L 359.050394 -79.11756 
L 358.235989 -79.219773 
L 357.421585 -79.28735 
L 356.60718 -79.288991 
L 355.792776 -79.21086 
L 354.978371 -79.065756 
L 354.163967 -78.890108 
L 353.349562 -78.729533 
L 352.535157 -78.619898 
L 351.720753 -78.573291 
L 350.906348 -78.574611 
L 350.091944 -78.587711 
L 349.277539 -78.566151 
L 348.463135 -78.464529 
L 347.64873 -78.24868 
L 346.834326 -77.903933 
L 346.019921 -77.43996 
L 345.205516 -76.890216 
L 344.391112 -76.305188 
L 343.576707 -75.741459 
L 342.762303 -75.250567 
L 341.947898 -74.871124 
L 341.133494 -74.625175 
L 340.319089 -74.517501 
L 339.504685 -74.535901 
L 338.69028 -74.651736 
L 337.875875 -74.822756 
L 337.061471 -75.001305 
L 336.247066 -75.147277 
L 335.432662 -75.239077 
L 334.618257 -75.275006 
L 333.803853 -75.264235 
L 332.989448 -75.214527 
L 332.175044 -75.12585 
L 331.360639 -74.993499 
L 330.546235 -74.816997 
L 329.73183 -74.607874 
L 328.917425 -74.391318 
L 328.103021 -74.200943 
L 327.288616 -74.070228 
L 326.474212 -74.025715 
L 325.659807 -74.083804 
L 324.845403 -74.248429 
L 324.030998 -74.50741 
L 323.216594 -74.829931 
L 322.402189 -75.169367 
L 321.587784 -75.472437 
L 320.77338 -75.69125 
L 319.958975 -75.793083 
L 319.144571 -75.764164 
L 318.330166 -75.607065 
L 317.515762 -75.334973 
L 316.701357 -74.967427 
L 315.886953 -74.529089 
L 315.072548 -74.048734 
L 314.258143 -73.555405 
L 313.443739 -73.073117 
L 312.629334 -72.618562 
L 311.81493 -72.203536 
L 311.000525 -71.83865 
L 310.186121 -71.5334 
L 309.371716 -71.291909 
L 308.557312 -71.109386 
L 307.742907 -70.975061 
L 306.928502 -70.881416 
L 306.114098 -70.832787 
L 305.299693 -70.844652 
L 304.485289 -70.930089 
L 303.670884 -71.081505 
L 302.85648 -71.264711 
L 302.042075 -71.43332 
L 301.227671 -71.551541 
L 300.413266 -71.607946 
L 299.598862 -71.613091 
L 298.784457 -71.585311 
L 297.970052 -71.535577 
L 297.155648 -71.461933 
L 296.341243 -71.355902 
L 295.526839 -71.213959 
L 294.712434 -71.044842 
L 293.89803 -70.868091 
L 293.083625 -70.705911 
L 292.269221 -70.57518 
L 291.454816 -70.485374 
L 290.640411 -70.441744 
L 289.826007 -70.448198 
L 289.011602 -70.505941 
L 288.197198 -70.608879 
L 287.382793 -70.739693 
L 286.568389 -70.869945 
L 285.753984 -70.964818 
L 284.93958 -70.990851 
L 284.125175 -70.924328 
L 283.31077 -70.758195 
L 282.496366 -70.505422 
L 281.681961 -70.197162 
L 280.867557 -69.875407 
L 280.053152 -69.582023 
L 279.238748 -69.348033 
L 278.424343 -69.187305 
L 277.609939 -69.096286 
L 276.795534 -69.057742 
L 275.981129 -69.044809 
L 275.166725 -69.02386 
L 274.35232 -68.958571 
L 273.537916 -68.818223 
L 272.723511 -68.588917 
L 271.909107 -68.281859 
L 271.094702 -67.933241 
L 270.280298 -67.594652 
L 269.465893 -67.317426 
L 268.651488 -67.136786 
L 267.837084 -67.061614 
L 267.022679 -67.073036 
L 266.208275 -67.130814 
L 265.39387 -67.183498 
L 264.579466 -67.178482 
L 263.765061 -67.070339 
L 262.950657 -66.827608 
L 262.136252 -66.438151 
L 261.321848 -65.912173 
L 260.507443 -65.281741 
L 259.693038 -64.596563 
L 258.878634 -63.916882 
L 258.064229 -63.304847 
L 257.249825 -62.815513 
L 256.43542 -62.488386 
L 255.621016 -62.340229 
L 254.806611 -62.360161 
L 253.992207 -62.50863 
L 253.177802 -62.721687 
L 252.363397 -62.92069 
L 251.548993 -63.025881 
L 250.734588 -62.971345 
L 249.920184 -62.718709 
L 249.105779 -62.266799 
L 248.291375 -61.654544 
L 247.47697 -60.95481 
L 246.662566 -60.258488 
L 245.848161 -59.651977 
L 245.033756 -59.196537 
L 244.219352 -58.919777 
L 243.404947 -58.822737 
L 242.590543 -58.89472 
L 241.776138 -59.123336 
L 240.961734 -59.493432 
L 240.147329 -59.979318 
L 239.332925 -60.540579 
L 238.51852 -61.127611 
L 237.704115 -61.693698 
L 236.889711 -62.20595 
L 236.075306 -62.650056 
L 235.260902 -63.028368 
L 234.446497 -63.353564 
L 233.632093 -63.64077 
L 232.817688 -63.900677 
L 232.003284 -64.136059 
L 231.188879 -64.343886 
L 230.374474 -64.523552 
L 229.56007 -64.688231 
L 228.745665 -64.873421 
L 227.931261 -65.136653 
L 227.116856 -65.546258 
L 226.302452 -66.163264 
L 225.488047 -67.024733 
L 224.673643 -68.135079 
L 223.859238 -69.465525 
L 223.044834 -70.957849 
L 222.230429 -72.530326 
L 221.416024 -74.087576 
L 220.60162 -75.536287 
L 219.787215 -76.804703 
L 218.972811 -77.859163 
L 218.158406 -78.709866 
L 217.344002 -79.401886 
L 216.529597 -79.994828 
L 215.715193 -80.541541 
L 214.900788 -81.077043 
L 214.086383 -81.620508 
L 213.271979 -82.183584 
L 212.457574 -82.776311 
L 211.64317 -83.406999 
L 210.828765 -84.07781 
L 210.014361 -84.780131 
L 209.199956 -85.492873 
L 208.385552 -86.184096 
L 207.571147 -86.814253 
L 206.756742 -87.339644 
L 205.942338 -87.716262 
L 205.127933 -87.904735 
L 204.313529 -87.876151 
L 203.499124 -87.617651 
L 202.68472 -87.136709 
L 201.870315 -86.46342 
L 201.055911 -85.650156 
L 200.241506 -84.767596 
L 199.427101 -83.896017 
L 198.612697 -83.112144 
L 197.798292 -82.474472 
L 196.983888 -82.012185 
L 196.169483 -81.722285 
L 195.355079 -81.575863 
L 194.540674 -81.529684 
L 193.72627 -81.53748 
L 192.911865 -81.557933 
L 192.097461 -81.560242 
L 191.283056 -81.529051 
L 190.468651 -81.467915 
L 189.654247 -81.398334 
L 188.839842 -81.352792 
L 188.025438 -81.363729 
L 187.211033 -81.452689 
L 186.396629 -81.623258 
L 185.582224 -81.858914 
L 184.76782 -82.125208 
L 183.953415 -82.376123 
L 183.13901 -82.565266 
L 182.324606 -82.66082 
L 181.510201 -82.659131 
L 180.695797 -82.589489 
L 179.881392 -82.505422 
L 179.066988 -82.465246 
L 178.252583 -82.512155 
L 177.438179 -82.665137 
L 176.623774 -82.923972 
L 175.809369 -83.281581 
L 174.994965 -83.732984 
L 174.18056 -84.273346 
L 173.366156 -84.886682 
L 172.551751 -85.537955 
L 171.737347 -86.18154 
L 170.922942 -86.782523 
L 170.108538 -87.333666 
L 169.294133 -87.855891 
L 168.479728 -88.383474 
L 167.665324 -88.944045 
L 166.850919 -89.544706 
L 166.036515 -90.169998 
L 165.22211 -90.789155 
L 164.407706 -91.365826 
L 163.593301 -91.865177 
L 162.778897 -92.257826 
L 161.964492 -92.523192 
L 161.150087 -92.654063 
L 160.335683 -92.660366 
L 159.521278 -92.568012 
L 158.706874 -92.412 
L 157.892469 -92.228209 
L 157.078065 -92.048539 
L 156.26366 -91.899464 
L 155.449256 -91.800645 
L 154.634851 -91.761337 
L 153.820447 -91.775705 
L 153.006042 -91.82062 
L 152.191637 -91.859299 
L 151.377233 -91.851048 
L 150.562828 -91.763514 
L 149.748424 -91.582497 
L 148.934019 -91.316804 
L 148.119615 -90.998853 
L 147.30521 -90.682056 
L 146.490806 -90.433513 
L 145.676401 -90.319357 
L 144.861996 -90.38335 
L 144.047592 -90.626772 
L 143.233187 -91.002393 
L 142.418783 -91.428917 
L 141.604378 -91.818373 
L 140.789974 -92.101598 
L 139.975569 -92.241314 
L 139.161165 -92.231485 
L 138.34676 -92.089055 
L 137.532355 -91.846007 
L 136.717951 -91.54453 
L 135.903546 -91.231222 
L 135.089142 -90.945429 
L 134.274737 -90.703389 
L 133.460333 -90.487762 
L 132.645928 -90.252897 
L 131.831524 -89.946627 
L 131.017119 -89.537829 
L 130.202714 -89.035588 
L 129.38831 -88.491071 
L 128.573905 -87.981809 
L 127.759501 -87.58668 
L 126.945096 -87.364421 
L 126.130692 -87.343828 
L 125.316287 -87.523344 
L 124.501883 -87.873489 
L 123.687478 -88.340118 
L 122.873074 -88.851211 
L 122.058669 -89.329335 
L 121.244264 -89.707719 
L 120.42986 -89.944652 
L 119.615455 -90.031562 
L 118.801051 -89.993836 
L 117.986646 -89.886045 
L 117.172242 -89.782247 
L 116.357837 -89.75938 
L 115.543433 -89.873086 
L 114.729028 -90.134162 
L 113.914623 -90.502111 
L 113.100219 -90.903692 
L 112.285814 -91.265404 
L 111.47141 -91.541601 
L 110.657005 -91.724664 
L 109.842601 -91.830755 
L 109.028196 -91.869044 
L 108.213792 -91.822286 
L 107.399387 -91.660616 
L 106.584982 -91.374775 
L 105.770578 -90.999413 
L 104.956173 -90.607578 
L 104.141769 -90.269746 
L 103.327364 -90.00138 
L 102.51296 -89.756505 
L 101.698555 -89.477995 
L 100.884151 -89.149478 
L 100.069746 -88.8105 
L 99.255341 -88.528895 
L 98.440937 -88.341857 
L 97.626532 -88.211732 
L 96.812128 -88.044524 
L 95.997723 -87.749861 
L 95.183319 -87.289111 
L 94.368914 -86.68976 
L 93.55451 -86.024515 
L 92.740105 -85.362374 
L 91.9257 -84.726412 
L 91.111296 -84.101343 
L 90.296891 -83.476444 
L 89.482487 -82.873784 
L 88.668082 -82.343372 
L 87.853678 -81.935672 
L 87.039273 -81.671179 
L 86.224869 -81.530881 
L 85.410464 -81.475036 
L 84.59606 -81.467476 
L 83.781655 -81.482421 
L 82.96725 -81.497203 
L 82.152846 -81.488223 
L 81.338441 -81.43826 
L 80.524037 -81.34832 
L 79.709632 -81.241586 
L 78.895228 -81.148468 
L 78.080823 -81.0723 
L 77.266419 -80.967102 
L 76.452014 -80.764483 
L 75.637609 -80.425809 
L 74.823205 -79.972157 
L 74.0088 -79.478724 
L 73.194396 -79.040047 
L 72.379991 -78.725329 
L 71.565587 -78.55696 
L 70.751182 -78.521526 
L 69.936778 -78.588561 
L 69.122373 -78.721063 
L 68.307968 -78.881597 
L 67.493564 -79.040411 
L 66.679159 -79.184878 
L 65.864755 -79.318292 
L 65.05035 -79.432777 
L 64.235946 -79.485758 
L 63.421541 -79.431533 
L 62.607137 -79.267018 
L 61.792732 -79.041423 
L 60.978327 -78.833083 
L 60.163923 -78.700098 
L 59.349518 -78.636191 
L 58.535114 -78.582762 
L 57.720709 -78.477097 
L 56.906305 -78.286817 
L 56.0919 -78.018805 
L 55.277496 -77.70518 
L 54.463091 -77.3767 
L 53.648687 -77.049671 
L 52.834282 -76.737792 
L 52.019877 -76.467593 
L 51.205473 -76.278775 
L 50.391068 -76.209912 
L 49.576664 -76.278267 
L 48.762259 -76.465899 
L 47.947855 -76.722391 
L 47.13345 -76.98122 
L 46.319046 -77.177333 
L 45.504641 -77.259675 
L 44.690236 -77.200173 
L 43.875832 -77.000338 
L 43.061427 -76.693944 
L 42.247023 -76.343869 
L 41.432618 -76.03116 
L 40.618214 -75.831293 
L 39.803809 -75.777835 
L 38.989405 -75.846533 
L 38.175 -75.983744 
z
" style="stroke: #377eb8; stroke-opacity: 0.3"/>
    </defs>
    <g clip-path="url(#pfb37774af1)">
     <use xlink:href="#m01c008dba5" x="0" y="360" style="fill: #377eb8; fill-opacity: 0.3; stroke: #377eb8; stroke-opacity: 0.3"/>
    </g>
   </g>
   <g id="patch_3">
    <path d="M 225.650928 318.2 
L 225.650928 70.788 
L 329.894711 70.788 
L 329.894711 318.2 
z
" clip-path="url(#pfb37774af1)" style="fill: #808080; opacity: 0.3"/>
   </g>
   <g id="matplotlib.axis_1">
    <g id="xtick_1">
     <g id="line2d_1">
      <defs>
       <path id="mc41fcabf48" d="M 0 0 
L 0 3.5 
" style="stroke: #000000; stroke-width: 0.8"/>
      </defs>
      <g>
       <use xlink:href="#mc41fcabf48" x="79.709632" y="318.2" style="stroke: #000000; stroke-width: 0.8"/>
      </g>
     </g>
     <g id="text_1">
      <!-- 0.0 -->
      <g transform="translate(71.75807 332.798437)scale(0.1 -0.1)">
       <defs>
        <path id="DejaVuSans-30" d="M 2034 4250 
Q 1547 4250 1301 3770 
Q 1056 3291 1056 2328 
Q 1056 1369 1301 889 
Q 1547 409 2034 409 
Q 2525 409 2770 889 
Q 3016 1369 3016 2328 
Q 3016 3291 2770 3770 
Q 2525 4250 2034 4250 
z
M 2034 4750 
Q 2819 4750 3233 4129 
Q 3647 3509 3647 2328 
Q 3647 1150 3233 529 
Q 2819 -91 2034 -91 
Q 1250 -91 836 529 
Q 422 1150 422 2328 
Q 422 3509 836 4129 
Q 1250 4750 2034 4750 
z
" transform="scale(0.015625)"/>
        <path id="DejaVuSans-2e" d="M 684 794 
L 1344 794 
L 1344 0 
L 684 0 
L 684 794 
z
" transform="scale(0.015625)"/>
       </defs>
       <use xlink:href="#DejaVuSans-30"/>
       <use xlink:href="#DejaVuSans-2e" x="63.623047"/>
       <use xlink:href="#DejaVuSans-30" x="95.410156"/>
      </g>
     </g>
    </g>
    <g id="xtick_2">
     <g id="line2d_2">
      <g>
       <use xlink:href="#mc41fcabf48" x="163.104658" y="318.2" style="stroke: #000000; stroke-width: 0.8"/>
      </g>
     </g>
     <g id="text_2">
      <!-- 0.2 -->
      <g transform="translate(155.153096 332.798437)scale(0.1 -0.1)">
       <defs>
        <path id="DejaVuSans-32" d="M 1228 531 
L 3431 531 
L 3431 0 
L 469 0 
L 469 531 
Q 828 903 1448 1529 
Q 2069 2156 2228 2338 
Q 2531 2678 2651 2914 
Q 2772 3150 2772 3378 
Q 2772 3750 2511 3984 
Q 2250 4219 1831 4219 
Q 1534 4219 1204 4116 
Q 875 4013 500 3803 
L 500 4441 
Q 881 4594 1212 4672 
Q 1544 4750 1819 4750 
Q 2544 4750 2975 4387 
Q 3406 4025 3406 3419 
Q 3406 3131 3298 2873 
Q 3191 2616 2906 2266 
Q 2828 2175 2409 1742 
Q 1991 1309 1228 531 
z
" transform="scale(0.015625)"/>
       </defs>
       <use xlink:href="#DejaVuSans-30"/>
       <use xlink:href="#DejaVuSans-2e" x="63.623047"/>
       <use xlink:href="#DejaVuSans-32" x="95.410156"/>
      </g>
     </g>
    </g>
    <g id="xtick_3">
     <g id="line2d_3">
      <g>
       <use xlink:href="#mc41fcabf48" x="246.499685" y="318.2" style="stroke: #000000; stroke-width: 0.8"/>
      </g>
     </g>
     <g id="text_3">
      <!-- 0.4 -->
      <g transform="translate(238.548122 332.798437)scale(0.1 -0.1)">
       <defs>
        <path id="DejaVuSans-34" d="M 2419 4116 
L 825 1625 
L 2419 1625 
L 2419 4116 
z
M 2253 4666 
L 3047 4666 
L 3047 1625 
L 3713 1625 
L 3713 1100 
L 3047 1100 
L 3047 0 
L 2419 0 
L 2419 1100 
L 313 1100 
L 313 1709 
L 2253 4666 
z
" transform="scale(0.015625)"/>
       </defs>
       <use xlink:href="#DejaVuSans-30"/>
       <use xlink:href="#DejaVuSans-2e" x="63.623047"/>
       <use xlink:href="#DejaVuSans-34" x="95.410156"/>
      </g>
     </g>
    </g>
    <g id="xtick_4">
     <g id="line2d_4">
      <g>
       <use xlink:href="#mc41fcabf48" x="329.894711" y="318.2" style="stroke: #000000; stroke-width: 0.8"/>
      </g>
     </g>
     <g id="text_4">
      <!-- 0.6 -->
      <g transform="translate(321.943148 332.798437)scale(0.1 -0.1)">
       <defs>
        <path id="DejaVuSans-36" d="M 2113 2584 
Q 1688 2584 1439 2293 
Q 1191 2003 1191 1497 
Q 1191 994 1439 701 
Q 1688 409 2113 409 
Q 2538 409 2786 701 
Q 3034 994 3034 1497 
Q 3034 2003 2786 2293 
Q 2538 2584 2113 2584 
z
M 3366 4563 
L 3366 3988 
Q 3128 4100 2886 4159 
Q 2644 4219 2406 4219 
Q 1781 4219 1451 3797 
Q 1122 3375 1075 2522 
Q 1259 2794 1537 2939 
Q 1816 3084 2150 3084 
Q 2853 3084 3261 2657 
Q 3669 2231 3669 1497 
Q 3669 778 3244 343 
Q 2819 -91 2113 -91 
Q 1303 -91 875 529 
Q 447 1150 447 2328 
Q 447 3434 972 4092 
Q 1497 4750 2381 4750 
Q 2619 4750 2861 4703 
Q 3103 4656 3366 4563 
z
" transform="scale(0.015625)"/>
       </defs>
       <use xlink:href="#DejaVuSans-30"/>
       <use xlink:href="#DejaVuSans-2e" x="63.623047"/>
       <use xlink:href="#DejaVuSans-36" x="95.410156"/>
      </g>
     </g>
    </g>
    <g id="xtick_5">
     <g id="line2d_5">
      <g>
       <use xlink:href="#mc41fcabf48" x="413.289737" y="318.2" style="stroke: #000000; stroke-width: 0.8"/>
      </g>
     </g>
     <g id="text_5">
      <!-- 0.8 -->
      <g transform="translate(405.338175 332.798437)scale(0.1 -0.1)">
       <defs>
        <path id="DejaVuSans-38" d="M 2034 2216 
Q 1584 2216 1326 1975 
Q 1069 1734 1069 1313 
Q 1069 891 1326 650 
Q 1584 409 2034 409 
Q 2484 409 2743 651 
Q 3003 894 3003 1313 
Q 3003 1734 2745 1975 
Q 2488 2216 2034 2216 
z
M 1403 2484 
Q 997 2584 770 2862 
Q 544 3141 544 3541 
Q 544 4100 942 4425 
Q 1341 4750 2034 4750 
Q 2731 4750 3128 4425 
Q 3525 4100 3525 3541 
Q 3525 3141 3298 2862 
Q 3072 2584 2669 2484 
Q 3125 2378 3379 2068 
Q 3634 1759 3634 1313 
Q 3634 634 3220 271 
Q 2806 -91 2034 -91 
Q 1263 -91 848 271 
Q 434 634 434 1313 
Q 434 1759 690 2068 
Q 947 2378 1403 2484 
z
M 1172 3481 
Q 1172 3119 1398 2916 
Q 1625 2713 2034 2713 
Q 2441 2713 2670 2916 
Q 2900 3119 2900 3481 
Q 2900 3844 2670 4047 
Q 2441 4250 2034 4250 
Q 1625 4250 1398 4047 
Q 1172 3844 1172 3481 
z
" transform="scale(0.015625)"/>
       </defs>
       <use xlink:href="#DejaVuSans-30"/>
       <use xlink:href="#DejaVuSans-2e" x="63.623047"/>
       <use xlink:href="#DejaVuSans-38" x="95.410156"/>
      </g>
     </g>
    </g>
    <g id="text_6">
     <!-- seconds -->
     <g transform="translate(205.457749 346.476562)scale(0.1 -0.1)">
      <defs>
       <path id="DejaVuSans-73" d="M 2834 3397 
L 2834 2853 
Q 2591 2978 2328 3040 
Q 2066 3103 1784 3103 
Q 1356 3103 1142 2972 
Q 928 2841 928 2578 
Q 928 2378 1081 2264 
Q 1234 2150 1697 2047 
L 1894 2003 
Q 2506 1872 2764 1633 
Q 3022 1394 3022 966 
Q 3022 478 2636 193 
Q 2250 -91 1575 -91 
Q 1294 -91 989 -36 
Q 684 19 347 128 
L 347 722 
Q 666 556 975 473 
Q 1284 391 1588 391 
Q 1994 391 2212 530 
Q 2431 669 2431 922 
Q 2431 1156 2273 1281 
Q 2116 1406 1581 1522 
L 1381 1569 
Q 847 1681 609 1914 
Q 372 2147 372 2553 
Q 372 3047 722 3315 
Q 1072 3584 1716 3584 
Q 2034 3584 2315 3537 
Q 2597 3491 2834 3397 
z
" transform="scale(0.015625)"/>
       <path id="DejaVuSans-65" d="M 3597 1894 
L 3597 1613 
L 953 1613 
Q 991 1019 1311 708 
Q 1631 397 2203 397 
Q 2534 397 2845 478 
Q 3156 559 3463 722 
L 3463 178 
Q 3153 47 2828 -22 
Q 2503 -91 2169 -91 
Q 1331 -91 842 396 
Q 353 884 353 1716 
Q 353 2575 817 3079 
Q 1281 3584 2069 3584 
Q 2775 3584 3186 3129 
Q 3597 2675 3597 1894 
z
M 3022 2063 
Q 3016 2534 2758 2815 
Q 2500 3097 2075 3097 
Q 1594 3097 1305 2825 
Q 1016 2553 972 2059 
L 3022 2063 
z
" transform="scale(0.015625)"/>
       <path id="DejaVuSans-63" d="M 3122 3366 
L 3122 2828 
Q 2878 2963 2633 3030 
Q 2388 3097 2138 3097 
Q 1578 3097 1268 2742 
Q 959 2388 959 1747 
Q 959 1106 1268 751 
Q 1578 397 2138 397 
Q 2388 397 2633 464 
Q 2878 531 3122 666 
L 3122 134 
Q 2881 22 2623 -34 
Q 2366 -91 2075 -91 
Q 1284 -91 818 406 
Q 353 903 353 1747 
Q 353 2603 823 3093 
Q 1294 3584 2113 3584 
Q 2378 3584 2631 3529 
Q 2884 3475 3122 3366 
z
" transform="scale(0.015625)"/>
       <path id="DejaVuSans-6f" d="M 1959 3097 
Q 1497 3097 1228 2736 
Q 959 2375 959 1747 
Q 959 1119 1226 758 
Q 1494 397 1959 397 
Q 2419 397 2687 759 
Q 2956 1122 2956 1747 
Q 2956 2369 2687 2733 
Q 2419 3097 1959 3097 
z
M 1959 3584 
Q 2709 3584 3137 3096 
Q 3566 2609 3566 1747 
Q 3566 888 3137 398 
Q 2709 -91 1959 -91 
Q 1206 -91 779 398 
Q 353 888 353 1747 
Q 353 2609 779 3096 
Q 1206 3584 1959 3584 
z
" transform="scale(0.015625)"/>
       <path id="DejaVuSans-6e" d="M 3513 2113 
L 3513 0 
L 2938 0 
L 2938 2094 
Q 2938 2591 2744 2837 
Q 2550 3084 2163 3084 
Q 1697 3084 1428 2787 
Q 1159 2491 1159 1978 
L 1159 0 
L 581 0 
L 581 3500 
L 1159 3500 
L 1159 2956 
Q 1366 3272 1645 3428 
Q 1925 3584 2291 3584 
Q 2894 3584 3203 3211 
Q 3513 2838 3513 2113 
z
" transform="scale(0.015625)"/>
       <path id="DejaVuSans-64" d="M 2906 2969 
L 2906 4863 
L 3481 4863 
L 3481 0 
L 2906 0 
L 2906 525 
Q 2725 213 2448 61 
Q 2172 -91 1784 -91 
Q 1150 -91 751 415 
Q 353 922 353 1747 
Q 353 2572 751 3078 
Q 1150 3584 1784 3584 
Q 2172 3584 2448 3432 
Q 2725 3281 2906 2969 
z
M 947 1747 
Q 947 1113 1208 752 
Q 1469 391 1925 391 
Q 2381 391 2643 752 
Q 2906 1113 2906 1747 
Q 2906 2381 2643 2742 
Q 2381 3103 1925 3103 
Q 1469 3103 1208 2742 
Q 947 2381 947 1747 
z
" transform="scale(0.015625)"/>
      </defs>
      <use xlink:href="#DejaVuSans-73"/>
      <use xlink:href="#DejaVuSans-65" x="52.099609"/>
      <use xlink:href="#DejaVuSans-63" x="113.623047"/>
      <use xlink:href="#DejaVuSans-6f" x="168.603516"/>
      <use xlink:href="#DejaVuSans-6e" x="229.785156"/>
      <use xlink:href="#DejaVuSans-64" x="293.164062"/>
      <use xlink:href="#DejaVuSans-73" x="356.640625"/>
     </g>
    </g>
   </g>
   <g id="matplotlib.axis_2">
    <g id="ytick_1">
     <g id="line2d_6">
      <defs>
       <path id="mefb5ef360e" d="M 0 0 
L -3.5 0 
" style="stroke: #000000; stroke-width: 0.8"/>
      </defs>
      <g>
       <use xlink:href="#mefb5ef360e" x="38.175" y="283.615527" style="stroke: #000000; stroke-width: 0.8"/>
      </g>
     </g>
     <g id="text_7">
      <!-- 0 -->
      <g transform="translate(24.8125 287.414746)scale(0.1 -0.1)">
       <use xlink:href="#DejaVuSans-30"/>
      </g>
     </g>
    </g>
    <g id="ytick_2">
     <g id="line2d_7">
      <g>
       <use xlink:href="#mefb5ef360e" x="38.175" y="230.408645" style="stroke: #000000; stroke-width: 0.8"/>
      </g>
     </g>
     <g id="text_8">
      <!-- 2 -->
      <g transform="translate(24.8125 234.207864)scale(0.1 -0.1)">
       <use xlink:href="#DejaVuSans-32"/>
      </g>
     </g>
    </g>
    <g id="ytick_3">
     <g id="line2d_8">
      <g>
       <use xlink:href="#mefb5ef360e" x="38.175" y="177.201763" style="stroke: #000000; stroke-width: 0.8"/>
      </g>
     </g>
     <g id="text_9">
      <!-- 4 -->
      <g transform="translate(24.8125 181.000982)scale(0.1 -0.1)">
       <use xlink:href="#DejaVuSans-34"/>
      </g>
     </g>
    </g>
    <g id="ytick_4">
     <g id="line2d_9">
      <g>
       <use xlink:href="#mefb5ef360e" x="38.175" y="123.994882" style="stroke: #000000; stroke-width: 0.8"/>
      </g>
     </g>
     <g id="text_10">
      <!-- 6 -->
      <g transform="translate(24.8125 127.7941)scale(0.1 -0.1)">
       <use xlink:href="#DejaVuSans-36"/>
      </g>
     </g>
    </g>
    <g id="ytick_5">
     <g id="line2d_10">
      <g>
       <use xlink:href="#mefb5ef360e" x="38.175" y="70.788" style="stroke: #000000; stroke-width: 0.8"/>
      </g>
     </g>
     <g id="text_11">
      <!-- 8 -->
      <g transform="translate(24.8125 74.587219)scale(0.1 -0.1)">
       <use xlink:href="#DejaVuSans-38"/>
      </g>
     </g>
    </g>
    <g id="text_12">
     <!-- V -->
     <g transform="translate(18.732813 201.095562)rotate(-90)scale(0.1 -0.1)">
      <defs>
       <path id="DejaVuSans-b5" d="M 544 -1331 
L 544 3500 
L 1119 3500 
L 1119 1325 
Q 1119 872 1334 640 
Q 1550 409 1972 409 
Q 2434 409 2667 671 
Q 2900 934 2900 1459 
L 2900 3500 
L 3475 3500 
L 3475 806 
Q 3475 619 3529 530 
Q 3584 441 3700 441 
Q 3728 441 3778 458 
Q 3828 475 3916 513 
L 3916 50 
Q 3788 -22 3673 -56 
Q 3559 -91 3450 -91 
Q 3234 -91 3106 31 
Q 2978 153 2931 403 
Q 2775 156 2548 32 
Q 2322 -91 2016 -91 
Q 1697 -91 1473 31 
Q 1250 153 1119 397 
L 1119 -1331 
L 544 -1331 
z
" transform="scale(0.015625)"/>
       <path id="DejaVuSans-56" d="M 1831 0 
L 50 4666 
L 709 4666 
L 2188 738 
L 3669 4666 
L 4325 4666 
L 2547 0 
L 1831 0 
z
" transform="scale(0.015625)"/>
      </defs>
      <use xlink:href="#DejaVuSans-b5"/>
      <use xlink:href="#DejaVuSans-56" x="63.623047"/>
     </g>
    </g>
   </g>
   <g id="line2d_11">
    <path d="M 38.175 294.389197 
L 40.618214 294.593632 
L 41.432618 294.451871 
L 42.247023 294.112521 
L 43.061427 293.561605 
L 44.690236 291.934149 
L 47.13345 289.183091 
L 47.947855 288.484072 
L 48.762259 287.977722 
L 49.576664 287.672452 
L 50.391068 287.545289 
L 53.648687 287.562196 
L 54.463091 287.322803 
L 55.277496 286.874029 
L 56.0919 286.204903 
L 57.720709 284.324359 
L 60.163923 281.221848 
L 60.978327 280.442577 
L 61.792732 279.88535 
L 62.607137 279.559572 
L 63.421541 279.438113 
L 66.679159 279.583741 
L 67.493564 279.39481 
L 68.307968 279.028273 
L 69.936778 277.84647 
L 72.379991 275.845477 
L 73.194396 275.362553 
L 74.0088 275.020244 
L 75.637609 274.693018 
L 79.709632 274.329701 
L 82.152846 274.084852 
L 86.224869 274.085131 
L 87.039273 273.901442 
L 88.668082 273.190784 
L 91.9257 271.392371 
L 92.740105 271.159042 
L 93.55451 271.075863 
L 94.368914 271.138675 
L 95.997723 271.59024 
L 98.440937 272.436935 
L 100.069746 272.658457 
L 100.884151 272.591306 
L 101.698555 272.390656 
L 102.51296 272.056628 
L 104.141769 271.0482 
L 106.584982 269.268938 
L 107.399387 268.828876 
L 108.213792 268.554381 
L 109.028196 268.47345 
L 109.842601 268.586069 
L 111.47141 269.247635 
L 113.100219 270.062129 
L 113.914623 270.363476 
L 114.729028 270.545179 
L 116.357837 270.596528 
L 117.986646 270.581431 
L 118.801051 270.716733 
L 119.615455 271.014505 
L 120.42986 271.491103 
L 122.058669 272.894961 
L 125.316287 276.062619 
L 126.945096 277.187728 
L 128.573905 277.9196 
L 130.202714 278.257296 
L 131.017119 278.256054 
L 131.831524 278.127425 
L 133.460333 277.500216 
L 137.532355 275.268934 
L 139.161165 274.787237 
L 142.418783 274.010251 
L 144.861996 273.21394 
L 146.490806 272.987314 
L 148.119615 273.137011 
L 149.748424 273.320853 
L 150.562828 273.252144 
L 151.377233 273.003142 
L 152.191637 272.558303 
L 153.820447 271.219497 
L 155.449256 269.812159 
L 156.26366 269.309977 
L 157.078065 269.027173 
L 157.892469 268.981769 
L 158.706874 269.15136 
L 160.335683 269.890662 
L 161.964492 270.646316 
L 162.778897 270.871199 
L 163.593301 270.953254 
L 164.407706 270.891485 
L 166.036515 270.410592 
L 167.665324 269.629611 
L 170.922942 267.910961 
L 172.551751 267.36685 
L 173.366156 267.276183 
L 174.18056 267.335742 
L 174.994965 267.551918 
L 175.809369 267.915323 
L 177.438179 268.977719 
L 181.510201 272.049342 
L 183.13901 273.016984 
L 184.76782 273.663116 
L 185.582224 273.802846 
L 186.396629 273.785225 
L 187.211033 273.595342 
L 188.025438 273.236549 
L 189.654247 272.136799 
L 192.097461 270.376317 
L 193.72627 269.654475 
L 196.983888 268.614528 
L 198.612697 267.54397 
L 201.870315 264.897329 
L 202.68472 264.491517 
L 203.499124 264.25431 
L 205.127933 264.149089 
L 206.756742 264.097619 
L 208.385552 263.690523 
L 210.014361 263.072632 
L 210.828765 262.88671 
L 211.64317 262.912491 
L 212.457574 263.219353 
L 213.271979 263.8294 
L 214.086383 264.707201 
L 216.529597 267.87094 
L 217.344002 268.653484 
L 218.158406 269.129337 
L 218.972811 269.279448 
L 219.787215 269.155259 
L 221.416024 268.579057 
L 222.230429 268.445675 
L 223.044834 268.611399 
L 223.859238 269.165159 
L 224.673643 270.124975 
L 225.488047 271.433363 
L 227.931261 276.04946 
L 228.745665 277.271414 
L 229.56007 278.128978 
L 230.374474 278.587058 
L 231.188879 278.679157 
L 232.003284 278.495699 
L 234.446497 277.54208 
L 235.260902 277.431217 
L 236.075306 277.485727 
L 238.51852 278.02159 
L 239.332925 277.987058 
L 240.147329 277.686709 
L 240.961734 277.070984 
L 241.776138 276.136276 
L 243.404947 273.513264 
L 245.848161 269.094174 
L 247.47697 266.801333 
L 249.105779 265.212978 
L 251.548993 263.20179 
L 253.177802 261.354753 
L 254.806611 258.971935 
L 256.43542 256.50141 
L 257.249825 255.434356 
L 258.064229 254.559895 
L 258.878634 253.893065 
L 260.507443 253.013903 
L 262.136252 252.113566 
L 262.950657 251.39068 
L 263.765061 250.396188 
L 264.579466 249.129042 
L 267.837084 243.144661 
L 268.651488 242.051843 
L 269.465893 241.288425 
L 270.280298 240.833623 
L 273.537916 239.835473 
L 274.35232 239.146992 
L 275.166725 238.160837 
L 276.795534 235.560001 
L 278.424343 232.932195 
L 279.238748 231.886331 
L 280.053152 231.074465 
L 281.681961 229.942129 
L 282.496366 229.405032 
L 283.31077 228.724588 
L 284.125175 227.810803 
L 284.93958 226.626923 
L 286.568389 223.600032 
L 288.197198 220.353799 
L 289.826007 217.700769 
L 290.640411 216.707437 
L 292.269221 215.242346 
L 296.341243 212.402432 
L 297.970052 211.609806 
L 299.598862 211.232756 
L 301.227671 210.899989 
L 302.042075 210.532631 
L 302.85648 209.920749 
L 303.670884 209.018068 
L 304.485289 207.822934 
L 306.114098 204.777811 
L 307.742907 201.537289 
L 308.557312 200.118912 
L 309.371716 198.941916 
L 310.186121 198.040149 
L 311.000525 197.407828 
L 311.81493 197.005985 
L 313.443739 196.646041 
L 317.515762 196.125666 
L 319.958975 195.879996 
L 321.587784 195.691372 
L 322.402189 195.439553 
L 323.216594 194.990353 
L 324.030998 194.289024 
L 324.845403 193.311914 
L 326.474212 190.651652 
L 328.103021 187.663468 
L 328.917425 186.355214 
L 329.73183 185.311501 
L 330.546235 184.580196 
L 331.360639 184.144957 
L 334.618257 183.187532 
L 335.432662 182.477924 
L 336.247066 181.432191 
L 337.875875 178.56809 
L 339.504685 175.57338 
L 340.319089 174.392512 
L 341.133494 173.538593 
L 341.947898 173.009848 
L 342.762303 172.731097 
L 344.391112 172.374801 
L 345.205516 171.993931 
L 346.019921 171.322668 
L 346.834326 170.316068 
L 347.64873 168.995649 
L 349.277539 165.757213 
L 350.906348 162.466101 
L 352.535157 159.708028 
L 356.60718 153.742436 
L 358.235989 150.679427 
L 363.936821 138.844089 
L 365.56563 136.403431 
L 366.380035 135.493579 
L 367.194439 134.792368 
L 368.823249 133.879396 
L 370.452058 133.192511 
L 371.266462 132.752792 
L 372.080867 132.180264 
L 373.709676 130.618895 
L 376.152889 127.912834 
L 377.781699 126.490231 
L 381.039317 124.119203 
L 382.668126 122.306792 
L 385.925744 117.915249 
L 386.740149 117.081701 
L 387.554553 116.449299 
L 388.368958 116.001316 
L 391.626576 114.682157 
L 392.440981 114.08849 
L 393.255385 113.306181 
L 394.884194 111.260052 
L 398.956217 105.570195 
L 406.285858 96.612497 
L 407.914667 95.088172 
L 409.543476 94.008158 
L 411.172285 93.265412 
L 413.615499 92.477211 
L 413.615499 92.477211 
" clip-path="url(#pfb37774af1)" style="fill: none; stroke: #e41a1c; stroke-width: 1.5; stroke-linecap: square"/>
   </g>
   <g id="line2d_12">
    <path d="M 38.175 285.949704 
L 45.504641 284.932588 
L 47.13345 285.085502 
L 49.576664 285.546633 
L 51.205473 285.535373 
L 52.834282 285.068074 
L 56.906305 283.322136 
L 59.349518 282.775055 
L 64.235946 281.773836 
L 65.05035 281.804512 
L 65.864755 281.96156 
L 67.493564 282.593075 
L 69.122373 283.328141 
L 69.936778 283.578606 
L 70.751182 283.68261 
L 71.565587 283.617152 
L 72.379991 283.388247 
L 74.0088 282.592649 
L 75.637609 281.727134 
L 77.266419 281.170348 
L 78.895228 281.011151 
L 86.224869 281.145132 
L 87.853678 280.824203 
L 89.482487 280.135785 
L 91.111296 279.074116 
L 94.368914 276.738246 
L 95.997723 275.933792 
L 98.440937 275.131733 
L 100.884151 274.292758 
L 106.584982 271.971074 
L 108.213792 271.600824 
L 109.842601 271.584747 
L 111.47141 271.992923 
L 115.543433 273.567571 
L 117.172242 273.722113 
L 119.615455 273.796115 
L 120.42986 273.989867 
L 121.244264 274.323513 
L 122.873074 275.337717 
L 124.501883 276.423575 
L 125.316287 276.81071 
L 126.130692 277.021405 
L 126.945096 277.038355 
L 127.759501 276.878094 
L 129.38831 276.219121 
L 131.017119 275.495966 
L 132.645928 274.976627 
L 135.903546 274.108254 
L 138.34676 273.319103 
L 139.161165 273.181935 
L 139.975569 273.170367 
L 140.789974 273.294538 
L 142.418783 273.853123 
L 144.047592 274.461441 
L 144.861996 274.634119 
L 145.676401 274.669366 
L 146.490806 274.564888 
L 148.119615 274.065619 
L 149.748424 273.537944 
L 151.377233 273.327104 
L 155.449256 273.489466 
L 157.078065 273.092565 
L 159.521278 272.234053 
L 160.335683 272.096298 
L 161.150087 272.116856 
L 161.964492 272.319966 
L 162.778897 272.705399 
L 164.407706 273.909487 
L 167.665324 276.709973 
L 169.294133 277.788349 
L 172.551751 279.753487 
L 175.809369 282.048976 
L 177.438179 282.80838 
L 178.252583 282.994639 
L 179.881392 283.047501 
L 182.324606 283.00596 
L 183.953415 283.356883 
L 187.211033 284.542944 
L 188.839842 284.760503 
L 190.468651 284.655426 
L 192.911865 284.481982 
L 196.169483 284.593578 
L 196.983888 284.462314 
L 197.798292 284.188702 
L 198.612697 283.764215 
L 200.241506 282.558157 
L 201.870315 281.228349 
L 202.68472 280.673677 
L 203.499124 280.262017 
L 204.313529 280.025023 
L 205.127933 279.975544 
L 205.942338 280.109477 
L 206.756742 280.409712 
L 208.385552 281.402433 
L 210.828765 283.407074 
L 213.271979 285.350438 
L 217.344002 288.108592 
L 218.158406 288.855898 
L 218.972811 289.762342 
L 220.60162 292.088196 
L 224.673643 298.955392 
L 225.488047 300.017603 
L 226.302452 300.89097 
L 227.931261 302.140472 
L 230.374474 303.398746 
L 232.817688 304.720618 
L 236.075306 306.484982 
L 238.51852 307.477991 
L 240.961734 308.274674 
L 242.590543 308.600055 
L 244.219352 308.564004 
L 245.033756 308.370561 
L 246.662566 307.655398 
L 249.920184 305.836986 
L 250.734588 305.547814 
L 251.548993 305.382882 
L 253.177802 305.405145 
L 255.621016 305.755101 
L 256.43542 305.731543 
L 257.249825 305.551241 
L 258.064229 305.187176 
L 258.878634 304.638106 
L 260.507443 303.114429 
L 262.136252 301.434587 
L 263.765061 300.133737 
L 264.579466 299.725989 
L 265.39387 299.478909 
L 267.022679 299.306997 
L 268.651488 299.183416 
L 270.280298 298.75873 
L 275.166725 296.829298 
L 276.795534 296.66647 
L 278.424343 296.550523 
L 280.053152 296.212004 
L 282.496366 295.286871 
L 284.125175 294.744943 
L 285.753984 294.499518 
L 291.454816 294.301435 
L 297.155648 293.320228 
L 300.413266 293.049634 
L 302.85648 293.100761 
L 306.928502 293.352555 
L 308.557312 293.170573 
L 310.186121 292.719427 
L 311.81493 292.009555 
L 314.258143 290.614161 
L 315.886953 289.701271 
L 317.515762 289.088268 
L 318.330166 288.961546 
L 319.144571 288.968541 
L 320.77338 289.327602 
L 324.030998 290.39822 
L 325.659807 290.569488 
L 327.288616 290.451209 
L 334.618257 289.414132 
L 336.247066 289.497946 
L 337.875875 289.858374 
L 339.504685 290.284752 
L 340.319089 290.3959 
L 341.133494 290.371027 
L 341.947898 290.179515 
L 342.762303 289.818122 
L 344.391112 288.719661 
L 346.019921 287.538083 
L 346.834326 287.077987 
L 347.64873 286.756767 
L 348.463135 286.577399 
L 350.091944 286.52602 
L 352.535157 286.542206 
L 358.235989 286.062551 
L 361.493608 286.144942 
L 363.936821 286.186459 
L 365.56563 286.553939 
L 367.194439 287.240632 
L 368.823249 287.974957 
L 370.452058 288.464898 
L 373.709676 289.147006 
L 374.52408 289.538668 
L 376.152889 290.757024 
L 378.596103 292.952692 
L 379.410508 293.485558 
L 380.224912 293.821562 
L 381.039317 293.945168 
L 381.853721 293.873321 
L 383.48253 293.325895 
L 386.740149 291.955321 
L 389.997767 290.900402 
L 391.626576 290.506418 
L 393.255385 290.432271 
L 394.884194 290.790766 
L 398.956217 292.236886 
L 400.585026 292.333927 
L 402.213835 292.113788 
L 405.471453 291.321991 
L 411.98669 289.708478 
L 413.615499 289.592465 
L 413.615499 289.592465 
" clip-path="url(#pfb37774af1)" style="fill: none; stroke: #377eb8; stroke-width: 1.5; stroke-linecap: square"/>
   </g>
   <g id="line2d_13">
    <path d="M 79.709632 318.2 
L 79.709632 70.788 
" clip-path="url(#pfb37774af1)" style="fill: none; stroke: #000000; stroke-width: 0.5; stroke-linecap: square"/>
   </g>
   <g id="line2d_14">
    <path d="M 38.175 283.615527 
L 413.615499 283.615527 
" clip-path="url(#pfb37774af1)" style="fill: none; stroke: #000000; stroke-width: 0.5; stroke-linecap: square"/>
   </g>
   <g id="patch_4">
    <path d="M 38.175 318.2 
L 38.175 70.788 
" style="fill: none; stroke: #000000; stroke-width: 0.8; stroke-linejoin: miter; stroke-linecap: square"/>
   </g>
   <g id="patch_5">
    <path d="M 413.615499 318.2 
L 413.615499 70.788 
" style="fill: none; stroke: #000000; stroke-width: 0.8; stroke-linejoin: miter; stroke-linecap: square"/>
   </g>
   <g id="patch_6">
    <path d="M 38.175 318.2 
L 413.615499 318.2 
" style="fill: none; stroke: #000000; stroke-width: 0.8; stroke-linejoin: miter; stroke-linecap: square"/>
   </g>
   <g id="patch_7">
    <path d="M 38.175 70.788 
L 413.615499 70.788 
" style="fill: none; stroke: #000000; stroke-width: 0.8; stroke-linejoin: miter; stroke-linecap: square"/>
   </g>
   <g id="legend_1">
    <g id="patch_8">
     <path d="M 61.505406 47.380205 
L 390.285093 47.380205 
Q 392.285093 47.380205 392.285093 45.380205 
L 392.285093 17.023955 
Q 392.285093 15.023955 390.285093 15.023955 
L 61.505406 15.023955 
Q 59.505406 15.023955 59.505406 17.023955 
L 59.505406 45.380205 
Q 59.505406 47.380205 61.505406 47.380205 
z
" style="fill: #ffffff; opacity: 0.8; stroke: #cccccc; stroke-linejoin: miter"/>
    </g>
    <g id="text_13">
     <!-- Average of Sessions with  6 Tactors (Legs Excluded) at Fz (n=23) -->
     <g transform="translate(63.505406 26.622393)scale(0.1 -0.1)">
      <defs>
       <path id="DejaVuSans-41" d="M 2188 4044 
L 1331 1722 
L 3047 1722 
L 2188 4044 
z
M 1831 4666 
L 2547 4666 
L 4325 0 
L 3669 0 
L 3244 1197 
L 1141 1197 
L 716 0 
L 50 0 
L 1831 4666 
z
" transform="scale(0.015625)"/>
       <path id="DejaVuSans-76" d="M 191 3500 
L 800 3500 
L 1894 563 
L 2988 3500 
L 3597 3500 
L 2284 0 
L 1503 0 
L 191 3500 
z
" transform="scale(0.015625)"/>
       <path id="DejaVuSans-72" d="M 2631 2963 
Q 2534 3019 2420 3045 
Q 2306 3072 2169 3072 
Q 1681 3072 1420 2755 
Q 1159 2438 1159 1844 
L 1159 0 
L 581 0 
L 581 3500 
L 1159 3500 
L 1159 2956 
Q 1341 3275 1631 3429 
Q 1922 3584 2338 3584 
Q 2397 3584 2469 3576 
Q 2541 3569 2628 3553 
L 2631 2963 
z
" transform="scale(0.015625)"/>
       <path id="DejaVuSans-61" d="M 2194 1759 
Q 1497 1759 1228 1600 
Q 959 1441 959 1056 
Q 959 750 1161 570 
Q 1363 391 1709 391 
Q 2188 391 2477 730 
Q 2766 1069 2766 1631 
L 2766 1759 
L 2194 1759 
z
M 3341 1997 
L 3341 0 
L 2766 0 
L 2766 531 
Q 2569 213 2275 61 
Q 1981 -91 1556 -91 
Q 1019 -91 701 211 
Q 384 513 384 1019 
Q 384 1609 779 1909 
Q 1175 2209 1959 2209 
L 2766 2209 
L 2766 2266 
Q 2766 2663 2505 2880 
Q 2244 3097 1772 3097 
Q 1472 3097 1187 3025 
Q 903 2953 641 2809 
L 641 3341 
Q 956 3463 1253 3523 
Q 1550 3584 1831 3584 
Q 2591 3584 2966 3190 
Q 3341 2797 3341 1997 
z
" transform="scale(0.015625)"/>
       <path id="DejaVuSans-67" d="M 2906 1791 
Q 2906 2416 2648 2759 
Q 2391 3103 1925 3103 
Q 1463 3103 1205 2759 
Q 947 2416 947 1791 
Q 947 1169 1205 825 
Q 1463 481 1925 481 
Q 2391 481 2648 825 
Q 2906 1169 2906 1791 
z
M 3481 434 
Q 3481 -459 3084 -895 
Q 2688 -1331 1869 -1331 
Q 1566 -1331 1297 -1286 
Q 1028 -1241 775 -1147 
L 775 -588 
Q 1028 -725 1275 -790 
Q 1522 -856 1778 -856 
Q 2344 -856 2625 -561 
Q 2906 -266 2906 331 
L 2906 616 
Q 2728 306 2450 153 
Q 2172 0 1784 0 
Q 1141 0 747 490 
Q 353 981 353 1791 
Q 353 2603 747 3093 
Q 1141 3584 1784 3584 
Q 2172 3584 2450 3431 
Q 2728 3278 2906 2969 
L 2906 3500 
L 3481 3500 
L 3481 434 
z
" transform="scale(0.015625)"/>
       <path id="DejaVuSans-20" transform="scale(0.015625)"/>
       <path id="DejaVuSans-66" d="M 2375 4863 
L 2375 4384 
L 1825 4384 
Q 1516 4384 1395 4259 
Q 1275 4134 1275 3809 
L 1275 3500 
L 2222 3500 
L 2222 3053 
L 1275 3053 
L 1275 0 
L 697 0 
L 697 3053 
L 147 3053 
L 147 3500 
L 697 3500 
L 697 3744 
Q 697 4328 969 4595 
Q 1241 4863 1831 4863 
L 2375 4863 
z
" transform="scale(0.015625)"/>
       <path id="DejaVuSans-53" d="M 3425 4513 
L 3425 3897 
Q 3066 4069 2747 4153 
Q 2428 4238 2131 4238 
Q 1616 4238 1336 4038 
Q 1056 3838 1056 3469 
Q 1056 3159 1242 3001 
Q 1428 2844 1947 2747 
L 2328 2669 
Q 3034 2534 3370 2195 
Q 3706 1856 3706 1288 
Q 3706 609 3251 259 
Q 2797 -91 1919 -91 
Q 1588 -91 1214 -16 
Q 841 59 441 206 
L 441 856 
Q 825 641 1194 531 
Q 1563 422 1919 422 
Q 2459 422 2753 634 
Q 3047 847 3047 1241 
Q 3047 1584 2836 1778 
Q 2625 1972 2144 2069 
L 1759 2144 
Q 1053 2284 737 2584 
Q 422 2884 422 3419 
Q 422 4038 858 4394 
Q 1294 4750 2059 4750 
Q 2388 4750 2728 4690 
Q 3069 4631 3425 4513 
z
" transform="scale(0.015625)"/>
       <path id="DejaVuSans-69" d="M 603 3500 
L 1178 3500 
L 1178 0 
L 603 0 
L 603 3500 
z
M 603 4863 
L 1178 4863 
L 1178 4134 
L 603 4134 
L 603 4863 
z
" transform="scale(0.015625)"/>
       <path id="DejaVuSans-77" d="M 269 3500 
L 844 3500 
L 1563 769 
L 2278 3500 
L 2956 3500 
L 3675 769 
L 4391 3500 
L 4966 3500 
L 4050 0 
L 3372 0 
L 2619 2869 
L 1863 0 
L 1184 0 
L 269 3500 
z
" transform="scale(0.015625)"/>
       <path id="DejaVuSans-74" d="M 1172 4494 
L 1172 3500 
L 2356 3500 
L 2356 3053 
L 1172 3053 
L 1172 1153 
Q 1172 725 1289 603 
Q 1406 481 1766 481 
L 2356 481 
L 2356 0 
L 1766 0 
Q 1100 0 847 248 
Q 594 497 594 1153 
L 594 3053 
L 172 3053 
L 172 3500 
L 594 3500 
L 594 4494 
L 1172 4494 
z
" transform="scale(0.015625)"/>
       <path id="DejaVuSans-68" d="M 3513 2113 
L 3513 0 
L 2938 0 
L 2938 2094 
Q 2938 2591 2744 2837 
Q 2550 3084 2163 3084 
Q 1697 3084 1428 2787 
Q 1159 2491 1159 1978 
L 1159 0 
L 581 0 
L 581 4863 
L 1159 4863 
L 1159 2956 
Q 1366 3272 1645 3428 
Q 1925 3584 2291 3584 
Q 2894 3584 3203 3211 
Q 3513 2838 3513 2113 
z
" transform="scale(0.015625)"/>
       <path id="DejaVuSans-54" d="M -19 4666 
L 3928 4666 
L 3928 4134 
L 2272 4134 
L 2272 0 
L 1638 0 
L 1638 4134 
L -19 4134 
L -19 4666 
z
" transform="scale(0.015625)"/>
       <path id="DejaVuSans-28" d="M 1984 4856 
Q 1566 4138 1362 3434 
Q 1159 2731 1159 2009 
Q 1159 1288 1364 580 
Q 1569 -128 1984 -844 
L 1484 -844 
Q 1016 -109 783 600 
Q 550 1309 550 2009 
Q 550 2706 781 3412 
Q 1013 4119 1484 4856 
L 1984 4856 
z
" transform="scale(0.015625)"/>
       <path id="DejaVuSans-4c" d="M 628 4666 
L 1259 4666 
L 1259 531 
L 3531 531 
L 3531 0 
L 628 0 
L 628 4666 
z
" transform="scale(0.015625)"/>
       <path id="DejaVuSans-45" d="M 628 4666 
L 3578 4666 
L 3578 4134 
L 1259 4134 
L 1259 2753 
L 3481 2753 
L 3481 2222 
L 1259 2222 
L 1259 531 
L 3634 531 
L 3634 0 
L 628 0 
L 628 4666 
z
" transform="scale(0.015625)"/>
       <path id="DejaVuSans-78" d="M 3513 3500 
L 2247 1797 
L 3578 0 
L 2900 0 
L 1881 1375 
L 863 0 
L 184 0 
L 1544 1831 
L 300 3500 
L 978 3500 
L 1906 2253 
L 2834 3500 
L 3513 3500 
z
" transform="scale(0.015625)"/>
       <path id="DejaVuSans-6c" d="M 603 4863 
L 1178 4863 
L 1178 0 
L 603 0 
L 603 4863 
z
" transform="scale(0.015625)"/>
       <path id="DejaVuSans-75" d="M 544 1381 
L 544 3500 
L 1119 3500 
L 1119 1403 
Q 1119 906 1312 657 
Q 1506 409 1894 409 
Q 2359 409 2629 706 
Q 2900 1003 2900 1516 
L 2900 3500 
L 3475 3500 
L 3475 0 
L 2900 0 
L 2900 538 
Q 2691 219 2414 64 
Q 2138 -91 1772 -91 
Q 1169 -91 856 284 
Q 544 659 544 1381 
z
M 1991 3584 
L 1991 3584 
z
" transform="scale(0.015625)"/>
       <path id="DejaVuSans-29" d="M 513 4856 
L 1013 4856 
Q 1481 4119 1714 3412 
Q 1947 2706 1947 2009 
Q 1947 1309 1714 600 
Q 1481 -109 1013 -844 
L 513 -844 
Q 928 -128 1133 580 
Q 1338 1288 1338 2009 
Q 1338 2731 1133 3434 
Q 928 4138 513 4856 
z
" transform="scale(0.015625)"/>
       <path id="DejaVuSans-46" d="M 628 4666 
L 3309 4666 
L 3309 4134 
L 1259 4134 
L 1259 2759 
L 3109 2759 
L 3109 2228 
L 1259 2228 
L 1259 0 
L 628 0 
L 628 4666 
z
" transform="scale(0.015625)"/>
       <path id="DejaVuSans-7a" d="M 353 3500 
L 3084 3500 
L 3084 2975 
L 922 459 
L 3084 459 
L 3084 0 
L 275 0 
L 275 525 
L 2438 3041 
L 353 3041 
L 353 3500 
z
" transform="scale(0.015625)"/>
       <path id="DejaVuSans-3d" d="M 678 2906 
L 4684 2906 
L 4684 2381 
L 678 2381 
L 678 2906 
z
M 678 1631 
L 4684 1631 
L 4684 1100 
L 678 1100 
L 678 1631 
z
" transform="scale(0.015625)"/>
       <path id="DejaVuSans-33" d="M 2597 2516 
Q 3050 2419 3304 2112 
Q 3559 1806 3559 1356 
Q 3559 666 3084 287 
Q 2609 -91 1734 -91 
Q 1441 -91 1130 -33 
Q 819 25 488 141 
L 488 750 
Q 750 597 1062 519 
Q 1375 441 1716 441 
Q 2309 441 2620 675 
Q 2931 909 2931 1356 
Q 2931 1769 2642 2001 
Q 2353 2234 1838 2234 
L 1294 2234 
L 1294 2753 
L 1863 2753 
Q 2328 2753 2575 2939 
Q 2822 3125 2822 3475 
Q 2822 3834 2567 4026 
Q 2313 4219 1838 4219 
Q 1578 4219 1281 4162 
Q 984 4106 628 3988 
L 628 4550 
Q 988 4650 1302 4700 
Q 1616 4750 1894 4750 
Q 2613 4750 3031 4423 
Q 3450 4097 3450 3541 
Q 3450 3153 3228 2886 
Q 3006 2619 2597 2516 
z
" transform="scale(0.015625)"/>
      </defs>
      <use xlink:href="#DejaVuSans-41"/>
      <use xlink:href="#DejaVuSans-76" x="62.533203"/>
      <use xlink:href="#DejaVuSans-65" x="121.712891"/>
      <use xlink:href="#DejaVuSans-72" x="183.236328"/>
      <use xlink:href="#DejaVuSans-61" x="224.349609"/>
      <use xlink:href="#DejaVuSans-67" x="285.628906"/>
      <use xlink:href="#DejaVuSans-65" x="349.105469"/>
      <use xlink:href="#DejaVuSans-20" x="410.628906"/>
      <use xlink:href="#DejaVuSans-6f" x="442.416016"/>
      <use xlink:href="#DejaVuSans-66" x="503.597656"/>
      <use xlink:href="#DejaVuSans-20" x="538.802734"/>
      <use xlink:href="#DejaVuSans-53" x="570.589844"/>
      <use xlink:href="#DejaVuSans-65" x="634.066406"/>
      <use xlink:href="#DejaVuSans-73" x="695.589844"/>
      <use xlink:href="#DejaVuSans-73" x="747.689453"/>
      <use xlink:href="#DejaVuSans-69" x="799.789062"/>
      <use xlink:href="#DejaVuSans-6f" x="827.572266"/>
      <use xlink:href="#DejaVuSans-6e" x="888.753906"/>
      <use xlink:href="#DejaVuSans-73" x="952.132812"/>
      <use xlink:href="#DejaVuSans-20" x="1004.232422"/>
      <use xlink:href="#DejaVuSans-77" x="1036.019531"/>
      <use xlink:href="#DejaVuSans-69" x="1117.806641"/>
      <use xlink:href="#DejaVuSans-74" x="1145.589844"/>
      <use xlink:href="#DejaVuSans-68" x="1184.798828"/>
      <use xlink:href="#DejaVuSans-20" x="1248.177734"/>
      <use xlink:href="#DejaVuSans-20" x="1279.964844"/>
      <use xlink:href="#DejaVuSans-36" x="1311.751953"/>
      <use xlink:href="#DejaVuSans-20" x="1375.375"/>
      <use xlink:href="#DejaVuSans-54" x="1407.162109"/>
      <use xlink:href="#DejaVuSans-61" x="1451.746094"/>
      <use xlink:href="#DejaVuSans-63" x="1513.025391"/>
      <use xlink:href="#DejaVuSans-74" x="1568.005859"/>
      <use xlink:href="#DejaVuSans-6f" x="1607.214844"/>
      <use xlink:href="#DejaVuSans-72" x="1668.396484"/>
      <use xlink:href="#DejaVuSans-73" x="1709.509766"/>
      <use xlink:href="#DejaVuSans-20" x="1761.609375"/>
      <use xlink:href="#DejaVuSans-28" x="1793.396484"/>
      <use xlink:href="#DejaVuSans-4c" x="1832.410156"/>
      <use xlink:href="#DejaVuSans-65" x="1886.373047"/>
      <use xlink:href="#DejaVuSans-67" x="1947.896484"/>
      <use xlink:href="#DejaVuSans-73" x="2011.373047"/>
      <use xlink:href="#DejaVuSans-20" x="2063.472656"/>
      <use xlink:href="#DejaVuSans-45" x="2095.259766"/>
      <use xlink:href="#DejaVuSans-78" x="2158.443359"/>
      <use xlink:href="#DejaVuSans-63" x="2215.873047"/>
      <use xlink:href="#DejaVuSans-6c" x="2270.853516"/>
      <use xlink:href="#DejaVuSans-75" x="2298.636719"/>
      <use xlink:href="#DejaVuSans-64" x="2362.015625"/>
      <use xlink:href="#DejaVuSans-65" x="2425.492188"/>
      <use xlink:href="#DejaVuSans-64" x="2487.015625"/>
      <use xlink:href="#DejaVuSans-29" x="2550.492188"/>
      <use xlink:href="#DejaVuSans-20" x="2589.505859"/>
      <use xlink:href="#DejaVuSans-61" x="2621.292969"/>
      <use xlink:href="#DejaVuSans-74" x="2682.572266"/>
      <use xlink:href="#DejaVuSans-20" x="2721.78125"/>
      <use xlink:href="#DejaVuSans-46" x="2753.568359"/>
      <use xlink:href="#DejaVuSans-7a" x="2811.087891"/>
      <use xlink:href="#DejaVuSans-20" x="2863.578125"/>
      <use xlink:href="#DejaVuSans-28" x="2895.365234"/>
      <use xlink:href="#DejaVuSans-6e" x="2934.378906"/>
      <use xlink:href="#DejaVuSans-3d" x="2997.757812"/>
      <use xlink:href="#DejaVuSans-32" x="3081.546875"/>
      <use xlink:href="#DejaVuSans-33" x="3145.169922"/>
      <use xlink:href="#DejaVuSans-29" x="3208.792969"/>
     </g>
    </g>
    <g id="line2d_15">
     <path d="M 145.635093 37.800518 
L 155.635093 37.800518 
L 165.635093 37.800518 
" style="fill: none; stroke: #e41a1c; stroke-width: 1.5; stroke-linecap: square"/>
    </g>
    <g id="text_14">
     <!-- Target -->
     <g transform="translate(173.635093 41.300518)scale(0.1 -0.1)">
      <use xlink:href="#DejaVuSans-54"/>
      <use xlink:href="#DejaVuSans-61" x="44.583984"/>
      <use xlink:href="#DejaVuSans-72" x="105.863281"/>
      <use xlink:href="#DejaVuSans-67" x="145.226562"/>
      <use xlink:href="#DejaVuSans-65" x="208.703125"/>
      <use xlink:href="#DejaVuSans-74" x="270.226562"/>
     </g>
    </g>
    <g id="line2d_16">
     <path d="M 224.578843 37.800518 
L 234.578843 37.800518 
L 244.578843 37.800518 
" style="fill: none; stroke: #377eb8; stroke-width: 1.5; stroke-linecap: square"/>
    </g>
    <g id="text_15">
     <!-- Non-Target -->
     <g transform="translate(252.578843 41.300518)scale(0.1 -0.1)">
      <defs>
       <path id="DejaVuSans-4e" d="M 628 4666 
L 1478 4666 
L 3547 763 
L 3547 4666 
L 4159 4666 
L 4159 0 
L 3309 0 
L 1241 3903 
L 1241 0 
L 628 0 
L 628 4666 
z
" transform="scale(0.015625)"/>
       <path id="DejaVuSans-2d" d="M 313 2009 
L 1997 2009 
L 1997 1497 
L 313 1497 
L 313 2009 
z
" transform="scale(0.015625)"/>
      </defs>
      <use xlink:href="#DejaVuSans-4e"/>
      <use xlink:href="#DejaVuSans-6f" x="74.804688"/>
      <use xlink:href="#DejaVuSans-6e" x="135.986328"/>
      <use xlink:href="#DejaVuSans-2d" x="199.365234"/>
      <use xlink:href="#DejaVuSans-54" x="226.324219"/>
      <use xlink:href="#DejaVuSans-61" x="270.908203"/>
      <use xlink:href="#DejaVuSans-72" x="332.1875"/>
      <use xlink:href="#DejaVuSans-67" x="371.550781"/>
      <use xlink:href="#DejaVuSans-65" x="435.027344"/>
      <use xlink:href="#DejaVuSans-74" x="496.550781"/>
     </g>
    </g>
   </g>
  </g>
 </g>
 <defs>
  <clipPath id="pfb37774af1">
   <rect x="38.175" y="70.788" width="375.440499" height="247.412"/>
  </clipPath>
 </defs>
</svg>
