<?xml version="1.0" encoding="utf-8" standalone="no"?>
<!DOCTYPE svg PUBLIC "-//W3C//DTD SVG 1.1//EN"
  "http://www.w3.org/Graphics/SVG/1.1/DTD/svg11.dtd">
<svg xmlns:xlink="http://www.w3.org/1999/xlink" width="432pt" height="360pt" viewBox="0 0 432 360" xmlns="http://www.w3.org/2000/svg" version="1.1">
 <metadata>
  <rdf:RDF xmlns:dc="http://purl.org/dc/elements/1.1/" xmlns:cc="http://creativecommons.org/ns#" xmlns:rdf="http://www.w3.org/1999/02/22-rdf-syntax-ns#">
   <cc:Work>
    <dc:type rdf:resource="http://purl.org/dc/dcmitype/StillImage"/>
    <dc:date>2022-12-20T14:57:13.583465</dc:date>
    <dc:format>image/svg+xml</dc:format>
    <dc:creator>
     <cc:Agent>
      <dc:title>Matplotlib v3.5.1, https://matplotlib.org/</dc:title>
     </cc:Agent>
    </dc:creator>
   </cc:Work>
  </rdf:RDF>
 </metadata>
 <defs>
  <style type="text/css">*{stroke-linejoin: round; stroke-linecap: butt}</style>
 </defs>
 <g id="figure_1">
  <g id="patch_1">
   <path d="M 0 360 
L 432 360 
L 432 0 
L 0 0 
L 0 360 
z
" style="fill: none"/>
  </g>
  <g id="axes_1">
   <g id="patch_2">
    <path d="M 38.175 318.2 
L 413.615499 318.2 
L 413.615499 70.788 
L 38.175 70.788 
L 38.175 318.2 
z
" style="fill: none"/>
   </g>
   <g id="PolyCollection_1">
    <defs>
     <path id="mcff5cdf775" d="M 38.175 -74.101547 
L 38.175 -65.730617 
L 38.989405 -66.160052 
L 39.803809 -66.415558 
L 40.618214 -66.543982 
L 41.432618 -66.618677 
L 42.247023 -66.701709 
L 43.061427 -66.83821 
L 43.875832 -67.07135 
L 44.690236 -67.44129 
L 45.504641 -67.965773 
L 46.319046 -68.628552 
L 47.13345 -69.386394 
L 47.947855 -70.182349 
L 48.762259 -70.946919 
L 49.576664 -71.581961 
L 50.391068 -71.96128 
L 51.205473 -72.016741 
L 52.019877 -71.843676 
L 52.834282 -71.638205 
L 53.648687 -71.557875 
L 54.463091 -71.652686 
L 55.277496 -71.857697 
L 56.0919 -72.034872 
L 56.906305 -72.076279 
L 57.720709 -72.017092 
L 58.535114 -72.026087 
L 59.349518 -72.270821 
L 60.163923 -72.783782 
L 60.978327 -73.386134 
L 61.792732 -73.775499 
L 62.607137 -73.904851 
L 63.421541 -74.036782 
L 64.235946 -74.388571 
L 65.05035 -75.005619 
L 65.864755 -75.775575 
L 66.679159 -76.453252 
L 67.493564 -76.753393 
L 68.307968 -76.618844 
L 69.122373 -76.316388 
L 69.936778 -76.138373 
L 70.751182 -76.214787 
L 71.565587 -76.515584 
L 72.379991 -76.913158 
L 73.194396 -77.263314 
L 74.0088 -77.467717 
L 74.823205 -77.483002 
L 75.637609 -77.294284 
L 76.452014 -76.900458 
L 77.266419 -76.328886 
L 78.080823 -75.658322 
L 78.895228 -75.015983 
L 79.709632 -74.539257 
L 80.524037 -74.325916 
L 81.338441 -74.399337 
L 82.152846 -74.699429 
L 82.96725 -75.100691 
L 83.781655 -75.455812 
L 84.59606 -75.654574 
L 85.410464 -75.670947 
L 86.224869 -75.568965 
L 87.039273 -75.467396 
L 87.853678 -75.491139 
L 88.668082 -75.733989 
L 89.482487 -76.23991 
L 90.296891 -76.997703 
L 91.111296 -77.941342 
L 91.9257 -78.954928 
L 92.740105 -79.890692 
L 93.55451 -80.607596 
L 94.368914 -81.021282 
L 95.183319 -81.137383 
L 95.997723 -81.044408 
L 96.812128 -80.870266 
L 97.626532 -80.72806 
L 98.440937 -80.678499 
L 99.255341 -80.728639 
L 100.069746 -80.867299 
L 100.884151 -81.098828 
L 101.698555 -81.427441 
L 102.51296 -81.809089 
L 103.327364 -82.134344 
L 104.141769 -82.271605 
L 104.956173 -82.144501 
L 105.770578 -81.782466 
L 106.584982 -81.302767 
L 107.399387 -80.845602 
L 108.213792 -80.511748 
L 109.028196 -80.332554 
L 109.842601 -80.279254 
L 110.657005 -80.300198 
L 111.47141 -80.357306 
L 112.285814 -80.436447 
L 113.100219 -80.535018 
L 113.914623 -80.647778 
L 114.729028 -80.762773 
L 115.543433 -80.865394 
L 116.357837 -80.945033 
L 117.172242 -81.001581 
L 117.986646 -81.050039 
L 118.801051 -81.118141 
L 119.615455 -81.230829 
L 120.42986 -81.384639 
L 121.244264 -81.527962 
L 122.058669 -81.564301 
L 122.873074 -81.383188 
L 123.687478 -80.906587 
L 124.501883 -80.126949 
L 125.316287 -79.116801 
L 126.130692 -78.008698 
L 126.945096 -76.960096 
L 127.759501 -76.117753 
L 128.573905 -75.588816 
L 129.38831 -75.420988 
L 130.202714 -75.593647 
L 131.017119 -76.022521 
L 131.831524 -76.579315 
L 132.645928 -77.123427 
L 133.460333 -77.536998 
L 134.274737 -77.751966 
L 135.089142 -77.761561 
L 135.903546 -77.615681 
L 136.717951 -77.404403 
L 137.532355 -77.235072 
L 138.34676 -77.207947 
L 139.161165 -77.394925 
L 139.975569 -77.825468 
L 140.789974 -78.482592 
L 141.604378 -79.308692 
L 142.418783 -80.216915 
L 143.233187 -81.102928 
L 144.047592 -81.857127 
L 144.861996 -82.38372 
L 145.676401 -82.630145 
L 146.490806 -82.615873 
L 147.30521 -82.438845 
L 148.119615 -82.2485 
L 148.934019 -82.196505 
L 149.748424 -82.38652 
L 150.562828 -82.840948 
L 151.377233 -83.496274 
L 152.191637 -84.229889 
L 153.006042 -84.906246 
L 153.820447 -85.415662 
L 154.634851 -85.685016 
L 155.449256 -85.666429 
L 156.26366 -85.3275 
L 157.078065 -84.660566 
L 157.892469 -83.710404 
L 158.706874 -82.597974 
L 159.521278 -81.507392 
L 160.335683 -80.629122 
L 161.150087 -80.093062 
L 161.964492 -79.932129 
L 162.778897 -80.091089 
L 163.593301 -80.465135 
L 164.407706 -80.93691 
L 165.22211 -81.392105 
L 166.036515 -81.720111 
L 166.850919 -81.817583 
L 167.665324 -81.604079 
L 168.479728 -81.046104 
L 169.294133 -80.177419 
L 170.108538 -79.100873 
L 170.922942 -77.964148 
L 171.737347 -76.918258 
L 172.551751 -76.08039 
L 173.366156 -75.518056 
L 174.18056 -75.252951 
L 174.994965 -75.269281 
L 175.809369 -75.516046 
L 176.623774 -75.907414 
L 177.438179 -76.331258 
L 178.252583 -76.66966 
L 179.066988 -76.826059 
L 179.881392 -76.748423 
L 180.695797 -76.43867 
L 181.510201 -75.945586 
L 182.324606 -75.348011 
L 183.13901 -74.739537 
L 183.953415 -74.2202 
L 184.76782 -73.889542 
L 185.582224 -73.831601 
L 186.396629 -74.09115 
L 187.211033 -74.65149 
L 188.025438 -75.427058 
L 188.839842 -76.279945 
L 189.654247 -77.060663 
L 190.468651 -77.657836 
L 191.283056 -78.027003 
L 192.097461 -78.17997 
L 192.911865 -78.151181 
L 193.72627 -77.973849 
L 194.540674 -77.681496 
L 195.355079 -77.326305 
L 196.169483 -76.994014 
L 196.983888 -76.798993 
L 197.798292 -76.857429 
L 198.612697 -77.250198 
L 199.427101 -77.991811 
L 200.241506 -79.018649 
L 201.055911 -80.202674 
L 201.870315 -81.386853 
L 202.68472 -82.426757 
L 203.499124 -83.21752 
L 204.313529 -83.697417 
L 205.127933 -83.839893 
L 205.942338 -83.65172 
L 206.756742 -83.180665 
L 207.571147 -82.519541 
L 208.385552 -81.791746 
L 209.199956 -81.117883 
L 210.014361 -80.579041 
L 210.828765 -80.195671 
L 211.64317 -79.931604 
L 212.457574 -79.7194 
L 213.271979 -79.493383 
L 214.086383 -79.215194 
L 214.900788 -78.883802 
L 215.715193 -78.531875 
L 216.529597 -78.21542 
L 217.344002 -78.000911 
L 218.158406 -77.948564 
L 218.972811 -78.089696 
L 219.787215 -78.402622 
L 220.60162 -78.799104 
L 221.416024 -79.133452 
L 222.230429 -79.237376 
L 223.044834 -78.970462 
L 223.859238 -78.266544 
L 224.673643 -77.157388 
L 225.488047 -75.767011 
L 226.302452 -74.282816 
L 227.116856 -72.914915 
L 227.931261 -71.853411 
L 228.745665 -71.230431 
L 229.56007 -71.092697 
L 230.374474 -71.390853 
L 231.188879 -71.990775 
L 232.003284 -72.707295 
L 232.817688 -73.352395 
L 233.632093 -73.782101 
L 234.446497 -73.925553 
L 235.260902 -73.788408 
L 236.075306 -73.435312 
L 236.889711 -72.963599 
L 237.704115 -72.479538 
L 238.51852 -72.081712 
L 239.332925 -71.848651 
L 240.147329 -71.825644 
L 240.961734 -72.011331 
L 241.776138 -72.352212 
L 242.590543 -72.754219 
L 243.404947 -73.112807 
L 244.219352 -73.35125 
L 245.033756 -73.448636 
L 245.848161 -73.442251 
L 246.662566 -73.403773 
L 247.47697 -73.404319 
L 248.291375 -73.488091 
L 249.105779 -73.666426 
L 249.920184 -73.929955 
L 250.734588 -74.264785 
L 251.548993 -74.657899 
L 252.363397 -75.088813 
L 253.177802 -75.518705 
L 253.992207 -75.892218 
L 254.806611 -76.158442 
L 255.621016 -76.301817 
L 256.43542 -76.361404 
L 257.249825 -76.421689 
L 258.064229 -76.580262 
L 258.878634 -76.914575 
L 259.693038 -77.464605 
L 260.507443 -78.231209 
L 261.321848 -79.180011 
L 262.136252 -80.243973 
L 262.950657 -81.327654 
L 263.765061 -82.322071 
L 264.579466 -83.134062 
L 265.39387 -83.719642 
L 266.208275 -84.098868 
L 267.022679 -84.33805 
L 267.837084 -84.51169 
L 268.651488 -84.67536 
L 269.465893 -84.869097 
L 270.280298 -85.138878 
L 271.094702 -85.543223 
L 271.909107 -86.127001 
L 272.723511 -86.879163 
L 273.537916 -87.707694 
L 274.35232 -88.454382 
L 275.166725 -88.950406 
L 275.981129 -89.090555 
L 276.795534 -88.885993 
L 277.609939 -88.462088 
L 278.424343 -88.005696 
L 279.238748 -87.69992 
L 280.053152 -87.680749 
L 280.867557 -88.022767 
L 281.681961 -88.739744 
L 282.496366 -89.784061 
L 283.31077 -91.043466 
L 284.125175 -92.348445 
L 284.93958 -93.50355 
L 285.753984 -94.341196 
L 286.568389 -94.778239 
L 287.382793 -94.847931 
L 288.197198 -94.691161 
L 289.011602 -94.512911 
L 289.826007 -94.524441 
L 290.640411 -94.890817 
L 291.454816 -95.695021 
L 292.269221 -96.923191 
L 293.083625 -98.472031 
L 293.89803 -100.176902 
L 294.712434 -101.855191 
L 295.526839 -103.354457 
L 296.341243 -104.59105 
L 297.155648 -105.566833 
L 297.970052 -106.359988 
L 298.784457 -107.095256 
L 299.598862 -107.904212 
L 300.413266 -108.886569 
L 301.227671 -110.081422 
L 302.042075 -111.454059 
L 302.85648 -112.90031 
L 303.670884 -114.267169 
L 304.485289 -115.386621 
L 305.299693 -116.117771 
L 306.114098 -116.387708 
L 306.928502 -116.215718 
L 307.742907 -115.707447 
L 308.557312 -115.02002 
L 309.371716 -114.314787 
L 310.186121 -113.717707 
L 311.000525 -113.299434 
L 311.81493 -113.076139 
L 312.629334 -113.023704 
L 313.443739 -113.095421 
L 314.258143 -113.237587 
L 315.072548 -113.403814 
L 315.886953 -113.570065 
L 316.701357 -113.746812 
L 317.515762 -113.979653 
L 318.330166 -114.333114 
L 319.144571 -114.862463 
L 319.958975 -115.58642 
L 320.77338 -116.474106 
L 321.587784 -117.453367 
L 322.402189 -118.438017 
L 323.216594 -119.361495 
L 324.030998 -120.199427 
L 324.845403 -120.969348 
L 325.659807 -121.710386 
L 326.474212 -122.457023 
L 327.288616 -123.221161 
L 328.103021 -123.989085 
L 328.917425 -124.731336 
L 329.73183 -125.417733 
L 330.546235 -126.028317 
L 331.360639 -126.554698 
L 332.175044 -126.993479 
L 332.989448 -127.339745 
L 333.803853 -127.589655 
L 334.618257 -127.755093 
L 335.432662 -127.880728 
L 336.247066 -128.044981 
L 337.061471 -128.335719 
L 337.875875 -128.813529 
L 338.69028 -129.485276 
L 339.504685 -130.301522 
L 340.319089 -131.17566 
L 341.133494 -132.013199 
L 341.947898 -132.738353 
L 342.762303 -133.310048 
L 343.576707 -133.72647 
L 344.391112 -134.021754 
L 345.205516 -134.258458 
L 346.019921 -134.516697 
L 346.834326 -134.879237 
L 347.64873 -135.413233 
L 348.463135 -136.152786 
L 349.277539 -137.088822 
L 350.091944 -138.171102 
L 350.906348 -139.321663 
L 351.720753 -140.453867 
L 352.535157 -141.489634 
L 353.349562 -142.37085 
L 354.163967 -143.065312 
L 354.978371 -143.569202 
L 355.792776 -143.906445 
L 356.60718 -144.123139 
L 357.421585 -144.275704 
L 358.235989 -144.414866 
L 359.050394 -144.571024 
L 359.864798 -144.747499 
L 360.679203 -144.925155 
L 361.493608 -145.076578 
L 362.308012 -145.183223 
L 363.122417 -145.247984 
L 363.936821 -145.299288 
L 364.751226 -145.38793 
L 365.56563 -145.58023 
L 366.380035 -145.949718 
L 367.194439 -146.566767 
L 368.008844 -147.484553 
L 368.823249 -148.721734 
L 369.637653 -150.245999 
L 370.452058 -151.965781 
L 371.266462 -153.737135 
L 372.080867 -155.388366 
L 372.895271 -156.757154 
L 373.709676 -157.728359 
L 374.52408 -158.259947 
L 375.338485 -158.390196 
L 376.152889 -158.226826 
L 376.967294 -157.92295 
L 377.781699 -157.645285 
L 378.596103 -157.539796 
L 379.410508 -157.700749 
L 380.224912 -158.150149 
L 381.039317 -158.83361 
L 381.853721 -159.635064 
L 382.668126 -160.407215 
L 383.48253 -161.010096 
L 384.296935 -161.347785 
L 385.11134 -161.395272 
L 385.925744 -161.209842 
L 386.740149 -160.923758 
L 387.554553 -160.71755 
L 388.368958 -160.777409 
L 389.183362 -161.245804 
L 389.997767 -162.17859 
L 390.812171 -163.521806 
L 391.626576 -165.116289 
L 392.440981 -166.729941 
L 393.255385 -168.10922 
L 394.06979 -169.036359 
L 394.884194 -169.378534 
L 395.698599 -169.118735 
L 396.513003 -168.362997 
L 397.327408 -167.322858 
L 398.141812 -166.274886 
L 398.956217 -165.502946 
L 399.770622 -165.234356 
L 400.585026 -165.585832 
L 401.399431 -166.534926 
L 402.213835 -167.926164 
L 403.02824 -169.510644 
L 403.842644 -171.007877 
L 404.657049 -172.172453 
L 405.471453 -172.848412 
L 406.285858 -172.998901 
L 407.100262 -172.706624 
L 407.914667 -172.147925 
L 408.729072 -171.54847 
L 409.543476 -171.131214 
L 410.357881 -171.068236 
L 411.172285 -171.447145 
L 411.98669 -172.259099 
L 412.801094 -173.409742 
L 413.615499 -174.748255 
L 413.615499 -252.799412 
L 413.615499 -252.799412 
L 412.801094 -251.352462 
L 411.98669 -249.993788 
L 411.172285 -248.92317 
L 410.357881 -248.290714 
L 409.543476 -248.159032 
L 408.729072 -248.483541 
L 407.914667 -249.116397 
L 407.100262 -249.835027 
L 406.285858 -250.389959 
L 405.471453 -250.560566 
L 404.657049 -250.204392 
L 403.842644 -249.287793 
L 403.02824 -247.891455 
L 402.213835 -246.191065 
L 401.399431 -244.418793 
L 400.585026 -242.814289 
L 399.770622 -241.574717 
L 398.956217 -240.813051 
L 398.141812 -240.532554 
L 397.327408 -240.623614 
L 396.513003 -240.88592 
L 395.698599 -241.073379 
L 394.884194 -240.951928 
L 394.06979 -240.354643 
L 393.255385 -239.218155 
L 392.440981 -237.590806 
L 391.626576 -235.612973 
L 390.812171 -233.478482 
L 389.997767 -231.389511 
L 389.183362 -229.516036 
L 388.368958 -227.967197 
L 387.554553 -226.778288 
L 386.740149 -225.914268 
L 385.925744 -225.288273 
L 385.11134 -224.790783 
L 384.296935 -224.321787 
L 383.48253 -223.816204 
L 382.668126 -223.254553 
L 381.853721 -222.656411 
L 381.039317 -222.06089 
L 380.224912 -221.502556 
L 379.410508 -220.991417 
L 378.596103 -220.503096 
L 377.781699 -219.981317 
L 376.967294 -219.351427 
L 376.152889 -218.541165 
L 375.338485 -217.50298 
L 374.52408 -216.2311 
L 373.709676 -214.767036 
L 372.895271 -213.190387 
L 372.080867 -211.597767 
L 371.266462 -210.078686 
L 370.452058 -208.697956 
L 369.637653 -207.488768 
L 368.823249 -206.454125 
L 368.008844 -205.571922 
L 367.194439 -204.800904 
L 366.380035 -204.087601 
L 365.56563 -203.375599 
L 364.751226 -202.617069 
L 363.936821 -201.783693 
L 363.122417 -200.872197 
L 362.308012 -199.900747 
L 361.493608 -198.896511 
L 360.679203 -197.879766 
L 359.864798 -196.852458 
L 359.050394 -195.796605 
L 358.235989 -194.682073 
L 357.421585 -193.478406 
L 356.60718 -192.164549 
L 355.792776 -190.733321 
L 354.978371 -189.191632 
L 354.163967 -187.559773 
L 353.349562 -185.872211 
L 352.535157 -184.179039 
L 351.720753 -182.544487 
L 350.906348 -181.039528 
L 350.091944 -179.729607 
L 349.277539 -178.662183 
L 348.463135 -177.858481 
L 347.64873 -177.310135 
L 346.834326 -176.978388 
L 346.019921 -176.793968 
L 345.205516 -176.658955 
L 344.391112 -176.454487 
L 343.576707 -176.057057 
L 342.762303 -175.361251 
L 341.947898 -174.301716 
L 341.133494 -172.86632 
L 340.319089 -171.096682 
L 339.504685 -169.078289 
L 338.69028 -166.926262 
L 337.875875 -164.772099 
L 337.061471 -162.752265 
L 336.247066 -160.994852 
L 335.432662 -159.599664 
L 334.618257 -158.612727 
L 333.803853 -158.006796 
L 332.989448 -157.685442 
L 332.175044 -157.51612 
L 331.360639 -157.375499 
L 330.546235 -157.182063 
L 329.73183 -156.902993 
L 328.917425 -156.539273 
L 328.103021 -156.102807 
L 327.288616 -155.599787 
L 326.474212 -155.027726 
L 325.659807 -154.384175 
L 324.845403 -153.678702 
L 324.030998 -152.938588 
L 323.216594 -152.202059 
L 322.402189 -151.50049 
L 321.587784 -150.840021 
L 320.77338 -150.195811 
L 319.958975 -149.523914 
L 319.144571 -148.783419 
L 318.330166 -147.956041 
L 317.515762 -147.05412 
L 316.701357 -146.115453 
L 315.886953 -145.190047 
L 315.072548 -144.327498 
L 314.258143 -143.571871 
L 313.443739 -142.963507 
L 312.629334 -142.539782 
L 311.81493 -142.327719 
L 311.000525 -142.330354 
L 310.186121 -142.5168 
L 309.371716 -142.82497 
L 308.557312 -143.177612 
L 307.742907 -143.503901 
L 306.928502 -143.755853 
L 306.114098 -143.911858 
L 305.299693 -143.967865 
L 304.485289 -143.925582 
L 303.670884 -143.787328 
L 302.85648 -143.557252 
L 302.042075 -143.240921 
L 301.227671 -142.839065 
L 300.413266 -142.339366 
L 299.598862 -141.713356 
L 298.784457 -140.922721 
L 297.970052 -139.934138 
L 297.155648 -138.737236 
L 296.341243 -137.358425 
L 295.526839 -135.864516 
L 294.712434 -134.354058 
L 293.89803 -132.939281 
L 293.083625 -131.724524 
L 292.269221 -130.78584 
L 291.454816 -130.154381 
L 290.640411 -129.806535 
L 289.826007 -129.66509 
L 289.011602 -129.614047 
L 288.197198 -129.524747 
L 287.382793 -129.285092 
L 286.568389 -128.821083 
L 285.753984 -128.104093 
L 284.93958 -127.147484 
L 284.125175 -126.003131 
L 283.31077 -124.76264 
L 282.496366 -123.554743 
L 281.681961 -122.526272 
L 280.867557 -121.804452 
L 280.053152 -121.45463 
L 279.238748 -121.456939 
L 278.424343 -121.718174 
L 277.609939 -122.112969 
L 276.795534 -122.527689 
L 275.981129 -122.878805 
L 275.166725 -123.099201 
L 274.35232 -123.116628 
L 273.537916 -122.857523 
L 272.723511 -122.281549 
L 271.909107 -121.419421 
L 271.094702 -120.383449 
L 270.280298 -119.339087 
L 269.465893 -118.447281 
L 268.651488 -117.805563 
L 267.837084 -117.422278 
L 267.022679 -117.238291 
L 266.208275 -117.173561 
L 265.39387 -117.160065 
L 264.579466 -117.143096 
L 263.765061 -117.065575 
L 262.950657 -116.862948 
L 262.136252 -116.479804 
L 261.321848 -115.89417 
L 260.507443 -115.129305 
L 259.693038 -114.245654 
L 258.878634 -113.320954 
L 258.064229 -112.431984 
L 257.249825 -111.645451 
L 256.43542 -111.014243 
L 255.621016 -110.569442 
L 254.806611 -110.305594 
L 253.992207 -110.171571 
L 253.177802 -110.083557 
L 252.363397 -109.959914 
L 251.548993 -109.757036 
L 250.734588 -109.482952 
L 249.920184 -109.180953 
L 249.105779 -108.894659 
L 248.291375 -108.63677 
L 247.47697 -108.379944 
L 246.662566 -108.072165 
L 245.848161 -107.66338 
L 245.033756 -107.126483 
L 244.219352 -106.463481 
L 243.404947 -105.699519 
L 242.590543 -104.875102 
L 241.776138 -104.044659 
L 240.961734 -103.279365 
L 240.147329 -102.664086 
L 239.332925 -102.280285 
L 238.51852 -102.176867 
L 237.704115 -102.341979 
L 236.889711 -102.693031 
L 236.075306 -103.095016 
L 235.260902 -103.401915 
L 234.446497 -103.503563 
L 233.632093 -103.358891 
L 232.817688 -103.004705 
L 232.003284 -102.540965 
L 231.188879 -102.102048 
L 230.374474 -101.824823 
L 229.56007 -101.819822 
L 228.745665 -102.147586 
L 227.931261 -102.802473 
L 227.116856 -103.708707 
L 226.302452 -104.733219 
L 225.488047 -105.71484 
L 224.673643 -106.502361 
L 223.859238 -106.989042 
L 223.044834 -107.132035 
L 222.230429 -106.952544 
L 221.416024 -106.522213 
L 220.60162 -105.945398 
L 219.787215 -105.342443 
L 218.972811 -104.832254 
L 218.158406 -104.511579 
L 217.344002 -104.433728 
L 216.529597 -104.59534 
L 215.715193 -104.940427 
L 214.900788 -105.383577 
L 214.086383 -105.842496 
L 213.271979 -106.263508 
L 212.457574 -106.628548 
L 211.64317 -106.944518 
L 210.828765 -107.225995 
L 210.014361 -107.482871 
L 209.199956 -107.716868 
L 208.385552 -107.922914 
L 207.571147 -108.08917 
L 206.756742 -108.193181 
L 205.942338 -108.19859 
L 205.127933 -108.061703 
L 204.313529 -107.752615 
L 203.499124 -107.281174 
L 202.68472 -106.70753 
L 201.870315 -106.12371 
L 201.055911 -105.614002 
L 200.241506 -105.219778 
L 199.427101 -104.930264 
L 198.612697 -104.69909 
L 197.798292 -104.470684 
L 196.983888 -104.200856 
L 196.169483 -103.864084 
L 195.355079 -103.447743 
L 194.540674 -102.94033 
L 193.72627 -102.32509 
L 192.911865 -101.587809 
L 192.097461 -100.736313 
L 191.283056 -99.81706 
L 190.468651 -98.911731 
L 189.654247 -98.108028 
L 188.839842 -97.461158 
L 188.025438 -96.977526 
L 187.211033 -96.635 
L 186.396629 -96.41964 
L 185.582224 -96.349226 
L 184.76782 -96.470309 
L 183.953415 -96.832585 
L 183.13901 -97.454146 
L 182.324606 -98.295854 
L 181.510201 -99.258924 
L 180.695797 -100.20561 
L 179.881392 -100.989947 
L 179.066988 -101.485758 
L 178.252583 -101.608311 
L 177.438179 -101.331774 
L 176.623774 -100.702283 
L 175.809369 -99.841104 
L 174.994965 -98.930528 
L 174.18056 -98.179148 
L 173.366156 -97.771915 
L 172.551751 -97.820886 
L 171.737347 -98.337368 
L 170.922942 -99.236437 
L 170.108538 -100.364905 
L 169.294133 -101.53351 
L 168.479728 -102.54299 
L 167.665324 -103.208663 
L 166.850919 -103.391581 
L 166.036515 -103.033826 
L 165.22211 -102.18388 
L 164.407706 -100.996565 
L 163.593301 -99.700086 
L 162.778897 -98.536082 
L 161.964492 -97.694475 
L 161.150087 -97.273531 
L 160.335683 -97.281961 
L 159.521278 -97.669465 
L 158.706874 -98.355332 
L 157.892469 -99.234973 
L 157.078065 -100.170309 
L 156.26366 -100.993168 
L 155.449256 -101.543466 
L 154.634851 -101.725183 
L 153.820447 -101.541592 
L 153.006042 -101.086754 
L 152.191637 -100.497464 
L 151.377233 -99.89213 
L 150.562828 -99.331268 
L 149.748424 -98.816338 
L 148.934019 -98.314511 
L 148.119615 -97.787124 
L 147.30521 -97.208705 
L 146.490806 -96.573331 
L 145.676401 -95.890278 
L 144.861996 -95.176137 
L 144.047592 -94.454606 
L 143.233187 -93.768445 
L 142.418783 -93.190752 
L 141.604378 -92.817535 
L 140.789974 -92.739037 
L 139.975569 -93.004406 
L 139.161165 -93.597561 
L 138.34676 -94.43329 
L 137.532355 -95.372603 
L 136.717951 -96.251559 
L 135.903546 -96.916475 
L 135.089142 -97.257674 
L 134.274737 -97.23361 
L 133.460333 -96.878647 
L 132.645928 -96.291966 
L 131.831524 -95.611587 
L 131.017119 -94.982541 
L 130.202714 -94.528131 
L 129.38831 -94.328819 
L 128.573905 -94.409877 
L 127.759501 -94.73918 
L 126.945096 -95.237286 
L 126.130692 -95.799593 
L 125.316287 -96.325089 
L 124.501883 -96.741662 
L 123.687478 -97.017981 
L 122.873074 -97.158703 
L 122.058669 -97.191096 
L 121.244264 -97.156609 
L 120.42986 -97.111322 
L 119.615455 -97.125107 
L 118.801051 -97.268017 
L 117.986646 -97.583234 
L 117.172242 -98.058463 
L 116.357837 -98.614332 
L 115.543433 -99.121687 
L 114.729028 -99.442055 
L 113.914623 -99.473317 
L 113.100219 -99.184045 
L 112.285814 -98.626963 
L 111.47141 -97.926925 
L 110.657005 -97.242332 
L 109.842601 -96.7074 
L 109.028196 -96.378796 
L 108.213792 -96.218878 
L 107.399387 -96.126698 
L 106.584982 -95.993833 
L 105.770578 -95.752014 
L 104.956173 -95.391208 
L 104.141769 -94.941938 
L 103.327364 -94.43898 
L 102.51296 -93.907186 
L 101.698555 -93.389256 
L 100.884151 -92.97924 
L 100.069746 -92.811662 
L 99.255341 -92.993841 
L 98.440937 -93.524342 
L 97.626532 -94.27073 
L 96.812128 -95.02625 
L 95.997723 -95.592523 
L 95.183319 -95.838427 
L 94.368914 -95.720413 
L 93.55451 -95.269171 
L 92.740105 -94.559538 
L 91.9257 -93.685717 
L 91.111296 -92.750385 
L 90.296891 -91.855671 
L 89.482487 -91.083583 
L 88.668082 -90.471603 
L 87.853678 -90.001545 
L 87.039273 -89.613425 
L 86.224869 -89.238608 
L 85.410464 -88.833108 
L 84.59606 -88.391233 
L 83.781655 -87.932714 
L 82.96725 -87.478542 
L 82.152846 -87.041056 
L 81.338441 -86.633438 
L 80.524037 -86.280186 
L 79.709632 -86.015119 
L 78.895228 -85.869488 
L 78.080823 -85.857007 
L 77.266419 -85.958771 
L 76.452014 -86.112948 
L 75.637609 -86.224332 
L 74.823205 -86.204076 
L 74.0088 -86.01857 
L 73.194396 -85.706859 
L 72.379991 -85.345261 
L 71.565587 -84.983209 
L 70.751182 -84.608797 
L 69.936778 -84.174273 
L 69.122373 -83.656834 
L 68.307968 -83.122993 
L 67.493564 -82.753584 
L 66.679159 -82.691934 
L 65.864755 -82.784116 
L 65.05035 -82.705065 
L 64.235946 -82.240466 
L 63.421541 -81.373244 
L 62.607137 -80.284275 
L 61.792732 -79.331619 
L 60.978327 -78.888593 
L 60.163923 -78.963099 
L 59.349518 -79.242551 
L 58.535114 -79.481241 
L 57.720709 -79.610423 
L 56.906305 -79.690884 
L 56.0919 -79.805882 
L 55.277496 -79.943418 
L 54.463091 -79.989756 
L 53.648687 -79.831646 
L 52.834282 -79.439457 
L 52.019877 -78.887226 
L 51.205473 -78.329885 
L 50.391068 -77.930724 
L 49.576664 -77.731352 
L 48.762259 -77.608198 
L 47.947855 -77.400949 
L 47.13345 -77.018076 
L 46.319046 -76.446532 
L 45.504641 -75.730518 
L 44.690236 -74.953349 
L 43.875832 -74.22194 
L 43.061427 -73.64366 
L 42.247023 -73.291949 
L 41.432618 -73.178162 
L 40.618214 -73.258751 
L 39.803809 -73.473372 
L 38.989405 -73.770705 
L 38.175 -74.101547 
z
" style="stroke: #e41a1c; stroke-opacity: 0.3"/>
    </defs>
    <g clip-path="url(#p498f0abfe3)">
     <use xlink:href="#mcff5cdf775" x="0" y="360" style="fill: #e41a1c; fill-opacity: 0.3; stroke: #e41a1c; stroke-opacity: 0.3"/>
    </g>
   </g>
   <g id="PolyCollection_2">
    <defs>
     <path id="md3e95d4ebc" d="M 38.175 -75.543151 
L 38.175 -67.398614 
L 38.989405 -67.620207 
L 39.803809 -67.780734 
L 40.618214 -67.90774 
L 41.432618 -68.032267 
L 42.247023 -68.184633 
L 43.061427 -68.39174 
L 43.875832 -68.672705 
L 44.690236 -69.033281 
L 45.504641 -69.46339 
L 46.319046 -69.942702 
L 47.13345 -70.453863 
L 47.947855 -70.993066 
L 48.762259 -71.565498 
L 49.576664 -72.16821 
L 50.391068 -72.775405 
L 51.205473 -73.336768 
L 52.019877 -73.792973 
L 52.834282 -74.105652 
L 53.648687 -74.277932 
L 54.463091 -74.342748 
L 55.277496 -74.338455 
L 56.0919 -74.29666 
L 56.906305 -74.241263 
L 57.720709 -74.190636 
L 58.535114 -74.15941 
L 59.349518 -74.159589 
L 60.163923 -74.201145 
L 60.978327 -74.291874 
L 61.792732 -74.436795 
L 62.607137 -74.639046 
L 63.421541 -74.902907 
L 64.235946 -75.233263 
L 65.05035 -75.625885 
L 65.864755 -76.054488 
L 66.679159 -76.468 
L 67.493564 -76.808455 
L 68.307968 -77.042849 
L 69.122373 -77.181328 
L 69.936778 -77.266938 
L 70.751182 -77.350983 
L 71.565587 -77.470033 
L 72.379991 -77.630853 
L 73.194396 -77.806102 
L 74.0088 -77.943289 
L 74.823205 -77.986238 
L 75.637609 -77.899744 
L 76.452014 -77.682051 
L 77.266419 -77.360179 
L 78.080823 -76.979866 
L 78.895228 -76.600522 
L 79.709632 -76.292603 
L 80.524037 -76.12994 
L 81.338441 -76.174937 
L 82.152846 -76.461222 
L 82.96725 -76.980666 
L 83.781655 -77.680408 
L 84.59606 -78.472848 
L 85.410464 -79.257647 
L 86.224869 -79.947999 
L 87.039273 -80.488448 
L 87.853678 -80.857644 
L 88.668082 -81.061495 
L 89.482487 -81.125047 
L 90.296891 -81.086374 
L 91.111296 -80.992507 
L 91.9257 -80.897073 
L 92.740105 -80.858303 
L 93.55451 -80.934099 
L 94.368914 -81.170976 
L 95.183319 -81.588219 
L 95.997723 -82.164623 
L 96.812128 -82.837282 
L 97.626532 -83.51728 
L 98.440937 -84.11682 
L 99.255341 -84.573408 
L 100.069746 -84.859258 
L 100.884151 -84.976703 
L 101.698555 -84.94865 
L 102.51296 -84.810971 
L 103.327364 -84.608036 
L 104.141769 -84.389444 
L 104.956173 -84.205174 
L 105.770578 -84.097701 
L 106.584982 -84.092552 
L 107.399387 -84.191696 
L 108.213792 -84.37397 
L 109.028196 -84.602967 
L 109.842601 -84.838573 
L 110.657005 -85.04741 
L 111.47141 -85.209515 
L 112.285814 -85.321133 
L 113.100219 -85.394538 
L 113.914623 -85.455465 
L 114.729028 -85.537834 
L 115.543433 -85.674876 
L 116.357837 -85.886795 
L 117.172242 -86.168017 
L 117.986646 -86.480166 
L 118.801051 -86.756589 
L 119.615455 -86.919338 
L 120.42986 -86.902674 
L 121.244264 -86.673179 
L 122.058669 -86.238631 
L 122.873074 -85.644172 
L 123.687478 -84.960008 
L 124.501883 -84.266763 
L 125.316287 -83.642897 
L 126.130692 -83.154932 
L 126.945096 -82.848495 
L 127.759501 -82.739086 
L 128.573905 -82.805911 
L 129.38831 -82.994994 
L 130.202714 -83.234638 
L 131.017119 -83.458622 
L 131.831524 -83.626831 
L 132.645928 -83.734421 
L 133.460333 -83.807814 
L 134.274737 -83.892076 
L 135.089142 -84.035547 
L 135.903546 -84.275419 
L 136.717951 -84.625966 
L 137.532355 -85.071222 
L 138.34676 -85.564895 
L 139.161165 -86.039826 
L 139.975569 -86.425837 
L 140.789974 -86.669926 
L 141.604378 -86.75042 
L 142.418783 -86.680256 
L 143.233187 -86.501614 
L 144.047592 -86.277521 
L 144.861996 -86.082687 
L 145.676401 -85.990815 
L 146.490806 -86.056371 
L 147.30521 -86.295204 
L 148.119615 -86.673474 
L 148.934019 -87.113312 
L 149.748424 -87.516853 
L 150.562828 -87.800736 
L 151.377233 -87.925539 
L 152.191637 -87.905443 
L 153.006042 -87.795631 
L 153.820447 -87.668501 
L 154.634851 -87.592469 
L 155.449256 -87.619319 
L 156.26366 -87.777475 
L 157.078065 -88.066662 
L 157.892469 -88.453907 
L 158.706874 -88.875888 
L 159.521278 -89.252296 
L 160.335683 -89.508357 
L 161.150087 -89.597201 
L 161.964492 -89.511336 
L 162.778897 -89.279315 
L 163.593301 -88.952663 
L 164.407706 -88.591351 
L 165.22211 -88.252473 
L 166.036515 -87.981634 
L 166.850919 -87.804814 
L 167.665324 -87.720808 
L 168.479728 -87.697756 
L 169.294133 -87.678177 
L 170.108538 -87.594132 
L 170.922942 -87.388655 
L 171.737347 -87.034695 
L 172.551751 -86.542593 
L 173.366156 -85.953066 
L 174.18056 -85.320401 
L 174.994965 -84.694023 
L 175.809369 -84.104924 
L 176.623774 -83.55978 
L 177.438179 -83.042884 
L 178.252583 -82.524436 
L 179.066988 -81.972775 
L 179.881392 -81.367218 
L 180.695797 -80.707798 
L 181.510201 -80.018822 
L 182.324606 -79.345144 
L 183.13901 -78.742386 
L 183.953415 -78.263876 
L 184.76782 -77.947467 
L 185.582224 -77.805136 
L 186.396629 -77.817755 
L 187.211033 -77.936633 
L 188.025438 -78.092221 
L 188.839842 -78.208938 
L 189.654247 -78.223356 
L 190.468651 -78.101044 
L 191.283056 -77.845948 
L 192.097461 -77.497911 
L 192.911865 -77.119323 
L 193.72627 -76.776841 
L 194.540674 -76.524893 
L 195.355079 -76.395075 
L 196.169483 -76.392791 
L 196.983888 -76.500639 
L 197.798292 -76.686794 
L 198.612697 -76.915894 
L 199.427101 -77.159816 
L 200.241506 -77.406229 
L 201.055911 -77.663272 
L 201.870315 -77.958768 
L 202.68472 -78.33281 
L 203.499124 -78.824592 
L 204.313529 -79.457133 
L 205.127933 -80.225207 
L 205.942338 -81.090971 
L 206.756742 -81.989247 
L 207.571147 -82.841049 
L 208.385552 -83.570964 
L 209.199956 -84.122701 
L 210.014361 -84.468384 
L 210.828765 -84.610429 
L 211.64317 -84.577422 
L 212.457574 -84.415756 
L 213.271979 -84.178085 
L 214.086383 -83.910212 
L 214.900788 -83.639663 
L 215.715193 -83.369857 
L 216.529597 -83.082165 
L 217.344002 -82.744776 
L 218.158406 -82.324099 
L 218.972811 -81.793934 
L 219.787215 -81.140415 
L 220.60162 -80.364344 
L 221.416024 -79.483135 
L 222.230429 -78.531934 
L 223.044834 -77.560771 
L 223.859238 -76.625472 
L 224.673643 -75.7742 
L 225.488047 -75.035005 
L 226.302452 -74.409946 
L 227.116856 -73.878191 
L 227.931261 -73.405954 
L 228.745665 -72.957744 
L 229.56007 -72.503631 
L 230.374474 -72.02135 
L 231.188879 -71.496064 
L 232.003284 -70.920603 
L 232.817688 -70.295984 
L 233.632093 -69.630388 
L 234.446497 -68.936181 
L 235.260902 -68.227023 
L 236.075306 -67.517661 
L 236.889711 -66.826224 
L 237.704115 -66.17499 
L 238.51852 -65.585356 
L 239.332925 -65.068001 
L 240.147329 -64.614896 
L 240.961734 -64.199653 
L 241.776138 -63.786984 
L 242.590543 -63.346132 
L 243.404947 -62.861041 
L 244.219352 -62.332985 
L 245.033756 -61.776696 
L 245.848161 -61.214317 
L 246.662566 -60.670547 
L 247.47697 -60.168978 
L 248.291375 -59.727828 
L 249.105779 -59.354808 
L 249.920184 -59.044065 
L 250.734588 -58.779068 
L 251.548993 -58.542188 
L 252.363397 -58.326387 
L 253.177802 -58.141662 
L 253.992207 -58.01201 
L 254.806611 -57.965252 
L 255.621016 -58.022103 
L 256.43542 -58.189518 
L 257.249825 -58.459141 
L 258.064229 -58.808577 
L 258.878634 -59.203251 
L 259.693038 -59.598963 
L 260.507443 -59.947214 
L 261.321848 -60.205035 
L 262.136252 -60.348115 
L 262.950657 -60.382305 
L 263.765061 -60.346946 
L 264.579466 -60.306561 
L 265.39387 -60.333579 
L 266.208275 -60.488668 
L 267.022679 -60.8045 
L 267.837084 -61.276055 
L 268.651488 -61.858866 
L 269.465893 -62.475902 
L 270.280298 -63.03289 
L 271.094702 -63.440116 
L 271.909107 -63.636258 
L 272.723511 -63.607221 
L 273.537916 -63.39229 
L 274.35232 -63.074338 
L 275.166725 -62.758278 
L 275.981129 -62.54583 
L 276.795534 -62.513083 
L 277.609939 -62.69439 
L 278.424343 -63.074783 
L 279.238748 -63.592347 
L 280.053152 -64.150731 
L 280.867557 -64.64018 
L 281.681961 -64.963609 
L 282.496366 -65.062291 
L 283.31077 -64.933677 
L 284.125175 -64.633901 
L 284.93958 -64.262681 
L 285.753984 -63.936215 
L 286.568389 -63.75765 
L 287.382793 -63.793172 
L 288.197198 -64.058348 
L 289.011602 -64.516454 
L 289.826007 -65.088093 
L 290.640411 -65.669313 
L 291.454816 -66.15413 
L 292.269221 -66.457579 
L 293.083625 -66.53585 
L 293.89803 -66.399114 
L 294.712434 -66.111299 
L 295.526839 -65.77416 
L 296.341243 -65.500219 
L 297.155648 -65.384044 
L 297.970052 -65.48053 
L 298.784457 -65.795184 
L 299.598862 -66.287588 
L 300.413266 -66.885762 
L 301.227671 -67.506329 
L 302.042075 -68.074179 
L 302.85648 -68.536787 
L 303.670884 -68.871706 
L 304.485289 -69.08782 
L 305.299693 -69.220272 
L 306.114098 -69.318929 
L 306.928502 -69.433167 
L 307.742907 -69.598211 
L 308.557312 -69.827474 
L 309.371716 -70.112157 
L 310.186121 -70.42655 
L 311.000525 -70.736192 
L 311.81493 -71.006659 
L 312.629334 -71.212056 
L 313.443739 -71.342901 
L 314.258143 -71.411631 
L 315.072548 -71.451688 
L 315.886953 -71.507173 
L 316.701357 -71.616674 
L 317.515762 -71.800619 
L 318.330166 -72.059016 
L 319.144571 -72.378113 
L 319.958975 -72.738663 
L 320.77338 -73.120133 
L 321.587784 -73.501516 
L 322.402189 -73.863475 
L 323.216594 -74.194411 
L 324.030998 -74.497039 
L 324.845403 -74.78824 
L 325.659807 -75.08877 
L 326.474212 -75.407967 
L 327.288616 -75.733142 
L 328.103021 -76.030356 
L 328.917425 -76.256389 
L 329.73183 -76.375402 
L 330.546235 -76.371193 
L 331.360639 -76.250047 
L 332.175044 -76.038067 
L 332.989448 -75.780696 
L 333.803853 -75.54432 
L 334.618257 -75.410626 
L 335.432662 -75.458626 
L 336.247066 -75.741465 
L 337.061471 -76.269031 
L 337.875875 -77.002489 
L 338.69028 -77.861396 
L 339.504685 -78.741606 
L 340.319089 -79.540773 
L 341.133494 -80.184727 
L 341.947898 -80.642902 
L 342.762303 -80.924171 
L 343.576707 -81.059241 
L 344.391112 -81.084773 
L 345.205516 -81.037338 
L 346.019921 -80.95487 
L 346.834326 -80.879112 
L 347.64873 -80.853873 
L 348.463135 -80.917649 
L 349.277539 -81.093048 
L 350.091944 -81.377681 
L 350.906348 -81.741154 
L 351.720753 -82.130819 
L 352.535157 -82.485292 
L 353.349562 -82.750738 
L 354.163967 -82.893433 
L 354.978371 -82.90494 
L 355.792776 -82.800723 
L 356.60718 -82.615258 
L 357.421585 -82.396131 
L 358.235989 -82.198049 
L 359.050394 -82.076105 
L 359.864798 -82.076864 
L 360.679203 -82.226921 
L 361.493608 -82.522177 
L 362.308012 -82.924046 
L 363.122417 -83.367223 
L 363.936821 -83.777391 
L 364.751226 -84.091464 
L 365.56563 -84.272367 
L 366.380035 -84.314509 
L 367.194439 -84.240901 
L 368.008844 -84.095262 
L 368.823249 -83.932228 
L 369.637653 -83.80684 
L 370.452058 -83.762599 
L 371.266462 -83.818067 
L 372.080867 -83.955853 
L 372.895271 -84.120639 
L 373.709676 -84.230691 
L 374.52408 -84.200727 
L 375.338485 -83.967909 
L 376.152889 -83.510979 
L 376.967294 -82.85606 
L 377.781699 -82.068994 
L 378.596103 -81.2394 
L 379.410508 -80.463245 
L 380.224912 -79.828049 
L 381.039317 -79.400419 
L 381.853721 -79.214001 
L 382.668126 -79.259687 
L 383.48253 -79.484321 
L 384.296935 -79.802994 
L 385.11134 -80.122955 
L 385.925744 -80.370099 
L 386.740149 -80.507063 
L 387.554553 -80.536483 
L 388.368958 -80.490606 
L 389.183362 -80.414079 
L 389.997767 -80.347799 
L 390.812171 -80.319236 
L 391.626576 -80.340628 
L 392.440981 -80.412886 
L 393.255385 -80.5313 
L 394.06979 -80.690016 
L 394.884194 -80.884498 
L 395.698599 -81.112471 
L 396.513003 -81.373714 
L 397.327408 -81.668819 
L 398.141812 -81.997208 
L 398.956217 -82.355056 
L 399.770622 -82.733403 
L 400.585026 -83.116359 
L 401.399431 -83.479896 
L 402.213835 -83.793061 
L 403.02824 -84.023849 
L 403.842644 -84.149714 
L 404.657049 -84.168588 
L 405.471453 -84.103967 
L 406.285858 -84.000156 
L 407.100262 -83.909305 
L 407.914667 -83.876019 
L 408.729072 -83.925554 
L 409.543476 -84.058871 
L 410.357881 -84.254546 
L 411.172285 -84.475317 
L 411.98669 -84.676664 
L 412.801094 -84.815827 
L 413.615499 -84.860793 
L 413.615499 -105.475739 
L 413.615499 -105.475739 
L 412.801094 -105.463986 
L 411.98669 -105.471636 
L 411.172285 -105.48187 
L 410.357881 -105.479748 
L 409.543476 -105.450579 
L 408.729072 -105.377803 
L 407.914667 -105.243422 
L 407.100262 -105.031852 
L 406.285858 -104.73551 
L 405.471453 -104.358939 
L 404.657049 -103.918911 
L 403.842644 -103.440119 
L 403.02824 -102.948886 
L 402.213835 -102.468493 
L 401.399431 -102.017762 
L 400.585026 -101.611062 
L 399.770622 -101.256798 
L 398.956217 -100.954028 
L 398.141812 -100.689986 
L 397.327408 -100.44209 
L 396.513003 -100.185492 
L 395.698599 -99.903682 
L 394.884194 -99.597567 
L 394.06979 -99.288883 
L 393.255385 -99.01576 
L 392.440981 -98.820915 
L 391.626576 -98.735558 
L 390.812171 -98.764452 
L 389.997767 -98.878307 
L 389.183362 -99.017533 
L 388.368958 -99.106784 
L 387.554553 -99.075381 
L 386.740149 -98.876764 
L 385.925744 -98.501242 
L 385.11134 -97.979369 
L 384.296935 -97.377041 
L 383.48253 -96.785729 
L 382.668126 -96.310265 
L 381.853721 -96.053835 
L 381.039317 -96.098683 
L 380.224912 -96.484005 
L 379.410508 -97.187901 
L 378.596103 -98.123405 
L 377.781699 -99.1545 
L 376.967294 -100.127996 
L 376.152889 -100.909283 
L 375.338485 -101.409867 
L 374.52408 -101.60028 
L 373.709676 -101.508282 
L 372.895271 -101.206282 
L 372.080867 -100.79268 
L 371.266462 -100.370364 
L 370.452058 -100.024378 
L 369.637653 -99.801567 
L 368.823249 -99.697475 
L 368.008844 -99.657008 
L 367.194439 -99.591977 
L 366.380035 -99.411003 
L 365.56563 -99.050815 
L 364.751226 -98.497388 
L 363.936821 -97.790465 
L 363.122417 -97.011934 
L 362.308012 -96.264148 
L 361.493608 -95.64637 
L 360.679203 -95.235156 
L 359.864798 -95.07028 
L 359.050394 -95.146057 
L 358.235989 -95.409656 
L 357.421585 -95.769635 
L 356.60718 -96.115422 
L 355.792776 -96.343157 
L 354.978371 -96.379534 
L 354.163967 -96.195841 
L 353.349562 -95.808306 
L 352.535157 -95.265825 
L 351.720753 -94.630929 
L 350.906348 -93.962196 
L 350.091944 -93.304385 
L 349.277539 -92.687091 
L 348.463135 -92.127947 
L 347.64873 -91.635763 
L 346.834326 -91.211277 
L 346.019921 -90.845842 
L 345.205516 -90.520344 
L 344.391112 -90.207297 
L 343.576707 -89.877849 
L 342.762303 -89.512182 
L 341.947898 -89.108129 
L 341.133494 -88.681267 
L 340.319089 -88.253354 
L 339.504685 -87.836166 
L 338.69028 -87.424732 
L 337.875875 -87.005515 
L 337.061471 -86.571171 
L 336.247066 -86.131502 
L 335.432662 -85.716239 
L 334.618257 -85.369591 
L 333.803853 -85.137827 
L 332.989448 -85.052633 
L 332.175044 -85.11652 
L 331.360639 -85.299497 
L 330.546235 -85.550777 
L 329.73183 -85.816522 
L 328.917425 -86.050711 
L 328.103021 -86.216649 
L 327.288616 -86.286373 
L 326.474212 -86.243437 
L 325.659807 -86.087332 
L 324.845403 -85.834272 
L 324.030998 -85.511084 
L 323.216594 -85.143835 
L 322.402189 -84.747676 
L 321.587784 -84.325584 
L 320.77338 -83.877703 
L 319.958975 -83.414201 
L 319.144571 -82.961662 
L 318.330166 -82.558641 
L 317.515762 -82.244322 
L 316.701357 -82.048178 
L 315.886953 -81.985465 
L 315.072548 -82.056782 
L 314.258143 -82.246807 
L 313.443739 -82.52098 
L 312.629334 -82.824887 
L 311.81493 -83.091703 
L 311.000525 -83.25669 
L 310.186121 -83.271837 
L 309.371716 -83.11446 
L 308.557312 -82.788216 
L 307.742907 -82.318645 
L 306.928502 -81.746119 
L 306.114098 -81.118283 
L 305.299693 -80.482961 
L 304.485289 -79.881859 
L 303.670884 -79.345718 
L 302.85648 -78.892429 
L 302.042075 -78.529108 
L 301.227671 -78.256276 
L 300.413266 -78.070615 
L 299.598862 -77.964934 
L 298.784457 -77.927313 
L 297.970052 -77.941593 
L 297.155648 -77.989553 
L 296.341243 -78.053775 
L 295.526839 -78.120075 
L 294.712434 -78.178525 
L 293.89803 -78.222423 
L 293.083625 -78.245539 
L 292.269221 -78.24008 
L 291.454816 -78.19866 
L 290.640411 -78.120149 
L 289.826007 -78.014706 
L 289.011602 -77.903537 
L 288.197198 -77.813361 
L 287.382793 -77.768658 
L 286.568389 -77.784933 
L 285.753984 -77.86489 
L 284.93958 -77.998094 
L 284.125175 -78.163502 
L 283.31077 -78.333091 
L 282.496366 -78.474932 
L 281.681961 -78.556139 
L 280.867557 -78.548135 
L 280.053152 -78.434972 
L 279.238748 -78.221101 
L 278.424343 -77.933613 
L 277.609939 -77.616914 
L 276.795534 -77.321631 
L 275.981129 -77.09169 
L 275.166725 -76.953932 
L 274.35232 -76.913369 
L 273.537916 -76.954526 
L 272.723511 -77.046466 
L 271.909107 -77.148413 
L 271.094702 -77.215408 
L 270.280298 -77.206133 
L 269.465893 -77.093263 
L 268.651488 -76.872354 
L 267.837084 -76.564364 
L 267.022679 -76.210257 
L 266.208275 -75.860109 
L 265.39387 -75.560933 
L 264.579466 -75.347013 
L 263.765061 -75.234551 
L 262.950657 -75.220259 
L 262.136252 -75.282744 
L 261.321848 -75.386869 
L 260.507443 -75.492314 
L 259.693038 -75.565219 
L 258.878634 -75.588208 
L 258.064229 -75.563711 
L 257.249825 -75.509134 
L 256.43542 -75.447023 
L 255.621016 -75.395989 
L 254.806611 -75.367123 
L 253.992207 -75.366773 
L 253.177802 -75.402175 
L 252.363397 -75.484774 
L 251.548993 -75.628426 
L 250.734588 -75.844288 
L 249.920184 -76.13717 
L 249.105779 -76.506054 
L 248.291375 -76.946648 
L 247.47697 -77.451794 
L 246.662566 -78.008344 
L 245.848161 -78.593605 
L 245.033756 -79.175991 
L 244.219352 -79.721647 
L 243.404947 -80.20405 
L 242.590543 -80.61136 
L 241.776138 -80.948266 
L 240.961734 -81.233247 
L 240.147329 -81.494803 
L 239.332925 -81.768972 
L 238.51852 -82.096822 
L 237.704115 -82.518504 
L 236.889711 -83.062251 
L 236.075306 -83.731922 
L 235.260902 -84.500541 
L 234.446497 -85.315632 
L 233.632093 -86.11484 
L 232.817688 -86.844196 
L 232.003284 -87.471565 
L 231.188879 -87.992369 
L 230.374474 -88.428569 
L 229.56007 -88.822915 
L 228.745665 -89.229362 
L 227.931261 -89.700176 
L 227.116856 -90.272188 
L 226.302452 -90.957301 
L 225.488047 -91.74192 
L 224.673643 -92.595268 
L 223.859238 -93.481497 
L 223.044834 -94.369262 
L 222.230429 -95.235265 
L 221.416024 -96.062491 
L 220.60162 -96.836935 
L 219.787215 -97.546689 
L 218.972811 -98.184072 
L 218.158406 -98.747814 
L 217.344002 -99.241953 
L 216.529597 -99.671459 
L 215.715193 -100.037967 
L 214.900788 -100.338857 
L 214.086383 -100.569794 
L 213.271979 -100.728102 
L 212.457574 -100.81416 
L 211.64317 -100.830118 
L 210.828765 -100.777568 
L 210.014361 -100.656363 
L 209.199956 -100.465401 
L 208.385552 -100.204164 
L 207.571147 -99.873564 
L 206.756742 -99.476354 
L 205.942338 -99.018531 
L 205.127933 -98.512186 
L 204.313529 -97.978277 
L 203.499124 -97.44701 
L 202.68472 -96.95438 
L 201.870315 -96.535204 
L 201.055911 -96.214785 
L 200.241506 -96.002527 
L 199.427101 -95.890446 
L 198.612697 -95.85716 
L 197.798292 -95.875192 
L 196.983888 -95.918305 
L 196.169483 -95.966798 
L 195.355079 -96.010308 
L 194.540674 -96.048674 
L 193.72627 -96.091412 
L 192.911865 -96.156003 
L 192.097461 -96.264864 
L 191.283056 -96.44063 
L 190.468651 -96.699655 
L 189.654247 -97.045182 
L 188.839842 -97.463778 
L 188.025438 -97.928338 
L 187.211033 -98.407097 
L 186.396629 -98.874229 
L 185.582224 -99.317399 
L 184.76782 -99.740174 
L 183.953415 -100.159803 
L 183.13901 -100.602108 
L 182.324606 -101.095377 
L 181.510201 -101.6646 
L 180.695797 -102.326677 
L 179.881392 -103.086806 
L 179.066988 -103.936376 
L 178.252583 -104.852937 
L 177.438179 -105.80264 
L 176.623774 -106.744799 
L 175.809369 -107.637632 
L 174.994965 -108.444284 
L 174.18056 -109.138515 
L 173.366156 -109.709139 
L 172.551751 -110.16167 
L 171.737347 -110.515463 
L 170.922942 -110.79612 
L 170.108538 -111.026162 
L 169.294133 -111.219403 
L 168.479728 -111.382349 
L 167.665324 -111.520259 
L 166.850919 -111.641581 
L 166.036515 -111.7562 
L 165.22211 -111.868071 
L 164.407706 -111.967543 
L 163.593301 -112.02978 
L 162.778897 -112.022192 
L 161.964492 -111.917713 
L 161.150087 -111.706409 
L 160.335683 -111.399144 
L 159.521278 -111.022964 
L 158.706874 -110.61376 
L 157.892469 -110.21157 
L 157.078065 -109.858069 
L 156.26366 -109.591448 
L 155.449256 -109.436221 
L 154.634851 -109.392088 
L 153.820447 -109.430001 
L 153.006042 -109.500704 
L 152.191637 -109.552534 
L 151.377233 -109.548 
L 150.562828 -109.46939 
L 149.748424 -109.312713 
L 148.934019 -109.079175 
L 148.119615 -108.774122 
L 147.30521 -108.413673 
L 146.490806 -108.03036 
L 145.676401 -107.669624 
L 144.861996 -107.376336 
L 144.047592 -107.177629 
L 143.233187 -107.071831 
L 142.418783 -107.030708 
L 141.604378 -107.013819 
L 140.789974 -106.985561 
L 139.975569 -106.924978 
L 139.161165 -106.825702 
L 138.34676 -106.690587 
L 137.532355 -106.526149 
L 136.717951 -106.338099 
L 135.903546 -106.126919 
L 135.089142 -105.884001 
L 134.274737 -105.591229 
L 133.460333 -105.226745 
L 132.645928 -104.776206 
L 131.831524 -104.244881 
L 131.017119 -103.664363 
L 130.202714 -103.090479 
L 129.38831 -102.59408 
L 128.573905 -102.24935 
L 127.759501 -102.122441 
L 126.945096 -102.259431 
L 126.130692 -102.672336 
L 125.316287 -103.326483 
L 124.501883 -104.137176 
L 123.687478 -104.982107 
L 122.873074 -105.728146 
L 122.058669 -106.263125 
L 121.244264 -106.520942 
L 120.42986 -106.492007 
L 119.615455 -106.217575 
L 118.801051 -105.772709 
L 117.986646 -105.245568 
L 117.172242 -104.719215 
L 116.357837 -104.257792 
L 115.543433 -103.896159 
L 114.729028 -103.633157 
L 113.914623 -103.431466 
L 113.100219 -103.22743 
L 112.285814 -102.950612 
L 111.47141 -102.547618 
L 110.657005 -102.001739 
L 109.842601 -101.341277 
L 109.028196 -100.633755 
L 108.213792 -99.96834 
L 107.399387 -99.43262 
L 106.584982 -99.090991 
L 105.770578 -98.9697 
L 104.956173 -99.050093 
L 104.141769 -99.269669 
L 103.327364 -99.531177 
L 102.51296 -99.720247 
L 101.698555 -99.729758 
L 100.884151 -99.485466 
L 100.069746 -98.965207 
L 99.255341 -98.204809 
L 98.440937 -97.287013 
L 97.626532 -96.315958 
L 96.812128 -95.387662 
L 95.997723 -94.570656 
L 95.183319 -93.903051 
L 94.368914 -93.398927 
L 93.55451 -93.052858 
L 92.740105 -92.838471 
L 91.9257 -92.705318 
L 91.111296 -92.581381 
L 90.296891 -92.385165 
L 89.482487 -92.044824 
L 88.668082 -91.517355 
L 87.853678 -90.801132 
L 87.039273 -89.938017 
L 86.224869 -89.003829 
L 85.410464 -88.087974 
L 84.59606 -87.267771 
L 83.781655 -86.589261 
L 82.96725 -86.064031 
L 82.152846 -85.679098 
L 81.338441 -85.409715 
L 80.524037 -85.228632 
L 79.709632 -85.110504 
L 78.895228 -85.032539 
L 78.080823 -84.973871 
L 77.266419 -84.916871 
L 76.452014 -84.851624 
L 75.637609 -84.779374 
L 74.823205 -84.707133 
L 74.0088 -84.631979 
L 73.194396 -84.527678 
L 72.379991 -84.34822 
L 71.565587 -84.046027 
L 70.751182 -83.59125 
L 69.936778 -82.983293 
L 69.122373 -82.252699 
L 68.307968 -81.453664 
L 67.493564 -80.647483 
L 66.679159 -79.881103 
L 65.864755 -79.175587 
L 65.05035 -78.538378 
L 64.235946 -77.985656 
L 63.421541 -77.549314 
L 62.607137 -77.264368 
L 61.792732 -77.149447 
L 60.978327 -77.195207 
L 60.163923 -77.366745 
L 59.349518 -77.613375 
L 58.535114 -77.878327 
L 57.720709 -78.106965 
L 56.906305 -78.25379 
L 56.0919 -78.287536 
L 55.277496 -78.194132 
L 54.463091 -77.97842 
L 53.648687 -77.665287 
L 52.834282 -77.297489 
L 52.019877 -76.922461 
L 51.205473 -76.567249 
L 50.391068 -76.226275 
L 49.576664 -75.880974 
L 48.762259 -75.527815 
L 47.947855 -75.190443 
L 47.13345 -74.913257 
L 46.319046 -74.741098 
L 45.504641 -74.696556 
L 44.690236 -74.77104 
L 43.875832 -74.933051 
L 43.061427 -75.141849 
L 42.247023 -75.356485 
L 41.432618 -75.539698 
L 40.618214 -75.660778 
L 39.803809 -75.700326 
L 38.989405 -75.655786 
L 38.175 -75.543151 
z
" style="stroke: #377eb8; stroke-opacity: 0.3"/>
    </defs>
    <g clip-path="url(#p498f0abfe3)">
     <use xlink:href="#md3e95d4ebc" x="0" y="360" style="fill: #377eb8; fill-opacity: 0.3; stroke: #377eb8; stroke-opacity: 0.3"/>
    </g>
   </g>
   <g id="patch_3">
    <path d="M 225.650928 318.2 
L 225.650928 70.788 
L 329.894711 70.788 
L 329.894711 318.2 
z
" clip-path="url(#p498f0abfe3)" style="fill: #808080; opacity: 0.3"/>
   </g>
   <g id="matplotlib.axis_1">
    <g id="xtick_1">
     <g id="line2d_1">
      <defs>
       <path id="m39a3d63661" d="M 0 0 
L 0 3.5 
" style="stroke: #000000; stroke-width: 0.8"/>
      </defs>
      <g>
       <use xlink:href="#m39a3d63661" x="79.709632" y="318.2" style="stroke: #000000; stroke-width: 0.8"/>
      </g>
     </g>
     <g id="text_1">
      <!-- 0.0 -->
      <g transform="translate(71.75807 332.798437)scale(0.1 -0.1)">
       <defs>
        <path id="DejaVuSans-30" d="M 2034 4250 
Q 1547 4250 1301 3770 
Q 1056 3291 1056 2328 
Q 1056 1369 1301 889 
Q 1547 409 2034 409 
Q 2525 409 2770 889 
Q 3016 1369 3016 2328 
Q 3016 3291 2770 3770 
Q 2525 4250 2034 4250 
z
M 2034 4750 
Q 2819 4750 3233 4129 
Q 3647 3509 3647 2328 
Q 3647 1150 3233 529 
Q 2819 -91 2034 -91 
Q 1250 -91 836 529 
Q 422 1150 422 2328 
Q 422 3509 836 4129 
Q 1250 4750 2034 4750 
z
" transform="scale(0.015625)"/>
        <path id="DejaVuSans-2e" d="M 684 794 
L 1344 794 
L 1344 0 
L 684 0 
L 684 794 
z
" transform="scale(0.015625)"/>
       </defs>
       <use xlink:href="#DejaVuSans-30"/>
       <use xlink:href="#DejaVuSans-2e" x="63.623047"/>
       <use xlink:href="#DejaVuSans-30" x="95.410156"/>
      </g>
     </g>
    </g>
    <g id="xtick_2">
     <g id="line2d_2">
      <g>
       <use xlink:href="#m39a3d63661" x="163.104658" y="318.2" style="stroke: #000000; stroke-width: 0.8"/>
      </g>
     </g>
     <g id="text_2">
      <!-- 0.2 -->
      <g transform="translate(155.153096 332.798437)scale(0.1 -0.1)">
       <defs>
        <path id="DejaVuSans-32" d="M 1228 531 
L 3431 531 
L 3431 0 
L 469 0 
L 469 531 
Q 828 903 1448 1529 
Q 2069 2156 2228 2338 
Q 2531 2678 2651 2914 
Q 2772 3150 2772 3378 
Q 2772 3750 2511 3984 
Q 2250 4219 1831 4219 
Q 1534 4219 1204 4116 
Q 875 4013 500 3803 
L 500 4441 
Q 881 4594 1212 4672 
Q 1544 4750 1819 4750 
Q 2544 4750 2975 4387 
Q 3406 4025 3406 3419 
Q 3406 3131 3298 2873 
Q 3191 2616 2906 2266 
Q 2828 2175 2409 1742 
Q 1991 1309 1228 531 
z
" transform="scale(0.015625)"/>
       </defs>
       <use xlink:href="#DejaVuSans-30"/>
       <use xlink:href="#DejaVuSans-2e" x="63.623047"/>
       <use xlink:href="#DejaVuSans-32" x="95.410156"/>
      </g>
     </g>
    </g>
    <g id="xtick_3">
     <g id="line2d_3">
      <g>
       <use xlink:href="#m39a3d63661" x="246.499685" y="318.2" style="stroke: #000000; stroke-width: 0.8"/>
      </g>
     </g>
     <g id="text_3">
      <!-- 0.4 -->
      <g transform="translate(238.548122 332.798437)scale(0.1 -0.1)">
       <defs>
        <path id="DejaVuSans-34" d="M 2419 4116 
L 825 1625 
L 2419 1625 
L 2419 4116 
z
M 2253 4666 
L 3047 4666 
L 3047 1625 
L 3713 1625 
L 3713 1100 
L 3047 1100 
L 3047 0 
L 2419 0 
L 2419 1100 
L 313 1100 
L 313 1709 
L 2253 4666 
z
" transform="scale(0.015625)"/>
       </defs>
       <use xlink:href="#DejaVuSans-30"/>
       <use xlink:href="#DejaVuSans-2e" x="63.623047"/>
       <use xlink:href="#DejaVuSans-34" x="95.410156"/>
      </g>
     </g>
    </g>
    <g id="xtick_4">
     <g id="line2d_4">
      <g>
       <use xlink:href="#m39a3d63661" x="329.894711" y="318.2" style="stroke: #000000; stroke-width: 0.8"/>
      </g>
     </g>
     <g id="text_4">
      <!-- 0.6 -->
      <g transform="translate(321.943148 332.798437)scale(0.1 -0.1)">
       <defs>
        <path id="DejaVuSans-36" d="M 2113 2584 
Q 1688 2584 1439 2293 
Q 1191 2003 1191 1497 
Q 1191 994 1439 701 
Q 1688 409 2113 409 
Q 2538 409 2786 701 
Q 3034 994 3034 1497 
Q 3034 2003 2786 2293 
Q 2538 2584 2113 2584 
z
M 3366 4563 
L 3366 3988 
Q 3128 4100 2886 4159 
Q 2644 4219 2406 4219 
Q 1781 4219 1451 3797 
Q 1122 3375 1075 2522 
Q 1259 2794 1537 2939 
Q 1816 3084 2150 3084 
Q 2853 3084 3261 2657 
Q 3669 2231 3669 1497 
Q 3669 778 3244 343 
Q 2819 -91 2113 -91 
Q 1303 -91 875 529 
Q 447 1150 447 2328 
Q 447 3434 972 4092 
Q 1497 4750 2381 4750 
Q 2619 4750 2861 4703 
Q 3103 4656 3366 4563 
z
" transform="scale(0.015625)"/>
       </defs>
       <use xlink:href="#DejaVuSans-30"/>
       <use xlink:href="#DejaVuSans-2e" x="63.623047"/>
       <use xlink:href="#DejaVuSans-36" x="95.410156"/>
      </g>
     </g>
    </g>
    <g id="xtick_5">
     <g id="line2d_5">
      <g>
       <use xlink:href="#m39a3d63661" x="413.289737" y="318.2" style="stroke: #000000; stroke-width: 0.8"/>
      </g>
     </g>
     <g id="text_5">
      <!-- 0.8 -->
      <g transform="translate(405.338175 332.798437)scale(0.1 -0.1)">
       <defs>
        <path id="DejaVuSans-38" d="M 2034 2216 
Q 1584 2216 1326 1975 
Q 1069 1734 1069 1313 
Q 1069 891 1326 650 
Q 1584 409 2034 409 
Q 2484 409 2743 651 
Q 3003 894 3003 1313 
Q 3003 1734 2745 1975 
Q 2488 2216 2034 2216 
z
M 1403 2484 
Q 997 2584 770 2862 
Q 544 3141 544 3541 
Q 544 4100 942 4425 
Q 1341 4750 2034 4750 
Q 2731 4750 3128 4425 
Q 3525 4100 3525 3541 
Q 3525 3141 3298 2862 
Q 3072 2584 2669 2484 
Q 3125 2378 3379 2068 
Q 3634 1759 3634 1313 
Q 3634 634 3220 271 
Q 2806 -91 2034 -91 
Q 1263 -91 848 271 
Q 434 634 434 1313 
Q 434 1759 690 2068 
Q 947 2378 1403 2484 
z
M 1172 3481 
Q 1172 3119 1398 2916 
Q 1625 2713 2034 2713 
Q 2441 2713 2670 2916 
Q 2900 3119 2900 3481 
Q 2900 3844 2670 4047 
Q 2441 4250 2034 4250 
Q 1625 4250 1398 4047 
Q 1172 3844 1172 3481 
z
" transform="scale(0.015625)"/>
       </defs>
       <use xlink:href="#DejaVuSans-30"/>
       <use xlink:href="#DejaVuSans-2e" x="63.623047"/>
       <use xlink:href="#DejaVuSans-38" x="95.410156"/>
      </g>
     </g>
    </g>
    <g id="text_6">
     <!-- seconds -->
     <g transform="translate(205.457749 346.476562)scale(0.1 -0.1)">
      <defs>
       <path id="DejaVuSans-73" d="M 2834 3397 
L 2834 2853 
Q 2591 2978 2328 3040 
Q 2066 3103 1784 3103 
Q 1356 3103 1142 2972 
Q 928 2841 928 2578 
Q 928 2378 1081 2264 
Q 1234 2150 1697 2047 
L 1894 2003 
Q 2506 1872 2764 1633 
Q 3022 1394 3022 966 
Q 3022 478 2636 193 
Q 2250 -91 1575 -91 
Q 1294 -91 989 -36 
Q 684 19 347 128 
L 347 722 
Q 666 556 975 473 
Q 1284 391 1588 391 
Q 1994 391 2212 530 
Q 2431 669 2431 922 
Q 2431 1156 2273 1281 
Q 2116 1406 1581 1522 
L 1381 1569 
Q 847 1681 609 1914 
Q 372 2147 372 2553 
Q 372 3047 722 3315 
Q 1072 3584 1716 3584 
Q 2034 3584 2315 3537 
Q 2597 3491 2834 3397 
z
" transform="scale(0.015625)"/>
       <path id="DejaVuSans-65" d="M 3597 1894 
L 3597 1613 
L 953 1613 
Q 991 1019 1311 708 
Q 1631 397 2203 397 
Q 2534 397 2845 478 
Q 3156 559 3463 722 
L 3463 178 
Q 3153 47 2828 -22 
Q 2503 -91 2169 -91 
Q 1331 -91 842 396 
Q 353 884 353 1716 
Q 353 2575 817 3079 
Q 1281 3584 2069 3584 
Q 2775 3584 3186 3129 
Q 3597 2675 3597 1894 
z
M 3022 2063 
Q 3016 2534 2758 2815 
Q 2500 3097 2075 3097 
Q 1594 3097 1305 2825 
Q 1016 2553 972 2059 
L 3022 2063 
z
" transform="scale(0.015625)"/>
       <path id="DejaVuSans-63" d="M 3122 3366 
L 3122 2828 
Q 2878 2963 2633 3030 
Q 2388 3097 2138 3097 
Q 1578 3097 1268 2742 
Q 959 2388 959 1747 
Q 959 1106 1268 751 
Q 1578 397 2138 397 
Q 2388 397 2633 464 
Q 2878 531 3122 666 
L 3122 134 
Q 2881 22 2623 -34 
Q 2366 -91 2075 -91 
Q 1284 -91 818 406 
Q 353 903 353 1747 
Q 353 2603 823 3093 
Q 1294 3584 2113 3584 
Q 2378 3584 2631 3529 
Q 2884 3475 3122 3366 
z
" transform="scale(0.015625)"/>
       <path id="DejaVuSans-6f" d="M 1959 3097 
Q 1497 3097 1228 2736 
Q 959 2375 959 1747 
Q 959 1119 1226 758 
Q 1494 397 1959 397 
Q 2419 397 2687 759 
Q 2956 1122 2956 1747 
Q 2956 2369 2687 2733 
Q 2419 3097 1959 3097 
z
M 1959 3584 
Q 2709 3584 3137 3096 
Q 3566 2609 3566 1747 
Q 3566 888 3137 398 
Q 2709 -91 1959 -91 
Q 1206 -91 779 398 
Q 353 888 353 1747 
Q 353 2609 779 3096 
Q 1206 3584 1959 3584 
z
" transform="scale(0.015625)"/>
       <path id="DejaVuSans-6e" d="M 3513 2113 
L 3513 0 
L 2938 0 
L 2938 2094 
Q 2938 2591 2744 2837 
Q 2550 3084 2163 3084 
Q 1697 3084 1428 2787 
Q 1159 2491 1159 1978 
L 1159 0 
L 581 0 
L 581 3500 
L 1159 3500 
L 1159 2956 
Q 1366 3272 1645 3428 
Q 1925 3584 2291 3584 
Q 2894 3584 3203 3211 
Q 3513 2838 3513 2113 
z
" transform="scale(0.015625)"/>
       <path id="DejaVuSans-64" d="M 2906 2969 
L 2906 4863 
L 3481 4863 
L 3481 0 
L 2906 0 
L 2906 525 
Q 2725 213 2448 61 
Q 2172 -91 1784 -91 
Q 1150 -91 751 415 
Q 353 922 353 1747 
Q 353 2572 751 3078 
Q 1150 3584 1784 3584 
Q 2172 3584 2448 3432 
Q 2725 3281 2906 2969 
z
M 947 1747 
Q 947 1113 1208 752 
Q 1469 391 1925 391 
Q 2381 391 2643 752 
Q 2906 1113 2906 1747 
Q 2906 2381 2643 2742 
Q 2381 3103 1925 3103 
Q 1469 3103 1208 2742 
Q 947 2381 947 1747 
z
" transform="scale(0.015625)"/>
      </defs>
      <use xlink:href="#DejaVuSans-73"/>
      <use xlink:href="#DejaVuSans-65" x="52.099609"/>
      <use xlink:href="#DejaVuSans-63" x="113.623047"/>
      <use xlink:href="#DejaVuSans-6f" x="168.603516"/>
      <use xlink:href="#DejaVuSans-6e" x="229.785156"/>
      <use xlink:href="#DejaVuSans-64" x="293.164062"/>
      <use xlink:href="#DejaVuSans-73" x="356.640625"/>
     </g>
    </g>
   </g>
   <g id="matplotlib.axis_2">
    <g id="ytick_1">
     <g id="line2d_6">
      <defs>
       <path id="m2e13fccd75" d="M 0 0 
L -3.5 0 
" style="stroke: #000000; stroke-width: 0.8"/>
      </defs>
      <g>
       <use xlink:href="#m2e13fccd75" x="38.175" y="283.615527" style="stroke: #000000; stroke-width: 0.8"/>
      </g>
     </g>
     <g id="text_7">
      <!-- 0 -->
      <g transform="translate(24.8125 287.414746)scale(0.1 -0.1)">
       <use xlink:href="#DejaVuSans-30"/>
      </g>
     </g>
    </g>
    <g id="ytick_2">
     <g id="line2d_7">
      <g>
       <use xlink:href="#m2e13fccd75" x="38.175" y="230.408645" style="stroke: #000000; stroke-width: 0.8"/>
      </g>
     </g>
     <g id="text_8">
      <!-- 2 -->
      <g transform="translate(24.8125 234.207864)scale(0.1 -0.1)">
       <use xlink:href="#DejaVuSans-32"/>
      </g>
     </g>
    </g>
    <g id="ytick_3">
     <g id="line2d_8">
      <g>
       <use xlink:href="#m2e13fccd75" x="38.175" y="177.201763" style="stroke: #000000; stroke-width: 0.8"/>
      </g>
     </g>
     <g id="text_9">
      <!-- 4 -->
      <g transform="translate(24.8125 181.000982)scale(0.1 -0.1)">
       <use xlink:href="#DejaVuSans-34"/>
      </g>
     </g>
    </g>
    <g id="ytick_4">
     <g id="line2d_9">
      <g>
       <use xlink:href="#m2e13fccd75" x="38.175" y="123.994882" style="stroke: #000000; stroke-width: 0.8"/>
      </g>
     </g>
     <g id="text_10">
      <!-- 6 -->
      <g transform="translate(24.8125 127.7941)scale(0.1 -0.1)">
       <use xlink:href="#DejaVuSans-36"/>
      </g>
     </g>
    </g>
    <g id="ytick_5">
     <g id="line2d_10">
      <g>
       <use xlink:href="#m2e13fccd75" x="38.175" y="70.788" style="stroke: #000000; stroke-width: 0.8"/>
      </g>
     </g>
     <g id="text_11">
      <!-- 8 -->
      <g transform="translate(24.8125 74.587219)scale(0.1 -0.1)">
       <use xlink:href="#DejaVuSans-38"/>
      </g>
     </g>
    </g>
    <g id="text_12">
     <!-- V -->
     <g transform="translate(18.732813 201.095562)rotate(-90)scale(0.1 -0.1)">
      <defs>
       <path id="DejaVuSans-b5" d="M 544 -1331 
L 544 3500 
L 1119 3500 
L 1119 1325 
Q 1119 872 1334 640 
Q 1550 409 1972 409 
Q 2434 409 2667 671 
Q 2900 934 2900 1459 
L 2900 3500 
L 3475 3500 
L 3475 806 
Q 3475 619 3529 530 
Q 3584 441 3700 441 
Q 3728 441 3778 458 
Q 3828 475 3916 513 
L 3916 50 
Q 3788 -22 3673 -56 
Q 3559 -91 3450 -91 
Q 3234 -91 3106 31 
Q 2978 153 2931 403 
Q 2775 156 2548 32 
Q 2322 -91 2016 -91 
Q 1697 -91 1473 31 
Q 1250 153 1119 397 
L 1119 -1331 
L 544 -1331 
z
" transform="scale(0.015625)"/>
       <path id="DejaVuSans-56" d="M 1831 0 
L 50 4666 
L 709 4666 
L 2188 738 
L 3669 4666 
L 4325 4666 
L 2547 0 
L 1831 0 
z
" transform="scale(0.015625)"/>
      </defs>
      <use xlink:href="#DejaVuSans-b5"/>
      <use xlink:href="#DejaVuSans-56" x="63.623047"/>
     </g>
    </g>
   </g>
   <g id="line2d_11">
    <path d="M 38.175 290.083918 
L 39.803809 290.055535 
L 41.432618 290.101581 
L 42.247023 290.003171 
L 43.061427 289.759065 
L 43.875832 289.353355 
L 45.504641 288.151855 
L 47.947855 286.208351 
L 49.576664 285.343343 
L 51.205473 284.826687 
L 53.648687 284.30524 
L 55.277496 284.099442 
L 56.906305 284.116419 
L 59.349518 284.243314 
L 60.163923 284.12656 
L 60.978327 283.862636 
L 61.792732 283.446441 
L 63.421541 282.294987 
L 65.05035 281.144658 
L 65.864755 280.720154 
L 67.493564 280.246511 
L 69.936778 279.843677 
L 71.565587 279.250603 
L 73.194396 278.514914 
L 74.0088 278.256856 
L 74.823205 278.156461 
L 75.637609 278.240692 
L 77.266419 278.856171 
L 78.895228 279.557265 
L 79.709632 279.722812 
L 80.524037 279.696949 
L 81.338441 279.483613 
L 85.410464 277.747973 
L 87.853678 277.253658 
L 88.668082 276.897204 
L 89.482487 276.338254 
L 90.296891 275.573313 
L 93.55451 272.061616 
L 94.368914 271.629152 
L 95.183319 271.512095 
L 95.997723 271.681535 
L 99.255341 273.13876 
L 100.069746 273.160519 
L 100.884151 272.960966 
L 102.51296 272.141862 
L 104.141769 271.393228 
L 104.956173 271.232145 
L 105.770578 271.23276 
L 109.028196 271.644325 
L 109.842601 271.506673 
L 111.47141 270.857885 
L 113.100219 270.140469 
L 113.914623 269.939452 
L 114.729028 269.897586 
L 116.357837 270.220318 
L 117.986646 270.683363 
L 119.615455 270.822032 
L 122.058669 270.622302 
L 122.873074 270.729055 
L 123.687478 271.037716 
L 124.501883 271.565694 
L 126.130692 273.095854 
L 127.759501 274.571534 
L 128.573905 275.000653 
L 129.38831 275.125097 
L 130.202714 274.939111 
L 131.017119 274.497469 
L 133.460333 272.792178 
L 134.274737 272.507212 
L 135.089142 272.490382 
L 135.903546 272.733922 
L 137.532355 273.696162 
L 138.34676 274.179381 
L 139.161165 274.503757 
L 139.975569 274.585063 
L 140.789974 274.389185 
L 141.604378 273.936886 
L 143.233187 272.564313 
L 144.861996 271.220072 
L 145.676401 270.739788 
L 147.30521 270.176225 
L 148.934019 269.744492 
L 149.748424 269.398571 
L 151.377233 268.305798 
L 153.006042 267.0035 
L 153.820447 266.521373 
L 154.634851 266.294901 
L 155.449256 266.395053 
L 156.26366 266.839666 
L 157.078065 267.584563 
L 159.521278 270.411571 
L 160.335683 271.044459 
L 161.150087 271.316704 
L 161.964492 271.186698 
L 162.778897 270.686414 
L 164.407706 269.033262 
L 165.22211 268.212008 
L 166.036515 267.623031 
L 166.850919 267.395418 
L 167.665324 267.593629 
L 168.479728 268.205453 
L 169.294133 269.144536 
L 171.737347 272.372187 
L 172.551751 273.049362 
L 173.366156 273.355015 
L 174.18056 273.283951 
L 174.994965 272.900095 
L 177.438179 271.168484 
L 178.252583 270.861014 
L 179.066988 270.844092 
L 179.881392 271.130815 
L 180.695797 271.67786 
L 183.953415 274.473608 
L 184.76782 274.820075 
L 185.582224 274.909587 
L 186.396629 274.744605 
L 187.211033 274.356755 
L 188.839842 273.129449 
L 191.283056 271.077968 
L 192.911865 270.130505 
L 193.72627 269.850531 
L 195.355079 269.612976 
L 196.983888 269.500076 
L 197.798292 269.335944 
L 198.612697 269.025356 
L 199.427101 268.538962 
L 201.055911 267.091662 
L 202.68472 265.432857 
L 203.499124 264.750653 
L 204.313529 264.274984 
L 205.127933 264.049202 
L 205.942338 264.074845 
L 206.756742 264.313077 
L 209.199956 265.582625 
L 210.828765 266.289167 
L 214.086383 267.471155 
L 216.529597 268.59462 
L 217.344002 268.782681 
L 218.158406 268.769928 
L 218.972811 268.539025 
L 220.60162 267.627749 
L 221.416024 267.172167 
L 222.230429 266.90504 
L 223.044834 266.948751 
L 223.859238 267.372207 
L 224.673643 268.170125 
L 226.302452 270.491983 
L 227.116856 271.688189 
L 227.931261 272.672058 
L 228.745665 273.310992 
L 229.56007 273.543741 
L 230.374474 273.392162 
L 231.188879 272.953589 
L 232.817688 271.82145 
L 233.632093 271.429504 
L 234.446497 271.285442 
L 235.260902 271.404839 
L 236.889711 272.171685 
L 237.704115 272.589242 
L 238.51852 272.87071 
L 239.332925 272.935532 
L 240.147329 272.755135 
L 240.961734 272.354652 
L 245.033756 269.712441 
L 246.662566 269.262031 
L 249.105779 268.719457 
L 251.548993 267.792533 
L 253.177802 267.198869 
L 257.249825 265.96643 
L 258.064229 265.493877 
L 259.693038 264.144871 
L 262.950657 260.904699 
L 263.765061 260.306177 
L 264.579466 259.861421 
L 266.208275 259.363786 
L 267.837084 259.033016 
L 268.651488 258.759538 
L 269.465893 258.341811 
L 270.280298 257.761018 
L 271.909107 256.226789 
L 273.537916 254.717391 
L 274.35232 254.214495 
L 275.166725 253.975196 
L 275.981129 254.01532 
L 276.795534 254.293159 
L 278.424343 255.138065 
L 279.238748 255.421571 
L 280.053152 255.432311 
L 280.867557 255.086391 
L 281.681961 254.366992 
L 282.496366 253.330598 
L 284.93958 249.674483 
L 285.753984 248.777355 
L 286.568389 248.200339 
L 287.382793 247.933488 
L 289.826007 247.905234 
L 290.640411 247.651324 
L 291.454816 247.075299 
L 292.269221 246.145485 
L 293.083625 244.901723 
L 296.341243 239.025262 
L 297.970052 236.852937 
L 303.670884 230.972752 
L 304.485289 230.343899 
L 305.299693 229.957182 
L 306.114098 229.850217 
L 306.928502 230.014214 
L 307.742907 230.394326 
L 310.186121 231.882747 
L 311.000525 232.185106 
L 311.81493 232.298071 
L 312.629334 232.218257 
L 313.443739 231.970536 
L 315.072548 231.134344 
L 317.515762 229.483113 
L 319.144571 228.177059 
L 321.587784 225.853306 
L 324.845403 222.675975 
L 327.288616 220.589526 
L 328.917425 219.364696 
L 330.546235 218.39481 
L 332.175044 217.745201 
L 333.803853 217.201774 
L 334.618257 216.81609 
L 335.432662 216.259804 
L 336.247066 215.480083 
L 337.061471 214.456008 
L 338.69028 211.794231 
L 341.133494 207.560241 
L 341.947898 206.479966 
L 342.762303 205.66435 
L 343.576707 205.108237 
L 344.391112 204.76188 
L 346.834326 204.071187 
L 347.64873 203.638316 
L 348.463135 202.994367 
L 349.277539 202.124498 
L 350.906348 199.819405 
L 354.163967 194.687457 
L 355.792776 192.680117 
L 357.421585 191.122945 
L 359.864798 189.200021 
L 362.308012 187.458015 
L 364.751226 185.9975 
L 366.380035 184.98134 
L 367.194439 184.316165 
L 368.008844 183.471762 
L 368.823249 182.41207 
L 370.452058 179.668131 
L 372.895271 175.026229 
L 373.709676 173.752303 
L 374.52408 172.754477 
L 375.338485 172.053412 
L 376.152889 171.616005 
L 377.781699 171.186699 
L 378.596103 170.978554 
L 379.410508 170.653917 
L 380.224912 170.173647 
L 381.853721 168.854263 
L 383.48253 167.58685 
L 384.296935 167.165214 
L 385.925744 166.750942 
L 386.740149 166.580987 
L 387.554553 166.252081 
L 388.368958 165.627697 
L 389.183362 164.61908 
L 389.997767 163.21595 
L 393.255385 156.336312 
L 394.06979 155.304499 
L 394.884194 154.834769 
L 395.698599 154.903943 
L 396.513003 155.375541 
L 398.141812 156.59628 
L 398.956217 156.842002 
L 399.770622 156.595464 
L 400.585026 155.79994 
L 401.399431 154.523141 
L 403.842644 149.852165 
L 404.657049 148.811578 
L 405.471453 148.295511 
L 406.285858 148.30557 
L 407.100262 148.729174 
L 408.729072 149.983994 
L 409.543476 150.354877 
L 410.357881 150.320525 
L 411.172285 149.814843 
L 411.98669 148.873556 
L 413.615499 146.226166 
L 413.615499 146.226166 
" clip-path="url(#p498f0abfe3)" style="fill: none; stroke: #e41a1c; stroke-width: 1.5; stroke-linecap: square"/>
   </g>
   <g id="line2d_12">
    <path d="M 38.175 288.529118 
L 39.803809 288.25947 
L 42.247023 288.229441 
L 43.875832 288.197122 
L 45.504641 287.920027 
L 47.13345 287.31644 
L 49.576664 285.975408 
L 52.019877 284.642283 
L 53.648687 284.02839 
L 55.277496 283.733706 
L 56.906305 283.752473 
L 60.978327 284.256459 
L 62.607137 284.048293 
L 64.235946 283.39054 
L 65.864755 282.384962 
L 68.307968 280.751743 
L 69.936778 279.874885 
L 71.565587 279.24197 
L 73.194396 278.83311 
L 74.823205 278.653314 
L 76.452014 278.733163 
L 80.524037 279.320714 
L 81.338441 279.207674 
L 82.152846 278.92984 
L 82.96725 278.477652 
L 84.59606 277.129691 
L 87.039273 274.786767 
L 87.853678 274.170612 
L 88.668082 273.710575 
L 89.482487 273.415064 
L 91.111296 273.213056 
L 92.740105 273.151613 
L 93.55451 273.006521 
L 94.368914 272.715049 
L 95.183319 272.254365 
L 96.812128 270.887528 
L 99.255341 268.610891 
L 100.069746 268.087767 
L 100.884151 267.768916 
L 101.698555 267.660796 
L 102.51296 267.734391 
L 105.770578 268.466299 
L 106.584982 268.408229 
L 107.399387 268.187842 
L 109.028196 267.381639 
L 110.657005 266.475426 
L 112.285814 265.864127 
L 116.357837 264.927706 
L 119.615455 263.431544 
L 120.42986 263.30266 
L 121.244264 263.402939 
L 122.058669 263.749122 
L 122.873074 264.313841 
L 126.130692 267.086366 
L 126.945096 267.446037 
L 127.759501 267.569236 
L 128.573905 267.47237 
L 130.202714 266.837442 
L 132.645928 265.744687 
L 140.789974 263.172256 
L 142.418783 263.144518 
L 144.861996 263.270488 
L 145.676401 263.169781 
L 147.30521 262.645562 
L 149.748424 261.585217 
L 150.562828 261.364937 
L 152.191637 261.271012 
L 154.634851 261.507722 
L 155.449256 261.47223 
L 156.26366 261.315538 
L 157.892469 260.667262 
L 160.335683 259.546249 
L 161.150087 259.348195 
L 161.964492 259.285476 
L 163.593301 259.508779 
L 166.850919 260.276803 
L 170.108538 260.689853 
L 171.737347 261.224921 
L 173.366156 262.168897 
L 174.994965 263.430846 
L 179.066988 267.045425 
L 181.510201 269.158289 
L 183.13901 270.327753 
L 184.76782 271.156179 
L 186.396629 271.654008 
L 190.468651 272.59965 
L 193.72627 273.565873 
L 195.355079 273.797309 
L 196.983888 273.790528 
L 199.427101 273.474869 
L 201.055911 273.060972 
L 202.68472 272.356405 
L 204.313529 271.282295 
L 208.385552 268.112436 
L 209.199956 267.705949 
L 210.014361 267.437626 
L 210.828765 267.306001 
L 212.457574 267.385042 
L 214.086383 267.759997 
L 216.529597 268.623188 
L 218.158406 269.464043 
L 219.787215 270.656448 
L 221.416024 272.227187 
L 225.488047 276.611537 
L 227.116856 277.924811 
L 228.745665 278.906447 
L 231.188879 280.255783 
L 232.817688 281.42991 
L 235.260902 283.636218 
L 236.889711 285.055763 
L 238.51852 286.158911 
L 240.147329 286.945151 
L 242.590543 288.021254 
L 244.219352 288.972684 
L 248.291375 291.662762 
L 249.920184 292.409382 
L 251.548993 292.914693 
L 253.177802 293.228081 
L 254.806611 293.333813 
L 256.43542 293.18173 
L 261.321848 292.204048 
L 265.39387 292.052744 
L 267.022679 291.492622 
L 270.280298 289.880488 
L 271.094702 289.672238 
L 271.909107 289.607664 
L 273.537916 289.826592 
L 275.166725 290.143895 
L 275.981129 290.18124 
L 276.795534 290.082643 
L 278.424343 289.495802 
L 280.867557 288.405842 
L 281.681961 288.240126 
L 282.496366 288.231389 
L 284.125175 288.601298 
L 285.753984 289.099447 
L 286.568389 289.228708 
L 287.382793 289.219085 
L 288.197198 289.064145 
L 289.826007 288.448601 
L 291.454816 287.823605 
L 292.269221 287.651171 
L 293.083625 287.609306 
L 294.712434 287.855088 
L 296.341243 288.223003 
L 297.155648 288.313202 
L 297.970052 288.288938 
L 298.784457 288.138752 
L 300.413266 287.521811 
L 306.928502 284.410357 
L 309.371716 283.386692 
L 311.000525 283.003559 
L 312.629334 282.981529 
L 315.886953 283.253681 
L 317.515762 282.97753 
L 319.144571 282.330113 
L 324.030998 279.995939 
L 326.474212 279.174298 
L 328.103021 278.876498 
L 329.73183 278.904038 
L 331.360639 279.225228 
L 332.989448 279.583336 
L 333.803853 279.658926 
L 334.618257 279.609892 
L 335.432662 279.412567 
L 336.247066 279.063517 
L 337.875875 277.995998 
L 341.133494 275.567003 
L 342.762303 274.781824 
L 344.391112 274.353965 
L 347.64873 273.755182 
L 349.277539 273.109931 
L 350.906348 272.148325 
L 352.535157 271.124441 
L 353.349562 270.720478 
L 354.163967 270.455363 
L 354.978371 270.357763 
L 355.792776 270.42806 
L 357.421585 270.917117 
L 359.050394 271.388919 
L 359.864798 271.426428 
L 360.679203 271.268962 
L 361.493608 270.915727 
L 363.122417 269.810421 
L 364.751226 268.705574 
L 365.56563 268.338409 
L 366.380035 268.137244 
L 368.008844 268.123865 
L 369.637653 268.195797 
L 371.266462 267.905784 
L 373.709676 267.130513 
L 374.52408 267.099497 
L 375.338485 267.311112 
L 376.152889 267.789869 
L 376.967294 268.507972 
L 379.410508 271.174427 
L 380.224912 271.843973 
L 381.039317 272.250449 
L 381.853721 272.366082 
L 382.668126 272.215024 
L 384.296935 271.409982 
L 385.925744 270.564329 
L 386.740149 270.308087 
L 387.554553 270.194068 
L 389.183362 270.284194 
L 390.812171 270.458156 
L 392.440981 270.3831 
L 394.06979 270.01055 
L 398.141812 268.656403 
L 400.585026 267.63629 
L 403.842644 266.205083 
L 405.471453 265.768547 
L 407.914667 265.440279 
L 413.615499 264.831734 
L 413.615499 264.831734 
" clip-path="url(#p498f0abfe3)" style="fill: none; stroke: #377eb8; stroke-width: 1.5; stroke-linecap: square"/>
   </g>
   <g id="line2d_13">
    <path d="M 79.709632 318.2 
L 79.709632 70.788 
" clip-path="url(#p498f0abfe3)" style="fill: none; stroke: #000000; stroke-width: 0.5; stroke-linecap: square"/>
   </g>
   <g id="line2d_14">
    <path d="M 38.175 283.615527 
L 413.615499 283.615527 
" clip-path="url(#p498f0abfe3)" style="fill: none; stroke: #000000; stroke-width: 0.5; stroke-linecap: square"/>
   </g>
   <g id="patch_4">
    <path d="M 38.175 318.2 
L 38.175 70.788 
" style="fill: none; stroke: #000000; stroke-width: 0.8; stroke-linejoin: miter; stroke-linecap: square"/>
   </g>
   <g id="patch_5">
    <path d="M 413.615499 318.2 
L 413.615499 70.788 
" style="fill: none; stroke: #000000; stroke-width: 0.8; stroke-linejoin: miter; stroke-linecap: square"/>
   </g>
   <g id="patch_6">
    <path d="M 38.175 318.2 
L 413.615499 318.2 
" style="fill: none; stroke: #000000; stroke-width: 0.8; stroke-linejoin: miter; stroke-linecap: square"/>
   </g>
   <g id="patch_7">
    <path d="M 38.175 70.788 
L 413.615499 70.788 
" style="fill: none; stroke: #000000; stroke-width: 0.8; stroke-linejoin: miter; stroke-linecap: square"/>
   </g>
   <g id="legend_1">
    <g id="patch_8">
     <path d="M 62.892906 47.380205 
L 388.897593 47.380205 
Q 390.897593 47.380205 390.897593 45.380205 
L 390.897593 17.023955 
Q 390.897593 15.023955 388.897593 15.023955 
L 62.892906 15.023955 
Q 60.892906 15.023955 60.892906 17.023955 
L 60.892906 45.380205 
Q 60.892906 47.380205 62.892906 47.380205 
z
" style="fill: #ffffff; opacity: 0.8; stroke: #cccccc; stroke-linejoin: miter"/>
    </g>
    <g id="text_13">
     <!-- Average of Sessions with  6 Tactors (Legs Included) at Fz (n=16) -->
     <g transform="translate(64.892906 26.622393)scale(0.1 -0.1)">
      <defs>
       <path id="DejaVuSans-41" d="M 2188 4044 
L 1331 1722 
L 3047 1722 
L 2188 4044 
z
M 1831 4666 
L 2547 4666 
L 4325 0 
L 3669 0 
L 3244 1197 
L 1141 1197 
L 716 0 
L 50 0 
L 1831 4666 
z
" transform="scale(0.015625)"/>
       <path id="DejaVuSans-76" d="M 191 3500 
L 800 3500 
L 1894 563 
L 2988 3500 
L 3597 3500 
L 2284 0 
L 1503 0 
L 191 3500 
z
" transform="scale(0.015625)"/>
       <path id="DejaVuSans-72" d="M 2631 2963 
Q 2534 3019 2420 3045 
Q 2306 3072 2169 3072 
Q 1681 3072 1420 2755 
Q 1159 2438 1159 1844 
L 1159 0 
L 581 0 
L 581 3500 
L 1159 3500 
L 1159 2956 
Q 1341 3275 1631 3429 
Q 1922 3584 2338 3584 
Q 2397 3584 2469 3576 
Q 2541 3569 2628 3553 
L 2631 2963 
z
" transform="scale(0.015625)"/>
       <path id="DejaVuSans-61" d="M 2194 1759 
Q 1497 1759 1228 1600 
Q 959 1441 959 1056 
Q 959 750 1161 570 
Q 1363 391 1709 391 
Q 2188 391 2477 730 
Q 2766 1069 2766 1631 
L 2766 1759 
L 2194 1759 
z
M 3341 1997 
L 3341 0 
L 2766 0 
L 2766 531 
Q 2569 213 2275 61 
Q 1981 -91 1556 -91 
Q 1019 -91 701 211 
Q 384 513 384 1019 
Q 384 1609 779 1909 
Q 1175 2209 1959 2209 
L 2766 2209 
L 2766 2266 
Q 2766 2663 2505 2880 
Q 2244 3097 1772 3097 
Q 1472 3097 1187 3025 
Q 903 2953 641 2809 
L 641 3341 
Q 956 3463 1253 3523 
Q 1550 3584 1831 3584 
Q 2591 3584 2966 3190 
Q 3341 2797 3341 1997 
z
" transform="scale(0.015625)"/>
       <path id="DejaVuSans-67" d="M 2906 1791 
Q 2906 2416 2648 2759 
Q 2391 3103 1925 3103 
Q 1463 3103 1205 2759 
Q 947 2416 947 1791 
Q 947 1169 1205 825 
Q 1463 481 1925 481 
Q 2391 481 2648 825 
Q 2906 1169 2906 1791 
z
M 3481 434 
Q 3481 -459 3084 -895 
Q 2688 -1331 1869 -1331 
Q 1566 -1331 1297 -1286 
Q 1028 -1241 775 -1147 
L 775 -588 
Q 1028 -725 1275 -790 
Q 1522 -856 1778 -856 
Q 2344 -856 2625 -561 
Q 2906 -266 2906 331 
L 2906 616 
Q 2728 306 2450 153 
Q 2172 0 1784 0 
Q 1141 0 747 490 
Q 353 981 353 1791 
Q 353 2603 747 3093 
Q 1141 3584 1784 3584 
Q 2172 3584 2450 3431 
Q 2728 3278 2906 2969 
L 2906 3500 
L 3481 3500 
L 3481 434 
z
" transform="scale(0.015625)"/>
       <path id="DejaVuSans-20" transform="scale(0.015625)"/>
       <path id="DejaVuSans-66" d="M 2375 4863 
L 2375 4384 
L 1825 4384 
Q 1516 4384 1395 4259 
Q 1275 4134 1275 3809 
L 1275 3500 
L 2222 3500 
L 2222 3053 
L 1275 3053 
L 1275 0 
L 697 0 
L 697 3053 
L 147 3053 
L 147 3500 
L 697 3500 
L 697 3744 
Q 697 4328 969 4595 
Q 1241 4863 1831 4863 
L 2375 4863 
z
" transform="scale(0.015625)"/>
       <path id="DejaVuSans-53" d="M 3425 4513 
L 3425 3897 
Q 3066 4069 2747 4153 
Q 2428 4238 2131 4238 
Q 1616 4238 1336 4038 
Q 1056 3838 1056 3469 
Q 1056 3159 1242 3001 
Q 1428 2844 1947 2747 
L 2328 2669 
Q 3034 2534 3370 2195 
Q 3706 1856 3706 1288 
Q 3706 609 3251 259 
Q 2797 -91 1919 -91 
Q 1588 -91 1214 -16 
Q 841 59 441 206 
L 441 856 
Q 825 641 1194 531 
Q 1563 422 1919 422 
Q 2459 422 2753 634 
Q 3047 847 3047 1241 
Q 3047 1584 2836 1778 
Q 2625 1972 2144 2069 
L 1759 2144 
Q 1053 2284 737 2584 
Q 422 2884 422 3419 
Q 422 4038 858 4394 
Q 1294 4750 2059 4750 
Q 2388 4750 2728 4690 
Q 3069 4631 3425 4513 
z
" transform="scale(0.015625)"/>
       <path id="DejaVuSans-69" d="M 603 3500 
L 1178 3500 
L 1178 0 
L 603 0 
L 603 3500 
z
M 603 4863 
L 1178 4863 
L 1178 4134 
L 603 4134 
L 603 4863 
z
" transform="scale(0.015625)"/>
       <path id="DejaVuSans-77" d="M 269 3500 
L 844 3500 
L 1563 769 
L 2278 3500 
L 2956 3500 
L 3675 769 
L 4391 3500 
L 4966 3500 
L 4050 0 
L 3372 0 
L 2619 2869 
L 1863 0 
L 1184 0 
L 269 3500 
z
" transform="scale(0.015625)"/>
       <path id="DejaVuSans-74" d="M 1172 4494 
L 1172 3500 
L 2356 3500 
L 2356 3053 
L 1172 3053 
L 1172 1153 
Q 1172 725 1289 603 
Q 1406 481 1766 481 
L 2356 481 
L 2356 0 
L 1766 0 
Q 1100 0 847 248 
Q 594 497 594 1153 
L 594 3053 
L 172 3053 
L 172 3500 
L 594 3500 
L 594 4494 
L 1172 4494 
z
" transform="scale(0.015625)"/>
       <path id="DejaVuSans-68" d="M 3513 2113 
L 3513 0 
L 2938 0 
L 2938 2094 
Q 2938 2591 2744 2837 
Q 2550 3084 2163 3084 
Q 1697 3084 1428 2787 
Q 1159 2491 1159 1978 
L 1159 0 
L 581 0 
L 581 4863 
L 1159 4863 
L 1159 2956 
Q 1366 3272 1645 3428 
Q 1925 3584 2291 3584 
Q 2894 3584 3203 3211 
Q 3513 2838 3513 2113 
z
" transform="scale(0.015625)"/>
       <path id="DejaVuSans-54" d="M -19 4666 
L 3928 4666 
L 3928 4134 
L 2272 4134 
L 2272 0 
L 1638 0 
L 1638 4134 
L -19 4134 
L -19 4666 
z
" transform="scale(0.015625)"/>
       <path id="DejaVuSans-28" d="M 1984 4856 
Q 1566 4138 1362 3434 
Q 1159 2731 1159 2009 
Q 1159 1288 1364 580 
Q 1569 -128 1984 -844 
L 1484 -844 
Q 1016 -109 783 600 
Q 550 1309 550 2009 
Q 550 2706 781 3412 
Q 1013 4119 1484 4856 
L 1984 4856 
z
" transform="scale(0.015625)"/>
       <path id="DejaVuSans-4c" d="M 628 4666 
L 1259 4666 
L 1259 531 
L 3531 531 
L 3531 0 
L 628 0 
L 628 4666 
z
" transform="scale(0.015625)"/>
       <path id="DejaVuSans-49" d="M 628 4666 
L 1259 4666 
L 1259 0 
L 628 0 
L 628 4666 
z
" transform="scale(0.015625)"/>
       <path id="DejaVuSans-6c" d="M 603 4863 
L 1178 4863 
L 1178 0 
L 603 0 
L 603 4863 
z
" transform="scale(0.015625)"/>
       <path id="DejaVuSans-75" d="M 544 1381 
L 544 3500 
L 1119 3500 
L 1119 1403 
Q 1119 906 1312 657 
Q 1506 409 1894 409 
Q 2359 409 2629 706 
Q 2900 1003 2900 1516 
L 2900 3500 
L 3475 3500 
L 3475 0 
L 2900 0 
L 2900 538 
Q 2691 219 2414 64 
Q 2138 -91 1772 -91 
Q 1169 -91 856 284 
Q 544 659 544 1381 
z
M 1991 3584 
L 1991 3584 
z
" transform="scale(0.015625)"/>
       <path id="DejaVuSans-29" d="M 513 4856 
L 1013 4856 
Q 1481 4119 1714 3412 
Q 1947 2706 1947 2009 
Q 1947 1309 1714 600 
Q 1481 -109 1013 -844 
L 513 -844 
Q 928 -128 1133 580 
Q 1338 1288 1338 2009 
Q 1338 2731 1133 3434 
Q 928 4138 513 4856 
z
" transform="scale(0.015625)"/>
       <path id="DejaVuSans-46" d="M 628 4666 
L 3309 4666 
L 3309 4134 
L 1259 4134 
L 1259 2759 
L 3109 2759 
L 3109 2228 
L 1259 2228 
L 1259 0 
L 628 0 
L 628 4666 
z
" transform="scale(0.015625)"/>
       <path id="DejaVuSans-7a" d="M 353 3500 
L 3084 3500 
L 3084 2975 
L 922 459 
L 3084 459 
L 3084 0 
L 275 0 
L 275 525 
L 2438 3041 
L 353 3041 
L 353 3500 
z
" transform="scale(0.015625)"/>
       <path id="DejaVuSans-3d" d="M 678 2906 
L 4684 2906 
L 4684 2381 
L 678 2381 
L 678 2906 
z
M 678 1631 
L 4684 1631 
L 4684 1100 
L 678 1100 
L 678 1631 
z
" transform="scale(0.015625)"/>
       <path id="DejaVuSans-31" d="M 794 531 
L 1825 531 
L 1825 4091 
L 703 3866 
L 703 4441 
L 1819 4666 
L 2450 4666 
L 2450 531 
L 3481 531 
L 3481 0 
L 794 0 
L 794 531 
z
" transform="scale(0.015625)"/>
      </defs>
      <use xlink:href="#DejaVuSans-41"/>
      <use xlink:href="#DejaVuSans-76" x="62.533203"/>
      <use xlink:href="#DejaVuSans-65" x="121.712891"/>
      <use xlink:href="#DejaVuSans-72" x="183.236328"/>
      <use xlink:href="#DejaVuSans-61" x="224.349609"/>
      <use xlink:href="#DejaVuSans-67" x="285.628906"/>
      <use xlink:href="#DejaVuSans-65" x="349.105469"/>
      <use xlink:href="#DejaVuSans-20" x="410.628906"/>
      <use xlink:href="#DejaVuSans-6f" x="442.416016"/>
      <use xlink:href="#DejaVuSans-66" x="503.597656"/>
      <use xlink:href="#DejaVuSans-20" x="538.802734"/>
      <use xlink:href="#DejaVuSans-53" x="570.589844"/>
      <use xlink:href="#DejaVuSans-65" x="634.066406"/>
      <use xlink:href="#DejaVuSans-73" x="695.589844"/>
      <use xlink:href="#DejaVuSans-73" x="747.689453"/>
      <use xlink:href="#DejaVuSans-69" x="799.789062"/>
      <use xlink:href="#DejaVuSans-6f" x="827.572266"/>
      <use xlink:href="#DejaVuSans-6e" x="888.753906"/>
      <use xlink:href="#DejaVuSans-73" x="952.132812"/>
      <use xlink:href="#DejaVuSans-20" x="1004.232422"/>
      <use xlink:href="#DejaVuSans-77" x="1036.019531"/>
      <use xlink:href="#DejaVuSans-69" x="1117.806641"/>
      <use xlink:href="#DejaVuSans-74" x="1145.589844"/>
      <use xlink:href="#DejaVuSans-68" x="1184.798828"/>
      <use xlink:href="#DejaVuSans-20" x="1248.177734"/>
      <use xlink:href="#DejaVuSans-20" x="1279.964844"/>
      <use xlink:href="#DejaVuSans-36" x="1311.751953"/>
      <use xlink:href="#DejaVuSans-20" x="1375.375"/>
      <use xlink:href="#DejaVuSans-54" x="1407.162109"/>
      <use xlink:href="#DejaVuSans-61" x="1451.746094"/>
      <use xlink:href="#DejaVuSans-63" x="1513.025391"/>
      <use xlink:href="#DejaVuSans-74" x="1568.005859"/>
      <use xlink:href="#DejaVuSans-6f" x="1607.214844"/>
      <use xlink:href="#DejaVuSans-72" x="1668.396484"/>
      <use xlink:href="#DejaVuSans-73" x="1709.509766"/>
      <use xlink:href="#DejaVuSans-20" x="1761.609375"/>
      <use xlink:href="#DejaVuSans-28" x="1793.396484"/>
      <use xlink:href="#DejaVuSans-4c" x="1832.410156"/>
      <use xlink:href="#DejaVuSans-65" x="1886.373047"/>
      <use xlink:href="#DejaVuSans-67" x="1947.896484"/>
      <use xlink:href="#DejaVuSans-73" x="2011.373047"/>
      <use xlink:href="#DejaVuSans-20" x="2063.472656"/>
      <use xlink:href="#DejaVuSans-49" x="2095.259766"/>
      <use xlink:href="#DejaVuSans-6e" x="2124.751953"/>
      <use xlink:href="#DejaVuSans-63" x="2188.130859"/>
      <use xlink:href="#DejaVuSans-6c" x="2243.111328"/>
      <use xlink:href="#DejaVuSans-75" x="2270.894531"/>
      <use xlink:href="#DejaVuSans-64" x="2334.273438"/>
      <use xlink:href="#DejaVuSans-65" x="2397.75"/>
      <use xlink:href="#DejaVuSans-64" x="2459.273438"/>
      <use xlink:href="#DejaVuSans-29" x="2522.75"/>
      <use xlink:href="#DejaVuSans-20" x="2561.763672"/>
      <use xlink:href="#DejaVuSans-61" x="2593.550781"/>
      <use xlink:href="#DejaVuSans-74" x="2654.830078"/>
      <use xlink:href="#DejaVuSans-20" x="2694.039062"/>
      <use xlink:href="#DejaVuSans-46" x="2725.826172"/>
      <use xlink:href="#DejaVuSans-7a" x="2783.345703"/>
      <use xlink:href="#DejaVuSans-20" x="2835.835938"/>
      <use xlink:href="#DejaVuSans-28" x="2867.623047"/>
      <use xlink:href="#DejaVuSans-6e" x="2906.636719"/>
      <use xlink:href="#DejaVuSans-3d" x="2970.015625"/>
      <use xlink:href="#DejaVuSans-31" x="3053.804688"/>
      <use xlink:href="#DejaVuSans-36" x="3117.427734"/>
      <use xlink:href="#DejaVuSans-29" x="3181.050781"/>
     </g>
    </g>
    <g id="line2d_15">
     <path d="M 145.635093 37.800518 
L 155.635093 37.800518 
L 165.635093 37.800518 
" style="fill: none; stroke: #e41a1c; stroke-width: 1.5; stroke-linecap: square"/>
    </g>
    <g id="text_14">
     <!-- Target -->
     <g transform="translate(173.635093 41.300518)scale(0.1 -0.1)">
      <use xlink:href="#DejaVuSans-54"/>
      <use xlink:href="#DejaVuSans-61" x="44.583984"/>
      <use xlink:href="#DejaVuSans-72" x="105.863281"/>
      <use xlink:href="#DejaVuSans-67" x="145.226562"/>
      <use xlink:href="#DejaVuSans-65" x="208.703125"/>
      <use xlink:href="#DejaVuSans-74" x="270.226562"/>
     </g>
    </g>
    <g id="line2d_16">
     <path d="M 224.578843 37.800518 
L 234.578843 37.800518 
L 244.578843 37.800518 
" style="fill: none; stroke: #377eb8; stroke-width: 1.5; stroke-linecap: square"/>
    </g>
    <g id="text_15">
     <!-- Non-Target -->
     <g transform="translate(252.578843 41.300518)scale(0.1 -0.1)">
      <defs>
       <path id="DejaVuSans-4e" d="M 628 4666 
L 1478 4666 
L 3547 763 
L 3547 4666 
L 4159 4666 
L 4159 0 
L 3309 0 
L 1241 3903 
L 1241 0 
L 628 0 
L 628 4666 
z
" transform="scale(0.015625)"/>
       <path id="DejaVuSans-2d" d="M 313 2009 
L 1997 2009 
L 1997 1497 
L 313 1497 
L 313 2009 
z
" transform="scale(0.015625)"/>
      </defs>
      <use xlink:href="#DejaVuSans-4e"/>
      <use xlink:href="#DejaVuSans-6f" x="74.804688"/>
      <use xlink:href="#DejaVuSans-6e" x="135.986328"/>
      <use xlink:href="#DejaVuSans-2d" x="199.365234"/>
      <use xlink:href="#DejaVuSans-54" x="226.324219"/>
      <use xlink:href="#DejaVuSans-61" x="270.908203"/>
      <use xlink:href="#DejaVuSans-72" x="332.1875"/>
      <use xlink:href="#DejaVuSans-67" x="371.550781"/>
      <use xlink:href="#DejaVuSans-65" x="435.027344"/>
      <use xlink:href="#DejaVuSans-74" x="496.550781"/>
     </g>
    </g>
   </g>
  </g>
 </g>
 <defs>
  <clipPath id="p498f0abfe3">
   <rect x="38.175" y="70.788" width="375.440499" height="247.412"/>
  </clipPath>
 </defs>
</svg>
