<?xml version="1.0" encoding="utf-8" standalone="no"?>
<!DOCTYPE svg PUBLIC "-//W3C//DTD SVG 1.1//EN"
  "http://www.w3.org/Graphics/SVG/1.1/DTD/svg11.dtd">
<svg xmlns:xlink="http://www.w3.org/1999/xlink" width="432pt" height="360pt" viewBox="0 0 432 360" xmlns="http://www.w3.org/2000/svg" version="1.1">
 <metadata>
  <rdf:RDF xmlns:dc="http://purl.org/dc/elements/1.1/" xmlns:cc="http://creativecommons.org/ns#" xmlns:rdf="http://www.w3.org/1999/02/22-rdf-syntax-ns#">
   <cc:Work>
    <dc:type rdf:resource="http://purl.org/dc/dcmitype/StillImage"/>
    <dc:date>2022-08-24T12:05:01.170638</dc:date>
    <dc:format>image/svg+xml</dc:format>
    <dc:creator>
     <cc:Agent>
      <dc:title>Matplotlib v3.5.1, https://matplotlib.org/</dc:title>
     </cc:Agent>
    </dc:creator>
   </cc:Work>
  </rdf:RDF>
 </metadata>
 <defs>
  <style type="text/css">*{stroke-linejoin: round; stroke-linecap: butt}</style>
 </defs>
 <g id="figure_1">
  <g id="patch_1">
   <path d="M 0 360 
L 432 360 
L 432 0 
L 0 0 
L 0 360 
z
" style="fill: none"/>
  </g>
  <g id="axes_1">
   <g id="patch_2">
    <path d="M 56 318.04 
L 413.570499 318.04 
L 413.570499 71.732 
L 56 71.732 
L 56 318.04 
z
" style="fill: none"/>
   </g>
   <g id="PolyCollection_1">
    <defs>
     <path id="m882df1915e" d="M 56 -101.285481 
L 56 -89.473046 
L 56.775641 -88.956331 
L 57.551282 -88.271007 
L 58.326923 -87.5206 
L 59.102564 -86.857147 
L 59.878205 -86.451404 
L 60.653846 -86.457946 
L 61.429487 -86.97891 
L 62.205128 -88.029549 
L 62.980769 -89.514584 
L 63.75641 -91.229641 
L 64.532051 -92.896611 
L 65.307692 -94.226589 
L 66.083333 -94.990968 
L 66.858974 -95.080732 
L 67.634615 -94.541451 
L 68.410256 -93.57461 
L 69.185897 -92.495691 
L 69.961538 -91.650514 
L 70.737179 -91.314942 
L 71.51282 -91.617202 
L 72.288461 -92.510942 
L 73.064102 -93.80062 
L 73.839743 -95.201259 
L 74.615384 -96.413841 
L 75.391025 -97.202489 
L 76.166666 -97.454608 
L 76.942307 -97.200611 
L 77.717948 -96.584531 
L 78.493589 -95.804405 
L 79.26923 -95.05507 
L 80.044871 -94.492228 
L 80.820512 -94.211138 
L 81.596153 -94.228835 
L 82.371794 -94.478732 
L 83.147435 -94.834775 
L 83.923076 -95.163526 
L 84.698717 -95.377131 
L 85.474358 -95.454492 
L 86.249999 -95.424366 
L 87.02564 -95.335149 
L 87.801281 -95.235593 
L 88.576922 -95.168286 
L 89.352563 -95.164644 
L 90.128204 -95.237913 
L 90.903845 -95.382112 
L 91.679486 -95.580471 
L 92.455127 -95.812975 
L 93.230768 -96.051465 
L 94.006409 -96.247553 
L 94.78205 -96.331911 
L 95.557691 -96.234871 
L 96.333332 -95.915192 
L 97.108973 -95.374588 
L 97.884614 -94.653613 
L 98.660255 -93.824239 
L 99.435896 -92.989961 
L 100.211537 -92.28513 
L 100.987178 -91.856048 
L 101.762819 -91.820086 
L 102.53846 -92.222622 
L 103.314101 -93.017861 
L 104.089742 -94.083071 
L 104.865383 -95.254332 
L 105.641024 -96.364097 
L 106.416665 -97.269604 
L 107.192306 -97.872282 
L 107.967947 -98.129046 
L 108.743588 -98.051705 
L 109.519229 -97.692471 
L 110.29487 -97.122972 
L 111.070511 -96.420263 
L 111.846152 -95.666315 
L 112.621793 -94.953079 
L 113.397434 -94.378789 
L 114.173075 -94.030763 
L 114.948716 -93.964681 
L 115.724357 -94.193099 
L 116.499998 -94.685197 
L 117.275639 -95.371117 
L 118.05128 -96.150079 
L 118.826921 -96.911312 
L 119.602562 -97.571133 
L 120.378203 -98.109168 
L 121.153844 -98.57468 
L 121.929485 -99.050564 
L 122.705126 -99.596441 
L 123.480767 -100.208022 
L 124.256408 -100.813719 
L 125.032049 -101.301348 
L 125.80769 -101.55478 
L 126.583331 -101.488701 
L 127.358972 -101.078969 
L 128.134613 -100.38149 
L 128.910254 -99.524718 
L 129.685895 -98.667575 
L 130.461536 -97.93668 
L 131.237177 -97.374753 
L 132.012818 -96.926758 
L 132.788459 -96.467883 
L 133.5641 -95.857775 
L 134.339741 -94.99961 
L 135.115382 -93.884731 
L 135.891023 -92.607303 
L 136.666664 -91.340439 
L 137.442305 -90.278577 
L 138.217946 -89.567082 
L 138.993587 -89.249406 
L 139.769228 -89.255941 
L 140.544869 -89.439353 
L 141.32051 -89.640594 
L 142.09615 -89.757709 
L 142.871791 -89.788958 
L 143.647432 -89.831794 
L 144.423073 -90.037173 
L 145.198714 -90.538012 
L 145.974355 -91.382511 
L 146.749996 -92.501264 
L 147.525637 -93.722343 
L 148.301278 -94.828532 
L 149.076919 -95.635343 
L 149.85256 -96.061394 
L 150.628201 -96.164741 
L 151.403842 -96.129734 
L 152.179483 -96.207119 
L 152.955124 -96.628712 
L 153.730765 -97.528377 
L 154.506406 -98.898702 
L 155.282047 -100.598228 
L 156.057688 -102.403458 
L 156.833329 -104.082894 
L 157.60897 -105.464187 
L 158.384611 -106.471546 
L 159.160252 -107.124648 
L 159.935893 -107.505995 
L 160.711534 -107.714906 
L 161.487175 -107.829963 
L 162.262816 -107.896669 
L 163.038457 -107.943796 
L 163.814098 -108.014559 
L 164.589739 -108.18775 
L 165.36538 -108.568514 
L 166.141021 -109.247063 
L 166.916662 -110.243814 
L 167.692303 -111.468937 
L 168.467944 -112.719525 
L 169.243585 -113.72338 
L 170.019226 -114.220686 
L 170.794867 -114.057348 
L 171.570508 -113.252407 
L 172.346149 -112.006805 
L 173.12179 -110.64546 
L 173.897431 -109.515141 
L 174.673072 -108.877907 
L 175.448713 -108.836541 
L 176.224354 -109.312302 
L 176.999995 -110.078207 
L 177.775636 -110.837653 
L 178.551277 -111.324829 
L 179.326918 -111.392821 
L 180.102559 -111.057633 
L 180.8782 -110.48431 
L 181.653841 -109.924463 
L 182.429482 -109.629676 
L 183.205123 -109.770205 
L 183.980764 -110.386022 
L 184.756405 -111.386544 
L 185.532046 -112.595208 
L 186.307687 -113.814377 
L 187.083328 -114.879439 
L 187.858969 -115.684048 
L 188.63461 -116.179486 
L 189.410251 -116.362331 
L 190.185892 -116.261709 
L 190.961533 -115.930238 
L 191.737174 -115.439058 
L 192.512815 -114.875518 
L 193.288456 -114.338652 
L 194.064097 -113.926061 
L 194.839738 -113.7119 
L 195.615379 -113.725774 
L 196.39102 -113.946218 
L 197.166661 -114.315285 
L 197.942302 -114.768614 
L 198.717943 -115.268119 
L 199.493584 -115.82495 
L 200.269225 -116.504526 
L 201.044866 -117.409873 
L 201.820507 -118.645568 
L 202.596148 -120.272562 
L 203.371789 -122.269967 
L 204.14743 -124.519629 
L 204.923071 -126.822618 
L 205.698712 -128.946169 
L 206.474353 -130.688483 
L 207.249994 -131.940893 
L 208.025635 -132.725718 
L 208.801276 -133.195243 
L 209.576917 -133.59077 
L 210.352558 -134.174441 
L 211.128199 -135.154056 
L 211.90384 -136.621506 
L 212.679481 -138.521615 
L 213.455122 -140.661608 
L 214.230763 -142.76115 
L 215.006404 -144.530432 
L 215.782045 -145.753324 
L 216.557686 -146.3493 
L 217.333327 -146.394594 
L 218.108968 -146.097456 
L 218.884609 -145.737342 
L 219.66025 -145.587368 
L 220.435891 -145.841907 
L 221.211532 -146.568283 
L 221.987173 -147.695691 
L 222.762814 -149.045975 
L 223.538455 -150.398548 
L 224.314096 -151.567824 
L 225.089737 -152.463641 
L 225.865378 -153.11109 
L 226.641019 -153.624981 
L 227.41666 -154.153556 
L 228.192301 -154.815407 
L 228.967942 -155.651859 
L 229.743583 -156.609111 
L 230.519224 -157.555024 
L 231.294865 -158.325428 
L 232.070506 -158.78398 
L 232.846147 -158.872426 
L 233.621788 -158.631349 
L 234.397429 -158.185504 
L 235.17307 -157.703854 
L 235.948711 -157.353038 
L 236.724352 -157.260872 
L 237.499993 -157.496467 
L 238.275634 -158.064773 
L 239.051275 -158.910938 
L 239.826916 -159.932988 
L 240.602557 -161.003455 
L 241.378198 -161.998301 
L 242.153839 -162.827045 
L 242.92948 -163.45606 
L 243.705121 -163.920364 
L 244.480762 -164.323677 
L 245.256403 -164.8264 
L 246.032044 -165.617547 
L 246.807685 -166.868171 
L 247.583326 -168.674677 
L 248.358967 -171.013223 
L 249.134608 -173.728601 
L 249.910249 -176.568675 
L 250.68589 -179.256337 
L 251.461531 -181.575498 
L 252.237172 -183.441293 
L 253.012813 -184.927879 
L 253.788454 -186.240314 
L 254.564095 -187.638483 
L 255.339736 -189.342475 
L 256.115377 -191.456182 
L 256.891018 -193.935455 
L 257.666659 -196.607626 
L 258.4423 -199.233167 
L 259.217941 -201.589597 
L 259.993582 -203.549786 
L 260.769223 -205.124114 
L 261.544864 -206.446685 
L 262.320505 -207.711588 
L 263.096146 -209.091425 
L 263.871787 -210.676685 
L 264.647428 -212.457618 
L 265.423069 -214.346209 
L 266.19871 -216.222044 
L 266.974351 -217.983845 
L 267.749992 -219.590189 
L 268.525633 -221.074905 
L 269.301274 -222.529285 
L 270.076915 -224.057915 
L 270.852556 -225.730574 
L 271.628197 -227.55525 
L 272.403838 -229.483141 
L 273.179479 -231.437222 
L 273.95512 -233.345744 
L 274.730761 -235.164243 
L 275.506402 -236.879116 
L 276.282043 -238.496116 
L 277.057684 -240.023363 
L 277.833325 -241.459042 
L 278.608966 -242.789715 
L 279.384607 -243.998445 
L 280.160248 -245.076132 
L 280.935889 -246.027587 
L 281.71153 -246.867395 
L 282.487171 -247.606421 
L 283.262812 -248.235205 
L 284.038453 -248.714261 
L 284.814094 -248.981319 
L 285.589735 -248.979148 
L 286.365376 -248.695707 
L 287.141017 -248.197584 
L 287.916658 -247.635529 
L 288.692299 -247.21242 
L 289.46794 -247.123512 
L 290.243581 -247.493157 
L 291.019222 -248.33263 
L 291.794863 -249.532991 
L 292.570504 -250.89405 
L 293.346145 -252.18049 
L 294.121786 -253.188933 
L 294.897427 -253.80474 
L 295.673068 -254.027919 
L 296.448709 -253.957358 
L 297.22435 -253.740039 
L 297.999991 -253.507813 
L 298.775632 -253.328412 
L 299.551273 -253.188266 
L 300.326914 -253.009746 
L 301.102555 -252.692381 
L 301.878196 -252.159994 
L 302.653837 -251.394872 
L 303.429478 -250.446604 
L 304.205119 -249.414699 
L 304.98076 -248.415116 
L 305.756401 -247.545904 
L 306.532042 -246.864308 
L 307.307683 -246.380444 
L 308.083324 -246.065725 
L 308.858965 -245.869502 
L 309.634606 -245.73553 
L 310.410247 -245.612277 
L 311.185888 -245.456231 
L 311.961529 -245.23133 
L 312.73717 -244.907866 
L 313.51281 -244.462487 
L 314.288451 -243.879422 
L 315.064092 -243.152779 
L 315.839733 -242.289228 
L 316.615374 -241.308537 
L 317.391015 -240.238505 
L 318.166656 -239.104475 
L 318.942297 -237.918624 
L 319.717938 -236.675495 
L 320.493579 -235.355982 
L 321.26922 -233.937048 
L 322.044861 -232.402758 
L 322.820502 -230.75368 
L 323.596143 -229.013566 
L 324.371784 -227.232791 
L 325.147425 -225.487797 
L 325.923066 -223.875776 
L 326.698707 -222.503722 
L 327.474348 -221.470901 
L 328.249989 -220.84594 
L 329.02563 -220.644529 
L 329.801271 -220.816904 
L 330.576912 -221.250815 
L 331.352553 -221.788028 
L 332.128194 -222.248901 
L 332.903835 -222.46209 
L 333.679476 -222.298244 
L 334.455117 -221.701997 
L 335.230758 -220.709546 
L 336.006399 -219.439426 
L 336.78204 -218.056202 
L 337.557681 -216.722429 
L 338.333322 -215.559125 
L 339.108963 -214.626598 
L 339.884604 -213.925222 
L 340.660245 -213.409142 
L 341.435886 -213.006354 
L 342.211527 -212.640666 
L 342.987168 -212.25126 
L 343.762809 -211.805504 
L 344.53845 -211.303201 
L 345.314091 -210.77423 
L 346.089732 -210.272729 
L 346.865373 -209.868853 
L 347.641014 -209.637413 
L 348.416655 -209.642791 
L 349.192296 -209.92067 
L 349.967937 -210.459282 
L 350.743578 -211.186286 
L 351.519219 -211.969905 
L 352.29486 -212.640978 
L 353.070501 -213.035514 
L 353.846142 -213.047527 
L 354.621783 -212.67421 
L 355.397424 -212.034267 
L 356.173065 -211.347652 
L 356.948706 -210.877624 
L 357.724347 -210.850702 
L 358.499988 -211.381619 
L 359.275629 -212.432 
L 360.05127 -213.819854 
L 360.826911 -215.276769 
L 361.602552 -216.531489 
L 362.378193 -217.390249 
L 363.153834 -217.787699 
L 363.929475 -217.793092 
L 364.705116 -217.569865 
L 365.480757 -217.302055 
L 366.256398 -217.116133 
L 367.032039 -217.03332 
L 367.80768 -216.976022 
L 368.583321 -216.824835 
L 369.358962 -216.496416 
L 370.134603 -216.003687 
L 370.910244 -215.471822 
L 371.685885 -215.105217 
L 372.461526 -215.119002 
L 373.237167 -215.659128 
L 374.012808 -216.739367 
L 374.788449 -218.220777 
L 375.56409 -219.84585 
L 376.339731 -221.317556 
L 377.115372 -222.393691 
L 377.891013 -222.960618 
L 378.666654 -223.059822 
L 379.442295 -222.859293 
L 380.217936 -222.581502 
L 380.993577 -222.415472 
L 381.769218 -222.44778 
L 382.544859 -222.640407 
L 383.3205 -222.862071 
L 384.096141 -222.954451 
L 384.871782 -222.801278 
L 385.647423 -222.373355 
L 386.423064 -221.737878 
L 387.198705 -221.035062 
L 387.974346 -220.433408 
L 388.749987 -220.078758 
L 389.525628 -220.053751 
L 390.301269 -220.361577 
L 391.07691 -220.938454 
L 391.852551 -221.685862 
L 392.628192 -222.504903 
L 393.403833 -223.316529 
L 394.179474 -224.062855 
L 394.955115 -224.697956 
L 395.730756 -225.181809 
L 396.506397 -225.485357 
L 397.282038 -225.604517 
L 398.057679 -225.575449 
L 398.83332 -225.483326 
L 399.608961 -225.458443 
L 400.384602 -225.653523 
L 401.160243 -226.200049 
L 401.935884 -227.152683 
L 402.711525 -228.444554 
L 403.487166 -229.88005 
L 404.262807 -231.177973 
L 405.038448 -232.053367 
L 405.814089 -232.307684 
L 406.58973 -231.894262 
L 407.365371 -230.937148 
L 408.141012 -229.697764 
L 408.916653 -228.499906 
L 409.692294 -227.635735 
L 410.467935 -227.281402 
L 411.243576 -227.449018 
L 412.019217 -227.99105 
L 412.794858 -228.655878 
L 413.570499 -229.174919 
L 413.570499 -257.093383 
L 413.570499 -257.093383 
L 412.794858 -256.543221 
L 412.019217 -255.85653 
L 411.243576 -255.281526 
L 410.467935 -255.06225 
L 409.692294 -255.355685 
L 408.916653 -256.167092 
L 408.141012 -257.332016 
L 407.365371 -258.557164 
L 406.58973 -259.508573 
L 405.814089 -259.915615 
L 405.038448 -259.652571 
L 404.262807 -258.768997 
L 403.487166 -257.462111 
L 402.711525 -256.007525 
L 401.935884 -254.676597 
L 401.160243 -253.666411 
L 400.384602 -253.05876 
L 399.608961 -252.81501 
L 398.83332 -252.805769 
L 398.057679 -252.86497 
L 397.282038 -252.847532 
L 396.506397 -252.666785 
L 395.730756 -252.299349 
L 394.955115 -251.764652 
L 394.179474 -251.098456 
L 393.403833 -250.337786 
L 392.628192 -249.521877 
L 391.852551 -248.702207 
L 391.07691 -247.950418 
L 390.301269 -247.355522 
L 389.525628 -247.007376 
L 388.749987 -246.969452 
L 387.974346 -247.249615 
L 387.198705 -247.781659 
L 386.423064 -248.430649 
L 385.647423 -249.027745 
L 384.871782 -249.426089 
L 384.096141 -249.555169 
L 383.3205 -249.447098 
L 382.544859 -249.219962 
L 381.769218 -249.024431 
L 380.993577 -248.976535 
L 380.217936 -249.103031 
L 379.442295 -249.319414 
L 378.666654 -249.449813 
L 377.891013 -249.285436 
L 377.115372 -248.664229 
L 376.339731 -247.542705 
L 375.56409 -246.029392 
L 374.788449 -244.363055 
L 374.012808 -242.841874 
L 373.237167 -241.729512 
L 372.461526 -241.172004 
L 371.685885 -241.155835 
L 370.910244 -241.524051 
L 370.134603 -242.045049 
L 369.358962 -242.505098 
L 368.583321 -242.783692 
L 367.80768 -242.880249 
L 367.032039 -242.885922 
L 366.256398 -242.919448 
L 365.480757 -243.057196 
L 364.705116 -243.284448 
L 363.929475 -243.485531 
L 363.153834 -243.479095 
L 362.378193 -243.089387 
L 361.602552 -242.22723 
L 360.826911 -240.945001 
L 360.05127 -239.438148 
L 359.275629 -237.989546 
L 358.499988 -236.878847 
L 357.724347 -236.292921 
L 356.948706 -236.26992 
L 356.173065 -236.693817 
L 355.397424 -237.337794 
L 354.621783 -237.939078 
L 353.846142 -238.27856 
L 353.070501 -238.238995 
L 352.29486 -237.825357 
L 351.519219 -237.145777 
L 350.743578 -236.365012 
L 349.967937 -235.649905 
L 349.192296 -235.125316 
L 348.416655 -234.852273 
L 347.641014 -234.830407 
L 346.865373 -235.017189 
L 346.089732 -235.351501 
L 345.314091 -235.77162 
L 344.53845 -236.224677 
L 343.762809 -236.670348 
L 342.987168 -237.083287 
L 342.211527 -237.457383 
L 341.435886 -237.811685 
L 340.660245 -238.193944 
L 339.884604 -238.675527 
L 339.108963 -239.333288 
L 338.333322 -240.220461 
L 337.557681 -241.337503 
L 336.78204 -242.617761 
L 336.006399 -243.936499 
L 335.230758 -245.139304 
L 334.455117 -246.077897 
L 333.679476 -246.643362 
L 332.903835 -246.792604 
L 332.128194 -246.564536 
L 331.352553 -246.079043 
L 330.576912 -245.512727 
L 329.801271 -245.056182 
L 329.02563 -244.869645 
L 328.249989 -245.054784 
L 327.474348 -245.648679 
L 326.698707 -246.6332 
L 325.923066 -247.949652 
L 325.147425 -249.513067 
L 324.371784 -251.226001 
L 323.596143 -252.992692 
L 322.820502 -254.732101 
L 322.044861 -256.386998 
L 321.26922 -257.927376 
L 320.493579 -259.34797 
L 319.717938 -260.660605 
L 318.942297 -261.883486 
L 318.166656 -263.031218 
L 317.391015 -264.10888 
L 316.615374 -265.110833 
L 315.839733 -266.02306 
L 315.064092 -266.827983 
L 314.288451 -267.510834 
L 313.51281 -268.065513 
L 312.73717 -268.496816 
L 311.961529 -268.817943 
L 311.185888 -269.045979 
L 310.410247 -269.200271 
L 309.634606 -269.306163 
L 308.858965 -269.401409 
L 308.083324 -269.539649 
L 307.307683 -269.786216 
L 306.532042 -270.204369 
L 305.756401 -270.834401 
L 304.98076 -271.673104 
L 304.205119 -272.663769 
L 303.429478 -273.704159 
L 302.653837 -274.672383 
L 301.878196 -275.462463 
L 301.102555 -276.016798 
L 300.326914 -276.343319 
L 299.551273 -276.509463 
L 298.775632 -276.612205 
L 297.999991 -276.733118 
L 297.22435 -276.89631 
L 296.448709 -277.04853 
L 295.673068 -277.072182 
L 294.897427 -276.828007 
L 294.121786 -276.212459 
L 293.346145 -275.209277 
L 292.570504 -273.915298 
L 291.794863 -272.526856 
L 291.019222 -271.286202 
L 290.243581 -270.405187 
L 289.46794 -269.99698 
L 288.692299 -270.044792 
L 287.916658 -270.418334 
L 287.141017 -270.925752 
L 286.365376 -271.376136 
L 285.589735 -271.629275 
L 284.814094 -271.619493 
L 284.038453 -271.351561 
L 283.262812 -270.874751 
L 282.487171 -270.24708 
L 281.71153 -269.505126 
L 280.935889 -268.652611 
L 280.160248 -267.67063 
L 279.384607 -266.539844 
L 278.608966 -265.259171 
L 277.833325 -263.849754 
L 277.057684 -262.343361 
L 276.282043 -260.764104 
L 275.506402 -259.116014 
L 274.730761 -257.385013 
L 273.95512 -255.555408 
L 273.179479 -253.632035 
L 272.403838 -251.654294 
L 271.628197 -249.69151 
L 270.852556 -247.819615 
L 270.076915 -246.090074 
L 269.301274 -244.50573 
L 268.525633 -243.014505 
L 267.749992 -241.525189 
L 266.974351 -239.942571 
L 266.19871 -238.211185 
L 265.423069 -236.348375 
L 264.647428 -234.445542 
L 263.871787 -232.629095 
L 263.096146 -230.996195 
L 262.320505 -229.558345 
L 261.544864 -228.222907 
L 260.769223 -226.821483 
L 259.993582 -225.171724 
L 259.217941 -223.148349 
L 258.4423 -220.738913 
L 257.666659 -218.063446 
L 256.891018 -215.344577 
L 256.115377 -212.831494 
L 255.339736 -210.70461 
L 254.564095 -209.002574 
L 253.788454 -207.605051 
L 253.012813 -206.277555 
L 252.237172 -204.757636 
L 251.461531 -202.84844 
L 250.68589 -200.48719 
L 249.910249 -197.766883 
L 249.134608 -194.905965 
L 248.358967 -192.178574 
L 247.583326 -189.831538 
L 246.807685 -188.016864 
L 246.032044 -186.758997 
L 245.256403 -185.961586 
L 244.480762 -185.446915 
L 243.705121 -185.013855 
L 242.92948 -184.495491 
L 242.153839 -183.797679 
L 241.378198 -182.908067 
L 240.602557 -181.879409 
L 239.826916 -180.802467 
L 239.051275 -179.783537 
L 238.275634 -178.92996 
L 237.499993 -178.336158 
L 236.724352 -178.063525 
L 235.948711 -178.117396 
L 235.17307 -178.432545 
L 234.397429 -178.878352 
L 233.621788 -179.286557 
L 232.846147 -179.493964 
L 232.070506 -179.3861 
L 231.294865 -178.927744 
L 230.519224 -178.17117 
L 229.743583 -177.238575 
L 228.967942 -176.281145 
L 228.192301 -175.425324 
L 227.41666 -174.724969 
L 226.641019 -174.140105 
L 225.865378 -173.554553 
L 225.089737 -172.827505 
L 224.314096 -171.857631 
L 223.538455 -170.633072 
L 222.762814 -169.248621 
L 221.987173 -167.884709 
L 221.211532 -166.754362 
L 220.435891 -166.032827 
L 219.66025 -165.790942 
L 218.884609 -165.956365 
L 218.108968 -166.320874 
L 217.333327 -166.595285 
L 216.557686 -166.493572 
L 215.782045 -165.816361 
L 215.006404 -164.506618 
L 214.230763 -162.66287 
L 213.455122 -160.50959 
L 212.679481 -158.335289 
L 211.90384 -156.41509 
L 211.128199 -154.937198 
L 210.352558 -153.952766 
L 209.576917 -153.364432 
L 208.801276 -152.958221 
L 208.025635 -152.469045 
L 207.249994 -151.658725 
L 206.474353 -150.382435 
L 205.698712 -148.624974 
L 204.923071 -146.498772 
L 204.14743 -144.206511 
L 203.371789 -141.980326 
L 202.596148 -140.016439 
L 201.820507 -138.426359 
L 201.044866 -137.219968 
L 200.269225 -136.323397 
L 199.493584 -135.621884 
L 198.717943 -135.010185 
L 197.942302 -134.431763 
L 197.166661 -133.892802 
L 196.39102 -133.447833 
L 195.615379 -133.166673 
L 194.839738 -133.100293 
L 194.064097 -133.260238 
L 193.288456 -133.615265 
L 192.512815 -134.099676 
L 191.737174 -134.626268 
L 190.961533 -135.099599 
L 190.185892 -135.427084 
L 189.410251 -135.526365 
L 188.63461 -135.330969 
L 187.858969 -134.800059 
L 187.083328 -133.935477 
L 186.307687 -132.799764 
L 185.532046 -131.521728 
L 184.756405 -130.279744 
L 183.980764 -129.26456 
L 183.205123 -128.631973 
L 182.429482 -128.45691 
L 181.653841 -128.70071 
L 180.8782 -129.206254 
L 180.102559 -129.73298 
L 179.326918 -130.029418 
L 178.551277 -129.921339 
L 177.775636 -129.381988 
L 176.999995 -128.554894 
L 176.224354 -127.715947 
L 175.448713 -127.182643 
L 174.673072 -127.199028 
L 173.897431 -127.839552 
L 173.12179 -128.973359 
L 172.346149 -130.306032 
L 171.570508 -131.479629 
L 170.794867 -132.187781 
L 170.019226 -132.263068 
L 169.243585 -131.711922 
L 168.467944 -130.693767 
L 167.692303 -129.457117 
L 166.916662 -128.256095 
L 166.141021 -127.276738 
L 165.36538 -126.598738 
L 164.589739 -126.201628 
L 163.814098 -126.00306 
L 163.038457 -125.905022 
L 162.262816 -125.827148 
L 161.487175 -125.717436 
L 160.711534 -125.541294 
L 159.935893 -125.258458 
L 159.160252 -124.80415 
L 158.384611 -124.091278 
L 157.60897 -123.040461 
L 156.833329 -121.627206 
L 156.057688 -119.92111 
L 155.282047 -118.091818 
L 154.506406 -116.371734 
L 153.730765 -114.98632 
L 152.955124 -114.077747 
L 152.179483 -113.651459 
L 151.403842 -113.567849 
L 150.628201 -113.585349 
L 149.85256 -113.441965 
L 149.076919 -112.946548 
L 148.301278 -112.045246 
L 147.525637 -110.836329 
L 146.749996 -109.527004 
L 145.974355 -108.350457 
L 145.198714 -107.478278 
L 144.423073 -106.964158 
L 143.647432 -106.739128 
L 142.871791 -106.655923 
L 142.09615 -106.561238 
L 141.32051 -106.366046 
L 140.544869 -106.08635 
L 139.769228 -105.838245 
L 138.993587 -105.789434 
L 138.217946 -106.087753 
L 137.442305 -106.796638 
L 136.666664 -107.863237 
L 135.891023 -109.130565 
L 135.115382 -110.388601 
L 134.339741 -111.446127 
L 133.5641 -112.197474 
L 132.788459 -112.657554 
L 132.012818 -112.948291 
L 131.237177 -113.240498 
L 130.461536 -113.677965 
L 129.685895 -114.318777 
L 128.910254 -115.115877 
L 128.134613 -115.937091 
L 127.358972 -116.611701 
L 126.583331 -116.98886 
L 125.80769 -116.991407 
L 125.032049 -116.644181 
L 124.256408 -116.059173 
L 123.480767 -115.380276 
L 122.705126 -114.717993 
L 121.929485 -114.113025 
L 121.153844 -113.543578 
L 120.378203 -112.958454 
L 119.602562 -112.308991 
L 118.826921 -111.568747 
L 118.05128 -110.746924 
L 117.275639 -109.899306 
L 116.499998 -109.125654 
L 115.724357 -108.542453 
L 114.948716 -108.240236 
L 114.173075 -108.25163 
L 113.397434 -108.54925 
L 112.621793 -109.067416 
L 111.846152 -109.725404 
L 111.070511 -110.437432 
L 110.29487 -111.112846 
L 109.519229 -111.657891 
L 108.743588 -111.983435 
L 107.967947 -112.014749 
L 107.192306 -111.701003 
L 106.416665 -111.027637 
L 105.641024 -110.032534 
L 104.865383 -108.817015 
L 104.089742 -107.537501 
L 103.314101 -106.373024 
L 102.53846 -105.481126 
L 101.762819 -104.963251 
L 100.987178 -104.851089 
L 100.211537 -105.108829 
L 99.435896 -105.641524 
L 98.660255 -106.309541 
L 97.884614 -106.957275 
L 97.108973 -107.455115 
L 96.333332 -107.735166 
L 95.557691 -107.797927 
L 94.78205 -107.686585 
L 94.006409 -107.451213 
L 93.230768 -107.13124 
L 92.455127 -106.761256 
L 91.679486 -106.380659 
L 90.903845 -106.030911 
L 90.128204 -105.744303 
L 89.352563 -105.537513 
L 88.576922 -105.413033 
L 87.801281 -105.359165 
L 87.02564 -105.344352 
L 86.249999 -105.316534 
L 85.474358 -105.219335 
L 84.698717 -105.018943 
L 83.923076 -104.721444 
L 83.147435 -104.369168 
L 82.371794 -104.02751 
L 81.596153 -103.779093 
L 80.820512 -103.719956 
L 80.044871 -103.937139 
L 79.26923 -104.462658 
L 78.493589 -105.228082 
L 77.717948 -106.057346 
L 76.942307 -106.71294 
L 76.166666 -106.971717 
L 75.391025 -106.694271 
L 74.615384 -105.868108 
L 73.839743 -104.620625 
L 73.064102 -103.199456 
L 72.288461 -101.915873 
L 71.51282 -101.058732 
L 70.737179 -100.807699 
L 69.961538 -101.181294 
L 69.185897 -102.036539 
L 68.410256 -103.111358 
L 67.634615 -104.090661 
L 66.858974 -104.681241 
L 66.083333 -104.683635 
L 65.307692 -104.043143 
L 64.532051 -102.859669 
L 63.75641 -101.351453 
L 62.980769 -99.791035 
L 62.205128 -98.440402 
L 61.429487 -97.501712 
L 60.653846 -97.086494 
L 59.878205 -97.203085 
L 59.102564 -97.764809 
L 58.326923 -98.619099 
L 57.551282 -99.589195 
L 56.775641 -100.515234 
L 56 -101.285481 
z
" style="stroke: #e41a1c; stroke-opacity: 0.3"/>
    </defs>
    <g clip-path="url(#pf072bf9101)">
     <use xlink:href="#m882df1915e" x="0" y="360" style="fill: #e41a1c; fill-opacity: 0.3; stroke: #e41a1c; stroke-opacity: 0.3"/>
    </g>
   </g>
   <g id="PolyCollection_2">
    <defs>
     <path id="m8718c082d1" d="M 56 -107.557002 
L 56 -102.26612 
L 56.775641 -102.422098 
L 57.551282 -102.507786 
L 58.326923 -102.429432 
L 59.102564 -102.122436 
L 59.878205 -101.578205 
L 60.653846 -100.854859 
L 61.429487 -100.065051 
L 62.205128 -99.34266 
L 62.980769 -98.800134 
L 63.75641 -98.493753 
L 64.532051 -98.410808 
L 65.307692 -98.482419 
L 66.083333 -98.614205 
L 66.858974 -98.720464 
L 67.634615 -98.7486 
L 68.410256 -98.687045 
L 69.185897 -98.557608 
L 69.961538 -98.398257 
L 70.737179 -98.243535 
L 71.51282 -98.108888 
L 72.288461 -97.984573 
L 73.064102 -97.842821 
L 73.839743 -97.655716 
L 74.615384 -97.413746 
L 75.391025 -97.133459 
L 76.166666 -96.849864 
L 76.942307 -96.599446 
L 77.717948 -96.404162 
L 78.493589 -96.262845 
L 79.26923 -96.150227 
L 80.044871 -96.0222 
L 80.820512 -95.827496 
L 81.596153 -95.524444 
L 82.371794 -95.096857 
L 83.147435 -94.560861 
L 83.923076 -93.958816 
L 84.698717 -93.344735 
L 85.474358 -92.769835 
L 86.249999 -92.273601 
L 87.02564 -91.880021 
L 87.801281 -91.596266 
L 88.576922 -91.412503 
L 89.352563 -91.303207 
L 90.128204 -91.230522 
L 90.903845 -91.149673 
L 91.679486 -91.016478 
L 92.455127 -90.797052 
L 93.230768 -90.478072 
L 94.006409 -90.073521 
L 94.78205 -89.623311 
L 95.557691 -89.182689 
L 96.333332 -88.806353 
L 97.108973 -88.533728 
L 97.884614 -88.380141 
L 98.660255 -88.33546 
L 99.435896 -88.369741 
L 100.211537 -88.44447 
L 100.987178 -88.526398 
L 101.762819 -88.598994 
L 102.53846 -88.666323 
L 103.314101 -88.747494 
L 104.089742 -88.865242 
L 104.865383 -89.035497 
L 105.641024 -89.262959 
L 106.416665 -89.542946 
L 107.192306 -89.865981 
L 107.967947 -90.221121 
L 108.743588 -90.596232 
L 109.519229 -90.975805 
L 110.29487 -91.338236 
L 111.070511 -91.654977 
L 111.846152 -91.894063 
L 112.621793 -92.029103 
L 113.397434 -92.051453 
L 114.173075 -91.979723 
L 114.948716 -91.860246 
L 115.724357 -91.755915 
L 116.499998 -91.726947 
L 117.275639 -91.811386 
L 118.05128 -92.013026 
L 118.826921 -92.300702 
L 119.602562 -92.618486 
L 120.378203 -92.902975 
L 121.153844 -93.101795 
L 121.929485 -93.186741 
L 122.705126 -93.156329 
L 123.480767 -93.026783 
L 124.256408 -92.816521 
L 125.032049 -92.533305 
L 125.80769 -92.172091 
L 126.583331 -91.725079 
L 127.358972 -91.198027 
L 128.134613 -90.623169 
L 128.910254 -90.060736 
L 129.685895 -89.586234 
L 130.461536 -89.266871 
L 131.237177 -89.135603 
L 132.012818 -89.173768 
L 132.788459 -89.311196 
L 133.5641 -89.445936 
L 134.339741 -89.476902 
L 135.115382 -89.336595 
L 135.891023 -89.011118 
L 136.666664 -88.540367 
L 137.442305 -87.999338 
L 138.217946 -87.468793 
L 138.993587 -87.007622 
L 139.769228 -86.638416 
L 140.544869 -86.351649 
L 141.32051 -86.124878 
L 142.09615 -85.945968 
L 142.871791 -85.827694 
L 143.647432 -85.806179 
L 144.423073 -85.923982 
L 145.198714 -86.206142 
L 145.974355 -86.640863 
L 146.749996 -87.174647 
L 147.525637 -87.725329 
L 148.301278 -88.208526 
L 149.076919 -88.566916 
L 149.85256 -88.789842 
L 150.628201 -88.914016 
L 151.403842 -89.003671 
L 152.179483 -89.118061 
L 152.955124 -89.280771 
L 153.730765 -89.465358 
L 154.506406 -89.604478 
L 155.282047 -89.619078 
L 156.057688 -89.45579 
L 156.833329 -89.117399 
L 157.60897 -88.673586 
L 158.384611 -88.24567 
L 159.160252 -87.968516 
L 159.935893 -87.942453 
L 160.711534 -88.193595 
L 161.487175 -88.659068 
L 162.262816 -89.203851 
L 163.038457 -89.66303 
L 163.814098 -89.893657 
L 164.589739 -89.818112 
L 165.36538 -89.445331 
L 166.141021 -88.864512 
L 166.916662 -88.214859 
L 167.692303 -87.642082 
L 168.467944 -87.255514 
L 169.243585 -87.098546 
L 170.019226 -87.140086 
L 170.794867 -87.287707 
L 171.570508 -87.416301 
L 172.346149 -87.402021 
L 173.12179 -87.151353 
L 173.897431 -86.61883 
L 174.673072 -85.811785 
L 175.448713 -84.784008 
L 176.224354 -83.6212 
L 176.999995 -82.420829 
L 177.775636 -81.269269 
L 178.551277 -80.220564 
L 179.326918 -79.282658 
L 180.102559 -78.416436 
L 180.8782 -77.54937 
L 181.653841 -76.600263 
L 182.429482 -75.507421 
L 183.205123 -74.25164 
L 183.980764 -72.867304 
L 184.756405 -71.437984 
L 185.532046 -70.076688 
L 186.307687 -68.895077 
L 187.083328 -67.970273 
L 187.858969 -67.320313 
L 188.63461 -66.897614 
L 189.410251 -66.603875 
L 190.185892 -66.322065 
L 190.961533 -65.954501 
L 191.737174 -65.453452 
L 192.512815 -64.833256 
L 193.288456 -64.160209 
L 194.064097 -63.525342 
L 194.839738 -63.011461 
L 195.615379 -62.66675 
L 196.39102 -62.493231 
L 197.166661 -62.45242 
L 197.942302 -62.485186 
L 198.717943 -62.538353 
L 199.493584 -62.587439 
L 200.269225 -62.645403 
L 201.044866 -62.75324 
L 201.820507 -62.957436 
L 202.596148 -63.285641 
L 203.371789 -63.731499 
L 204.14743 -64.253984 
L 204.923071 -64.790191 
L 205.698712 -65.276012 
L 206.474353 -65.666853 
L 207.249994 -65.95098 
L 208.025635 -66.151264 
L 208.801276 -66.316057 
L 209.576917 -66.504287 
L 210.352558 -66.771039 
L 211.128199 -67.158122 
L 211.90384 -67.691111 
L 212.679481 -68.381158 
L 213.455122 -69.227492 
L 214.230763 -70.216397 
L 215.006404 -71.315913 
L 215.782045 -72.470321 
L 216.557686 -73.600684 
L 217.333327 -74.615161 
L 218.108968 -75.427514 
L 218.884609 -75.97815 
L 219.66025 -76.25108 
L 220.435891 -76.281108 
L 221.211532 -76.147144 
L 221.987173 -75.950694 
L 222.762814 -75.784344 
L 223.538455 -75.700932 
L 224.314096 -75.695489 
L 225.089737 -75.707077 
L 225.865378 -75.63939 
L 226.641019 -75.392138 
L 227.41666 -74.89215 
L 228.192301 -74.113828 
L 228.967942 -73.082691 
L 229.743583 -71.86235 
L 230.519224 -70.531752 
L 231.294865 -69.162668 
L 232.070506 -67.805376 
L 232.846147 -66.48576 
L 233.621788 -65.212525 
L 234.397429 -63.990156 
L 235.17307 -62.831224 
L 235.948711 -61.761417 
L 236.724352 -60.813659 
L 237.499993 -60.013667 
L 238.275634 -59.364661 
L 239.051275 -58.839762 
L 239.826916 -58.386311 
L 240.602557 -57.940233 
L 241.378198 -57.44488 
L 242.153839 -56.868037 
L 242.92948 -56.211941 
L 243.705121 -55.513137 
L 244.480762 -54.831738 
L 245.256403 -54.233035 
L 246.032044 -53.767436 
L 246.807685 -53.455839 
L 247.583326 -53.28559 
L 248.358967 -53.217829 
L 249.134608 -53.20277 
L 249.910249 -53.197244 
L 250.68589 -53.179246 
L 251.461531 -53.155818 
L 252.237172 -53.162174 
L 253.012813 -53.251334 
L 253.788454 -53.475891 
L 254.564095 -53.867092 
L 255.339736 -54.418954 
L 256.115377 -55.083932 
L 256.891018 -55.782075 
L 257.666659 -56.420637 
L 258.4423 -56.91833 
L 259.217941 -57.227835 
L 259.993582 -57.350534 
L 260.769223 -57.338394 
L 261.544864 -57.281028 
L 262.320505 -57.281227 
L 263.096146 -57.427592 
L 263.871787 -57.77427 
L 264.647428 -58.33415 
L 265.423069 -59.085631 
L 266.19871 -59.987658 
L 266.974351 -60.995607 
L 267.749992 -62.071546 
L 268.525633 -63.18544 
L 269.301274 -64.30832 
L 270.076915 -65.402733 
L 270.852556 -66.41788 
L 271.628197 -67.295057 
L 272.403838 -67.984032 
L 273.179479 -68.464866 
L 273.95512 -68.765211 
L 274.730761 -68.963215 
L 275.506402 -69.171058 
L 276.282043 -69.502141 
L 277.057684 -70.032236 
L 277.833325 -70.768952 
L 278.608966 -71.642454 
L 279.384607 -72.52337 
L 280.160248 -73.263248 
L 280.935889 -73.743495 
L 281.71153 -73.914828 
L 282.487171 -73.813252 
L 283.262812 -73.547983 
L 284.038453 -73.266992 
L 284.814094 -73.112616 
L 285.589735 -73.181788 
L 286.365376 -73.502765 
L 287.141017 -74.034113 
L 287.916658 -74.683534 
L 288.692299 -75.337454 
L 289.46794 -75.889869 
L 290.243581 -76.26212 
L 291.019222 -76.411462 
L 291.794863 -76.33143 
L 292.570504 -76.048483 
L 293.346145 -75.617465 
L 294.121786 -75.115624 
L 294.897427 -74.633254 
L 295.673068 -74.259244 
L 296.448709 -74.061777 
L 297.22435 -74.067821 
L 297.999991 -74.248621 
L 298.775632 -74.519322 
L 299.551273 -74.757424 
L 300.326914 -74.837699 
L 301.102555 -74.673579 
L 301.878196 -74.250392 
L 302.653837 -73.636709 
L 303.429478 -72.967163 
L 304.205119 -72.400954 
L 304.98076 -72.070293 
L 305.756401 -72.037399 
L 306.532042 -72.275615 
L 307.307683 -72.68114 
L 308.083324 -73.110527 
L 308.858965 -73.429672 
L 309.634606 -73.556158 
L 310.410247 -73.480212 
L 311.185888 -73.258594 
L 311.961529 -72.986414 
L 312.73717 -72.759713 
L 313.51281 -72.643731 
L 314.288451 -72.657658 
L 315.064092 -72.77888 
L 315.839733 -72.96175 
L 316.615374 -73.16081 
L 317.391015 -73.347903 
L 318.166656 -73.516571 
L 318.942297 -73.673789 
L 319.717938 -73.825337 
L 320.493579 -73.963898 
L 321.26922 -74.066585 
L 322.044861 -74.102825 
L 322.820502 -74.047968 
L 323.596143 -73.895585 
L 324.371784 -73.662349 
L 325.147425 -73.383014 
L 325.923066 -73.09746 
L 326.698707 -72.835616 
L 327.474348 -72.607229 
L 328.249989 -72.401333 
L 329.02563 -72.19576 
L 329.801271 -71.971965 
L 330.576912 -71.727822 
L 331.352553 -71.48217 
L 332.128194 -71.269366 
L 332.903835 -71.126836 
L 333.679476 -71.081166 
L 334.455117 -71.138277 
L 335.230758 -71.281213 
L 336.006399 -71.476152 
L 336.78204 -71.684057 
L 337.557681 -71.873002 
L 338.333322 -72.026096 
L 339.108963 -72.142376 
L 339.884604 -72.231839 
L 340.660245 -72.308532 
L 341.435886 -72.385677 
L 342.211527 -72.474718 
L 342.987168 -72.587268 
L 343.762809 -72.737124 
L 344.53845 -72.939579 
L 345.314091 -73.207129 
L 346.089732 -73.543227 
L 346.865373 -73.937523 
L 347.641014 -74.365535 
L 348.416655 -74.793597 
L 349.192296 -75.187618 
L 349.967937 -75.522734 
L 350.743578 -75.790292 
L 351.519219 -75.999027 
L 352.29486 -76.16924 
L 353.070501 -76.321998 
L 353.846142 -76.46815 
L 354.621783 -76.602361 
L 355.397424 -76.705004 
L 356.173065 -76.750983 
L 356.948706 -76.721948 
L 357.724347 -76.617463 
L 358.499988 -76.461065 
L 359.275629 -76.298347 
L 360.05127 -76.186673 
L 360.826911 -76.179549 
L 361.602552 -76.310842 
L 362.378193 -76.583808 
L 363.153834 -76.967757 
L 363.929475 -77.402976 
L 364.705116 -77.812882 
L 365.480757 -78.120974 
L 366.256398 -78.268618 
L 367.032039 -78.228743 
L 367.80768 -78.011504 
L 368.583321 -77.660569 
L 369.358962 -77.241391 
L 370.134603 -76.824422 
L 370.910244 -76.466928 
L 371.685885 -76.197626 
L 372.461526 -76.008503 
L 373.237167 -75.85711 
L 374.012808 -75.679666 
L 374.788449 -75.411343 
L 375.56409 -75.007352 
L 376.339731 -74.457923 
L 377.115372 -73.792187 
L 377.891013 -73.069699 
L 378.666654 -72.362723 
L 379.442295 -71.735718 
L 380.217936 -71.229302 
L 380.993577 -70.854221 
L 381.769218 -70.596969 
L 382.544859 -70.434052 
L 383.3205 -70.348376 
L 384.096141 -70.340511 
L 384.871782 -70.4298 
L 385.647423 -70.644741 
L 386.423064 -71.00704 
L 387.198705 -71.516682 
L 387.974346 -72.144724 
L 388.749987 -72.836724 
L 389.525628 -73.525086 
L 390.301269 -74.145524 
L 391.07691 -74.652184 
L 391.852551 -75.026856 
L 392.628192 -75.279643 
L 393.403833 -75.441308 
L 394.179474 -75.550836 
L 394.955115 -75.64372 
L 395.730756 -75.745382 
L 396.506397 -75.870623 
L 397.282038 -76.026735 
L 398.057679 -76.217067 
L 398.83332 -76.442802 
L 399.608961 -76.702227 
L 400.384602 -76.988237 
L 401.160243 -77.286046 
L 401.935884 -77.573489 
L 402.711525 -77.825217 
L 403.487166 -78.019867 
L 404.262807 -78.147267 
L 405.038448 -78.212418 
L 405.814089 -78.234414 
L 406.58973 -78.240426 
L 407.365371 -78.256815 
L 408.141012 -78.300822 
L 408.916653 -78.376169 
L 409.692294 -78.473579 
L 410.467935 -78.574363 
L 411.243576 -78.654356 
L 412.019217 -78.686952 
L 412.794858 -78.645579 
L 413.570499 -78.505847 
L 413.570499 -90.560161 
L 413.570499 -90.560161 
L 412.794858 -90.672933 
L 412.019217 -90.695777 
L 411.243576 -90.654824 
L 410.467935 -90.573725 
L 409.692294 -90.474474 
L 408.916653 -90.377479 
L 408.141012 -90.2988 
L 407.365371 -90.245979 
L 406.58973 -90.21513 
L 405.814089 -90.190901 
L 405.038448 -90.14978 
L 404.262807 -90.06653 
L 403.487166 -89.922311 
L 402.711525 -89.711464 
L 401.935884 -89.443677 
L 401.160243 -89.14039 
L 400.384602 -88.827444 
L 399.608961 -88.527681 
L 398.83332 -88.256463 
L 398.057679 -88.021075 
L 397.282038 -87.823024 
L 396.506397 -87.660861 
L 395.730756 -87.531046 
L 394.955115 -87.425787 
L 394.179474 -87.329095 
L 393.403833 -87.21396 
L 392.628192 -87.043586 
L 391.852551 -86.778254 
L 391.07691 -86.386844 
L 390.301269 -85.859445 
L 389.525628 -85.215848 
L 388.749987 -84.505299 
L 387.974346 -83.796021 
L 387.198705 -83.157604 
L 386.423064 -82.642959 
L 385.647423 -82.276877 
L 384.871782 -82.055247 
L 384.096141 -81.954523 
L 383.3205 -81.947098 
L 382.544859 -82.01616 
L 381.769218 -82.163816 
L 380.993577 -82.40888 
L 380.217936 -82.775167 
L 379.442295 -83.275298 
L 378.666654 -83.897096 
L 377.891013 -84.59861 
L 377.115372 -85.314358 
L 376.339731 -85.971257 
L 375.56409 -86.509223 
L 374.788449 -86.899313 
L 374.012808 -87.152494 
L 373.237167 -87.315337 
L 372.461526 -87.454145 
L 371.685885 -87.633311 
L 370.910244 -87.895102 
L 370.134603 -88.246783 
L 369.358962 -88.658213 
L 368.583321 -89.070108 
L 367.80768 -89.41045 
L 367.032039 -89.614196 
L 366.256398 -89.640376 
L 365.480757 -89.481947 
L 364.705116 -89.16686 
L 363.929475 -88.751589 
L 363.153834 -88.309288 
L 362.378193 -87.914559 
L 361.602552 -87.627343 
L 360.826911 -87.479749 
L 360.05127 -87.470057 
L 359.275629 -87.565961 
L 358.499988 -87.715596 
L 357.724347 -87.862471 
L 356.948706 -87.960057 
L 356.173065 -87.982363 
L 355.397424 -87.927575 
L 354.621783 -87.813392 
L 353.846142 -87.665684 
L 353.070501 -87.505191 
L 352.29486 -87.338155 
L 351.519219 -87.154601 
L 350.743578 -86.934168 
L 349.967937 -86.656364 
L 349.192296 -86.311068 
L 348.416655 -85.905336 
L 347.641014 -85.463683 
L 346.865373 -85.021415 
L 346.089732 -84.61381 
L 345.314091 -84.266042 
L 344.53845 -83.988052 
L 343.762809 -83.775681 
L 342.987168 -83.616077 
L 342.211527 -83.49378 
L 341.435886 -83.39459 
L 340.660245 -83.306354 
L 339.884604 -83.217742 
L 339.108963 -83.117039 
L 338.333322 -82.992799 
L 337.557681 -82.837084 
L 336.78204 -82.650384 
L 336.006399 -82.445958 
L 335.230758 -82.25065 
L 334.455117 -82.099962 
L 333.679476 -82.027692 
L 332.903835 -82.053832 
L 332.128194 -82.176413 
L 331.352553 -82.371839 
L 330.576912 -82.604126 
L 329.801271 -82.838912 
L 329.02563 -83.055891 
L 328.249989 -83.254406 
L 327.474348 -83.450005 
L 326.698707 -83.663453 
L 325.923066 -83.906947 
L 325.147425 -84.17379 
L 324.371784 -84.436829 
L 323.596143 -84.657187 
L 322.820502 -84.799561 
L 322.044861 -84.846527 
L 321.26922 -84.804483 
L 320.493579 -84.698477 
L 319.717938 -84.55898 
L 318.942297 -84.40777 
L 318.166656 -84.250293 
L 317.391015 -84.078665 
L 316.615374 -83.88395 
L 315.839733 -83.671183 
L 315.064092 -83.468403 
L 314.288451 -83.32298 
L 313.51281 -83.284292 
L 312.73717 -83.378951 
L 311.961529 -83.590033 
L 311.185888 -83.851839 
L 310.410247 -84.065782 
L 309.634606 -84.133656 
L 308.858965 -83.996367 
L 308.083324 -83.662801 
L 307.307683 -83.216085 
L 306.532042 -82.79232 
L 305.756401 -82.537383 
L 304.98076 -82.556938 
L 304.205119 -82.878538 
L 303.429478 -83.440265 
L 302.653837 -84.110064 
L 301.878196 -84.72841 
L 301.102555 -85.159003 
L 300.326914 -85.329949 
L 299.551273 -85.251913 
L 298.775632 -85.008513 
L 297.999991 -84.724463 
L 297.22435 -84.524362 
L 296.448709 -84.496713 
L 295.673068 -84.67373 
L 294.897427 -85.030265 
L 294.121786 -85.498067 
L 293.346145 -85.987335 
L 292.570504 -86.407304 
L 291.794863 -86.680894 
L 291.019222 -86.753119 
L 290.243581 -86.596296 
L 289.46794 -86.215078 
L 288.692299 -85.651069 
L 287.916658 -84.983046 
L 287.141017 -84.317873 
L 286.365376 -83.770065 
L 285.589735 -83.433007 
L 284.814094 -83.349625 
L 284.038453 -83.492914 
L 283.262812 -83.765678 
L 282.487171 -84.023478 
L 281.71153 -84.115946 
L 280.935889 -83.933235 
L 280.160248 -83.44089 
L 279.384607 -82.690167 
L 278.608966 -81.799997 
L 277.833325 -80.91725 
L 277.057684 -80.16949 
L 276.282043 -79.62638 
L 275.506402 -79.282069 
L 274.730761 -79.063095 
L 273.95512 -78.857192 
L 273.179479 -78.55142 
L 272.403838 -78.065621 
L 271.628197 -77.370138 
L 270.852556 -76.483868 
L 270.076915 -75.457108 
L 269.301274 -74.34927 
L 268.525633 -73.211876 
L 267.749992 -72.082807 
L 266.974351 -70.991401 
L 266.19871 -69.968621 
L 265.423069 -69.054249 
L 264.647428 -68.295008 
L 263.871787 -67.732697 
L 263.096146 -67.387063 
L 262.320505 -67.241384 
L 261.544864 -67.238093 
L 260.769223 -67.287676 
L 259.993582 -67.28877 
L 259.217941 -67.153458 
L 258.4423 -66.830213 
L 257.666659 -66.317445 
L 256.891018 -65.663135 
L 256.115377 -64.950142 
L 255.339736 -64.271916 
L 254.564095 -63.706993 
L 253.788454 -63.300593 
L 253.012813 -63.057974 
L 252.237172 -62.949622 
L 251.461531 -62.925266 
L 250.68589 -62.932416 
L 249.910249 -62.934502 
L 249.134608 -62.923438 
L 248.358967 -62.922325 
L 247.583326 -62.976885 
L 246.807685 -63.138576 
L 246.032044 -63.445665 
L 245.256403 -63.908795 
L 244.480762 -64.505454 
L 243.705121 -65.184657 
L 242.92948 -65.880561 
L 242.153839 -66.531483 
L 241.378198 -67.098948 
L 240.602557 -67.580401 
L 239.826916 -68.010341 
L 239.051275 -68.448686 
L 238.275634 -68.960886 
L 237.499993 -69.598045 
L 236.724352 -70.384617 
L 235.948711 -71.316909 
L 235.17307 -72.37086 
L 234.397429 -73.514772 
L 233.621788 -74.721761 
L 232.846147 -75.976979 
L 232.070506 -77.275765 
L 231.294865 -78.612468 
L 230.519224 -79.965159 
L 229.743583 -81.285282 
L 228.967942 -82.499885 
L 228.192301 -83.527752 
L 227.41666 -84.303709 
L 226.641019 -84.801531 
L 225.865378 -85.046263 
L 225.089737 -85.110328 
L 224.314096 -85.093115 
L 223.538455 -85.090032 
L 222.762814 -85.161705 
L 221.987173 -85.314374 
L 221.211532 -85.498067 
L 220.435891 -85.622676 
L 219.66025 -85.586368 
L 218.884609 -85.307259 
L 218.108968 -84.748064 
L 217.333327 -83.925406 
L 216.557686 -82.901499 
L 215.782045 -81.763614 
L 215.006404 -80.601369 
L 214.230763 -79.490409 
L 213.455122 -78.485388 
L 212.679481 -77.620185 
L 211.90384 -76.911475 
L 211.128199 -76.362023 
L 210.352558 -75.961307 
L 209.576917 -75.68345 
L 208.801276 -75.48549 
L 208.025635 -75.310364 
L 207.249994 -75.097062 
L 206.474353 -74.796139 
L 205.698712 -74.385197 
L 204.923071 -73.877839 
L 204.14743 -73.321303 
L 203.371789 -72.781937 
L 202.596148 -72.32281 
L 201.820507 -71.98228 
L 201.044866 -71.763009 
L 200.269225 -71.636092 
L 199.493584 -71.557817 
L 198.717943 -71.491502 
L 197.942302 -71.425888 
L 197.166661 -71.383353 
L 196.39102 -71.41408 
L 195.615379 -71.576493 
L 194.839738 -71.910249 
L 194.064097 -72.41329 
L 193.288456 -73.034711 
L 192.512815 -73.688512 
L 191.737174 -74.283352 
L 190.961533 -74.756307 
L 190.185892 -75.097702 
L 189.410251 -75.358222 
L 188.63461 -75.63573 
L 187.858969 -76.045735 
L 187.083328 -76.684961 
L 186.307687 -77.600191 
L 185.532046 -78.772927 
L 184.756405 -80.124839 
L 183.980764 -81.541878 
L 183.205123 -82.90874 
L 182.429482 -84.142039 
L 181.653841 -85.211258 
L 180.8782 -86.141206 
L 180.102559 -86.996752 
L 179.326918 -87.85701 
L 178.551277 -88.788516 
L 177.775636 -89.824997 
L 176.999995 -90.957387 
L 176.224354 -92.134553 
L 175.448713 -93.273679 
L 174.673072 -94.278431 
L 173.897431 -95.061904 
L 173.12179 -95.569506 
L 172.346149 -95.795777 
L 171.570508 -95.790041 
L 170.794867 -95.648595 
L 170.019226 -95.494517 
L 169.243585 -95.449031 
L 168.467944 -95.60035 
L 167.692303 -95.977463 
L 166.916662 -96.537123 
L 166.141021 -97.170705 
L 165.36538 -97.732341 
L 164.589739 -98.082144 
L 163.814098 -98.131335 
L 163.038457 -97.873446 
L 162.262816 -97.389532 
L 161.487175 -96.824551 
L 160.711534 -96.342606 
L 159.935893 -96.076269 
L 159.160252 -96.086911 
L 158.384611 -96.349052 
L 157.60897 -96.763619 
L 156.833329 -97.195175 
L 156.057688 -97.519674 
L 155.282047 -97.664926 
L 154.506406 -97.628387 
L 153.730765 -97.466287 
L 152.955124 -97.260592 
L 152.179483 -97.079208 
L 151.403842 -96.946671 
L 150.628201 -96.836647 
L 149.85256 -96.687916 
L 149.076919 -96.435745 
L 148.301278 -96.044578 
L 147.525637 -95.527855 
L 146.749996 -94.946728 
L 145.974355 -94.388868 
L 145.198714 -93.937227 
L 144.423073 -93.642633 
L 143.647432 -93.511784 
L 142.871791 -93.514747 
L 142.09615 -93.606837 
L 141.32051 -93.753297 
L 140.544869 -93.944627 
L 139.769228 -94.195579 
L 138.993587 -94.529131 
L 138.217946 -94.95391 
L 137.442305 -95.446637 
L 136.666664 -95.948858 
L 135.891023 -96.381027 
L 135.115382 -96.669334 
L 134.339741 -96.774547 
L 133.5641 -96.710511 
L 132.788459 -96.543852 
L 132.012818 -96.374315 
L 131.237177 -96.303047 
L 130.461536 -96.400844 
L 129.685895 -96.688134 
L 128.910254 -97.133531 
L 128.134613 -97.67019 
L 127.358972 -98.221954 
L 126.583331 -98.727558 
L 125.80769 -99.153294 
L 125.032049 -99.491249 
L 124.256408 -99.747269 
L 123.480767 -99.926562 
L 122.705126 -100.024359 
L 121.929485 -100.025841 
L 121.153844 -99.915405 
L 120.378203 -99.690957 
L 119.602562 -99.375836 
L 118.826921 -99.020741 
L 118.05128 -98.692327 
L 117.275639 -98.452111 
L 116.499998 -98.334878 
L 115.724357 -98.336445 
L 114.948716 -98.415919 
L 114.173075 -98.510607 
L 113.397434 -98.556645 
L 112.621793 -98.50724 
L 111.846152 -98.342746 
L 111.070511 -98.070719 
L 110.29487 -97.717821 
L 109.519229 -97.31791 
L 108.743588 -96.90146 
L 107.967947 -96.490272 
L 107.192306 -96.098372 
L 106.416665 -95.73639 
L 105.641024 -95.414875 
L 104.865383 -95.143441 
L 104.089742 -94.926416 
L 103.314101 -94.758726 
L 102.53846 -94.625485 
L 101.762819 -94.50623 
L 100.987178 -94.382441 
L 100.211537 -94.246131 
L 99.435896 -94.106572 
L 98.660255 -93.991542 
L 97.884614 -93.940336 
L 97.108973 -93.989363 
L 96.333332 -94.155954 
L 95.557691 -94.428477 
L 94.78205 -94.76805 
L 94.006409 -95.120751 
L 93.230768 -95.434087 
L 92.455127 -95.671007 
L 91.679486 -95.817857 
L 90.903845 -95.885824 
L 90.128204 -95.906684 
L 89.352563 -95.92417 
L 88.576922 -95.983423 
L 87.801281 -96.121933 
L 87.02564 -96.364142 
L 86.249999 -96.719092 
L 85.474358 -97.179151 
L 84.698717 -97.719457 
L 83.923076 -98.299953 
L 83.147435 -98.871517 
L 82.371794 -99.385224 
L 81.596153 -99.802301 
L 80.820512 -100.10313 
L 80.044871 -100.294151 
L 79.26923 -100.409563 
L 78.493589 -100.503384 
L 77.717948 -100.630999 
L 76.942307 -100.827042 
L 76.166666 -101.091743 
L 75.391025 -101.394207 
L 74.615384 -101.689967 
L 73.839743 -101.941944 
L 73.064102 -102.134822 
L 72.288461 -102.278739 
L 71.51282 -102.402635 
L 70.737179 -102.53927 
L 69.961538 -102.706455 
L 69.185897 -102.892993 
L 68.410256 -103.059126 
L 67.634615 -103.155067 
L 66.858974 -103.150013 
L 66.083333 -103.056654 
L 65.307692 -102.937817 
L 64.532051 -102.890512 
L 63.75641 -103.013319 
L 62.980769 -103.370557 
L 62.205128 -103.967295 
L 61.429487 -104.743893 
L 60.653846 -105.591281 
L 59.878205 -106.381763 
L 59.102564 -107.005938 
L 58.326923 -107.404254 
L 57.551282 -107.582116 
L 56.775641 -107.602202 
L 56 -107.557002 
z
" style="stroke: #377eb8; stroke-opacity: 0.3"/>
    </defs>
    <g clip-path="url(#pf072bf9101)">
     <use xlink:href="#m8718c082d1" x="0" y="360" style="fill: #377eb8; fill-opacity: 0.3; stroke: #377eb8; stroke-opacity: 0.3"/>
    </g>
   </g>
   <g id="patch_3">
    <path d="M 234.552557 318.04 
L 234.552557 71.732 
L 333.834605 71.732 
L 333.834605 318.04 
z
" clip-path="url(#pf072bf9101)" style="fill: #808080; opacity: 0.3"/>
   </g>
   <g id="matplotlib.axis_1">
    <g id="xtick_1">
     <g id="line2d_1">
      <defs>
       <path id="me0224483a3" d="M 0 0 
L 0 3.5 
" style="stroke: #000000; stroke-width: 0.8"/>
      </defs>
      <g>
       <use xlink:href="#me0224483a3" x="95.557691" y="318.04" style="stroke: #000000; stroke-width: 0.8"/>
      </g>
     </g>
     <g id="text_1">
      <!-- 0.0 -->
      <g transform="translate(87.606128 332.638438)scale(0.1 -0.1)">
       <defs>
        <path id="DejaVuSans-30" d="M 2034 4250 
Q 1547 4250 1301 3770 
Q 1056 3291 1056 2328 
Q 1056 1369 1301 889 
Q 1547 409 2034 409 
Q 2525 409 2770 889 
Q 3016 1369 3016 2328 
Q 3016 3291 2770 3770 
Q 2525 4250 2034 4250 
z
M 2034 4750 
Q 2819 4750 3233 4129 
Q 3647 3509 3647 2328 
Q 3647 1150 3233 529 
Q 2819 -91 2034 -91 
Q 1250 -91 836 529 
Q 422 1150 422 2328 
Q 422 3509 836 4129 
Q 1250 4750 2034 4750 
z
" transform="scale(0.015625)"/>
        <path id="DejaVuSans-2e" d="M 684 794 
L 1344 794 
L 1344 0 
L 684 0 
L 684 794 
z
" transform="scale(0.015625)"/>
       </defs>
       <use xlink:href="#DejaVuSans-30"/>
       <use xlink:href="#DejaVuSans-2e" x="63.623047"/>
       <use xlink:href="#DejaVuSans-30" x="95.410156"/>
      </g>
     </g>
    </g>
    <g id="xtick_2">
     <g id="line2d_2">
      <g>
       <use xlink:href="#me0224483a3" x="174.983329" y="318.04" style="stroke: #000000; stroke-width: 0.8"/>
      </g>
     </g>
     <g id="text_2">
      <!-- 0.2 -->
      <g transform="translate(167.031766 332.638438)scale(0.1 -0.1)">
       <defs>
        <path id="DejaVuSans-32" d="M 1228 531 
L 3431 531 
L 3431 0 
L 469 0 
L 469 531 
Q 828 903 1448 1529 
Q 2069 2156 2228 2338 
Q 2531 2678 2651 2914 
Q 2772 3150 2772 3378 
Q 2772 3750 2511 3984 
Q 2250 4219 1831 4219 
Q 1534 4219 1204 4116 
Q 875 4013 500 3803 
L 500 4441 
Q 881 4594 1212 4672 
Q 1544 4750 1819 4750 
Q 2544 4750 2975 4387 
Q 3406 4025 3406 3419 
Q 3406 3131 3298 2873 
Q 3191 2616 2906 2266 
Q 2828 2175 2409 1742 
Q 1991 1309 1228 531 
z
" transform="scale(0.015625)"/>
       </defs>
       <use xlink:href="#DejaVuSans-30"/>
       <use xlink:href="#DejaVuSans-2e" x="63.623047"/>
       <use xlink:href="#DejaVuSans-32" x="95.410156"/>
      </g>
     </g>
    </g>
    <g id="xtick_3">
     <g id="line2d_3">
      <g>
       <use xlink:href="#me0224483a3" x="254.408967" y="318.04" style="stroke: #000000; stroke-width: 0.8"/>
      </g>
     </g>
     <g id="text_3">
      <!-- 0.4 -->
      <g transform="translate(246.457404 332.638438)scale(0.1 -0.1)">
       <defs>
        <path id="DejaVuSans-34" d="M 2419 4116 
L 825 1625 
L 2419 1625 
L 2419 4116 
z
M 2253 4666 
L 3047 4666 
L 3047 1625 
L 3713 1625 
L 3713 1100 
L 3047 1100 
L 3047 0 
L 2419 0 
L 2419 1100 
L 313 1100 
L 313 1709 
L 2253 4666 
z
" transform="scale(0.015625)"/>
       </defs>
       <use xlink:href="#DejaVuSans-30"/>
       <use xlink:href="#DejaVuSans-2e" x="63.623047"/>
       <use xlink:href="#DejaVuSans-34" x="95.410156"/>
      </g>
     </g>
    </g>
    <g id="xtick_4">
     <g id="line2d_4">
      <g>
       <use xlink:href="#me0224483a3" x="333.834605" y="318.04" style="stroke: #000000; stroke-width: 0.8"/>
      </g>
     </g>
     <g id="text_4">
      <!-- 0.6 -->
      <g transform="translate(325.883042 332.638438)scale(0.1 -0.1)">
       <defs>
        <path id="DejaVuSans-36" d="M 2113 2584 
Q 1688 2584 1439 2293 
Q 1191 2003 1191 1497 
Q 1191 994 1439 701 
Q 1688 409 2113 409 
Q 2538 409 2786 701 
Q 3034 994 3034 1497 
Q 3034 2003 2786 2293 
Q 2538 2584 2113 2584 
z
M 3366 4563 
L 3366 3988 
Q 3128 4100 2886 4159 
Q 2644 4219 2406 4219 
Q 1781 4219 1451 3797 
Q 1122 3375 1075 2522 
Q 1259 2794 1537 2939 
Q 1816 3084 2150 3084 
Q 2853 3084 3261 2657 
Q 3669 2231 3669 1497 
Q 3669 778 3244 343 
Q 2819 -91 2113 -91 
Q 1303 -91 875 529 
Q 447 1150 447 2328 
Q 447 3434 972 4092 
Q 1497 4750 2381 4750 
Q 2619 4750 2861 4703 
Q 3103 4656 3366 4563 
z
" transform="scale(0.015625)"/>
       </defs>
       <use xlink:href="#DejaVuSans-30"/>
       <use xlink:href="#DejaVuSans-2e" x="63.623047"/>
       <use xlink:href="#DejaVuSans-36" x="95.410156"/>
      </g>
     </g>
    </g>
    <g id="xtick_5">
     <g id="line2d_5">
      <g>
       <use xlink:href="#me0224483a3" x="413.260243" y="318.04" style="stroke: #000000; stroke-width: 0.8"/>
      </g>
     </g>
     <g id="text_5">
      <!-- 0.8 -->
      <g transform="translate(405.30868 332.638438)scale(0.1 -0.1)">
       <defs>
        <path id="DejaVuSans-38" d="M 2034 2216 
Q 1584 2216 1326 1975 
Q 1069 1734 1069 1313 
Q 1069 891 1326 650 
Q 1584 409 2034 409 
Q 2484 409 2743 651 
Q 3003 894 3003 1313 
Q 3003 1734 2745 1975 
Q 2488 2216 2034 2216 
z
M 1403 2484 
Q 997 2584 770 2862 
Q 544 3141 544 3541 
Q 544 4100 942 4425 
Q 1341 4750 2034 4750 
Q 2731 4750 3128 4425 
Q 3525 4100 3525 3541 
Q 3525 3141 3298 2862 
Q 3072 2584 2669 2484 
Q 3125 2378 3379 2068 
Q 3634 1759 3634 1313 
Q 3634 634 3220 271 
Q 2806 -91 2034 -91 
Q 1263 -91 848 271 
Q 434 634 434 1313 
Q 434 1759 690 2068 
Q 947 2378 1403 2484 
z
M 1172 3481 
Q 1172 3119 1398 2916 
Q 1625 2713 2034 2713 
Q 2441 2713 2670 2916 
Q 2900 3119 2900 3481 
Q 2900 3844 2670 4047 
Q 2441 4250 2034 4250 
Q 1625 4250 1398 4047 
Q 1172 3844 1172 3481 
z
" transform="scale(0.015625)"/>
       </defs>
       <use xlink:href="#DejaVuSans-30"/>
       <use xlink:href="#DejaVuSans-2e" x="63.623047"/>
       <use xlink:href="#DejaVuSans-38" x="95.410156"/>
      </g>
     </g>
    </g>
    <g id="text_6">
     <!-- seconds -->
     <g transform="translate(214.347749 346.316563)scale(0.1 -0.1)">
      <defs>
       <path id="DejaVuSans-73" d="M 2834 3397 
L 2834 2853 
Q 2591 2978 2328 3040 
Q 2066 3103 1784 3103 
Q 1356 3103 1142 2972 
Q 928 2841 928 2578 
Q 928 2378 1081 2264 
Q 1234 2150 1697 2047 
L 1894 2003 
Q 2506 1872 2764 1633 
Q 3022 1394 3022 966 
Q 3022 478 2636 193 
Q 2250 -91 1575 -91 
Q 1294 -91 989 -36 
Q 684 19 347 128 
L 347 722 
Q 666 556 975 473 
Q 1284 391 1588 391 
Q 1994 391 2212 530 
Q 2431 669 2431 922 
Q 2431 1156 2273 1281 
Q 2116 1406 1581 1522 
L 1381 1569 
Q 847 1681 609 1914 
Q 372 2147 372 2553 
Q 372 3047 722 3315 
Q 1072 3584 1716 3584 
Q 2034 3584 2315 3537 
Q 2597 3491 2834 3397 
z
" transform="scale(0.015625)"/>
       <path id="DejaVuSans-65" d="M 3597 1894 
L 3597 1613 
L 953 1613 
Q 991 1019 1311 708 
Q 1631 397 2203 397 
Q 2534 397 2845 478 
Q 3156 559 3463 722 
L 3463 178 
Q 3153 47 2828 -22 
Q 2503 -91 2169 -91 
Q 1331 -91 842 396 
Q 353 884 353 1716 
Q 353 2575 817 3079 
Q 1281 3584 2069 3584 
Q 2775 3584 3186 3129 
Q 3597 2675 3597 1894 
z
M 3022 2063 
Q 3016 2534 2758 2815 
Q 2500 3097 2075 3097 
Q 1594 3097 1305 2825 
Q 1016 2553 972 2059 
L 3022 2063 
z
" transform="scale(0.015625)"/>
       <path id="DejaVuSans-63" d="M 3122 3366 
L 3122 2828 
Q 2878 2963 2633 3030 
Q 2388 3097 2138 3097 
Q 1578 3097 1268 2742 
Q 959 2388 959 1747 
Q 959 1106 1268 751 
Q 1578 397 2138 397 
Q 2388 397 2633 464 
Q 2878 531 3122 666 
L 3122 134 
Q 2881 22 2623 -34 
Q 2366 -91 2075 -91 
Q 1284 -91 818 406 
Q 353 903 353 1747 
Q 353 2603 823 3093 
Q 1294 3584 2113 3584 
Q 2378 3584 2631 3529 
Q 2884 3475 3122 3366 
z
" transform="scale(0.015625)"/>
       <path id="DejaVuSans-6f" d="M 1959 3097 
Q 1497 3097 1228 2736 
Q 959 2375 959 1747 
Q 959 1119 1226 758 
Q 1494 397 1959 397 
Q 2419 397 2687 759 
Q 2956 1122 2956 1747 
Q 2956 2369 2687 2733 
Q 2419 3097 1959 3097 
z
M 1959 3584 
Q 2709 3584 3137 3096 
Q 3566 2609 3566 1747 
Q 3566 888 3137 398 
Q 2709 -91 1959 -91 
Q 1206 -91 779 398 
Q 353 888 353 1747 
Q 353 2609 779 3096 
Q 1206 3584 1959 3584 
z
" transform="scale(0.015625)"/>
       <path id="DejaVuSans-6e" d="M 3513 2113 
L 3513 0 
L 2938 0 
L 2938 2094 
Q 2938 2591 2744 2837 
Q 2550 3084 2163 3084 
Q 1697 3084 1428 2787 
Q 1159 2491 1159 1978 
L 1159 0 
L 581 0 
L 581 3500 
L 1159 3500 
L 1159 2956 
Q 1366 3272 1645 3428 
Q 1925 3584 2291 3584 
Q 2894 3584 3203 3211 
Q 3513 2838 3513 2113 
z
" transform="scale(0.015625)"/>
       <path id="DejaVuSans-64" d="M 2906 2969 
L 2906 4863 
L 3481 4863 
L 3481 0 
L 2906 0 
L 2906 525 
Q 2725 213 2448 61 
Q 2172 -91 1784 -91 
Q 1150 -91 751 415 
Q 353 922 353 1747 
Q 353 2572 751 3078 
Q 1150 3584 1784 3584 
Q 2172 3584 2448 3432 
Q 2725 3281 2906 2969 
z
M 947 1747 
Q 947 1113 1208 752 
Q 1469 391 1925 391 
Q 2381 391 2643 752 
Q 2906 1113 2906 1747 
Q 2906 2381 2643 2742 
Q 2381 3103 1925 3103 
Q 1469 3103 1208 2742 
Q 947 2381 947 1747 
z
" transform="scale(0.015625)"/>
      </defs>
      <use xlink:href="#DejaVuSans-73"/>
      <use xlink:href="#DejaVuSans-65" x="52.099609"/>
      <use xlink:href="#DejaVuSans-63" x="113.623047"/>
      <use xlink:href="#DejaVuSans-6f" x="168.603516"/>
      <use xlink:href="#DejaVuSans-6e" x="229.785156"/>
      <use xlink:href="#DejaVuSans-64" x="293.164062"/>
      <use xlink:href="#DejaVuSans-73" x="356.640625"/>
     </g>
    </g>
   </g>
   <g id="matplotlib.axis_2">
    <g id="ytick_1">
     <g id="line2d_6">
      <defs>
       <path id="m5e0dfc974b" d="M 0 0 
L -3.5 0 
" style="stroke: #000000; stroke-width: 0.8"/>
      </defs>
      <g>
       <use xlink:href="#m5e0dfc974b" x="56" y="290.453534" style="stroke: #000000; stroke-width: 0.8"/>
      </g>
     </g>
     <g id="text_7">
      <!-- 0.5 -->
      <g transform="translate(24.717188 294.252752)scale(0.1 -0.1)">
       <defs>
        <path id="DejaVuSans-2212" d="M 678 2272 
L 4684 2272 
L 4684 1741 
L 678 1741 
L 678 2272 
z
" transform="scale(0.015625)"/>
        <path id="DejaVuSans-35" d="M 691 4666 
L 3169 4666 
L 3169 4134 
L 1269 4134 
L 1269 2991 
Q 1406 3038 1543 3061 
Q 1681 3084 1819 3084 
Q 2600 3084 3056 2656 
Q 3513 2228 3513 1497 
Q 3513 744 3044 326 
Q 2575 -91 1722 -91 
Q 1428 -91 1123 -41 
Q 819 9 494 109 
L 494 744 
Q 775 591 1075 516 
Q 1375 441 1709 441 
Q 2250 441 2565 725 
Q 2881 1009 2881 1497 
Q 2881 1984 2565 2268 
Q 2250 2553 1709 2553 
Q 1456 2553 1204 2497 
Q 953 2441 691 2322 
L 691 4666 
z
" transform="scale(0.015625)"/>
       </defs>
       <use xlink:href="#DejaVuSans-2212"/>
       <use xlink:href="#DejaVuSans-30" x="83.789062"/>
       <use xlink:href="#DejaVuSans-2e" x="147.412109"/>
       <use xlink:href="#DejaVuSans-35" x="179.199219"/>
      </g>
     </g>
    </g>
    <g id="ytick_2">
     <g id="line2d_7">
      <g>
       <use xlink:href="#m5e0dfc974b" x="56" y="261.471285" style="stroke: #000000; stroke-width: 0.8"/>
      </g>
     </g>
     <g id="text_8">
      <!-- 0.0 -->
      <g transform="translate(33.096875 265.270504)scale(0.1 -0.1)">
       <use xlink:href="#DejaVuSans-30"/>
       <use xlink:href="#DejaVuSans-2e" x="63.623047"/>
       <use xlink:href="#DejaVuSans-30" x="95.410156"/>
      </g>
     </g>
    </g>
    <g id="ytick_3">
     <g id="line2d_8">
      <g>
       <use xlink:href="#m5e0dfc974b" x="56" y="232.489037" style="stroke: #000000; stroke-width: 0.8"/>
      </g>
     </g>
     <g id="text_9">
      <!-- 0.5 -->
      <g transform="translate(33.096875 236.288255)scale(0.1 -0.1)">
       <use xlink:href="#DejaVuSans-30"/>
       <use xlink:href="#DejaVuSans-2e" x="63.623047"/>
       <use xlink:href="#DejaVuSans-35" x="95.410156"/>
      </g>
     </g>
    </g>
    <g id="ytick_4">
     <g id="line2d_9">
      <g>
       <use xlink:href="#m5e0dfc974b" x="56" y="203.506788" style="stroke: #000000; stroke-width: 0.8"/>
      </g>
     </g>
     <g id="text_10">
      <!-- 1.0 -->
      <g transform="translate(33.096875 207.306007)scale(0.1 -0.1)">
       <defs>
        <path id="DejaVuSans-31" d="M 794 531 
L 1825 531 
L 1825 4091 
L 703 3866 
L 703 4441 
L 1819 4666 
L 2450 4666 
L 2450 531 
L 3481 531 
L 3481 0 
L 794 0 
L 794 531 
z
" transform="scale(0.015625)"/>
       </defs>
       <use xlink:href="#DejaVuSans-31"/>
       <use xlink:href="#DejaVuSans-2e" x="63.623047"/>
       <use xlink:href="#DejaVuSans-30" x="95.410156"/>
      </g>
     </g>
    </g>
    <g id="ytick_5">
     <g id="line2d_10">
      <g>
       <use xlink:href="#m5e0dfc974b" x="56" y="174.52454" style="stroke: #000000; stroke-width: 0.8"/>
      </g>
     </g>
     <g id="text_11">
      <!-- 1.5 -->
      <g transform="translate(33.096875 178.323758)scale(0.1 -0.1)">
       <use xlink:href="#DejaVuSans-31"/>
       <use xlink:href="#DejaVuSans-2e" x="63.623047"/>
       <use xlink:href="#DejaVuSans-35" x="95.410156"/>
      </g>
     </g>
    </g>
    <g id="ytick_6">
     <g id="line2d_11">
      <g>
       <use xlink:href="#m5e0dfc974b" x="56" y="145.542291" style="stroke: #000000; stroke-width: 0.8"/>
      </g>
     </g>
     <g id="text_12">
      <!-- 2.0 -->
      <g transform="translate(33.096875 149.34151)scale(0.1 -0.1)">
       <use xlink:href="#DejaVuSans-32"/>
       <use xlink:href="#DejaVuSans-2e" x="63.623047"/>
       <use xlink:href="#DejaVuSans-30" x="95.410156"/>
      </g>
     </g>
    </g>
    <g id="ytick_7">
     <g id="line2d_12">
      <g>
       <use xlink:href="#m5e0dfc974b" x="56" y="116.560043" style="stroke: #000000; stroke-width: 0.8"/>
      </g>
     </g>
     <g id="text_13">
      <!-- 2.5 -->
      <g transform="translate(33.096875 120.359261)scale(0.1 -0.1)">
       <use xlink:href="#DejaVuSans-32"/>
       <use xlink:href="#DejaVuSans-2e" x="63.623047"/>
       <use xlink:href="#DejaVuSans-35" x="95.410156"/>
      </g>
     </g>
    </g>
    <g id="ytick_8">
     <g id="line2d_13">
      <g>
       <use xlink:href="#m5e0dfc974b" x="56" y="87.577794" style="stroke: #000000; stroke-width: 0.8"/>
      </g>
     </g>
     <g id="text_14">
      <!-- 3.0 -->
      <g transform="translate(33.096875 91.377013)scale(0.1 -0.1)">
       <defs>
        <path id="DejaVuSans-33" d="M 2597 2516 
Q 3050 2419 3304 2112 
Q 3559 1806 3559 1356 
Q 3559 666 3084 287 
Q 2609 -91 1734 -91 
Q 1441 -91 1130 -33 
Q 819 25 488 141 
L 488 750 
Q 750 597 1062 519 
Q 1375 441 1716 441 
Q 2309 441 2620 675 
Q 2931 909 2931 1356 
Q 2931 1769 2642 2001 
Q 2353 2234 1838 2234 
L 1294 2234 
L 1294 2753 
L 1863 2753 
Q 2328 2753 2575 2939 
Q 2822 3125 2822 3475 
Q 2822 3834 2567 4026 
Q 2313 4219 1838 4219 
Q 1578 4219 1281 4162 
Q 984 4106 628 3988 
L 628 4550 
Q 988 4650 1302 4700 
Q 1616 4750 1894 4750 
Q 2613 4750 3031 4423 
Q 3450 4097 3450 3541 
Q 3450 3153 3228 2886 
Q 3006 2619 2597 2516 
z
" transform="scale(0.015625)"/>
       </defs>
       <use xlink:href="#DejaVuSans-33"/>
       <use xlink:href="#DejaVuSans-2e" x="63.623047"/>
       <use xlink:href="#DejaVuSans-30" x="95.410156"/>
      </g>
     </g>
    </g>
    <g id="text_15">
     <!-- V -->
     <g transform="translate(18.6375 201.487562)rotate(-90)scale(0.1 -0.1)">
      <defs>
       <path id="DejaVuSans-b5" d="M 544 -1331 
L 544 3500 
L 1119 3500 
L 1119 1325 
Q 1119 872 1334 640 
Q 1550 409 1972 409 
Q 2434 409 2667 671 
Q 2900 934 2900 1459 
L 2900 3500 
L 3475 3500 
L 3475 806 
Q 3475 619 3529 530 
Q 3584 441 3700 441 
Q 3728 441 3778 458 
Q 3828 475 3916 513 
L 3916 50 
Q 3788 -22 3673 -56 
Q 3559 -91 3450 -91 
Q 3234 -91 3106 31 
Q 2978 153 2931 403 
Q 2775 156 2548 32 
Q 2322 -91 2016 -91 
Q 1697 -91 1473 31 
Q 1250 153 1119 397 
L 1119 -1331 
L 544 -1331 
z
" transform="scale(0.015625)"/>
       <path id="DejaVuSans-56" d="M 1831 0 
L 50 4666 
L 709 4666 
L 2188 738 
L 3669 4666 
L 4325 4666 
L 2547 0 
L 1831 0 
z
" transform="scale(0.015625)"/>
      </defs>
      <use xlink:href="#DejaVuSans-b5"/>
      <use xlink:href="#DejaVuSans-56" x="63.623047"/>
     </g>
    </g>
   </g>
   <g id="line2d_14">
    <path d="M 56 264.620736 
L 56.775641 265.264218 
L 59.102564 267.689022 
L 59.878205 268.172756 
L 60.653846 268.22778 
L 61.429487 267.759689 
L 62.205128 266.765024 
L 63.75641 263.709453 
L 64.532051 262.12186 
L 65.307692 260.865134 
L 66.083333 260.162698 
L 66.858974 260.119013 
L 67.634615 260.683944 
L 69.961538 263.584096 
L 70.737179 263.938679 
L 71.51282 263.662033 
L 72.288461 262.786593 
L 74.615384 258.859025 
L 75.391025 258.05162 
L 76.166666 257.786838 
L 76.942307 258.043225 
L 77.717948 258.679062 
L 79.26923 260.241136 
L 80.044871 260.785316 
L 80.820512 261.034453 
L 81.596153 260.996036 
L 83.147435 260.398029 
L 84.698717 259.801963 
L 86.249999 259.62955 
L 89.352563 259.648922 
L 90.903845 259.293489 
L 94.78205 257.990752 
L 95.557691 257.983601 
L 96.333332 258.174821 
L 97.108973 258.585148 
L 98.660255 259.93311 
L 100.211537 261.30302 
L 100.987178 261.646432 
L 101.762819 261.608332 
L 102.53846 261.148126 
L 103.314101 260.304557 
L 106.416665 255.85138 
L 107.192306 255.213357 
L 107.967947 254.928103 
L 108.743588 254.98243 
L 109.519229 255.324819 
L 111.070511 256.571153 
L 112.621793 257.989752 
L 113.397434 258.535981 
L 114.173075 258.858804 
L 114.948716 258.897542 
L 115.724357 258.632224 
L 116.499998 258.094574 
L 120.378203 254.466189 
L 122.705126 252.842783 
L 125.032049 251.027236 
L 125.80769 250.726906 
L 126.583331 250.76122 
L 127.358972 251.154665 
L 128.134613 251.840709 
L 129.685895 253.506824 
L 130.461536 254.192677 
L 132.012818 255.062476 
L 132.788459 255.437282 
L 133.5641 255.972375 
L 134.339741 256.777131 
L 135.891023 259.131066 
L 137.442305 261.462392 
L 138.217946 262.172582 
L 138.993587 262.48058 
L 139.769228 262.452907 
L 142.09615 261.840526 
L 143.647432 261.714539 
L 144.423073 261.499335 
L 145.198714 260.991855 
L 145.974355 260.133516 
L 149.076919 255.709054 
L 149.85256 255.248321 
L 150.628201 255.124955 
L 152.179483 255.070711 
L 152.955124 254.646771 
L 153.730765 253.742652 
L 154.506406 252.364782 
L 157.60897 245.747676 
L 158.384611 244.718588 
L 159.160252 244.035601 
L 159.935893 243.617773 
L 161.487175 243.226301 
L 164.589739 242.805311 
L 165.36538 242.416374 
L 166.141021 241.7381 
L 166.916662 240.750045 
L 169.243585 237.282349 
L 170.019226 236.758123 
L 170.794867 236.877435 
L 171.570508 237.633982 
L 173.897431 241.322653 
L 174.673072 241.961532 
L 175.448713 241.990408 
L 176.224354 241.485875 
L 177.775636 239.890179 
L 178.551277 239.376916 
L 179.326918 239.288881 
L 180.102559 239.604693 
L 181.653841 240.687414 
L 182.429482 240.956707 
L 183.205123 240.798911 
L 183.980764 240.174709 
L 184.756405 239.166856 
L 187.083328 235.592542 
L 187.858969 234.757946 
L 188.63461 234.244773 
L 189.410251 234.055652 
L 190.185892 234.155603 
L 190.961533 234.485081 
L 194.064097 236.40685 
L 194.839738 236.593903 
L 195.615379 236.553776 
L 196.39102 236.302975 
L 197.942302 235.399811 
L 199.493584 234.276583 
L 200.269225 233.586038 
L 201.044866 232.68508 
L 201.820507 231.464036 
L 202.596148 229.855499 
L 204.14743 225.63693 
L 205.698712 221.214429 
L 206.474353 219.464541 
L 207.249994 218.200191 
L 208.025635 217.402618 
L 210.352558 215.936397 
L 211.128199 214.954373 
L 211.90384 213.481702 
L 213.455122 209.414401 
L 215.006404 205.481475 
L 215.782045 204.215157 
L 216.557686 203.578564 
L 217.333327 203.50506 
L 219.66025 204.310845 
L 220.435891 204.062633 
L 221.211532 203.338677 
L 221.987173 202.2098 
L 224.314096 198.287272 
L 225.089737 197.354427 
L 226.641019 196.117457 
L 228.192301 194.879635 
L 229.743583 193.076157 
L 230.519224 192.136903 
L 231.294865 191.373414 
L 232.070506 190.91496 
L 232.846147 190.816805 
L 233.621788 191.041047 
L 235.948711 192.264783 
L 236.724352 192.337802 
L 237.499993 192.083687 
L 238.275634 191.502633 
L 239.051275 190.652762 
L 242.153839 186.687638 
L 242.92948 186.024224 
L 245.256403 184.606007 
L 246.032044 183.811728 
L 246.807685 182.557483 
L 247.583326 180.746893 
L 248.358967 178.404102 
L 251.461531 167.788031 
L 252.237172 165.900536 
L 253.788454 163.077318 
L 254.564095 161.679472 
L 255.339736 159.976457 
L 256.115377 157.856162 
L 259.993582 145.639245 
L 261.544864 142.665204 
L 263.096146 139.95619 
L 264.647428 136.54842 
L 266.974351 131.036792 
L 269.301274 126.482493 
L 270.852556 123.224906 
L 276.282043 110.36989 
L 277.833325 107.345602 
L 279.384607 104.730855 
L 280.935889 102.659901 
L 282.487171 101.07325 
L 283.262812 100.445022 
L 284.038453 99.967089 
L 284.814094 99.699594 
L 285.589735 99.695788 
L 286.365376 99.964078 
L 288.692299 101.371394 
L 289.46794 101.439754 
L 290.243581 101.050828 
L 291.019222 100.190584 
L 292.570504 97.595326 
L 293.346145 96.305116 
L 294.121786 95.299304 
L 294.897427 94.683626 
L 295.673068 94.449949 
L 296.448709 94.497056 
L 301.102555 95.645411 
L 301.878196 96.188772 
L 302.653837 96.966372 
L 305.756401 100.809848 
L 306.532042 101.465662 
L 307.307683 101.91667 
L 308.858965 102.364545 
L 311.185888 102.748895 
L 312.73717 103.297659 
L 313.51281 103.736 
L 315.064092 105.009619 
L 316.615374 106.790315 
L 318.166656 108.932153 
L 319.717938 111.33195 
L 321.26922 114.067788 
L 322.820502 117.25711 
L 325.923066 124.087286 
L 326.698707 125.431539 
L 327.474348 126.44021 
L 328.249989 127.049638 
L 329.02563 127.242913 
L 329.801271 127.063457 
L 331.352553 126.066464 
L 332.128194 125.593282 
L 332.903835 125.372653 
L 333.679476 125.529197 
L 334.455117 126.110053 
L 335.230758 127.075575 
L 338.333322 132.110207 
L 339.108963 133.020057 
L 339.884604 133.699626 
L 341.435886 134.590981 
L 343.762809 135.762074 
L 346.865373 137.556979 
L 347.641014 137.76609 
L 348.416655 137.752468 
L 349.192296 137.477007 
L 349.967937 136.945407 
L 352.29486 134.766833 
L 353.070501 134.362745 
L 353.846142 134.336957 
L 354.621783 134.693356 
L 356.948706 136.426228 
L 357.724347 136.428189 
L 358.499988 135.869767 
L 359.275629 134.789227 
L 361.602552 130.620641 
L 362.378193 129.760182 
L 363.153834 129.366603 
L 363.929475 129.360688 
L 366.256398 129.982209 
L 368.583321 130.195736 
L 369.358962 130.499243 
L 371.685885 131.869474 
L 372.461526 131.854497 
L 373.237167 131.30568 
L 374.012808 130.209379 
L 376.339731 125.569869 
L 377.115372 124.47104 
L 377.891013 123.876973 
L 378.666654 123.745183 
L 380.993577 124.303997 
L 381.769218 124.263894 
L 384.096141 123.74519 
L 384.871782 123.886316 
L 385.647423 124.29945 
L 387.974346 126.158488 
L 388.749987 126.475895 
L 389.525628 126.469436 
L 390.301269 126.14145 
L 391.07691 125.555564 
L 394.955115 121.768696 
L 395.730756 121.259421 
L 396.506397 120.923929 
L 397.282038 120.773975 
L 399.608961 120.863274 
L 400.384602 120.643858 
L 401.160243 120.06677 
L 401.935884 119.08536 
L 404.262807 115.026515 
L 405.038448 114.147031 
L 405.814089 113.88835 
L 406.58973 114.298583 
L 407.365371 115.252844 
L 408.916653 117.666501 
L 409.692294 118.50429 
L 410.467935 118.828174 
L 411.243576 118.634728 
L 413.570499 116.865849 
L 413.570499 116.865849 
" clip-path="url(#pf072bf9101)" style="fill: none; stroke: #e41a1c; stroke-width: 1.5; stroke-linecap: square"/>
   </g>
   <g id="line2d_15">
    <path d="M 56 255.088439 
L 57.551282 254.955049 
L 58.326923 255.083157 
L 59.102564 255.435813 
L 59.878205 256.020016 
L 62.980769 258.914654 
L 63.75641 259.246464 
L 64.532051 259.34934 
L 68.410256 259.126915 
L 73.839743 260.20117 
L 78.493589 261.616885 
L 80.820512 262.034687 
L 81.596153 262.336627 
L 83.147435 263.283811 
L 86.249999 265.503654 
L 87.801281 266.1409 
L 89.352563 266.386312 
L 91.679486 266.582832 
L 93.230768 267.04392 
L 97.108973 268.738455 
L 98.660255 268.836499 
L 102.53846 268.354096 
L 104.089742 268.104171 
L 105.641024 267.661083 
L 107.967947 266.644304 
L 111.070511 265.137152 
L 112.621793 264.731828 
L 114.173075 264.754835 
L 116.499998 264.969088 
L 117.275639 264.868251 
L 118.826921 264.339279 
L 120.378203 263.703034 
L 121.929485 263.393709 
L 123.480767 263.523327 
L 125.032049 263.987723 
L 126.583331 264.773681 
L 129.685895 266.862816 
L 130.461536 267.166143 
L 131.237177 267.280675 
L 132.788459 267.072476 
L 134.339741 266.874275 
L 135.115382 266.997036 
L 135.891023 267.303927 
L 137.442305 268.277012 
L 138.993587 269.231624 
L 140.544869 269.851862 
L 142.09615 270.223597 
L 143.647432 270.341018 
L 144.423073 270.216693 
L 145.198714 269.928316 
L 146.749996 268.939312 
L 148.301278 267.873448 
L 149.076919 267.49867 
L 150.628201 267.124669 
L 152.955124 266.729318 
L 154.506406 266.383567 
L 155.282047 266.357998 
L 156.057688 266.512268 
L 157.60897 267.281398 
L 158.384611 267.702639 
L 159.160252 267.972286 
L 159.935893 267.990639 
L 160.711534 267.7319 
L 163.038457 266.231762 
L 163.814098 265.987504 
L 164.589739 266.049872 
L 165.36538 266.411164 
L 168.467944 268.572068 
L 169.243585 268.726211 
L 170.794867 268.531849 
L 171.570508 268.396829 
L 172.346149 268.401101 
L 173.12179 268.63957 
L 173.897431 269.159633 
L 174.673072 269.954892 
L 176.224354 272.122124 
L 178.551277 275.49546 
L 182.429482 280.17527 
L 183.980764 282.795409 
L 185.532046 285.575193 
L 186.307687 286.752366 
L 187.083328 287.672383 
L 187.858969 288.316976 
L 188.63461 288.733328 
L 190.961533 289.644596 
L 192.512815 290.739116 
L 194.064097 292.030684 
L 194.839738 292.539145 
L 195.615379 292.878378 
L 196.39102 293.046344 
L 197.942302 293.044463 
L 201.044866 292.741875 
L 201.820507 292.530142 
L 203.371789 291.743282 
L 205.698712 290.169395 
L 207.249994 289.475979 
L 210.352558 288.633827 
L 211.128199 288.239927 
L 211.90384 287.698707 
L 212.679481 286.999329 
L 214.230763 285.146597 
L 217.333327 280.729716 
L 218.108968 279.912211 
L 218.884609 279.357295 
L 219.66025 279.081276 
L 220.435891 279.048108 
L 224.314096 279.605698 
L 225.865378 279.657173 
L 226.641019 279.903165 
L 227.41666 280.40207 
L 228.192301 281.17921 
L 228.967942 282.208712 
L 230.519224 284.751544 
L 233.621788 290.032857 
L 235.17307 292.398958 
L 236.724352 294.400862 
L 238.275634 295.837226 
L 239.826916 296.801674 
L 241.378198 297.728086 
L 242.92948 298.953749 
L 245.256403 300.929085 
L 246.032044 301.39345 
L 246.807685 301.702792 
L 248.358967 301.929923 
L 252.237172 301.944102 
L 253.012813 301.845346 
L 253.788454 301.611758 
L 254.564095 301.212957 
L 256.115377 299.982963 
L 257.666659 298.630959 
L 258.4423 298.125729 
L 259.217941 297.809354 
L 259.993582 297.680348 
L 262.320505 297.738695 
L 263.096146 297.592672 
L 263.871787 297.246516 
L 264.647428 296.685421 
L 266.19871 295.021861 
L 268.525633 291.801342 
L 270.852556 288.549126 
L 271.628197 287.667402 
L 272.403838 286.975173 
L 273.179479 286.491857 
L 274.730761 285.986845 
L 275.506402 285.773436 
L 276.282043 285.43574 
L 277.057684 284.899137 
L 278.608966 283.278775 
L 280.160248 281.647931 
L 280.935889 281.161635 
L 281.71153 280.984613 
L 282.487171 281.081635 
L 284.814094 281.768879 
L 285.589735 281.692603 
L 286.365376 281.363585 
L 287.916658 280.16671 
L 289.46794 278.947527 
L 290.243581 278.570792 
L 291.019222 278.417709 
L 291.794863 278.493838 
L 292.570504 278.772106 
L 295.673068 280.533513 
L 296.448709 280.720755 
L 297.22435 280.703909 
L 298.775632 280.236082 
L 299.551273 279.995331 
L 300.326914 279.916176 
L 301.102555 280.083709 
L 301.878196 280.510599 
L 304.205119 282.360254 
L 304.98076 282.686384 
L 305.756401 282.712609 
L 306.532042 282.466032 
L 308.858965 281.28698 
L 309.634606 281.155093 
L 310.410247 281.227003 
L 313.51281 282.035989 
L 315.064092 281.876358 
L 319.717938 280.807841 
L 321.26922 280.564466 
L 322.820502 280.576235 
L 324.371784 280.950411 
L 327.474348 281.971383 
L 332.903835 283.409666 
L 334.455117 283.380881 
L 336.78204 282.832779 
L 339.108963 282.370293 
L 343.762809 281.743597 
L 345.314091 281.263415 
L 346.865373 280.520531 
L 349.192296 279.250657 
L 350.743578 278.63777 
L 353.070501 278.086405 
L 355.397424 277.683711 
L 356.948706 277.658998 
L 360.826911 278.170351 
L 361.602552 278.030908 
L 363.153834 277.361478 
L 364.705116 276.510129 
L 365.480757 276.19854 
L 366.256398 276.045503 
L 367.032039 276.078531 
L 367.80768 276.289023 
L 369.358962 277.050198 
L 370.910244 277.818985 
L 372.461526 278.268676 
L 374.012808 278.58392 
L 374.788449 278.844672 
L 375.56409 279.241713 
L 377.115372 280.446727 
L 379.442295 282.494492 
L 380.217936 282.997765 
L 381.769218 283.619607 
L 383.3205 283.852263 
L 384.871782 283.757477 
L 385.647423 283.539191 
L 386.423064 283.175001 
L 387.974346 282.029628 
L 390.301269 279.997515 
L 391.07691 279.480486 
L 391.852551 279.097445 
L 393.403833 278.672366 
L 397.282038 278.075121 
L 399.608961 277.385046 
L 403.487166 276.028911 
L 405.038448 275.818901 
L 409.692294 275.525974 
L 412.019217 275.308636 
L 413.570499 275.466996 
L 413.570499 275.466996 
" clip-path="url(#pf072bf9101)" style="fill: none; stroke: #377eb8; stroke-width: 1.5; stroke-linecap: square"/>
   </g>
   <g id="line2d_16">
    <path d="M 95.557691 318.04 
L 95.557691 71.732 
" clip-path="url(#pf072bf9101)" style="fill: none; stroke: #000000; stroke-width: 0.5; stroke-linecap: square"/>
   </g>
   <g id="line2d_17">
    <path d="M 56 261.471285 
L 413.570499 261.471285 
" clip-path="url(#pf072bf9101)" style="fill: none; stroke: #000000; stroke-width: 0.5; stroke-linecap: square"/>
   </g>
   <g id="patch_4">
    <path d="M 56 318.04 
L 56 71.732 
" style="fill: none; stroke: #000000; stroke-width: 0.8; stroke-linejoin: miter; stroke-linecap: square"/>
   </g>
   <g id="patch_5">
    <path d="M 413.570499 318.04 
L 413.570499 71.732 
" style="fill: none; stroke: #000000; stroke-width: 0.8; stroke-linejoin: miter; stroke-linecap: square"/>
   </g>
   <g id="patch_6">
    <path d="M 56 318.04 
L 413.570499 318.04 
" style="fill: none; stroke: #000000; stroke-width: 0.8; stroke-linejoin: miter; stroke-linecap: square"/>
   </g>
   <g id="patch_7">
    <path d="M 56 71.732 
L 413.570499 71.732 
" style="fill: none; stroke: #000000; stroke-width: 0.8; stroke-linejoin: miter; stroke-linecap: square"/>
   </g>
   <g id="text_16">
    <!-- Cz -->
    <g transform="translate(227.446499 65.732)scale(0.12 -0.12)">
     <defs>
      <path id="DejaVuSans-43" d="M 4122 4306 
L 4122 3641 
Q 3803 3938 3442 4084 
Q 3081 4231 2675 4231 
Q 1875 4231 1450 3742 
Q 1025 3253 1025 2328 
Q 1025 1406 1450 917 
Q 1875 428 2675 428 
Q 3081 428 3442 575 
Q 3803 722 4122 1019 
L 4122 359 
Q 3791 134 3420 21 
Q 3050 -91 2638 -91 
Q 1578 -91 968 557 
Q 359 1206 359 2328 
Q 359 3453 968 4101 
Q 1578 4750 2638 4750 
Q 3056 4750 3426 4639 
Q 3797 4528 4122 4306 
z
" transform="scale(0.015625)"/>
      <path id="DejaVuSans-7a" d="M 353 3500 
L 3084 3500 
L 3084 2975 
L 922 459 
L 3084 459 
L 3084 0 
L 275 0 
L 275 525 
L 2438 3041 
L 353 3041 
L 353 3500 
z
" transform="scale(0.015625)"/>
     </defs>
     <use xlink:href="#DejaVuSans-43"/>
     <use xlink:href="#DejaVuSans-7a" x="69.824219"/>
    </g>
   </g>
   <g id="legend_1">
    <g id="patch_8">
     <path d="M 95.014156 48.500845 
L 374.556343 48.500845 
Q 376.556343 48.500845 376.556343 46.500845 
L 376.556343 18.144595 
Q 376.556343 16.144595 374.556343 16.144595 
L 95.014156 16.144595 
Q 93.014156 16.144595 93.014156 18.144595 
L 93.014156 46.500845 
Q 93.014156 48.500845 95.014156 48.500845 
z
" style="fill: #ffffff; opacity: 0.8; stroke: #cccccc; stroke-linejoin: miter"/>
    </g>
    <g id="text_17">
     <!-- Average of Session all -->
     <g transform="translate(179.746187 27.743033)scale(0.1 -0.1)">
      <defs>
       <path id="DejaVuSans-41" d="M 2188 4044 
L 1331 1722 
L 3047 1722 
L 2188 4044 
z
M 1831 4666 
L 2547 4666 
L 4325 0 
L 3669 0 
L 3244 1197 
L 1141 1197 
L 716 0 
L 50 0 
L 1831 4666 
z
" transform="scale(0.015625)"/>
       <path id="DejaVuSans-76" d="M 191 3500 
L 800 3500 
L 1894 563 
L 2988 3500 
L 3597 3500 
L 2284 0 
L 1503 0 
L 191 3500 
z
" transform="scale(0.015625)"/>
       <path id="DejaVuSans-72" d="M 2631 2963 
Q 2534 3019 2420 3045 
Q 2306 3072 2169 3072 
Q 1681 3072 1420 2755 
Q 1159 2438 1159 1844 
L 1159 0 
L 581 0 
L 581 3500 
L 1159 3500 
L 1159 2956 
Q 1341 3275 1631 3429 
Q 1922 3584 2338 3584 
Q 2397 3584 2469 3576 
Q 2541 3569 2628 3553 
L 2631 2963 
z
" transform="scale(0.015625)"/>
       <path id="DejaVuSans-61" d="M 2194 1759 
Q 1497 1759 1228 1600 
Q 959 1441 959 1056 
Q 959 750 1161 570 
Q 1363 391 1709 391 
Q 2188 391 2477 730 
Q 2766 1069 2766 1631 
L 2766 1759 
L 2194 1759 
z
M 3341 1997 
L 3341 0 
L 2766 0 
L 2766 531 
Q 2569 213 2275 61 
Q 1981 -91 1556 -91 
Q 1019 -91 701 211 
Q 384 513 384 1019 
Q 384 1609 779 1909 
Q 1175 2209 1959 2209 
L 2766 2209 
L 2766 2266 
Q 2766 2663 2505 2880 
Q 2244 3097 1772 3097 
Q 1472 3097 1187 3025 
Q 903 2953 641 2809 
L 641 3341 
Q 956 3463 1253 3523 
Q 1550 3584 1831 3584 
Q 2591 3584 2966 3190 
Q 3341 2797 3341 1997 
z
" transform="scale(0.015625)"/>
       <path id="DejaVuSans-67" d="M 2906 1791 
Q 2906 2416 2648 2759 
Q 2391 3103 1925 3103 
Q 1463 3103 1205 2759 
Q 947 2416 947 1791 
Q 947 1169 1205 825 
Q 1463 481 1925 481 
Q 2391 481 2648 825 
Q 2906 1169 2906 1791 
z
M 3481 434 
Q 3481 -459 3084 -895 
Q 2688 -1331 1869 -1331 
Q 1566 -1331 1297 -1286 
Q 1028 -1241 775 -1147 
L 775 -588 
Q 1028 -725 1275 -790 
Q 1522 -856 1778 -856 
Q 2344 -856 2625 -561 
Q 2906 -266 2906 331 
L 2906 616 
Q 2728 306 2450 153 
Q 2172 0 1784 0 
Q 1141 0 747 490 
Q 353 981 353 1791 
Q 353 2603 747 3093 
Q 1141 3584 1784 3584 
Q 2172 3584 2450 3431 
Q 2728 3278 2906 2969 
L 2906 3500 
L 3481 3500 
L 3481 434 
z
" transform="scale(0.015625)"/>
       <path id="DejaVuSans-20" transform="scale(0.015625)"/>
       <path id="DejaVuSans-66" d="M 2375 4863 
L 2375 4384 
L 1825 4384 
Q 1516 4384 1395 4259 
Q 1275 4134 1275 3809 
L 1275 3500 
L 2222 3500 
L 2222 3053 
L 1275 3053 
L 1275 0 
L 697 0 
L 697 3053 
L 147 3053 
L 147 3500 
L 697 3500 
L 697 3744 
Q 697 4328 969 4595 
Q 1241 4863 1831 4863 
L 2375 4863 
z
" transform="scale(0.015625)"/>
       <path id="DejaVuSans-53" d="M 3425 4513 
L 3425 3897 
Q 3066 4069 2747 4153 
Q 2428 4238 2131 4238 
Q 1616 4238 1336 4038 
Q 1056 3838 1056 3469 
Q 1056 3159 1242 3001 
Q 1428 2844 1947 2747 
L 2328 2669 
Q 3034 2534 3370 2195 
Q 3706 1856 3706 1288 
Q 3706 609 3251 259 
Q 2797 -91 1919 -91 
Q 1588 -91 1214 -16 
Q 841 59 441 206 
L 441 856 
Q 825 641 1194 531 
Q 1563 422 1919 422 
Q 2459 422 2753 634 
Q 3047 847 3047 1241 
Q 3047 1584 2836 1778 
Q 2625 1972 2144 2069 
L 1759 2144 
Q 1053 2284 737 2584 
Q 422 2884 422 3419 
Q 422 4038 858 4394 
Q 1294 4750 2059 4750 
Q 2388 4750 2728 4690 
Q 3069 4631 3425 4513 
z
" transform="scale(0.015625)"/>
       <path id="DejaVuSans-69" d="M 603 3500 
L 1178 3500 
L 1178 0 
L 603 0 
L 603 3500 
z
M 603 4863 
L 1178 4863 
L 1178 4134 
L 603 4134 
L 603 4863 
z
" transform="scale(0.015625)"/>
       <path id="DejaVuSans-6c" d="M 603 4863 
L 1178 4863 
L 1178 0 
L 603 0 
L 603 4863 
z
" transform="scale(0.015625)"/>
      </defs>
      <use xlink:href="#DejaVuSans-41"/>
      <use xlink:href="#DejaVuSans-76" x="62.533203"/>
      <use xlink:href="#DejaVuSans-65" x="121.712891"/>
      <use xlink:href="#DejaVuSans-72" x="183.236328"/>
      <use xlink:href="#DejaVuSans-61" x="224.349609"/>
      <use xlink:href="#DejaVuSans-67" x="285.628906"/>
      <use xlink:href="#DejaVuSans-65" x="349.105469"/>
      <use xlink:href="#DejaVuSans-20" x="410.628906"/>
      <use xlink:href="#DejaVuSans-6f" x="442.416016"/>
      <use xlink:href="#DejaVuSans-66" x="503.597656"/>
      <use xlink:href="#DejaVuSans-20" x="538.802734"/>
      <use xlink:href="#DejaVuSans-53" x="570.589844"/>
      <use xlink:href="#DejaVuSans-65" x="634.066406"/>
      <use xlink:href="#DejaVuSans-73" x="695.589844"/>
      <use xlink:href="#DejaVuSans-73" x="747.689453"/>
      <use xlink:href="#DejaVuSans-69" x="799.789062"/>
      <use xlink:href="#DejaVuSans-6f" x="827.572266"/>
      <use xlink:href="#DejaVuSans-6e" x="888.753906"/>
      <use xlink:href="#DejaVuSans-20" x="952.132812"/>
      <use xlink:href="#DejaVuSans-61" x="983.919922"/>
      <use xlink:href="#DejaVuSans-6c" x="1045.199219"/>
      <use xlink:href="#DejaVuSans-6c" x="1072.982422"/>
     </g>
    </g>
    <g id="line2d_18">
     <path d="M 97.014156 38.921158 
L 107.014156 38.921158 
L 117.014156 38.921158 
" style="fill: none; stroke: #e41a1c; stroke-width: 1.5; stroke-linecap: square"/>
    </g>
    <g id="text_18">
     <!-- Target (n=11815) -->
     <g transform="translate(125.014156 42.421158)scale(0.1 -0.1)">
      <defs>
       <path id="DejaVuSans-54" d="M -19 4666 
L 3928 4666 
L 3928 4134 
L 2272 4134 
L 2272 0 
L 1638 0 
L 1638 4134 
L -19 4134 
L -19 4666 
z
" transform="scale(0.015625)"/>
       <path id="DejaVuSans-74" d="M 1172 4494 
L 1172 3500 
L 2356 3500 
L 2356 3053 
L 1172 3053 
L 1172 1153 
Q 1172 725 1289 603 
Q 1406 481 1766 481 
L 2356 481 
L 2356 0 
L 1766 0 
Q 1100 0 847 248 
Q 594 497 594 1153 
L 594 3053 
L 172 3053 
L 172 3500 
L 594 3500 
L 594 4494 
L 1172 4494 
z
" transform="scale(0.015625)"/>
       <path id="DejaVuSans-28" d="M 1984 4856 
Q 1566 4138 1362 3434 
Q 1159 2731 1159 2009 
Q 1159 1288 1364 580 
Q 1569 -128 1984 -844 
L 1484 -844 
Q 1016 -109 783 600 
Q 550 1309 550 2009 
Q 550 2706 781 3412 
Q 1013 4119 1484 4856 
L 1984 4856 
z
" transform="scale(0.015625)"/>
       <path id="DejaVuSans-3d" d="M 678 2906 
L 4684 2906 
L 4684 2381 
L 678 2381 
L 678 2906 
z
M 678 1631 
L 4684 1631 
L 4684 1100 
L 678 1100 
L 678 1631 
z
" transform="scale(0.015625)"/>
       <path id="DejaVuSans-29" d="M 513 4856 
L 1013 4856 
Q 1481 4119 1714 3412 
Q 1947 2706 1947 2009 
Q 1947 1309 1714 600 
Q 1481 -109 1013 -844 
L 513 -844 
Q 928 -128 1133 580 
Q 1338 1288 1338 2009 
Q 1338 2731 1133 3434 
Q 928 4138 513 4856 
z
" transform="scale(0.015625)"/>
      </defs>
      <use xlink:href="#DejaVuSans-54"/>
      <use xlink:href="#DejaVuSans-61" x="44.583984"/>
      <use xlink:href="#DejaVuSans-72" x="105.863281"/>
      <use xlink:href="#DejaVuSans-67" x="145.226562"/>
      <use xlink:href="#DejaVuSans-65" x="208.703125"/>
      <use xlink:href="#DejaVuSans-74" x="270.226562"/>
      <use xlink:href="#DejaVuSans-20" x="309.435547"/>
      <use xlink:href="#DejaVuSans-28" x="341.222656"/>
      <use xlink:href="#DejaVuSans-6e" x="380.236328"/>
      <use xlink:href="#DejaVuSans-3d" x="443.615234"/>
      <use xlink:href="#DejaVuSans-31" x="527.404297"/>
      <use xlink:href="#DejaVuSans-31" x="591.027344"/>
      <use xlink:href="#DejaVuSans-38" x="654.650391"/>
      <use xlink:href="#DejaVuSans-31" x="718.273438"/>
      <use xlink:href="#DejaVuSans-35" x="781.896484"/>
      <use xlink:href="#DejaVuSans-29" x="845.519531"/>
     </g>
    </g>
    <g id="line2d_19">
     <path d="M 233.468843 38.921158 
L 243.468843 38.921158 
L 253.468843 38.921158 
" style="fill: none; stroke: #377eb8; stroke-width: 1.5; stroke-linecap: square"/>
    </g>
    <g id="text_19">
     <!-- Non-Target (n=59233) -->
     <g transform="translate(261.468843 42.421158)scale(0.1 -0.1)">
      <defs>
       <path id="DejaVuSans-4e" d="M 628 4666 
L 1478 4666 
L 3547 763 
L 3547 4666 
L 4159 4666 
L 4159 0 
L 3309 0 
L 1241 3903 
L 1241 0 
L 628 0 
L 628 4666 
z
" transform="scale(0.015625)"/>
       <path id="DejaVuSans-2d" d="M 313 2009 
L 1997 2009 
L 1997 1497 
L 313 1497 
L 313 2009 
z
" transform="scale(0.015625)"/>
       <path id="DejaVuSans-39" d="M 703 97 
L 703 672 
Q 941 559 1184 500 
Q 1428 441 1663 441 
Q 2288 441 2617 861 
Q 2947 1281 2994 2138 
Q 2813 1869 2534 1725 
Q 2256 1581 1919 1581 
Q 1219 1581 811 2004 
Q 403 2428 403 3163 
Q 403 3881 828 4315 
Q 1253 4750 1959 4750 
Q 2769 4750 3195 4129 
Q 3622 3509 3622 2328 
Q 3622 1225 3098 567 
Q 2575 -91 1691 -91 
Q 1453 -91 1209 -44 
Q 966 3 703 97 
z
M 1959 2075 
Q 2384 2075 2632 2365 
Q 2881 2656 2881 3163 
Q 2881 3666 2632 3958 
Q 2384 4250 1959 4250 
Q 1534 4250 1286 3958 
Q 1038 3666 1038 3163 
Q 1038 2656 1286 2365 
Q 1534 2075 1959 2075 
z
" transform="scale(0.015625)"/>
      </defs>
      <use xlink:href="#DejaVuSans-4e"/>
      <use xlink:href="#DejaVuSans-6f" x="74.804688"/>
      <use xlink:href="#DejaVuSans-6e" x="135.986328"/>
      <use xlink:href="#DejaVuSans-2d" x="199.365234"/>
      <use xlink:href="#DejaVuSans-54" x="226.324219"/>
      <use xlink:href="#DejaVuSans-61" x="270.908203"/>
      <use xlink:href="#DejaVuSans-72" x="332.1875"/>
      <use xlink:href="#DejaVuSans-67" x="371.550781"/>
      <use xlink:href="#DejaVuSans-65" x="435.027344"/>
      <use xlink:href="#DejaVuSans-74" x="496.550781"/>
      <use xlink:href="#DejaVuSans-20" x="535.759766"/>
      <use xlink:href="#DejaVuSans-28" x="567.546875"/>
      <use xlink:href="#DejaVuSans-6e" x="606.560547"/>
      <use xlink:href="#DejaVuSans-3d" x="669.939453"/>
      <use xlink:href="#DejaVuSans-35" x="753.728516"/>
      <use xlink:href="#DejaVuSans-39" x="817.351562"/>
      <use xlink:href="#DejaVuSans-32" x="880.974609"/>
      <use xlink:href="#DejaVuSans-33" x="944.597656"/>
      <use xlink:href="#DejaVuSans-33" x="1008.220703"/>
      <use xlink:href="#DejaVuSans-29" x="1071.84375"/>
     </g>
    </g>
   </g>
  </g>
 </g>
 <defs>
  <clipPath id="pf072bf9101">
   <rect x="56" y="71.732" width="357.570499" height="246.308"/>
  </clipPath>
 </defs>
</svg>
