<?xml version="1.0" encoding="utf-8" standalone="no"?>
<!DOCTYPE svg PUBLIC "-//W3C//DTD SVG 1.1//EN"
  "http://www.w3.org/Graphics/SVG/1.1/DTD/svg11.dtd">
<svg xmlns:xlink="http://www.w3.org/1999/xlink" width="432pt" height="360pt" viewBox="0 0 432 360" xmlns="http://www.w3.org/2000/svg" version="1.1">
 <metadata>
  <rdf:RDF xmlns:dc="http://purl.org/dc/elements/1.1/" xmlns:cc="http://creativecommons.org/ns#" xmlns:rdf="http://www.w3.org/1999/02/22-rdf-syntax-ns#">
   <cc:Work>
    <dc:type rdf:resource="http://purl.org/dc/dcmitype/StillImage"/>
    <dc:date>2022-11-03T08:30:28.762364</dc:date>
    <dc:format>image/svg+xml</dc:format>
    <dc:creator>
     <cc:Agent>
      <dc:title>Matplotlib v3.5.1, https://matplotlib.org/</dc:title>
     </cc:Agent>
    </dc:creator>
   </cc:Work>
  </rdf:RDF>
 </metadata>
 <defs>
  <style type="text/css">*{stroke-linejoin: round; stroke-linecap: butt}</style>
 </defs>
 <g id="figure_1">
  <g id="patch_1">
   <path d="M 0 360 
L 432 360 
L 432 0 
L 0 0 
L 0 360 
z
" style="fill: none"/>
  </g>
  <g id="axes_1">
   <g id="patch_2">
    <path d="M 56.05 318.2 
L 413.615499 318.2 
L 413.615499 71.241125 
L 56.05 71.241125 
L 56.05 318.2 
z
" style="fill: none"/>
   </g>
   <g id="PolyCollection_1">
    <defs>
     <path id="m47e14f17a2" d="M 56.05 -114.366695 
L 56.05 -94.78752 
L 56.82563 -93.712482 
L 57.60126 -92.25889 
L 58.37689 -90.769001 
L 59.152521 -89.608998 
L 59.928151 -89.054134 
L 60.703781 -89.213085 
L 61.479411 -90.017164 
L 62.255041 -91.25761 
L 63.030671 -92.643783 
L 63.806301 -93.872923 
L 64.581932 -94.707663 
L 65.357562 -95.040475 
L 66.133192 -94.913142 
L 66.908822 -94.478798 
L 67.684452 -93.932096 
L 68.460082 -93.44671 
L 69.235713 -93.136398 
L 70.011343 -93.035294 
L 70.786973 -93.099137 
L 71.562603 -93.235917 
L 72.338233 -93.354674 
L 73.113863 -93.394783 
L 73.889493 -93.313161 
L 74.665124 -93.059746 
L 75.440754 -92.590334 
L 76.216384 -91.919061 
L 76.992014 -91.155757 
L 77.767644 -90.479922 
L 78.543274 -90.069898 
L 79.318904 -90.04704 
L 80.094535 -90.46225 
L 80.870165 -91.290676 
L 81.645795 -92.40283 
L 82.421425 -93.551545 
L 83.197055 -94.433714 
L 83.972685 -94.822037 
L 84.748316 -94.688871 
L 85.523946 -94.225624 
L 86.299576 -93.735086 
L 87.075206 -93.474602 
L 87.850836 -93.543367 
L 88.626466 -93.85399 
L 89.402096 -94.181525 
L 90.177727 -94.265255 
L 90.953357 -93.929912 
L 91.728987 -93.178796 
L 92.504617 -92.209761 
L 93.280247 -91.338347 
L 94.055877 -90.864764 
L 94.831507 -90.951755 
L 95.607138 -91.564635 
L 96.382768 -92.482792 
L 97.158398 -93.366713 
L 97.934028 -93.862954 
L 98.709658 -93.721664 
L 99.485288 -92.887041 
L 100.260919 -91.522643 
L 101.036549 -89.955932 
L 101.812179 -88.561439 
L 102.587809 -87.634993 
L 103.363439 -87.319214 
L 104.139069 -87.609959 
L 104.914699 -88.422455 
L 105.69033 -89.660796 
L 106.46596 -91.242221 
L 107.24159 -93.069766 
L 108.01722 -94.985693 
L 108.79285 -96.74697 
L 109.56848 -98.047657 
L 110.34411 -98.589854 
L 111.119741 -98.185366 
L 111.895371 -96.852263 
L 112.671001 -94.857135 
L 113.446631 -92.663123 
L 114.222261 -90.78647 
L 114.997891 -89.617511 
L 115.773522 -89.284354 
L 116.549152 -89.61282 
L 117.324782 -90.19126 
L 118.100412 -90.518301 
L 118.876042 -90.194543 
L 119.651672 -89.099358 
L 120.427302 -87.480859 
L 121.202933 -85.904638 
L 121.978563 -85.062918 
L 122.754193 -85.516844 
L 123.529823 -87.482155 
L 124.305453 -90.743574 
L 125.081083 -94.718558 
L 125.856713 -98.632819 
L 126.632344 -101.74274 
L 127.407974 -103.536836 
L 128.183604 -103.858148 
L 128.959234 -102.912414 
L 129.734864 -101.164783 
L 130.510494 -99.170297 
L 131.286125 -97.407904 
L 132.061755 -96.176314 
L 132.837385 -95.570375 
L 133.613015 -95.518505 
L 134.388645 -95.847853 
L 135.164275 -96.350369 
L 135.939905 -96.833329 
L 136.715536 -97.145632 
L 137.491166 -97.180481 
L 138.266796 -96.868277 
L 139.042426 -96.181315 
L 139.818056 -95.160341 
L 140.593686 -93.945656 
L 141.369316 -92.77874 
L 142.144947 -91.954816 
L 142.920577 -91.738947 
L 143.696207 -92.278765 
L 144.471837 -93.545557 
L 145.247467 -95.322783 
L 146.023097 -97.248546 
L 146.798727 -98.90684 
L 147.574358 -99.946477 
L 148.349988 -100.189893 
L 149.125618 -99.690753 
L 149.901248 -98.717091 
L 150.676878 -97.66602 
L 151.452508 -96.940134 
L 152.228139 -96.826338 
L 153.003769 -97.415954 
L 153.779399 -98.592364 
L 154.555029 -100.090167 
L 155.330659 -101.603281 
L 156.106289 -102.899931 
L 156.881919 -103.900387 
L 157.65755 -104.689743 
L 158.43318 -105.465054 
L 159.20881 -106.441911 
L 159.98444 -107.760549 
L 160.76007 -109.429595 
L 161.5357 -111.326605 
L 162.31133 -113.248557 
L 163.086961 -114.987139 
L 163.862591 -116.398656 
L 164.638221 -117.442795 
L 165.413851 -118.175518 
L 166.189481 -118.700018 
L 166.965111 -119.101529 
L 167.740742 -119.402196 
L 168.516372 -119.558764 
L 169.292002 -119.495999 
L 170.067632 -119.148613 
L 170.843262 -118.490699 
L 171.618892 -117.549028 
L 172.394522 -116.403067 
L 173.170153 -115.170985 
L 173.945783 -113.981292 
L 174.721413 -112.938865 
L 175.497043 -112.100642 
L 176.272673 -111.470093 
L 177.048303 -111.005404 
L 177.823933 -110.630881 
L 178.599564 -110.248099 
L 179.375194 -109.750605 
L 180.150824 -109.045111 
L 180.926454 -108.078149 
L 181.702084 -106.865341 
L 182.477714 -105.516921 
L 183.253345 -104.244918 
L 184.028975 -103.332962 
L 184.804605 -103.061808 
L 185.580235 -103.610642 
L 186.355865 -104.974918 
L 187.131495 -106.936751 
L 187.907125 -109.098548 
L 188.682756 -110.967726 
L 189.458386 -112.072662 
L 190.234016 -112.08704 
L 191.009646 -110.931556 
L 191.785276 -108.816244 
L 192.560906 -106.197526 
L 193.336536 -103.653811 
L 194.112167 -101.719548 
L 194.887797 -100.738515 
L 195.663427 -100.78874 
L 196.439057 -101.699404 
L 197.214687 -103.143863 
L 197.990317 -104.768526 
L 198.765948 -106.310073 
L 199.541578 -107.662355 
L 200.317208 -108.875543 
L 201.092838 -110.096306 
L 201.868468 -111.478836 
L 202.644098 -113.104313 
L 203.419728 -114.938466 
L 204.195359 -116.838511 
L 204.970989 -118.60106 
L 205.746619 -120.029119 
L 206.522249 -120.993621 
L 207.297879 -121.472919 
L 208.073509 -121.565643 
L 208.849139 -121.479345 
L 209.62477 -121.497475 
L 210.4004 -121.92589 
L 211.17603 -123.022753 
L 211.95166 -124.923549 
L 212.72729 -127.582009 
L 213.50292 -130.750202 
L 214.27855 -134.012915 
L 215.054181 -136.876133 
L 215.829811 -138.89165 
L 216.605441 -139.7838 
L 217.381071 -139.53698 
L 218.156701 -138.410642 
L 218.932331 -136.871115 
L 219.707962 -135.457609 
L 220.483592 -134.622175 
L 221.259222 -134.593945 
L 222.034852 -135.315348 
L 222.810482 -136.479697 
L 223.586112 -137.664134 
L 224.361742 -138.508537 
L 225.137373 -138.862793 
L 225.913003 -138.834653 
L 226.688633 -138.720023 
L 227.464263 -138.855252 
L 228.239893 -139.46235 
L 229.015523 -140.551634 
L 229.791153 -141.913509 
L 230.566784 -143.193571 
L 231.342414 -144.019049 
L 232.118044 -144.132373 
L 232.893674 -143.486003 
L 233.669304 -142.263738 
L 234.444934 -140.819278 
L 235.220565 -139.555973 
L 235.996195 -138.796974 
L 236.771825 -138.697763 
L 237.547455 -139.230067 
L 238.323085 -140.231233 
L 239.098715 -141.486842 
L 239.874345 -142.808602 
L 240.649976 -144.081593 
L 241.425606 -145.273352 
L 242.201236 -146.412751 
L 242.976866 -147.555208 
L 243.752496 -148.752752 
L 244.528126 -150.04223 
L 245.303756 -151.451957 
L 246.079387 -153.012201 
L 246.855017 -154.750314 
L 247.630647 -156.663281 
L 248.406277 -158.68112 
L 249.181907 -160.648516 
L 249.957537 -162.349243 
L 250.733168 -163.578736 
L 251.508798 -164.242743 
L 252.284428 -164.437067 
L 253.060058 -164.460033 
L 253.835688 -164.734255 
L 254.611318 -165.658795 
L 255.386948 -167.451227 
L 256.162579 -170.047241 
L 256.938209 -173.099583 
L 257.713839 -176.076929 
L 258.489469 -178.430715 
L 259.265099 -179.780851 
L 260.040729 -180.062602 
L 260.816359 -179.577657 
L 261.59199 -178.915261 
L 262.36762 -178.758193 
L 263.14325 -179.6428 
L 263.91888 -181.767198 
L 264.69451 -184.920183 
L 265.47014 -188.552291 
L 266.245771 -191.959752 
L 267.021401 -194.518264 
L 267.797031 -195.888416 
L 268.572661 -196.121473 
L 269.348291 -195.628688 
L 270.123921 -195.031497 
L 270.899551 -194.9563 
L 271.675182 -195.849825 
L 272.450812 -197.868706 
L 273.226442 -200.862897 
L 274.002072 -204.446 
L 274.777702 -208.125521 
L 275.553332 -211.447958 
L 276.328962 -214.107489 
L 277.104593 -215.985493 
L 277.880223 -217.124251 
L 278.655853 -217.666223 
L 279.431483 -217.791718 
L 280.207113 -217.671652 
L 280.982743 -217.438845 
L 281.758374 -217.179009 
L 282.534004 -216.940179 
L 283.309634 -216.750802 
L 284.085264 -216.630855 
L 284.860894 -216.587982 
L 285.636524 -216.607247 
L 286.412154 -216.651613 
L 287.187785 -216.682484 
L 287.963415 -216.6929 
L 288.739045 -216.736877 
L 289.514675 -216.939239 
L 290.290305 -217.476328 
L 291.065935 -218.5255 
L 291.841565 -220.193148 
L 292.617196 -222.446184 
L 293.392826 -225.079983 
L 294.168456 -227.746869 
L 294.944086 -230.044439 
L 295.719716 -231.6365 
L 296.495346 -232.364089 
L 297.270976 -232.305367 
L 298.046607 -231.759741 
L 298.822237 -231.157139 
L 299.597867 -230.919614 
L 300.373497 -231.321023 
L 301.149127 -232.394152 
L 301.924757 -233.919459 
L 302.700388 -235.49979 
L 303.476018 -236.693642 
L 304.251648 -237.160096 
L 305.027278 -236.76844 
L 305.802908 -235.640995 
L 306.578538 -234.118495 
L 307.354168 -232.656457 
L 308.129799 -231.678306 
L 308.905429 -231.428034 
L 309.681059 -231.874512 
L 310.456689 -232.707722 
L 311.232319 -233.432842 
L 312.007949 -233.527411 
L 312.783579 -232.601999 
L 313.55921 -230.509212 
L 314.33484 -227.374444 
L 315.11047 -223.554422 
L 315.8861 -219.548236 
L 316.66173 -215.886587 
L 317.43736 -213.018481 
L 318.212991 -211.214056 
L 318.988621 -210.505641 
L 319.764251 -210.686726 
L 320.539881 -211.372864 
L 321.315511 -212.107435 
L 322.091141 -212.480833 
L 322.866771 -212.231064 
L 323.642402 -211.30372 
L 324.418032 -209.860524 
L 325.193662 -208.23377 
L 325.969292 -206.832818 
L 326.744922 -206.021725 
L 327.520552 -206.000602 
L 328.296182 -206.728953 
L 329.071813 -207.920977 
L 329.847443 -209.120861 
L 330.623073 -209.837012 
L 331.398703 -209.68974 
L 332.174333 -208.522022 
L 332.949963 -206.439975 
L 333.725594 -203.777087 
L 334.501224 -200.999217 
L 335.276854 -198.579114 
L 336.052484 -196.872808 
L 336.828114 -196.030383 
L 337.603744 -195.969691 
L 338.379374 -196.423795 
L 339.155005 -197.043667 
L 339.930635 -197.513928 
L 340.706265 -197.63801 
L 341.481895 -197.369373 
L 342.257525 -196.791642 
L 343.033155 -196.067306 
L 343.808785 -195.377629 
L 344.584416 -194.871418 
L 345.360046 -194.633562 
L 346.135676 -194.677051 
L 346.911306 -194.954436 
L 347.686936 -195.379043 
L 348.462566 -195.845979 
L 349.238197 -196.248202 
L 350.013827 -196.489938 
L 350.789457 -196.502234 
L 351.565087 -196.260322 
L 352.340717 -195.794164 
L 353.116347 -195.182213 
L 353.891977 -194.528185 
L 354.667608 -193.9325 
L 355.443238 -193.469968 
L 356.218868 -193.175855 
L 356.994498 -193.035396 
L 357.770128 -192.977142 
L 358.545758 -192.879492 
L 359.321388 -192.598022 
L 360.097019 -192.006717 
L 360.872649 -191.033595 
L 361.648279 -189.675812 
L 362.423909 -187.996255 
L 363.199539 -186.114957 
L 363.975169 -184.202242 
L 364.750799 -182.465678 
L 365.52643 -181.117739 
L 366.30206 -180.323463 
L 367.07769 -180.146551 
L 367.85332 -180.521114 
L 368.62895 -181.265724 
L 369.40458 -182.137138 
L 370.180211 -182.905377 
L 370.955841 -183.426821 
L 371.731471 -183.694722 
L 372.507101 -183.851331 
L 373.282731 -184.152016 
L 374.058361 -184.883901 
L 374.833991 -186.259946 
L 375.609622 -188.325878 
L 376.385252 -190.918734 
L 377.160882 -193.697556 
L 377.936512 -196.237232 
L 378.712142 -198.150379 
L 379.487772 -199.191224 
L 380.263402 -199.303593 
L 381.039033 -198.600477 
L 381.814663 -197.294466 
L 382.590293 -195.617993 
L 383.365923 -193.767271 
L 384.141553 -191.881759 
L 384.917183 -190.052464 
L 385.692814 -188.348259 
L 386.468444 -186.849136 
L 387.244074 -185.670123 
L 388.019704 -184.955307 
L 388.795334 -184.834167 
L 389.570964 -185.360722 
L 390.346594 -186.475747 
L 391.122225 -188.020572 
L 391.897855 -189.794356 
L 392.673485 -191.617928 
L 393.449115 -193.368226 
L 394.224745 -194.973448 
L 395.000375 -196.382894 
L 395.776005 -197.532077 
L 396.551636 -198.319804 
L 397.327266 -198.611443 
L 398.102896 -198.280052 
L 398.878526 -197.280619 
L 399.654156 -195.725943 
L 400.429786 -193.914172 
L 401.205417 -192.273508 
L 401.981047 -191.234111 
L 402.756677 -191.078863 
L 403.532307 -191.835421 
L 404.307937 -193.251461 
L 405.083567 -194.863391 
L 405.859197 -196.141182 
L 406.634828 -196.667907 
L 407.410458 -196.291942 
L 408.186088 -195.187776 
L 408.961718 -193.793562 
L 409.737348 -192.649844 
L 410.512978 -192.209011 
L 411.288608 -192.690862 
L 412.064239 -194.03055 
L 412.839869 -195.926592 
L 413.615499 -197.965112 
L 413.615499 -245.682371 
L 413.615499 -245.682371 
L 412.839869 -243.551628 
L 412.064239 -241.570491 
L 411.288608 -240.148309 
L 410.512978 -239.594816 
L 409.737348 -239.984042 
L 408.961718 -241.097379 
L 408.186088 -242.481068 
L 407.410458 -243.597378 
L 406.634828 -244.008615 
L 405.859197 -243.527075 
L 405.083567 -242.281216 
L 404.307937 -240.673736 
L 403.532307 -239.240574 
L 402.756677 -238.460004 
L 401.981047 -238.588336 
L 401.205417 -239.588874 
L 400.429786 -241.173459 
L 399.654156 -242.922552 
L 398.878526 -244.424726 
L 398.102896 -245.385764 
L 397.327266 -245.681221 
L 396.551636 -245.346317 
L 395.776005 -244.514046 
L 395.000375 -243.331574 
L 394.224745 -241.897113 
L 393.449115 -240.250929 
L 392.673485 -238.418717 
L 391.897855 -236.470277 
L 391.122225 -234.54882 
L 390.346594 -232.851876 
L 389.570964 -231.579481 
L 388.795334 -230.88072 
L 388.019704 -230.82023 
L 387.244074 -231.369391 
L 386.468444 -232.421697 
L 385.692814 -233.830817 
L 384.917183 -235.46044 
L 384.141553 -237.219064 
L 383.365923 -239.05258 
L 382.590293 -240.894643 
L 381.814663 -242.609389 
L 381.039033 -243.972293 
L 380.263402 -244.710589 
L 379.487772 -244.587347 
L 378.712142 -243.490981 
L 377.936512 -241.493047 
L 377.160882 -238.852148 
L 376.385252 -235.96007 
L 375.609622 -233.244195 
L 374.833991 -231.055161 
L 374.058361 -229.576032 
L 373.282731 -228.783481 
L 372.507101 -228.473779 
L 371.731471 -228.344846 
L 370.955841 -228.107038 
L 370.180211 -227.584006 
L 369.40458 -226.767337 
L 368.62895 -225.806874 
L 367.85332 -224.946646 
L 367.07769 -224.438115 
L 366.30206 -224.465911 
L 365.52643 -225.106445 
L 364.750799 -226.320258 
L 363.975169 -227.968497 
L 363.199539 -229.845429 
L 362.423909 -231.722466 
L 361.648279 -233.397538 
L 360.872649 -234.736178 
L 360.097019 -235.689153 
L 359.321388 -236.282053 
L 358.545758 -236.588424 
L 357.770128 -236.704812 
L 356.994498 -236.73631 
L 356.218868 -236.785458 
L 355.443238 -236.935016 
L 354.667608 -237.226998 
L 353.891977 -237.651514 
L 353.116347 -238.15508 
L 352.340717 -238.662818 
L 351.565087 -239.099381 
L 350.789457 -239.399282 
L 350.013827 -239.511542 
L 349.238197 -239.408131 
L 348.462566 -239.097933 
L 347.686936 -238.637702 
L 346.911306 -238.130083 
L 346.135676 -237.705399 
L 345.360046 -237.490951 
L 344.584416 -237.574848 
L 343.808785 -237.972588 
L 343.033155 -238.606776 
L 342.257525 -239.312384 
L 341.481895 -239.875881 
L 340.706265 -240.103362 
L 339.930635 -239.896695 
L 339.155005 -239.308221 
L 338.379374 -238.549837 
L 337.603744 -237.949269 
L 336.828114 -237.864483 
L 336.052484 -238.578262 
L 335.276854 -240.199833 
L 334.501224 -242.603567 
L 333.725594 -245.433184 
L 332.949963 -248.184612 
L 332.174333 -250.349126 
L 331.398703 -251.56744 
L 330.623073 -251.736109 
L 329.847443 -251.029194 
L 329.071813 -249.834429 
L 328.296182 -248.632434 
L 327.520552 -247.859341 
L 326.744922 -247.790928 
L 325.969292 -248.477071 
L 325.193662 -249.741176 
L 324.418032 -251.243114 
L 323.642402 -252.587278 
L 322.866771 -253.444412 
L 322.091141 -253.651398 
L 321.315511 -253.260322 
L 320.539881 -252.525224 
L 319.764251 -251.83546 
L 318.988621 -251.61906 
L 318.212991 -252.241572 
L 317.43736 -253.918861 
L 316.66173 -256.655759 
L 315.8861 -260.222978 
L 315.11047 -264.187155 
L 314.33484 -268.000792 
L 313.55921 -271.136417 
L 312.783579 -273.224669 
L 312.007949 -274.149496 
L 311.232319 -274.069482 
L 310.456689 -273.363024 
L 309.681059 -272.518943 
L 308.905429 -272.003308 
L 308.129799 -272.13307 
L 307.354168 -272.986023 
L 306.578538 -274.374461 
L 305.802908 -275.900041 
L 305.027278 -277.083928 
L 304.251648 -277.533472 
L 303.476018 -277.083125 
L 302.700388 -275.852789 
L 301.924757 -274.201087 
L 301.149127 -272.594615 
L 300.373497 -271.445159 
L 299.597867 -270.973554 
L 298.822237 -271.143298 
L 298.046607 -271.68028 
L 297.270976 -272.167504 
L 296.495346 -272.181438 
L 295.719716 -271.424544 
L 294.944086 -269.811393 
L 294.168456 -267.483825 
L 293.392826 -264.757009 
L 292.617196 -262.021104 
L 291.841565 -259.633347 
L 291.065935 -257.832037 
L 290.290305 -256.693288 
L 289.514675 -256.138455 
L 288.739045 -255.985969 
L 287.963415 -256.027073 
L 287.187785 -256.09566 
L 286.412154 -256.106855 
L 285.636524 -256.056667 
L 284.860894 -255.993599 
L 284.085264 -255.980719 
L 283.309634 -256.062772 
L 282.534004 -256.246607 
L 281.758374 -256.498034 
L 280.982743 -256.752996 
L 280.207113 -256.931508 
L 279.431483 -256.939932 
L 278.655853 -256.659398 
L 277.880223 -255.937519 
L 277.104593 -254.607028 
L 276.328962 -252.538585 
L 275.553332 -249.709386 
L 274.777702 -246.255986 
L 274.002072 -242.486606 
L 273.226442 -238.841537 
L 272.450812 -235.800346 
L 271.675182 -233.74827 
L 270.899551 -232.838365 
L 270.123921 -232.906397 
L 269.348291 -233.487089 
L 268.572661 -233.939831 
L 267.797031 -233.644114 
L 267.021401 -232.198044 
L 266.245771 -229.554612 
L 265.47014 -226.049556 
L 264.69451 -222.303979 
L 263.91888 -219.024649 
L 263.14325 -216.767201 
L 262.36762 -215.749198 
L 261.59199 -215.782582 
L 260.816359 -216.346212 
L 260.040729 -216.767396 
L 259.265099 -216.448854 
L 258.489469 -215.067201 
L 257.713839 -212.675545 
L 256.938209 -209.66965 
L 256.162579 -206.627304 
L 255.386948 -204.087449 
L 254.611318 -202.364377 
L 253.835688 -201.46951 
L 253.060058 -201.154272 
L 252.284428 -201.034029 
L 251.508798 -200.732026 
L 250.733168 -199.99151 
L 249.957537 -198.728077 
L 249.181907 -197.018364 
L 248.406277 -195.040236 
L 247.630647 -192.993111 
L 246.855017 -191.031147 
L 246.079387 -189.232079 
L 245.303756 -187.604815 
L 244.528126 -186.12098 
L 243.752496 -184.747931 
L 242.976866 -183.46501 
L 242.201236 -182.257755 
L 241.425606 -181.10043 
L 240.649976 -179.947289 
L 239.874345 -178.749831 
L 239.098715 -177.499189 
L 238.323085 -176.26956 
L 237.547455 -175.228951 
L 236.771825 -174.597555 
L 235.996195 -174.563057 
L 235.220565 -175.187364 
L 234.444934 -176.347252 
L 233.669304 -177.740097 
L 232.893674 -178.961572 
L 232.118044 -179.6339 
L 231.342414 -179.539564 
L 230.566784 -178.705608 
L 229.791153 -177.396475 
L 229.015523 -176.009318 
L 228.239893 -174.911575 
L 227.464263 -174.292582 
L 226.688633 -174.097739 
L 225.913003 -174.073291 
L 225.137373 -173.895924 
L 224.361742 -173.325364 
L 223.586112 -172.315609 
L 222.810482 -171.045358 
L 222.034852 -169.861537 
L 221.259222 -169.156003 
L 220.483592 -169.214056 
L 219.707962 -170.086248 
L 218.932331 -171.535708 
L 218.156701 -173.08986 
L 217.381071 -174.182408 
L 216.605441 -174.331423 
L 215.829811 -173.285951 
L 215.054181 -171.091678 
L 214.27855 -168.061721 
L 213.50292 -164.672992 
L 212.72729 -161.429654 
L 211.95166 -158.73856 
L 211.17603 -156.829077 
L 210.4004 -155.729253 
L 209.62477 -155.291699 
L 208.849139 -155.252128 
L 208.073509 -155.302125 
L 207.297879 -155.161073 
L 206.522249 -154.634688 
L 205.746619 -153.648876 
L 204.970989 -152.252 
L 204.195359 -150.586457 
L 203.419728 -148.838092 
L 202.644098 -147.176815 
L 201.868468 -145.704059 
L 201.092838 -144.422388 
L 200.317208 -143.238925 
L 199.541578 -142.006267 
L 198.765948 -140.592346 
L 197.990317 -138.957644 
L 197.214687 -137.209906 
L 196.439057 -135.608507 
L 195.663427 -134.505632 
L 194.887797 -134.236347 
L 194.112167 -134.993535 
L 193.336536 -136.733881 
L 192.560906 -139.151971 
L 191.785276 -141.73623 
L 191.009646 -143.893966 
L 190.234016 -145.11194 
L 189.458386 -145.105579 
L 188.682756 -143.906661 
L 187.907125 -141.853724 
L 187.131495 -139.483261 
L 186.355865 -137.360706 
L 185.580235 -135.917677 
L 184.804605 -135.356722 
L 184.028975 -135.645628 
L 183.253345 -136.578977 
L 182.477714 -137.866472 
L 181.702084 -139.216841 
L 180.926454 -140.401687 
L 180.150824 -141.29146 
L 179.375194 -141.860144 
L 178.599564 -142.16467 
L 177.823933 -142.314373 
L 177.048303 -142.443692 
L 176.272673 -142.689621 
L 175.497043 -143.168 
L 174.721413 -143.947331 
L 173.945783 -145.027392 
L 173.170153 -146.331507 
L 172.394522 -147.716658 
L 171.618892 -149.002773 
L 170.843262 -150.019707 
L 170.067632 -150.660645 
L 169.292002 -150.917072 
L 168.516372 -150.87118 
L 167.740742 -150.644123 
L 166.965111 -150.327953 
L 166.189481 -149.939224 
L 165.413851 -149.414728 
L 164.638221 -148.644135 
L 163.862591 -147.522052 
L 163.086961 -146.002165 
L 162.31133 -144.136214 
L 161.5357 -142.079162 
L 160.76007 -140.049796 
L 159.98444 -138.256783 
L 159.20881 -136.821087 
L 158.43318 -135.730391 
L 157.65755 -134.846747 
L 156.881919 -133.965416 
L 156.106289 -132.902393 
L 155.330659 -131.577381 
L 154.555029 -130.059971 
L 153.779399 -128.559051 
L 153.003769 -127.355695 
L 152.228139 -126.700793 
L 151.452508 -126.712927 
L 150.676878 -127.314908 
L 149.901248 -128.237027 
L 149.125618 -129.091697 
L 148.349988 -129.494714 
L 147.574358 -129.187971 
L 146.798727 -128.11954 
L 146.023097 -126.456821 
L 145.247467 -124.532615 
L 144.471837 -122.743109 
L 143.696207 -121.430681 
L 142.920577 -120.791589 
L 142.144947 -120.840963 
L 141.369316 -121.441906 
L 140.593686 -122.374591 
L 139.818056 -123.407158 
L 139.042426 -124.342608 
L 138.266796 -125.040043 
L 137.491166 -125.420766 
L 136.715536 -125.465915 
L 135.939905 -125.208809 
L 135.164275 -124.729185 
L 134.388645 -124.156316 
L 133.613015 -123.675079 
L 132.837385 -123.512966 
L 132.061755 -123.887143 
L 131.286125 -124.915715 
L 130.510494 -126.528702 
L 129.734864 -128.425855 
L 128.959234 -130.111756 
L 128.183604 -131.008523 
L 127.407974 -130.620225 
L 126.632344 -128.704373 
L 125.856713 -125.393026 
L 125.081083 -121.207245 
L 124.305453 -116.937121 
L 123.529823 -113.413638 
L 122.754193 -111.253144 
L 121.978563 -110.674166 
L 121.202933 -111.453192 
L 120.427302 -113.024539 
L 119.651672 -114.680432 
L 118.876042 -115.80687 
L 118.100412 -116.085396 
L 117.324782 -115.591993 
L 116.549152 -114.747524 
L 115.773522 -114.13003 
L 114.997891 -114.22581 
L 114.222261 -115.231258 
L 113.446631 -116.990466 
L 112.671001 -119.077763 
L 111.895371 -120.966169 
L 111.119741 -122.203386 
L 110.34411 -122.53587 
L 109.56848 -121.950186 
L 108.79285 -120.628974 
L 108.01722 -118.849862 
L 107.24159 -116.881289 
L 106.46596 -114.926393 
L 105.69033 -113.129023 
L 104.914699 -111.612635 
L 104.139069 -110.507597 
L 103.363439 -109.941517 
L 102.587809 -109.99819 
L 101.812179 -110.667814 
L 101.036549 -111.810591 
L 100.260919 -113.151886 
L 99.485288 -114.324811 
L 98.709658 -114.965438 
L 97.934028 -114.839238 
L 97.158398 -113.946728 
L 96.382768 -112.549476 
L 95.607138 -111.087618 
L 94.831507 -110.012195 
L 94.055877 -109.604534 
L 93.280247 -109.872292 
L 92.504617 -110.572548 
L 91.728987 -111.337886 
L 90.953357 -111.834201 
L 90.177727 -111.883431 
L 89.402096 -111.513593 
L 88.626466 -110.925751 
L 87.850836 -110.39078 
L 87.075206 -110.117613 
L 86.299576 -110.15787 
L 85.523946 -110.396824 
L 84.748316 -110.624338 
L 83.972685 -110.628897 
L 83.197055 -110.26262 
L 82.421425 -109.47814 
L 81.645795 -108.361004 
L 80.870165 -107.137617 
L 80.094535 -106.116139 
L 79.318904 -105.562454 
L 78.543274 -105.576657 
L 77.767644 -106.06063 
L 76.992014 -106.80082 
L 76.216384 -107.585866 
L 75.440754 -108.2694 
L 74.665124 -108.767503 
L 73.889493 -109.041837 
L 73.113863 -109.103854 
L 72.338233 -109.021058 
L 71.562603 -108.894734 
L 70.786973 -108.817698 
L 70.011343 -108.850525 
L 69.235713 -109.030263 
L 68.460082 -109.380538 
L 67.684452 -109.89424 
L 66.908822 -110.502507 
L 66.133192 -111.066634 
L 65.357562 -111.409319 
L 64.581932 -111.369911 
L 63.806301 -110.862664 
L 63.030671 -109.927 
L 62.255041 -108.753236 
L 61.479411 -107.656095 
L 60.703781 -106.984552 
L 59.928151 -106.999261 
L 59.152521 -107.77959 
L 58.37689 -109.204972 
L 57.60126 -111.004116 
L 56.82563 -112.834855 
L 56.05 -114.366695 
z
" style="stroke: #e41a1c; stroke-opacity: 0.3"/>
    </defs>
    <g clip-path="url(#p65b6879e17)">
     <use xlink:href="#m47e14f17a2" x="0" y="360" style="fill: #e41a1c; fill-opacity: 0.3; stroke: #e41a1c; stroke-opacity: 0.3"/>
    </g>
   </g>
   <g id="PolyCollection_2">
    <defs>
     <path id="mfa72bf68c3" d="M 56.05 -107.867997 
L 56.05 -98.856789 
L 56.82563 -98.822626 
L 57.60126 -98.854132 
L 58.37689 -98.911491 
L 59.152521 -98.896772 
L 59.928151 -98.70232 
L 60.703781 -98.272739 
L 61.479411 -97.653146 
L 62.255041 -96.996649 
L 63.030671 -96.520307 
L 63.806301 -96.425057 
L 64.581932 -96.814826 
L 65.357562 -97.651382 
L 66.133192 -98.763517 
L 66.908822 -99.902324 
L 67.684452 -100.815733 
L 68.460082 -101.315275 
L 69.235713 -101.318357 
L 70.011343 -100.858564 
L 70.786973 -100.062335 
L 71.562603 -99.097423 
L 72.338233 -98.112158 
L 73.113863 -97.195943 
L 73.889493 -96.381566 
L 74.665124 -95.680762 
L 75.440754 -95.121322 
L 76.216384 -94.757537 
L 76.992014 -94.650001 
L 77.767644 -94.831276 
L 78.543274 -95.276358 
L 79.318904 -95.889692 
L 80.094535 -96.516786 
L 80.870165 -96.986329 
L 81.645795 -97.175814 
L 82.421425 -97.072918 
L 83.197055 -96.795911 
L 83.972685 -96.554045 
L 84.748316 -96.563062 
L 85.523946 -96.954067 
L 86.299576 -97.712764 
L 87.075206 -98.669465 
L 87.850836 -99.542025 
L 88.626466 -100.01991 
L 89.402096 -99.865325 
L 90.177727 -98.997806 
L 90.953357 -97.529459 
L 91.728987 -95.734757 
L 92.504617 -93.966232 
L 93.280247 -92.550146 
L 94.055877 -91.700907 
L 94.831507 -91.479297 
L 95.607138 -91.799176 
L 96.382768 -92.472349 
L 97.158398 -93.274239 
L 97.934028 -94.009728 
L 98.709658 -94.558376 
L 99.485288 -94.885121 
L 100.260919 -95.018004 
L 101.036549 -95.010181 
L 101.812179 -94.908306 
L 102.587809 -94.739883 
L 103.363439 -94.51784 
L 104.139069 -94.252975 
L 104.914699 -93.9665 
L 105.69033 -93.69847 
L 106.46596 -93.508379 
L 107.24159 -93.464722 
L 108.01722 -93.626027 
L 108.79285 -94.022369 
L 109.56848 -94.646387 
L 110.34411 -95.455331 
L 111.119741 -96.378785 
L 111.895371 -97.327369 
L 112.671001 -98.20295 
L 113.446631 -98.912447 
L 114.222261 -99.383252 
L 114.997891 -99.574823 
L 115.773522 -99.482868 
L 116.549152 -99.137092 
L 117.324782 -98.5951 
L 118.100412 -97.933239 
L 118.876042 -97.234073 
L 119.651672 -96.571943 
L 120.427302 -96.000602 
L 121.202933 -95.5471 
L 121.978563 -95.213908 
L 122.754193 -94.988408 
L 123.529823 -94.856442 
L 124.305453 -94.814841 
L 125.081083 -94.877635 
L 125.856713 -95.073339 
L 126.632344 -95.434625 
L 127.407974 -95.984426 
L 128.183604 -96.722795 
L 128.959234 -97.617981 
L 129.734864 -98.604857 
L 130.510494 -99.592669 
L 131.286125 -100.481021 
L 132.061755 -101.179774 
L 132.837385 -101.627436 
L 133.613015 -101.804066 
L 134.388645 -101.735901 
L 135.164275 -101.48904 
L 135.939905 -101.15101 
L 136.715536 -100.80386 
L 137.491166 -100.498075 
L 138.266796 -100.237758 
L 139.042426 -99.982662 
L 139.818056 -99.666256 
L 140.593686 -99.22496 
L 141.369316 -98.631125 
L 142.144947 -97.918971 
L 142.920577 -97.190939 
L 143.696207 -96.597053 
L 144.471837 -96.291592 
L 145.247467 -96.383011 
L 146.023097 -96.896288 
L 146.798727 -97.761119 
L 147.574358 -98.829548 
L 148.349988 -99.918144 
L 149.125618 -100.863387 
L 149.901248 -101.572941 
L 150.676878 -102.053104 
L 151.452508 -102.398533 
L 152.228139 -102.745493 
L 153.003769 -103.206783 
L 153.779399 -103.815405 
L 154.555029 -104.500634 
L 155.330659 -105.107202 
L 156.106289 -105.452308 
L 156.881919 -105.400303 
L 157.65755 -104.927132 
L 158.43318 -104.147888 
L 159.20881 -103.293413 
L 159.98444 -102.641319 
L 160.76007 -102.425167 
L 161.5357 -102.754986 
L 162.31133 -103.578434 
L 163.086961 -104.696339 
L 163.862591 -105.826361 
L 164.638221 -106.692271 
L 165.413851 -107.109052 
L 166.189481 -107.036606 
L 166.965111 -106.586027 
L 167.740742 -105.978182 
L 168.516372 -105.469537 
L 169.292002 -105.270257 
L 170.067632 -105.481026 
L 170.843262 -106.067844 
L 171.618892 -106.880386 
L 172.394522 -107.704599 
L 173.170153 -108.329057 
L 173.945783 -108.601823 
L 174.721413 -108.461421 
L 175.497043 -107.938085 
L 176.272673 -107.131806 
L 177.048303 -106.17731 
L 177.823933 -105.20482 
L 178.599564 -104.304669 
L 179.375194 -103.504622 
L 180.150824 -102.767276 
L 180.926454 -102.007912 
L 181.702084 -101.124554 
L 182.477714 -100.028051 
L 183.253345 -98.663489 
L 184.028975 -97.020226 
L 184.804605 -95.131091 
L 185.580235 -93.06182 
L 186.355865 -90.892919 
L 187.131495 -88.699097 
L 187.907125 -86.533744 
L 188.682756 -84.424844 
L 189.458386 -82.38449 
L 190.234016 -80.428547 
L 191.009646 -78.597062 
L 191.785276 -76.962744 
L 192.560906 -75.618747 
L 193.336536 -74.647947 
L 194.112167 -74.086845 
L 194.887797 -73.900301 
L 195.663427 -73.977001 
L 196.439057 -74.146413 
L 197.214687 -74.213393 
L 197.990317 -74.005451 
L 198.765948 -73.423162 
L 199.541578 -72.477045 
L 200.317208 -71.293086 
L 201.092838 -70.080083 
L 201.868468 -69.069475 
L 202.644098 -68.44968 
L 203.419728 -68.31608 
L 204.195359 -68.649223 
L 204.970989 -69.324623 
L 205.746619 -70.149513 
L 206.522249 -70.914271 
L 207.297879 -71.44282 
L 208.073509 -71.630063 
L 208.849139 -71.462755 
L 209.62477 -71.025265 
L 210.4004 -70.490534 
L 211.17603 -70.094051 
L 211.95166 -70.090786 
L 212.72729 -70.7007 
L 213.50292 -72.053573 
L 214.27855 -74.145624 
L 215.054181 -76.820693 
L 215.829811 -79.787302 
L 216.605441 -82.675699 
L 217.381071 -85.124788 
L 218.156701 -86.874466 
L 218.932331 -87.833562 
L 219.707962 -88.100516 
L 220.483592 -87.928613 
L 221.259222 -87.644066 
L 222.034852 -87.540478 
L 222.810482 -87.784297 
L 223.586112 -88.36619 
L 224.361742 -89.117595 
L 225.137373 -89.785076 
L 225.913003 -90.130844 
L 226.688633 -90.01876 
L 227.464263 -89.453569 
L 228.239893 -88.561548 
L 229.015523 -87.524323 
L 229.791153 -86.496435 
L 230.566784 -85.543341 
L 231.342414 -84.626304 
L 232.118044 -83.637628 
L 232.893674 -82.466755 
L 233.669304 -81.065883 
L 234.444934 -79.48619 
L 235.220565 -77.868771 
L 235.996195 -76.392622 
L 236.771825 -75.200025 
L 237.547455 -74.331919 
L 238.323085 -73.704052 
L 239.098715 -73.137247 
L 239.874345 -72.429225 
L 240.649976 -71.435924 
L 241.425606 -70.127273 
L 242.201236 -68.595634 
L 242.976866 -67.016566 
L 243.752496 -65.580873 
L 244.528126 -64.426862 
L 245.303756 -63.59931 
L 246.079387 -63.048787 
L 246.855017 -62.667307 
L 247.630647 -62.340976 
L 248.406277 -61.993863 
L 249.181907 -61.603074 
L 249.957537 -61.180681 
L 250.733168 -60.736613 
L 251.508798 -60.247289 
L 252.284428 -59.650999 
L 253.060058 -58.874728 
L 253.835688 -57.878688 
L 254.611318 -56.695212 
L 255.386948 -55.441497 
L 256.162579 -54.296644 
L 256.938209 -53.447966 
L 257.713839 -53.025403 
L 258.489469 -53.051461 
L 259.265099 -53.431032 
L 260.040729 -53.988578 
L 260.816359 -54.536858 
L 261.59199 -54.946133 
L 262.36762 -55.18426 
L 263.14325 -55.31399 
L 263.91888 -55.452424 
L 264.69451 -55.710915 
L 265.47014 -56.139458 
L 266.245771 -56.698475 
L 267.021401 -57.272374 
L 267.797031 -57.722413 
L 268.572661 -57.956545 
L 269.348291 -57.982982 
L 270.123921 -57.9203 
L 270.899551 -57.957865 
L 271.675182 -58.284334 
L 272.450812 -59.016195 
L 273.226442 -60.156532 
L 274.002072 -61.59833 
L 274.777702 -63.166349 
L 275.553332 -64.676655 
L 276.328962 -65.989805 
L 277.104593 -67.040272 
L 277.880223 -67.836184 
L 278.655853 -68.434777 
L 279.431483 -68.907266 
L 280.207113 -69.309408 
L 280.982743 -69.669607 
L 281.758374 -69.995911 
L 282.534004 -70.292991 
L 283.309634 -70.576047 
L 284.085264 -70.872627 
L 284.860894 -71.21217 
L 285.636524 -71.610605 
L 286.412154 -72.059621 
L 287.187785 -72.52718 
L 287.963415 -72.969507 
L 288.739045 -73.348561 
L 289.514675 -73.645865 
L 290.290305 -73.865863 
L 291.065935 -74.02801 
L 291.841565 -74.152486 
L 292.617196 -74.246929 
L 293.392826 -74.30058 
L 294.168456 -74.289441 
L 294.944086 -74.191299 
L 295.719716 -74.003704 
L 296.495346 -73.754176 
L 297.270976 -73.494173 
L 298.046607 -73.27727 
L 298.822237 -73.13203 
L 299.597867 -73.044339 
L 300.373497 -72.960032 
L 301.149127 -72.809276 
L 301.924757 -72.543831 
L 302.700388 -72.170901 
L 303.476018 -71.766594 
L 304.251648 -71.459358 
L 305.027278 -71.386569 
L 305.802908 -71.64031 
L 306.578538 -72.2248 
L 307.354168 -73.044602 
L 308.129799 -73.930399 
L 308.905429 -74.693024 
L 309.681059 -75.184168 
L 310.456689 -75.340292 
L 311.232319 -75.194946 
L 312.007949 -74.8581 
L 312.783579 -74.472603 
L 313.55921 -74.164351 
L 314.33484 -74.00392 
L 315.11047 -73.993409 
L 315.8861 -74.082537 
L 316.66173 -74.204964 
L 317.43736 -74.316119 
L 318.212991 -74.413567 
L 318.988621 -74.531089 
L 319.764251 -74.711878 
L 320.539881 -74.976482 
L 321.315511 -75.302598 
L 322.091141 -75.627599 
L 322.866771 -75.8741 
L 323.642402 -75.988182 
L 324.418032 -75.972499 
L 325.193662 -75.897356 
L 325.969292 -75.881774 
L 326.744922 -76.049976 
L 327.520552 -76.479487 
L 328.296182 -77.16103 
L 329.071813 -77.986914 
L 329.847443 -78.774945 
L 330.623073 -79.32214 
L 331.398703 -79.470734 
L 332.174333 -79.163211 
L 332.949963 -78.466129 
L 333.725594 -77.553847 
L 334.501224 -76.658328 
L 335.276854 -76.003413 
L 336.052484 -75.746325 
L 336.828114 -75.944305 
L 337.603744 -76.552996 
L 338.379374 -77.451472 
L 339.155005 -78.481293 
L 339.930635 -79.485194 
L 340.706265 -80.334234 
L 341.481895 -80.938958 
L 342.257525 -81.248017 
L 343.033155 -81.242534 
L 343.808785 -80.933992 
L 344.584416 -80.367545 
L 345.360046 -79.626429 
L 346.135676 -78.830779 
L 346.911306 -78.126188 
L 347.686936 -77.660962 
L 348.462566 -77.555014 
L 349.238197 -77.867978 
L 350.013827 -78.578368 
L 350.789457 -79.584678 
L 351.565087 -80.731337 
L 352.340717 -81.851041 
L 353.116347 -82.807592 
L 353.891977 -83.524355 
L 354.667608 -83.99068 
L 355.443238 -84.246971 
L 356.218868 -84.355381 
L 356.994498 -84.368086 
L 357.770128 -84.306876 
L 358.545758 -84.163802 
L 359.321388 -83.922502 
L 360.097019 -83.588869 
L 360.872649 -83.21449 
L 361.648279 -82.899591 
L 362.423909 -82.771841 
L 363.199539 -82.948079 
L 363.975169 -83.493405 
L 364.750799 -84.3939 
L 365.52643 -85.554905 
L 366.30206 -86.827188 
L 367.07769 -88.051967 
L 367.85332 -89.10797 
L 368.62895 -89.942826 
L 369.40458 -90.577748 
L 370.180211 -91.08515 
L 370.955841 -91.549234 
L 371.731471 -92.025459 
L 372.507101 -92.514428 
L 373.282731 -92.959527 
L 374.058361 -93.268686 
L 374.833991 -93.351566 
L 375.609622 -93.157845 
L 376.385252 -92.701634 
L 377.160882 -92.061948 
L 377.936512 -91.358508 
L 378.712142 -90.712693 
L 379.487772 -90.20999 
L 380.263402 -89.879124 
L 381.039033 -89.694819 
L 381.814663 -89.600538 
L 382.590293 -89.540033 
L 383.365923 -89.484653 
L 384.141553 -89.446172 
L 384.917183 -89.470388 
L 385.692814 -89.613838 
L 386.468444 -89.913505 
L 387.244074 -90.363247 
L 388.019704 -90.908381 
L 388.795334 -91.461648 
L 389.570964 -91.934217 
L 390.346594 -92.269475 
L 391.122225 -92.467089 
L 391.897855 -92.588428 
L 392.673485 -92.739848 
L 393.449115 -93.037294 
L 394.224745 -93.563448 
L 395.000375 -94.333602 
L 395.776005 -95.284736 
L 396.551636 -96.293563 
L 397.327266 -97.217825 
L 398.102896 -97.946352 
L 398.878526 -98.439776 
L 399.654156 -98.746806 
L 400.429786 -98.988906 
L 401.205417 -99.317532 
L 401.981047 -99.858716 
L 402.756677 -100.665285 
L 403.532307 -101.694546 
L 404.307937 -102.819391 
L 405.083567 -103.868092 
L 405.859197 -104.678028 
L 406.634828 -105.145085 
L 407.410458 -105.253374 
L 408.186088 -105.07735 
L 408.961718 -104.757578 
L 409.737348 -104.459257 
L 410.512978 -104.326734 
L 411.288608 -104.446743 
L 412.064239 -104.828972 
L 412.839869 -105.407168 
L 413.615499 -106.058845 
L 413.615499 -126.65867 
L 413.615499 -126.65867 
L 412.839869 -125.997757 
L 412.064239 -125.418222 
L 411.288608 -125.034219 
L 410.512978 -124.908465 
L 409.737348 -125.031977 
L 408.961718 -125.319489 
L 408.186088 -125.626198 
L 407.410458 -125.784547 
L 406.634828 -125.651956 
L 405.859197 -125.154829 
L 405.083567 -124.313502 
L 404.307937 -123.238024 
L 403.532307 -122.094663 
L 402.756677 -121.053827 
L 401.981047 -120.237012 
L 401.205417 -119.680785 
L 400.429786 -119.329677 
L 399.654156 -119.0598 
L 398.878526 -118.724635 
L 398.102896 -118.207173 
L 397.327266 -117.460585 
L 396.551636 -116.523442 
L 395.776005 -115.504499 
L 395.000375 -114.543282 
L 394.224745 -113.761373 
L 393.449115 -113.222057 
L 392.673485 -112.911728 
L 391.897855 -112.748555 
L 391.122225 -112.614585 
L 390.346594 -112.39951 
L 389.570964 -112.039752 
L 388.795334 -111.537968 
L 388.019704 -110.956119 
L 387.244074 -110.386741 
L 386.468444 -109.916017 
L 385.692814 -109.594121 
L 384.917183 -109.423127 
L 384.141553 -109.364817 
L 383.365923 -109.363853 
L 382.590293 -109.376946 
L 381.814663 -109.395983 
L 381.039033 -109.454264 
L 380.263402 -109.61192 
L 379.487772 -109.926247 
L 378.712142 -110.41998 
L 377.936512 -111.061268 
L 377.160882 -111.763652 
L 376.385252 -112.406454 
L 375.609622 -112.869012 
L 374.833991 -113.067353 
L 374.058361 -112.97995 
L 373.282731 -112.651716 
L 372.507101 -112.173081 
L 371.731471 -111.641505 
L 370.955841 -111.120964 
L 370.180211 -110.616554 
L 369.40458 -110.075333 
L 368.62895 -109.413299 
L 367.85332 -108.557701 
L 367.07769 -107.487426 
L 366.30206 -106.254844 
L 365.52643 -104.979888 
L 364.750799 -103.818098 
L 363.975169 -102.914402 
L 363.199539 -102.359802 
L 362.423909 -102.166658 
L 361.648279 -102.271039 
L 360.872649 -102.559877 
L 360.097019 -102.910971 
L 359.321388 -103.229227 
L 358.545758 -103.465197 
L 357.770128 -103.610814 
L 356.994498 -103.677499 
L 356.218868 -103.668763 
L 355.443238 -103.560619 
L 354.667608 -103.299739 
L 353.891977 -102.822072 
L 353.116347 -102.08534 
L 352.340717 -101.101048 
L 351.565087 -99.950214 
L 350.789457 -98.773907 
L 350.013827 -97.741024 
L 349.238197 -97.005307 
L 348.462566 -96.666233 
L 347.686936 -96.745207 
L 346.911306 -97.18305 
L 346.135676 -97.858775 
L 345.360046 -98.622634 
L 344.584416 -99.330687 
L 343.808785 -99.86854 
L 343.033155 -100.159103 
L 342.257525 -100.158947 
L 341.481895 -99.852765 
L 340.706265 -99.253133 
L 339.930635 -98.406356 
L 339.155005 -97.399618 
L 338.379374 -96.362026 
L 337.603744 -95.452577 
L 336.828114 -94.831835 
L 336.052484 -94.621562 
L 335.276854 -94.86462 
L 334.501224 -95.501018 
L 333.725594 -96.372216 
L 332.949963 -97.256322 
L 332.174333 -97.925676 
L 331.398703 -98.209635 
L 330.623073 -98.042327 
L 329.847443 -97.478859 
L 329.071813 -96.673602 
L 328.296182 -95.827559 
L 327.520552 -95.123139 
L 326.744922 -94.669249 
L 325.969292 -94.475762 
L 325.193662 -94.464935 
L 324.418032 -94.512905 
L 323.642402 -94.502877 
L 322.866771 -94.368266 
L 322.091141 -94.109903 
L 321.315511 -93.783281 
L 320.539881 -93.464515 
L 319.764251 -93.211935 
L 318.988621 -93.041364 
L 318.212991 -92.925934 
L 317.43736 -92.818905 
L 316.66173 -92.686336 
L 315.8861 -92.53199 
L 315.11047 -92.401616 
L 314.33484 -92.363836 
L 313.55921 -92.474915 
L 312.783579 -92.741734 
L 312.007949 -93.100327 
L 311.232319 -93.423793 
L 310.456689 -93.561484 
L 309.681059 -93.395352 
L 308.905429 -92.88911 
L 308.129799 -92.108438 
L 307.354168 -91.203766 
L 306.578538 -90.362963 
L 305.802908 -89.752225 
L 305.027278 -89.466604 
L 304.251648 -89.507096 
L 303.476018 -89.790871 
L 302.700388 -90.188871 
L 301.924757 -90.575044 
L 301.149127 -90.867992 
L 300.373497 -91.04987 
L 299.597867 -91.15752 
L 298.822237 -91.252805 
L 298.046607 -91.387553 
L 297.270976 -91.579149 
L 296.495346 -91.805819 
L 295.719716 -92.020614 
L 294.944086 -92.175286 
L 294.168456 -92.242081 
L 293.392826 -92.223369 
L 292.617196 -92.144892 
L 291.841565 -92.036557 
L 291.065935 -91.911731 
L 290.290305 -91.757615 
L 289.514675 -91.54294 
L 288.739045 -91.238126 
L 287.963415 -90.83553 
L 287.187785 -90.358014 
L 286.412154 -89.851602 
L 285.636524 -89.366709 
L 284.860894 -88.937833 
L 284.085264 -88.571774 
L 283.309634 -88.24967 
L 282.534004 -87.940628 
L 281.758374 -87.618122 
L 280.982743 -87.268775 
L 280.207113 -86.888125 
L 279.431483 -86.46617 
L 278.655853 -85.971854 
L 277.880223 -85.347381 
L 277.104593 -84.520052 
L 276.328962 -83.431911 
L 275.553332 -82.076901 
L 274.777702 -80.527347 
L 274.002072 -78.932126 
L 273.226442 -77.480604 
L 272.450812 -76.343562 
L 271.675182 -75.614897 
L 270.899551 -75.278564 
L 270.123921 -75.214879 
L 269.348291 -75.244034 
L 268.572661 -75.190159 
L 267.797031 -74.941663 
L 267.021401 -74.485587 
L 266.245771 -73.903219 
L 265.47014 -73.327977 
L 264.69451 -72.881444 
L 263.91888 -72.614487 
L 263.14325 -72.481365 
L 262.36762 -72.361976 
L 261.59199 -72.124271 
L 260.816359 -71.696878 
L 260.040729 -71.115528 
L 259.265099 -70.52066 
L 258.489469 -70.108318 
L 257.713839 -70.057052 
L 256.938209 -70.461356 
L 256.162579 -71.296946 
L 255.386948 -72.430396 
L 254.611318 -73.668762 
L 253.835688 -74.828245 
L 253.060058 -75.792026 
L 252.284428 -76.53305 
L 251.508798 -77.096161 
L 250.733168 -77.554854 
L 249.957537 -77.968148 
L 249.181907 -78.358903 
L 248.406277 -78.720925 
L 247.630647 -79.047349 
L 246.855017 -79.362943 
L 246.079387 -79.740826 
L 245.303756 -80.290271 
L 244.528126 -81.116259 
L 243.752496 -82.267315 
L 242.976866 -83.697775 
L 242.201236 -85.266875 
L 241.425606 -86.780911 
L 240.649976 -88.063818 
L 239.874345 -89.026483 
L 239.098715 -89.703825 
L 238.323085 -90.242429 
L 237.547455 -90.8433 
L 236.771825 -91.683378 
L 235.996195 -92.847549 
L 235.220565 -94.298166 
L 234.444934 -95.894278 
L 233.669304 -97.452896 
L 232.893674 -98.826443 
L 232.118044 -99.961455 
L 231.342414 -100.910806 
L 230.566784 -101.793516 
L 229.791153 -102.722356 
L 229.015523 -103.734985 
L 228.239893 -104.761574 
L 227.464263 -105.644318 
L 226.688633 -106.201407 
L 225.913003 -106.30869 
L 225.137373 -105.963646 
L 224.361742 -105.301907 
L 223.586112 -104.556178 
L 222.810482 -103.972132 
L 222.034852 -103.7136 
L 221.259222 -103.792716 
L 220.483592 -104.051113 
L 219.707962 -104.200976 
L 218.932331 -103.914678 
L 218.156701 -102.933266 
L 217.381071 -101.155064 
L 216.605441 -98.672974 
L 215.829811 -95.750574 
L 215.054181 -92.750677 
L 214.27855 -90.043359 
L 213.50292 -87.921012 
L 212.72729 -86.541218 
L 211.95166 -85.908335 
L 211.17603 -85.892817 
L 210.4004 -86.276181 
L 209.62477 -86.80503 
L 208.849139 -87.24172 
L 208.073509 -87.406439 
L 207.297879 -87.208282 
L 206.522249 -86.660606 
L 205.746619 -85.87545 
L 204.970989 -85.036288 
L 204.195359 -84.354492 
L 203.419728 -84.018531 
L 202.644098 -84.146275 
L 201.868468 -84.751915 
L 201.092838 -85.738646 
L 200.317208 -86.922106 
L 199.541578 -88.079036 
L 198.765948 -89.006547 
L 197.990317 -89.575424 
L 197.214687 -89.764188 
L 196.439057 -89.664691 
L 195.663427 -89.45502 
L 194.887797 -89.345423 
L 194.112167 -89.515868 
L 193.336536 -90.070411 
L 192.560906 -91.02547 
L 191.785276 -92.330347 
L 191.009646 -93.903332 
L 190.234016 -95.664995 
L 189.458386 -97.558053 
L 188.682756 -99.551432 
L 187.907125 -101.631033 
L 187.131495 -103.78259 
L 186.355865 -105.974396 
L 185.580235 -108.147938 
L 184.804605 -110.221409 
L 184.028975 -112.105904 
L 183.253345 -113.729132 
L 182.477714 -115.058151 
L 181.702084 -116.112103 
L 180.926454 -116.958777 
L 180.150824 -117.695374 
L 179.375194 -118.420764 
L 178.599564 -119.208588 
L 177.823933 -120.087035 
L 177.048303 -121.027473 
L 176.272673 -121.944364 
L 175.497043 -122.710779 
L 174.721413 -123.191249 
L 173.945783 -123.285515 
L 173.170153 -122.968496 
L 172.394522 -122.310633 
L 171.618892 -121.469534 
L 170.843262 -120.653816 
L 170.067632 -120.068178 
L 169.292002 -119.853779 
L 168.516372 -120.040845 
L 167.740742 -120.530202 
L 166.965111 -121.11445 
L 166.189481 -121.537346 
L 165.413851 -121.575405 
L 164.638221 -121.115247 
L 163.862591 -120.198803 
L 163.086961 -119.017775 
L 162.31133 -117.856291 
L 161.5357 -117.000293 
L 160.76007 -116.64547 
L 159.98444 -116.836154 
L 159.20881 -117.455633 
L 158.43318 -118.269361 
L 157.65755 -119.004113 
L 156.881919 -119.434731 
L 156.106289 -119.44903 
L 155.330659 -119.07011 
L 154.555029 -118.430435 
L 153.779399 -117.709462 
L 153.003769 -117.06005 
L 152.228139 -116.552162 
L 151.452508 -116.154619 
L 150.676878 -115.758922 
L 149.901248 -115.233001 
L 149.125618 -114.482786 
L 148.349988 -113.498681 
L 147.574358 -112.370352 
L 146.798727 -111.264026 
L 146.023097 -110.369878 
L 145.247467 -109.839265 
L 144.471837 -109.736851 
L 143.696207 -110.025838 
L 142.920577 -110.588566 
L 142.144947 -111.269754 
L 141.369316 -111.924229 
L 140.593686 -112.454381 
L 139.818056 -112.828503 
L 139.042426 -113.076517 
L 138.266796 -113.265363 
L 137.491166 -113.463774 
L 136.715536 -113.710713 
L 135.939905 -113.99897 
L 135.164275 -114.276989 
L 134.388645 -114.464446 
L 133.613015 -114.474888 
L 132.837385 -114.239757 
L 132.061755 -113.72858 
L 131.286125 -112.959603 
L 130.510494 -111.996977 
L 129.734864 -110.935722 
L 128.959234 -109.880376 
L 128.183604 -108.924038 
L 127.407974 -108.132485 
L 126.632344 -107.535966 
L 125.856713 -107.130548 
L 125.081083 -106.888659 
L 124.305453 -106.77496 
L 123.529823 -106.761277 
L 122.754193 -106.8353 
L 121.978563 -107.001092 
L 121.202933 -107.272465 
L 120.427302 -107.661671 
L 119.651672 -108.166964 
L 118.876042 -108.763124 
L 118.100412 -109.398494 
L 117.324782 -109.99977 
L 116.549152 -110.483369 
L 115.773522 -110.770603 
L 114.997891 -110.802953 
L 114.222261 -110.553108 
L 113.446631 -110.028761 
L 112.671001 -109.269838 
L 111.895371 -108.342859 
L 111.119741 -107.334742 
L 110.34411 -106.344154 
L 109.56848 -105.467444 
L 108.79285 -104.780708 
L 108.01722 -104.324946 
L 107.24159 -104.100954 
L 106.46596 -104.074619 
L 105.69033 -104.188552 
L 104.914699 -104.376532 
L 104.139069 -104.578984 
L 103.363439 -104.75554 
L 102.587809 -104.88749 
L 101.812179 -104.966331 
L 101.036549 -104.974648 
L 100.260919 -104.873322 
L 99.485288 -104.605921 
L 98.709658 -104.120185 
L 97.934028 -103.398006 
L 97.158398 -102.483362 
L 96.382768 -101.498372 
L 95.607138 -100.637261 
L 94.831507 -100.129688 
L 94.055877 -100.175487 
L 93.280247 -100.870291 
L 92.504617 -102.153281 
L 91.728987 -103.803327 
L 90.953357 -105.489771 
L 90.177727 -106.861732 
L 89.402096 -107.646924 
L 88.626466 -107.729263 
L 87.850836 -107.180797 
L 87.075206 -106.235167 
L 86.299576 -105.207455 
L 85.523946 -104.386447 
L 84.748316 -103.940274 
L 83.972685 -103.873507 
L 83.197055 -104.049671 
L 82.421425 -104.262224 
L 81.645795 -104.319079 
L 80.870165 -104.108979 
L 80.094535 -103.633208 
L 79.318904 -102.998304 
L 78.543274 -102.372706 
L 77.767644 -101.921609 
L 76.992014 -101.748189 
L 76.216384 -101.870777 
L 75.440754 -102.244701 
L 74.665124 -102.807309 
L 73.889493 -103.512584 
L 73.113863 -104.336901 
L 72.338233 -105.261358 
L 71.562603 -106.246676 
L 70.786973 -107.212661 
L 70.011343 -108.030964 
L 69.235713 -108.541957 
L 68.460082 -108.602662 
L 67.684452 -108.153133 
L 66.908822 -107.266511 
L 66.133192 -106.14866 
L 65.357562 -105.079769 
L 64.581932 -104.322385 
L 63.806301 -104.03734 
L 63.030671 -104.241508 
L 62.255041 -104.818323 
L 61.479411 -105.570754 
L 60.703781 -106.294497 
L 59.928151 -106.845538 
L 59.152521 -107.179701 
L 58.37689 -107.350666 
L 57.60126 -107.467253 
L 56.82563 -107.628505 
L 56.05 -107.867997 
z
" style="stroke: #377eb8; stroke-opacity: 0.3"/>
    </defs>
    <g clip-path="url(#p65b6879e17)">
     <use xlink:href="#mfa72bf68c3" x="0" y="360" style="fill: #377eb8; fill-opacity: 0.3; stroke: #377eb8; stroke-opacity: 0.3"/>
    </g>
   </g>
   <g id="patch_3">
    <path d="M 234.60006 318.2 
L 234.60006 71.241125 
L 333.88072 71.241125 
L 333.88072 318.2 
z
" clip-path="url(#p65b6879e17)" style="fill: #808080; opacity: 0.3"/>
   </g>
   <g id="matplotlib.axis_1">
    <g id="xtick_1">
     <g id="line2d_1">
      <defs>
       <path id="m4f9facf7ae" d="M 0 0 
L 0 3.5 
" style="stroke: #000000; stroke-width: 0.8"/>
      </defs>
      <g>
       <use xlink:href="#m4f9facf7ae" x="95.607138" y="318.2" style="stroke: #000000; stroke-width: 0.8"/>
      </g>
     </g>
     <g id="text_1">
      <!-- 0.0 -->
      <g transform="translate(87.655575 332.798437)scale(0.1 -0.1)">
       <defs>
        <path id="DejaVuSans-30" d="M 2034 4250 
Q 1547 4250 1301 3770 
Q 1056 3291 1056 2328 
Q 1056 1369 1301 889 
Q 1547 409 2034 409 
Q 2525 409 2770 889 
Q 3016 1369 3016 2328 
Q 3016 3291 2770 3770 
Q 2525 4250 2034 4250 
z
M 2034 4750 
Q 2819 4750 3233 4129 
Q 3647 3509 3647 2328 
Q 3647 1150 3233 529 
Q 2819 -91 2034 -91 
Q 1250 -91 836 529 
Q 422 1150 422 2328 
Q 422 3509 836 4129 
Q 1250 4750 2034 4750 
z
" transform="scale(0.015625)"/>
        <path id="DejaVuSans-2e" d="M 684 794 
L 1344 794 
L 1344 0 
L 684 0 
L 684 794 
z
" transform="scale(0.015625)"/>
       </defs>
       <use xlink:href="#DejaVuSans-30"/>
       <use xlink:href="#DejaVuSans-2e" x="63.623047"/>
       <use xlink:href="#DejaVuSans-30" x="95.410156"/>
      </g>
     </g>
    </g>
    <g id="xtick_2">
     <g id="line2d_2">
      <g>
       <use xlink:href="#m4f9facf7ae" x="175.031665" y="318.2" style="stroke: #000000; stroke-width: 0.8"/>
      </g>
     </g>
     <g id="text_2">
      <!-- 0.2 -->
      <g transform="translate(167.080102 332.798437)scale(0.1 -0.1)">
       <defs>
        <path id="DejaVuSans-32" d="M 1228 531 
L 3431 531 
L 3431 0 
L 469 0 
L 469 531 
Q 828 903 1448 1529 
Q 2069 2156 2228 2338 
Q 2531 2678 2651 2914 
Q 2772 3150 2772 3378 
Q 2772 3750 2511 3984 
Q 2250 4219 1831 4219 
Q 1534 4219 1204 4116 
Q 875 4013 500 3803 
L 500 4441 
Q 881 4594 1212 4672 
Q 1544 4750 1819 4750 
Q 2544 4750 2975 4387 
Q 3406 4025 3406 3419 
Q 3406 3131 3298 2873 
Q 3191 2616 2906 2266 
Q 2828 2175 2409 1742 
Q 1991 1309 1228 531 
z
" transform="scale(0.015625)"/>
       </defs>
       <use xlink:href="#DejaVuSans-30"/>
       <use xlink:href="#DejaVuSans-2e" x="63.623047"/>
       <use xlink:href="#DejaVuSans-32" x="95.410156"/>
      </g>
     </g>
    </g>
    <g id="xtick_3">
     <g id="line2d_3">
      <g>
       <use xlink:href="#m4f9facf7ae" x="254.456192" y="318.2" style="stroke: #000000; stroke-width: 0.8"/>
      </g>
     </g>
     <g id="text_3">
      <!-- 0.4 -->
      <g transform="translate(246.50463 332.798437)scale(0.1 -0.1)">
       <defs>
        <path id="DejaVuSans-34" d="M 2419 4116 
L 825 1625 
L 2419 1625 
L 2419 4116 
z
M 2253 4666 
L 3047 4666 
L 3047 1625 
L 3713 1625 
L 3713 1100 
L 3047 1100 
L 3047 0 
L 2419 0 
L 2419 1100 
L 313 1100 
L 313 1709 
L 2253 4666 
z
" transform="scale(0.015625)"/>
       </defs>
       <use xlink:href="#DejaVuSans-30"/>
       <use xlink:href="#DejaVuSans-2e" x="63.623047"/>
       <use xlink:href="#DejaVuSans-34" x="95.410156"/>
      </g>
     </g>
    </g>
    <g id="xtick_4">
     <g id="line2d_4">
      <g>
       <use xlink:href="#m4f9facf7ae" x="333.88072" y="318.2" style="stroke: #000000; stroke-width: 0.8"/>
      </g>
     </g>
     <g id="text_4">
      <!-- 0.6 -->
      <g transform="translate(325.929157 332.798437)scale(0.1 -0.1)">
       <defs>
        <path id="DejaVuSans-36" d="M 2113 2584 
Q 1688 2584 1439 2293 
Q 1191 2003 1191 1497 
Q 1191 994 1439 701 
Q 1688 409 2113 409 
Q 2538 409 2786 701 
Q 3034 994 3034 1497 
Q 3034 2003 2786 2293 
Q 2538 2584 2113 2584 
z
M 3366 4563 
L 3366 3988 
Q 3128 4100 2886 4159 
Q 2644 4219 2406 4219 
Q 1781 4219 1451 3797 
Q 1122 3375 1075 2522 
Q 1259 2794 1537 2939 
Q 1816 3084 2150 3084 
Q 2853 3084 3261 2657 
Q 3669 2231 3669 1497 
Q 3669 778 3244 343 
Q 2819 -91 2113 -91 
Q 1303 -91 875 529 
Q 447 1150 447 2328 
Q 447 3434 972 4092 
Q 1497 4750 2381 4750 
Q 2619 4750 2861 4703 
Q 3103 4656 3366 4563 
z
" transform="scale(0.015625)"/>
       </defs>
       <use xlink:href="#DejaVuSans-30"/>
       <use xlink:href="#DejaVuSans-2e" x="63.623047"/>
       <use xlink:href="#DejaVuSans-36" x="95.410156"/>
      </g>
     </g>
    </g>
    <g id="xtick_5">
     <g id="line2d_5">
      <g>
       <use xlink:href="#m4f9facf7ae" x="413.305247" y="318.2" style="stroke: #000000; stroke-width: 0.8"/>
      </g>
     </g>
     <g id="text_5">
      <!-- 0.8 -->
      <g transform="translate(405.353684 332.798437)scale(0.1 -0.1)">
       <defs>
        <path id="DejaVuSans-38" d="M 2034 2216 
Q 1584 2216 1326 1975 
Q 1069 1734 1069 1313 
Q 1069 891 1326 650 
Q 1584 409 2034 409 
Q 2484 409 2743 651 
Q 3003 894 3003 1313 
Q 3003 1734 2745 1975 
Q 2488 2216 2034 2216 
z
M 1403 2484 
Q 997 2584 770 2862 
Q 544 3141 544 3541 
Q 544 4100 942 4425 
Q 1341 4750 2034 4750 
Q 2731 4750 3128 4425 
Q 3525 4100 3525 3541 
Q 3525 3141 3298 2862 
Q 3072 2584 2669 2484 
Q 3125 2378 3379 2068 
Q 3634 1759 3634 1313 
Q 3634 634 3220 271 
Q 2806 -91 2034 -91 
Q 1263 -91 848 271 
Q 434 634 434 1313 
Q 434 1759 690 2068 
Q 947 2378 1403 2484 
z
M 1172 3481 
Q 1172 3119 1398 2916 
Q 1625 2713 2034 2713 
Q 2441 2713 2670 2916 
Q 2900 3119 2900 3481 
Q 2900 3844 2670 4047 
Q 2441 4250 2034 4250 
Q 1625 4250 1398 4047 
Q 1172 3844 1172 3481 
z
" transform="scale(0.015625)"/>
       </defs>
       <use xlink:href="#DejaVuSans-30"/>
       <use xlink:href="#DejaVuSans-2e" x="63.623047"/>
       <use xlink:href="#DejaVuSans-38" x="95.410156"/>
      </g>
     </g>
    </g>
    <g id="text_6">
     <!-- seconds -->
     <g transform="translate(214.395249 346.476562)scale(0.1 -0.1)">
      <defs>
       <path id="DejaVuSans-73" d="M 2834 3397 
L 2834 2853 
Q 2591 2978 2328 3040 
Q 2066 3103 1784 3103 
Q 1356 3103 1142 2972 
Q 928 2841 928 2578 
Q 928 2378 1081 2264 
Q 1234 2150 1697 2047 
L 1894 2003 
Q 2506 1872 2764 1633 
Q 3022 1394 3022 966 
Q 3022 478 2636 193 
Q 2250 -91 1575 -91 
Q 1294 -91 989 -36 
Q 684 19 347 128 
L 347 722 
Q 666 556 975 473 
Q 1284 391 1588 391 
Q 1994 391 2212 530 
Q 2431 669 2431 922 
Q 2431 1156 2273 1281 
Q 2116 1406 1581 1522 
L 1381 1569 
Q 847 1681 609 1914 
Q 372 2147 372 2553 
Q 372 3047 722 3315 
Q 1072 3584 1716 3584 
Q 2034 3584 2315 3537 
Q 2597 3491 2834 3397 
z
" transform="scale(0.015625)"/>
       <path id="DejaVuSans-65" d="M 3597 1894 
L 3597 1613 
L 953 1613 
Q 991 1019 1311 708 
Q 1631 397 2203 397 
Q 2534 397 2845 478 
Q 3156 559 3463 722 
L 3463 178 
Q 3153 47 2828 -22 
Q 2503 -91 2169 -91 
Q 1331 -91 842 396 
Q 353 884 353 1716 
Q 353 2575 817 3079 
Q 1281 3584 2069 3584 
Q 2775 3584 3186 3129 
Q 3597 2675 3597 1894 
z
M 3022 2063 
Q 3016 2534 2758 2815 
Q 2500 3097 2075 3097 
Q 1594 3097 1305 2825 
Q 1016 2553 972 2059 
L 3022 2063 
z
" transform="scale(0.015625)"/>
       <path id="DejaVuSans-63" d="M 3122 3366 
L 3122 2828 
Q 2878 2963 2633 3030 
Q 2388 3097 2138 3097 
Q 1578 3097 1268 2742 
Q 959 2388 959 1747 
Q 959 1106 1268 751 
Q 1578 397 2138 397 
Q 2388 397 2633 464 
Q 2878 531 3122 666 
L 3122 134 
Q 2881 22 2623 -34 
Q 2366 -91 2075 -91 
Q 1284 -91 818 406 
Q 353 903 353 1747 
Q 353 2603 823 3093 
Q 1294 3584 2113 3584 
Q 2378 3584 2631 3529 
Q 2884 3475 3122 3366 
z
" transform="scale(0.015625)"/>
       <path id="DejaVuSans-6f" d="M 1959 3097 
Q 1497 3097 1228 2736 
Q 959 2375 959 1747 
Q 959 1119 1226 758 
Q 1494 397 1959 397 
Q 2419 397 2687 759 
Q 2956 1122 2956 1747 
Q 2956 2369 2687 2733 
Q 2419 3097 1959 3097 
z
M 1959 3584 
Q 2709 3584 3137 3096 
Q 3566 2609 3566 1747 
Q 3566 888 3137 398 
Q 2709 -91 1959 -91 
Q 1206 -91 779 398 
Q 353 888 353 1747 
Q 353 2609 779 3096 
Q 1206 3584 1959 3584 
z
" transform="scale(0.015625)"/>
       <path id="DejaVuSans-6e" d="M 3513 2113 
L 3513 0 
L 2938 0 
L 2938 2094 
Q 2938 2591 2744 2837 
Q 2550 3084 2163 3084 
Q 1697 3084 1428 2787 
Q 1159 2491 1159 1978 
L 1159 0 
L 581 0 
L 581 3500 
L 1159 3500 
L 1159 2956 
Q 1366 3272 1645 3428 
Q 1925 3584 2291 3584 
Q 2894 3584 3203 3211 
Q 3513 2838 3513 2113 
z
" transform="scale(0.015625)"/>
       <path id="DejaVuSans-64" d="M 2906 2969 
L 2906 4863 
L 3481 4863 
L 3481 0 
L 2906 0 
L 2906 525 
Q 2725 213 2448 61 
Q 2172 -91 1784 -91 
Q 1150 -91 751 415 
Q 353 922 353 1747 
Q 353 2572 751 3078 
Q 1150 3584 1784 3584 
Q 2172 3584 2448 3432 
Q 2725 3281 2906 2969 
z
M 947 1747 
Q 947 1113 1208 752 
Q 1469 391 1925 391 
Q 2381 391 2643 752 
Q 2906 1113 2906 1747 
Q 2906 2381 2643 2742 
Q 2381 3103 1925 3103 
Q 1469 3103 1208 2742 
Q 947 2381 947 1747 
z
" transform="scale(0.015625)"/>
      </defs>
      <use xlink:href="#DejaVuSans-73"/>
      <use xlink:href="#DejaVuSans-65" x="52.099609"/>
      <use xlink:href="#DejaVuSans-63" x="113.623047"/>
      <use xlink:href="#DejaVuSans-6f" x="168.603516"/>
      <use xlink:href="#DejaVuSans-6e" x="229.785156"/>
      <use xlink:href="#DejaVuSans-64" x="293.164062"/>
      <use xlink:href="#DejaVuSans-73" x="356.640625"/>
     </g>
    </g>
   </g>
   <g id="matplotlib.axis_2">
    <g id="ytick_1">
     <g id="line2d_6">
      <defs>
       <path id="mbf90a13cce" d="M 0 0 
L -3.5 0 
" style="stroke: #000000; stroke-width: 0.8"/>
      </defs>
      <g>
       <use xlink:href="#mbf90a13cce" x="56.05" y="292.205191" style="stroke: #000000; stroke-width: 0.8"/>
      </g>
     </g>
     <g id="text_7">
      <!-- 0.5 -->
      <g transform="translate(24.767187 296.00441)scale(0.1 -0.1)">
       <defs>
        <path id="DejaVuSans-2212" d="M 678 2272 
L 4684 2272 
L 4684 1741 
L 678 1741 
L 678 2272 
z
" transform="scale(0.015625)"/>
        <path id="DejaVuSans-35" d="M 691 4666 
L 3169 4666 
L 3169 4134 
L 1269 4134 
L 1269 2991 
Q 1406 3038 1543 3061 
Q 1681 3084 1819 3084 
Q 2600 3084 3056 2656 
Q 3513 2228 3513 1497 
Q 3513 744 3044 326 
Q 2575 -91 1722 -91 
Q 1428 -91 1123 -41 
Q 819 9 494 109 
L 494 744 
Q 775 591 1075 516 
Q 1375 441 1709 441 
Q 2250 441 2565 725 
Q 2881 1009 2881 1497 
Q 2881 1984 2565 2268 
Q 2250 2553 1709 2553 
Q 1456 2553 1204 2497 
Q 953 2441 691 2322 
L 691 4666 
z
" transform="scale(0.015625)"/>
       </defs>
       <use xlink:href="#DejaVuSans-2212"/>
       <use xlink:href="#DejaVuSans-30" x="83.789062"/>
       <use xlink:href="#DejaVuSans-2e" x="147.412109"/>
       <use xlink:href="#DejaVuSans-35" x="179.199219"/>
      </g>
     </g>
    </g>
    <g id="ytick_2">
     <g id="line2d_7">
      <g>
       <use xlink:href="#mbf90a13cce" x="56.05" y="258.920478" style="stroke: #000000; stroke-width: 0.8"/>
      </g>
     </g>
     <g id="text_8">
      <!-- 0.0 -->
      <g transform="translate(33.146875 262.719697)scale(0.1 -0.1)">
       <use xlink:href="#DejaVuSans-30"/>
       <use xlink:href="#DejaVuSans-2e" x="63.623047"/>
       <use xlink:href="#DejaVuSans-30" x="95.410156"/>
      </g>
     </g>
    </g>
    <g id="ytick_3">
     <g id="line2d_8">
      <g>
       <use xlink:href="#mbf90a13cce" x="56.05" y="225.635765" style="stroke: #000000; stroke-width: 0.8"/>
      </g>
     </g>
     <g id="text_9">
      <!-- 0.5 -->
      <g transform="translate(33.146875 229.434984)scale(0.1 -0.1)">
       <use xlink:href="#DejaVuSans-30"/>
       <use xlink:href="#DejaVuSans-2e" x="63.623047"/>
       <use xlink:href="#DejaVuSans-35" x="95.410156"/>
      </g>
     </g>
    </g>
    <g id="ytick_4">
     <g id="line2d_9">
      <g>
       <use xlink:href="#mbf90a13cce" x="56.05" y="192.351052" style="stroke: #000000; stroke-width: 0.8"/>
      </g>
     </g>
     <g id="text_10">
      <!-- 1.0 -->
      <g transform="translate(33.146875 196.150271)scale(0.1 -0.1)">
       <defs>
        <path id="DejaVuSans-31" d="M 794 531 
L 1825 531 
L 1825 4091 
L 703 3866 
L 703 4441 
L 1819 4666 
L 2450 4666 
L 2450 531 
L 3481 531 
L 3481 0 
L 794 0 
L 794 531 
z
" transform="scale(0.015625)"/>
       </defs>
       <use xlink:href="#DejaVuSans-31"/>
       <use xlink:href="#DejaVuSans-2e" x="63.623047"/>
       <use xlink:href="#DejaVuSans-30" x="95.410156"/>
      </g>
     </g>
    </g>
    <g id="ytick_5">
     <g id="line2d_10">
      <g>
       <use xlink:href="#mbf90a13cce" x="56.05" y="159.066339" style="stroke: #000000; stroke-width: 0.8"/>
      </g>
     </g>
     <g id="text_11">
      <!-- 1.5 -->
      <g transform="translate(33.146875 162.865558)scale(0.1 -0.1)">
       <use xlink:href="#DejaVuSans-31"/>
       <use xlink:href="#DejaVuSans-2e" x="63.623047"/>
       <use xlink:href="#DejaVuSans-35" x="95.410156"/>
      </g>
     </g>
    </g>
    <g id="ytick_6">
     <g id="line2d_11">
      <g>
       <use xlink:href="#mbf90a13cce" x="56.05" y="125.781626" style="stroke: #000000; stroke-width: 0.8"/>
      </g>
     </g>
     <g id="text_12">
      <!-- 2.0 -->
      <g transform="translate(33.146875 129.580844)scale(0.1 -0.1)">
       <use xlink:href="#DejaVuSans-32"/>
       <use xlink:href="#DejaVuSans-2e" x="63.623047"/>
       <use xlink:href="#DejaVuSans-30" x="95.410156"/>
      </g>
     </g>
    </g>
    <g id="ytick_7">
     <g id="line2d_12">
      <g>
       <use xlink:href="#mbf90a13cce" x="56.05" y="92.496913" style="stroke: #000000; stroke-width: 0.8"/>
      </g>
     </g>
     <g id="text_13">
      <!-- 2.5 -->
      <g transform="translate(33.146875 96.296131)scale(0.1 -0.1)">
       <use xlink:href="#DejaVuSans-32"/>
       <use xlink:href="#DejaVuSans-2e" x="63.623047"/>
       <use xlink:href="#DejaVuSans-35" x="95.410156"/>
      </g>
     </g>
    </g>
    <g id="text_14">
     <!-- V -->
     <g transform="translate(18.6875 201.322125)rotate(-90)scale(0.1 -0.1)">
      <defs>
       <path id="DejaVuSans-b5" d="M 544 -1331 
L 544 3500 
L 1119 3500 
L 1119 1325 
Q 1119 872 1334 640 
Q 1550 409 1972 409 
Q 2434 409 2667 671 
Q 2900 934 2900 1459 
L 2900 3500 
L 3475 3500 
L 3475 806 
Q 3475 619 3529 530 
Q 3584 441 3700 441 
Q 3728 441 3778 458 
Q 3828 475 3916 513 
L 3916 50 
Q 3788 -22 3673 -56 
Q 3559 -91 3450 -91 
Q 3234 -91 3106 31 
Q 2978 153 2931 403 
Q 2775 156 2548 32 
Q 2322 -91 2016 -91 
Q 1697 -91 1473 31 
Q 1250 153 1119 397 
L 1119 -1331 
L 544 -1331 
z
" transform="scale(0.015625)"/>
       <path id="DejaVuSans-56" d="M 1831 0 
L 50 4666 
L 709 4666 
L 2188 738 
L 3669 4666 
L 4325 4666 
L 2547 0 
L 1831 0 
z
" transform="scale(0.015625)"/>
      </defs>
      <use xlink:href="#DejaVuSans-b5"/>
      <use xlink:href="#DejaVuSans-56" x="63.623047"/>
     </g>
    </g>
   </g>
   <g id="line2d_13">
    <path d="M 56.05 255.422893 
L 56.82563 256.726332 
L 58.37689 260.013013 
L 59.152521 261.305706 
L 59.928151 261.973302 
L 60.703781 261.901181 
L 61.479411 261.16337 
L 63.806301 257.632206 
L 64.581932 256.961213 
L 65.357562 256.775103 
L 66.133192 257.010112 
L 69.235713 258.916669 
L 70.011343 259.05709 
L 71.562603 258.934675 
L 73.113863 258.750682 
L 73.889493 258.822501 
L 74.665124 259.086376 
L 75.440754 259.570133 
L 78.543274 262.176723 
L 79.318904 262.195253 
L 80.094535 261.710805 
L 80.870165 260.785854 
L 82.421425 258.485157 
L 83.197055 257.651833 
L 83.972685 257.274533 
L 84.748316 257.343395 
L 86.299576 258.053522 
L 87.075206 258.203893 
L 87.850836 258.032927 
L 89.402096 257.152441 
L 90.177727 256.925657 
L 90.953357 257.117943 
L 91.728987 257.741659 
L 93.280247 259.394681 
L 94.055877 259.765351 
L 94.831507 259.518025 
L 95.607138 258.673873 
L 97.158398 256.343279 
L 97.934028 255.648904 
L 98.709658 255.656449 
L 99.485288 256.394074 
L 101.812179 260.385373 
L 102.587809 261.183408 
L 103.363439 261.369634 
L 104.139069 260.941222 
L 104.914699 259.982455 
L 105.69033 258.60509 
L 107.24159 255.024473 
L 108.79285 251.312028 
L 109.56848 250.001078 
L 110.34411 249.437138 
L 111.119741 249.805624 
L 111.895371 251.090784 
L 114.222261 256.991136 
L 114.997891 258.07834 
L 115.773522 258.292808 
L 116.549152 257.819828 
L 117.324782 257.108374 
L 118.100412 256.698152 
L 118.876042 256.999293 
L 119.651672 258.110105 
L 121.202933 261.321085 
L 121.978563 262.131458 
L 122.754193 261.615006 
L 123.529823 259.552104 
L 124.305453 256.159653 
L 125.856713 247.987078 
L 126.632344 244.776444 
L 127.407974 242.92147 
L 128.183604 242.566664 
L 128.959234 243.487915 
L 131.286125 248.83819 
L 132.061755 249.968271 
L 132.837385 250.45833 
L 133.613015 250.403208 
L 134.388645 249.997916 
L 135.939905 248.978931 
L 136.715536 248.694227 
L 137.491166 248.699377 
L 138.266796 249.04584 
L 139.042426 249.738039 
L 140.593686 251.839876 
L 141.369316 252.889677 
L 142.144947 253.602111 
L 142.920577 253.734732 
L 143.696207 253.145277 
L 144.471837 251.855667 
L 146.798727 246.48681 
L 147.574358 245.432776 
L 148.349988 245.157696 
L 149.125618 245.608775 
L 150.676878 247.509536 
L 151.452508 248.173469 
L 152.228139 248.236435 
L 153.003769 247.614176 
L 153.779399 246.424292 
L 156.106289 242.098838 
L 156.881919 241.067099 
L 158.43318 239.402278 
L 159.20881 238.368501 
L 159.98444 236.991334 
L 161.5357 233.297116 
L 163.086961 229.505348 
L 163.862591 228.039646 
L 164.638221 226.956535 
L 165.413851 226.204877 
L 166.965111 225.285259 
L 168.516372 224.785028 
L 169.292002 224.793464 
L 170.067632 225.095371 
L 170.843262 225.744797 
L 171.618892 226.7241 
L 174.721413 231.556902 
L 175.497043 232.365679 
L 176.272673 232.920143 
L 177.823933 233.527373 
L 178.599564 233.793615 
L 179.375194 234.194626 
L 180.150824 234.831714 
L 180.926454 235.760082 
L 182.477714 238.308304 
L 183.253345 239.588052 
L 184.028975 240.510705 
L 184.804605 240.790735 
L 185.580235 240.23584 
L 186.355865 238.832188 
L 188.682756 232.562807 
L 189.458386 231.41088 
L 190.234016 231.40051 
L 191.009646 232.587239 
L 191.785276 234.723763 
L 193.336536 239.806154 
L 194.112167 241.643459 
L 194.887797 242.512569 
L 195.663427 242.352814 
L 196.439057 241.346045 
L 200.317208 233.942766 
L 201.868468 231.408553 
L 203.419728 228.111721 
L 204.970989 224.57347 
L 205.746619 223.161002 
L 206.522249 222.185846 
L 207.297879 221.683004 
L 208.073509 221.566116 
L 209.62477 221.605413 
L 210.4004 221.172429 
L 211.17603 220.074085 
L 211.95166 218.168946 
L 212.72729 215.494168 
L 215.054181 206.016095 
L 215.829811 203.9112 
L 216.605441 202.942388 
L 217.381071 203.140306 
L 218.156701 204.249749 
L 219.707962 207.228071 
L 220.483592 208.081884 
L 221.259222 208.125026 
L 222.034852 207.411558 
L 224.361742 204.083049 
L 225.137373 203.620641 
L 225.913003 203.546028 
L 226.688633 203.591119 
L 227.464263 203.426083 
L 228.239893 202.813037 
L 229.015523 201.719524 
L 230.566784 199.050411 
L 231.342414 198.220693 
L 232.118044 198.116864 
L 232.893674 198.776213 
L 235.220565 202.628332 
L 235.996195 203.319984 
L 236.771825 203.352341 
L 237.547455 202.770491 
L 238.323085 201.749603 
L 245.303756 190.471614 
L 246.855017 187.10927 
L 249.957537 179.46134 
L 250.733168 178.214877 
L 251.508798 177.512615 
L 252.284428 177.264452 
L 253.060058 177.192848 
L 253.835688 176.898118 
L 254.611318 175.988414 
L 255.386948 174.230662 
L 256.162579 171.662728 
L 257.713839 165.623763 
L 258.489469 163.251042 
L 259.265099 161.885147 
L 260.040729 161.585001 
L 260.816359 162.038065 
L 261.59199 162.651078 
L 262.36762 162.746305 
L 263.14325 161.794999 
L 263.91888 159.604076 
L 265.47014 152.699076 
L 266.245771 149.242818 
L 267.021401 146.641846 
L 267.797031 145.233735 
L 268.572661 144.969348 
L 270.123921 146.031053 
L 270.899551 146.102667 
L 271.675182 145.200953 
L 272.450812 143.165474 
L 273.226442 140.147783 
L 275.553332 129.421328 
L 276.328962 126.676963 
L 277.104593 124.703739 
L 277.880223 123.469115 
L 278.655853 122.83719 
L 279.431483 122.634175 
L 280.207113 122.69842 
L 284.085264 123.694213 
L 285.636524 123.668043 
L 287.187785 123.610928 
L 288.739045 123.638577 
L 289.514675 123.461153 
L 290.290305 122.915192 
L 291.065935 121.821232 
L 291.841565 120.086753 
L 292.617196 117.766356 
L 294.944086 110.072084 
L 295.719716 108.469478 
L 296.495346 107.727236 
L 297.270976 107.763564 
L 298.822237 108.849781 
L 299.597867 109.053416 
L 300.373497 108.616909 
L 301.149127 107.505616 
L 302.700388 104.32371 
L 303.476018 103.111616 
L 304.251648 102.653216 
L 305.027278 103.073816 
L 305.802908 104.229482 
L 307.354168 107.17876 
L 308.129799 108.094312 
L 308.905429 108.284329 
L 309.681059 107.803272 
L 311.232319 106.248838 
L 312.007949 106.161546 
L 312.783579 107.086666 
L 313.55921 109.177185 
L 314.33484 112.312382 
L 316.66173 123.728827 
L 317.43736 126.531329 
L 318.212991 128.272186 
L 318.988621 128.937649 
L 319.764251 128.738907 
L 321.315511 127.316121 
L 322.091141 126.933884 
L 322.866771 127.162262 
L 323.642402 128.054501 
L 325.969292 132.345056 
L 326.744922 133.093673 
L 327.520552 133.070028 
L 328.296182 132.319306 
L 329.847443 129.924973 
L 330.623073 129.21344 
L 331.398703 129.37141 
L 332.174333 130.564426 
L 332.949963 132.687706 
L 335.276854 140.610526 
L 336.052484 142.274465 
L 336.828114 143.052567 
L 337.603744 143.04052 
L 338.379374 142.513184 
L 339.155005 141.824056 
L 339.930635 141.294688 
L 340.706265 141.129314 
L 341.481895 141.377373 
L 342.257525 141.947987 
L 343.808785 143.324892 
L 344.584416 143.776867 
L 345.360046 143.937744 
L 346.135676 143.808775 
L 347.686936 142.991627 
L 349.238197 142.171833 
L 350.013827 141.99926 
L 350.789457 142.049242 
L 351.565087 142.320149 
L 353.116347 143.331353 
L 354.667608 144.420251 
L 355.443238 144.797508 
L 356.218868 145.019343 
L 358.545758 145.266042 
L 359.321388 145.559962 
L 360.097019 146.152065 
L 360.872649 147.115113 
L 361.648279 148.463325 
L 363.199539 152.019807 
L 364.750799 155.607032 
L 365.52643 156.887908 
L 366.30206 157.605313 
L 367.07769 157.707667 
L 367.85332 157.26612 
L 370.180211 154.755308 
L 370.955841 154.23307 
L 373.282731 153.532251 
L 374.058361 152.770033 
L 374.833991 151.342447 
L 375.609622 149.214964 
L 377.936512 141.134861 
L 378.712142 139.17932 
L 379.487772 138.110714 
L 380.263402 137.992909 
L 381.039033 138.713615 
L 381.814663 140.048072 
L 383.365923 143.590075 
L 385.692814 148.910462 
L 386.468444 150.364583 
L 387.244074 151.480243 
L 388.019704 152.112231 
L 388.795334 152.142556 
L 389.570964 151.529899 
L 390.346594 150.336188 
L 391.897855 146.867683 
L 393.449115 143.190422 
L 395.000375 140.142766 
L 395.776005 138.976938 
L 396.551636 138.16694 
L 397.327266 137.853668 
L 398.102896 138.167092 
L 398.878526 139.147328 
L 399.654156 140.675752 
L 401.205417 144.068809 
L 401.981047 145.088777 
L 402.756677 145.230566 
L 403.532307 144.462002 
L 405.859197 140.165871 
L 406.634828 139.661739 
L 407.410458 140.05534 
L 408.186088 141.165578 
L 408.961718 142.55453 
L 409.737348 143.683057 
L 410.512978 144.098087 
L 411.288608 143.580414 
L 412.064239 142.19948 
L 413.615499 138.176258 
L 413.615499 138.176258 
" clip-path="url(#p65b6879e17)" style="fill: none; stroke: #e41a1c; stroke-width: 1.5; stroke-linecap: square"/>
   </g>
   <g id="line2d_14">
    <path d="M 56.05 256.637607 
L 57.60126 256.839308 
L 59.152521 256.961763 
L 59.928151 257.226071 
L 60.703781 257.716382 
L 63.030671 259.619092 
L 63.806301 259.768801 
L 64.581932 259.431394 
L 65.357562 258.634424 
L 67.684452 255.515567 
L 68.460082 255.041032 
L 69.235713 255.069843 
L 70.011343 255.555236 
L 71.562603 257.32795 
L 73.113863 259.233578 
L 74.665124 260.755964 
L 75.440754 261.316988 
L 76.216384 261.685843 
L 76.992014 261.800905 
L 77.767644 261.623558 
L 78.543274 261.175468 
L 80.870165 259.452346 
L 81.645795 259.252554 
L 82.421425 259.332429 
L 83.972685 259.786224 
L 84.748316 259.748332 
L 85.523946 259.329743 
L 86.299576 258.539891 
L 87.850836 256.638589 
L 88.626466 256.125414 
L 89.402096 256.243875 
L 90.177727 257.070231 
L 90.953357 258.490385 
L 92.504617 261.940244 
L 93.280247 263.289782 
L 94.055877 264.061803 
L 94.831507 264.195507 
L 95.607138 263.781782 
L 97.158398 262.1212 
L 97.934028 261.296133 
L 98.709658 260.66072 
L 99.485288 260.254479 
L 100.260919 260.054337 
L 101.812179 260.062681 
L 103.363439 260.36331 
L 106.46596 261.208501 
L 107.24159 261.217162 
L 108.01722 261.024514 
L 108.79285 260.598462 
L 109.56848 259.943084 
L 111.119741 258.143237 
L 112.671001 256.263606 
L 113.446631 255.529396 
L 114.222261 255.03182 
L 114.997891 254.811112 
L 115.773522 254.873264 
L 116.549152 255.189769 
L 118.100412 256.334134 
L 119.651672 257.630547 
L 121.202933 258.590218 
L 122.754193 259.088146 
L 124.305453 259.205099 
L 125.081083 259.116853 
L 125.856713 258.898056 
L 126.632344 258.514705 
L 127.407974 257.941544 
L 128.183604 257.176583 
L 129.734864 255.229711 
L 131.286125 253.279688 
L 132.061755 252.545823 
L 132.837385 252.066404 
L 133.613015 251.860523 
L 134.388645 251.899826 
L 135.939905 252.42501 
L 137.491166 253.019075 
L 139.818056 253.75262 
L 140.593686 254.160329 
L 142.144947 255.405638 
L 143.696207 256.688554 
L 144.471837 256.985779 
L 145.247467 256.888862 
L 146.023097 256.366917 
L 146.798727 255.487427 
L 149.125618 252.326913 
L 149.901248 251.597029 
L 150.676878 251.093987 
L 153.003769 249.866584 
L 155.330659 247.911344 
L 156.106289 247.549331 
L 156.881919 247.582483 
L 157.65755 248.034377 
L 159.98444 250.261263 
L 160.76007 250.464681 
L 161.5357 250.12236 
L 162.31133 249.282638 
L 163.862591 246.987418 
L 164.638221 246.096241 
L 165.413851 245.657772 
L 166.189481 245.713024 
L 166.965111 246.149762 
L 168.516372 247.244809 
L 169.292002 247.437982 
L 170.067632 247.225398 
L 170.843262 246.63917 
L 173.170153 244.351224 
L 173.945783 244.056331 
L 174.721413 244.173665 
L 175.497043 244.675568 
L 177.048303 246.397609 
L 178.599564 248.243371 
L 181.702084 251.381671 
L 182.477714 252.456899 
L 183.253345 253.803689 
L 184.804605 257.32375 
L 187.907125 265.917612 
L 190.234016 271.953229 
L 191.785276 275.353454 
L 192.560906 276.677892 
L 193.336536 277.640821 
L 194.112167 278.198643 
L 194.887797 278.377138 
L 197.214687 278.011209 
L 197.990317 278.209562 
L 198.765948 278.785146 
L 199.541578 279.72196 
L 201.868468 283.089305 
L 202.644098 283.702023 
L 203.419728 283.832694 
L 204.195359 283.498143 
L 204.970989 282.819544 
L 206.522249 281.212562 
L 207.297879 280.674449 
L 208.073509 280.481749 
L 208.849139 280.647762 
L 211.17603 282.006566 
L 211.95166 282.00044 
L 212.72729 281.379041 
L 213.50292 280.012708 
L 214.27855 277.905509 
L 215.829811 272.231062 
L 216.605441 269.325663 
L 217.381071 266.860074 
L 218.156701 265.096134 
L 218.932331 264.12588 
L 219.707962 263.849254 
L 222.034852 264.372961 
L 222.810482 264.121786 
L 223.586112 263.538816 
L 225.137373 262.125639 
L 225.913003 261.780233 
L 226.688633 261.889917 
L 227.464263 262.451057 
L 229.015523 264.370346 
L 230.566784 266.331572 
L 232.118044 268.200459 
L 232.893674 269.353401 
L 234.444934 272.309766 
L 235.996195 275.379915 
L 236.771825 276.558298 
L 237.547455 277.41239 
L 239.874345 279.272146 
L 240.649976 280.250129 
L 241.425606 281.545908 
L 243.752496 286.075906 
L 244.528126 287.228439 
L 245.303756 288.05521 
L 246.079387 288.605194 
L 251.508798 291.328275 
L 252.284428 291.907976 
L 253.060058 292.666623 
L 253.835688 293.646534 
L 256.162579 297.203205 
L 256.938209 298.045339 
L 257.713839 298.458772 
L 258.489469 298.42011 
L 259.265099 298.024154 
L 260.816359 296.883132 
L 261.59199 296.464798 
L 263.14325 296.102323 
L 263.91888 295.966545 
L 264.69451 295.70382 
L 265.47014 295.266282 
L 267.797031 293.667962 
L 268.572661 293.426648 
L 270.899551 293.381786 
L 271.675182 293.050384 
L 272.450812 292.320122 
L 273.226442 291.181432 
L 276.328962 285.289142 
L 277.104593 284.219838 
L 277.880223 283.408218 
L 279.431483 282.313282 
L 281.758374 281.192983 
L 284.860894 279.924999 
L 286.412154 279.044388 
L 288.739045 277.706657 
L 290.290305 277.188261 
L 292.617196 276.80409 
L 294.168456 276.734239 
L 295.719716 276.987841 
L 298.822237 277.807583 
L 301.149127 278.161366 
L 302.700388 278.820114 
L 304.251648 279.516773 
L 305.027278 279.573413 
L 305.802908 279.303733 
L 306.578538 278.706118 
L 308.905429 276.208933 
L 309.681059 275.71024 
L 310.456689 275.549112 
L 311.232319 275.69063 
L 313.55921 276.680367 
L 314.33484 276.816122 
L 315.8861 276.692737 
L 320.539881 275.779501 
L 322.866771 274.878817 
L 323.642402 274.754471 
L 325.969292 274.821232 
L 326.744922 274.640387 
L 327.520552 274.198687 
L 329.071813 272.669742 
L 329.847443 271.873098 
L 330.623073 271.317766 
L 331.398703 271.159815 
L 332.174333 271.455557 
L 332.949963 272.138775 
L 334.501224 273.920327 
L 335.276854 274.565984 
L 336.052484 274.816057 
L 336.828114 274.61193 
L 337.603744 273.997214 
L 339.155005 272.059544 
L 340.706265 270.206316 
L 341.481895 269.604138 
L 342.257525 269.296518 
L 343.033155 269.299181 
L 343.808785 269.598734 
L 344.584416 270.150884 
L 346.911306 272.345381 
L 347.686936 272.796915 
L 348.462566 272.889376 
L 349.238197 272.563357 
L 350.013827 271.840304 
L 351.565087 269.659225 
L 353.116347 267.553534 
L 353.891977 266.826787 
L 354.667608 266.35479 
L 355.443238 266.096205 
L 356.994498 265.977207 
L 358.545758 266.1855 
L 360.097019 266.75008 
L 361.648279 267.414685 
L 362.423909 267.530751 
L 363.199539 267.346059 
L 363.975169 266.796096 
L 364.750799 265.894001 
L 367.85332 261.167164 
L 368.62895 260.321938 
L 370.180211 259.149148 
L 373.282731 257.194378 
L 374.058361 256.875682 
L 374.833991 256.790541 
L 375.609622 256.986571 
L 376.385252 257.445956 
L 379.487772 259.931882 
L 380.263402 260.254478 
L 381.814663 260.501739 
L 384.917183 260.553243 
L 385.692814 260.396021 
L 386.468444 260.085239 
L 388.019704 259.06775 
L 389.570964 258.013015 
L 390.346594 257.665508 
L 391.897855 257.331508 
L 392.673485 257.174212 
L 393.449115 256.870325 
L 394.224745 256.337589 
L 395.000375 255.561558 
L 397.327266 252.660795 
L 398.102896 251.923238 
L 398.878526 251.417795 
L 401.205417 250.500841 
L 401.981047 249.952136 
L 402.756677 249.140444 
L 405.859197 245.083571 
L 406.634828 244.601479 
L 407.410458 244.48104 
L 408.186088 244.648226 
L 409.737348 245.254383 
L 410.512978 245.382401 
L 411.288608 245.259519 
L 412.064239 244.876403 
L 413.615499 243.641242 
L 413.615499 243.641242 
" clip-path="url(#p65b6879e17)" style="fill: none; stroke: #377eb8; stroke-width: 1.5; stroke-linecap: square"/>
   </g>
   <g id="line2d_15">
    <path d="M 95.607138 318.2 
L 95.607138 71.241125 
" clip-path="url(#p65b6879e17)" style="fill: none; stroke: #000000; stroke-width: 0.5; stroke-linecap: square"/>
   </g>
   <g id="line2d_16">
    <path d="M 56.05 258.920478 
L 413.615499 258.920478 
" clip-path="url(#p65b6879e17)" style="fill: none; stroke: #000000; stroke-width: 0.5; stroke-linecap: square"/>
   </g>
   <g id="patch_4">
    <path d="M 56.05 318.2 
L 56.05 71.241125 
" style="fill: none; stroke: #000000; stroke-width: 0.8; stroke-linejoin: miter; stroke-linecap: square"/>
   </g>
   <g id="patch_5">
    <path d="M 413.615499 318.2 
L 413.615499 71.241125 
" style="fill: none; stroke: #000000; stroke-width: 0.8; stroke-linejoin: miter; stroke-linecap: square"/>
   </g>
   <g id="patch_6">
    <path d="M 56.05 318.2 
L 413.615499 318.2 
" style="fill: none; stroke: #000000; stroke-width: 0.8; stroke-linejoin: miter; stroke-linecap: square"/>
   </g>
   <g id="patch_7">
    <path d="M 56.05 71.241125 
L 413.615499 71.241125 
" style="fill: none; stroke: #000000; stroke-width: 0.8; stroke-linejoin: miter; stroke-linecap: square"/>
   </g>
   <g id="legend_1">
    <g id="patch_8">
     <path d="M 98.242906 48.044893 
L 371.422593 48.044893 
Q 373.422593 48.044893 373.422593 46.044893 
L 373.422593 17.410517 
Q 373.422593 15.410517 371.422593 15.410517 
L 98.242906 15.410517 
Q 96.242906 15.410517 96.242906 17.410517 
L 96.242906 46.044893 
Q 96.242906 48.044893 98.242906 48.044893 
z
" style="fill: #ffffff; opacity: 0.8; stroke: #cccccc; stroke-linejoin: miter"/>
    </g>
    <g id="text_15">
     <!-- Average of Session 6tac_all_with_legs at Cz -->
     <g transform="translate(126.169468 27.008955)scale(0.1 -0.1)">
      <defs>
       <path id="DejaVuSans-41" d="M 2188 4044 
L 1331 1722 
L 3047 1722 
L 2188 4044 
z
M 1831 4666 
L 2547 4666 
L 4325 0 
L 3669 0 
L 3244 1197 
L 1141 1197 
L 716 0 
L 50 0 
L 1831 4666 
z
" transform="scale(0.015625)"/>
       <path id="DejaVuSans-76" d="M 191 3500 
L 800 3500 
L 1894 563 
L 2988 3500 
L 3597 3500 
L 2284 0 
L 1503 0 
L 191 3500 
z
" transform="scale(0.015625)"/>
       <path id="DejaVuSans-72" d="M 2631 2963 
Q 2534 3019 2420 3045 
Q 2306 3072 2169 3072 
Q 1681 3072 1420 2755 
Q 1159 2438 1159 1844 
L 1159 0 
L 581 0 
L 581 3500 
L 1159 3500 
L 1159 2956 
Q 1341 3275 1631 3429 
Q 1922 3584 2338 3584 
Q 2397 3584 2469 3576 
Q 2541 3569 2628 3553 
L 2631 2963 
z
" transform="scale(0.015625)"/>
       <path id="DejaVuSans-61" d="M 2194 1759 
Q 1497 1759 1228 1600 
Q 959 1441 959 1056 
Q 959 750 1161 570 
Q 1363 391 1709 391 
Q 2188 391 2477 730 
Q 2766 1069 2766 1631 
L 2766 1759 
L 2194 1759 
z
M 3341 1997 
L 3341 0 
L 2766 0 
L 2766 531 
Q 2569 213 2275 61 
Q 1981 -91 1556 -91 
Q 1019 -91 701 211 
Q 384 513 384 1019 
Q 384 1609 779 1909 
Q 1175 2209 1959 2209 
L 2766 2209 
L 2766 2266 
Q 2766 2663 2505 2880 
Q 2244 3097 1772 3097 
Q 1472 3097 1187 3025 
Q 903 2953 641 2809 
L 641 3341 
Q 956 3463 1253 3523 
Q 1550 3584 1831 3584 
Q 2591 3584 2966 3190 
Q 3341 2797 3341 1997 
z
" transform="scale(0.015625)"/>
       <path id="DejaVuSans-67" d="M 2906 1791 
Q 2906 2416 2648 2759 
Q 2391 3103 1925 3103 
Q 1463 3103 1205 2759 
Q 947 2416 947 1791 
Q 947 1169 1205 825 
Q 1463 481 1925 481 
Q 2391 481 2648 825 
Q 2906 1169 2906 1791 
z
M 3481 434 
Q 3481 -459 3084 -895 
Q 2688 -1331 1869 -1331 
Q 1566 -1331 1297 -1286 
Q 1028 -1241 775 -1147 
L 775 -588 
Q 1028 -725 1275 -790 
Q 1522 -856 1778 -856 
Q 2344 -856 2625 -561 
Q 2906 -266 2906 331 
L 2906 616 
Q 2728 306 2450 153 
Q 2172 0 1784 0 
Q 1141 0 747 490 
Q 353 981 353 1791 
Q 353 2603 747 3093 
Q 1141 3584 1784 3584 
Q 2172 3584 2450 3431 
Q 2728 3278 2906 2969 
L 2906 3500 
L 3481 3500 
L 3481 434 
z
" transform="scale(0.015625)"/>
       <path id="DejaVuSans-20" transform="scale(0.015625)"/>
       <path id="DejaVuSans-66" d="M 2375 4863 
L 2375 4384 
L 1825 4384 
Q 1516 4384 1395 4259 
Q 1275 4134 1275 3809 
L 1275 3500 
L 2222 3500 
L 2222 3053 
L 1275 3053 
L 1275 0 
L 697 0 
L 697 3053 
L 147 3053 
L 147 3500 
L 697 3500 
L 697 3744 
Q 697 4328 969 4595 
Q 1241 4863 1831 4863 
L 2375 4863 
z
" transform="scale(0.015625)"/>
       <path id="DejaVuSans-53" d="M 3425 4513 
L 3425 3897 
Q 3066 4069 2747 4153 
Q 2428 4238 2131 4238 
Q 1616 4238 1336 4038 
Q 1056 3838 1056 3469 
Q 1056 3159 1242 3001 
Q 1428 2844 1947 2747 
L 2328 2669 
Q 3034 2534 3370 2195 
Q 3706 1856 3706 1288 
Q 3706 609 3251 259 
Q 2797 -91 1919 -91 
Q 1588 -91 1214 -16 
Q 841 59 441 206 
L 441 856 
Q 825 641 1194 531 
Q 1563 422 1919 422 
Q 2459 422 2753 634 
Q 3047 847 3047 1241 
Q 3047 1584 2836 1778 
Q 2625 1972 2144 2069 
L 1759 2144 
Q 1053 2284 737 2584 
Q 422 2884 422 3419 
Q 422 4038 858 4394 
Q 1294 4750 2059 4750 
Q 2388 4750 2728 4690 
Q 3069 4631 3425 4513 
z
" transform="scale(0.015625)"/>
       <path id="DejaVuSans-69" d="M 603 3500 
L 1178 3500 
L 1178 0 
L 603 0 
L 603 3500 
z
M 603 4863 
L 1178 4863 
L 1178 4134 
L 603 4134 
L 603 4863 
z
" transform="scale(0.015625)"/>
       <path id="DejaVuSans-74" d="M 1172 4494 
L 1172 3500 
L 2356 3500 
L 2356 3053 
L 1172 3053 
L 1172 1153 
Q 1172 725 1289 603 
Q 1406 481 1766 481 
L 2356 481 
L 2356 0 
L 1766 0 
Q 1100 0 847 248 
Q 594 497 594 1153 
L 594 3053 
L 172 3053 
L 172 3500 
L 594 3500 
L 594 4494 
L 1172 4494 
z
" transform="scale(0.015625)"/>
       <path id="DejaVuSans-5f" d="M 3263 -1063 
L 3263 -1509 
L -63 -1509 
L -63 -1063 
L 3263 -1063 
z
" transform="scale(0.015625)"/>
       <path id="DejaVuSans-6c" d="M 603 4863 
L 1178 4863 
L 1178 0 
L 603 0 
L 603 4863 
z
" transform="scale(0.015625)"/>
       <path id="DejaVuSans-77" d="M 269 3500 
L 844 3500 
L 1563 769 
L 2278 3500 
L 2956 3500 
L 3675 769 
L 4391 3500 
L 4966 3500 
L 4050 0 
L 3372 0 
L 2619 2869 
L 1863 0 
L 1184 0 
L 269 3500 
z
" transform="scale(0.015625)"/>
       <path id="DejaVuSans-68" d="M 3513 2113 
L 3513 0 
L 2938 0 
L 2938 2094 
Q 2938 2591 2744 2837 
Q 2550 3084 2163 3084 
Q 1697 3084 1428 2787 
Q 1159 2491 1159 1978 
L 1159 0 
L 581 0 
L 581 4863 
L 1159 4863 
L 1159 2956 
Q 1366 3272 1645 3428 
Q 1925 3584 2291 3584 
Q 2894 3584 3203 3211 
Q 3513 2838 3513 2113 
z
" transform="scale(0.015625)"/>
       <path id="DejaVuSans-43" d="M 4122 4306 
L 4122 3641 
Q 3803 3938 3442 4084 
Q 3081 4231 2675 4231 
Q 1875 4231 1450 3742 
Q 1025 3253 1025 2328 
Q 1025 1406 1450 917 
Q 1875 428 2675 428 
Q 3081 428 3442 575 
Q 3803 722 4122 1019 
L 4122 359 
Q 3791 134 3420 21 
Q 3050 -91 2638 -91 
Q 1578 -91 968 557 
Q 359 1206 359 2328 
Q 359 3453 968 4101 
Q 1578 4750 2638 4750 
Q 3056 4750 3426 4639 
Q 3797 4528 4122 4306 
z
" transform="scale(0.015625)"/>
       <path id="DejaVuSans-7a" d="M 353 3500 
L 3084 3500 
L 3084 2975 
L 922 459 
L 3084 459 
L 3084 0 
L 275 0 
L 275 525 
L 2438 3041 
L 353 3041 
L 353 3500 
z
" transform="scale(0.015625)"/>
      </defs>
      <use xlink:href="#DejaVuSans-41"/>
      <use xlink:href="#DejaVuSans-76" x="62.533203"/>
      <use xlink:href="#DejaVuSans-65" x="121.712891"/>
      <use xlink:href="#DejaVuSans-72" x="183.236328"/>
      <use xlink:href="#DejaVuSans-61" x="224.349609"/>
      <use xlink:href="#DejaVuSans-67" x="285.628906"/>
      <use xlink:href="#DejaVuSans-65" x="349.105469"/>
      <use xlink:href="#DejaVuSans-20" x="410.628906"/>
      <use xlink:href="#DejaVuSans-6f" x="442.416016"/>
      <use xlink:href="#DejaVuSans-66" x="503.597656"/>
      <use xlink:href="#DejaVuSans-20" x="538.802734"/>
      <use xlink:href="#DejaVuSans-53" x="570.589844"/>
      <use xlink:href="#DejaVuSans-65" x="634.066406"/>
      <use xlink:href="#DejaVuSans-73" x="695.589844"/>
      <use xlink:href="#DejaVuSans-73" x="747.689453"/>
      <use xlink:href="#DejaVuSans-69" x="799.789062"/>
      <use xlink:href="#DejaVuSans-6f" x="827.572266"/>
      <use xlink:href="#DejaVuSans-6e" x="888.753906"/>
      <use xlink:href="#DejaVuSans-20" x="952.132812"/>
      <use xlink:href="#DejaVuSans-36" x="983.919922"/>
      <use xlink:href="#DejaVuSans-74" x="1047.542969"/>
      <use xlink:href="#DejaVuSans-61" x="1086.751953"/>
      <use xlink:href="#DejaVuSans-63" x="1148.03125"/>
      <use xlink:href="#DejaVuSans-5f" x="1203.011719"/>
      <use xlink:href="#DejaVuSans-61" x="1253.011719"/>
      <use xlink:href="#DejaVuSans-6c" x="1314.291016"/>
      <use xlink:href="#DejaVuSans-6c" x="1342.074219"/>
      <use xlink:href="#DejaVuSans-5f" x="1369.857422"/>
      <use xlink:href="#DejaVuSans-77" x="1419.857422"/>
      <use xlink:href="#DejaVuSans-69" x="1501.644531"/>
      <use xlink:href="#DejaVuSans-74" x="1529.427734"/>
      <use xlink:href="#DejaVuSans-68" x="1568.636719"/>
      <use xlink:href="#DejaVuSans-5f" x="1632.015625"/>
      <use xlink:href="#DejaVuSans-6c" x="1682.015625"/>
      <use xlink:href="#DejaVuSans-65" x="1709.798828"/>
      <use xlink:href="#DejaVuSans-67" x="1771.322266"/>
      <use xlink:href="#DejaVuSans-73" x="1834.798828"/>
      <use xlink:href="#DejaVuSans-20" x="1886.898438"/>
      <use xlink:href="#DejaVuSans-61" x="1918.685547"/>
      <use xlink:href="#DejaVuSans-74" x="1979.964844"/>
      <use xlink:href="#DejaVuSans-20" x="2019.173828"/>
      <use xlink:href="#DejaVuSans-43" x="2050.960938"/>
      <use xlink:href="#DejaVuSans-7a" x="2120.785156"/>
     </g>
    </g>
    <g id="line2d_17">
     <path d="M 100.242906 38.465205 
L 110.242906 38.465205 
L 120.242906 38.465205 
" style="fill: none; stroke: #e41a1c; stroke-width: 1.5; stroke-linecap: square"/>
    </g>
    <g id="text_16">
     <!-- Target (n=5311) -->
     <g transform="translate(128.242906 41.965205)scale(0.1 -0.1)">
      <defs>
       <path id="DejaVuSans-54" d="M -19 4666 
L 3928 4666 
L 3928 4134 
L 2272 4134 
L 2272 0 
L 1638 0 
L 1638 4134 
L -19 4134 
L -19 4666 
z
" transform="scale(0.015625)"/>
       <path id="DejaVuSans-28" d="M 1984 4856 
Q 1566 4138 1362 3434 
Q 1159 2731 1159 2009 
Q 1159 1288 1364 580 
Q 1569 -128 1984 -844 
L 1484 -844 
Q 1016 -109 783 600 
Q 550 1309 550 2009 
Q 550 2706 781 3412 
Q 1013 4119 1484 4856 
L 1984 4856 
z
" transform="scale(0.015625)"/>
       <path id="DejaVuSans-3d" d="M 678 2906 
L 4684 2906 
L 4684 2381 
L 678 2381 
L 678 2906 
z
M 678 1631 
L 4684 1631 
L 4684 1100 
L 678 1100 
L 678 1631 
z
" transform="scale(0.015625)"/>
       <path id="DejaVuSans-33" d="M 2597 2516 
Q 3050 2419 3304 2112 
Q 3559 1806 3559 1356 
Q 3559 666 3084 287 
Q 2609 -91 1734 -91 
Q 1441 -91 1130 -33 
Q 819 25 488 141 
L 488 750 
Q 750 597 1062 519 
Q 1375 441 1716 441 
Q 2309 441 2620 675 
Q 2931 909 2931 1356 
Q 2931 1769 2642 2001 
Q 2353 2234 1838 2234 
L 1294 2234 
L 1294 2753 
L 1863 2753 
Q 2328 2753 2575 2939 
Q 2822 3125 2822 3475 
Q 2822 3834 2567 4026 
Q 2313 4219 1838 4219 
Q 1578 4219 1281 4162 
Q 984 4106 628 3988 
L 628 4550 
Q 988 4650 1302 4700 
Q 1616 4750 1894 4750 
Q 2613 4750 3031 4423 
Q 3450 4097 3450 3541 
Q 3450 3153 3228 2886 
Q 3006 2619 2597 2516 
z
" transform="scale(0.015625)"/>
       <path id="DejaVuSans-29" d="M 513 4856 
L 1013 4856 
Q 1481 4119 1714 3412 
Q 1947 2706 1947 2009 
Q 1947 1309 1714 600 
Q 1481 -109 1013 -844 
L 513 -844 
Q 928 -128 1133 580 
Q 1338 1288 1338 2009 
Q 1338 2731 1133 3434 
Q 928 4138 513 4856 
z
" transform="scale(0.015625)"/>
      </defs>
      <use xlink:href="#DejaVuSans-54"/>
      <use xlink:href="#DejaVuSans-61" x="44.583984"/>
      <use xlink:href="#DejaVuSans-72" x="105.863281"/>
      <use xlink:href="#DejaVuSans-67" x="145.226562"/>
      <use xlink:href="#DejaVuSans-65" x="208.703125"/>
      <use xlink:href="#DejaVuSans-74" x="270.226562"/>
      <use xlink:href="#DejaVuSans-20" x="309.435547"/>
      <use xlink:href="#DejaVuSans-28" x="341.222656"/>
      <use xlink:href="#DejaVuSans-6e" x="380.236328"/>
      <use xlink:href="#DejaVuSans-3d" x="443.615234"/>
      <use xlink:href="#DejaVuSans-35" x="527.404297"/>
      <use xlink:href="#DejaVuSans-33" x="591.027344"/>
      <use xlink:href="#DejaVuSans-31" x="654.650391"/>
      <use xlink:href="#DejaVuSans-31" x="718.273438"/>
      <use xlink:href="#DejaVuSans-29" x="781.896484"/>
     </g>
    </g>
    <g id="line2d_18">
     <path d="M 230.335093 38.465205 
L 240.335093 38.465205 
L 250.335093 38.465205 
" style="fill: none; stroke: #377eb8; stroke-width: 1.5; stroke-linecap: square"/>
    </g>
    <g id="text_17">
     <!-- Non-Target (n=26613) -->
     <g transform="translate(258.335093 41.965205)scale(0.1 -0.1)">
      <defs>
       <path id="DejaVuSans-4e" d="M 628 4666 
L 1478 4666 
L 3547 763 
L 3547 4666 
L 4159 4666 
L 4159 0 
L 3309 0 
L 1241 3903 
L 1241 0 
L 628 0 
L 628 4666 
z
" transform="scale(0.015625)"/>
       <path id="DejaVuSans-2d" d="M 313 2009 
L 1997 2009 
L 1997 1497 
L 313 1497 
L 313 2009 
z
" transform="scale(0.015625)"/>
      </defs>
      <use xlink:href="#DejaVuSans-4e"/>
      <use xlink:href="#DejaVuSans-6f" x="74.804688"/>
      <use xlink:href="#DejaVuSans-6e" x="135.986328"/>
      <use xlink:href="#DejaVuSans-2d" x="199.365234"/>
      <use xlink:href="#DejaVuSans-54" x="226.324219"/>
      <use xlink:href="#DejaVuSans-61" x="270.908203"/>
      <use xlink:href="#DejaVuSans-72" x="332.1875"/>
      <use xlink:href="#DejaVuSans-67" x="371.550781"/>
      <use xlink:href="#DejaVuSans-65" x="435.027344"/>
      <use xlink:href="#DejaVuSans-74" x="496.550781"/>
      <use xlink:href="#DejaVuSans-20" x="535.759766"/>
      <use xlink:href="#DejaVuSans-28" x="567.546875"/>
      <use xlink:href="#DejaVuSans-6e" x="606.560547"/>
      <use xlink:href="#DejaVuSans-3d" x="669.939453"/>
      <use xlink:href="#DejaVuSans-32" x="753.728516"/>
      <use xlink:href="#DejaVuSans-36" x="817.351562"/>
      <use xlink:href="#DejaVuSans-36" x="880.974609"/>
      <use xlink:href="#DejaVuSans-31" x="944.597656"/>
      <use xlink:href="#DejaVuSans-33" x="1008.220703"/>
      <use xlink:href="#DejaVuSans-29" x="1071.84375"/>
     </g>
    </g>
   </g>
  </g>
 </g>
 <defs>
  <clipPath id="p65b6879e17">
   <rect x="56.05" y="71.241125" width="357.565499" height="246.958875"/>
  </clipPath>
 </defs>
</svg>
