<?xml version="1.0" encoding="utf-8" standalone="no"?>
<!DOCTYPE svg PUBLIC "-//W3C//DTD SVG 1.1//EN"
  "http://www.w3.org/Graphics/SVG/1.1/DTD/svg11.dtd">
<svg xmlns:xlink="http://www.w3.org/1999/xlink" width="432pt" height="360pt" viewBox="0 0 432 360" xmlns="http://www.w3.org/2000/svg" version="1.1">
 <metadata>
  <rdf:RDF xmlns:dc="http://purl.org/dc/elements/1.1/" xmlns:cc="http://creativecommons.org/ns#" xmlns:rdf="http://www.w3.org/1999/02/22-rdf-syntax-ns#">
   <cc:Work>
    <dc:type rdf:resource="http://purl.org/dc/dcmitype/StillImage"/>
    <dc:date>2022-11-03T08:30:28.427426</dc:date>
    <dc:format>image/svg+xml</dc:format>
    <dc:creator>
     <cc:Agent>
      <dc:title>Matplotlib v3.5.1, https://matplotlib.org/</dc:title>
     </cc:Agent>
    </dc:creator>
   </cc:Work>
  </rdf:RDF>
 </metadata>
 <defs>
  <style type="text/css">*{stroke-linejoin: round; stroke-linecap: butt}</style>
 </defs>
 <g id="figure_1">
  <g id="patch_1">
   <path d="M 0 360 
L 432 360 
L 432 0 
L 0 0 
L 0 360 
z
" style="fill: none"/>
  </g>
  <g id="axes_1">
   <g id="patch_2">
    <path d="M 38.175 318.2 
L 413.615499 318.2 
L 413.615499 71.241125 
L 38.175 71.241125 
L 38.175 318.2 
z
" style="fill: none"/>
   </g>
   <g id="PolyCollection_1">
    <defs>
     <path id="m53e2c20721" d="M 38.175 -71.592811 
L 38.175 -59.267757 
L 38.989405 -59.763451 
L 39.803809 -60.216327 
L 40.618214 -60.566143 
L 41.432618 -60.766087 
L 42.247023 -60.819969 
L 43.061427 -60.805916 
L 43.875832 -60.866288 
L 44.690236 -61.159775 
L 45.504641 -61.794122 
L 46.319046 -62.771548 
L 47.13345 -63.974448 
L 47.947855 -65.19929 
L 48.762259 -66.224181 
L 49.576664 -66.883692 
L 50.391068 -67.125859 
L 51.205473 -67.031821 
L 52.019877 -66.785719 
L 52.834282 -66.599413 
L 53.648687 -66.622088 
L 54.463091 -66.879066 
L 55.277496 -67.271979 
L 56.0919 -67.639401 
L 56.906305 -67.843473 
L 57.720709 -67.838285 
L 58.535114 -67.693841 
L 59.349518 -67.5713 
L 60.163923 -67.658934 
L 60.978327 -68.092842 
L 61.792732 -68.898581 
L 62.607137 -69.981896 
L 63.421541 -71.165098 
L 64.235946 -72.242056 
L 65.05035 -73.033187 
L 65.864755 -73.435253 
L 66.679159 -73.457915 
L 67.493564 -73.231487 
L 68.307968 -72.969126 
L 69.122373 -72.88542 
L 69.936778 -73.10928 
L 70.751182 -73.639965 
L 71.565587 -74.363507 
L 72.379991 -75.10974 
L 73.194396 -75.718126 
L 74.0088 -76.089574 
L 74.823205 -76.211661 
L 75.637609 -76.14983 
L 76.452014 -76.007513 
L 77.266419 -75.875591 
L 78.080823 -75.799774 
L 78.895228 -75.781975 
L 79.709632 -75.807074 
L 80.524037 -75.86956 
L 81.338441 -75.979769 
L 82.152846 -76.149721 
L 82.96725 -76.372995 
L 83.781655 -76.61357 
L 84.59606 -76.811347 
L 85.410464 -76.903288 
L 86.224869 -76.852599 
L 87.039273 -76.676048 
L 87.853678 -76.459296 
L 88.668082 -76.349655 
L 89.482487 -76.518694 
L 90.296891 -77.099268 
L 91.111296 -78.119893 
L 91.9257 -79.469051 
L 92.740105 -80.911006 
L 93.55451 -82.148778 
L 94.368914 -82.908975 
L 95.183319 -83.0209 
L 95.997723 -82.47113 
L 96.812128 -81.419295 
L 97.626532 -80.162603 
L 98.440937 -79.049863 
L 99.255341 -78.372232 
L 100.069746 -78.276214 
L 100.884151 -78.73354 
L 101.698555 -79.569961 
L 102.51296 -80.529762 
L 103.327364 -81.351645 
L 104.141769 -81.841033 
L 104.956173 -81.924797 
L 105.770578 -81.669178 
L 106.584982 -81.247301 
L 107.399387 -80.866546 
L 108.213792 -80.690815 
L 109.028196 -80.792728 
L 109.842601 -81.146929 
L 110.657005 -81.65326 
L 111.47141 -82.17453 
L 112.285814 -82.579773 
L 113.100219 -82.784777 
L 113.914623 -82.776292 
L 114.729028 -82.606794 
L 115.543433 -82.360863 
L 116.357837 -82.112521 
L 117.172242 -81.897271 
L 117.986646 -81.708683 
L 118.801051 -81.512156 
L 119.615455 -81.263728 
L 120.42986 -80.927961 
L 121.244264 -80.493109 
L 122.058669 -79.978845 
L 122.873074 -79.429196 
L 123.687478 -78.889606 
L 124.501883 -78.380005 
L 125.316287 -77.882556 
L 126.130692 -77.353837 
L 126.945096 -76.754124 
L 127.759501 -76.076845 
L 128.573905 -75.365147 
L 129.38831 -74.710963 
L 130.202714 -74.235566 
L 131.017119 -74.051966 
L 131.831524 -74.216787 
L 132.645928 -74.691365 
L 133.460333 -75.335853 
L 134.274737 -75.946433 
L 135.089142 -76.32165 
L 135.903546 -76.328614 
L 136.717951 -75.944351 
L 137.532355 -75.263698 
L 138.34676 -74.476645 
L 139.161165 -73.820692 
L 139.975569 -73.515509 
L 140.789974 -73.694744 
L 141.604378 -74.358409 
L 142.418783 -75.367279 
L 143.233187 -76.484865 
L 144.047592 -77.4521 
L 144.861996 -78.06747 
L 145.676401 -78.246854 
L 146.490806 -78.047996 
L 147.30521 -77.655307 
L 148.119615 -77.328368 
L 148.934019 -77.325026 
L 149.748424 -77.819094 
L 150.562828 -78.838928 
L 151.377233 -80.249337 
L 152.191637 -81.783675 
L 153.006042 -83.11368 
L 153.820447 -83.933785 
L 154.634851 -84.038026 
L 155.449256 -83.373272 
L 156.26366 -82.055189 
L 157.078065 -80.337452 
L 157.892469 -78.5387 
L 158.706874 -76.952161 
L 159.521278 -75.773304 
L 160.335683 -75.070958 
L 161.150087 -74.804302 
L 161.964492 -74.868414 
L 162.778897 -75.144904 
L 163.593301 -75.539081 
L 164.407706 -75.992145 
L 165.22211 -76.465448 
L 166.036515 -76.906036 
L 166.850919 -77.214946 
L 167.665324 -77.242431 
L 168.479728 -76.821916 
L 169.294133 -75.833237 
L 170.108538 -74.268572 
L 170.922942 -72.270758 
L 171.737347 -70.123533 
L 172.551751 -68.190248 
L 173.366156 -66.815839 
L 174.18056 -66.221861 
L 174.994965 -66.431118 
L 175.809369 -67.251927 
L 176.623774 -68.332149 
L 177.438179 -69.26669 
L 178.252583 -69.720778 
L 179.066988 -69.525498 
L 179.881392 -68.7143 
L 180.695797 -67.492384 
L 181.510201 -66.154455 
L 182.324606 -64.983066 
L 183.13901 -64.165021 
L 183.953415 -63.754965 
L 184.76782 -63.695262 
L 185.582224 -63.876776 
L 186.396629 -64.207725 
L 187.211033 -64.656911 
L 188.025438 -65.25353 
L 188.839842 -66.048283 
L 189.654247 -67.057626 
L 190.468651 -68.219137 
L 191.283056 -69.381367 
L 192.097461 -70.338204 
L 192.911865 -70.898705 
L 193.72627 -70.965105 
L 194.540674 -70.58413 
L 195.355079 -69.946217 
L 196.169483 -69.330005 
L 196.983888 -69.013211 
L 197.798292 -69.183755 
L 198.612697 -69.882887 
L 199.427101 -70.998687 
L 200.241506 -72.31019 
L 201.055911 -73.564934 
L 201.870315 -74.560778 
L 202.68472 -75.201069 
L 203.499124 -75.503204 
L 204.313529 -75.561319 
L 205.127933 -75.484782 
L 205.942338 -75.343497 
L 206.756742 -75.143825 
L 207.571147 -74.841428 
L 208.385552 -74.380201 
L 209.199956 -73.736905 
L 210.014361 -72.950347 
L 210.828765 -72.120384 
L 211.64317 -71.373717 
L 212.457574 -70.808944 
L 213.271979 -70.446931 
L 214.086383 -70.214825 
L 214.900788 -69.977531 
L 215.715193 -69.605475 
L 216.529597 -69.047327 
L 217.344002 -68.371737 
L 218.158406 -67.755076 
L 218.972811 -67.415271 
L 219.787215 -67.514914 
L 220.60162 -68.071499 
L 221.416024 -68.913977 
L 222.230429 -69.710179 
L 223.044834 -70.062329 
L 223.859238 -69.639169 
L 224.673643 -68.297117 
L 225.488047 -66.14653 
L 226.302452 -63.538973 
L 227.116856 -60.977706 
L 227.931261 -58.977446 
L 228.745665 -57.915911 
L 229.56007 -57.924916 
L 230.374474 -58.858387 
L 231.188879 -60.348433 
L 232.003284 -61.927616 
L 232.817688 -63.171468 
L 233.632093 -63.811892 
L 234.446497 -63.789215 
L 235.260902 -63.236495 
L 236.075306 -62.411632 
L 236.889711 -61.60498 
L 237.704115 -61.052817 
L 238.51852 -60.880966 
L 239.332925 -61.089916 
L 240.147329 -61.577515 
L 240.961734 -62.184789 
L 241.776138 -62.74821 
L 242.590543 -63.145112 
L 243.404947 -63.323234 
L 244.219352 -63.308924 
L 245.033756 -63.193219 
L 245.848161 -63.101228 
L 246.662566 -63.154647 
L 247.47697 -63.436823 
L 248.291375 -63.966658 
L 249.105779 -64.686865 
L 249.920184 -65.47337 
L 250.734588 -66.169774 
L 251.548993 -66.640212 
L 252.363397 -66.821184 
L 253.177802 -66.748907 
L 253.992207 -66.548765 
L 254.806611 -66.391537 
L 255.621016 -66.434894 
L 256.43542 -66.771729 
L 257.249825 -67.401529 
L 258.064229 -68.233224 
L 258.878634 -69.120104 
L 259.693038 -69.917846 
L 260.507443 -70.545344 
L 261.321848 -71.021122 
L 262.136252 -71.45457 
L 262.950657 -71.992262 
L 263.765061 -72.743965 
L 264.579466 -73.72472 
L 265.39387 -74.84097 
L 266.208275 -75.926592 
L 267.022679 -76.812238 
L 267.837084 -77.398716 
L 268.651488 -77.70438 
L 269.465893 -77.86573 
L 270.280298 -78.087038 
L 271.094702 -78.555609 
L 271.909107 -79.356432 
L 272.723511 -80.423596 
L 273.537916 -81.551524 
L 274.35232 -82.464232 
L 275.166725 -82.91728 
L 275.981129 -82.795005 
L 276.795534 -82.166559 
L 277.609939 -81.276853 
L 278.424343 -80.471033 
L 279.238748 -80.078403 
L 280.053152 -80.301201 
L 280.867557 -81.153429 
L 281.681961 -82.471709 
L 282.496366 -83.987995 
L 283.31077 -85.428781 
L 284.125175 -86.599272 
L 284.93958 -87.423789 
L 285.753984 -87.935814 
L 286.568389 -88.231437 
L 287.382793 -88.412397 
L 288.197198 -88.546951 
L 289.011602 -88.667176 
L 289.826007 -88.801355 
L 290.640411 -89.018498 
L 291.454816 -89.45159 
L 292.269221 -90.27565 
L 293.083625 -91.642979 
L 293.89803 -93.60459 
L 294.712434 -96.05676 
L 295.526839 -98.741265 
L 296.341243 -101.306606 
L 297.155648 -103.415522 
L 297.970052 -104.865121 
L 298.784457 -105.673384 
L 299.598862 -106.08868 
L 300.413266 -106.505009 
L 301.227671 -107.308535 
L 302.042075 -108.717176 
L 302.85648 -110.6815 
L 303.670884 -112.888528 
L 304.485289 -114.867445 
L 305.299693 -116.158526 
L 306.114098 -116.484631 
L 306.928502 -115.861427 
L 307.742907 -114.600919 
L 308.557312 -113.202393 
L 309.371716 -112.172022 
L 310.186121 -111.843399 
L 311.000525 -112.269588 
L 311.81493 -113.225381 
L 312.629334 -114.313969 
L 313.443739 -115.133983 
L 314.258143 -115.441649 
L 315.072548 -115.245029 
L 315.886953 -114.794295 
L 316.701357 -114.475247 
L 317.515762 -114.653367 
L 318.330166 -115.533333 
L 319.144571 -117.087796 
L 319.958975 -119.077683 
L 320.77338 -121.150002 
L 321.587784 -122.97123 
L 322.402189 -124.343009 
L 323.216594 -125.256027 
L 324.030998 -125.865578 
L 324.845403 -126.406598 
L 325.659807 -127.089578 
L 326.474212 -128.020579 
L 327.288616 -129.172591 
L 328.103021 -130.41245 
L 328.917425 -131.567186 
L 329.73183 -132.500683 
L 330.546235 -133.168947 
L 331.360639 -133.632248 
L 332.175044 -134.022831 
L 332.989448 -134.488049 
L 333.803853 -135.137999 
L 334.618257 -136.019382 
L 335.432662 -137.120188 
L 336.247066 -138.39429 
L 337.061471 -139.788434 
L 337.875875 -141.257559 
L 338.69028 -142.764185 
L 339.504685 -144.267818 
L 340.319089 -145.715274 
L 341.133494 -147.041122 
L 341.947898 -148.181243 
L 342.762303 -149.0953 
L 343.576707 -149.788757 
L 344.391112 -150.323561 
L 345.205516 -150.809382 
L 346.019921 -151.374758 
L 346.834326 -152.127385 
L 347.64873 -153.119987 
L 348.463135 -154.337261 
L 349.277539 -155.709795 
L 350.091944 -157.147965 
L 350.906348 -158.580003 
L 351.720753 -159.977528 
L 352.535157 -161.357461 
L 353.349562 -162.759834 
L 354.163967 -164.212019 
L 354.978371 -165.697288 
L 355.792776 -167.144054 
L 356.60718 -168.44173 
L 357.421585 -169.476621 
L 358.235989 -170.173887 
L 359.050394 -170.530681 
L 359.864798 -170.628176 
L 360.679203 -170.6156 
L 361.493608 -170.668567 
L 362.308012 -170.935969 
L 363.122417 -171.497509 
L 363.936821 -172.349909 
L 364.751226 -173.425081 
L 365.56563 -174.629256 
L 366.380035 -175.886004 
L 367.194439 -177.168187 
L 368.008844 -178.508387 
L 368.823249 -179.982758 
L 369.637653 -181.671719 
L 370.452058 -183.611875 
L 371.266462 -185.760325 
L 372.080867 -187.988482 
L 372.895271 -190.109307 
L 373.709676 -191.928517 
L 374.52408 -193.302974 
L 375.338485 -194.187535 
L 376.152889 -194.653577 
L 376.967294 -194.869919 
L 377.781699 -195.050491 
L 378.596103 -195.386906 
L 379.410508 -195.990317 
L 380.224912 -196.862596 
L 381.039317 -197.905191 
L 381.853721 -198.960631 
L 382.668126 -199.870799 
L 383.48253 -200.531146 
L 384.296935 -200.923089 
L 385.11134 -201.117035 
L 385.925744 -201.250452 
L 386.740149 -201.491934 
L 387.554553 -202.002222 
L 388.368958 -202.900333 
L 389.183362 -204.240467 
L 389.997767 -206.002417 
L 390.812171 -208.093432 
L 391.626576 -210.357044 
L 392.440981 -212.586654 
L 393.255385 -214.548074 
L 394.06979 -216.016961 
L 394.884194 -216.8298 
L 395.698599 -216.936177 
L 396.513003 -216.434202 
L 397.327408 -215.573226 
L 398.141812 -214.714775 
L 398.956217 -214.253363 
L 399.770622 -214.512858 
L 400.585026 -215.648875 
L 401.399431 -217.593151 
L 402.213835 -220.064019 
L 403.02824 -222.642489 
L 403.842644 -224.889709 
L 404.657049 -226.469897 
L 405.471453 -227.243254 
L 406.285858 -227.301306 
L 407.100262 -226.932039 
L 407.914667 -226.524638 
L 408.729072 -226.446897 
L 409.543476 -226.939084 
L 410.357881 -228.058304 
L 411.172285 -229.684161 
L 411.98669 -231.574429 
L 412.801094 -233.447139 
L 413.615499 -235.061863 
L 413.615499 -277.533472 
L 413.615499 -277.533472 
L 412.801094 -275.867432 
L 411.98669 -273.965029 
L 411.172285 -272.048836 
L 410.357881 -270.388628 
L 409.543476 -269.224752 
L 408.729072 -268.681362 
L 407.914667 -268.705535 
L 407.100262 -269.061169 
L 406.285858 -269.384851 
L 405.471453 -269.288029 
L 404.657049 -268.475336 
L 403.842644 -266.84295 
L 403.02824 -264.523026 
L 402.213835 -261.854244 
L 401.399431 -259.284711 
L 400.585026 -257.240875 
L 399.770622 -256.008304 
L 398.956217 -255.660942 
L 398.141812 -256.053704 
L 397.327408 -256.87289 
L 396.513003 -257.725513 
L 395.698599 -258.240501 
L 394.884194 -258.152418 
L 394.06979 -257.346046 
L 393.255385 -255.85677 
L 392.440981 -253.838416 
L 391.626576 -251.515716 
L 390.812171 -249.135106 
L 389.997767 -246.921761 
L 389.183362 -245.047411 
L 388.368958 -243.611233 
L 387.554553 -242.632769 
L 386.740149 -242.05409 
L 385.925744 -241.750374 
L 385.11134 -241.552579 
L 384.296935 -241.284211 
L 383.48253 -240.806157 
L 382.668126 -240.055567 
L 381.853721 -239.064098 
L 381.039317 -237.947565 
L 380.224912 -236.868281 
L 379.410508 -235.980124 
L 378.596103 -235.372639 
L 377.781699 -235.033117 
L 376.967294 -234.841173 
L 376.152889 -234.599104 
L 375.338485 -234.088669 
L 374.52408 -233.136469 
L 373.709676 -231.667535 
L 372.895271 -229.729259 
L 372.080867 -227.476322 
L 371.266462 -225.121194 
L 370.452058 -222.868686 
L 369.637653 -220.858951 
L 368.823249 -219.138156 
L 368.008844 -217.663691 
L 367.194439 -216.33882 
L 366.380035 -215.063315 
L 365.56563 -213.781681 
L 364.751226 -212.509797 
L 363.936821 -211.327855 
L 363.122417 -210.342506 
L 362.308012 -209.636089 
L 361.493608 -209.225567 
L 360.679203 -209.046566 
L 359.864798 -208.965689 
L 359.050394 -208.815619 
L 358.235989 -208.442204 
L 357.421585 -207.748686 
L 356.60718 -206.720305 
L 355.792776 -205.418368 
L 354.978371 -203.946953 
L 354.163967 -202.40923 
L 353.349562 -200.87354 
L 352.535157 -199.361825 
L 351.720753 -197.86124 
L 350.906348 -196.350541 
L 350.091944 -194.828272 
L 349.277539 -193.329563 
L 348.463135 -191.922882 
L 347.64873 -190.686609 
L 346.834326 -189.675531 
L 346.019921 -188.892404 
L 345.205516 -188.277589 
L 344.391112 -187.721728 
L 343.576707 -187.097229 
L 342.762303 -186.297077 
L 341.947898 -185.265954 
L 341.133494 -184.010927 
L 340.319089 -182.587906 
L 339.504685 -181.07227 
L 338.69028 -179.530065 
L 337.875875 -178.004321 
L 337.061471 -176.520609 
L 336.247066 -175.104092 
L 335.432662 -173.793921 
L 334.618257 -172.642657 
L 333.803853 -171.697583 
L 332.989448 -170.972487 
L 332.175044 -170.425751 
L 331.360639 -169.958691 
L 330.546235 -169.4391 
L 329.73183 -168.744033 
L 328.917425 -167.807225 
L 328.103021 -166.651731 
L 327.288616 -165.389514 
L 326.474212 -164.179923 
L 325.659807 -163.157994 
L 324.845403 -162.362742 
L 324.030998 -161.701987 
L 323.216594 -160.976656 
L 322.402189 -159.959936 
L 321.587784 -158.500127 
L 320.77338 -156.603822 
L 319.958975 -154.461521 
L 319.144571 -152.398624 
L 318.330166 -150.764049 
L 317.515762 -149.79687 
L 316.701357 -149.526054 
L 315.886953 -149.749377 
L 315.072548 -150.105831 
L 314.258143 -150.215794 
L 313.443739 -149.834095 
L 312.629334 -148.954403 
L 311.81493 -147.820204 
L 311.000525 -146.832382 
L 310.186121 -146.385616 
L 309.371716 -146.698247 
L 308.557312 -147.706287 
L 307.742907 -149.066537 
L 306.928502 -150.268891 
L 306.114098 -150.814843 
L 305.299693 -150.395055 
L 304.485289 -148.999381 
L 303.670884 -146.916378 
L 302.85648 -144.620471 
L 302.042075 -142.590721 
L 301.227671 -141.134911 
L 300.413266 -140.28895 
L 299.598862 -139.825485 
L 298.784457 -139.358425 
L 297.970052 -138.496525 
L 297.155648 -136.988554 
L 296.341243 -134.810596 
L 295.526839 -132.166994 
L 294.712434 -129.407589 
L 293.89803 -126.897877 
L 293.083625 -124.898652 
L 292.269221 -123.503416 
L 291.454816 -122.648877 
L 290.640411 -122.178121 
L 289.826007 -121.917876 
L 289.011602 -121.735147 
L 288.197198 -121.555598 
L 287.382793 -121.345651 
L 286.568389 -121.075606 
L 285.753984 -120.68891 
L 284.93958 -120.099755 
L 284.125175 -119.226063 
L 283.31077 -118.043357 
L 282.496366 -116.629546 
L 281.681961 -115.171319 
L 280.867557 -113.920564 
L 280.053152 -113.113936 
L 279.238748 -112.88694 
L 278.424343 -113.216688 
L 277.609939 -113.91633 
L 276.795534 -114.685802 
L 275.981129 -115.204693 
L 275.166725 -115.236738 
L 274.35232 -114.707963 
L 273.537916 -113.726333 
L 272.723511 -112.532701 
L 271.909107 -111.402667 
L 271.094702 -110.540743 
L 270.280298 -110.009964 
L 269.465893 -109.722357 
L 268.651488 -109.48912 
L 267.837084 -109.106918 
L 267.022679 -108.444102 
L 266.208275 -107.49159 
L 265.39387 -106.358179 
L 264.579466 -105.2151 
L 263.765061 -104.218088 
L 262.950657 -103.443687 
L 262.136252 -102.865665 
L 261.321848 -102.376366 
L 260.507443 -101.839564 
L 259.693038 -101.152325 
L 258.878634 -100.292578 
L 258.064229 -99.334157 
L 257.249825 -98.421413 
L 256.43542 -97.711195 
L 255.621016 -97.305652 
L 254.806611 -97.206103 
L 253.992207 -97.3097 
L 253.177802 -97.449551 
L 252.363397 -97.457733 
L 251.548993 -97.222557 
L 250.734588 -96.719452 
L 249.920184 -96.010271 
L 249.105779 -95.217576 
L 248.291375 -94.484294 
L 247.47697 -93.929352 
L 246.662566 -93.611056 
L 245.848161 -93.510122 
L 245.033756 -93.538692 
L 244.219352 -93.571376 
L 243.404947 -93.486065 
L 242.590543 -93.201347 
L 241.776138 -92.702102 
L 240.961734 -92.049403 
L 240.147329 -91.371943 
L 239.332925 -90.83684 
L 238.51852 -90.602451 
L 237.704115 -90.76407 
L 236.889711 -91.30934 
L 236.075306 -92.100118 
L 235.260902 -92.892105 
L 234.446497 -93.394069 
L 233.632093 -93.355444 
L 232.817688 -92.657192 
L 232.003284 -91.37339 
L 231.188879 -89.776959 
L 230.374474 -88.281464 
L 229.56007 -87.333064 
L 228.745665 -87.282897 
L 227.931261 -88.277101 
L 227.116856 -90.199482 
L 226.302452 -92.690344 
L 225.488047 -95.243056 
L 224.673643 -97.351501 
L 223.859238 -98.65863 
L 223.044834 -99.053025 
L 222.230429 -98.680704 
L 221.416024 -97.873159 
L 220.60162 -97.023202 
L 219.787215 -96.455455 
L 218.972811 -96.335605 
L 218.158406 -96.645429 
L 217.344002 -97.225443 
L 216.529597 -97.86212 
L 215.715193 -98.381596 
L 214.900788 -98.712863 
L 214.086383 -98.899783 
L 213.271979 -99.064383 
L 212.457574 -99.342659 
L 211.64317 -99.821522 
L 210.828765 -100.501547 
L 210.014361 -101.298752 
L 209.199956 -102.082846 
L 208.385552 -102.733763 
L 207.571147 -103.188913 
L 206.756742 -103.45718 
L 205.942338 -103.593248 
L 205.127933 -103.648035 
L 204.313529 -103.624219 
L 203.499124 -103.462108 
L 202.68472 -103.064158 
L 201.870315 -102.34708 
L 201.055911 -101.298082 
L 200.241506 -100.009652 
L 199.427101 -98.674599 
L 198.612697 -97.537258 
L 197.798292 -96.814516 
L 196.983888 -96.615802 
L 196.169483 -96.895812 
L 195.355079 -97.462286 
L 194.540674 -98.037707 
L 193.72627 -98.350662 
L 192.911865 -98.221514 
L 192.097461 -97.611692 
L 191.283056 -96.621672 
L 190.468651 -95.441831 
L 189.654247 -94.276993 
L 188.839842 -93.275154 
L 188.025438 -92.489476 
L 187.211033 -91.888257 
L 186.396629 -91.404869 
L 185.582224 -91.000096 
L 184.76782 -90.703989 
L 183.953415 -90.615481 
L 183.13901 -90.858402 
L 182.324606 -91.512376 
L 181.510201 -92.548808 
L 180.695797 -93.802554 
L 179.881392 -94.998531 
L 179.066988 -95.831346 
L 178.252583 -96.07171 
L 177.438179 -95.658152 
L 176.623774 -94.736041 
L 175.809369 -93.626239 
L 174.994965 -92.732334 
L 174.18056 -92.417771 
L 173.366156 -92.894642 
L 172.551751 -94.161484 
L 171.737347 -96.010157 
L 170.922942 -98.097438 
L 170.108538 -100.053419 
L 169.294133 -101.585815 
L 168.479728 -102.543935 
L 167.665324 -102.926213 
L 166.850919 -102.840207 
L 166.036515 -102.441079 
L 165.22211 -101.876872 
L 164.407706 -101.258999 
L 163.593301 -100.66234 
L 162.778897 -100.147357 
L 161.964492 -99.788135 
L 161.150087 -99.686291 
L 160.335683 -99.956115 
L 159.521278 -100.6827 
L 158.706874 -101.873116 
L 157.892469 -103.426059 
L 157.078065 -105.135303 
L 156.26366 -106.726189 
L 155.449256 -107.914375 
L 154.634851 -108.473592 
L 153.820447 -108.297543 
L 153.006042 -107.436873 
L 152.191637 -106.092828 
L 151.377233 -104.563235 
L 150.562828 -103.158443 
L 149.748424 -102.118071 
L 148.934019 -101.55485 
L 148.119615 -101.436788 
L 147.30521 -101.606532 
L 146.490806 -101.831172 
L 145.676401 -101.872027 
L 144.861996 -101.557612 
L 144.047592 -100.837275 
L 143.233187 -99.796328 
L 142.418783 -98.627752 
L 141.604378 -97.572385 
L 140.789974 -96.848373 
L 139.975569 -96.589545 
L 139.161165 -96.806657 
L 138.34676 -97.380978 
L 137.532355 -98.095694 
L 136.717951 -98.701484 
L 135.903546 -98.997033 
L 135.089142 -98.893153 
L 134.274737 -98.433459 
L 133.460333 -97.765923 
L 132.645928 -97.083864 
L 131.831524 -96.564415 
L 131.017119 -96.323617 
L 130.202714 -96.394144 
L 129.38831 -96.726519 
L 128.573905 -97.214173 
L 127.759501 -97.737303 
L 126.945096 -98.209253 
L 126.130692 -98.603402 
L 125.316287 -98.948137 
L 124.501883 -99.297021 
L 123.687478 -99.694005 
L 122.873074 -100.150195 
L 122.058669 -100.637042 
L 121.244264 -101.094412 
L 120.42986 -101.452251 
L 119.615455 -101.661689 
L 118.801051 -101.72247 
L 117.986646 -101.688821 
L 117.172242 -101.645295 
L 116.357837 -101.663465 
L 115.543433 -101.764239 
L 114.729028 -101.906245 
L 113.914623 -102.002449 
L 113.100219 -101.953245 
L 112.285814 -101.683971 
L 111.47141 -101.178912 
L 110.657005 -100.501708 
L 109.842601 -99.78826 
L 109.028196 -99.205014 
L 108.213792 -98.884832 
L 107.399387 -98.870217 
L 106.584982 -99.092059 
L 105.770578 -99.390579 
L 104.956173 -99.564894 
L 104.141769 -99.434619 
L 103.327364 -98.902366 
L 102.51296 -98.002845 
L 101.698555 -96.914633 
L 100.884151 -95.915461 
L 100.069746 -95.288909 
L 99.255341 -95.220927 
L 98.440937 -95.731923 
L 97.626532 -96.667948 
L 96.812128 -97.745097 
L 95.997723 -98.627612 
L 95.183319 -99.020505 
L 94.368914 -98.755727 
L 93.55451 -97.843647 
L 92.740105 -96.464999 
L 91.9257 -94.903117 
L 91.111296 -93.44726 
L 90.296891 -92.309193 
L 89.482487 -91.579688 
L 88.668082 -91.227875 
L 87.853678 -91.133332 
L 87.039273 -91.13777 
L 86.224869 -91.100649 
L 85.410464 -90.939947 
L 84.59606 -90.642857 
L 83.781655 -90.245611 
L 82.96725 -89.798698 
L 82.152846 -89.340163 
L 81.338441 -88.890174 
L 80.524037 -88.46291 
L 79.709632 -88.080043 
L 78.895228 -87.771054 
L 78.080823 -87.558065 
L 77.266419 -87.436914 
L 76.452014 -87.368482 
L 75.637609 -87.283721 
L 74.823205 -87.097865 
L 74.0088 -86.731064 
L 73.194396 -86.135738 
L 72.379991 -85.32573 
L 71.565587 -84.391202 
L 70.751182 -83.481662 
L 69.936778 -82.756903 
L 69.122373 -82.327665 
L 68.307968 -82.212566 
L 67.493564 -82.323875 
L 66.679159 -82.481849 
L 65.864755 -82.459593 
L 65.05035 -82.061136 
L 64.235946 -81.210043 
L 63.421541 -79.999043 
L 62.607137 -78.66411 
L 61.792732 -77.488941 
L 60.978327 -76.687129 
L 60.163923 -76.324218 
L 59.349518 -76.312807 
L 58.535114 -76.467905 
L 57.720709 -76.590277 
L 56.906305 -76.546698 
L 56.0919 -76.317705 
L 55.277496 -75.991638 
L 54.463091 -75.708979 
L 53.648687 -75.588893 
L 52.834282 -75.673959 
L 52.019877 -75.910365 
L 51.205473 -76.164055 
L 50.391068 -76.265733 
L 49.576664 -76.072282 
L 48.762259 -75.525333 
L 47.947855 -74.682089 
L 47.13345 -73.699313 
L 46.319046 -72.774603 
L 45.504641 -72.073925 
L 44.690236 -71.679259 
L 43.875832 -71.574549 
L 43.061427 -71.667879 
L 42.247023 -71.83479 
L 41.432618 -71.964124 
L 40.618214 -71.991281 
L 39.803809 -71.909827 
L 38.989405 -71.758924 
L 38.175 -71.592811 
z
" style="stroke: #e41a1c; stroke-opacity: 0.3"/>
    </defs>
    <g clip-path="url(#p458232012f)">
     <use xlink:href="#m53e2c20721" x="0" y="360" style="fill: #e41a1c; fill-opacity: 0.3; stroke: #e41a1c; stroke-opacity: 0.3"/>
    </g>
   </g>
   <g id="PolyCollection_2">
    <defs>
     <path id="m7384f46185" d="M 38.175 -68.215492 
L 38.175 -62.572819 
L 38.989405 -62.597985 
L 39.803809 -62.768302 
L 40.618214 -63.075525 
L 41.432618 -63.4487 
L 42.247023 -63.788591 
L 43.061427 -64.015218 
L 43.875832 -64.108264 
L 44.690236 -64.124173 
L 45.504641 -64.182264 
L 46.319046 -64.422747 
L 47.13345 -64.950427 
L 47.947855 -65.786124 
L 48.762259 -66.848215 
L 49.576664 -67.975474 
L 50.391068 -68.983563 
L 51.205473 -69.731553 
L 52.019877 -70.170817 
L 52.834282 -70.35704 
L 53.648687 -70.421336 
L 54.463091 -70.511883 
L 55.277496 -70.728999 
L 56.0919 -71.080579 
L 56.906305 -71.478099 
L 57.720709 -71.776359 
L 58.535114 -71.840485 
L 59.349518 -71.611495 
L 60.163923 -71.142868 
L 60.978327 -70.593139 
L 61.792732 -70.177201 
L 62.607137 -70.094987 
L 63.421541 -70.464465 
L 64.235946 -71.283525 
L 65.05035 -72.433711 
L 65.864755 -73.72301 
L 66.679159 -74.950988 
L 67.493564 -75.972073 
L 68.307968 -76.734125 
L 69.122373 -77.279054 
L 69.936778 -77.707124 
L 70.751182 -78.121612 
L 71.565587 -78.578752 
L 72.379991 -79.064326 
L 73.194396 -79.504775 
L 74.0088 -79.804739 
L 74.823205 -79.892731 
L 75.637609 -79.755498 
L 76.452014 -79.448056 
L 77.266419 -79.076526 
L 78.080823 -78.761414 
L 78.895228 -78.596658 
L 79.709632 -78.621739 
L 80.524037 -78.818439 
L 81.338441 -79.13229 
L 82.152846 -79.506759 
L 82.96725 -79.912419 
L 83.781655 -80.356998 
L 84.59606 -80.873071 
L 85.410464 -81.491262 
L 86.224869 -82.212935 
L 87.039273 -82.99542 
L 87.853678 -83.756984 
L 88.668082 -84.400982 
L 89.482487 -84.851336 
L 90.296891 -85.086009 
L 91.111296 -85.153864 
L 91.9257 -85.165259 
L 92.740105 -85.25766 
L 93.55451 -85.549565 
L 94.368914 -86.101981 
L 95.183319 -86.902704 
L 95.997723 -87.877184 
L 96.812128 -88.91803 
L 97.626532 -89.919458 
L 98.440937 -90.804104 
L 99.255341 -91.534517 
L 100.069746 -92.10758 
L 100.884151 -92.536395 
L 101.698555 -92.829617 
L 102.51296 -92.980232 
L 103.327364 -92.97152 
L 104.141769 -92.798175 
L 104.956173 -92.490625 
L 105.770578 -92.127385 
L 106.584982 -91.825841 
L 107.399387 -91.71231 
L 108.213792 -91.881577 
L 109.028196 -92.360866 
L 109.842601 -93.092821 
L 110.657005 -93.946665 
L 111.47141 -94.757424 
L 112.285814 -95.381502 
L 113.100219 -95.747942 
L 113.914623 -95.883919 
L 114.729028 -95.902713 
L 115.543433 -95.958416 
L 116.357837 -96.185434 
L 117.172242 -96.645456 
L 117.986646 -97.300062 
L 118.801051 -98.017306 
L 119.615455 -98.610468 
L 120.42986 -98.89741 
L 121.244264 -98.76114 
L 122.058669 -98.189834 
L 122.873074 -97.280918 
L 123.687478 -96.207932 
L 124.501883 -95.164416 
L 125.316287 -94.307454 
L 126.130692 -93.721012 
L 126.945096 -93.408646 
L 127.759501 -93.312946 
L 128.573905 -93.350336 
L 129.38831 -93.446731 
L 130.202714 -93.561669 
L 131.017119 -93.6944 
L 131.831524 -93.873146 
L 132.645928 -94.134945 
L 133.460333 -94.505821 
L 134.274737 -94.988918 
L 135.089142 -95.5634 
L 135.903546 -96.191984 
L 136.717951 -96.83162 
L 137.532355 -97.44148 
L 138.34676 -97.985082 
L 139.161165 -98.428104 
L 139.975569 -98.737024 
L 140.789974 -98.88355 
L 141.604378 -98.855863 
L 142.418783 -98.672425 
L 143.233187 -98.390867 
L 144.047592 -98.104546 
L 144.861996 -97.923805 
L 145.676401 -97.94541 
L 146.490806 -98.219798 
L 147.30521 -98.728555 
L 148.119615 -99.382287 
L 148.934019 -100.04235 
L 149.748424 -100.561207 
L 150.562828 -100.829177 
L 151.377233 -100.811866 
L 152.191637 -100.564348 
L 153.006042 -100.215255 
L 153.820447 -99.925038 
L 154.634851 -99.833253 
L 155.449256 -100.014383 
L 156.26366 -100.457649 
L 157.078065 -101.076049 
L 157.892469 -101.738922 
L 158.706874 -102.315355 
L 159.521278 -102.71356 
L 160.335683 -102.903327 
L 161.150087 -102.914506 
L 161.964492 -102.813788 
L 162.778897 -102.671337 
L 163.593301 -102.53277 
L 164.407706 -102.407689 
L 165.22211 -102.276525 
L 166.036515 -102.108957 
L 166.850919 -101.883759 
L 167.665324 -101.601325 
L 168.479728 -101.283791 
L 169.294133 -100.962442 
L 170.108538 -100.657605 
L 170.922942 -100.360871 
L 171.737347 -100.029845 
L 172.551751 -99.599902 
L 173.366156 -99.008506 
L 174.18056 -98.221012 
L 174.994965 -97.246423 
L 175.809369 -96.136833 
L 176.623774 -94.971427 
L 177.438179 -93.831755 
L 178.252583 -92.777885 
L 179.066988 -91.834696 
L 179.881392 -90.993343 
L 180.695797 -90.226197 
L 181.510201 -89.507459 
L 182.324606 -88.829509 
L 183.13901 -88.207669 
L 183.953415 -87.671709 
L 184.76782 -87.24808 
L 185.582224 -86.940881 
L 186.396629 -86.720746 
L 187.211033 -86.528089 
L 188.025438 -86.290681 
L 188.839842 -85.948604 
L 189.654247 -85.476168 
L 190.468651 -84.892002 
L 191.283056 -84.253746 
L 192.097461 -83.63981 
L 192.911865 -83.125101 
L 193.72627 -82.759417 
L 194.540674 -82.556023 
L 195.355079 -82.493717 
L 196.169483 -82.530107 
L 196.983888 -82.619858 
L 197.798292 -82.730962 
L 198.612697 -82.854088 
L 199.427101 -83.00297 
L 200.241506 -83.206761 
L 201.055911 -83.497958 
L 201.870315 -83.901112 
L 202.68472 -84.426402 
L 203.499124 -85.068634 
L 204.313529 -85.808892 
L 205.127933 -86.615919 
L 205.942338 -87.447039 
L 206.756742 -88.250574 
L 207.571147 -88.97114 
L 208.385552 -89.5572 
L 209.199956 -89.969253 
L 210.014361 -90.187197 
L 210.828765 -90.215333 
L 211.64317 -90.082698 
L 212.457574 -89.836576 
L 213.271979 -89.529437 
L 214.086383 -89.203326 
L 214.900788 -88.877719 
L 215.715193 -88.545221 
L 216.529597 -88.175851 
L 217.344002 -87.727642 
L 218.158406 -87.159809 
L 218.972811 -86.444521 
L 219.787215 -85.574063 
L 220.60162 -84.562036 
L 221.416024 -83.439308 
L 222.230429 -82.247181 
L 223.044834 -81.03039 
L 223.859238 -79.831713 
L 224.673643 -78.688646 
L 225.488047 -77.631524 
L 226.302452 -76.681768 
L 227.116856 -75.849115 
L 227.931261 -75.127856 
L 228.745665 -74.494229 
L 229.56007 -73.907849 
L 230.374474 -73.318759 
L 231.188879 -72.678694 
L 232.003284 -71.952588 
L 232.817688 -71.125936 
L 233.632093 -70.2056 
L 234.446497 -69.214669 
L 235.260902 -68.184319 
L 236.075306 -67.146204 
L 236.889711 -66.127784 
L 237.704115 -65.151072 
L 238.51852 -64.233504 
L 239.332925 -63.388909 
L 240.147329 -62.626757 
L 240.961734 -61.948952 
L 241.776138 -61.345037 
L 242.590543 -60.788791 
L 243.404947 -60.240024 
L 244.219352 -59.653748 
L 245.033756 -58.99496 
L 245.848161 -58.253202 
L 246.662566 -57.44979 
L 247.47697 -56.633461 
L 248.291375 -55.865262 
L 249.105779 -55.198243 
L 249.920184 -54.659876 
L 250.734588 -54.244628 
L 251.548993 -53.920582 
L 252.363397 -53.648119 
L 253.177802 -53.402612 
L 253.992207 -53.190079 
L 254.806611 -53.047314 
L 255.621016 -53.025403 
L 256.43542 -53.163365 
L 257.249825 -53.462992 
L 258.064229 -53.87563 
L 258.878634 -54.307804 
L 259.693038 -54.64648 
L 260.507443 -54.796881 
L 261.321848 -54.718993 
L 262.136252 -54.447165 
L 262.950657 -54.083105 
L 263.765061 -53.763799 
L 264.579466 -53.616686 
L 265.39387 -53.71923 
L 266.208275 -54.077217 
L 267.022679 -54.627791 
L 267.837084 -55.263931 
L 268.651488 -55.869995 
L 269.465893 -56.355472 
L 270.280298 -56.67616 
L 271.094702 -56.837608 
L 271.909107 -56.882633 
L 272.723511 -56.870529 
L 273.537916 -56.857512 
L 274.35232 -56.885421 
L 275.166725 -56.979965 
L 275.981129 -57.154681 
L 276.795534 -57.414755 
L 277.609939 -57.756575 
L 278.424343 -58.162958 
L 279.238748 -58.598078 
L 280.053152 -59.007722 
L 280.867557 -59.328638 
L 281.681961 -59.505994 
L 282.496366 -59.512859 
L 283.31077 -59.36316 
L 284.125175 -59.111553 
L 284.93958 -58.838802 
L 285.753984 -58.627232 
L 286.568389 -58.535072 
L 287.382793 -58.579078 
L 288.197198 -58.731965 
L 289.011602 -58.93541 
L 289.826007 -59.123194 
L 290.640411 -59.244933 
L 291.454816 -59.280915 
L 292.269221 -59.242804 
L 293.083625 -59.161544 
L 293.89803 -59.069596 
L 294.712434 -58.987173 
L 295.526839 -58.919437 
L 296.341243 -58.865109 
L 297.155648 -58.830323 
L 297.970052 -58.838721 
L 298.784457 -58.93086 
L 299.598862 -59.15167 
L 300.413266 -59.530817 
L 301.227671 -60.0647 
L 302.042075 -60.709119 
L 302.85648 -61.388124 
L 303.670884 -62.017925 
L 304.485289 -62.53738 
L 305.299693 -62.932055 
L 306.114098 -63.240332 
L 306.928502 -63.537182 
L 307.742907 -63.900972 
L 308.557312 -64.376388 
L 309.371716 -64.948938 
L 310.186121 -65.54266 
L 311.000525 -66.04395 
L 311.81493 -66.343825 
L 312.629334 -66.382644 
L 313.443739 -66.179183 
L 314.258143 -65.831678 
L 315.072548 -65.489494 
L 315.886953 -65.305684 
L 316.701357 -65.387935 
L 317.515762 -65.765716 
L 318.330166 -66.385052 
L 319.144571 -67.132126 
L 319.958975 -67.876358 
L 320.77338 -68.516637 
L 321.587784 -69.01339 
L 322.402189 -69.394969 
L 323.216594 -69.736994 
L 324.030998 -70.123772 
L 324.845403 -70.607725 
L 325.659807 -71.1833 
L 326.474212 -71.785678 
L 327.288616 -72.314149 
L 328.103021 -72.670006 
L 328.917425 -72.793563 
L 329.73183 -72.686392 
L 330.546235 -72.41159 
L 331.360639 -72.073537 
L 332.175044 -71.785678 
L 332.989448 -71.638318 
L 333.803853 -71.677523 
L 334.618257 -71.901287 
L 335.432662 -72.271875 
L 336.247066 -72.736729 
L 337.061471 -73.24783 
L 337.875875 -73.771977 
L 338.69028 -74.29027 
L 339.504685 -74.790486 
L 340.319089 -75.258702 
L 341.133494 -75.675688 
L 341.947898 -76.020646 
L 342.762303 -76.280994 
L 343.576707 -76.46354 
L 344.391112 -76.600845 
L 345.205516 -76.747928 
L 346.019921 -76.968603 
L 346.834326 -77.315753 
L 347.64873 -77.813333 
L 348.463135 -78.447729 
L 349.277539 -79.172273 
L 350.091944 -79.922941 
L 350.906348 -80.638378 
L 351.720753 -81.275717 
L 352.535157 -81.815994 
L 353.349562 -82.257922 
L 354.163967 -82.604379 
L 354.978371 -82.849421 
L 355.792776 -82.973753 
L 356.60718 -82.953104 
L 357.421585 -82.777796 
L 358.235989 -82.475181 
L 359.050394 -82.122785 
L 359.864798 -81.84205 
L 360.679203 -81.770256 
L 361.493608 -82.01812 
L 362.308012 -82.627807 
L 363.122417 -83.547685 
L 363.936821 -84.63552 
L 364.751226 -85.692728 
L 365.56563 -86.52149 
L 366.380035 -86.987038 
L 367.194439 -87.0632 
L 368.008844 -86.843054 
L 368.823249 -86.508307 
L 369.637653 -86.266711 
L 370.452058 -86.279479 
L 371.266462 -86.604204 
L 372.080867 -87.172695 
L 372.895271 -87.810512 
L 373.709676 -88.291488 
L 374.52408 -88.40966 
L 375.338485 -88.045362 
L 376.152889 -87.203668 
L 376.967294 -86.012431 
L 377.781699 -84.681521 
L 378.596103 -83.439089 
L 379.410508 -82.468088 
L 380.224912 -81.863925 
L 381.039317 -81.624017 
L 381.853721 -81.667653 
L 382.668126 -81.875047 
L 383.48253 -82.130092 
L 384.296935 -82.352446 
L 385.11134 -82.510177 
L 385.925744 -82.612446 
L 386.740149 -82.689502 
L 387.554553 -82.771171 
L 388.368958 -82.873239 
L 389.183362 -82.995455 
L 389.997767 -83.128905 
L 390.812171 -83.266755 
L 391.626576 -83.411954 
L 392.440981 -83.577908 
L 393.255385 -83.782096 
L 394.06979 -84.036396 
L 394.884194 -84.339749 
L 395.698599 -84.677674 
L 396.513003 -85.029418 
L 397.327408 -85.379274 
L 398.141812 -85.725973 
L 398.956217 -86.084707 
L 399.770622 -86.479781 
L 400.585026 -86.9306 
L 401.399431 -87.437153 
L 402.213835 -87.971884 
L 403.02824 -88.482578 
L 403.842644 -88.906553 
L 404.657049 -89.191891 
L 405.471453 -89.31795 
L 406.285858 -89.30656 
L 407.100262 -89.217929 
L 407.914667 -89.131451 
L 408.729072 -89.118475 
L 409.543476 -89.217774 
L 410.357881 -89.422909 
L 411.172285 -89.685511 
L 411.98669 -89.932828 
L 412.801094 -90.093741 
L 413.615499 -90.124892 
L 413.615499 -107.825883 
L 413.615499 -107.825883 
L 412.801094 -107.781504 
L 411.98669 -107.616467 
L 411.172285 -107.369773 
L 410.357881 -107.108512 
L 409.543476 -106.902377 
L 408.729072 -106.796545 
L 407.914667 -106.794187 
L 407.100262 -106.855419 
L 406.285858 -106.911936 
L 405.471453 -106.890512 
L 404.657049 -106.736635 
L 403.842644 -106.430768 
L 403.02824 -105.992461 
L 402.213835 -105.471224 
L 401.399431 -104.927644 
L 400.585026 -104.412371 
L 399.770622 -103.951686 
L 398.956217 -103.544912 
L 398.141812 -103.173049 
L 397.327408 -102.813012 
L 396.513003 -102.450506 
L 395.698599 -102.086352 
L 394.884194 -101.734534 
L 394.06979 -101.413919 
L 393.255385 -101.138152 
L 392.440981 -100.908903 
L 391.626576 -100.715797 
L 390.812171 -100.542956 
L 389.997767 -100.378405 
L 389.183362 -100.220676 
L 388.368958 -100.078124 
L 387.554553 -99.960502 
L 386.740149 -99.867388 
L 385.925744 -99.780852 
L 385.11134 -99.668461 
L 384.296935 -99.497893 
L 383.48253 -99.258689 
L 382.668126 -98.982167 
L 381.853721 -98.749132 
L 381.039317 -98.677806 
L 380.224912 -98.891265 
L 379.410508 -99.472885 
L 378.596103 -100.425784 
L 377.781699 -101.653487 
L 376.967294 -102.972397 
L 376.152889 -104.155042 
L 375.338485 -104.991852 
L 374.52408 -105.352422 
L 373.709676 -105.226286 
L 372.895271 -104.728178 
L 372.080867 -104.063177 
L 371.266462 -103.460938 
L 370.452058 -103.100601 
L 369.637653 -103.053022 
L 368.823249 -103.261084 
L 368.008844 -103.56431 
L 367.194439 -103.757638 
L 366.380035 -103.662713 
L 365.56563 -103.187583 
L 364.751226 -102.35606 
L 363.936821 -101.298705 
L 363.122417 -100.209939 
L 362.308012 -99.286781 
L 361.493608 -98.670781 
L 360.679203 -98.412687 
L 359.864798 -98.469546 
L 359.050394 -98.73102 
L 358.235989 -99.06149 
L 357.421585 -99.341246 
L 356.60718 -99.493376 
L 355.792776 -99.490266 
L 354.978371 -99.341793 
L 354.163967 -99.073684 
L 353.349562 -98.70723 
L 352.535157 -98.249465 
L 351.720753 -97.696946 
L 350.906348 -97.04919 
L 350.091944 -96.323112 
L 349.277539 -95.55974 
L 348.463135 -94.818859 
L 347.64873 -94.163412 
L 346.834326 -93.640148 
L 346.019921 -93.264485 
L 345.205516 -93.015621 
L 344.391112 -92.843737 
L 343.576707 -92.686402 
L 342.762303 -92.487782 
L 341.947898 -92.213283 
L 341.133494 -91.85439 
L 340.319089 -91.422967 
L 339.504685 -90.939398 
L 338.69028 -90.421869 
L 337.875875 -89.882921 
L 337.061471 -89.33465 
L 336.247066 -88.798341 
L 335.432662 -88.311281 
L 334.618257 -87.924672 
L 333.803853 -87.691112 
L 332.989448 -87.645239 
L 332.175044 -87.784821 
L 331.360639 -88.06046 
L 330.546235 -88.380204 
L 329.73183 -88.630519 
L 328.917425 -88.708487 
L 328.103021 -88.554185 
L 327.288616 -88.170322 
L 326.474212 -87.620173 
L 325.659807 -87.003393 
L 324.845403 -86.418525 
L 324.030998 -85.926596 
L 323.216594 -85.529891 
L 322.402189 -85.174365 
L 321.587784 -84.775297 
L 320.77338 -84.256878 
L 319.958975 -83.590511 
L 319.144571 -82.816278 
L 318.330166 -82.037541 
L 317.515762 -81.388835 
L 316.701357 -80.988098 
L 315.886953 -80.891392 
L 315.072548 -81.067984 
L 314.258143 -81.406186 
L 313.443739 -81.748358 
L 312.629334 -81.94208 
L 311.81493 -81.88833 
L 311.000525 -81.569149 
L 310.186121 -81.045603 
L 309.371716 -80.428239 
L 308.557312 -79.832387 
L 307.742907 -79.335755 
L 306.928502 -78.954135 
L 306.114098 -78.643302 
L 305.299693 -78.32449 
L 304.485289 -77.921589 
L 303.670884 -77.394379 
L 302.85648 -76.75502 
L 302.042075 -76.062778 
L 301.227671 -75.400953 
L 300.413266 -74.846496 
L 299.598862 -74.445019 
L 298.784457 -74.200836 
L 297.970052 -74.084503 
L 297.155648 -74.052117 
L 296.341243 -74.065606 
L 295.526839 -74.104064 
L 294.712434 -74.162186 
L 293.89803 -74.239227 
L 293.083625 -74.326365 
L 292.269221 -74.400293 
L 291.454816 -74.427311 
L 290.640411 -74.376798 
L 289.826007 -74.237977 
L 289.011602 -74.031525 
L 288.197198 -73.809053 
L 287.382793 -73.638424 
L 286.568389 -73.579354 
L 285.753984 -73.658954 
L 284.93958 -73.857865 
L 284.125175 -74.113581 
L 283.31077 -74.340177 
L 282.496366 -74.456444 
L 281.681961 -74.411128 
L 280.867557 -74.195895 
L 280.053152 -73.842712 
L 279.238748 -73.408935 
L 278.424343 -72.957566 
L 277.609939 -72.540673 
L 276.795534 -72.19109 
L 275.981129 -71.922983 
L 275.166725 -71.737559 
L 274.35232 -71.628257 
L 273.537916 -71.581239 
L 272.723511 -71.571344 
L 271.909107 -71.557932 
L 271.094702 -71.486511 
L 270.280298 -71.299717 
L 269.465893 -70.95632 
L 268.651488 -70.451719 
L 267.837084 -69.830771 
L 267.022679 -69.184863 
L 266.208275 -68.630394 
L 265.39387 -68.273632 
L 264.579466 -68.174082 
L 263.765061 -68.320899 
L 262.950657 -68.632677 
L 262.136252 -68.981659 
L 261.321848 -69.233962 
L 260.507443 -69.291586 
L 259.693038 -69.121845 
L 258.878634 -68.764553 
L 258.064229 -68.314934 
L 257.249825 -67.88872 
L 256.43542 -67.582717 
L 255.621016 -67.446128 
L 254.806611 -67.473393 
L 253.992207 -67.619511 
L 253.177802 -67.828861 
L 252.363397 -68.063428 
L 251.548993 -68.318442 
L 250.734588 -68.620556 
L 249.920184 -69.01151 
L 249.105779 -69.525581 
L 248.291375 -70.170559 
L 247.47697 -70.920174 
L 246.662566 -71.721059 
L 245.848161 -72.510943 
L 245.033756 -73.239783 
L 244.219352 -73.88498 
L 243.404947 -74.455539 
L 242.590543 -74.985414 
L 241.776138 -75.52018 
L 240.961734 -76.102597 
L 240.147329 -76.761944 
L 239.332925 -77.509984 
L 238.51852 -78.343541 
L 237.704115 -79.250693 
L 236.889711 -80.216155 
L 236.075306 -81.222946 
L 235.260902 -82.25048 
L 234.446497 -83.27212 
L 233.632093 -84.255731 
L 232.817688 -85.168875 
L 232.003284 -85.98726 
L 231.188879 -86.702965 
L 230.374474 -87.328886 
L 229.56007 -87.897586 
L 228.745665 -88.455028 
L 227.931261 -89.051307 
L 227.116856 -89.730888 
L 226.302452 -90.524529 
L 225.488047 -91.444537 
L 224.673643 -92.484095 
L 223.859238 -93.620135 
L 223.044834 -94.817808 
L 222.230429 -96.034726 
L 221.416024 -97.224398 
L 220.60162 -98.339865 
L 219.787215 -99.338885 
L 218.972811 -100.190751 
L 218.158406 -100.883112 
L 217.344002 -101.426092 
L 216.529597 -101.850991 
L 215.715193 -102.202277 
L 214.900788 -102.524109 
L 214.086383 -102.845606 
L 213.271979 -103.170418 
L 212.457574 -103.474476 
L 211.64317 -103.712349 
L 210.828765 -103.8297 
L 210.014361 -103.778024 
L 209.199956 -103.527746 
L 208.385552 -103.076238 
L 207.571147 -102.448337 
L 206.756742 -101.68947 
L 205.942338 -100.854882 
L 205.127933 -99.999898 
L 204.313529 -99.174027 
L 203.499124 -98.418065 
L 202.68472 -97.761814 
L 201.870315 -97.221552 
L 201.055911 -96.79846 
L 200.241506 -96.479509 
L 199.427101 -96.241213 
L 198.612697 -96.055782 
L 197.798292 -95.899189 
L 196.983888 -95.760141 
L 196.169483 -95.647168 
L 195.355079 -95.58969 
L 194.540674 -95.63023 
L 193.72627 -95.809019 
L 192.911865 -96.146389 
L 192.097461 -96.629973 
L 191.283056 -97.21242 
L 190.468651 -97.821775 
L 189.654247 -98.381941 
L 188.839842 -98.836286 
L 188.025438 -99.165429 
L 187.211033 -99.392193 
L 186.396629 -99.57203 
L 185.582224 -99.773051 
L 184.76782 -100.0534 
L 183.953415 -100.444276 
L 183.13901 -100.944865 
L 182.324606 -101.530842 
L 181.510201 -102.17226 
L 180.695797 -102.852128 
L 179.881392 -103.576416 
L 179.066988 -104.370372 
L 178.252583 -105.262691 
L 177.438179 -106.264937 
L 176.623774 -107.35583 
L 175.809369 -108.478323 
L 174.994965 -109.552232 
L 174.18056 -110.498297 
L 173.366156 -111.263721 
L 172.551751 -111.838062 
L 171.737347 -112.252931 
L 170.922942 -112.566567 
L 170.108538 -112.840596 
L 169.294133 -113.118301 
L 168.479728 -113.412155 
L 167.665324 -113.704964 
L 166.850919 -113.964103 
L 166.036515 -114.162477 
L 165.22211 -114.295412 
L 164.407706 -114.383686 
L 163.593301 -114.460189 
L 162.778897 -114.547266 
L 161.964492 -114.637293 
L 161.150087 -114.687253 
L 160.335683 -114.631012 
L 159.521278 -114.40538 
L 158.706874 -113.980626 
L 157.892469 -113.383513 
L 157.078065 -112.701639 
L 156.26366 -112.063431 
L 155.449256 -111.598189 
L 154.634851 -111.390647 
L 153.820447 -111.448423 
L 153.006042 -111.695605 
L 152.191637 -111.994924 
L 151.377233 -112.190422 
L 150.562828 -112.156412 
L 149.748424 -111.837203 
L 148.934019 -111.264604 
L 148.119615 -110.546879 
L 147.30521 -109.832742 
L 146.490806 -109.26362 
L 145.676401 -108.931629 
L 144.861996 -108.857117 
L 144.047592 -108.990776 
L 143.233187 -109.235947 
L 142.418783 -109.480806 
L 141.604378 -109.628687 
L 140.789974 -109.617384 
L 139.975569 -109.423966 
L 139.161165 -109.057698 
L 138.34676 -108.547789 
L 137.532355 -107.932386 
L 136.717951 -107.252358 
L 135.903546 -106.549664 
L 135.089142 -105.867363 
L 134.274737 -105.2475 
L 133.460333 -104.724676 
L 132.645928 -104.31677 
L 131.831524 -104.017731 
L 131.017119 -103.798545 
L 130.202714 -103.619424 
L 129.38831 -103.450579 
L 128.573905 -103.293422 
L 127.759501 -103.191739 
L 126.945096 -103.224721 
L 126.130692 -103.480359 
L 125.316287 -104.016919 
L 124.501883 -104.827375 
L 123.687478 -105.822839 
L 122.873074 -106.844258 
L 122.058669 -107.700553 
L 121.244264 -108.221377 
L 120.42986 -108.307733 
L 119.615455 -107.964034 
L 118.801051 -107.299536 
L 117.986646 -106.495517 
L 117.172242 -105.746451 
L 116.357837 -105.195101 
L 115.543433 -104.886403 
L 114.729028 -104.758724 
L 113.914623 -104.675339 
L 113.100219 -104.482035 
L 112.285814 -104.067287 
L 111.47141 -103.403362 
L 110.657005 -102.555958 
L 109.842601 -101.661348 
L 109.028196 -100.879923 
L 108.213792 -100.342568 
L 107.399387 -100.109214 
L 106.584982 -100.154646 
L 105.770578 -100.385144 
L 104.956173 -100.676204 
L 104.141769 -100.913464 
L 103.327364 -101.020504 
L 102.51296 -100.96585 
L 101.698555 -100.75145 
L 100.884151 -100.391607 
L 100.069746 -99.893701 
L 99.255341 -99.250442 
L 98.440937 -98.44809 
L 97.626532 -97.487084 
L 96.812128 -96.403728 
L 95.997723 -95.278756 
L 95.183319 -94.224098 
L 94.368914 -93.350638 
L 93.55451 -92.730335 
L 92.740105 -92.369271 
L 91.9257 -92.202786 
L 91.111296 -92.114306 
L 90.296891 -91.970931 
L 89.482487 -91.663938 
L 88.668082 -91.14101 
L 87.853678 -90.4189 
L 87.039273 -89.571205 
L 86.224869 -88.695795 
L 85.410464 -87.876032 
L 84.59606 -87.153422 
L 83.781655 -86.523527 
L 82.96725 -85.95476 
L 82.152846 -85.418303 
L 81.338441 -84.912982 
L 80.524037 -84.472949 
L 79.709632 -84.154993 
L 78.895228 -84.011377 
L 78.080823 -84.059908 
L 77.266419 -84.264287 
L 76.452014 -84.534733 
L 75.637609 -84.751635 
L 74.823205 -84.805098 
L 74.0088 -84.63442 
L 73.194396 -84.249132 
L 72.379991 -83.720376 
L 71.565587 -83.145179 
L 70.751182 -82.599349 
L 69.936778 -82.100205 
L 69.122373 -81.596001 
L 68.307968 -80.987516 
L 67.493564 -80.174439 
L 66.679159 -79.10923 
L 65.864755 -77.836365 
L 65.05035 -76.497915 
L 64.235946 -75.298418 
L 63.421541 -74.439122 
L 62.607137 -74.046328 
L 61.792732 -74.123012 
L 60.978327 -74.544465 
L 60.163923 -75.100776 
L 59.349518 -75.569826 
L 58.535114 -75.792357 
L 57.720709 -75.720046 
L 56.906305 -75.4188 
L 56.0919 -75.028017 
L 55.277496 -74.694115 
L 54.463091 -74.505506 
L 53.648687 -74.454226 
L 52.834282 -74.438857 
L 52.019877 -74.307808 
L 51.205473 -73.925598 
L 50.391068 -73.2342 
L 49.576664 -72.282906 
L 48.762259 -71.214329 
L 47.947855 -70.213654 
L 47.13345 -69.442977 
L 46.319046 -68.986398 
L 45.504641 -68.82571 
L 44.690236 -68.855039 
L 43.875832 -68.928618 
L 43.061427 -68.922191 
L 42.247023 -68.781539 
L 41.432618 -68.536943 
L 40.618214 -68.278784 
L 39.803809 -68.108374 
L 38.989405 -68.088539 
L 38.175 -68.215492 
z
" style="stroke: #377eb8; stroke-opacity: 0.3"/>
    </defs>
    <g clip-path="url(#p458232012f)">
     <use xlink:href="#m7384f46185" x="0" y="360" style="fill: #377eb8; fill-opacity: 0.3; stroke: #377eb8; stroke-opacity: 0.3"/>
    </g>
   </g>
   <g id="patch_3">
    <path d="M 225.650928 318.2 
L 225.650928 71.241125 
L 329.894711 71.241125 
L 329.894711 318.2 
z
" clip-path="url(#p458232012f)" style="fill: #808080; opacity: 0.3"/>
   </g>
   <g id="matplotlib.axis_1">
    <g id="xtick_1">
     <g id="line2d_1">
      <defs>
       <path id="meb9d42a956" d="M 0 0 
L 0 3.5 
" style="stroke: #000000; stroke-width: 0.8"/>
      </defs>
      <g>
       <use xlink:href="#meb9d42a956" x="79.709632" y="318.2" style="stroke: #000000; stroke-width: 0.8"/>
      </g>
     </g>
     <g id="text_1">
      <!-- 0.0 -->
      <g transform="translate(71.75807 332.798437)scale(0.1 -0.1)">
       <defs>
        <path id="DejaVuSans-30" d="M 2034 4250 
Q 1547 4250 1301 3770 
Q 1056 3291 1056 2328 
Q 1056 1369 1301 889 
Q 1547 409 2034 409 
Q 2525 409 2770 889 
Q 3016 1369 3016 2328 
Q 3016 3291 2770 3770 
Q 2525 4250 2034 4250 
z
M 2034 4750 
Q 2819 4750 3233 4129 
Q 3647 3509 3647 2328 
Q 3647 1150 3233 529 
Q 2819 -91 2034 -91 
Q 1250 -91 836 529 
Q 422 1150 422 2328 
Q 422 3509 836 4129 
Q 1250 4750 2034 4750 
z
" transform="scale(0.015625)"/>
        <path id="DejaVuSans-2e" d="M 684 794 
L 1344 794 
L 1344 0 
L 684 0 
L 684 794 
z
" transform="scale(0.015625)"/>
       </defs>
       <use xlink:href="#DejaVuSans-30"/>
       <use xlink:href="#DejaVuSans-2e" x="63.623047"/>
       <use xlink:href="#DejaVuSans-30" x="95.410156"/>
      </g>
     </g>
    </g>
    <g id="xtick_2">
     <g id="line2d_2">
      <g>
       <use xlink:href="#meb9d42a956" x="163.104658" y="318.2" style="stroke: #000000; stroke-width: 0.8"/>
      </g>
     </g>
     <g id="text_2">
      <!-- 0.2 -->
      <g transform="translate(155.153096 332.798437)scale(0.1 -0.1)">
       <defs>
        <path id="DejaVuSans-32" d="M 1228 531 
L 3431 531 
L 3431 0 
L 469 0 
L 469 531 
Q 828 903 1448 1529 
Q 2069 2156 2228 2338 
Q 2531 2678 2651 2914 
Q 2772 3150 2772 3378 
Q 2772 3750 2511 3984 
Q 2250 4219 1831 4219 
Q 1534 4219 1204 4116 
Q 875 4013 500 3803 
L 500 4441 
Q 881 4594 1212 4672 
Q 1544 4750 1819 4750 
Q 2544 4750 2975 4387 
Q 3406 4025 3406 3419 
Q 3406 3131 3298 2873 
Q 3191 2616 2906 2266 
Q 2828 2175 2409 1742 
Q 1991 1309 1228 531 
z
" transform="scale(0.015625)"/>
       </defs>
       <use xlink:href="#DejaVuSans-30"/>
       <use xlink:href="#DejaVuSans-2e" x="63.623047"/>
       <use xlink:href="#DejaVuSans-32" x="95.410156"/>
      </g>
     </g>
    </g>
    <g id="xtick_3">
     <g id="line2d_3">
      <g>
       <use xlink:href="#meb9d42a956" x="246.499685" y="318.2" style="stroke: #000000; stroke-width: 0.8"/>
      </g>
     </g>
     <g id="text_3">
      <!-- 0.4 -->
      <g transform="translate(238.548122 332.798437)scale(0.1 -0.1)">
       <defs>
        <path id="DejaVuSans-34" d="M 2419 4116 
L 825 1625 
L 2419 1625 
L 2419 4116 
z
M 2253 4666 
L 3047 4666 
L 3047 1625 
L 3713 1625 
L 3713 1100 
L 3047 1100 
L 3047 0 
L 2419 0 
L 2419 1100 
L 313 1100 
L 313 1709 
L 2253 4666 
z
" transform="scale(0.015625)"/>
       </defs>
       <use xlink:href="#DejaVuSans-30"/>
       <use xlink:href="#DejaVuSans-2e" x="63.623047"/>
       <use xlink:href="#DejaVuSans-34" x="95.410156"/>
      </g>
     </g>
    </g>
    <g id="xtick_4">
     <g id="line2d_4">
      <g>
       <use xlink:href="#meb9d42a956" x="329.894711" y="318.2" style="stroke: #000000; stroke-width: 0.8"/>
      </g>
     </g>
     <g id="text_4">
      <!-- 0.6 -->
      <g transform="translate(321.943148 332.798437)scale(0.1 -0.1)">
       <defs>
        <path id="DejaVuSans-36" d="M 2113 2584 
Q 1688 2584 1439 2293 
Q 1191 2003 1191 1497 
Q 1191 994 1439 701 
Q 1688 409 2113 409 
Q 2538 409 2786 701 
Q 3034 994 3034 1497 
Q 3034 2003 2786 2293 
Q 2538 2584 2113 2584 
z
M 3366 4563 
L 3366 3988 
Q 3128 4100 2886 4159 
Q 2644 4219 2406 4219 
Q 1781 4219 1451 3797 
Q 1122 3375 1075 2522 
Q 1259 2794 1537 2939 
Q 1816 3084 2150 3084 
Q 2853 3084 3261 2657 
Q 3669 2231 3669 1497 
Q 3669 778 3244 343 
Q 2819 -91 2113 -91 
Q 1303 -91 875 529 
Q 447 1150 447 2328 
Q 447 3434 972 4092 
Q 1497 4750 2381 4750 
Q 2619 4750 2861 4703 
Q 3103 4656 3366 4563 
z
" transform="scale(0.015625)"/>
       </defs>
       <use xlink:href="#DejaVuSans-30"/>
       <use xlink:href="#DejaVuSans-2e" x="63.623047"/>
       <use xlink:href="#DejaVuSans-36" x="95.410156"/>
      </g>
     </g>
    </g>
    <g id="xtick_5">
     <g id="line2d_5">
      <g>
       <use xlink:href="#meb9d42a956" x="413.289737" y="318.2" style="stroke: #000000; stroke-width: 0.8"/>
      </g>
     </g>
     <g id="text_5">
      <!-- 0.8 -->
      <g transform="translate(405.338175 332.798437)scale(0.1 -0.1)">
       <defs>
        <path id="DejaVuSans-38" d="M 2034 2216 
Q 1584 2216 1326 1975 
Q 1069 1734 1069 1313 
Q 1069 891 1326 650 
Q 1584 409 2034 409 
Q 2484 409 2743 651 
Q 3003 894 3003 1313 
Q 3003 1734 2745 1975 
Q 2488 2216 2034 2216 
z
M 1403 2484 
Q 997 2584 770 2862 
Q 544 3141 544 3541 
Q 544 4100 942 4425 
Q 1341 4750 2034 4750 
Q 2731 4750 3128 4425 
Q 3525 4100 3525 3541 
Q 3525 3141 3298 2862 
Q 3072 2584 2669 2484 
Q 3125 2378 3379 2068 
Q 3634 1759 3634 1313 
Q 3634 634 3220 271 
Q 2806 -91 2034 -91 
Q 1263 -91 848 271 
Q 434 634 434 1313 
Q 434 1759 690 2068 
Q 947 2378 1403 2484 
z
M 1172 3481 
Q 1172 3119 1398 2916 
Q 1625 2713 2034 2713 
Q 2441 2713 2670 2916 
Q 2900 3119 2900 3481 
Q 2900 3844 2670 4047 
Q 2441 4250 2034 4250 
Q 1625 4250 1398 4047 
Q 1172 3844 1172 3481 
z
" transform="scale(0.015625)"/>
       </defs>
       <use xlink:href="#DejaVuSans-30"/>
       <use xlink:href="#DejaVuSans-2e" x="63.623047"/>
       <use xlink:href="#DejaVuSans-38" x="95.410156"/>
      </g>
     </g>
    </g>
    <g id="text_6">
     <!-- seconds -->
     <g transform="translate(205.457749 346.476562)scale(0.1 -0.1)">
      <defs>
       <path id="DejaVuSans-73" d="M 2834 3397 
L 2834 2853 
Q 2591 2978 2328 3040 
Q 2066 3103 1784 3103 
Q 1356 3103 1142 2972 
Q 928 2841 928 2578 
Q 928 2378 1081 2264 
Q 1234 2150 1697 2047 
L 1894 2003 
Q 2506 1872 2764 1633 
Q 3022 1394 3022 966 
Q 3022 478 2636 193 
Q 2250 -91 1575 -91 
Q 1294 -91 989 -36 
Q 684 19 347 128 
L 347 722 
Q 666 556 975 473 
Q 1284 391 1588 391 
Q 1994 391 2212 530 
Q 2431 669 2431 922 
Q 2431 1156 2273 1281 
Q 2116 1406 1581 1522 
L 1381 1569 
Q 847 1681 609 1914 
Q 372 2147 372 2553 
Q 372 3047 722 3315 
Q 1072 3584 1716 3584 
Q 2034 3584 2315 3537 
Q 2597 3491 2834 3397 
z
" transform="scale(0.015625)"/>
       <path id="DejaVuSans-65" d="M 3597 1894 
L 3597 1613 
L 953 1613 
Q 991 1019 1311 708 
Q 1631 397 2203 397 
Q 2534 397 2845 478 
Q 3156 559 3463 722 
L 3463 178 
Q 3153 47 2828 -22 
Q 2503 -91 2169 -91 
Q 1331 -91 842 396 
Q 353 884 353 1716 
Q 353 2575 817 3079 
Q 1281 3584 2069 3584 
Q 2775 3584 3186 3129 
Q 3597 2675 3597 1894 
z
M 3022 2063 
Q 3016 2534 2758 2815 
Q 2500 3097 2075 3097 
Q 1594 3097 1305 2825 
Q 1016 2553 972 2059 
L 3022 2063 
z
" transform="scale(0.015625)"/>
       <path id="DejaVuSans-63" d="M 3122 3366 
L 3122 2828 
Q 2878 2963 2633 3030 
Q 2388 3097 2138 3097 
Q 1578 3097 1268 2742 
Q 959 2388 959 1747 
Q 959 1106 1268 751 
Q 1578 397 2138 397 
Q 2388 397 2633 464 
Q 2878 531 3122 666 
L 3122 134 
Q 2881 22 2623 -34 
Q 2366 -91 2075 -91 
Q 1284 -91 818 406 
Q 353 903 353 1747 
Q 353 2603 823 3093 
Q 1294 3584 2113 3584 
Q 2378 3584 2631 3529 
Q 2884 3475 3122 3366 
z
" transform="scale(0.015625)"/>
       <path id="DejaVuSans-6f" d="M 1959 3097 
Q 1497 3097 1228 2736 
Q 959 2375 959 1747 
Q 959 1119 1226 758 
Q 1494 397 1959 397 
Q 2419 397 2687 759 
Q 2956 1122 2956 1747 
Q 2956 2369 2687 2733 
Q 2419 3097 1959 3097 
z
M 1959 3584 
Q 2709 3584 3137 3096 
Q 3566 2609 3566 1747 
Q 3566 888 3137 398 
Q 2709 -91 1959 -91 
Q 1206 -91 779 398 
Q 353 888 353 1747 
Q 353 2609 779 3096 
Q 1206 3584 1959 3584 
z
" transform="scale(0.015625)"/>
       <path id="DejaVuSans-6e" d="M 3513 2113 
L 3513 0 
L 2938 0 
L 2938 2094 
Q 2938 2591 2744 2837 
Q 2550 3084 2163 3084 
Q 1697 3084 1428 2787 
Q 1159 2491 1159 1978 
L 1159 0 
L 581 0 
L 581 3500 
L 1159 3500 
L 1159 2956 
Q 1366 3272 1645 3428 
Q 1925 3584 2291 3584 
Q 2894 3584 3203 3211 
Q 3513 2838 3513 2113 
z
" transform="scale(0.015625)"/>
       <path id="DejaVuSans-64" d="M 2906 2969 
L 2906 4863 
L 3481 4863 
L 3481 0 
L 2906 0 
L 2906 525 
Q 2725 213 2448 61 
Q 2172 -91 1784 -91 
Q 1150 -91 751 415 
Q 353 922 353 1747 
Q 353 2572 751 3078 
Q 1150 3584 1784 3584 
Q 2172 3584 2448 3432 
Q 2725 3281 2906 2969 
z
M 947 1747 
Q 947 1113 1208 752 
Q 1469 391 1925 391 
Q 2381 391 2643 752 
Q 2906 1113 2906 1747 
Q 2906 2381 2643 2742 
Q 2381 3103 1925 3103 
Q 1469 3103 1208 2742 
Q 947 2381 947 1747 
z
" transform="scale(0.015625)"/>
      </defs>
      <use xlink:href="#DejaVuSans-73"/>
      <use xlink:href="#DejaVuSans-65" x="52.099609"/>
      <use xlink:href="#DejaVuSans-63" x="113.623047"/>
      <use xlink:href="#DejaVuSans-6f" x="168.603516"/>
      <use xlink:href="#DejaVuSans-6e" x="229.785156"/>
      <use xlink:href="#DejaVuSans-64" x="293.164062"/>
      <use xlink:href="#DejaVuSans-73" x="356.640625"/>
     </g>
    </g>
   </g>
   <g id="matplotlib.axis_2">
    <g id="ytick_1">
     <g id="line2d_6">
      <defs>
       <path id="m6cea7398eb" d="M 0 0 
L -3.5 0 
" style="stroke: #000000; stroke-width: 0.8"/>
      </defs>
      <g>
       <use xlink:href="#m6cea7398eb" x="38.175" y="286.301007" style="stroke: #000000; stroke-width: 0.8"/>
      </g>
     </g>
     <g id="text_7">
      <!-- 0 -->
      <g transform="translate(24.8125 290.100226)scale(0.1 -0.1)">
       <use xlink:href="#DejaVuSans-30"/>
      </g>
     </g>
    </g>
    <g id="ytick_2">
     <g id="line2d_7">
      <g>
       <use xlink:href="#m6cea7398eb" x="38.175" y="252.095848" style="stroke: #000000; stroke-width: 0.8"/>
      </g>
     </g>
     <g id="text_8">
      <!-- 1 -->
      <g transform="translate(24.8125 255.895067)scale(0.1 -0.1)">
       <defs>
        <path id="DejaVuSans-31" d="M 794 531 
L 1825 531 
L 1825 4091 
L 703 3866 
L 703 4441 
L 1819 4666 
L 2450 4666 
L 2450 531 
L 3481 531 
L 3481 0 
L 794 0 
L 794 531 
z
" transform="scale(0.015625)"/>
       </defs>
       <use xlink:href="#DejaVuSans-31"/>
      </g>
     </g>
    </g>
    <g id="ytick_3">
     <g id="line2d_8">
      <g>
       <use xlink:href="#m6cea7398eb" x="38.175" y="217.890689" style="stroke: #000000; stroke-width: 0.8"/>
      </g>
     </g>
     <g id="text_9">
      <!-- 2 -->
      <g transform="translate(24.8125 221.689908)scale(0.1 -0.1)">
       <use xlink:href="#DejaVuSans-32"/>
      </g>
     </g>
    </g>
    <g id="ytick_4">
     <g id="line2d_9">
      <g>
       <use xlink:href="#m6cea7398eb" x="38.175" y="183.68553" style="stroke: #000000; stroke-width: 0.8"/>
      </g>
     </g>
     <g id="text_10">
      <!-- 3 -->
      <g transform="translate(24.8125 187.484749)scale(0.1 -0.1)">
       <defs>
        <path id="DejaVuSans-33" d="M 2597 2516 
Q 3050 2419 3304 2112 
Q 3559 1806 3559 1356 
Q 3559 666 3084 287 
Q 2609 -91 1734 -91 
Q 1441 -91 1130 -33 
Q 819 25 488 141 
L 488 750 
Q 750 597 1062 519 
Q 1375 441 1716 441 
Q 2309 441 2620 675 
Q 2931 909 2931 1356 
Q 2931 1769 2642 2001 
Q 2353 2234 1838 2234 
L 1294 2234 
L 1294 2753 
L 1863 2753 
Q 2328 2753 2575 2939 
Q 2822 3125 2822 3475 
Q 2822 3834 2567 4026 
Q 2313 4219 1838 4219 
Q 1578 4219 1281 4162 
Q 984 4106 628 3988 
L 628 4550 
Q 988 4650 1302 4700 
Q 1616 4750 1894 4750 
Q 2613 4750 3031 4423 
Q 3450 4097 3450 3541 
Q 3450 3153 3228 2886 
Q 3006 2619 2597 2516 
z
" transform="scale(0.015625)"/>
       </defs>
       <use xlink:href="#DejaVuSans-33"/>
      </g>
     </g>
    </g>
    <g id="ytick_5">
     <g id="line2d_10">
      <g>
       <use xlink:href="#m6cea7398eb" x="38.175" y="149.480371" style="stroke: #000000; stroke-width: 0.8"/>
      </g>
     </g>
     <g id="text_11">
      <!-- 4 -->
      <g transform="translate(24.8125 153.27959)scale(0.1 -0.1)">
       <use xlink:href="#DejaVuSans-34"/>
      </g>
     </g>
    </g>
    <g id="ytick_6">
     <g id="line2d_11">
      <g>
       <use xlink:href="#m6cea7398eb" x="38.175" y="115.275212" style="stroke: #000000; stroke-width: 0.8"/>
      </g>
     </g>
     <g id="text_12">
      <!-- 5 -->
      <g transform="translate(24.8125 119.074431)scale(0.1 -0.1)">
       <defs>
        <path id="DejaVuSans-35" d="M 691 4666 
L 3169 4666 
L 3169 4134 
L 1269 4134 
L 1269 2991 
Q 1406 3038 1543 3061 
Q 1681 3084 1819 3084 
Q 2600 3084 3056 2656 
Q 3513 2228 3513 1497 
Q 3513 744 3044 326 
Q 2575 -91 1722 -91 
Q 1428 -91 1123 -41 
Q 819 9 494 109 
L 494 744 
Q 775 591 1075 516 
Q 1375 441 1709 441 
Q 2250 441 2565 725 
Q 2881 1009 2881 1497 
Q 2881 1984 2565 2268 
Q 2250 2553 1709 2553 
Q 1456 2553 1204 2497 
Q 953 2441 691 2322 
L 691 4666 
z
" transform="scale(0.015625)"/>
       </defs>
       <use xlink:href="#DejaVuSans-35"/>
      </g>
     </g>
    </g>
    <g id="ytick_7">
     <g id="line2d_12">
      <g>
       <use xlink:href="#m6cea7398eb" x="38.175" y="81.070053" style="stroke: #000000; stroke-width: 0.8"/>
      </g>
     </g>
     <g id="text_13">
      <!-- 6 -->
      <g transform="translate(24.8125 84.869271)scale(0.1 -0.1)">
       <use xlink:href="#DejaVuSans-36"/>
      </g>
     </g>
    </g>
    <g id="text_14">
     <!-- V -->
     <g transform="translate(18.732813 201.322125)rotate(-90)scale(0.1 -0.1)">
      <defs>
       <path id="DejaVuSans-b5" d="M 544 -1331 
L 544 3500 
L 1119 3500 
L 1119 1325 
Q 1119 872 1334 640 
Q 1550 409 1972 409 
Q 2434 409 2667 671 
Q 2900 934 2900 1459 
L 2900 3500 
L 3475 3500 
L 3475 806 
Q 3475 619 3529 530 
Q 3584 441 3700 441 
Q 3728 441 3778 458 
Q 3828 475 3916 513 
L 3916 50 
Q 3788 -22 3673 -56 
Q 3559 -91 3450 -91 
Q 3234 -91 3106 31 
Q 2978 153 2931 403 
Q 2775 156 2548 32 
Q 2322 -91 2016 -91 
Q 1697 -91 1473 31 
Q 1250 153 1119 397 
L 1119 -1331 
L 544 -1331 
z
" transform="scale(0.015625)"/>
       <path id="DejaVuSans-56" d="M 1831 0 
L 50 4666 
L 709 4666 
L 2188 738 
L 3669 4666 
L 4325 4666 
L 2547 0 
L 1831 0 
z
" transform="scale(0.015625)"/>
      </defs>
      <use xlink:href="#DejaVuSans-b5"/>
      <use xlink:href="#DejaVuSans-56" x="63.623047"/>
     </g>
    </g>
   </g>
   <g id="line2d_13">
    <path d="M 38.175 294.569716 
L 39.803809 293.936923 
L 40.618214 293.721288 
L 41.432618 293.634895 
L 43.875832 293.779581 
L 44.690236 293.580483 
L 45.504641 293.065977 
L 46.319046 292.226924 
L 48.762259 289.125243 
L 49.576664 288.522013 
L 50.391068 288.304204 
L 51.205473 288.402062 
L 52.834282 288.863314 
L 53.648687 288.89451 
L 54.463091 288.705978 
L 56.906305 287.804914 
L 57.720709 287.785719 
L 59.349518 288.057947 
L 60.163923 288.008424 
L 60.978327 287.610014 
L 61.792732 286.806239 
L 65.05035 282.452838 
L 65.864755 282.052577 
L 66.679159 282.030118 
L 68.307968 282.409154 
L 69.122373 282.393458 
L 69.936778 282.066908 
L 70.751182 281.439187 
L 73.194396 279.073068 
L 74.0088 278.589681 
L 74.823205 278.345237 
L 76.452014 278.312002 
L 78.080823 278.321081 
L 79.709632 278.056442 
L 81.338441 277.565029 
L 85.410464 276.078382 
L 86.224869 276.023376 
L 88.668082 276.211235 
L 89.482487 275.950809 
L 90.296891 275.295769 
L 91.111296 274.216423 
L 93.55451 270.003788 
L 94.368914 269.167649 
L 95.183319 268.979298 
L 95.997723 269.450629 
L 96.812128 270.417804 
L 98.440937 272.609107 
L 99.255341 273.20342 
L 100.069746 273.217438 
L 100.884151 272.675499 
L 103.327364 269.872994 
L 104.141769 269.362174 
L 104.956173 269.255155 
L 105.770578 269.470122 
L 107.399387 270.131619 
L 108.213792 270.212177 
L 109.028196 270.001129 
L 109.842601 269.532406 
L 111.47141 268.323279 
L 112.285814 267.868128 
L 113.100219 267.630989 
L 113.914623 267.61063 
L 119.615455 268.537292 
L 120.42986 268.809894 
L 122.058669 269.692056 
L 124.501883 271.161487 
L 126.945096 272.518311 
L 130.202714 274.685145 
L 131.017119 274.812209 
L 131.831524 274.609399 
L 132.645928 274.112386 
L 134.274737 272.810054 
L 135.089142 272.392598 
L 135.903546 272.337176 
L 136.717951 272.677082 
L 139.161165 274.686325 
L 139.975569 274.947473 
L 140.789974 274.728441 
L 141.604378 274.034603 
L 144.047592 270.855312 
L 144.861996 270.187459 
L 145.676401 269.94056 
L 146.490806 270.060416 
L 148.119615 270.617422 
L 148.934019 270.560062 
L 149.748424 270.031417 
L 150.562828 269.001315 
L 153.006042 264.724723 
L 153.820447 263.884336 
L 154.634851 263.744191 
L 155.449256 264.356176 
L 156.26366 265.609311 
L 158.706874 270.587361 
L 159.521278 271.771998 
L 160.335683 272.486463 
L 161.150087 272.754703 
L 161.964492 272.671726 
L 162.778897 272.35387 
L 164.407706 271.374428 
L 166.036515 270.326443 
L 166.850919 269.972424 
L 167.665324 269.915678 
L 168.479728 270.317075 
L 169.294133 271.290474 
L 170.108538 272.839004 
L 172.551751 278.824134 
L 173.366156 280.14476 
L 174.18056 280.680184 
L 174.994965 280.418274 
L 175.809369 279.560917 
L 177.438179 277.537579 
L 178.252583 277.103756 
L 179.066988 277.321578 
L 179.881392 278.143585 
L 182.324606 281.752279 
L 183.13901 282.488289 
L 183.953415 282.814777 
L 184.76782 282.800375 
L 185.582224 282.561564 
L 187.211033 281.727416 
L 188.025438 281.128497 
L 188.839842 280.338281 
L 190.468651 278.169516 
L 191.283056 276.998481 
L 192.097461 276.025052 
L 192.911865 275.439891 
L 193.72627 275.342116 
L 194.540674 275.689081 
L 196.169483 276.887091 
L 196.983888 277.185493 
L 197.798292 277.000865 
L 198.612697 276.289928 
L 199.427101 275.163357 
L 201.055911 272.568492 
L 201.870315 271.546071 
L 202.68472 270.867387 
L 203.499124 270.517344 
L 204.313529 270.407231 
L 205.942338 270.531628 
L 206.756742 270.699497 
L 207.571147 270.98483 
L 208.385552 271.443018 
L 210.014361 272.87545 
L 211.64317 274.402381 
L 212.457574 274.924199 
L 213.271979 275.244343 
L 214.900788 275.654803 
L 215.715193 276.006464 
L 217.344002 277.20141 
L 218.158406 277.799747 
L 218.972811 278.124562 
L 219.787215 278.014815 
L 220.60162 277.452649 
L 222.230429 275.804559 
L 223.044834 275.442323 
L 223.859238 275.851101 
L 224.673643 277.175691 
L 225.488047 279.305207 
L 227.116856 284.411406 
L 227.931261 286.372727 
L 228.745665 287.400596 
L 229.56007 287.37101 
L 230.374474 286.430074 
L 232.817688 282.08567 
L 233.632093 281.416332 
L 234.446497 281.408358 
L 235.260902 281.9357 
L 236.889711 283.54284 
L 237.704115 284.091557 
L 238.51852 284.258292 
L 239.332925 284.036622 
L 240.961734 282.882904 
L 241.776138 282.274844 
L 242.590543 281.82677 
L 243.404947 281.59535 
L 245.033756 281.634045 
L 245.848161 281.694325 
L 246.662566 281.617149 
L 247.47697 281.316913 
L 248.291375 280.774524 
L 250.734588 278.555387 
L 251.548993 278.068615 
L 252.363397 277.860541 
L 253.177802 277.900771 
L 254.806611 278.20118 
L 255.621016 278.129727 
L 256.43542 277.758538 
L 257.249825 277.088529 
L 259.693038 274.464915 
L 260.507443 273.807546 
L 262.950657 272.282026 
L 263.765061 271.518974 
L 265.39387 269.400425 
L 266.208275 268.290909 
L 267.022679 267.37183 
L 267.837084 266.747183 
L 268.651488 266.40325 
L 270.280298 265.951499 
L 271.094702 265.451824 
L 271.909107 264.62045 
L 274.35232 261.413902 
L 275.166725 260.922991 
L 275.981129 261.000151 
L 276.795534 261.573819 
L 278.424343 263.15614 
L 279.238748 263.517329 
L 280.053152 263.292432 
L 280.867557 262.463004 
L 282.496366 259.69123 
L 283.31077 258.263931 
L 284.125175 257.087333 
L 284.93958 256.238228 
L 285.753984 255.687638 
L 287.382793 255.120976 
L 290.640411 254.40169 
L 291.454816 253.949766 
L 292.269221 253.110467 
L 293.083625 251.729184 
L 293.89803 249.748767 
L 295.526839 244.545871 
L 296.341243 241.941399 
L 297.155648 239.797962 
L 297.970052 238.319177 
L 298.784457 237.484095 
L 300.413266 236.60302 
L 301.227671 235.778277 
L 302.042075 234.346051 
L 304.485289 228.066587 
L 305.299693 226.72321 
L 306.114098 226.350263 
L 306.928502 226.934841 
L 309.371716 230.564866 
L 310.186121 230.885493 
L 311.000525 230.449015 
L 313.443739 227.515961 
L 314.258143 227.171279 
L 315.072548 227.32457 
L 315.886953 227.728164 
L 316.701357 227.999349 
L 317.515762 227.774882 
L 318.330166 226.851309 
L 319.144571 225.25679 
L 321.587784 219.264322 
L 322.402189 217.848527 
L 323.216594 216.883658 
L 325.659807 214.876214 
L 326.474212 213.899749 
L 328.917425 210.312795 
L 329.73183 209.377642 
L 330.546235 208.695976 
L 332.989448 207.269732 
L 333.803853 206.582209 
L 334.618257 205.668981 
L 336.247066 203.250809 
L 338.69028 198.852875 
L 341.133494 194.473975 
L 341.947898 193.276401 
L 342.762303 192.303812 
L 343.576707 191.557007 
L 346.019921 189.866419 
L 346.834326 189.098542 
L 347.64873 188.096702 
L 349.277539 185.480321 
L 356.60718 172.418982 
L 357.421585 171.387347 
L 358.235989 170.691954 
L 359.050394 170.32685 
L 361.493608 170.052933 
L 362.308012 169.713971 
L 363.122417 169.079992 
L 363.936821 168.161118 
L 365.56563 165.794531 
L 368.008844 161.913961 
L 368.823249 160.439543 
L 369.637653 158.734665 
L 371.266462 154.559241 
L 372.895271 150.080717 
L 373.709676 148.201974 
L 374.52408 146.780278 
L 375.338485 145.861898 
L 376.152889 145.37366 
L 378.596103 144.620228 
L 379.410508 144.014779 
L 380.224912 143.134562 
L 382.668126 140.036817 
L 383.48253 139.331348 
L 384.296935 138.89635 
L 386.740149 138.226988 
L 387.554553 137.682505 
L 388.368958 136.744217 
L 389.183362 135.356061 
L 389.997767 133.537911 
L 393.255385 124.797578 
L 394.06979 123.318497 
L 394.884194 122.508891 
L 395.698599 122.411661 
L 396.513003 122.920143 
L 398.141812 124.615761 
L 398.956217 125.042847 
L 399.770622 124.739419 
L 400.585026 123.555125 
L 401.399431 121.561069 
L 403.842644 114.133671 
L 404.657049 112.527383 
L 405.471453 111.734358 
L 406.285858 111.656922 
L 407.914667 112.384914 
L 408.729072 112.435871 
L 409.543476 111.918082 
L 410.357881 110.776534 
L 411.172285 109.133502 
L 413.615499 103.702333 
L 413.615499 103.702333 
" clip-path="url(#p458232012f)" style="fill: none; stroke: #e41a1c; stroke-width: 1.5; stroke-linecap: square"/>
   </g>
   <g id="line2d_14">
    <path d="M 38.175 294.605845 
L 38.989405 294.656738 
L 39.803809 294.561662 
L 41.432618 294.007179 
L 43.061427 293.531296 
L 44.690236 293.510394 
L 45.504641 293.496013 
L 46.319046 293.295428 
L 47.13345 292.803298 
L 47.947855 292.000111 
L 50.391068 288.891119 
L 51.205473 288.171424 
L 52.019877 287.760687 
L 52.834282 287.602051 
L 54.463091 287.491305 
L 55.277496 287.288443 
L 57.720709 286.251798 
L 58.535114 286.183579 
L 59.349518 286.409339 
L 61.792732 287.849894 
L 62.607137 287.929342 
L 63.421541 287.548207 
L 64.235946 286.709029 
L 65.864755 284.220313 
L 66.679159 282.969891 
L 67.493564 281.926744 
L 68.307968 281.139179 
L 69.936778 280.096336 
L 72.379991 278.607649 
L 73.194396 278.123047 
L 74.0088 277.780421 
L 74.823205 277.651085 
L 75.637609 277.746433 
L 78.895228 278.695983 
L 79.709632 278.611634 
L 80.524037 278.354306 
L 82.152846 277.537469 
L 83.781655 276.559738 
L 85.410464 275.316353 
L 88.668082 272.229004 
L 89.482487 271.742363 
L 90.296891 271.47153 
L 92.740105 271.186535 
L 93.55451 270.86005 
L 94.368914 270.27369 
L 95.183319 269.436599 
L 98.440937 265.373903 
L 99.255341 264.60752 
L 100.069746 263.99936 
L 100.884151 263.535999 
L 101.698555 263.209466 
L 102.51296 263.026959 
L 103.327364 263.003988 
L 104.141769 263.14418 
L 106.584982 264.009757 
L 107.399387 264.089238 
L 108.213792 263.887927 
L 109.028196 263.379606 
L 110.657005 261.748688 
L 111.47141 260.919607 
L 112.285814 260.275605 
L 113.100219 259.885012 
L 113.914623 259.720371 
L 115.543433 259.57759 
L 116.357837 259.309732 
L 117.172242 258.804047 
L 119.615455 256.712749 
L 120.42986 256.397428 
L 121.244264 256.508741 
L 122.058669 257.054807 
L 122.873074 257.937412 
L 124.501883 260.004104 
L 125.316287 260.837814 
L 126.130692 261.399314 
L 126.945096 261.683317 
L 127.759501 261.747657 
L 129.38831 261.551345 
L 131.831524 261.054562 
L 133.460333 260.384752 
L 135.089142 259.284619 
L 138.34676 256.733565 
L 139.161165 256.257099 
L 139.975569 255.919505 
L 140.789974 255.749533 
L 141.604378 255.757725 
L 143.233187 256.186593 
L 144.861996 256.609539 
L 145.676401 256.56148 
L 146.490806 256.258291 
L 147.30521 255.719352 
L 149.748424 253.800795 
L 150.562828 253.507206 
L 151.377233 253.498856 
L 153.006042 254.04457 
L 153.820447 254.31327 
L 154.634851 254.38805 
L 155.449256 254.193714 
L 156.26366 253.73946 
L 158.706874 251.85201 
L 159.521278 251.44053 
L 160.335683 251.23283 
L 161.964492 251.27446 
L 166.850919 252.076069 
L 170.922942 253.536281 
L 172.551751 254.281018 
L 173.366156 254.863887 
L 174.18056 255.640345 
L 175.809369 257.692422 
L 178.252583 260.979712 
L 179.881392 262.71512 
L 182.324606 264.819825 
L 183.953415 265.942007 
L 185.582224 266.643034 
L 188.025438 267.271945 
L 188.839842 267.607555 
L 190.468651 268.643112 
L 192.097461 269.865108 
L 192.911865 270.364255 
L 193.72627 270.715782 
L 194.540674 270.906874 
L 196.169483 270.911363 
L 198.612697 270.545065 
L 200.241506 270.156865 
L 201.870315 269.438668 
L 203.499124 268.256651 
L 205.127933 266.692091 
L 207.571147 264.290262 
L 208.385552 263.683281 
L 209.199956 263.251501 
L 210.014361 263.017389 
L 210.828765 262.977483 
L 211.64317 263.102477 
L 213.271979 263.650072 
L 216.529597 264.986579 
L 218.158406 265.978539 
L 218.972811 266.682364 
L 220.60162 268.54905 
L 223.044834 272.075901 
L 224.673643 274.413629 
L 226.302452 276.396852 
L 227.931261 277.910418 
L 232.003284 281.030076 
L 233.632093 282.769334 
L 239.332925 289.550554 
L 240.961734 290.974225 
L 245.848161 294.617928 
L 248.291375 296.982089 
L 249.920184 298.164307 
L 251.548993 298.880488 
L 253.992207 299.595205 
L 254.806611 299.739646 
L 255.621016 299.764234 
L 256.43542 299.626959 
L 258.064229 298.904718 
L 259.693038 298.115837 
L 260.507443 297.955767 
L 261.321848 298.023523 
L 262.950657 298.642109 
L 263.765061 298.957651 
L 264.579466 299.104616 
L 265.39387 299.003569 
L 266.208275 298.646195 
L 267.837084 297.452649 
L 269.465893 296.344104 
L 270.280298 296.012061 
L 271.094702 295.837941 
L 272.723511 295.779063 
L 274.35232 295.743161 
L 275.981129 295.461168 
L 277.609939 294.851376 
L 280.867557 293.237734 
L 281.681961 293.041439 
L 282.496366 293.015349 
L 284.125175 293.387433 
L 285.753984 293.856907 
L 286.568389 293.942787 
L 288.197198 293.729491 
L 290.640411 293.189134 
L 292.269221 293.178451 
L 297.155648 293.55878 
L 298.784457 293.434152 
L 299.598862 293.201656 
L 300.413266 292.811343 
L 302.042075 291.614051 
L 303.670884 290.293848 
L 305.299693 289.371728 
L 307.742907 288.381637 
L 309.371716 287.311411 
L 311.000525 286.19345 
L 311.81493 285.883922 
L 312.629334 285.837638 
L 313.443739 286.03623 
L 315.072548 286.721261 
L 315.886953 286.901462 
L 316.701357 286.811984 
L 317.515762 286.422725 
L 319.144571 285.025798 
L 320.77338 283.613243 
L 322.402189 282.715333 
L 324.030998 281.974816 
L 325.659807 280.906654 
L 327.288616 279.757765 
L 328.103021 279.387905 
L 328.917425 279.248975 
L 329.73183 279.341544 
L 332.989448 280.358221 
L 333.803853 280.315683 
L 334.618257 280.08702 
L 336.247066 279.232465 
L 340.319089 276.659166 
L 341.947898 275.883035 
L 343.576707 275.425029 
L 346.019921 274.883456 
L 346.834326 274.522049 
L 347.64873 274.011628 
L 349.277539 272.633994 
L 351.720753 270.513669 
L 353.349562 269.517424 
L 354.978371 268.904393 
L 355.792776 268.767991 
L 356.60718 268.77676 
L 357.421585 268.940479 
L 359.864798 269.844202 
L 360.679203 269.908529 
L 361.493608 269.65555 
L 362.308012 269.042706 
L 363.936821 267.032887 
L 364.751226 265.975606 
L 365.56563 265.145463 
L 366.380035 264.675125 
L 367.194439 264.589581 
L 368.823249 265.115304 
L 369.637653 265.340134 
L 370.452058 265.30996 
L 371.266462 264.967429 
L 373.709676 263.241113 
L 374.52408 263.118959 
L 375.338485 263.481393 
L 376.152889 264.320645 
L 379.410508 269.029514 
L 380.224912 269.622405 
L 381.039317 269.849089 
L 381.853721 269.791608 
L 385.925744 268.803351 
L 389.183362 268.391935 
L 392.440981 267.756595 
L 394.06979 267.274842 
L 396.513003 266.260038 
L 399.770622 264.784267 
L 401.399431 263.817601 
L 403.842644 262.331339 
L 404.657049 262.035737 
L 405.471453 261.895769 
L 407.100262 261.963326 
L 408.729072 262.04249 
L 410.357881 261.73429 
L 412.801094 261.062377 
L 413.615499 261.024612 
L 413.615499 261.024612 
" clip-path="url(#p458232012f)" style="fill: none; stroke: #377eb8; stroke-width: 1.5; stroke-linecap: square"/>
   </g>
   <g id="line2d_15">
    <path d="M 79.709632 318.2 
L 79.709632 71.241125 
" clip-path="url(#p458232012f)" style="fill: none; stroke: #000000; stroke-width: 0.5; stroke-linecap: square"/>
   </g>
   <g id="line2d_16">
    <path d="M 38.175 286.301007 
L 413.615499 286.301007 
" clip-path="url(#p458232012f)" style="fill: none; stroke: #000000; stroke-width: 0.5; stroke-linecap: square"/>
   </g>
   <g id="patch_4">
    <path d="M 38.175 318.2 
L 38.175 71.241125 
" style="fill: none; stroke: #000000; stroke-width: 0.8; stroke-linejoin: miter; stroke-linecap: square"/>
   </g>
   <g id="patch_5">
    <path d="M 413.615499 318.2 
L 413.615499 71.241125 
" style="fill: none; stroke: #000000; stroke-width: 0.8; stroke-linejoin: miter; stroke-linecap: square"/>
   </g>
   <g id="patch_6">
    <path d="M 38.175 318.2 
L 413.615499 318.2 
" style="fill: none; stroke: #000000; stroke-width: 0.8; stroke-linejoin: miter; stroke-linecap: square"/>
   </g>
   <g id="patch_7">
    <path d="M 38.175 71.241125 
L 413.615499 71.241125 
" style="fill: none; stroke: #000000; stroke-width: 0.8; stroke-linejoin: miter; stroke-linecap: square"/>
   </g>
   <g id="legend_1">
    <g id="patch_8">
     <path d="M 89.305406 48.044893 
L 362.485093 48.044893 
Q 364.485093 48.044893 364.485093 46.044893 
L 364.485093 17.410517 
Q 364.485093 15.410517 362.485093 15.410517 
L 89.305406 15.410517 
Q 87.305406 15.410517 87.305406 17.410517 
L 87.305406 46.044893 
Q 87.305406 48.044893 89.305406 48.044893 
z
" style="fill: #ffffff; opacity: 0.8; stroke: #cccccc; stroke-linejoin: miter"/>
    </g>
    <g id="text_15">
     <!-- Average of Session 6tac_all_with_legs at Fz -->
     <g transform="translate(117.847593 27.008955)scale(0.1 -0.1)">
      <defs>
       <path id="DejaVuSans-41" d="M 2188 4044 
L 1331 1722 
L 3047 1722 
L 2188 4044 
z
M 1831 4666 
L 2547 4666 
L 4325 0 
L 3669 0 
L 3244 1197 
L 1141 1197 
L 716 0 
L 50 0 
L 1831 4666 
z
" transform="scale(0.015625)"/>
       <path id="DejaVuSans-76" d="M 191 3500 
L 800 3500 
L 1894 563 
L 2988 3500 
L 3597 3500 
L 2284 0 
L 1503 0 
L 191 3500 
z
" transform="scale(0.015625)"/>
       <path id="DejaVuSans-72" d="M 2631 2963 
Q 2534 3019 2420 3045 
Q 2306 3072 2169 3072 
Q 1681 3072 1420 2755 
Q 1159 2438 1159 1844 
L 1159 0 
L 581 0 
L 581 3500 
L 1159 3500 
L 1159 2956 
Q 1341 3275 1631 3429 
Q 1922 3584 2338 3584 
Q 2397 3584 2469 3576 
Q 2541 3569 2628 3553 
L 2631 2963 
z
" transform="scale(0.015625)"/>
       <path id="DejaVuSans-61" d="M 2194 1759 
Q 1497 1759 1228 1600 
Q 959 1441 959 1056 
Q 959 750 1161 570 
Q 1363 391 1709 391 
Q 2188 391 2477 730 
Q 2766 1069 2766 1631 
L 2766 1759 
L 2194 1759 
z
M 3341 1997 
L 3341 0 
L 2766 0 
L 2766 531 
Q 2569 213 2275 61 
Q 1981 -91 1556 -91 
Q 1019 -91 701 211 
Q 384 513 384 1019 
Q 384 1609 779 1909 
Q 1175 2209 1959 2209 
L 2766 2209 
L 2766 2266 
Q 2766 2663 2505 2880 
Q 2244 3097 1772 3097 
Q 1472 3097 1187 3025 
Q 903 2953 641 2809 
L 641 3341 
Q 956 3463 1253 3523 
Q 1550 3584 1831 3584 
Q 2591 3584 2966 3190 
Q 3341 2797 3341 1997 
z
" transform="scale(0.015625)"/>
       <path id="DejaVuSans-67" d="M 2906 1791 
Q 2906 2416 2648 2759 
Q 2391 3103 1925 3103 
Q 1463 3103 1205 2759 
Q 947 2416 947 1791 
Q 947 1169 1205 825 
Q 1463 481 1925 481 
Q 2391 481 2648 825 
Q 2906 1169 2906 1791 
z
M 3481 434 
Q 3481 -459 3084 -895 
Q 2688 -1331 1869 -1331 
Q 1566 -1331 1297 -1286 
Q 1028 -1241 775 -1147 
L 775 -588 
Q 1028 -725 1275 -790 
Q 1522 -856 1778 -856 
Q 2344 -856 2625 -561 
Q 2906 -266 2906 331 
L 2906 616 
Q 2728 306 2450 153 
Q 2172 0 1784 0 
Q 1141 0 747 490 
Q 353 981 353 1791 
Q 353 2603 747 3093 
Q 1141 3584 1784 3584 
Q 2172 3584 2450 3431 
Q 2728 3278 2906 2969 
L 2906 3500 
L 3481 3500 
L 3481 434 
z
" transform="scale(0.015625)"/>
       <path id="DejaVuSans-20" transform="scale(0.015625)"/>
       <path id="DejaVuSans-66" d="M 2375 4863 
L 2375 4384 
L 1825 4384 
Q 1516 4384 1395 4259 
Q 1275 4134 1275 3809 
L 1275 3500 
L 2222 3500 
L 2222 3053 
L 1275 3053 
L 1275 0 
L 697 0 
L 697 3053 
L 147 3053 
L 147 3500 
L 697 3500 
L 697 3744 
Q 697 4328 969 4595 
Q 1241 4863 1831 4863 
L 2375 4863 
z
" transform="scale(0.015625)"/>
       <path id="DejaVuSans-53" d="M 3425 4513 
L 3425 3897 
Q 3066 4069 2747 4153 
Q 2428 4238 2131 4238 
Q 1616 4238 1336 4038 
Q 1056 3838 1056 3469 
Q 1056 3159 1242 3001 
Q 1428 2844 1947 2747 
L 2328 2669 
Q 3034 2534 3370 2195 
Q 3706 1856 3706 1288 
Q 3706 609 3251 259 
Q 2797 -91 1919 -91 
Q 1588 -91 1214 -16 
Q 841 59 441 206 
L 441 856 
Q 825 641 1194 531 
Q 1563 422 1919 422 
Q 2459 422 2753 634 
Q 3047 847 3047 1241 
Q 3047 1584 2836 1778 
Q 2625 1972 2144 2069 
L 1759 2144 
Q 1053 2284 737 2584 
Q 422 2884 422 3419 
Q 422 4038 858 4394 
Q 1294 4750 2059 4750 
Q 2388 4750 2728 4690 
Q 3069 4631 3425 4513 
z
" transform="scale(0.015625)"/>
       <path id="DejaVuSans-69" d="M 603 3500 
L 1178 3500 
L 1178 0 
L 603 0 
L 603 3500 
z
M 603 4863 
L 1178 4863 
L 1178 4134 
L 603 4134 
L 603 4863 
z
" transform="scale(0.015625)"/>
       <path id="DejaVuSans-74" d="M 1172 4494 
L 1172 3500 
L 2356 3500 
L 2356 3053 
L 1172 3053 
L 1172 1153 
Q 1172 725 1289 603 
Q 1406 481 1766 481 
L 2356 481 
L 2356 0 
L 1766 0 
Q 1100 0 847 248 
Q 594 497 594 1153 
L 594 3053 
L 172 3053 
L 172 3500 
L 594 3500 
L 594 4494 
L 1172 4494 
z
" transform="scale(0.015625)"/>
       <path id="DejaVuSans-5f" d="M 3263 -1063 
L 3263 -1509 
L -63 -1509 
L -63 -1063 
L 3263 -1063 
z
" transform="scale(0.015625)"/>
       <path id="DejaVuSans-6c" d="M 603 4863 
L 1178 4863 
L 1178 0 
L 603 0 
L 603 4863 
z
" transform="scale(0.015625)"/>
       <path id="DejaVuSans-77" d="M 269 3500 
L 844 3500 
L 1563 769 
L 2278 3500 
L 2956 3500 
L 3675 769 
L 4391 3500 
L 4966 3500 
L 4050 0 
L 3372 0 
L 2619 2869 
L 1863 0 
L 1184 0 
L 269 3500 
z
" transform="scale(0.015625)"/>
       <path id="DejaVuSans-68" d="M 3513 2113 
L 3513 0 
L 2938 0 
L 2938 2094 
Q 2938 2591 2744 2837 
Q 2550 3084 2163 3084 
Q 1697 3084 1428 2787 
Q 1159 2491 1159 1978 
L 1159 0 
L 581 0 
L 581 4863 
L 1159 4863 
L 1159 2956 
Q 1366 3272 1645 3428 
Q 1925 3584 2291 3584 
Q 2894 3584 3203 3211 
Q 3513 2838 3513 2113 
z
" transform="scale(0.015625)"/>
       <path id="DejaVuSans-46" d="M 628 4666 
L 3309 4666 
L 3309 4134 
L 1259 4134 
L 1259 2759 
L 3109 2759 
L 3109 2228 
L 1259 2228 
L 1259 0 
L 628 0 
L 628 4666 
z
" transform="scale(0.015625)"/>
       <path id="DejaVuSans-7a" d="M 353 3500 
L 3084 3500 
L 3084 2975 
L 922 459 
L 3084 459 
L 3084 0 
L 275 0 
L 275 525 
L 2438 3041 
L 353 3041 
L 353 3500 
z
" transform="scale(0.015625)"/>
      </defs>
      <use xlink:href="#DejaVuSans-41"/>
      <use xlink:href="#DejaVuSans-76" x="62.533203"/>
      <use xlink:href="#DejaVuSans-65" x="121.712891"/>
      <use xlink:href="#DejaVuSans-72" x="183.236328"/>
      <use xlink:href="#DejaVuSans-61" x="224.349609"/>
      <use xlink:href="#DejaVuSans-67" x="285.628906"/>
      <use xlink:href="#DejaVuSans-65" x="349.105469"/>
      <use xlink:href="#DejaVuSans-20" x="410.628906"/>
      <use xlink:href="#DejaVuSans-6f" x="442.416016"/>
      <use xlink:href="#DejaVuSans-66" x="503.597656"/>
      <use xlink:href="#DejaVuSans-20" x="538.802734"/>
      <use xlink:href="#DejaVuSans-53" x="570.589844"/>
      <use xlink:href="#DejaVuSans-65" x="634.066406"/>
      <use xlink:href="#DejaVuSans-73" x="695.589844"/>
      <use xlink:href="#DejaVuSans-73" x="747.689453"/>
      <use xlink:href="#DejaVuSans-69" x="799.789062"/>
      <use xlink:href="#DejaVuSans-6f" x="827.572266"/>
      <use xlink:href="#DejaVuSans-6e" x="888.753906"/>
      <use xlink:href="#DejaVuSans-20" x="952.132812"/>
      <use xlink:href="#DejaVuSans-36" x="983.919922"/>
      <use xlink:href="#DejaVuSans-74" x="1047.542969"/>
      <use xlink:href="#DejaVuSans-61" x="1086.751953"/>
      <use xlink:href="#DejaVuSans-63" x="1148.03125"/>
      <use xlink:href="#DejaVuSans-5f" x="1203.011719"/>
      <use xlink:href="#DejaVuSans-61" x="1253.011719"/>
      <use xlink:href="#DejaVuSans-6c" x="1314.291016"/>
      <use xlink:href="#DejaVuSans-6c" x="1342.074219"/>
      <use xlink:href="#DejaVuSans-5f" x="1369.857422"/>
      <use xlink:href="#DejaVuSans-77" x="1419.857422"/>
      <use xlink:href="#DejaVuSans-69" x="1501.644531"/>
      <use xlink:href="#DejaVuSans-74" x="1529.427734"/>
      <use xlink:href="#DejaVuSans-68" x="1568.636719"/>
      <use xlink:href="#DejaVuSans-5f" x="1632.015625"/>
      <use xlink:href="#DejaVuSans-6c" x="1682.015625"/>
      <use xlink:href="#DejaVuSans-65" x="1709.798828"/>
      <use xlink:href="#DejaVuSans-67" x="1771.322266"/>
      <use xlink:href="#DejaVuSans-73" x="1834.798828"/>
      <use xlink:href="#DejaVuSans-20" x="1886.898438"/>
      <use xlink:href="#DejaVuSans-61" x="1918.685547"/>
      <use xlink:href="#DejaVuSans-74" x="1979.964844"/>
      <use xlink:href="#DejaVuSans-20" x="2019.173828"/>
      <use xlink:href="#DejaVuSans-46" x="2050.960938"/>
      <use xlink:href="#DejaVuSans-7a" x="2108.480469"/>
     </g>
    </g>
    <g id="line2d_17">
     <path d="M 91.305406 38.465205 
L 101.305406 38.465205 
L 111.305406 38.465205 
" style="fill: none; stroke: #e41a1c; stroke-width: 1.5; stroke-linecap: square"/>
    </g>
    <g id="text_16">
     <!-- Target (n=5311) -->
     <g transform="translate(119.305406 41.965205)scale(0.1 -0.1)">
      <defs>
       <path id="DejaVuSans-54" d="M -19 4666 
L 3928 4666 
L 3928 4134 
L 2272 4134 
L 2272 0 
L 1638 0 
L 1638 4134 
L -19 4134 
L -19 4666 
z
" transform="scale(0.015625)"/>
       <path id="DejaVuSans-28" d="M 1984 4856 
Q 1566 4138 1362 3434 
Q 1159 2731 1159 2009 
Q 1159 1288 1364 580 
Q 1569 -128 1984 -844 
L 1484 -844 
Q 1016 -109 783 600 
Q 550 1309 550 2009 
Q 550 2706 781 3412 
Q 1013 4119 1484 4856 
L 1984 4856 
z
" transform="scale(0.015625)"/>
       <path id="DejaVuSans-3d" d="M 678 2906 
L 4684 2906 
L 4684 2381 
L 678 2381 
L 678 2906 
z
M 678 1631 
L 4684 1631 
L 4684 1100 
L 678 1100 
L 678 1631 
z
" transform="scale(0.015625)"/>
       <path id="DejaVuSans-29" d="M 513 4856 
L 1013 4856 
Q 1481 4119 1714 3412 
Q 1947 2706 1947 2009 
Q 1947 1309 1714 600 
Q 1481 -109 1013 -844 
L 513 -844 
Q 928 -128 1133 580 
Q 1338 1288 1338 2009 
Q 1338 2731 1133 3434 
Q 928 4138 513 4856 
z
" transform="scale(0.015625)"/>
      </defs>
      <use xlink:href="#DejaVuSans-54"/>
      <use xlink:href="#DejaVuSans-61" x="44.583984"/>
      <use xlink:href="#DejaVuSans-72" x="105.863281"/>
      <use xlink:href="#DejaVuSans-67" x="145.226562"/>
      <use xlink:href="#DejaVuSans-65" x="208.703125"/>
      <use xlink:href="#DejaVuSans-74" x="270.226562"/>
      <use xlink:href="#DejaVuSans-20" x="309.435547"/>
      <use xlink:href="#DejaVuSans-28" x="341.222656"/>
      <use xlink:href="#DejaVuSans-6e" x="380.236328"/>
      <use xlink:href="#DejaVuSans-3d" x="443.615234"/>
      <use xlink:href="#DejaVuSans-35" x="527.404297"/>
      <use xlink:href="#DejaVuSans-33" x="591.027344"/>
      <use xlink:href="#DejaVuSans-31" x="654.650391"/>
      <use xlink:href="#DejaVuSans-31" x="718.273438"/>
      <use xlink:href="#DejaVuSans-29" x="781.896484"/>
     </g>
    </g>
    <g id="line2d_18">
     <path d="M 221.397593 38.465205 
L 231.397593 38.465205 
L 241.397593 38.465205 
" style="fill: none; stroke: #377eb8; stroke-width: 1.5; stroke-linecap: square"/>
    </g>
    <g id="text_17">
     <!-- Non-Target (n=26613) -->
     <g transform="translate(249.397593 41.965205)scale(0.1 -0.1)">
      <defs>
       <path id="DejaVuSans-4e" d="M 628 4666 
L 1478 4666 
L 3547 763 
L 3547 4666 
L 4159 4666 
L 4159 0 
L 3309 0 
L 1241 3903 
L 1241 0 
L 628 0 
L 628 4666 
z
" transform="scale(0.015625)"/>
       <path id="DejaVuSans-2d" d="M 313 2009 
L 1997 2009 
L 1997 1497 
L 313 1497 
L 313 2009 
z
" transform="scale(0.015625)"/>
      </defs>
      <use xlink:href="#DejaVuSans-4e"/>
      <use xlink:href="#DejaVuSans-6f" x="74.804688"/>
      <use xlink:href="#DejaVuSans-6e" x="135.986328"/>
      <use xlink:href="#DejaVuSans-2d" x="199.365234"/>
      <use xlink:href="#DejaVuSans-54" x="226.324219"/>
      <use xlink:href="#DejaVuSans-61" x="270.908203"/>
      <use xlink:href="#DejaVuSans-72" x="332.1875"/>
      <use xlink:href="#DejaVuSans-67" x="371.550781"/>
      <use xlink:href="#DejaVuSans-65" x="435.027344"/>
      <use xlink:href="#DejaVuSans-74" x="496.550781"/>
      <use xlink:href="#DejaVuSans-20" x="535.759766"/>
      <use xlink:href="#DejaVuSans-28" x="567.546875"/>
      <use xlink:href="#DejaVuSans-6e" x="606.560547"/>
      <use xlink:href="#DejaVuSans-3d" x="669.939453"/>
      <use xlink:href="#DejaVuSans-32" x="753.728516"/>
      <use xlink:href="#DejaVuSans-36" x="817.351562"/>
      <use xlink:href="#DejaVuSans-36" x="880.974609"/>
      <use xlink:href="#DejaVuSans-31" x="944.597656"/>
      <use xlink:href="#DejaVuSans-33" x="1008.220703"/>
      <use xlink:href="#DejaVuSans-29" x="1071.84375"/>
     </g>
    </g>
   </g>
  </g>
 </g>
 <defs>
  <clipPath id="p458232012f">
   <rect x="38.175" y="71.241125" width="375.440499" height="246.958875"/>
  </clipPath>
 </defs>
</svg>
