<?xml version="1.0" encoding="utf-8" standalone="no"?>
<!DOCTYPE svg PUBLIC "-//W3C//DTD SVG 1.1//EN"
  "http://www.w3.org/Graphics/SVG/1.1/DTD/svg11.dtd">
<svg xmlns:xlink="http://www.w3.org/1999/xlink" width="432pt" height="360pt" viewBox="0 0 432 360" xmlns="http://www.w3.org/2000/svg" version="1.1">
 <metadata>
  <rdf:RDF xmlns:dc="http://purl.org/dc/elements/1.1/" xmlns:cc="http://creativecommons.org/ns#" xmlns:rdf="http://www.w3.org/1999/02/22-rdf-syntax-ns#">
   <cc:Work>
    <dc:type rdf:resource="http://purl.org/dc/dcmitype/StillImage"/>
    <dc:date>2022-11-03T08:32:35.469950</dc:date>
    <dc:format>image/svg+xml</dc:format>
    <dc:creator>
     <cc:Agent>
      <dc:title>Matplotlib v3.5.1, https://matplotlib.org/</dc:title>
     </cc:Agent>
    </dc:creator>
   </cc:Work>
  </rdf:RDF>
 </metadata>
 <defs>
  <style type="text/css">*{stroke-linejoin: round; stroke-linecap: butt}</style>
 </defs>
 <g id="figure_1">
  <g id="patch_1">
   <path d="M 0 360 
L 432 360 
L 432 0 
L 0 0 
L 0 360 
z
" style="fill: none"/>
  </g>
  <g id="axes_1">
   <g id="patch_2">
    <path d="M 46.55 318.2 
L 413.615499 318.2 
L 413.615499 71.241125 
L 46.55 71.241125 
L 46.55 318.2 
z
" style="fill: none"/>
   </g>
   <g id="PolyCollection_1">
    <defs>
     <path id="mad74119d80" d="M 46.55 -101.963038 
L 46.55 -88.44329 
L 47.346238 -88.338011 
L 48.142475 -88.341598 
L 48.938713 -88.376468 
L 49.73495 -88.393731 
L 50.531188 -88.41142 
L 51.327425 -88.527128 
L 52.123663 -88.889472 
L 52.9199 -89.634711 
L 53.716138 -90.814525 
L 54.512375 -92.346665 
L 55.308613 -94.010923 
L 56.10485 -95.495288 
L 56.901088 -96.480589 
L 57.697325 -96.741356 
L 58.493563 -96.233844 
L 59.2898 -95.138202 
L 60.086038 -93.82772 
L 60.882275 -92.763019 
L 61.678513 -92.346363 
L 62.47475 -92.794253 
L 63.270988 -94.077444 
L 64.067226 -95.945148 
L 64.863463 -98.014685 
L 65.659701 -99.886929 
L 66.455938 -101.248012 
L 67.252176 -101.930885 
L 68.048413 -101.926553 
L 68.844651 -101.352307 
L 69.640888 -100.398986 
L 70.437126 -99.282161 
L 71.233363 -98.20918 
L 72.029601 -97.356308 
L 72.825838 -96.845887 
L 73.622076 -96.724855 
L 74.418313 -96.956148 
L 75.214551 -97.430991 
L 76.010788 -97.997197 
L 76.807026 -98.491936 
L 77.603263 -98.775491 
L 78.399501 -98.770261 
L 79.195739 -98.498758 
L 79.991976 -98.096576 
L 80.788214 -97.777064 
L 81.584451 -97.753104 
L 82.380689 -98.153158 
L 83.176926 -98.971295 
L 83.973164 -100.064373 
L 84.769401 -101.185697 
L 85.565639 -102.044417 
L 86.361876 -102.385738 
L 87.158114 -102.075472 
L 87.954351 -101.151961 
L 88.750589 -99.810823 
L 89.546826 -98.328888 
L 90.343064 -96.976231 
L 91.139301 -95.962801 
L 91.935539 -95.426009 
L 92.731776 -95.432928 
L 93.528014 -95.97654 
L 94.324251 -96.971638 
L 95.120489 -98.264425 
L 95.916727 -99.656575 
L 96.712964 -100.932118 
L 97.509202 -101.880549 
L 98.305439 -102.324985 
L 99.101677 -102.164508 
L 99.897914 -101.418617 
L 100.694152 -100.243664 
L 101.490389 -98.899833 
L 102.286627 -97.676978 
L 103.082864 -96.811539 
L 103.879102 -96.427231 
L 104.675339 -96.515445 
L 105.471577 -96.954984 
L 106.267814 -97.564366 
L 107.064052 -98.175396 
L 107.860289 -98.704839 
L 108.656527 -99.189985 
L 109.452764 -99.762513 
L 110.249002 -100.569558 
L 111.04524 -101.686733 
L 111.841477 -103.071167 
L 112.637715 -104.569434 
L 113.433952 -105.958982 
L 114.23019 -106.997851 
L 115.026427 -107.477313 
L 115.822665 -107.278486 
L 116.618902 -106.418444 
L 117.41514 -105.057438 
L 118.211377 -103.451745 
L 119.007615 -101.873422 
L 119.803852 -100.540366 
L 120.60009 -99.583069 
L 121.396327 -99.040733 
L 122.192565 -98.864815 
L 122.988802 -98.922508 
L 123.78504 -99.012102 
L 124.581277 -98.900109 
L 125.377515 -98.373904 
L 126.173752 -97.294445 
L 126.96999 -95.637537 
L 127.766228 -93.516147 
L 128.562465 -91.174365 
L 129.358703 -88.94433 
L 130.15494 -87.168135 
L 130.951178 -86.103694 
L 131.747415 -85.845671 
L 132.543653 -86.291791 
L 133.33989 -87.171777 
L 134.136128 -88.135302 
L 134.932365 -88.871471 
L 135.728603 -89.214877 
L 136.52484 -89.194543 
L 137.321078 -89.0061 
L 138.117315 -88.922032 
L 138.913553 -89.179597 
L 139.70979 -89.889903 
L 140.506028 -90.998303 
L 141.302265 -92.306934 
L 142.098503 -93.551482 
L 142.89474 -94.505722 
L 143.690978 -95.074088 
L 144.487216 -95.334031 
L 145.283453 -95.509757 
L 146.079691 -95.887455 
L 146.875928 -96.705384 
L 147.672166 -98.06114 
L 148.468403 -99.870277 
L 149.264641 -101.889003 
L 150.060878 -103.789065 
L 150.857116 -105.255652 
L 151.653353 -106.074876 
L 152.449591 -106.184526 
L 153.245828 -105.67545 
L 154.042066 -104.747619 
L 154.838303 -103.642502 
L 155.634541 -102.583692 
L 156.430778 -101.749677 
L 157.227016 -101.277903 
L 158.023253 -101.276676 
L 158.819491 -101.820094 
L 159.615729 -102.920144 
L 160.411966 -104.490642 
L 161.208204 -106.325111 
L 162.004441 -108.107348 
L 162.800679 -109.466353 
L 163.596916 -110.074126 
L 164.393154 -109.760221 
L 165.189391 -108.592464 
L 165.985629 -106.877189 
L 166.781866 -105.071923 
L 167.578104 -103.64695 
L 168.374341 -102.94814 
L 169.170579 -103.102256 
L 169.966816 -103.986762 
L 170.763054 -105.273063 
L 171.559291 -106.538251 
L 172.355529 -107.414612 
L 173.151766 -107.721286 
L 173.948004 -107.523986 
L 174.744241 -107.100032 
L 175.540479 -106.825592 
L 176.336717 -107.027854 
L 177.132954 -107.855246 
L 177.929192 -109.216695 
L 178.725429 -110.819207 
L 179.521667 -112.289005 
L 180.317904 -113.317469 
L 181.114142 -113.763481 
L 181.910379 -113.676966 
L 182.706617 -113.253433 
L 183.502854 -112.751923 
L 184.299092 -112.406536 
L 185.095329 -112.354494 
L 185.891567 -112.602285 
L 186.687804 -113.044363 
L 187.484042 -113.525207 
L 188.280279 -113.910634 
L 189.076517 -114.132812 
L 189.872754 -114.1965 
L 190.668992 -114.158897 
L 191.46523 -114.102598 
L 192.261467 -114.113198 
L 193.057705 -114.26545 
L 193.853942 -114.620244 
L 194.65018 -115.231348 
L 195.446417 -116.153017 
L 196.242655 -117.436019 
L 197.038892 -119.106954 
L 197.83513 -121.138362 
L 198.631367 -123.426106 
L 199.427605 -125.790799 
L 200.223842 -128.011753 
L 201.02008 -129.887498 
L 201.816317 -131.301627 
L 202.612555 -132.265097 
L 203.408792 -132.913654 
L 204.20503 -133.459785 
L 205.001267 -134.119353 
L 205.797505 -135.041098 
L 206.593742 -136.261426 
L 207.38998 -137.695963 
L 208.186218 -139.169357 
L 208.982455 -140.475227 
L 209.778693 -141.447568 
L 210.57493 -142.017769 
L 211.371168 -142.234898 
L 212.167405 -142.242754 
L 212.963643 -142.227264 
L 213.75988 -142.359147 
L 214.556118 -142.753513 
L 215.352355 -143.455195 
L 216.148593 -144.44552 
L 216.94483 -145.660484 
L 217.741068 -147.012273 
L 218.537305 -148.410024 
L 219.333543 -149.776848 
L 220.12978 -151.059679 
L 220.926018 -152.23078 
L 221.722255 -153.283988 
L 222.518493 -154.229607 
L 223.31473 -155.088087 
L 224.110968 -155.879943 
L 224.907206 -156.612052 
L 225.703443 -157.26647 
L 226.499681 -157.800263 
L 227.295918 -158.158896 
L 228.092156 -158.29651 
L 228.888393 -158.193893 
L 229.684631 -157.870418 
L 230.480868 -157.390633 
L 231.277106 -156.864464 
L 232.073343 -156.436215 
L 232.869581 -156.256915 
L 233.665818 -156.44188 
L 234.462056 -157.027058 
L 235.258293 -157.945395 
L 236.054531 -159.039361 
L 236.850768 -160.109078 
L 237.647006 -160.977626 
L 238.443243 -161.548052 
L 239.239481 -161.834488 
L 240.035719 -161.963484 
L 240.831956 -162.14906 
L 241.628194 -162.645001 
L 242.424431 -163.679623 
L 243.220669 -165.387553 
L 244.016906 -167.762789 
L 244.813144 -170.653906 
L 245.609381 -173.804353 
L 246.405619 -176.921567 
L 247.201856 -179.750904 
L 247.998094 -182.13444 
L 248.794331 -184.041766 
L 249.590569 -185.56643 
L 250.386806 -186.890701 
L 251.183044 -188.232357 
L 251.979281 -189.791124 
L 252.775519 -191.7068 
L 253.571756 -194.033292 
L 254.367994 -196.7311 
L 255.164231 -199.680976 
L 255.960469 -202.715822 
L 256.756707 -205.658309 
L 257.552944 -208.34963 
L 258.349182 -210.666362 
L 259.145419 -212.53541 
L 259.941657 -213.954371 
L 260.737894 -215.008489 
L 261.534132 -215.865378 
L 262.330369 -216.738324 
L 263.126607 -217.829364 
L 263.922844 -219.275225 
L 264.719082 -221.114448 
L 265.515319 -223.28043 
L 266.311557 -225.617001 
L 267.107794 -227.91513 
L 267.904032 -229.969529 
L 268.700269 -231.643468 
L 269.496507 -232.917431 
L 270.292744 -233.896774 
L 271.088982 -234.770134 
L 271.88522 -235.735365 
L 272.681457 -236.927204 
L 273.477695 -238.378165 
L 274.273932 -240.024088 
L 275.07017 -241.743354 
L 275.866407 -243.40788 
L 276.662645 -244.925495 
L 277.458882 -246.259979 
L 278.25512 -247.423213 
L 279.051357 -248.443685 
L 279.847595 -249.326763 
L 280.643832 -250.029736 
L 281.44007 -250.470821 
L 282.236307 -250.573881 
L 283.032545 -250.328465 
L 283.828782 -249.831017 
L 284.62502 -249.27753 
L 285.421257 -248.901933 
L 286.217495 -248.885846 
L 287.013732 -249.282969 
L 287.80997 -249.993714 
L 288.606208 -250.800177 
L 289.402445 -251.445619 
L 290.198683 -251.728117 
L 290.99492 -251.575691 
L 291.791158 -251.075632 
L 292.587395 -250.442586 
L 293.383633 -249.930427 
L 294.17987 -249.719221 
L 294.976108 -249.826452 
L 295.772345 -250.085054 
L 296.568583 -250.200846 
L 297.36482 -249.866465 
L 298.161058 -248.885755 
L 298.957295 -247.259184 
L 299.753533 -245.196725 
L 300.54977 -243.053639 
L 301.346008 -241.215052 
L 302.142245 -239.973598 
L 302.938483 -239.443395 
L 303.73472 -239.53681 
L 304.530958 -240.008163 
L 305.327196 -240.547753 
L 306.123433 -240.892516 
L 306.919671 -240.911784 
L 307.715908 -240.636136 
L 308.512146 -240.222927 
L 309.308383 -239.879599 
L 310.104621 -239.779562 
L 310.900858 -240.000879 
L 311.697096 -240.502633 
L 312.493333 -241.138546 
L 313.289571 -241.697716 
L 314.085808 -241.957544 
L 314.882046 -241.733566 
L 315.678283 -240.915621 
L 316.474521 -239.486541 
L 317.270758 -237.523185 
L 318.066996 -235.17997 
L 318.863233 -232.656464 
L 319.659471 -230.15523 
L 320.455709 -227.840208 
L 321.251946 -225.806417 
L 322.048184 -224.069378 
L 322.844421 -222.57917 
L 323.640659 -221.25809 
L 324.436896 -220.050628 
L 325.233134 -218.964428 
L 326.029371 -218.081308 
L 326.825609 -217.531861 
L 327.621846 -217.444977 
L 328.418084 -217.891492 
L 329.214321 -218.838521 
L 330.010559 -220.127305 
L 330.806796 -221.486626 
L 331.603034 -222.588512 
L 332.399271 -223.135919 
L 333.195509 -222.95123 
L 333.991746 -222.028025 
L 334.787984 -220.525446 
L 335.584221 -218.712308 
L 336.380459 -216.886736 
L 337.176697 -215.299029 
L 337.972934 -214.097482 
L 338.769172 -213.30754 
L 339.565409 -212.846111 
L 340.361647 -212.563534 
L 341.157884 -212.29719 
L 341.954122 -211.91886 
L 342.750359 -211.364478 
L 343.546597 -210.644349 
L 344.342834 -209.836989 
L 345.139072 -209.070335 
L 345.935309 -208.49443 
L 346.731547 -208.250437 
L 347.527784 -208.439328 
L 348.324022 -209.091599 
L 349.120259 -210.142015 
L 349.916497 -211.420657 
L 350.712734 -212.675162 
L 351.508972 -213.630937 
L 352.30521 -214.076844 
L 353.101447 -213.94529 
L 353.897685 -213.352053 
L 354.693922 -212.576237 
L 355.49016 -211.98375 
L 356.286397 -211.917685 
L 357.082635 -212.591219 
L 357.878872 -214.020429 
L 358.67511 -216.022525 
L 359.471347 -218.280721 
L 360.267585 -220.450033 
L 361.063822 -222.262375 
L 361.86006 -223.592589 
L 362.656297 -224.465043 
L 363.452535 -225.002765 
L 364.248772 -225.341584 
L 365.04501 -225.547858 
L 365.841247 -225.581848 
L 366.637485 -225.329766 
L 367.433722 -224.690347 
L 368.22996 -223.669325 
L 369.026198 -222.430049 
L 369.822435 -221.272619 
L 370.618673 -220.548716 
L 371.41491 -220.544211 
L 372.211148 -221.371513 
L 373.007385 -222.912223 
L 373.803623 -224.837524 
L 374.59986 -226.706417 
L 375.396098 -228.107939 
L 376.192335 -228.792324 
L 376.988573 -228.741623 
L 377.78481 -228.157886 
L 378.581048 -227.379304 
L 379.377285 -226.758065 
L 380.173523 -226.54385 
L 380.96976 -226.8136 
L 381.765998 -227.470402 
L 382.562235 -228.305647 
L 383.358473 -229.091665 
L 384.15471 -229.662587 
L 384.950948 -229.953717 
L 385.747186 -229.993953 
L 386.543423 -229.867104 
L 387.339661 -229.666789 
L 388.135898 -229.464677 
L 388.932136 -229.299707 
L 389.728373 -229.184627 
L 390.524611 -229.120444 
L 391.320848 -229.109392 
L 392.117086 -229.159968 
L 392.913323 -229.281494 
L 393.709561 -229.471618 
L 394.505798 -229.707852 
L 395.302036 -229.956091 
L 396.098273 -230.197577 
L 396.894511 -230.458118 
L 397.690748 -230.817177 
L 398.486986 -231.38736 
L 399.283223 -232.273941 
L 400.079461 -233.53244 
L 400.875699 -235.136952 
L 401.671936 -236.964663 
L 402.468174 -238.803181 
L 403.264411 -240.390239 
L 404.060649 -241.484771 
L 404.856886 -241.946066 
L 405.653124 -241.784055 
L 406.449361 -241.154879 
L 407.245599 -240.30552 
L 408.041836 -239.496059 
L 408.838074 -238.931253 
L 409.634311 -238.718026 
L 410.430549 -238.849565 
L 411.226786 -239.212444 
L 412.023024 -239.61624 
L 412.819261 -239.843073 
L 413.615499 -239.705302 
L 413.615499 -271.13732 
L 413.615499 -271.13732 
L 412.819261 -271.243304 
L 412.023024 -271.001508 
L 411.226786 -270.565 
L 410.430549 -270.133859 
L 409.634311 -269.91197 
L 408.838074 -270.04483 
L 408.041836 -270.561097 
L 407.245599 -271.348127 
L 406.449361 -272.17862 
L 405.653124 -272.778861 
L 404.856886 -272.909099 
L 404.060649 -272.426873 
L 403.264411 -271.319543 
L 402.468174 -269.705821 
L 401.671936 -267.807921 
L 400.875699 -265.894964 
L 400.079461 -264.207615 
L 399.283223 -262.89011 
L 398.486986 -261.961262 
L 397.690748 -261.338379 
L 396.894511 -260.896944 
L 396.098273 -260.530349 
L 395.302036 -260.182662 
L 394.505798 -259.850309 
L 393.709561 -259.563972 
L 392.913323 -259.363014 
L 392.117086 -259.271363 
L 391.320848 -259.283636 
L 390.524611 -259.368783 
L 389.728373 -259.48921 
L 388.932136 -259.621366 
L 388.135898 -259.761051 
L 387.339661 -259.908 
L 386.543423 -260.040739 
L 385.747186 -260.101257 
L 384.950948 -260.004186 
L 384.15471 -259.671389 
L 383.358473 -259.078103 
L 382.562235 -258.287853 
L 381.765998 -257.455081 
L 380.96976 -256.787075 
L 380.173523 -256.473703 
L 379.377285 -256.607816 
L 378.581048 -257.126902 
L 377.78481 -257.804599 
L 376.988573 -258.306482 
L 376.192335 -258.299508 
L 375.396098 -257.577192 
L 374.59986 -256.149297 
L 373.803623 -254.256845 
L 373.007385 -252.304246 
L 372.211148 -250.732435 
L 371.41491 -249.877307 
L 370.618673 -249.863598 
L 369.822435 -250.574579 
L 369.026198 -251.710326 
L 368.22996 -252.908607 
L 367.433722 -253.873202 
L 366.637485 -254.454606 
L 365.841247 -254.656942 
L 365.04501 -254.581752 
L 364.248772 -254.34223 
L 363.452535 -253.985736 
L 362.656297 -253.456277 
L 361.86006 -252.615787 
L 361.063822 -251.31993 
L 360.267585 -249.515507 
L 359.471347 -247.309901 
L 358.67511 -244.973485 
L 357.878872 -242.868612 
L 357.082635 -241.333401 
L 356.286397 -240.56709 
L 355.49016 -240.560961 
L 354.693922 -241.100238 
L 353.897685 -241.835987 
L 353.101447 -242.399155 
L 352.30521 -242.512875 
L 351.508972 -242.063603 
L 350.712734 -241.113501 
L 349.916497 -239.860953 
L 349.120259 -238.57041 
L 348.324022 -237.49547 
L 347.527784 -236.815617 
L 346.731547 -236.601899 
L 345.935309 -236.818343 
L 345.139072 -237.352594 
L 344.342834 -238.058272 
L 343.546597 -238.792318 
L 342.750359 -239.441084 
L 341.954122 -239.938035 
L 341.157884 -240.276603 
L 340.361647 -240.516429 
L 339.565409 -240.776906 
L 338.769172 -241.212682 
L 337.972934 -241.971255 
L 337.176697 -243.140176 
L 336.380459 -244.698966 
L 335.584221 -246.496285 
L 334.787984 -248.269933 
L 333.991746 -249.711367 
L 333.195509 -250.55417 
L 332.399271 -250.65314 
L 331.603034 -250.026683 
L 330.806796 -248.852675 
L 330.010559 -247.422807 
L 329.214321 -246.067748 
L 328.418084 -245.071267 
L 327.621846 -244.599455 
L 326.825609 -244.673116 
L 326.029371 -245.195891 
L 325.233134 -246.022219 
L 324.436896 -247.029368 
L 323.640659 -248.161664 
L 322.844421 -249.435603 
L 322.048184 -250.914196 
L 321.251946 -252.666748 
L 320.455709 -254.728267 
L 319.659471 -257.069472 
L 318.863233 -259.586082 
L 318.066996 -262.110714 
L 317.270758 -264.442538 
L 316.474521 -266.384947 
L 315.678283 -267.782901 
L 314.882046 -268.554825 
L 314.085808 -268.714177 
L 313.289571 -268.374409 
L 312.493333 -267.731778 
L 311.697096 -267.024976 
L 310.900858 -266.477794 
L 310.104621 -266.238993 
L 309.308383 -266.339001 
L 308.512146 -266.681724 
L 307.715908 -267.079175 
L 306.919671 -267.320269 
L 306.123433 -267.251748 
L 305.327196 -266.845163 
L 304.530958 -266.227462 
L 303.73472 -265.660088 
L 302.938483 -265.464293 
L 302.142245 -265.910861 
L 301.346008 -267.113022 
L 300.54977 -268.967599 
L 299.753533 -271.173196 
L 298.957295 -273.322142 
L 298.161058 -275.0321 
L 297.36482 -276.068475 
L 296.568583 -276.413188 
L 295.772345 -276.255096 
L 294.976108 -275.906656 
L 294.17987 -275.68018 
L 293.383633 -275.772211 
L 292.587395 -276.198854 
L 291.791158 -276.803156 
L 290.99492 -277.329097 
L 290.198683 -277.533472 
L 289.402445 -277.291545 
L 288.606208 -276.651565 
L 287.80997 -275.813172 
L 287.013732 -275.0406 
L 286.217495 -274.553961 
L 285.421257 -274.449775 
L 284.62502 -274.680691 
L 283.828782 -275.091449 
L 283.032545 -275.485412 
L 282.236307 -275.691219 
L 281.44007 -275.607241 
L 280.643832 -275.213547 
L 279.847595 -274.551897 
L 279.051357 -273.684772 
L 278.25512 -272.653923 
L 277.458882 -271.460676 
L 276.662645 -270.079535 
L 275.866407 -268.497571 
L 275.07017 -266.75543 
L 274.273932 -264.961881 
L 273.477695 -263.267174 
L 272.681457 -261.804864 
L 271.88522 -260.631336 
L 271.088982 -259.693357 
L 270.292744 -258.838184 
L 269.496507 -257.860941 
L 268.700269 -256.571325 
L 267.904032 -254.858298 
L 267.107794 -252.733338 
L 266.311557 -250.336948 
L 265.515319 -247.901313 
L 264.719082 -245.676821 
L 263.922844 -243.847812 
L 263.126607 -242.472162 
L 262.330369 -241.469936 
L 261.534132 -240.660457 
L 260.737894 -239.823255 
L 259.941657 -238.753718 
L 259.145419 -237.298788 
L 258.349182 -235.375702 
L 257.552944 -232.981337 
L 256.756707 -230.191915 
L 255.960469 -227.148007 
L 255.164231 -224.025885 
L 254.367994 -221.005154 
L 253.571756 -218.241999 
L 252.775519 -215.847737 
L 251.979281 -213.867126 
L 251.183044 -212.258229 
L 250.386806 -210.886475 
L 249.590569 -209.545484 
L 248.794331 -208.00479 
L 247.998094 -206.071699 
L 247.201856 -203.648974 
L 246.405619 -200.771215 
L 245.609381 -197.606873 
L 244.813144 -194.421704 
L 244.016906 -191.512509 
L 243.220669 -189.131629 
L 242.424431 -187.424825 
L 241.628194 -186.397553 
L 240.831956 -185.915625 
L 240.035719 -185.741314 
L 239.239481 -185.600058 
L 238.443243 -185.260922 
L 237.647006 -184.602738 
L 236.850768 -183.640022 
L 236.054531 -182.501054 
L 235.258293 -181.373235 
L 234.462056 -180.441876 
L 233.665818 -179.842247 
L 232.869581 -179.63144 
L 232.073343 -179.779735 
L 231.277106 -180.181318 
L 230.480868 -180.683646 
L 229.684631 -181.12954 
L 228.888393 -181.399049 
L 228.092156 -181.435042 
L 227.295918 -181.242556 
L 226.499681 -180.864656 
L 225.703443 -180.350387 
L 224.907206 -179.73253 
L 224.110968 -179.022703 
L 223.31473 -178.218547 
L 222.518493 -177.312798 
L 221.722255 -176.29843 
L 220.926018 -175.171107 
L 220.12978 -173.932673 
L 219.333543 -172.596295 
L 218.537305 -171.191381 
L 217.741068 -169.767242 
L 216.94483 -168.394833 
L 216.148593 -167.16316 
L 215.352355 -166.164894 
L 214.556118 -165.469373 
L 213.75988 -165.090851 
L 212.963643 -164.96768 
L 212.167405 -164.96579 
L 211.371168 -164.908327 
L 210.57493 -164.621627 
L 209.778693 -163.983065 
L 208.982455 -162.957707 
L 208.186218 -161.61358 
L 207.38998 -160.108106 
L 206.593742 -158.643408 
L 205.797505 -157.399066 
L 205.001267 -156.464544 
L 204.20503 -155.80027 
L 203.408792 -155.247228 
L 202.612555 -154.582563 
L 201.816317 -153.597368 
L 201.02008 -152.165862 
L 200.223842 -150.283321 
L 199.427605 -148.064457 
L 198.631367 -145.70628 
L 197.83513 -143.428525 
L 197.038892 -141.41221 
L 196.242655 -139.758778 
L 195.446417 -138.483661 
L 194.65018 -137.541355 
L 193.853942 -136.864889 
L 193.057705 -136.398695 
L 192.261467 -136.109775 
L 191.46523 -135.973928 
L 190.668992 -135.94853 
L 189.872754 -135.954587 
L 189.076517 -135.888496 
L 188.280279 -135.663909 
L 187.484042 -135.260055 
L 186.687804 -134.745812 
L 185.891567 -134.263409 
L 185.095329 -133.976936 
L 184.299092 -134.003291 
L 183.502854 -134.347678 
L 182.706617 -134.870548 
L 181.910379 -135.312351 
L 181.114142 -135.381656 
L 180.317904 -134.874441 
L 179.521667 -133.766976 
L 178.725429 -132.235985 
L 177.929192 -130.599604 
L 177.132954 -129.209075 
L 176.336717 -128.331123 
L 175.540479 -128.05506 
L 174.744241 -128.254731 
L 173.948004 -128.627122 
L 173.151766 -128.803946 
L 172.355529 -128.497283 
L 171.559291 -127.62004 
L 170.763054 -126.332266 
L 169.966816 -124.995091 
L 169.170579 -124.046513 
L 168.374341 -123.839286 
L 167.578104 -124.500517 
L 166.781866 -125.873895 
L 165.985629 -127.573143 
L 165.189391 -129.119577 
L 164.393154 -130.097388 
L 163.596916 -130.264399 
L 162.800679 -129.591988 
L 162.004441 -128.243003 
L 161.208204 -126.508659 
L 160.411966 -124.723814 
L 159.615729 -123.183722 
L 158.819491 -122.088935 
L 158.023253 -121.5321 
L 157.227016 -121.515666 
L 156.430778 -121.975986 
L 155.634541 -122.798295 
L 154.838303 -123.824165 
L 154.042066 -124.859729 
L 153.245828 -125.689925 
L 152.449591 -126.102209 
L 151.653353 -125.923487 
L 150.857116 -125.068784 
L 150.060878 -123.586458 
L 149.264641 -121.672939 
L 148.468403 -119.635663 
L 147.672166 -117.807514 
L 146.875928 -116.442328 
L 146.079691 -115.631969 
L 145.283453 -115.277855 
L 144.487216 -115.129846 
L 143.690978 -114.880627 
L 142.89474 -114.282026 
L 142.098503 -113.239953 
L 141.302265 -111.851153 
L 140.506028 -110.365661 
L 139.70979 -109.087177 
L 138.913553 -108.24948 
L 138.117315 -107.919987 
L 137.321078 -107.973149 
L 136.52484 -108.145593 
L 135.728603 -108.147163 
L 134.932365 -107.779474 
L 134.136128 -107.01645 
L 133.33989 -106.02158 
L 132.543653 -105.099703 
L 131.747415 -104.60003 
L 130.951178 -104.801589 
L 130.15494 -105.819642 
L 129.358703 -107.565659 
L 128.562465 -109.773171 
L 127.766228 -112.077034 
L 126.96999 -114.116708 
L 126.173752 -115.63022 
L 125.377515 -116.511506 
L 124.581277 -116.816706 
L 123.78504 -116.723854 
L 122.988802 -116.469415 
L 122.192565 -116.29026 
L 121.396327 -116.384215 
L 120.60009 -116.882498 
L 119.803852 -117.825461 
L 119.007615 -119.14824 
L 118.211377 -120.689963 
L 117.41514 -122.227471 
L 116.618902 -123.517785 
L 115.822665 -124.335647 
L 115.026427 -124.510742 
L 114.23019 -123.974599 
L 113.433952 -122.802899 
L 112.637715 -121.215845 
L 111.841477 -119.514455 
L 111.04524 -117.97479 
L 110.249002 -116.75633 
L 109.452764 -115.872373 
L 108.656527 -115.225111 
L 107.860289 -114.672797 
L 107.064052 -114.097462 
L 106.267814 -113.457895 
L 105.471577 -112.8179 
L 104.675339 -112.334958 
L 103.879102 -112.201125 
L 103.082864 -112.554226 
L 102.286627 -113.402168 
L 101.490389 -114.600877 
L 100.694152 -115.894888 
L 99.897914 -116.995061 
L 99.101677 -117.65669 
L 98.305439 -117.73407 
L 97.509202 -117.205464 
L 96.712964 -116.169328 
L 95.916727 -114.812156 
L 95.120489 -113.355209 
L 94.324251 -112.002166 
L 93.528014 -110.913303 
L 92.731776 -110.209909 
L 91.935539 -109.983443 
L 91.139301 -110.280981 
L 90.343064 -111.067901 
L 89.546826 -112.200991 
L 88.750589 -113.444308 
L 87.954351 -114.52536 
L 87.158114 -115.201407 
L 86.361876 -115.311458 
L 85.565639 -114.81188 
L 84.769401 -113.798504 
L 83.973164 -112.499239 
L 83.176926 -111.215846 
L 82.380689 -110.224104 
L 81.584451 -109.678738 
L 80.788214 -109.572552 
L 79.991976 -109.762644 
L 79.195739 -110.037415 
L 78.399501 -110.190369 
L 77.603263 -110.081643 
L 76.807026 -109.678278 
L 76.010788 -109.061927 
L 75.214551 -108.396177 
L 74.418313 -107.865055 
L 73.622076 -107.614358 
L 72.825838 -107.723586 
L 72.029601 -108.208298 
L 71.233363 -109.029753 
L 70.437126 -110.093209 
L 69.640888 -111.238532 
L 68.844651 -112.243622 
L 68.048413 -112.857105 
L 67.252176 -112.857524 
L 66.455938 -112.121557 
L 65.659701 -110.679384 
L 64.863463 -108.735672 
L 64.067226 -106.639778 
L 63.270988 -104.803909 
L 62.47475 -103.590803 
L 61.678513 -103.209249 
L 60.882275 -103.653659 
L 60.086038 -104.706181 
L 59.2898 -105.998156 
L 58.493563 -107.111355 
L 57.697325 -107.692066 
L 56.901088 -107.548732 
L 56.10485 -106.702032 
L 55.308613 -105.364654 
L 54.512375 -103.855389 
L 53.716138 -102.484691 
L 52.9199 -101.461828 
L 52.123663 -100.85756 
L 51.327425 -100.624047 
L 50.531188 -100.648685 
L 49.73495 -100.812415 
L 48.938713 -101.031794 
L 48.142475 -101.277367 
L 47.346238 -101.570269 
L 46.55 -101.963038 
z
" style="stroke: #e41a1c; stroke-opacity: 0.3"/>
    </defs>
    <g clip-path="url(#p7e0441801b)">
     <use xlink:href="#mad74119d80" x="0" y="360" style="fill: #e41a1c; fill-opacity: 0.3; stroke: #e41a1c; stroke-opacity: 0.3"/>
    </g>
   </g>
   <g id="PolyCollection_2">
    <defs>
     <path id="m08c4c03c6c" d="M 46.55 -112.041327 
L 46.55 -106.078185 
L 47.346238 -106.244228 
L 48.142475 -106.274093 
L 48.938713 -106.072736 
L 49.73495 -105.615626 
L 50.531188 -104.957892 
L 51.327425 -104.215013 
L 52.123663 -103.520051 
L 52.9199 -102.973268 
L 53.716138 -102.606183 
L 54.512375 -102.376936 
L 55.308613 -102.198459 
L 56.10485 -101.984283 
L 56.901088 -101.689082 
L 57.697325 -101.326421 
L 58.493563 -100.95935 
L 59.2898 -100.671308 
L 60.086038 -100.531145 
L 60.882275 -100.566202 
L 61.678513 -100.752486 
L 62.47475 -101.024125 
L 63.270988 -101.297541 
L 64.067226 -101.500243 
L 64.863463 -101.591781 
L 65.659701 -101.56776 
L 66.455938 -101.446757 
L 67.252176 -101.249771 
L 68.048413 -100.985811 
L 68.844651 -100.651885 
L 69.640888 -100.244499 
L 70.437126 -99.771554 
L 71.233363 -99.254916 
L 72.029601 -98.721835 
L 72.825838 -98.190229 
L 73.622076 -97.655724 
L 74.418313 -97.087784 
L 75.214551 -96.439148 
L 76.010788 -95.668088 
L 76.807026 -94.767071 
L 77.603263 -93.785762 
L 78.399501 -92.835208 
L 79.195739 -92.066148 
L 79.991976 -91.625328 
L 80.788214 -91.603666 
L 81.584451 -91.994994 
L 82.380689 -92.682674 
L 83.176926 -93.463361 
L 83.973164 -94.103415 
L 84.769401 -94.408815 
L 85.565639 -94.2817 
L 86.361876 -93.742178 
L 87.158114 -92.910308 
L 87.954351 -91.959909 
L 88.750589 -91.063708 
L 89.546826 -90.347497 
L 90.343064 -89.865198 
L 91.139301 -89.600467 
L 91.935539 -89.492383 
L 92.731776 -89.473185 
L 93.528014 -89.500277 
L 94.324251 -89.56817 
L 95.120489 -89.697972 
L 95.916727 -89.914659 
L 96.712964 -90.226845 
L 97.509202 -90.618704 
L 98.305439 -91.055325 
L 99.101677 -91.496304 
L 99.897914 -91.909438 
L 100.694152 -92.277287 
L 101.490389 -92.593743 
L 102.286627 -92.853842 
L 103.082864 -93.044616 
L 103.879102 -93.144706 
L 104.675339 -93.135136 
L 105.471577 -93.016434 
L 106.267814 -92.822528 
L 107.064052 -92.622234 
L 107.860289 -92.504546 
L 108.656527 -92.552016 
L 109.452764 -92.812918 
L 110.249002 -93.283592 
L 111.04524 -93.907368 
L 111.841477 -94.58962 
L 112.637715 -95.223371 
L 113.433952 -95.717036 
L 114.23019 -96.014749 
L 115.026427 -96.101164 
L 115.822665 -95.98847 
L 116.618902 -95.692916 
L 117.41514 -95.215698 
L 118.211377 -94.541338 
L 119.007615 -93.655633 
L 119.803852 -92.572912 
L 120.60009 -91.356976 
L 121.396327 -90.12336 
L 122.192565 -89.018591 
L 122.988802 -88.181121 
L 123.78504 -87.696858 
L 124.581277 -87.566857 
L 125.377515 -87.702083 
L 126.173752 -87.949422 
L 126.96999 -88.139501 
L 127.766228 -88.138191 
L 128.562465 -87.883822 
L 129.358703 -87.398718 
L 130.15494 -86.772656 
L 130.951178 -86.125634 
L 131.747415 -85.565535 
L 132.543653 -85.158105 
L 133.33989 -84.919503 
L 134.136128 -84.829402 
L 134.932365 -84.853181 
L 135.728603 -84.960575 
L 136.52484 -85.13363 
L 137.321078 -85.363484 
L 138.117315 -85.64036 
L 138.913553 -85.943886 
L 139.70979 -86.240785 
L 140.506028 -86.492911 
L 141.302265 -86.671911 
L 142.098503 -86.771868 
L 142.89474 -86.811599 
L 143.690978 -86.823636 
L 144.487216 -86.834188 
L 145.283453 -86.843809 
L 146.079691 -86.819563 
L 146.875928 -86.705133 
L 147.672166 -86.446652 
L 148.468403 -86.023435 
L 149.264641 -85.469526 
L 150.060878 -84.875512 
L 150.857116 -84.367791 
L 151.653353 -84.070564 
L 152.449591 -84.062355 
L 153.245828 -84.342457 
L 154.042066 -84.821612 
L 154.838303 -85.3436 
L 155.634541 -85.731811 
L 156.430778 -85.8437 
L 157.227016 -85.612717 
L 158.023253 -85.063602 
L 158.819491 -84.298155 
L 159.615729 -83.459146 
L 160.411966 -82.686041 
L 161.208204 -82.076917 
L 162.004441 -81.66698 
L 162.800679 -81.427645 
L 163.596916 -81.28344 
L 164.393154 -81.138803 
L 165.189391 -80.904543 
L 165.985629 -80.515475 
L 166.781866 -79.936209 
L 167.578104 -79.158377 
L 168.374341 -78.195644 
L 169.170579 -77.080604 
L 169.966816 -75.862652 
L 170.763054 -74.602919 
L 171.559291 -73.363792 
L 172.355529 -72.194568 
L 173.151766 -71.118188 
L 173.948004 -70.124944 
L 174.744241 -69.177132 
L 175.540479 -68.224623 
L 176.336717 -67.226905 
L 177.132954 -66.174279 
L 177.929192 -65.100734 
L 178.725429 -64.083177 
L 179.521667 -63.225362 
L 180.317904 -62.629429 
L 181.114142 -62.362824 
L 181.910379 -62.431853 
L 182.706617 -62.772397 
L 183.502854 -63.262517 
L 184.299092 -63.75336 
L 185.095329 -64.108203 
L 185.891567 -64.23729 
L 186.687804 -64.117952 
L 187.484042 -63.794441 
L 188.280279 -63.358876 
L 189.076517 -62.921288 
L 189.872754 -62.57989 
L 190.668992 -62.400659 
L 191.46523 -62.41012 
L 192.261467 -62.600254 
L 193.057705 -62.941303 
L 193.853942 -63.396492 
L 194.65018 -63.932294 
L 195.446417 -64.520355 
L 196.242655 -65.132638 
L 197.038892 -65.736014 
L 197.83513 -66.29252 
L 198.631367 -66.767029 
L 199.427605 -67.139027 
L 200.223842 -67.412965 
L 201.02008 -67.622447 
L 201.816317 -67.825631 
L 202.612555 -68.091479 
L 203.408792 -68.479315 
L 204.20503 -69.01768 
L 205.001267 -69.690604 
L 205.797505 -70.438053 
L 206.593742 -71.172594 
L 207.38998 -71.80772 
L 208.186218 -72.287405 
L 208.982455 -72.604838 
L 209.778693 -72.802623 
L 210.57493 -72.954645 
L 211.371168 -73.136881 
L 212.167405 -73.397788 
L 212.963643 -73.738106 
L 213.75988 -74.107022 
L 214.556118 -74.417472 
L 215.352355 -74.577265 
L 216.148593 -74.52526 
L 216.94483 -74.257384 
L 217.741068 -73.82998 
L 218.537305 -73.337722 
L 219.333543 -72.874619 
L 220.12978 -72.493649 
L 220.926018 -72.180976 
L 221.722255 -71.855545 
L 222.518493 -71.395672 
L 223.31473 -70.683625 
L 224.110968 -69.651373 
L 224.907206 -68.309693 
L 225.703443 -66.749515 
L 226.499681 -65.115254 
L 227.295918 -63.560111 
L 228.092156 -62.199557 
L 228.888393 -61.080149 
L 229.684631 -60.17554 
L 230.480868 -59.410465 
L 231.277106 -58.701174 
L 232.073343 -57.993749 
L 232.869581 -57.283934 
L 233.665818 -56.611831 
L 234.462056 -56.036365 
L 235.258293 -55.602081 
L 236.054531 -55.312848 
L 236.850768 -55.124098 
L 237.647006 -54.958008 
L 238.443243 -54.73613 
L 239.239481 -54.415153 
L 240.035719 -54.008733 
L 240.831956 -53.584107 
L 241.628194 -53.234114 
L 242.424431 -53.037418 
L 243.220669 -53.025403 
L 244.016906 -53.170988 
L 244.813144 -53.404569 
L 245.609381 -53.650532 
L 246.405619 -53.868811 
L 247.201856 -54.082992 
L 247.998094 -54.380755 
L 248.794331 -54.882944 
L 249.590569 -55.691134 
L 250.386806 -56.834671 
L 251.183044 -58.240856 
L 251.979281 -59.743444 
L 252.775519 -61.128577 
L 253.571756 -62.201453 
L 254.367994 -62.848643 
L 255.164231 -63.073168 
L 255.960469 -62.990266 
L 256.756707 -62.786523 
L 257.552944 -62.658111 
L 258.349182 -62.751078 
L 259.145419 -63.12531 
L 259.941657 -63.754109 
L 260.737894 -64.556778 
L 261.534132 -65.448044 
L 262.330369 -66.381357 
L 263.126607 -67.366308 
L 263.922844 -68.452309 
L 264.719082 -69.686551 
L 265.515319 -71.066836 
L 266.311557 -72.513162 
L 267.107794 -73.874077 
L 267.904032 -74.968507 
L 268.700269 -75.648036 
L 269.496507 -75.855292 
L 270.292744 -75.654816 
L 271.088982 -75.223011 
L 271.88522 -74.799098 
L 272.681457 -74.612913 
L 273.477695 -74.813486 
L 274.273932 -75.422634 
L 275.07017 -76.330229 
L 275.866407 -77.333394 
L 276.662645 -78.205243 
L 277.458882 -78.767385 
L 278.25512 -78.940421 
L 279.051357 -78.757833 
L 279.847595 -78.344367 
L 280.643832 -77.87159 
L 281.44007 -77.507184 
L 282.236307 -77.372517 
L 283.032545 -77.518223 
L 283.828782 -77.921493 
L 284.62502 -78.501856 
L 285.421257 -79.146875 
L 286.217495 -79.738066 
L 287.013732 -80.170937 
L 287.80997 -80.368537 
L 288.606208 -80.291119 
L 289.402445 -79.943737 
L 290.198683 -79.380114 
L 290.99492 -78.698469 
L 291.791158 -78.025722 
L 292.587395 -77.490427 
L 293.383633 -77.189856 
L 294.17987 -77.160831 
L 294.976108 -77.364916 
L 295.772345 -77.69543 
L 296.568583 -78.006827 
L 297.36482 -78.158829 
L 298.161058 -78.061139 
L 298.957295 -77.702689 
L 299.753533 -77.153853 
L 300.54977 -76.539962 
L 301.346008 -75.996063 
L 302.142245 -75.620615 
L 302.938483 -75.445701 
L 303.73472 -75.433593 
L 304.530958 -75.498516 
L 305.327196 -75.543195 
L 306.123433 -75.495566 
L 306.919671 -75.332518 
L 307.715908 -75.083314 
L 308.512146 -74.813312 
L 309.308383 -74.596073 
L 310.104621 -74.486195 
L 310.900858 -74.504012 
L 311.697096 -74.636586 
L 312.493333 -74.851061 
L 313.289571 -75.111292 
L 314.085808 -75.38917 
L 314.882046 -75.666651 
L 315.678283 -75.930027 
L 316.474521 -76.161713 
L 317.270758 -76.335809 
L 318.066996 -76.421628 
L 318.863233 -76.3945 
L 319.659471 -76.247885 
L 320.455709 -75.998907 
L 321.251946 -75.682768 
L 322.048184 -75.337858 
L 322.844421 -74.988539 
L 323.640659 -74.633918 
L 324.436896 -74.248538 
L 325.233134 -73.796337 
L 326.029371 -73.253773 
L 326.825609 -72.633098 
L 327.621846 -71.994319 
L 328.418084 -71.437212 
L 329.214321 -71.073096 
L 330.010559 -70.986387 
L 330.806796 -71.201769 
L 331.603034 -71.670562 
L 332.399271 -72.281372 
L 333.195509 -72.890584 
L 333.991746 -73.361695 
L 334.787984 -73.600527 
L 335.584221 -73.575513 
L 336.380459 -73.317911 
L 337.176697 -72.904141 
L 337.972934 -72.429228 
L 338.769172 -71.982897 
L 339.565409 -71.636539 
L 340.361647 -71.442015 
L 341.157884 -71.43635 
L 341.954122 -71.644173 
L 342.750359 -72.073208 
L 343.546597 -72.704322 
L 344.342834 -73.482758 
L 345.139072 -74.318292 
L 345.935309 -75.09872 
L 346.731547 -75.715301 
L 347.527784 -76.093009 
L 348.324022 -76.214735 
L 349.120259 -76.128648 
L 349.916497 -75.933117 
L 350.712734 -75.742689 
L 351.508972 -75.647631 
L 352.30521 -75.683177 
L 353.101447 -75.820792 
L 353.897685 -75.984511 
L 354.693922 -76.085551 
L 355.49016 -76.061798 
L 356.286397 -75.907033 
L 357.082635 -75.678175 
L 357.878872 -75.476594 
L 358.67511 -75.410006 
L 359.471347 -75.550114 
L 360.267585 -75.902982 
L 361.063822 -76.402777 
L 361.86006 -76.92934 
L 362.656297 -77.341822 
L 363.452535 -77.516926 
L 364.248772 -77.38043 
L 365.04501 -76.923344 
L 365.841247 -76.198875 
L 366.637485 -75.302914 
L 367.433722 -74.34654 
L 368.22996 -73.430486 
L 369.026198 -72.627923 
L 369.822435 -71.97665 
L 370.618673 -71.478448 
L 371.41491 -71.103404 
L 372.211148 -70.798378 
L 373.007385 -70.499025 
L 373.803623 -70.143708 
L 374.59986 -69.686723 
L 375.396098 -69.108374 
L 376.192335 -68.419873 
L 376.988573 -67.661667 
L 377.78481 -66.894793 
L 378.581048 -66.186611 
L 379.377285 -65.594521 
L 380.173523 -65.153007 
L 380.96976 -64.868881 
L 381.765998 -64.726318 
L 382.562235 -64.698823 
L 383.358473 -64.762461 
L 384.15471 -64.904842 
L 384.950948 -65.126896 
L 385.747186 -65.43793 
L 386.543423 -65.846986 
L 387.339661 -66.354095 
L 388.135898 -66.94396 
L 388.932136 -67.583265 
L 389.728373 -68.222165 
L 390.524611 -68.800161 
L 391.320848 -69.25566 
L 392.117086 -69.537425 
L 392.913323 -69.61544 
L 393.709561 -69.489187 
L 394.505798 -69.191809 
L 395.302036 -68.788482 
L 396.098273 -68.366913 
L 396.894511 -68.019486 
L 397.690748 -67.820325 
L 398.486986 -67.804149 
L 399.283223 -67.954417 
L 400.079461 -68.205816 
L 400.875699 -68.461888 
L 401.671936 -68.623563 
L 402.468174 -68.620039 
L 403.264411 -68.431307 
L 404.060649 -68.093906 
L 404.856886 -67.687699 
L 405.653124 -67.308608 
L 406.449361 -67.036789 
L 407.245599 -66.910797 
L 408.041836 -66.916714 
L 408.838074 -66.996207 
L 409.634311 -67.06952 
L 410.430549 -67.062591 
L 411.226786 -66.927153 
L 412.023024 -66.648548 
L 412.819261 -66.242203 
L 413.615499 -65.741963 
L 413.615499 -79.345557 
L 413.615499 -79.345557 
L 412.819261 -79.803884 
L 412.023024 -80.179757 
L 411.226786 -80.445142 
L 410.430549 -80.581043 
L 409.634311 -80.594389 
L 408.838074 -80.526743 
L 408.041836 -80.447471 
L 407.245599 -80.433366 
L 406.449361 -80.542635 
L 405.653124 -80.792375 
L 404.856886 -81.148124 
L 404.060649 -81.531539 
L 403.264411 -81.84583 
L 402.468174 -82.010096 
L 401.671936 -81.988684 
L 400.875699 -81.804056 
L 400.079461 -81.529351 
L 399.283223 -81.264758 
L 398.486986 -81.106558 
L 397.690748 -81.118878 
L 396.894511 -81.31662 
L 396.098273 -81.663695 
L 395.302036 -82.085185 
L 394.505798 -82.487898 
L 393.709561 -82.782448 
L 392.913323 -82.901208 
L 392.117086 -82.808889 
L 391.320848 -82.505172 
L 390.524611 -82.020738 
L 389.728373 -81.408889 
L 388.932136 -80.734872 
L 388.135898 -80.064363 
L 387.339661 -79.452474 
L 386.543423 -78.935251 
L 385.747186 -78.526211 
L 384.950948 -78.219596 
L 384.15471 -77.999736 
L 383.358473 -77.853284 
L 382.562235 -77.779475 
L 381.765998 -77.793993 
L 380.96976 -77.924447 
L 380.173523 -78.199083 
L 379.377285 -78.633177 
L 378.581048 -79.218397 
L 377.78481 -79.919118 
L 376.988573 -80.677182 
L 376.192335 -81.423908 
L 375.396098 -82.096257 
L 374.59986 -82.652718 
L 373.803623 -83.083973 
L 373.007385 -83.414629 
L 372.211148 -83.695686 
L 371.41491 -83.991264 
L 370.618673 -84.364398 
L 369.822435 -84.864773 
L 369.026198 -85.518711 
L 368.22996 -86.321158 
L 367.433722 -87.231076 
L 366.637485 -88.173125 
L 365.841247 -89.047738 
L 365.04501 -89.748949 
L 364.248772 -90.186873 
L 363.452535 -90.310629 
L 362.656297 -90.126319 
L 361.86006 -89.703206 
L 361.063822 -89.161907 
L 360.267585 -88.643994 
L 359.471347 -88.271452 
L 358.67511 -88.111005 
L 357.878872 -88.157179 
L 357.082635 -88.340033 
L 356.286397 -88.554055 
L 355.49016 -88.697956 
L 354.693922 -88.7118 
L 353.897685 -88.598071 
L 353.101447 -88.417704 
L 352.30521 -88.261453 
L 351.508972 -88.208078 
L 350.712734 -88.287442 
L 349.916497 -88.464165 
L 349.120259 -88.647593 
L 348.324022 -88.722847 
L 347.527784 -88.590554 
L 346.731547 -88.200939 
L 345.935309 -87.570556 
L 345.139072 -86.776302 
L 344.342834 -85.930161 
L 343.546597 -85.145924 
L 342.750359 -84.511766 
L 341.954122 -84.077902 
L 341.157884 -83.859582 
L 340.361647 -83.848035 
L 339.565409 -84.020101 
L 338.769172 -84.341263 
L 337.972934 -84.76263 
L 337.176697 -85.216726 
L 336.380459 -85.6183 
L 335.584221 -85.874852 
L 334.787984 -85.907608 
L 333.991746 -85.677964 
L 333.195509 -85.208935 
L 332.399271 -84.589935 
L 331.603034 -83.95863 
L 330.806796 -83.463749 
L 330.010559 -83.222066 
L 329.214321 -83.285885 
L 328.418084 -83.632603 
L 327.621846 -84.178708 
L 326.825609 -84.811615 
L 326.029371 -85.427269 
L 325.233134 -85.960084 
L 324.436896 -86.39486 
L 323.640659 -86.757419 
L 322.844421 -87.089672 
L 322.048184 -87.421809 
L 321.251946 -87.755077 
L 320.455709 -88.062046 
L 319.659471 -88.30144 
L 318.863233 -88.437772 
L 318.066996 -88.455722 
L 317.270758 -88.363731 
L 316.474521 -88.187075 
L 315.678283 -87.955392 
L 314.882046 -87.691917 
L 314.085808 -87.410525 
L 313.289571 -87.121791 
L 312.493333 -86.843277 
L 311.697096 -86.605917 
L 310.900858 -86.450272 
L 310.104621 -86.412579 
L 309.308383 -86.506868 
L 308.512146 -86.712183 
L 307.715908 -86.972392 
L 306.919671 -87.211396 
L 306.123433 -87.360361 
L 305.327196 -87.387366 
L 304.530958 -87.316338 
L 303.73472 -87.224399 
L 302.938483 -87.215412 
L 302.142245 -87.379018 
L 301.346008 -87.752063 
L 300.54977 -88.298596 
L 299.753533 -88.916638 
L 298.957295 -89.469582 
L 298.161058 -89.831417 
L 297.36482 -89.930177 
L 296.568583 -89.774205 
L 295.772345 -89.451528 
L 294.976108 -89.102347 
L 294.17987 -88.874661 
L 293.383633 -88.878943 
L 292.587395 -89.157054 
L 291.791158 -89.674029 
L 290.99492 -90.332552 
L 290.198683 -91.002555 
L 289.402445 -91.554942 
L 288.606208 -91.889507 
L 287.80997 -91.951347 
L 287.013732 -91.735412 
L 286.217495 -91.282662 
L 285.421257 -90.671868 
L 284.62502 -90.008763 
L 283.828782 -89.411642 
L 283.032545 -88.992 
L 282.236307 -88.830606 
L 281.44007 -88.952915 
L 280.643832 -89.311449 
L 279.847595 -89.784867 
L 279.051357 -90.200868 
L 278.25512 -90.381723 
L 277.458882 -90.200121 
L 276.662645 -89.625554 
L 275.866407 -88.742566 
L 275.07017 -87.731792 
L 274.273932 -86.8181 
L 273.477695 -86.201441 
L 272.681457 -85.991915 
L 271.88522 -86.170484 
L 271.088982 -86.590145 
L 270.292744 -87.019621 
L 269.496507 -87.215951 
L 268.700269 -87.000258 
L 267.904032 -86.308867 
L 267.107794 -85.201884 
L 266.311557 -83.829084 
L 265.515319 -82.369881 
L 264.719082 -80.972655 
L 263.922844 -79.71624 
L 263.126607 -78.605424 
L 262.330369 -77.597998 
L 261.534132 -76.648467 
L 260.737894 -75.747568 
L 259.941657 -74.939093 
L 259.145419 -74.305275 
L 258.349182 -73.925879 
L 257.552944 -73.828758 
L 256.756707 -73.955148 
L 255.960469 -74.158023 
L 255.164231 -74.238014 
L 254.367994 -74.005132 
L 253.571756 -73.342998 
L 252.775519 -72.25057 
L 251.979281 -70.844732 
L 251.183044 -69.322387 
L 250.386806 -67.896652 
L 249.590569 -66.731476 
L 248.794331 -65.898515 
L 247.998094 -65.370101 
L 247.201856 -65.047718 
L 246.405619 -64.812296 
L 245.609381 -64.575562 
L 244.813144 -64.312478 
L 244.016906 -64.063014 
L 243.220669 -63.904351 
L 242.424431 -63.907547 
L 241.628194 -64.099342 
L 240.831956 -64.44656 
L 240.035719 -64.868992 
L 239.239481 -65.27326 
L 238.443243 -65.591488 
L 237.647006 -65.808045 
L 236.850768 -65.963817 
L 236.054531 -66.136992 
L 235.258293 -66.408644 
L 234.462056 -66.827966 
L 233.665818 -67.393124 
L 232.869581 -68.057363 
L 232.073343 -68.757673 
L 231.277106 -69.451678 
L 230.480868 -70.144169 
L 229.684631 -70.890272 
L 228.888393 -71.773699 
L 228.092156 -72.869358 
L 227.295918 -74.205272 
L 226.499681 -75.738897 
L 225.703443 -77.358571 
L 224.907206 -78.91208 
L 224.110968 -80.253181 
L 223.31473 -81.288217 
L 222.518493 -82.004049 
L 221.722255 -82.46641 
L 220.926018 -82.790349 
L 220.12978 -83.095177 
L 219.333543 -83.461141 
L 218.537305 -83.903456 
L 217.741068 -84.37245 
L 216.94483 -84.778414 
L 216.148593 -85.030276 
L 215.352355 -85.072487 
L 214.556118 -84.906423 
L 213.75988 -84.589335 
L 212.963643 -84.212132 
L 212.167405 -83.864506 
L 211.371168 -83.600621 
L 210.57493 -83.419172 
L 209.778693 -83.266245 
L 208.982455 -83.05954 
L 208.186218 -82.723023 
L 207.38998 -82.217429 
L 206.593742 -81.555426 
L 205.797505 -80.797392 
L 205.001267 -80.030891 
L 204.20503 -79.342041 
L 203.408792 -78.788978 
L 202.612555 -78.386047 
L 201.816317 -78.102999 
L 201.02008 -77.878358 
L 200.223842 -77.641534 
L 199.427605 -77.335312 
L 198.631367 -76.930492 
L 197.83513 -76.428135 
L 197.038892 -75.851011 
L 196.242655 -75.231131 
L 195.446417 -74.600807 
L 194.65018 -73.990281 
L 193.853942 -73.429846 
L 193.057705 -72.952637 
L 192.261467 -72.59517 
L 191.46523 -72.39378 
L 190.668992 -72.375803 
L 189.872754 -72.54647 
L 189.076517 -72.876264 
L 188.280279 -73.296155 
L 187.484042 -73.706418 
L 186.687804 -73.998855 
L 185.891567 -74.086171 
L 185.095329 -73.929186 
L 184.299092 -73.553095 
L 183.502854 -73.046806 
L 182.706617 -72.543925 
L 181.910379 -72.189768 
L 181.114142 -72.10406 
L 180.317904 -72.351004 
L 179.521667 -72.926094 
L 178.725429 -73.763354 
L 177.929192 -74.760098 
L 177.132954 -75.810683 
L 176.336717 -76.837629 
L 175.540479 -77.80958 
L 174.744241 -78.740889 
L 173.948004 -79.675133 
L 173.151766 -80.660934 
L 172.355529 -81.730261 
L 171.559291 -82.886497 
L 170.763054 -84.104124 
L 169.966816 -85.336725 
L 169.170579 -86.527708 
L 168.374341 -87.619708 
L 167.578104 -88.562132 
L 166.781866 -89.318224 
L 165.985629 -89.872158 
L 165.189391 -90.234895 
L 164.393154 -90.446856 
L 163.596916 -90.575877 
L 162.800679 -90.709193 
L 162.004441 -90.938053 
L 161.208204 -91.335043 
L 160.411966 -91.928645 
L 159.615729 -92.684559 
L 158.819491 -93.504395 
L 158.023253 -94.247166 
L 157.227016 -94.769497 
L 156.430778 -94.971641 
L 155.634541 -94.832762 
L 154.838303 -94.422307 
L 154.042066 -93.882701 
L 153.245828 -93.388479 
L 152.449591 -93.094782 
L 151.653353 -93.091967 
L 150.857116 -93.38175 
L 150.060878 -93.883409 
L 149.264641 -94.467553 
L 148.468403 -95.003653 
L 147.672166 -95.401846 
L 146.875928 -95.633263 
L 146.079691 -95.72404 
L 145.283453 -95.729738 
L 144.487216 -95.70375 
L 143.690978 -95.673631 
L 142.89474 -95.634168 
L 142.098503 -95.557735 
L 141.302265 -95.414459 
L 140.506028 -95.190931 
L 139.70979 -94.898471 
L 138.913553 -94.56861 
L 138.117315 -94.239957 
L 137.321078 -93.943982 
L 136.52484 -93.697216 
L 135.728603 -93.504257 
L 134.932365 -93.369873 
L 134.136128 -93.311882 
L 133.33989 -93.364339 
L 132.543653 -93.565686 
L 131.747415 -93.936166 
L 130.951178 -94.456184 
L 130.15494 -95.057548 
L 129.358703 -95.633893 
L 128.562465 -96.069221 
L 127.766228 -96.276777 
L 126.96999 -96.234998 
L 126.173752 -96.005386 
L 125.377515 -95.722035 
L 124.581277 -95.553889 
L 123.78504 -95.652882 
L 122.988802 -96.107206 
L 122.192565 -96.91633 
L 121.396327 -97.995486 
L 120.60009 -99.20642 
L 119.803852 -100.40169 
L 119.007615 -101.464691 
L 118.211377 -102.330429 
L 117.41514 -102.982324 
L 116.618902 -103.432048 
L 115.822665 -103.695431 
L 115.026427 -103.77624 
L 114.23019 -103.664168 
L 113.433952 -103.34727 
L 112.637715 -102.833185 
L 111.841477 -102.168051 
L 111.04524 -101.440569 
L 110.249002 -100.764812 
L 109.452764 -100.247031 
L 108.656527 -99.951402 
L 107.860289 -99.880716 
L 107.064052 -99.980074 
L 106.267814 -100.160221 
L 105.471577 -100.329102 
L 104.675339 -100.418432 
L 103.879102 -100.395969 
L 103.082864 -100.261742 
L 102.286627 -100.033842 
L 101.490389 -99.732917 
L 100.694152 -99.372962 
L 99.897914 -98.961298 
L 99.101677 -98.505676 
L 98.305439 -98.023099 
L 97.509202 -97.54392 
L 96.712964 -97.106711 
L 95.916727 -96.745103 
L 95.120489 -96.47431 
L 94.324251 -96.286714 
L 93.528014 -96.160584 
L 92.731776 -96.07787 
L 91.935539 -96.042011 
L 91.139301 -96.086617 
L 90.343064 -96.269045 
L 89.546826 -96.647401 
L 88.750589 -97.246168 
L 87.954351 -98.024075 
L 87.158114 -98.862508 
L 86.361876 -99.587381 
L 85.565639 -100.021184 
L 84.769401 -100.044932 
L 83.973164 -99.643917 
L 83.176926 -98.919428 
L 82.380689 -98.06334 
L 81.584451 -97.304962 
L 80.788214 -96.846655 
L 79.991976 -96.808089 
L 79.195739 -97.197958 
L 78.399501 -97.923347 
L 77.603263 -98.832041 
L 76.807026 -99.769127 
L 76.010788 -100.624591 
L 75.214551 -101.355242 
L 74.418313 -101.977051 
L 73.622076 -102.536507 
L 72.825838 -103.077086 
L 72.029601 -103.616973 
L 71.233363 -104.146448 
L 70.437126 -104.641777 
L 69.640888 -105.0837 
L 68.844651 -105.46761 
L 68.048413 -105.799705 
L 67.252176 -106.084066 
L 66.455938 -106.311576 
L 65.659701 -106.458699 
L 64.863463 -106.497028 
L 64.067226 -106.409375 
L 63.270988 -106.205807 
L 62.47475 -105.932348 
L 61.678513 -105.666246 
L 60.882275 -105.495767 
L 60.086038 -105.489764 
L 59.2898 -105.669675 
L 58.493563 -105.998741 
L 57.697325 -106.396602 
L 56.901088 -106.774633 
L 56.10485 -107.07605 
L 55.308613 -107.301566 
L 54.512375 -107.508462 
L 53.716138 -107.784302 
L 52.9199 -108.207872 
L 52.123663 -108.813233 
L 51.327425 -109.569592 
L 50.531188 -110.384324 
L 49.73495 -111.130271 
L 48.938713 -111.690276 
L 48.142475 -112.002797 
L 47.346238 -112.0881 
L 46.55 -112.041327 
z
" style="stroke: #377eb8; stroke-opacity: 0.3"/>
    </defs>
    <g clip-path="url(#p7e0441801b)">
     <use xlink:href="#m08c4c03c6c" x="0" y="360" style="fill: #377eb8; fill-opacity: 0.3; stroke: #377eb8; stroke-opacity: 0.3"/>
    </g>
   </g>
   <g id="patch_3">
    <path d="M 229.843878 318.2 
L 229.843878 71.241125 
L 331.762281 71.241125 
L 331.762281 318.2 
z
" clip-path="url(#p7e0441801b)" style="fill: #808080; opacity: 0.3"/>
   </g>
   <g id="matplotlib.axis_1">
    <g id="xtick_1">
     <g id="line2d_1">
      <defs>
       <path id="mb35378608c" d="M 0 0 
L 0 3.5 
" style="stroke: #000000; stroke-width: 0.8"/>
      </defs>
      <g>
       <use xlink:href="#mb35378608c" x="87.158114" y="318.2" style="stroke: #000000; stroke-width: 0.8"/>
      </g>
     </g>
     <g id="text_1">
      <!-- 0.0 -->
      <g transform="translate(79.206551 332.798437)scale(0.1 -0.1)">
       <defs>
        <path id="DejaVuSans-30" d="M 2034 4250 
Q 1547 4250 1301 3770 
Q 1056 3291 1056 2328 
Q 1056 1369 1301 889 
Q 1547 409 2034 409 
Q 2525 409 2770 889 
Q 3016 1369 3016 2328 
Q 3016 3291 2770 3770 
Q 2525 4250 2034 4250 
z
M 2034 4750 
Q 2819 4750 3233 4129 
Q 3647 3509 3647 2328 
Q 3647 1150 3233 529 
Q 2819 -91 2034 -91 
Q 1250 -91 836 529 
Q 422 1150 422 2328 
Q 422 3509 836 4129 
Q 1250 4750 2034 4750 
z
" transform="scale(0.015625)"/>
        <path id="DejaVuSans-2e" d="M 684 794 
L 1344 794 
L 1344 0 
L 684 0 
L 684 794 
z
" transform="scale(0.015625)"/>
       </defs>
       <use xlink:href="#DejaVuSans-30"/>
       <use xlink:href="#DejaVuSans-2e" x="63.623047"/>
       <use xlink:href="#DejaVuSans-30" x="95.410156"/>
      </g>
     </g>
    </g>
    <g id="xtick_2">
     <g id="line2d_2">
      <g>
       <use xlink:href="#mb35378608c" x="168.692836" y="318.2" style="stroke: #000000; stroke-width: 0.8"/>
      </g>
     </g>
     <g id="text_2">
      <!-- 0.2 -->
      <g transform="translate(160.741274 332.798437)scale(0.1 -0.1)">
       <defs>
        <path id="DejaVuSans-32" d="M 1228 531 
L 3431 531 
L 3431 0 
L 469 0 
L 469 531 
Q 828 903 1448 1529 
Q 2069 2156 2228 2338 
Q 2531 2678 2651 2914 
Q 2772 3150 2772 3378 
Q 2772 3750 2511 3984 
Q 2250 4219 1831 4219 
Q 1534 4219 1204 4116 
Q 875 4013 500 3803 
L 500 4441 
Q 881 4594 1212 4672 
Q 1544 4750 1819 4750 
Q 2544 4750 2975 4387 
Q 3406 4025 3406 3419 
Q 3406 3131 3298 2873 
Q 3191 2616 2906 2266 
Q 2828 2175 2409 1742 
Q 1991 1309 1228 531 
z
" transform="scale(0.015625)"/>
       </defs>
       <use xlink:href="#DejaVuSans-30"/>
       <use xlink:href="#DejaVuSans-2e" x="63.623047"/>
       <use xlink:href="#DejaVuSans-32" x="95.410156"/>
      </g>
     </g>
    </g>
    <g id="xtick_3">
     <g id="line2d_3">
      <g>
       <use xlink:href="#mb35378608c" x="250.227559" y="318.2" style="stroke: #000000; stroke-width: 0.8"/>
      </g>
     </g>
     <g id="text_3">
      <!-- 0.4 -->
      <g transform="translate(242.275996 332.798437)scale(0.1 -0.1)">
       <defs>
        <path id="DejaVuSans-34" d="M 2419 4116 
L 825 1625 
L 2419 1625 
L 2419 4116 
z
M 2253 4666 
L 3047 4666 
L 3047 1625 
L 3713 1625 
L 3713 1100 
L 3047 1100 
L 3047 0 
L 2419 0 
L 2419 1100 
L 313 1100 
L 313 1709 
L 2253 4666 
z
" transform="scale(0.015625)"/>
       </defs>
       <use xlink:href="#DejaVuSans-30"/>
       <use xlink:href="#DejaVuSans-2e" x="63.623047"/>
       <use xlink:href="#DejaVuSans-34" x="95.410156"/>
      </g>
     </g>
    </g>
    <g id="xtick_4">
     <g id="line2d_4">
      <g>
       <use xlink:href="#mb35378608c" x="331.762281" y="318.2" style="stroke: #000000; stroke-width: 0.8"/>
      </g>
     </g>
     <g id="text_4">
      <!-- 0.6 -->
      <g transform="translate(323.810719 332.798437)scale(0.1 -0.1)">
       <defs>
        <path id="DejaVuSans-36" d="M 2113 2584 
Q 1688 2584 1439 2293 
Q 1191 2003 1191 1497 
Q 1191 994 1439 701 
Q 1688 409 2113 409 
Q 2538 409 2786 701 
Q 3034 994 3034 1497 
Q 3034 2003 2786 2293 
Q 2538 2584 2113 2584 
z
M 3366 4563 
L 3366 3988 
Q 3128 4100 2886 4159 
Q 2644 4219 2406 4219 
Q 1781 4219 1451 3797 
Q 1122 3375 1075 2522 
Q 1259 2794 1537 2939 
Q 1816 3084 2150 3084 
Q 2853 3084 3261 2657 
Q 3669 2231 3669 1497 
Q 3669 778 3244 343 
Q 2819 -91 2113 -91 
Q 1303 -91 875 529 
Q 447 1150 447 2328 
Q 447 3434 972 4092 
Q 1497 4750 2381 4750 
Q 2619 4750 2861 4703 
Q 3103 4656 3366 4563 
z
" transform="scale(0.015625)"/>
       </defs>
       <use xlink:href="#DejaVuSans-30"/>
       <use xlink:href="#DejaVuSans-2e" x="63.623047"/>
       <use xlink:href="#DejaVuSans-36" x="95.410156"/>
      </g>
     </g>
    </g>
    <g id="xtick_5">
     <g id="line2d_5">
      <g>
       <use xlink:href="#mb35378608c" x="413.297004" y="318.2" style="stroke: #000000; stroke-width: 0.8"/>
      </g>
     </g>
     <g id="text_5">
      <!-- 0.8 -->
      <g transform="translate(405.345441 332.798437)scale(0.1 -0.1)">
       <defs>
        <path id="DejaVuSans-38" d="M 2034 2216 
Q 1584 2216 1326 1975 
Q 1069 1734 1069 1313 
Q 1069 891 1326 650 
Q 1584 409 2034 409 
Q 2484 409 2743 651 
Q 3003 894 3003 1313 
Q 3003 1734 2745 1975 
Q 2488 2216 2034 2216 
z
M 1403 2484 
Q 997 2584 770 2862 
Q 544 3141 544 3541 
Q 544 4100 942 4425 
Q 1341 4750 2034 4750 
Q 2731 4750 3128 4425 
Q 3525 4100 3525 3541 
Q 3525 3141 3298 2862 
Q 3072 2584 2669 2484 
Q 3125 2378 3379 2068 
Q 3634 1759 3634 1313 
Q 3634 634 3220 271 
Q 2806 -91 2034 -91 
Q 1263 -91 848 271 
Q 434 634 434 1313 
Q 434 1759 690 2068 
Q 947 2378 1403 2484 
z
M 1172 3481 
Q 1172 3119 1398 2916 
Q 1625 2713 2034 2713 
Q 2441 2713 2670 2916 
Q 2900 3119 2900 3481 
Q 2900 3844 2670 4047 
Q 2441 4250 2034 4250 
Q 1625 4250 1398 4047 
Q 1172 3844 1172 3481 
z
" transform="scale(0.015625)"/>
       </defs>
       <use xlink:href="#DejaVuSans-30"/>
       <use xlink:href="#DejaVuSans-2e" x="63.623047"/>
       <use xlink:href="#DejaVuSans-38" x="95.410156"/>
      </g>
     </g>
    </g>
    <g id="text_6">
     <!-- seconds -->
     <g transform="translate(209.645249 346.476562)scale(0.1 -0.1)">
      <defs>
       <path id="DejaVuSans-73" d="M 2834 3397 
L 2834 2853 
Q 2591 2978 2328 3040 
Q 2066 3103 1784 3103 
Q 1356 3103 1142 2972 
Q 928 2841 928 2578 
Q 928 2378 1081 2264 
Q 1234 2150 1697 2047 
L 1894 2003 
Q 2506 1872 2764 1633 
Q 3022 1394 3022 966 
Q 3022 478 2636 193 
Q 2250 -91 1575 -91 
Q 1294 -91 989 -36 
Q 684 19 347 128 
L 347 722 
Q 666 556 975 473 
Q 1284 391 1588 391 
Q 1994 391 2212 530 
Q 2431 669 2431 922 
Q 2431 1156 2273 1281 
Q 2116 1406 1581 1522 
L 1381 1569 
Q 847 1681 609 1914 
Q 372 2147 372 2553 
Q 372 3047 722 3315 
Q 1072 3584 1716 3584 
Q 2034 3584 2315 3537 
Q 2597 3491 2834 3397 
z
" transform="scale(0.015625)"/>
       <path id="DejaVuSans-65" d="M 3597 1894 
L 3597 1613 
L 953 1613 
Q 991 1019 1311 708 
Q 1631 397 2203 397 
Q 2534 397 2845 478 
Q 3156 559 3463 722 
L 3463 178 
Q 3153 47 2828 -22 
Q 2503 -91 2169 -91 
Q 1331 -91 842 396 
Q 353 884 353 1716 
Q 353 2575 817 3079 
Q 1281 3584 2069 3584 
Q 2775 3584 3186 3129 
Q 3597 2675 3597 1894 
z
M 3022 2063 
Q 3016 2534 2758 2815 
Q 2500 3097 2075 3097 
Q 1594 3097 1305 2825 
Q 1016 2553 972 2059 
L 3022 2063 
z
" transform="scale(0.015625)"/>
       <path id="DejaVuSans-63" d="M 3122 3366 
L 3122 2828 
Q 2878 2963 2633 3030 
Q 2388 3097 2138 3097 
Q 1578 3097 1268 2742 
Q 959 2388 959 1747 
Q 959 1106 1268 751 
Q 1578 397 2138 397 
Q 2388 397 2633 464 
Q 2878 531 3122 666 
L 3122 134 
Q 2881 22 2623 -34 
Q 2366 -91 2075 -91 
Q 1284 -91 818 406 
Q 353 903 353 1747 
Q 353 2603 823 3093 
Q 1294 3584 2113 3584 
Q 2378 3584 2631 3529 
Q 2884 3475 3122 3366 
z
" transform="scale(0.015625)"/>
       <path id="DejaVuSans-6f" d="M 1959 3097 
Q 1497 3097 1228 2736 
Q 959 2375 959 1747 
Q 959 1119 1226 758 
Q 1494 397 1959 397 
Q 2419 397 2687 759 
Q 2956 1122 2956 1747 
Q 2956 2369 2687 2733 
Q 2419 3097 1959 3097 
z
M 1959 3584 
Q 2709 3584 3137 3096 
Q 3566 2609 3566 1747 
Q 3566 888 3137 398 
Q 2709 -91 1959 -91 
Q 1206 -91 779 398 
Q 353 888 353 1747 
Q 353 2609 779 3096 
Q 1206 3584 1959 3584 
z
" transform="scale(0.015625)"/>
       <path id="DejaVuSans-6e" d="M 3513 2113 
L 3513 0 
L 2938 0 
L 2938 2094 
Q 2938 2591 2744 2837 
Q 2550 3084 2163 3084 
Q 1697 3084 1428 2787 
Q 1159 2491 1159 1978 
L 1159 0 
L 581 0 
L 581 3500 
L 1159 3500 
L 1159 2956 
Q 1366 3272 1645 3428 
Q 1925 3584 2291 3584 
Q 2894 3584 3203 3211 
Q 3513 2838 3513 2113 
z
" transform="scale(0.015625)"/>
       <path id="DejaVuSans-64" d="M 2906 2969 
L 2906 4863 
L 3481 4863 
L 3481 0 
L 2906 0 
L 2906 525 
Q 2725 213 2448 61 
Q 2172 -91 1784 -91 
Q 1150 -91 751 415 
Q 353 922 353 1747 
Q 353 2572 751 3078 
Q 1150 3584 1784 3584 
Q 2172 3584 2448 3432 
Q 2725 3281 2906 2969 
z
M 947 1747 
Q 947 1113 1208 752 
Q 1469 391 1925 391 
Q 2381 391 2643 752 
Q 2906 1113 2906 1747 
Q 2906 2381 2643 2742 
Q 2381 3103 1925 3103 
Q 1469 3103 1208 2742 
Q 947 2381 947 1747 
z
" transform="scale(0.015625)"/>
      </defs>
      <use xlink:href="#DejaVuSans-73"/>
      <use xlink:href="#DejaVuSans-65" x="52.099609"/>
      <use xlink:href="#DejaVuSans-63" x="113.623047"/>
      <use xlink:href="#DejaVuSans-6f" x="168.603516"/>
      <use xlink:href="#DejaVuSans-6e" x="229.785156"/>
      <use xlink:href="#DejaVuSans-64" x="293.164062"/>
      <use xlink:href="#DejaVuSans-73" x="356.640625"/>
     </g>
    </g>
   </g>
   <g id="matplotlib.axis_2">
    <g id="ytick_1">
     <g id="line2d_6">
      <defs>
       <path id="m114bbcbeae" d="M 0 0 
L -3.5 0 
" style="stroke: #000000; stroke-width: 0.8"/>
      </defs>
      <g>
       <use xlink:href="#m114bbcbeae" x="46.55" y="308.813117" style="stroke: #000000; stroke-width: 0.8"/>
      </g>
     </g>
     <g id="text_7">
      <!-- 1 -->
      <g transform="translate(24.807812 312.612336)scale(0.1 -0.1)">
       <defs>
        <path id="DejaVuSans-2212" d="M 678 2272 
L 4684 2272 
L 4684 1741 
L 678 1741 
L 678 2272 
z
" transform="scale(0.015625)"/>
        <path id="DejaVuSans-31" d="M 794 531 
L 1825 531 
L 1825 4091 
L 703 3866 
L 703 4441 
L 1819 4666 
L 2450 4666 
L 2450 531 
L 3481 531 
L 3481 0 
L 794 0 
L 794 531 
z
" transform="scale(0.015625)"/>
       </defs>
       <use xlink:href="#DejaVuSans-2212"/>
       <use xlink:href="#DejaVuSans-31" x="83.789062"/>
      </g>
     </g>
    </g>
    <g id="ytick_2">
     <g id="line2d_7">
      <g>
       <use xlink:href="#m114bbcbeae" x="46.55" y="258.179105" style="stroke: #000000; stroke-width: 0.8"/>
      </g>
     </g>
     <g id="text_8">
      <!-- 0 -->
      <g transform="translate(33.1875 261.978324)scale(0.1 -0.1)">
       <use xlink:href="#DejaVuSans-30"/>
      </g>
     </g>
    </g>
    <g id="ytick_3">
     <g id="line2d_8">
      <g>
       <use xlink:href="#m114bbcbeae" x="46.55" y="207.545093" style="stroke: #000000; stroke-width: 0.8"/>
      </g>
     </g>
     <g id="text_9">
      <!-- 1 -->
      <g transform="translate(33.1875 211.344312)scale(0.1 -0.1)">
       <use xlink:href="#DejaVuSans-31"/>
      </g>
     </g>
    </g>
    <g id="ytick_4">
     <g id="line2d_9">
      <g>
       <use xlink:href="#m114bbcbeae" x="46.55" y="156.911081" style="stroke: #000000; stroke-width: 0.8"/>
      </g>
     </g>
     <g id="text_10">
      <!-- 2 -->
      <g transform="translate(33.1875 160.7103)scale(0.1 -0.1)">
       <use xlink:href="#DejaVuSans-32"/>
      </g>
     </g>
    </g>
    <g id="ytick_5">
     <g id="line2d_10">
      <g>
       <use xlink:href="#m114bbcbeae" x="46.55" y="106.277069" style="stroke: #000000; stroke-width: 0.8"/>
      </g>
     </g>
     <g id="text_11">
      <!-- 3 -->
      <g transform="translate(33.1875 110.076287)scale(0.1 -0.1)">
       <defs>
        <path id="DejaVuSans-33" d="M 2597 2516 
Q 3050 2419 3304 2112 
Q 3559 1806 3559 1356 
Q 3559 666 3084 287 
Q 2609 -91 1734 -91 
Q 1441 -91 1130 -33 
Q 819 25 488 141 
L 488 750 
Q 750 597 1062 519 
Q 1375 441 1716 441 
Q 2309 441 2620 675 
Q 2931 909 2931 1356 
Q 2931 1769 2642 2001 
Q 2353 2234 1838 2234 
L 1294 2234 
L 1294 2753 
L 1863 2753 
Q 2328 2753 2575 2939 
Q 2822 3125 2822 3475 
Q 2822 3834 2567 4026 
Q 2313 4219 1838 4219 
Q 1578 4219 1281 4162 
Q 984 4106 628 3988 
L 628 4550 
Q 988 4650 1302 4700 
Q 1616 4750 1894 4750 
Q 2613 4750 3031 4423 
Q 3450 4097 3450 3541 
Q 3450 3153 3228 2886 
Q 3006 2619 2597 2516 
z
" transform="scale(0.015625)"/>
       </defs>
       <use xlink:href="#DejaVuSans-33"/>
      </g>
     </g>
    </g>
    <g id="text_12">
     <!-- V -->
     <g transform="translate(18.728125 201.322125)rotate(-90)scale(0.1 -0.1)">
      <defs>
       <path id="DejaVuSans-b5" d="M 544 -1331 
L 544 3500 
L 1119 3500 
L 1119 1325 
Q 1119 872 1334 640 
Q 1550 409 1972 409 
Q 2434 409 2667 671 
Q 2900 934 2900 1459 
L 2900 3500 
L 3475 3500 
L 3475 806 
Q 3475 619 3529 530 
Q 3584 441 3700 441 
Q 3728 441 3778 458 
Q 3828 475 3916 513 
L 3916 50 
Q 3788 -22 3673 -56 
Q 3559 -91 3450 -91 
Q 3234 -91 3106 31 
Q 2978 153 2931 403 
Q 2775 156 2548 32 
Q 2322 -91 2016 -91 
Q 1697 -91 1473 31 
Q 1250 153 1119 397 
L 1119 -1331 
L 544 -1331 
z
" transform="scale(0.015625)"/>
       <path id="DejaVuSans-56" d="M 1831 0 
L 50 4666 
L 709 4666 
L 2188 738 
L 3669 4666 
L 4325 4666 
L 2547 0 
L 1831 0 
z
" transform="scale(0.015625)"/>
      </defs>
      <use xlink:href="#DejaVuSans-b5"/>
      <use xlink:href="#DejaVuSans-56" x="63.623047"/>
     </g>
    </g>
   </g>
   <g id="line2d_11">
    <path d="M 46.55 264.796836 
L 48.142475 265.190517 
L 50.531188 265.469948 
L 51.327425 265.424412 
L 52.123663 265.126484 
L 52.9199 264.45173 
L 53.716138 263.350392 
L 56.10485 258.90134 
L 56.901088 257.98534 
L 57.697325 257.783289 
L 58.493563 258.327401 
L 59.2898 259.431821 
L 60.086038 260.73305 
L 60.882275 261.791661 
L 61.678513 262.222194 
L 62.47475 261.807472 
L 63.270988 260.559324 
L 64.863463 256.624822 
L 65.659701 254.716843 
L 66.455938 253.315216 
L 67.252176 252.605796 
L 68.048413 252.608171 
L 68.844651 253.202036 
L 70.437126 255.312315 
L 71.233363 256.380534 
L 72.029601 257.217697 
L 72.825838 257.715263 
L 73.622076 257.830393 
L 74.418313 257.589399 
L 76.010788 256.470438 
L 76.807026 255.914893 
L 77.603263 255.571433 
L 78.399501 255.519685 
L 79.195739 255.731913 
L 80.788214 256.325192 
L 81.584451 256.284079 
L 82.380689 255.811369 
L 83.176926 254.90643 
L 84.769401 252.5079 
L 85.565639 251.571851 
L 86.361876 251.151402 
L 87.158114 251.361561 
L 87.954351 252.161339 
L 91.139301 256.878109 
L 91.935539 257.295274 
L 92.731776 257.178582 
L 93.528014 256.555079 
L 94.324251 255.513098 
L 96.712964 251.449277 
L 97.509202 250.456994 
L 98.305439 249.970472 
L 99.101677 250.089401 
L 99.897914 250.793161 
L 101.490389 253.249645 
L 102.286627 254.460427 
L 103.082864 255.317118 
L 103.879102 255.685822 
L 104.675339 255.574798 
L 105.471577 255.113558 
L 107.860289 253.311182 
L 109.452764 252.182557 
L 110.249002 251.337056 
L 111.04524 250.169239 
L 114.23019 244.513775 
L 115.026427 244.005973 
L 115.822665 244.192934 
L 116.618902 245.031885 
L 117.41514 246.357545 
L 119.007615 249.489169 
L 119.803852 250.817086 
L 120.60009 251.767217 
L 121.396327 252.287526 
L 122.192565 252.422463 
L 124.581277 252.141592 
L 125.377515 252.557295 
L 126.173752 253.537667 
L 126.96999 255.122877 
L 128.562465 259.526232 
L 129.358703 261.745006 
L 130.15494 263.506112 
L 130.951178 264.547358 
L 131.747415 264.777149 
L 132.543653 264.304253 
L 134.932365 261.674528 
L 135.728603 261.31898 
L 136.52484 261.329932 
L 138.117315 261.578991 
L 138.913553 261.285461 
L 139.70979 260.51146 
L 140.506028 259.318018 
L 142.098503 256.604283 
L 142.89474 255.606126 
L 143.690978 255.022642 
L 146.079691 254.240288 
L 146.875928 253.426144 
L 147.672166 252.065673 
L 149.264641 248.219029 
L 150.060878 246.312239 
L 150.857116 244.837782 
L 151.653353 244.000819 
L 152.449591 243.856633 
L 153.245828 244.317312 
L 154.042066 245.196326 
L 155.634541 247.309006 
L 156.430778 248.137168 
L 157.227016 248.603216 
L 158.023253 248.595612 
L 158.819491 248.045486 
L 159.615729 246.948067 
L 160.411966 245.392772 
L 162.004441 241.824824 
L 162.800679 240.47083 
L 163.596916 239.830737 
L 164.393154 240.071196 
L 165.189391 241.143979 
L 167.578104 245.926266 
L 168.374341 246.606287 
L 169.170579 246.425616 
L 169.966816 245.509074 
L 171.559291 242.920854 
L 172.355529 242.044053 
L 173.151766 241.737384 
L 173.948004 241.924446 
L 174.744241 242.322618 
L 175.540479 242.559674 
L 176.336717 242.320512 
L 177.132954 241.467839 
L 177.929192 240.09185 
L 179.521667 236.972009 
L 180.317904 235.904045 
L 181.114142 235.427432 
L 181.910379 235.505342 
L 184.299092 236.795087 
L 185.095329 236.834285 
L 185.891567 236.567153 
L 188.280279 235.212729 
L 189.076517 234.989346 
L 190.668992 234.946286 
L 192.261467 234.888514 
L 193.057705 234.667927 
L 193.853942 234.257434 
L 194.65018 233.613649 
L 195.446417 232.681661 
L 196.242655 231.402601 
L 197.038892 229.740418 
L 198.631367 225.433807 
L 200.223842 220.852463 
L 201.02008 218.97332 
L 201.816317 217.550503 
L 202.612555 216.57617 
L 205.001267 214.708051 
L 205.797505 213.779918 
L 206.593742 212.547583 
L 208.982455 208.283533 
L 209.778693 207.284684 
L 210.57493 206.680302 
L 211.371168 206.428387 
L 213.75988 206.275001 
L 214.556118 205.888557 
L 215.352355 205.189956 
L 216.148593 204.19566 
L 217.741068 201.610242 
L 220.12978 197.503824 
L 221.722255 195.208791 
L 223.31473 193.346683 
L 224.907206 191.827709 
L 226.499681 190.667541 
L 227.295918 190.299274 
L 228.092156 190.134224 
L 228.888393 190.203529 
L 229.684631 190.500021 
L 232.073343 191.892025 
L 232.869581 192.055822 
L 233.665818 191.857937 
L 234.462056 191.265533 
L 235.258293 190.340685 
L 236.850768 188.12545 
L 237.647006 187.209818 
L 238.443243 186.595513 
L 239.239481 186.282727 
L 240.831956 185.967657 
L 241.628194 185.478723 
L 242.424431 184.447776 
L 243.220669 182.740409 
L 244.016906 180.362351 
L 245.609381 174.294387 
L 247.201856 168.300061 
L 247.998094 165.896931 
L 248.794331 163.976722 
L 250.386806 161.111412 
L 251.183044 159.754707 
L 251.979281 158.170875 
L 252.775519 156.222732 
L 253.571756 153.862355 
L 255.164231 148.146569 
L 257.552944 139.334517 
L 258.349182 136.978968 
L 259.145419 135.082901 
L 259.941657 133.645956 
L 260.737894 132.584128 
L 262.330369 130.89587 
L 263.126607 129.849237 
L 263.922844 128.438482 
L 264.719082 126.604365 
L 266.311557 122.023026 
L 267.904032 117.586087 
L 268.700269 115.892603 
L 269.496507 114.610814 
L 272.681457 110.633966 
L 274.273932 107.507015 
L 276.662645 102.497485 
L 278.25512 99.961432 
L 279.847595 98.06067 
L 280.643832 97.378359 
L 281.44007 96.960969 
L 282.236307 96.86745 
L 283.032545 97.093061 
L 285.421257 98.324146 
L 286.217495 98.280097 
L 287.013732 97.838216 
L 289.402445 95.631418 
L 290.198683 95.369206 
L 290.99492 95.547606 
L 293.383633 97.148681 
L 294.17987 97.300299 
L 294.976108 97.133446 
L 295.772345 96.829925 
L 296.568583 96.692983 
L 297.36482 97.03253 
L 298.161058 98.041073 
L 298.957295 99.709337 
L 301.346008 105.835963 
L 302.142245 107.057771 
L 302.938483 107.546156 
L 303.73472 107.401551 
L 306.123433 105.927868 
L 306.919671 105.883974 
L 307.715908 106.142345 
L 309.308383 106.8907 
L 310.104621 106.990722 
L 310.900858 106.760664 
L 311.697096 106.236196 
L 313.289571 104.963937 
L 314.085808 104.664139 
L 314.882046 104.855805 
L 315.678283 105.650739 
L 316.474521 107.064256 
L 317.270758 109.017138 
L 318.863233 113.878727 
L 320.455709 118.715762 
L 322.048184 122.508213 
L 323.640659 125.290123 
L 325.233134 127.506676 
L 326.029371 128.3614 
L 326.825609 128.897512 
L 327.621846 128.977784 
L 328.418084 128.518621 
L 329.214321 127.546866 
L 331.603034 123.692403 
L 332.399271 123.10547 
L 333.195509 123.2473 
L 333.991746 124.130304 
L 334.787984 125.60231 
L 337.176697 130.780398 
L 337.972934 131.965632 
L 338.769172 132.739889 
L 339.565409 133.188492 
L 341.954122 134.071553 
L 342.750359 134.597219 
L 345.935309 137.343613 
L 346.731547 137.573832 
L 347.527784 137.372527 
L 348.324022 136.706465 
L 349.120259 135.643787 
L 350.712734 133.105668 
L 351.508972 132.15273 
L 352.30521 131.70514 
L 353.101447 131.827778 
L 353.897685 132.40598 
L 354.693922 133.161762 
L 355.49016 133.727645 
L 356.286397 133.757613 
L 357.082635 133.03769 
L 357.878872 131.555479 
L 359.471347 127.204689 
L 360.267585 125.01723 
L 361.063822 123.208847 
L 361.86006 121.895812 
L 362.656297 121.03934 
L 363.452535 120.50575 
L 364.248772 120.158093 
L 365.04501 119.935195 
L 365.841247 119.880605 
L 366.637485 120.107814 
L 367.433722 120.718225 
L 368.22996 121.711034 
L 369.822435 124.076401 
L 370.618673 124.793843 
L 371.41491 124.789241 
L 372.211148 123.948026 
L 373.007385 122.391765 
L 374.59986 118.572143 
L 375.396098 117.157435 
L 376.192335 116.454084 
L 376.988573 116.475948 
L 377.78481 117.018758 
L 378.581048 117.746897 
L 379.377285 118.31706 
L 380.173523 118.491223 
L 380.96976 118.199663 
L 381.765998 117.537258 
L 383.358473 115.915116 
L 384.15471 115.333012 
L 384.950948 115.021049 
L 385.747186 114.952395 
L 387.339661 115.212606 
L 389.728373 115.663082 
L 391.320848 115.803486 
L 392.913323 115.677746 
L 394.505798 115.220919 
L 396.894511 114.322469 
L 397.690748 113.922222 
L 398.486986 113.325689 
L 399.283223 112.417974 
L 400.079461 111.129973 
L 401.671936 107.613708 
L 403.264411 104.145109 
L 404.060649 103.044178 
L 404.856886 102.572418 
L 405.653124 102.718542 
L 406.449361 103.33325 
L 408.041836 104.971422 
L 408.838074 105.511959 
L 409.634311 105.685002 
L 410.430549 105.508288 
L 412.023024 104.691126 
L 412.819261 104.456811 
L 413.615499 104.578689 
L 413.615499 104.578689 
" clip-path="url(#p7e0441801b)" style="fill: none; stroke: #e41a1c; stroke-width: 1.5; stroke-linecap: square"/>
   </g>
   <g id="line2d_12">
    <path d="M 46.55 250.940244 
L 47.346238 250.833836 
L 48.142475 250.861555 
L 48.938713 251.118494 
L 49.73495 251.627052 
L 52.9199 254.40943 
L 53.716138 254.804757 
L 57.697325 256.138489 
L 59.2898 256.829509 
L 60.086038 256.989545 
L 60.882275 256.969015 
L 62.47475 256.521764 
L 64.067226 256.045191 
L 64.863463 255.955595 
L 66.455938 256.120834 
L 68.048413 256.607242 
L 69.640888 257.3359 
L 72.029601 258.830596 
L 75.214551 261.102805 
L 76.807026 262.731901 
L 78.399501 264.620722 
L 79.195739 265.367947 
L 79.991976 265.783292 
L 80.788214 265.77484 
L 81.584451 265.350022 
L 83.973164 263.126334 
L 84.769401 262.773126 
L 85.565639 262.848558 
L 86.361876 263.33522 
L 87.954351 265.008008 
L 88.750589 265.845062 
L 89.546826 266.502551 
L 90.343064 266.932878 
L 91.139301 267.156458 
L 92.731776 267.224472 
L 94.324251 267.072558 
L 95.916727 266.670119 
L 97.509202 265.918688 
L 100.694152 264.174876 
L 102.286627 263.556158 
L 103.879102 263.229663 
L 105.471577 263.327232 
L 107.860289 263.807369 
L 108.656527 263.748291 
L 109.452764 263.470025 
L 110.249002 262.975798 
L 113.433952 260.467847 
L 114.23019 260.160541 
L 115.026427 260.061298 
L 115.822665 260.15805 
L 116.618902 260.437518 
L 117.41514 260.900989 
L 118.211377 261.564117 
L 119.007615 262.439838 
L 120.60009 264.718302 
L 122.192565 267.03254 
L 122.988802 267.855837 
L 123.78504 268.32513 
L 124.581277 268.439627 
L 125.377515 268.287941 
L 126.96999 267.81275 
L 127.766228 267.792516 
L 128.562465 268.023479 
L 129.358703 268.483694 
L 131.747415 270.249149 
L 132.543653 270.638104 
L 133.33989 270.858079 
L 134.136128 270.929358 
L 135.728603 270.767584 
L 137.321078 270.346267 
L 141.302265 268.956815 
L 142.89474 268.777116 
L 146.079691 268.728198 
L 146.875928 268.830802 
L 147.672166 269.075751 
L 148.468403 269.486456 
L 150.857116 271.12523 
L 151.653353 271.418734 
L 152.449591 271.421431 
L 153.245828 271.134532 
L 155.634541 269.717713 
L 156.430778 269.59233 
L 157.227016 269.808893 
L 158.023253 270.344616 
L 161.208204 273.29402 
L 162.004441 273.697484 
L 163.596916 274.070342 
L 165.189391 274.430281 
L 165.985629 274.806183 
L 166.781866 275.372783 
L 167.578104 276.139745 
L 169.170579 278.195844 
L 173.151766 284.110439 
L 179.521667 291.924272 
L 180.317904 292.509784 
L 181.114142 292.766558 
L 181.910379 292.68919 
L 182.706617 292.341839 
L 185.095329 290.981305 
L 185.891567 290.838269 
L 186.687804 290.941597 
L 188.280279 291.672485 
L 189.872754 292.43682 
L 190.668992 292.611769 
L 191.46523 292.59805 
L 192.261467 292.402288 
L 193.853942 291.586831 
L 196.242655 289.818116 
L 197.83513 288.639673 
L 199.427605 287.76283 
L 201.02008 287.249598 
L 202.612555 286.761237 
L 203.408792 286.365853 
L 204.20503 285.82014 
L 208.186218 282.494786 
L 208.982455 282.167811 
L 212.167405 281.368853 
L 214.556118 280.338052 
L 215.352355 280.175124 
L 216.148593 280.222232 
L 216.94483 280.482101 
L 220.926018 282.514337 
L 221.722255 282.839022 
L 222.518493 283.300139 
L 223.31473 284.014079 
L 224.110968 285.047723 
L 225.703443 287.945957 
L 227.295918 291.117308 
L 228.092156 292.465542 
L 228.888393 293.573076 
L 230.480868 295.222683 
L 233.665818 297.997522 
L 234.462056 298.567834 
L 235.258293 298.994637 
L 236.850768 299.456043 
L 238.443243 299.836191 
L 240.035719 300.561137 
L 241.628194 301.333272 
L 242.424431 301.527518 
L 243.220669 301.535123 
L 244.813144 301.141477 
L 247.998094 300.124572 
L 248.794331 299.609271 
L 249.590569 298.788695 
L 250.386806 297.634339 
L 252.775519 293.310426 
L 253.571756 292.227775 
L 254.367994 291.573112 
L 255.164231 291.344409 
L 255.960469 291.425856 
L 257.552944 291.756566 
L 258.349182 291.661522 
L 259.145419 291.284708 
L 259.941657 290.653399 
L 261.534132 288.951745 
L 263.126607 287.014134 
L 264.719082 284.670397 
L 267.107794 280.46202 
L 267.904032 279.361313 
L 268.700269 278.675853 
L 269.496507 278.464378 
L 270.292744 278.662781 
L 271.88522 279.515209 
L 272.681457 279.697586 
L 273.477695 279.492536 
L 274.273932 278.879633 
L 276.662645 276.084602 
L 277.458882 275.516247 
L 278.25512 275.338928 
L 279.051357 275.520649 
L 281.44007 276.769951 
L 282.236307 276.898438 
L 283.032545 276.744889 
L 283.828782 276.333433 
L 287.013732 274.046825 
L 287.80997 273.840058 
L 288.606208 273.909687 
L 289.402445 274.25066 
L 290.99492 275.48449 
L 292.587395 276.67626 
L 293.383633 276.965601 
L 294.17987 276.982254 
L 294.976108 276.766368 
L 296.568583 276.109484 
L 297.36482 275.955497 
L 298.161058 276.053722 
L 298.957295 276.413865 
L 302.142245 278.500184 
L 302.938483 278.669443 
L 304.530958 278.592573 
L 306.123433 278.572036 
L 307.715908 278.972147 
L 309.308383 279.44853 
L 310.104621 279.550613 
L 310.900858 279.522858 
L 312.493333 279.152831 
L 317.270758 277.65023 
L 318.863233 277.583864 
L 320.455709 277.969524 
L 323.640659 279.304331 
L 325.233134 280.12179 
L 326.825609 281.277643 
L 328.418084 282.465092 
L 329.214321 282.82051 
L 330.010559 282.895774 
L 330.806796 282.667241 
L 331.603034 282.185404 
L 333.195509 280.950241 
L 333.991746 280.48017 
L 334.787984 280.245932 
L 335.584221 280.274817 
L 336.380459 280.531894 
L 339.565409 282.17168 
L 340.361647 282.354975 
L 341.157884 282.352034 
L 341.954122 282.138963 
L 342.750359 281.707513 
L 343.546597 281.074877 
L 346.731547 278.04188 
L 347.527784 277.658219 
L 348.324022 277.531209 
L 349.916497 277.801359 
L 351.508972 278.072146 
L 353.101447 277.880752 
L 354.693922 277.601324 
L 355.49016 277.620123 
L 357.082635 277.990896 
L 357.878872 278.183114 
L 358.67511 278.239494 
L 359.471347 278.089217 
L 360.267585 277.726512 
L 362.656297 276.265929 
L 363.452535 276.086222 
L 364.248772 276.216349 
L 365.04501 276.663854 
L 365.841247 277.376693 
L 369.026198 280.926683 
L 369.822435 281.579289 
L 371.41491 282.452666 
L 373.803623 283.38616 
L 375.396098 284.397685 
L 376.988573 285.830575 
L 378.581048 287.297496 
L 379.377285 287.886151 
L 380.173523 288.323955 
L 380.96976 288.603336 
L 381.765998 288.739845 
L 383.358473 288.692128 
L 384.950948 288.326754 
L 386.543423 287.608881 
L 388.135898 286.495838 
L 390.524611 284.589551 
L 391.320848 284.119584 
L 392.117086 283.826843 
L 392.913323 283.741676 
L 393.709561 283.864183 
L 395.302036 284.563167 
L 396.894511 285.331947 
L 397.690748 285.530399 
L 398.486986 285.544646 
L 400.079461 285.132416 
L 401.671936 284.693876 
L 402.468174 284.684932 
L 403.264411 284.861432 
L 406.449361 286.210288 
L 407.245599 286.327918 
L 408.838074 286.238525 
L 410.430549 286.178183 
L 411.226786 286.313852 
L 412.023024 286.585848 
L 413.615499 287.45624 
L 413.615499 287.45624 
" clip-path="url(#p7e0441801b)" style="fill: none; stroke: #377eb8; stroke-width: 1.5; stroke-linecap: square"/>
   </g>
   <g id="line2d_13">
    <path d="M 87.158114 318.2 
L 87.158114 71.241125 
" clip-path="url(#p7e0441801b)" style="fill: none; stroke: #000000; stroke-width: 0.5; stroke-linecap: square"/>
   </g>
   <g id="line2d_14">
    <path d="M 46.55 258.179105 
L 413.615499 258.179105 
" clip-path="url(#p7e0441801b)" style="fill: none; stroke: #000000; stroke-width: 0.5; stroke-linecap: square"/>
   </g>
   <g id="patch_4">
    <path d="M 46.55 318.2 
L 46.55 71.241125 
" style="fill: none; stroke: #000000; stroke-width: 0.8; stroke-linejoin: miter; stroke-linecap: square"/>
   </g>
   <g id="patch_5">
    <path d="M 413.615499 318.2 
L 413.615499 71.241125 
" style="fill: none; stroke: #000000; stroke-width: 0.8; stroke-linejoin: miter; stroke-linecap: square"/>
   </g>
   <g id="patch_6">
    <path d="M 46.55 318.2 
L 413.615499 318.2 
" style="fill: none; stroke: #000000; stroke-width: 0.8; stroke-linejoin: miter; stroke-linecap: square"/>
   </g>
   <g id="patch_7">
    <path d="M 46.55 71.241125 
L 413.615499 71.241125 
" style="fill: none; stroke: #000000; stroke-width: 0.8; stroke-linejoin: miter; stroke-linecap: square"/>
   </g>
   <g id="legend_1">
    <g id="patch_8">
     <path d="M 93.492906 48.044893 
L 366.672593 48.044893 
Q 368.672593 48.044893 368.672593 46.044893 
L 368.672593 17.410517 
Q 368.672593 15.410517 366.672593 15.410517 
L 93.492906 15.410517 
Q 91.492906 15.410517 91.492906 17.410517 
L 91.492906 46.044893 
Q 91.492906 48.044893 93.492906 48.044893 
z
" style="fill: #ffffff; opacity: 0.8; stroke: #cccccc; stroke-linejoin: miter"/>
    </g>
    <g id="text_13">
     <!-- Average of Session 6tac_all_no_legs at Cz -->
     <g transform="translate(125.798374 27.008955)scale(0.1 -0.1)">
      <defs>
       <path id="DejaVuSans-41" d="M 2188 4044 
L 1331 1722 
L 3047 1722 
L 2188 4044 
z
M 1831 4666 
L 2547 4666 
L 4325 0 
L 3669 0 
L 3244 1197 
L 1141 1197 
L 716 0 
L 50 0 
L 1831 4666 
z
" transform="scale(0.015625)"/>
       <path id="DejaVuSans-76" d="M 191 3500 
L 800 3500 
L 1894 563 
L 2988 3500 
L 3597 3500 
L 2284 0 
L 1503 0 
L 191 3500 
z
" transform="scale(0.015625)"/>
       <path id="DejaVuSans-72" d="M 2631 2963 
Q 2534 3019 2420 3045 
Q 2306 3072 2169 3072 
Q 1681 3072 1420 2755 
Q 1159 2438 1159 1844 
L 1159 0 
L 581 0 
L 581 3500 
L 1159 3500 
L 1159 2956 
Q 1341 3275 1631 3429 
Q 1922 3584 2338 3584 
Q 2397 3584 2469 3576 
Q 2541 3569 2628 3553 
L 2631 2963 
z
" transform="scale(0.015625)"/>
       <path id="DejaVuSans-61" d="M 2194 1759 
Q 1497 1759 1228 1600 
Q 959 1441 959 1056 
Q 959 750 1161 570 
Q 1363 391 1709 391 
Q 2188 391 2477 730 
Q 2766 1069 2766 1631 
L 2766 1759 
L 2194 1759 
z
M 3341 1997 
L 3341 0 
L 2766 0 
L 2766 531 
Q 2569 213 2275 61 
Q 1981 -91 1556 -91 
Q 1019 -91 701 211 
Q 384 513 384 1019 
Q 384 1609 779 1909 
Q 1175 2209 1959 2209 
L 2766 2209 
L 2766 2266 
Q 2766 2663 2505 2880 
Q 2244 3097 1772 3097 
Q 1472 3097 1187 3025 
Q 903 2953 641 2809 
L 641 3341 
Q 956 3463 1253 3523 
Q 1550 3584 1831 3584 
Q 2591 3584 2966 3190 
Q 3341 2797 3341 1997 
z
" transform="scale(0.015625)"/>
       <path id="DejaVuSans-67" d="M 2906 1791 
Q 2906 2416 2648 2759 
Q 2391 3103 1925 3103 
Q 1463 3103 1205 2759 
Q 947 2416 947 1791 
Q 947 1169 1205 825 
Q 1463 481 1925 481 
Q 2391 481 2648 825 
Q 2906 1169 2906 1791 
z
M 3481 434 
Q 3481 -459 3084 -895 
Q 2688 -1331 1869 -1331 
Q 1566 -1331 1297 -1286 
Q 1028 -1241 775 -1147 
L 775 -588 
Q 1028 -725 1275 -790 
Q 1522 -856 1778 -856 
Q 2344 -856 2625 -561 
Q 2906 -266 2906 331 
L 2906 616 
Q 2728 306 2450 153 
Q 2172 0 1784 0 
Q 1141 0 747 490 
Q 353 981 353 1791 
Q 353 2603 747 3093 
Q 1141 3584 1784 3584 
Q 2172 3584 2450 3431 
Q 2728 3278 2906 2969 
L 2906 3500 
L 3481 3500 
L 3481 434 
z
" transform="scale(0.015625)"/>
       <path id="DejaVuSans-20" transform="scale(0.015625)"/>
       <path id="DejaVuSans-66" d="M 2375 4863 
L 2375 4384 
L 1825 4384 
Q 1516 4384 1395 4259 
Q 1275 4134 1275 3809 
L 1275 3500 
L 2222 3500 
L 2222 3053 
L 1275 3053 
L 1275 0 
L 697 0 
L 697 3053 
L 147 3053 
L 147 3500 
L 697 3500 
L 697 3744 
Q 697 4328 969 4595 
Q 1241 4863 1831 4863 
L 2375 4863 
z
" transform="scale(0.015625)"/>
       <path id="DejaVuSans-53" d="M 3425 4513 
L 3425 3897 
Q 3066 4069 2747 4153 
Q 2428 4238 2131 4238 
Q 1616 4238 1336 4038 
Q 1056 3838 1056 3469 
Q 1056 3159 1242 3001 
Q 1428 2844 1947 2747 
L 2328 2669 
Q 3034 2534 3370 2195 
Q 3706 1856 3706 1288 
Q 3706 609 3251 259 
Q 2797 -91 1919 -91 
Q 1588 -91 1214 -16 
Q 841 59 441 206 
L 441 856 
Q 825 641 1194 531 
Q 1563 422 1919 422 
Q 2459 422 2753 634 
Q 3047 847 3047 1241 
Q 3047 1584 2836 1778 
Q 2625 1972 2144 2069 
L 1759 2144 
Q 1053 2284 737 2584 
Q 422 2884 422 3419 
Q 422 4038 858 4394 
Q 1294 4750 2059 4750 
Q 2388 4750 2728 4690 
Q 3069 4631 3425 4513 
z
" transform="scale(0.015625)"/>
       <path id="DejaVuSans-69" d="M 603 3500 
L 1178 3500 
L 1178 0 
L 603 0 
L 603 3500 
z
M 603 4863 
L 1178 4863 
L 1178 4134 
L 603 4134 
L 603 4863 
z
" transform="scale(0.015625)"/>
       <path id="DejaVuSans-74" d="M 1172 4494 
L 1172 3500 
L 2356 3500 
L 2356 3053 
L 1172 3053 
L 1172 1153 
Q 1172 725 1289 603 
Q 1406 481 1766 481 
L 2356 481 
L 2356 0 
L 1766 0 
Q 1100 0 847 248 
Q 594 497 594 1153 
L 594 3053 
L 172 3053 
L 172 3500 
L 594 3500 
L 594 4494 
L 1172 4494 
z
" transform="scale(0.015625)"/>
       <path id="DejaVuSans-5f" d="M 3263 -1063 
L 3263 -1509 
L -63 -1509 
L -63 -1063 
L 3263 -1063 
z
" transform="scale(0.015625)"/>
       <path id="DejaVuSans-6c" d="M 603 4863 
L 1178 4863 
L 1178 0 
L 603 0 
L 603 4863 
z
" transform="scale(0.015625)"/>
       <path id="DejaVuSans-43" d="M 4122 4306 
L 4122 3641 
Q 3803 3938 3442 4084 
Q 3081 4231 2675 4231 
Q 1875 4231 1450 3742 
Q 1025 3253 1025 2328 
Q 1025 1406 1450 917 
Q 1875 428 2675 428 
Q 3081 428 3442 575 
Q 3803 722 4122 1019 
L 4122 359 
Q 3791 134 3420 21 
Q 3050 -91 2638 -91 
Q 1578 -91 968 557 
Q 359 1206 359 2328 
Q 359 3453 968 4101 
Q 1578 4750 2638 4750 
Q 3056 4750 3426 4639 
Q 3797 4528 4122 4306 
z
" transform="scale(0.015625)"/>
       <path id="DejaVuSans-7a" d="M 353 3500 
L 3084 3500 
L 3084 2975 
L 922 459 
L 3084 459 
L 3084 0 
L 275 0 
L 275 525 
L 2438 3041 
L 353 3041 
L 353 3500 
z
" transform="scale(0.015625)"/>
      </defs>
      <use xlink:href="#DejaVuSans-41"/>
      <use xlink:href="#DejaVuSans-76" x="62.533203"/>
      <use xlink:href="#DejaVuSans-65" x="121.712891"/>
      <use xlink:href="#DejaVuSans-72" x="183.236328"/>
      <use xlink:href="#DejaVuSans-61" x="224.349609"/>
      <use xlink:href="#DejaVuSans-67" x="285.628906"/>
      <use xlink:href="#DejaVuSans-65" x="349.105469"/>
      <use xlink:href="#DejaVuSans-20" x="410.628906"/>
      <use xlink:href="#DejaVuSans-6f" x="442.416016"/>
      <use xlink:href="#DejaVuSans-66" x="503.597656"/>
      <use xlink:href="#DejaVuSans-20" x="538.802734"/>
      <use xlink:href="#DejaVuSans-53" x="570.589844"/>
      <use xlink:href="#DejaVuSans-65" x="634.066406"/>
      <use xlink:href="#DejaVuSans-73" x="695.589844"/>
      <use xlink:href="#DejaVuSans-73" x="747.689453"/>
      <use xlink:href="#DejaVuSans-69" x="799.789062"/>
      <use xlink:href="#DejaVuSans-6f" x="827.572266"/>
      <use xlink:href="#DejaVuSans-6e" x="888.753906"/>
      <use xlink:href="#DejaVuSans-20" x="952.132812"/>
      <use xlink:href="#DejaVuSans-36" x="983.919922"/>
      <use xlink:href="#DejaVuSans-74" x="1047.542969"/>
      <use xlink:href="#DejaVuSans-61" x="1086.751953"/>
      <use xlink:href="#DejaVuSans-63" x="1148.03125"/>
      <use xlink:href="#DejaVuSans-5f" x="1203.011719"/>
      <use xlink:href="#DejaVuSans-61" x="1253.011719"/>
      <use xlink:href="#DejaVuSans-6c" x="1314.291016"/>
      <use xlink:href="#DejaVuSans-6c" x="1342.074219"/>
      <use xlink:href="#DejaVuSans-5f" x="1369.857422"/>
      <use xlink:href="#DejaVuSans-6e" x="1419.857422"/>
      <use xlink:href="#DejaVuSans-6f" x="1483.236328"/>
      <use xlink:href="#DejaVuSans-5f" x="1544.417969"/>
      <use xlink:href="#DejaVuSans-6c" x="1594.417969"/>
      <use xlink:href="#DejaVuSans-65" x="1622.201172"/>
      <use xlink:href="#DejaVuSans-67" x="1683.724609"/>
      <use xlink:href="#DejaVuSans-73" x="1747.201172"/>
      <use xlink:href="#DejaVuSans-20" x="1799.300781"/>
      <use xlink:href="#DejaVuSans-61" x="1831.087891"/>
      <use xlink:href="#DejaVuSans-74" x="1892.367188"/>
      <use xlink:href="#DejaVuSans-20" x="1931.576172"/>
      <use xlink:href="#DejaVuSans-43" x="1963.363281"/>
      <use xlink:href="#DejaVuSans-7a" x="2033.1875"/>
     </g>
    </g>
    <g id="line2d_15">
     <path d="M 95.492906 38.465205 
L 105.492906 38.465205 
L 115.492906 38.465205 
" style="fill: none; stroke: #e41a1c; stroke-width: 1.5; stroke-linecap: square"/>
    </g>
    <g id="text_14">
     <!-- Target (n=7025) -->
     <g transform="translate(123.492906 41.965205)scale(0.1 -0.1)">
      <defs>
       <path id="DejaVuSans-54" d="M -19 4666 
L 3928 4666 
L 3928 4134 
L 2272 4134 
L 2272 0 
L 1638 0 
L 1638 4134 
L -19 4134 
L -19 4666 
z
" transform="scale(0.015625)"/>
       <path id="DejaVuSans-28" d="M 1984 4856 
Q 1566 4138 1362 3434 
Q 1159 2731 1159 2009 
Q 1159 1288 1364 580 
Q 1569 -128 1984 -844 
L 1484 -844 
Q 1016 -109 783 600 
Q 550 1309 550 2009 
Q 550 2706 781 3412 
Q 1013 4119 1484 4856 
L 1984 4856 
z
" transform="scale(0.015625)"/>
       <path id="DejaVuSans-3d" d="M 678 2906 
L 4684 2906 
L 4684 2381 
L 678 2381 
L 678 2906 
z
M 678 1631 
L 4684 1631 
L 4684 1100 
L 678 1100 
L 678 1631 
z
" transform="scale(0.015625)"/>
       <path id="DejaVuSans-37" d="M 525 4666 
L 3525 4666 
L 3525 4397 
L 1831 0 
L 1172 0 
L 2766 4134 
L 525 4134 
L 525 4666 
z
" transform="scale(0.015625)"/>
       <path id="DejaVuSans-35" d="M 691 4666 
L 3169 4666 
L 3169 4134 
L 1269 4134 
L 1269 2991 
Q 1406 3038 1543 3061 
Q 1681 3084 1819 3084 
Q 2600 3084 3056 2656 
Q 3513 2228 3513 1497 
Q 3513 744 3044 326 
Q 2575 -91 1722 -91 
Q 1428 -91 1123 -41 
Q 819 9 494 109 
L 494 744 
Q 775 591 1075 516 
Q 1375 441 1709 441 
Q 2250 441 2565 725 
Q 2881 1009 2881 1497 
Q 2881 1984 2565 2268 
Q 2250 2553 1709 2553 
Q 1456 2553 1204 2497 
Q 953 2441 691 2322 
L 691 4666 
z
" transform="scale(0.015625)"/>
       <path id="DejaVuSans-29" d="M 513 4856 
L 1013 4856 
Q 1481 4119 1714 3412 
Q 1947 2706 1947 2009 
Q 1947 1309 1714 600 
Q 1481 -109 1013 -844 
L 513 -844 
Q 928 -128 1133 580 
Q 1338 1288 1338 2009 
Q 1338 2731 1133 3434 
Q 928 4138 513 4856 
z
" transform="scale(0.015625)"/>
      </defs>
      <use xlink:href="#DejaVuSans-54"/>
      <use xlink:href="#DejaVuSans-61" x="44.583984"/>
      <use xlink:href="#DejaVuSans-72" x="105.863281"/>
      <use xlink:href="#DejaVuSans-67" x="145.226562"/>
      <use xlink:href="#DejaVuSans-65" x="208.703125"/>
      <use xlink:href="#DejaVuSans-74" x="270.226562"/>
      <use xlink:href="#DejaVuSans-20" x="309.435547"/>
      <use xlink:href="#DejaVuSans-28" x="341.222656"/>
      <use xlink:href="#DejaVuSans-6e" x="380.236328"/>
      <use xlink:href="#DejaVuSans-3d" x="443.615234"/>
      <use xlink:href="#DejaVuSans-37" x="527.404297"/>
      <use xlink:href="#DejaVuSans-30" x="591.027344"/>
      <use xlink:href="#DejaVuSans-32" x="654.650391"/>
      <use xlink:href="#DejaVuSans-35" x="718.273438"/>
      <use xlink:href="#DejaVuSans-29" x="781.896484"/>
     </g>
    </g>
    <g id="line2d_16">
     <path d="M 225.585093 38.465205 
L 235.585093 38.465205 
L 245.585093 38.465205 
" style="fill: none; stroke: #377eb8; stroke-width: 1.5; stroke-linecap: square"/>
    </g>
    <g id="text_15">
     <!-- Non-Target (n=35267) -->
     <g transform="translate(253.585093 41.965205)scale(0.1 -0.1)">
      <defs>
       <path id="DejaVuSans-4e" d="M 628 4666 
L 1478 4666 
L 3547 763 
L 3547 4666 
L 4159 4666 
L 4159 0 
L 3309 0 
L 1241 3903 
L 1241 0 
L 628 0 
L 628 4666 
z
" transform="scale(0.015625)"/>
       <path id="DejaVuSans-2d" d="M 313 2009 
L 1997 2009 
L 1997 1497 
L 313 1497 
L 313 2009 
z
" transform="scale(0.015625)"/>
      </defs>
      <use xlink:href="#DejaVuSans-4e"/>
      <use xlink:href="#DejaVuSans-6f" x="74.804688"/>
      <use xlink:href="#DejaVuSans-6e" x="135.986328"/>
      <use xlink:href="#DejaVuSans-2d" x="199.365234"/>
      <use xlink:href="#DejaVuSans-54" x="226.324219"/>
      <use xlink:href="#DejaVuSans-61" x="270.908203"/>
      <use xlink:href="#DejaVuSans-72" x="332.1875"/>
      <use xlink:href="#DejaVuSans-67" x="371.550781"/>
      <use xlink:href="#DejaVuSans-65" x="435.027344"/>
      <use xlink:href="#DejaVuSans-74" x="496.550781"/>
      <use xlink:href="#DejaVuSans-20" x="535.759766"/>
      <use xlink:href="#DejaVuSans-28" x="567.546875"/>
      <use xlink:href="#DejaVuSans-6e" x="606.560547"/>
      <use xlink:href="#DejaVuSans-3d" x="669.939453"/>
      <use xlink:href="#DejaVuSans-33" x="753.728516"/>
      <use xlink:href="#DejaVuSans-35" x="817.351562"/>
      <use xlink:href="#DejaVuSans-32" x="880.974609"/>
      <use xlink:href="#DejaVuSans-36" x="944.597656"/>
      <use xlink:href="#DejaVuSans-37" x="1008.220703"/>
      <use xlink:href="#DejaVuSans-29" x="1071.84375"/>
     </g>
    </g>
   </g>
  </g>
 </g>
 <defs>
  <clipPath id="p7e0441801b">
   <rect x="46.55" y="71.241125" width="367.065499" height="246.958875"/>
  </clipPath>
 </defs>
</svg>
