<?xml version="1.0" encoding="utf-8" standalone="no"?>
<!DOCTYPE svg PUBLIC "-//W3C//DTD SVG 1.1//EN"
  "http://www.w3.org/Graphics/SVG/1.1/DTD/svg11.dtd">
<svg xmlns:xlink="http://www.w3.org/1999/xlink" width="432pt" height="360pt" viewBox="0 0 432 360" xmlns="http://www.w3.org/2000/svg" version="1.1">
 <metadata>
  <rdf:RDF xmlns:dc="http://purl.org/dc/elements/1.1/" xmlns:cc="http://creativecommons.org/ns#" xmlns:rdf="http://www.w3.org/1999/02/22-rdf-syntax-ns#">
   <cc:Work>
    <dc:type rdf:resource="http://purl.org/dc/dcmitype/StillImage"/>
    <dc:date>2022-11-03T09:27:36.124133</dc:date>
    <dc:format>image/svg+xml</dc:format>
    <dc:creator>
     <cc:Agent>
      <dc:title>Matplotlib v3.5.1, https://matplotlib.org/</dc:title>
     </cc:Agent>
    </dc:creator>
   </cc:Work>
  </rdf:RDF>
 </metadata>
 <defs>
  <style type="text/css">*{stroke-linejoin: round; stroke-linecap: butt}</style>
 </defs>
 <g id="figure_1">
  <g id="patch_1">
   <path d="M 0 360 
L 432 360 
L 432 0 
L 0 0 
L 0 360 
z
" style="fill: none"/>
  </g>
  <g id="axes_1">
   <g id="patch_2">
    <path d="M 56.175 318.2 
L 413.615499 318.2 
L 413.615499 71.241125 
L 56.175 71.241125 
L 56.175 318.2 
z
" style="fill: none"/>
   </g>
   <g id="PolyCollection_1">
    <defs>
     <path id="m018059d983" d="M 56.175 -123.053554 
L 56.175 -110.092375 
L 56.950359 -111.326007 
L 57.725718 -112.907836 
L 58.501077 -114.707885 
L 59.276436 -116.567766 
L 60.051795 -118.361097 
L 60.827154 -120.033434 
L 61.602513 -121.605262 
L 62.377872 -123.142807 
L 63.153231 -124.716135 
L 63.92859 -126.364576 
L 64.703949 -128.079519 
L 65.479308 -129.804779 
L 66.254667 -131.449931 
L 67.030026 -132.912983 
L 67.805385 -134.109582 
L 68.580744 -135.002055 
L 69.356103 -135.617327 
L 70.131462 -136.044589 
L 70.906821 -136.413883 
L 71.68218 -136.865034 
L 72.457539 -137.516825 
L 73.232898 -138.442191 
L 74.008257 -139.652126 
L 74.783616 -141.091357 
L 75.558975 -142.648365 
L 76.334334 -144.179782 
L 77.109693 -145.542145 
L 77.885052 -146.623761 
L 78.660411 -147.371512 
L 79.43577 -147.807316 
L 80.211129 -148.02589 
L 80.986488 -148.167876 
L 81.761847 -148.372814 
L 82.537206 -148.73206 
L 83.312565 -149.261659 
L 84.087924 -149.904619 
L 84.863283 -150.556963 
L 85.638642 -151.104502 
L 86.414001 -151.460016 
L 87.18936 -151.594688 
L 87.964719 -151.556618 
L 88.740078 -151.467445 
L 89.515437 -151.492985 
L 90.290796 -151.796019 
L 91.066155 -152.488157 
L 91.841514 -153.596419 
L 92.616873 -155.051837 
L 93.392232 -156.699967 
L 94.167591 -158.330953 
L 94.94295 -159.72495 
L 95.718309 -160.704035 
L 96.493668 -161.177879 
L 97.269027 -161.170601 
L 98.044386 -160.820201 
L 98.819745 -160.346984 
L 99.595104 -159.994976 
L 100.370463 -159.959623 
L 101.145822 -160.3254 
L 101.921181 -161.036377 
L 102.69654 -161.913058 
L 103.471899 -162.710934 
L 104.247258 -163.202463 
L 105.022617 -163.258018 
L 105.797976 -162.899635 
L 106.573335 -162.30518 
L 107.348694 -161.755263 
L 108.124053 -161.539093 
L 108.899412 -161.855901 
L 109.674771 -162.750695 
L 110.45013 -164.105254 
L 111.225489 -165.681365 
L 112.000848 -167.198202 
L 112.776207 -168.419206 
L 113.551566 -169.221189 
L 114.326925 -169.619153 
L 115.102284 -169.735571 
L 115.877643 -169.729244 
L 116.653002 -169.720024 
L 117.428361 -169.745591 
L 118.20372 -169.766251 
L 118.979079 -169.707022 
L 119.754438 -169.511124 
L 120.529797 -169.17691 
L 121.305156 -168.761893 
L 122.080515 -168.353466 
L 122.855874 -168.021062 
L 123.631233 -167.772867 
L 124.406592 -167.538732 
L 125.181951 -167.190446 
L 125.95731 -166.595163 
L 126.732669 -165.681985 
L 127.508028 -164.491291 
L 128.283387 -163.179957 
L 129.058746 -161.975232 
L 129.834105 -161.096971 
L 130.609464 -160.684401 
L 131.384823 -160.758398 
L 132.160182 -161.229788 
L 132.935541 -161.94211 
L 133.7109 -162.729286 
L 134.486259 -163.467714 
L 135.261618 -164.104326 
L 136.036977 -164.648172 
L 136.812336 -165.129567 
L 137.587695 -165.551026 
L 138.363054 -165.859818 
L 139.138413 -165.959832 
L 139.913772 -165.755922 
L 140.689131 -165.206893 
L 141.46449 -164.362946 
L 142.239849 -163.373886 
L 143.015208 -162.464912 
L 143.790567 -161.884892 
L 144.565926 -161.840943 
L 145.341285 -162.44131 
L 146.116644 -163.668403 
L 146.892003 -165.39165 
L 147.667362 -167.412659 
L 148.442721 -169.522766 
L 149.21808 -171.551923 
L 149.993439 -173.395155 
L 150.768798 -175.012993 
L 151.544157 -176.411555 
L 152.319516 -177.616615 
L 153.094875 -178.65738 
L 153.870234 -179.566487 
L 154.645593 -180.389526 
L 155.420952 -181.191609 
L 156.196311 -182.053131 
L 156.97167 -183.056512 
L 157.747029 -184.268132 
L 158.522388 -185.71923 
L 159.297747 -187.389243 
L 160.073106 -189.199038 
L 160.848465 -191.02332 
L 161.623824 -192.724961 
L 162.399183 -194.200222 
L 163.174542 -195.416886 
L 163.949901 -196.427768 
L 164.72526 -197.3544 
L 165.500619 -198.348723 
L 166.275978 -199.548231 
L 167.051337 -201.039317 
L 167.826696 -202.83847 
L 168.602055 -204.894317 
L 169.377414 -207.107672 
L 170.152773 -209.360628 
L 170.928132 -211.544501 
L 171.703491 -213.578768 
L 172.47885 -215.417832 
L 173.254209 -217.048241 
L 174.029568 -218.482477 
L 174.804927 -219.753462 
L 175.580286 -220.909566 
L 176.355645 -222.006791 
L 177.131004 -223.096825 
L 177.906363 -224.212575 
L 178.681722 -225.354516 
L 179.457081 -226.4811 
L 180.23244 -227.506989 
L 181.007799 -228.313124 
L 181.783158 -228.771341 
L 182.558517 -228.778723 
L 183.333876 -228.29043 
L 184.109235 -227.339956 
L 184.884594 -226.041568 
L 185.659953 -224.574645 
L 186.435312 -223.151247 
L 187.210671 -221.96983 
L 187.98603 -221.162621 
L 188.761389 -220.753603 
L 189.536748 -220.64632 
L 190.312107 -220.649871 
L 191.087466 -220.532608 
L 191.862825 -220.081296 
L 192.638184 -219.146703 
L 193.413543 -217.666468 
L 194.188902 -215.663488 
L 194.964261 -213.220724 
L 195.73962 -210.438926 
L 196.514979 -207.394601 
L 197.290338 -204.1205 
L 198.065697 -200.619842 
L 198.841056 -196.904129 
L 199.616415 -193.030478 
L 200.391774 -189.118204 
L 201.167133 -185.338377 
L 201.942492 -181.881232 
L 202.717851 -178.910511 
L 203.49321 -176.517095 
L 204.268569 -174.688427 
L 205.043928 -173.310464 
L 205.819287 -172.204972 
L 206.594646 -171.188813 
L 207.370005 -170.127787 
L 208.145364 -168.964076 
L 208.920723 -167.710695 
L 209.696082 -166.420179 
L 210.471441 -165.143743 
L 211.2468 -163.899939 
L 212.022159 -162.667012 
L 212.797518 -161.40007 
L 213.572877 -160.062196 
L 214.348236 -158.651176 
L 215.123595 -157.207703 
L 215.898954 -155.801169 
L 216.674313 -154.498962 
L 217.449672 -153.332166 
L 218.225031 -152.273313 
L 219.00039 -151.239547 
L 219.775749 -150.123488 
L 220.551108 -148.840397 
L 221.326467 -147.372004 
L 222.101826 -145.787817 
L 222.877185 -144.233551 
L 223.652544 -142.889577 
L 224.427903 -141.915154 
L 225.203262 -141.40042 
L 225.978621 -141.344187 
L 226.75398 -141.662957 
L 227.529339 -142.223127 
L 228.304698 -142.881312 
L 229.080057 -143.519958 
L 229.855416 -144.071088 
L 230.630775 -144.523937 
L 231.406134 -144.914473 
L 232.181493 -145.301482 
L 232.956852 -145.740382 
L 233.732211 -146.265729 
L 234.50757 -146.884492 
L 235.282929 -147.573356 
L 236.058288 -148.274042 
L 236.833647 -148.889868 
L 237.609006 -149.294188 
L 238.384365 -149.356488 
L 239.159724 -148.983019 
L 239.935083 -148.162006 
L 240.710442 -146.999874 
L 241.485801 -145.731638 
L 242.26116 -144.689598 
L 243.036519 -144.226662 
L 243.811878 -144.610019 
L 244.587237 -145.922976 
L 245.362596 -148.015246 
L 246.137955 -150.525432 
L 246.913314 -152.972399 
L 247.688673 -154.890455 
L 248.464032 -155.970803 
L 249.239391 -156.166486 
L 250.01475 -155.723127 
L 250.790109 -155.11717 
L 251.565468 -154.915837 
L 252.340827 -155.604495 
L 253.116186 -157.440216 
L 253.891545 -160.37903 
L 254.666904 -164.096101 
L 255.442263 -168.087085 
L 256.217622 -171.814374 
L 256.992981 -174.850201 
L 257.76834 -176.973559 
L 258.543699 -178.198364 
L 259.319058 -178.735732 
L 260.094417 -178.91263 
L 260.869776 -179.07745 
L 261.645135 -179.51957 
L 262.420494 -180.420538 
L 263.195853 -181.84096 
L 263.971212 -183.737085 
L 264.746571 -185.994438 
L 265.52193 -188.465048 
L 266.297289 -191.000139 
L 267.072648 -193.477771 
L 267.848007 -195.825102 
L 268.623366 -198.033784 
L 269.398725 -200.160797 
L 270.174084 -202.307716 
L 270.949443 -204.579274 
L 271.724802 -207.034583 
L 272.500161 -209.651692 
L 273.27552 -212.322043 
L 274.050879 -214.878779 
L 274.826238 -217.146629 
L 275.601597 -218.995043 
L 276.376956 -220.378437 
L 277.152315 -221.353717 
L 277.927674 -222.068898 
L 278.703033 -222.720857 
L 279.478392 -223.492234 
L 280.253751 -224.490568 
L 281.02911 -225.718651 
L 281.804469 -227.090395 
L 282.579828 -228.483414 
L 283.355187 -229.801505 
L 284.130546 -231.019067 
L 284.905905 -232.192169 
L 285.681264 -233.434688 
L 286.456623 -234.869316 
L 287.231982 -236.56794 
L 288.007341 -238.5029 
L 288.7827 -240.528746 
L 289.558059 -242.406888 
L 290.333418 -243.870933 
L 291.108777 -244.713655 
L 291.884136 -244.865754 
L 292.659495 -244.435492 
L 293.434854 -243.692569 
L 294.210213 -242.997851 
L 294.985572 -242.70194 
L 295.760931 -243.045427 
L 296.53629 -244.090949 
L 297.311649 -245.706253 
L 298.087008 -247.603661 
L 298.862367 -249.426637 
L 299.637726 -250.855988 
L 300.413085 -251.70045 
L 301.188444 -251.940215 
L 301.963803 -251.71106 
L 302.739162 -251.240831 
L 303.514521 -250.765859 
L 304.28988 -250.457002 
L 305.065239 -250.376456 
L 305.840598 -250.475409 
L 306.615957 -250.630319 
L 307.391316 -250.702823 
L 308.166675 -250.59955 
L 308.942034 -250.308544 
L 309.717393 -249.899275 
L 310.492752 -249.489579 
L 311.268111 -249.196207 
L 312.04347 -249.091037 
L 312.818829 -249.178307 
L 313.594188 -249.398275 
L 314.369547 -249.6532 
L 315.144906 -249.844413 
L 315.920265 -249.906769 
L 316.695624 -249.828769 
L 317.470983 -249.652723 
L 318.246342 -249.454965 
L 319.021701 -249.313381 
L 319.79706 -249.27338 
L 320.572419 -249.323949 
L 321.347778 -249.392431 
L 322.123137 -249.361093 
L 322.898496 -249.102429 
L 323.673855 -248.522806 
L 324.449214 -247.601003 
L 325.224573 -246.406413 
L 325.999932 -245.088268 
L 326.775291 -243.838341 
L 327.55065 -242.839403 
L 328.326009 -242.215096 
L 329.101368 -241.994444 
L 329.876727 -242.10119 
L 330.652086 -242.37286 
L 331.427445 -242.607457 
L 332.202804 -242.625171 
L 332.978163 -242.325316 
L 333.753522 -241.71841 
L 334.528881 -240.922686 
L 335.30424 -240.127301 
L 336.079599 -239.534929 
L 336.854958 -239.300256 
L 337.630317 -239.482643 
L 338.405676 -240.027994 
L 339.181035 -240.786139 
L 339.956394 -241.557738 
L 340.731753 -242.153986 
L 341.507112 -242.447998 
L 342.282471 -242.400547 
L 343.05783 -242.054349 
L 343.833189 -241.502371 
L 344.608548 -240.845932 
L 345.383907 -240.161467 
L 346.159266 -239.488978 
L 346.934625 -238.84201 
L 347.709984 -238.22786 
L 348.485343 -237.664746 
L 349.260702 -237.186479 
L 350.036061 -236.83373 
L 350.81142 -236.637709 
L 351.586779 -236.605289 
L 352.362138 -236.713127 
L 353.137497 -236.915007 
L 353.912856 -237.16172 
L 354.688215 -237.425331 
L 355.463574 -237.715797 
L 356.238933 -238.078524 
L 357.014292 -238.570737 
L 357.789651 -239.226962 
L 358.56501 -240.031957 
L 359.340369 -240.917311 
L 360.115728 -241.785175 
L 360.891087 -242.547646 
L 361.666446 -243.162254 
L 362.441805 -243.646982 
L 363.217164 -244.06828 
L 363.992523 -244.506576 
L 364.767882 -245.011541 
L 365.543241 -245.563562 
L 366.3186 -246.059763 
L 367.093959 -246.336602 
L 367.869318 -246.227299 
L 368.644677 -245.631147 
L 369.420036 -244.563281 
L 370.195395 -243.161088 
L 370.970754 -241.643398 
L 371.746113 -240.240111 
L 372.521472 -239.121623 
L 373.296831 -238.355527 
L 374.07219 -237.904215 
L 374.847549 -237.661261 
L 375.622908 -237.508686 
L 376.398267 -237.369974 
L 377.173626 -237.23747 
L 377.948985 -237.165103 
L 378.724344 -237.231472 
L 379.499703 -237.489701 
L 380.275062 -237.925457 
L 381.050421 -238.442159 
L 381.82578 -238.884615 
L 382.601139 -239.093513 
L 383.376498 -238.970185 
L 384.151857 -238.527982 
L 384.927216 -237.906497 
L 385.702575 -237.338931 
L 386.477934 -237.080689 
L 387.253293 -237.322425 
L 388.028652 -238.118094 
L 388.804011 -239.354787 
L 389.57937 -240.776407 
L 390.354729 -242.055232 
L 391.130088 -242.889438 
L 391.905447 -243.093409 
L 392.680806 -242.654469 
L 393.456165 -241.739077 
L 394.231524 -240.640569 
L 395.006883 -239.689002 
L 395.782242 -239.154691 
L 396.557601 -239.172281 
L 397.33296 -239.715141 
L 398.108319 -240.622409 
L 398.883678 -241.668986 
L 399.659037 -242.645897 
L 400.434396 -243.431647 
L 401.209755 -244.024718 
L 401.985114 -244.525384 
L 402.760473 -245.076758 
L 403.535832 -245.797373 
L 404.311191 -246.727217 
L 405.08655 -247.805206 
L 405.861909 -248.887339 
L 406.637268 -249.797264 
L 407.412627 -250.390003 
L 408.187986 -250.609381 
L 408.963345 -250.514916 
L 409.738704 -250.264347 
L 410.514063 -250.060099 
L 411.289422 -250.083363 
L 412.064781 -250.435435 
L 412.84014 -251.107412 
L 413.615499 -251.993495 
L 413.615499 -277.533472 
L 413.615499 -277.533472 
L 412.84014 -276.580274 
L 412.064781 -275.869853 
L 411.289422 -275.508565 
L 410.514063 -275.496066 
L 409.738704 -275.717493 
L 408.963345 -275.97717 
L 408.187986 -276.062689 
L 407.412627 -275.814734 
L 406.637268 -275.179208 
L 405.861909 -274.220275 
L 405.08655 -273.091602 
L 404.311191 -271.978819 
L 403.535832 -271.031848 
L 402.760473 -270.308704 
L 401.985114 -269.758182 
L 401.209755 -269.251264 
L 400.434396 -268.642949 
L 399.659037 -267.838259 
L 398.883678 -266.844412 
L 398.108319 -265.784535 
L 397.33296 -264.866403 
L 396.557601 -264.313943 
L 395.782242 -264.287268 
L 395.006883 -264.811271 
L 394.231524 -265.749265 
L 393.456165 -266.830949 
L 392.680806 -267.729122 
L 391.905447 -268.153756 
L 391.130088 -267.939781 
L 390.354729 -267.099499 
L 389.57937 -265.817701 
L 388.804011 -264.395161 
L 388.028652 -263.157355 
L 387.253293 -262.356868 
L 386.477934 -262.104344 
L 385.702575 -262.347742 
L 384.927216 -262.902488 
L 384.151857 -263.519687 
L 383.376498 -263.96821 
L 382.601139 -264.103603 
L 381.82578 -263.902309 
L 381.050421 -263.452369 
L 380.275062 -262.907506 
L 379.499703 -262.42515 
L 378.724344 -262.109937 
L 377.948985 -261.984821 
L 377.173626 -262.001658 
L 376.398267 -262.083019 
L 375.622908 -262.175421 
L 374.847549 -262.288535 
L 374.07219 -262.50157 
L 373.296831 -262.933001 
L 372.521472 -263.685968 
L 371.746113 -264.792621 
L 370.970754 -266.181874 
L 370.195395 -267.685782 
L 369.420036 -269.083068 
L 368.644677 -270.163862 
L 367.869318 -270.790557 
L 367.093959 -270.933318 
L 366.3186 -270.669725 
L 365.543241 -270.150174 
L 364.767882 -269.540783 
L 363.992523 -268.964057 
L 363.217164 -268.461485 
L 362.441805 -267.993164 
L 361.666446 -267.474829 
L 360.891087 -266.832694 
L 360.115728 -266.047275 
L 359.340369 -265.164703 
L 358.56501 -264.27414 
L 357.789651 -263.467753 
L 357.014292 -262.804854 
L 356.238933 -262.295071 
L 355.463574 -261.904721 
L 354.688215 -261.581094 
L 353.912856 -261.282978 
L 353.137497 -261.003758 
L 352.362138 -260.776192 
L 351.586779 -260.6562 
L 350.81142 -260.694083 
L 350.036061 -260.908224 
L 349.260702 -261.276335 
L 348.485343 -261.748622 
L 347.709984 -262.274363 
L 346.934625 -262.825313 
L 346.159266 -263.401228 
L 345.383907 -264.014517 
L 344.608548 -264.66342 
L 343.833189 -265.309425 
L 343.05783 -265.871148 
L 342.282471 -266.240431 
L 341.507112 -266.31732 
L 340.731753 -266.051775 
L 339.956394 -265.475678 
L 339.181035 -264.710111 
L 338.405676 -263.941505 
L 337.630317 -263.371314 
L 336.854958 -263.155499 
L 336.079599 -263.354336 
L 335.30424 -263.910584 
L 334.528881 -264.665656 
L 333.753522 -265.410306 
L 332.978163 -265.952692 
L 332.202804 -266.179667 
L 331.427445 -266.09115 
L 330.652086 -265.797792 
L 329.876727 -265.485413 
L 329.101368 -265.358552 
L 328.326009 -265.579489 
L 327.55065 -266.21986 
L 326.775291 -267.240416 
L 325.999932 -268.505428 
L 325.224573 -269.825502 
L 324.449214 -271.01172 
L 323.673855 -271.923389 
L 322.898496 -272.49726 
L 322.123137 -272.753715 
L 321.347778 -272.780997 
L 320.572419 -272.702336 
L 319.79706 -272.635431 
L 319.021701 -272.65587 
L 318.246342 -272.777404 
L 317.470983 -272.954936 
L 316.695624 -273.108079 
L 315.920265 -273.156433 
L 315.144906 -273.054649 
L 314.369547 -272.815291 
L 313.594188 -272.510143 
L 312.818829 -272.247987 
L 312.04347 -272.134955 
L 311.268111 -272.232678 
L 310.492752 -272.531688 
L 309.717393 -272.951728 
L 308.942034 -273.369405 
L 308.166675 -273.663405 
L 307.391316 -273.7613 
L 306.615957 -273.670017 
L 305.840598 -273.477809 
L 305.065239 -273.323711 
L 304.28988 -273.341306 
L 303.514521 -273.594834 
L 302.739162 -274.033705 
L 301.963803 -274.488771 
L 301.188444 -274.717862 
L 300.413085 -274.486536 
L 299.637726 -273.654699 
L 298.862367 -272.237279 
L 298.087008 -270.417625 
L 297.311649 -268.507492 
L 296.53629 -266.862865 
L 295.760931 -265.778821 
L 294.985572 -265.396115 
L 294.210213 -265.653983 
L 293.434854 -266.306941 
L 292.659495 -266.999835 
L 291.884136 -267.373646 
L 291.108777 -267.165841 
L 290.333418 -266.274914 
L 289.558059 -264.773018 
L 288.7827 -262.868032 
L 288.007341 -260.828354 
L 287.231982 -258.896284 
L 286.456623 -257.218586 
L 285.681264 -255.816878 
L 284.905905 -254.605535 
L 284.130546 -253.447313 
L 283.355187 -252.223225 
L 282.579828 -250.886272 
L 281.804469 -249.478371 
L 281.02911 -248.105203 
L 280.253751 -246.883955 
L 279.478392 -245.887787 
L 278.703033 -245.107542 
L 277.927674 -244.441316 
L 277.152315 -243.714463 
L 276.376956 -242.727451 
L 275.601597 -241.318802 
L 274.826238 -239.421143 
L 274.050879 -237.084757 
L 273.27552 -234.456783 
L 272.500161 -231.725933 
L 271.724802 -229.059017 
L 270.949443 -226.555922 
L 270.174084 -224.234813 
L 269.398725 -222.044738 
L 268.623366 -219.894467 
L 267.848007 -217.687912 
L 267.072648 -215.358442 
L 266.297289 -212.895155 
L 265.52193 -210.355029 
L 264.746571 -207.857071 
L 263.971212 -205.55958 
L 263.195853 -203.624315 
L 262.420494 -202.175778 
L 261.645135 -201.261661 
L 260.869776 -200.821162 
L 260.094417 -200.669538 
L 259.319058 -200.509949 
L 258.543699 -199.982103 
L 257.76834 -198.746722 
L 256.992981 -196.586151 
L 256.217622 -193.48916 
L 255.442263 -189.687329 
L 254.666904 -185.622804 
L 253.891545 -181.846931 
L 253.116186 -178.872822 
L 252.340827 -177.025657 
L 251.565468 -176.34143 
L 250.790109 -176.551647 
L 250.01475 -177.161782 
L 249.239391 -177.598956 
L 248.464032 -177.381969 
L 247.688673 -176.261457 
L 246.913314 -174.287393 
L 246.137955 -171.782621 
L 245.362596 -169.231536 
L 244.587237 -167.12394 
L 243.811878 -165.811611 
L 243.036519 -165.425484 
L 242.26116 -165.87064 
L 241.485801 -166.884686 
L 240.710442 -168.128518 
L 239.935083 -169.279289 
L 239.159724 -170.101671 
L 238.384365 -170.483399 
L 237.609006 -170.429894 
L 236.833647 -170.028552 
L 236.058288 -169.403688 
L 235.282929 -168.679821 
L 234.50757 -167.959115 
L 233.732211 -167.309557 
L 232.956852 -166.760318 
L 232.181493 -166.303262 
L 231.406134 -165.901209 
L 230.630775 -165.500837 
L 229.855416 -165.047611 
L 229.080057 -164.503256 
L 228.304698 -163.866482 
L 227.529339 -163.191098 
L 226.75398 -162.588738 
L 225.978621 -162.207291 
L 225.203262 -162.188733 
L 224.427903 -162.622514 
L 223.652544 -163.513862 
L 222.877185 -164.779119 
L 222.101826 -166.26902 
L 221.326467 -167.812295 
L 220.551108 -169.265701 
L 219.775749 -170.553423 
L 219.00039 -171.681558 
L 218.225031 -172.722822 
L 217.449672 -173.778329 
L 216.674313 -174.932076 
L 215.898954 -176.216587 
L 215.123595 -177.604241 
L 214.348236 -179.0274 
L 213.572877 -180.415861 
L 212.797518 -181.7319 
L 212.022159 -182.984859 
L 211.2468 -184.219087 
L 210.471441 -185.483137 
L 209.696082 -186.797153 
L 208.920723 -188.136255 
L 208.145364 -189.439697 
L 207.370005 -190.64496 
L 206.594646 -191.731816 
L 205.819287 -192.754617 
L 205.043928 -193.845914 
L 204.268569 -195.188189 
L 203.49321 -196.963558 
L 202.717851 -199.298294 
L 201.942492 -202.221554 
L 201.167133 -205.651768 
L 200.391774 -209.419775 
L 199.616415 -213.321861 
L 198.841056 -217.179515 
L 198.065697 -220.87707 
L 197.290338 -224.362619 
L 196.514979 -227.62041 
L 195.73962 -230.635973 
L 194.964261 -233.371459 
L 194.188902 -235.758577 
L 193.413543 -237.710746 
L 192.638184 -239.153368 
L 191.862825 -240.064369 
L 191.087466 -240.507002 
L 190.312107 -240.634564 
L 189.536748 -240.659754 
L 188.761389 -240.801073 
L 187.98603 -241.228911 
L 187.210671 -242.027434 
L 186.435312 -243.177928 
L 185.659953 -244.563952 
L 184.884594 -245.998215 
L 184.109235 -247.268469 
L 183.333876 -248.190947 
L 182.558517 -248.653022 
L 181.783158 -248.629557 
L 181.007799 -248.171708 
L 180.23244 -247.379216 
L 179.457081 -246.368959 
L 178.681722 -245.247629 
L 177.906363 -244.092274 
L 177.131004 -242.94132 
L 176.355645 -241.796437 
L 175.580286 -240.632775 
L 174.804927 -239.411162 
L 174.029568 -238.087128 
L 173.254209 -236.616792 
L 172.47885 -234.963608 
L 171.703491 -233.108186 
L 170.928132 -231.059446 
L 170.152773 -228.862126 
L 169.377414 -226.596585 
L 168.602055 -224.368855 
L 167.826696 -222.291365 
L 167.051337 -220.457172 
L 166.275978 -218.913577 
L 165.500619 -217.644264 
L 164.72526 -216.568961 
L 163.949901 -215.562924 
L 163.174542 -214.491164 
L 162.399183 -213.246121 
L 161.623824 -211.776504 
L 160.848465 -210.099262 
L 160.073106 -208.293292 
L 159.297747 -206.477232 
L 158.522388 -204.776435 
L 157.747029 -203.28596 
L 156.97167 -202.042858 
L 156.196311 -201.020018 
L 155.420952 -200.144668 
L 154.645593 -199.329613 
L 153.870234 -198.497977 
L 153.094875 -197.589774 
L 152.319516 -196.555093 
L 151.544157 -195.34636 
L 150.768798 -193.919571 
L 149.993439 -192.245634 
L 149.21808 -190.328059 
L 148.442721 -188.221442 
L 147.667362 -186.04289 
L 146.892003 -183.967019 
L 146.116644 -182.198779 
L 145.341285 -180.927217 
L 144.565926 -180.27416 
L 143.790567 -180.255697 
L 143.015208 -180.769998 
L 142.239849 -181.617124 
L 141.46449 -182.548644 
L 140.689131 -183.334136 
L 139.913772 -183.820899 
L 139.138413 -183.961802 
L 138.363054 -183.800603 
L 137.587695 -183.426616 
L 136.812336 -182.924823 
L 136.036977 -182.344218 
L 135.261618 -181.693195 
L 134.486259 -180.959006 
L 133.7109 -180.142152 
L 132.935541 -179.292627 
L 132.160182 -178.527461 
L 131.384823 -178.011994 
L 130.609464 -177.905409 
L 129.834105 -178.294299 
L 129.058746 -179.148693 
L 128.283387 -180.322682 
L 127.508028 -181.598902 
L 126.732669 -182.756208 
L 125.95731 -183.635709 
L 125.181951 -184.183845 
L 124.406592 -184.457678 
L 123.631233 -184.588821 
L 122.855874 -184.719558 
L 122.080515 -184.939724 
L 121.305156 -185.253909 
L 120.529797 -185.593455 
L 119.754438 -185.864195 
L 118.979079 -186.002302 
L 118.20372 -186.007526 
L 117.428361 -185.936341 
L 116.653002 -185.859914 
L 115.877643 -185.81072 
L 115.102284 -185.747541 
L 114.326925 -185.55669 
L 113.551566 -185.090904 
L 112.776207 -184.232098 
L 112.000848 -182.956027 
L 111.225489 -181.372047 
L 110.45013 -179.713997 
L 109.674771 -178.275297 
L 108.899412 -177.30934 
L 108.124053 -176.93684 
L 107.348694 -177.101547 
L 106.573335 -177.591133 
L 105.797976 -178.110595 
L 105.022617 -178.378619 
L 104.247258 -178.215466 
L 103.471899 -177.596048 
L 102.69654 -176.650837 
L 101.921181 -175.613322 
L 101.145822 -174.733735 
L 100.370463 -174.192229 
L 99.595104 -174.041828 
L 98.819745 -174.195998 
L 98.044386 -174.458697 
L 97.269027 -174.583912 
L 96.493668 -174.347779 
L 95.718309 -173.612026 
L 94.94295 -172.360438 
L 94.167591 -170.698859 
L 93.392232 -168.822704 
L 92.616873 -166.96451 
L 91.841514 -165.33667 
L 91.066155 -164.083549 
L 90.290796 -163.254889 
L 89.515437 -162.806233 
L 88.740078 -162.622926 
L 87.964719 -162.557123 
L 87.18936 -162.465829 
L 86.414001 -162.242636 
L 85.638642 -161.84011 
L 84.863283 -161.278373 
L 84.087924 -160.63389 
L 83.312565 -160.008297 
L 82.537206 -159.488743 
L 81.761847 -159.116232 
L 80.986488 -158.872256 
L 80.211129 -158.683576 
L 79.43577 -158.439076 
L 78.660411 -158.014523 
L 77.885052 -157.305275 
L 77.109693 -156.260957 
L 76.334334 -154.90933 
L 75.558975 -153.355639 
L 74.783616 -151.755777 
L 74.008257 -150.27369 
L 73.232898 -149.038273 
L 72.457539 -148.112074 
L 71.68218 -147.479048 
L 70.906821 -147.05219 
L 70.131462 -146.699211 
L 69.356103 -146.278176 
L 68.580744 -145.670928 
L 67.805385 -144.804933 
L 67.030026 -143.662153 
L 66.254667 -142.278083 
L 65.479308 -140.731406 
L 64.703949 -139.122227 
L 63.92859 -137.540526 
L 63.153231 -136.035836 
L 62.377872 -134.603056 
L 61.602513 -133.192475 
L 60.827154 -131.739401 
L 60.051795 -130.199746 
L 59.276436 -128.577316 
L 58.501077 -126.933681 
L 57.725718 -125.379078 
L 56.950359 -124.046696 
L 56.175 -123.053554 
z
" style="stroke: #e41a1c; stroke-opacity: 0.3"/>
    </defs>
    <g clip-path="url(#pf380a2229c)">
     <use xlink:href="#m018059d983" x="0" y="360" style="fill: #e41a1c; fill-opacity: 0.3; stroke: #e41a1c; stroke-opacity: 0.3"/>
    </g>
   </g>
   <g id="PolyCollection_2">
    <defs>
     <path id="mb8028c720d" d="M 56.175 -145.035308 
L 56.175 -137.449019 
L 56.950359 -137.950068 
L 57.725718 -138.046863 
L 58.501077 -137.819221 
L 59.276436 -137.432145 
L 60.051795 -137.078234 
L 60.827154 -136.913812 
L 61.602513 -137.012962 
L 62.377872 -137.355082 
L 63.153231 -137.8471 
L 63.92859 -138.368496 
L 64.703949 -138.820368 
L 65.479308 -139.160033 
L 66.254667 -139.409861 
L 67.030026 -139.639673 
L 67.805385 -139.932068 
L 68.580744 -140.346501 
L 69.356103 -140.896605 
L 70.131462 -141.54824 
L 70.906821 -142.235066 
L 71.68218 -142.882351 
L 72.457539 -143.429332 
L 73.232898 -143.843512 
L 74.008257 -144.123553 
L 74.783616 -144.291144 
L 75.558975 -144.376922 
L 76.334334 -144.408147 
L 77.109693 -144.403819 
L 77.885052 -144.376951 
L 78.660411 -144.337977 
L 79.43577 -144.293614 
L 80.211129 -144.241946 
L 80.986488 -144.171064 
L 81.761847 -144.066284 
L 82.537206 -143.923546 
L 83.312565 -143.759885 
L 84.087924 -143.613765 
L 84.863283 -143.534959 
L 85.638642 -143.568181 
L 86.414001 -143.735076 
L 87.18936 -144.019074 
L 87.964719 -144.360536 
L 88.740078 -144.6686 
L 89.515437 -144.850368 
L 90.290796 -144.847824 
L 91.066155 -144.666944 
L 91.841514 -144.385335 
L 92.616873 -144.133006 
L 93.392232 -144.051553 
L 94.167591 -144.24529 
L 94.94295 -144.741703 
L 95.718309 -145.475579 
L 96.493668 -146.303328 
L 97.269027 -147.043789 
L 98.044386 -147.532714 
L 98.819745 -147.673499 
L 99.595104 -147.467147 
L 100.370463 -147.011231 
L 101.145822 -146.467701 
L 101.921181 -146.010908 
L 102.69654 -145.774969 
L 103.471899 -145.81942 
L 104.247258 -146.123516 
L 105.022617 -146.607363 
L 105.797976 -147.168569 
L 106.573335 -147.719471 
L 107.348694 -148.211213 
L 108.124053 -148.637256 
L 108.899412 -149.018105 
L 109.674771 -149.377454 
L 110.45013 -149.722594 
L 111.225489 -150.038631 
L 112.000848 -150.298792 
L 112.776207 -150.484568 
L 113.551566 -150.60368 
L 114.326925 -150.694362 
L 115.102284 -150.811579 
L 115.877643 -151.001131 
L 116.653002 -151.27471 
L 117.428361 -151.59851 
L 118.20372 -151.901183 
L 118.979079 -152.098824 
L 119.754438 -152.127928 
L 120.529797 -151.973883 
L 121.305156 -151.682932 
L 122.080515 -151.350782 
L 122.855874 -151.090223 
L 123.631233 -150.989905 
L 124.406592 -151.081989 
L 125.181951 -151.33187 
L 125.95731 -151.65386 
L 126.732669 -151.944281 
L 127.508028 -152.117547 
L 128.283387 -152.131241 
L 129.058746 -151.992038 
L 129.834105 -151.743015 
L 130.609464 -151.440371 
L 131.384823 -151.131086 
L 132.160182 -150.840615 
L 132.935541 -150.574177 
L 133.7109 -150.329051 
L 134.486259 -150.110975 
L 135.261618 -149.946201 
L 136.036977 -149.882067 
L 136.812336 -149.973618 
L 137.587695 -150.259966 
L 138.363054 -150.740475 
L 139.138413 -151.361705 
L 139.913772 -152.022604 
L 140.689131 -152.598297 
L 141.46449 -152.9755 
L 142.239849 -153.08782 
L 143.015208 -152.938855 
L 143.790567 -152.604644 
L 144.565926 -152.212917 
L 145.341285 -151.904585 
L 146.116644 -151.789358 
L 146.892003 -151.910985 
L 147.667362 -152.23511 
L 148.442721 -152.664754 
L 149.21808 -153.077951 
L 149.993439 -153.373356 
L 150.768798 -153.507028 
L 151.544157 -153.50759 
L 152.319516 -153.465324 
L 153.094875 -153.500031 
L 153.870234 -153.719665 
L 154.645593 -154.185176 
L 155.420952 -154.895177 
L 156.196311 -155.795771 
L 156.97167 -156.810103 
L 157.747029 -157.872919 
L 158.522388 -158.954066 
L 159.297747 -160.061674 
L 160.073106 -161.225548 
L 160.848465 -162.469564 
L 161.623824 -163.786356 
L 162.399183 -165.126986 
L 163.174542 -166.411488 
L 163.949901 -167.556534 
L 164.72526 -168.508382 
L 165.500619 -169.266821 
L 166.275978 -169.889758 
L 167.051337 -170.475708 
L 167.826696 -171.129799 
L 168.602055 -171.924852 
L 169.377414 -172.871341 
L 170.152773 -173.908357 
L 170.928132 -174.920395 
L 171.703491 -175.775262 
L 172.47885 -176.369657 
L 173.254209 -176.665738 
L 174.029568 -176.705695 
L 174.804927 -176.599985 
L 175.580286 -176.494093 
L 176.355645 -176.524551 
L 177.131004 -176.777935 
L 177.906363 -177.265461 
L 178.681722 -177.920267 
L 179.457081 -178.616417 
L 180.23244 -179.201711 
L 181.007799 -179.533553 
L 181.783158 -179.507765 
L 182.558517 -179.074353 
L 183.333876 -178.239808 
L 184.109235 -177.059996 
L 184.884594 -175.628894 
L 185.659953 -174.066286 
L 186.435312 -172.504827 
L 187.210671 -171.074645 
L 187.98603 -169.884279 
L 188.761389 -168.998728 
L 189.536748 -168.41901 
L 190.312107 -168.070773 
L 191.087466 -167.809753 
L 191.862825 -167.447264 
L 192.638184 -166.791099 
L 193.413543 -165.690962 
L 194.188902 -164.074537 
L 194.964261 -161.963311 
L 195.73962 -159.463692 
L 196.514979 -156.737166 
L 197.290338 -153.959654 
L 198.065697 -151.282691 
L 198.841056 -148.807098 
L 199.616415 -146.573757 
L 200.391774 -144.568636 
L 201.167133 -142.735256 
L 201.942492 -140.988885 
L 202.717851 -139.230905 
L 203.49321 -137.364541 
L 204.268569 -135.312531 
L 205.043928 -133.034796 
L 205.819287 -130.541589 
L 206.594646 -127.897355 
L 207.370005 -125.211538 
L 208.145364 -122.615901 
L 208.920723 -120.232524 
L 209.696082 -118.141418 
L 210.471441 -116.358615 
L 211.2468 -114.833634 
L 212.022159 -113.469051 
L 212.797518 -112.156246 
L 213.572877 -110.812851 
L 214.348236 -109.406749 
L 215.123595 -107.958013 
L 215.898954 -106.520588 
L 216.674313 -105.153965 
L 217.449672 -103.898586 
L 218.225031 -102.764554 
L 219.00039 -101.736267 
L 219.775749 -100.787528 
L 220.551108 -99.897913 
L 221.326467 -99.061147 
L 222.101826 -98.280547 
L 222.877185 -97.553778 
L 223.652544 -96.855743 
L 224.427903 -96.131767 
L 225.203262 -95.308281 
L 225.978621 -94.319826 
L 226.75398 -93.141291 
L 227.529339 -91.809848 
L 228.304698 -90.423748 
L 229.080057 -89.113817 
L 229.855416 -87.995921 
L 230.630775 -87.122243 
L 231.406134 -86.452727 
L 232.181493 -85.860238 
L 232.956852 -85.170217 
L 233.732211 -84.221536 
L 234.50757 -82.926112 
L 235.282929 -81.304537 
L 236.058288 -79.483159 
L 236.833647 -77.652576 
L 237.609006 -76.000823 
L 238.384365 -74.645643 
L 239.159724 -73.592037 
L 239.935083 -72.73243 
L 240.710442 -71.889801 
L 241.485801 -70.886047 
L 242.26116 -69.607914 
L 243.036519 -68.044201 
L 243.811878 -66.281945 
L 244.587237 -64.466142 
L 245.362596 -62.742232 
L 246.137955 -61.205997 
L 246.913314 -59.880334 
L 247.688673 -58.725545 
L 248.464032 -57.675445 
L 249.239391 -56.680946 
L 250.01475 -55.739992 
L 250.790109 -54.899223 
L 251.565468 -54.22701 
L 252.340827 -53.772246 
L 253.116186 -53.531148 
L 253.891545 -53.440354 
L 254.666904 -53.4021 
L 255.442263 -53.33045 
L 256.217622 -53.197363 
L 256.992981 -53.055595 
L 257.76834 -53.025403 
L 258.543699 -53.248195 
L 259.319058 -53.825863 
L 260.094417 -54.772466 
L 260.869776 -56.00085 
L 261.645135 -57.351863 
L 262.420494 -58.655221 
L 263.195853 -59.796455 
L 263.971212 -60.761373 
L 264.746571 -61.638748 
L 265.52193 -62.579399 
L 266.297289 -63.727959 
L 267.072648 -65.155447 
L 267.848007 -66.821736 
L 268.623366 -68.584908 
L 269.398725 -70.253928 
L 270.174084 -71.662686 
L 270.949443 -72.734542 
L 271.724802 -73.510926 
L 272.500161 -74.132393 
L 273.27552 -74.780103 
L 274.050879 -75.601494 
L 274.826238 -76.649946 
L 275.601597 -77.862437 
L 276.376956 -79.084125 
L 277.152315 -80.130314 
L 277.927674 -80.861314 
L 278.703033 -81.240323 
L 279.478392 -81.351279 
L 280.253751 -81.370173 
L 281.02911 -81.501871 
L 281.804469 -81.907426 
L 282.579828 -82.649298 
L 283.355187 -83.674218 
L 284.130546 -84.838525 
L 284.905905 -85.964339 
L 285.681264 -86.904114 
L 286.456623 -87.589635 
L 287.231982 -88.049184 
L 288.007341 -88.389123 
L 288.7827 -88.749691 
L 289.558059 -89.25344 
L 290.333418 -89.96571 
L 291.108777 -90.880026 
L 291.884136 -91.930648 
L 292.659495 -93.023835 
L 293.434854 -94.07266 
L 294.210213 -95.020979 
L 294.985572 -95.849336 
L 295.760931 -96.565412 
L 296.53629 -97.188035 
L 297.311649 -97.734306 
L 298.087008 -98.21532 
L 298.862367 -98.640065 
L 299.637726 -99.02288 
L 300.413085 -99.388488 
L 301.188444 -99.770695 
L 301.963803 -100.20501 
L 302.739162 -100.719045 
L 303.514521 -101.325463 
L 304.28988 -102.021023 
L 305.065239 -102.792703 
L 305.840598 -103.627947 
L 306.615957 -104.52304 
L 307.391316 -105.483598 
L 308.166675 -106.515622 
L 308.942034 -107.611996 
L 309.717393 -108.743012 
L 310.492752 -109.858116 
L 311.268111 -110.899439 
L 312.04347 -111.821148 
L 312.818829 -112.605576 
L 313.594188 -113.269084 
L 314.369547 -113.855213 
L 315.144906 -114.417771 
L 315.920265 -114.999807 
L 316.695624 -115.616265 
L 317.470983 -116.247549 
L 318.246342 -116.848013 
L 319.021701 -117.366252 
L 319.79706 -117.768841 
L 320.572419 -118.057432 
L 321.347778 -118.272227 
L 322.123137 -118.480735 
L 322.898496 -118.757343 
L 323.673855 -119.16187 
L 324.449214 -119.7246 
L 325.224573 -120.440465 
L 325.999932 -121.271671 
L 326.775291 -122.156416 
L 327.55065 -123.020913 
L 328.326009 -123.792703 
L 329.101368 -124.413904 
L 329.876727 -124.854127 
L 330.652086 -125.121243 
L 331.427445 -125.266853 
L 332.202804 -125.382453 
L 332.978163 -125.583545 
L 333.753522 -125.982656 
L 334.528881 -126.65656 
L 335.30424 -127.616803 
L 336.079599 -128.794082 
L 336.854958 -130.045121 
L 337.630317 -131.183615 
L 338.405676 -132.028662 
L 339.181035 -132.457391 
L 339.956394 -132.445194 
L 340.731753 -132.079239 
L 341.507112 -131.538441 
L 342.282471 -131.044433 
L 343.05783 -130.79815 
L 343.833189 -130.922407 
L 344.608548 -131.429834 
L 345.383907 -132.227019 
L 346.159266 -133.152984 
L 346.934625 -134.038236 
L 347.709984 -134.763538 
L 348.485343 -135.297986 
L 349.260702 -135.702935 
L 350.036061 -136.100955 
L 350.81142 -136.622183 
L 351.586779 -137.34931 
L 352.362138 -138.282344 
L 353.137497 -139.335905 
L 353.912856 -140.369144 
L 354.688215 -141.235694 
L 355.463574 -141.833559 
L 356.238933 -142.135138 
L 357.014292 -142.187172 
L 357.789651 -142.084022 
L 358.56501 -141.92827 
L 359.340369 -141.795148 
L 360.115728 -141.713396 
L 360.891087 -141.667586 
L 361.666446 -141.618626 
L 362.441805 -141.531553 
L 363.217164 -141.397067 
L 363.992523 -141.236824 
L 364.767882 -141.09119 
L 365.543241 -140.997401 
L 366.3186 -140.970519 
L 367.093959 -140.996086 
L 367.869318 -141.037296 
L 368.644677 -141.051956 
L 369.420036 -141.010652 
L 370.195395 -140.907433 
L 370.970754 -140.758387 
L 371.746113 -140.590097 
L 372.521472 -140.425295 
L 373.296831 -140.274128 
L 374.07219 -140.135846 
L 374.847549 -140.009115 
L 375.622908 -139.905413 
L 376.398267 -139.858532 
L 377.173626 -139.924069 
L 377.948985 -140.165451 
L 378.724344 -140.629033 
L 379.499703 -141.316841 
L 380.275062 -142.169589 
L 381.050421 -143.069419 
L 381.82578 -143.864715 
L 382.601139 -144.41053 
L 383.376498 -144.612054 
L 384.151857 -144.456909 
L 384.927216 -144.025274 
L 385.702575 -143.473694 
L 386.477934 -142.996048 
L 387.253293 -142.772837 
L 388.028652 -142.923731 
L 388.804011 -143.477841 
L 389.57937 -144.371085 
L 390.354729 -145.471086 
L 391.130088 -146.620983 
L 391.905447 -147.686848 
L 392.680806 -148.593152 
L 393.456165 -149.335488 
L 394.231524 -149.969233 
L 395.006883 -150.581623 
L 395.782242 -151.25897 
L 396.557601 -152.060285 
L 397.33296 -153.005097 
L 398.108319 -154.077766 
L 398.883678 -155.24369 
L 399.659037 -156.467836 
L 400.434396 -157.726033 
L 401.209755 -159.004979 
L 401.985114 -160.293777 
L 402.760473 -161.574334 
L 403.535832 -162.818393 
L 404.311191 -163.994663 
L 405.08655 -165.084391 
L 405.861909 -166.097528 
L 406.637268 -167.080475 
L 407.412627 -168.109542 
L 408.187986 -169.270586 
L 408.963345 -170.631065 
L 409.738704 -172.213817 
L 410.514063 -173.981885 
L 411.289422 -175.839916 
L 412.064781 -177.652905 
L 412.84014 -179.277487 
L 413.615499 -180.59724 
L 413.615499 -195.356821 
L 413.615499 -195.356821 
L 412.84014 -194.020696 
L 412.064781 -192.38585 
L 411.289422 -190.567758 
L 410.514063 -188.708501 
L 409.738704 -186.941652 
L 408.963345 -185.36035 
L 408.187986 -183.998001 
L 407.412627 -182.82782 
L 406.637268 -181.780445 
L 405.861909 -180.772139 
L 405.08655 -179.732181 
L 404.311191 -178.620147 
L 403.535832 -177.429029 
L 402.760473 -176.176153 
L 401.985114 -174.88843 
L 401.209755 -173.589802 
L 400.434396 -172.296634 
L 399.659037 -171.021138 
L 398.883678 -169.779259 
L 398.108319 -168.596798 
L 397.33296 -167.5086 
L 396.557601 -166.548506 
L 395.782242 -165.732494 
L 395.006883 -165.042492 
L 394.231524 -164.420448 
L 393.456165 -163.779345 
L 392.680806 -163.030351 
L 391.905447 -162.117305 
L 391.130088 -161.045067 
L 390.354729 -159.889535 
L 389.57937 -158.783643 
L 388.804011 -157.882262 
L 388.028652 -157.316309 
L 387.253293 -157.149833 
L 386.477934 -157.354646 
L 385.702575 -157.811994 
L 384.927216 -158.341986 
L 384.151857 -158.751546 
L 383.376498 -158.885749 
L 382.601139 -158.666994 
L 381.82578 -158.110464 
L 381.050421 -157.312454 
L 380.275062 -156.416587 
L 379.499703 -155.570498 
L 378.724344 -154.88776 
L 377.948985 -154.425884 
L 377.173626 -154.184099 
L 376.398267 -154.117999 
L 375.622908 -154.164208 
L 374.847549 -154.265345 
L 374.07219 -154.386319 
L 373.296831 -154.516289 
L 372.521472 -154.657959 
L 371.746113 -154.81209 
L 370.970754 -154.967073 
L 370.195395 -155.099236 
L 369.420036 -155.183161 
L 368.644677 -155.20533 
L 367.869318 -155.173636 
L 367.093959 -155.117591 
L 366.3186 -155.077977 
L 365.543241 -155.089811 
L 364.767882 -155.166559 
L 363.992523 -155.293911 
L 363.217164 -155.437196 
L 362.441805 -155.558825 
L 361.666446 -155.637724 
L 360.891087 -155.6808 
L 360.115728 -155.719782 
L 359.340369 -155.792742 
L 358.56501 -155.916897 
L 357.789651 -156.065655 
L 357.014292 -156.163749 
L 356.238933 -156.106554 
L 355.463574 -155.797914 
L 354.688215 -155.19097 
L 353.912856 -154.314155 
L 353.137497 -153.269959 
L 352.362138 -152.204816 
L 351.586779 -151.260125 
L 350.81142 -150.52261 
L 350.036061 -149.993532 
L 349.260702 -149.590204 
L 348.485343 -149.18068 
L 347.709984 -148.639159 
L 346.934625 -147.900891 
L 346.159266 -146.99508 
L 345.383907 -146.042504 
L 344.608548 -145.217258 
L 343.833189 -144.685677 
L 343.05783 -144.544376 
L 342.282471 -144.780409 
L 341.507112 -145.267932 
L 340.731753 -145.802024 
L 339.956394 -146.157537 
L 339.181035 -146.15349 
L 338.405676 -145.702975 
L 337.630317 -144.833611 
L 336.854958 -143.673269 
L 336.079599 -142.407908 
L 335.30424 -141.226893 
L 334.528881 -140.273427 
L 333.753522 -139.613717 
L 332.978163 -139.231113 
L 332.202804 -139.043315 
L 331.427445 -138.93352 
L 330.652086 -138.784398 
L 329.876727 -138.505352 
L 329.101368 -138.047732 
L 328.326009 -137.407424 
L 327.55065 -136.618037 
L 326.775291 -135.739208 
L 325.999932 -134.843596 
L 325.224573 -134.004283 
L 324.449214 -133.282195 
L 323.673855 -132.714283 
L 322.898496 -132.304762 
L 322.123137 -132.022877 
L 321.347778 -131.80946 
L 320.572419 -131.591697 
L 319.79706 -131.302692 
L 319.021701 -130.899607 
L 318.246342 -130.374822 
L 317.470983 -129.755767 
L 316.695624 -129.09253 
L 315.920265 -128.436445 
L 315.144906 -127.817471 
L 314.369547 -127.22996 
L 313.594188 -126.63405 
L 312.818829 -125.972343 
L 312.04347 -125.194668 
L 311.268111 -124.27954 
L 310.492752 -123.242589 
L 309.717393 -122.129013 
L 308.942034 -120.9955 
L 308.166675 -119.891298 
L 307.391316 -118.846643 
L 306.615957 -117.871481 
L 305.840598 -116.962738 
L 305.065239 -116.115298 
L 304.28988 -115.331137 
L 303.514521 -114.621679 
L 302.739162 -114.001644 
L 301.963803 -113.477904 
L 301.188444 -113.040209 
L 300.413085 -112.659929 
L 299.637726 -112.297807 
L 298.862367 -111.916276 
L 298.087008 -111.489132 
L 297.311649 -111.002995 
L 296.53629 -110.450534 
L 295.760931 -109.821057 
L 294.985572 -109.096157 
L 294.210213 -108.255326 
L 293.434854 -107.290464 
L 292.659495 -106.222079 
L 291.884136 -105.107555 
L 291.108777 -104.034173 
L 290.333418 -103.095689 
L 289.558059 -102.358914 
L 288.7827 -101.832645 
L 288.007341 -101.453472 
L 287.231982 -101.098529 
L 286.456623 -100.625056 
L 285.681264 -99.924019 
L 284.905905 -98.966532 
L 284.130546 -97.822896 
L 283.355187 -96.644202 
L 282.579828 -95.611273 
L 281.804469 -94.868304 
L 281.02911 -94.466049 
L 280.253751 -94.337434 
L 279.478392 -94.316839 
L 278.703033 -94.19691 
L 277.927674 -93.801853 
L 277.152315 -93.049709 
L 276.376956 -91.979773 
L 275.601597 -90.734214 
L 274.826238 -89.500326 
L 274.050879 -88.43545 
L 273.27552 -87.603975 
L 272.500161 -86.951609 
L 271.724802 -86.327721 
L 270.949443 -85.547259 
L 270.174084 -84.467238 
L 269.398725 -83.046383 
L 268.623366 -81.363418 
L 267.848007 -79.586771 
L 267.072648 -77.908782 
L 266.297289 -76.471629 
L 265.52193 -75.315205 
L 264.746571 -74.367949 
L 263.971212 -73.484264 
L 263.195853 -72.51239 
L 262.420494 -71.363791 
L 261.645135 -70.054675 
L 260.869776 -68.702135 
L 260.094417 -67.477325 
L 259.319058 -66.537133 
L 258.543699 -65.964297 
L 257.76834 -65.740651 
L 256.992981 -65.762401 
L 256.217622 -65.888753 
L 255.442263 -66.001757 
L 254.666904 -66.051521 
L 253.891545 -66.068291 
L 253.116186 -66.1385 
L 252.340827 -66.358541 
L 251.565468 -66.78979 
L 250.790109 -67.435291 
L 250.01475 -68.247482 
L 249.239391 -69.160538 
L 248.464032 -70.130155 
L 247.688673 -71.160101 
L 246.913314 -72.301072 
L 246.137955 -73.620662 
L 245.362596 -75.158162 
L 244.587237 -76.886791 
L 243.811878 -78.704088 
L 243.036519 -80.458684 
L 242.26116 -82.004304 
L 241.485801 -83.258216 
L 240.710442 -84.238511 
L 239.935083 -85.063462 
L 239.159724 -85.912062 
L 238.384365 -86.959454 
L 237.609006 -88.311519 
L 236.833647 -89.963069 
L 236.058288 -91.796247 
L 235.282929 -93.620821 
L 234.50757 -95.24186 
L 233.732211 -96.529181 
L 232.956852 -97.461825 
L 232.181493 -98.13155 
L 231.406134 -98.704921 
L 230.630775 -99.360685 
L 229.855416 -100.227495 
L 229.080057 -101.344896 
L 228.304698 -102.659479 
L 227.529339 -104.05409 
L 226.75398 -105.396391 
L 225.978621 -106.586114 
L 225.203262 -107.583667 
L 224.427903 -108.411901 
L 223.652544 -109.135006 
L 222.877185 -109.826925 
L 222.101826 -110.544143 
L 221.326467 -111.313723 
L 220.551108 -112.138651 
L 219.775749 -113.014808 
L 219.00039 -113.947759 
L 218.225031 -114.95883 
L 217.449672 -116.076215 
L 216.674313 -117.316236 
L 215.898954 -118.666729 
L 215.123595 -120.083923 
L 214.348236 -121.507153 
L 213.572877 -122.885261 
L 212.797518 -124.203012 
L 212.022159 -125.495483 
L 211.2468 -126.843978 
L 210.471441 -128.353613 
L 209.696082 -130.119395 
L 208.920723 -132.192472 
L 208.145364 -134.559432 
L 207.370005 -137.142105 
L 206.594646 -139.817977 
L 205.819287 -142.453573 
L 205.043928 -144.938535 
L 204.268569 -147.208939 
L 203.49321 -149.254893 
L 202.717851 -151.114728 
L 201.942492 -152.862239 
L 201.167133 -154.592114 
L 200.391774 -156.405248 
L 199.616415 -158.392556 
L 198.841056 -160.616474 
L 198.065697 -163.092371 
L 197.290338 -165.775193 
L 196.514979 -168.557506 
L 195.73962 -171.282829 
L 194.964261 -173.774112 
L 194.188902 -175.872092 
L 193.413543 -177.474074 
L 192.638184 -178.561721 
L 191.862825 -179.208321 
L 191.087466 -179.562439 
L 190.312107 -179.813051 
L 189.536748 -180.1466 
L 188.761389 -180.708072 
L 187.98603 -181.575302 
L 187.210671 -182.75124 
L 186.435312 -184.172784 
L 185.659953 -185.73022 
L 184.884594 -187.289988 
L 184.109235 -188.715518 
L 183.333876 -189.884253 
L 182.558517 -190.701517 
L 181.783158 -191.112798 
L 181.007799 -191.114138 
L 180.23244 -190.757967 
L 179.457081 -190.149855 
L 178.681722 -189.432618 
L 177.906363 -188.758083 
L 177.131004 -188.251955 
L 176.355645 -187.981353 
L 175.580286 -187.935421 
L 174.804927 -188.027186 
L 174.029568 -188.11847 
L 173.254209 -188.061522 
L 172.47885 -187.744496 
L 171.703491 -187.125731 
L 170.928132 -186.245109 
L 170.152773 -185.208159 
L 169.377414 -184.148746 
L 168.602055 -183.183757 
L 167.826696 -182.375259 
L 167.051337 -181.71253 
L 166.275978 -181.119736 
L 165.500619 -180.486605 
L 164.72526 -179.710402 
L 163.949901 -178.732978 
L 163.174542 -177.558532 
L 162.399183 -176.246355 
L 161.623824 -174.883688 
L 160.848465 -173.551376 
L 160.073106 -172.296779 
L 159.297747 -171.124671 
L 158.522388 -170.008932 
L 157.747029 -168.918724 
L 156.97167 -167.845984 
L 156.196311 -166.820825 
L 155.420952 -165.90714 
L 154.645593 -165.179477 
L 153.870234 -164.690537 
L 153.094875 -164.443292 
L 152.319516 -164.380437 
L 151.544157 -164.397228 
L 150.768798 -164.37502 
L 149.993439 -164.223428 
L 149.21808 -163.914151 
L 148.442721 -163.492042 
L 147.667362 -163.05832 
L 146.892003 -162.732458 
L 146.116644 -162.607219 
L 145.341285 -162.71301 
L 144.565926 -163.003727 
L 143.790567 -163.368732 
L 143.015208 -163.666908 
L 142.239849 -163.77107 
L 141.46449 -163.607334 
L 140.689131 -163.176287 
L 139.913772 -162.549494 
L 139.138413 -161.844088 
L 138.363054 -161.185532 
L 137.587695 -160.67215 
L 136.812336 -160.353203 
L 136.036977 -160.225891 
L 135.261618 -160.249342 
L 134.486259 -160.368133 
L 133.7109 -160.535692 
L 132.935541 -160.728116 
L 132.160182 -160.943685 
L 131.384823 -161.189252 
L 130.609464 -161.461127 
L 129.834105 -161.731312 
L 129.058746 -161.94764 
L 128.283387 -162.049501 
L 127.508028 -161.992851 
L 126.732669 -161.773498 
L 125.95731 -161.437397 
L 125.181951 -161.071819 
L 124.406592 -160.779041 
L 123.631233 -160.641798 
L 122.855874 -160.693481 
L 122.080515 -160.904658 
L 121.305156 -161.191891 
L 120.529797 -161.445707 
L 119.754438 -161.568662 
L 118.979079 -161.509373 
L 118.20372 -161.278984 
L 117.428361 -160.942424 
L 116.653002 -160.587954 
L 115.877643 -160.289308 
L 115.102284 -160.078108 
L 114.326925 -159.937708 
L 113.551566 -159.81811 
L 112.776207 -159.662523 
L 112.000848 -159.432619 
L 111.225489 -159.121695 
L 110.45013 -158.750978 
L 109.674771 -158.352197 
L 108.899412 -157.946198 
L 108.124053 -157.529608 
L 107.348694 -157.077715 
L 106.573335 -156.563322 
L 105.797976 -155.982803 
L 105.022617 -155.375683 
L 104.247258 -154.82538 
L 103.471899 -154.436898 
L 102.69654 -154.297954 
L 101.921181 -154.438514 
L 101.145822 -154.805936 
L 100.370463 -155.268202 
L 99.595104 -155.646936 
L 98.819745 -155.770213 
L 98.044386 -155.527558 
L 97.269027 -154.908101 
L 96.493668 -154.007576 
L 95.718309 -153.000219 
L 94.94295 -152.084158 
L 94.167591 -151.41978 
L 93.392232 -151.082861 
L 92.616873 -151.048186 
L 91.841514 -151.207228 
L 91.066155 -151.411235 
L 90.290796 -151.523044 
L 89.515437 -151.459122 
L 88.740078 -151.209001 
L 87.964719 -150.828703 
L 87.18936 -150.41389 
L 86.414001 -150.063566 
L 85.638642 -149.846741 
L 84.863283 -149.783533 
L 84.087924 -149.846924 
L 83.312565 -149.982842 
L 82.537206 -150.136087 
L 81.761847 -150.268978 
L 80.986488 -150.366568 
L 80.211129 -150.431668 
L 79.43577 -150.476649 
L 78.660411 -150.515867 
L 77.885052 -150.558676 
L 77.109693 -150.602825 
L 76.334334 -150.631791 
L 75.558975 -150.618424 
L 74.783616 -150.532681 
L 74.008257 -150.348205 
L 73.232898 -150.045784 
L 72.457539 -149.616329 
L 71.68218 -149.066623 
L 70.906821 -148.426439 
L 70.131462 -147.750458 
L 69.356103 -147.10905 
L 68.580744 -146.568058 
L 67.805385 -146.16475 
L 67.030026 -145.890874 
L 66.254667 -145.692249 
L 65.479308 -145.488424 
L 64.703949 -145.206958 
L 63.92859 -144.819823 
L 63.153231 -144.365435 
L 62.377872 -143.943382 
L 61.602513 -143.679532 
L 60.827154 -143.673213 
L 60.051795 -143.948267 
L 59.276436 -144.429579 
L 58.501077 -144.956837 
L 57.725718 -145.332402 
L 56.950359 -145.386432 
L 56.175 -145.035308 
z
" style="stroke: #377eb8; stroke-opacity: 0.3"/>
    </defs>
    <g clip-path="url(#pf380a2229c)">
     <use xlink:href="#mb8028c720d" x="0" y="360" style="fill: #377eb8; fill-opacity: 0.3; stroke: #377eb8; stroke-opacity: 0.3"/>
    </g>
   </g>
   <g id="patch_3">
    <path d="M 234.662642 318.2 
L 234.662642 71.241125 
L 333.908594 71.241125 
L 333.908594 318.2 
z
" clip-path="url(#pf380a2229c)" style="fill: #808080; opacity: 0.3"/>
   </g>
   <g id="matplotlib.axis_1">
    <g id="xtick_1">
     <g id="line2d_1">
      <defs>
       <path id="mf915fea284" d="M 0 0 
L 0 3.5 
" style="stroke: #000000; stroke-width: 0.8"/>
      </defs>
      <g>
       <use xlink:href="#mf915fea284" x="95.718309" y="318.2" style="stroke: #000000; stroke-width: 0.8"/>
      </g>
     </g>
     <g id="text_1">
      <!-- 0.0 -->
      <g transform="translate(87.766746 332.798437)scale(0.1 -0.1)">
       <defs>
        <path id="DejaVuSans-30" d="M 2034 4250 
Q 1547 4250 1301 3770 
Q 1056 3291 1056 2328 
Q 1056 1369 1301 889 
Q 1547 409 2034 409 
Q 2525 409 2770 889 
Q 3016 1369 3016 2328 
Q 3016 3291 2770 3770 
Q 2525 4250 2034 4250 
z
M 2034 4750 
Q 2819 4750 3233 4129 
Q 3647 3509 3647 2328 
Q 3647 1150 3233 529 
Q 2819 -91 2034 -91 
Q 1250 -91 836 529 
Q 422 1150 422 2328 
Q 422 3509 836 4129 
Q 1250 4750 2034 4750 
z
" transform="scale(0.015625)"/>
        <path id="DejaVuSans-2e" d="M 684 794 
L 1344 794 
L 1344 0 
L 684 0 
L 684 794 
z
" transform="scale(0.015625)"/>
       </defs>
       <use xlink:href="#DejaVuSans-30"/>
       <use xlink:href="#DejaVuSans-2e" x="63.623047"/>
       <use xlink:href="#DejaVuSans-30" x="95.410156"/>
      </g>
     </g>
    </g>
    <g id="xtick_2">
     <g id="line2d_2">
      <g>
       <use xlink:href="#mf915fea284" x="175.115071" y="318.2" style="stroke: #000000; stroke-width: 0.8"/>
      </g>
     </g>
     <g id="text_2">
      <!-- 0.2 -->
      <g transform="translate(167.163508 332.798437)scale(0.1 -0.1)">
       <defs>
        <path id="DejaVuSans-32" d="M 1228 531 
L 3431 531 
L 3431 0 
L 469 0 
L 469 531 
Q 828 903 1448 1529 
Q 2069 2156 2228 2338 
Q 2531 2678 2651 2914 
Q 2772 3150 2772 3378 
Q 2772 3750 2511 3984 
Q 2250 4219 1831 4219 
Q 1534 4219 1204 4116 
Q 875 4013 500 3803 
L 500 4441 
Q 881 4594 1212 4672 
Q 1544 4750 1819 4750 
Q 2544 4750 2975 4387 
Q 3406 4025 3406 3419 
Q 3406 3131 3298 2873 
Q 3191 2616 2906 2266 
Q 2828 2175 2409 1742 
Q 1991 1309 1228 531 
z
" transform="scale(0.015625)"/>
       </defs>
       <use xlink:href="#DejaVuSans-30"/>
       <use xlink:href="#DejaVuSans-2e" x="63.623047"/>
       <use xlink:href="#DejaVuSans-32" x="95.410156"/>
      </g>
     </g>
    </g>
    <g id="xtick_3">
     <g id="line2d_3">
      <g>
       <use xlink:href="#mf915fea284" x="254.511832" y="318.2" style="stroke: #000000; stroke-width: 0.8"/>
      </g>
     </g>
     <g id="text_3">
      <!-- 0.4 -->
      <g transform="translate(246.56027 332.798437)scale(0.1 -0.1)">
       <defs>
        <path id="DejaVuSans-34" d="M 2419 4116 
L 825 1625 
L 2419 1625 
L 2419 4116 
z
M 2253 4666 
L 3047 4666 
L 3047 1625 
L 3713 1625 
L 3713 1100 
L 3047 1100 
L 3047 0 
L 2419 0 
L 2419 1100 
L 313 1100 
L 313 1709 
L 2253 4666 
z
" transform="scale(0.015625)"/>
       </defs>
       <use xlink:href="#DejaVuSans-30"/>
       <use xlink:href="#DejaVuSans-2e" x="63.623047"/>
       <use xlink:href="#DejaVuSans-34" x="95.410156"/>
      </g>
     </g>
    </g>
    <g id="xtick_4">
     <g id="line2d_4">
      <g>
       <use xlink:href="#mf915fea284" x="333.908594" y="318.2" style="stroke: #000000; stroke-width: 0.8"/>
      </g>
     </g>
     <g id="text_4">
      <!-- 0.6 -->
      <g transform="translate(325.957031 332.798437)scale(0.1 -0.1)">
       <defs>
        <path id="DejaVuSans-36" d="M 2113 2584 
Q 1688 2584 1439 2293 
Q 1191 2003 1191 1497 
Q 1191 994 1439 701 
Q 1688 409 2113 409 
Q 2538 409 2786 701 
Q 3034 994 3034 1497 
Q 3034 2003 2786 2293 
Q 2538 2584 2113 2584 
z
M 3366 4563 
L 3366 3988 
Q 3128 4100 2886 4159 
Q 2644 4219 2406 4219 
Q 1781 4219 1451 3797 
Q 1122 3375 1075 2522 
Q 1259 2794 1537 2939 
Q 1816 3084 2150 3084 
Q 2853 3084 3261 2657 
Q 3669 2231 3669 1497 
Q 3669 778 3244 343 
Q 2819 -91 2113 -91 
Q 1303 -91 875 529 
Q 447 1150 447 2328 
Q 447 3434 972 4092 
Q 1497 4750 2381 4750 
Q 2619 4750 2861 4703 
Q 3103 4656 3366 4563 
z
" transform="scale(0.015625)"/>
       </defs>
       <use xlink:href="#DejaVuSans-30"/>
       <use xlink:href="#DejaVuSans-2e" x="63.623047"/>
       <use xlink:href="#DejaVuSans-36" x="95.410156"/>
      </g>
     </g>
    </g>
    <g id="xtick_5">
     <g id="line2d_5">
      <g>
       <use xlink:href="#mf915fea284" x="413.305355" y="318.2" style="stroke: #000000; stroke-width: 0.8"/>
      </g>
     </g>
     <g id="text_5">
      <!-- 0.8 -->
      <g transform="translate(405.353793 332.798437)scale(0.1 -0.1)">
       <defs>
        <path id="DejaVuSans-38" d="M 2034 2216 
Q 1584 2216 1326 1975 
Q 1069 1734 1069 1313 
Q 1069 891 1326 650 
Q 1584 409 2034 409 
Q 2484 409 2743 651 
Q 3003 894 3003 1313 
Q 3003 1734 2745 1975 
Q 2488 2216 2034 2216 
z
M 1403 2484 
Q 997 2584 770 2862 
Q 544 3141 544 3541 
Q 544 4100 942 4425 
Q 1341 4750 2034 4750 
Q 2731 4750 3128 4425 
Q 3525 4100 3525 3541 
Q 3525 3141 3298 2862 
Q 3072 2584 2669 2484 
Q 3125 2378 3379 2068 
Q 3634 1759 3634 1313 
Q 3634 634 3220 271 
Q 2806 -91 2034 -91 
Q 1263 -91 848 271 
Q 434 634 434 1313 
Q 434 1759 690 2068 
Q 947 2378 1403 2484 
z
M 1172 3481 
Q 1172 3119 1398 2916 
Q 1625 2713 2034 2713 
Q 2441 2713 2670 2916 
Q 2900 3119 2900 3481 
Q 2900 3844 2670 4047 
Q 2441 4250 2034 4250 
Q 1625 4250 1398 4047 
Q 1172 3844 1172 3481 
z
" transform="scale(0.015625)"/>
       </defs>
       <use xlink:href="#DejaVuSans-30"/>
       <use xlink:href="#DejaVuSans-2e" x="63.623047"/>
       <use xlink:href="#DejaVuSans-38" x="95.410156"/>
      </g>
     </g>
    </g>
    <g id="text_6">
     <!-- seconds -->
     <g transform="translate(214.457749 346.476562)scale(0.1 -0.1)">
      <defs>
       <path id="DejaVuSans-73" d="M 2834 3397 
L 2834 2853 
Q 2591 2978 2328 3040 
Q 2066 3103 1784 3103 
Q 1356 3103 1142 2972 
Q 928 2841 928 2578 
Q 928 2378 1081 2264 
Q 1234 2150 1697 2047 
L 1894 2003 
Q 2506 1872 2764 1633 
Q 3022 1394 3022 966 
Q 3022 478 2636 193 
Q 2250 -91 1575 -91 
Q 1294 -91 989 -36 
Q 684 19 347 128 
L 347 722 
Q 666 556 975 473 
Q 1284 391 1588 391 
Q 1994 391 2212 530 
Q 2431 669 2431 922 
Q 2431 1156 2273 1281 
Q 2116 1406 1581 1522 
L 1381 1569 
Q 847 1681 609 1914 
Q 372 2147 372 2553 
Q 372 3047 722 3315 
Q 1072 3584 1716 3584 
Q 2034 3584 2315 3537 
Q 2597 3491 2834 3397 
z
" transform="scale(0.015625)"/>
       <path id="DejaVuSans-65" d="M 3597 1894 
L 3597 1613 
L 953 1613 
Q 991 1019 1311 708 
Q 1631 397 2203 397 
Q 2534 397 2845 478 
Q 3156 559 3463 722 
L 3463 178 
Q 3153 47 2828 -22 
Q 2503 -91 2169 -91 
Q 1331 -91 842 396 
Q 353 884 353 1716 
Q 353 2575 817 3079 
Q 1281 3584 2069 3584 
Q 2775 3584 3186 3129 
Q 3597 2675 3597 1894 
z
M 3022 2063 
Q 3016 2534 2758 2815 
Q 2500 3097 2075 3097 
Q 1594 3097 1305 2825 
Q 1016 2553 972 2059 
L 3022 2063 
z
" transform="scale(0.015625)"/>
       <path id="DejaVuSans-63" d="M 3122 3366 
L 3122 2828 
Q 2878 2963 2633 3030 
Q 2388 3097 2138 3097 
Q 1578 3097 1268 2742 
Q 959 2388 959 1747 
Q 959 1106 1268 751 
Q 1578 397 2138 397 
Q 2388 397 2633 464 
Q 2878 531 3122 666 
L 3122 134 
Q 2881 22 2623 -34 
Q 2366 -91 2075 -91 
Q 1284 -91 818 406 
Q 353 903 353 1747 
Q 353 2603 823 3093 
Q 1294 3584 2113 3584 
Q 2378 3584 2631 3529 
Q 2884 3475 3122 3366 
z
" transform="scale(0.015625)"/>
       <path id="DejaVuSans-6f" d="M 1959 3097 
Q 1497 3097 1228 2736 
Q 959 2375 959 1747 
Q 959 1119 1226 758 
Q 1494 397 1959 397 
Q 2419 397 2687 759 
Q 2956 1122 2956 1747 
Q 2956 2369 2687 2733 
Q 2419 3097 1959 3097 
z
M 1959 3584 
Q 2709 3584 3137 3096 
Q 3566 2609 3566 1747 
Q 3566 888 3137 398 
Q 2709 -91 1959 -91 
Q 1206 -91 779 398 
Q 353 888 353 1747 
Q 353 2609 779 3096 
Q 1206 3584 1959 3584 
z
" transform="scale(0.015625)"/>
       <path id="DejaVuSans-6e" d="M 3513 2113 
L 3513 0 
L 2938 0 
L 2938 2094 
Q 2938 2591 2744 2837 
Q 2550 3084 2163 3084 
Q 1697 3084 1428 2787 
Q 1159 2491 1159 1978 
L 1159 0 
L 581 0 
L 581 3500 
L 1159 3500 
L 1159 2956 
Q 1366 3272 1645 3428 
Q 1925 3584 2291 3584 
Q 2894 3584 3203 3211 
Q 3513 2838 3513 2113 
z
" transform="scale(0.015625)"/>
       <path id="DejaVuSans-64" d="M 2906 2969 
L 2906 4863 
L 3481 4863 
L 3481 0 
L 2906 0 
L 2906 525 
Q 2725 213 2448 61 
Q 2172 -91 1784 -91 
Q 1150 -91 751 415 
Q 353 922 353 1747 
Q 353 2572 751 3078 
Q 1150 3584 1784 3584 
Q 2172 3584 2448 3432 
Q 2725 3281 2906 2969 
z
M 947 1747 
Q 947 1113 1208 752 
Q 1469 391 1925 391 
Q 2381 391 2643 752 
Q 2906 1113 2906 1747 
Q 2906 2381 2643 2742 
Q 2381 3103 1925 3103 
Q 1469 3103 1208 2742 
Q 947 2381 947 1747 
z
" transform="scale(0.015625)"/>
      </defs>
      <use xlink:href="#DejaVuSans-73"/>
      <use xlink:href="#DejaVuSans-65" x="52.099609"/>
      <use xlink:href="#DejaVuSans-63" x="113.623047"/>
      <use xlink:href="#DejaVuSans-6f" x="168.603516"/>
      <use xlink:href="#DejaVuSans-6e" x="229.785156"/>
      <use xlink:href="#DejaVuSans-64" x="293.164062"/>
      <use xlink:href="#DejaVuSans-73" x="356.640625"/>
     </g>
    </g>
   </g>
   <g id="matplotlib.axis_2">
    <g id="ytick_1">
     <g id="line2d_6">
      <defs>
       <path id="m85f9414fa0" d="M 0 0 
L -3.5 0 
" style="stroke: #000000; stroke-width: 0.8"/>
      </defs>
      <g>
       <use xlink:href="#m85f9414fa0" x="56.175" y="302.731864" style="stroke: #000000; stroke-width: 0.8"/>
      </g>
     </g>
     <g id="text_7">
      <!-- 1.5 -->
      <g transform="translate(24.892188 306.531083)scale(0.1 -0.1)">
       <defs>
        <path id="DejaVuSans-2212" d="M 678 2272 
L 4684 2272 
L 4684 1741 
L 678 1741 
L 678 2272 
z
" transform="scale(0.015625)"/>
        <path id="DejaVuSans-31" d="M 794 531 
L 1825 531 
L 1825 4091 
L 703 3866 
L 703 4441 
L 1819 4666 
L 2450 4666 
L 2450 531 
L 3481 531 
L 3481 0 
L 794 0 
L 794 531 
z
" transform="scale(0.015625)"/>
        <path id="DejaVuSans-35" d="M 691 4666 
L 3169 4666 
L 3169 4134 
L 1269 4134 
L 1269 2991 
Q 1406 3038 1543 3061 
Q 1681 3084 1819 3084 
Q 2600 3084 3056 2656 
Q 3513 2228 3513 1497 
Q 3513 744 3044 326 
Q 2575 -91 1722 -91 
Q 1428 -91 1123 -41 
Q 819 9 494 109 
L 494 744 
Q 775 591 1075 516 
Q 1375 441 1709 441 
Q 2250 441 2565 725 
Q 2881 1009 2881 1497 
Q 2881 1984 2565 2268 
Q 2250 2553 1709 2553 
Q 1456 2553 1204 2497 
Q 953 2441 691 2322 
L 691 4666 
z
" transform="scale(0.015625)"/>
       </defs>
       <use xlink:href="#DejaVuSans-2212"/>
       <use xlink:href="#DejaVuSans-31" x="83.789062"/>
       <use xlink:href="#DejaVuSans-2e" x="147.412109"/>
       <use xlink:href="#DejaVuSans-35" x="179.199219"/>
      </g>
     </g>
    </g>
    <g id="ytick_2">
     <g id="line2d_7">
      <g>
       <use xlink:href="#m85f9414fa0" x="56.175" y="273.368086" style="stroke: #000000; stroke-width: 0.8"/>
      </g>
     </g>
     <g id="text_8">
      <!-- 1.0 -->
      <g transform="translate(24.892188 277.167305)scale(0.1 -0.1)">
       <use xlink:href="#DejaVuSans-2212"/>
       <use xlink:href="#DejaVuSans-31" x="83.789062"/>
       <use xlink:href="#DejaVuSans-2e" x="147.412109"/>
       <use xlink:href="#DejaVuSans-30" x="179.199219"/>
      </g>
     </g>
    </g>
    <g id="ytick_3">
     <g id="line2d_8">
      <g>
       <use xlink:href="#m85f9414fa0" x="56.175" y="244.004308" style="stroke: #000000; stroke-width: 0.8"/>
      </g>
     </g>
     <g id="text_9">
      <!-- 0.5 -->
      <g transform="translate(24.892188 247.803526)scale(0.1 -0.1)">
       <use xlink:href="#DejaVuSans-2212"/>
       <use xlink:href="#DejaVuSans-30" x="83.789062"/>
       <use xlink:href="#DejaVuSans-2e" x="147.412109"/>
       <use xlink:href="#DejaVuSans-35" x="179.199219"/>
      </g>
     </g>
    </g>
    <g id="ytick_4">
     <g id="line2d_9">
      <g>
       <use xlink:href="#m85f9414fa0" x="56.175" y="214.64053" style="stroke: #000000; stroke-width: 0.8"/>
      </g>
     </g>
     <g id="text_10">
      <!-- 0.0 -->
      <g transform="translate(33.271875 218.439748)scale(0.1 -0.1)">
       <use xlink:href="#DejaVuSans-30"/>
       <use xlink:href="#DejaVuSans-2e" x="63.623047"/>
       <use xlink:href="#DejaVuSans-30" x="95.410156"/>
      </g>
     </g>
    </g>
    <g id="ytick_5">
     <g id="line2d_10">
      <g>
       <use xlink:href="#m85f9414fa0" x="56.175" y="185.276752" style="stroke: #000000; stroke-width: 0.8"/>
      </g>
     </g>
     <g id="text_11">
      <!-- 0.5 -->
      <g transform="translate(33.271875 189.07597)scale(0.1 -0.1)">
       <use xlink:href="#DejaVuSans-30"/>
       <use xlink:href="#DejaVuSans-2e" x="63.623047"/>
       <use xlink:href="#DejaVuSans-35" x="95.410156"/>
      </g>
     </g>
    </g>
    <g id="ytick_6">
     <g id="line2d_11">
      <g>
       <use xlink:href="#m85f9414fa0" x="56.175" y="155.912974" style="stroke: #000000; stroke-width: 0.8"/>
      </g>
     </g>
     <g id="text_12">
      <!-- 1.0 -->
      <g transform="translate(33.271875 159.712192)scale(0.1 -0.1)">
       <use xlink:href="#DejaVuSans-31"/>
       <use xlink:href="#DejaVuSans-2e" x="63.623047"/>
       <use xlink:href="#DejaVuSans-30" x="95.410156"/>
      </g>
     </g>
    </g>
    <g id="ytick_7">
     <g id="line2d_12">
      <g>
       <use xlink:href="#m85f9414fa0" x="56.175" y="126.549195" style="stroke: #000000; stroke-width: 0.8"/>
      </g>
     </g>
     <g id="text_13">
      <!-- 1.5 -->
      <g transform="translate(33.271875 130.348414)scale(0.1 -0.1)">
       <use xlink:href="#DejaVuSans-31"/>
       <use xlink:href="#DejaVuSans-2e" x="63.623047"/>
       <use xlink:href="#DejaVuSans-35" x="95.410156"/>
      </g>
     </g>
    </g>
    <g id="ytick_8">
     <g id="line2d_13">
      <g>
       <use xlink:href="#m85f9414fa0" x="56.175" y="97.185417" style="stroke: #000000; stroke-width: 0.8"/>
      </g>
     </g>
     <g id="text_14">
      <!-- 2.0 -->
      <g transform="translate(33.271875 100.984636)scale(0.1 -0.1)">
       <use xlink:href="#DejaVuSans-32"/>
       <use xlink:href="#DejaVuSans-2e" x="63.623047"/>
       <use xlink:href="#DejaVuSans-30" x="95.410156"/>
      </g>
     </g>
    </g>
    <g id="text_15">
     <!-- V -->
     <g transform="translate(18.8125 201.322125)rotate(-90)scale(0.1 -0.1)">
      <defs>
       <path id="DejaVuSans-b5" d="M 544 -1331 
L 544 3500 
L 1119 3500 
L 1119 1325 
Q 1119 872 1334 640 
Q 1550 409 1972 409 
Q 2434 409 2667 671 
Q 2900 934 2900 1459 
L 2900 3500 
L 3475 3500 
L 3475 806 
Q 3475 619 3529 530 
Q 3584 441 3700 441 
Q 3728 441 3778 458 
Q 3828 475 3916 513 
L 3916 50 
Q 3788 -22 3673 -56 
Q 3559 -91 3450 -91 
Q 3234 -91 3106 31 
Q 2978 153 2931 403 
Q 2775 156 2548 32 
Q 2322 -91 2016 -91 
Q 1697 -91 1473 31 
Q 1250 153 1119 397 
L 1119 -1331 
L 544 -1331 
z
" transform="scale(0.015625)"/>
       <path id="DejaVuSans-56" d="M 1831 0 
L 50 4666 
L 709 4666 
L 2188 738 
L 3669 4666 
L 4325 4666 
L 2547 0 
L 1831 0 
z
" transform="scale(0.015625)"/>
      </defs>
      <use xlink:href="#DejaVuSans-b5"/>
      <use xlink:href="#DejaVuSans-56" x="63.623047"/>
     </g>
    </g>
   </g>
   <g id="line2d_14">
    <path d="M 56.175 243.427036 
L 56.950359 242.313648 
L 58.501077 239.179217 
L 60.827154 234.113582 
L 64.703949 226.399127 
L 66.254667 223.135993 
L 67.030026 221.712432 
L 67.805385 220.542742 
L 68.580744 219.663509 
L 69.356103 219.052249 
L 71.68218 217.827959 
L 72.457539 217.185551 
L 73.232898 216.259768 
L 74.008257 215.037092 
L 77.109693 209.098449 
L 77.885052 208.035482 
L 78.660411 207.306983 
L 79.43577 206.876804 
L 82.537206 205.889598 
L 84.087924 204.730745 
L 85.638642 203.527694 
L 86.414001 203.148674 
L 87.18936 202.969742 
L 89.515437 202.850391 
L 90.290796 202.474546 
L 91.066155 201.714147 
L 91.841514 200.533456 
L 93.392232 197.238664 
L 94.94295 193.957306 
L 95.718309 192.841969 
L 96.493668 192.237171 
L 97.269027 192.122744 
L 98.044386 192.360551 
L 99.595104 192.981598 
L 100.370463 192.924074 
L 101.145822 192.470433 
L 101.921181 191.675151 
L 103.471899 189.846509 
L 104.247258 189.291036 
L 105.022617 189.181682 
L 105.797976 189.494885 
L 107.348694 190.571595 
L 108.124053 190.762034 
L 108.899412 190.41738 
L 109.674771 189.487004 
L 111.225489 186.473294 
L 112.000848 184.922885 
L 112.776207 183.674348 
L 113.551566 182.843954 
L 114.326925 182.412079 
L 115.102284 182.258444 
L 118.979079 182.145338 
L 119.754438 182.312341 
L 121.305156 182.992099 
L 122.855874 183.62969 
L 124.406592 184.001795 
L 125.181951 184.312855 
L 125.95731 184.884564 
L 126.732669 185.780904 
L 129.834105 190.304365 
L 130.609464 190.705095 
L 131.384823 190.614804 
L 132.160182 190.121376 
L 136.036977 186.503805 
L 137.587695 185.511179 
L 138.363054 185.169789 
L 139.138413 185.039183 
L 139.913772 185.21159 
L 140.689131 185.729486 
L 142.239849 187.504495 
L 143.015208 188.382545 
L 143.790567 188.929705 
L 144.565926 188.942448 
L 145.341285 188.315737 
L 146.116644 187.066409 
L 146.892003 185.320666 
L 149.993439 177.179605 
L 151.544157 174.121042 
L 153.094875 171.876423 
L 154.645593 170.14043 
L 156.196311 168.463425 
L 156.97167 167.450315 
L 157.747029 166.222954 
L 159.297747 163.066763 
L 161.623824 157.749268 
L 162.399183 156.276828 
L 163.949901 154.004654 
L 165.500619 152.003506 
L 166.275978 150.769096 
L 167.051337 149.251755 
L 168.602055 145.368414 
L 171.703491 136.656523 
L 173.254209 133.167484 
L 174.804927 130.417688 
L 177.906363 125.847576 
L 180.23244 122.556897 
L 181.007799 121.757584 
L 181.783158 121.299551 
L 182.558517 121.284128 
L 183.333876 121.759312 
L 184.109235 122.695788 
L 185.659953 125.430701 
L 186.435312 126.835413 
L 187.210671 128.001368 
L 187.98603 128.804234 
L 188.761389 129.222662 
L 189.536748 129.346963 
L 190.312107 129.357782 
L 191.087466 129.480195 
L 191.862825 129.927168 
L 192.638184 130.849964 
L 193.413543 132.311393 
L 194.188902 134.288967 
L 195.73962 139.46255 
L 197.290338 145.758441 
L 198.841056 152.958178 
L 201.942492 167.948607 
L 202.717851 170.895598 
L 203.49321 173.259674 
L 204.268569 175.061692 
L 205.043928 176.421811 
L 208.920723 182.076525 
L 217.449672 196.444752 
L 219.775749 199.661545 
L 221.326467 202.407851 
L 222.877185 205.493665 
L 223.652544 206.79828 
L 224.427903 207.731166 
L 225.203262 208.205424 
L 225.978621 208.224261 
L 226.75398 207.874153 
L 228.304698 206.626103 
L 229.855416 205.44065 
L 233.732211 203.212357 
L 235.282929 201.873412 
L 236.833647 200.54079 
L 237.609006 200.137959 
L 238.384365 200.080057 
L 239.159724 200.457655 
L 239.935083 201.279352 
L 242.26116 204.719881 
L 243.036519 205.173927 
L 243.811878 204.789185 
L 244.587237 203.476542 
L 245.362596 201.376609 
L 246.913314 196.370104 
L 247.688673 194.424044 
L 248.464032 193.323614 
L 249.239391 193.117279 
L 250.01475 193.557546 
L 250.790109 194.165591 
L 251.565468 194.371366 
L 252.340827 193.684924 
L 253.116186 191.843481 
L 253.891545 188.887019 
L 256.992981 174.281824 
L 257.76834 172.13986 
L 258.543699 170.909766 
L 259.319058 170.37716 
L 260.869776 170.050694 
L 261.645135 169.609385 
L 262.420494 168.701842 
L 263.195853 167.267362 
L 263.971212 165.351668 
L 265.52193 160.589961 
L 267.848007 153.243493 
L 271.724802 141.9532 
L 274.826238 131.716114 
L 275.601597 129.843077 
L 276.376956 128.447056 
L 277.152315 127.46591 
L 279.478392 125.309989 
L 280.253751 124.312738 
L 281.804469 121.715617 
L 283.355187 118.987635 
L 286.456623 113.956049 
L 288.007341 110.334373 
L 289.558059 106.410047 
L 290.333418 104.927076 
L 291.108777 104.060252 
L 291.884136 103.8803 
L 292.659495 104.282336 
L 294.210213 105.674083 
L 294.985572 105.950973 
L 295.760931 105.587876 
L 296.53629 104.523093 
L 297.311649 102.893127 
L 298.862367 99.168042 
L 299.637726 97.744656 
L 300.413085 96.906507 
L 301.188444 96.670962 
L 301.963803 96.900085 
L 303.514521 97.819653 
L 304.28988 98.100846 
L 305.065239 98.149917 
L 307.391316 97.767939 
L 308.166675 97.868523 
L 308.942034 98.161026 
L 311.268111 99.285558 
L 312.04347 99.387004 
L 312.818829 99.286853 
L 315.144906 98.550469 
L 315.920265 98.468399 
L 317.470983 98.69617 
L 319.021701 99.015374 
L 320.572419 98.986857 
L 322.123137 98.942596 
L 322.898496 99.200155 
L 323.673855 99.776902 
L 324.449214 100.693639 
L 327.55065 105.470368 
L 328.326009 106.102707 
L 329.101368 106.323502 
L 329.876727 106.206699 
L 331.427445 105.650696 
L 332.202804 105.597581 
L 332.978163 105.860996 
L 333.753522 106.435642 
L 335.30424 107.981057 
L 336.079599 108.555367 
L 336.854958 108.772123 
L 337.630317 108.573021 
L 338.405676 108.015251 
L 339.956394 106.483292 
L 340.731753 105.897119 
L 341.507112 105.617341 
L 342.282471 105.679511 
L 343.05783 106.037251 
L 344.608548 107.245324 
L 346.934625 109.166338 
L 348.485343 110.293316 
L 350.036061 111.129023 
L 350.81142 111.334104 
L 351.586779 111.369256 
L 353.137497 111.040617 
L 355.463574 110.189741 
L 356.238933 109.813202 
L 357.014292 109.312205 
L 357.789651 108.652642 
L 361.666446 104.681459 
L 366.3186 101.635256 
L 367.093959 101.36504 
L 367.869318 101.491072 
L 368.644677 102.102495 
L 369.420036 103.176826 
L 372.521472 108.596204 
L 373.296831 109.355736 
L 374.07219 109.797107 
L 375.622908 110.157947 
L 377.948985 110.425038 
L 378.724344 110.329296 
L 379.499703 110.042575 
L 381.82578 108.606538 
L 382.601139 108.401442 
L 383.376498 108.530803 
L 384.151857 108.976166 
L 385.702575 110.156663 
L 386.477934 110.407484 
L 387.253293 110.160354 
L 388.028652 109.362275 
L 389.57937 106.702946 
L 390.354729 105.422635 
L 391.130088 104.585391 
L 391.905447 104.376418 
L 392.680806 104.808204 
L 393.456165 105.714987 
L 395.006883 107.749863 
L 395.782242 108.279021 
L 396.557601 108.256888 
L 397.33296 107.709228 
L 398.883678 105.743301 
L 399.659037 104.757922 
L 400.434396 103.962702 
L 401.985114 102.858217 
L 402.760473 102.307269 
L 403.535832 101.58539 
L 405.08655 99.551596 
L 406.637268 97.511764 
L 407.412627 96.897632 
L 408.187986 96.663965 
L 408.963345 96.753957 
L 410.514063 97.221917 
L 411.289422 97.204036 
L 412.064781 96.847356 
L 412.84014 96.156157 
L 413.615499 95.236517 
L 413.615499 95.236517 
" clip-path="url(#pf380a2229c)" style="fill: none; stroke: #e41a1c; stroke-width: 1.5; stroke-linecap: square"/>
   </g>
   <g id="line2d_15">
    <path d="M 56.175 218.757837 
L 56.950359 218.33175 
L 57.725718 218.310368 
L 58.501077 218.611971 
L 60.051795 219.48675 
L 60.827154 219.706488 
L 61.602513 219.653753 
L 62.377872 219.350768 
L 64.703949 217.986337 
L 66.254667 217.448945 
L 67.805385 216.951591 
L 68.580744 216.54272 
L 70.131462 215.350651 
L 71.68218 214.025513 
L 73.232898 213.055352 
L 74.783616 212.588087 
L 76.334334 212.480031 
L 80.211129 212.663193 
L 82.537206 212.970183 
L 84.863283 213.340754 
L 85.638642 213.292539 
L 86.414001 213.100679 
L 89.515437 211.845255 
L 90.290796 211.814566 
L 91.841514 212.203718 
L 92.616873 212.409404 
L 93.392232 212.432793 
L 94.167591 212.167465 
L 94.94295 211.58707 
L 97.269027 209.024055 
L 98.044386 208.469864 
L 98.819745 208.278144 
L 99.595104 208.442958 
L 101.921181 209.775289 
L 102.69654 209.963539 
L 103.471899 209.871841 
L 104.247258 209.525552 
L 108.899412 206.517848 
L 111.225489 205.419837 
L 112.776207 204.926455 
L 115.877643 204.35478 
L 118.979079 203.195901 
L 119.754438 203.151705 
L 120.529797 203.290205 
L 122.855874 204.108148 
L 123.631233 204.184148 
L 124.406592 204.069485 
L 127.508028 202.944801 
L 128.283387 202.909629 
L 129.834105 203.262836 
L 132.935541 204.348854 
L 135.261618 204.902228 
L 136.036977 204.946021 
L 136.812336 204.836589 
L 137.587695 204.533942 
L 138.363054 204.036996 
L 140.689131 202.112708 
L 141.46449 201.708583 
L 142.239849 201.570555 
L 143.015208 201.697118 
L 145.341285 202.691203 
L 146.116644 202.801712 
L 146.892003 202.678279 
L 148.442721 201.921602 
L 149.993439 201.201608 
L 150.768798 201.058976 
L 153.094875 201.028339 
L 153.870234 200.794899 
L 154.645593 200.317673 
L 155.420952 199.598842 
L 156.97167 197.671957 
L 160.073106 193.238837 
L 162.399183 189.313329 
L 163.949901 186.855244 
L 164.72526 185.890608 
L 166.275978 184.495253 
L 167.826696 183.247471 
L 169.377414 181.489957 
L 170.928132 179.417248 
L 171.703491 178.549504 
L 172.47885 177.942923 
L 173.254209 177.63637 
L 174.029568 177.587918 
L 175.580286 177.785243 
L 176.355645 177.747048 
L 177.131004 177.485055 
L 177.906363 176.988228 
L 180.23244 175.020161 
L 181.007799 174.676155 
L 181.783158 174.689719 
L 182.558517 175.112065 
L 183.333876 175.93797 
L 184.109235 177.112243 
L 185.659953 180.101747 
L 187.210671 183.087057 
L 187.98603 184.27021 
L 188.761389 185.1466 
L 189.536748 185.717195 
L 191.862825 186.672208 
L 192.638184 187.32359 
L 193.413543 188.417482 
L 194.188902 190.026686 
L 194.964261 192.131289 
L 196.514979 197.352664 
L 198.841056 205.288214 
L 200.391774 209.513058 
L 204.268569 218.739265 
L 205.819287 223.502419 
L 208.920723 233.787502 
L 210.471441 237.643886 
L 212.022159 240.517733 
L 214.348236 244.543049 
L 216.674313 248.7649 
L 218.225031 251.138308 
L 219.775749 253.098832 
L 222.101826 255.587655 
L 225.203262 258.554026 
L 225.978621 259.54703 
L 227.529339 262.068031 
L 229.080057 264.770643 
L 229.855416 265.888292 
L 230.630775 266.758536 
L 232.956852 268.683979 
L 233.732211 269.624642 
L 234.50757 270.916014 
L 236.058288 274.360297 
L 237.609006 277.843829 
L 238.384365 279.197452 
L 239.159724 280.24795 
L 241.485801 282.927869 
L 242.26116 284.193891 
L 243.811878 287.506983 
L 245.362596 291.049803 
L 246.913314 293.909297 
L 248.464032 296.0972 
L 250.01475 298.006263 
L 250.790109 298.832743 
L 251.565468 299.4916 
L 252.340827 299.934607 
L 253.116186 300.165176 
L 257.76834 300.616973 
L 258.543699 300.393754 
L 259.319058 299.818502 
L 260.094417 298.875105 
L 263.971212 292.877182 
L 265.52193 291.052698 
L 266.297289 289.900206 
L 267.072648 288.467885 
L 270.174084 281.935038 
L 270.949443 280.859099 
L 272.500161 279.457999 
L 273.27552 278.807961 
L 274.050879 277.981528 
L 275.601597 275.701674 
L 277.152315 273.409988 
L 277.927674 272.668416 
L 278.703033 272.281384 
L 281.02911 272.01604 
L 281.804469 271.612135 
L 282.579828 270.869715 
L 284.130546 268.669289 
L 285.681264 266.585934 
L 286.456623 265.892655 
L 288.007341 265.078703 
L 288.7827 264.708832 
L 289.558059 264.193823 
L 290.333418 263.4693 
L 291.884136 261.480898 
L 294.210213 258.361848 
L 295.760931 256.806766 
L 297.311649 255.631349 
L 298.862367 254.72183 
L 301.963803 253.158543 
L 303.514521 252.026429 
L 305.065239 250.545999 
L 306.615957 248.802739 
L 308.166675 246.79654 
L 311.268111 242.410511 
L 312.818829 240.71104 
L 314.369547 239.457413 
L 316.695624 237.645603 
L 318.246342 236.388582 
L 319.79706 235.464233 
L 321.347778 234.959156 
L 322.898496 234.468947 
L 323.673855 234.061924 
L 324.449214 233.496602 
L 325.999932 231.942366 
L 328.326009 229.399936 
L 329.101368 228.769182 
L 329.876727 228.32026 
L 330.652086 228.04718 
L 332.978163 227.592671 
L 333.753522 227.201814 
L 334.528881 226.535007 
L 335.30424 225.578152 
L 337.630317 221.991387 
L 338.405676 221.134182 
L 339.181035 220.69456 
L 339.956394 220.698634 
L 340.731753 221.059369 
L 342.282471 222.087579 
L 343.05783 222.328737 
L 343.833189 222.195958 
L 344.608548 221.676454 
L 346.159266 219.925968 
L 347.709984 218.298651 
L 349.260702 217.353431 
L 350.81142 216.427603 
L 351.586779 215.695282 
L 353.137497 213.697068 
L 354.688215 211.786668 
L 355.463574 211.184264 
L 356.238933 210.879154 
L 357.014292 210.82454 
L 366.3186 211.975752 
L 369.420036 211.903094 
L 370.970754 212.13727 
L 374.847549 212.86277 
L 376.398267 213.011734 
L 377.173626 212.945916 
L 377.948985 212.704332 
L 378.724344 212.241604 
L 379.499703 211.55633 
L 381.82578 209.012411 
L 382.601139 208.461238 
L 383.376498 208.251098 
L 384.151857 208.395773 
L 385.702575 209.357156 
L 386.477934 209.824653 
L 387.253293 210.038665 
L 388.028652 209.87998 
L 388.804011 209.319949 
L 389.57937 208.422636 
L 392.680806 204.188249 
L 394.231524 202.805159 
L 395.782242 201.504268 
L 397.33296 199.743152 
L 398.883678 197.488526 
L 402.760473 191.124756 
L 404.311191 188.692595 
L 406.637268 185.56954 
L 408.187986 183.365706 
L 409.738704 180.422265 
L 412.84014 173.350908 
L 413.615499 172.022969 
L 413.615499 172.022969 
" clip-path="url(#pf380a2229c)" style="fill: none; stroke: #377eb8; stroke-width: 1.5; stroke-linecap: square"/>
   </g>
   <g id="line2d_16">
    <path d="M 95.718309 318.2 
L 95.718309 71.241125 
" clip-path="url(#pf380a2229c)" style="fill: none; stroke: #000000; stroke-width: 0.5; stroke-linecap: square"/>
   </g>
   <g id="line2d_17">
    <path d="M 56.175 214.64053 
L 413.615499 214.64053 
" clip-path="url(#pf380a2229c)" style="fill: none; stroke: #000000; stroke-width: 0.5; stroke-linecap: square"/>
   </g>
   <g id="patch_4">
    <path d="M 56.175 318.2 
L 56.175 71.241125 
" style="fill: none; stroke: #000000; stroke-width: 0.8; stroke-linejoin: miter; stroke-linecap: square"/>
   </g>
   <g id="patch_5">
    <path d="M 413.615499 318.2 
L 413.615499 71.241125 
" style="fill: none; stroke: #000000; stroke-width: 0.8; stroke-linejoin: miter; stroke-linecap: square"/>
   </g>
   <g id="patch_6">
    <path d="M 56.175 318.2 
L 413.615499 318.2 
" style="fill: none; stroke: #000000; stroke-width: 0.8; stroke-linejoin: miter; stroke-linecap: square"/>
   </g>
   <g id="patch_7">
    <path d="M 56.175 71.241125 
L 413.615499 71.241125 
" style="fill: none; stroke: #000000; stroke-width: 0.8; stroke-linejoin: miter; stroke-linecap: square"/>
   </g>
   <g id="legend_1">
    <g id="patch_8">
     <path d="M 95.124156 48.044893 
L 374.666343 48.044893 
Q 376.666343 48.044893 376.666343 46.044893 
L 376.666343 17.410517 
Q 376.666343 15.410517 374.666343 15.410517 
L 95.124156 15.410517 
Q 93.124156 15.410517 93.124156 17.410517 
L 93.124156 46.044893 
Q 93.124156 48.044893 95.124156 48.044893 
z
" style="fill: #ffffff; opacity: 0.8; stroke: #cccccc; stroke-linejoin: miter"/>
    </g>
    <g id="text_16">
     <!-- Average of Session 4tac_all at Pz -->
     <g transform="translate(152.560093 27.008955)scale(0.1 -0.1)">
      <defs>
       <path id="DejaVuSans-41" d="M 2188 4044 
L 1331 1722 
L 3047 1722 
L 2188 4044 
z
M 1831 4666 
L 2547 4666 
L 4325 0 
L 3669 0 
L 3244 1197 
L 1141 1197 
L 716 0 
L 50 0 
L 1831 4666 
z
" transform="scale(0.015625)"/>
       <path id="DejaVuSans-76" d="M 191 3500 
L 800 3500 
L 1894 563 
L 2988 3500 
L 3597 3500 
L 2284 0 
L 1503 0 
L 191 3500 
z
" transform="scale(0.015625)"/>
       <path id="DejaVuSans-72" d="M 2631 2963 
Q 2534 3019 2420 3045 
Q 2306 3072 2169 3072 
Q 1681 3072 1420 2755 
Q 1159 2438 1159 1844 
L 1159 0 
L 581 0 
L 581 3500 
L 1159 3500 
L 1159 2956 
Q 1341 3275 1631 3429 
Q 1922 3584 2338 3584 
Q 2397 3584 2469 3576 
Q 2541 3569 2628 3553 
L 2631 2963 
z
" transform="scale(0.015625)"/>
       <path id="DejaVuSans-61" d="M 2194 1759 
Q 1497 1759 1228 1600 
Q 959 1441 959 1056 
Q 959 750 1161 570 
Q 1363 391 1709 391 
Q 2188 391 2477 730 
Q 2766 1069 2766 1631 
L 2766 1759 
L 2194 1759 
z
M 3341 1997 
L 3341 0 
L 2766 0 
L 2766 531 
Q 2569 213 2275 61 
Q 1981 -91 1556 -91 
Q 1019 -91 701 211 
Q 384 513 384 1019 
Q 384 1609 779 1909 
Q 1175 2209 1959 2209 
L 2766 2209 
L 2766 2266 
Q 2766 2663 2505 2880 
Q 2244 3097 1772 3097 
Q 1472 3097 1187 3025 
Q 903 2953 641 2809 
L 641 3341 
Q 956 3463 1253 3523 
Q 1550 3584 1831 3584 
Q 2591 3584 2966 3190 
Q 3341 2797 3341 1997 
z
" transform="scale(0.015625)"/>
       <path id="DejaVuSans-67" d="M 2906 1791 
Q 2906 2416 2648 2759 
Q 2391 3103 1925 3103 
Q 1463 3103 1205 2759 
Q 947 2416 947 1791 
Q 947 1169 1205 825 
Q 1463 481 1925 481 
Q 2391 481 2648 825 
Q 2906 1169 2906 1791 
z
M 3481 434 
Q 3481 -459 3084 -895 
Q 2688 -1331 1869 -1331 
Q 1566 -1331 1297 -1286 
Q 1028 -1241 775 -1147 
L 775 -588 
Q 1028 -725 1275 -790 
Q 1522 -856 1778 -856 
Q 2344 -856 2625 -561 
Q 2906 -266 2906 331 
L 2906 616 
Q 2728 306 2450 153 
Q 2172 0 1784 0 
Q 1141 0 747 490 
Q 353 981 353 1791 
Q 353 2603 747 3093 
Q 1141 3584 1784 3584 
Q 2172 3584 2450 3431 
Q 2728 3278 2906 2969 
L 2906 3500 
L 3481 3500 
L 3481 434 
z
" transform="scale(0.015625)"/>
       <path id="DejaVuSans-20" transform="scale(0.015625)"/>
       <path id="DejaVuSans-66" d="M 2375 4863 
L 2375 4384 
L 1825 4384 
Q 1516 4384 1395 4259 
Q 1275 4134 1275 3809 
L 1275 3500 
L 2222 3500 
L 2222 3053 
L 1275 3053 
L 1275 0 
L 697 0 
L 697 3053 
L 147 3053 
L 147 3500 
L 697 3500 
L 697 3744 
Q 697 4328 969 4595 
Q 1241 4863 1831 4863 
L 2375 4863 
z
" transform="scale(0.015625)"/>
       <path id="DejaVuSans-53" d="M 3425 4513 
L 3425 3897 
Q 3066 4069 2747 4153 
Q 2428 4238 2131 4238 
Q 1616 4238 1336 4038 
Q 1056 3838 1056 3469 
Q 1056 3159 1242 3001 
Q 1428 2844 1947 2747 
L 2328 2669 
Q 3034 2534 3370 2195 
Q 3706 1856 3706 1288 
Q 3706 609 3251 259 
Q 2797 -91 1919 -91 
Q 1588 -91 1214 -16 
Q 841 59 441 206 
L 441 856 
Q 825 641 1194 531 
Q 1563 422 1919 422 
Q 2459 422 2753 634 
Q 3047 847 3047 1241 
Q 3047 1584 2836 1778 
Q 2625 1972 2144 2069 
L 1759 2144 
Q 1053 2284 737 2584 
Q 422 2884 422 3419 
Q 422 4038 858 4394 
Q 1294 4750 2059 4750 
Q 2388 4750 2728 4690 
Q 3069 4631 3425 4513 
z
" transform="scale(0.015625)"/>
       <path id="DejaVuSans-69" d="M 603 3500 
L 1178 3500 
L 1178 0 
L 603 0 
L 603 3500 
z
M 603 4863 
L 1178 4863 
L 1178 4134 
L 603 4134 
L 603 4863 
z
" transform="scale(0.015625)"/>
       <path id="DejaVuSans-74" d="M 1172 4494 
L 1172 3500 
L 2356 3500 
L 2356 3053 
L 1172 3053 
L 1172 1153 
Q 1172 725 1289 603 
Q 1406 481 1766 481 
L 2356 481 
L 2356 0 
L 1766 0 
Q 1100 0 847 248 
Q 594 497 594 1153 
L 594 3053 
L 172 3053 
L 172 3500 
L 594 3500 
L 594 4494 
L 1172 4494 
z
" transform="scale(0.015625)"/>
       <path id="DejaVuSans-5f" d="M 3263 -1063 
L 3263 -1509 
L -63 -1509 
L -63 -1063 
L 3263 -1063 
z
" transform="scale(0.015625)"/>
       <path id="DejaVuSans-6c" d="M 603 4863 
L 1178 4863 
L 1178 0 
L 603 0 
L 603 4863 
z
" transform="scale(0.015625)"/>
       <path id="DejaVuSans-50" d="M 1259 4147 
L 1259 2394 
L 2053 2394 
Q 2494 2394 2734 2622 
Q 2975 2850 2975 3272 
Q 2975 3691 2734 3919 
Q 2494 4147 2053 4147 
L 1259 4147 
z
M 628 4666 
L 2053 4666 
Q 2838 4666 3239 4311 
Q 3641 3956 3641 3272 
Q 3641 2581 3239 2228 
Q 2838 1875 2053 1875 
L 1259 1875 
L 1259 0 
L 628 0 
L 628 4666 
z
" transform="scale(0.015625)"/>
       <path id="DejaVuSans-7a" d="M 353 3500 
L 3084 3500 
L 3084 2975 
L 922 459 
L 3084 459 
L 3084 0 
L 275 0 
L 275 525 
L 2438 3041 
L 353 3041 
L 353 3500 
z
" transform="scale(0.015625)"/>
      </defs>
      <use xlink:href="#DejaVuSans-41"/>
      <use xlink:href="#DejaVuSans-76" x="62.533203"/>
      <use xlink:href="#DejaVuSans-65" x="121.712891"/>
      <use xlink:href="#DejaVuSans-72" x="183.236328"/>
      <use xlink:href="#DejaVuSans-61" x="224.349609"/>
      <use xlink:href="#DejaVuSans-67" x="285.628906"/>
      <use xlink:href="#DejaVuSans-65" x="349.105469"/>
      <use xlink:href="#DejaVuSans-20" x="410.628906"/>
      <use xlink:href="#DejaVuSans-6f" x="442.416016"/>
      <use xlink:href="#DejaVuSans-66" x="503.597656"/>
      <use xlink:href="#DejaVuSans-20" x="538.802734"/>
      <use xlink:href="#DejaVuSans-53" x="570.589844"/>
      <use xlink:href="#DejaVuSans-65" x="634.066406"/>
      <use xlink:href="#DejaVuSans-73" x="695.589844"/>
      <use xlink:href="#DejaVuSans-73" x="747.689453"/>
      <use xlink:href="#DejaVuSans-69" x="799.789062"/>
      <use xlink:href="#DejaVuSans-6f" x="827.572266"/>
      <use xlink:href="#DejaVuSans-6e" x="888.753906"/>
      <use xlink:href="#DejaVuSans-20" x="952.132812"/>
      <use xlink:href="#DejaVuSans-34" x="983.919922"/>
      <use xlink:href="#DejaVuSans-74" x="1047.542969"/>
      <use xlink:href="#DejaVuSans-61" x="1086.751953"/>
      <use xlink:href="#DejaVuSans-63" x="1148.03125"/>
      <use xlink:href="#DejaVuSans-5f" x="1203.011719"/>
      <use xlink:href="#DejaVuSans-61" x="1253.011719"/>
      <use xlink:href="#DejaVuSans-6c" x="1314.291016"/>
      <use xlink:href="#DejaVuSans-6c" x="1342.074219"/>
      <use xlink:href="#DejaVuSans-20" x="1369.857422"/>
      <use xlink:href="#DejaVuSans-61" x="1401.644531"/>
      <use xlink:href="#DejaVuSans-74" x="1462.923828"/>
      <use xlink:href="#DejaVuSans-20" x="1502.132812"/>
      <use xlink:href="#DejaVuSans-50" x="1533.919922"/>
      <use xlink:href="#DejaVuSans-7a" x="1594.222656"/>
     </g>
    </g>
    <g id="line2d_18">
     <path d="M 97.124156 38.465205 
L 107.124156 38.465205 
L 117.124156 38.465205 
" style="fill: none; stroke: #e41a1c; stroke-width: 1.5; stroke-linecap: square"/>
    </g>
    <g id="text_17">
     <!-- Target (n=12361) -->
     <g transform="translate(125.124156 41.965205)scale(0.1 -0.1)">
      <defs>
       <path id="DejaVuSans-54" d="M -19 4666 
L 3928 4666 
L 3928 4134 
L 2272 4134 
L 2272 0 
L 1638 0 
L 1638 4134 
L -19 4134 
L -19 4666 
z
" transform="scale(0.015625)"/>
       <path id="DejaVuSans-28" d="M 1984 4856 
Q 1566 4138 1362 3434 
Q 1159 2731 1159 2009 
Q 1159 1288 1364 580 
Q 1569 -128 1984 -844 
L 1484 -844 
Q 1016 -109 783 600 
Q 550 1309 550 2009 
Q 550 2706 781 3412 
Q 1013 4119 1484 4856 
L 1984 4856 
z
" transform="scale(0.015625)"/>
       <path id="DejaVuSans-3d" d="M 678 2906 
L 4684 2906 
L 4684 2381 
L 678 2381 
L 678 2906 
z
M 678 1631 
L 4684 1631 
L 4684 1100 
L 678 1100 
L 678 1631 
z
" transform="scale(0.015625)"/>
       <path id="DejaVuSans-33" d="M 2597 2516 
Q 3050 2419 3304 2112 
Q 3559 1806 3559 1356 
Q 3559 666 3084 287 
Q 2609 -91 1734 -91 
Q 1441 -91 1130 -33 
Q 819 25 488 141 
L 488 750 
Q 750 597 1062 519 
Q 1375 441 1716 441 
Q 2309 441 2620 675 
Q 2931 909 2931 1356 
Q 2931 1769 2642 2001 
Q 2353 2234 1838 2234 
L 1294 2234 
L 1294 2753 
L 1863 2753 
Q 2328 2753 2575 2939 
Q 2822 3125 2822 3475 
Q 2822 3834 2567 4026 
Q 2313 4219 1838 4219 
Q 1578 4219 1281 4162 
Q 984 4106 628 3988 
L 628 4550 
Q 988 4650 1302 4700 
Q 1616 4750 1894 4750 
Q 2613 4750 3031 4423 
Q 3450 4097 3450 3541 
Q 3450 3153 3228 2886 
Q 3006 2619 2597 2516 
z
" transform="scale(0.015625)"/>
       <path id="DejaVuSans-29" d="M 513 4856 
L 1013 4856 
Q 1481 4119 1714 3412 
Q 1947 2706 1947 2009 
Q 1947 1309 1714 600 
Q 1481 -109 1013 -844 
L 513 -844 
Q 928 -128 1133 580 
Q 1338 1288 1338 2009 
Q 1338 2731 1133 3434 
Q 928 4138 513 4856 
z
" transform="scale(0.015625)"/>
      </defs>
      <use xlink:href="#DejaVuSans-54"/>
      <use xlink:href="#DejaVuSans-61" x="44.583984"/>
      <use xlink:href="#DejaVuSans-72" x="105.863281"/>
      <use xlink:href="#DejaVuSans-67" x="145.226562"/>
      <use xlink:href="#DejaVuSans-65" x="208.703125"/>
      <use xlink:href="#DejaVuSans-74" x="270.226562"/>
      <use xlink:href="#DejaVuSans-20" x="309.435547"/>
      <use xlink:href="#DejaVuSans-28" x="341.222656"/>
      <use xlink:href="#DejaVuSans-6e" x="380.236328"/>
      <use xlink:href="#DejaVuSans-3d" x="443.615234"/>
      <use xlink:href="#DejaVuSans-31" x="527.404297"/>
      <use xlink:href="#DejaVuSans-32" x="591.027344"/>
      <use xlink:href="#DejaVuSans-33" x="654.650391"/>
      <use xlink:href="#DejaVuSans-36" x="718.273438"/>
      <use xlink:href="#DejaVuSans-31" x="781.896484"/>
      <use xlink:href="#DejaVuSans-29" x="845.519531"/>
     </g>
    </g>
    <g id="line2d_19">
     <path d="M 233.578843 38.465205 
L 243.578843 38.465205 
L 253.578843 38.465205 
" style="fill: none; stroke: #377eb8; stroke-width: 1.5; stroke-linecap: square"/>
    </g>
    <g id="text_18">
     <!-- Non-Target (n=37359) -->
     <g transform="translate(261.578843 41.965205)scale(0.1 -0.1)">
      <defs>
       <path id="DejaVuSans-4e" d="M 628 4666 
L 1478 4666 
L 3547 763 
L 3547 4666 
L 4159 4666 
L 4159 0 
L 3309 0 
L 1241 3903 
L 1241 0 
L 628 0 
L 628 4666 
z
" transform="scale(0.015625)"/>
       <path id="DejaVuSans-2d" d="M 313 2009 
L 1997 2009 
L 1997 1497 
L 313 1497 
L 313 2009 
z
" transform="scale(0.015625)"/>
       <path id="DejaVuSans-37" d="M 525 4666 
L 3525 4666 
L 3525 4397 
L 1831 0 
L 1172 0 
L 2766 4134 
L 525 4134 
L 525 4666 
z
" transform="scale(0.015625)"/>
       <path id="DejaVuSans-39" d="M 703 97 
L 703 672 
Q 941 559 1184 500 
Q 1428 441 1663 441 
Q 2288 441 2617 861 
Q 2947 1281 2994 2138 
Q 2813 1869 2534 1725 
Q 2256 1581 1919 1581 
Q 1219 1581 811 2004 
Q 403 2428 403 3163 
Q 403 3881 828 4315 
Q 1253 4750 1959 4750 
Q 2769 4750 3195 4129 
Q 3622 3509 3622 2328 
Q 3622 1225 3098 567 
Q 2575 -91 1691 -91 
Q 1453 -91 1209 -44 
Q 966 3 703 97 
z
M 1959 2075 
Q 2384 2075 2632 2365 
Q 2881 2656 2881 3163 
Q 2881 3666 2632 3958 
Q 2384 4250 1959 4250 
Q 1534 4250 1286 3958 
Q 1038 3666 1038 3163 
Q 1038 2656 1286 2365 
Q 1534 2075 1959 2075 
z
" transform="scale(0.015625)"/>
      </defs>
      <use xlink:href="#DejaVuSans-4e"/>
      <use xlink:href="#DejaVuSans-6f" x="74.804688"/>
      <use xlink:href="#DejaVuSans-6e" x="135.986328"/>
      <use xlink:href="#DejaVuSans-2d" x="199.365234"/>
      <use xlink:href="#DejaVuSans-54" x="226.324219"/>
      <use xlink:href="#DejaVuSans-61" x="270.908203"/>
      <use xlink:href="#DejaVuSans-72" x="332.1875"/>
      <use xlink:href="#DejaVuSans-67" x="371.550781"/>
      <use xlink:href="#DejaVuSans-65" x="435.027344"/>
      <use xlink:href="#DejaVuSans-74" x="496.550781"/>
      <use xlink:href="#DejaVuSans-20" x="535.759766"/>
      <use xlink:href="#DejaVuSans-28" x="567.546875"/>
      <use xlink:href="#DejaVuSans-6e" x="606.560547"/>
      <use xlink:href="#DejaVuSans-3d" x="669.939453"/>
      <use xlink:href="#DejaVuSans-33" x="753.728516"/>
      <use xlink:href="#DejaVuSans-37" x="817.351562"/>
      <use xlink:href="#DejaVuSans-33" x="880.974609"/>
      <use xlink:href="#DejaVuSans-35" x="944.597656"/>
      <use xlink:href="#DejaVuSans-39" x="1008.220703"/>
      <use xlink:href="#DejaVuSans-29" x="1071.84375"/>
     </g>
    </g>
   </g>
  </g>
 </g>
 <defs>
  <clipPath id="pf380a2229c">
   <rect x="56.175" y="71.241125" width="357.440499" height="246.958875"/>
  </clipPath>
 </defs>
</svg>
