<?xml version="1.0" encoding="utf-8" standalone="no"?>
<!DOCTYPE svg PUBLIC "-//W3C//DTD SVG 1.1//EN"
  "http://www.w3.org/Graphics/SVG/1.1/DTD/svg11.dtd">
<svg xmlns:xlink="http://www.w3.org/1999/xlink" width="432pt" height="360pt" viewBox="0 0 432 360" xmlns="http://www.w3.org/2000/svg" version="1.1">
 <metadata>
  <rdf:RDF xmlns:dc="http://purl.org/dc/elements/1.1/" xmlns:cc="http://creativecommons.org/ns#" xmlns:rdf="http://www.w3.org/1999/02/22-rdf-syntax-ns#">
   <cc:Work>
    <dc:type rdf:resource="http://purl.org/dc/dcmitype/StillImage"/>
    <dc:date>2022-05-13T11:06:15.999659</dc:date>
    <dc:format>image/svg+xml</dc:format>
    <dc:creator>
     <cc:Agent>
      <dc:title>Matplotlib v3.5.1, https://matplotlib.org/</dc:title>
     </cc:Agent>
    </dc:creator>
   </cc:Work>
  </rdf:RDF>
 </metadata>
 <defs>
  <style type="text/css">*{stroke-linejoin: round; stroke-linecap: butt}</style>
 </defs>
 <g id="figure_1">
  <g id="patch_1">
   <path d="M 0 360 
L 432 360 
L 432 0 
L 0 0 
z
" style="fill: #ffffff"/>
  </g>
  <g id="axes_1">
   <g id="patch_2">
    <path d="M 56 318.04 
L 413.570499 318.04 
L 413.570499 71.732 
L 56 71.732 
z
" style="fill: #ffffff"/>
   </g>
   <g id="PolyCollection_1">
    <defs>
     <path id="mb91e682118" d="M 56 -114.630579 
L 56 -95.169003 
L 56.775641 -93.822792 
L 57.551282 -91.707271 
L 58.326923 -89.296655 
L 59.102564 -87.125887 
L 59.878205 -85.650598 
L 60.653846 -85.149829 
L 61.429487 -85.682909 
L 62.205128 -87.089048 
L 62.980769 -89.026369 
L 63.75641 -91.055392 
L 64.532051 -92.754531 
L 65.307692 -93.829976 
L 66.083333 -94.177861 
L 66.858974 -93.881246 
L 67.634615 -93.158578 
L 68.410256 -92.292238 
L 69.185897 -91.553969 
L 69.961538 -91.137297 
L 70.737179 -91.114287 
L 71.51282 -91.432765 
L 72.288461 -91.949546 
L 73.064102 -92.476179 
L 73.839743 -92.821246 
L 74.615384 -92.836375 
L 75.391025 -92.473114 
L 76.166666 -91.82662 
L 76.942307 -91.122686 
L 77.717948 -90.6368 
L 78.493589 -90.589656 
L 79.26923 -91.081471 
L 80.044871 -92.084623 
L 80.820512 -93.454338 
L 81.596153 -94.928984 
L 82.371794 -96.158686 
L 83.147435 -96.805574 
L 83.923076 -96.695727 
L 84.698717 -95.934353 
L 85.474358 -94.879367 
L 86.249999 -93.967084 
L 87.02564 -93.507929 
L 87.801281 -93.570694 
L 88.576922 -93.987934 
L 89.352563 -94.445055 
L 90.128204 -94.604329 
L 90.903845 -94.236069 
L 91.679486 -93.324332 
L 92.455127 -92.091993 
L 93.230768 -90.910265 
L 94.006409 -90.129968 
L 94.78205 -89.931667 
L 95.557691 -90.275713 
L 96.333332 -90.950073 
L 97.108973 -91.654602 
L 97.884614 -92.086825 
L 98.660255 -92.031596 
L 99.435896 -91.441455 
L 100.211537 -90.468187 
L 100.987178 -89.410469 
L 101.762819 -88.586758 
L 102.53846 -88.20135 
L 103.314101 -88.283966 
L 104.089742 -88.730758 
L 104.865383 -89.406101 
L 105.641024 -90.231743 
L 106.416665 -91.20918 
L 107.192306 -92.370619 
L 107.967947 -93.696389 
L 108.743588 -95.051954 
L 109.519229 -96.185192 
L 110.29487 -96.792692 
L 111.070511 -96.629596 
L 111.846152 -95.618037 
L 112.621793 -93.908209 
L 113.397434 -91.860059 
L 114.173075 -89.942399 
L 114.948716 -88.582254 
L 115.724357 -88.020593 
L 116.499998 -88.228034 
L 117.275639 -88.913507 
L 118.05128 -89.631814 
L 118.826921 -89.963452 
L 119.602562 -89.705075 
L 120.378203 -88.986442 
L 121.153844 -88.242324 
L 121.929485 -88.032266 
L 122.705126 -88.789774 
L 123.480767 -90.625816 
L 124.256408 -93.275638 
L 125.032049 -96.195741 
L 125.80769 -98.749574 
L 126.583331 -100.405266 
L 127.358972 -100.889707 
L 128.134613 -100.261673 
L 128.910254 -98.880141 
L 129.685895 -97.271147 
L 130.461536 -95.938801 
L 131.237177 -95.198079 
L 132.012818 -95.098536 
L 132.788459 -95.45898 
L 133.5641 -95.979402 
L 134.339741 -96.372368 
L 135.115382 -96.464013 
L 135.891023 -96.23551 
L 136.666664 -95.796671 
L 137.442305 -95.305258 
L 138.217946 -94.870267 
L 138.993587 -94.491966 
L 139.769228 -94.07606 
L 140.544869 -93.513996 
L 141.32051 -92.777621 
L 142.09615 -91.970065 
L 142.871791 -91.307428 
L 143.647432 -91.044768 
L 144.423073 -91.379625 
L 145.198714 -92.367832 
L 145.974355 -93.8802 
L 146.749996 -95.619233 
L 147.525637 -97.199105 
L 148.301278 -98.267459 
L 149.076919 -98.624934 
L 149.85256 -98.294275 
L 150.628201 -97.510864 
L 151.403842 -96.639685 
L 152.179483 -96.052591 
L 152.955124 -96.011947 
L 153.730765 -96.600596 
L 154.506406 -97.719207 
L 155.282047 -99.148031 
L 156.057688 -100.647243 
L 156.833329 -102.054872 
L 157.60897 -103.340413 
L 158.384611 -104.589777 
L 159.160252 -105.929872 
L 159.935893 -107.433456 
L 160.711534 -109.056299 
L 161.487175 -110.638939 
L 162.262816 -111.967971 
L 163.038457 -112.863675 
L 163.814098 -113.255932 
L 164.589739 -113.220829 
L 165.36538 -112.963806 
L 166.141021 -112.750152 
L 166.916662 -112.803966 
L 167.692303 -113.21707 
L 168.467944 -113.911884 
L 169.243585 -114.676872 
L 170.019226 -115.254777 
L 170.794867 -115.44072 
L 171.570508 -115.150796 
L 172.346149 -114.440701 
L 173.12179 -113.474029 
L 173.897431 -112.456698 
L 174.673072 -111.566109 
L 175.448713 -110.904105 
L 176.224354 -110.487833 
L 176.999995 -110.269804 
L 177.775636 -110.167046 
L 178.551277 -110.08626 
L 179.326918 -109.944403 
L 180.102559 -109.687689 
L 180.8782 -109.307091 
L 181.653841 -108.844667 
L 182.429482 -108.388443 
L 183.205123 -108.059361 
L 183.980764 -107.993062 
L 184.756405 -108.313364 
L 185.532046 -109.094385 
L 186.307687 -110.319233 
L 187.083328 -111.854593 
L 187.858969 -113.45847 
L 188.63461 -114.823693 
L 189.410251 -115.646494 
L 190.185892 -115.705206 
L 190.961533 -114.932575 
L 191.737174 -113.45987 
L 192.512815 -111.60608 
L 193.288456 -109.795467 
L 194.064097 -108.421866 
L 194.839738 -107.718998 
L 195.615379 -107.701603 
L 196.39102 -108.201476 
L 197.166661 -108.968766 
L 197.942302 -109.782067 
L 198.717943 -110.521953 
L 199.493584 -111.191379 
L 200.269225 -111.888295 
L 201.044866 -112.745927 
L 201.820507 -113.862165 
L 202.596148 -115.24422 
L 203.371789 -116.791909 
L 204.14743 -118.327786 
L 204.923071 -119.660804 
L 205.698712 -120.654708 
L 206.474353 -121.272577 
L 207.249994 -121.584351 
L 208.025635 -121.743809 
L 208.801276 -121.951851 
L 209.576917 -122.419883 
L 210.352558 -123.336666 
L 211.128199 -124.833973 
L 211.90384 -126.948206 
L 212.679481 -129.586029 
L 213.455122 -132.511503 
L 214.230763 -135.370877 
L 215.006404 -137.759588 
L 215.782045 -139.319837 
L 216.557686 -139.842423 
L 217.333327 -139.339461 
L 218.108968 -138.05986 
L 218.884609 -136.436181 
L 219.66025 -134.973643 
L 220.435891 -134.110868 
L 221.211532 -134.092844 
L 221.987173 -134.898981 
L 222.762814 -136.25936 
L 223.538455 -137.763635 
L 224.314096 -139.023969 
L 225.089737 -139.820245 
L 225.865378 -140.160733 
L 226.641019 -140.238476 
L 227.41666 -140.317713 
L 228.192301 -140.609104 
L 228.967942 -141.181944 
L 229.743583 -141.937413 
L 230.519224 -142.64838 
L 231.294865 -143.055803 
L 232.070506 -142.989077 
L 232.846147 -142.456721 
L 233.621788 -141.658006 
L 234.397429 -140.905514 
L 235.17307 -140.499779 
L 235.948711 -140.620634 
L 236.724352 -141.279917 
L 237.499993 -142.339585 
L 238.275634 -143.572178 
L 239.051275 -144.737913 
L 239.826916 -145.658799 
L 240.602557 -146.271278 
L 241.378198 -146.638871 
L 242.153839 -146.917527 
L 242.92948 -147.28977 
L 243.705121 -147.902288 
L 244.480762 -148.835783 
L 245.256403 -150.109513 
L 246.032044 -151.69926 
L 246.807685 -153.546202 
L 247.583326 -155.553062 
L 248.358967 -157.58263 
L 249.134608 -159.475647 
L 249.910249 -161.092598 
L 250.68589 -162.369501 
L 251.461531 -163.367786 
L 252.237172 -164.29263 
L 253.012813 -165.455573 
L 253.788454 -167.17431 
L 254.564095 -169.636142 
L 255.339736 -172.782728 
L 256.115377 -176.276261 
L 256.891018 -179.573735 
L 257.666659 -182.087382 
L 258.4423 -183.375975 
L 259.217941 -183.305069 
L 259.993582 -182.124456 
L 260.769223 -180.428871 
L 261.544864 -178.998454 
L 262.320505 -178.561228 
L 263.096146 -179.561417 
L 263.871787 -182.022757 
L 264.647428 -185.554802 
L 265.423069 -189.489759 
L 266.19871 -193.09508 
L 266.974351 -195.794356 
L 267.749992 -197.33298 
L 268.525633 -197.838371 
L 269.301274 -197.753678 
L 270.076915 -197.66993 
L 270.852556 -198.123928 
L 271.628197 -199.438463 
L 272.403838 -201.651964 
L 273.179479 -204.54178 
L 273.95512 -207.716617 
L 274.730761 -210.742629 
L 275.506402 -213.26441 
L 276.282043 -215.08575 
L 277.057684 -216.191144 
L 277.833325 -216.714222 
L 278.608966 -216.877049 
L 279.384607 -216.923706 
L 280.160248 -217.061048 
L 280.935889 -217.413687 
L 281.71153 -218.001598 
L 282.487171 -218.746023 
L 283.262812 -219.498954 
L 284.038453 -220.083305 
L 284.814094 -220.334162 
L 285.589735 -220.140077 
L 286.365376 -219.483706 
L 287.141017 -218.472172 
L 287.916658 -217.340154 
L 288.692299 -216.415119 
L 289.46794 -216.048843 
L 290.243581 -216.531548 
L 291.019222 -218.009768 
L 291.794863 -220.429736 
L 292.570504 -223.52641 
L 293.346145 -226.869503 
L 294.121786 -229.960774 
L 294.897427 -232.357476 
L 295.673068 -233.78597 
L 296.448709 -234.211295 
L 297.22435 -233.841202 
L 297.999991 -233.06248 
L 298.775632 -232.327784 
L 299.551273 -232.026111 
L 300.326914 -232.374436 
L 301.102555 -233.36091 
L 301.878196 -234.754331 
L 302.653837 -236.175675 
L 303.429478 -237.209945 
L 304.205119 -237.525041 
L 304.98076 -236.963411 
L 305.756401 -235.582631 
L 306.532042 -233.637172 
L 307.307683 -231.508256 
L 308.083324 -229.59916 
L 308.858965 -228.221578 
L 309.634606 -227.504859 
L 310.410247 -227.358439 
L 311.185888 -227.502586 
L 311.961529 -227.556894 
L 312.73717 -227.153495 
L 313.51281 -226.036401 
L 314.288451 -224.121894 
L 315.064092 -221.514848 
L 315.839733 -218.487279 
L 316.615374 -215.424826 
L 317.391015 -212.744333 
L 318.166656 -210.794041 
L 318.942297 -209.762195 
L 319.717938 -209.625334 
L 320.493579 -210.154646 
L 321.26922 -210.976719 
L 322.044861 -211.66868 
L 322.820502 -211.863737 
L 323.596143 -211.345241 
L 324.371784 -210.107289 
L 325.147425 -208.36015 
L 325.923066 -206.4695 
L 326.698707 -204.84235 
L 327.474348 -203.797136 
L 328.249989 -203.46419 
L 329.02563 -203.750403 
L 329.801271 -204.376293 
L 330.576912 -204.967334 
L 331.352553 -205.165168 
L 332.128194 -204.724466 
L 332.903835 -203.572148 
L 333.679476 -201.818879 
L 334.455117 -199.723245 
L 335.230758 -197.616971 
L 336.006399 -195.808604 
L 336.78204 -194.494149 
L 337.557681 -193.70898 
L 338.333322 -193.341523 
L 339.108963 -193.199028 
L 339.884604 -193.090174 
L 340.660245 -192.887321 
L 341.435886 -192.55095 
L 342.211527 -192.120988 
L 342.987168 -191.688892 
L 343.762809 -191.361854 
L 344.53845 -191.227286 
L 345.314091 -191.3273 
L 346.089732 -191.652222 
L 346.865373 -192.152923 
L 347.641014 -192.760328 
L 348.416655 -193.398252 
L 349.192296 -193.985325 
L 349.967937 -194.434388 
L 350.743578 -194.661567 
L 351.519219 -194.608264 
L 352.29486 -194.264995 
L 353.070501 -193.680418 
L 353.846142 -192.949091 
L 354.621783 -192.187427 
L 355.397424 -191.511043 
L 356.173065 -191.017945 
L 356.948706 -190.771791 
L 357.724347 -190.781571 
L 358.499988 -190.985719 
L 359.275629 -191.254962 
L 360.05127 -191.419816 
L 360.826911 -191.313073 
L 361.602552 -190.811198 
L 362.378193 -189.864496 
L 363.153834 -188.515063 
L 363.929475 -186.901522 
L 364.705116 -185.242764 
L 365.480757 -183.792485 
L 366.256398 -182.770606 
L 367.032039 -182.296703 
L 367.80768 -182.356586 
L 368.583321 -182.817469 
L 369.358962 -183.483265 
L 370.134603 -184.165548 
L 370.910244 -184.74482 
L 371.685885 -185.20452 
L 372.461526 -185.628331 
L 373.237167 -186.159039 
L 374.012808 -186.929866 
L 374.788449 -187.994626 
L 375.56409 -189.289896 
L 376.339731 -190.650388 
L 377.115372 -191.872994 
L 377.891013 -192.800925 
L 378.666654 -193.389557 
L 379.442295 -193.722386 
L 380.217936 -193.964668 
L 380.993577 -194.26986 
L 381.769218 -194.681311 
L 382.544859 -195.081604 
L 383.3205 -195.22183 
L 384.096141 -194.821502 
L 384.871782 -193.694025 
L 385.647423 -191.844774 
L 386.423064 -189.505502 
L 387.198705 -187.093737 
L 387.974346 -185.106672 
L 388.749987 -183.9775 
L 389.525628 -183.939585 
L 390.301269 -184.951753 
L 391.07691 -186.720818 
L 391.852551 -188.814169 
L 392.628192 -190.811086 
L 393.403833 -192.424502 
L 394.179474 -193.547008 
L 394.955115 -194.217445 
L 395.730756 -194.539394 
L 396.506397 -194.595752 
L 397.282038 -194.398337 
L 398.057679 -193.896579 
L 398.83332 -193.043835 
L 399.608961 -191.888401 
L 400.384602 -190.631844 
L 401.160243 -189.605365 
L 401.935884 -189.158688 
L 402.711525 -189.50882 
L 403.487166 -190.621858 
L 404.262807 -192.185677 
L 405.038448 -193.690358 
L 405.814089 -194.591486 
L 406.58973 -194.501353 
L 407.365371 -193.337619 
L 408.141012 -191.366508 
L 408.916653 -189.115904 
L 409.692294 -187.190853 
L 410.467935 -186.068088 
L 411.243576 -185.951279 
L 412.019217 -186.736166 
L 412.794858 -188.088279 
L 413.570499 -189.596248 
L 413.570499 -236.113819 
L 413.570499 -236.113819 
L 412.794858 -234.552848 
L 412.019217 -233.165888 
L 411.243576 -232.346026 
L 410.467935 -232.427009 
L 409.692294 -233.520177 
L 408.916653 -235.425556 
L 408.141012 -237.666927 
L 407.365371 -239.640792 
L 406.58973 -240.819116 
L 405.814089 -240.928377 
L 405.038448 -240.039538 
L 404.262807 -238.534555 
L 403.487166 -236.960193 
L 402.711525 -235.828026 
L 401.935884 -235.444834 
L 401.160243 -235.839919 
L 400.384602 -236.804411 
L 399.608961 -238.006572 
L 398.83332 -239.12468 
L 398.057679 -239.946329 
L 397.282038 -240.403603 
L 396.506397 -240.537822 
L 395.730756 -240.416147 
L 394.955115 -240.04835 
L 394.179474 -239.355725 
L 393.403833 -238.217034 
L 392.628192 -236.568142 
L 391.852551 -234.497824 
L 391.07691 -232.283562 
L 390.301269 -230.343311 
L 389.525628 -229.118758 
L 388.749987 -228.93246 
L 387.974346 -229.870227 
L 387.198705 -231.733525 
L 386.423064 -234.088299 
L 385.647423 -236.401972 
L 384.871782 -238.218645 
L 384.096141 -239.297671 
L 383.3205 -239.655871 
L 382.544859 -239.503743 
L 381.769218 -239.11835 
L 380.993577 -238.717931 
L 380.217936 -238.387415 
L 379.442295 -238.072155 
L 378.666654 -237.630178 
L 377.891013 -236.916526 
L 377.115372 -235.864293 
L 376.339731 -234.527752 
L 375.56409 -233.06849 
L 374.788449 -231.692032 
L 374.012808 -230.566 
L 373.237167 -229.757173 
L 372.461526 -229.212687 
L 371.685885 -228.791051 
L 370.910244 -228.330422 
L 370.134603 -227.726975 
L 369.358962 -226.989766 
L 368.583321 -226.246304 
L 367.80768 -225.696373 
L 367.032039 -225.537328 
L 366.256398 -225.895188 
L 365.480757 -226.785609 
L 364.705116 -228.109502 
L 363.929475 -229.67615 
L 363.153834 -231.246251 
L 362.378193 -232.587907 
L 361.602552 -233.533904 
L 360.826911 -234.021376 
L 360.05127 -234.09789 
L 359.275629 -233.893637 
L 358.499988 -233.576167 
L 357.724347 -233.30779 
L 356.948706 -233.215428 
L 356.173065 -233.370831 
L 355.397424 -233.778967 
L 354.621783 -234.379466 
L 353.846142 -235.067174 
L 353.070501 -235.727043 
L 352.29486 -236.265915 
L 351.519219 -236.624788 
L 350.743578 -236.770801 
L 349.967937 -236.685095 
L 349.192296 -236.362629 
L 348.416655 -235.825055 
L 347.641014 -235.13335 
L 346.865373 -234.386418 
L 346.089732 -233.702926 
L 345.314091 -233.19446 
L 344.53845 -232.940058 
L 343.762809 -232.966803 
L 342.987168 -233.238052 
L 342.211527 -233.655025 
L 341.435886 -234.080902 
L 340.660245 -234.388685 
L 339.884604 -234.517394 
L 339.108963 -234.509972 
L 338.333322 -234.511914 
L 337.557681 -234.729214 
L 336.78204 -235.362233 
L 336.006399 -236.536695 
L 335.230758 -238.248596 
L 334.455117 -240.337568 
L 333.679476 -242.504411 
L 332.903835 -244.382458 
L 332.128194 -245.650289 
L 331.352553 -246.146291 
L 330.576912 -245.935105 
L 329.801271 -245.294618 
L 329.02563 -244.626959 
L 328.249989 -244.328137 
L 327.474348 -244.664509 
L 326.698707 -245.697025 
L 325.923066 -247.272519 
L 325.147425 -249.076743 
L 324.371784 -250.728242 
L 323.596143 -251.886608 
L 322.820502 -252.349242 
L 322.044861 -252.113054 
L 321.26922 -251.38255 
L 320.493579 -250.518068 
L 319.717938 -249.938161 
L 318.942297 -250.008167 
L 318.166656 -250.950079 
L 317.391015 -252.794935 
L 316.615374 -255.380217 
L 315.839733 -258.385614 
L 315.064092 -261.401506 
L 314.288451 -264.022926 
L 313.51281 -265.950606 
L 312.73717 -267.068059 
L 311.961529 -267.466768 
L 311.185888 -267.411262 
L 310.410247 -267.25986 
L 309.634606 -267.368537 
L 308.858965 -268.001235 
L 308.083324 -269.261713 
L 307.307683 -271.059413 
L 306.532042 -273.121744 
L 305.756401 -275.059067 
L 304.98076 -276.472217 
L 304.205119 -277.072182 
L 303.429478 -276.771415 
L 302.653837 -275.714427 
L 301.878196 -274.23693 
L 301.102555 -272.766544 
L 300.326914 -271.695621 
L 299.551273 -271.264196 
L 298.775632 -271.487301 
L 297.999991 -272.14757 
L 297.22435 -272.855258 
L 296.448709 -273.158336 
L 295.673068 -272.67108 
L 294.897427 -271.184888 
L 294.121786 -268.730749 
L 293.346145 -265.577074 
L 292.570504 -262.164994 
L 291.794863 -258.999949 
L 291.019222 -256.528871 
L 290.243581 -255.035282 
L 289.46794 -254.580233 
L 288.692299 -255.004716 
L 287.916658 -255.990389 
L 287.141017 -257.155737 
L 286.365376 -258.154873 
L 285.589735 -258.751047 
L 284.814094 -258.851172 
L 284.038453 -258.500845 
L 283.262812 -257.846621 
L 282.487171 -257.077942 
L 281.71153 -256.366765 
L 280.935889 -255.824298 
L 280.160248 -255.482498 
L 279.384607 -255.292657 
L 278.608966 -255.130685 
L 277.833325 -254.809816 
L 277.057684 -254.110784 
L 276.282043 -252.834197 
L 275.506402 -250.864939 
L 274.730761 -248.227907 
L 273.95512 -245.115348 
L 273.179479 -241.870976 
L 272.403838 -238.921521 
L 271.628197 -236.660224 
L 270.852556 -235.312535 
L 270.076915 -234.835903 
L 269.301274 -234.901006 
L 268.525633 -234.970509 
L 267.749992 -234.454791 
L 266.974351 -232.900262 
L 266.19871 -230.155301 
L 265.423069 -226.456014 
L 264.647428 -222.38675 
L 263.871787 -218.710558 
L 263.096146 -216.122377 
L 262.320505 -215.017612 
L 261.544864 -215.362376 
L 260.769223 -216.705626 
L 259.993582 -218.320614 
L 259.217941 -219.426898 
L 258.4423 -219.424835 
L 257.666659 -218.067527 
L 256.891018 -215.509197 
L 256.115377 -212.213624 
L 255.339736 -208.766885 
L 254.564095 -205.677957 
L 253.788454 -203.242219 
L 253.012813 -201.499825 
L 252.237172 -200.278846 
L 251.461531 -199.291427 
L 250.68589 -198.245688 
L 249.910249 -196.937875 
L 249.134608 -195.297706 
L 248.358967 -193.379036 
L 247.583326 -191.312721 
L 246.807685 -189.252417 
L 246.032044 -187.33674 
L 245.256403 -185.671611 
L 244.480762 -184.323224 
L 243.705121 -183.313123 
L 242.92948 -182.614455 
L 242.153839 -182.151916 
L 241.378198 -181.806646 
L 240.602557 -181.428881 
L 239.826916 -180.866468 
L 239.051275 -180.015414 
L 238.275634 -178.879622 
L 237.499993 -177.603818 
L 236.724352 -176.444303 
L 235.948711 -175.675154 
L 235.17307 -175.470726 
L 234.397429 -175.8253 
L 233.621788 -176.550385 
L 232.846147 -177.345619 
L 232.070506 -177.9063 
L 231.294865 -178.025878 
L 230.519224 -177.662661 
L 229.743583 -176.949014 
L 228.967942 -176.131409 
L 228.192301 -175.454951 
L 227.41666 -175.041094 
L 226.641019 -174.823707 
L 225.865378 -174.583341 
L 225.089737 -174.063554 
L 224.314096 -173.107384 
L 223.538455 -171.747878 
L 222.762814 -170.2181 
L 221.987173 -168.883459 
L 221.211532 -168.121261 
L 220.435891 -168.183399 
L 219.66025 -169.086804 
L 218.884609 -170.577278 
L 218.108968 -172.190526 
L 217.333327 -173.392215 
L 216.557686 -173.741457 
L 215.782045 -173.01411 
L 215.006404 -171.245881 
L 214.230763 -168.69252 
L 213.455122 -165.735217 
L 212.679481 -162.772357 
L 211.90384 -160.132585 
L 211.128199 -158.025803 
L 210.352558 -156.530074 
L 209.576917 -155.603021 
L 208.801276 -155.107254 
L 208.025635 -154.844935 
L 207.249994 -154.599781 
L 206.474353 -154.182309 
L 205.698712 -153.469449 
L 204.923071 -152.428688 
L 204.14743 -151.120549 
L 203.371789 -149.678005 
L 202.596148 -148.26607 
L 201.820507 -147.029718 
L 201.044866 -146.043753 
L 200.269225 -145.283182 
L 199.493584 -144.632303 
L 198.717943 -143.939211 
L 197.942302 -143.099363 
L 197.166661 -142.129238 
L 196.39102 -141.187827 
L 195.615379 -140.528372 
L 194.839738 -140.401834 
L 194.064097 -140.957524 
L 193.288456 -142.178904 
L 192.512815 -143.868451 
L 191.737174 -145.67987 
L 190.961533 -147.194229 
L 190.185892 -148.032262 
L 189.410251 -147.973789 
L 188.63461 -147.033719 
L 187.858969 -145.454196 
L 187.083328 -143.614357 
L 186.307687 -141.900876 
L 185.532046 -140.596679 
L 184.756405 -139.826763 
L 183.980764 -139.565944 
L 183.205123 -139.687964 
L 182.429482 -140.028308 
L 181.653841 -140.437054 
L 180.8782 -140.806814 
L 180.102559 -141.074086 
L 179.326918 -141.207712 
L 178.551277 -141.204734 
L 177.775636 -141.102198 
L 176.999995 -140.991107 
L 176.224354 -141.008038 
L 175.448713 -141.293035 
L 174.673072 -141.927899 
L 173.897431 -142.885606 
L 173.12179 -144.017631 
L 172.346149 -145.088129 
L 171.570508 -145.845774 
L 170.794867 -146.110474 
L 170.019226 -145.843149 
L 169.243585 -145.166789 
L 168.467944 -144.324566 
L 167.692303 -143.590063 
L 166.916662 -143.166832 
L 166.141021 -143.115471 
L 165.36538 -143.331642 
L 164.589739 -143.581509 
L 163.814098 -143.585415 
L 163.038457 -143.123014 
L 162.262816 -142.117602 
L 161.487175 -140.659049 
L 160.711534 -138.952602 
L 159.935893 -137.221245 
L 159.160252 -135.613339 
L 158.384611 -134.158503 
L 157.60897 -132.784687 
L 156.833329 -131.381173 
L 156.057688 -129.877436 
L 155.282047 -128.305127 
L 154.506406 -126.81567 
L 153.730765 -125.639284 
L 152.955124 -124.994603 
L 152.179483 -124.983961 
L 151.403842 -125.522238 
L 150.628201 -126.336689 
L 149.85256 -127.044729 
L 149.076919 -127.281347 
L 148.301278 -126.825486 
L 147.525637 -125.675858 
L 146.749996 -124.04922 
L 145.974355 -122.304547 
L 145.198714 -120.821397 
L 144.423073 -119.875204 
L 143.647432 -119.555427 
L 142.871791 -119.75944 
L 142.09615 -120.26343 
L 141.32051 -120.834021 
L 140.544869 -121.323954 
L 139.769228 -121.707459 
L 138.993587 -122.049373 
L 138.217946 -122.437927 
L 137.442305 -122.918841 
L 136.666664 -123.454816 
L 135.891023 -123.923255 
L 135.115382 -124.15928 
L 134.339741 -124.037235 
L 133.5641 -123.55901 
L 132.788459 -122.899035 
L 132.012818 -122.36701 
L 131.237177 -122.291557 
L 130.461536 -122.873212 
L 129.685895 -124.072029 
L 128.910254 -125.578026 
L 128.134613 -126.880546 
L 127.358972 -127.422767 
L 126.583331 -126.799417 
L 125.80769 -124.927773 
L 125.032049 -122.112556 
L 124.256408 -118.95814 
L 123.480767 -116.153412 
L 122.705126 -114.225817 
L 121.929485 -113.376633 
L 121.153844 -113.454768 
L 120.378203 -114.052998 
L 119.602562 -114.672502 
L 118.826921 -114.901284 
L 118.05128 -114.561626 
L 117.275639 -113.780488 
L 116.499998 -112.942334 
L 115.724357 -112.526621 
L 114.948716 -112.894467 
L 114.173075 -114.122775 
L 113.397434 -115.963626 
L 112.621793 -117.943256 
L 111.846152 -119.54724 
L 111.070511 -120.405218 
L 110.29487 -120.399142 
L 109.519229 -119.659213 
L 108.743588 -118.463431 
L 107.967947 -117.099703 
L 107.192306 -115.761565 
L 106.416665 -114.52091 
L 105.641024 -113.373178 
L 104.865383 -112.313167 
L 104.089742 -111.390564 
L 103.314101 -110.713928 
L 102.53846 -110.406231 
L 101.762819 -110.540077 
L 100.987178 -111.082623 
L 100.211537 -111.869525 
L 99.435896 -112.620853 
L 98.660255 -113.011613 
L 97.884614 -112.795675 
L 97.108973 -111.938746 
L 96.333332 -110.678992 
L 95.557691 -109.454886 
L 94.78205 -108.71493 
L 94.006409 -108.708829 
L 93.230768 -109.385849 
L 92.455127 -110.445434 
L 91.679486 -111.480059 
L 90.903845 -112.129416 
L 90.128204 -112.201347 
L 89.352563 -111.737836 
L 88.576922 -111.000709 
L 87.801281 -110.360452 
L 87.02564 -110.124551 
L 86.249999 -110.398968 
L 85.474358 -111.061269 
L 84.698717 -111.838916 
L 83.923076 -112.420016 
L 83.147435 -112.535199 
L 82.371794 -112.017257 
L 81.596153 -110.871226 
L 80.820512 -109.320121 
L 80.044871 -107.756608 
L 79.26923 -106.593576 
L 78.493589 -106.086112 
L 77.717948 -106.23501 
L 76.942307 -106.830011 
L 76.166666 -107.576704 
L 75.391025 -108.210034 
L 74.615384 -108.552459 
L 73.839743 -108.53316 
L 73.064102 -108.193757 
L 72.288461 -107.678099 
L 71.51282 -107.189549 
L 70.737179 -106.922377 
L 69.961538 -107.000475 
L 69.185897 -107.449024 
L 68.410256 -108.194378 
L 67.634615 -109.07542 
L 66.858974 -109.865047 
L 66.083333 -110.313321 
L 65.307692 -110.212802 
L 64.532051 -109.46522 
L 63.75641 -108.125623 
L 62.980769 -106.41481 
L 62.205128 -104.697101 
L 61.429487 -103.414751 
L 60.653846 -102.9759 
L 59.878205 -103.620778 
L 59.102564 -105.322236 
L 58.326923 -107.77599 
L 57.551282 -110.489207 
L 56.775641 -112.922903 
L 56 -114.630579 
z
" style="stroke: #e41a1c; stroke-opacity: 0.3"/>
    </defs>
    <g clip-path="url(#p5de28a8ca8)">
     <use xlink:href="#mb91e682118" x="0" y="360" style="fill: #e41a1c; fill-opacity: 0.3; stroke: #e41a1c; stroke-opacity: 0.3"/>
    </g>
   </g>
   <g id="PolyCollection_2">
    <defs>
     <path id="m6e48ebbf72" d="M 56 -109.454333 
L 56 -100.537531 
L 56.775641 -100.874931 
L 57.551282 -101.070105 
L 58.326923 -101.059724 
L 59.102564 -100.792251 
L 59.878205 -100.253599 
L 60.653846 -99.492038 
L 61.429487 -98.627899 
L 62.205128 -97.834802 
L 62.980769 -97.291996 
L 63.75641 -97.12478 
L 64.532051 -97.359056 
L 65.307692 -97.910769 
L 66.083333 -98.614309 
L 66.858974 -99.274871 
L 67.634615 -99.721314 
L 68.410256 -99.843078 
L 69.185897 -99.606852 
L 69.961538 -99.055443 
L 70.737179 -98.29096 
L 71.51282 -97.442466 
L 72.288461 -96.625433 
L 73.064102 -95.913386 
L 73.839743 -95.338779 
L 74.615384 -94.916855 
L 75.391025 -94.667426 
L 76.166666 -94.614944 
L 76.942307 -94.769853 
L 77.717948 -95.109307 
L 78.493589 -95.569298 
L 79.26923 -96.047403 
L 80.044871 -96.416323 
L 80.820512 -96.555994 
L 81.596153 -96.404186 
L 82.371794 -96.003519 
L 83.147435 -95.509272 
L 83.923076 -95.13919 
L 84.698717 -95.08632 
L 85.474358 -95.4393 
L 86.249999 -96.144346 
L 87.02564 -97.017518 
L 87.801281 -97.795547 
L 88.576922 -98.207669 
L 89.352563 -98.051783 
L 90.128204 -97.25595 
L 90.903845 -95.904959 
L 91.679486 -94.220299 
L 92.455127 -92.499212 
L 93.230768 -91.034574 
L 94.006409 -90.043246 
L 94.78205 -89.623691 
L 95.557691 -89.750243 
L 96.333332 -90.298922 
L 97.108973 -91.092328 
L 97.884614 -91.948622 
L 98.660255 -92.72082 
L 99.435896 -93.317747 
L 100.211537 -93.70573 
L 100.987178 -93.897121 
L 101.762819 -93.934193 
L 102.53846 -93.874153 
L 103.314101 -93.776606 
L 104.089742 -93.693254 
L 104.865383 -93.661132 
L 105.641024 -93.700995 
L 106.416665 -93.819776 
L 107.192306 -94.013803 
L 107.967947 -94.271487 
L 108.743588 -94.577187 
L 109.519229 -94.917099 
L 110.29487 -95.283632 
L 111.070511 -95.673114 
L 111.846152 -96.076803 
L 112.621793 -96.472453 
L 113.397434 -96.824337 
L 114.173075 -97.092684 
L 114.948716 -97.246582 
L 115.724357 -97.27328 
L 116.499998 -97.180417 
L 117.275639 -96.991262 
L 118.05128 -96.735094 
L 118.826921 -96.436898 
L 119.602562 -96.111553 
L 120.378203 -95.765468 
L 121.153844 -95.403772 
L 121.929485 -95.038142 
L 122.705126 -94.691489 
L 123.480767 -94.398307 
L 124.256408 -94.200276 
L 125.032049 -94.136633 
L 125.80769 -94.231429 
L 126.583331 -94.483494 
L 127.358972 -94.865542 
L 128.134613 -95.33375 
L 128.910254 -95.842613 
L 129.685895 -96.35711 
L 130.461536 -96.856463 
L 131.237177 -97.328302 
L 132.012818 -97.757012 
L 132.788459 -98.113402 
L 133.5641 -98.353382 
L 134.339741 -98.428648 
L 135.115382 -98.304845 
L 135.891023 -97.97794 
L 136.666664 -97.480894 
L 137.442305 -96.877604 
L 138.217946 -96.245599 
L 138.993587 -95.652385 
L 139.769228 -95.134295 
L 140.544869 -94.688987 
L 141.32051 -94.288428 
L 142.09615 -93.907659 
L 142.871791 -93.553723 
L 143.647432 -93.278167 
L 144.423073 -93.165667 
L 145.198714 -93.303556 
L 145.974355 -93.744501 
L 146.749996 -94.476601 
L 147.525637 -95.413271 
L 148.301278 -96.410426 
L 149.076919 -97.30941 
L 149.85256 -97.991839 
L 150.628201 -98.423499 
L 151.403842 -98.665646 
L 152.179483 -98.845283 
L 152.955124 -99.09483 
L 153.730765 -99.486525 
L 154.506406 -99.990572 
L 155.282047 -100.477116 
L 156.057688 -100.764676 
L 156.833329 -100.697704 
L 157.60897 -100.22305 
L 158.384611 -99.433251 
L 159.160252 -98.555708 
L 159.935893 -97.88675 
L 160.711534 -97.691537 
L 161.487175 -98.10664 
L 162.262816 -99.083794 
L 163.038457 -100.398283 
L 163.814098 -101.720083 
L 164.589739 -102.722056 
L 165.36538 -103.18668 
L 166.141021 -103.074433 
L 166.916662 -102.530956 
L 167.692303 -101.831281 
L 168.467944 -101.281238 
L 169.243585 -101.111351 
L 170.019226 -101.400923 
L 170.794867 -102.057983 
L 171.570508 -102.85912 
L 172.346149 -103.531486 
L 173.12179 -103.845518 
L 173.897431 -103.685544 
L 174.673072 -103.076027 
L 175.448713 -102.158983 
L 176.224354 -101.135541 
L 176.999995 -100.194626 
L 177.775636 -99.452318 
L 178.551277 -98.919385 
L 179.326918 -98.505518 
L 180.102559 -98.057735 
L 180.8782 -97.418496 
L 181.653841 -96.480809 
L 182.429482 -95.218915 
L 183.205123 -93.68519 
L 183.980764 -91.979917 
L 184.756405 -90.210451 
L 185.532046 -88.456161 
L 186.307687 -86.749184 
L 187.083328 -85.074365 
L 187.858969 -83.386793 
L 188.63461 -81.640943 
L 189.410251 -79.821775 
L 190.185892 -77.966473 
L 190.961533 -76.166828 
L 191.737174 -74.547412 
L 192.512815 -73.2243 
L 193.288456 -72.259915 
L 194.064097 -71.634486 
L 194.839738 -71.248232 
L 195.615379 -70.953411 
L 196.39102 -70.601199 
L 197.166661 -70.085066 
L 197.942302 -69.369411 
L 198.717943 -68.499429 
L 199.493584 -67.590059 
L 200.269225 -66.793366 
L 201.044866 -66.251139 
L 201.820507 -66.049869 
L 202.596148 -66.197568 
L 203.371789 -66.630517 
L 204.14743 -67.241726 
L 204.923071 -67.914501 
L 205.698712 -68.547654 
L 206.474353 -69.067101 
L 207.249994 -69.426021 
L 208.025635 -69.600421 
L 208.801276 -69.588612 
L 209.576917 -69.419886 
L 210.352558 -69.169786 
L 211.128199 -68.971244 
L 211.90384 -69.008215 
L 212.679481 -69.483186 
L 213.455122 -70.56076 
L 214.230763 -72.302165 
L 215.006404 -74.615779 
L 215.782045 -77.250136 
L 216.557686 -79.843339 
L 217.333327 -82.019253 
L 218.108968 -83.498532 
L 218.884609 -84.184052 
L 219.66025 -84.188995 
L 220.435891 -83.795953 
L 221.211532 -83.358743 
L 221.987173 -83.179329 
L 222.762814 -83.404371 
L 223.538455 -83.982198 
L 224.314096 -84.698114 
L 225.089737 -85.27264 
L 225.865378 -85.480203 
L 226.641019 -85.238563 
L 227.41666 -84.632982 
L 228.192301 -83.866208 
L 228.967942 -83.156016 
L 229.743583 -82.6258 
L 230.519224 -82.239125 
L 231.294865 -81.810533 
L 232.070506 -81.088815 
L 232.846147 -79.875136 
L 233.621788 -78.123971 
L 234.397429 -75.984062 
L 235.17307 -73.761415 
L 235.948711 -71.815888 
L 236.724352 -70.428862 
L 237.499993 -69.694485 
L 238.275634 -69.481781 
L 239.051275 -69.486735 
L 239.826916 -69.353133 
L 240.602557 -68.810032 
L 241.378198 -67.768827 
L 242.153839 -66.343986 
L 242.92948 -64.795443 
L 243.705121 -63.420861 
L 244.480762 -62.442536 
L 245.256403 -61.932521 
L 246.032044 -61.802539 
L 246.807685 -61.857833 
L 247.583326 -61.886917 
L 248.358967 -61.744467 
L 249.134608 -61.390656 
L 249.910249 -60.874206 
L 250.68589 -60.276058 
L 251.461531 -59.64904 
L 252.237172 -58.986817 
L 253.012813 -58.23597 
L 253.788454 -57.341282 
L 254.564095 -56.299037 
L 255.339736 -55.190741 
L 256.115377 -54.177471 
L 256.891018 -53.450715 
L 257.666659 -53.155818 
L 258.4423 -53.321726 
L 259.217941 -53.833684 
L 259.993582 -54.467522 
L 260.769223 -54.97328 
L 261.544864 -55.17162 
L 262.320505 -55.022031 
L 263.096146 -54.636974 
L 263.871787 -54.238391 
L 264.647428 -54.073408 
L 265.423069 -54.319967 
L 266.19871 -55.018481 
L 266.974351 -56.058476 
L 267.749992 -57.227462 
L 268.525633 -58.300651 
L 269.301274 -59.13108 
L 270.076915 -59.70145 
L 270.852556 -60.11923 
L 271.628197 -60.562525 
L 272.403838 -61.203265 
L 273.179479 -62.140073 
L 273.95512 -63.365466 
L 274.730761 -64.775959 
L 275.506402 -66.215918 
L 276.282043 -67.533838 
L 277.057684 -68.627345 
L 277.833325 -69.461395 
L 278.608966 -70.058518 
L 279.384607 -70.472622 
L 280.160248 -70.762438 
L 280.935889 -70.976463 
L 281.71153 -71.152046 
L 282.487171 -71.323678 
L 283.262812 -71.531876 
L 284.038453 -71.824388 
L 284.814094 -72.245448 
L 285.589735 -72.815775 
L 286.365376 -73.513103 
L 287.141017 -74.265549 
L 287.916658 -74.964837 
L 288.692299 -75.49593 
L 289.46794 -75.771206 
L 290.243581 -75.756519 
L 291.019222 -75.481722 
L 291.794863 -75.034062 
L 292.570504 -74.537096 
L 293.346145 -74.120692 
L 294.121786 -73.890348 
L 294.897427 -73.90427 
L 295.673068 -74.163224 
L 296.448709 -74.612814 
L 297.22435 -75.154682 
L 297.999991 -75.663754 
L 298.775632 -76.010213 
L 299.551273 -76.084712 
L 300.326914 -75.823806 
L 301.102555 -75.231332 
L 301.878196 -74.389925 
L 302.653837 -73.455296 
L 303.429478 -72.62784 
L 304.205119 -72.103877 
L 304.98076 -72.019307 
L 305.756401 -72.40515 
L 306.532042 -73.17251 
L 307.307683 -74.134854 
L 308.083324 -75.062113 
L 308.858965 -75.748821 
L 309.634606 -76.072143 
L 310.410247 -76.019422 
L 311.185888 -75.677988 
L 311.961529 -75.19523 
L 312.73717 -74.726277 
L 313.51281 -74.387511 
L 314.288451 -74.229626 
L 315.064092 -74.237274 
L 315.839733 -74.353523 
L 316.615374 -74.51703 
L 317.391015 -74.693281 
L 318.166656 -74.884424 
L 318.942297 -75.114732 
L 319.717938 -75.402436 
L 320.493579 -75.734912 
L 321.26922 -76.060762 
L 322.044861 -76.303795 
L 322.820502 -76.394886 
L 323.596143 -76.309628 
L 324.371784 -76.094139 
L 325.147425 -75.86328 
L 325.923066 -75.766607 
L 326.698707 -75.933118 
L 327.474348 -76.416793 
L 328.249989 -77.165315 
L 329.02563 -78.025304 
L 329.801271 -78.783549 
L 330.576912 -79.230769 
L 331.352553 -79.226527 
L 332.128194 -78.7441 
L 332.903835 -77.881341 
L 333.679476 -76.834769 
L 334.455117 -75.845565 
L 335.230758 -75.134923 
L 336.006399 -74.849963 
L 336.78204 -75.037109 
L 337.557681 -75.647754 
L 338.333322 -76.567347 
L 339.108963 -77.651847 
L 339.884604 -78.758076 
L 340.660245 -79.762588 
L 341.435886 -80.570662 
L 342.211527 -81.119607 
L 342.987168 -81.37996 
L 343.762809 -81.356861 
L 344.53845 -81.091782 
L 345.314091 -80.662191 
L 346.089732 -80.175165 
L 346.865373 -79.752442 
L 347.641014 -79.507691 
L 348.416655 -79.520588 
L 349.192296 -79.815176 
L 349.967937 -80.351285 
L 350.743578 -81.034945 
L 351.519219 -81.746562 
L 352.29486 -82.377043 
L 353.070501 -82.857774 
L 353.846142 -83.173668 
L 354.621783 -83.356757 
L 355.397424 -83.46512 
L 356.173065 -83.555583 
L 356.948706 -83.66005 
L 357.724347 -83.774564 
L 358.499988 -83.866 
L 359.275629 -83.893875 
L 360.05127 -83.837635 
L 360.826911 -83.717364 
L 361.602552 -83.598742 
L 362.378193 -83.57915 
L 363.153834 -83.758392 
L 363.929475 -84.203431 
L 364.705116 -84.920326 
L 365.480757 -85.845511 
L 366.256398 -86.861276 
L 367.032039 -87.829836 
L 367.80768 -88.633105 
L 368.583321 -89.204161 
L 369.358962 -89.54113 
L 370.134603 -89.700677 
L 370.910244 -89.77434 
L 371.685885 -89.85556 
L 372.461526 -90.007887 
L 373.237167 -90.244341 
L 374.012808 -90.524358 
L 374.788449 -90.768841 
L 375.56409 -90.887817 
L 376.339731 -90.810703 
L 377.115372 -90.508041 
L 377.891013 -89.997437 
L 378.666654 -89.333765 
L 379.442295 -88.590114 
L 380.217936 -87.838131 
L 380.993577 -87.134434 
L 381.769218 -86.516213 
L 382.544859 -86.005922 
L 383.3205 -85.621875 
L 384.096141 -85.388506 
L 384.871782 -85.338943 
L 385.647423 -85.506145 
L 386.423064 -85.906086 
L 387.198705 -86.52183 
L 387.974346 -87.297241 
L 388.749987 -88.144374 
L 389.525628 -88.963089 
L 390.301269 -89.667623 
L 391.07691 -90.212649 
L 391.852551 -90.609732 
L 392.628192 -90.925791 
L 393.403833 -91.26073 
L 394.179474 -91.710654 
L 394.955115 -92.330453 
L 395.730756 -93.110546 
L 396.506397 -93.977097 
L 397.282038 -94.816406 
L 398.057679 -95.515857 
L 398.83332 -96.006822 
L 399.608961 -96.292848 
L 400.384602 -96.450862 
L 401.160243 -96.603913 
L 401.935884 -96.875898 
L 402.711525 -97.34586 
L 403.487166 -98.019094 
L 404.262807 -98.825457 
L 405.038448 -99.644969 
L 405.814089 -100.350992 
L 406.58973 -100.855265 
L 407.365371 -101.138863 
L 408.141012 -101.258328 
L 408.916653 -101.32488 
L 409.692294 -101.463939 
L 410.467935 -101.768886 
L 411.243576 -102.265173 
L 412.019217 -102.897304 
L 412.794858 -103.542969 
L 413.570499 -104.048855 
L 413.570499 -124.124775 
L 413.570499 -124.124775 
L 412.794858 -123.593821 
L 412.019217 -122.932099 
L 411.243576 -122.291924 
L 410.467935 -121.791142 
L 409.692294 -121.480092 
L 408.916653 -121.330122 
L 408.141012 -121.247176 
L 407.365371 -121.106523 
L 406.58973 -120.79806 
L 405.814089 -120.266966 
L 405.038448 -119.534891 
L 404.262807 -118.693148 
L 403.487166 -117.869953 
L 402.711525 -117.183718 
L 401.935884 -116.69981 
L 401.160243 -116.40717 
L 400.384602 -116.223598 
L 399.608961 -116.027181 
L 398.83332 -115.701246 
L 398.057679 -115.175879 
L 397.282038 -114.45143 
L 396.506397 -113.596445 
L 395.730756 -112.721282 
L 394.955115 -111.93719 
L 394.179474 -111.315915 
L 393.403833 -110.865108 
L 392.628192 -110.528148 
L 391.852551 -110.207337 
L 391.07691 -109.800763 
L 390.301269 -109.239222 
L 389.525628 -108.510534 
L 388.749987 -107.663311 
L 387.974346 -106.789606 
L 387.198705 -105.994157 
L 386.423064 -105.363451 
L 385.647423 -104.946912 
L 384.871782 -104.755009 
L 384.096141 -104.770278 
L 383.3205 -104.963027 
L 382.544859 -105.304607 
L 381.769218 -105.77395 
L 380.993577 -106.35554 
L 380.217936 -107.030037 
L 379.442295 -107.762538 
L 378.666654 -108.49601 
L 377.891013 -109.155842 
L 377.115372 -109.66572 
L 376.339731 -109.9689 
L 375.56409 -110.046413 
L 374.788449 -109.925105 
L 374.012808 -109.671843 
L 373.237167 -109.374167 
L 372.461526 -109.112269 
L 371.685885 -108.931048 
L 370.910244 -108.822418 
L 370.134603 -108.725532 
L 369.358962 -108.546546 
L 368.583321 -108.192039 
L 367.80768 -107.604703 
L 367.032039 -106.788246 
L 366.256398 -105.812033 
L 365.480757 -104.79357 
L 364.705116 -103.8654 
L 363.929475 -103.138224 
L 363.153834 -102.672118 
L 362.378193 -102.463827 
L 361.602552 -102.453195 
L 360.826911 -102.546461 
L 360.05127 -102.648747 
L 359.275629 -102.693937 
L 358.499988 -102.660331 
L 357.724347 -102.566487 
L 356.948706 -102.450617 
L 356.173065 -102.34362 
L 355.397424 -102.247495 
L 354.621783 -102.128293 
L 353.846142 -101.927249 
L 353.070501 -101.586245 
L 352.29486 -101.076913 
L 351.519219 -100.42044 
L 350.743578 -99.689528 
L 349.967937 -98.991938 
L 349.192296 -98.441985 
L 348.416655 -98.129279 
L 347.641014 -98.093602 
L 346.865373 -98.313139 
L 346.089732 -98.709873 
L 345.314091 -99.170174 
L 344.53845 -99.57247 
L 343.762809 -99.811911 
L 342.987168 -99.815114 
L 342.211527 -99.54413 
L 341.435886 -98.993875 
L 340.660245 -98.189254 
L 339.884604 -97.18616 
L 339.108963 -96.075321 
L 338.333322 -94.982616 
L 337.557681 -94.058 
L 336.78204 -93.449658 
L 336.006399 -93.268419 
L 335.230758 -93.553546 
L 334.455117 -94.251426 
L 333.679476 -95.215437 
L 332.903835 -96.230955 
L 332.128194 -97.063491 
L 331.352553 -97.519436 
L 330.576912 -97.500859 
L 329.801271 -97.034035 
L 329.02563 -96.259344 
L 328.249989 -95.38497 
L 327.474348 -94.620827 
L 326.698707 -94.115979 
L 325.923066 -93.920566 
L 325.147425 -93.983293 
L 324.371784 -94.182175 
L 323.596143 -94.374767 
L 322.820502 -94.448701 
L 322.044861 -94.354983 
L 321.26922 -94.113598 
L 320.493579 -93.791531 
L 319.717938 -93.464589 
L 318.942297 -93.182038 
L 318.166656 -92.951317 
L 317.391015 -92.748772 
L 316.615374 -92.547655 
L 315.839733 -92.346303 
L 315.064092 -92.181212 
L 314.288451 -92.117948 
L 313.51281 -92.221887 
L 312.73717 -92.519152 
L 311.961529 -92.965185 
L 311.185888 -93.439567 
L 310.410247 -93.77578 
L 309.634606 -93.81691 
L 308.858965 -93.47448 
L 308.083324 -92.766469 
L 307.307683 -91.820503 
L 306.532042 -90.841708 
L 305.756401 -90.05596 
L 304.98076 -89.646562 
L 304.205119 -89.704207 
L 303.429478 -90.205221 
L 302.653837 -91.022867 
L 301.878196 -91.965585 
L 301.102555 -92.828947 
L 300.326914 -93.445868 
L 299.551273 -93.721669 
L 298.775632 -93.646277 
L 297.999991 -93.284177 
L 297.22435 -92.749734 
L 296.448709 -92.177676 
L 295.673068 -91.69597 
L 294.897427 -91.404224 
L 294.121786 -91.35803 
L 293.346145 -91.559524 
L 292.570504 -91.95538 
L 291.794863 -92.444148 
L 291.019222 -92.894772 
L 290.243581 -93.175955 
L 289.46794 -93.190691 
L 288.692299 -92.904124 
L 287.916658 -92.352516 
L 287.141017 -91.628723 
L 286.365376 -90.850737 
L 285.589735 -90.126425 
L 284.814094 -89.526809 
L 284.038453 -89.074897 
L 283.262812 -88.751116 
L 282.487171 -88.511086 
L 281.71153 -88.306651 
L 280.935889 -88.099034 
L 280.160248 -87.857461 
L 279.384607 -87.546634 
L 278.608966 -87.115137 
L 277.833325 -86.49738 
L 277.057684 -85.63352 
L 276.282043 -84.500501 
L 275.506402 -83.138897 
L 274.730761 -81.659567 
L 273.95512 -80.221108 
L 273.179479 -78.981638 
L 272.403838 -78.041401 
L 271.628197 -77.400195 
L 270.852556 -76.950834 
L 270.076915 -76.516785 
L 269.301274 -75.922419 
L 268.525633 -75.068081 
L 267.749992 -73.977848 
L 266.974351 -72.798827 
L 266.19871 -71.750616 
L 265.423069 -71.042688 
L 264.647428 -70.789979 
L 263.871787 -70.959863 
L 263.096146 -71.375166 
L 262.320505 -71.777636 
L 261.544864 -71.929586 
L 260.769223 -71.710718 
L 259.993582 -71.166611 
L 259.217941 -70.488116 
L 258.4423 -69.933775 
L 257.666659 -69.731019 
L 256.891018 -69.996504 
L 256.115377 -70.703671 
L 255.339736 -71.70621 
L 254.564095 -72.805193 
L 253.788454 -73.830008 
L 253.012813 -74.696185 
L 252.237172 -75.414061 
L 251.461531 -76.048316 
L 250.68589 -76.655405 
L 249.910249 -77.236539 
L 249.134608 -77.732598 
L 248.358967 -78.06237 
L 247.583326 -78.182589 
L 246.807685 -78.137852 
L 246.032044 -78.072838 
L 245.256403 -78.19479 
L 244.480762 -78.696014 
L 243.705121 -79.666441 
L 242.92948 -81.036488 
L 242.153839 -82.582523 
L 241.378198 -84.001646 
L 240.602557 -85.029636 
L 239.826916 -85.552662 
L 239.051275 -85.663022 
L 238.275634 -85.632935 
L 237.499993 -85.815712 
L 236.724352 -86.513147 
L 235.948711 -87.860276 
L 235.17307 -89.771666 
L 234.397429 -91.971042 
L 233.621788 -94.094505 
L 232.846147 -95.826943 
L 232.070506 -97.014492 
L 231.294865 -97.705207 
L 230.519224 -98.103137 
L 229.743583 -98.461063 
L 228.967942 -98.962453 
L 228.192301 -99.643246 
L 227.41666 -100.383653 
L 226.641019 -100.970648 
L 225.865378 -101.203238 
L 225.089737 -100.994347 
L 224.314096 -100.422896 
L 223.538455 -99.71094 
L 222.762814 -99.134617 
L 221.987173 -98.906861 
L 221.211532 -99.080653 
L 220.435891 -99.511996 
L 219.66025 -99.898516 
L 218.884609 -99.881322 
L 218.108968 -99.172712 
L 217.333327 -97.660493 
L 216.557686 -95.448993 
L 215.782045 -92.824522 
L 215.006404 -90.164428 
L 214.230763 -87.827352 
L 213.455122 -86.062308 
L 212.679481 -84.961695 
L 211.90384 -84.46601 
L 211.128199 -84.410521 
L 210.352558 -84.590965 
L 209.576917 -84.82199 
L 208.801276 -84.970631 
L 208.025635 -84.962137 
L 207.249994 -84.768064 
L 206.474353 -84.390531 
L 205.698712 -83.853371 
L 204.923071 -83.203242 
L 204.14743 -82.515152 
L 203.371789 -81.891771 
L 202.596148 -81.448796 
L 201.820507 -81.287826 
L 201.044866 -81.466657 
L 200.269225 -81.978289 
L 199.493584 -82.746109 
L 198.717943 -83.638425 
L 197.942302 -84.502273 
L 197.166661 -85.210617 
L 196.39102 -85.70765 
L 195.615379 -86.031421 
L 194.839738 -86.300758 
L 194.064097 -86.671793 
L 193.288456 -87.284944 
L 192.512815 -88.224586 
L 191.737174 -89.502414 
L 190.961533 -91.063418 
L 190.185892 -92.808299 
L 189.410251 -94.625535 
L 188.63461 -96.424876 
L 187.858969 -98.161766 
L 187.083328 -99.843168 
L 186.307687 -101.511504 
L 185.532046 -103.212633 
L 184.756405 -104.961413 
L 183.980764 -106.720598 
L 183.205123 -108.40373 
L 182.429482 -109.901812 
L 181.653841 -111.122795 
L 180.8782 -112.027743 
L 180.102559 -112.650185 
L 179.326918 -113.092357 
L 178.551277 -113.498647 
L 177.775636 -114.011306 
L 176.999995 -114.719235 
L 176.224354 -115.617248 
L 175.448713 -116.594882 
L 174.673072 -117.465178 
L 173.897431 -118.027444 
L 173.12179 -118.142323 
L 172.346149 -117.790783 
L 171.570508 -117.09365 
L 170.794867 -116.281866 
L 170.019226 -115.624809 
L 169.243585 -115.339317 
L 168.467944 -115.510677 
L 167.692303 -116.054933 
L 166.916662 -116.73906 
L 166.141021 -117.255684 
L 165.36538 -117.328774 
L 164.589739 -116.81382 
L 163.814098 -115.755494 
L 163.038457 -114.379586 
L 162.262816 -113.020259 
L 161.487175 -112.008987 
L 160.711534 -111.566209 
L 159.935893 -111.73427 
L 159.160252 -112.373206 
L 158.384611 -113.217768 
L 157.60897 -113.972887 
L 156.833329 -114.412064 
L 156.057688 -114.443288 
L 155.282047 -114.120364 
L 154.506406 -113.59934 
L 153.730765 -113.061331 
L 152.955124 -112.635092 
L 152.179483 -112.349677 
L 151.403842 -112.133264 
L 150.628201 -111.854339 
L 149.85256 -111.385557 
L 149.076919 -110.663152 
L 148.301278 -109.71853 
L 147.525637 -108.671061 
L 146.749996 -107.686693 
L 145.974355 -106.919842 
L 145.198714 -106.462107 
L 144.423073 -106.31884 
L 143.647432 -106.42221 
L 142.871791 -106.671658 
L 142.09615 -106.979677 
L 141.32051 -107.301228 
L 140.544869 -107.637278 
L 139.769228 -108.016807 
L 138.993587 -108.469161 
L 138.217946 -108.998765 
L 137.442305 -109.57171 
L 136.666664 -110.119905 
L 135.891023 -110.56179 
L 135.115382 -110.830151 
L 134.339741 -110.893056 
L 133.5641 -110.758365 
L 132.788459 -110.462435 
L 132.012818 -110.051727 
L 131.237177 -109.567053 
L 130.461536 -109.036284 
L 129.685895 -108.476518 
L 128.910254 -107.902901 
L 128.134613 -107.338369 
L 127.358972 -106.818133 
L 126.583331 -106.385605 
L 125.80769 -106.081678 
L 125.032049 -105.932451 
L 124.256408 -105.940499 
L 123.480767 -106.083125 
L 122.705126 -106.319151 
L 121.929485 -106.602652 
L 121.153844 -106.897773 
L 120.378203 -107.186551 
L 119.602562 -107.465476 
L 118.826921 -107.733968 
L 118.05128 -107.983031 
L 117.275639 -108.190859 
L 116.499998 -108.326722 
L 115.724357 -108.360255 
L 114.948716 -108.271837 
L 114.173075 -108.059608 
L 113.397434 -107.739917 
L 112.621793 -107.341451 
L 111.846152 -106.896994 
L 111.070511 -106.43703 
L 110.29487 -105.986152 
L 109.519229 -105.560902 
L 108.743588 -105.169096 
L 107.967947 -104.812734 
L 107.192306 -104.494732 
L 106.416665 -104.224794 
L 105.641024 -104.018499 
L 104.865383 -103.888846 
L 104.089742 -103.835757 
L 103.314101 -103.839756 
L 102.53846 -103.861306 
L 101.762819 -103.843995 
L 100.987178 -103.720842 
L 100.211537 -103.425524 
L 99.435896 -102.909236 
L 98.660255 -102.160006 
L 97.884614 -101.218506 
L 97.108973 -100.184826 
L 96.333332 -99.212369 
L 95.557691 -98.486391 
L 94.78205 -98.186945 
L 94.006409 -98.44154 
L 93.230768 -99.279979 
L 92.455127 -100.607803 
L 91.679486 -102.211625 
L 90.903845 -103.800114 
L 90.128204 -105.072477 
L 89.352563 -105.796705 
L 88.576922 -105.874954 
L 87.801281 -105.374055 
L 87.02564 -104.506408 
L 86.249999 -103.561956 
L 85.474358 -102.812755 
L 84.698717 -102.428075 
L 83.923076 -102.435091 
L 83.147435 -102.734749 
L 82.371794 -103.15454 
L 81.596153 -103.509937 
L 80.820512 -103.656066 
L 80.044871 -103.525552 
L 79.26923 -103.147768 
L 78.493589 -102.636699 
L 77.717948 -102.144276 
L 76.942307 -101.799827 
L 76.166666 -101.670008 
L 75.391025 -101.759813 
L 74.615384 -102.042463 
L 73.839743 -102.488233 
L 73.064102 -103.074701 
L 72.288461 -103.781536 
L 71.51282 -104.579146 
L 70.737179 -105.414973 
L 69.961538 -106.201038 
L 69.185897 -106.815081 
L 68.410256 -107.12992 
L 67.634615 -107.067028 
L 66.858974 -106.645326 
L 66.083333 -105.993642 
L 65.307692 -105.316542 
L 64.532051 -104.829087 
L 63.75641 -104.690485 
L 62.980769 -104.96254 
L 62.205128 -105.602543 
L 61.429487 -106.485984 
L 60.653846 -107.4475 
L 59.878205 -108.326633 
L 59.102564 -109.006102 
L 58.326923 -109.432778 
L 57.551282 -109.61561 
L 56.775641 -109.603241 
L 56 -109.454333 
z
" style="stroke: #377eb8; stroke-opacity: 0.3"/>
    </defs>
    <g clip-path="url(#p5de28a8ca8)">
     <use xlink:href="#m6e48ebbf72" x="0" y="360" style="fill: #377eb8; fill-opacity: 0.3; stroke: #377eb8; stroke-opacity: 0.3"/>
    </g>
   </g>
   <g id="patch_3">
    <path d="M 234.552557 318.04 
L 234.552557 71.732 
L 333.834605 71.732 
L 333.834605 318.04 
z
" clip-path="url(#p5de28a8ca8)" style="fill: #808080; opacity: 0.3"/>
   </g>
   <g id="matplotlib.axis_1">
    <g id="xtick_1">
     <g id="line2d_1">
      <defs>
       <path id="m67ce0dc0f9" d="M 0 0 
L 0 3.5 
" style="stroke: #000000; stroke-width: 0.8"/>
      </defs>
      <g>
       <use xlink:href="#m67ce0dc0f9" x="95.557691" y="318.04" style="stroke: #000000; stroke-width: 0.8"/>
      </g>
     </g>
     <g id="text_1">
      <!-- 0.0 -->
      <g transform="translate(87.606128 332.638438)scale(0.1 -0.1)">
       <defs>
        <path id="DejaVuSans-30" d="M 2034 4250 
Q 1547 4250 1301 3770 
Q 1056 3291 1056 2328 
Q 1056 1369 1301 889 
Q 1547 409 2034 409 
Q 2525 409 2770 889 
Q 3016 1369 3016 2328 
Q 3016 3291 2770 3770 
Q 2525 4250 2034 4250 
z
M 2034 4750 
Q 2819 4750 3233 4129 
Q 3647 3509 3647 2328 
Q 3647 1150 3233 529 
Q 2819 -91 2034 -91 
Q 1250 -91 836 529 
Q 422 1150 422 2328 
Q 422 3509 836 4129 
Q 1250 4750 2034 4750 
z
" transform="scale(0.015625)"/>
        <path id="DejaVuSans-2e" d="M 684 794 
L 1344 794 
L 1344 0 
L 684 0 
L 684 794 
z
" transform="scale(0.015625)"/>
       </defs>
       <use xlink:href="#DejaVuSans-30"/>
       <use xlink:href="#DejaVuSans-2e" x="63.623047"/>
       <use xlink:href="#DejaVuSans-30" x="95.410156"/>
      </g>
     </g>
    </g>
    <g id="xtick_2">
     <g id="line2d_2">
      <g>
       <use xlink:href="#m67ce0dc0f9" x="174.983329" y="318.04" style="stroke: #000000; stroke-width: 0.8"/>
      </g>
     </g>
     <g id="text_2">
      <!-- 0.2 -->
      <g transform="translate(167.031766 332.638438)scale(0.1 -0.1)">
       <defs>
        <path id="DejaVuSans-32" d="M 1228 531 
L 3431 531 
L 3431 0 
L 469 0 
L 469 531 
Q 828 903 1448 1529 
Q 2069 2156 2228 2338 
Q 2531 2678 2651 2914 
Q 2772 3150 2772 3378 
Q 2772 3750 2511 3984 
Q 2250 4219 1831 4219 
Q 1534 4219 1204 4116 
Q 875 4013 500 3803 
L 500 4441 
Q 881 4594 1212 4672 
Q 1544 4750 1819 4750 
Q 2544 4750 2975 4387 
Q 3406 4025 3406 3419 
Q 3406 3131 3298 2873 
Q 3191 2616 2906 2266 
Q 2828 2175 2409 1742 
Q 1991 1309 1228 531 
z
" transform="scale(0.015625)"/>
       </defs>
       <use xlink:href="#DejaVuSans-30"/>
       <use xlink:href="#DejaVuSans-2e" x="63.623047"/>
       <use xlink:href="#DejaVuSans-32" x="95.410156"/>
      </g>
     </g>
    </g>
    <g id="xtick_3">
     <g id="line2d_3">
      <g>
       <use xlink:href="#m67ce0dc0f9" x="254.408967" y="318.04" style="stroke: #000000; stroke-width: 0.8"/>
      </g>
     </g>
     <g id="text_3">
      <!-- 0.4 -->
      <g transform="translate(246.457404 332.638438)scale(0.1 -0.1)">
       <defs>
        <path id="DejaVuSans-34" d="M 2419 4116 
L 825 1625 
L 2419 1625 
L 2419 4116 
z
M 2253 4666 
L 3047 4666 
L 3047 1625 
L 3713 1625 
L 3713 1100 
L 3047 1100 
L 3047 0 
L 2419 0 
L 2419 1100 
L 313 1100 
L 313 1709 
L 2253 4666 
z
" transform="scale(0.015625)"/>
       </defs>
       <use xlink:href="#DejaVuSans-30"/>
       <use xlink:href="#DejaVuSans-2e" x="63.623047"/>
       <use xlink:href="#DejaVuSans-34" x="95.410156"/>
      </g>
     </g>
    </g>
    <g id="xtick_4">
     <g id="line2d_4">
      <g>
       <use xlink:href="#m67ce0dc0f9" x="333.834605" y="318.04" style="stroke: #000000; stroke-width: 0.8"/>
      </g>
     </g>
     <g id="text_4">
      <!-- 0.6 -->
      <g transform="translate(325.883042 332.638438)scale(0.1 -0.1)">
       <defs>
        <path id="DejaVuSans-36" d="M 2113 2584 
Q 1688 2584 1439 2293 
Q 1191 2003 1191 1497 
Q 1191 994 1439 701 
Q 1688 409 2113 409 
Q 2538 409 2786 701 
Q 3034 994 3034 1497 
Q 3034 2003 2786 2293 
Q 2538 2584 2113 2584 
z
M 3366 4563 
L 3366 3988 
Q 3128 4100 2886 4159 
Q 2644 4219 2406 4219 
Q 1781 4219 1451 3797 
Q 1122 3375 1075 2522 
Q 1259 2794 1537 2939 
Q 1816 3084 2150 3084 
Q 2853 3084 3261 2657 
Q 3669 2231 3669 1497 
Q 3669 778 3244 343 
Q 2819 -91 2113 -91 
Q 1303 -91 875 529 
Q 447 1150 447 2328 
Q 447 3434 972 4092 
Q 1497 4750 2381 4750 
Q 2619 4750 2861 4703 
Q 3103 4656 3366 4563 
z
" transform="scale(0.015625)"/>
       </defs>
       <use xlink:href="#DejaVuSans-30"/>
       <use xlink:href="#DejaVuSans-2e" x="63.623047"/>
       <use xlink:href="#DejaVuSans-36" x="95.410156"/>
      </g>
     </g>
    </g>
    <g id="xtick_5">
     <g id="line2d_5">
      <g>
       <use xlink:href="#m67ce0dc0f9" x="413.260243" y="318.04" style="stroke: #000000; stroke-width: 0.8"/>
      </g>
     </g>
     <g id="text_5">
      <!-- 0.8 -->
      <g transform="translate(405.30868 332.638438)scale(0.1 -0.1)">
       <defs>
        <path id="DejaVuSans-38" d="M 2034 2216 
Q 1584 2216 1326 1975 
Q 1069 1734 1069 1313 
Q 1069 891 1326 650 
Q 1584 409 2034 409 
Q 2484 409 2743 651 
Q 3003 894 3003 1313 
Q 3003 1734 2745 1975 
Q 2488 2216 2034 2216 
z
M 1403 2484 
Q 997 2584 770 2862 
Q 544 3141 544 3541 
Q 544 4100 942 4425 
Q 1341 4750 2034 4750 
Q 2731 4750 3128 4425 
Q 3525 4100 3525 3541 
Q 3525 3141 3298 2862 
Q 3072 2584 2669 2484 
Q 3125 2378 3379 2068 
Q 3634 1759 3634 1313 
Q 3634 634 3220 271 
Q 2806 -91 2034 -91 
Q 1263 -91 848 271 
Q 434 634 434 1313 
Q 434 1759 690 2068 
Q 947 2378 1403 2484 
z
M 1172 3481 
Q 1172 3119 1398 2916 
Q 1625 2713 2034 2713 
Q 2441 2713 2670 2916 
Q 2900 3119 2900 3481 
Q 2900 3844 2670 4047 
Q 2441 4250 2034 4250 
Q 1625 4250 1398 4047 
Q 1172 3844 1172 3481 
z
" transform="scale(0.015625)"/>
       </defs>
       <use xlink:href="#DejaVuSans-30"/>
       <use xlink:href="#DejaVuSans-2e" x="63.623047"/>
       <use xlink:href="#DejaVuSans-38" x="95.410156"/>
      </g>
     </g>
    </g>
    <g id="text_6">
     <!-- seconds -->
     <g transform="translate(214.347749 346.316563)scale(0.1 -0.1)">
      <defs>
       <path id="DejaVuSans-73" d="M 2834 3397 
L 2834 2853 
Q 2591 2978 2328 3040 
Q 2066 3103 1784 3103 
Q 1356 3103 1142 2972 
Q 928 2841 928 2578 
Q 928 2378 1081 2264 
Q 1234 2150 1697 2047 
L 1894 2003 
Q 2506 1872 2764 1633 
Q 3022 1394 3022 966 
Q 3022 478 2636 193 
Q 2250 -91 1575 -91 
Q 1294 -91 989 -36 
Q 684 19 347 128 
L 347 722 
Q 666 556 975 473 
Q 1284 391 1588 391 
Q 1994 391 2212 530 
Q 2431 669 2431 922 
Q 2431 1156 2273 1281 
Q 2116 1406 1581 1522 
L 1381 1569 
Q 847 1681 609 1914 
Q 372 2147 372 2553 
Q 372 3047 722 3315 
Q 1072 3584 1716 3584 
Q 2034 3584 2315 3537 
Q 2597 3491 2834 3397 
z
" transform="scale(0.015625)"/>
       <path id="DejaVuSans-65" d="M 3597 1894 
L 3597 1613 
L 953 1613 
Q 991 1019 1311 708 
Q 1631 397 2203 397 
Q 2534 397 2845 478 
Q 3156 559 3463 722 
L 3463 178 
Q 3153 47 2828 -22 
Q 2503 -91 2169 -91 
Q 1331 -91 842 396 
Q 353 884 353 1716 
Q 353 2575 817 3079 
Q 1281 3584 2069 3584 
Q 2775 3584 3186 3129 
Q 3597 2675 3597 1894 
z
M 3022 2063 
Q 3016 2534 2758 2815 
Q 2500 3097 2075 3097 
Q 1594 3097 1305 2825 
Q 1016 2553 972 2059 
L 3022 2063 
z
" transform="scale(0.015625)"/>
       <path id="DejaVuSans-63" d="M 3122 3366 
L 3122 2828 
Q 2878 2963 2633 3030 
Q 2388 3097 2138 3097 
Q 1578 3097 1268 2742 
Q 959 2388 959 1747 
Q 959 1106 1268 751 
Q 1578 397 2138 397 
Q 2388 397 2633 464 
Q 2878 531 3122 666 
L 3122 134 
Q 2881 22 2623 -34 
Q 2366 -91 2075 -91 
Q 1284 -91 818 406 
Q 353 903 353 1747 
Q 353 2603 823 3093 
Q 1294 3584 2113 3584 
Q 2378 3584 2631 3529 
Q 2884 3475 3122 3366 
z
" transform="scale(0.015625)"/>
       <path id="DejaVuSans-6f" d="M 1959 3097 
Q 1497 3097 1228 2736 
Q 959 2375 959 1747 
Q 959 1119 1226 758 
Q 1494 397 1959 397 
Q 2419 397 2687 759 
Q 2956 1122 2956 1747 
Q 2956 2369 2687 2733 
Q 2419 3097 1959 3097 
z
M 1959 3584 
Q 2709 3584 3137 3096 
Q 3566 2609 3566 1747 
Q 3566 888 3137 398 
Q 2709 -91 1959 -91 
Q 1206 -91 779 398 
Q 353 888 353 1747 
Q 353 2609 779 3096 
Q 1206 3584 1959 3584 
z
" transform="scale(0.015625)"/>
       <path id="DejaVuSans-6e" d="M 3513 2113 
L 3513 0 
L 2938 0 
L 2938 2094 
Q 2938 2591 2744 2837 
Q 2550 3084 2163 3084 
Q 1697 3084 1428 2787 
Q 1159 2491 1159 1978 
L 1159 0 
L 581 0 
L 581 3500 
L 1159 3500 
L 1159 2956 
Q 1366 3272 1645 3428 
Q 1925 3584 2291 3584 
Q 2894 3584 3203 3211 
Q 3513 2838 3513 2113 
z
" transform="scale(0.015625)"/>
       <path id="DejaVuSans-64" d="M 2906 2969 
L 2906 4863 
L 3481 4863 
L 3481 0 
L 2906 0 
L 2906 525 
Q 2725 213 2448 61 
Q 2172 -91 1784 -91 
Q 1150 -91 751 415 
Q 353 922 353 1747 
Q 353 2572 751 3078 
Q 1150 3584 1784 3584 
Q 2172 3584 2448 3432 
Q 2725 3281 2906 2969 
z
M 947 1747 
Q 947 1113 1208 752 
Q 1469 391 1925 391 
Q 2381 391 2643 752 
Q 2906 1113 2906 1747 
Q 2906 2381 2643 2742 
Q 2381 3103 1925 3103 
Q 1469 3103 1208 2742 
Q 947 2381 947 1747 
z
" transform="scale(0.015625)"/>
      </defs>
      <use xlink:href="#DejaVuSans-73"/>
      <use xlink:href="#DejaVuSans-65" x="52.099609"/>
      <use xlink:href="#DejaVuSans-63" x="113.623047"/>
      <use xlink:href="#DejaVuSans-6f" x="168.603516"/>
      <use xlink:href="#DejaVuSans-6e" x="229.785156"/>
      <use xlink:href="#DejaVuSans-64" x="293.164062"/>
      <use xlink:href="#DejaVuSans-73" x="356.640625"/>
     </g>
    </g>
   </g>
   <g id="matplotlib.axis_2">
    <g id="ytick_1">
     <g id="line2d_6">
      <defs>
       <path id="m17d060fae9" d="M 0 0 
L -3.5 0 
" style="stroke: #000000; stroke-width: 0.8"/>
      </defs>
      <g>
       <use xlink:href="#m17d060fae9" x="56" y="290.868476" style="stroke: #000000; stroke-width: 0.8"/>
      </g>
     </g>
     <g id="text_7">
      <!-- 0.5 -->
      <g transform="translate(24.717188 294.667695)scale(0.1 -0.1)">
       <defs>
        <path id="DejaVuSans-2212" d="M 678 2272 
L 4684 2272 
L 4684 1741 
L 678 1741 
L 678 2272 
z
" transform="scale(0.015625)"/>
        <path id="DejaVuSans-35" d="M 691 4666 
L 3169 4666 
L 3169 4134 
L 1269 4134 
L 1269 2991 
Q 1406 3038 1543 3061 
Q 1681 3084 1819 3084 
Q 2600 3084 3056 2656 
Q 3513 2228 3513 1497 
Q 3513 744 3044 326 
Q 2575 -91 1722 -91 
Q 1428 -91 1123 -41 
Q 819 9 494 109 
L 494 744 
Q 775 591 1075 516 
Q 1375 441 1709 441 
Q 2250 441 2565 725 
Q 2881 1009 2881 1497 
Q 2881 1984 2565 2268 
Q 2250 2553 1709 2553 
Q 1456 2553 1204 2497 
Q 953 2441 691 2322 
L 691 4666 
z
" transform="scale(0.015625)"/>
       </defs>
       <use xlink:href="#DejaVuSans-2212"/>
       <use xlink:href="#DejaVuSans-30" x="83.789062"/>
       <use xlink:href="#DejaVuSans-2e" x="147.412109"/>
       <use xlink:href="#DejaVuSans-35" x="179.199219"/>
      </g>
     </g>
    </g>
    <g id="ytick_2">
     <g id="line2d_7">
      <g>
       <use xlink:href="#m17d060fae9" x="56" y="259.477143" style="stroke: #000000; stroke-width: 0.8"/>
      </g>
     </g>
     <g id="text_8">
      <!-- 0.0 -->
      <g transform="translate(33.096875 263.276361)scale(0.1 -0.1)">
       <use xlink:href="#DejaVuSans-30"/>
       <use xlink:href="#DejaVuSans-2e" x="63.623047"/>
       <use xlink:href="#DejaVuSans-30" x="95.410156"/>
      </g>
     </g>
    </g>
    <g id="ytick_3">
     <g id="line2d_8">
      <g>
       <use xlink:href="#m17d060fae9" x="56" y="228.085809" style="stroke: #000000; stroke-width: 0.8"/>
      </g>
     </g>
     <g id="text_9">
      <!-- 0.5 -->
      <g transform="translate(33.096875 231.885028)scale(0.1 -0.1)">
       <use xlink:href="#DejaVuSans-30"/>
       <use xlink:href="#DejaVuSans-2e" x="63.623047"/>
       <use xlink:href="#DejaVuSans-35" x="95.410156"/>
      </g>
     </g>
    </g>
    <g id="ytick_4">
     <g id="line2d_9">
      <g>
       <use xlink:href="#m17d060fae9" x="56" y="196.694476" style="stroke: #000000; stroke-width: 0.8"/>
      </g>
     </g>
     <g id="text_10">
      <!-- 1.0 -->
      <g transform="translate(33.096875 200.493694)scale(0.1 -0.1)">
       <defs>
        <path id="DejaVuSans-31" d="M 794 531 
L 1825 531 
L 1825 4091 
L 703 3866 
L 703 4441 
L 1819 4666 
L 2450 4666 
L 2450 531 
L 3481 531 
L 3481 0 
L 794 0 
L 794 531 
z
" transform="scale(0.015625)"/>
       </defs>
       <use xlink:href="#DejaVuSans-31"/>
       <use xlink:href="#DejaVuSans-2e" x="63.623047"/>
       <use xlink:href="#DejaVuSans-30" x="95.410156"/>
      </g>
     </g>
    </g>
    <g id="ytick_5">
     <g id="line2d_10">
      <g>
       <use xlink:href="#m17d060fae9" x="56" y="165.303142" style="stroke: #000000; stroke-width: 0.8"/>
      </g>
     </g>
     <g id="text_11">
      <!-- 1.5 -->
      <g transform="translate(33.096875 169.102361)scale(0.1 -0.1)">
       <use xlink:href="#DejaVuSans-31"/>
       <use xlink:href="#DejaVuSans-2e" x="63.623047"/>
       <use xlink:href="#DejaVuSans-35" x="95.410156"/>
      </g>
     </g>
    </g>
    <g id="ytick_6">
     <g id="line2d_11">
      <g>
       <use xlink:href="#m17d060fae9" x="56" y="133.911809" style="stroke: #000000; stroke-width: 0.8"/>
      </g>
     </g>
     <g id="text_12">
      <!-- 2.0 -->
      <g transform="translate(33.096875 137.711028)scale(0.1 -0.1)">
       <use xlink:href="#DejaVuSans-32"/>
       <use xlink:href="#DejaVuSans-2e" x="63.623047"/>
       <use xlink:href="#DejaVuSans-30" x="95.410156"/>
      </g>
     </g>
    </g>
    <g id="ytick_7">
     <g id="line2d_12">
      <g>
       <use xlink:href="#m17d060fae9" x="56" y="102.520475" style="stroke: #000000; stroke-width: 0.8"/>
      </g>
     </g>
     <g id="text_13">
      <!-- 2.5 -->
      <g transform="translate(33.096875 106.319694)scale(0.1 -0.1)">
       <use xlink:href="#DejaVuSans-32"/>
       <use xlink:href="#DejaVuSans-2e" x="63.623047"/>
       <use xlink:href="#DejaVuSans-35" x="95.410156"/>
      </g>
     </g>
    </g>
    <g id="text_14">
     <!-- V -->
     <g transform="translate(18.6375 201.487562)rotate(-90)scale(0.1 -0.1)">
      <defs>
       <path id="DejaVuSans-b5" d="M 544 -1331 
L 544 3500 
L 1119 3500 
L 1119 1325 
Q 1119 872 1334 640 
Q 1550 409 1972 409 
Q 2434 409 2667 671 
Q 2900 934 2900 1459 
L 2900 3500 
L 3475 3500 
L 3475 806 
Q 3475 619 3529 530 
Q 3584 441 3700 441 
Q 3728 441 3778 458 
Q 3828 475 3916 513 
L 3916 50 
Q 3788 -22 3673 -56 
Q 3559 -91 3450 -91 
Q 3234 -91 3106 31 
Q 2978 153 2931 403 
Q 2775 156 2548 32 
Q 2322 -91 2016 -91 
Q 1697 -91 1473 31 
Q 1250 153 1119 397 
L 1119 -1331 
L 544 -1331 
z
" transform="scale(0.015625)"/>
       <path id="DejaVuSans-56" d="M 1831 0 
L 50 4666 
L 709 4666 
L 2188 738 
L 3669 4666 
L 4325 4666 
L 2547 0 
L 1831 0 
z
" transform="scale(0.015625)"/>
      </defs>
      <use xlink:href="#DejaVuSans-b5"/>
      <use xlink:href="#DejaVuSans-56" x="63.623047"/>
     </g>
    </g>
   </g>
   <g id="line2d_13">
    <path d="M 56 255.100209 
L 56.775641 256.627152 
L 59.102564 263.775938 
L 59.878205 265.364312 
L 60.653846 265.937135 
L 61.429487 265.45117 
L 62.205128 264.106925 
L 64.532051 258.890124 
L 65.307692 257.978611 
L 66.083333 257.754409 
L 66.858974 258.126853 
L 69.185897 260.498503 
L 69.961538 260.931114 
L 70.737179 260.981668 
L 71.51282 260.688843 
L 73.064102 259.665032 
L 73.839743 259.322797 
L 74.615384 259.305583 
L 75.391025 259.658426 
L 77.717948 261.564095 
L 78.493589 261.662116 
L 79.26923 261.162476 
L 80.044871 260.079384 
L 82.371794 255.912028 
L 83.147435 255.329614 
L 83.923076 255.442129 
L 84.698717 256.113366 
L 86.249999 257.816974 
L 87.02564 258.18376 
L 87.801281 258.034427 
L 89.352563 256.908554 
L 90.128204 256.597162 
L 90.903845 256.817258 
L 91.679486 257.597805 
L 93.230768 259.851943 
L 94.006409 260.580601 
L 94.78205 260.676702 
L 95.557691 260.134701 
L 97.108973 258.203326 
L 97.884614 257.55875 
L 98.660255 257.478395 
L 99.435896 257.968846 
L 101.762819 260.436582 
L 102.53846 260.69621 
L 103.314101 260.501053 
L 104.089742 259.939339 
L 105.641024 258.19754 
L 107.192306 255.933908 
L 109.519229 252.077797 
L 110.29487 251.404083 
L 111.070511 251.482593 
L 111.846152 252.417361 
L 112.621793 254.074267 
L 114.173075 257.967413 
L 114.948716 259.26164 
L 115.724357 259.726393 
L 116.499998 259.414816 
L 118.05128 257.90328 
L 118.826921 257.567632 
L 119.602562 257.811212 
L 121.153844 259.151454 
L 121.929485 259.295551 
L 122.705126 258.492205 
L 123.480767 256.610386 
L 125.80769 248.161327 
L 126.583331 246.397658 
L 127.358972 245.843763 
L 128.134613 246.42889 
L 130.461536 250.593994 
L 131.237177 251.255182 
L 132.012818 251.267227 
L 132.788459 250.820992 
L 133.5641 250.230794 
L 134.339741 249.795199 
L 135.115382 249.688353 
L 135.891023 249.920617 
L 141.32051 253.194179 
L 142.871791 254.466566 
L 143.647432 254.699903 
L 144.423073 254.372585 
L 145.198714 253.405385 
L 145.974355 251.907627 
L 147.525637 248.562518 
L 148.301278 247.453528 
L 149.076919 247.046859 
L 149.85256 247.330498 
L 152.179483 249.481724 
L 152.955124 249.496725 
L 153.730765 248.88006 
L 154.506406 247.732562 
L 158.384611 240.62586 
L 159.935893 237.672649 
L 161.487175 234.351006 
L 162.262816 232.957213 
L 163.038457 232.006656 
L 163.814098 231.579326 
L 164.589739 231.598831 
L 166.141021 232.067189 
L 166.916662 232.014601 
L 167.692303 231.596434 
L 170.019226 229.451037 
L 170.794867 229.224403 
L 171.570508 229.501715 
L 172.346149 230.235585 
L 174.673072 233.252996 
L 175.448713 233.90143 
L 176.224354 234.252064 
L 176.999995 234.369545 
L 179.326918 234.423942 
L 180.102559 234.619112 
L 181.653841 235.359139 
L 183.205123 236.126338 
L 183.980764 236.220497 
L 184.756405 235.929936 
L 185.532046 235.154468 
L 186.307687 233.889946 
L 188.63461 229.071294 
L 189.410251 228.189859 
L 190.185892 228.131266 
L 190.961533 228.936598 
L 191.737174 230.43013 
L 193.288456 234.012815 
L 194.064097 235.310305 
L 194.839738 235.939584 
L 195.615379 235.885013 
L 196.39102 235.305349 
L 198.717943 232.769418 
L 201.044866 230.60516 
L 201.820507 229.554059 
L 203.371789 226.765043 
L 204.923071 223.955254 
L 205.698712 222.937922 
L 206.474353 222.272557 
L 207.249994 221.907934 
L 208.801276 221.470447 
L 209.576917 220.988548 
L 210.352558 220.06663 
L 211.128199 218.570112 
L 211.90384 216.459605 
L 213.455122 210.87664 
L 214.230763 207.968301 
L 215.006404 205.497265 
L 215.782045 203.833026 
L 216.557686 203.20806 
L 217.333327 203.634162 
L 218.108968 204.874807 
L 219.66025 207.969776 
L 220.435891 208.852867 
L 221.211532 208.892948 
L 221.987173 208.10878 
L 224.314096 203.934323 
L 225.089737 203.058101 
L 225.865378 202.627963 
L 227.41666 202.320596 
L 228.192301 201.967973 
L 228.967942 201.343323 
L 230.519224 199.84448 
L 231.294865 199.45916 
L 232.070506 199.552311 
L 232.846147 200.09883 
L 234.397429 201.634593 
L 235.17307 202.014748 
L 235.948711 201.852106 
L 236.724352 201.13789 
L 239.826916 196.737366 
L 240.602557 196.14992 
L 242.92948 195.047887 
L 243.705121 194.392295 
L 244.480762 193.420496 
L 245.256403 192.109438 
L 246.807685 188.60069 
L 249.134608 182.613323 
L 249.910249 180.984763 
L 250.68589 179.692406 
L 253.012813 176.522301 
L 253.788454 174.791735 
L 254.564095 172.34295 
L 256.115377 165.755057 
L 256.891018 162.458534 
L 257.666659 159.922546 
L 258.4423 158.599595 
L 259.217941 158.634016 
L 259.993582 159.777465 
L 260.769223 161.432752 
L 261.544864 162.819585 
L 262.320505 163.21058 
L 263.096146 162.158103 
L 263.871787 159.633343 
L 266.974351 145.652691 
L 267.749992 144.106115 
L 268.525633 143.59556 
L 270.076915 143.747083 
L 270.852556 143.281769 
L 271.628197 141.950657 
L 272.403838 139.713257 
L 273.95512 133.584017 
L 274.730761 130.514732 
L 275.506402 127.935325 
L 276.282043 126.040027 
L 277.057684 124.849036 
L 277.833325 124.237981 
L 278.608966 123.996133 
L 280.160248 123.728227 
L 280.935889 123.381008 
L 281.71153 122.815819 
L 284.038453 120.707925 
L 284.814094 120.407333 
L 285.589735 120.554438 
L 286.365376 121.180711 
L 288.692299 124.290082 
L 289.46794 124.685462 
L 290.243581 124.216585 
L 291.019222 122.73068 
L 291.794863 120.285158 
L 294.121786 110.654239 
L 294.897427 108.228818 
L 295.673068 106.771475 
L 296.448709 106.315184 
L 297.22435 106.65177 
L 298.775632 108.092458 
L 299.551273 108.354847 
L 300.326914 107.964971 
L 301.102555 106.936273 
L 302.653837 104.054949 
L 303.429478 103.00932 
L 304.205119 102.701389 
L 304.98076 103.282186 
L 305.756401 104.679151 
L 308.083324 110.569563 
L 308.858965 111.888594 
L 309.634606 112.563302 
L 310.410247 112.69085 
L 311.961529 112.488169 
L 312.73717 112.889223 
L 313.51281 114.006496 
L 314.288451 115.92759 
L 315.064092 118.541823 
L 317.391015 127.230366 
L 318.166656 129.12794 
L 318.942297 130.114819 
L 319.717938 130.218252 
L 320.493579 129.663643 
L 322.044861 128.109133 
L 322.820502 127.89351 
L 323.596143 128.384075 
L 324.371784 129.582235 
L 326.698707 134.730313 
L 327.474348 135.769177 
L 328.249989 136.103836 
L 329.02563 135.811319 
L 330.576912 134.548781 
L 331.352553 134.34427 
L 332.128194 134.812622 
L 332.903835 136.022697 
L 333.679476 137.838355 
L 335.230758 142.067216 
L 336.006399 143.827351 
L 336.78204 145.071809 
L 337.557681 145.780903 
L 338.333322 146.073281 
L 340.660245 146.361997 
L 342.211527 147.111994 
L 343.762809 147.835672 
L 344.53845 147.916328 
L 345.314091 147.73912 
L 346.089732 147.322426 
L 347.641014 146.053161 
L 349.192296 144.826023 
L 349.967937 144.440259 
L 350.743578 144.283816 
L 351.519219 144.383474 
L 352.29486 144.734545 
L 353.846142 145.991867 
L 355.397424 147.354995 
L 356.173065 147.805612 
L 356.948706 148.006391 
L 357.724347 147.955319 
L 360.05127 147.241147 
L 360.826911 147.332776 
L 361.602552 147.827449 
L 362.378193 148.773799 
L 363.153834 150.119343 
L 365.480757 154.710953 
L 366.256398 155.667103 
L 367.032039 156.082985 
L 367.80768 155.973521 
L 368.583321 155.468113 
L 370.910244 153.462379 
L 373.237167 152.041894 
L 374.012808 151.252067 
L 374.788449 150.156671 
L 377.115372 146.131356 
L 377.891013 145.141274 
L 378.666654 144.490133 
L 380.217936 143.823958 
L 381.769218 143.10017 
L 382.544859 142.707326 
L 383.3205 142.561149 
L 384.096141 142.940413 
L 384.871782 144.043665 
L 385.647423 145.876627 
L 387.974346 152.511551 
L 388.749987 153.54502 
L 389.525628 153.470828 
L 390.301269 152.352468 
L 391.07691 150.49781 
L 392.628192 146.310386 
L 393.403833 144.679232 
L 394.179474 143.548634 
L 394.955115 142.867102 
L 395.730756 142.522229 
L 396.506397 142.433213 
L 397.282038 142.59903 
L 398.057679 143.078546 
L 398.83332 143.915743 
L 401.160243 147.277358 
L 401.935884 147.698239 
L 402.711525 147.331577 
L 403.487166 146.208974 
L 405.038448 143.135052 
L 405.814089 142.240069 
L 406.58973 142.339766 
L 407.365371 143.510794 
L 409.692294 149.644485 
L 410.467935 150.752452 
L 411.243576 150.851348 
L 412.019217 150.048973 
L 413.570499 147.144967 
L 413.570499 147.144967 
" clip-path="url(#p5de28a8ca8)" style="fill: none; stroke: #e41a1c; stroke-width: 1.5; stroke-linecap: square"/>
   </g>
   <g id="line2d_14">
    <path d="M 56 255.004068 
L 56.775641 254.760914 
L 57.551282 254.657142 
L 58.326923 254.753749 
L 59.102564 255.100823 
L 59.878205 255.709884 
L 62.980769 258.872732 
L 63.75641 259.092367 
L 64.532051 258.905929 
L 65.307692 258.386345 
L 66.858974 257.039902 
L 67.634615 256.605829 
L 68.410256 256.513501 
L 69.185897 256.789033 
L 69.961538 257.371759 
L 73.064102 260.505957 
L 73.839743 261.086494 
L 74.615384 261.520341 
L 75.391025 261.78638 
L 76.166666 261.857524 
L 76.942307 261.71516 
L 77.717948 261.373209 
L 80.044871 260.029063 
L 80.820512 259.89397 
L 81.596153 260.042938 
L 83.923076 261.212859 
L 84.698717 261.242803 
L 85.474358 260.873972 
L 86.249999 260.146849 
L 87.801281 258.415199 
L 88.576922 257.958688 
L 89.352563 258.075756 
L 90.128204 258.835786 
L 90.903845 260.147464 
L 93.230768 264.842724 
L 94.006409 265.757607 
L 94.78205 266.094682 
L 95.557691 265.881683 
L 96.333332 265.244355 
L 98.660255 262.559587 
L 99.435896 261.886509 
L 100.211537 261.434373 
L 100.987178 261.191018 
L 102.53846 261.13227 
L 104.865383 261.225011 
L 106.416665 260.977715 
L 107.967947 260.457889 
L 110.29487 259.365108 
L 113.397434 257.717873 
L 114.948716 257.240791 
L 115.724357 257.183233 
L 117.275639 257.40894 
L 119.602562 258.211486 
L 123.480767 259.759284 
L 124.256408 259.929612 
L 125.032049 259.965458 
L 125.80769 259.843447 
L 126.583331 259.565451 
L 128.134613 258.663941 
L 132.012818 256.09563 
L 133.5641 255.444127 
L 134.339741 255.339148 
L 135.115382 255.432502 
L 135.891023 255.730135 
L 137.442305 256.775343 
L 138.993587 257.939227 
L 140.544869 258.836867 
L 142.871791 259.887309 
L 143.647432 260.149812 
L 144.423073 260.257746 
L 145.198714 260.117169 
L 145.974355 259.667829 
L 146.749996 258.918353 
L 149.076919 256.013719 
L 149.85256 255.311302 
L 150.628201 254.861081 
L 153.730765 253.726072 
L 155.282047 252.70126 
L 156.057688 252.396018 
L 156.833329 252.445116 
L 157.60897 252.902032 
L 159.935893 255.18949 
L 160.711534 255.371127 
L 161.487175 254.942186 
L 162.262816 253.947973 
L 163.814098 251.262211 
L 164.589739 250.232062 
L 165.36538 249.742273 
L 166.141021 249.834941 
L 166.916662 250.364992 
L 168.467944 251.604042 
L 169.243585 251.774666 
L 170.019226 251.487134 
L 170.794867 250.830076 
L 172.346149 249.338865 
L 173.12179 249.00608 
L 173.897431 249.143506 
L 174.673072 249.729398 
L 177.775636 253.268188 
L 179.326918 254.201063 
L 180.102559 254.64604 
L 180.8782 255.276881 
L 181.653841 256.198198 
L 182.429482 257.439636 
L 183.980764 260.649742 
L 190.961533 276.384877 
L 191.737174 277.975087 
L 192.512815 279.275557 
L 193.288456 280.22757 
L 194.064097 280.84686 
L 195.615379 281.507584 
L 196.39102 281.845575 
L 197.166661 282.352159 
L 197.942302 283.064158 
L 200.269225 285.614172 
L 201.044866 286.141102 
L 201.820507 286.331153 
L 202.596148 286.176818 
L 203.371789 285.738856 
L 206.474353 283.271184 
L 207.249994 282.902957 
L 208.025635 282.718721 
L 208.801276 282.720378 
L 211.90384 283.262887 
L 212.679481 282.777559 
L 213.455122 281.688466 
L 214.230763 279.935242 
L 215.782045 274.962671 
L 216.557686 272.353834 
L 217.333327 270.160127 
L 218.108968 268.664378 
L 218.884609 267.967313 
L 219.66025 267.956245 
L 221.211532 268.780302 
L 221.987173 268.956905 
L 222.762814 268.730506 
L 225.089737 266.866506 
L 225.865378 266.658279 
L 226.641019 266.895394 
L 227.41666 267.491683 
L 228.967942 268.940766 
L 229.743583 269.456569 
L 231.294865 270.24213 
L 232.070506 270.948347 
L 232.846147 272.148961 
L 233.621788 273.890762 
L 235.948711 280.161918 
L 236.724352 281.528996 
L 237.499993 282.244902 
L 238.275634 282.442642 
L 239.051275 282.425122 
L 239.826916 282.547102 
L 240.602557 283.080166 
L 241.378198 284.114764 
L 243.705121 288.456349 
L 244.480762 289.430725 
L 245.256403 289.936344 
L 246.032044 290.062311 
L 247.583326 289.965247 
L 248.358967 290.096582 
L 249.134608 290.438373 
L 250.68589 291.534269 
L 252.237172 292.799561 
L 253.788454 294.414355 
L 256.115377 297.559429 
L 256.891018 298.276391 
L 257.666659 298.556581 
L 258.4423 298.372249 
L 260.769223 296.658001 
L 261.544864 296.449397 
L 262.320505 296.600167 
L 263.871787 297.400873 
L 264.647428 297.568306 
L 265.423069 297.318673 
L 266.19871 296.615452 
L 269.301274 292.473251 
L 270.076915 291.890882 
L 271.628197 291.01864 
L 272.403838 290.377667 
L 273.179479 289.439145 
L 274.730761 286.782237 
L 276.282043 283.982831 
L 277.057684 282.869568 
L 277.833325 282.020613 
L 278.608966 281.413172 
L 280.160248 280.690051 
L 284.038453 279.550357 
L 284.814094 279.113871 
L 286.365376 277.81808 
L 287.916658 276.341324 
L 288.692299 275.799973 
L 289.46794 275.519051 
L 290.243581 275.533763 
L 291.019222 275.811753 
L 293.346145 277.159892 
L 294.121786 277.375811 
L 294.897427 277.345753 
L 295.673068 277.070403 
L 297.22435 276.047792 
L 297.999991 275.526035 
L 298.775632 275.171755 
L 299.551273 275.096809 
L 300.326914 275.365163 
L 301.102555 275.96986 
L 303.429478 278.583469 
L 304.205119 279.095958 
L 304.98076 279.167066 
L 305.756401 278.769445 
L 306.532042 277.992891 
L 308.083324 276.085709 
L 308.858965 275.388349 
L 309.634606 275.055473 
L 310.410247 275.102399 
L 311.185888 275.441223 
L 312.73717 276.377285 
L 313.51281 276.695301 
L 314.288451 276.826213 
L 315.839733 276.650087 
L 318.942297 275.851615 
L 322.044861 274.670611 
L 322.820502 274.578206 
L 323.596143 274.657802 
L 325.923066 275.156414 
L 326.698707 274.975452 
L 327.474348 274.48119 
L 329.801271 272.091208 
L 330.576912 271.634186 
L 331.352553 271.627018 
L 332.128194 272.096204 
L 332.903835 272.943852 
L 334.455117 274.951505 
L 335.230758 275.655766 
L 336.006399 275.940809 
L 336.78204 275.756617 
L 337.557681 275.147123 
L 339.108963 273.136416 
L 340.660245 271.024079 
L 341.435886 270.217731 
L 342.211527 269.668132 
L 342.987168 269.402463 
L 343.762809 269.415614 
L 344.53845 269.667874 
L 346.865373 270.967209 
L 347.641014 271.199354 
L 348.416655 271.175067 
L 349.192296 270.87142 
L 349.967937 270.328389 
L 352.29486 268.273022 
L 353.070501 267.777991 
L 353.846142 267.449542 
L 355.397424 267.143692 
L 359.275629 266.706094 
L 360.826911 266.868087 
L 362.378193 266.978512 
L 363.153834 266.784745 
L 363.929475 266.329173 
L 364.705116 265.607137 
L 367.80768 261.881096 
L 368.583321 261.3019 
L 369.358962 260.956162 
L 370.910244 260.701621 
L 372.461526 260.439922 
L 375.56409 259.532885 
L 376.339731 259.610198 
L 377.115372 259.91312 
L 377.891013 260.423361 
L 379.442295 261.823674 
L 380.993577 263.255013 
L 382.544859 264.344736 
L 383.3205 264.707549 
L 384.096141 264.920608 
L 384.871782 264.953024 
L 385.647423 264.773472 
L 386.423064 264.365231 
L 387.198705 263.742006 
L 390.301269 260.546578 
L 391.07691 259.993294 
L 392.628192 259.273031 
L 394.179474 258.486716 
L 394.955115 257.866179 
L 398.057679 254.654132 
L 398.83332 254.145966 
L 399.608961 253.839985 
L 401.935884 253.212146 
L 402.711525 252.735211 
L 404.262807 251.240698 
L 405.814089 249.691021 
L 406.58973 249.173338 
L 407.365371 248.877307 
L 409.692294 248.527984 
L 410.467935 248.219986 
L 411.243576 247.721452 
L 413.570499 245.913185 
L 413.570499 245.913185 
" clip-path="url(#p5de28a8ca8)" style="fill: none; stroke: #377eb8; stroke-width: 1.5; stroke-linecap: square"/>
   </g>
   <g id="line2d_15">
    <path d="M 95.557691 318.04 
L 95.557691 71.732 
" clip-path="url(#p5de28a8ca8)" style="fill: none; stroke: #000000; stroke-width: 0.5; stroke-linecap: square"/>
   </g>
   <g id="line2d_16">
    <path d="M 56 259.477143 
L 413.570499 259.477143 
" clip-path="url(#p5de28a8ca8)" style="fill: none; stroke: #000000; stroke-width: 0.5; stroke-linecap: square"/>
   </g>
   <g id="patch_4">
    <path d="M 56 318.04 
L 56 71.732 
" style="fill: none; stroke: #000000; stroke-width: 0.8; stroke-linejoin: miter; stroke-linecap: square"/>
   </g>
   <g id="patch_5">
    <path d="M 413.570499 318.04 
L 413.570499 71.732 
" style="fill: none; stroke: #000000; stroke-width: 0.8; stroke-linejoin: miter; stroke-linecap: square"/>
   </g>
   <g id="patch_6">
    <path d="M 56 318.04 
L 413.570499 318.04 
" style="fill: none; stroke: #000000; stroke-width: 0.8; stroke-linejoin: miter; stroke-linecap: square"/>
   </g>
   <g id="patch_7">
    <path d="M 56 71.732 
L 413.570499 71.732 
" style="fill: none; stroke: #000000; stroke-width: 0.8; stroke-linejoin: miter; stroke-linecap: square"/>
   </g>
   <g id="text_15">
    <!-- Cz -->
    <g transform="translate(227.446499 65.732)scale(0.12 -0.12)">
     <defs>
      <path id="DejaVuSans-43" d="M 4122 4306 
L 4122 3641 
Q 3803 3938 3442 4084 
Q 3081 4231 2675 4231 
Q 1875 4231 1450 3742 
Q 1025 3253 1025 2328 
Q 1025 1406 1450 917 
Q 1875 428 2675 428 
Q 3081 428 3442 575 
Q 3803 722 4122 1019 
L 4122 359 
Q 3791 134 3420 21 
Q 3050 -91 2638 -91 
Q 1578 -91 968 557 
Q 359 1206 359 2328 
Q 359 3453 968 4101 
Q 1578 4750 2638 4750 
Q 3056 4750 3426 4639 
Q 3797 4528 4122 4306 
z
" transform="scale(0.015625)"/>
      <path id="DejaVuSans-7a" d="M 353 3500 
L 3084 3500 
L 3084 2975 
L 922 459 
L 3084 459 
L 3084 0 
L 275 0 
L 275 525 
L 2438 3041 
L 353 3041 
L 353 3500 
z
" transform="scale(0.015625)"/>
     </defs>
     <use xlink:href="#DejaVuSans-43"/>
     <use xlink:href="#DejaVuSans-7a" x="69.824219"/>
    </g>
   </g>
   <g id="legend_1">
    <g id="patch_8">
     <path d="M 98.195406 48.500845 
L 371.375093 48.500845 
Q 373.375093 48.500845 373.375093 46.500845 
L 373.375093 18.144595 
Q 373.375093 16.144595 371.375093 16.144595 
L 98.195406 16.144595 
Q 96.195406 16.144595 96.195406 18.144595 
L 96.195406 46.500845 
Q 96.195406 48.500845 98.195406 48.500845 
z
" style="fill: #ffffff; opacity: 0.8; stroke: #cccccc; stroke-linejoin: miter"/>
    </g>
    <g id="text_16">
     <!-- Average over all sessions -->
     <g transform="translate(171.379781 27.743033)scale(0.1 -0.1)">
      <defs>
       <path id="DejaVuSans-41" d="M 2188 4044 
L 1331 1722 
L 3047 1722 
L 2188 4044 
z
M 1831 4666 
L 2547 4666 
L 4325 0 
L 3669 0 
L 3244 1197 
L 1141 1197 
L 716 0 
L 50 0 
L 1831 4666 
z
" transform="scale(0.015625)"/>
       <path id="DejaVuSans-76" d="M 191 3500 
L 800 3500 
L 1894 563 
L 2988 3500 
L 3597 3500 
L 2284 0 
L 1503 0 
L 191 3500 
z
" transform="scale(0.015625)"/>
       <path id="DejaVuSans-72" d="M 2631 2963 
Q 2534 3019 2420 3045 
Q 2306 3072 2169 3072 
Q 1681 3072 1420 2755 
Q 1159 2438 1159 1844 
L 1159 0 
L 581 0 
L 581 3500 
L 1159 3500 
L 1159 2956 
Q 1341 3275 1631 3429 
Q 1922 3584 2338 3584 
Q 2397 3584 2469 3576 
Q 2541 3569 2628 3553 
L 2631 2963 
z
" transform="scale(0.015625)"/>
       <path id="DejaVuSans-61" d="M 2194 1759 
Q 1497 1759 1228 1600 
Q 959 1441 959 1056 
Q 959 750 1161 570 
Q 1363 391 1709 391 
Q 2188 391 2477 730 
Q 2766 1069 2766 1631 
L 2766 1759 
L 2194 1759 
z
M 3341 1997 
L 3341 0 
L 2766 0 
L 2766 531 
Q 2569 213 2275 61 
Q 1981 -91 1556 -91 
Q 1019 -91 701 211 
Q 384 513 384 1019 
Q 384 1609 779 1909 
Q 1175 2209 1959 2209 
L 2766 2209 
L 2766 2266 
Q 2766 2663 2505 2880 
Q 2244 3097 1772 3097 
Q 1472 3097 1187 3025 
Q 903 2953 641 2809 
L 641 3341 
Q 956 3463 1253 3523 
Q 1550 3584 1831 3584 
Q 2591 3584 2966 3190 
Q 3341 2797 3341 1997 
z
" transform="scale(0.015625)"/>
       <path id="DejaVuSans-67" d="M 2906 1791 
Q 2906 2416 2648 2759 
Q 2391 3103 1925 3103 
Q 1463 3103 1205 2759 
Q 947 2416 947 1791 
Q 947 1169 1205 825 
Q 1463 481 1925 481 
Q 2391 481 2648 825 
Q 2906 1169 2906 1791 
z
M 3481 434 
Q 3481 -459 3084 -895 
Q 2688 -1331 1869 -1331 
Q 1566 -1331 1297 -1286 
Q 1028 -1241 775 -1147 
L 775 -588 
Q 1028 -725 1275 -790 
Q 1522 -856 1778 -856 
Q 2344 -856 2625 -561 
Q 2906 -266 2906 331 
L 2906 616 
Q 2728 306 2450 153 
Q 2172 0 1784 0 
Q 1141 0 747 490 
Q 353 981 353 1791 
Q 353 2603 747 3093 
Q 1141 3584 1784 3584 
Q 2172 3584 2450 3431 
Q 2728 3278 2906 2969 
L 2906 3500 
L 3481 3500 
L 3481 434 
z
" transform="scale(0.015625)"/>
       <path id="DejaVuSans-20" transform="scale(0.015625)"/>
       <path id="DejaVuSans-6c" d="M 603 4863 
L 1178 4863 
L 1178 0 
L 603 0 
L 603 4863 
z
" transform="scale(0.015625)"/>
       <path id="DejaVuSans-69" d="M 603 3500 
L 1178 3500 
L 1178 0 
L 603 0 
L 603 3500 
z
M 603 4863 
L 1178 4863 
L 1178 4134 
L 603 4134 
L 603 4863 
z
" transform="scale(0.015625)"/>
      </defs>
      <use xlink:href="#DejaVuSans-41"/>
      <use xlink:href="#DejaVuSans-76" x="62.533203"/>
      <use xlink:href="#DejaVuSans-65" x="121.712891"/>
      <use xlink:href="#DejaVuSans-72" x="183.236328"/>
      <use xlink:href="#DejaVuSans-61" x="224.349609"/>
      <use xlink:href="#DejaVuSans-67" x="285.628906"/>
      <use xlink:href="#DejaVuSans-65" x="349.105469"/>
      <use xlink:href="#DejaVuSans-20" x="410.628906"/>
      <use xlink:href="#DejaVuSans-6f" x="442.416016"/>
      <use xlink:href="#DejaVuSans-76" x="503.597656"/>
      <use xlink:href="#DejaVuSans-65" x="562.777344"/>
      <use xlink:href="#DejaVuSans-72" x="624.300781"/>
      <use xlink:href="#DejaVuSans-20" x="665.414062"/>
      <use xlink:href="#DejaVuSans-61" x="697.201172"/>
      <use xlink:href="#DejaVuSans-6c" x="758.480469"/>
      <use xlink:href="#DejaVuSans-6c" x="786.263672"/>
      <use xlink:href="#DejaVuSans-20" x="814.046875"/>
      <use xlink:href="#DejaVuSans-73" x="845.833984"/>
      <use xlink:href="#DejaVuSans-65" x="897.933594"/>
      <use xlink:href="#DejaVuSans-73" x="959.457031"/>
      <use xlink:href="#DejaVuSans-73" x="1011.556641"/>
      <use xlink:href="#DejaVuSans-69" x="1063.65625"/>
      <use xlink:href="#DejaVuSans-6f" x="1091.439453"/>
      <use xlink:href="#DejaVuSans-6e" x="1152.621094"/>
      <use xlink:href="#DejaVuSans-73" x="1216"/>
     </g>
    </g>
    <g id="line2d_17">
     <path d="M 100.195406 38.921158 
L 110.195406 38.921158 
L 120.195406 38.921158 
" style="fill: none; stroke: #e41a1c; stroke-width: 1.5; stroke-linecap: square"/>
    </g>
    <g id="text_17">
     <!-- Target (n=5060) -->
     <g transform="translate(128.195406 42.421158)scale(0.1 -0.1)">
      <defs>
       <path id="DejaVuSans-54" d="M -19 4666 
L 3928 4666 
L 3928 4134 
L 2272 4134 
L 2272 0 
L 1638 0 
L 1638 4134 
L -19 4134 
L -19 4666 
z
" transform="scale(0.015625)"/>
       <path id="DejaVuSans-74" d="M 1172 4494 
L 1172 3500 
L 2356 3500 
L 2356 3053 
L 1172 3053 
L 1172 1153 
Q 1172 725 1289 603 
Q 1406 481 1766 481 
L 2356 481 
L 2356 0 
L 1766 0 
Q 1100 0 847 248 
Q 594 497 594 1153 
L 594 3053 
L 172 3053 
L 172 3500 
L 594 3500 
L 594 4494 
L 1172 4494 
z
" transform="scale(0.015625)"/>
       <path id="DejaVuSans-28" d="M 1984 4856 
Q 1566 4138 1362 3434 
Q 1159 2731 1159 2009 
Q 1159 1288 1364 580 
Q 1569 -128 1984 -844 
L 1484 -844 
Q 1016 -109 783 600 
Q 550 1309 550 2009 
Q 550 2706 781 3412 
Q 1013 4119 1484 4856 
L 1984 4856 
z
" transform="scale(0.015625)"/>
       <path id="DejaVuSans-3d" d="M 678 2906 
L 4684 2906 
L 4684 2381 
L 678 2381 
L 678 2906 
z
M 678 1631 
L 4684 1631 
L 4684 1100 
L 678 1100 
L 678 1631 
z
" transform="scale(0.015625)"/>
       <path id="DejaVuSans-29" d="M 513 4856 
L 1013 4856 
Q 1481 4119 1714 3412 
Q 1947 2706 1947 2009 
Q 1947 1309 1714 600 
Q 1481 -109 1013 -844 
L 513 -844 
Q 928 -128 1133 580 
Q 1338 1288 1338 2009 
Q 1338 2731 1133 3434 
Q 928 4138 513 4856 
z
" transform="scale(0.015625)"/>
      </defs>
      <use xlink:href="#DejaVuSans-54"/>
      <use xlink:href="#DejaVuSans-61" x="44.583984"/>
      <use xlink:href="#DejaVuSans-72" x="105.863281"/>
      <use xlink:href="#DejaVuSans-67" x="145.226562"/>
      <use xlink:href="#DejaVuSans-65" x="208.703125"/>
      <use xlink:href="#DejaVuSans-74" x="270.226562"/>
      <use xlink:href="#DejaVuSans-20" x="309.435547"/>
      <use xlink:href="#DejaVuSans-28" x="341.222656"/>
      <use xlink:href="#DejaVuSans-6e" x="380.236328"/>
      <use xlink:href="#DejaVuSans-3d" x="443.615234"/>
      <use xlink:href="#DejaVuSans-35" x="527.404297"/>
      <use xlink:href="#DejaVuSans-30" x="591.027344"/>
      <use xlink:href="#DejaVuSans-36" x="654.650391"/>
      <use xlink:href="#DejaVuSans-30" x="718.273438"/>
      <use xlink:href="#DejaVuSans-29" x="781.896484"/>
     </g>
    </g>
    <g id="line2d_18">
     <path d="M 230.287593 38.921158 
L 240.287593 38.921158 
L 250.287593 38.921158 
" style="fill: none; stroke: #377eb8; stroke-width: 1.5; stroke-linecap: square"/>
    </g>
    <g id="text_18">
     <!-- Non-Target (n=25350) -->
     <g transform="translate(258.287593 42.421158)scale(0.1 -0.1)">
      <defs>
       <path id="DejaVuSans-4e" d="M 628 4666 
L 1478 4666 
L 3547 763 
L 3547 4666 
L 4159 4666 
L 4159 0 
L 3309 0 
L 1241 3903 
L 1241 0 
L 628 0 
L 628 4666 
z
" transform="scale(0.015625)"/>
       <path id="DejaVuSans-2d" d="M 313 2009 
L 1997 2009 
L 1997 1497 
L 313 1497 
L 313 2009 
z
" transform="scale(0.015625)"/>
       <path id="DejaVuSans-33" d="M 2597 2516 
Q 3050 2419 3304 2112 
Q 3559 1806 3559 1356 
Q 3559 666 3084 287 
Q 2609 -91 1734 -91 
Q 1441 -91 1130 -33 
Q 819 25 488 141 
L 488 750 
Q 750 597 1062 519 
Q 1375 441 1716 441 
Q 2309 441 2620 675 
Q 2931 909 2931 1356 
Q 2931 1769 2642 2001 
Q 2353 2234 1838 2234 
L 1294 2234 
L 1294 2753 
L 1863 2753 
Q 2328 2753 2575 2939 
Q 2822 3125 2822 3475 
Q 2822 3834 2567 4026 
Q 2313 4219 1838 4219 
Q 1578 4219 1281 4162 
Q 984 4106 628 3988 
L 628 4550 
Q 988 4650 1302 4700 
Q 1616 4750 1894 4750 
Q 2613 4750 3031 4423 
Q 3450 4097 3450 3541 
Q 3450 3153 3228 2886 
Q 3006 2619 2597 2516 
z
" transform="scale(0.015625)"/>
      </defs>
      <use xlink:href="#DejaVuSans-4e"/>
      <use xlink:href="#DejaVuSans-6f" x="74.804688"/>
      <use xlink:href="#DejaVuSans-6e" x="135.986328"/>
      <use xlink:href="#DejaVuSans-2d" x="199.365234"/>
      <use xlink:href="#DejaVuSans-54" x="226.324219"/>
      <use xlink:href="#DejaVuSans-61" x="270.908203"/>
      <use xlink:href="#DejaVuSans-72" x="332.1875"/>
      <use xlink:href="#DejaVuSans-67" x="371.550781"/>
      <use xlink:href="#DejaVuSans-65" x="435.027344"/>
      <use xlink:href="#DejaVuSans-74" x="496.550781"/>
      <use xlink:href="#DejaVuSans-20" x="535.759766"/>
      <use xlink:href="#DejaVuSans-28" x="567.546875"/>
      <use xlink:href="#DejaVuSans-6e" x="606.560547"/>
      <use xlink:href="#DejaVuSans-3d" x="669.939453"/>
      <use xlink:href="#DejaVuSans-32" x="753.728516"/>
      <use xlink:href="#DejaVuSans-35" x="817.351562"/>
      <use xlink:href="#DejaVuSans-33" x="880.974609"/>
      <use xlink:href="#DejaVuSans-35" x="944.597656"/>
      <use xlink:href="#DejaVuSans-30" x="1008.220703"/>
      <use xlink:href="#DejaVuSans-29" x="1071.84375"/>
     </g>
    </g>
   </g>
  </g>
 </g>
 <defs>
  <clipPath id="p5de28a8ca8">
   <rect x="56" y="71.732" width="357.570499" height="246.308"/>
  </clipPath>
 </defs>
</svg>
