<?xml version="1.0" encoding="utf-8" standalone="no"?>
<!DOCTYPE svg PUBLIC "-//W3C//DTD SVG 1.1//EN"
  "http://www.w3.org/Graphics/SVG/1.1/DTD/svg11.dtd">
<svg xmlns:xlink="http://www.w3.org/1999/xlink" width="432pt" height="360pt" viewBox="0 0 432 360" xmlns="http://www.w3.org/2000/svg" version="1.1">
 <metadata>
  <rdf:RDF xmlns:dc="http://purl.org/dc/elements/1.1/" xmlns:cc="http://creativecommons.org/ns#" xmlns:rdf="http://www.w3.org/1999/02/22-rdf-syntax-ns#">
   <cc:Work>
    <dc:type rdf:resource="http://purl.org/dc/dcmitype/StillImage"/>
    <dc:date>2022-11-03T09:27:35.932537</dc:date>
    <dc:format>image/svg+xml</dc:format>
    <dc:creator>
     <cc:Agent>
      <dc:title>Matplotlib v3.5.1, https://matplotlib.org/</dc:title>
     </cc:Agent>
    </dc:creator>
   </cc:Work>
  </rdf:RDF>
 </metadata>
 <defs>
  <style type="text/css">*{stroke-linejoin: round; stroke-linecap: butt}</style>
 </defs>
 <g id="figure_1">
  <g id="patch_1">
   <path d="M 0 360 
L 432 360 
L 432 0 
L 0 0 
L 0 360 
z
" style="fill: none"/>
  </g>
  <g id="axes_1">
   <g id="patch_2">
    <path d="M 38.175 318.2 
L 413.615499 318.2 
L 413.615499 71.241125 
L 38.175 71.241125 
L 38.175 318.2 
z
" style="fill: none"/>
   </g>
   <g id="PolyCollection_1">
    <defs>
     <path id="m3b6a5aaaa7" d="M 38.175 -71.974556 
L 38.175 -62.104388 
L 38.989405 -62.482141 
L 39.803809 -62.830072 
L 40.618214 -63.16065 
L 41.432618 -63.519136 
L 42.247023 -63.95994 
L 43.061427 -64.515828 
L 43.875832 -65.171037 
L 44.690236 -65.853931 
L 45.504641 -66.459198 
L 46.319046 -66.893254 
L 47.13345 -67.121588 
L 47.947855 -67.195137 
L 48.762259 -67.242933 
L 49.576664 -67.431465 
L 50.391068 -67.902556 
L 51.205473 -68.710727 
L 52.019877 -69.786111 
L 52.834282 -70.943389 
L 53.648687 -71.938624 
L 54.463091 -72.552635 
L 55.277496 -72.667498 
L 56.0919 -72.307352 
L 56.906305 -71.630165 
L 57.720709 -70.875334 
L 58.535114 -70.285775 
L 59.349518 -70.031612 
L 60.163923 -70.159549 
L 60.978327 -70.584464 
L 61.792732 -71.127119 
L 62.607137 -71.585552 
L 63.421541 -71.813202 
L 64.235946 -71.771967 
L 65.05035 -71.537203 
L 65.864755 -71.255005 
L 66.679159 -71.073781 
L 67.493564 -71.08185 
L 68.307968 -71.274697 
L 69.122373 -71.559999 
L 69.936778 -71.796205 
L 70.751182 -71.852408 
L 71.565587 -71.668116 
L 72.379991 -71.28651 
L 73.194396 -70.842686 
L 74.0088 -70.51259 
L 74.823205 -70.449697 
L 75.637609 -70.738922 
L 76.452014 -71.380704 
L 77.266419 -72.29918 
L 78.080823 -73.36409 
L 78.895228 -74.423485 
L 79.709632 -75.342919 
L 80.524037 -76.038252 
L 81.338441 -76.486522 
L 82.152846 -76.711158 
L 82.96725 -76.754202 
L 83.781655 -76.653987 
L 84.59606 -76.437787 
L 85.410464 -76.127345 
L 86.224869 -75.749468 
L 87.039273 -75.346311 
L 87.853678 -74.981573 
L 88.668082 -74.738875 
L 89.482487 -74.70983 
L 90.296891 -74.9737 
L 91.111296 -75.575513 
L 91.9257 -76.510437 
L 92.740105 -77.719542 
L 93.55451 -79.098412 
L 94.368914 -80.517401 
L 95.183319 -81.84959 
L 95.997723 -82.998768 
L 96.812128 -83.918099 
L 97.626532 -84.61301 
L 98.440937 -85.128287 
L 99.255341 -85.52436 
L 100.069746 -85.851015 
L 100.884151 -86.126938 
L 101.698555 -86.332048 
L 102.51296 -86.416337 
L 103.327364 -86.323628 
L 104.141769 -86.021469 
L 104.956173 -85.524482 
L 105.770578 -84.900122 
L 106.584982 -84.253516 
L 107.399387 -83.697386 
L 108.213792 -83.319401 
L 109.028196 -83.159543 
L 109.842601 -83.204707 
L 110.657005 -83.400793 
L 111.47141 -83.676817 
L 112.285814 -83.971532 
L 113.100219 -84.251823 
L 113.914623 -84.514643 
L 114.729028 -84.771263 
L 115.543433 -85.022557 
L 116.357837 -85.241416 
L 117.172242 -85.376359 
L 117.986646 -85.378015 
L 118.801051 -85.234599 
L 119.615455 -84.996459 
L 120.42986 -84.774048 
L 121.244264 -84.706373 
L 122.058669 -84.909363 
L 122.873074 -85.422651 
L 123.687478 -86.176373 
L 124.501883 -86.994158 
L 125.316287 -87.636615 
L 126.130692 -87.874244 
L 126.945096 -87.56668 
L 127.759501 -86.720993 
L 128.573905 -85.506476 
L 129.38831 -84.216379 
L 130.202714 -83.186887 
L 131.017119 -82.700193 
L 131.831524 -82.905512 
L 132.645928 -83.782899 
L 133.460333 -85.15731 
L 134.274737 -86.755417 
L 135.089142 -88.287486 
L 135.903546 -89.530585 
L 136.717951 -90.386732 
L 137.532355 -90.895235 
L 138.34676 -91.195551 
L 139.161165 -91.459316 
L 139.975569 -91.822412 
L 140.789974 -92.342225 
L 141.604378 -92.989881 
L 142.418783 -93.674486 
L 143.233187 -94.288784 
L 144.047592 -94.760709 
L 144.861996 -95.089567 
L 145.676401 -95.349018 
L 146.490806 -95.653568 
L 147.30521 -96.104598 
L 148.119615 -96.741845 
L 148.934019 -97.52162 
L 149.748424 -98.328751 
L 150.562828 -99.017148 
L 151.377233 -99.464563 
L 152.191637 -99.622066 
L 153.006042 -99.538303 
L 153.820447 -99.346671 
L 154.634851 -99.219042 
L 155.449256 -99.304879 
L 156.26366 -99.680556 
L 157.078065 -100.328669 
L 157.892469 -101.152964 
L 158.706874 -102.020729 
L 159.521278 -102.815042 
L 160.335683 -103.476326 
L 161.150087 -104.017397 
L 161.964492 -104.507524 
L 162.778897 -105.032954 
L 163.593301 -105.650201 
L 164.407706 -106.350559 
L 165.22211 -107.051927 
L 166.036515 -107.625677 
L 166.850919 -107.952152 
L 167.665324 -107.982702 
L 168.479728 -107.778681 
L 169.294133 -107.505537 
L 170.108538 -107.381261 
L 170.922942 -107.599021 
L 171.737347 -108.254047 
L 172.551751 -109.302312 
L 173.366156 -110.567278 
L 174.18056 -111.794973 
L 174.994965 -112.740621 
L 175.809369 -113.256096 
L 176.623774 -113.34394 
L 177.438179 -113.156234 
L 178.252583 -112.939789 
L 179.066988 -112.949884 
L 179.881392 -113.36398 
L 180.695797 -114.224275 
L 181.510201 -115.427747 
L 182.324606 -116.765704 
L 183.13901 -117.996666 
L 183.953415 -118.922715 
L 184.76782 -119.440603 
L 185.582224 -119.553721 
L 186.396629 -119.349274 
L 187.211033 -118.955742 
L 188.025438 -118.497818 
L 188.839842 -118.063275 
L 189.654247 -117.691891 
L 190.468651 -117.386983 
L 191.283056 -117.139604 
L 192.097461 -116.949569 
L 192.911865 -116.832266 
L 193.72627 -116.811086 
L 194.540674 -116.904486 
L 195.355079 -117.117813 
L 196.169483 -117.445617 
L 196.983888 -117.88292 
L 197.798292 -118.438462 
L 198.612697 -119.139441 
L 199.427101 -120.019583 
L 200.241506 -121.092124 
L 201.055911 -122.321348 
L 201.870315 -123.611055 
L 202.68472 -124.820849 
L 203.499124 -125.806961 
L 204.313529 -126.471694 
L 205.127933 -126.80153 
L 205.942338 -126.878849 
L 206.756742 -126.860734 
L 207.571147 -126.928557 
L 208.385552 -127.223163 
L 209.199956 -127.787968 
L 210.014361 -128.543409 
L 210.828765 -129.306701 
L 211.64317 -129.854254 
L 212.457574 -130.005805 
L 213.271979 -129.698105 
L 214.086383 -129.018319 
L 214.900788 -128.182898 
L 215.715193 -127.468717 
L 216.529597 -127.122126 
L 217.344002 -127.278652 
L 218.158406 -127.92058 
L 218.972811 -128.885604 
L 219.787215 -129.92266 
L 220.60162 -130.77598 
L 221.416024 -131.268693 
L 222.230429 -131.356204 
L 223.044834 -131.13027 
L 223.859238 -130.773876 
L 224.673643 -130.486997 
L 225.488047 -130.413419 
L 226.302452 -130.594032 
L 227.116856 -130.957537 
L 227.931261 -131.345603 
L 228.745665 -131.562786 
L 229.56007 -131.436836 
L 230.374474 -130.872997 
L 231.188879 -129.885912 
L 232.003284 -128.598899 
L 232.817688 -127.211249 
L 233.632093 -125.944921 
L 234.446497 -124.987774 
L 235.260902 -124.449103 
L 236.075306 -124.338947 
L 236.889711 -124.575738 
L 237.704115 -125.018547 
L 238.51852 -125.5127 
L 239.332925 -125.93453 
L 240.147329 -126.223126 
L 240.961734 -126.392483 
L 241.776138 -126.522135 
L 242.590543 -126.729147 
L 243.404947 -127.128345 
L 244.219352 -127.792554 
L 245.033756 -128.725658 
L 245.848161 -129.8568 
L 246.662566 -131.056088 
L 247.47697 -132.165526 
L 248.291375 -133.036126 
L 249.105779 -133.560649 
L 249.920184 -133.69434 
L 250.734588 -133.460551 
L 251.548993 -132.943079 
L 252.363397 -132.269715 
L 253.177802 -131.591331 
L 253.992207 -131.059632 
L 254.806611 -130.805857 
L 255.621016 -130.922945 
L 256.43542 -131.45285 
L 257.249825 -132.380386 
L 258.064229 -133.634727 
L 258.878634 -135.100635 
L 259.693038 -136.641202 
L 260.507443 -138.127617 
L 261.321848 -139.467698 
L 262.136252 -140.621588 
L 262.950657 -141.599061 
L 263.765061 -142.441636 
L 264.579466 -143.198951 
L 265.39387 -143.909308 
L 266.208275 -144.589997 
L 267.022679 -145.239162 
L 267.837084 -145.845183 
L 268.651488 -146.398653 
L 269.465893 -146.901161 
L 270.280298 -147.367751 
L 271.094702 -147.822207 
L 271.909107 -148.286325 
L 272.723511 -148.767365 
L 273.537916 -149.249768 
L 274.35232 -149.698334 
L 275.166725 -150.073699 
L 275.981129 -150.353604 
L 276.795534 -150.548624 
L 277.609939 -150.703522 
L 278.424343 -150.883415 
L 279.238748 -151.150432 
L 280.053152 -151.540998 
L 280.867557 -152.049902 
L 281.681961 -152.627083 
L 282.496366 -153.188726 
L 283.31077 -153.641404 
L 284.125175 -153.914045 
L 284.93958 -153.988188 
L 285.753984 -153.915549 
L 286.568389 -153.813781 
L 287.382793 -153.838443 
L 288.197198 -154.13684 
L 289.011602 -154.798364 
L 289.826007 -155.81935 
L 290.640411 -157.096149 
L 291.454816 -158.449758 
L 292.269221 -159.674255 
L 293.083625 -160.594609 
L 293.89803 -161.116279 
L 294.712434 -161.252234 
L 295.526839 -161.117963 
L 296.341243 -160.893706 
L 297.155648 -160.764141 
L 297.970052 -160.856168 
L 298.784457 -161.198991 
L 299.598862 -161.722626 
L 300.413266 -162.294445 
L 301.227671 -162.776236 
L 302.042075 -163.077226 
L 302.85648 -163.183227 
L 303.670884 -163.154224 
L 304.485289 -163.094294 
L 305.299693 -163.10613 
L 306.114098 -163.248144 
L 306.928502 -163.511851 
L 307.742907 -163.829226 
L 308.557312 -164.106086 
L 309.371716 -164.264861 
L 310.186121 -164.276113 
L 311.000525 -164.165158 
L 311.81493 -163.993739 
L 312.629334 -163.828 
L 313.443739 -163.708513 
L 314.258143 -163.63488 
L 315.072548 -163.570845 
L 315.886953 -163.467187 
L 316.701357 -163.292469 
L 317.515762 -163.057561 
L 318.330166 -162.820944 
L 319.144571 -162.669372 
L 319.958975 -162.680352 
L 320.77338 -162.882715 
L 321.587784 -163.235004 
L 322.402189 -163.634301 
L 323.216594 -163.953697 
L 324.030998 -164.092471 
L 324.845403 -164.017146 
L 325.659807 -163.777345 
L 326.474212 -163.490616 
L 327.288616 -163.302349 
L 328.103021 -163.334612 
L 328.917425 -163.641715 
L 329.73183 -164.190053 
L 330.546235 -164.872375 
L 331.360639 -165.552381 
L 332.175044 -166.121304 
L 332.989448 -166.540996 
L 333.803853 -166.855552 
L 334.618257 -167.168256 
L 335.432662 -167.594735 
L 336.247066 -168.211478 
L 337.061471 -169.019781 
L 337.875875 -169.939877 
L 338.69028 -170.838135 
L 339.504685 -171.578254 
L 340.319089 -172.075374 
L 341.133494 -172.331413 
L 341.947898 -172.438507 
L 342.762303 -172.550425 
L 343.576707 -172.832645 
L 344.391112 -173.408363 
L 345.205516 -174.319512 
L 346.019921 -175.516997 
L 346.834326 -176.883655 
L 347.64873 -178.281004 
L 348.463135 -179.601379 
L 349.277539 -180.805143 
L 350.091944 -181.929347 
L 350.906348 -183.065871 
L 351.720753 -184.318011 
L 352.535157 -185.752665 
L 353.349562 -187.365916 
L 354.163967 -189.074292 
L 354.978371 -190.734995 
L 355.792776 -192.188966 
L 356.60718 -193.313759 
L 357.421585 -194.069127 
L 358.235989 -194.518294 
L 359.050394 -194.815113 
L 359.864798 -195.159009 
L 360.679203 -195.732913 
L 361.493608 -196.64643 
L 362.308012 -197.903394 
L 363.122417 -199.402515 
L 363.936821 -200.968797 
L 364.751226 -202.405453 
L 365.56563 -203.551955 
L 366.380035 -204.330402 
L 367.194439 -204.764075 
L 368.008844 -204.960592 
L 368.823249 -205.065311 
L 369.637653 -205.204164 
L 370.452058 -205.440659 
L 371.266462 -205.76499 
L 372.080867 -206.11739 
L 372.895271 -206.433144 
L 373.709676 -206.687769 
L 374.52408 -206.922459 
L 375.338485 -207.239245 
L 376.152889 -207.767507 
L 376.967294 -208.613309 
L 377.781699 -209.809669 
L 378.596103 -211.286686 
L 379.410508 -212.875397 
L 380.224912 -214.348158 
L 381.039317 -215.484228 
L 381.853721 -216.141994 
L 382.668126 -216.312055 
L 383.48253 -216.131488 
L 384.296935 -215.852014 
L 385.11134 -215.769942 
L 385.925744 -216.139094 
L 386.740149 -217.095314 
L 387.554553 -218.615244 
L 388.368958 -220.523571 
L 389.183362 -222.545678 
L 389.997767 -224.388012 
L 390.812171 -225.820971 
L 391.626576 -226.739576 
L 392.440981 -227.185795 
L 393.255385 -227.328659 
L 394.06979 -227.411024 
L 394.884194 -227.68155 
L 395.698599 -228.333299 
L 396.513003 -229.465235 
L 397.327408 -231.071817 
L 398.141812 -233.056754 
L 398.956217 -235.260419 
L 399.770622 -237.490886 
L 400.585026 -239.552272 
L 401.399431 -241.268623 
L 402.213835 -242.505275 
L 403.02824 -243.190762 
L 403.842644 -243.338717 
L 404.657049 -243.062012 
L 405.471453 -242.56681 
L 406.285858 -242.117699 
L 407.100262 -241.976389 
L 407.914667 -242.32947 
L 408.729072 -243.228432 
L 409.543476 -244.563999 
L 410.357881 -246.086714 
L 411.172285 -247.474056 
L 411.98669 -248.427877 
L 412.801094 -248.773286 
L 413.615499 -248.524345 
L 413.615499 -277.339569 
L 413.615499 -277.339569 
L 412.801094 -277.533472 
L 411.98669 -277.145893 
L 411.172285 -276.160533 
L 410.357881 -274.747782 
L 409.543476 -273.202983 
L 408.729072 -271.848387 
L 407.914667 -270.932728 
L 407.100262 -270.561517 
L 406.285858 -270.678258 
L 405.471453 -271.094762 
L 404.657049 -271.552971 
L 403.842644 -271.793477 
L 403.02824 -271.611394 
L 402.213835 -270.890217 
L 401.399431 -269.612308 
L 400.585026 -267.849914 
L 399.770622 -265.74391 
L 398.956217 -263.478108 
L 398.141812 -261.2536 
L 397.327408 -259.263048 
L 396.513003 -257.662727 
L 395.698599 -256.542699 
L 394.884194 -255.901157 
L 394.06979 -255.633087 
L 393.255385 -255.542657 
L 392.440981 -255.381611 
L 391.626576 -254.908619 
L 390.812171 -253.955495 
L 389.997767 -252.480659 
L 389.183362 -250.590477 
L 388.368958 -248.517448 
L 387.554553 -246.55832 
L 386.740149 -244.989813 
L 385.925744 -243.98833 
L 385.11134 -243.57859 
L 384.296935 -243.626742 
L 383.48253 -243.879928 
L 382.668126 -244.039376 
L 381.853721 -243.847048 
L 381.039317 -243.158259 
L 380.224912 -241.977555 
L 379.410508 -240.447538 
L 378.596103 -238.796208 
L 377.781699 -237.262197 
L 376.967294 -236.024568 
L 376.152889 -235.157511 
L 375.338485 -234.624206 
L 374.52408 -234.309091 
L 373.709676 -234.073596 
L 372.895271 -233.811796 
L 372.080867 -233.48371 
L 371.266462 -233.11504 
L 370.452058 -232.767061 
L 369.637653 -232.492637 
L 368.823249 -232.297982 
L 368.008844 -232.125259 
L 367.194439 -231.861836 
L 366.380035 -231.373978 
L 365.56563 -230.554538 
L 364.751226 -229.368736 
L 363.936821 -227.880368 
L 363.122417 -226.245005 
L 362.308012 -224.667713 
L 361.493608 -223.338402 
L 360.679203 -222.369137 
L 359.864798 -221.757231 
L 359.050394 -221.38754 
L 358.235989 -221.071044 
L 357.421585 -220.604296 
L 356.60718 -219.829767 
L 355.792776 -218.679427 
L 354.978371 -217.189558 
L 354.163967 -215.482865 
L 353.349562 -213.723513 
L 352.535157 -212.061172 
L 351.720753 -210.584212 
L 350.906348 -209.298198 
L 350.091944 -208.135824 
L 349.277539 -206.992777 
L 348.463135 -205.77557 
L 347.64873 -204.443713 
L 346.834326 -203.030556 
L 346.019921 -201.635562 
L 345.205516 -200.390574 
L 344.391112 -199.412017 
L 343.576707 -198.755856 
L 342.762303 -198.391652 
L 341.947898 -198.206623 
L 341.133494 -198.040797 
L 340.319089 -197.741409 
L 339.504685 -197.215294 
L 338.69028 -196.45856 
L 337.875875 -195.552489 
L 337.061471 -194.628067 
L 336.247066 -193.813193 
L 335.432662 -193.182501 
L 334.618257 -192.729696 
L 333.803853 -192.373268 
L 332.989448 -191.994702 
L 332.175044 -191.493011 
L 331.360639 -190.831783 
L 330.546235 -190.058766 
L 329.73183 -189.290732 
L 328.917425 -188.670264 
L 328.103021 -188.310647 
L 327.288616 -188.249645 
L 326.474212 -188.430002 
L 325.659807 -188.71657 
L 324.845403 -188.945385 
L 324.030998 -188.98496 
L 323.216594 -188.783799 
L 322.402189 -188.38468 
L 321.587784 -187.901859 
L 320.77338 -187.473869 
L 319.958975 -187.211859 
L 319.144571 -187.163077 
L 318.330166 -187.301214 
L 317.515762 -187.544875 
L 316.701357 -187.795497 
L 315.886953 -187.978615 
L 315.072548 -188.07112 
L 314.258143 -188.102559 
L 313.443739 -188.130727 
L 312.629334 -188.204126 
L 311.81493 -188.330457 
L 311.000525 -188.467704 
L 310.186121 -188.542934 
L 309.371716 -188.488948 
L 308.557312 -188.28004 
L 307.742907 -187.948862 
L 306.928502 -187.576585 
L 306.114098 -187.260702 
L 305.299693 -187.073788 
L 304.485289 -187.029656 
L 303.670884 -187.07172 
L 302.85648 -187.091643 
L 302.042075 -186.974015 
L 301.227671 -186.64897 
L 300.413266 -186.128106 
L 299.598862 -185.506219 
L 298.784457 -184.927151 
L 297.970052 -184.527918 
L 297.155648 -184.383449 
L 296.341243 -184.47191 
L 295.526839 -184.672838 
L 294.712434 -184.80005 
L 293.89803 -184.660968 
L 293.083625 -184.12324 
L 292.269221 -183.164034 
L 291.454816 -181.882166 
L 290.640411 -180.467872 
L 289.826007 -179.142414 
L 289.011602 -178.090592 
L 288.197198 -177.410609 
L 287.382793 -177.095303 
L 286.568389 -177.046427 
L 285.753984 -177.113081 
L 284.93958 -177.140054 
L 284.125175 -177.011429 
L 283.31077 -176.677956 
L 282.496366 -176.162428 
L 281.681961 -175.54247 
L 280.867557 -174.917938 
L 280.053152 -174.374808 
L 279.238748 -173.958304 
L 278.424343 -173.663535 
L 277.609939 -173.444858 
L 276.795534 -173.238496 
L 275.981129 -172.98717 
L 275.166725 -172.658411 
L 274.35232 -172.250194 
L 273.537916 -171.78495 
L 272.723511 -171.296084 
L 271.909107 -170.812242 
L 271.094702 -170.344445 
L 270.280298 -169.880819 
L 269.465893 -169.392459 
L 268.651488 -168.848075 
L 267.837084 -168.230707 
L 267.022679 -167.546711 
L 266.208275 -166.821177 
L 265.39387 -166.081239 
L 264.579466 -165.335655 
L 263.765061 -164.562258 
L 262.950657 -163.710396 
L 262.136252 -162.719148 
L 261.321848 -161.543252 
L 260.507443 -160.176411 
L 259.693038 -158.663305 
L 258.878634 -157.097148 
L 258.064229 -155.604647 
L 257.249825 -154.322227 
L 256.43542 -153.368691 
L 255.621016 -152.819311 
L 254.806611 -152.689512 
L 253.992207 -152.932263 
L 253.177802 -153.448204 
L 252.363397 -154.102934 
L 251.548993 -154.745936 
L 250.734588 -155.22981 
L 249.920184 -155.430081 
L 249.105779 -155.264785 
L 248.291375 -154.710262 
L 247.47697 -153.808817 
L 246.662566 -152.664431 
L 245.848161 -151.424434 
L 245.033756 -150.248443 
L 244.219352 -149.270979 
L 243.404947 -148.568795 
L 242.590543 -148.142965 
L 241.776138 -147.922119 
L 240.961734 -147.786989 
L 240.147329 -147.610188 
L 239.332925 -147.300365 
L 238.51852 -146.836981 
L 237.704115 -146.28364 
L 236.889711 -145.773827 
L 236.075306 -145.47321 
L 235.260902 -145.530311 
L 234.446497 -146.030211 
L 233.632093 -146.963748 
L 232.817688 -148.220595 
L 232.003284 -149.609395 
L 231.188879 -150.901399 
L 230.374474 -151.887259 
L 229.56007 -152.432347 
L 228.745665 -152.514521 
L 227.931261 -152.231551 
L 227.116856 -151.772042 
L 226.302452 -151.354455 
L 225.488047 -151.152252 
L 224.673643 -151.232299 
L 223.859238 -151.531637 
L 223.044834 -151.881459 
L 222.230429 -152.069035 
L 221.416024 -151.915385 
L 220.60162 -151.342831 
L 219.787215 -150.410667 
L 218.972811 -149.306256 
L 218.158406 -148.291574 
L 217.344002 -147.619767 
L 216.529597 -147.449558 
L 215.715193 -147.789107 
L 214.900788 -148.491352 
L 214.086383 -149.302986 
L 213.271979 -149.948467 
L 212.457574 -150.218443 
L 211.64317 -150.032112 
L 210.828765 -149.453629 
L 210.014361 -148.659547 
L 209.199956 -147.869973 
L 208.385552 -147.268311 
L 207.571147 -146.938099 
L 206.756742 -146.838901 
L 205.942338 -146.82854 
L 205.127933 -146.72169 
L 204.313529 -146.360501 
L 203.499124 -145.669073 
L 202.68472 -144.671418 
L 201.870315 -143.470465 
L 201.055911 -142.203039 
L 200.241506 -140.993482 
L 199.427101 -139.923927 
L 198.612697 -139.027079 
L 197.798292 -138.297039 
L 196.983888 -137.709528 
L 196.169483 -137.241802 
L 195.355079 -136.883965 
L 194.540674 -136.637799 
L 193.72627 -136.506338 
L 192.911865 -136.48328 
L 192.097461 -136.550706 
L 191.283056 -136.686939 
L 190.468651 -136.877899 
L 189.654247 -137.123216 
L 188.839842 -137.431224 
L 188.025438 -137.802331 
L 187.211033 -138.205974 
L 186.396629 -138.56293 
L 185.582224 -138.747689 
L 184.76782 -138.619887 
L 183.953415 -138.077468 
L 183.13901 -137.109278 
L 182.324606 -135.821044 
L 181.510201 -134.419464 
L 180.695797 -133.15641 
L 179.881392 -132.250605 
L 179.066988 -131.812758 
L 178.252583 -131.80179 
L 177.438179 -132.031747 
L 176.623774 -132.232136 
L 175.809369 -132.141604 
L 174.994965 -131.599845 
L 174.18056 -130.60306 
L 173.366156 -129.30347 
L 172.551751 -127.954555 
L 171.737347 -126.822471 
L 170.922942 -126.095244 
L 170.108538 -125.822419 
L 169.294133 -125.907259 
L 168.479728 -126.152237 
L 167.665324 -126.335796 
L 166.850919 -126.287993 
L 166.036515 -125.938419 
L 165.22211 -125.324104 
L 164.407706 -124.559107 
L 163.593301 -123.779164 
L 162.778897 -123.082685 
L 161.964492 -122.492143 
L 161.150087 -121.953082 
L 160.335683 -121.371127 
L 159.521278 -120.668316 
L 158.706874 -119.830912 
L 157.892469 -118.925901 
L 157.078065 -118.079317 
L 156.26366 -117.426144 
L 155.449256 -117.053613 
L 154.634851 -116.96191 
L 153.820447 -117.058422 
L 153.006042 -117.187374 
L 152.191637 -117.182764 
L 151.377233 -116.924135 
L 150.562828 -116.375939 
L 149.748424 -115.597141 
L 148.934019 -114.716775 
L 148.119615 -113.883182 
L 147.30521 -113.206921 
L 146.490806 -112.721741 
L 145.676401 -112.379519 
L 144.861996 -112.077601 
L 144.047592 -111.704633 
L 143.233187 -111.186647 
L 142.418783 -110.517959 
L 141.604378 -109.76511 
L 140.789974 -109.038636 
L 139.975569 -108.440077 
L 139.161165 -108.007024 
L 138.34676 -107.683459 
L 137.532355 -107.331915 
L 136.717951 -106.782604 
L 135.903546 -105.899374 
L 135.089142 -104.639476 
L 134.274737 -103.088254 
L 133.460333 -101.45524 
L 132.645928 -100.026347 
L 131.831524 -99.081409 
L 131.017119 -98.803752 
L 130.202714 -99.216193 
L 129.38831 -100.168401 
L 128.573905 -101.378946 
L 127.759501 -102.516206 
L 126.945096 -103.29146 
L 126.130692 -103.535883 
L 125.316287 -103.239131 
L 124.501883 -102.537786 
L 123.687478 -101.65914 
L 122.873074 -100.841422 
L 122.058669 -100.259441 
L 121.244264 -99.980609 
L 120.42986 -99.96294 
L 119.615455 -100.09019 
L 118.801051 -100.226498 
L 117.986646 -100.267009 
L 117.172242 -100.165819 
L 116.357837 -99.93507 
L 115.543433 -99.622186 
L 114.729028 -99.280074 
L 113.914623 -98.943623 
L 113.100219 -98.621048 
L 112.285814 -98.301743 
L 111.47141 -97.976602 
L 110.657005 -97.660438 
L 109.842601 -97.4024 
L 109.028196 -97.274758 
L 108.213792 -97.342957 
L 107.399387 -97.631727 
L 106.584982 -98.105154 
L 105.770578 -98.671149 
L 104.956173 -99.208636 
L 104.141769 -99.605774 
L 103.327364 -99.793542 
L 102.51296 -99.762034 
L 101.698555 -99.554135 
L 100.884151 -99.239829 
L 100.069746 -98.881618 
L 99.255341 -98.504451 
L 98.440937 -98.082422 
L 97.626532 -97.547823 
L 96.812128 -96.819116 
L 95.997723 -95.836062 
L 95.183319 -94.588022 
L 94.368914 -93.125815 
L 93.55451 -91.555221 
L 92.740105 -90.015429 
L 91.9257 -88.649072 
L 91.111296 -87.571557 
L 90.296891 -86.847692 
L 89.482487 -86.48184 
L 88.668082 -86.423505 
L 87.853678 -86.584816 
L 87.039273 -86.863606 
L 86.224869 -87.166127 
L 85.410464 -87.423239 
L 84.59606 -87.594291 
L 83.781655 -87.657033 
L 82.96725 -87.590215 
L 82.152846 -87.361454 
L 81.338441 -86.928981 
L 80.524037 -86.256482 
L 79.709632 -85.3325 
L 78.895228 -84.187462 
L 78.080823 -82.904554 
L 77.266419 -81.619081 
L 76.452014 -80.49701 
L 75.637609 -79.689502 
L 74.823205 -79.278014 
L 74.0088 -79.239573 
L 73.194396 -79.453591 
L 72.379991 -79.746652 
L 71.565587 -79.952356 
L 70.751182 -79.962511 
L 69.936778 -79.755763 
L 69.122373 -79.398917 
L 68.307968 -79.019622 
L 67.493564 -78.754572 
L 66.679159 -78.689307 
L 65.864755 -78.817287 
L 65.05035 -79.039816 
L 64.235946 -79.207468 
L 63.421541 -79.183435 
L 62.607137 -78.902409 
L 61.792732 -78.403792 
L 60.978327 -77.828339 
L 60.163923 -77.375706 
L 59.349518 -77.233438 
L 58.535114 -77.500768 
L 57.720709 -78.1381 
L 56.906305 -78.966422 
L 56.0919 -79.721176 
L 55.277496 -80.141413 
L 54.463091 -80.059928 
L 53.648687 -79.458805 
L 52.834282 -78.471086 
L 52.019877 -77.330684 
L 51.205473 -76.291967 
L 50.391068 -75.548439 
L 49.576664 -75.176717 
L 48.762259 -75.122457 
L 47.947855 -75.23198 
L 47.13345 -75.318024 
L 46.319046 -75.232876 
L 45.504641 -74.918295 
L 44.690236 -74.41397 
L 43.875832 -73.826929 
L 43.061427 -73.279851 
L 42.247023 -72.860613 
L 41.432618 -72.591758 
L 40.618214 -72.431389 
L 39.803809 -72.305564 
L 38.989405 -72.155812 
L 38.175 -71.974556 
z
" style="stroke: #e41a1c; stroke-opacity: 0.3"/>
    </defs>
    <g clip-path="url(#pc3f222dbc7)">
     <use xlink:href="#m3b6a5aaaa7" x="0" y="360" style="fill: #e41a1c; fill-opacity: 0.3; stroke: #e41a1c; stroke-opacity: 0.3"/>
    </g>
   </g>
   <g id="PolyCollection_2">
    <defs>
     <path id="m6639739de0" d="M 38.175 -80.213739 
L 38.175 -74.461239 
L 38.989405 -74.493567 
L 39.803809 -74.058628 
L 40.618214 -73.264676 
L 41.432618 -72.331378 
L 42.247023 -71.516932 
L 43.061427 -71.030643 
L 43.875832 -70.961745 
L 44.690236 -71.251944 
L 45.504641 -71.723869 
L 46.319046 -72.155036 
L 47.13345 -72.365684 
L 47.947855 -72.283223 
L 48.762259 -71.958949 
L 49.576664 -71.535857 
L 50.391068 -71.185377 
L 51.205473 -71.039175 
L 52.019877 -71.140981 
L 52.834282 -71.435367 
L 53.648687 -71.796642 
L 54.463091 -72.084576 
L 55.277496 -72.201657 
L 56.0919 -72.126766 
L 56.906305 -71.912244 
L 57.720709 -71.649398 
L 58.535114 -71.421593 
L 59.349518 -71.267384 
L 60.163923 -71.16963 
L 60.978327 -71.073581 
L 61.792732 -70.923225 
L 62.607137 -70.697148 
L 63.421541 -70.426273 
L 64.235946 -70.18473 
L 65.05035 -70.057201 
L 65.864755 -70.096627 
L 66.679159 -70.291432 
L 67.493564 -70.559601 
L 68.307968 -70.776362 
L 69.122373 -70.825985 
L 69.936778 -70.65473 
L 70.751182 -70.29973 
L 71.565587 -69.880531 
L 72.379991 -69.555435 
L 73.194396 -69.46002 
L 74.0088 -69.651628 
L 74.823205 -70.082212 
L 75.637609 -70.612452 
L 76.452014 -71.064332 
L 77.266419 -71.292659 
L 78.080823 -71.246001 
L 78.895228 -70.99045 
L 79.709632 -70.684624 
L 80.524037 -70.515319 
L 81.338441 -70.620078 
L 82.152846 -71.028472 
L 82.96725 -71.646465 
L 83.781655 -72.29052 
L 84.59606 -72.758485 
L 85.410464 -72.908693 
L 86.224869 -72.715644 
L 87.039273 -72.280315 
L 87.853678 -71.791973 
L 88.668082 -71.458009 
L 89.482487 -71.430305 
L 90.296891 -71.756655 
L 91.111296 -72.374266 
L 91.9257 -73.145257 
L 92.740105 -73.917097 
L 93.55451 -74.582583 
L 94.368914 -75.115581 
L 95.183319 -75.569727 
L 95.997723 -76.043355 
L 96.812128 -76.628093 
L 97.626532 -77.364667 
L 98.440937 -78.223526 
L 99.255341 -79.11612 
L 100.069746 -79.929032 
L 100.884151 -80.565121 
L 101.698555 -80.974598 
L 102.51296 -81.164641 
L 103.327364 -81.185851 
L 104.141769 -81.104644 
L 104.956173 -80.97613 
L 105.770578 -80.830521 
L 106.584982 -80.67733 
L 107.399387 -80.521791 
L 108.213792 -80.382123 
L 109.028196 -80.297003 
L 109.842601 -80.318394 
L 110.657005 -80.492008 
L 111.47141 -80.834173 
L 112.285814 -81.316357 
L 113.100219 -81.865837 
L 113.914623 -82.383954 
L 114.729028 -82.775294 
L 115.543433 -82.976901 
L 116.357837 -82.977349 
L 117.172242 -82.819714 
L 117.986646 -82.587325 
L 118.801051 -82.376699 
L 119.615455 -82.267234 
L 120.42986 -82.299752 
L 121.244264 -82.472107 
L 122.058669 -82.751359 
L 122.873074 -83.093504 
L 123.687478 -83.460634 
L 124.501883 -83.828905 
L 125.316287 -84.186806 
L 126.130692 -84.52665 
L 126.945096 -84.834307 
L 127.759501 -85.083392 
L 128.573905 -85.239137 
L 129.38831 -85.272357 
L 130.202714 -85.177081 
L 131.017119 -84.982 
L 131.831524 -84.748522 
L 132.645928 -84.555494 
L 133.460333 -84.476912 
L 134.274737 -84.561061 
L 135.089142 -84.818244 
L 135.903546 -85.221021 
L 136.717951 -85.717454 
L 137.532355 -86.252286 
L 138.34676 -86.788073 
L 139.161165 -87.318021 
L 139.975569 -87.866118 
L 140.789974 -88.475543 
L 141.604378 -89.190581 
L 142.418783 -90.03878 
L 143.233187 -91.019078 
L 144.047592 -92.098666 
L 144.861996 -93.218315 
L 145.676401 -94.303843 
L 146.490806 -95.280699 
L 147.30521 -96.088227 
L 148.119615 -96.690542 
L 148.934019 -97.082173 
L 149.748424 -97.288885 
L 150.562828 -97.363644 
L 151.377233 -97.377741 
L 152.191637 -97.406771 
L 153.006042 -97.513255 
L 153.820447 -97.730386 
L 154.634851 -98.052518 
L 155.449256 -98.436358 
L 156.26366 -98.8121 
L 157.078065 -99.101681 
L 157.892469 -99.238529 
L 158.706874 -99.183782 
L 159.521278 -98.934947 
L 160.335683 -98.525058 
L 161.150087 -98.013211 
L 161.964492 -97.47012 
L 162.778897 -96.963665 
L 163.593301 -96.548234 
L 164.407706 -96.258919 
L 165.22211 -96.109659 
L 166.036515 -96.094232 
L 166.850919 -96.189087 
L 167.665324 -96.356886 
L 168.479728 -96.550146 
L 169.294133 -96.714979 
L 170.108538 -96.79624 
L 170.922942 -96.744543 
L 171.737347 -96.525191 
L 172.551751 -96.127404 
L 173.366156 -95.571255 
L 174.18056 -94.909177 
L 174.994965 -94.219894 
L 175.809369 -93.594396 
L 176.623774 -93.116477 
L 177.438179 -92.842114 
L 178.252583 -92.7834 
L 179.066988 -92.902549 
L 179.881392 -93.118892 
L 180.695797 -93.327614 
L 181.510201 -93.424717 
L 182.324606 -93.331438 
L 183.13901 -93.011088 
L 183.953415 -92.474226 
L 184.76782 -91.771646 
L 185.582224 -90.978617 
L 186.396629 -90.176946 
L 187.211033 -89.441057 
L 188.025438 -88.831201 
L 188.839842 -88.392069 
L 189.654247 -88.151885 
L 190.468651 -88.117637 
L 191.283056 -88.266501 
L 192.097461 -88.538667 
L 192.911865 -88.83872 
L 193.72627 -89.05042 
L 194.540674 -89.064645 
L 195.355079 -88.814215 
L 196.169483 -88.304275 
L 196.983888 -87.624975 
L 197.798292 -86.937031 
L 198.612697 -86.430326 
L 199.427101 -86.267453 
L 200.241506 -86.53143 
L 201.055911 -87.196867 
L 201.870315 -88.135618 
L 202.68472 -89.156146 
L 203.499124 -90.062898 
L 204.313529 -90.715111 
L 205.127933 -91.064525 
L 205.942338 -91.15892 
L 206.756742 -91.111175 
L 207.571147 -91.047186 
L 208.385552 -91.053561 
L 209.199956 -91.14522 
L 210.014361 -91.263633 
L 210.828765 -91.304205 
L 211.64317 -91.160277 
L 212.457574 -90.765559 
L 213.271979 -90.118456 
L 214.086383 -89.279591 
L 214.900788 -88.346307 
L 215.715193 -87.416128 
L 216.529597 -86.555372 
L 217.344002 -85.784322 
L 218.158406 -85.081968 
L 218.972811 -84.404733 
L 219.787215 -83.708627 
L 220.60162 -82.964695 
L 221.416024 -82.162553 
L 222.230429 -81.303842 
L 223.044834 -80.39164 
L 223.859238 -79.42291 
L 224.673643 -78.388366 
L 225.488047 -77.279608 
L 226.302452 -76.099315 
L 227.116856 -74.86776 
L 227.931261 -73.620703 
L 228.745665 -72.39704 
L 229.56007 -71.221425 
L 230.374474 -70.091144 
L 231.188879 -68.975468 
L 232.003284 -67.829283 
L 232.817688 -66.615257 
L 233.632093 -65.324477 
L 234.446497 -63.985869 
L 235.260902 -62.660138 
L 236.075306 -61.419587 
L 236.889711 -60.321544 
L 237.704115 -59.386947 
L 238.51852 -58.594946 
L 239.332925 -57.897383 
L 240.147329 -57.24684 
L 240.961734 -56.624331 
L 241.776138 -56.052476 
L 242.590543 -55.586997 
L 243.404947 -55.29003 
L 244.219352 -55.197278 
L 245.033756 -55.294117 
L 245.848161 -55.51217 
L 246.662566 -55.749334 
L 247.47697 -55.904814 
L 248.291375 -55.913997 
L 249.105779 -55.767455 
L 249.920184 -55.506353 
L 250.734588 -55.197477 
L 251.548993 -54.900108 
L 252.363397 -54.64022 
L 253.177802 -54.404059 
L 253.992207 -54.154254 
L 254.806611 -53.860827 
L 255.621016 -53.531059 
L 256.43542 -53.221737 
L 257.249825 -53.025403 
L 258.064229 -53.034978 
L 258.878634 -53.301662 
L 259.693038 -53.805128 
L 260.507443 -54.4511 
L 261.321848 -55.100217 
L 262.136252 -55.617526 
L 262.950657 -55.921814 
L 263.765061 -56.013139 
L 264.579466 -55.966914 
L 265.39387 -55.897899 
L 266.208275 -55.910478 
L 267.022679 -56.055962 
L 267.837084 -56.314351 
L 268.651488 -56.607654 
L 269.465893 -56.839166 
L 270.280298 -56.941602 
L 271.094702 -56.911835 
L 271.909107 -56.814911 
L 272.723511 -56.754428 
L 273.537916 -56.823103 
L 274.35232 -57.056676 
L 275.166725 -57.412398 
L 275.981129 -57.781678 
L 276.795534 -58.032009 
L 277.609939 -58.061275 
L 278.424343 -57.841869 
L 279.238748 -57.435725 
L 280.053152 -56.972713 
L 280.867557 -56.600868 
L 281.681961 -56.428518 
L 282.496366 -56.482654 
L 283.31077 -56.701159 
L 284.125175 -56.962362 
L 284.93958 -57.139305 
L 285.753984 -57.15549 
L 286.568389 -57.018072 
L 287.382793 -56.813819 
L 288.197198 -56.669071 
L 289.011602 -56.690689 
L 289.826007 -56.913911 
L 290.640411 -57.280525 
L 291.454816 -57.657926 
L 292.269221 -57.891963 
L 293.083625 -57.871834 
L 293.89803 -57.579554 
L 294.712434 -57.102843 
L 295.526839 -56.605509 
L 296.341243 -56.266876 
L 297.155648 -56.214664 
L 297.970052 -56.477951 
L 298.784457 -56.979078 
L 299.598862 -57.567813 
L 300.413266 -58.084347 
L 301.227671 -58.424657 
L 302.042075 -58.580691 
L 302.85648 -58.63882 
L 303.670884 -58.738129 
L 304.485289 -59.006829 
L 305.299693 -59.503667 
L 306.114098 -60.188355 
L 306.928502 -60.932838 
L 307.742907 -61.568333 
L 308.557312 -61.948473 
L 309.371716 -62.002824 
L 310.186121 -61.76023 
L 311.000525 -61.334179 
L 311.81493 -60.877812 
L 312.629334 -60.527671 
L 313.443739 -60.358798 
L 314.258143 -60.367847 
L 315.072548 -60.489083 
L 315.886953 -60.634471 
L 316.701357 -60.739192 
L 317.515762 -60.792191 
L 318.330166 -60.838767 
L 319.144571 -60.954912 
L 319.958975 -61.205818 
L 320.77338 -61.607277 
L 321.587784 -62.107641 
L 322.402189 -62.599396 
L 323.216594 -62.956886 
L 324.030998 -63.085389 
L 324.845403 -62.961344 
L 325.659807 -62.647266 
L 326.474212 -62.273946 
L 327.288616 -61.996025 
L 328.103021 -61.937843 
L 328.917425 -62.151019 
L 329.73183 -62.600742 
L 330.546235 -63.185613 
L 331.360639 -63.78174 
L 332.175044 -64.291862 
L 332.989448 -64.679655 
L 333.803853 -64.975411 
L 334.618257 -65.251553 
L 335.432662 -65.579306 
L 336.247066 -65.986163 
L 337.061471 -66.433959 
L 337.875875 -66.828429 
L 338.69028 -67.057467 
L 339.504685 -67.042087 
L 340.319089 -66.77837 
L 341.133494 -66.352314 
L 341.947898 -65.920372 
L 342.762303 -65.662193 
L 343.576707 -65.723143 
L 344.391112 -66.168333 
L 345.205516 -66.965085 
L 346.019921 -67.999638 
L 346.834326 -69.119977 
L 347.64873 -70.187166 
L 348.463135 -71.115525 
L 349.277539 -71.887951 
L 350.091944 -72.543661 
L 350.906348 -73.146654 
L 351.720753 -73.74994 
L 352.535157 -74.370222 
L 353.349562 -74.982058 
L 354.163967 -75.531615 
L 354.978371 -75.962115 
L 355.792776 -76.238682 
L 356.60718 -76.361451 
L 357.421585 -76.361946 
L 358.235989 -76.286575 
L 359.050394 -76.176492 
L 359.864798 -76.0542 
L 360.679203 -75.922593 
L 361.493608 -75.775685 
L 362.308012 -75.614737 
L 363.122417 -75.461395 
L 363.936821 -75.360735 
L 364.751226 -75.370986 
L 365.56563 -75.542917 
L 366.380035 -75.896564 
L 367.194439 -76.405322 
L 368.008844 -76.995067 
L 368.823249 -77.560361 
L 369.637653 -77.993193 
L 370.452058 -78.214997 
L 371.266462 -78.201495 
L 372.080867 -77.991918 
L 372.895271 -77.678519 
L 373.709676 -77.379469 
L 374.52408 -77.204335 
L 375.338485 -77.223727 
L 376.152889 -77.452108 
L 376.967294 -77.847321 
L 377.781699 -78.325215 
L 378.596103 -78.784266 
L 379.410508 -79.132851 
L 380.224912 -79.31154 
L 381.039317 -79.304771 
L 381.853721 -79.140184 
L 382.668126 -78.877854 
L 383.48253 -78.593639 
L 384.296935 -78.361431 
L 385.11134 -78.237897 
L 385.925744 -78.252911 
L 386.740149 -78.407444 
L 387.554553 -78.678721 
L 388.368958 -79.030779 
L 389.183362 -79.427488 
L 389.997767 -79.845085 
L 390.812171 -80.281175 
L 391.626576 -80.75697 
L 392.440981 -81.310795 
L 393.255385 -81.98425 
L 394.06979 -82.805889 
L 394.884194 -83.778254 
L 395.698599 -84.872472 
L 396.513003 -86.031878 
L 397.327408 -87.183877 
L 398.141812 -88.25671 
L 398.956217 -89.19587 
L 399.770622 -89.974888 
L 400.585026 -90.597724 
L 401.399431 -91.093188 
L 402.213835 -91.504178 
L 403.02824 -91.875336 
L 403.842644 -92.242894 
L 404.657049 -92.628988 
L 405.471453 -93.041127 
L 406.285858 -93.475405 
L 407.100262 -93.921281 
L 407.914667 -94.366239 
L 408.729072 -94.799505 
L 409.543476 -95.214478 
L 410.357881 -95.609125 
L 411.172285 -95.984257 
L 411.98669 -96.339784 
L 412.801094 -96.670326 
L 413.615499 -96.962474 
L 413.615499 -112.957044 
L 413.615499 -112.957044 
L 412.801094 -112.64618 
L 411.98669 -112.295261 
L 411.172285 -111.91988 
L 410.357881 -111.527577 
L 409.543476 -111.119206 
L 408.729072 -110.692522 
L 407.914667 -110.246376 
L 407.100262 -109.784157 
L 406.285858 -109.315264 
L 405.471453 -108.853289 
L 404.657049 -108.411485 
L 403.842644 -107.996909 
L 403.02824 -107.604962 
L 402.213835 -107.215799 
L 401.399431 -106.794204 
L 400.585026 -106.294511 
L 399.770622 -105.67072 
L 398.956217 -104.889763 
L 398.141812 -103.943578 
L 397.327408 -102.855857 
L 396.513003 -101.68065 
L 395.698599 -100.49218 
L 394.884194 -99.367889 
L 394.06979 -98.369642 
L 393.255385 -97.5295 
L 392.440981 -96.845146 
L 391.626576 -96.286152 
L 390.812171 -95.808195 
L 389.997767 -95.369797 
L 389.183362 -94.946284 
L 388.368958 -94.537256 
L 387.554553 -94.16596 
L 386.740149 -93.870854 
L 385.925744 -93.691715 
L 385.11134 -93.654447 
L 384.296935 -93.759355 
L 383.48253 -93.976279 
L 382.668126 -94.247568 
L 381.853721 -94.498374 
L 381.039317 -94.65247 
L 380.224912 -94.650316 
L 379.410508 -94.465193 
L 378.596103 -94.112687 
L 377.781699 -93.65047 
L 376.967294 -93.167278 
L 376.152889 -92.762263 
L 375.338485 -92.518741 
L 374.52408 -92.479288 
L 373.709676 -92.630548 
L 372.895271 -92.903824 
L 372.080867 -93.192563 
L 371.266462 -93.381846 
L 370.452058 -93.381067 
L 369.637653 -93.14989 
L 368.823249 -92.70954 
L 368.008844 -92.135544 
L 367.194439 -91.534261 
L 366.380035 -91.01094 
L 365.56563 -90.640503 
L 364.751226 -90.450988 
L 363.936821 -90.424014 
L 363.122417 -90.509939 
L 362.308012 -90.650543 
L 361.493608 -90.799882 
L 360.679203 -90.935366 
L 359.864798 -91.055027 
L 359.050394 -91.163967 
L 358.235989 -91.258048 
L 357.421585 -91.314097 
L 356.60718 -91.292177 
L 355.792776 -91.148946 
L 354.978371 -90.855851 
L 354.163967 -90.413326 
L 353.349562 -89.853846 
L 352.535157 -89.230483 
L 351.720753 -88.594423 
L 350.906348 -87.97073 
L 350.091944 -87.344172 
L 349.277539 -86.663887 
L 348.463135 -85.867742 
L 347.64873 -84.917691 
L 346.834326 -83.831218 
L 346.019921 -82.6936 
L 345.205516 -81.642772 
L 344.391112 -80.829616 
L 343.576707 -80.367212 
L 342.762303 -80.288382 
L 341.947898 -80.52886 
L 341.133494 -80.944382 
L 340.319089 -81.356328 
L 339.504685 -81.609144 
L 338.69028 -81.617438 
L 337.875875 -81.384838 
L 337.061471 -80.988451 
L 336.247066 -80.537063 
L 335.432662 -80.121465 
L 334.618257 -79.777766 
L 333.803853 -79.478537 
L 332.989448 -79.154386 
L 332.175044 -78.735853 
L 331.360639 -78.196348 
L 330.546235 -77.575997 
L 329.73183 -76.974595 
L 328.917425 -76.51583 
L 328.103021 -76.297956 
L 327.288616 -76.351158 
L 326.474212 -76.619769 
L 325.659807 -76.977241 
L 324.845403 -77.268724 
L 324.030998 -77.364962 
L 323.216594 -77.20648 
L 322.402189 -76.820852 
L 321.587784 -76.306662 
L 320.77338 -75.791871 
L 319.958975 -75.383859 
L 319.144571 -75.131811 
L 318.330166 -75.016146 
L 317.515762 -74.967991 
L 316.701357 -74.908974 
L 315.886953 -74.793085 
L 315.072548 -74.631836 
L 314.258143 -74.49089 
L 313.443739 -74.45924 
L 312.629334 -74.603888 
L 311.81493 -74.929755 
L 311.000525 -75.363122 
L 310.186121 -75.767927 
L 309.371716 -75.990795 
L 308.557312 -75.918039 
L 307.742907 -75.521141 
L 306.928502 -74.87111 
L 306.114098 -74.114478 
L 305.299693 -73.419366 
L 304.485289 -72.912413 
L 303.670884 -72.632168 
L 302.85648 -72.518507 
L 302.042075 -72.442901 
L 301.227671 -72.267151 
L 300.413266 -71.906202 
L 299.598862 -71.368815 
L 298.784457 -70.759008 
L 297.970052 -70.236951 
L 297.155648 -69.954427 
L 296.341243 -69.990941 
L 295.526839 -70.317442 
L 294.712434 -70.803356 
L 293.89803 -71.265099 
L 293.083625 -71.536167 
L 292.269221 -71.529621 
L 291.454816 -71.267136 
L 290.640411 -70.863808 
L 289.826007 -70.476534 
L 289.011602 -70.238238 
L 288.197198 -70.205471 
L 287.382793 -70.340524 
L 286.568389 -70.534514 
L 285.753984 -70.660289 
L 284.93958 -70.631519 
L 284.125175 -70.442175 
L 283.31077 -70.169863 
L 282.496366 -69.942063 
L 281.681961 -69.880054 
L 280.867557 -70.04466 
L 280.053152 -70.407189 
L 279.238748 -70.857981 
L 278.424343 -71.248587 
L 277.609939 -71.449765 
L 276.795534 -71.401181 
L 275.981129 -71.132851 
L 275.166725 -70.74934 
L 274.35232 -70.384021 
L 273.537916 -70.143443 
L 272.723511 -70.066219 
L 271.909107 -70.113394 
L 271.094702 -70.19258 
L 270.280298 -70.203495 
L 269.465893 -70.084111 
L 268.651488 -69.837763 
L 267.837084 -69.529931 
L 267.022679 -69.256159 
L 266.208275 -69.094949 
L 265.39387 -69.066828 
L 264.579466 -69.119312 
L 263.765061 -69.145969 
L 262.950657 -69.031664 
L 262.136252 -68.703373 
L 261.321848 -68.164441 
L 260.507443 -67.497903 
L 259.693038 -66.838232 
L 258.878634 -66.323383 
L 258.064229 -66.046721 
L 257.249825 -66.028099 
L 256.43542 -66.215294 
L 255.621016 -66.513419 
L 254.806611 -66.827751 
L 253.992207 -67.100407 
L 253.177802 -67.325143 
L 252.363397 -67.535315 
L 251.548993 -67.772843 
L 250.734588 -68.054848 
L 249.920184 -68.355378 
L 249.105779 -68.611744 
L 248.291375 -68.752719 
L 247.47697 -68.734587 
L 246.662566 -68.56717 
L 245.848161 -68.317121 
L 245.033756 -68.086868 
L 244.219352 -67.978694 
L 243.404947 -68.059895 
L 242.590543 -68.343536 
L 241.776138 -68.792798 
L 240.961734 -69.34576 
L 240.147329 -69.948444 
L 239.332925 -70.580391 
L 238.51852 -71.261512 
L 237.704115 -72.038551 
L 236.889711 -72.958938 
L 236.075306 -74.044367 
L 235.260902 -75.275691 
L 234.446497 -76.59589 
L 233.632093 -77.930143 
L 232.817688 -79.214063 
L 232.003284 -80.416816 
L 231.188879 -81.548194 
L 230.374474 -82.647523 
L 229.56007 -83.761021 
L 228.745665 -84.919554 
L 227.931261 -86.126232 
L 227.116856 -87.357389 
L 226.302452 -88.574565 
L 225.488047 -89.74098 
L 224.673643 -90.834693 
L 223.859238 -91.852367 
L 223.044834 -92.803245 
L 222.230429 -93.697754 
L 221.416024 -94.539029 
L 220.60162 -95.323145 
L 219.787215 -96.048046 
L 218.972811 -96.72524 
L 218.158406 -97.385994 
L 217.344002 -98.07626 
L 216.529597 -98.839673 
L 215.715193 -99.694979 
L 214.900788 -100.618386 
L 214.086383 -101.540717 
L 213.271979 -102.363605 
L 212.457574 -102.990782 
L 211.64317 -103.3633 
L 210.828765 -103.483818 
L 210.014361 -103.418993 
L 209.199956 -103.275886 
L 208.385552 -103.159996 
L 207.571147 -103.130908 
L 206.756742 -103.174303 
L 205.942338 -103.203534 
L 205.127933 -103.092271 
L 204.313529 -102.727012 
L 203.499124 -102.059283 
L 202.68472 -101.136883 
L 201.870315 -100.100736 
L 201.055911 -99.146991 
L 200.241506 -98.467325 
L 199.427101 -98.188903 
L 198.612697 -98.335643 
L 197.798292 -98.82405 
L 196.983888 -99.492675 
L 196.169483 -100.153224 
L 195.355079 -100.645159 
L 194.540674 -100.87654 
L 193.72627 -100.839686 
L 192.911865 -100.600088 
L 192.097461 -100.266589 
L 191.283056 -99.956371 
L 190.468651 -99.767194 
L 189.654247 -99.763048 
L 188.839842 -99.971984 
L 188.025438 -100.390618 
L 187.211033 -100.989943 
L 186.396629 -101.719951 
L 185.582224 -102.513612 
L 184.76782 -103.292091 
L 183.953415 -103.973108 
L 183.13901 -104.483536 
L 182.324606 -104.775 
L 181.510201 -104.838397 
L 180.695797 -104.711167 
L 179.881392 -104.472802 
L 179.066988 -104.228174 
L 178.252583 -104.082872 
L 177.438179 -104.118016 
L 176.623774 -104.371436 
L 175.809369 -104.830521 
L 174.994965 -105.438011 
L 174.18056 -106.108143 
L 173.366156 -106.747902 
L 172.551751 -107.277299 
L 171.737347 -107.643911 
L 170.922942 -107.828928 
L 170.108538 -107.845262 
L 169.294133 -107.730092 
L 168.479728 -107.534894 
L 167.665324 -107.315604 
L 166.850919 -107.124935 
L 166.036515 -107.007564 
L 165.22211 -106.997927 
L 164.407706 -107.118414 
L 163.593301 -107.376462 
L 162.778897 -107.760538 
L 161.964492 -108.237152 
L 161.150087 -108.751699 
L 160.335683 -109.234942 
L 159.521278 -109.615045 
L 158.706874 -109.832689 
L 157.892469 -109.855266 
L 157.078065 -109.685943 
L 156.26366 -109.364389 
L 155.449256 -108.957762 
L 154.634851 -108.543615 
L 153.820447 -108.189739 
L 153.006042 -107.937089 
L 152.191637 -107.790854 
L 151.377233 -107.720266 
L 150.562828 -107.666533 
L 149.748424 -107.556326 
L 148.934019 -107.317963 
L 148.119615 -106.896733 
L 147.30521 -106.265802 
L 146.490806 -105.430715 
L 145.676401 -104.427396 
L 144.861996 -103.315517 
L 144.047592 -102.168116 
L 143.233187 -101.058645 
L 142.418783 -100.04698 
L 141.604378 -99.167242 
L 140.789974 -98.421289 
L 139.975569 -97.781327 
L 139.161165 -97.202157 
L 138.34676 -96.639644 
L 137.532355 -96.069094 
L 136.717951 -95.496897 
L 135.903546 -94.960663 
L 135.089142 -94.516815 
L 134.274737 -94.219254 
L 133.460333 -94.096888 
L 132.645928 -94.138931 
L 131.831524 -94.294807 
L 131.017119 -94.488446 
L 130.202714 -94.64098 
L 129.38831 -94.692423 
L 128.573905 -94.614641 
L 127.759501 -94.41245 
L 126.945096 -94.114348 
L 126.130692 -93.757416 
L 125.316287 -93.37251 
L 124.501883 -92.976299 
L 123.687478 -92.574177 
L 122.873074 -92.172086 
L 122.058669 -91.789029 
L 121.244264 -91.460889 
L 120.42986 -91.23155 
L 119.615455 -91.134792 
L 118.801051 -91.175607 
L 117.986646 -91.318899 
L 117.172242 -91.491478 
L 116.357837 -91.598933 
L 115.543433 -91.554042 
L 114.729028 -91.307228 
L 113.914623 -90.866167 
L 113.100219 -90.294912 
L 112.285814 -89.692369 
L 111.47141 -89.159444 
L 110.657005 -88.768534 
L 109.842601 -88.546421 
L 109.028196 -88.475266 
L 108.213792 -88.509007 
L 107.399387 -88.596747 
L 106.584982 -88.701851 
L 105.770578 -88.807721 
L 104.956173 -88.908729 
L 104.141769 -88.99295 
L 103.327364 -89.02779 
L 102.51296 -88.957897 
L 101.698555 -88.718528 
L 100.884151 -88.26026 
L 100.069746 -87.57469 
L 99.255341 -86.708588 
L 98.440937 -85.756615 
L 97.626532 -84.831953 
L 96.812128 -84.025198 
L 95.997723 -83.36933 
L 95.183319 -82.827522 
L 94.368914 -82.311374 
L 93.55451 -81.723481 
L 92.740105 -81.00764 
L 91.9257 -80.184627 
L 91.111296 -79.356175 
L 90.296891 -78.671954 
L 89.482487 -78.270426 
L 88.668082 -78.217243 
L 87.853678 -78.468059 
L 87.039273 -78.874144 
L 86.224869 -79.230743 
L 85.410464 -79.350133 
L 84.59606 -79.130519 
L 83.781655 -78.593185 
L 82.96725 -77.872664 
L 82.152846 -77.163343 
L 81.338441 -76.643422 
L 80.524037 -76.406458 
L 79.709632 -76.428165 
L 78.895228 -76.58113 
L 78.080823 -76.690767 
L 77.266419 -76.608611 
L 76.452014 -76.272811 
L 75.637609 -75.732111 
L 74.823205 -75.125024 
L 74.0088 -74.623558 
L 73.194396 -74.364071 
L 72.379991 -74.393306 
L 71.565587 -74.651809 
L 70.751182 -75.001311 
L 69.936778 -75.283149 
L 69.122373 -75.381414 
L 68.307968 -75.264182 
L 67.493564 -74.987707 
L 66.679159 -74.666359 
L 65.864755 -74.422851 
L 65.05035 -74.339822 
L 64.235946 -74.431581 
L 63.421541 -74.646581 
L 62.607137 -74.898393 
L 61.792732 -75.109864 
L 60.978327 -75.248603 
L 60.163923 -75.336531 
L 59.349518 -75.430207 
L 58.535114 -75.583393 
L 57.720709 -75.81132 
L 56.906305 -76.074757 
L 56.0919 -76.292624 
L 55.277496 -76.378406 
L 54.463091 -76.284066 
L 53.648687 -76.030903 
L 52.834282 -75.711823 
L 52.019877 -75.461442 
L 51.205473 -75.403603 
L 50.391068 -75.596203 
L 49.576664 -75.99807 
L 48.762259 -76.476654 
L 47.947855 -76.8582 
L 47.13345 -77.000799 
L 46.319046 -76.858207 
L 45.504641 -76.506383 
L 44.690236 -76.121782 
L 43.875832 -75.919731 
L 43.061427 -76.07486 
L 42.247023 -76.651316 
L 41.432618 -77.569215 
L 40.618214 -78.622897 
L 39.803809 -79.548497 
L 38.989405 -80.116698 
L 38.175 -80.213739 
z
" style="stroke: #377eb8; stroke-opacity: 0.3"/>
    </defs>
    <g clip-path="url(#pc3f222dbc7)">
     <use xlink:href="#m6639739de0" x="0" y="360" style="fill: #377eb8; fill-opacity: 0.3; stroke: #377eb8; stroke-opacity: 0.3"/>
    </g>
   </g>
   <g id="patch_3">
    <path d="M 225.650928 318.2 
L 225.650928 71.241125 
L 329.894711 71.241125 
L 329.894711 318.2 
z
" clip-path="url(#pc3f222dbc7)" style="fill: #808080; opacity: 0.3"/>
   </g>
   <g id="matplotlib.axis_1">
    <g id="xtick_1">
     <g id="line2d_1">
      <defs>
       <path id="m35af61a8f2" d="M 0 0 
L 0 3.5 
" style="stroke: #000000; stroke-width: 0.8"/>
      </defs>
      <g>
       <use xlink:href="#m35af61a8f2" x="79.709632" y="318.2" style="stroke: #000000; stroke-width: 0.8"/>
      </g>
     </g>
     <g id="text_1">
      <!-- 0.0 -->
      <g transform="translate(71.75807 332.798437)scale(0.1 -0.1)">
       <defs>
        <path id="DejaVuSans-30" d="M 2034 4250 
Q 1547 4250 1301 3770 
Q 1056 3291 1056 2328 
Q 1056 1369 1301 889 
Q 1547 409 2034 409 
Q 2525 409 2770 889 
Q 3016 1369 3016 2328 
Q 3016 3291 2770 3770 
Q 2525 4250 2034 4250 
z
M 2034 4750 
Q 2819 4750 3233 4129 
Q 3647 3509 3647 2328 
Q 3647 1150 3233 529 
Q 2819 -91 2034 -91 
Q 1250 -91 836 529 
Q 422 1150 422 2328 
Q 422 3509 836 4129 
Q 1250 4750 2034 4750 
z
" transform="scale(0.015625)"/>
        <path id="DejaVuSans-2e" d="M 684 794 
L 1344 794 
L 1344 0 
L 684 0 
L 684 794 
z
" transform="scale(0.015625)"/>
       </defs>
       <use xlink:href="#DejaVuSans-30"/>
       <use xlink:href="#DejaVuSans-2e" x="63.623047"/>
       <use xlink:href="#DejaVuSans-30" x="95.410156"/>
      </g>
     </g>
    </g>
    <g id="xtick_2">
     <g id="line2d_2">
      <g>
       <use xlink:href="#m35af61a8f2" x="163.104658" y="318.2" style="stroke: #000000; stroke-width: 0.8"/>
      </g>
     </g>
     <g id="text_2">
      <!-- 0.2 -->
      <g transform="translate(155.153096 332.798437)scale(0.1 -0.1)">
       <defs>
        <path id="DejaVuSans-32" d="M 1228 531 
L 3431 531 
L 3431 0 
L 469 0 
L 469 531 
Q 828 903 1448 1529 
Q 2069 2156 2228 2338 
Q 2531 2678 2651 2914 
Q 2772 3150 2772 3378 
Q 2772 3750 2511 3984 
Q 2250 4219 1831 4219 
Q 1534 4219 1204 4116 
Q 875 4013 500 3803 
L 500 4441 
Q 881 4594 1212 4672 
Q 1544 4750 1819 4750 
Q 2544 4750 2975 4387 
Q 3406 4025 3406 3419 
Q 3406 3131 3298 2873 
Q 3191 2616 2906 2266 
Q 2828 2175 2409 1742 
Q 1991 1309 1228 531 
z
" transform="scale(0.015625)"/>
       </defs>
       <use xlink:href="#DejaVuSans-30"/>
       <use xlink:href="#DejaVuSans-2e" x="63.623047"/>
       <use xlink:href="#DejaVuSans-32" x="95.410156"/>
      </g>
     </g>
    </g>
    <g id="xtick_3">
     <g id="line2d_3">
      <g>
       <use xlink:href="#m35af61a8f2" x="246.499685" y="318.2" style="stroke: #000000; stroke-width: 0.8"/>
      </g>
     </g>
     <g id="text_3">
      <!-- 0.4 -->
      <g transform="translate(238.548122 332.798437)scale(0.1 -0.1)">
       <defs>
        <path id="DejaVuSans-34" d="M 2419 4116 
L 825 1625 
L 2419 1625 
L 2419 4116 
z
M 2253 4666 
L 3047 4666 
L 3047 1625 
L 3713 1625 
L 3713 1100 
L 3047 1100 
L 3047 0 
L 2419 0 
L 2419 1100 
L 313 1100 
L 313 1709 
L 2253 4666 
z
" transform="scale(0.015625)"/>
       </defs>
       <use xlink:href="#DejaVuSans-30"/>
       <use xlink:href="#DejaVuSans-2e" x="63.623047"/>
       <use xlink:href="#DejaVuSans-34" x="95.410156"/>
      </g>
     </g>
    </g>
    <g id="xtick_4">
     <g id="line2d_4">
      <g>
       <use xlink:href="#m35af61a8f2" x="329.894711" y="318.2" style="stroke: #000000; stroke-width: 0.8"/>
      </g>
     </g>
     <g id="text_4">
      <!-- 0.6 -->
      <g transform="translate(321.943148 332.798437)scale(0.1 -0.1)">
       <defs>
        <path id="DejaVuSans-36" d="M 2113 2584 
Q 1688 2584 1439 2293 
Q 1191 2003 1191 1497 
Q 1191 994 1439 701 
Q 1688 409 2113 409 
Q 2538 409 2786 701 
Q 3034 994 3034 1497 
Q 3034 2003 2786 2293 
Q 2538 2584 2113 2584 
z
M 3366 4563 
L 3366 3988 
Q 3128 4100 2886 4159 
Q 2644 4219 2406 4219 
Q 1781 4219 1451 3797 
Q 1122 3375 1075 2522 
Q 1259 2794 1537 2939 
Q 1816 3084 2150 3084 
Q 2853 3084 3261 2657 
Q 3669 2231 3669 1497 
Q 3669 778 3244 343 
Q 2819 -91 2113 -91 
Q 1303 -91 875 529 
Q 447 1150 447 2328 
Q 447 3434 972 4092 
Q 1497 4750 2381 4750 
Q 2619 4750 2861 4703 
Q 3103 4656 3366 4563 
z
" transform="scale(0.015625)"/>
       </defs>
       <use xlink:href="#DejaVuSans-30"/>
       <use xlink:href="#DejaVuSans-2e" x="63.623047"/>
       <use xlink:href="#DejaVuSans-36" x="95.410156"/>
      </g>
     </g>
    </g>
    <g id="xtick_5">
     <g id="line2d_5">
      <g>
       <use xlink:href="#m35af61a8f2" x="413.289737" y="318.2" style="stroke: #000000; stroke-width: 0.8"/>
      </g>
     </g>
     <g id="text_5">
      <!-- 0.8 -->
      <g transform="translate(405.338175 332.798437)scale(0.1 -0.1)">
       <defs>
        <path id="DejaVuSans-38" d="M 2034 2216 
Q 1584 2216 1326 1975 
Q 1069 1734 1069 1313 
Q 1069 891 1326 650 
Q 1584 409 2034 409 
Q 2484 409 2743 651 
Q 3003 894 3003 1313 
Q 3003 1734 2745 1975 
Q 2488 2216 2034 2216 
z
M 1403 2484 
Q 997 2584 770 2862 
Q 544 3141 544 3541 
Q 544 4100 942 4425 
Q 1341 4750 2034 4750 
Q 2731 4750 3128 4425 
Q 3525 4100 3525 3541 
Q 3525 3141 3298 2862 
Q 3072 2584 2669 2484 
Q 3125 2378 3379 2068 
Q 3634 1759 3634 1313 
Q 3634 634 3220 271 
Q 2806 -91 2034 -91 
Q 1263 -91 848 271 
Q 434 634 434 1313 
Q 434 1759 690 2068 
Q 947 2378 1403 2484 
z
M 1172 3481 
Q 1172 3119 1398 2916 
Q 1625 2713 2034 2713 
Q 2441 2713 2670 2916 
Q 2900 3119 2900 3481 
Q 2900 3844 2670 4047 
Q 2441 4250 2034 4250 
Q 1625 4250 1398 4047 
Q 1172 3844 1172 3481 
z
" transform="scale(0.015625)"/>
       </defs>
       <use xlink:href="#DejaVuSans-30"/>
       <use xlink:href="#DejaVuSans-2e" x="63.623047"/>
       <use xlink:href="#DejaVuSans-38" x="95.410156"/>
      </g>
     </g>
    </g>
    <g id="text_6">
     <!-- seconds -->
     <g transform="translate(205.457749 346.476562)scale(0.1 -0.1)">
      <defs>
       <path id="DejaVuSans-73" d="M 2834 3397 
L 2834 2853 
Q 2591 2978 2328 3040 
Q 2066 3103 1784 3103 
Q 1356 3103 1142 2972 
Q 928 2841 928 2578 
Q 928 2378 1081 2264 
Q 1234 2150 1697 2047 
L 1894 2003 
Q 2506 1872 2764 1633 
Q 3022 1394 3022 966 
Q 3022 478 2636 193 
Q 2250 -91 1575 -91 
Q 1294 -91 989 -36 
Q 684 19 347 128 
L 347 722 
Q 666 556 975 473 
Q 1284 391 1588 391 
Q 1994 391 2212 530 
Q 2431 669 2431 922 
Q 2431 1156 2273 1281 
Q 2116 1406 1581 1522 
L 1381 1569 
Q 847 1681 609 1914 
Q 372 2147 372 2553 
Q 372 3047 722 3315 
Q 1072 3584 1716 3584 
Q 2034 3584 2315 3537 
Q 2597 3491 2834 3397 
z
" transform="scale(0.015625)"/>
       <path id="DejaVuSans-65" d="M 3597 1894 
L 3597 1613 
L 953 1613 
Q 991 1019 1311 708 
Q 1631 397 2203 397 
Q 2534 397 2845 478 
Q 3156 559 3463 722 
L 3463 178 
Q 3153 47 2828 -22 
Q 2503 -91 2169 -91 
Q 1331 -91 842 396 
Q 353 884 353 1716 
Q 353 2575 817 3079 
Q 1281 3584 2069 3584 
Q 2775 3584 3186 3129 
Q 3597 2675 3597 1894 
z
M 3022 2063 
Q 3016 2534 2758 2815 
Q 2500 3097 2075 3097 
Q 1594 3097 1305 2825 
Q 1016 2553 972 2059 
L 3022 2063 
z
" transform="scale(0.015625)"/>
       <path id="DejaVuSans-63" d="M 3122 3366 
L 3122 2828 
Q 2878 2963 2633 3030 
Q 2388 3097 2138 3097 
Q 1578 3097 1268 2742 
Q 959 2388 959 1747 
Q 959 1106 1268 751 
Q 1578 397 2138 397 
Q 2388 397 2633 464 
Q 2878 531 3122 666 
L 3122 134 
Q 2881 22 2623 -34 
Q 2366 -91 2075 -91 
Q 1284 -91 818 406 
Q 353 903 353 1747 
Q 353 2603 823 3093 
Q 1294 3584 2113 3584 
Q 2378 3584 2631 3529 
Q 2884 3475 3122 3366 
z
" transform="scale(0.015625)"/>
       <path id="DejaVuSans-6f" d="M 1959 3097 
Q 1497 3097 1228 2736 
Q 959 2375 959 1747 
Q 959 1119 1226 758 
Q 1494 397 1959 397 
Q 2419 397 2687 759 
Q 2956 1122 2956 1747 
Q 2956 2369 2687 2733 
Q 2419 3097 1959 3097 
z
M 1959 3584 
Q 2709 3584 3137 3096 
Q 3566 2609 3566 1747 
Q 3566 888 3137 398 
Q 2709 -91 1959 -91 
Q 1206 -91 779 398 
Q 353 888 353 1747 
Q 353 2609 779 3096 
Q 1206 3584 1959 3584 
z
" transform="scale(0.015625)"/>
       <path id="DejaVuSans-6e" d="M 3513 2113 
L 3513 0 
L 2938 0 
L 2938 2094 
Q 2938 2591 2744 2837 
Q 2550 3084 2163 3084 
Q 1697 3084 1428 2787 
Q 1159 2491 1159 1978 
L 1159 0 
L 581 0 
L 581 3500 
L 1159 3500 
L 1159 2956 
Q 1366 3272 1645 3428 
Q 1925 3584 2291 3584 
Q 2894 3584 3203 3211 
Q 3513 2838 3513 2113 
z
" transform="scale(0.015625)"/>
       <path id="DejaVuSans-64" d="M 2906 2969 
L 2906 4863 
L 3481 4863 
L 3481 0 
L 2906 0 
L 2906 525 
Q 2725 213 2448 61 
Q 2172 -91 1784 -91 
Q 1150 -91 751 415 
Q 353 922 353 1747 
Q 353 2572 751 3078 
Q 1150 3584 1784 3584 
Q 2172 3584 2448 3432 
Q 2725 3281 2906 2969 
z
M 947 1747 
Q 947 1113 1208 752 
Q 1469 391 1925 391 
Q 2381 391 2643 752 
Q 2906 1113 2906 1747 
Q 2906 2381 2643 2742 
Q 2381 3103 1925 3103 
Q 1469 3103 1208 2742 
Q 947 2381 947 1747 
z
" transform="scale(0.015625)"/>
      </defs>
      <use xlink:href="#DejaVuSans-73"/>
      <use xlink:href="#DejaVuSans-65" x="52.099609"/>
      <use xlink:href="#DejaVuSans-63" x="113.623047"/>
      <use xlink:href="#DejaVuSans-6f" x="168.603516"/>
      <use xlink:href="#DejaVuSans-6e" x="229.785156"/>
      <use xlink:href="#DejaVuSans-64" x="293.164062"/>
      <use xlink:href="#DejaVuSans-73" x="356.640625"/>
     </g>
    </g>
   </g>
   <g id="matplotlib.axis_2">
    <g id="ytick_1">
     <g id="line2d_6">
      <defs>
       <path id="m8a0434ea52" d="M 0 0 
L -3.5 0 
" style="stroke: #000000; stroke-width: 0.8"/>
      </defs>
      <g>
       <use xlink:href="#m8a0434ea52" x="38.175" y="286.362532" style="stroke: #000000; stroke-width: 0.8"/>
      </g>
     </g>
     <g id="text_7">
      <!-- 0 -->
      <g transform="translate(24.8125 290.161751)scale(0.1 -0.1)">
       <use xlink:href="#DejaVuSans-30"/>
      </g>
     </g>
    </g>
    <g id="ytick_2">
     <g id="line2d_7">
      <g>
       <use xlink:href="#m8a0434ea52" x="38.175" y="249.608025" style="stroke: #000000; stroke-width: 0.8"/>
      </g>
     </g>
     <g id="text_8">
      <!-- 1 -->
      <g transform="translate(24.8125 253.407244)scale(0.1 -0.1)">
       <defs>
        <path id="DejaVuSans-31" d="M 794 531 
L 1825 531 
L 1825 4091 
L 703 3866 
L 703 4441 
L 1819 4666 
L 2450 4666 
L 2450 531 
L 3481 531 
L 3481 0 
L 794 0 
L 794 531 
z
" transform="scale(0.015625)"/>
       </defs>
       <use xlink:href="#DejaVuSans-31"/>
      </g>
     </g>
    </g>
    <g id="ytick_3">
     <g id="line2d_8">
      <g>
       <use xlink:href="#m8a0434ea52" x="38.175" y="212.853518" style="stroke: #000000; stroke-width: 0.8"/>
      </g>
     </g>
     <g id="text_9">
      <!-- 2 -->
      <g transform="translate(24.8125 216.652736)scale(0.1 -0.1)">
       <use xlink:href="#DejaVuSans-32"/>
      </g>
     </g>
    </g>
    <g id="ytick_4">
     <g id="line2d_9">
      <g>
       <use xlink:href="#m8a0434ea52" x="38.175" y="176.09901" style="stroke: #000000; stroke-width: 0.8"/>
      </g>
     </g>
     <g id="text_10">
      <!-- 3 -->
      <g transform="translate(24.8125 179.898229)scale(0.1 -0.1)">
       <defs>
        <path id="DejaVuSans-33" d="M 2597 2516 
Q 3050 2419 3304 2112 
Q 3559 1806 3559 1356 
Q 3559 666 3084 287 
Q 2609 -91 1734 -91 
Q 1441 -91 1130 -33 
Q 819 25 488 141 
L 488 750 
Q 750 597 1062 519 
Q 1375 441 1716 441 
Q 2309 441 2620 675 
Q 2931 909 2931 1356 
Q 2931 1769 2642 2001 
Q 2353 2234 1838 2234 
L 1294 2234 
L 1294 2753 
L 1863 2753 
Q 2328 2753 2575 2939 
Q 2822 3125 2822 3475 
Q 2822 3834 2567 4026 
Q 2313 4219 1838 4219 
Q 1578 4219 1281 4162 
Q 984 4106 628 3988 
L 628 4550 
Q 988 4650 1302 4700 
Q 1616 4750 1894 4750 
Q 2613 4750 3031 4423 
Q 3450 4097 3450 3541 
Q 3450 3153 3228 2886 
Q 3006 2619 2597 2516 
z
" transform="scale(0.015625)"/>
       </defs>
       <use xlink:href="#DejaVuSans-33"/>
      </g>
     </g>
    </g>
    <g id="ytick_5">
     <g id="line2d_10">
      <g>
       <use xlink:href="#m8a0434ea52" x="38.175" y="139.344503" style="stroke: #000000; stroke-width: 0.8"/>
      </g>
     </g>
     <g id="text_11">
      <!-- 4 -->
      <g transform="translate(24.8125 143.143722)scale(0.1 -0.1)">
       <use xlink:href="#DejaVuSans-34"/>
      </g>
     </g>
    </g>
    <g id="ytick_6">
     <g id="line2d_11">
      <g>
       <use xlink:href="#m8a0434ea52" x="38.175" y="102.589996" style="stroke: #000000; stroke-width: 0.8"/>
      </g>
     </g>
     <g id="text_12">
      <!-- 5 -->
      <g transform="translate(24.8125 106.389214)scale(0.1 -0.1)">
       <defs>
        <path id="DejaVuSans-35" d="M 691 4666 
L 3169 4666 
L 3169 4134 
L 1269 4134 
L 1269 2991 
Q 1406 3038 1543 3061 
Q 1681 3084 1819 3084 
Q 2600 3084 3056 2656 
Q 3513 2228 3513 1497 
Q 3513 744 3044 326 
Q 2575 -91 1722 -91 
Q 1428 -91 1123 -41 
Q 819 9 494 109 
L 494 744 
Q 775 591 1075 516 
Q 1375 441 1709 441 
Q 2250 441 2565 725 
Q 2881 1009 2881 1497 
Q 2881 1984 2565 2268 
Q 2250 2553 1709 2553 
Q 1456 2553 1204 2497 
Q 953 2441 691 2322 
L 691 4666 
z
" transform="scale(0.015625)"/>
       </defs>
       <use xlink:href="#DejaVuSans-35"/>
      </g>
     </g>
    </g>
    <g id="text_13">
     <!-- V -->
     <g transform="translate(18.732813 201.322125)rotate(-90)scale(0.1 -0.1)">
      <defs>
       <path id="DejaVuSans-b5" d="M 544 -1331 
L 544 3500 
L 1119 3500 
L 1119 1325 
Q 1119 872 1334 640 
Q 1550 409 1972 409 
Q 2434 409 2667 671 
Q 2900 934 2900 1459 
L 2900 3500 
L 3475 3500 
L 3475 806 
Q 3475 619 3529 530 
Q 3584 441 3700 441 
Q 3728 441 3778 458 
Q 3828 475 3916 513 
L 3916 50 
Q 3788 -22 3673 -56 
Q 3559 -91 3450 -91 
Q 3234 -91 3106 31 
Q 2978 153 2931 403 
Q 2775 156 2548 32 
Q 2322 -91 2016 -91 
Q 1697 -91 1473 31 
Q 1250 153 1119 397 
L 1119 -1331 
L 544 -1331 
z
" transform="scale(0.015625)"/>
       <path id="DejaVuSans-56" d="M 1831 0 
L 50 4666 
L 709 4666 
L 2188 738 
L 3669 4666 
L 4325 4666 
L 2547 0 
L 1831 0 
z
" transform="scale(0.015625)"/>
      </defs>
      <use xlink:href="#DejaVuSans-b5"/>
      <use xlink:href="#DejaVuSans-56" x="63.623047"/>
     </g>
    </g>
   </g>
   <g id="line2d_12">
    <path d="M 38.175 292.960528 
L 42.247023 291.589723 
L 43.875832 290.501017 
L 45.504641 289.311254 
L 46.319046 288.936935 
L 47.13345 288.780194 
L 49.576664 288.695909 
L 50.391068 288.274502 
L 51.205473 287.498653 
L 53.648687 284.301286 
L 54.463091 283.693719 
L 55.277496 283.595545 
L 56.0919 283.985736 
L 58.535114 286.106728 
L 59.349518 286.367475 
L 60.163923 286.232372 
L 61.792732 285.234544 
L 62.607137 284.756019 
L 63.421541 284.501682 
L 64.235946 284.510283 
L 66.679159 285.118456 
L 67.493564 285.081789 
L 69.122373 284.520542 
L 69.936778 284.224016 
L 70.751182 284.092541 
L 71.565587 284.189764 
L 74.0088 285.123918 
L 74.823205 285.136144 
L 75.637609 284.785788 
L 76.452014 284.061143 
L 78.080823 281.865678 
L 79.709632 279.66229 
L 80.524037 278.852633 
L 81.338441 278.292248 
L 82.152846 277.963694 
L 82.96725 277.827792 
L 83.781655 277.84449 
L 85.410464 278.224708 
L 88.668082 279.41881 
L 89.482487 279.404165 
L 90.296891 279.089304 
L 91.111296 278.426465 
L 91.9257 277.420246 
L 93.55451 274.673183 
L 95.183319 271.781194 
L 95.997723 270.582585 
L 96.812128 269.631393 
L 97.626532 268.919583 
L 99.255341 267.985594 
L 100.884151 267.316616 
L 102.51296 266.910814 
L 103.327364 266.941415 
L 104.141769 267.186379 
L 104.956173 267.633441 
L 107.399387 269.335444 
L 108.213792 269.668821 
L 109.028196 269.78285 
L 109.842601 269.696447 
L 111.47141 269.17329 
L 116.357837 267.411757 
L 117.172242 267.228911 
L 117.986646 267.177488 
L 119.615455 267.456675 
L 120.42986 267.631506 
L 121.244264 267.656509 
L 122.058669 267.415598 
L 122.873074 266.867963 
L 125.316287 264.562127 
L 126.130692 264.294936 
L 126.945096 264.57093 
L 127.759501 265.3814 
L 130.202714 268.79846 
L 131.017119 269.248028 
L 131.831524 269.00654 
L 132.645928 268.095377 
L 134.274737 265.078165 
L 135.089142 263.536519 
L 135.903546 262.28502 
L 136.717951 261.415332 
L 137.532355 260.886425 
L 139.975569 259.868755 
L 141.604378 258.622505 
L 143.233187 257.262284 
L 144.047592 256.767329 
L 147.30521 255.344241 
L 148.119615 254.687487 
L 150.562828 252.303457 
L 151.377233 251.805651 
L 152.191637 251.597585 
L 153.006042 251.637161 
L 154.634851 251.909524 
L 155.449256 251.820754 
L 156.26366 251.44665 
L 157.078065 250.796007 
L 160.335683 247.576274 
L 163.593301 245.285317 
L 165.22211 243.811985 
L 166.036515 243.217952 
L 166.850919 242.879928 
L 167.665324 242.840751 
L 170.108538 243.39816 
L 170.922942 243.152867 
L 171.737347 242.461741 
L 172.551751 241.371566 
L 174.18056 238.800983 
L 174.994965 237.829767 
L 175.809369 237.30115 
L 176.623774 237.211962 
L 178.252583 237.62921 
L 179.066988 237.618679 
L 179.881392 237.192707 
L 180.695797 236.309657 
L 183.953415 231.499908 
L 184.76782 230.969755 
L 185.582224 230.849295 
L 186.396629 231.043898 
L 190.468651 232.867559 
L 192.097461 233.249863 
L 193.72627 233.341288 
L 194.540674 233.228858 
L 196.169483 232.65629 
L 197.798292 231.632249 
L 198.612697 230.91674 
L 199.427101 230.028245 
L 201.055911 227.737806 
L 202.68472 225.253867 
L 203.499124 224.261983 
L 204.313529 223.583903 
L 205.127933 223.23839 
L 207.571147 223.066672 
L 208.385552 222.754263 
L 209.199956 222.171029 
L 210.828765 220.619835 
L 211.64317 220.056817 
L 212.457574 219.887876 
L 213.271979 220.176714 
L 214.086383 220.839347 
L 215.715193 222.371088 
L 216.529597 222.714158 
L 217.344002 222.55079 
L 218.158406 221.893923 
L 220.60162 218.940595 
L 221.416024 218.407961 
L 222.230429 218.287381 
L 223.044834 218.494135 
L 224.673643 219.140352 
L 225.488047 219.217164 
L 226.302452 219.025757 
L 228.745665 217.961346 
L 229.56007 218.065408 
L 230.374474 218.619872 
L 231.188879 219.606344 
L 233.632093 223.545666 
L 234.446497 224.491007 
L 235.260902 225.010293 
L 236.075306 225.093921 
L 236.889711 224.825218 
L 239.332925 223.382552 
L 240.147329 223.083343 
L 242.590543 222.563944 
L 243.404947 222.15143 
L 244.219352 221.468233 
L 245.033756 220.51295 
L 247.47697 217.012828 
L 248.291375 216.126806 
L 249.105779 215.587283 
L 249.920184 215.43779 
L 250.734588 215.65482 
L 251.548993 216.155492 
L 253.992207 218.004053 
L 254.806611 218.252315 
L 255.621016 218.128872 
L 256.43542 217.58923 
L 257.249825 216.648694 
L 258.064229 215.380313 
L 261.321848 209.494525 
L 262.950657 207.345272 
L 264.579466 205.732697 
L 267.837084 202.962055 
L 269.465893 201.85319 
L 275.166725 198.633945 
L 276.795534 198.10644 
L 278.424343 197.726525 
L 279.238748 197.445632 
L 280.867557 196.51608 
L 283.31077 194.84032 
L 284.125175 194.537263 
L 284.93958 194.435879 
L 287.382793 194.533127 
L 288.197198 194.226276 
L 289.011602 193.555522 
L 289.826007 192.519118 
L 292.269221 188.580855 
L 293.083625 187.641075 
L 293.89803 187.111376 
L 294.712434 186.973858 
L 297.155648 187.426205 
L 297.970052 187.307957 
L 298.784457 186.936929 
L 301.227671 185.287397 
L 302.042075 184.974379 
L 302.85648 184.862565 
L 305.299693 184.910041 
L 306.114098 184.745577 
L 309.371716 183.623096 
L 310.186121 183.590476 
L 311.81493 183.837902 
L 313.443739 184.08038 
L 315.886953 184.277099 
L 317.515762 184.698782 
L 319.144571 185.083776 
L 319.958975 185.053894 
L 320.77338 184.821708 
L 323.216594 183.631252 
L 324.030998 183.461285 
L 324.845403 183.518734 
L 327.288616 184.224003 
L 328.103021 184.17737 
L 328.917425 183.84401 
L 329.73183 183.259607 
L 332.175044 181.192843 
L 333.803853 180.38559 
L 335.432662 179.611382 
L 336.247066 178.987664 
L 337.875875 177.253817 
L 339.504685 175.603226 
L 340.319089 175.091608 
L 341.133494 174.813895 
L 342.762303 174.528961 
L 343.576707 174.205749 
L 344.391112 173.58981 
L 345.205516 172.644957 
L 346.834326 170.042895 
L 348.463135 167.311525 
L 352.535157 161.093081 
L 355.792776 154.565803 
L 356.60718 153.428237 
L 357.421585 152.663288 
L 358.235989 152.205331 
L 359.864798 151.54188 
L 360.679203 150.948975 
L 361.493608 150.007584 
L 362.308012 148.714447 
L 364.751226 144.112905 
L 365.56563 142.946754 
L 366.380035 142.14781 
L 367.194439 141.687044 
L 368.823249 141.318353 
L 370.452058 140.89614 
L 373.709676 139.619318 
L 375.338485 139.068274 
L 376.152889 138.537491 
L 376.967294 137.681062 
L 377.781699 136.464067 
L 380.224912 131.837143 
L 381.039317 130.678757 
L 381.853721 130.005479 
L 382.668126 129.824285 
L 385.11134 130.325734 
L 385.925744 129.936288 
L 386.740149 128.957436 
L 387.554553 127.413218 
L 389.997767 121.565665 
L 390.812171 120.111767 
L 391.626576 119.175903 
L 392.440981 118.716297 
L 394.884194 118.208647 
L 395.698599 117.562001 
L 396.513003 116.436019 
L 397.327408 114.832568 
L 398.956217 110.630737 
L 400.585026 106.298907 
L 401.399431 104.559534 
L 402.213835 103.302254 
L 403.02824 102.598922 
L 403.842644 102.433903 
L 404.657049 102.692508 
L 406.285858 103.602021 
L 407.100262 103.731047 
L 407.914667 103.368901 
L 408.729072 102.46159 
L 410.357881 99.582752 
L 411.172285 98.182706 
L 411.98669 97.213115 
L 412.801094 96.846621 
L 413.615499 97.068043 
L 413.615499 97.068043 
" clip-path="url(#pc3f222dbc7)" style="fill: none; stroke: #e41a1c; stroke-width: 1.5; stroke-linecap: square"/>
   </g>
   <g id="line2d_13">
    <path d="M 38.175 282.662511 
L 38.989405 282.694868 
L 39.803809 283.196438 
L 42.247023 285.915876 
L 43.061427 286.447248 
L 43.875832 286.559262 
L 44.690236 286.313137 
L 46.319046 285.493379 
L 47.13345 285.316758 
L 47.947855 285.429289 
L 49.576664 286.233037 
L 50.391068 286.60921 
L 51.205473 286.778611 
L 52.019877 286.698788 
L 55.277496 285.709969 
L 56.0919 285.790305 
L 59.349518 286.651204 
L 61.792732 286.983456 
L 65.05035 287.801489 
L 65.864755 287.740261 
L 69.122373 286.8963 
L 69.936778 287.031061 
L 72.379991 288.025629 
L 73.194396 288.087954 
L 74.0088 287.862407 
L 75.637609 286.827718 
L 76.452014 286.331428 
L 77.266419 286.049365 
L 78.080823 286.031616 
L 80.524037 286.539111 
L 81.338441 286.36825 
L 82.152846 285.904092 
L 84.59606 284.055498 
L 85.410464 283.870587 
L 86.224869 284.026807 
L 88.668082 285.162374 
L 89.482487 285.149634 
L 90.296891 284.785695 
L 91.111296 284.134779 
L 93.55451 281.846968 
L 96.812128 279.673354 
L 98.440937 278.009929 
L 100.069746 276.248139 
L 100.884151 275.587309 
L 101.698555 275.153437 
L 102.51296 274.938731 
L 104.141769 274.951203 
L 109.028196 275.613865 
L 109.842601 275.567592 
L 110.657005 275.369729 
L 111.47141 275.003191 
L 114.729028 272.958739 
L 115.543433 272.734529 
L 116.357837 272.711859 
L 117.986646 273.046888 
L 119.615455 273.298987 
L 120.42986 273.234349 
L 122.058669 272.729806 
L 127.759501 270.252079 
L 128.573905 270.073111 
L 129.38831 270.01761 
L 131.017119 270.264777 
L 132.645928 270.652788 
L 133.460333 270.7131 
L 134.274737 270.609842 
L 135.089142 270.332471 
L 136.717951 269.392825 
L 140.789974 266.551584 
L 142.418783 264.95712 
L 144.047592 262.866609 
L 146.490806 259.644293 
L 147.30521 258.822985 
L 148.119615 258.206363 
L 148.934019 257.799932 
L 149.748424 257.577394 
L 153.820447 257.039937 
L 157.892469 255.453103 
L 158.706874 255.491765 
L 159.521278 255.725004 
L 161.150087 256.617545 
L 162.778897 257.637898 
L 163.593301 258.037652 
L 164.407706 258.311333 
L 165.22211 258.446207 
L 166.850919 258.342989 
L 170.108538 257.679249 
L 170.922942 257.713264 
L 171.737347 257.915449 
L 172.551751 258.297649 
L 174.18056 259.49134 
L 175.809369 260.787542 
L 176.623774 261.256043 
L 177.438179 261.519935 
L 178.252583 261.566864 
L 179.881392 261.204153 
L 181.510201 260.868443 
L 182.324606 260.946781 
L 183.13901 261.252688 
L 183.953415 261.776333 
L 185.582224 263.253886 
L 187.211033 264.7845 
L 188.025438 265.389091 
L 188.839842 265.817973 
L 189.654247 266.042534 
L 190.468651 266.057585 
L 191.283056 265.888564 
L 193.72627 265.054947 
L 194.540674 265.029408 
L 195.355079 265.270313 
L 196.169483 265.77125 
L 197.798292 267.11946 
L 198.612697 267.617016 
L 199.427101 267.771822 
L 200.241506 267.500623 
L 201.055911 266.828071 
L 203.499124 263.93891 
L 204.313529 263.278938 
L 205.127933 262.921602 
L 205.942338 262.818773 
L 208.385552 262.893221 
L 210.828765 262.605989 
L 211.64317 262.738211 
L 212.457574 263.12183 
L 213.271979 263.758969 
L 214.900788 265.517653 
L 216.529597 267.302477 
L 218.158406 268.766019 
L 220.60162 270.85608 
L 222.230429 272.499202 
L 223.859238 274.362362 
L 225.488047 276.489706 
L 233.632093 288.37269 
L 236.075306 292.268023 
L 237.704115 294.287251 
L 239.332925 295.761113 
L 241.776138 297.577363 
L 242.590543 298.034733 
L 243.404947 298.325037 
L 244.219352 298.412014 
L 245.033756 298.309508 
L 247.47697 297.680299 
L 248.291375 297.666642 
L 249.105779 297.8104 
L 255.621016 299.977761 
L 257.249825 300.473249 
L 258.064229 300.459151 
L 258.878634 300.187477 
L 259.693038 299.67832 
L 262.136252 297.83955 
L 262.950657 297.523261 
L 263.765061 297.420446 
L 266.208275 297.497286 
L 267.837084 297.077859 
L 269.465893 296.538361 
L 270.280298 296.427452 
L 273.537916 296.516727 
L 274.35232 296.279652 
L 276.795534 295.283405 
L 277.609939 295.24448 
L 278.424343 295.454772 
L 280.867557 296.677236 
L 281.681961 296.845714 
L 282.496366 296.787641 
L 284.93958 296.114588 
L 285.753984 296.092111 
L 289.011602 296.535537 
L 289.826007 296.304777 
L 292.269221 295.289208 
L 293.083625 295.295999 
L 293.89803 295.577673 
L 296.341243 296.871092 
L 297.155648 296.915455 
L 297.970052 296.642549 
L 301.227671 294.654096 
L 302.85648 294.421336 
L 303.670884 294.314852 
L 304.485289 294.040379 
L 305.299693 293.538484 
L 307.742907 291.455263 
L 308.557312 291.066744 
L 309.371716 291.00319 
L 310.186121 291.235921 
L 312.629334 292.43422 
L 313.443739 292.590981 
L 315.072548 292.43954 
L 316.701357 292.175917 
L 319.144571 291.956638 
L 319.958975 291.705162 
L 321.587784 290.792848 
L 322.402189 290.289876 
L 323.216594 289.918317 
L 324.030998 289.774825 
L 324.845403 289.884966 
L 327.288616 290.826408 
L 328.103021 290.882101 
L 328.917425 290.666576 
L 329.73183 290.212331 
L 332.175044 288.486142 
L 333.803853 287.773026 
L 335.432662 287.149615 
L 337.875875 285.893366 
L 338.69028 285.662548 
L 339.504685 285.674385 
L 340.319089 285.932651 
L 341.947898 286.775384 
L 342.762303 287.024713 
L 343.576707 286.954823 
L 344.391112 286.501025 
L 345.205516 285.696071 
L 348.463135 281.508367 
L 350.091944 280.056083 
L 354.163967 277.027529 
L 354.978371 276.591017 
L 355.792776 276.306186 
L 356.60718 276.173186 
L 358.235989 276.227689 
L 361.493608 276.712217 
L 363.936821 277.107625 
L 364.751226 277.089013 
L 365.56563 276.90829 
L 366.380035 276.546248 
L 368.008844 275.434694 
L 369.637653 274.428459 
L 370.452058 274.201968 
L 371.266462 274.208329 
L 372.895271 274.708828 
L 373.709676 274.994992 
L 374.52408 275.158188 
L 375.338485 275.128766 
L 376.152889 274.892814 
L 377.781699 274.012157 
L 379.410508 273.200978 
L 380.224912 273.019072 
L 381.039317 273.02138 
L 382.668126 273.437289 
L 384.296935 273.939607 
L 385.11134 274.053828 
L 385.925744 274.027687 
L 386.740149 273.860851 
L 388.368958 273.215982 
L 390.812171 271.955315 
L 392.440981 270.922029 
L 393.255385 270.243125 
L 394.884194 268.426929 
L 398.956217 262.957183 
L 399.770622 262.177196 
L 401.399431 261.056304 
L 412.801094 255.341747 
L 413.615499 255.040241 
L 413.615499 255.040241 
" clip-path="url(#pc3f222dbc7)" style="fill: none; stroke: #377eb8; stroke-width: 1.5; stroke-linecap: square"/>
   </g>
   <g id="line2d_14">
    <path d="M 79.709632 318.2 
L 79.709632 71.241125 
" clip-path="url(#pc3f222dbc7)" style="fill: none; stroke: #000000; stroke-width: 0.5; stroke-linecap: square"/>
   </g>
   <g id="line2d_15">
    <path d="M 38.175 286.362532 
L 413.615499 286.362532 
" clip-path="url(#pc3f222dbc7)" style="fill: none; stroke: #000000; stroke-width: 0.5; stroke-linecap: square"/>
   </g>
   <g id="patch_4">
    <path d="M 38.175 318.2 
L 38.175 71.241125 
" style="fill: none; stroke: #000000; stroke-width: 0.8; stroke-linejoin: miter; stroke-linecap: square"/>
   </g>
   <g id="patch_5">
    <path d="M 413.615499 318.2 
L 413.615499 71.241125 
" style="fill: none; stroke: #000000; stroke-width: 0.8; stroke-linejoin: miter; stroke-linecap: square"/>
   </g>
   <g id="patch_6">
    <path d="M 38.175 318.2 
L 413.615499 318.2 
" style="fill: none; stroke: #000000; stroke-width: 0.8; stroke-linejoin: miter; stroke-linecap: square"/>
   </g>
   <g id="patch_7">
    <path d="M 38.175 71.241125 
L 413.615499 71.241125 
" style="fill: none; stroke: #000000; stroke-width: 0.8; stroke-linejoin: miter; stroke-linecap: square"/>
   </g>
   <g id="legend_1">
    <g id="patch_8">
     <path d="M 86.124156 48.044893 
L 365.666343 48.044893 
Q 367.666343 48.044893 367.666343 46.044893 
L 367.666343 17.410517 
Q 367.666343 15.410517 365.666343 15.410517 
L 86.124156 15.410517 
Q 84.124156 15.410517 84.124156 17.410517 
L 84.124156 46.044893 
Q 84.124156 48.044893 86.124156 48.044893 
z
" style="fill: #ffffff; opacity: 0.8; stroke: #cccccc; stroke-linejoin: miter"/>
    </g>
    <g id="text_14">
     <!-- Average of Session 4tac_all at Fz -->
     <g transform="translate(143.699156 27.008955)scale(0.1 -0.1)">
      <defs>
       <path id="DejaVuSans-41" d="M 2188 4044 
L 1331 1722 
L 3047 1722 
L 2188 4044 
z
M 1831 4666 
L 2547 4666 
L 4325 0 
L 3669 0 
L 3244 1197 
L 1141 1197 
L 716 0 
L 50 0 
L 1831 4666 
z
" transform="scale(0.015625)"/>
       <path id="DejaVuSans-76" d="M 191 3500 
L 800 3500 
L 1894 563 
L 2988 3500 
L 3597 3500 
L 2284 0 
L 1503 0 
L 191 3500 
z
" transform="scale(0.015625)"/>
       <path id="DejaVuSans-72" d="M 2631 2963 
Q 2534 3019 2420 3045 
Q 2306 3072 2169 3072 
Q 1681 3072 1420 2755 
Q 1159 2438 1159 1844 
L 1159 0 
L 581 0 
L 581 3500 
L 1159 3500 
L 1159 2956 
Q 1341 3275 1631 3429 
Q 1922 3584 2338 3584 
Q 2397 3584 2469 3576 
Q 2541 3569 2628 3553 
L 2631 2963 
z
" transform="scale(0.015625)"/>
       <path id="DejaVuSans-61" d="M 2194 1759 
Q 1497 1759 1228 1600 
Q 959 1441 959 1056 
Q 959 750 1161 570 
Q 1363 391 1709 391 
Q 2188 391 2477 730 
Q 2766 1069 2766 1631 
L 2766 1759 
L 2194 1759 
z
M 3341 1997 
L 3341 0 
L 2766 0 
L 2766 531 
Q 2569 213 2275 61 
Q 1981 -91 1556 -91 
Q 1019 -91 701 211 
Q 384 513 384 1019 
Q 384 1609 779 1909 
Q 1175 2209 1959 2209 
L 2766 2209 
L 2766 2266 
Q 2766 2663 2505 2880 
Q 2244 3097 1772 3097 
Q 1472 3097 1187 3025 
Q 903 2953 641 2809 
L 641 3341 
Q 956 3463 1253 3523 
Q 1550 3584 1831 3584 
Q 2591 3584 2966 3190 
Q 3341 2797 3341 1997 
z
" transform="scale(0.015625)"/>
       <path id="DejaVuSans-67" d="M 2906 1791 
Q 2906 2416 2648 2759 
Q 2391 3103 1925 3103 
Q 1463 3103 1205 2759 
Q 947 2416 947 1791 
Q 947 1169 1205 825 
Q 1463 481 1925 481 
Q 2391 481 2648 825 
Q 2906 1169 2906 1791 
z
M 3481 434 
Q 3481 -459 3084 -895 
Q 2688 -1331 1869 -1331 
Q 1566 -1331 1297 -1286 
Q 1028 -1241 775 -1147 
L 775 -588 
Q 1028 -725 1275 -790 
Q 1522 -856 1778 -856 
Q 2344 -856 2625 -561 
Q 2906 -266 2906 331 
L 2906 616 
Q 2728 306 2450 153 
Q 2172 0 1784 0 
Q 1141 0 747 490 
Q 353 981 353 1791 
Q 353 2603 747 3093 
Q 1141 3584 1784 3584 
Q 2172 3584 2450 3431 
Q 2728 3278 2906 2969 
L 2906 3500 
L 3481 3500 
L 3481 434 
z
" transform="scale(0.015625)"/>
       <path id="DejaVuSans-20" transform="scale(0.015625)"/>
       <path id="DejaVuSans-66" d="M 2375 4863 
L 2375 4384 
L 1825 4384 
Q 1516 4384 1395 4259 
Q 1275 4134 1275 3809 
L 1275 3500 
L 2222 3500 
L 2222 3053 
L 1275 3053 
L 1275 0 
L 697 0 
L 697 3053 
L 147 3053 
L 147 3500 
L 697 3500 
L 697 3744 
Q 697 4328 969 4595 
Q 1241 4863 1831 4863 
L 2375 4863 
z
" transform="scale(0.015625)"/>
       <path id="DejaVuSans-53" d="M 3425 4513 
L 3425 3897 
Q 3066 4069 2747 4153 
Q 2428 4238 2131 4238 
Q 1616 4238 1336 4038 
Q 1056 3838 1056 3469 
Q 1056 3159 1242 3001 
Q 1428 2844 1947 2747 
L 2328 2669 
Q 3034 2534 3370 2195 
Q 3706 1856 3706 1288 
Q 3706 609 3251 259 
Q 2797 -91 1919 -91 
Q 1588 -91 1214 -16 
Q 841 59 441 206 
L 441 856 
Q 825 641 1194 531 
Q 1563 422 1919 422 
Q 2459 422 2753 634 
Q 3047 847 3047 1241 
Q 3047 1584 2836 1778 
Q 2625 1972 2144 2069 
L 1759 2144 
Q 1053 2284 737 2584 
Q 422 2884 422 3419 
Q 422 4038 858 4394 
Q 1294 4750 2059 4750 
Q 2388 4750 2728 4690 
Q 3069 4631 3425 4513 
z
" transform="scale(0.015625)"/>
       <path id="DejaVuSans-69" d="M 603 3500 
L 1178 3500 
L 1178 0 
L 603 0 
L 603 3500 
z
M 603 4863 
L 1178 4863 
L 1178 4134 
L 603 4134 
L 603 4863 
z
" transform="scale(0.015625)"/>
       <path id="DejaVuSans-74" d="M 1172 4494 
L 1172 3500 
L 2356 3500 
L 2356 3053 
L 1172 3053 
L 1172 1153 
Q 1172 725 1289 603 
Q 1406 481 1766 481 
L 2356 481 
L 2356 0 
L 1766 0 
Q 1100 0 847 248 
Q 594 497 594 1153 
L 594 3053 
L 172 3053 
L 172 3500 
L 594 3500 
L 594 4494 
L 1172 4494 
z
" transform="scale(0.015625)"/>
       <path id="DejaVuSans-5f" d="M 3263 -1063 
L 3263 -1509 
L -63 -1509 
L -63 -1063 
L 3263 -1063 
z
" transform="scale(0.015625)"/>
       <path id="DejaVuSans-6c" d="M 603 4863 
L 1178 4863 
L 1178 0 
L 603 0 
L 603 4863 
z
" transform="scale(0.015625)"/>
       <path id="DejaVuSans-46" d="M 628 4666 
L 3309 4666 
L 3309 4134 
L 1259 4134 
L 1259 2759 
L 3109 2759 
L 3109 2228 
L 1259 2228 
L 1259 0 
L 628 0 
L 628 4666 
z
" transform="scale(0.015625)"/>
       <path id="DejaVuSans-7a" d="M 353 3500 
L 3084 3500 
L 3084 2975 
L 922 459 
L 3084 459 
L 3084 0 
L 275 0 
L 275 525 
L 2438 3041 
L 353 3041 
L 353 3500 
z
" transform="scale(0.015625)"/>
      </defs>
      <use xlink:href="#DejaVuSans-41"/>
      <use xlink:href="#DejaVuSans-76" x="62.533203"/>
      <use xlink:href="#DejaVuSans-65" x="121.712891"/>
      <use xlink:href="#DejaVuSans-72" x="183.236328"/>
      <use xlink:href="#DejaVuSans-61" x="224.349609"/>
      <use xlink:href="#DejaVuSans-67" x="285.628906"/>
      <use xlink:href="#DejaVuSans-65" x="349.105469"/>
      <use xlink:href="#DejaVuSans-20" x="410.628906"/>
      <use xlink:href="#DejaVuSans-6f" x="442.416016"/>
      <use xlink:href="#DejaVuSans-66" x="503.597656"/>
      <use xlink:href="#DejaVuSans-20" x="538.802734"/>
      <use xlink:href="#DejaVuSans-53" x="570.589844"/>
      <use xlink:href="#DejaVuSans-65" x="634.066406"/>
      <use xlink:href="#DejaVuSans-73" x="695.589844"/>
      <use xlink:href="#DejaVuSans-73" x="747.689453"/>
      <use xlink:href="#DejaVuSans-69" x="799.789062"/>
      <use xlink:href="#DejaVuSans-6f" x="827.572266"/>
      <use xlink:href="#DejaVuSans-6e" x="888.753906"/>
      <use xlink:href="#DejaVuSans-20" x="952.132812"/>
      <use xlink:href="#DejaVuSans-34" x="983.919922"/>
      <use xlink:href="#DejaVuSans-74" x="1047.542969"/>
      <use xlink:href="#DejaVuSans-61" x="1086.751953"/>
      <use xlink:href="#DejaVuSans-63" x="1148.03125"/>
      <use xlink:href="#DejaVuSans-5f" x="1203.011719"/>
      <use xlink:href="#DejaVuSans-61" x="1253.011719"/>
      <use xlink:href="#DejaVuSans-6c" x="1314.291016"/>
      <use xlink:href="#DejaVuSans-6c" x="1342.074219"/>
      <use xlink:href="#DejaVuSans-20" x="1369.857422"/>
      <use xlink:href="#DejaVuSans-61" x="1401.644531"/>
      <use xlink:href="#DejaVuSans-74" x="1462.923828"/>
      <use xlink:href="#DejaVuSans-20" x="1502.132812"/>
      <use xlink:href="#DejaVuSans-46" x="1533.919922"/>
      <use xlink:href="#DejaVuSans-7a" x="1591.439453"/>
     </g>
    </g>
    <g id="line2d_16">
     <path d="M 88.124156 38.465205 
L 98.124156 38.465205 
L 108.124156 38.465205 
" style="fill: none; stroke: #e41a1c; stroke-width: 1.5; stroke-linecap: square"/>
    </g>
    <g id="text_15">
     <!-- Target (n=12361) -->
     <g transform="translate(116.124156 41.965205)scale(0.1 -0.1)">
      <defs>
       <path id="DejaVuSans-54" d="M -19 4666 
L 3928 4666 
L 3928 4134 
L 2272 4134 
L 2272 0 
L 1638 0 
L 1638 4134 
L -19 4134 
L -19 4666 
z
" transform="scale(0.015625)"/>
       <path id="DejaVuSans-28" d="M 1984 4856 
Q 1566 4138 1362 3434 
Q 1159 2731 1159 2009 
Q 1159 1288 1364 580 
Q 1569 -128 1984 -844 
L 1484 -844 
Q 1016 -109 783 600 
Q 550 1309 550 2009 
Q 550 2706 781 3412 
Q 1013 4119 1484 4856 
L 1984 4856 
z
" transform="scale(0.015625)"/>
       <path id="DejaVuSans-3d" d="M 678 2906 
L 4684 2906 
L 4684 2381 
L 678 2381 
L 678 2906 
z
M 678 1631 
L 4684 1631 
L 4684 1100 
L 678 1100 
L 678 1631 
z
" transform="scale(0.015625)"/>
       <path id="DejaVuSans-29" d="M 513 4856 
L 1013 4856 
Q 1481 4119 1714 3412 
Q 1947 2706 1947 2009 
Q 1947 1309 1714 600 
Q 1481 -109 1013 -844 
L 513 -844 
Q 928 -128 1133 580 
Q 1338 1288 1338 2009 
Q 1338 2731 1133 3434 
Q 928 4138 513 4856 
z
" transform="scale(0.015625)"/>
      </defs>
      <use xlink:href="#DejaVuSans-54"/>
      <use xlink:href="#DejaVuSans-61" x="44.583984"/>
      <use xlink:href="#DejaVuSans-72" x="105.863281"/>
      <use xlink:href="#DejaVuSans-67" x="145.226562"/>
      <use xlink:href="#DejaVuSans-65" x="208.703125"/>
      <use xlink:href="#DejaVuSans-74" x="270.226562"/>
      <use xlink:href="#DejaVuSans-20" x="309.435547"/>
      <use xlink:href="#DejaVuSans-28" x="341.222656"/>
      <use xlink:href="#DejaVuSans-6e" x="380.236328"/>
      <use xlink:href="#DejaVuSans-3d" x="443.615234"/>
      <use xlink:href="#DejaVuSans-31" x="527.404297"/>
      <use xlink:href="#DejaVuSans-32" x="591.027344"/>
      <use xlink:href="#DejaVuSans-33" x="654.650391"/>
      <use xlink:href="#DejaVuSans-36" x="718.273438"/>
      <use xlink:href="#DejaVuSans-31" x="781.896484"/>
      <use xlink:href="#DejaVuSans-29" x="845.519531"/>
     </g>
    </g>
    <g id="line2d_17">
     <path d="M 224.578843 38.465205 
L 234.578843 38.465205 
L 244.578843 38.465205 
" style="fill: none; stroke: #377eb8; stroke-width: 1.5; stroke-linecap: square"/>
    </g>
    <g id="text_16">
     <!-- Non-Target (n=37359) -->
     <g transform="translate(252.578843 41.965205)scale(0.1 -0.1)">
      <defs>
       <path id="DejaVuSans-4e" d="M 628 4666 
L 1478 4666 
L 3547 763 
L 3547 4666 
L 4159 4666 
L 4159 0 
L 3309 0 
L 1241 3903 
L 1241 0 
L 628 0 
L 628 4666 
z
" transform="scale(0.015625)"/>
       <path id="DejaVuSans-2d" d="M 313 2009 
L 1997 2009 
L 1997 1497 
L 313 1497 
L 313 2009 
z
" transform="scale(0.015625)"/>
       <path id="DejaVuSans-37" d="M 525 4666 
L 3525 4666 
L 3525 4397 
L 1831 0 
L 1172 0 
L 2766 4134 
L 525 4134 
L 525 4666 
z
" transform="scale(0.015625)"/>
       <path id="DejaVuSans-39" d="M 703 97 
L 703 672 
Q 941 559 1184 500 
Q 1428 441 1663 441 
Q 2288 441 2617 861 
Q 2947 1281 2994 2138 
Q 2813 1869 2534 1725 
Q 2256 1581 1919 1581 
Q 1219 1581 811 2004 
Q 403 2428 403 3163 
Q 403 3881 828 4315 
Q 1253 4750 1959 4750 
Q 2769 4750 3195 4129 
Q 3622 3509 3622 2328 
Q 3622 1225 3098 567 
Q 2575 -91 1691 -91 
Q 1453 -91 1209 -44 
Q 966 3 703 97 
z
M 1959 2075 
Q 2384 2075 2632 2365 
Q 2881 2656 2881 3163 
Q 2881 3666 2632 3958 
Q 2384 4250 1959 4250 
Q 1534 4250 1286 3958 
Q 1038 3666 1038 3163 
Q 1038 2656 1286 2365 
Q 1534 2075 1959 2075 
z
" transform="scale(0.015625)"/>
      </defs>
      <use xlink:href="#DejaVuSans-4e"/>
      <use xlink:href="#DejaVuSans-6f" x="74.804688"/>
      <use xlink:href="#DejaVuSans-6e" x="135.986328"/>
      <use xlink:href="#DejaVuSans-2d" x="199.365234"/>
      <use xlink:href="#DejaVuSans-54" x="226.324219"/>
      <use xlink:href="#DejaVuSans-61" x="270.908203"/>
      <use xlink:href="#DejaVuSans-72" x="332.1875"/>
      <use xlink:href="#DejaVuSans-67" x="371.550781"/>
      <use xlink:href="#DejaVuSans-65" x="435.027344"/>
      <use xlink:href="#DejaVuSans-74" x="496.550781"/>
      <use xlink:href="#DejaVuSans-20" x="535.759766"/>
      <use xlink:href="#DejaVuSans-28" x="567.546875"/>
      <use xlink:href="#DejaVuSans-6e" x="606.560547"/>
      <use xlink:href="#DejaVuSans-3d" x="669.939453"/>
      <use xlink:href="#DejaVuSans-33" x="753.728516"/>
      <use xlink:href="#DejaVuSans-37" x="817.351562"/>
      <use xlink:href="#DejaVuSans-33" x="880.974609"/>
      <use xlink:href="#DejaVuSans-35" x="944.597656"/>
      <use xlink:href="#DejaVuSans-39" x="1008.220703"/>
      <use xlink:href="#DejaVuSans-29" x="1071.84375"/>
     </g>
    </g>
   </g>
  </g>
 </g>
 <defs>
  <clipPath id="pc3f222dbc7">
   <rect x="38.175" y="71.241125" width="375.440499" height="246.958875"/>
  </clipPath>
 </defs>
</svg>
