<?xml version="1.0" encoding="utf-8" standalone="no"?>
<!DOCTYPE svg PUBLIC "-//W3C//DTD SVG 1.1//EN"
  "http://www.w3.org/Graphics/SVG/1.1/DTD/svg11.dtd">
<svg xmlns:xlink="http://www.w3.org/1999/xlink" width="432pt" height="360pt" viewBox="0 0 432 360" xmlns="http://www.w3.org/2000/svg" version="1.1">
 <metadata>
  <rdf:RDF xmlns:dc="http://purl.org/dc/elements/1.1/" xmlns:cc="http://creativecommons.org/ns#" xmlns:rdf="http://www.w3.org/1999/02/22-rdf-syntax-ns#">
   <cc:Work>
    <dc:type rdf:resource="http://purl.org/dc/dcmitype/StillImage"/>
    <dc:date>2022-05-19T11:52:30.057821</dc:date>
    <dc:format>image/svg+xml</dc:format>
    <dc:creator>
     <cc:Agent>
      <dc:title>Matplotlib v3.5.1, https://matplotlib.org/</dc:title>
     </cc:Agent>
    </dc:creator>
   </cc:Work>
  </rdf:RDF>
 </metadata>
 <defs>
  <style type="text/css">*{stroke-linejoin: round; stroke-linecap: butt}</style>
 </defs>
 <g id="figure_1">
  <g id="patch_1">
   <path d="M 0 360 
L 432 360 
L 432 0 
L 0 0 
L 0 360 
z
" style="fill: none"/>
  </g>
  <g id="axes_1">
   <g id="patch_2">
    <path d="M 46.64 318.04 
L 413.570499 318.04 
L 413.570499 71.732 
L 46.64 71.732 
L 46.64 318.04 
z
" style="fill: none"/>
   </g>
   <g id="PolyCollection_1">
    <defs>
     <path id="m148400dd60" d="M 46.64 -122.254643 
L 46.64 -77.917627 
L 47.435945 -72.849523 
L 48.231889 -68.352041 
L 49.027834 -65.784209 
L 49.823779 -65.763958 
L 50.619723 -68.060792 
L 51.415668 -71.738691 
L 52.211613 -75.448745 
L 53.007557 -77.853892 
L 53.803502 -78.129469 
L 54.599447 -76.299143 
L 55.395392 -73.146512 
L 56.191336 -69.770945 
L 56.987281 -67.127162 
L 57.783226 -65.822248 
L 58.57917 -66.195202 
L 59.375115 -68.418556 
L 60.17106 -72.388708 
L 60.967004 -77.568206 
L 61.762949 -83.037925 
L 62.558894 -87.764872 
L 63.354838 -90.921202 
L 64.150783 -92.086146 
L 64.946728 -91.291916 
L 65.742672 -88.986805 
L 66.538617 -85.953002 
L 67.334562 -83.158625 
L 68.130506 -81.546087 
L 68.926451 -81.799661 
L 69.722396 -84.142389 
L 70.51834 -88.216562 
L 71.314285 -93.121635 
L 72.11023 -97.663499 
L 72.906175 -100.753089 
L 73.702119 -101.751476 
L 74.498064 -100.587527 
L 75.294009 -97.667397 
L 76.089953 -93.697418 
L 76.885898 -89.500726 
L 77.681843 -85.84503 
L 78.477787 -83.275667 
L 79.273732 -81.981722 
L 80.069677 -81.759807 
L 80.865621 -82.107713 
L 81.661566 -82.413078 
L 82.457511 -82.163742 
L 83.253455 -81.103411 
L 84.0494 -79.281808 
L 84.845345 -76.998584 
L 85.641289 -74.682569 
L 86.437234 -72.750431 
L 87.233179 -71.473167 
L 88.029124 -70.883796 
L 88.825068 -70.772265 
L 89.621013 -70.78763 
L 90.416958 -70.595805 
L 91.212902 -69.994587 
L 92.008847 -68.938212 
L 92.804792 -67.510976 
L 93.600736 -65.902208 
L 94.396681 -64.383488 
L 95.192626 -63.257876 
L 95.98857 -62.77635 
L 96.784515 -63.056111 
L 97.58046 -64.03292 
L 98.376404 -65.452914 
L 99.172349 -66.91025 
L 99.968294 -67.952941 
L 100.764238 -68.256323 
L 101.560183 -67.788054 
L 102.356128 -66.838776 
L 103.152073 -65.879037 
L 103.948017 -65.356324 
L 104.743962 -65.567206 
L 105.539907 -66.628311 
L 106.335851 -68.491243 
L 107.131796 -70.969771 
L 107.927741 -73.796132 
L 108.723685 -76.71336 
L 109.51963 -79.55581 
L 110.315575 -82.248949 
L 111.111519 -84.722867 
L 111.907464 -86.822813 
L 112.703409 -88.302456 
L 113.499353 -88.898276 
L 114.295298 -88.415738 
L 115.091243 -86.776861 
L 115.887187 -84.037355 
L 116.683132 -80.409164 
L 117.479077 -76.304355 
L 118.275021 -72.356364 
L 119.070966 -69.322416 
L 119.866911 -67.835191 
L 120.662856 -68.128846 
L 121.4588 -69.916513 
L 122.254745 -72.486774 
L 123.05069 -74.94446 
L 123.846634 -76.463989 
L 124.642579 -76.48103 
L 125.438524 -74.833659 
L 126.234468 -71.859132 
L 127.030413 -68.370452 
L 127.826358 -65.427478 
L 128.622302 -63.957087 
L 129.418247 -64.414079 
L 130.214192 -66.642557 
L 131.010136 -69.949476 
L 131.806081 -73.301692 
L 132.602026 -75.583413 
L 133.39797 -75.911443 
L 134.193915 -73.965413 
L 134.98986 -70.178336 
L 135.785805 -65.629388 
L 136.581749 -61.661035 
L 137.377694 -59.425339 
L 138.173639 -59.567929 
L 138.969583 -62.124582 
L 139.765528 -66.578679 
L 140.561473 -72.010611 
L 141.357417 -77.329321 
L 142.153362 -81.577294 
L 142.949307 -84.216806 
L 143.745251 -85.25692 
L 144.541196 -85.157128 
L 145.337141 -84.581359 
L 146.133085 -84.14166 
L 146.92903 -84.229633 
L 147.724975 -84.954382 
L 148.520919 -86.157031 
L 149.316864 -87.472886 
L 150.112809 -88.433561 
L 150.908753 -88.599774 
L 151.704698 -87.685256 
L 152.500643 -85.617553 
L 153.296588 -82.522438 
L 154.092532 -78.680818 
L 154.888477 -74.514188 
L 155.684422 -70.591108 
L 156.480366 -67.581984 
L 157.276311 -66.105642 
L 158.072256 -66.506512 
L 158.8682 -68.678146 
L 159.664145 -72.035255 
L 160.46009 -75.655412 
L 161.256034 -78.530064 
L 162.051979 -79.836523 
L 162.847924 -79.168526 
L 163.643868 -76.687136 
L 164.439813 -73.135351 
L 165.235758 -69.647364 
L 166.031702 -67.363906 
L 166.827647 -67.006955 
L 167.623592 -68.62059 
L 168.419537 -71.59129 
L 169.215481 -74.908918 
L 170.011426 -77.529904 
L 170.807371 -78.703333 
L 171.603315 -78.180937 
L 172.39926 -76.278431 
L 173.195205 -73.764676 
L 173.991149 -71.57976 
L 174.787094 -70.468399 
L 175.583039 -70.698071 
L 176.378983 -72.001243 
L 177.174928 -73.742592 
L 177.970873 -75.191652 
L 178.766817 -75.776339 
L 179.562762 -75.263014 
L 180.358707 -73.842921 
L 181.154651 -72.083403 
L 181.950596 -70.721926 
L 182.746541 -70.388578 
L 183.542485 -71.423349 
L 184.33843 -73.880062 
L 185.134375 -77.633197 
L 185.93032 -82.427343 
L 186.726264 -87.833758 
L 187.522209 -93.240346 
L 188.318154 -97.991313 
L 189.114098 -101.614867 
L 189.910043 -103.931995 
L 190.705988 -104.947055 
L 191.501932 -104.674685 
L 192.297877 -103.110587 
L 193.093822 -100.364782 
L 193.889766 -96.78527 
L 194.685711 -92.910393 
L 195.481656 -89.283263 
L 196.2776 -86.287644 
L 197.073545 -84.090498 
L 197.86949 -82.658802 
L 198.665434 -81.802752 
L 199.461379 -81.244768 
L 200.257324 -80.719316 
L 201.053269 -80.061574 
L 201.849213 -79.228034 
L 202.645158 -78.254187 
L 203.441103 -77.218351 
L 204.237047 -76.257484 
L 205.032992 -75.596884 
L 205.828937 -75.517417 
L 206.624881 -76.242667 
L 207.420826 -77.81126 
L 208.216771 -80.013685 
L 209.012715 -82.427681 
L 209.80866 -84.542148 
L 210.604605 -85.933685 
L 211.400549 -86.437732 
L 212.196494 -86.242145 
L 212.992439 -85.849658 
L 213.788383 -85.912009 
L 214.584328 -86.999725 
L 215.380273 -89.400758 
L 216.176218 -93.025379 
L 216.972162 -97.440665 
L 217.768107 -101.993998 
L 218.564052 -105.95846 
L 219.359996 -108.664505 
L 220.155941 -109.631399 
L 220.951886 -108.713687 
L 221.74783 -106.210048 
L 222.543775 -102.821722 
L 223.33972 -99.42447 
L 224.135664 -96.788324 
L 224.931609 -95.420973 
L 225.727554 -95.566931 
L 226.523498 -97.249861 
L 227.319443 -100.263421 
L 228.115388 -104.147075 
L 228.911332 -108.243246 
L 229.707277 -111.857016 
L 230.503222 -114.443262 
L 231.299166 -115.743311 
L 232.095111 -115.857685 
L 232.891056 -115.2595 
L 233.687001 -114.703842 
L 234.482945 -114.98728 
L 235.27889 -116.621725 
L 236.074835 -119.592883 
L 236.870779 -123.341375 
L 237.666724 -126.960827 
L 238.462669 -129.490741 
L 239.258613 -130.18732 
L 240.054558 -128.731717 
L 240.850503 -125.371663 
L 241.646447 -120.964917 
L 242.442392 -116.852823 
L 243.238337 -114.511589 
L 244.034281 -115.055819 
L 244.830226 -118.812865 
L 245.626171 -125.18557 
L 246.422115 -132.866261 
L 247.21806 -140.281413 
L 248.014005 -146.051327 
L 248.80995 -149.2956 
L 249.605894 -149.743304 
L 250.401839 -147.694423 
L 251.197784 -143.889495 
L 251.993728 -139.327912 
L 252.789673 -135.067647 
L 253.585618 -132.03383 
L 254.381562 -130.854063 
L 255.177507 -131.740432 
L 255.973452 -134.454526 
L 256.769396 -138.390832 
L 257.565341 -142.77106 
L 258.361286 -146.88 
L 259.15723 -150.247016 
L 259.953175 -152.716227 
L 260.74912 -154.416007 
L 261.545064 -155.675768 
L 262.341009 -156.930864 
L 263.136954 -158.626625 
L 263.932898 -161.105441 
L 264.728843 -164.469126 
L 265.524788 -168.463606 
L 266.320733 -172.476478 
L 267.116677 -175.705364 
L 267.912622 -177.45778 
L 268.708567 -177.446151 
L 269.504511 -175.916952 
L 270.300456 -173.541345 
L 271.096401 -171.139278 
L 271.892345 -169.386439 
L 272.68829 -168.618879 
L 273.484235 -168.771871 
L 274.280179 -169.441891 
L 275.076124 -170.0454 
L 275.872069 -170.0253 
L 276.668013 -169.028871 
L 277.463958 -166.993819 
L 278.259903 -164.132867 
L 279.055847 -160.85089 
L 279.851792 -157.62984 
L 280.647737 -154.898865 
L 281.443682 -152.912149 
L 282.239626 -151.682584 
L 283.035571 -151.016658 
L 283.831516 -150.644775 
L 284.62746 -150.382754 
L 285.423405 -150.240254 
L 286.21935 -150.416063 
L 287.015294 -151.170764 
L 287.811239 -152.630284 
L 288.607184 -154.624614 
L 289.403128 -156.664397 
L 290.199073 -158.085224 
L 290.995018 -158.28272 
L 291.790962 -156.908677 
L 292.586907 -153.958236 
L 293.382852 -149.777088 
L 294.178796 -145.02775 
L 294.974741 -140.585796 
L 295.770686 -137.326122 
L 296.56663 -135.854537 
L 297.362575 -136.321271 
L 298.15852 -138.411146 
L 298.954465 -141.484603 
L 299.750409 -144.767538 
L 300.546354 -147.517777 
L 301.342299 -149.167252 
L 302.138243 -149.446845 
L 302.934188 -148.447985 
L 303.730133 -146.563057 
L 304.526077 -144.320177 
L 305.322022 -142.202711 
L 306.117967 -140.531374 
L 306.913911 -139.417973 
L 307.709856 -138.764938 
L 308.505801 -138.306963 
L 309.301745 -137.709888 
L 310.09769 -136.705585 
L 310.893635 -135.187399 
L 311.689579 -133.203089 
L 312.485524 -130.868292 
L 313.281469 -128.289337 
L 314.077414 -125.559303 
L 314.873358 -122.803536 
L 315.669303 -120.188252 
L 316.465248 -117.843151 
L 317.261192 -115.755448 
L 318.057137 -113.739445 
L 318.853082 -111.519039 
L 319.649026 -108.866478 
L 320.444971 -105.713592 
L 321.240916 -102.194345 
L 322.03686 -98.624714 
L 322.832805 -95.436188 
L 323.62875 -93.073579 
L 324.424694 -91.876503 
L 325.220639 -91.980486 
L 326.016584 -93.274593 
L 326.812528 -95.432655 
L 327.608473 -98.010359 
L 328.404418 -100.580566 
L 329.200363 -102.860785 
L 329.996307 -104.776585 
L 330.792252 -106.426833 
L 331.588197 -107.975229 
L 332.384141 -109.543465 
L 333.180086 -111.170249 
L 333.976031 -112.83368 
L 334.771975 -114.485104 
L 335.56792 -116.065619 
L 336.363865 -117.527778 
L 337.159809 -118.878822 
L 337.955754 -120.202035 
L 338.751699 -121.595557 
L 339.547643 -123.042977 
L 340.343588 -124.315765 
L 341.139533 -124.999608 
L 341.935477 -124.642394 
L 342.731422 -122.933338 
L 343.527367 -119.81471 
L 344.323311 -115.492429 
L 345.119256 -110.378958 
L 345.915201 -105.015731 
L 346.711146 -99.990181 
L 347.50709 -95.833801 
L 348.303035 -92.902977 
L 349.09898 -91.287668 
L 349.894924 -90.809053 
L 350.690869 -91.129135 
L 351.486814 -91.922234 
L 352.282758 -93.000054 
L 353.078703 -94.306292 
L 353.874648 -95.811762 
L 354.670592 -97.43464 
L 355.466537 -99.071005 
L 356.262482 -100.687888 
L 357.058426 -102.360239 
L 357.854371 -104.208714 
L 358.650316 -106.309974 
L 359.44626 -108.661569 
L 360.242205 -111.203556 
L 361.03815 -113.840663 
L 361.834095 -116.431762 
L 362.630039 -118.773094 
L 363.425984 -120.617379 
L 364.221929 -121.732784 
L 365.017873 -121.973292 
L 365.813818 -121.336501 
L 366.609763 -119.995407 
L 367.405707 -118.282459 
L 368.201652 -116.609226 
L 368.997597 -115.35306 
L 369.793541 -114.784912 
L 370.589486 -115.081129 
L 371.385431 -116.375725 
L 372.181375 -118.764559 
L 372.97732 -122.226014 
L 373.773265 -126.515971 
L 374.569209 -131.123169 
L 375.365154 -135.315964 
L 376.161099 -138.253481 
L 376.957043 -139.139351 
L 377.752988 -137.426257 
L 378.548933 -133.050321 
L 379.344878 -126.592444 
L 380.140822 -119.234658 
L 380.936767 -112.471447 
L 381.732712 -107.681118 
L 382.528656 -105.736224 
L 383.324601 -106.79073 
L 384.120546 -110.277316 
L 384.91649 -115.068524 
L 385.712435 -119.748953 
L 386.50838 -122.963948 
L 387.304324 -123.780778 
L 388.100269 -121.943575 
L 388.896214 -117.907519 
L 389.692158 -112.630909 
L 390.488103 -107.22361 
L 391.284048 -102.608037 
L 392.079992 -99.314958 
L 392.875937 -97.45216 
L 393.671882 -96.811599 
L 394.467827 -97.050772 
L 395.263771 -97.880628 
L 396.059716 -99.190237 
L 396.855661 -101.049119 
L 397.651605 -103.579717 
L 398.44755 -106.771991 
L 399.243495 -110.359207 
L 400.039439 -113.844433 
L 400.835384 -116.677192 
L 401.631329 -118.489529 
L 402.427273 -119.272059 
L 403.223218 -119.415533 
L 404.019163 -119.611575 
L 404.815107 -120.646039 
L 405.611052 -123.134511 
L 406.406997 -127.274143 
L 407.202941 -132.712362 
L 407.998886 -138.614154 
L 408.794831 -143.92255 
L 409.590775 -147.696466 
L 410.38672 -149.365405 
L 411.182665 -148.809422 
L 411.97861 -146.293203 
L 412.774554 -142.345716 
L 413.570499 -137.646106 
L 413.570499 -264.48572 
L 413.570499 -264.48572 
L 412.774554 -269.145791 
L 411.97861 -273.328499 
L 411.182665 -276.20612 
L 410.38672 -277.072182 
L 409.590775 -275.592777 
L 408.794831 -271.931187 
L 407.998886 -266.694213 
L 407.202941 -260.753458 
L 406.406997 -255.029425 
L 405.611052 -250.290971 
L 404.815107 -246.989927 
L 404.019163 -245.160689 
L 403.223218 -244.433111 
L 402.427273 -244.182503 
L 401.631329 -243.76765 
L 400.835384 -242.746254 
L 400.039439 -240.973169 
L 399.243495 -238.568258 
L 398.44755 -235.810314 
L 397.651605 -233.023095 
L 396.855661 -230.490178 
L 396.059716 -228.409734 
L 395.263771 -226.894078 
L 394.467827 -226.016456 
L 393.671882 -225.884362 
L 392.875937 -226.681407 
L 392.079992 -228.616295 
L 391.284048 -231.775517 
L 390.488103 -235.955104 
L 389.692158 -240.578449 
L 388.896214 -244.766388 
L 388.100269 -247.547366 
L 387.304324 -248.136885 
L 386.50838 -246.203355 
L 385.712435 -242.04898 
L 384.91649 -236.637711 
L 384.120546 -231.412958 
L 383.324601 -227.9088 
L 382.528656 -227.26792 
L 381.732712 -229.864961 
L 380.936767 -235.205295 
L 380.140822 -242.123207 
L 379.344878 -249.155514 
L 378.548933 -254.925437 
L 377.752988 -258.431796 
L 376.957043 -259.217146 
L 376.161099 -257.415528 
L 375.365154 -253.665268 
L 374.569209 -248.885348 
L 373.773265 -243.984899 
L 372.97732 -239.636615 
L 372.181375 -236.206694 
L 371.385431 -233.814847 
L 370.589486 -232.423716 
L 369.793541 -231.895083 
L 368.997597 -232.027195 
L 368.201652 -232.602795 
L 367.405707 -233.432619 
L 366.609763 -234.356276 
L 365.813818 -235.201952 
L 365.017873 -235.758921 
L 364.221929 -235.810778 
L 363.425984 -235.212083 
L 362.630039 -233.945689 
L 361.834095 -232.12209 
L 361.03815 -229.92949 
L 360.242205 -227.55912 
L 359.44626 -225.129328 
L 358.650316 -222.645887 
L 357.854371 -220.04016 
L 357.058426 -217.278051 
L 356.262482 -214.458739 
L 355.466537 -211.808546 
L 354.670592 -209.560691 
L 353.874648 -207.826467 
L 353.078703 -206.576218 
L 352.282758 -205.72827 
L 351.486814 -205.238506 
L 350.690869 -205.11702 
L 349.894924 -205.403249 
L 349.09898 -206.166702 
L 348.303035 -207.536256 
L 347.50709 -209.694904 
L 346.711146 -212.793891 
L 345.915201 -216.816324 
L 345.119256 -221.479993 
L 344.323311 -226.260779 
L 343.527367 -230.542829 
L 342.731422 -233.814709 
L 341.935477 -235.801975 
L 341.139533 -236.479249 
L 340.343588 -235.99393 
L 339.547643 -234.58083 
L 338.751699 -232.515225 
L 337.955754 -230.088685 
L 337.159809 -227.57124 
L 336.363865 -225.159891 
L 335.56792 -222.95725 
L 334.771975 -221.010559 
L 333.976031 -219.37018 
L 333.180086 -218.089797 
L 332.384141 -217.152765 
L 331.588197 -216.40118 
L 330.792252 -215.551116 
L 329.996307 -214.295672 
L 329.200363 -212.429211 
L 328.404418 -209.932143 
L 327.608473 -206.998941 
L 326.812528 -204.015931 
L 326.016584 -201.490085 
L 325.220639 -199.928978 
L 324.424694 -199.696794 
L 323.62875 -200.897732 
L 322.832805 -203.334037 
L 322.03686 -206.555831 
L 321.240916 -209.989278 
L 320.444971 -213.105182 
L 319.649026 -215.569708 
L 318.853082 -217.317789 
L 318.057137 -218.525535 
L 317.261192 -219.51445 
L 316.465248 -220.648428 
L 315.669303 -222.254936 
L 314.873358 -224.55129 
L 314.077414 -227.556408 
L 313.281469 -231.030904 
L 312.485524 -234.527723 
L 311.689579 -237.568207 
L 310.893635 -239.845354 
L 310.09769 -241.329159 
L 309.301745 -242.227888 
L 308.505801 -242.861105 
L 307.709856 -243.541342 
L 306.913911 -244.511312 
L 306.117967 -245.907026 
L 305.322022 -247.711881 
L 304.526077 -249.72521 
L 303.730133 -251.593998 
L 302.934188 -252.909864 
L 302.138243 -253.320553 
L 301.342299 -252.613054 
L 300.546354 -250.773135 
L 299.750409 -248.03692 
L 298.954465 -244.901626 
L 298.15852 -242.035048 
L 297.362575 -240.08588 
L 296.56663 -239.489538 
L 295.770686 -240.370533 
L 294.974741 -242.554215 
L 294.178796 -245.628928 
L 293.382852 -249.018145 
L 292.586907 -252.083709 
L 291.790962 -254.286649 
L 290.995018 -255.353124 
L 290.199073 -255.332822 
L 289.403128 -254.502337 
L 288.607184 -253.198385 
L 287.811239 -251.705426 
L 287.015294 -250.233802 
L 286.21935 -248.938251 
L 285.423405 -247.930239 
L 284.62746 -247.283411 
L 283.831516 -247.05246 
L 283.035571 -247.309674 
L 282.239626 -248.175047 
L 281.443682 -249.806006 
L 280.647737 -252.330425 
L 279.851792 -255.737207 
L 279.055847 -259.771895 
L 278.259903 -263.909753 
L 277.463958 -267.463654 
L 276.668013 -269.809573 
L 275.872069 -270.628262 
L 275.076124 -270.044349 
L 274.280179 -268.601604 
L 273.484235 -267.088765 
L 272.68829 -266.279126 
L 271.892345 -266.668521 
L 271.096401 -268.302573 
L 270.300456 -270.764362 
L 269.504511 -273.329304 
L 268.708567 -275.210017 
L 267.912622 -275.779178 
L 267.116677 -274.707336 
L 266.320733 -272.025314 
L 265.524788 -268.129212 
L 264.728843 -263.703597 
L 263.932898 -259.5357 
L 263.136954 -256.253098 
L 262.341009 -254.085483 
L 261.545064 -252.772849 
L 260.74912 -251.685428 
L 259.953175 -250.104212 
L 259.15723 -247.522992 
L 258.361286 -243.83819 
L 257.565341 -239.366287 
L 256.769396 -234.716212 
L 255.973452 -230.604513 
L 255.177507 -227.696842 
L 254.381562 -226.496012 
L 253.585618 -227.246133 
L 252.789673 -229.83555 
L 251.993728 -233.730639 
L 251.197784 -237.999877 
L 250.401839 -241.466485 
L 249.605894 -242.975112 
L 248.80995 -241.707486 
L 248.014005 -237.451484 
L 247.21806 -230.720814 
L 246.422115 -222.655527 
L 245.626171 -214.723742 
L 244.830226 -208.345886 
L 244.034281 -204.578435 
L 243.238337 -203.915901 
L 242.442392 -206.200236 
L 241.646447 -210.626851 
L 240.850503 -215.877742 
L 240.054558 -220.429645 
L 239.258613 -223.004872 
L 238.462669 -222.989898 
L 237.666724 -220.606528 
L 236.870779 -216.745409 
L 236.074835 -212.55754 
L 235.27889 -209.020727 
L 234.482945 -206.675685 
L 233.687001 -205.581078 
L 232.891056 -205.406314 
L 232.095111 -205.572893 
L 231.299166 -205.423456 
L 230.503222 -204.419786 
L 229.707277 -202.312272 
L 228.911332 -199.193563 
L 228.115388 -195.42699 
L 227.319443 -191.5321 
L 226.523498 -188.094504 
L 225.727554 -185.679885 
L 224.931609 -184.704859 
L 224.135664 -185.293539 
L 223.33972 -187.222046 
L 222.543775 -190.001192 
L 221.74783 -193.017514 
L 220.951886 -195.620416 
L 220.155941 -197.157928 
L 219.359996 -197.070035 
L 218.564052 -195.081702 
L 217.768107 -191.374421 
L 216.972162 -186.581647 
L 216.176218 -181.581978 
L 215.380273 -177.201852 
L 214.584328 -173.976189 
L 213.788383 -172.052084 
L 212.992439 -171.231697 
L 212.196494 -171.101506 
L 211.400549 -171.187272 
L 210.604605 -171.085897 
L 209.80866 -170.549544 
L 209.012715 -169.519404 
L 208.216771 -168.112078 
L 207.420826 -166.564281 
L 206.624881 -165.155744 
L 205.828937 -164.138656 
L 205.032992 -163.687337 
L 204.237047 -163.861673 
L 203.441103 -164.584436 
L 202.645158 -165.660142 
L 201.849213 -166.857368 
L 201.053269 -168.01666 
L 200.257324 -169.104717 
L 199.461379 -170.180587 
L 198.665434 -171.325136 
L 197.86949 -172.605749 
L 197.073545 -174.08229 
L 196.2776 -175.805476 
L 195.481656 -177.786958 
L 194.685711 -179.974687 
L 193.889766 -182.259262 
L 193.093822 -184.478235 
L 192.297877 -186.376468 
L 191.501932 -187.571294 
L 190.705988 -187.636511 
L 189.910043 -186.30647 
L 189.114098 -183.631018 
L 188.318154 -179.924984 
L 187.522209 -175.556578 
L 186.726264 -170.799208 
L 185.93032 -165.897522 
L 185.134375 -161.227545 
L 184.33843 -157.319414 
L 183.542485 -154.673825 
L 182.746541 -153.519728 
L 181.950596 -153.709528 
L 181.154651 -154.795764 
L 180.358707 -156.181064 
L 179.562762 -157.252422 
L 178.766817 -157.513494 
L 177.970873 -156.744386 
L 177.174928 -155.12839 
L 176.378983 -153.229526 
L 175.583039 -151.784694 
L 174.787094 -151.409309 
L 173.991149 -152.360364 
L 173.195205 -154.43435 
L 172.39926 -157.003041 
L 171.603315 -159.177557 
L 170.807371 -160.092207 
L 170.011426 -159.240911 
L 169.215481 -156.715656 
L 168.419537 -153.204707 
L 167.623592 -149.736166 
L 166.827647 -147.297548 
L 166.031702 -146.509755 
L 165.235758 -147.465774 
L 164.439813 -149.741967 
L 163.643868 -152.538242 
L 162.847924 -154.910164 
L 162.051979 -156.0611 
L 161.256034 -155.614907 
L 160.46009 -153.741929 
L 159.664145 -151.063198 
L 158.8682 -148.390309 
L 158.072256 -146.447954 
L 157.276311 -145.699732 
L 156.480366 -146.300288 
L 155.684422 -148.124705 
L 154.888477 -150.825617 
L 154.092532 -153.911064 
L 153.296588 -156.858479 
L 152.500643 -159.247797 
L 151.704698 -160.853663 
L 150.908753 -161.651725 
L 150.112809 -161.75983 
L 149.316864 -161.377781 
L 148.520919 -160.758825 
L 147.724975 -160.180581 
L 146.92903 -159.867989 
L 146.133085 -159.87562 
L 145.337141 -159.999123 
L 144.541196 -159.790712 
L 143.745251 -158.693999 
L 142.949307 -156.240923 
L 142.153362 -152.228176 
L 141.357417 -146.824463 
L 140.561473 -140.603715 
L 139.765528 -134.493261 
L 138.969583 -129.592346 
L 138.173639 -126.84941 
L 137.377694 -126.705619 
L 136.581749 -128.899773 
L 135.785805 -132.558138 
L 134.98986 -136.507477 
L 134.193915 -139.632863 
L 133.39797 -141.140481 
L 132.602026 -140.705832 
L 131.806081 -138.546758 
L 131.010136 -135.395105 
L 130.214192 -132.290512 
L 129.418247 -130.220822 
L 128.622302 -129.780126 
L 127.826358 -131.019632 
L 127.030413 -133.515904 
L 126.234468 -136.547008 
L 125.438524 -139.276686 
L 124.642579 -140.942236 
L 123.846634 -141.070048 
L 123.05069 -139.652916 
L 122.254745 -137.164133 
L 121.4588 -134.376175 
L 120.662856 -132.096222 
L 119.866911 -130.964019 
L 119.070966 -131.359237 
L 118.275021 -133.363011 
L 117.479077 -136.718442 
L 116.683132 -140.820958 
L 115.887187 -144.83122 
L 115.091243 -147.927987 
L 114.295298 -149.574644 
L 113.499353 -149.649169 
L 112.703409 -148.390115 
L 111.907464 -146.219687 
L 111.111519 -143.557205 
L 110.315575 -140.713675 
L 109.51963 -137.877078 
L 108.723685 -135.135092 
L 107.927741 -132.498433 
L 107.131796 -129.941707 
L 106.335851 -127.476618 
L 105.539907 -125.210903 
L 104.743962 -123.32473 
L 103.948017 -121.964494 
L 103.152073 -121.138678 
L 102.356128 -120.701394 
L 101.560183 -120.41966 
L 100.764238 -120.046355 
L 99.968294 -119.355449 
L 99.172349 -118.185555 
L 98.376404 -116.530996 
L 97.58046 -114.613796 
L 96.784515 -112.841026 
L 95.98857 -111.646595 
L 95.192626 -111.308781 
L 94.396681 -111.839072 
L 93.600736 -112.978225 
L 92.804792 -114.28601 
L 92.008847 -115.297019 
L 91.212902 -115.696341 
L 90.416958 -115.439017 
L 89.621013 -114.745961 
L 88.825068 -113.979092 
L 88.029124 -113.481884 
L 87.233179 -113.480485 
L 86.437234 -114.057892 
L 85.641289 -115.151413 
L 84.845345 -116.553143 
L 84.0494 -117.942519 
L 83.253455 -118.972842 
L 82.457511 -119.387764 
L 81.661566 -119.12028 
L 80.865621 -118.342769 
L 80.069677 -117.456069 
L 79.273732 -117.008849 
L 78.477787 -117.547476 
L 77.681843 -119.422165 
L 76.885898 -122.603062 
L 76.089953 -126.583711 
L 75.294009 -130.456614 
L 74.498064 -133.187339 
L 73.702119 -133.9901 
L 72.906175 -132.624847 
L 72.11023 -129.468083 
L 71.314285 -125.342614 
L 70.51834 -121.241838 
L 69.722396 -118.088756 
L 68.926451 -116.541587 
L 68.130506 -116.828024 
L 67.334562 -118.664658 
L 66.538617 -121.330528 
L 65.742672 -123.885249 
L 64.946728 -125.442623 
L 64.150783 -125.400838 
L 63.354838 -123.569079 
L 62.558894 -120.16153 
L 61.762949 -115.667352 
L 60.967004 -110.691193 
L 60.17106 -105.890818 
L 59.375115 -102.00425 
L 58.57917 -99.813599 
L 57.783226 -99.907638 
L 56.987281 -102.306447 
L 56.191336 -106.287013 
L 55.395392 -110.645391 
L 54.599447 -114.183199 
L 53.803502 -116.091223 
L 53.007557 -116.095414 
L 52.211613 -114.428844 
L 51.415668 -111.785722 
L 50.619723 -109.249682 
L 49.823779 -108.022724 
L 49.027834 -108.960091 
L 48.231889 -112.179841 
L 47.435945 -117.005788 
L 46.64 -122.254643 
z
" style="stroke: #e41a1c; stroke-opacity: 0.3"/>
    </defs>
    <g clip-path="url(#p626db1e5ab)">
     <use xlink:href="#m148400dd60" x="0" y="360" style="fill: #e41a1c; fill-opacity: 0.3; stroke: #e41a1c; stroke-opacity: 0.3"/>
    </g>
   </g>
   <g id="PolyCollection_2">
    <defs>
     <path id="m57e8945e9d" d="M 46.64 -114.36632 
L 46.64 -94.279659 
L 47.435945 -92.712045 
L 48.231889 -91.734567 
L 49.027834 -91.497182 
L 49.823779 -91.995376 
L 50.619723 -93.083973 
L 51.415668 -94.517052 
L 52.211613 -95.986767 
L 53.007557 -97.176419 
L 53.803502 -97.83997 
L 54.599447 -97.877993 
L 55.395392 -97.358346 
L 56.191336 -96.466296 
L 56.987281 -95.428065 
L 57.783226 -94.456292 
L 58.57917 -93.718849 
L 59.375115 -93.312163 
L 60.17106 -93.245776 
L 60.967004 -93.457921 
L 61.762949 -93.857486 
L 62.558894 -94.361499 
L 63.354838 -94.902649 
L 64.150783 -95.41208 
L 64.946728 -95.803331 
L 65.742672 -95.976087 
L 66.538617 -95.839887 
L 67.334562 -95.345601 
L 68.130506 -94.507467 
L 68.926451 -93.401235 
L 69.722396 -92.138036 
L 70.51834 -90.830448 
L 71.314285 -89.572294 
L 72.11023 -88.441837 
L 72.906175 -87.515354 
L 73.702119 -86.865079 
L 74.498064 -86.534102 
L 75.294009 -86.511202 
L 76.089953 -86.73093 
L 76.885898 -87.099961 
L 77.681843 -87.527132 
L 78.477787 -87.931466 
L 79.273732 -88.225222 
L 80.069677 -88.295312 
L 80.865621 -88.008424 
L 81.661566 -87.245465 
L 82.457511 -85.950245 
L 83.253455 -84.170414 
L 84.0494 -82.076819 
L 84.845345 -79.957228 
L 85.641289 -78.179885 
L 86.437234 -77.120465 
L 87.233179 -77.061452 
L 88.029124 -78.099348 
L 88.825068 -80.101944 
L 89.621013 -82.734655 
L 90.416958 -85.543889 
L 91.212902 -88.0697 
L 92.008847 -89.959793 
L 92.804792 -91.058181 
L 93.600736 -91.439826 
L 94.396681 -91.368263 
L 95.192626 -91.179384 
L 95.98857 -91.133977 
L 96.784515 -91.305625 
L 97.58046 -91.559222 
L 98.376404 -91.633618 
L 99.172349 -91.288578 
L 99.968294 -90.440209 
L 100.764238 -89.218523 
L 101.560183 -87.92963 
L 102.356128 -86.95156 
L 103.152073 -86.60705 
L 103.948017 -87.044711 
L 104.743962 -88.15365 
L 105.539907 -89.551204 
L 106.335851 -90.681751 
L 107.131796 -91.014333 
L 107.927741 -90.260011 
L 108.723685 -88.504057 
L 109.51963 -86.189913 
L 110.315575 -83.969606 
L 111.111519 -82.488457 
L 111.907464 -82.180378 
L 112.703409 -83.136525 
L 113.499353 -85.089158 
L 114.295298 -87.517106 
L 115.091243 -89.830171 
L 115.887187 -91.553571 
L 116.683132 -92.441155 
L 117.479077 -92.49266 
L 118.275021 -91.895895 
L 119.070966 -90.931391 
L 119.866911 -89.874926 
L 120.662856 -88.930095 
L 121.4588 -88.213526 
L 122.254745 -87.787978 
L 123.05069 -87.705747 
L 123.846634 -88.016156 
L 124.642579 -88.720474 
L 125.438524 -89.704015 
L 126.234468 -90.69943 
L 127.030413 -91.321792 
L 127.826358 -91.179669 
L 128.622302 -90.027905 
L 129.418247 -87.901188 
L 130.214192 -85.163375 
L 131.010136 -82.433739 
L 131.806081 -80.402956 
L 132.602026 -79.604835 
L 133.39797 -80.233781 
L 134.193915 -82.078525 
L 134.98986 -84.591537 
L 135.785805 -87.062118 
L 136.581749 -88.834306 
L 137.377694 -89.505548 
L 138.173639 -89.045901 
L 138.969583 -87.791641 
L 139.765528 -86.304637 
L 140.561473 -85.14939 
L 141.357417 -84.688706 
L 142.153362 -84.98872 
L 142.949307 -85.853099 
L 143.745251 -86.934036 
L 144.541196 -87.853571 
L 145.337141 -88.302532 
L 146.133085 -88.111604 
L 146.92903 -87.286595 
L 147.724975 -85.988213 
L 148.520919 -84.451326 
L 149.316864 -82.885857 
L 150.112809 -81.426416 
L 150.908753 -80.159525 
L 151.704698 -79.19257 
L 152.500643 -78.696673 
L 153.296588 -78.878806 
L 154.092532 -79.89258 
L 154.888477 -81.736955 
L 155.684422 -84.196395 
L 156.480366 -86.855502 
L 157.276311 -89.191162 
L 158.072256 -90.715462 
L 158.8682 -91.121749 
L 159.664145 -90.381931 
L 160.46009 -88.7576 
L 161.256034 -86.717064 
L 162.051979 -84.786702 
L 162.847924 -83.392799 
L 163.643868 -82.751878 
L 164.439813 -82.839094 
L 165.235758 -83.425079 
L 166.031702 -84.152756 
L 166.827647 -84.634129 
L 167.623592 -84.554018 
L 168.419537 -83.754086 
L 169.215481 -82.262109 
L 170.011426 -80.257573 
L 170.807371 -78.005458 
L 171.603315 -75.799512 
L 172.39926 -73.925094 
L 173.195205 -72.618657 
L 173.991149 -72.009108 
L 174.787094 -72.06663 
L 175.583039 -72.601899 
L 176.378983 -73.325244 
L 177.174928 -73.929022 
L 177.970873 -74.151731 
L 178.766817 -73.817301 
L 179.562762 -72.863208 
L 180.358707 -71.356683 
L 181.154651 -69.483185 
L 181.950596 -67.499263 
L 182.746541 -65.662536 
L 183.542485 -64.164295 
L 184.33843 -63.088129 
L 185.134375 -62.407791 
L 185.93032 -62.024412 
L 186.726264 -61.827442 
L 187.522209 -61.751616 
L 188.318154 -61.804789 
L 189.114098 -62.058679 
L 189.910043 -62.611803 
L 190.705988 -63.538988 
L 191.501932 -64.84124 
L 192.297877 -66.414709 
L 193.093822 -68.060673 
L 193.889766 -69.543356 
L 194.685711 -70.672884 
L 195.481656 -71.372027 
L 196.2776 -71.695725 
L 197.073545 -71.801824 
L 197.86949 -71.893403 
L 198.665434 -72.155166 
L 199.461379 -72.699985 
L 200.257324 -73.539152 
L 201.053269 -74.587358 
L 201.849213 -75.702284 
L 202.645158 -76.743146 
L 203.441103 -77.62409 
L 204.237047 -78.341482 
L 205.032992 -78.964739 
L 205.828937 -79.594145 
L 206.624881 -80.303504 
L 207.420826 -81.093966 
L 208.216771 -81.880448 
L 209.012715 -82.514796 
L 209.80866 -82.833127 
L 210.604605 -82.709518 
L 211.400549 -82.101656 
L 212.196494 -81.076866 
L 212.992439 -79.808052 
L 213.788383 -78.53594 
L 214.584328 -77.508943 
L 215.380273 -76.923501 
L 216.176218 -76.88403 
L 216.972162 -77.387044 
L 217.768107 -78.324418 
L 218.564052 -79.501973 
L 219.359996 -80.672122 
L 220.155941 -81.574978 
L 220.951886 -81.977168 
L 221.74783 -81.701765 
L 222.543775 -80.652411 
L 223.33972 -78.836161 
L 224.135664 -76.378927 
L 224.931609 -73.517425 
L 225.727554 -70.556004 
L 226.523498 -67.794863 
L 227.319443 -65.45376 
L 228.115388 -63.619551 
L 228.911332 -62.236301 
L 229.707277 -61.140782 
L 230.503222 -60.130631 
L 231.299166 -59.041279 
L 232.095111 -57.804891 
L 232.891056 -56.471119 
L 233.687001 -55.18341 
L 234.482945 -54.120675 
L 235.27889 -53.426923 
L 236.074835 -53.155818 
L 236.870779 -53.250969 
L 237.666724 -53.569389 
L 238.462669 -53.939928 
L 239.258613 -54.234614 
L 240.054558 -54.423593 
L 240.850503 -54.588334 
L 241.646447 -54.884175 
L 242.442392 -55.466775 
L 243.238337 -56.416351 
L 244.034281 -57.696145 
L 244.830226 -59.164282 
L 245.626171 -60.631137 
L 246.422115 -61.933801 
L 247.21806 -62.995867 
L 248.014005 -63.852891 
L 248.80995 -64.640738 
L 249.605894 -65.555581 
L 250.401839 -66.797494 
L 251.197784 -68.508146 
L 251.993728 -70.713676 
L 252.789673 -73.288241 
L 253.585618 -75.956143 
L 254.381562 -78.343481 
L 255.177507 -80.073187 
L 255.973452 -80.876756 
L 256.769396 -80.681892 
L 257.565341 -79.638882 
L 258.361286 -78.074877 
L 259.15723 -76.400353 
L 259.953175 -75.010414 
L 260.74912 -74.213745 
L 261.545064 -74.195301 
L 262.341009 -74.99914 
L 263.136954 -76.522434 
L 263.932898 -78.530734 
L 264.728843 -80.709088 
L 265.524788 -82.742436 
L 266.320733 -84.392072 
L 267.116677 -85.531604 
L 267.912622 -86.134262 
L 268.708567 -86.237275 
L 269.504511 -85.915509 
L 270.300456 -85.274231 
L 271.096401 -84.446463 
L 271.892345 -83.577822 
L 272.68829 -82.799151 
L 273.484235 -82.201274 
L 274.280179 -81.821908 
L 275.076124 -81.642275 
L 275.872069 -81.588573 
L 276.668013 -81.543389 
L 277.463958 -81.378211 
L 278.259903 -81.007662 
L 279.055847 -80.444635 
L 279.851792 -79.822321 
L 280.647737 -79.361168 
L 281.443682 -79.290422 
L 282.239626 -79.75868 
L 283.035571 -80.768627 
L 283.831516 -82.157042 
L 284.62746 -83.628041 
L 285.423405 -84.836182 
L 286.21935 -85.497561 
L 287.015294 -85.484672 
L 287.811239 -84.85669 
L 288.607184 -83.808541 
L 289.403128 -82.571559 
L 290.199073 -81.322506 
L 290.995018 -80.138079 
L 291.790962 -78.995637 
L 292.586907 -77.805152 
L 293.382852 -76.46492 
L 294.178796 -74.9343 
L 294.974741 -73.297327 
L 295.770686 -71.775156 
L 296.56663 -70.662471 
L 297.362575 -70.209551 
L 298.15852 -70.508852 
L 298.954465 -71.441476 
L 299.750409 -72.704606 
L 300.546354 -73.905223 
L 301.342299 -74.68366 
L 302.138243 -74.822799 
L 302.934188 -74.305198 
L 303.730133 -73.301612 
L 304.526077 -72.102044 
L 305.322022 -71.020326 
L 306.117967 -70.306703 
L 306.913911 -70.093095 
L 307.709856 -70.381615 
L 308.505801 -71.07343 
L 309.301745 -72.022211 
L 310.09769 -73.087891 
L 310.893635 -74.169362 
L 311.689579 -75.208689 
L 312.485524 -76.173956 
L 313.281469 -77.034626 
L 314.077414 -77.743893 
L 314.873358 -78.239666 
L 315.669303 -78.467125 
L 316.465248 -78.411271 
L 317.261192 -78.117616 
L 318.057137 -77.684529 
L 318.853082 -77.229752 
L 319.649026 -76.850272 
L 320.444971 -76.596192 
L 321.240916 -76.467298 
L 322.03686 -76.42723 
L 322.832805 -76.424992 
L 323.62875 -76.416449 
L 324.424694 -76.381356 
L 325.220639 -76.330126 
L 326.016584 -76.293011 
L 326.812528 -76.289444 
L 327.608473 -76.288145 
L 328.404418 -76.180772 
L 329.200363 -75.792438 
L 329.996307 -74.936727 
L 330.792252 -73.497639 
L 331.588197 -71.502718 
L 332.384141 -69.15388 
L 333.180086 -66.801901 
L 333.976031 -64.871126 
L 334.771975 -63.753214 
L 335.56792 -63.696798 
L 336.363865 -64.72768 
L 337.159809 -66.633213 
L 337.955754 -69.024741 
L 338.751699 -71.458699 
L 339.547643 -73.57033 
L 340.343588 -75.171153 
L 341.139533 -76.280795 
L 341.935477 -77.089318 
L 342.731422 -77.865476 
L 343.527367 -78.839284 
L 344.323311 -80.09693 
L 345.119256 -81.528321 
L 345.915201 -82.854362 
L 346.711146 -83.73126 
L 347.50709 -83.894121 
L 348.303035 -83.279789 
L 349.09898 -82.073547 
L 349.894924 -80.656837 
L 350.690869 -79.477115 
L 351.486814 -78.892153 
L 352.282758 -79.046285 
L 353.078703 -79.81926 
L 353.874648 -80.863018 
L 354.670592 -81.716734 
L 355.466537 -81.966669 
L 356.262482 -81.397776 
L 357.058426 -80.079916 
L 357.854371 -78.352405 
L 358.650316 -76.710491 
L 359.44626 -75.637057 
L 360.242205 -75.442927 
L 361.03815 -76.172266 
L 361.834095 -77.601233 
L 362.630039 -79.322447 
L 363.425984 -80.87899 
L 364.221929 -81.899047 
L 365.017873 -82.188829 
L 365.813818 -81.761723 
L 366.609763 -80.804939 
L 367.405707 -79.602945 
L 368.201652 -78.446632 
L 368.997597 -77.557428 
L 369.793541 -77.045354 
L 370.589486 -76.903537 
L 371.385431 -77.028442 
L 372.181375 -77.252255 
L 372.97732 -77.379505 
L 373.773265 -77.226502 
L 374.569209 -76.663009 
L 375.365154 -75.65132 
L 376.161099 -74.273511 
L 376.957043 -72.735743 
L 377.752988 -71.339159 
L 378.548933 -70.412844 
L 379.344878 -70.218919 
L 380.140822 -70.859041 
L 380.936767 -72.222266 
L 381.732712 -74.004195 
L 382.528656 -75.797453 
L 383.324601 -77.219787 
L 384.120546 -78.030361 
L 384.91649 -78.195644 
L 385.712435 -77.891043 
L 386.50838 -77.444058 
L 387.304324 -77.233402 
L 388.100269 -77.566044 
L 388.896214 -78.569745 
L 389.692158 -80.148801 
L 390.488103 -82.029163 
L 391.284048 -83.867738 
L 392.079992 -85.361515 
L 392.875937 -86.304396 
L 393.671882 -86.589975 
L 394.467827 -86.193635 
L 395.263771 -85.159194 
L 396.059716 -83.58765 
L 396.855661 -81.617936 
L 397.651605 -79.407988 
L 398.44755 -77.135032 
L 399.243495 -75.014083 
L 400.039439 -73.304436 
L 400.835384 -72.272093 
L 401.631329 -72.109808 
L 402.427273 -72.854296 
L 403.223218 -74.345722 
L 404.019163 -76.248943 
L 404.815107 -78.127591 
L 405.611052 -79.548064 
L 406.406997 -80.186187 
L 407.202941 -79.906707 
L 407.998886 -78.788834 
L 408.794831 -77.088117 
L 409.590775 -75.152179 
L 410.38672 -73.327453 
L 411.182665 -71.891604 
L 411.97861 -71.023587 
L 412.774554 -70.797185 
L 413.570499 -71.175765 
L 413.570499 -123.8998 
L 413.570499 -123.8998 
L 412.774554 -123.561248 
L 411.97861 -123.89935 
L 411.182665 -124.944803 
L 410.38672 -126.583818 
L 409.590775 -128.572456 
L 408.794831 -130.580208 
L 407.998886 -132.252037 
L 407.202941 -133.274929 
L 406.406997 -133.440075 
L 405.611052 -132.6947 
L 404.815107 -131.172719 
L 404.019163 -129.186882 
L 403.223218 -127.169776 
L 402.427273 -125.572324 
L 401.631329 -124.753364 
L 400.835384 -124.900927 
L 400.039439 -126.007335 
L 399.243495 -127.893615 
L 398.44755 -130.266385 
L 397.651605 -132.792334 
L 396.855661 -135.173175 
L 396.059716 -137.194072 
L 395.263771 -138.722497 
L 394.467827 -139.665616 
L 393.671882 -139.931325 
L 392.875937 -139.439917 
L 392.079992 -138.187335 
L 391.284048 -136.309269 
L 390.488103 -134.08994 
L 389.692158 -131.901764 
L 388.896214 -130.107415 
L 388.100269 -128.965259 
L 387.304324 -128.559566 
L 386.50838 -128.765399 
L 385.712435 -129.265897 
L 384.91649 -129.638784 
L 384.120546 -129.498086 
L 383.324601 -128.636419 
L 382.528656 -127.102627 
L 381.732712 -125.181616 
L 380.936767 -123.292071 
L 380.140822 -121.850108 
L 379.344878 -121.149423 
L 378.548933 -121.290894 
L 377.752988 -122.173212 
L 376.957043 -123.539307 
L 376.161099 -125.060172 
L 375.365154 -126.428288 
L 374.569209 -127.431558 
L 373.773265 -127.988643 
L 372.97732 -128.143486 
L 372.181375 -128.031218 
L 371.385431 -127.832692 
L 370.589486 -127.730461 
L 369.793541 -127.871429 
L 368.997597 -128.33702 
L 368.201652 -129.121931 
L 367.405707 -130.124422 
L 366.609763 -131.153193 
L 365.813818 -131.957393 
L 365.017873 -132.28368 
L 364.221929 -131.953718 
L 363.425984 -130.94003 
L 362.630039 -129.408131 
L 361.834095 -127.698343 
L 361.03815 -126.242178 
L 360.242205 -125.435167 
L 359.44626 -125.507899 
L 358.650316 -126.441711 
L 357.854371 -127.962874 
L 357.058426 -129.622625 
L 356.262482 -130.939085 
L 355.466537 -131.554498 
L 354.670592 -131.355284 
L 353.874648 -130.512332 
L 353.078703 -129.422137 
L 352.282758 -128.563491 
L 351.486814 -128.319671 
L 350.690869 -128.835412 
L 349.894924 -129.966981 
L 349.09898 -131.343314 
L 348.303035 -132.50727 
L 347.50709 -133.076247 
L 346.711146 -132.862599 
L 345.915201 -131.917268 
L 345.119256 -130.48941 
L 344.323311 -128.920745 
L 343.527367 -127.51233 
L 342.731422 -126.410884 
L 341.935477 -125.557721 
L 341.139533 -124.723002 
L 340.343588 -123.614724 
L 339.547643 -122.018189 
L 338.751699 -119.906226 
L 337.955754 -117.474186 
L 337.159809 -115.089481 
L 336.363865 -113.18193 
L 335.56792 -112.118629 
L 334.771975 -112.102408 
L 333.976031 -113.118906 
L 333.180086 -114.944303 
L 332.384141 -117.211596 
L 331.588197 -119.514069 
L 330.792252 -121.508649 
L 329.996307 -122.983285 
L 329.200363 -123.873416 
L 328.404418 -124.236926 
L 327.608473 -124.207695 
L 326.812528 -123.944883 
L 326.016584 -123.589389 
L 325.220639 -123.236579 
L 324.424694 -122.932248 
L 323.62875 -122.69147 
L 322.832805 -122.527991 
L 322.03686 -122.473919 
L 321.240916 -122.574406 
L 320.444971 -122.858941 
L 319.649026 -123.308598 
L 318.853082 -123.843418 
L 318.057137 -124.341162 
L 317.261192 -124.677876 
L 316.465248 -124.767938 
L 315.669303 -124.584478 
L 314.873358 -124.155481 
L 314.077414 -123.543474 
L 313.281469 -122.819071 
L 312.485524 -122.035421 
L 311.689579 -121.211217 
L 310.893635 -120.332701 
L 310.09769 -119.37943 
L 309.301745 -118.363922 
L 308.505801 -117.363402 
L 307.709856 -116.522606 
L 306.913911 -116.018923 
L 306.117967 -115.998047 
L 305.322022 -116.503351 
L 304.526077 -117.4302 
L 303.730133 -118.532017 
L 302.934188 -119.485047 
L 302.138243 -119.991064 
L 301.342299 -119.878756 
L 300.546354 -119.165661 
L 299.750409 -118.058554 
L 298.954465 -116.891115 
L 298.15852 -116.019425 
L 297.362575 -115.713347 
L 296.56663 -116.084021 
L 295.770686 -117.069627 
L 294.974741 -118.475281 
L 294.178796 -120.046637 
L 293.382852 -121.555191 
L 292.586907 -122.873301 
L 291.790962 -124.009803 
L 290.995018 -125.07969 
L 290.199073 -126.21242 
L 289.403128 -127.447803 
L 288.607184 -128.684544 
L 287.811239 -129.711934 
L 287.015294 -130.298683 
L 286.21935 -130.285016 
L 285.423405 -129.639524 
L 284.62746 -128.472889 
L 283.831516 -127.014745 
L 283.035571 -125.557585 
L 282.239626 -124.376353 
L 281.443682 -123.649892 
L 280.647737 -123.41839 
L 279.851792 -123.593546 
L 279.055847 -124.00877 
L 278.259903 -124.481315 
L 277.463958 -124.865091 
L 276.668013 -125.086396 
L 275.872069 -125.158517 
L 275.076124 -125.16905 
L 274.280179 -125.240007 
L 273.484235 -125.476076 
L 272.68829 -125.926024 
L 271.892345 -126.573448 
L 271.096401 -127.350942 
L 270.300456 -128.156997 
L 269.504511 -128.862108 
L 268.708567 -129.311843 
L 267.912622 -129.345733 
L 267.116677 -128.837428 
L 266.320733 -127.738533 
L 265.524788 -126.102251 
L 264.728843 -124.079073 
L 263.932898 -121.89619 
L 263.136954 -119.833362 
L 262.341009 -118.191226 
L 261.545064 -117.23754 
L 260.74912 -117.13133 
L 259.953175 -117.853759 
L 259.15723 -119.187668 
L 258.361286 -120.765836 
L 257.565341 -122.167524 
L 256.769396 -123.020061 
L 255.973452 -123.070704 
L 255.177507 -122.218903 
L 254.381562 -120.519146 
L 253.585618 -118.165984 
L 252.789673 -115.460528 
L 251.993728 -112.751606 
L 251.197784 -110.355053 
L 250.401839 -108.471326 
L 249.605894 -107.13131 
L 248.80995 -106.196499 
L 248.014005 -105.420185 
L 247.21806 -104.547534 
L 246.422115 -103.412841 
L 245.626171 -101.994596 
L 244.830226 -100.409676 
L 244.034281 -98.855168 
L 243.238337 -97.527384 
L 242.442392 -96.552447 
L 241.646447 -95.951204 
L 240.850503 -95.644037 
L 240.054558 -95.488651 
L 239.258613 -95.337451 
L 238.462669 -95.096906 
L 237.666724 -94.76837 
L 236.870779 -94.452064 
L 236.074835 -94.308174 
L 235.27889 -94.488543 
L 234.482945 -95.068417 
L 233.687001 -96.009627 
L 232.891056 -97.173145 
L 232.095111 -98.376745 
L 231.299166 -99.47314 
L 230.503222 -100.415144 
L 229.707277 -101.280632 
L 228.911332 -102.246845 
L 228.115388 -103.523423 
L 227.319443 -105.269607 
L 226.523498 -107.527152 
L 225.727554 -110.192982 
L 224.931609 -113.038183 
L 224.135664 -115.76244 
L 223.33972 -118.064109 
L 222.543775 -119.706685 
L 221.74783 -120.567139 
L 220.951886 -120.656053 
L 220.155941 -120.104907 
L 219.359996 -119.125847 
L 218.564052 -117.96118 
L 217.768107 -116.843052 
L 216.972162 -115.971643 
L 216.176218 -115.503279 
L 215.380273 -115.53605 
L 214.584328 -116.091423 
L 213.788383 -117.101283 
L 212.992439 -118.41042 
L 212.196494 -119.797886 
L 211.400549 -121.015957 
L 210.604605 -121.843022 
L 209.80866 -122.139617 
L 209.012715 -121.88676 
L 208.216771 -121.186115 
L 207.420826 -120.218321 
L 206.624881 -119.176991 
L 205.828937 -118.205884 
L 205.032992 -117.361575 
L 204.237047 -116.611213 
L 203.441103 -115.863198 
L 202.645158 -115.019448 
L 201.849213 -114.029549 
L 201.053269 -112.923611 
L 200.257324 -111.808143 
L 199.461379 -110.825093 
L 198.665434 -110.089498 
L 197.86949 -109.630687 
L 197.073545 -109.364112 
L 196.2776 -109.111744 
L 195.481656 -108.666659 
L 194.685711 -107.872592 
L 193.889766 -106.681192 
L 193.093822 -105.165765 
L 192.297877 -103.495085 
L 191.501932 -101.883066 
L 190.705988 -100.527656 
L 189.910043 -99.551828 
L 189.114098 -98.967451 
L 188.318154 -98.683908 
L 187.522209 -98.563807 
L 186.726264 -98.499292 
L 185.93032 -98.469913 
L 185.134375 -98.555809 
L 184.33843 -98.903926 
L 183.542485 -99.662671 
L 182.746541 -100.908268 
L 181.950596 -102.589028 
L 181.154651 -104.510878 
L 180.358707 -106.374077 
L 179.562762 -107.851486 
L 178.766817 -108.685005 
L 177.970873 -108.771673 
L 177.174928 -108.209359 
L 176.378983 -107.277429 
L 175.583039 -106.351446 
L 174.787094 -105.789056 
L 173.991149 -105.843883 
L 173.195205 -106.635191 
L 172.39926 -108.150645 
L 171.603315 -110.248688 
L 170.807371 -112.662737 
L 170.011426 -115.038159 
L 169.215481 -117.013975 
L 168.419537 -118.318757 
L 167.623592 -118.837507 
L 166.827647 -118.632558 
L 166.031702 -117.930002 
L 165.235758 -117.082205 
L 164.439813 -116.497506 
L 163.643868 -116.530311 
L 162.847924 -117.359595 
L 162.051979 -118.91157 
L 161.256034 -120.866548 
L 160.46009 -122.746797 
L 159.664145 -124.05135 
L 158.8682 -124.396106 
L 158.072256 -123.620905 
L 157.276311 -121.833262 
L 156.480366 -119.374385 
L 155.684422 -116.717863 
L 154.888477 -114.336445 
L 154.092532 -112.584548 
L 153.296588 -111.635503 
L 152.500643 -111.486251 
L 151.704698 -112.011106 
L 150.908753 -113.028819 
L 150.112809 -114.35402 
L 149.316864 -115.824793 
L 148.520919 -117.309619 
L 147.724975 -118.69416 
L 146.92903 -119.850474 
L 146.133085 -120.611009 
L 145.337141 -120.789658 
L 144.541196 -120.27239 
L 143.745251 -119.133419 
L 142.949307 -117.685541 
L 142.153362 -116.403431 
L 141.357417 -115.742172 
L 140.561473 -115.943331 
L 139.765528 -116.925729 
L 138.969583 -118.300908 
L 138.173639 -119.494335 
L 137.377694 -119.931383 
L 136.581749 -119.240765 
L 135.785805 -117.412769 
L 134.98986 -114.841965 
L 134.193915 -112.216341 
L 133.39797 -110.284217 
L 132.602026 -109.59399 
L 131.806081 -110.31542 
L 131.010136 -112.206871 
L 130.214192 -114.723971 
L 129.418247 -117.213013 
L 128.622302 -119.113401 
L 127.826358 -120.103289 
L 127.030413 -120.150825 
L 126.234468 -119.469028 
L 125.438524 -118.405234 
L 124.642579 -117.315712 
L 123.846634 -116.472571 
L 123.05069 -116.024602 
L 122.254745 -116.004577 
L 121.4588 -116.361731 
L 120.662856 -116.99924 
L 119.866911 -117.799573 
L 119.070966 -118.625582 
L 118.275021 -119.30242 
L 117.479077 -119.608774 
L 116.683132 -119.311766 
L 115.887187 -118.253211 
L 115.091243 -116.450303 
L 114.295298 -114.150017 
L 113.499353 -111.797322 
L 112.703409 -109.921791 
L 111.907464 -108.979256 
L 111.111519 -109.197442 
L 110.315575 -110.479273 
L 109.51963 -112.410747 
L 108.723685 -114.386147 
L 107.927741 -115.808132 
L 107.131796 -116.28082 
L 106.335851 -115.7233 
L 105.539907 -114.376706 
L 104.743962 -112.716536 
L 103.948017 -111.295612 
L 103.152073 -110.555715 
L 102.356128 -110.670008 
L 101.560183 -111.489683 
L 100.764238 -112.631631 
L 99.968294 -113.663937 
L 99.172349 -114.287814 
L 98.376404 -114.4283 
L 97.58046 -114.209873 
L 96.784515 -113.854758 
L 95.98857 -113.563871 
L 95.192626 -113.424848 
L 94.396681 -113.369429 
L 93.600736 -113.188251 
L 92.804792 -112.598353 
L 92.008847 -111.345916 
L 91.212902 -109.31483 
L 90.416958 -106.601248 
L 89.621013 -103.517412 
L 88.825068 -100.515672 
L 88.029124 -98.062497 
L 87.233179 -96.514743 
L 86.437234 -96.041204 
L 85.641289 -96.602697 
L 84.845345 -97.979646 
L 84.0494 -99.831603 
L 83.253455 -101.777593 
L 82.457511 -103.480631 
L 81.661566 -104.709892 
L 80.865621 -105.362283 
L 80.069677 -105.449255 
L 79.273732 -105.068718 
L 78.477787 -104.375769 
L 77.681843 -103.552903 
L 76.885898 -102.776131 
L 76.089953 -102.181966 
L 75.294009 -101.851379 
L 74.498064 -101.821599 
L 73.702119 -102.113107 
L 72.906175 -102.743898 
L 72.11023 -103.713975 
L 71.314285 -104.970734 
L 70.51834 -106.389387 
L 69.722396 -107.795622 
L 68.926451 -109.020362 
L 68.130506 -109.950547 
L 67.334562 -110.549022 
L 66.538617 -110.841567 
L 65.742672 -110.887265 
L 64.946728 -110.751612 
L 64.150783 -110.4927 
L 63.354838 -110.160435 
L 62.558894 -109.803429 
L 61.762949 -109.47508 
L 60.967004 -109.23198 
L 60.17106 -109.128141 
L 59.375115 -109.214985 
L 58.57917 -109.544748 
L 57.783226 -110.158455 
L 56.987281 -111.048306 
L 56.191336 -112.11769 
L 55.395392 -113.181397 
L 54.599447 -114.01769 
L 53.803502 -114.435415 
L 53.007557 -114.321655 
L 52.211613 -113.676194 
L 51.415668 -112.642782 
L 50.619723 -111.51001 
L 49.823779 -110.647543 
L 49.027834 -110.3902 
L 48.231889 -110.933899 
L 47.435945 -112.300962 
L 46.64 -114.36632 
z
" style="stroke: #377eb8; stroke-opacity: 0.3"/>
    </defs>
    <g clip-path="url(#p626db1e5ab)">
     <use xlink:href="#m57e8945e9d" x="0" y="360" style="fill: #377eb8; fill-opacity: 0.3; stroke: #377eb8; stroke-opacity: 0.3"/>
    </g>
   </g>
   <g id="patch_3">
    <path d="M 229.866466 318.04 
L 229.866466 71.732 
L 331.747385 71.732 
L 331.747385 318.04 
z
" clip-path="url(#p626db1e5ab)" style="fill: #808080; opacity: 0.3"/>
   </g>
   <g id="matplotlib.axis_1">
    <g id="xtick_1">
     <g id="line2d_1">
      <defs>
       <path id="mebe72ce6de" d="M 0 0 
L 0 3.5 
" style="stroke: #000000; stroke-width: 0.8"/>
      </defs>
      <g>
       <use xlink:href="#mebe72ce6de" x="87.233179" y="318.04" style="stroke: #000000; stroke-width: 0.8"/>
      </g>
     </g>
     <g id="text_1">
      <!-- 0.0 -->
      <g transform="translate(79.281616 332.638438)scale(0.1 -0.1)">
       <defs>
        <path id="DejaVuSans-30" d="M 2034 4250 
Q 1547 4250 1301 3770 
Q 1056 3291 1056 2328 
Q 1056 1369 1301 889 
Q 1547 409 2034 409 
Q 2525 409 2770 889 
Q 3016 1369 3016 2328 
Q 3016 3291 2770 3770 
Q 2525 4250 2034 4250 
z
M 2034 4750 
Q 2819 4750 3233 4129 
Q 3647 3509 3647 2328 
Q 3647 1150 3233 529 
Q 2819 -91 2034 -91 
Q 1250 -91 836 529 
Q 422 1150 422 2328 
Q 422 3509 836 4129 
Q 1250 4750 2034 4750 
z
" transform="scale(0.015625)"/>
        <path id="DejaVuSans-2e" d="M 684 794 
L 1344 794 
L 1344 0 
L 684 0 
L 684 794 
z
" transform="scale(0.015625)"/>
       </defs>
       <use xlink:href="#DejaVuSans-30"/>
       <use xlink:href="#DejaVuSans-2e" x="63.623047"/>
       <use xlink:href="#DejaVuSans-30" x="95.410156"/>
      </g>
     </g>
    </g>
    <g id="xtick_2">
     <g id="line2d_2">
      <g>
       <use xlink:href="#mebe72ce6de" x="168.737914" y="318.04" style="stroke: #000000; stroke-width: 0.8"/>
      </g>
     </g>
     <g id="text_2">
      <!-- 0.2 -->
      <g transform="translate(160.786352 332.638438)scale(0.1 -0.1)">
       <defs>
        <path id="DejaVuSans-32" d="M 1228 531 
L 3431 531 
L 3431 0 
L 469 0 
L 469 531 
Q 828 903 1448 1529 
Q 2069 2156 2228 2338 
Q 2531 2678 2651 2914 
Q 2772 3150 2772 3378 
Q 2772 3750 2511 3984 
Q 2250 4219 1831 4219 
Q 1534 4219 1204 4116 
Q 875 4013 500 3803 
L 500 4441 
Q 881 4594 1212 4672 
Q 1544 4750 1819 4750 
Q 2544 4750 2975 4387 
Q 3406 4025 3406 3419 
Q 3406 3131 3298 2873 
Q 3191 2616 2906 2266 
Q 2828 2175 2409 1742 
Q 1991 1309 1228 531 
z
" transform="scale(0.015625)"/>
       </defs>
       <use xlink:href="#DejaVuSans-30"/>
       <use xlink:href="#DejaVuSans-2e" x="63.623047"/>
       <use xlink:href="#DejaVuSans-32" x="95.410156"/>
      </g>
     </g>
    </g>
    <g id="xtick_3">
     <g id="line2d_3">
      <g>
       <use xlink:href="#mebe72ce6de" x="250.24265" y="318.04" style="stroke: #000000; stroke-width: 0.8"/>
      </g>
     </g>
     <g id="text_3">
      <!-- 0.4 -->
      <g transform="translate(242.291087 332.638438)scale(0.1 -0.1)">
       <defs>
        <path id="DejaVuSans-34" d="M 2419 4116 
L 825 1625 
L 2419 1625 
L 2419 4116 
z
M 2253 4666 
L 3047 4666 
L 3047 1625 
L 3713 1625 
L 3713 1100 
L 3047 1100 
L 3047 0 
L 2419 0 
L 2419 1100 
L 313 1100 
L 313 1709 
L 2253 4666 
z
" transform="scale(0.015625)"/>
       </defs>
       <use xlink:href="#DejaVuSans-30"/>
       <use xlink:href="#DejaVuSans-2e" x="63.623047"/>
       <use xlink:href="#DejaVuSans-34" x="95.410156"/>
      </g>
     </g>
    </g>
    <g id="xtick_4">
     <g id="line2d_4">
      <g>
       <use xlink:href="#mebe72ce6de" x="331.747385" y="318.04" style="stroke: #000000; stroke-width: 0.8"/>
      </g>
     </g>
     <g id="text_4">
      <!-- 0.6 -->
      <g transform="translate(323.795823 332.638438)scale(0.1 -0.1)">
       <defs>
        <path id="DejaVuSans-36" d="M 2113 2584 
Q 1688 2584 1439 2293 
Q 1191 2003 1191 1497 
Q 1191 994 1439 701 
Q 1688 409 2113 409 
Q 2538 409 2786 701 
Q 3034 994 3034 1497 
Q 3034 2003 2786 2293 
Q 2538 2584 2113 2584 
z
M 3366 4563 
L 3366 3988 
Q 3128 4100 2886 4159 
Q 2644 4219 2406 4219 
Q 1781 4219 1451 3797 
Q 1122 3375 1075 2522 
Q 1259 2794 1537 2939 
Q 1816 3084 2150 3084 
Q 2853 3084 3261 2657 
Q 3669 2231 3669 1497 
Q 3669 778 3244 343 
Q 2819 -91 2113 -91 
Q 1303 -91 875 529 
Q 447 1150 447 2328 
Q 447 3434 972 4092 
Q 1497 4750 2381 4750 
Q 2619 4750 2861 4703 
Q 3103 4656 3366 4563 
z
" transform="scale(0.015625)"/>
       </defs>
       <use xlink:href="#DejaVuSans-30"/>
       <use xlink:href="#DejaVuSans-2e" x="63.623047"/>
       <use xlink:href="#DejaVuSans-36" x="95.410156"/>
      </g>
     </g>
    </g>
    <g id="xtick_5">
     <g id="line2d_5">
      <g>
       <use xlink:href="#mebe72ce6de" x="413.252121" y="318.04" style="stroke: #000000; stroke-width: 0.8"/>
      </g>
     </g>
     <g id="text_5">
      <!-- 0.8 -->
      <g transform="translate(405.300559 332.638438)scale(0.1 -0.1)">
       <defs>
        <path id="DejaVuSans-38" d="M 2034 2216 
Q 1584 2216 1326 1975 
Q 1069 1734 1069 1313 
Q 1069 891 1326 650 
Q 1584 409 2034 409 
Q 2484 409 2743 651 
Q 3003 894 3003 1313 
Q 3003 1734 2745 1975 
Q 2488 2216 2034 2216 
z
M 1403 2484 
Q 997 2584 770 2862 
Q 544 3141 544 3541 
Q 544 4100 942 4425 
Q 1341 4750 2034 4750 
Q 2731 4750 3128 4425 
Q 3525 4100 3525 3541 
Q 3525 3141 3298 2862 
Q 3072 2584 2669 2484 
Q 3125 2378 3379 2068 
Q 3634 1759 3634 1313 
Q 3634 634 3220 271 
Q 2806 -91 2034 -91 
Q 1263 -91 848 271 
Q 434 634 434 1313 
Q 434 1759 690 2068 
Q 947 2378 1403 2484 
z
M 1172 3481 
Q 1172 3119 1398 2916 
Q 1625 2713 2034 2713 
Q 2441 2713 2670 2916 
Q 2900 3119 2900 3481 
Q 2900 3844 2670 4047 
Q 2441 4250 2034 4250 
Q 1625 4250 1398 4047 
Q 1172 3844 1172 3481 
z
" transform="scale(0.015625)"/>
       </defs>
       <use xlink:href="#DejaVuSans-30"/>
       <use xlink:href="#DejaVuSans-2e" x="63.623047"/>
       <use xlink:href="#DejaVuSans-38" x="95.410156"/>
      </g>
     </g>
    </g>
    <g id="text_6">
     <!-- seconds -->
     <g transform="translate(209.667749 346.316563)scale(0.1 -0.1)">
      <defs>
       <path id="DejaVuSans-73" d="M 2834 3397 
L 2834 2853 
Q 2591 2978 2328 3040 
Q 2066 3103 1784 3103 
Q 1356 3103 1142 2972 
Q 928 2841 928 2578 
Q 928 2378 1081 2264 
Q 1234 2150 1697 2047 
L 1894 2003 
Q 2506 1872 2764 1633 
Q 3022 1394 3022 966 
Q 3022 478 2636 193 
Q 2250 -91 1575 -91 
Q 1294 -91 989 -36 
Q 684 19 347 128 
L 347 722 
Q 666 556 975 473 
Q 1284 391 1588 391 
Q 1994 391 2212 530 
Q 2431 669 2431 922 
Q 2431 1156 2273 1281 
Q 2116 1406 1581 1522 
L 1381 1569 
Q 847 1681 609 1914 
Q 372 2147 372 2553 
Q 372 3047 722 3315 
Q 1072 3584 1716 3584 
Q 2034 3584 2315 3537 
Q 2597 3491 2834 3397 
z
" transform="scale(0.015625)"/>
       <path id="DejaVuSans-65" d="M 3597 1894 
L 3597 1613 
L 953 1613 
Q 991 1019 1311 708 
Q 1631 397 2203 397 
Q 2534 397 2845 478 
Q 3156 559 3463 722 
L 3463 178 
Q 3153 47 2828 -22 
Q 2503 -91 2169 -91 
Q 1331 -91 842 396 
Q 353 884 353 1716 
Q 353 2575 817 3079 
Q 1281 3584 2069 3584 
Q 2775 3584 3186 3129 
Q 3597 2675 3597 1894 
z
M 3022 2063 
Q 3016 2534 2758 2815 
Q 2500 3097 2075 3097 
Q 1594 3097 1305 2825 
Q 1016 2553 972 2059 
L 3022 2063 
z
" transform="scale(0.015625)"/>
       <path id="DejaVuSans-63" d="M 3122 3366 
L 3122 2828 
Q 2878 2963 2633 3030 
Q 2388 3097 2138 3097 
Q 1578 3097 1268 2742 
Q 959 2388 959 1747 
Q 959 1106 1268 751 
Q 1578 397 2138 397 
Q 2388 397 2633 464 
Q 2878 531 3122 666 
L 3122 134 
Q 2881 22 2623 -34 
Q 2366 -91 2075 -91 
Q 1284 -91 818 406 
Q 353 903 353 1747 
Q 353 2603 823 3093 
Q 1294 3584 2113 3584 
Q 2378 3584 2631 3529 
Q 2884 3475 3122 3366 
z
" transform="scale(0.015625)"/>
       <path id="DejaVuSans-6f" d="M 1959 3097 
Q 1497 3097 1228 2736 
Q 959 2375 959 1747 
Q 959 1119 1226 758 
Q 1494 397 1959 397 
Q 2419 397 2687 759 
Q 2956 1122 2956 1747 
Q 2956 2369 2687 2733 
Q 2419 3097 1959 3097 
z
M 1959 3584 
Q 2709 3584 3137 3096 
Q 3566 2609 3566 1747 
Q 3566 888 3137 398 
Q 2709 -91 1959 -91 
Q 1206 -91 779 398 
Q 353 888 353 1747 
Q 353 2609 779 3096 
Q 1206 3584 1959 3584 
z
" transform="scale(0.015625)"/>
       <path id="DejaVuSans-6e" d="M 3513 2113 
L 3513 0 
L 2938 0 
L 2938 2094 
Q 2938 2591 2744 2837 
Q 2550 3084 2163 3084 
Q 1697 3084 1428 2787 
Q 1159 2491 1159 1978 
L 1159 0 
L 581 0 
L 581 3500 
L 1159 3500 
L 1159 2956 
Q 1366 3272 1645 3428 
Q 1925 3584 2291 3584 
Q 2894 3584 3203 3211 
Q 3513 2838 3513 2113 
z
" transform="scale(0.015625)"/>
       <path id="DejaVuSans-64" d="M 2906 2969 
L 2906 4863 
L 3481 4863 
L 3481 0 
L 2906 0 
L 2906 525 
Q 2725 213 2448 61 
Q 2172 -91 1784 -91 
Q 1150 -91 751 415 
Q 353 922 353 1747 
Q 353 2572 751 3078 
Q 1150 3584 1784 3584 
Q 2172 3584 2448 3432 
Q 2725 3281 2906 2969 
z
M 947 1747 
Q 947 1113 1208 752 
Q 1469 391 1925 391 
Q 2381 391 2643 752 
Q 2906 1113 2906 1747 
Q 2906 2381 2643 2742 
Q 2381 3103 1925 3103 
Q 1469 3103 1208 2742 
Q 947 2381 947 1747 
z
" transform="scale(0.015625)"/>
      </defs>
      <use xlink:href="#DejaVuSans-73"/>
      <use xlink:href="#DejaVuSans-65" x="52.099609"/>
      <use xlink:href="#DejaVuSans-63" x="113.623047"/>
      <use xlink:href="#DejaVuSans-6f" x="168.603516"/>
      <use xlink:href="#DejaVuSans-6e" x="229.785156"/>
      <use xlink:href="#DejaVuSans-64" x="293.164062"/>
      <use xlink:href="#DejaVuSans-73" x="356.640625"/>
     </g>
    </g>
   </g>
   <g id="matplotlib.axis_2">
    <g id="ytick_1">
     <g id="line2d_6">
      <defs>
       <path id="m5c4445b536" d="M 0 0 
L -3.5 0 
" style="stroke: #000000; stroke-width: 0.8"/>
      </defs>
      <g>
       <use xlink:href="#m5c4445b536" x="46.64" y="300.663901" style="stroke: #000000; stroke-width: 0.8"/>
      </g>
     </g>
     <g id="text_7">
      <!-- 1 -->
      <g transform="translate(24.897813 304.46312)scale(0.1 -0.1)">
       <defs>
        <path id="DejaVuSans-2212" d="M 678 2272 
L 4684 2272 
L 4684 1741 
L 678 1741 
L 678 2272 
z
" transform="scale(0.015625)"/>
        <path id="DejaVuSans-31" d="M 794 531 
L 1825 531 
L 1825 4091 
L 703 3866 
L 703 4441 
L 1819 4666 
L 2450 4666 
L 2450 531 
L 3481 531 
L 3481 0 
L 794 0 
L 794 531 
z
" transform="scale(0.015625)"/>
       </defs>
       <use xlink:href="#DejaVuSans-2212"/>
       <use xlink:href="#DejaVuSans-31" x="83.789062"/>
      </g>
     </g>
    </g>
    <g id="ytick_2">
     <g id="line2d_7">
      <g>
       <use xlink:href="#m5c4445b536" x="46.64" y="260.947635" style="stroke: #000000; stroke-width: 0.8"/>
      </g>
     </g>
     <g id="text_8">
      <!-- 0 -->
      <g transform="translate(33.2775 264.746854)scale(0.1 -0.1)">
       <use xlink:href="#DejaVuSans-30"/>
      </g>
     </g>
    </g>
    <g id="ytick_3">
     <g id="line2d_8">
      <g>
       <use xlink:href="#m5c4445b536" x="46.64" y="221.23137" style="stroke: #000000; stroke-width: 0.8"/>
      </g>
     </g>
     <g id="text_9">
      <!-- 1 -->
      <g transform="translate(33.2775 225.030588)scale(0.1 -0.1)">
       <use xlink:href="#DejaVuSans-31"/>
      </g>
     </g>
    </g>
    <g id="ytick_4">
     <g id="line2d_9">
      <g>
       <use xlink:href="#m5c4445b536" x="46.64" y="181.515104" style="stroke: #000000; stroke-width: 0.8"/>
      </g>
     </g>
     <g id="text_10">
      <!-- 2 -->
      <g transform="translate(33.2775 185.314323)scale(0.1 -0.1)">
       <use xlink:href="#DejaVuSans-32"/>
      </g>
     </g>
    </g>
    <g id="ytick_5">
     <g id="line2d_10">
      <g>
       <use xlink:href="#m5c4445b536" x="46.64" y="141.798838" style="stroke: #000000; stroke-width: 0.8"/>
      </g>
     </g>
     <g id="text_11">
      <!-- 3 -->
      <g transform="translate(33.2775 145.598057)scale(0.1 -0.1)">
       <defs>
        <path id="DejaVuSans-33" d="M 2597 2516 
Q 3050 2419 3304 2112 
Q 3559 1806 3559 1356 
Q 3559 666 3084 287 
Q 2609 -91 1734 -91 
Q 1441 -91 1130 -33 
Q 819 25 488 141 
L 488 750 
Q 750 597 1062 519 
Q 1375 441 1716 441 
Q 2309 441 2620 675 
Q 2931 909 2931 1356 
Q 2931 1769 2642 2001 
Q 2353 2234 1838 2234 
L 1294 2234 
L 1294 2753 
L 1863 2753 
Q 2328 2753 2575 2939 
Q 2822 3125 2822 3475 
Q 2822 3834 2567 4026 
Q 2313 4219 1838 4219 
Q 1578 4219 1281 4162 
Q 984 4106 628 3988 
L 628 4550 
Q 988 4650 1302 4700 
Q 1616 4750 1894 4750 
Q 2613 4750 3031 4423 
Q 3450 4097 3450 3541 
Q 3450 3153 3228 2886 
Q 3006 2619 2597 2516 
z
" transform="scale(0.015625)"/>
       </defs>
       <use xlink:href="#DejaVuSans-33"/>
      </g>
     </g>
    </g>
    <g id="ytick_6">
     <g id="line2d_11">
      <g>
       <use xlink:href="#m5c4445b536" x="46.64" y="102.082573" style="stroke: #000000; stroke-width: 0.8"/>
      </g>
     </g>
     <g id="text_12">
      <!-- 4 -->
      <g transform="translate(33.2775 105.881792)scale(0.1 -0.1)">
       <use xlink:href="#DejaVuSans-34"/>
      </g>
     </g>
    </g>
    <g id="text_13">
     <!-- V -->
     <g transform="translate(18.818125 201.487562)rotate(-90)scale(0.1 -0.1)">
      <defs>
       <path id="DejaVuSans-b5" d="M 544 -1331 
L 544 3500 
L 1119 3500 
L 1119 1325 
Q 1119 872 1334 640 
Q 1550 409 1972 409 
Q 2434 409 2667 671 
Q 2900 934 2900 1459 
L 2900 3500 
L 3475 3500 
L 3475 806 
Q 3475 619 3529 530 
Q 3584 441 3700 441 
Q 3728 441 3778 458 
Q 3828 475 3916 513 
L 3916 50 
Q 3788 -22 3673 -56 
Q 3559 -91 3450 -91 
Q 3234 -91 3106 31 
Q 2978 153 2931 403 
Q 2775 156 2548 32 
Q 2322 -91 2016 -91 
Q 1697 -91 1473 31 
Q 1250 153 1119 397 
L 1119 -1331 
L 544 -1331 
z
" transform="scale(0.015625)"/>
       <path id="DejaVuSans-56" d="M 1831 0 
L 50 4666 
L 709 4666 
L 2188 738 
L 3669 4666 
L 4325 4666 
L 2547 0 
L 1831 0 
z
" transform="scale(0.015625)"/>
      </defs>
      <use xlink:href="#DejaVuSans-b5"/>
      <use xlink:href="#DejaVuSans-56" x="63.623047"/>
     </g>
    </g>
   </g>
   <g id="line2d_12">
    <path d="M 46.64 259.913865 
L 48.231889 269.734059 
L 49.027834 272.62785 
L 49.823779 273.106659 
L 50.619723 271.344763 
L 52.211613 265.061205 
L 53.007557 263.025347 
L 53.803502 262.889654 
L 54.599447 264.758829 
L 55.395392 268.104049 
L 56.191336 271.971021 
L 56.987281 275.283196 
L 57.783226 277.135057 
L 58.57917 276.995599 
L 59.375115 274.788597 
L 60.17106 270.860237 
L 62.558894 256.036799 
L 63.354838 252.75486 
L 64.150783 251.256508 
L 64.946728 251.63273 
L 65.742672 253.563973 
L 67.334562 259.088358 
L 68.130506 260.812945 
L 68.926451 260.829376 
L 69.722396 258.884427 
L 70.51834 255.2708 
L 72.11023 246.434209 
L 72.906175 243.311032 
L 73.702119 242.129212 
L 74.498064 243.112567 
L 75.294009 245.937995 
L 77.681843 257.366402 
L 78.477787 259.588429 
L 79.273732 260.504714 
L 80.069677 260.392062 
L 81.661566 259.233321 
L 82.457511 259.224247 
L 83.253455 259.961874 
L 84.0494 261.387837 
L 85.641289 265.083009 
L 86.437234 266.595839 
L 87.233179 267.523174 
L 88.029124 267.81716 
L 88.825068 267.624321 
L 89.621013 267.233204 
L 90.416958 266.982589 
L 91.212902 267.154536 
L 92.008847 267.882385 
L 92.804792 269.101507 
L 94.396681 271.88872 
L 95.192626 272.716671 
L 95.98857 272.788528 
L 96.784515 272.051431 
L 97.58046 270.676642 
L 99.172349 267.452097 
L 99.968294 266.345805 
L 100.764238 265.848661 
L 101.560183 265.896143 
L 103.152073 266.491143 
L 103.948017 266.339591 
L 104.743962 265.554032 
L 105.539907 264.080393 
L 106.335851 262.01607 
L 107.927741 256.852717 
L 111.111519 245.859964 
L 111.907464 243.47875 
L 112.703409 241.653715 
L 113.499353 240.726278 
L 114.295298 241.004809 
L 115.091243 242.647576 
L 115.887187 245.565712 
L 118.275021 257.140313 
L 119.070966 259.659173 
L 119.866911 260.600395 
L 120.662856 259.887466 
L 121.4588 257.853656 
L 123.05069 252.701312 
L 123.846634 251.232982 
L 124.642579 251.288367 
L 125.438524 252.944828 
L 127.826358 261.776445 
L 128.622302 263.131394 
L 129.418247 262.682549 
L 130.214192 260.533465 
L 131.806081 254.075775 
L 132.602026 251.855377 
L 133.39797 251.474038 
L 134.193915 253.200862 
L 134.98986 256.657093 
L 136.581749 264.719596 
L 137.377694 266.934521 
L 138.173639 266.791331 
L 138.969583 264.141536 
L 139.765528 259.46403 
L 141.357417 247.923108 
L 142.153362 243.097265 
L 142.949307 239.771135 
L 143.745251 238.02454 
L 144.541196 237.52608 
L 146.133085 237.99136 
L 146.92903 237.951189 
L 147.724975 237.432519 
L 150.112809 234.903305 
L 150.908753 234.87425 
L 151.704698 235.730541 
L 152.500643 237.567325 
L 153.296588 240.309542 
L 155.684422 250.642094 
L 156.480366 253.058864 
L 157.276311 254.097313 
L 158.072256 253.522767 
L 158.8682 251.465773 
L 160.46009 245.301329 
L 161.256034 242.927514 
L 162.051979 242.051189 
L 162.847924 242.960655 
L 163.643868 245.387311 
L 165.235758 251.443431 
L 166.031702 253.06317 
L 166.827647 252.847748 
L 167.623592 250.821622 
L 170.011426 241.614592 
L 170.807371 240.60223 
L 171.603315 241.320753 
L 172.39926 243.359264 
L 173.195205 245.900487 
L 173.991149 248.029938 
L 174.787094 249.061146 
L 175.583039 248.758618 
L 176.378983 247.384616 
L 177.174928 245.564509 
L 177.970873 244.031981 
L 178.766817 243.355083 
L 179.562762 243.742282 
L 180.358707 244.988008 
L 181.154651 246.560416 
L 181.950596 247.784273 
L 182.746541 248.045847 
L 183.542485 246.951413 
L 184.33843 244.400262 
L 185.134375 240.569629 
L 186.726264 230.683517 
L 188.318154 221.041852 
L 189.114098 217.377057 
L 189.910043 214.880768 
L 190.705988 213.708217 
L 191.501932 213.877011 
L 192.297877 215.256473 
L 193.093822 217.578492 
L 196.2776 228.95344 
L 197.073545 230.913606 
L 197.86949 232.367725 
L 198.665434 233.436056 
L 201.849213 236.957299 
L 203.441103 239.098607 
L 204.237047 239.940422 
L 205.032992 240.35789 
L 205.828937 240.171964 
L 206.624881 239.300795 
L 207.420826 237.81223 
L 209.80866 232.454154 
L 210.604605 231.490209 
L 211.400549 231.187498 
L 212.992439 231.459323 
L 213.788383 231.017954 
L 214.584328 229.512043 
L 215.380273 226.698695 
L 216.176218 222.696321 
L 217.768107 213.315791 
L 218.564052 209.479919 
L 219.359996 207.13273 
L 220.155941 206.605337 
L 220.951886 207.832949 
L 221.74783 210.386219 
L 223.33972 216.676742 
L 224.135664 218.959069 
L 224.931609 219.937084 
L 225.727554 219.376592 
L 226.523498 217.327817 
L 227.319443 214.102239 
L 229.707277 202.915356 
L 230.503222 200.568476 
L 231.299166 199.416617 
L 232.095111 199.284711 
L 232.891056 199.667093 
L 233.687001 199.85754 
L 234.482945 199.168517 
L 235.27889 197.178774 
L 236.074835 193.924788 
L 237.666724 186.216323 
L 238.462669 183.75968 
L 239.258613 183.403904 
L 240.054558 185.419319 
L 240.850503 189.375298 
L 242.442392 198.47347 
L 243.238337 200.786255 
L 244.034281 200.182873 
L 244.830226 196.420625 
L 245.626171 190.045344 
L 247.21806 174.498886 
L 248.014005 168.248594 
L 248.80995 164.498457 
L 249.605894 163.640792 
L 250.401839 165.419546 
L 251.197784 169.055314 
L 252.789673 177.548402 
L 253.585618 180.360019 
L 254.381562 181.324962 
L 255.177507 180.281363 
L 255.973452 177.470481 
L 257.565341 168.931326 
L 258.361286 164.640905 
L 259.15723 161.114996 
L 259.953175 158.589781 
L 260.74912 156.949283 
L 262.341009 154.491827 
L 263.136954 152.560138 
L 263.932898 149.67943 
L 265.524788 141.703591 
L 266.320733 137.749104 
L 267.116677 134.79365 
L 267.912622 133.381521 
L 268.708567 133.671916 
L 269.504511 135.376872 
L 271.096401 140.279075 
L 271.892345 141.97252 
L 272.68829 142.550998 
L 273.484235 142.069682 
L 275.076124 139.955125 
L 275.872069 139.673219 
L 276.668013 140.580778 
L 277.463958 142.771263 
L 278.259903 145.97869 
L 279.851792 153.316476 
L 280.647737 156.385355 
L 281.443682 158.640922 
L 282.239626 160.071185 
L 283.035571 160.836834 
L 283.831516 161.151382 
L 284.62746 161.166917 
L 285.423405 160.914753 
L 286.21935 160.322843 
L 287.015294 159.297717 
L 287.811239 157.832145 
L 289.403128 154.416633 
L 290.199073 153.290977 
L 290.995018 153.182078 
L 291.790962 154.402337 
L 292.586907 156.979027 
L 294.178796 164.671661 
L 294.974741 168.429995 
L 295.770686 171.151673 
L 296.56663 172.327963 
L 297.362575 171.796425 
L 298.15852 169.776903 
L 300.546354 160.854544 
L 301.342299 159.109847 
L 302.138243 158.616301 
L 302.934188 159.321075 
L 303.730133 160.921473 
L 305.322022 165.042704 
L 306.117967 166.7808 
L 306.913911 168.035358 
L 307.709856 168.84686 
L 309.301745 170.031112 
L 310.09769 170.982628 
L 310.893635 172.483624 
L 311.689579 174.614352 
L 313.281469 180.33988 
L 314.873358 186.322587 
L 315.669303 188.778406 
L 316.465248 190.754211 
L 318.853082 195.581586 
L 319.649026 197.781907 
L 320.444971 200.590613 
L 322.832805 210.614887 
L 323.62875 213.014344 
L 324.424694 214.213351 
L 325.220639 214.045268 
L 326.016584 212.617661 
L 326.812528 210.275707 
L 328.404418 204.743645 
L 329.200363 202.355002 
L 329.996307 200.463871 
L 330.792252 199.011025 
L 333.180086 195.369977 
L 334.771975 192.252168 
L 337.159809 186.774969 
L 339.547643 181.188096 
L 340.343588 179.845153 
L 341.139533 179.260571 
L 341.935477 179.777816 
L 342.731422 181.625976 
L 343.527367 184.82123 
L 344.323311 189.123396 
L 346.711146 203.607964 
L 347.50709 207.235647 
L 348.303035 209.780383 
L 349.09898 211.272815 
L 349.894924 211.893849 
L 350.690869 211.876923 
L 351.486814 211.41963 
L 352.282758 210.635838 
L 353.078703 209.558745 
L 353.874648 208.180886 
L 354.670592 206.502335 
L 356.262482 202.426686 
L 358.650316 195.52207 
L 362.630039 183.640609 
L 363.425984 182.085269 
L 364.221929 181.228219 
L 365.017873 181.133894 
L 365.813818 181.730774 
L 366.609763 182.824159 
L 368.201652 185.393989 
L 368.997597 186.309873 
L 369.793541 186.660003 
L 370.589486 186.247578 
L 371.385431 184.904714 
L 372.181375 182.514374 
L 372.97732 179.068686 
L 376.161099 162.165495 
L 376.957043 160.821751 
L 377.752988 162.070974 
L 378.548933 166.012121 
L 379.344878 172.126021 
L 380.936767 186.161629 
L 381.732712 191.22696 
L 382.528656 193.497928 
L 383.324601 192.650235 
L 384.120546 189.154863 
L 385.712435 179.101033 
L 386.50838 175.416349 
L 387.304324 174.041168 
L 388.100269 175.254529 
L 388.896214 178.663046 
L 391.284048 192.808223 
L 392.079992 196.034374 
L 392.875937 197.933217 
L 393.671882 198.65202 
L 394.467827 198.466386 
L 395.263771 197.612647 
L 396.059716 196.200014 
L 396.855661 194.230351 
L 397.651605 191.698594 
L 400.039439 182.591199 
L 400.835384 180.288277 
L 401.631329 178.87141 
L 402.427273 178.272719 
L 403.223218 178.075678 
L 404.019163 177.613868 
L 404.815107 176.182017 
L 405.611052 173.287259 
L 406.406997 168.848216 
L 408.794831 152.073132 
L 409.590775 148.355378 
L 410.38672 146.781207 
L 411.182665 147.492229 
L 411.97861 150.189149 
L 412.774554 154.254247 
L 413.570499 158.934087 
L 413.570499 158.934087 
" clip-path="url(#p626db1e5ab)" style="fill: none; stroke: #e41a1c; stroke-width: 1.5; stroke-linecap: square"/>
   </g>
   <g id="line2d_13">
    <path d="M 46.64 255.67701 
L 47.435945 257.493496 
L 48.231889 258.665767 
L 49.027834 259.056309 
L 49.823779 258.678541 
L 50.619723 257.703009 
L 52.211613 255.168519 
L 53.007557 254.250963 
L 53.803502 253.862308 
L 54.599447 254.052158 
L 55.395392 254.730128 
L 57.783226 257.692626 
L 58.57917 258.368202 
L 59.375115 258.736426 
L 60.17106 258.813041 
L 60.967004 258.655049 
L 62.558894 257.917536 
L 64.150783 257.04761 
L 64.946728 256.722528 
L 65.742672 256.568324 
L 66.538617 256.659273 
L 67.334562 257.052689 
L 68.130506 257.770993 
L 68.926451 258.789202 
L 70.51834 261.390082 
L 72.11023 263.922094 
L 72.906175 264.870374 
L 73.702119 265.510907 
L 74.498064 265.82215 
L 75.294009 265.81871 
L 76.089953 265.543552 
L 77.681843 264.459983 
L 79.273732 263.35303 
L 80.069677 263.127716 
L 80.865621 263.314647 
L 81.661566 264.022321 
L 82.457511 265.284562 
L 83.253455 267.025996 
L 84.845345 271.031563 
L 85.641289 272.608709 
L 86.437234 273.419165 
L 87.233179 273.211902 
L 88.029124 271.919078 
L 88.825068 269.691192 
L 91.212902 261.307735 
L 92.008847 259.347146 
L 92.804792 258.171733 
L 93.600736 257.685961 
L 94.396681 257.631154 
L 95.192626 257.697884 
L 95.98857 257.651076 
L 98.376404 256.969041 
L 99.172349 257.211804 
L 99.968294 257.947927 
L 102.356128 261.189216 
L 103.152073 261.418617 
L 103.948017 260.829839 
L 104.743962 259.564907 
L 105.539907 258.036045 
L 106.335851 256.797475 
L 107.131796 256.352424 
L 107.927741 256.965929 
L 108.723685 258.554898 
L 110.315575 262.77556 
L 111.111519 264.157051 
L 111.907464 264.420183 
L 112.703409 263.470842 
L 113.499353 261.55676 
L 115.091243 256.859763 
L 115.887187 255.096609 
L 116.683132 254.12354 
L 117.479077 253.949283 
L 118.275021 254.400842 
L 119.866911 256.16275 
L 120.662856 257.035333 
L 121.4588 257.712372 
L 122.254745 258.103723 
L 123.05069 258.134826 
L 123.846634 257.755637 
L 124.642579 256.981907 
L 126.234468 254.915771 
L 127.030413 254.263692 
L 127.826358 254.358521 
L 128.622302 255.429347 
L 129.418247 257.4429 
L 131.010136 262.679695 
L 131.806081 264.640812 
L 132.602026 265.400587 
L 133.39797 264.741001 
L 134.193915 262.852567 
L 135.785805 257.762556 
L 136.581749 255.962465 
L 137.377694 255.281534 
L 138.173639 255.729882 
L 138.969583 256.953725 
L 139.765528 258.384817 
L 140.561473 259.45364 
L 141.357417 259.784561 
L 142.153362 259.303924 
L 142.949307 258.23068 
L 143.745251 256.966272 
L 144.541196 255.93702 
L 145.337141 255.453905 
L 146.133085 255.638694 
L 146.92903 256.431466 
L 147.724975 257.658814 
L 150.908753 263.405828 
L 151.704698 264.398162 
L 152.500643 264.908538 
L 153.296588 264.742846 
L 154.092532 263.761436 
L 154.888477 261.9633 
L 157.276311 254.487788 
L 158.072256 252.831816 
L 158.8682 252.241073 
L 159.664145 252.783359 
L 160.46009 254.247801 
L 162.051979 258.150864 
L 162.847924 259.623803 
L 163.643868 260.358905 
L 164.439813 260.3317 
L 165.235758 259.746358 
L 166.031702 258.958621 
L 166.827647 258.366657 
L 167.623592 258.304238 
L 168.419537 258.963579 
L 169.215481 260.361958 
L 170.011426 262.352134 
L 172.39926 268.96213 
L 173.195205 270.373076 
L 173.991149 271.073505 
L 174.787094 271.072157 
L 175.583039 270.523328 
L 177.174928 268.930809 
L 177.970873 268.538298 
L 178.766817 268.748847 
L 179.562762 269.642653 
L 180.358707 271.13462 
L 182.746541 276.714598 
L 183.542485 278.086517 
L 184.33843 279.003972 
L 185.134375 279.5182 
L 185.93032 279.752837 
L 187.522209 279.842289 
L 188.318154 279.755651 
L 189.114098 279.486935 
L 189.910043 278.918184 
L 190.705988 277.966678 
L 191.501932 276.637847 
L 193.889766 271.887726 
L 194.685711 270.727262 
L 195.481656 269.980657 
L 196.2776 269.596266 
L 197.86949 269.237955 
L 198.665434 268.877668 
L 199.461379 268.237461 
L 200.257324 267.326353 
L 202.645158 264.118703 
L 204.237047 262.523653 
L 205.828937 261.099985 
L 209.012715 257.799222 
L 209.80866 257.513628 
L 210.604605 257.72373 
L 211.400549 258.441194 
L 212.196494 259.562624 
L 213.788383 262.181388 
L 214.584328 263.199817 
L 215.380273 263.770224 
L 216.176218 263.806346 
L 216.972162 263.320656 
L 217.768107 262.416265 
L 220.155941 259.160058 
L 220.951886 258.683389 
L 221.74783 258.865548 
L 222.543775 259.820452 
L 223.33972 261.549865 
L 224.135664 263.929317 
L 226.523498 272.338992 
L 227.319443 274.638316 
L 228.115388 276.428513 
L 228.911332 277.758427 
L 232.095111 281.909182 
L 233.687001 284.403482 
L 234.482945 285.405454 
L 235.27889 286.042267 
L 236.074835 286.268004 
L 236.870779 286.148484 
L 239.258613 285.213968 
L 240.850503 284.883815 
L 241.646447 284.582311 
L 242.442392 283.990389 
L 243.238337 283.028132 
L 244.830226 280.213021 
L 246.422115 277.326679 
L 247.21806 276.228299 
L 249.605894 273.656554 
L 250.401839 272.36559 
L 251.197784 270.568401 
L 251.993728 268.267359 
L 254.381562 260.568686 
L 255.177507 258.853955 
L 255.973452 258.02627 
L 256.769396 258.149023 
L 257.565341 259.096797 
L 259.953175 263.567913 
L 260.74912 264.327462 
L 261.545064 264.28358 
L 262.341009 263.404817 
L 263.136954 261.822102 
L 266.320733 253.934697 
L 267.116677 252.815484 
L 267.912622 252.260002 
L 268.708567 252.225441 
L 269.504511 252.611191 
L 271.096401 254.101298 
L 272.68829 255.637412 
L 273.484235 256.161325 
L 274.280179 256.469043 
L 275.872069 256.626455 
L 276.668013 256.685107 
L 277.463958 256.878349 
L 278.259903 257.255511 
L 279.851792 258.292066 
L 280.647737 258.610221 
L 281.443682 258.529843 
L 282.239626 257.932483 
L 283.035571 256.836894 
L 285.423405 252.762147 
L 286.21935 252.108711 
L 287.015294 252.108322 
L 287.811239 252.715688 
L 288.607184 253.753458 
L 291.790962 258.49728 
L 293.382852 260.989944 
L 295.770686 265.577609 
L 296.56663 266.626754 
L 297.362575 267.038551 
L 298.15852 266.735862 
L 298.954465 265.833705 
L 300.546354 263.464558 
L 301.342299 262.718792 
L 302.138243 262.593069 
L 302.934188 263.104878 
L 304.526077 265.233878 
L 305.322022 266.238162 
L 306.117967 266.847625 
L 306.913911 266.943991 
L 307.709856 266.547889 
L 308.505801 265.781584 
L 313.281469 260.073151 
L 314.077414 259.356317 
L 314.873358 258.802426 
L 315.669303 258.474198 
L 316.465248 258.410395 
L 317.261192 258.602254 
L 318.853082 259.463415 
L 320.444971 260.272433 
L 321.240916 260.479148 
L 322.832805 260.523509 
L 325.220639 260.216647 
L 327.608473 259.75208 
L 328.404418 259.791151 
L 329.200363 260.167073 
L 329.996307 261.039994 
L 330.792252 262.496856 
L 331.588197 264.491607 
L 333.180086 269.126898 
L 333.976031 271.004984 
L 334.771975 272.072189 
L 335.56792 272.092287 
L 336.363865 271.045195 
L 337.159809 269.138653 
L 339.547643 262.20574 
L 340.343588 260.607062 
L 341.139533 259.498102 
L 342.731422 257.86182 
L 343.527367 256.824193 
L 346.711146 251.70307 
L 347.50709 251.514816 
L 348.303035 252.106471 
L 349.09898 253.29157 
L 349.894924 254.688091 
L 350.690869 255.843737 
L 351.486814 256.394088 
L 352.282758 256.195112 
L 353.078703 255.379301 
L 353.874648 254.312325 
L 354.670592 253.463991 
L 355.466537 253.239416 
L 356.262482 253.83157 
L 357.058426 255.148729 
L 358.650316 258.423899 
L 359.44626 259.427522 
L 360.242205 259.560953 
L 361.03815 258.792778 
L 361.834095 257.350212 
L 363.425984 254.09049 
L 364.221929 253.073618 
L 365.017873 252.763745 
L 365.813818 253.140442 
L 366.609763 254.020934 
L 368.201652 256.215719 
L 368.997597 257.052776 
L 369.793541 257.541609 
L 370.589486 257.683001 
L 372.97732 257.238504 
L 373.773265 257.392427 
L 374.569209 257.952717 
L 375.365154 258.960196 
L 377.752988 263.243814 
L 378.548933 264.148131 
L 379.344878 264.315829 
L 380.140822 263.645425 
L 380.936767 262.242831 
L 382.528656 258.54996 
L 383.324601 257.071897 
L 384.120546 256.235776 
L 384.91649 256.082786 
L 385.712435 256.42153 
L 386.50838 256.895272 
L 387.304324 257.103516 
L 388.100269 256.734348 
L 388.896214 255.66142 
L 389.692158 253.974718 
L 391.284048 249.911497 
L 392.079992 248.225575 
L 392.875937 247.127844 
L 393.671882 246.73935 
L 394.467827 247.070375 
L 395.263771 248.059154 
L 396.059716 249.609139 
L 396.855661 251.604445 
L 399.243495 258.546151 
L 400.039439 260.344114 
L 400.835384 261.41349 
L 401.631329 261.568414 
L 402.427273 260.78669 
L 403.223218 259.242251 
L 404.815107 255.349845 
L 405.611052 253.878618 
L 406.406997 253.186869 
L 407.202941 253.409182 
L 407.998886 254.479565 
L 408.794831 256.165838 
L 410.38672 260.044364 
L 411.182665 261.581797 
L 411.97861 262.538531 
L 412.774554 262.820784 
L 413.570499 262.462217 
L 413.570499 262.462217 
" clip-path="url(#p626db1e5ab)" style="fill: none; stroke: #377eb8; stroke-width: 1.5; stroke-linecap: square"/>
   </g>
   <g id="line2d_14">
    <path d="M 87.233179 318.04 
L 87.233179 71.732 
" clip-path="url(#p626db1e5ab)" style="fill: none; stroke: #000000; stroke-width: 0.5; stroke-linecap: square"/>
   </g>
   <g id="line2d_15">
    <path d="M 46.64 260.947635 
L 413.570499 260.947635 
" clip-path="url(#p626db1e5ab)" style="fill: none; stroke: #000000; stroke-width: 0.5; stroke-linecap: square"/>
   </g>
   <g id="patch_4">
    <path d="M 46.64 318.04 
L 46.64 71.732 
" style="fill: none; stroke: #000000; stroke-width: 0.8; stroke-linejoin: miter; stroke-linecap: square"/>
   </g>
   <g id="patch_5">
    <path d="M 413.570499 318.04 
L 413.570499 71.732 
" style="fill: none; stroke: #000000; stroke-width: 0.8; stroke-linejoin: miter; stroke-linecap: square"/>
   </g>
   <g id="patch_6">
    <path d="M 46.64 318.04 
L 413.570499 318.04 
" style="fill: none; stroke: #000000; stroke-width: 0.8; stroke-linejoin: miter; stroke-linecap: square"/>
   </g>
   <g id="patch_7">
    <path d="M 46.64 71.732 
L 413.570499 71.732 
" style="fill: none; stroke: #000000; stroke-width: 0.8; stroke-linejoin: miter; stroke-linecap: square"/>
   </g>
   <g id="text_14">
    <!-- Cz -->
    <g transform="translate(222.766499 65.732)scale(0.12 -0.12)">
     <defs>
      <path id="DejaVuSans-43" d="M 4122 4306 
L 4122 3641 
Q 3803 3938 3442 4084 
Q 3081 4231 2675 4231 
Q 1875 4231 1450 3742 
Q 1025 3253 1025 2328 
Q 1025 1406 1450 917 
Q 1875 428 2675 428 
Q 3081 428 3442 575 
Q 3803 722 4122 1019 
L 4122 359 
Q 3791 134 3420 21 
Q 3050 -91 2638 -91 
Q 1578 -91 968 557 
Q 359 1206 359 2328 
Q 359 3453 968 4101 
Q 1578 4750 2638 4750 
Q 3056 4750 3426 4639 
Q 3797 4528 4122 4306 
z
" transform="scale(0.015625)"/>
      <path id="DejaVuSans-7a" d="M 353 3500 
L 3084 3500 
L 3084 2975 
L 922 459 
L 3084 459 
L 3084 0 
L 275 0 
L 275 525 
L 2438 3041 
L 353 3041 
L 353 3500 
z
" transform="scale(0.015625)"/>
     </defs>
     <use xlink:href="#DejaVuSans-43"/>
     <use xlink:href="#DejaVuSans-7a" x="69.824219"/>
    </g>
   </g>
   <g id="legend_1">
    <g id="patch_8">
     <path d="M 99.877906 48.500845 
L 360.332593 48.500845 
Q 362.332593 48.500845 362.332593 46.500845 
L 362.332593 18.144595 
Q 362.332593 16.144595 360.332593 16.144595 
L 99.877906 16.144595 
Q 97.877906 16.144595 97.877906 18.144595 
L 97.877906 46.500845 
Q 97.877906 48.500845 99.877906 48.500845 
z
" style="fill: #ffffff; opacity: 0.8; stroke: #cccccc; stroke-linejoin: miter"/>
    </g>
    <g id="text_15">
     <!-- Average of Session 42 -->
     <g transform="translate(174.545874 27.743033)scale(0.1 -0.1)">
      <defs>
       <path id="DejaVuSans-41" d="M 2188 4044 
L 1331 1722 
L 3047 1722 
L 2188 4044 
z
M 1831 4666 
L 2547 4666 
L 4325 0 
L 3669 0 
L 3244 1197 
L 1141 1197 
L 716 0 
L 50 0 
L 1831 4666 
z
" transform="scale(0.015625)"/>
       <path id="DejaVuSans-76" d="M 191 3500 
L 800 3500 
L 1894 563 
L 2988 3500 
L 3597 3500 
L 2284 0 
L 1503 0 
L 191 3500 
z
" transform="scale(0.015625)"/>
       <path id="DejaVuSans-72" d="M 2631 2963 
Q 2534 3019 2420 3045 
Q 2306 3072 2169 3072 
Q 1681 3072 1420 2755 
Q 1159 2438 1159 1844 
L 1159 0 
L 581 0 
L 581 3500 
L 1159 3500 
L 1159 2956 
Q 1341 3275 1631 3429 
Q 1922 3584 2338 3584 
Q 2397 3584 2469 3576 
Q 2541 3569 2628 3553 
L 2631 2963 
z
" transform="scale(0.015625)"/>
       <path id="DejaVuSans-61" d="M 2194 1759 
Q 1497 1759 1228 1600 
Q 959 1441 959 1056 
Q 959 750 1161 570 
Q 1363 391 1709 391 
Q 2188 391 2477 730 
Q 2766 1069 2766 1631 
L 2766 1759 
L 2194 1759 
z
M 3341 1997 
L 3341 0 
L 2766 0 
L 2766 531 
Q 2569 213 2275 61 
Q 1981 -91 1556 -91 
Q 1019 -91 701 211 
Q 384 513 384 1019 
Q 384 1609 779 1909 
Q 1175 2209 1959 2209 
L 2766 2209 
L 2766 2266 
Q 2766 2663 2505 2880 
Q 2244 3097 1772 3097 
Q 1472 3097 1187 3025 
Q 903 2953 641 2809 
L 641 3341 
Q 956 3463 1253 3523 
Q 1550 3584 1831 3584 
Q 2591 3584 2966 3190 
Q 3341 2797 3341 1997 
z
" transform="scale(0.015625)"/>
       <path id="DejaVuSans-67" d="M 2906 1791 
Q 2906 2416 2648 2759 
Q 2391 3103 1925 3103 
Q 1463 3103 1205 2759 
Q 947 2416 947 1791 
Q 947 1169 1205 825 
Q 1463 481 1925 481 
Q 2391 481 2648 825 
Q 2906 1169 2906 1791 
z
M 3481 434 
Q 3481 -459 3084 -895 
Q 2688 -1331 1869 -1331 
Q 1566 -1331 1297 -1286 
Q 1028 -1241 775 -1147 
L 775 -588 
Q 1028 -725 1275 -790 
Q 1522 -856 1778 -856 
Q 2344 -856 2625 -561 
Q 2906 -266 2906 331 
L 2906 616 
Q 2728 306 2450 153 
Q 2172 0 1784 0 
Q 1141 0 747 490 
Q 353 981 353 1791 
Q 353 2603 747 3093 
Q 1141 3584 1784 3584 
Q 2172 3584 2450 3431 
Q 2728 3278 2906 2969 
L 2906 3500 
L 3481 3500 
L 3481 434 
z
" transform="scale(0.015625)"/>
       <path id="DejaVuSans-20" transform="scale(0.015625)"/>
       <path id="DejaVuSans-66" d="M 2375 4863 
L 2375 4384 
L 1825 4384 
Q 1516 4384 1395 4259 
Q 1275 4134 1275 3809 
L 1275 3500 
L 2222 3500 
L 2222 3053 
L 1275 3053 
L 1275 0 
L 697 0 
L 697 3053 
L 147 3053 
L 147 3500 
L 697 3500 
L 697 3744 
Q 697 4328 969 4595 
Q 1241 4863 1831 4863 
L 2375 4863 
z
" transform="scale(0.015625)"/>
       <path id="DejaVuSans-53" d="M 3425 4513 
L 3425 3897 
Q 3066 4069 2747 4153 
Q 2428 4238 2131 4238 
Q 1616 4238 1336 4038 
Q 1056 3838 1056 3469 
Q 1056 3159 1242 3001 
Q 1428 2844 1947 2747 
L 2328 2669 
Q 3034 2534 3370 2195 
Q 3706 1856 3706 1288 
Q 3706 609 3251 259 
Q 2797 -91 1919 -91 
Q 1588 -91 1214 -16 
Q 841 59 441 206 
L 441 856 
Q 825 641 1194 531 
Q 1563 422 1919 422 
Q 2459 422 2753 634 
Q 3047 847 3047 1241 
Q 3047 1584 2836 1778 
Q 2625 1972 2144 2069 
L 1759 2144 
Q 1053 2284 737 2584 
Q 422 2884 422 3419 
Q 422 4038 858 4394 
Q 1294 4750 2059 4750 
Q 2388 4750 2728 4690 
Q 3069 4631 3425 4513 
z
" transform="scale(0.015625)"/>
       <path id="DejaVuSans-69" d="M 603 3500 
L 1178 3500 
L 1178 0 
L 603 0 
L 603 3500 
z
M 603 4863 
L 1178 4863 
L 1178 4134 
L 603 4134 
L 603 4863 
z
" transform="scale(0.015625)"/>
      </defs>
      <use xlink:href="#DejaVuSans-41"/>
      <use xlink:href="#DejaVuSans-76" x="62.533203"/>
      <use xlink:href="#DejaVuSans-65" x="121.712891"/>
      <use xlink:href="#DejaVuSans-72" x="183.236328"/>
      <use xlink:href="#DejaVuSans-61" x="224.349609"/>
      <use xlink:href="#DejaVuSans-67" x="285.628906"/>
      <use xlink:href="#DejaVuSans-65" x="349.105469"/>
      <use xlink:href="#DejaVuSans-20" x="410.628906"/>
      <use xlink:href="#DejaVuSans-6f" x="442.416016"/>
      <use xlink:href="#DejaVuSans-66" x="503.597656"/>
      <use xlink:href="#DejaVuSans-20" x="538.802734"/>
      <use xlink:href="#DejaVuSans-53" x="570.589844"/>
      <use xlink:href="#DejaVuSans-65" x="634.066406"/>
      <use xlink:href="#DejaVuSans-73" x="695.589844"/>
      <use xlink:href="#DejaVuSans-73" x="747.689453"/>
      <use xlink:href="#DejaVuSans-69" x="799.789062"/>
      <use xlink:href="#DejaVuSans-6f" x="827.572266"/>
      <use xlink:href="#DejaVuSans-6e" x="888.753906"/>
      <use xlink:href="#DejaVuSans-20" x="952.132812"/>
      <use xlink:href="#DejaVuSans-34" x="983.919922"/>
      <use xlink:href="#DejaVuSans-32" x="1047.542969"/>
     </g>
    </g>
    <g id="line2d_16">
     <path d="M 101.877906 38.921158 
L 111.877906 38.921158 
L 121.877906 38.921158 
" style="fill: none; stroke: #e41a1c; stroke-width: 1.5; stroke-linecap: square"/>
    </g>
    <g id="text_16">
     <!-- Target (n=302) -->
     <g transform="translate(129.877906 42.421158)scale(0.1 -0.1)">
      <defs>
       <path id="DejaVuSans-54" d="M -19 4666 
L 3928 4666 
L 3928 4134 
L 2272 4134 
L 2272 0 
L 1638 0 
L 1638 4134 
L -19 4134 
L -19 4666 
z
" transform="scale(0.015625)"/>
       <path id="DejaVuSans-74" d="M 1172 4494 
L 1172 3500 
L 2356 3500 
L 2356 3053 
L 1172 3053 
L 1172 1153 
Q 1172 725 1289 603 
Q 1406 481 1766 481 
L 2356 481 
L 2356 0 
L 1766 0 
Q 1100 0 847 248 
Q 594 497 594 1153 
L 594 3053 
L 172 3053 
L 172 3500 
L 594 3500 
L 594 4494 
L 1172 4494 
z
" transform="scale(0.015625)"/>
       <path id="DejaVuSans-28" d="M 1984 4856 
Q 1566 4138 1362 3434 
Q 1159 2731 1159 2009 
Q 1159 1288 1364 580 
Q 1569 -128 1984 -844 
L 1484 -844 
Q 1016 -109 783 600 
Q 550 1309 550 2009 
Q 550 2706 781 3412 
Q 1013 4119 1484 4856 
L 1984 4856 
z
" transform="scale(0.015625)"/>
       <path id="DejaVuSans-3d" d="M 678 2906 
L 4684 2906 
L 4684 2381 
L 678 2381 
L 678 2906 
z
M 678 1631 
L 4684 1631 
L 4684 1100 
L 678 1100 
L 678 1631 
z
" transform="scale(0.015625)"/>
       <path id="DejaVuSans-29" d="M 513 4856 
L 1013 4856 
Q 1481 4119 1714 3412 
Q 1947 2706 1947 2009 
Q 1947 1309 1714 600 
Q 1481 -109 1013 -844 
L 513 -844 
Q 928 -128 1133 580 
Q 1338 1288 1338 2009 
Q 1338 2731 1133 3434 
Q 928 4138 513 4856 
z
" transform="scale(0.015625)"/>
      </defs>
      <use xlink:href="#DejaVuSans-54"/>
      <use xlink:href="#DejaVuSans-61" x="44.583984"/>
      <use xlink:href="#DejaVuSans-72" x="105.863281"/>
      <use xlink:href="#DejaVuSans-67" x="145.226562"/>
      <use xlink:href="#DejaVuSans-65" x="208.703125"/>
      <use xlink:href="#DejaVuSans-74" x="270.226562"/>
      <use xlink:href="#DejaVuSans-20" x="309.435547"/>
      <use xlink:href="#DejaVuSans-28" x="341.222656"/>
      <use xlink:href="#DejaVuSans-6e" x="380.236328"/>
      <use xlink:href="#DejaVuSans-3d" x="443.615234"/>
      <use xlink:href="#DejaVuSans-33" x="527.404297"/>
      <use xlink:href="#DejaVuSans-30" x="591.027344"/>
      <use xlink:href="#DejaVuSans-32" x="654.650391"/>
      <use xlink:href="#DejaVuSans-29" x="718.273438"/>
     </g>
    </g>
    <g id="line2d_17">
     <path d="M 225.607593 38.921158 
L 235.607593 38.921158 
L 245.607593 38.921158 
" style="fill: none; stroke: #377eb8; stroke-width: 1.5; stroke-linecap: square"/>
    </g>
    <g id="text_17">
     <!-- Non-Target (n=1531) -->
     <g transform="translate(253.607593 42.421158)scale(0.1 -0.1)">
      <defs>
       <path id="DejaVuSans-4e" d="M 628 4666 
L 1478 4666 
L 3547 763 
L 3547 4666 
L 4159 4666 
L 4159 0 
L 3309 0 
L 1241 3903 
L 1241 0 
L 628 0 
L 628 4666 
z
" transform="scale(0.015625)"/>
       <path id="DejaVuSans-2d" d="M 313 2009 
L 1997 2009 
L 1997 1497 
L 313 1497 
L 313 2009 
z
" transform="scale(0.015625)"/>
       <path id="DejaVuSans-35" d="M 691 4666 
L 3169 4666 
L 3169 4134 
L 1269 4134 
L 1269 2991 
Q 1406 3038 1543 3061 
Q 1681 3084 1819 3084 
Q 2600 3084 3056 2656 
Q 3513 2228 3513 1497 
Q 3513 744 3044 326 
Q 2575 -91 1722 -91 
Q 1428 -91 1123 -41 
Q 819 9 494 109 
L 494 744 
Q 775 591 1075 516 
Q 1375 441 1709 441 
Q 2250 441 2565 725 
Q 2881 1009 2881 1497 
Q 2881 1984 2565 2268 
Q 2250 2553 1709 2553 
Q 1456 2553 1204 2497 
Q 953 2441 691 2322 
L 691 4666 
z
" transform="scale(0.015625)"/>
      </defs>
      <use xlink:href="#DejaVuSans-4e"/>
      <use xlink:href="#DejaVuSans-6f" x="74.804688"/>
      <use xlink:href="#DejaVuSans-6e" x="135.986328"/>
      <use xlink:href="#DejaVuSans-2d" x="199.365234"/>
      <use xlink:href="#DejaVuSans-54" x="226.324219"/>
      <use xlink:href="#DejaVuSans-61" x="270.908203"/>
      <use xlink:href="#DejaVuSans-72" x="332.1875"/>
      <use xlink:href="#DejaVuSans-67" x="371.550781"/>
      <use xlink:href="#DejaVuSans-65" x="435.027344"/>
      <use xlink:href="#DejaVuSans-74" x="496.550781"/>
      <use xlink:href="#DejaVuSans-20" x="535.759766"/>
      <use xlink:href="#DejaVuSans-28" x="567.546875"/>
      <use xlink:href="#DejaVuSans-6e" x="606.560547"/>
      <use xlink:href="#DejaVuSans-3d" x="669.939453"/>
      <use xlink:href="#DejaVuSans-31" x="753.728516"/>
      <use xlink:href="#DejaVuSans-35" x="817.351562"/>
      <use xlink:href="#DejaVuSans-33" x="880.974609"/>
      <use xlink:href="#DejaVuSans-31" x="944.597656"/>
      <use xlink:href="#DejaVuSans-29" x="1008.220703"/>
     </g>
    </g>
   </g>
  </g>
 </g>
 <defs>
  <clipPath id="p626db1e5ab">
   <rect x="46.64" y="71.732" width="366.930499" height="246.308"/>
  </clipPath>
 </defs>
</svg>
