<?xml version="1.0" encoding="utf-8" standalone="no"?>
<!DOCTYPE svg PUBLIC "-//W3C//DTD SVG 1.1//EN"
  "http://www.w3.org/Graphics/SVG/1.1/DTD/svg11.dtd">
<svg xmlns:xlink="http://www.w3.org/1999/xlink" width="432pt" height="360pt" viewBox="0 0 432 360" xmlns="http://www.w3.org/2000/svg" version="1.1">
 <metadata>
  <rdf:RDF xmlns:dc="http://purl.org/dc/elements/1.1/" xmlns:cc="http://creativecommons.org/ns#" xmlns:rdf="http://www.w3.org/1999/02/22-rdf-syntax-ns#">
   <cc:Work>
    <dc:type rdf:resource="http://purl.org/dc/dcmitype/StillImage"/>
    <dc:date>2022-05-19T11:51:53.739734</dc:date>
    <dc:format>image/svg+xml</dc:format>
    <dc:creator>
     <cc:Agent>
      <dc:title>Matplotlib v3.5.1, https://matplotlib.org/</dc:title>
     </cc:Agent>
    </dc:creator>
   </cc:Work>
  </rdf:RDF>
 </metadata>
 <defs>
  <style type="text/css">*{stroke-linejoin: round; stroke-linecap: butt}</style>
 </defs>
 <g id="figure_1">
  <g id="patch_1">
   <path d="M 0 360 
L 432 360 
L 432 0 
L 0 0 
L 0 360 
z
" style="fill: none"/>
  </g>
  <g id="axes_1">
   <g id="patch_2">
    <path d="M 46.64 318.04 
L 413.570499 318.04 
L 413.570499 71.732 
L 46.64 71.732 
L 46.64 318.04 
z
" style="fill: none"/>
   </g>
   <g id="PolyCollection_1">
    <defs>
     <path id="m25dd180d88" d="M 46.64 -158.944568 
L 46.64 -109.125853 
L 47.435945 -111.82462 
L 48.231889 -113.42014 
L 49.027834 -114.085546 
L 49.823779 -114.312327 
L 50.619723 -114.687493 
L 51.415668 -115.650146 
L 52.211613 -117.305163 
L 53.007557 -119.381677 
L 53.803502 -121.381239 
L 54.599447 -122.844598 
L 55.395392 -123.559116 
L 56.191336 -123.569704 
L 56.987281 -123.037223 
L 57.783226 -122.106989 
L 58.57917 -120.89341 
L 59.375115 -119.536316 
L 60.17106 -118.215515 
L 60.967004 -117.106939 
L 61.762949 -116.350544 
L 62.558894 -116.059195 
L 63.354838 -116.334602 
L 64.150783 -117.233461 
L 64.946728 -118.65133 
L 65.742672 -120.186315 
L 66.538617 -121.127186 
L 67.334562 -120.655709 
L 68.130506 -118.198239 
L 68.926451 -113.740232 
L 69.722396 -107.921917 
L 70.51834 -101.863823 
L 71.314285 -96.814509 
L 72.11023 -93.760188 
L 72.906175 -93.108293 
L 73.702119 -94.541464 
L 74.498064 -97.126948 
L 75.294009 -99.67108 
L 76.089953 -101.161421 
L 76.885898 -101.086985 
L 77.681843 -99.523323 
L 78.477787 -97.023347 
L 79.273732 -94.430983 
L 80.069677 -92.648635 
L 80.865621 -92.305188 
L 81.661566 -93.435908 
L 82.457511 -95.418413 
L 83.253455 -97.234814 
L 84.0494 -97.911186 
L 84.845345 -96.919705 
L 85.641289 -94.378057 
L 86.437234 -90.978138 
L 87.233179 -87.684874 
L 88.029124 -85.341918 
L 88.825068 -84.357907 
L 89.621013 -84.590277 
L 90.416958 -85.43392 
L 91.212902 -86.038287 
L 92.008847 -85.560546 
L 92.804792 -83.398182 
L 93.600736 -79.380199 
L 94.396681 -73.875834 
L 95.192626 -67.730964 
L 95.98857 -62.006494 
L 96.784515 -57.64978 
L 97.58046 -55.258105 
L 98.376404 -54.986206 
L 99.172349 -56.569908 
L 99.968294 -59.429383 
L 100.764238 -62.827965 
L 101.560183 -66.054753 
L 102.356128 -68.579572 
L 103.152073 -70.137901 
L 103.948017 -70.743085 
L 104.743962 -70.644368 
L 105.539907 -70.241338 
L 106.335851 -69.967259 
L 107.131796 -70.173842 
L 107.927741 -71.05455 
L 108.723685 -72.615045 
L 109.51963 -74.672476 
L 110.315575 -76.880781 
L 111.111519 -78.803495 
L 111.907464 -80.029208 
L 112.703409 -80.274898 
L 113.499353 -79.425041 
L 114.295298 -77.513384 
L 115.091243 -74.694586 
L 115.887187 -71.226563 
L 116.683132 -67.437819 
L 117.479077 -63.663783 
L 118.275021 -60.187867 
L 119.070966 -57.230556 
L 119.866911 -54.976567 
L 120.662856 -53.586108 
L 121.4588 -53.155818 
L 122.254745 -53.654876 
L 123.05069 -54.894445 
L 123.846634 -56.561478 
L 124.642579 -58.29527 
L 125.438524 -59.765261 
L 126.234468 -60.732775 
L 127.030413 -61.098667 
L 127.826358 -60.920781 
L 128.622302 -60.369787 
L 129.418247 -59.627051 
L 130.214192 -58.78712 
L 131.010136 -57.842907 
L 131.806081 -56.774891 
L 132.602026 -55.66888 
L 133.39797 -54.742511 
L 134.193915 -54.246506 
L 134.98986 -54.339442 
L 135.785805 -55.052229 
L 136.581749 -56.350495 
L 137.377694 -58.201707 
L 138.173639 -60.574578 
L 138.969583 -63.404413 
L 139.765528 -66.595684 
L 140.561473 -70.055498 
L 141.357417 -73.681421 
L 142.153362 -77.278626 
L 142.949307 -80.497082 
L 143.745251 -82.896562 
L 144.541196 -84.12489 
L 145.337141 -84.078015 
L 146.133085 -82.941458 
L 146.92903 -81.131162 
L 147.724975 -79.201367 
L 148.520919 -77.74921 
L 149.316864 -77.299412 
L 150.112809 -78.150144 
L 150.908753 -80.216084 
L 151.704698 -82.964885 
L 152.500643 -85.524105 
L 153.296588 -86.945578 
L 154.092532 -86.534944 
L 154.888477 -84.124809 
L 155.684422 -80.18386 
L 156.480366 -75.706127 
L 157.276311 -71.90805 
L 158.072256 -69.843763 
L 158.8682 -70.084304 
L 159.664145 -72.574835 
L 160.46009 -76.706268 
L 161.256034 -81.551642 
L 162.051979 -86.159259 
L 162.847924 -89.790621 
L 163.643868 -92.043128 
L 164.439813 -92.865615 
L 165.235758 -92.49981 
L 166.031702 -91.354281 
L 166.827647 -89.818279 
L 167.623592 -88.091245 
L 168.419537 -86.137733 
L 169.215481 -83.800753 
L 170.011426 -80.990139 
L 170.807371 -77.808926 
L 171.603315 -74.532733 
L 172.39926 -71.476885 
L 173.195205 -68.864543 
L 173.991149 -66.775743 
L 174.787094 -65.173769 
L 175.583039 -63.96758 
L 176.378983 -63.074691 
L 177.174928 -62.453789 
L 177.970873 -62.092009 
L 178.766817 -61.975548 
L 179.562762 -62.094056 
L 180.358707 -62.467365 
L 181.154651 -63.111997 
L 181.950596 -63.937625 
L 182.746541 -64.697677 
L 183.542485 -65.098458 
L 184.33843 -65.021833 
L 185.134375 -64.691674 
L 185.93032 -64.612772 
L 186.726264 -65.276486 
L 187.522209 -66.837249 
L 188.318154 -68.982939 
L 189.114098 -71.040978 
L 189.910043 -72.212781 
L 190.705988 -71.838111 
L 191.501932 -69.646054 
L 192.297877 -65.933126 
L 193.093822 -61.56546 
L 193.889766 -57.733405 
L 194.685711 -55.517113 
L 195.481656 -55.456578 
L 196.2776 -57.338919 
L 197.073545 -60.303953 
L 197.86949 -63.204896 
L 198.665434 -65.041661 
L 199.461379 -65.280145 
L 200.257324 -63.966271 
L 201.053269 -61.64558 
L 201.849213 -59.15482 
L 202.645158 -57.373122 
L 203.441103 -57.014335 
L 204.237047 -58.504503 
L 205.032992 -61.941565 
L 205.828937 -67.113798 
L 206.624881 -73.56034 
L 207.420826 -80.66395 
L 208.216771 -87.759331 
L 209.012715 -94.227136 
L 209.80866 -99.546273 
L 210.604605 -103.315561 
L 211.400549 -105.29823 
L 212.196494 -105.51929 
L 212.992439 -104.360507 
L 213.788383 -102.548498 
L 214.584328 -100.98436 
L 215.380273 -100.470881 
L 216.176218 -101.463604 
L 216.972162 -103.957849 
L 217.768107 -107.53565 
L 218.564052 -111.504904 
L 219.359996 -115.060404 
L 220.155941 -117.46081 
L 220.951886 -118.226403 
L 221.74783 -117.309494 
L 222.543775 -115.160502 
L 223.33972 -112.637459 
L 224.135664 -110.761561 
L 224.931609 -110.389856 
L 225.727554 -111.932966 
L 226.523498 -115.247221 
L 227.319443 -119.758402 
L 228.115388 -124.754354 
L 228.911332 -129.676972 
L 229.707277 -134.240798 
L 230.503222 -138.338986 
L 231.299166 -141.854548 
L 232.095111 -144.540305 
L 232.891056 -146.050599 
L 233.687001 -146.071577 
L 234.482945 -144.424387 
L 235.27889 -141.090806 
L 236.074835 -136.223614 
L 236.870779 -130.196618 
L 237.666724 -123.652613 
L 238.462669 -117.446983 
L 239.258613 -112.435999 
L 240.054558 -109.193173 
L 240.850503 -107.818047 
L 241.646447 -107.943921 
L 242.442392 -108.924364 
L 243.238337 -110.095016 
L 244.034281 -111.001649 
L 244.830226 -111.519302 
L 245.626171 -111.826616 
L 246.422115 -112.251348 
L 247.21806 -113.065546 
L 248.014005 -114.335239 
L 248.80995 -115.882493 
L 249.605894 -117.33962 
L 250.401839 -118.250344 
L 251.197784 -118.204329 
L 251.993728 -116.99808 
L 252.789673 -114.768366 
L 253.585618 -112.00975 
L 254.381562 -109.434674 
L 255.177507 -107.741745 
L 255.973452 -107.420111 
L 256.769396 -108.669863 
L 257.565341 -111.421137 
L 258.361286 -115.393156 
L 259.15723 -120.162012 
L 259.953175 -125.231918 
L 260.74912 -130.103135 
L 261.545064 -134.336129 
L 262.341009 -137.628334 
L 263.136954 -139.90106 
L 263.932898 -141.338063 
L 264.728843 -142.313752 
L 265.524788 -143.240664 
L 266.320733 -144.443629 
L 267.116677 -146.13175 
L 267.912622 -148.429477 
L 268.708567 -151.363061 
L 269.504511 -154.767436 
L 270.300456 -158.212981 
L 271.096401 -161.078844 
L 271.892345 -162.783052 
L 272.68829 -163.045665 
L 273.484235 -162.031962 
L 274.280179 -160.311751 
L 275.076124 -158.677741 
L 275.872069 -157.900637 
L 276.668013 -158.488586 
L 277.463958 -160.521085 
L 278.259903 -163.625746 
L 279.055847 -167.117189 
L 279.851792 -170.235383 
L 280.647737 -172.374037 
L 281.443682 -173.220207 
L 282.239626 -172.79406 
L 283.035571 -171.410113 
L 283.831516 -169.572032 
L 284.62746 -167.818036 
L 285.423405 -166.570352 
L 286.21935 -166.056731 
L 287.015294 -166.328548 
L 287.811239 -167.335111 
L 288.607184 -168.988004 
L 289.403128 -171.178475 
L 290.199073 -173.754801 
L 290.995018 -176.483963 
L 291.790962 -179.022532 
L 292.586907 -180.929727 
L 293.382852 -181.753455 
L 294.178796 -181.179862 
L 294.974741 -179.179304 
L 295.770686 -176.065211 
L 296.56663 -172.433934 
L 297.362575 -169.02499 
L 298.15852 -166.559617 
L 298.954465 -165.581484 
L 299.750409 -166.308889 
L 300.546354 -168.543738 
L 301.342299 -171.705006 
L 302.138243 -175.005165 
L 302.934188 -177.700593 
L 303.730133 -179.304129 
L 304.526077 -179.68867 
L 305.322022 -179.083393 
L 306.117967 -177.992028 
L 306.913911 -177.046332 
L 307.709856 -176.80826 
L 308.505801 -177.572386 
L 309.301745 -179.247884 
L 310.09769 -181.371504 
L 310.893635 -183.239583 
L 311.689579 -184.105968 
L 312.485524 -183.39425 
L 313.281469 -180.882445 
L 314.077414 -176.808194 
L 314.873358 -171.836739 
L 315.669303 -166.874177 
L 316.465248 -162.787937 
L 317.261192 -160.152148 
L 318.057137 -159.118188 
L 318.853082 -159.437822 
L 319.649026 -160.598871 
L 320.444971 -162.010795 
L 321.240916 -163.185527 
L 322.03686 -163.866956 
L 322.832805 -164.070705 
L 323.62875 -164.023066 
L 324.424694 -164.031718 
L 325.220639 -164.350331 
L 326.016584 -165.088371 
L 326.812528 -166.179553 
L 327.608473 -167.395099 
L 328.404418 -168.386499 
L 329.200363 -168.747556 
L 329.996307 -168.084679 
L 330.792252 -166.087243 
L 331.588197 -162.598773 
L 332.384141 -157.6899 
L 333.180086 -151.718145 
L 333.976031 -145.341874 
L 334.771975 -139.456465 
L 335.56792 -135.041019 
L 336.363865 -132.929401 
L 337.159809 -133.548356 
L 337.955754 -136.70503 
L 338.751699 -141.532636 
L 339.547643 -146.669402 
L 340.343588 -150.644247 
L 341.139533 -152.330565 
L 341.935477 -151.28988 
L 342.731422 -147.889706 
L 343.527367 -143.181309 
L 344.323311 -138.582511 
L 345.119256 -135.434841 
L 345.915201 -134.552074 
L 346.711146 -135.933723 
L 347.50709 -138.793434 
L 348.303035 -141.915714 
L 349.09898 -144.178043 
L 349.894924 -144.979111 
L 350.690869 -144.380431 
L 351.486814 -142.948446 
L 352.282758 -141.426016 
L 353.078703 -140.388934 
L 353.874648 -140.001817 
L 354.670592 -139.941169 
L 355.466537 -139.5117 
L 356.262482 -137.923525 
L 357.058426 -134.627146 
L 357.854371 -129.565974 
L 358.650316 -123.237392 
L 359.44626 -116.538047 
L 360.242205 -110.461249 
L 361.03815 -105.773071 
L 361.834095 -102.798968 
L 362.630039 -101.402264 
L 363.425984 -101.14576 
L 364.221929 -101.539212 
L 365.017873 -102.241239 
L 365.813818 -103.127763 
L 366.609763 -104.226408 
L 367.405707 -105.583177 
L 368.201652 -107.139053 
L 368.997597 -108.668017 
L 369.793541 -109.801502 
L 370.589486 -110.142112 
L 371.385431 -109.430409 
L 372.181375 -107.683076 
L 372.97732 -105.217549 
L 373.773265 -102.538089 
L 374.569209 -100.137188 
L 375.365154 -98.304788 
L 376.161099 -97.026154 
L 376.957043 -96.015964 
L 377.752988 -94.891515 
L 378.548933 -93.421884 
L 379.344878 -91.724761 
L 380.140822 -90.282218 
L 380.936767 -89.743551 
L 381.732712 -90.613483 
L 382.528656 -92.982731 
L 383.324601 -96.417189 
L 384.120546 -100.042457 
L 384.91649 -102.801017 
L 385.712435 -103.814806 
L 386.50838 -102.732025 
L 387.304324 -99.903766 
L 388.100269 -96.286233 
L 388.896214 -93.096723 
L 389.692158 -91.371944 
L 390.488103 -91.601432 
L 391.284048 -93.554078 
L 392.079992 -96.348927 
L 392.875937 -98.758822 
L 393.671882 -99.6511 
L 394.467827 -98.389081 
L 395.263771 -95.025266 
L 396.059716 -90.232635 
L 396.855661 -85.048409 
L 397.651605 -80.551399 
L 398.44755 -77.566905 
L 399.243495 -76.459671 
L 400.039439 -77.067973 
L 400.835384 -78.814018 
L 401.631329 -80.956159 
L 402.427273 -82.865425 
L 403.223218 -84.198838 
L 404.019163 -84.921114 
L 404.815107 -85.213012 
L 405.611052 -85.331407 
L 406.406997 -85.473086 
L 407.202941 -85.684569 
L 407.998886 -85.851498 
L 408.794831 -85.770987 
L 409.590775 -85.270636 
L 410.38672 -84.3226 
L 411.182665 -83.114323 
L 411.97861 -82.051155 
L 412.774554 -81.669304 
L 413.570499 -82.459723 
L 413.570499 -189.238132 
L 413.570499 -189.238132 
L 412.774554 -188.84944 
L 411.97861 -189.846301 
L 411.182665 -191.743637 
L 410.38672 -193.8906 
L 409.590775 -195.676767 
L 408.794831 -196.726451 
L 407.998886 -196.9879 
L 407.202941 -196.676518 
L 406.406997 -196.111605 
L 405.611052 -195.532761 
L 404.815107 -194.979673 
L 404.019163 -194.288048 
L 403.223218 -193.208214 
L 402.427273 -191.594047 
L 401.631329 -189.56418 
L 400.835384 -187.546161 
L 400.039439 -186.179392 
L 399.243495 -186.1196 
L 398.44755 -187.808301 
L 397.651605 -191.265293 
L 396.855661 -195.97473 
L 396.059716 -200.947164 
L 395.263771 -204.989574 
L 394.467827 -207.102424 
L 393.671882 -206.835196 
L 392.875937 -204.448468 
L 392.079992 -200.833172 
L 391.284048 -197.238178 
L 390.488103 -194.895803 
L 389.692158 -194.640248 
L 388.896214 -196.633372 
L 388.100269 -200.312228 
L 387.304324 -204.594934 
L 386.50838 -208.258469 
L 385.712435 -210.333528 
L 384.91649 -210.386237 
L 384.120546 -208.617369 
L 383.324601 -205.755236 
L 382.528656 -202.76881 
L 381.732712 -200.504902 
L 380.936767 -199.40744 
L 380.140822 -199.440674 
L 379.344878 -200.221438 
L 378.548933 -201.258774 
L 377.752988 -202.178176 
L 376.957043 -202.856347 
L 376.161099 -203.43965 
L 375.365154 -204.241747 
L 374.569209 -205.551689 
L 373.773265 -207.440125 
L 372.97732 -209.672196 
L 372.181375 -211.781098 
L 371.385431 -213.261932 
L 370.589486 -213.784086 
L 369.793541 -213.323904 
L 368.997597 -212.163284 
L 368.201652 -210.754098 
L 367.405707 -209.506608 
L 366.609763 -208.609176 
L 365.813818 -207.985712 
L 365.017873 -207.421066 
L 364.221929 -206.777584 
L 363.425984 -206.171325 
L 362.630039 -206.00713 
L 361.834095 -206.852241 
L 361.03815 -209.203793 
L 360.242205 -213.245864 
L 359.44626 -218.695786 
L 358.650316 -224.813716 
L 357.854371 -230.594441 
L 357.058426 -235.08511 
L 356.262482 -237.709224 
L 355.466537 -238.463241 
L 354.670592 -237.898266 
L 353.874648 -236.883768 
L 353.078703 -236.240153 
L 352.282758 -236.392003 
L 351.486814 -237.203178 
L 350.690869 -238.08394 
L 349.894924 -238.322953 
L 349.09898 -237.470262 
L 348.303035 -235.574767 
L 347.50709 -233.182329 
L 346.711146 -231.139918 
L 345.915201 -230.310734 
L 345.119256 -231.280885 
L 344.323311 -234.119406 
L 343.527367 -238.269628 
L 342.731422 -242.650719 
L 341.935477 -245.984702 
L 341.139533 -247.242861 
L 340.343588 -246.013487 
L 339.547643 -242.628892 
L 338.751699 -238.031686 
L 337.955754 -233.480353 
L 337.159809 -230.213964 
L 336.363865 -229.157547 
L 335.56792 -230.721649 
L 334.771975 -234.738034 
L 333.976031 -240.546937 
L 333.180086 -247.20046 
L 332.384141 -253.702672 
L 331.588197 -259.208907 
L 330.792252 -263.14911 
L 329.996307 -265.279147 
L 329.200363 -265.676088 
L 328.404418 -264.690869 
L 327.608473 -262.868823 
L 326.812528 -260.844299 
L 326.016584 -259.211695 
L 325.220639 -258.385129 
L 324.424694 -258.484541 
L 323.62875 -259.301184 
L 322.832805 -260.373037 
L 322.03686 -261.152023 
L 321.240916 -261.207533 
L 320.444971 -260.400914 
L 319.649026 -258.971864 
L 318.853082 -257.494039 
L 318.057137 -256.694892 
L 317.261192 -257.194764 
L 316.465248 -259.270373 
L 315.669303 -262.742983 
L 314.873358 -267.027453 
L 314.077414 -271.305001 
L 313.281469 -274.750043 
L 312.485524 -276.750171 
L 311.689579 -277.072182 
L 310.893635 -275.926635 
L 310.09769 -273.893114 
L 309.301745 -271.717604 
L 308.505801 -270.060625 
L 307.709856 -269.299888 
L 306.913911 -269.44919 
L 306.117967 -270.191326 
L 305.322022 -270.992569 
L 304.526077 -271.269806 
L 303.730133 -270.578188 
L 302.934188 -268.762785 
L 302.138243 -266.010313 
L 301.342299 -262.783637 
L 300.546354 -259.689951 
L 299.750409 -257.348352 
L 298.954465 -256.274378 
L 298.15852 -256.763525 
L 297.362575 -258.782869 
L 296.56663 -261.929573 
L 295.770686 -265.512468 
L 294.974741 -268.739217 
L 294.178796 -270.920648 
L 293.382852 -271.613152 
L 292.586907 -270.683671 
L 291.790962 -268.315137 
L 290.995018 -264.955005 
L 290.199073 -261.201991 
L 289.403128 -257.65595 
L 288.607184 -254.78721 
L 287.811239 -252.871714 
L 287.015294 -251.993016 
L 286.21935 -252.078863 
L 285.423405 -252.945932 
L 284.62746 -254.342804 
L 283.831516 -255.980244 
L 283.035571 -257.538242 
L 282.239626 -258.664353 
L 281.443682 -259.006362 
L 280.647737 -258.307812 
L 279.851792 -256.531178 
L 279.055847 -253.924566 
L 278.259903 -250.975006 
L 277.463958 -248.267357 
L 276.668013 -246.313853 
L 275.872069 -245.409204 
L 275.076124 -245.542345 
L 274.280179 -246.391059 
L 273.484235 -247.418063 
L 272.68829 -248.04542 
L 271.892345 -247.830588 
L 271.096401 -246.567678 
L 270.300456 -244.304167 
L 269.504511 -241.313471 
L 268.708567 -238.037904 
L 267.912622 -234.973974 
L 267.116677 -232.494753 
L 266.320733 -230.68555 
L 265.524788 -229.315988 
L 264.728843 -227.989633 
L 263.932898 -226.358253 
L 263.136954 -224.237246 
L 262.341009 -221.564233 
L 261.545064 -218.289693 
L 260.74912 -214.338743 
L 259.953175 -209.691817 
L 259.15723 -204.50954 
L 258.361286 -199.202445 
L 257.565341 -194.396912 
L 256.769396 -190.794734 
L 255.973452 -188.958757 
L 255.177507 -189.103786 
L 254.381562 -190.996681 
L 253.585618 -194.017374 
L 252.789673 -197.337419 
L 251.993728 -200.132504 
L 251.197784 -201.778556 
L 250.401839 -202.009973 
L 249.605894 -200.996276 
L 248.80995 -199.272765 
L 248.014005 -197.512534 
L 247.21806 -196.233967 
L 246.422115 -195.601037 
L 245.626171 -195.417627 
L 244.830226 -195.289864 
L 244.034281 -194.852162 
L 243.238337 -193.960293 
L 242.442392 -192.791156 
L 241.646447 -191.817025 
L 240.850503 -191.658813 
L 240.054558 -192.875588 
L 239.258613 -195.777224 
L 238.462669 -200.31985 
L 237.666724 -206.08982 
L 236.870779 -212.362311 
L 236.074835 -218.244451 
L 235.27889 -222.91068 
L 234.482945 -225.860383 
L 233.687001 -227.053174 
L 232.891056 -226.817317 
L 232.095111 -225.575986 
L 231.299166 -223.582524 
L 230.503222 -220.855124 
L 229.707277 -217.326307 
L 228.911332 -213.05528 
L 228.115388 -208.34268 
L 227.319443 -203.69209 
L 226.523498 -199.675086 
L 225.727554 -196.79338 
L 224.931609 -195.37572 
L 224.135664 -195.48996 
L 223.33972 -196.867488 
L 222.543775 -198.886592 
L 221.74783 -200.674682 
L 220.951886 -201.34551 
L 220.155941 -200.307365 
L 219.359996 -197.515333 
L 218.564052 -193.542437 
L 217.768107 -189.408466 
L 216.972162 -186.204769 
L 216.176218 -184.665199 
L 215.380273 -184.893645 
L 214.584328 -186.377992 
L 213.788383 -188.239983 
L 212.992439 -189.55616 
L 212.196494 -189.604216 
L 211.400549 -187.977377 
L 210.604605 -184.591126 
L 209.80866 -179.633461 
L 209.012715 -173.484286 
L 208.216771 -166.611643 
L 207.420826 -159.478586 
L 206.624881 -152.514721 
L 205.828937 -146.160724 
L 205.032992 -140.916086 
L 204.237047 -137.298997 
L 203.441103 -135.69004 
L 202.645158 -136.126246 
L 201.849213 -138.170251 
L 201.053269 -140.958127 
L 200.257324 -143.440012 
L 199.461379 -144.729136 
L 198.665434 -144.420365 
L 197.86949 -142.74341 
L 197.073545 -140.476517 
L 196.2776 -138.651844 
L 195.481656 -138.181726 
L 194.685711 -139.554045 
L 193.889766 -142.683217 
L 193.093822 -146.931227 
L 192.297877 -151.275665 
L 191.501932 -154.590818 
L 190.705988 -155.993112 
L 189.910043 -155.156632 
L 189.114098 -152.457095 
L 188.318154 -148.83616 
L 187.522209 -145.420594 
L 186.726264 -143.091457 
L 185.93032 -142.226973 
L 185.134375 -142.690967 
L 184.33843 -143.970101 
L 183.542485 -145.359014 
L 182.746541 -146.187981 
L 181.950596 -146.083707 
L 181.154651 -145.147182 
L 180.358707 -143.907943 
L 179.562762 -143.033013 
L 178.766817 -142.938834 
L 177.970873 -143.559983 
L 177.174928 -144.439578 
L 176.378983 -145.052246 
L 175.583039 -145.121823 
L 174.787094 -144.76665 
L 173.991149 -144.439697 
L 173.195205 -144.718266 
L 172.39926 -146.047168 
L 171.603315 -148.556595 
L 170.807371 -152.032285 
L 170.011426 -156.019892 
L 169.215481 -159.982011 
L 168.419537 -163.44525 
L 167.623592 -166.114617 
L 166.827647 -167.928669 
L 166.031702 -169.014463 
L 165.235758 -169.535431 
L 164.439813 -169.503003 
L 163.643868 -168.686618 
L 162.847924 -166.726987 
L 162.051979 -163.411251 
L 161.256034 -158.932587 
L 160.46009 -153.968136 
L 159.664145 -149.529797 
L 158.8682 -146.655456 
L 158.072256 -146.062192 
L 157.276311 -147.886294 
L 156.480366 -151.602292 
L 155.684422 -156.152288 
L 154.888477 -160.246163 
L 154.092532 -162.739987 
L 153.296588 -162.977244 
L 152.500643 -160.984135 
L 151.704698 -157.450126 
L 150.908753 -153.497156 
L 150.112809 -150.316646 
L 149.316864 -148.792981 
L 148.520919 -149.227143 
L 147.724975 -151.250206 
L 146.92903 -153.975014 
L 146.133085 -156.343199 
L 145.337141 -157.514673 
L 144.541196 -157.115424 
L 143.745251 -155.243022 
L 142.949307 -152.275921 
L 142.153362 -148.647331 
L 141.357417 -144.723802 
L 140.561473 -140.789524 
L 139.765528 -137.050043 
L 138.969583 -133.621411 
L 138.173639 -130.549719 
L 137.377694 -127.883055 
L 136.581749 -125.729067 
L 135.785805 -124.219673 
L 134.98986 -123.408425 
L 134.193915 -123.216125 
L 133.39797 -123.488624 
L 132.602026 -124.09704 
L 131.806081 -124.965598 
L 131.010136 -126.002878 
L 130.214192 -127.028629 
L 129.418247 -127.793807 
L 128.622302 -128.079934 
L 127.826358 -127.784333 
L 127.030413 -126.933892 
L 126.234468 -125.646985 
L 125.438524 -124.097083 
L 124.642579 -122.504452 
L 123.846634 -121.130772 
L 123.05069 -120.239612 
L 122.254745 -120.030191 
L 121.4588 -120.590901 
L 120.662856 -121.900178 
L 119.866911 -123.856647 
L 119.070966 -126.30815 
L 118.275021 -129.074736 
L 117.479077 -131.978744 
L 116.683132 -134.876879 
L 115.887187 -137.661443 
L 115.091243 -140.210009 
L 114.295298 -142.319664 
L 113.499353 -143.702687 
L 112.703409 -144.079743 
L 111.907464 -143.316232 
L 111.111519 -141.512457 
L 110.315575 -139.005526 
L 109.51963 -136.297239 
L 108.723685 -133.932351 
L 107.927741 -132.342268 
L 107.131796 -131.691339 
L 106.335851 -131.80065 
L 105.539907 -132.207486 
L 104.743962 -132.337992 
L 103.948017 -131.707391 
L 103.152073 -130.068617 
L 102.356128 -127.473559 
L 101.560183 -124.243306 
L 100.764238 -120.862986 
L 99.968294 -117.843838 
L 99.172349 -115.614717 
L 98.376404 -114.476485 
L 97.58046 -114.59756 
L 96.784515 -116.013361 
L 95.98857 -118.619466 
L 95.192626 -122.168501 
L 94.396681 -126.272267 
L 93.600736 -130.401607 
L 92.804792 -133.913636 
L 92.008847 -136.186654 
L 91.212902 -136.870561 
L 90.416958 -136.098867 
L 89.621013 -134.4953 
L 88.825068 -132.955115 
L 88.029124 -132.310839 
L 87.233179 -133.029219 
L 86.437234 -135.051182 
L 85.641289 -137.81904 
L 84.845345 -140.472047 
L 84.0494 -142.149793 
L 83.253455 -142.311345 
L 82.457511 -140.955555 
L 81.661566 -138.648785 
L 80.865621 -136.338675 
L 80.069677 -135.009469 
L 79.273732 -135.276156 
L 78.477787 -137.047152 
L 77.681843 -139.455042 
L 76.885898 -141.218908 
L 76.089953 -141.283443 
L 75.294009 -139.335201 
L 74.498064 -135.940848 
L 73.702119 -132.31509 
L 72.906175 -129.871946 
L 72.11023 -129.737688 
L 71.314285 -132.369148 
L 70.51834 -137.393151 
L 69.722396 -143.743955 
L 68.926451 -150.057298 
L 68.130506 -155.135668 
L 67.334562 -158.277718 
L 66.538617 -159.38316 
L 65.742672 -158.870247 
L 64.946728 -157.478427 
L 64.150783 -156.011477 
L 63.354838 -155.077137 
L 62.558894 -154.904963 
L 61.762949 -155.336215 
L 60.967004 -156.010544 
L 60.17106 -156.635142 
L 59.375115 -157.158117 
L 58.57917 -157.740882 
L 57.783226 -158.557691 
L 56.987281 -159.581221 
L 56.191336 -160.547831 
L 55.395392 -161.134551 
L 54.599447 -161.180264 
L 53.803502 -160.777898 
L 53.007557 -160.207303 
L 52.211613 -159.800112 
L 51.415668 -159.818535 
L 50.619723 -160.350784 
L 49.823779 -161.224941 
L 49.027834 -162.002704 
L 48.231889 -162.116137 
L 47.435945 -161.121793 
L 46.64 -158.944568 
z
" style="stroke: #e41a1c; stroke-opacity: 0.3"/>
    </defs>
    <g clip-path="url(#p923363b332)">
     <use xlink:href="#m25dd180d88" x="0" y="360" style="fill: #e41a1c; fill-opacity: 0.3; stroke: #e41a1c; stroke-opacity: 0.3"/>
    </g>
   </g>
   <g id="PolyCollection_2">
    <defs>
     <path id="m55c6c9b4e9" d="M 46.64 -134.952779 
L 46.64 -113.49353 
L 47.435945 -112.348624 
L 48.231889 -111.423951 
L 49.027834 -111.055114 
L 49.823779 -111.392013 
L 50.619723 -112.35937 
L 51.415668 -113.700206 
L 52.211613 -115.073515 
L 53.007557 -116.166812 
L 53.803502 -116.793385 
L 54.599447 -116.951474 
L 55.395392 -116.824622 
L 56.191336 -116.715673 
L 56.987281 -116.936385 
L 57.783226 -117.699123 
L 58.57917 -119.055148 
L 59.375115 -120.897935 
L 60.17106 -123.015957 
L 60.967004 -125.158913 
L 61.762949 -127.090864 
L 62.558894 -128.628725 
L 63.354838 -129.673196 
L 64.150783 -130.22695 
L 64.946728 -130.384519 
L 65.742672 -130.288984 
L 66.538617 -130.075247 
L 67.334562 -129.831167 
L 68.130506 -129.592753 
L 68.926451 -129.361845 
L 69.722396 -129.120894 
L 70.51834 -128.834184 
L 71.314285 -128.448546 
L 72.11023 -127.90736 
L 72.906175 -127.169135 
L 73.702119 -126.209295 
L 74.498064 -125.00514 
L 75.294009 -123.533012 
L 76.089953 -121.800317 
L 76.885898 -119.896268 
L 77.681843 -118.014526 
L 78.477787 -116.41301 
L 79.273732 -115.322537 
L 80.069677 -114.85016 
L 80.865621 -114.919282 
L 81.661566 -115.263047 
L 82.457511 -115.470409 
L 83.253455 -115.084725 
L 84.0494 -113.748162 
L 84.845345 -111.354648 
L 85.641289 -108.143451 
L 86.437234 -104.671088 
L 87.233179 -101.651594 
L 88.029124 -99.722663 
L 88.825068 -99.232243 
L 89.621013 -100.127993 
L 90.416958 -101.985215 
L 91.212902 -104.155716 
L 92.008847 -105.982945 
L 92.804792 -107.012465 
L 93.600736 -107.127565 
L 94.396681 -106.560386 
L 95.192626 -105.770487 
L 95.98857 -105.235409 
L 96.784515 -105.240058 
L 97.58046 -105.75836 
L 98.376404 -106.480049 
L 99.172349 -106.966861 
L 99.968294 -106.864078 
L 100.764238 -106.073007 
L 101.560183 -104.81033 
L 102.356128 -103.528185 
L 103.152073 -102.726736 
L 103.948017 -102.738315 
L 104.743962 -103.576848 
L 105.539907 -104.917734 
L 106.335851 -106.215004 
L 107.131796 -106.904998 
L 107.927741 -106.614326 
L 108.723685 -105.292229 
L 109.51963 -103.218179 
L 110.315575 -100.884738 
L 111.111519 -98.806745 
L 111.907464 -97.337986 
L 112.703409 -96.569495 
L 113.499353 -96.344194 
L 114.295298 -96.371925 
L 115.091243 -96.387978 
L 115.887187 -96.279448 
L 116.683132 -96.117101 
L 117.479077 -96.079371 
L 118.275021 -96.319081 
L 119.070966 -96.85764 
L 119.866911 -97.567273 
L 120.662856 -98.239755 
L 121.4588 -98.692504 
L 122.254745 -98.858448 
L 123.05069 -98.824883 
L 123.846634 -98.803515 
L 124.642579 -99.03209 
L 125.438524 -99.637649 
L 126.234468 -100.524146 
L 127.030413 -101.353784 
L 127.826358 -101.650386 
L 128.622302 -100.985761 
L 129.418247 -99.167 
L 130.214192 -96.347893 
L 131.010136 -93.021932 
L 131.806081 -89.893172 
L 132.602026 -87.659098 
L 133.39797 -86.775718 
L 134.193915 -87.295348 
L 134.98986 -88.849188 
L 135.785805 -90.787388 
L 136.581749 -92.420001 
L 137.377694 -93.26256 
L 138.173639 -93.196278 
L 138.969583 -92.491743 
L 139.765528 -91.69382 
L 140.561473 -91.410122 
L 141.357417 -92.078197 
L 142.153362 -93.796613 
L 142.949307 -96.283035 
L 143.745251 -98.973299 
L 144.541196 -101.221125 
L 145.337141 -102.522572 
L 146.133085 -102.684828 
L 146.92903 -101.88357 
L 147.724975 -100.595297 
L 148.520919 -99.433664 
L 149.316864 -98.946475 
L 150.112809 -99.437423 
L 150.908753 -100.868178 
L 151.704698 -102.875441 
L 152.500643 -104.903272 
L 153.296588 -106.407045 
L 154.092532 -107.049055 
L 154.888477 -106.804392 
L 155.684422 -105.940494 
L 156.480366 -104.895935 
L 157.276311 -104.119862 
L 158.072256 -103.929853 
L 158.8682 -104.422503 
L 159.664145 -105.453067 
L 160.46009 -106.691762 
L 161.256034 -107.746793 
L 162.051979 -108.313017 
L 162.847924 -108.283985 
L 163.643868 -107.776524 
L 164.439813 -107.058067 
L 165.235758 -106.412526 
L 166.031702 -106.005357 
L 166.827647 -105.80523 
L 167.623592 -105.595368 
L 168.419537 -105.071329 
L 169.215481 -103.983788 
L 170.011426 -102.261225 
L 170.807371 -100.055141 
L 171.603315 -97.68841 
L 172.39926 -95.53235 
L 173.195205 -93.86531 
L 173.991149 -92.768668 
L 174.787094 -92.101937 
L 175.583039 -91.571299 
L 176.378983 -90.867495 
L 177.174928 -89.812379 
L 177.970873 -88.441012 
L 178.766817 -86.974268 
L 179.562762 -85.694748 
L 180.358707 -84.790498 
L 181.154651 -84.24523 
L 181.950596 -83.827383 
L 182.746541 -83.182945 
L 183.542485 -81.992173 
L 184.33843 -80.123587 
L 185.134375 -77.716581 
L 185.93032 -75.150225 
L 186.726264 -72.904241 
L 187.522209 -71.368225 
L 188.318154 -70.681301 
L 189.114098 -70.672604 
L 189.910043 -70.929022 
L 190.705988 -70.961748 
L 191.501932 -70.402157 
L 192.297877 -69.146668 
L 193.093822 -67.39241 
L 193.889766 -65.550423 
L 194.685711 -64.072324 
L 195.481656 -63.260948 
L 196.2776 -63.143677 
L 197.073545 -63.464562 
L 197.86949 -63.802522 
L 198.665434 -63.765448 
L 199.461379 -63.171148 
L 200.257324 -62.129394 
L 201.053269 -60.98768 
L 201.849213 -60.171332 
L 202.645158 -59.998084 
L 203.441103 -60.553872 
L 204.237047 -61.681596 
L 205.032992 -63.079053 
L 205.828937 -64.455251 
L 206.624881 -65.675453 
L 207.420826 -66.834761 
L 208.216771 -68.228539 
L 209.012715 -70.226956 
L 209.80866 -73.101108 
L 210.604605 -76.875212 
L 211.400549 -81.27586 
L 212.196494 -85.808021 
L 212.992439 -89.926975 
L 213.788383 -93.231249 
L 214.584328 -95.597215 
L 215.380273 -97.20429 
L 216.176218 -98.439378 
L 216.972162 -99.710463 
L 217.768107 -101.241713 
L 218.564052 -102.947857 
L 219.359996 -104.460917 
L 220.155941 -105.304124 
L 220.951886 -105.123471 
L 221.74783 -103.859958 
L 222.543775 -101.792262 
L 223.33972 -99.451728 
L 224.135664 -97.456462 
L 224.931609 -96.321597 
L 225.727554 -96.298826 
L 226.523498 -97.293474 
L 227.319443 -98.893005 
L 228.115388 -100.502309 
L 228.911332 -101.532817 
L 229.707277 -101.571128 
L 230.503222 -100.473345 
L 231.299166 -98.370843 
L 232.095111 -95.603001 
L 232.891056 -92.606397 
L 233.687001 -89.797244 
L 234.482945 -87.484379 
L 235.27889 -85.833946 
L 236.074835 -84.878396 
L 236.870779 -84.544759 
L 237.666724 -84.684558 
L 238.462669 -85.106037 
L 239.258613 -85.613944 
L 240.054558 -86.04974 
L 240.850503 -86.31717 
L 241.646447 -86.388416 
L 242.442392 -86.298905 
L 243.238337 -86.134826 
L 244.034281 -86.004535 
L 244.830226 -85.986793 
L 245.626171 -86.071277 
L 246.422115 -86.128131 
L 247.21806 -85.938022 
L 248.014005 -85.281223 
L 248.80995 -84.047073 
L 249.605894 -82.310305 
L 250.401839 -80.337248 
L 251.197784 -78.518426 
L 251.993728 -77.253211 
L 252.789673 -76.826569 
L 253.585618 -77.317705 
L 254.381562 -78.569338 
L 255.177507 -80.229521 
L 255.973452 -81.858216 
L 256.769396 -83.068854 
L 257.565341 -83.656424 
L 258.361286 -83.661027 
L 259.15723 -83.338282 
L 259.953175 -83.048061 
L 260.74912 -83.109074 
L 261.545064 -83.678354 
L 262.341009 -84.698663 
L 263.136954 -85.927188 
L 263.932898 -87.031065 
L 264.728843 -87.71495 
L 265.524788 -87.834536 
L 266.320733 -87.452573 
L 267.116677 -86.815593 
L 267.912622 -86.264181 
L 268.708567 -86.118292 
L 269.504511 -86.584597 
L 270.300456 -87.714147 
L 271.096401 -89.411 
L 271.892345 -91.473694 
L 272.68829 -93.648496 
L 273.484235 -95.679383 
L 274.280179 -97.3456 
L 275.076124 -98.48259 
L 275.872069 -98.989995 
L 276.668013 -98.83829 
L 277.463958 -98.084104 
L 278.259903 -96.889577 
L 279.055847 -95.523511 
L 279.851792 -94.32087 
L 280.647737 -93.600499 
L 281.443682 -93.571549 
L 282.239626 -94.270683 
L 283.035571 -95.555724 
L 283.831516 -97.152003 
L 284.62746 -98.728528 
L 285.423405 -99.982 
L 286.21935 -100.714075 
L 287.015294 -100.885957 
L 287.811239 -100.628914 
L 288.607184 -100.196025 
L 289.403128 -99.865572 
L 290.199073 -99.835078 
L 290.995018 -100.152802 
L 291.790962 -100.713587 
L 292.586907 -101.314764 
L 293.382852 -101.745529 
L 294.178796 -101.875772 
L 294.974741 -101.71238 
L 295.770686 -101.400214 
L 296.56663 -101.164476 
L 297.362575 -101.217521 
L 298.15852 -101.671237 
L 298.954465 -102.492358 
L 299.750409 -103.515569 
L 300.546354 -104.504057 
L 301.342299 -105.232903 
L 302.138243 -105.56804 
L 302.934188 -105.515679 
L 303.730133 -105.223185 
L 304.526077 -104.927633 
L 305.322022 -104.871345 
L 306.117967 -105.220863 
L 306.913911 -106.023789 
L 307.709856 -107.216679 
L 308.505801 -108.670479 
L 309.301745 -110.244728 
L 310.09769 -111.825603 
L 310.893635 -113.33789 
L 311.689579 -114.7335 
L 312.485524 -115.964672 
L 313.281469 -116.953303 
L 314.077414 -117.573354 
L 314.873358 -117.665568 
L 315.669303 -117.09227 
L 316.465248 -115.814485 
L 317.261192 -113.950687 
L 318.057137 -111.776975 
L 318.853082 -109.657254 
L 319.649026 -107.929157 
L 320.444971 -106.790819 
L 321.240916 -106.22887 
L 322.03686 -106.01207 
L 322.832805 -105.758924 
L 323.62875 -105.068422 
L 324.424694 -103.676674 
L 325.220639 -101.579893 
L 326.016584 -99.066088 
L 326.812528 -96.632103 
L 327.608473 -94.812895 
L 328.404418 -93.987818 
L 329.200363 -94.236556 
L 329.996307 -95.29703 
L 330.792252 -96.64116 
L 331.588197 -97.644749 
L 332.384141 -97.795624 
L 333.180086 -96.868566 
L 333.976031 -95.003074 
L 334.771975 -92.651871 
L 335.56792 -90.416056 
L 336.363865 -88.829695 
L 337.159809 -88.17984 
L 337.955754 -88.431574 
L 338.751699 -89.277378 
L 339.547643 -90.275341 
L 340.343588 -91.013086 
L 341.139533 -91.240538 
L 341.935477 -90.935632 
L 342.731422 -90.286546 
L 343.527367 -89.595375 
L 344.323311 -89.138555 
L 345.119256 -89.046865 
L 345.915201 -89.264572 
L 346.711146 -89.604193 
L 347.50709 -89.858865 
L 348.303035 -89.908334 
L 349.09898 -89.770029 
L 349.894924 -89.582043 
L 350.690869 -89.533391 
L 351.486814 -89.772306 
L 352.282758 -90.330259 
L 353.078703 -91.096216 
L 353.874648 -91.856485 
L 354.670592 -92.384462 
L 355.466537 -92.539057 
L 356.262482 -92.326125 
L 357.058426 -91.894583 
L 357.854371 -91.467936 
L 358.650316 -91.240742 
L 359.44626 -91.287128 
L 360.242205 -91.52456 
L 361.03815 -91.749947 
L 361.834095 -91.731395 
L 362.630039 -91.315891 
L 363.425984 -90.508251 
L 364.221929 -89.485793 
L 365.017873 -88.534687 
L 365.813818 -87.929081 
L 366.609763 -87.810182 
L 367.405707 -88.130958 
L 368.201652 -88.697477 
L 368.997597 -89.280391 
L 369.793541 -89.73205 
L 370.589486 -90.051453 
L 371.385431 -90.374977 
L 372.181375 -90.902483 
L 372.97732 -91.78506 
L 373.773265 -93.013283 
L 374.569209 -94.356612 
L 375.365154 -95.397586 
L 376.161099 -95.664245 
L 376.957043 -94.809663 
L 377.752988 -92.759853 
L 378.548933 -89.769657 
L 379.344878 -86.369494 
L 380.140822 -83.222784 
L 380.936767 -80.935814 
L 381.732712 -79.876699 
L 382.528656 -80.067234 
L 383.324601 -81.195324 
L 384.120546 -82.748934 
L 384.91649 -84.216504 
L 385.712435 -85.269614 
L 386.50838 -85.859156 
L 387.304324 -86.199991 
L 388.100269 -86.66088 
L 388.896214 -87.602516 
L 389.692158 -89.220196 
L 390.488103 -91.449537 
L 391.284048 -93.97528 
L 392.079992 -96.342556 
L 392.875937 -98.124654 
L 393.671882 -99.078242 
L 394.467827 -99.228081 
L 395.263771 -98.856803 
L 396.059716 -98.410128 
L 396.855661 -98.35179 
L 397.651605 -99.013583 
L 398.44755 -100.485591 
L 399.243495 -102.581002 
L 400.039439 -104.889777 
L 400.835384 -106.908309 
L 401.631329 -108.204006 
L 402.427273 -108.556048 
L 403.223218 -108.019324 
L 404.019163 -106.8911 
L 404.815107 -105.602775 
L 405.611052 -104.585998 
L 406.406997 -104.160337 
L 407.202941 -104.467969 
L 407.998886 -105.460816 
L 408.794831 -106.937129 
L 409.590775 -108.616748 
L 410.38672 -110.228599 
L 411.182665 -111.573833 
L 411.97861 -112.54068 
L 412.774554 -113.076553 
L 413.570499 -113.144993 
L 413.570499 -161.940814 
L 413.570499 -161.940814 
L 412.774554 -161.898621 
L 411.97861 -161.378296 
L 411.182665 -160.384255 
L 410.38672 -158.947515 
L 409.590775 -157.183218 
L 408.794831 -155.31599 
L 407.998886 -153.656442 
L 407.202941 -152.530381 
L 406.406997 -152.176633 
L 405.611052 -152.646763 
L 404.815107 -153.753207 
L 404.019163 -155.101273 
L 403.223218 -156.201623 
L 402.427273 -156.619666 
L 401.631329 -156.105056 
L 400.835384 -154.660838 
L 400.039439 -152.539297 
L 399.243495 -150.17147 
L 398.44755 -148.047009 
L 397.651605 -146.570812 
L 396.855661 -145.935608 
L 396.059716 -146.054627 
L 395.263771 -146.584693 
L 394.467827 -147.0389 
L 393.671882 -146.95206 
L 392.875937 -146.038274 
L 392.079992 -144.281803 
L 391.284048 -141.930278 
L 390.488103 -139.398368 
L 389.692158 -137.120459 
L 388.896214 -135.402887 
L 388.100269 -134.323436 
L 387.304324 -133.713787 
L 386.50838 -133.238074 
L 385.712435 -132.545481 
L 384.91649 -131.43779 
L 384.120546 -129.978396 
L 383.324601 -128.493671 
L 382.528656 -127.467056 
L 381.732712 -127.368672 
L 380.936767 -128.479924 
L 380.140822 -130.769893 
L 379.344878 -133.868747 
L 378.548933 -137.159491 
L 377.752988 -139.966316 
L 376.957043 -141.769819 
L 376.161099 -142.359999 
L 375.365154 -141.867299 
L 374.569209 -140.672345 
L 373.773265 -139.245598 
L 372.97732 -137.982775 
L 372.181375 -137.089303 
L 371.385431 -136.547762 
L 370.589486 -136.178014 
L 369.793541 -135.76358 
L 368.997597 -135.181878 
L 368.201652 -134.470676 
L 367.405707 -133.801681 
L 366.609763 -133.388334 
L 365.813818 -133.384729 
L 365.017873 -133.820459 
L 364.221929 -134.58745 
L 363.425984 -135.47624 
L 362.630039 -136.250445 
L 361.834095 -136.736736 
L 361.03815 -136.893425 
L 360.242205 -136.821239 
L 359.44626 -136.706845 
L 358.650316 -136.727182 
L 357.854371 -136.9626 
L 357.058426 -137.358865 
L 356.262482 -137.752818 
L 355.466537 -137.948598 
L 354.670592 -137.810199 
L 353.874648 -137.328212 
L 353.078703 -136.62895 
L 352.282758 -135.92066 
L 351.486814 -135.401291 
L 350.690869 -135.170275 
L 349.894924 -135.185653 
L 349.09898 -135.289031 
L 348.303035 -135.289812 
L 347.50709 -135.068185 
L 346.711146 -134.642299 
L 345.915201 -134.162854 
L 345.119256 -133.839593 
L 344.323311 -133.839284 
L 343.527367 -134.201507 
L 342.731422 -134.803347 
L 341.935477 -135.387353 
L 341.139533 -135.653206 
L 340.343588 -135.390954 
L 339.547643 -134.602736 
L 338.751699 -133.546665 
L 337.955754 -132.665343 
L 337.159809 -132.421449 
L 336.363865 -133.112606 
L 335.56792 -134.744918 
L 334.771975 -137.012504 
L 333.976031 -139.386583 
L 333.180086 -141.282997 
L 332.384141 -142.254945 
L 331.588197 -142.147957 
L 330.792252 -141.16136 
L 329.996307 -139.788883 
L 329.200363 -138.654917 
L 328.404418 -138.304401 
L 327.608473 -139.02381 
L 326.812528 -140.758783 
L 326.016584 -143.15458 
L 325.220639 -145.696302 
L 324.424694 -147.890694 
L 323.62875 -149.424786 
L 322.832805 -150.25318 
L 322.03686 -150.591377 
L 321.240916 -150.820272 
L 320.444971 -151.335765 
L 319.649026 -152.39998 
L 318.853082 -154.052459 
L 318.057137 -156.11267 
L 317.261192 -158.260993 
L 316.465248 -160.151861 
L 315.669303 -161.510589 
L 314.873358 -162.187962 
L 314.077414 -162.16979 
L 313.281469 -161.548899 
L 312.485524 -160.47195 
L 311.689579 -159.081684 
L 310.893635 -157.480689 
L 310.09769 -155.734042 
L 309.301745 -153.904838 
L 308.505801 -152.093746 
L 307.709856 -150.44994 
L 306.913911 -149.140032 
L 306.117967 -148.289552 
L 305.322022 -147.928071 
L 304.526077 -147.965197 
L 303.730133 -148.207589 
L 302.934188 -148.410795 
L 302.138243 -148.350765 
L 301.342299 -147.895032 
L 300.546354 -147.050074 
L 299.750409 -145.963374 
L 298.954465 -144.87241 
L 298.15852 -144.016277 
L 297.362575 -143.545831 
L 296.56663 -143.470368 
L 295.770686 -143.660505 
L 294.974741 -143.901789 
L 294.178796 -143.976797 
L 293.382852 -143.747509 
L 292.586907 -143.20985 
L 291.790962 -142.497935 
L 290.995018 -141.831677 
L 290.199073 -141.425996 
L 289.403128 -141.39914 
L 288.607184 -141.717712 
L 287.811239 -142.197984 
L 287.015294 -142.561211 
L 286.21935 -142.526163 
L 285.423405 -141.912568 
L 284.62746 -140.720378 
L 283.831516 -139.149256 
L 283.035571 -137.541643 
L 282.239626 -136.268338 
L 281.443682 -135.606831 
L 280.647737 -135.665164 
L 279.851792 -136.373582 
L 279.055847 -137.527736 
L 278.259903 -138.850306 
L 277.463958 -140.047443 
L 276.668013 -140.854712 
L 275.872069 -141.074892 
L 275.076124 -140.604942 
L 274.280179 -139.445874 
L 273.484235 -137.695699 
L 272.68829 -135.533447 
L 271.892345 -133.200189 
L 271.096401 -130.972951 
L 270.300456 -129.122532 
L 269.504511 -127.855009 
L 268.708567 -127.25317 
L 267.912622 -127.2437 
L 267.116677 -127.609313 
L 266.320733 -128.046668 
L 265.524788 -128.253294 
L 264.728843 -128.017896 
L 263.932898 -127.287756 
L 263.136954 -126.190054 
L 262.341009 -124.992047 
L 261.545064 -124.003914 
L 260.74912 -123.45537 
L 259.953175 -123.396318 
L 259.15723 -123.666433 
L 258.361286 -123.94932 
L 257.565341 -123.890667 
L 256.769396 -123.235677 
L 255.973452 -121.936337 
L 255.177507 -120.18993 
L 254.381562 -118.391029 
L 253.585618 -117.007804 
L 252.789673 -116.424011 
L 251.993728 -116.807166 
L 251.197784 -118.057056 
L 250.401839 -119.854582 
L 249.605894 -121.785269 
L 248.80995 -123.480432 
L 248.014005 -124.718015 
L 247.21806 -125.451656 
L 246.422115 -125.774024 
L 245.626171 -125.846074 
L 244.830226 -125.825279 
L 244.034281 -125.812023 
L 243.238337 -125.822512 
L 242.442392 -125.794107 
L 241.646447 -125.625185 
L 240.850503 -125.237152 
L 240.054558 -124.628687 
L 239.258613 -123.891948 
L 238.462669 -123.18521 
L 237.666724 -122.686888 
L 236.870779 -122.562651 
L 236.074835 -122.95348 
L 235.27889 -123.966514 
L 234.482945 -125.651041 
L 233.687001 -127.962498 
L 232.891056 -130.732222 
L 232.095111 -133.660523 
L 231.299166 -136.345632 
L 230.503222 -138.356934 
L 229.707277 -139.348624 
L 228.911332 -139.184251 
L 228.115388 -138.019757 
L 227.319443 -136.297597 
L 226.523498 -134.639899 
L 225.727554 -133.670027 
L 224.931609 -133.816447 
L 224.135664 -135.160849 
L 223.33972 -137.390589 
L 222.543775 -139.892122 
L 221.74783 -141.965173 
L 220.951886 -143.071984 
L 220.155941 -143.010987 
L 219.359996 -141.942756 
L 218.564052 -140.2738 
L 217.768107 -138.467157 
L 216.972162 -136.85934 
L 216.176218 -135.538016 
L 215.380273 -134.312808 
L 214.584328 -132.795337 
L 213.788383 -130.571964 
L 212.992439 -127.404232 
L 212.196494 -123.363466 
L 211.400549 -118.831288 
L 210.604605 -114.365314 
L 209.80866 -110.493276 
L 209.012715 -107.525418 
L 208.216771 -105.460945 
L 207.420826 -104.024151 
L 206.624881 -102.814154 
L 205.828937 -101.50263 
L 205.032992 -99.988039 
L 204.237047 -98.432387 
L 203.441103 -97.164409 
L 202.645158 -96.500733 
L 201.849213 -96.576343 
L 201.053269 -97.266477 
L 200.257324 -98.232853 
L 199.461379 -99.067758 
L 198.665434 -99.468611 
L 197.86949 -99.366909 
L 197.073545 -98.958064 
L 196.2776 -98.619986 
L 195.481656 -98.7517 
L 194.685711 -99.595779 
L 193.889766 -101.120011 
L 193.093822 -103.015173 
L 192.297877 -104.817613 
L 191.501932 -106.106951 
L 190.705988 -106.691076 
L 189.910043 -106.694135 
L 189.114098 -106.507143 
L 188.318154 -106.623343 
L 187.522209 -107.431702 
L 186.726264 -109.058347 
L 185.93032 -111.321469 
L 185.134375 -113.813708 
L 184.33843 -116.072063 
L 183.542485 -117.761442 
L 182.746541 -118.795946 
L 181.950596 -119.350137 
L 181.154651 -119.759979 
L 180.358707 -120.361628 
L 179.562762 -121.343777 
L 178.766817 -122.679844 
L 177.970873 -124.164033 
L 177.174928 -125.524675 
L 176.378983 -126.557599 
L 175.583039 -127.222771 
L 174.787094 -127.66866 
L 173.991149 -128.175344 
L 173.195205 -129.035461 
L 172.39926 -130.420111 
L 171.603315 -132.291442 
L 170.807371 -134.407695 
L 170.011426 -136.421317 
L 169.215481 -138.022392 
L 168.419537 -139.059432 
L 167.623592 -139.586373 
L 166.827647 -139.821722 
L 166.031702 -140.041506 
L 165.235758 -140.451474 
L 164.439813 -141.092075 
L 163.643868 -141.81791 
L 162.847924 -142.361816 
L 162.051979 -142.455917 
L 161.256034 -141.958155 
L 160.46009 -140.933259 
L 159.664145 -139.655306 
L 158.8682 -138.524346 
L 158.072256 -137.918861 
L 157.276311 -138.036516 
L 156.480366 -138.794066 
L 155.684422 -139.841842 
L 154.888477 -140.694062 
L 154.092532 -140.915378 
L 153.296588 -140.280531 
L 152.500643 -138.848816 
L 151.704698 -136.94103 
L 150.908753 -135.03887 
L 150.112809 -133.636054 
L 149.316864 -133.075973 
L 148.520919 -133.422858 
L 147.724975 -134.41709 
L 146.92903 -135.543713 
L 146.133085 -136.200116 
L 145.337141 -135.905429 
L 144.541196 -134.474036 
L 143.745251 -132.088228 
L 142.949307 -129.242477 
L 142.153362 -126.577657 
L 141.357417 -124.662086 
L 140.561473 -123.795356 
L 139.765528 -123.904622 
L 138.969583 -124.573445 
L 138.173639 -125.198921 
L 137.377694 -125.22562 
L 136.581749 -124.369972 
L 135.785805 -122.744781 
L 134.98986 -120.83042 
L 134.193915 -119.303221 
L 133.39797 -118.789423 
L 132.602026 -119.636596 
L 131.806081 -121.781632 
L 131.010136 -124.760335 
L 130.214192 -127.859383 
L 129.418247 -130.360834 
L 128.622302 -131.786598 
L 127.826358 -132.042445 
L 127.030413 -131.404163 
L 126.234468 -130.363667 
L 125.438524 -129.414667 
L 124.642579 -128.869821 
L 123.846634 -128.771245 
L 123.05069 -128.916208 
L 122.254745 -128.982904 
L 121.4588 -128.702514 
L 120.662856 -127.9959 
L 119.866911 -127.004507 
L 119.070966 -126.002241 
L 118.275021 -125.246002 
L 117.479077 -124.855517 
L 116.683132 -124.782428 
L 115.887187 -124.867013 
L 115.091243 -124.940809 
L 114.295298 -124.927002 
L 113.499353 -124.898353 
L 112.703409 -125.063348 
L 111.907464 -125.673874 
L 111.111519 -126.886698 
L 110.315575 -128.644568 
L 109.51963 -130.64272 
L 108.723685 -132.409383 
L 107.927741 -133.475419 
L 107.131796 -133.564998 
L 106.335851 -132.724008 
L 105.539907 -131.323367 
L 104.743962 -129.926278 
L 103.948017 -129.070893 
L 103.152073 -129.060801 
L 102.356128 -129.85244 
L 101.560183 -131.084996 
L 100.764238 -132.238242 
L 99.968294 -132.852184 
L 99.172349 -132.716773 
L 98.376404 -131.9508 
L 97.58046 -130.935876 
L 96.784515 -130.135596 
L 95.98857 -129.88047 
L 95.192626 -130.211096 
L 94.396681 -130.844347 
L 93.600736 -131.278283 
L 92.804792 -130.999637 
L 92.008847 -129.715271 
L 91.212902 -127.510793 
L 90.416958 -124.861955 
L 89.621013 -122.485137 
L 88.825068 -121.085024 
L 88.029124 -121.104608 
L 87.233179 -122.57926 
L 86.437234 -125.143701 
L 85.641289 -128.171738 
L 84.845345 -130.982736 
L 84.0494 -133.040893 
L 83.253455 -134.09277 
L 82.457511 -134.213293 
L 81.661566 -133.750694 
L 80.865621 -133.186349 
L 80.069677 -132.959338 
L 79.273732 -133.327973 
L 78.477787 -134.324897 
L 77.681843 -135.807211 
L 76.885898 -137.550501 
L 76.089953 -139.329439 
L 75.294009 -140.962574 
L 74.498064 -142.333698 
L 73.702119 -143.403514 
L 72.906175 -144.205269 
L 72.11023 -144.814626 
L 71.314285 -145.305193 
L 70.51834 -145.720395 
L 69.722396 -146.080951 
L 68.926451 -146.410209 
L 68.130506 -146.741382 
L 67.334562 -147.094031 
L 66.538617 -147.442341 
L 65.742672 -147.705409 
L 64.946728 -147.765759 
L 64.150783 -147.499223 
L 63.354838 -146.801174 
L 62.558894 -145.610304 
L 61.762949 -143.937715 
L 60.967004 -141.895605 
L 60.17106 -139.701955 
L 59.375115 -137.640039 
L 58.57917 -135.978598 
L 57.783226 -134.888135 
L 56.987281 -134.392404 
L 56.191336 -134.369324 
L 55.395392 -134.590966 
L 54.599447 -134.786144 
L 53.803502 -134.713324 
L 53.007557 -134.233627 
L 52.211613 -133.367361 
L 51.415668 -132.307492 
L 50.619723 -131.368377 
L 49.823779 -130.878091 
L 49.027834 -131.057493 
L 48.231889 -131.937773 
L 47.435945 -133.345359 
L 46.64 -134.952779 
z
" style="stroke: #377eb8; stroke-opacity: 0.3"/>
    </defs>
    <g clip-path="url(#p923363b332)">
     <use xlink:href="#m55c6c9b4e9" x="0" y="360" style="fill: #377eb8; fill-opacity: 0.3; stroke: #377eb8; stroke-opacity: 0.3"/>
    </g>
   </g>
   <g id="patch_3">
    <path d="M 229.866466 318.04 
L 229.866466 71.732 
L 331.747385 71.732 
L 331.747385 318.04 
z
" clip-path="url(#p923363b332)" style="fill: #808080; opacity: 0.3"/>
   </g>
   <g id="matplotlib.axis_1">
    <g id="xtick_1">
     <g id="line2d_1">
      <defs>
       <path id="m807834b398" d="M 0 0 
L 0 3.5 
" style="stroke: #000000; stroke-width: 0.8"/>
      </defs>
      <g>
       <use xlink:href="#m807834b398" x="87.233179" y="318.04" style="stroke: #000000; stroke-width: 0.8"/>
      </g>
     </g>
     <g id="text_1">
      <!-- 0.0 -->
      <g transform="translate(79.281616 332.638438)scale(0.1 -0.1)">
       <defs>
        <path id="DejaVuSans-30" d="M 2034 4250 
Q 1547 4250 1301 3770 
Q 1056 3291 1056 2328 
Q 1056 1369 1301 889 
Q 1547 409 2034 409 
Q 2525 409 2770 889 
Q 3016 1369 3016 2328 
Q 3016 3291 2770 3770 
Q 2525 4250 2034 4250 
z
M 2034 4750 
Q 2819 4750 3233 4129 
Q 3647 3509 3647 2328 
Q 3647 1150 3233 529 
Q 2819 -91 2034 -91 
Q 1250 -91 836 529 
Q 422 1150 422 2328 
Q 422 3509 836 4129 
Q 1250 4750 2034 4750 
z
" transform="scale(0.015625)"/>
        <path id="DejaVuSans-2e" d="M 684 794 
L 1344 794 
L 1344 0 
L 684 0 
L 684 794 
z
" transform="scale(0.015625)"/>
       </defs>
       <use xlink:href="#DejaVuSans-30"/>
       <use xlink:href="#DejaVuSans-2e" x="63.623047"/>
       <use xlink:href="#DejaVuSans-30" x="95.410156"/>
      </g>
     </g>
    </g>
    <g id="xtick_2">
     <g id="line2d_2">
      <g>
       <use xlink:href="#m807834b398" x="168.737914" y="318.04" style="stroke: #000000; stroke-width: 0.8"/>
      </g>
     </g>
     <g id="text_2">
      <!-- 0.2 -->
      <g transform="translate(160.786352 332.638438)scale(0.1 -0.1)">
       <defs>
        <path id="DejaVuSans-32" d="M 1228 531 
L 3431 531 
L 3431 0 
L 469 0 
L 469 531 
Q 828 903 1448 1529 
Q 2069 2156 2228 2338 
Q 2531 2678 2651 2914 
Q 2772 3150 2772 3378 
Q 2772 3750 2511 3984 
Q 2250 4219 1831 4219 
Q 1534 4219 1204 4116 
Q 875 4013 500 3803 
L 500 4441 
Q 881 4594 1212 4672 
Q 1544 4750 1819 4750 
Q 2544 4750 2975 4387 
Q 3406 4025 3406 3419 
Q 3406 3131 3298 2873 
Q 3191 2616 2906 2266 
Q 2828 2175 2409 1742 
Q 1991 1309 1228 531 
z
" transform="scale(0.015625)"/>
       </defs>
       <use xlink:href="#DejaVuSans-30"/>
       <use xlink:href="#DejaVuSans-2e" x="63.623047"/>
       <use xlink:href="#DejaVuSans-32" x="95.410156"/>
      </g>
     </g>
    </g>
    <g id="xtick_3">
     <g id="line2d_3">
      <g>
       <use xlink:href="#m807834b398" x="250.24265" y="318.04" style="stroke: #000000; stroke-width: 0.8"/>
      </g>
     </g>
     <g id="text_3">
      <!-- 0.4 -->
      <g transform="translate(242.291087 332.638438)scale(0.1 -0.1)">
       <defs>
        <path id="DejaVuSans-34" d="M 2419 4116 
L 825 1625 
L 2419 1625 
L 2419 4116 
z
M 2253 4666 
L 3047 4666 
L 3047 1625 
L 3713 1625 
L 3713 1100 
L 3047 1100 
L 3047 0 
L 2419 0 
L 2419 1100 
L 313 1100 
L 313 1709 
L 2253 4666 
z
" transform="scale(0.015625)"/>
       </defs>
       <use xlink:href="#DejaVuSans-30"/>
       <use xlink:href="#DejaVuSans-2e" x="63.623047"/>
       <use xlink:href="#DejaVuSans-34" x="95.410156"/>
      </g>
     </g>
    </g>
    <g id="xtick_4">
     <g id="line2d_4">
      <g>
       <use xlink:href="#m807834b398" x="331.747385" y="318.04" style="stroke: #000000; stroke-width: 0.8"/>
      </g>
     </g>
     <g id="text_4">
      <!-- 0.6 -->
      <g transform="translate(323.795823 332.638438)scale(0.1 -0.1)">
       <defs>
        <path id="DejaVuSans-36" d="M 2113 2584 
Q 1688 2584 1439 2293 
Q 1191 2003 1191 1497 
Q 1191 994 1439 701 
Q 1688 409 2113 409 
Q 2538 409 2786 701 
Q 3034 994 3034 1497 
Q 3034 2003 2786 2293 
Q 2538 2584 2113 2584 
z
M 3366 4563 
L 3366 3988 
Q 3128 4100 2886 4159 
Q 2644 4219 2406 4219 
Q 1781 4219 1451 3797 
Q 1122 3375 1075 2522 
Q 1259 2794 1537 2939 
Q 1816 3084 2150 3084 
Q 2853 3084 3261 2657 
Q 3669 2231 3669 1497 
Q 3669 778 3244 343 
Q 2819 -91 2113 -91 
Q 1303 -91 875 529 
Q 447 1150 447 2328 
Q 447 3434 972 4092 
Q 1497 4750 2381 4750 
Q 2619 4750 2861 4703 
Q 3103 4656 3366 4563 
z
" transform="scale(0.015625)"/>
       </defs>
       <use xlink:href="#DejaVuSans-30"/>
       <use xlink:href="#DejaVuSans-2e" x="63.623047"/>
       <use xlink:href="#DejaVuSans-36" x="95.410156"/>
      </g>
     </g>
    </g>
    <g id="xtick_5">
     <g id="line2d_5">
      <g>
       <use xlink:href="#m807834b398" x="413.252121" y="318.04" style="stroke: #000000; stroke-width: 0.8"/>
      </g>
     </g>
     <g id="text_5">
      <!-- 0.8 -->
      <g transform="translate(405.300559 332.638438)scale(0.1 -0.1)">
       <defs>
        <path id="DejaVuSans-38" d="M 2034 2216 
Q 1584 2216 1326 1975 
Q 1069 1734 1069 1313 
Q 1069 891 1326 650 
Q 1584 409 2034 409 
Q 2484 409 2743 651 
Q 3003 894 3003 1313 
Q 3003 1734 2745 1975 
Q 2488 2216 2034 2216 
z
M 1403 2484 
Q 997 2584 770 2862 
Q 544 3141 544 3541 
Q 544 4100 942 4425 
Q 1341 4750 2034 4750 
Q 2731 4750 3128 4425 
Q 3525 4100 3525 3541 
Q 3525 3141 3298 2862 
Q 3072 2584 2669 2484 
Q 3125 2378 3379 2068 
Q 3634 1759 3634 1313 
Q 3634 634 3220 271 
Q 2806 -91 2034 -91 
Q 1263 -91 848 271 
Q 434 634 434 1313 
Q 434 1759 690 2068 
Q 947 2378 1403 2484 
z
M 1172 3481 
Q 1172 3119 1398 2916 
Q 1625 2713 2034 2713 
Q 2441 2713 2670 2916 
Q 2900 3119 2900 3481 
Q 2900 3844 2670 4047 
Q 2441 4250 2034 4250 
Q 1625 4250 1398 4047 
Q 1172 3844 1172 3481 
z
" transform="scale(0.015625)"/>
       </defs>
       <use xlink:href="#DejaVuSans-30"/>
       <use xlink:href="#DejaVuSans-2e" x="63.623047"/>
       <use xlink:href="#DejaVuSans-38" x="95.410156"/>
      </g>
     </g>
    </g>
    <g id="text_6">
     <!-- seconds -->
     <g transform="translate(209.667749 346.316563)scale(0.1 -0.1)">
      <defs>
       <path id="DejaVuSans-73" d="M 2834 3397 
L 2834 2853 
Q 2591 2978 2328 3040 
Q 2066 3103 1784 3103 
Q 1356 3103 1142 2972 
Q 928 2841 928 2578 
Q 928 2378 1081 2264 
Q 1234 2150 1697 2047 
L 1894 2003 
Q 2506 1872 2764 1633 
Q 3022 1394 3022 966 
Q 3022 478 2636 193 
Q 2250 -91 1575 -91 
Q 1294 -91 989 -36 
Q 684 19 347 128 
L 347 722 
Q 666 556 975 473 
Q 1284 391 1588 391 
Q 1994 391 2212 530 
Q 2431 669 2431 922 
Q 2431 1156 2273 1281 
Q 2116 1406 1581 1522 
L 1381 1569 
Q 847 1681 609 1914 
Q 372 2147 372 2553 
Q 372 3047 722 3315 
Q 1072 3584 1716 3584 
Q 2034 3584 2315 3537 
Q 2597 3491 2834 3397 
z
" transform="scale(0.015625)"/>
       <path id="DejaVuSans-65" d="M 3597 1894 
L 3597 1613 
L 953 1613 
Q 991 1019 1311 708 
Q 1631 397 2203 397 
Q 2534 397 2845 478 
Q 3156 559 3463 722 
L 3463 178 
Q 3153 47 2828 -22 
Q 2503 -91 2169 -91 
Q 1331 -91 842 396 
Q 353 884 353 1716 
Q 353 2575 817 3079 
Q 1281 3584 2069 3584 
Q 2775 3584 3186 3129 
Q 3597 2675 3597 1894 
z
M 3022 2063 
Q 3016 2534 2758 2815 
Q 2500 3097 2075 3097 
Q 1594 3097 1305 2825 
Q 1016 2553 972 2059 
L 3022 2063 
z
" transform="scale(0.015625)"/>
       <path id="DejaVuSans-63" d="M 3122 3366 
L 3122 2828 
Q 2878 2963 2633 3030 
Q 2388 3097 2138 3097 
Q 1578 3097 1268 2742 
Q 959 2388 959 1747 
Q 959 1106 1268 751 
Q 1578 397 2138 397 
Q 2388 397 2633 464 
Q 2878 531 3122 666 
L 3122 134 
Q 2881 22 2623 -34 
Q 2366 -91 2075 -91 
Q 1284 -91 818 406 
Q 353 903 353 1747 
Q 353 2603 823 3093 
Q 1294 3584 2113 3584 
Q 2378 3584 2631 3529 
Q 2884 3475 3122 3366 
z
" transform="scale(0.015625)"/>
       <path id="DejaVuSans-6f" d="M 1959 3097 
Q 1497 3097 1228 2736 
Q 959 2375 959 1747 
Q 959 1119 1226 758 
Q 1494 397 1959 397 
Q 2419 397 2687 759 
Q 2956 1122 2956 1747 
Q 2956 2369 2687 2733 
Q 2419 3097 1959 3097 
z
M 1959 3584 
Q 2709 3584 3137 3096 
Q 3566 2609 3566 1747 
Q 3566 888 3137 398 
Q 2709 -91 1959 -91 
Q 1206 -91 779 398 
Q 353 888 353 1747 
Q 353 2609 779 3096 
Q 1206 3584 1959 3584 
z
" transform="scale(0.015625)"/>
       <path id="DejaVuSans-6e" d="M 3513 2113 
L 3513 0 
L 2938 0 
L 2938 2094 
Q 2938 2591 2744 2837 
Q 2550 3084 2163 3084 
Q 1697 3084 1428 2787 
Q 1159 2491 1159 1978 
L 1159 0 
L 581 0 
L 581 3500 
L 1159 3500 
L 1159 2956 
Q 1366 3272 1645 3428 
Q 1925 3584 2291 3584 
Q 2894 3584 3203 3211 
Q 3513 2838 3513 2113 
z
" transform="scale(0.015625)"/>
       <path id="DejaVuSans-64" d="M 2906 2969 
L 2906 4863 
L 3481 4863 
L 3481 0 
L 2906 0 
L 2906 525 
Q 2725 213 2448 61 
Q 2172 -91 1784 -91 
Q 1150 -91 751 415 
Q 353 922 353 1747 
Q 353 2572 751 3078 
Q 1150 3584 1784 3584 
Q 2172 3584 2448 3432 
Q 2725 3281 2906 2969 
z
M 947 1747 
Q 947 1113 1208 752 
Q 1469 391 1925 391 
Q 2381 391 2643 752 
Q 2906 1113 2906 1747 
Q 2906 2381 2643 2742 
Q 2381 3103 1925 3103 
Q 1469 3103 1208 2742 
Q 947 2381 947 1747 
z
" transform="scale(0.015625)"/>
      </defs>
      <use xlink:href="#DejaVuSans-73"/>
      <use xlink:href="#DejaVuSans-65" x="52.099609"/>
      <use xlink:href="#DejaVuSans-63" x="113.623047"/>
      <use xlink:href="#DejaVuSans-6f" x="168.603516"/>
      <use xlink:href="#DejaVuSans-6e" x="229.785156"/>
      <use xlink:href="#DejaVuSans-64" x="293.164062"/>
      <use xlink:href="#DejaVuSans-73" x="356.640625"/>
     </g>
    </g>
   </g>
   <g id="matplotlib.axis_2">
    <g id="ytick_1">
     <g id="line2d_6">
      <defs>
       <path id="m1e52a659da" d="M 0 0 
L -3.5 0 
" style="stroke: #000000; stroke-width: 0.8"/>
      </defs>
      <g>
       <use xlink:href="#m1e52a659da" x="46.64" y="305.340442" style="stroke: #000000; stroke-width: 0.8"/>
      </g>
     </g>
     <g id="text_7">
      <!-- 2 -->
      <g transform="translate(24.897813 309.13966)scale(0.1 -0.1)">
       <defs>
        <path id="DejaVuSans-2212" d="M 678 2272 
L 4684 2272 
L 4684 1741 
L 678 1741 
L 678 2272 
z
" transform="scale(0.015625)"/>
       </defs>
       <use xlink:href="#DejaVuSans-2212"/>
       <use xlink:href="#DejaVuSans-32" x="83.789062"/>
      </g>
     </g>
    </g>
    <g id="ytick_2">
     <g id="line2d_7">
      <g>
       <use xlink:href="#m1e52a659da" x="46.64" y="268.296441" style="stroke: #000000; stroke-width: 0.8"/>
      </g>
     </g>
     <g id="text_8">
      <!-- 1 -->
      <g transform="translate(24.897813 272.09566)scale(0.1 -0.1)">
       <defs>
        <path id="DejaVuSans-31" d="M 794 531 
L 1825 531 
L 1825 4091 
L 703 3866 
L 703 4441 
L 1819 4666 
L 2450 4666 
L 2450 531 
L 3481 531 
L 3481 0 
L 794 0 
L 794 531 
z
" transform="scale(0.015625)"/>
       </defs>
       <use xlink:href="#DejaVuSans-2212"/>
       <use xlink:href="#DejaVuSans-31" x="83.789062"/>
      </g>
     </g>
    </g>
    <g id="ytick_3">
     <g id="line2d_8">
      <g>
       <use xlink:href="#m1e52a659da" x="46.64" y="231.25244" style="stroke: #000000; stroke-width: 0.8"/>
      </g>
     </g>
     <g id="text_9">
      <!-- 0 -->
      <g transform="translate(33.2775 235.051659)scale(0.1 -0.1)">
       <use xlink:href="#DejaVuSans-30"/>
      </g>
     </g>
    </g>
    <g id="ytick_4">
     <g id="line2d_9">
      <g>
       <use xlink:href="#m1e52a659da" x="46.64" y="194.20844" style="stroke: #000000; stroke-width: 0.8"/>
      </g>
     </g>
     <g id="text_10">
      <!-- 1 -->
      <g transform="translate(33.2775 198.007659)scale(0.1 -0.1)">
       <use xlink:href="#DejaVuSans-31"/>
      </g>
     </g>
    </g>
    <g id="ytick_5">
     <g id="line2d_10">
      <g>
       <use xlink:href="#m1e52a659da" x="46.64" y="157.164439" style="stroke: #000000; stroke-width: 0.8"/>
      </g>
     </g>
     <g id="text_11">
      <!-- 2 -->
      <g transform="translate(33.2775 160.963658)scale(0.1 -0.1)">
       <use xlink:href="#DejaVuSans-32"/>
      </g>
     </g>
    </g>
    <g id="ytick_6">
     <g id="line2d_11">
      <g>
       <use xlink:href="#m1e52a659da" x="46.64" y="120.120439" style="stroke: #000000; stroke-width: 0.8"/>
      </g>
     </g>
     <g id="text_12">
      <!-- 3 -->
      <g transform="translate(33.2775 123.919657)scale(0.1 -0.1)">
       <defs>
        <path id="DejaVuSans-33" d="M 2597 2516 
Q 3050 2419 3304 2112 
Q 3559 1806 3559 1356 
Q 3559 666 3084 287 
Q 2609 -91 1734 -91 
Q 1441 -91 1130 -33 
Q 819 25 488 141 
L 488 750 
Q 750 597 1062 519 
Q 1375 441 1716 441 
Q 2309 441 2620 675 
Q 2931 909 2931 1356 
Q 2931 1769 2642 2001 
Q 2353 2234 1838 2234 
L 1294 2234 
L 1294 2753 
L 1863 2753 
Q 2328 2753 2575 2939 
Q 2822 3125 2822 3475 
Q 2822 3834 2567 4026 
Q 2313 4219 1838 4219 
Q 1578 4219 1281 4162 
Q 984 4106 628 3988 
L 628 4550 
Q 988 4650 1302 4700 
Q 1616 4750 1894 4750 
Q 2613 4750 3031 4423 
Q 3450 4097 3450 3541 
Q 3450 3153 3228 2886 
Q 3006 2619 2597 2516 
z
" transform="scale(0.015625)"/>
       </defs>
       <use xlink:href="#DejaVuSans-33"/>
      </g>
     </g>
    </g>
    <g id="ytick_7">
     <g id="line2d_12">
      <g>
       <use xlink:href="#m1e52a659da" x="46.64" y="83.076438" style="stroke: #000000; stroke-width: 0.8"/>
      </g>
     </g>
     <g id="text_13">
      <!-- 4 -->
      <g transform="translate(33.2775 86.875657)scale(0.1 -0.1)">
       <use xlink:href="#DejaVuSans-34"/>
      </g>
     </g>
    </g>
    <g id="text_14">
     <!-- V -->
     <g transform="translate(18.818125 201.487562)rotate(-90)scale(0.1 -0.1)">
      <defs>
       <path id="DejaVuSans-b5" d="M 544 -1331 
L 544 3500 
L 1119 3500 
L 1119 1325 
Q 1119 872 1334 640 
Q 1550 409 1972 409 
Q 2434 409 2667 671 
Q 2900 934 2900 1459 
L 2900 3500 
L 3475 3500 
L 3475 806 
Q 3475 619 3529 530 
Q 3584 441 3700 441 
Q 3728 441 3778 458 
Q 3828 475 3916 513 
L 3916 50 
Q 3788 -22 3673 -56 
Q 3559 -91 3450 -91 
Q 3234 -91 3106 31 
Q 2978 153 2931 403 
Q 2775 156 2548 32 
Q 2322 -91 2016 -91 
Q 1697 -91 1473 31 
Q 1250 153 1119 397 
L 1119 -1331 
L 544 -1331 
z
" transform="scale(0.015625)"/>
       <path id="DejaVuSans-56" d="M 1831 0 
L 50 4666 
L 709 4666 
L 2188 738 
L 3669 4666 
L 4325 4666 
L 2547 0 
L 1831 0 
z
" transform="scale(0.015625)"/>
      </defs>
      <use xlink:href="#DejaVuSans-b5"/>
      <use xlink:href="#DejaVuSans-56" x="63.623047"/>
     </g>
    </g>
   </g>
   <g id="line2d_13">
    <path d="M 46.64 225.964789 
L 47.435945 223.526793 
L 48.231889 222.231861 
L 49.027834 221.955875 
L 50.619723 222.480862 
L 51.415668 222.265659 
L 52.211613 221.447362 
L 53.803502 218.920431 
L 54.599447 217.987569 
L 55.395392 217.653166 
L 56.191336 217.941233 
L 56.987281 218.690778 
L 60.967004 223.441258 
L 61.762949 224.156621 
L 62.558894 224.517921 
L 63.354838 224.294131 
L 64.150783 223.377531 
L 65.742672 220.471719 
L 66.538617 219.744827 
L 67.334562 220.533287 
L 68.130506 223.333047 
L 68.926451 228.101235 
L 70.51834 240.371513 
L 71.314285 245.408171 
L 72.11023 248.251062 
L 72.906175 248.509881 
L 73.702119 246.571723 
L 75.294009 240.496859 
L 76.089953 238.777568 
L 76.885898 238.847054 
L 77.681843 240.510818 
L 79.273732 245.146431 
L 80.069677 246.170948 
L 80.865621 245.678068 
L 81.661566 243.957653 
L 82.457511 241.813016 
L 83.253455 240.22692 
L 84.0494 239.96951 
L 84.845345 241.304124 
L 85.641289 243.901451 
L 87.233179 249.642953 
L 88.029124 251.173621 
L 88.825068 251.343489 
L 89.621013 250.457211 
L 90.416958 249.233606 
L 91.212902 248.545576 
L 92.008847 249.1264 
L 92.804792 251.344091 
L 93.600736 255.109097 
L 95.98857 269.68702 
L 96.784515 273.168429 
L 97.58046 275.072168 
L 98.376404 275.268655 
L 99.172349 273.907688 
L 99.968294 271.36339 
L 102.356128 261.973434 
L 103.152073 259.896741 
L 103.948017 258.774762 
L 104.743962 258.50882 
L 106.335851 259.116046 
L 107.131796 259.06741 
L 107.927741 258.301591 
L 108.723685 256.726302 
L 111.111519 249.842024 
L 111.907464 248.32728 
L 112.703409 247.822679 
L 113.499353 248.436136 
L 114.295298 250.083476 
L 115.091243 252.547702 
L 116.683132 258.842651 
L 118.275021 265.368699 
L 119.070966 268.230647 
L 119.866911 270.583393 
L 120.662856 272.256857 
L 121.4588 273.12664 
L 122.254745 273.157467 
L 123.05069 272.432971 
L 123.846634 271.153875 
L 125.438524 268.068828 
L 126.234468 266.81012 
L 127.030413 265.983721 
L 127.826358 265.647443 
L 128.622302 265.77514 
L 129.418247 266.289571 
L 130.214192 267.092126 
L 133.39797 270.884432 
L 134.193915 271.268684 
L 134.98986 271.126066 
L 135.785805 270.364049 
L 136.581749 268.960219 
L 137.377694 266.957619 
L 138.173639 264.437852 
L 139.765528 258.177136 
L 142.949307 243.613499 
L 143.745251 240.930208 
L 144.541196 239.379843 
L 145.337141 239.203656 
L 146.133085 240.357671 
L 148.520919 246.511823 
L 149.316864 246.953803 
L 150.112809 245.766605 
L 150.908753 243.14338 
L 152.500643 236.74588 
L 153.296588 235.038589 
L 154.092532 235.362535 
L 154.888477 237.814514 
L 157.276311 250.102828 
L 158.072256 252.047023 
L 158.8682 251.63012 
L 159.664145 248.947684 
L 160.46009 244.662798 
L 162.051979 235.214745 
L 162.847924 231.741196 
L 163.643868 229.635127 
L 164.439813 228.815691 
L 165.235758 228.982379 
L 166.031702 229.815628 
L 166.827647 231.126526 
L 167.623592 232.897069 
L 168.419537 235.208509 
L 169.215481 238.108618 
L 172.39926 251.237973 
L 173.195205 253.208595 
L 173.991149 254.39228 
L 174.787094 255.02979 
L 176.378983 255.936531 
L 177.970873 257.174004 
L 178.766817 257.542809 
L 179.562762 257.436466 
L 180.358707 256.812346 
L 181.950596 254.989334 
L 182.746541 254.557171 
L 183.542485 254.771264 
L 185.134375 256.308679 
L 185.93032 256.580127 
L 186.726264 255.816029 
L 187.522209 253.871078 
L 189.114098 248.250964 
L 189.910043 246.315294 
L 190.705988 246.084389 
L 191.501932 247.881564 
L 192.297877 251.395605 
L 193.889766 259.791689 
L 194.685711 262.464421 
L 195.481656 263.180848 
L 196.2776 262.004618 
L 197.86949 257.025847 
L 198.665434 255.268987 
L 199.461379 254.99536 
L 200.257324 256.296858 
L 202.645158 263.250316 
L 203.441103 263.647812 
L 204.237047 262.09825 
L 205.032992 258.571175 
L 205.828937 253.362739 
L 207.420826 239.928732 
L 209.012715 226.144289 
L 209.80866 220.410133 
L 210.604605 216.046656 
L 211.400549 213.362196 
L 212.196494 212.438247 
L 212.992439 213.041667 
L 214.584328 216.318824 
L 215.380273 217.317737 
L 216.176218 216.935599 
L 216.972162 214.918691 
L 217.768107 211.527942 
L 219.359996 203.712132 
L 220.155941 201.115913 
L 220.951886 200.214044 
L 221.74783 201.007912 
L 222.543775 202.976453 
L 223.33972 205.247526 
L 224.135664 206.874239 
L 224.931609 207.117212 
L 225.727554 205.636827 
L 226.523498 202.538846 
L 228.115388 193.451483 
L 229.707277 184.216447 
L 230.503222 180.402945 
L 231.299166 177.281464 
L 232.095111 174.941855 
L 232.891056 173.566042 
L 233.687001 173.437624 
L 234.482945 174.857615 
L 235.27889 177.999257 
L 236.074835 182.765968 
L 239.258613 205.893388 
L 240.054558 208.965619 
L 240.850503 210.26157 
L 241.646447 210.119527 
L 242.442392 209.14224 
L 243.238337 207.972345 
L 244.034281 207.073095 
L 244.830226 206.595417 
L 246.422115 206.073808 
L 247.21806 205.350243 
L 248.014005 204.076114 
L 249.605894 200.832052 
L 250.401839 199.869841 
L 251.197784 200.008558 
L 251.993728 201.434708 
L 252.789673 203.947107 
L 254.381562 209.784323 
L 255.177507 211.577235 
L 255.973452 211.810566 
L 256.769396 210.267701 
L 257.565341 207.090975 
L 258.361286 202.702199 
L 260.74912 187.779061 
L 261.545064 183.687089 
L 262.341009 180.403716 
L 263.136954 177.930847 
L 263.932898 176.151842 
L 266.320733 172.43541 
L 267.116677 170.686748 
L 267.912622 168.298275 
L 269.504511 161.959547 
L 270.300456 158.741426 
L 271.096401 156.176739 
L 271.892345 154.69318 
L 272.68829 154.454457 
L 273.484235 155.274987 
L 275.076124 157.889957 
L 275.872069 158.34508 
L 276.668013 157.59878 
L 277.463958 155.605779 
L 279.851792 146.616719 
L 280.647737 144.659075 
L 281.443682 143.886716 
L 282.239626 144.270794 
L 283.035571 145.525822 
L 284.62746 148.91958 
L 285.423405 150.241858 
L 286.21935 150.932203 
L 287.015294 150.839218 
L 287.811239 149.896588 
L 288.607184 148.112393 
L 289.403128 145.582788 
L 291.790962 136.331166 
L 292.586907 134.193301 
L 293.382852 133.316697 
L 294.178796 133.949745 
L 294.974741 136.040739 
L 296.56663 142.818246 
L 297.362575 146.096071 
L 298.15852 148.338429 
L 298.954465 149.072069 
L 299.750409 148.17138 
L 300.546354 145.883156 
L 302.934188 136.768311 
L 303.730133 135.058842 
L 304.526077 134.520762 
L 305.322022 134.962019 
L 306.913911 136.752239 
L 307.709856 136.945926 
L 308.505801 136.183495 
L 309.301745 134.517256 
L 310.893635 130.416891 
L 311.689579 129.410925 
L 312.485524 129.92779 
L 313.281469 132.183756 
L 314.077414 135.943402 
L 315.669303 145.19142 
L 316.465248 148.970845 
L 317.261192 151.326544 
L 318.057137 152.09346 
L 318.853082 151.53407 
L 320.444971 148.794145 
L 321.240916 147.80347 
L 322.03686 147.490511 
L 322.832805 147.778129 
L 323.62875 148.337875 
L 324.424694 148.74187 
L 325.220639 148.63227 
L 326.016584 147.849967 
L 326.812528 146.488074 
L 328.404418 143.461316 
L 329.200363 142.788178 
L 329.996307 143.318087 
L 330.792252 145.381823 
L 331.588197 149.09616 
L 332.384141 154.303714 
L 334.771975 172.902751 
L 335.56792 177.118666 
L 336.363865 178.956526 
L 337.159809 178.11884 
L 337.955754 174.907308 
L 339.547643 165.350853 
L 340.343588 161.671133 
L 341.139533 160.213287 
L 341.935477 161.362709 
L 342.731422 164.729787 
L 344.323311 173.649042 
L 345.119256 176.642137 
L 345.915201 177.568596 
L 346.711146 176.46318 
L 349.09898 169.175847 
L 349.894924 168.348968 
L 350.690869 168.767815 
L 352.282758 171.09099 
L 353.078703 171.685456 
L 353.874648 171.557207 
L 354.670592 171.080283 
L 355.466537 171.01253 
L 356.262482 172.183626 
L 357.058426 175.143872 
L 357.854371 179.919792 
L 360.242205 198.146443 
L 361.03815 202.511568 
L 361.834095 205.174396 
L 362.630039 206.295303 
L 363.425984 206.341458 
L 364.221929 205.841602 
L 365.813818 204.443262 
L 366.609763 203.582208 
L 367.405707 202.455107 
L 369.793541 198.437297 
L 370.589486 198.036901 
L 371.385431 198.653829 
L 372.181375 200.267913 
L 374.569209 207.155562 
L 375.365154 208.726732 
L 376.161099 209.767098 
L 377.752988 211.465155 
L 380.140822 215.138554 
L 380.936767 215.424504 
L 381.732712 214.440807 
L 382.528656 212.12423 
L 384.120546 205.670087 
L 384.91649 203.406373 
L 385.712435 202.925833 
L 386.50838 204.504753 
L 387.304324 207.75065 
L 388.896214 215.134952 
L 389.692158 216.993904 
L 390.488103 216.751382 
L 391.284048 214.603872 
L 392.875937 208.396355 
L 393.671882 206.756852 
L 394.467827 207.254248 
L 395.263771 209.99258 
L 396.059716 214.4101 
L 397.651605 224.091654 
L 398.44755 227.312397 
L 399.243495 228.710364 
L 400.039439 228.376318 
L 400.835384 226.81991 
L 402.427273 222.770264 
L 403.223218 221.296474 
L 404.019163 220.395419 
L 404.815107 219.903657 
L 407.998886 218.580301 
L 408.794831 218.751281 
L 409.590775 219.526298 
L 410.38672 220.8934 
L 411.97861 224.051272 
L 412.774554 224.740628 
L 413.570499 224.151072 
L 413.570499 224.151072 
" clip-path="url(#p923363b332)" style="fill: none; stroke: #e41a1c; stroke-width: 1.5; stroke-linecap: square"/>
   </g>
   <g id="line2d_14">
    <path d="M 46.64 235.776846 
L 48.231889 238.319138 
L 49.027834 238.943697 
L 49.823779 238.864948 
L 50.619723 238.136127 
L 53.007557 234.79978 
L 53.803502 234.246645 
L 54.599447 234.131191 
L 56.191336 234.457501 
L 56.987281 234.335605 
L 57.783226 233.706371 
L 58.57917 232.483127 
L 59.375115 230.731013 
L 61.762949 224.48571 
L 62.558894 222.880485 
L 63.354838 221.762815 
L 64.150783 221.136913 
L 64.946728 220.924861 
L 65.742672 221.002804 
L 68.130506 221.832933 
L 70.51834 222.72271 
L 72.11023 223.639007 
L 72.906175 224.312798 
L 73.702119 225.193596 
L 74.498064 226.330581 
L 75.294009 227.752207 
L 76.885898 231.276616 
L 78.477787 234.631046 
L 79.273732 235.674745 
L 80.069677 236.095251 
L 80.865621 235.947185 
L 82.457511 235.158149 
L 83.253455 235.411252 
L 84.0494 236.605473 
L 84.845345 238.831308 
L 87.233179 247.884573 
L 88.029124 249.586365 
L 88.825068 249.841366 
L 89.621013 248.693435 
L 92.008847 242.150892 
L 92.804792 240.993949 
L 93.600736 240.797076 
L 94.396681 241.297634 
L 95.192626 242.009209 
L 95.98857 242.442061 
L 96.784515 242.312173 
L 97.58046 241.652882 
L 98.376404 240.784575 
L 99.172349 240.158183 
L 99.968294 240.141869 
L 100.764238 240.844376 
L 102.356128 243.309688 
L 103.152073 244.106232 
L 103.948017 244.095396 
L 104.743962 243.248437 
L 106.335851 240.530494 
L 107.131796 239.765002 
L 107.927741 239.955127 
L 108.723685 241.149194 
L 111.111519 247.153278 
L 111.907464 248.49407 
L 112.703409 249.183578 
L 113.499353 249.378727 
L 115.091243 249.335606 
L 117.479077 249.532556 
L 118.275021 249.217459 
L 119.070966 248.57006 
L 120.662856 246.882172 
L 121.4588 246.302491 
L 122.254745 246.079324 
L 123.846634 246.21262 
L 124.642579 246.049045 
L 125.438524 245.473842 
L 127.030413 243.621027 
L 127.826358 243.153584 
L 128.622302 243.61382 
L 129.418247 245.236083 
L 130.214192 247.896362 
L 131.806081 254.162598 
L 132.602026 256.352153 
L 133.39797 257.21743 
L 134.193915 256.700715 
L 134.98986 255.160196 
L 135.785805 253.233915 
L 136.581749 251.605014 
L 137.377694 250.75591 
L 138.173639 250.802401 
L 139.765528 252.200779 
L 140.561473 252.397261 
L 141.357417 251.629859 
L 142.153362 249.812865 
L 144.541196 242.152419 
L 145.337141 240.785999 
L 146.133085 240.557528 
L 146.92903 241.286358 
L 148.520919 243.571739 
L 149.316864 243.988776 
L 150.112809 243.463261 
L 150.908753 242.046476 
L 152.500643 238.123956 
L 153.296588 236.656212 
L 154.092532 236.017784 
L 154.888477 236.250773 
L 155.684422 237.108832 
L 156.480366 238.154999 
L 157.276311 238.921811 
L 158.072256 239.075643 
L 158.8682 238.526575 
L 161.256034 235.147526 
L 162.051979 234.615533 
L 162.847924 234.677099 
L 163.643868 235.202783 
L 165.235758 236.568 
L 166.031702 236.976569 
L 167.623592 237.409129 
L 168.419537 237.93462 
L 169.215481 238.99691 
L 170.011426 240.658729 
L 172.39926 247.02377 
L 173.195205 248.549614 
L 173.991149 249.527994 
L 176.378983 251.287453 
L 177.174928 252.331473 
L 179.562762 256.480737 
L 180.358707 257.423937 
L 181.154651 257.997396 
L 181.950596 258.41124 
L 182.746541 259.010555 
L 183.542485 260.123192 
L 184.33843 261.902175 
L 186.726264 269.018706 
L 187.522209 270.600037 
L 188.318154 271.347678 
L 189.114098 271.410127 
L 189.910043 271.188422 
L 190.705988 271.173588 
L 191.501932 271.745446 
L 192.297877 273.017859 
L 194.685711 278.165948 
L 195.481656 278.993676 
L 196.2776 279.118169 
L 197.86949 278.415284 
L 198.665434 278.382971 
L 199.461379 278.880547 
L 201.849213 281.626162 
L 202.645158 281.750591 
L 203.441103 281.14086 
L 204.237047 279.943008 
L 205.828937 277.02106 
L 208.216771 273.155258 
L 209.012715 271.123813 
L 209.80866 268.202808 
L 210.604605 264.379737 
L 212.992439 251.334397 
L 213.788383 248.098394 
L 214.584328 245.803724 
L 215.380273 244.241451 
L 216.972162 241.715098 
L 219.359996 236.798164 
L 220.155941 235.842444 
L 220.951886 235.902273 
L 221.74783 237.087434 
L 222.543775 239.157808 
L 224.135664 243.691345 
L 224.931609 244.930978 
L 225.727554 245.015574 
L 226.523498 244.033313 
L 228.115388 240.738967 
L 228.911332 239.641466 
L 229.707277 239.540124 
L 230.503222 240.584861 
L 231.299166 242.641763 
L 234.482945 253.43229 
L 235.27889 255.09977 
L 236.074835 256.084062 
L 236.870779 256.446295 
L 237.666724 256.314277 
L 238.462669 255.854376 
L 240.054558 254.660787 
L 240.850503 254.222839 
L 241.646447 253.993199 
L 243.238337 254.021331 
L 244.830226 254.093964 
L 246.422115 254.048922 
L 247.21806 254.305161 
L 248.014005 255.000381 
L 248.80995 256.236247 
L 250.401839 259.904085 
L 251.197784 261.712259 
L 251.993728 262.969812 
L 252.789673 263.37471 
L 253.585618 262.837246 
L 254.381562 261.519817 
L 255.973452 258.102724 
L 256.769396 256.847734 
L 257.565341 256.226454 
L 258.361286 256.194826 
L 259.953175 256.777811 
L 260.74912 256.717778 
L 261.545064 256.158866 
L 262.341009 255.154645 
L 263.932898 252.840589 
L 264.728843 252.133577 
L 265.524788 251.956085 
L 266.320733 252.25038 
L 267.912622 253.24606 
L 268.708567 253.314269 
L 269.504511 252.780197 
L 270.300456 251.58166 
L 271.096401 249.808025 
L 273.484235 243.312459 
L 274.280179 241.604263 
L 275.076124 240.456234 
L 275.872069 239.967557 
L 276.668013 240.153499 
L 277.463958 240.934226 
L 279.851792 244.652774 
L 280.647737 245.367168 
L 281.443682 245.41081 
L 282.239626 244.730489 
L 283.035571 243.451317 
L 284.62746 240.275547 
L 285.423405 239.052716 
L 286.21935 238.379881 
L 287.015294 238.276416 
L 287.811239 238.586551 
L 288.607184 239.043132 
L 289.403128 239.367644 
L 290.199073 239.369463 
L 290.995018 239.007761 
L 293.382852 237.253481 
L 294.178796 237.073716 
L 294.974741 237.192916 
L 296.56663 237.682578 
L 297.362575 237.618324 
L 298.15852 237.156243 
L 298.954465 236.317616 
L 300.546354 234.222934 
L 301.342299 233.436032 
L 302.138243 233.040598 
L 302.934188 233.036763 
L 304.526077 233.553585 
L 305.322022 233.600292 
L 306.117967 233.244793 
L 306.913911 232.41809 
L 307.709856 231.16669 
L 309.301745 227.925217 
L 310.893635 224.590711 
L 312.485524 221.781689 
L 313.281469 220.748899 
L 314.077414 220.128428 
L 314.873358 220.073235 
L 315.669303 220.698571 
L 316.465248 222.016827 
L 318.057137 226.055178 
L 318.853082 228.145144 
L 319.649026 229.835432 
L 320.444971 230.936708 
L 321.240916 231.475429 
L 322.832805 231.993948 
L 323.62875 232.753396 
L 324.424694 234.216316 
L 325.220639 236.361903 
L 326.812528 241.304557 
L 327.608473 243.081647 
L 328.404418 243.853891 
L 329.200363 243.554264 
L 329.996307 242.457044 
L 330.792252 241.09874 
L 331.588197 240.103647 
L 332.384141 239.974715 
L 333.180086 240.924219 
L 333.976031 242.805171 
L 335.56792 247.419513 
L 336.363865 249.028849 
L 337.159809 249.699356 
L 337.955754 249.451542 
L 340.343588 246.79798 
L 341.139533 246.553128 
L 341.935477 246.838508 
L 343.527367 248.101559 
L 344.323311 248.511081 
L 345.119256 248.556771 
L 345.915201 248.286287 
L 347.50709 247.536475 
L 348.303035 247.400927 
L 350.690869 247.648167 
L 351.486814 247.413202 
L 352.282758 246.874541 
L 353.874648 245.407651 
L 354.670592 244.90267 
L 355.466537 244.756173 
L 356.262482 244.960529 
L 357.854371 245.784732 
L 358.650316 246.016038 
L 359.44626 246.003014 
L 361.03815 245.678314 
L 361.834095 245.765934 
L 362.630039 246.216832 
L 363.425984 247.007754 
L 365.017873 248.822427 
L 365.813818 249.343095 
L 366.609763 249.400742 
L 367.405707 249.03368 
L 369.793541 247.252185 
L 371.385431 246.53863 
L 372.181375 246.004107 
L 372.97732 245.116083 
L 375.365154 241.367557 
L 376.161099 240.987878 
L 376.957043 241.710259 
L 377.752988 243.636915 
L 378.548933 246.535426 
L 380.140822 253.003662 
L 380.936767 255.292131 
L 381.732712 256.377315 
L 382.528656 256.232855 
L 383.324601 255.155502 
L 384.91649 252.172853 
L 385.712435 251.092453 
L 386.50838 250.451385 
L 387.304324 250.043111 
L 388.100269 249.507842 
L 388.896214 248.497299 
L 389.692158 246.829673 
L 391.284048 242.047221 
L 392.079992 239.68782 
L 392.875937 237.918536 
L 393.671882 236.984849 
L 394.467827 236.86651 
L 396.059716 237.767622 
L 396.855661 237.856301 
L 397.651605 237.207803 
L 398.44755 235.7337 
L 400.835384 229.215427 
L 401.631329 227.845469 
L 402.427273 227.412143 
L 403.223218 227.889526 
L 404.019163 229.003813 
L 404.815107 230.322009 
L 405.611052 231.383619 
L 406.406997 231.831515 
L 407.202941 231.500825 
L 407.998886 230.441371 
L 409.590775 227.100017 
L 410.38672 225.411943 
L 411.182665 224.020956 
L 411.97861 223.040512 
L 412.774554 222.512413 
L 413.570499 222.457096 
L 413.570499 222.457096 
" clip-path="url(#p923363b332)" style="fill: none; stroke: #377eb8; stroke-width: 1.5; stroke-linecap: square"/>
   </g>
   <g id="line2d_15">
    <path d="M 87.233179 318.04 
L 87.233179 71.732 
" clip-path="url(#p923363b332)" style="fill: none; stroke: #000000; stroke-width: 0.5; stroke-linecap: square"/>
   </g>
   <g id="line2d_16">
    <path d="M 46.64 231.25244 
L 413.570499 231.25244 
" clip-path="url(#p923363b332)" style="fill: none; stroke: #000000; stroke-width: 0.5; stroke-linecap: square"/>
   </g>
   <g id="patch_4">
    <path d="M 46.64 318.04 
L 46.64 71.732 
" style="fill: none; stroke: #000000; stroke-width: 0.8; stroke-linejoin: miter; stroke-linecap: square"/>
   </g>
   <g id="patch_5">
    <path d="M 413.570499 318.04 
L 413.570499 71.732 
" style="fill: none; stroke: #000000; stroke-width: 0.8; stroke-linejoin: miter; stroke-linecap: square"/>
   </g>
   <g id="patch_6">
    <path d="M 46.64 318.04 
L 413.570499 318.04 
" style="fill: none; stroke: #000000; stroke-width: 0.8; stroke-linejoin: miter; stroke-linecap: square"/>
   </g>
   <g id="patch_7">
    <path d="M 46.64 71.732 
L 413.570499 71.732 
" style="fill: none; stroke: #000000; stroke-width: 0.8; stroke-linejoin: miter; stroke-linecap: square"/>
   </g>
   <g id="text_15">
    <!-- Cz -->
    <g transform="translate(222.766499 65.732)scale(0.12 -0.12)">
     <defs>
      <path id="DejaVuSans-43" d="M 4122 4306 
L 4122 3641 
Q 3803 3938 3442 4084 
Q 3081 4231 2675 4231 
Q 1875 4231 1450 3742 
Q 1025 3253 1025 2328 
Q 1025 1406 1450 917 
Q 1875 428 2675 428 
Q 3081 428 3442 575 
Q 3803 722 4122 1019 
L 4122 359 
Q 3791 134 3420 21 
Q 3050 -91 2638 -91 
Q 1578 -91 968 557 
Q 359 1206 359 2328 
Q 359 3453 968 4101 
Q 1578 4750 2638 4750 
Q 3056 4750 3426 4639 
Q 3797 4528 4122 4306 
z
" transform="scale(0.015625)"/>
      <path id="DejaVuSans-7a" d="M 353 3500 
L 3084 3500 
L 3084 2975 
L 922 459 
L 3084 459 
L 3084 0 
L 275 0 
L 275 525 
L 2438 3041 
L 353 3041 
L 353 3500 
z
" transform="scale(0.015625)"/>
     </defs>
     <use xlink:href="#DejaVuSans-43"/>
     <use xlink:href="#DejaVuSans-7a" x="69.824219"/>
    </g>
   </g>
   <g id="legend_1">
    <g id="patch_8">
     <path d="M 99.877906 48.500845 
L 360.332593 48.500845 
Q 362.332593 48.500845 362.332593 46.500845 
L 362.332593 18.144595 
Q 362.332593 16.144595 360.332593 16.144595 
L 99.877906 16.144595 
Q 97.877906 16.144595 97.877906 18.144595 
L 97.877906 46.500845 
Q 97.877906 48.500845 99.877906 48.500845 
z
" style="fill: #ffffff; opacity: 0.8; stroke: #cccccc; stroke-linejoin: miter"/>
    </g>
    <g id="text_16">
     <!-- Average of Session 17 -->
     <g transform="translate(174.545874 27.743033)scale(0.1 -0.1)">
      <defs>
       <path id="DejaVuSans-41" d="M 2188 4044 
L 1331 1722 
L 3047 1722 
L 2188 4044 
z
M 1831 4666 
L 2547 4666 
L 4325 0 
L 3669 0 
L 3244 1197 
L 1141 1197 
L 716 0 
L 50 0 
L 1831 4666 
z
" transform="scale(0.015625)"/>
       <path id="DejaVuSans-76" d="M 191 3500 
L 800 3500 
L 1894 563 
L 2988 3500 
L 3597 3500 
L 2284 0 
L 1503 0 
L 191 3500 
z
" transform="scale(0.015625)"/>
       <path id="DejaVuSans-72" d="M 2631 2963 
Q 2534 3019 2420 3045 
Q 2306 3072 2169 3072 
Q 1681 3072 1420 2755 
Q 1159 2438 1159 1844 
L 1159 0 
L 581 0 
L 581 3500 
L 1159 3500 
L 1159 2956 
Q 1341 3275 1631 3429 
Q 1922 3584 2338 3584 
Q 2397 3584 2469 3576 
Q 2541 3569 2628 3553 
L 2631 2963 
z
" transform="scale(0.015625)"/>
       <path id="DejaVuSans-61" d="M 2194 1759 
Q 1497 1759 1228 1600 
Q 959 1441 959 1056 
Q 959 750 1161 570 
Q 1363 391 1709 391 
Q 2188 391 2477 730 
Q 2766 1069 2766 1631 
L 2766 1759 
L 2194 1759 
z
M 3341 1997 
L 3341 0 
L 2766 0 
L 2766 531 
Q 2569 213 2275 61 
Q 1981 -91 1556 -91 
Q 1019 -91 701 211 
Q 384 513 384 1019 
Q 384 1609 779 1909 
Q 1175 2209 1959 2209 
L 2766 2209 
L 2766 2266 
Q 2766 2663 2505 2880 
Q 2244 3097 1772 3097 
Q 1472 3097 1187 3025 
Q 903 2953 641 2809 
L 641 3341 
Q 956 3463 1253 3523 
Q 1550 3584 1831 3584 
Q 2591 3584 2966 3190 
Q 3341 2797 3341 1997 
z
" transform="scale(0.015625)"/>
       <path id="DejaVuSans-67" d="M 2906 1791 
Q 2906 2416 2648 2759 
Q 2391 3103 1925 3103 
Q 1463 3103 1205 2759 
Q 947 2416 947 1791 
Q 947 1169 1205 825 
Q 1463 481 1925 481 
Q 2391 481 2648 825 
Q 2906 1169 2906 1791 
z
M 3481 434 
Q 3481 -459 3084 -895 
Q 2688 -1331 1869 -1331 
Q 1566 -1331 1297 -1286 
Q 1028 -1241 775 -1147 
L 775 -588 
Q 1028 -725 1275 -790 
Q 1522 -856 1778 -856 
Q 2344 -856 2625 -561 
Q 2906 -266 2906 331 
L 2906 616 
Q 2728 306 2450 153 
Q 2172 0 1784 0 
Q 1141 0 747 490 
Q 353 981 353 1791 
Q 353 2603 747 3093 
Q 1141 3584 1784 3584 
Q 2172 3584 2450 3431 
Q 2728 3278 2906 2969 
L 2906 3500 
L 3481 3500 
L 3481 434 
z
" transform="scale(0.015625)"/>
       <path id="DejaVuSans-20" transform="scale(0.015625)"/>
       <path id="DejaVuSans-66" d="M 2375 4863 
L 2375 4384 
L 1825 4384 
Q 1516 4384 1395 4259 
Q 1275 4134 1275 3809 
L 1275 3500 
L 2222 3500 
L 2222 3053 
L 1275 3053 
L 1275 0 
L 697 0 
L 697 3053 
L 147 3053 
L 147 3500 
L 697 3500 
L 697 3744 
Q 697 4328 969 4595 
Q 1241 4863 1831 4863 
L 2375 4863 
z
" transform="scale(0.015625)"/>
       <path id="DejaVuSans-53" d="M 3425 4513 
L 3425 3897 
Q 3066 4069 2747 4153 
Q 2428 4238 2131 4238 
Q 1616 4238 1336 4038 
Q 1056 3838 1056 3469 
Q 1056 3159 1242 3001 
Q 1428 2844 1947 2747 
L 2328 2669 
Q 3034 2534 3370 2195 
Q 3706 1856 3706 1288 
Q 3706 609 3251 259 
Q 2797 -91 1919 -91 
Q 1588 -91 1214 -16 
Q 841 59 441 206 
L 441 856 
Q 825 641 1194 531 
Q 1563 422 1919 422 
Q 2459 422 2753 634 
Q 3047 847 3047 1241 
Q 3047 1584 2836 1778 
Q 2625 1972 2144 2069 
L 1759 2144 
Q 1053 2284 737 2584 
Q 422 2884 422 3419 
Q 422 4038 858 4394 
Q 1294 4750 2059 4750 
Q 2388 4750 2728 4690 
Q 3069 4631 3425 4513 
z
" transform="scale(0.015625)"/>
       <path id="DejaVuSans-69" d="M 603 3500 
L 1178 3500 
L 1178 0 
L 603 0 
L 603 3500 
z
M 603 4863 
L 1178 4863 
L 1178 4134 
L 603 4134 
L 603 4863 
z
" transform="scale(0.015625)"/>
       <path id="DejaVuSans-37" d="M 525 4666 
L 3525 4666 
L 3525 4397 
L 1831 0 
L 1172 0 
L 2766 4134 
L 525 4134 
L 525 4666 
z
" transform="scale(0.015625)"/>
      </defs>
      <use xlink:href="#DejaVuSans-41"/>
      <use xlink:href="#DejaVuSans-76" x="62.533203"/>
      <use xlink:href="#DejaVuSans-65" x="121.712891"/>
      <use xlink:href="#DejaVuSans-72" x="183.236328"/>
      <use xlink:href="#DejaVuSans-61" x="224.349609"/>
      <use xlink:href="#DejaVuSans-67" x="285.628906"/>
      <use xlink:href="#DejaVuSans-65" x="349.105469"/>
      <use xlink:href="#DejaVuSans-20" x="410.628906"/>
      <use xlink:href="#DejaVuSans-6f" x="442.416016"/>
      <use xlink:href="#DejaVuSans-66" x="503.597656"/>
      <use xlink:href="#DejaVuSans-20" x="538.802734"/>
      <use xlink:href="#DejaVuSans-53" x="570.589844"/>
      <use xlink:href="#DejaVuSans-65" x="634.066406"/>
      <use xlink:href="#DejaVuSans-73" x="695.589844"/>
      <use xlink:href="#DejaVuSans-73" x="747.689453"/>
      <use xlink:href="#DejaVuSans-69" x="799.789062"/>
      <use xlink:href="#DejaVuSans-6f" x="827.572266"/>
      <use xlink:href="#DejaVuSans-6e" x="888.753906"/>
      <use xlink:href="#DejaVuSans-20" x="952.132812"/>
      <use xlink:href="#DejaVuSans-31" x="983.919922"/>
      <use xlink:href="#DejaVuSans-37" x="1047.542969"/>
     </g>
    </g>
    <g id="line2d_17">
     <path d="M 101.877906 38.921158 
L 111.877906 38.921158 
L 121.877906 38.921158 
" style="fill: none; stroke: #e41a1c; stroke-width: 1.5; stroke-linecap: square"/>
    </g>
    <g id="text_17">
     <!-- Target (n=304) -->
     <g transform="translate(129.877906 42.421158)scale(0.1 -0.1)">
      <defs>
       <path id="DejaVuSans-54" d="M -19 4666 
L 3928 4666 
L 3928 4134 
L 2272 4134 
L 2272 0 
L 1638 0 
L 1638 4134 
L -19 4134 
L -19 4666 
z
" transform="scale(0.015625)"/>
       <path id="DejaVuSans-74" d="M 1172 4494 
L 1172 3500 
L 2356 3500 
L 2356 3053 
L 1172 3053 
L 1172 1153 
Q 1172 725 1289 603 
Q 1406 481 1766 481 
L 2356 481 
L 2356 0 
L 1766 0 
Q 1100 0 847 248 
Q 594 497 594 1153 
L 594 3053 
L 172 3053 
L 172 3500 
L 594 3500 
L 594 4494 
L 1172 4494 
z
" transform="scale(0.015625)"/>
       <path id="DejaVuSans-28" d="M 1984 4856 
Q 1566 4138 1362 3434 
Q 1159 2731 1159 2009 
Q 1159 1288 1364 580 
Q 1569 -128 1984 -844 
L 1484 -844 
Q 1016 -109 783 600 
Q 550 1309 550 2009 
Q 550 2706 781 3412 
Q 1013 4119 1484 4856 
L 1984 4856 
z
" transform="scale(0.015625)"/>
       <path id="DejaVuSans-3d" d="M 678 2906 
L 4684 2906 
L 4684 2381 
L 678 2381 
L 678 2906 
z
M 678 1631 
L 4684 1631 
L 4684 1100 
L 678 1100 
L 678 1631 
z
" transform="scale(0.015625)"/>
       <path id="DejaVuSans-29" d="M 513 4856 
L 1013 4856 
Q 1481 4119 1714 3412 
Q 1947 2706 1947 2009 
Q 1947 1309 1714 600 
Q 1481 -109 1013 -844 
L 513 -844 
Q 928 -128 1133 580 
Q 1338 1288 1338 2009 
Q 1338 2731 1133 3434 
Q 928 4138 513 4856 
z
" transform="scale(0.015625)"/>
      </defs>
      <use xlink:href="#DejaVuSans-54"/>
      <use xlink:href="#DejaVuSans-61" x="44.583984"/>
      <use xlink:href="#DejaVuSans-72" x="105.863281"/>
      <use xlink:href="#DejaVuSans-67" x="145.226562"/>
      <use xlink:href="#DejaVuSans-65" x="208.703125"/>
      <use xlink:href="#DejaVuSans-74" x="270.226562"/>
      <use xlink:href="#DejaVuSans-20" x="309.435547"/>
      <use xlink:href="#DejaVuSans-28" x="341.222656"/>
      <use xlink:href="#DejaVuSans-6e" x="380.236328"/>
      <use xlink:href="#DejaVuSans-3d" x="443.615234"/>
      <use xlink:href="#DejaVuSans-33" x="527.404297"/>
      <use xlink:href="#DejaVuSans-30" x="591.027344"/>
      <use xlink:href="#DejaVuSans-34" x="654.650391"/>
      <use xlink:href="#DejaVuSans-29" x="718.273438"/>
     </g>
    </g>
    <g id="line2d_18">
     <path d="M 225.607593 38.921158 
L 235.607593 38.921158 
L 245.607593 38.921158 
" style="fill: none; stroke: #377eb8; stroke-width: 1.5; stroke-linecap: square"/>
    </g>
    <g id="text_18">
     <!-- Non-Target (n=1517) -->
     <g transform="translate(253.607593 42.421158)scale(0.1 -0.1)">
      <defs>
       <path id="DejaVuSans-4e" d="M 628 4666 
L 1478 4666 
L 3547 763 
L 3547 4666 
L 4159 4666 
L 4159 0 
L 3309 0 
L 1241 3903 
L 1241 0 
L 628 0 
L 628 4666 
z
" transform="scale(0.015625)"/>
       <path id="DejaVuSans-2d" d="M 313 2009 
L 1997 2009 
L 1997 1497 
L 313 1497 
L 313 2009 
z
" transform="scale(0.015625)"/>
       <path id="DejaVuSans-35" d="M 691 4666 
L 3169 4666 
L 3169 4134 
L 1269 4134 
L 1269 2991 
Q 1406 3038 1543 3061 
Q 1681 3084 1819 3084 
Q 2600 3084 3056 2656 
Q 3513 2228 3513 1497 
Q 3513 744 3044 326 
Q 2575 -91 1722 -91 
Q 1428 -91 1123 -41 
Q 819 9 494 109 
L 494 744 
Q 775 591 1075 516 
Q 1375 441 1709 441 
Q 2250 441 2565 725 
Q 2881 1009 2881 1497 
Q 2881 1984 2565 2268 
Q 2250 2553 1709 2553 
Q 1456 2553 1204 2497 
Q 953 2441 691 2322 
L 691 4666 
z
" transform="scale(0.015625)"/>
      </defs>
      <use xlink:href="#DejaVuSans-4e"/>
      <use xlink:href="#DejaVuSans-6f" x="74.804688"/>
      <use xlink:href="#DejaVuSans-6e" x="135.986328"/>
      <use xlink:href="#DejaVuSans-2d" x="199.365234"/>
      <use xlink:href="#DejaVuSans-54" x="226.324219"/>
      <use xlink:href="#DejaVuSans-61" x="270.908203"/>
      <use xlink:href="#DejaVuSans-72" x="332.1875"/>
      <use xlink:href="#DejaVuSans-67" x="371.550781"/>
      <use xlink:href="#DejaVuSans-65" x="435.027344"/>
      <use xlink:href="#DejaVuSans-74" x="496.550781"/>
      <use xlink:href="#DejaVuSans-20" x="535.759766"/>
      <use xlink:href="#DejaVuSans-28" x="567.546875"/>
      <use xlink:href="#DejaVuSans-6e" x="606.560547"/>
      <use xlink:href="#DejaVuSans-3d" x="669.939453"/>
      <use xlink:href="#DejaVuSans-31" x="753.728516"/>
      <use xlink:href="#DejaVuSans-35" x="817.351562"/>
      <use xlink:href="#DejaVuSans-31" x="880.974609"/>
      <use xlink:href="#DejaVuSans-37" x="944.597656"/>
      <use xlink:href="#DejaVuSans-29" x="1008.220703"/>
     </g>
    </g>
   </g>
  </g>
 </g>
 <defs>
  <clipPath id="p923363b332">
   <rect x="46.64" y="71.732" width="366.930499" height="246.308"/>
  </clipPath>
 </defs>
</svg>
