<?xml version="1.0" encoding="utf-8" standalone="no"?>
<!DOCTYPE svg PUBLIC "-//W3C//DTD SVG 1.1//EN"
  "http://www.w3.org/Graphics/SVG/1.1/DTD/svg11.dtd">
<svg xmlns:xlink="http://www.w3.org/1999/xlink" width="432pt" height="360pt" viewBox="0 0 432 360" xmlns="http://www.w3.org/2000/svg" version="1.1">
 <metadata>
  <rdf:RDF xmlns:dc="http://purl.org/dc/elements/1.1/" xmlns:cc="http://creativecommons.org/ns#" xmlns:rdf="http://www.w3.org/1999/02/22-rdf-syntax-ns#">
   <cc:Work>
    <dc:type rdf:resource="http://purl.org/dc/dcmitype/StillImage"/>
    <dc:date>2022-05-19T11:52:44.695856</dc:date>
    <dc:format>image/svg+xml</dc:format>
    <dc:creator>
     <cc:Agent>
      <dc:title>Matplotlib v3.5.1, https://matplotlib.org/</dc:title>
     </cc:Agent>
    </dc:creator>
   </cc:Work>
  </rdf:RDF>
 </metadata>
 <defs>
  <style type="text/css">*{stroke-linejoin: round; stroke-linecap: butt}</style>
 </defs>
 <g id="figure_1">
  <g id="patch_1">
   <path d="M 0 360 
L 432 360 
L 432 0 
L 0 0 
L 0 360 
z
" style="fill: none"/>
  </g>
  <g id="axes_1">
   <g id="patch_2">
    <path d="M 46.55 318.04 
L 413.570499 318.04 
L 413.570499 71.732 
L 46.55 71.732 
L 46.55 318.04 
z
" style="fill: none"/>
   </g>
   <g id="PolyCollection_1">
    <defs>
     <path id="m253492cf0d" d="M 46.55 -128.55754 
L 46.55 -93.52749 
L 47.34614 -93.080067 
L 48.14228 -92.326109 
L 48.93842 -91.646944 
L 49.73456 -91.448881 
L 50.5307 -92.063359 
L 51.326839 -93.678194 
L 52.122979 -96.262148 
L 52.919119 -99.515488 
L 53.715259 -102.912338 
L 54.511399 -105.839535 
L 55.307539 -107.77089 
L 56.103679 -108.405566 
L 56.899819 -107.729942 
L 57.695959 -106.000259 
L 58.492099 -103.663515 
L 59.288239 -101.238797 
L 60.084378 -99.188892 
L 60.880518 -97.821464 
L 61.676658 -97.256077 
L 62.472798 -97.464712 
L 63.268938 -98.33571 
L 64.065078 -99.684111 
L 64.861218 -101.208296 
L 65.657358 -102.488316 
L 66.453498 -103.10368 
L 67.249638 -102.832446 
L 68.045778 -101.777788 
L 68.841918 -100.298251 
L 69.638057 -98.795955 
L 70.434197 -97.524498 
L 71.230337 -96.547953 
L 72.026477 -95.867634 
L 72.822617 -95.542032 
L 73.618757 -95.619601 
L 74.414897 -95.999513 
L 75.211037 -96.427932 
L 76.007177 -96.645543 
L 76.803317 -96.548754 
L 77.599457 -96.216062 
L 78.395596 -95.792095 
L 79.191736 -95.367982 
L 79.987876 -94.97145 
L 80.784016 -94.640516 
L 81.580156 -94.464794 
L 82.376296 -94.537483 
L 83.172436 -94.879815 
L 83.968576 -95.415449 
L 84.764716 -96.00323 
L 85.560856 -96.48652 
L 86.356996 -96.721182 
L 87.153135 -96.579735 
L 87.949275 -95.953448 
L 88.745415 -94.770661 
L 89.541555 -93.037131 
L 90.337695 -90.886372 
L 91.133835 -88.599009 
L 91.929975 -86.547319 
L 92.726115 -85.075838 
L 93.522255 -84.382839 
L 94.318395 -84.464384 
L 95.114535 -85.145484 
L 95.910674 -86.179834 
L 96.706814 -87.356744 
L 97.502954 -88.54298 
L 98.299094 -89.643423 
L 99.095234 -90.539956 
L 99.891374 -91.08136 
L 100.687514 -91.147434 
L 101.483654 -90.745146 
L 102.279794 -90.057987 
L 103.075934 -89.400004 
L 103.872074 -89.100194 
L 104.668213 -89.378852 
L 105.464353 -90.258742 
L 106.260493 -91.539064 
L 107.056633 -92.863339 
L 107.852773 -93.8846 
L 108.648913 -94.453155 
L 109.445053 -94.703369 
L 110.241193 -94.984939 
L 111.037333 -95.702383 
L 111.833473 -97.16496 
L 112.629613 -99.500373 
L 113.425753 -102.6136 
L 114.221892 -106.153716 
L 115.018032 -109.51493 
L 115.814172 -111.939417 
L 116.610312 -112.729403 
L 117.406452 -111.489835 
L 118.202592 -108.293851 
L 118.998732 -103.69229 
L 119.794872 -98.548896 
L 120.591012 -93.756738 
L 121.387152 -89.950227 
L 122.183292 -87.33154 
L 122.979431 -85.670458 
L 123.775571 -84.454455 
L 124.571711 -83.117118 
L 125.367851 -81.269772 
L 126.163991 -78.868378 
L 126.960131 -76.250427 
L 127.756271 -74.008472 
L 128.552411 -72.744055 
L 129.348551 -72.817706 
L 130.144691 -74.217089 
L 130.940831 -76.598925 
L 131.73697 -79.45982 
L 132.53311 -82.322853 
L 133.32925 -84.847159 
L 134.12539 -86.848821 
L 134.92153 -88.276333 
L 135.71767 -89.179121 
L 136.51381 -89.671408 
L 137.30995 -89.872622 
L 138.10609 -89.832307 
L 138.90223 -89.489655 
L 139.69837 -88.713832 
L 140.494509 -87.422229 
L 141.290649 -85.718184 
L 142.086789 -83.954196 
L 142.882929 -82.650471 
L 143.679069 -82.29638 
L 144.475209 -83.151151 
L 145.271349 -85.156466 
L 146.067489 -88.001477 
L 146.863629 -91.296567 
L 147.659769 -94.749319 
L 148.455909 -98.235444 
L 149.252049 -101.737975 
L 150.048188 -105.223437 
L 150.844328 -108.547068 
L 151.640468 -111.433736 
L 152.436608 -113.529624 
L 153.232748 -114.500264 
L 154.028888 -114.151794 
L 154.825028 -112.544555 
L 155.621168 -110.051911 
L 156.417308 -107.321107 
L 157.213448 -105.128239 
L 158.009588 -104.165585 
L 158.805727 -104.831403 
L 159.601867 -107.09784 
L 160.398007 -110.509627 
L 161.194147 -114.319305 
L 161.990287 -117.710624 
L 162.786427 -120.027705 
L 163.582567 -120.932913 
L 164.378707 -120.454478 
L 165.174847 -118.929692 
L 165.970987 -116.87998 
L 166.767127 -114.864848 
L 167.563266 -113.355456 
L 168.359406 -112.652021 
L 169.155546 -112.8515 
L 169.951686 -113.859962 
L 170.747826 -115.437219 
L 171.543966 -117.255241 
L 172.340106 -118.951937 
L 173.136246 -120.17811 
L 173.932386 -120.657399 
L 174.728526 -120.274852 
L 175.524666 -119.168403 
L 176.320805 -117.757287 
L 177.116945 -116.658267 
L 177.913085 -116.510533 
L 178.709225 -117.781485 
L 179.505365 -120.618872 
L 180.301505 -124.783394 
L 181.097645 -129.676535 
L 181.893785 -134.466505 
L 182.689925 -138.290243 
L 183.486065 -140.476802 
L 184.282205 -140.726784 
L 185.078344 -139.202506 
L 185.874484 -136.504767 
L 186.670624 -133.516898 
L 187.466764 -131.123703 
L 188.262904 -129.891297 
L 189.059044 -129.857916 
L 189.855184 -130.554336 
L 190.651324 -131.251934 
L 191.447464 -131.300392 
L 192.243604 -130.373383 
L 193.039744 -128.537233 
L 193.835884 -126.181663 
L 194.632023 -123.887183 
L 195.428163 -122.278805 
L 196.224303 -121.887879 
L 197.020443 -123.027146 
L 197.816583 -125.691076 
L 198.612723 -129.520865 
L 199.408863 -133.876785 
L 200.205003 -138.013705 
L 201.001143 -141.290918 
L 201.797283 -143.321521 
L 202.593423 -144.010721 
L 203.389562 -143.512463 
L 204.185702 -142.1717 
L 204.981842 -140.480719 
L 205.777982 -139.013009 
L 206.574122 -138.29541 
L 207.370262 -138.653052 
L 208.166402 -140.11729 
L 208.962542 -142.452441 
L 209.758682 -145.26828 
L 210.554822 -148.13163 
L 211.350962 -150.628817 
L 212.147101 -152.409734 
L 212.943241 -153.262937 
L 213.739381 -153.215976 
L 214.535521 -152.58861 
L 215.331661 -151.917852 
L 216.127801 -151.755832 
L 216.923941 -152.448356 
L 217.720081 -154.019852 
L 218.516221 -156.205397 
L 219.312361 -158.573795 
L 220.108501 -160.662844 
L 220.90464 -162.094274 
L 221.70078 -162.672692 
L 222.49692 -162.458137 
L 223.29306 -161.769039 
L 224.0892 -161.076167 
L 224.88534 -160.81132 
L 225.68148 -161.187468 
L 226.47762 -162.129134 
L 227.27376 -163.337687 
L 228.0699 -164.436635 
L 228.86604 -165.115779 
L 229.66218 -165.220476 
L 230.458319 -164.773434 
L 231.254459 -163.939951 
L 232.050599 -162.953584 
L 232.846739 -162.022868 
L 233.642879 -161.24929 
L 234.439019 -160.592997 
L 235.235159 -159.907742 
L 236.031299 -159.028912 
L 236.827439 -157.863416 
L 237.623579 -156.429976 
L 238.419719 -154.83709 
L 239.215858 -153.229863 
L 240.011998 -151.748257 
L 240.808138 -150.516675 
L 241.604278 -149.657125 
L 242.400418 -149.307231 
L 243.196558 -149.626958 
L 243.992698 -150.781558 
L 244.788838 -152.894564 
L 245.584978 -155.981213 
L 246.381118 -159.890114 
L 247.177258 -164.281446 
L 247.973397 -168.656319 
L 248.769537 -172.441853 
L 249.565677 -175.129485 
L 250.361817 -176.443015 
L 251.157957 -176.477136 
L 251.954097 -175.725555 
L 252.750237 -174.947652 
L 253.546377 -174.90784 
L 254.342517 -176.103421 
L 255.138657 -178.603626 
L 255.934797 -182.052682 
L 256.730936 -185.807529 
L 257.527076 -189.144422 
L 258.323216 -191.475119 
L 259.119356 -192.521592 
L 259.915496 -192.395838 
L 260.711636 -191.544921 
L 261.507776 -190.570055 
L 262.303916 -189.992127 
L 263.100056 -190.069569 
L 263.896196 -190.748993 
L 264.692336 -191.756158 
L 265.488475 -192.760057 
L 266.284615 -193.518256 
L 267.080755 -193.949253 
L 267.876895 -194.131809 
L 268.673035 -194.255002 
L 269.469175 -194.539594 
L 270.265315 -195.15146 
L 271.061455 -196.141046 
L 271.857595 -197.445185 
L 272.653735 -198.955157 
L 273.449875 -200.603492 
L 274.246015 -202.402144 
L 275.042154 -204.403916 
L 275.838294 -206.620131 
L 276.634434 -208.95222 
L 277.430574 -211.174438 
L 278.226714 -212.974378 
L 279.022854 -214.041429 
L 279.818994 -214.181478 
L 280.615134 -213.414703 
L 281.411274 -212.000851 
L 282.207414 -210.365365 
L 283.003554 -208.958951 
L 283.799693 -208.11921 
L 284.595833 -207.986625 
L 285.391973 -208.485268 
L 286.188113 -209.35737 
L 286.984253 -210.24643 
L 287.780393 -210.820008 
L 288.576533 -210.895264 
L 289.372673 -210.507931 
L 290.168813 -209.882871 
L 290.964953 -209.318495 
L 291.761093 -209.046797 
L 292.557232 -209.137737 
L 293.353372 -209.484329 
L 294.149512 -209.863356 
L 294.945652 -210.037785 
L 295.741792 -209.853882 
L 296.537932 -209.289381 
L 297.334072 -208.432953 
L 298.130212 -207.412759 
L 298.926352 -206.31804 
L 299.722492 -205.151286 
L 300.518632 -203.823527 
L 301.314771 -202.191822 
L 302.110911 -200.135444 
L 302.907051 -197.652366 
L 303.703191 -194.9327 
L 304.499331 -192.358617 
L 305.295471 -190.409486 
L 306.091611 -189.504225 
L 306.887751 -189.852021 
L 307.683891 -191.37854 
L 308.480031 -193.75493 
L 309.276171 -196.510572 
L 310.072311 -199.179461 
L 310.86845 -201.422021 
L 311.66459 -203.078073 
L 312.46073 -204.137862 
L 313.25687 -204.655471 
L 314.05301 -204.655375 
L 314.84915 -204.083782 
L 315.64529 -202.831133 
L 316.44143 -200.814441 
L 317.23757 -198.076654 
L 318.03371 -194.847499 
L 318.82985 -191.522908 
L 319.625989 -188.556888 
L 320.422129 -186.304897 
L 321.218269 -184.886854 
L 322.014409 -184.134654 
L 322.810549 -183.656056 
L 323.606689 -182.998329 
L 324.402829 -181.848188 
L 325.198969 -180.179399 
L 325.995109 -178.277013 
L 326.791249 -176.627511 
L 327.587389 -175.730671 
L 328.383528 -175.914772 
L 329.179668 -177.214293 
L 329.975808 -179.33583 
L 330.771948 -181.723639 
L 331.568088 -183.723891 
L 332.364228 -184.807181 
L 333.160368 -184.756973 
L 333.956508 -183.723168 
L 334.752648 -182.111288 
L 335.548788 -180.382206 
L 336.344928 -178.877904 
L 337.141067 -177.736733 
L 337.937207 -176.88774 
L 338.733347 -176.093845 
L 339.529487 -175.037537 
L 340.325627 -173.443902 
L 341.121767 -171.198324 
L 341.917907 -168.392741 
L 342.714047 -165.270375 
L 343.510187 -162.110111 
L 344.306327 -159.127836 
L 345.102467 -156.443487 
L 345.898606 -154.108558 
L 346.694746 -152.157015 
L 347.490886 -150.642902 
L 348.287026 -149.643326 
L 349.083166 -149.224515 
L 349.879306 -149.390405 
L 350.675446 -150.04935 
L 351.471586 -151.028991 
L 352.267726 -152.140447 
L 353.063866 -153.260474 
L 353.860006 -154.386647 
L 354.656146 -155.633484 
L 355.452285 -157.167202 
L 356.248425 -159.106988 
L 357.044565 -161.437935 
L 357.840705 -163.976405 
L 358.636845 -166.403213 
L 359.432985 -168.349801 
L 360.229125 -169.507879 
L 361.025265 -169.733667 
L 361.821405 -169.117189 
L 362.617545 -167.98376 
L 363.413685 -166.807826 
L 364.209824 -166.057703 
L 365.005964 -166.031426 
L 365.802104 -166.755193 
L 366.598244 -167.986303 
L 367.394384 -169.314596 
L 368.190524 -170.320017 
L 368.986664 -170.728842 
L 369.782804 -170.511183 
L 370.578944 -169.877316 
L 371.375084 -169.1674 
L 372.171224 -168.680088 
L 372.967363 -168.519604 
L 373.763503 -168.533429 
L 374.559643 -168.368977 
L 375.355783 -167.623653 
L 376.151923 -166.025413 
L 376.948063 -163.572771 
L 377.744203 -160.579838 
L 378.540343 -157.604501 
L 379.336483 -155.279652 
L 380.132623 -154.106939 
L 380.928763 -154.290848 
L 381.724902 -155.674982 
L 382.521042 -157.798455 
L 383.317182 -160.043945 
L 384.113322 -161.824575 
L 384.909462 -162.755138 
L 385.705602 -162.758361 
L 386.501742 -162.067466 
L 387.297882 -161.117542 
L 388.094022 -160.370457 
L 388.890162 -160.155448 
L 389.686302 -160.591608 
L 390.482441 -161.59854 
L 391.278581 -162.954787 
L 392.074721 -164.36897 
L 392.870861 -165.557075 
L 393.667001 -166.321062 
L 394.463141 -166.599557 
L 395.259281 -166.456738 
L 396.055421 -166.016574 
L 396.851561 -165.397147 
L 397.647701 -164.691887 
L 398.443841 -163.988928 
L 399.239981 -163.386915 
L 400.03612 -162.987174 
L 400.83226 -162.873863 
L 401.6284 -163.091636 
L 402.42454 -163.613076 
L 403.22068 -164.296811 
L 404.01682 -164.87032 
L 404.81296 -164.98063 
L 405.6091 -164.312974 
L 406.40524 -162.718201 
L 407.20138 -160.276804 
L 407.99752 -157.273686 
L 408.793659 -154.112733 
L 409.589799 -151.215003 
L 410.385939 -148.923315 
L 411.182079 -147.417848 
L 411.978219 -146.65685 
L 412.774359 -146.374625 
L 413.570499 -146.159751 
L 413.570499 -225.051342 
L 413.570499 -225.051342 
L 412.774359 -225.302632 
L 411.978219 -225.283464 
L 411.182079 -225.440173 
L 410.385939 -226.176369 
L 409.589799 -227.712234 
L 408.793659 -229.995644 
L 407.99752 -232.715081 
L 407.20138 -235.418779 
L 406.40524 -237.683029 
L 405.6091 -239.243921 
L 404.81296 -240.03876 
L 404.01682 -240.168479 
L 403.22068 -239.830648 
L 402.42454 -239.256704 
L 401.6284 -238.655331 
L 400.83226 -238.163103 
L 400.03612 -237.824031 
L 399.239981 -237.618267 
L 398.443841 -237.522819 
L 397.647701 -237.552385 
L 396.851561 -237.743665 
L 396.055421 -238.101979 
L 395.259281 -238.562339 
L 394.463141 -238.992973 
L 393.667001 -239.228818 
L 392.870861 -239.119208 
L 392.074721 -238.591649 
L 391.278581 -237.721052 
L 390.482441 -236.756658 
L 389.686302 -236.056423 
L 388.890162 -235.936342 
L 388.094022 -236.511908 
L 387.297882 -237.622017 
L 386.501742 -238.870082 
L 385.705602 -239.75243 
L 384.909462 -239.822319 
L 384.113322 -238.845687 
L 383.317182 -236.906848 
L 382.521042 -234.419886 
L 381.724902 -232.022022 
L 380.928763 -230.375537 
L 380.132623 -229.953453 
L 379.336483 -230.89385 
L 378.540343 -232.972816 
L 377.744203 -235.694791 
L 376.948063 -238.460566 
L 376.151923 -240.754501 
L 375.355783 -242.289286 
L 374.559643 -243.060305 
L 373.763503 -243.294958 
L 372.967363 -243.324454 
L 372.171224 -243.435358 
L 371.375084 -243.76071 
L 370.578944 -244.246839 
L 369.782804 -244.69789 
L 368.986664 -244.874291 
L 368.190524 -244.609182 
L 367.394384 -243.900887 
L 366.598244 -242.940454 
L 365.802104 -242.053154 
L 365.005964 -241.572244 
L 364.209824 -241.699356 
L 363.413685 -242.412292 
L 362.617545 -243.45547 
L 361.821405 -244.412694 
L 361.025265 -244.837315 
L 360.229125 -244.400675 
L 359.432985 -243.007653 
L 358.636845 -240.828268 
L 357.840705 -238.224994 
L 357.044565 -235.607712 
L 356.248425 -233.286527 
L 355.452285 -231.388898 
L 354.656146 -229.866489 
L 353.860006 -228.570529 
L 353.063866 -227.34992 
L 352.267726 -226.128435 
L 351.471586 -224.935408 
L 350.675446 -223.888402 
L 349.879306 -223.146552 
L 349.083166 -222.859803 
L 348.287026 -223.131592 
L 347.490886 -224.001585 
L 346.694746 -225.448078 
L 345.898606 -227.403694 
L 345.102467 -229.771849 
L 344.306327 -232.432572 
L 343.510187 -235.238877 
L 342.714047 -238.017291 
L 341.917907 -240.583437 
L 341.121767 -242.768872 
L 340.325627 -244.4492 
L 339.529487 -245.574841 
L 338.733347 -246.210689 
L 337.937207 -246.564081 
L 337.141067 -246.950747 
L 336.344928 -247.673126 
L 335.548788 -248.861107 
L 334.752648 -250.377287 
L 333.956508 -251.854746 
L 333.160368 -252.841955 
L 332.364228 -252.969889 
L 331.568088 -252.076382 
L 330.771948 -250.27195 
L 329.975808 -247.941816 
L 329.179668 -245.660969 
L 328.383528 -244.017055 
L 327.587389 -243.399457 
L 326.791249 -243.858971 
L 325.995109 -245.116525 
L 325.198969 -246.713986 
L 324.402829 -248.222795 
L 323.606689 -249.411585 
L 322.810549 -250.314609 
L 322.014409 -251.193015 
L 321.218269 -252.413417 
L 320.422129 -254.28866 
L 319.625989 -256.93987 
L 318.82985 -260.233785 
L 318.03371 -263.818084 
L 317.23757 -267.235217 
L 316.44143 -270.064968 
L 315.64529 -272.038852 
L 314.84915 -273.084702 
L 314.05301 -273.291287 
L 313.25687 -272.81899 
L 312.46073 -271.806426 
L 311.66459 -270.32135 
L 310.86845 -268.377762 
L 310.072311 -266.005063 
L 309.276171 -263.328458 
L 308.480031 -260.613068 
L 307.683891 -258.239323 
L 306.887751 -256.60967 
L 306.091611 -256.022542 
L 305.295471 -256.568428 
L 304.499331 -258.092914 
L 303.703191 -260.241545 
L 302.907051 -262.571477 
L 302.110911 -264.694786 
L 301.314771 -266.40473 
L 300.518632 -267.731723 
L 299.722492 -268.894303 
L 298.926352 -270.157831 
L 298.130212 -271.669436 
L 297.334072 -273.360088 
L 296.537932 -274.967312 
L 295.741792 -276.16009 
L 294.945652 -276.695976 
L 294.149512 -276.535496 
L 293.353372 -275.867058 
L 292.557232 -275.035396 
L 291.761093 -274.404436 
L 290.964953 -274.212929 
L 290.168813 -274.485589 
L 289.372673 -275.035389 
L 288.576533 -275.548888 
L 287.780393 -275.716575 
L 286.984253 -275.364101 
L 286.188113 -274.540958 
L 285.391973 -273.524828 
L 284.595833 -272.721621 
L 283.799693 -272.491349 
L 283.003554 -272.981924 
L 282.207414 -274.060534 
L 281.411274 -275.375113 
L 280.615134 -276.498367 
L 279.818994 -277.072182 
L 279.022854 -276.897217 
L 278.226714 -275.957003 
L 277.430574 -274.387229 
L 276.634434 -272.405489 
L 275.838294 -270.228423 
L 275.042154 -268.015401 
L 274.246015 -265.864534 
L 273.449875 -263.847744 
L 272.653735 -262.042821 
L 271.857595 -260.532193 
L 271.061455 -259.375996 
L 270.265315 -258.585474 
L 269.469175 -258.106722 
L 268.673035 -257.811776 
L 267.876895 -257.508133 
L 267.080755 -256.989837 
L 266.284615 -256.130846 
L 265.488475 -254.976578 
L 264.692336 -253.767133 
L 263.896196 -252.856712 
L 263.100056 -252.56084 
L 262.303916 -253.009215 
L 261.507776 -254.068747 
L 260.711636 -255.355787 
L 259.915496 -256.325739 
L 259.119356 -256.418697 
L 258.323216 -255.232854 
L 257.527076 -252.6821 
L 256.730936 -249.07635 
L 255.934797 -245.067409 
L 255.138657 -241.452106 
L 254.342517 -238.901224 
L 253.546377 -237.731714 
L 252.750237 -237.815722 
L 251.954097 -238.641853 
L 251.157957 -239.478055 
L 250.361817 -239.572991 
L 249.565677 -238.354208 
L 248.769537 -235.589053 
L 247.973397 -231.458092 
L 247.177258 -226.496935 
L 246.381118 -221.417224 
L 245.584978 -216.882395 
L 244.788838 -213.335353 
L 243.992698 -210.938925 
L 243.196558 -209.625161 
L 242.400418 -209.202019 
L 241.604278 -209.45739 
L 240.808138 -210.218751 
L 240.011998 -211.355459 
L 239.215858 -212.742421 
L 238.419719 -214.226481 
L 237.623579 -215.631271 
L 236.827439 -216.801978 
L 236.031299 -217.658703 
L 235.235159 -218.224726 
L 234.439019 -218.617265 
L 233.642879 -219.006485 
L 232.846739 -219.552163 
L 232.050599 -220.329907 
L 231.254459 -221.272231 
L 230.458319 -222.162321 
L 229.66218 -222.705766 
L 228.86604 -222.661875 
L 228.0699 -221.971237 
L 227.27376 -220.808379 
L 226.47762 -219.52657 
L 225.68148 -218.521864 
L 224.88534 -218.084216 
L 224.0892 -218.29625 
L 223.29306 -219.000356 
L 222.49692 -219.827392 
L 221.70078 -220.285838 
L 220.90464 -219.916372 
L 220.108501 -218.480239 
L 219.312361 -216.09274 
L 218.516221 -213.210685 
L 217.720081 -210.459307 
L 216.923941 -208.385899 
L 216.127801 -207.272942 
L 215.331661 -207.088545 
L 214.535521 -207.548264 
L 213.739381 -208.213147 
L 212.943241 -208.585769 
L 212.147101 -208.223029 
L 211.350962 -206.87754 
L 210.554822 -204.613291 
L 209.758682 -201.811972 
L 208.962542 -199.041111 
L 208.166402 -196.846251 
L 207.370262 -195.583209 
L 206.574122 -195.367713 
L 205.777982 -196.115867 
L 204.981842 -197.590144 
L 204.185702 -199.406016 
L 203.389562 -201.038471 
L 202.593423 -201.900545 
L 201.797283 -201.502551 
L 201.001143 -199.613625 
L 200.205003 -196.340487 
L 199.408863 -192.104209 
L 198.612723 -187.551769 
L 197.816583 -183.437487 
L 197.020443 -180.476881 
L 196.224303 -179.170282 
L 195.428163 -179.633076 
L 194.632023 -181.514556 
L 193.835884 -184.081289 
L 193.039744 -186.463614 
L 192.243604 -187.96926 
L 191.447464 -188.326046 
L 190.651324 -187.743923 
L 189.855184 -186.77402 
L 189.059044 -186.055914 
L 188.262904 -186.094114 
L 187.466764 -187.134426 
L 186.670624 -189.11699 
L 185.874484 -191.67223 
L 185.078344 -194.16894 
L 184.282205 -195.84918 
L 183.486065 -196.051833 
L 182.689925 -194.44743 
L 181.893785 -191.167969 
L 181.097645 -186.770735 
L 180.301505 -182.062672 
L 179.505365 -177.860007 
L 178.709225 -174.764928 
L 177.913085 -173.029246 
L 177.116945 -172.544453 
L 176.320805 -172.944244 
L 175.524666 -173.755114 
L 174.728526 -174.524139 
L 173.932386 -174.897151 
L 173.136246 -174.666779 
L 172.340106 -173.806726 
L 171.543966 -172.475349 
L 170.747826 -170.96927 
L 169.951686 -169.640473 
L 169.155546 -168.810781 
L 168.359406 -168.704781 
L 167.563266 -169.400322 
L 166.767127 -170.792705 
L 165.970987 -172.583272 
L 165.174847 -174.313092 
L 164.378707 -175.453055 
L 163.582567 -175.538346 
L 162.786427 -174.311844 
L 161.990287 -171.827758 
L 161.194147 -168.471948 
L 160.398007 -164.882484 
L 159.601867 -161.790943 
L 158.805727 -159.830594 
L 158.009588 -159.364344 
L 157.213448 -160.380617 
L 156.417308 -162.491539 
L 155.621168 -165.040176 
L 154.825028 -167.28642 
L 154.028888 -168.610963 
L 153.232748 -168.669512 
L 152.436608 -167.447249 
L 151.640468 -165.198759 
L 150.844328 -162.303163 
L 150.048188 -159.104979 
L 149.252049 -155.821308 
L 148.455909 -152.553399 
L 147.659769 -149.367339 
L 146.863629 -146.365521 
L 146.067489 -143.696052 
L 145.271349 -141.513803 
L 144.475209 -139.942143 
L 143.679069 -139.05714 
L 142.882929 -138.878655 
L 142.086789 -139.351269 
L 141.290649 -140.316657 
L 140.494509 -141.499412 
L 139.69837 -142.544435 
L 138.90223 -143.123153 
L 138.10609 -143.058853 
L 137.30995 -142.383045 
L 136.51381 -141.276656 
L 135.71767 -139.927728 
L 134.92153 -138.395962 
L 134.12539 -136.583512 
L 133.32925 -134.346323 
L 132.53311 -131.672485 
L 131.73697 -128.798266 
L 130.940831 -126.175244 
L 130.144691 -124.303076 
L 129.348551 -123.529699 
L 128.552411 -123.927618 
L 127.756271 -125.286207 
L 126.960131 -127.195673 
L 126.163991 -129.180824 
L 125.367851 -130.849845 
L 124.571711 -132.029172 
L 123.775571 -132.847159 
L 122.979431 -133.716502 
L 122.183292 -135.188297 
L 121.387152 -137.720785 
L 120.591012 -141.465164 
L 119.794872 -146.161667 
L 118.998732 -151.177577 
L 118.202592 -155.662019 
L 117.406452 -158.767623 
L 116.610312 -159.88256 
L 115.814172 -158.810742 
L 115.018032 -155.84126 
L 114.221892 -151.676711 
L 113.425753 -147.233949 
L 112.629613 -143.367574 
L 111.833473 -140.599786 
L 111.037333 -138.974043 
L 110.241193 -138.124812 
L 109.445053 -137.526695 
L 108.648913 -136.764177 
L 107.852773 -135.673561 
L 107.056633 -134.320081 
L 106.260493 -132.887221 
L 105.464353 -131.582143 
L 104.668213 -130.586363 
L 103.872074 -130.0193 
L 103.075934 -129.904713 
L 102.279794 -130.162917 
L 101.483654 -130.634625 
L 100.687514 -131.111605 
L 99.891374 -131.361288 
L 99.095234 -131.168594 
L 98.299094 -130.408761 
L 97.502954 -129.115147 
L 96.706814 -127.488657 
L 95.910674 -125.827992 
L 95.114535 -124.412062 
L 94.318395 -123.406572 
L 93.522255 -122.852135 
L 92.726115 -122.719909 
L 91.929975 -122.972268 
L 91.133835 -123.583225 
L 90.337695 -124.512727 
L 89.541555 -125.65917 
L 88.745415 -126.837153 
L 87.949275 -127.819577 
L 87.153135 -128.42559 
L 86.356996 -128.58964 
L 85.560856 -128.36868 
L 84.764716 -127.893213 
L 83.968576 -127.296066 
L 83.172436 -126.662323 
L 82.376296 -126.032623 
L 81.580156 -125.45145 
L 80.784016 -125.007052 
L 79.987876 -124.805664 
L 79.191736 -124.882592 
L 78.395596 -125.13825 
L 77.599457 -125.383136 
L 76.803317 -125.452247 
L 76.007177 -125.272168 
L 75.211037 -124.833847 
L 74.414897 -124.148729 
L 73.618757 -123.288025 
L 72.822617 -122.476176 
L 72.026477 -122.100505 
L 71.230337 -122.539735 
L 70.434197 -123.884444 
L 69.638057 -125.812788 
L 68.841918 -127.767587 
L 68.045778 -129.244133 
L 67.249638 -129.964052 
L 66.453498 -129.881866 
L 65.657358 -129.092013 
L 64.861218 -127.763197 
L 64.065078 -126.159568 
L 63.268938 -124.664587 
L 62.472798 -123.709785 
L 61.676658 -123.62168 
L 60.880518 -124.493299 
L 60.084378 -126.175581 
L 59.288239 -128.371589 
L 58.492099 -130.739738 
L 57.695959 -132.947903 
L 56.899819 -134.686751 
L 56.103679 -135.679767 
L 55.307539 -135.717498 
L 54.511399 -134.71398 
L 53.715259 -132.761533 
L 52.919119 -130.15805 
L 52.122979 -127.385362 
L 51.326839 -125.021759 
L 50.5307 -123.586489 
L 49.73456 -123.351229 
L 48.93842 -124.211157 
L 48.14228 -125.723738 
L 47.34614 -127.320221 
L 46.55 -128.55754 
z
" style="stroke: #e41a1c; stroke-opacity: 0.3"/>
    </defs>
    <g clip-path="url(#pa2296d1b3b)">
     <use xlink:href="#m253492cf0d" x="0" y="360" style="fill: #e41a1c; fill-opacity: 0.3; stroke: #e41a1c; stroke-opacity: 0.3"/>
    </g>
   </g>
   <g id="PolyCollection_2">
    <defs>
     <path id="m67e72b15e0" d="M 46.55 -126.146668 
L 46.55 -110.860677 
L 47.34614 -110.656228 
L 48.14228 -110.394944 
L 48.93842 -110.177388 
L 49.73456 -110.101703 
L 50.5307 -110.174369 
L 51.326839 -110.273457 
L 52.122979 -110.205576 
L 52.919119 -109.814181 
L 53.715259 -109.045806 
L 54.511399 -107.941749 
L 55.307539 -106.61285 
L 56.103679 -105.256845 
L 56.899819 -104.18718 
L 57.695959 -103.756766 
L 58.492099 -104.171723 
L 59.288239 -105.361184 
L 60.084378 -107.020148 
L 60.880518 -108.783988 
L 61.676658 -110.378761 
L 62.472798 -111.639944 
L 63.268938 -112.467199 
L 64.065078 -112.825691 
L 64.861218 -112.793798 
L 65.657358 -112.55524 
L 66.453498 -112.287981 
L 67.249638 -112.053146 
L 68.045778 -111.792684 
L 68.841918 -111.426291 
L 69.638057 -110.941857 
L 70.434197 -110.388935 
L 71.230337 -109.809055 
L 72.026477 -109.194881 
L 72.822617 -108.505434 
L 73.618757 -107.694565 
L 74.414897 -106.712994 
L 75.211037 -105.503064 
L 76.007177 -104.025181 
L 76.803317 -102.309467 
L 77.599457 -100.486616 
L 78.395596 -98.766105 
L 79.191736 -97.374791 
L 79.987876 -96.490972 
L 80.784016 -96.196052 
L 81.580156 -96.448661 
L 82.376296 -97.085004 
L 83.172436 -97.853473 
L 83.968576 -98.481917 
L 84.764716 -98.755731 
L 85.560856 -98.575426 
L 86.356996 -97.974185 
L 87.153135 -97.096051 
L 87.949275 -96.146706 
L 88.745415 -95.330404 
L 89.541555 -94.788417 
L 90.337695 -94.558291 
L 91.133835 -94.569989 
L 91.929975 -94.680444 
L 92.726115 -94.731603 
L 93.522255 -94.609951 
L 94.318395 -94.288517 
L 95.114535 -93.838503 
L 95.910674 -93.404541 
L 96.706814 -93.148733 
L 97.502954 -93.183852 
L 98.299094 -93.525209 
L 99.095234 -94.083685 
L 99.891374 -94.701016 
L 100.687514 -95.206436 
L 101.483654 -95.467527 
L 102.279794 -95.420842 
L 103.075934 -95.084213 
L 103.872074 -94.557161 
L 104.668213 -94.007817 
L 105.464353 -93.636375 
L 106.260493 -93.613015 
L 107.056633 -94.01157 
L 107.852773 -94.773785 
L 108.648913 -95.726721 
L 109.445053 -96.64662 
L 110.241193 -97.334665 
L 111.037333 -97.665609 
L 111.833473 -97.596486 
L 112.629613 -97.151383 
L 113.425753 -96.4008 
L 114.221892 -95.440183 
L 115.018032 -94.365328 
L 115.814172 -93.248019 
L 116.610312 -92.122592 
L 117.406452 -90.991505 
L 118.202592 -89.84596 
L 118.998732 -88.687574 
L 119.794872 -87.538424 
L 120.591012 -86.436969 
L 121.387152 -85.426707 
L 122.183292 -84.546775 
L 122.979431 -83.82835 
L 123.775571 -83.292474 
L 124.571711 -82.943676 
L 125.367851 -82.762953 
L 126.163991 -82.71054 
L 126.960131 -82.741053 
L 127.756271 -82.8197 
L 128.552411 -82.927054 
L 129.348551 -83.053082 
L 130.144691 -83.191817 
L 130.940831 -83.342984 
L 131.73697 -83.513259 
L 132.53311 -83.707491 
L 133.32925 -83.914858 
L 134.12539 -84.105867 
L 134.92153 -84.245776 
L 135.71767 -84.311833 
L 136.51381 -84.299873 
L 137.30995 -84.220883 
L 138.10609 -84.098532 
L 138.90223 -83.9723 
L 139.69837 -83.898374 
L 140.494509 -83.938127 
L 141.290649 -84.13493 
L 142.086789 -84.491808 
L 142.882929 -84.962567 
L 143.679069 -85.459797 
L 144.475209 -85.876104 
L 145.271349 -86.113578 
L 146.067489 -86.115142 
L 146.863629 -85.887842 
L 147.659769 -85.50732 
L 148.455909 -85.09785 
L 149.252049 -84.791554 
L 150.048188 -84.679418 
L 150.844328 -84.772203 
L 151.640468 -84.988075 
L 152.436608 -85.174464 
L 153.232748 -85.15726 
L 154.028888 -84.798195 
L 154.825028 -84.03907 
L 155.621168 -82.919695 
L 156.417308 -81.567202 
L 157.213448 -80.161486 
L 158.009588 -78.886656 
L 158.805727 -77.883536 
L 159.601867 -77.219502 
L 160.398007 -76.88434 
L 161.194147 -76.807642 
L 161.990287 -76.884466 
L 162.786427 -76.998374 
L 163.582567 -77.040115 
L 164.378707 -76.925357 
L 165.174847 -76.611847 
L 165.970987 -76.111457 
L 166.767127 -75.491692 
L 167.563266 -74.863602 
L 168.359406 -74.355261 
L 169.155546 -74.073211 
L 169.951686 -74.06108 
L 170.747826 -74.271941 
L 171.543966 -74.570675 
L 172.340106 -74.770812 
L 173.136246 -74.693997 
L 173.932386 -74.231107 
L 174.728526 -73.385759 
L 175.524666 -72.287494 
L 176.320805 -71.167999 
L 177.116945 -70.30128 
L 177.913085 -69.920961 
L 178.709225 -70.141662 
L 179.505365 -70.916002 
L 180.301505 -72.046431 
L 181.097645 -73.247006 
L 181.893785 -74.228858 
L 182.689925 -74.776021 
L 183.486065 -74.787366 
L 184.282205 -74.278115 
L 185.078344 -73.350743 
L 185.874484 -72.153874 
L 186.670624 -70.847594 
L 187.466764 -69.585427 
L 188.262904 -68.511148 
L 189.059044 -67.758558 
L 189.855184 -67.440289 
L 190.651324 -67.620217 
L 191.447464 -68.278627 
L 192.243604 -69.289885 
L 193.039744 -70.430674 
L 193.835884 -71.423594 
L 194.632023 -72.005624 
L 195.428163 -72.002157 
L 196.224303 -71.385643 
L 197.020443 -70.299323 
L 197.816583 -69.03086 
L 198.612723 -67.932644 
L 199.408863 -67.308148 
L 200.205003 -67.307233 
L 201.001143 -67.877611 
L 201.797283 -68.794764 
L 202.593423 -69.752589 
L 203.389562 -70.469774 
L 204.185702 -70.769862 
L 204.981842 -70.61635 
L 205.777982 -70.104908 
L 206.574122 -69.42308 
L 207.370262 -68.790211 
L 208.166402 -68.39439 
L 208.962542 -68.346534 
L 209.758682 -68.665766 
L 210.554822 -69.294392 
L 211.350962 -70.126459 
L 212.147101 -71.032366 
L 212.943241 -71.873167 
L 213.739381 -72.511444 
L 214.535521 -72.829804 
L 215.331661 -72.760649 
L 216.127801 -72.318642 
L 216.923941 -71.619902 
L 217.720081 -70.873874 
L 218.516221 -70.342449 
L 219.312361 -70.271572 
L 220.108501 -70.811187 
L 220.90464 -71.949081 
L 221.70078 -73.487436 
L 222.49692 -75.080469 
L 223.29306 -76.327819 
L 224.0892 -76.893091 
L 224.88534 -76.605153 
L 225.68148 -75.507844 
L 226.47762 -73.844165 
L 227.27376 -71.9814 
L 228.0699 -70.299527 
L 228.86604 -69.077713 
L 229.66218 -68.417869 
L 230.458319 -68.231533 
L 231.254459 -68.288598 
L 232.050599 -68.300128 
L 232.846739 -68.000852 
L 233.642879 -67.209934 
L 234.439019 -65.864512 
L 235.235159 -64.02587 
L 236.031299 -61.857965 
L 236.827439 -59.583784 
L 237.623579 -57.435173 
L 238.419719 -55.612771 
L 239.215858 -54.260469 
L 240.011998 -53.447607 
L 240.808138 -53.155818 
L 241.604278 -53.280233 
L 242.400418 -53.657693 
L 243.196558 -54.119686 
L 243.992698 -54.548775 
L 244.788838 -54.913882 
L 245.584978 -55.273667 
L 246.381118 -55.751386 
L 247.177258 -56.488254 
L 247.973397 -57.583585 
L 248.769537 -59.039618 
L 249.565677 -60.738831 
L 250.361817 -62.473871 
L 251.157957 -64.022547 
L 251.954097 -65.232746 
L 252.750237 -66.077036 
L 253.546377 -66.656273 
L 254.342517 -67.1568 
L 255.138657 -67.779996 
L 255.934797 -68.667093 
L 256.730936 -69.844229 
L 257.527076 -71.21042 
L 258.323216 -72.577082 
L 259.119356 -73.743661 
L 259.915496 -74.574728 
L 260.711636 -75.043925 
L 261.507776 -75.229782 
L 262.303916 -75.272717 
L 263.100056 -75.316504 
L 263.896196 -75.457844 
L 264.692336 -75.719828 
L 265.488475 -76.0543 
L 266.284615 -76.367863 
L 267.080755 -76.558845 
L 267.876895 -76.549957 
L 268.673035 -76.305358 
L 269.469175 -75.830541 
L 270.265315 -75.163942 
L 271.061455 -74.373174 
L 271.857595 -73.561236 
L 272.653735 -72.873384 
L 273.449875 -72.486768 
L 274.246015 -72.572932 
L 275.042154 -73.242924 
L 275.838294 -74.498973 
L 276.634434 -76.21412 
L 277.430574 -78.147225 
L 278.226714 -79.989619 
L 279.022854 -81.436267 
L 279.818994 -82.269832 
L 280.615134 -82.434569 
L 281.411274 -82.067464 
L 282.207414 -81.462318 
L 283.003554 -80.972418 
L 283.799693 -80.890461 
L 284.595833 -81.354765 
L 285.391973 -82.313722 
L 286.188113 -83.553179 
L 286.984253 -84.771331 
L 287.780393 -85.675426 
L 288.576533 -86.069497 
L 289.372673 -85.903865 
L 290.168813 -85.270289 
L 290.964953 -84.349669 
L 291.761093 -83.340096 
L 292.557232 -82.398053 
L 293.353372 -81.612358 
L 294.149512 -81.01062 
L 294.945652 -80.584767 
L 295.741792 -80.318947 
L 296.537932 -80.206556 
L 297.334072 -80.250055 
L 298.130212 -80.445782 
L 298.926352 -80.763502 
L 299.722492 -81.13378 
L 300.518632 -81.453371 
L 301.314771 -81.610778 
L 302.110911 -81.524377 
L 302.907051 -81.177567 
L 303.703191 -80.63305 
L 304.499331 -80.015381 
L 305.295471 -79.466565 
L 306.091611 -79.094819 
L 306.887751 -78.940181 
L 307.683891 -78.970204 
L 308.480031 -79.103336 
L 309.276171 -79.246756 
L 310.072311 -79.332749 
L 310.86845 -79.340793 
L 311.66459 -79.298759 
L 312.46073 -79.264194 
L 313.25687 -79.294343 
L 314.05301 -79.417883 
L 314.84915 -79.619245 
L 315.64529 -79.839935 
L 316.44143 -79.99484 
L 317.23757 -79.997519 
L 318.03371 -79.786402 
L 318.82985 -79.343345 
L 319.625989 -78.697489 
L 320.422129 -77.911904 
L 321.218269 -77.057561 
L 322.014409 -76.185761 
L 322.810549 -75.31144 
L 323.606689 -74.413919 
L 324.402829 -73.452383 
L 325.198969 -72.387263 
L 325.995109 -71.199707 
L 326.791249 -69.906812 
L 327.587389 -68.572655 
L 328.383528 -67.311065 
L 329.179668 -66.271592 
L 329.975808 -65.604667 
L 330.771948 -65.415444 
L 331.568088 -65.726275 
L 332.364228 -66.464643 
L 333.160368 -67.479735 
L 333.956508 -68.578467 
L 334.752648 -69.568084 
L 335.548788 -70.295406 
L 336.344928 -70.676257 
L 337.141067 -70.710291 
L 337.937207 -70.478307 
L 338.733347 -70.12227 
L 339.529487 -69.811815 
L 340.325627 -69.704273 
L 341.121767 -69.907654 
L 341.917907 -70.45656 
L 342.714047 -71.307921 
L 343.510187 -72.356645 
L 344.306327 -73.464293 
L 345.102467 -74.490717 
L 345.898606 -75.320203 
L 346.694746 -75.877946 
L 347.490886 -76.136946 
L 348.287026 -76.117452 
L 349.083166 -75.879795 
L 349.879306 -75.509354 
L 350.675446 -75.094243 
L 351.471586 -74.702393 
L 352.267726 -74.368136 
L 353.063866 -74.093708 
L 353.860006 -73.861865 
L 354.656146 -73.651103 
L 355.452285 -73.448343 
L 356.248425 -73.259054 
L 357.044565 -73.11406 
L 357.840705 -73.067162 
L 358.636845 -73.177458 
L 359.432985 -73.479625 
L 360.229125 -73.955887 
L 361.025265 -74.523932 
L 361.821405 -75.04627 
L 362.617545 -75.357509 
L 363.413685 -75.30198 
L 364.209824 -74.773152 
L 365.005964 -73.745172 
L 365.802104 -72.286983 
L 366.598244 -70.553218 
L 367.394384 -68.752283 
L 368.190524 -67.097514 
L 368.986664 -65.752179 
L 369.782804 -64.784426 
L 370.578944 -64.150534 
L 371.375084 -63.71751 
L 372.171224 -63.319 
L 372.967363 -62.821806 
L 373.763503 -62.175917 
L 374.559643 -61.431232 
L 375.355783 -60.718589 
L 376.151923 -60.202524 
L 376.948063 -60.019759 
L 377.744203 -60.224319 
L 378.540343 -60.762153 
L 379.336483 -61.487806 
L 380.132623 -62.215269 
L 380.928763 -62.779384 
L 381.724902 -63.084214 
L 382.521042 -63.125738 
L 383.317182 -62.985922 
L 384.113322 -62.800445 
L 384.909462 -62.708259 
L 385.705602 -62.799922 
L 386.501742 -63.085933 
L 387.297882 -63.498406 
L 388.094022 -63.92297 
L 388.890162 -64.244467 
L 389.686302 -64.387721 
L 390.482441 -64.340714 
L 391.278581 -64.155583 
L 392.074721 -63.929624 
L 392.870861 -63.774509 
L 393.667001 -63.786275 
L 394.463141 -64.027281 
L 395.259281 -64.523251 
L 396.055421 -65.269097 
L 396.851561 -66.233366 
L 397.647701 -67.35516 
L 398.443841 -68.535787 
L 399.239981 -69.634573 
L 400.03612 -70.479973 
L 400.83226 -70.901614 
L 401.6284 -70.777814 
L 402.42454 -70.081971 
L 403.22068 -68.907948 
L 404.01682 -67.461521 
L 404.81296 -66.017457 
L 405.6091 -64.85345 
L 406.40524 -64.179972 
L 407.20138 -64.087502 
L 407.99752 -64.52774 
L 408.793659 -65.333332 
L 409.589799 -66.266886 
L 410.385939 -67.08294 
L 411.182079 -67.587744 
L 411.978219 -67.684656 
L 412.774359 -67.393869 
L 413.570499 -66.839187 
L 413.570499 -101.668412 
L 413.570499 -101.668412 
L 412.774359 -102.150792 
L 411.978219 -102.395722 
L 411.182079 -102.29905 
L 410.385939 -101.843376 
L 409.589799 -101.11202 
L 408.793659 -100.279665 
L 407.99752 -99.573222 
L 407.20138 -99.21014 
L 406.40524 -99.334571 
L 405.6091 -99.97372 
L 404.81296 -101.027924 
L 404.01682 -102.296051 
L 403.22068 -103.527762 
L 402.42454 -104.486615 
L 401.6284 -105.004313 
L 400.83226 -105.010157 
L 400.03612 -104.53092 
L 399.239981 -103.667947 
L 398.443841 -102.563634 
L 397.647701 -101.368382 
L 396.851561 -100.215556 
L 396.055421 -99.207776 
L 395.259281 -98.413437 
L 394.463141 -97.868676 
L 393.667001 -97.579398 
L 392.870861 -97.520947 
L 392.074721 -97.637174 
L 391.278581 -97.843197 
L 390.482441 -98.036639 
L 389.686302 -98.119982 
L 388.890162 -98.030423 
L 388.094022 -97.765388 
L 387.297882 -97.388626 
L 386.501742 -97.009107 
L 385.705602 -96.739056 
L 384.909462 -96.647977 
L 384.113322 -96.730459 
L 383.317182 -96.900183 
L 382.521042 -97.015266 
L 381.724902 -96.930515 
L 380.928763 -96.559124 
L 380.132623 -95.916583 
L 379.336483 -95.123617 
L 378.540343 -94.364953 
L 377.744203 -93.823889 
L 376.948063 -93.622205 
L 376.151923 -93.786901 
L 375.355783 -94.250674 
L 374.559643 -94.882613 
L 373.763503 -95.539111 
L 372.967363 -96.11829 
L 372.171224 -96.59685 
L 371.375084 -97.034069 
L 370.578944 -97.543767 
L 369.782804 -98.249729 
L 368.986664 -99.242281 
L 368.190524 -100.546649 
L 367.394384 -102.107983 
L 366.598244 -103.796658 
L 365.802104 -105.434876 
L 365.005964 -106.838658 
L 364.209824 -107.861816 
L 363.413685 -108.427618 
L 362.617545 -108.540236 
L 361.821405 -108.276068 
L 361.025265 -107.760113 
L 360.229125 -107.13525 
L 359.432985 -106.533265 
L 358.636845 -106.054301 
L 357.840705 -105.756004 
L 357.044565 -105.649913 
L 356.248425 -105.704732 
L 355.452285 -105.859913 
L 354.656146 -106.050099 
L 353.860006 -106.231339 
L 353.063866 -106.394808 
L 352.267726 -106.5609 
L 351.471586 -106.759357 
L 350.675446 -107.007456 
L 349.879306 -107.294679 
L 349.083166 -107.576007 
L 348.287026 -107.774446 
L 347.490886 -107.794927 
L 346.694746 -107.549789 
L 345.898606 -106.989304 
L 345.102467 -106.125375 
L 344.306327 -105.037944 
L 343.510187 -103.860716 
L 342.714047 -102.751169 
L 341.917907 -101.854976 
L 341.121767 -101.274925 
L 340.325627 -101.05049 
L 339.529487 -101.150025 
L 338.733347 -101.475737 
L 337.937207 -101.881335 
L 337.141067 -102.201258 
L 336.344928 -102.287298 
L 335.548788 -102.044546 
L 334.752648 -101.456859 
L 333.956508 -100.593897 
L 333.160368 -99.596676 
L 332.364228 -98.64517 
L 331.568088 -97.917944 
L 330.771948 -97.556238 
L 329.975808 -97.640954 
L 329.179668 -98.183549 
L 328.383528 -99.126945 
L 327.587389 -100.354656 
L 326.791249 -101.711793 
L 325.995109 -103.040323 
L 325.198969 -104.219891 
L 324.402829 -105.196397 
L 323.606689 -105.985195 
L 322.810549 -106.649701 
L 322.014409 -107.267466 
L 321.218269 -107.898179 
L 320.422129 -108.563111 
L 319.625989 -109.239029 
L 318.82985 -109.866025 
L 318.03371 -110.367465 
L 317.23757 -110.67792 
L 316.44143 -110.770552 
L 315.64529 -110.672493 
L 314.84915 -110.459387 
L 314.05301 -110.228997 
L 313.25687 -110.064366 
L 312.46073 -110.003007 
L 311.66459 -110.026133 
L 310.86845 -110.072664 
L 310.072311 -110.071922 
L 309.276171 -109.981246 
L 308.480031 -109.812366 
L 307.683891 -109.63413 
L 306.887751 -109.548527 
L 306.091611 -109.64952 
L 305.295471 -109.983029 
L 304.499331 -110.525191 
L 303.703191 -111.186022 
L 302.907051 -111.835227 
L 302.110911 -112.341257 
L 301.314771 -112.612116 
L 300.518632 -112.624373 
L 299.722492 -112.428122 
L 298.926352 -112.124337 
L 298.130212 -111.824515 
L 297.334072 -111.611977 
L 296.537932 -111.523313 
L 295.741792 -111.557064 
L 294.945652 -111.70128 
L 294.149512 -111.960823 
L 293.353372 -112.365043 
L 292.557232 -112.947388 
L 291.761093 -113.705926 
L 290.964953 -114.567562 
L 290.168813 -115.379413 
L 289.372673 -115.937937 
L 288.576533 -116.04881 
L 287.780393 -115.597727 
L 286.984253 -114.606949 
L 286.188113 -113.253372 
L 285.391973 -111.832414 
L 284.595833 -110.671035 
L 283.799693 -110.018047 
L 283.003554 -109.955531 
L 282.207414 -110.368274 
L 281.411274 -110.981363 
L 280.615134 -111.447824 
L 279.818994 -111.455214 
L 279.022854 -110.820793 
L 278.226714 -109.548607 
L 277.430574 -107.827961 
L 276.634434 -105.96967 
L 275.838294 -104.30327 
L 275.042154 -103.078957 
L 274.246015 -102.414358 
L 273.449875 -102.297797 
L 272.653735 -102.628448 
L 271.857595 -103.262948 
L 271.061455 -104.049355 
L 270.265315 -104.846779 
L 269.469175 -105.537283 
L 268.673035 -106.034391 
L 267.876895 -106.288942 
L 267.080755 -106.292854 
L 266.284615 -106.080885 
L 265.488475 -105.72723 
L 264.692336 -105.331259 
L 263.896196 -104.989578 
L 263.100056 -104.760121 
L 262.303916 -104.632781 
L 261.507776 -104.523459 
L 260.711636 -104.300492 
L 259.915496 -103.83609 
L 259.119356 -103.060632 
L 258.323216 -101.995247 
L 257.527076 -100.749248 
L 256.730936 -99.484287 
L 255.934797 -98.357543 
L 255.138657 -97.461755 
L 254.342517 -96.783537 
L 253.546377 -96.200694 
L 252.750237 -95.526906 
L 251.954097 -94.588396 
L 251.157957 -93.296986 
L 250.361817 -91.685158 
L 249.565677 -89.891735 
L 248.769537 -88.111911 
L 247.973397 -86.534866 
L 247.177258 -85.287899 
L 246.381118 -84.401295 
L 245.584978 -83.806834 
L 244.788838 -83.37557 
L 243.992698 -82.981573 
L 243.196558 -82.560477 
L 242.400418 -82.134649 
L 241.604278 -81.800344 
L 240.808138 -81.693351 
L 240.011998 -81.951166 
L 239.215858 -82.678439 
L 238.419719 -83.916538 
L 237.623579 -85.62285 
L 236.827439 -87.669643 
L 236.031299 -89.86545 
L 235.235159 -91.989821 
L 234.439019 -93.830109 
L 233.642879 -95.2184 
L 232.846739 -96.071425 
L 232.050599 -96.425989 
L 231.254459 -96.449002 
L 230.458319 -96.404181 
L 229.66218 -96.578494 
L 228.86604 -97.193093 
L 228.0699 -98.329702 
L 227.27376 -99.89504 
L 226.47762 -101.634245 
L 225.68148 -103.194308 
L 224.88534 -104.225542 
L 224.0892 -104.491754 
L 223.29306 -103.948964 
L 222.49692 -102.761131 
L 221.70078 -101.247668 
L 220.90464 -99.784974 
L 220.108501 -98.697914 
L 219.312361 -98.175259 
L 218.516221 -98.232445 
L 217.720081 -98.729594 
L 216.923941 -99.434068 
L 216.127801 -100.100883 
L 215.331661 -100.540085 
L 214.535521 -100.650534 
L 213.739381 -100.418456 
L 212.943241 -99.89507 
L 212.147101 -99.171344 
L 211.350962 -98.36018 
L 210.554822 -97.58533 
L 209.758682 -96.970318 
L 208.962542 -96.621449 
L 208.166402 -96.603919 
L 207.370262 -96.915414 
L 206.574122 -97.46631 
L 205.777982 -98.079975 
L 204.981842 -98.526764 
L 204.185702 -98.593595 
L 203.389562 -98.168212 
L 202.593423 -97.29926 
L 201.797283 -96.197536 
L 201.001143 -95.171696 
L 200.205003 -94.525075 
L 199.408863 -94.455953 
L 198.612723 -94.994341 
L 197.816583 -95.989288 
L 197.020443 -97.147588 
L 196.224303 -98.116588 
L 195.428163 -98.591708 
L 194.632023 -98.413939 
L 193.835884 -97.618397 
L 193.039744 -96.413023 
L 192.243604 -95.099425 
L 191.447464 -93.974288 
L 190.651324 -93.253039 
L 189.855184 -93.037901 
L 189.059044 -93.326916 
L 188.262904 -94.045229 
L 187.466764 -95.078374 
L 186.670624 -96.294226 
L 185.874484 -97.550485 
L 185.078344 -98.694303 
L 184.282205 -99.566359 
L 183.486065 -100.020039 
L 182.689925 -99.956872 
L 181.893785 -99.366689 
L 181.097645 -98.352908 
L 180.301505 -97.126016 
L 179.505365 -95.960686 
L 178.709225 -95.127144 
L 177.913085 -94.817753 
L 177.116945 -95.091755 
L 176.320805 -95.856208 
L 175.524666 -96.891971 
L 174.728526 -97.920852 
L 173.932386 -98.694424 
L 173.136246 -99.072531 
L 172.340106 -99.060228 
L 171.543966 -98.789665 
L 170.747826 -98.459015 
L 169.951686 -98.258021 
L 169.155546 -98.309481 
L 168.359406 -98.642104 
L 167.563266 -99.195405 
L 166.767127 -99.849135 
L 165.970987 -100.466003 
L 165.174847 -100.933864 
L 164.378707 -101.194306 
L 163.582567 -101.25168 
L 162.786427 -101.166176 
L 161.990287 -101.038376 
L 161.194147 -100.989264 
L 160.398007 -101.135807 
L 159.601867 -101.564533 
L 158.805727 -102.310284 
L 158.009588 -103.34664 
L 157.213448 -104.588696 
L 156.417308 -105.905526 
L 155.621168 -107.141656 
L 154.825028 -108.148255 
L 154.028888 -108.819871 
L 153.232748 -109.124638 
L 152.436608 -109.114172 
L 151.640468 -108.907597 
L 150.844328 -108.65562 
L 150.048188 -108.496846 
L 149.252049 -108.518716 
L 148.455909 -108.733222 
L 147.659769 -109.075009 
L 146.863629 -109.424305 
L 146.067489 -109.648447 
L 145.271349 -109.647765 
L 144.475209 -109.389614 
L 143.679069 -108.91881 
L 142.882929 -108.34097 
L 142.086789 -107.785442 
L 141.290649 -107.363092 
L 140.494509 -107.135654 
L 139.69837 -107.105113 
L 138.90223 -107.220177 
L 138.10609 -107.392857 
L 137.30995 -107.522267 
L 136.51381 -107.523983 
L 135.71767 -107.356216 
L 134.92153 -107.029085 
L 134.12539 -106.591479 
L 133.32925 -106.10607 
L 132.53311 -105.630058 
L 131.73697 -105.208205 
L 130.940831 -104.869114 
L 130.144691 -104.616596 
L 129.348551 -104.42358 
L 128.552411 -104.242789 
L 127.756271 -104.033968 
L 126.960131 -103.78975 
L 126.163991 -103.543738 
L 125.367851 -103.360834 
L 124.571711 -103.320485 
L 123.775571 -103.499205 
L 122.979431 -103.950637 
L 122.183292 -104.684194 
L 121.387152 -105.654062 
L 120.591012 -106.771634 
L 119.794872 -107.939162 
L 118.998732 -109.086121 
L 118.202592 -110.188636 
L 117.406452 -111.264231 
L 116.610312 -112.347855 
L 115.814172 -113.462797 
L 115.018032 -114.598601 
L 114.221892 -115.700983 
L 113.425753 -116.674073 
L 112.629613 -117.396527 
L 111.833473 -117.753692 
L 111.037333 -117.680389 
L 110.241193 -117.195967 
L 109.445053 -116.409344 
L 108.648913 -115.486789 
L 107.852773 -114.601503 
L 107.056633 -113.894842 
L 106.260493 -113.460158 
L 105.464353 -113.336755 
L 104.668213 -113.500726 
L 103.872074 -113.855877 
L 103.075934 -114.242298 
L 102.279794 -114.477597 
L 101.483654 -114.422354 
L 100.687514 -114.036708 
L 99.891374 -113.395504 
L 99.095234 -112.654449 
L 98.299094 -111.987437 
L 97.502954 -111.526826 
L 96.706814 -111.328775 
L 95.910674 -111.367225 
L 95.114535 -111.549594 
L 94.318395 -111.74751 
L 93.522255 -111.838221 
L 92.726115 -111.748799 
L 91.929975 -111.487517 
L 91.133835 -111.145695 
L 90.337695 -110.865509 
L 89.541555 -110.786068 
L 88.745415 -110.988341 
L 87.949275 -111.45742 
L 87.153135 -112.074773 
L 86.356996 -112.646814 
L 85.560856 -112.965827 
L 84.764716 -112.88372 
L 83.968576 -112.368604 
L 83.172436 -111.521438 
L 82.376296 -110.550697 
L 81.580156 -109.718453 
L 80.784016 -109.273032 
L 79.987876 -109.382288 
L 79.191736 -110.086485 
L 78.395596 -111.29212 
L 77.599457 -112.812709 
L 76.803317 -114.434712 
L 76.007177 -115.974001 
L 75.211037 -117.305974 
L 74.414897 -118.378887 
L 73.618757 -119.219325 
L 72.822617 -119.91573 
L 72.026477 -120.565634 
L 71.230337 -121.212391 
L 70.434197 -121.830301 
L 69.638057 -122.377008 
L 68.841918 -122.854116 
L 68.045778 -123.304504 
L 67.249638 -123.74969 
L 66.453498 -124.151858 
L 65.657358 -124.44842 
L 64.861218 -124.599309 
L 64.065078 -124.574841 
L 63.268938 -124.29385 
L 62.472798 -123.613316 
L 61.676658 -122.438104 
L 60.880518 -120.854063 
L 60.084378 -119.139099 
L 59.288239 -117.633946 
L 58.492099 -116.600996 
L 57.695959 -116.189799 
L 56.899819 -116.468173 
L 56.103679 -117.418042 
L 55.307539 -118.874929 
L 54.511399 -120.505253 
L 53.715259 -121.929306 
L 52.919119 -122.913121 
L 52.122979 -123.45566 
L 51.326839 -123.721466 
L 50.5307 -123.904375 
L 49.73456 -124.138184 
L 48.93842 -124.486388 
L 48.14228 -124.961142 
L 47.34614 -125.534127 
L 46.55 -126.146668 
z
" style="stroke: #377eb8; stroke-opacity: 0.3"/>
    </defs>
    <g clip-path="url(#pa2296d1b3b)">
     <use xlink:href="#m67e72b15e0" x="0" y="360" style="fill: #377eb8; fill-opacity: 0.3; stroke: #377eb8; stroke-opacity: 0.3"/>
    </g>
   </g>
   <g id="patch_3">
    <path d="M 229.821407 318.04 
L 229.821407 71.732 
L 331.727316 71.732 
L 331.727316 318.04 
z
" clip-path="url(#pa2296d1b3b)" style="fill: #808080; opacity: 0.3"/>
   </g>
   <g id="matplotlib.axis_1">
    <g id="xtick_1">
     <g id="line2d_1">
      <defs>
       <path id="m1622115991" d="M 0 0 
L 0 3.5 
" style="stroke: #000000; stroke-width: 0.8"/>
      </defs>
      <g>
       <use xlink:href="#m1622115991" x="87.153135" y="318.04" style="stroke: #000000; stroke-width: 0.8"/>
      </g>
     </g>
     <g id="text_1">
      <!-- 0.0 -->
      <g transform="translate(79.201573 332.638438)scale(0.1 -0.1)">
       <defs>
        <path id="DejaVuSans-30" d="M 2034 4250 
Q 1547 4250 1301 3770 
Q 1056 3291 1056 2328 
Q 1056 1369 1301 889 
Q 1547 409 2034 409 
Q 2525 409 2770 889 
Q 3016 1369 3016 2328 
Q 3016 3291 2770 3770 
Q 2525 4250 2034 4250 
z
M 2034 4750 
Q 2819 4750 3233 4129 
Q 3647 3509 3647 2328 
Q 3647 1150 3233 529 
Q 2819 -91 2034 -91 
Q 1250 -91 836 529 
Q 422 1150 422 2328 
Q 422 3509 836 4129 
Q 1250 4750 2034 4750 
z
" transform="scale(0.015625)"/>
        <path id="DejaVuSans-2e" d="M 684 794 
L 1344 794 
L 1344 0 
L 684 0 
L 684 794 
z
" transform="scale(0.015625)"/>
       </defs>
       <use xlink:href="#DejaVuSans-30"/>
       <use xlink:href="#DejaVuSans-2e" x="63.623047"/>
       <use xlink:href="#DejaVuSans-30" x="95.410156"/>
      </g>
     </g>
    </g>
    <g id="xtick_2">
     <g id="line2d_2">
      <g>
       <use xlink:href="#m1622115991" x="168.677862" y="318.04" style="stroke: #000000; stroke-width: 0.8"/>
      </g>
     </g>
     <g id="text_2">
      <!-- 0.2 -->
      <g transform="translate(160.7263 332.638438)scale(0.1 -0.1)">
       <defs>
        <path id="DejaVuSans-32" d="M 1228 531 
L 3431 531 
L 3431 0 
L 469 0 
L 469 531 
Q 828 903 1448 1529 
Q 2069 2156 2228 2338 
Q 2531 2678 2651 2914 
Q 2772 3150 2772 3378 
Q 2772 3750 2511 3984 
Q 2250 4219 1831 4219 
Q 1534 4219 1204 4116 
Q 875 4013 500 3803 
L 500 4441 
Q 881 4594 1212 4672 
Q 1544 4750 1819 4750 
Q 2544 4750 2975 4387 
Q 3406 4025 3406 3419 
Q 3406 3131 3298 2873 
Q 3191 2616 2906 2266 
Q 2828 2175 2409 1742 
Q 1991 1309 1228 531 
z
" transform="scale(0.015625)"/>
       </defs>
       <use xlink:href="#DejaVuSans-30"/>
       <use xlink:href="#DejaVuSans-2e" x="63.623047"/>
       <use xlink:href="#DejaVuSans-32" x="95.410156"/>
      </g>
     </g>
    </g>
    <g id="xtick_3">
     <g id="line2d_3">
      <g>
       <use xlink:href="#m1622115991" x="250.202589" y="318.04" style="stroke: #000000; stroke-width: 0.8"/>
      </g>
     </g>
     <g id="text_3">
      <!-- 0.4 -->
      <g transform="translate(242.251027 332.638438)scale(0.1 -0.1)">
       <defs>
        <path id="DejaVuSans-34" d="M 2419 4116 
L 825 1625 
L 2419 1625 
L 2419 4116 
z
M 2253 4666 
L 3047 4666 
L 3047 1625 
L 3713 1625 
L 3713 1100 
L 3047 1100 
L 3047 0 
L 2419 0 
L 2419 1100 
L 313 1100 
L 313 1709 
L 2253 4666 
z
" transform="scale(0.015625)"/>
       </defs>
       <use xlink:href="#DejaVuSans-30"/>
       <use xlink:href="#DejaVuSans-2e" x="63.623047"/>
       <use xlink:href="#DejaVuSans-34" x="95.410156"/>
      </g>
     </g>
    </g>
    <g id="xtick_4">
     <g id="line2d_4">
      <g>
       <use xlink:href="#m1622115991" x="331.727316" y="318.04" style="stroke: #000000; stroke-width: 0.8"/>
      </g>
     </g>
     <g id="text_4">
      <!-- 0.6 -->
      <g transform="translate(323.775754 332.638438)scale(0.1 -0.1)">
       <defs>
        <path id="DejaVuSans-36" d="M 2113 2584 
Q 1688 2584 1439 2293 
Q 1191 2003 1191 1497 
Q 1191 994 1439 701 
Q 1688 409 2113 409 
Q 2538 409 2786 701 
Q 3034 994 3034 1497 
Q 3034 2003 2786 2293 
Q 2538 2584 2113 2584 
z
M 3366 4563 
L 3366 3988 
Q 3128 4100 2886 4159 
Q 2644 4219 2406 4219 
Q 1781 4219 1451 3797 
Q 1122 3375 1075 2522 
Q 1259 2794 1537 2939 
Q 1816 3084 2150 3084 
Q 2853 3084 3261 2657 
Q 3669 2231 3669 1497 
Q 3669 778 3244 343 
Q 2819 -91 2113 -91 
Q 1303 -91 875 529 
Q 447 1150 447 2328 
Q 447 3434 972 4092 
Q 1497 4750 2381 4750 
Q 2619 4750 2861 4703 
Q 3103 4656 3366 4563 
z
" transform="scale(0.015625)"/>
       </defs>
       <use xlink:href="#DejaVuSans-30"/>
       <use xlink:href="#DejaVuSans-2e" x="63.623047"/>
       <use xlink:href="#DejaVuSans-36" x="95.410156"/>
      </g>
     </g>
    </g>
    <g id="xtick_5">
     <g id="line2d_5">
      <g>
       <use xlink:href="#m1622115991" x="413.252043" y="318.04" style="stroke: #000000; stroke-width: 0.8"/>
      </g>
     </g>
     <g id="text_5">
      <!-- 0.8 -->
      <g transform="translate(405.30048 332.638438)scale(0.1 -0.1)">
       <defs>
        <path id="DejaVuSans-38" d="M 2034 2216 
Q 1584 2216 1326 1975 
Q 1069 1734 1069 1313 
Q 1069 891 1326 650 
Q 1584 409 2034 409 
Q 2484 409 2743 651 
Q 3003 894 3003 1313 
Q 3003 1734 2745 1975 
Q 2488 2216 2034 2216 
z
M 1403 2484 
Q 997 2584 770 2862 
Q 544 3141 544 3541 
Q 544 4100 942 4425 
Q 1341 4750 2034 4750 
Q 2731 4750 3128 4425 
Q 3525 4100 3525 3541 
Q 3525 3141 3298 2862 
Q 3072 2584 2669 2484 
Q 3125 2378 3379 2068 
Q 3634 1759 3634 1313 
Q 3634 634 3220 271 
Q 2806 -91 2034 -91 
Q 1263 -91 848 271 
Q 434 634 434 1313 
Q 434 1759 690 2068 
Q 947 2378 1403 2484 
z
M 1172 3481 
Q 1172 3119 1398 2916 
Q 1625 2713 2034 2713 
Q 2441 2713 2670 2916 
Q 2900 3119 2900 3481 
Q 2900 3844 2670 4047 
Q 2441 4250 2034 4250 
Q 1625 4250 1398 4047 
Q 1172 3844 1172 3481 
z
" transform="scale(0.015625)"/>
       </defs>
       <use xlink:href="#DejaVuSans-30"/>
       <use xlink:href="#DejaVuSans-2e" x="63.623047"/>
       <use xlink:href="#DejaVuSans-38" x="95.410156"/>
      </g>
     </g>
    </g>
    <g id="text_6">
     <!-- seconds -->
     <g transform="translate(209.622749 346.316563)scale(0.1 -0.1)">
      <defs>
       <path id="DejaVuSans-73" d="M 2834 3397 
L 2834 2853 
Q 2591 2978 2328 3040 
Q 2066 3103 1784 3103 
Q 1356 3103 1142 2972 
Q 928 2841 928 2578 
Q 928 2378 1081 2264 
Q 1234 2150 1697 2047 
L 1894 2003 
Q 2506 1872 2764 1633 
Q 3022 1394 3022 966 
Q 3022 478 2636 193 
Q 2250 -91 1575 -91 
Q 1294 -91 989 -36 
Q 684 19 347 128 
L 347 722 
Q 666 556 975 473 
Q 1284 391 1588 391 
Q 1994 391 2212 530 
Q 2431 669 2431 922 
Q 2431 1156 2273 1281 
Q 2116 1406 1581 1522 
L 1381 1569 
Q 847 1681 609 1914 
Q 372 2147 372 2553 
Q 372 3047 722 3315 
Q 1072 3584 1716 3584 
Q 2034 3584 2315 3537 
Q 2597 3491 2834 3397 
z
" transform="scale(0.015625)"/>
       <path id="DejaVuSans-65" d="M 3597 1894 
L 3597 1613 
L 953 1613 
Q 991 1019 1311 708 
Q 1631 397 2203 397 
Q 2534 397 2845 478 
Q 3156 559 3463 722 
L 3463 178 
Q 3153 47 2828 -22 
Q 2503 -91 2169 -91 
Q 1331 -91 842 396 
Q 353 884 353 1716 
Q 353 2575 817 3079 
Q 1281 3584 2069 3584 
Q 2775 3584 3186 3129 
Q 3597 2675 3597 1894 
z
M 3022 2063 
Q 3016 2534 2758 2815 
Q 2500 3097 2075 3097 
Q 1594 3097 1305 2825 
Q 1016 2553 972 2059 
L 3022 2063 
z
" transform="scale(0.015625)"/>
       <path id="DejaVuSans-63" d="M 3122 3366 
L 3122 2828 
Q 2878 2963 2633 3030 
Q 2388 3097 2138 3097 
Q 1578 3097 1268 2742 
Q 959 2388 959 1747 
Q 959 1106 1268 751 
Q 1578 397 2138 397 
Q 2388 397 2633 464 
Q 2878 531 3122 666 
L 3122 134 
Q 2881 22 2623 -34 
Q 2366 -91 2075 -91 
Q 1284 -91 818 406 
Q 353 903 353 1747 
Q 353 2603 823 3093 
Q 1294 3584 2113 3584 
Q 2378 3584 2631 3529 
Q 2884 3475 3122 3366 
z
" transform="scale(0.015625)"/>
       <path id="DejaVuSans-6f" d="M 1959 3097 
Q 1497 3097 1228 2736 
Q 959 2375 959 1747 
Q 959 1119 1226 758 
Q 1494 397 1959 397 
Q 2419 397 2687 759 
Q 2956 1122 2956 1747 
Q 2956 2369 2687 2733 
Q 2419 3097 1959 3097 
z
M 1959 3584 
Q 2709 3584 3137 3096 
Q 3566 2609 3566 1747 
Q 3566 888 3137 398 
Q 2709 -91 1959 -91 
Q 1206 -91 779 398 
Q 353 888 353 1747 
Q 353 2609 779 3096 
Q 1206 3584 1959 3584 
z
" transform="scale(0.015625)"/>
       <path id="DejaVuSans-6e" d="M 3513 2113 
L 3513 0 
L 2938 0 
L 2938 2094 
Q 2938 2591 2744 2837 
Q 2550 3084 2163 3084 
Q 1697 3084 1428 2787 
Q 1159 2491 1159 1978 
L 1159 0 
L 581 0 
L 581 3500 
L 1159 3500 
L 1159 2956 
Q 1366 3272 1645 3428 
Q 1925 3584 2291 3584 
Q 2894 3584 3203 3211 
Q 3513 2838 3513 2113 
z
" transform="scale(0.015625)"/>
       <path id="DejaVuSans-64" d="M 2906 2969 
L 2906 4863 
L 3481 4863 
L 3481 0 
L 2906 0 
L 2906 525 
Q 2725 213 2448 61 
Q 2172 -91 1784 -91 
Q 1150 -91 751 415 
Q 353 922 353 1747 
Q 353 2572 751 3078 
Q 1150 3584 1784 3584 
Q 2172 3584 2448 3432 
Q 2725 3281 2906 2969 
z
M 947 1747 
Q 947 1113 1208 752 
Q 1469 391 1925 391 
Q 2381 391 2643 752 
Q 2906 1113 2906 1747 
Q 2906 2381 2643 2742 
Q 2381 3103 1925 3103 
Q 1469 3103 1208 2742 
Q 947 2381 947 1747 
z
" transform="scale(0.015625)"/>
      </defs>
      <use xlink:href="#DejaVuSans-73"/>
      <use xlink:href="#DejaVuSans-65" x="52.099609"/>
      <use xlink:href="#DejaVuSans-63" x="113.623047"/>
      <use xlink:href="#DejaVuSans-6f" x="168.603516"/>
      <use xlink:href="#DejaVuSans-6e" x="229.785156"/>
      <use xlink:href="#DejaVuSans-64" x="293.164062"/>
      <use xlink:href="#DejaVuSans-73" x="356.640625"/>
     </g>
    </g>
   </g>
   <g id="matplotlib.axis_2">
    <g id="ytick_1">
     <g id="line2d_6">
      <defs>
       <path id="m7d637cb05f" d="M 0 0 
L -3.5 0 
" style="stroke: #000000; stroke-width: 0.8"/>
      </defs>
      <g>
       <use xlink:href="#m7d637cb05f" x="46.55" y="297.295824" style="stroke: #000000; stroke-width: 0.8"/>
      </g>
     </g>
     <g id="text_7">
      <!-- 2 -->
      <g transform="translate(24.807813 301.095042)scale(0.1 -0.1)">
       <defs>
        <path id="DejaVuSans-2212" d="M 678 2272 
L 4684 2272 
L 4684 1741 
L 678 1741 
L 678 2272 
z
" transform="scale(0.015625)"/>
       </defs>
       <use xlink:href="#DejaVuSans-2212"/>
       <use xlink:href="#DejaVuSans-32" x="83.789062"/>
      </g>
     </g>
    </g>
    <g id="ytick_2">
     <g id="line2d_7">
      <g>
       <use xlink:href="#m7d637cb05f" x="46.55" y="247.467485" style="stroke: #000000; stroke-width: 0.8"/>
      </g>
     </g>
     <g id="text_8">
      <!-- 0 -->
      <g transform="translate(33.1875 251.266703)scale(0.1 -0.1)">
       <use xlink:href="#DejaVuSans-30"/>
      </g>
     </g>
    </g>
    <g id="ytick_3">
     <g id="line2d_8">
      <g>
       <use xlink:href="#m7d637cb05f" x="46.55" y="197.639146" style="stroke: #000000; stroke-width: 0.8"/>
      </g>
     </g>
     <g id="text_9">
      <!-- 2 -->
      <g transform="translate(33.1875 201.438365)scale(0.1 -0.1)">
       <use xlink:href="#DejaVuSans-32"/>
      </g>
     </g>
    </g>
    <g id="ytick_4">
     <g id="line2d_9">
      <g>
       <use xlink:href="#m7d637cb05f" x="46.55" y="147.810807" style="stroke: #000000; stroke-width: 0.8"/>
      </g>
     </g>
     <g id="text_10">
      <!-- 4 -->
      <g transform="translate(33.1875 151.610026)scale(0.1 -0.1)">
       <use xlink:href="#DejaVuSans-34"/>
      </g>
     </g>
    </g>
    <g id="ytick_5">
     <g id="line2d_10">
      <g>
       <use xlink:href="#m7d637cb05f" x="46.55" y="97.982468" style="stroke: #000000; stroke-width: 0.8"/>
      </g>
     </g>
     <g id="text_11">
      <!-- 6 -->
      <g transform="translate(33.1875 101.781687)scale(0.1 -0.1)">
       <use xlink:href="#DejaVuSans-36"/>
      </g>
     </g>
    </g>
    <g id="text_12">
     <!-- V -->
     <g transform="translate(18.728125 201.487562)rotate(-90)scale(0.1 -0.1)">
      <defs>
       <path id="DejaVuSans-b5" d="M 544 -1331 
L 544 3500 
L 1119 3500 
L 1119 1325 
Q 1119 872 1334 640 
Q 1550 409 1972 409 
Q 2434 409 2667 671 
Q 2900 934 2900 1459 
L 2900 3500 
L 3475 3500 
L 3475 806 
Q 3475 619 3529 530 
Q 3584 441 3700 441 
Q 3728 441 3778 458 
Q 3828 475 3916 513 
L 3916 50 
Q 3788 -22 3673 -56 
Q 3559 -91 3450 -91 
Q 3234 -91 3106 31 
Q 2978 153 2931 403 
Q 2775 156 2548 32 
Q 2322 -91 2016 -91 
Q 1697 -91 1473 31 
Q 1250 153 1119 397 
L 1119 -1331 
L 544 -1331 
z
" transform="scale(0.015625)"/>
       <path id="DejaVuSans-56" d="M 1831 0 
L 50 4666 
L 709 4666 
L 2188 738 
L 3669 4666 
L 4325 4666 
L 2547 0 
L 1831 0 
z
" transform="scale(0.015625)"/>
      </defs>
      <use xlink:href="#DejaVuSans-b5"/>
      <use xlink:href="#DejaVuSans-56" x="63.623047"/>
     </g>
    </g>
   </g>
   <g id="line2d_11">
    <path d="M 46.55 248.957485 
L 47.34614 249.799856 
L 48.93842 252.070949 
L 49.73456 252.599945 
L 50.5307 252.175076 
L 51.326839 250.650023 
L 52.122979 248.176245 
L 53.715259 242.163064 
L 54.511399 239.723243 
L 55.307539 238.255806 
L 56.103679 237.957334 
L 56.899819 238.791654 
L 57.695959 240.525919 
L 60.084378 247.317764 
L 60.880518 248.842618 
L 61.676658 249.561121 
L 62.472798 249.412752 
L 63.268938 248.499851 
L 65.657358 244.209835 
L 66.453498 243.507227 
L 67.249638 243.601751 
L 68.045778 244.489039 
L 68.841918 245.967081 
L 70.434197 249.295529 
L 71.230337 250.456156 
L 72.026477 251.01593 
L 72.822617 250.990896 
L 73.618757 250.546187 
L 75.211037 249.36911 
L 76.007177 249.041144 
L 76.803317 248.9995 
L 77.599457 249.200401 
L 79.987876 250.111443 
L 80.784016 250.176216 
L 81.580156 250.041878 
L 82.376296 249.714947 
L 83.968576 248.644242 
L 85.560856 247.5724 
L 86.356996 247.344589 
L 87.153135 247.497337 
L 87.949275 248.113488 
L 88.745415 249.196093 
L 90.337695 252.300451 
L 91.133835 253.908883 
L 91.929975 255.240206 
L 92.726115 256.102126 
L 93.522255 256.382513 
L 94.318395 256.064522 
L 95.114535 255.221227 
L 96.706814 252.5773 
L 98.299094 249.973908 
L 99.095234 249.145725 
L 99.891374 248.778676 
L 100.687514 248.87048 
L 101.483654 249.310115 
L 103.075934 250.347642 
L 103.872074 250.440253 
L 104.668213 250.017392 
L 105.464353 249.079558 
L 107.852773 245.22092 
L 108.648913 244.391334 
L 110.241193 243.445125 
L 111.037333 242.661787 
L 111.833473 241.117627 
L 112.629613 238.566027 
L 113.425753 235.076225 
L 115.018032 227.321905 
L 115.814172 224.62492 
L 116.610312 223.694018 
L 117.406452 224.871271 
L 118.202592 228.022065 
L 119.794872 237.644718 
L 120.591012 242.389049 
L 121.387152 246.164494 
L 122.183292 248.740082 
L 122.979431 250.30652 
L 124.571711 252.426855 
L 125.367851 253.940192 
L 126.960131 258.27695 
L 127.756271 260.35266 
L 128.552411 261.664163 
L 129.348551 261.826297 
L 130.144691 260.739918 
L 130.940831 258.612916 
L 133.32925 250.403259 
L 134.12539 248.283834 
L 134.92153 246.663852 
L 135.71767 245.446575 
L 136.51381 244.525968 
L 137.30995 243.872166 
L 138.10609 243.55442 
L 138.90223 243.693596 
L 139.69837 244.370867 
L 140.494509 245.539179 
L 142.086789 248.347268 
L 142.882929 249.235437 
L 143.679069 249.32324 
L 144.475209 248.453353 
L 145.271349 246.664866 
L 146.067489 244.151236 
L 147.659769 237.941671 
L 151.640468 221.683752 
L 152.436608 219.511564 
L 153.232748 218.415112 
L 154.028888 218.618622 
L 154.825028 220.084512 
L 157.213448 227.245572 
L 158.009588 228.235035 
L 158.805727 227.669002 
L 159.601867 225.555609 
L 161.194147 218.604374 
L 161.990287 215.230809 
L 162.786427 212.830226 
L 163.582567 211.764371 
L 164.378707 212.046233 
L 165.174847 213.378608 
L 166.767127 217.171223 
L 167.563266 218.622111 
L 168.359406 219.321599 
L 169.155546 219.168859 
L 169.951686 218.249782 
L 171.543966 215.134705 
L 172.340106 213.620669 
L 173.136246 212.577555 
L 173.932386 212.222725 
L 174.728526 212.600504 
L 175.524666 213.538241 
L 176.320805 214.649235 
L 177.116945 215.39864 
L 177.913085 215.23011 
L 178.709225 213.726793 
L 179.505365 210.76056 
L 180.301505 206.576967 
L 181.893785 197.182763 
L 182.689925 193.631163 
L 183.486065 191.735683 
L 184.282205 191.712018 
L 185.078344 193.314277 
L 187.466764 200.870935 
L 188.262904 202.007295 
L 189.059044 202.043085 
L 190.651324 200.502072 
L 191.447464 200.186781 
L 192.243604 200.828678 
L 193.039744 202.499576 
L 194.632023 207.29913 
L 195.428163 209.044059 
L 196.224303 209.47092 
L 197.020443 208.247987 
L 197.816583 205.435719 
L 199.408863 197.009503 
L 200.205003 192.822904 
L 201.001143 189.547729 
L 201.797283 187.587964 
L 202.593423 187.044367 
L 203.389562 187.724533 
L 204.185702 189.211142 
L 204.981842 190.964569 
L 205.777982 192.435562 
L 206.574122 193.168439 
L 207.370262 192.881869 
L 208.166402 191.51823 
L 208.962542 189.253224 
L 211.350962 181.246821 
L 212.147101 179.683619 
L 212.943241 179.075647 
L 213.739381 179.285439 
L 215.331661 180.496801 
L 216.127801 180.485613 
L 216.923941 179.582872 
L 217.720081 177.760421 
L 220.108501 170.428459 
L 220.90464 168.994677 
L 221.70078 168.520735 
L 222.49692 168.857235 
L 224.0892 170.313792 
L 224.88534 170.552232 
L 225.68148 170.145334 
L 226.47762 169.172148 
L 228.0699 166.796064 
L 228.86604 166.111173 
L 229.66218 166.036879 
L 230.458319 166.532123 
L 233.642879 169.872112 
L 235.235159 170.933766 
L 236.031299 171.656192 
L 236.827439 172.667303 
L 238.419719 175.468215 
L 240.011998 178.448142 
L 240.808138 179.632287 
L 241.604278 180.442743 
L 242.400418 180.745375 
L 243.196558 180.373941 
L 243.992698 179.139759 
L 244.788838 176.885042 
L 245.584978 173.568196 
L 247.177258 164.61081 
L 247.973397 159.942794 
L 248.769537 155.984547 
L 249.565677 153.258154 
L 250.361817 151.991997 
L 251.157957 152.022404 
L 252.750237 153.618313 
L 253.546377 153.680223 
L 254.342517 152.497677 
L 255.138657 149.972134 
L 257.527076 139.086739 
L 258.323216 136.646013 
L 259.119356 135.529855 
L 259.915496 135.639211 
L 260.711636 136.549646 
L 261.507776 137.680599 
L 262.303916 138.499329 
L 263.100056 138.684796 
L 263.896196 138.197147 
L 267.080755 134.530455 
L 267.876895 134.180029 
L 269.469175 133.676842 
L 270.265315 133.131533 
L 271.061455 132.241479 
L 271.857595 131.011311 
L 273.449875 127.774382 
L 275.042154 123.790342 
L 277.430574 117.219166 
L 278.226714 115.534309 
L 279.022854 114.530677 
L 279.818994 114.37317 
L 280.615134 115.043465 
L 283.003554 119.029563 
L 283.799693 119.694721 
L 284.595833 119.645877 
L 285.391973 118.994952 
L 286.984253 117.194734 
L 287.780393 116.731709 
L 288.576533 116.777924 
L 289.372673 117.22834 
L 290.168813 117.81577 
L 290.964953 118.234288 
L 291.761093 118.274383 
L 292.557232 117.913433 
L 294.149512 116.800574 
L 294.945652 116.633119 
L 295.741792 116.993014 
L 296.537932 117.871653 
L 300.518632 124.222375 
L 301.314771 125.701724 
L 302.110911 127.584885 
L 305.295471 136.511043 
L 306.091611 137.236617 
L 306.887751 136.769155 
L 307.683891 135.191069 
L 308.480031 132.816001 
L 310.072311 127.407738 
L 310.86845 125.100109 
L 311.66459 123.300289 
L 312.46073 122.027856 
L 313.25687 121.26277 
L 314.05301 121.026669 
L 314.84915 121.415758 
L 315.64529 122.565007 
L 316.44143 124.560296 
L 317.23757 127.344064 
L 319.625989 137.251621 
L 320.422129 139.703222 
L 321.218269 141.349865 
L 322.014409 142.336165 
L 323.606689 143.795043 
L 324.402829 144.964509 
L 326.791249 149.756759 
L 327.587389 150.434936 
L 328.383528 150.034086 
L 329.179668 148.562369 
L 331.568088 142.099863 
L 332.364228 141.111465 
L 333.160368 141.200536 
L 333.956508 142.211043 
L 336.344928 146.724485 
L 337.141067 147.65626 
L 338.733347 148.847733 
L 339.529487 149.693811 
L 340.325627 151.053449 
L 341.121767 153.016402 
L 342.714047 158.356167 
L 345.102467 166.892332 
L 345.898606 169.243874 
L 346.694746 171.197453 
L 347.490886 172.677756 
L 348.287026 173.612541 
L 349.083166 173.957841 
L 349.879306 173.731521 
L 350.675446 173.031124 
L 352.267726 170.865559 
L 354.656146 167.250013 
L 355.452285 165.72195 
L 356.248425 163.803242 
L 357.840705 158.8993 
L 358.636845 156.384259 
L 359.432985 154.321273 
L 360.229125 153.045723 
L 361.025265 152.714509 
L 361.821405 153.235059 
L 363.413685 155.389941 
L 364.209824 156.121471 
L 365.005964 156.198165 
L 365.802104 155.595827 
L 368.190524 152.535401 
L 368.986664 152.198433 
L 369.782804 152.395464 
L 372.171224 153.942277 
L 372.967363 154.077971 
L 373.763503 154.085807 
L 374.559643 154.285359 
L 375.355783 155.04353 
L 376.151923 156.610043 
L 376.948063 158.983331 
L 378.540343 164.711341 
L 379.336483 166.913249 
L 380.132623 167.969804 
L 380.928763 167.666808 
L 381.724902 166.151498 
L 384.113322 159.664869 
L 384.909462 158.711271 
L 385.705602 158.744604 
L 386.501742 159.531226 
L 388.094022 161.558818 
L 388.890162 161.954105 
L 389.686302 161.675984 
L 390.482441 160.822401 
L 392.074721 158.519691 
L 392.870861 157.661858 
L 393.667001 157.22506 
L 394.463141 157.203735 
L 395.259281 157.490461 
L 398.443841 159.244126 
L 399.239981 159.497409 
L 400.03612 159.594397 
L 400.83226 159.481517 
L 401.6284 159.126516 
L 404.01682 157.480601 
L 404.81296 157.490305 
L 405.6091 158.221553 
L 406.40524 159.799385 
L 407.20138 162.152209 
L 409.589799 170.536382 
L 410.385939 172.450158 
L 411.182079 173.57099 
L 411.978219 174.029843 
L 413.570499 174.394454 
L 413.570499 174.394454 
" clip-path="url(#pa2296d1b3b)" style="fill: none; stroke: #e41a1c; stroke-width: 1.5; stroke-linecap: square"/>
   </g>
   <g id="line2d_12">
    <path d="M 46.55 241.496328 
L 48.93842 242.668112 
L 49.73456 242.880057 
L 52.122979 243.169382 
L 52.919119 243.636349 
L 53.715259 244.512444 
L 54.511399 245.776499 
L 56.103679 248.662557 
L 56.899819 249.672324 
L 57.695959 250.026718 
L 58.492099 249.61364 
L 59.288239 248.502435 
L 62.472798 242.37337 
L 63.268938 241.619475 
L 64.065078 241.299734 
L 64.861218 241.303447 
L 66.453498 241.78008 
L 68.045778 242.451406 
L 69.638057 243.340567 
L 72.026477 245.119743 
L 73.618757 246.543055 
L 74.414897 247.454059 
L 75.211037 248.595481 
L 76.803317 251.62791 
L 78.395596 254.970887 
L 79.191736 256.269362 
L 79.987876 257.06337 
L 80.784016 257.265458 
L 81.580156 256.916443 
L 83.968576 254.574739 
L 84.764716 254.180274 
L 85.560856 254.229374 
L 86.356996 254.6895 
L 88.745415 256.840628 
L 89.541555 257.212758 
L 90.337695 257.2881 
L 93.522255 256.775914 
L 94.318395 256.981987 
L 95.910674 257.614117 
L 96.706814 257.761246 
L 97.502954 257.644661 
L 98.299094 257.243677 
L 100.687514 255.378428 
L 101.483654 255.05506 
L 102.279794 255.050781 
L 103.075934 255.336745 
L 104.668213 256.245728 
L 105.464353 256.513435 
L 106.260493 256.463414 
L 107.056633 256.046794 
L 107.852773 255.312356 
L 109.445053 253.472018 
L 110.241193 252.734684 
L 111.037333 252.327001 
L 111.833473 252.324911 
L 112.629613 252.726045 
L 113.425753 253.462563 
L 115.018032 255.518035 
L 121.387152 264.459615 
L 122.183292 265.384515 
L 122.979431 266.110506 
L 123.775571 266.604161 
L 124.571711 266.86792 
L 125.367851 266.938106 
L 126.960131 266.734599 
L 130.940831 265.893951 
L 132.53311 265.331225 
L 134.92153 264.36257 
L 135.71767 264.165975 
L 136.51381 264.088072 
L 138.10609 264.254306 
L 139.69837 264.498257 
L 140.494509 264.463109 
L 141.290649 264.250989 
L 142.882929 263.348232 
L 144.475209 262.367141 
L 145.271349 262.119329 
L 146.067489 262.118206 
L 146.863629 262.343926 
L 149.252049 263.344865 
L 150.048188 263.411868 
L 151.640468 263.052164 
L 152.436608 262.855682 
L 153.232748 262.859051 
L 154.028888 263.190967 
L 154.825028 263.906338 
L 155.621168 264.969324 
L 158.009588 268.883352 
L 158.805727 269.90309 
L 159.601867 270.607982 
L 160.398007 270.989927 
L 161.194147 271.101547 
L 164.378707 270.940169 
L 165.174847 271.227144 
L 165.970987 271.71127 
L 168.359406 273.501317 
L 169.155546 273.808654 
L 169.951686 273.84045 
L 171.543966 273.31983 
L 172.340106 273.08448 
L 173.136246 273.116736 
L 173.932386 273.537234 
L 174.728526 274.346695 
L 176.320805 276.487896 
L 177.116945 277.303482 
L 177.913085 277.630643 
L 178.709225 277.365597 
L 179.505365 276.561656 
L 181.893785 273.202226 
L 182.689925 272.633553 
L 183.486065 272.596297 
L 184.282205 273.077763 
L 185.078344 273.977477 
L 188.262904 278.721812 
L 189.059044 279.457263 
L 189.855184 279.760905 
L 190.651324 279.563372 
L 191.447464 278.873543 
L 193.039744 276.578152 
L 193.835884 275.479005 
L 194.632023 274.790218 
L 195.428163 274.703068 
L 196.224303 275.248884 
L 197.020443 276.276544 
L 198.612723 278.536508 
L 199.408863 279.117949 
L 200.205003 279.083846 
L 201.001143 278.475346 
L 203.389562 275.681007 
L 204.185702 275.318271 
L 204.981842 275.428443 
L 205.777982 275.907558 
L 207.370262 277.147188 
L 208.166402 277.500846 
L 208.962542 277.516009 
L 209.758682 277.181958 
L 210.554822 276.560139 
L 212.943241 274.115882 
L 213.739381 273.53505 
L 214.535521 273.259831 
L 215.331661 273.349633 
L 216.127801 273.790238 
L 218.516221 275.712553 
L 219.312361 275.776584 
L 220.108501 275.245449 
L 220.90464 274.132972 
L 223.29306 269.861608 
L 224.0892 269.307578 
L 224.88534 269.584653 
L 225.68148 270.648924 
L 228.86604 276.864597 
L 229.66218 277.501819 
L 230.458319 277.682143 
L 232.050599 277.636941 
L 232.846739 277.963862 
L 233.642879 278.785833 
L 234.439019 280.152689 
L 235.235159 281.992155 
L 237.623579 288.470988 
L 238.419719 290.235346 
L 239.215858 291.530546 
L 240.011998 292.300614 
L 240.808138 292.575416 
L 241.604278 292.459711 
L 243.196558 291.659919 
L 246.381118 289.923659 
L 247.177258 289.111924 
L 247.973397 287.940775 
L 249.565677 284.684717 
L 251.157957 281.340233 
L 251.954097 280.089429 
L 252.750237 279.198029 
L 255.138657 277.379125 
L 255.934797 276.487682 
L 257.527076 274.020166 
L 259.119356 271.597854 
L 259.915496 270.794591 
L 260.711636 270.327791 
L 261.507776 270.123379 
L 263.100056 269.961687 
L 263.896196 269.776289 
L 267.080755 268.57415 
L 267.876895 268.580551 
L 268.673035 268.830125 
L 269.469175 269.316088 
L 271.061455 270.788735 
L 272.653735 272.249084 
L 273.449875 272.607718 
L 274.246015 272.506355 
L 275.042154 271.839059 
L 275.838294 270.598878 
L 277.430574 267.012407 
L 278.226714 265.230887 
L 279.022854 263.87147 
L 279.818994 263.137477 
L 280.615134 263.058804 
L 281.411274 263.475586 
L 282.207414 264.084704 
L 283.003554 264.536026 
L 283.799693 264.545746 
L 284.595833 263.9871 
L 285.391973 262.926932 
L 286.984253 260.31086 
L 287.780393 259.363424 
L 288.576533 258.940847 
L 289.372673 259.079099 
L 290.168813 259.675149 
L 293.353372 263.0113 
L 294.149512 263.514278 
L 294.945652 263.856977 
L 295.741792 264.061994 
L 296.537932 264.135066 
L 297.334072 264.068984 
L 298.926352 263.55608 
L 300.518632 262.961128 
L 301.314771 262.888553 
L 302.110911 263.067183 
L 302.907051 263.493603 
L 305.295471 265.275203 
L 306.091611 265.62783 
L 306.887751 265.755646 
L 308.480031 265.542149 
L 310.072311 265.297664 
L 314.05301 265.17656 
L 316.44143 264.617304 
L 317.23757 264.66228 
L 318.03371 264.923066 
L 318.82985 265.395315 
L 320.422129 266.762492 
L 324.402829 270.67561 
L 325.995109 272.879985 
L 328.383528 276.780995 
L 329.179668 277.772429 
L 329.975808 278.377189 
L 330.771948 278.514159 
L 331.568088 278.17789 
L 332.364228 277.445093 
L 334.752648 274.487529 
L 335.548788 273.830024 
L 336.344928 273.518223 
L 337.141067 273.544226 
L 338.733347 274.200997 
L 339.529487 274.51908 
L 340.325627 274.622618 
L 341.121767 274.40871 
L 341.917907 273.844232 
L 342.714047 272.970455 
L 345.102467 269.691954 
L 345.898606 268.845247 
L 346.694746 268.286133 
L 347.490886 268.034064 
L 348.287026 268.054051 
L 349.879306 268.597984 
L 352.267726 269.535482 
L 355.452285 270.345872 
L 357.044565 270.618013 
L 357.840705 270.588417 
L 358.636845 270.38412 
L 359.432985 269.993555 
L 361.821405 268.338831 
L 362.617545 268.051128 
L 363.413685 268.135201 
L 364.209824 268.682516 
L 365.005964 269.708085 
L 365.802104 271.139071 
L 368.190524 276.177919 
L 368.986664 277.50277 
L 369.782804 278.482923 
L 370.578944 279.152849 
L 373.763503 281.142486 
L 375.355783 282.515368 
L 376.151923 283.005288 
L 376.948063 283.179018 
L 377.744203 282.975896 
L 378.540343 282.436447 
L 380.928763 280.330746 
L 381.724902 279.992635 
L 382.521042 279.929498 
L 384.909462 280.321882 
L 385.705602 280.230511 
L 386.501742 279.95248 
L 388.890162 278.862555 
L 389.686302 278.746148 
L 390.482441 278.811324 
L 392.870861 279.352272 
L 393.667001 279.317163 
L 394.463141 279.052021 
L 395.259281 278.531656 
L 396.055421 277.761564 
L 397.647701 275.638229 
L 399.239981 273.34874 
L 400.03612 272.494554 
L 400.83226 272.044114 
L 401.6284 272.108936 
L 402.42454 272.715707 
L 403.22068 273.782145 
L 405.6091 277.586415 
L 406.40524 278.242728 
L 407.20138 278.351179 
L 407.99752 277.949519 
L 411.182079 275.056603 
L 411.978219 274.959811 
L 412.774359 275.22767 
L 413.570499 275.7462 
L 413.570499 275.7462 
" clip-path="url(#pa2296d1b3b)" style="fill: none; stroke: #377eb8; stroke-width: 1.5; stroke-linecap: square"/>
   </g>
   <g id="line2d_13">
    <path d="M 87.153135 318.04 
L 87.153135 71.732 
" clip-path="url(#pa2296d1b3b)" style="fill: none; stroke: #000000; stroke-width: 0.5; stroke-linecap: square"/>
   </g>
   <g id="line2d_14">
    <path d="M 46.55 247.467485 
L 413.570499 247.467485 
" clip-path="url(#pa2296d1b3b)" style="fill: none; stroke: #000000; stroke-width: 0.5; stroke-linecap: square"/>
   </g>
   <g id="patch_4">
    <path d="M 46.55 318.04 
L 46.55 71.732 
" style="fill: none; stroke: #000000; stroke-width: 0.8; stroke-linejoin: miter; stroke-linecap: square"/>
   </g>
   <g id="patch_5">
    <path d="M 413.570499 318.04 
L 413.570499 71.732 
" style="fill: none; stroke: #000000; stroke-width: 0.8; stroke-linejoin: miter; stroke-linecap: square"/>
   </g>
   <g id="patch_6">
    <path d="M 46.55 318.04 
L 413.570499 318.04 
" style="fill: none; stroke: #000000; stroke-width: 0.8; stroke-linejoin: miter; stroke-linecap: square"/>
   </g>
   <g id="patch_7">
    <path d="M 46.55 71.732 
L 413.570499 71.732 
" style="fill: none; stroke: #000000; stroke-width: 0.8; stroke-linejoin: miter; stroke-linecap: square"/>
   </g>
   <g id="text_13">
    <!-- Cz -->
    <g transform="translate(222.721499 65.732)scale(0.12 -0.12)">
     <defs>
      <path id="DejaVuSans-43" d="M 4122 4306 
L 4122 3641 
Q 3803 3938 3442 4084 
Q 3081 4231 2675 4231 
Q 1875 4231 1450 3742 
Q 1025 3253 1025 2328 
Q 1025 1406 1450 917 
Q 1875 428 2675 428 
Q 3081 428 3442 575 
Q 3803 722 4122 1019 
L 4122 359 
Q 3791 134 3420 21 
Q 3050 -91 2638 -91 
Q 1578 -91 968 557 
Q 359 1206 359 2328 
Q 359 3453 968 4101 
Q 1578 4750 2638 4750 
Q 3056 4750 3426 4639 
Q 3797 4528 4122 4306 
z
" transform="scale(0.015625)"/>
      <path id="DejaVuSans-7a" d="M 353 3500 
L 3084 3500 
L 3084 2975 
L 922 459 
L 3084 459 
L 3084 0 
L 275 0 
L 275 525 
L 2438 3041 
L 353 3041 
L 353 3500 
z
" transform="scale(0.015625)"/>
     </defs>
     <use xlink:href="#DejaVuSans-43"/>
     <use xlink:href="#DejaVuSans-7a" x="69.824219"/>
    </g>
   </g>
   <g id="legend_1">
    <g id="patch_8">
     <path d="M 99.832906 48.500845 
L 360.287593 48.500845 
Q 362.287593 48.500845 362.287593 46.500845 
L 362.287593 18.144595 
Q 362.287593 16.144595 360.287593 16.144595 
L 99.832906 16.144595 
Q 97.832906 16.144595 97.832906 18.144595 
L 97.832906 46.500845 
Q 97.832906 48.500845 99.832906 48.500845 
z
" style="fill: #ffffff; opacity: 0.8; stroke: #cccccc; stroke-linejoin: miter"/>
    </g>
    <g id="text_14">
     <!-- Average of Session 49 -->
     <g transform="translate(174.500874 27.743033)scale(0.1 -0.1)">
      <defs>
       <path id="DejaVuSans-41" d="M 2188 4044 
L 1331 1722 
L 3047 1722 
L 2188 4044 
z
M 1831 4666 
L 2547 4666 
L 4325 0 
L 3669 0 
L 3244 1197 
L 1141 1197 
L 716 0 
L 50 0 
L 1831 4666 
z
" transform="scale(0.015625)"/>
       <path id="DejaVuSans-76" d="M 191 3500 
L 800 3500 
L 1894 563 
L 2988 3500 
L 3597 3500 
L 2284 0 
L 1503 0 
L 191 3500 
z
" transform="scale(0.015625)"/>
       <path id="DejaVuSans-72" d="M 2631 2963 
Q 2534 3019 2420 3045 
Q 2306 3072 2169 3072 
Q 1681 3072 1420 2755 
Q 1159 2438 1159 1844 
L 1159 0 
L 581 0 
L 581 3500 
L 1159 3500 
L 1159 2956 
Q 1341 3275 1631 3429 
Q 1922 3584 2338 3584 
Q 2397 3584 2469 3576 
Q 2541 3569 2628 3553 
L 2631 2963 
z
" transform="scale(0.015625)"/>
       <path id="DejaVuSans-61" d="M 2194 1759 
Q 1497 1759 1228 1600 
Q 959 1441 959 1056 
Q 959 750 1161 570 
Q 1363 391 1709 391 
Q 2188 391 2477 730 
Q 2766 1069 2766 1631 
L 2766 1759 
L 2194 1759 
z
M 3341 1997 
L 3341 0 
L 2766 0 
L 2766 531 
Q 2569 213 2275 61 
Q 1981 -91 1556 -91 
Q 1019 -91 701 211 
Q 384 513 384 1019 
Q 384 1609 779 1909 
Q 1175 2209 1959 2209 
L 2766 2209 
L 2766 2266 
Q 2766 2663 2505 2880 
Q 2244 3097 1772 3097 
Q 1472 3097 1187 3025 
Q 903 2953 641 2809 
L 641 3341 
Q 956 3463 1253 3523 
Q 1550 3584 1831 3584 
Q 2591 3584 2966 3190 
Q 3341 2797 3341 1997 
z
" transform="scale(0.015625)"/>
       <path id="DejaVuSans-67" d="M 2906 1791 
Q 2906 2416 2648 2759 
Q 2391 3103 1925 3103 
Q 1463 3103 1205 2759 
Q 947 2416 947 1791 
Q 947 1169 1205 825 
Q 1463 481 1925 481 
Q 2391 481 2648 825 
Q 2906 1169 2906 1791 
z
M 3481 434 
Q 3481 -459 3084 -895 
Q 2688 -1331 1869 -1331 
Q 1566 -1331 1297 -1286 
Q 1028 -1241 775 -1147 
L 775 -588 
Q 1028 -725 1275 -790 
Q 1522 -856 1778 -856 
Q 2344 -856 2625 -561 
Q 2906 -266 2906 331 
L 2906 616 
Q 2728 306 2450 153 
Q 2172 0 1784 0 
Q 1141 0 747 490 
Q 353 981 353 1791 
Q 353 2603 747 3093 
Q 1141 3584 1784 3584 
Q 2172 3584 2450 3431 
Q 2728 3278 2906 2969 
L 2906 3500 
L 3481 3500 
L 3481 434 
z
" transform="scale(0.015625)"/>
       <path id="DejaVuSans-20" transform="scale(0.015625)"/>
       <path id="DejaVuSans-66" d="M 2375 4863 
L 2375 4384 
L 1825 4384 
Q 1516 4384 1395 4259 
Q 1275 4134 1275 3809 
L 1275 3500 
L 2222 3500 
L 2222 3053 
L 1275 3053 
L 1275 0 
L 697 0 
L 697 3053 
L 147 3053 
L 147 3500 
L 697 3500 
L 697 3744 
Q 697 4328 969 4595 
Q 1241 4863 1831 4863 
L 2375 4863 
z
" transform="scale(0.015625)"/>
       <path id="DejaVuSans-53" d="M 3425 4513 
L 3425 3897 
Q 3066 4069 2747 4153 
Q 2428 4238 2131 4238 
Q 1616 4238 1336 4038 
Q 1056 3838 1056 3469 
Q 1056 3159 1242 3001 
Q 1428 2844 1947 2747 
L 2328 2669 
Q 3034 2534 3370 2195 
Q 3706 1856 3706 1288 
Q 3706 609 3251 259 
Q 2797 -91 1919 -91 
Q 1588 -91 1214 -16 
Q 841 59 441 206 
L 441 856 
Q 825 641 1194 531 
Q 1563 422 1919 422 
Q 2459 422 2753 634 
Q 3047 847 3047 1241 
Q 3047 1584 2836 1778 
Q 2625 1972 2144 2069 
L 1759 2144 
Q 1053 2284 737 2584 
Q 422 2884 422 3419 
Q 422 4038 858 4394 
Q 1294 4750 2059 4750 
Q 2388 4750 2728 4690 
Q 3069 4631 3425 4513 
z
" transform="scale(0.015625)"/>
       <path id="DejaVuSans-69" d="M 603 3500 
L 1178 3500 
L 1178 0 
L 603 0 
L 603 3500 
z
M 603 4863 
L 1178 4863 
L 1178 4134 
L 603 4134 
L 603 4863 
z
" transform="scale(0.015625)"/>
       <path id="DejaVuSans-39" d="M 703 97 
L 703 672 
Q 941 559 1184 500 
Q 1428 441 1663 441 
Q 2288 441 2617 861 
Q 2947 1281 2994 2138 
Q 2813 1869 2534 1725 
Q 2256 1581 1919 1581 
Q 1219 1581 811 2004 
Q 403 2428 403 3163 
Q 403 3881 828 4315 
Q 1253 4750 1959 4750 
Q 2769 4750 3195 4129 
Q 3622 3509 3622 2328 
Q 3622 1225 3098 567 
Q 2575 -91 1691 -91 
Q 1453 -91 1209 -44 
Q 966 3 703 97 
z
M 1959 2075 
Q 2384 2075 2632 2365 
Q 2881 2656 2881 3163 
Q 2881 3666 2632 3958 
Q 2384 4250 1959 4250 
Q 1534 4250 1286 3958 
Q 1038 3666 1038 3163 
Q 1038 2656 1286 2365 
Q 1534 2075 1959 2075 
z
" transform="scale(0.015625)"/>
      </defs>
      <use xlink:href="#DejaVuSans-41"/>
      <use xlink:href="#DejaVuSans-76" x="62.533203"/>
      <use xlink:href="#DejaVuSans-65" x="121.712891"/>
      <use xlink:href="#DejaVuSans-72" x="183.236328"/>
      <use xlink:href="#DejaVuSans-61" x="224.349609"/>
      <use xlink:href="#DejaVuSans-67" x="285.628906"/>
      <use xlink:href="#DejaVuSans-65" x="349.105469"/>
      <use xlink:href="#DejaVuSans-20" x="410.628906"/>
      <use xlink:href="#DejaVuSans-6f" x="442.416016"/>
      <use xlink:href="#DejaVuSans-66" x="503.597656"/>
      <use xlink:href="#DejaVuSans-20" x="538.802734"/>
      <use xlink:href="#DejaVuSans-53" x="570.589844"/>
      <use xlink:href="#DejaVuSans-65" x="634.066406"/>
      <use xlink:href="#DejaVuSans-73" x="695.589844"/>
      <use xlink:href="#DejaVuSans-73" x="747.689453"/>
      <use xlink:href="#DejaVuSans-69" x="799.789062"/>
      <use xlink:href="#DejaVuSans-6f" x="827.572266"/>
      <use xlink:href="#DejaVuSans-6e" x="888.753906"/>
      <use xlink:href="#DejaVuSans-20" x="952.132812"/>
      <use xlink:href="#DejaVuSans-34" x="983.919922"/>
      <use xlink:href="#DejaVuSans-39" x="1047.542969"/>
     </g>
    </g>
    <g id="line2d_15">
     <path d="M 101.832906 38.921158 
L 111.832906 38.921158 
L 121.832906 38.921158 
" style="fill: none; stroke: #e41a1c; stroke-width: 1.5; stroke-linecap: square"/>
    </g>
    <g id="text_15">
     <!-- Target (n=297) -->
     <g transform="translate(129.832906 42.421158)scale(0.1 -0.1)">
      <defs>
       <path id="DejaVuSans-54" d="M -19 4666 
L 3928 4666 
L 3928 4134 
L 2272 4134 
L 2272 0 
L 1638 0 
L 1638 4134 
L -19 4134 
L -19 4666 
z
" transform="scale(0.015625)"/>
       <path id="DejaVuSans-74" d="M 1172 4494 
L 1172 3500 
L 2356 3500 
L 2356 3053 
L 1172 3053 
L 1172 1153 
Q 1172 725 1289 603 
Q 1406 481 1766 481 
L 2356 481 
L 2356 0 
L 1766 0 
Q 1100 0 847 248 
Q 594 497 594 1153 
L 594 3053 
L 172 3053 
L 172 3500 
L 594 3500 
L 594 4494 
L 1172 4494 
z
" transform="scale(0.015625)"/>
       <path id="DejaVuSans-28" d="M 1984 4856 
Q 1566 4138 1362 3434 
Q 1159 2731 1159 2009 
Q 1159 1288 1364 580 
Q 1569 -128 1984 -844 
L 1484 -844 
Q 1016 -109 783 600 
Q 550 1309 550 2009 
Q 550 2706 781 3412 
Q 1013 4119 1484 4856 
L 1984 4856 
z
" transform="scale(0.015625)"/>
       <path id="DejaVuSans-3d" d="M 678 2906 
L 4684 2906 
L 4684 2381 
L 678 2381 
L 678 2906 
z
M 678 1631 
L 4684 1631 
L 4684 1100 
L 678 1100 
L 678 1631 
z
" transform="scale(0.015625)"/>
       <path id="DejaVuSans-37" d="M 525 4666 
L 3525 4666 
L 3525 4397 
L 1831 0 
L 1172 0 
L 2766 4134 
L 525 4134 
L 525 4666 
z
" transform="scale(0.015625)"/>
       <path id="DejaVuSans-29" d="M 513 4856 
L 1013 4856 
Q 1481 4119 1714 3412 
Q 1947 2706 1947 2009 
Q 1947 1309 1714 600 
Q 1481 -109 1013 -844 
L 513 -844 
Q 928 -128 1133 580 
Q 1338 1288 1338 2009 
Q 1338 2731 1133 3434 
Q 928 4138 513 4856 
z
" transform="scale(0.015625)"/>
      </defs>
      <use xlink:href="#DejaVuSans-54"/>
      <use xlink:href="#DejaVuSans-61" x="44.583984"/>
      <use xlink:href="#DejaVuSans-72" x="105.863281"/>
      <use xlink:href="#DejaVuSans-67" x="145.226562"/>
      <use xlink:href="#DejaVuSans-65" x="208.703125"/>
      <use xlink:href="#DejaVuSans-74" x="270.226562"/>
      <use xlink:href="#DejaVuSans-20" x="309.435547"/>
      <use xlink:href="#DejaVuSans-28" x="341.222656"/>
      <use xlink:href="#DejaVuSans-6e" x="380.236328"/>
      <use xlink:href="#DejaVuSans-3d" x="443.615234"/>
      <use xlink:href="#DejaVuSans-32" x="527.404297"/>
      <use xlink:href="#DejaVuSans-39" x="591.027344"/>
      <use xlink:href="#DejaVuSans-37" x="654.650391"/>
      <use xlink:href="#DejaVuSans-29" x="718.273438"/>
     </g>
    </g>
    <g id="line2d_16">
     <path d="M 225.562593 38.921158 
L 235.562593 38.921158 
L 245.562593 38.921158 
" style="fill: none; stroke: #377eb8; stroke-width: 1.5; stroke-linecap: square"/>
    </g>
    <g id="text_16">
     <!-- Non-Target (n=1484) -->
     <g transform="translate(253.562593 42.421158)scale(0.1 -0.1)">
      <defs>
       <path id="DejaVuSans-4e" d="M 628 4666 
L 1478 4666 
L 3547 763 
L 3547 4666 
L 4159 4666 
L 4159 0 
L 3309 0 
L 1241 3903 
L 1241 0 
L 628 0 
L 628 4666 
z
" transform="scale(0.015625)"/>
       <path id="DejaVuSans-2d" d="M 313 2009 
L 1997 2009 
L 1997 1497 
L 313 1497 
L 313 2009 
z
" transform="scale(0.015625)"/>
       <path id="DejaVuSans-31" d="M 794 531 
L 1825 531 
L 1825 4091 
L 703 3866 
L 703 4441 
L 1819 4666 
L 2450 4666 
L 2450 531 
L 3481 531 
L 3481 0 
L 794 0 
L 794 531 
z
" transform="scale(0.015625)"/>
      </defs>
      <use xlink:href="#DejaVuSans-4e"/>
      <use xlink:href="#DejaVuSans-6f" x="74.804688"/>
      <use xlink:href="#DejaVuSans-6e" x="135.986328"/>
      <use xlink:href="#DejaVuSans-2d" x="199.365234"/>
      <use xlink:href="#DejaVuSans-54" x="226.324219"/>
      <use xlink:href="#DejaVuSans-61" x="270.908203"/>
      <use xlink:href="#DejaVuSans-72" x="332.1875"/>
      <use xlink:href="#DejaVuSans-67" x="371.550781"/>
      <use xlink:href="#DejaVuSans-65" x="435.027344"/>
      <use xlink:href="#DejaVuSans-74" x="496.550781"/>
      <use xlink:href="#DejaVuSans-20" x="535.759766"/>
      <use xlink:href="#DejaVuSans-28" x="567.546875"/>
      <use xlink:href="#DejaVuSans-6e" x="606.560547"/>
      <use xlink:href="#DejaVuSans-3d" x="669.939453"/>
      <use xlink:href="#DejaVuSans-31" x="753.728516"/>
      <use xlink:href="#DejaVuSans-34" x="817.351562"/>
      <use xlink:href="#DejaVuSans-38" x="880.974609"/>
      <use xlink:href="#DejaVuSans-34" x="944.597656"/>
      <use xlink:href="#DejaVuSans-29" x="1008.220703"/>
     </g>
    </g>
   </g>
  </g>
 </g>
 <defs>
  <clipPath id="pa2296d1b3b">
   <rect x="46.55" y="71.732" width="367.020499" height="246.308"/>
  </clipPath>
 </defs>
</svg>
