<?xml version="1.0" encoding="utf-8" standalone="no"?>
<!DOCTYPE svg PUBLIC "-//W3C//DTD SVG 1.1//EN"
  "http://www.w3.org/Graphics/SVG/1.1/DTD/svg11.dtd">
<svg xmlns:xlink="http://www.w3.org/1999/xlink" width="432pt" height="360pt" viewBox="0 0 432 360" xmlns="http://www.w3.org/2000/svg" version="1.1">
 <metadata>
  <rdf:RDF xmlns:dc="http://purl.org/dc/elements/1.1/" xmlns:cc="http://creativecommons.org/ns#" xmlns:rdf="http://www.w3.org/1999/02/22-rdf-syntax-ns#">
   <cc:Work>
    <dc:type rdf:resource="http://purl.org/dc/dcmitype/StillImage"/>
    <dc:date>2022-05-19T11:52:36.374835</dc:date>
    <dc:format>image/svg+xml</dc:format>
    <dc:creator>
     <cc:Agent>
      <dc:title>Matplotlib v3.5.1, https://matplotlib.org/</dc:title>
     </cc:Agent>
    </dc:creator>
   </cc:Work>
  </rdf:RDF>
 </metadata>
 <defs>
  <style type="text/css">*{stroke-linejoin: round; stroke-linecap: butt}</style>
 </defs>
 <g id="figure_1">
  <g id="patch_1">
   <path d="M 0 360 
L 432 360 
L 432 0 
L 0 0 
L 0 360 
z
" style="fill: none"/>
  </g>
  <g id="axes_1">
   <g id="patch_2">
    <path d="M 46.64 318.04 
L 413.570499 318.04 
L 413.570499 71.732 
L 46.64 71.732 
L 46.64 318.04 
z
" style="fill: none"/>
   </g>
   <g id="PolyCollection_1">
    <defs>
     <path id="m88beff9b80" d="M 46.64 -135.276409 
L 46.64 -77.040588 
L 47.435945 -83.897392 
L 48.231889 -90.356985 
L 49.027834 -94.894206 
L 49.823779 -96.487562 
L 50.619723 -95.107233 
L 51.415668 -91.86813 
L 52.211613 -88.46737 
L 53.007557 -86.229979 
L 53.803502 -85.568167 
L 54.599447 -86.284006 
L 55.395392 -88.266799 
L 56.191336 -91.617322 
L 56.987281 -96.163559 
L 57.783226 -101.101836 
L 58.57917 -105.202801 
L 59.375115 -107.663874 
L 60.17106 -108.7491 
L 60.967004 -109.191578 
L 61.762949 -109.290999 
L 62.558894 -108.798021 
L 63.354838 -107.472986 
L 64.150783 -105.649425 
L 64.946728 -104.084283 
L 65.742672 -103.227499 
L 66.538617 -102.723115 
L 67.334562 -101.583732 
L 68.130506 -98.87693 
L 68.926451 -94.334024 
L 69.722396 -88.458287 
L 70.51834 -82.353929 
L 71.314285 -77.514251 
L 72.11023 -75.448605 
L 72.906175 -77.088797 
L 73.702119 -82.262973 
L 74.498064 -89.674019 
L 75.294009 -97.488905 
L 76.089953 -104.065133 
L 76.885898 -108.348842 
L 77.681843 -110.037431 
L 78.477787 -109.69837 
L 79.273732 -108.751543 
L 80.069677 -109.02791 
L 80.865621 -111.861054 
L 81.661566 -117.251999 
L 82.457511 -123.718893 
L 83.253455 -128.948067 
L 84.0494 -130.859505 
L 84.845345 -128.47608 
L 85.641289 -122.202491 
L 86.437234 -113.544994 
L 87.233179 -104.513514 
L 88.029124 -96.943232 
L 88.825068 -91.92084 
L 89.621013 -89.471725 
L 90.416958 -88.641498 
L 91.212902 -87.984899 
L 92.008847 -86.274638 
L 92.804792 -83.120758 
L 93.600736 -79.214959 
L 94.396681 -76.053919 
L 95.192626 -75.234918 
L 95.98857 -77.668884 
L 96.784515 -83.121459 
L 97.58046 -90.300821 
L 98.376404 -97.410239 
L 99.172349 -102.867294 
L 99.968294 -105.8656 
L 100.764238 -106.581817 
L 101.560183 -105.995367 
L 102.356128 -105.424591 
L 103.152073 -105.97572 
L 103.948017 -108.125119 
L 104.743962 -111.594368 
L 105.539907 -115.557054 
L 106.335851 -119.080685 
L 107.131796 -121.589644 
L 107.927741 -123.09207 
L 108.723685 -124.036379 
L 109.51963 -124.916718 
L 110.315575 -125.915427 
L 111.111519 -126.81533 
L 111.907464 -127.194267 
L 112.703409 -126.705718 
L 113.499353 -125.242995 
L 114.295298 -122.952294 
L 115.091243 -120.167015 
L 115.887187 -117.297864 
L 116.683132 -114.659857 
L 117.479077 -112.278875 
L 118.275021 -109.840967 
L 119.070966 -106.904115 
L 119.866911 -103.254906 
L 120.662856 -99.138117 
L 121.4588 -95.200393 
L 122.254745 -92.214123 
L 123.05069 -90.75669 
L 123.846634 -90.973039 
L 124.642579 -92.452166 
L 125.438524 -94.244104 
L 126.234468 -95.094906 
L 127.030413 -93.891624 
L 127.826358 -90.132043 
L 128.622302 -84.182959 
L 129.418247 -77.208796 
L 130.214192 -70.804823 
L 131.010136 -66.453809 
L 131.806081 -64.978803 
L 132.602026 -66.222492 
L 133.39797 -69.138702 
L 134.193915 -72.274496 
L 134.98986 -74.39401 
L 135.785805 -74.932049 
L 136.581749 -74.099793 
L 137.377694 -72.663566 
L 138.173639 -71.541843 
L 138.969583 -71.395794 
L 139.765528 -72.369498 
L 140.561473 -74.08092 
L 141.357417 -75.857814 
L 142.153362 -77.090744 
L 142.949307 -77.530272 
L 143.745251 -77.411677 
L 144.541196 -77.373739 
L 145.337141 -78.195467 
L 146.133085 -80.431849 
L 146.92903 -84.10847 
L 147.724975 -88.670028 
L 148.520919 -93.256675 
L 149.316864 -97.115918 
L 150.112809 -99.827373 
L 150.908753 -101.250897 
L 151.704698 -101.404761 
L 152.500643 -100.472269 
L 153.296588 -98.88542 
L 154.092532 -97.243213 
L 154.888477 -95.992554 
L 155.684422 -95.143272 
L 156.480366 -94.315685 
L 157.276311 -93.124626 
L 158.072256 -91.566533 
L 158.8682 -90.021288 
L 159.664145 -88.89434 
L 160.46009 -88.289643 
L 161.256034 -87.963462 
L 162.051979 -87.490078 
L 162.847924 -86.447337 
L 163.643868 -84.53366 
L 164.439813 -81.655485 
L 165.235758 -77.992589 
L 166.031702 -73.95765 
L 166.827647 -70.013704 
L 167.623592 -66.460141 
L 168.419537 -63.344103 
L 169.215481 -60.545051 
L 170.011426 -57.949164 
L 170.807371 -55.606323 
L 171.603315 -53.821814 
L 172.39926 -53.155818 
L 173.195205 -54.277313 
L 173.991149 -57.665391 
L 174.787094 -63.284596 
L 175.583039 -70.42562 
L 176.378983 -77.80745 
L 177.174928 -83.888244 
L 177.970873 -87.275918 
L 178.766817 -87.155474 
L 179.562762 -83.637371 
L 180.358707 -77.862514 
L 181.154651 -71.710911 
L 181.950596 -67.154664 
L 182.746541 -65.543045 
L 183.542485 -67.164285 
L 184.33843 -71.239165 
L 185.134375 -76.255737 
L 185.93032 -80.477459 
L 186.726264 -82.519832 
L 187.522209 -81.873878 
L 188.318154 -79.156147 
L 189.114098 -75.901055 
L 189.910043 -73.954624 
L 190.705988 -74.769362 
L 191.501932 -78.906059 
L 192.297877 -85.86315 
L 193.093822 -94.213807 
L 193.889766 -102.019754 
L 194.685711 -107.459576 
L 195.481656 -109.4753 
L 196.2776 -108.133482 
L 197.073545 -104.498203 
L 197.86949 -100.11677 
L 198.665434 -96.439617 
L 199.461379 -94.427355 
L 200.257324 -94.39513 
L 201.053269 -96.051513 
L 201.849213 -98.704903 
L 202.645158 -101.58032 
L 203.441103 -104.099569 
L 204.237047 -105.969028 
L 205.032992 -107.064119 
L 205.828937 -107.263778 
L 206.624881 -106.387471 
L 207.420826 -104.254515 
L 208.216771 -100.809661 
L 209.012715 -96.287977 
L 209.80866 -91.386623 
L 210.604605 -87.298838 
L 211.400549 -85.416605 
L 212.196494 -86.72697 
L 212.992439 -91.239168 
L 213.788383 -97.825425 
L 214.584328 -104.611602 
L 215.380273 -109.722946 
L 216.176218 -111.982914 
L 216.972162 -111.24451 
L 217.768107 -108.30706 
L 218.564052 -104.547293 
L 219.359996 -101.42789 
L 220.155941 -100.053539 
L 220.951886 -100.905735 
L 221.74783 -103.782613 
L 222.543775 -107.903055 
L 223.33972 -112.147655 
L 224.135664 -115.40435 
L 224.931609 -116.924306 
L 225.727554 -116.541198 
L 226.523498 -114.634974 
L 227.319443 -111.859622 
L 228.115388 -108.816289 
L 228.911332 -105.867227 
L 229.707277 -103.145786 
L 230.503222 -100.700645 
L 231.299166 -98.695468 
L 232.095111 -97.563772 
L 232.891056 -97.959408 
L 233.687001 -100.420536 
L 234.482945 -104.928106 
L 235.27889 -110.701177 
L 236.074835 -116.431562 
L 236.870779 -120.837866 
L 237.666724 -123.178499 
L 238.462669 -123.442863 
L 239.258613 -122.239066 
L 240.054558 -120.542707 
L 240.850503 -119.38761 
L 241.646447 -119.50311 
L 242.442392 -120.975224 
L 243.238337 -123.11725 
L 244.034281 -124.684971 
L 244.830226 -124.370479 
L 245.626171 -121.34686 
L 246.422115 -115.636687 
L 247.21806 -108.187932 
L 248.014005 -100.648627 
L 248.80995 -94.911971 
L 249.605894 -92.582013 
L 250.401839 -94.545585 
L 251.197784 -100.770646 
L 251.993728 -110.334705 
L 252.789673 -121.632255 
L 253.585618 -132.727907 
L 254.381562 -141.81521 
L 255.177507 -147.67164 
L 255.973452 -149.94614 
L 256.769396 -149.167575 
L 257.565341 -146.503283 
L 258.361286 -143.400823 
L 259.15723 -141.230377 
L 259.953175 -140.975961 
L 260.74912 -143.008598 
L 261.545064 -147.005408 
L 262.341009 -152.061694 
L 263.136954 -156.964747 
L 263.932898 -160.537319 
L 264.728843 -161.954731 
L 265.524788 -160.953255 
L 266.320733 -157.858438 
L 267.116677 -153.418567 
L 267.912622 -148.537965 
L 268.708567 -144.065042 
L 269.504511 -140.717426 
L 270.300456 -139.081307 
L 271.096401 -139.558252 
L 271.892345 -142.226396 
L 272.68829 -146.720215 
L 273.484235 -152.253732 
L 274.280179 -157.804307 
L 275.076124 -162.356897 
L 275.872069 -165.104722 
L 276.668013 -165.599006 
L 277.463958 -163.88369 
L 278.259903 -160.574426 
L 279.055847 -156.763903 
L 279.851792 -153.688116 
L 280.647737 -152.250979 
L 281.443682 -152.635187 
L 282.239626 -154.221406 
L 283.035571 -155.895355 
L 283.831516 -156.596712 
L 284.62746 -155.792205 
L 285.423405 -153.629239 
L 286.21935 -150.800562 
L 287.015294 -148.302489 
L 287.811239 -147.160748 
L 288.607184 -148.064944 
L 289.403128 -150.96444 
L 290.199073 -154.897896 
L 290.995018 -158.293672 
L 291.790962 -159.670985 
L 292.586907 -158.361563 
L 293.382852 -154.821649 
L 294.178796 -150.398943 
L 294.974741 -146.774513 
L 295.770686 -145.37332 
L 296.56663 -146.903507 
L 297.362575 -151.113519 
L 298.15852 -156.874356 
L 298.954465 -162.62444 
L 299.750409 -167.012211 
L 300.546354 -169.414806 
L 301.342299 -170.078083 
L 302.138243 -169.868218 
L 302.934188 -169.813414 
L 303.730133 -170.624792 
L 304.526077 -172.338525 
L 305.322022 -174.218755 
L 306.117967 -175.014763 
L 306.913911 -173.505088 
L 307.709856 -169.088721 
L 308.505801 -162.138774 
L 309.301745 -153.947042 
L 310.09769 -146.277853 
L 310.893635 -140.714591 
L 311.689579 -138.069359 
L 312.485524 -138.108175 
L 313.281469 -139.701896 
L 314.077414 -141.29749 
L 314.873358 -141.461101 
L 315.669303 -139.285074 
L 316.465248 -134.595501 
L 317.261192 -127.964031 
L 318.057137 -120.495475 
L 318.853082 -113.403956 
L 319.649026 -107.571457 
L 320.444971 -103.372493 
L 321.240916 -100.852689 
L 322.03686 -100.031887 
L 322.832805 -101.020896 
L 323.62875 -103.89679 
L 324.424694 -108.536241 
L 325.220639 -114.562338 
L 326.016584 -121.345932 
L 326.812528 -127.95202 
L 327.608473 -133.131623 
L 328.404418 -135.593045 
L 329.200363 -134.558539 
L 329.996307 -130.239982 
L 330.792252 -123.829214 
L 331.588197 -117.011389 
L 332.384141 -111.36762 
L 333.180086 -107.966572 
L 333.976031 -107.170731 
L 334.771975 -108.5619 
L 335.56792 -111.013992 
L 336.363865 -113.035785 
L 337.159809 -113.351381 
L 337.955754 -111.451209 
L 338.751699 -107.800946 
L 339.547643 -103.593332 
L 340.343588 -100.188777 
L 341.139533 -98.515025 
L 341.935477 -98.67183 
L 342.731422 -99.896264 
L 343.527367 -100.909416 
L 344.323311 -100.498146 
L 345.119256 -98.07367 
L 345.915201 -93.97786 
L 346.711146 -89.439288 
L 347.50709 -86.196076 
L 348.303035 -85.874224 
L 349.09898 -89.310609 
L 349.894924 -96.114366 
L 350.690869 -104.712218 
L 351.486814 -112.881259 
L 352.282758 -118.51486 
L 353.078703 -120.296072 
L 353.874648 -118.076925 
L 354.670592 -112.906173 
L 355.466537 -106.693975 
L 356.262482 -101.550502 
L 357.058426 -99.013544 
L 357.854371 -99.532773 
L 358.650316 -102.457793 
L 359.44626 -106.461454 
L 360.242205 -110.116924 
L 361.03815 -112.381712 
L 361.834095 -112.89249 
L 362.630039 -112.030517 
L 363.425984 -110.682113 
L 364.221929 -109.715889 
L 365.017873 -109.460595 
L 365.813818 -109.563498 
L 366.609763 -109.34067 
L 367.405707 -108.318818 
L 368.201652 -106.52154 
L 368.997597 -104.344768 
L 369.793541 -102.243954 
L 370.589486 -100.521765 
L 371.385431 -99.30272 
L 372.181375 -98.570093 
L 372.97732 -98.155769 
L 373.773265 -97.76553 
L 374.569209 -97.1498 
L 375.365154 -96.344054 
L 376.161099 -95.785351 
L 376.957043 -96.188814 
L 377.752988 -98.232052 
L 378.548933 -102.201387 
L 379.344878 -107.75525 
L 380.140822 -113.905495 
L 380.936767 -119.248719 
L 381.732712 -122.392113 
L 382.528656 -122.426284 
L 383.324601 -119.256266 
L 384.120546 -113.647452 
L 384.91649 -106.957547 
L 385.712435 -100.659098 
L 386.50838 -95.850037 
L 387.304324 -92.948957 
L 388.100269 -91.67084 
L 388.896214 -91.242552 
L 389.692158 -90.733848 
L 390.488103 -89.378928 
L 391.284048 -86.804871 
L 392.079992 -83.122832 
L 392.875937 -78.873242 
L 393.671882 -74.856688 
L 394.467827 -71.913906 
L 395.263771 -70.718731 
L 396.059716 -71.62393 
L 396.855661 -74.582999 
L 397.651605 -79.166757 
L 398.44755 -84.672533 
L 399.243495 -90.273629 
L 400.039439 -95.130096 
L 400.835384 -98.442953 
L 401.631329 -99.528959 
L 402.427273 -97.98422 
L 403.223218 -93.883044 
L 404.019163 -87.871216 
L 404.815107 -81.066631 
L 405.611052 -74.809482 
L 406.406997 -70.366491 
L 407.202941 -68.651962 
L 407.998886 -69.983983 
L 408.794831 -73.93433 
L 409.590775 -79.383982 
L 410.38672 -84.831493 
L 411.182665 -88.844726 
L 411.97861 -90.455197 
L 412.774554 -89.354608 
L 413.570499 -85.890364 
L 413.570499 -219.164912 
L 413.570499 -219.164912 
L 412.774554 -222.703721 
L 411.97861 -223.774847 
L 411.182665 -221.738632 
L 410.38672 -216.879638 
L 409.590775 -210.302084 
L 408.794831 -203.594879 
L 407.998886 -198.409806 
L 407.202941 -196.052278 
L 406.406997 -197.14117 
L 405.611052 -201.417352 
L 404.815107 -207.806424 
L 404.019163 -214.758407 
L 403.223218 -220.724061 
L 402.427273 -224.552184 
L 401.631329 -225.682078 
L 400.835384 -224.150685 
L 400.039439 -220.492289 
L 399.243495 -215.568318 
L 398.44755 -210.336361 
L 397.651605 -205.617775 
L 396.855661 -201.970687 
L 396.059716 -199.710957 
L 395.263771 -198.998477 
L 394.467827 -199.871025 
L 393.671882 -202.191979 
L 392.875937 -205.576822 
L 392.079992 -209.392145 
L 391.284048 -212.880471 
L 390.488103 -215.39608 
L 389.692158 -216.672121 
L 388.896214 -216.996365 
L 388.100269 -217.180976 
L 387.304324 -218.291706 
L 386.50838 -221.224164 
L 385.712435 -226.302205 
L 384.91649 -233.066581 
L 384.120546 -240.336645 
L 383.324601 -246.527732 
L 382.528656 -250.129878 
L 381.732712 -250.200704 
L 380.936767 -246.703322 
L 380.140822 -240.553282 
L 379.344878 -233.334993 
L 378.548933 -226.775922 
L 377.752988 -222.171693 
L 376.957043 -219.989751 
L 376.161099 -219.813503 
L 375.365154 -220.634412 
L 374.569209 -221.341421 
L 373.773265 -221.19415 
L 372.97732 -220.107477 
L 372.181375 -218.652309 
L 371.385431 -217.752072 
L 370.589486 -218.163359 
L 369.793541 -219.999771 
L 368.997597 -222.641038 
L 368.201652 -225.132503 
L 367.405707 -226.773541 
L 366.609763 -227.459128 
L 365.813818 -227.580809 
L 365.017873 -227.662294 
L 364.221929 -228.063402 
L 363.425984 -228.884504 
L 362.630039 -229.954358 
L 361.834095 -230.814783 
L 361.03815 -230.800322 
L 360.242205 -229.3426 
L 359.44626 -226.397461 
L 358.650316 -222.668803 
L 357.854371 -219.410635 
L 357.058426 -217.910347 
L 356.262482 -218.942264 
L 355.466537 -222.417577 
L 354.670592 -227.310866 
L 353.874648 -231.883804 
L 353.078703 -234.216277 
L 352.282758 -232.932763 
L 351.486814 -227.804362 
L 350.690869 -219.889986 
L 349.894924 -211.145645 
L 349.09898 -203.724393 
L 348.303035 -199.276918 
L 347.50709 -198.471105 
L 346.711146 -200.840385 
L 345.915201 -205.009707 
L 345.119256 -209.258373 
L 344.323311 -212.213253 
L 343.527367 -213.351012 
L 342.731422 -213.081448 
L 341.935477 -212.424463 
L 341.139533 -212.47826 
L 340.343588 -213.915987 
L 339.547643 -216.698634 
L 338.751699 -220.105188 
L 337.955754 -223.055706 
L 337.159809 -224.5732 
L 336.363865 -224.187532 
L 335.56792 -222.155297 
L 334.771975 -219.449265 
L 333.976031 -217.487136 
L 333.180086 -217.608871 
L 332.384141 -220.462315 
L 331.588197 -225.627897 
L 330.792252 -231.764031 
L 329.996307 -237.201618 
L 329.200363 -240.585145 
L 328.404418 -241.199675 
L 327.608473 -238.968626 
L 326.812528 -234.3612 
L 326.016584 -228.313203 
L 325.220639 -222.019184 
L 324.424694 -216.539435 
L 323.62875 -212.454929 
L 322.832805 -209.861813 
L 322.03686 -208.686681 
L 321.240916 -208.987615 
L 320.444971 -210.965053 
L 319.649026 -214.734451 
L 318.853082 -220.121843 
L 318.057137 -226.627264 
L 317.261192 -233.483114 
L 316.465248 -239.729251 
L 315.669303 -244.371127 
L 314.873358 -246.702819 
L 314.077414 -246.681568 
L 313.281469 -245.083173 
L 312.485524 -243.281735 
L 311.689579 -242.758283 
L 310.893635 -244.582514 
L 310.09769 -249.0625 
L 309.301745 -255.648949 
L 308.505801 -263.109429 
L 307.709856 -269.927765 
L 306.913911 -274.80357 
L 306.117967 -277.072182 
L 305.322022 -276.891063 
L 304.526077 -275.12678 
L 303.730133 -272.975778 
L 302.934188 -271.445997 
L 302.138243 -270.908675 
L 301.342299 -270.950869 
L 300.546354 -270.638942 
L 299.750409 -269.056868 
L 298.954465 -265.810275 
L 298.15852 -261.254493 
L 297.362575 -256.401711 
L 296.56663 -252.578319 
L 295.770686 -250.928566 
L 294.974741 -251.915974 
L 294.178796 -255.056388 
L 293.382852 -259.076867 
L 292.586907 -262.453159 
L 291.790962 -264.014238 
L 290.995018 -263.296383 
L 290.199073 -260.582692 
L 289.403128 -256.756882 
L 288.607184 -253.045701 
L 287.811239 -250.633507 
L 287.015294 -250.205465 
L 286.21935 -251.629827 
L 285.423405 -254.035666 
L 284.62746 -256.32022 
L 283.831516 -257.75563 
L 283.035571 -258.276641 
L 282.239626 -258.331383 
L 281.443682 -258.518446 
L 280.647737 -259.283857 
L 279.851792 -260.767826 
L 279.055847 -262.762554 
L 278.259903 -264.750269 
L 277.463958 -266.023535 
L 276.668013 -265.890115 
L 275.872069 -263.928563 
L 275.076124 -260.195431 
L 274.280179 -255.254314 
L 273.484235 -249.979645 
L 272.68829 -245.248884 
L 271.892345 -241.720245 
L 271.096401 -239.792421 
L 270.300456 -239.66454 
L 269.504511 -241.355811 
L 268.708567 -244.641495 
L 267.912622 -248.992553 
L 267.116677 -253.629511 
L 266.320733 -257.693795 
L 265.524788 -260.437895 
L 264.728843 -261.353555 
L 263.932898 -260.244289 
L 263.136954 -257.284199 
L 262.341009 -253.050564 
L 261.545064 -248.462977 
L 260.74912 -244.593208 
L 259.953175 -242.38445 
L 259.15723 -242.35778 
L 258.361286 -244.388924 
L 257.565341 -247.642694 
L 256.769396 -250.735022 
L 255.973452 -252.106118 
L 255.177507 -250.470951 
L 254.381562 -245.180738 
L 253.585618 -236.410039 
L 252.789673 -225.170607 
L 251.993728 -213.156676 
L 251.197784 -202.401622 
L 250.401839 -194.774998 
L 249.605894 -191.461793 
L 248.80995 -192.629764 
L 248.014005 -197.420637 
L 247.21806 -204.246838 
L 246.422115 -211.268431 
L 245.626171 -216.905823 
L 244.830226 -220.249426 
L 244.034281 -221.238022 
L 243.238337 -220.546608 
L 242.442392 -219.248329 
L 241.646447 -218.392268 
L 240.850503 -218.621353 
L 240.054558 -219.919273 
L 239.258613 -221.583322 
L 238.462669 -222.5017 
L 237.666724 -221.667105 
L 236.870779 -218.657096 
L 236.074835 -213.784997 
L 235.27889 -207.866244 
L 234.482945 -201.843866 
L 233.687001 -196.5443 
L 232.891056 -192.594787 
L 232.095111 -190.37736 
L 231.299166 -189.961006 
L 230.503222 -191.086162 
L 229.707277 -193.297536 
L 228.911332 -196.168042 
L 228.115388 -199.421108 
L 227.319443 -202.859056 
L 226.523498 -206.201063 
L 225.727554 -208.98253 
L 224.931609 -210.585315 
L 224.135664 -210.406923 
L 223.33972 -208.148872 
L 222.543775 -204.115167 
L 221.74783 -199.312422 
L 220.951886 -195.192869 
L 220.155941 -193.086864 
L 219.359996 -193.588802 
L 218.564052 -196.234787 
L 217.768107 -199.661704 
L 216.972162 -202.16679 
L 216.176218 -202.400189 
L 215.380273 -199.8866 
L 214.584328 -195.148818 
L 213.788383 -189.404125 
L 212.992439 -184.054602 
L 212.196494 -180.26016 
L 211.400549 -178.708976 
L 210.604605 -179.53582 
L 209.80866 -182.324861 
L 209.012715 -186.20247 
L 208.216771 -190.083012 
L 207.420826 -193.048478 
L 206.624881 -194.652973 
L 205.828937 -194.938037 
L 205.032992 -194.191275 
L 204.237047 -192.683414 
L 203.441103 -190.57201 
L 202.645158 -187.969933 
L 201.849213 -185.072345 
L 201.053269 -182.262832 
L 200.257324 -180.141637 
L 199.461379 -179.397712 
L 198.665434 -180.498467 
L 197.86949 -183.332014 
L 197.073545 -187.052209 
L 196.2776 -190.280659 
L 195.481656 -191.572427 
L 194.685711 -189.908581 
L 193.889766 -185.050523 
L 193.093822 -177.701691 
L 192.297877 -169.408318 
L 191.501932 -162.119568 
L 190.705988 -157.485212 
L 189.910043 -156.193512 
L 189.114098 -157.705786 
L 188.318154 -160.524517 
L 187.522209 -162.819799 
L 186.726264 -163.113202 
L 185.93032 -160.802279 
L 185.134375 -156.404617 
L 184.33843 -151.417225 
L 183.542485 -147.758736 
L 182.746541 -146.981945 
L 181.950596 -149.64065 
L 181.154651 -155.113759 
L 180.358707 -161.880946 
L 179.562762 -168.029916 
L 178.766817 -171.792648 
L 177.970873 -172.01185 
L 177.174928 -168.461819 
L 176.378983 -161.901356 
L 175.583039 -153.784641 
L 174.787094 -145.741347 
L 173.991149 -139.083452 
L 173.195205 -134.545567 
L 172.39926 -132.280738 
L 171.603315 -132.009223 
L 170.807371 -133.227586 
L 170.011426 -135.427754 
L 169.215481 -138.258882 
L 168.419537 -141.551077 
L 167.623592 -145.205612 
L 166.827647 -149.069096 
L 166.031702 -152.900161 
L 165.235758 -156.422315 
L 164.439813 -159.388152 
L 163.643868 -161.622787 
L 162.847924 -163.075925 
L 162.051979 -163.878625 
L 161.256034 -164.32064 
L 160.46009 -164.705247 
L 159.664145 -165.196576 
L 158.8682 -165.820357 
L 158.072256 -166.607077 
L 157.276311 -167.681279 
L 156.480366 -169.144499 
L 155.684422 -170.881231 
L 154.888477 -172.584055 
L 154.092532 -174.005649 
L 153.296588 -175.120319 
L 152.500643 -175.990805 
L 151.704698 -176.467533 
L 150.908753 -176.069627 
L 150.112809 -174.264422 
L 149.316864 -170.925649 
L 148.520919 -166.546381 
L 147.724975 -162.027257 
L 146.92903 -158.233585 
L 146.133085 -155.660992 
L 145.337141 -154.344509 
L 144.541196 -153.913008 
L 143.745251 -153.717215 
L 142.949307 -153.053845 
L 142.153362 -151.467442 
L 141.357417 -148.999462 
L 140.561473 -146.223953 
L 139.765528 -144.015869 
L 138.969583 -143.152898 
L 138.173639 -143.93353 
L 137.377694 -145.97786 
L 136.581749 -148.312679 
L 135.785805 -149.74084 
L 134.98986 -149.357281 
L 134.193915 -146.975835 
L 133.39797 -143.263646 
L 132.602026 -139.5321 
L 131.806081 -137.288869 
L 131.010136 -137.715783 
L 130.214192 -141.224856 
L 129.418247 -147.234674 
L 128.622302 -154.294184 
L 127.826358 -160.576854 
L 127.030413 -164.56625 
L 126.234468 -165.619581 
L 125.438524 -164.167787 
L 124.642579 -161.50148 
L 123.846634 -159.245582 
L 123.05069 -158.711878 
L 122.254745 -160.387889 
L 121.4588 -163.826742 
L 120.662856 -168.008283 
L 119.866911 -171.929884 
L 119.070966 -175.062177 
L 118.275021 -177.460284 
L 117.479077 -179.575993 
L 116.683132 -181.956824 
L 115.887187 -184.968307 
L 115.091243 -188.590249 
L 114.295298 -192.363158 
L 113.499353 -195.578329 
L 112.703409 -197.652922 
L 111.907464 -198.438018 
L 111.111519 -198.225806 
L 110.315575 -197.46368 
L 109.51963 -196.421635 
L 108.723685 -195.060952 
L 107.927741 -193.14169 
L 107.131796 -190.438453 
L 106.335851 -186.925868 
L 105.539907 -182.868506 
L 104.743962 -178.807645 
L 103.948017 -175.431639 
L 103.152073 -173.313466 
L 102.356128 -172.588142 
L 101.560183 -172.747903 
L 100.764238 -172.720064 
L 99.968294 -171.255364 
L 99.172349 -167.482259 
L 98.376404 -161.368104 
L 97.58046 -153.84144 
L 96.784515 -146.488555 
L 95.98857 -140.960933 
L 95.192626 -138.367039 
L 94.396681 -138.894202 
L 93.600736 -141.779517 
L 92.804792 -145.620799 
L 92.008847 -148.929017 
L 91.212902 -150.751874 
L 90.416958 -151.121326 
L 89.621013 -151.079349 
L 88.825068 -152.207736 
L 88.029124 -155.839646 
L 87.233179 -162.304339 
L 86.437234 -170.584901 
L 85.641289 -178.620952 
L 84.845345 -184.158043 
L 84.0494 -185.711868 
L 83.253455 -183.139768 
L 82.457511 -177.558899 
L 81.661566 -170.766441 
L 80.865621 -164.554169 
L 80.069677 -160.172525 
L 79.273732 -157.991421 
L 78.477787 -157.362008 
L 77.681843 -156.764137 
L 76.885898 -154.41944 
L 76.089953 -149.267712 
L 75.294009 -141.683145 
L 74.498064 -133.368829 
L 73.702119 -126.472044 
L 72.906175 -122.576244 
L 72.11023 -122.240298 
L 71.314285 -125.065501 
L 70.51834 -129.958898 
L 69.722396 -135.506617 
L 68.926451 -140.477769 
L 68.130506 -144.298334 
L 67.334562 -147.141678 
L 66.538617 -149.484419 
L 65.742672 -151.58109 
L 64.946728 -153.409948 
L 64.150783 -154.950387 
L 63.354838 -156.323287 
L 62.558894 -157.564312 
L 61.762949 -158.276364 
L 60.967004 -157.766752 
L 60.17106 -155.690397 
L 59.375115 -152.506808 
L 58.57917 -149.206613 
L 57.783226 -146.332683 
L 56.987281 -143.450928 
L 56.191336 -139.951076 
L 55.395392 -136.011595 
L 54.599447 -132.723773 
L 53.803502 -131.400718 
L 53.007557 -132.596323 
L 52.211613 -135.774927 
L 51.415668 -139.836941 
L 50.619723 -143.687906 
L 49.823779 -146.381217 
L 49.027834 -147.053184 
L 48.231889 -145.12786 
L 47.435945 -140.803352 
L 46.64 -135.276409 
z
" style="stroke: #e41a1c; stroke-opacity: 0.3"/>
    </defs>
    <g clip-path="url(#p0e8ff90d69)">
     <use xlink:href="#m88beff9b80" x="0" y="360" style="fill: #e41a1c; fill-opacity: 0.3; stroke: #e41a1c; stroke-opacity: 0.3"/>
    </g>
   </g>
   <g id="PolyCollection_2">
    <defs>
     <path id="m8ce85fe673" d="M 46.64 -144.979124 
L 46.64 -119.287085 
L 47.435945 -119.350737 
L 48.231889 -119.666832 
L 49.027834 -120.241701 
L 49.823779 -120.950468 
L 50.619723 -121.556051 
L 51.415668 -121.793081 
L 52.211613 -121.500232 
L 53.007557 -120.73171 
L 53.803502 -119.770683 
L 54.599447 -119.026155 
L 55.395392 -118.862302 
L 56.191336 -119.43128 
L 56.987281 -120.563714 
L 57.783226 -121.756013 
L 58.57917 -122.28926 
L 59.375115 -121.482425 
L 60.17106 -119.007483 
L 60.967004 -115.11748 
L 61.762949 -110.639465 
L 62.558894 -106.706497 
L 63.354838 -104.351315 
L 64.150783 -104.141694 
L 64.946728 -106.005037 
L 65.742672 -109.292712 
L 66.538617 -113.011635 
L 67.334562 -116.110593 
L 68.130506 -117.76304 
L 68.926451 -117.606168 
L 69.722396 -115.865794 
L 70.51834 -113.292396 
L 71.314285 -110.888813 
L 72.11023 -109.524134 
L 72.906175 -109.611396 
L 73.702119 -110.993481 
L 74.498064 -113.072523 
L 75.294009 -115.099375 
L 76.089953 -116.462493 
L 76.885898 -116.846777 
L 77.681843 -116.246682 
L 78.477787 -114.896389 
L 79.273732 -113.178866 
L 80.069677 -111.520267 
L 80.865621 -110.243997 
L 81.661566 -109.431904 
L 82.457511 -108.904079 
L 83.253455 -108.349243 
L 84.0494 -107.506886 
L 84.845345 -106.268822 
L 85.641289 -104.666729 
L 86.437234 -102.824287 
L 87.233179 -100.942368 
L 88.029124 -99.279376 
L 88.825068 -98.058424 
L 89.621013 -97.348736 
L 90.416958 -97.040867 
L 91.212902 -96.950395 
L 92.008847 -96.953007 
L 92.804792 -97.022131 
L 93.600736 -97.160779 
L 94.396681 -97.339856 
L 95.192626 -97.517581 
L 95.98857 -97.688754 
L 96.784515 -97.872726 
L 97.58046 -98.05032 
L 98.376404 -98.149597 
L 99.172349 -98.127408 
L 99.968294 -98.062989 
L 100.764238 -98.138727 
L 101.560183 -98.511458 
L 102.356128 -99.203777 
L 103.152073 -100.108327 
L 103.948017 -101.077638 
L 104.743962 -102.000084 
L 105.539907 -102.806316 
L 106.335851 -103.446964 
L 107.131796 -103.896362 
L 107.927741 -104.175138 
L 108.723685 -104.353214 
L 109.51963 -104.524165 
L 110.315575 -104.775042 
L 111.111519 -105.166648 
L 111.907464 -105.715544 
L 112.703409 -106.378082 
L 113.499353 -107.061739 
L 114.295298 -107.678086 
L 115.091243 -108.203262 
L 115.887187 -108.686122 
L 116.683132 -109.186743 
L 117.479077 -109.693171 
L 118.275021 -110.076887 
L 119.070966 -110.109343 
L 119.866911 -109.523366 
L 120.662856 -108.092903 
L 121.4588 -105.714245 
L 122.254745 -102.477088 
L 123.05069 -98.70508 
L 123.846634 -94.936571 
L 124.642579 -91.823823 
L 125.438524 -89.960622 
L 126.234468 -89.692887 
L 127.030413 -90.991843 
L 127.826358 -93.447462 
L 128.622302 -96.382647 
L 129.418247 -99.03799 
L 130.214192 -100.766636 
L 131.010136 -101.199114 
L 131.806081 -100.348799 
L 132.602026 -98.614539 
L 133.39797 -96.642459 
L 134.193915 -95.081953 
L 134.98986 -94.355386 
L 135.785805 -94.554845 
L 136.581749 -95.487181 
L 137.377694 -96.802237 
L 138.173639 -98.126311 
L 138.969583 -99.165926 
L 139.765528 -99.776686 
L 140.561473 -99.984637 
L 141.357417 -99.940625 
L 142.153362 -99.817103 
L 142.949307 -99.703544 
L 143.745251 -99.565231 
L 144.541196 -99.285685 
L 145.337141 -98.761392 
L 146.133085 -97.995826 
L 146.92903 -97.14413 
L 147.724975 -96.478764 
L 148.520919 -96.28167 
L 149.316864 -96.711443 
L 150.112809 -97.713086 
L 150.908753 -99.010401 
L 151.704698 -100.172794 
L 152.500643 -100.729252 
L 153.296588 -100.313023 
L 154.092532 -98.812304 
L 154.888477 -96.463704 
L 155.684422 -93.811333 
L 156.480366 -91.518198 
L 157.276311 -90.118904 
L 158.072256 -89.842413 
L 158.8682 -90.578165 
L 159.664145 -91.96755 
L 160.46009 -93.551496 
L 161.256034 -94.916212 
L 162.051979 -95.805028 
L 162.847924 -96.168836 
L 163.643868 -96.13581 
L 164.439813 -95.913594 
L 165.235758 -95.67102 
L 166.031702 -95.453157 
L 166.827647 -95.163775 
L 167.623592 -94.621133 
L 168.419537 -93.664194 
L 169.215481 -92.259899 
L 170.011426 -90.555459 
L 170.807371 -88.847066 
L 171.603315 -87.4807 
L 172.39926 -86.726283 
L 173.195205 -86.663971 
L 173.991149 -87.117087 
L 174.787094 -87.672385 
L 175.583039 -87.813679 
L 176.378983 -87.135579 
L 177.174928 -85.535539 
L 177.970873 -83.275544 
L 178.766817 -80.884397 
L 179.562762 -78.966871 
L 180.358707 -78.014531 
L 181.154651 -78.276211 
L 181.950596 -79.701201 
L 182.746541 -81.955697 
L 183.542485 -84.517637 
L 184.33843 -86.836067 
L 185.134375 -88.501948 
L 185.93032 -89.359638 
L 186.726264 -89.514795 
L 187.522209 -89.246997 
L 188.318154 -88.877601 
L 189.114098 -88.652125 
L 189.910043 -88.67682 
L 190.705988 -88.919693 
L 191.501932 -89.26217 
L 192.297877 -89.574826 
L 193.093822 -89.787061 
L 193.889766 -89.922462 
L 194.685711 -90.082294 
L 195.481656 -90.38352 
L 196.2776 -90.885504 
L 197.073545 -91.548018 
L 197.86949 -92.241268 
L 198.665434 -92.796129 
L 199.461379 -93.070059 
L 200.257324 -93.011222 
L 201.053269 -92.705193 
L 201.849213 -92.379613 
L 202.645158 -92.345879 
L 203.441103 -92.888451 
L 204.237047 -94.149333 
L 205.032992 -96.061184 
L 205.828937 -98.351576 
L 206.624881 -100.606348 
L 207.420826 -102.370153 
L 208.216771 -103.265791 
L 209.012715 -103.106048 
L 209.80866 -101.956932 
L 210.604605 -100.116253 
L 211.400549 -98.007978 
L 212.196494 -96.037667 
L 212.992439 -94.471662 
L 213.788383 -93.382971 
L 214.584328 -92.672153 
L 215.380273 -92.145334 
L 216.176218 -91.61763 
L 216.972162 -91.004202 
L 217.768107 -90.364119 
L 218.564052 -89.877864 
L 219.359996 -89.763555 
L 220.155941 -90.16115 
L 220.951886 -91.031462 
L 221.74783 -92.119964 
L 222.543775 -93.014365 
L 223.33972 -93.283382 
L 224.135664 -92.642181 
L 224.931609 -91.07074 
L 225.727554 -88.827641 
L 226.523498 -86.349934 
L 227.319443 -84.086457 
L 228.115388 -82.344459 
L 228.911332 -81.217369 
L 229.707277 -80.613481 
L 230.503222 -80.353869 
L 231.299166 -80.285441 
L 232.095111 -80.364143 
L 232.891056 -80.681962 
L 233.687001 -81.425749 
L 234.482945 -82.771742 
L 235.27889 -84.74761 
L 236.074835 -87.126287 
L 236.870779 -89.421772 
L 237.666724 -91.01523 
L 238.462669 -91.371719 
L 239.258613 -90.258125 
L 240.054558 -87.868537 
L 240.850503 -84.800506 
L 241.646447 -81.882244 
L 242.442392 -79.905942 
L 243.238337 -79.362364 
L 244.034281 -80.279846 
L 244.830226 -82.232472 
L 245.626171 -84.508608 
L 246.422115 -86.362851 
L 247.21806 -87.252949 
L 248.014005 -86.989187 
L 248.80995 -85.764686 
L 249.605894 -84.066836 
L 250.401839 -82.494003 
L 251.197784 -81.528988 
L 251.993728 -81.350024 
L 252.789673 -81.764035 
L 253.585618 -82.299696 
L 254.381562 -82.418657 
L 255.177507 -81.745734 
L 255.973452 -80.220175 
L 256.769396 -78.119539 
L 257.565341 -75.963915 
L 258.361286 -74.342846 
L 259.15723 -73.721488 
L 259.953175 -74.28749 
L 260.74912 -75.894438 
L 261.545064 -78.129653 
L 262.341009 -80.483673 
L 263.136954 -82.548894 
L 263.932898 -84.157345 
L 264.728843 -85.39858 
L 265.524788 -86.520365 
L 266.320733 -87.767164 
L 267.116677 -89.229356 
L 267.912622 -90.764927 
L 268.708567 -92.029206 
L 269.504511 -92.611603 
L 270.300456 -92.232494 
L 271.096401 -90.914823 
L 271.892345 -89.042693 
L 272.68829 -87.26627 
L 273.484235 -86.283867 
L 274.280179 -86.584576 
L 275.076124 -88.246135 
L 275.872069 -90.861601 
L 276.668013 -93.630276 
L 277.463958 -95.598543 
L 278.259903 -95.980425 
L 279.055847 -94.447548 
L 279.851792 -91.279984 
L 280.647737 -87.317446 
L 281.443682 -83.721087 
L 282.239626 -81.62026 
L 283.035571 -81.758249 
L 283.831516 -84.257172 
L 284.62746 -88.586637 
L 285.423405 -93.746319 
L 286.21935 -98.588148 
L 287.015294 -102.153895 
L 287.811239 -103.915398 
L 288.607184 -103.860971 
L 289.403128 -102.430908 
L 290.199073 -100.341101 
L 290.995018 -98.351165 
L 291.790962 -97.045278 
L 292.586907 -96.694753 
L 293.382852 -97.243191 
L 294.178796 -98.401957 
L 294.974741 -99.79595 
L 295.770686 -101.085536 
L 296.56663 -102.018308 
L 297.362575 -102.416835 
L 298.15852 -102.149993 
L 298.954465 -101.135857 
L 299.750409 -99.385673 
L 300.546354 -97.056775 
L 301.342299 -94.473471 
L 302.138243 -92.096393 
L 302.934188 -90.441493 
L 303.730133 -89.955324 
L 304.526077 -90.861306 
L 305.322022 -93.021028 
L 306.117967 -95.887101 
L 306.913911 -98.611585 
L 307.709856 -100.299614 
L 308.505801 -100.310512 
L 309.301745 -98.480545 
L 310.09769 -95.188868 
L 310.893635 -91.257219 
L 311.689579 -87.716209 
L 312.485524 -85.493199 
L 313.281469 -85.105174 
L 314.077414 -86.469461 
L 314.873358 -88.930051 
L 315.669303 -91.512223 
L 316.465248 -93.30557 
L 317.261192 -93.811963 
L 318.057137 -93.119556 
L 318.853082 -91.847206 
L 319.649026 -90.888798 
L 320.444971 -91.048026 
L 321.240916 -92.693638 
L 322.03686 -95.574842 
L 322.832805 -98.889954 
L 323.62875 -101.5925 
L 324.424694 -102.800255 
L 325.220639 -102.127169 
L 326.016584 -99.814589 
L 326.812528 -96.638177 
L 327.608473 -93.640904 
L 328.404418 -91.776563 
L 329.200363 -91.56944 
L 329.996307 -92.915032 
L 330.792252 -95.122557 
L 331.588197 -97.197681 
L 332.384141 -98.236073 
L 333.180086 -97.744614 
L 333.976031 -95.766692 
L 334.771975 -92.800902 
L 335.56792 -89.582075 
L 336.363865 -86.81405 
L 337.159809 -84.938815 
L 337.955754 -84.022153 
L 338.751699 -83.806522 
L 339.547643 -83.904204 
L 340.343588 -84.022218 
L 341.139533 -84.096453 
L 341.935477 -84.27844 
L 342.731422 -84.805945 
L 343.527367 -85.835748 
L 344.323311 -87.31492 
L 345.119256 -88.944852 
L 345.915201 -90.264749 
L 346.711146 -90.836396 
L 347.50709 -90.454843 
L 348.303035 -89.279544 
L 349.09898 -87.810544 
L 349.894924 -86.711651 
L 350.690869 -86.556741 
L 351.486814 -87.605801 
L 352.282758 -89.701091 
L 353.078703 -92.326619 
L 353.874648 -94.810381 
L 354.670592 -96.586882 
L 355.466537 -97.406807 
L 356.262482 -97.405248 
L 357.058426 -97.00986 
L 357.854371 -96.741878 
L 358.650316 -96.998451 
L 359.44626 -97.899684 
L 360.242205 -99.254182 
L 361.03815 -100.653724 
L 361.834095 -101.657492 
L 362.630039 -101.985545 
L 363.425984 -101.634466 
L 364.221929 -100.863744 
L 365.017873 -100.061646 
L 365.813818 -99.553336 
L 366.609763 -99.438128 
L 367.405707 -99.529425 
L 368.201652 -99.42584 
L 368.997597 -98.683021 
L 369.793541 -97.010428 
L 370.589486 -94.409797 
L 371.385431 -91.203397 
L 372.181375 -87.946846 
L 372.97732 -85.258494 
L 373.773265 -83.619002 
L 374.569209 -83.206341 
L 375.365154 -83.829226 
L 376.161099 -84.99237 
L 376.957043 -86.072519 
L 377.752988 -86.535177 
L 378.548933 -86.109115 
L 379.344878 -84.861659 
L 380.140822 -83.159466 
L 380.936767 -81.535101 
L 381.732712 -80.50546 
L 382.528656 -80.404873 
L 383.324601 -81.293549 
L 384.120546 -82.97055 
L 384.91649 -85.072748 
L 385.712435 -87.208117 
L 386.50838 -89.070601 
L 387.304324 -90.504267 
L 388.100269 -91.506674 
L 388.896214 -92.178916 
L 389.692158 -92.646562 
L 390.488103 -92.988907 
L 391.284048 -93.210828 
L 392.079992 -93.267695 
L 392.875937 -93.124098 
L 393.671882 -92.811557 
L 394.467827 -92.454109 
L 395.263771 -92.246566 
L 396.059716 -92.390846 
L 396.855661 -93.01538 
L 397.651605 -94.111702 
L 398.44755 -95.514018 
L 399.243495 -96.928427 
L 400.039439 -98.004533 
L 400.835384 -98.437473 
L 401.631329 -98.078421 
L 402.427273 -97.010561 
L 403.223218 -95.540172 
L 404.019163 -94.088272 
L 404.815107 -93.030843 
L 405.611052 -92.569091 
L 406.406997 -92.685064 
L 407.202941 -93.180656 
L 407.998886 -93.762834 
L 408.794831 -94.143665 
L 409.590775 -94.136004 
L 410.38672 -93.716957 
L 411.182665 -93.023689 
L 411.97861 -92.2704 
L 412.774554 -91.621716 
L 413.570499 -91.087058 
L 413.570499 -146.563321 
L 413.570499 -146.563321 
L 412.774554 -147.221268 
L 411.97861 -147.992088 
L 411.182665 -148.828991 
L 410.38672 -149.537636 
L 409.590775 -149.880316 
L 408.794831 -149.70073 
L 407.998886 -149.021983 
L 407.202941 -148.07417 
L 406.406997 -147.22634 
L 405.611052 -146.841214 
L 404.815107 -147.121346 
L 404.019163 -148.027843 
L 403.223218 -149.306325 
L 402.427273 -150.589071 
L 401.631329 -151.515244 
L 400.835384 -151.830519 
L 400.039439 -151.45375 
L 399.243495 -150.500325 
L 398.44755 -149.244652 
L 397.651605 -148.021435 
L 396.855661 -147.103453 
L 396.059716 -146.613754 
L 395.263771 -146.510013 
L 394.467827 -146.636449 
L 393.671882 -146.808167 
L 392.875937 -146.887294 
L 392.079992 -146.821348 
L 391.284048 -146.632822 
L 390.488103 -146.370571 
L 389.692158 -146.050573 
L 388.896214 -145.616401 
L 388.100269 -144.938842 
L 387.304324 -143.858518 
L 386.50838 -142.260573 
L 385.712435 -140.156055 
L 384.91649 -137.733532 
L 384.120546 -135.347235 
L 383.324601 -133.432094 
L 382.528656 -132.371523 
L 381.732712 -132.367038 
L 380.936767 -133.356467 
L 380.140822 -135.009191 
L 379.344878 -136.806707 
L 378.548933 -138.194981 
L 377.752988 -138.767152 
L 376.957043 -138.411874 
L 376.161099 -137.365597 
L 375.365154 -136.14331 
L 374.569209 -135.371074 
L 373.773265 -135.577702 
L 372.97732 -137.013013 
L 372.181375 -139.553228 
L 371.385431 -142.733483 
L 370.589486 -145.907363 
L 369.793541 -148.478043 
L 368.997597 -150.105476 
L 368.201652 -150.801964 
L 367.405707 -150.882583 
L 366.609763 -150.802481 
L 365.813818 -150.95518 
L 365.017873 -151.512437 
L 364.221929 -152.364637 
L 363.425984 -153.182108 
L 362.630039 -153.571111 
L 361.834095 -153.258446 
L 361.03815 -152.225169 
L 360.242205 -150.730958 
L 359.44626 -149.215455 
L 358.650316 -148.113168 
L 357.854371 -147.657861 
L 357.058426 -147.765364 
L 356.262482 -148.056639 
L 355.466537 -148.019111 
L 354.670592 -147.235134 
L 353.874648 -145.574033 
L 353.078703 -143.265464 
L 352.282758 -140.826848 
L 351.486814 -138.874311 
L 350.690869 -137.88784 
L 349.894924 -138.021317 
L 349.09898 -139.037096 
L 348.303035 -140.396099 
L 347.50709 -141.465324 
L 346.711146 -141.753922 
L 345.915201 -141.083533 
L 345.119256 -139.631917 
L 344.323311 -137.837538 
L 343.527367 -136.202525 
L 342.731422 -135.076351 
L 341.935477 -134.523428 
L 341.139533 -134.345762 
L 340.343588 -134.246437 
L 339.547643 -134.036434 
L 338.751699 -133.769663 
L 337.955754 -133.742368 
L 337.159809 -134.362871 
L 336.363865 -135.944686 
L 335.56792 -138.501414 
L 334.771975 -141.637727 
L 333.976031 -144.618657 
L 333.180086 -146.626754 
L 332.384141 -147.103883 
L 331.588197 -146.009125 
L 330.792252 -143.86642 
L 329.996307 -141.588347 
L 329.200363 -140.157744 
L 328.404418 -140.279914 
L 327.608473 -142.111707 
L 326.812528 -145.164485 
L 326.016584 -148.447945 
L 325.220639 -150.834185 
L 324.424694 -151.500171 
L 323.62875 -150.245884 
L 322.832805 -147.545924 
L 322.03686 -144.331546 
L 321.240916 -141.619596 
L 320.444971 -140.141076 
L 319.649026 -140.092187 
L 318.853082 -141.083859 
L 318.057137 -142.311629 
L 317.261192 -142.89216 
L 316.465248 -142.234775 
L 315.669303 -140.289777 
L 314.873358 -137.572352 
L 314.077414 -134.967492 
L 313.281469 -133.406914 
L 312.485524 -133.535794 
L 311.689579 -135.473476 
L 310.893635 -138.745662 
L 310.09769 -142.424757 
L 309.301745 -145.444805 
L 308.505801 -146.973241 
L 307.709856 -146.682937 
L 306.913911 -144.81809 
L 306.117967 -142.056469 
L 305.322022 -139.259117 
L 304.526077 -137.21269 
L 303.730133 -136.431196 
L 302.934188 -137.05115 
L 302.138243 -138.840917 
L 301.342299 -141.321396 
L 300.546354 -143.948849 
L 299.750409 -146.275796 
L 298.954465 -148.024023 
L 298.15852 -149.067283 
L 297.362575 -149.376883 
L 296.56663 -148.986801 
L 295.770686 -147.995697 
L 294.974741 -146.585875 
L 294.178796 -145.02997 
L 293.382852 -143.667338 
L 292.586907 -142.845726 
L 291.790962 -142.832578 
L 290.995018 -143.71082 
L 290.199073 -145.291087 
L 289.403128 -147.086762 
L 288.607184 -148.393989 
L 287.811239 -148.485519 
L 287.015294 -146.869104 
L 286.21935 -143.509526 
L 285.423405 -138.910538 
L 284.62746 -134.009078 
L 283.831516 -129.913922 
L 283.035571 -127.577871 
L 282.239626 -127.507698 
L 281.443682 -129.600206 
L 280.647737 -133.159185 
L 279.851792 -137.098051 
L 279.055847 -140.271079 
L 278.259903 -141.824266 
L 277.463958 -141.444664 
L 276.668013 -139.425406 
L 275.872069 -136.532323 
L 275.076124 -133.725158 
L 274.280179 -131.831971 
L 273.484235 -131.289924 
L 272.68829 -132.041877 
L 271.892345 -133.61635 
L 271.096401 -135.342431 
L 270.300456 -136.601594 
L 269.504511 -137.019771 
L 268.708567 -136.543735 
L 267.912622 -135.394307 
L 267.116677 -133.926913 
L 266.320733 -132.458023 
L 265.524788 -131.130515 
L 264.728843 -129.877132 
L 263.932898 -128.495114 
L 263.136954 -126.789267 
L 262.341009 -124.709911 
L 261.545064 -122.422776 
L 260.74912 -120.284914 
L 259.953175 -118.73728 
L 259.15723 -118.149167 
L 258.361286 -118.666546 
L 257.565341 -120.12501 
L 256.769396 -122.075999 
L 255.973452 -123.933072 
L 255.177507 -125.186356 
L 254.381562 -125.593113 
L 253.585618 -125.260494 
L 252.789673 -124.589447 
L 251.993728 -124.111218 
L 251.197784 -124.282608 
L 250.401839 -125.306641 
L 249.605894 -127.032513 
L 248.80995 -128.975537 
L 248.014005 -130.472269 
L 247.21806 -130.933558 
L 246.422115 -130.097631 
L 245.626171 -128.166384 
L 244.830226 -125.756215 
L 244.034281 -123.68262 
L 243.238337 -122.672436 
L 242.442392 -123.118509 
L 241.646447 -124.957848 
L 240.850503 -127.700653 
L 240.054558 -130.591809 
L 239.258613 -132.85055 
L 238.462669 -133.908557 
L 237.666724 -133.565374 
L 236.870779 -132.012138 
L 236.074835 -129.727564 
L 235.27889 -127.295563 
L 234.482945 -125.212879 
L 233.687001 -123.750334 
L 232.891056 -122.91271 
L 232.095111 -122.510816 
L 231.299166 -122.313805 
L 230.503222 -122.206422 
L 229.707277 -122.266753 
L 228.911332 -122.721488 
L 228.115388 -123.805716 
L 227.319443 -125.608153 
L 226.523498 -127.984571 
L 225.727554 -130.576234 
L 224.931609 -132.916015 
L 224.135664 -134.57428 
L 223.33972 -135.292055 
L 222.543775 -135.0602 
L 221.74783 -134.121279 
L 220.951886 -132.892053 
L 220.155941 -131.828786 
L 219.359996 -131.280106 
L 218.564052 -131.381809 
L 217.768107 -132.036573 
L 216.972162 -132.988844 
L 216.176218 -133.962027 
L 215.380273 -134.793881 
L 214.584328 -135.506864 
L 213.788383 -136.282509 
L 212.992439 -137.354094 
L 212.196494 -138.868951 
L 211.400549 -140.785156 
L 210.604605 -142.849381 
L 209.80866 -144.662129 
L 209.012715 -145.799222 
L 208.216771 -145.944724 
L 207.420826 -144.996543 
L 206.624881 -143.114175 
L 205.828937 -140.685736 
L 205.032992 -138.213026 
L 204.237047 -136.151791 
L 203.441103 -134.774219 
L 202.645158 -134.110776 
L 201.849213 -133.981914 
L 201.053269 -134.088184 
L 200.257324 -134.119219 
L 199.461379 -133.853967 
L 198.665434 -133.229157 
L 197.86949 -132.35054 
L 197.073545 -131.434711 
L 196.2776 -130.704679 
L 195.481656 -130.292297 
L 194.685711 -130.193871 
L 193.889766 -130.288503 
L 193.093822 -130.398496 
L 192.297877 -130.364737 
L 191.501932 -130.112689 
L 190.705988 -129.684199 
L 189.910043 -129.215683 
L 189.114098 -128.864749 
L 188.318154 -128.716112 
L 187.522209 -128.713469 
L 186.726264 -128.654657 
L 185.93032 -128.25743 
L 185.134375 -127.27064 
L 184.33843 -125.588206 
L 183.542485 -123.32541 
L 182.746541 -120.830413 
L 181.950596 -118.617495 
L 181.154651 -117.224824 
L 180.358707 -117.029647 
L 179.562762 -118.09195 
L 178.766817 -120.110411 
L 177.970873 -122.527864 
L 177.174928 -124.737032 
L 176.378983 -126.283014 
L 175.583039 -126.980309 
L 174.787094 -126.929028 
L 173.991149 -126.458557 
L 173.195205 -126.018762 
L 172.39926 -126.028237 
L 171.603315 -126.717517 
L 170.807371 -128.039028 
L 170.011426 -129.700206 
L 169.215481 -131.306858 
L 168.419537 -132.537784 
L 167.623592 -133.264178 
L 166.827647 -133.569701 
L 166.031702 -133.675942 
L 165.235758 -133.81114 
L 164.439813 -134.079365 
L 163.643868 -134.391206 
L 162.847924 -134.493779 
L 162.051979 -134.091225 
L 161.256034 -133.003799 
L 160.46009 -131.296091 
L 159.664145 -129.313088 
L 158.8682 -127.59226 
L 158.072256 -126.672974 
L 157.276311 -126.886554 
L 156.480366 -128.231498 
L 155.684422 -130.384949 
L 154.888477 -132.819901 
L 154.092532 -134.961444 
L 153.296588 -136.336254 
L 152.500643 -136.699954 
L 151.704698 -136.118997 
L 150.908753 -134.956739 
L 150.112809 -133.736234 
L 149.316864 -132.930105 
L 148.520919 -132.785469 
L 147.724975 -133.267766 
L 146.92903 -134.126468 
L 146.133085 -135.026818 
L 145.337141 -135.685946 
L 144.541196 -135.968084 
L 143.745251 -135.909591 
L 142.949307 -135.66796 
L 142.153362 -135.422546 
L 141.357417 -135.27659 
L 140.561473 -135.202165 
L 139.765528 -135.046405 
L 138.969583 -134.601569 
L 138.173639 -133.724727 
L 137.377694 -132.457207 
L 136.581749 -131.066904 
L 135.785805 -129.965627 
L 134.98986 -129.533638 
L 134.193915 -129.949319 
L 133.39797 -131.111098 
L 132.602026 -132.666142 
L 131.806081 -134.105269 
L 131.010136 -134.888973 
L 130.214192 -134.599079 
L 129.418247 -133.098144 
L 128.622302 -130.625871 
L 127.826358 -127.7581 
L 127.030413 -125.23118 
L 126.234468 -123.714574 
L 125.438524 -123.627834 
L 124.642579 -125.053069 
L 123.846634 -127.74373 
L 123.05069 -131.207917 
L 122.254745 -134.841633 
L 121.4588 -138.082658 
L 120.662856 -140.543114 
L 119.866911 -142.075928 
L 119.070966 -142.753636 
L 118.275021 -142.778146 
L 117.479077 -142.372735 
L 116.683132 -141.711146 
L 115.887187 -140.906411 
L 115.091243 -140.036455 
L 114.295298 -139.163632 
L 113.499353 -138.329723 
L 112.703409 -137.549788 
L 111.907464 -136.831755 
L 111.111519 -136.204647 
L 110.315575 -135.71496 
L 109.51963 -135.385925 
L 108.723685 -135.17912 
L 107.927741 -134.995316 
L 107.131796 -134.709651 
L 106.335851 -134.213234 
L 105.539907 -133.450379 
L 104.743962 -132.452777 
L 103.948017 -131.349442 
L 103.152073 -130.31705 
L 102.356128 -129.482047 
L 101.560183 -128.856412 
L 100.764238 -128.372287 
L 99.968294 -127.972316 
L 99.172349 -127.653224 
L 98.376404 -127.418813 
L 97.58046 -127.211636 
L 96.784515 -126.930312 
L 95.98857 -126.523678 
L 95.192626 -126.040595 
L 94.396681 -125.570284 
L 93.600736 -125.145853 
L 92.804792 -124.730629 
L 92.008847 -124.299488 
L 91.212902 -123.906698 
L 90.416958 -123.660049 
L 89.621013 -123.648022 
L 88.825068 -123.919749 
L 88.029124 -124.522745 
L 87.233179 -125.507922 
L 86.437234 -126.854185 
L 85.641289 -128.385105 
L 84.845345 -129.801899 
L 84.0494 -130.842344 
L 83.253455 -131.427478 
L 82.457511 -131.683336 
L 81.661566 -131.859487 
L 80.865621 -132.230025 
L 80.069677 -133.010131 
L 79.273732 -134.262173 
L 78.477787 -135.797593 
L 77.681843 -137.163925 
L 76.885898 -137.806255 
L 76.089953 -137.347096 
L 75.294009 -135.807954 
L 74.498064 -133.639501 
L 73.702119 -131.553122 
L 72.906175 -130.253271 
L 72.11023 -130.194871 
L 71.314285 -131.433927 
L 70.51834 -133.59103 
L 69.722396 -135.934348 
L 68.926451 -137.574146 
L 68.130506 -137.742824 
L 67.334562 -136.09925 
L 66.538617 -132.934051 
L 65.742672 -129.143228 
L 64.946728 -125.933251 
L 64.150783 -124.368092 
L 63.354838 -124.978259 
L 62.558894 -127.615327 
L 61.762949 -131.570807 
L 60.967004 -135.858592 
L 60.17106 -139.536342 
L 59.375115 -141.960419 
L 58.57917 -142.921528 
L 57.783226 -142.657853 
L 56.987281 -141.744246 
L 56.191336 -140.866808 
L 55.395392 -140.554681 
L 54.599447 -140.989473 
L 53.803502 -141.986626 
L 53.007557 -143.146993 
L 52.211613 -144.078755 
L 51.415668 -144.567404 
L 50.619723 -144.628594 
L 49.823779 -144.45328 
L 49.027834 -144.291332 
L 48.231889 -144.324648 
L 47.435945 -144.586887 
L 46.64 -144.979124 
z
" style="stroke: #377eb8; stroke-opacity: 0.3"/>
    </defs>
    <g clip-path="url(#p0e8ff90d69)">
     <use xlink:href="#m8ce85fe673" x="0" y="360" style="fill: #377eb8; fill-opacity: 0.3; stroke: #377eb8; stroke-opacity: 0.3"/>
    </g>
   </g>
   <g id="patch_3">
    <path d="M 229.866466 318.04 
L 229.866466 71.732 
L 331.747385 71.732 
L 331.747385 318.04 
z
" clip-path="url(#p0e8ff90d69)" style="fill: #808080; opacity: 0.3"/>
   </g>
   <g id="matplotlib.axis_1">
    <g id="xtick_1">
     <g id="line2d_1">
      <defs>
       <path id="m14a0176a6a" d="M 0 0 
L 0 3.5 
" style="stroke: #000000; stroke-width: 0.8"/>
      </defs>
      <g>
       <use xlink:href="#m14a0176a6a" x="87.233179" y="318.04" style="stroke: #000000; stroke-width: 0.8"/>
      </g>
     </g>
     <g id="text_1">
      <!-- 0.0 -->
      <g transform="translate(79.281616 332.638438)scale(0.1 -0.1)">
       <defs>
        <path id="DejaVuSans-30" d="M 2034 4250 
Q 1547 4250 1301 3770 
Q 1056 3291 1056 2328 
Q 1056 1369 1301 889 
Q 1547 409 2034 409 
Q 2525 409 2770 889 
Q 3016 1369 3016 2328 
Q 3016 3291 2770 3770 
Q 2525 4250 2034 4250 
z
M 2034 4750 
Q 2819 4750 3233 4129 
Q 3647 3509 3647 2328 
Q 3647 1150 3233 529 
Q 2819 -91 2034 -91 
Q 1250 -91 836 529 
Q 422 1150 422 2328 
Q 422 3509 836 4129 
Q 1250 4750 2034 4750 
z
" transform="scale(0.015625)"/>
        <path id="DejaVuSans-2e" d="M 684 794 
L 1344 794 
L 1344 0 
L 684 0 
L 684 794 
z
" transform="scale(0.015625)"/>
       </defs>
       <use xlink:href="#DejaVuSans-30"/>
       <use xlink:href="#DejaVuSans-2e" x="63.623047"/>
       <use xlink:href="#DejaVuSans-30" x="95.410156"/>
      </g>
     </g>
    </g>
    <g id="xtick_2">
     <g id="line2d_2">
      <g>
       <use xlink:href="#m14a0176a6a" x="168.737914" y="318.04" style="stroke: #000000; stroke-width: 0.8"/>
      </g>
     </g>
     <g id="text_2">
      <!-- 0.2 -->
      <g transform="translate(160.786352 332.638438)scale(0.1 -0.1)">
       <defs>
        <path id="DejaVuSans-32" d="M 1228 531 
L 3431 531 
L 3431 0 
L 469 0 
L 469 531 
Q 828 903 1448 1529 
Q 2069 2156 2228 2338 
Q 2531 2678 2651 2914 
Q 2772 3150 2772 3378 
Q 2772 3750 2511 3984 
Q 2250 4219 1831 4219 
Q 1534 4219 1204 4116 
Q 875 4013 500 3803 
L 500 4441 
Q 881 4594 1212 4672 
Q 1544 4750 1819 4750 
Q 2544 4750 2975 4387 
Q 3406 4025 3406 3419 
Q 3406 3131 3298 2873 
Q 3191 2616 2906 2266 
Q 2828 2175 2409 1742 
Q 1991 1309 1228 531 
z
" transform="scale(0.015625)"/>
       </defs>
       <use xlink:href="#DejaVuSans-30"/>
       <use xlink:href="#DejaVuSans-2e" x="63.623047"/>
       <use xlink:href="#DejaVuSans-32" x="95.410156"/>
      </g>
     </g>
    </g>
    <g id="xtick_3">
     <g id="line2d_3">
      <g>
       <use xlink:href="#m14a0176a6a" x="250.24265" y="318.04" style="stroke: #000000; stroke-width: 0.8"/>
      </g>
     </g>
     <g id="text_3">
      <!-- 0.4 -->
      <g transform="translate(242.291087 332.638438)scale(0.1 -0.1)">
       <defs>
        <path id="DejaVuSans-34" d="M 2419 4116 
L 825 1625 
L 2419 1625 
L 2419 4116 
z
M 2253 4666 
L 3047 4666 
L 3047 1625 
L 3713 1625 
L 3713 1100 
L 3047 1100 
L 3047 0 
L 2419 0 
L 2419 1100 
L 313 1100 
L 313 1709 
L 2253 4666 
z
" transform="scale(0.015625)"/>
       </defs>
       <use xlink:href="#DejaVuSans-30"/>
       <use xlink:href="#DejaVuSans-2e" x="63.623047"/>
       <use xlink:href="#DejaVuSans-34" x="95.410156"/>
      </g>
     </g>
    </g>
    <g id="xtick_4">
     <g id="line2d_4">
      <g>
       <use xlink:href="#m14a0176a6a" x="331.747385" y="318.04" style="stroke: #000000; stroke-width: 0.8"/>
      </g>
     </g>
     <g id="text_4">
      <!-- 0.6 -->
      <g transform="translate(323.795823 332.638438)scale(0.1 -0.1)">
       <defs>
        <path id="DejaVuSans-36" d="M 2113 2584 
Q 1688 2584 1439 2293 
Q 1191 2003 1191 1497 
Q 1191 994 1439 701 
Q 1688 409 2113 409 
Q 2538 409 2786 701 
Q 3034 994 3034 1497 
Q 3034 2003 2786 2293 
Q 2538 2584 2113 2584 
z
M 3366 4563 
L 3366 3988 
Q 3128 4100 2886 4159 
Q 2644 4219 2406 4219 
Q 1781 4219 1451 3797 
Q 1122 3375 1075 2522 
Q 1259 2794 1537 2939 
Q 1816 3084 2150 3084 
Q 2853 3084 3261 2657 
Q 3669 2231 3669 1497 
Q 3669 778 3244 343 
Q 2819 -91 2113 -91 
Q 1303 -91 875 529 
Q 447 1150 447 2328 
Q 447 3434 972 4092 
Q 1497 4750 2381 4750 
Q 2619 4750 2861 4703 
Q 3103 4656 3366 4563 
z
" transform="scale(0.015625)"/>
       </defs>
       <use xlink:href="#DejaVuSans-30"/>
       <use xlink:href="#DejaVuSans-2e" x="63.623047"/>
       <use xlink:href="#DejaVuSans-36" x="95.410156"/>
      </g>
     </g>
    </g>
    <g id="xtick_5">
     <g id="line2d_5">
      <g>
       <use xlink:href="#m14a0176a6a" x="413.252121" y="318.04" style="stroke: #000000; stroke-width: 0.8"/>
      </g>
     </g>
     <g id="text_5">
      <!-- 0.8 -->
      <g transform="translate(405.300559 332.638438)scale(0.1 -0.1)">
       <defs>
        <path id="DejaVuSans-38" d="M 2034 2216 
Q 1584 2216 1326 1975 
Q 1069 1734 1069 1313 
Q 1069 891 1326 650 
Q 1584 409 2034 409 
Q 2484 409 2743 651 
Q 3003 894 3003 1313 
Q 3003 1734 2745 1975 
Q 2488 2216 2034 2216 
z
M 1403 2484 
Q 997 2584 770 2862 
Q 544 3141 544 3541 
Q 544 4100 942 4425 
Q 1341 4750 2034 4750 
Q 2731 4750 3128 4425 
Q 3525 4100 3525 3541 
Q 3525 3141 3298 2862 
Q 3072 2584 2669 2484 
Q 3125 2378 3379 2068 
Q 3634 1759 3634 1313 
Q 3634 634 3220 271 
Q 2806 -91 2034 -91 
Q 1263 -91 848 271 
Q 434 634 434 1313 
Q 434 1759 690 2068 
Q 947 2378 1403 2484 
z
M 1172 3481 
Q 1172 3119 1398 2916 
Q 1625 2713 2034 2713 
Q 2441 2713 2670 2916 
Q 2900 3119 2900 3481 
Q 2900 3844 2670 4047 
Q 2441 4250 2034 4250 
Q 1625 4250 1398 4047 
Q 1172 3844 1172 3481 
z
" transform="scale(0.015625)"/>
       </defs>
       <use xlink:href="#DejaVuSans-30"/>
       <use xlink:href="#DejaVuSans-2e" x="63.623047"/>
       <use xlink:href="#DejaVuSans-38" x="95.410156"/>
      </g>
     </g>
    </g>
    <g id="text_6">
     <!-- seconds -->
     <g transform="translate(209.667749 346.316563)scale(0.1 -0.1)">
      <defs>
       <path id="DejaVuSans-73" d="M 2834 3397 
L 2834 2853 
Q 2591 2978 2328 3040 
Q 2066 3103 1784 3103 
Q 1356 3103 1142 2972 
Q 928 2841 928 2578 
Q 928 2378 1081 2264 
Q 1234 2150 1697 2047 
L 1894 2003 
Q 2506 1872 2764 1633 
Q 3022 1394 3022 966 
Q 3022 478 2636 193 
Q 2250 -91 1575 -91 
Q 1294 -91 989 -36 
Q 684 19 347 128 
L 347 722 
Q 666 556 975 473 
Q 1284 391 1588 391 
Q 1994 391 2212 530 
Q 2431 669 2431 922 
Q 2431 1156 2273 1281 
Q 2116 1406 1581 1522 
L 1381 1569 
Q 847 1681 609 1914 
Q 372 2147 372 2553 
Q 372 3047 722 3315 
Q 1072 3584 1716 3584 
Q 2034 3584 2315 3537 
Q 2597 3491 2834 3397 
z
" transform="scale(0.015625)"/>
       <path id="DejaVuSans-65" d="M 3597 1894 
L 3597 1613 
L 953 1613 
Q 991 1019 1311 708 
Q 1631 397 2203 397 
Q 2534 397 2845 478 
Q 3156 559 3463 722 
L 3463 178 
Q 3153 47 2828 -22 
Q 2503 -91 2169 -91 
Q 1331 -91 842 396 
Q 353 884 353 1716 
Q 353 2575 817 3079 
Q 1281 3584 2069 3584 
Q 2775 3584 3186 3129 
Q 3597 2675 3597 1894 
z
M 3022 2063 
Q 3016 2534 2758 2815 
Q 2500 3097 2075 3097 
Q 1594 3097 1305 2825 
Q 1016 2553 972 2059 
L 3022 2063 
z
" transform="scale(0.015625)"/>
       <path id="DejaVuSans-63" d="M 3122 3366 
L 3122 2828 
Q 2878 2963 2633 3030 
Q 2388 3097 2138 3097 
Q 1578 3097 1268 2742 
Q 959 2388 959 1747 
Q 959 1106 1268 751 
Q 1578 397 2138 397 
Q 2388 397 2633 464 
Q 2878 531 3122 666 
L 3122 134 
Q 2881 22 2623 -34 
Q 2366 -91 2075 -91 
Q 1284 -91 818 406 
Q 353 903 353 1747 
Q 353 2603 823 3093 
Q 1294 3584 2113 3584 
Q 2378 3584 2631 3529 
Q 2884 3475 3122 3366 
z
" transform="scale(0.015625)"/>
       <path id="DejaVuSans-6f" d="M 1959 3097 
Q 1497 3097 1228 2736 
Q 959 2375 959 1747 
Q 959 1119 1226 758 
Q 1494 397 1959 397 
Q 2419 397 2687 759 
Q 2956 1122 2956 1747 
Q 2956 2369 2687 2733 
Q 2419 3097 1959 3097 
z
M 1959 3584 
Q 2709 3584 3137 3096 
Q 3566 2609 3566 1747 
Q 3566 888 3137 398 
Q 2709 -91 1959 -91 
Q 1206 -91 779 398 
Q 353 888 353 1747 
Q 353 2609 779 3096 
Q 1206 3584 1959 3584 
z
" transform="scale(0.015625)"/>
       <path id="DejaVuSans-6e" d="M 3513 2113 
L 3513 0 
L 2938 0 
L 2938 2094 
Q 2938 2591 2744 2837 
Q 2550 3084 2163 3084 
Q 1697 3084 1428 2787 
Q 1159 2491 1159 1978 
L 1159 0 
L 581 0 
L 581 3500 
L 1159 3500 
L 1159 2956 
Q 1366 3272 1645 3428 
Q 1925 3584 2291 3584 
Q 2894 3584 3203 3211 
Q 3513 2838 3513 2113 
z
" transform="scale(0.015625)"/>
       <path id="DejaVuSans-64" d="M 2906 2969 
L 2906 4863 
L 3481 4863 
L 3481 0 
L 2906 0 
L 2906 525 
Q 2725 213 2448 61 
Q 2172 -91 1784 -91 
Q 1150 -91 751 415 
Q 353 922 353 1747 
Q 353 2572 751 3078 
Q 1150 3584 1784 3584 
Q 2172 3584 2448 3432 
Q 2725 3281 2906 2969 
z
M 947 1747 
Q 947 1113 1208 752 
Q 1469 391 1925 391 
Q 2381 391 2643 752 
Q 2906 1113 2906 1747 
Q 2906 2381 2643 2742 
Q 2381 3103 1925 3103 
Q 1469 3103 1208 2742 
Q 947 2381 947 1747 
z
" transform="scale(0.015625)"/>
      </defs>
      <use xlink:href="#DejaVuSans-73"/>
      <use xlink:href="#DejaVuSans-65" x="52.099609"/>
      <use xlink:href="#DejaVuSans-63" x="113.623047"/>
      <use xlink:href="#DejaVuSans-6f" x="168.603516"/>
      <use xlink:href="#DejaVuSans-6e" x="229.785156"/>
      <use xlink:href="#DejaVuSans-64" x="293.164062"/>
      <use xlink:href="#DejaVuSans-73" x="356.640625"/>
     </g>
    </g>
   </g>
   <g id="matplotlib.axis_2">
    <g id="ytick_1">
     <g id="line2d_6">
      <defs>
       <path id="me1008abde4" d="M 0 0 
L -3.5 0 
" style="stroke: #000000; stroke-width: 0.8"/>
      </defs>
      <g>
       <use xlink:href="#me1008abde4" x="46.64" y="281.004745" style="stroke: #000000; stroke-width: 0.8"/>
      </g>
     </g>
     <g id="text_7">
      <!-- 1 -->
      <g transform="translate(24.897813 284.803964)scale(0.1 -0.1)">
       <defs>
        <path id="DejaVuSans-2212" d="M 678 2272 
L 4684 2272 
L 4684 1741 
L 678 1741 
L 678 2272 
z
" transform="scale(0.015625)"/>
        <path id="DejaVuSans-31" d="M 794 531 
L 1825 531 
L 1825 4091 
L 703 3866 
L 703 4441 
L 1819 4666 
L 2450 4666 
L 2450 531 
L 3481 531 
L 3481 0 
L 794 0 
L 794 531 
z
" transform="scale(0.015625)"/>
       </defs>
       <use xlink:href="#DejaVuSans-2212"/>
       <use xlink:href="#DejaVuSans-31" x="83.789062"/>
      </g>
     </g>
    </g>
    <g id="ytick_2">
     <g id="line2d_7">
      <g>
       <use xlink:href="#me1008abde4" x="46.64" y="235.027593" style="stroke: #000000; stroke-width: 0.8"/>
      </g>
     </g>
     <g id="text_8">
      <!-- 0 -->
      <g transform="translate(33.2775 238.826812)scale(0.1 -0.1)">
       <use xlink:href="#DejaVuSans-30"/>
      </g>
     </g>
    </g>
    <g id="ytick_3">
     <g id="line2d_8">
      <g>
       <use xlink:href="#me1008abde4" x="46.64" y="189.050441" style="stroke: #000000; stroke-width: 0.8"/>
      </g>
     </g>
     <g id="text_9">
      <!-- 1 -->
      <g transform="translate(33.2775 192.84966)scale(0.1 -0.1)">
       <use xlink:href="#DejaVuSans-31"/>
      </g>
     </g>
    </g>
    <g id="ytick_4">
     <g id="line2d_9">
      <g>
       <use xlink:href="#me1008abde4" x="46.64" y="143.073289" style="stroke: #000000; stroke-width: 0.8"/>
      </g>
     </g>
     <g id="text_10">
      <!-- 2 -->
      <g transform="translate(33.2775 146.872508)scale(0.1 -0.1)">
       <use xlink:href="#DejaVuSans-32"/>
      </g>
     </g>
    </g>
    <g id="ytick_5">
     <g id="line2d_10">
      <g>
       <use xlink:href="#me1008abde4" x="46.64" y="97.096137" style="stroke: #000000; stroke-width: 0.8"/>
      </g>
     </g>
     <g id="text_11">
      <!-- 3 -->
      <g transform="translate(33.2775 100.895355)scale(0.1 -0.1)">
       <defs>
        <path id="DejaVuSans-33" d="M 2597 2516 
Q 3050 2419 3304 2112 
Q 3559 1806 3559 1356 
Q 3559 666 3084 287 
Q 2609 -91 1734 -91 
Q 1441 -91 1130 -33 
Q 819 25 488 141 
L 488 750 
Q 750 597 1062 519 
Q 1375 441 1716 441 
Q 2309 441 2620 675 
Q 2931 909 2931 1356 
Q 2931 1769 2642 2001 
Q 2353 2234 1838 2234 
L 1294 2234 
L 1294 2753 
L 1863 2753 
Q 2328 2753 2575 2939 
Q 2822 3125 2822 3475 
Q 2822 3834 2567 4026 
Q 2313 4219 1838 4219 
Q 1578 4219 1281 4162 
Q 984 4106 628 3988 
L 628 4550 
Q 988 4650 1302 4700 
Q 1616 4750 1894 4750 
Q 2613 4750 3031 4423 
Q 3450 4097 3450 3541 
Q 3450 3153 3228 2886 
Q 3006 2619 2597 2516 
z
" transform="scale(0.015625)"/>
       </defs>
       <use xlink:href="#DejaVuSans-33"/>
      </g>
     </g>
    </g>
    <g id="text_12">
     <!-- V -->
     <g transform="translate(18.818125 201.487562)rotate(-90)scale(0.1 -0.1)">
      <defs>
       <path id="DejaVuSans-b5" d="M 544 -1331 
L 544 3500 
L 1119 3500 
L 1119 1325 
Q 1119 872 1334 640 
Q 1550 409 1972 409 
Q 2434 409 2667 671 
Q 2900 934 2900 1459 
L 2900 3500 
L 3475 3500 
L 3475 806 
Q 3475 619 3529 530 
Q 3584 441 3700 441 
Q 3728 441 3778 458 
Q 3828 475 3916 513 
L 3916 50 
Q 3788 -22 3673 -56 
Q 3559 -91 3450 -91 
Q 3234 -91 3106 31 
Q 2978 153 2931 403 
Q 2775 156 2548 32 
Q 2322 -91 2016 -91 
Q 1697 -91 1473 31 
Q 1250 153 1119 397 
L 1119 -1331 
L 544 -1331 
z
" transform="scale(0.015625)"/>
       <path id="DejaVuSans-56" d="M 1831 0 
L 50 4666 
L 709 4666 
L 2188 738 
L 3669 4666 
L 4325 4666 
L 2547 0 
L 1831 0 
z
" transform="scale(0.015625)"/>
      </defs>
      <use xlink:href="#DejaVuSans-b5"/>
      <use xlink:href="#DejaVuSans-56" x="63.623047"/>
     </g>
    </g>
   </g>
   <g id="line2d_11">
    <path d="M 46.64 253.841501 
L 48.231889 242.257577 
L 49.027834 239.026305 
L 49.823779 238.56561 
L 50.619723 240.602431 
L 52.211613 247.878852 
L 53.007557 250.586849 
L 53.803502 251.515557 
L 54.599447 250.49611 
L 55.395392 247.860803 
L 56.987281 240.192756 
L 58.57917 232.795293 
L 59.375115 229.914659 
L 60.17106 227.780252 
L 60.967004 226.520835 
L 61.762949 226.216318 
L 62.558894 226.818834 
L 63.354838 228.101864 
L 64.946728 231.252885 
L 66.538617 233.896233 
L 67.334562 235.637295 
L 68.130506 238.412368 
L 68.926451 242.594103 
L 71.314285 258.710124 
L 72.11023 261.155549 
L 72.906175 260.16748 
L 73.702119 255.632491 
L 76.089953 233.333578 
L 76.885898 228.615859 
L 77.681843 226.599216 
L 78.477787 226.469811 
L 79.273732 226.628518 
L 80.069677 225.399782 
L 80.865621 221.792389 
L 81.661566 215.99078 
L 82.457511 209.361104 
L 83.253455 203.956082 
L 84.0494 201.714313 
L 84.845345 203.682939 
L 85.641289 209.588278 
L 88.029124 233.608561 
L 88.825068 237.935712 
L 89.621013 239.724463 
L 91.212902 240.631613 
L 92.008847 242.398172 
L 92.804792 245.629221 
L 93.600736 249.502762 
L 94.396681 252.525939 
L 95.192626 253.199022 
L 95.98857 250.685092 
L 96.784515 245.194993 
L 98.376404 230.610829 
L 99.172349 224.825223 
L 99.968294 221.439518 
L 100.764238 220.349059 
L 102.356128 220.993633 
L 103.152073 220.355407 
L 103.948017 218.221621 
L 104.743962 214.798994 
L 106.335851 206.996724 
L 107.131796 203.985951 
L 107.927741 201.88312 
L 108.723685 200.451335 
L 110.315575 198.310447 
L 111.111519 197.479432 
L 111.907464 197.183857 
L 112.703409 197.82068 
L 113.499353 199.589338 
L 114.295298 202.342274 
L 115.887187 208.866914 
L 116.683132 211.691659 
L 119.070966 219.016854 
L 119.866911 222.407605 
L 121.4588 230.486432 
L 122.254745 233.698994 
L 123.05069 235.265716 
L 123.846634 234.890689 
L 124.642579 233.023177 
L 125.438524 230.794055 
L 126.234468 229.642756 
L 127.030413 230.771063 
L 127.826358 234.645552 
L 128.622302 240.761429 
L 130.214192 253.985161 
L 131.010136 257.915204 
L 131.806081 258.866164 
L 132.602026 257.122704 
L 134.193915 250.374835 
L 134.98986 248.124355 
L 135.785805 247.663555 
L 136.581749 248.793764 
L 137.377694 250.679287 
L 138.173639 252.262314 
L 138.969583 252.725654 
L 139.765528 251.807317 
L 140.561473 249.847564 
L 141.357417 247.571362 
L 142.153362 245.720907 
L 142.949307 244.707942 
L 143.745251 244.435554 
L 144.541196 244.356627 
L 145.337141 243.730012 
L 146.133085 241.953579 
L 146.92903 238.828972 
L 149.316864 225.979217 
L 150.112809 222.954103 
L 150.908753 221.339738 
L 151.704698 221.063853 
L 152.500643 221.768463 
L 154.092532 224.375569 
L 158.072256 230.913195 
L 158.8682 232.079178 
L 159.664145 232.954542 
L 160.46009 233.502555 
L 162.051979 234.315648 
L 162.847924 235.238369 
L 163.643868 236.921776 
L 164.439813 239.478181 
L 166.031702 246.571095 
L 167.623592 254.167123 
L 169.215481 260.598034 
L 170.011426 263.311541 
L 170.807371 265.583045 
L 171.603315 267.084481 
L 172.39926 267.281722 
L 173.195205 265.58856 
L 173.991149 261.625579 
L 174.787094 255.487029 
L 176.378983 240.145597 
L 177.174928 233.824968 
L 177.970873 230.356116 
L 178.766817 230.525939 
L 179.562762 234.166356 
L 181.950596 251.602343 
L 182.746541 253.737505 
L 183.542485 252.538489 
L 184.33843 248.671805 
L 185.93032 239.360131 
L 186.726264 237.183483 
L 187.522209 237.653161 
L 188.318154 240.159668 
L 189.114098 243.19658 
L 189.910043 244.925932 
L 190.705988 243.872713 
L 191.501932 239.487187 
L 192.297877 232.364266 
L 193.889766 216.464861 
L 194.685711 211.315921 
L 195.481656 209.476136 
L 196.2776 210.792929 
L 197.073545 214.224794 
L 197.86949 218.275608 
L 198.665434 221.530958 
L 199.461379 223.087466 
L 200.257324 222.731616 
L 201.053269 220.842828 
L 203.441103 212.664211 
L 204.237047 210.673779 
L 205.032992 209.372303 
L 205.828937 208.899093 
L 206.624881 209.479778 
L 207.420826 211.348503 
L 208.216771 214.553663 
L 210.604605 226.582671 
L 211.400549 227.937209 
L 212.196494 226.506435 
L 212.992439 222.353115 
L 215.380273 205.195227 
L 216.176218 202.808449 
L 216.972162 203.29435 
L 217.768107 206.015618 
L 218.564052 209.60896 
L 219.359996 212.491654 
L 220.155941 213.429798 
L 220.951886 211.950698 
L 221.74783 208.452483 
L 223.33972 199.851736 
L 224.135664 197.094364 
L 224.931609 196.245189 
L 225.727554 197.238136 
L 226.523498 199.581981 
L 229.707277 211.778339 
L 230.503222 214.106597 
L 231.299166 215.671763 
L 232.095111 216.029434 
L 232.891056 214.722903 
L 233.687001 211.517582 
L 234.482945 206.614014 
L 236.074835 194.891721 
L 236.870779 190.252519 
L 237.666724 187.577198 
L 238.462669 187.027719 
L 239.258613 188.088806 
L 240.054558 189.76901 
L 240.850503 190.995519 
L 241.646447 191.052311 
L 242.442392 189.888224 
L 243.238337 188.168071 
L 244.034281 187.038504 
L 244.830226 187.690048 
L 245.626171 190.873659 
L 246.422115 196.547441 
L 248.014005 210.965368 
L 248.80995 216.229133 
L 249.605894 217.978097 
L 250.401839 215.339709 
L 251.197784 208.413866 
L 251.993728 198.25431 
L 253.585618 175.431027 
L 254.381562 166.502026 
L 255.177507 160.928705 
L 255.973452 158.973871 
L 256.769396 160.048702 
L 258.361286 166.105126 
L 259.15723 168.205922 
L 259.953175 168.319794 
L 260.74912 166.199097 
L 261.545064 162.265807 
L 263.136954 152.875527 
L 263.932898 149.609196 
L 264.728843 148.345857 
L 265.524788 149.304425 
L 266.320733 152.223884 
L 267.912622 161.234741 
L 268.708567 165.646732 
L 269.504511 168.963381 
L 270.300456 170.627077 
L 271.096401 170.324664 
L 271.892345 168.026679 
L 272.68829 164.015451 
L 275.076124 148.723836 
L 275.872069 145.483357 
L 276.668013 144.25544 
L 277.463958 145.046387 
L 278.259903 147.337652 
L 279.851792 152.772029 
L 280.647737 154.232582 
L 281.443682 154.423184 
L 283.035571 152.914002 
L 283.831516 152.823829 
L 284.62746 153.943787 
L 285.423405 156.167547 
L 286.21935 158.784806 
L 287.015294 160.746023 
L 287.811239 161.102872 
L 288.607184 159.444677 
L 289.403128 156.139339 
L 290.199073 152.259706 
L 290.995018 149.204972 
L 291.790962 148.157389 
L 292.586907 149.592639 
L 293.382852 153.050742 
L 294.178796 157.272334 
L 294.974741 160.654757 
L 295.770686 161.849057 
L 296.56663 160.259087 
L 297.362575 156.242385 
L 298.954465 145.782642 
L 299.750409 141.96546 
L 300.546354 139.973126 
L 301.342299 139.485524 
L 302.138243 139.611553 
L 302.934188 139.370295 
L 303.730133 138.199715 
L 305.322022 134.445091 
L 306.117967 133.956527 
L 306.913911 135.845671 
L 307.709856 140.491757 
L 309.301745 155.202005 
L 310.09769 162.329824 
L 310.893635 167.351447 
L 311.689579 169.586179 
L 312.485524 169.305045 
L 314.077414 166.010471 
L 314.873358 165.91804 
L 315.669303 168.171899 
L 316.465248 172.837624 
L 318.057137 186.43863 
L 318.853082 193.2371 
L 319.649026 198.847046 
L 320.444971 202.831227 
L 321.240916 205.079848 
L 322.03686 205.640716 
L 322.832805 204.558645 
L 323.62875 201.824141 
L 324.424694 197.462162 
L 326.016584 185.170432 
L 326.812528 178.84339 
L 327.608473 173.949876 
L 328.404418 171.60364 
L 329.200363 172.428158 
L 329.996307 176.2792 
L 332.384141 194.085033 
L 333.180086 197.212278 
L 333.976031 197.671067 
L 334.771975 195.994417 
L 335.56792 193.415355 
L 336.363865 191.388342 
L 337.159809 191.037709 
L 337.955754 192.746542 
L 338.751699 196.046933 
L 339.547643 199.854017 
L 340.343588 202.947618 
L 341.139533 204.503357 
L 341.935477 204.451854 
L 342.731422 203.511144 
L 343.527367 202.869786 
L 344.323311 203.644301 
L 345.119256 206.333979 
L 346.711146 214.860163 
L 347.50709 217.66641 
L 348.303035 217.424429 
L 349.09898 213.482499 
L 349.894924 206.369994 
L 351.486814 189.65719 
L 352.282758 184.276188 
L 353.078703 182.743825 
L 353.874648 185.019636 
L 356.262482 199.753617 
L 357.058426 201.538054 
L 357.854371 200.528296 
L 358.650316 197.436702 
L 359.44626 193.570543 
L 360.242205 190.270238 
L 361.03815 188.408983 
L 361.834095 188.146363 
L 362.630039 189.007562 
L 363.425984 190.216692 
L 364.221929 191.110355 
L 365.017873 191.438555 
L 365.813818 191.427846 
L 366.609763 191.600101 
L 367.405707 192.45382 
L 368.201652 194.172978 
L 369.793541 198.878137 
L 370.589486 200.657438 
L 371.385431 201.472604 
L 372.181375 201.388799 
L 372.97732 200.868377 
L 373.773265 200.52016 
L 374.569209 200.754389 
L 376.161099 202.200573 
L 376.957043 201.910717 
L 377.752988 199.798128 
L 378.548933 195.511345 
L 380.936767 177.023979 
L 381.732712 173.703591 
L 382.528656 173.721919 
L 383.324601 177.108001 
L 384.120546 183.007952 
L 385.712435 196.519348 
L 386.50838 201.462899 
L 387.304324 204.379668 
L 388.100269 205.574092 
L 389.692158 206.297016 
L 390.488103 207.612496 
L 391.284048 210.157329 
L 392.875937 217.774968 
L 393.671882 221.475666 
L 394.467827 224.107534 
L 395.263771 225.141396 
L 396.059716 224.332557 
L 396.855661 221.723157 
L 397.651605 217.607734 
L 400.039439 202.188808 
L 400.835384 198.703181 
L 401.631329 197.394482 
L 402.427273 198.731798 
L 403.223218 202.696448 
L 404.019163 208.685188 
L 405.611052 221.886583 
L 406.406997 226.24617 
L 407.202941 227.64788 
L 407.998886 225.803106 
L 408.794831 221.235395 
L 410.38672 209.144434 
L 411.182665 204.708321 
L 411.97861 202.884978 
L 412.774554 203.970835 
L 413.570499 207.472362 
L 413.570499 207.472362 
" clip-path="url(#p0e8ff90d69)" style="fill: none; stroke: #e41a1c; stroke-width: 1.5; stroke-linecap: square"/>
   </g>
   <g id="line2d_12">
    <path d="M 46.64 227.866896 
L 47.435945 228.031188 
L 48.231889 228.00426 
L 49.027834 227.733484 
L 50.619723 226.907677 
L 51.415668 226.819758 
L 52.211613 227.210506 
L 53.007557 228.060649 
L 53.803502 229.121346 
L 54.599447 229.992186 
L 55.395392 230.291509 
L 56.191336 229.850956 
L 57.783226 227.793067 
L 58.57917 227.394606 
L 59.375115 228.278578 
L 60.17106 230.728088 
L 60.967004 234.511964 
L 62.558894 242.839088 
L 63.354838 245.335213 
L 64.150783 245.745107 
L 64.946728 244.030856 
L 65.742672 240.78203 
L 66.538617 237.027157 
L 67.334562 233.895078 
L 68.130506 232.247068 
L 68.926451 232.409843 
L 69.722396 234.099929 
L 71.314285 238.83863 
L 72.11023 240.140498 
L 72.906175 240.067667 
L 73.702119 238.726698 
L 75.294009 234.546335 
L 76.089953 233.095205 
L 76.885898 232.673484 
L 77.681843 233.294696 
L 78.477787 234.653009 
L 80.069677 237.734801 
L 80.865621 238.762989 
L 81.661566 239.354305 
L 83.253455 240.111639 
L 84.0494 240.825385 
L 84.845345 241.96464 
L 86.437234 245.160764 
L 87.233179 246.774855 
L 88.029124 248.098939 
L 88.825068 249.010914 
L 89.621013 249.501621 
L 90.416958 249.649542 
L 91.212902 249.571454 
L 92.804792 249.12362 
L 95.192626 248.220912 
L 96.784515 247.598481 
L 98.376404 247.215795 
L 99.968294 246.982348 
L 100.764238 246.744493 
L 101.560183 246.316065 
L 102.356128 245.657088 
L 103.948017 243.78646 
L 105.539907 241.871652 
L 106.335851 241.169901 
L 107.131796 240.696994 
L 108.723685 240.233833 
L 110.315575 239.754999 
L 111.111519 239.314353 
L 112.703409 238.036065 
L 115.887187 235.203733 
L 117.479077 233.967047 
L 118.275021 233.572483 
L 119.070966 233.56851 
L 119.866911 234.200353 
L 120.662856 235.681991 
L 121.4588 238.101548 
L 123.05069 245.043501 
L 123.846634 248.65985 
L 124.642579 251.561554 
L 125.438524 253.205772 
L 126.234468 253.29627 
L 127.030413 251.888489 
L 127.826358 249.397219 
L 129.418247 243.931933 
L 130.214192 242.317143 
L 131.010136 241.955957 
L 131.806081 242.772966 
L 134.193915 247.484364 
L 134.98986 248.055488 
L 135.785805 247.739764 
L 136.581749 246.722957 
L 138.173639 244.074481 
L 138.969583 243.116252 
L 139.765528 242.588454 
L 140.561473 242.406599 
L 144.541196 242.373116 
L 145.337141 242.776331 
L 146.133085 243.488678 
L 147.724975 245.126735 
L 148.520919 245.466431 
L 149.316864 245.179226 
L 150.112809 244.27534 
L 151.704698 241.854105 
L 152.500643 241.285397 
L 153.296588 241.675361 
L 154.092532 243.113126 
L 156.480366 250.125152 
L 157.276311 251.497271 
L 158.072256 251.742306 
L 158.8682 250.914787 
L 161.256034 246.039995 
L 162.051979 245.051873 
L 162.847924 244.668693 
L 163.643868 244.736492 
L 166.031702 245.43545 
L 166.827647 245.633262 
L 167.623592 246.057345 
L 168.419537 246.899011 
L 169.215481 248.216622 
L 170.807371 251.556953 
L 171.603315 252.900892 
L 172.39926 253.62274 
L 173.195205 253.658634 
L 174.787094 252.699293 
L 175.583039 252.603006 
L 176.378983 253.290703 
L 177.174928 254.863714 
L 179.562762 261.470589 
L 180.358707 262.477911 
L 181.154651 262.249483 
L 181.950596 260.840652 
L 183.542485 256.078476 
L 184.33843 253.787863 
L 185.134375 252.113706 
L 185.93032 251.191466 
L 186.726264 250.915274 
L 189.114098 251.241563 
L 189.910043 251.053749 
L 192.297877 250.030218 
L 193.889766 249.894518 
L 194.685711 249.861918 
L 195.481656 249.662091 
L 196.2776 249.204908 
L 199.461379 246.537987 
L 200.257324 246.43478 
L 201.849213 246.819237 
L 202.645158 246.771673 
L 203.441103 246.168665 
L 204.237047 244.849438 
L 205.032992 242.862895 
L 206.624881 238.139739 
L 207.420826 236.316652 
L 208.216771 235.394743 
L 209.012715 235.547365 
L 209.80866 236.690469 
L 211.400549 240.603433 
L 212.196494 242.546691 
L 212.992439 244.087122 
L 213.788383 245.16726 
L 215.380273 246.530392 
L 216.972162 248.003477 
L 217.768107 248.799654 
L 218.564052 249.370163 
L 219.359996 249.478169 
L 220.155941 249.005032 
L 220.951886 248.038243 
L 221.74783 246.879378 
L 222.543775 245.962718 
L 223.33972 245.712282 
L 224.135664 246.391769 
L 224.931609 248.006623 
L 228.115388 256.924912 
L 228.911332 258.030571 
L 229.707277 258.559883 
L 230.503222 258.719855 
L 231.299166 258.700377 
L 232.095111 258.562521 
L 232.891056 258.202664 
L 233.687001 257.411959 
L 234.482945 256.007689 
L 235.27889 253.978413 
L 236.870779 249.283045 
L 237.666724 247.709698 
L 238.462669 247.359862 
L 239.258613 248.445662 
L 240.054558 250.769827 
L 241.646447 256.579954 
L 242.442392 258.487775 
L 243.238337 258.9826 
L 244.034281 258.018767 
L 244.830226 256.005657 
L 245.626171 253.662504 
L 246.422115 251.769759 
L 247.21806 250.906747 
L 248.014005 251.269272 
L 248.80995 252.629888 
L 250.401839 256.099678 
L 251.197784 257.094202 
L 251.993728 257.269379 
L 252.789673 256.823259 
L 253.585618 256.219905 
L 254.381562 255.994115 
L 255.177507 256.533955 
L 255.973452 257.923377 
L 257.565341 261.955537 
L 258.361286 263.495304 
L 259.15723 264.064673 
L 259.953175 263.487615 
L 260.74912 261.910324 
L 263.136954 255.33092 
L 263.932898 253.673771 
L 268.708567 245.713529 
L 269.504511 245.184313 
L 270.300456 245.582956 
L 271.096401 246.871373 
L 272.68829 250.345926 
L 273.484235 251.213104 
L 274.280179 250.791727 
L 275.076124 249.014353 
L 276.668013 243.472159 
L 277.463958 241.478397 
L 278.259903 241.097654 
L 279.055847 242.640686 
L 279.851792 245.810983 
L 281.443682 253.339353 
L 282.239626 255.436021 
L 283.035571 255.33194 
L 283.831516 252.914453 
L 284.62746 248.702142 
L 286.21935 238.951163 
L 287.015294 235.4885 
L 287.811239 233.799542 
L 288.607184 233.87252 
L 289.403128 235.241165 
L 290.995018 238.969008 
L 291.790962 240.061072 
L 292.586907 240.22976 
L 293.382852 239.544735 
L 294.178796 238.284036 
L 295.770686 235.459383 
L 296.56663 234.497446 
L 297.362575 234.103141 
L 298.15852 234.391362 
L 298.954465 235.42006 
L 299.750409 237.169265 
L 301.342299 242.102567 
L 302.138243 244.531345 
L 302.934188 246.253678 
L 303.730133 246.80674 
L 304.526077 245.963002 
L 305.322022 243.859927 
L 306.913911 238.285163 
L 307.709856 236.508725 
L 308.505801 236.358124 
L 309.301745 238.037325 
L 310.09769 241.193187 
L 311.689579 248.405157 
L 312.485524 250.485504 
L 313.281469 250.743956 
L 314.077414 249.281523 
L 315.669303 244.099 
L 316.465248 242.229827 
L 317.261192 241.647938 
L 318.057137 242.284408 
L 318.853082 243.534467 
L 319.649026 244.509508 
L 320.444971 244.405449 
L 321.240916 242.843383 
L 322.03686 240.046806 
L 322.832805 236.782061 
L 323.62875 234.080808 
L 324.424694 232.849787 
L 325.220639 233.519323 
L 326.016584 235.868733 
L 327.608473 242.123694 
L 328.404418 243.971761 
L 329.200363 244.136408 
L 329.996307 242.74831 
L 331.588197 238.396597 
L 332.384141 237.330022 
L 333.180086 237.814316 
L 333.976031 239.807326 
L 336.363865 248.620632 
L 337.159809 250.349157 
L 337.955754 251.117739 
L 338.751699 251.211908 
L 341.139533 250.778893 
L 341.935477 250.599066 
L 342.731422 250.058852 
L 343.527367 248.980863 
L 345.915201 244.325859 
L 346.711146 243.704841 
L 347.50709 244.039917 
L 348.303035 245.162178 
L 349.09898 246.57618 
L 349.894924 247.633516 
L 350.690869 247.777709 
L 351.486814 246.759944 
L 352.282758 244.736031 
L 353.874648 239.807793 
L 354.670592 238.088992 
L 355.466537 237.287041 
L 356.262482 237.269056 
L 357.058426 237.612388 
L 357.854371 237.80013 
L 358.650316 237.444191 
L 359.44626 236.442431 
L 361.03815 233.560553 
L 361.834095 232.542031 
L 362.630039 232.221672 
L 363.425984 232.591713 
L 365.017873 234.212959 
L 365.813818 234.745742 
L 366.609763 234.879696 
L 367.405707 234.793996 
L 368.201652 234.886098 
L 368.997597 235.605752 
L 369.793541 237.255765 
L 370.589486 239.84142 
L 372.181375 246.249963 
L 372.97732 248.864246 
L 373.773265 250.401648 
L 374.569209 250.711292 
L 375.365154 250.013732 
L 376.957043 247.757804 
L 377.752988 247.348836 
L 378.548933 247.847952 
L 379.344878 249.165817 
L 380.936767 252.554216 
L 381.732712 253.563751 
L 382.528656 253.611802 
L 383.324601 252.637179 
L 384.120546 250.841108 
L 386.50838 244.334413 
L 387.304324 242.818607 
L 388.100269 241.777242 
L 388.896214 241.102341 
L 390.488103 240.320261 
L 391.284048 240.078175 
L 392.079992 239.955478 
L 392.875937 239.994304 
L 395.263771 240.62171 
L 396.059716 240.4977 
L 396.855661 239.940583 
L 397.651605 238.933431 
L 399.243495 236.285624 
L 400.039439 235.270858 
L 400.835384 234.866004 
L 401.631329 235.203168 
L 402.427273 236.200184 
L 404.019163 238.941943 
L 404.815107 239.923905 
L 405.611052 240.294847 
L 406.406997 240.044298 
L 408.794831 238.077803 
L 409.590775 237.99184 
L 410.38672 238.372703 
L 413.570499 241.17481 
L 413.570499 241.17481 
" clip-path="url(#p0e8ff90d69)" style="fill: none; stroke: #377eb8; stroke-width: 1.5; stroke-linecap: square"/>
   </g>
   <g id="line2d_13">
    <path d="M 87.233179 318.04 
L 87.233179 71.732 
" clip-path="url(#p0e8ff90d69)" style="fill: none; stroke: #000000; stroke-width: 0.5; stroke-linecap: square"/>
   </g>
   <g id="line2d_14">
    <path d="M 46.64 235.027593 
L 413.570499 235.027593 
" clip-path="url(#p0e8ff90d69)" style="fill: none; stroke: #000000; stroke-width: 0.5; stroke-linecap: square"/>
   </g>
   <g id="patch_4">
    <path d="M 46.64 318.04 
L 46.64 71.732 
" style="fill: none; stroke: #000000; stroke-width: 0.8; stroke-linejoin: miter; stroke-linecap: square"/>
   </g>
   <g id="patch_5">
    <path d="M 413.570499 318.04 
L 413.570499 71.732 
" style="fill: none; stroke: #000000; stroke-width: 0.8; stroke-linejoin: miter; stroke-linecap: square"/>
   </g>
   <g id="patch_6">
    <path d="M 46.64 318.04 
L 413.570499 318.04 
" style="fill: none; stroke: #000000; stroke-width: 0.8; stroke-linejoin: miter; stroke-linecap: square"/>
   </g>
   <g id="patch_7">
    <path d="M 46.64 71.732 
L 413.570499 71.732 
" style="fill: none; stroke: #000000; stroke-width: 0.8; stroke-linejoin: miter; stroke-linecap: square"/>
   </g>
   <g id="text_13">
    <!-- Cz -->
    <g transform="translate(222.766499 65.732)scale(0.12 -0.12)">
     <defs>
      <path id="DejaVuSans-43" d="M 4122 4306 
L 4122 3641 
Q 3803 3938 3442 4084 
Q 3081 4231 2675 4231 
Q 1875 4231 1450 3742 
Q 1025 3253 1025 2328 
Q 1025 1406 1450 917 
Q 1875 428 2675 428 
Q 3081 428 3442 575 
Q 3803 722 4122 1019 
L 4122 359 
Q 3791 134 3420 21 
Q 3050 -91 2638 -91 
Q 1578 -91 968 557 
Q 359 1206 359 2328 
Q 359 3453 968 4101 
Q 1578 4750 2638 4750 
Q 3056 4750 3426 4639 
Q 3797 4528 4122 4306 
z
" transform="scale(0.015625)"/>
      <path id="DejaVuSans-7a" d="M 353 3500 
L 3084 3500 
L 3084 2975 
L 922 459 
L 3084 459 
L 3084 0 
L 275 0 
L 275 525 
L 2438 3041 
L 353 3041 
L 353 3500 
z
" transform="scale(0.015625)"/>
     </defs>
     <use xlink:href="#DejaVuSans-43"/>
     <use xlink:href="#DejaVuSans-7a" x="69.824219"/>
    </g>
   </g>
   <g id="legend_1">
    <g id="patch_8">
     <path d="M 99.877906 48.500845 
L 360.332593 48.500845 
Q 362.332593 48.500845 362.332593 46.500845 
L 362.332593 18.144595 
Q 362.332593 16.144595 360.332593 16.144595 
L 99.877906 16.144595 
Q 97.877906 16.144595 97.877906 18.144595 
L 97.877906 46.500845 
Q 97.877906 48.500845 99.877906 48.500845 
z
" style="fill: #ffffff; opacity: 0.8; stroke: #cccccc; stroke-linejoin: miter"/>
    </g>
    <g id="text_14">
     <!-- Average of Session 45 -->
     <g transform="translate(174.545874 27.743033)scale(0.1 -0.1)">
      <defs>
       <path id="DejaVuSans-41" d="M 2188 4044 
L 1331 1722 
L 3047 1722 
L 2188 4044 
z
M 1831 4666 
L 2547 4666 
L 4325 0 
L 3669 0 
L 3244 1197 
L 1141 1197 
L 716 0 
L 50 0 
L 1831 4666 
z
" transform="scale(0.015625)"/>
       <path id="DejaVuSans-76" d="M 191 3500 
L 800 3500 
L 1894 563 
L 2988 3500 
L 3597 3500 
L 2284 0 
L 1503 0 
L 191 3500 
z
" transform="scale(0.015625)"/>
       <path id="DejaVuSans-72" d="M 2631 2963 
Q 2534 3019 2420 3045 
Q 2306 3072 2169 3072 
Q 1681 3072 1420 2755 
Q 1159 2438 1159 1844 
L 1159 0 
L 581 0 
L 581 3500 
L 1159 3500 
L 1159 2956 
Q 1341 3275 1631 3429 
Q 1922 3584 2338 3584 
Q 2397 3584 2469 3576 
Q 2541 3569 2628 3553 
L 2631 2963 
z
" transform="scale(0.015625)"/>
       <path id="DejaVuSans-61" d="M 2194 1759 
Q 1497 1759 1228 1600 
Q 959 1441 959 1056 
Q 959 750 1161 570 
Q 1363 391 1709 391 
Q 2188 391 2477 730 
Q 2766 1069 2766 1631 
L 2766 1759 
L 2194 1759 
z
M 3341 1997 
L 3341 0 
L 2766 0 
L 2766 531 
Q 2569 213 2275 61 
Q 1981 -91 1556 -91 
Q 1019 -91 701 211 
Q 384 513 384 1019 
Q 384 1609 779 1909 
Q 1175 2209 1959 2209 
L 2766 2209 
L 2766 2266 
Q 2766 2663 2505 2880 
Q 2244 3097 1772 3097 
Q 1472 3097 1187 3025 
Q 903 2953 641 2809 
L 641 3341 
Q 956 3463 1253 3523 
Q 1550 3584 1831 3584 
Q 2591 3584 2966 3190 
Q 3341 2797 3341 1997 
z
" transform="scale(0.015625)"/>
       <path id="DejaVuSans-67" d="M 2906 1791 
Q 2906 2416 2648 2759 
Q 2391 3103 1925 3103 
Q 1463 3103 1205 2759 
Q 947 2416 947 1791 
Q 947 1169 1205 825 
Q 1463 481 1925 481 
Q 2391 481 2648 825 
Q 2906 1169 2906 1791 
z
M 3481 434 
Q 3481 -459 3084 -895 
Q 2688 -1331 1869 -1331 
Q 1566 -1331 1297 -1286 
Q 1028 -1241 775 -1147 
L 775 -588 
Q 1028 -725 1275 -790 
Q 1522 -856 1778 -856 
Q 2344 -856 2625 -561 
Q 2906 -266 2906 331 
L 2906 616 
Q 2728 306 2450 153 
Q 2172 0 1784 0 
Q 1141 0 747 490 
Q 353 981 353 1791 
Q 353 2603 747 3093 
Q 1141 3584 1784 3584 
Q 2172 3584 2450 3431 
Q 2728 3278 2906 2969 
L 2906 3500 
L 3481 3500 
L 3481 434 
z
" transform="scale(0.015625)"/>
       <path id="DejaVuSans-20" transform="scale(0.015625)"/>
       <path id="DejaVuSans-66" d="M 2375 4863 
L 2375 4384 
L 1825 4384 
Q 1516 4384 1395 4259 
Q 1275 4134 1275 3809 
L 1275 3500 
L 2222 3500 
L 2222 3053 
L 1275 3053 
L 1275 0 
L 697 0 
L 697 3053 
L 147 3053 
L 147 3500 
L 697 3500 
L 697 3744 
Q 697 4328 969 4595 
Q 1241 4863 1831 4863 
L 2375 4863 
z
" transform="scale(0.015625)"/>
       <path id="DejaVuSans-53" d="M 3425 4513 
L 3425 3897 
Q 3066 4069 2747 4153 
Q 2428 4238 2131 4238 
Q 1616 4238 1336 4038 
Q 1056 3838 1056 3469 
Q 1056 3159 1242 3001 
Q 1428 2844 1947 2747 
L 2328 2669 
Q 3034 2534 3370 2195 
Q 3706 1856 3706 1288 
Q 3706 609 3251 259 
Q 2797 -91 1919 -91 
Q 1588 -91 1214 -16 
Q 841 59 441 206 
L 441 856 
Q 825 641 1194 531 
Q 1563 422 1919 422 
Q 2459 422 2753 634 
Q 3047 847 3047 1241 
Q 3047 1584 2836 1778 
Q 2625 1972 2144 2069 
L 1759 2144 
Q 1053 2284 737 2584 
Q 422 2884 422 3419 
Q 422 4038 858 4394 
Q 1294 4750 2059 4750 
Q 2388 4750 2728 4690 
Q 3069 4631 3425 4513 
z
" transform="scale(0.015625)"/>
       <path id="DejaVuSans-69" d="M 603 3500 
L 1178 3500 
L 1178 0 
L 603 0 
L 603 3500 
z
M 603 4863 
L 1178 4863 
L 1178 4134 
L 603 4134 
L 603 4863 
z
" transform="scale(0.015625)"/>
       <path id="DejaVuSans-35" d="M 691 4666 
L 3169 4666 
L 3169 4134 
L 1269 4134 
L 1269 2991 
Q 1406 3038 1543 3061 
Q 1681 3084 1819 3084 
Q 2600 3084 3056 2656 
Q 3513 2228 3513 1497 
Q 3513 744 3044 326 
Q 2575 -91 1722 -91 
Q 1428 -91 1123 -41 
Q 819 9 494 109 
L 494 744 
Q 775 591 1075 516 
Q 1375 441 1709 441 
Q 2250 441 2565 725 
Q 2881 1009 2881 1497 
Q 2881 1984 2565 2268 
Q 2250 2553 1709 2553 
Q 1456 2553 1204 2497 
Q 953 2441 691 2322 
L 691 4666 
z
" transform="scale(0.015625)"/>
      </defs>
      <use xlink:href="#DejaVuSans-41"/>
      <use xlink:href="#DejaVuSans-76" x="62.533203"/>
      <use xlink:href="#DejaVuSans-65" x="121.712891"/>
      <use xlink:href="#DejaVuSans-72" x="183.236328"/>
      <use xlink:href="#DejaVuSans-61" x="224.349609"/>
      <use xlink:href="#DejaVuSans-67" x="285.628906"/>
      <use xlink:href="#DejaVuSans-65" x="349.105469"/>
      <use xlink:href="#DejaVuSans-20" x="410.628906"/>
      <use xlink:href="#DejaVuSans-6f" x="442.416016"/>
      <use xlink:href="#DejaVuSans-66" x="503.597656"/>
      <use xlink:href="#DejaVuSans-20" x="538.802734"/>
      <use xlink:href="#DejaVuSans-53" x="570.589844"/>
      <use xlink:href="#DejaVuSans-65" x="634.066406"/>
      <use xlink:href="#DejaVuSans-73" x="695.589844"/>
      <use xlink:href="#DejaVuSans-73" x="747.689453"/>
      <use xlink:href="#DejaVuSans-69" x="799.789062"/>
      <use xlink:href="#DejaVuSans-6f" x="827.572266"/>
      <use xlink:href="#DejaVuSans-6e" x="888.753906"/>
      <use xlink:href="#DejaVuSans-20" x="952.132812"/>
      <use xlink:href="#DejaVuSans-34" x="983.919922"/>
      <use xlink:href="#DejaVuSans-35" x="1047.542969"/>
     </g>
    </g>
    <g id="line2d_15">
     <path d="M 101.877906 38.921158 
L 111.877906 38.921158 
L 121.877906 38.921158 
" style="fill: none; stroke: #e41a1c; stroke-width: 1.5; stroke-linecap: square"/>
    </g>
    <g id="text_15">
     <!-- Target (n=299) -->
     <g transform="translate(129.877906 42.421158)scale(0.1 -0.1)">
      <defs>
       <path id="DejaVuSans-54" d="M -19 4666 
L 3928 4666 
L 3928 4134 
L 2272 4134 
L 2272 0 
L 1638 0 
L 1638 4134 
L -19 4134 
L -19 4666 
z
" transform="scale(0.015625)"/>
       <path id="DejaVuSans-74" d="M 1172 4494 
L 1172 3500 
L 2356 3500 
L 2356 3053 
L 1172 3053 
L 1172 1153 
Q 1172 725 1289 603 
Q 1406 481 1766 481 
L 2356 481 
L 2356 0 
L 1766 0 
Q 1100 0 847 248 
Q 594 497 594 1153 
L 594 3053 
L 172 3053 
L 172 3500 
L 594 3500 
L 594 4494 
L 1172 4494 
z
" transform="scale(0.015625)"/>
       <path id="DejaVuSans-28" d="M 1984 4856 
Q 1566 4138 1362 3434 
Q 1159 2731 1159 2009 
Q 1159 1288 1364 580 
Q 1569 -128 1984 -844 
L 1484 -844 
Q 1016 -109 783 600 
Q 550 1309 550 2009 
Q 550 2706 781 3412 
Q 1013 4119 1484 4856 
L 1984 4856 
z
" transform="scale(0.015625)"/>
       <path id="DejaVuSans-3d" d="M 678 2906 
L 4684 2906 
L 4684 2381 
L 678 2381 
L 678 2906 
z
M 678 1631 
L 4684 1631 
L 4684 1100 
L 678 1100 
L 678 1631 
z
" transform="scale(0.015625)"/>
       <path id="DejaVuSans-39" d="M 703 97 
L 703 672 
Q 941 559 1184 500 
Q 1428 441 1663 441 
Q 2288 441 2617 861 
Q 2947 1281 2994 2138 
Q 2813 1869 2534 1725 
Q 2256 1581 1919 1581 
Q 1219 1581 811 2004 
Q 403 2428 403 3163 
Q 403 3881 828 4315 
Q 1253 4750 1959 4750 
Q 2769 4750 3195 4129 
Q 3622 3509 3622 2328 
Q 3622 1225 3098 567 
Q 2575 -91 1691 -91 
Q 1453 -91 1209 -44 
Q 966 3 703 97 
z
M 1959 2075 
Q 2384 2075 2632 2365 
Q 2881 2656 2881 3163 
Q 2881 3666 2632 3958 
Q 2384 4250 1959 4250 
Q 1534 4250 1286 3958 
Q 1038 3666 1038 3163 
Q 1038 2656 1286 2365 
Q 1534 2075 1959 2075 
z
" transform="scale(0.015625)"/>
       <path id="DejaVuSans-29" d="M 513 4856 
L 1013 4856 
Q 1481 4119 1714 3412 
Q 1947 2706 1947 2009 
Q 1947 1309 1714 600 
Q 1481 -109 1013 -844 
L 513 -844 
Q 928 -128 1133 580 
Q 1338 1288 1338 2009 
Q 1338 2731 1133 3434 
Q 928 4138 513 4856 
z
" transform="scale(0.015625)"/>
      </defs>
      <use xlink:href="#DejaVuSans-54"/>
      <use xlink:href="#DejaVuSans-61" x="44.583984"/>
      <use xlink:href="#DejaVuSans-72" x="105.863281"/>
      <use xlink:href="#DejaVuSans-67" x="145.226562"/>
      <use xlink:href="#DejaVuSans-65" x="208.703125"/>
      <use xlink:href="#DejaVuSans-74" x="270.226562"/>
      <use xlink:href="#DejaVuSans-20" x="309.435547"/>
      <use xlink:href="#DejaVuSans-28" x="341.222656"/>
      <use xlink:href="#DejaVuSans-6e" x="380.236328"/>
      <use xlink:href="#DejaVuSans-3d" x="443.615234"/>
      <use xlink:href="#DejaVuSans-32" x="527.404297"/>
      <use xlink:href="#DejaVuSans-39" x="591.027344"/>
      <use xlink:href="#DejaVuSans-39" x="654.650391"/>
      <use xlink:href="#DejaVuSans-29" x="718.273438"/>
     </g>
    </g>
    <g id="line2d_16">
     <path d="M 225.607593 38.921158 
L 235.607593 38.921158 
L 245.607593 38.921158 
" style="fill: none; stroke: #377eb8; stroke-width: 1.5; stroke-linecap: square"/>
    </g>
    <g id="text_16">
     <!-- Non-Target (n=1505) -->
     <g transform="translate(253.607593 42.421158)scale(0.1 -0.1)">
      <defs>
       <path id="DejaVuSans-4e" d="M 628 4666 
L 1478 4666 
L 3547 763 
L 3547 4666 
L 4159 4666 
L 4159 0 
L 3309 0 
L 1241 3903 
L 1241 0 
L 628 0 
L 628 4666 
z
" transform="scale(0.015625)"/>
       <path id="DejaVuSans-2d" d="M 313 2009 
L 1997 2009 
L 1997 1497 
L 313 1497 
L 313 2009 
z
" transform="scale(0.015625)"/>
      </defs>
      <use xlink:href="#DejaVuSans-4e"/>
      <use xlink:href="#DejaVuSans-6f" x="74.804688"/>
      <use xlink:href="#DejaVuSans-6e" x="135.986328"/>
      <use xlink:href="#DejaVuSans-2d" x="199.365234"/>
      <use xlink:href="#DejaVuSans-54" x="226.324219"/>
      <use xlink:href="#DejaVuSans-61" x="270.908203"/>
      <use xlink:href="#DejaVuSans-72" x="332.1875"/>
      <use xlink:href="#DejaVuSans-67" x="371.550781"/>
      <use xlink:href="#DejaVuSans-65" x="435.027344"/>
      <use xlink:href="#DejaVuSans-74" x="496.550781"/>
      <use xlink:href="#DejaVuSans-20" x="535.759766"/>
      <use xlink:href="#DejaVuSans-28" x="567.546875"/>
      <use xlink:href="#DejaVuSans-6e" x="606.560547"/>
      <use xlink:href="#DejaVuSans-3d" x="669.939453"/>
      <use xlink:href="#DejaVuSans-31" x="753.728516"/>
      <use xlink:href="#DejaVuSans-35" x="817.351562"/>
      <use xlink:href="#DejaVuSans-30" x="880.974609"/>
      <use xlink:href="#DejaVuSans-35" x="944.597656"/>
      <use xlink:href="#DejaVuSans-29" x="1008.220703"/>
     </g>
    </g>
   </g>
  </g>
 </g>
 <defs>
  <clipPath id="p0e8ff90d69">
   <rect x="46.64" y="71.732" width="366.930499" height="246.308"/>
  </clipPath>
 </defs>
</svg>
