<?xml version="1.0" encoding="utf-8" standalone="no"?>
<!DOCTYPE svg PUBLIC "-//W3C//DTD SVG 1.1//EN"
  "http://www.w3.org/Graphics/SVG/1.1/DTD/svg11.dtd">
<svg xmlns:xlink="http://www.w3.org/1999/xlink" width="432pt" height="360pt" viewBox="0 0 432 360" xmlns="http://www.w3.org/2000/svg" version="1.1">
 <metadata>
  <rdf:RDF xmlns:dc="http://purl.org/dc/elements/1.1/" xmlns:cc="http://creativecommons.org/ns#" xmlns:rdf="http://www.w3.org/1999/02/22-rdf-syntax-ns#">
   <cc:Work>
    <dc:type rdf:resource="http://purl.org/dc/dcmitype/StillImage"/>
    <dc:date>2022-05-19T11:51:38.492697</dc:date>
    <dc:format>image/svg+xml</dc:format>
    <dc:creator>
     <cc:Agent>
      <dc:title>Matplotlib v3.5.1, https://matplotlib.org/</dc:title>
     </cc:Agent>
    </dc:creator>
   </cc:Work>
  </rdf:RDF>
 </metadata>
 <defs>
  <style type="text/css">*{stroke-linejoin: round; stroke-linecap: butt}</style>
 </defs>
 <g id="figure_1">
  <g id="patch_1">
   <path d="M 0 360 
L 432 360 
L 432 0 
L 0 0 
L 0 360 
z
" style="fill: none"/>
  </g>
  <g id="axes_1">
   <g id="patch_2">
    <path d="M 46.64 318.04 
L 413.570499 318.04 
L 413.570499 71.732 
L 46.64 71.732 
L 46.64 318.04 
z
" style="fill: none"/>
   </g>
   <g id="PolyCollection_1">
    <defs>
     <path id="m75293c2415" d="M 46.64 -135.990352 
L 46.64 -90.784408 
L 47.435945 -90.977036 
L 48.231889 -89.687538 
L 49.027834 -87.45979 
L 49.823779 -85.268754 
L 50.619723 -84.21728 
L 51.415668 -85.108593 
L 52.211613 -88.085269 
L 53.007557 -92.514516 
L 53.803502 -97.178216 
L 54.599447 -100.676232 
L 55.395392 -101.870736 
L 56.191336 -100.23643 
L 56.987281 -96.04393 
L 57.783226 -90.311917 
L 58.57917 -84.500215 
L 59.375115 -80.033936 
L 60.17106 -77.853881 
L 60.967004 -78.181799 
L 61.762949 -80.569102 
L 62.558894 -84.149313 
L 63.354838 -87.96493 
L 64.150783 -91.288968 
L 64.946728 -93.855186 
L 65.742672 -95.8753 
L 66.538617 -97.819208 
L 67.334562 -100.094873 
L 68.130506 -102.817109 
L 68.926451 -105.770838 
L 69.722396 -108.526606 
L 70.51834 -110.587919 
L 71.314285 -111.520556 
L 72.11023 -111.09329 
L 72.906175 -109.407081 
L 73.702119 -106.905232 
L 74.498064 -104.201619 
L 75.294009 -101.81612 
L 76.089953 -99.985441 
L 76.885898 -98.647344 
L 77.681843 -97.564589 
L 78.477787 -96.472942 
L 79.273732 -95.166046 
L 80.069677 -93.513336 
L 80.865621 -91.447271 
L 81.661566 -88.953421 
L 82.457511 -86.08757 
L 83.253455 -83.017071 
L 84.0494 -80.039689 
L 84.845345 -77.531589 
L 85.641289 -75.846234 
L 86.437234 -75.233661 
L 87.233179 -75.796202 
L 88.029124 -77.435133 
L 88.825068 -79.788182 
L 89.621013 -82.239771 
L 90.416958 -84.072454 
L 91.212902 -84.726129 
L 92.008847 -84.033075 
L 92.804792 -82.290565 
L 93.600736 -80.141512 
L 94.396681 -78.34994 
L 95.192626 -77.566802 
L 95.98857 -78.130556 
L 96.784515 -79.945064 
L 97.58046 -82.507655 
L 98.376404 -85.125094 
L 99.172349 -87.235394 
L 99.968294 -88.64522 
L 100.764238 -89.530075 
L 101.560183 -90.225761 
L 102.356128 -90.975908 
L 103.152073 -91.776473 
L 103.948017 -92.356365 
L 104.743962 -92.271932 
L 105.539907 -91.093843 
L 106.335851 -88.650587 
L 107.131796 -85.217376 
L 107.927741 -81.503303 
L 108.723685 -78.4011 
L 109.51963 -76.635577 
L 110.315575 -76.511653 
L 111.111519 -77.881199 
L 111.907464 -80.291176 
L 112.703409 -83.173271 
L 113.499353 -85.984458 
L 114.295298 -88.311727 
L 115.091243 -89.962904 
L 115.887187 -91.009742 
L 116.683132 -91.726748 
L 117.479077 -92.413775 
L 118.275021 -93.181392 
L 119.070966 -93.840899 
L 119.866911 -94.000976 
L 120.662856 -93.331103 
L 121.4588 -91.802559 
L 122.254745 -89.72139 
L 123.05069 -87.555688 
L 123.846634 -85.718682 
L 124.642579 -84.446722 
L 125.438524 -83.786569 
L 126.234468 -83.622494 
L 127.030413 -83.704048 
L 127.826358 -83.713476 
L 128.622302 -83.404858 
L 129.418247 -82.743372 
L 130.214192 -81.907787 
L 131.010136 -81.119335 
L 131.806081 -80.440236 
L 132.602026 -79.714723 
L 133.39797 -78.677105 
L 134.193915 -77.125376 
L 134.98986 -75.071905 
L 135.785805 -72.840001 
L 136.581749 -71.065565 
L 137.377694 -70.538155 
L 138.173639 -71.886297 
L 138.969583 -75.254149 
L 139.765528 -80.172739 
L 140.561473 -85.704776 
L 141.357417 -90.745864 
L 142.153362 -94.308923 
L 142.949307 -95.730512 
L 143.745251 -94.817221 
L 144.541196 -91.909587 
L 145.337141 -87.795251 
L 146.133085 -83.453223 
L 146.92903 -79.728663 
L 147.724975 -77.097713 
L 148.520919 -75.615333 
L 149.316864 -75.024139 
L 150.112809 -74.943776 
L 150.908753 -75.063253 
L 151.704698 -75.269432 
L 152.500643 -75.65571 
L 153.296588 -76.404263 
L 154.092532 -77.617588 
L 154.888477 -79.211712 
L 155.684422 -80.930621 
L 156.480366 -82.458239 
L 157.276311 -83.563029 
L 158.072256 -84.211728 
L 158.8682 -84.600073 
L 159.664145 -85.071664 
L 160.46009 -85.95345 
L 161.256034 -87.401204 
L 162.051979 -89.344206 
L 162.847924 -91.530122 
L 163.643868 -93.603729 
L 164.439813 -95.186358 
L 165.235758 -95.978856 
L 166.031702 -95.8913 
L 166.827647 -95.131532 
L 167.623592 -94.156506 
L 168.419537 -93.473602 
L 169.215481 -93.41113 
L 170.011426 -94.005832 
L 170.807371 -95.05005 
L 171.603315 -96.227175 
L 172.39926 -97.245238 
L 173.195205 -97.931268 
L 173.991149 -98.282943 
L 174.787094 -98.46303 
L 175.583039 -98.72167 
L 176.378983 -99.275934 
L 177.174928 -100.22002 
L 177.970873 -101.521063 
L 178.766817 -103.08242 
L 179.562762 -104.802583 
L 180.358707 -106.583173 
L 181.154651 -108.311781 
L 181.950596 -109.875252 
L 182.746541 -111.213563 
L 183.542485 -112.360469 
L 184.33843 -113.411881 
L 185.134375 -114.429555 
L 185.93032 -115.353411 
L 186.726264 -115.993345 
L 187.522209 -116.108252 
L 188.318154 -115.510374 
L 189.114098 -114.120098 
L 189.910043 -111.960282 
L 190.705988 -109.145918 
L 191.501932 -105.909128 
L 192.297877 -102.628346 
L 193.093822 -99.800136 
L 193.889766 -97.938026 
L 194.685711 -97.445029 
L 195.481656 -98.516943 
L 196.2776 -101.096336 
L 197.073545 -104.867215 
L 197.86949 -109.290305 
L 198.665434 -113.698711 
L 199.461379 -117.452578 
L 200.257324 -120.09616 
L 201.053269 -121.440985 
L 201.849213 -121.549826 
L 202.645158 -120.663413 
L 203.441103 -119.126493 
L 204.237047 -117.333094 
L 205.032992 -115.675222 
L 205.828937 -114.486876 
L 206.624881 -114.009741 
L 207.420826 -114.407248 
L 208.216771 -115.801493 
L 209.012715 -118.26908 
L 209.80866 -121.768106 
L 210.604605 -126.042034 
L 211.400549 -130.579254 
L 212.196494 -134.679186 
L 212.992439 -137.615479 
L 213.788383 -138.830404 
L 214.584328 -138.080586 
L 215.380273 -135.494086 
L 216.176218 -131.547978 
L 216.972162 -126.987998 
L 217.768107 -122.69869 
L 218.564052 -119.528958 
L 219.359996 -118.09558 
L 220.155941 -118.614434 
L 220.951886 -120.824172 
L 221.74783 -124.048421 
L 222.543775 -127.388707 
L 223.33972 -129.980689 
L 224.135664 -131.219682 
L 224.931609 -130.882985 
L 225.727554 -129.126598 
L 226.523498 -126.381046 
L 227.319443 -123.197285 
L 228.115388 -120.095966 
L 228.911332 -117.456446 
L 229.707277 -115.458972 
L 230.503222 -114.081008 
L 231.299166 -113.148365 
L 232.095111 -112.435202 
L 232.891056 -111.78058 
L 233.687001 -111.160042 
L 234.482945 -110.662003 
L 235.27889 -110.389066 
L 236.074835 -110.374518 
L 236.870779 -110.586754 
L 237.666724 -110.999568 
L 238.462669 -111.646661 
L 239.258613 -112.618424 
L 240.054558 -114.027194 
L 240.850503 -115.974702 
L 241.646447 -118.513587 
L 242.442392 -121.575579 
L 243.238337 -124.884801 
L 244.034281 -127.941588 
L 244.830226 -130.150149 
L 245.626171 -131.046681 
L 246.422115 -130.484014 
L 247.21806 -128.67161 
L 248.014005 -126.094061 
L 248.80995 -123.383067 
L 249.605894 -121.179086 
L 250.401839 -119.98037 
L 251.197784 -119.995842 
L 251.993728 -121.064954 
L 252.789673 -122.706174 
L 253.585618 -124.286138 
L 254.381562 -125.232443 
L 255.177507 -125.207267 
L 255.973452 -124.198377 
L 256.769396 -122.51459 
L 257.565341 -120.684845 
L 258.361286 -119.285542 
L 259.15723 -118.762857 
L 259.953175 -119.328228 
L 260.74912 -120.957599 
L 261.545064 -123.457579 
L 262.341009 -126.538659 
L 263.136954 -129.869342 
L 263.932898 -133.122909 
L 264.728843 -136.025256 
L 265.524788 -138.387129 
L 266.320733 -140.107242 
L 267.116677 -141.16737 
L 267.912622 -141.65266 
L 268.708567 -141.791287 
L 269.504511 -141.960238 
L 270.300456 -142.608878 
L 271.096401 -144.112588 
L 271.892345 -146.626407 
L 272.68829 -150.008812 
L 273.484235 -153.837944 
L 274.280179 -157.50165 
L 275.076124 -160.336777 
L 275.872069 -161.794244 
L 276.668013 -161.588459 
L 277.463958 -159.775709 
L 278.259903 -156.729272 
L 279.055847 -153.029299 
L 279.851792 -149.320666 
L 280.647737 -146.185852 
L 281.443682 -144.049719 
L 282.239626 -143.116465 
L 283.035571 -143.347539 
L 283.831516 -144.499235 
L 284.62746 -146.226026 
L 285.423405 -148.214864 
L 286.21935 -150.269596 
L 287.015294 -152.278622 
L 287.811239 -154.102099 
L 288.607184 -155.502869 
L 289.403128 -156.206432 
L 290.199073 -156.053754 
L 290.995018 -155.131094 
L 291.790962 -153.786681 
L 292.586907 -152.533256 
L 293.382852 -151.897103 
L 294.178796 -152.269436 
L 294.974741 -153.78752 
L 295.770686 -156.272933 
L 296.56663 -159.270515 
L 297.362575 -162.206098 
L 298.15852 -164.603171 
L 298.954465 -166.242075 
L 299.750409 -167.184864 
L 300.546354 -167.688345 
L 301.342299 -168.080004 
L 302.138243 -168.646734 
L 302.934188 -169.546064 
L 303.730133 -170.743362 
L 304.526077 -171.992521 
L 305.322022 -172.876191 
L 306.117967 -172.903086 
L 306.913911 -171.648788 
L 307.709856 -168.920797 
L 308.505801 -164.901271 
L 309.301745 -160.184468 
L 310.09769 -155.647597 
L 310.893635 -152.192115 
L 311.689579 -150.478128 
L 312.485524 -150.765592 
L 313.281469 -152.89236 
L 314.077414 -156.339622 
L 314.873358 -160.3296 
L 315.669303 -163.958081 
L 316.465248 -166.389254 
L 317.261192 -167.0841 
L 318.057137 -165.968485 
L 318.853082 -163.455636 
L 319.649026 -160.311028 
L 320.444971 -157.41751 
L 321.240916 -155.522456 
L 322.03686 -155.037942 
L 322.832805 -155.945538 
L 323.62875 -157.832533 
L 324.424694 -160.045834 
L 325.220639 -161.903336 
L 326.016584 -162.883438 
L 326.812528 -162.737346 
L 327.608473 -161.510045 
L 328.404418 -159.48267 
L 329.200363 -157.06184 
L 329.996307 -154.656664 
L 330.792252 -152.595825 
L 331.588197 -151.11681 
L 332.384141 -150.400946 
L 333.180086 -150.583333 
L 333.976031 -151.695184 
L 334.771975 -153.574259 
L 335.56792 -155.824263 
L 336.363865 -157.877913 
L 337.159809 -159.148699 
L 337.955754 -159.198339 
L 338.751699 -157.848409 
L 339.547643 -155.217831 
L 340.343588 -151.704873 
L 341.139533 -147.920094 
L 341.935477 -144.558633 
L 342.731422 -142.218945 
L 343.527367 -141.217396 
L 344.323311 -141.471764 
L 345.119256 -142.510207 
L 345.915201 -143.616979 
L 346.711146 -144.07343 
L 347.50709 -143.411233 
L 348.303035 -141.583062 
L 349.09898 -138.98629 
L 349.894924 -136.336399 
L 350.690869 -134.445436 
L 351.486814 -133.988591 
L 352.282758 -135.33256 
L 353.078703 -138.463564 
L 353.874648 -143.010541 
L 354.670592 -148.332404 
L 355.466537 -153.638679 
L 356.262482 -158.128373 
L 357.058426 -161.135574 
L 357.854371 -162.250901 
L 358.650316 -161.373766 
L 359.44626 -158.681514 
L 360.242205 -154.559622 
L 361.03815 -149.55082 
L 361.834095 -144.327926 
L 362.630039 -139.639875 
L 363.425984 -136.190575 
L 364.221929 -134.474509 
L 365.017873 -134.637722 
L 365.813818 -136.418574 
L 366.609763 -139.188024 
L 367.405707 -142.095773 
L 368.201652 -144.31083 
L 368.997597 -145.285412 
L 369.793541 -144.917043 
L 370.589486 -143.525605 
L 371.385431 -141.686243 
L 372.181375 -140.036801 
L 372.97732 -139.134319 
L 373.773265 -139.342106 
L 374.569209 -140.718284 
L 375.365154 -142.959199 
L 376.161099 -145.488929 
L 376.957043 -147.690601 
L 377.752988 -149.135049 
L 378.548933 -149.647537 
L 379.344878 -149.208002 
L 380.140822 -147.826818 
L 380.936767 -145.514571 
L 381.732712 -142.341684 
L 382.528656 -138.512878 
L 383.324601 -134.398652 
L 384.120546 -130.506086 
L 384.91649 -127.38626 
L 385.712435 -125.486597 
L 386.50838 -124.992105 
L 387.304324 -125.731527 
L 388.100269 -127.206502 
L 388.896214 -128.74356 
L 389.692158 -129.718165 
L 390.488103 -129.774537 
L 391.284048 -128.954923 
L 392.079992 -127.669311 
L 392.875937 -126.503534 
L 393.671882 -125.954919 
L 394.467827 -126.226266 
L 395.263771 -127.156449 
L 396.059716 -128.275098 
L 396.855661 -128.938492 
L 397.651605 -128.528479 
L 398.44755 -126.68387 
L 399.243495 -123.476732 
L 400.039439 -119.432515 
L 400.835384 -115.367356 
L 401.631329 -112.120466 
L 402.427273 -110.301153 
L 403.223218 -110.128348 
L 404.019163 -111.385784 
L 404.815107 -113.499486 
L 405.611052 -115.729426 
L 406.406997 -117.41508 
L 407.202941 -118.169267 
L 407.998886 -117.944209 
L 408.794831 -116.982756 
L 409.590775 -115.722226 
L 410.38672 -114.689316 
L 411.182665 -114.374834 
L 411.97861 -115.090153 
L 412.774554 -116.862717 
L 413.570499 -119.434649 
L 413.570499 -239.04879 
L 413.570499 -239.04879 
L 412.774554 -237.192572 
L 411.97861 -235.779308 
L 411.182665 -234.980127 
L 410.38672 -234.855599 
L 409.590775 -235.314185 
L 408.794831 -236.070602 
L 407.998886 -236.673764 
L 407.202941 -236.641673 
L 406.406997 -235.650199 
L 405.611052 -233.678177 
L 404.815107 -231.052899 
L 404.019163 -228.397268 
L 403.223218 -226.490613 
L 402.427273 -226.049961 
L 401.631329 -227.474291 
L 400.835384 -230.654662 
L 400.039439 -234.959357 
L 399.243495 -239.419537 
L 398.44755 -243.037345 
L 397.651605 -245.102191 
L 396.855661 -245.422967 
L 396.059716 -244.402848 
L 395.263771 -242.900773 
L 394.467827 -241.892351 
L 393.671882 -242.0597 
L 392.875937 -243.512094 
L 392.079992 -245.775686 
L 391.284048 -248.029028 
L 390.488103 -249.44583 
L 389.692158 -249.503909 
L 388.896214 -248.169577 
L 388.100269 -245.910141 
L 387.304324 -243.531572 
L 386.50838 -241.90066 
L 385.712435 -241.661789 
L 384.91649 -243.054007 
L 384.120546 -245.877447 
L 383.324601 -249.596037 
L 382.528656 -253.524662 
L 381.732712 -257.027269 
L 380.936767 -259.65041 
L 380.140822 -261.155773 
L 379.344878 -261.484412 
L 378.548933 -260.721114 
L 377.752988 -259.085892 
L 376.957043 -256.912211 
L 376.161099 -254.575531 
L 375.365154 -252.415839 
L 374.569209 -250.726033 
L 373.773265 -249.78186 
L 372.97732 -249.805893 
L 372.181375 -250.826784 
L 371.385431 -252.540966 
L 370.589486 -254.33276 
L 369.793541 -255.490285 
L 368.997597 -255.489272 
L 368.201652 -254.179635 
L 367.405707 -251.812579 
L 366.609763 -248.953708 
L 365.813818 -246.340937 
L 365.017873 -244.707733 
L 364.221929 -244.594986 
L 363.425984 -246.211748 
L 362.630039 -249.400196 
L 361.834095 -253.701022 
L 361.03815 -258.467768 
L 360.242205 -262.987523 
L 359.44626 -266.597867 
L 358.650316 -268.791182 
L 357.854371 -269.276302 
L 357.058426 -267.97875 
L 356.262482 -265.009805 
L 355.466537 -260.65782 
L 354.670592 -255.409963 
L 353.874648 -249.947695 
L 353.078703 -245.054138 
L 352.282758 -241.43322 
L 351.486814 -239.509065 
L 350.690869 -239.296512 
L 349.894924 -240.402357 
L 349.09898 -242.159768 
L 348.303035 -243.847195 
L 347.50709 -244.915064 
L 346.711146 -245.145002 
L 345.915201 -244.695184 
L 345.119256 -244.026669 
L 344.323311 -243.740263 
L 343.527367 -244.374521 
L 342.731422 -246.225062 
L 341.935477 -249.240596 
L 341.139533 -253.027344 
L 340.343588 -256.958893 
L 339.547643 -260.356993 
L 338.751699 -262.686051 
L 337.955754 -263.692017 
L 337.159809 -263.428114 
L 336.363865 -262.161185 
L 335.56792 -260.226122 
L 334.771975 -257.929454 
L 333.976031 -255.550968 
L 333.180086 -253.399363 
L 332.384141 -251.835102 
L 331.588197 -251.209715 
L 330.792252 -251.744051 
L 329.996307 -253.419701 
L 329.200363 -255.946874 
L 328.404418 -258.815276 
L 327.608473 -261.399477 
L 326.812528 -263.099275 
L 326.016584 -263.501444 
L 325.220639 -262.524072 
L 324.424694 -260.481439 
L 323.62875 -258.024608 
L 322.832805 -255.964364 
L 322.03686 -255.031914 
L 321.240916 -255.6524 
L 320.444971 -257.79868 
L 319.649026 -260.973496 
L 318.853082 -264.337963 
L 318.057137 -266.954827 
L 317.261192 -268.064318 
L 316.465248 -267.299096 
L 315.669303 -264.783451 
L 314.873358 -261.109891 
L 314.077414 -257.20287 
L 313.281469 -254.081499 
L 312.485524 -252.567476 
L 311.689579 -253.045101 
L 310.893635 -255.389751 
L 310.09769 -259.089849 
L 309.301745 -263.467366 
L 308.505801 -267.866255 
L 307.709856 -271.743997 
L 306.913911 -274.696501 
L 306.117967 -276.483705 
L 305.322022 -277.072182 
L 304.526077 -276.646323 
L 303.730133 -275.546622 
L 302.934188 -274.150118 
L 302.138243 -272.742947 
L 301.342299 -271.431897 
L 300.546354 -270.127854 
L 299.750409 -268.616685 
L 298.954465 -266.696329 
L 298.15852 -264.311809 
L 297.362575 -261.61137 
L 296.56663 -258.903077 
L 295.770686 -256.560617 
L 294.974741 -254.932082 
L 294.178796 -254.256839 
L 293.382852 -254.580124 
L 292.586907 -255.695192 
L 291.790962 -257.169044 
L 290.995018 -258.466637 
L 290.199073 -259.114979 
L 289.403128 -258.823241 
L 288.607184 -257.524594 
L 287.811239 -255.367061 
L 287.015294 -252.68397 
L 286.21935 -249.933902 
L 285.423405 -247.58675 
L 284.62746 -245.979401 
L 283.831516 -245.227644 
L 283.035571 -245.268991 
L 282.239626 -246.001273 
L 281.443682 -247.392701 
L 280.647737 -249.470957 
L 279.851792 -252.203198 
L 279.055847 -255.359869 
L 278.259903 -258.46544 
L 277.463958 -260.881692 
L 276.668013 -261.988473 
L 275.872069 -261.380921 
L 275.076124 -259.009428 
L 274.280179 -255.219271 
L 273.484235 -250.673486 
L 272.68829 -246.171078 
L 271.892345 -242.414584 
L 271.096401 -239.81659 
L 270.300456 -238.423786 
L 269.504511 -237.971997 
L 268.708567 -238.017479 
L 267.912622 -238.07436 
L 267.116677 -237.723014 
L 266.320733 -236.687243 
L 265.524788 -234.875456 
L 264.728843 -232.369169 
L 263.932898 -229.362039 
L 263.136954 -226.092103 
L 262.341009 -222.815374 
L 261.545064 -219.819766 
L 260.74912 -217.42554 
L 259.953175 -215.926213 
L 259.15723 -215.485887 
L 258.361286 -216.054943 
L 257.565341 -217.350671 
L 256.769396 -218.905178 
L 255.973452 -220.16399 
L 255.177507 -220.624962 
L 254.381562 -219.997834 
L 253.585618 -218.33045 
L 252.789673 -216.030725 
L 251.993728 -213.752709 
L 251.197784 -212.18704 
L 250.401839 -211.837085 
L 249.605894 -212.849026 
L 248.80995 -214.939595 
L 248.014005 -217.459085 
L 247.21806 -219.602191 
L 246.422115 -220.702918 
L 245.626171 -220.474264 
L 244.830226 -219.064645 
L 244.034281 -216.916577 
L 243.238337 -214.54276 
L 242.442392 -212.355268 
L 241.646447 -210.584708 
L 240.850503 -209.251839 
L 240.054558 -208.183402 
L 239.258613 -207.104238 
L 238.462669 -205.798019 
L 237.666724 -204.250489 
L 236.870779 -202.675046 
L 236.074835 -201.400992 
L 235.27889 -200.708651 
L 234.482945 -200.723439 
L 233.687001 -201.408288 
L 232.891056 -202.61164 
L 232.095111 -204.126486 
L 231.299166 -205.759978 
L 230.503222 -207.414652 
L 229.707277 -209.138931 
L 228.911332 -211.091905 
L 228.115388 -213.418245 
L 227.319443 -216.09731 
L 226.523498 -218.857455 
L 225.727554 -221.213859 
L 224.931609 -222.621035 
L 224.135664 -222.674681 
L 223.33972 -221.279362 
L 222.543775 -218.717041 
L 221.74783 -215.593786 
L 220.951886 -212.688818 
L 220.155941 -210.75796 
L 219.359996 -210.344329 
L 218.564052 -211.637961 
L 217.768107 -214.416891 
L 216.972162 -218.091616 
L 216.176218 -221.852546 
L 215.380273 -224.884721 
L 214.584328 -226.579752 
L 213.788383 -226.666523 
L 212.992439 -225.214091 
L 212.196494 -222.522613 
L 211.400549 -218.97738 
L 210.604605 -214.951375 
L 209.80866 -210.789086 
L 209.012715 -206.836496 
L 208.216771 -203.455718 
L 207.420826 -200.98669 
L 206.624881 -199.668188 
L 205.828937 -199.567784 
L 205.032992 -200.559465 
L 204.237047 -202.340002 
L 203.441103 -204.454478 
L 202.645158 -206.334631 
L 201.849213 -207.384666 
L 201.053269 -207.121636 
L 200.257324 -205.317661 
L 199.461379 -202.070202 
L 198.665434 -197.769749 
L 197.86949 -192.997987 
L 197.073545 -188.41139 
L 196.2776 -184.632624 
L 195.481656 -182.141639 
L 194.685711 -181.176743 
L 193.889766 -181.690381 
L 193.093822 -183.392811 
L 192.297877 -185.859962 
L 191.501932 -188.643809 
L 190.705988 -191.345869 
L 189.910043 -193.662852 
L 189.114098 -195.424981 
L 188.318154 -196.612374 
L 187.522209 -197.312315 
L 186.726264 -197.619861 
L 185.93032 -197.551024 
L 185.134375 -197.042303 
L 184.33843 -196.030453 
L 183.542485 -194.533207 
L 182.746541 -192.661837 
L 181.950596 -190.565098 
L 181.154651 -188.365379 
L 180.358707 -186.150446 
L 179.562762 -184.020598 
L 178.766817 -182.124672 
L 177.970873 -180.625931 
L 177.174928 -179.613789 
L 176.378983 -179.037126 
L 175.583039 -178.714663 
L 174.787094 -178.405893 
L 173.991149 -177.88806 
L 173.195205 -177.009559 
L 172.39926 -175.728929 
L 171.603315 -174.148563 
L 170.807371 -172.516599 
L 170.011426 -171.157794 
L 169.215481 -170.344879 
L 168.419537 -170.183599 
L 167.623592 -170.573758 
L 166.827647 -171.238269 
L 166.031702 -171.777364 
L 165.235758 -171.744471 
L 164.439813 -170.78097 
L 163.643868 -168.797167 
L 162.847924 -166.086947 
L 162.051979 -163.255817 
L 161.256034 -160.964583 
L 160.46009 -159.633397 
L 159.664145 -159.280189 
L 158.8682 -159.556579 
L 158.072256 -159.917727 
L 157.276311 -159.833412 
L 156.480366 -158.975864 
L 155.684422 -157.330992 
L 154.888477 -155.186947 
L 154.092532 -153.000312 
L 153.296588 -151.208002 
L 152.500643 -150.079334 
L 151.704698 -149.664236 
L 150.908753 -149.838601 
L 150.112809 -150.421956 
L 149.316864 -151.324202 
L 148.520919 -152.643016 
L 147.724975 -154.630912 
L 146.92903 -157.525598 
L 146.133085 -161.334 
L 145.337141 -165.689112 
L 144.541196 -169.848681 
L 143.745251 -172.843561 
L 142.949307 -173.755406 
L 142.153362 -172.065103 
L 141.357417 -167.933346 
L 140.561473 -162.235883 
L 139.765528 -156.275825 
L 138.969583 -151.300804 
L 138.173639 -148.093849 
L 137.377694 -146.825714 
L 136.581749 -147.1438 
L 135.785805 -148.373509 
L 134.98986 -149.756754 
L 134.193915 -150.697928 
L 133.39797 -150.953425 
L 132.602026 -150.664843 
L 131.806081 -150.204789 
L 131.010136 -149.942285 
L 130.214192 -150.085567 
L 129.418247 -150.6568 
L 128.622302 -151.53363 
L 127.826358 -152.504243 
L 127.030413 -153.360493 
L 126.234468 -154.029342 
L 125.438524 -154.639677 
L 124.642579 -155.427668 
L 123.846634 -156.530751 
L 123.05069 -157.844132 
L 122.254745 -159.070144 
L 121.4588 -159.915184 
L 120.662856 -160.264781 
L 119.866911 -160.207223 
L 119.070966 -159.925432 
L 118.275021 -159.582561 
L 117.479077 -159.272765 
L 116.683132 -158.995396 
L 115.887187 -158.612697 
L 115.091243 -157.83433 
L 114.295298 -156.305185 
L 113.499353 -153.808655 
L 112.703409 -150.485254 
L 111.907464 -146.909286 
L 111.111519 -143.925176 
L 110.315575 -142.295171 
L 109.51963 -142.359962 
L 108.723685 -143.922118 
L 107.927741 -146.390042 
L 107.131796 -149.047766 
L 106.335851 -151.293117 
L 105.539907 -152.767441 
L 104.743962 -153.387341 
L 103.948017 -153.312248 
L 103.152073 -152.842689 
L 102.356128 -152.247731 
L 101.560183 -151.602545 
L 100.764238 -150.754988 
L 99.968294 -149.449816 
L 99.172349 -147.511464 
L 98.376404 -144.95848 
L 97.58046 -142.012156 
L 96.784515 -139.051991 
L 95.98857 -136.550349 
L 95.192626 -134.954392 
L 94.396681 -134.50831 
L 93.600736 -135.098781 
L 92.804792 -136.241323 
L 92.008847 -137.24434 
L 91.212902 -137.456507 
L 90.416958 -136.463167 
L 89.621013 -134.180794 
L 88.825068 -130.875253 
L 88.029124 -127.115093 
L 87.233179 -123.639755 
L 86.437234 -121.151027 
L 85.641289 -120.100392 
L 84.845345 -120.58009 
L 84.0494 -122.370589 
L 83.253455 -125.074643 
L 82.457511 -128.222605 
L 81.661566 -131.323975 
L 80.865621 -133.926493 
L 80.069677 -135.715303 
L 79.273732 -136.612002 
L 78.477787 -136.815366 
L 77.681843 -136.751998 
L 76.885898 -136.93592 
L 76.089953 -137.775706 
L 75.294009 -139.415497 
L 74.498064 -141.692771 
L 73.702119 -144.215313 
L 72.906175 -146.488884 
L 72.11023 -148.033477 
L 71.314285 -148.484082 
L 70.51834 -147.703878 
L 69.722396 -145.876068 
L 68.926451 -143.461871 
L 68.130506 -140.972943 
L 67.334562 -138.683468 
L 66.538617 -136.49383 
L 65.742672 -134.034556 
L 64.946728 -130.918524 
L 64.150783 -126.992615 
L 63.354838 -122.489682 
L 62.558894 -118.052062 
L 61.762949 -114.623616 
L 60.967004 -113.190974 
L 60.17106 -114.41266 
L 59.375115 -118.308175 
L 58.57917 -124.18132 
L 57.783226 -130.799571 
L 56.987281 -136.734526 
L 56.191336 -140.747662 
L 55.395392 -142.124268 
L 54.599447 -140.871989 
L 53.803502 -137.70335 
L 53.007557 -133.772495 
L 52.211613 -130.267592 
L 51.415668 -128.052938 
L 50.619723 -127.492152 
L 49.823779 -128.454714 
L 49.027834 -130.441658 
L 48.231889 -132.767724 
L 47.435945 -134.76646 
L 46.64 -135.990352 
z
" style="stroke: #e41a1c; stroke-opacity: 0.3"/>
    </defs>
    <g clip-path="url(#p6f2376a45d)">
     <use xlink:href="#m75293c2415" x="0" y="360" style="fill: #e41a1c; fill-opacity: 0.3; stroke: #e41a1c; stroke-opacity: 0.3"/>
    </g>
   </g>
   <g id="PolyCollection_2">
    <defs>
     <path id="m33dfdd6005" d="M 46.64 -121.456411 
L 46.64 -99.10437 
L 47.435945 -100.567461 
L 48.231889 -101.863076 
L 49.027834 -102.828659 
L 49.823779 -103.366775 
L 50.619723 -103.474937 
L 51.415668 -103.248107 
L 52.211613 -102.862485 
L 53.007557 -102.55714 
L 53.803502 -102.612109 
L 54.599447 -103.301486 
L 55.395392 -104.806023 
L 56.191336 -107.108797 
L 56.987281 -109.934061 
L 57.783226 -112.78257 
L 58.57917 -115.069431 
L 59.375115 -116.310965 
L 60.17106 -116.274401 
L 60.967004 -115.032443 
L 61.762949 -112.923223 
L 62.558894 -110.445346 
L 63.354838 -108.12012 
L 64.150783 -106.356446 
L 64.946728 -105.357666 
L 65.742672 -105.097105 
L 66.538617 -105.358588 
L 67.334562 -105.814211 
L 68.130506 -106.11309 
L 68.926451 -105.968735 
L 69.722396 -105.237679 
L 70.51834 -103.969766 
L 71.314285 -102.394491 
L 72.11023 -100.831371 
L 72.906175 -99.572995 
L 73.702119 -98.807901 
L 74.498064 -98.603848 
L 75.294009 -98.922393 
L 76.089953 -99.631634 
L 76.885898 -100.517882 
L 77.681843 -101.319155 
L 78.477787 -101.786163 
L 79.273732 -101.747611 
L 80.069677 -101.154254 
L 80.865621 -100.096138 
L 81.661566 -98.797034 
L 82.457511 -97.579685 
L 83.253455 -96.789783 
L 84.0494 -96.68802 
L 84.845345 -97.353293 
L 85.641289 -98.647211 
L 86.437234 -100.258483 
L 87.233179 -101.804113 
L 88.029124 -102.945011 
L 88.825068 -103.48096 
L 89.621013 -103.40332 
L 90.416958 -102.890022 
L 91.212902 -102.236197 
L 92.008847 -101.737973 
L 92.804792 -101.576173 
L 93.600736 -101.754046 
L 94.396681 -102.116833 
L 95.192626 -102.436691 
L 95.98857 -102.514937 
L 96.784515 -102.255547 
L 97.58046 -101.690645 
L 98.376404 -100.961671 
L 99.172349 -100.267377 
L 99.968294 -99.79453 
L 100.764238 -99.656835 
L 101.560183 -99.869622 
L 102.356128 -100.369841 
L 103.152073 -101.063708 
L 103.948017 -101.871217 
L 104.743962 -102.746122 
L 105.539907 -103.668422 
L 106.335851 -104.618621 
L 107.131796 -105.547377 
L 107.927741 -106.355978 
L 108.723685 -106.902056 
L 109.51963 -107.035775 
L 110.315575 -106.656152 
L 111.111519 -105.764917 
L 111.907464 -104.494838 
L 112.703409 -103.099078 
L 113.499353 -101.900476 
L 114.295298 -101.210772 
L 115.091243 -101.239995 
L 115.887187 -102.023349 
L 116.683132 -103.390854 
L 117.479077 -104.992365 
L 118.275021 -106.37492 
L 119.070966 -107.09701 
L 119.866911 -106.853714 
L 120.662856 -105.575622 
L 121.4588 -103.461755 
L 122.254745 -100.926642 
L 123.05069 -98.480866 
L 123.846634 -96.594581 
L 124.642579 -95.591445 
L 125.438524 -95.593895 
L 126.234468 -96.515941 
L 127.030413 -98.093747 
L 127.826358 -99.949237 
L 128.622302 -101.678942 
L 129.418247 -102.945662 
L 130.214192 -103.540767 
L 131.010136 -103.398134 
L 131.806081 -102.571648 
L 132.602026 -101.207024 
L 133.39797 -99.526841 
L 134.193915 -97.820559 
L 134.98986 -96.416403 
L 135.785805 -95.620805 
L 136.581749 -95.634035 
L 137.377694 -96.470984 
L 138.173639 -97.923473 
L 138.969583 -99.591277 
L 139.765528 -100.98505 
L 140.561473 -101.67503 
L 141.357417 -101.439436 
L 142.153362 -100.363488 
L 142.949307 -98.850581 
L 143.745251 -97.526986 
L 144.541196 -97.052252 
L 145.337141 -97.887681 
L 146.133085 -100.106873 
L 146.92903 -103.329157 
L 147.724975 -106.810575 
L 148.520919 -109.663136 
L 149.316864 -111.127842 
L 150.112809 -110.81469 
L 150.908753 -108.834816 
L 151.704698 -105.779456 
L 152.500643 -102.545452 
L 153.296588 -100.058589 
L 154.092532 -98.985143 
L 154.888477 -99.530152 
L 155.684422 -101.391772 
L 156.480366 -103.885895 
L 157.276311 -106.194103 
L 158.072256 -107.641217 
L 158.8682 -107.896424 
L 159.664145 -107.027867 
L 160.46009 -105.410418 
L 161.256034 -103.547834 
L 162.051979 -101.88974 
L 162.847924 -100.703316 
L 163.643868 -100.027354 
L 164.439813 -99.712935 
L 165.235758 -99.533686 
L 166.031702 -99.319129 
L 166.827647 -99.044706 
L 167.623592 -98.831605 
L 168.419537 -98.864972 
L 169.215481 -99.286521 
L 170.011426 -100.120158 
L 170.807371 -101.256413 
L 171.603315 -102.489156 
L 172.39926 -103.585849 
L 173.195205 -104.369698 
L 173.991149 -104.784737 
L 174.787094 -104.910793 
L 175.583039 -104.911073 
L 176.378983 -104.93143 
L 177.174928 -105.003264 
L 177.970873 -105.004228 
L 178.766817 -104.699583 
L 179.562762 -103.844507 
L 180.358707 -102.299098 
L 181.154651 -100.105452 
L 181.950596 -97.496452 
L 182.746541 -94.836125 
L 183.542485 -92.517494 
L 184.33843 -90.855484 
L 185.134375 -90.008428 
L 185.93032 -89.949365 
L 186.726264 -90.493537 
L 187.522209 -91.370607 
L 188.318154 -92.312262 
L 189.114098 -93.119481 
L 189.910043 -93.68627 
L 190.705988 -93.981136 
L 191.501932 -94.007885 
L 192.297877 -93.772396 
L 193.093822 -93.272961 
L 193.889766 -92.517376 
L 194.685711 -91.556126 
L 195.481656 -90.510351 
L 196.2776 -89.570234 
L 197.073545 -88.95048 
L 197.86949 -88.81304 
L 198.665434 -89.189902 
L 199.461379 -89.945025 
L 200.257324 -90.800016 
L 201.053269 -91.420845 
L 201.849213 -91.536226 
L 202.645158 -91.042717 
L 203.441103 -90.052822 
L 204.237047 -88.862231 
L 205.032992 -87.844897 
L 205.828937 -87.31517 
L 206.624881 -87.409558 
L 207.420826 -88.032576 
L 208.216771 -88.887894 
L 209.012715 -89.586363 
L 209.80866 -89.793263 
L 210.604605 -89.358045 
L 211.400549 -88.373202 
L 212.196494 -87.139116 
L 212.992439 -86.054127 
L 213.788383 -85.478571 
L 214.584328 -85.624383 
L 215.380273 -86.505 
L 216.176218 -87.956731 
L 216.972162 -89.718635 
L 217.768107 -91.535775 
L 218.564052 -93.240029 
L 219.359996 -94.774371 
L 220.155941 -96.157564 
L 220.951886 -97.416179 
L 221.74783 -98.521745 
L 222.543775 -99.361622 
L 223.33972 -99.754904 
L 224.135664 -99.509018 
L 224.931609 -98.499559 
L 225.727554 -96.745324 
L 226.523498 -94.448143 
L 227.319443 -91.976993 
L 228.115388 -89.793811 
L 228.911332 -88.337483 
L 229.707277 -87.898986 
L 230.503222 -88.529661 
L 231.299166 -90.017773 
L 232.095111 -91.942993 
L 232.891056 -93.786933 
L 233.687001 -95.060616 
L 234.482945 -95.415499 
L 235.27889 -94.71999 
L 236.074835 -93.089846 
L 236.870779 -90.858483 
L 237.666724 -88.481509 
L 238.462669 -86.397061 
L 239.258613 -84.890256 
L 240.054558 -84.010787 
L 240.850503 -83.568074 
L 241.646447 -83.199255 
L 242.442392 -82.487098 
L 243.238337 -81.096228 
L 244.034281 -78.890016 
L 244.830226 -75.990443 
L 245.626171 -72.758795 
L 246.422115 -69.703851 
L 247.21806 -67.348383 
L 248.014005 -66.090641 
L 248.80995 -66.090612 
L 249.605894 -67.206328 
L 250.401839 -69.00459 
L 251.197784 -70.857763 
L 251.993728 -72.10696 
L 252.789673 -72.238878 
L 253.585618 -71.014822 
L 254.381562 -68.515222 
L 255.177507 -65.101855 
L 255.973452 -61.323937 
L 256.769396 -57.79521 
L 257.565341 -55.062238 
L 258.361286 -53.484722 
L 259.15723 -53.155818 
L 259.953175 -53.889525 
L 260.74912 -55.283598 
L 261.545064 -56.83849 
L 262.341009 -58.093908 
L 263.136954 -58.745061 
L 263.932898 -58.713684 
L 264.728843 -58.161054 
L 265.524788 -57.438711 
L 266.320733 -56.984017 
L 267.116677 -57.185445 
L 267.912622 -58.258957 
L 268.708567 -60.179298 
L 269.504511 -62.691828 
L 270.300456 -65.397786 
L 271.096401 -67.874546 
L 271.892345 -69.781406 
L 272.68829 -70.918251 
L 273.484235 -71.23487 
L 274.280179 -70.809286 
L 275.076124 -69.814057 
L 275.872069 -68.478377 
L 276.668013 -67.046716 
L 277.463958 -65.740042 
L 278.259903 -64.733446 
L 279.055847 -64.157921 
L 279.851792 -64.115155 
L 280.647737 -64.680862 
L 281.443682 -65.880392 
L 282.239626 -67.647007 
L 283.035571 -69.794873 
L 283.831516 -72.034356 
L 284.62746 -74.031088 
L 285.423405 -75.486286 
L 286.21935 -76.210557 
L 287.015294 -76.171904 
L 287.811239 -75.507543 
L 288.607184 -74.494351 
L 289.403128 -73.480038 
L 290.199073 -72.790067 
L 290.995018 -72.638773 
L 291.790962 -73.076392 
L 292.586907 -73.990429 
L 293.382852 -75.155378 
L 294.178796 -76.304591 
L 294.974741 -77.195363 
L 295.770686 -77.652455 
L 296.56663 -77.591761 
L 297.362575 -77.031264 
L 298.15852 -76.089764 
L 298.954465 -74.966987 
L 299.750409 -73.903988 
L 300.546354 -73.136523 
L 301.342299 -72.858223 
L 302.138243 -73.197685 
L 302.934188 -74.198854 
L 303.730133 -75.796706 
L 304.526077 -77.799859 
L 305.322022 -79.905457 
L 306.117967 -81.760314 
L 306.913911 -83.052292 
L 307.709856 -83.592946 
L 308.505801 -83.357272 
L 309.301745 -82.472852 
L 310.09769 -81.173125 
L 310.893635 -79.734034 
L 311.689579 -78.409166 
L 312.485524 -77.377275 
L 313.281469 -76.716209 
L 314.077414 -76.409754 
L 314.873358 -76.378699 
L 315.669303 -76.516929 
L 316.465248 -76.717474 
L 317.261192 -76.886232 
L 318.057137 -76.948667 
L 318.853082 -76.852795 
L 319.649026 -76.569103 
L 320.444971 -76.091599 
L 321.240916 -75.446741 
L 322.03686 -74.708243 
L 322.832805 -74.001502 
L 323.62875 -73.479309 
L 324.424694 -73.26832 
L 325.220639 -73.409651 
L 326.016584 -73.825122 
L 326.812528 -74.327062 
L 327.608473 -74.669249 
L 328.404418 -74.624614 
L 329.200363 -74.069765 
L 329.996307 -73.04979 
L 330.792252 -71.793099 
L 331.588197 -70.657254 
L 332.384141 -70.015935 
L 333.180086 -70.129759 
L 333.976031 -71.055796 
L 334.771975 -72.631326 
L 335.56792 -74.531218 
L 336.363865 -76.37113 
L 337.159809 -77.821475 
L 337.955754 -78.700302 
L 338.751699 -79.017443 
L 339.547643 -78.951949 
L 340.343588 -78.76762 
L 341.139533 -78.700983 
L 341.935477 -78.87261 
L 342.731422 -79.260023 
L 343.527367 -79.735322 
L 344.323311 -80.139526 
L 345.119256 -80.358031 
L 345.915201 -80.372133 
L 346.711146 -80.273092 
L 347.50709 -80.232456 
L 348.303035 -80.434246 
L 349.09898 -80.993679 
L 349.894924 -81.899549 
L 350.690869 -83.007498 
L 351.486814 -84.084526 
L 352.282758 -84.882426 
L 353.078703 -85.212676 
L 353.874648 -85.001855 
L 354.670592 -84.313312 
L 355.466537 -83.326259 
L 356.262482 -82.275189 
L 357.058426 -81.371727 
L 357.854371 -80.744 
L 358.650316 -80.421028 
L 359.44626 -80.364357 
L 360.242205 -80.52352 
L 361.03815 -80.882256 
L 361.834095 -81.471353 
L 362.630039 -82.34296 
L 363.425984 -83.519565 
L 364.221929 -84.941444 
L 365.017873 -86.436719 
L 365.813818 -87.730636 
L 366.609763 -88.499723 
L 367.405707 -88.463615 
L 368.201652 -87.491415 
L 368.997597 -85.682569 
L 369.793541 -83.37701 
L 370.589486 -81.072451 
L 371.385431 -79.274218 
L 372.181375 -78.340717 
L 372.97732 -78.386126 
L 373.773265 -79.267544 
L 374.569209 -80.645969 
L 375.365154 -82.091789 
L 376.161099 -83.204995 
L 376.957043 -83.721817 
L 377.752988 -83.576468 
L 378.548933 -82.891765 
L 379.344878 -81.900253 
L 380.140822 -80.836871 
L 380.936767 -79.860799 
L 381.732712 -79.040638 
L 382.528656 -78.394502 
L 383.324601 -77.947518 
L 384.120546 -77.766848 
L 384.91649 -77.951463 
L 385.712435 -78.578468 
L 386.50838 -79.632062 
L 387.304324 -80.956476 
L 388.100269 -82.269406 
L 388.896214 -83.24507 
L 389.692158 -83.640086 
L 390.488103 -83.412011 
L 391.284048 -82.779455 
L 392.079992 -82.190131 
L 392.875937 -82.192462 
L 393.671882 -83.242763 
L 394.467827 -85.513441 
L 395.263771 -88.780959 
L 396.059716 -92.451349 
L 396.855661 -95.728556 
L 397.651605 -97.87027 
L 398.44755 -98.437575 
L 399.243495 -97.446755 
L 400.039439 -95.370103 
L 400.835384 -92.987496 
L 401.631329 -91.13864 
L 402.427273 -90.454725 
L 403.223218 -91.157513 
L 404.019163 -92.999697 
L 404.815107 -95.373842 
L 405.611052 -97.54726 
L 406.406997 -98.923098 
L 407.202941 -99.221872 
L 407.998886 -98.52631 
L 408.794831 -97.19784 
L 409.590775 -95.713345 
L 410.38672 -94.480482 
L 411.182665 -93.691317 
L 411.97861 -93.273144 
L 412.774554 -92.968092 
L 413.570499 -92.506611 
L 413.570499 -145.124859 
L 413.570499 -145.124859 
L 412.774554 -145.302704 
L 411.97861 -145.514747 
L 411.182665 -145.982193 
L 410.38672 -146.859139 
L 409.590775 -148.147038 
L 408.794831 -149.636803 
L 407.998886 -150.924817 
L 407.202941 -151.532869 
L 406.406997 -151.100906 
L 405.611052 -149.56508 
L 404.815107 -147.231802 
L 404.019163 -144.710565 
L 403.223218 -142.730676 
L 402.427273 -141.903966 
L 401.631329 -142.507111 
L 400.835384 -144.356925 
L 400.039439 -146.83509 
L 399.243495 -149.072185 
L 398.44755 -150.233944 
L 397.651605 -149.801997 
L 396.855661 -147.740416 
L 396.059716 -144.489371 
L 395.263771 -140.798778 
L 394.467827 -137.47234 
L 393.671882 -135.115399 
L 392.875937 -133.968613 
L 392.079992 -133.874717 
L 391.284048 -134.379934 
L 390.488103 -134.926099 
L 389.692158 -135.057375 
L 388.896214 -134.561877 
L 388.100269 -133.500592 
L 387.304324 -132.129593 
L 386.50838 -130.766671 
L 385.712435 -129.667048 
L 384.91649 -128.954522 
L 384.120546 -128.621361 
L 383.324601 -128.580175 
L 382.528656 -128.732764 
L 381.732712 -129.018774 
L 380.936767 -129.422169 
L 380.140822 -129.939539 
L 379.344878 -130.535648 
L 378.548933 -131.115244 
L 377.752988 -131.527403 
L 376.957043 -131.603449 
L 376.161099 -131.220811 
L 375.365154 -130.375812 
L 374.569209 -129.232543 
L 373.773265 -128.109376 
L 372.97732 -127.389959 
L 372.181375 -127.39068 
L 371.385431 -128.245593 
L 370.589486 -129.859492 
L 369.793541 -131.940294 
L 368.997597 -134.085355 
L 368.201652 -135.885322 
L 367.405707 -137.019536 
L 366.609763 -137.327085 
L 365.813818 -136.836933 
L 365.017873 -135.742886 
L 364.221929 -134.328717 
L 363.425984 -132.874362 
L 362.630039 -131.583438 
L 361.834095 -130.557938 
L 361.03815 -129.819149 
L 360.242205 -129.352124 
L 359.44626 -129.145334 
L 358.650316 -129.206893 
L 357.854371 -129.554767 
L 357.058426 -130.19048 
L 356.262482 -131.070164 
L 355.466537 -132.085714 
L 354.670592 -133.065838 
L 353.874648 -133.8034 
L 353.078703 -134.108854 
L 352.282758 -133.875784 
L 351.486814 -133.129572 
L 350.690869 -132.030085 
L 349.894924 -130.820786 
L 349.09898 -129.745451 
L 348.303035 -128.968599 
L 347.50709 -128.529341 
L 346.711146 -128.341571 
L 345.915201 -128.238585 
L 345.119256 -128.048621 
L 344.323311 -127.674693 
L 343.527367 -127.142326 
L 342.731422 -126.586696 
L 341.935477 -126.18071 
L 341.139533 -126.039603 
L 340.343588 -126.149526 
L 339.547643 -126.350986 
L 338.751699 -126.381219 
L 337.955754 -125.960934 
L 337.159809 -124.90072 
L 336.363865 -123.19328 
L 335.56792 -121.05238 
L 334.771975 -118.870871 
L 333.976031 -117.103278 
L 333.180086 -116.116922 
L 332.384141 -116.073085 
L 331.588197 -116.883041 
L 330.792252 -118.2469 
L 329.996307 -119.752797 
L 329.200363 -121.001819 
L 328.404418 -121.722882 
L 327.608473 -121.843681 
L 326.812528 -121.492855 
L 326.016584 -120.931851 
L 325.220639 -120.446162 
L 324.424694 -120.244528 
L 323.62875 -120.405655 
L 322.832805 -120.882102 
L 322.03686 -121.543389 
L 321.240916 -122.232024 
L 320.444971 -122.813064 
L 319.649026 -123.206039 
L 318.853082 -123.392357 
L 318.057137 -123.398657 
L 317.261192 -123.269638 
L 316.465248 -123.051549 
L 315.669303 -122.797909 
L 314.873358 -122.587625 
L 314.077414 -122.532603 
L 313.281469 -122.759112 
L 312.485524 -123.366086 
L 311.689579 -124.377472 
L 310.893635 -125.708009 
L 310.09769 -127.157782 
L 309.301745 -128.445019 
L 308.505801 -129.275097 
L 307.709856 -129.42526 
L 306.913911 -128.810784 
L 306.117967 -127.504882 
L 305.322022 -125.710417 
L 304.526077 -123.705701 
L 303.730133 -121.788716 
L 302.934188 -120.228088 
L 302.138243 -119.218646 
L 301.342299 -118.845944 
L 300.546354 -119.074292 
L 299.750409 -119.767834 
L 298.954465 -120.73431 
L 298.15852 -121.767172 
L 297.362575 -122.669653 
L 296.56663 -123.266501 
L 295.770686 -123.422226 
L 294.974741 -123.074912 
L 294.178796 -122.271486 
L 293.382852 -121.178281 
L 292.586907 -120.051045 
L 291.790962 -119.170247 
L 290.995018 -118.763075 
L 290.199073 -118.935959 
L 289.403128 -119.635377 
L 288.607184 -120.647308 
L 287.811239 -121.63946 
L 287.015294 -122.242346 
L 286.21935 -122.151985 
L 285.423405 -121.222325 
L 284.62746 -119.511717 
L 283.831516 -117.263383 
L 283.035571 -114.829431 
L 282.239626 -112.573065 
L 281.443682 -110.787194 
L 280.647737 -109.649402 
L 279.851792 -109.211775 
L 279.055847 -109.416227 
L 278.259903 -110.128228 
L 277.463958 -111.180091 
L 276.668013 -112.406579 
L 275.872069 -113.654219 
L 275.076124 -114.761907 
L 274.280179 -115.535676 
L 273.484235 -115.753219 
L 272.68829 -115.217207 
L 271.892345 -113.838581 
L 271.096401 -111.703289 
L 270.300456 -109.081137 
L 269.504511 -106.366911 
L 268.708567 -103.977753 
L 267.912622 -102.245895 
L 267.116677 -101.338319 
L 266.320733 -101.219129 
L 265.524788 -101.660139 
L 264.728843 -102.29917 
L 263.932898 -102.737306 
L 263.136954 -102.654544 
L 262.341009 -101.911988 
L 261.545064 -100.605794 
L 260.74912 -99.05107 
L 259.953175 -97.70013 
L 259.15723 -97.023389 
L 258.361286 -97.388245 
L 257.565341 -98.962846 
L 256.769396 -101.660539 
L 255.973452 -105.136568 
L 255.177507 -108.846781 
L 254.381562 -112.166705 
L 253.585618 -114.545382 
L 252.789673 -115.646768 
L 251.993728 -115.432208 
L 251.197784 -114.162664 
L 250.401839 -112.330609 
L 249.605894 -110.546831 
L 248.80995 -109.404647 
L 248.014005 -109.341528 
L 247.21806 -110.527561 
L 246.422115 -112.819359 
L 245.626171 -115.806624 
L 244.830226 -118.942846 
L 244.034281 -121.713114 
L 243.238337 -123.778672 
L 242.442392 -125.055168 
L 241.646447 -125.710634 
L 240.850503 -126.091689 
L 240.054558 -126.601149 
L 239.258613 -127.563365 
L 238.462669 -129.120519 
L 237.666724 -131.191606 
L 236.870779 -133.498653 
L 236.074835 -135.642057 
L 235.27889 -137.202317 
L 234.482945 -137.850483 
L 233.687001 -137.447246 
L 232.891056 -136.100704 
L 232.095111 -134.154717 
L 231.299166 -132.104553 
L 230.503222 -130.468853 
L 229.707277 -129.662002 
L 228.911332 -129.90142 
L 228.115388 -131.165631 
L 227.319443 -133.207009 
L 226.523498 -135.616728 
L 225.727554 -137.929271 
L 224.931609 -139.739458 
L 224.135664 -140.796144 
L 223.33972 -141.042426 
L 222.543775 -140.591091 
L 221.74783 -139.648123 
L 220.951886 -138.417565 
L 220.155941 -137.029398 
L 219.359996 -135.521134 
L 218.564052 -133.875929 
L 217.768107 -132.090852 
L 216.972162 -130.236994 
L 216.176218 -128.482099 
L 215.380273 -127.064375 
L 214.584328 -126.222867 
L 213.788383 -126.106039 
L 212.992439 -126.695038 
L 212.196494 -127.78072 
L 211.400549 -129.014252 
L 210.604605 -130.017097 
L 209.80866 -130.508164 
L 209.012715 -130.399648 
L 208.216771 -129.827123 
L 207.420826 -129.102104 
L 206.624881 -128.599466 
L 205.828937 -128.616094 
L 205.032992 -129.253771 
L 204.237047 -130.375506 
L 203.441103 -131.655585 
L 202.645158 -132.702876 
L 201.849213 -133.206414 
L 201.053269 -133.046281 
L 200.257324 -132.329998 
L 199.461379 -131.345075 
L 198.665434 -130.450015 
L 197.86949 -129.948132 
L 197.073545 -129.992467 
L 196.2776 -130.553984 
L 195.481656 -131.456991 
L 194.685711 -132.45958 
L 193.889766 -133.342572 
L 193.093822 -133.970803 
L 192.297877 -134.305155 
L 191.501932 -134.368318 
L 190.705988 -134.191212 
L 189.910043 -133.776684 
L 189.114098 -133.104785 
L 188.318154 -132.176382 
L 187.522209 -131.067744 
L 186.726264 -129.962274 
L 185.93032 -129.135955 
L 185.134375 -128.892041 
L 184.33843 -129.462269 
L 183.542485 -130.911302 
L 182.746541 -133.088486 
L 181.950596 -135.656374 
L 181.154651 -138.191297 
L 180.358707 -140.316115 
L 179.562762 -141.810151 
L 178.766817 -142.653856 
L 177.970873 -142.996924 
L 177.174928 -143.071005 
L 176.378983 -143.08677 
L 175.583039 -143.15469 
L 174.787094 -143.254464 
L 173.991149 -143.258741 
L 173.195205 -143.000502 
L 172.39926 -142.361126 
L 171.603315 -141.34487 
L 170.807371 -140.101556 
L 170.011426 -138.877061 
L 169.215481 -137.910559 
L 168.419537 -137.333833 
L 167.623592 -137.130129 
L 166.827647 -137.171882 
L 166.031702 -137.308354 
L 165.235758 -137.453715 
L 164.439813 -137.638593 
L 163.643868 -138.007838 
L 162.847924 -138.757825 
L 162.051979 -140.022393 
L 161.256034 -141.749556 
L 160.46009 -143.63836 
L 159.664145 -145.190762 
L 158.8682 -145.874689 
L 158.072256 -145.332558 
L 157.276311 -143.547061 
L 156.480366 -140.897992 
L 155.684422 -138.086257 
L 154.888477 -135.942162 
L 154.092532 -135.169184 
L 153.296588 -136.101259 
L 152.500643 -138.559967 
L 151.704698 -141.873647 
L 150.908753 -145.065741 
L 150.112809 -147.156511 
L 149.316864 -147.47717 
L 148.520919 -145.885567 
L 147.724975 -142.80394 
L 146.92903 -139.064826 
L 146.133085 -135.626297 
L 145.337141 -133.266463 
L 144.541196 -132.364275 
L 143.745251 -132.827348 
L 142.949307 -134.170607 
L 142.153362 -135.706605 
L 141.357417 -136.781436 
L 140.561473 -136.978215 
L 139.765528 -136.221635 
L 138.969583 -134.756666 
L 138.173639 -133.026146 
L 137.377694 -131.50773 
L 136.581749 -130.572977 
L 135.785805 -130.406535 
L 134.98986 -130.99192 
L 134.193915 -132.147881 
L 133.39797 -133.590537 
L 132.602026 -135.000216 
L 131.806081 -136.081592 
L 131.010136 -136.612435 
L 130.214192 -136.476708 
L 129.418247 -135.67692 
L 128.622302 -134.325671 
L 127.826358 -132.626275 
L 127.030413 -130.853881 
L 126.234468 -129.332888 
L 125.438524 -128.391782 
L 124.642579 -128.286918 
L 123.846634 -129.116749 
L 123.05069 -130.768277 
L 122.254745 -132.92791 
L 121.4588 -135.155969 
L 120.662856 -136.994789 
L 119.866911 -138.07512 
L 119.070966 -138.199184 
L 118.275021 -137.389573 
L 117.479077 -135.891474 
L 116.683132 -134.116517 
L 115.887187 -132.534558 
L 115.091243 -131.54453 
L 114.295298 -131.367222 
L 113.499353 -131.99445 
L 112.703409 -133.207659 
L 111.907464 -134.655825 
L 111.111519 -135.964993 
L 110.315575 -136.842862 
L 109.51963 -137.144827 
L 108.723685 -136.883684 
L 107.927741 -136.188102 
L 107.131796 -135.233191 
L 106.335851 -134.172234 
L 105.539907 -133.093711 
L 104.743962 -132.017239 
L 103.948017 -130.926494 
L 103.152073 -129.818897 
L 102.356128 -128.742069 
L 101.560183 -127.795443 
L 100.764238 -127.096949 
L 99.968294 -126.733336 
L 99.172349 -126.717 
L 98.376404 -126.966289 
L 97.58046 -127.319606 
L 96.784515 -127.586089 
L 95.98857 -127.619388 
L 95.192626 -127.380537 
L 94.396681 -126.952924 
L 93.600736 -126.498292 
L 92.804792 -126.178077 
L 92.008847 -126.07867 
L 91.212902 -126.167521 
L 90.416958 -126.289814 
L 89.621013 -126.206635 
L 88.825068 -125.670623 
L 88.029124 -124.523359 
L 87.233179 -122.779461 
L 86.437234 -120.653521 
L 85.641289 -118.506965 
L 84.845345 -116.734425 
L 84.0494 -115.641062 
L 83.253455 -115.359159 
L 82.457511 -115.822456 
L 81.661566 -116.791781 
L 80.865621 -117.921064 
L 80.069677 -118.853411 
L 79.273732 -119.323399 
L 78.477787 -119.225909 
L 77.681843 -118.623076 
L 76.885898 -117.698162 
L 76.089953 -116.693219 
L 75.294009 -115.858581 
L 74.498064 -115.411812 
L 73.702119 -115.493655 
L 72.906175 -116.129513 
L 72.11023 -117.222262 
L 71.314285 -118.584588 
L 70.51834 -119.987154 
L 69.722396 -121.195711 
L 68.926451 -122.002365 
L 68.130506 -122.281022 
L 67.334562 -122.065262 
L 66.538617 -121.592014 
L 65.742672 -121.256921 
L 64.946728 -121.483062 
L 64.150783 -122.557224 
L 63.354838 -124.505332 
L 62.558894 -127.056854 
L 61.762949 -129.708999 
L 60.967004 -131.869998 
L 60.17106 -133.037572 
L 59.375115 -132.950991 
L 58.57917 -131.657543 
L 57.783226 -129.471246 
L 56.987281 -126.858606 
L 56.191336 -124.313261 
L 55.395392 -122.25489 
L 54.599447 -120.955721 
L 53.803502 -120.495704 
L 53.007557 -120.757186 
L 52.211613 -121.47187 
L 51.415668 -122.315104 
L 50.619723 -123.00976 
L 49.823779 -123.389231 
L 49.027834 -123.396682 
L 48.231889 -123.04292 
L 47.435945 -122.370881 
L 46.64 -121.456411 
z
" style="stroke: #377eb8; stroke-opacity: 0.3"/>
    </defs>
    <g clip-path="url(#p6f2376a45d)">
     <use xlink:href="#m33dfdd6005" x="0" y="360" style="fill: #377eb8; fill-opacity: 0.3; stroke: #377eb8; stroke-opacity: 0.3"/>
    </g>
   </g>
   <g id="patch_3">
    <path d="M 229.866466 318.04 
L 229.866466 71.732 
L 331.747385 71.732 
L 331.747385 318.04 
z
" clip-path="url(#p6f2376a45d)" style="fill: #808080; opacity: 0.3"/>
   </g>
   <g id="matplotlib.axis_1">
    <g id="xtick_1">
     <g id="line2d_1">
      <defs>
       <path id="meac82e383a" d="M 0 0 
L 0 3.5 
" style="stroke: #000000; stroke-width: 0.8"/>
      </defs>
      <g>
       <use xlink:href="#meac82e383a" x="87.233179" y="318.04" style="stroke: #000000; stroke-width: 0.8"/>
      </g>
     </g>
     <g id="text_1">
      <!-- 0.0 -->
      <g transform="translate(79.281616 332.638438)scale(0.1 -0.1)">
       <defs>
        <path id="DejaVuSans-30" d="M 2034 4250 
Q 1547 4250 1301 3770 
Q 1056 3291 1056 2328 
Q 1056 1369 1301 889 
Q 1547 409 2034 409 
Q 2525 409 2770 889 
Q 3016 1369 3016 2328 
Q 3016 3291 2770 3770 
Q 2525 4250 2034 4250 
z
M 2034 4750 
Q 2819 4750 3233 4129 
Q 3647 3509 3647 2328 
Q 3647 1150 3233 529 
Q 2819 -91 2034 -91 
Q 1250 -91 836 529 
Q 422 1150 422 2328 
Q 422 3509 836 4129 
Q 1250 4750 2034 4750 
z
" transform="scale(0.015625)"/>
        <path id="DejaVuSans-2e" d="M 684 794 
L 1344 794 
L 1344 0 
L 684 0 
L 684 794 
z
" transform="scale(0.015625)"/>
       </defs>
       <use xlink:href="#DejaVuSans-30"/>
       <use xlink:href="#DejaVuSans-2e" x="63.623047"/>
       <use xlink:href="#DejaVuSans-30" x="95.410156"/>
      </g>
     </g>
    </g>
    <g id="xtick_2">
     <g id="line2d_2">
      <g>
       <use xlink:href="#meac82e383a" x="168.737914" y="318.04" style="stroke: #000000; stroke-width: 0.8"/>
      </g>
     </g>
     <g id="text_2">
      <!-- 0.2 -->
      <g transform="translate(160.786352 332.638438)scale(0.1 -0.1)">
       <defs>
        <path id="DejaVuSans-32" d="M 1228 531 
L 3431 531 
L 3431 0 
L 469 0 
L 469 531 
Q 828 903 1448 1529 
Q 2069 2156 2228 2338 
Q 2531 2678 2651 2914 
Q 2772 3150 2772 3378 
Q 2772 3750 2511 3984 
Q 2250 4219 1831 4219 
Q 1534 4219 1204 4116 
Q 875 4013 500 3803 
L 500 4441 
Q 881 4594 1212 4672 
Q 1544 4750 1819 4750 
Q 2544 4750 2975 4387 
Q 3406 4025 3406 3419 
Q 3406 3131 3298 2873 
Q 3191 2616 2906 2266 
Q 2828 2175 2409 1742 
Q 1991 1309 1228 531 
z
" transform="scale(0.015625)"/>
       </defs>
       <use xlink:href="#DejaVuSans-30"/>
       <use xlink:href="#DejaVuSans-2e" x="63.623047"/>
       <use xlink:href="#DejaVuSans-32" x="95.410156"/>
      </g>
     </g>
    </g>
    <g id="xtick_3">
     <g id="line2d_3">
      <g>
       <use xlink:href="#meac82e383a" x="250.24265" y="318.04" style="stroke: #000000; stroke-width: 0.8"/>
      </g>
     </g>
     <g id="text_3">
      <!-- 0.4 -->
      <g transform="translate(242.291087 332.638438)scale(0.1 -0.1)">
       <defs>
        <path id="DejaVuSans-34" d="M 2419 4116 
L 825 1625 
L 2419 1625 
L 2419 4116 
z
M 2253 4666 
L 3047 4666 
L 3047 1625 
L 3713 1625 
L 3713 1100 
L 3047 1100 
L 3047 0 
L 2419 0 
L 2419 1100 
L 313 1100 
L 313 1709 
L 2253 4666 
z
" transform="scale(0.015625)"/>
       </defs>
       <use xlink:href="#DejaVuSans-30"/>
       <use xlink:href="#DejaVuSans-2e" x="63.623047"/>
       <use xlink:href="#DejaVuSans-34" x="95.410156"/>
      </g>
     </g>
    </g>
    <g id="xtick_4">
     <g id="line2d_4">
      <g>
       <use xlink:href="#meac82e383a" x="331.747385" y="318.04" style="stroke: #000000; stroke-width: 0.8"/>
      </g>
     </g>
     <g id="text_4">
      <!-- 0.6 -->
      <g transform="translate(323.795823 332.638438)scale(0.1 -0.1)">
       <defs>
        <path id="DejaVuSans-36" d="M 2113 2584 
Q 1688 2584 1439 2293 
Q 1191 2003 1191 1497 
Q 1191 994 1439 701 
Q 1688 409 2113 409 
Q 2538 409 2786 701 
Q 3034 994 3034 1497 
Q 3034 2003 2786 2293 
Q 2538 2584 2113 2584 
z
M 3366 4563 
L 3366 3988 
Q 3128 4100 2886 4159 
Q 2644 4219 2406 4219 
Q 1781 4219 1451 3797 
Q 1122 3375 1075 2522 
Q 1259 2794 1537 2939 
Q 1816 3084 2150 3084 
Q 2853 3084 3261 2657 
Q 3669 2231 3669 1497 
Q 3669 778 3244 343 
Q 2819 -91 2113 -91 
Q 1303 -91 875 529 
Q 447 1150 447 2328 
Q 447 3434 972 4092 
Q 1497 4750 2381 4750 
Q 2619 4750 2861 4703 
Q 3103 4656 3366 4563 
z
" transform="scale(0.015625)"/>
       </defs>
       <use xlink:href="#DejaVuSans-30"/>
       <use xlink:href="#DejaVuSans-2e" x="63.623047"/>
       <use xlink:href="#DejaVuSans-36" x="95.410156"/>
      </g>
     </g>
    </g>
    <g id="xtick_5">
     <g id="line2d_5">
      <g>
       <use xlink:href="#meac82e383a" x="413.252121" y="318.04" style="stroke: #000000; stroke-width: 0.8"/>
      </g>
     </g>
     <g id="text_5">
      <!-- 0.8 -->
      <g transform="translate(405.300559 332.638438)scale(0.1 -0.1)">
       <defs>
        <path id="DejaVuSans-38" d="M 2034 2216 
Q 1584 2216 1326 1975 
Q 1069 1734 1069 1313 
Q 1069 891 1326 650 
Q 1584 409 2034 409 
Q 2484 409 2743 651 
Q 3003 894 3003 1313 
Q 3003 1734 2745 1975 
Q 2488 2216 2034 2216 
z
M 1403 2484 
Q 997 2584 770 2862 
Q 544 3141 544 3541 
Q 544 4100 942 4425 
Q 1341 4750 2034 4750 
Q 2731 4750 3128 4425 
Q 3525 4100 3525 3541 
Q 3525 3141 3298 2862 
Q 3072 2584 2669 2484 
Q 3125 2378 3379 2068 
Q 3634 1759 3634 1313 
Q 3634 634 3220 271 
Q 2806 -91 2034 -91 
Q 1263 -91 848 271 
Q 434 634 434 1313 
Q 434 1759 690 2068 
Q 947 2378 1403 2484 
z
M 1172 3481 
Q 1172 3119 1398 2916 
Q 1625 2713 2034 2713 
Q 2441 2713 2670 2916 
Q 2900 3119 2900 3481 
Q 2900 3844 2670 4047 
Q 2441 4250 2034 4250 
Q 1625 4250 1398 4047 
Q 1172 3844 1172 3481 
z
" transform="scale(0.015625)"/>
       </defs>
       <use xlink:href="#DejaVuSans-30"/>
       <use xlink:href="#DejaVuSans-2e" x="63.623047"/>
       <use xlink:href="#DejaVuSans-38" x="95.410156"/>
      </g>
     </g>
    </g>
    <g id="text_6">
     <!-- seconds -->
     <g transform="translate(209.667749 346.316563)scale(0.1 -0.1)">
      <defs>
       <path id="DejaVuSans-73" d="M 2834 3397 
L 2834 2853 
Q 2591 2978 2328 3040 
Q 2066 3103 1784 3103 
Q 1356 3103 1142 2972 
Q 928 2841 928 2578 
Q 928 2378 1081 2264 
Q 1234 2150 1697 2047 
L 1894 2003 
Q 2506 1872 2764 1633 
Q 3022 1394 3022 966 
Q 3022 478 2636 193 
Q 2250 -91 1575 -91 
Q 1294 -91 989 -36 
Q 684 19 347 128 
L 347 722 
Q 666 556 975 473 
Q 1284 391 1588 391 
Q 1994 391 2212 530 
Q 2431 669 2431 922 
Q 2431 1156 2273 1281 
Q 2116 1406 1581 1522 
L 1381 1569 
Q 847 1681 609 1914 
Q 372 2147 372 2553 
Q 372 3047 722 3315 
Q 1072 3584 1716 3584 
Q 2034 3584 2315 3537 
Q 2597 3491 2834 3397 
z
" transform="scale(0.015625)"/>
       <path id="DejaVuSans-65" d="M 3597 1894 
L 3597 1613 
L 953 1613 
Q 991 1019 1311 708 
Q 1631 397 2203 397 
Q 2534 397 2845 478 
Q 3156 559 3463 722 
L 3463 178 
Q 3153 47 2828 -22 
Q 2503 -91 2169 -91 
Q 1331 -91 842 396 
Q 353 884 353 1716 
Q 353 2575 817 3079 
Q 1281 3584 2069 3584 
Q 2775 3584 3186 3129 
Q 3597 2675 3597 1894 
z
M 3022 2063 
Q 3016 2534 2758 2815 
Q 2500 3097 2075 3097 
Q 1594 3097 1305 2825 
Q 1016 2553 972 2059 
L 3022 2063 
z
" transform="scale(0.015625)"/>
       <path id="DejaVuSans-63" d="M 3122 3366 
L 3122 2828 
Q 2878 2963 2633 3030 
Q 2388 3097 2138 3097 
Q 1578 3097 1268 2742 
Q 959 2388 959 1747 
Q 959 1106 1268 751 
Q 1578 397 2138 397 
Q 2388 397 2633 464 
Q 2878 531 3122 666 
L 3122 134 
Q 2881 22 2623 -34 
Q 2366 -91 2075 -91 
Q 1284 -91 818 406 
Q 353 903 353 1747 
Q 353 2603 823 3093 
Q 1294 3584 2113 3584 
Q 2378 3584 2631 3529 
Q 2884 3475 3122 3366 
z
" transform="scale(0.015625)"/>
       <path id="DejaVuSans-6f" d="M 1959 3097 
Q 1497 3097 1228 2736 
Q 959 2375 959 1747 
Q 959 1119 1226 758 
Q 1494 397 1959 397 
Q 2419 397 2687 759 
Q 2956 1122 2956 1747 
Q 2956 2369 2687 2733 
Q 2419 3097 1959 3097 
z
M 1959 3584 
Q 2709 3584 3137 3096 
Q 3566 2609 3566 1747 
Q 3566 888 3137 398 
Q 2709 -91 1959 -91 
Q 1206 -91 779 398 
Q 353 888 353 1747 
Q 353 2609 779 3096 
Q 1206 3584 1959 3584 
z
" transform="scale(0.015625)"/>
       <path id="DejaVuSans-6e" d="M 3513 2113 
L 3513 0 
L 2938 0 
L 2938 2094 
Q 2938 2591 2744 2837 
Q 2550 3084 2163 3084 
Q 1697 3084 1428 2787 
Q 1159 2491 1159 1978 
L 1159 0 
L 581 0 
L 581 3500 
L 1159 3500 
L 1159 2956 
Q 1366 3272 1645 3428 
Q 1925 3584 2291 3584 
Q 2894 3584 3203 3211 
Q 3513 2838 3513 2113 
z
" transform="scale(0.015625)"/>
       <path id="DejaVuSans-64" d="M 2906 2969 
L 2906 4863 
L 3481 4863 
L 3481 0 
L 2906 0 
L 2906 525 
Q 2725 213 2448 61 
Q 2172 -91 1784 -91 
Q 1150 -91 751 415 
Q 353 922 353 1747 
Q 353 2572 751 3078 
Q 1150 3584 1784 3584 
Q 2172 3584 2448 3432 
Q 2725 3281 2906 2969 
z
M 947 1747 
Q 947 1113 1208 752 
Q 1469 391 1925 391 
Q 2381 391 2643 752 
Q 2906 1113 2906 1747 
Q 2906 2381 2643 2742 
Q 2381 3103 1925 3103 
Q 1469 3103 1208 2742 
Q 947 2381 947 1747 
z
" transform="scale(0.015625)"/>
      </defs>
      <use xlink:href="#DejaVuSans-73"/>
      <use xlink:href="#DejaVuSans-65" x="52.099609"/>
      <use xlink:href="#DejaVuSans-63" x="113.623047"/>
      <use xlink:href="#DejaVuSans-6f" x="168.603516"/>
      <use xlink:href="#DejaVuSans-6e" x="229.785156"/>
      <use xlink:href="#DejaVuSans-64" x="293.164062"/>
      <use xlink:href="#DejaVuSans-73" x="356.640625"/>
     </g>
    </g>
   </g>
   <g id="matplotlib.axis_2">
    <g id="ytick_1">
     <g id="line2d_6">
      <defs>
       <path id="m8606ef123a" d="M 0 0 
L -3.5 0 
" style="stroke: #000000; stroke-width: 0.8"/>
      </defs>
      <g>
       <use xlink:href="#m8606ef123a" x="46.64" y="289.323961" style="stroke: #000000; stroke-width: 0.8"/>
      </g>
     </g>
     <g id="text_7">
      <!-- 1 -->
      <g transform="translate(24.897813 293.12318)scale(0.1 -0.1)">
       <defs>
        <path id="DejaVuSans-2212" d="M 678 2272 
L 4684 2272 
L 4684 1741 
L 678 1741 
L 678 2272 
z
" transform="scale(0.015625)"/>
        <path id="DejaVuSans-31" d="M 794 531 
L 1825 531 
L 1825 4091 
L 703 3866 
L 703 4441 
L 1819 4666 
L 2450 4666 
L 2450 531 
L 3481 531 
L 3481 0 
L 794 0 
L 794 531 
z
" transform="scale(0.015625)"/>
       </defs>
       <use xlink:href="#DejaVuSans-2212"/>
       <use xlink:href="#DejaVuSans-31" x="83.789062"/>
      </g>
     </g>
    </g>
    <g id="ytick_2">
     <g id="line2d_7">
      <g>
       <use xlink:href="#m8606ef123a" x="46.64" y="247.333984" style="stroke: #000000; stroke-width: 0.8"/>
      </g>
     </g>
     <g id="text_8">
      <!-- 0 -->
      <g transform="translate(33.2775 251.133202)scale(0.1 -0.1)">
       <use xlink:href="#DejaVuSans-30"/>
      </g>
     </g>
    </g>
    <g id="ytick_3">
     <g id="line2d_8">
      <g>
       <use xlink:href="#m8606ef123a" x="46.64" y="205.344006" style="stroke: #000000; stroke-width: 0.8"/>
      </g>
     </g>
     <g id="text_9">
      <!-- 1 -->
      <g transform="translate(33.2775 209.143225)scale(0.1 -0.1)">
       <use xlink:href="#DejaVuSans-31"/>
      </g>
     </g>
    </g>
    <g id="ytick_4">
     <g id="line2d_9">
      <g>
       <use xlink:href="#m8606ef123a" x="46.64" y="163.354029" style="stroke: #000000; stroke-width: 0.8"/>
      </g>
     </g>
     <g id="text_10">
      <!-- 2 -->
      <g transform="translate(33.2775 167.153247)scale(0.1 -0.1)">
       <use xlink:href="#DejaVuSans-32"/>
      </g>
     </g>
    </g>
    <g id="ytick_5">
     <g id="line2d_10">
      <g>
       <use xlink:href="#m8606ef123a" x="46.64" y="121.364051" style="stroke: #000000; stroke-width: 0.8"/>
      </g>
     </g>
     <g id="text_11">
      <!-- 3 -->
      <g transform="translate(33.2775 125.16327)scale(0.1 -0.1)">
       <defs>
        <path id="DejaVuSans-33" d="M 2597 2516 
Q 3050 2419 3304 2112 
Q 3559 1806 3559 1356 
Q 3559 666 3084 287 
Q 2609 -91 1734 -91 
Q 1441 -91 1130 -33 
Q 819 25 488 141 
L 488 750 
Q 750 597 1062 519 
Q 1375 441 1716 441 
Q 2309 441 2620 675 
Q 2931 909 2931 1356 
Q 2931 1769 2642 2001 
Q 2353 2234 1838 2234 
L 1294 2234 
L 1294 2753 
L 1863 2753 
Q 2328 2753 2575 2939 
Q 2822 3125 2822 3475 
Q 2822 3834 2567 4026 
Q 2313 4219 1838 4219 
Q 1578 4219 1281 4162 
Q 984 4106 628 3988 
L 628 4550 
Q 988 4650 1302 4700 
Q 1616 4750 1894 4750 
Q 2613 4750 3031 4423 
Q 3450 4097 3450 3541 
Q 3450 3153 3228 2886 
Q 3006 2619 2597 2516 
z
" transform="scale(0.015625)"/>
       </defs>
       <use xlink:href="#DejaVuSans-33"/>
      </g>
     </g>
    </g>
    <g id="ytick_6">
     <g id="line2d_11">
      <g>
       <use xlink:href="#m8606ef123a" x="46.64" y="79.374074" style="stroke: #000000; stroke-width: 0.8"/>
      </g>
     </g>
     <g id="text_12">
      <!-- 4 -->
      <g transform="translate(33.2775 83.173292)scale(0.1 -0.1)">
       <use xlink:href="#DejaVuSans-34"/>
      </g>
     </g>
    </g>
    <g id="text_13">
     <!-- V -->
     <g transform="translate(18.818125 201.487562)rotate(-90)scale(0.1 -0.1)">
      <defs>
       <path id="DejaVuSans-b5" d="M 544 -1331 
L 544 3500 
L 1119 3500 
L 1119 1325 
Q 1119 872 1334 640 
Q 1550 409 1972 409 
Q 2434 409 2667 671 
Q 2900 934 2900 1459 
L 2900 3500 
L 3475 3500 
L 3475 806 
Q 3475 619 3529 530 
Q 3584 441 3700 441 
Q 3728 441 3778 458 
Q 3828 475 3916 513 
L 3916 50 
Q 3788 -22 3673 -56 
Q 3559 -91 3450 -91 
Q 3234 -91 3106 31 
Q 2978 153 2931 403 
Q 2775 156 2548 32 
Q 2322 -91 2016 -91 
Q 1697 -91 1473 31 
Q 1250 153 1119 397 
L 1119 -1331 
L 544 -1331 
z
" transform="scale(0.015625)"/>
       <path id="DejaVuSans-56" d="M 1831 0 
L 50 4666 
L 709 4666 
L 2188 738 
L 3669 4666 
L 4325 4666 
L 2547 0 
L 1831 0 
z
" transform="scale(0.015625)"/>
      </defs>
      <use xlink:href="#DejaVuSans-b5"/>
      <use xlink:href="#DejaVuSans-56" x="63.623047"/>
     </g>
    </g>
   </g>
   <g id="line2d_12">
    <path d="M 46.64 246.61262 
L 47.435945 247.128252 
L 48.231889 248.772369 
L 49.823779 253.138266 
L 50.619723 254.145284 
L 51.415668 253.419235 
L 52.211613 250.823569 
L 54.599447 239.22589 
L 55.395392 238.002498 
L 56.191336 239.507954 
L 56.987281 243.610772 
L 59.375115 260.828944 
L 60.17106 263.866729 
L 60.967004 264.313614 
L 61.762949 262.403641 
L 62.558894 258.899312 
L 64.150783 250.859209 
L 64.946728 247.613145 
L 66.538617 242.843481 
L 68.130506 238.104974 
L 69.722396 232.798663 
L 70.51834 230.854102 
L 71.314285 229.997681 
L 72.11023 230.436617 
L 72.906175 232.052018 
L 75.294009 239.384191 
L 76.089953 241.119427 
L 76.885898 242.208368 
L 79.273732 244.110976 
L 80.069677 245.385681 
L 80.865621 247.313118 
L 81.661566 249.861302 
L 84.0494 258.794861 
L 84.845345 260.944161 
L 85.641289 262.026687 
L 86.437234 261.807656 
L 87.233179 260.282021 
L 88.029124 257.724887 
L 89.621013 251.789717 
L 90.416958 249.732189 
L 91.212902 248.908682 
L 92.008847 249.361292 
L 92.804792 250.734056 
L 93.600736 252.379854 
L 94.396681 253.570875 
L 95.192626 253.739403 
L 95.98857 252.659547 
L 96.784515 250.501473 
L 98.376404 244.958213 
L 99.172349 242.626571 
L 99.968294 240.952482 
L 100.764238 239.857468 
L 103.152073 237.690419 
L 103.948017 237.165694 
L 104.743962 237.170363 
L 105.539907 238.069358 
L 106.335851 240.028148 
L 108.723685 248.838391 
L 109.51963 250.502231 
L 110.315575 250.596588 
L 111.111519 249.096813 
L 111.907464 246.399769 
L 113.499353 240.103444 
L 114.295298 237.691544 
L 115.091243 236.101383 
L 115.887187 235.18878 
L 119.070966 233.116834 
L 119.866911 232.895901 
L 120.662856 233.202058 
L 121.4588 234.141129 
L 122.254745 235.604233 
L 123.846634 238.875284 
L 124.642579 240.062805 
L 125.438524 240.786877 
L 127.826358 241.89114 
L 129.418247 243.299914 
L 130.214192 244.003323 
L 131.010136 244.46919 
L 133.39797 245.184735 
L 134.193915 246.088348 
L 134.98986 247.58567 
L 135.785805 249.393245 
L 136.581749 250.895318 
L 137.377694 251.318066 
L 138.173639 250.009927 
L 138.969583 246.722523 
L 139.765528 241.775718 
L 141.357417 230.660395 
L 142.153362 226.812987 
L 142.949307 225.257041 
L 143.745251 226.169609 
L 144.541196 229.120866 
L 146.92903 241.372869 
L 147.724975 244.135688 
L 148.520919 245.870825 
L 149.316864 246.82583 
L 150.112809 247.317134 
L 150.908753 247.549073 
L 151.704698 247.533166 
L 152.500643 247.132478 
L 153.296588 246.193868 
L 154.092532 244.69105 
L 156.480366 239.282948 
L 157.276311 238.301779 
L 158.072256 237.935273 
L 159.664145 237.824074 
L 160.46009 237.206576 
L 161.256034 235.817106 
L 162.051979 233.699988 
L 163.643868 228.799552 
L 164.439813 227.016336 
L 165.235758 226.138337 
L 166.031702 226.165668 
L 166.827647 226.815099 
L 167.623592 227.634868 
L 168.419537 228.171399 
L 169.215481 228.121995 
L 170.011426 227.418187 
L 170.807371 226.216675 
L 172.39926 223.512917 
L 173.195205 222.529586 
L 173.991149 221.914499 
L 176.378983 220.84347 
L 177.174928 220.083096 
L 177.970873 218.926503 
L 178.766817 217.396454 
L 180.358707 213.633191 
L 181.950596 209.779825 
L 183.542485 206.553162 
L 184.33843 205.278833 
L 185.134375 204.264071 
L 185.93032 203.547783 
L 186.726264 203.193397 
L 187.522209 203.289716 
L 188.318154 203.938626 
L 189.114098 205.227461 
L 189.910043 207.188433 
L 190.705988 209.754107 
L 193.093822 218.403527 
L 193.889766 220.185796 
L 194.685711 220.689114 
L 195.481656 219.670709 
L 196.2776 217.13552 
L 197.073545 213.360698 
L 199.461379 200.23861 
L 200.257324 197.29309 
L 201.053269 195.718689 
L 201.849213 195.532754 
L 202.645158 196.500978 
L 205.032992 201.882657 
L 205.828937 202.97267 
L 206.624881 203.161036 
L 207.420826 202.303031 
L 208.216771 200.371395 
L 209.012715 197.447212 
L 210.604605 189.503295 
L 212.196494 181.3991 
L 212.992439 178.585215 
L 213.788383 177.251537 
L 214.584328 177.669831 
L 215.380273 179.810597 
L 216.176218 183.299738 
L 217.768107 191.442209 
L 218.564052 194.416541 
L 219.359996 195.780045 
L 220.155941 195.313803 
L 220.951886 193.243505 
L 223.33972 184.369975 
L 224.135664 183.052818 
L 224.931609 183.24799 
L 225.727554 184.829771 
L 226.523498 187.38075 
L 228.115388 193.242894 
L 228.911332 195.725825 
L 229.707277 197.701049 
L 230.503222 199.25217 
L 232.095111 201.719156 
L 233.687001 203.715835 
L 234.482945 204.307279 
L 235.27889 204.451142 
L 236.074835 204.112245 
L 236.870779 203.3691 
L 238.462669 201.27766 
L 240.054558 198.894702 
L 240.850503 197.386729 
L 241.646447 195.450853 
L 243.238337 190.286219 
L 244.034281 187.570917 
L 244.830226 185.392603 
L 245.626171 184.239527 
L 246.422115 184.406534 
L 247.21806 185.863099 
L 249.605894 192.985944 
L 250.401839 194.091273 
L 251.197784 193.908559 
L 251.993728 192.591169 
L 253.585618 188.691706 
L 254.381562 187.384862 
L 255.177507 187.083886 
L 255.973452 187.818817 
L 258.361286 192.329758 
L 259.15723 192.875628 
L 259.953175 192.37278 
L 260.74912 190.808431 
L 261.545064 188.361327 
L 263.136954 182.019277 
L 264.728843 175.802787 
L 265.524788 173.368708 
L 266.320733 171.602758 
L 267.116677 170.554808 
L 267.912622 170.13649 
L 269.504511 170.033883 
L 270.300456 169.483668 
L 271.096401 168.035411 
L 271.892345 165.479505 
L 272.68829 161.910055 
L 274.280179 153.639539 
L 275.076124 150.326898 
L 275.872069 148.412418 
L 276.668013 148.211534 
L 277.463958 149.671299 
L 278.259903 152.402644 
L 280.647737 162.171596 
L 281.443682 164.27879 
L 282.239626 165.441131 
L 283.035571 165.691735 
L 283.831516 165.13656 
L 284.62746 163.897286 
L 285.423405 162.099193 
L 288.607184 153.486268 
L 289.403128 152.485163 
L 290.199073 152.415634 
L 290.995018 153.201134 
L 292.586907 155.885776 
L 293.382852 156.761386 
L 294.178796 156.736862 
L 294.974741 155.640199 
L 295.770686 153.583225 
L 298.15852 145.54251 
L 298.954465 143.530798 
L 299.750409 142.099225 
L 301.342299 140.244049 
L 302.138243 139.30516 
L 304.526077 135.680578 
L 305.322022 135.025813 
L 306.117967 135.306605 
L 306.913911 136.827356 
L 307.709856 139.667603 
L 308.505801 143.616237 
L 310.09769 152.631277 
L 310.893635 156.209067 
L 311.689579 158.238385 
L 312.485524 158.333466 
L 313.281469 156.513071 
L 314.077414 153.228754 
L 315.669303 145.629234 
L 316.465248 143.155825 
L 317.261192 142.425791 
L 318.057137 143.538344 
L 318.853082 146.103201 
L 320.444971 152.391905 
L 321.240916 154.412572 
L 322.03686 154.965072 
L 322.832805 154.045049 
L 323.62875 152.07143 
L 324.424694 149.736364 
L 325.220639 147.786296 
L 326.016584 146.807559 
L 326.812528 147.081689 
L 327.608473 148.545239 
L 329.200363 153.495643 
L 329.996307 155.961817 
L 330.792252 157.830062 
L 331.588197 158.836738 
L 332.384141 158.881976 
L 333.180086 158.008652 
L 333.976031 156.376924 
L 336.363865 149.980451 
L 337.159809 148.711594 
L 337.955754 148.554822 
L 338.751699 149.73277 
L 339.547643 152.212588 
L 341.139533 159.526281 
L 341.935477 163.100385 
L 342.731422 165.777997 
L 343.527367 167.204041 
L 344.323311 167.393987 
L 345.119256 166.731562 
L 345.915201 165.843918 
L 346.711146 165.390784 
L 347.50709 165.836852 
L 348.303035 167.284872 
L 349.894924 171.630622 
L 350.690869 173.129026 
L 351.486814 173.251172 
L 352.282758 171.61711 
L 353.078703 168.241149 
L 353.874648 163.520882 
L 355.466537 152.85175 
L 356.262482 148.430911 
L 357.058426 145.442838 
L 357.854371 144.236399 
L 358.650316 144.917526 
L 359.44626 147.36031 
L 360.242205 151.226427 
L 362.630039 165.479964 
L 363.425984 168.798838 
L 364.221929 170.465252 
L 365.017873 170.327273 
L 365.813818 168.620244 
L 368.201652 160.754768 
L 368.997597 159.612658 
L 369.793541 159.796336 
L 370.589486 161.070817 
L 372.181375 164.568207 
L 372.97732 165.529894 
L 373.773265 165.438017 
L 374.569209 164.277841 
L 375.365154 162.312481 
L 376.957043 157.698594 
L 377.752988 155.889529 
L 378.548933 154.815675 
L 379.344878 154.653793 
L 380.140822 155.508704 
L 380.936767 157.41751 
L 381.732712 160.315524 
L 384.91649 174.779867 
L 385.712435 176.425807 
L 386.50838 176.553618 
L 387.304324 175.36845 
L 388.896214 171.543431 
L 389.692158 170.388963 
L 390.488103 170.389817 
L 391.284048 171.508024 
L 392.875937 174.992186 
L 393.671882 175.992691 
L 394.467827 175.940691 
L 395.263771 174.971389 
L 396.059716 173.661027 
L 396.855661 172.819271 
L 397.651605 173.184665 
L 398.44755 175.139392 
L 399.243495 178.551866 
L 400.835384 186.988991 
L 401.631329 190.202621 
L 402.427273 191.824443 
L 403.223218 191.69052 
L 404.019163 190.108474 
L 405.611052 185.296199 
L 406.406997 183.467361 
L 407.202941 182.59453 
L 407.998886 182.691014 
L 408.794831 183.473321 
L 409.590775 184.481794 
L 410.38672 185.227542 
L 411.182665 185.32252 
L 411.97861 184.565269 
L 412.774554 182.972356 
L 413.570499 180.758281 
L 413.570499 180.758281 
" clip-path="url(#p6f2376a45d)" style="fill: none; stroke: #e41a1c; stroke-width: 1.5; stroke-linecap: square"/>
   </g>
   <g id="line2d_13">
    <path d="M 46.64 249.71961 
L 47.435945 248.530829 
L 48.231889 247.547002 
L 49.027834 246.88733 
L 49.823779 246.621997 
L 50.619723 246.757652 
L 51.415668 247.218394 
L 53.007557 248.342837 
L 53.803502 248.446093 
L 54.599447 247.871397 
L 55.395392 246.469544 
L 56.191336 244.288971 
L 57.783226 238.873092 
L 58.57917 236.636513 
L 59.375115 235.369022 
L 60.17106 235.344013 
L 60.967004 236.548779 
L 61.762949 238.683889 
L 63.354838 243.687274 
L 64.150783 245.543165 
L 64.946728 246.579636 
L 65.742672 246.822987 
L 66.538617 246.524699 
L 67.334562 246.060264 
L 68.130506 245.802944 
L 68.926451 246.01445 
L 69.722396 246.783305 
L 70.51834 248.02154 
L 72.11023 250.973184 
L 72.906175 252.148746 
L 73.702119 252.849222 
L 74.498064 252.99217 
L 75.294009 252.609513 
L 76.089953 251.837573 
L 77.681843 250.028884 
L 78.477787 249.493964 
L 79.273732 249.464495 
L 80.069677 249.996167 
L 80.865621 250.991399 
L 82.457511 253.298929 
L 83.253455 253.925529 
L 84.0494 253.835459 
L 84.845345 252.956141 
L 85.641289 251.422912 
L 87.233179 247.708213 
L 88.029124 246.265815 
L 88.825068 245.424209 
L 89.621013 245.195023 
L 90.416958 245.410082 
L 92.008847 246.091678 
L 92.804792 246.122875 
L 93.600736 245.873831 
L 95.192626 245.091386 
L 95.98857 244.932838 
L 96.784515 245.079182 
L 97.58046 245.494874 
L 99.172349 246.507811 
L 99.968294 246.736067 
L 100.764238 246.623108 
L 101.560183 246.167468 
L 102.356128 245.444045 
L 103.948017 243.601144 
L 107.927741 238.72796 
L 108.723685 238.10713 
L 109.51963 237.909699 
L 110.315575 238.250493 
L 111.111519 239.135045 
L 113.499353 243.052537 
L 114.295298 243.711003 
L 115.091243 243.607738 
L 115.887187 242.721047 
L 118.275021 238.117753 
L 119.070966 237.351903 
L 119.866911 237.535583 
L 120.662856 238.714794 
L 121.4588 240.691138 
L 123.05069 245.375429 
L 123.846634 247.144335 
L 124.642579 248.060819 
L 125.438524 248.007161 
L 126.234468 247.075585 
L 127.030413 245.526186 
L 128.622302 241.997693 
L 129.418247 240.688709 
L 130.214192 239.991263 
L 131.010136 239.994715 
L 131.806081 240.67338 
L 132.602026 241.89638 
L 134.98986 246.295839 
L 135.785805 246.98633 
L 136.581749 246.896494 
L 137.377694 246.010643 
L 139.765528 241.396657 
L 140.561473 240.673378 
L 141.357417 240.889564 
L 142.153362 241.964954 
L 143.745251 244.822833 
L 144.541196 245.291737 
L 145.337141 244.422928 
L 146.133085 242.133415 
L 148.520919 232.225649 
L 149.316864 230.697494 
L 150.112809 231.0144 
L 150.908753 233.049721 
L 152.500643 239.447291 
L 153.296588 241.920076 
L 154.092532 242.922836 
L 154.888477 242.263843 
L 155.684422 240.260985 
L 157.276311 235.129418 
L 158.072256 233.513113 
L 158.8682 233.114443 
L 159.664145 233.890686 
L 160.46009 235.475611 
L 162.051979 239.043933 
L 162.847924 240.26943 
L 163.643868 240.982404 
L 164.439813 241.324236 
L 167.623592 242.019133 
L 168.419537 241.900598 
L 169.215481 241.40146 
L 170.011426 240.501391 
L 172.39926 237.026512 
L 173.195205 236.3149 
L 173.991149 235.978261 
L 175.583039 235.967118 
L 177.970873 235.999424 
L 178.766817 236.323281 
L 179.562762 237.172671 
L 180.358707 238.692394 
L 181.154651 240.851626 
L 183.542485 248.285602 
L 184.33843 249.841124 
L 185.134375 250.549765 
L 185.93032 250.45734 
L 186.726264 249.772094 
L 189.114098 246.887867 
L 189.910043 246.268523 
L 190.705988 245.913826 
L 191.501932 245.811899 
L 192.297877 245.961225 
L 193.093822 246.378118 
L 193.889766 247.070026 
L 196.2776 249.937891 
L 197.073545 250.528527 
L 197.86949 250.619414 
L 198.665434 250.180042 
L 201.053269 247.766437 
L 201.849213 247.62868 
L 202.645158 248.127203 
L 203.441103 249.145796 
L 205.032992 251.450666 
L 205.828937 252.034368 
L 206.624881 251.995488 
L 207.420826 251.43266 
L 209.012715 250.006995 
L 209.80866 249.849287 
L 210.604605 250.312429 
L 211.400549 251.306273 
L 212.992439 253.625417 
L 213.788383 254.207695 
L 214.584328 254.076375 
L 215.380273 253.215313 
L 216.176218 251.780585 
L 219.359996 244.852248 
L 220.951886 242.083128 
L 221.74783 240.915066 
L 222.543775 240.023644 
L 223.33972 239.601335 
L 224.135664 239.847419 
L 224.931609 240.880492 
L 225.727554 242.662703 
L 228.115388 249.520279 
L 228.911332 250.880548 
L 229.707277 251.219506 
L 230.503222 250.500743 
L 231.299166 248.938837 
L 232.891056 245.056182 
L 233.687001 243.746069 
L 234.482945 243.367009 
L 235.27889 244.038846 
L 236.074835 245.634049 
L 238.462669 252.24121 
L 239.258613 253.773189 
L 240.054558 254.694032 
L 242.442392 256.228867 
L 243.238337 257.56255 
L 244.034281 259.698435 
L 245.626171 265.71729 
L 246.422115 268.738395 
L 247.21806 271.062028 
L 248.014005 272.283916 
L 248.80995 272.252371 
L 249.605894 271.12342 
L 251.197784 267.489786 
L 251.993728 266.230416 
L 252.789673 266.057177 
L 253.585618 267.219898 
L 254.381562 269.659037 
L 255.973452 276.769747 
L 256.769396 280.272126 
L 257.565341 282.987458 
L 258.361286 284.563516 
L 259.15723 284.910396 
L 259.953175 284.205172 
L 262.341009 279.997052 
L 263.136954 279.300197 
L 263.932898 279.274505 
L 264.728843 279.769888 
L 265.524788 280.450575 
L 266.320733 280.898427 
L 267.116677 280.738118 
L 267.912622 279.747574 
L 268.708567 277.921475 
L 271.892345 268.190007 
L 272.68829 266.932271 
L 273.484235 266.505955 
L 274.280179 266.827519 
L 275.076124 267.712018 
L 278.259903 272.569163 
L 279.055847 273.212926 
L 279.851792 273.336535 
L 280.647737 272.834868 
L 281.443682 271.666207 
L 282.239626 269.889964 
L 284.62746 263.228597 
L 285.423405 261.645694 
L 286.21935 260.818729 
L 287.015294 260.792875 
L 287.811239 261.426499 
L 289.403128 263.442292 
L 290.199073 264.136987 
L 290.995018 264.299076 
L 291.790962 263.876681 
L 292.586907 262.979263 
L 294.178796 260.711961 
L 294.974741 259.864862 
L 295.770686 259.46266 
L 296.56663 259.570869 
L 297.362575 260.149541 
L 298.954465 262.149351 
L 299.750409 263.164089 
L 300.546354 263.894592 
L 301.342299 264.147916 
L 302.138243 263.791834 
L 302.934188 262.786529 
L 303.730133 261.207289 
L 306.117967 255.367402 
L 306.913911 254.068462 
L 307.709856 253.490897 
L 308.505801 253.683815 
L 309.301745 254.541065 
L 312.485524 259.62832 
L 313.281469 260.26234 
L 314.077414 260.528821 
L 314.873358 260.516838 
L 318.057137 259.826338 
L 318.853082 259.877424 
L 319.649026 260.112429 
L 320.444971 260.547668 
L 322.03686 261.874184 
L 322.832805 262.558198 
L 323.62875 263.057518 
L 324.424694 263.243576 
L 325.220639 263.072093 
L 327.608473 261.743535 
L 328.404418 261.826252 
L 329.200363 262.464208 
L 329.996307 263.598706 
L 331.588197 266.229853 
L 332.384141 266.95549 
L 333.180086 266.876659 
L 333.976031 265.920463 
L 334.771975 264.248901 
L 336.363865 260.217795 
L 337.159809 258.638902 
L 337.955754 257.669382 
L 338.751699 257.300669 
L 339.547643 257.348532 
L 341.139533 257.629707 
L 341.935477 257.47334 
L 343.527367 256.561176 
L 344.323311 256.09289 
L 345.119256 255.796674 
L 346.711146 255.692668 
L 347.50709 255.619101 
L 348.303035 255.298578 
L 349.09898 254.630435 
L 350.690869 252.481208 
L 351.486814 251.392951 
L 352.282758 250.620895 
L 353.078703 250.339235 
L 353.874648 250.597372 
L 354.670592 251.310425 
L 357.058426 254.218896 
L 357.854371 254.850616 
L 358.650316 255.186039 
L 359.44626 255.245154 
L 360.242205 255.062178 
L 361.03815 254.649298 
L 361.834095 253.985355 
L 362.630039 253.036801 
L 364.221929 250.364919 
L 365.017873 248.910197 
L 365.813818 247.716215 
L 366.609763 247.086596 
L 367.405707 247.258424 
L 368.201652 248.311631 
L 368.997597 250.116038 
L 370.589486 254.534029 
L 371.385431 256.240094 
L 372.181375 257.134302 
L 372.97732 257.111958 
L 373.773265 256.31154 
L 375.365154 253.7662 
L 376.161099 252.787097 
L 376.957043 252.337367 
L 377.752988 252.448064 
L 378.548933 252.996495 
L 380.936767 255.358516 
L 381.732712 255.970294 
L 382.528656 256.436367 
L 383.324601 256.736154 
L 384.120546 256.805896 
L 384.91649 256.547008 
L 385.712435 255.877242 
L 386.50838 254.800634 
L 388.100269 252.115001 
L 388.896214 251.096527 
L 389.692158 250.651269 
L 390.488103 250.830945 
L 392.079992 251.967576 
L 392.875937 251.919462 
L 393.671882 250.820919 
L 394.467827 248.507109 
L 396.855661 238.265514 
L 397.651605 236.163867 
L 398.44755 235.664241 
L 399.243495 236.74053 
L 401.631329 243.177124 
L 402.427273 243.820654 
L 403.223218 243.055905 
L 404.019163 241.144869 
L 405.611052 236.44383 
L 406.406997 234.987998 
L 407.202941 234.62263 
L 407.998886 235.274437 
L 410.38672 239.330189 
L 411.182665 240.163245 
L 411.97861 240.606055 
L 413.570499 241.184265 
L 413.570499 241.184265 
" clip-path="url(#p6f2376a45d)" style="fill: none; stroke: #377eb8; stroke-width: 1.5; stroke-linecap: square"/>
   </g>
   <g id="line2d_14">
    <path d="M 87.233179 318.04 
L 87.233179 71.732 
" clip-path="url(#p6f2376a45d)" style="fill: none; stroke: #000000; stroke-width: 0.5; stroke-linecap: square"/>
   </g>
   <g id="line2d_15">
    <path d="M 46.64 247.333984 
L 413.570499 247.333984 
" clip-path="url(#p6f2376a45d)" style="fill: none; stroke: #000000; stroke-width: 0.5; stroke-linecap: square"/>
   </g>
   <g id="patch_4">
    <path d="M 46.64 318.04 
L 46.64 71.732 
" style="fill: none; stroke: #000000; stroke-width: 0.8; stroke-linejoin: miter; stroke-linecap: square"/>
   </g>
   <g id="patch_5">
    <path d="M 413.570499 318.04 
L 413.570499 71.732 
" style="fill: none; stroke: #000000; stroke-width: 0.8; stroke-linejoin: miter; stroke-linecap: square"/>
   </g>
   <g id="patch_6">
    <path d="M 46.64 318.04 
L 413.570499 318.04 
" style="fill: none; stroke: #000000; stroke-width: 0.8; stroke-linejoin: miter; stroke-linecap: square"/>
   </g>
   <g id="patch_7">
    <path d="M 46.64 71.732 
L 413.570499 71.732 
" style="fill: none; stroke: #000000; stroke-width: 0.8; stroke-linejoin: miter; stroke-linecap: square"/>
   </g>
   <g id="text_14">
    <!-- Cz -->
    <g transform="translate(222.766499 65.732)scale(0.12 -0.12)">
     <defs>
      <path id="DejaVuSans-43" d="M 4122 4306 
L 4122 3641 
Q 3803 3938 3442 4084 
Q 3081 4231 2675 4231 
Q 1875 4231 1450 3742 
Q 1025 3253 1025 2328 
Q 1025 1406 1450 917 
Q 1875 428 2675 428 
Q 3081 428 3442 575 
Q 3803 722 4122 1019 
L 4122 359 
Q 3791 134 3420 21 
Q 3050 -91 2638 -91 
Q 1578 -91 968 557 
Q 359 1206 359 2328 
Q 359 3453 968 4101 
Q 1578 4750 2638 4750 
Q 3056 4750 3426 4639 
Q 3797 4528 4122 4306 
z
" transform="scale(0.015625)"/>
      <path id="DejaVuSans-7a" d="M 353 3500 
L 3084 3500 
L 3084 2975 
L 922 459 
L 3084 459 
L 3084 0 
L 275 0 
L 275 525 
L 2438 3041 
L 353 3041 
L 353 3500 
z
" transform="scale(0.015625)"/>
     </defs>
     <use xlink:href="#DejaVuSans-43"/>
     <use xlink:href="#DejaVuSans-7a" x="69.824219"/>
    </g>
   </g>
   <g id="legend_1">
    <g id="patch_8">
     <path d="M 99.877906 48.500845 
L 360.332593 48.500845 
Q 362.332593 48.500845 362.332593 46.500845 
L 362.332593 18.144595 
Q 362.332593 16.144595 360.332593 16.144595 
L 99.877906 16.144595 
Q 97.877906 16.144595 97.877906 18.144595 
L 97.877906 46.500845 
Q 97.877906 48.500845 99.877906 48.500845 
z
" style="fill: #ffffff; opacity: 0.8; stroke: #cccccc; stroke-linejoin: miter"/>
    </g>
    <g id="text_15">
     <!-- Average of Session 3 -->
     <g transform="translate(177.727124 27.743033)scale(0.1 -0.1)">
      <defs>
       <path id="DejaVuSans-41" d="M 2188 4044 
L 1331 1722 
L 3047 1722 
L 2188 4044 
z
M 1831 4666 
L 2547 4666 
L 4325 0 
L 3669 0 
L 3244 1197 
L 1141 1197 
L 716 0 
L 50 0 
L 1831 4666 
z
" transform="scale(0.015625)"/>
       <path id="DejaVuSans-76" d="M 191 3500 
L 800 3500 
L 1894 563 
L 2988 3500 
L 3597 3500 
L 2284 0 
L 1503 0 
L 191 3500 
z
" transform="scale(0.015625)"/>
       <path id="DejaVuSans-72" d="M 2631 2963 
Q 2534 3019 2420 3045 
Q 2306 3072 2169 3072 
Q 1681 3072 1420 2755 
Q 1159 2438 1159 1844 
L 1159 0 
L 581 0 
L 581 3500 
L 1159 3500 
L 1159 2956 
Q 1341 3275 1631 3429 
Q 1922 3584 2338 3584 
Q 2397 3584 2469 3576 
Q 2541 3569 2628 3553 
L 2631 2963 
z
" transform="scale(0.015625)"/>
       <path id="DejaVuSans-61" d="M 2194 1759 
Q 1497 1759 1228 1600 
Q 959 1441 959 1056 
Q 959 750 1161 570 
Q 1363 391 1709 391 
Q 2188 391 2477 730 
Q 2766 1069 2766 1631 
L 2766 1759 
L 2194 1759 
z
M 3341 1997 
L 3341 0 
L 2766 0 
L 2766 531 
Q 2569 213 2275 61 
Q 1981 -91 1556 -91 
Q 1019 -91 701 211 
Q 384 513 384 1019 
Q 384 1609 779 1909 
Q 1175 2209 1959 2209 
L 2766 2209 
L 2766 2266 
Q 2766 2663 2505 2880 
Q 2244 3097 1772 3097 
Q 1472 3097 1187 3025 
Q 903 2953 641 2809 
L 641 3341 
Q 956 3463 1253 3523 
Q 1550 3584 1831 3584 
Q 2591 3584 2966 3190 
Q 3341 2797 3341 1997 
z
" transform="scale(0.015625)"/>
       <path id="DejaVuSans-67" d="M 2906 1791 
Q 2906 2416 2648 2759 
Q 2391 3103 1925 3103 
Q 1463 3103 1205 2759 
Q 947 2416 947 1791 
Q 947 1169 1205 825 
Q 1463 481 1925 481 
Q 2391 481 2648 825 
Q 2906 1169 2906 1791 
z
M 3481 434 
Q 3481 -459 3084 -895 
Q 2688 -1331 1869 -1331 
Q 1566 -1331 1297 -1286 
Q 1028 -1241 775 -1147 
L 775 -588 
Q 1028 -725 1275 -790 
Q 1522 -856 1778 -856 
Q 2344 -856 2625 -561 
Q 2906 -266 2906 331 
L 2906 616 
Q 2728 306 2450 153 
Q 2172 0 1784 0 
Q 1141 0 747 490 
Q 353 981 353 1791 
Q 353 2603 747 3093 
Q 1141 3584 1784 3584 
Q 2172 3584 2450 3431 
Q 2728 3278 2906 2969 
L 2906 3500 
L 3481 3500 
L 3481 434 
z
" transform="scale(0.015625)"/>
       <path id="DejaVuSans-20" transform="scale(0.015625)"/>
       <path id="DejaVuSans-66" d="M 2375 4863 
L 2375 4384 
L 1825 4384 
Q 1516 4384 1395 4259 
Q 1275 4134 1275 3809 
L 1275 3500 
L 2222 3500 
L 2222 3053 
L 1275 3053 
L 1275 0 
L 697 0 
L 697 3053 
L 147 3053 
L 147 3500 
L 697 3500 
L 697 3744 
Q 697 4328 969 4595 
Q 1241 4863 1831 4863 
L 2375 4863 
z
" transform="scale(0.015625)"/>
       <path id="DejaVuSans-53" d="M 3425 4513 
L 3425 3897 
Q 3066 4069 2747 4153 
Q 2428 4238 2131 4238 
Q 1616 4238 1336 4038 
Q 1056 3838 1056 3469 
Q 1056 3159 1242 3001 
Q 1428 2844 1947 2747 
L 2328 2669 
Q 3034 2534 3370 2195 
Q 3706 1856 3706 1288 
Q 3706 609 3251 259 
Q 2797 -91 1919 -91 
Q 1588 -91 1214 -16 
Q 841 59 441 206 
L 441 856 
Q 825 641 1194 531 
Q 1563 422 1919 422 
Q 2459 422 2753 634 
Q 3047 847 3047 1241 
Q 3047 1584 2836 1778 
Q 2625 1972 2144 2069 
L 1759 2144 
Q 1053 2284 737 2584 
Q 422 2884 422 3419 
Q 422 4038 858 4394 
Q 1294 4750 2059 4750 
Q 2388 4750 2728 4690 
Q 3069 4631 3425 4513 
z
" transform="scale(0.015625)"/>
       <path id="DejaVuSans-69" d="M 603 3500 
L 1178 3500 
L 1178 0 
L 603 0 
L 603 3500 
z
M 603 4863 
L 1178 4863 
L 1178 4134 
L 603 4134 
L 603 4863 
z
" transform="scale(0.015625)"/>
      </defs>
      <use xlink:href="#DejaVuSans-41"/>
      <use xlink:href="#DejaVuSans-76" x="62.533203"/>
      <use xlink:href="#DejaVuSans-65" x="121.712891"/>
      <use xlink:href="#DejaVuSans-72" x="183.236328"/>
      <use xlink:href="#DejaVuSans-61" x="224.349609"/>
      <use xlink:href="#DejaVuSans-67" x="285.628906"/>
      <use xlink:href="#DejaVuSans-65" x="349.105469"/>
      <use xlink:href="#DejaVuSans-20" x="410.628906"/>
      <use xlink:href="#DejaVuSans-6f" x="442.416016"/>
      <use xlink:href="#DejaVuSans-66" x="503.597656"/>
      <use xlink:href="#DejaVuSans-20" x="538.802734"/>
      <use xlink:href="#DejaVuSans-53" x="570.589844"/>
      <use xlink:href="#DejaVuSans-65" x="634.066406"/>
      <use xlink:href="#DejaVuSans-73" x="695.589844"/>
      <use xlink:href="#DejaVuSans-73" x="747.689453"/>
      <use xlink:href="#DejaVuSans-69" x="799.789062"/>
      <use xlink:href="#DejaVuSans-6f" x="827.572266"/>
      <use xlink:href="#DejaVuSans-6e" x="888.753906"/>
      <use xlink:href="#DejaVuSans-20" x="952.132812"/>
      <use xlink:href="#DejaVuSans-33" x="983.919922"/>
     </g>
    </g>
    <g id="line2d_16">
     <path d="M 101.877906 38.921158 
L 111.877906 38.921158 
L 121.877906 38.921158 
" style="fill: none; stroke: #e41a1c; stroke-width: 1.5; stroke-linecap: square"/>
    </g>
    <g id="text_16">
     <!-- Target (n=317) -->
     <g transform="translate(129.877906 42.421158)scale(0.1 -0.1)">
      <defs>
       <path id="DejaVuSans-54" d="M -19 4666 
L 3928 4666 
L 3928 4134 
L 2272 4134 
L 2272 0 
L 1638 0 
L 1638 4134 
L -19 4134 
L -19 4666 
z
" transform="scale(0.015625)"/>
       <path id="DejaVuSans-74" d="M 1172 4494 
L 1172 3500 
L 2356 3500 
L 2356 3053 
L 1172 3053 
L 1172 1153 
Q 1172 725 1289 603 
Q 1406 481 1766 481 
L 2356 481 
L 2356 0 
L 1766 0 
Q 1100 0 847 248 
Q 594 497 594 1153 
L 594 3053 
L 172 3053 
L 172 3500 
L 594 3500 
L 594 4494 
L 1172 4494 
z
" transform="scale(0.015625)"/>
       <path id="DejaVuSans-28" d="M 1984 4856 
Q 1566 4138 1362 3434 
Q 1159 2731 1159 2009 
Q 1159 1288 1364 580 
Q 1569 -128 1984 -844 
L 1484 -844 
Q 1016 -109 783 600 
Q 550 1309 550 2009 
Q 550 2706 781 3412 
Q 1013 4119 1484 4856 
L 1984 4856 
z
" transform="scale(0.015625)"/>
       <path id="DejaVuSans-3d" d="M 678 2906 
L 4684 2906 
L 4684 2381 
L 678 2381 
L 678 2906 
z
M 678 1631 
L 4684 1631 
L 4684 1100 
L 678 1100 
L 678 1631 
z
" transform="scale(0.015625)"/>
       <path id="DejaVuSans-37" d="M 525 4666 
L 3525 4666 
L 3525 4397 
L 1831 0 
L 1172 0 
L 2766 4134 
L 525 4134 
L 525 4666 
z
" transform="scale(0.015625)"/>
       <path id="DejaVuSans-29" d="M 513 4856 
L 1013 4856 
Q 1481 4119 1714 3412 
Q 1947 2706 1947 2009 
Q 1947 1309 1714 600 
Q 1481 -109 1013 -844 
L 513 -844 
Q 928 -128 1133 580 
Q 1338 1288 1338 2009 
Q 1338 2731 1133 3434 
Q 928 4138 513 4856 
z
" transform="scale(0.015625)"/>
      </defs>
      <use xlink:href="#DejaVuSans-54"/>
      <use xlink:href="#DejaVuSans-61" x="44.583984"/>
      <use xlink:href="#DejaVuSans-72" x="105.863281"/>
      <use xlink:href="#DejaVuSans-67" x="145.226562"/>
      <use xlink:href="#DejaVuSans-65" x="208.703125"/>
      <use xlink:href="#DejaVuSans-74" x="270.226562"/>
      <use xlink:href="#DejaVuSans-20" x="309.435547"/>
      <use xlink:href="#DejaVuSans-28" x="341.222656"/>
      <use xlink:href="#DejaVuSans-6e" x="380.236328"/>
      <use xlink:href="#DejaVuSans-3d" x="443.615234"/>
      <use xlink:href="#DejaVuSans-33" x="527.404297"/>
      <use xlink:href="#DejaVuSans-31" x="591.027344"/>
      <use xlink:href="#DejaVuSans-37" x="654.650391"/>
      <use xlink:href="#DejaVuSans-29" x="718.273438"/>
     </g>
    </g>
    <g id="line2d_17">
     <path d="M 225.607593 38.921158 
L 235.607593 38.921158 
L 245.607593 38.921158 
" style="fill: none; stroke: #377eb8; stroke-width: 1.5; stroke-linecap: square"/>
    </g>
    <g id="text_17">
     <!-- Non-Target (n=1578) -->
     <g transform="translate(253.607593 42.421158)scale(0.1 -0.1)">
      <defs>
       <path id="DejaVuSans-4e" d="M 628 4666 
L 1478 4666 
L 3547 763 
L 3547 4666 
L 4159 4666 
L 4159 0 
L 3309 0 
L 1241 3903 
L 1241 0 
L 628 0 
L 628 4666 
z
" transform="scale(0.015625)"/>
       <path id="DejaVuSans-2d" d="M 313 2009 
L 1997 2009 
L 1997 1497 
L 313 1497 
L 313 2009 
z
" transform="scale(0.015625)"/>
       <path id="DejaVuSans-35" d="M 691 4666 
L 3169 4666 
L 3169 4134 
L 1269 4134 
L 1269 2991 
Q 1406 3038 1543 3061 
Q 1681 3084 1819 3084 
Q 2600 3084 3056 2656 
Q 3513 2228 3513 1497 
Q 3513 744 3044 326 
Q 2575 -91 1722 -91 
Q 1428 -91 1123 -41 
Q 819 9 494 109 
L 494 744 
Q 775 591 1075 516 
Q 1375 441 1709 441 
Q 2250 441 2565 725 
Q 2881 1009 2881 1497 
Q 2881 1984 2565 2268 
Q 2250 2553 1709 2553 
Q 1456 2553 1204 2497 
Q 953 2441 691 2322 
L 691 4666 
z
" transform="scale(0.015625)"/>
      </defs>
      <use xlink:href="#DejaVuSans-4e"/>
      <use xlink:href="#DejaVuSans-6f" x="74.804688"/>
      <use xlink:href="#DejaVuSans-6e" x="135.986328"/>
      <use xlink:href="#DejaVuSans-2d" x="199.365234"/>
      <use xlink:href="#DejaVuSans-54" x="226.324219"/>
      <use xlink:href="#DejaVuSans-61" x="270.908203"/>
      <use xlink:href="#DejaVuSans-72" x="332.1875"/>
      <use xlink:href="#DejaVuSans-67" x="371.550781"/>
      <use xlink:href="#DejaVuSans-65" x="435.027344"/>
      <use xlink:href="#DejaVuSans-74" x="496.550781"/>
      <use xlink:href="#DejaVuSans-20" x="535.759766"/>
      <use xlink:href="#DejaVuSans-28" x="567.546875"/>
      <use xlink:href="#DejaVuSans-6e" x="606.560547"/>
      <use xlink:href="#DejaVuSans-3d" x="669.939453"/>
      <use xlink:href="#DejaVuSans-31" x="753.728516"/>
      <use xlink:href="#DejaVuSans-35" x="817.351562"/>
      <use xlink:href="#DejaVuSans-37" x="880.974609"/>
      <use xlink:href="#DejaVuSans-38" x="944.597656"/>
      <use xlink:href="#DejaVuSans-29" x="1008.220703"/>
     </g>
    </g>
   </g>
  </g>
 </g>
 <defs>
  <clipPath id="p6f2376a45d">
   <rect x="46.64" y="71.732" width="366.930499" height="246.308"/>
  </clipPath>
 </defs>
</svg>
