<?xml version="1.0" encoding="utf-8" standalone="no"?>
<!DOCTYPE svg PUBLIC "-//W3C//DTD SVG 1.1//EN"
  "http://www.w3.org/Graphics/SVG/1.1/DTD/svg11.dtd">
<svg xmlns:xlink="http://www.w3.org/1999/xlink" width="432pt" height="360pt" viewBox="0 0 432 360" xmlns="http://www.w3.org/2000/svg" version="1.1">
 <metadata>
  <rdf:RDF xmlns:dc="http://purl.org/dc/elements/1.1/" xmlns:cc="http://creativecommons.org/ns#" xmlns:rdf="http://www.w3.org/1999/02/22-rdf-syntax-ns#">
   <cc:Work>
    <dc:type rdf:resource="http://purl.org/dc/dcmitype/StillImage"/>
    <dc:date>2022-05-19T11:52:34.224831</dc:date>
    <dc:format>image/svg+xml</dc:format>
    <dc:creator>
     <cc:Agent>
      <dc:title>Matplotlib v3.5.1, https://matplotlib.org/</dc:title>
     </cc:Agent>
    </dc:creator>
   </cc:Work>
  </rdf:RDF>
 </metadata>
 <defs>
  <style type="text/css">*{stroke-linejoin: round; stroke-linecap: butt}</style>
 </defs>
 <g id="figure_1">
  <g id="patch_1">
   <path d="M 0 360 
L 432 360 
L 432 0 
L 0 0 
L 0 360 
z
" style="fill: none"/>
  </g>
  <g id="axes_1">
   <g id="patch_2">
    <path d="M 46.64 318.04 
L 413.570499 318.04 
L 413.570499 71.732 
L 46.64 71.732 
L 46.64 318.04 
z
" style="fill: none"/>
   </g>
   <g id="PolyCollection_1">
    <defs>
     <path id="md1a1320b35" d="M 46.64 -113.814367 
L 46.64 -73.063391 
L 47.435945 -71.479722 
L 48.231889 -70.219843 
L 49.027834 -69.89454 
L 49.823779 -70.657927 
L 50.619723 -72.157271 
L 51.415668 -73.787461 
L 52.211613 -75.050977 
L 53.007557 -75.750918 
L 53.803502 -75.931443 
L 54.599447 -75.705809 
L 55.395392 -75.174856 
L 56.191336 -74.495872 
L 56.987281 -73.878263 
L 57.783226 -73.367167 
L 58.57917 -72.717383 
L 59.375115 -71.608099 
L 60.17106 -70.030136 
L 60.967004 -68.458021 
L 61.762949 -67.595812 
L 62.558894 -67.890673 
L 63.354838 -69.217595 
L 64.150783 -71.024586 
L 64.946728 -72.756761 
L 65.742672 -74.02189 
L 66.538617 -74.539667 
L 67.334562 -74.246596 
L 68.130506 -73.478727 
L 68.926451 -72.980626 
L 69.722396 -73.666753 
L 70.51834 -76.251324 
L 71.314285 -80.900263 
L 72.11023 -87.009179 
L 72.906175 -93.228812 
L 73.702119 -97.84762 
L 74.498064 -99.472266 
L 75.294009 -97.687968 
L 76.089953 -93.261719 
L 76.885898 -87.753197 
L 77.681843 -82.851147 
L 78.477787 -79.845162 
L 79.273732 -79.386121 
L 80.069677 -81.391955 
L 80.865621 -85.018269 
L 81.661566 -88.857074 
L 82.457511 -91.424377 
L 83.253455 -91.735264 
L 84.0494 -89.666315 
L 84.845345 -85.910432 
L 85.641289 -81.594437 
L 86.437234 -77.827228 
L 87.233179 -75.382476 
L 88.029124 -74.555416 
L 88.825068 -75.171012 
L 89.621013 -76.720408 
L 90.416958 -78.578374 
L 91.212902 -80.23536 
L 92.008847 -81.484031 
L 92.804792 -82.489612 
L 93.600736 -83.670043 
L 94.396681 -85.411759 
L 95.192626 -87.788082 
L 95.98857 -90.466076 
L 96.784515 -92.877025 
L 97.58046 -94.538828 
L 98.376404 -95.247911 
L 99.172349 -94.981092 
L 99.968294 -93.707941 
L 100.764238 -91.377978 
L 101.560183 -88.079336 
L 102.356128 -84.165084 
L 103.152073 -80.206564 
L 103.948017 -76.830733 
L 104.743962 -74.575063 
L 105.539907 -73.815501 
L 106.335851 -74.725614 
L 107.131796 -77.209956 
L 107.927741 -80.836836 
L 108.723685 -84.860628 
L 109.51963 -88.375734 
L 110.315575 -90.562121 
L 111.111519 -90.953305 
L 111.907464 -89.63908 
L 112.703409 -87.269621 
L 113.499353 -84.774781 
L 114.295298 -82.92429 
L 115.091243 -82.008881 
L 115.887187 -81.828588 
L 116.683132 -81.921668 
L 117.479077 -81.799826 
L 118.275021 -81.069225 
L 119.070966 -79.519399 
L 119.866911 -77.243749 
L 120.662856 -74.703535 
L 121.4588 -72.608464 
L 122.254745 -71.630117 
L 123.05069 -72.134781 
L 123.846634 -74.109782 
L 124.642579 -77.250501 
L 125.438524 -81.02886 
L 126.234468 -84.69898 
L 127.030413 -87.379489 
L 127.826358 -88.293106 
L 128.622302 -87.070079 
L 129.418247 -83.939108 
L 130.214192 -79.686799 
L 131.010136 -75.407179 
L 131.806081 -72.166247 
L 132.602026 -70.709975 
L 133.39797 -71.290176 
L 134.193915 -73.623632 
L 134.98986 -76.961163 
L 135.785805 -80.239921 
L 136.581749 -82.312026 
L 137.377694 -82.251248 
L 138.173639 -79.696056 
L 138.969583 -75.064724 
L 139.765528 -69.416498 
L 140.561473 -63.975922 
L 141.357417 -59.660588 
L 142.153362 -56.90507 
L 142.949307 -55.758568 
L 143.745251 -56.031032 
L 144.541196 -57.355538 
L 145.337141 -59.237594 
L 146.133085 -61.180807 
L 146.92903 -62.843248 
L 147.724975 -64.098326 
L 148.520919 -64.949099 
L 149.316864 -65.390455 
L 150.112809 -65.352915 
L 150.908753 -64.760973 
L 151.704698 -63.628416 
L 152.500643 -62.100659 
L 153.296588 -60.419799 
L 154.092532 -58.843409 
L 154.888477 -57.562387 
L 155.684422 -56.663126 
L 156.480366 -56.164258 
L 157.276311 -56.10799 
L 158.072256 -56.628467 
L 158.8682 -57.926673 
L 159.664145 -60.16446 
L 160.46009 -63.355077 
L 161.256034 -67.305105 
L 162.051979 -71.607106 
L 162.847924 -75.678673 
L 163.643868 -78.878728 
L 164.439813 -80.715813 
L 165.235758 -81.070544 
L 166.031702 -80.28492 
L 166.827647 -79.039804 
L 167.623592 -78.108627 
L 168.419537 -78.148264 
L 169.215481 -79.570067 
L 170.011426 -82.408274 
L 170.807371 -86.190137 
L 171.603315 -89.960438 
L 172.39926 -92.568366 
L 173.195205 -93.139699 
L 173.991149 -91.484503 
L 174.787094 -88.167981 
L 175.583039 -84.206708 
L 176.378983 -80.647415 
L 177.174928 -78.303512 
L 177.970873 -77.681575 
L 178.766817 -78.940229 
L 179.562762 -81.809554 
L 180.358707 -85.575484 
L 181.154651 -89.220021 
L 181.950596 -91.683597 
L 182.746541 -92.156321 
L 183.542485 -90.306454 
L 184.33843 -86.356626 
L 185.134375 -80.957538 
L 185.93032 -74.926007 
L 186.726264 -69.001973 
L 187.522209 -63.74564 
L 188.318154 -59.579762 
L 189.114098 -56.849322 
L 189.910043 -55.74507 
L 190.705988 -56.115019 
L 191.501932 -57.38094 
L 192.297877 -58.723412 
L 193.093822 -59.440149 
L 193.889766 -59.203018 
L 194.685711 -58.07035 
L 195.481656 -56.366933 
L 196.2776 -54.584109 
L 197.073545 -53.316471 
L 197.86949 -53.155818 
L 198.665434 -54.503165 
L 199.461379 -57.382662 
L 200.257324 -61.387485 
L 201.053269 -65.794349 
L 201.849213 -69.774932 
L 202.645158 -72.619608 
L 203.441103 -73.928389 
L 204.237047 -73.726361 
L 205.032992 -72.443269 
L 205.828937 -70.747112 
L 206.624881 -69.324818 
L 207.420826 -68.727743 
L 208.216771 -69.301914 
L 209.012715 -71.134326 
L 209.80866 -73.987801 
L 210.604605 -77.292373 
L 211.400549 -80.266945 
L 212.196494 -82.155312 
L 212.992439 -82.469816 
L 213.788383 -81.128165 
L 214.584328 -78.452143 
L 215.380273 -75.072859 
L 216.176218 -71.778497 
L 216.972162 -69.309246 
L 217.768107 -68.131084 
L 218.564052 -68.275161 
L 219.359996 -69.338102 
L 220.155941 -70.677192 
L 220.951886 -71.726093 
L 221.74783 -72.2634 
L 222.543775 -72.484779 
L 223.33972 -72.86612 
L 224.135664 -73.924403 
L 224.931609 -75.998402 
L 225.727554 -79.120265 
L 226.523498 -82.988185 
L 227.319443 -87.025136 
L 228.115388 -90.532158 
L 228.911332 -92.939767 
L 229.707277 -94.060626 
L 230.503222 -94.16881 
L 231.299166 -93.835802 
L 232.095111 -93.647435 
L 232.891056 -93.990511 
L 233.687001 -94.98561 
L 234.482945 -96.489776 
L 235.27889 -98.090491 
L 236.074835 -99.160623 
L 236.870779 -99.09576 
L 237.666724 -97.686347 
L 238.462669 -95.354353 
L 239.258613 -93.00923 
L 240.054558 -91.606975 
L 240.850503 -91.731597 
L 241.646447 -93.425013 
L 242.442392 -96.275268 
L 243.238337 -99.640879 
L 244.034281 -102.884319 
L 244.830226 -105.547715 
L 245.626171 -107.439318 
L 246.422115 -108.612503 
L 247.21806 -109.264987 
L 248.014005 -109.634314 
L 248.80995 -109.937164 
L 249.605894 -110.32902 
L 250.401839 -110.865811 
L 251.197784 -111.513049 
L 251.993728 -112.243017 
L 252.789673 -113.17247 
L 253.585618 -114.618493 
L 254.381562 -116.980838 
L 255.177507 -120.503433 
L 255.973452 -125.086785 
L 256.769396 -130.270486 
L 257.565341 -135.351333 
L 258.361286 -139.544145 
L 259.15723 -142.160122 
L 259.953175 -142.819019 
L 260.74912 -141.640832 
L 261.545064 -139.266302 
L 262.341009 -136.601534 
L 263.136954 -134.40049 
L 263.932898 -132.956482 
L 264.728843 -132.087172 
L 265.524788 -131.367859 
L 266.320733 -130.411362 
L 267.116677 -129.038808 
L 267.912622 -127.337939 
L 268.708567 -125.663581 
L 269.504511 -124.574917 
L 270.300456 -124.657144 
L 271.096401 -126.240247 
L 271.892345 -129.158437 
L 272.68829 -132.730163 
L 273.484235 -136.011736 
L 274.280179 -138.195194 
L 275.076124 -138.936669 
L 275.872069 -138.471043 
L 276.668013 -137.500624 
L 277.463958 -136.919312 
L 278.259903 -137.447063 
L 279.055847 -139.278275 
L 279.851792 -141.898868 
L 280.647737 -144.210959 
L 281.443682 -144.966088 
L 282.239626 -143.326413 
L 283.035571 -139.292122 
L 283.831516 -133.81169 
L 284.62746 -128.544176 
L 285.423405 -125.358013 
L 286.21935 -125.712019 
L 287.015294 -130.10724 
L 287.811239 -137.817545 
L 288.607184 -147.049045 
L 289.403128 -155.519049 
L 290.199073 -161.247534 
L 290.995018 -163.235443 
L 291.790962 -161.74866 
L 292.586907 -158.111803 
L 293.382852 -154.127736 
L 294.178796 -151.37392 
L 294.974741 -150.648231 
L 295.770686 -151.752726 
L 296.56663 -153.659143 
L 297.362575 -154.962216 
L 298.15852 -154.44028 
L 298.954465 -151.518262 
L 299.750409 -146.471252 
L 300.546354 -140.306986 
L 301.342299 -134.379284 
L 302.138243 -129.872161 
L 302.934188 -127.348022 
L 303.730133 -126.554599 
L 304.526077 -126.598718 
L 305.322022 -126.432426 
L 306.117967 -125.427884 
L 306.913911 -123.735173 
L 307.709856 -122.21501 
L 308.505801 -121.994469 
L 309.301745 -123.904341 
L 310.09769 -128.066929 
L 310.893635 -133.780427 
L 311.689579 -139.720167 
L 312.485524 -144.382768 
L 313.281469 -146.612384 
L 314.077414 -145.990341 
L 314.873358 -142.916922 
L 315.669303 -138.379737 
L 316.465248 -133.564584 
L 317.261192 -129.490454 
L 318.057137 -126.760508 
L 318.853082 -125.451697 
L 319.649026 -125.170312 
L 320.444971 -125.287252 
L 321.240916 -125.277547 
L 322.03686 -124.992247 
L 322.832805 -124.691884 
L 323.62875 -124.815296 
L 324.424694 -125.64593 
L 325.220639 -127.09183 
L 326.016584 -128.688345 
L 326.812528 -129.794786 
L 327.608473 -129.884682 
L 328.404418 -128.817502 
L 329.200363 -126.983341 
L 329.996307 -125.225331 
L 330.792252 -124.513837 
L 331.588197 -125.486254 
L 332.384141 -128.082513 
L 333.180086 -131.485263 
L 333.976031 -134.412888 
L 334.771975 -135.616827 
L 335.56792 -134.339814 
L 336.363865 -130.564206 
L 337.159809 -125.024363 
L 337.955754 -119.031399 
L 338.751699 -114.148443 
L 339.547643 -111.752171 
L 340.343588 -112.585663 
L 341.139533 -116.484631 
L 341.935477 -122.422138 
L 342.731422 -128.863923 
L 343.527367 -134.278993 
L 344.323311 -137.607556 
L 345.119256 -138.542764 
L 345.915201 -137.560194 
L 346.711146 -135.695329 
L 347.50709 -134.147109 
L 348.303035 -133.861831 
L 349.09898 -135.25804 
L 349.894924 -138.165463 
L 350.690869 -141.942964 
L 351.486814 -145.702657 
L 352.282758 -148.591536 
L 353.078703 -150.081975 
L 353.874648 -150.169644 
L 354.670592 -149.356834 
L 355.466537 -148.398654 
L 356.262482 -147.946036 
L 357.058426 -148.272461 
L 357.854371 -149.188487 
L 358.650316 -150.144588 
L 359.44626 -150.477767 
L 360.242205 -149.735056 
L 361.03815 -147.952207 
L 361.834095 -145.723747 
L 362.630039 -143.981965 
L 363.425984 -143.592386 
L 364.221929 -144.991721 
L 365.017873 -148.034362 
L 365.813818 -152.062088 
L 366.609763 -156.114913 
L 367.405707 -159.20602 
L 368.201652 -160.610821 
L 368.997597 -160.096143 
L 369.793541 -157.98411 
L 370.589486 -154.992502 
L 371.385431 -151.918137 
L 372.181375 -149.32605 
L 372.97732 -147.388396 
L 373.773265 -145.914845 
L 374.569209 -144.5243 
L 375.365154 -142.873109 
L 376.161099 -140.854518 
L 376.957043 -138.690069 
L 377.752988 -136.859253 
L 378.548933 -135.881934 
L 379.344878 -136.053822 
L 380.140822 -137.27517 
L 380.936767 -139.072611 
L 381.732712 -140.816196 
L 382.528656 -142.028048 
L 383.324601 -142.618435 
L 384.120546 -142.915385 
L 384.91649 -143.471627 
L 385.712435 -144.754332 
L 386.50838 -146.862993 
L 387.304324 -149.386007 
L 388.100269 -151.455344 
L 388.896214 -152.008629 
L 389.692158 -150.197934 
L 390.488103 -145.797072 
L 391.284048 -139.408561 
L 392.079992 -132.335733 
L 392.875937 -126.167732 
L 393.671882 -122.285922 
L 394.467827 -121.500266 
L 395.263771 -123.899877 
L 396.059716 -128.894699 
L 396.855661 -135.403388 
L 397.651605 -142.15244 
L 398.44755 -148.02735 
L 399.243495 -152.367932 
L 400.039439 -155.086419 
L 400.835384 -156.557267 
L 401.631329 -157.356206 
L 402.427273 -158.000588 
L 403.223218 -158.800768 
L 404.019163 -159.840867 
L 404.815107 -161.051137 
L 405.611052 -162.318434 
L 406.406997 -163.574861 
L 407.202941 -164.812484 
L 407.998886 -166.022033 
L 408.794831 -167.119644 
L 409.590775 -167.935603 
L 410.38672 -168.278862 
L 411.182665 -168.028211 
L 411.97861 -167.192756 
L 412.774554 -165.916642 
L 413.570499 -164.429083 
L 413.570499 -272.732865 
L 413.570499 -272.732865 
L 412.774554 -273.955752 
L 411.97861 -275.363461 
L 411.182665 -276.533893 
L 410.38672 -277.072182 
L 409.590775 -276.774688 
L 408.794831 -275.68386 
L 407.998886 -274.035694 
L 407.202941 -272.15271 
L 406.406997 -270.332135 
L 405.611052 -268.75884 
L 404.815107 -267.468309 
L 404.019163 -266.376861 
L 403.223218 -265.35676 
L 402.427273 -264.294926 
L 401.631329 -263.090589 
L 400.835384 -261.60809 
L 400.039439 -259.640311 
L 399.243495 -256.923903 
L 398.44755 -253.215516 
L 397.651605 -248.426689 
L 396.855661 -242.793372 
L 396.059716 -236.992415 
L 395.263771 -232.081547 
L 394.467827 -229.212052 
L 393.671882 -229.208086 
L 392.875937 -232.214834 
L 392.079992 -237.60091 
L 391.284048 -244.155749 
L 390.488103 -250.462214 
L 389.692158 -255.277632 
L 388.896214 -257.823267 
L 388.100269 -257.946321 
L 387.304324 -256.116917 
L 386.50838 -253.230467 
L 385.712435 -250.267193 
L 384.91649 -247.95239 
L 384.120546 -246.570281 
L 383.324601 -245.993878 
L 382.528656 -245.869406 
L 381.732712 -245.831872 
L 380.936767 -245.658881 
L 380.140822 -245.330404 
L 379.344878 -244.994718 
L 378.548933 -244.860641 
L 377.752988 -245.065278 
L 376.957043 -245.584079 
L 376.161099 -246.235237 
L 375.365154 -246.787728 
L 374.569209 -247.123989 
L 373.773265 -247.359752 
L 372.97732 -247.82752 
L 372.181375 -248.90598 
L 371.385431 -250.781228 
L 370.589486 -253.27688 
L 369.793541 -255.847486 
L 368.997597 -257.734916 
L 368.201652 -258.220305 
L 367.405707 -256.89153 
L 366.609763 -253.845074 
L 365.813818 -249.728142 
L 365.017873 -245.554242 
L 364.221929 -242.335739 
L 363.425984 -240.707763 
L 362.630039 -240.742222 
L 361.834095 -242.022291 
L 361.03815 -243.880951 
L 360.242205 -245.651345 
L 359.44626 -246.848102 
L 358.650316 -247.280074 
L 357.854371 -247.085258 
L 357.058426 -246.640112 
L 356.262482 -246.347866 
L 355.466537 -246.413913 
L 354.670592 -246.737522 
L 353.874648 -246.961799 
L 353.078703 -246.627283 
L 352.282758 -245.358433 
L 351.486814 -243.04594 
L 350.690869 -239.975089 
L 349.894924 -236.804223 
L 349.09898 -234.336798 
L 348.303035 -233.168454 
L 347.50709 -233.394451 
L 346.711146 -234.529145 
L 345.915201 -235.659434 
L 345.119256 -235.749534 
L 344.323311 -233.989594 
L 343.527367 -230.093465 
L 342.731422 -224.455534 
L 341.935477 -218.093902 
L 341.139533 -212.378462 
L 340.343588 -208.637303 
L 339.547643 -207.772626 
L 338.751699 -209.984401 
L 337.955754 -214.663151 
L 337.159809 -220.507363 
L 336.363865 -225.891865 
L 335.56792 -229.401964 
L 334.771975 -230.314127 
L 333.976031 -228.790813 
L 333.180086 -225.710419 
L 332.384141 -222.259177 
L 331.588197 -219.505417 
L 330.792252 -218.107824 
L 329.996307 -218.193615 
L 329.200363 -219.388778 
L 328.404418 -220.979027 
L 327.608473 -222.174643 
L 326.812528 -222.41089 
L 326.016584 -221.558496 
L 325.220639 -219.930928 
L 324.424694 -218.088812 
L 323.62875 -216.565001 
L 322.832805 -215.660988 
L 322.03686 -215.390102 
L 321.240916 -215.549796 
L 320.444971 -215.874036 
L 319.649026 -216.22592 
L 318.853082 -216.757816 
L 318.057137 -217.915511 
L 317.261192 -220.211442 
L 316.465248 -223.849206 
L 315.669303 -228.42491 
L 314.873358 -232.927765 
L 314.077414 -236.079298 
L 313.281469 -236.831121 
L 312.485524 -234.772853 
L 311.689579 -230.293407 
L 310.893635 -224.462372 
L 310.09769 -218.678851 
L 309.301745 -214.198963 
L 308.505801 -211.720194 
L 307.709856 -211.208531 
L 306.913911 -212.042492 
L 306.117967 -213.374621 
L 305.322022 -214.51594 
L 304.526077 -215.196864 
L 303.730133 -215.653333 
L 302.934188 -216.518596 
L 302.138243 -218.520768 
L 301.342299 -222.07632 
L 300.546354 -226.968087 
L 299.750409 -232.300744 
L 298.954465 -236.809376 
L 298.15852 -239.407311 
L 297.362575 -239.709843 
L 296.56663 -238.265502 
L 295.770686 -236.364711 
L 294.974741 -235.492453 
L 294.178796 -236.659074 
L 293.382852 -239.909117 
L 292.586907 -244.232359 
L 291.790962 -247.919638 
L 290.995018 -249.213839 
L 290.199073 -246.989527 
L 289.403128 -241.195905 
L 288.607184 -232.910515 
L 287.811239 -224.010276 
L 287.015294 -216.588012 
L 286.21935 -212.300232 
L 285.423405 -211.848444 
L 284.62746 -214.772428 
L 283.831516 -219.647523 
L 283.035571 -224.628079 
L 282.239626 -228.119264 
L 281.443682 -229.290896 
L 280.647737 -228.236138 
L 279.851792 -225.770365 
L 279.055847 -223.019739 
L 278.259903 -220.97758 
L 277.463958 -220.159196 
L 276.668013 -220.446766 
L 275.872069 -221.183528 
L 275.076124 -221.497541 
L 274.280179 -220.712838 
L 273.484235 -218.639596 
L 272.68829 -215.611629 
L 271.892345 -212.304455 
L 271.096401 -209.470128 
L 270.300456 -207.698225 
L 269.504511 -207.241739 
L 268.708567 -207.931696 
L 267.912622 -209.233548 
L 267.116677 -210.482033 
L 266.320733 -211.215834 
L 265.524788 -211.413416 
L 264.728843 -211.461599 
L 263.932898 -211.875561 
L 263.136954 -212.974392 
L 262.341009 -214.720047 
L 261.545064 -216.751936 
L 260.74912 -218.505475 
L 259.953175 -219.325674 
L 259.15723 -218.600908 
L 258.361286 -215.976294 
L 257.565341 -211.579317 
L 256.769396 -206.073442 
L 255.973452 -200.442457 
L 255.177507 -195.615158 
L 254.381562 -192.153526 
L 253.585618 -190.146785 
L 252.789673 -189.283041 
L 251.993728 -189.002595 
L 251.197784 -188.693361 
L 250.401839 -187.914466 
L 249.605894 -186.56837 
L 248.80995 -184.9049 
L 248.014005 -183.323622 
L 247.21806 -182.085705 
L 246.422115 -181.129945 
L 245.626171 -180.117901 
L 244.830226 -178.657617 
L 244.034281 -176.549887 
L 243.238337 -173.930842 
L 242.442392 -171.253222 
L 241.646447 -169.104721 
L 240.850503 -167.939151 
L 240.054558 -167.870261 
L 239.258613 -168.652121 
L 238.462669 -169.833949 
L 237.666724 -170.952742 
L 236.870779 -171.632598 
L 236.074835 -171.607087 
L 235.27889 -170.794658 
L 234.482945 -169.422444 
L 233.687001 -168.003367 
L 232.891056 -167.063479 
L 232.095111 -166.786035 
L 231.299166 -166.865036 
L 230.503222 -166.693017 
L 229.707277 -165.720678 
L 228.911332 -163.728745 
L 228.115388 -160.885851 
L 227.319443 -157.643417 
L 226.523498 -154.574725 
L 225.727554 -152.195336 
L 224.931609 -150.771089 
L 224.135664 -150.194037 
L 223.33972 -150.033018 
L 222.543775 -149.758302 
L 221.74783 -149.012959 
L 220.951886 -147.775965 
L 220.155941 -146.336998 
L 219.359996 -145.126261 
L 218.564052 -144.528623 
L 217.768107 -144.777888 
L 216.972162 -145.925237 
L 216.176218 -147.835426 
L 215.380273 -150.195754 
L 214.584328 -152.556117 
L 213.788383 -154.419859 
L 212.992439 -155.37142 
L 212.196494 -155.182249 
L 211.400549 -153.841466 
L 210.604605 -151.52771 
L 209.80866 -148.582684 
L 209.012715 -145.496297 
L 208.216771 -142.844176 
L 207.420826 -141.13323 
L 206.624881 -140.601458 
L 205.828937 -141.095145 
L 205.032992 -142.117019 
L 204.237047 -143.010697 
L 203.441103 -143.163258 
L 202.645158 -142.155882 
L 201.849213 -139.872026 
L 201.053269 -136.562636 
L 200.257324 -132.813208 
L 199.461379 -129.38107 
L 198.665434 -126.961921 
L 197.86949 -125.983309 
L 197.073545 -126.475907 
L 196.2776 -128.03266 
L 195.481656 -129.890678 
L 194.685711 -131.179022 
L 193.889766 -131.27374 
L 193.093822 -130.072141 
L 192.297877 -128.004115 
L 191.501932 -125.776601 
L 190.705988 -124.067543 
L 189.910043 -123.396354 
L 189.114098 -124.145308 
L 188.318154 -126.540684 
L 187.522209 -130.527247 
L 186.726264 -135.673352 
L 185.93032 -141.264817 
L 185.134375 -146.554226 
L 184.33843 -150.979842 
L 183.542485 -154.223732 
L 182.746541 -156.127423 
L 181.950596 -156.589238 
L 181.154651 -155.570206 
L 180.358707 -153.219321 
L 179.562762 -150.007113 
L 178.766817 -146.746145 
L 177.970873 -144.434584 
L 177.174928 -143.928427 
L 176.378983 -145.55541 
L 175.583039 -148.904285 
L 174.787094 -152.975344 
L 173.991149 -156.59647 
L 173.195205 -158.810091 
L 172.39926 -159.054188 
L 171.603315 -157.207009 
L 170.807371 -153.62638 
L 170.011426 -149.148727 
L 169.215481 -144.91317 
L 168.419537 -141.984297 
L 167.623592 -140.920986 
L 166.827647 -141.543938 
L 166.031702 -143.071353 
L 165.235758 -144.51417 
L 164.439813 -145.051676 
L 163.643868 -144.228004 
L 162.847924 -141.997061 
L 162.051979 -138.682087 
L 161.256034 -134.857504 
L 160.46009 -131.155313 
L 159.664145 -128.064679 
L 158.8682 -125.827214 
L 158.072256 -124.46572 
L 157.276311 -123.879973 
L 156.480366 -123.915792 
L 155.684422 -124.384102 
L 154.888477 -125.075476 
L 154.092532 -125.80096 
L 153.296588 -126.435977 
L 152.500643 -126.934032 
L 151.704698 -127.307182 
L 150.908753 -127.587624 
L 150.112809 -127.781121 
L 149.316864 -127.829931 
L 148.520919 -127.616647 
L 147.724975 -127.017277 
L 146.92903 -125.960985 
L 146.133085 -124.447203 
L 145.337141 -122.53618 
L 144.541196 -120.385844 
L 143.745251 -118.348191 
L 142.949307 -117.009665 
L 142.153362 -117.041343 
L 141.357417 -118.881788 
L 140.561473 -122.471091 
L 139.765528 -127.249229 
L 138.969583 -132.382302 
L 138.173639 -136.993099 
L 137.377694 -140.268694 
L 136.581749 -141.55641 
L 135.785805 -140.592109 
L 134.98986 -137.739947 
L 134.193915 -133.992868 
L 133.39797 -130.669472 
L 132.602026 -128.954263 
L 131.806081 -129.495035 
L 131.010136 -132.216984 
L 130.214192 -136.396828 
L 129.418247 -140.928603 
L 128.622302 -144.655768 
L 127.826358 -146.655767 
L 127.030413 -146.430249 
L 126.234468 -144.015256 
L 125.438524 -140.011716 
L 124.642579 -135.480587 
L 123.846634 -131.648724 
L 123.05069 -129.478405 
L 122.254745 -129.314894 
L 121.4588 -130.840922 
L 120.662856 -133.317617 
L 119.866911 -135.88489 
L 119.070966 -137.778977 
L 118.275021 -138.496821 
L 117.479077 -137.954842 
L 116.683132 -136.567932 
L 115.887187 -135.112014 
L 115.091243 -134.362907 
L 114.295298 -134.725878 
L 113.499353 -136.110006 
L 112.703409 -138.061 
L 111.907464 -139.964092 
L 111.111519 -141.184399 
L 110.315575 -141.172299 
L 109.51963 -139.620996 
L 108.723685 -136.646269 
L 107.927741 -132.841147 
L 107.131796 -129.128372 
L 106.335851 -126.473254 
L 105.539907 -125.57183 
L 104.743962 -126.62103 
L 103.948017 -129.270174 
L 103.152073 -132.799001 
L 102.356128 -136.430401 
L 101.560183 -139.58798 
L 100.764238 -141.961748 
L 99.968294 -143.409846 
L 99.172349 -143.866543 
L 98.376404 -143.382303 
L 97.58046 -142.210851 
L 96.784515 -140.753134 
L 95.98857 -139.330042 
L 95.192626 -138.010851 
L 94.396681 -136.682526 
L 93.600736 -135.231696 
L 92.804792 -133.627376 
L 92.008847 -131.864004 
L 91.212902 -129.867249 
L 90.416958 -127.502288 
L 89.621013 -124.732867 
L 88.825068 -121.808259 
L 88.029124 -119.29885 
L 87.233179 -117.914244 
L 86.437234 -118.178547 
L 85.641289 -120.120218 
L 84.845345 -123.151382 
L 84.0494 -126.230633 
L 83.253455 -128.23094 
L 82.457511 -128.325007 
L 81.661566 -126.269249 
L 80.865621 -122.561355 
L 80.069677 -118.406256 
L 79.273732 -115.392247 
L 78.477787 -114.886927 
L 77.681843 -117.361473 
L 76.885898 -122.053377 
L 76.089953 -127.276446 
L 75.294009 -131.171499 
L 74.498064 -132.397527 
L 73.702119 -130.46417 
L 72.906175 -125.744329 
L 72.11023 -119.34223 
L 71.314285 -112.823802 
L 70.51834 -107.737856 
L 69.722396 -105.050757 
L 68.926451 -104.778119 
L 68.130506 -106.036066 
L 67.334562 -107.480193 
L 66.538617 -107.891649 
L 65.742672 -106.676876 
L 64.946728 -104.124909 
L 64.150783 -101.294349 
L 63.354838 -99.450811 
L 62.558894 -99.287945 
L 61.762949 -100.612092 
L 60.967004 -102.71037 
L 60.17106 -104.847288 
L 59.375115 -106.516579 
L 58.57917 -107.466911 
L 57.783226 -107.680245 
L 56.987281 -107.415158 
L 56.191336 -107.194302 
L 55.395392 -107.560356 
L 54.599447 -108.660979 
L 53.803502 -110.051183 
L 53.007557 -111.002421 
L 52.211613 -111.025476 
L 51.415668 -110.161129 
L 50.619723 -108.91127 
L 49.823779 -107.949006 
L 49.027834 -107.836814 
L 48.231889 -108.870143 
L 47.435945 -111.003516 
L 46.64 -113.814367 
z
" style="stroke: #e41a1c; stroke-opacity: 0.3"/>
    </defs>
    <g clip-path="url(#pc403bbf370)">
     <use xlink:href="#md1a1320b35" x="0" y="360" style="fill: #e41a1c; fill-opacity: 0.3; stroke: #e41a1c; stroke-opacity: 0.3"/>
    </g>
   </g>
   <g id="PolyCollection_2">
    <defs>
     <path id="m681007884b" d="M 46.64 -114.330195 
L 46.64 -96.041399 
L 47.435945 -95.947689 
L 48.231889 -95.227472 
L 49.027834 -93.947593 
L 49.823779 -92.269416 
L 50.619723 -90.392149 
L 51.415668 -88.534329 
L 52.211613 -86.938605 
L 53.007557 -85.841218 
L 53.803502 -85.384691 
L 54.599447 -85.540792 
L 55.395392 -86.119903 
L 56.191336 -86.862654 
L 56.987281 -87.538184 
L 57.783226 -87.986183 
L 58.57917 -88.119413 
L 59.375115 -87.938315 
L 60.17106 -87.558353 
L 60.967004 -87.196897 
L 61.762949 -87.094259 
L 62.558894 -87.417357 
L 63.354838 -88.208177 
L 64.150783 -89.386442 
L 64.946728 -90.772906 
L 65.742672 -92.113692 
L 66.538617 -93.127935 
L 67.334562 -93.599477 
L 68.130506 -93.475905 
L 68.926451 -92.901044 
L 69.722396 -92.154209 
L 70.51834 -91.540478 
L 71.314285 -91.287062 
L 72.11023 -91.473235 
L 72.906175 -92.001443 
L 73.702119 -92.61319 
L 74.498064 -92.953301 
L 75.294009 -92.673693 
L 76.089953 -91.546054 
L 76.885898 -89.544396 
L 77.681843 -86.871078 
L 78.477787 -83.919653 
L 79.273732 -81.182099 
L 80.069677 -79.117892 
L 80.865621 -78.017469 
L 81.661566 -77.908488 
L 82.457511 -78.548354 
L 83.253455 -79.513024 
L 84.0494 -80.347653 
L 84.845345 -80.713849 
L 85.641289 -80.472769 
L 86.437234 -79.683852 
L 87.233179 -78.544207 
L 88.029124 -77.311768 
L 88.825068 -76.241103 
L 89.621013 -75.533326 
L 90.416958 -75.293206 
L 91.212902 -75.506038 
L 92.008847 -76.055684 
L 92.804792 -76.778179 
L 93.600736 -77.5135 
L 94.396681 -78.125164 
L 95.192626 -78.497232 
L 95.98857 -78.540119 
L 96.784515 -78.216677 
L 97.58046 -77.569124 
L 98.376404 -76.723479 
L 99.172349 -75.869831 
L 99.968294 -75.229564 
L 100.764238 -75.009379 
L 101.560183 -75.335732 
L 102.356128 -76.188117 
L 103.152073 -77.376222 
L 103.948017 -78.591072 
L 104.743962 -79.512357 
L 105.539907 -79.919327 
L 106.335851 -79.760331 
L 107.131796 -79.168523 
L 107.927741 -78.429915 
L 108.723685 -77.90739 
L 109.51963 -77.927327 
L 110.315575 -78.659699 
L 111.111519 -80.042944 
L 111.907464 -81.792247 
L 112.703409 -83.491777 
L 113.499353 -84.732795 
L 114.295298 -85.238339 
L 115.091243 -84.924774 
L 115.887187 -83.88936 
L 116.683132 -82.352305 
L 117.479077 -80.592494 
L 118.275021 -78.896078 
L 119.070966 -77.510119 
L 119.866911 -76.592834 
L 120.662856 -76.179096 
L 121.4588 -76.19057 
L 122.254745 -76.486506 
L 123.05069 -76.909772 
L 123.846634 -77.292761 
L 124.642579 -77.446002 
L 125.438524 -77.182703 
L 126.234468 -76.395244 
L 127.030413 -75.134197 
L 127.826358 -73.620234 
L 128.622302 -72.175343 
L 129.418247 -71.123665 
L 130.214192 -70.713444 
L 131.010136 -71.072854 
L 131.806081 -72.187828 
L 132.602026 -73.899583 
L 133.39797 -75.938627 
L 134.193915 -78.001877 
L 134.98986 -79.843207 
L 135.785805 -81.330591 
L 136.581749 -82.447198 
L 137.377694 -83.250372 
L 138.173639 -83.816738 
L 138.969583 -84.192933 
L 139.765528 -84.361608 
L 140.561473 -84.233988 
L 141.357417 -83.681363 
L 142.153362 -82.600714 
L 142.949307 -80.983251 
L 143.745251 -78.947087 
L 144.541196 -76.717286 
L 145.337141 -74.568477 
L 146.133085 -72.760681 
L 146.92903 -71.489997 
L 147.724975 -70.856621 
L 148.520919 -70.846274 
L 149.316864 -71.331488 
L 150.112809 -72.104799 
L 150.908753 -72.943977 
L 151.704698 -73.687244 
L 152.500643 -74.27767 
L 153.296588 -74.743097 
L 154.092532 -75.123588 
L 154.888477 -75.404266 
L 155.684422 -75.507288 
L 156.480366 -75.346075 
L 157.276311 -74.892187 
L 158.072256 -74.199083 
L 158.8682 -73.375009 
L 159.664145 -72.541747 
L 160.46009 -71.809707 
L 161.256034 -71.266851 
L 162.051979 -70.966222 
L 162.847924 -70.915384 
L 163.643868 -71.088203 
L 164.439813 -71.463472 
L 165.235758 -72.060882 
L 166.031702 -72.938085 
L 166.827647 -74.147971 
L 167.623592 -75.690908 
L 168.419537 -77.490838 
L 169.215481 -79.393818 
L 170.011426 -81.177354 
L 170.807371 -82.57496 
L 171.603315 -83.328042 
L 172.39926 -83.257499 
L 173.195205 -82.322532 
L 173.991149 -80.634456 
L 174.787094 -78.421036 
L 175.583039 -75.964555 
L 176.378983 -73.541435 
L 177.174928 -71.379836 
L 177.970873 -69.640458 
L 178.766817 -68.416625 
L 179.562762 -67.740662 
L 180.358707 -67.583759 
L 181.154651 -67.851712 
L 181.950596 -68.39345 
L 182.746541 -69.032453 
L 183.542485 -69.606926 
L 184.33843 -69.99351 
L 185.134375 -70.109506 
L 185.93032 -69.913479 
L 186.726264 -69.418664 
L 187.522209 -68.705619 
L 188.318154 -67.908563 
L 189.114098 -67.172132 
L 189.910043 -66.60605 
L 190.705988 -66.267308 
L 191.501932 -66.172364 
L 192.297877 -66.318194 
L 193.093822 -66.693918 
L 193.889766 -67.282745 
L 194.685711 -68.061257 
L 195.481656 -68.997534 
L 196.2776 -70.046583 
L 197.073545 -71.145383 
L 197.86949 -72.212586 
L 198.665434 -73.156013 
L 199.461379 -73.888707 
L 200.257324 -74.353222 
L 201.053269 -74.549975 
L 201.849213 -74.558401 
L 202.645158 -74.53764 
L 203.441103 -74.701393 
L 204.237047 -75.271737 
L 205.032992 -76.420118 
L 205.828937 -78.205351 
L 206.624881 -80.526028 
L 207.420826 -83.111279 
L 208.216771 -85.563995 
L 209.012715 -87.446221 
L 209.80866 -88.379576 
L 210.604605 -88.138291 
L 211.400549 -86.722683 
L 212.196494 -84.39376 
L 212.992439 -81.635721 
L 213.788383 -79.028782 
L 214.584328 -77.066949 
L 215.380273 -75.997952 
L 216.176218 -75.755332 
L 216.972162 -76.005925 
L 217.768107 -76.283972 
L 218.564052 -76.152982 
L 219.359996 -75.337667 
L 220.155941 -73.789052 
L 220.951886 -71.67137 
L 221.74783 -69.284801 
L 222.543775 -66.958144 
L 223.33972 -64.950259 
L 224.135664 -63.387477 
L 224.931609 -62.248662 
L 225.727554 -61.399102 
L 226.523498 -60.663047 
L 227.319443 -59.906944 
L 228.115388 -59.092837 
L 228.911332 -58.2723 
L 229.707277 -57.527638 
L 230.503222 -56.902652 
L 231.299166 -56.369626 
L 232.095111 -55.851455 
L 232.891056 -55.282581 
L 233.687001 -54.672131 
L 234.482945 -54.13387 
L 235.27889 -53.864259 
L 236.074835 -54.073065 
L 236.870779 -54.892202 
L 237.666724 -56.300513 
L 238.462669 -58.100603 
L 239.258613 -59.967259 
L 240.054558 -61.556441 
L 240.850503 -62.630184 
L 241.646447 -63.137427 
L 242.442392 -63.210881 
L 243.238337 -63.086733 
L 244.034281 -62.994923 
L 244.830226 -63.074235 
L 245.626171 -63.339176 
L 246.422115 -63.695474 
L 247.21806 -63.994818 
L 248.014005 -64.122438 
L 248.80995 -64.093707 
L 249.605894 -64.104962 
L 250.401839 -64.481353 
L 251.197784 -65.521244 
L 251.993728 -67.3174 
L 252.789673 -69.662628 
L 253.585618 -72.094891 
L 254.381562 -74.053153 
L 255.177507 -75.068349 
L 255.973452 -74.925286 
L 256.769396 -73.760211 
L 257.565341 -72.065326 
L 258.361286 -70.56955 
L 259.15723 -69.999091 
L 259.953175 -70.79859 
L 260.74912 -72.944404 
L 261.545064 -75.94286 
L 262.341009 -79.007139 
L 263.136954 -81.324205 
L 263.932898 -82.304762 
L 264.728843 -81.740967 
L 265.524788 -79.837731 
L 266.320733 -77.118293 
L 267.116677 -74.240359 
L 267.912622 -71.788381 
L 268.708567 -70.111324 
L 269.504511 -69.251944 
L 270.300456 -68.982409 
L 271.096401 -68.932632 
L 271.892345 -68.768079 
L 272.68829 -68.345399 
L 273.484235 -67.768144 
L 274.280179 -67.307092 
L 275.076124 -67.230151 
L 275.872069 -67.644207 
L 276.668013 -68.436467 
L 277.463958 -69.333453 
L 278.259903 -70.029888 
L 279.055847 -70.320867 
L 279.851792 -70.189889 
L 280.647737 -69.825718 
L 281.443682 -69.556315 
L 282.239626 -69.715246 
L 283.035571 -70.490579 
L 283.831516 -71.822067 
L 284.62746 -73.39497 
L 285.423405 -74.739213 
L 286.21935 -75.401583 
L 287.015294 -75.128303 
L 287.811239 -73.982125 
L 288.607184 -72.335209 
L 289.403128 -70.733483 
L 290.199073 -69.693008 
L 290.995018 -69.51873 
L 291.790962 -70.214261 
L 292.586907 -71.501352 
L 293.382852 -72.926186 
L 294.178796 -74.013038 
L 294.974741 -74.420842 
L 295.770686 -74.050861 
L 296.56663 -73.057673 
L 297.362575 -71.754261 
L 298.15852 -70.462267 
L 298.954465 -69.389912 
L 299.750409 -68.59312 
L 300.546354 -68.016081 
L 301.342299 -67.566047 
L 302.138243 -67.178487 
L 302.934188 -66.852802 
L 303.730133 -66.652882 
L 304.526077 -66.668472 
L 305.322022 -66.944996 
L 306.117967 -67.417735 
L 306.913911 -67.901404 
L 307.709856 -68.158961 
L 308.505801 -68.019008 
L 309.301745 -67.475091 
L 310.09769 -66.711267 
L 310.893635 -66.042273 
L 311.689579 -65.796738 
L 312.485524 -66.189426 
L 313.281469 -67.230251 
L 314.077414 -68.710137 
L 314.873358 -70.280249 
L 315.669303 -71.598873 
L 316.465248 -72.480141 
L 317.261192 -72.972749 
L 318.057137 -73.33249 
L 318.853082 -73.902958 
L 319.649026 -74.953569 
L 320.444971 -76.534599 
L 321.240916 -78.403309 
L 322.03686 -80.058544 
L 322.832805 -80.888389 
L 323.62875 -80.3872 
L 324.424694 -78.358149 
L 325.220639 -75.016266 
L 326.016584 -70.949246 
L 326.812528 -66.950878 
L 327.608473 -63.783928 
L 328.404418 -61.946549 
L 329.200363 -61.516476 
L 329.996307 -62.130935 
L 330.792252 -63.120011 
L 331.588197 -63.751625 
L 332.384141 -63.494384 
L 333.180086 -62.194341 
L 333.976031 -60.103935 
L 334.771975 -57.768747 
L 335.56792 -55.829657 
L 336.363865 -54.814596 
L 337.159809 -54.981115 
L 337.955754 -56.246872 
L 338.751699 -58.223379 
L 339.547643 -60.346658 
L 340.343588 -62.067316 
L 341.139533 -63.029612 
L 341.935477 -63.163557 
L 342.731422 -62.656792 
L 343.527367 -61.838232 
L 344.323311 -61.041458 
L 345.119256 -60.503128 
L 345.915201 -60.315268 
L 346.711146 -60.4255 
L 347.50709 -60.677743 
L 348.303035 -60.886589 
L 349.09898 -60.921804 
L 349.894924 -60.760794 
L 350.690869 -60.47878 
L 351.486814 -60.188887 
L 352.282758 -59.977427 
L 353.078703 -59.873458 
L 353.874648 -59.859644 
L 354.670592 -59.905574 
L 355.466537 -60.001564 
L 356.262482 -60.180816 
L 357.058426 -60.52336 
L 357.854371 -61.134279 
L 358.650316 -62.09432 
L 359.44626 -63.398203 
L 360.242205 -64.911242 
L 361.03815 -66.372347 
L 361.834095 -67.450424 
L 362.630039 -67.834917 
L 363.425984 -67.325993 
L 364.221929 -65.893788 
L 365.017873 -63.693148 
L 365.813818 -61.036837 
L 366.609763 -58.336668 
L 367.405707 -56.021145 
L 368.201652 -54.441567 
L 368.997597 -53.790602 
L 369.793541 -54.064247 
L 370.589486 -55.083037 
L 371.385431 -56.55674 
L 372.181375 -58.155873 
L 372.97732 -59.565192 
L 373.773265 -60.52417 
L 374.569209 -60.870109 
L 375.365154 -60.580152 
L 376.161099 -59.787942 
L 376.957043 -58.757619 
L 377.752988 -57.824043 
L 378.548933 -57.32244 
L 379.344878 -57.521558 
L 380.140822 -58.562168 
L 380.936767 -60.408608 
L 381.732712 -62.83681 
L 382.528656 -65.479468 
L 383.324601 -67.921001 
L 384.120546 -69.807112 
L 384.91649 -70.930231 
L 385.712435 -71.268156 
L 386.50838 -70.969549 
L 387.304324 -70.289633 
L 388.100269 -69.490819 
L 388.896214 -68.741128 
L 389.692158 -68.054316 
L 390.488103 -67.301177 
L 391.284048 -66.286135 
L 392.079992 -64.852483 
L 392.875937 -62.971862 
L 393.671882 -60.785195 
L 394.467827 -58.581321 
L 395.263771 -56.7197 
L 396.059716 -55.52156 
L 396.855661 -55.165134 
L 397.651605 -55.621718 
L 398.44755 -56.659338 
L 399.243495 -57.919299 
L 400.039439 -59.040001 
L 400.835384 -59.773958 
L 401.631329 -60.042363 
L 402.427273 -59.909896 
L 403.223218 -59.513828 
L 404.019163 -59.000366 
L 404.815107 -58.495989 
L 405.611052 -58.102342 
L 406.406997 -57.889668 
L 407.202941 -57.88433 
L 407.998886 -58.066381 
L 408.794831 -58.384924 
L 409.590775 -58.77822 
L 410.38672 -59.183754 
L 411.182665 -59.543948 
L 411.97861 -59.826408 
L 412.774554 -60.060754 
L 413.570499 -60.365445 
L 413.570499 -105.322211 
L 413.570499 -105.322211 
L 412.774554 -104.898247 
L 411.97861 -104.541459 
L 411.182665 -104.189112 
L 410.38672 -103.835127 
L 409.590775 -103.508284 
L 408.794831 -103.249423 
L 407.998886 -103.09026 
L 407.202941 -103.044382 
L 406.406997 -103.117486 
L 405.611052 -103.3221 
L 404.815107 -103.669149 
L 404.019163 -104.129563 
L 403.223218 -104.597172 
L 402.427273 -104.896336 
L 401.631329 -104.84473 
L 400.835384 -104.336165 
L 400.039439 -103.395614 
L 399.243495 -102.183906 
L 398.44755 -100.962135 
L 397.651605 -100.035583 
L 396.855661 -99.685505 
L 396.059716 -100.092953 
L 395.263771 -101.273675 
L 394.467827 -103.055413 
L 393.671882 -105.119076 
L 392.875937 -107.097243 
L 392.079992 -108.69481 
L 391.284048 -109.782781 
L 390.488103 -110.425438 
L 389.692158 -110.830328 
L 388.896214 -111.244478 
L 388.100269 -111.840592 
L 387.304324 -112.635404 
L 386.50838 -113.466404 
L 385.712435 -114.03564 
L 384.91649 -114.011713 
L 384.120546 -113.15797 
L 383.324601 -111.435741 
L 382.528656 -109.037193 
L 381.732712 -106.336414 
L 380.936767 -103.784997 
L 380.140822 -101.793504 
L 379.344878 -100.631112 
L 378.548933 -100.362847 
L 377.752988 -100.839552 
L 376.957043 -101.748439 
L 376.161099 -102.70895 
L 375.365154 -103.374348 
L 374.569209 -103.501509 
L 373.773265 -102.980748 
L 372.97732 -101.843047 
L 372.181375 -100.258176 
L 371.385431 -98.515081 
L 370.589486 -96.969747 
L 369.793541 -95.966579 
L 368.997597 -95.762315 
L 368.201652 -96.477816 
L 367.405707 -98.079134 
L 366.609763 -100.377086 
L 365.813818 -103.045582 
L 365.017873 -105.671634 
L 364.221929 -107.841407 
L 363.425984 -109.240771 
L 362.630039 -109.730851 
L 361.834095 -109.367373 
L 361.03815 -108.360755 
L 360.242205 -107.000087 
L 359.44626 -105.572583 
L 358.650316 -104.301751 
L 357.854371 -103.314556 
L 357.058426 -102.638653 
L 356.262482 -102.225783 
L 355.466537 -101.993167 
L 354.670592 -101.868168 
L 353.874648 -101.815975 
L 353.078703 -101.835521 
L 352.282758 -101.928925 
L 351.486814 -102.070567 
L 350.690869 -102.202211 
L 349.894924 -102.257826 
L 349.09898 -102.198339 
L 348.303035 -102.034429 
L 347.50709 -101.831562 
L 346.711146 -101.701974 
L 345.915201 -101.779525 
L 345.119256 -102.166468 
L 344.323311 -102.861597 
L 343.527367 -103.710955 
L 342.731422 -104.425241 
L 341.935477 -104.670829 
L 341.139533 -104.195318 
L 340.343588 -102.931097 
L 339.547643 -101.039658 
L 338.751699 -98.890948 
L 337.955754 -96.98581 
L 337.159809 -95.827823 
L 336.363865 -95.764163 
L 335.56792 -96.847183 
L 334.771975 -98.784409 
L 333.976031 -101.017038 
L 333.180086 -102.907761 
L 332.384141 -103.965795 
L 331.588197 -104.021336 
L 330.792252 -103.287279 
L 329.996307 -102.293639 
L 329.200363 -101.721257 
L 328.404418 -102.183569 
L 327.608473 -104.017101 
L 326.812528 -107.147749 
L 326.016584 -111.087877 
L 325.220639 -115.078106 
L 324.424694 -118.328003 
L 323.62875 -120.2641 
L 322.832805 -120.691763 
L 322.03686 -119.81928 
L 321.240916 -118.149155 
L 320.444971 -116.283874 
L 319.649026 -114.714644 
L 318.853082 -113.666508 
L 318.057137 -113.057894 
L 317.261192 -112.589377 
L 316.465248 -111.917288 
L 315.669303 -110.827928 
L 314.873358 -109.334996 
L 314.077414 -107.668966 
L 313.281469 -106.177869 
L 312.485524 -105.186827 
L 311.689579 -104.869435 
L 310.893635 -105.179038 
L 310.09769 -105.869478 
L 309.301745 -106.597647 
L 308.505801 -107.059268 
L 307.709856 -107.09418 
L 306.913911 -106.720399 
L 306.117967 -106.098073 
L 305.322022 -105.452637 
L 304.526077 -104.989412 
L 303.730133 -104.825294 
L 302.934188 -104.960899 
L 302.138243 -105.309925 
L 301.342299 -105.775674 
L 300.546354 -106.327272 
L 299.750409 -107.01879 
L 298.954465 -107.933916 
L 298.15852 -109.096091 
L 297.362575 -110.407169 
L 296.56663 -111.650791 
L 295.770686 -112.553649 
L 294.974741 -112.876194 
L 294.178796 -112.505776 
L 293.382852 -111.526832 
L 292.586907 -110.234225 
L 291.790962 -109.05959 
L 290.995018 -108.419957 
L 290.199073 -108.551823 
L 289.403128 -109.413205 
L 288.607184 -110.700484 
L 287.811239 -111.965879 
L 287.015294 -112.77916 
L 286.21935 -112.871559 
L 285.423405 -112.218147 
L 284.62746 -111.03631 
L 283.831516 -109.698039 
L 283.035571 -108.58263 
L 282.239626 -107.927676 
L 281.443682 -107.743125 
L 280.647737 -107.824584 
L 279.851792 -107.856944 
L 279.055847 -107.563278 
L 278.259903 -106.836455 
L 277.463958 -105.793473 
L 276.668013 -104.721467 
L 275.872069 -103.939477 
L 275.076124 -103.651382 
L 274.280179 -103.867701 
L 273.484235 -104.423258 
L 272.68829 -105.063698 
L 271.892345 -105.556506 
L 271.096401 -105.793646 
L 270.300456 -105.860977 
L 269.504511 -106.04094 
L 268.708567 -106.719221 
L 267.912622 -108.209551 
L 267.116677 -110.568139 
L 266.320733 -113.492747 
L 265.524788 -116.368832 
L 264.728843 -118.456361 
L 263.932898 -119.147755 
L 263.136954 -118.197509 
L 262.341009 -115.83115 
L 261.545064 -112.683911 
L 260.74912 -109.590376 
L 259.953175 -107.313252 
L 259.15723 -106.317128 
L 258.361286 -106.65312 
L 257.565341 -107.966452 
L 256.769396 -109.611973 
L 255.973452 -110.856547 
L 255.177507 -111.124696 
L 254.381562 -110.198114 
L 253.585618 -108.270305 
L 252.789673 -105.827325 
L 251.993728 -103.426393 
L 251.197784 -101.492047 
L 250.401839 -100.211948 
L 249.605894 -99.539159 
L 248.80995 -99.263141 
L 248.014005 -99.113401 
L 247.21806 -98.873032 
L 246.422115 -98.470089 
L 245.626171 -97.998447 
L 244.830226 -97.642312 
L 244.034281 -97.540136 
L 243.238337 -97.671909 
L 242.442392 -97.842069 
L 241.646447 -97.764786 
L 240.850503 -97.195742 
L 240.054558 -96.040324 
L 239.258613 -94.395413 
L 238.462669 -92.51881 
L 237.666724 -90.744925 
L 236.870779 -89.376962 
L 236.074835 -88.592231 
L 235.27889 -88.396106 
L 234.482945 -88.643145 
L 233.687001 -89.11408 
L 232.891056 -89.611157 
L 232.095111 -90.027502 
L 231.299166 -90.363052 
L 230.503222 -90.689711 
L 229.707277 -91.0934 
L 228.911332 -91.626423 
L 228.115388 -92.290305 
L 227.319443 -93.049979 
L 226.523498 -93.868586 
L 225.727554 -94.748436 
L 224.931609 -95.758572 
L 224.135664 -97.025011 
L 223.33972 -98.672012 
L 222.543775 -100.734571 
L 221.74783 -103.091359 
L 220.951886 -105.466217 
L 220.155941 -107.510488 
L 219.359996 -108.933132 
L 218.564052 -109.621287 
L 217.768107 -109.69912 
L 216.972162 -109.49784 
L 216.176218 -109.445626 
L 215.380273 -109.921498 
L 214.584328 -111.131869 
L 213.788383 -113.051237 
L 212.992439 -115.434167 
L 212.196494 -117.879699 
L 211.400549 -119.92433 
L 210.604605 -121.149169 
L 209.80866 -121.287836 
L 209.012715 -120.303967 
L 208.216771 -118.399008 
L 207.420826 -115.940457 
L 206.624881 -113.346334 
L 205.828937 -110.979332 
L 205.032992 -109.08272 
L 204.237047 -107.758842 
L 203.441103 -106.978823 
L 202.645158 -106.615243 
L 201.849213 -106.489719 
L 201.053269 -106.421083 
L 200.257324 -106.259688 
L 199.461379 -105.904009 
L 198.665434 -105.305291 
L 197.86949 -104.46498 
L 197.073545 -103.425068 
L 196.2776 -102.252971 
L 195.481656 -101.027059 
L 194.685711 -99.828247 
L 193.889766 -98.737865 
L 193.093822 -97.838516 
L 192.297877 -97.213317 
L 191.501932 -96.937099 
L 190.705988 -97.055098 
L 189.910043 -97.556689 
L 189.114098 -98.363666 
L 188.318154 -99.34521 
L 187.522209 -100.348819 
L 186.726264 -101.225889 
L 185.93032 -101.845442 
L 185.134375 -102.109467 
L 184.33843 -101.980095 
L 183.542485 -101.503989 
L 182.746541 -100.807416 
L 181.950596 -100.057119 
L 181.154651 -99.414639 
L 180.358707 -99.015637 
L 179.562762 -98.975105 
L 178.766817 -99.392304 
L 177.970873 -100.336017 
L 177.174928 -101.816261 
L 176.378983 -103.761724 
L 175.583039 -106.014919 
L 174.787094 -108.345855 
L 173.991149 -110.482533 
L 173.195205 -112.155238 
L 172.39926 -113.144629 
L 171.603315 -113.320433 
L 170.807371 -112.665555 
L 170.011426 -111.286199 
L 169.215481 -109.401232 
L 168.419537 -107.298617 
L 167.623592 -105.262498 
L 166.827647 -103.502012 
L 166.031702 -102.120661 
L 165.235758 -101.136296 
L 164.439813 -100.52288 
L 163.643868 -100.239731 
L 162.847924 -100.242827 
L 162.051979 -100.492441 
L 161.256034 -100.958187 
L 160.46009 -101.607345 
L 159.664145 -102.377788 
L 158.8682 -103.16401 
L 158.072256 -103.841833 
L 157.276311 -104.318799 
L 156.480366 -104.566328 
L 155.684422 -104.604922 
L 154.888477 -104.461585 
L 154.092532 -104.145255 
L 153.296588 -103.658468 
L 152.500643 -103.02004 
L 151.704698 -102.268813 
L 150.908753 -101.449119 
L 150.112809 -100.606174 
L 149.316864 -99.811333 
L 148.520919 -99.19683 
L 147.724975 -98.955944 
L 146.92903 -99.286916 
L 146.133085 -100.302191 
L 145.337141 -101.953774 
L 144.541196 -104.022754 
L 143.745251 -106.184202 
L 142.949307 -108.112954 
L 142.153362 -109.577788 
L 141.357417 -110.488313 
L 140.561473 -110.888163 
L 139.765528 -110.907891 
L 138.969583 -110.696108 
L 138.173639 -110.348437 
L 137.377694 -109.86023 
L 136.581749 -109.130842 
L 135.785805 -108.026308 
L 134.98986 -106.470326 
L 134.193915 -104.513178 
L 133.39797 -102.344367 
L 132.602026 -100.251134 
L 131.806081 -98.547913 
L 131.010136 -97.497252 
L 130.214192 -97.234227 
L 129.418247 -97.716665 
L 128.622302 -98.733464 
L 127.826358 -99.979642 
L 127.030413 -101.159959 
L 126.234468 -102.061344 
L 125.438524 -102.564641 
L 124.642579 -102.624176 
L 123.846634 -102.265763 
L 123.05069 -101.607789 
L 122.254745 -100.860749 
L 121.4588 -100.275738 
L 120.662856 -100.066625 
L 119.866911 -100.358594 
L 119.070966 -101.182959 
L 118.275021 -102.486137 
L 117.479077 -104.120918 
L 116.683132 -105.835187 
L 115.887187 -107.300429 
L 115.091243 -108.194611 
L 114.295298 -108.304794 
L 113.499353 -107.597156 
L 112.703409 -106.225068 
L 111.907464 -104.481402 
L 111.111519 -102.721499 
L 110.315575 -101.280093 
L 109.51963 -100.395111 
L 108.723685 -100.149579 
L 107.927741 -100.445923 
L 107.131796 -101.027028 
L 106.335851 -101.551944 
L 105.539907 -101.712556 
L 104.743962 -101.345181 
L 103.948017 -100.481629 
L 103.152073 -99.319199 
L 102.356128 -98.138641 
L 101.560183 -97.216006 
L 100.764238 -96.753201 
L 99.968294 -96.829893 
L 99.172349 -97.381364 
L 98.376404 -98.21756 
L 97.58046 -99.087053 
L 96.784515 -99.756689 
L 95.98857 -100.065424 
L 95.192626 -99.939398 
L 94.396681 -99.387903 
L 93.600736 -98.498735 
L 92.804792 -97.427997 
L 92.008847 -96.371445 
L 91.212902 -95.522759 
L 90.416958 -95.039807 
L 89.621013 -95.025379 
L 88.825068 -95.504394 
L 88.029124 -96.388096 
L 87.233179 -97.452798 
L 86.437234 -98.376034 
L 85.641289 -98.837253 
L 84.845345 -98.639175 
L 84.0494 -97.791092 
L 83.253455 -96.519805 
L 82.457511 -95.210814 
L 81.661566 -94.307616 
L 80.865621 -94.198494 
L 80.069677 -95.111263 
L 79.273732 -97.037081 
L 78.477787 -99.709527 
L 77.681843 -102.659568 
L 76.885898 -105.344179 
L 76.089953 -107.310391 
L 75.294009 -108.331013 
L 74.498064 -108.457954 
L 73.702119 -107.977767 
L 72.906175 -107.294651 
L 72.11023 -106.787321 
L 71.314285 -106.686759 
L 70.51834 -107.013387 
L 69.722396 -107.595876 
L 68.926451 -108.161977 
L 68.130506 -108.455926 
L 67.334562 -108.324042 
L 66.538617 -107.736596 
L 65.742672 -106.766903 
L 64.946728 -105.570428 
L 64.150783 -104.363627 
L 63.354838 -103.370729 
L 62.558894 -102.745147 
L 61.762949 -102.518426 
L 60.967004 -102.612692 
L 60.17106 -102.892566 
L 59.375115 -103.206057 
L 58.57917 -103.399777 
L 57.783226 -103.343823 
L 56.987281 -102.990511 
L 56.191336 -102.424668 
L 55.395392 -101.845469 
L 54.599447 -101.485569 
L 53.803502 -101.536881 
L 53.007557 -102.127788 
L 52.211613 -103.32128 
L 51.415668 -105.085908 
L 50.619723 -107.249088 
L 49.823779 -109.502722 
L 49.027834 -111.502358 
L 48.231889 -113.000738 
L 47.435945 -113.920776 
L 46.64 -114.330195 
z
" style="stroke: #377eb8; stroke-opacity: 0.3"/>
    </defs>
    <g clip-path="url(#pc403bbf370)">
     <use xlink:href="#m681007884b" x="0" y="360" style="fill: #377eb8; fill-opacity: 0.3; stroke: #377eb8; stroke-opacity: 0.3"/>
    </g>
   </g>
   <g id="patch_3">
    <path d="M 229.866466 318.04 
L 229.866466 71.732 
L 331.747385 71.732 
L 331.747385 318.04 
z
" clip-path="url(#pc403bbf370)" style="fill: #808080; opacity: 0.3"/>
   </g>
   <g id="matplotlib.axis_1">
    <g id="xtick_1">
     <g id="line2d_1">
      <defs>
       <path id="mb55ff74643" d="M 0 0 
L 0 3.5 
" style="stroke: #000000; stroke-width: 0.8"/>
      </defs>
      <g>
       <use xlink:href="#mb55ff74643" x="87.233179" y="318.04" style="stroke: #000000; stroke-width: 0.8"/>
      </g>
     </g>
     <g id="text_1">
      <!-- 0.0 -->
      <g transform="translate(79.281616 332.638438)scale(0.1 -0.1)">
       <defs>
        <path id="DejaVuSans-30" d="M 2034 4250 
Q 1547 4250 1301 3770 
Q 1056 3291 1056 2328 
Q 1056 1369 1301 889 
Q 1547 409 2034 409 
Q 2525 409 2770 889 
Q 3016 1369 3016 2328 
Q 3016 3291 2770 3770 
Q 2525 4250 2034 4250 
z
M 2034 4750 
Q 2819 4750 3233 4129 
Q 3647 3509 3647 2328 
Q 3647 1150 3233 529 
Q 2819 -91 2034 -91 
Q 1250 -91 836 529 
Q 422 1150 422 2328 
Q 422 3509 836 4129 
Q 1250 4750 2034 4750 
z
" transform="scale(0.015625)"/>
        <path id="DejaVuSans-2e" d="M 684 794 
L 1344 794 
L 1344 0 
L 684 0 
L 684 794 
z
" transform="scale(0.015625)"/>
       </defs>
       <use xlink:href="#DejaVuSans-30"/>
       <use xlink:href="#DejaVuSans-2e" x="63.623047"/>
       <use xlink:href="#DejaVuSans-30" x="95.410156"/>
      </g>
     </g>
    </g>
    <g id="xtick_2">
     <g id="line2d_2">
      <g>
       <use xlink:href="#mb55ff74643" x="168.737914" y="318.04" style="stroke: #000000; stroke-width: 0.8"/>
      </g>
     </g>
     <g id="text_2">
      <!-- 0.2 -->
      <g transform="translate(160.786352 332.638438)scale(0.1 -0.1)">
       <defs>
        <path id="DejaVuSans-32" d="M 1228 531 
L 3431 531 
L 3431 0 
L 469 0 
L 469 531 
Q 828 903 1448 1529 
Q 2069 2156 2228 2338 
Q 2531 2678 2651 2914 
Q 2772 3150 2772 3378 
Q 2772 3750 2511 3984 
Q 2250 4219 1831 4219 
Q 1534 4219 1204 4116 
Q 875 4013 500 3803 
L 500 4441 
Q 881 4594 1212 4672 
Q 1544 4750 1819 4750 
Q 2544 4750 2975 4387 
Q 3406 4025 3406 3419 
Q 3406 3131 3298 2873 
Q 3191 2616 2906 2266 
Q 2828 2175 2409 1742 
Q 1991 1309 1228 531 
z
" transform="scale(0.015625)"/>
       </defs>
       <use xlink:href="#DejaVuSans-30"/>
       <use xlink:href="#DejaVuSans-2e" x="63.623047"/>
       <use xlink:href="#DejaVuSans-32" x="95.410156"/>
      </g>
     </g>
    </g>
    <g id="xtick_3">
     <g id="line2d_3">
      <g>
       <use xlink:href="#mb55ff74643" x="250.24265" y="318.04" style="stroke: #000000; stroke-width: 0.8"/>
      </g>
     </g>
     <g id="text_3">
      <!-- 0.4 -->
      <g transform="translate(242.291087 332.638438)scale(0.1 -0.1)">
       <defs>
        <path id="DejaVuSans-34" d="M 2419 4116 
L 825 1625 
L 2419 1625 
L 2419 4116 
z
M 2253 4666 
L 3047 4666 
L 3047 1625 
L 3713 1625 
L 3713 1100 
L 3047 1100 
L 3047 0 
L 2419 0 
L 2419 1100 
L 313 1100 
L 313 1709 
L 2253 4666 
z
" transform="scale(0.015625)"/>
       </defs>
       <use xlink:href="#DejaVuSans-30"/>
       <use xlink:href="#DejaVuSans-2e" x="63.623047"/>
       <use xlink:href="#DejaVuSans-34" x="95.410156"/>
      </g>
     </g>
    </g>
    <g id="xtick_4">
     <g id="line2d_4">
      <g>
       <use xlink:href="#mb55ff74643" x="331.747385" y="318.04" style="stroke: #000000; stroke-width: 0.8"/>
      </g>
     </g>
     <g id="text_4">
      <!-- 0.6 -->
      <g transform="translate(323.795823 332.638438)scale(0.1 -0.1)">
       <defs>
        <path id="DejaVuSans-36" d="M 2113 2584 
Q 1688 2584 1439 2293 
Q 1191 2003 1191 1497 
Q 1191 994 1439 701 
Q 1688 409 2113 409 
Q 2538 409 2786 701 
Q 3034 994 3034 1497 
Q 3034 2003 2786 2293 
Q 2538 2584 2113 2584 
z
M 3366 4563 
L 3366 3988 
Q 3128 4100 2886 4159 
Q 2644 4219 2406 4219 
Q 1781 4219 1451 3797 
Q 1122 3375 1075 2522 
Q 1259 2794 1537 2939 
Q 1816 3084 2150 3084 
Q 2853 3084 3261 2657 
Q 3669 2231 3669 1497 
Q 3669 778 3244 343 
Q 2819 -91 2113 -91 
Q 1303 -91 875 529 
Q 447 1150 447 2328 
Q 447 3434 972 4092 
Q 1497 4750 2381 4750 
Q 2619 4750 2861 4703 
Q 3103 4656 3366 4563 
z
" transform="scale(0.015625)"/>
       </defs>
       <use xlink:href="#DejaVuSans-30"/>
       <use xlink:href="#DejaVuSans-2e" x="63.623047"/>
       <use xlink:href="#DejaVuSans-36" x="95.410156"/>
      </g>
     </g>
    </g>
    <g id="xtick_5">
     <g id="line2d_5">
      <g>
       <use xlink:href="#mb55ff74643" x="413.252121" y="318.04" style="stroke: #000000; stroke-width: 0.8"/>
      </g>
     </g>
     <g id="text_5">
      <!-- 0.8 -->
      <g transform="translate(405.300559 332.638438)scale(0.1 -0.1)">
       <defs>
        <path id="DejaVuSans-38" d="M 2034 2216 
Q 1584 2216 1326 1975 
Q 1069 1734 1069 1313 
Q 1069 891 1326 650 
Q 1584 409 2034 409 
Q 2484 409 2743 651 
Q 3003 894 3003 1313 
Q 3003 1734 2745 1975 
Q 2488 2216 2034 2216 
z
M 1403 2484 
Q 997 2584 770 2862 
Q 544 3141 544 3541 
Q 544 4100 942 4425 
Q 1341 4750 2034 4750 
Q 2731 4750 3128 4425 
Q 3525 4100 3525 3541 
Q 3525 3141 3298 2862 
Q 3072 2584 2669 2484 
Q 3125 2378 3379 2068 
Q 3634 1759 3634 1313 
Q 3634 634 3220 271 
Q 2806 -91 2034 -91 
Q 1263 -91 848 271 
Q 434 634 434 1313 
Q 434 1759 690 2068 
Q 947 2378 1403 2484 
z
M 1172 3481 
Q 1172 3119 1398 2916 
Q 1625 2713 2034 2713 
Q 2441 2713 2670 2916 
Q 2900 3119 2900 3481 
Q 2900 3844 2670 4047 
Q 2441 4250 2034 4250 
Q 1625 4250 1398 4047 
Q 1172 3844 1172 3481 
z
" transform="scale(0.015625)"/>
       </defs>
       <use xlink:href="#DejaVuSans-30"/>
       <use xlink:href="#DejaVuSans-2e" x="63.623047"/>
       <use xlink:href="#DejaVuSans-38" x="95.410156"/>
      </g>
     </g>
    </g>
    <g id="text_6">
     <!-- seconds -->
     <g transform="translate(209.667749 346.316563)scale(0.1 -0.1)">
      <defs>
       <path id="DejaVuSans-73" d="M 2834 3397 
L 2834 2853 
Q 2591 2978 2328 3040 
Q 2066 3103 1784 3103 
Q 1356 3103 1142 2972 
Q 928 2841 928 2578 
Q 928 2378 1081 2264 
Q 1234 2150 1697 2047 
L 1894 2003 
Q 2506 1872 2764 1633 
Q 3022 1394 3022 966 
Q 3022 478 2636 193 
Q 2250 -91 1575 -91 
Q 1294 -91 989 -36 
Q 684 19 347 128 
L 347 722 
Q 666 556 975 473 
Q 1284 391 1588 391 
Q 1994 391 2212 530 
Q 2431 669 2431 922 
Q 2431 1156 2273 1281 
Q 2116 1406 1581 1522 
L 1381 1569 
Q 847 1681 609 1914 
Q 372 2147 372 2553 
Q 372 3047 722 3315 
Q 1072 3584 1716 3584 
Q 2034 3584 2315 3537 
Q 2597 3491 2834 3397 
z
" transform="scale(0.015625)"/>
       <path id="DejaVuSans-65" d="M 3597 1894 
L 3597 1613 
L 953 1613 
Q 991 1019 1311 708 
Q 1631 397 2203 397 
Q 2534 397 2845 478 
Q 3156 559 3463 722 
L 3463 178 
Q 3153 47 2828 -22 
Q 2503 -91 2169 -91 
Q 1331 -91 842 396 
Q 353 884 353 1716 
Q 353 2575 817 3079 
Q 1281 3584 2069 3584 
Q 2775 3584 3186 3129 
Q 3597 2675 3597 1894 
z
M 3022 2063 
Q 3016 2534 2758 2815 
Q 2500 3097 2075 3097 
Q 1594 3097 1305 2825 
Q 1016 2553 972 2059 
L 3022 2063 
z
" transform="scale(0.015625)"/>
       <path id="DejaVuSans-63" d="M 3122 3366 
L 3122 2828 
Q 2878 2963 2633 3030 
Q 2388 3097 2138 3097 
Q 1578 3097 1268 2742 
Q 959 2388 959 1747 
Q 959 1106 1268 751 
Q 1578 397 2138 397 
Q 2388 397 2633 464 
Q 2878 531 3122 666 
L 3122 134 
Q 2881 22 2623 -34 
Q 2366 -91 2075 -91 
Q 1284 -91 818 406 
Q 353 903 353 1747 
Q 353 2603 823 3093 
Q 1294 3584 2113 3584 
Q 2378 3584 2631 3529 
Q 2884 3475 3122 3366 
z
" transform="scale(0.015625)"/>
       <path id="DejaVuSans-6f" d="M 1959 3097 
Q 1497 3097 1228 2736 
Q 959 2375 959 1747 
Q 959 1119 1226 758 
Q 1494 397 1959 397 
Q 2419 397 2687 759 
Q 2956 1122 2956 1747 
Q 2956 2369 2687 2733 
Q 2419 3097 1959 3097 
z
M 1959 3584 
Q 2709 3584 3137 3096 
Q 3566 2609 3566 1747 
Q 3566 888 3137 398 
Q 2709 -91 1959 -91 
Q 1206 -91 779 398 
Q 353 888 353 1747 
Q 353 2609 779 3096 
Q 1206 3584 1959 3584 
z
" transform="scale(0.015625)"/>
       <path id="DejaVuSans-6e" d="M 3513 2113 
L 3513 0 
L 2938 0 
L 2938 2094 
Q 2938 2591 2744 2837 
Q 2550 3084 2163 3084 
Q 1697 3084 1428 2787 
Q 1159 2491 1159 1978 
L 1159 0 
L 581 0 
L 581 3500 
L 1159 3500 
L 1159 2956 
Q 1366 3272 1645 3428 
Q 1925 3584 2291 3584 
Q 2894 3584 3203 3211 
Q 3513 2838 3513 2113 
z
" transform="scale(0.015625)"/>
       <path id="DejaVuSans-64" d="M 2906 2969 
L 2906 4863 
L 3481 4863 
L 3481 0 
L 2906 0 
L 2906 525 
Q 2725 213 2448 61 
Q 2172 -91 1784 -91 
Q 1150 -91 751 415 
Q 353 922 353 1747 
Q 353 2572 751 3078 
Q 1150 3584 1784 3584 
Q 2172 3584 2448 3432 
Q 2725 3281 2906 2969 
z
M 947 1747 
Q 947 1113 1208 752 
Q 1469 391 1925 391 
Q 2381 391 2643 752 
Q 2906 1113 2906 1747 
Q 2906 2381 2643 2742 
Q 2381 3103 1925 3103 
Q 1469 3103 1208 2742 
Q 947 2381 947 1747 
z
" transform="scale(0.015625)"/>
      </defs>
      <use xlink:href="#DejaVuSans-73"/>
      <use xlink:href="#DejaVuSans-65" x="52.099609"/>
      <use xlink:href="#DejaVuSans-63" x="113.623047"/>
      <use xlink:href="#DejaVuSans-6f" x="168.603516"/>
      <use xlink:href="#DejaVuSans-6e" x="229.785156"/>
      <use xlink:href="#DejaVuSans-64" x="293.164062"/>
      <use xlink:href="#DejaVuSans-73" x="356.640625"/>
     </g>
    </g>
   </g>
   <g id="matplotlib.axis_2">
    <g id="ytick_1">
     <g id="line2d_6">
      <defs>
       <path id="m69824eca16" d="M 0 0 
L -3.5 0 
" style="stroke: #000000; stroke-width: 0.8"/>
      </defs>
      <g>
       <use xlink:href="#m69824eca16" x="46.64" y="296.665336" style="stroke: #000000; stroke-width: 0.8"/>
      </g>
     </g>
     <g id="text_7">
      <!-- 1 -->
      <g transform="translate(24.897813 300.464554)scale(0.1 -0.1)">
       <defs>
        <path id="DejaVuSans-2212" d="M 678 2272 
L 4684 2272 
L 4684 1741 
L 678 1741 
L 678 2272 
z
" transform="scale(0.015625)"/>
        <path id="DejaVuSans-31" d="M 794 531 
L 1825 531 
L 1825 4091 
L 703 3866 
L 703 4441 
L 1819 4666 
L 2450 4666 
L 2450 531 
L 3481 531 
L 3481 0 
L 794 0 
L 794 531 
z
" transform="scale(0.015625)"/>
       </defs>
       <use xlink:href="#DejaVuSans-2212"/>
       <use xlink:href="#DejaVuSans-31" x="83.789062"/>
      </g>
     </g>
    </g>
    <g id="ytick_2">
     <g id="line2d_7">
      <g>
       <use xlink:href="#m69824eca16" x="46.64" y="264.148535" style="stroke: #000000; stroke-width: 0.8"/>
      </g>
     </g>
     <g id="text_8">
      <!-- 0 -->
      <g transform="translate(33.2775 267.947754)scale(0.1 -0.1)">
       <use xlink:href="#DejaVuSans-30"/>
      </g>
     </g>
    </g>
    <g id="ytick_3">
     <g id="line2d_8">
      <g>
       <use xlink:href="#m69824eca16" x="46.64" y="231.631734" style="stroke: #000000; stroke-width: 0.8"/>
      </g>
     </g>
     <g id="text_9">
      <!-- 1 -->
      <g transform="translate(33.2775 235.430953)scale(0.1 -0.1)">
       <use xlink:href="#DejaVuSans-31"/>
      </g>
     </g>
    </g>
    <g id="ytick_4">
     <g id="line2d_9">
      <g>
       <use xlink:href="#m69824eca16" x="46.64" y="199.114933" style="stroke: #000000; stroke-width: 0.8"/>
      </g>
     </g>
     <g id="text_10">
      <!-- 2 -->
      <g transform="translate(33.2775 202.914152)scale(0.1 -0.1)">
       <use xlink:href="#DejaVuSans-32"/>
      </g>
     </g>
    </g>
    <g id="ytick_5">
     <g id="line2d_10">
      <g>
       <use xlink:href="#m69824eca16" x="46.64" y="166.598132" style="stroke: #000000; stroke-width: 0.8"/>
      </g>
     </g>
     <g id="text_11">
      <!-- 3 -->
      <g transform="translate(33.2775 170.397351)scale(0.1 -0.1)">
       <defs>
        <path id="DejaVuSans-33" d="M 2597 2516 
Q 3050 2419 3304 2112 
Q 3559 1806 3559 1356 
Q 3559 666 3084 287 
Q 2609 -91 1734 -91 
Q 1441 -91 1130 -33 
Q 819 25 488 141 
L 488 750 
Q 750 597 1062 519 
Q 1375 441 1716 441 
Q 2309 441 2620 675 
Q 2931 909 2931 1356 
Q 2931 1769 2642 2001 
Q 2353 2234 1838 2234 
L 1294 2234 
L 1294 2753 
L 1863 2753 
Q 2328 2753 2575 2939 
Q 2822 3125 2822 3475 
Q 2822 3834 2567 4026 
Q 2313 4219 1838 4219 
Q 1578 4219 1281 4162 
Q 984 4106 628 3988 
L 628 4550 
Q 988 4650 1302 4700 
Q 1616 4750 1894 4750 
Q 2613 4750 3031 4423 
Q 3450 4097 3450 3541 
Q 3450 3153 3228 2886 
Q 3006 2619 2597 2516 
z
" transform="scale(0.015625)"/>
       </defs>
       <use xlink:href="#DejaVuSans-33"/>
      </g>
     </g>
    </g>
    <g id="ytick_6">
     <g id="line2d_11">
      <g>
       <use xlink:href="#m69824eca16" x="46.64" y="134.081332" style="stroke: #000000; stroke-width: 0.8"/>
      </g>
     </g>
     <g id="text_12">
      <!-- 4 -->
      <g transform="translate(33.2775 137.88055)scale(0.1 -0.1)">
       <use xlink:href="#DejaVuSans-34"/>
      </g>
     </g>
    </g>
    <g id="ytick_7">
     <g id="line2d_12">
      <g>
       <use xlink:href="#m69824eca16" x="46.64" y="101.564531" style="stroke: #000000; stroke-width: 0.8"/>
      </g>
     </g>
     <g id="text_13">
      <!-- 5 -->
      <g transform="translate(33.2775 105.36375)scale(0.1 -0.1)">
       <defs>
        <path id="DejaVuSans-35" d="M 691 4666 
L 3169 4666 
L 3169 4134 
L 1269 4134 
L 1269 2991 
Q 1406 3038 1543 3061 
Q 1681 3084 1819 3084 
Q 2600 3084 3056 2656 
Q 3513 2228 3513 1497 
Q 3513 744 3044 326 
Q 2575 -91 1722 -91 
Q 1428 -91 1123 -41 
Q 819 9 494 109 
L 494 744 
Q 775 591 1075 516 
Q 1375 441 1709 441 
Q 2250 441 2565 725 
Q 2881 1009 2881 1497 
Q 2881 1984 2565 2268 
Q 2250 2553 1709 2553 
Q 1456 2553 1204 2497 
Q 953 2441 691 2322 
L 691 4666 
z
" transform="scale(0.015625)"/>
       </defs>
       <use xlink:href="#DejaVuSans-35"/>
      </g>
     </g>
    </g>
    <g id="text_14">
     <!-- V -->
     <g transform="translate(18.818125 201.487562)rotate(-90)scale(0.1 -0.1)">
      <defs>
       <path id="DejaVuSans-b5" d="M 544 -1331 
L 544 3500 
L 1119 3500 
L 1119 1325 
Q 1119 872 1334 640 
Q 1550 409 1972 409 
Q 2434 409 2667 671 
Q 2900 934 2900 1459 
L 2900 3500 
L 3475 3500 
L 3475 806 
Q 3475 619 3529 530 
Q 3584 441 3700 441 
Q 3728 441 3778 458 
Q 3828 475 3916 513 
L 3916 50 
Q 3788 -22 3673 -56 
Q 3559 -91 3450 -91 
Q 3234 -91 3106 31 
Q 2978 153 2931 403 
Q 2775 156 2548 32 
Q 2322 -91 2016 -91 
Q 1697 -91 1473 31 
Q 1250 153 1119 397 
L 1119 -1331 
L 544 -1331 
z
" transform="scale(0.015625)"/>
       <path id="DejaVuSans-56" d="M 1831 0 
L 50 4666 
L 709 4666 
L 2188 738 
L 3669 4666 
L 4325 4666 
L 2547 0 
L 1831 0 
z
" transform="scale(0.015625)"/>
      </defs>
      <use xlink:href="#DejaVuSans-b5"/>
      <use xlink:href="#DejaVuSans-56" x="63.623047"/>
     </g>
    </g>
   </g>
   <g id="line2d_13">
    <path d="M 46.64 266.561121 
L 47.435945 268.758381 
L 48.231889 270.455007 
L 49.027834 271.134323 
L 49.823779 270.696534 
L 50.619723 269.46573 
L 51.415668 268.025705 
L 52.211613 266.961774 
L 53.007557 266.62333 
L 53.803502 267.008687 
L 55.395392 268.632394 
L 56.191336 269.154913 
L 57.783226 269.476294 
L 58.57917 269.907853 
L 59.375115 270.937661 
L 61.762949 275.896048 
L 62.558894 276.410691 
L 63.354838 275.665797 
L 64.150783 273.840532 
L 64.946728 271.559165 
L 65.742672 269.650617 
L 66.538617 268.784342 
L 67.334562 269.136606 
L 68.130506 270.242603 
L 68.926451 271.120627 
L 69.722396 270.641245 
L 70.51834 268.00541 
L 71.314285 263.137968 
L 72.906175 250.513429 
L 73.702119 245.844105 
L 74.498064 244.065104 
L 75.294009 245.570266 
L 76.089953 249.730917 
L 77.681843 259.89369 
L 78.477787 262.633955 
L 79.273732 262.610816 
L 80.069677 260.100894 
L 81.661566 252.436838 
L 82.457511 250.125308 
L 83.253455 250.016898 
L 84.0494 252.051526 
L 86.437234 261.997113 
L 87.233179 263.35164 
L 88.029124 263.072867 
L 88.825068 261.510364 
L 91.212902 254.948695 
L 92.804792 251.941506 
L 94.396681 248.952857 
L 97.58046 241.625161 
L 98.376404 240.684893 
L 99.172349 240.576182 
L 99.968294 241.441106 
L 100.764238 243.330137 
L 101.560183 246.166342 
L 103.948017 256.949546 
L 104.743962 259.401954 
L 105.539907 260.306334 
L 106.335851 259.400566 
L 107.131796 256.830836 
L 109.51963 246.001635 
L 110.315575 244.13279 
L 111.111519 243.931148 
L 111.907464 245.198414 
L 113.499353 249.557606 
L 114.295298 251.174916 
L 115.091243 251.814106 
L 115.887187 251.529699 
L 117.479077 250.122666 
L 118.275021 250.216977 
L 119.070966 251.350812 
L 119.866911 253.43568 
L 121.4588 258.275307 
L 122.254745 259.527494 
L 123.05069 259.193407 
L 123.846634 257.120747 
L 124.642579 253.634456 
L 126.234468 245.642882 
L 127.030413 243.095131 
L 127.826358 242.525564 
L 128.622302 244.137077 
L 129.418247 247.566145 
L 131.010136 256.187918 
L 131.806081 259.169359 
L 132.602026 260.167881 
L 133.39797 259.020176 
L 134.193915 256.19175 
L 135.785805 249.583985 
L 136.581749 248.065782 
L 137.377694 248.740029 
L 138.173639 251.655423 
L 138.969583 256.276487 
L 140.561473 266.776493 
L 141.357417 270.728812 
L 142.153362 273.026793 
L 142.949307 273.615883 
L 143.745251 272.810388 
L 144.541196 271.129309 
L 146.133085 267.185995 
L 146.92903 265.597884 
L 147.724975 264.442199 
L 148.520919 263.717127 
L 149.316864 263.389807 
L 150.112809 263.432982 
L 150.908753 263.825702 
L 151.704698 264.532201 
L 153.296588 266.572112 
L 154.888477 268.681068 
L 155.684422 269.476386 
L 156.480366 269.959975 
L 157.276311 270.006018 
L 158.072256 269.452907 
L 158.8682 268.123056 
L 159.664145 265.885431 
L 160.46009 262.744805 
L 162.847924 251.162133 
L 163.643868 248.446634 
L 164.439813 247.116256 
L 165.235758 247.207643 
L 166.031702 248.321863 
L 166.827647 249.708129 
L 167.623592 250.485193 
L 168.419537 249.93372 
L 169.215481 247.758382 
L 170.011426 244.221499 
L 171.603315 236.416277 
L 172.39926 234.188723 
L 173.195205 234.025105 
L 173.991149 235.959514 
L 174.787094 239.428338 
L 176.378983 246.898588 
L 177.174928 248.88403 
L 177.970873 248.941921 
L 178.766817 247.156813 
L 181.154651 237.604887 
L 181.950596 235.863583 
L 182.746541 235.858128 
L 183.542485 237.734907 
L 184.33843 241.331766 
L 185.134375 246.244118 
L 187.522209 262.863556 
L 188.318154 266.939777 
L 189.114098 269.502685 
L 189.910043 270.429288 
L 190.705988 269.908719 
L 191.501932 268.421229 
L 192.297877 266.636236 
L 193.093822 265.243855 
L 193.889766 264.761621 
L 194.685711 265.375314 
L 195.481656 266.871195 
L 196.2776 268.691615 
L 197.073545 270.103811 
L 197.86949 270.430437 
L 198.665434 269.267457 
L 199.461379 266.618134 
L 201.849213 255.176521 
L 202.645158 252.612255 
L 203.441103 251.454176 
L 204.237047 251.631471 
L 205.032992 252.719856 
L 205.828937 254.078871 
L 206.624881 255.036862 
L 207.420826 255.069514 
L 208.216771 253.926955 
L 209.012715 251.684689 
L 211.400549 242.945795 
L 212.196494 241.331219 
L 212.992439 241.079382 
L 213.788383 242.225988 
L 214.584328 244.49587 
L 216.176218 250.193039 
L 216.972162 252.382759 
L 217.768107 253.545514 
L 218.564052 253.598108 
L 219.359996 252.767818 
L 220.951886 250.248971 
L 221.74783 249.36182 
L 222.543775 248.878459 
L 223.33972 248.550431 
L 224.135664 247.94078 
L 224.931609 246.615255 
L 225.727554 244.3422 
L 227.319443 237.665723 
L 228.115388 234.290996 
L 228.911332 231.665744 
L 229.707277 230.109348 
L 230.503222 229.569087 
L 232.095111 229.783265 
L 232.891056 229.473005 
L 233.687001 228.505511 
L 235.27889 225.557426 
L 236.074835 224.616145 
L 236.870779 224.635821 
L 237.666724 225.680455 
L 239.258613 229.169324 
L 240.054558 230.261382 
L 240.850503 230.164626 
L 241.646447 228.735133 
L 242.442392 226.235755 
L 244.034281 220.282897 
L 244.830226 217.897334 
L 245.626171 216.22139 
L 246.422115 215.128776 
L 248.80995 212.578968 
L 250.401839 210.609862 
L 251.197784 209.896795 
L 252.789673 208.772245 
L 253.585618 207.617361 
L 254.381562 205.432818 
L 255.177507 201.940704 
L 255.973452 197.235379 
L 257.565341 186.534675 
L 258.361286 182.23978 
L 259.15723 179.619485 
L 259.953175 178.927654 
L 260.74912 179.926846 
L 263.136954 186.312559 
L 263.932898 187.583979 
L 264.728843 188.225614 
L 265.524788 188.609363 
L 266.320733 189.186402 
L 267.116677 190.239579 
L 268.708567 193.202361 
L 269.504511 194.091672 
L 270.300456 193.822316 
L 271.096401 192.144813 
L 271.892345 189.268554 
L 273.484235 182.674334 
L 274.280179 180.545984 
L 275.076124 179.782895 
L 275.872069 180.172714 
L 276.668013 181.026305 
L 277.463958 181.460746 
L 278.259903 180.787678 
L 279.055847 178.850993 
L 280.647737 173.776451 
L 281.443682 172.871508 
L 282.239626 174.277161 
L 283.035571 178.039899 
L 284.62746 188.341698 
L 285.423405 191.396772 
L 286.21935 190.993874 
L 287.015294 186.652374 
L 287.811239 179.086089 
L 289.403128 161.642523 
L 290.199073 155.881469 
L 290.995018 153.775359 
L 291.790962 155.165851 
L 294.178796 165.983503 
L 294.974741 166.929658 
L 295.770686 165.941282 
L 296.56663 164.037677 
L 297.362575 162.66397 
L 298.15852 163.076205 
L 298.954465 165.836181 
L 299.750409 170.614002 
L 301.342299 181.772198 
L 302.138243 185.803535 
L 302.934188 188.066691 
L 303.730133 188.896034 
L 304.526077 189.102209 
L 305.322022 189.525817 
L 306.117967 190.598748 
L 306.913911 192.111167 
L 307.709856 193.288229 
L 308.505801 193.142668 
L 309.301745 190.948348 
L 310.09769 186.62711 
L 311.689579 174.993213 
L 312.485524 170.422189 
L 313.281469 168.278248 
L 314.077414 168.96518 
L 314.873358 172.077656 
L 317.261192 185.149052 
L 318.057137 187.66199 
L 318.853082 188.895243 
L 319.649026 189.301884 
L 321.240916 189.586328 
L 322.03686 189.808825 
L 322.832805 189.823564 
L 323.62875 189.309851 
L 324.424694 188.132629 
L 326.016584 184.87658 
L 326.812528 183.897162 
L 327.608473 183.970338 
L 328.404418 185.101735 
L 329.996307 188.290527 
L 330.792252 188.68917 
L 331.588197 187.504164 
L 332.384141 184.829155 
L 333.976031 178.39815 
L 334.771975 177.034523 
L 335.56792 178.129111 
L 336.363865 181.771964 
L 338.751699 197.933578 
L 339.547643 200.237602 
L 340.343588 199.388517 
L 341.139533 195.568453 
L 343.527367 177.813771 
L 344.323311 174.201425 
L 345.119256 172.853851 
L 345.915201 173.390186 
L 347.50709 176.22922 
L 348.303035 176.484857 
L 349.09898 175.202581 
L 349.894924 172.515157 
L 351.486814 165.625702 
L 352.282758 163.025016 
L 353.078703 161.645371 
L 353.874648 161.434278 
L 355.466537 162.593717 
L 356.262482 162.853049 
L 357.058426 162.543713 
L 358.650316 161.287669 
L 359.44626 161.337065 
L 360.242205 162.3068 
L 362.630039 167.637906 
L 363.425984 167.849926 
L 364.221929 166.33627 
L 365.017873 163.205698 
L 366.609763 155.020007 
L 367.405707 151.951225 
L 368.201652 150.584437 
L 368.997597 151.084471 
L 369.793541 153.084202 
L 371.385431 158.650317 
L 372.181375 160.883985 
L 372.97732 162.392042 
L 375.365154 165.169582 
L 377.752988 169.037734 
L 378.548933 169.628713 
L 379.344878 169.47573 
L 380.140822 168.697213 
L 381.732712 166.675966 
L 382.528656 166.051273 
L 384.120546 165.257167 
L 384.91649 164.287991 
L 385.712435 162.489237 
L 387.304324 157.248538 
L 388.100269 155.299168 
L 388.896214 155.084052 
L 389.692158 157.262217 
L 390.488103 161.870357 
L 392.875937 180.808717 
L 393.671882 184.252996 
L 394.467827 184.643841 
L 395.263771 182.009288 
L 396.059716 177.056443 
L 398.44755 159.378567 
L 399.243495 155.354082 
L 400.039439 152.636635 
L 400.835384 150.917321 
L 401.631329 149.776602 
L 404.019163 146.891136 
L 405.611052 144.461363 
L 407.202941 141.517403 
L 408.794831 138.598248 
L 409.590775 137.644855 
L 410.38672 137.324478 
L 411.182665 137.718948 
L 411.97861 138.721892 
L 413.570499 141.419026 
L 413.570499 141.419026 
" clip-path="url(#pc403bbf370)" style="fill: none; stroke: #e41a1c; stroke-width: 1.5; stroke-linecap: square"/>
   </g>
   <g id="line2d_14">
    <path d="M 46.64 254.814203 
L 47.435945 255.065768 
L 48.231889 255.885895 
L 49.027834 257.275024 
L 50.619723 261.179381 
L 51.415668 263.189881 
L 52.211613 264.870057 
L 53.007557 266.015497 
L 53.803502 266.539214 
L 54.599447 266.486819 
L 55.395392 266.017314 
L 56.987281 264.735653 
L 57.783226 264.334997 
L 58.57917 264.240405 
L 59.375115 264.427814 
L 60.967004 265.095205 
L 61.762949 265.193658 
L 62.558894 264.918748 
L 63.354838 264.210547 
L 64.150783 263.124966 
L 65.742672 260.559703 
L 66.538617 259.567734 
L 67.334562 259.038241 
L 68.130506 259.034085 
L 68.926451 259.468489 
L 70.51834 260.723067 
L 71.314285 261.01309 
L 72.11023 260.869722 
L 74.498064 259.294372 
L 75.294009 259.497647 
L 76.089953 260.571778 
L 76.885898 262.555712 
L 80.069677 272.885423 
L 80.865621 273.892018 
L 81.661566 273.891948 
L 82.457511 273.120416 
L 84.0494 270.930628 
L 84.845345 270.323488 
L 85.641289 270.344989 
L 86.437234 270.970057 
L 88.825068 274.127251 
L 89.621013 274.720647 
L 90.416958 274.833493 
L 91.212902 274.485602 
L 92.008847 273.786436 
L 94.396681 271.243467 
L 95.192626 270.781685 
L 95.98857 270.697228 
L 96.784515 271.013317 
L 97.58046 271.671912 
L 99.172349 273.374402 
L 99.968294 273.970271 
L 100.764238 274.11871 
L 101.560183 273.724131 
L 102.356128 272.836621 
L 103.948017 270.46365 
L 104.743962 269.571231 
L 105.539907 269.184059 
L 106.335851 269.343862 
L 108.723685 270.971516 
L 109.51963 270.838781 
L 110.315575 270.030104 
L 111.111519 268.617779 
L 112.703409 265.141578 
L 113.499353 263.835024 
L 114.295298 263.228433 
L 115.091243 263.440307 
L 115.887187 264.405105 
L 117.479077 267.643294 
L 118.275021 269.308893 
L 119.070966 270.653461 
L 119.866911 271.524286 
L 120.662856 271.877139 
L 121.4588 271.766846 
L 122.254745 271.326373 
L 123.846634 270.220738 
L 124.642579 269.964911 
L 125.438524 270.126328 
L 126.234468 270.771706 
L 127.030413 271.852922 
L 128.622302 274.545596 
L 129.418247 275.579835 
L 130.214192 276.026164 
L 131.010136 275.714947 
L 131.806081 274.63213 
L 132.602026 272.924641 
L 134.98986 266.843233 
L 135.785805 265.32155 
L 136.581749 264.21098 
L 137.377694 263.444699 
L 138.173639 262.917413 
L 138.969583 262.55548 
L 139.765528 262.365251 
L 140.561473 262.438924 
L 141.357417 262.915162 
L 142.153362 263.910749 
L 142.949307 265.451898 
L 144.541196 269.62998 
L 145.337141 271.738874 
L 146.133085 273.468564 
L 146.92903 274.611543 
L 147.724975 275.093718 
L 148.520919 274.978448 
L 149.316864 274.42859 
L 152.500643 271.351145 
L 154.092532 270.365578 
L 154.888477 270.067075 
L 155.684422 269.943895 
L 156.480366 270.043799 
L 157.276311 270.394507 
L 158.072256 270.979542 
L 161.256034 273.887481 
L 162.051979 274.270669 
L 162.847924 274.420895 
L 163.643868 274.336033 
L 164.439813 274.006824 
L 165.235758 273.401411 
L 166.031702 272.470627 
L 166.827647 271.175009 
L 167.623592 269.523297 
L 170.011426 263.768224 
L 170.807371 262.379742 
L 171.603315 261.675762 
L 172.39926 261.798936 
L 173.195205 262.761115 
L 173.991149 264.441506 
L 175.583039 269.010263 
L 177.174928 273.401952 
L 177.970873 275.011763 
L 178.766817 276.095536 
L 179.562762 276.642116 
L 180.358707 276.700302 
L 181.154651 276.366825 
L 182.746541 275.080065 
L 183.542485 274.444543 
L 184.33843 274.013198 
L 185.134375 273.890514 
L 185.93032 274.120539 
L 186.726264 274.677723 
L 188.318154 276.373113 
L 189.114098 277.232101 
L 189.910043 277.918631 
L 190.705988 278.338797 
L 191.501932 278.445268 
L 192.297877 278.234245 
L 193.093822 277.733783 
L 193.889766 276.989695 
L 195.481656 274.987704 
L 197.86949 271.661217 
L 198.665434 270.769348 
L 199.461379 270.103642 
L 200.257324 269.693545 
L 201.053269 269.514471 
L 202.645158 269.423559 
L 203.441103 269.159892 
L 204.237047 268.484711 
L 205.032992 267.248581 
L 205.828937 265.407659 
L 207.420826 260.474132 
L 208.216771 258.018499 
L 209.012715 256.124906 
L 209.80866 255.166294 
L 210.604605 255.35627 
L 211.400549 256.676493 
L 212.196494 258.863271 
L 213.788383 263.95999 
L 214.584328 265.900591 
L 215.380273 267.040275 
L 216.176218 267.399521 
L 217.768107 267.008454 
L 218.564052 267.112865 
L 219.359996 267.8646 
L 220.155941 269.35023 
L 221.74783 273.81192 
L 223.33972 278.188865 
L 224.135664 279.793756 
L 224.931609 280.996383 
L 226.523498 282.734184 
L 228.911332 285.050638 
L 230.503222 286.203818 
L 232.891056 287.553131 
L 234.482945 288.611493 
L 235.27889 288.869817 
L 236.074835 288.667352 
L 236.870779 287.865418 
L 237.666724 286.477281 
L 240.054558 281.201618 
L 240.850503 280.087037 
L 241.646447 279.548893 
L 242.442392 279.473525 
L 244.034281 279.73247 
L 244.830226 279.641727 
L 246.422115 278.917218 
L 247.21806 278.566075 
L 248.014005 278.38208 
L 249.605894 278.177939 
L 250.401839 277.65335 
L 251.197784 276.493354 
L 251.993728 274.628104 
L 253.585618 269.817402 
L 254.381562 267.874366 
L 255.177507 266.903477 
L 255.973452 267.109083 
L 256.769396 268.313908 
L 257.565341 269.984111 
L 258.361286 271.388665 
L 259.15723 271.841891 
L 259.953175 270.944079 
L 260.74912 268.73261 
L 262.341009 262.580856 
L 263.136954 260.239143 
L 263.932898 259.273741 
L 264.728843 259.901336 
L 265.524788 261.896719 
L 267.912622 270.001034 
L 268.708567 271.584728 
L 269.504511 272.353558 
L 270.300456 272.578307 
L 271.096401 272.636861 
L 271.892345 272.837707 
L 272.68829 273.295451 
L 274.280179 274.412604 
L 275.076124 274.559234 
L 275.872069 274.208158 
L 276.668013 273.421033 
L 278.259903 271.566828 
L 279.055847 271.057927 
L 279.851792 270.976583 
L 281.443682 271.35028 
L 282.239626 271.178539 
L 283.035571 270.463395 
L 283.831516 269.239947 
L 285.423405 266.52132 
L 286.21935 265.863429 
L 287.015294 266.046269 
L 287.811239 267.025998 
L 289.403128 269.926656 
L 290.199073 270.877584 
L 290.995018 271.030657 
L 291.790962 270.363074 
L 294.178796 266.740593 
L 294.974741 266.351482 
L 295.770686 266.697745 
L 296.56663 267.645768 
L 298.954465 271.338086 
L 299.750409 272.194045 
L 301.342299 273.329139 
L 302.934188 274.093149 
L 303.730133 274.260912 
L 304.526077 274.171058 
L 305.322022 273.801184 
L 306.913911 272.689099 
L 307.709856 272.373429 
L 308.505801 272.460862 
L 309.301745 272.963631 
L 310.893635 274.389345 
L 311.689579 274.666914 
L 312.485524 274.311874 
L 313.281469 273.29594 
L 315.669303 268.786599 
L 316.465248 267.801285 
L 317.261192 267.218937 
L 318.057137 266.804808 
L 318.853082 266.215267 
L 319.649026 265.165894 
L 320.444971 263.590764 
L 322.03686 260.061088 
L 322.832805 259.209924 
L 323.62875 259.67435 
L 324.424694 261.656924 
L 325.220639 264.952814 
L 326.812528 272.950687 
L 327.608473 276.099485 
L 328.404418 277.934941 
L 329.200363 278.381134 
L 329.996307 277.787713 
L 330.792252 276.796355 
L 331.588197 276.11352 
L 332.384141 276.269911 
L 333.180086 277.448949 
L 335.56792 283.66158 
L 336.363865 284.71062 
L 337.159809 284.595531 
L 337.955754 283.383659 
L 340.343588 277.500794 
L 341.139533 276.387535 
L 341.935477 276.082807 
L 342.731422 276.458984 
L 345.119256 278.665202 
L 345.915201 278.952604 
L 346.711146 278.936263 
L 349.09898 278.439929 
L 349.894924 278.49069 
L 353.078703 279.14551 
L 354.670592 279.113129 
L 356.262482 278.796701 
L 357.058426 278.418994 
L 357.854371 277.775583 
L 358.650316 276.801965 
L 360.242205 274.044336 
L 361.03815 272.633449 
L 361.834095 271.591101 
L 362.630039 271.217116 
L 363.425984 271.716618 
L 364.221929 273.132403 
L 365.017873 275.317609 
L 367.405707 282.949861 
L 368.201652 284.540308 
L 368.997597 285.223541 
L 369.793541 284.984587 
L 370.589486 283.973608 
L 372.97732 279.29588 
L 373.773265 278.247541 
L 374.569209 277.814191 
L 375.365154 278.02275 
L 376.161099 278.751554 
L 377.752988 280.668202 
L 378.548933 281.157357 
L 379.344878 280.923665 
L 380.140822 279.822164 
L 380.936767 277.903197 
L 383.324601 270.321629 
L 384.120546 268.517459 
L 384.91649 267.529028 
L 385.712435 267.348102 
L 386.50838 267.782024 
L 388.896214 270.007197 
L 390.488103 271.136693 
L 391.284048 271.965542 
L 392.079992 273.226353 
L 392.875937 274.965448 
L 395.263771 281.003313 
L 396.059716 282.192744 
L 396.855661 282.574681 
L 397.651605 282.171349 
L 398.44755 281.189263 
L 400.039439 278.782193 
L 400.835384 277.944938 
L 401.631329 277.556453 
L 402.427273 277.596884 
L 403.223218 277.9445 
L 405.611052 279.287779 
L 406.406997 279.496423 
L 407.202941 279.535644 
L 407.998886 279.421679 
L 409.590775 278.856748 
L 411.97861 277.816067 
L 413.570499 277.156172 
L 413.570499 277.156172 
" clip-path="url(#pc403bbf370)" style="fill: none; stroke: #377eb8; stroke-width: 1.5; stroke-linecap: square"/>
   </g>
   <g id="line2d_15">
    <path d="M 87.233179 318.04 
L 87.233179 71.732 
" clip-path="url(#pc403bbf370)" style="fill: none; stroke: #000000; stroke-width: 0.5; stroke-linecap: square"/>
   </g>
   <g id="line2d_16">
    <path d="M 46.64 264.148535 
L 413.570499 264.148535 
" clip-path="url(#pc403bbf370)" style="fill: none; stroke: #000000; stroke-width: 0.5; stroke-linecap: square"/>
   </g>
   <g id="patch_4">
    <path d="M 46.64 318.04 
L 46.64 71.732 
" style="fill: none; stroke: #000000; stroke-width: 0.8; stroke-linejoin: miter; stroke-linecap: square"/>
   </g>
   <g id="patch_5">
    <path d="M 413.570499 318.04 
L 413.570499 71.732 
" style="fill: none; stroke: #000000; stroke-width: 0.8; stroke-linejoin: miter; stroke-linecap: square"/>
   </g>
   <g id="patch_6">
    <path d="M 46.64 318.04 
L 413.570499 318.04 
" style="fill: none; stroke: #000000; stroke-width: 0.8; stroke-linejoin: miter; stroke-linecap: square"/>
   </g>
   <g id="patch_7">
    <path d="M 46.64 71.732 
L 413.570499 71.732 
" style="fill: none; stroke: #000000; stroke-width: 0.8; stroke-linejoin: miter; stroke-linecap: square"/>
   </g>
   <g id="text_15">
    <!-- Cz -->
    <g transform="translate(222.766499 65.732)scale(0.12 -0.12)">
     <defs>
      <path id="DejaVuSans-43" d="M 4122 4306 
L 4122 3641 
Q 3803 3938 3442 4084 
Q 3081 4231 2675 4231 
Q 1875 4231 1450 3742 
Q 1025 3253 1025 2328 
Q 1025 1406 1450 917 
Q 1875 428 2675 428 
Q 3081 428 3442 575 
Q 3803 722 4122 1019 
L 4122 359 
Q 3791 134 3420 21 
Q 3050 -91 2638 -91 
Q 1578 -91 968 557 
Q 359 1206 359 2328 
Q 359 3453 968 4101 
Q 1578 4750 2638 4750 
Q 3056 4750 3426 4639 
Q 3797 4528 4122 4306 
z
" transform="scale(0.015625)"/>
      <path id="DejaVuSans-7a" d="M 353 3500 
L 3084 3500 
L 3084 2975 
L 922 459 
L 3084 459 
L 3084 0 
L 275 0 
L 275 525 
L 2438 3041 
L 353 3041 
L 353 3500 
z
" transform="scale(0.015625)"/>
     </defs>
     <use xlink:href="#DejaVuSans-43"/>
     <use xlink:href="#DejaVuSans-7a" x="69.824219"/>
    </g>
   </g>
   <g id="legend_1">
    <g id="patch_8">
     <path d="M 99.877906 48.500845 
L 360.332593 48.500845 
Q 362.332593 48.500845 362.332593 46.500845 
L 362.332593 18.144595 
Q 362.332593 16.144595 360.332593 16.144595 
L 99.877906 16.144595 
Q 97.877906 16.144595 97.877906 18.144595 
L 97.877906 46.500845 
Q 97.877906 48.500845 99.877906 48.500845 
z
" style="fill: #ffffff; opacity: 0.8; stroke: #cccccc; stroke-linejoin: miter"/>
    </g>
    <g id="text_16">
     <!-- Average of Session 44 -->
     <g transform="translate(174.545874 27.743033)scale(0.1 -0.1)">
      <defs>
       <path id="DejaVuSans-41" d="M 2188 4044 
L 1331 1722 
L 3047 1722 
L 2188 4044 
z
M 1831 4666 
L 2547 4666 
L 4325 0 
L 3669 0 
L 3244 1197 
L 1141 1197 
L 716 0 
L 50 0 
L 1831 4666 
z
" transform="scale(0.015625)"/>
       <path id="DejaVuSans-76" d="M 191 3500 
L 800 3500 
L 1894 563 
L 2988 3500 
L 3597 3500 
L 2284 0 
L 1503 0 
L 191 3500 
z
" transform="scale(0.015625)"/>
       <path id="DejaVuSans-72" d="M 2631 2963 
Q 2534 3019 2420 3045 
Q 2306 3072 2169 3072 
Q 1681 3072 1420 2755 
Q 1159 2438 1159 1844 
L 1159 0 
L 581 0 
L 581 3500 
L 1159 3500 
L 1159 2956 
Q 1341 3275 1631 3429 
Q 1922 3584 2338 3584 
Q 2397 3584 2469 3576 
Q 2541 3569 2628 3553 
L 2631 2963 
z
" transform="scale(0.015625)"/>
       <path id="DejaVuSans-61" d="M 2194 1759 
Q 1497 1759 1228 1600 
Q 959 1441 959 1056 
Q 959 750 1161 570 
Q 1363 391 1709 391 
Q 2188 391 2477 730 
Q 2766 1069 2766 1631 
L 2766 1759 
L 2194 1759 
z
M 3341 1997 
L 3341 0 
L 2766 0 
L 2766 531 
Q 2569 213 2275 61 
Q 1981 -91 1556 -91 
Q 1019 -91 701 211 
Q 384 513 384 1019 
Q 384 1609 779 1909 
Q 1175 2209 1959 2209 
L 2766 2209 
L 2766 2266 
Q 2766 2663 2505 2880 
Q 2244 3097 1772 3097 
Q 1472 3097 1187 3025 
Q 903 2953 641 2809 
L 641 3341 
Q 956 3463 1253 3523 
Q 1550 3584 1831 3584 
Q 2591 3584 2966 3190 
Q 3341 2797 3341 1997 
z
" transform="scale(0.015625)"/>
       <path id="DejaVuSans-67" d="M 2906 1791 
Q 2906 2416 2648 2759 
Q 2391 3103 1925 3103 
Q 1463 3103 1205 2759 
Q 947 2416 947 1791 
Q 947 1169 1205 825 
Q 1463 481 1925 481 
Q 2391 481 2648 825 
Q 2906 1169 2906 1791 
z
M 3481 434 
Q 3481 -459 3084 -895 
Q 2688 -1331 1869 -1331 
Q 1566 -1331 1297 -1286 
Q 1028 -1241 775 -1147 
L 775 -588 
Q 1028 -725 1275 -790 
Q 1522 -856 1778 -856 
Q 2344 -856 2625 -561 
Q 2906 -266 2906 331 
L 2906 616 
Q 2728 306 2450 153 
Q 2172 0 1784 0 
Q 1141 0 747 490 
Q 353 981 353 1791 
Q 353 2603 747 3093 
Q 1141 3584 1784 3584 
Q 2172 3584 2450 3431 
Q 2728 3278 2906 2969 
L 2906 3500 
L 3481 3500 
L 3481 434 
z
" transform="scale(0.015625)"/>
       <path id="DejaVuSans-20" transform="scale(0.015625)"/>
       <path id="DejaVuSans-66" d="M 2375 4863 
L 2375 4384 
L 1825 4384 
Q 1516 4384 1395 4259 
Q 1275 4134 1275 3809 
L 1275 3500 
L 2222 3500 
L 2222 3053 
L 1275 3053 
L 1275 0 
L 697 0 
L 697 3053 
L 147 3053 
L 147 3500 
L 697 3500 
L 697 3744 
Q 697 4328 969 4595 
Q 1241 4863 1831 4863 
L 2375 4863 
z
" transform="scale(0.015625)"/>
       <path id="DejaVuSans-53" d="M 3425 4513 
L 3425 3897 
Q 3066 4069 2747 4153 
Q 2428 4238 2131 4238 
Q 1616 4238 1336 4038 
Q 1056 3838 1056 3469 
Q 1056 3159 1242 3001 
Q 1428 2844 1947 2747 
L 2328 2669 
Q 3034 2534 3370 2195 
Q 3706 1856 3706 1288 
Q 3706 609 3251 259 
Q 2797 -91 1919 -91 
Q 1588 -91 1214 -16 
Q 841 59 441 206 
L 441 856 
Q 825 641 1194 531 
Q 1563 422 1919 422 
Q 2459 422 2753 634 
Q 3047 847 3047 1241 
Q 3047 1584 2836 1778 
Q 2625 1972 2144 2069 
L 1759 2144 
Q 1053 2284 737 2584 
Q 422 2884 422 3419 
Q 422 4038 858 4394 
Q 1294 4750 2059 4750 
Q 2388 4750 2728 4690 
Q 3069 4631 3425 4513 
z
" transform="scale(0.015625)"/>
       <path id="DejaVuSans-69" d="M 603 3500 
L 1178 3500 
L 1178 0 
L 603 0 
L 603 3500 
z
M 603 4863 
L 1178 4863 
L 1178 4134 
L 603 4134 
L 603 4863 
z
" transform="scale(0.015625)"/>
      </defs>
      <use xlink:href="#DejaVuSans-41"/>
      <use xlink:href="#DejaVuSans-76" x="62.533203"/>
      <use xlink:href="#DejaVuSans-65" x="121.712891"/>
      <use xlink:href="#DejaVuSans-72" x="183.236328"/>
      <use xlink:href="#DejaVuSans-61" x="224.349609"/>
      <use xlink:href="#DejaVuSans-67" x="285.628906"/>
      <use xlink:href="#DejaVuSans-65" x="349.105469"/>
      <use xlink:href="#DejaVuSans-20" x="410.628906"/>
      <use xlink:href="#DejaVuSans-6f" x="442.416016"/>
      <use xlink:href="#DejaVuSans-66" x="503.597656"/>
      <use xlink:href="#DejaVuSans-20" x="538.802734"/>
      <use xlink:href="#DejaVuSans-53" x="570.589844"/>
      <use xlink:href="#DejaVuSans-65" x="634.066406"/>
      <use xlink:href="#DejaVuSans-73" x="695.589844"/>
      <use xlink:href="#DejaVuSans-73" x="747.689453"/>
      <use xlink:href="#DejaVuSans-69" x="799.789062"/>
      <use xlink:href="#DejaVuSans-6f" x="827.572266"/>
      <use xlink:href="#DejaVuSans-6e" x="888.753906"/>
      <use xlink:href="#DejaVuSans-20" x="952.132812"/>
      <use xlink:href="#DejaVuSans-34" x="983.919922"/>
      <use xlink:href="#DejaVuSans-34" x="1047.542969"/>
     </g>
    </g>
    <g id="line2d_17">
     <path d="M 101.877906 38.921158 
L 111.877906 38.921158 
L 121.877906 38.921158 
" style="fill: none; stroke: #e41a1c; stroke-width: 1.5; stroke-linecap: square"/>
    </g>
    <g id="text_17">
     <!-- Target (n=298) -->
     <g transform="translate(129.877906 42.421158)scale(0.1 -0.1)">
      <defs>
       <path id="DejaVuSans-54" d="M -19 4666 
L 3928 4666 
L 3928 4134 
L 2272 4134 
L 2272 0 
L 1638 0 
L 1638 4134 
L -19 4134 
L -19 4666 
z
" transform="scale(0.015625)"/>
       <path id="DejaVuSans-74" d="M 1172 4494 
L 1172 3500 
L 2356 3500 
L 2356 3053 
L 1172 3053 
L 1172 1153 
Q 1172 725 1289 603 
Q 1406 481 1766 481 
L 2356 481 
L 2356 0 
L 1766 0 
Q 1100 0 847 248 
Q 594 497 594 1153 
L 594 3053 
L 172 3053 
L 172 3500 
L 594 3500 
L 594 4494 
L 1172 4494 
z
" transform="scale(0.015625)"/>
       <path id="DejaVuSans-28" d="M 1984 4856 
Q 1566 4138 1362 3434 
Q 1159 2731 1159 2009 
Q 1159 1288 1364 580 
Q 1569 -128 1984 -844 
L 1484 -844 
Q 1016 -109 783 600 
Q 550 1309 550 2009 
Q 550 2706 781 3412 
Q 1013 4119 1484 4856 
L 1984 4856 
z
" transform="scale(0.015625)"/>
       <path id="DejaVuSans-3d" d="M 678 2906 
L 4684 2906 
L 4684 2381 
L 678 2381 
L 678 2906 
z
M 678 1631 
L 4684 1631 
L 4684 1100 
L 678 1100 
L 678 1631 
z
" transform="scale(0.015625)"/>
       <path id="DejaVuSans-39" d="M 703 97 
L 703 672 
Q 941 559 1184 500 
Q 1428 441 1663 441 
Q 2288 441 2617 861 
Q 2947 1281 2994 2138 
Q 2813 1869 2534 1725 
Q 2256 1581 1919 1581 
Q 1219 1581 811 2004 
Q 403 2428 403 3163 
Q 403 3881 828 4315 
Q 1253 4750 1959 4750 
Q 2769 4750 3195 4129 
Q 3622 3509 3622 2328 
Q 3622 1225 3098 567 
Q 2575 -91 1691 -91 
Q 1453 -91 1209 -44 
Q 966 3 703 97 
z
M 1959 2075 
Q 2384 2075 2632 2365 
Q 2881 2656 2881 3163 
Q 2881 3666 2632 3958 
Q 2384 4250 1959 4250 
Q 1534 4250 1286 3958 
Q 1038 3666 1038 3163 
Q 1038 2656 1286 2365 
Q 1534 2075 1959 2075 
z
" transform="scale(0.015625)"/>
       <path id="DejaVuSans-29" d="M 513 4856 
L 1013 4856 
Q 1481 4119 1714 3412 
Q 1947 2706 1947 2009 
Q 1947 1309 1714 600 
Q 1481 -109 1013 -844 
L 513 -844 
Q 928 -128 1133 580 
Q 1338 1288 1338 2009 
Q 1338 2731 1133 3434 
Q 928 4138 513 4856 
z
" transform="scale(0.015625)"/>
      </defs>
      <use xlink:href="#DejaVuSans-54"/>
      <use xlink:href="#DejaVuSans-61" x="44.583984"/>
      <use xlink:href="#DejaVuSans-72" x="105.863281"/>
      <use xlink:href="#DejaVuSans-67" x="145.226562"/>
      <use xlink:href="#DejaVuSans-65" x="208.703125"/>
      <use xlink:href="#DejaVuSans-74" x="270.226562"/>
      <use xlink:href="#DejaVuSans-20" x="309.435547"/>
      <use xlink:href="#DejaVuSans-28" x="341.222656"/>
      <use xlink:href="#DejaVuSans-6e" x="380.236328"/>
      <use xlink:href="#DejaVuSans-3d" x="443.615234"/>
      <use xlink:href="#DejaVuSans-32" x="527.404297"/>
      <use xlink:href="#DejaVuSans-39" x="591.027344"/>
      <use xlink:href="#DejaVuSans-38" x="654.650391"/>
      <use xlink:href="#DejaVuSans-29" x="718.273438"/>
     </g>
    </g>
    <g id="line2d_18">
     <path d="M 225.607593 38.921158 
L 235.607593 38.921158 
L 245.607593 38.921158 
" style="fill: none; stroke: #377eb8; stroke-width: 1.5; stroke-linecap: square"/>
    </g>
    <g id="text_18">
     <!-- Non-Target (n=1498) -->
     <g transform="translate(253.607593 42.421158)scale(0.1 -0.1)">
      <defs>
       <path id="DejaVuSans-4e" d="M 628 4666 
L 1478 4666 
L 3547 763 
L 3547 4666 
L 4159 4666 
L 4159 0 
L 3309 0 
L 1241 3903 
L 1241 0 
L 628 0 
L 628 4666 
z
" transform="scale(0.015625)"/>
       <path id="DejaVuSans-2d" d="M 313 2009 
L 1997 2009 
L 1997 1497 
L 313 1497 
L 313 2009 
z
" transform="scale(0.015625)"/>
      </defs>
      <use xlink:href="#DejaVuSans-4e"/>
      <use xlink:href="#DejaVuSans-6f" x="74.804688"/>
      <use xlink:href="#DejaVuSans-6e" x="135.986328"/>
      <use xlink:href="#DejaVuSans-2d" x="199.365234"/>
      <use xlink:href="#DejaVuSans-54" x="226.324219"/>
      <use xlink:href="#DejaVuSans-61" x="270.908203"/>
      <use xlink:href="#DejaVuSans-72" x="332.1875"/>
      <use xlink:href="#DejaVuSans-67" x="371.550781"/>
      <use xlink:href="#DejaVuSans-65" x="435.027344"/>
      <use xlink:href="#DejaVuSans-74" x="496.550781"/>
      <use xlink:href="#DejaVuSans-20" x="535.759766"/>
      <use xlink:href="#DejaVuSans-28" x="567.546875"/>
      <use xlink:href="#DejaVuSans-6e" x="606.560547"/>
      <use xlink:href="#DejaVuSans-3d" x="669.939453"/>
      <use xlink:href="#DejaVuSans-31" x="753.728516"/>
      <use xlink:href="#DejaVuSans-34" x="817.351562"/>
      <use xlink:href="#DejaVuSans-39" x="880.974609"/>
      <use xlink:href="#DejaVuSans-38" x="944.597656"/>
      <use xlink:href="#DejaVuSans-29" x="1008.220703"/>
     </g>
    </g>
   </g>
  </g>
 </g>
 <defs>
  <clipPath id="pc403bbf370">
   <rect x="46.64" y="71.732" width="366.930499" height="246.308"/>
  </clipPath>
 </defs>
</svg>
