<?xml version="1.0" encoding="utf-8" standalone="no"?>
<!DOCTYPE svg PUBLIC "-//W3C//DTD SVG 1.1//EN"
  "http://www.w3.org/Graphics/SVG/1.1/DTD/svg11.dtd">
<svg xmlns:xlink="http://www.w3.org/1999/xlink" width="432pt" height="360pt" viewBox="0 0 432 360" xmlns="http://www.w3.org/2000/svg" version="1.1">
 <metadata>
  <rdf:RDF xmlns:dc="http://purl.org/dc/elements/1.1/" xmlns:cc="http://creativecommons.org/ns#" xmlns:rdf="http://www.w3.org/1999/02/22-rdf-syntax-ns#">
   <cc:Work>
    <dc:type rdf:resource="http://purl.org/dc/dcmitype/StillImage"/>
    <dc:date>2022-05-19T11:52:06.739768</dc:date>
    <dc:format>image/svg+xml</dc:format>
    <dc:creator>
     <cc:Agent>
      <dc:title>Matplotlib v3.5.1, https://matplotlib.org/</dc:title>
     </cc:Agent>
    </dc:creator>
   </cc:Work>
  </rdf:RDF>
 </metadata>
 <defs>
  <style type="text/css">*{stroke-linejoin: round; stroke-linecap: butt}</style>
 </defs>
 <g id="figure_1">
  <g id="patch_1">
   <path d="M 0 360 
L 432 360 
L 432 0 
L 0 0 
L 0 360 
z
" style="fill: none"/>
  </g>
  <g id="axes_1">
   <g id="patch_2">
    <path d="M 46.64 318.04 
L 413.570499 318.04 
L 413.570499 71.732 
L 46.64 71.732 
L 46.64 318.04 
z
" style="fill: none"/>
   </g>
   <g id="PolyCollection_1">
    <defs>
     <path id="mf5528265ce" d="M 46.64 -164.81467 
L 46.64 -87.443996 
L 47.435945 -84.198747 
L 48.231889 -81.38743 
L 49.027834 -78.945823 
L 49.823779 -76.856335 
L 50.619723 -74.97931 
L 51.415668 -73.254836 
L 52.211613 -72.108987 
L 53.007557 -72.496707 
L 53.803502 -75.339862 
L 54.599447 -80.823823 
L 55.395392 -88.158733 
L 56.191336 -95.823806 
L 56.987281 -101.927424 
L 57.783226 -104.595682 
L 58.57917 -102.608966 
L 59.375115 -96.292332 
L 60.17106 -87.977003 
L 60.967004 -81.203069 
L 61.762949 -79.083347 
L 62.558894 -82.975167 
L 63.354838 -92.06033 
L 64.150783 -103.855477 
L 64.946728 -115.240404 
L 65.742672 -123.381269 
L 66.538617 -126.330457 
L 67.334562 -123.459826 
L 68.130506 -115.666898 
L 68.926451 -105.119772 
L 69.722396 -94.528212 
L 70.51834 -86.260082 
L 71.314285 -81.7478 
L 72.11023 -81.427313 
L 72.906175 -84.994027 
L 73.702119 -91.53127 
L 74.498064 -99.473449 
L 75.294009 -106.771825 
L 76.089953 -111.541112 
L 76.885898 -112.997054 
L 77.681843 -111.850167 
L 78.477787 -109.709712 
L 79.273732 -108.168511 
L 80.069677 -108.211462 
L 80.865621 -110.088712 
L 81.661566 -113.617431 
L 82.457511 -118.560182 
L 83.253455 -124.564201 
L 84.0494 -130.857921 
L 84.845345 -136.245397 
L 85.641289 -139.422055 
L 86.437234 -139.397972 
L 87.233179 -135.927795 
L 88.029124 -129.813728 
L 88.825068 -122.767244 
L 89.621013 -116.734279 
L 90.416958 -113.128632 
L 91.212902 -112.452802 
L 92.008847 -114.366333 
L 92.804792 -117.976955 
L 93.600736 -122.152863 
L 94.396681 -125.832951 
L 95.192626 -128.381473 
L 95.98857 -129.832639 
L 96.784515 -130.696855 
L 97.58046 -131.368551 
L 98.376404 -131.669074 
L 99.172349 -130.935887 
L 99.968294 -128.530719 
L 100.764238 -124.237716 
L 101.560183 -118.202586 
L 102.356128 -110.611856 
L 103.152073 -101.533379 
L 103.948017 -91.173165 
L 104.743962 -80.36791 
L 105.539907 -70.650179 
L 106.335851 -63.637616 
L 107.131796 -60.366415 
L 107.927741 -61.075568 
L 108.723685 -65.37191 
L 109.51963 -72.443093 
L 110.315575 -81.078008 
L 111.111519 -89.641646 
L 111.907464 -96.388685 
L 112.703409 -100.098222 
L 113.499353 -100.4659 
L 114.295298 -97.985705 
L 115.091243 -93.695888 
L 115.887187 -89.087112 
L 116.683132 -85.976434 
L 117.479077 -85.995307 
L 118.275021 -89.794024 
L 119.070966 -96.545188 
L 119.866911 -104.228792 
L 120.662856 -110.652625 
L 121.4588 -114.523647 
L 122.254745 -115.783942 
L 123.05069 -115.325057 
L 123.846634 -114.709424 
L 124.642579 -115.845513 
L 125.438524 -120.215473 
L 126.234468 -127.940541 
L 127.030413 -137.402772 
L 127.826358 -145.7402 
L 128.622302 -149.956377 
L 129.418247 -148.084353 
L 130.214192 -139.937756 
L 131.010136 -127.298174 
L 131.806081 -113.5109 
L 132.602026 -102.437082 
L 133.39797 -97.017836 
L 134.193915 -98.149164 
L 134.98986 -104.518847 
L 135.785805 -113.439852 
L 136.581749 -121.977472 
L 137.377694 -127.650841 
L 138.173639 -128.755282 
L 138.969583 -124.758427 
L 139.765528 -116.833666 
L 140.561473 -107.800823 
L 141.357417 -100.880376 
L 142.153362 -98.100358 
L 142.949307 -99.538461 
L 143.745251 -103.674864 
L 144.541196 -108.405755 
L 145.337141 -111.961147 
L 146.133085 -113.229044 
L 146.92903 -111.689251 
L 147.724975 -107.469715 
L 148.520919 -101.544279 
L 149.316864 -95.481476 
L 150.112809 -90.607377 
L 150.908753 -87.331139 
L 151.704698 -85.258114 
L 152.500643 -83.993782 
L 153.296588 -83.830589 
L 154.092532 -85.511295 
L 154.888477 -89.349167 
L 155.684422 -94.626404 
L 156.480366 -99.778225 
L 157.276311 -103.226954 
L 158.072256 -104.183154 
L 158.8682 -102.802784 
L 159.664145 -99.919152 
L 160.46009 -96.854721 
L 161.256034 -95.211955 
L 162.051979 -96.21592 
L 162.847924 -99.779235 
L 163.643868 -104.19761 
L 164.439813 -107.084262 
L 165.235758 -106.781047 
L 166.031702 -102.924262 
L 166.827647 -96.156187 
L 167.623592 -87.686209 
L 168.419537 -78.981198 
L 169.215481 -71.666098 
L 170.011426 -67.466252 
L 170.807371 -67.619328 
L 171.603315 -71.938731 
L 172.39926 -78.586421 
L 173.195205 -84.797867 
L 173.991149 -87.97784 
L 174.787094 -86.738104 
L 175.583039 -81.676717 
L 176.378983 -75.389151 
L 177.174928 -71.223557 
L 177.970873 -71.3967 
L 178.766817 -75.791556 
L 179.562762 -82.353713 
L 180.358707 -88.801603 
L 181.154651 -93.779787 
L 181.950596 -96.518882 
L 182.746541 -96.282799 
L 183.542485 -92.483938 
L 184.33843 -85.310463 
L 185.134375 -76.172508 
L 185.93032 -67.186446 
L 186.726264 -60.042548 
L 187.522209 -55.393356 
L 188.318154 -53.155818 
L 189.114098 -53.180039 
L 189.910043 -55.484615 
L 190.705988 -59.877436 
L 191.501932 -65.567766 
L 192.297877 -71.321905 
L 193.093822 -76.064213 
L 193.889766 -79.344215 
L 194.685711 -81.314429 
L 195.481656 -82.434354 
L 196.2776 -83.220939 
L 197.073545 -84.13645 
L 197.86949 -85.522759 
L 198.665434 -87.427343 
L 199.461379 -89.347651 
L 200.257324 -90.211018 
L 201.053269 -88.858664 
L 201.849213 -84.867649 
L 202.645158 -79.119976 
L 203.441103 -73.604923 
L 204.237047 -70.568113 
L 205.032992 -71.580934 
L 205.828937 -76.975902 
L 206.624881 -85.726292 
L 207.420826 -95.675117 
L 208.216771 -104.112482 
L 209.012715 -108.690207 
L 209.80866 -108.366069 
L 210.604605 -103.864335 
L 211.400549 -97.366275 
L 212.196494 -91.625496 
L 212.992439 -88.97283 
L 213.788383 -90.564773 
L 214.584328 -96.017682 
L 215.380273 -103.525246 
L 216.176218 -110.514499 
L 216.972162 -114.651148 
L 217.768107 -114.753811 
L 218.564052 -111.191178 
L 219.359996 -105.624338 
L 220.155941 -100.285827 
L 220.951886 -97.131979 
L 221.74783 -97.176612 
L 222.543775 -100.238285 
L 223.33972 -105.191882 
L 224.135664 -110.566812 
L 224.931609 -115.148531 
L 225.727554 -118.313766 
L 226.523498 -120.076319 
L 227.319443 -120.924798 
L 228.115388 -121.432403 
L 228.911332 -121.703866 
L 229.707277 -121.03694 
L 230.503222 -118.185148 
L 231.299166 -112.231349 
L 232.095111 -103.602371 
L 232.891056 -94.436412 
L 233.687001 -87.871044 
L 234.482945 -86.694374 
L 235.27889 -92.14702 
L 236.074835 -103.385996 
L 236.870779 -117.785833 
L 237.666724 -131.90144 
L 238.462669 -142.575382 
L 239.258613 -147.726935 
L 240.054558 -146.707317 
L 240.850503 -140.253926 
L 241.646447 -130.112255 
L 242.442392 -118.476953 
L 243.238337 -107.416665 
L 244.034281 -98.399771 
L 244.830226 -92.067267 
L 245.626171 -88.385261 
L 246.422115 -87.054303 
L 247.21806 -87.82554 
L 248.014005 -90.507681 
L 248.80995 -94.754006 
L 249.605894 -99.870758 
L 250.401839 -104.837085 
L 251.197784 -108.560408 
L 251.993728 -110.242085 
L 252.789673 -109.704149 
L 253.585618 -107.552447 
L 254.381562 -105.056599 
L 255.177507 -103.723292 
L 255.973452 -104.741859 
L 256.769396 -108.593658 
L 257.565341 -114.94692 
L 258.361286 -122.687182 
L 259.15723 -130.048937 
L 259.953175 -135.080341 
L 260.74912 -136.427636 
L 261.545064 -133.992013 
L 262.341009 -129.012694 
L 263.136954 -123.540212 
L 263.932898 -119.675308 
L 264.728843 -118.994053 
L 265.524788 -122.1918 
L 266.320733 -128.739999 
L 267.116677 -136.767819 
L 267.912622 -143.616175 
L 268.708567 -146.97403 
L 269.504511 -145.914908 
L 270.300456 -141.167268 
L 271.096401 -134.568223 
L 271.892345 -128.231622 
L 272.68829 -123.975506 
L 273.484235 -123.065397 
L 274.280179 -125.917951 
L 275.076124 -131.75212 
L 275.872069 -138.665659 
L 276.668013 -144.329993 
L 277.463958 -146.929689 
L 278.259903 -145.794428 
L 279.055847 -141.449184 
L 279.851792 -135.206293 
L 280.647737 -128.577384 
L 281.443682 -122.755426 
L 282.239626 -118.407676 
L 283.035571 -115.877117 
L 283.831516 -115.42828 
L 284.62746 -117.063102 
L 285.423405 -120.110627 
L 286.21935 -123.161536 
L 287.015294 -124.625071 
L 287.811239 -123.72894 
L 288.607184 -121.177022 
L 289.403128 -118.721439 
L 290.199073 -118.066022 
L 290.995018 -120.036335 
L 291.790962 -124.399013 
L 292.586907 -130.226307 
L 293.382852 -136.45546 
L 294.178796 -142.236671 
L 294.974741 -146.986368 
L 295.770686 -150.369238 
L 296.56663 -152.312194 
L 297.362575 -152.990136 
L 298.15852 -152.756165 
L 298.954465 -152.02649 
L 299.750409 -151.112536 
L 300.546354 -150.040115 
L 301.342299 -148.516483 
L 302.138243 -146.21979 
L 302.934188 -143.29657 
L 303.730133 -140.549673 
L 304.526077 -138.998335 
L 305.322022 -139.197656 
L 306.117967 -140.878961 
L 306.913911 -143.111951 
L 307.709856 -144.832625 
L 308.505801 -145.355534 
L 309.301745 -144.562099 
L 310.09769 -142.808094 
L 310.893635 -140.751332 
L 311.689579 -139.175267 
L 312.485524 -138.804191 
L 313.281469 -140.127397 
L 314.077414 -143.247752 
L 314.873358 -147.768199 
L 315.669303 -152.788037 
L 316.465248 -157.107695 
L 317.261192 -159.647191 
L 318.057137 -159.917428 
L 318.853082 -158.262262 
L 319.649026 -155.663105 
L 320.444971 -153.18008 
L 321.240916 -151.336887 
L 322.03686 -149.771324 
L 322.832805 -147.385778 
L 323.62875 -143.070875 
L 324.424694 -136.635477 
L 325.220639 -129.141345 
L 326.016584 -122.340573 
L 326.812528 -117.833498 
L 327.608473 -116.605316 
L 328.404418 -119.016346 
L 329.200363 -124.778962 
L 329.996307 -132.620961 
L 330.792252 -140.110671 
L 331.588197 -144.280491 
L 332.384141 -143.04366 
L 333.180086 -136.505187 
L 333.976031 -126.967006 
L 334.771975 -117.633784 
L 335.56792 -111.225526 
L 336.363865 -109.395861 
L 337.159809 -112.79646 
L 337.955754 -120.97601 
L 338.751699 -132.055288 
L 339.547643 -142.940647 
L 340.343588 -150.313863 
L 341.139533 -151.89685 
L 341.935477 -147.309531 
L 342.731422 -138.114142 
L 343.527367 -127.170277 
L 344.323311 -117.732558 
L 345.119256 -112.562272 
L 345.915201 -113.175977 
L 346.711146 -119.471103 
L 347.50709 -129.963876 
L 348.303035 -142.541988 
L 349.09898 -155.213864 
L 349.894924 -166.331549 
L 350.690869 -174.364673 
L 351.486814 -177.803517 
L 352.282758 -175.587349 
L 353.078703 -167.810062 
L 353.874648 -156.007426 
L 354.670592 -142.738299 
L 355.466537 -130.828848 
L 356.262482 -122.671396 
L 357.058426 -119.778153 
L 357.854371 -122.70244 
L 358.650316 -131.135139 
L 359.44626 -143.773143 
L 360.242205 -158.103468 
L 361.03815 -170.666745 
L 361.834095 -177.981807 
L 362.630039 -177.854713 
L 363.425984 -170.435158 
L 364.221929 -158.195593 
L 365.017873 -144.711585 
L 365.813818 -133.15877 
L 366.609763 -125.467792 
L 367.405707 -122.329082 
L 368.201652 -123.50323 
L 368.997597 -127.897623 
L 369.793541 -133.59219 
L 370.589486 -138.256685 
L 371.385431 -140.004149 
L 372.181375 -138.273885 
L 372.97732 -134.072472 
L 373.773265 -129.304323 
L 374.569209 -125.800339 
L 375.365154 -124.745781 
L 376.161099 -126.597894 
L 376.957043 -131.214804 
L 377.752988 -137.978982 
L 378.548933 -145.895392 
L 379.344878 -153.714748 
L 380.140822 -160.110772 
L 380.936767 -163.944965 
L 381.732712 -164.611957 
L 382.528656 -162.299479 
L 383.324601 -157.91639 
L 384.120546 -152.672743 
L 384.91649 -147.611556 
L 385.712435 -143.425064 
L 386.50838 -140.620851 
L 387.304324 -139.711334 
L 388.100269 -141.036677 
L 388.896214 -144.350763 
L 389.692158 -148.649869 
L 390.488103 -152.47514 
L 391.284048 -154.535294 
L 392.079992 -154.230908 
L 392.875937 -151.686669 
L 393.671882 -147.334077 
L 394.467827 -141.487245 
L 395.263771 -134.344264 
L 396.059716 -126.447241 
L 396.855661 -118.987075 
L 397.651605 -113.364693 
L 398.44755 -110.417825 
L 399.243495 -110.128176 
L 400.039439 -112.077757 
L 400.835384 -116.164863 
L 401.631329 -122.683263 
L 402.427273 -131.600893 
L 403.223218 -141.88571 
L 404.019163 -151.60861 
L 404.815107 -158.792383 
L 405.611052 -162.280285 
L 406.406997 -161.888228 
L 407.202941 -157.992106 
L 407.998886 -151.222896 
L 408.794831 -142.593078 
L 409.590775 -133.817183 
L 410.38672 -127.174634 
L 411.182665 -124.610286 
L 411.97861 -126.703152 
L 412.774554 -132.308059 
L 413.570499 -139.140134 
L 413.570499 -236.223847 
L 413.570499 -236.223847 
L 412.774554 -230.191847 
L 411.97861 -226.767395 
L 411.182665 -226.467139 
L 410.38672 -229.444008 
L 409.590775 -235.636242 
L 408.794831 -244.485068 
L 407.998886 -254.499445 
L 407.202941 -263.308561 
L 406.406997 -268.543553 
L 405.611052 -268.935691 
L 404.815107 -264.76899 
L 404.019163 -257.404826 
L 403.223218 -248.317613 
L 402.427273 -238.531472 
L 401.631329 -228.843265 
L 400.835384 -220.261609 
L 400.039439 -213.983791 
L 399.243495 -210.816868 
L 398.44755 -210.644551 
L 397.651605 -212.663124 
L 396.855661 -216.162292 
L 396.059716 -220.968604 
L 395.263771 -227.126519 
L 394.467827 -234.166886 
L 393.671882 -240.832116 
L 392.875937 -245.662425 
L 392.079992 -247.792548 
L 391.284048 -247.252003 
L 390.488103 -244.706264 
L 389.692158 -241.001598 
L 388.896214 -236.940854 
L 388.100269 -233.377511 
L 387.304324 -231.329064 
L 386.50838 -231.817033 
L 385.712435 -235.398217 
L 384.91649 -241.686568 
L 384.120546 -249.349744 
L 383.324601 -256.665866 
L 382.528656 -262.171492 
L 381.732712 -264.972237 
L 380.936767 -264.684128 
L 380.140822 -261.26831 
L 379.344878 -255.022059 
L 378.548933 -246.704202 
L 377.752988 -237.564587 
L 376.957043 -229.148896 
L 376.161099 -222.931149 
L 375.365154 -219.890458 
L 374.569209 -220.178263 
L 373.773265 -223.066229 
L 372.97732 -227.268614 
L 372.181375 -231.451612 
L 371.385431 -234.552034 
L 370.589486 -235.766785 
L 369.793541 -234.611892 
L 368.997597 -231.377544 
L 368.201652 -227.546663 
L 367.405707 -225.548293 
L 366.609763 -227.726775 
L 365.813818 -235.03191 
L 365.017873 -246.353017 
L 364.221929 -259.011846 
L 363.425984 -269.910952 
L 362.630039 -276.482681 
L 361.834095 -277.072182 
L 361.03815 -271.077964 
L 360.242205 -259.29517 
L 359.44626 -244.195546 
L 358.650316 -229.56888 
L 357.854371 -219.435923 
L 357.058426 -216.59562 
L 356.262482 -221.498884 
L 355.466537 -232.219939 
L 354.670592 -245.518221 
L 353.874648 -258.172163 
L 353.078703 -267.897132 
L 352.282758 -273.58016 
L 351.486814 -274.893289 
L 350.690869 -271.782795 
L 349.894924 -264.439918 
L 349.09898 -253.682204 
L 348.303035 -241.142464 
L 347.50709 -228.953014 
L 346.711146 -219.157232 
L 345.915201 -213.299785 
L 345.119256 -212.310836 
L 344.323311 -216.399392 
L 343.527367 -224.80118 
L 342.731422 -235.612222 
L 341.935477 -246.059187 
L 341.139533 -253.242884 
L 340.343588 -254.991074 
L 339.547643 -250.48778 
L 338.751699 -240.612401 
L 337.955754 -227.926503 
L 337.159809 -216.131268 
L 336.363865 -208.899801 
L 335.56792 -208.319445 
L 334.771975 -213.800753 
L 333.976031 -222.484151 
L 333.180086 -230.893797 
L 332.384141 -236.446872 
L 331.588197 -237.920696 
L 330.792252 -235.152233 
L 329.996307 -228.884729 
L 329.200363 -220.90472 
L 328.404418 -213.759422 
L 327.608473 -209.791201 
L 326.812528 -210.02172 
L 326.016584 -213.774628 
L 325.220639 -219.407708 
L 324.424694 -225.468203 
L 323.62875 -231.318534 
L 322.832805 -236.911719 
L 322.03686 -242.207401 
L 321.240916 -246.955713 
L 320.444971 -250.864048 
L 319.649026 -253.716915 
L 318.853082 -255.346319 
L 318.057137 -255.582507 
L 317.261192 -254.260912 
L 316.465248 -251.309412 
L 315.669303 -246.923107 
L 314.873358 -241.729477 
L 314.077414 -236.756578 
L 313.281469 -233.12105 
L 312.485524 -231.564431 
L 311.689579 -232.09984 
L 310.893635 -233.992267 
L 310.09769 -236.098258 
L 309.301745 -237.386422 
L 308.505801 -237.384919 
L 307.709856 -236.33551 
L 306.913911 -234.949002 
L 306.117967 -233.907454 
L 305.322022 -233.508057 
L 304.526077 -233.716436 
L 303.730133 -234.480936 
L 302.934188 -235.963512 
L 302.138243 -238.446421 
L 301.342299 -241.960915 
L 300.546354 -246.048407 
L 299.750409 -249.965634 
L 298.954465 -253.048159 
L 298.15852 -254.82853 
L 297.362575 -254.92908 
L 296.56663 -252.991743 
L 295.770686 -248.796729 
L 294.974741 -242.496963 
L 294.178796 -234.790412 
L 293.382852 -226.896119 
L 292.586907 -220.260168 
L 291.790962 -216.007166 
L 290.995018 -214.411731 
L 290.199073 -214.815655 
L 289.403128 -216.070545 
L 288.607184 -217.166994 
L 287.811239 -217.634833 
L 287.015294 -217.424593 
L 286.21935 -216.41826 
L 285.423405 -214.310411 
L 284.62746 -211.178557 
L 283.831516 -208.015598 
L 283.035571 -206.567719 
L 282.239626 -208.500799 
L 281.443682 -214.387682 
L 280.647737 -223.264651 
L 279.851792 -233.061168 
L 279.055847 -241.417721 
L 278.259903 -246.39708 
L 277.463958 -246.95875 
L 276.668013 -243.156669 
L 275.872069 -236.043956 
L 275.076124 -227.402388 
L 274.280179 -219.44307 
L 273.484235 -214.429661 
L 272.68829 -214.054468 
L 271.892345 -218.628923 
L 271.096401 -226.626934 
L 270.300456 -235.173383 
L 269.504511 -241.271853 
L 268.708567 -242.9508 
L 267.912622 -239.788021 
L 267.116677 -232.844634 
L 266.320733 -224.318232 
L 265.524788 -217.040159 
L 264.728843 -213.678566 
L 263.932898 -215.664632 
L 263.136954 -222.358413 
L 262.341009 -231.173705 
L 261.545064 -238.705841 
L 260.74912 -242.112213 
L 259.953175 -240.052414 
L 259.15723 -232.980348 
L 258.361286 -222.887178 
L 257.565341 -212.630846 
L 256.769396 -204.943647 
L 255.973452 -201.361682 
L 255.177507 -201.628813 
L 254.381562 -204.016151 
L 253.585618 -206.308833 
L 252.789673 -206.801674 
L 251.993728 -204.855093 
L 251.197784 -200.904186 
L 250.401839 -196.030847 
L 249.605894 -191.338472 
L 248.80995 -187.452901 
L 248.014005 -184.42851 
L 247.21806 -182.077099 
L 246.422115 -180.448213 
L 245.626171 -180.117184 
L 244.830226 -182.088379 
L 244.034281 -187.367049 
L 243.238337 -196.410221 
L 242.442392 -208.643841 
L 241.646447 -222.204593 
L 240.850503 -234.140332 
L 240.054558 -241.211162 
L 239.258613 -241.057822 
L 238.462669 -233.212387 
L 237.666724 -219.463086 
L 236.870779 -203.345177 
L 236.074835 -188.91132 
L 235.27889 -179.351893 
L 234.482945 -176.131019 
L 233.687001 -178.886375 
L 232.891056 -185.924987 
L 232.095111 -194.99817 
L 231.299166 -203.974609 
L 230.503222 -211.182363 
L 229.707277 -215.585967 
L 228.911332 -216.995502 
L 228.115388 -216.090644 
L 227.319443 -214.01806 
L 226.523498 -211.713604 
L 225.727554 -209.379758 
L 224.931609 -206.530219 
L 224.135664 -202.607492 
L 223.33972 -197.669786 
L 222.543775 -192.63459 
L 221.74783 -188.974353 
L 220.951886 -188.069757 
L 220.155941 -190.514573 
L 219.359996 -195.669765 
L 218.564052 -201.717889 
L 217.768107 -206.281003 
L 216.972162 -207.35665 
L 216.176218 -204.142527 
L 215.380273 -197.409928 
L 214.584328 -189.298254 
L 213.788383 -182.576939 
L 212.992439 -179.576268 
L 212.196494 -181.172917 
L 211.400549 -186.329431 
L 210.604605 -192.498383 
L 209.80866 -196.699116 
L 209.012715 -196.693703 
L 208.216771 -191.763711 
L 207.420826 -182.91191 
L 206.624881 -172.515984 
L 205.828937 -163.505718 
L 205.032992 -158.265775 
L 204.237047 -157.730258 
L 203.441103 -161.183378 
L 202.645158 -166.842309 
L 201.849213 -172.754208 
L 201.053269 -177.449384 
L 200.257324 -180.168693 
L 199.461379 -180.87164 
L 198.665434 -180.168436 
L 197.86949 -179.042868 
L 197.073545 -178.304365 
L 196.2776 -178.037403 
L 195.481656 -177.483055 
L 194.685711 -175.522332 
L 193.889766 -171.429809 
L 193.093822 -165.367265 
L 192.297877 -158.300805 
L 191.501932 -151.43217 
L 190.705988 -145.656125 
L 189.910043 -141.522216 
L 189.114098 -139.537145 
L 188.318154 -140.259838 
L 187.522209 -143.975314 
L 186.726264 -150.332403 
L 185.93032 -158.45435 
L 185.134375 -167.401179 
L 184.33843 -176.382872 
L 183.542485 -184.39348 
L 182.746541 -189.746008 
L 181.950596 -190.509742 
L 181.154651 -185.853879 
L 180.358707 -177.098239 
L 179.562762 -167.478773 
L 178.766817 -160.458387 
L 177.970873 -157.7893 
L 177.174928 -159.189114 
L 176.378983 -163.309367 
L 175.583039 -168.496103 
L 174.787094 -172.998442 
L 173.991149 -175.04789 
L 173.195205 -173.374902 
L 172.39926 -168.063666 
L 171.603315 -160.88616 
L 170.807371 -154.748485 
L 170.011426 -152.653415 
L 169.215481 -156.575578 
L 168.419537 -166.389255 
L 167.623592 -179.41622 
L 166.827647 -191.446028 
L 166.031702 -198.769058 
L 165.235758 -199.8419 
L 164.439813 -195.760189 
L 163.643868 -189.372321 
L 162.847924 -183.566916 
L 162.051979 -180.05879 
L 161.256034 -179.373582 
L 160.46009 -181.218701 
L 159.664145 -184.596962 
L 158.8682 -187.986838 
L 158.072256 -189.977167 
L 157.276311 -190.006272 
L 156.480366 -188.461204 
L 155.684422 -186.035582 
L 154.888477 -183.133427 
L 154.092532 -179.932292 
L 153.296588 -176.801036 
L 152.500643 -174.481484 
L 151.704698 -173.762706 
L 150.908753 -174.893669 
L 150.112809 -177.432632 
L 149.316864 -180.755037 
L 148.520919 -184.54581 
L 147.724975 -188.718065 
L 146.92903 -192.889559 
L 146.133085 -196.103275 
L 145.337141 -197.366397 
L 144.541196 -196.521838 
L 143.745251 -194.497351 
L 142.949307 -192.747935 
L 142.153362 -192.488099 
L 141.357417 -194.290594 
L 140.561473 -198.080552 
L 139.765528 -203.235676 
L 138.969583 -208.54448 
L 138.173639 -212.121176 
L 137.377694 -211.941233 
L 136.581749 -207.164641 
L 135.785805 -199.08688 
L 134.98986 -190.754231 
L 134.193915 -185.524516 
L 133.39797 -185.634569 
L 132.602026 -191.587751 
L 131.806081 -202.273197 
L 131.010136 -215.379055 
L 130.214192 -227.940082 
L 129.418247 -237.078316 
L 128.622302 -240.860926 
L 127.826358 -238.874593 
L 127.030413 -232.168849 
L 126.234468 -222.699691 
L 125.438524 -212.658185 
L 124.642579 -203.905509 
L 123.846634 -197.533851 
L 123.05069 -193.567398 
L 122.254745 -191.00537 
L 121.4588 -188.477542 
L 120.662856 -185.209322 
L 119.866911 -181.40802 
L 119.070966 -177.801896 
L 118.275021 -175.079425 
L 117.479077 -173.738574 
L 116.683132 -174.058813 
L 115.887187 -175.904668 
L 115.091243 -178.465436 
L 114.295298 -180.290615 
L 113.499353 -179.866905 
L 112.703409 -176.430497 
L 111.907464 -170.355178 
L 111.111519 -162.821171 
L 110.315575 -155.173788 
L 109.51963 -148.590891 
L 108.723685 -144.052311 
L 107.927741 -142.217883 
L 107.131796 -143.233373 
L 106.335851 -146.782078 
L 105.539907 -152.427753 
L 104.743962 -159.92788 
L 103.948017 -169.159107 
L 103.152073 -179.620866 
L 102.356128 -190.073565 
L 101.560183 -198.931357 
L 100.764238 -205.087901 
L 99.968294 -208.392552 
L 99.172349 -209.487393 
L 98.376404 -209.229763 
L 97.58046 -208.204421 
L 96.784515 -206.687808 
L 95.98857 -204.89055 
L 95.192626 -203.06878 
L 94.396681 -201.376856 
L 93.600736 -199.732838 
L 92.804792 -198.007865 
L 92.008847 -196.37135 
L 91.212902 -195.362759 
L 90.416958 -195.604273 
L 89.621013 -197.429434 
L 88.825068 -200.696147 
L 88.029124 -204.810645 
L 87.233179 -208.807181 
L 86.437234 -211.413888 
L 85.641289 -211.297253 
L 84.845345 -207.604564 
L 84.0494 -200.476065 
L 83.253455 -191.148342 
L 82.457511 -181.628811 
L 81.661566 -174.090498 
L 80.865621 -170.068785 
L 80.069677 -169.710822 
L 79.273732 -171.710653 
L 78.477787 -174.079745 
L 77.681843 -175.091035 
L 76.885898 -173.868183 
L 76.089953 -170.433502 
L 75.294009 -165.242109 
L 74.498064 -158.758915 
L 73.702119 -151.694389 
L 72.906175 -145.444417 
L 72.11023 -141.950018 
L 71.314285 -142.921985 
L 70.51834 -148.934499 
L 69.722396 -159.022693 
L 68.926451 -170.978399 
L 68.130506 -182.008091 
L 67.334562 -189.433929 
L 66.538617 -191.345469 
L 65.742672 -187.168352 
L 64.946728 -178.008005 
L 64.150783 -166.481736 
L 63.354838 -155.848302 
L 62.558894 -148.762176 
L 61.762949 -146.416059 
L 60.967004 -148.459521 
L 60.17106 -153.460646 
L 59.375115 -159.521383 
L 58.57917 -164.695504 
L 57.783226 -167.17491 
L 56.987281 -165.747818 
L 56.191336 -160.53696 
L 55.395392 -153.150891 
L 54.599447 -145.910948 
L 53.803502 -140.738617 
L 53.007557 -138.494151 
L 52.211613 -139.019005 
L 51.415668 -141.500353 
L 50.619723 -144.829223 
L 49.823779 -148.044613 
L 49.027834 -150.88364 
L 48.231889 -154.012303 
L 47.435945 -158.507873 
L 46.64 -164.81467 
z
" style="stroke: #e41a1c; stroke-opacity: 0.3"/>
    </defs>
    <g clip-path="url(#pf46adfbe55)">
     <use xlink:href="#mf5528265ce" x="0" y="360" style="fill: #e41a1c; fill-opacity: 0.3; stroke: #e41a1c; stroke-opacity: 0.3"/>
    </g>
   </g>
   <g id="PolyCollection_2">
    <defs>
     <path id="m3c37426a9a" d="M 46.64 -163.080066 
L 46.64 -129.317115 
L 47.435945 -127.027109 
L 48.231889 -124.139403 
L 49.027834 -120.670285 
L 49.823779 -117.010865 
L 50.619723 -113.981406 
L 51.415668 -112.540042 
L 52.211613 -113.262952 
L 53.007557 -115.931771 
L 53.803502 -119.504067 
L 54.599447 -122.515983 
L 55.395392 -123.696825 
L 56.191336 -122.451414 
L 56.987281 -119.036881 
L 57.783226 -114.452171 
L 58.57917 -110.097471 
L 59.375115 -107.303143 
L 60.17106 -106.884153 
L 60.967004 -108.863774 
L 61.762949 -112.461359 
L 62.558894 -116.385441 
L 63.354838 -119.359648 
L 64.150783 -120.664721 
L 64.946728 -120.428139 
L 65.742672 -119.500208 
L 66.538617 -118.978804 
L 67.334562 -119.637925 
L 68.130506 -121.547117 
L 68.926451 -124.044651 
L 69.722396 -126.048973 
L 70.51834 -126.557968 
L 71.314285 -125.120095 
L 72.11023 -122.059119 
L 72.906175 -118.327189 
L 73.702119 -115.048627 
L 74.498064 -112.995044 
L 75.294009 -112.274346 
L 76.089953 -112.370883 
L 76.885898 -112.452041 
L 77.681843 -111.773186 
L 78.477787 -110.054141 
L 79.273732 -107.699465 
L 80.069677 -105.73608 
L 80.865621 -105.428211 
L 81.661566 -107.681038 
L 82.457511 -112.502978 
L 83.253455 -118.832209 
L 84.0494 -124.863199 
L 84.845345 -128.737687 
L 85.641289 -129.272149 
L 86.437234 -126.397378 
L 87.233179 -121.166742 
L 88.029124 -115.401309 
L 88.825068 -111.123851 
L 89.621013 -109.890197 
L 90.416958 -112.176447 
L 91.212902 -117.109703 
L 92.008847 -122.739364 
L 92.804792 -126.787928 
L 93.600736 -127.590866 
L 94.396681 -124.765185 
L 95.192626 -119.231877 
L 95.98857 -112.683407 
L 96.784515 -106.916969 
L 97.58046 -103.348703 
L 98.376404 -102.7751 
L 99.172349 -105.292403 
L 99.968294 -110.323448 
L 100.764238 -116.794714 
L 101.560183 -123.449261 
L 102.356128 -129.163068 
L 103.152073 -133.124012 
L 103.948017 -134.858391 
L 104.743962 -134.219853 
L 105.539907 -131.430257 
L 106.335851 -127.119574 
L 107.131796 -122.2546 
L 107.927741 -117.93665 
L 108.723685 -115.147928 
L 109.51963 -114.548569 
L 110.315575 -116.376742 
L 111.111519 -120.403166 
L 111.907464 -125.87921 
L 112.703409 -131.56619 
L 113.499353 -135.987132 
L 114.295298 -137.882116 
L 115.091243 -136.665042 
L 115.887187 -132.628888 
L 116.683132 -126.791709 
L 117.479077 -120.502587 
L 118.275021 -115.016567 
L 119.070966 -111.182919 
L 119.866911 -109.296236 
L 120.662856 -109.106971 
L 121.4588 -109.973113 
L 122.254745 -111.112036 
L 123.05069 -111.867921 
L 123.846634 -111.89689 
L 124.642579 -111.218985 
L 125.438524 -110.150079 
L 126.234468 -109.158007 
L 127.030413 -108.689788 
L 127.826358 -109.01919 
L 128.622302 -110.163112 
L 129.418247 -111.885202 
L 130.214192 -113.762906 
L 131.010136 -115.287429 
L 131.806081 -115.989138 
L 132.602026 -115.585988 
L 133.39797 -114.121105 
L 134.193915 -112.013613 
L 134.98986 -109.953041 
L 135.785805 -108.655259 
L 136.581749 -108.594341 
L 137.377694 -109.835004 
L 138.173639 -112.028578 
L 138.969583 -114.56358 
L 139.765528 -116.801663 
L 140.561473 -118.294405 
L 141.357417 -118.897266 
L 142.153362 -118.760376 
L 142.949307 -118.218652 
L 143.745251 -117.613704 
L 144.541196 -117.10188 
L 145.337141 -116.543687 
L 146.133085 -115.568841 
L 146.92903 -113.809537 
L 147.724975 -111.147991 
L 148.520919 -107.80975 
L 149.316864 -104.284057 
L 150.112809 -101.171481 
L 150.908753 -99.05067 
L 151.704698 -98.373961 
L 152.500643 -99.331764 
L 153.296588 -101.696314 
L 154.092532 -104.801052 
L 154.888477 -107.761949 
L 155.684422 -109.823272 
L 156.480366 -110.605466 
L 157.276311 -110.152069 
L 158.072256 -108.830792 
L 158.8682 -107.177892 
L 159.664145 -105.726886 
L 160.46009 -104.839794 
L 161.256034 -104.594974 
L 162.051979 -104.800815 
L 162.847924 -105.129765 
L 163.643868 -105.280812 
L 164.439813 -105.086727 
L 165.235758 -104.553666 
L 166.031702 -103.84892 
L 166.827647 -103.218933 
L 167.623592 -102.828464 
L 168.419537 -102.614821 
L 169.215481 -102.310503 
L 170.011426 -101.673131 
L 170.807371 -100.745037 
L 171.603315 -99.893289 
L 172.39926 -99.590588 
L 173.195205 -100.125418 
L 173.991149 -101.447546 
L 174.787094 -103.222964 
L 175.583039 -104.970381 
L 176.378983 -106.108799 
L 177.174928 -105.979591 
L 177.970873 -103.999602 
L 178.766817 -99.926295 
L 179.562762 -94.084972 
L 180.358707 -87.41347 
L 181.154651 -81.255012 
L 181.950596 -76.948711 
L 182.746541 -75.37981 
L 183.542485 -76.676165 
L 184.33843 -80.173501 
L 185.134375 -84.67401 
L 185.93032 -88.902744 
L 186.726264 -91.945618 
L 187.522209 -93.456171 
L 188.318154 -93.595801 
L 189.114098 -92.830227 
L 189.910043 -91.7091 
L 190.705988 -90.687413 
L 191.501932 -90.002788 
L 192.297877 -89.631048 
L 193.093822 -89.359705 
L 193.889766 -88.969568 
L 194.685711 -88.416331 
L 195.481656 -87.877379 
L 196.2776 -87.632869 
L 197.073545 -87.878318 
L 197.86949 -88.601037 
L 198.665434 -89.591486 
L 199.461379 -90.552413 
L 200.257324 -91.20136 
L 201.053269 -91.312956 
L 201.849213 -90.734344 
L 202.645158 -89.413425 
L 203.441103 -87.432623 
L 204.237047 -85.003306 
L 205.032992 -82.384412 
L 205.828937 -79.766633 
L 206.624881 -77.236753 
L 207.420826 -74.874062 
L 208.216771 -72.866724 
L 209.012715 -71.494076 
L 209.80866 -70.97759 
L 210.604605 -71.343303 
L 211.400549 -72.418126 
L 212.196494 -73.945358 
L 212.992439 -75.666856 
L 213.788383 -77.28628 
L 214.584328 -78.446327 
L 215.380273 -78.860929 
L 216.176218 -78.535118 
L 216.972162 -77.872644 
L 217.768107 -77.559082 
L 218.564052 -78.30324 
L 219.359996 -80.589529 
L 220.155941 -84.508072 
L 220.951886 -89.660718 
L 221.74783 -95.176225 
L 222.543775 -99.898673 
L 223.33972 -102.731788 
L 224.135664 -102.99623 
L 224.931609 -100.636497 
L 225.727554 -96.226624 
L 226.523498 -90.829913 
L 227.319443 -85.761237 
L 228.115388 -82.257223 
L 228.911332 -81.109102 
L 229.707277 -82.41425 
L 230.503222 -85.590078 
L 231.299166 -89.641831 
L 232.095111 -93.520654 
L 232.891056 -96.394023 
L 233.687001 -97.776471 
L 234.482945 -97.571766 
L 235.27889 -96.060899 
L 236.074835 -93.802947 
L 236.870779 -91.420856 
L 237.666724 -89.352174 
L 238.462669 -87.712611 
L 239.258613 -86.343833 
L 240.054558 -84.986821 
L 240.850503 -83.454713 
L 241.646447 -81.708481 
L 242.442392 -79.830271 
L 243.238337 -77.960541 
L 244.034281 -76.257456 
L 244.830226 -74.877559 
L 245.626171 -73.951205 
L 246.422115 -73.563168 
L 247.21806 -73.771767 
L 248.014005 -74.657933 
L 248.80995 -76.339975 
L 249.605894 -78.895286 
L 250.401839 -82.216141 
L 251.197784 -85.916212 
L 251.993728 -89.390619 
L 252.789673 -92.013235 
L 253.585618 -93.347281 
L 254.381562 -93.256879 
L 255.177507 -91.901689 
L 255.973452 -89.660199 
L 256.769396 -87.027718 
L 257.565341 -84.499685 
L 258.361286 -82.427813 
L 259.15723 -80.88813 
L 259.953175 -79.665627 
L 260.74912 -78.413717 
L 261.545064 -76.923431 
L 262.341009 -75.346013 
L 263.136954 -74.207524 
L 263.932898 -74.167574 
L 264.728843 -75.652009 
L 265.524788 -78.580671 
L 266.320733 -82.355686 
L 267.116677 -86.125985 
L 267.912622 -89.173527 
L 268.708567 -91.197027 
L 269.504511 -92.373356 
L 270.300456 -93.225129 
L 271.096401 -94.380289 
L 271.892345 -96.303664 
L 272.68829 -99.070341 
L 273.484235 -102.257393 
L 274.280179 -105.028426 
L 275.076124 -106.423388 
L 275.872069 -105.762227 
L 276.668013 -102.996614 
L 277.463958 -98.826638 
L 278.259903 -94.465239 
L 279.055847 -91.125367 
L 279.851792 -89.501065 
L 280.647737 -89.522034 
L 281.443682 -90.501496 
L 282.239626 -91.583334 
L 283.035571 -92.219403 
L 283.831516 -92.406012 
L 284.62746 -92.601509 
L 285.423405 -93.438335 
L 286.21935 -95.40107 
L 287.015294 -98.597794 
L 287.811239 -102.673265 
L 288.607184 -106.880851 
L 289.403128 -110.327367 
L 290.199073 -112.323775 
L 290.995018 -112.671 
L 291.790962 -111.725188 
L 292.586907 -110.217374 
L 293.382852 -108.926296 
L 294.178796 -108.334931 
L 294.974741 -108.389554 
L 295.770686 -108.48237 
L 296.56663 -107.722424 
L 297.362575 -105.41129 
L 298.15852 -101.497811 
L 298.954465 -96.744254 
L 299.750409 -92.456537 
L 300.546354 -89.889668 
L 301.342299 -89.644233 
L 302.138243 -91.371084 
L 302.934188 -93.939267 
L 303.730133 -95.978196 
L 304.526077 -96.487309 
L 305.322022 -95.200273 
L 306.117967 -92.596494 
L 306.913911 -89.639504 
L 307.709856 -87.395806 
L 308.505801 -86.675164 
L 309.301745 -87.759731 
L 310.09769 -90.278621 
L 310.893635 -93.341297 
L 311.689579 -95.954569 
L 312.485524 -97.525429 
L 313.281469 -98.141713 
L 314.077414 -98.455314 
L 314.873358 -99.263131 
L 315.669303 -101.04857 
L 316.465248 -103.707505 
L 317.261192 -106.54951 
L 318.057137 -108.565143 
L 318.853082 -108.878774 
L 319.649026 -107.208157 
L 320.444971 -104.076515 
L 321.240916 -100.608255 
L 322.03686 -97.995903 
L 322.832805 -96.940145 
L 323.62875 -97.358505 
L 324.424694 -98.474086 
L 325.220639 -99.197299 
L 326.016584 -98.627079 
L 326.812528 -96.491854 
L 327.608473 -93.350571 
L 328.404418 -90.431751 
L 329.200363 -89.150343 
L 329.996307 -90.515616 
L 330.792252 -94.690386 
L 331.588197 -100.864962 
L 332.384141 -107.484506 
L 333.180086 -112.773201 
L 333.976031 -115.385628 
L 334.771975 -114.920497 
L 335.56792 -112.061186 
L 336.363865 -108.281514 
L 337.159809 -105.26579 
L 337.955754 -104.290215 
L 338.751699 -105.769946 
L 339.547643 -109.106154 
L 340.343588 -112.908336 
L 341.139533 -115.546566 
L 341.935477 -115.825265 
L 342.731422 -113.471547 
L 343.527367 -109.196286 
L 344.323311 -104.329204 
L 345.119256 -100.271255 
L 345.915201 -98.040675 
L 346.711146 -98.0441 
L 347.50709 -100.062431 
L 348.303035 -103.403523 
L 349.09898 -107.17152 
L 349.894924 -110.555966 
L 350.690869 -113.012742 
L 351.486814 -114.277076 
L 352.282758 -114.274752 
L 353.078703 -113.052162 
L 353.874648 -110.771732 
L 354.670592 -107.720872 
L 355.466537 -104.287727 
L 356.262482 -100.918641 
L 357.058426 -98.079786 
L 357.854371 -96.211484 
L 358.650316 -95.646632 
L 359.44626 -96.486882 
L 360.242205 -98.487412 
L 361.03815 -101.04007 
L 361.834095 -103.308236 
L 362.630039 -104.485717 
L 363.425984 -104.090918 
L 364.221929 -102.178385 
L 365.017873 -99.353736 
L 365.813818 -96.551905 
L 366.609763 -94.672246 
L 367.405707 -94.24858 
L 368.201652 -95.298033 
L 368.997597 -97.383721 
L 369.793541 -99.821167 
L 370.589486 -101.920897 
L 371.385431 -103.198504 
L 372.181375 -103.521326 
L 372.97732 -103.144497 
L 373.773265 -102.583558 
L 374.569209 -102.352437 
L 375.365154 -102.701208 
L 376.161099 -103.496327 
L 376.957043 -104.290017 
L 377.752988 -104.514949 
L 378.548933 -103.701506 
L 379.344878 -101.653859 
L 380.140822 -98.559244 
L 380.936767 -94.996942 
L 381.732712 -91.809733 
L 382.528656 -89.855542 
L 383.324601 -89.732453 
L 384.120546 -91.580156 
L 384.91649 -95.008891 
L 385.712435 -99.169927 
L 386.50838 -102.977332 
L 387.304324 -105.471283 
L 388.100269 -106.224185 
L 388.896214 -105.545401 
L 389.692158 -104.274241 
L 390.488103 -103.29064 
L 391.284048 -103.087303 
L 392.079992 -103.602024 
L 392.875937 -104.292278 
L 393.671882 -104.35262 
L 394.467827 -103.011626 
L 395.263771 -99.868807 
L 396.059716 -95.168892 
L 396.855661 -89.848449 
L 397.651605 -85.258931 
L 398.44755 -82.662687 
L 399.243495 -82.742751 
L 400.039439 -85.34797 
L 400.835384 -89.566431 
L 401.631329 -94.075147 
L 402.427273 -97.608219 
L 403.223218 -99.357286 
L 404.019163 -99.170498 
L 404.815107 -97.512212 
L 405.611052 -95.240825 
L 406.406997 -93.312462 
L 407.202941 -92.494278 
L 407.998886 -93.1251 
L 408.794831 -94.985543 
L 409.590775 -97.372309 
L 410.38672 -99.381439 
L 411.182665 -100.263423 
L 411.97861 -99.674912 
L 412.774554 -97.73756 
L 413.570499 -94.925699 
L 413.570499 -142.603976 
L 413.570499 -142.603976 
L 412.774554 -145.101794 
L 411.97861 -146.688668 
L 411.182665 -146.986089 
L 410.38672 -145.901144 
L 409.590775 -143.737169 
L 408.794831 -141.169108 
L 407.998886 -139.077689 
L 407.202941 -138.271964 
L 406.406997 -139.158369 
L 405.611052 -141.478407 
L 404.815107 -144.291188 
L 404.019163 -146.29547 
L 403.223218 -146.368059 
L 402.427273 -144.051617 
L 401.631329 -139.770387 
L 400.835384 -134.695966 
L 400.039439 -130.332594 
L 399.243495 -127.997841 
L 398.44755 -128.400679 
L 397.651605 -131.45746 
L 396.855661 -136.379424 
L 396.059716 -141.96394 
L 395.263771 -146.96749 
L 394.467827 -150.453433 
L 393.671882 -152.044254 
L 392.875937 -152.001208 
L 392.079992 -151.059146 
L 391.284048 -150.052276 
L 390.488103 -149.519365 
L 389.692158 -149.515173 
L 388.896214 -149.70645 
L 388.100269 -149.621076 
L 387.304324 -148.848226 
L 386.50838 -147.131173 
L 385.712435 -144.469104 
L 384.91649 -141.244502 
L 384.120546 -138.202668 
L 383.324601 -136.20344 
L 382.528656 -135.87302 
L 381.732712 -137.350752 
L 380.936767 -140.246764 
L 380.140822 -143.797799 
L 379.344878 -147.132603 
L 378.548933 -149.554696 
L 377.752988 -150.755649 
L 376.957043 -150.87179 
L 376.161099 -150.349797 
L 375.365154 -149.694289 
L 374.569209 -149.240987 
L 373.773265 -149.059396 
L 372.97732 -148.985888 
L 372.181375 -148.727044 
L 371.385431 -147.987741 
L 370.589486 -146.613094 
L 369.793541 -144.717405 
L 368.997597 -142.718956 
L 368.201652 -141.212545 
L 367.405707 -140.723068 
L 366.609763 -141.477363 
L 365.813818 -143.309269 
L 365.017873 -145.716166 
L 364.221929 -148.014079 
L 363.425984 -149.52797 
L 362.630039 -149.778023 
L 361.834095 -148.637222 
L 361.03815 -146.41294 
L 360.242205 -143.790525 
L 359.44626 -141.629358 
L 358.650316 -140.681479 
L 357.854371 -141.339456 
L 357.058426 -143.511423 
L 356.262482 -146.683208 
L 355.466537 -150.147735 
L 354.670592 -153.283688 
L 353.874648 -155.731527 
L 353.078703 -157.382444 
L 352.282758 -158.221611 
L 351.486814 -158.174226 
L 350.690869 -157.09467 
L 349.894924 -154.901663 
L 349.09898 -151.745834 
L 348.303035 -148.106316 
L 347.50709 -144.772239 
L 346.711146 -142.687916 
L 345.915201 -142.659054 
L 345.119256 -144.995726 
L 344.323311 -149.271341 
L 343.527367 -154.37475 
L 342.731422 -158.869831 
L 341.935477 -161.492199 
L 341.139533 -161.57081 
L 340.343588 -159.253559 
L 339.547643 -155.499024 
L 338.751699 -151.805668 
L 337.955754 -149.691546 
L 337.159809 -150.073228 
L 336.363865 -152.814831 
L 335.56792 -156.702169 
L 334.771975 -159.902245 
L 333.976031 -160.703036 
L 333.180086 -158.201626 
L 332.384141 -152.674236 
L 331.588197 -145.502786 
L 330.792252 -138.677006 
L 329.996307 -134.041161 
L 329.200363 -132.585346 
L 328.404418 -134.10433 
L 327.608473 -137.380872 
L 326.812528 -140.77626 
L 326.016584 -142.935839 
L 325.220639 -143.316337 
L 324.424694 -142.337567 
L 323.62875 -141.101534 
L 322.832805 -140.804545 
L 322.03686 -142.136802 
L 321.240916 -144.978888 
L 320.444971 -148.510786 
L 319.649026 -151.611547 
L 318.853082 -153.325378 
L 318.057137 -153.213021 
L 317.261192 -151.494864 
L 316.465248 -148.938156 
L 315.669303 -146.495932 
L 314.873358 -144.841109 
L 314.077414 -144.050375 
L 313.281469 -143.624897 
L 312.485524 -142.816214 
L 311.689579 -141.050458 
L 310.893635 -138.243148 
L 310.09769 -134.902616 
L 309.301745 -131.992923 
L 308.505801 -130.561528 
L 307.709856 -131.228103 
L 306.913911 -133.776398 
L 306.117967 -137.143067 
L 305.322022 -139.889303 
L 304.526077 -140.897025 
L 303.730133 -139.893384 
L 302.934188 -137.540436 
L 302.138243 -135.080866 
L 301.342299 -133.771625 
L 300.546354 -134.400663 
L 299.750409 -137.047274 
L 298.954465 -141.111358 
L 298.15852 -145.567453 
L 297.362575 -149.340478 
L 296.56663 -151.679468 
L 295.770686 -152.422887 
L 294.974741 -152.049709 
L 294.178796 -151.448575 
L 293.382852 -151.47056 
L 292.586907 -152.469643 
L 291.790962 -154.077735 
L 290.995018 -155.363671 
L 290.199073 -155.301567 
L 289.403128 -153.285395 
L 288.607184 -149.431697 
L 287.811239 -144.55219 
L 287.015294 -139.822051 
L 286.21935 -136.279181 
L 285.423405 -134.37678 
L 284.62746 -133.832847 
L 283.831516 -133.876101 
L 283.035571 -133.732048 
L 282.239626 -133.0522 
L 281.443682 -132.057115 
L 280.647737 -131.361097 
L 279.851792 -131.635337 
L 279.055847 -133.299797 
L 278.259903 -136.339832 
L 277.463958 -140.274776 
L 276.668013 -144.276261 
L 275.872069 -147.402967 
L 275.076124 -148.902431 
L 274.280179 -148.497309 
L 273.484235 -146.512326 
L 272.68829 -143.73329 
L 271.892345 -141.042741 
L 271.096401 -139.009926 
L 270.300456 -137.644944 
L 269.504511 -136.452777 
L 268.708567 -134.761398 
L 267.912622 -132.13335 
L 267.116677 -128.621287 
L 266.320733 -124.734399 
L 265.524788 -121.176366 
L 264.728843 -118.54759 
L 263.932898 -117.162244 
L 263.136954 -117.006845 
L 262.341009 -117.804556 
L 261.545064 -119.139929 
L 260.74912 -120.606411 
L 259.953175 -121.952802 
L 259.15723 -123.186605 
L 258.361286 -124.562288 
L 257.565341 -126.419408 
L 256.769396 -128.926967 
L 255.973452 -131.868998 
L 255.177507 -134.626176 
L 254.381562 -136.408582 
L 253.585618 -136.611113 
L 252.789673 -135.076394 
L 251.993728 -132.129342 
L 251.197784 -128.398479 
L 250.401839 -124.559691 
L 249.605894 -121.147789 
L 248.80995 -118.481638 
L 248.014005 -116.663196 
L 247.21806 -115.616914 
L 246.422115 -115.172489 
L 245.626171 -115.180799 
L 244.830226 -115.601588 
L 244.034281 -116.493559 
L 243.238337 -117.906745 
L 242.442392 -119.765898 
L 241.646447 -121.852457 
L 240.850503 -123.905622 
L 240.054558 -125.756053 
L 239.258613 -127.39211 
L 238.462669 -128.9305 
L 237.666724 -130.531633 
L 236.870779 -132.309278 
L 236.074835 -134.252951 
L 235.27889 -136.163739 
L 234.482945 -137.627698 
L 233.687001 -138.09381 
L 232.891056 -137.101973 
L 232.095111 -134.574101 
L 231.299166 -130.976747 
L 230.503222 -127.228886 
L 229.707277 -124.401107 
L 228.911332 -123.376441 
L 228.115388 -124.613085 
L 227.319443 -128.029781 
L 226.523498 -132.986197 
L 225.727554 -138.377181 
L 224.931609 -142.888674 
L 224.135664 -145.382092 
L 223.33972 -145.245426 
L 222.543775 -142.542002 
L 221.74783 -137.924946 
L 220.951886 -132.410883 
L 220.155941 -127.107202 
L 219.359996 -122.930854 
L 218.564052 -120.364319 
L 217.768107 -119.347777 
L 216.972162 -119.382976 
L 216.176218 -119.790003 
L 215.380273 -119.956747 
L 214.584328 -119.481054 
L 213.788383 -118.239026 
L 212.992439 -116.428459 
L 212.196494 -114.532682 
L 211.400549 -113.123768 
L 210.604605 -112.567024 
L 209.80866 -112.856814 
L 209.012715 -113.73641 
L 208.216771 -114.965864 
L 207.420826 -116.491183 
L 206.624881 -118.409015 
L 205.828937 -120.805197 
L 205.032992 -123.631102 
L 204.237047 -126.693078 
L 203.441103 -129.687555 
L 202.645158 -132.225493 
L 201.849213 -133.892213 
L 201.053269 -134.389428 
L 200.257324 -133.700467 
L 199.461379 -132.155553 
L 198.665434 -130.3234 
L 197.86949 -128.768272 
L 197.073545 -127.814486 
L 196.2776 -127.467281 
L 195.481656 -127.515031 
L 194.685711 -127.710024 
L 193.889766 -127.910399 
L 193.093822 -128.126148 
L 192.297877 -128.482601 
L 191.501932 -129.146514 
L 190.705988 -130.229994 
L 189.910043 -131.667074 
L 189.114098 -133.111338 
L 188.318154 -133.959355 
L 187.522209 -133.556759 
L 186.726264 -131.509245 
L 185.93032 -127.926307 
L 185.134375 -123.456196 
L 184.33843 -119.107137 
L 183.542485 -115.97527 
L 182.746541 -114.984149 
L 181.950596 -116.65818 
L 181.154651 -120.956042 
L 180.358707 -127.227923 
L 179.562762 -134.335768 
L 178.766817 -140.918507 
L 177.970873 -145.746505 
L 177.174928 -148.075712 
L 176.378983 -147.8789 
L 175.583039 -145.847718 
L 174.787094 -143.127407 
L 173.991149 -140.84197 
L 173.195205 -139.617979 
L 172.39926 -139.421613 
L 171.603315 -139.806947 
L 170.807371 -140.313753 
L 170.011426 -140.716711 
L 169.215481 -141.026546 
L 168.419537 -141.343485 
L 167.623592 -141.75196 
L 166.827647 -142.315559 
L 166.031702 -143.068686 
L 165.235758 -143.950757 
L 164.439813 -144.76588 
L 163.643868 -145.267763 
L 162.847924 -145.338993 
L 162.051979 -145.115958 
L 161.256034 -144.953595 
L 160.46009 -145.257882 
L 159.664145 -146.284952 
L 158.8682 -147.98434 
L 158.072256 -149.937575 
L 157.276311 -151.448157 
L 156.480366 -151.798067 
L 155.684422 -150.570697 
L 154.888477 -147.863064 
L 154.092532 -144.271203 
L 153.296588 -140.687612 
L 152.500643 -138.046739 
L 151.704698 -137.095893 
L 150.908753 -138.178392 
L 150.112809 -141.067761 
L 149.316864 -145.002868 
L 148.520919 -148.996672 
L 147.724975 -152.254941 
L 146.92903 -154.449502 
L 146.133085 -155.71295 
L 145.337141 -156.412939 
L 144.541196 -156.893857 
L 143.745251 -157.332501 
L 142.949307 -157.707756 
L 142.153362 -157.833993 
L 141.357417 -157.451804 
L 140.561473 -156.372744 
L 139.765528 -154.620861 
L 138.969583 -152.484711 
L 138.173639 -150.440358 
L 137.377694 -148.989754 
L 136.581749 -148.497977 
L 135.785805 -149.087314 
L 134.98986 -150.607068 
L 134.193915 -152.673168 
L 133.39797 -154.754403 
L 132.602026 -156.28257 
L 131.806081 -156.785565 
L 131.010136 -156.038198 
L 130.214192 -154.173788 
L 129.418247 -151.676079 
L 128.622302 -149.226493 
L 127.826358 -147.465546 
L 127.030413 -146.772903 
L 126.234468 -147.152424 
L 125.438524 -148.250227 
L 124.642579 -149.487833 
L 123.846634 -150.272924 
L 123.05069 -150.229872 
L 122.254745 -149.370426 
L 121.4588 -148.134804 
L 120.662856 -147.281798 
L 119.866911 -147.658471 
L 119.070966 -149.907813 
L 118.275021 -154.193476 
L 117.479077 -160.047733 
L 116.683132 -166.435622 
L 115.887187 -172.03836 
L 115.091243 -175.644557 
L 114.295298 -176.486085 
L 113.499353 -174.411575 
L 112.703409 -169.909848 
L 111.907464 -164.036689 
L 111.111519 -158.225754 
L 110.315575 -153.94103 
L 109.51963 -152.225722 
L 108.723685 -153.339846 
L 107.927741 -156.71693 
L 107.131796 -161.270596 
L 106.335851 -165.824682 
L 105.539907 -169.423202 
L 104.743962 -171.431456 
L 103.948017 -171.492891 
L 103.152073 -169.479345 
L 102.356128 -165.511053 
L 101.560183 -159.999588 
L 100.764238 -153.645984 
L 99.968294 -147.395894 
L 99.172349 -142.361272 
L 98.376404 -139.650434 
L 97.58046 -140.046729 
L 96.784515 -143.609845 
L 95.98857 -149.447564 
L 95.192626 -155.90044 
L 94.396681 -161.109056 
L 93.600736 -163.664722 
L 92.804792 -163.023187 
L 92.008847 -159.573521 
L 91.212902 -154.497031 
L 90.416958 -149.4984 
L 89.621013 -146.335931 
L 88.825068 -146.203693 
L 88.029124 -149.203874 
L 87.233179 -154.178278 
L 86.437234 -159.082313 
L 85.641289 -161.822033 
L 84.845345 -161.131539 
L 84.0494 -157.037455 
L 83.253455 -150.750515 
L 82.457511 -144.120339 
L 81.661566 -138.927343 
L 80.865621 -136.27579 
L 80.069677 -136.2741 
L 79.273732 -138.095191 
L 78.477787 -140.401628 
L 77.681843 -141.984111 
L 76.885898 -142.329754 
L 76.089953 -141.828927 
L 75.294009 -141.500646 
L 74.498064 -142.376558 
L 73.702119 -144.897457 
L 72.906175 -148.668818 
L 72.11023 -152.658266 
L 71.314285 -155.669367 
L 70.51834 -156.857391 
L 69.722396 -156.080911 
L 68.926451 -153.952032 
L 68.130506 -151.556208 
L 67.334562 -149.95166 
L 66.538617 -149.679685 
L 65.742672 -150.527343 
L 64.946728 -151.649824 
L 64.150783 -151.976328 
L 63.354838 -150.709011 
L 62.558894 -147.715505 
L 61.762949 -143.668391 
L 60.967004 -139.857763 
L 60.17106 -137.708093 
L 59.375115 -138.167153 
L 58.57917 -141.23866 
L 57.783226 -145.913162 
L 56.987281 -150.564111 
L 56.191336 -153.622596 
L 55.395392 -154.212569 
L 54.599447 -152.460913 
L 53.803502 -149.343773 
L 53.007557 -146.181363 
L 52.211613 -144.11253 
L 51.415668 -143.799562 
L 50.619723 -145.36542 
L 49.823779 -148.473198 
L 49.027834 -152.474579 
L 48.231889 -156.604639 
L 47.435945 -160.232928 
L 46.64 -163.080066 
z
" style="stroke: #377eb8; stroke-opacity: 0.3"/>
    </defs>
    <g clip-path="url(#pf46adfbe55)">
     <use xlink:href="#m3c37426a9a" x="0" y="360" style="fill: #377eb8; fill-opacity: 0.3; stroke: #377eb8; stroke-opacity: 0.3"/>
    </g>
   </g>
   <g id="patch_3">
    <path d="M 229.866466 318.04 
L 229.866466 71.732 
L 331.747385 71.732 
L 331.747385 318.04 
z
" clip-path="url(#pf46adfbe55)" style="fill: #808080; opacity: 0.3"/>
   </g>
   <g id="matplotlib.axis_1">
    <g id="xtick_1">
     <g id="line2d_1">
      <defs>
       <path id="m9e839136bc" d="M 0 0 
L 0 3.5 
" style="stroke: #000000; stroke-width: 0.8"/>
      </defs>
      <g>
       <use xlink:href="#m9e839136bc" x="87.233179" y="318.04" style="stroke: #000000; stroke-width: 0.8"/>
      </g>
     </g>
     <g id="text_1">
      <!-- 0.0 -->
      <g transform="translate(79.281616 332.638438)scale(0.1 -0.1)">
       <defs>
        <path id="DejaVuSans-30" d="M 2034 4250 
Q 1547 4250 1301 3770 
Q 1056 3291 1056 2328 
Q 1056 1369 1301 889 
Q 1547 409 2034 409 
Q 2525 409 2770 889 
Q 3016 1369 3016 2328 
Q 3016 3291 2770 3770 
Q 2525 4250 2034 4250 
z
M 2034 4750 
Q 2819 4750 3233 4129 
Q 3647 3509 3647 2328 
Q 3647 1150 3233 529 
Q 2819 -91 2034 -91 
Q 1250 -91 836 529 
Q 422 1150 422 2328 
Q 422 3509 836 4129 
Q 1250 4750 2034 4750 
z
" transform="scale(0.015625)"/>
        <path id="DejaVuSans-2e" d="M 684 794 
L 1344 794 
L 1344 0 
L 684 0 
L 684 794 
z
" transform="scale(0.015625)"/>
       </defs>
       <use xlink:href="#DejaVuSans-30"/>
       <use xlink:href="#DejaVuSans-2e" x="63.623047"/>
       <use xlink:href="#DejaVuSans-30" x="95.410156"/>
      </g>
     </g>
    </g>
    <g id="xtick_2">
     <g id="line2d_2">
      <g>
       <use xlink:href="#m9e839136bc" x="168.737914" y="318.04" style="stroke: #000000; stroke-width: 0.8"/>
      </g>
     </g>
     <g id="text_2">
      <!-- 0.2 -->
      <g transform="translate(160.786352 332.638438)scale(0.1 -0.1)">
       <defs>
        <path id="DejaVuSans-32" d="M 1228 531 
L 3431 531 
L 3431 0 
L 469 0 
L 469 531 
Q 828 903 1448 1529 
Q 2069 2156 2228 2338 
Q 2531 2678 2651 2914 
Q 2772 3150 2772 3378 
Q 2772 3750 2511 3984 
Q 2250 4219 1831 4219 
Q 1534 4219 1204 4116 
Q 875 4013 500 3803 
L 500 4441 
Q 881 4594 1212 4672 
Q 1544 4750 1819 4750 
Q 2544 4750 2975 4387 
Q 3406 4025 3406 3419 
Q 3406 3131 3298 2873 
Q 3191 2616 2906 2266 
Q 2828 2175 2409 1742 
Q 1991 1309 1228 531 
z
" transform="scale(0.015625)"/>
       </defs>
       <use xlink:href="#DejaVuSans-30"/>
       <use xlink:href="#DejaVuSans-2e" x="63.623047"/>
       <use xlink:href="#DejaVuSans-32" x="95.410156"/>
      </g>
     </g>
    </g>
    <g id="xtick_3">
     <g id="line2d_3">
      <g>
       <use xlink:href="#m9e839136bc" x="250.24265" y="318.04" style="stroke: #000000; stroke-width: 0.8"/>
      </g>
     </g>
     <g id="text_3">
      <!-- 0.4 -->
      <g transform="translate(242.291087 332.638438)scale(0.1 -0.1)">
       <defs>
        <path id="DejaVuSans-34" d="M 2419 4116 
L 825 1625 
L 2419 1625 
L 2419 4116 
z
M 2253 4666 
L 3047 4666 
L 3047 1625 
L 3713 1625 
L 3713 1100 
L 3047 1100 
L 3047 0 
L 2419 0 
L 2419 1100 
L 313 1100 
L 313 1709 
L 2253 4666 
z
" transform="scale(0.015625)"/>
       </defs>
       <use xlink:href="#DejaVuSans-30"/>
       <use xlink:href="#DejaVuSans-2e" x="63.623047"/>
       <use xlink:href="#DejaVuSans-34" x="95.410156"/>
      </g>
     </g>
    </g>
    <g id="xtick_4">
     <g id="line2d_4">
      <g>
       <use xlink:href="#m9e839136bc" x="331.747385" y="318.04" style="stroke: #000000; stroke-width: 0.8"/>
      </g>
     </g>
     <g id="text_4">
      <!-- 0.6 -->
      <g transform="translate(323.795823 332.638438)scale(0.1 -0.1)">
       <defs>
        <path id="DejaVuSans-36" d="M 2113 2584 
Q 1688 2584 1439 2293 
Q 1191 2003 1191 1497 
Q 1191 994 1439 701 
Q 1688 409 2113 409 
Q 2538 409 2786 701 
Q 3034 994 3034 1497 
Q 3034 2003 2786 2293 
Q 2538 2584 2113 2584 
z
M 3366 4563 
L 3366 3988 
Q 3128 4100 2886 4159 
Q 2644 4219 2406 4219 
Q 1781 4219 1451 3797 
Q 1122 3375 1075 2522 
Q 1259 2794 1537 2939 
Q 1816 3084 2150 3084 
Q 2853 3084 3261 2657 
Q 3669 2231 3669 1497 
Q 3669 778 3244 343 
Q 2819 -91 2113 -91 
Q 1303 -91 875 529 
Q 447 1150 447 2328 
Q 447 3434 972 4092 
Q 1497 4750 2381 4750 
Q 2619 4750 2861 4703 
Q 3103 4656 3366 4563 
z
" transform="scale(0.015625)"/>
       </defs>
       <use xlink:href="#DejaVuSans-30"/>
       <use xlink:href="#DejaVuSans-2e" x="63.623047"/>
       <use xlink:href="#DejaVuSans-36" x="95.410156"/>
      </g>
     </g>
    </g>
    <g id="xtick_5">
     <g id="line2d_5">
      <g>
       <use xlink:href="#m9e839136bc" x="413.252121" y="318.04" style="stroke: #000000; stroke-width: 0.8"/>
      </g>
     </g>
     <g id="text_5">
      <!-- 0.8 -->
      <g transform="translate(405.300559 332.638438)scale(0.1 -0.1)">
       <defs>
        <path id="DejaVuSans-38" d="M 2034 2216 
Q 1584 2216 1326 1975 
Q 1069 1734 1069 1313 
Q 1069 891 1326 650 
Q 1584 409 2034 409 
Q 2484 409 2743 651 
Q 3003 894 3003 1313 
Q 3003 1734 2745 1975 
Q 2488 2216 2034 2216 
z
M 1403 2484 
Q 997 2584 770 2862 
Q 544 3141 544 3541 
Q 544 4100 942 4425 
Q 1341 4750 2034 4750 
Q 2731 4750 3128 4425 
Q 3525 4100 3525 3541 
Q 3525 3141 3298 2862 
Q 3072 2584 2669 2484 
Q 3125 2378 3379 2068 
Q 3634 1759 3634 1313 
Q 3634 634 3220 271 
Q 2806 -91 2034 -91 
Q 1263 -91 848 271 
Q 434 634 434 1313 
Q 434 1759 690 2068 
Q 947 2378 1403 2484 
z
M 1172 3481 
Q 1172 3119 1398 2916 
Q 1625 2713 2034 2713 
Q 2441 2713 2670 2916 
Q 2900 3119 2900 3481 
Q 2900 3844 2670 4047 
Q 2441 4250 2034 4250 
Q 1625 4250 1398 4047 
Q 1172 3844 1172 3481 
z
" transform="scale(0.015625)"/>
       </defs>
       <use xlink:href="#DejaVuSans-30"/>
       <use xlink:href="#DejaVuSans-2e" x="63.623047"/>
       <use xlink:href="#DejaVuSans-38" x="95.410156"/>
      </g>
     </g>
    </g>
    <g id="text_6">
     <!-- seconds -->
     <g transform="translate(209.667749 346.316563)scale(0.1 -0.1)">
      <defs>
       <path id="DejaVuSans-73" d="M 2834 3397 
L 2834 2853 
Q 2591 2978 2328 3040 
Q 2066 3103 1784 3103 
Q 1356 3103 1142 2972 
Q 928 2841 928 2578 
Q 928 2378 1081 2264 
Q 1234 2150 1697 2047 
L 1894 2003 
Q 2506 1872 2764 1633 
Q 3022 1394 3022 966 
Q 3022 478 2636 193 
Q 2250 -91 1575 -91 
Q 1294 -91 989 -36 
Q 684 19 347 128 
L 347 722 
Q 666 556 975 473 
Q 1284 391 1588 391 
Q 1994 391 2212 530 
Q 2431 669 2431 922 
Q 2431 1156 2273 1281 
Q 2116 1406 1581 1522 
L 1381 1569 
Q 847 1681 609 1914 
Q 372 2147 372 2553 
Q 372 3047 722 3315 
Q 1072 3584 1716 3584 
Q 2034 3584 2315 3537 
Q 2597 3491 2834 3397 
z
" transform="scale(0.015625)"/>
       <path id="DejaVuSans-65" d="M 3597 1894 
L 3597 1613 
L 953 1613 
Q 991 1019 1311 708 
Q 1631 397 2203 397 
Q 2534 397 2845 478 
Q 3156 559 3463 722 
L 3463 178 
Q 3153 47 2828 -22 
Q 2503 -91 2169 -91 
Q 1331 -91 842 396 
Q 353 884 353 1716 
Q 353 2575 817 3079 
Q 1281 3584 2069 3584 
Q 2775 3584 3186 3129 
Q 3597 2675 3597 1894 
z
M 3022 2063 
Q 3016 2534 2758 2815 
Q 2500 3097 2075 3097 
Q 1594 3097 1305 2825 
Q 1016 2553 972 2059 
L 3022 2063 
z
" transform="scale(0.015625)"/>
       <path id="DejaVuSans-63" d="M 3122 3366 
L 3122 2828 
Q 2878 2963 2633 3030 
Q 2388 3097 2138 3097 
Q 1578 3097 1268 2742 
Q 959 2388 959 1747 
Q 959 1106 1268 751 
Q 1578 397 2138 397 
Q 2388 397 2633 464 
Q 2878 531 3122 666 
L 3122 134 
Q 2881 22 2623 -34 
Q 2366 -91 2075 -91 
Q 1284 -91 818 406 
Q 353 903 353 1747 
Q 353 2603 823 3093 
Q 1294 3584 2113 3584 
Q 2378 3584 2631 3529 
Q 2884 3475 3122 3366 
z
" transform="scale(0.015625)"/>
       <path id="DejaVuSans-6f" d="M 1959 3097 
Q 1497 3097 1228 2736 
Q 959 2375 959 1747 
Q 959 1119 1226 758 
Q 1494 397 1959 397 
Q 2419 397 2687 759 
Q 2956 1122 2956 1747 
Q 2956 2369 2687 2733 
Q 2419 3097 1959 3097 
z
M 1959 3584 
Q 2709 3584 3137 3096 
Q 3566 2609 3566 1747 
Q 3566 888 3137 398 
Q 2709 -91 1959 -91 
Q 1206 -91 779 398 
Q 353 888 353 1747 
Q 353 2609 779 3096 
Q 1206 3584 1959 3584 
z
" transform="scale(0.015625)"/>
       <path id="DejaVuSans-6e" d="M 3513 2113 
L 3513 0 
L 2938 0 
L 2938 2094 
Q 2938 2591 2744 2837 
Q 2550 3084 2163 3084 
Q 1697 3084 1428 2787 
Q 1159 2491 1159 1978 
L 1159 0 
L 581 0 
L 581 3500 
L 1159 3500 
L 1159 2956 
Q 1366 3272 1645 3428 
Q 1925 3584 2291 3584 
Q 2894 3584 3203 3211 
Q 3513 2838 3513 2113 
z
" transform="scale(0.015625)"/>
       <path id="DejaVuSans-64" d="M 2906 2969 
L 2906 4863 
L 3481 4863 
L 3481 0 
L 2906 0 
L 2906 525 
Q 2725 213 2448 61 
Q 2172 -91 1784 -91 
Q 1150 -91 751 415 
Q 353 922 353 1747 
Q 353 2572 751 3078 
Q 1150 3584 1784 3584 
Q 2172 3584 2448 3432 
Q 2725 3281 2906 2969 
z
M 947 1747 
Q 947 1113 1208 752 
Q 1469 391 1925 391 
Q 2381 391 2643 752 
Q 2906 1113 2906 1747 
Q 2906 2381 2643 2742 
Q 2381 3103 1925 3103 
Q 1469 3103 1208 2742 
Q 947 2381 947 1747 
z
" transform="scale(0.015625)"/>
      </defs>
      <use xlink:href="#DejaVuSans-73"/>
      <use xlink:href="#DejaVuSans-65" x="52.099609"/>
      <use xlink:href="#DejaVuSans-63" x="113.623047"/>
      <use xlink:href="#DejaVuSans-6f" x="168.603516"/>
      <use xlink:href="#DejaVuSans-6e" x="229.785156"/>
      <use xlink:href="#DejaVuSans-64" x="293.164062"/>
      <use xlink:href="#DejaVuSans-73" x="356.640625"/>
     </g>
    </g>
   </g>
   <g id="matplotlib.axis_2">
    <g id="ytick_1">
     <g id="line2d_6">
      <defs>
       <path id="mcdd54f4b5e" d="M 0 0 
L -3.5 0 
" style="stroke: #000000; stroke-width: 0.8"/>
      </defs>
      <g>
       <use xlink:href="#mcdd54f4b5e" x="46.64" y="313.532673" style="stroke: #000000; stroke-width: 0.8"/>
      </g>
     </g>
     <g id="text_7">
      <!-- 3 -->
      <g transform="translate(24.897813 317.331892)scale(0.1 -0.1)">
       <defs>
        <path id="DejaVuSans-2212" d="M 678 2272 
L 4684 2272 
L 4684 1741 
L 678 1741 
L 678 2272 
z
" transform="scale(0.015625)"/>
        <path id="DejaVuSans-33" d="M 2597 2516 
Q 3050 2419 3304 2112 
Q 3559 1806 3559 1356 
Q 3559 666 3084 287 
Q 2609 -91 1734 -91 
Q 1441 -91 1130 -33 
Q 819 25 488 141 
L 488 750 
Q 750 597 1062 519 
Q 1375 441 1716 441 
Q 2309 441 2620 675 
Q 2931 909 2931 1356 
Q 2931 1769 2642 2001 
Q 2353 2234 1838 2234 
L 1294 2234 
L 1294 2753 
L 1863 2753 
Q 2328 2753 2575 2939 
Q 2822 3125 2822 3475 
Q 2822 3834 2567 4026 
Q 2313 4219 1838 4219 
Q 1578 4219 1281 4162 
Q 984 4106 628 3988 
L 628 4550 
Q 988 4650 1302 4700 
Q 1616 4750 1894 4750 
Q 2613 4750 3031 4423 
Q 3450 4097 3450 3541 
Q 3450 3153 3228 2886 
Q 3006 2619 2597 2516 
z
" transform="scale(0.015625)"/>
       </defs>
       <use xlink:href="#DejaVuSans-2212"/>
       <use xlink:href="#DejaVuSans-33" x="83.789062"/>
      </g>
     </g>
    </g>
    <g id="ytick_2">
     <g id="line2d_7">
      <g>
       <use xlink:href="#mcdd54f4b5e" x="46.64" y="284.653701" style="stroke: #000000; stroke-width: 0.8"/>
      </g>
     </g>
     <g id="text_8">
      <!-- 2 -->
      <g transform="translate(24.897813 288.45292)scale(0.1 -0.1)">
       <use xlink:href="#DejaVuSans-2212"/>
       <use xlink:href="#DejaVuSans-32" x="83.789062"/>
      </g>
     </g>
    </g>
    <g id="ytick_3">
     <g id="line2d_8">
      <g>
       <use xlink:href="#mcdd54f4b5e" x="46.64" y="255.774728" style="stroke: #000000; stroke-width: 0.8"/>
      </g>
     </g>
     <g id="text_9">
      <!-- 1 -->
      <g transform="translate(24.897813 259.573947)scale(0.1 -0.1)">
       <defs>
        <path id="DejaVuSans-31" d="M 794 531 
L 1825 531 
L 1825 4091 
L 703 3866 
L 703 4441 
L 1819 4666 
L 2450 4666 
L 2450 531 
L 3481 531 
L 3481 0 
L 794 0 
L 794 531 
z
" transform="scale(0.015625)"/>
       </defs>
       <use xlink:href="#DejaVuSans-2212"/>
       <use xlink:href="#DejaVuSans-31" x="83.789062"/>
      </g>
     </g>
    </g>
    <g id="ytick_4">
     <g id="line2d_9">
      <g>
       <use xlink:href="#mcdd54f4b5e" x="46.64" y="226.895756" style="stroke: #000000; stroke-width: 0.8"/>
      </g>
     </g>
     <g id="text_10">
      <!-- 0 -->
      <g transform="translate(33.2775 230.694975)scale(0.1 -0.1)">
       <use xlink:href="#DejaVuSans-30"/>
      </g>
     </g>
    </g>
    <g id="ytick_5">
     <g id="line2d_10">
      <g>
       <use xlink:href="#mcdd54f4b5e" x="46.64" y="198.016783" style="stroke: #000000; stroke-width: 0.8"/>
      </g>
     </g>
     <g id="text_11">
      <!-- 1 -->
      <g transform="translate(33.2775 201.816002)scale(0.1 -0.1)">
       <use xlink:href="#DejaVuSans-31"/>
      </g>
     </g>
    </g>
    <g id="ytick_6">
     <g id="line2d_11">
      <g>
       <use xlink:href="#mcdd54f4b5e" x="46.64" y="169.137811" style="stroke: #000000; stroke-width: 0.8"/>
      </g>
     </g>
     <g id="text_12">
      <!-- 2 -->
      <g transform="translate(33.2775 172.93703)scale(0.1 -0.1)">
       <use xlink:href="#DejaVuSans-32"/>
      </g>
     </g>
    </g>
    <g id="ytick_7">
     <g id="line2d_12">
      <g>
       <use xlink:href="#mcdd54f4b5e" x="46.64" y="140.258839" style="stroke: #000000; stroke-width: 0.8"/>
      </g>
     </g>
     <g id="text_13">
      <!-- 3 -->
      <g transform="translate(33.2775 144.058057)scale(0.1 -0.1)">
       <use xlink:href="#DejaVuSans-33"/>
      </g>
     </g>
    </g>
    <g id="ytick_8">
     <g id="line2d_13">
      <g>
       <use xlink:href="#mcdd54f4b5e" x="46.64" y="111.379866" style="stroke: #000000; stroke-width: 0.8"/>
      </g>
     </g>
     <g id="text_14">
      <!-- 4 -->
      <g transform="translate(33.2775 115.179085)scale(0.1 -0.1)">
       <use xlink:href="#DejaVuSans-34"/>
      </g>
     </g>
    </g>
    <g id="ytick_9">
     <g id="line2d_14">
      <g>
       <use xlink:href="#mcdd54f4b5e" x="46.64" y="82.500894" style="stroke: #000000; stroke-width: 0.8"/>
      </g>
     </g>
     <g id="text_15">
      <!-- 5 -->
      <g transform="translate(33.2775 86.300112)scale(0.1 -0.1)">
       <defs>
        <path id="DejaVuSans-35" d="M 691 4666 
L 3169 4666 
L 3169 4134 
L 1269 4134 
L 1269 2991 
Q 1406 3038 1543 3061 
Q 1681 3084 1819 3084 
Q 2600 3084 3056 2656 
Q 3513 2228 3513 1497 
Q 3513 744 3044 326 
Q 2575 -91 1722 -91 
Q 1428 -91 1123 -41 
Q 819 9 494 109 
L 494 744 
Q 775 591 1075 516 
Q 1375 441 1709 441 
Q 2250 441 2565 725 
Q 2881 1009 2881 1497 
Q 2881 1984 2565 2268 
Q 2250 2553 1709 2553 
Q 1456 2553 1204 2497 
Q 953 2441 691 2322 
L 691 4666 
z
" transform="scale(0.015625)"/>
       </defs>
       <use xlink:href="#DejaVuSans-35"/>
      </g>
     </g>
    </g>
    <g id="text_16">
     <!-- V -->
     <g transform="translate(18.818125 201.487562)rotate(-90)scale(0.1 -0.1)">
      <defs>
       <path id="DejaVuSans-b5" d="M 544 -1331 
L 544 3500 
L 1119 3500 
L 1119 1325 
Q 1119 872 1334 640 
Q 1550 409 1972 409 
Q 2434 409 2667 671 
Q 2900 934 2900 1459 
L 2900 3500 
L 3475 3500 
L 3475 806 
Q 3475 619 3529 530 
Q 3584 441 3700 441 
Q 3728 441 3778 458 
Q 3828 475 3916 513 
L 3916 50 
Q 3788 -22 3673 -56 
Q 3559 -91 3450 -91 
Q 3234 -91 3106 31 
Q 2978 153 2931 403 
Q 2775 156 2548 32 
Q 2322 -91 2016 -91 
Q 1697 -91 1473 31 
Q 1250 153 1119 397 
L 1119 -1331 
L 544 -1331 
z
" transform="scale(0.015625)"/>
       <path id="DejaVuSans-56" d="M 1831 0 
L 50 4666 
L 709 4666 
L 2188 738 
L 3669 4666 
L 4325 4666 
L 2547 0 
L 1831 0 
z
" transform="scale(0.015625)"/>
      </defs>
      <use xlink:href="#DejaVuSans-b5"/>
      <use xlink:href="#DejaVuSans-56" x="63.623047"/>
     </g>
    </g>
   </g>
   <g id="line2d_15">
    <path d="M 46.64 233.870667 
L 47.435945 238.64669 
L 48.231889 242.300133 
L 49.823779 247.549526 
L 51.415668 252.622406 
L 52.211613 254.436004 
L 53.007557 254.504571 
L 53.803502 251.96076 
L 54.599447 246.632614 
L 56.191336 231.819617 
L 56.987281 226.162379 
L 57.783226 224.114704 
L 58.57917 226.347765 
L 59.375115 232.093142 
L 60.17106 239.281176 
L 60.967004 245.168705 
L 61.762949 247.250297 
L 62.558894 244.131328 
L 63.354838 236.045684 
L 64.946728 213.375795 
L 65.742672 204.72519 
L 66.538617 201.162037 
L 67.334562 203.553122 
L 68.130506 211.162506 
L 70.51834 242.40271 
L 71.314285 247.665108 
L 72.11023 248.311335 
L 72.906175 244.780778 
L 73.702119 238.387171 
L 75.294009 223.993033 
L 76.089953 219.012693 
L 76.885898 216.567382 
L 77.681843 216.529399 
L 78.477787 218.105271 
L 79.273732 220.060418 
L 80.069677 221.038858 
L 80.865621 219.921251 
L 81.661566 216.146035 
L 82.457511 209.905504 
L 84.0494 194.333007 
L 84.845345 188.07502 
L 85.641289 184.640346 
L 86.437234 184.59407 
L 87.233179 187.632512 
L 89.621013 202.918143 
L 90.416958 205.633548 
L 91.212902 206.09222 
L 92.008847 204.631158 
L 95.192626 194.274873 
L 95.98857 192.638405 
L 96.784515 191.307668 
L 97.58046 190.213514 
L 98.376404 189.550581 
L 99.172349 189.78836 
L 99.968294 191.538365 
L 100.764238 195.337191 
L 101.560183 201.433029 
L 102.356128 209.65729 
L 105.539907 248.461034 
L 106.335851 254.790153 
L 107.131796 258.200106 
L 107.927741 258.353275 
L 108.723685 255.28789 
L 109.51963 249.483008 
L 111.907464 226.628068 
L 112.703409 221.73564 
L 113.499353 219.833597 
L 114.295298 220.86184 
L 115.091243 223.919338 
L 115.887187 227.50411 
L 116.683132 229.982377 
L 117.479077 230.13306 
L 118.275021 227.563276 
L 119.070966 222.826458 
L 120.662856 212.069026 
L 121.4588 208.499406 
L 122.254745 206.605344 
L 123.05069 205.553773 
L 123.846634 203.878363 
L 124.642579 200.124489 
L 125.438524 193.563171 
L 127.826358 167.692604 
L 128.622302 164.591348 
L 129.418247 167.418666 
L 130.214192 176.061081 
L 132.602026 212.987583 
L 133.39797 218.673798 
L 134.193915 218.16316 
L 134.98986 212.363461 
L 136.581749 195.428943 
L 137.377694 190.203963 
L 138.173639 189.561771 
L 138.969583 193.348547 
L 141.357417 212.414515 
L 142.153362 214.705772 
L 142.949307 213.856802 
L 143.745251 210.913893 
L 144.541196 207.536204 
L 145.337141 205.336228 
L 146.133085 205.33384 
L 146.92903 207.710595 
L 147.724975 211.90611 
L 149.316864 221.881744 
L 150.112809 225.979995 
L 150.908753 228.887596 
L 151.704698 230.48959 
L 152.500643 230.762367 
L 153.296588 229.684188 
L 154.092532 227.278206 
L 154.888477 223.758703 
L 156.480366 215.880286 
L 157.276311 213.383387 
L 158.072256 212.919839 
L 158.8682 214.605189 
L 160.46009 220.963289 
L 161.256034 222.707232 
L 162.051979 221.862645 
L 162.847924 218.326925 
L 164.439813 208.577775 
L 165.235758 206.688526 
L 166.031702 209.15334 
L 166.827647 216.198893 
L 169.215481 245.879162 
L 170.011426 249.940166 
L 170.807371 248.816093 
L 171.603315 243.587555 
L 172.39926 236.674957 
L 173.195205 230.913616 
L 173.991149 228.487135 
L 174.787094 230.131727 
L 175.583039 234.91359 
L 176.378983 240.650741 
L 177.174928 244.793665 
L 177.970873 245.407 
L 178.766817 241.875029 
L 179.562762 235.083757 
L 180.358707 227.050079 
L 181.154651 220.183167 
L 181.950596 216.485688 
L 182.746541 216.985596 
L 183.542485 221.561291 
L 184.33843 229.153332 
L 185.93032 247.179602 
L 186.726264 254.812525 
L 187.522209 260.315665 
L 188.318154 263.292172 
L 189.114098 263.641408 
L 189.910043 261.496585 
L 190.705988 257.233219 
L 193.889766 234.612988 
L 194.685711 231.58162 
L 195.481656 230.041295 
L 197.073545 228.779592 
L 197.86949 227.717187 
L 199.461379 224.890355 
L 200.257324 224.810144 
L 201.053269 226.845976 
L 201.849213 231.189071 
L 203.441103 242.60585 
L 204.237047 245.850815 
L 205.032992 245.076646 
L 205.828937 239.75919 
L 206.624881 230.878862 
L 207.420826 220.706486 
L 208.216771 212.061904 
L 209.012715 207.308045 
L 209.80866 207.467408 
L 210.604605 211.818641 
L 212.196494 223.600794 
L 212.992439 225.725451 
L 213.788383 223.429144 
L 214.584328 217.342032 
L 216.176218 202.671487 
L 216.972162 198.996101 
L 217.768107 199.482593 
L 218.564052 203.545467 
L 220.155941 214.5998 
L 220.951886 217.399132 
L 221.74783 216.924518 
L 222.543775 213.563562 
L 224.931609 199.160625 
L 225.727554 196.153238 
L 226.523498 194.105039 
L 227.319443 192.528571 
L 228.115388 191.238477 
L 228.911332 190.650316 
L 229.707277 191.688547 
L 230.503222 195.316244 
L 231.299166 201.897021 
L 232.891056 219.819301 
L 233.687001 226.62129 
L 234.482945 228.587304 
L 235.27889 224.250543 
L 236.074835 213.851342 
L 238.462669 172.106116 
L 239.258613 165.607622 
L 240.054558 166.04076 
L 240.850503 172.802871 
L 241.646447 183.841576 
L 243.238337 208.086557 
L 244.034281 217.11659 
L 244.830226 222.922177 
L 245.626171 225.748777 
L 246.422115 226.248742 
L 247.21806 225.04868 
L 248.014005 222.531904 
L 248.80995 218.896546 
L 251.197784 205.267703 
L 251.993728 202.451411 
L 252.789673 201.747088 
L 253.585618 203.06936 
L 254.381562 205.463625 
L 255.177507 207.323948 
L 255.973452 206.948229 
L 256.769396 203.231347 
L 257.565341 196.211117 
L 259.15723 178.485357 
L 259.953175 172.433623 
L 260.74912 170.730076 
L 261.545064 173.651073 
L 262.341009 179.906801 
L 263.136954 187.050688 
L 263.932898 192.33003 
L 264.728843 193.663691 
L 265.524788 190.38402 
L 266.320733 183.470885 
L 267.116677 175.193773 
L 267.912622 168.297902 
L 268.708567 165.037585 
L 269.504511 166.406619 
L 270.300456 171.829675 
L 271.892345 186.569728 
L 272.68829 190.985013 
L 273.484235 191.252471 
L 274.280179 187.319489 
L 276.668013 166.256669 
L 277.463958 163.05578 
L 278.259903 163.904246 
L 279.055847 168.566547 
L 281.443682 191.428446 
L 282.239626 196.545763 
L 283.035571 198.777582 
L 283.831516 198.278061 
L 284.62746 195.87917 
L 285.423405 192.789481 
L 286.21935 190.210102 
L 287.015294 188.975168 
L 287.811239 189.318114 
L 288.607184 190.827992 
L 289.403128 192.604008 
L 290.199073 193.559162 
L 290.995018 192.775967 
L 291.790962 189.796911 
L 292.586907 184.756762 
L 294.974741 165.258334 
L 295.770686 160.417017 
L 296.56663 157.348031 
L 297.362575 156.040392 
L 298.15852 156.207652 
L 298.954465 157.462675 
L 299.750409 159.460915 
L 301.342299 164.761301 
L 302.934188 170.369959 
L 303.730133 172.484696 
L 304.526077 173.642615 
L 305.322022 173.647143 
L 306.117967 172.606792 
L 307.709856 169.415933 
L 308.505801 168.629774 
L 309.301745 169.025739 
L 310.09769 170.546824 
L 310.893635 172.628201 
L 311.689579 174.362446 
L 312.485524 174.815689 
L 313.281469 173.375776 
L 314.077414 169.997835 
L 316.465248 155.791447 
L 317.261192 153.045949 
L 318.057137 152.250033 
L 318.853082 153.195709 
L 319.649026 155.30999 
L 321.240916 160.8537 
L 322.03686 164.010638 
L 322.832805 167.851251 
L 323.62875 172.805296 
L 326.016584 191.942399 
L 326.812528 196.072391 
L 327.608473 196.801742 
L 328.404418 193.612116 
L 329.200363 187.158159 
L 330.792252 172.368548 
L 331.588197 168.899407 
L 332.384141 170.254734 
L 333.180086 176.300508 
L 334.771975 194.282732 
L 335.56792 200.227515 
L 336.363865 200.852169 
L 337.159809 195.536136 
L 337.955754 185.548744 
L 339.547643 163.285787 
L 340.343588 157.347531 
L 341.139533 157.430133 
L 341.935477 163.315641 
L 344.323311 192.934025 
L 345.119256 197.563446 
L 345.915201 196.762119 
L 346.711146 190.685833 
L 347.50709 180.541555 
L 349.894924 144.614267 
L 350.690869 136.926266 
L 351.486814 133.651597 
L 352.282758 135.416246 
L 353.078703 142.146403 
L 353.874648 152.910205 
L 355.466537 178.475607 
L 356.262482 187.91486 
L 357.058426 191.813114 
L 357.854371 188.930818 
L 358.650316 179.647991 
L 361.03815 139.127645 
L 361.834095 132.473006 
L 362.630039 132.831303 
L 363.425984 139.826945 
L 365.813818 175.90466 
L 366.609763 183.402717 
L 367.405707 186.061313 
L 368.201652 184.475053 
L 369.793541 175.897959 
L 370.589486 172.988265 
L 371.385431 172.721909 
L 372.181375 175.137251 
L 373.773265 183.814724 
L 374.569209 187.010699 
L 375.365154 187.681881 
L 376.161099 185.235479 
L 376.957043 179.81815 
L 378.548933 163.700203 
L 379.344878 155.631596 
L 380.140822 149.310459 
L 380.936767 145.685453 
L 381.732712 145.207903 
L 382.528656 147.764515 
L 383.324601 152.708872 
L 384.91649 165.350938 
L 385.712435 170.58836 
L 386.50838 173.781058 
L 387.304324 174.479801 
L 388.100269 172.792906 
L 388.896214 169.354191 
L 390.488103 161.409298 
L 391.284048 159.106352 
L 392.079992 158.988272 
L 392.875937 161.325453 
L 393.671882 165.916904 
L 395.263771 179.264608 
L 396.855661 192.425316 
L 397.651605 196.986091 
L 398.44755 199.468812 
L 399.243495 199.527478 
L 400.039439 196.969226 
L 400.835384 191.786764 
L 401.631329 184.236736 
L 404.815107 148.219313 
L 405.611052 144.392012 
L 406.406997 144.784109 
L 407.202941 149.349666 
L 407.998886 157.13883 
L 409.590775 175.273288 
L 410.38672 181.690679 
L 411.182665 184.461288 
L 411.97861 183.264727 
L 412.774554 178.750047 
L 413.570499 172.31801 
L 413.570499 172.31801 
" clip-path="url(#pf46adfbe55)" style="fill: none; stroke: #e41a1c; stroke-width: 1.5; stroke-linecap: square"/>
   </g>
   <g id="line2d_16">
    <path d="M 46.64 213.80141 
L 47.435945 216.369982 
L 48.231889 219.627979 
L 49.823779 227.257969 
L 50.619723 230.326587 
L 51.415668 231.830198 
L 52.211613 231.312259 
L 53.007557 228.943433 
L 54.599447 222.511552 
L 55.395392 221.045303 
L 56.191336 221.962995 
L 56.987281 225.199504 
L 58.57917 234.331935 
L 59.375115 237.264852 
L 60.17106 237.703877 
L 60.967004 235.639231 
L 63.354838 224.965671 
L 64.150783 223.679475 
L 64.946728 223.961018 
L 65.742672 224.986225 
L 66.538617 225.670755 
L 67.334562 225.205207 
L 68.130506 223.448338 
L 68.926451 221.001659 
L 69.722396 218.935058 
L 70.51834 218.292321 
L 71.314285 219.605269 
L 72.11023 222.641307 
L 73.702119 230.026958 
L 74.498064 232.314199 
L 75.294009 233.112504 
L 76.885898 232.609102 
L 77.681843 233.121352 
L 78.477787 234.772115 
L 79.273732 237.102672 
L 80.069677 238.99491 
L 80.865621 239.148 
L 81.661566 236.695809 
L 82.457511 231.688342 
L 84.0494 219.049673 
L 84.845345 215.065387 
L 85.641289 214.452909 
L 86.437234 217.260155 
L 88.029124 227.697408 
L 88.825068 231.336228 
L 89.621013 231.886936 
L 90.416958 229.162577 
L 92.008847 218.843557 
L 92.804792 215.094442 
L 93.600736 214.372206 
L 94.396681 217.062879 
L 95.192626 222.433842 
L 96.784515 234.736593 
L 97.58046 238.302284 
L 98.376404 238.787233 
L 99.172349 236.173162 
L 99.968294 231.140329 
L 102.356128 212.662939 
L 103.152073 208.698322 
L 103.948017 206.824359 
L 104.743962 207.174345 
L 105.539907 209.57327 
L 106.335851 213.527872 
L 107.927741 222.67321 
L 108.723685 225.756113 
L 109.51963 226.612854 
L 110.315575 224.841114 
L 111.111519 220.68554 
L 112.703409 209.261981 
L 113.499353 204.800647 
L 114.295298 202.8159 
L 115.091243 203.8452 
L 115.887187 207.666376 
L 118.275021 225.394979 
L 119.070966 229.454634 
L 119.866911 231.522646 
L 120.662856 231.805616 
L 121.4588 230.946041 
L 122.254745 229.758769 
L 123.05069 228.951103 
L 123.846634 228.915093 
L 124.642579 229.646591 
L 126.234468 231.844785 
L 127.030413 232.268655 
L 127.826358 231.757632 
L 128.622302 230.305197 
L 131.010136 224.337187 
L 131.806081 223.612649 
L 132.602026 224.065721 
L 133.39797 225.562246 
L 134.98986 229.719946 
L 135.785805 231.128713 
L 136.581749 231.453841 
L 137.377694 230.587621 
L 138.173639 228.765532 
L 139.765528 224.288738 
L 140.561473 222.666425 
L 141.357417 221.825465 
L 142.153362 221.702815 
L 142.949307 222.036796 
L 145.337141 223.521687 
L 146.133085 224.359105 
L 146.92903 225.870481 
L 147.724975 228.298534 
L 149.316864 235.356537 
L 150.112809 238.880379 
L 150.908753 241.385469 
L 151.704698 242.265073 
L 152.500643 241.310748 
L 153.296588 238.808037 
L 154.888477 232.187493 
L 155.684422 229.803015 
L 156.480366 228.798234 
L 157.276311 229.199887 
L 158.072256 230.615816 
L 159.664145 233.994081 
L 160.46009 234.951162 
L 161.256034 235.225716 
L 163.643868 234.725712 
L 164.439813 235.073697 
L 167.623592 237.709788 
L 169.215481 238.331475 
L 170.011426 238.805079 
L 171.603315 240.149882 
L 172.39926 240.493899 
L 173.195205 240.128301 
L 173.991149 238.855242 
L 176.378983 233.006151 
L 177.174928 232.972348 
L 177.970873 235.126947 
L 178.766817 239.577599 
L 181.154651 258.894473 
L 181.950596 263.196554 
L 182.746541 264.81802 
L 183.542485 263.674283 
L 184.33843 260.359681 
L 185.93032 251.585475 
L 186.726264 248.272569 
L 187.522209 246.493535 
L 188.318154 246.222422 
L 189.114098 247.029217 
L 190.705988 249.541296 
L 191.501932 250.425349 
L 192.297877 250.943175 
L 196.2776 252.449925 
L 197.073545 252.153598 
L 197.86949 251.315346 
L 200.257324 247.549087 
L 201.053269 247.148808 
L 201.849213 247.686721 
L 202.645158 249.180541 
L 203.441103 251.439911 
L 206.624881 262.177116 
L 207.420826 264.317377 
L 208.216771 266.083706 
L 209.012715 267.384757 
L 209.80866 268.082798 
L 210.604605 268.044837 
L 211.400549 267.229053 
L 212.196494 265.76098 
L 213.788383 262.237347 
L 214.584328 261.036309 
L 215.380273 260.591162 
L 216.176218 260.837439 
L 216.972162 261.37219 
L 217.768107 261.546571 
L 218.564052 260.66622 
L 219.359996 258.239808 
L 220.155941 254.192363 
L 222.543775 238.779662 
L 223.33972 236.011393 
L 224.135664 235.810839 
L 224.931609 238.237415 
L 225.727554 242.698097 
L 227.319443 253.104491 
L 228.115388 256.564846 
L 228.911332 257.757229 
L 229.707277 256.592321 
L 230.503222 253.590518 
L 232.095111 245.952622 
L 232.891056 243.252002 
L 233.687001 242.064859 
L 234.482945 242.400268 
L 235.27889 243.887681 
L 237.666724 250.058097 
L 239.258613 253.132028 
L 240.850503 256.319833 
L 243.238337 262.066357 
L 244.034281 263.624493 
L 244.830226 264.760426 
L 245.626171 265.433998 
L 246.422115 265.632172 
L 247.21806 265.30566 
L 248.014005 264.339436 
L 248.80995 262.589194 
L 249.605894 259.978462 
L 251.197784 252.842654 
L 251.993728 249.240019 
L 252.789673 246.455185 
L 253.585618 245.020803 
L 254.381562 245.16727 
L 255.177507 246.736067 
L 258.361286 256.504949 
L 259.953175 259.190786 
L 261.545064 261.96832 
L 262.341009 263.424716 
L 263.136954 264.392816 
L 263.932898 264.335091 
L 264.728843 262.9002 
L 265.524788 260.121482 
L 267.912622 249.346561 
L 268.708567 247.020788 
L 269.504511 245.586934 
L 270.300456 244.564964 
L 271.096401 243.304892 
L 271.892345 241.326798 
L 274.280179 233.237132 
L 275.076124 232.33709 
L 275.872069 233.417403 
L 276.668013 236.363562 
L 278.259903 244.597464 
L 279.055847 247.787418 
L 279.851792 249.431799 
L 280.647737 249.558435 
L 281.443682 248.720695 
L 282.239626 247.682233 
L 283.035571 247.024275 
L 284.62746 246.782822 
L 285.423405 246.092442 
L 286.21935 244.159875 
L 287.015294 240.790077 
L 289.403128 228.193619 
L 290.199073 226.187329 
L 290.995018 225.982664 
L 291.790962 227.098538 
L 292.586907 228.656492 
L 293.382852 229.801572 
L 294.178796 230.108247 
L 295.770686 229.547372 
L 296.56663 230.299054 
L 297.362575 232.624116 
L 298.15852 236.467368 
L 299.750409 245.248094 
L 300.546354 247.854835 
L 301.342299 248.292071 
L 302.138243 246.774025 
L 303.730133 242.06421 
L 304.526077 241.307833 
L 305.322022 242.455212 
L 306.117967 245.130219 
L 306.913911 248.292049 
L 307.709856 250.688046 
L 308.505801 251.381654 
L 309.301745 250.123673 
L 310.09769 247.409381 
L 310.893635 244.207777 
L 311.689579 241.497487 
L 312.485524 239.829178 
L 313.281469 239.116695 
L 314.077414 238.747156 
L 314.873358 237.94788 
L 315.669303 236.227749 
L 317.261192 230.977813 
L 318.057137 229.110918 
L 318.853082 228.897924 
L 319.649026 230.590148 
L 322.03686 239.933647 
L 322.832805 241.127655 
L 323.62875 240.76998 
L 324.424694 239.594173 
L 325.220639 238.743182 
L 326.016584 239.218541 
L 326.812528 241.365943 
L 328.404418 247.73196 
L 329.200363 249.132155 
L 329.996307 247.721612 
L 330.792252 243.316304 
L 333.180086 224.512587 
L 333.976031 221.955668 
L 334.771975 222.588629 
L 335.56792 225.618323 
L 336.363865 229.451828 
L 337.159809 232.330491 
L 337.955754 233.00912 
L 338.751699 231.212193 
L 340.343588 223.919053 
L 341.139533 221.441312 
L 341.935477 221.341268 
L 342.731422 223.829311 
L 345.119256 237.36651 
L 345.915201 239.650135 
L 346.711146 239.633992 
L 347.50709 237.582665 
L 349.894924 227.271185 
L 350.690869 224.946294 
L 351.486814 223.774349 
L 352.282758 223.751818 
L 353.078703 224.782697 
L 353.874648 226.74837 
L 354.670592 229.49772 
L 357.058426 239.204396 
L 357.854371 241.22453 
L 358.650316 241.835945 
L 359.44626 240.94188 
L 360.242205 238.861031 
L 361.834095 234.027271 
L 362.630039 232.86813 
L 363.425984 233.190556 
L 364.221929 234.903768 
L 365.813818 240.069413 
L 366.609763 241.925196 
L 367.405707 242.514176 
L 368.201652 241.744711 
L 368.997597 239.948661 
L 370.589486 235.733005 
L 371.385431 234.406878 
L 372.181375 233.875815 
L 372.97732 233.934808 
L 373.773265 234.178523 
L 374.569209 234.203288 
L 375.365154 233.802251 
L 376.957043 232.419097 
L 377.752988 232.364701 
L 378.548933 233.371899 
L 379.344878 235.606769 
L 381.732712 245.419758 
L 382.528656 247.135719 
L 383.324601 247.032053 
L 384.120546 245.108588 
L 386.50838 234.945748 
L 387.304324 232.840246 
L 388.100269 232.07737 
L 388.896214 232.374074 
L 389.692158 233.105293 
L 390.488103 233.594998 
L 391.284048 233.43021 
L 392.875937 231.853257 
L 393.671882 231.801563 
L 394.467827 233.26747 
L 395.263771 236.581851 
L 397.651605 251.641804 
L 398.44755 254.468317 
L 399.243495 254.629704 
L 400.039439 252.159718 
L 402.427273 239.170082 
L 403.223218 237.137328 
L 404.019163 237.267016 
L 404.815107 239.0983 
L 405.611052 241.640384 
L 406.406997 243.764584 
L 407.202941 244.616879 
L 407.998886 243.898605 
L 408.794831 241.922675 
L 409.590775 239.445261 
L 410.38672 237.358709 
L 411.182665 236.375244 
L 411.97861 236.81821 
L 412.774554 238.580323 
L 413.570499 241.235162 
L 413.570499 241.235162 
" clip-path="url(#pf46adfbe55)" style="fill: none; stroke: #377eb8; stroke-width: 1.5; stroke-linecap: square"/>
   </g>
   <g id="line2d_17">
    <path d="M 87.233179 318.04 
L 87.233179 71.732 
" clip-path="url(#pf46adfbe55)" style="fill: none; stroke: #000000; stroke-width: 0.5; stroke-linecap: square"/>
   </g>
   <g id="line2d_18">
    <path d="M 46.64 226.895756 
L 413.570499 226.895756 
" clip-path="url(#pf46adfbe55)" style="fill: none; stroke: #000000; stroke-width: 0.5; stroke-linecap: square"/>
   </g>
   <g id="patch_4">
    <path d="M 46.64 318.04 
L 46.64 71.732 
" style="fill: none; stroke: #000000; stroke-width: 0.8; stroke-linejoin: miter; stroke-linecap: square"/>
   </g>
   <g id="patch_5">
    <path d="M 413.570499 318.04 
L 413.570499 71.732 
" style="fill: none; stroke: #000000; stroke-width: 0.8; stroke-linejoin: miter; stroke-linecap: square"/>
   </g>
   <g id="patch_6">
    <path d="M 46.64 318.04 
L 413.570499 318.04 
" style="fill: none; stroke: #000000; stroke-width: 0.8; stroke-linejoin: miter; stroke-linecap: square"/>
   </g>
   <g id="patch_7">
    <path d="M 46.64 71.732 
L 413.570499 71.732 
" style="fill: none; stroke: #000000; stroke-width: 0.8; stroke-linejoin: miter; stroke-linecap: square"/>
   </g>
   <g id="text_17">
    <!-- Cz -->
    <g transform="translate(222.766499 65.732)scale(0.12 -0.12)">
     <defs>
      <path id="DejaVuSans-43" d="M 4122 4306 
L 4122 3641 
Q 3803 3938 3442 4084 
Q 3081 4231 2675 4231 
Q 1875 4231 1450 3742 
Q 1025 3253 1025 2328 
Q 1025 1406 1450 917 
Q 1875 428 2675 428 
Q 3081 428 3442 575 
Q 3803 722 4122 1019 
L 4122 359 
Q 3791 134 3420 21 
Q 3050 -91 2638 -91 
Q 1578 -91 968 557 
Q 359 1206 359 2328 
Q 359 3453 968 4101 
Q 1578 4750 2638 4750 
Q 3056 4750 3426 4639 
Q 3797 4528 4122 4306 
z
" transform="scale(0.015625)"/>
      <path id="DejaVuSans-7a" d="M 353 3500 
L 3084 3500 
L 3084 2975 
L 922 459 
L 3084 459 
L 3084 0 
L 275 0 
L 275 525 
L 2438 3041 
L 353 3041 
L 353 3500 
z
" transform="scale(0.015625)"/>
     </defs>
     <use xlink:href="#DejaVuSans-43"/>
     <use xlink:href="#DejaVuSans-7a" x="69.824219"/>
    </g>
   </g>
   <g id="legend_1">
    <g id="patch_8">
     <path d="M 99.877906 48.500845 
L 360.332593 48.500845 
Q 362.332593 48.500845 362.332593 46.500845 
L 362.332593 18.144595 
Q 362.332593 16.144595 360.332593 16.144595 
L 99.877906 16.144595 
Q 97.877906 16.144595 97.877906 18.144595 
L 97.877906 46.500845 
Q 97.877906 48.500845 99.877906 48.500845 
z
" style="fill: #ffffff; opacity: 0.8; stroke: #cccccc; stroke-linejoin: miter"/>
    </g>
    <g id="text_18">
     <!-- Average of Session 27 -->
     <g transform="translate(174.545874 27.743033)scale(0.1 -0.1)">
      <defs>
       <path id="DejaVuSans-41" d="M 2188 4044 
L 1331 1722 
L 3047 1722 
L 2188 4044 
z
M 1831 4666 
L 2547 4666 
L 4325 0 
L 3669 0 
L 3244 1197 
L 1141 1197 
L 716 0 
L 50 0 
L 1831 4666 
z
" transform="scale(0.015625)"/>
       <path id="DejaVuSans-76" d="M 191 3500 
L 800 3500 
L 1894 563 
L 2988 3500 
L 3597 3500 
L 2284 0 
L 1503 0 
L 191 3500 
z
" transform="scale(0.015625)"/>
       <path id="DejaVuSans-72" d="M 2631 2963 
Q 2534 3019 2420 3045 
Q 2306 3072 2169 3072 
Q 1681 3072 1420 2755 
Q 1159 2438 1159 1844 
L 1159 0 
L 581 0 
L 581 3500 
L 1159 3500 
L 1159 2956 
Q 1341 3275 1631 3429 
Q 1922 3584 2338 3584 
Q 2397 3584 2469 3576 
Q 2541 3569 2628 3553 
L 2631 2963 
z
" transform="scale(0.015625)"/>
       <path id="DejaVuSans-61" d="M 2194 1759 
Q 1497 1759 1228 1600 
Q 959 1441 959 1056 
Q 959 750 1161 570 
Q 1363 391 1709 391 
Q 2188 391 2477 730 
Q 2766 1069 2766 1631 
L 2766 1759 
L 2194 1759 
z
M 3341 1997 
L 3341 0 
L 2766 0 
L 2766 531 
Q 2569 213 2275 61 
Q 1981 -91 1556 -91 
Q 1019 -91 701 211 
Q 384 513 384 1019 
Q 384 1609 779 1909 
Q 1175 2209 1959 2209 
L 2766 2209 
L 2766 2266 
Q 2766 2663 2505 2880 
Q 2244 3097 1772 3097 
Q 1472 3097 1187 3025 
Q 903 2953 641 2809 
L 641 3341 
Q 956 3463 1253 3523 
Q 1550 3584 1831 3584 
Q 2591 3584 2966 3190 
Q 3341 2797 3341 1997 
z
" transform="scale(0.015625)"/>
       <path id="DejaVuSans-67" d="M 2906 1791 
Q 2906 2416 2648 2759 
Q 2391 3103 1925 3103 
Q 1463 3103 1205 2759 
Q 947 2416 947 1791 
Q 947 1169 1205 825 
Q 1463 481 1925 481 
Q 2391 481 2648 825 
Q 2906 1169 2906 1791 
z
M 3481 434 
Q 3481 -459 3084 -895 
Q 2688 -1331 1869 -1331 
Q 1566 -1331 1297 -1286 
Q 1028 -1241 775 -1147 
L 775 -588 
Q 1028 -725 1275 -790 
Q 1522 -856 1778 -856 
Q 2344 -856 2625 -561 
Q 2906 -266 2906 331 
L 2906 616 
Q 2728 306 2450 153 
Q 2172 0 1784 0 
Q 1141 0 747 490 
Q 353 981 353 1791 
Q 353 2603 747 3093 
Q 1141 3584 1784 3584 
Q 2172 3584 2450 3431 
Q 2728 3278 2906 2969 
L 2906 3500 
L 3481 3500 
L 3481 434 
z
" transform="scale(0.015625)"/>
       <path id="DejaVuSans-20" transform="scale(0.015625)"/>
       <path id="DejaVuSans-66" d="M 2375 4863 
L 2375 4384 
L 1825 4384 
Q 1516 4384 1395 4259 
Q 1275 4134 1275 3809 
L 1275 3500 
L 2222 3500 
L 2222 3053 
L 1275 3053 
L 1275 0 
L 697 0 
L 697 3053 
L 147 3053 
L 147 3500 
L 697 3500 
L 697 3744 
Q 697 4328 969 4595 
Q 1241 4863 1831 4863 
L 2375 4863 
z
" transform="scale(0.015625)"/>
       <path id="DejaVuSans-53" d="M 3425 4513 
L 3425 3897 
Q 3066 4069 2747 4153 
Q 2428 4238 2131 4238 
Q 1616 4238 1336 4038 
Q 1056 3838 1056 3469 
Q 1056 3159 1242 3001 
Q 1428 2844 1947 2747 
L 2328 2669 
Q 3034 2534 3370 2195 
Q 3706 1856 3706 1288 
Q 3706 609 3251 259 
Q 2797 -91 1919 -91 
Q 1588 -91 1214 -16 
Q 841 59 441 206 
L 441 856 
Q 825 641 1194 531 
Q 1563 422 1919 422 
Q 2459 422 2753 634 
Q 3047 847 3047 1241 
Q 3047 1584 2836 1778 
Q 2625 1972 2144 2069 
L 1759 2144 
Q 1053 2284 737 2584 
Q 422 2884 422 3419 
Q 422 4038 858 4394 
Q 1294 4750 2059 4750 
Q 2388 4750 2728 4690 
Q 3069 4631 3425 4513 
z
" transform="scale(0.015625)"/>
       <path id="DejaVuSans-69" d="M 603 3500 
L 1178 3500 
L 1178 0 
L 603 0 
L 603 3500 
z
M 603 4863 
L 1178 4863 
L 1178 4134 
L 603 4134 
L 603 4863 
z
" transform="scale(0.015625)"/>
       <path id="DejaVuSans-37" d="M 525 4666 
L 3525 4666 
L 3525 4397 
L 1831 0 
L 1172 0 
L 2766 4134 
L 525 4134 
L 525 4666 
z
" transform="scale(0.015625)"/>
      </defs>
      <use xlink:href="#DejaVuSans-41"/>
      <use xlink:href="#DejaVuSans-76" x="62.533203"/>
      <use xlink:href="#DejaVuSans-65" x="121.712891"/>
      <use xlink:href="#DejaVuSans-72" x="183.236328"/>
      <use xlink:href="#DejaVuSans-61" x="224.349609"/>
      <use xlink:href="#DejaVuSans-67" x="285.628906"/>
      <use xlink:href="#DejaVuSans-65" x="349.105469"/>
      <use xlink:href="#DejaVuSans-20" x="410.628906"/>
      <use xlink:href="#DejaVuSans-6f" x="442.416016"/>
      <use xlink:href="#DejaVuSans-66" x="503.597656"/>
      <use xlink:href="#DejaVuSans-20" x="538.802734"/>
      <use xlink:href="#DejaVuSans-53" x="570.589844"/>
      <use xlink:href="#DejaVuSans-65" x="634.066406"/>
      <use xlink:href="#DejaVuSans-73" x="695.589844"/>
      <use xlink:href="#DejaVuSans-73" x="747.689453"/>
      <use xlink:href="#DejaVuSans-69" x="799.789062"/>
      <use xlink:href="#DejaVuSans-6f" x="827.572266"/>
      <use xlink:href="#DejaVuSans-6e" x="888.753906"/>
      <use xlink:href="#DejaVuSans-20" x="952.132812"/>
      <use xlink:href="#DejaVuSans-32" x="983.919922"/>
      <use xlink:href="#DejaVuSans-37" x="1047.542969"/>
     </g>
    </g>
    <g id="line2d_19">
     <path d="M 101.877906 38.921158 
L 111.877906 38.921158 
L 121.877906 38.921158 
" style="fill: none; stroke: #e41a1c; stroke-width: 1.5; stroke-linecap: square"/>
    </g>
    <g id="text_19">
     <!-- Target (n=212) -->
     <g transform="translate(129.877906 42.421158)scale(0.1 -0.1)">
      <defs>
       <path id="DejaVuSans-54" d="M -19 4666 
L 3928 4666 
L 3928 4134 
L 2272 4134 
L 2272 0 
L 1638 0 
L 1638 4134 
L -19 4134 
L -19 4666 
z
" transform="scale(0.015625)"/>
       <path id="DejaVuSans-74" d="M 1172 4494 
L 1172 3500 
L 2356 3500 
L 2356 3053 
L 1172 3053 
L 1172 1153 
Q 1172 725 1289 603 
Q 1406 481 1766 481 
L 2356 481 
L 2356 0 
L 1766 0 
Q 1100 0 847 248 
Q 594 497 594 1153 
L 594 3053 
L 172 3053 
L 172 3500 
L 594 3500 
L 594 4494 
L 1172 4494 
z
" transform="scale(0.015625)"/>
       <path id="DejaVuSans-28" d="M 1984 4856 
Q 1566 4138 1362 3434 
Q 1159 2731 1159 2009 
Q 1159 1288 1364 580 
Q 1569 -128 1984 -844 
L 1484 -844 
Q 1016 -109 783 600 
Q 550 1309 550 2009 
Q 550 2706 781 3412 
Q 1013 4119 1484 4856 
L 1984 4856 
z
" transform="scale(0.015625)"/>
       <path id="DejaVuSans-3d" d="M 678 2906 
L 4684 2906 
L 4684 2381 
L 678 2381 
L 678 2906 
z
M 678 1631 
L 4684 1631 
L 4684 1100 
L 678 1100 
L 678 1631 
z
" transform="scale(0.015625)"/>
       <path id="DejaVuSans-29" d="M 513 4856 
L 1013 4856 
Q 1481 4119 1714 3412 
Q 1947 2706 1947 2009 
Q 1947 1309 1714 600 
Q 1481 -109 1013 -844 
L 513 -844 
Q 928 -128 1133 580 
Q 1338 1288 1338 2009 
Q 1338 2731 1133 3434 
Q 928 4138 513 4856 
z
" transform="scale(0.015625)"/>
      </defs>
      <use xlink:href="#DejaVuSans-54"/>
      <use xlink:href="#DejaVuSans-61" x="44.583984"/>
      <use xlink:href="#DejaVuSans-72" x="105.863281"/>
      <use xlink:href="#DejaVuSans-67" x="145.226562"/>
      <use xlink:href="#DejaVuSans-65" x="208.703125"/>
      <use xlink:href="#DejaVuSans-74" x="270.226562"/>
      <use xlink:href="#DejaVuSans-20" x="309.435547"/>
      <use xlink:href="#DejaVuSans-28" x="341.222656"/>
      <use xlink:href="#DejaVuSans-6e" x="380.236328"/>
      <use xlink:href="#DejaVuSans-3d" x="443.615234"/>
      <use xlink:href="#DejaVuSans-32" x="527.404297"/>
      <use xlink:href="#DejaVuSans-31" x="591.027344"/>
      <use xlink:href="#DejaVuSans-32" x="654.650391"/>
      <use xlink:href="#DejaVuSans-29" x="718.273438"/>
     </g>
    </g>
    <g id="line2d_20">
     <path d="M 225.607593 38.921158 
L 235.607593 38.921158 
L 245.607593 38.921158 
" style="fill: none; stroke: #377eb8; stroke-width: 1.5; stroke-linecap: square"/>
    </g>
    <g id="text_20">
     <!-- Non-Target (n=1001) -->
     <g transform="translate(253.607593 42.421158)scale(0.1 -0.1)">
      <defs>
       <path id="DejaVuSans-4e" d="M 628 4666 
L 1478 4666 
L 3547 763 
L 3547 4666 
L 4159 4666 
L 4159 0 
L 3309 0 
L 1241 3903 
L 1241 0 
L 628 0 
L 628 4666 
z
" transform="scale(0.015625)"/>
       <path id="DejaVuSans-2d" d="M 313 2009 
L 1997 2009 
L 1997 1497 
L 313 1497 
L 313 2009 
z
" transform="scale(0.015625)"/>
      </defs>
      <use xlink:href="#DejaVuSans-4e"/>
      <use xlink:href="#DejaVuSans-6f" x="74.804688"/>
      <use xlink:href="#DejaVuSans-6e" x="135.986328"/>
      <use xlink:href="#DejaVuSans-2d" x="199.365234"/>
      <use xlink:href="#DejaVuSans-54" x="226.324219"/>
      <use xlink:href="#DejaVuSans-61" x="270.908203"/>
      <use xlink:href="#DejaVuSans-72" x="332.1875"/>
      <use xlink:href="#DejaVuSans-67" x="371.550781"/>
      <use xlink:href="#DejaVuSans-65" x="435.027344"/>
      <use xlink:href="#DejaVuSans-74" x="496.550781"/>
      <use xlink:href="#DejaVuSans-20" x="535.759766"/>
      <use xlink:href="#DejaVuSans-28" x="567.546875"/>
      <use xlink:href="#DejaVuSans-6e" x="606.560547"/>
      <use xlink:href="#DejaVuSans-3d" x="669.939453"/>
      <use xlink:href="#DejaVuSans-31" x="753.728516"/>
      <use xlink:href="#DejaVuSans-30" x="817.351562"/>
      <use xlink:href="#DejaVuSans-30" x="880.974609"/>
      <use xlink:href="#DejaVuSans-31" x="944.597656"/>
      <use xlink:href="#DejaVuSans-29" x="1008.220703"/>
     </g>
    </g>
   </g>
  </g>
 </g>
 <defs>
  <clipPath id="pf46adfbe55">
   <rect x="46.64" y="71.732" width="366.930499" height="246.308"/>
  </clipPath>
 </defs>
</svg>
