<?xml version="1.0" encoding="utf-8" standalone="no"?>
<!DOCTYPE svg PUBLIC "-//W3C//DTD SVG 1.1//EN"
  "http://www.w3.org/Graphics/SVG/1.1/DTD/svg11.dtd">
<svg xmlns:xlink="http://www.w3.org/1999/xlink" width="432pt" height="360pt" viewBox="0 0 432 360" xmlns="http://www.w3.org/2000/svg" version="1.1">
 <metadata>
  <rdf:RDF xmlns:dc="http://purl.org/dc/elements/1.1/" xmlns:cc="http://creativecommons.org/ns#" xmlns:rdf="http://www.w3.org/1999/02/22-rdf-syntax-ns#">
   <cc:Work>
    <dc:type rdf:resource="http://purl.org/dc/dcmitype/StillImage"/>
    <dc:date>2022-05-19T11:52:15.621869</dc:date>
    <dc:format>image/svg+xml</dc:format>
    <dc:creator>
     <cc:Agent>
      <dc:title>Matplotlib v3.5.1, https://matplotlib.org/</dc:title>
     </cc:Agent>
    </dc:creator>
   </cc:Work>
  </rdf:RDF>
 </metadata>
 <defs>
  <style type="text/css">*{stroke-linejoin: round; stroke-linecap: butt}</style>
 </defs>
 <g id="figure_1">
  <g id="patch_1">
   <path d="M 0 360 
L 432 360 
L 432 0 
L 0 0 
L 0 360 
z
" style="fill: none"/>
  </g>
  <g id="axes_1">
   <g id="patch_2">
    <path d="M 46.64 318.04 
L 413.570499 318.04 
L 413.570499 71.732 
L 46.64 71.732 
L 46.64 318.04 
z
" style="fill: none"/>
   </g>
   <g id="PolyCollection_1">
    <defs>
     <path id="mbf1c08a08a" d="M 46.64 -117.25694 
L 46.64 -78.471541 
L 47.435945 -81.385348 
L 48.231889 -84.858213 
L 49.027834 -88.172909 
L 49.823779 -90.601395 
L 50.619723 -91.677235 
L 51.415668 -91.333737 
L 52.211613 -89.974771 
L 53.007557 -88.411151 
L 53.803502 -87.547194 
L 54.599447 -87.94284 
L 55.395392 -89.572287 
L 56.191336 -91.934455 
L 56.987281 -94.34188 
L 57.783226 -96.134968 
L 58.57917 -96.796406 
L 59.375115 -96.084619 
L 60.17106 -94.192645 
L 60.967004 -91.735866 
L 61.762949 -89.405911 
L 62.558894 -87.518189 
L 63.354838 -85.874622 
L 64.150783 -84.101113 
L 64.946728 -82.140614 
L 65.742672 -80.367966 
L 66.538617 -79.318595 
L 67.334562 -79.384505 
L 68.130506 -80.626132 
L 68.926451 -82.746438 
L 69.722396 -85.243329 
L 70.51834 -87.593179 
L 71.314285 -89.321335 
L 72.11023 -90.035389 
L 72.906175 -89.511006 
L 73.702119 -87.823253 
L 74.498064 -85.503956 
L 75.294009 -83.566278 
L 76.089953 -83.093394 
L 76.885898 -84.554373 
L 77.681843 -87.446638 
L 78.477787 -90.533396 
L 79.273732 -92.481169 
L 80.069677 -92.470248 
L 80.865621 -90.462405 
L 81.661566 -87.14709 
L 82.457511 -83.677482 
L 83.253455 -81.231558 
L 84.0494 -80.52116 
L 84.845345 -81.532332 
L 85.641289 -83.688308 
L 86.437234 -86.216537 
L 87.233179 -88.371269 
L 88.029124 -89.524516 
L 88.825068 -89.272947 
L 89.621013 -87.591496 
L 90.416958 -84.99724 
L 91.212902 -82.524038 
L 92.008847 -81.270952 
L 92.804792 -81.77962 
L 93.600736 -83.775997 
L 94.396681 -86.448596 
L 95.192626 -88.998559 
L 95.98857 -91.011232 
L 96.784515 -92.430726 
L 97.58046 -93.308439 
L 98.376404 -93.594043 
L 99.172349 -93.132774 
L 99.968294 -91.855984 
L 100.764238 -89.919048 
L 101.560183 -87.593095 
L 102.356128 -85.07969 
L 103.152073 -82.498905 
L 103.948017 -80.067924 
L 104.743962 -78.260379 
L 105.539907 -77.680428 
L 106.335851 -78.685366 
L 107.131796 -81.117158 
L 107.927741 -84.377649 
L 108.723685 -87.742015 
L 109.51963 -90.647643 
L 110.315575 -92.813655 
L 111.111519 -94.235085 
L 111.907464 -95.119758 
L 112.703409 -95.760693 
L 113.499353 -96.348066 
L 114.295298 -96.821239 
L 115.091243 -96.877219 
L 115.887187 -96.132382 
L 116.683132 -94.325153 
L 117.479077 -91.464967 
L 118.275021 -87.911446 
L 119.070966 -84.375127 
L 119.866911 -81.763877 
L 120.662856 -80.835305 
L 121.4588 -81.822112 
L 122.254745 -84.295154 
L 123.05069 -87.351484 
L 123.846634 -89.973306 
L 124.642579 -91.345588 
L 125.438524 -91.050825 
L 126.234468 -89.168018 
L 127.030413 -86.269093 
L 127.826358 -83.244175 
L 128.622302 -80.959615 
L 129.418247 -79.922955 
L 130.214192 -80.166327 
L 131.010136 -81.37672 
L 131.806081 -83.098012 
L 132.602026 -84.848258 
L 133.39797 -86.174343 
L 134.193915 -86.732906 
L 134.98986 -86.396729 
L 135.785805 -85.294498 
L 136.581749 -83.721134 
L 137.377694 -81.987847 
L 138.173639 -80.341015 
L 138.969583 -78.975888 
L 139.765528 -78.0504 
L 140.561473 -77.629451 
L 141.357417 -77.607724 
L 142.153362 -77.703994 
L 142.949307 -77.561276 
L 143.745251 -76.90516 
L 144.541196 -75.670739 
L 145.337141 -74.030299 
L 146.133085 -72.32117 
L 146.92903 -70.935918 
L 147.724975 -70.247232 
L 148.520919 -70.565193 
L 149.316864 -72.035007 
L 150.112809 -74.461342 
L 150.908753 -77.229462 
L 151.704698 -79.48742 
L 152.500643 -80.541133 
L 153.296588 -80.212334 
L 154.092532 -78.912328 
L 154.888477 -77.41345 
L 155.684422 -76.512902 
L 156.480366 -76.785464 
L 157.276311 -78.470871 
L 158.072256 -81.41831 
L 158.8682 -85.067007 
L 159.664145 -88.558534 
L 160.46009 -91.013024 
L 161.256034 -91.836502 
L 162.051979 -90.887739 
L 162.847924 -88.45227 
L 163.643868 -85.101502 
L 164.439813 -81.521375 
L 165.235758 -78.318051 
L 166.031702 -75.814966 
L 166.827647 -73.955673 
L 167.623592 -72.427896 
L 168.419537 -70.959952 
L 169.215481 -69.562525 
L 170.011426 -68.509876 
L 170.807371 -68.099294 
L 171.603315 -68.416784 
L 172.39926 -69.285071 
L 173.195205 -70.391433 
L 173.991149 -71.463379 
L 174.787094 -72.377062 
L 175.583039 -73.188579 
L 176.378983 -74.122973 
L 177.174928 -75.517883 
L 177.970873 -77.691826 
L 178.766817 -80.749551 
L 179.562762 -84.420103 
L 180.358707 -88.052792 
L 181.154651 -90.814221 
L 181.950596 -92.000995 
L 182.746541 -91.320594 
L 183.542485 -89.029068 
L 184.33843 -85.890712 
L 185.134375 -82.978037 
L 185.93032 -81.351661 
L 186.726264 -81.694166 
L 187.522209 -84.034493 
L 188.318154 -87.709635 
L 189.114098 -91.609795 
L 189.910043 -94.60662 
L 190.705988 -95.973074 
L 191.501932 -95.615733 
L 192.297877 -94.039356 
L 193.093822 -92.086141 
L 193.889766 -90.573689 
L 194.685711 -89.975424 
L 195.481656 -90.260124 
L 196.2776 -90.94791 
L 197.073545 -91.35742 
L 197.86949 -90.9333 
L 198.665434 -89.49675 
L 199.461379 -87.299309 
L 200.257324 -84.87624 
L 201.053269 -82.80603 
L 201.849213 -81.500754 
L 202.645158 -81.092874 
L 203.441103 -81.428875 
L 204.237047 -82.16202 
L 205.032992 -82.920381 
L 205.828937 -83.490838 
L 206.624881 -83.930141 
L 207.420826 -84.527929 
L 208.216771 -85.623333 
L 209.012715 -87.379598 
L 209.80866 -89.658472 
L 210.604605 -92.060954 
L 211.400549 -94.084196 
L 212.196494 -95.297201 
L 212.992439 -95.477751 
L 213.788383 -94.699332 
L 214.584328 -93.352145 
L 215.380273 -92.051113 
L 216.176218 -91.405586 
L 216.972162 -91.735413 
L 217.768107 -92.906805 
L 218.564052 -94.404618 
L 219.359996 -95.598969 
L 220.155941 -96.044289 
L 220.951886 -95.656512 
L 221.74783 -94.718466 
L 222.543775 -93.753226 
L 223.33972 -93.31996 
L 224.135664 -93.77566 
L 224.931609 -95.075111 
L 225.727554 -96.722507 
L 226.523498 -97.950932 
L 227.319443 -98.073386 
L 228.115388 -96.819069 
L 228.911332 -94.467137 
L 229.707277 -91.728741 
L 230.503222 -89.469119 
L 231.299166 -88.397949 
L 232.095111 -88.820613 
L 232.891056 -90.508515 
L 233.687001 -92.734596 
L 234.482945 -94.500382 
L 235.27889 -94.920237 
L 236.074835 -93.634715 
L 236.870779 -91.050963 
L 237.666724 -88.245171 
L 238.462669 -86.544585 
L 239.258613 -87.000251 
L 240.054558 -90.006753 
L 240.850503 -95.217024 
L 241.646447 -101.725282 
L 242.442392 -108.364661 
L 243.238337 -113.982909 
L 244.034281 -117.667119 
L 244.830226 -118.948523 
L 245.626171 -117.974923 
L 246.422115 -115.523725 
L 247.21806 -112.714632 
L 248.014005 -110.524729 
L 248.80995 -109.425602 
L 249.605894 -109.345443 
L 250.401839 -109.897401 
L 251.197784 -110.671287 
L 251.993728 -111.417753 
L 252.789673 -112.084451 
L 253.585618 -112.7569 
L 254.381562 -113.560171 
L 255.177507 -114.558921 
L 255.973452 -115.70366 
L 256.769396 -116.867126 
L 257.565341 -117.94967 
L 258.361286 -118.959952 
L 259.15723 -119.994884 
L 259.953175 -121.146387 
L 260.74912 -122.433013 
L 261.545064 -123.805475 
L 262.341009 -125.166238 
L 263.136954 -126.332157 
L 263.932898 -126.990939 
L 264.728843 -126.780948 
L 265.524788 -125.532181 
L 266.320733 -123.511616 
L 267.116677 -121.423303 
L 267.912622 -120.104903 
L 268.708567 -120.146575 
L 269.504511 -121.690746 
L 270.300456 -124.488069 
L 271.096401 -128.101661 
L 271.892345 -132.08477 
L 272.68829 -136.040023 
L 273.484235 -139.611342 
L 274.280179 -142.510358 
L 275.076124 -144.599611 
L 275.872069 -145.941817 
L 276.668013 -146.726031 
L 277.463958 -147.121678 
L 278.259903 -147.200848 
L 279.055847 -146.992441 
L 279.851792 -146.59948 
L 280.647737 -146.258637 
L 281.443682 -146.284346 
L 282.239626 -146.948169 
L 283.035571 -148.378474 
L 283.831516 -150.504806 
L 284.62746 -153.02596 
L 285.423405 -155.42279 
L 286.21935 -157.081897 
L 287.015294 -157.533011 
L 287.811239 -156.668251 
L 288.607184 -154.77819 
L 289.403128 -152.394137 
L 290.199073 -150.095077 
L 290.995018 -148.418078 
L 291.790962 -147.84236 
L 292.586907 -148.710858 
L 293.382852 -151.057239 
L 294.178796 -154.485027 
L 294.974741 -158.250214 
L 295.770686 -161.527769 
L 296.56663 -163.685087 
L 297.362575 -164.398179 
L 298.15852 -163.609703 
L 298.954465 -161.448982 
L 299.750409 -158.201089 
L 300.546354 -154.306302 
L 301.342299 -150.316115 
L 302.138243 -146.778298 
L 302.934188 -144.108828 
L 303.730133 -142.524277 
L 304.526077 -142.046032 
L 305.322022 -142.532324 
L 306.117967 -143.699632 
L 306.913911 -145.140596 
L 307.709856 -146.374541 
L 308.505801 -146.947143 
L 309.301745 -146.551517 
L 310.09769 -145.125108 
L 310.893635 -142.896497 
L 311.689579 -140.371471 
L 312.485524 -138.237464 
L 313.281469 -137.173275 
L 314.077414 -137.612061 
L 314.873358 -139.569694 
L 315.669303 -142.633549 
L 316.465248 -146.108024 
L 317.261192 -149.229463 
L 318.057137 -151.371483 
L 318.853082 -152.216588 
L 319.649026 -151.867533 
L 320.444971 -150.812511 
L 321.240916 -149.677911 
L 322.03686 -148.868083 
L 322.832805 -148.334929 
L 323.62875 -147.653888 
L 324.424694 -146.348567 
L 325.220639 -144.213961 
L 326.016584 -141.430697 
L 326.812528 -138.475636 
L 327.608473 -135.951556 
L 328.404418 -134.40599 
L 329.200363 -134.14181 
L 329.996307 -135.054431 
L 330.792252 -136.606207 
L 331.588197 -138.022643 
L 332.384141 -138.636023 
L 333.180086 -138.164827 
L 333.976031 -136.76387 
L 334.771975 -134.859522 
L 335.56792 -132.907048 
L 336.363865 -131.201762 
L 337.159809 -129.805632 
L 337.955754 -128.583932 
L 338.751699 -127.314183 
L 339.547643 -125.824925 
L 340.343588 -124.119437 
L 341.139533 -122.437231 
L 341.935477 -121.218533 
L 342.731422 -120.965137 
L 343.527367 -122.031052 
L 344.323311 -124.423802 
L 345.119256 -127.721447 
L 345.915201 -131.170942 
L 346.711146 -133.939233 
L 347.50709 -135.402801 
L 348.303035 -135.344196 
L 349.09898 -133.9814 
L 349.894924 -131.838238 
L 350.690869 -129.520749 
L 351.486814 -127.489809 
L 352.282758 -125.924327 
L 353.078703 -124.73622 
L 353.874648 -123.720757 
L 354.670592 -122.747842 
L 355.466537 -121.884758 
L 356.262482 -121.401043 
L 357.058426 -121.681285 
L 357.854371 -123.092884 
L 358.650316 -125.831572 
L 359.44626 -129.770456 
L 360.242205 -134.383834 
L 361.03815 -138.827367 
L 361.834095 -142.185292 
L 362.630039 -143.790444 
L 363.425984 -143.461563 
L 364.221929 -141.539865 
L 365.017873 -138.727053 
L 365.813818 -135.827901 
L 366.609763 -133.512352 
L 367.405707 -132.170996 
L 368.201652 -131.892179 
L 368.997597 -132.54031 
L 369.793541 -133.870965 
L 370.589486 -135.617939 
L 371.385431 -137.538424 
L 372.181375 -139.446301 
L 372.97732 -141.249392 
L 373.773265 -142.960214 
L 374.569209 -144.640574 
L 375.365154 -146.293422 
L 376.161099 -147.774292 
L 376.957043 -148.792355 
L 377.752988 -149.01409 
L 378.548933 -148.225889 
L 379.344878 -146.485585 
L 380.140822 -144.188678 
L 380.936767 -141.990296 
L 381.732712 -140.579353 
L 382.528656 -140.386934 
L 383.324601 -141.366918 
L 384.120546 -142.96796 
L 384.91649 -144.327363 
L 385.712435 -144.599957 
L 386.50838 -143.264426 
L 387.304324 -140.287678 
L 388.100269 -136.127079 
L 388.896214 -131.606773 
L 389.692158 -127.706003 
L 390.488103 -125.300243 
L 391.284048 -124.918051 
L 392.079992 -126.593054 
L 392.875937 -129.876994 
L 393.671882 -134.025386 
L 394.467827 -138.281521 
L 395.263771 -142.117478 
L 396.059716 -145.314958 
L 396.855661 -147.883879 
L 397.651605 -149.918497 
L 398.44755 -151.493865 
L 399.243495 -152.630058 
L 400.039439 -153.289028 
L 400.835384 -153.389463 
L 401.631329 -152.881069 
L 402.427273 -151.890932 
L 403.223218 -150.835734 
L 404.019163 -150.347905 
L 404.815107 -151.005055 
L 405.611052 -153.0363 
L 406.406997 -156.197772 
L 407.202941 -159.870671 
L 407.998886 -163.294679 
L 408.794831 -165.823653 
L 409.590775 -167.149148 
L 410.38672 -167.451228 
L 411.182665 -167.386388 
L 411.97861 -167.843687 
L 412.774554 -169.545498 
L 413.570499 -172.699695 
L 413.570499 -277.072182 
L 413.570499 -277.072182 
L 412.774554 -274.238868 
L 411.97861 -272.509243 
L 411.182665 -271.482798 
L 410.38672 -270.570032 
L 409.590775 -269.211998 
L 408.794831 -267.050528 
L 407.998886 -264.047421 
L 407.202941 -260.50965 
L 406.406997 -256.964063 
L 405.611052 -253.923405 
L 404.815107 -251.692303 
L 404.019163 -250.3263 
L 403.223218 -249.713807 
L 402.427273 -249.665672 
L 401.631329 -249.947762 
L 400.835384 -250.299499 
L 400.039439 -250.497125 
L 399.243495 -250.417137 
L 398.44755 -250.005689 
L 397.651605 -249.166255 
L 396.855661 -247.696183 
L 396.059716 -245.370707 
L 395.263771 -242.128622 
L 394.467827 -238.218811 
L 393.671882 -234.200838 
L 392.875937 -230.801762 
L 392.079992 -228.712002 
L 391.284048 -228.39903 
L 390.488103 -229.972191 
L 389.692158 -233.118486 
L 388.896214 -237.14221 
L 388.100269 -241.12958 
L 387.304324 -244.209709 
L 386.50838 -245.824127 
L 385.712435 -245.888727 
L 384.91649 -244.766886 
L 384.120546 -243.071968 
L 383.324601 -241.419193 
L 382.528656 -240.256401 
L 381.732712 -239.81333 
L 380.936767 -240.124604 
L 380.140822 -241.070429 
L 379.344878 -242.411944 
L 378.548933 -243.829921 
L 377.752988 -244.98297 
L 376.957043 -245.580976 
L 376.161099 -245.446819 
L 375.365154 -244.543425 
L 374.569209 -242.962233 
L 373.773265 -240.878295 
L 372.97732 -238.482214 
L 372.181375 -235.917446 
L 371.385431 -233.269295 
L 370.589486 -230.627383 
L 369.793541 -228.174974 
L 368.997597 -226.217386 
L 368.201652 -225.103684 
L 367.405707 -225.081951 
L 366.609763 -226.175257 
L 365.813818 -228.139606 
L 365.017873 -230.509941 
L 364.221929 -232.708593 
L 363.425984 -234.181094 
L 362.630039 -234.517239 
L 361.834095 -233.523152 
L 361.03815 -231.247164 
L 360.242205 -227.987434 
L 359.44626 -224.276838 
L 358.650316 -220.797626 
L 357.854371 -218.201225 
L 357.058426 -216.887151 
L 356.262482 -216.858575 
L 355.466537 -217.755161 
L 354.670592 -219.054479 
L 353.874648 -220.3179 
L 353.078703 -221.344617 
L 352.282758 -222.181901 
L 351.486814 -223.024231 
L 350.690869 -224.062295 
L 349.894924 -225.338767 
L 349.09898 -226.66632 
L 348.303035 -227.655558 
L 347.50709 -227.859485 
L 346.711146 -226.975253 
L 345.915201 -225.004692 
L 345.119256 -222.297778 
L 344.323311 -219.462358 
L 343.527367 -217.173951 
L 342.731422 -215.949265 
L 341.935477 -215.965464 
L 341.139533 -217.007999 
L 340.343588 -218.589292 
L 339.547643 -220.19429 
L 338.751699 -221.526823 
L 337.955754 -222.620491 
L 337.159809 -223.751547 
L 336.363865 -225.202639 
L 335.56792 -227.016218 
L 334.771975 -228.892015 
L 333.976031 -230.300772 
L 333.180086 -230.751874 
L 332.384141 -230.057126 
L 331.588197 -228.440755 
L 330.792252 -226.453704 
L 329.996307 -224.775528 
L 329.200363 -224.011366 
L 328.404418 -224.519247 
L 327.608473 -226.276353 
L 326.812528 -228.851616 
L 326.016584 -231.566756 
L 325.220639 -233.810383 
L 324.424694 -235.318616 
L 323.62875 -236.226939 
L 322.832805 -236.875511 
L 322.03686 -237.552374 
L 321.240916 -238.362101 
L 320.444971 -239.227767 
L 319.649026 -239.925696 
L 318.853082 -240.114888 
L 318.057137 -239.422658 
L 317.261192 -237.632318 
L 316.465248 -234.880887 
L 315.669303 -231.697224 
L 314.873358 -228.820572 
L 314.077414 -226.912932 
L 313.281469 -226.333055 
L 312.485524 -227.055555 
L 311.689579 -228.71801 
L 310.893635 -230.750154 
L 310.09769 -232.551235 
L 309.301745 -233.672255 
L 308.505801 -233.935967 
L 307.709856 -233.444118 
L 306.913911 -232.487398 
L 306.117967 -231.427396 
L 305.322022 -230.609812 
L 304.526077 -230.31841 
L 303.730133 -230.75099 
L 302.934188 -232.007742 
L 302.138243 -234.093207 
L 301.342299 -236.921928 
L 300.546354 -240.303699 
L 299.750409 -243.901088 
L 298.954465 -247.202748 
L 298.15852 -249.589587 
L 297.362575 -250.52004 
L 296.56663 -249.748226 
L 295.770686 -247.432018 
L 294.974741 -244.057323 
L 294.178796 -240.248902 
L 293.382852 -236.618273 
L 292.586907 -233.714864 
L 291.790962 -231.998494 
L 290.995018 -231.730328 
L 290.199073 -232.809724 
L 289.403128 -234.719298 
L 288.607184 -236.698676 
L 287.811239 -238.053902 
L 287.015294 -238.38301 
L 286.21935 -237.60497 
L 285.423405 -235.871141 
L 284.62746 -233.498387 
L 283.831516 -230.943198 
L 283.035571 -228.725158 
L 282.239626 -227.263706 
L 281.443682 -226.718648 
L 280.647737 -226.948742 
L 279.851792 -227.599069 
L 279.055847 -228.232614 
L 278.259903 -228.439582 
L 277.463958 -227.926381 
L 276.668013 -226.593399 
L 275.872069 -224.562013 
L 275.076124 -222.096758 
L 274.280179 -219.434664 
L 273.484235 -216.639998 
L 272.68829 -213.626911 
L 271.892345 -210.346729 
L 271.096401 -206.96416 
L 270.300456 -203.856805 
L 269.504511 -201.437265 
L 268.708567 -199.946895 
L 267.912622 -199.377055 
L 267.116677 -199.542604 
L 266.320733 -200.202874 
L 265.524788 -201.110025 
L 264.728843 -201.969293 
L 263.932898 -202.436953 
L 263.136954 -202.263786 
L 262.341009 -201.476167 
L 261.545064 -200.385798 
L 260.74912 -199.379999 
L 259.953175 -198.656918 
L 259.15723 -198.123954 
L 258.361286 -197.521401 
L 257.565341 -196.631745 
L 256.769396 -195.403645 
L 255.973452 -193.941347 
L 255.177507 -192.420292 
L 254.381562 -191.000077 
L 253.585618 -189.760486 
L 252.789673 -188.671152 
L 251.993728 -187.623166 
L 251.197784 -186.530238 
L 250.401839 -185.436276 
L 249.605894 -184.535434 
L 248.80995 -184.081524 
L 248.014005 -184.260468 
L 247.21806 -185.10612 
L 246.422115 -186.463966 
L 245.626171 -187.954939 
L 244.830226 -188.937834 
L 244.034281 -188.592541 
L 243.238337 -186.245745 
L 242.442392 -181.799987 
L 241.646447 -175.936703 
L 240.850503 -169.915371 
L 240.054558 -165.075088 
L 239.258613 -162.319522 
L 238.462669 -161.843211 
L 237.666724 -163.175361 
L 236.870779 -165.441519 
L 236.074835 -167.687624 
L 235.27889 -169.152724 
L 234.482945 -169.452753 
L 233.687001 -168.67245 
L 232.891056 -167.329123 
L 232.095111 -166.167298 
L 231.299166 -165.831822 
L 230.503222 -166.567003 
L 229.707277 -168.10288 
L 228.911332 -169.795669 
L 228.115388 -170.942676 
L 227.319443 -171.094741 
L 226.523498 -170.212572 
L 225.727554 -168.632163 
L 224.931609 -166.911519 
L 224.135664 -165.638758 
L 223.33972 -165.235709 
L 222.543775 -165.791738 
L 221.74783 -167.003625 
L 220.951886 -168.290936 
L 220.155941 -169.060456 
L 219.359996 -168.979125 
L 218.564052 -168.101766 
L 217.768107 -166.806652 
L 216.972162 -165.612145 
L 216.176218 -164.977689 
L 215.380273 -165.143403 
L 214.584328 -166.022949 
L 213.788383 -167.180866 
L 212.992439 -167.953533 
L 212.196494 -167.721693 
L 211.400549 -166.212129 
L 210.604605 -163.642054 
L 209.80866 -160.613168 
L 209.012715 -157.826615 
L 208.216771 -155.789168 
L 207.420826 -154.651542 
L 206.624881 -154.21107 
L 205.828937 -154.034095 
L 205.032992 -153.647336 
L 204.237047 -152.750994 
L 203.441103 -151.378019 
L 202.645158 -149.909947 
L 201.849213 -148.914074 
L 201.053269 -148.867784 
L 200.257324 -149.914821 
L 199.461379 -151.792753 
L 198.665434 -153.967293 
L 197.86949 -155.882296 
L 197.073545 -157.188411 
L 196.2776 -157.860535 
L 195.481656 -158.179077 
L 194.685711 -158.58599 
L 193.889766 -159.457379 
L 193.093822 -160.878479 
L 192.297877 -162.53108 
L 191.501932 -163.76949 
L 190.705988 -163.871358 
L 189.910043 -162.355195 
L 189.114098 -159.2219 
L 188.318154 -155.019912 
L 187.522209 -150.709992 
L 186.726264 -147.372367 
L 185.93032 -145.845439 
L 185.134375 -146.412204 
L 184.33843 -148.654441 
L 183.542485 -151.56435 
L 182.746541 -153.909818 
L 181.950596 -154.706323 
L 181.154651 -153.569678 
L 180.358707 -150.79497 
L 179.562762 -147.164048 
L 178.766817 -143.606059 
L 177.970873 -140.862009 
L 177.174928 -139.258521 
L 176.378983 -138.644554 
L 175.583039 -138.512673 
L 174.787094 -138.271451 
L 173.991149 -137.545699 
L 173.195205 -136.337117 
L 172.39926 -134.951042 
L 171.603315 -133.75353 
L 170.807371 -132.949842 
L 170.011426 -132.542851 
L 169.215481 -132.454764 
L 168.419537 -132.662617 
L 167.623592 -133.227174 
L 166.827647 -134.236385 
L 166.031702 -135.775601 
L 165.235758 -137.945936 
L 164.439813 -140.822085 
L 163.643868 -144.293381 
L 162.847924 -147.901504 
L 162.051979 -150.863919 
L 161.256034 -152.341286 
L 160.46009 -151.792831 
L 159.664145 -149.211945 
L 158.8682 -145.158789 
L 158.072256 -140.618644 
L 157.276311 -136.725982 
L 156.480366 -134.387789 
L 155.684422 -133.915265 
L 154.888477 -134.876861 
L 154.092532 -136.315025 
L 153.296588 -137.202332 
L 152.500643 -136.847443 
L 151.704698 -135.058267 
L 150.908753 -132.086823 
L 150.112809 -128.507522 
L 149.316864 -125.104565 
L 148.520919 -122.708267 
L 147.724975 -121.933091 
L 146.92903 -122.90939 
L 146.133085 -125.206464 
L 145.337141 -128.04615 
L 144.541196 -130.657263 
L 143.745251 -132.536175 
L 142.949307 -133.514284 
L 142.153362 -133.680289 
L 141.357417 -133.261698 
L 140.561473 -132.544203 
L 139.765528 -131.838552 
L 138.969583 -131.449982 
L 138.173639 -131.60738 
L 137.377694 -132.368807 
L 136.581749 -133.580261 
L 135.785805 -134.934838 
L 134.98986 -136.076097 
L 134.193915 -136.663495 
L 133.39797 -136.414411 
L 132.602026 -135.203143 
L 131.806081 -133.210703 
L 131.010136 -130.989155 
L 130.214192 -129.314408 
L 129.418247 -128.864834 
L 128.622302 -129.928086 
L 127.826358 -132.310718 
L 127.030413 -135.426902 
L 126.234468 -138.446772 
L 125.438524 -140.475749 
L 124.642579 -140.812813 
L 123.846634 -139.246277 
L 123.05069 -136.207045 
L 122.254745 -132.635038 
L 121.4588 -129.620603 
L 120.662856 -128.040114 
L 119.866911 -128.348005 
L 119.070966 -130.514328 
L 118.275021 -134.036915 
L 117.479077 -138.047613 
L 116.683132 -141.583223 
L 115.887187 -143.947541 
L 115.091243 -144.938208 
L 114.295298 -144.802151 
L 113.499353 -143.994808 
L 112.703409 -142.916202 
L 111.907464 -141.740832 
L 111.111519 -140.370227 
L 110.315575 -138.516402 
L 109.51963 -135.913351 
L 108.723685 -132.562725 
L 107.927741 -128.837378 
L 107.131796 -125.351659 
L 106.335851 -122.714473 
L 105.539907 -121.364231 
L 104.743962 -121.533135 
L 103.948017 -123.221152 
L 103.152073 -126.103541 
L 102.356128 -129.512805 
L 101.560183 -132.688382 
L 100.764238 -135.166412 
L 99.968294 -136.961203 
L 99.172349 -138.362989 
L 98.376404 -139.499715 
L 97.58046 -140.071203 
L 96.784515 -139.530603 
L 95.98857 -137.516547 
L 95.192626 -134.171779 
L 94.396681 -130.154414 
L 93.600736 -126.351454 
L 92.804792 -123.516306 
L 92.008847 -122.09854 
L 91.212902 -122.260331 
L 90.416958 -123.870214 
L 89.621013 -126.368699 
L 88.825068 -128.676605 
L 88.029124 -129.506525 
L 87.233179 -128.043295 
L 86.437234 -124.466631 
L 85.641289 -119.949412 
L 84.845345 -116.129024 
L 84.0494 -114.312019 
L 83.253455 -114.899549 
L 82.457511 -117.363308 
L 81.661566 -120.586099 
L 80.865621 -123.285861 
L 80.069677 -124.450649 
L 79.273732 -123.707804 
L 78.477787 -121.437208 
L 77.681843 -118.522539 
L 76.885898 -115.936947 
L 76.089953 -114.458013 
L 75.294009 -114.547413 
L 74.498064 -116.257416 
L 73.702119 -119.08262 
L 72.906175 -121.921394 
L 72.11023 -123.475209 
L 71.314285 -122.926373 
L 70.51834 -120.348898 
L 69.722396 -116.627497 
L 68.926451 -112.991377 
L 68.130506 -110.40696 
L 67.334562 -109.182866 
L 66.538617 -109.029724 
L 65.742672 -109.435714 
L 64.946728 -110.062061 
L 64.150783 -110.952074 
L 63.354838 -112.409684 
L 62.558894 -114.622023 
L 61.762949 -117.453505 
L 60.967004 -120.587693 
L 60.17106 -123.684608 
L 59.375115 -126.354182 
L 58.57917 -128.084015 
L 57.783226 -128.384135 
L 56.987281 -127.147113 
L 56.191336 -124.868278 
L 55.395392 -122.468956 
L 54.599447 -120.835659 
L 53.803502 -120.425818 
L 53.007557 -121.173525 
L 52.211613 -122.613153 
L 51.415668 -124.050961 
L 50.619723 -124.771344 
L 49.823779 -124.328662 
L 49.027834 -122.792872 
L 48.231889 -120.702588 
L 47.435945 -118.716817 
L 46.64 -117.25694 
z
" style="stroke: #e41a1c; stroke-opacity: 0.3"/>
    </defs>
    <g clip-path="url(#p278375fdf9)">
     <use xlink:href="#mbf1c08a08a" x="0" y="360" style="fill: #e41a1c; fill-opacity: 0.3; stroke: #e41a1c; stroke-opacity: 0.3"/>
    </g>
   </g>
   <g id="PolyCollection_2">
    <defs>
     <path id="m7796918745" d="M 46.64 -115.857206 
L 46.64 -99.393009 
L 47.435945 -100.569857 
L 48.231889 -101.113984 
L 49.027834 -100.697498 
L 49.823779 -99.213756 
L 50.619723 -96.903569 
L 51.415668 -94.388899 
L 52.211613 -92.458933 
L 53.007557 -91.703486 
L 53.803502 -92.273098 
L 54.599447 -93.898878 
L 55.395392 -96.077666 
L 56.191336 -98.242907 
L 56.987281 -99.871042 
L 57.783226 -100.594884 
L 58.57917 -100.33802 
L 59.375115 -99.367991 
L 60.17106 -98.156689 
L 60.967004 -97.119573 
L 61.762949 -96.435063 
L 62.558894 -96.047208 
L 63.354838 -95.795892 
L 64.150783 -95.543341 
L 64.946728 -95.228627 
L 65.742672 -94.882625 
L 66.538617 -94.635901 
L 67.334562 -94.695927 
L 68.130506 -95.257276 
L 68.926451 -96.371332 
L 69.722396 -97.867819 
L 70.51834 -99.395597 
L 71.314285 -100.558825 
L 72.11023 -101.056384 
L 72.906175 -100.755517 
L 73.702119 -99.704447 
L 74.498064 -98.111011 
L 75.294009 -96.290631 
L 76.089953 -94.582362 
L 76.885898 -93.25737 
L 77.681843 -92.461587 
L 78.477787 -92.212079 
L 79.273732 -92.426598 
L 80.069677 -92.955763 
L 80.865621 -93.61153 
L 81.661566 -94.205422 
L 82.457511 -94.603328 
L 83.253455 -94.774716 
L 84.0494 -94.791495 
L 84.845345 -94.764503 
L 85.641289 -94.765404 
L 86.437234 -94.783911 
L 87.233179 -94.730521 
L 88.029124 -94.472492 
L 88.825068 -93.88882 
L 89.621013 -92.926293 
L 90.416958 -91.631501 
L 91.212902 -90.140905 
L 92.008847 -88.636596 
L 92.804792 -87.296342 
L 93.600736 -86.264629 
L 94.396681 -85.649603 
L 95.192626 -85.525364 
L 95.98857 -85.916729 
L 96.784515 -86.771605 
L 97.58046 -87.948903 
L 98.376404 -89.241446 
L 99.172349 -90.428457 
L 99.968294 -91.332377 
L 100.764238 -91.853647 
L 101.560183 -91.976634 
L 102.356128 -91.75894 
L 103.152073 -91.31392 
L 103.948017 -90.783463 
L 104.743962 -90.299542 
L 105.539907 -89.949503 
L 106.335851 -89.766386 
L 107.131796 -89.74484 
L 107.927741 -89.859205 
L 108.723685 -90.069907 
L 109.51963 -90.33267 
L 110.315575 -90.627211 
L 111.111519 -90.993902 
L 111.907464 -91.540282 
L 112.703409 -92.388505 
L 113.499353 -93.584962 
L 114.295298 -95.034801 
L 115.091243 -96.506634 
L 115.887187 -97.696634 
L 116.683132 -98.310591 
L 117.479077 -98.13971 
L 118.275021 -97.126824 
L 119.070966 -95.411227 
L 119.866911 -93.324027 
L 120.662856 -91.313115 
L 121.4588 -89.813371 
L 122.254745 -89.115604 
L 123.05069 -89.290167 
L 123.846634 -90.187225 
L 124.642579 -91.498672 
L 125.438524 -92.851665 
L 126.234468 -93.9058 
L 127.030413 -94.430387 
L 127.826358 -94.343284 
L 128.622302 -93.703679 
L 129.418247 -92.666756 
L 130.214192 -91.421659 
L 131.010136 -90.137714 
L 131.806081 -88.93466 
L 132.602026 -87.876854 
L 133.39797 -86.980224 
L 134.193915 -86.220737 
L 134.98986 -85.542355 
L 135.785805 -84.871679 
L 136.581749 -84.14466 
L 137.377694 -83.336463 
L 138.173639 -82.474977 
L 138.969583 -81.628442 
L 139.765528 -80.878511 
L 140.561473 -80.297242 
L 141.357417 -79.934744 
L 142.153362 -79.808707 
L 142.949307 -79.886652 
L 143.745251 -80.071842 
L 144.541196 -80.22071 
L 145.337141 -80.203224 
L 146.133085 -79.975464 
L 146.92903 -79.611916 
L 147.724975 -79.273879 
L 148.520919 -79.139157 
L 149.316864 -79.335963 
L 150.112809 -79.903149 
L 150.908753 -80.771602 
L 151.704698 -81.761755 
L 152.500643 -82.612863 
L 153.296588 -83.058488 
L 154.092532 -82.927696 
L 154.888477 -82.220306 
L 155.684422 -81.112504 
L 156.480366 -79.890964 
L 157.276311 -78.851973 
L 158.072256 -78.209285 
L 158.8682 -78.037556 
L 159.664145 -78.261174 
L 160.46009 -78.690784 
L 161.256034 -79.10015 
L 162.051979 -79.316009 
L 162.847924 -79.278137 
L 163.643868 -79.03789 
L 164.439813 -78.700258 
L 165.235758 -78.348939 
L 166.031702 -77.998564 
L 166.827647 -77.592546 
L 167.623592 -77.033955 
L 168.419537 -76.226971 
L 169.215481 -75.117553 
L 170.011426 -73.729314 
L 170.807371 -72.181873 
L 171.603315 -70.671112 
L 172.39926 -69.405772 
L 173.195205 -68.528342 
L 173.991149 -68.066941 
L 174.787094 -67.944116 
L 175.583039 -68.02486 
L 176.378983 -68.164791 
L 177.174928 -68.240547 
L 177.970873 -68.173141 
L 178.766817 -67.952778 
L 179.562762 -67.651436 
L 180.358707 -67.403132 
L 181.154651 -67.354338 
L 181.950596 -67.612993 
L 182.746541 -68.221854 
L 183.542485 -69.155637 
L 184.33843 -70.326149 
L 185.134375 -71.591884 
L 185.93032 -72.784788 
L 186.726264 -73.75958 
L 187.522209 -74.44599 
L 188.318154 -74.871665 
L 189.114098 -75.14034 
L 189.910043 -75.380157 
L 190.705988 -75.691223 
L 191.501932 -76.112944 
L 192.297877 -76.615764 
L 193.093822 -77.112712 
L 193.889766 -77.485463 
L 194.685711 -77.620759 
L 195.481656 -77.449061 
L 196.2776 -76.970145 
L 197.073545 -76.250513 
L 197.86949 -75.392203 
L 198.665434 -74.493247 
L 199.461379 -73.626735 
L 200.257324 -72.847673 
L 201.053269 -72.210197 
L 201.849213 -71.771151 
L 202.645158 -71.576289 
L 203.441103 -71.64506 
L 204.237047 -71.963706 
L 205.032992 -72.476767 
L 205.828937 -73.06908 
L 206.624881 -73.558817 
L 207.420826 -73.736441 
L 208.216771 -73.454455 
L 209.012715 -72.721406 
L 209.80866 -71.732377 
L 210.604605 -70.80645 
L 211.400549 -70.264797 
L 212.196494 -70.31021 
L 212.992439 -70.952065 
L 213.788383 -71.995632 
L 214.584328 -73.100436 
L 215.380273 -73.896717 
L 216.176218 -74.122076 
L 216.972162 -73.719994 
L 217.768107 -72.853612 
L 218.564052 -71.829005 
L 219.359996 -70.962955 
L 220.155941 -70.449098 
L 220.951886 -70.273528 
L 221.74783 -70.213864 
L 222.543775 -69.926106 
L 223.33972 -69.086539 
L 224.135664 -67.529768 
L 224.931609 -65.326994 
L 225.727554 -62.777925 
L 226.523498 -60.323367 
L 227.319443 -58.407653 
L 228.115388 -57.333336 
L 228.911332 -57.159933 
L 229.707277 -57.691715 
L 230.503222 -58.563894 
L 231.299166 -59.387384 
L 232.095111 -59.88371 
L 232.891056 -59.953674 
L 233.687001 -59.663632 
L 234.482945 -59.171799 
L 235.27889 -58.635181 
L 236.074835 -58.137123 
L 236.870779 -57.663564 
L 237.666724 -57.136232 
L 238.462669 -56.485944 
L 239.258613 -55.727383 
L 240.054558 -54.991281 
L 240.850503 -54.488656 
L 241.646447 -54.418187 
L 242.442392 -54.861479 
L 243.238337 -55.721228 
L 244.034281 -56.737131 
L 244.830226 -57.57534 
L 245.626171 -57.952787 
L 246.422115 -57.746397 
L 247.21806 -57.047386 
L 248.014005 -56.139242 
L 248.80995 -55.400013 
L 249.605894 -55.157637 
L 250.401839 -55.553202 
L 251.197784 -56.47182 
L 251.993728 -57.574448 
L 252.789673 -58.420022 
L 253.585618 -58.631021 
L 254.381562 -58.041844 
L 255.177507 -56.775259 
L 255.973452 -55.212511 
L 256.769396 -53.859183 
L 257.565341 -53.155818 
L 258.361286 -53.314755 
L 259.15723 -54.256069 
L 259.953175 -55.666206 
L 260.74912 -57.143083 
L 261.545064 -58.358717 
L 262.341009 -59.176542 
L 263.136954 -59.68631 
L 263.932898 -60.14641 
L 264.728843 -60.852158 
L 265.524788 -61.98046 
L 266.320733 -63.480166 
L 267.116677 -65.062788 
L 267.912622 -66.301739 
L 268.708567 -66.797825 
L 269.504511 -66.342225 
L 270.300456 -65.011741 
L 271.096401 -63.155757 
L 271.892345 -61.273378 
L 272.68829 -59.826151 
L 273.484235 -59.067506 
L 274.280179 -58.967548 
L 275.076124 -59.264314 
L 275.872069 -59.60799 
L 276.668013 -59.724372 
L 277.463958 -59.526982 
L 278.259903 -59.139524 
L 279.055847 -58.828 
L 279.851792 -58.872654 
L 280.647737 -59.430764 
L 281.443682 -60.448964 
L 282.239626 -61.669569 
L 283.035571 -62.735838 
L 283.831516 -63.351169 
L 284.62746 -63.415771 
L 285.423405 -63.071737 
L 286.21935 -62.631589 
L 287.015294 -62.424056 
L 287.811239 -62.633062 
L 288.607184 -63.208889 
L 289.403128 -63.892948 
L 290.199073 -64.341449 
L 290.995018 -64.289114 
L 291.790962 -63.680827 
L 292.586907 -62.715009 
L 293.382852 -61.776768 
L 294.178796 -61.281698 
L 294.974741 -61.491082 
L 295.770686 -62.379245 
L 296.56663 -63.618256 
L 297.362575 -64.695491 
L 298.15852 -65.119347 
L 298.954465 -64.627813 
L 299.750409 -63.311473 
L 300.546354 -61.596433 
L 301.342299 -60.090514 
L 302.138243 -59.355107 
L 302.934188 -59.697393 
L 303.730133 -61.065526 
L 304.526077 -63.080571 
L 305.322022 -65.182157 
L 306.117967 -66.826276 
L 306.913911 -67.661495 
L 307.709856 -67.620266 
L 308.505801 -66.893059 
L 309.301745 -65.802232 
L 310.09769 -64.641573 
L 310.893635 -63.563617 
L 311.689579 -62.56411 
L 312.485524 -61.554655 
L 313.281469 -60.472764 
L 314.077414 -59.371633 
L 314.873358 -58.447821 
L 315.669303 -57.989316 
L 316.465248 -58.256954 
L 317.261192 -59.344993 
L 318.057137 -61.08618 
L 318.853082 -63.054784 
L 319.649026 -64.67955 
L 320.444971 -65.431471 
L 321.240916 -65.020914 
L 322.03686 -63.529582 
L 322.832805 -61.414961 
L 323.62875 -59.365638 
L 324.424694 -58.052563 
L 325.220639 -57.87985 
L 326.016584 -58.844322 
L 326.812528 -60.556794 
L 327.608473 -62.400085 
L 328.404418 -63.75119 
L 329.200363 -64.191932 
L 329.996307 -63.647106 
L 330.792252 -62.404787 
L 331.588197 -61.003487 
L 332.384141 -60.023053 
L 333.180086 -59.864241 
L 333.976031 -60.607314 
L 334.771975 -61.997692 
L 335.56792 -63.550311 
L 336.363865 -64.726588 
L 337.159809 -65.122554 
L 337.955754 -64.603748 
L 338.751699 -63.335117 
L 339.547643 -61.694308 
L 340.343588 -60.113624 
L 341.139533 -58.929976 
L 341.935477 -58.306542 
L 342.731422 -58.240666 
L 343.527367 -58.627674 
L 344.323311 -59.334117 
L 345.119256 -60.245514 
L 345.915201 -61.277179 
L 346.711146 -62.358364 
L 347.50709 -63.410509 
L 348.303035 -64.335995 
L 349.09898 -65.022952 
L 349.894924 -65.367392 
L 350.690869 -65.312902 
L 351.486814 -64.895953 
L 352.282758 -64.266144 
L 353.078703 -63.650967 
L 353.874648 -63.268302 
L 354.670592 -63.23252 
L 355.466537 -63.509497 
L 356.262482 -63.942349 
L 357.058426 -64.326947 
L 357.854371 -64.500585 
L 358.650316 -64.415982 
L 359.44626 -64.179405 
L 360.242205 -64.028987 
L 361.03815 -64.240211 
L 361.834095 -64.986128 
L 362.630039 -66.223748 
L 363.425984 -67.675608 
L 364.221929 -68.91959 
L 365.017873 -69.539449 
L 365.813818 -69.270575 
L 366.609763 -68.095186 
L 367.405707 -66.263075 
L 368.201652 -64.226793 
L 368.997597 -62.500766 
L 369.793541 -61.489237 
L 370.589486 -61.353824 
L 371.385431 -61.977688 
L 372.181375 -63.033405 
L 372.97732 -64.113312 
L 373.773265 -64.866129 
L 374.569209 -65.09764 
L 375.365154 -64.811909 
L 376.161099 -64.184656 
L 376.957043 -63.48009 
L 377.752988 -62.946094 
L 378.548933 -62.732549 
L 379.344878 -62.860439 
L 380.140822 -63.237518 
L 380.936767 -63.697698 
L 381.732712 -64.045884 
L 382.528656 -64.102117 
L 383.324601 -63.742123 
L 384.120546 -62.927293 
L 384.91649 -61.716097 
L 385.712435 -60.255123 
L 386.50838 -58.754003 
L 387.304324 -57.44777 
L 388.100269 -56.547419 
L 388.896214 -56.183324 
L 389.692158 -56.35526 
L 390.488103 -56.909037 
L 391.284048 -57.558353 
L 392.079992 -57.960002 
L 392.875937 -57.830064 
L 393.671882 -57.063089 
L 394.467827 -55.802175 
L 395.263771 -54.42122 
L 396.059716 -53.417998 
L 396.855661 -53.253717 
L 397.651605 -54.191592 
L 398.44755 -56.184905 
L 399.243495 -58.85558 
L 400.039439 -61.585943 
L 400.835384 -63.707562 
L 401.631329 -64.720477 
L 402.427273 -64.45131 
L 403.223218 -63.088378 
L 404.019163 -61.096331 
L 404.815107 -59.061643 
L 405.611052 -57.526345 
L 406.406997 -56.847287 
L 407.202941 -57.106689 
L 407.998886 -58.102537 
L 408.794831 -59.433939 
L 409.590775 -60.652855 
L 410.38672 -61.411852 
L 411.182665 -61.539049 
L 411.97861 -61.022134 
L 412.774554 -59.941619 
L 413.570499 -58.409692 
L 413.570499 -100.557595 
L 413.570499 -100.557595 
L 412.774554 -101.899493 
L 411.97861 -102.827704 
L 411.182665 -103.22532 
L 410.38672 -103.015399 
L 409.590775 -102.229275 
L 408.794831 -101.043187 
L 407.998886 -99.76859 
L 407.202941 -98.798797 
L 406.406997 -98.513892 
L 405.611052 -99.152015 
L 404.815107 -100.685018 
L 404.019163 -102.766041 
L 403.223218 -104.80403 
L 402.427273 -106.154848 
L 401.631329 -106.347073 
L 400.835384 -105.24234 
L 400.039439 -103.072391 
L 399.243495 -100.356445 
L 398.44755 -97.740614 
L 397.651605 -95.808883 
L 396.855661 -94.915794 
L 396.059716 -95.092695 
L 395.263771 -96.063557 
L 394.467827 -97.363956 
L 393.671882 -98.511148 
L 392.875937 -99.156323 
L 392.079992 -99.170262 
L 391.284048 -98.64929 
L 390.488103 -97.855389 
L 389.692158 -97.117506 
L 388.896214 -96.727309 
L 388.100269 -96.861603 
L 387.304324 -97.551042 
L 386.50838 -98.694814 
L 385.712435 -100.105294 
L 384.91649 -101.561766 
L 384.120546 -102.856634 
L 383.324601 -103.826769 
L 382.528656 -104.372975 
L 381.732712 -104.475623 
L 380.936767 -104.20825 
L 380.140822 -103.736977 
L 379.344878 -103.287801 
L 378.548933 -103.078042 
L 377.752988 -103.234793 
L 376.957043 -103.738296 
L 376.161099 -104.417661 
L 375.365154 -105.001925 
L 374.569209 -105.211346 
L 373.773265 -104.86491 
L 372.97732 -103.970885 
L 372.181375 -102.75988 
L 371.385431 -101.631247 
L 370.589486 -101.021506 
L 369.793541 -101.246113 
L 368.997597 -102.379469 
L 368.201652 -104.215312 
L 367.405707 -106.316424 
L 366.609763 -108.140076 
L 365.813818 -109.207964 
L 365.017873 -109.267393 
L 364.221929 -108.377713 
L 363.425984 -106.877752 
L 362.630039 -105.246769 
L 361.834095 -103.92697 
L 361.03815 -103.185848 
L 360.242205 -103.058995 
L 359.44626 -103.372086 
L 358.650316 -103.825261 
L 357.854371 -104.118332 
L 357.058426 -104.076681 
L 356.262482 -103.719804 
L 355.466537 -103.233069 
L 354.670592 -102.858935 
L 353.874648 -102.772735 
L 353.078703 -103.008571 
L 352.282758 -103.457659 
L 351.486814 -103.919844 
L 350.690869 -104.178793 
L 349.894924 -104.078229 
L 349.09898 -103.576059 
L 348.303035 -102.750589 
L 347.50709 -101.750335 
L 346.711146 -100.714837 
L 345.915201 -99.717916 
L 345.119256 -98.7704 
L 344.323311 -97.87509 
L 343.527367 -97.090056 
L 342.731422 -96.553003 
L 341.935477 -96.444602 
L 341.139533 -96.904602 
L 340.343588 -97.942893 
L 339.547643 -99.392813 
L 338.751699 -100.932553 
L 337.955754 -102.168657 
L 337.159809 -102.754382 
L 336.363865 -102.509494 
L 335.56792 -101.504763 
L 334.771975 -100.070355 
L 333.976031 -98.702046 
L 333.180086 -97.884466 
L 332.384141 -97.900457 
L 331.588197 -98.71096 
L 330.792252 -99.958494 
L 329.996307 -101.09331 
L 329.200363 -101.577738 
L 328.404418 -101.100031 
L 327.608473 -99.717893 
L 326.812528 -97.862687 
L 326.016584 -96.185974 
L 325.220639 -95.30687 
L 324.424694 -95.572183 
L 323.62875 -96.929748 
L 322.832805 -98.95241 
L 322.03686 -100.987623 
L 321.240916 -102.375716 
L 320.444971 -102.669317 
L 319.649026 -101.783472 
L 318.853082 -100.018317 
L 318.057137 -97.939578 
L 317.261192 -96.164475 
L 316.465248 -95.143815 
L 315.669303 -95.028266 
L 314.873358 -95.664352 
L 314.077414 -96.709634 
L 313.281469 -97.809392 
L 312.485524 -98.752587 
L 311.689579 -99.534585 
L 310.893635 -100.30047 
L 310.09769 -101.206629 
L 309.301745 -102.281648 
L 308.505801 -103.361379 
L 307.709856 -104.127584 
L 306.913911 -104.231404 
L 306.117967 -103.452734 
L 305.322022 -101.831786 
L 304.526077 -99.710057 
L 303.730133 -97.645756 
L 302.934188 -96.223831 
L 302.138243 -95.836642 
L 301.342299 -96.531538 
L 300.546354 -97.991366 
L 299.750409 -99.654287 
L 298.954465 -100.923408 
L 298.15852 -101.385035 
L 297.362575 -100.952462 
L 296.56663 -99.880666 
L 295.770686 -98.648348 
L 294.974741 -97.757763 
L 294.178796 -97.535137 
L 293.382852 -98.0115 
L 292.586907 -98.929258 
L 291.790962 -99.868694 
L 290.995018 -100.43871 
L 290.199073 -100.446605 
L 289.403128 -99.9695 
L 288.607184 -99.296964 
L 287.811239 -98.778171 
L 287.015294 -98.651619 
L 286.21935 -98.937073 
L 285.423405 -99.433138 
L 284.62746 -99.814047 
L 283.831516 -99.778948 
L 283.035571 -99.188624 
L 282.239626 -98.131859 
L 281.443682 -96.893192 
L 280.647737 -95.834722 
L 279.851792 -95.241193 
L 279.055847 -95.195609 
L 278.259903 -95.544127 
L 277.463958 -95.973479 
L 276.668013 -96.170499 
L 275.872069 -95.986452 
L 275.076124 -95.520768 
L 274.280179 -95.080281 
L 273.484235 -95.036536 
L 272.68829 -95.652975 
L 271.892345 -96.959075 
L 271.096401 -98.71826 
L 270.300456 -100.497351 
L 269.504511 -101.812903 
L 268.708567 -102.303852 
L 267.912622 -101.863236 
L 267.116677 -100.670141 
L 266.320733 -99.105042 
L 265.524788 -97.587531 
L 264.728843 -96.410067 
L 263.932898 -95.637545 
L 263.136954 -95.109713 
L 262.341009 -94.541852 
L 261.545064 -93.681195 
L 260.74912 -92.450331 
L 259.953175 -91.007825 
L 259.15723 -89.692397 
L 258.361286 -88.877451 
L 257.565341 -88.808646 
L 256.769396 -89.497702 
L 255.973452 -90.709667 
L 255.177507 -92.040366 
L 254.381562 -93.053626 
L 253.585618 -93.432791 
L 252.789673 -93.094059 
L 251.993728 -92.21535 
L 251.197784 -91.162997 
L 250.401839 -90.344055 
L 249.605894 -90.047362 
L 248.80995 -90.338201 
L 248.014005 -91.043576 
L 247.21806 -91.828379 
L 246.422115 -92.331255 
L 245.626171 -92.307719 
L 244.830226 -91.723005 
L 244.034281 -90.755827 
L 243.238337 -89.714583 
L 242.442392 -88.909735 
L 241.646447 -88.543079 
L 240.850503 -88.656849 
L 240.054558 -89.150981 
L 239.258613 -89.848955 
L 238.462669 -90.579455 
L 237.666724 -91.240738 
L 236.870779 -91.823735 
L 236.074835 -92.385906 
L 235.27889 -92.988015 
L 234.482945 -93.62497 
L 233.687001 -94.19021 
L 232.891056 -94.501228 
L 232.095111 -94.382505 
L 231.299166 -93.767989 
L 230.503222 -92.77084 
L 229.707277 -91.683235 
L 228.911332 -90.902379 
L 228.115388 -90.808665 
L 227.319443 -91.636037 
L 226.523498 -93.377143 
L 225.727554 -95.762426 
L 224.931609 -98.335444 
L 224.135664 -100.607883 
L 223.33972 -102.232505 
L 222.543775 -103.116666 
L 221.74783 -103.42881 
L 220.951886 -103.502446 
L 220.155941 -103.683739 
L 219.359996 -104.185127 
L 218.564052 -105.001266 
L 217.768107 -105.91984 
L 216.972162 -106.621309 
L 216.176218 -106.821962 
L 215.380273 -106.39666 
L 214.584328 -105.43298 
L 213.788383 -104.203042 
L 212.992439 -103.069005 
L 212.196494 -102.355845 
L 211.400549 -102.237753 
L 210.604605 -102.68635 
L 209.80866 -103.503369 
L 209.012715 -104.413519 
L 208.216771 -105.162214 
L 207.420826 -105.576951 
L 206.624881 -105.592133 
L 205.828937 -105.254777 
L 205.032992 -104.709745 
L 204.237047 -104.151562 
L 203.441103 -103.752598 
L 202.645158 -103.606526 
L 201.849213 -103.722529 
L 201.053269 -104.064837 
L 200.257324 -104.594734 
L 199.461379 -105.27943 
L 198.665434 -106.072372 
L 197.86949 -106.896303 
L 197.073545 -107.649655 
L 196.2776 -108.230228 
L 195.481656 -108.559835 
L 194.685711 -108.602042 
L 193.889766 -108.373061 
L 193.093822 -107.94298 
L 192.297877 -107.419308 
L 191.501932 -106.910449 
L 190.705988 -106.48202 
L 189.910043 -106.128961 
L 189.114098 -105.780078 
L 188.318154 -105.332509 
L 187.522209 -104.696056 
L 186.726264 -103.824865 
L 185.93032 -102.72805 
L 185.134375 -101.46809 
L 184.33843 -100.156742 
L 183.542485 -98.942705 
L 182.746541 -97.978467 
L 181.950596 -97.370604 
L 181.154651 -97.139999 
L 180.358707 -97.217219 
L 179.562762 -97.47163 
L 178.766817 -97.751625 
L 177.970873 -97.920174 
L 177.174928 -97.888909 
L 176.378983 -97.654623 
L 175.583039 -97.321243 
L 174.787094 -97.078937 
L 173.991149 -97.134564 
L 173.195205 -97.627876 
L 172.39926 -98.581771 
L 171.603315 -99.904807 
L 170.807371 -101.42697 
L 170.011426 -102.944641 
L 169.215481 -104.268278 
L 168.419537 -105.273162 
L 167.623592 -105.938653 
L 166.827647 -106.348056 
L 166.031702 -106.636542 
L 165.235758 -106.912129 
L 164.439813 -107.198351 
L 163.643868 -107.43169 
L 162.847924 -107.507838 
L 162.051979 -107.345107 
L 161.256034 -106.934898 
L 160.46009 -106.364668 
L 159.664145 -105.809658 
L 158.8682 -105.490919 
L 158.072256 -105.601924 
L 157.276311 -106.224575 
L 156.480366 -107.274439 
L 155.684422 -108.510605 
L 154.888477 -109.611978 
L 154.092532 -110.28401 
L 153.296588 -110.349286 
L 152.500643 -109.794943 
L 151.704698 -108.773086 
L 150.908753 -107.556815 
L 150.112809 -106.455107 
L 149.316864 -105.705229 
L 148.520919 -105.387772 
L 147.724975 -105.414376 
L 146.92903 -105.597672 
L 146.133085 -105.755891 
L 145.337141 -105.787618 
L 144.541196 -105.686827 
L 143.745251 -105.516303 
L 142.949307 -105.373672 
L 142.153362 -105.361756 
L 141.357417 -105.555405 
L 140.561473 -105.968614 
L 139.765528 -106.544782 
L 138.969583 -107.185693 
L 138.173639 -107.804002 
L 137.377694 -108.363238 
L 136.581749 -108.880294 
L 135.785805 -109.396492 
L 134.98986 -109.946711 
L 134.193915 -110.551238 
L 133.39797 -111.228395 
L 132.602026 -112.006754 
L 131.806081 -112.919666 
L 131.010136 -113.981047 
L 130.214192 -115.154697 
L 129.418247 -116.333749 
L 128.622302 -117.34335 
L 127.826358 -117.972326 
L 127.030413 -118.030685 
L 126.234468 -117.419927 
L 125.438524 -116.193834 
L 124.642579 -114.583078 
L 123.846634 -112.962617 
L 123.05069 -111.759848 
L 122.254745 -111.329167 
L 121.4588 -111.839639 
L 120.662856 -113.219143 
L 119.866911 -115.17076 
L 119.070966 -117.248409 
L 118.275021 -118.968551 
L 117.479077 -119.935998 
L 116.683132 -119.955045 
L 115.887187 -119.084777 
L 115.091243 -117.60544 
L 114.295298 -115.902623 
L 113.499353 -114.325562 
L 112.703409 -113.091479 
L 111.907464 -112.266001 
L 111.111519 -111.793261 
L 110.315575 -111.539342 
L 109.51963 -111.342323 
L 108.723685 -111.075829 
L 107.927741 -110.708385 
L 107.131796 -110.319184 
L 106.335851 -110.0504 
L 105.539907 -110.021129 
L 104.743962 -110.257909 
L 103.948017 -110.681587 
L 103.152073 -111.142922 
L 102.356128 -111.472626 
L 101.560183 -111.524125 
L 100.764238 -111.206072 
L 99.968294 -110.502338 
L 99.172349 -109.471305 
L 98.376404 -108.223456 
L 97.58046 -106.893724 
L 96.784515 -105.628057 
L 95.98857 -104.58326 
L 95.192626 -103.919926 
L 94.396681 -103.771359 
L 93.600736 -104.193025 
L 92.804792 -105.122427 
L 92.008847 -106.384637 
L 91.212902 -107.747925 
L 90.416958 -108.996043 
L 89.621013 -109.978703 
L 88.825068 -110.624747 
L 88.029124 -110.927806 
L 87.233179 -110.925239 
L 86.437234 -110.682077 
L 85.641289 -110.277083 
L 84.845345 -109.787659 
L 84.0494 -109.278285 
L 83.253455 -108.794345 
L 82.457511 -108.353194 
L 81.661566 -107.932227 
L 80.865621 -107.481136 
L 80.069677 -106.977583 
L 79.273732 -106.4891 
L 78.477787 -106.183273 
L 77.681843 -106.26876 
L 76.885898 -106.898344 
L 76.089953 -108.087879 
L 75.294009 -109.688963 
L 74.498064 -111.415348 
L 73.702119 -112.906585 
L 72.906175 -113.821173 
L 72.11023 -113.9463 
L 71.314285 -113.28203 
L 70.51834 -112.045616 
L 69.722396 -110.582343 
L 68.926451 -109.239063 
L 68.130506 -108.27372 
L 67.334562 -107.815801 
L 66.538617 -107.850851 
L 65.742672 -108.224432 
L 64.946728 -108.697827 
L 64.150783 -109.069693 
L 63.354838 -109.298917 
L 62.558894 -109.526289 
L 61.762949 -109.960834 
L 60.967004 -110.716091 
L 60.17106 -111.726558 
L 59.375115 -112.778914 
L 58.57917 -113.588773 
L 57.783226 -113.857053 
L 56.987281 -113.325688 
L 56.191336 -111.907609 
L 55.395392 -109.84289 
L 54.599447 -107.707718 
L 53.803502 -106.200595 
L 53.007557 -105.82981 
L 52.211613 -106.726717 
L 51.415668 -108.672401 
L 50.619723 -111.22482 
L 49.823779 -113.818314 
L 49.027834 -115.846478 
L 48.231889 -116.84511 
L 47.435945 -116.72865 
L 46.64 -115.857206 
z
" style="stroke: #377eb8; stroke-opacity: 0.3"/>
    </defs>
    <g clip-path="url(#p278375fdf9)">
     <use xlink:href="#m7796918745" x="0" y="360" style="fill: #377eb8; fill-opacity: 0.3; stroke: #377eb8; stroke-opacity: 0.3"/>
    </g>
   </g>
   <g id="patch_3">
    <path d="M 229.866466 318.04 
L 229.866466 71.732 
L 331.747385 71.732 
L 331.747385 318.04 
z
" clip-path="url(#p278375fdf9)" style="fill: #808080; opacity: 0.3"/>
   </g>
   <g id="matplotlib.axis_1">
    <g id="xtick_1">
     <g id="line2d_1">
      <defs>
       <path id="m972caec7a7" d="M 0 0 
L 0 3.5 
" style="stroke: #000000; stroke-width: 0.8"/>
      </defs>
      <g>
       <use xlink:href="#m972caec7a7" x="87.233179" y="318.04" style="stroke: #000000; stroke-width: 0.8"/>
      </g>
     </g>
     <g id="text_1">
      <!-- 0.0 -->
      <g transform="translate(79.281616 332.638438)scale(0.1 -0.1)">
       <defs>
        <path id="DejaVuSans-30" d="M 2034 4250 
Q 1547 4250 1301 3770 
Q 1056 3291 1056 2328 
Q 1056 1369 1301 889 
Q 1547 409 2034 409 
Q 2525 409 2770 889 
Q 3016 1369 3016 2328 
Q 3016 3291 2770 3770 
Q 2525 4250 2034 4250 
z
M 2034 4750 
Q 2819 4750 3233 4129 
Q 3647 3509 3647 2328 
Q 3647 1150 3233 529 
Q 2819 -91 2034 -91 
Q 1250 -91 836 529 
Q 422 1150 422 2328 
Q 422 3509 836 4129 
Q 1250 4750 2034 4750 
z
" transform="scale(0.015625)"/>
        <path id="DejaVuSans-2e" d="M 684 794 
L 1344 794 
L 1344 0 
L 684 0 
L 684 794 
z
" transform="scale(0.015625)"/>
       </defs>
       <use xlink:href="#DejaVuSans-30"/>
       <use xlink:href="#DejaVuSans-2e" x="63.623047"/>
       <use xlink:href="#DejaVuSans-30" x="95.410156"/>
      </g>
     </g>
    </g>
    <g id="xtick_2">
     <g id="line2d_2">
      <g>
       <use xlink:href="#m972caec7a7" x="168.737914" y="318.04" style="stroke: #000000; stroke-width: 0.8"/>
      </g>
     </g>
     <g id="text_2">
      <!-- 0.2 -->
      <g transform="translate(160.786352 332.638438)scale(0.1 -0.1)">
       <defs>
        <path id="DejaVuSans-32" d="M 1228 531 
L 3431 531 
L 3431 0 
L 469 0 
L 469 531 
Q 828 903 1448 1529 
Q 2069 2156 2228 2338 
Q 2531 2678 2651 2914 
Q 2772 3150 2772 3378 
Q 2772 3750 2511 3984 
Q 2250 4219 1831 4219 
Q 1534 4219 1204 4116 
Q 875 4013 500 3803 
L 500 4441 
Q 881 4594 1212 4672 
Q 1544 4750 1819 4750 
Q 2544 4750 2975 4387 
Q 3406 4025 3406 3419 
Q 3406 3131 3298 2873 
Q 3191 2616 2906 2266 
Q 2828 2175 2409 1742 
Q 1991 1309 1228 531 
z
" transform="scale(0.015625)"/>
       </defs>
       <use xlink:href="#DejaVuSans-30"/>
       <use xlink:href="#DejaVuSans-2e" x="63.623047"/>
       <use xlink:href="#DejaVuSans-32" x="95.410156"/>
      </g>
     </g>
    </g>
    <g id="xtick_3">
     <g id="line2d_3">
      <g>
       <use xlink:href="#m972caec7a7" x="250.24265" y="318.04" style="stroke: #000000; stroke-width: 0.8"/>
      </g>
     </g>
     <g id="text_3">
      <!-- 0.4 -->
      <g transform="translate(242.291087 332.638438)scale(0.1 -0.1)">
       <defs>
        <path id="DejaVuSans-34" d="M 2419 4116 
L 825 1625 
L 2419 1625 
L 2419 4116 
z
M 2253 4666 
L 3047 4666 
L 3047 1625 
L 3713 1625 
L 3713 1100 
L 3047 1100 
L 3047 0 
L 2419 0 
L 2419 1100 
L 313 1100 
L 313 1709 
L 2253 4666 
z
" transform="scale(0.015625)"/>
       </defs>
       <use xlink:href="#DejaVuSans-30"/>
       <use xlink:href="#DejaVuSans-2e" x="63.623047"/>
       <use xlink:href="#DejaVuSans-34" x="95.410156"/>
      </g>
     </g>
    </g>
    <g id="xtick_4">
     <g id="line2d_4">
      <g>
       <use xlink:href="#m972caec7a7" x="331.747385" y="318.04" style="stroke: #000000; stroke-width: 0.8"/>
      </g>
     </g>
     <g id="text_4">
      <!-- 0.6 -->
      <g transform="translate(323.795823 332.638438)scale(0.1 -0.1)">
       <defs>
        <path id="DejaVuSans-36" d="M 2113 2584 
Q 1688 2584 1439 2293 
Q 1191 2003 1191 1497 
Q 1191 994 1439 701 
Q 1688 409 2113 409 
Q 2538 409 2786 701 
Q 3034 994 3034 1497 
Q 3034 2003 2786 2293 
Q 2538 2584 2113 2584 
z
M 3366 4563 
L 3366 3988 
Q 3128 4100 2886 4159 
Q 2644 4219 2406 4219 
Q 1781 4219 1451 3797 
Q 1122 3375 1075 2522 
Q 1259 2794 1537 2939 
Q 1816 3084 2150 3084 
Q 2853 3084 3261 2657 
Q 3669 2231 3669 1497 
Q 3669 778 3244 343 
Q 2819 -91 2113 -91 
Q 1303 -91 875 529 
Q 447 1150 447 2328 
Q 447 3434 972 4092 
Q 1497 4750 2381 4750 
Q 2619 4750 2861 4703 
Q 3103 4656 3366 4563 
z
" transform="scale(0.015625)"/>
       </defs>
       <use xlink:href="#DejaVuSans-30"/>
       <use xlink:href="#DejaVuSans-2e" x="63.623047"/>
       <use xlink:href="#DejaVuSans-36" x="95.410156"/>
      </g>
     </g>
    </g>
    <g id="xtick_5">
     <g id="line2d_5">
      <g>
       <use xlink:href="#m972caec7a7" x="413.252121" y="318.04" style="stroke: #000000; stroke-width: 0.8"/>
      </g>
     </g>
     <g id="text_5">
      <!-- 0.8 -->
      <g transform="translate(405.300559 332.638438)scale(0.1 -0.1)">
       <defs>
        <path id="DejaVuSans-38" d="M 2034 2216 
Q 1584 2216 1326 1975 
Q 1069 1734 1069 1313 
Q 1069 891 1326 650 
Q 1584 409 2034 409 
Q 2484 409 2743 651 
Q 3003 894 3003 1313 
Q 3003 1734 2745 1975 
Q 2488 2216 2034 2216 
z
M 1403 2484 
Q 997 2584 770 2862 
Q 544 3141 544 3541 
Q 544 4100 942 4425 
Q 1341 4750 2034 4750 
Q 2731 4750 3128 4425 
Q 3525 4100 3525 3541 
Q 3525 3141 3298 2862 
Q 3072 2584 2669 2484 
Q 3125 2378 3379 2068 
Q 3634 1759 3634 1313 
Q 3634 634 3220 271 
Q 2806 -91 2034 -91 
Q 1263 -91 848 271 
Q 434 634 434 1313 
Q 434 1759 690 2068 
Q 947 2378 1403 2484 
z
M 1172 3481 
Q 1172 3119 1398 2916 
Q 1625 2713 2034 2713 
Q 2441 2713 2670 2916 
Q 2900 3119 2900 3481 
Q 2900 3844 2670 4047 
Q 2441 4250 2034 4250 
Q 1625 4250 1398 4047 
Q 1172 3844 1172 3481 
z
" transform="scale(0.015625)"/>
       </defs>
       <use xlink:href="#DejaVuSans-30"/>
       <use xlink:href="#DejaVuSans-2e" x="63.623047"/>
       <use xlink:href="#DejaVuSans-38" x="95.410156"/>
      </g>
     </g>
    </g>
    <g id="text_6">
     <!-- seconds -->
     <g transform="translate(209.667749 346.316563)scale(0.1 -0.1)">
      <defs>
       <path id="DejaVuSans-73" d="M 2834 3397 
L 2834 2853 
Q 2591 2978 2328 3040 
Q 2066 3103 1784 3103 
Q 1356 3103 1142 2972 
Q 928 2841 928 2578 
Q 928 2378 1081 2264 
Q 1234 2150 1697 2047 
L 1894 2003 
Q 2506 1872 2764 1633 
Q 3022 1394 3022 966 
Q 3022 478 2636 193 
Q 2250 -91 1575 -91 
Q 1294 -91 989 -36 
Q 684 19 347 128 
L 347 722 
Q 666 556 975 473 
Q 1284 391 1588 391 
Q 1994 391 2212 530 
Q 2431 669 2431 922 
Q 2431 1156 2273 1281 
Q 2116 1406 1581 1522 
L 1381 1569 
Q 847 1681 609 1914 
Q 372 2147 372 2553 
Q 372 3047 722 3315 
Q 1072 3584 1716 3584 
Q 2034 3584 2315 3537 
Q 2597 3491 2834 3397 
z
" transform="scale(0.015625)"/>
       <path id="DejaVuSans-65" d="M 3597 1894 
L 3597 1613 
L 953 1613 
Q 991 1019 1311 708 
Q 1631 397 2203 397 
Q 2534 397 2845 478 
Q 3156 559 3463 722 
L 3463 178 
Q 3153 47 2828 -22 
Q 2503 -91 2169 -91 
Q 1331 -91 842 396 
Q 353 884 353 1716 
Q 353 2575 817 3079 
Q 1281 3584 2069 3584 
Q 2775 3584 3186 3129 
Q 3597 2675 3597 1894 
z
M 3022 2063 
Q 3016 2534 2758 2815 
Q 2500 3097 2075 3097 
Q 1594 3097 1305 2825 
Q 1016 2553 972 2059 
L 3022 2063 
z
" transform="scale(0.015625)"/>
       <path id="DejaVuSans-63" d="M 3122 3366 
L 3122 2828 
Q 2878 2963 2633 3030 
Q 2388 3097 2138 3097 
Q 1578 3097 1268 2742 
Q 959 2388 959 1747 
Q 959 1106 1268 751 
Q 1578 397 2138 397 
Q 2388 397 2633 464 
Q 2878 531 3122 666 
L 3122 134 
Q 2881 22 2623 -34 
Q 2366 -91 2075 -91 
Q 1284 -91 818 406 
Q 353 903 353 1747 
Q 353 2603 823 3093 
Q 1294 3584 2113 3584 
Q 2378 3584 2631 3529 
Q 2884 3475 3122 3366 
z
" transform="scale(0.015625)"/>
       <path id="DejaVuSans-6f" d="M 1959 3097 
Q 1497 3097 1228 2736 
Q 959 2375 959 1747 
Q 959 1119 1226 758 
Q 1494 397 1959 397 
Q 2419 397 2687 759 
Q 2956 1122 2956 1747 
Q 2956 2369 2687 2733 
Q 2419 3097 1959 3097 
z
M 1959 3584 
Q 2709 3584 3137 3096 
Q 3566 2609 3566 1747 
Q 3566 888 3137 398 
Q 2709 -91 1959 -91 
Q 1206 -91 779 398 
Q 353 888 353 1747 
Q 353 2609 779 3096 
Q 1206 3584 1959 3584 
z
" transform="scale(0.015625)"/>
       <path id="DejaVuSans-6e" d="M 3513 2113 
L 3513 0 
L 2938 0 
L 2938 2094 
Q 2938 2591 2744 2837 
Q 2550 3084 2163 3084 
Q 1697 3084 1428 2787 
Q 1159 2491 1159 1978 
L 1159 0 
L 581 0 
L 581 3500 
L 1159 3500 
L 1159 2956 
Q 1366 3272 1645 3428 
Q 1925 3584 2291 3584 
Q 2894 3584 3203 3211 
Q 3513 2838 3513 2113 
z
" transform="scale(0.015625)"/>
       <path id="DejaVuSans-64" d="M 2906 2969 
L 2906 4863 
L 3481 4863 
L 3481 0 
L 2906 0 
L 2906 525 
Q 2725 213 2448 61 
Q 2172 -91 1784 -91 
Q 1150 -91 751 415 
Q 353 922 353 1747 
Q 353 2572 751 3078 
Q 1150 3584 1784 3584 
Q 2172 3584 2448 3432 
Q 2725 3281 2906 2969 
z
M 947 1747 
Q 947 1113 1208 752 
Q 1469 391 1925 391 
Q 2381 391 2643 752 
Q 2906 1113 2906 1747 
Q 2906 2381 2643 2742 
Q 2381 3103 1925 3103 
Q 1469 3103 1208 2742 
Q 947 2381 947 1747 
z
" transform="scale(0.015625)"/>
      </defs>
      <use xlink:href="#DejaVuSans-73"/>
      <use xlink:href="#DejaVuSans-65" x="52.099609"/>
      <use xlink:href="#DejaVuSans-63" x="113.623047"/>
      <use xlink:href="#DejaVuSans-6f" x="168.603516"/>
      <use xlink:href="#DejaVuSans-6e" x="229.785156"/>
      <use xlink:href="#DejaVuSans-64" x="293.164062"/>
      <use xlink:href="#DejaVuSans-73" x="356.640625"/>
     </g>
    </g>
   </g>
   <g id="matplotlib.axis_2">
    <g id="ytick_1">
     <g id="line2d_6">
      <defs>
       <path id="m4e28b4f72c" d="M 0 0 
L -3.5 0 
" style="stroke: #000000; stroke-width: 0.8"/>
      </defs>
      <g>
       <use xlink:href="#m4e28b4f72c" x="46.64" y="315.442575" style="stroke: #000000; stroke-width: 0.8"/>
      </g>
     </g>
     <g id="text_7">
      <!-- 2 -->
      <g transform="translate(24.897813 319.241794)scale(0.1 -0.1)">
       <defs>
        <path id="DejaVuSans-2212" d="M 678 2272 
L 4684 2272 
L 4684 1741 
L 678 1741 
L 678 2272 
z
" transform="scale(0.015625)"/>
       </defs>
       <use xlink:href="#DejaVuSans-2212"/>
       <use xlink:href="#DejaVuSans-32" x="83.789062"/>
      </g>
     </g>
    </g>
    <g id="ytick_2">
     <g id="line2d_7">
      <g>
       <use xlink:href="#m4e28b4f72c" x="46.64" y="286.071253" style="stroke: #000000; stroke-width: 0.8"/>
      </g>
     </g>
     <g id="text_8">
      <!-- 1 -->
      <g transform="translate(24.897813 289.870472)scale(0.1 -0.1)">
       <defs>
        <path id="DejaVuSans-31" d="M 794 531 
L 1825 531 
L 1825 4091 
L 703 3866 
L 703 4441 
L 1819 4666 
L 2450 4666 
L 2450 531 
L 3481 531 
L 3481 0 
L 794 0 
L 794 531 
z
" transform="scale(0.015625)"/>
       </defs>
       <use xlink:href="#DejaVuSans-2212"/>
       <use xlink:href="#DejaVuSans-31" x="83.789062"/>
      </g>
     </g>
    </g>
    <g id="ytick_3">
     <g id="line2d_8">
      <g>
       <use xlink:href="#m4e28b4f72c" x="46.64" y="256.699932" style="stroke: #000000; stroke-width: 0.8"/>
      </g>
     </g>
     <g id="text_9">
      <!-- 0 -->
      <g transform="translate(33.2775 260.49915)scale(0.1 -0.1)">
       <use xlink:href="#DejaVuSans-30"/>
      </g>
     </g>
    </g>
    <g id="ytick_4">
     <g id="line2d_9">
      <g>
       <use xlink:href="#m4e28b4f72c" x="46.64" y="227.32861" style="stroke: #000000; stroke-width: 0.8"/>
      </g>
     </g>
     <g id="text_10">
      <!-- 1 -->
      <g transform="translate(33.2775 231.127829)scale(0.1 -0.1)">
       <use xlink:href="#DejaVuSans-31"/>
      </g>
     </g>
    </g>
    <g id="ytick_5">
     <g id="line2d_10">
      <g>
       <use xlink:href="#m4e28b4f72c" x="46.64" y="197.957288" style="stroke: #000000; stroke-width: 0.8"/>
      </g>
     </g>
     <g id="text_11">
      <!-- 2 -->
      <g transform="translate(33.2775 201.756507)scale(0.1 -0.1)">
       <use xlink:href="#DejaVuSans-32"/>
      </g>
     </g>
    </g>
    <g id="ytick_6">
     <g id="line2d_11">
      <g>
       <use xlink:href="#m4e28b4f72c" x="46.64" y="168.585966" style="stroke: #000000; stroke-width: 0.8"/>
      </g>
     </g>
     <g id="text_12">
      <!-- 3 -->
      <g transform="translate(33.2775 172.385185)scale(0.1 -0.1)">
       <defs>
        <path id="DejaVuSans-33" d="M 2597 2516 
Q 3050 2419 3304 2112 
Q 3559 1806 3559 1356 
Q 3559 666 3084 287 
Q 2609 -91 1734 -91 
Q 1441 -91 1130 -33 
Q 819 25 488 141 
L 488 750 
Q 750 597 1062 519 
Q 1375 441 1716 441 
Q 2309 441 2620 675 
Q 2931 909 2931 1356 
Q 2931 1769 2642 2001 
Q 2353 2234 1838 2234 
L 1294 2234 
L 1294 2753 
L 1863 2753 
Q 2328 2753 2575 2939 
Q 2822 3125 2822 3475 
Q 2822 3834 2567 4026 
Q 2313 4219 1838 4219 
Q 1578 4219 1281 4162 
Q 984 4106 628 3988 
L 628 4550 
Q 988 4650 1302 4700 
Q 1616 4750 1894 4750 
Q 2613 4750 3031 4423 
Q 3450 4097 3450 3541 
Q 3450 3153 3228 2886 
Q 3006 2619 2597 2516 
z
" transform="scale(0.015625)"/>
       </defs>
       <use xlink:href="#DejaVuSans-33"/>
      </g>
     </g>
    </g>
    <g id="ytick_7">
     <g id="line2d_12">
      <g>
       <use xlink:href="#m4e28b4f72c" x="46.64" y="139.214644" style="stroke: #000000; stroke-width: 0.8"/>
      </g>
     </g>
     <g id="text_13">
      <!-- 4 -->
      <g transform="translate(33.2775 143.013863)scale(0.1 -0.1)">
       <use xlink:href="#DejaVuSans-34"/>
      </g>
     </g>
    </g>
    <g id="ytick_8">
     <g id="line2d_13">
      <g>
       <use xlink:href="#m4e28b4f72c" x="46.64" y="109.843323" style="stroke: #000000; stroke-width: 0.8"/>
      </g>
     </g>
     <g id="text_14">
      <!-- 5 -->
      <g transform="translate(33.2775 113.642541)scale(0.1 -0.1)">
       <defs>
        <path id="DejaVuSans-35" d="M 691 4666 
L 3169 4666 
L 3169 4134 
L 1269 4134 
L 1269 2991 
Q 1406 3038 1543 3061 
Q 1681 3084 1819 3084 
Q 2600 3084 3056 2656 
Q 3513 2228 3513 1497 
Q 3513 744 3044 326 
Q 2575 -91 1722 -91 
Q 1428 -91 1123 -41 
Q 819 9 494 109 
L 494 744 
Q 775 591 1075 516 
Q 1375 441 1709 441 
Q 2250 441 2565 725 
Q 2881 1009 2881 1497 
Q 2881 1984 2565 2268 
Q 2250 2553 1709 2553 
Q 1456 2553 1204 2497 
Q 953 2441 691 2322 
L 691 4666 
z
" transform="scale(0.015625)"/>
       </defs>
       <use xlink:href="#DejaVuSans-35"/>
      </g>
     </g>
    </g>
    <g id="ytick_9">
     <g id="line2d_14">
      <g>
       <use xlink:href="#m4e28b4f72c" x="46.64" y="80.472001" style="stroke: #000000; stroke-width: 0.8"/>
      </g>
     </g>
     <g id="text_15">
      <!-- 6 -->
      <g transform="translate(33.2775 84.27122)scale(0.1 -0.1)">
       <use xlink:href="#DejaVuSans-36"/>
      </g>
     </g>
    </g>
    <g id="text_16">
     <!-- V -->
     <g transform="translate(18.818125 201.487562)rotate(-90)scale(0.1 -0.1)">
      <defs>
       <path id="DejaVuSans-b5" d="M 544 -1331 
L 544 3500 
L 1119 3500 
L 1119 1325 
Q 1119 872 1334 640 
Q 1550 409 1972 409 
Q 2434 409 2667 671 
Q 2900 934 2900 1459 
L 2900 3500 
L 3475 3500 
L 3475 806 
Q 3475 619 3529 530 
Q 3584 441 3700 441 
Q 3728 441 3778 458 
Q 3828 475 3916 513 
L 3916 50 
Q 3788 -22 3673 -56 
Q 3559 -91 3450 -91 
Q 3234 -91 3106 31 
Q 2978 153 2931 403 
Q 2775 156 2548 32 
Q 2322 -91 2016 -91 
Q 1697 -91 1473 31 
Q 1250 153 1119 397 
L 1119 -1331 
L 544 -1331 
z
" transform="scale(0.015625)"/>
       <path id="DejaVuSans-56" d="M 1831 0 
L 50 4666 
L 709 4666 
L 2188 738 
L 3669 4666 
L 4325 4666 
L 2547 0 
L 1831 0 
z
" transform="scale(0.015625)"/>
      </defs>
      <use xlink:href="#DejaVuSans-b5"/>
      <use xlink:href="#DejaVuSans-56" x="63.623047"/>
     </g>
    </g>
   </g>
   <g id="line2d_15">
    <path d="M 46.64 262.13576 
L 47.435945 259.948918 
L 49.027834 254.517109 
L 49.823779 252.534972 
L 50.619723 251.775711 
L 51.415668 252.307651 
L 53.007557 255.207662 
L 53.803502 256.013494 
L 54.599447 255.610751 
L 55.395392 253.979378 
L 56.987281 249.255503 
L 57.783226 247.740449 
L 58.57917 247.559789 
L 59.375115 248.7806 
L 60.17106 251.061373 
L 61.762949 256.570292 
L 62.558894 258.929894 
L 63.354838 260.857847 
L 64.946728 263.898662 
L 65.742672 265.09816 
L 66.538617 265.825841 
L 67.334562 265.716315 
L 68.130506 264.483454 
L 68.926451 262.131093 
L 70.51834 256.028962 
L 71.314285 253.876146 
L 72.11023 253.244701 
L 72.906175 254.2838 
L 75.294009 260.943154 
L 76.089953 261.224297 
L 76.885898 259.75434 
L 79.273732 251.905514 
L 80.069677 251.539551 
L 80.865621 253.125867 
L 83.253455 261.934447 
L 84.0494 262.58341 
L 84.845345 261.169322 
L 85.641289 258.18114 
L 86.437234 254.658416 
L 87.233179 251.792718 
L 88.029124 250.48448 
L 88.825068 251.025224 
L 89.621013 253.019903 
L 90.416958 255.566273 
L 91.212902 257.607816 
L 92.008847 258.315254 
L 92.804792 257.352037 
L 93.600736 254.936274 
L 95.192626 248.414831 
L 95.98857 245.73611 
L 96.784515 244.019336 
L 97.58046 243.310179 
L 98.376404 243.453121 
L 99.172349 244.252118 
L 99.968294 245.591407 
L 100.764238 247.45727 
L 101.560183 249.859261 
L 103.948017 258.355462 
L 104.743962 260.103243 
L 105.539907 260.477671 
L 106.335851 259.300081 
L 107.131796 256.765592 
L 109.51963 246.719503 
L 110.315575 244.334971 
L 111.111519 242.697344 
L 111.907464 241.569705 
L 113.499353 239.828563 
L 114.295298 239.188305 
L 115.091243 239.092286 
L 115.887187 239.960038 
L 116.683132 242.045812 
L 117.479077 245.24371 
L 119.070966 252.555272 
L 119.866911 254.944059 
L 120.662856 255.56229 
L 121.4588 254.278643 
L 122.254745 251.534904 
L 123.05069 248.220735 
L 123.846634 245.390208 
L 124.642579 243.9208 
L 125.438524 244.236713 
L 126.234468 246.192605 
L 127.826358 252.222553 
L 128.622302 254.55615 
L 129.418247 255.606106 
L 130.214192 255.259632 
L 131.010136 253.817063 
L 132.602026 249.9743 
L 133.39797 248.705623 
L 134.193915 248.301799 
L 134.98986 248.763587 
L 135.785805 249.885332 
L 137.377694 252.821673 
L 138.173639 254.025802 
L 138.969583 254.787065 
L 139.765528 255.055524 
L 140.561473 254.913173 
L 142.153362 254.307858 
L 142.949307 254.46222 
L 143.745251 255.279332 
L 144.541196 256.835999 
L 146.92903 263.077346 
L 147.724975 263.909839 
L 148.520919 263.36327 
L 149.316864 261.430214 
L 151.704698 252.727157 
L 152.500643 251.305712 
L 153.296588 251.292667 
L 154.092532 252.386323 
L 154.888477 253.854845 
L 155.684422 254.785916 
L 156.480366 254.413374 
L 157.276311 252.401574 
L 158.072256 248.981523 
L 159.664145 241.114761 
L 160.46009 238.597073 
L 161.256034 237.911106 
L 162.051979 239.124171 
L 162.847924 241.823113 
L 165.235758 251.868007 
L 166.031702 254.204717 
L 166.827647 255.903971 
L 167.623592 257.172465 
L 168.419537 258.188716 
L 169.215481 258.991355 
L 170.011426 259.473636 
L 170.807371 259.475432 
L 171.603315 258.914843 
L 172.39926 257.881944 
L 173.991149 255.495461 
L 174.787094 254.675744 
L 176.378983 253.616236 
L 177.174928 252.611798 
L 177.970873 250.723083 
L 178.766817 247.822195 
L 180.358707 240.576119 
L 181.154651 237.808051 
L 181.950596 236.646341 
L 182.746541 237.384794 
L 183.542485 239.703291 
L 184.33843 242.727424 
L 185.134375 245.304879 
L 185.93032 246.40145 
L 186.726264 245.466734 
L 187.522209 242.627758 
L 189.114098 234.584152 
L 189.910043 231.519092 
L 190.705988 230.077784 
L 191.501932 230.307389 
L 192.297877 231.714782 
L 193.093822 233.51769 
L 193.889766 234.984466 
L 194.685711 235.719293 
L 195.481656 235.780399 
L 196.2776 235.595777 
L 197.073545 235.727085 
L 197.86949 236.592202 
L 198.665434 238.267979 
L 200.257324 242.60447 
L 201.053269 244.163093 
L 201.849213 244.792586 
L 202.645158 244.49859 
L 205.032992 241.716142 
L 205.828937 241.237534 
L 206.624881 240.929395 
L 207.420826 240.410264 
L 208.216771 239.29375 
L 209.012715 237.396894 
L 211.400549 229.851837 
L 212.196494 228.490553 
L 212.992439 228.284358 
L 213.788383 229.059901 
L 215.380273 231.402742 
L 216.176218 231.808363 
L 216.972162 231.326221 
L 217.768107 230.143272 
L 218.564052 228.746808 
L 219.359996 227.710953 
L 220.155941 227.447627 
L 220.951886 228.026276 
L 222.543775 230.227518 
L 223.33972 230.722166 
L 224.135664 230.292791 
L 224.931609 229.006685 
L 225.727554 227.322665 
L 226.523498 225.918248 
L 227.319443 225.415936 
L 228.115388 226.119128 
L 228.911332 227.868597 
L 230.503222 231.981939 
L 231.299166 232.885114 
L 232.095111 232.506044 
L 232.891056 231.081181 
L 233.687001 229.296477 
L 234.482945 228.023432 
L 235.27889 227.963519 
L 236.074835 229.338831 
L 237.666724 234.289734 
L 238.462669 235.806102 
L 239.258613 235.340113 
L 240.054558 232.459079 
L 240.850503 227.433802 
L 242.442392 214.917676 
L 243.238337 209.885673 
L 244.034281 206.87017 
L 244.830226 206.056821 
L 245.626171 207.035069 
L 247.21806 211.089624 
L 248.014005 212.607401 
L 248.80995 213.246437 
L 249.605894 213.059562 
L 250.401839 212.333162 
L 254.381562 207.719876 
L 255.973452 205.177496 
L 257.565341 202.709292 
L 259.15723 200.940581 
L 259.953175 200.098348 
L 260.74912 199.093494 
L 263.136954 195.702028 
L 263.932898 195.286054 
L 264.728843 195.624879 
L 265.524788 196.678897 
L 267.116677 199.517046 
L 267.912622 200.259021 
L 268.708567 199.953265 
L 269.504511 198.435994 
L 270.300456 195.827563 
L 271.892345 188.78425 
L 273.484235 181.87433 
L 274.280179 179.027489 
L 275.076124 176.651816 
L 275.872069 174.748085 
L 276.668013 173.340285 
L 277.463958 172.47597 
L 278.259903 172.179785 
L 279.055847 172.387472 
L 280.647737 173.396311 
L 281.443682 173.498503 
L 282.239626 172.894062 
L 283.035571 171.448184 
L 283.831516 169.275998 
L 285.423405 164.353035 
L 286.21935 162.656567 
L 287.015294 162.04199 
L 287.811239 162.638924 
L 288.607184 164.261567 
L 290.199073 168.5476 
L 290.995018 169.925797 
L 291.790962 170.079573 
L 292.586907 168.787139 
L 293.382852 166.162244 
L 295.770686 155.520107 
L 296.56663 153.283343 
L 297.362575 152.54089 
L 298.15852 153.400355 
L 298.954465 155.674135 
L 299.750409 158.948911 
L 301.342299 166.380978 
L 302.138243 169.564247 
L 302.934188 171.941715 
L 303.730133 173.362366 
L 304.526077 173.817779 
L 305.322022 173.428932 
L 306.117967 172.436486 
L 307.709856 170.090671 
L 308.505801 169.558445 
L 309.301745 169.888114 
L 310.09769 171.161829 
L 312.485524 177.35349 
L 313.281469 178.246835 
L 314.077414 177.737504 
L 314.873358 175.804867 
L 317.261192 166.569109 
L 318.057137 164.60293 
L 318.853082 163.834262 
L 319.649026 164.103385 
L 322.03686 166.789771 
L 323.62875 168.059586 
L 324.424694 169.166408 
L 325.220639 170.987828 
L 327.608473 178.886046 
L 328.404418 180.537382 
L 329.200363 180.923412 
L 329.996307 180.085021 
L 331.588197 176.768301 
L 332.384141 175.653426 
L 333.180086 175.54165 
L 333.976031 176.467679 
L 334.771975 178.124232 
L 336.363865 181.797799 
L 337.159809 183.22141 
L 338.751699 185.579497 
L 339.547643 186.990393 
L 341.139533 190.277385 
L 341.935477 191.408001 
L 342.731422 191.542799 
L 343.527367 190.397499 
L 344.323311 188.05692 
L 345.915201 181.912183 
L 346.711146 179.542757 
L 347.50709 178.368857 
L 348.303035 178.500123 
L 349.09898 179.67614 
L 351.486814 184.74298 
L 353.078703 186.959581 
L 356.262482 190.870191 
L 357.058426 190.715782 
L 357.854371 189.352946 
L 358.650316 186.685401 
L 360.242205 178.814366 
L 361.03815 174.962735 
L 361.834095 172.145778 
L 362.630039 170.846158 
L 363.425984 171.178672 
L 364.221929 172.875771 
L 366.609763 180.156196 
L 367.405707 181.373527 
L 368.201652 181.502068 
L 368.997597 180.621152 
L 369.793541 178.97703 
L 371.385431 174.596141 
L 373.773265 168.080746 
L 375.365154 164.581577 
L 376.161099 163.389445 
L 376.957043 162.813335 
L 377.752988 163.00147 
L 378.548933 163.972095 
L 380.936767 168.94255 
L 381.732712 169.803658 
L 382.528656 169.678333 
L 383.324601 168.606945 
L 384.91649 165.452875 
L 385.712435 164.755658 
L 386.50838 165.455723 
L 387.304324 167.751307 
L 388.100269 171.371671 
L 389.692158 179.587755 
L 390.488103 182.363783 
L 391.284048 183.341459 
L 392.079992 182.347472 
L 392.875937 179.660622 
L 396.059716 164.657167 
L 396.855661 162.209969 
L 397.651605 160.457624 
L 398.44755 159.250223 
L 399.243495 158.476403 
L 400.039439 158.106923 
L 400.835384 158.155519 
L 401.631329 158.585585 
L 403.223218 159.725229 
L 404.019163 159.662898 
L 404.815107 158.651321 
L 405.611052 156.520147 
L 406.406997 153.419082 
L 407.998886 146.32895 
L 408.794831 143.56291 
L 409.590775 141.819427 
L 410.38672 140.98937 
L 411.182665 140.565407 
L 411.97861 139.823535 
L 412.774554 138.107817 
L 413.570499 135.114061 
L 413.570499 135.114061 
" clip-path="url(#p278375fdf9)" style="fill: none; stroke: #e41a1c; stroke-width: 1.5; stroke-linecap: square"/>
   </g>
   <g id="line2d_16">
    <path d="M 46.64 252.374893 
L 47.435945 251.350747 
L 48.231889 251.020453 
L 49.027834 251.728012 
L 49.823779 253.483965 
L 51.415668 258.46935 
L 52.211613 260.407175 
L 53.007557 261.233352 
L 53.803502 260.763154 
L 54.599447 259.196702 
L 56.191336 254.924742 
L 56.987281 253.401635 
L 57.783226 252.774032 
L 58.57917 253.036603 
L 59.375115 253.926548 
L 60.967004 256.082168 
L 61.762949 256.802051 
L 62.558894 257.213252 
L 64.946728 258.036773 
L 66.538617 258.756624 
L 67.334562 258.744136 
L 68.130506 258.234502 
L 68.926451 257.194802 
L 71.314285 253.079572 
L 72.11023 252.498658 
L 72.906175 252.711655 
L 73.702119 253.694484 
L 75.294009 257.010203 
L 76.089953 258.66488 
L 76.885898 259.922143 
L 77.681843 260.634826 
L 78.477787 260.802324 
L 79.273732 260.542151 
L 82.457511 258.521739 
L 84.0494 257.96511 
L 86.437234 257.267006 
L 87.233179 257.17212 
L 88.029124 257.299851 
L 88.825068 257.743217 
L 89.621013 258.547502 
L 90.416958 259.686228 
L 92.804792 263.790616 
L 93.600736 264.771173 
L 94.396681 265.289519 
L 95.192626 265.277355 
L 95.98857 264.750006 
L 96.784515 263.800169 
L 99.968294 259.082642 
L 100.764238 258.47014 
L 101.560183 258.249621 
L 102.356128 258.384217 
L 103.948017 259.267475 
L 104.743962 259.721274 
L 105.539907 260.014684 
L 106.335851 260.091607 
L 107.131796 259.967988 
L 111.111519 258.606419 
L 111.907464 258.096858 
L 112.703409 257.260008 
L 113.499353 256.044738 
L 115.887187 251.609294 
L 116.683132 250.867182 
L 117.479077 250.962146 
L 118.275021 251.952313 
L 119.070966 253.670182 
L 120.662856 257.733871 
L 121.4588 259.173495 
L 122.254745 259.777614 
L 123.05069 259.474992 
L 123.846634 258.425079 
L 125.438524 255.47725 
L 126.234468 254.337136 
L 127.030413 253.769464 
L 127.826358 253.842195 
L 128.622302 254.476485 
L 129.418247 255.499747 
L 131.806081 259.072837 
L 133.39797 260.895691 
L 134.98986 262.255467 
L 137.377694 264.150149 
L 140.561473 266.867072 
L 141.357417 267.254926 
L 142.153362 267.414769 
L 142.949307 267.369838 
L 144.541196 267.046232 
L 145.337141 267.004579 
L 146.133085 267.134323 
L 147.724975 267.655872 
L 148.520919 267.736536 
L 149.316864 267.479404 
L 150.112809 266.820872 
L 152.500643 263.796097 
L 153.296588 263.296113 
L 154.092532 263.394147 
L 154.888477 264.083858 
L 157.276311 267.461726 
L 158.072256 268.094395 
L 158.8682 268.235762 
L 159.664145 267.964584 
L 161.256034 266.982476 
L 162.051979 266.669442 
L 162.847924 266.607012 
L 163.643868 266.76521 
L 166.031702 267.682447 
L 166.827647 268.029699 
L 167.623592 268.513696 
L 168.419537 269.249934 
L 169.215481 270.307084 
L 170.807371 273.195578 
L 172.39926 276.006229 
L 173.195205 276.921891 
L 173.991149 277.399247 
L 174.787094 277.488473 
L 177.970873 276.953343 
L 179.562762 277.438467 
L 180.358707 277.689825 
L 181.154651 277.752832 
L 181.950596 277.508201 
L 182.746541 276.899839 
L 183.542485 275.950829 
L 186.726264 271.207777 
L 187.522209 270.428977 
L 188.318154 269.897913 
L 191.501932 268.488303 
L 193.889766 267.070738 
L 194.685711 266.888599 
L 195.481656 266.995552 
L 196.2776 267.399814 
L 197.073545 268.049916 
L 200.257324 271.278797 
L 201.053269 271.862483 
L 201.849213 272.25316 
L 202.645158 272.408593 
L 203.441103 272.301171 
L 204.237047 271.942366 
L 206.624881 270.424525 
L 207.420826 270.343304 
L 208.216771 270.691666 
L 209.012715 271.432538 
L 210.604605 273.2536 
L 211.400549 273.748725 
L 212.196494 273.666973 
L 212.992439 272.989465 
L 215.380273 269.853312 
L 216.176218 269.527981 
L 216.972162 269.829349 
L 217.768107 270.613274 
L 219.359996 272.425959 
L 220.155941 272.933582 
L 222.543775 273.478614 
L 223.33972 274.340478 
L 224.135664 275.931174 
L 225.727554 280.729825 
L 226.523498 283.149745 
L 227.319443 284.978155 
L 228.115388 285.928999 
L 228.911332 285.968844 
L 229.707277 285.312525 
L 231.299166 283.422314 
L 232.095111 282.866892 
L 232.891056 282.772549 
L 233.687001 283.073079 
L 237.666724 285.811515 
L 239.258613 287.211831 
L 240.054558 287.928869 
L 240.850503 288.427247 
L 241.646447 288.519367 
L 242.442392 288.114393 
L 243.238337 287.282095 
L 244.830226 285.350828 
L 245.626171 284.869747 
L 246.422115 284.961174 
L 247.21806 285.562117 
L 248.80995 287.130893 
L 249.605894 287.397501 
L 250.401839 287.051371 
L 251.197784 286.182592 
L 251.993728 285.105101 
L 252.789673 284.242959 
L 253.585618 283.968094 
L 254.381562 284.452265 
L 255.177507 285.592188 
L 256.769396 288.321558 
L 257.565341 289.017768 
L 258.361286 288.903897 
L 259.15723 288.025767 
L 261.545064 283.980044 
L 262.341009 283.140803 
L 263.932898 282.108023 
L 264.728843 281.368888 
L 265.524788 280.216005 
L 267.912622 275.917512 
L 268.708567 275.449162 
L 269.504511 275.922436 
L 270.300456 277.245454 
L 271.892345 280.883773 
L 272.68829 282.260437 
L 273.484235 282.947979 
L 274.280179 282.976086 
L 275.872069 282.202779 
L 276.668013 282.052565 
L 277.463958 282.24977 
L 279.055847 282.988195 
L 279.851792 282.943077 
L 280.647737 282.367257 
L 281.443682 281.328922 
L 283.035571 279.037769 
L 283.831516 278.434941 
L 284.62746 278.385091 
L 287.015294 279.462163 
L 287.811239 279.294383 
L 290.199073 277.605973 
L 290.995018 277.636088 
L 291.790962 278.22524 
L 293.382852 280.105866 
L 294.178796 280.591583 
L 294.974741 280.375578 
L 295.770686 279.486203 
L 297.362575 277.176023 
L 298.15852 276.747809 
L 298.954465 277.224389 
L 299.750409 278.51712 
L 301.342299 281.688974 
L 302.138243 282.404125 
L 302.934188 282.039388 
L 303.730133 280.644359 
L 305.322022 276.493028 
L 306.117967 274.860495 
L 306.913911 274.053551 
L 307.709856 274.126075 
L 308.505801 274.872781 
L 310.893635 278.067957 
L 313.281469 280.858922 
L 314.873358 282.943914 
L 315.669303 283.491209 
L 316.465248 283.299616 
L 317.261192 282.245266 
L 319.649026 276.768489 
L 320.444971 275.949606 
L 321.240916 276.301685 
L 322.03686 277.741397 
L 323.62875 281.852307 
L 324.424694 283.187627 
L 325.220639 283.40664 
L 326.016584 282.484852 
L 328.404418 277.574389 
L 329.200363 277.115165 
L 329.996307 277.629792 
L 332.384141 281.038245 
L 333.180086 281.125646 
L 333.976031 280.34532 
L 336.363865 276.381959 
L 337.159809 276.061532 
L 337.955754 276.613797 
L 338.751699 277.866165 
L 340.343588 280.971742 
L 341.139533 282.082711 
L 341.935477 282.624428 
L 342.731422 282.603165 
L 343.527367 282.141135 
L 344.323311 281.395397 
L 345.915201 279.502453 
L 348.303035 276.456708 
L 349.09898 275.700495 
L 349.894924 275.27719 
L 350.690869 275.254152 
L 351.486814 275.592101 
L 353.078703 276.670231 
L 353.874648 276.979481 
L 354.670592 276.954273 
L 355.466537 276.628717 
L 357.058426 275.798186 
L 357.854371 275.690542 
L 358.650316 275.879378 
L 360.242205 276.456009 
L 361.03815 276.286971 
L 361.834095 275.543451 
L 362.630039 274.264742 
L 364.221929 271.351349 
L 365.017873 270.596579 
L 365.813818 270.760731 
L 366.609763 271.882369 
L 368.997597 277.559882 
L 369.793541 278.632325 
L 370.589486 278.812335 
L 371.385431 278.195532 
L 372.97732 275.957902 
L 373.773265 275.13448 
L 374.569209 274.845507 
L 375.365154 275.093083 
L 377.752988 276.909557 
L 378.548933 277.094705 
L 379.344878 276.92588 
L 381.732712 275.739246 
L 382.528656 275.762454 
L 383.324601 276.215554 
L 384.120546 277.108037 
L 385.712435 279.819792 
L 387.304324 282.500594 
L 388.100269 283.295489 
L 388.896214 283.544684 
L 389.692158 283.263617 
L 392.079992 281.434868 
L 392.875937 281.506807 
L 393.671882 282.212882 
L 396.059716 285.744654 
L 396.855661 285.915245 
L 397.651605 284.999762 
L 398.44755 283.03724 
L 400.039439 277.670833 
L 400.835384 275.525049 
L 401.631329 274.466225 
L 402.427273 274.696921 
L 403.223218 276.053796 
L 404.815107 280.126669 
L 405.611052 281.66082 
L 406.406997 282.319411 
L 407.202941 282.047257 
L 407.998886 281.064437 
L 409.590775 278.558935 
L 410.38672 277.786374 
L 411.182665 277.617816 
L 411.97861 278.075081 
L 412.774554 279.079444 
L 413.570499 280.516356 
L 413.570499 280.516356 
" clip-path="url(#p278375fdf9)" style="fill: none; stroke: #377eb8; stroke-width: 1.5; stroke-linecap: square"/>
   </g>
   <g id="line2d_17">
    <path d="M 87.233179 318.04 
L 87.233179 71.732 
" clip-path="url(#p278375fdf9)" style="fill: none; stroke: #000000; stroke-width: 0.5; stroke-linecap: square"/>
   </g>
   <g id="line2d_18">
    <path d="M 46.64 256.699932 
L 413.570499 256.699932 
" clip-path="url(#p278375fdf9)" style="fill: none; stroke: #000000; stroke-width: 0.5; stroke-linecap: square"/>
   </g>
   <g id="patch_4">
    <path d="M 46.64 318.04 
L 46.64 71.732 
" style="fill: none; stroke: #000000; stroke-width: 0.8; stroke-linejoin: miter; stroke-linecap: square"/>
   </g>
   <g id="patch_5">
    <path d="M 413.570499 318.04 
L 413.570499 71.732 
" style="fill: none; stroke: #000000; stroke-width: 0.8; stroke-linejoin: miter; stroke-linecap: square"/>
   </g>
   <g id="patch_6">
    <path d="M 46.64 318.04 
L 413.570499 318.04 
" style="fill: none; stroke: #000000; stroke-width: 0.8; stroke-linejoin: miter; stroke-linecap: square"/>
   </g>
   <g id="patch_7">
    <path d="M 46.64 71.732 
L 413.570499 71.732 
" style="fill: none; stroke: #000000; stroke-width: 0.8; stroke-linejoin: miter; stroke-linecap: square"/>
   </g>
   <g id="text_17">
    <!-- Cz -->
    <g transform="translate(222.766499 65.732)scale(0.12 -0.12)">
     <defs>
      <path id="DejaVuSans-43" d="M 4122 4306 
L 4122 3641 
Q 3803 3938 3442 4084 
Q 3081 4231 2675 4231 
Q 1875 4231 1450 3742 
Q 1025 3253 1025 2328 
Q 1025 1406 1450 917 
Q 1875 428 2675 428 
Q 3081 428 3442 575 
Q 3803 722 4122 1019 
L 4122 359 
Q 3791 134 3420 21 
Q 3050 -91 2638 -91 
Q 1578 -91 968 557 
Q 359 1206 359 2328 
Q 359 3453 968 4101 
Q 1578 4750 2638 4750 
Q 3056 4750 3426 4639 
Q 3797 4528 4122 4306 
z
" transform="scale(0.015625)"/>
      <path id="DejaVuSans-7a" d="M 353 3500 
L 3084 3500 
L 3084 2975 
L 922 459 
L 3084 459 
L 3084 0 
L 275 0 
L 275 525 
L 2438 3041 
L 353 3041 
L 353 3500 
z
" transform="scale(0.015625)"/>
     </defs>
     <use xlink:href="#DejaVuSans-43"/>
     <use xlink:href="#DejaVuSans-7a" x="69.824219"/>
    </g>
   </g>
   <g id="legend_1">
    <g id="patch_8">
     <path d="M 99.877906 48.500845 
L 360.332593 48.500845 
Q 362.332593 48.500845 362.332593 46.500845 
L 362.332593 18.144595 
Q 362.332593 16.144595 360.332593 16.144595 
L 99.877906 16.144595 
Q 97.877906 16.144595 97.877906 18.144595 
L 97.877906 46.500845 
Q 97.877906 48.500845 99.877906 48.500845 
z
" style="fill: #ffffff; opacity: 0.8; stroke: #cccccc; stroke-linejoin: miter"/>
    </g>
    <g id="text_18">
     <!-- Average of Session 34 -->
     <g transform="translate(174.545874 27.743033)scale(0.1 -0.1)">
      <defs>
       <path id="DejaVuSans-41" d="M 2188 4044 
L 1331 1722 
L 3047 1722 
L 2188 4044 
z
M 1831 4666 
L 2547 4666 
L 4325 0 
L 3669 0 
L 3244 1197 
L 1141 1197 
L 716 0 
L 50 0 
L 1831 4666 
z
" transform="scale(0.015625)"/>
       <path id="DejaVuSans-76" d="M 191 3500 
L 800 3500 
L 1894 563 
L 2988 3500 
L 3597 3500 
L 2284 0 
L 1503 0 
L 191 3500 
z
" transform="scale(0.015625)"/>
       <path id="DejaVuSans-72" d="M 2631 2963 
Q 2534 3019 2420 3045 
Q 2306 3072 2169 3072 
Q 1681 3072 1420 2755 
Q 1159 2438 1159 1844 
L 1159 0 
L 581 0 
L 581 3500 
L 1159 3500 
L 1159 2956 
Q 1341 3275 1631 3429 
Q 1922 3584 2338 3584 
Q 2397 3584 2469 3576 
Q 2541 3569 2628 3553 
L 2631 2963 
z
" transform="scale(0.015625)"/>
       <path id="DejaVuSans-61" d="M 2194 1759 
Q 1497 1759 1228 1600 
Q 959 1441 959 1056 
Q 959 750 1161 570 
Q 1363 391 1709 391 
Q 2188 391 2477 730 
Q 2766 1069 2766 1631 
L 2766 1759 
L 2194 1759 
z
M 3341 1997 
L 3341 0 
L 2766 0 
L 2766 531 
Q 2569 213 2275 61 
Q 1981 -91 1556 -91 
Q 1019 -91 701 211 
Q 384 513 384 1019 
Q 384 1609 779 1909 
Q 1175 2209 1959 2209 
L 2766 2209 
L 2766 2266 
Q 2766 2663 2505 2880 
Q 2244 3097 1772 3097 
Q 1472 3097 1187 3025 
Q 903 2953 641 2809 
L 641 3341 
Q 956 3463 1253 3523 
Q 1550 3584 1831 3584 
Q 2591 3584 2966 3190 
Q 3341 2797 3341 1997 
z
" transform="scale(0.015625)"/>
       <path id="DejaVuSans-67" d="M 2906 1791 
Q 2906 2416 2648 2759 
Q 2391 3103 1925 3103 
Q 1463 3103 1205 2759 
Q 947 2416 947 1791 
Q 947 1169 1205 825 
Q 1463 481 1925 481 
Q 2391 481 2648 825 
Q 2906 1169 2906 1791 
z
M 3481 434 
Q 3481 -459 3084 -895 
Q 2688 -1331 1869 -1331 
Q 1566 -1331 1297 -1286 
Q 1028 -1241 775 -1147 
L 775 -588 
Q 1028 -725 1275 -790 
Q 1522 -856 1778 -856 
Q 2344 -856 2625 -561 
Q 2906 -266 2906 331 
L 2906 616 
Q 2728 306 2450 153 
Q 2172 0 1784 0 
Q 1141 0 747 490 
Q 353 981 353 1791 
Q 353 2603 747 3093 
Q 1141 3584 1784 3584 
Q 2172 3584 2450 3431 
Q 2728 3278 2906 2969 
L 2906 3500 
L 3481 3500 
L 3481 434 
z
" transform="scale(0.015625)"/>
       <path id="DejaVuSans-20" transform="scale(0.015625)"/>
       <path id="DejaVuSans-66" d="M 2375 4863 
L 2375 4384 
L 1825 4384 
Q 1516 4384 1395 4259 
Q 1275 4134 1275 3809 
L 1275 3500 
L 2222 3500 
L 2222 3053 
L 1275 3053 
L 1275 0 
L 697 0 
L 697 3053 
L 147 3053 
L 147 3500 
L 697 3500 
L 697 3744 
Q 697 4328 969 4595 
Q 1241 4863 1831 4863 
L 2375 4863 
z
" transform="scale(0.015625)"/>
       <path id="DejaVuSans-53" d="M 3425 4513 
L 3425 3897 
Q 3066 4069 2747 4153 
Q 2428 4238 2131 4238 
Q 1616 4238 1336 4038 
Q 1056 3838 1056 3469 
Q 1056 3159 1242 3001 
Q 1428 2844 1947 2747 
L 2328 2669 
Q 3034 2534 3370 2195 
Q 3706 1856 3706 1288 
Q 3706 609 3251 259 
Q 2797 -91 1919 -91 
Q 1588 -91 1214 -16 
Q 841 59 441 206 
L 441 856 
Q 825 641 1194 531 
Q 1563 422 1919 422 
Q 2459 422 2753 634 
Q 3047 847 3047 1241 
Q 3047 1584 2836 1778 
Q 2625 1972 2144 2069 
L 1759 2144 
Q 1053 2284 737 2584 
Q 422 2884 422 3419 
Q 422 4038 858 4394 
Q 1294 4750 2059 4750 
Q 2388 4750 2728 4690 
Q 3069 4631 3425 4513 
z
" transform="scale(0.015625)"/>
       <path id="DejaVuSans-69" d="M 603 3500 
L 1178 3500 
L 1178 0 
L 603 0 
L 603 3500 
z
M 603 4863 
L 1178 4863 
L 1178 4134 
L 603 4134 
L 603 4863 
z
" transform="scale(0.015625)"/>
      </defs>
      <use xlink:href="#DejaVuSans-41"/>
      <use xlink:href="#DejaVuSans-76" x="62.533203"/>
      <use xlink:href="#DejaVuSans-65" x="121.712891"/>
      <use xlink:href="#DejaVuSans-72" x="183.236328"/>
      <use xlink:href="#DejaVuSans-61" x="224.349609"/>
      <use xlink:href="#DejaVuSans-67" x="285.628906"/>
      <use xlink:href="#DejaVuSans-65" x="349.105469"/>
      <use xlink:href="#DejaVuSans-20" x="410.628906"/>
      <use xlink:href="#DejaVuSans-6f" x="442.416016"/>
      <use xlink:href="#DejaVuSans-66" x="503.597656"/>
      <use xlink:href="#DejaVuSans-20" x="538.802734"/>
      <use xlink:href="#DejaVuSans-53" x="570.589844"/>
      <use xlink:href="#DejaVuSans-65" x="634.066406"/>
      <use xlink:href="#DejaVuSans-73" x="695.589844"/>
      <use xlink:href="#DejaVuSans-73" x="747.689453"/>
      <use xlink:href="#DejaVuSans-69" x="799.789062"/>
      <use xlink:href="#DejaVuSans-6f" x="827.572266"/>
      <use xlink:href="#DejaVuSans-6e" x="888.753906"/>
      <use xlink:href="#DejaVuSans-20" x="952.132812"/>
      <use xlink:href="#DejaVuSans-33" x="983.919922"/>
      <use xlink:href="#DejaVuSans-34" x="1047.542969"/>
     </g>
    </g>
    <g id="line2d_19">
     <path d="M 101.877906 38.921158 
L 111.877906 38.921158 
L 121.877906 38.921158 
" style="fill: none; stroke: #e41a1c; stroke-width: 1.5; stroke-linecap: square"/>
    </g>
    <g id="text_19">
     <!-- Target (n=274) -->
     <g transform="translate(129.877906 42.421158)scale(0.1 -0.1)">
      <defs>
       <path id="DejaVuSans-54" d="M -19 4666 
L 3928 4666 
L 3928 4134 
L 2272 4134 
L 2272 0 
L 1638 0 
L 1638 4134 
L -19 4134 
L -19 4666 
z
" transform="scale(0.015625)"/>
       <path id="DejaVuSans-74" d="M 1172 4494 
L 1172 3500 
L 2356 3500 
L 2356 3053 
L 1172 3053 
L 1172 1153 
Q 1172 725 1289 603 
Q 1406 481 1766 481 
L 2356 481 
L 2356 0 
L 1766 0 
Q 1100 0 847 248 
Q 594 497 594 1153 
L 594 3053 
L 172 3053 
L 172 3500 
L 594 3500 
L 594 4494 
L 1172 4494 
z
" transform="scale(0.015625)"/>
       <path id="DejaVuSans-28" d="M 1984 4856 
Q 1566 4138 1362 3434 
Q 1159 2731 1159 2009 
Q 1159 1288 1364 580 
Q 1569 -128 1984 -844 
L 1484 -844 
Q 1016 -109 783 600 
Q 550 1309 550 2009 
Q 550 2706 781 3412 
Q 1013 4119 1484 4856 
L 1984 4856 
z
" transform="scale(0.015625)"/>
       <path id="DejaVuSans-3d" d="M 678 2906 
L 4684 2906 
L 4684 2381 
L 678 2381 
L 678 2906 
z
M 678 1631 
L 4684 1631 
L 4684 1100 
L 678 1100 
L 678 1631 
z
" transform="scale(0.015625)"/>
       <path id="DejaVuSans-37" d="M 525 4666 
L 3525 4666 
L 3525 4397 
L 1831 0 
L 1172 0 
L 2766 4134 
L 525 4134 
L 525 4666 
z
" transform="scale(0.015625)"/>
       <path id="DejaVuSans-29" d="M 513 4856 
L 1013 4856 
Q 1481 4119 1714 3412 
Q 1947 2706 1947 2009 
Q 1947 1309 1714 600 
Q 1481 -109 1013 -844 
L 513 -844 
Q 928 -128 1133 580 
Q 1338 1288 1338 2009 
Q 1338 2731 1133 3434 
Q 928 4138 513 4856 
z
" transform="scale(0.015625)"/>
      </defs>
      <use xlink:href="#DejaVuSans-54"/>
      <use xlink:href="#DejaVuSans-61" x="44.583984"/>
      <use xlink:href="#DejaVuSans-72" x="105.863281"/>
      <use xlink:href="#DejaVuSans-67" x="145.226562"/>
      <use xlink:href="#DejaVuSans-65" x="208.703125"/>
      <use xlink:href="#DejaVuSans-74" x="270.226562"/>
      <use xlink:href="#DejaVuSans-20" x="309.435547"/>
      <use xlink:href="#DejaVuSans-28" x="341.222656"/>
      <use xlink:href="#DejaVuSans-6e" x="380.236328"/>
      <use xlink:href="#DejaVuSans-3d" x="443.615234"/>
      <use xlink:href="#DejaVuSans-32" x="527.404297"/>
      <use xlink:href="#DejaVuSans-37" x="591.027344"/>
      <use xlink:href="#DejaVuSans-34" x="654.650391"/>
      <use xlink:href="#DejaVuSans-29" x="718.273438"/>
     </g>
    </g>
    <g id="line2d_20">
     <path d="M 225.607593 38.921158 
L 235.607593 38.921158 
L 245.607593 38.921158 
" style="fill: none; stroke: #377eb8; stroke-width: 1.5; stroke-linecap: square"/>
    </g>
    <g id="text_20">
     <!-- Non-Target (n=1402) -->
     <g transform="translate(253.607593 42.421158)scale(0.1 -0.1)">
      <defs>
       <path id="DejaVuSans-4e" d="M 628 4666 
L 1478 4666 
L 3547 763 
L 3547 4666 
L 4159 4666 
L 4159 0 
L 3309 0 
L 1241 3903 
L 1241 0 
L 628 0 
L 628 4666 
z
" transform="scale(0.015625)"/>
       <path id="DejaVuSans-2d" d="M 313 2009 
L 1997 2009 
L 1997 1497 
L 313 1497 
L 313 2009 
z
" transform="scale(0.015625)"/>
      </defs>
      <use xlink:href="#DejaVuSans-4e"/>
      <use xlink:href="#DejaVuSans-6f" x="74.804688"/>
      <use xlink:href="#DejaVuSans-6e" x="135.986328"/>
      <use xlink:href="#DejaVuSans-2d" x="199.365234"/>
      <use xlink:href="#DejaVuSans-54" x="226.324219"/>
      <use xlink:href="#DejaVuSans-61" x="270.908203"/>
      <use xlink:href="#DejaVuSans-72" x="332.1875"/>
      <use xlink:href="#DejaVuSans-67" x="371.550781"/>
      <use xlink:href="#DejaVuSans-65" x="435.027344"/>
      <use xlink:href="#DejaVuSans-74" x="496.550781"/>
      <use xlink:href="#DejaVuSans-20" x="535.759766"/>
      <use xlink:href="#DejaVuSans-28" x="567.546875"/>
      <use xlink:href="#DejaVuSans-6e" x="606.560547"/>
      <use xlink:href="#DejaVuSans-3d" x="669.939453"/>
      <use xlink:href="#DejaVuSans-31" x="753.728516"/>
      <use xlink:href="#DejaVuSans-34" x="817.351562"/>
      <use xlink:href="#DejaVuSans-30" x="880.974609"/>
      <use xlink:href="#DejaVuSans-32" x="944.597656"/>
      <use xlink:href="#DejaVuSans-29" x="1008.220703"/>
     </g>
    </g>
   </g>
  </g>
 </g>
 <defs>
  <clipPath id="p278375fdf9">
   <rect x="46.64" y="71.732" width="366.930499" height="246.308"/>
  </clipPath>
 </defs>
</svg>
