<?xml version="1.0" encoding="utf-8" standalone="no"?>
<!DOCTYPE svg PUBLIC "-//W3C//DTD SVG 1.1//EN"
  "http://www.w3.org/Graphics/SVG/1.1/DTD/svg11.dtd">
<svg xmlns:xlink="http://www.w3.org/1999/xlink" width="432pt" height="360pt" viewBox="0 0 432 360" xmlns="http://www.w3.org/2000/svg" version="1.1">
 <metadata>
  <rdf:RDF xmlns:dc="http://purl.org/dc/elements/1.1/" xmlns:cc="http://creativecommons.org/ns#" xmlns:rdf="http://www.w3.org/1999/02/22-rdf-syntax-ns#">
   <cc:Work>
    <dc:type rdf:resource="http://purl.org/dc/dcmitype/StillImage"/>
    <dc:date>2022-05-19T11:51:36.695692</dc:date>
    <dc:format>image/svg+xml</dc:format>
    <dc:creator>
     <cc:Agent>
      <dc:title>Matplotlib v3.5.1, https://matplotlib.org/</dc:title>
     </cc:Agent>
    </dc:creator>
   </cc:Work>
  </rdf:RDF>
 </metadata>
 <defs>
  <style type="text/css">*{stroke-linejoin: round; stroke-linecap: butt}</style>
 </defs>
 <g id="figure_1">
  <g id="patch_1">
   <path d="M 0 360 
L 432 360 
L 432 0 
L 0 0 
L 0 360 
z
" style="fill: none"/>
  </g>
  <g id="axes_1">
   <g id="patch_2">
    <path d="M 46.64 318.04 
L 413.570499 318.04 
L 413.570499 71.732 
L 46.64 71.732 
L 46.64 318.04 
z
" style="fill: none"/>
   </g>
   <g id="PolyCollection_1">
    <defs>
     <path id="m51640c85a3" d="M 46.64 -134.897923 
L 46.64 -87.162904 
L 47.435945 -85.399807 
L 48.231889 -82.517311 
L 49.027834 -79.77679 
L 49.823779 -78.612696 
L 50.619723 -80.005666 
L 51.415668 -84.066778 
L 52.211613 -90.053843 
L 53.007557 -96.645021 
L 53.803502 -102.231853 
L 54.599447 -105.269886 
L 55.395392 -104.837771 
L 56.191336 -101.246172 
L 56.987281 -96.070569 
L 57.783226 -91.335605 
L 58.57917 -88.489068 
L 59.375115 -87.846714 
L 60.17106 -88.774782 
L 60.967004 -90.410414 
L 61.762949 -92.15979 
L 62.558894 -93.672401 
L 63.354838 -94.798244 
L 64.150783 -95.680835 
L 64.946728 -96.74371 
L 65.742672 -98.45651 
L 66.538617 -101.02322 
L 67.334562 -104.223458 
L 68.130506 -107.467288 
L 68.926451 -109.959456 
L 69.722396 -110.909276 
L 70.51834 -109.779467 
L 71.314285 -106.538248 
L 72.11023 -101.814489 
L 72.906175 -96.760605 
L 73.702119 -92.537363 
L 74.498064 -89.741314 
L 75.294009 -88.205914 
L 76.089953 -87.253986 
L 76.885898 -86.139164 
L 77.681843 -84.380481 
L 78.477787 -81.905491 
L 79.273732 -79.076143 
L 80.069677 -76.629402 
L 80.865621 -75.439358 
L 81.661566 -76.06134 
L 82.457511 -78.31426 
L 83.253455 -81.287746 
L 84.0494 -83.852313 
L 84.845345 -85.25001 
L 85.641289 -85.286762 
L 86.437234 -84.165807 
L 87.233179 -82.292631 
L 88.029124 -80.246739 
L 88.825068 -78.831479 
L 89.621013 -78.868817 
L 90.416958 -80.69612 
L 91.212902 -83.824196 
L 92.008847 -87.101749 
L 92.804792 -89.298006 
L 93.600736 -89.705327 
L 94.396681 -88.348542 
L 95.192626 -85.775067 
L 95.98857 -82.718963 
L 96.784515 -79.845767 
L 97.58046 -77.612676 
L 98.376404 -76.219198 
L 99.172349 -75.610165 
L 99.968294 -75.493233 
L 100.764238 -75.367255 
L 101.560183 -74.599118 
L 102.356128 -72.594585 
L 103.152073 -69.072601 
L 103.948017 -64.339458 
L 104.743962 -59.323322 
L 105.539907 -55.24733 
L 106.335851 -53.155818 
L 107.131796 -53.57908 
L 107.927741 -56.417106 
L 108.723685 -60.990695 
L 109.51963 -66.223487 
L 110.315575 -70.952007 
L 111.111519 -74.304867 
L 111.907464 -75.977969 
L 112.703409 -76.241525 
L 113.499353 -75.717847 
L 114.295298 -75.127894 
L 115.091243 -75.140941 
L 115.887187 -76.297796 
L 116.683132 -78.909118 
L 117.479077 -82.921877 
L 118.275021 -87.86099 
L 119.070966 -92.933571 
L 119.866911 -97.263031 
L 120.662856 -100.126185 
L 121.4588 -101.087704 
L 122.254745 -100.039102 
L 123.05069 -97.214652 
L 123.846634 -93.201558 
L 124.642579 -88.877401 
L 125.438524 -85.214162 
L 126.234468 -82.991785 
L 127.030413 -82.557394 
L 127.826358 -83.754521 
L 128.622302 -86.039114 
L 129.418247 -88.689693 
L 130.214192 -91.00791 
L 131.010136 -92.477208 
L 131.806081 -92.889844 
L 132.602026 -92.429941 
L 133.39797 -91.657192 
L 134.193915 -91.320159 
L 134.98986 -92.007587 
L 135.785805 -93.802246 
L 136.581749 -96.159004 
L 137.377694 -98.111192 
L 138.173639 -98.724121 
L 138.969583 -97.568618 
L 139.765528 -94.959457 
L 140.561473 -91.845219 
L 141.357417 -89.443315 
L 142.153362 -88.800449 
L 142.949307 -90.418038 
L 143.745251 -94.044901 
L 144.541196 -98.736033 
L 145.337141 -103.20899 
L 146.133085 -106.357986 
L 146.92903 -107.649471 
L 147.724975 -107.202216 
L 148.520919 -105.589223 
L 149.316864 -103.547234 
L 150.112809 -101.746833 
L 150.908753 -100.649149 
L 151.704698 -100.405531 
L 152.500643 -100.819635 
L 153.296588 -101.450689 
L 154.092532 -101.859142 
L 154.888477 -101.867726 
L 155.684422 -101.668856 
L 156.480366 -101.696842 
L 157.276311 -102.340934 
L 158.072256 -103.67599 
L 158.8682 -105.368471 
L 159.664145 -106.817725 
L 160.46009 -107.46642 
L 161.256034 -107.108155 
L 162.051979 -106.015768 
L 162.847924 -104.834802 
L 163.643868 -104.323968 
L 164.439813 -105.07375 
L 165.235758 -107.309294 
L 166.031702 -110.837714 
L 166.827647 -115.148748 
L 167.623592 -119.618248 
L 168.419537 -123.717947 
L 169.215481 -127.141955 
L 170.011426 -129.82194 
L 170.807371 -131.864619 
L 171.603315 -133.457165 
L 172.39926 -134.760726 
L 173.195205 -135.808625 
L 173.991149 -136.461282 
L 174.787094 -136.479013 
L 175.583039 -135.709657 
L 176.378983 -134.291129 
L 177.174928 -132.718525 
L 177.970873 -131.685977 
L 178.766817 -131.767677 
L 179.562762 -133.12558 
L 180.358707 -135.421154 
L 181.154651 -137.976481 
L 181.950596 -140.064504 
L 182.746541 -141.14394 
L 183.542485 -140.952597 
L 184.33843 -139.501195 
L 185.134375 -137.033149 
L 185.93032 -133.965818 
L 186.726264 -130.787482 
L 187.522209 -127.900154 
L 188.318154 -125.469779 
L 189.114098 -123.380248 
L 189.910043 -121.318278 
L 190.705988 -118.926427 
L 191.501932 -115.953536 
L 192.297877 -112.375735 
L 193.093822 -108.468642 
L 193.889766 -104.779295 
L 194.685711 -101.962356 
L 195.481656 -100.540682 
L 196.2776 -100.722666 
L 197.073545 -102.37242 
L 197.86949 -105.123819 
L 198.665434 -108.538303 
L 199.461379 -112.192536 
L 200.257324 -115.666689 
L 201.053269 -118.511658 
L 201.849213 -120.291916 
L 202.645158 -120.723075 
L 203.441103 -119.830701 
L 204.237047 -118.024207 
L 205.032992 -116.030292 
L 205.828937 -114.715529 
L 206.624881 -114.867462 
L 207.420826 -116.975801 
L 208.216771 -121.026783 
L 209.012715 -126.370893 
L 209.80866 -131.792245 
L 210.604605 -135.861506 
L 211.400549 -137.478836 
L 212.196494 -136.348193 
L 212.992439 -133.134209 
L 213.788383 -129.244402 
L 214.584328 -126.361733 
L 215.380273 -125.89875 
L 216.176218 -128.523867 
L 216.972162 -133.905368 
L 217.768107 -140.795281 
L 218.564052 -147.455303 
L 219.359996 -152.243027 
L 220.155941 -154.095117 
L 220.951886 -152.755634 
L 221.74783 -148.768745 
L 222.543775 -143.32276 
L 223.33972 -137.979572 
L 224.135664 -134.257814 
L 224.931609 -133.121452 
L 225.727554 -134.605952 
L 226.523498 -137.816794 
L 227.319443 -141.320066 
L 228.115388 -143.721009 
L 228.911332 -144.151539 
L 229.707277 -142.492249 
L 230.503222 -139.326602 
L 231.299166 -135.705441 
L 232.095111 -132.782644 
L 232.891056 -131.398011 
L 233.687001 -131.759473 
L 234.482945 -133.380026 
L 235.27889 -135.288118 
L 236.074835 -136.376925 
L 236.870779 -135.74145 
L 237.666724 -132.957232 
L 238.462669 -128.306718 
L 239.258613 -122.852045 
L 240.054558 -118.15987 
L 240.850503 -115.689058 
L 241.646447 -116.187113 
L 242.442392 -119.462484 
L 243.238337 -124.597181 
L 244.034281 -130.353959 
L 244.830226 -135.49932 
L 245.626171 -139.001826 
L 246.422115 -140.235106 
L 247.21806 -139.228331 
L 248.014005 -136.794527 
L 248.80995 -134.289965 
L 249.605894 -133.028392 
L 250.401839 -133.718141 
L 251.197784 -136.258062 
L 251.993728 -139.931342 
L 252.789673 -143.804431 
L 253.585618 -147.092084 
L 254.381562 -149.356667 
L 255.177507 -150.541436 
L 255.973452 -150.891955 
L 256.769396 -150.819058 
L 257.565341 -150.747364 
L 258.361286 -150.978192 
L 259.15723 -151.587113 
L 259.953175 -152.395756 
L 260.74912 -153.065107 
L 261.545064 -153.29596 
L 262.341009 -153.02573 
L 263.136954 -152.488016 
L 263.932898 -152.098733 
L 264.728843 -152.2597 
L 265.524788 -153.209845 
L 266.320733 -154.98931 
L 267.116677 -157.477451 
L 267.912622 -160.420703 
L 268.708567 -163.433412 
L 269.504511 -166.036868 
L 270.300456 -167.775397 
L 271.096401 -168.362514 
L 271.892345 -167.786203 
L 272.68829 -166.346209 
L 273.484235 -164.626562 
L 274.280179 -163.391842 
L 275.076124 -163.390899 
L 275.872069 -165.107652 
L 276.668013 -168.567568 
L 277.463958 -173.295826 
L 278.259903 -178.432037 
L 279.055847 -182.937705 
L 279.851792 -185.840129 
L 280.647737 -186.483286 
L 281.443682 -184.738811 
L 282.239626 -181.089796 
L 283.035571 -176.507237 
L 283.831516 -172.131326 
L 284.62746 -168.891579 
L 285.423405 -167.239257 
L 286.21935 -167.090201 
L 287.015294 -167.960369 
L 287.811239 -169.199638 
L 288.607184 -170.215472 
L 289.403128 -170.61406 
L 290.199073 -170.24886 
L 290.995018 -169.216004 
L 291.790962 -167.828932 
L 292.586907 -166.546928 
L 293.382852 -165.81618 
L 294.178796 -165.878598 
L 294.974741 -166.693165 
L 295.770686 -168.028793 
L 296.56663 -169.604119 
L 297.362575 -171.121422 
L 298.15852 -172.223568 
L 298.954465 -172.537716 
L 299.750409 -171.865472 
L 300.546354 -170.362041 
L 301.342299 -168.503696 
L 302.138243 -166.865487 
L 302.934188 -165.929252 
L 303.730133 -166.053055 
L 304.526077 -167.486528 
L 305.322022 -170.253655 
L 306.117967 -173.960848 
L 306.913911 -177.767507 
L 307.709856 -180.611468 
L 308.505801 -181.547346 
L 309.301745 -180.019244 
L 310.09769 -176.021999 
L 310.893635 -170.17063 
L 311.689579 -163.607635 
L 312.485524 -157.656689 
L 313.281469 -153.341595 
L 314.077414 -151.07754 
L 314.873358 -150.728345 
L 315.669303 -151.906383 
L 316.465248 -154.200718 
L 317.261192 -157.185414 
L 318.057137 -160.35215 
L 318.853082 -163.132719 
L 319.649026 -164.992079 
L 320.444971 -165.489763 
L 321.240916 -164.306996 
L 322.03686 -161.326812 
L 322.832805 -156.772048 
L 323.62875 -151.270354 
L 324.424694 -145.737702 
L 325.220639 -141.124546 
L 326.016584 -138.148068 
L 326.812528 -137.0827 
L 327.608473 -137.633551 
L 328.404418 -138.955222 
L 329.200363 -139.899228 
L 329.996307 -139.452975 
L 330.792252 -137.153169 
L 331.588197 -133.239664 
L 332.384141 -128.507365 
L 333.180086 -123.989873 
L 333.976031 -120.610208 
L 334.771975 -118.86121 
L 335.56792 -118.587747 
L 336.363865 -119.008382 
L 337.159809 -119.059253 
L 337.955754 -117.922072 
L 338.751699 -115.426433 
L 339.547643 -112.111292 
L 340.343588 -108.984238 
L 341.139533 -107.154683 
L 341.935477 -107.475663 
L 342.731422 -110.249041 
L 343.527367 -115.055363 
L 344.323311 -120.819004 
L 345.119256 -126.150417 
L 345.915201 -129.820935 
L 346.711146 -131.131698 
L 347.50709 -130.044322 
L 348.303035 -127.101676 
L 349.09898 -123.215995 
L 349.894924 -119.362129 
L 350.690869 -116.227492 
L 351.486814 -113.969497 
L 352.282758 -112.250756 
L 353.078703 -110.548859 
L 353.874648 -108.525329 
L 354.670592 -106.222053 
L 355.466537 -104.030992 
L 356.262482 -102.527324 
L 357.058426 -102.250357 
L 357.854371 -103.466929 
L 358.650316 -105.977256 
L 359.44626 -109.084284 
L 360.242205 -111.80969 
L 361.03815 -113.279319 
L 361.834095 -113.068978 
L 362.630039 -111.34045 
L 363.425984 -108.753666 
L 364.221929 -106.242693 
L 365.017873 -104.735106 
L 365.813818 -104.866692 
L 366.609763 -106.766566 
L 367.405707 -110.010439 
L 368.201652 -113.78097 
L 368.997597 -117.162866 
L 369.793541 -119.438052 
L 370.589486 -120.271136 
L 371.385431 -119.741518 
L 372.181375 -118.236035 
L 372.97732 -116.256756 
L 373.773265 -114.225411 
L 374.569209 -112.362961 
L 375.365154 -110.681215 
L 376.161099 -109.071486 
L 376.957043 -107.442817 
L 377.752988 -105.847377 
L 378.548933 -104.525004 
L 379.344878 -103.819413 
L 380.140822 -103.98767 
L 380.936767 -105.010784 
L 381.732712 -106.531161 
L 382.528656 -107.956282 
L 383.324601 -108.658841 
L 384.120546 -108.178296 
L 384.91649 -106.373938 
L 385.712435 -103.500307 
L 386.50838 -100.155877 
L 387.304324 -97.076953 
L 388.100269 -94.850817 
L 388.896214 -93.713007 
L 389.692158 -93.547993 
L 390.488103 -94.052472 
L 391.284048 -94.9134 
L 392.079992 -95.901718 
L 392.875937 -96.886713 
L 393.671882 -97.804726 
L 394.467827 -98.594987 
L 395.263771 -99.125105 
L 396.059716 -99.162629 
L 396.855661 -98.439319 
L 397.651605 -96.785245 
L 398.44755 -94.256714 
L 399.243495 -91.201428 
L 400.039439 -88.244868 
L 400.835384 -86.182538 
L 401.631329 -85.760691 
L 402.427273 -87.390021 
L 403.223218 -90.929748 
L 404.019163 -95.692101 
L 404.815107 -100.696405 
L 405.611052 -105.023121 
L 406.406997 -108.048129 
L 407.202941 -109.474078 
L 407.998886 -109.264429 
L 408.794831 -107.598734 
L 409.590775 -104.838102 
L 410.38672 -101.43296 
L 411.182665 -97.792872 
L 411.97861 -94.221587 
L 412.774554 -90.97688 
L 413.570499 -88.391314 
L 413.570499 -200.480328 
L 413.570499 -200.480328 
L 412.774554 -203.830654 
L 411.97861 -207.831996 
L 411.182665 -211.681537 
L 410.38672 -214.738103 
L 409.590775 -216.678128 
L 408.794831 -217.452604 
L 407.998886 -217.110912 
L 407.202941 -215.663118 
L 406.406997 -213.11352 
L 405.611052 -209.62231 
L 404.815107 -205.609449 
L 404.019163 -201.674381 
L 403.223218 -198.399949 
L 402.427273 -196.199929 
L 401.631329 -195.268093 
L 400.835384 -195.573092 
L 400.039439 -196.86031 
L 399.243495 -198.693971 
L 398.44755 -200.582385 
L 397.651605 -202.154311 
L 396.855661 -203.276296 
L 396.059716 -204.023575 
L 395.263771 -204.532988 
L 394.467827 -204.85185 
L 393.671882 -204.875914 
L 392.875937 -204.400325 
L 392.079992 -203.261326 
L 391.284048 -201.511995 
L 390.488103 -199.533792 
L 389.692158 -197.981646 
L 388.896214 -197.547177 
L 388.100269 -198.662839 
L 387.304324 -201.321174 
L 386.50838 -205.080519 
L 385.712435 -209.201916 
L 384.91649 -212.848626 
L 384.120546 -215.323654 
L 383.324601 -216.304132 
L 382.528656 -215.967477 
L 381.732712 -214.909068 
L 380.936767 -213.869338 
L 380.140822 -213.419267 
L 379.344878 -213.767801 
L 378.548933 -214.752553 
L 377.752988 -215.973339 
L 376.957043 -216.997686 
L 376.161099 -217.569648 
L 375.365154 -217.743679 
L 374.569209 -217.869004 
L 373.773265 -218.407347 
L 372.97732 -219.66158 
L 372.181375 -221.555804 
L 371.385431 -223.586365 
L 370.589486 -224.977089 
L 369.793541 -224.979413 
L 368.997597 -223.195949 
L 368.201652 -219.789412 
L 367.405707 -215.480807 
L 366.609763 -211.331612 
L 365.813818 -208.395081 
L 365.017873 -207.360576 
L 364.221929 -208.304826 
L 363.425984 -210.643025 
L 362.630039 -213.333124 
L 361.834095 -215.281436 
L 361.03815 -215.766165 
L 360.242205 -214.669528 
L 359.44626 -212.436022 
L 358.650316 -209.839264 
L 357.854371 -207.694802 
L 357.058426 -206.598419 
L 356.262482 -206.730728 
L 355.466537 -207.802893 
L 354.670592 -209.220477 
L 353.874648 -210.422482 
L 353.078703 -211.199428 
L 352.282758 -211.786492 
L 351.486814 -212.697393 
L 350.690869 -214.441655 
L 349.894924 -217.275814 
L 349.09898 -221.030853 
L 348.303035 -225.030443 
L 347.50709 -228.18625 
L 346.711146 -229.344645 
L 345.915201 -227.780266 
L 345.119256 -223.568574 
L 344.323311 -217.623678 
L 343.527367 -211.401907 
L 342.731422 -206.434105 
L 341.935477 -203.854359 
L 341.139533 -204.037936 
L 340.343588 -206.467948 
L 339.547643 -209.946747 
L 338.751699 -213.117116 
L 337.955754 -215.042251 
L 337.159809 -215.53826 
L 336.363865 -215.126839 
L 335.56792 -214.721798 
L 334.771975 -215.254234 
L 333.976031 -217.341738 
L 333.180086 -221.03467 
L 332.384141 -225.73214 
L 331.588197 -230.381581 
L 330.792252 -233.922564 
L 329.996307 -235.740159 
L 329.200363 -235.879433 
L 328.404418 -234.960242 
L 327.608473 -233.919141 
L 326.812528 -233.714846 
L 326.016584 -235.042269 
L 325.220639 -238.099054 
L 324.424694 -242.514152 
L 323.62875 -247.509137 
L 322.832805 -252.204915 
L 322.03686 -255.887724 
L 321.240916 -258.124491 
L 320.444971 -258.764027 
L 319.649026 -257.900753 
L 318.853082 -255.808983 
L 318.057137 -252.843628 
L 317.261192 -249.383718 
L 316.465248 -245.894045 
L 315.669303 -243.023977 
L 314.873358 -241.550567 
L 314.077414 -242.102923 
L 313.281469 -244.869468 
L 312.485524 -249.538955 
L 311.689579 -255.461121 
L 310.893635 -261.814404 
L 310.09769 -267.674606 
L 309.301745 -272.087598 
L 308.505801 -274.279468 
L 307.709856 -273.935945 
L 306.913911 -271.335373 
L 306.117967 -267.246416 
L 305.322022 -262.700192 
L 304.526077 -258.756597 
L 303.730133 -256.265208 
L 302.934188 -255.606159 
L 302.138243 -256.541138 
L 301.342299 -258.357536 
L 300.546354 -260.24959 
L 299.750409 -261.636044 
L 298.954465 -262.212562 
L 298.15852 -261.838562 
L 297.362575 -260.495385 
L 296.56663 -258.376632 
L 295.770686 -255.942036 
L 294.974741 -253.793957 
L 294.178796 -252.447635 
L 293.382852 -252.17781 
L 292.586907 -253.006342 
L 291.790962 -254.729965 
L 290.995018 -256.911941 
L 290.199073 -258.912349 
L 289.403128 -260.065138 
L 288.607184 -259.96395 
L 287.811239 -258.686488 
L 287.015294 -256.818325 
L 286.21935 -255.262792 
L 285.423405 -254.92521 
L 284.62746 -256.397579 
L 283.831516 -259.752808 
L 283.035571 -264.503535 
L 282.239626 -269.716061 
L 281.443682 -274.229975 
L 280.647737 -276.935788 
L 279.851792 -277.072182 
L 279.055847 -274.475149 
L 278.259903 -269.671787 
L 277.463958 -263.742034 
L 276.668013 -257.981319 
L 275.872069 -253.505132 
L 275.076124 -250.95742 
L 274.280179 -250.403234 
L 273.484235 -251.38352 
L 272.68829 -253.077757 
L 271.892345 -254.540651 
L 271.096401 -254.970911 
L 270.300456 -253.930415 
L 269.504511 -251.435117 
L 268.708567 -247.905001 
L 267.912622 -244.021616 
L 267.116677 -240.541404 
L 266.320733 -238.082861 
L 265.524788 -236.922146 
L 264.728843 -236.892345 
L 263.932898 -237.472834 
L 263.136954 -238.032667 
L 262.341009 -238.086041 
L 261.545064 -237.434383 
L 260.74912 -236.166869 
L 259.953175 -234.578262 
L 259.15723 -233.072074 
L 258.361286 -232.054936 
L 257.565341 -231.79299 
L 256.769396 -232.25552 
L 255.973452 -233.044902 
L 255.177507 -233.501054 
L 254.381562 -232.966203 
L 253.585618 -231.091094 
L 252.789673 -228.031099 
L 251.993728 -224.424814 
L 251.197784 -221.150522 
L 250.401839 -218.98381 
L 249.605894 -218.33825 
L 248.80995 -219.187088 
L 248.014005 -221.116816 
L 247.21806 -223.398523 
L 246.422115 -225.049923 
L 245.626171 -225.027257 
L 244.830226 -222.650612 
L 244.034281 -218.047668 
L 243.238337 -212.244062 
L 242.442392 -206.76891 
L 241.646447 -203.010631 
L 240.850503 -201.731289 
L 240.054558 -202.964628 
L 239.258613 -206.18153 
L 238.462669 -210.486129 
L 237.666724 -214.76394 
L 236.870779 -217.903606 
L 236.074835 -219.169868 
L 235.27889 -218.531753 
L 234.482945 -216.674772 
L 233.687001 -214.675853 
L 232.891056 -213.554279 
L 232.095111 -213.916991 
L 231.299166 -215.783401 
L 230.503222 -218.586271 
L 229.707277 -221.351478 
L 228.911332 -223.051477 
L 228.115388 -223.024461 
L 227.319443 -221.25764 
L 226.523498 -218.39721 
L 225.727554 -215.518964 
L 224.931609 -213.790675 
L 224.135664 -214.125087 
L 223.33972 -216.866304 
L 222.543775 -221.562419 
L 221.74783 -226.947078 
L 220.951886 -231.272853 
L 220.155941 -232.961374 
L 219.359996 -231.263936 
L 218.564052 -226.5754 
L 217.768107 -220.259228 
L 216.972162 -214.113642 
L 216.176218 -209.752313 
L 215.380273 -208.122659 
L 214.584328 -209.259246 
L 213.788383 -212.311508 
L 212.992439 -215.852109 
L 212.196494 -218.376917 
L 211.400549 -218.798817 
L 210.604605 -216.735226 
L 209.80866 -212.52499 
L 209.012715 -207.059236 
L 208.216771 -201.524754 
L 207.420826 -197.088771 
L 206.624881 -194.556236 
L 205.828937 -194.109069 
L 205.032992 -195.269111 
L 204.237047 -197.126598 
L 203.441103 -198.705405 
L 202.645158 -199.266909 
L 201.849213 -198.445908 
L 201.053269 -196.246297 
L 200.257324 -192.976702 
L 199.461379 -189.169989 
L 198.665434 -185.479375 
L 197.86949 -182.535888 
L 197.073545 -180.793644 
L 196.2776 -180.436387 
L 195.481656 -181.397971 
L 194.685711 -183.461352 
L 193.889766 -186.346421 
L 193.093822 -189.731753 
L 192.297877 -193.234506 
L 191.501932 -196.430144 
L 190.705988 -198.96996 
L 189.910043 -200.747339 
L 189.114098 -201.985136 
L 188.318154 -203.163234 
L 187.522209 -204.818588 
L 186.726264 -207.313126 
L 185.93032 -210.650435 
L 185.134375 -214.397357 
L 184.33843 -217.770704 
L 183.542485 -219.913697 
L 182.746541 -220.266904 
L 181.950596 -218.838806 
L 181.154651 -216.214147 
L 180.358707 -213.288369 
L 179.562762 -210.887936 
L 178.766817 -209.497047 
L 177.970873 -209.194291 
L 177.174928 -209.740186 
L 176.378983 -210.709794 
L 175.583039 -211.614571 
L 174.787094 -212.014744 
L 173.991149 -211.633776 
L 173.195205 -210.441363 
L 172.39926 -208.637514 
L 171.603315 -206.51394 
L 170.807371 -204.259802 
L 170.011426 -201.838591 
L 169.215481 -199.034682 
L 168.419537 -195.649843 
L 167.623592 -191.713069 
L 166.827647 -187.560707 
L 166.031702 -183.740604 
L 165.235758 -180.798679 
L 164.439813 -179.053929 
L 163.643868 -178.459984 
L 162.847924 -178.613753 
L 162.051979 -178.912841 
L 161.256034 -178.792593 
L 160.46009 -177.927935 
L 159.664145 -176.307599 
L 158.8682 -174.174779 
L 158.072256 -171.902006 
L 157.276311 -169.861845 
L 156.480366 -168.316422 
L 155.684422 -167.346049 
L 154.888477 -166.843871 
L 154.092532 -166.584494 
L 153.296588 -166.350958 
L 152.500643 -166.083511 
L 151.704698 -165.975476 
L 150.908753 -166.420403 
L 150.112809 -167.773755 
L 149.316864 -170.02644 
L 148.520919 -172.612572 
L 147.724975 -174.544878 
L 146.92903 -174.841304 
L 146.133085 -172.986131 
L 145.337141 -169.16503 
L 144.541196 -164.187597 
L 143.745251 -159.200139 
L 142.949307 -155.343539 
L 142.153362 -153.43382 
L 141.357417 -153.70978 
L 140.561473 -155.743565 
L 139.765528 -158.601622 
L 138.969583 -161.210042 
L 138.173639 -162.73925 
L 137.377694 -162.82988 
L 136.581749 -161.619818 
L 135.785805 -159.634158 
L 134.98986 -157.589016 
L 134.193915 -156.139224 
L 133.39797 -155.627629 
L 132.602026 -155.924259 
L 131.806081 -156.45147 
L 131.010136 -156.446053 
L 130.214192 -155.365756 
L 129.418247 -153.211634 
L 128.622302 -150.573643 
L 127.826358 -148.377415 
L 127.030413 -147.478174 
L 126.234468 -148.324185 
L 125.438524 -150.839622 
L 124.642579 -154.511101 
L 123.846634 -158.564001 
L 123.05069 -162.141209 
L 122.254745 -164.46789 
L 121.4588 -165.013044 
L 120.662856 -163.619384 
L 119.866911 -160.531126 
L 119.070966 -156.284989 
L 118.275021 -151.528987 
L 117.479077 -146.884433 
L 116.683132 -142.893328 
L 115.887187 -139.982779 
L 115.091243 -138.36845 
L 114.295298 -137.918708 
L 113.499353 -138.107305 
L 112.703409 -138.165696 
L 111.907464 -137.384228 
L 111.111519 -135.375696 
L 110.315575 -132.156184 
L 109.51963 -128.065693 
L 108.723685 -123.660379 
L 107.927741 -119.629301 
L 107.131796 -116.669726 
L 106.335851 -115.300026 
L 105.539907 -115.705211 
L 104.743962 -117.71417 
L 103.948017 -120.892013 
L 103.152073 -124.632416 
L 102.356128 -128.201525 
L 101.560183 -130.862594 
L 100.764238 -132.163025 
L 99.968294 -132.191714 
L 99.172349 -131.576979 
L 98.376404 -131.207579 
L 97.58046 -131.824196 
L 96.784515 -133.676261 
L 95.98857 -136.401455 
L 95.192626 -139.178967 
L 94.396681 -141.084068 
L 93.600736 -141.485115 
L 92.804792 -140.284139 
L 92.008847 -137.859106 
L 91.212902 -134.799273 
L 90.416958 -131.722959 
L 89.621013 -129.269081 
L 88.825068 -128.054075 
L 88.029124 -128.423816 
L 87.233179 -130.080722 
L 86.437234 -131.967517 
L 85.641289 -132.742843 
L 84.845345 -131.55762 
L 84.0494 -128.520465 
L 83.253455 -124.56687 
L 82.457511 -120.893339 
L 81.661566 -118.4326 
L 80.865621 -117.685232 
L 80.069677 -118.72859 
L 79.273732 -121.181109 
L 78.477787 -124.218403 
L 77.681843 -126.852497 
L 76.885898 -128.425935 
L 76.089953 -128.969567 
L 75.294009 -129.147528 
L 74.498064 -129.850558 
L 73.702119 -131.74452 
L 72.906175 -135.02687 
L 72.11023 -139.391388 
L 71.314285 -144.070568 
L 70.51834 -147.947573 
L 69.722396 -149.893922 
L 68.926451 -149.299659 
L 68.130506 -146.430467 
L 67.334562 -142.333578 
L 66.538617 -138.342229 
L 65.742672 -135.460608 
L 64.946728 -133.971245 
L 64.150783 -133.431127 
L 63.354838 -132.967126 
L 62.558894 -131.724948 
L 61.762949 -129.361912 
L 60.967004 -126.396593 
L 60.17106 -124.123836 
L 59.375115 -123.904038 
L 58.57917 -126.246105 
L 57.783226 -130.568511 
L 56.987281 -135.666245 
L 56.191336 -140.260625 
L 55.395392 -143.317357 
L 54.599447 -144.081254 
L 53.803502 -142.112207 
L 53.007557 -137.636145 
L 52.211613 -131.809702 
L 51.415668 -126.389954 
L 50.619723 -122.971115 
L 49.823779 -122.339831 
L 49.027834 -124.315021 
L 48.231889 -127.969928 
L 47.435945 -131.961558 
L 46.64 -134.897923 
z
" style="stroke: #e41a1c; stroke-opacity: 0.3"/>
    </defs>
    <g clip-path="url(#p929bd4e4fc)">
     <use xlink:href="#m51640c85a3" x="0" y="360" style="fill: #e41a1c; fill-opacity: 0.3; stroke: #e41a1c; stroke-opacity: 0.3"/>
    </g>
   </g>
   <g id="PolyCollection_2">
    <defs>
     <path id="m7de9f811b5" d="M 46.64 -135.621979 
L 46.64 -114.767018 
L 47.435945 -115.813086 
L 48.231889 -116.871665 
L 49.027834 -117.316118 
L 49.823779 -116.616282 
L 50.619723 -114.554187 
L 51.415668 -111.351677 
L 52.211613 -107.638977 
L 53.007557 -104.250448 
L 53.803502 -101.924219 
L 54.599447 -101.042228 
L 55.395392 -101.534541 
L 56.191336 -102.980006 
L 56.987281 -104.807523 
L 57.783226 -106.473915 
L 58.57917 -107.585555 
L 59.375115 -107.972507 
L 60.17106 -107.704052 
L 60.967004 -107.039667 
L 61.762949 -106.322413 
L 62.558894 -105.830662 
L 63.354838 -105.645212 
L 64.150783 -105.616248 
L 64.946728 -105.465225 
L 65.742672 -104.973803 
L 66.538617 -104.14558 
L 67.334562 -103.220138 
L 68.130506 -102.527412 
L 68.926451 -102.301596 
L 69.722396 -102.575127 
L 70.51834 -103.175482 
L 71.314285 -103.778836 
L 72.11023 -103.997613 
L 72.906175 -103.520271 
L 73.702119 -102.279179 
L 74.498064 -100.528178 
L 75.294009 -98.727015 
L 76.089953 -97.301161 
L 76.885898 -96.45391 
L 77.681843 -96.138762 
L 78.477787 -96.152161 
L 79.273732 -96.225588 
L 80.069677 -96.080619 
L 80.865621 -95.507822 
L 81.661566 -94.476352 
L 82.457511 -93.176748 
L 83.253455 -91.913004 
L 84.0494 -90.909686 
L 84.845345 -90.19257 
L 85.641289 -89.620384 
L 86.437234 -89.001771 
L 87.233179 -88.187921 
L 88.029124 -87.116882 
L 88.825068 -85.84826 
L 89.621013 -84.589923 
L 90.416958 -83.664961 
L 91.212902 -83.384128 
L 92.008847 -83.87888 
L 92.804792 -85.005929 
L 93.600736 -86.384122 
L 94.396681 -87.535054 
L 95.192626 -88.054676 
L 95.98857 -87.753503 
L 96.784515 -86.72679 
L 97.58046 -85.330863 
L 98.376404 -84.063971 
L 99.172349 -83.389344 
L 99.968294 -83.570006 
L 100.764238 -84.580055 
L 101.560183 -86.120035 
L 102.356128 -87.72308 
L 103.152073 -88.91166 
L 103.948017 -89.350844 
L 104.743962 -88.943875 
L 105.539907 -87.838139 
L 106.335851 -86.34995 
L 107.131796 -84.849864 
L 107.927741 -83.656685 
L 108.723685 -82.971464 
L 109.51963 -82.860094 
L 110.315575 -83.276554 
L 111.111519 -84.108479 
L 111.907464 -85.221896 
L 112.703409 -86.48725 
L 113.499353 -87.783763 
L 114.295298 -88.992561 
L 115.091243 -89.991233 
L 115.887187 -90.658235 
L 116.683132 -90.894058 
L 117.479077 -90.662636 
L 118.275021 -90.04171 
L 119.070966 -89.249685 
L 119.866911 -88.609671 
L 120.662856 -88.438433 
L 121.4588 -88.899914 
L 122.254745 -89.898177 
L 123.05069 -91.072626 
L 123.846634 -91.909253 
L 124.642579 -91.92695 
L 125.438524 -90.865883 
L 126.234468 -88.80744 
L 127.030413 -86.182549 
L 127.826358 -83.658878 
L 128.622302 -81.931327 
L 129.418247 -81.476503 
L 130.214192 -82.360504 
L 131.010136 -84.18549 
L 131.806081 -86.210553 
L 132.602026 -87.605126 
L 133.39797 -87.732298 
L 134.193915 -86.353584 
L 134.98986 -83.692613 
L 135.785805 -80.352736 
L 136.581749 -77.123895 
L 137.377694 -74.738674 
L 138.173639 -73.653913 
L 138.969583 -73.934891 
L 139.765528 -75.287353 
L 140.561473 -77.220739 
L 141.357417 -79.265385 
L 142.153362 -81.144709 
L 142.949307 -82.832878 
L 143.745251 -84.488271 
L 144.541196 -86.31064 
L 145.337141 -88.400904 
L 146.133085 -90.691632 
L 146.92903 -92.96683 
L 147.724975 -94.938823 
L 148.520919 -96.339891 
L 149.316864 -97.008601 
L 150.112809 -96.962178 
L 150.908753 -96.430872 
L 151.704698 -95.810789 
L 152.500643 -95.517174 
L 153.296588 -95.800398 
L 154.092532 -96.637317 
L 154.888477 -97.767727 
L 155.684422 -98.85006 
L 156.480366 -99.634563 
L 157.276311 -100.052644 
L 158.072256 -100.198252 
L 158.8682 -100.25065 
L 159.664145 -100.396496 
L 160.46009 -100.774333 
L 161.256034 -101.435932 
L 162.051979 -102.32392 
L 162.847924 -103.285124 
L 163.643868 -104.132415 
L 164.439813 -104.732915 
L 165.235758 -105.072372 
L 166.031702 -105.251682 
L 166.827647 -105.41374 
L 167.623592 -105.648022 
L 168.419537 -105.936158 
L 169.215481 -106.171577 
L 170.011426 -106.23251 
L 170.807371 -106.050889 
L 171.603315 -105.632972 
L 172.39926 -105.035917 
L 173.195205 -104.334189 
L 173.991149 -103.596654 
L 174.787094 -102.866466 
L 175.583039 -102.134454 
L 176.378983 -101.326668 
L 177.174928 -100.340632 
L 177.970873 -99.131203 
L 178.766817 -97.79502 
L 179.562762 -96.585268 
L 180.358707 -95.830782 
L 181.154651 -95.800925 
L 181.950596 -96.587612 
L 182.746541 -98.052284 
L 183.542485 -99.84712 
L 184.33843 -101.500219 
L 185.134375 -102.547096 
L 185.93032 -102.673662 
L 186.726264 -101.817363 
L 187.522209 -100.182347 
L 188.318154 -98.165729 
L 189.114098 -96.233443 
L 189.910043 -94.793297 
L 190.705988 -94.093555 
L 191.501932 -94.162322 
L 192.297877 -94.809377 
L 193.093822 -95.705598 
L 193.889766 -96.516171 
L 194.685711 -97.024359 
L 195.481656 -97.18506 
L 196.2776 -97.094028 
L 197.073545 -96.908327 
L 197.86949 -96.768334 
L 198.665434 -96.752713 
L 199.461379 -96.871579 
L 200.257324 -97.08821 
L 201.053269 -97.355116 
L 201.849213 -97.648384 
L 202.645158 -97.985466 
L 203.441103 -98.418932 
L 204.237047 -99.009323 
L 205.032992 -99.789124 
L 205.828937 -100.735852 
L 206.624881 -101.77263 
L 207.420826 -102.802668 
L 208.216771 -103.758583 
L 209.012715 -104.628413 
L 209.80866 -105.435874 
L 210.604605 -106.195695 
L 211.400549 -106.888502 
L 212.196494 -107.47707 
L 212.992439 -107.941165 
L 213.788383 -108.292333 
L 214.584328 -108.560982 
L 215.380273 -108.781983 
L 216.176218 -108.997223 
L 216.972162 -109.258335 
L 217.768107 -109.599062 
L 218.564052 -109.980704 
L 219.359996 -110.258918 
L 220.155941 -110.216228 
L 220.951886 -109.652603 
L 221.74783 -108.481221 
L 222.543775 -106.778787 
L 223.33972 -104.775816 
L 224.135664 -102.800595 
L 224.931609 -101.19499 
L 225.727554 -100.219064 
L 226.523498 -99.970463 
L 227.319443 -100.353363 
L 228.115388 -101.118014 
L 228.911332 -101.955393 
L 229.707277 -102.600583 
L 230.503222 -102.899225 
L 231.299166 -102.819887 
L 232.095111 -102.425514 
L 232.891056 -101.828545 
L 233.687001 -101.146716 
L 234.482945 -100.46633 
L 235.27889 -99.820197 
L 236.074835 -99.189579 
L 236.870779 -98.527833 
L 237.666724 -97.787575 
L 238.462669 -96.93457 
L 239.258613 -95.948646 
L 240.054558 -94.822304 
L 240.850503 -93.562416 
L 241.646447 -92.193255 
L 242.442392 -90.761979 
L 243.238337 -89.350107 
L 244.034281 -88.079782 
L 244.830226 -87.084531 
L 245.626171 -86.430809 
L 246.422115 -86.033391 
L 247.21806 -85.640136 
L 248.014005 -84.91853 
L 248.80995 -83.596787 
L 249.605894 -81.579306 
L 250.401839 -78.994815 
L 251.197784 -76.183501 
L 251.993728 -73.631728 
L 252.789673 -71.843832 
L 253.585618 -71.159974 
L 254.381562 -71.593874 
L 255.177507 -72.796817 
L 255.973452 -74.192998 
L 256.769396 -75.21942 
L 257.565341 -75.5418 
L 258.361286 -75.155438 
L 259.15723 -74.360719 
L 259.953175 -73.648119 
L 260.74912 -73.531168 
L 261.545064 -74.364313 
L 262.341009 -76.196992 
L 263.136954 -78.728392 
L 263.932898 -81.401394 
L 264.728843 -83.607481 
L 265.524788 -84.912731 
L 266.320733 -85.203805 
L 267.116677 -84.698993 
L 267.912622 -83.838175 
L 268.708567 -83.1126 
L 269.504511 -82.903385 
L 270.300456 -83.378875 
L 271.096401 -84.473712 
L 271.892345 -85.945432 
L 272.68829 -87.479983 
L 273.484235 -88.802232 
L 274.280179 -89.750237 
L 275.076124 -90.293036 
L 275.872069 -90.499059 
L 276.668013 -90.480203 
L 277.463958 -90.338682 
L 278.259903 -90.135477 
L 279.055847 -89.887333 
L 279.851792 -89.586229 
L 280.647737 -89.225481 
L 281.443682 -88.816895 
L 282.239626 -88.394221 
L 283.035571 -88.010196 
L 283.831516 -87.735622 
L 284.62746 -87.65765 
L 285.423405 -87.864836 
L 286.21935 -88.414076 
L 287.015294 -89.294482 
L 287.811239 -90.412958 
L 288.607184 -91.614074 
L 289.403128 -92.724042 
L 290.199073 -93.595543 
L 290.995018 -94.137429 
L 291.790962 -94.329547 
L 292.586907 -94.226713 
L 293.382852 -93.94352 
L 294.178796 -93.606982 
L 294.974741 -93.287842 
L 295.770686 -92.95241 
L 296.56663 -92.472969 
L 297.362575 -91.695146 
L 298.15852 -90.525128 
L 298.954465 -88.995721 
L 299.750409 -87.287028 
L 300.546354 -85.691519 
L 301.342299 -84.52341 
L 302.138243 -83.996263 
L 302.934188 -84.126379 
L 303.730133 -84.723237 
L 304.526077 -85.47746 
L 305.322022 -86.090046 
L 306.117967 -86.369727 
L 306.913911 -86.267657 
L 307.709856 -85.864628 
L 308.505801 -85.333648 
L 309.301745 -84.881558 
L 310.09769 -84.668418 
L 310.893635 -84.732592 
L 311.689579 -84.972893 
L 312.485524 -85.210547 
L 313.281469 -85.295356 
L 314.077414 -85.188403 
L 314.873358 -84.971808 
L 315.669303 -84.785293 
L 316.465248 -84.732028 
L 317.261192 -84.807468 
L 318.057137 -84.886591 
L 318.853082 -84.773286 
L 319.649026 -84.287806 
L 320.444971 -83.354457 
L 321.240916 -82.051045 
L 322.03686 -80.591144 
L 322.832805 -79.234847 
L 323.62875 -78.163401 
L 324.424694 -77.384566 
L 325.220639 -76.727909 
L 326.016584 -75.939809 
L 326.812528 -74.828622 
L 327.608473 -73.382965 
L 328.404418 -71.807997 
L 329.200363 -70.469884 
L 329.996307 -69.770251 
L 330.792252 -69.988287 
L 331.588197 -71.146725 
L 332.384141 -72.967695 
L 333.180086 -74.954761 
L 333.976031 -76.573271 
L 334.771975 -77.448149 
L 335.56792 -77.495384 
L 336.363865 -76.943928 
L 337.159809 -76.248742 
L 337.955754 -75.921924 
L 338.751699 -76.33077 
L 339.547643 -77.536312 
L 340.343588 -79.247307 
L 341.139533 -80.919188 
L 341.935477 -81.956092 
L 342.731422 -81.926611 
L 343.527367 -80.709774 
L 344.323311 -78.53063 
L 345.119256 -75.888058 
L 345.915201 -73.404101 
L 346.711146 -71.639314 
L 347.50709 -70.927682 
L 348.303035 -71.283423 
L 349.09898 -72.412886 
L 349.894924 -73.82907 
L 350.690869 -75.027201 
L 351.486814 -75.653312 
L 352.282758 -75.598393 
L 353.078703 -74.985772 
L 353.874648 -74.073245 
L 354.670592 -73.12797 
L 355.466537 -72.330337 
L 356.262482 -71.737478 
L 357.058426 -71.311447 
L 357.854371 -70.996236 
L 358.650316 -70.80585 
L 359.44626 -70.871874 
L 360.242205 -71.413839 
L 361.03815 -72.640882 
L 361.834095 -74.636291 
L 362.630039 -77.283809 
L 363.425984 -80.266892 
L 364.221929 -83.13901 
L 365.017873 -85.445008 
L 365.813818 -86.862075 
L 366.609763 -87.312663 
L 367.405707 -86.994618 
L 368.201652 -86.299962 
L 368.997597 -85.649582 
L 369.793541 -85.318091 
L 370.589486 -85.327093 
L 371.385431 -85.449535 
L 372.181375 -85.320341 
L 372.97732 -84.609964 
L 373.773265 -83.194934 
L 374.569209 -81.256575 
L 375.365154 -79.259796 
L 376.161099 -77.805983 
L 376.957043 -77.406218 
L 377.752988 -78.262347 
L 378.548933 -80.151264 
L 379.344878 -82.471996 
L 380.140822 -84.446901 
L 380.936767 -85.396751 
L 381.732712 -84.974138 
L 382.528656 -83.26455 
L 383.324601 -80.730709 
L 384.120546 -78.037766 
L 384.91649 -75.829986 
L 385.712435 -74.537821 
L 386.50838 -74.282567 
L 387.304324 -74.909501 
L 388.100269 -76.123691 
L 388.896214 -77.654186 
L 389.692158 -79.366256 
L 390.488103 -81.279495 
L 391.284048 -83.498923 
L 392.079992 -86.099306 
L 392.875937 -89.01941 
L 393.671882 -92.024715 
L 394.467827 -94.770873 
L 395.263771 -96.941829 
L 396.059716 -98.381945 
L 396.855661 -99.145159 
L 397.651605 -99.44929 
L 398.44755 -99.583443 
L 399.243495 -99.816719 
L 400.039439 -100.318354 
L 400.835384 -101.088355 
L 401.631329 -101.932053 
L 402.427273 -102.528649 
L 403.223218 -102.594474 
L 404.019163 -102.060204 
L 404.815107 -101.143241 
L 405.611052 -100.25901 
L 406.406997 -99.834157 
L 407.202941 -100.140716 
L 407.998886 -101.225866 
L 408.794831 -102.935651 
L 409.590775 -104.990362 
L 410.38672 -107.075198 
L 411.182665 -108.927754 
L 411.97861 -110.405069 
L 412.774554 -111.506826 
L 413.570499 -112.341489 
L 413.570499 -158.914182 
L 413.570499 -158.914182 
L 412.774554 -157.977729 
L 411.97861 -156.833978 
L 411.182665 -155.392408 
L 410.38672 -153.620216 
L 409.590775 -151.609257 
L 408.794831 -149.595293 
L 407.998886 -147.897903 
L 407.202941 -146.795768 
L 406.406997 -146.403198 
L 405.611052 -146.622296 
L 404.815107 -147.194278 
L 404.019163 -147.806591 
L 403.223218 -148.189074 
L 402.427273 -148.168815 
L 401.631329 -147.702346 
L 400.835384 -146.896871 
L 400.039439 -145.985695 
L 399.243495 -145.224772 
L 398.44755 -144.743887 
L 397.651605 -144.447184 
L 396.855661 -144.044892 
L 396.059716 -143.204567 
L 395.263771 -141.71895 
L 394.467827 -139.587906 
L 393.671882 -136.989709 
L 392.875937 -134.188244 
L 392.079992 -131.434343 
L 391.284048 -128.893905 
L 390.488103 -126.620136 
L 389.692158 -124.582881 
L 388.896214 -122.747487 
L 388.100269 -121.161622 
L 387.304324 -119.994202 
L 386.50838 -119.495129 
L 385.712435 -119.889362 
L 384.91649 -121.250421 
L 384.120546 -123.406689 
L 383.324601 -125.926908 
L 382.528656 -128.209864 
L 381.732712 -129.662595 
L 380.936767 -129.903749 
L 380.140822 -128.905296 
L 379.344878 -127.010368 
L 378.548933 -124.822886 
L 377.752988 -123.014966 
L 376.957043 -122.118718 
L 376.161099 -122.367586 
L 375.365154 -123.637704 
L 374.569209 -125.510852 
L 373.773265 -127.439473 
L 372.97732 -128.953021 
L 372.181375 -129.823111 
L 371.385431 -130.118672 
L 370.589486 -130.130173 
L 369.793541 -130.201787 
L 368.997597 -130.551732 
L 368.201652 -131.16197 
L 367.405707 -131.779861 
L 366.609763 -132.020616 
L 365.813818 -131.521214 
L 365.017873 -130.086721 
L 364.221929 -127.778968 
L 363.425984 -124.913922 
L 362.630039 -121.961683 
L 361.834095 -119.385231 
L 361.03815 -117.49058 
L 360.242205 -116.357676 
L 359.44626 -115.872176 
L 358.650316 -115.82192 
L 357.854371 -116.001111 
L 357.058426 -116.281604 
L 356.262482 -116.634841 
L 355.466537 -117.102337 
L 354.670592 -117.72648 
L 353.874648 -118.475154 
L 353.078703 -119.206157 
L 352.282758 -119.699346 
L 351.486814 -119.744053 
L 350.690869 -119.238895 
L 349.894924 -118.260993 
L 349.09898 -117.079405 
L 348.303035 -116.102894 
L 347.50709 -115.765689 
L 346.711146 -116.377413 
L 345.915201 -117.988359 
L 345.119256 -120.329245 
L 344.323311 -122.864321 
L 343.527367 -124.952866 
L 342.731422 -126.064445 
L 341.935477 -125.96263 
L 341.139533 -124.780793 
L 340.343588 -122.961658 
L 339.547643 -121.092759 
L 338.751699 -119.706112 
L 337.955754 -119.108607 
L 337.159809 -119.288804 
L 336.363865 -119.927564 
L 335.56792 -120.519681 
L 334.771975 -120.574028 
L 333.976031 -119.812428 
L 333.180086 -118.27753 
L 332.384141 -116.307859 
L 331.588197 -114.406404 
L 330.792252 -113.066666 
L 329.996307 -112.617144 
L 329.200363 -113.127763 
L 328.404418 -114.407113 
L 327.608473 -116.095561 
L 326.812528 -117.816537 
L 326.016584 -119.312687 
L 325.220639 -120.504466 
L 324.424694 -121.461608 
L 323.62875 -122.324116 
L 322.832805 -123.217714 
L 322.03686 -124.193148 
L 321.240916 -125.204036 
L 320.444971 -126.129332 
L 319.649026 -126.834646 
L 318.853082 -127.246003 
L 318.057137 -127.393714 
L 317.261192 -127.396378 
L 316.465248 -127.394193 
L 315.669303 -127.473783 
L 314.873358 -127.628235 
L 314.077414 -127.770522 
L 313.281469 -127.787564 
L 312.485524 -127.6048 
L 311.689579 -127.232524 
L 310.893635 -126.776589 
L 310.09769 -126.406647 
L 309.301745 -126.285017 
L 308.505801 -126.476239 
L 307.709856 -126.88148 
L 306.913911 -127.252465 
L 306.117967 -127.304406 
L 305.322022 -126.873986 
L 304.526077 -126.024391 
L 303.730133 -125.032619 
L 302.934188 -124.274401 
L 302.138243 -124.080235 
L 301.342299 -124.629448 
L 300.546354 -125.903907 
L 299.750409 -127.696456 
L 298.954465 -129.672017 
L 298.15852 -131.474732 
L 297.362575 -132.845433 
L 296.56663 -133.693831 
L 295.770686 -134.093596 
L 294.974741 -134.216393 
L 294.178796 -134.247016 
L 293.382852 -134.312714 
L 292.586907 -134.440958 
L 291.790962 -134.554474 
L 290.995018 -134.511198 
L 290.199073 -134.1779 
L 289.403128 -133.498483 
L 288.607184 -132.517364 
L 287.811239 -131.352689 
L 287.015294 -130.149408 
L 286.21935 -129.045224 
L 285.423405 -128.157228 
L 284.62746 -127.574564 
L 283.831516 -127.343772 
L 283.035571 -127.451366 
L 282.239626 -127.820679 
L 281.443682 -128.332652 
L 280.647737 -128.861403 
L 279.851792 -129.306587 
L 279.055847 -129.61105 
L 278.259903 -129.761411 
L 277.463958 -129.772792 
L 276.668013 -129.661585 
L 275.872069 -129.417001 
L 275.076124 -128.988342 
L 274.280179 -128.301275 
L 273.484235 -127.301807 
L 272.68829 -126.009937 
L 271.892345 -124.555891 
L 271.096401 -123.174452 
L 270.300456 -122.146057 
L 269.504511 -121.695057 
L 268.708567 -121.880638 
L 267.912622 -122.531871 
L 267.116677 -123.269611 
L 266.320733 -123.621456 
L 265.524788 -123.189772 
L 264.728843 -121.804402 
L 263.932898 -119.598344 
L 263.136954 -116.979449 
L 262.341009 -114.509216 
L 261.545064 -112.724034 
L 260.74912 -111.948872 
L 259.953175 -112.165856 
L 259.15723 -113.00157 
L 258.361286 -113.864963 
L 257.565341 -114.194673 
L 256.769396 -113.701716 
L 255.973452 -112.485347 
L 255.177507 -110.972762 
L 254.381562 -109.735778 
L 253.585618 -109.287973 
L 252.789673 -109.932429 
L 251.993728 -111.676507 
L 251.197784 -114.220847 
L 250.401839 -117.044795 
L 249.605894 -119.587866 
L 248.80995 -121.45767 
L 248.014005 -122.554333 
L 247.21806 -123.050963 
L 246.422115 -123.26786 
L 245.626171 -123.533654 
L 244.830226 -124.095885 
L 244.034281 -125.079124 
L 243.238337 -126.468969 
L 242.442392 -128.125962 
L 241.646447 -129.843705 
L 240.850503 -131.432156 
L 240.054558 -132.777007 
L 239.258613 -133.846265 
L 238.462669 -134.660779 
L 237.666724 -135.265277 
L 236.870779 -135.718689 
L 236.074835 -136.095903 
L 235.27889 -136.485141 
L 234.482945 -136.973002 
L 233.687001 -137.616323 
L 232.891056 -138.405736 
L 232.095111 -139.238121 
L 231.299166 -139.925755 
L 230.503222 -140.257771 
L 229.707277 -140.094215 
L 228.911332 -139.445129 
L 228.115388 -138.492527 
L 227.319443 -137.5453 
L 226.523498 -136.94864 
L 225.727554 -136.981002 
L 224.931609 -137.766945 
L 224.135664 -139.229275 
L 223.33972 -141.101535 
L 222.543775 -143.008197 
L 221.74783 -144.588179 
L 220.951886 -145.607827 
L 220.155941 -146.012357 
L 219.359996 -145.903472 
L 218.564052 -145.473108 
L 217.768107 -144.933233 
L 216.972162 -144.459108 
L 216.176218 -144.144159 
L 215.380273 -143.973994 
L 214.584328 -143.843764 
L 213.788383 -143.625298 
L 212.992439 -143.243267 
L 212.196494 -142.702599 
L 211.400549 -142.050757 
L 210.604605 -141.318272 
L 209.80866 -140.496755 
L 209.012715 -139.56822 
L 208.216771 -138.546665 
L 207.420826 -137.48941 
L 206.624881 -136.473625 
L 205.828937 -135.565155 
L 205.032992 -134.802056 
L 204.237047 -134.190503 
L 203.441103 -133.703526 
L 202.645158 -133.286332 
L 201.849213 -132.877725 
L 201.053269 -132.443954 
L 200.257324 -132.005738 
L 199.461379 -131.637865 
L 198.665434 -131.434 
L 197.86949 -131.448846 
L 197.073545 -131.646923 
L 196.2776 -131.8908 
L 195.481656 -131.983556 
L 194.685711 -131.74929 
L 193.889766 -131.114111 
L 193.093822 -130.153382 
L 192.297877 -129.092026 
L 191.501932 -128.260862 
L 190.705988 -128.012734 
L 189.910043 -128.605445 
L 189.114098 -130.081442 
L 188.318154 -132.202015 
L 187.522209 -134.488484 
L 186.726264 -136.368773 
L 185.93032 -137.365926 
L 185.134375 -137.249478 
L 184.33843 -136.100747 
L 183.542485 -134.281067 
L 182.746541 -132.316853 
L 181.950596 -130.734828 
L 181.154651 -129.902666 
L 180.358707 -129.938228 
L 179.562762 -130.720371 
L 178.766817 -131.978164 
L 177.970873 -133.400805 
L 177.174928 -134.72434 
L 176.378983 -135.786639 
L 175.583039 -136.553846 
L 174.787094 -137.10751 
L 173.991149 -137.581902 
L 173.195205 -138.072944 
L 172.39926 -138.574311 
L 171.603315 -138.989524 
L 170.807371 -139.211644 
L 170.011426 -139.20562 
L 169.215481 -139.030585 
L 168.419537 -138.794221 
L 167.623592 -138.584223 
L 166.827647 -138.426547 
L 166.031702 -138.283506 
L 165.235758 -138.075016 
L 164.439813 -137.707008 
L 163.643868 -137.104678 
L 162.847924 -136.252107 
L 162.051979 -135.226048 
L 161.256034 -134.19546 
L 160.46009 -133.36503 
L 159.664145 -132.875175 
L 158.8682 -132.711712 
L 158.072256 -132.69184 
L 157.276311 -132.552276 
L 156.480366 -132.09117 
L 155.684422 -131.273617 
L 154.888477 -130.238589 
L 154.092532 -129.218742 
L 153.296588 -128.43894 
L 152.500643 -128.044762 
L 151.704698 -128.062379 
L 150.908753 -128.374008 
L 150.112809 -128.715859 
L 149.316864 -128.732234 
L 148.520919 -128.104562 
L 147.724975 -126.703757 
L 146.92903 -124.66354 
L 146.133085 -122.31403 
L 145.337141 -120.010963 
L 144.541196 -117.964301 
L 143.745251 -116.163593 
L 142.949307 -114.428712 
L 142.153362 -112.545341 
L 141.357417 -110.415653 
L 140.561473 -108.158852 
L 139.765528 -106.119593 
L 138.969583 -104.777621 
L 138.173639 -104.586897 
L 137.377694 -105.795981 
L 136.581749 -108.311497 
L 135.785805 -111.662151 
L 134.98986 -115.096753 
L 134.193915 -117.802434 
L 133.39797 -119.171477 
L 132.602026 -119.00985 
L 131.806081 -117.598301 
L 131.010136 -115.583735 
L 130.214192 -113.753578 
L 129.418247 -112.782701 
L 128.622302 -113.033574 
L 127.826358 -114.462042 
L 127.030413 -116.651896 
L 126.234468 -118.968331 
L 125.438524 -120.781109 
L 124.642579 -121.676058 
L 123.846634 -121.572944 
L 123.05069 -120.709639 
L 122.254745 -119.515205 
L 121.4588 -118.43821 
L 120.662856 -117.799541 
L 119.866911 -117.711713 
L 119.070966 -118.073348 
L 118.275021 -118.625395 
L 117.479077 -119.047749 
L 116.683132 -119.069718 
L 115.887187 -118.557598 
L 115.091243 -117.543343 
L 114.295298 -116.184484 
L 113.499353 -114.682832 
L 112.703409 -113.2113 
L 111.907464 -111.887585 
L 111.111519 -110.795977 
L 110.315575 -110.024278 
L 109.51963 -109.678456 
L 108.723685 -109.85799 
L 107.927741 -110.599643 
L 107.131796 -111.817021 
L 106.335851 -113.272929 
L 105.539907 -114.61284 
L 104.743962 -115.45907 
L 103.948017 -115.532692 
L 103.152073 -114.755162 
L 102.356128 -113.290678 
L 101.560183 -111.512525 
L 100.764238 -109.898854 
L 99.968294 -108.884505 
L 99.172349 -108.716658 
L 98.376404 -109.369158 
L 97.58046 -110.549462 
L 96.784515 -111.794413 
L 95.98857 -112.621029 
L 95.192626 -112.68527 
L 94.396681 -111.898277 
L 93.600736 -110.454621 
L 92.804792 -108.75488 
L 92.008847 -107.255921 
L 91.212902 -106.319514 
L 90.416958 -106.116595 
L 89.621013 -106.598395 
L 88.825068 -107.521434 
L 88.029124 -108.53013 
L 87.233179 -109.303393 
L 86.437234 -109.710006 
L 85.641289 -109.865266 
L 84.845345 -110.032714 
L 84.0494 -110.43858 
L 83.253455 -111.143391 
L 82.457511 -112.04605 
L 81.661566 -112.961929 
L 80.865621 -113.689296 
L 80.069677 -114.059145 
L 79.273732 -114.017503 
L 78.477787 -113.716748 
L 77.681843 -113.501968 
L 76.885898 -113.739724 
L 76.089953 -114.599252 
L 75.294009 -115.965611 
L 74.498064 -117.530586 
L 73.702119 -118.948305 
L 72.906175 -119.94316 
L 72.11023 -120.355921 
L 71.314285 -120.186199 
L 70.51834 -119.633932 
L 69.722396 -119.052438 
L 68.926451 -118.786927 
L 68.130506 -119.004199 
L 67.334562 -119.641105 
L 66.538617 -120.48915 
L 65.742672 -121.323405 
L 64.946728 -121.986735 
L 64.150783 -122.423075 
L 63.354838 -122.694442 
L 62.558894 -122.966437 
L 61.762949 -123.424319 
L 60.967004 -124.138753 
L 60.17106 -124.956547 
L 59.375115 -125.506439 
L 58.57917 -125.361597 
L 57.783226 -124.288671 
L 56.987281 -122.440361 
L 56.191336 -120.377219 
L 55.395392 -118.884723 
L 54.599447 -118.656443 
L 53.803502 -120.014329 
L 53.007557 -122.811149 
L 52.211613 -126.512672 
L 51.415668 -130.37946 
L 50.619723 -133.682075 
L 49.823779 -135.900489 
L 49.027834 -136.863564 
L 48.231889 -136.785509 
L 47.435945 -136.172207 
L 46.64 -135.621979 
z
" style="stroke: #377eb8; stroke-opacity: 0.3"/>
    </defs>
    <g clip-path="url(#p929bd4e4fc)">
     <use xlink:href="#m7de9f811b5" x="0" y="360" style="fill: #377eb8; fill-opacity: 0.3; stroke: #377eb8; stroke-opacity: 0.3"/>
    </g>
   </g>
   <g id="patch_3">
    <path d="M 229.866466 318.04 
L 229.866466 71.732 
L 331.747385 71.732 
L 331.747385 318.04 
z
" clip-path="url(#p929bd4e4fc)" style="fill: #808080; opacity: 0.3"/>
   </g>
   <g id="matplotlib.axis_1">
    <g id="xtick_1">
     <g id="line2d_1">
      <defs>
       <path id="m7ef957b620" d="M 0 0 
L 0 3.5 
" style="stroke: #000000; stroke-width: 0.8"/>
      </defs>
      <g>
       <use xlink:href="#m7ef957b620" x="87.233179" y="318.04" style="stroke: #000000; stroke-width: 0.8"/>
      </g>
     </g>
     <g id="text_1">
      <!-- 0.0 -->
      <g transform="translate(79.281616 332.638438)scale(0.1 -0.1)">
       <defs>
        <path id="DejaVuSans-30" d="M 2034 4250 
Q 1547 4250 1301 3770 
Q 1056 3291 1056 2328 
Q 1056 1369 1301 889 
Q 1547 409 2034 409 
Q 2525 409 2770 889 
Q 3016 1369 3016 2328 
Q 3016 3291 2770 3770 
Q 2525 4250 2034 4250 
z
M 2034 4750 
Q 2819 4750 3233 4129 
Q 3647 3509 3647 2328 
Q 3647 1150 3233 529 
Q 2819 -91 2034 -91 
Q 1250 -91 836 529 
Q 422 1150 422 2328 
Q 422 3509 836 4129 
Q 1250 4750 2034 4750 
z
" transform="scale(0.015625)"/>
        <path id="DejaVuSans-2e" d="M 684 794 
L 1344 794 
L 1344 0 
L 684 0 
L 684 794 
z
" transform="scale(0.015625)"/>
       </defs>
       <use xlink:href="#DejaVuSans-30"/>
       <use xlink:href="#DejaVuSans-2e" x="63.623047"/>
       <use xlink:href="#DejaVuSans-30" x="95.410156"/>
      </g>
     </g>
    </g>
    <g id="xtick_2">
     <g id="line2d_2">
      <g>
       <use xlink:href="#m7ef957b620" x="168.737914" y="318.04" style="stroke: #000000; stroke-width: 0.8"/>
      </g>
     </g>
     <g id="text_2">
      <!-- 0.2 -->
      <g transform="translate(160.786352 332.638438)scale(0.1 -0.1)">
       <defs>
        <path id="DejaVuSans-32" d="M 1228 531 
L 3431 531 
L 3431 0 
L 469 0 
L 469 531 
Q 828 903 1448 1529 
Q 2069 2156 2228 2338 
Q 2531 2678 2651 2914 
Q 2772 3150 2772 3378 
Q 2772 3750 2511 3984 
Q 2250 4219 1831 4219 
Q 1534 4219 1204 4116 
Q 875 4013 500 3803 
L 500 4441 
Q 881 4594 1212 4672 
Q 1544 4750 1819 4750 
Q 2544 4750 2975 4387 
Q 3406 4025 3406 3419 
Q 3406 3131 3298 2873 
Q 3191 2616 2906 2266 
Q 2828 2175 2409 1742 
Q 1991 1309 1228 531 
z
" transform="scale(0.015625)"/>
       </defs>
       <use xlink:href="#DejaVuSans-30"/>
       <use xlink:href="#DejaVuSans-2e" x="63.623047"/>
       <use xlink:href="#DejaVuSans-32" x="95.410156"/>
      </g>
     </g>
    </g>
    <g id="xtick_3">
     <g id="line2d_3">
      <g>
       <use xlink:href="#m7ef957b620" x="250.24265" y="318.04" style="stroke: #000000; stroke-width: 0.8"/>
      </g>
     </g>
     <g id="text_3">
      <!-- 0.4 -->
      <g transform="translate(242.291087 332.638438)scale(0.1 -0.1)">
       <defs>
        <path id="DejaVuSans-34" d="M 2419 4116 
L 825 1625 
L 2419 1625 
L 2419 4116 
z
M 2253 4666 
L 3047 4666 
L 3047 1625 
L 3713 1625 
L 3713 1100 
L 3047 1100 
L 3047 0 
L 2419 0 
L 2419 1100 
L 313 1100 
L 313 1709 
L 2253 4666 
z
" transform="scale(0.015625)"/>
       </defs>
       <use xlink:href="#DejaVuSans-30"/>
       <use xlink:href="#DejaVuSans-2e" x="63.623047"/>
       <use xlink:href="#DejaVuSans-34" x="95.410156"/>
      </g>
     </g>
    </g>
    <g id="xtick_4">
     <g id="line2d_4">
      <g>
       <use xlink:href="#m7ef957b620" x="331.747385" y="318.04" style="stroke: #000000; stroke-width: 0.8"/>
      </g>
     </g>
     <g id="text_4">
      <!-- 0.6 -->
      <g transform="translate(323.795823 332.638438)scale(0.1 -0.1)">
       <defs>
        <path id="DejaVuSans-36" d="M 2113 2584 
Q 1688 2584 1439 2293 
Q 1191 2003 1191 1497 
Q 1191 994 1439 701 
Q 1688 409 2113 409 
Q 2538 409 2786 701 
Q 3034 994 3034 1497 
Q 3034 2003 2786 2293 
Q 2538 2584 2113 2584 
z
M 3366 4563 
L 3366 3988 
Q 3128 4100 2886 4159 
Q 2644 4219 2406 4219 
Q 1781 4219 1451 3797 
Q 1122 3375 1075 2522 
Q 1259 2794 1537 2939 
Q 1816 3084 2150 3084 
Q 2853 3084 3261 2657 
Q 3669 2231 3669 1497 
Q 3669 778 3244 343 
Q 2819 -91 2113 -91 
Q 1303 -91 875 529 
Q 447 1150 447 2328 
Q 447 3434 972 4092 
Q 1497 4750 2381 4750 
Q 2619 4750 2861 4703 
Q 3103 4656 3366 4563 
z
" transform="scale(0.015625)"/>
       </defs>
       <use xlink:href="#DejaVuSans-30"/>
       <use xlink:href="#DejaVuSans-2e" x="63.623047"/>
       <use xlink:href="#DejaVuSans-36" x="95.410156"/>
      </g>
     </g>
    </g>
    <g id="xtick_5">
     <g id="line2d_5">
      <g>
       <use xlink:href="#m7ef957b620" x="413.252121" y="318.04" style="stroke: #000000; stroke-width: 0.8"/>
      </g>
     </g>
     <g id="text_5">
      <!-- 0.8 -->
      <g transform="translate(405.300559 332.638438)scale(0.1 -0.1)">
       <defs>
        <path id="DejaVuSans-38" d="M 2034 2216 
Q 1584 2216 1326 1975 
Q 1069 1734 1069 1313 
Q 1069 891 1326 650 
Q 1584 409 2034 409 
Q 2484 409 2743 651 
Q 3003 894 3003 1313 
Q 3003 1734 2745 1975 
Q 2488 2216 2034 2216 
z
M 1403 2484 
Q 997 2584 770 2862 
Q 544 3141 544 3541 
Q 544 4100 942 4425 
Q 1341 4750 2034 4750 
Q 2731 4750 3128 4425 
Q 3525 4100 3525 3541 
Q 3525 3141 3298 2862 
Q 3072 2584 2669 2484 
Q 3125 2378 3379 2068 
Q 3634 1759 3634 1313 
Q 3634 634 3220 271 
Q 2806 -91 2034 -91 
Q 1263 -91 848 271 
Q 434 634 434 1313 
Q 434 1759 690 2068 
Q 947 2378 1403 2484 
z
M 1172 3481 
Q 1172 3119 1398 2916 
Q 1625 2713 2034 2713 
Q 2441 2713 2670 2916 
Q 2900 3119 2900 3481 
Q 2900 3844 2670 4047 
Q 2441 4250 2034 4250 
Q 1625 4250 1398 4047 
Q 1172 3844 1172 3481 
z
" transform="scale(0.015625)"/>
       </defs>
       <use xlink:href="#DejaVuSans-30"/>
       <use xlink:href="#DejaVuSans-2e" x="63.623047"/>
       <use xlink:href="#DejaVuSans-38" x="95.410156"/>
      </g>
     </g>
    </g>
    <g id="text_6">
     <!-- seconds -->
     <g transform="translate(209.667749 346.316563)scale(0.1 -0.1)">
      <defs>
       <path id="DejaVuSans-73" d="M 2834 3397 
L 2834 2853 
Q 2591 2978 2328 3040 
Q 2066 3103 1784 3103 
Q 1356 3103 1142 2972 
Q 928 2841 928 2578 
Q 928 2378 1081 2264 
Q 1234 2150 1697 2047 
L 1894 2003 
Q 2506 1872 2764 1633 
Q 3022 1394 3022 966 
Q 3022 478 2636 193 
Q 2250 -91 1575 -91 
Q 1294 -91 989 -36 
Q 684 19 347 128 
L 347 722 
Q 666 556 975 473 
Q 1284 391 1588 391 
Q 1994 391 2212 530 
Q 2431 669 2431 922 
Q 2431 1156 2273 1281 
Q 2116 1406 1581 1522 
L 1381 1569 
Q 847 1681 609 1914 
Q 372 2147 372 2553 
Q 372 3047 722 3315 
Q 1072 3584 1716 3584 
Q 2034 3584 2315 3537 
Q 2597 3491 2834 3397 
z
" transform="scale(0.015625)"/>
       <path id="DejaVuSans-65" d="M 3597 1894 
L 3597 1613 
L 953 1613 
Q 991 1019 1311 708 
Q 1631 397 2203 397 
Q 2534 397 2845 478 
Q 3156 559 3463 722 
L 3463 178 
Q 3153 47 2828 -22 
Q 2503 -91 2169 -91 
Q 1331 -91 842 396 
Q 353 884 353 1716 
Q 353 2575 817 3079 
Q 1281 3584 2069 3584 
Q 2775 3584 3186 3129 
Q 3597 2675 3597 1894 
z
M 3022 2063 
Q 3016 2534 2758 2815 
Q 2500 3097 2075 3097 
Q 1594 3097 1305 2825 
Q 1016 2553 972 2059 
L 3022 2063 
z
" transform="scale(0.015625)"/>
       <path id="DejaVuSans-63" d="M 3122 3366 
L 3122 2828 
Q 2878 2963 2633 3030 
Q 2388 3097 2138 3097 
Q 1578 3097 1268 2742 
Q 959 2388 959 1747 
Q 959 1106 1268 751 
Q 1578 397 2138 397 
Q 2388 397 2633 464 
Q 2878 531 3122 666 
L 3122 134 
Q 2881 22 2623 -34 
Q 2366 -91 2075 -91 
Q 1284 -91 818 406 
Q 353 903 353 1747 
Q 353 2603 823 3093 
Q 1294 3584 2113 3584 
Q 2378 3584 2631 3529 
Q 2884 3475 3122 3366 
z
" transform="scale(0.015625)"/>
       <path id="DejaVuSans-6f" d="M 1959 3097 
Q 1497 3097 1228 2736 
Q 959 2375 959 1747 
Q 959 1119 1226 758 
Q 1494 397 1959 397 
Q 2419 397 2687 759 
Q 2956 1122 2956 1747 
Q 2956 2369 2687 2733 
Q 2419 3097 1959 3097 
z
M 1959 3584 
Q 2709 3584 3137 3096 
Q 3566 2609 3566 1747 
Q 3566 888 3137 398 
Q 2709 -91 1959 -91 
Q 1206 -91 779 398 
Q 353 888 353 1747 
Q 353 2609 779 3096 
Q 1206 3584 1959 3584 
z
" transform="scale(0.015625)"/>
       <path id="DejaVuSans-6e" d="M 3513 2113 
L 3513 0 
L 2938 0 
L 2938 2094 
Q 2938 2591 2744 2837 
Q 2550 3084 2163 3084 
Q 1697 3084 1428 2787 
Q 1159 2491 1159 1978 
L 1159 0 
L 581 0 
L 581 3500 
L 1159 3500 
L 1159 2956 
Q 1366 3272 1645 3428 
Q 1925 3584 2291 3584 
Q 2894 3584 3203 3211 
Q 3513 2838 3513 2113 
z
" transform="scale(0.015625)"/>
       <path id="DejaVuSans-64" d="M 2906 2969 
L 2906 4863 
L 3481 4863 
L 3481 0 
L 2906 0 
L 2906 525 
Q 2725 213 2448 61 
Q 2172 -91 1784 -91 
Q 1150 -91 751 415 
Q 353 922 353 1747 
Q 353 2572 751 3078 
Q 1150 3584 1784 3584 
Q 2172 3584 2448 3432 
Q 2725 3281 2906 2969 
z
M 947 1747 
Q 947 1113 1208 752 
Q 1469 391 1925 391 
Q 2381 391 2643 752 
Q 2906 1113 2906 1747 
Q 2906 2381 2643 2742 
Q 2381 3103 1925 3103 
Q 1469 3103 1208 2742 
Q 947 2381 947 1747 
z
" transform="scale(0.015625)"/>
      </defs>
      <use xlink:href="#DejaVuSans-73"/>
      <use xlink:href="#DejaVuSans-65" x="52.099609"/>
      <use xlink:href="#DejaVuSans-63" x="113.623047"/>
      <use xlink:href="#DejaVuSans-6f" x="168.603516"/>
      <use xlink:href="#DejaVuSans-6e" x="229.785156"/>
      <use xlink:href="#DejaVuSans-64" x="293.164062"/>
      <use xlink:href="#DejaVuSans-73" x="356.640625"/>
     </g>
    </g>
   </g>
   <g id="matplotlib.axis_2">
    <g id="ytick_1">
     <g id="line2d_6">
      <defs>
       <path id="mc8d36119c2" d="M 0 0 
L -3.5 0 
" style="stroke: #000000; stroke-width: 0.8"/>
      </defs>
      <g>
       <use xlink:href="#mc8d36119c2" x="46.64" y="283.28271" style="stroke: #000000; stroke-width: 0.8"/>
      </g>
     </g>
     <g id="text_7">
      <!-- 1 -->
      <g transform="translate(24.897813 287.081928)scale(0.1 -0.1)">
       <defs>
        <path id="DejaVuSans-2212" d="M 678 2272 
L 4684 2272 
L 4684 1741 
L 678 1741 
L 678 2272 
z
" transform="scale(0.015625)"/>
        <path id="DejaVuSans-31" d="M 794 531 
L 1825 531 
L 1825 4091 
L 703 3866 
L 703 4441 
L 1819 4666 
L 2450 4666 
L 2450 531 
L 3481 531 
L 3481 0 
L 794 0 
L 794 531 
z
" transform="scale(0.015625)"/>
       </defs>
       <use xlink:href="#DejaVuSans-2212"/>
       <use xlink:href="#DejaVuSans-31" x="83.789062"/>
      </g>
     </g>
    </g>
    <g id="ytick_2">
     <g id="line2d_7">
      <g>
       <use xlink:href="#mc8d36119c2" x="46.64" y="248.454354" style="stroke: #000000; stroke-width: 0.8"/>
      </g>
     </g>
     <g id="text_8">
      <!-- 0 -->
      <g transform="translate(33.2775 252.253572)scale(0.1 -0.1)">
       <use xlink:href="#DejaVuSans-30"/>
      </g>
     </g>
    </g>
    <g id="ytick_3">
     <g id="line2d_8">
      <g>
       <use xlink:href="#mc8d36119c2" x="46.64" y="213.625998" style="stroke: #000000; stroke-width: 0.8"/>
      </g>
     </g>
     <g id="text_9">
      <!-- 1 -->
      <g transform="translate(33.2775 217.425216)scale(0.1 -0.1)">
       <use xlink:href="#DejaVuSans-31"/>
      </g>
     </g>
    </g>
    <g id="ytick_4">
     <g id="line2d_9">
      <g>
       <use xlink:href="#mc8d36119c2" x="46.64" y="178.797642" style="stroke: #000000; stroke-width: 0.8"/>
      </g>
     </g>
     <g id="text_10">
      <!-- 2 -->
      <g transform="translate(33.2775 182.59686)scale(0.1 -0.1)">
       <use xlink:href="#DejaVuSans-32"/>
      </g>
     </g>
    </g>
    <g id="ytick_5">
     <g id="line2d_10">
      <g>
       <use xlink:href="#mc8d36119c2" x="46.64" y="143.969285" style="stroke: #000000; stroke-width: 0.8"/>
      </g>
     </g>
     <g id="text_11">
      <!-- 3 -->
      <g transform="translate(33.2775 147.768504)scale(0.1 -0.1)">
       <defs>
        <path id="DejaVuSans-33" d="M 2597 2516 
Q 3050 2419 3304 2112 
Q 3559 1806 3559 1356 
Q 3559 666 3084 287 
Q 2609 -91 1734 -91 
Q 1441 -91 1130 -33 
Q 819 25 488 141 
L 488 750 
Q 750 597 1062 519 
Q 1375 441 1716 441 
Q 2309 441 2620 675 
Q 2931 909 2931 1356 
Q 2931 1769 2642 2001 
Q 2353 2234 1838 2234 
L 1294 2234 
L 1294 2753 
L 1863 2753 
Q 2328 2753 2575 2939 
Q 2822 3125 2822 3475 
Q 2822 3834 2567 4026 
Q 2313 4219 1838 4219 
Q 1578 4219 1281 4162 
Q 984 4106 628 3988 
L 628 4550 
Q 988 4650 1302 4700 
Q 1616 4750 1894 4750 
Q 2613 4750 3031 4423 
Q 3450 4097 3450 3541 
Q 3450 3153 3228 2886 
Q 3006 2619 2597 2516 
z
" transform="scale(0.015625)"/>
       </defs>
       <use xlink:href="#DejaVuSans-33"/>
      </g>
     </g>
    </g>
    <g id="ytick_6">
     <g id="line2d_11">
      <g>
       <use xlink:href="#mc8d36119c2" x="46.64" y="109.140929" style="stroke: #000000; stroke-width: 0.8"/>
      </g>
     </g>
     <g id="text_12">
      <!-- 4 -->
      <g transform="translate(33.2775 112.940148)scale(0.1 -0.1)">
       <use xlink:href="#DejaVuSans-34"/>
      </g>
     </g>
    </g>
    <g id="ytick_7">
     <g id="line2d_12">
      <g>
       <use xlink:href="#mc8d36119c2" x="46.64" y="74.312573" style="stroke: #000000; stroke-width: 0.8"/>
      </g>
     </g>
     <g id="text_13">
      <!-- 5 -->
      <g transform="translate(33.2775 78.111792)scale(0.1 -0.1)">
       <defs>
        <path id="DejaVuSans-35" d="M 691 4666 
L 3169 4666 
L 3169 4134 
L 1269 4134 
L 1269 2991 
Q 1406 3038 1543 3061 
Q 1681 3084 1819 3084 
Q 2600 3084 3056 2656 
Q 3513 2228 3513 1497 
Q 3513 744 3044 326 
Q 2575 -91 1722 -91 
Q 1428 -91 1123 -41 
Q 819 9 494 109 
L 494 744 
Q 775 591 1075 516 
Q 1375 441 1709 441 
Q 2250 441 2565 725 
Q 2881 1009 2881 1497 
Q 2881 1984 2565 2268 
Q 2250 2553 1709 2553 
Q 1456 2553 1204 2497 
Q 953 2441 691 2322 
L 691 4666 
z
" transform="scale(0.015625)"/>
       </defs>
       <use xlink:href="#DejaVuSans-35"/>
      </g>
     </g>
    </g>
    <g id="text_14">
     <!-- V -->
     <g transform="translate(18.818125 201.487562)rotate(-90)scale(0.1 -0.1)">
      <defs>
       <path id="DejaVuSans-b5" d="M 544 -1331 
L 544 3500 
L 1119 3500 
L 1119 1325 
Q 1119 872 1334 640 
Q 1550 409 1972 409 
Q 2434 409 2667 671 
Q 2900 934 2900 1459 
L 2900 3500 
L 3475 3500 
L 3475 806 
Q 3475 619 3529 530 
Q 3584 441 3700 441 
Q 3728 441 3778 458 
Q 3828 475 3916 513 
L 3916 50 
Q 3788 -22 3673 -56 
Q 3559 -91 3450 -91 
Q 3234 -91 3106 31 
Q 2978 153 2931 403 
Q 2775 156 2548 32 
Q 2322 -91 2016 -91 
Q 1697 -91 1473 31 
Q 1250 153 1119 397 
L 1119 -1331 
L 544 -1331 
z
" transform="scale(0.015625)"/>
       <path id="DejaVuSans-56" d="M 1831 0 
L 50 4666 
L 709 4666 
L 2188 738 
L 3669 4666 
L 4325 4666 
L 2547 0 
L 1831 0 
z
" transform="scale(0.015625)"/>
      </defs>
      <use xlink:href="#DejaVuSans-b5"/>
      <use xlink:href="#DejaVuSans-56" x="63.623047"/>
     </g>
    </g>
   </g>
   <g id="line2d_13">
    <path d="M 46.64 248.969586 
L 47.435945 251.319317 
L 49.027834 257.954095 
L 49.823779 259.523736 
L 50.619723 258.511609 
L 51.415668 254.771634 
L 53.803502 237.82797 
L 54.599447 235.32443 
L 55.395392 235.922436 
L 56.191336 239.246601 
L 57.783226 249.047942 
L 58.57917 252.632413 
L 59.375115 254.124624 
L 60.17106 253.550691 
L 60.967004 251.596497 
L 61.762949 249.239149 
L 62.558894 247.301326 
L 63.354838 246.117315 
L 64.946728 244.642523 
L 65.742672 243.041441 
L 66.538617 240.317276 
L 68.130506 233.051122 
L 68.926451 230.370442 
L 69.722396 229.598401 
L 70.51834 231.13648 
L 71.314285 234.695592 
L 72.906175 244.106262 
L 73.702119 247.859058 
L 74.498064 250.204064 
L 75.294009 251.323279 
L 76.089953 251.888224 
L 76.885898 252.71745 
L 77.681843 254.383511 
L 78.477787 256.938053 
L 79.273732 259.871374 
L 80.069677 262.321004 
L 80.865621 263.437705 
L 81.661566 262.75303 
L 82.457511 260.3962 
L 84.0494 253.813611 
L 84.845345 251.596185 
L 85.641289 250.985198 
L 86.437234 251.933338 
L 88.029124 255.664723 
L 88.825068 256.557223 
L 89.621013 255.931051 
L 90.416958 253.790461 
L 92.008847 247.519572 
L 92.804792 245.208928 
L 93.600736 244.404779 
L 94.396681 245.283695 
L 95.192626 247.522983 
L 96.784515 253.238986 
L 97.58046 255.281564 
L 98.376404 256.286612 
L 99.172349 256.406428 
L 99.968294 256.157526 
L 100.764238 256.23486 
L 101.560183 257.269144 
L 102.356128 259.601945 
L 103.152073 263.147491 
L 104.743962 271.481254 
L 105.539907 274.52373 
L 106.335851 275.772078 
L 107.131796 274.875597 
L 107.927741 271.976796 
L 109.51963 262.85541 
L 110.315575 258.445904 
L 111.111519 255.159719 
L 111.907464 253.318902 
L 112.703409 252.796389 
L 114.295298 253.476699 
L 115.091243 253.245305 
L 115.887187 251.859712 
L 116.683132 249.098777 
L 117.479077 245.096845 
L 119.866911 231.102922 
L 120.662856 228.127215 
L 121.4588 226.949626 
L 122.254745 227.746504 
L 123.05069 230.322069 
L 125.438524 241.973108 
L 126.234468 244.342015 
L 127.030413 244.982216 
L 127.826358 243.934032 
L 128.622302 241.693621 
L 129.418247 239.049337 
L 130.214192 236.813167 
L 131.010136 235.538369 
L 131.806081 235.329343 
L 133.39797 236.357589 
L 134.193915 236.270309 
L 134.98986 235.201699 
L 137.377694 229.529464 
L 138.173639 229.268315 
L 138.969583 230.61067 
L 141.357417 238.423452 
L 142.153362 238.882865 
L 142.949307 237.119212 
L 143.745251 233.37748 
L 145.337141 223.81299 
L 146.133085 220.327941 
L 146.92903 218.754612 
L 147.724975 219.126453 
L 148.520919 220.899103 
L 150.112809 225.239706 
L 150.908753 226.465224 
L 151.704698 226.809496 
L 152.500643 226.548427 
L 153.296588 226.099177 
L 154.092532 225.778182 
L 155.684422 225.492547 
L 156.480366 224.993368 
L 157.276311 223.898611 
L 158.072256 222.211002 
L 159.664145 218.437338 
L 160.46009 217.302823 
L 161.256034 217.049626 
L 162.051979 217.535696 
L 162.847924 218.275723 
L 163.643868 218.608024 
L 164.439813 217.936161 
L 165.235758 215.946013 
L 166.031702 212.710841 
L 169.215481 196.911681 
L 170.011426 194.169734 
L 171.603315 190.014448 
L 172.39926 188.30088 
L 173.195205 186.875006 
L 173.991149 185.952471 
L 174.787094 185.753122 
L 175.583039 186.337886 
L 177.174928 188.770645 
L 177.970873 189.559866 
L 178.766817 189.367638 
L 179.562762 187.993242 
L 180.358707 185.645238 
L 181.950596 180.548345 
L 182.746541 179.294578 
L 183.542485 179.566853 
L 184.33843 181.36405 
L 185.134375 184.284747 
L 186.726264 190.949696 
L 187.522209 193.640629 
L 188.318154 195.683493 
L 189.910043 198.967191 
L 190.705988 201.051807 
L 191.501932 203.80816 
L 194.685711 217.288146 
L 195.481656 219.030673 
L 196.2776 219.420474 
L 197.073545 218.416968 
L 197.86949 216.170147 
L 198.665434 212.991161 
L 200.257324 205.678305 
L 201.053269 202.621023 
L 201.849213 200.631088 
L 202.645158 200.005008 
L 203.441103 200.731947 
L 205.828937 205.587701 
L 206.624881 205.288151 
L 207.420826 202.967714 
L 208.216771 198.724231 
L 209.80866 187.841383 
L 210.604605 183.701634 
L 211.400549 181.861173 
L 212.196494 182.637445 
L 212.992439 185.506841 
L 213.788383 189.222045 
L 214.584328 192.18951 
L 215.380273 192.989295 
L 216.176218 190.86191 
L 216.972162 185.990495 
L 218.564052 172.984648 
L 219.359996 168.246518 
L 220.155941 166.471755 
L 220.951886 167.985756 
L 221.74783 172.142089 
L 223.33972 182.577062 
L 224.135664 185.80855 
L 224.931609 186.543937 
L 225.727554 184.937542 
L 227.319443 178.711147 
L 228.115388 176.627265 
L 228.911332 176.398492 
L 229.707277 178.078137 
L 232.095111 186.650183 
L 232.891056 187.523855 
L 233.687001 186.782337 
L 235.27889 183.090065 
L 236.074835 182.226603 
L 236.870779 183.177472 
L 237.666724 186.139414 
L 240.054558 199.437751 
L 240.850503 201.289826 
L 241.646447 200.401128 
L 242.442392 196.884303 
L 244.830226 180.925034 
L 245.626171 177.985459 
L 246.422115 177.357486 
L 247.21806 178.686573 
L 248.80995 183.261474 
L 249.605894 184.316679 
L 250.401839 183.649025 
L 251.197784 181.295708 
L 253.585618 170.908411 
L 254.381562 168.838565 
L 255.177507 167.978755 
L 255.973452 168.031572 
L 256.769396 168.462711 
L 257.565341 168.729823 
L 258.361286 168.483436 
L 259.15723 167.670406 
L 260.74912 165.384012 
L 261.545064 164.634829 
L 262.341009 164.444114 
L 263.136954 164.739659 
L 263.932898 165.214217 
L 264.728843 165.423978 
L 265.524788 164.934005 
L 266.320733 163.463914 
L 267.116677 160.990573 
L 269.504511 151.264008 
L 270.300456 149.147094 
L 271.096401 148.333287 
L 271.892345 148.836573 
L 272.68829 150.288017 
L 273.484235 151.994959 
L 274.280179 153.102462 
L 275.076124 152.825841 
L 275.872069 150.693608 
L 276.668013 146.725556 
L 279.055847 131.293573 
L 279.851792 128.543845 
L 280.647737 128.290463 
L 281.443682 130.515607 
L 282.239626 134.597072 
L 283.831516 144.057933 
L 284.62746 147.355421 
L 285.423405 148.917767 
L 286.21935 148.823503 
L 287.015294 147.610653 
L 287.811239 146.056937 
L 288.607184 144.910289 
L 289.403128 144.660401 
L 290.199073 145.419395 
L 290.995018 146.936027 
L 291.790962 148.720551 
L 292.586907 150.223365 
L 293.382852 151.003005 
L 294.178796 150.836883 
L 294.974741 149.756439 
L 296.56663 146.009625 
L 297.362575 144.191596 
L 298.15852 142.968935 
L 298.954465 142.624861 
L 299.750409 143.249242 
L 300.546354 144.694185 
L 302.138243 148.296687 
L 302.934188 149.232295 
L 303.730133 148.840868 
L 304.526077 146.878437 
L 305.322022 143.523077 
L 306.913911 135.44856 
L 307.709856 132.726294 
L 308.505801 132.086593 
L 309.301745 133.946579 
L 310.09769 138.151697 
L 313.281469 160.894469 
L 314.077414 163.409768 
L 314.873358 163.860544 
L 315.669303 162.53482 
L 316.465248 159.952619 
L 318.853082 150.529149 
L 319.649026 148.553584 
L 320.444971 147.873105 
L 321.240916 148.784257 
L 322.03686 151.392732 
L 322.832805 155.511518 
L 325.220639 170.3882 
L 326.016584 173.404831 
L 326.812528 174.601227 
L 327.608473 174.223654 
L 328.404418 173.042268 
L 329.200363 172.110669 
L 329.996307 172.403433 
L 330.792252 174.462133 
L 331.588197 178.189378 
L 333.180086 187.487729 
L 333.976031 191.024027 
L 334.771975 192.942278 
L 335.56792 193.345227 
L 336.363865 192.93239 
L 337.159809 192.701243 
L 337.955754 193.517838 
L 338.751699 195.728225 
L 340.343588 202.273907 
L 341.139533 204.403691 
L 341.935477 204.334989 
L 342.731422 201.658427 
L 343.527367 196.771365 
L 345.119256 185.140504 
L 345.915201 181.1994 
L 346.711146 179.761828 
L 347.50709 180.884714 
L 348.303035 183.93394 
L 349.894924 191.681029 
L 350.690869 194.665427 
L 351.486814 196.666555 
L 353.874648 200.526094 
L 355.466537 204.083058 
L 356.262482 205.370974 
L 357.058426 205.575612 
L 357.854371 204.419135 
L 358.650316 202.09174 
L 360.242205 196.760391 
L 361.03815 195.477258 
L 361.834095 195.824793 
L 362.630039 197.663213 
L 364.221929 202.726241 
L 365.017873 203.952159 
L 365.813818 203.369114 
L 366.609763 200.950911 
L 368.997597 189.820592 
L 369.793541 187.791268 
L 370.589486 187.375888 
L 371.385431 188.336058 
L 373.773265 193.683621 
L 374.569209 194.884018 
L 376.161099 196.679433 
L 376.957043 197.779748 
L 378.548933 200.361222 
L 379.344878 201.206393 
L 380.140822 201.296531 
L 380.936767 200.559939 
L 382.528656 198.038121 
L 383.324601 197.518513 
L 384.120546 198.249025 
L 384.91649 200.388718 
L 385.712435 203.648889 
L 387.304324 210.800936 
L 388.100269 213.243172 
L 388.896214 214.369908 
L 389.692158 214.23518 
L 390.488103 213.206868 
L 392.079992 210.418478 
L 392.875937 209.356481 
L 393.671882 208.65968 
L 394.467827 208.276581 
L 395.263771 208.170953 
L 396.059716 208.406898 
L 396.855661 209.142193 
L 397.651605 210.530222 
L 398.44755 212.580451 
L 400.039439 217.447411 
L 400.835384 219.122185 
L 401.631329 219.485608 
L 402.427273 218.205025 
L 403.223218 215.335152 
L 404.815107 206.847073 
L 405.611052 202.677284 
L 406.406997 199.419176 
L 407.202941 197.431402 
L 407.998886 196.81233 
L 408.794831 197.474331 
L 409.590775 199.241885 
L 410.38672 201.914469 
L 411.97861 208.973209 
L 412.774554 212.596233 
L 413.570499 215.564179 
L 413.570499 215.564179 
" clip-path="url(#p929bd4e4fc)" style="fill: none; stroke: #e41a1c; stroke-width: 1.5; stroke-linecap: square"/>
   </g>
   <g id="line2d_14">
    <path d="M 46.64 234.805502 
L 48.231889 233.171413 
L 49.027834 232.910159 
L 49.823779 233.741614 
L 50.619723 235.881869 
L 51.415668 239.134431 
L 53.007557 246.469202 
L 53.803502 249.030726 
L 54.599447 250.150665 
L 55.395392 249.790368 
L 56.191336 248.321388 
L 57.783226 244.618707 
L 58.57917 243.526424 
L 59.375115 243.260527 
L 60.17106 243.669701 
L 61.762949 245.126634 
L 62.558894 245.601451 
L 64.946728 246.27402 
L 65.742672 246.851396 
L 68.130506 249.234194 
L 68.926451 249.455738 
L 69.722396 249.186217 
L 71.314285 248.017483 
L 72.11023 247.823233 
L 72.906175 248.268284 
L 73.702119 249.386258 
L 76.089953 254.049793 
L 76.885898 254.903183 
L 77.681843 255.179635 
L 80.069677 254.930118 
L 80.865621 255.401441 
L 81.661566 256.28086 
L 83.253455 258.471803 
L 84.0494 259.325867 
L 84.845345 259.887358 
L 86.437234 260.644112 
L 87.233179 261.254343 
L 88.029124 262.176494 
L 89.621013 264.405841 
L 90.416958 265.109222 
L 91.212902 265.148179 
L 92.008847 264.4326 
L 92.804792 263.119595 
L 94.396681 260.283335 
L 95.192626 259.630027 
L 95.98857 259.812734 
L 96.784515 260.739398 
L 98.376404 263.283435 
L 99.172349 263.946999 
L 99.968294 263.772745 
L 100.764238 262.760545 
L 103.152073 258.166589 
L 103.948017 257.558232 
L 104.743962 257.798527 
L 105.539907 258.774511 
L 107.927741 262.871836 
L 108.723685 263.585273 
L 109.51963 263.730725 
L 110.315575 263.349584 
L 111.111519 262.547772 
L 111.907464 261.44526 
L 115.091243 256.232712 
L 115.887187 255.392084 
L 116.683132 255.018112 
L 117.479077 255.144807 
L 118.275021 255.666448 
L 119.070966 256.338483 
L 119.866911 256.839308 
L 120.662856 256.881013 
L 121.4588 256.330938 
L 123.846634 253.258901 
L 124.642579 253.198496 
L 125.438524 254.176504 
L 126.234468 256.112114 
L 127.826358 260.93954 
L 128.622302 262.517549 
L 129.418247 262.870398 
L 130.214192 261.942959 
L 132.602026 256.692512 
L 133.39797 256.548113 
L 134.193915 257.921991 
L 134.98986 260.605317 
L 136.581749 267.282304 
L 137.377694 269.732672 
L 138.173639 270.879595 
L 138.969583 270.643744 
L 139.765528 269.296527 
L 142.949307 261.369205 
L 144.541196 257.86253 
L 146.133085 253.497169 
L 147.724975 249.17871 
L 148.520919 247.777773 
L 149.316864 247.129583 
L 150.112809 247.160981 
L 151.704698 248.063416 
L 152.500643 248.219032 
L 153.296588 247.880331 
L 154.092532 247.071971 
L 155.684422 244.938162 
L 156.480366 244.137133 
L 157.276311 243.69754 
L 159.664145 243.364164 
L 160.46009 242.930318 
L 161.256034 242.184304 
L 163.643868 239.381453 
L 164.439813 238.780038 
L 165.235758 238.426306 
L 170.011426 237.280935 
L 170.807371 237.368734 
L 171.603315 237.688752 
L 173.195205 238.796433 
L 175.583039 240.65585 
L 176.378983 241.443346 
L 177.174928 242.467514 
L 179.562762 246.34718 
L 180.358707 247.115495 
L 181.154651 247.148204 
L 181.950596 246.33878 
L 182.746541 244.815431 
L 184.33843 241.199517 
L 185.134375 240.101713 
L 185.93032 239.980206 
L 186.726264 240.906932 
L 187.522209 242.664585 
L 189.114098 246.842557 
L 189.910043 248.300629 
L 190.705988 248.946856 
L 191.501932 248.788408 
L 192.297877 248.049299 
L 193.889766 246.184859 
L 194.685711 245.613176 
L 195.481656 245.415692 
L 196.2776 245.507586 
L 197.86949 245.89141 
L 198.665434 245.906643 
L 199.461379 245.745278 
L 201.053269 245.100465 
L 203.441103 243.938771 
L 204.237047 243.400087 
L 205.032992 242.70441 
L 206.624881 240.876872 
L 209.012715 237.901684 
L 210.604605 236.243017 
L 212.196494 234.910165 
L 212.992439 234.407784 
L 213.788383 234.041185 
L 215.380273 233.622012 
L 216.972162 233.141279 
L 219.359996 231.918805 
L 220.155941 231.885707 
L 220.951886 232.369785 
L 221.74783 233.4653 
L 222.543775 235.106508 
L 224.135664 238.985065 
L 224.931609 240.519032 
L 225.727554 241.399967 
L 226.523498 241.540449 
L 227.319443 241.050669 
L 228.911332 239.299739 
L 229.707277 238.652601 
L 230.503222 238.421502 
L 231.299166 238.627179 
L 232.095111 239.168183 
L 234.482945 241.280334 
L 238.462669 244.202325 
L 239.258613 245.102544 
L 240.054558 246.200345 
L 241.646447 248.98152 
L 243.238337 252.090462 
L 244.034281 253.420547 
L 244.830226 254.409792 
L 245.626171 255.017769 
L 247.21806 255.65445 
L 248.014005 256.263568 
L 248.80995 257.472771 
L 249.605894 259.416414 
L 251.993728 267.345882 
L 252.789673 269.111869 
L 253.585618 269.776027 
L 254.381562 269.335174 
L 255.177507 268.11521 
L 255.973452 266.660827 
L 256.769396 265.539432 
L 257.565341 265.131764 
L 258.361286 265.489799 
L 259.953175 267.093012 
L 260.74912 267.25998 
L 261.545064 266.455827 
L 262.341009 264.646896 
L 264.728843 257.294059 
L 265.524788 255.948748 
L 266.320733 255.58737 
L 267.116677 256.015698 
L 268.708567 257.503381 
L 269.504511 257.700779 
L 270.300456 257.237534 
L 271.096401 256.175918 
L 273.484235 251.94798 
L 274.280179 250.974244 
L 275.076124 250.359311 
L 275.872069 250.04197 
L 276.668013 249.929106 
L 278.259903 250.051556 
L 279.851792 250.553592 
L 281.443682 251.425226 
L 283.035571 252.269219 
L 283.831516 252.460303 
L 284.62746 252.383893 
L 285.423405 251.988968 
L 286.21935 251.27035 
L 287.811239 249.117177 
L 289.403128 246.888737 
L 290.199073 246.113279 
L 290.995018 245.675686 
L 291.790962 245.557989 
L 293.382852 245.871883 
L 295.770686 246.476997 
L 296.56663 246.9166 
L 297.362575 247.729711 
L 298.15852 249.00007 
L 301.342299 255.423571 
L 302.138243 255.961751 
L 302.934188 255.79961 
L 303.730133 255.122072 
L 305.322022 253.517984 
L 306.117967 253.162933 
L 306.913911 253.239939 
L 309.301745 254.416712 
L 310.09769 254.462468 
L 310.893635 254.24541 
L 312.485524 253.592327 
L 313.281469 253.45854 
L 314.077414 253.520537 
L 315.669303 253.870462 
L 317.261192 253.898077 
L 318.057137 253.859847 
L 318.853082 253.990355 
L 319.649026 254.438774 
L 320.444971 255.258105 
L 323.62875 259.756242 
L 326.016584 262.373752 
L 326.812528 263.67742 
L 329.200363 268.201177 
L 329.996307 268.806303 
L 330.792252 268.472523 
L 331.588197 267.223436 
L 333.976031 261.807151 
L 334.771975 260.988912 
L 335.56792 260.992468 
L 337.159809 262.231227 
L 337.955754 262.484735 
L 338.751699 261.981559 
L 339.547643 260.685464 
L 341.139533 257.15001 
L 341.935477 256.040639 
L 342.731422 256.004472 
L 343.527367 257.16868 
L 344.323311 259.302525 
L 345.915201 264.30377 
L 346.711146 265.991637 
L 347.50709 266.653315 
L 348.303035 266.306841 
L 349.09898 265.253855 
L 350.690869 262.866952 
L 351.486814 262.301318 
L 352.282758 262.35113 
L 353.078703 262.904036 
L 355.466537 265.283663 
L 356.262482 265.813841 
L 357.854371 266.501327 
L 358.650316 266.686115 
L 359.44626 266.627975 
L 360.242205 266.114243 
L 361.03815 264.934269 
L 361.834095 262.989239 
L 363.425984 257.409593 
L 364.221929 254.541011 
L 365.017873 252.234136 
L 365.813818 250.808356 
L 366.609763 250.33336 
L 367.405707 250.612761 
L 368.997597 251.899343 
L 369.793541 252.240061 
L 372.181375 252.428274 
L 372.97732 253.218507 
L 373.773265 254.682797 
L 375.365154 258.55125 
L 376.161099 259.913215 
L 376.957043 260.237532 
L 377.752988 259.361344 
L 378.548933 257.512925 
L 380.140822 253.323901 
L 380.936767 252.34975 
L 381.732712 252.681633 
L 382.528656 254.262793 
L 384.91649 261.459796 
L 385.712435 262.786409 
L 386.50838 263.111152 
L 387.304324 262.548149 
L 388.100269 261.357343 
L 389.692158 258.025432 
L 391.284048 253.803586 
L 392.875937 248.396173 
L 394.467827 242.82061 
L 395.263771 240.66961 
L 396.059716 239.206744 
L 396.855661 238.404974 
L 397.651605 238.051763 
L 398.44755 237.836335 
L 399.243495 237.479254 
L 400.039439 236.847975 
L 401.631329 235.1828 
L 402.427273 234.651268 
L 403.223218 234.608226 
L 404.019163 235.066602 
L 405.611052 236.559347 
L 406.406997 236.881322 
L 407.202941 236.531758 
L 407.998886 235.438115 
L 408.794831 233.734528 
L 411.182665 227.839919 
L 411.97861 226.380477 
L 412.774554 225.257723 
L 413.570499 224.372164 
L 413.570499 224.372164 
" clip-path="url(#p929bd4e4fc)" style="fill: none; stroke: #377eb8; stroke-width: 1.5; stroke-linecap: square"/>
   </g>
   <g id="line2d_15">
    <path d="M 87.233179 318.04 
L 87.233179 71.732 
" clip-path="url(#p929bd4e4fc)" style="fill: none; stroke: #000000; stroke-width: 0.5; stroke-linecap: square"/>
   </g>
   <g id="line2d_16">
    <path d="M 46.64 248.454354 
L 413.570499 248.454354 
" clip-path="url(#p929bd4e4fc)" style="fill: none; stroke: #000000; stroke-width: 0.5; stroke-linecap: square"/>
   </g>
   <g id="patch_4">
    <path d="M 46.64 318.04 
L 46.64 71.732 
" style="fill: none; stroke: #000000; stroke-width: 0.8; stroke-linejoin: miter; stroke-linecap: square"/>
   </g>
   <g id="patch_5">
    <path d="M 413.570499 318.04 
L 413.570499 71.732 
" style="fill: none; stroke: #000000; stroke-width: 0.8; stroke-linejoin: miter; stroke-linecap: square"/>
   </g>
   <g id="patch_6">
    <path d="M 46.64 318.04 
L 413.570499 318.04 
" style="fill: none; stroke: #000000; stroke-width: 0.8; stroke-linejoin: miter; stroke-linecap: square"/>
   </g>
   <g id="patch_7">
    <path d="M 46.64 71.732 
L 413.570499 71.732 
" style="fill: none; stroke: #000000; stroke-width: 0.8; stroke-linejoin: miter; stroke-linecap: square"/>
   </g>
   <g id="text_15">
    <!-- Cz -->
    <g transform="translate(222.766499 65.732)scale(0.12 -0.12)">
     <defs>
      <path id="DejaVuSans-43" d="M 4122 4306 
L 4122 3641 
Q 3803 3938 3442 4084 
Q 3081 4231 2675 4231 
Q 1875 4231 1450 3742 
Q 1025 3253 1025 2328 
Q 1025 1406 1450 917 
Q 1875 428 2675 428 
Q 3081 428 3442 575 
Q 3803 722 4122 1019 
L 4122 359 
Q 3791 134 3420 21 
Q 3050 -91 2638 -91 
Q 1578 -91 968 557 
Q 359 1206 359 2328 
Q 359 3453 968 4101 
Q 1578 4750 2638 4750 
Q 3056 4750 3426 4639 
Q 3797 4528 4122 4306 
z
" transform="scale(0.015625)"/>
      <path id="DejaVuSans-7a" d="M 353 3500 
L 3084 3500 
L 3084 2975 
L 922 459 
L 3084 459 
L 3084 0 
L 275 0 
L 275 525 
L 2438 3041 
L 353 3041 
L 353 3500 
z
" transform="scale(0.015625)"/>
     </defs>
     <use xlink:href="#DejaVuSans-43"/>
     <use xlink:href="#DejaVuSans-7a" x="69.824219"/>
    </g>
   </g>
   <g id="legend_1">
    <g id="patch_8">
     <path d="M 99.877906 48.500845 
L 360.332593 48.500845 
Q 362.332593 48.500845 362.332593 46.500845 
L 362.332593 18.144595 
Q 362.332593 16.144595 360.332593 16.144595 
L 99.877906 16.144595 
Q 97.877906 16.144595 97.877906 18.144595 
L 97.877906 46.500845 
Q 97.877906 48.500845 99.877906 48.500845 
z
" style="fill: #ffffff; opacity: 0.8; stroke: #cccccc; stroke-linejoin: miter"/>
    </g>
    <g id="text_16">
     <!-- Average of Session 2 -->
     <g transform="translate(177.727124 27.743033)scale(0.1 -0.1)">
      <defs>
       <path id="DejaVuSans-41" d="M 2188 4044 
L 1331 1722 
L 3047 1722 
L 2188 4044 
z
M 1831 4666 
L 2547 4666 
L 4325 0 
L 3669 0 
L 3244 1197 
L 1141 1197 
L 716 0 
L 50 0 
L 1831 4666 
z
" transform="scale(0.015625)"/>
       <path id="DejaVuSans-76" d="M 191 3500 
L 800 3500 
L 1894 563 
L 2988 3500 
L 3597 3500 
L 2284 0 
L 1503 0 
L 191 3500 
z
" transform="scale(0.015625)"/>
       <path id="DejaVuSans-72" d="M 2631 2963 
Q 2534 3019 2420 3045 
Q 2306 3072 2169 3072 
Q 1681 3072 1420 2755 
Q 1159 2438 1159 1844 
L 1159 0 
L 581 0 
L 581 3500 
L 1159 3500 
L 1159 2956 
Q 1341 3275 1631 3429 
Q 1922 3584 2338 3584 
Q 2397 3584 2469 3576 
Q 2541 3569 2628 3553 
L 2631 2963 
z
" transform="scale(0.015625)"/>
       <path id="DejaVuSans-61" d="M 2194 1759 
Q 1497 1759 1228 1600 
Q 959 1441 959 1056 
Q 959 750 1161 570 
Q 1363 391 1709 391 
Q 2188 391 2477 730 
Q 2766 1069 2766 1631 
L 2766 1759 
L 2194 1759 
z
M 3341 1997 
L 3341 0 
L 2766 0 
L 2766 531 
Q 2569 213 2275 61 
Q 1981 -91 1556 -91 
Q 1019 -91 701 211 
Q 384 513 384 1019 
Q 384 1609 779 1909 
Q 1175 2209 1959 2209 
L 2766 2209 
L 2766 2266 
Q 2766 2663 2505 2880 
Q 2244 3097 1772 3097 
Q 1472 3097 1187 3025 
Q 903 2953 641 2809 
L 641 3341 
Q 956 3463 1253 3523 
Q 1550 3584 1831 3584 
Q 2591 3584 2966 3190 
Q 3341 2797 3341 1997 
z
" transform="scale(0.015625)"/>
       <path id="DejaVuSans-67" d="M 2906 1791 
Q 2906 2416 2648 2759 
Q 2391 3103 1925 3103 
Q 1463 3103 1205 2759 
Q 947 2416 947 1791 
Q 947 1169 1205 825 
Q 1463 481 1925 481 
Q 2391 481 2648 825 
Q 2906 1169 2906 1791 
z
M 3481 434 
Q 3481 -459 3084 -895 
Q 2688 -1331 1869 -1331 
Q 1566 -1331 1297 -1286 
Q 1028 -1241 775 -1147 
L 775 -588 
Q 1028 -725 1275 -790 
Q 1522 -856 1778 -856 
Q 2344 -856 2625 -561 
Q 2906 -266 2906 331 
L 2906 616 
Q 2728 306 2450 153 
Q 2172 0 1784 0 
Q 1141 0 747 490 
Q 353 981 353 1791 
Q 353 2603 747 3093 
Q 1141 3584 1784 3584 
Q 2172 3584 2450 3431 
Q 2728 3278 2906 2969 
L 2906 3500 
L 3481 3500 
L 3481 434 
z
" transform="scale(0.015625)"/>
       <path id="DejaVuSans-20" transform="scale(0.015625)"/>
       <path id="DejaVuSans-66" d="M 2375 4863 
L 2375 4384 
L 1825 4384 
Q 1516 4384 1395 4259 
Q 1275 4134 1275 3809 
L 1275 3500 
L 2222 3500 
L 2222 3053 
L 1275 3053 
L 1275 0 
L 697 0 
L 697 3053 
L 147 3053 
L 147 3500 
L 697 3500 
L 697 3744 
Q 697 4328 969 4595 
Q 1241 4863 1831 4863 
L 2375 4863 
z
" transform="scale(0.015625)"/>
       <path id="DejaVuSans-53" d="M 3425 4513 
L 3425 3897 
Q 3066 4069 2747 4153 
Q 2428 4238 2131 4238 
Q 1616 4238 1336 4038 
Q 1056 3838 1056 3469 
Q 1056 3159 1242 3001 
Q 1428 2844 1947 2747 
L 2328 2669 
Q 3034 2534 3370 2195 
Q 3706 1856 3706 1288 
Q 3706 609 3251 259 
Q 2797 -91 1919 -91 
Q 1588 -91 1214 -16 
Q 841 59 441 206 
L 441 856 
Q 825 641 1194 531 
Q 1563 422 1919 422 
Q 2459 422 2753 634 
Q 3047 847 3047 1241 
Q 3047 1584 2836 1778 
Q 2625 1972 2144 2069 
L 1759 2144 
Q 1053 2284 737 2584 
Q 422 2884 422 3419 
Q 422 4038 858 4394 
Q 1294 4750 2059 4750 
Q 2388 4750 2728 4690 
Q 3069 4631 3425 4513 
z
" transform="scale(0.015625)"/>
       <path id="DejaVuSans-69" d="M 603 3500 
L 1178 3500 
L 1178 0 
L 603 0 
L 603 3500 
z
M 603 4863 
L 1178 4863 
L 1178 4134 
L 603 4134 
L 603 4863 
z
" transform="scale(0.015625)"/>
      </defs>
      <use xlink:href="#DejaVuSans-41"/>
      <use xlink:href="#DejaVuSans-76" x="62.533203"/>
      <use xlink:href="#DejaVuSans-65" x="121.712891"/>
      <use xlink:href="#DejaVuSans-72" x="183.236328"/>
      <use xlink:href="#DejaVuSans-61" x="224.349609"/>
      <use xlink:href="#DejaVuSans-67" x="285.628906"/>
      <use xlink:href="#DejaVuSans-65" x="349.105469"/>
      <use xlink:href="#DejaVuSans-20" x="410.628906"/>
      <use xlink:href="#DejaVuSans-6f" x="442.416016"/>
      <use xlink:href="#DejaVuSans-66" x="503.597656"/>
      <use xlink:href="#DejaVuSans-20" x="538.802734"/>
      <use xlink:href="#DejaVuSans-53" x="570.589844"/>
      <use xlink:href="#DejaVuSans-65" x="634.066406"/>
      <use xlink:href="#DejaVuSans-73" x="695.589844"/>
      <use xlink:href="#DejaVuSans-73" x="747.689453"/>
      <use xlink:href="#DejaVuSans-69" x="799.789062"/>
      <use xlink:href="#DejaVuSans-6f" x="827.572266"/>
      <use xlink:href="#DejaVuSans-6e" x="888.753906"/>
      <use xlink:href="#DejaVuSans-20" x="952.132812"/>
      <use xlink:href="#DejaVuSans-32" x="983.919922"/>
     </g>
    </g>
    <g id="line2d_17">
     <path d="M 101.877906 38.921158 
L 111.877906 38.921158 
L 121.877906 38.921158 
" style="fill: none; stroke: #e41a1c; stroke-width: 1.5; stroke-linecap: square"/>
    </g>
    <g id="text_17">
     <!-- Target (n=297) -->
     <g transform="translate(129.877906 42.421158)scale(0.1 -0.1)">
      <defs>
       <path id="DejaVuSans-54" d="M -19 4666 
L 3928 4666 
L 3928 4134 
L 2272 4134 
L 2272 0 
L 1638 0 
L 1638 4134 
L -19 4134 
L -19 4666 
z
" transform="scale(0.015625)"/>
       <path id="DejaVuSans-74" d="M 1172 4494 
L 1172 3500 
L 2356 3500 
L 2356 3053 
L 1172 3053 
L 1172 1153 
Q 1172 725 1289 603 
Q 1406 481 1766 481 
L 2356 481 
L 2356 0 
L 1766 0 
Q 1100 0 847 248 
Q 594 497 594 1153 
L 594 3053 
L 172 3053 
L 172 3500 
L 594 3500 
L 594 4494 
L 1172 4494 
z
" transform="scale(0.015625)"/>
       <path id="DejaVuSans-28" d="M 1984 4856 
Q 1566 4138 1362 3434 
Q 1159 2731 1159 2009 
Q 1159 1288 1364 580 
Q 1569 -128 1984 -844 
L 1484 -844 
Q 1016 -109 783 600 
Q 550 1309 550 2009 
Q 550 2706 781 3412 
Q 1013 4119 1484 4856 
L 1984 4856 
z
" transform="scale(0.015625)"/>
       <path id="DejaVuSans-3d" d="M 678 2906 
L 4684 2906 
L 4684 2381 
L 678 2381 
L 678 2906 
z
M 678 1631 
L 4684 1631 
L 4684 1100 
L 678 1100 
L 678 1631 
z
" transform="scale(0.015625)"/>
       <path id="DejaVuSans-39" d="M 703 97 
L 703 672 
Q 941 559 1184 500 
Q 1428 441 1663 441 
Q 2288 441 2617 861 
Q 2947 1281 2994 2138 
Q 2813 1869 2534 1725 
Q 2256 1581 1919 1581 
Q 1219 1581 811 2004 
Q 403 2428 403 3163 
Q 403 3881 828 4315 
Q 1253 4750 1959 4750 
Q 2769 4750 3195 4129 
Q 3622 3509 3622 2328 
Q 3622 1225 3098 567 
Q 2575 -91 1691 -91 
Q 1453 -91 1209 -44 
Q 966 3 703 97 
z
M 1959 2075 
Q 2384 2075 2632 2365 
Q 2881 2656 2881 3163 
Q 2881 3666 2632 3958 
Q 2384 4250 1959 4250 
Q 1534 4250 1286 3958 
Q 1038 3666 1038 3163 
Q 1038 2656 1286 2365 
Q 1534 2075 1959 2075 
z
" transform="scale(0.015625)"/>
       <path id="DejaVuSans-37" d="M 525 4666 
L 3525 4666 
L 3525 4397 
L 1831 0 
L 1172 0 
L 2766 4134 
L 525 4134 
L 525 4666 
z
" transform="scale(0.015625)"/>
       <path id="DejaVuSans-29" d="M 513 4856 
L 1013 4856 
Q 1481 4119 1714 3412 
Q 1947 2706 1947 2009 
Q 1947 1309 1714 600 
Q 1481 -109 1013 -844 
L 513 -844 
Q 928 -128 1133 580 
Q 1338 1288 1338 2009 
Q 1338 2731 1133 3434 
Q 928 4138 513 4856 
z
" transform="scale(0.015625)"/>
      </defs>
      <use xlink:href="#DejaVuSans-54"/>
      <use xlink:href="#DejaVuSans-61" x="44.583984"/>
      <use xlink:href="#DejaVuSans-72" x="105.863281"/>
      <use xlink:href="#DejaVuSans-67" x="145.226562"/>
      <use xlink:href="#DejaVuSans-65" x="208.703125"/>
      <use xlink:href="#DejaVuSans-74" x="270.226562"/>
      <use xlink:href="#DejaVuSans-20" x="309.435547"/>
      <use xlink:href="#DejaVuSans-28" x="341.222656"/>
      <use xlink:href="#DejaVuSans-6e" x="380.236328"/>
      <use xlink:href="#DejaVuSans-3d" x="443.615234"/>
      <use xlink:href="#DejaVuSans-32" x="527.404297"/>
      <use xlink:href="#DejaVuSans-39" x="591.027344"/>
      <use xlink:href="#DejaVuSans-37" x="654.650391"/>
      <use xlink:href="#DejaVuSans-29" x="718.273438"/>
     </g>
    </g>
    <g id="line2d_18">
     <path d="M 225.607593 38.921158 
L 235.607593 38.921158 
L 245.607593 38.921158 
" style="fill: none; stroke: #377eb8; stroke-width: 1.5; stroke-linecap: square"/>
    </g>
    <g id="text_18">
     <!-- Non-Target (n=1502) -->
     <g transform="translate(253.607593 42.421158)scale(0.1 -0.1)">
      <defs>
       <path id="DejaVuSans-4e" d="M 628 4666 
L 1478 4666 
L 3547 763 
L 3547 4666 
L 4159 4666 
L 4159 0 
L 3309 0 
L 1241 3903 
L 1241 0 
L 628 0 
L 628 4666 
z
" transform="scale(0.015625)"/>
       <path id="DejaVuSans-2d" d="M 313 2009 
L 1997 2009 
L 1997 1497 
L 313 1497 
L 313 2009 
z
" transform="scale(0.015625)"/>
      </defs>
      <use xlink:href="#DejaVuSans-4e"/>
      <use xlink:href="#DejaVuSans-6f" x="74.804688"/>
      <use xlink:href="#DejaVuSans-6e" x="135.986328"/>
      <use xlink:href="#DejaVuSans-2d" x="199.365234"/>
      <use xlink:href="#DejaVuSans-54" x="226.324219"/>
      <use xlink:href="#DejaVuSans-61" x="270.908203"/>
      <use xlink:href="#DejaVuSans-72" x="332.1875"/>
      <use xlink:href="#DejaVuSans-67" x="371.550781"/>
      <use xlink:href="#DejaVuSans-65" x="435.027344"/>
      <use xlink:href="#DejaVuSans-74" x="496.550781"/>
      <use xlink:href="#DejaVuSans-20" x="535.759766"/>
      <use xlink:href="#DejaVuSans-28" x="567.546875"/>
      <use xlink:href="#DejaVuSans-6e" x="606.560547"/>
      <use xlink:href="#DejaVuSans-3d" x="669.939453"/>
      <use xlink:href="#DejaVuSans-31" x="753.728516"/>
      <use xlink:href="#DejaVuSans-35" x="817.351562"/>
      <use xlink:href="#DejaVuSans-30" x="880.974609"/>
      <use xlink:href="#DejaVuSans-32" x="944.597656"/>
      <use xlink:href="#DejaVuSans-29" x="1008.220703"/>
     </g>
    </g>
   </g>
  </g>
 </g>
 <defs>
  <clipPath id="p929bd4e4fc">
   <rect x="46.64" y="71.732" width="366.930499" height="246.308"/>
  </clipPath>
 </defs>
</svg>
