<?xml version="1.0" encoding="utf-8" standalone="no"?>
<!DOCTYPE svg PUBLIC "-//W3C//DTD SVG 1.1//EN"
  "http://www.w3.org/Graphics/SVG/1.1/DTD/svg11.dtd">
<svg xmlns:xlink="http://www.w3.org/1999/xlink" width="432pt" height="360pt" viewBox="0 0 432 360" xmlns="http://www.w3.org/2000/svg" version="1.1">
 <metadata>
  <rdf:RDF xmlns:dc="http://purl.org/dc/elements/1.1/" xmlns:cc="http://creativecommons.org/ns#" xmlns:rdf="http://www.w3.org/1999/02/22-rdf-syntax-ns#">
   <cc:Work>
    <dc:type rdf:resource="http://purl.org/dc/dcmitype/StillImage"/>
    <dc:date>2022-05-19T11:51:34.809762</dc:date>
    <dc:format>image/svg+xml</dc:format>
    <dc:creator>
     <cc:Agent>
      <dc:title>Matplotlib v3.5.1, https://matplotlib.org/</dc:title>
     </cc:Agent>
    </dc:creator>
   </cc:Work>
  </rdf:RDF>
 </metadata>
 <defs>
  <style type="text/css">*{stroke-linejoin: round; stroke-linecap: butt}</style>
 </defs>
 <g id="figure_1">
  <g id="patch_1">
   <path d="M 0 360 
L 432 360 
L 432 0 
L 0 0 
L 0 360 
z
" style="fill: none"/>
  </g>
  <g id="axes_1">
   <g id="patch_2">
    <path d="M 46.64 318.04 
L 413.570499 318.04 
L 413.570499 71.732 
L 46.64 71.732 
L 46.64 318.04 
z
" style="fill: none"/>
   </g>
   <g id="PolyCollection_1">
    <defs>
     <path id="m8416841cb7" d="M 46.64 -126.535817 
L 46.64 -74.615929 
L 47.435945 -74.104558 
L 48.231889 -74.388936 
L 49.027834 -75.48318 
L 49.823779 -77.423605 
L 50.619723 -80.066214 
L 51.415668 -82.984489 
L 52.211613 -85.557846 
L 53.007557 -87.170867 
L 53.803502 -87.378182 
L 54.599447 -85.988171 
L 55.395392 -83.120474 
L 56.191336 -79.256361 
L 56.987281 -75.205971 
L 57.783226 -71.911454 
L 58.57917 -70.136829 
L 59.375115 -70.219464 
L 60.17106 -72.013774 
L 60.967004 -75.009612 
L 61.762949 -78.52403 
L 62.558894 -81.89154 
L 63.354838 -84.617672 
L 64.150783 -86.453853 
L 64.946728 -87.361922 
L 65.742672 -87.401967 
L 66.538617 -86.633582 
L 67.334562 -85.100103 
L 68.130506 -82.881364 
L 68.926451 -80.140815 
L 69.722396 -77.126125 
L 70.51834 -74.146415 
L 71.314285 -71.545042 
L 72.11023 -69.648014 
L 72.906175 -68.678388 
L 73.702119 -68.677698 
L 74.498064 -69.492433 
L 75.294009 -70.834138 
L 76.089953 -72.361783 
L 76.885898 -73.74241 
L 77.681843 -74.699363 
L 78.477787 -75.066155 
L 79.273732 -74.825614 
L 80.069677 -74.10073 
L 80.865621 -73.095326 
L 81.661566 -72.01395 
L 82.457511 -70.991107 
L 83.253455 -70.049838 
L 84.0494 -69.109507 
L 84.845345 -68.050268 
L 85.641289 -66.796689 
L 86.437234 -65.35882 
L 87.233179 -63.817889 
L 88.029124 -62.306009 
L 88.825068 -61.025025 
L 89.621013 -60.284407 
L 90.416958 -60.476212 
L 91.212902 -61.929954 
L 92.008847 -64.708604 
L 92.804792 -68.492563 
L 93.600736 -72.65139 
L 94.396681 -76.467318 
L 95.192626 -79.37067 
L 95.98857 -81.075957 
L 96.784515 -81.62218 
L 97.58046 -81.362935 
L 98.376404 -80.897931 
L 99.172349 -80.910673 
L 99.968294 -81.938054 
L 100.764238 -84.174303 
L 101.560183 -87.411972 
L 102.356128 -91.14238 
L 103.152073 -94.743514 
L 103.948017 -97.648413 
L 104.743962 -99.436244 
L 105.539907 -99.862094 
L 106.335851 -98.862584 
L 107.131796 -96.546885 
L 107.927741 -93.167003 
L 108.723685 -89.07942 
L 109.51963 -84.722742 
L 110.315575 -80.607162 
L 111.111519 -77.270308 
L 111.907464 -75.161234 
L 112.703409 -74.481291 
L 113.499353 -75.07849 
L 114.295298 -76.491292 
L 115.091243 -78.142336 
L 115.887187 -79.554603 
L 116.683132 -80.454918 
L 117.479077 -80.76856 
L 118.275021 -80.594604 
L 119.070966 -80.193153 
L 119.866911 -79.935332 
L 120.662856 -80.170466 
L 121.4588 -81.050225 
L 122.254745 -82.427898 
L 123.05069 -83.922498 
L 123.846634 -85.109792 
L 124.642579 -85.702664 
L 125.438524 -85.61913 
L 126.234468 -84.949687 
L 127.030413 -83.886436 
L 127.826358 -82.641297 
L 128.622302 -81.346259 
L 129.418247 -79.953951 
L 130.214192 -78.20927 
L 131.010136 -75.762601 
L 131.806081 -72.41099 
L 132.602026 -68.33485 
L 133.39797 -64.150998 
L 134.193915 -60.710585 
L 134.98986 -58.752648 
L 135.785805 -58.601031 
L 136.581749 -60.029341 
L 137.377694 -62.320334 
L 138.173639 -64.485938 
L 138.969583 -65.58529 
L 139.765528 -65.047198 
L 140.561473 -62.877842 
L 141.357417 -59.661658 
L 142.153362 -56.35225 
L 142.949307 -53.944259 
L 143.745251 -53.155818 
L 144.541196 -54.22557 
L 145.337141 -56.874895 
L 146.133085 -60.43866 
L 146.92903 -64.120338 
L 147.724975 -67.271701 
L 148.520919 -69.576979 
L 149.316864 -71.079448 
L 150.112809 -72.082937 
L 150.908753 -73.007455 
L 151.704698 -74.252104 
L 152.500643 -76.076801 
L 153.296588 -78.521652 
L 154.092532 -81.413595 
L 154.888477 -84.47904 
L 155.684422 -87.490072 
L 156.480366 -90.330679 
L 157.276311 -92.946977 
L 158.072256 -95.261926 
L 158.8682 -97.155755 
L 159.664145 -98.51499 
L 160.46009 -99.261116 
L 161.256034 -99.313715 
L 162.051979 -98.555832 
L 162.847924 -96.881211 
L 163.643868 -94.305386 
L 164.439813 -91.043634 
L 165.235758 -87.48439 
L 166.031702 -84.084843 
L 166.827647 -81.272 
L 167.623592 -79.390432 
L 168.419537 -78.67151 
L 169.215481 -79.194076 
L 170.011426 -80.84546 
L 170.807371 -83.309398 
L 171.603315 -86.090525 
L 172.39926 -88.56774 
L 173.195205 -90.07458 
L 173.991149 -90.019606 
L 174.787094 -88.050666 
L 175.583039 -84.226696 
L 176.378983 -79.121026 
L 177.174928 -73.776508 
L 177.970873 -69.475881 
L 178.766817 -67.366757 
L 179.562762 -68.059938 
L 180.358707 -71.361519 
L 181.154651 -76.26812 
L 181.950596 -81.249834 
L 182.746541 -84.718951 
L 183.542485 -85.512656 
L 184.33843 -83.236894 
L 185.134375 -78.381897 
L 185.93032 -72.17852 
L 186.726264 -66.223923 
L 187.522209 -61.983839 
L 188.318154 -60.348306 
L 189.114098 -61.4137 
L 189.910043 -64.55962 
L 190.705988 -68.74791 
L 191.501932 -72.896378 
L 192.297877 -76.201766 
L 193.093822 -78.341926 
L 193.889766 -79.518866 
L 194.685711 -80.32298 
L 195.481656 -81.44571 
L 196.2776 -83.347249 
L 197.073545 -86.032909 
L 197.86949 -89.043631 
L 198.665434 -91.649315 
L 199.461379 -93.13561 
L 200.257324 -93.055531 
L 201.053269 -91.364627 
L 201.849213 -88.41906 
L 202.645158 -84.859007 
L 203.441103 -81.430379 
L 204.237047 -78.814985 
L 205.032992 -77.521688 
L 205.828937 -77.836424 
L 206.624881 -79.784175 
L 207.420826 -83.077051 
L 208.216771 -87.091636 
L 209.012715 -90.9509 
L 209.80866 -93.735863 
L 210.604605 -94.760314 
L 211.400549 -93.78651 
L 212.196494 -91.088543 
L 212.992439 -87.353247 
L 213.788383 -83.474382 
L 214.584328 -80.3135 
L 215.380273 -78.48755 
L 216.176218 -78.225053 
L 216.972162 -79.326536 
L 217.768107 -81.261435 
L 218.564052 -83.398849 
L 219.359996 -85.298172 
L 220.155941 -86.928565 
L 220.951886 -88.698069 
L 221.74783 -91.259003 
L 222.543775 -95.170169 
L 223.33972 -100.574158 
L 224.135664 -107.045475 
L 224.931609 -113.681813 
L 225.727554 -119.393785 
L 226.523498 -123.266382 
L 227.319443 -124.856203 
L 228.115388 -124.329977 
L 228.911332 -122.402527 
L 229.707277 -120.08781 
L 230.503222 -118.342029 
L 231.299166 -117.734028 
L 232.095111 -118.282967 
L 232.891056 -119.533792 
L 233.687001 -120.826647 
L 234.482945 -121.623663 
L 235.27889 -121.740276 
L 236.074835 -121.389839 
L 236.870779 -121.043311 
L 237.666724 -121.182052 
L 238.462669 -122.05954 
L 239.258613 -123.579795 
L 240.054558 -125.344569 
L 240.850503 -126.836495 
L 241.646447 -127.639436 
L 242.442392 -127.59438 
L 243.238337 -126.841545 
L 244.034281 -125.757621 
L 244.830226 -124.829462 
L 245.626171 -124.513706 
L 246.422115 -125.126053 
L 247.21806 -126.788534 
L 248.014005 -129.438853 
L 248.80995 -132.878008 
L 249.605894 -136.817428 
L 250.401839 -140.898025 
L 251.197784 -144.684786 
L 251.993728 -147.672612 
L 252.789673 -149.351612 
L 253.585618 -149.353906 
L 254.381562 -147.63944 
L 255.177507 -144.619812 
L 255.973452 -141.128243 
L 256.769396 -138.222834 
L 257.565341 -136.893389 
L 258.361286 -137.774348 
L 259.15723 -140.948194 
L 259.953175 -145.888069 
L 260.74912 -151.565132 
L 261.545064 -156.72535 
L 262.341009 -160.284467 
L 263.136954 -161.705092 
L 263.932898 -161.181337 
L 264.728843 -159.529686 
L 265.524788 -157.834295 
L 266.320733 -157.010645 
L 267.116677 -157.46726 
L 267.912622 -158.982319 
L 268.708567 -160.822746 
L 269.504511 -162.052622 
L 270.300456 -161.916561 
L 271.096401 -160.150362 
L 271.892345 -157.089626 
L 272.68829 -153.532792 
L 273.484235 -150.431867 
L 274.280179 -148.557984 
L 275.076124 -148.277334 
L 275.872069 -149.496742 
L 276.668013 -151.755463 
L 277.463958 -154.400086 
L 278.259903 -156.784978 
L 279.055847 -158.450139 
L 279.851792 -159.214049 
L 280.647737 -159.12408 
L 281.443682 -158.292079 
L 282.239626 -156.747622 
L 283.035571 -154.428952 
L 283.831516 -151.298914 
L 284.62746 -147.466747 
L 285.423405 -143.220892 
L 286.21935 -138.980633 
L 287.015294 -135.226807 
L 287.811239 -132.430237 
L 288.607184 -130.94535 
L 289.403128 -130.874099 
L 290.199073 -131.993641 
L 290.995018 -133.839012 
L 291.790962 -135.905452 
L 292.586907 -137.82248 
L 293.382852 -139.389638 
L 294.178796 -140.506084 
L 294.974741 -141.10317 
L 295.770686 -141.136718 
L 296.56663 -140.607965 
L 297.362575 -139.563642 
L 298.15852 -138.075659 
L 298.954465 -136.235805 
L 299.750409 -134.173077 
L 300.546354 -132.055891 
L 301.342299 -130.047279 
L 302.138243 -128.237937 
L 302.934188 -126.623131 
L 303.730133 -125.163464 
L 304.526077 -123.891687 
L 305.322022 -122.964271 
L 306.117967 -122.579532 
L 306.913911 -122.794412 
L 307.709856 -123.368645 
L 308.505801 -123.752857 
L 309.301745 -123.231168 
L 310.09769 -121.131654 
L 310.893635 -117.017031 
L 311.689579 -110.83348 
L 312.485524 -103.018497 
L 313.281469 -94.51824 
L 314.077414 -86.631426 
L 314.873358 -80.668454 
L 315.669303 -77.550901 
L 316.465248 -77.538327 
L 317.261192 -80.190996 
L 318.057137 -84.542189 
L 318.853082 -89.380743 
L 319.649026 -93.554905 
L 320.444971 -96.236872 
L 321.240916 -97.092868 
L 322.03686 -96.312405 
L 322.832805 -94.491077 
L 323.62875 -92.415871 
L 324.424694 -90.827786 
L 325.220639 -90.22017 
L 326.016584 -90.706435 
L 326.812528 -91.985895 
L 327.608473 -93.431939 
L 328.404418 -94.290538 
L 329.200363 -93.917174 
L 329.996307 -91.949975 
L 330.792252 -88.363052 
L 331.588197 -83.433646 
L 332.384141 -77.69456 
L 333.180086 -71.890724 
L 333.976031 -66.886463 
L 334.771975 -63.480819 
L 335.56792 -62.186822 
L 336.363865 -63.09524 
L 337.159809 -65.888425 
L 337.955754 -69.964878 
L 338.751699 -74.598203 
L 339.547643 -79.09825 
L 340.343588 -82.978728 
L 341.139533 -86.102028 
L 341.935477 -88.711214 
L 342.731422 -91.276072 
L 343.527367 -94.206497 
L 344.323311 -97.600563 
L 345.119256 -101.167998 
L 345.915201 -104.337742 
L 346.711146 -106.454653 
L 347.50709 -106.96787 
L 348.303035 -105.569164 
L 349.09898 -102.27574 
L 349.894924 -97.451305 
L 350.690869 -91.752692 
L 351.486814 -85.99653 
L 352.282758 -80.96421 
L 353.078703 -77.199248 
L 353.874648 -74.873966 
L 354.670592 -73.780779 
L 355.466537 -73.443883 
L 356.262482 -73.292758 
L 357.058426 -72.825921 
L 357.854371 -71.720635 
L 358.650316 -69.880907 
L 359.44626 -67.434029 
L 360.242205 -64.686573 
L 361.03815 -62.051495 
L 361.834095 -59.961823 
L 362.630039 -58.785146 
L 363.425984 -58.750627 
L 364.221929 -59.90592 
L 365.017873 -62.123687 
L 365.813818 -65.152773 
L 366.609763 -68.671259 
L 367.405707 -72.302191 
L 368.201652 -75.609992 
L 368.997597 -78.136653 
L 369.793541 -79.505317 
L 370.589486 -79.55063 
L 371.385431 -78.403457 
L 372.181375 -76.486872 
L 372.97732 -74.428494 
L 373.773265 -72.909424 
L 374.569209 -72.463053 
L 375.365154 -73.263884 
L 376.161099 -75.002457 
L 376.957043 -76.944137 
L 377.752988 -78.180454 
L 378.548933 -77.970972 
L 379.344878 -76.02846 
L 380.140822 -72.638676 
L 380.936767 -68.58341 
L 381.732712 -64.905157 
L 382.528656 -62.599056 
L 383.324601 -62.336563 
L 384.120546 -64.301668 
L 384.91649 -68.164198 
L 385.712435 -73.172004 
L 386.50838 -78.337486 
L 387.304324 -82.688633 
L 388.100269 -85.522186 
L 388.896214 -86.568543 
L 389.692158 -86.002192 
L 390.488103 -84.306617 
L 391.284048 -82.073917 
L 392.079992 -79.833731 
L 392.875937 -77.965285 
L 393.671882 -76.695908 
L 394.467827 -76.159373 
L 395.263771 -76.47079 
L 396.059716 -77.76298 
L 396.855661 -80.142835 
L 397.651605 -83.583582 
L 398.44755 -87.834519 
L 399.243495 -92.435975 
L 400.039439 -96.854931 
L 400.835384 -100.66441 
L 401.631329 -103.660767 
L 402.427273 -105.869522 
L 403.223218 -107.468602 
L 404.019163 -108.686971 
L 404.815107 -109.713496 
L 405.611052 -110.621279 
L 406.406997 -111.315297 
L 407.202941 -111.537264 
L 407.998886 -110.961737 
L 408.794831 -109.366256 
L 409.590775 -106.794967 
L 410.38672 -103.621413 
L 411.182665 -100.471918 
L 411.97861 -98.051815 
L 412.774554 -96.957074 
L 413.570499 -97.533366 
L 413.570499 -233.42784 
L 413.570499 -233.42784 
L 412.774554 -232.058722 
L 411.97861 -232.694263 
L 411.182665 -234.942465 
L 410.38672 -238.069553 
L 409.590775 -241.233889 
L 408.794831 -243.728527 
L 407.998886 -245.147166 
L 407.202941 -245.441923 
L 406.406997 -244.876734 
L 405.611052 -243.89111 
L 404.815107 -242.903482 
L 404.019163 -242.11782 
L 403.223218 -241.425762 
L 402.427273 -240.46986 
L 401.631329 -238.842838 
L 400.835384 -236.308764 
L 400.039439 -232.922173 
L 399.243495 -228.997421 
L 398.44755 -224.978869 
L 397.651605 -221.306207 
L 396.855661 -218.333122 
L 396.059716 -216.293793 
L 395.263771 -215.288539 
L 394.467827 -215.28196 
L 393.671882 -216.125307 
L 392.875937 -217.59772 
L 392.079992 -219.433324 
L 391.284048 -221.309497 
L 390.488103 -222.815903 
L 389.692158 -223.455951 
L 388.896214 -222.717834 
L 388.100269 -220.209425 
L 387.304324 -215.819231 
L 386.50838 -209.854143 
L 385.712435 -203.095274 
L 384.91649 -196.708354 
L 384.120546 -191.979228 
L 383.324601 -189.929965 
L 382.528656 -190.960462 
L 381.732712 -194.680074 
L 380.936767 -200.011573 
L 380.140822 -205.522646 
L 379.344878 -209.8549 
L 378.548933 -212.102947 
L 377.752988 -212.027367 
L 376.957043 -210.050437 
L 376.161099 -207.064743 
L 375.365154 -204.14278 
L 374.569209 -202.238597 
L 373.773265 -201.940131 
L 372.97732 -203.313133 
L 372.181375 -205.884402 
L 371.385431 -208.794307 
L 370.589486 -211.075155 
L 369.793541 -211.940052 
L 368.997597 -210.974935 
L 368.201652 -208.200437 
L 367.405707 -204.028664 
L 366.609763 -199.144827 
L 365.813818 -194.331227 
L 365.017873 -190.268209 
L 364.221929 -187.381971 
L 363.425984 -185.803311 
L 362.630039 -185.433279 
L 361.834095 -186.046523 
L 361.03815 -187.366554 
L 360.242205 -189.098743 
L 359.44626 -190.945524 
L 358.650316 -192.629868 
L 357.854371 -193.936427 
L 357.058426 -194.765172 
L 356.262482 -195.179927 
L 355.466537 -195.424491 
L 354.670592 -195.885658 
L 353.874648 -197.007577 
L 353.078703 -199.18257 
L 352.282758 -202.641596 
L 351.486814 -207.357582 
L 350.690869 -212.980622 
L 349.894924 -218.842014 
L 349.09898 -224.065037 
L 348.303035 -227.78179 
L 347.50709 -229.39235 
L 346.711146 -228.759939 
L 345.915201 -226.248137 
L 345.119256 -222.573027 
L 344.323311 -218.534753 
L 343.527367 -214.756902 
L 342.731422 -211.544061 
L 341.935477 -208.876158 
L 341.139533 -206.481734 
L 340.343588 -203.943326 
L 339.547643 -200.84659 
L 338.751699 -196.98205 
L 337.955754 -192.523108 
L 337.159809 -188.055352 
L 336.363865 -184.407659 
L 335.56792 -182.369538 
L 334.771975 -182.444135 
L 333.976031 -184.729097 
L 333.180086 -188.911757 
L 332.384141 -194.32841 
L 331.588197 -200.083494 
L 330.792252 -205.250601 
L 329.996307 -209.116741 
L 329.200363 -211.360231 
L 328.404418 -212.076277 
L 327.608473 -211.666883 
L 326.812528 -210.687729 
L 326.016584 -209.723939 
L 325.220639 -209.289865 
L 324.424694 -209.715168 
L 323.62875 -211.022091 
L 322.832805 -212.855282 
L 322.03686 -214.530935 
L 321.240916 -215.220881 
L 320.444971 -214.222842 
L 319.649026 -211.231871 
L 318.853082 -206.524695 
L 318.057137 -200.981769 
L 317.261192 -195.905165 
L 316.465248 -192.663194 
L 315.669303 -192.285634 
L 314.873358 -195.172997 
L 314.077414 -201.018586 
L 313.281469 -208.926851 
L 312.485524 -217.64932 
L 311.689579 -225.876735 
L 310.893635 -232.549717 
L 310.09769 -237.116327 
L 309.301745 -239.623721 
L 308.505801 -240.582671 
L 307.709856 -240.681488 
L 306.913911 -240.523156 
L 306.117967 -240.51261 
L 305.322022 -240.880305 
L 304.526077 -241.74033 
L 303.730133 -243.111463 
L 302.934188 -244.914666 
L 302.138243 -247.000698 
L 301.342299 -249.21853 
L 300.546354 -251.474504 
L 299.750409 -253.73339 
L 298.954465 -255.967702 
L 298.15852 -258.10828 
L 297.362575 -260.042961 
L 296.56663 -261.655291 
L 295.770686 -262.848767 
L 294.974741 -263.524344 
L 294.178796 -263.551785 
L 293.382852 -262.806247 
L 292.586907 -261.277481 
L 291.790962 -259.168899 
L 290.995018 -256.895757 
L 290.199073 -254.979405 
L 289.403128 -253.919157 
L 288.607184 -254.104693 
L 287.811239 -255.746284 
L 287.015294 -258.783355 
L 286.21935 -262.816753 
L 285.423405 -267.169782 
L 284.62746 -271.104816 
L 283.831516 -274.077858 
L 283.035571 -275.874469 
L 282.239626 -276.576195 
L 281.443682 -276.433498 
L 280.647737 -275.747181 
L 279.851792 -274.791298 
L 279.055847 -273.756105 
L 278.259903 -272.71669 
L 277.463958 -271.674353 
L 276.668013 -270.672546 
L 275.872069 -269.893266 
L 275.076124 -269.630203 
L 274.280179 -270.136888 
L 273.484235 -271.45072 
L 272.68829 -273.309308 
L 271.892345 -275.212527 
L 271.096401 -276.60121 
L 270.300456 -277.072182 
L 269.504511 -276.543906 
L 268.708567 -275.310174 
L 267.912622 -273.950637 
L 267.116677 -273.109815 
L 266.320733 -273.216822 
L 265.524788 -274.266938 
L 264.728843 -275.775951 
L 263.932898 -276.939648 
L 263.136954 -276.930369 
L 262.341009 -275.205624 
L 261.545064 -271.718897 
L 260.74912 -266.975174 
L 259.953175 -261.913255 
L 259.15723 -257.62866 
L 258.361286 -255.010399 
L 257.565341 -254.432091 
L 256.769396 -255.641844 
L 255.973452 -257.902048 
L 255.177507 -260.295652 
L 254.381562 -262.038008 
L 253.585618 -262.661651 
L 252.789673 -262.039044 
L 251.993728 -260.296669 
L 251.197784 -257.698669 
L 250.401839 -254.550453 
L 249.605894 -251.140928 
L 248.80995 -247.726421 
L 248.014005 -244.545051 
L 247.21806 -241.832537 
L 246.422115 -239.806248 
L 245.626171 -238.605487 
L 244.830226 -238.211792 
L 244.034281 -238.39952 
L 243.238337 -238.765139 
L 242.442392 -238.848986 
L 241.646447 -238.30774 
L 240.850503 -237.052349 
L 240.054558 -235.273563 
L 239.258613 -233.338976 
L 238.462669 -231.616584 
L 237.666724 -230.31168 
L 236.870779 -229.388015 
L 236.074835 -228.603662 
L 235.27889 -227.647344 
L 234.482945 -226.319504 
L 233.687001 -224.674556 
L 232.891056 -223.047621 
L 232.095111 -221.940768 
L 231.299166 -221.813028 
L 230.503222 -222.859584 
L 229.707277 -224.865018 
L 228.911332 -227.191976 
L 228.115388 -228.930217 
L 227.319443 -229.178371 
L 226.523498 -227.367933 
L 225.727554 -223.494884 
L 224.931609 -218.140734 
L 224.135664 -212.256923 
L 223.33972 -206.808238 
L 222.543775 -202.439087 
L 221.74783 -199.298774 
L 220.951886 -197.074161 
L 220.155941 -195.192141 
L 219.359996 -193.101982 
L 218.564052 -190.533308 
L 217.768107 -187.641752 
L 216.972162 -184.988998 
L 216.176218 -183.351104 
L 215.380273 -183.408658 
L 214.584328 -185.431712 
L 213.788383 -189.09816 
L 212.992439 -193.542585 
L 212.196494 -197.625334 
L 211.400549 -200.300086 
L 210.604605 -200.918191 
L 209.80866 -199.360215 
L 209.012715 -195.9878 
L 208.216771 -191.492966 
L 207.420826 -186.73195 
L 206.624881 -182.576076 
L 205.828937 -179.763779 
L 205.032992 -178.747151 
L 204.237047 -179.573819 
L 203.441103 -181.868195 
L 202.645158 -184.936615 
L 201.849213 -187.954256 
L 201.053269 -190.165395 
L 200.257324 -191.050197 
L 199.461379 -190.434899 
L 198.665434 -188.522627 
L 197.86949 -185.82183 
L 197.073545 -182.978767 
L 196.2776 -180.566159 
L 195.481656 -178.898058 
L 194.685711 -177.921991 
L 193.889766 -177.217318 
L 193.093822 -176.121819 
L 192.297877 -173.989566 
L 191.501932 -170.518948 
L 190.705988 -166.007105 
L 189.910043 -161.372086 
L 189.114098 -157.8837 
L 188.318154 -156.701665 
L 187.522209 -158.42312 
L 186.726264 -162.823272 
L 185.93032 -168.872186 
L 185.134375 -175.013535 
L 184.33843 -179.625974 
L 183.542485 -181.53359 
L 182.746541 -180.39273 
L 181.950596 -176.800507 
L 181.154651 -172.072656 
L 180.358707 -167.785754 
L 179.562762 -165.276993 
L 178.766817 -165.280206 
L 177.970873 -167.785339 
L 177.174928 -172.120158 
L 176.378983 -177.199139 
L 175.583039 -181.854344 
L 174.787094 -185.150278 
L 173.991149 -186.595079 
L 173.195205 -186.197301 
L 172.39926 -184.37123 
L 171.603315 -181.743815 
L 170.807371 -178.945202 
L 170.011426 -176.463556 
L 169.215481 -174.607827 
L 168.419537 -173.558647 
L 167.623592 -173.436158 
L 166.827647 -174.316986 
L 166.031702 -176.190154 
L 165.235758 -178.901953 
L 164.439813 -182.14495 
L 163.643868 -185.498177 
L 162.847924 -188.491717 
L 162.051979 -190.689268 
L 161.256034 -191.800266 
L 160.46009 -191.788363 
L 159.664145 -190.887625 
L 158.8682 -189.468284 
L 158.072256 -187.814488 
L 157.276311 -185.978467 
L 156.480366 -183.827121 
L 155.684422 -181.223208 
L 154.888477 -178.180637 
L 154.092532 -174.896711 
L 153.296588 -171.683299 
L 152.500643 -168.862107 
L 151.704698 -166.6502 
L 150.908753 -165.039658 
L 150.112809 -163.722666 
L 149.316864 -162.152302 
L 148.520919 -159.766365 
L 147.724975 -156.276775 
L 146.92903 -151.867185 
L 146.133085 -147.195717 
L 145.337141 -143.205739 
L 144.541196 -140.822959 
L 143.745251 -140.636667 
L 142.949307 -142.6625 
L 142.153362 -146.280625 
L 141.357417 -150.398003 
L 140.561473 -153.787425 
L 139.765528 -155.473792 
L 138.969583 -155.026899 
L 138.173639 -152.671609 
L 137.377694 -149.195477 
L 136.581749 -145.689793 
L 135.785805 -143.205041 
L 134.98986 -142.440255 
L 134.193915 -143.586358 
L 133.39797 -146.371706 
L 132.602026 -150.245811 
L 131.806081 -154.576506 
L 131.010136 -158.782475 
L 130.214192 -162.416217 
L 129.418247 -165.229482 
L 128.622302 -167.190973 
L 127.826358 -168.411185 
L 127.030413 -169.000441 
L 126.234468 -168.958265 
L 125.438524 -168.187051 
L 124.642579 -166.629477 
L 123.846634 -164.418967 
L 123.05069 -161.912281 
L 122.254745 -159.570827 
L 121.4588 -157.780978 
L 120.662856 -156.72866 
L 119.866911 -156.360633 
L 119.070966 -156.400064 
L 118.275021 -156.407411 
L 117.479077 -155.915969 
L 116.683132 -154.637701 
L 115.887187 -152.647303 
L 115.091243 -150.411917 
L 114.295298 -148.608075 
L 113.499353 -147.823573 
L 112.703409 -148.3441 
L 111.907464 -150.136366 
L 111.111519 -152.95717 
L 110.315575 -156.461595 
L 109.51963 -160.258364 
L 108.723685 -163.934985 
L 107.927741 -167.089455 
L 107.131796 -169.374341 
L 106.335851 -170.531668 
L 105.539907 -170.408296 
L 104.743962 -168.971307 
L 103.948017 -166.342095 
L 103.152073 -162.826117 
L 102.356128 -158.884379 
L 101.560183 -155.024774 
L 100.764238 -151.661491 
L 99.968294 -149.016553 
L 99.172349 -147.092 
L 98.376404 -145.689656 
L 97.58046 -144.453161 
L 96.784515 -142.938269 
L 95.98857 -140.734873 
L 95.192626 -137.628975 
L 94.396681 -133.721545 
L 93.600736 -129.405616 
L 92.804792 -125.200665 
L 92.008847 -121.564258 
L 91.212902 -118.795343 
L 90.416958 -117.024761 
L 89.621013 -116.219197 
L 88.825068 -116.16707 
L 88.029124 -116.493619 
L 87.233179 -116.768424 
L 86.437234 -116.68364 
L 85.641289 -116.190051 
L 84.845345 -115.494638 
L 84.0494 -114.923781 
L 83.253455 -114.74552 
L 82.457511 -115.056476 
L 81.661566 -115.767737 
L 80.865621 -116.651607 
L 80.069677 -117.409712 
L 79.273732 -117.750106 
L 78.477787 -117.462239 
L 77.681843 -116.472412 
L 76.885898 -114.873259 
L 76.089953 -112.928719 
L 75.294009 -111.040837 
L 74.498064 -109.656967 
L 73.702119 -109.13511 
L 72.906175 -109.638702 
L 72.11023 -111.119641 
L 71.314285 -113.374383 
L 70.51834 -116.119184 
L 69.722396 -119.056938 
L 68.926451 -121.936447 
L 68.130506 -124.590552 
L 67.334562 -126.915575 
L 66.538617 -128.786168 
L 65.742672 -129.977038 
L 64.946728 -130.180127 
L 64.150783 -129.120868 
L 63.354838 -126.697826 
L 62.558894 -123.076593 
L 61.762949 -118.71568 
L 60.967004 -114.324127 
L 60.17106 -110.74018 
L 59.375115 -108.72877 
L 58.57917 -108.758248 
L 57.783226 -110.86401 
L 56.987281 -114.651138 
L 56.191336 -119.392358 
L 55.395392 -124.167359 
L 54.599447 -128.053014 
L 53.803502 -130.375175 
L 53.007557 -130.927956 
L 52.211613 -130.010404 
L 51.415668 -128.235603 
L 50.619723 -126.245809 
L 49.823779 -124.53633 
L 49.027834 -123.458381 
L 48.231889 -123.294347 
L 47.435945 -124.276618 
L 46.64 -126.535817 
z
" style="stroke: #e41a1c; stroke-opacity: 0.3"/>
    </defs>
    <g clip-path="url(#p3839736483)">
     <use xlink:href="#m8416841cb7" x="0" y="360" style="fill: #e41a1c; fill-opacity: 0.3; stroke: #e41a1c; stroke-opacity: 0.3"/>
    </g>
   </g>
   <g id="PolyCollection_2">
    <defs>
     <path id="mbba762d614" d="M 46.64 -125.526485 
L 46.64 -100.245238 
L 47.435945 -101.585787 
L 48.231889 -102.389428 
L 49.027834 -102.378235 
L 49.823779 -101.420702 
L 50.619723 -99.605847 
L 51.415668 -97.246803 
L 52.211613 -94.799855 
L 53.007557 -92.730917 
L 53.803502 -91.386122 
L 54.599447 -90.910948 
L 55.395392 -91.236614 
L 56.191336 -92.130541 
L 56.987281 -93.284798 
L 57.783226 -94.39595 
L 58.57917 -95.200252 
L 59.375115 -95.472987 
L 60.17106 -95.031542 
L 60.967004 -93.766865 
L 61.762949 -91.685659 
L 62.558894 -88.921643 
L 63.354838 -85.702877 
L 64.150783 -82.308791 
L 64.946728 -79.050667 
L 65.742672 -76.265114 
L 66.538617 -74.278736 
L 67.334562 -73.329582 
L 68.130506 -73.490105 
L 68.926451 -74.647704 
L 69.722396 -76.545889 
L 70.51834 -78.842428 
L 71.314285 -81.159214 
L 72.11023 -83.141108 
L 72.906175 -84.536234 
L 73.702119 -85.268869 
L 74.498064 -85.45645 
L 75.294009 -85.352046 
L 76.089953 -85.242213 
L 76.885898 -85.346354 
L 77.681843 -85.745743 
L 78.477787 -86.354481 
L 79.273732 -86.943176 
L 80.069677 -87.21983 
L 80.865621 -86.947578 
L 81.661566 -86.050163 
L 82.457511 -84.653661 
L 83.253455 -83.04645 
L 84.0494 -81.580504 
L 84.845345 -80.557917 
L 85.641289 -80.146375 
L 86.437234 -80.35126 
L 87.233179 -81.04182 
L 88.029124 -82.002935 
L 88.825068 -82.987047 
L 89.621013 -83.762229 
L 90.416958 -84.160048 
L 91.212902 -84.116236 
L 92.008847 -83.686179 
L 92.804792 -83.02179 
L 93.600736 -82.318738 
L 94.396681 -81.763774 
L 95.192626 -81.508049 
L 95.98857 -81.667004 
L 96.784515 -82.326339 
L 97.58046 -83.534479 
L 98.376404 -85.279224 
L 99.172349 -87.462549 
L 99.968294 -89.893095 
L 100.764238 -92.311524 
L 101.560183 -94.450706 
L 102.356128 -96.111736 
L 103.152073 -97.218651 
L 103.948017 -97.820072 
L 104.743962 -98.039382 
L 105.539907 -98.007781 
L 106.335851 -97.81748 
L 107.131796 -97.508521 
L 107.927741 -97.077004 
L 108.723685 -96.489112 
L 109.51963 -95.701969 
L 110.315575 -94.699956 
L 111.111519 -93.538352 
L 111.907464 -92.365047 
L 112.703409 -91.3941 
L 113.499353 -90.836542 
L 114.295298 -90.826012 
L 115.091243 -91.37974 
L 115.887187 -92.409219 
L 116.683132 -93.76396 
L 117.479077 -95.279381 
L 118.275021 -96.810796 
L 119.070966 -98.253701 
L 119.866911 -99.557351 
L 120.662856 -100.730443 
L 121.4588 -101.826846 
L 122.254745 -102.904125 
L 123.05069 -103.971573 
L 123.846634 -104.964024 
L 124.642579 -105.766635 
L 125.438524 -106.276321 
L 126.234468 -106.449919 
L 127.030413 -106.299505 
L 127.826358 -105.849009 
L 128.622302 -105.101628 
L 129.418247 -104.046348 
L 130.214192 -102.687457 
L 131.010136 -101.064985 
L 131.806081 -99.257038 
L 132.602026 -97.379767 
L 133.39797 -95.595374 
L 134.193915 -94.11565 
L 134.98986 -93.17866 
L 135.785805 -92.990878 
L 136.581749 -93.651748 
L 137.377694 -95.09165 
L 138.173639 -97.052514 
L 138.969583 -99.128862 
L 139.765528 -100.86731 
L 140.561473 -101.895583 
L 141.357417 -102.03261 
L 142.153362 -101.338261 
L 142.949307 -100.091623 
L 143.745251 -98.714313 
L 144.541196 -97.663086 
L 145.337141 -97.314693 
L 146.133085 -97.87034 
L 146.92903 -99.311158 
L 147.724975 -101.422272 
L 148.520919 -103.873004 
L 149.316864 -106.317545 
L 150.112809 -108.480162 
L 150.908753 -110.203563 
L 151.704698 -111.45217 
L 152.500643 -112.273005 
L 153.296588 -112.73443 
L 154.092532 -112.879685 
L 154.888477 -112.726167 
L 155.684422 -112.308608 
L 156.480366 -111.730471 
L 157.276311 -111.182851 
L 158.072256 -110.915139 
L 158.8682 -111.169825 
L 159.664145 -112.104765 
L 160.46009 -113.725968 
L 161.256034 -115.855188 
L 162.051979 -118.15509 
L 162.847924 -120.21682 
L 163.643868 -121.68365 
L 164.439813 -122.362733 
L 165.235758 -122.282458 
L 166.031702 -121.67871 
L 166.827647 -120.91889 
L 167.623592 -120.387788 
L 168.419537 -120.368403 
L 169.215481 -120.955981 
L 170.011426 -122.036131 
L 170.807371 -123.333828 
L 171.603315 -124.51176 
L 172.39926 -125.280827 
L 173.195205 -125.486432 
L 173.991149 -125.144581 
L 174.787094 -124.417297 
L 175.583039 -123.538935 
L 176.378983 -122.72793 
L 177.174928 -122.124314 
L 177.970873 -121.77203 
L 178.766817 -121.633942 
L 179.562762 -121.614345 
L 180.358707 -121.576313 
L 181.154651 -121.359645 
L 181.950596 -120.807868 
L 182.746541 -119.801362 
L 183.542485 -118.287039 
L 184.33843 -116.300491 
L 185.134375 -113.980163 
L 185.93032 -111.565908 
L 186.726264 -109.366971 
L 187.522209 -107.691458 
L 188.318154 -106.750433 
L 189.114098 -106.570205 
L 189.910043 -106.951525 
L 190.705988 -107.502071 
L 191.501932 -107.745836 
L 192.297877 -107.285342 
L 193.093822 -105.964667 
L 193.889766 -103.966059 
L 194.685711 -101.788075 
L 195.481656 -100.100781 
L 196.2776 -99.528444 
L 197.073545 -100.438085 
L 197.86949 -102.803289 
L 198.665434 -106.184624 
L 199.461379 -109.837782 
L 200.257324 -112.926522 
L 201.053269 -114.777546 
L 201.849213 -115.086273 
L 202.645158 -113.993819 
L 203.441103 -112.011333 
L 204.237047 -109.834479 
L 205.032992 -108.125203 
L 205.828937 -107.330666 
L 206.624881 -107.583256 
L 207.420826 -108.701057 
L 208.216771 -110.282811 
L 209.012715 -111.860486 
L 209.80866 -113.050156 
L 210.604605 -113.647115 
L 211.400549 -113.643197 
L 212.196494 -113.178839 
L 212.992439 -112.458901 
L 213.788383 -111.663182 
L 214.584328 -110.882346 
L 215.380273 -110.104412 
L 216.176218 -109.255743 
L 216.972162 -108.269793 
L 217.768107 -107.139198 
L 218.564052 -105.920792 
L 219.359996 -104.700027 
L 220.155941 -103.547913 
L 220.951886 -102.498888 
L 221.74783 -101.554478 
L 222.543775 -100.700512 
L 223.33972 -99.924552 
L 224.135664 -99.225839 
L 224.931609 -98.613356 
L 225.727554 -98.090888 
L 226.523498 -97.635113 
L 227.319443 -97.179986 
L 228.115388 -96.620201 
L 228.911332 -95.83703 
L 229.707277 -94.737511 
L 230.503222 -93.290451 
L 231.299166 -91.543498 
L 232.095111 -89.613296 
L 232.891056 -87.651801 
L 233.687001 -85.801411 
L 234.482945 -84.155674 
L 235.27889 -82.739898 
L 236.074835 -81.518692 
L 236.870779 -80.426867 
L 237.666724 -79.409265 
L 238.462669 -78.449599 
L 239.258613 -77.573731 
L 240.054558 -76.827707 
L 240.850503 -76.245463 
L 241.646447 -75.824638 
L 242.442392 -75.520829 
L 243.238337 -75.260961 
L 244.034281 -74.972334 
L 244.830226 -74.621406 
L 245.626171 -74.249364 
L 246.422115 -73.984451 
L 247.21806 -74.014445 
L 248.014005 -74.520066 
L 248.80995 -75.592296 
L 249.605894 -77.168999 
L 250.401839 -79.020541 
L 251.197784 -80.79365 
L 251.993728 -82.099463 
L 252.789673 -82.617216 
L 253.585618 -82.183233 
L 254.381562 -80.841235 
L 255.177507 -78.839171 
L 255.973452 -76.569657 
L 256.769396 -74.468188 
L 257.565341 -72.901051 
L 258.361286 -72.080823 
L 259.15723 -72.03344 
L 259.953175 -72.616043 
L 260.74912 -73.567367 
L 261.545064 -74.57144 
L 262.341009 -75.323134 
L 263.136954 -75.588363 
L 263.932898 -75.249606 
L 264.728843 -74.327204 
L 265.524788 -72.973821 
L 266.320733 -71.447054 
L 267.116677 -70.065663 
L 267.912622 -69.152032 
L 268.708567 -68.965371 
L 269.504511 -69.637297 
L 270.300456 -71.126859 
L 271.096401 -73.21127 
L 271.892345 -75.522081 
L 272.68829 -77.625002 
L 273.484235 -79.125893 
L 274.280179 -79.771002 
L 275.076124 -79.506291 
L 275.872069 -78.475143 
L 276.668013 -76.958594 
L 277.463958 -75.281895 
L 278.259903 -73.718849 
L 279.055847 -72.425069 
L 279.851792 -71.424423 
L 280.647737 -70.653608 
L 281.443682 -70.039409 
L 282.239626 -69.561888 
L 283.035571 -69.266806 
L 283.831516 -69.227288 
L 284.62746 -69.485328 
L 285.423405 -70.006546 
L 286.21935 -70.665833 
L 287.015294 -71.267784 
L 287.811239 -71.599689 
L 288.607184 -71.506255 
L 289.403128 -70.959492 
L 290.199073 -70.088297 
L 290.995018 -69.146403 
L 291.790962 -68.42951 
L 292.586907 -68.177667 
L 293.382852 -68.499484 
L 294.178796 -69.338009 
L 294.974741 -70.483082 
L 295.770686 -71.627716 
L 296.56663 -72.457232 
L 297.362575 -72.744792 
L 298.15852 -72.416614 
L 298.954465 -71.559149 
L 299.750409 -70.369231 
L 300.546354 -69.077244 
L 301.342299 -67.88062 
L 302.138243 -66.908223 
L 302.934188 -66.214127 
L 303.730133 -65.78943 
L 304.526077 -65.583715 
L 305.322022 -65.530753 
L 306.117967 -65.569236 
L 306.913911 -65.647669 
L 307.709856 -65.713504 
L 308.505801 -65.70278 
L 309.301745 -65.548707 
L 310.09769 -65.209745 
L 310.893635 -64.696685 
L 311.689579 -64.076127 
L 312.485524 -63.446513 
L 313.281469 -62.902502 
L 314.077414 -62.50595 
L 314.873358 -62.271704 
L 315.669303 -62.169102 
L 316.465248 -62.139178 
L 317.261192 -62.124285 
L 318.057137 -62.098096 
L 318.853082 -62.080022 
L 319.649026 -62.12741 
L 320.444971 -62.313734 
L 321.240916 -62.70568 
L 322.03686 -63.344596 
L 322.832805 -64.231097 
L 323.62875 -65.31445 
L 324.424694 -66.493738 
L 325.220639 -67.634981 
L 326.016584 -68.599234 
L 326.812528 -69.271951 
L 327.608473 -69.587719 
L 328.404418 -69.548809 
L 329.200363 -69.233754 
L 329.996307 -68.787815 
L 330.792252 -68.390144 
L 331.588197 -68.204094 
L 332.384141 -68.328609 
L 333.180086 -68.770893 
L 333.976031 -69.452078 
L 334.771975 -70.242802 
L 335.56792 -71.011936 
L 336.363865 -71.666688 
L 337.159809 -72.169041 
L 337.955754 -72.52695 
L 338.751699 -72.77019 
L 339.547643 -72.924341 
L 340.343588 -72.993203 
L 341.139533 -72.956143 
L 341.935477 -72.784981 
L 342.731422 -72.479332 
L 343.527367 -72.106928 
L 344.323311 -71.82509 
L 345.119256 -71.863187 
L 345.915201 -72.464563 
L 346.711146 -73.808062 
L 347.50709 -75.940394 
L 348.303035 -78.746599 
L 349.09898 -81.971088 
L 349.894924 -85.282124 
L 350.690869 -88.354779 
L 351.486814 -90.93953 
L 352.282758 -92.891866 
L 353.078703 -94.159602 
L 353.874648 -94.745949 
L 354.670592 -94.674266 
L 355.466537 -93.972644 
L 356.262482 -92.682059 
L 357.058426 -90.881683 
L 357.854371 -88.720597 
L 358.650316 -86.440486 
L 359.44626 -84.368795 
L 360.242205 -82.866422 
L 361.03815 -82.235864 
L 361.834095 -82.6244 
L 362.630039 -83.969232 
L 363.425984 -86.014104 
L 364.221929 -88.390545 
L 365.017873 -90.72734 
L 365.813818 -92.747075 
L 366.609763 -94.323978 
L 367.405707 -95.495125 
L 368.201652 -96.427711 
L 368.997597 -97.351382 
L 369.793541 -98.471961 
L 370.589486 -99.891675 
L 371.385431 -101.564665 
L 372.181375 -103.30723 
L 372.97732 -104.859348 
L 373.773265 -105.968875 
L 374.569209 -106.458887 
L 375.365154 -106.251462 
L 376.161099 -105.350853 
L 376.957043 -103.812606 
L 377.752988 -101.724572 
L 378.548933 -99.206276 
L 379.344878 -96.416678 
L 380.140822 -93.559031 
L 380.936767 -90.876735 
L 381.732712 -88.634846 
L 382.528656 -87.081525 
L 383.324601 -86.390877 
L 384.120546 -86.6025 
L 384.91649 -87.582697 
L 385.712435 -89.029212 
L 386.50838 -90.527091 
L 387.304324 -91.646026 
L 388.100269 -92.054189 
L 388.896214 -91.613398 
L 389.692158 -90.421835 
L 390.488103 -88.788343 
L 391.284048 -87.149123 
L 392.079992 -85.956935 
L 392.875937 -85.575311 
L 393.671882 -86.201444 
L 394.467827 -87.832075 
L 395.263771 -90.278721 
L 396.059716 -93.226362 
L 396.855661 -96.315269 
L 397.651605 -99.219355 
L 398.44755 -101.700705 
L 399.243495 -103.631399 
L 400.039439 -104.982931 
L 400.835384 -105.792938 
L 401.631329 -106.129999 
L 402.427273 -106.079527 
L 403.223218 -105.757342 
L 404.019163 -105.331993 
L 404.815107 -105.026394 
L 405.611052 -105.085202 
L 406.406997 -105.720002 
L 407.202941 -107.05447 
L 407.998886 -109.082666 
L 408.794831 -111.64501 
L 409.590775 -114.432026 
L 410.38672 -117.032184 
L 411.182665 -119.025834 
L 411.97861 -120.097447 
L 412.774554 -120.122429 
L 413.570499 -119.199502 
L 413.570499 -182.573705 
L 413.570499 -182.573705 
L 412.774554 -183.428623 
L 411.97861 -183.444084 
L 411.182665 -182.499347 
L 410.38672 -180.688491 
L 409.590775 -178.285364 
L 408.794831 -175.671494 
L 407.998886 -173.245295 
L 407.202941 -171.327599 
L 406.406997 -170.08653 
L 405.611052 -169.51026 
L 404.815107 -169.439709 
L 404.019163 -169.640502 
L 403.223218 -169.874117 
L 402.427273 -169.940261 
L 401.631329 -169.690205 
L 400.835384 -169.025919 
L 400.039439 -167.894559 
L 399.243495 -166.279677 
L 398.44755 -164.193575 
L 397.651605 -161.681628 
L 396.855661 -158.843339 
L 396.059716 -155.857479 
L 395.263771 -152.987781 
L 394.467827 -150.552487 
L 393.671882 -148.858376 
L 392.875937 -148.115866 
L 392.079992 -148.362105 
L 391.284048 -149.422762 
L 390.488103 -150.935718 
L 389.692158 -152.437664 
L 388.896214 -153.486967 
L 388.100269 -153.78102 
L 387.304324 -153.232388 
L 386.50838 -151.986133 
L 385.712435 -150.377554 
L 384.91649 -148.842424 
L 384.120546 -147.804125 
L 383.324601 -147.570571 
L 382.528656 -148.270863 
L 381.732712 -149.846115 
L 380.936767 -152.089902 
L 380.140822 -154.719742 
L 379.344878 -157.453406 
L 378.548933 -160.062777 
L 377.752988 -162.388215 
L 376.957043 -164.318576 
L 376.161099 -165.762622 
L 375.365154 -166.638976 
L 374.569209 -166.892162 
L 373.773265 -166.520188 
L 372.97732 -165.593378 
L 372.181375 -164.254267 
L 371.385431 -162.69876 
L 370.589486 -161.139938 
L 369.793541 -159.755794 
L 368.997597 -158.630776 
L 368.201652 -157.714473 
L 367.405707 -156.825122 
L 366.609763 -155.712051 
L 365.813818 -154.162247 
L 365.017873 -152.107909 
L 364.221929 -149.684078 
L 363.425984 -147.206481 
L 362.630039 -145.078242 
L 361.834095 -143.66713 
L 361.03815 -143.202792 
L 360.242205 -143.725067 
L 359.44626 -145.088032 
L 358.650316 -147.008056 
L 357.854371 -149.13894 
L 357.058426 -151.15351 
L 356.262482 -152.805868 
L 355.466537 -153.951397 
L 354.670592 -154.520728 
L 353.874648 -154.470907 
L 353.078703 -153.751071 
L 352.282758 -152.308007 
L 351.486814 -150.12775 
L 350.690869 -147.285509 
L 349.894924 -143.972766 
L 349.09898 -140.484248 
L 348.303035 -137.166202 
L 347.50709 -134.341643 
L 346.711146 -132.236018 
L 345.915201 -130.928021 
L 345.119256 -130.343371 
L 344.323311 -130.293573 
L 343.527367 -130.543703 
L 342.731422 -130.883145 
L 341.935477 -131.175308 
L 341.139533 -131.372652 
L 340.343588 -131.495287 
L 339.547643 -131.583584 
L 338.751699 -131.647138 
L 337.955754 -131.637705 
L 337.159809 -131.463353 
L 336.363865 -131.03693 
L 335.56792 -130.330483 
L 334.771975 -129.404507 
L 333.976031 -128.397421 
L 333.180086 -127.482666 
L 332.384141 -126.813779 
L 331.588197 -126.478151 
L 330.792252 -126.472852 
L 329.996307 -126.706677 
L 329.200363 -127.024835 
L 328.404418 -127.248315 
L 327.608473 -127.218655 
L 326.812528 -126.837937 
L 326.016584 -126.092918 
L 325.220639 -125.054641 
L 324.424694 -123.853709 
L 323.62875 -122.642307 
L 322.832805 -121.557867 
L 322.03686 -120.696954 
L 321.240916 -120.100073 
L 320.444971 -119.747677 
L 319.649026 -119.571461 
L 318.853082 -119.482165 
L 318.057137 -119.404467 
L 317.261192 -119.302974 
L 316.465248 -119.189259 
L 315.669303 -119.111872 
L 314.873358 -119.136964 
L 314.077414 -119.324321 
L 313.281469 -119.702308 
L 312.485524 -120.250441 
L 311.689579 -120.900486 
L 310.893635 -121.557138 
L 310.09769 -122.125822 
L 309.301745 -122.533737 
L 308.505801 -122.741515 
L 307.709856 -122.750917 
L 306.913911 -122.608777 
L 306.117967 -122.399491 
L 305.322022 -122.222568 
L 304.526077 -122.165602 
L 303.730133 -122.28912 
L 302.934188 -122.627973 
L 302.138243 -123.196235 
L 301.342299 -123.980333 
L 300.546354 -124.921088 
L 299.750409 -125.901397 
L 298.954465 -126.756108 
L 298.15852 -127.306219 
L 297.362575 -127.406076 
L 296.56663 -126.989712 
L 295.770686 -126.105787 
L 294.974741 -124.929611 
L 294.178796 -123.737328 
L 293.382852 -122.835314 
L 292.586907 -122.461824 
L 291.790962 -122.70156 
L 290.995018 -123.455042 
L 290.199073 -124.478057 
L 289.403128 -125.470365 
L 288.607184 -126.173594 
L 287.811239 -126.44378 
L 287.015294 -126.280713 
L 286.21935 -125.809651 
L 285.423405 -125.222282 
L 284.62746 -124.699895 
L 283.831516 -124.355051 
L 283.035571 -124.220859 
L 282.239626 -124.286427 
L 281.443682 -124.54623 
L 280.647737 -125.026566 
L 279.851792 -125.775646 
L 279.055847 -126.829922 
L 278.259903 -128.175901 
L 277.463958 -129.719345 
L 276.668013 -131.271526 
L 275.872069 -132.565775 
L 275.076124 -133.311922 
L 274.280179 -133.277154 
L 273.484235 -132.363804 
L 272.68829 -130.653416 
L 271.892345 -128.401736 
L 271.096401 -125.987423 
L 270.300456 -123.828411 
L 269.504511 -122.286177 
L 268.708567 -121.583281 
L 267.912622 -121.758382 
L 267.116677 -122.67032 
L 266.320733 -124.044956 
L 265.524788 -125.546544 
L 264.728843 -126.853072 
L 263.932898 -127.718532 
L 263.136954 -128.011596 
L 262.341009 -127.72898 
L 261.545064 -126.989164 
L 260.74912 -126.012295 
L 259.953175 -125.08545 
L 259.15723 -124.50901 
L 258.361286 -124.527938 
L 257.565341 -125.265805 
L 256.769396 -126.684486 
L 255.973452 -128.583035 
L 255.177507 -130.63524 
L 254.381562 -132.457255 
L 253.585618 -133.693459 
L 252.789673 -134.103612 
L 251.993728 -133.626879 
L 251.197784 -132.397899 
L 250.401839 -130.704794 
L 249.605894 -128.903053 
L 248.80995 -127.317021 
L 248.014005 -126.162393 
L 247.21806 -125.510828 
L 246.422115 -125.300452 
L 245.626171 -125.382184 
L 244.830226 -125.584679 
L 244.034281 -125.778044 
L 243.238337 -125.915809 
L 242.442392 -126.03896 
L 241.646447 -126.24026 
L 240.850503 -126.607599 
L 240.054558 -127.177709 
L 239.258613 -127.924592 
L 238.462669 -128.784283 
L 237.666724 -129.696557 
L 236.870779 -130.638984 
L 236.074835 -131.638246 
L 235.27889 -132.756869 
L 234.482945 -134.06252 
L 233.687001 -135.5918 
L 232.891056 -137.323035 
L 232.095111 -139.170824 
L 231.299166 -141.006485 
L 230.503222 -142.696438 
L 229.707277 -144.142178 
L 228.911332 -145.305504 
L 228.115388 -146.210173 
L 227.319443 -146.921981 
L 226.523498 -147.518362 
L 225.727554 -148.061858 
L 224.931609 -148.588211 
L 224.135664 -149.111819 
L 223.33972 -149.643328 
L 222.543775 -150.208604 
L 221.74783 -150.856275 
L 220.951886 -151.645256 
L 220.155941 -152.616034 
L 219.359996 -153.76367 
L 218.564052 -155.032545 
L 217.768107 -156.337225 
L 216.972162 -157.593985 
L 216.176218 -158.743373 
L 215.380273 -159.757295 
L 214.584328 -160.635942 
L 213.788383 -161.396814 
L 212.992439 -162.050698 
L 212.196494 -162.56676 
L 211.400549 -162.848206 
L 210.604605 -162.747887 
L 209.80866 -162.133707 
L 209.012715 -160.978346 
L 208.216771 -159.426516 
L 207.420826 -157.800842 
L 206.624881 -156.532716 
L 205.828937 -156.030898 
L 205.032992 -156.52466 
L 204.237047 -157.939187 
L 203.441103 -159.865113 
L 202.645158 -161.654346 
L 201.849213 -162.617045 
L 201.053269 -162.245928 
L 200.257324 -160.386408 
L 199.461379 -157.300019 
L 198.665434 -153.605183 
L 197.86949 -150.108628 
L 197.073545 -147.57001 
L 196.2776 -146.472334 
L 195.481656 -146.881682 
L 194.685711 -148.451143 
L 193.889766 -150.562869 
L 193.093822 -152.545606 
L 192.297877 -153.885738 
L 191.501932 -154.367692 
L 190.705988 -154.111344 
L 189.910043 -153.503808 
L 189.114098 -153.051301 
L 188.318154 -153.202605 
L 187.522209 -154.206363 
L 186.726264 -156.04907 
L 185.93032 -158.48513 
L 185.134375 -161.135014 
L 184.33843 -163.60914 
L 183.542485 -165.614703 
L 182.746541 -167.013691 
L 181.950596 -167.820458 
L 181.154651 -168.153433 
L 180.358707 -168.175086 
L 179.562762 -168.051385 
L 178.766817 -167.936932 
L 177.970873 -167.967731 
L 177.174928 -168.242866 
L 176.378983 -168.796181 
L 175.583039 -169.575267 
L 174.787094 -170.441989 
L 173.991149 -171.195988 
L 173.195205 -171.616696 
L 172.39926 -171.520743 
L 171.603315 -170.827158 
L 170.807371 -169.608669 
L 170.011426 -168.098863 
L 169.215481 -166.637894 
L 168.419537 -165.568138 
L 167.623592 -165.115488 
L 166.827647 -165.299899 
L 166.031702 -165.911301 
L 165.235758 -166.567534 
L 164.439813 -166.840177 
L 163.643868 -166.401736 
L 162.847924 -165.135676 
L 162.051979 -163.16971 
L 161.256034 -160.827756 
L 160.46009 -158.524326 
L 159.664145 -156.638429 
L 158.8682 -155.406645 
L 158.072256 -154.86992 
L 157.276311 -154.891444 
L 156.480366 -155.231909 
L 155.684422 -155.63996 
L 154.888477 -155.914507 
L 154.092532 -155.923454 
L 153.296588 -155.592798 
L 152.500643 -154.887008 
L 151.704698 -153.791879 
L 150.908753 -152.305112 
L 150.112809 -150.442179 
L 149.316864 -148.262178 
L 148.520919 -145.901553 
L 147.724975 -143.586751 
L 146.92903 -141.603158 
L 146.133085 -140.224617 
L 145.337141 -139.629736 
L 144.541196 -139.834056 
L 143.745251 -140.66059 
L 142.949307 -141.764567 
L 142.153362 -142.716233 
L 141.357417 -143.121493 
L 140.561473 -142.736242 
L 139.765528 -141.52964 
L 138.969583 -139.679781 
L 138.173639 -137.517582 
L 137.377694 -135.445067 
L 136.581749 -133.846711 
L 135.785805 -133.008178 
L 134.98986 -133.059365 
L 134.193915 -133.955924 
L 133.39797 -135.50233 
L 132.602026 -137.408944 
L 131.806081 -139.369294 
L 131.010136 -141.136292 
L 130.214192 -142.569124 
L 129.418247 -143.630012 
L 128.622302 -144.338057 
L 127.826358 -144.717905 
L 127.030413 -144.782325 
L 126.234468 -144.550916 
L 125.438524 -144.06911 
L 124.642579 -143.396351 
L 123.846634 -142.574087 
L 123.05069 -141.611531 
L 122.254745 -140.504119 
L 121.4588 -139.258419 
L 120.662856 -137.893288 
L 119.866911 -136.419283 
L 119.070966 -134.82577 
L 118.275021 -133.100251 
L 117.479077 -131.272488 
L 116.683132 -129.448546 
L 115.887187 -127.803578 
L 115.091243 -126.531223 
L 114.295298 -125.776679 
L 113.499353 -125.588822 
L 112.703409 -125.910633 
L 111.907464 -126.602437 
L 111.111519 -127.480078 
L 110.315575 -128.355365 
L 109.51963 -129.076495 
L 108.723685 -129.564768 
L 107.927741 -129.830757 
L 107.131796 -129.949529 
L 106.335851 -129.996652 
L 105.539907 -129.980323 
L 104.743962 -129.816416 
L 103.948017 -129.364145 
L 103.152073 -128.494995 
L 102.356128 -127.148926 
L 101.560183 -125.350797 
L 100.764238 -123.19356 
L 99.968294 -120.813244 
L 99.172349 -118.371063 
L 98.376404 -116.038692 
L 97.58046 -113.979185 
L 96.784515 -112.324765 
L 95.98857 -111.156877 
L 95.192626 -110.491849 
L 94.396681 -110.274996 
L 93.600736 -110.387009 
L 92.804792 -110.662594 
L 92.008847 -110.914549 
L 91.212902 -110.95634 
L 90.416958 -110.62607 
L 89.621013 -109.822673 
L 88.825068 -108.554865 
L 88.029124 -106.978058 
L 87.233179 -105.382318 
L 86.437234 -104.114492 
L 85.641289 -103.458589 
L 84.845345 -103.531124 
L 84.0494 -104.243023 
L 83.253455 -105.339043 
L 82.457511 -106.487819 
L 81.661566 -107.384321 
L 80.865621 -107.831085 
L 80.069677 -107.776365 
L 79.273732 -107.306576 
L 78.477787 -106.606043 
L 77.681843 -105.896077 
L 76.885898 -105.360426 
L 76.089953 -105.073862 
L 75.294009 -104.964552 
L 74.498064 -104.834149 
L 73.702119 -104.428478 
L 72.906175 -103.524101 
L 72.11023 -101.999739 
L 71.314285 -99.885627 
L 70.51834 -97.389773 
L 69.722396 -94.882334 
L 68.926451 -92.817392 
L 68.130506 -91.608062 
L 67.334562 -91.515895 
L 66.538617 -92.610407 
L 65.742672 -94.791276 
L 64.946728 -97.824083 
L 64.150783 -101.369167 
L 63.354838 -105.027566 
L 62.558894 -108.418368 
L 61.762949 -111.253516 
L 60.967004 -113.363399 
L 60.17106 -114.670654 
L 59.375115 -115.160201 
L 58.57917 -114.890236 
L 57.783226 -114.031206 
L 56.987281 -112.879893 
L 56.191336 -111.815112 
L 55.395392 -111.208974 
L 54.599447 -111.338008 
L 53.803502 -112.327828 
L 53.007557 -114.134981 
L 52.211613 -116.559434 
L 51.415668 -119.285652 
L 50.619723 -121.945368 
L 49.823779 -124.185895 
L 49.027834 -125.731404 
L 48.231889 -126.434237 
L 47.435945 -126.308379 
L 46.64 -125.526485 
z
" style="stroke: #377eb8; stroke-opacity: 0.3"/>
    </defs>
    <g clip-path="url(#p3839736483)">
     <use xlink:href="#mbba762d614" x="0" y="360" style="fill: #377eb8; fill-opacity: 0.3; stroke: #377eb8; stroke-opacity: 0.3"/>
    </g>
   </g>
   <g id="patch_3">
    <path d="M 229.866466 318.04 
L 229.866466 71.732 
L 331.747385 71.732 
L 331.747385 318.04 
z
" clip-path="url(#p3839736483)" style="fill: #808080; opacity: 0.3"/>
   </g>
   <g id="matplotlib.axis_1">
    <g id="xtick_1">
     <g id="line2d_1">
      <defs>
       <path id="md876c26cbd" d="M 0 0 
L 0 3.5 
" style="stroke: #000000; stroke-width: 0.8"/>
      </defs>
      <g>
       <use xlink:href="#md876c26cbd" x="87.233179" y="318.04" style="stroke: #000000; stroke-width: 0.8"/>
      </g>
     </g>
     <g id="text_1">
      <!-- 0.0 -->
      <g transform="translate(79.281616 332.638438)scale(0.1 -0.1)">
       <defs>
        <path id="DejaVuSans-30" d="M 2034 4250 
Q 1547 4250 1301 3770 
Q 1056 3291 1056 2328 
Q 1056 1369 1301 889 
Q 1547 409 2034 409 
Q 2525 409 2770 889 
Q 3016 1369 3016 2328 
Q 3016 3291 2770 3770 
Q 2525 4250 2034 4250 
z
M 2034 4750 
Q 2819 4750 3233 4129 
Q 3647 3509 3647 2328 
Q 3647 1150 3233 529 
Q 2819 -91 2034 -91 
Q 1250 -91 836 529 
Q 422 1150 422 2328 
Q 422 3509 836 4129 
Q 1250 4750 2034 4750 
z
" transform="scale(0.015625)"/>
        <path id="DejaVuSans-2e" d="M 684 794 
L 1344 794 
L 1344 0 
L 684 0 
L 684 794 
z
" transform="scale(0.015625)"/>
       </defs>
       <use xlink:href="#DejaVuSans-30"/>
       <use xlink:href="#DejaVuSans-2e" x="63.623047"/>
       <use xlink:href="#DejaVuSans-30" x="95.410156"/>
      </g>
     </g>
    </g>
    <g id="xtick_2">
     <g id="line2d_2">
      <g>
       <use xlink:href="#md876c26cbd" x="168.737914" y="318.04" style="stroke: #000000; stroke-width: 0.8"/>
      </g>
     </g>
     <g id="text_2">
      <!-- 0.2 -->
      <g transform="translate(160.786352 332.638438)scale(0.1 -0.1)">
       <defs>
        <path id="DejaVuSans-32" d="M 1228 531 
L 3431 531 
L 3431 0 
L 469 0 
L 469 531 
Q 828 903 1448 1529 
Q 2069 2156 2228 2338 
Q 2531 2678 2651 2914 
Q 2772 3150 2772 3378 
Q 2772 3750 2511 3984 
Q 2250 4219 1831 4219 
Q 1534 4219 1204 4116 
Q 875 4013 500 3803 
L 500 4441 
Q 881 4594 1212 4672 
Q 1544 4750 1819 4750 
Q 2544 4750 2975 4387 
Q 3406 4025 3406 3419 
Q 3406 3131 3298 2873 
Q 3191 2616 2906 2266 
Q 2828 2175 2409 1742 
Q 1991 1309 1228 531 
z
" transform="scale(0.015625)"/>
       </defs>
       <use xlink:href="#DejaVuSans-30"/>
       <use xlink:href="#DejaVuSans-2e" x="63.623047"/>
       <use xlink:href="#DejaVuSans-32" x="95.410156"/>
      </g>
     </g>
    </g>
    <g id="xtick_3">
     <g id="line2d_3">
      <g>
       <use xlink:href="#md876c26cbd" x="250.24265" y="318.04" style="stroke: #000000; stroke-width: 0.8"/>
      </g>
     </g>
     <g id="text_3">
      <!-- 0.4 -->
      <g transform="translate(242.291087 332.638438)scale(0.1 -0.1)">
       <defs>
        <path id="DejaVuSans-34" d="M 2419 4116 
L 825 1625 
L 2419 1625 
L 2419 4116 
z
M 2253 4666 
L 3047 4666 
L 3047 1625 
L 3713 1625 
L 3713 1100 
L 3047 1100 
L 3047 0 
L 2419 0 
L 2419 1100 
L 313 1100 
L 313 1709 
L 2253 4666 
z
" transform="scale(0.015625)"/>
       </defs>
       <use xlink:href="#DejaVuSans-30"/>
       <use xlink:href="#DejaVuSans-2e" x="63.623047"/>
       <use xlink:href="#DejaVuSans-34" x="95.410156"/>
      </g>
     </g>
    </g>
    <g id="xtick_4">
     <g id="line2d_4">
      <g>
       <use xlink:href="#md876c26cbd" x="331.747385" y="318.04" style="stroke: #000000; stroke-width: 0.8"/>
      </g>
     </g>
     <g id="text_4">
      <!-- 0.6 -->
      <g transform="translate(323.795823 332.638438)scale(0.1 -0.1)">
       <defs>
        <path id="DejaVuSans-36" d="M 2113 2584 
Q 1688 2584 1439 2293 
Q 1191 2003 1191 1497 
Q 1191 994 1439 701 
Q 1688 409 2113 409 
Q 2538 409 2786 701 
Q 3034 994 3034 1497 
Q 3034 2003 2786 2293 
Q 2538 2584 2113 2584 
z
M 3366 4563 
L 3366 3988 
Q 3128 4100 2886 4159 
Q 2644 4219 2406 4219 
Q 1781 4219 1451 3797 
Q 1122 3375 1075 2522 
Q 1259 2794 1537 2939 
Q 1816 3084 2150 3084 
Q 2853 3084 3261 2657 
Q 3669 2231 3669 1497 
Q 3669 778 3244 343 
Q 2819 -91 2113 -91 
Q 1303 -91 875 529 
Q 447 1150 447 2328 
Q 447 3434 972 4092 
Q 1497 4750 2381 4750 
Q 2619 4750 2861 4703 
Q 3103 4656 3366 4563 
z
" transform="scale(0.015625)"/>
       </defs>
       <use xlink:href="#DejaVuSans-30"/>
       <use xlink:href="#DejaVuSans-2e" x="63.623047"/>
       <use xlink:href="#DejaVuSans-36" x="95.410156"/>
      </g>
     </g>
    </g>
    <g id="xtick_5">
     <g id="line2d_5">
      <g>
       <use xlink:href="#md876c26cbd" x="413.252121" y="318.04" style="stroke: #000000; stroke-width: 0.8"/>
      </g>
     </g>
     <g id="text_5">
      <!-- 0.8 -->
      <g transform="translate(405.300559 332.638438)scale(0.1 -0.1)">
       <defs>
        <path id="DejaVuSans-38" d="M 2034 2216 
Q 1584 2216 1326 1975 
Q 1069 1734 1069 1313 
Q 1069 891 1326 650 
Q 1584 409 2034 409 
Q 2484 409 2743 651 
Q 3003 894 3003 1313 
Q 3003 1734 2745 1975 
Q 2488 2216 2034 2216 
z
M 1403 2484 
Q 997 2584 770 2862 
Q 544 3141 544 3541 
Q 544 4100 942 4425 
Q 1341 4750 2034 4750 
Q 2731 4750 3128 4425 
Q 3525 4100 3525 3541 
Q 3525 3141 3298 2862 
Q 3072 2584 2669 2484 
Q 3125 2378 3379 2068 
Q 3634 1759 3634 1313 
Q 3634 634 3220 271 
Q 2806 -91 2034 -91 
Q 1263 -91 848 271 
Q 434 634 434 1313 
Q 434 1759 690 2068 
Q 947 2378 1403 2484 
z
M 1172 3481 
Q 1172 3119 1398 2916 
Q 1625 2713 2034 2713 
Q 2441 2713 2670 2916 
Q 2900 3119 2900 3481 
Q 2900 3844 2670 4047 
Q 2441 4250 2034 4250 
Q 1625 4250 1398 4047 
Q 1172 3844 1172 3481 
z
" transform="scale(0.015625)"/>
       </defs>
       <use xlink:href="#DejaVuSans-30"/>
       <use xlink:href="#DejaVuSans-2e" x="63.623047"/>
       <use xlink:href="#DejaVuSans-38" x="95.410156"/>
      </g>
     </g>
    </g>
    <g id="text_6">
     <!-- seconds -->
     <g transform="translate(209.667749 346.316563)scale(0.1 -0.1)">
      <defs>
       <path id="DejaVuSans-73" d="M 2834 3397 
L 2834 2853 
Q 2591 2978 2328 3040 
Q 2066 3103 1784 3103 
Q 1356 3103 1142 2972 
Q 928 2841 928 2578 
Q 928 2378 1081 2264 
Q 1234 2150 1697 2047 
L 1894 2003 
Q 2506 1872 2764 1633 
Q 3022 1394 3022 966 
Q 3022 478 2636 193 
Q 2250 -91 1575 -91 
Q 1294 -91 989 -36 
Q 684 19 347 128 
L 347 722 
Q 666 556 975 473 
Q 1284 391 1588 391 
Q 1994 391 2212 530 
Q 2431 669 2431 922 
Q 2431 1156 2273 1281 
Q 2116 1406 1581 1522 
L 1381 1569 
Q 847 1681 609 1914 
Q 372 2147 372 2553 
Q 372 3047 722 3315 
Q 1072 3584 1716 3584 
Q 2034 3584 2315 3537 
Q 2597 3491 2834 3397 
z
" transform="scale(0.015625)"/>
       <path id="DejaVuSans-65" d="M 3597 1894 
L 3597 1613 
L 953 1613 
Q 991 1019 1311 708 
Q 1631 397 2203 397 
Q 2534 397 2845 478 
Q 3156 559 3463 722 
L 3463 178 
Q 3153 47 2828 -22 
Q 2503 -91 2169 -91 
Q 1331 -91 842 396 
Q 353 884 353 1716 
Q 353 2575 817 3079 
Q 1281 3584 2069 3584 
Q 2775 3584 3186 3129 
Q 3597 2675 3597 1894 
z
M 3022 2063 
Q 3016 2534 2758 2815 
Q 2500 3097 2075 3097 
Q 1594 3097 1305 2825 
Q 1016 2553 972 2059 
L 3022 2063 
z
" transform="scale(0.015625)"/>
       <path id="DejaVuSans-63" d="M 3122 3366 
L 3122 2828 
Q 2878 2963 2633 3030 
Q 2388 3097 2138 3097 
Q 1578 3097 1268 2742 
Q 959 2388 959 1747 
Q 959 1106 1268 751 
Q 1578 397 2138 397 
Q 2388 397 2633 464 
Q 2878 531 3122 666 
L 3122 134 
Q 2881 22 2623 -34 
Q 2366 -91 2075 -91 
Q 1284 -91 818 406 
Q 353 903 353 1747 
Q 353 2603 823 3093 
Q 1294 3584 2113 3584 
Q 2378 3584 2631 3529 
Q 2884 3475 3122 3366 
z
" transform="scale(0.015625)"/>
       <path id="DejaVuSans-6f" d="M 1959 3097 
Q 1497 3097 1228 2736 
Q 959 2375 959 1747 
Q 959 1119 1226 758 
Q 1494 397 1959 397 
Q 2419 397 2687 759 
Q 2956 1122 2956 1747 
Q 2956 2369 2687 2733 
Q 2419 3097 1959 3097 
z
M 1959 3584 
Q 2709 3584 3137 3096 
Q 3566 2609 3566 1747 
Q 3566 888 3137 398 
Q 2709 -91 1959 -91 
Q 1206 -91 779 398 
Q 353 888 353 1747 
Q 353 2609 779 3096 
Q 1206 3584 1959 3584 
z
" transform="scale(0.015625)"/>
       <path id="DejaVuSans-6e" d="M 3513 2113 
L 3513 0 
L 2938 0 
L 2938 2094 
Q 2938 2591 2744 2837 
Q 2550 3084 2163 3084 
Q 1697 3084 1428 2787 
Q 1159 2491 1159 1978 
L 1159 0 
L 581 0 
L 581 3500 
L 1159 3500 
L 1159 2956 
Q 1366 3272 1645 3428 
Q 1925 3584 2291 3584 
Q 2894 3584 3203 3211 
Q 3513 2838 3513 2113 
z
" transform="scale(0.015625)"/>
       <path id="DejaVuSans-64" d="M 2906 2969 
L 2906 4863 
L 3481 4863 
L 3481 0 
L 2906 0 
L 2906 525 
Q 2725 213 2448 61 
Q 2172 -91 1784 -91 
Q 1150 -91 751 415 
Q 353 922 353 1747 
Q 353 2572 751 3078 
Q 1150 3584 1784 3584 
Q 2172 3584 2448 3432 
Q 2725 3281 2906 2969 
z
M 947 1747 
Q 947 1113 1208 752 
Q 1469 391 1925 391 
Q 2381 391 2643 752 
Q 2906 1113 2906 1747 
Q 2906 2381 2643 2742 
Q 2381 3103 1925 3103 
Q 1469 3103 1208 2742 
Q 947 2381 947 1747 
z
" transform="scale(0.015625)"/>
      </defs>
      <use xlink:href="#DejaVuSans-73"/>
      <use xlink:href="#DejaVuSans-65" x="52.099609"/>
      <use xlink:href="#DejaVuSans-63" x="113.623047"/>
      <use xlink:href="#DejaVuSans-6f" x="168.603516"/>
      <use xlink:href="#DejaVuSans-6e" x="229.785156"/>
      <use xlink:href="#DejaVuSans-64" x="293.164062"/>
      <use xlink:href="#DejaVuSans-73" x="356.640625"/>
     </g>
    </g>
   </g>
   <g id="matplotlib.axis_2">
    <g id="ytick_1">
     <g id="line2d_6">
      <defs>
       <path id="meb7faa5ffe" d="M 0 0 
L -3.5 0 
" style="stroke: #000000; stroke-width: 0.8"/>
      </defs>
      <g>
       <use xlink:href="#meb7faa5ffe" x="46.64" y="304.036301" style="stroke: #000000; stroke-width: 0.8"/>
      </g>
     </g>
     <g id="text_7">
      <!-- 1 -->
      <g transform="translate(24.897813 307.835519)scale(0.1 -0.1)">
       <defs>
        <path id="DejaVuSans-2212" d="M 678 2272 
L 4684 2272 
L 4684 1741 
L 678 1741 
L 678 2272 
z
" transform="scale(0.015625)"/>
        <path id="DejaVuSans-31" d="M 794 531 
L 1825 531 
L 1825 4091 
L 703 3866 
L 703 4441 
L 1819 4666 
L 2450 4666 
L 2450 531 
L 3481 531 
L 3481 0 
L 794 0 
L 794 531 
z
" transform="scale(0.015625)"/>
       </defs>
       <use xlink:href="#DejaVuSans-2212"/>
       <use xlink:href="#DejaVuSans-31" x="83.789062"/>
      </g>
     </g>
    </g>
    <g id="ytick_2">
     <g id="line2d_7">
      <g>
       <use xlink:href="#meb7faa5ffe" x="46.64" y="262.277278" style="stroke: #000000; stroke-width: 0.8"/>
      </g>
     </g>
     <g id="text_8">
      <!-- 0 -->
      <g transform="translate(33.2775 266.076497)scale(0.1 -0.1)">
       <use xlink:href="#DejaVuSans-30"/>
      </g>
     </g>
    </g>
    <g id="ytick_3">
     <g id="line2d_8">
      <g>
       <use xlink:href="#meb7faa5ffe" x="46.64" y="220.518256" style="stroke: #000000; stroke-width: 0.8"/>
      </g>
     </g>
     <g id="text_9">
      <!-- 1 -->
      <g transform="translate(33.2775 224.317474)scale(0.1 -0.1)">
       <use xlink:href="#DejaVuSans-31"/>
      </g>
     </g>
    </g>
    <g id="ytick_4">
     <g id="line2d_9">
      <g>
       <use xlink:href="#meb7faa5ffe" x="46.64" y="178.759233" style="stroke: #000000; stroke-width: 0.8"/>
      </g>
     </g>
     <g id="text_10">
      <!-- 2 -->
      <g transform="translate(33.2775 182.558452)scale(0.1 -0.1)">
       <use xlink:href="#DejaVuSans-32"/>
      </g>
     </g>
    </g>
    <g id="ytick_5">
     <g id="line2d_10">
      <g>
       <use xlink:href="#meb7faa5ffe" x="46.64" y="137.000211" style="stroke: #000000; stroke-width: 0.8"/>
      </g>
     </g>
     <g id="text_11">
      <!-- 3 -->
      <g transform="translate(33.2775 140.799429)scale(0.1 -0.1)">
       <defs>
        <path id="DejaVuSans-33" d="M 2597 2516 
Q 3050 2419 3304 2112 
Q 3559 1806 3559 1356 
Q 3559 666 3084 287 
Q 2609 -91 1734 -91 
Q 1441 -91 1130 -33 
Q 819 25 488 141 
L 488 750 
Q 750 597 1062 519 
Q 1375 441 1716 441 
Q 2309 441 2620 675 
Q 2931 909 2931 1356 
Q 2931 1769 2642 2001 
Q 2353 2234 1838 2234 
L 1294 2234 
L 1294 2753 
L 1863 2753 
Q 2328 2753 2575 2939 
Q 2822 3125 2822 3475 
Q 2822 3834 2567 4026 
Q 2313 4219 1838 4219 
Q 1578 4219 1281 4162 
Q 984 4106 628 3988 
L 628 4550 
Q 988 4650 1302 4700 
Q 1616 4750 1894 4750 
Q 2613 4750 3031 4423 
Q 3450 4097 3450 3541 
Q 3450 3153 3228 2886 
Q 3006 2619 2597 2516 
z
" transform="scale(0.015625)"/>
       </defs>
       <use xlink:href="#DejaVuSans-33"/>
      </g>
     </g>
    </g>
    <g id="ytick_6">
     <g id="line2d_11">
      <g>
       <use xlink:href="#meb7faa5ffe" x="46.64" y="95.241188" style="stroke: #000000; stroke-width: 0.8"/>
      </g>
     </g>
     <g id="text_12">
      <!-- 4 -->
      <g transform="translate(33.2775 99.040407)scale(0.1 -0.1)">
       <use xlink:href="#DejaVuSans-34"/>
      </g>
     </g>
    </g>
    <g id="text_13">
     <!-- V -->
     <g transform="translate(18.818125 201.487562)rotate(-90)scale(0.1 -0.1)">
      <defs>
       <path id="DejaVuSans-b5" d="M 544 -1331 
L 544 3500 
L 1119 3500 
L 1119 1325 
Q 1119 872 1334 640 
Q 1550 409 1972 409 
Q 2434 409 2667 671 
Q 2900 934 2900 1459 
L 2900 3500 
L 3475 3500 
L 3475 806 
Q 3475 619 3529 530 
Q 3584 441 3700 441 
Q 3728 441 3778 458 
Q 3828 475 3916 513 
L 3916 50 
Q 3788 -22 3673 -56 
Q 3559 -91 3450 -91 
Q 3234 -91 3106 31 
Q 2978 153 2931 403 
Q 2775 156 2548 32 
Q 2322 -91 2016 -91 
Q 1697 -91 1473 31 
Q 1250 153 1119 397 
L 1119 -1331 
L 544 -1331 
z
" transform="scale(0.015625)"/>
       <path id="DejaVuSans-56" d="M 1831 0 
L 50 4666 
L 709 4666 
L 2188 738 
L 3669 4666 
L 4325 4666 
L 2547 0 
L 1831 0 
z
" transform="scale(0.015625)"/>
      </defs>
      <use xlink:href="#DejaVuSans-b5"/>
      <use xlink:href="#DejaVuSans-56" x="63.623047"/>
     </g>
    </g>
   </g>
   <g id="line2d_12">
    <path d="M 46.64 259.424127 
L 47.435945 260.809412 
L 48.231889 261.158359 
L 49.027834 260.529219 
L 49.823779 259.020032 
L 52.211613 252.215875 
L 53.007557 250.950589 
L 53.803502 251.123321 
L 54.599447 252.979408 
L 55.395392 256.356084 
L 56.987281 265.071446 
L 57.783226 268.612268 
L 58.57917 270.552462 
L 59.375115 270.525883 
L 60.17106 268.623023 
L 60.967004 265.333131 
L 62.558894 257.515933 
L 63.354838 254.342251 
L 64.150783 252.212639 
L 64.946728 251.228975 
L 65.742672 251.310497 
L 66.538617 252.290125 
L 67.334562 253.992161 
L 68.130506 256.264042 
L 69.722396 261.908468 
L 71.314285 267.540287 
L 72.11023 269.616172 
L 72.906175 270.841455 
L 73.702119 271.093596 
L 74.498064 270.4253 
L 75.294009 269.062513 
L 76.885898 265.692165 
L 77.681843 264.414112 
L 78.477787 263.735803 
L 79.273732 263.71214 
L 80.069677 264.244779 
L 82.457511 266.976208 
L 83.253455 267.602321 
L 84.0494 267.983356 
L 85.641289 268.50663 
L 86.437234 268.97877 
L 87.233179 269.706844 
L 88.825068 271.403952 
L 89.621013 271.748198 
L 90.416958 271.249514 
L 91.212902 269.637351 
L 92.008847 266.863569 
L 93.600736 258.971497 
L 94.396681 254.905568 
L 95.192626 251.500177 
L 95.98857 249.094585 
L 96.784515 247.719776 
L 97.58046 247.091952 
L 98.376404 246.706207 
L 99.172349 245.998663 
L 99.968294 244.522696 
L 100.764238 242.082103 
L 101.560183 238.781627 
L 103.152073 231.215185 
L 103.948017 228.004746 
L 104.743962 225.796225 
L 105.539907 224.864805 
L 106.335851 225.302874 
L 107.131796 227.039387 
L 107.927741 229.871771 
L 109.51963 237.509447 
L 111.111519 244.886261 
L 111.907464 247.3512 
L 112.703409 248.587304 
L 113.499353 248.548968 
L 114.295298 247.450317 
L 116.683132 242.453691 
L 117.479077 241.657735 
L 118.275021 241.498992 
L 119.866911 241.852017 
L 120.662856 241.550437 
L 121.4588 240.584398 
L 122.254745 239.000638 
L 123.846634 235.235621 
L 124.642579 233.833929 
L 125.438524 233.09691 
L 126.234468 233.046024 
L 127.030413 233.556562 
L 127.826358 234.473759 
L 128.622302 235.731384 
L 129.418247 237.408283 
L 130.214192 239.687257 
L 131.010136 242.727462 
L 132.602026 250.70967 
L 133.39797 254.738648 
L 134.193915 257.851528 
L 134.98986 259.403548 
L 135.785805 259.096964 
L 136.581749 257.140433 
L 138.173639 251.421226 
L 138.969583 249.693906 
L 139.765528 249.739505 
L 140.561473 251.667366 
L 142.949307 261.69662 
L 143.745251 263.103757 
L 144.541196 262.475736 
L 145.337141 259.959683 
L 148.520919 245.328328 
L 149.316864 243.384125 
L 151.704698 239.548848 
L 152.500643 237.530546 
L 153.296588 234.897525 
L 156.480366 222.9211 
L 158.072256 218.461793 
L 158.8682 216.68798 
L 159.664145 215.298692 
L 160.46009 214.475261 
L 161.256034 214.44301 
L 162.051979 215.37745 
L 162.847924 217.313536 
L 163.643868 220.098218 
L 166.031702 229.862502 
L 166.827647 232.205507 
L 167.623592 233.586705 
L 168.419537 233.884921 
L 169.215481 233.099048 
L 170.011426 231.345492 
L 171.603315 226.08283 
L 172.39926 223.530515 
L 173.195205 221.86406 
L 173.991149 221.692658 
L 174.787094 223.399528 
L 175.583039 226.95948 
L 177.970873 241.36939 
L 178.766817 243.676519 
L 179.562762 243.331534 
L 180.358707 240.426364 
L 181.950596 230.974829 
L 182.746541 227.44416 
L 183.542485 226.476877 
L 184.33843 228.568566 
L 185.134375 233.302284 
L 186.726264 245.476403 
L 187.522209 249.796521 
L 188.318154 251.475014 
L 189.114098 250.3513 
L 189.910043 247.034147 
L 191.501932 238.292337 
L 192.297877 234.904334 
L 193.093822 232.768127 
L 193.889766 231.631908 
L 194.685711 230.877514 
L 195.481656 229.828116 
L 196.2776 228.043296 
L 197.073545 225.494162 
L 198.665434 219.914029 
L 199.461379 218.214746 
L 200.257324 217.947136 
L 201.053269 219.234989 
L 201.849213 221.813342 
L 203.441103 228.350713 
L 204.237047 230.805598 
L 205.032992 231.86558 
L 205.828937 231.199899 
L 206.624881 228.819874 
L 207.420826 225.0955 
L 209.012715 216.53065 
L 209.80866 213.451961 
L 210.604605 212.160747 
L 211.400549 212.956702 
L 212.196494 215.643061 
L 214.584328 227.127394 
L 215.380273 229.051896 
L 216.176218 229.211921 
L 216.972162 227.842233 
L 220.155941 218.939647 
L 220.951886 217.113885 
L 221.74783 214.721112 
L 222.543775 211.195372 
L 223.33972 206.308802 
L 225.727554 188.555666 
L 226.523498 184.682842 
L 227.319443 182.982713 
L 228.115388 183.369903 
L 228.911332 185.202749 
L 229.707277 187.523586 
L 230.503222 189.399193 
L 231.299166 190.226472 
L 232.095111 189.888133 
L 232.891056 188.709293 
L 233.687001 187.249398 
L 234.482945 186.028416 
L 235.27889 185.30619 
L 236.870779 184.784337 
L 237.666724 184.253134 
L 238.462669 183.161938 
L 240.850503 178.055578 
L 241.646447 177.026412 
L 242.442392 176.778317 
L 243.238337 177.196658 
L 244.034281 177.921429 
L 244.830226 178.479373 
L 245.626171 178.440403 
L 246.422115 177.533849 
L 247.21806 175.689464 
L 248.014005 173.008048 
L 249.605894 166.020822 
L 251.197784 158.808272 
L 251.993728 156.015359 
L 252.789673 154.304672 
L 253.585618 153.992221 
L 254.381562 155.161276 
L 255.177507 157.542268 
L 256.769396 163.067661 
L 257.565341 164.33726 
L 258.361286 163.607626 
L 259.15723 160.711573 
L 259.953175 156.099338 
L 261.545064 145.777877 
L 262.341009 142.254955 
L 263.136954 140.682269 
L 263.932898 140.939507 
L 265.524788 143.949383 
L 266.320733 144.886266 
L 267.116677 144.711462 
L 267.912622 143.533522 
L 268.708567 141.93354 
L 269.504511 140.701736 
L 270.300456 140.505628 
L 271.096401 141.624214 
L 271.892345 143.848923 
L 273.484235 149.058706 
L 274.280179 150.652564 
L 275.076124 151.046232 
L 275.872069 150.304996 
L 276.668013 148.785995 
L 278.259903 145.249166 
L 279.055847 143.896878 
L 279.851792 142.997327 
L 280.647737 142.564369 
L 281.443682 142.637212 
L 282.239626 143.338091 
L 283.035571 144.84829 
L 283.831516 147.311614 
L 284.62746 150.714218 
L 287.015294 162.994919 
L 287.811239 165.91174 
L 288.607184 167.474978 
L 289.403128 167.603372 
L 290.199073 166.513477 
L 290.995018 164.632616 
L 292.586907 160.450019 
L 293.382852 158.902057 
L 294.178796 157.971066 
L 294.974741 157.686243 
L 295.770686 158.007257 
L 296.56663 158.868372 
L 297.362575 160.196698 
L 298.15852 161.908031 
L 299.750409 166.046767 
L 302.138243 172.380682 
L 303.730133 175.862537 
L 304.526077 177.183991 
L 305.322022 178.077712 
L 306.117967 178.453929 
L 306.913911 178.341216 
L 307.709856 177.974934 
L 308.505801 177.832236 
L 309.301745 178.572555 
L 310.09769 180.87601 
L 310.893635 185.216626 
L 311.689579 191.644892 
L 314.077414 216.174994 
L 314.873358 222.079274 
L 315.669303 225.081733 
L 316.465248 224.899239 
L 317.261192 221.951919 
L 319.649026 207.606612 
L 320.444971 204.770143 
L 321.240916 203.843125 
L 322.03686 204.57833 
L 324.424694 209.728523 
L 325.220639 210.244983 
L 326.016584 209.784813 
L 327.608473 207.450589 
L 328.404418 206.816593 
L 329.200363 207.361297 
L 329.996307 209.466642 
L 330.792252 213.193174 
L 332.384141 223.988515 
L 333.180086 229.598759 
L 333.976031 234.19222 
L 334.771975 237.037523 
L 335.56792 237.72182 
L 336.363865 236.248551 
L 337.159809 233.028111 
L 340.343588 216.538973 
L 341.935477 211.206314 
L 342.731422 208.589933 
L 343.527367 205.518301 
L 345.915201 194.70706 
L 346.711146 192.392704 
L 347.50709 191.81989 
L 348.303035 193.324523 
L 349.09898 196.829611 
L 349.894924 201.853341 
L 351.486814 213.322944 
L 352.282758 218.197097 
L 353.078703 221.809091 
L 353.874648 224.059229 
L 354.670592 225.166781 
L 355.466537 225.565813 
L 356.262482 225.763657 
L 357.058426 226.204453 
L 357.854371 227.171469 
L 358.650316 228.744613 
L 360.242205 233.107342 
L 361.03815 235.290975 
L 361.834095 236.995827 
L 362.630039 237.890788 
L 363.425984 237.723031 
L 364.221929 236.356055 
L 365.017873 233.804052 
L 365.813818 230.258 
L 368.201652 218.094786 
L 368.997597 215.444206 
L 369.793541 214.277316 
L 370.589486 214.687107 
L 371.385431 216.401118 
L 372.97732 221.129187 
L 373.773265 222.575223 
L 374.569209 222.649175 
L 375.365154 221.296668 
L 376.957043 216.502713 
L 377.752988 214.896089 
L 378.548933 214.963041 
L 379.344878 217.05832 
L 380.140822 220.919339 
L 381.732712 230.207384 
L 382.528656 233.220241 
L 383.324601 233.866736 
L 384.120546 231.859552 
L 384.91649 227.563724 
L 387.304324 210.746068 
L 388.100269 207.134194 
L 388.896214 205.356812 
L 389.692158 205.270928 
L 390.488103 206.43874 
L 392.875937 212.218498 
L 393.671882 213.589392 
L 394.467827 214.279334 
L 395.263771 214.120336 
L 396.059716 212.971614 
L 396.855661 210.762021 
L 397.651605 207.555105 
L 400.835384 191.513413 
L 401.631329 188.748197 
L 402.427273 186.830309 
L 403.223218 185.552818 
L 406.406997 181.903985 
L 407.202941 181.510406 
L 407.998886 181.945548 
L 408.794831 183.452608 
L 409.590775 185.985572 
L 411.182665 192.292808 
L 411.97861 194.626961 
L 412.774554 195.492102 
L 413.570499 194.519397 
L 413.570499 194.519397 
" clip-path="url(#p3839736483)" style="fill: none; stroke: #e41a1c; stroke-width: 1.5; stroke-linecap: square"/>
   </g>
   <g id="line2d_13">
    <path d="M 46.64 247.114138 
L 47.435945 246.052917 
L 48.231889 245.588168 
L 49.027834 245.945181 
L 49.823779 247.196701 
L 50.619723 249.224392 
L 53.007557 256.567051 
L 53.803502 258.143025 
L 54.599447 258.875522 
L 55.395392 258.777206 
L 56.191336 258.027174 
L 57.783226 255.786422 
L 58.57917 254.954756 
L 59.375115 254.683406 
L 60.17106 255.148902 
L 60.967004 256.434868 
L 61.762949 258.530413 
L 62.558894 261.329994 
L 65.742672 274.471805 
L 66.538617 276.555429 
L 67.334562 277.577261 
L 68.130506 277.450917 
L 68.926451 276.267452 
L 69.722396 274.285889 
L 72.11023 267.429577 
L 72.906175 265.969833 
L 73.702119 265.151327 
L 74.498064 264.8547 
L 76.089953 264.841963 
L 76.885898 264.64661 
L 77.681843 264.17909 
L 79.273732 262.875124 
L 80.069677 262.501903 
L 80.865621 262.610668 
L 81.661566 263.282758 
L 82.457511 264.42926 
L 84.0494 267.088236 
L 84.845345 267.955479 
L 85.641289 268.197518 
L 86.437234 267.767124 
L 87.233179 266.787931 
L 88.825068 264.229044 
L 89.621013 263.207549 
L 90.416958 262.606941 
L 91.212902 262.463712 
L 92.008847 262.699636 
L 94.396681 263.980615 
L 95.192626 264.000051 
L 95.98857 263.588059 
L 96.784515 262.674448 
L 97.58046 261.243168 
L 98.376404 259.341042 
L 102.356128 248.369669 
L 103.152073 247.143177 
L 103.948017 246.407892 
L 104.743962 246.072101 
L 105.539907 246.005948 
L 107.131796 246.270975 
L 107.927741 246.546119 
L 108.723685 246.97306 
L 109.51963 247.610768 
L 111.111519 249.490785 
L 111.907464 250.516258 
L 112.703409 251.347634 
L 113.499353 251.787318 
L 114.295298 251.698655 
L 115.091243 251.044518 
L 115.887187 249.893602 
L 117.479077 246.724066 
L 119.070966 243.460265 
L 120.662856 240.688135 
L 122.254745 238.295878 
L 123.846634 236.230945 
L 124.642579 235.418507 
L 125.438524 234.827285 
L 126.234468 234.499582 
L 127.030413 234.459085 
L 127.826358 234.716543 
L 128.622302 235.280157 
L 129.418247 236.16182 
L 130.214192 237.37171 
L 131.010136 238.899362 
L 134.193915 245.964213 
L 134.98986 246.880988 
L 135.785805 247.000472 
L 136.581749 246.250771 
L 137.377694 244.731641 
L 139.765528 238.801525 
L 140.561473 237.684088 
L 141.357417 237.422948 
L 142.153362 237.972753 
L 144.541196 241.251429 
L 145.337141 241.527786 
L 146.133085 240.952521 
L 146.92903 239.542842 
L 147.724975 237.495488 
L 150.112809 230.53883 
L 150.908753 228.745663 
L 151.704698 227.377976 
L 152.500643 226.419994 
L 153.296588 225.836386 
L 154.092532 225.59843 
L 154.888477 225.679663 
L 155.684422 226.025716 
L 157.276311 226.962852 
L 158.072256 227.10747 
L 158.8682 226.711765 
L 159.664145 225.628403 
L 160.46009 223.874853 
L 162.847924 217.323752 
L 163.643868 215.957307 
L 164.439813 215.398545 
L 165.235758 215.575004 
L 166.827647 216.890605 
L 167.623592 217.248362 
L 168.419537 217.03173 
L 169.215481 216.203063 
L 171.603315 212.330541 
L 172.39926 211.599215 
L 173.195205 211.448436 
L 173.991149 211.829716 
L 175.583039 213.442899 
L 176.378983 214.237945 
L 177.174928 214.81641 
L 177.970873 215.130119 
L 178.766817 215.214563 
L 180.358707 215.1243 
L 181.154651 215.243461 
L 181.950596 215.685837 
L 182.746541 216.592473 
L 183.542485 218.049129 
L 184.33843 220.045185 
L 186.726264 227.291979 
L 187.522209 229.051089 
L 188.318154 230.023481 
L 189.114098 230.189247 
L 189.910043 229.772334 
L 190.705988 229.193293 
L 191.501932 228.943236 
L 192.297877 229.41446 
L 193.093822 230.744864 
L 195.481656 236.508768 
L 196.2776 236.999611 
L 197.073545 235.995953 
L 197.86949 233.544041 
L 200.257324 223.343535 
L 201.053269 221.488263 
L 201.849213 221.148341 
L 202.645158 222.175918 
L 205.032992 227.675068 
L 205.828937 228.319218 
L 206.624881 227.942014 
L 207.420826 226.74905 
L 209.012715 223.580584 
L 209.80866 222.408068 
L 210.604605 221.802499 
L 211.400549 221.754299 
L 212.196494 222.127201 
L 213.788383 223.470002 
L 215.380273 225.069146 
L 216.972162 227.068111 
L 220.951886 232.927928 
L 222.543775 234.545442 
L 224.135664 235.831171 
L 226.523498 237.423262 
L 228.115388 238.584813 
L 228.911332 239.428733 
L 229.707277 240.560156 
L 230.503222 242.006556 
L 232.095111 245.60794 
L 233.687001 249.303394 
L 235.27889 252.251617 
L 236.870779 254.467075 
L 239.258613 257.250839 
L 240.054558 257.997292 
L 240.850503 258.573469 
L 241.646447 258.967551 
L 245.626171 260.184226 
L 246.422115 260.357548 
L 247.21806 260.237364 
L 248.014005 259.65877 
L 248.80995 258.545342 
L 250.401839 255.137332 
L 251.197784 253.404226 
L 251.993728 252.136829 
L 252.789673 251.639586 
L 253.585618 252.061654 
L 254.381562 253.350755 
L 255.973452 257.423654 
L 256.769396 259.423663 
L 257.565341 260.916572 
L 258.361286 261.695619 
L 259.15723 261.728775 
L 259.953175 261.149254 
L 262.341009 258.473943 
L 263.136954 258.20002 
L 263.932898 258.515931 
L 264.728843 259.409862 
L 266.320733 262.253995 
L 267.116677 263.632009 
L 267.912622 264.544793 
L 268.708567 264.725674 
L 269.504511 264.038263 
L 270.300456 262.522365 
L 273.484235 254.255152 
L 274.280179 253.475922 
L 275.076124 253.590893 
L 275.872069 254.479541 
L 277.463958 257.49938 
L 279.055847 260.372505 
L 279.851792 261.399965 
L 280.647737 262.159913 
L 281.443682 262.70718 
L 282.239626 263.075842 
L 283.035571 263.256168 
L 283.831516 263.208831 
L 284.62746 262.907389 
L 287.015294 261.225752 
L 287.811239 260.978266 
L 288.607184 261.160076 
L 289.403128 261.785072 
L 291.790962 264.434465 
L 292.586907 264.680254 
L 293.382852 264.332601 
L 294.178796 263.462332 
L 295.770686 261.133249 
L 296.56663 260.276528 
L 297.362575 259.924566 
L 298.15852 260.138584 
L 298.954465 260.842372 
L 302.138243 264.947771 
L 302.934188 265.57895 
L 303.730133 265.960725 
L 304.526077 266.125342 
L 306.117967 266.015637 
L 307.709856 265.767789 
L 308.505801 265.777852 
L 309.301745 265.958778 
L 310.09769 266.332216 
L 311.689579 267.511693 
L 313.281469 268.697595 
L 314.077414 269.084865 
L 314.873358 269.295666 
L 316.465248 269.335781 
L 319.649026 269.150564 
L 320.444971 268.969295 
L 321.240916 268.597123 
L 322.03686 267.979225 
L 322.832805 267.105518 
L 324.424694 264.826277 
L 326.016584 262.653924 
L 326.812528 261.945056 
L 327.608473 261.596813 
L 328.404418 261.601438 
L 329.996307 262.252754 
L 330.792252 262.568502 
L 331.588197 262.658877 
L 332.384141 262.428806 
L 333.180086 261.873221 
L 336.363865 258.648191 
L 337.159809 258.183803 
L 337.955754 257.917672 
L 339.547643 257.746037 
L 341.139533 257.835603 
L 341.935477 258.019855 
L 344.323311 258.940669 
L 345.119256 258.896721 
L 345.915201 258.303708 
L 346.711146 256.97796 
L 347.50709 254.858982 
L 348.303035 252.0436 
L 350.690869 242.179856 
L 351.486814 239.46636 
L 352.282758 237.400064 
L 353.078703 236.044664 
L 353.874648 235.391572 
L 354.670592 235.402503 
L 355.466537 236.037979 
L 356.262482 237.256036 
L 357.058426 238.982404 
L 359.44626 245.271586 
L 360.242205 246.704255 
L 361.03815 247.280672 
L 361.834095 246.854235 
L 362.630039 245.476263 
L 363.425984 243.389707 
L 365.017873 238.582376 
L 365.813818 236.545339 
L 366.609763 234.981985 
L 367.405707 233.839877 
L 368.997597 232.008921 
L 369.793541 230.886122 
L 371.385431 227.868288 
L 372.97732 224.773637 
L 373.773265 223.755468 
L 374.569209 223.324476 
L 375.365154 223.554781 
L 376.161099 224.443263 
L 376.957043 225.934409 
L 377.752988 227.943606 
L 379.344878 233.064958 
L 380.936767 238.516682 
L 381.732712 240.759519 
L 382.528656 242.323806 
L 383.324601 243.019276 
L 384.120546 242.796688 
L 384.91649 241.787439 
L 386.50838 238.743388 
L 387.304324 237.560793 
L 388.100269 237.082396 
L 388.896214 237.449817 
L 389.692158 238.57025 
L 391.284048 241.714057 
L 392.079992 242.84048 
L 392.875937 243.154411 
L 393.671882 242.47009 
L 394.467827 240.807719 
L 395.263771 238.366749 
L 398.44755 227.05286 
L 399.243495 225.044462 
L 400.039439 223.561255 
L 400.835384 222.590572 
L 401.631329 222.089898 
L 402.427273 221.990106 
L 403.223218 222.18427 
L 404.815107 222.766948 
L 405.611052 222.702269 
L 406.406997 222.096734 
L 407.202941 220.808966 
L 407.998886 218.83602 
L 410.38672 211.139663 
L 411.182665 209.237409 
L 411.97861 208.229234 
L 412.774554 208.224474 
L 413.570499 209.113396 
L 413.570499 209.113396 
" clip-path="url(#p3839736483)" style="fill: none; stroke: #377eb8; stroke-width: 1.5; stroke-linecap: square"/>
   </g>
   <g id="line2d_14">
    <path d="M 87.233179 318.04 
L 87.233179 71.732 
" clip-path="url(#p3839736483)" style="fill: none; stroke: #000000; stroke-width: 0.5; stroke-linecap: square"/>
   </g>
   <g id="line2d_15">
    <path d="M 46.64 262.277278 
L 413.570499 262.277278 
" clip-path="url(#p3839736483)" style="fill: none; stroke: #000000; stroke-width: 0.5; stroke-linecap: square"/>
   </g>
   <g id="patch_4">
    <path d="M 46.64 318.04 
L 46.64 71.732 
" style="fill: none; stroke: #000000; stroke-width: 0.8; stroke-linejoin: miter; stroke-linecap: square"/>
   </g>
   <g id="patch_5">
    <path d="M 413.570499 318.04 
L 413.570499 71.732 
" style="fill: none; stroke: #000000; stroke-width: 0.8; stroke-linejoin: miter; stroke-linecap: square"/>
   </g>
   <g id="patch_6">
    <path d="M 46.64 318.04 
L 413.570499 318.04 
" style="fill: none; stroke: #000000; stroke-width: 0.8; stroke-linejoin: miter; stroke-linecap: square"/>
   </g>
   <g id="patch_7">
    <path d="M 46.64 71.732 
L 413.570499 71.732 
" style="fill: none; stroke: #000000; stroke-width: 0.8; stroke-linejoin: miter; stroke-linecap: square"/>
   </g>
   <g id="text_14">
    <!-- Cz -->
    <g transform="translate(222.766499 65.732)scale(0.12 -0.12)">
     <defs>
      <path id="DejaVuSans-43" d="M 4122 4306 
L 4122 3641 
Q 3803 3938 3442 4084 
Q 3081 4231 2675 4231 
Q 1875 4231 1450 3742 
Q 1025 3253 1025 2328 
Q 1025 1406 1450 917 
Q 1875 428 2675 428 
Q 3081 428 3442 575 
Q 3803 722 4122 1019 
L 4122 359 
Q 3791 134 3420 21 
Q 3050 -91 2638 -91 
Q 1578 -91 968 557 
Q 359 1206 359 2328 
Q 359 3453 968 4101 
Q 1578 4750 2638 4750 
Q 3056 4750 3426 4639 
Q 3797 4528 4122 4306 
z
" transform="scale(0.015625)"/>
      <path id="DejaVuSans-7a" d="M 353 3500 
L 3084 3500 
L 3084 2975 
L 922 459 
L 3084 459 
L 3084 0 
L 275 0 
L 275 525 
L 2438 3041 
L 353 3041 
L 353 3500 
z
" transform="scale(0.015625)"/>
     </defs>
     <use xlink:href="#DejaVuSans-43"/>
     <use xlink:href="#DejaVuSans-7a" x="69.824219"/>
    </g>
   </g>
   <g id="legend_1">
    <g id="patch_8">
     <path d="M 99.877906 48.500845 
L 360.332593 48.500845 
Q 362.332593 48.500845 362.332593 46.500845 
L 362.332593 18.144595 
Q 362.332593 16.144595 360.332593 16.144595 
L 99.877906 16.144595 
Q 97.877906 16.144595 97.877906 18.144595 
L 97.877906 46.500845 
Q 97.877906 48.500845 99.877906 48.500845 
z
" style="fill: #ffffff; opacity: 0.8; stroke: #cccccc; stroke-linejoin: miter"/>
    </g>
    <g id="text_15">
     <!-- Average of Session 1 -->
     <g transform="translate(177.727124 27.743033)scale(0.1 -0.1)">
      <defs>
       <path id="DejaVuSans-41" d="M 2188 4044 
L 1331 1722 
L 3047 1722 
L 2188 4044 
z
M 1831 4666 
L 2547 4666 
L 4325 0 
L 3669 0 
L 3244 1197 
L 1141 1197 
L 716 0 
L 50 0 
L 1831 4666 
z
" transform="scale(0.015625)"/>
       <path id="DejaVuSans-76" d="M 191 3500 
L 800 3500 
L 1894 563 
L 2988 3500 
L 3597 3500 
L 2284 0 
L 1503 0 
L 191 3500 
z
" transform="scale(0.015625)"/>
       <path id="DejaVuSans-72" d="M 2631 2963 
Q 2534 3019 2420 3045 
Q 2306 3072 2169 3072 
Q 1681 3072 1420 2755 
Q 1159 2438 1159 1844 
L 1159 0 
L 581 0 
L 581 3500 
L 1159 3500 
L 1159 2956 
Q 1341 3275 1631 3429 
Q 1922 3584 2338 3584 
Q 2397 3584 2469 3576 
Q 2541 3569 2628 3553 
L 2631 2963 
z
" transform="scale(0.015625)"/>
       <path id="DejaVuSans-61" d="M 2194 1759 
Q 1497 1759 1228 1600 
Q 959 1441 959 1056 
Q 959 750 1161 570 
Q 1363 391 1709 391 
Q 2188 391 2477 730 
Q 2766 1069 2766 1631 
L 2766 1759 
L 2194 1759 
z
M 3341 1997 
L 3341 0 
L 2766 0 
L 2766 531 
Q 2569 213 2275 61 
Q 1981 -91 1556 -91 
Q 1019 -91 701 211 
Q 384 513 384 1019 
Q 384 1609 779 1909 
Q 1175 2209 1959 2209 
L 2766 2209 
L 2766 2266 
Q 2766 2663 2505 2880 
Q 2244 3097 1772 3097 
Q 1472 3097 1187 3025 
Q 903 2953 641 2809 
L 641 3341 
Q 956 3463 1253 3523 
Q 1550 3584 1831 3584 
Q 2591 3584 2966 3190 
Q 3341 2797 3341 1997 
z
" transform="scale(0.015625)"/>
       <path id="DejaVuSans-67" d="M 2906 1791 
Q 2906 2416 2648 2759 
Q 2391 3103 1925 3103 
Q 1463 3103 1205 2759 
Q 947 2416 947 1791 
Q 947 1169 1205 825 
Q 1463 481 1925 481 
Q 2391 481 2648 825 
Q 2906 1169 2906 1791 
z
M 3481 434 
Q 3481 -459 3084 -895 
Q 2688 -1331 1869 -1331 
Q 1566 -1331 1297 -1286 
Q 1028 -1241 775 -1147 
L 775 -588 
Q 1028 -725 1275 -790 
Q 1522 -856 1778 -856 
Q 2344 -856 2625 -561 
Q 2906 -266 2906 331 
L 2906 616 
Q 2728 306 2450 153 
Q 2172 0 1784 0 
Q 1141 0 747 490 
Q 353 981 353 1791 
Q 353 2603 747 3093 
Q 1141 3584 1784 3584 
Q 2172 3584 2450 3431 
Q 2728 3278 2906 2969 
L 2906 3500 
L 3481 3500 
L 3481 434 
z
" transform="scale(0.015625)"/>
       <path id="DejaVuSans-20" transform="scale(0.015625)"/>
       <path id="DejaVuSans-66" d="M 2375 4863 
L 2375 4384 
L 1825 4384 
Q 1516 4384 1395 4259 
Q 1275 4134 1275 3809 
L 1275 3500 
L 2222 3500 
L 2222 3053 
L 1275 3053 
L 1275 0 
L 697 0 
L 697 3053 
L 147 3053 
L 147 3500 
L 697 3500 
L 697 3744 
Q 697 4328 969 4595 
Q 1241 4863 1831 4863 
L 2375 4863 
z
" transform="scale(0.015625)"/>
       <path id="DejaVuSans-53" d="M 3425 4513 
L 3425 3897 
Q 3066 4069 2747 4153 
Q 2428 4238 2131 4238 
Q 1616 4238 1336 4038 
Q 1056 3838 1056 3469 
Q 1056 3159 1242 3001 
Q 1428 2844 1947 2747 
L 2328 2669 
Q 3034 2534 3370 2195 
Q 3706 1856 3706 1288 
Q 3706 609 3251 259 
Q 2797 -91 1919 -91 
Q 1588 -91 1214 -16 
Q 841 59 441 206 
L 441 856 
Q 825 641 1194 531 
Q 1563 422 1919 422 
Q 2459 422 2753 634 
Q 3047 847 3047 1241 
Q 3047 1584 2836 1778 
Q 2625 1972 2144 2069 
L 1759 2144 
Q 1053 2284 737 2584 
Q 422 2884 422 3419 
Q 422 4038 858 4394 
Q 1294 4750 2059 4750 
Q 2388 4750 2728 4690 
Q 3069 4631 3425 4513 
z
" transform="scale(0.015625)"/>
       <path id="DejaVuSans-69" d="M 603 3500 
L 1178 3500 
L 1178 0 
L 603 0 
L 603 3500 
z
M 603 4863 
L 1178 4863 
L 1178 4134 
L 603 4134 
L 603 4863 
z
" transform="scale(0.015625)"/>
      </defs>
      <use xlink:href="#DejaVuSans-41"/>
      <use xlink:href="#DejaVuSans-76" x="62.533203"/>
      <use xlink:href="#DejaVuSans-65" x="121.712891"/>
      <use xlink:href="#DejaVuSans-72" x="183.236328"/>
      <use xlink:href="#DejaVuSans-61" x="224.349609"/>
      <use xlink:href="#DejaVuSans-67" x="285.628906"/>
      <use xlink:href="#DejaVuSans-65" x="349.105469"/>
      <use xlink:href="#DejaVuSans-20" x="410.628906"/>
      <use xlink:href="#DejaVuSans-6f" x="442.416016"/>
      <use xlink:href="#DejaVuSans-66" x="503.597656"/>
      <use xlink:href="#DejaVuSans-20" x="538.802734"/>
      <use xlink:href="#DejaVuSans-53" x="570.589844"/>
      <use xlink:href="#DejaVuSans-65" x="634.066406"/>
      <use xlink:href="#DejaVuSans-73" x="695.589844"/>
      <use xlink:href="#DejaVuSans-73" x="747.689453"/>
      <use xlink:href="#DejaVuSans-69" x="799.789062"/>
      <use xlink:href="#DejaVuSans-6f" x="827.572266"/>
      <use xlink:href="#DejaVuSans-6e" x="888.753906"/>
      <use xlink:href="#DejaVuSans-20" x="952.132812"/>
      <use xlink:href="#DejaVuSans-31" x="983.919922"/>
     </g>
    </g>
    <g id="line2d_16">
     <path d="M 101.877906 38.921158 
L 111.877906 38.921158 
L 121.877906 38.921158 
" style="fill: none; stroke: #e41a1c; stroke-width: 1.5; stroke-linecap: square"/>
    </g>
    <g id="text_16">
     <!-- Target (n=291) -->
     <g transform="translate(129.877906 42.421158)scale(0.1 -0.1)">
      <defs>
       <path id="DejaVuSans-54" d="M -19 4666 
L 3928 4666 
L 3928 4134 
L 2272 4134 
L 2272 0 
L 1638 0 
L 1638 4134 
L -19 4134 
L -19 4666 
z
" transform="scale(0.015625)"/>
       <path id="DejaVuSans-74" d="M 1172 4494 
L 1172 3500 
L 2356 3500 
L 2356 3053 
L 1172 3053 
L 1172 1153 
Q 1172 725 1289 603 
Q 1406 481 1766 481 
L 2356 481 
L 2356 0 
L 1766 0 
Q 1100 0 847 248 
Q 594 497 594 1153 
L 594 3053 
L 172 3053 
L 172 3500 
L 594 3500 
L 594 4494 
L 1172 4494 
z
" transform="scale(0.015625)"/>
       <path id="DejaVuSans-28" d="M 1984 4856 
Q 1566 4138 1362 3434 
Q 1159 2731 1159 2009 
Q 1159 1288 1364 580 
Q 1569 -128 1984 -844 
L 1484 -844 
Q 1016 -109 783 600 
Q 550 1309 550 2009 
Q 550 2706 781 3412 
Q 1013 4119 1484 4856 
L 1984 4856 
z
" transform="scale(0.015625)"/>
       <path id="DejaVuSans-3d" d="M 678 2906 
L 4684 2906 
L 4684 2381 
L 678 2381 
L 678 2906 
z
M 678 1631 
L 4684 1631 
L 4684 1100 
L 678 1100 
L 678 1631 
z
" transform="scale(0.015625)"/>
       <path id="DejaVuSans-39" d="M 703 97 
L 703 672 
Q 941 559 1184 500 
Q 1428 441 1663 441 
Q 2288 441 2617 861 
Q 2947 1281 2994 2138 
Q 2813 1869 2534 1725 
Q 2256 1581 1919 1581 
Q 1219 1581 811 2004 
Q 403 2428 403 3163 
Q 403 3881 828 4315 
Q 1253 4750 1959 4750 
Q 2769 4750 3195 4129 
Q 3622 3509 3622 2328 
Q 3622 1225 3098 567 
Q 2575 -91 1691 -91 
Q 1453 -91 1209 -44 
Q 966 3 703 97 
z
M 1959 2075 
Q 2384 2075 2632 2365 
Q 2881 2656 2881 3163 
Q 2881 3666 2632 3958 
Q 2384 4250 1959 4250 
Q 1534 4250 1286 3958 
Q 1038 3666 1038 3163 
Q 1038 2656 1286 2365 
Q 1534 2075 1959 2075 
z
" transform="scale(0.015625)"/>
       <path id="DejaVuSans-29" d="M 513 4856 
L 1013 4856 
Q 1481 4119 1714 3412 
Q 1947 2706 1947 2009 
Q 1947 1309 1714 600 
Q 1481 -109 1013 -844 
L 513 -844 
Q 928 -128 1133 580 
Q 1338 1288 1338 2009 
Q 1338 2731 1133 3434 
Q 928 4138 513 4856 
z
" transform="scale(0.015625)"/>
      </defs>
      <use xlink:href="#DejaVuSans-54"/>
      <use xlink:href="#DejaVuSans-61" x="44.583984"/>
      <use xlink:href="#DejaVuSans-72" x="105.863281"/>
      <use xlink:href="#DejaVuSans-67" x="145.226562"/>
      <use xlink:href="#DejaVuSans-65" x="208.703125"/>
      <use xlink:href="#DejaVuSans-74" x="270.226562"/>
      <use xlink:href="#DejaVuSans-20" x="309.435547"/>
      <use xlink:href="#DejaVuSans-28" x="341.222656"/>
      <use xlink:href="#DejaVuSans-6e" x="380.236328"/>
      <use xlink:href="#DejaVuSans-3d" x="443.615234"/>
      <use xlink:href="#DejaVuSans-32" x="527.404297"/>
      <use xlink:href="#DejaVuSans-39" x="591.027344"/>
      <use xlink:href="#DejaVuSans-31" x="654.650391"/>
      <use xlink:href="#DejaVuSans-29" x="718.273438"/>
     </g>
    </g>
    <g id="line2d_17">
     <path d="M 225.607593 38.921158 
L 235.607593 38.921158 
L 245.607593 38.921158 
" style="fill: none; stroke: #377eb8; stroke-width: 1.5; stroke-linecap: square"/>
    </g>
    <g id="text_17">
     <!-- Non-Target (n=1447) -->
     <g transform="translate(253.607593 42.421158)scale(0.1 -0.1)">
      <defs>
       <path id="DejaVuSans-4e" d="M 628 4666 
L 1478 4666 
L 3547 763 
L 3547 4666 
L 4159 4666 
L 4159 0 
L 3309 0 
L 1241 3903 
L 1241 0 
L 628 0 
L 628 4666 
z
" transform="scale(0.015625)"/>
       <path id="DejaVuSans-2d" d="M 313 2009 
L 1997 2009 
L 1997 1497 
L 313 1497 
L 313 2009 
z
" transform="scale(0.015625)"/>
       <path id="DejaVuSans-37" d="M 525 4666 
L 3525 4666 
L 3525 4397 
L 1831 0 
L 1172 0 
L 2766 4134 
L 525 4134 
L 525 4666 
z
" transform="scale(0.015625)"/>
      </defs>
      <use xlink:href="#DejaVuSans-4e"/>
      <use xlink:href="#DejaVuSans-6f" x="74.804688"/>
      <use xlink:href="#DejaVuSans-6e" x="135.986328"/>
      <use xlink:href="#DejaVuSans-2d" x="199.365234"/>
      <use xlink:href="#DejaVuSans-54" x="226.324219"/>
      <use xlink:href="#DejaVuSans-61" x="270.908203"/>
      <use xlink:href="#DejaVuSans-72" x="332.1875"/>
      <use xlink:href="#DejaVuSans-67" x="371.550781"/>
      <use xlink:href="#DejaVuSans-65" x="435.027344"/>
      <use xlink:href="#DejaVuSans-74" x="496.550781"/>
      <use xlink:href="#DejaVuSans-20" x="535.759766"/>
      <use xlink:href="#DejaVuSans-28" x="567.546875"/>
      <use xlink:href="#DejaVuSans-6e" x="606.560547"/>
      <use xlink:href="#DejaVuSans-3d" x="669.939453"/>
      <use xlink:href="#DejaVuSans-31" x="753.728516"/>
      <use xlink:href="#DejaVuSans-34" x="817.351562"/>
      <use xlink:href="#DejaVuSans-34" x="880.974609"/>
      <use xlink:href="#DejaVuSans-37" x="944.597656"/>
      <use xlink:href="#DejaVuSans-29" x="1008.220703"/>
     </g>
    </g>
   </g>
  </g>
 </g>
 <defs>
  <clipPath id="p3839736483">
   <rect x="46.64" y="71.732" width="366.930499" height="246.308"/>
  </clipPath>
 </defs>
</svg>
