<?xml version="1.0" encoding="utf-8" standalone="no"?>
<!DOCTYPE svg PUBLIC "-//W3C//DTD SVG 1.1//EN"
  "http://www.w3.org/Graphics/SVG/1.1/DTD/svg11.dtd">
<svg xmlns:xlink="http://www.w3.org/1999/xlink" width="432pt" height="360pt" viewBox="0 0 432 360" xmlns="http://www.w3.org/2000/svg" version="1.1">
 <metadata>
  <rdf:RDF xmlns:dc="http://purl.org/dc/elements/1.1/" xmlns:cc="http://creativecommons.org/ns#" xmlns:rdf="http://www.w3.org/1999/02/22-rdf-syntax-ns#">
   <cc:Work>
    <dc:type rdf:resource="http://purl.org/dc/dcmitype/StillImage"/>
    <dc:date>2022-05-19T11:52:14.236783</dc:date>
    <dc:format>image/svg+xml</dc:format>
    <dc:creator>
     <cc:Agent>
      <dc:title>Matplotlib v3.5.1, https://matplotlib.org/</dc:title>
     </cc:Agent>
    </dc:creator>
   </cc:Work>
  </rdf:RDF>
 </metadata>
 <defs>
  <style type="text/css">*{stroke-linejoin: round; stroke-linecap: butt}</style>
 </defs>
 <g id="figure_1">
  <g id="patch_1">
   <path d="M 0 360 
L 432 360 
L 432 0 
L 0 0 
L 0 360 
z
" style="fill: none"/>
  </g>
  <g id="axes_1">
   <g id="patch_2">
    <path d="M 46.64 318.04 
L 413.570499 318.04 
L 413.570499 71.732 
L 46.64 71.732 
L 46.64 318.04 
z
" style="fill: none"/>
   </g>
   <g id="PolyCollection_1">
    <defs>
     <path id="m4baff16444" d="M 46.64 -131.177569 
L 46.64 -93.046265 
L 47.435945 -92.816666 
L 48.231889 -90.932958 
L 49.027834 -87.671061 
L 49.823779 -83.81449 
L 50.619723 -80.358387 
L 51.415668 -78.144194 
L 52.211613 -77.565103 
L 53.007557 -78.469469 
L 53.803502 -80.318072 
L 54.599447 -82.499254 
L 55.395392 -84.594607 
L 56.191336 -86.463493 
L 56.987281 -88.164343 
L 57.783226 -89.793772 
L 58.57917 -91.335462 
L 59.375115 -92.599577 
L 60.17106 -93.270132 
L 60.967004 -93.008378 
L 61.762949 -91.569435 
L 62.558894 -88.919823 
L 63.354838 -85.317712 
L 64.150783 -81.306622 
L 64.946728 -77.614536 
L 65.742672 -74.975256 
L 66.538617 -73.886717 
L 67.334562 -74.376416 
L 68.130506 -75.923007 
L 68.926451 -77.650803 
L 69.722396 -78.761749 
L 70.51834 -78.960035 
L 71.314285 -78.550967 
L 72.11023 -78.16739 
L 72.906175 -78.380043 
L 73.702119 -79.459332 
L 74.498064 -81.395423 
L 75.294009 -84.034485 
L 76.089953 -87.091269 
L 76.885898 -90.080425 
L 77.681843 -92.389019 
L 78.477787 -93.550894 
L 79.273732 -93.554747 
L 80.069677 -92.869973 
L 80.865621 -92.101531 
L 81.661566 -91.601658 
L 82.457511 -91.350189 
L 83.253455 -91.128905 
L 84.0494 -90.796052 
L 84.845345 -90.422058 
L 85.641289 -90.237123 
L 86.437234 -90.513227 
L 87.233179 -91.458793 
L 88.029124 -93.119629 
L 88.825068 -95.292303 
L 89.621013 -97.51163 
L 90.416958 -99.162171 
L 91.212902 -99.667748 
L 92.008847 -98.653412 
L 92.804792 -96.022093 
L 93.600736 -91.959993 
L 94.396681 -86.909815 
L 95.192626 -81.537992 
L 95.98857 -76.675966 
L 96.784515 -73.172449 
L 97.58046 -71.651692 
L 98.376404 -72.294009 
L 99.172349 -74.774023 
L 99.968294 -78.405326 
L 100.764238 -82.423702 
L 101.560183 -86.231228 
L 102.356128 -89.447947 
L 103.152073 -91.810545 
L 103.948017 -93.084019 
L 104.743962 -93.114214 
L 105.539907 -92.026626 
L 106.335851 -90.374307 
L 107.131796 -88.970271 
L 107.927741 -88.467876 
L 108.723685 -89.025973 
L 109.51963 -90.268276 
L 110.315575 -91.518589 
L 111.111519 -92.129114 
L 111.907464 -91.685899 
L 112.703409 -90.055821 
L 113.499353 -87.391354 
L 114.295298 -84.137251 
L 115.091243 -80.980052 
L 115.887187 -78.697215 
L 116.683132 -77.937183 
L 117.479077 -79.0054 
L 118.275021 -81.730426 
L 119.070966 -85.469772 
L 119.866911 -89.287509 
L 120.662856 -92.259447 
L 121.4588 -93.753735 
L 122.254745 -93.534536 
L 123.05069 -91.700449 
L 123.846634 -88.590198 
L 124.642579 -84.731997 
L 125.438524 -80.798207 
L 126.234468 -77.496797 
L 127.030413 -75.408868 
L 127.826358 -74.857917 
L 128.622302 -75.871626 
L 129.418247 -78.212253 
L 130.214192 -81.414864 
L 131.010136 -84.823365 
L 131.806081 -87.678104 
L 132.602026 -89.290501 
L 133.39797 -89.251635 
L 134.193915 -87.565009 
L 134.98986 -84.63552 
L 135.785805 -81.137074 
L 136.581749 -77.831534 
L 137.377694 -75.404832 
L 138.173639 -74.348381 
L 138.969583 -74.870535 
L 139.765528 -76.819054 
L 140.561473 -79.653527 
L 141.357417 -82.553094 
L 142.153362 -84.683937 
L 142.949307 -85.499348 
L 143.745251 -84.871512 
L 144.541196 -82.999269 
L 145.337141 -80.236552 
L 146.133085 -77.001943 
L 146.92903 -73.785695 
L 147.724975 -71.134131 
L 148.520919 -69.518409 
L 149.316864 -69.165197 
L 150.112809 -70.00496 
L 150.908753 -71.775394 
L 151.704698 -74.159108 
L 152.500643 -76.827024 
L 153.296588 -79.414298 
L 154.092532 -81.550656 
L 154.888477 -82.958518 
L 155.684422 -83.502963 
L 156.480366 -83.14359 
L 157.276311 -81.893246 
L 158.072256 -79.886983 
L 158.8682 -77.493372 
L 159.664145 -75.277919 
L 160.46009 -73.755298 
L 161.256034 -73.110877 
L 162.051979 -73.133701 
L 162.847924 -73.436889 
L 163.643868 -73.771206 
L 164.439813 -74.134463 
L 165.235758 -74.655639 
L 166.031702 -75.468147 
L 166.827647 -76.665662 
L 167.623592 -78.280209 
L 168.419537 -80.233087 
L 169.215481 -82.286585 
L 170.011426 -84.058168 
L 170.807371 -85.120887 
L 171.603315 -85.148989 
L 172.39926 -84.041888 
L 173.195205 -81.986957 
L 173.991149 -79.459184 
L 174.787094 -77.162894 
L 175.583039 -75.89365 
L 176.378983 -76.289451 
L 177.174928 -78.521746 
L 177.970873 -82.100845 
L 178.766817 -85.978708 
L 179.562762 -88.957518 
L 180.358707 -90.169286 
L 181.154651 -89.335284 
L 181.950596 -86.738919 
L 182.746541 -83.061031 
L 183.542485 -79.210814 
L 184.33843 -76.145864 
L 185.134375 -74.604453 
L 185.93032 -74.798922 
L 186.726264 -76.291384 
L 187.522209 -78.187448 
L 188.318154 -79.507181 
L 189.114098 -79.484115 
L 189.910043 -77.709136 
L 190.705988 -74.20834 
L 191.501932 -69.511042 
L 192.297877 -64.609839 
L 193.093822 -60.687928 
L 193.889766 -58.706386 
L 194.685711 -59.113742 
L 195.481656 -61.807452 
L 196.2776 -66.254464 
L 197.073545 -71.640177 
L 197.86949 -77.030313 
L 198.665434 -81.584769 
L 199.461379 -84.77769 
L 200.257324 -86.494515 
L 201.053269 -86.94741 
L 201.849213 -86.506678 
L 202.645158 -85.578804 
L 203.441103 -84.544744 
L 204.237047 -83.687167 
L 205.032992 -83.099032 
L 205.828937 -82.660065 
L 206.624881 -82.132449 
L 207.420826 -81.308423 
L 208.216771 -80.102378 
L 209.012715 -78.564583 
L 209.80866 -76.875228 
L 210.604605 -75.341401 
L 211.400549 -74.340867 
L 212.196494 -74.185083 
L 212.992439 -74.986447 
L 213.788383 -76.640155 
L 214.584328 -78.918888 
L 215.380273 -81.564455 
L 216.176218 -84.293877 
L 216.972162 -86.783803 
L 217.768107 -88.74946 
L 218.564052 -90.098511 
L 219.359996 -90.997228 
L 220.155941 -91.76204 
L 220.951886 -92.689069 
L 221.74783 -93.982519 
L 222.543775 -95.806434 
L 223.33972 -98.326345 
L 224.135664 -101.610772 
L 224.931609 -105.45797 
L 225.727554 -109.344019 
L 226.523498 -112.579882 
L 227.319443 -114.585071 
L 228.115388 -115.131434 
L 228.911332 -114.472489 
L 229.707277 -113.32108 
L 230.503222 -112.635583 
L 231.299166 -113.233988 
L 232.095111 -115.407653 
L 232.891056 -118.791234 
L 233.687001 -122.603057 
L 234.482945 -126.057486 
L 235.27889 -128.614159 
L 236.074835 -129.981079 
L 236.870779 -130.049061 
L 237.666724 -128.899669 
L 238.462669 -126.863356 
L 239.258613 -124.478578 
L 240.054558 -122.258373 
L 240.850503 -120.425107 
L 241.646447 -118.872501 
L 242.442392 -117.389546 
L 243.238337 -115.938327 
L 244.034281 -114.761949 
L 244.830226 -114.267443 
L 245.626171 -114.805311 
L 246.422115 -116.509959 
L 247.21806 -119.24502 
L 248.014005 -122.564093 
L 248.80995 -125.665613 
L 249.605894 -127.485947 
L 250.401839 -127.064128 
L 251.197784 -124.112009 
L 251.993728 -119.424253 
L 252.789673 -114.666411 
L 253.585618 -111.588532 
L 254.381562 -111.255291 
L 255.177507 -113.744729 
L 255.973452 -118.304174 
L 256.769396 -123.684063 
L 257.565341 -128.461518 
L 258.361286 -131.392629 
L 259.15723 -131.8262 
L 259.953175 -129.995368 
L 260.74912 -126.92376 
L 261.545064 -123.951671 
L 262.341009 -122.214646 
L 263.136954 -122.357497 
L 263.932898 -124.464831 
L 264.728843 -128.073423 
L 265.524788 -132.279689 
L 266.320733 -136.038343 
L 267.116677 -138.585011 
L 267.912622 -139.710626 
L 268.708567 -139.692908 
L 269.504511 -139.022811 
L 270.300456 -138.204067 
L 271.096401 -137.697468 
L 271.892345 -137.872204 
L 272.68829 -138.887528 
L 273.484235 -140.61588 
L 274.280179 -142.737403 
L 275.076124 -144.959176 
L 275.872069 -147.164302 
L 276.668013 -149.374648 
L 277.463958 -151.622838 
L 278.259903 -153.888627 
L 279.055847 -156.12631 
L 279.851792 -158.299049 
L 280.647737 -160.356939 
L 281.443682 -162.179514 
L 282.239626 -163.539562 
L 283.035571 -164.124509 
L 283.831516 -163.625708 
L 284.62746 -161.875165 
L 285.423405 -158.957449 
L 286.21935 -155.210467 
L 287.015294 -151.112093 
L 287.811239 -147.151161 
L 288.607184 -143.773173 
L 289.403128 -141.379465 
L 290.199073 -140.277946 
L 290.995018 -140.54676 
L 291.790962 -141.90781 
L 292.586907 -143.738742 
L 293.382852 -145.245651 
L 294.178796 -145.696205 
L 294.974741 -144.594056 
L 295.770686 -141.761733 
L 296.56663 -137.371737 
L 297.362575 -131.948557 
L 298.15852 -126.312325 
L 298.954465 -121.425105 
L 299.750409 -118.149059 
L 300.546354 -116.993199 
L 301.342299 -117.954287 
L 302.138243 -120.52126 
L 302.934188 -123.840234 
L 303.730133 -126.981522 
L 304.526077 -129.235769 
L 305.322022 -130.364103 
L 306.117967 -130.705962 
L 306.913911 -131.051973 
L 307.709856 -132.290632 
L 308.505801 -134.98866 
L 309.301745 -139.120796 
L 310.09769 -144.069532 
L 310.893635 -148.851895 
L 311.689579 -152.431599 
L 312.485524 -154.006856 
L 313.281469 -153.237776 
L 314.077414 -150.366564 
L 314.873358 -146.142795 
L 315.669303 -141.54218 
L 316.465248 -137.420246 
L 317.261192 -134.287952 
L 318.057137 -132.288142 
L 318.853082 -131.307957 
L 319.649026 -131.107384 
L 320.444971 -131.402759 
L 321.240916 -131.924044 
L 322.03686 -132.46563 
L 322.832805 -132.89829 
L 323.62875 -133.115279 
L 324.424694 -132.963216 
L 325.220639 -132.243271 
L 326.016584 -130.805177 
L 326.812528 -128.670894 
L 327.608473 -126.096873 
L 328.404418 -123.524462 
L 329.200363 -121.439422 
L 329.996307 -120.210179 
L 330.792252 -119.970705 
L 331.588197 -120.580639 
L 332.384141 -121.67486 
L 333.180086 -122.80516 
L 333.976031 -123.638204 
L 334.771975 -124.10746 
L 335.56792 -124.402724 
L 336.363865 -124.788383 
L 337.159809 -125.390604 
L 337.955754 -126.117917 
L 338.751699 -126.744694 
L 339.547643 -127.044465 
L 340.343588 -126.870498 
L 341.139533 -126.198772 
L 341.935477 -125.189843 
L 342.731422 -124.241949 
L 343.527367 -123.923915 
L 344.323311 -124.738504 
L 345.119256 -126.847675 
L 345.915201 -129.963471 
L 346.711146 -133.465955 
L 347.50709 -136.6347 
L 348.303035 -138.861752 
L 349.09898 -139.803616 
L 349.894924 -139.467951 
L 350.690869 -138.192275 
L 351.486814 -136.472647 
L 352.282758 -134.706089 
L 353.078703 -133.01633 
L 353.874648 -131.289965 
L 354.670592 -129.376422 
L 355.466537 -127.278465 
L 356.262482 -125.209594 
L 357.058426 -123.529314 
L 357.854371 -122.621288 
L 358.650316 -122.750618 
L 359.44626 -123.924607 
L 360.242205 -125.812837 
L 361.03815 -127.793538 
L 361.834095 -129.139426 
L 362.630039 -129.277158 
L 363.425984 -128.014937 
L 364.221929 -125.645131 
L 365.017873 -122.865713 
L 365.813818 -120.52194 
L 366.609763 -119.258321 
L 367.405707 -119.244815 
L 368.201652 -120.123097 
L 368.997597 -121.203046 
L 369.793541 -121.805859 
L 370.589486 -121.585489 
L 371.385431 -120.691641 
L 372.181375 -119.72261 
L 372.97732 -119.4981 
L 373.773265 -120.742241 
L 374.569209 -123.801437 
L 375.365154 -128.508812 
L 376.161099 -134.23577 
L 376.957043 -140.082375 
L 377.752988 -145.117136 
L 378.548933 -148.596575 
L 379.344878 -150.128123 
L 380.140822 -149.749133 
L 380.936767 -147.892017 
L 381.732712 -145.231738 
L 382.528656 -142.476089 
L 383.324601 -140.19937 
L 384.120546 -138.780373 
L 384.91649 -138.422491 
L 385.712435 -139.187919 
L 386.50838 -141.000564 
L 387.304324 -143.625339 
L 388.100269 -146.661322 
L 388.896214 -149.580437 
L 389.692158 -151.824857 
L 390.488103 -152.955749 
L 391.284048 -152.812637 
L 392.079992 -151.609007 
L 392.875937 -149.900431 
L 393.671882 -148.42699 
L 394.467827 -147.898401 
L 395.263771 -148.801898 
L 396.059716 -151.275268 
L 396.855661 -155.054804 
L 397.651605 -159.512719 
L 398.44755 -163.806646 
L 399.243495 -167.12682 
L 400.039439 -168.960624 
L 400.835384 -169.262256 
L 401.631329 -168.452462 
L 402.427273 -167.253545 
L 403.223218 -166.431554 
L 404.019163 -166.542388 
L 404.815107 -167.77029 
L 405.611052 -169.913199 
L 406.406997 -172.508598 
L 407.202941 -175.028268 
L 407.998886 -177.05171 
L 408.794831 -178.372742 
L 409.590775 -179.039902 
L 410.38672 -179.328063 
L 411.182665 -179.6254 
L 411.97861 -180.251784 
L 412.774554 -181.281323 
L 413.570499 -182.458158 
L 413.570499 -277.072182 
L 413.570499 -277.072182 
L 412.774554 -276.472381 
L 411.97861 -275.737758 
L 411.182665 -274.902368 
L 410.38672 -273.857972 
L 409.590775 -272.433144 
L 408.794831 -270.486104 
L 407.998886 -268.000506 
L 407.202941 -265.157892 
L 406.406997 -262.335656 
L 405.611052 -260.000417 
L 404.815107 -258.537741 
L 404.019163 -258.107202 
L 403.223218 -258.583729 
L 402.427273 -259.585608 
L 401.631329 -260.563303 
L 400.835384 -260.928026 
L 400.039439 -260.197551 
L 399.243495 -258.126006 
L 398.44755 -254.78568 
L 397.651605 -250.581962 
L 396.855661 -246.187558 
L 396.059716 -242.38474 
L 395.263771 -239.834631 
L 394.467827 -238.848592 
L 393.671882 -239.270257 
L 392.875937 -240.538547 
L 392.079992 -241.902475 
L 391.284048 -242.677021 
L 390.488103 -242.430448 
L 389.692158 -241.057792 
L 388.896214 -238.755635 
L 388.100269 -235.932053 
L 387.304324 -233.082988 
L 386.50838 -230.670928 
L 385.712435 -229.042665 
L 384.91649 -228.39941 
L 384.120546 -228.798426 
L 383.324601 -230.155803 
L 382.528656 -232.242196 
L 381.732712 -234.684591 
L 380.936767 -236.983967 
L 380.140822 -238.551371 
L 379.344878 -238.777938 
L 378.548933 -237.167711 
L 377.752988 -233.529095 
L 376.957043 -228.144439 
L 376.161099 -221.796384 
L 375.365154 -215.585618 
L 374.569209 -210.593529 
L 373.773265 -207.534996 
L 372.97732 -206.548525 
L 372.181375 -207.19581 
L 371.385431 -208.655156 
L 370.589486 -210.033426 
L 369.793541 -210.684315 
L 368.997597 -210.41235 
L 368.201652 -209.487088 
L 367.405707 -208.47932 
L 366.609763 -208.005431 
L 365.813818 -208.484281 
L 365.017873 -209.981985 
L 364.221929 -212.18089 
L 363.425984 -214.482196 
L 362.630039 -216.223876 
L 361.834095 -216.941955 
L 361.03815 -216.555196 
L 360.242205 -215.380301 
L 359.44626 -213.97912 
L 358.650316 -212.920214 
L 357.854371 -212.561431 
L 357.058426 -212.944481 
L 356.262482 -213.85088 
L 355.466537 -214.99208 
L 354.670592 -216.215615 
L 353.874648 -217.581478 
L 353.078703 -219.255904 
L 352.282758 -221.321228 
L 351.486814 -223.652495 
L 350.690869 -225.912144 
L 349.894924 -227.614169 
L 349.09898 -228.225485 
L 348.303035 -227.325651 
L 347.50709 -224.812933 
L 346.711146 -221.044805 
L 345.915201 -216.781285 
L 345.119256 -212.92655 
L 344.323311 -210.218577 
L 343.527367 -209.02932 
L 342.731422 -209.309363 
L 341.935477 -210.622171 
L 341.139533 -212.260291 
L 340.343588 -213.482769 
L 339.547643 -213.815856 
L 338.751699 -213.23271 
L 337.955754 -212.074977 
L 337.159809 -210.776952 
L 336.363865 -209.606449 
L 335.56792 -208.592823 
L 334.771975 -207.624214 
L 333.976031 -206.579657 
L 333.180086 -205.411534 
L 332.384141 -204.19175 
L 331.588197 -203.145172 
L 330.792252 -202.631497 
L 329.996307 -203.028593 
L 329.200363 -204.55189 
L 328.404418 -207.115348 
L 327.608473 -210.319742 
L 326.812528 -213.570011 
L 326.016584 -216.256428 
L 325.220639 -217.926359 
L 324.424694 -218.400341 
L 323.62875 -217.809748 
L 322.832805 -216.54604 
L 322.03686 -215.129775 
L 321.240916 -214.042509 
L 320.444971 -213.602505 
L 319.649026 -213.955477 
L 318.853082 -215.158991 
L 318.057137 -217.246741 
L 317.261192 -220.19098 
L 316.465248 -223.805579 
L 315.669303 -227.698313 
L 314.873358 -231.32546 
L 314.077414 -234.109635 
L 313.281469 -235.555519 
L 312.485524 -235.345812 
L 311.689579 -233.443347 
L 310.893635 -230.178793 
L 310.09769 -226.219619 
L 309.301745 -222.358683 
L 308.505801 -219.221249 
L 307.709856 -217.064924 
L 306.913911 -215.755795 
L 306.117967 -214.87842 
L 305.322022 -213.899983 
L 304.526077 -212.347038 
L 303.730133 -209.986699 
L 302.934188 -206.973551 
L 302.138243 -203.872999 
L 301.342299 -201.505382 
L 300.546354 -200.66505 
L 299.750409 -201.842545 
L 298.954465 -205.058751 
L 298.15852 -209.849356 
L 297.362575 -215.381805 
L 296.56663 -220.665412 
L 295.770686 -224.80673 
L 294.974741 -227.245304 
L 294.178796 -227.889427 
L 293.382852 -227.09082 
L 292.586907 -225.469119 
L 291.790962 -223.688345 
L 290.995018 -222.31153 
L 290.199073 -221.767928 
L 289.403128 -222.354 
L 288.607184 -224.182789 
L 287.811239 -227.097256 
L 287.015294 -230.657655 
L 286.21935 -234.275221 
L 285.423405 -237.418536 
L 284.62746 -239.746771 
L 283.831516 -241.108181 
L 283.035571 -241.470466 
L 282.239626 -240.880077 
L 281.443682 -239.467932 
L 280.647737 -237.449836 
L 279.851792 -235.086974 
L 279.055847 -232.618503 
L 278.259903 -230.195193 
L 277.463958 -227.847391 
L 276.668013 -225.524033 
L 275.872069 -223.199232 
L 275.076124 -220.963038 
L 274.280179 -218.996319 
L 273.484235 -217.443211 
L 272.68829 -216.326718 
L 271.892345 -215.601771 
L 271.096401 -215.246317 
L 270.300456 -215.234342 
L 269.504511 -215.396354 
L 268.708567 -215.347824 
L 267.912622 -214.622928 
L 267.116677 -212.914563 
L 266.320733 -210.202433 
L 265.524788 -206.717102 
L 264.728843 -202.895125 
L 263.932898 -199.39758 
L 263.136954 -197.031843 
L 262.341009 -196.44859 
L 261.545064 -197.763251 
L 260.74912 -200.406538 
L 259.953175 -203.328019 
L 259.15723 -205.371547 
L 258.361286 -205.598152 
L 257.565341 -203.54028 
L 256.769396 -199.438515 
L 255.973452 -194.314251 
L 255.177507 -189.660746 
L 254.381562 -186.812037 
L 253.585618 -186.378277 
L 252.789673 -188.115113 
L 251.993728 -191.211117 
L 251.197784 -194.66302 
L 250.401839 -197.471694 
L 249.605894 -198.748641 
L 248.80995 -197.997954 
L 248.014005 -195.459711 
L 247.21806 -192.114924 
L 246.422115 -189.240459 
L 245.626171 -187.781695 
L 244.830226 -187.94622 
L 244.034281 -189.262796 
L 243.238337 -190.987442 
L 242.442392 -192.527429 
L 241.646447 -193.655962 
L 240.850503 -194.498135 
L 240.054558 -195.389078 
L 239.258613 -196.693217 
L 238.462669 -198.599268 
L 237.666724 -200.903424 
L 236.870779 -202.915922 
L 236.074835 -203.687301 
L 235.27889 -202.518487 
L 234.482945 -199.417637 
L 233.687001 -195.171131 
L 232.891056 -190.96186 
L 232.095111 -187.792133 
L 231.299166 -186.113048 
L 230.503222 -185.816582 
L 229.707277 -186.41277 
L 228.911332 -187.207593 
L 228.115388 -187.46527 
L 227.319443 -186.596458 
L 226.523498 -184.337597 
L 225.727554 -180.82136 
L 224.931609 -176.498707 
L 224.135664 -171.981526 
L 223.33972 -167.883675 
L 222.543775 -164.664515 
L 221.74783 -162.467638 
L 220.951886 -161.041083 
L 220.155941 -159.861853 
L 219.359996 -158.427589 
L 218.564052 -156.50217 
L 217.768107 -154.143361 
L 216.972162 -151.54084 
L 216.176218 -148.856803 
L 215.380273 -146.218693 
L 214.584328 -143.7985 
L 213.788383 -141.819533 
L 212.992439 -140.467498 
L 212.196494 -139.819801 
L 211.400549 -139.864542 
L 210.604605 -140.549384 
L 209.80866 -141.773721 
L 209.012715 -143.338884 
L 208.216771 -144.955101 
L 207.420826 -146.348378 
L 206.624881 -147.381332 
L 205.828937 -148.081999 
L 205.032992 -148.583167 
L 204.237047 -149.049235 
L 203.441103 -149.621542 
L 202.645158 -150.345989 
L 201.849213 -151.078174 
L 201.053269 -151.450352 
L 200.257324 -150.980822 
L 199.461379 -149.274834 
L 198.665434 -146.176476 
L 197.86949 -141.80731 
L 197.073545 -136.55512 
L 196.2776 -131.070118 
L 195.481656 -126.210053 
L 194.685711 -122.852186 
L 193.889766 -121.62 
L 193.093822 -122.686034 
L 192.297877 -125.749161 
L 191.501932 -130.122206 
L 190.705988 -134.830771 
L 189.910043 -138.765285 
L 189.114098 -140.995574 
L 188.318154 -141.161458 
L 187.522209 -139.664505 
L 186.726264 -137.499787 
L 185.93032 -135.841905 
L 185.134375 -135.642523 
L 184.33843 -137.381286 
L 183.542485 -140.930347 
L 182.746541 -145.511485 
L 181.950596 -149.86231 
L 181.154651 -152.678976 
L 180.358707 -153.148828 
L 179.562762 -151.25588 
L 178.766817 -147.693373 
L 177.970873 -143.499866 
L 177.174928 -139.696287 
L 176.378983 -137.077443 
L 175.583039 -136.097709 
L 174.787094 -136.777177 
L 173.991149 -138.674186 
L 173.195205 -141.017582 
L 172.39926 -142.997183 
L 171.603315 -144.068445 
L 170.807371 -144.10181 
L 170.011426 -143.319588 
L 169.215481 -142.093873 
L 168.419537 -140.735519 
L 167.623592 -139.37247 
L 166.827647 -137.942286 
L 166.031702 -136.274165 
L 165.235758 -134.227305 
L 164.439813 -131.846756 
L 163.643868 -129.465952 
L 162.847924 -127.652587 
L 162.051979 -126.946155 
L 161.256034 -127.540325 
L 160.46009 -129.206079 
L 159.664145 -131.503884 
L 158.8682 -134.022576 
L 158.072256 -136.442212 
L 157.276311 -138.449148 
L 156.480366 -139.681755 
L 155.684422 -139.835448 
L 154.888477 -138.83658 
L 154.092532 -136.893867 
L 153.296588 -134.381998 
L 152.500643 -131.694998 
L 151.704698 -129.201357 
L 150.908753 -127.262044 
L 150.112809 -126.191944 
L 149.316864 -126.166133 
L 148.520919 -127.185818 
L 147.724975 -129.138767 
L 146.92903 -131.848132 
L 146.133085 -135.020218 
L 145.337141 -138.157343 
L 144.541196 -140.599598 
L 143.745251 -141.749258 
L 142.949307 -141.33141 
L 142.153362 -139.499921 
L 141.357417 -136.737001 
L 140.561473 -133.667179 
L 139.765528 -130.936877 
L 138.969583 -129.158489 
L 138.173639 -128.810397 
L 137.377694 -130.070051 
L 136.581749 -132.686289 
L 135.785805 -136.008473 
L 134.98986 -139.183801 
L 134.193915 -141.424043 
L 133.39797 -142.21952 
L 132.602026 -141.428097 
L 131.806081 -139.241513 
L 131.010136 -136.091956 
L 130.214192 -132.562387 
L 129.418247 -129.30353 
L 128.622302 -126.922567 
L 127.826358 -125.846783 
L 127.030413 -126.224125 
L 126.234468 -127.916648 
L 125.438524 -130.567916 
L 124.642579 -133.672903 
L 123.846634 -136.617924 
L 123.05069 -138.741797 
L 122.254745 -139.48296 
L 121.4588 -138.58007 
L 120.662856 -136.19788 
L 119.866911 -132.877966 
L 119.070966 -129.348902 
L 118.275021 -126.333145 
L 117.479077 -124.426093 
L 116.683132 -124.003555 
L 115.887187 -125.126799 
L 115.091243 -127.493167 
L 114.295298 -130.488423 
L 113.499353 -133.344599 
L 112.703409 -135.36311 
L 111.907464 -136.142228 
L 111.111519 -135.724849 
L 110.315575 -134.56957 
L 109.51963 -133.310911 
L 108.723685 -132.440498 
L 107.927741 -132.145271 
L 107.131796 -132.379727 
L 106.335851 -133.022181 
L 105.539907 -133.936145 
L 104.743962 -134.871505 
L 103.948017 -135.338718 
L 103.152073 -134.71243 
L 102.356128 -132.567832 
L 101.560183 -128.95773 
L 100.764238 -124.433663 
L 99.968294 -119.832696 
L 99.172349 -115.978555 
L 98.376404 -113.484556 
L 97.58046 -112.727948 
L 96.784515 -113.888052 
L 95.98857 -116.927889 
L 95.192626 -121.508177 
L 94.396681 -126.917086 
L 93.600736 -132.141712 
L 92.804792 -136.132502 
L 92.008847 -138.145532 
L 91.212902 -137.979017 
L 90.416958 -135.997283 
L 89.621013 -132.948586 
L 88.825068 -129.674794 
L 88.029124 -126.850797 
L 87.233179 -124.84094 
L 86.437234 -123.674164 
L 85.641289 -123.120189 
L 84.845345 -122.857729 
L 84.0494 -122.673913 
L 83.253455 -122.567485 
L 82.457511 -122.662682 
L 81.661566 -123.009464 
L 80.865621 -123.477657 
L 80.069677 -123.831325 
L 79.273732 -123.862955 
L 78.477787 -123.434328 
L 77.681843 -122.393159 
L 76.885898 -120.545841 
L 76.089953 -117.860323 
L 75.294009 -114.706831 
L 74.498064 -111.821485 
L 73.702119 -109.935468 
L 72.906175 -109.310447 
L 72.11023 -109.578331 
L 71.314285 -110.018395 
L 70.51834 -109.990921 
L 69.722396 -109.224469 
L 68.926451 -107.846939 
L 68.130506 -106.244695 
L 67.334562 -104.938251 
L 66.538617 -104.508246 
L 65.742672 -105.449928 
L 64.946728 -107.944541 
L 64.150783 -111.684985 
L 63.354838 -115.910639 
L 62.558894 -119.686814 
L 61.762949 -122.281885 
L 60.967004 -123.431464 
L 60.17106 -123.371244 
L 59.375115 -122.64044 
L 58.57917 -121.752552 
L 57.783226 -120.911105 
L 56.987281 -119.946154 
L 56.191336 -118.500041 
L 55.395392 -116.332177 
L 54.599447 -113.570192 
L 53.803502 -110.772978 
L 53.007557 -108.759182 
L 52.211613 -108.289745 
L 51.415668 -109.777633 
L 50.619723 -113.13465 
L 49.823779 -117.770793 
L 49.027834 -122.746642 
L 48.231889 -127.056675 
L 47.435945 -129.95271 
L 46.64 -131.177569 
z
" style="stroke: #e41a1c; stroke-opacity: 0.3"/>
    </defs>
    <g clip-path="url(#p12156b4ebd)">
     <use xlink:href="#m4baff16444" x="0" y="360" style="fill: #e41a1c; fill-opacity: 0.3; stroke: #e41a1c; stroke-opacity: 0.3"/>
    </g>
   </g>
   <g id="PolyCollection_2">
    <defs>
     <path id="m611a4af4e0" d="M 46.64 -114.55805 
L 46.64 -98.126511 
L 47.435945 -95.998311 
L 48.231889 -94.091914 
L 49.027834 -92.775593 
L 49.823779 -92.25075 
L 50.619723 -92.497823 
L 51.415668 -93.299989 
L 52.211613 -94.335351 
L 53.007557 -95.279775 
L 53.803502 -95.875799 
L 54.599447 -95.972254 
L 55.395392 -95.563406 
L 56.191336 -94.828946 
L 56.987281 -94.109643 
L 57.783226 -93.768985 
L 58.57917 -94.025706 
L 59.375115 -94.876231 
L 60.17106 -96.128342 
L 60.967004 -97.495057 
L 61.762949 -98.691388 
L 62.558894 -99.508455 
L 63.354838 -99.866418 
L 64.150783 -99.832914 
L 64.946728 -99.574184 
L 65.742672 -99.248502 
L 66.538617 -98.909717 
L 67.334562 -98.486358 
L 68.130506 -97.852942 
L 68.926451 -96.941175 
L 69.722396 -95.795737 
L 70.51834 -94.541286 
L 71.314285 -93.322267 
L 72.11023 -92.273451 
L 72.906175 -91.517602 
L 73.702119 -91.152066 
L 74.498064 -91.208503 
L 75.294009 -91.619514 
L 76.089953 -92.232337 
L 76.885898 -92.864736 
L 77.681843 -93.360324 
L 78.477787 -93.611365 
L 79.273732 -93.557265 
L 80.069677 -93.182772 
L 80.865621 -92.52069 
L 81.661566 -91.647471 
L 82.457511 -90.669544 
L 83.253455 -89.713329 
L 84.0494 -88.926706 
L 84.845345 -88.47727 
L 85.641289 -88.520233 
L 86.437234 -89.132226 
L 87.233179 -90.248454 
L 88.029124 -91.650811 
L 88.825068 -93.023138 
L 89.621013 -94.047799 
L 90.416958 -94.499187 
L 91.212902 -94.305025 
L 92.008847 -93.569129 
L 92.804792 -92.552521 
L 93.600736 -91.603642 
L 94.396681 -91.043258 
L 95.192626 -91.047532 
L 95.98857 -91.592978 
L 96.784515 -92.494244 
L 97.58046 -93.498617 
L 98.376404 -94.368614 
L 99.172349 -94.924144 
L 99.968294 -95.066177 
L 100.764238 -94.801364 
L 101.560183 -94.2507 
L 102.356128 -93.607585 
L 103.152073 -93.048439 
L 103.948017 -92.655375 
L 104.743962 -92.407216 
L 105.539907 -92.236287 
L 106.335851 -92.099602 
L 107.131796 -92.014337 
L 107.927741 -92.046895 
L 108.723685 -92.277038 
L 109.51963 -92.759142 
L 110.315575 -93.48939 
L 111.111519 -94.384906 
L 111.907464 -95.286586 
L 112.703409 -95.993469 
L 113.499353 -96.318798 
L 114.295298 -96.142531 
L 115.091243 -95.437587 
L 115.887187 -94.265611 
L 116.683132 -92.754951 
L 117.479077 -91.074739 
L 118.275021 -89.408629 
L 119.070966 -87.927009 
L 119.866911 -86.763169 
L 120.662856 -86.003401 
L 121.4588 -85.692178 
L 122.254745 -85.839147 
L 123.05069 -86.413055 
L 123.846634 -87.325622 
L 124.642579 -88.426383 
L 125.438524 -89.524901 
L 126.234468 -90.4365 
L 127.030413 -91.034635 
L 127.826358 -91.293323 
L 128.622302 -91.303621 
L 129.418247 -91.245715 
L 130.214192 -91.310716 
L 131.010136 -91.601007 
L 131.806081 -92.06464 
L 132.602026 -92.506152 
L 133.39797 -92.669765 
L 134.193915 -92.346978 
L 134.98986 -91.455384 
L 135.785805 -90.068414 
L 136.581749 -88.404611 
L 137.377694 -86.784478 
L 138.173639 -85.552617 
L 138.969583 -84.972036 
L 139.765528 -85.126094 
L 140.561473 -85.877648 
L 141.357417 -86.912491 
L 142.153362 -87.85195 
L 142.949307 -88.386044 
L 143.745251 -88.371995 
L 144.541196 -87.865616 
L 145.337141 -87.088054 
L 146.133085 -86.352089 
L 146.92903 -85.971696 
L 147.724975 -86.171685 
L 148.520919 -87.018674 
L 149.316864 -88.401778 
L 150.112809 -90.077956 
L 150.908753 -91.762783 
L 151.704698 -93.221735 
L 152.500643 -94.325863 
L 153.296588 -95.067648 
L 154.092532 -95.550015 
L 154.888477 -95.950662 
L 155.684422 -96.456734 
L 156.480366 -97.186587 
L 157.276311 -98.139415 
L 158.072256 -99.202185 
L 158.8682 -100.201946 
L 159.664145 -100.960874 
L 160.46009 -101.325212 
L 161.256034 -101.179371 
L 162.051979 -100.468818 
L 162.847924 -99.228499 
L 163.643868 -97.589868 
L 164.439813 -95.751412 
L 165.235758 -93.927115 
L 166.031702 -92.297507 
L 166.827647 -90.975418 
L 167.623592 -89.987527 
L 168.419537 -89.274504 
L 169.215481 -88.714398 
L 170.011426 -88.164505 
L 170.807371 -87.504557 
L 171.603315 -86.664499 
L 172.39926 -85.632262 
L 173.195205 -84.446188 
L 173.991149 -83.17752 
L 174.787094 -81.907676 
L 175.583039 -80.706816 
L 176.378983 -79.620044 
L 177.174928 -78.66297 
L 177.970873 -77.824649 
L 178.766817 -77.076908 
L 179.562762 -76.389323 
L 180.358707 -75.743221 
L 181.154651 -75.133391 
L 181.950596 -74.554698 
L 182.746541 -73.98688 
L 183.542485 -73.393212 
L 184.33843 -72.732239 
L 185.134375 -71.966828 
L 185.93032 -71.06187 
L 186.726264 -69.98166 
L 187.522209 -68.702237 
L 188.318154 -67.235114 
L 189.114098 -65.640643 
L 189.910043 -64.016417 
L 190.705988 -62.470257 
L 191.501932 -61.09697 
L 192.297877 -59.963644 
L 193.093822 -59.093359 
L 193.889766 -58.445253 
L 194.685711 -57.910417 
L 195.481656 -57.345273 
L 196.2776 -56.636595 
L 197.073545 -55.761907 
L 197.86949 -54.807841 
L 198.665434 -53.939086 
L 199.461379 -53.340151 
L 200.257324 -53.155818 
L 201.053269 -53.442252 
L 201.849213 -54.134623 
L 202.645158 -55.046434 
L 203.441103 -55.918541 
L 204.237047 -56.514101 
L 205.032992 -56.721824 
L 205.828937 -56.613227 
L 206.624881 -56.419608 
L 207.420826 -56.439875 
L 208.216771 -56.92586 
L 209.012715 -57.994646 
L 209.80866 -59.595669 
L 210.604605 -61.533765 
L 211.400549 -63.53158 
L 212.196494 -65.307968 
L 212.992439 -66.649782 
L 213.788383 -67.458551 
L 214.584328 -67.759979 
L 215.380273 -67.674374 
L 216.176218 -67.361008 
L 216.972162 -66.963586 
L 217.768107 -66.584738 
L 218.564052 -66.297724 
L 219.359996 -66.176013 
L 220.155941 -66.308819 
L 220.951886 -66.784379 
L 221.74783 -67.649516 
L 222.543775 -68.870157 
L 223.33972 -70.315343 
L 224.135664 -71.775644 
L 224.931609 -73.014611 
L 225.727554 -73.838884 
L 226.523498 -74.159218 
L 227.319443 -74.01247 
L 228.115388 -73.533423 
L 228.911332 -72.894665 
L 229.707277 -72.2476 
L 230.503222 -71.687642 
L 231.299166 -71.2478 
L 232.095111 -70.916183 
L 232.891056 -70.6719 
L 233.687001 -70.525161 
L 234.482945 -70.532897 
L 235.27889 -70.766535 
L 236.074835 -71.245642 
L 236.870779 -71.887851 
L 237.666724 -72.520152 
L 238.462669 -72.950087 
L 239.258613 -73.050567 
L 240.054558 -72.810404 
L 240.850503 -72.337398 
L 241.646447 -71.826261 
L 242.442392 -71.49953 
L 243.238337 -71.52317 
L 244.034281 -71.918598 
L 244.830226 -72.521751 
L 245.626171 -73.031758 
L 246.422115 -73.136573 
L 247.21806 -72.645977 
L 248.014005 -71.558606 
L 248.80995 -70.043321 
L 249.605894 -68.37103 
L 250.401839 -66.841964 
L 251.197784 -65.721239 
L 251.993728 -65.172837 
L 252.789673 -65.205196 
L 253.585618 -65.670159 
L 254.381562 -66.333591 
L 255.177507 -66.981325 
L 255.973452 -67.496403 
L 256.769396 -67.867704 
L 257.565341 -68.142648 
L 258.361286 -68.369321 
L 259.15723 -68.562562 
L 259.953175 -68.698745 
L 260.74912 -68.728933 
L 261.545064 -68.603272 
L 262.341009 -68.300802 
L 263.136954 -67.851158 
L 263.932898 -67.33263 
L 264.728843 -66.845004 
L 265.524788 -66.473483 
L 266.320733 -66.263092 
L 267.116677 -66.211385 
L 267.912622 -66.27666 
L 268.708567 -66.397171 
L 269.504511 -66.51748 
L 270.300456 -66.61313 
L 271.096401 -66.698501 
L 271.892345 -66.809262 
L 272.68829 -66.971827 
L 273.484235 -67.185383 
L 274.280179 -67.431393 
L 275.076124 -67.701685 
L 275.872069 -68.01977 
L 276.668013 -68.432864 
L 277.463958 -68.974064 
L 278.259903 -69.619934 
L 279.055847 -70.276138 
L 279.851792 -70.805843 
L 280.647737 -71.086824 
L 281.443682 -71.066261 
L 282.239626 -70.789209 
L 283.035571 -70.395655 
L 283.831516 -70.090997 
L 284.62746 -70.092743 
L 285.423405 -70.559195 
L 286.21935 -71.523307 
L 287.015294 -72.868065 
L 287.811239 -74.365057 
L 288.607184 -75.760433 
L 289.403128 -76.86159 
L 290.199073 -77.580135 
L 290.995018 -77.920363 
L 291.790962 -77.936714 
L 292.586907 -77.691905 
L 293.382852 -77.233344 
L 294.178796 -76.589607 
L 294.974741 -75.782784 
L 295.770686 -74.850601 
L 296.56663 -73.866606 
L 297.362575 -72.941962 
L 298.15852 -72.198967 
L 298.954465 -71.724304 
L 299.750409 -71.526559 
L 300.546354 -71.524384 
L 301.342299 -71.576066 
L 302.138243 -71.538566 
L 302.934188 -71.328973 
L 303.730133 -70.961354 
L 304.526077 -70.543868 
L 305.322022 -70.236857 
L 306.117967 -70.187192 
L 306.913911 -70.463956 
L 307.709856 -71.021071 
L 308.505801 -71.70251 
L 309.301745 -72.290118 
L 310.09769 -72.57948 
L 310.893635 -72.45856 
L 311.689579 -71.957148 
L 312.485524 -71.23803 
L 313.281469 -70.523701 
L 314.077414 -69.990647 
L 314.873358 -69.688058 
L 315.669303 -69.524784 
L 316.465248 -69.327049 
L 317.261192 -68.931406 
L 318.057137 -68.26588 
L 318.853082 -67.38689 
L 319.649026 -66.463206 
L 320.444971 -65.71807 
L 321.240916 -65.353775 
L 322.03686 -65.487335 
L 322.832805 -66.118244 
L 323.62875 -67.133829 
L 324.424694 -68.344624 
L 325.220639 -69.536413 
L 326.016584 -70.523313 
L 326.812528 -71.184618 
L 327.608473 -71.471426 
L 328.404418 -71.38306 
L 329.200363 -70.933517 
L 329.996307 -70.136814 
L 330.792252 -69.025918 
L 331.588197 -67.693361 
L 332.384141 -66.322749 
L 333.180086 -65.180977 
L 333.976031 -64.559578 
L 334.771975 -64.681509 
L 335.56792 -65.612248 
L 336.363865 -67.216024 
L 337.159809 -69.17674 
L 337.955754 -71.074358 
L 338.751699 -72.49132 
L 339.547643 -73.122488 
L 340.343588 -72.861619 
L 341.139533 -71.833268 
L 341.935477 -70.347273 
L 342.731422 -68.787393 
L 343.527367 -67.487301 
L 344.323311 -66.654401 
L 345.119256 -66.361482 
L 345.915201 -66.577001 
L 346.711146 -67.196779 
L 347.50709 -68.070104 
L 348.303035 -69.033174 
L 349.09898 -69.950329 
L 349.894924 -70.741544 
L 350.690869 -71.375614 
L 351.486814 -71.839218 
L 352.282758 -72.118095 
L 353.078703 -72.212759 
L 353.874648 -72.172239 
L 354.670592 -72.108458 
L 355.466537 -72.170609 
L 356.262482 -72.491355 
L 357.058426 -73.133575 
L 357.854371 -74.060595 
L 358.650316 -75.138378 
L 359.44626 -76.167159 
L 360.242205 -76.933431 
L 361.03815 -77.267699 
L 361.834095 -77.089357 
L 362.630039 -76.422183 
L 363.425984 -75.375565 
L 364.221929 -74.102927 
L 365.017873 -72.758383 
L 365.813818 -71.469158 
L 366.609763 -70.329067 
L 367.405707 -69.407276 
L 368.201652 -68.761625 
L 368.997597 -68.445171 
L 369.793541 -68.496847 
L 370.589486 -68.914573 
L 371.385431 -69.622964 
L 372.181375 -70.459546 
L 372.97732 -71.198758 
L 373.773265 -71.611089 
L 374.569209 -71.533993 
L 375.365154 -70.928468 
L 376.161099 -69.905146 
L 376.957043 -68.710486 
L 377.752988 -67.665663 
L 378.548933 -67.06301 
L 379.344878 -67.052538 
L 380.140822 -67.572313 
L 380.936767 -68.362455 
L 381.732712 -69.056623 
L 382.528656 -69.304872 
L 383.324601 -68.880503 
L 384.120546 -67.748787 
L 384.91649 -66.090538 
L 385.712435 -64.270479 
L 386.50838 -62.743319 
L 387.304324 -61.914662 
L 388.100269 -62.004882 
L 388.896214 -62.972271 
L 389.692158 -64.525746 
L 390.488103 -66.216426 
L 391.284048 -67.569217 
L 392.079992 -68.211947 
L 392.875937 -67.970801 
L 393.671882 -66.913413 
L 394.467827 -65.331135 
L 395.263771 -63.660823 
L 396.059716 -62.358916 
L 396.855661 -61.761386 
L 397.651605 -61.982467 
L 398.44755 -62.899003 
L 399.243495 -64.226405 
L 400.039439 -65.642462 
L 400.835384 -66.897443 
L 401.631329 -67.873946 
L 402.427273 -68.595358 
L 403.223218 -69.19462 
L 404.019163 -69.850661 
L 404.815107 -70.703889 
L 405.611052 -71.780461 
L 406.406997 -72.962983 
L 407.202941 -74.022785 
L 407.998886 -74.693753 
L 408.794831 -74.752682 
L 409.590775 -74.082536 
L 410.38672 -72.710644 
L 411.182665 -70.815906 
L 411.97861 -68.696241 
L 412.774554 -66.699268 
L 413.570499 -65.140926 
L 413.570499 -104.674734 
L 413.570499 -104.674734 
L 412.774554 -105.886822 
L 411.97861 -107.528663 
L 411.182665 -109.365883 
L 410.38672 -111.114008 
L 409.590775 -112.483919 
L 408.794831 -113.24667 
L 407.998886 -113.302146 
L 407.202941 -112.715484 
L 406.406997 -111.693128 
L 405.611052 -110.50535 
L 404.815107 -109.391798 
L 404.019163 -108.487011 
L 403.223218 -107.784776 
L 402.427273 -107.149245 
L 401.631329 -106.377705 
L 400.835384 -105.304273 
L 400.039439 -103.903088 
L 399.243495 -102.334604 
L 398.44755 -100.90473 
L 397.651605 -99.957512 
L 396.855661 -99.754903 
L 396.059716 -100.388003 
L 395.263771 -101.735797 
L 394.467827 -103.474663 
L 393.671882 -105.144441 
L 392.875937 -106.269565 
L 392.079992 -106.506919 
L 391.284048 -105.765987 
L 390.488103 -104.248798 
L 389.692158 -102.389547 
L 388.896214 -100.716782 
L 388.100269 -99.691706 
L 387.304324 -99.579746 
L 386.50838 -100.390129 
L 385.712435 -101.888404 
L 384.91649 -103.668704 
L 384.120546 -105.268262 
L 383.324601 -106.302253 
L 382.528656 -106.582689 
L 381.732712 -106.174415 
L 380.936767 -105.35836 
L 380.140822 -104.517214 
L 379.344878 -103.998601 
L 378.548933 -104.01208 
L 377.752988 -104.583827 
L 376.957043 -105.563632 
L 376.161099 -106.673818 
L 375.365154 -107.593219 
L 374.569209 -108.059598 
L 373.773265 -107.955008 
L 372.97732 -107.33659 
L 372.181375 -106.402036 
L 371.385431 -105.41342 
L 370.589486 -104.617159 
L 369.793541 -104.187145 
L 368.997597 -104.200021 
L 368.201652 -104.641064 
L 367.405707 -105.433414 
L 366.609763 -106.475803 
L 365.813818 -107.669457 
L 365.017873 -108.922931 
L 364.221929 -110.140872 
L 363.425984 -111.213915 
L 362.630039 -112.02355 
L 361.834095 -112.463925 
L 361.03815 -112.47242 
L 360.242205 -112.05697 
L 359.44626 -111.308203 
L 358.650316 -110.386582 
L 357.854371 -109.48166 
L 357.058426 -108.754312 
L 356.262482 -108.28655 
L 355.466537 -108.063861 
L 354.670592 -107.996973 
L 353.874648 -107.966649 
L 353.078703 -107.865447 
L 352.282758 -107.620541 
L 351.486814 -107.199828 
L 350.690869 -106.6104 
L 349.894924 -105.889915 
L 349.09898 -105.085952 
L 348.303035 -104.23196 
L 347.50709 -103.346276 
L 346.711146 -102.469158 
L 345.915201 -101.710959 
L 345.119256 -101.258862 
L 344.323311 -101.314181 
L 343.527367 -101.987907 
L 342.731422 -103.219409 
L 341.935477 -104.766796 
L 341.139533 -106.266164 
L 340.343588 -107.325655 
L 339.547643 -107.626931 
L 338.751699 -107.018282 
L 337.955754 -105.575796 
L 337.159809 -103.599727 
L 336.363865 -101.531928 
L 335.56792 -99.821816 
L 334.771975 -98.797387 
L 333.976031 -98.590851 
L 333.180086 -99.135327 
L 332.384141 -100.217664 
L 331.588197 -101.558453 
L 330.792252 -102.890009 
L 329.996307 -104.009928 
L 329.200363 -104.800022 
L 328.404418 -105.214691 
L 327.608473 -105.253136 
L 326.812528 -104.932715 
L 326.016584 -104.277714 
L 325.220639 -103.33068 
L 324.424694 -102.180364 
L 323.62875 -100.984122 
L 322.832805 -99.957428 
L 322.03686 -99.319826 
L 321.240916 -99.216668 
L 320.444971 -99.656432 
L 319.649026 -100.49879 
L 318.853082 -101.502966 
L 318.057137 -102.416506 
L 317.261192 -103.066086 
L 316.465248 -103.411069 
L 315.669303 -103.538168 
L 314.873358 -103.604776 
L 314.077414 -103.762074 
L 313.281469 -104.092296 
L 312.485524 -104.579606 
L 311.689579 -105.116835 
L 310.893635 -105.542184 
L 310.09769 -105.69827 
L 309.301745 -105.499158 
L 308.505801 -104.977403 
L 307.709856 -104.281736 
L 306.913911 -103.619671 
L 306.117967 -103.171654 
L 305.322022 -103.019533 
L 304.526077 -103.123351 
L 303.730133 -103.354911 
L 302.934188 -103.56912 
L 302.138243 -103.677568 
L 301.342299 -103.689326 
L 300.546354 -103.701483 
L 299.750409 -103.847998 
L 298.954465 -104.2358 
L 298.15852 -104.899151 
L 297.362575 -105.788606 
L 296.56663 -106.793029 
L 295.770686 -107.781825 
L 294.974741 -108.649784 
L 294.178796 -109.345857 
L 293.382852 -109.871305 
L 292.586907 -110.246505 
L 291.790962 -110.465949 
L 290.995018 -110.47358 
L 290.199073 -110.180229 
L 289.403128 -109.5148 
L 288.607184 -108.476148 
L 287.811239 -107.154651 
L 287.015294 -105.716556 
L 286.21935 -104.364983 
L 285.423405 -103.292384 
L 284.62746 -102.630808 
L 283.831516 -102.407788 
L 283.035571 -102.527006 
L 282.239626 -102.795263 
L 281.443682 -102.995145 
L 280.647737 -102.968658 
L 279.851792 -102.665774 
L 279.055847 -102.13736 
L 278.259903 -101.489671 
L 277.463958 -100.833899 
L 276.668013 -100.252502 
L 275.872069 -99.784639 
L 275.076124 -99.425293 
L 274.280179 -99.13599 
L 273.484235 -98.86687 
L 272.68829 -98.584318 
L 271.892345 -98.291112 
L 271.096401 -98.026317 
L 270.300456 -97.842416 
L 269.504511 -97.772242 
L 268.708567 -97.808731 
L 267.912622 -97.914236 
L 267.116677 -98.052135 
L 266.320733 -98.213491 
L 265.524788 -98.417355 
L 264.728843 -98.686987 
L 263.932898 -99.021882 
L 263.136954 -99.38452 
L 262.341009 -99.708408 
L 261.545064 -99.923052 
L 260.74912 -99.985316 
L 259.953175 -99.901591 
L 259.15723 -99.72404 
L 258.361286 -99.516637 
L 257.565341 -99.310273 
L 256.769396 -99.079865 
L 255.973452 -98.762264 
L 255.177507 -98.302594 
L 254.381562 -97.699628 
L 253.585618 -97.031036 
L 252.789673 -96.45598 
L 251.993728 -96.192234 
L 251.197784 -96.45716 
L 250.401839 -97.373702 
L 249.605894 -98.878444 
L 248.80995 -100.697787 
L 248.014005 -102.433776 
L 247.21806 -103.722113 
L 246.422115 -104.369191 
L 245.626171 -104.398669 
L 244.830226 -104.006374 
L 244.034281 -103.469604 
L 243.238337 -103.053661 
L 242.442392 -102.932588 
L 241.646447 -103.134809 
L 240.850503 -103.53578 
L 240.054558 -103.916162 
L 239.258613 -104.06791 
L 238.462669 -103.889806 
L 237.666724 -103.41654 
L 236.870779 -102.775814 
L 236.074835 -102.117761 
L 235.27889 -101.5643 
L 234.482945 -101.191429 
L 233.687001 -101.030308 
L 232.891056 -101.074815 
L 232.095111 -101.296361 
L 231.299166 -101.665985 
L 230.503222 -102.168222 
L 229.707277 -102.788401 
L 228.911332 -103.478646 
L 228.115388 -104.132676 
L 227.319443 -104.596073 
L 226.523498 -104.711003 
L 225.727554 -104.370988 
L 224.931609 -103.559922 
L 224.135664 -102.362339 
L 223.33972 -100.943591 
L 222.543775 -99.505663 
L 221.74783 -98.232994 
L 220.951886 -97.25011 
L 220.155941 -96.607861 
L 219.359996 -96.297012 
L 218.564052 -96.272145 
L 217.768107 -96.469282 
L 216.972162 -96.81244 
L 216.176218 -97.212183 
L 215.380273 -97.559354 
L 214.584328 -97.719028 
L 213.788383 -97.536698 
L 212.992439 -96.870194 
L 212.196494 -95.646083 
L 211.400549 -93.915539 
L 210.604605 -91.873609 
L 209.80866 -89.819995 
L 209.012715 -88.069375 
L 208.216771 -86.846355 
L 207.420826 -86.210638 
L 206.624881 -86.04554 
L 205.828937 -86.11228 
L 205.032992 -86.142069 
L 204.237047 -85.926674 
L 203.441103 -85.379186 
L 202.645158 -84.554942 
L 201.849213 -83.631595 
L 201.053269 -82.849958 
L 200.257324 -82.427321 
L 199.461379 -82.473396 
L 198.665434 -82.9494 
L 197.86949 -83.695021 
L 197.073545 -84.508515 
L 196.2776 -85.23269 
L 195.481656 -85.80328 
L 194.685711 -86.249824 
L 193.889766 -86.66872 
L 193.093822 -87.188889 
L 192.297877 -87.93382 
L 191.501932 -88.979254 
L 190.705988 -90.320355 
L 189.910043 -91.87163 
L 189.114098 -93.504798 
L 188.318154 -95.098545 
L 187.522209 -96.567159 
L 186.726264 -97.860585 
L 185.93032 -98.955039 
L 185.134375 -99.852003 
L 184.33843 -100.581316 
L 183.542485 -101.19334 
L 182.746541 -101.739024 
L 181.950596 -102.254379 
L 181.154651 -102.762465 
L 180.358707 -103.28601 
L 179.562762 -103.853961 
L 178.766817 -104.496644 
L 177.970873 -105.239247 
L 177.174928 -106.10224 
L 176.378983 -107.103936 
L 175.583039 -108.254401 
L 174.787094 -109.539581 
L 173.991149 -110.906968 
L 173.195205 -112.265619 
L 172.39926 -113.505282 
L 171.603315 -114.530021 
L 170.807371 -115.294486 
L 170.011426 -115.827097 
L 169.215481 -116.228088 
L 168.419537 -116.642575 
L 167.623592 -117.220422 
L 166.827647 -118.076163 
L 166.031702 -119.256441 
L 165.235758 -120.720822 
L 164.439813 -122.344953 
L 163.643868 -123.95029 
L 162.847924 -125.348563 
L 162.051979 -126.379726 
L 161.256034 -126.934353 
L 160.46009 -126.970284 
L 159.664145 -126.529944 
L 158.8682 -125.741925 
L 158.072256 -124.785579 
L 157.276311 -123.827667 
L 156.480366 -122.971575 
L 155.684422 -122.247652 
L 154.888477 -121.630921 
L 154.092532 -121.055338 
L 153.296588 -120.41764 
L 152.500643 -119.593068 
L 151.704698 -118.48156 
L 150.908753 -117.066945 
L 150.112809 -115.448222 
L 149.316864 -113.821768 
L 148.520919 -112.427925 
L 147.724975 -111.48558 
L 146.92903 -111.127444 
L 146.133085 -111.345707 
L 145.337141 -111.969599 
L 144.541196 -112.701008 
L 143.745251 -113.210606 
L 142.949307 -113.256876 
L 142.153362 -112.772298 
L 141.357417 -111.881769 
L 140.561473 -110.855681 
L 139.765528 -110.023986 
L 138.969583 -109.67976 
L 138.173639 -109.994035 
L 137.377694 -110.959814 
L 136.581749 -112.383428 
L 135.785805 -113.938054 
L 134.98986 -115.273797 
L 134.193915 -116.142157 
L 133.39797 -116.472277 
L 132.602026 -116.361298 
L 131.806081 -115.996287 
L 131.010136 -115.56315 
L 130.214192 -115.186915 
L 129.418247 -114.909974 
L 128.622302 -114.694091 
L 127.826358 -114.437782 
L 127.030413 -114.012216 
L 126.234468 -113.315448 
L 125.438524 -112.325469 
L 124.642579 -111.122959 
L 123.846634 -109.872675 
L 123.05069 -108.777728 
L 122.254745 -108.028036 
L 121.4588 -107.756525 
L 120.662856 -108.011771 
L 119.866911 -108.756242 
L 119.070966 -109.891123 
L 118.275021 -111.2905 
L 117.479077 -112.821393 
L 116.683132 -114.342838 
L 115.887187 -115.700077 
L 115.091243 -116.735455 
L 114.295298 -117.320789 
L 113.499353 -117.394588 
L 112.703409 -116.982883 
L 111.907464 -116.195424 
L 111.111519 -115.202037 
L 110.315575 -114.195394 
L 109.51963 -113.344567 
L 108.723685 -112.750225 
L 107.927741 -112.422537 
L 107.131796 -112.299183 
L 106.335851 -112.296433 
L 105.539907 -112.35992 
L 104.743962 -112.481834 
L 103.948017 -112.681555 
L 103.152073 -112.97558 
L 102.356128 -113.358239 
L 101.560183 -113.789571 
L 100.764238 -114.179262 
L 99.968294 -114.378617 
L 99.172349 -114.217253 
L 98.376404 -113.595659 
L 97.58046 -112.577575 
L 96.784515 -111.403254 
L 95.98857 -110.39969 
L 95.192626 -109.842407 
L 94.396681 -109.853846 
L 93.600736 -110.376949 
L 92.804792 -111.202365 
L 92.008847 -112.021837 
L 91.212902 -112.504252 
L 90.416958 -112.392146 
L 89.621013 -111.589343 
L 88.825068 -110.193911 
L 88.029124 -108.456195 
L 87.233179 -106.689449 
L 86.437234 -105.183117 
L 85.641289 -104.148253 
L 84.845345 -103.691913 
L 84.0494 -103.807339 
L 83.253455 -104.379472 
L 82.457511 -105.217121 
L 81.661566 -106.110892 
L 80.865621 -106.889116 
L 80.069677 -107.441565 
L 79.273732 -107.710458 
L 78.477787 -107.675615 
L 77.681843 -107.356686 
L 76.885898 -106.825788 
L 76.089953 -106.205278 
L 75.294009 -105.641864 
L 74.498064 -105.276083 
L 73.702119 -105.22407 
L 72.906175 -105.561538 
L 72.11023 -106.29389 
L 71.314285 -107.327433 
L 70.51834 -108.484834 
L 69.722396 -109.580723 
L 68.926451 -110.509001 
L 68.130506 -111.270165 
L 67.334562 -111.914585 
L 66.538617 -112.460776 
L 65.742672 -112.872641 
L 64.946728 -113.097272 
L 64.150783 -113.102259 
L 63.354838 -112.879664 
L 62.558894 -112.427773 
L 61.762949 -111.745374 
L 60.967004 -110.862472 
L 60.17106 -109.877939 
L 59.375115 -108.953096 
L 58.57917 -108.26013 
L 57.783226 -107.927031 
L 56.987281 -108.008005 
L 56.191336 -108.471641 
L 55.395392 -109.181694 
L 54.599447 -109.881791 
L 53.803502 -110.257572 
L 53.007557 -110.094334 
L 52.211613 -109.415285 
L 51.415668 -108.49526 
L 50.619723 -107.752543 
L 49.823779 -107.591215 
L 49.027834 -108.2697 
L 48.231889 -109.826113 
L 47.435945 -112.057203 
L 46.64 -114.55805 
z
" style="stroke: #377eb8; stroke-opacity: 0.3"/>
    </defs>
    <g clip-path="url(#p12156b4ebd)">
     <use xlink:href="#m611a4af4e0" x="0" y="360" style="fill: #377eb8; fill-opacity: 0.3; stroke: #377eb8; stroke-opacity: 0.3"/>
    </g>
   </g>
   <g id="patch_3">
    <path d="M 229.866466 318.04 
L 229.866466 71.732 
L 331.747385 71.732 
L 331.747385 318.04 
z
" clip-path="url(#p12156b4ebd)" style="fill: #808080; opacity: 0.3"/>
   </g>
   <g id="matplotlib.axis_1">
    <g id="xtick_1">
     <g id="line2d_1">
      <defs>
       <path id="m4101758dbb" d="M 0 0 
L 0 3.5 
" style="stroke: #000000; stroke-width: 0.8"/>
      </defs>
      <g>
       <use xlink:href="#m4101758dbb" x="87.233179" y="318.04" style="stroke: #000000; stroke-width: 0.8"/>
      </g>
     </g>
     <g id="text_1">
      <!-- 0.0 -->
      <g transform="translate(79.281616 332.638438)scale(0.1 -0.1)">
       <defs>
        <path id="DejaVuSans-30" d="M 2034 4250 
Q 1547 4250 1301 3770 
Q 1056 3291 1056 2328 
Q 1056 1369 1301 889 
Q 1547 409 2034 409 
Q 2525 409 2770 889 
Q 3016 1369 3016 2328 
Q 3016 3291 2770 3770 
Q 2525 4250 2034 4250 
z
M 2034 4750 
Q 2819 4750 3233 4129 
Q 3647 3509 3647 2328 
Q 3647 1150 3233 529 
Q 2819 -91 2034 -91 
Q 1250 -91 836 529 
Q 422 1150 422 2328 
Q 422 3509 836 4129 
Q 1250 4750 2034 4750 
z
" transform="scale(0.015625)"/>
        <path id="DejaVuSans-2e" d="M 684 794 
L 1344 794 
L 1344 0 
L 684 0 
L 684 794 
z
" transform="scale(0.015625)"/>
       </defs>
       <use xlink:href="#DejaVuSans-30"/>
       <use xlink:href="#DejaVuSans-2e" x="63.623047"/>
       <use xlink:href="#DejaVuSans-30" x="95.410156"/>
      </g>
     </g>
    </g>
    <g id="xtick_2">
     <g id="line2d_2">
      <g>
       <use xlink:href="#m4101758dbb" x="168.737914" y="318.04" style="stroke: #000000; stroke-width: 0.8"/>
      </g>
     </g>
     <g id="text_2">
      <!-- 0.2 -->
      <g transform="translate(160.786352 332.638438)scale(0.1 -0.1)">
       <defs>
        <path id="DejaVuSans-32" d="M 1228 531 
L 3431 531 
L 3431 0 
L 469 0 
L 469 531 
Q 828 903 1448 1529 
Q 2069 2156 2228 2338 
Q 2531 2678 2651 2914 
Q 2772 3150 2772 3378 
Q 2772 3750 2511 3984 
Q 2250 4219 1831 4219 
Q 1534 4219 1204 4116 
Q 875 4013 500 3803 
L 500 4441 
Q 881 4594 1212 4672 
Q 1544 4750 1819 4750 
Q 2544 4750 2975 4387 
Q 3406 4025 3406 3419 
Q 3406 3131 3298 2873 
Q 3191 2616 2906 2266 
Q 2828 2175 2409 1742 
Q 1991 1309 1228 531 
z
" transform="scale(0.015625)"/>
       </defs>
       <use xlink:href="#DejaVuSans-30"/>
       <use xlink:href="#DejaVuSans-2e" x="63.623047"/>
       <use xlink:href="#DejaVuSans-32" x="95.410156"/>
      </g>
     </g>
    </g>
    <g id="xtick_3">
     <g id="line2d_3">
      <g>
       <use xlink:href="#m4101758dbb" x="250.24265" y="318.04" style="stroke: #000000; stroke-width: 0.8"/>
      </g>
     </g>
     <g id="text_3">
      <!-- 0.4 -->
      <g transform="translate(242.291087 332.638438)scale(0.1 -0.1)">
       <defs>
        <path id="DejaVuSans-34" d="M 2419 4116 
L 825 1625 
L 2419 1625 
L 2419 4116 
z
M 2253 4666 
L 3047 4666 
L 3047 1625 
L 3713 1625 
L 3713 1100 
L 3047 1100 
L 3047 0 
L 2419 0 
L 2419 1100 
L 313 1100 
L 313 1709 
L 2253 4666 
z
" transform="scale(0.015625)"/>
       </defs>
       <use xlink:href="#DejaVuSans-30"/>
       <use xlink:href="#DejaVuSans-2e" x="63.623047"/>
       <use xlink:href="#DejaVuSans-34" x="95.410156"/>
      </g>
     </g>
    </g>
    <g id="xtick_4">
     <g id="line2d_4">
      <g>
       <use xlink:href="#m4101758dbb" x="331.747385" y="318.04" style="stroke: #000000; stroke-width: 0.8"/>
      </g>
     </g>
     <g id="text_4">
      <!-- 0.6 -->
      <g transform="translate(323.795823 332.638438)scale(0.1 -0.1)">
       <defs>
        <path id="DejaVuSans-36" d="M 2113 2584 
Q 1688 2584 1439 2293 
Q 1191 2003 1191 1497 
Q 1191 994 1439 701 
Q 1688 409 2113 409 
Q 2538 409 2786 701 
Q 3034 994 3034 1497 
Q 3034 2003 2786 2293 
Q 2538 2584 2113 2584 
z
M 3366 4563 
L 3366 3988 
Q 3128 4100 2886 4159 
Q 2644 4219 2406 4219 
Q 1781 4219 1451 3797 
Q 1122 3375 1075 2522 
Q 1259 2794 1537 2939 
Q 1816 3084 2150 3084 
Q 2853 3084 3261 2657 
Q 3669 2231 3669 1497 
Q 3669 778 3244 343 
Q 2819 -91 2113 -91 
Q 1303 -91 875 529 
Q 447 1150 447 2328 
Q 447 3434 972 4092 
Q 1497 4750 2381 4750 
Q 2619 4750 2861 4703 
Q 3103 4656 3366 4563 
z
" transform="scale(0.015625)"/>
       </defs>
       <use xlink:href="#DejaVuSans-30"/>
       <use xlink:href="#DejaVuSans-2e" x="63.623047"/>
       <use xlink:href="#DejaVuSans-36" x="95.410156"/>
      </g>
     </g>
    </g>
    <g id="xtick_5">
     <g id="line2d_5">
      <g>
       <use xlink:href="#m4101758dbb" x="413.252121" y="318.04" style="stroke: #000000; stroke-width: 0.8"/>
      </g>
     </g>
     <g id="text_5">
      <!-- 0.8 -->
      <g transform="translate(405.300559 332.638438)scale(0.1 -0.1)">
       <defs>
        <path id="DejaVuSans-38" d="M 2034 2216 
Q 1584 2216 1326 1975 
Q 1069 1734 1069 1313 
Q 1069 891 1326 650 
Q 1584 409 2034 409 
Q 2484 409 2743 651 
Q 3003 894 3003 1313 
Q 3003 1734 2745 1975 
Q 2488 2216 2034 2216 
z
M 1403 2484 
Q 997 2584 770 2862 
Q 544 3141 544 3541 
Q 544 4100 942 4425 
Q 1341 4750 2034 4750 
Q 2731 4750 3128 4425 
Q 3525 4100 3525 3541 
Q 3525 3141 3298 2862 
Q 3072 2584 2669 2484 
Q 3125 2378 3379 2068 
Q 3634 1759 3634 1313 
Q 3634 634 3220 271 
Q 2806 -91 2034 -91 
Q 1263 -91 848 271 
Q 434 634 434 1313 
Q 434 1759 690 2068 
Q 947 2378 1403 2484 
z
M 1172 3481 
Q 1172 3119 1398 2916 
Q 1625 2713 2034 2713 
Q 2441 2713 2670 2916 
Q 2900 3119 2900 3481 
Q 2900 3844 2670 4047 
Q 2441 4250 2034 4250 
Q 1625 4250 1398 4047 
Q 1172 3844 1172 3481 
z
" transform="scale(0.015625)"/>
       </defs>
       <use xlink:href="#DejaVuSans-30"/>
       <use xlink:href="#DejaVuSans-2e" x="63.623047"/>
       <use xlink:href="#DejaVuSans-38" x="95.410156"/>
      </g>
     </g>
    </g>
    <g id="text_6">
     <!-- seconds -->
     <g transform="translate(209.667749 346.316563)scale(0.1 -0.1)">
      <defs>
       <path id="DejaVuSans-73" d="M 2834 3397 
L 2834 2853 
Q 2591 2978 2328 3040 
Q 2066 3103 1784 3103 
Q 1356 3103 1142 2972 
Q 928 2841 928 2578 
Q 928 2378 1081 2264 
Q 1234 2150 1697 2047 
L 1894 2003 
Q 2506 1872 2764 1633 
Q 3022 1394 3022 966 
Q 3022 478 2636 193 
Q 2250 -91 1575 -91 
Q 1294 -91 989 -36 
Q 684 19 347 128 
L 347 722 
Q 666 556 975 473 
Q 1284 391 1588 391 
Q 1994 391 2212 530 
Q 2431 669 2431 922 
Q 2431 1156 2273 1281 
Q 2116 1406 1581 1522 
L 1381 1569 
Q 847 1681 609 1914 
Q 372 2147 372 2553 
Q 372 3047 722 3315 
Q 1072 3584 1716 3584 
Q 2034 3584 2315 3537 
Q 2597 3491 2834 3397 
z
" transform="scale(0.015625)"/>
       <path id="DejaVuSans-65" d="M 3597 1894 
L 3597 1613 
L 953 1613 
Q 991 1019 1311 708 
Q 1631 397 2203 397 
Q 2534 397 2845 478 
Q 3156 559 3463 722 
L 3463 178 
Q 3153 47 2828 -22 
Q 2503 -91 2169 -91 
Q 1331 -91 842 396 
Q 353 884 353 1716 
Q 353 2575 817 3079 
Q 1281 3584 2069 3584 
Q 2775 3584 3186 3129 
Q 3597 2675 3597 1894 
z
M 3022 2063 
Q 3016 2534 2758 2815 
Q 2500 3097 2075 3097 
Q 1594 3097 1305 2825 
Q 1016 2553 972 2059 
L 3022 2063 
z
" transform="scale(0.015625)"/>
       <path id="DejaVuSans-63" d="M 3122 3366 
L 3122 2828 
Q 2878 2963 2633 3030 
Q 2388 3097 2138 3097 
Q 1578 3097 1268 2742 
Q 959 2388 959 1747 
Q 959 1106 1268 751 
Q 1578 397 2138 397 
Q 2388 397 2633 464 
Q 2878 531 3122 666 
L 3122 134 
Q 2881 22 2623 -34 
Q 2366 -91 2075 -91 
Q 1284 -91 818 406 
Q 353 903 353 1747 
Q 353 2603 823 3093 
Q 1294 3584 2113 3584 
Q 2378 3584 2631 3529 
Q 2884 3475 3122 3366 
z
" transform="scale(0.015625)"/>
       <path id="DejaVuSans-6f" d="M 1959 3097 
Q 1497 3097 1228 2736 
Q 959 2375 959 1747 
Q 959 1119 1226 758 
Q 1494 397 1959 397 
Q 2419 397 2687 759 
Q 2956 1122 2956 1747 
Q 2956 2369 2687 2733 
Q 2419 3097 1959 3097 
z
M 1959 3584 
Q 2709 3584 3137 3096 
Q 3566 2609 3566 1747 
Q 3566 888 3137 398 
Q 2709 -91 1959 -91 
Q 1206 -91 779 398 
Q 353 888 353 1747 
Q 353 2609 779 3096 
Q 1206 3584 1959 3584 
z
" transform="scale(0.015625)"/>
       <path id="DejaVuSans-6e" d="M 3513 2113 
L 3513 0 
L 2938 0 
L 2938 2094 
Q 2938 2591 2744 2837 
Q 2550 3084 2163 3084 
Q 1697 3084 1428 2787 
Q 1159 2491 1159 1978 
L 1159 0 
L 581 0 
L 581 3500 
L 1159 3500 
L 1159 2956 
Q 1366 3272 1645 3428 
Q 1925 3584 2291 3584 
Q 2894 3584 3203 3211 
Q 3513 2838 3513 2113 
z
" transform="scale(0.015625)"/>
       <path id="DejaVuSans-64" d="M 2906 2969 
L 2906 4863 
L 3481 4863 
L 3481 0 
L 2906 0 
L 2906 525 
Q 2725 213 2448 61 
Q 2172 -91 1784 -91 
Q 1150 -91 751 415 
Q 353 922 353 1747 
Q 353 2572 751 3078 
Q 1150 3584 1784 3584 
Q 2172 3584 2448 3432 
Q 2725 3281 2906 2969 
z
M 947 1747 
Q 947 1113 1208 752 
Q 1469 391 1925 391 
Q 2381 391 2643 752 
Q 2906 1113 2906 1747 
Q 2906 2381 2643 2742 
Q 2381 3103 1925 3103 
Q 1469 3103 1208 2742 
Q 947 2381 947 1747 
z
" transform="scale(0.015625)"/>
      </defs>
      <use xlink:href="#DejaVuSans-73"/>
      <use xlink:href="#DejaVuSans-65" x="52.099609"/>
      <use xlink:href="#DejaVuSans-63" x="113.623047"/>
      <use xlink:href="#DejaVuSans-6f" x="168.603516"/>
      <use xlink:href="#DejaVuSans-6e" x="229.785156"/>
      <use xlink:href="#DejaVuSans-64" x="293.164062"/>
      <use xlink:href="#DejaVuSans-73" x="356.640625"/>
     </g>
    </g>
   </g>
   <g id="matplotlib.axis_2">
    <g id="ytick_1">
     <g id="line2d_6">
      <defs>
       <path id="md157dda552" d="M 0 0 
L -3.5 0 
" style="stroke: #000000; stroke-width: 0.8"/>
      </defs>
      <g>
       <use xlink:href="#md157dda552" x="46.64" y="290.884266" style="stroke: #000000; stroke-width: 0.8"/>
      </g>
     </g>
     <g id="text_7">
      <!-- 1 -->
      <g transform="translate(24.897813 294.683485)scale(0.1 -0.1)">
       <defs>
        <path id="DejaVuSans-2212" d="M 678 2272 
L 4684 2272 
L 4684 1741 
L 678 1741 
L 678 2272 
z
" transform="scale(0.015625)"/>
        <path id="DejaVuSans-31" d="M 794 531 
L 1825 531 
L 1825 4091 
L 703 3866 
L 703 4441 
L 1819 4666 
L 2450 4666 
L 2450 531 
L 3481 531 
L 3481 0 
L 794 0 
L 794 531 
z
" transform="scale(0.015625)"/>
       </defs>
       <use xlink:href="#DejaVuSans-2212"/>
       <use xlink:href="#DejaVuSans-31" x="83.789062"/>
      </g>
     </g>
    </g>
    <g id="ytick_2">
     <g id="line2d_7">
      <g>
       <use xlink:href="#md157dda552" x="46.64" y="258.605282" style="stroke: #000000; stroke-width: 0.8"/>
      </g>
     </g>
     <g id="text_8">
      <!-- 0 -->
      <g transform="translate(33.2775 262.404501)scale(0.1 -0.1)">
       <use xlink:href="#DejaVuSans-30"/>
      </g>
     </g>
    </g>
    <g id="ytick_3">
     <g id="line2d_8">
      <g>
       <use xlink:href="#md157dda552" x="46.64" y="226.326298" style="stroke: #000000; stroke-width: 0.8"/>
      </g>
     </g>
     <g id="text_9">
      <!-- 1 -->
      <g transform="translate(33.2775 230.125517)scale(0.1 -0.1)">
       <use xlink:href="#DejaVuSans-31"/>
      </g>
     </g>
    </g>
    <g id="ytick_4">
     <g id="line2d_9">
      <g>
       <use xlink:href="#md157dda552" x="46.64" y="194.047315" style="stroke: #000000; stroke-width: 0.8"/>
      </g>
     </g>
     <g id="text_10">
      <!-- 2 -->
      <g transform="translate(33.2775 197.846533)scale(0.1 -0.1)">
       <use xlink:href="#DejaVuSans-32"/>
      </g>
     </g>
    </g>
    <g id="ytick_5">
     <g id="line2d_10">
      <g>
       <use xlink:href="#md157dda552" x="46.64" y="161.768331" style="stroke: #000000; stroke-width: 0.8"/>
      </g>
     </g>
     <g id="text_11">
      <!-- 3 -->
      <g transform="translate(33.2775 165.56755)scale(0.1 -0.1)">
       <defs>
        <path id="DejaVuSans-33" d="M 2597 2516 
Q 3050 2419 3304 2112 
Q 3559 1806 3559 1356 
Q 3559 666 3084 287 
Q 2609 -91 1734 -91 
Q 1441 -91 1130 -33 
Q 819 25 488 141 
L 488 750 
Q 750 597 1062 519 
Q 1375 441 1716 441 
Q 2309 441 2620 675 
Q 2931 909 2931 1356 
Q 2931 1769 2642 2001 
Q 2353 2234 1838 2234 
L 1294 2234 
L 1294 2753 
L 1863 2753 
Q 2328 2753 2575 2939 
Q 2822 3125 2822 3475 
Q 2822 3834 2567 4026 
Q 2313 4219 1838 4219 
Q 1578 4219 1281 4162 
Q 984 4106 628 3988 
L 628 4550 
Q 988 4650 1302 4700 
Q 1616 4750 1894 4750 
Q 2613 4750 3031 4423 
Q 3450 4097 3450 3541 
Q 3450 3153 3228 2886 
Q 3006 2619 2597 2516 
z
" transform="scale(0.015625)"/>
       </defs>
       <use xlink:href="#DejaVuSans-33"/>
      </g>
     </g>
    </g>
    <g id="ytick_6">
     <g id="line2d_11">
      <g>
       <use xlink:href="#md157dda552" x="46.64" y="129.489347" style="stroke: #000000; stroke-width: 0.8"/>
      </g>
     </g>
     <g id="text_12">
      <!-- 4 -->
      <g transform="translate(33.2775 133.288566)scale(0.1 -0.1)">
       <use xlink:href="#DejaVuSans-34"/>
      </g>
     </g>
    </g>
    <g id="ytick_7">
     <g id="line2d_12">
      <g>
       <use xlink:href="#md157dda552" x="46.64" y="97.210363" style="stroke: #000000; stroke-width: 0.8"/>
      </g>
     </g>
     <g id="text_13">
      <!-- 5 -->
      <g transform="translate(33.2775 101.009582)scale(0.1 -0.1)">
       <defs>
        <path id="DejaVuSans-35" d="M 691 4666 
L 3169 4666 
L 3169 4134 
L 1269 4134 
L 1269 2991 
Q 1406 3038 1543 3061 
Q 1681 3084 1819 3084 
Q 2600 3084 3056 2656 
Q 3513 2228 3513 1497 
Q 3513 744 3044 326 
Q 2575 -91 1722 -91 
Q 1428 -91 1123 -41 
Q 819 9 494 109 
L 494 744 
Q 775 591 1075 516 
Q 1375 441 1709 441 
Q 2250 441 2565 725 
Q 2881 1009 2881 1497 
Q 2881 1984 2565 2268 
Q 2250 2553 1709 2553 
Q 1456 2553 1204 2497 
Q 953 2441 691 2322 
L 691 4666 
z
" transform="scale(0.015625)"/>
       </defs>
       <use xlink:href="#DejaVuSans-35"/>
      </g>
     </g>
    </g>
    <g id="text_14">
     <!-- V -->
     <g transform="translate(18.818125 201.487562)rotate(-90)scale(0.1 -0.1)">
      <defs>
       <path id="DejaVuSans-b5" d="M 544 -1331 
L 544 3500 
L 1119 3500 
L 1119 1325 
Q 1119 872 1334 640 
Q 1550 409 1972 409 
Q 2434 409 2667 671 
Q 2900 934 2900 1459 
L 2900 3500 
L 3475 3500 
L 3475 806 
Q 3475 619 3529 530 
Q 3584 441 3700 441 
Q 3728 441 3778 458 
Q 3828 475 3916 513 
L 3916 50 
Q 3788 -22 3673 -56 
Q 3559 -91 3450 -91 
Q 3234 -91 3106 31 
Q 2978 153 2931 403 
Q 2775 156 2548 32 
Q 2322 -91 2016 -91 
Q 1697 -91 1473 31 
Q 1250 153 1119 397 
L 1119 -1331 
L 544 -1331 
z
" transform="scale(0.015625)"/>
       <path id="DejaVuSans-56" d="M 1831 0 
L 50 4666 
L 709 4666 
L 2188 738 
L 3669 4666 
L 4325 4666 
L 2547 0 
L 1831 0 
z
" transform="scale(0.015625)"/>
      </defs>
      <use xlink:href="#DejaVuSans-b5"/>
      <use xlink:href="#DejaVuSans-56" x="63.623047"/>
     </g>
    </g>
   </g>
   <g id="line2d_13">
    <path d="M 46.64 247.888083 
L 47.435945 248.615312 
L 48.231889 251.005183 
L 49.027834 254.791148 
L 50.619723 263.253482 
L 51.415668 266.039087 
L 52.211613 267.072576 
L 53.007557 266.385675 
L 53.803502 264.454475 
L 55.395392 259.536608 
L 56.191336 257.518233 
L 56.987281 255.944751 
L 58.57917 253.455993 
L 59.375115 252.379991 
L 60.17106 251.679312 
L 60.967004 251.780079 
L 61.762949 253.07434 
L 62.558894 255.696682 
L 64.946728 267.220462 
L 65.742672 269.787408 
L 66.538617 270.802519 
L 67.334562 270.342667 
L 68.130506 268.916149 
L 68.926451 267.251129 
L 69.722396 266.006891 
L 70.51834 265.524522 
L 71.314285 265.715319 
L 72.11023 266.12714 
L 72.906175 266.154755 
L 73.702119 265.3026 
L 74.498064 263.391546 
L 76.089953 257.524204 
L 76.885898 254.686867 
L 77.681843 252.608911 
L 78.477787 251.507389 
L 79.273732 251.291149 
L 80.069677 251.649351 
L 81.661566 252.694439 
L 82.457511 252.993565 
L 84.845345 253.360106 
L 85.641289 253.321344 
L 86.437234 252.906304 
L 87.233179 251.850134 
L 88.029124 250.014787 
L 90.416958 242.420273 
L 91.212902 241.176618 
L 92.008847 241.600528 
L 92.804792 243.922703 
L 93.600736 247.949147 
L 95.98857 263.198072 
L 96.784515 266.46975 
L 97.58046 267.81018 
L 98.376404 267.110717 
L 99.172349 264.623711 
L 99.968294 260.880989 
L 101.560183 252.405521 
L 102.356128 248.99211 
L 103.152073 246.738512 
L 103.948017 245.788632 
L 104.743962 246.007141 
L 105.539907 247.018615 
L 106.335851 248.301756 
L 107.131796 249.325001 
L 107.927741 249.693426 
L 108.723685 249.266764 
L 109.51963 248.210407 
L 110.315575 246.95592 
L 111.111519 246.073018 
L 111.907464 246.085937 
L 112.703409 247.290535 
L 113.499353 249.632024 
L 115.091243 255.76339 
L 115.887187 258.087993 
L 116.683132 259.029631 
L 117.479077 258.284254 
L 118.275021 255.968215 
L 120.662856 245.771336 
L 121.4588 243.833098 
L 122.254745 243.491252 
L 123.05069 244.778877 
L 123.846634 247.395939 
L 126.234468 257.293277 
L 127.030413 259.183503 
L 127.826358 259.64765 
L 128.622302 258.602904 
L 129.418247 256.242108 
L 131.806081 246.540192 
L 132.602026 244.640701 
L 133.39797 244.264423 
L 134.193915 245.505474 
L 134.98986 248.090339 
L 136.581749 254.741089 
L 137.377694 257.262559 
L 138.173639 258.420611 
L 138.969583 257.985488 
L 139.765528 256.122035 
L 142.153362 247.908071 
L 142.949307 246.584621 
L 143.745251 246.689615 
L 144.541196 248.200567 
L 145.337141 250.803052 
L 146.92903 257.183086 
L 147.724975 259.863551 
L 148.520919 261.647886 
L 149.316864 262.334335 
L 150.112809 261.901548 
L 150.908753 260.481281 
L 151.704698 258.319767 
L 154.092532 250.777739 
L 154.888477 249.102451 
L 155.684422 248.330795 
L 156.480366 248.587327 
L 157.276311 249.828803 
L 158.072256 251.835402 
L 159.664145 256.609098 
L 160.46009 258.519312 
L 161.256034 259.674399 
L 162.051979 259.960072 
L 162.847924 259.455262 
L 163.643868 258.381421 
L 166.827647 252.696026 
L 168.419537 249.515697 
L 170.011426 246.311122 
L 170.807371 245.388651 
L 171.603315 245.391283 
L 172.39926 246.480464 
L 173.195205 248.497731 
L 174.787094 253.029965 
L 175.583039 254.00432 
L 176.378983 253.316553 
L 177.174928 250.890983 
L 179.562762 239.893301 
L 180.358707 238.340943 
L 181.154651 238.99287 
L 181.950596 241.699386 
L 184.33843 253.236425 
L 185.134375 254.876512 
L 185.93032 254.679586 
L 186.726264 253.104415 
L 187.522209 251.074024 
L 188.318154 249.665681 
L 189.114098 249.760156 
L 189.910043 251.76279 
L 190.705988 255.480444 
L 192.297877 264.8205 
L 193.093822 268.313019 
L 193.889766 269.836807 
L 194.685711 269.017036 
L 195.481656 265.991248 
L 196.2776 261.337709 
L 197.86949 250.581188 
L 198.665434 246.119378 
L 199.461379 242.973738 
L 200.257324 241.262331 
L 201.053269 240.801119 
L 201.849213 241.207574 
L 204.237047 243.631799 
L 206.624881 245.24311 
L 207.420826 246.171599 
L 208.216771 247.47126 
L 210.604605 252.054608 
L 211.400549 252.897296 
L 212.196494 252.997558 
L 212.992439 252.273027 
L 213.788383 250.770156 
L 214.584328 248.641306 
L 217.768107 238.55359 
L 218.564052 236.699659 
L 219.359996 235.287592 
L 220.951886 233.134924 
L 221.74783 231.774921 
L 222.543775 229.764525 
L 223.33972 226.89499 
L 224.931609 219.021662 
L 225.727554 214.91731 
L 226.523498 211.541261 
L 227.319443 209.409235 
L 228.115388 208.701648 
L 228.911332 209.159959 
L 229.707277 210.133075 
L 230.503222 210.773917 
L 231.299166 210.326482 
L 232.095111 208.400107 
L 232.891056 205.123453 
L 234.482945 197.262439 
L 235.27889 194.433677 
L 236.074835 193.16581 
L 236.870779 193.517508 
L 237.666724 195.098454 
L 239.258613 199.414102 
L 240.054558 201.176275 
L 241.646447 203.735768 
L 243.238337 206.537115 
L 244.034281 207.987627 
L 244.830226 208.893168 
L 245.626171 208.706497 
L 246.422115 207.124791 
L 247.21806 204.320028 
L 248.014005 200.988098 
L 248.80995 198.168216 
L 249.605894 196.882706 
L 250.401839 197.732089 
L 251.197784 200.612486 
L 252.789673 208.609238 
L 253.585618 211.016596 
L 254.381562 210.966336 
L 255.177507 208.297263 
L 257.565341 193.999101 
L 258.361286 191.504609 
L 259.15723 191.401127 
L 259.953175 193.338306 
L 261.545064 199.142539 
L 262.341009 200.668382 
L 263.136954 200.30533 
L 263.932898 198.068794 
L 265.524788 190.501605 
L 266.320733 186.879612 
L 267.116677 184.250213 
L 267.912622 182.833223 
L 268.708567 182.479634 
L 269.504511 182.790418 
L 270.300456 183.280795 
L 271.096401 183.528108 
L 271.892345 183.263013 
L 272.68829 182.392877 
L 273.484235 180.970454 
L 275.076124 177.038893 
L 279.055847 165.627594 
L 280.647737 161.096613 
L 281.443682 159.176277 
L 282.239626 157.79018 
L 283.035571 157.202513 
L 283.831516 157.633055 
L 284.62746 159.189032 
L 285.423405 161.812007 
L 287.015294 169.115126 
L 287.811239 172.875792 
L 288.607184 176.022019 
L 289.403128 178.133268 
L 290.199073 178.977063 
L 290.995018 178.570855 
L 291.790962 177.201922 
L 293.382852 173.831764 
L 294.178796 173.207184 
L 294.974741 174.08032 
L 295.770686 176.715769 
L 296.56663 180.981425 
L 298.954465 196.758072 
L 299.750409 200.004198 
L 300.546354 201.170875 
L 301.342299 200.270166 
L 302.138243 197.802871 
L 303.730133 191.51589 
L 304.526077 189.208597 
L 305.322022 187.867957 
L 306.913911 186.596116 
L 307.709856 185.322222 
L 308.505801 182.895046 
L 309.301745 179.26026 
L 310.893635 170.484656 
L 311.689579 167.062527 
L 312.485524 165.323666 
L 313.281469 165.603353 
L 314.077414 167.7619 
L 314.873358 171.265873 
L 316.465248 179.387088 
L 317.261192 182.760534 
L 318.057137 185.232558 
L 318.853082 186.766526 
L 319.649026 187.46857 
L 320.444971 187.497368 
L 321.240916 187.016724 
L 323.62875 184.537487 
L 324.424694 184.318221 
L 325.220639 184.915185 
L 326.016584 186.469198 
L 326.812528 188.879547 
L 328.404418 194.680095 
L 329.200363 197.004344 
L 329.996307 198.380614 
L 330.792252 198.698899 
L 331.588197 198.137094 
L 333.976031 194.89107 
L 335.56792 193.502226 
L 336.363865 192.802584 
L 338.751699 190.011298 
L 339.547643 189.569839 
L 340.343588 189.823367 
L 341.139533 190.770469 
L 342.731422 193.224344 
L 343.527367 193.523383 
L 344.323311 192.521459 
L 345.119256 190.112888 
L 347.50709 179.276184 
L 348.303035 176.906298 
L 349.09898 175.98545 
L 349.894924 176.45894 
L 350.690869 177.94779 
L 353.078703 183.863883 
L 356.262482 190.469763 
L 357.058426 191.763103 
L 357.854371 192.40864 
L 358.650316 192.164584 
L 359.44626 191.048136 
L 361.03815 187.825633 
L 361.834095 186.959309 
L 362.630039 187.249483 
L 363.425984 188.751434 
L 365.813818 195.496889 
L 366.609763 196.368124 
L 367.405707 196.137933 
L 368.997597 194.192302 
L 369.793541 193.754913 
L 370.589486 194.190543 
L 372.181375 196.54079 
L 372.97732 196.976687 
L 373.773265 195.861382 
L 374.569209 192.802517 
L 375.365154 187.952785 
L 377.752988 170.676884 
L 378.548933 167.117857 
L 379.344878 165.54697 
L 380.140822 165.849748 
L 380.936767 167.562008 
L 383.324601 174.822413 
L 384.120546 176.210601 
L 384.91649 176.58905 
L 385.712435 175.884708 
L 386.50838 174.164254 
L 387.304324 171.645836 
L 388.896214 165.831964 
L 389.692158 163.558675 
L 390.488103 162.306901 
L 391.284048 162.255171 
L 392.079992 163.244259 
L 393.671882 166.151376 
L 394.467827 166.626503 
L 395.263771 165.681735 
L 396.059716 163.169996 
L 396.855661 159.378819 
L 398.44755 150.703837 
L 399.243495 147.373587 
L 400.039439 145.420912 
L 400.835384 144.904859 
L 401.631329 145.492118 
L 403.223218 147.492359 
L 404.019163 147.675205 
L 404.815107 146.845984 
L 405.611052 145.043192 
L 407.998886 137.473892 
L 408.794831 135.570577 
L 409.590775 134.263477 
L 410.38672 133.406983 
L 411.97861 132.005229 
L 413.570499 130.23483 
L 413.570499 130.23483 
" clip-path="url(#p12156b4ebd)" style="fill: none; stroke: #e41a1c; stroke-width: 1.5; stroke-linecap: square"/>
   </g>
   <g id="line2d_14">
    <path d="M 46.64 253.65772 
L 48.231889 258.040987 
L 49.027834 259.477353 
L 49.823779 260.079018 
L 50.619723 259.874817 
L 51.415668 259.102376 
L 53.007557 257.312946 
L 53.803502 256.933314 
L 54.599447 257.072978 
L 55.395392 257.62745 
L 56.987281 258.941176 
L 57.783226 259.151992 
L 58.57917 258.857082 
L 59.375115 258.085336 
L 61.762949 254.781619 
L 62.558894 254.031886 
L 63.354838 253.626959 
L 64.150783 253.532414 
L 64.946728 253.664272 
L 66.538617 254.314753 
L 67.334562 254.799529 
L 68.130506 255.438447 
L 68.926451 256.274912 
L 70.51834 258.48694 
L 72.11023 260.716329 
L 72.906175 261.46043 
L 73.702119 261.811932 
L 74.498064 261.757707 
L 75.294009 261.369311 
L 77.681843 259.641495 
L 78.477787 259.35651 
L 79.273732 259.366138 
L 80.069677 259.687831 
L 80.865621 260.295097 
L 82.457511 262.056668 
L 83.253455 262.953599 
L 84.0494 263.632978 
L 84.845345 263.915409 
L 85.641289 263.665757 
L 86.437234 262.842329 
L 87.233179 261.531048 
L 88.825068 258.391476 
L 89.621013 257.181429 
L 90.416958 256.554333 
L 91.212902 256.595362 
L 92.008847 257.204517 
L 93.600736 259.009704 
L 94.396681 259.551448 
L 95.192626 259.555031 
L 95.98857 259.003666 
L 98.376404 256.017864 
L 99.172349 255.429302 
L 99.968294 255.277603 
L 100.764238 255.509687 
L 103.948017 257.331535 
L 105.539907 257.701896 
L 107.131796 257.84324 
L 107.927741 257.765284 
L 108.723685 257.486369 
L 109.51963 256.948146 
L 110.315575 256.157608 
L 111.907464 254.258995 
L 112.703409 253.511824 
L 113.499353 253.143307 
L 114.295298 253.26834 
L 115.091243 253.913479 
L 115.887187 255.017156 
L 117.479077 258.051934 
L 119.070966 261.090934 
L 119.866911 262.240295 
L 120.662856 262.992414 
L 121.4588 263.275649 
L 122.254745 263.066409 
L 123.05069 262.404608 
L 124.642579 260.225329 
L 125.438524 259.074815 
L 126.234468 258.124026 
L 127.030413 257.476575 
L 127.826358 257.134448 
L 130.214192 256.751184 
L 131.806081 255.969537 
L 132.602026 255.566275 
L 133.39797 255.428979 
L 134.193915 255.755433 
L 134.98986 256.63541 
L 135.785805 257.996766 
L 137.377694 261.127854 
L 138.173639 262.226674 
L 138.969583 262.674102 
L 139.765528 262.42496 
L 140.561473 261.633336 
L 142.153362 259.687876 
L 142.949307 259.17854 
L 143.745251 259.208699 
L 144.541196 259.716688 
L 146.133085 261.151102 
L 146.92903 261.45043 
L 147.724975 261.171367 
L 148.520919 260.2767 
L 149.316864 258.888227 
L 151.704698 254.148353 
L 152.500643 253.040534 
L 153.296588 252.257356 
L 156.480366 249.920919 
L 158.072256 248.006118 
L 158.8682 247.028064 
L 159.664145 246.254591 
L 160.46009 245.852252 
L 161.256034 245.943138 
L 162.051979 246.575728 
L 162.847924 247.711469 
L 164.439813 250.951817 
L 166.031702 254.223026 
L 166.827647 255.47421 
L 167.623592 256.396025 
L 168.419537 257.041461 
L 170.807371 258.600478 
L 171.603315 259.40274 
L 172.39926 260.431228 
L 173.991149 262.957756 
L 175.583039 265.519391 
L 177.174928 267.617395 
L 178.766817 269.213224 
L 180.358707 270.485385 
L 184.33843 273.343223 
L 185.134375 274.090585 
L 185.93032 274.991545 
L 186.726264 276.078877 
L 188.318154 278.833171 
L 191.501932 284.961888 
L 192.297877 286.051268 
L 193.093822 286.858876 
L 194.685711 287.91988 
L 195.481656 288.425724 
L 196.2776 289.065357 
L 198.665434 291.555757 
L 199.461379 292.093227 
L 200.257324 292.20843 
L 201.053269 291.853895 
L 201.849213 291.116891 
L 203.441103 289.351136 
L 204.237047 288.779612 
L 205.032992 288.568054 
L 207.420826 288.674744 
L 208.216771 288.113893 
L 209.012715 286.967989 
L 209.80866 285.292168 
L 212.196494 279.522974 
L 212.992439 278.240012 
L 213.788383 277.502376 
L 214.584328 277.260497 
L 215.380273 277.383136 
L 218.564052 278.715066 
L 219.359996 278.763487 
L 220.155941 278.54166 
L 220.951886 277.982756 
L 221.74783 277.058745 
L 223.33972 274.370533 
L 224.931609 271.712733 
L 225.727554 270.895064 
L 226.523498 270.56489 
L 227.319443 270.695729 
L 228.115388 271.166951 
L 230.503222 273.072068 
L 232.095111 273.893728 
L 232.891056 274.126642 
L 233.687001 274.222266 
L 234.482945 274.137837 
L 235.27889 273.834583 
L 236.074835 273.318299 
L 237.666724 272.031654 
L 238.462669 271.580053 
L 239.258613 271.440762 
L 240.054558 271.636717 
L 241.646447 272.519465 
L 242.442392 272.783941 
L 243.238337 272.711585 
L 244.034281 272.305899 
L 245.626171 271.284786 
L 246.422115 271.247118 
L 247.21806 271.815955 
L 248.014005 273.003809 
L 250.401839 277.892167 
L 251.197784 278.910801 
L 251.993728 279.317465 
L 252.789673 279.169412 
L 253.585618 278.649403 
L 255.177507 277.35804 
L 255.973452 276.870666 
L 257.565341 276.27354 
L 259.953175 275.699832 
L 260.74912 275.642876 
L 261.545064 275.736838 
L 262.341009 275.995395 
L 265.524788 277.554581 
L 267.116677 277.86824 
L 268.708567 277.897049 
L 270.300456 277.772227 
L 271.892345 277.449813 
L 275.076124 276.436511 
L 276.668013 275.657317 
L 278.259903 274.445197 
L 279.851792 273.264192 
L 280.647737 272.972259 
L 281.443682 272.969297 
L 283.831516 273.750607 
L 284.62746 273.638224 
L 285.423405 273.07421 
L 286.21935 272.055855 
L 289.403128 266.811805 
L 290.199073 266.119818 
L 290.995018 265.803028 
L 291.790962 265.798668 
L 292.586907 266.030795 
L 293.382852 266.447676 
L 294.178796 267.032268 
L 295.770686 268.683787 
L 297.362575 270.634716 
L 298.15852 271.450941 
L 298.954465 272.019948 
L 299.750409 272.312722 
L 301.342299 272.367304 
L 302.138243 272.391933 
L 302.934188 272.550953 
L 305.322022 273.371805 
L 306.117967 273.320577 
L 306.913911 272.958187 
L 309.301745 271.105362 
L 310.09769 270.861125 
L 310.893635 270.999628 
L 311.689579 271.463008 
L 313.281469 272.692001 
L 314.077414 273.12364 
L 315.669303 273.468524 
L 316.465248 273.630941 
L 317.261192 274.001254 
L 318.057137 274.658807 
L 320.444971 277.312749 
L 321.240916 277.714779 
L 322.03686 277.596419 
L 322.832805 276.962164 
L 323.62875 275.941024 
L 325.220639 273.566454 
L 326.016584 272.599486 
L 326.812528 271.941333 
L 327.608473 271.637719 
L 328.404418 271.701125 
L 329.200363 272.133231 
L 329.996307 272.926629 
L 330.792252 274.042036 
L 333.180086 277.841848 
L 333.976031 278.424785 
L 334.771975 278.260552 
L 335.56792 277.282968 
L 336.363865 275.626024 
L 337.955754 271.674923 
L 338.751699 270.245199 
L 339.547643 269.62529 
L 340.343588 269.906363 
L 341.139533 270.950284 
L 343.527367 275.262396 
L 344.323311 276.015709 
L 345.119256 276.189828 
L 345.915201 275.85602 
L 346.711146 275.167032 
L 349.894924 271.68427 
L 350.690869 271.006993 
L 351.486814 270.480477 
L 352.282758 270.130682 
L 353.078703 269.960897 
L 355.466537 269.882765 
L 356.262482 269.611048 
L 357.058426 269.056056 
L 357.854371 268.228873 
L 359.44626 266.262319 
L 360.242205 265.5048 
L 361.03815 265.129941 
L 361.834095 265.223359 
L 362.630039 265.777133 
L 363.425984 266.70526 
L 365.017873 269.159343 
L 366.609763 271.597565 
L 367.405707 272.579655 
L 368.201652 273.298656 
L 368.997597 273.677404 
L 369.793541 273.658004 
L 370.589486 273.234134 
L 371.385431 272.481808 
L 372.97732 270.732326 
L 373.773265 270.216952 
L 374.569209 270.203205 
L 375.365154 270.739156 
L 376.161099 271.710518 
L 377.752988 273.875255 
L 378.548933 274.462455 
L 379.344878 274.474431 
L 380.140822 273.955236 
L 381.732712 272.384481 
L 382.528656 272.056219 
L 383.324601 272.408622 
L 384.120546 273.491475 
L 386.50838 278.433276 
L 387.304324 279.252796 
L 388.100269 279.151706 
L 388.896214 278.155474 
L 391.284048 273.332398 
L 392.079992 272.640567 
L 392.875937 272.879817 
L 393.671882 273.971073 
L 396.059716 278.626541 
L 396.855661 279.241855 
L 397.651605 279.03001 
L 398.44755 278.098133 
L 400.835384 273.899142 
L 401.631329 272.874174 
L 403.223218 271.510302 
L 404.019163 270.831164 
L 404.815107 269.952156 
L 407.202941 266.630865 
L 407.998886 266.002051 
L 408.794831 266.000324 
L 409.590775 266.716773 
L 410.38672 268.087674 
L 412.774554 273.706955 
L 413.570499 275.09217 
L 413.570499 275.09217 
" clip-path="url(#p12156b4ebd)" style="fill: none; stroke: #377eb8; stroke-width: 1.5; stroke-linecap: square"/>
   </g>
   <g id="line2d_15">
    <path d="M 87.233179 318.04 
L 87.233179 71.732 
" clip-path="url(#p12156b4ebd)" style="fill: none; stroke: #000000; stroke-width: 0.5; stroke-linecap: square"/>
   </g>
   <g id="line2d_16">
    <path d="M 46.64 258.605282 
L 413.570499 258.605282 
" clip-path="url(#p12156b4ebd)" style="fill: none; stroke: #000000; stroke-width: 0.5; stroke-linecap: square"/>
   </g>
   <g id="patch_4">
    <path d="M 46.64 318.04 
L 46.64 71.732 
" style="fill: none; stroke: #000000; stroke-width: 0.8; stroke-linejoin: miter; stroke-linecap: square"/>
   </g>
   <g id="patch_5">
    <path d="M 413.570499 318.04 
L 413.570499 71.732 
" style="fill: none; stroke: #000000; stroke-width: 0.8; stroke-linejoin: miter; stroke-linecap: square"/>
   </g>
   <g id="patch_6">
    <path d="M 46.64 318.04 
L 413.570499 318.04 
" style="fill: none; stroke: #000000; stroke-width: 0.8; stroke-linejoin: miter; stroke-linecap: square"/>
   </g>
   <g id="patch_7">
    <path d="M 46.64 71.732 
L 413.570499 71.732 
" style="fill: none; stroke: #000000; stroke-width: 0.8; stroke-linejoin: miter; stroke-linecap: square"/>
   </g>
   <g id="text_15">
    <!-- Cz -->
    <g transform="translate(222.766499 65.732)scale(0.12 -0.12)">
     <defs>
      <path id="DejaVuSans-43" d="M 4122 4306 
L 4122 3641 
Q 3803 3938 3442 4084 
Q 3081 4231 2675 4231 
Q 1875 4231 1450 3742 
Q 1025 3253 1025 2328 
Q 1025 1406 1450 917 
Q 1875 428 2675 428 
Q 3081 428 3442 575 
Q 3803 722 4122 1019 
L 4122 359 
Q 3791 134 3420 21 
Q 3050 -91 2638 -91 
Q 1578 -91 968 557 
Q 359 1206 359 2328 
Q 359 3453 968 4101 
Q 1578 4750 2638 4750 
Q 3056 4750 3426 4639 
Q 3797 4528 4122 4306 
z
" transform="scale(0.015625)"/>
      <path id="DejaVuSans-7a" d="M 353 3500 
L 3084 3500 
L 3084 2975 
L 922 459 
L 3084 459 
L 3084 0 
L 275 0 
L 275 525 
L 2438 3041 
L 353 3041 
L 353 3500 
z
" transform="scale(0.015625)"/>
     </defs>
     <use xlink:href="#DejaVuSans-43"/>
     <use xlink:href="#DejaVuSans-7a" x="69.824219"/>
    </g>
   </g>
   <g id="legend_1">
    <g id="patch_8">
     <path d="M 99.877906 48.500845 
L 360.332593 48.500845 
Q 362.332593 48.500845 362.332593 46.500845 
L 362.332593 18.144595 
Q 362.332593 16.144595 360.332593 16.144595 
L 99.877906 16.144595 
Q 97.877906 16.144595 97.877906 18.144595 
L 97.877906 46.500845 
Q 97.877906 48.500845 99.877906 48.500845 
z
" style="fill: #ffffff; opacity: 0.8; stroke: #cccccc; stroke-linejoin: miter"/>
    </g>
    <g id="text_16">
     <!-- Average of Session 33 -->
     <g transform="translate(174.545874 27.743033)scale(0.1 -0.1)">
      <defs>
       <path id="DejaVuSans-41" d="M 2188 4044 
L 1331 1722 
L 3047 1722 
L 2188 4044 
z
M 1831 4666 
L 2547 4666 
L 4325 0 
L 3669 0 
L 3244 1197 
L 1141 1197 
L 716 0 
L 50 0 
L 1831 4666 
z
" transform="scale(0.015625)"/>
       <path id="DejaVuSans-76" d="M 191 3500 
L 800 3500 
L 1894 563 
L 2988 3500 
L 3597 3500 
L 2284 0 
L 1503 0 
L 191 3500 
z
" transform="scale(0.015625)"/>
       <path id="DejaVuSans-72" d="M 2631 2963 
Q 2534 3019 2420 3045 
Q 2306 3072 2169 3072 
Q 1681 3072 1420 2755 
Q 1159 2438 1159 1844 
L 1159 0 
L 581 0 
L 581 3500 
L 1159 3500 
L 1159 2956 
Q 1341 3275 1631 3429 
Q 1922 3584 2338 3584 
Q 2397 3584 2469 3576 
Q 2541 3569 2628 3553 
L 2631 2963 
z
" transform="scale(0.015625)"/>
       <path id="DejaVuSans-61" d="M 2194 1759 
Q 1497 1759 1228 1600 
Q 959 1441 959 1056 
Q 959 750 1161 570 
Q 1363 391 1709 391 
Q 2188 391 2477 730 
Q 2766 1069 2766 1631 
L 2766 1759 
L 2194 1759 
z
M 3341 1997 
L 3341 0 
L 2766 0 
L 2766 531 
Q 2569 213 2275 61 
Q 1981 -91 1556 -91 
Q 1019 -91 701 211 
Q 384 513 384 1019 
Q 384 1609 779 1909 
Q 1175 2209 1959 2209 
L 2766 2209 
L 2766 2266 
Q 2766 2663 2505 2880 
Q 2244 3097 1772 3097 
Q 1472 3097 1187 3025 
Q 903 2953 641 2809 
L 641 3341 
Q 956 3463 1253 3523 
Q 1550 3584 1831 3584 
Q 2591 3584 2966 3190 
Q 3341 2797 3341 1997 
z
" transform="scale(0.015625)"/>
       <path id="DejaVuSans-67" d="M 2906 1791 
Q 2906 2416 2648 2759 
Q 2391 3103 1925 3103 
Q 1463 3103 1205 2759 
Q 947 2416 947 1791 
Q 947 1169 1205 825 
Q 1463 481 1925 481 
Q 2391 481 2648 825 
Q 2906 1169 2906 1791 
z
M 3481 434 
Q 3481 -459 3084 -895 
Q 2688 -1331 1869 -1331 
Q 1566 -1331 1297 -1286 
Q 1028 -1241 775 -1147 
L 775 -588 
Q 1028 -725 1275 -790 
Q 1522 -856 1778 -856 
Q 2344 -856 2625 -561 
Q 2906 -266 2906 331 
L 2906 616 
Q 2728 306 2450 153 
Q 2172 0 1784 0 
Q 1141 0 747 490 
Q 353 981 353 1791 
Q 353 2603 747 3093 
Q 1141 3584 1784 3584 
Q 2172 3584 2450 3431 
Q 2728 3278 2906 2969 
L 2906 3500 
L 3481 3500 
L 3481 434 
z
" transform="scale(0.015625)"/>
       <path id="DejaVuSans-20" transform="scale(0.015625)"/>
       <path id="DejaVuSans-66" d="M 2375 4863 
L 2375 4384 
L 1825 4384 
Q 1516 4384 1395 4259 
Q 1275 4134 1275 3809 
L 1275 3500 
L 2222 3500 
L 2222 3053 
L 1275 3053 
L 1275 0 
L 697 0 
L 697 3053 
L 147 3053 
L 147 3500 
L 697 3500 
L 697 3744 
Q 697 4328 969 4595 
Q 1241 4863 1831 4863 
L 2375 4863 
z
" transform="scale(0.015625)"/>
       <path id="DejaVuSans-53" d="M 3425 4513 
L 3425 3897 
Q 3066 4069 2747 4153 
Q 2428 4238 2131 4238 
Q 1616 4238 1336 4038 
Q 1056 3838 1056 3469 
Q 1056 3159 1242 3001 
Q 1428 2844 1947 2747 
L 2328 2669 
Q 3034 2534 3370 2195 
Q 3706 1856 3706 1288 
Q 3706 609 3251 259 
Q 2797 -91 1919 -91 
Q 1588 -91 1214 -16 
Q 841 59 441 206 
L 441 856 
Q 825 641 1194 531 
Q 1563 422 1919 422 
Q 2459 422 2753 634 
Q 3047 847 3047 1241 
Q 3047 1584 2836 1778 
Q 2625 1972 2144 2069 
L 1759 2144 
Q 1053 2284 737 2584 
Q 422 2884 422 3419 
Q 422 4038 858 4394 
Q 1294 4750 2059 4750 
Q 2388 4750 2728 4690 
Q 3069 4631 3425 4513 
z
" transform="scale(0.015625)"/>
       <path id="DejaVuSans-69" d="M 603 3500 
L 1178 3500 
L 1178 0 
L 603 0 
L 603 3500 
z
M 603 4863 
L 1178 4863 
L 1178 4134 
L 603 4134 
L 603 4863 
z
" transform="scale(0.015625)"/>
      </defs>
      <use xlink:href="#DejaVuSans-41"/>
      <use xlink:href="#DejaVuSans-76" x="62.533203"/>
      <use xlink:href="#DejaVuSans-65" x="121.712891"/>
      <use xlink:href="#DejaVuSans-72" x="183.236328"/>
      <use xlink:href="#DejaVuSans-61" x="224.349609"/>
      <use xlink:href="#DejaVuSans-67" x="285.628906"/>
      <use xlink:href="#DejaVuSans-65" x="349.105469"/>
      <use xlink:href="#DejaVuSans-20" x="410.628906"/>
      <use xlink:href="#DejaVuSans-6f" x="442.416016"/>
      <use xlink:href="#DejaVuSans-66" x="503.597656"/>
      <use xlink:href="#DejaVuSans-20" x="538.802734"/>
      <use xlink:href="#DejaVuSans-53" x="570.589844"/>
      <use xlink:href="#DejaVuSans-65" x="634.066406"/>
      <use xlink:href="#DejaVuSans-73" x="695.589844"/>
      <use xlink:href="#DejaVuSans-73" x="747.689453"/>
      <use xlink:href="#DejaVuSans-69" x="799.789062"/>
      <use xlink:href="#DejaVuSans-6f" x="827.572266"/>
      <use xlink:href="#DejaVuSans-6e" x="888.753906"/>
      <use xlink:href="#DejaVuSans-20" x="952.132812"/>
      <use xlink:href="#DejaVuSans-33" x="983.919922"/>
      <use xlink:href="#DejaVuSans-33" x="1047.542969"/>
     </g>
    </g>
    <g id="line2d_17">
     <path d="M 101.877906 38.921158 
L 111.877906 38.921158 
L 121.877906 38.921158 
" style="fill: none; stroke: #e41a1c; stroke-width: 1.5; stroke-linecap: square"/>
    </g>
    <g id="text_17">
     <!-- Target (n=302) -->
     <g transform="translate(129.877906 42.421158)scale(0.1 -0.1)">
      <defs>
       <path id="DejaVuSans-54" d="M -19 4666 
L 3928 4666 
L 3928 4134 
L 2272 4134 
L 2272 0 
L 1638 0 
L 1638 4134 
L -19 4134 
L -19 4666 
z
" transform="scale(0.015625)"/>
       <path id="DejaVuSans-74" d="M 1172 4494 
L 1172 3500 
L 2356 3500 
L 2356 3053 
L 1172 3053 
L 1172 1153 
Q 1172 725 1289 603 
Q 1406 481 1766 481 
L 2356 481 
L 2356 0 
L 1766 0 
Q 1100 0 847 248 
Q 594 497 594 1153 
L 594 3053 
L 172 3053 
L 172 3500 
L 594 3500 
L 594 4494 
L 1172 4494 
z
" transform="scale(0.015625)"/>
       <path id="DejaVuSans-28" d="M 1984 4856 
Q 1566 4138 1362 3434 
Q 1159 2731 1159 2009 
Q 1159 1288 1364 580 
Q 1569 -128 1984 -844 
L 1484 -844 
Q 1016 -109 783 600 
Q 550 1309 550 2009 
Q 550 2706 781 3412 
Q 1013 4119 1484 4856 
L 1984 4856 
z
" transform="scale(0.015625)"/>
       <path id="DejaVuSans-3d" d="M 678 2906 
L 4684 2906 
L 4684 2381 
L 678 2381 
L 678 2906 
z
M 678 1631 
L 4684 1631 
L 4684 1100 
L 678 1100 
L 678 1631 
z
" transform="scale(0.015625)"/>
       <path id="DejaVuSans-29" d="M 513 4856 
L 1013 4856 
Q 1481 4119 1714 3412 
Q 1947 2706 1947 2009 
Q 1947 1309 1714 600 
Q 1481 -109 1013 -844 
L 513 -844 
Q 928 -128 1133 580 
Q 1338 1288 1338 2009 
Q 1338 2731 1133 3434 
Q 928 4138 513 4856 
z
" transform="scale(0.015625)"/>
      </defs>
      <use xlink:href="#DejaVuSans-54"/>
      <use xlink:href="#DejaVuSans-61" x="44.583984"/>
      <use xlink:href="#DejaVuSans-72" x="105.863281"/>
      <use xlink:href="#DejaVuSans-67" x="145.226562"/>
      <use xlink:href="#DejaVuSans-65" x="208.703125"/>
      <use xlink:href="#DejaVuSans-74" x="270.226562"/>
      <use xlink:href="#DejaVuSans-20" x="309.435547"/>
      <use xlink:href="#DejaVuSans-28" x="341.222656"/>
      <use xlink:href="#DejaVuSans-6e" x="380.236328"/>
      <use xlink:href="#DejaVuSans-3d" x="443.615234"/>
      <use xlink:href="#DejaVuSans-33" x="527.404297"/>
      <use xlink:href="#DejaVuSans-30" x="591.027344"/>
      <use xlink:href="#DejaVuSans-32" x="654.650391"/>
      <use xlink:href="#DejaVuSans-29" x="718.273438"/>
     </g>
    </g>
    <g id="line2d_18">
     <path d="M 225.607593 38.921158 
L 235.607593 38.921158 
L 245.607593 38.921158 
" style="fill: none; stroke: #377eb8; stroke-width: 1.5; stroke-linecap: square"/>
    </g>
    <g id="text_18">
     <!-- Non-Target (n=1477) -->
     <g transform="translate(253.607593 42.421158)scale(0.1 -0.1)">
      <defs>
       <path id="DejaVuSans-4e" d="M 628 4666 
L 1478 4666 
L 3547 763 
L 3547 4666 
L 4159 4666 
L 4159 0 
L 3309 0 
L 1241 3903 
L 1241 0 
L 628 0 
L 628 4666 
z
" transform="scale(0.015625)"/>
       <path id="DejaVuSans-2d" d="M 313 2009 
L 1997 2009 
L 1997 1497 
L 313 1497 
L 313 2009 
z
" transform="scale(0.015625)"/>
       <path id="DejaVuSans-37" d="M 525 4666 
L 3525 4666 
L 3525 4397 
L 1831 0 
L 1172 0 
L 2766 4134 
L 525 4134 
L 525 4666 
z
" transform="scale(0.015625)"/>
      </defs>
      <use xlink:href="#DejaVuSans-4e"/>
      <use xlink:href="#DejaVuSans-6f" x="74.804688"/>
      <use xlink:href="#DejaVuSans-6e" x="135.986328"/>
      <use xlink:href="#DejaVuSans-2d" x="199.365234"/>
      <use xlink:href="#DejaVuSans-54" x="226.324219"/>
      <use xlink:href="#DejaVuSans-61" x="270.908203"/>
      <use xlink:href="#DejaVuSans-72" x="332.1875"/>
      <use xlink:href="#DejaVuSans-67" x="371.550781"/>
      <use xlink:href="#DejaVuSans-65" x="435.027344"/>
      <use xlink:href="#DejaVuSans-74" x="496.550781"/>
      <use xlink:href="#DejaVuSans-20" x="535.759766"/>
      <use xlink:href="#DejaVuSans-28" x="567.546875"/>
      <use xlink:href="#DejaVuSans-6e" x="606.560547"/>
      <use xlink:href="#DejaVuSans-3d" x="669.939453"/>
      <use xlink:href="#DejaVuSans-31" x="753.728516"/>
      <use xlink:href="#DejaVuSans-34" x="817.351562"/>
      <use xlink:href="#DejaVuSans-37" x="880.974609"/>
      <use xlink:href="#DejaVuSans-37" x="944.597656"/>
      <use xlink:href="#DejaVuSans-29" x="1008.220703"/>
     </g>
    </g>
   </g>
  </g>
 </g>
 <defs>
  <clipPath id="p12156b4ebd">
   <rect x="46.64" y="71.732" width="366.930499" height="246.308"/>
  </clipPath>
 </defs>
</svg>
