<?xml version="1.0" encoding="utf-8" standalone="no"?>
<!DOCTYPE svg PUBLIC "-//W3C//DTD SVG 1.1//EN"
  "http://www.w3.org/Graphics/SVG/1.1/DTD/svg11.dtd">
<svg xmlns:xlink="http://www.w3.org/1999/xlink" width="432pt" height="360pt" viewBox="0 0 432 360" xmlns="http://www.w3.org/2000/svg" version="1.1">
 <metadata>
  <rdf:RDF xmlns:dc="http://purl.org/dc/elements/1.1/" xmlns:cc="http://creativecommons.org/ns#" xmlns:rdf="http://www.w3.org/1999/02/22-rdf-syntax-ns#">
   <cc:Work>
    <dc:type rdf:resource="http://purl.org/dc/dcmitype/StillImage"/>
    <dc:date>2022-05-19T11:52:08.164767</dc:date>
    <dc:format>image/svg+xml</dc:format>
    <dc:creator>
     <cc:Agent>
      <dc:title>Matplotlib v3.5.1, https://matplotlib.org/</dc:title>
     </cc:Agent>
    </dc:creator>
   </cc:Work>
  </rdf:RDF>
 </metadata>
 <defs>
  <style type="text/css">*{stroke-linejoin: round; stroke-linecap: butt}</style>
 </defs>
 <g id="figure_1">
  <g id="patch_1">
   <path d="M 0 360 
L 432 360 
L 432 0 
L 0 0 
L 0 360 
z
" style="fill: none"/>
  </g>
  <g id="axes_1">
   <g id="patch_2">
    <path d="M 46.64 318.04 
L 413.570499 318.04 
L 413.570499 71.732 
L 46.64 71.732 
L 46.64 318.04 
z
" style="fill: none"/>
   </g>
   <g id="PolyCollection_1">
    <defs>
     <path id="mc640f46b3f" d="M 46.64 -111.523356 
L 46.64 -70.394234 
L 47.435945 -74.384636 
L 48.231889 -77.553236 
L 49.027834 -78.76108 
L 49.823779 -77.413151 
L 50.619723 -74.095762 
L 51.415668 -70.179068 
L 52.211613 -66.960535 
L 53.007557 -65.208004 
L 53.803502 -65.259873 
L 54.599447 -67.323917 
L 55.395392 -71.382625 
L 56.191336 -76.792518 
L 56.987281 -82.213884 
L 57.783226 -86.055605 
L 58.57917 -87.205525 
L 59.375115 -85.634791 
L 60.17106 -82.4068 
L 60.967004 -79.129741 
L 61.762949 -77.336246 
L 62.558894 -78.028532 
L 63.354838 -81.402402 
L 64.150783 -86.807361 
L 64.946728 -93.020133 
L 65.742672 -98.731308 
L 66.538617 -102.937147 
L 67.334562 -105.055195 
L 68.130506 -104.865058 
L 68.926451 -102.438186 
L 69.722396 -98.188344 
L 70.51834 -93.043083 
L 71.314285 -88.365555 
L 72.11023 -85.393748 
L 72.906175 -84.67812 
L 73.702119 -85.948989 
L 74.498064 -88.37479 
L 75.294009 -90.96459 
L 76.089953 -92.866972 
L 76.885898 -93.52277 
L 77.681843 -92.787267 
L 78.477787 -91.013904 
L 79.273732 -88.961184 
L 80.069677 -87.482315 
L 80.865621 -87.134272 
L 81.661566 -87.915322 
L 82.457511 -89.301125 
L 83.253455 -90.572779 
L 84.0494 -91.144378 
L 84.845345 -90.652007 
L 85.641289 -88.949021 
L 86.437234 -86.158775 
L 87.233179 -82.7199 
L 88.029124 -79.325495 
L 88.825068 -76.728994 
L 89.621013 -75.46935 
L 90.416958 -75.641612 
L 91.212902 -76.849046 
L 92.008847 -78.376673 
L 92.804792 -79.490057 
L 93.600736 -79.702761 
L 94.396681 -78.908392 
L 95.192626 -77.365275 
L 95.98857 -75.573892 
L 96.784515 -74.093335 
L 97.58046 -73.342849 
L 98.376404 -73.454005 
L 99.172349 -74.251213 
L 99.968294 -75.388915 
L 100.764238 -76.561395 
L 101.560183 -77.629082 
L 102.356128 -78.581555 
L 103.152073 -79.403852 
L 103.948017 -79.974384 
L 104.743962 -80.093601 
L 105.539907 -79.660073 
L 106.335851 -78.863621 
L 107.131796 -78.180371 
L 107.927741 -78.125299 
L 108.723685 -78.952988 
L 109.51963 -80.517128 
L 110.315575 -82.377611 
L 111.111519 -84.065524 
L 111.907464 -85.274471 
L 112.703409 -85.86942 
L 113.499353 -85.835249 
L 114.295298 -85.26879 
L 115.091243 -84.379389 
L 115.887187 -83.442459 
L 116.683132 -82.723714 
L 117.479077 -82.420293 
L 118.275021 -82.599422 
L 119.070966 -83.107081 
L 119.866911 -83.530083 
L 120.662856 -83.314905 
L 121.4588 -82.031127 
L 122.254745 -79.656968 
L 123.05069 -76.703735 
L 123.846634 -74.041129 
L 124.642579 -72.496231 
L 125.438524 -72.484609 
L 126.234468 -73.881334 
L 127.030413 -76.148167 
L 127.826358 -78.58469 
L 128.622302 -80.548876 
L 129.418247 -81.574427 
L 130.214192 -81.405356 
L 131.010136 -80.006667 
L 131.806081 -77.579948 
L 132.602026 -74.538657 
L 133.39797 -71.382586 
L 134.193915 -68.528438 
L 134.98986 -66.25783 
L 135.785805 -64.844177 
L 136.581749 -64.680973 
L 137.377694 -66.170825 
L 138.173639 -69.410829 
L 138.969583 -73.966202 
L 139.765528 -78.937153 
L 140.561473 -83.250928 
L 141.357417 -85.947221 
L 142.153362 -86.333007 
L 142.949307 -84.086428 
L 143.745251 -79.397631 
L 144.541196 -73.075328 
L 145.337141 -66.441056 
L 146.133085 -60.943455 
L 146.92903 -57.672516 
L 147.724975 -57.042112 
L 148.520919 -58.76897 
L 149.316864 -62.098875 
L 150.112809 -66.136008 
L 150.908753 -70.125279 
L 151.704698 -73.594932 
L 152.500643 -76.349193 
L 153.296588 -78.373837 
L 154.092532 -79.754415 
L 154.888477 -80.669349 
L 155.684422 -81.399686 
L 156.480366 -82.232023 
L 157.276311 -83.273763 
L 158.072256 -84.356857 
L 158.8682 -85.129169 
L 159.664145 -85.247798 
L 160.46009 -84.514816 
L 161.256034 -82.884178 
L 162.051979 -80.411441 
L 162.847924 -77.262168 
L 163.643868 -73.792625 
L 164.439813 -70.571797 
L 165.235758 -68.227856 
L 166.031702 -67.196419 
L 166.827647 -67.555949 
L 167.623592 -69.041278 
L 168.419537 -71.180355 
L 169.215481 -73.438846 
L 170.011426 -75.316487 
L 170.807371 -76.43736 
L 171.603315 -76.677405 
L 172.39926 -76.265994 
L 173.195205 -75.739234 
L 173.991149 -75.723891 
L 174.787094 -76.672251 
L 175.583039 -78.679985 
L 176.378983 -81.432026 
L 177.174928 -84.259053 
L 177.970873 -86.287646 
L 178.766817 -86.673263 
L 179.562762 -84.866781 
L 180.358707 -80.820947 
L 181.154651 -75.056716 
L 181.950596 -68.56938 
L 182.746541 -62.601244 
L 183.542485 -58.325119 
L 184.33843 -56.507993 
L 185.134375 -57.266871 
L 185.93032 -60.028501 
L 186.726264 -63.719513 
L 187.522209 -67.107512 
L 188.318154 -69.173512 
L 189.114098 -69.415059 
L 189.910043 -67.996995 
L 190.705988 -65.678699 
L 191.501932 -63.510038 
L 192.297877 -62.416176 
L 193.093822 -62.875374 
L 193.889766 -64.822692 
L 194.685711 -67.755062 
L 195.481656 -70.943929 
L 196.2776 -73.702206 
L 197.073545 -75.66487 
L 197.86949 -76.975717 
L 198.665434 -78.23238 
L 199.461379 -80.15569 
L 200.257324 -83.171271 
L 201.053269 -87.174579 
L 201.849213 -91.573756 
L 202.645158 -95.48622 
L 203.441103 -97.966321 
L 204.237047 -98.260516 
L 205.032992 -96.080826 
L 205.828937 -91.791423 
L 206.624881 -86.377996 
L 207.420826 -81.166128 
L 208.216771 -77.400128 
L 209.012715 -75.861414 
L 209.80866 -76.660872 
L 210.604605 -79.262817 
L 211.400549 -82.731223 
L 212.196494 -86.103129 
L 212.992439 -88.714296 
L 213.788383 -90.328455 
L 214.584328 -91.072892 
L 215.380273 -91.30526 
L 216.176218 -91.490779 
L 216.972162 -92.055262 
L 217.768107 -93.203879 
L 218.564052 -94.822661 
L 219.359996 -96.586789 
L 220.155941 -98.235232 
L 220.951886 -99.785453 
L 221.74783 -101.476847 
L 222.543775 -103.499859 
L 223.33972 -105.768026 
L 224.135664 -107.896691 
L 224.931609 -109.355363 
L 225.727554 -109.675316 
L 226.523498 -108.622665 
L 227.319443 -106.295037 
L 228.115388 -103.127099 
L 228.911332 -99.818137 
L 229.707277 -97.207843 
L 230.503222 -96.095233 
L 231.299166 -96.991872 
L 232.095111 -99.892433 
L 232.891056 -104.220099 
L 233.687001 -109.039878 
L 234.482945 -113.462791 
L 235.27889 -116.988299 
L 236.074835 -119.533952 
L 236.870779 -121.178824 
L 237.666724 -121.89513 
L 238.462669 -121.483241 
L 239.258613 -119.719928 
L 240.054558 -116.591592 
L 240.850503 -112.458094 
L 241.646447 -108.051496 
L 242.442392 -104.307344 
L 243.238337 -102.10557 
L 244.034281 -102.028915 
L 244.830226 -104.207225 
L 245.626171 -108.250829 
L 246.422115 -113.283714 
L 247.21806 -118.140259 
L 248.014005 -121.737123 
L 248.80995 -123.470613 
L 249.605894 -123.405562 
L 250.401839 -122.149016 
L 251.197784 -120.532847 
L 251.993728 -119.320595 
L 252.789673 -119.033158 
L 253.585618 -119.846661 
L 254.381562 -121.551603 
L 255.177507 -123.664184 
L 255.973452 -125.710822 
L 256.769396 -127.511053 
L 257.565341 -129.222113 
L 258.361286 -131.110141 
L 259.15723 -133.267565 
L 259.953175 -135.51176 
L 260.74912 -137.499132 
L 261.545064 -138.917044 
L 262.341009 -139.62632 
L 263.136954 -139.730703 
L 263.932898 -139.585436 
L 264.728843 -139.72713 
L 265.524788 -140.705278 
L 266.320733 -142.852857 
L 267.116677 -146.102275 
L 267.912622 -149.963428 
L 268.708567 -153.709295 
L 269.504511 -156.70259 
L 270.300456 -158.701798 
L 271.096401 -159.963238 
L 271.892345 -161.055515 
L 272.68829 -162.484691 
L 273.484235 -164.354199 
L 274.280179 -166.257054 
L 275.076124 -167.452112 
L 275.872069 -167.218537 
L 276.668013 -165.210585 
L 277.463958 -161.662265 
L 278.259903 -157.361665 
L 279.055847 -153.394797 
L 279.851792 -150.748994 
L 280.647737 -149.934722 
L 281.443682 -150.784875 
L 282.239626 -152.522246 
L 283.035571 -154.088813 
L 283.831516 -154.626987 
L 284.62746 -153.906678 
L 285.423405 -152.466217 
L 286.21935 -151.357211 
L 287.015294 -151.611761 
L 287.811239 -153.71634 
L 288.607184 -157.354717 
L 289.403128 -161.506088 
L 290.199073 -164.810998 
L 290.995018 -166.064898 
L 291.790962 -164.703497 
L 292.586907 -161.106846 
L 293.382852 -156.536971 
L 294.178796 -152.657617 
L 294.974741 -150.829825 
L 295.770686 -151.541139 
L 296.56663 -154.260812 
L 297.362575 -157.758814 
L 298.15852 -160.676658 
L 298.954465 -162.07508 
L 299.750409 -161.77413 
L 300.546354 -160.389978 
L 301.342299 -159.04519 
L 302.138243 -158.846181 
L 302.934188 -160.347951 
L 303.730133 -163.261409 
L 304.526077 -166.545215 
L 305.322022 -168.825482 
L 306.117967 -168.947527 
L 306.913911 -166.446455 
L 307.709856 -161.769126 
L 308.505801 -156.155128 
L 309.301745 -151.202577 
L 310.09769 -148.278867 
L 310.893635 -148.018018 
L 311.689579 -150.11969 
L 312.485524 -153.529767 
L 313.281469 -156.905601 
L 314.077414 -159.151159 
L 314.873358 -159.803073 
L 315.669303 -159.132997 
L 316.465248 -157.950628 
L 317.261192 -157.202701 
L 318.057137 -157.533709 
L 318.853082 -158.984609 
L 319.649026 -160.954704 
L 320.444971 -162.450815 
L 321.240916 -162.523348 
L 322.03686 -160.695612 
L 322.832805 -157.191591 
L 323.62875 -152.864875 
L 324.424694 -148.867995 
L 325.220639 -146.207891 
L 326.016584 -145.371137 
L 326.812528 -146.165383 
L 327.608473 -147.828619 
L 328.404418 -149.345933 
L 329.200363 -149.836923 
L 329.996307 -148.868675 
L 330.792252 -146.597975 
L 331.588197 -143.710883 
L 332.384141 -141.178504 
L 333.180086 -139.897616 
L 333.976031 -140.349779 
L 334.771975 -142.44336 
L 335.56792 -145.631093 
L 336.363865 -149.240644 
L 337.159809 -152.820244 
L 337.955754 -156.292064 
L 338.751699 -159.844326 
L 339.547643 -163.668451 
L 340.343588 -167.719329 
L 341.139533 -171.61979 
L 341.935477 -174.73134 
L 342.731422 -176.356725 
L 343.527367 -176.018528 
L 344.323311 -173.718933 
L 345.119256 -170.049641 
L 345.915201 -166.060858 
L 346.711146 -162.918693 
L 347.50709 -161.493375 
L 348.303035 -162.041964 
L 349.09898 -164.088922 
L 349.894924 -166.544655 
L 350.690869 -168.058 
L 351.486814 -167.51847 
L 352.282758 -164.513586 
L 353.078703 -159.514995 
L 353.874648 -153.691325 
L 354.670592 -148.456019 
L 355.466537 -144.990806 
L 356.262482 -143.93552 
L 357.058426 -145.271363 
L 357.854371 -148.3493 
L 358.650316 -152.084162 
L 359.44626 -155.3454 
L 360.242205 -157.427277 
L 361.03815 -158.336118 
L 361.834095 -158.68601 
L 362.630039 -159.256161 
L 363.425984 -160.5029 
L 364.221929 -162.326141 
L 365.017873 -164.187827 
L 365.813818 -165.434933 
L 366.609763 -165.59403 
L 367.405707 -164.532375 
L 368.201652 -162.507121 
L 368.997597 -160.111054 
L 369.793541 -158.096993 
L 370.589486 -157.120042 
L 371.385431 -157.506731 
L 372.181375 -159.150379 
L 372.97732 -161.55495 
L 373.773265 -163.989862 
L 374.569209 -165.712541 
L 375.365154 -166.214186 
L 376.161099 -165.406592 
L 376.957043 -163.643368 
L 377.752988 -161.540851 
L 378.548933 -159.703743 
L 379.344878 -158.523158 
L 380.140822 -158.135607 
L 380.936767 -158.50051 
L 381.732712 -159.489548 
L 382.528656 -160.919123 
L 383.324601 -162.537074 
L 384.120546 -164.016001 
L 384.91649 -164.989439 
L 385.712435 -165.13023 
L 386.50838 -164.246895 
L 387.304324 -162.365967 
L 388.100269 -159.76559 
L 388.896214 -156.932584 
L 389.692158 -154.442263 
L 390.488103 -152.798027 
L 391.284048 -152.287985 
L 392.079992 -152.902651 
L 392.875937 -154.329611 
L 393.671882 -156.030076 
L 394.467827 -157.401268 
L 395.263771 -157.996757 
L 396.059716 -157.718943 
L 396.855661 -156.876673 
L 397.651605 -156.06022 
L 398.44755 -155.894341 
L 399.243495 -156.804922 
L 400.039439 -158.908739 
L 400.835384 -162.024477 
L 401.631329 -165.725293 
L 402.427273 -169.402706 
L 403.223218 -172.393594 
L 404.019163 -174.195275 
L 404.815107 -174.682375 
L 405.611052 -174.172552 
L 406.406997 -173.265182 
L 407.202941 -172.556472 
L 407.998886 -172.431476 
L 408.794831 -173.034438 
L 409.590775 -174.332297 
L 410.38672 -176.132569 
L 411.182665 -178.053692 
L 411.97861 -179.568934 
L 412.774554 -180.192177 
L 413.570499 -179.716523 
L 413.570499 -276.890751 
L 413.570499 -276.890751 
L 412.774554 -277.072182 
L 411.97861 -276.650206 
L 411.182665 -275.474417 
L 410.38672 -273.600377 
L 409.590775 -271.391637 
L 408.794831 -269.440555 
L 407.998886 -268.296944 
L 407.202941 -268.170684 
L 406.406997 -268.821316 
L 405.611052 -269.689882 
L 404.815107 -270.133076 
L 404.019163 -269.606431 
L 403.223218 -267.777489 
L 402.427273 -264.632908 
L 401.631329 -260.576201 
L 400.835384 -256.406182 
L 400.039439 -253.084846 
L 399.243495 -251.352768 
L 398.44755 -251.397958 
L 397.651605 -252.78151 
L 396.855661 -254.647895 
L 396.059716 -256.07445 
L 395.263771 -256.391571 
L 394.467827 -255.37989 
L 393.671882 -253.317777 
L 392.875937 -250.881655 
L 392.079992 -248.918469 
L 391.284048 -248.145423 
L 390.488103 -248.883307 
L 389.692158 -250.94544 
L 388.896214 -253.737255 
L 388.100269 -256.506522 
L 387.304324 -258.614514 
L 386.50838 -259.714758 
L 385.712435 -259.790738 
L 384.91649 -259.069965 
L 384.120546 -257.877451 
L 383.324601 -256.507696 
L 382.528656 -255.17251 
L 381.732712 -254.026909 
L 380.936767 -253.219421 
L 380.140822 -252.900252 
L 379.344878 -253.165773 
L 378.548933 -253.982915 
L 377.752988 -255.158668 
L 376.957043 -256.377592 
L 376.161099 -257.276469 
L 375.365154 -257.520305 
L 374.569209 -256.884978 
L 373.773265 -255.367989 
L 372.97732 -253.286715 
L 372.181375 -251.257063 
L 371.385431 -249.992389 
L 370.589486 -249.998172 
L 369.793541 -251.327575 
L 368.997597 -253.52956 
L 368.201652 -255.812266 
L 367.405707 -257.3534 
L 366.609763 -257.643473 
L 365.813818 -256.718834 
L 365.017873 -255.144086 
L 364.221929 -253.702898 
L 363.425984 -252.954237 
L 362.630039 -252.938615 
L 361.834095 -253.197973 
L 361.03815 -253.030557 
L 360.242205 -251.798266 
L 359.44626 -249.16661 
L 358.650316 -245.262651 
L 357.854371 -240.762409 
L 357.058426 -236.836621 
L 356.262482 -234.84217 
L 355.466537 -235.783506 
L 354.670592 -239.793891 
L 353.874648 -245.968302 
L 353.078703 -252.677103 
L 352.282758 -258.176191 
L 351.486814 -261.207349 
L 350.690869 -261.376445 
L 349.894924 -259.234348 
L 349.09898 -256.066753 
L 348.303035 -253.445064 
L 347.50709 -252.659896 
L 346.711146 -254.243682 
L 345.915201 -257.795864 
L 345.119256 -262.188916 
L 344.323311 -266.037138 
L 343.527367 -268.204788 
L 342.731422 -268.159667 
L 341.935477 -266.071279 
L 341.139533 -262.64388 
L 340.343588 -258.759421 
L 339.547643 -255.089448 
L 338.751699 -251.868004 
L 337.955754 -248.931091 
L 337.159809 -245.960192 
L 336.363865 -242.755628 
L 335.56792 -239.390848 
L 334.771975 -236.208051 
L 333.976031 -233.697175 
L 333.180086 -232.308761 
L 332.384141 -232.244044 
L 331.588197 -233.29354 
L 330.792252 -234.823917 
L 329.996307 -235.979375 
L 329.200363 -236.050104 
L 328.404418 -234.832828 
L 327.608473 -232.779928 
L 326.812528 -230.840742 
L 326.016584 -230.06138 
L 325.220639 -231.125221 
L 324.424694 -234.037496 
L 323.62875 -238.090913 
L 322.832805 -242.130421 
L 322.03686 -245.009479 
L 321.240916 -246.047462 
L 320.444971 -245.296007 
L 319.649026 -243.503745 
L 318.853082 -241.794476 
L 318.057137 -241.186161 
L 317.261192 -242.140385 
L 316.465248 -244.331793 
L 315.669303 -246.755586 
L 314.873358 -248.153567 
L 314.077414 -247.58831 
L 313.281469 -244.911686 
L 312.485524 -240.907256 
L 311.689579 -237.025608 
L 310.893635 -234.816326 
L 310.09769 -235.298637 
L 309.301745 -238.532236 
L 308.505801 -243.556087 
L 307.709856 -248.720468 
L 306.913911 -252.297283 
L 306.117967 -253.14465 
L 305.322022 -251.160377 
L 304.526077 -247.320395 
L 303.730133 -243.261645 
L 302.934188 -240.580367 
L 302.138243 -240.165578 
L 301.342299 -241.862514 
L 300.546354 -244.583923 
L 299.750409 -246.798639 
L 298.954465 -247.202591 
L 298.15852 -245.309224 
L 297.362575 -241.700273 
L 296.56663 -237.794961 
L 295.770686 -235.222624 
L 294.974741 -235.109688 
L 294.178796 -237.629644 
L 293.382852 -241.973536 
L 292.586907 -246.677523 
L 291.790962 -250.148616 
L 290.995018 -251.223702 
L 290.199073 -249.597422 
L 289.403128 -245.948155 
L 288.607184 -241.654703 
L 287.811239 -238.186754 
L 287.015294 -236.468055 
L 286.21935 -236.548859 
L 285.423405 -237.71883 
L 284.62746 -238.931372 
L 283.831516 -239.299255 
L 283.035571 -238.464604 
L 282.239626 -236.737659 
L 281.443682 -234.968869 
L 280.647737 -234.186846 
L 279.851792 -235.13445 
L 279.055847 -237.913784 
L 278.259903 -241.918146 
L 277.463958 -246.083267 
L 276.668013 -249.328964 
L 275.872069 -250.979914 
L 275.076124 -250.975071 
L 274.280179 -249.780696 
L 273.484235 -248.073924 
L 272.68829 -246.383947 
L 271.892345 -244.878426 
L 271.096401 -243.367665 
L 270.300456 -241.472841 
L 269.504511 -238.850882 
L 268.708567 -235.387215 
L 267.912622 -231.30374 
L 267.116677 -227.141453 
L 266.320733 -223.594576 
L 265.524788 -221.238516 
L 264.728843 -220.2688 
L 263.932898 -220.384113 
L 263.136954 -220.889896 
L 262.341009 -220.994448 
L 261.545064 -220.157338 
L 260.74912 -218.298367 
L 259.953175 -215.742736 
L 259.15723 -212.948791 
L 258.361286 -210.224664 
L 257.565341 -207.632078 
L 256.769396 -205.088386 
L 255.973452 -202.518586 
L 255.177507 -199.939071 
L 254.381562 -197.492141 
L 253.585618 -195.48329 
L 252.789673 -194.354586 
L 251.993728 -194.483844 
L 251.197784 -195.865946 
L 250.401839 -197.92483 
L 249.605894 -199.659298 
L 248.80995 -200.049829 
L 248.014005 -198.464393 
L 247.21806 -194.877103 
L 246.422115 -189.886341 
L 245.626171 -184.580346 
L 244.830226 -180.256506 
L 244.034281 -178.014654 
L 243.238337 -178.362449 
L 242.442392 -181.047768 
L 241.646447 -185.222831 
L 240.850503 -189.822576 
L 240.054558 -193.928644 
L 239.258613 -196.957428 
L 238.462669 -198.647992 
L 237.666724 -198.937447 
L 236.870779 -197.851823 
L 236.074835 -195.491338 
L 235.27889 -192.0852 
L 234.482945 -188.014103 
L 233.687001 -183.728488 
L 232.891056 -179.633975 
L 232.095111 -176.089246 
L 231.299166 -173.499576 
L 230.503222 -172.325188 
L 229.707277 -172.907532 
L 228.911332 -175.209748 
L 228.115388 -178.67453 
L 227.319443 -182.347048 
L 226.523498 -185.216448 
L 225.727554 -186.574681 
L 224.931609 -186.212671 
L 224.135664 -184.393301 
L 223.33972 -181.650916 
L 222.543775 -178.543578 
L 221.74783 -175.495625 
L 220.951886 -172.777977 
L 220.155941 -170.54564 
L 219.359996 -168.829602 
L 218.564052 -167.509243 
L 217.768107 -166.385392 
L 216.972162 -165.342322 
L 216.176218 -164.421693 
L 215.380273 -163.701403 
L 214.584328 -163.083376 
L 213.788383 -162.21332 
L 212.992439 -160.649814 
L 212.196494 -158.159999 
L 211.400549 -154.920625 
L 210.604605 -151.524723 
L 209.80866 -148.83401 
L 209.012715 -147.737389 
L 208.216771 -148.854646 
L 207.420826 -152.26124 
L 206.624881 -157.356646 
L 205.828937 -162.960715 
L 205.032992 -167.619495 
L 204.237047 -170.028519 
L 203.441103 -169.455334 
L 202.645158 -166.01694 
L 201.849213 -160.665993 
L 201.053269 -154.831426 
L 200.257324 -149.843419 
L 199.461379 -146.439414 
L 198.665434 -144.609533 
L 197.86949 -143.775779 
L 197.073545 -143.108706 
L 196.2776 -141.8459 
L 195.481656 -139.586411 
L 194.685711 -136.499815 
L 193.889766 -133.311919 
L 193.093822 -131.001081 
L 192.297877 -130.332831 
L 191.501932 -131.488298 
L 190.705988 -133.972599 
L 189.910043 -136.797254 
L 189.114098 -138.816571 
L 188.318154 -139.111728 
L 187.522209 -137.33338 
L 186.726264 -133.882944 
L 185.93032 -129.826383 
L 185.134375 -126.548494 
L 184.33843 -125.289392 
L 183.542485 -126.7471 
L 182.746541 -130.868231 
L 181.950596 -136.865335 
L 181.154651 -143.449333 
L 180.358707 -149.216718 
L 179.562762 -153.063155 
L 178.766817 -154.468616 
L 177.970873 -153.563474 
L 177.174928 -150.992007 
L 176.378983 -147.655464 
L 175.583039 -144.423249 
L 174.787094 -141.893323 
L 173.991149 -140.278094 
L 173.195205 -139.449809 
L 172.39926 -139.093976 
L 171.603315 -138.862637 
L 170.807371 -138.457965 
L 170.011426 -137.676224 
L 169.215481 -136.472005 
L 168.419537 -135.012359 
L 167.623592 -133.632535 
L 166.827647 -132.691246 
L 166.031702 -132.436483 
L 165.235758 -132.978398 
L 164.439813 -134.343408 
L 163.643868 -136.50069 
L 162.847924 -139.29443 
L 162.051979 -142.349244 
L 161.256034 -145.103736 
L 160.46009 -147.014636 
L 159.664145 -147.778055 
L 158.8682 -147.403941 
L 158.072256 -146.135783 
L 157.276311 -144.328828 
L 156.480366 -142.3801 
L 155.684422 -140.686604 
L 154.888477 -139.539319 
L 154.092532 -138.93707 
L 153.296588 -138.468501 
L 152.500643 -137.444501 
L 151.704698 -135.249648 
L 150.908753 -131.686889 
L 150.112809 -127.131741 
L 149.316864 -122.451352 
L 148.520919 -118.741925 
L 147.724975 -116.991871 
L 146.92903 -117.793306 
L 146.133085 -121.190693 
L 145.337141 -126.68618 
L 144.541196 -133.353651 
L 143.745251 -139.993044 
L 142.949307 -145.318173 
L 142.153362 -148.23984 
L 141.357417 -148.217887 
L 140.561473 -145.480677 
L 139.765528 -140.919346 
L 138.969583 -135.691795 
L 138.173639 -130.806411 
L 137.377694 -126.94976 
L 136.581749 -124.55201 
L 135.785805 -123.872829 
L 134.98986 -124.960901 
L 134.193915 -127.567742 
L 133.39797 -131.200443 
L 132.602026 -135.307717 
L 131.806081 -139.394837 
L 131.010136 -142.974139 
L 130.214192 -145.49048 
L 129.418247 -146.403193 
L 128.622302 -145.422354 
L 127.826358 -142.721525 
L 127.030413 -138.960603 
L 126.234468 -135.086273 
L 125.438524 -132.010383 
L 124.642579 -130.327711 
L 123.846634 -130.189396 
L 123.05069 -131.336276 
L 122.254745 -133.215322 
L 121.4588 -135.114447 
L 120.662856 -136.334723 
L 119.866911 -136.437958 
L 119.070966 -135.478465 
L 118.275021 -134.041376 
L 117.479077 -133.009478 
L 116.683132 -133.142828 
L 115.887187 -134.676898 
L 115.091243 -137.179471 
L 114.295298 -139.753843 
L 113.499353 -141.438506 
L 112.703409 -141.59225 
L 111.907464 -140.132611 
L 111.111519 -137.552242 
L 110.315575 -134.679584 
L 109.51963 -132.264761 
L 108.723685 -130.646859 
L 107.927741 -129.746898 
L 107.131796 -129.322179 
L 106.335851 -129.20998 
L 105.539907 -129.380154 
L 104.743962 -129.797736 
L 103.948017 -130.261611 
L 103.152073 -130.418422 
L 102.356128 -129.950689 
L 101.560183 -128.767155 
L 100.764238 -127.073472 
L 99.968294 -125.303348 
L 99.172349 -123.9508 
L 98.376404 -123.393492 
L 97.58046 -123.790558 
L 96.784515 -125.052836 
L 95.98857 -126.840645 
L 95.192626 -128.598128 
L 94.396681 -129.67564 
L 93.600736 -129.546791 
L 92.804792 -128.03816 
L 92.008847 -125.446879 
L 91.212902 -122.470743 
L 90.416958 -119.98057 
L 89.621013 -118.739057 
L 88.825068 -119.16321 
L 88.029124 -121.180744 
L 87.233179 -124.213304 
L 86.437234 -127.32348 
L 85.641289 -129.525203 
L 84.845345 -130.166229 
L 84.0494 -129.222907 
L 83.253455 -127.354348 
L 82.457511 -125.622986 
L 81.661566 -124.946818 
L 80.865621 -125.637068 
L 80.069677 -127.364795 
L 79.273732 -129.439362 
L 78.477787 -131.108348 
L 77.681843 -131.764688 
L 76.885898 -131.064724 
L 76.089953 -129.002624 
L 75.294009 -125.966377 
L 74.498064 -122.701058 
L 73.702119 -120.085354 
L 72.906175 -118.814031 
L 72.11023 -119.226324 
L 71.314285 -121.35431 
L 70.51834 -125.029642 
L 69.722396 -129.845585 
L 68.926451 -134.930117 
L 68.130506 -138.902263 
L 67.334562 -140.381226 
L 66.538617 -138.667266 
L 65.742672 -134.071566 
L 64.946728 -127.785317 
L 64.150783 -121.39847 
L 63.354838 -116.325956 
L 62.558894 -113.435258 
L 61.762949 -112.925362 
L 60.967004 -114.345463 
L 60.17106 -116.751291 
L 59.375115 -119.033652 
L 58.57917 -120.29359 
L 57.783226 -120.011451 
L 56.987281 -117.990579 
L 56.191336 -114.399266 
L 55.395392 -109.944386 
L 54.599447 -105.857698 
L 53.803502 -103.534952 
L 53.007557 -103.860892 
L 52.211613 -106.586085 
L 51.415668 -110.434635 
L 50.619723 -113.933569 
L 49.823779 -116.184297 
L 49.027834 -117.009826 
L 48.231889 -116.472512 
L 47.435945 -114.544493 
L 46.64 -111.523356 
z
" style="stroke: #e41a1c; stroke-opacity: 0.3"/>
    </defs>
    <g clip-path="url(#pb911cf1bd8)">
     <use xlink:href="#mc640f46b3f" x="0" y="360" style="fill: #e41a1c; fill-opacity: 0.3; stroke: #e41a1c; stroke-opacity: 0.3"/>
    </g>
   </g>
   <g id="PolyCollection_2">
    <defs>
     <path id="mb9f02832f9" d="M 46.64 -113.653677 
L 46.64 -93.301531 
L 47.435945 -93.856702 
L 48.231889 -94.700229 
L 49.027834 -95.623862 
L 49.823779 -96.406441 
L 50.619723 -96.924679 
L 51.415668 -97.20174 
L 52.211613 -97.382038 
L 53.007557 -97.651678 
L 53.803502 -98.144757 
L 54.599447 -98.879171 
L 55.395392 -99.744132 
L 56.191336 -100.534303 
L 56.987281 -101.018274 
L 57.783226 -101.02847 
L 58.57917 -100.540299 
L 59.375115 -99.691828 
L 60.17106 -98.720709 
L 60.967004 -97.854321 
L 61.762949 -97.225646 
L 62.558894 -96.858621 
L 63.354838 -96.6976 
L 64.150783 -96.632519 
L 64.946728 -96.520292 
L 65.742672 -96.231978 
L 66.538617 -95.721426 
L 67.334562 -95.066361 
L 68.130506 -94.431569 
L 68.926451 -93.966979 
L 69.722396 -93.718007 
L 70.51834 -93.609478 
L 71.314285 -93.494632 
L 72.11023 -93.220263 
L 72.906175 -92.677312 
L 73.702119 -91.836408 
L 74.498064 -90.766168 
L 75.294009 -89.620733 
L 76.089953 -88.596321 
L 76.885898 -87.882484 
L 77.681843 -87.633483 
L 78.477787 -87.951909 
L 79.273732 -88.858468 
L 80.069677 -90.25106 
L 80.865621 -91.890704 
L 81.661566 -93.448484 
L 82.457511 -94.611105 
L 83.253455 -95.188587 
L 84.0494 -95.149908 
L 84.845345 -94.579797 
L 85.641289 -93.616266 
L 86.437234 -92.411594 
L 87.233179 -91.113909 
L 88.029124 -89.848807 
L 88.825068 -88.693836 
L 89.621013 -87.664598 
L 90.416958 -86.737853 
L 91.212902 -85.908667 
L 92.008847 -85.241395 
L 92.804792 -84.872697 
L 93.600736 -84.963565 
L 94.396681 -85.633983 
L 95.192626 -86.917144 
L 95.98857 -88.745312 
L 96.784515 -90.951913 
L 97.58046 -93.27709 
L 98.376404 -95.393326 
L 99.172349 -96.975372 
L 99.968294 -97.805351 
L 100.764238 -97.861459 
L 101.560183 -97.328881 
L 102.356128 -96.51679 
L 103.152073 -95.731462 
L 103.948017 -95.175861 
L 104.743962 -94.909813 
L 105.539907 -94.861713 
L 106.335851 -94.87228 
L 107.131796 -94.7639 
L 107.927741 -94.428107 
L 108.723685 -93.896284 
L 109.51963 -93.33864 
L 110.315575 -92.971485 
L 111.111519 -92.926963 
L 111.907464 -93.171491 
L 112.703409 -93.516873 
L 113.499353 -93.70076 
L 114.295298 -93.482754 
L 115.091243 -92.723964 
L 115.887187 -91.445301 
L 116.683132 -89.851756 
L 117.479077 -88.289841 
L 118.275021 -87.127391 
L 119.070966 -86.607094 
L 119.866911 -86.755407 
L 120.662856 -87.389901 
L 121.4588 -88.205333 
L 122.254745 -88.888453 
L 123.05069 -89.221518 
L 123.846634 -89.150047 
L 124.642579 -88.790926 
L 125.438524 -88.365477 
L 126.234468 -88.080663 
L 127.030413 -88.021503 
L 127.826358 -88.112727 
L 128.622302 -88.159121 
L 129.418247 -87.928723 
L 130.214192 -87.237166 
L 131.010136 -86.01228 
L 131.806081 -84.331417 
L 132.602026 -82.421187 
L 133.39797 -80.60782 
L 134.193915 -79.222981 
L 134.98986 -78.499697 
L 135.785805 -78.506519 
L 136.581749 -79.147848 
L 137.377694 -80.223085 
L 138.173639 -81.511017 
L 138.969583 -82.836663 
L 139.765528 -84.088509 
L 140.561473 -85.185128 
L 141.357417 -86.025961 
L 142.153362 -86.472783 
L 142.949307 -86.384812 
L 143.745251 -85.692518 
L 144.541196 -84.473026 
L 145.337141 -82.990626 
L 146.133085 -81.675928 
L 146.92903 -81.030883 
L 147.724975 -81.472743 
L 148.520919 -83.166678 
L 149.316864 -85.920589 
L 150.112809 -89.201246 
L 150.908753 -92.279195 
L 151.704698 -94.451015 
L 152.500643 -95.256882 
L 153.296588 -94.619523 
L 154.092532 -92.861891 
L 154.888477 -90.599254 
L 155.684422 -88.540602 
L 156.480366 -87.264711 
L 157.276311 -87.044363 
L 158.072256 -87.775063 
L 158.8682 -89.030127 
L 159.664145 -90.223398 
L 160.46009 -90.823687 
L 161.256034 -90.542406 
L 162.051979 -89.41991 
L 162.847924 -87.775637 
L 163.643868 -86.051204 
L 164.439813 -84.625803 
L 165.235758 -83.685704 
L 166.031702 -83.190552 
L 166.827647 -82.930234 
L 167.623592 -82.633147 
L 168.419537 -82.076624 
L 169.215481 -81.158844 
L 170.011426 -79.912286 
L 170.807371 -78.464569 
L 171.603315 -76.972335 
L 172.39926 -75.558127 
L 173.195205 -74.270793 
L 173.991149 -73.077901 
L 174.787094 -71.889689 
L 175.583039 -70.605717 
L 176.378983 -69.167243 
L 177.174928 -67.593523 
L 177.970873 -65.983128 
L 178.766817 -64.476978 
L 179.562762 -63.203507 
L 180.358707 -62.238557 
L 181.154651 -61.599466 
L 181.950596 -61.265542 
L 182.746541 -61.199359 
L 183.542485 -61.350541 
L 184.33843 -61.648074 
L 185.134375 -62.001558 
L 185.93032 -62.318997 
L 186.726264 -62.525788 
L 187.522209 -62.569786 
L 188.318154 -62.42197 
L 189.114098 -62.093422 
L 189.910043 -61.66442 
L 190.705988 -61.287885 
L 191.501932 -61.137032 
L 192.297877 -61.321089 
L 193.093822 -61.83299 
L 193.889766 -62.57229 
L 194.685711 -63.425145 
L 195.481656 -64.33666 
L 196.2776 -65.324752 
L 197.073545 -66.44339 
L 197.86949 -67.735828 
L 198.665434 -69.199927 
L 199.461379 -70.762784 
L 200.257324 -72.267582 
L 201.053269 -73.493316 
L 201.849213 -74.218783 
L 202.645158 -74.306708 
L 203.441103 -73.762117 
L 204.237047 -72.73565 
L 205.032992 -71.478467 
L 205.828937 -70.277129 
L 206.624881 -69.393038 
L 207.420826 -69.013848 
L 208.216771 -69.213257 
L 209.012715 -69.92277 
L 209.80866 -70.932687 
L 210.604605 -71.937355 
L 211.400549 -72.618261 
L 212.196494 -72.735302 
L 212.992439 -72.190544 
L 213.788383 -71.047824 
L 214.584328 -69.520382 
L 215.380273 -67.946288 
L 216.176218 -66.748121 
L 216.972162 -66.352302 
L 217.768107 -67.064576 
L 218.564052 -68.946738 
L 219.359996 -71.758301 
L 220.155941 -74.994643 
L 220.951886 -78.004998 
L 221.74783 -80.150146 
L 222.543775 -80.965489 
L 223.33972 -80.300063 
L 224.135664 -78.388399 
L 224.931609 -75.805819 
L 225.727554 -73.29416 
L 226.523498 -71.512528 
L 227.319443 -70.810994 
L 228.115388 -71.112749 
L 228.911332 -71.943682 
L 229.707277 -72.600676 
L 230.503222 -72.409647 
L 231.299166 -70.989428 
L 232.095111 -68.422483 
L 232.891056 -65.261246 
L 233.687001 -62.364727 
L 234.482945 -60.625448 
L 235.27889 -60.677569 
L 236.074835 -62.673864 
L 236.870779 -66.201867 
L 237.666724 -70.380174 
L 238.462669 -74.119845 
L 239.258613 -76.464529 
L 240.054558 -76.881614 
L 240.850503 -75.399666 
L 241.646447 -72.559715 
L 242.442392 -69.218957 
L 243.238337 -66.281049 
L 244.034281 -64.434116 
L 244.830226 -63.973738 
L 245.626171 -64.767039 
L 246.422115 -66.361311 
L 247.21806 -68.176052 
L 248.014005 -69.687296 
L 248.80995 -70.539798 
L 249.605894 -70.576735 
L 250.401839 -69.812342 
L 251.197784 -68.377389 
L 251.993728 -66.46113 
L 252.789673 -64.271957 
L 253.585618 -62.031425 
L 254.381562 -59.989374 
L 255.177507 -58.41979 
L 255.973452 -57.563465 
L 256.769396 -57.530055 
L 257.565341 -58.217354 
L 258.361286 -59.307191 
L 259.15723 -60.35524 
L 259.953175 -60.940182 
L 260.74912 -60.810852 
L 261.545064 -59.976574 
L 262.341009 -58.708807 
L 263.136954 -57.449299 
L 263.932898 -56.651408 
L 264.728843 -56.610109 
L 265.524788 -57.34547 
L 266.320733 -58.58679 
L 267.116677 -59.869342 
L 267.912622 -60.716711 
L 268.708567 -60.846644 
L 269.504511 -60.315679 
L 270.300456 -59.526197 
L 271.096401 -59.074779 
L 271.892345 -59.503241 
L 272.68829 -61.066839 
L 273.484235 -63.620062 
L 274.280179 -66.655973 
L 275.076124 -69.469076 
L 275.872069 -71.378163 
L 276.668013 -71.939411 
L 277.463958 -71.083418 
L 278.259903 -69.126385 
L 279.055847 -66.648595 
L 279.851792 -64.290579 
L 280.647737 -62.551343 
L 281.443682 -61.661269 
L 282.239626 -61.561589 
L 283.035571 -61.982477 
L 283.831516 -62.583724 
L 284.62746 -63.102106 
L 285.423405 -63.442297 
L 286.21935 -63.670837 
L 287.015294 -63.927667 
L 287.811239 -64.319372 
L 288.607184 -64.858831 
L 289.403128 -65.472254 
L 290.199073 -66.050764 
L 290.995018 -66.511159 
L 291.790962 -66.8414 
L 292.586907 -67.116485 
L 293.382852 -67.474154 
L 294.178796 -68.050399 
L 294.974741 -68.898624 
L 295.770686 -69.935916 
L 296.56663 -70.952552 
L 297.362575 -71.688278 
L 298.15852 -71.943145 
L 298.954465 -71.671258 
L 299.750409 -71.011389 
L 300.546354 -70.238211 
L 301.342299 -69.658162 
L 302.138243 -69.499518 
L 302.934188 -69.840838 
L 303.730133 -70.594676 
L 304.526077 -71.540639 
L 305.322022 -72.395729 
L 306.117967 -72.907113 
L 306.913911 -72.939897 
L 307.709856 -72.522193 
L 308.505801 -71.824048 
L 309.301745 -71.084596 
L 310.09769 -70.530153 
L 310.893635 -70.3175 
L 311.689579 -70.505932 
L 312.485524 -71.046934 
L 313.281469 -71.792402 
L 314.077414 -72.53182 
L 314.873358 -73.052364 
L 315.669303 -73.192129 
L 316.465248 -72.861892 
L 317.261192 -72.044735 
L 318.057137 -70.801087 
L 318.853082 -69.284008 
L 319.649026 -67.736261 
L 320.444971 -66.441543 
L 321.240916 -65.639519 
L 322.03686 -65.445981 
L 322.832805 -65.81512 
L 323.62875 -66.554793 
L 324.424694 -67.387338 
L 325.220639 -68.043176 
L 326.016584 -68.364679 
L 326.812528 -68.379196 
L 327.608473 -68.297099 
L 328.404418 -68.4233 
L 329.200363 -69.020611 
L 329.996307 -70.190347 
L 330.792252 -71.819822 
L 331.588197 -73.605079 
L 332.384141 -75.127818 
L 333.180086 -75.963869 
L 333.976031 -75.803001 
L 334.771975 -74.547606 
L 335.56792 -72.348732 
L 336.363865 -69.555729 
L 337.159809 -66.598119 
L 337.955754 -63.856882 
L 338.751699 -61.586227 
L 339.547643 -59.911009 
L 340.343588 -58.876179 
L 341.139533 -58.499871 
L 341.935477 -58.79447 
L 342.731422 -59.751174 
L 343.527367 -61.306392 
L 344.323311 -63.312256 
L 345.119256 -65.525765 
L 345.915201 -67.626739 
L 346.711146 -69.276679 
L 347.50709 -70.220495 
L 348.303035 -70.400862 
L 349.09898 -70.02304 
L 349.894924 -69.512027 
L 350.690869 -69.357289 
L 351.486814 -69.91113 
L 352.282758 -71.239218 
L 353.078703 -73.091948 
L 353.874648 -75.000638 
L 354.670592 -76.449846 
L 355.466537 -77.060055 
L 356.262482 -76.721545 
L 357.058426 -75.633269 
L 357.854371 -74.223784 
L 358.650316 -72.973816 
L 359.44626 -72.210516 
L 360.242205 -71.967961 
L 361.03815 -71.981016 
L 361.834095 -71.813366 
L 362.630039 -71.058023 
L 363.425984 -69.523444 
L 364.221929 -67.332008 
L 365.017873 -64.893036 
L 365.813818 -62.756921 
L 366.609763 -61.403142 
L 367.405707 -61.048605 
L 368.201652 -61.561516 
L 368.997597 -62.52107 
L 369.793541 -63.395874 
L 370.589486 -63.761678 
L 371.385431 -63.467411 
L 372.181375 -62.685834 
L 372.97732 -61.83219 
L 373.773265 -61.383877 
L 374.569209 -61.67352 
L 375.365154 -62.741039 
L 376.161099 -64.305194 
L 376.957043 -65.860955 
L 377.752988 -66.855374 
L 378.548933 -66.869808 
L 379.344878 -65.746332 
L 380.140822 -63.625524 
L 380.936767 -60.893348 
L 381.732712 -58.060447 
L 382.528656 -55.618099 
L 383.324601 -53.924088 
L 384.120546 -53.155818 
L 384.91649 -53.330531 
L 385.712435 -54.359158 
L 386.50838 -56.093462 
L 387.304324 -58.343788 
L 388.100269 -60.869205 
L 388.896214 -63.359331 
L 389.692158 -65.435239 
L 390.488103 -66.695339 
L 391.284048 -66.814971 
L 392.079992 -65.675831 
L 392.875937 -63.470435 
L 393.671882 -60.721587 
L 394.467827 -58.185101 
L 395.263771 -56.651556 
L 396.059716 -56.706169 
L 396.855661 -58.528185 
L 397.651605 -61.805109 
L 398.44755 -65.802112 
L 399.243495 -69.572155 
L 400.039439 -72.238983 
L 400.835384 -73.257702 
L 401.631329 -72.567346 
L 402.427273 -70.588638 
L 403.223218 -68.070163 
L 404.019163 -65.833128 
L 404.815107 -64.499254 
L 405.611052 -64.296334 
L 406.406997 -65.010607 
L 407.202941 -66.098594 
L 407.998886 -66.908871 
L 408.794831 -66.926424 
L 409.590775 -65.951719 
L 410.38672 -64.155591 
L 411.182665 -61.995142 
L 411.97861 -60.024738 
L 412.774554 -58.67779 
L 413.570499 -58.109325 
L 413.570499 -102.405363 
L 413.570499 -102.405363 
L 412.774554 -102.772609 
L 411.97861 -103.840114 
L 411.182665 -105.503918 
L 410.38672 -107.411084 
L 409.590775 -109.071 
L 408.794831 -110.037195 
L 407.998886 -110.094631 
L 407.202941 -109.372013 
L 406.406997 -108.321212 
L 405.611052 -107.561138 
L 404.815107 -107.641792 
L 404.019163 -108.8176 
L 403.223218 -110.916686 
L 402.427273 -113.360149 
L 401.631329 -115.334643 
L 400.835384 -116.065547 
L 400.039439 -115.094526 
L 399.243495 -112.456538 
L 398.44755 -108.687943 
L 397.651605 -104.663943 
L 396.855661 -101.32776 
L 396.059716 -99.408135 
L 395.263771 -99.217615 
L 394.467827 -100.590029 
L 393.671882 -102.96602 
L 392.875937 -105.586049 
L 392.079992 -107.71803 
L 391.284048 -108.84423 
L 390.488103 -108.757499 
L 389.692158 -107.554615 
L 388.896214 -105.548114 
L 388.100269 -103.140045 
L 387.304324 -100.708584 
L 386.50838 -98.547018 
L 385.712435 -96.864433 
L 384.91649 -95.8221 
L 384.120546 -95.561767 
L 383.324601 -96.194246 
L 382.528656 -97.74817 
L 381.732712 -100.106766 
L 380.936767 -102.970568 
L 380.140822 -105.877786 
L 379.344878 -108.296166 
L 378.548933 -109.770727 
L 377.752988 -110.076514 
L 376.957043 -109.307188 
L 376.161099 -107.850067 
L 375.365154 -106.249662 
L 374.569209 -105.013595 
L 373.773265 -104.438303 
L 372.97732 -104.520158 
L 372.181375 -104.982951 
L 371.385431 -105.410852 
L 370.589486 -105.43717 
L 369.793541 -104.914045 
L 368.997597 -103.990413 
L 368.201652 -103.061934 
L 367.405707 -102.613023 
L 366.609763 -103.017833 
L 365.813818 -104.381527 
L 365.017873 -106.484583 
L 364.221929 -108.854077 
L 363.425984 -110.939202 
L 362.630039 -112.324682 
L 361.834095 -112.892556 
L 361.03815 -112.858395 
L 360.242205 -112.663469 
L 359.44626 -112.772558 
L 358.650316 -113.468586 
L 357.854371 -114.72905 
L 357.058426 -116.228387 
L 356.262482 -117.46261 
L 355.466537 -117.951813 
L 354.670592 -117.444034 
L 353.874648 -116.032236 
L 353.078703 -114.124873 
L 352.282758 -112.278496 
L 351.486814 -110.972193 
L 350.690869 -110.430524 
L 349.894924 -110.564947 
L 349.09898 -111.035901 
L 348.303035 -111.389579 
L 347.50709 -111.214454 
L 346.711146 -110.273982 
L 345.915201 -108.579858 
L 345.119256 -106.378201 
L 344.323311 -104.048821 
L 343.527367 -101.961805 
L 342.731422 -100.364192 
L 341.935477 -99.353166 
L 341.139533 -98.934613 
L 340.343588 -99.10989 
L 339.547643 -99.922657 
L 338.751699 -101.433894 
L 337.955754 -103.645255 
L 337.159809 -106.423153 
L 336.363865 -109.470628 
L 335.56792 -112.363911 
L 334.771975 -114.642925 
L 333.976031 -115.930972 
L 333.180086 -116.051189 
L 332.384141 -115.099931 
L 331.588197 -113.437742 
L 330.792252 -111.58129 
L 329.996307 -110.025879 
L 329.200363 -109.074339 
L 328.404418 -108.754392 
L 327.608473 -108.856435 
L 326.812528 -109.056083 
L 326.016584 -109.054518 
L 325.220639 -108.683888 
L 324.424694 -107.955155 
L 323.62875 -107.045594 
L 322.832805 -106.231852 
L 322.03686 -105.787996 
L 321.240916 -105.887667 
L 320.444971 -106.552735 
L 319.649026 -107.663355 
L 318.853082 -109.007638 
L 318.057137 -110.338287 
L 317.261192 -111.422735 
L 316.465248 -112.090741 
L 315.669303 -112.274915 
L 314.873358 -112.023267 
L 314.077414 -111.471615 
L 313.281469 -110.794331 
L 312.485524 -110.166572 
L 311.689579 -109.747683 
L 310.893635 -109.663813 
L 310.09769 -109.971637 
L 309.301745 -110.619164 
L 308.505801 -111.439175 
L 307.709856 -112.191674 
L 306.913911 -112.637281 
L 306.117967 -112.610699 
L 305.322022 -112.07495 
L 304.526077 -111.146686 
L 303.730133 -110.078541 
L 302.934188 -109.186494 
L 302.138243 -108.736604 
L 301.342299 -108.83929 
L 300.546354 -109.40524 
L 299.750409 -110.183563 
L 298.954465 -110.858249 
L 298.15852 -111.157615 
L 297.362575 -110.937421 
L 296.56663 -110.21529 
L 295.770686 -109.150458 
L 294.974741 -107.978198 
L 294.178796 -106.922554 
L 293.382852 -106.118792 
L 292.586907 -105.573857 
L 291.790962 -105.181032 
L 290.995018 -104.785427 
L 290.199073 -104.271097 
L 289.403128 -103.621889 
L 288.607184 -102.918408 
L 287.811239 -102.274757 
L 287.015294 -101.760978 
L 286.21935 -101.363555 
L 285.423405 -101.003544 
L 284.62746 -100.593806 
L 283.831516 -100.103881 
L 283.035571 -99.60904 
L 282.239626 -99.304417 
L 281.443682 -99.462023 
L 280.647737 -100.323247 
L 279.851792 -101.961102 
L 279.055847 -104.181437 
L 278.259903 -106.524549 
L 277.463958 -108.38095 
L 276.668013 -109.183021 
L 275.872069 -108.605246 
L 275.076124 -106.700166 
L 274.280179 -103.909622 
L 273.484235 -100.928908 
L 272.68829 -98.465566 
L 271.892345 -96.993327 
L 271.096401 -96.608221 
L 270.300456 -97.038168 
L 269.504511 -97.782714 
L 268.708567 -98.314724 
L 267.912622 -98.271553 
L 267.116677 -97.579125 
L 266.320733 -96.469512 
L 265.524788 -95.378246 
L 264.728843 -94.753984 
L 263.932898 -94.860382 
L 263.136954 -95.660216 
L 262.341009 -96.832459 
L 261.545064 -97.90924 
L 260.74912 -98.468287 
L 259.953175 -98.297978 
L 259.15723 -97.468297 
L 258.361286 -96.285079 
L 257.565341 -95.160677 
L 256.769396 -94.470539 
L 255.973452 -94.45653 
L 255.177507 -95.195956 
L 254.381562 -96.6184 
L 253.585618 -98.543648 
L 252.789673 -100.725808 
L 251.993728 -102.897557 
L 251.197784 -104.803974 
L 250.401839 -106.216133 
L 249.605894 -106.935183 
L 248.80995 -106.816854 
L 248.014005 -105.833263 
L 247.21806 -104.147383 
L 246.422115 -102.145116 
L 245.626171 -100.382357 
L 244.830226 -99.449106 
L 244.034281 -99.791637 
L 243.238337 -101.546483 
L 242.442392 -104.439099 
L 241.646447 -107.79662 
L 240.850503 -110.702752 
L 240.054558 -112.268385 
L 239.258613 -111.926827 
L 238.462669 -109.637845 
L 237.666724 -105.922319 
L 236.870779 -101.719239 
L 236.074835 -98.114019 
L 235.27889 -96.01739 
L 234.482945 -95.889178 
L 233.687001 -97.601465 
L 232.891056 -100.501055 
L 232.095111 -103.654816 
L 231.299166 -106.180155 
L 230.503222 -107.531433 
L 229.707277 -107.645772 
L 228.911332 -106.915495 
L 228.115388 -106.012167 
L 227.319443 -105.627643 
L 226.523498 -106.222274 
L 225.727554 -107.86911 
L 224.931609 -110.24338 
L 224.135664 -112.744038 
L 223.33972 -114.688308 
L 222.543775 -115.5143 
L 221.74783 -114.942658 
L 220.951886 -113.056831 
L 220.155941 -110.271061 
L 219.359996 -107.192513 
L 218.564052 -104.436208 
L 217.768107 -102.471367 
L 216.972162 -101.544015 
L 216.176218 -101.667114 
L 215.380273 -102.646653 
L 214.584328 -104.130167 
L 213.788383 -105.68664 
L 212.992439 -106.914448 
L 212.196494 -107.540964 
L 211.400549 -107.473541 
L 210.604605 -106.794801 
L 209.80866 -105.724986 
L 209.012715 -104.572697 
L 208.216771 -103.675437 
L 207.420826 -103.32334 
L 206.624881 -103.673863 
L 205.828937 -104.687263 
L 205.032992 -106.120182 
L 204.237047 -107.59349 
L 203.441103 -108.710753 
L 202.645158 -109.176226 
L 201.849213 -108.865534 
L 201.053269 -107.831307 
L 200.257324 -106.258572 
L 199.461379 -104.398525 
L 198.665434 -102.500125 
L 197.86949 -100.749236 
L 197.073545 -99.231972 
L 196.2776 -97.944371 
L 195.481656 -96.846886 
L 194.685711 -95.922731 
L 193.889766 -95.192412 
L 193.093822 -94.681165 
L 192.297877 -94.384095 
L 191.501932 -94.265663 
L 190.705988 -94.280964 
L 189.910043 -94.384225 
L 189.114098 -94.514796 
L 188.318154 -94.58703 
L 187.522209 -94.515041 
L 186.726264 -94.263961 
L 185.93032 -93.88098 
L 185.134375 -93.473611 
L 184.33843 -93.15334 
L 183.542485 -92.992682 
L 182.746541 -93.023168 
L 181.950596 -93.259104 
L 181.154651 -93.715855 
L 180.358707 -94.409444 
L 179.562762 -95.345507 
L 178.766817 -96.509078 
L 177.970873 -97.858184 
L 177.174928 -99.320215 
L 176.378983 -100.795765 
L 175.583039 -102.179784 
L 174.787094 -103.401472 
L 173.991149 -104.464344 
L 173.195205 -105.456151 
L 172.39926 -106.510605 
L 171.603315 -107.732876 
L 170.807371 -109.128073 
L 170.011426 -110.576751 
L 169.215481 -111.87787 
L 168.419537 -112.841803 
L 167.623592 -113.388949 
L 166.827647 -113.606102 
L 166.031702 -113.730011 
L 165.235758 -114.057657 
L 164.439813 -114.816912 
L 163.643868 -116.054409 
L 162.847924 -117.593598 
L 162.051979 -119.084502 
L 161.256034 -120.126682 
L 160.46009 -120.420636 
L 159.664145 -119.896363 
L 158.8682 -118.773243 
L 158.072256 -117.518575 
L 157.276311 -116.70129 
L 156.480366 -116.782023 
L 155.684422 -117.918905 
L 154.888477 -119.873765 
L 154.092532 -122.067203 
L 153.296588 -123.768653 
L 152.500643 -124.35011 
L 151.704698 -123.506122 
L 150.908753 -121.356428 
L 150.112809 -118.395438 
L 149.316864 -115.316454 
L 148.520919 -112.787507 
L 147.724975 -111.262763 
L 146.92903 -110.883001 
L 146.133085 -111.479185 
L 145.337141 -112.663272 
L 144.541196 -113.970627 
L 143.745251 -115.004846 
L 142.949307 -115.533674 
L 142.153362 -115.50547 
L 141.357417 -114.996589 
L 140.561473 -114.134004 
L 139.765528 -113.038142 
L 138.969583 -111.80386 
L 138.173639 -110.511306 
L 137.377694 -109.25017 
L 136.581749 -108.142662 
L 135.785805 -107.350035 
L 134.98986 -107.048651 
L 134.193915 -107.375257 
L 133.39797 -108.361566 
L 132.602026 -109.888907 
L 131.806081 -111.69034 
L 131.010136 -113.414249 
L 130.214192 -114.738007 
L 129.418247 -115.485764 
L 128.622302 -115.688151 
L 127.826358 -115.547427 
L 127.030413 -115.326224 
L 126.234468 -115.222885 
L 125.438524 -115.297244 
L 124.642579 -115.469273 
L 123.846634 -115.571917 
L 123.05069 -115.429695 
L 122.254745 -114.942699 
L 121.4588 -114.152546 
L 120.662856 -113.255299 
L 119.866911 -112.539709 
L 119.070966 -112.275215 
L 118.275021 -112.60951 
L 117.479077 -113.521659 
L 116.683132 -114.833974 
L 115.887187 -116.262385 
L 115.091243 -117.494108 
L 114.295298 -118.288128 
L 113.499353 -118.567141 
L 112.703409 -118.443086 
L 111.907464 -118.148689 
L 111.111519 -117.917083 
L 110.315575 -117.887275 
L 109.51963 -118.079274 
L 108.723685 -118.422981 
L 107.927741 -118.802215 
L 107.131796 -119.097661 
L 106.335851 -119.236732 
L 105.539907 -119.241795 
L 104.743962 -119.235535 
L 103.948017 -119.376808 
L 103.152073 -119.757848 
L 102.356128 -120.33079 
L 101.560183 -120.909632 
L 100.764238 -121.236429 
L 99.968294 -121.064846 
L 99.172349 -120.227295 
L 98.376404 -118.684258 
L 97.58046 -116.557589 
L 96.784515 -114.125138 
L 95.98857 -111.752359 
L 95.192626 -109.773808 
L 94.396681 -108.381029 
L 93.600736 -107.582558 
L 92.804792 -107.25622 
L 92.008847 -107.248703 
L 91.212902 -107.455105 
L 90.416958 -107.840903 
L 89.621013 -108.414648 
L 88.825068 -109.187146 
L 88.029124 -110.142918 
L 87.233179 -111.222029 
L 86.437234 -112.305551 
L 85.641289 -113.216645 
L 84.845345 -113.756306 
L 84.0494 -113.770603 
L 83.253455 -113.214979 
L 82.457511 -112.171353 
L 81.661566 -110.800836 
L 80.865621 -109.272485 
L 80.069677 -107.736271 
L 79.273732 -106.348064 
L 78.477787 -105.287887 
L 77.681843 -104.729189 
L 76.885898 -104.770111 
L 76.089953 -105.374064 
L 75.294009 -106.36718 
L 74.498064 -107.497082 
L 73.702119 -108.513981 
L 72.906175 -109.23848 
L 72.11023 -109.605778 
L 71.314285 -109.680605 
L 70.51834 -109.628846 
L 69.722396 -109.644523 
L 68.926451 -109.866836 
L 68.130506 -110.336086 
L 67.334562 -111.00139 
L 66.538617 -111.750657 
L 65.742672 -112.438821 
L 64.946728 -112.928547 
L 64.150783 -113.159962 
L 63.354838 -113.212966 
L 62.558894 -113.296549 
L 61.762949 -113.644394 
L 60.967004 -114.37441 
L 60.17106 -115.41182 
L 59.375115 -116.52523 
L 58.57917 -117.432518 
L 57.783226 -117.906849 
L 56.987281 -117.848903 
L 56.191336 -117.32007 
L 55.395392 -116.528958 
L 54.599447 -115.758741 
L 53.803502 -115.249677 
L 53.007557 -115.093864 
L 52.211613 -115.205071 
L 51.415668 -115.37891 
L 50.619723 -115.40455 
L 49.823779 -115.16986 
L 49.027834 -114.711597 
L 48.231889 -114.188323 
L 47.435945 -113.792807 
L 46.64 -113.653677 
z
" style="stroke: #377eb8; stroke-opacity: 0.3"/>
    </defs>
    <g clip-path="url(#pb911cf1bd8)">
     <use xlink:href="#mb9f02832f9" x="0" y="360" style="fill: #377eb8; fill-opacity: 0.3; stroke: #377eb8; stroke-opacity: 0.3"/>
    </g>
   </g>
   <g id="patch_3">
    <path d="M 229.866466 318.04 
L 229.866466 71.732 
L 331.747385 71.732 
L 331.747385 318.04 
z
" clip-path="url(#pb911cf1bd8)" style="fill: #808080; opacity: 0.3"/>
   </g>
   <g id="matplotlib.axis_1">
    <g id="xtick_1">
     <g id="line2d_1">
      <defs>
       <path id="m805fc4af37" d="M 0 0 
L 0 3.5 
" style="stroke: #000000; stroke-width: 0.8"/>
      </defs>
      <g>
       <use xlink:href="#m805fc4af37" x="87.233179" y="318.04" style="stroke: #000000; stroke-width: 0.8"/>
      </g>
     </g>
     <g id="text_1">
      <!-- 0.0 -->
      <g transform="translate(79.281616 332.638438)scale(0.1 -0.1)">
       <defs>
        <path id="DejaVuSans-30" d="M 2034 4250 
Q 1547 4250 1301 3770 
Q 1056 3291 1056 2328 
Q 1056 1369 1301 889 
Q 1547 409 2034 409 
Q 2525 409 2770 889 
Q 3016 1369 3016 2328 
Q 3016 3291 2770 3770 
Q 2525 4250 2034 4250 
z
M 2034 4750 
Q 2819 4750 3233 4129 
Q 3647 3509 3647 2328 
Q 3647 1150 3233 529 
Q 2819 -91 2034 -91 
Q 1250 -91 836 529 
Q 422 1150 422 2328 
Q 422 3509 836 4129 
Q 1250 4750 2034 4750 
z
" transform="scale(0.015625)"/>
        <path id="DejaVuSans-2e" d="M 684 794 
L 1344 794 
L 1344 0 
L 684 0 
L 684 794 
z
" transform="scale(0.015625)"/>
       </defs>
       <use xlink:href="#DejaVuSans-30"/>
       <use xlink:href="#DejaVuSans-2e" x="63.623047"/>
       <use xlink:href="#DejaVuSans-30" x="95.410156"/>
      </g>
     </g>
    </g>
    <g id="xtick_2">
     <g id="line2d_2">
      <g>
       <use xlink:href="#m805fc4af37" x="168.737914" y="318.04" style="stroke: #000000; stroke-width: 0.8"/>
      </g>
     </g>
     <g id="text_2">
      <!-- 0.2 -->
      <g transform="translate(160.786352 332.638438)scale(0.1 -0.1)">
       <defs>
        <path id="DejaVuSans-32" d="M 1228 531 
L 3431 531 
L 3431 0 
L 469 0 
L 469 531 
Q 828 903 1448 1529 
Q 2069 2156 2228 2338 
Q 2531 2678 2651 2914 
Q 2772 3150 2772 3378 
Q 2772 3750 2511 3984 
Q 2250 4219 1831 4219 
Q 1534 4219 1204 4116 
Q 875 4013 500 3803 
L 500 4441 
Q 881 4594 1212 4672 
Q 1544 4750 1819 4750 
Q 2544 4750 2975 4387 
Q 3406 4025 3406 3419 
Q 3406 3131 3298 2873 
Q 3191 2616 2906 2266 
Q 2828 2175 2409 1742 
Q 1991 1309 1228 531 
z
" transform="scale(0.015625)"/>
       </defs>
       <use xlink:href="#DejaVuSans-30"/>
       <use xlink:href="#DejaVuSans-2e" x="63.623047"/>
       <use xlink:href="#DejaVuSans-32" x="95.410156"/>
      </g>
     </g>
    </g>
    <g id="xtick_3">
     <g id="line2d_3">
      <g>
       <use xlink:href="#m805fc4af37" x="250.24265" y="318.04" style="stroke: #000000; stroke-width: 0.8"/>
      </g>
     </g>
     <g id="text_3">
      <!-- 0.4 -->
      <g transform="translate(242.291087 332.638438)scale(0.1 -0.1)">
       <defs>
        <path id="DejaVuSans-34" d="M 2419 4116 
L 825 1625 
L 2419 1625 
L 2419 4116 
z
M 2253 4666 
L 3047 4666 
L 3047 1625 
L 3713 1625 
L 3713 1100 
L 3047 1100 
L 3047 0 
L 2419 0 
L 2419 1100 
L 313 1100 
L 313 1709 
L 2253 4666 
z
" transform="scale(0.015625)"/>
       </defs>
       <use xlink:href="#DejaVuSans-30"/>
       <use xlink:href="#DejaVuSans-2e" x="63.623047"/>
       <use xlink:href="#DejaVuSans-34" x="95.410156"/>
      </g>
     </g>
    </g>
    <g id="xtick_4">
     <g id="line2d_4">
      <g>
       <use xlink:href="#m805fc4af37" x="331.747385" y="318.04" style="stroke: #000000; stroke-width: 0.8"/>
      </g>
     </g>
     <g id="text_4">
      <!-- 0.6 -->
      <g transform="translate(323.795823 332.638438)scale(0.1 -0.1)">
       <defs>
        <path id="DejaVuSans-36" d="M 2113 2584 
Q 1688 2584 1439 2293 
Q 1191 2003 1191 1497 
Q 1191 994 1439 701 
Q 1688 409 2113 409 
Q 2538 409 2786 701 
Q 3034 994 3034 1497 
Q 3034 2003 2786 2293 
Q 2538 2584 2113 2584 
z
M 3366 4563 
L 3366 3988 
Q 3128 4100 2886 4159 
Q 2644 4219 2406 4219 
Q 1781 4219 1451 3797 
Q 1122 3375 1075 2522 
Q 1259 2794 1537 2939 
Q 1816 3084 2150 3084 
Q 2853 3084 3261 2657 
Q 3669 2231 3669 1497 
Q 3669 778 3244 343 
Q 2819 -91 2113 -91 
Q 1303 -91 875 529 
Q 447 1150 447 2328 
Q 447 3434 972 4092 
Q 1497 4750 2381 4750 
Q 2619 4750 2861 4703 
Q 3103 4656 3366 4563 
z
" transform="scale(0.015625)"/>
       </defs>
       <use xlink:href="#DejaVuSans-30"/>
       <use xlink:href="#DejaVuSans-2e" x="63.623047"/>
       <use xlink:href="#DejaVuSans-36" x="95.410156"/>
      </g>
     </g>
    </g>
    <g id="xtick_5">
     <g id="line2d_5">
      <g>
       <use xlink:href="#m805fc4af37" x="413.252121" y="318.04" style="stroke: #000000; stroke-width: 0.8"/>
      </g>
     </g>
     <g id="text_5">
      <!-- 0.8 -->
      <g transform="translate(405.300559 332.638438)scale(0.1 -0.1)">
       <defs>
        <path id="DejaVuSans-38" d="M 2034 2216 
Q 1584 2216 1326 1975 
Q 1069 1734 1069 1313 
Q 1069 891 1326 650 
Q 1584 409 2034 409 
Q 2484 409 2743 651 
Q 3003 894 3003 1313 
Q 3003 1734 2745 1975 
Q 2488 2216 2034 2216 
z
M 1403 2484 
Q 997 2584 770 2862 
Q 544 3141 544 3541 
Q 544 4100 942 4425 
Q 1341 4750 2034 4750 
Q 2731 4750 3128 4425 
Q 3525 4100 3525 3541 
Q 3525 3141 3298 2862 
Q 3072 2584 2669 2484 
Q 3125 2378 3379 2068 
Q 3634 1759 3634 1313 
Q 3634 634 3220 271 
Q 2806 -91 2034 -91 
Q 1263 -91 848 271 
Q 434 634 434 1313 
Q 434 1759 690 2068 
Q 947 2378 1403 2484 
z
M 1172 3481 
Q 1172 3119 1398 2916 
Q 1625 2713 2034 2713 
Q 2441 2713 2670 2916 
Q 2900 3119 2900 3481 
Q 2900 3844 2670 4047 
Q 2441 4250 2034 4250 
Q 1625 4250 1398 4047 
Q 1172 3844 1172 3481 
z
" transform="scale(0.015625)"/>
       </defs>
       <use xlink:href="#DejaVuSans-30"/>
       <use xlink:href="#DejaVuSans-2e" x="63.623047"/>
       <use xlink:href="#DejaVuSans-38" x="95.410156"/>
      </g>
     </g>
    </g>
    <g id="text_6">
     <!-- seconds -->
     <g transform="translate(209.667749 346.316563)scale(0.1 -0.1)">
      <defs>
       <path id="DejaVuSans-73" d="M 2834 3397 
L 2834 2853 
Q 2591 2978 2328 3040 
Q 2066 3103 1784 3103 
Q 1356 3103 1142 2972 
Q 928 2841 928 2578 
Q 928 2378 1081 2264 
Q 1234 2150 1697 2047 
L 1894 2003 
Q 2506 1872 2764 1633 
Q 3022 1394 3022 966 
Q 3022 478 2636 193 
Q 2250 -91 1575 -91 
Q 1294 -91 989 -36 
Q 684 19 347 128 
L 347 722 
Q 666 556 975 473 
Q 1284 391 1588 391 
Q 1994 391 2212 530 
Q 2431 669 2431 922 
Q 2431 1156 2273 1281 
Q 2116 1406 1581 1522 
L 1381 1569 
Q 847 1681 609 1914 
Q 372 2147 372 2553 
Q 372 3047 722 3315 
Q 1072 3584 1716 3584 
Q 2034 3584 2315 3537 
Q 2597 3491 2834 3397 
z
" transform="scale(0.015625)"/>
       <path id="DejaVuSans-65" d="M 3597 1894 
L 3597 1613 
L 953 1613 
Q 991 1019 1311 708 
Q 1631 397 2203 397 
Q 2534 397 2845 478 
Q 3156 559 3463 722 
L 3463 178 
Q 3153 47 2828 -22 
Q 2503 -91 2169 -91 
Q 1331 -91 842 396 
Q 353 884 353 1716 
Q 353 2575 817 3079 
Q 1281 3584 2069 3584 
Q 2775 3584 3186 3129 
Q 3597 2675 3597 1894 
z
M 3022 2063 
Q 3016 2534 2758 2815 
Q 2500 3097 2075 3097 
Q 1594 3097 1305 2825 
Q 1016 2553 972 2059 
L 3022 2063 
z
" transform="scale(0.015625)"/>
       <path id="DejaVuSans-63" d="M 3122 3366 
L 3122 2828 
Q 2878 2963 2633 3030 
Q 2388 3097 2138 3097 
Q 1578 3097 1268 2742 
Q 959 2388 959 1747 
Q 959 1106 1268 751 
Q 1578 397 2138 397 
Q 2388 397 2633 464 
Q 2878 531 3122 666 
L 3122 134 
Q 2881 22 2623 -34 
Q 2366 -91 2075 -91 
Q 1284 -91 818 406 
Q 353 903 353 1747 
Q 353 2603 823 3093 
Q 1294 3584 2113 3584 
Q 2378 3584 2631 3529 
Q 2884 3475 3122 3366 
z
" transform="scale(0.015625)"/>
       <path id="DejaVuSans-6f" d="M 1959 3097 
Q 1497 3097 1228 2736 
Q 959 2375 959 1747 
Q 959 1119 1226 758 
Q 1494 397 1959 397 
Q 2419 397 2687 759 
Q 2956 1122 2956 1747 
Q 2956 2369 2687 2733 
Q 2419 3097 1959 3097 
z
M 1959 3584 
Q 2709 3584 3137 3096 
Q 3566 2609 3566 1747 
Q 3566 888 3137 398 
Q 2709 -91 1959 -91 
Q 1206 -91 779 398 
Q 353 888 353 1747 
Q 353 2609 779 3096 
Q 1206 3584 1959 3584 
z
" transform="scale(0.015625)"/>
       <path id="DejaVuSans-6e" d="M 3513 2113 
L 3513 0 
L 2938 0 
L 2938 2094 
Q 2938 2591 2744 2837 
Q 2550 3084 2163 3084 
Q 1697 3084 1428 2787 
Q 1159 2491 1159 1978 
L 1159 0 
L 581 0 
L 581 3500 
L 1159 3500 
L 1159 2956 
Q 1366 3272 1645 3428 
Q 1925 3584 2291 3584 
Q 2894 3584 3203 3211 
Q 3513 2838 3513 2113 
z
" transform="scale(0.015625)"/>
       <path id="DejaVuSans-64" d="M 2906 2969 
L 2906 4863 
L 3481 4863 
L 3481 0 
L 2906 0 
L 2906 525 
Q 2725 213 2448 61 
Q 2172 -91 1784 -91 
Q 1150 -91 751 415 
Q 353 922 353 1747 
Q 353 2572 751 3078 
Q 1150 3584 1784 3584 
Q 2172 3584 2448 3432 
Q 2725 3281 2906 2969 
z
M 947 1747 
Q 947 1113 1208 752 
Q 1469 391 1925 391 
Q 2381 391 2643 752 
Q 2906 1113 2906 1747 
Q 2906 2381 2643 2742 
Q 2381 3103 1925 3103 
Q 1469 3103 1208 2742 
Q 947 2381 947 1747 
z
" transform="scale(0.015625)"/>
      </defs>
      <use xlink:href="#DejaVuSans-73"/>
      <use xlink:href="#DejaVuSans-65" x="52.099609"/>
      <use xlink:href="#DejaVuSans-63" x="113.623047"/>
      <use xlink:href="#DejaVuSans-6f" x="168.603516"/>
      <use xlink:href="#DejaVuSans-6e" x="229.785156"/>
      <use xlink:href="#DejaVuSans-64" x="293.164062"/>
      <use xlink:href="#DejaVuSans-73" x="356.640625"/>
     </g>
    </g>
   </g>
   <g id="matplotlib.axis_2">
    <g id="ytick_1">
     <g id="line2d_6">
      <defs>
       <path id="mdc813e60f9" d="M 0 0 
L -3.5 0 
" style="stroke: #000000; stroke-width: 0.8"/>
      </defs>
      <g>
       <use xlink:href="#mdc813e60f9" x="46.64" y="295.515952" style="stroke: #000000; stroke-width: 0.8"/>
      </g>
     </g>
     <g id="text_7">
      <!-- 1 -->
      <g transform="translate(24.897813 299.315171)scale(0.1 -0.1)">
       <defs>
        <path id="DejaVuSans-2212" d="M 678 2272 
L 4684 2272 
L 4684 1741 
L 678 1741 
L 678 2272 
z
" transform="scale(0.015625)"/>
        <path id="DejaVuSans-31" d="M 794 531 
L 1825 531 
L 1825 4091 
L 703 3866 
L 703 4441 
L 1819 4666 
L 2450 4666 
L 2450 531 
L 3481 531 
L 3481 0 
L 794 0 
L 794 531 
z
" transform="scale(0.015625)"/>
       </defs>
       <use xlink:href="#DejaVuSans-2212"/>
       <use xlink:href="#DejaVuSans-31" x="83.789062"/>
      </g>
     </g>
    </g>
    <g id="ytick_2">
     <g id="line2d_7">
      <g>
       <use xlink:href="#mdc813e60f9" x="46.64" y="256.50548" style="stroke: #000000; stroke-width: 0.8"/>
      </g>
     </g>
     <g id="text_8">
      <!-- 0 -->
      <g transform="translate(33.2775 260.304698)scale(0.1 -0.1)">
       <use xlink:href="#DejaVuSans-30"/>
      </g>
     </g>
    </g>
    <g id="ytick_3">
     <g id="line2d_8">
      <g>
       <use xlink:href="#mdc813e60f9" x="46.64" y="217.495007" style="stroke: #000000; stroke-width: 0.8"/>
      </g>
     </g>
     <g id="text_9">
      <!-- 1 -->
      <g transform="translate(33.2775 221.294226)scale(0.1 -0.1)">
       <use xlink:href="#DejaVuSans-31"/>
      </g>
     </g>
    </g>
    <g id="ytick_4">
     <g id="line2d_9">
      <g>
       <use xlink:href="#mdc813e60f9" x="46.64" y="178.484534" style="stroke: #000000; stroke-width: 0.8"/>
      </g>
     </g>
     <g id="text_10">
      <!-- 2 -->
      <g transform="translate(33.2775 182.283753)scale(0.1 -0.1)">
       <use xlink:href="#DejaVuSans-32"/>
      </g>
     </g>
    </g>
    <g id="ytick_5">
     <g id="line2d_10">
      <g>
       <use xlink:href="#mdc813e60f9" x="46.64" y="139.474061" style="stroke: #000000; stroke-width: 0.8"/>
      </g>
     </g>
     <g id="text_11">
      <!-- 3 -->
      <g transform="translate(33.2775 143.27328)scale(0.1 -0.1)">
       <defs>
        <path id="DejaVuSans-33" d="M 2597 2516 
Q 3050 2419 3304 2112 
Q 3559 1806 3559 1356 
Q 3559 666 3084 287 
Q 2609 -91 1734 -91 
Q 1441 -91 1130 -33 
Q 819 25 488 141 
L 488 750 
Q 750 597 1062 519 
Q 1375 441 1716 441 
Q 2309 441 2620 675 
Q 2931 909 2931 1356 
Q 2931 1769 2642 2001 
Q 2353 2234 1838 2234 
L 1294 2234 
L 1294 2753 
L 1863 2753 
Q 2328 2753 2575 2939 
Q 2822 3125 2822 3475 
Q 2822 3834 2567 4026 
Q 2313 4219 1838 4219 
Q 1578 4219 1281 4162 
Q 984 4106 628 3988 
L 628 4550 
Q 988 4650 1302 4700 
Q 1616 4750 1894 4750 
Q 2613 4750 3031 4423 
Q 3450 4097 3450 3541 
Q 3450 3153 3228 2886 
Q 3006 2619 2597 2516 
z
" transform="scale(0.015625)"/>
       </defs>
       <use xlink:href="#DejaVuSans-33"/>
      </g>
     </g>
    </g>
    <g id="ytick_6">
     <g id="line2d_11">
      <g>
       <use xlink:href="#mdc813e60f9" x="46.64" y="100.463589" style="stroke: #000000; stroke-width: 0.8"/>
      </g>
     </g>
     <g id="text_12">
      <!-- 4 -->
      <g transform="translate(33.2775 104.262807)scale(0.1 -0.1)">
       <use xlink:href="#DejaVuSans-34"/>
      </g>
     </g>
    </g>
    <g id="text_13">
     <!-- V -->
     <g transform="translate(18.818125 201.487562)rotate(-90)scale(0.1 -0.1)">
      <defs>
       <path id="DejaVuSans-b5" d="M 544 -1331 
L 544 3500 
L 1119 3500 
L 1119 1325 
Q 1119 872 1334 640 
Q 1550 409 1972 409 
Q 2434 409 2667 671 
Q 2900 934 2900 1459 
L 2900 3500 
L 3475 3500 
L 3475 806 
Q 3475 619 3529 530 
Q 3584 441 3700 441 
Q 3728 441 3778 458 
Q 3828 475 3916 513 
L 3916 50 
Q 3788 -22 3673 -56 
Q 3559 -91 3450 -91 
Q 3234 -91 3106 31 
Q 2978 153 2931 403 
Q 2775 156 2548 32 
Q 2322 -91 2016 -91 
Q 1697 -91 1473 31 
Q 1250 153 1119 397 
L 1119 -1331 
L 544 -1331 
z
" transform="scale(0.015625)"/>
       <path id="DejaVuSans-56" d="M 1831 0 
L 50 4666 
L 709 4666 
L 2188 738 
L 3669 4666 
L 4325 4666 
L 2547 0 
L 1831 0 
z
" transform="scale(0.015625)"/>
      </defs>
      <use xlink:href="#DejaVuSans-b5"/>
      <use xlink:href="#DejaVuSans-56" x="63.623047"/>
     </g>
    </g>
   </g>
   <g id="line2d_12">
    <path d="M 46.64 269.041205 
L 47.435945 265.535435 
L 48.231889 262.987126 
L 49.027834 262.114547 
L 49.823779 263.201276 
L 50.619723 265.985334 
L 52.211613 273.22669 
L 53.007557 275.465552 
L 53.803502 275.602587 
L 54.599447 273.409192 
L 55.395392 269.336495 
L 56.987281 259.897769 
L 57.783226 256.966472 
L 58.57917 256.250443 
L 59.375115 257.665779 
L 60.967004 263.262398 
L 61.762949 264.869196 
L 62.558894 264.268105 
L 63.354838 261.135821 
L 64.150783 255.897084 
L 65.742672 243.598563 
L 66.538617 239.197793 
L 67.334562 237.281789 
L 68.130506 238.116339 
L 68.926451 241.315848 
L 71.314285 255.140067 
L 72.11023 257.689964 
L 72.906175 258.253924 
L 73.702119 256.982829 
L 74.498064 254.462076 
L 75.294009 251.534517 
L 76.089953 249.065202 
L 76.885898 247.706253 
L 77.681843 247.724022 
L 78.477787 248.938874 
L 80.069677 252.576445 
L 80.865621 253.61433 
L 81.661566 253.56893 
L 82.457511 252.537945 
L 83.253455 251.036437 
L 84.0494 249.816357 
L 84.845345 249.590882 
L 85.641289 250.762888 
L 86.437234 253.258872 
L 88.029124 259.746881 
L 88.825068 262.053898 
L 89.621013 262.895797 
L 90.416958 262.188909 
L 91.212902 260.340105 
L 92.008847 258.088224 
L 92.804792 256.235892 
L 93.600736 255.375224 
L 94.396681 255.707984 
L 95.192626 257.018298 
L 96.784515 260.426914 
L 97.58046 261.433297 
L 98.376404 261.576251 
L 99.172349 260.898994 
L 99.968294 259.653869 
L 101.560183 256.801882 
L 102.356128 255.733878 
L 103.152073 255.088863 
L 103.948017 254.882002 
L 104.743962 255.054331 
L 107.131796 256.248725 
L 107.927741 256.063902 
L 108.723685 255.200077 
L 109.51963 253.609056 
L 111.907464 247.296459 
L 112.703409 246.269165 
L 113.499353 246.363122 
L 114.295298 247.488684 
L 115.887187 250.940321 
L 116.683132 252.066729 
L 117.479077 252.285114 
L 118.275021 251.679601 
L 119.070966 250.707227 
L 119.866911 250.01598 
L 120.662856 250.175186 
L 121.4588 251.427213 
L 123.846634 257.884737 
L 124.642579 258.588029 
L 125.438524 257.752504 
L 126.234468 255.516197 
L 127.826358 249.346893 
L 128.622302 247.014385 
L 129.418247 246.01119 
L 130.214192 246.552082 
L 131.010136 248.509597 
L 131.806081 251.512607 
L 134.193915 261.95191 
L 134.98986 264.390635 
L 135.785805 265.641497 
L 136.581749 265.383508 
L 137.377694 263.439708 
L 138.173639 259.89138 
L 140.561473 245.634198 
L 141.357417 242.917446 
L 142.153362 242.713576 
L 142.949307 245.2977 
L 143.745251 250.304662 
L 146.133085 268.932926 
L 146.92903 272.267089 
L 147.724975 272.983009 
L 148.520919 271.244552 
L 149.316864 267.724886 
L 150.908753 259.093916 
L 151.704698 255.57771 
L 152.500643 253.103153 
L 153.296588 251.578831 
L 155.684422 248.956855 
L 156.480366 247.693939 
L 158.072256 244.75368 
L 158.8682 243.733445 
L 159.664145 243.487073 
L 160.46009 244.235274 
L 161.256034 246.006043 
L 162.051979 248.619658 
L 164.439813 257.542398 
L 165.235758 259.396873 
L 166.031702 260.183549 
L 166.827647 259.876402 
L 167.623592 258.663093 
L 170.011426 253.503644 
L 170.807371 252.552338 
L 171.603315 252.229979 
L 173.195205 252.405478 
L 173.991149 251.999007 
L 174.787094 250.717213 
L 175.583039 248.448383 
L 177.174928 242.37447 
L 177.970873 240.07444 
L 178.766817 239.429061 
L 179.562762 241.035032 
L 180.358707 244.981168 
L 181.950596 257.282642 
L 182.746541 263.265263 
L 183.542485 267.463891 
L 184.33843 269.101308 
L 185.134375 268.092317 
L 185.93032 265.072558 
L 187.522209 257.779554 
L 188.318154 255.85738 
L 189.114098 255.884185 
L 189.910043 257.602876 
L 191.501932 262.500832 
L 192.297877 263.625496 
L 193.093822 263.061773 
L 193.889766 260.932694 
L 195.481656 254.73483 
L 196.2776 252.225947 
L 197.073545 250.613212 
L 198.665434 248.579043 
L 199.461379 246.702448 
L 200.257324 243.492655 
L 201.849213 233.880125 
L 202.645158 229.24842 
L 203.441103 226.289173 
L 204.237047 225.855482 
L 205.032992 228.149839 
L 205.828937 232.623931 
L 207.420826 243.286316 
L 208.216771 246.872613 
L 209.012715 248.200598 
L 209.80866 247.252559 
L 210.604605 244.60623 
L 212.196494 237.868436 
L 212.992439 235.317945 
L 213.788383 233.729113 
L 214.584328 232.921866 
L 216.176218 232.043764 
L 216.972162 231.301208 
L 217.768107 230.205365 
L 219.359996 227.291805 
L 220.951886 223.718285 
L 221.74783 221.513764 
L 224.135664 213.855004 
L 224.931609 212.215983 
L 225.727554 211.875001 
L 226.523498 213.080443 
L 227.319443 215.678957 
L 228.911332 222.486057 
L 229.707277 224.942313 
L 230.503222 225.78979 
L 231.299166 224.754276 
L 232.095111 222.00916 
L 233.687001 213.615817 
L 235.27889 205.463251 
L 236.074835 202.487355 
L 236.870779 200.484677 
L 237.666724 199.583712 
L 238.462669 199.934383 
L 239.258613 201.661322 
L 240.054558 204.739882 
L 242.442392 217.322444 
L 243.238337 219.765991 
L 244.034281 219.978216 
L 244.830226 217.768135 
L 245.626171 213.584413 
L 247.21806 203.491319 
L 248.014005 199.899242 
L 248.80995 198.239779 
L 249.605894 198.46757 
L 250.401839 199.963077 
L 251.197784 201.800603 
L 251.993728 203.097781 
L 252.789673 203.306128 
L 253.585618 202.335024 
L 254.381562 200.478128 
L 260.74912 182.10125 
L 261.545064 180.462809 
L 262.341009 179.689616 
L 263.136954 179.689701 
L 263.932898 180.015225 
L 264.728843 180.002035 
L 265.524788 179.028103 
L 266.320733 176.776283 
L 267.116677 173.378136 
L 268.708567 165.451745 
L 269.504511 162.223264 
L 270.300456 159.91268 
L 271.096401 158.334548 
L 272.68829 155.565681 
L 274.280179 151.981125 
L 275.076124 150.786409 
L 275.872069 150.900775 
L 276.668013 152.730226 
L 277.463958 156.127234 
L 279.055847 164.34571 
L 279.851792 167.058278 
L 280.647737 167.939216 
L 281.443682 167.123128 
L 283.035571 163.723292 
L 283.831516 163.036879 
L 284.62746 163.580975 
L 286.21935 166.046965 
L 287.015294 165.960092 
L 287.811239 164.048453 
L 288.607184 160.49529 
L 289.403128 156.272878 
L 290.199073 152.79579 
L 290.995018 151.3557 
L 291.790962 152.573943 
L 292.586907 156.107816 
L 294.178796 164.85637 
L 294.974741 167.030244 
L 295.770686 166.618118 
L 296.56663 163.972113 
L 298.15852 157.007059 
L 298.954465 155.361165 
L 299.750409 155.713616 
L 301.342299 159.546148 
L 302.138243 160.494121 
L 302.934188 159.535841 
L 303.730133 156.738473 
L 304.526077 153.067195 
L 305.322022 150.007071 
L 306.117967 148.953912 
L 306.913911 150.628131 
L 307.709856 154.755203 
L 309.301745 165.132594 
L 310.09769 168.211248 
L 310.893635 168.582828 
L 311.689579 166.427351 
L 313.281469 159.091356 
L 314.077414 156.630265 
L 314.873358 156.02168 
L 315.669303 157.055708 
L 316.465248 158.858789 
L 317.261192 160.328457 
L 318.057137 160.640065 
L 318.853082 159.610458 
L 320.444971 156.126589 
L 321.240916 155.714595 
L 322.03686 157.147455 
L 322.832805 160.338994 
L 324.424694 168.547255 
L 325.220639 171.333444 
L 326.016584 172.283742 
L 326.812528 171.496937 
L 328.404418 167.910619 
L 329.200363 167.056486 
L 329.996307 167.575975 
L 330.792252 169.289054 
L 331.588197 171.497789 
L 332.384141 173.288726 
L 333.180086 173.896811 
L 333.976031 172.976523 
L 334.771975 170.674294 
L 336.363865 164.001864 
L 340.343588 146.760625 
L 341.139533 142.868165 
L 341.935477 139.598691 
L 342.731422 137.741804 
L 343.527367 137.888342 
L 344.323311 140.121965 
L 346.711146 151.418813 
L 347.50709 152.923364 
L 348.303035 152.256486 
L 349.09898 149.922163 
L 349.894924 147.110499 
L 350.690869 145.282778 
L 351.486814 145.63709 
L 352.282758 148.655112 
L 353.078703 153.903951 
L 354.670592 165.875045 
L 355.466537 169.612844 
L 356.262482 170.611155 
L 357.058426 168.946008 
L 357.854371 165.444145 
L 359.44626 157.743995 
L 360.242205 155.387228 
L 361.03815 154.316662 
L 362.630039 153.902612 
L 363.425984 153.271431 
L 364.221929 151.985481 
L 365.813818 148.923117 
L 366.609763 148.381249 
L 367.405707 149.057113 
L 368.201652 150.840307 
L 369.793541 155.287716 
L 370.589486 156.440893 
L 371.385431 156.25044 
L 372.181375 154.796279 
L 373.773265 150.321075 
L 374.569209 148.701241 
L 375.365154 148.132755 
L 376.161099 148.658469 
L 376.957043 149.98952 
L 378.548933 153.156671 
L 379.344878 154.155535 
L 380.140822 154.482071 
L 380.936767 154.140035 
L 381.732712 153.241771 
L 383.324601 150.477615 
L 384.120546 149.053274 
L 384.91649 147.970298 
L 385.712435 147.539516 
L 386.50838 148.019174 
L 387.304324 149.509759 
L 388.100269 151.863944 
L 389.692158 157.306148 
L 390.488103 159.159333 
L 391.284048 159.783296 
L 392.079992 159.08944 
L 392.875937 157.394367 
L 393.671882 155.326073 
L 394.467827 153.609421 
L 395.263771 152.805836 
L 396.059716 153.103304 
L 396.855661 154.237716 
L 397.651605 155.579135 
L 398.44755 156.35385 
L 399.243495 155.921155 
L 400.039439 154.003208 
L 400.835384 150.78467 
L 402.427273 142.982193 
L 403.223218 139.914458 
L 404.019163 138.099147 
L 404.815107 137.592275 
L 405.611052 138.068783 
L 406.406997 138.956751 
L 407.202941 139.636422 
L 407.998886 139.63579 
L 408.794831 138.762503 
L 409.590775 137.138033 
L 411.182665 133.235945 
L 411.97861 131.89043 
L 412.774554 131.36782 
L 413.570499 131.696363 
L 413.570499 131.696363 
" clip-path="url(#pb911cf1bd8)" style="fill: none; stroke: #e41a1c; stroke-width: 1.5; stroke-linecap: square"/>
   </g>
   <g id="line2d_13">
    <path d="M 46.64 256.522396 
L 47.435945 256.175245 
L 50.619723 253.835386 
L 51.415668 253.709675 
L 53.007557 253.627229 
L 53.803502 253.302783 
L 54.599447 252.681044 
L 56.191336 251.072813 
L 56.987281 250.566412 
L 57.783226 250.532341 
L 58.57917 251.013591 
L 60.17106 252.933735 
L 60.967004 253.885634 
L 61.762949 254.56498 
L 62.558894 254.922415 
L 64.946728 255.275581 
L 65.742672 255.6646 
L 67.334562 256.966124 
L 68.130506 257.616172 
L 68.926451 258.083092 
L 69.722396 258.318735 
L 72.11023 258.58698 
L 72.906175 259.042104 
L 73.702119 259.824805 
L 76.089953 263.014808 
L 76.885898 263.673703 
L 77.681843 263.818664 
L 78.477787 263.380102 
L 79.273732 262.396734 
L 80.865621 259.418406 
L 81.661566 257.87534 
L 82.457511 256.608771 
L 83.253455 255.798217 
L 84.0494 255.539744 
L 84.845345 255.831948 
L 85.641289 256.583544 
L 87.233179 258.832031 
L 88.825068 261.059509 
L 90.416958 262.710622 
L 91.212902 263.318114 
L 92.008847 263.754951 
L 92.804792 263.935542 
L 93.600736 263.726938 
L 94.396681 262.992494 
L 95.192626 261.654524 
L 95.98857 259.751165 
L 98.376404 252.961208 
L 99.172349 251.398667 
L 99.968294 250.564901 
L 100.764238 250.451056 
L 101.560183 250.880743 
L 103.152073 252.255345 
L 103.948017 252.723665 
L 104.743962 252.927326 
L 107.131796 253.06922 
L 107.927741 253.384839 
L 109.51963 254.291043 
L 110.315575 254.57062 
L 111.111519 254.577977 
L 113.499353 253.86605 
L 114.295298 254.114559 
L 115.091243 254.890964 
L 115.887187 256.146157 
L 117.479077 259.09425 
L 118.275021 260.131549 
L 119.070966 260.558845 
L 119.866911 260.352442 
L 120.662856 259.6774 
L 122.254745 258.084424 
L 123.05069 257.674393 
L 123.846634 257.639018 
L 126.234468 258.348226 
L 127.030413 258.326137 
L 128.622302 258.076364 
L 129.418247 258.292756 
L 130.214192 259.012414 
L 131.010136 260.286736 
L 133.39797 265.515307 
L 134.193915 266.700881 
L 134.98986 267.225826 
L 135.785805 267.071723 
L 136.581749 266.354745 
L 138.173639 263.988839 
L 139.765528 261.436674 
L 140.561473 260.340434 
L 141.357417 259.488725 
L 142.153362 259.010873 
L 142.949307 259.040757 
L 143.745251 259.651318 
L 144.541196 260.778174 
L 146.133085 263.422444 
L 146.92903 264.043058 
L 147.724975 263.632247 
L 148.520919 262.022907 
L 149.316864 259.381479 
L 150.908753 253.182189 
L 151.704698 251.021432 
L 152.500643 250.196504 
L 153.296588 250.805912 
L 154.092532 252.535453 
L 155.684422 256.770246 
L 156.480366 257.976633 
L 157.276311 258.127173 
L 158.072256 257.353181 
L 159.664145 254.94012 
L 160.46009 254.377839 
L 161.256034 254.665456 
L 162.051979 255.747794 
L 164.439813 260.278643 
L 165.235758 261.128319 
L 166.031702 261.539718 
L 167.623592 261.988952 
L 168.419537 262.540787 
L 169.215481 263.481643 
L 170.807371 266.203679 
L 172.39926 268.965634 
L 175.583039 273.607249 
L 177.174928 276.543131 
L 178.766817 279.506972 
L 179.562762 280.725493 
L 180.358707 281.675999 
L 181.154651 282.34234 
L 181.950596 282.737677 
L 182.746541 282.888736 
L 183.542485 282.828389 
L 185.134375 282.262415 
L 186.726264 281.605125 
L 187.522209 281.457586 
L 188.318154 281.4955 
L 189.910043 281.975678 
L 190.705988 282.215575 
L 191.501932 282.298652 
L 192.297877 282.147408 
L 193.093822 281.742923 
L 193.889766 281.117649 
L 195.481656 279.408227 
L 197.073545 277.162319 
L 198.665434 274.149974 
L 200.257324 270.736923 
L 201.053269 269.337689 
L 201.849213 268.457841 
L 202.645158 268.258533 
L 203.441103 268.763565 
L 204.237047 269.83543 
L 205.828937 272.517804 
L 206.624881 273.466549 
L 207.420826 273.831406 
L 208.216771 273.555653 
L 209.012715 272.752267 
L 210.604605 270.633922 
L 211.400549 269.954099 
L 212.196494 269.861867 
L 212.992439 270.447504 
L 213.788383 271.632768 
L 215.380273 274.70353 
L 216.176218 275.792382 
L 216.972162 276.051841 
L 217.768107 275.232029 
L 218.564052 273.308527 
L 220.155941 267.367148 
L 220.951886 264.469086 
L 221.74783 262.453598 
L 222.543775 261.760105 
L 223.33972 262.505814 
L 224.135664 264.433781 
L 225.727554 269.418365 
L 226.523498 271.132599 
L 227.319443 271.780681 
L 228.115388 271.437542 
L 228.911332 270.570412 
L 229.707277 269.876776 
L 230.503222 270.02946 
L 231.299166 271.415209 
L 232.095111 273.96135 
L 233.687001 280.016904 
L 234.482945 281.742687 
L 235.27889 281.65252 
L 236.074835 279.606058 
L 236.870779 276.039447 
L 238.462669 268.121155 
L 239.258613 265.804322 
L 240.054558 265.425001 
L 240.850503 266.948791 
L 241.646447 269.821833 
L 243.238337 276.086234 
L 244.034281 277.887123 
L 244.830226 278.288578 
L 245.626171 277.425302 
L 248.014005 272.23972 
L 248.80995 271.321674 
L 249.605894 271.244041 
L 250.401839 271.985762 
L 251.197784 273.409318 
L 252.789673 277.501117 
L 254.381562 281.696113 
L 255.177507 283.192127 
L 255.973452 283.990002 
L 256.769396 283.999703 
L 257.565341 283.310984 
L 259.15723 281.088231 
L 259.953175 280.38092 
L 260.74912 280.36043 
L 261.545064 281.057093 
L 263.136954 283.445243 
L 263.932898 284.244105 
L 264.728843 284.317954 
L 265.524788 283.638142 
L 267.116677 281.275766 
L 267.912622 280.505868 
L 268.708567 280.419316 
L 269.504511 280.950803 
L 270.300456 281.717818 
L 271.096401 282.1585 
L 271.892345 281.751716 
L 272.68829 280.233798 
L 273.484235 277.725515 
L 275.076124 271.915379 
L 275.872069 270.008295 
L 276.668013 269.438784 
L 277.463958 270.267816 
L 278.259903 272.174533 
L 279.851792 276.87416 
L 280.647737 278.562705 
L 281.443682 279.438354 
L 282.239626 279.566997 
L 283.035571 279.204242 
L 284.62746 278.152044 
L 286.21935 277.482804 
L 287.015294 277.155677 
L 287.811239 276.702935 
L 290.995018 274.351707 
L 293.382852 273.203527 
L 294.178796 272.513524 
L 295.770686 270.456813 
L 296.56663 269.416079 
L 297.362575 268.68715 
L 298.15852 268.44962 
L 298.954465 268.735246 
L 301.342299 270.751274 
L 302.138243 270.881939 
L 302.934188 270.486334 
L 303.730133 269.663391 
L 305.322022 267.764661 
L 306.117967 267.241094 
L 306.913911 267.211411 
L 307.709856 267.643066 
L 310.09769 269.749105 
L 310.893635 270.009344 
L 311.689579 269.873192 
L 312.485524 269.393247 
L 314.873358 267.462185 
L 315.669303 267.266478 
L 316.465248 267.523684 
L 317.261192 268.266265 
L 318.057137 269.430313 
L 320.444971 273.502861 
L 321.240916 274.236407 
L 322.03686 274.383012 
L 322.832805 273.976514 
L 325.220639 271.636468 
L 326.016584 271.290402 
L 326.812528 271.282361 
L 327.608473 271.423233 
L 328.404418 271.411154 
L 329.200363 270.952525 
L 329.996307 269.891887 
L 332.384141 264.886125 
L 333.180086 263.992471 
L 333.976031 264.133014 
L 334.771975 265.404735 
L 335.56792 267.643678 
L 337.955754 276.248932 
L 338.751699 278.48994 
L 339.547643 280.083167 
L 340.343588 281.006965 
L 341.139533 281.282758 
L 341.935477 280.926182 
L 342.731422 279.942317 
L 343.527367 278.365902 
L 345.119256 274.048017 
L 345.915201 271.896702 
L 346.711146 270.22467 
L 347.50709 269.282525 
L 348.303035 269.10478 
L 349.09898 269.47053 
L 349.894924 269.961513 
L 350.690869 270.106093 
L 351.486814 269.558338 
L 352.282758 268.241143 
L 353.874648 264.483563 
L 354.670592 263.05306 
L 355.466537 262.494066 
L 356.262482 262.907922 
L 357.058426 264.069172 
L 358.650316 266.778799 
L 359.44626 267.508463 
L 360.242205 267.684285 
L 361.03815 267.580295 
L 361.834095 267.647039 
L 362.630039 268.308648 
L 363.425984 269.768677 
L 365.813818 276.430776 
L 366.609763 277.789513 
L 367.405707 278.169186 
L 368.201652 277.688275 
L 369.793541 275.84504 
L 370.589486 275.400576 
L 371.385431 275.560868 
L 372.97732 276.823826 
L 373.773265 277.08891 
L 374.569209 276.656442 
L 375.365154 275.504649 
L 376.957043 272.415929 
L 377.752988 271.534056 
L 378.548933 271.679733 
L 379.344878 272.978751 
L 380.140822 275.248345 
L 382.528656 283.316865 
L 383.324601 284.940833 
L 384.120546 285.641207 
L 384.91649 285.423685 
L 385.712435 284.388205 
L 386.50838 282.67976 
L 388.100269 277.995375 
L 388.896214 275.546278 
L 389.692158 273.505073 
L 390.488103 272.273581 
L 391.284048 272.1704 
L 392.079992 273.30307 
L 392.875937 275.471758 
L 394.467827 280.612435 
L 395.263771 282.065414 
L 396.059716 281.942848 
L 396.855661 280.072027 
L 397.651605 276.765474 
L 399.243495 268.985654 
L 400.039439 266.333246 
L 400.835384 265.338376 
L 401.631329 266.049006 
L 402.427273 268.025607 
L 404.019163 272.674636 
L 404.815107 273.929477 
L 405.611052 274.071264 
L 406.406997 273.334091 
L 407.202941 272.264697 
L 407.998886 271.498249 
L 408.794831 271.51819 
L 409.590775 272.48864 
L 410.38672 274.216663 
L 411.97861 278.067574 
L 412.774554 279.274801 
L 413.570499 279.742656 
L 413.570499 279.742656 
" clip-path="url(#pb911cf1bd8)" style="fill: none; stroke: #377eb8; stroke-width: 1.5; stroke-linecap: square"/>
   </g>
   <g id="line2d_14">
    <path d="M 87.233179 318.04 
L 87.233179 71.732 
" clip-path="url(#pb911cf1bd8)" style="fill: none; stroke: #000000; stroke-width: 0.5; stroke-linecap: square"/>
   </g>
   <g id="line2d_15">
    <path d="M 46.64 256.50548 
L 413.570499 256.50548 
" clip-path="url(#pb911cf1bd8)" style="fill: none; stroke: #000000; stroke-width: 0.5; stroke-linecap: square"/>
   </g>
   <g id="patch_4">
    <path d="M 46.64 318.04 
L 46.64 71.732 
" style="fill: none; stroke: #000000; stroke-width: 0.8; stroke-linejoin: miter; stroke-linecap: square"/>
   </g>
   <g id="patch_5">
    <path d="M 413.570499 318.04 
L 413.570499 71.732 
" style="fill: none; stroke: #000000; stroke-width: 0.8; stroke-linejoin: miter; stroke-linecap: square"/>
   </g>
   <g id="patch_6">
    <path d="M 46.64 318.04 
L 413.570499 318.04 
" style="fill: none; stroke: #000000; stroke-width: 0.8; stroke-linejoin: miter; stroke-linecap: square"/>
   </g>
   <g id="patch_7">
    <path d="M 46.64 71.732 
L 413.570499 71.732 
" style="fill: none; stroke: #000000; stroke-width: 0.8; stroke-linejoin: miter; stroke-linecap: square"/>
   </g>
   <g id="text_14">
    <!-- Cz -->
    <g transform="translate(222.766499 65.732)scale(0.12 -0.12)">
     <defs>
      <path id="DejaVuSans-43" d="M 4122 4306 
L 4122 3641 
Q 3803 3938 3442 4084 
Q 3081 4231 2675 4231 
Q 1875 4231 1450 3742 
Q 1025 3253 1025 2328 
Q 1025 1406 1450 917 
Q 1875 428 2675 428 
Q 3081 428 3442 575 
Q 3803 722 4122 1019 
L 4122 359 
Q 3791 134 3420 21 
Q 3050 -91 2638 -91 
Q 1578 -91 968 557 
Q 359 1206 359 2328 
Q 359 3453 968 4101 
Q 1578 4750 2638 4750 
Q 3056 4750 3426 4639 
Q 3797 4528 4122 4306 
z
" transform="scale(0.015625)"/>
      <path id="DejaVuSans-7a" d="M 353 3500 
L 3084 3500 
L 3084 2975 
L 922 459 
L 3084 459 
L 3084 0 
L 275 0 
L 275 525 
L 2438 3041 
L 353 3041 
L 353 3500 
z
" transform="scale(0.015625)"/>
     </defs>
     <use xlink:href="#DejaVuSans-43"/>
     <use xlink:href="#DejaVuSans-7a" x="69.824219"/>
    </g>
   </g>
   <g id="legend_1">
    <g id="patch_8">
     <path d="M 99.877906 48.500845 
L 360.332593 48.500845 
Q 362.332593 48.500845 362.332593 46.500845 
L 362.332593 18.144595 
Q 362.332593 16.144595 360.332593 16.144595 
L 99.877906 16.144595 
Q 97.877906 16.144595 97.877906 18.144595 
L 97.877906 46.500845 
Q 97.877906 48.500845 99.877906 48.500845 
z
" style="fill: #ffffff; opacity: 0.8; stroke: #cccccc; stroke-linejoin: miter"/>
    </g>
    <g id="text_15">
     <!-- Average of Session 28 -->
     <g transform="translate(174.545874 27.743033)scale(0.1 -0.1)">
      <defs>
       <path id="DejaVuSans-41" d="M 2188 4044 
L 1331 1722 
L 3047 1722 
L 2188 4044 
z
M 1831 4666 
L 2547 4666 
L 4325 0 
L 3669 0 
L 3244 1197 
L 1141 1197 
L 716 0 
L 50 0 
L 1831 4666 
z
" transform="scale(0.015625)"/>
       <path id="DejaVuSans-76" d="M 191 3500 
L 800 3500 
L 1894 563 
L 2988 3500 
L 3597 3500 
L 2284 0 
L 1503 0 
L 191 3500 
z
" transform="scale(0.015625)"/>
       <path id="DejaVuSans-72" d="M 2631 2963 
Q 2534 3019 2420 3045 
Q 2306 3072 2169 3072 
Q 1681 3072 1420 2755 
Q 1159 2438 1159 1844 
L 1159 0 
L 581 0 
L 581 3500 
L 1159 3500 
L 1159 2956 
Q 1341 3275 1631 3429 
Q 1922 3584 2338 3584 
Q 2397 3584 2469 3576 
Q 2541 3569 2628 3553 
L 2631 2963 
z
" transform="scale(0.015625)"/>
       <path id="DejaVuSans-61" d="M 2194 1759 
Q 1497 1759 1228 1600 
Q 959 1441 959 1056 
Q 959 750 1161 570 
Q 1363 391 1709 391 
Q 2188 391 2477 730 
Q 2766 1069 2766 1631 
L 2766 1759 
L 2194 1759 
z
M 3341 1997 
L 3341 0 
L 2766 0 
L 2766 531 
Q 2569 213 2275 61 
Q 1981 -91 1556 -91 
Q 1019 -91 701 211 
Q 384 513 384 1019 
Q 384 1609 779 1909 
Q 1175 2209 1959 2209 
L 2766 2209 
L 2766 2266 
Q 2766 2663 2505 2880 
Q 2244 3097 1772 3097 
Q 1472 3097 1187 3025 
Q 903 2953 641 2809 
L 641 3341 
Q 956 3463 1253 3523 
Q 1550 3584 1831 3584 
Q 2591 3584 2966 3190 
Q 3341 2797 3341 1997 
z
" transform="scale(0.015625)"/>
       <path id="DejaVuSans-67" d="M 2906 1791 
Q 2906 2416 2648 2759 
Q 2391 3103 1925 3103 
Q 1463 3103 1205 2759 
Q 947 2416 947 1791 
Q 947 1169 1205 825 
Q 1463 481 1925 481 
Q 2391 481 2648 825 
Q 2906 1169 2906 1791 
z
M 3481 434 
Q 3481 -459 3084 -895 
Q 2688 -1331 1869 -1331 
Q 1566 -1331 1297 -1286 
Q 1028 -1241 775 -1147 
L 775 -588 
Q 1028 -725 1275 -790 
Q 1522 -856 1778 -856 
Q 2344 -856 2625 -561 
Q 2906 -266 2906 331 
L 2906 616 
Q 2728 306 2450 153 
Q 2172 0 1784 0 
Q 1141 0 747 490 
Q 353 981 353 1791 
Q 353 2603 747 3093 
Q 1141 3584 1784 3584 
Q 2172 3584 2450 3431 
Q 2728 3278 2906 2969 
L 2906 3500 
L 3481 3500 
L 3481 434 
z
" transform="scale(0.015625)"/>
       <path id="DejaVuSans-20" transform="scale(0.015625)"/>
       <path id="DejaVuSans-66" d="M 2375 4863 
L 2375 4384 
L 1825 4384 
Q 1516 4384 1395 4259 
Q 1275 4134 1275 3809 
L 1275 3500 
L 2222 3500 
L 2222 3053 
L 1275 3053 
L 1275 0 
L 697 0 
L 697 3053 
L 147 3053 
L 147 3500 
L 697 3500 
L 697 3744 
Q 697 4328 969 4595 
Q 1241 4863 1831 4863 
L 2375 4863 
z
" transform="scale(0.015625)"/>
       <path id="DejaVuSans-53" d="M 3425 4513 
L 3425 3897 
Q 3066 4069 2747 4153 
Q 2428 4238 2131 4238 
Q 1616 4238 1336 4038 
Q 1056 3838 1056 3469 
Q 1056 3159 1242 3001 
Q 1428 2844 1947 2747 
L 2328 2669 
Q 3034 2534 3370 2195 
Q 3706 1856 3706 1288 
Q 3706 609 3251 259 
Q 2797 -91 1919 -91 
Q 1588 -91 1214 -16 
Q 841 59 441 206 
L 441 856 
Q 825 641 1194 531 
Q 1563 422 1919 422 
Q 2459 422 2753 634 
Q 3047 847 3047 1241 
Q 3047 1584 2836 1778 
Q 2625 1972 2144 2069 
L 1759 2144 
Q 1053 2284 737 2584 
Q 422 2884 422 3419 
Q 422 4038 858 4394 
Q 1294 4750 2059 4750 
Q 2388 4750 2728 4690 
Q 3069 4631 3425 4513 
z
" transform="scale(0.015625)"/>
       <path id="DejaVuSans-69" d="M 603 3500 
L 1178 3500 
L 1178 0 
L 603 0 
L 603 3500 
z
M 603 4863 
L 1178 4863 
L 1178 4134 
L 603 4134 
L 603 4863 
z
" transform="scale(0.015625)"/>
      </defs>
      <use xlink:href="#DejaVuSans-41"/>
      <use xlink:href="#DejaVuSans-76" x="62.533203"/>
      <use xlink:href="#DejaVuSans-65" x="121.712891"/>
      <use xlink:href="#DejaVuSans-72" x="183.236328"/>
      <use xlink:href="#DejaVuSans-61" x="224.349609"/>
      <use xlink:href="#DejaVuSans-67" x="285.628906"/>
      <use xlink:href="#DejaVuSans-65" x="349.105469"/>
      <use xlink:href="#DejaVuSans-20" x="410.628906"/>
      <use xlink:href="#DejaVuSans-6f" x="442.416016"/>
      <use xlink:href="#DejaVuSans-66" x="503.597656"/>
      <use xlink:href="#DejaVuSans-20" x="538.802734"/>
      <use xlink:href="#DejaVuSans-53" x="570.589844"/>
      <use xlink:href="#DejaVuSans-65" x="634.066406"/>
      <use xlink:href="#DejaVuSans-73" x="695.589844"/>
      <use xlink:href="#DejaVuSans-73" x="747.689453"/>
      <use xlink:href="#DejaVuSans-69" x="799.789062"/>
      <use xlink:href="#DejaVuSans-6f" x="827.572266"/>
      <use xlink:href="#DejaVuSans-6e" x="888.753906"/>
      <use xlink:href="#DejaVuSans-20" x="952.132812"/>
      <use xlink:href="#DejaVuSans-32" x="983.919922"/>
      <use xlink:href="#DejaVuSans-38" x="1047.542969"/>
     </g>
    </g>
    <g id="line2d_16">
     <path d="M 101.877906 38.921158 
L 111.877906 38.921158 
L 121.877906 38.921158 
" style="fill: none; stroke: #e41a1c; stroke-width: 1.5; stroke-linecap: square"/>
    </g>
    <g id="text_16">
     <!-- Target (n=307) -->
     <g transform="translate(129.877906 42.421158)scale(0.1 -0.1)">
      <defs>
       <path id="DejaVuSans-54" d="M -19 4666 
L 3928 4666 
L 3928 4134 
L 2272 4134 
L 2272 0 
L 1638 0 
L 1638 4134 
L -19 4134 
L -19 4666 
z
" transform="scale(0.015625)"/>
       <path id="DejaVuSans-74" d="M 1172 4494 
L 1172 3500 
L 2356 3500 
L 2356 3053 
L 1172 3053 
L 1172 1153 
Q 1172 725 1289 603 
Q 1406 481 1766 481 
L 2356 481 
L 2356 0 
L 1766 0 
Q 1100 0 847 248 
Q 594 497 594 1153 
L 594 3053 
L 172 3053 
L 172 3500 
L 594 3500 
L 594 4494 
L 1172 4494 
z
" transform="scale(0.015625)"/>
       <path id="DejaVuSans-28" d="M 1984 4856 
Q 1566 4138 1362 3434 
Q 1159 2731 1159 2009 
Q 1159 1288 1364 580 
Q 1569 -128 1984 -844 
L 1484 -844 
Q 1016 -109 783 600 
Q 550 1309 550 2009 
Q 550 2706 781 3412 
Q 1013 4119 1484 4856 
L 1984 4856 
z
" transform="scale(0.015625)"/>
       <path id="DejaVuSans-3d" d="M 678 2906 
L 4684 2906 
L 4684 2381 
L 678 2381 
L 678 2906 
z
M 678 1631 
L 4684 1631 
L 4684 1100 
L 678 1100 
L 678 1631 
z
" transform="scale(0.015625)"/>
       <path id="DejaVuSans-37" d="M 525 4666 
L 3525 4666 
L 3525 4397 
L 1831 0 
L 1172 0 
L 2766 4134 
L 525 4134 
L 525 4666 
z
" transform="scale(0.015625)"/>
       <path id="DejaVuSans-29" d="M 513 4856 
L 1013 4856 
Q 1481 4119 1714 3412 
Q 1947 2706 1947 2009 
Q 1947 1309 1714 600 
Q 1481 -109 1013 -844 
L 513 -844 
Q 928 -128 1133 580 
Q 1338 1288 1338 2009 
Q 1338 2731 1133 3434 
Q 928 4138 513 4856 
z
" transform="scale(0.015625)"/>
      </defs>
      <use xlink:href="#DejaVuSans-54"/>
      <use xlink:href="#DejaVuSans-61" x="44.583984"/>
      <use xlink:href="#DejaVuSans-72" x="105.863281"/>
      <use xlink:href="#DejaVuSans-67" x="145.226562"/>
      <use xlink:href="#DejaVuSans-65" x="208.703125"/>
      <use xlink:href="#DejaVuSans-74" x="270.226562"/>
      <use xlink:href="#DejaVuSans-20" x="309.435547"/>
      <use xlink:href="#DejaVuSans-28" x="341.222656"/>
      <use xlink:href="#DejaVuSans-6e" x="380.236328"/>
      <use xlink:href="#DejaVuSans-3d" x="443.615234"/>
      <use xlink:href="#DejaVuSans-33" x="527.404297"/>
      <use xlink:href="#DejaVuSans-30" x="591.027344"/>
      <use xlink:href="#DejaVuSans-37" x="654.650391"/>
      <use xlink:href="#DejaVuSans-29" x="718.273438"/>
     </g>
    </g>
    <g id="line2d_17">
     <path d="M 225.607593 38.921158 
L 235.607593 38.921158 
L 245.607593 38.921158 
" style="fill: none; stroke: #377eb8; stroke-width: 1.5; stroke-linecap: square"/>
    </g>
    <g id="text_17">
     <!-- Non-Target (n=1524) -->
     <g transform="translate(253.607593 42.421158)scale(0.1 -0.1)">
      <defs>
       <path id="DejaVuSans-4e" d="M 628 4666 
L 1478 4666 
L 3547 763 
L 3547 4666 
L 4159 4666 
L 4159 0 
L 3309 0 
L 1241 3903 
L 1241 0 
L 628 0 
L 628 4666 
z
" transform="scale(0.015625)"/>
       <path id="DejaVuSans-2d" d="M 313 2009 
L 1997 2009 
L 1997 1497 
L 313 1497 
L 313 2009 
z
" transform="scale(0.015625)"/>
       <path id="DejaVuSans-35" d="M 691 4666 
L 3169 4666 
L 3169 4134 
L 1269 4134 
L 1269 2991 
Q 1406 3038 1543 3061 
Q 1681 3084 1819 3084 
Q 2600 3084 3056 2656 
Q 3513 2228 3513 1497 
Q 3513 744 3044 326 
Q 2575 -91 1722 -91 
Q 1428 -91 1123 -41 
Q 819 9 494 109 
L 494 744 
Q 775 591 1075 516 
Q 1375 441 1709 441 
Q 2250 441 2565 725 
Q 2881 1009 2881 1497 
Q 2881 1984 2565 2268 
Q 2250 2553 1709 2553 
Q 1456 2553 1204 2497 
Q 953 2441 691 2322 
L 691 4666 
z
" transform="scale(0.015625)"/>
      </defs>
      <use xlink:href="#DejaVuSans-4e"/>
      <use xlink:href="#DejaVuSans-6f" x="74.804688"/>
      <use xlink:href="#DejaVuSans-6e" x="135.986328"/>
      <use xlink:href="#DejaVuSans-2d" x="199.365234"/>
      <use xlink:href="#DejaVuSans-54" x="226.324219"/>
      <use xlink:href="#DejaVuSans-61" x="270.908203"/>
      <use xlink:href="#DejaVuSans-72" x="332.1875"/>
      <use xlink:href="#DejaVuSans-67" x="371.550781"/>
      <use xlink:href="#DejaVuSans-65" x="435.027344"/>
      <use xlink:href="#DejaVuSans-74" x="496.550781"/>
      <use xlink:href="#DejaVuSans-20" x="535.759766"/>
      <use xlink:href="#DejaVuSans-28" x="567.546875"/>
      <use xlink:href="#DejaVuSans-6e" x="606.560547"/>
      <use xlink:href="#DejaVuSans-3d" x="669.939453"/>
      <use xlink:href="#DejaVuSans-31" x="753.728516"/>
      <use xlink:href="#DejaVuSans-35" x="817.351562"/>
      <use xlink:href="#DejaVuSans-32" x="880.974609"/>
      <use xlink:href="#DejaVuSans-34" x="944.597656"/>
      <use xlink:href="#DejaVuSans-29" x="1008.220703"/>
     </g>
    </g>
   </g>
  </g>
 </g>
 <defs>
  <clipPath id="pb911cf1bd8">
   <rect x="46.64" y="71.732" width="366.930499" height="246.308"/>
  </clipPath>
 </defs>
</svg>
