<?xml version="1.0" encoding="utf-8" standalone="no"?>
<!DOCTYPE svg PUBLIC "-//W3C//DTD SVG 1.1//EN"
  "http://www.w3.org/Graphics/SVG/1.1/DTD/svg11.dtd">
<svg xmlns:xlink="http://www.w3.org/1999/xlink" width="432pt" height="360pt" viewBox="0 0 432 360" xmlns="http://www.w3.org/2000/svg" version="1.1">
 <metadata>
  <rdf:RDF xmlns:dc="http://purl.org/dc/elements/1.1/" xmlns:cc="http://creativecommons.org/ns#" xmlns:rdf="http://www.w3.org/1999/02/22-rdf-syntax-ns#">
   <cc:Work>
    <dc:type rdf:resource="http://purl.org/dc/dcmitype/StillImage"/>
    <dc:date>2022-05-19T11:52:18.538792</dc:date>
    <dc:format>image/svg+xml</dc:format>
    <dc:creator>
     <cc:Agent>
      <dc:title>Matplotlib v3.5.1, https://matplotlib.org/</dc:title>
     </cc:Agent>
    </dc:creator>
   </cc:Work>
  </rdf:RDF>
 </metadata>
 <defs>
  <style type="text/css">*{stroke-linejoin: round; stroke-linecap: butt}</style>
 </defs>
 <g id="figure_1">
  <g id="patch_1">
   <path d="M 0 360 
L 432 360 
L 432 0 
L 0 0 
L 0 360 
z
" style="fill: none"/>
  </g>
  <g id="axes_1">
   <g id="patch_2">
    <path d="M 46.55 318.04 
L 413.570499 318.04 
L 413.570499 71.732 
L 46.55 71.732 
L 46.55 318.04 
z
" style="fill: none"/>
   </g>
   <g id="PolyCollection_1">
    <defs>
     <path id="m019e07b04c" d="M 46.55 -158.201388 
L 46.55 -107.71642 
L 47.34614 -107.282782 
L 48.14228 -110.756057 
L 48.93842 -116.119281 
L 49.73456 -121.199753 
L 50.5307 -125.004387 
L 51.326839 -127.404092 
L 52.122979 -128.255522 
L 52.919119 -127.053986 
L 53.715259 -123.923547 
L 54.511399 -121.014862 
L 55.307539 -120.869494 
L 56.103679 -123.667374 
L 56.899819 -127.005063 
L 57.695959 -128.293718 
L 58.492099 -127.225776 
L 59.288239 -125.219214 
L 60.084378 -123.490864 
L 60.880518 -121.928203 
L 61.676658 -119.248938 
L 62.472798 -115.351478 
L 63.268938 -112.383949 
L 64.065078 -111.638656 
L 64.861218 -112.130044 
L 65.657358 -111.800306 
L 66.453498 -109.333426 
L 67.249638 -104.965764 
L 68.045778 -99.668661 
L 68.841918 -94.164436 
L 69.638057 -89.009149 
L 70.434197 -85.088236 
L 71.230337 -83.312214 
L 72.026477 -83.938016 
L 72.822617 -86.460836 
L 73.618757 -90.049243 
L 74.414897 -94.080354 
L 75.211037 -98.365648 
L 76.007177 -102.908787 
L 76.803317 -107.515029 
L 77.599457 -111.658859 
L 78.395596 -114.61039 
L 79.191736 -115.648614 
L 79.987876 -114.312598 
L 80.784016 -110.682889 
L 81.580156 -105.597045 
L 82.376296 -100.586188 
L 83.172436 -97.381893 
L 83.968576 -97.188825 
L 84.764716 -100.131498 
L 85.560856 -105.141316 
L 86.356996 -110.316112 
L 87.153135 -113.609008 
L 87.949275 -113.589699 
L 88.745415 -109.992727 
L 89.541555 -103.837523 
L 90.337695 -97.056068 
L 91.133835 -91.763174 
L 91.929975 -89.474339 
L 92.726115 -90.614154 
L 93.522255 -94.505954 
L 94.318395 -99.74021 
L 95.114535 -104.635371 
L 95.910674 -107.634061 
L 96.706814 -107.67772 
L 97.502954 -104.574198 
L 98.299094 -99.171818 
L 99.095234 -93.071237 
L 99.891374 -87.923588 
L 100.687514 -84.776068 
L 101.483654 -83.872306 
L 102.279794 -84.891617 
L 103.075934 -87.294417 
L 103.872074 -90.503527 
L 104.668213 -93.927144 
L 105.464353 -96.9815 
L 106.260493 -99.233047 
L 107.056633 -100.585942 
L 107.852773 -101.222547 
L 108.648913 -101.254913 
L 109.445053 -100.518264 
L 110.241193 -98.755946 
L 111.037333 -95.975821 
L 111.833473 -92.656968 
L 112.629613 -89.666394 
L 113.425753 -87.935758 
L 114.221892 -88.0435 
L 115.018032 -89.883775 
L 115.814172 -92.615228 
L 116.610312 -94.998791 
L 117.406452 -95.977252 
L 118.202592 -95.126607 
L 118.998732 -92.747748 
L 119.794872 -89.663483 
L 120.591012 -86.878954 
L 121.387152 -85.248622 
L 122.183292 -85.265311 
L 122.979431 -86.979575 
L 123.775571 -89.97585 
L 124.571711 -93.426671 
L 125.367851 -96.331484 
L 126.163991 -97.925041 
L 126.960131 -98.064791 
L 127.756271 -97.358416 
L 128.552411 -96.916146 
L 129.348551 -97.847732 
L 130.144691 -100.781899 
L 130.940831 -105.631275 
L 131.73697 -111.648599 
L 132.53311 -117.687092 
L 133.32925 -122.544743 
L 134.12539 -125.299083 
L 134.92153 -125.564512 
L 135.71767 -123.58624 
L 136.51381 -120.084973 
L 137.30995 -115.89923 
L 138.10609 -111.648459 
L 138.90223 -107.639952 
L 139.69837 -104.049704 
L 140.494509 -101.182169 
L 141.290649 -99.534565 
L 142.086789 -99.567079 
L 142.882929 -101.363461 
L 143.679069 -104.46376 
L 144.475209 -108.00325 
L 145.271349 -111.065623 
L 146.067489 -113.029102 
L 146.863629 -113.736532 
L 147.659769 -113.46913 
L 148.455909 -112.782335 
L 149.252049 -112.25191 
L 150.048188 -112.188619 
L 150.844328 -112.452918 
L 151.640468 -112.525301 
L 152.436608 -111.830374 
L 153.232748 -110.07856 
L 154.028888 -107.386579 
L 154.825028 -104.186004 
L 155.621168 -101.082859 
L 156.417308 -98.750698 
L 157.213448 -97.792891 
L 158.009588 -98.496321 
L 158.805727 -100.576441 
L 159.601867 -103.165198 
L 160.398007 -105.166595 
L 161.194147 -105.781466 
L 161.990287 -104.819928 
L 162.786427 -102.610826 
L 163.582567 -99.694334 
L 164.378707 -96.612714 
L 165.174847 -93.877834 
L 165.970987 -91.927819 
L 166.767127 -90.966177 
L 167.563266 -90.850672 
L 168.359406 -91.207314 
L 169.155546 -91.7019 
L 169.951686 -92.248602 
L 170.747826 -93.009176 
L 171.543966 -94.219066 
L 172.340106 -95.983427 
L 173.136246 -98.159042 
L 173.932386 -100.36594 
L 174.728526 -102.126111 
L 175.524666 -103.076046 
L 176.320805 -103.126608 
L 177.116945 -102.444093 
L 177.913085 -101.274055 
L 178.709225 -99.77359 
L 179.505365 -97.965486 
L 180.301505 -95.775145 
L 181.097645 -93.085452 
L 181.893785 -89.830347 
L 182.689925 -86.16006 
L 183.486065 -82.593435 
L 184.282205 -79.953199 
L 185.078344 -78.977833 
L 185.874484 -79.855236 
L 186.670624 -82.106548 
L 187.466764 -84.891236 
L 188.262904 -87.350721 
L 189.059044 -88.741104 
L 189.855184 -88.501926 
L 190.651324 -86.415778 
L 191.447464 -82.783019 
L 192.243604 -78.417131 
L 193.039744 -74.342775 
L 193.835884 -71.31967 
L 194.632023 -69.519109 
L 195.428163 -68.583364 
L 196.224303 -67.978986 
L 197.020443 -67.372859 
L 197.816583 -66.845955 
L 198.612723 -66.904005 
L 199.408863 -68.30648 
L 200.205003 -71.769815 
L 201.001143 -77.634709 
L 201.797283 -85.597315 
L 202.593423 -94.606767 
L 203.389562 -103.024065 
L 204.185702 -109.055202 
L 204.981842 -111.324569 
L 205.777982 -109.367809 
L 206.574122 -103.863318 
L 207.370262 -96.521611 
L 208.166402 -89.628688 
L 208.962542 -85.324469 
L 209.758682 -84.850188 
L 210.554822 -88.110017 
L 211.350962 -93.796551 
L 212.147101 -100.032645 
L 212.943241 -105.157077 
L 213.739381 -108.206398 
L 214.535521 -108.952043 
L 215.331661 -107.71521 
L 216.127801 -105.201774 
L 216.923941 -102.349191 
L 217.720081 -100.046708 
L 218.516221 -98.773149 
L 219.312361 -98.411115 
L 220.108501 -98.416231 
L 220.90464 -98.222298 
L 221.70078 -97.541356 
L 222.49692 -96.32684 
L 223.29306 -94.532742 
L 224.0892 -91.98206 
L 224.88534 -88.490152 
L 225.68148 -84.138559 
L 226.47762 -79.483958 
L 227.27376 -75.537882 
L 228.0699 -73.484039 
L 228.86604 -74.230542 
L 229.66218 -77.992208 
L 230.458319 -84.114362 
L 231.254459 -91.231106 
L 232.050599 -97.667874 
L 232.846739 -101.904532 
L 233.642879 -102.942754 
L 234.439019 -100.488851 
L 235.235159 -94.94811 
L 236.031299 -87.317506 
L 236.827439 -79.043207 
L 237.623579 -71.720986 
L 238.419719 -66.517829 
L 239.215858 -63.634324 
L 240.011998 -62.322882 
L 240.808138 -61.506022 
L 241.604278 -60.512035 
L 242.400418 -59.39563 
L 243.196558 -58.707567 
L 243.992698 -59.000633 
L 244.788838 -60.456504 
L 245.584978 -62.810645 
L 246.381118 -65.472703 
L 247.177258 -67.669217 
L 247.973397 -68.619877 
L 248.769537 -67.84128 
L 249.565677 -65.473743 
L 250.361817 -62.352816 
L 251.157957 -59.689723 
L 251.954097 -58.552385 
L 252.750237 -59.473799 
L 253.546377 -62.350419 
L 254.342517 -66.580716 
L 255.138657 -71.335159 
L 255.934797 -75.872253 
L 256.730936 -79.794091 
L 257.527076 -83.113407 
L 258.323216 -86.096439 
L 259.119356 -89.024071 
L 259.915496 -92.072778 
L 260.711636 -95.329903 
L 261.507776 -98.770406 
L 262.303916 -102.148258 
L 263.100056 -104.978068 
L 263.896196 -106.732465 
L 264.692336 -107.146571 
L 265.488475 -106.373248 
L 266.284615 -104.825733 
L 267.080755 -102.835597 
L 267.876895 -100.442616 
L 268.673035 -97.493031 
L 269.469175 -93.925822 
L 270.265315 -89.99716 
L 271.061455 -86.311579 
L 271.857595 -83.691139 
L 272.653735 -82.964488 
L 273.449875 -84.746948 
L 274.246015 -89.270657 
L 275.042154 -96.291626 
L 275.838294 -105.060631 
L 276.634434 -114.349672 
L 277.430574 -122.573499 
L 278.226714 -128.075061 
L 279.022854 -129.59356 
L 279.818994 -126.765458 
L 280.615134 -120.327914 
L 281.411274 -111.816115 
L 282.207414 -102.97686 
L 283.003554 -95.313887 
L 283.799693 -89.924664 
L 284.595833 -87.478317 
L 285.391973 -88.153248 
L 286.188113 -91.551282 
L 286.984253 -96.737339 
L 287.780393 -102.463424 
L 288.576533 -107.472377 
L 289.372673 -110.744131 
L 290.168813 -111.647518 
L 290.964953 -110.028925 
L 291.761093 -106.228541 
L 292.557232 -100.979811 
L 293.353372 -95.212723 
L 294.149512 -89.860317 
L 294.945652 -85.736309 
L 295.741792 -83.440555 
L 296.537932 -83.216111 
L 297.334072 -84.799399 
L 298.130212 -87.421516 
L 298.926352 -90.052468 
L 299.722492 -91.780714 
L 300.518632 -92.109376 
L 301.314771 -91.046483 
L 302.110911 -89.029503 
L 302.907051 -86.759685 
L 303.703191 -84.95942 
L 304.499331 -84.073729 
L 305.295471 -84.048611 
L 306.091611 -84.364456 
L 306.887751 -84.338636 
L 307.683891 -83.473832 
L 308.480031 -81.623627 
L 309.276171 -78.986214 
L 310.072311 -76.072289 
L 310.86845 -73.676119 
L 311.66459 -72.729459 
L 312.46073 -73.964269 
L 313.25687 -77.520021 
L 314.05301 -82.74741 
L 314.84915 -88.343945 
L 315.64529 -92.752914 
L 316.44143 -94.656053 
L 317.23757 -93.409349 
L 318.03371 -89.29769 
L 318.82985 -83.484404 
L 319.625989 -77.615043 
L 320.422129 -73.218506 
L 321.218269 -71.165735 
L 322.014409 -71.403395 
L 322.810549 -73.051052 
L 323.606689 -74.809574 
L 324.402829 -75.50082 
L 325.198969 -74.495407 
L 325.995109 -71.860458 
L 326.791249 -68.235722 
L 327.587389 -64.56794 
L 328.383528 -61.827679 
L 329.179668 -60.766377 
L 329.975808 -61.726823 
L 330.771948 -64.526398 
L 331.568088 -68.457127 
L 332.364228 -72.436851 
L 333.160368 -75.294103 
L 333.956508 -76.110506 
L 334.752648 -74.510762 
L 335.548788 -70.795719 
L 336.344928 -65.85839 
L 337.141067 -60.902464 
L 337.937207 -57.073461 
L 338.733347 -55.143947 
L 339.529487 -55.330071 
L 340.325627 -57.244872 
L 341.121767 -60.004988 
L 341.917907 -62.52965 
L 342.714047 -63.983765 
L 343.510187 -64.155635 
L 344.306327 -63.505674 
L 345.102467 -62.815819 
L 345.898606 -62.681582 
L 346.694746 -63.194537 
L 347.490886 -63.957538 
L 348.287026 -64.313673 
L 349.083166 -63.631071 
L 349.879306 -61.600189 
L 350.675446 -58.498593 
L 351.471586 -55.255454 
L 352.267726 -53.155818 
L 353.063866 -53.264348 
L 353.860006 -55.903971 
L 354.656146 -60.519145 
L 355.452285 -65.965765 
L 356.248425 -70.980121 
L 357.044565 -74.574291 
L 357.840705 -76.29119 
L 358.636845 -76.325508 
L 359.432985 -75.449511 
L 360.229125 -74.676418 
L 361.025265 -74.745406 
L 361.821405 -75.699343 
L 362.617545 -76.839333 
L 363.413685 -77.119197 
L 364.209824 -75.756617 
L 365.005964 -72.717698 
L 365.802104 -68.839812 
L 366.598244 -65.553088 
L 367.394384 -64.31328 
L 368.190524 -65.963254 
L 368.986664 -70.298029 
L 369.782804 -76.056184 
L 370.578944 -81.374646 
L 371.375084 -84.51464 
L 372.171224 -84.535255 
L 372.967363 -81.635942 
L 373.763503 -77.05804 
L 374.559643 -72.606685 
L 375.355783 -69.967931 
L 376.151923 -70.066031 
L 376.948063 -72.716005 
L 377.744203 -76.719939 
L 378.540343 -80.360255 
L 379.336483 -82.080226 
L 380.132623 -81.08836 
L 380.928763 -77.659998 
L 381.724902 -73.003436 
L 382.521042 -68.722624 
L 383.317182 -66.119438 
L 384.113322 -65.6904 
L 384.909462 -67.062615 
L 385.705602 -69.350056 
L 386.501742 -71.687853 
L 387.297882 -73.653658 
L 388.094022 -75.39099 
L 388.890162 -77.404726 
L 389.686302 -80.139806 
L 390.482441 -83.564418 
L 391.278581 -87.007941 
L 392.074721 -89.379233 
L 392.870861 -89.656707 
L 393.667001 -87.381902 
L 394.463141 -82.925282 
L 395.259281 -77.452411 
L 396.055421 -72.639455 
L 396.851561 -70.195525 
L 397.647701 -71.246271 
L 398.443841 -75.766039 
L 399.239981 -82.405545 
L 400.03612 -88.959223 
L 400.83226 -93.32511 
L 401.6284 -94.430497 
L 402.42454 -92.583698 
L 403.22068 -89.133118 
L 404.01682 -85.767393 
L 404.81296 -83.876817 
L 405.6091 -84.180867 
L 406.40524 -86.611607 
L 407.20138 -90.402682 
L 407.99752 -94.379763 
L 408.793659 -97.402739 
L 409.589799 -98.787159 
L 410.385939 -98.495191 
L 411.182079 -97.013646 
L 411.978219 -95.031277 
L 412.774359 -93.117104 
L 413.570499 -91.539201 
L 413.570499 -272.713582 
L 413.570499 -272.713582 
L 412.774359 -273.778989 
L 411.978219 -274.793442 
L 411.182079 -275.893791 
L 410.385939 -276.843021 
L 409.589799 -277.072182 
L 408.793659 -275.962975 
L 407.99752 -273.225654 
L 407.20138 -269.192507 
L 406.40524 -264.860698 
L 405.6091 -261.583731 
L 404.81296 -260.469349 
L 404.01682 -261.76273 
L 403.22068 -264.606346 
L 402.42454 -267.386864 
L 401.6284 -268.488483 
L 400.83226 -267.009477 
L 400.03612 -263.080417 
L 399.239981 -257.744859 
L 398.443841 -252.601803 
L 397.647701 -249.353196 
L 396.851561 -249.263497 
L 396.055421 -252.613104 
L 395.259281 -258.418753 
L 394.463141 -264.706004 
L 393.667001 -269.31818 
L 392.870861 -270.85202 
L 392.074721 -269.203903 
L 391.278581 -265.473839 
L 390.482441 -261.3549 
L 389.686302 -258.366495 
L 388.890162 -257.275828 
L 388.094022 -257.894889 
L 387.297882 -259.286414 
L 386.501742 -260.275044 
L 385.705602 -260.02452 
L 384.909462 -258.399733 
L 384.113322 -255.953832 
L 383.317182 -253.58556 
L 382.521042 -252.061743 
L 381.724902 -251.628497 
L 380.928763 -251.86785 
L 380.132623 -251.860225 
L 379.336483 -250.619131 
L 378.540343 -247.6416 
L 377.744203 -243.294688 
L 376.948063 -238.784643 
L 376.151923 -235.681101 
L 375.355783 -235.221442 
L 374.559643 -237.726034 
L 373.763503 -242.39583 
L 372.967363 -247.598829 
L 372.171224 -251.537816 
L 371.375084 -253.004086 
L 370.578944 -251.863553 
L 369.782804 -249.050671 
L 368.986664 -246.099786 
L 368.190524 -244.463196 
L 367.394384 -244.923063 
L 366.598244 -247.31852 
L 365.802104 -250.674215 
L 365.005964 -253.670392 
L 364.209824 -255.246624 
L 363.413685 -255.051431 
L 362.617545 -253.523076 
L 361.821405 -251.592597 
L 361.025265 -250.196969 
L 360.229125 -249.839073 
L 359.432985 -250.344676 
L 358.636845 -250.878561 
L 357.840705 -250.245701 
L 357.044565 -247.430735 
L 356.248425 -242.168323 
L 355.452285 -235.216294 
L 354.656146 -228.106801 
L 353.860006 -222.473677 
L 353.063866 -219.356056 
L 352.267726 -218.870661 
L 351.471586 -220.327731 
L 350.675446 -222.590327 
L 349.879306 -224.477544 
L 349.083166 -225.141057 
L 348.287026 -224.362132 
L 347.490886 -222.623578 
L 346.694746 -220.834018 
L 345.898606 -219.814129 
L 345.102467 -219.870578 
L 344.306327 -220.714946 
L 343.510187 -221.690424 
L 342.714047 -222.080686 
L 341.917907 -221.355402 
L 341.121767 -219.366395 
L 340.325627 -216.500303 
L 339.529487 -213.66737 
L 338.733347 -212.016605 
L 337.937207 -212.459147 
L 337.141067 -215.249931 
L 336.344928 -219.857753 
L 335.548788 -225.168507 
L 334.752648 -229.884803 
L 333.956508 -232.940577 
L 333.160368 -233.806219 
L 332.364228 -232.615909 
L 331.568088 -230.086604 
L 330.771948 -227.254796 
L 329.975808 -225.119849 
L 329.179668 -224.308393 
L 328.383528 -224.864918 
L 327.587389 -226.248862 
L 326.791249 -227.563063 
L 325.995109 -227.941102 
L 325.198969 -226.929941 
L 324.402829 -224.689621 
L 323.606689 -221.916055 
L 322.810549 -219.541955 
L 322.014409 -218.390352 
L 321.218269 -218.937978 
L 320.422129 -221.226956 
L 319.625989 -224.888841 
L 318.82985 -229.243844 
L 318.03371 -233.441702 
L 317.23757 -236.615258 
L 316.44143 -238.04904 
L 315.64529 -237.371133 
L 314.84915 -234.70697 
L 314.05301 -230.683679 
L 313.25687 -226.24997 
L 312.46073 -222.394422 
L 311.66459 -219.871508 
L 310.86845 -218.994457 
L 310.072311 -219.531814 
L 309.276171 -220.784908 
L 308.480031 -221.909793 
L 307.683891 -222.372092 
L 306.887751 -222.24038 
L 306.091611 -222.094154 
L 305.295471 -222.628765 
L 304.499331 -224.273903 
L 303.703191 -227.050341 
L 302.907051 -230.621599 
L 302.110911 -234.403625 
L 301.314771 -237.704009 
L 300.518632 -239.930238 
L 299.722492 -240.819246 
L 298.926352 -240.542065 
L 298.130212 -239.608663 
L 297.334072 -238.673129 
L 296.537932 -238.384429 
L 295.741792 -239.296044 
L 294.945652 -241.748662 
L 294.149512 -245.709608 
L 293.353372 -250.682527 
L 292.557232 -255.807112 
L 291.761093 -260.118281 
L 290.964953 -262.803567 
L 290.168813 -263.342178 
L 289.372673 -261.547849 
L 288.576533 -257.587014 
L 287.780393 -251.975215 
L 286.984253 -245.509655 
L 286.188113 -239.149213 
L 285.391973 -233.898973 
L 284.595833 -230.702794 
L 283.799693 -230.277294 
L 283.003554 -232.86631 
L 282.207414 -238.04515 
L 281.411274 -244.773477 
L 280.615134 -251.726789 
L 279.818994 -257.677387 
L 279.022854 -261.669631 
L 278.226714 -263.007729 
L 277.430574 -261.316584 
L 276.634434 -256.776221 
L 275.838294 -250.289084 
L 275.042154 -243.325631 
L 274.246015 -237.462244 
L 273.449875 -233.846138 
L 272.653735 -232.857579 
L 271.857595 -234.109151 
L 271.061455 -236.735836 
L 270.265315 -239.811805 
L 269.469175 -242.702634 
L 268.673035 -245.199827 
L 267.876895 -247.40007 
L 267.080755 -249.454471 
L 266.284615 -251.383172 
L 265.488475 -253.036952 
L 264.692336 -254.126244 
L 263.896196 -254.236567 
L 263.100056 -252.895257 
L 262.303916 -249.804164 
L 261.507776 -245.162447 
L 260.711636 -239.798909 
L 259.915496 -234.89868 
L 259.119356 -231.41304 
L 258.323216 -229.537464 
L 257.527076 -228.637441 
L 256.730936 -227.634001 
L 255.934797 -225.542031 
L 255.138657 -221.888431 
L 254.342517 -216.904763 
L 253.546377 -211.45567 
L 252.750237 -206.695597 
L 251.954097 -203.565675 
L 251.157957 -202.382736 
L 250.361817 -202.745764 
L 249.565677 -203.767302 
L 248.769537 -204.451591 
L 247.973397 -204.058286 
L 247.177258 -202.39268 
L 246.381118 -199.944809 
L 245.584978 -197.717144 
L 244.788838 -196.68988 
L 243.992698 -197.201649 
L 243.196558 -198.715791 
L 242.400418 -200.171552 
L 241.604278 -200.643735 
L 240.808138 -199.864239 
L 240.011998 -198.354362 
L 239.215858 -197.220258 
L 238.419719 -197.822697 
L 237.623579 -201.426502 
L 236.827439 -208.752478 
L 236.031299 -219.415013 
L 235.235159 -231.577419 
L 234.439019 -242.32626 
L 233.642879 -248.755261 
L 232.846739 -249.125201 
L 232.050599 -243.495993 
L 231.254459 -233.628838 
L 230.458319 -222.290057 
L 229.66218 -212.294364 
L 228.86604 -205.687648 
L 228.0699 -203.340359 
L 227.27376 -204.981816 
L 226.47762 -209.531588 
L 225.68148 -215.54295 
L 224.88534 -221.607854 
L 224.0892 -226.638466 
L 223.29306 -230.015478 
L 222.49692 -231.635753 
L 221.70078 -231.872495 
L 220.90464 -231.415696 
L 220.108501 -230.979118 
L 219.312361 -230.997074 
L 218.516221 -231.536847 
L 217.720081 -232.474985 
L 216.923941 -233.693603 
L 216.127801 -235.052422 
L 215.331661 -236.175108 
L 214.535521 -236.343501 
L 213.739381 -234.751958 
L 212.943241 -231.013905 
L 212.147101 -225.517937 
L 211.350962 -219.3545 
L 210.554822 -213.916578 
L 209.758682 -210.475649 
L 208.962542 -209.878744 
L 208.166402 -212.320599 
L 207.370262 -217.178257 
L 206.574122 -223.01981 
L 205.777982 -227.919806 
L 204.981842 -230.069932 
L 204.185702 -228.446189 
L 203.389562 -223.20474 
L 202.593423 -215.626248 
L 201.797283 -207.650527 
L 201.001143 -201.185817 
L 200.205003 -197.443229 
L 199.408863 -196.558518 
L 198.612723 -197.672276 
L 197.816583 -199.433705 
L 197.020443 -200.685184 
L 196.224303 -201.002209 
L 195.428163 -200.837654 
L 194.632023 -201.216567 
L 193.835884 -203.166374 
L 193.039744 -207.194205 
L 192.243604 -213.022408 
L 191.447464 -219.592435 
L 190.651324 -225.288826 
L 189.855184 -228.39941 
L 189.059044 -227.772661 
L 188.262904 -223.421077 
L 187.466764 -216.706578 
L 186.670624 -209.900297 
L 185.874484 -205.272352 
L 185.078344 -204.234992 
L 184.282205 -207.038177 
L 183.486065 -212.979958 
L 182.689925 -220.744963 
L 181.893785 -228.725215 
L 181.097645 -235.426602 
L 180.301505 -239.917423 
L 179.505365 -242.065265 
L 178.709225 -242.397056 
L 177.913085 -241.694095 
L 177.116945 -240.602453 
L 176.320805 -239.46062 
L 175.524666 -238.332021 
L 174.728526 -237.116793 
L 173.932386 -235.674103 
L 173.136246 -233.946743 
L 172.340106 -232.040477 
L 171.543966 -230.187814 
L 170.747826 -228.609727 
L 169.951686 -227.381219 
L 169.155546 -226.392025 
L 168.359406 -225.41147 
L 167.563266 -224.228342 
L 166.767127 -222.832963 
L 165.970987 -221.55405 
L 165.174847 -221.003594 
L 164.378707 -221.754628 
L 163.582567 -223.904159 
L 162.786427 -226.876683 
L 161.990287 -229.694222 
L 161.194147 -231.505675 
L 160.398007 -231.95171 
L 159.601867 -231.179852 
L 158.805727 -229.666002 
L 158.009588 -228.048295 
L 157.213448 -226.976586 
L 156.417308 -226.886913 
L 155.621168 -227.753798 
L 154.825028 -229.035792 
L 154.028888 -229.966237 
L 153.232748 -230.051331 
L 152.436608 -229.415867 
L 151.640468 -228.730292 
L 150.844328 -228.782035 
L 150.048188 -230.021882 
L 149.252049 -232.360155 
L 148.455909 -235.220602 
L 147.659769 -237.740986 
L 146.863629 -239.061486 
L 146.067489 -238.643408 
L 145.271349 -236.486349 
L 144.475209 -233.106466 
L 143.679069 -229.276904 
L 142.882929 -225.712668 
L 142.086789 -222.90722 
L 141.290649 -221.156708 
L 140.494509 -220.642361 
L 139.69837 -221.437029 
L 138.90223 -223.424049 
L 138.10609 -226.244939 
L 137.30995 -229.377604 
L 136.51381 -232.287318 
L 135.71767 -234.507614 
L 134.92153 -235.605092 
L 134.12539 -235.129121 
L 133.32925 -232.691656 
L 132.53311 -228.200483 
L 131.73697 -222.077025 
L 130.940831 -215.24565 
L 130.144691 -208.841461 
L 129.348551 -203.782716 
L 128.552411 -200.432584 
L 127.756271 -198.500048 
L 126.960131 -197.189216 
L 126.163991 -195.516957 
L 125.367851 -192.705737 
L 124.571711 -188.548939 
L 123.775571 -183.599552 
L 122.979431 -179.030402 
L 122.183292 -176.135888 
L 121.387152 -175.661843 
L 120.591012 -177.342704 
L 119.794872 -179.980567 
L 118.998732 -182.04293 
L 118.202592 -182.417792 
L 117.406452 -180.927709 
L 116.610312 -178.362081 
L 115.814172 -176.022916 
L 115.018032 -175.064226 
L 114.221892 -176.016745 
L 113.425753 -178.655649 
L 112.629613 -182.129938 
L 111.833473 -185.267573 
L 111.037333 -186.981585 
L 110.241193 -186.639536 
L 109.445053 -184.245865 
L 108.648913 -180.386871 
L 107.852773 -176.016527 
L 107.056633 -172.176818 
L 106.260493 -169.6463 
L 105.464353 -168.542713 
L 104.668213 -168.205144 
L 103.872074 -167.657771 
L 103.075934 -166.332337 
L 102.279794 -164.466702 
L 101.483654 -162.946912 
L 100.687514 -162.751249 
L 99.891374 -164.382204 
L 99.095234 -167.628818 
L 98.299094 -171.682987 
L 97.502954 -175.387239 
L 96.706814 -177.477211 
L 95.910674 -176.915841 
L 95.114535 -173.385752 
L 94.318395 -167.664488 
L 93.522255 -161.49826 
L 92.726115 -156.92716 
L 91.929975 -155.427538 
L 91.133835 -157.361289 
L 90.337695 -161.948117 
L 89.541555 -167.626864 
L 88.745415 -172.584672 
L 87.949275 -175.297103 
L 87.153135 -174.955796 
L 86.356996 -171.674459 
L 85.560856 -166.412491 
L 84.764716 -160.640697 
L 83.968576 -155.862419 
L 83.172436 -153.15542 
L 82.376296 -152.881084 
L 81.580156 -154.616609 
L 80.784016 -157.279705 
L 79.987876 -159.433322 
L 79.191736 -159.78548 
L 78.395596 -157.717634 
L 77.599457 -153.513122 
L 76.803317 -148.142252 
L 76.007177 -142.768752 
L 75.211037 -138.304232 
L 74.414897 -135.229704 
L 73.618757 -133.589989 
L 72.822617 -133.022013 
L 72.026477 -132.955495 
L 71.230337 -133.04396 
L 70.434197 -133.536018 
L 69.638057 -135.250001 
L 68.841918 -138.956182 
L 68.045778 -144.434184 
L 67.249638 -150.345764 
L 66.453498 -155.340811 
L 65.657358 -158.948829 
L 64.861218 -161.233398 
L 64.065078 -162.121886 
L 63.268938 -161.754465 
L 62.472798 -161.375286 
L 61.676658 -163.527306 
L 60.880518 -169.984142 
L 60.084378 -178.680643 
L 59.288239 -185.526169 
L 58.492099 -187.923307 
L 57.695959 -186.02931 
L 56.899819 -182.165285 
L 56.103679 -178.590791 
L 55.307539 -175.906932 
L 54.511399 -174.161537 
L 53.715259 -174.144835 
L 52.919119 -176.822063 
L 52.122979 -181.178187 
L 51.326839 -183.900594 
L 50.5307 -182.279817 
L 49.73456 -176.259978 
L 48.93842 -168.250004 
L 48.14228 -161.408444 
L 47.34614 -157.814109 
L 46.55 -158.201388 
z
" style="stroke: #e41a1c; stroke-opacity: 0.3"/>
    </defs>
    <g clip-path="url(#p3fca8f1e14)">
     <use xlink:href="#m019e07b04c" x="0" y="360" style="fill: #e41a1c; fill-opacity: 0.3; stroke: #e41a1c; stroke-opacity: 0.3"/>
    </g>
   </g>
   <g id="PolyCollection_2">
    <defs>
     <path id="m25097ca284" d="M 46.55 -160.78323 
L 46.55 -134.369283 
L 47.34614 -133.488886 
L 48.14228 -132.340257 
L 48.93842 -131.11523 
L 49.73456 -130.105061 
L 50.5307 -129.655619 
L 51.326839 -130.023912 
L 52.122979 -131.188964 
L 52.919119 -132.748834 
L 53.715259 -134.0092 
L 54.511399 -134.261658 
L 55.307539 -133.107602 
L 56.103679 -130.629006 
L 56.899819 -127.347241 
L 57.695959 -124.051693 
L 58.492099 -121.568768 
L 59.288239 -120.506522 
L 60.084378 -121.03437 
L 60.880518 -122.804266 
L 61.676658 -125.096105 
L 62.472798 -127.111245 
L 63.268938 -128.220042 
L 64.065078 -128.08601 
L 64.861218 -126.714409 
L 65.657358 -124.452557 
L 66.453498 -121.923982 
L 67.249638 -119.855648 
L 68.045778 -118.80283 
L 68.841918 -118.917444 
L 69.638057 -119.955622 
L 70.434197 -121.502381 
L 71.230337 -123.149226 
L 72.026477 -124.503583 
L 72.822617 -125.164276 
L 73.618757 -124.77684 
L 74.414897 -123.169507 
L 75.211037 -120.474801 
L 76.007177 -117.101367 
L 76.803317 -113.58009 
L 77.599457 -110.458933 
L 78.395596 -108.284648 
L 79.191736 -107.544589 
L 79.987876 -108.508803 
L 80.784016 -111.073541 
L 81.580156 -114.747389 
L 82.376296 -118.80802 
L 83.172436 -122.490351 
L 83.968576 -125.079008 
L 84.764716 -125.976607 
L 85.560856 -124.859057 
L 86.356996 -121.883249 
L 87.153135 -117.778322 
L 87.949275 -113.659527 
L 88.745415 -110.617697 
L 89.541555 -109.321497 
L 90.337695 -109.82426 
L 91.133835 -111.616144 
L 91.929975 -113.839744 
L 92.726115 -115.558922 
L 93.522255 -116.024073 
L 94.318395 -114.904361 
L 95.114535 -112.424092 
L 95.910674 -109.31703 
L 96.706814 -106.567439 
L 97.502954 -105.03482 
L 98.299094 -105.143117 
L 99.095234 -106.760625 
L 99.891374 -109.276601 
L 100.687514 -111.816767 
L 101.483654 -113.538138 
L 102.279794 -113.928341 
L 103.075934 -112.9905 
L 103.872074 -111.20146 
L 104.668213 -109.252061 
L 105.464353 -107.730947 
L 106.260493 -106.945073 
L 107.056633 -106.936119 
L 107.852773 -107.577355 
L 108.648913 -108.634373 
L 109.445053 -109.814751 
L 110.241193 -110.864864 
L 111.037333 -111.683785 
L 111.833473 -112.357552 
L 112.629613 -113.051499 
L 113.425753 -113.830992 
L 114.221892 -114.569704 
L 115.018032 -115.030011 
L 115.814172 -115.042355 
L 116.610312 -114.631704 
L 117.406452 -114.008615 
L 118.202592 -113.457485 
L 118.998732 -113.194679 
L 119.794872 -113.252299 
L 120.591012 -113.429065 
L 121.387152 -113.341918 
L 122.183292 -112.583572 
L 122.979431 -110.932498 
L 123.775571 -108.510479 
L 124.571711 -105.794704 
L 125.367851 -103.46865 
L 126.163991 -102.179987 
L 126.960131 -102.31297 
L 127.756271 -103.863472 
L 128.552411 -106.444489 
L 129.348551 -109.399273 
L 130.144691 -111.988974 
L 130.940831 -113.61467 
L 131.73697 -114.007076 
L 132.53311 -113.306165 
L 133.32925 -111.982899 
L 134.12539 -110.620841 
L 134.92153 -109.651807 
L 135.71767 -109.178276 
L 136.51381 -108.977176 
L 137.30995 -108.680475 
L 138.10609 -108.026746 
L 138.90223 -107.037671 
L 139.69837 -106.02414 
L 140.494509 -105.43165 
L 141.290649 -105.617189 
L 142.086789 -106.666499 
L 142.882929 -108.325015 
L 143.679069 -110.061379 
L 144.475209 -111.235059 
L 145.271349 -111.308803 
L 146.067489 -110.035326 
L 146.863629 -107.558826 
L 147.659769 -104.395645 
L 148.455909 -101.282114 
L 149.252049 -98.918949 
L 150.048188 -97.711569 
L 150.844328 -97.645008 
L 151.640468 -98.369769 
L 152.436608 -99.4342 
L 153.232748 -100.499468 
L 154.028888 -101.420815 
L 154.825028 -102.217515 
L 155.621168 -103.025546 
L 156.417308 -104.06873 
L 157.213448 -105.582272 
L 158.009588 -107.644833 
L 158.805727 -110.023438 
L 159.601867 -112.180091 
L 160.398007 -113.467527 
L 161.194147 -113.404753 
L 161.990287 -111.874833 
L 162.786427 -109.152311 
L 163.582567 -105.787892 
L 164.378707 -102.440192 
L 165.174847 -99.72132 
L 165.970987 -98.08139 
L 166.767127 -97.735447 
L 167.563266 -98.629132 
L 168.359406 -100.441705 
L 169.155546 -102.633525 
L 169.951686 -104.545539 
L 170.747826 -105.540808 
L 171.543966 -105.152001 
L 172.340106 -103.188713 
L 173.136246 -99.778776 
L 173.932386 -95.350167 
L 174.728526 -90.571103 
L 175.524666 -86.245905 
L 176.320805 -83.148719 
L 177.116945 -81.811777 
L 177.913085 -82.350196 
L 178.709225 -84.42343 
L 179.505365 -87.370965 
L 180.301505 -90.457519 
L 181.097645 -93.096641 
L 181.893785 -94.954531 
L 182.689925 -95.9382 
L 183.486065 -96.138658 
L 184.282205 -95.783406 
L 185.078344 -95.191076 
L 185.874484 -94.689857 
L 186.670624 -94.509243 
L 187.466764 -94.714549 
L 188.262904 -95.231204 
L 189.059044 -95.933121 
L 189.855184 -96.730405 
L 190.651324 -97.607888 
L 191.447464 -98.606797 
L 192.243604 -99.772419 
L 193.039744 -101.099056 
L 193.835884 -102.497102 
L 194.632023 -103.794656 
L 195.428163 -104.772102 
L 196.224303 -105.217011 
L 197.020443 -104.983102 
L 197.816583 -104.039864 
L 198.612723 -102.502377 
L 199.408863 -100.630676 
L 200.205003 -98.790679 
L 201.001143 -97.379438 
L 201.797283 -96.729974 
L 202.593423 -97.017339 
L 203.389562 -98.191949 
L 204.185702 -99.970212 
L 204.981842 -101.901674 
L 205.777982 -103.498144 
L 206.574122 -104.374971 
L 207.370262 -104.354509 
L 208.166402 -103.516558 
L 208.962542 -102.202433 
L 209.758682 -100.962482 
L 210.554822 -100.421088 
L 211.350962 -101.068746 
L 212.147101 -103.05784 
L 212.943241 -106.102958 
L 213.739381 -109.539808 
L 214.535521 -112.521172 
L 215.331661 -114.273891 
L 216.127801 -114.328429 
L 216.923941 -112.653065 
L 217.720081 -109.659064 
L 218.516221 -106.080803 
L 219.312361 -102.768539 
L 220.108501 -100.45046 
L 220.90464 -99.524555 
L 221.70078 -99.941461 
L 222.49692 -101.233226 
L 223.29306 -102.70442 
L 224.0892 -103.721358 
L 224.88534 -103.95865 
L 225.68148 -103.477066 
L 226.47762 -102.623236 
L 227.27376 -101.842816 
L 228.0699 -101.503066 
L 228.86604 -101.77195 
L 229.66218 -102.564527 
L 230.458319 -103.561836 
L 231.254459 -104.308511 
L 232.050599 -104.374605 
L 232.846739 -103.533302 
L 233.642879 -101.889308 
L 234.439019 -99.902702 
L 235.235159 -98.282926 
L 236.031299 -97.774453 
L 236.827439 -98.906844 
L 237.623579 -101.804457 
L 238.419719 -106.123871 
L 239.215858 -111.126275 
L 240.011998 -115.842197 
L 240.808138 -119.280608 
L 241.604278 -120.655144 
L 242.400418 -119.598003 
L 243.196558 -116.297138 
L 243.992698 -111.477194 
L 244.788838 -106.200898 
L 245.584978 -101.561452 
L 246.381118 -98.386742 
L 247.177258 -97.060741 
L 247.973397 -97.512192 
L 248.769537 -99.344064 
L 249.565677 -102.012311 
L 250.361817 -104.966379 
L 251.157957 -107.733966 
L 251.954097 -109.98438 
L 252.750237 -111.590271 
L 253.546377 -112.658357 
L 254.342517 -113.475708 
L 255.138657 -114.364105 
L 255.934797 -115.517069 
L 256.730936 -116.915384 
L 257.527076 -118.353736 
L 258.323216 -119.536202 
L 259.119356 -120.178259 
L 259.915496 -120.085539 
L 260.711636 -119.211153 
L 261.507776 -117.688904 
L 262.303916 -115.822236 
L 263.100056 -114.016733 
L 263.896196 -112.675064 
L 264.692336 -112.092677 
L 265.488475 -112.384793 
L 266.284615 -113.459267 
L 267.080755 -115.041874 
L 267.876895 -116.753671 
L 268.673035 -118.22334 
L 269.469175 -119.197708 
L 270.265315 -119.607722 
L 271.061455 -119.564187 
L 271.857595 -119.288717 
L 272.653735 -119.012311 
L 273.449875 -118.884169 
L 274.246015 -118.924565 
L 275.042154 -119.031975 
L 275.838294 -119.030221 
L 276.634434 -118.73217 
L 277.430574 -118.001946 
L 278.226714 -116.802357 
L 279.022854 -115.211869 
L 279.818994 -113.398131 
L 280.615134 -111.554571 
L 281.411274 -109.831979 
L 282.207414 -108.302609 
L 283.003554 -106.972338 
L 283.799693 -105.825613 
L 284.595833 -104.870816 
L 285.391973 -104.156445 
L 286.188113 -103.745454 
L 286.984253 -103.66131 
L 287.780393 -103.844459 
L 288.576533 -104.158466 
L 289.372673 -104.448615 
L 290.168813 -104.609003 
L 290.964953 -104.605731 
L 291.761093 -104.446372 
L 292.557232 -104.134978 
L 293.353372 -103.657602 
L 294.149512 -103.003841 
L 294.945652 -102.193086 
L 295.741792 -101.284247 
L 296.537932 -100.381561 
L 297.334072 -99.647515 
L 298.130212 -99.298465 
L 298.926352 -99.547334 
L 299.722492 -100.496437 
L 300.518632 -102.03439 
L 301.314771 -103.802794 
L 302.110911 -105.263529 
L 302.907051 -105.852129 
L 303.703191 -105.173926 
L 304.499331 -103.179395 
L 305.295471 -100.241384 
L 306.091611 -97.076777 
L 306.887751 -94.520045 
L 307.683891 -93.232207 
L 308.480031 -93.466373 
L 309.276171 -94.984046 
L 310.072311 -97.140764 
L 310.86845 -99.089346 
L 311.66459 -100.02891 
L 312.46073 -99.437558 
L 313.25687 -97.228856 
L 314.05301 -93.78117 
L 314.84915 -89.826874 
L 315.64529 -86.238507 
L 316.44143 -83.780627 
L 317.23757 -82.900788 
L 318.03371 -83.619283 
L 318.82985 -85.547318 
L 319.625989 -88.019715 
L 320.422129 -90.292743 
L 321.218269 -91.748048 
L 322.014409 -92.050321 
L 322.810549 -91.214973 
L 323.606689 -89.562147 
L 324.402829 -87.580227 
L 325.198969 -85.77084 
L 325.995109 -84.544976 
L 326.791249 -84.179023 
L 327.587389 -84.786368 
L 328.383528 -86.278826 
L 329.179668 -88.353469 
L 329.975808 -90.556381 
L 330.771948 -92.415382 
L 331.568088 -93.562319 
L 332.364228 -93.775553 
L 333.160368 -92.966118 
L 333.956508 -91.185851 
L 334.752648 -88.678803 
L 335.548788 -85.903195 
L 336.344928 -83.441633 
L 337.141067 -81.814124 
L 337.937207 -81.298801 
L 338.733347 -81.85171 
L 339.529487 -83.136594 
L 340.325627 -84.621336 
L 341.121767 -85.706091 
L 341.917907 -85.875972 
L 342.714047 -84.861056 
L 343.510187 -82.746699 
L 344.306327 -79.969317 
L 345.102467 -77.18721 
L 345.898606 -75.084708 
L 346.694746 -74.183876 
L 347.490886 -74.705339 
L 348.287026 -76.498195 
L 349.083166 -79.066892 
L 349.879306 -81.715284 
L 350.675446 -83.777056 
L 351.471586 -84.839172 
L 352.267726 -84.84918 
L 353.063866 -84.062329 
L 353.860006 -82.887902 
L 354.656146 -81.736728 
L 355.452285 -80.91956 
L 356.248425 -80.58584 
L 357.044565 -80.701894 
L 357.840705 -81.096681 
L 358.636845 -81.577394 
L 359.432985 -82.058786 
L 360.229125 -82.623323 
L 361.025265 -83.465501 
L 361.821405 -84.753568 
L 362.617545 -86.502549 
L 363.413685 -88.538639 
L 364.209824 -90.561943 
L 365.005964 -92.254791 
L 365.802104 -93.381248 
L 366.598244 -93.851216 
L 367.394384 -93.735411 
L 368.190524 -93.220479 
L 368.986664 -92.514025 
L 369.782804 -91.746021 
L 370.578944 -90.928571 
L 371.375084 -90.00038 
L 372.171224 -88.918257 
L 372.967363 -87.726819 
L 373.763503 -86.567321 
L 374.559643 -85.636943 
L 375.355783 -85.130416 
L 376.151923 -85.183274 
L 376.948063 -85.821331 
L 377.744203 -86.929078 
L 378.540343 -88.265059 
L 379.336483 -89.537199 
L 380.132623 -90.508845 
L 380.928763 -91.079944 
L 381.724902 -91.300357 
L 382.521042 -91.309091 
L 383.317182 -91.230757 
L 384.113322 -91.084932 
L 384.909462 -90.765268 
L 385.705602 -90.112809 
L 386.501742 -89.04849 
L 387.297882 -87.680811 
L 388.094022 -86.312838 
L 388.890162 -85.337658 
L 389.686302 -85.077235 
L 390.482441 -85.639625 
L 391.278581 -86.849993 
L 392.074721 -88.280074 
L 392.870861 -89.372284 
L 393.667001 -89.626172 
L 394.463141 -88.785981 
L 395.259281 -86.955361 
L 396.055421 -84.585202 
L 396.851561 -82.328004 
L 397.647701 -80.806795 
L 398.443841 -80.388999 
L 399.239981 -81.064613 
L 400.03612 -82.483978 
L 400.83226 -84.125679 
L 401.6284 -85.500173 
L 402.42454 -86.303355 
L 403.22068 -86.492449 
L 404.01682 -86.291989 
L 404.81296 -86.122804 
L 405.6091 -86.436355 
L 406.40524 -87.493872 
L 407.20138 -89.208954 
L 407.99752 -91.161627 
L 408.793659 -92.782037 
L 409.589799 -93.594036 
L 410.385939 -93.390459 
L 411.182079 -92.281069 
L 411.978219 -90.633315 
L 412.774359 -88.95185 
L 413.570499 -87.729966 
L 413.570499 -162.151609 
L 413.570499 -162.151609 
L 412.774359 -162.908437 
L 411.978219 -164.42977 
L 411.182079 -166.220268 
L 410.385939 -167.680696 
L 409.589799 -168.316814 
L 408.793659 -167.906759 
L 407.99752 -166.550659 
L 407.20138 -164.599942 
L 406.40524 -162.521533 
L 405.6091 -160.751419 
L 404.81296 -159.562332 
L 404.01682 -158.964843 
L 403.22068 -158.688969 
L 402.42454 -158.301809 
L 401.6284 -157.444126 
L 400.83226 -156.057297 
L 400.03612 -154.452265 
L 399.239981 -153.177995 
L 398.443841 -152.77351 
L 397.647701 -153.534222 
L 396.851561 -155.38451 
L 396.055421 -157.886813 
L 395.259281 -160.376427 
L 394.463141 -162.181176 
L 393.667001 -162.853026 
L 392.870861 -162.323244 
L 392.074721 -160.916877 
L 391.278581 -159.219853 
L 390.482441 -157.853146 
L 389.686302 -157.247344 
L 388.890162 -157.512781 
L 388.094022 -158.456258 
L 387.297882 -159.718933 
L 386.501742 -160.949013 
L 385.705602 -161.921072 
L 384.909462 -162.564643 
L 384.113322 -162.921251 
L 383.317182 -163.070998 
L 382.521042 -163.061209 
L 381.724902 -162.861273 
L 380.928763 -162.366144 
L 380.132623 -161.456033 
L 379.336483 -160.08731 
L 378.540343 -158.365336 
L 377.744203 -156.555637 
L 376.948063 -155.019001 
L 376.151923 -154.089231 
L 375.355783 -153.941717 
L 374.559643 -154.519262 
L 373.763503 -155.566326 
L 372.967363 -156.76257 
L 372.171224 -157.878263 
L 371.375084 -158.856538 
L 370.578944 -159.778766 
L 369.782804 -160.749475 
L 368.986664 -161.78225 
L 368.190524 -162.747522 
L 367.394384 -163.394555 
L 366.598244 -163.43267 
L 365.802104 -162.648583 
L 365.005964 -161.022037 
L 364.209824 -158.783555 
L 363.413685 -156.36586 
L 362.617545 -154.252227 
L 361.821405 -152.793769 
L 361.025265 -152.091257 
L 360.229125 -151.987811 
L 359.432985 -152.151141 
L 358.636845 -152.201136 
L 357.840705 -151.850355 
L 357.044565 -151.025451 
L 356.248425 -149.920277 
L 355.452285 -148.933042 
L 354.656146 -148.486379 
L 353.860006 -148.804537 
L 353.063866 -149.77381 
L 352.267726 -150.97742 
L 351.471586 -151.878298 
L 350.675446 -152.034743 
L 349.879306 -151.254899 
L 349.083166 -149.664173 
L 348.287026 -147.686827 
L 347.490886 -145.935496 
L 346.694746 -145.01644 
L 345.898606 -145.306732 
L 345.102467 -146.800669 
L 344.306327 -149.106111 
L 343.510187 -151.59203 
L 342.714047 -153.608385 
L 341.917907 -154.6849 
L 341.121767 -154.656832 
L 340.325627 -153.702278 
L 339.529487 -152.281743 
L 338.733347 -150.98212 
L 337.937207 -150.312865 
L 337.141067 -150.545892 
L 336.344928 -151.670381 
L 335.548788 -153.452296 
L 334.752648 -155.526897 
L 333.956508 -157.470856 
L 333.160368 -158.867238 
L 332.364228 -159.401882 
L 331.568088 -158.971903 
L 330.771948 -157.725726 
L 329.975808 -155.986877 
L 329.179668 -154.116462 
L 328.383528 -152.423099 
L 327.587389 -151.161416 
L 326.791249 -150.554118 
L 325.995109 -150.760043 
L 325.198969 -151.789354 
L 324.402829 -153.437201 
L 323.606689 -155.299967 
L 322.810549 -156.871849 
L 322.014409 -157.673028 
L 321.218269 -157.373595 
L 320.422129 -155.90432 
L 319.625989 -153.534767 
L 318.82985 -150.870654 
L 318.03371 -148.730429 
L 317.23757 -147.914276 
L 316.44143 -148.936022 
L 315.64529 -151.814122 
L 314.84915 -156.006359 
L 314.05301 -160.531147 
L 313.25687 -164.254567 
L 312.46073 -166.25498 
L 311.66459 -166.137284 
L 310.86845 -164.178993 
L 310.072311 -161.246283 
L 309.276171 -158.498006 
L 308.480031 -156.978326 
L 307.683891 -157.257526 
L 306.887751 -159.267999 
L 306.091611 -162.383619 
L 305.295471 -165.677346 
L 304.499331 -168.240363 
L 303.703191 -169.454886 
L 302.907051 -169.147748 
L 302.110911 -167.593577 
L 301.314771 -165.378639 
L 300.518632 -163.178139 
L 299.722492 -161.533225 
L 298.926352 -160.713347 
L 298.130212 -160.701115 
L 297.334072 -161.274614 
L 296.537932 -162.133584 
L 295.741792 -163.021602 
L 294.945652 -163.806418 
L 294.149512 -164.487759 
L 293.353372 -165.127798 
L 292.557232 -165.749405 
L 291.761093 -166.280625 
L 290.964953 -166.591257 
L 290.168813 -166.587394 
L 289.372673 -166.284334 
L 288.576533 -165.808299 
L 287.780393 -165.341704 
L 286.984253 -165.061004 
L 286.188113 -165.098499 
L 285.391973 -165.525533 
L 284.595833 -166.345927 
L 283.799693 -167.501045 
L 283.003554 -168.89288 
L 282.207414 -170.419499 
L 281.411274 -172.003632 
L 280.615134 -173.597784 
L 279.818994 -175.165355 
L 279.022854 -176.650984 
L 278.226714 -177.959637 
L 277.430574 -178.965242 
L 276.634434 -179.557796 
L 275.838294 -179.708257 
L 275.042154 -179.506538 
L 274.246015 -179.13828 
L 273.449875 -178.805324 
L 272.653735 -178.631163 
L 271.857595 -178.600799 
L 271.061455 -178.563417 
L 270.265315 -178.294202 
L 269.469175 -177.587786 
L 268.673035 -176.347936 
L 267.876895 -174.642802 
L 267.080755 -172.70779 
L 266.284615 -170.894652 
L 265.488475 -169.58008 
L 264.692336 -169.05809 
L 263.896196 -169.44971 
L 263.100056 -170.663898 
L 262.303916 -172.42473 
L 261.507776 -174.349673 
L 260.711636 -176.046516 
L 259.915496 -177.202889 
L 259.119356 -177.654694 
L 258.323216 -177.418604 
L 257.527076 -176.668551 
L 256.730936 -175.653889 
L 255.934797 -174.595684 
L 255.138657 -173.614862 
L 254.342517 -172.714068 
L 253.546377 -171.789806 
L 252.750237 -170.648392 
L 251.954097 -169.040822 
L 251.157957 -166.758584 
L 250.361817 -163.787264 
L 249.565677 -160.432813 
L 248.769537 -157.315294 
L 247.973397 -155.197145 
L 247.177258 -154.718205 
L 246.381118 -156.16766 
L 245.584978 -159.387696 
L 244.788838 -163.817387 
L 243.992698 -168.631081 
L 243.196558 -172.918189 
L 242.400418 -175.861779 
L 241.604278 -176.89281 
L 240.808138 -175.812764 
L 240.011998 -172.863414 
L 239.215858 -168.695577 
L 238.419719 -164.207136 
L 237.623579 -160.291117 
L 236.827439 -157.594485 
L 236.031299 -156.381336 
L 235.235159 -156.529184 
L 234.439019 -157.625365 
L 233.642879 -159.112773 
L 232.846739 -160.446828 
L 232.050599 -161.236663 
L 231.254459 -161.341314 
L 230.458319 -160.889955 
L 229.66218 -160.211009 
L 228.86604 -159.68662 
L 228.0699 -159.581477 
L 227.27376 -159.915787 
L 226.47762 -160.448261 
L 225.68148 -160.791258 
L 224.88534 -160.606522 
L 224.0892 -159.776376 
L 223.29306 -158.462838 
L 222.49692 -157.049154 
L 221.70078 -156.025631 
L 220.90464 -155.86529 
L 220.108501 -156.887592 
L 219.312361 -159.120751 
L 218.516221 -162.22214 
L 217.720081 -165.524457 
L 216.923941 -168.219544 
L 216.127801 -169.61444 
L 215.331661 -169.355219 
L 214.535521 -167.532965 
L 213.739381 -164.638266 
L 212.943241 -161.389283 
L 212.147101 -158.506218 
L 211.350962 -156.517914 
L 210.554822 -155.653506 
L 209.758682 -155.823644 
L 208.962542 -156.671914 
L 208.166402 -157.682386 
L 207.370262 -158.33327 
L 206.574122 -158.261506 
L 205.777982 -157.370829 
L 204.981842 -155.831322 
L 204.185702 -153.985246 
L 203.389562 -152.227025 
L 202.593423 -150.913411 
L 201.797283 -150.310149 
L 201.001143 -150.5557 
L 200.205003 -151.634029 
L 199.408863 -153.366619 
L 198.612723 -155.43665 
L 197.816583 -157.448121 
L 197.020443 -159.010973 
L 196.224303 -159.834039 
L 195.428163 -159.79907 
L 194.632023 -158.987196 
L 193.835884 -157.642829 
L 193.039744 -156.086421 
L 192.243604 -154.609829 
L 191.447464 -153.392822 
L 190.651324 -152.468732 
L 189.855184 -151.74828 
L 189.059044 -151.087274 
L 188.262904 -150.366651 
L 187.466764 -149.552907 
L 186.670624 -148.719026 
L 185.874484 -148.017241 
L 185.078344 -147.601793 
L 184.282205 -147.514718 
L 183.486065 -147.584826 
L 182.689925 -147.426692 
L 181.893785 -146.591084 
L 181.097645 -144.800597 
L 180.301505 -142.124529 
L 179.505365 -138.991004 
L 178.709225 -136.048209 
L 177.913085 -133.970487 
L 177.116945 -133.298272 
L 176.320805 -134.332519 
L 175.524666 -137.063643 
L 174.728526 -141.134305 
L 173.932386 -145.872369 
L 173.136246 -150.429903 
L 172.340106 -154.005337 
L 171.543966 -156.059121 
L 170.747826 -156.432166 
L 169.951686 -155.339297 
L 169.155546 -153.2737 
L 168.359406 -150.878225 
L 167.563266 -148.817258 
L 166.767127 -147.655317 
L 165.970987 -147.747022 
L 165.174847 -149.158763 
L 164.378707 -151.648825 
L 163.582567 -154.721525 
L 162.786427 -157.749649 
L 161.990287 -160.133909 
L 161.194147 -161.445128 
L 160.398007 -161.496888 
L 159.601867 -160.3411 
L 158.805727 -158.229426 
L 158.009588 -155.573945 
L 157.213448 -152.884723 
L 156.417308 -150.642415 
L 155.621168 -149.115003 
L 154.825028 -148.221428 
L 154.028888 -147.587481 
L 153.232748 -146.809361 
L 152.436608 -145.738939 
L 151.640468 -144.586217 
L 150.844328 -143.797669 
L 150.048188 -143.826688 
L 149.252049 -144.938801 
L 148.455909 -147.106728 
L 147.659769 -149.982664 
L 146.863629 -152.950497 
L 146.067489 -155.283738 
L 145.271349 -156.392468 
L 144.475209 -156.061006 
L 143.679069 -154.549303 
L 142.882929 -152.495059 
L 142.086789 -150.657667 
L 141.290649 -149.62287 
L 140.494509 -149.602963 
L 139.69837 -150.415832 
L 138.90223 -151.634123 
L 138.10609 -152.813759 
L 137.30995 -153.683388 
L 136.51381 -154.216264 
L 135.71767 -154.580003 
L 134.92153 -155.009558 
L 134.12539 -155.657327 
L 133.32925 -156.472248 
L 132.53311 -157.158718 
L 131.73697 -157.249728 
L 130.940831 -156.290843 
L 130.144691 -154.076089 
L 129.348551 -150.824904 
L 128.552411 -147.190135 
L 127.756271 -144.061033 
L 126.960131 -142.232313 
L 126.163991 -142.092634 
L 125.367851 -143.489683 
L 124.571711 -145.83105 
L 123.775571 -148.348268 
L 122.979431 -150.38587 
L 122.183292 -151.59678 
L 121.387152 -151.989239 
L 120.591012 -151.838708 
L 119.794872 -151.520687 
L 118.998732 -151.332266 
L 118.202592 -151.369448 
L 117.406452 -151.514154 
L 116.610312 -151.538244 
L 115.814172 -151.260257 
L 115.018032 -150.649707 
L 114.221892 -149.814381 
L 113.425753 -148.906729 
L 112.629613 -148.041642 
L 111.833473 -147.265135 
L 111.037333 -146.542615 
L 110.241193 -145.749312 
L 109.445053 -144.709348 
L 108.648913 -143.32899 
L 107.852773 -141.759383 
L 107.056633 -140.435424 
L 106.260493 -139.897948 
L 105.464353 -140.475587 
L 104.668213 -142.048715 
L 103.872074 -144.070646 
L 103.075934 -145.797951 
L 102.279794 -146.560891 
L 101.483654 -145.968872 
L 100.687514 -144.035217 
L 99.891374 -141.216463 
L 99.095234 -138.319589 
L 98.299094 -136.248943 
L 97.502954 -135.671635 
L 96.706814 -136.760757 
L 95.910674 -139.135798 
L 95.114535 -142.001052 
L 94.318395 -144.403881 
L 93.522255 -145.538186 
L 92.726115 -145.029971 
L 91.929975 -143.107381 
L 91.133835 -140.548262 
L 90.337695 -138.386993 
L 89.541555 -137.504184 
L 88.745415 -138.304635 
L 87.949275 -140.624035 
L 87.153135 -143.848365 
L 86.356996 -147.127977 
L 85.560856 -149.57783 
L 84.764716 -150.452698 
L 83.968576 -149.353121 
L 83.172436 -146.412812 
L 82.376296 -142.30858 
L 81.580156 -138.019141 
L 80.784016 -134.442405 
L 79.987876 -132.119335 
L 79.191736 -131.221766 
L 78.395596 -131.691653 
L 77.599457 -133.344571 
L 76.803317 -135.887819 
L 76.007177 -138.927172 
L 75.211037 -142.033448 
L 74.414897 -144.818171 
L 73.618757 -146.921895 
L 72.822617 -147.97643 
L 72.026477 -147.705931 
L 71.230337 -146.144369 
L 70.434197 -143.770966 
L 69.638057 -141.420578 
L 68.841918 -139.968562 
L 68.045778 -139.968347 
L 67.249638 -141.494064 
L 66.453498 -144.196857 
L 65.657358 -147.399237 
L 64.861218 -150.209939 
L 64.065078 -151.760135 
L 63.268938 -151.537849 
L 62.472798 -149.643209 
L 61.676658 -146.798167 
L 60.880518 -144.074372 
L 60.084378 -142.468789 
L 59.288239 -142.564332 
L 58.492099 -144.403897 
L 57.695959 -147.528872 
L 56.899819 -151.137845 
L 56.103679 -154.355178 
L 55.307539 -156.534082 
L 54.511399 -157.455144 
L 53.715259 -157.315327 
L 52.919119 -156.545238 
L 52.122979 -155.617822 
L 51.326839 -154.944274 
L 50.5307 -154.817132 
L 49.73456 -155.358909 
L 48.93842 -156.491403 
L 48.14228 -157.965818 
L 47.34614 -159.47318 
L 46.55 -160.78323 
z
" style="stroke: #377eb8; stroke-opacity: 0.3"/>
    </defs>
    <g clip-path="url(#p3fca8f1e14)">
     <use xlink:href="#m25097ca284" x="0" y="360" style="fill: #377eb8; fill-opacity: 0.3; stroke: #377eb8; stroke-opacity: 0.3"/>
    </g>
   </g>
   <g id="patch_3">
    <path d="M 229.821407 318.04 
L 229.821407 71.732 
L 331.727316 71.732 
L 331.727316 318.04 
z
" clip-path="url(#p3fca8f1e14)" style="fill: #808080; opacity: 0.3"/>
   </g>
   <g id="matplotlib.axis_1">
    <g id="xtick_1">
     <g id="line2d_1">
      <defs>
       <path id="me22827c6af" d="M 0 0 
L 0 3.5 
" style="stroke: #000000; stroke-width: 0.8"/>
      </defs>
      <g>
       <use xlink:href="#me22827c6af" x="87.153135" y="318.04" style="stroke: #000000; stroke-width: 0.8"/>
      </g>
     </g>
     <g id="text_1">
      <!-- 0.0 -->
      <g transform="translate(79.201573 332.638438)scale(0.1 -0.1)">
       <defs>
        <path id="DejaVuSans-30" d="M 2034 4250 
Q 1547 4250 1301 3770 
Q 1056 3291 1056 2328 
Q 1056 1369 1301 889 
Q 1547 409 2034 409 
Q 2525 409 2770 889 
Q 3016 1369 3016 2328 
Q 3016 3291 2770 3770 
Q 2525 4250 2034 4250 
z
M 2034 4750 
Q 2819 4750 3233 4129 
Q 3647 3509 3647 2328 
Q 3647 1150 3233 529 
Q 2819 -91 2034 -91 
Q 1250 -91 836 529 
Q 422 1150 422 2328 
Q 422 3509 836 4129 
Q 1250 4750 2034 4750 
z
" transform="scale(0.015625)"/>
        <path id="DejaVuSans-2e" d="M 684 794 
L 1344 794 
L 1344 0 
L 684 0 
L 684 794 
z
" transform="scale(0.015625)"/>
       </defs>
       <use xlink:href="#DejaVuSans-30"/>
       <use xlink:href="#DejaVuSans-2e" x="63.623047"/>
       <use xlink:href="#DejaVuSans-30" x="95.410156"/>
      </g>
     </g>
    </g>
    <g id="xtick_2">
     <g id="line2d_2">
      <g>
       <use xlink:href="#me22827c6af" x="168.677862" y="318.04" style="stroke: #000000; stroke-width: 0.8"/>
      </g>
     </g>
     <g id="text_2">
      <!-- 0.2 -->
      <g transform="translate(160.7263 332.638438)scale(0.1 -0.1)">
       <defs>
        <path id="DejaVuSans-32" d="M 1228 531 
L 3431 531 
L 3431 0 
L 469 0 
L 469 531 
Q 828 903 1448 1529 
Q 2069 2156 2228 2338 
Q 2531 2678 2651 2914 
Q 2772 3150 2772 3378 
Q 2772 3750 2511 3984 
Q 2250 4219 1831 4219 
Q 1534 4219 1204 4116 
Q 875 4013 500 3803 
L 500 4441 
Q 881 4594 1212 4672 
Q 1544 4750 1819 4750 
Q 2544 4750 2975 4387 
Q 3406 4025 3406 3419 
Q 3406 3131 3298 2873 
Q 3191 2616 2906 2266 
Q 2828 2175 2409 1742 
Q 1991 1309 1228 531 
z
" transform="scale(0.015625)"/>
       </defs>
       <use xlink:href="#DejaVuSans-30"/>
       <use xlink:href="#DejaVuSans-2e" x="63.623047"/>
       <use xlink:href="#DejaVuSans-32" x="95.410156"/>
      </g>
     </g>
    </g>
    <g id="xtick_3">
     <g id="line2d_3">
      <g>
       <use xlink:href="#me22827c6af" x="250.202589" y="318.04" style="stroke: #000000; stroke-width: 0.8"/>
      </g>
     </g>
     <g id="text_3">
      <!-- 0.4 -->
      <g transform="translate(242.251027 332.638438)scale(0.1 -0.1)">
       <defs>
        <path id="DejaVuSans-34" d="M 2419 4116 
L 825 1625 
L 2419 1625 
L 2419 4116 
z
M 2253 4666 
L 3047 4666 
L 3047 1625 
L 3713 1625 
L 3713 1100 
L 3047 1100 
L 3047 0 
L 2419 0 
L 2419 1100 
L 313 1100 
L 313 1709 
L 2253 4666 
z
" transform="scale(0.015625)"/>
       </defs>
       <use xlink:href="#DejaVuSans-30"/>
       <use xlink:href="#DejaVuSans-2e" x="63.623047"/>
       <use xlink:href="#DejaVuSans-34" x="95.410156"/>
      </g>
     </g>
    </g>
    <g id="xtick_4">
     <g id="line2d_4">
      <g>
       <use xlink:href="#me22827c6af" x="331.727316" y="318.04" style="stroke: #000000; stroke-width: 0.8"/>
      </g>
     </g>
     <g id="text_4">
      <!-- 0.6 -->
      <g transform="translate(323.775754 332.638438)scale(0.1 -0.1)">
       <defs>
        <path id="DejaVuSans-36" d="M 2113 2584 
Q 1688 2584 1439 2293 
Q 1191 2003 1191 1497 
Q 1191 994 1439 701 
Q 1688 409 2113 409 
Q 2538 409 2786 701 
Q 3034 994 3034 1497 
Q 3034 2003 2786 2293 
Q 2538 2584 2113 2584 
z
M 3366 4563 
L 3366 3988 
Q 3128 4100 2886 4159 
Q 2644 4219 2406 4219 
Q 1781 4219 1451 3797 
Q 1122 3375 1075 2522 
Q 1259 2794 1537 2939 
Q 1816 3084 2150 3084 
Q 2853 3084 3261 2657 
Q 3669 2231 3669 1497 
Q 3669 778 3244 343 
Q 2819 -91 2113 -91 
Q 1303 -91 875 529 
Q 447 1150 447 2328 
Q 447 3434 972 4092 
Q 1497 4750 2381 4750 
Q 2619 4750 2861 4703 
Q 3103 4656 3366 4563 
z
" transform="scale(0.015625)"/>
       </defs>
       <use xlink:href="#DejaVuSans-30"/>
       <use xlink:href="#DejaVuSans-2e" x="63.623047"/>
       <use xlink:href="#DejaVuSans-36" x="95.410156"/>
      </g>
     </g>
    </g>
    <g id="xtick_5">
     <g id="line2d_5">
      <g>
       <use xlink:href="#me22827c6af" x="413.252043" y="318.04" style="stroke: #000000; stroke-width: 0.8"/>
      </g>
     </g>
     <g id="text_5">
      <!-- 0.8 -->
      <g transform="translate(405.30048 332.638438)scale(0.1 -0.1)">
       <defs>
        <path id="DejaVuSans-38" d="M 2034 2216 
Q 1584 2216 1326 1975 
Q 1069 1734 1069 1313 
Q 1069 891 1326 650 
Q 1584 409 2034 409 
Q 2484 409 2743 651 
Q 3003 894 3003 1313 
Q 3003 1734 2745 1975 
Q 2488 2216 2034 2216 
z
M 1403 2484 
Q 997 2584 770 2862 
Q 544 3141 544 3541 
Q 544 4100 942 4425 
Q 1341 4750 2034 4750 
Q 2731 4750 3128 4425 
Q 3525 4100 3525 3541 
Q 3525 3141 3298 2862 
Q 3072 2584 2669 2484 
Q 3125 2378 3379 2068 
Q 3634 1759 3634 1313 
Q 3634 634 3220 271 
Q 2806 -91 2034 -91 
Q 1263 -91 848 271 
Q 434 634 434 1313 
Q 434 1759 690 2068 
Q 947 2378 1403 2484 
z
M 1172 3481 
Q 1172 3119 1398 2916 
Q 1625 2713 2034 2713 
Q 2441 2713 2670 2916 
Q 2900 3119 2900 3481 
Q 2900 3844 2670 4047 
Q 2441 4250 2034 4250 
Q 1625 4250 1398 4047 
Q 1172 3844 1172 3481 
z
" transform="scale(0.015625)"/>
       </defs>
       <use xlink:href="#DejaVuSans-30"/>
       <use xlink:href="#DejaVuSans-2e" x="63.623047"/>
       <use xlink:href="#DejaVuSans-38" x="95.410156"/>
      </g>
     </g>
    </g>
    <g id="text_6">
     <!-- seconds -->
     <g transform="translate(209.622749 346.316563)scale(0.1 -0.1)">
      <defs>
       <path id="DejaVuSans-73" d="M 2834 3397 
L 2834 2853 
Q 2591 2978 2328 3040 
Q 2066 3103 1784 3103 
Q 1356 3103 1142 2972 
Q 928 2841 928 2578 
Q 928 2378 1081 2264 
Q 1234 2150 1697 2047 
L 1894 2003 
Q 2506 1872 2764 1633 
Q 3022 1394 3022 966 
Q 3022 478 2636 193 
Q 2250 -91 1575 -91 
Q 1294 -91 989 -36 
Q 684 19 347 128 
L 347 722 
Q 666 556 975 473 
Q 1284 391 1588 391 
Q 1994 391 2212 530 
Q 2431 669 2431 922 
Q 2431 1156 2273 1281 
Q 2116 1406 1581 1522 
L 1381 1569 
Q 847 1681 609 1914 
Q 372 2147 372 2553 
Q 372 3047 722 3315 
Q 1072 3584 1716 3584 
Q 2034 3584 2315 3537 
Q 2597 3491 2834 3397 
z
" transform="scale(0.015625)"/>
       <path id="DejaVuSans-65" d="M 3597 1894 
L 3597 1613 
L 953 1613 
Q 991 1019 1311 708 
Q 1631 397 2203 397 
Q 2534 397 2845 478 
Q 3156 559 3463 722 
L 3463 178 
Q 3153 47 2828 -22 
Q 2503 -91 2169 -91 
Q 1331 -91 842 396 
Q 353 884 353 1716 
Q 353 2575 817 3079 
Q 1281 3584 2069 3584 
Q 2775 3584 3186 3129 
Q 3597 2675 3597 1894 
z
M 3022 2063 
Q 3016 2534 2758 2815 
Q 2500 3097 2075 3097 
Q 1594 3097 1305 2825 
Q 1016 2553 972 2059 
L 3022 2063 
z
" transform="scale(0.015625)"/>
       <path id="DejaVuSans-63" d="M 3122 3366 
L 3122 2828 
Q 2878 2963 2633 3030 
Q 2388 3097 2138 3097 
Q 1578 3097 1268 2742 
Q 959 2388 959 1747 
Q 959 1106 1268 751 
Q 1578 397 2138 397 
Q 2388 397 2633 464 
Q 2878 531 3122 666 
L 3122 134 
Q 2881 22 2623 -34 
Q 2366 -91 2075 -91 
Q 1284 -91 818 406 
Q 353 903 353 1747 
Q 353 2603 823 3093 
Q 1294 3584 2113 3584 
Q 2378 3584 2631 3529 
Q 2884 3475 3122 3366 
z
" transform="scale(0.015625)"/>
       <path id="DejaVuSans-6f" d="M 1959 3097 
Q 1497 3097 1228 2736 
Q 959 2375 959 1747 
Q 959 1119 1226 758 
Q 1494 397 1959 397 
Q 2419 397 2687 759 
Q 2956 1122 2956 1747 
Q 2956 2369 2687 2733 
Q 2419 3097 1959 3097 
z
M 1959 3584 
Q 2709 3584 3137 3096 
Q 3566 2609 3566 1747 
Q 3566 888 3137 398 
Q 2709 -91 1959 -91 
Q 1206 -91 779 398 
Q 353 888 353 1747 
Q 353 2609 779 3096 
Q 1206 3584 1959 3584 
z
" transform="scale(0.015625)"/>
       <path id="DejaVuSans-6e" d="M 3513 2113 
L 3513 0 
L 2938 0 
L 2938 2094 
Q 2938 2591 2744 2837 
Q 2550 3084 2163 3084 
Q 1697 3084 1428 2787 
Q 1159 2491 1159 1978 
L 1159 0 
L 581 0 
L 581 3500 
L 1159 3500 
L 1159 2956 
Q 1366 3272 1645 3428 
Q 1925 3584 2291 3584 
Q 2894 3584 3203 3211 
Q 3513 2838 3513 2113 
z
" transform="scale(0.015625)"/>
       <path id="DejaVuSans-64" d="M 2906 2969 
L 2906 4863 
L 3481 4863 
L 3481 0 
L 2906 0 
L 2906 525 
Q 2725 213 2448 61 
Q 2172 -91 1784 -91 
Q 1150 -91 751 415 
Q 353 922 353 1747 
Q 353 2572 751 3078 
Q 1150 3584 1784 3584 
Q 2172 3584 2448 3432 
Q 2725 3281 2906 2969 
z
M 947 1747 
Q 947 1113 1208 752 
Q 1469 391 1925 391 
Q 2381 391 2643 752 
Q 2906 1113 2906 1747 
Q 2906 2381 2643 2742 
Q 2381 3103 1925 3103 
Q 1469 3103 1208 2742 
Q 947 2381 947 1747 
z
" transform="scale(0.015625)"/>
      </defs>
      <use xlink:href="#DejaVuSans-73"/>
      <use xlink:href="#DejaVuSans-65" x="52.099609"/>
      <use xlink:href="#DejaVuSans-63" x="113.623047"/>
      <use xlink:href="#DejaVuSans-6f" x="168.603516"/>
      <use xlink:href="#DejaVuSans-6e" x="229.785156"/>
      <use xlink:href="#DejaVuSans-64" x="293.164062"/>
      <use xlink:href="#DejaVuSans-73" x="356.640625"/>
     </g>
    </g>
   </g>
   <g id="matplotlib.axis_2">
    <g id="ytick_1">
     <g id="line2d_6">
      <defs>
       <path id="ma47dfd0237" d="M 0 0 
L -3.5 0 
" style="stroke: #000000; stroke-width: 0.8"/>
      </defs>
      <g>
       <use xlink:href="#ma47dfd0237" x="46.55" y="277.091921" style="stroke: #000000; stroke-width: 0.8"/>
      </g>
     </g>
     <g id="text_7">
      <!-- 2 -->
      <g transform="translate(24.807813 280.89114)scale(0.1 -0.1)">
       <defs>
        <path id="DejaVuSans-2212" d="M 678 2272 
L 4684 2272 
L 4684 1741 
L 678 1741 
L 678 2272 
z
" transform="scale(0.015625)"/>
       </defs>
       <use xlink:href="#DejaVuSans-2212"/>
       <use xlink:href="#DejaVuSans-32" x="83.789062"/>
      </g>
     </g>
    </g>
    <g id="ytick_2">
     <g id="line2d_7">
      <g>
       <use xlink:href="#ma47dfd0237" x="46.55" y="224.781297" style="stroke: #000000; stroke-width: 0.8"/>
      </g>
     </g>
     <g id="text_8">
      <!-- 0 -->
      <g transform="translate(33.1875 228.580516)scale(0.1 -0.1)">
       <use xlink:href="#DejaVuSans-30"/>
      </g>
     </g>
    </g>
    <g id="ytick_3">
     <g id="line2d_8">
      <g>
       <use xlink:href="#ma47dfd0237" x="46.55" y="172.470673" style="stroke: #000000; stroke-width: 0.8"/>
      </g>
     </g>
     <g id="text_9">
      <!-- 2 -->
      <g transform="translate(33.1875 176.269892)scale(0.1 -0.1)">
       <use xlink:href="#DejaVuSans-32"/>
      </g>
     </g>
    </g>
    <g id="ytick_4">
     <g id="line2d_9">
      <g>
       <use xlink:href="#ma47dfd0237" x="46.55" y="120.16005" style="stroke: #000000; stroke-width: 0.8"/>
      </g>
     </g>
     <g id="text_10">
      <!-- 4 -->
      <g transform="translate(33.1875 123.959269)scale(0.1 -0.1)">
       <use xlink:href="#DejaVuSans-34"/>
      </g>
     </g>
    </g>
    <g id="text_11">
     <!-- V -->
     <g transform="translate(18.728125 201.487562)rotate(-90)scale(0.1 -0.1)">
      <defs>
       <path id="DejaVuSans-b5" d="M 544 -1331 
L 544 3500 
L 1119 3500 
L 1119 1325 
Q 1119 872 1334 640 
Q 1550 409 1972 409 
Q 2434 409 2667 671 
Q 2900 934 2900 1459 
L 2900 3500 
L 3475 3500 
L 3475 806 
Q 3475 619 3529 530 
Q 3584 441 3700 441 
Q 3728 441 3778 458 
Q 3828 475 3916 513 
L 3916 50 
Q 3788 -22 3673 -56 
Q 3559 -91 3450 -91 
Q 3234 -91 3106 31 
Q 2978 153 2931 403 
Q 2775 156 2548 32 
Q 2322 -91 2016 -91 
Q 1697 -91 1473 31 
Q 1250 153 1119 397 
L 1119 -1331 
L 544 -1331 
z
" transform="scale(0.015625)"/>
       <path id="DejaVuSans-56" d="M 1831 0 
L 50 4666 
L 709 4666 
L 2188 738 
L 3669 4666 
L 4325 4666 
L 2547 0 
L 1831 0 
z
" transform="scale(0.015625)"/>
      </defs>
      <use xlink:href="#DejaVuSans-b5"/>
      <use xlink:href="#DejaVuSans-56" x="63.623047"/>
     </g>
    </g>
   </g>
   <g id="line2d_10">
    <path d="M 46.55 227.041096 
L 47.34614 227.451555 
L 48.14228 223.91775 
L 50.5307 206.357898 
L 51.326839 204.347657 
L 52.122979 205.283146 
L 53.715259 210.965809 
L 54.511399 212.411801 
L 55.307539 211.611787 
L 56.103679 208.870918 
L 56.899819 205.414826 
L 57.695959 202.838486 
L 58.492099 202.425459 
L 59.288239 204.627308 
L 60.084378 208.914247 
L 61.676658 218.611878 
L 62.472798 221.636618 
L 63.268938 222.930793 
L 64.861218 223.318279 
L 65.657358 224.625433 
L 66.453498 227.662881 
L 67.249638 232.344236 
L 68.841918 243.439691 
L 69.638057 247.870425 
L 70.434197 250.687873 
L 71.230337 251.821913 
L 72.026477 251.553245 
L 72.822617 250.258576 
L 73.618757 248.180384 
L 74.414897 245.344971 
L 75.211037 241.66506 
L 76.803317 232.171359 
L 77.599457 227.414009 
L 78.395596 223.835988 
L 79.191736 222.282953 
L 79.987876 223.12704 
L 80.784016 226.018703 
L 82.376296 233.266364 
L 83.172436 234.731343 
L 83.968576 233.474378 
L 84.764716 229.613902 
L 86.356996 219.004714 
L 87.153135 215.717598 
L 87.949275 215.556599 
L 88.745415 218.7113 
L 91.133835 235.437768 
L 91.929975 237.549061 
L 92.726115 236.229343 
L 93.522255 231.997893 
L 95.114535 220.989439 
L 95.910674 217.725049 
L 96.706814 217.422535 
L 97.502954 220.019282 
L 99.891374 233.847104 
L 100.687514 236.236342 
L 101.483654 236.590391 
L 102.279794 235.320841 
L 104.668213 228.933856 
L 107.056633 223.61862 
L 108.648913 219.179108 
L 109.445053 217.617936 
L 110.241193 217.302259 
L 111.037333 218.521297 
L 111.833473 221.03773 
L 112.629613 224.101834 
L 113.425753 226.704297 
L 114.221892 227.969877 
L 115.018032 227.525999 
L 115.814172 225.680928 
L 116.610312 223.319564 
L 117.406452 221.54752 
L 118.202592 221.227801 
L 118.998732 222.604661 
L 120.591012 227.889171 
L 121.387152 229.544767 
L 122.183292 229.2994 
L 122.979431 226.995011 
L 125.367851 215.481389 
L 126.163991 213.279001 
L 126.960131 212.372996 
L 127.756271 212.070768 
L 128.552411 211.325635 
L 129.348551 209.184776 
L 130.144691 205.18832 
L 130.940831 199.561538 
L 132.53311 187.056213 
L 133.32925 182.381801 
L 134.12539 179.785898 
L 134.92153 179.415198 
L 135.71767 180.953073 
L 136.51381 183.813855 
L 138.90223 194.467999 
L 139.69837 197.256633 
L 140.494509 199.087735 
L 141.290649 199.654364 
L 142.086789 198.762851 
L 142.882929 196.461935 
L 145.271349 186.224014 
L 146.067489 184.163745 
L 146.863629 183.600991 
L 147.659769 184.394942 
L 149.252049 187.693968 
L 150.048188 188.89475 
L 150.844328 189.382524 
L 152.436608 189.376879 
L 153.232748 189.935055 
L 154.028888 191.323592 
L 155.621168 195.581671 
L 156.417308 197.181195 
L 157.213448 197.615262 
L 158.009588 196.727692 
L 160.398007 191.440848 
L 161.194147 191.356429 
L 161.990287 192.742925 
L 162.786427 195.256245 
L 164.378707 200.816329 
L 165.174847 202.559286 
L 165.970987 203.259066 
L 166.767127 203.10043 
L 168.359406 201.690608 
L 169.951686 200.185089 
L 170.747826 199.190549 
L 171.543966 197.79656 
L 173.136246 193.947108 
L 173.932386 191.979978 
L 174.728526 190.378548 
L 175.524666 189.295966 
L 176.320805 188.706386 
L 177.116945 188.476727 
L 177.913085 188.515925 
L 178.709225 188.914677 
L 179.505365 189.984624 
L 180.301505 192.153716 
L 181.097645 195.743973 
L 181.893785 200.722219 
L 183.486065 212.213304 
L 184.282205 216.504312 
L 185.078344 218.393587 
L 185.874484 217.436206 
L 186.670624 213.996578 
L 188.262904 204.614101 
L 189.059044 201.743117 
L 189.855184 201.549332 
L 190.651324 204.147698 
L 191.447464 208.812273 
L 193.039744 219.23151 
L 193.835884 222.756978 
L 194.632023 224.632162 
L 195.428163 225.289491 
L 196.224303 225.509403 
L 197.020443 225.970979 
L 198.612723 227.71186 
L 199.408863 227.567501 
L 200.205003 225.393478 
L 201.001143 220.589737 
L 201.797283 213.376079 
L 203.389562 196.885597 
L 204.185702 191.249305 
L 204.981842 189.302749 
L 205.777982 191.356192 
L 206.574122 196.558436 
L 208.166402 209.025357 
L 208.962542 212.398393 
L 209.758682 212.337082 
L 210.554822 208.986702 
L 212.943241 191.914509 
L 213.739381 188.520822 
L 214.535521 187.352228 
L 215.331661 188.054841 
L 216.127801 189.872902 
L 216.923941 191.978603 
L 217.720081 193.739153 
L 218.516221 194.845002 
L 219.312361 195.295905 
L 220.108501 195.302325 
L 220.90464 195.181003 
L 221.70078 195.293075 
L 222.49692 196.018704 
L 223.29306 197.72589 
L 224.0892 200.689737 
L 224.88534 204.950997 
L 226.47762 215.492227 
L 227.27376 219.740151 
L 228.0699 221.587801 
L 228.86604 220.040905 
L 229.66218 214.856714 
L 230.458319 206.79779 
L 232.050599 189.418067 
L 232.846739 184.485133 
L 233.642879 184.150992 
L 234.439019 188.592445 
L 235.235159 196.737236 
L 236.827439 216.102157 
L 237.623579 223.426256 
L 238.419719 227.829737 
L 239.215858 229.572709 
L 240.011998 229.661378 
L 240.808138 229.31487 
L 241.604278 229.422115 
L 242.400418 230.216409 
L 243.196558 231.288321 
L 243.992698 231.898859 
L 244.788838 231.426808 
L 245.584978 229.736105 
L 247.177258 224.969051 
L 247.973397 223.660919 
L 248.769537 223.853564 
L 249.565677 225.379477 
L 250.361817 227.45071 
L 251.157957 228.963771 
L 251.954097 228.94097 
L 252.750237 226.915302 
L 253.546377 223.096956 
L 255.138657 213.388205 
L 255.934797 209.292858 
L 256.730936 206.285954 
L 259.119356 199.781445 
L 259.915496 196.514271 
L 262.303916 184.023789 
L 263.100056 181.063338 
L 263.896196 179.515484 
L 264.692336 179.363592 
L 265.488475 180.2949 
L 266.284615 181.895548 
L 267.876895 186.078657 
L 268.673035 188.653571 
L 270.265315 195.095517 
L 271.061455 198.476293 
L 271.857595 201.099855 
L 272.653735 202.088967 
L 273.449875 200.703457 
L 274.246015 196.63355 
L 275.042154 190.191372 
L 276.634434 174.437054 
L 277.430574 168.054958 
L 278.226714 164.458605 
L 279.022854 164.368405 
L 279.818994 167.778577 
L 280.615134 173.972648 
L 282.207414 189.488995 
L 283.003554 195.909901 
L 283.799693 199.899021 
L 284.595833 200.909445 
L 285.391973 198.97389 
L 286.188113 194.649752 
L 288.576533 177.470305 
L 289.372673 173.85401 
L 290.168813 172.505152 
L 290.964953 173.583754 
L 291.761093 176.826589 
L 293.353372 187.052375 
L 294.149512 192.215037 
L 294.945652 196.257514 
L 295.741792 198.6317 
L 296.537932 199.19973 
L 297.334072 198.263736 
L 298.926352 194.702734 
L 299.722492 193.70002 
L 300.518632 193.980193 
L 301.314771 195.624754 
L 302.907051 201.309358 
L 303.703191 203.995119 
L 304.499331 205.826184 
L 305.295471 206.661312 
L 306.091611 206.770695 
L 306.887751 206.710492 
L 307.683891 207.077038 
L 308.480031 208.23329 
L 310.86845 213.664712 
L 311.66459 213.699516 
L 312.46073 211.820655 
L 313.25687 208.115004 
L 314.84915 198.474542 
L 315.64529 194.937977 
L 316.44143 193.647453 
L 317.23757 194.987696 
L 318.03371 198.630304 
L 319.625989 208.748058 
L 320.422129 212.777269 
L 321.218269 214.948144 
L 322.014409 215.103127 
L 322.810549 213.703497 
L 323.606689 211.637186 
L 324.402829 209.904779 
L 325.198969 209.287326 
L 325.995109 210.09922 
L 326.791249 212.100608 
L 327.587389 214.591599 
L 328.383528 216.653702 
L 329.179668 217.462615 
L 329.975808 216.576664 
L 330.771948 214.109403 
L 332.364228 207.47362 
L 333.160368 205.449839 
L 333.956508 205.474458 
L 334.752648 207.802217 
L 335.548788 212.017887 
L 337.141067 221.923802 
L 337.937207 225.233696 
L 338.733347 226.419724 
L 339.529487 225.50128 
L 340.325627 223.127412 
L 341.121767 220.314308 
L 341.917907 218.057474 
L 342.714047 216.967774 
L 343.510187 217.07697 
L 345.102467 218.656801 
L 345.898606 218.752145 
L 346.694746 217.985723 
L 347.490886 216.709442 
L 348.287026 215.662098 
L 349.083166 215.613936 
L 349.879306 216.961133 
L 351.471586 222.208408 
L 352.267726 223.986761 
L 353.063866 223.689798 
L 353.860006 220.811176 
L 354.656146 215.687027 
L 356.248425 203.425778 
L 357.044565 198.997487 
L 357.840705 196.731554 
L 358.636845 196.397966 
L 360.229125 197.742254 
L 361.025265 197.528813 
L 361.821405 196.35403 
L 362.617545 194.818796 
L 363.413685 193.914686 
L 364.209824 194.49838 
L 365.005964 196.805955 
L 366.598244 203.564196 
L 367.394384 205.381829 
L 368.190524 204.786775 
L 368.986664 201.801093 
L 370.578944 193.3809 
L 371.375084 191.240637 
L 372.171224 191.963465 
L 372.967363 195.382614 
L 374.559643 204.83364 
L 375.355783 207.405314 
L 376.151923 207.126434 
L 376.948063 204.249676 
L 378.540343 195.999072 
L 379.336483 193.650321 
L 380.132623 193.525707 
L 380.928763 195.236076 
L 381.724902 197.684034 
L 382.521042 199.607817 
L 383.317182 200.147501 
L 384.113322 199.177884 
L 385.705602 195.312712 
L 386.501742 194.018552 
L 387.297882 193.529964 
L 388.094022 193.35706 
L 388.890162 192.659723 
L 389.686302 190.746849 
L 390.482441 187.540341 
L 391.278581 183.75911 
L 392.074721 180.708432 
L 392.870861 179.745637 
L 393.667001 181.649959 
L 394.463141 186.184357 
L 396.055421 197.373721 
L 396.851561 200.270489 
L 397.647701 199.700267 
L 398.443841 195.816079 
L 400.03612 183.98018 
L 400.83226 179.832707 
L 401.6284 178.54051 
L 402.42454 180.014719 
L 404.01682 186.234938 
L 404.81296 187.826917 
L 405.6091 187.117701 
L 406.40524 184.263847 
L 407.99752 176.197292 
L 408.793659 173.317143 
L 409.589799 172.07033 
L 410.385939 172.330894 
L 411.182079 173.546281 
L 412.774359 176.551954 
L 413.570499 177.873608 
L 413.570499 177.873608 
" clip-path="url(#p3fca8f1e14)" style="fill: none; stroke: #e41a1c; stroke-width: 1.5; stroke-linecap: square"/>
   </g>
   <g id="line2d_11">
    <path d="M 46.55 212.423743 
L 47.34614 213.518967 
L 48.93842 216.196684 
L 49.73456 217.268015 
L 50.5307 217.763624 
L 51.326839 217.515907 
L 52.122979 216.596607 
L 52.919119 215.352964 
L 53.715259 214.337736 
L 54.511399 214.141599 
L 55.307539 215.179158 
L 56.103679 217.507908 
L 58.492099 227.013667 
L 59.288239 228.464573 
L 60.084378 228.248421 
L 60.880518 226.560681 
L 62.472798 221.622773 
L 63.268938 220.121054 
L 64.065078 220.076928 
L 64.861218 221.537826 
L 67.249638 229.325144 
L 68.045778 230.614412 
L 68.841918 230.556997 
L 69.638057 229.3119 
L 71.230337 225.353202 
L 72.026477 223.895243 
L 72.822617 223.429647 
L 73.618757 224.150632 
L 74.414897 226.006161 
L 75.211037 228.745875 
L 77.599457 238.098248 
L 78.395596 240.01185 
L 79.191736 240.616822 
L 79.987876 239.685931 
L 80.784016 237.242027 
L 81.580156 233.616735 
L 83.172436 225.548418 
L 83.968576 222.783936 
L 84.764716 221.785347 
L 85.560856 222.781557 
L 86.356996 225.494387 
L 87.949275 232.858219 
L 88.745415 235.538834 
L 89.541555 236.587159 
L 90.337695 235.894374 
L 91.133835 233.917797 
L 91.929975 231.526437 
L 92.726115 229.705553 
L 93.522255 229.218871 
L 94.318395 230.345879 
L 95.114535 232.787428 
L 96.706814 238.335902 
L 97.502954 239.646773 
L 98.299094 239.30397 
L 99.095234 237.459893 
L 100.687514 232.074008 
L 101.483654 230.246495 
L 102.279794 229.755384 
L 103.075934 230.605775 
L 105.464353 235.896733 
L 106.260493 236.57849 
L 107.056633 236.314229 
L 107.852773 235.331631 
L 109.445053 232.73795 
L 110.241193 231.692912 
L 111.833473 230.188656 
L 113.425753 228.631139 
L 114.221892 227.807958 
L 115.018032 227.160141 
L 115.814172 226.848694 
L 116.610312 226.915026 
L 118.202592 227.586533 
L 118.998732 227.736527 
L 119.794872 227.613507 
L 120.591012 227.366114 
L 121.387152 227.334421 
L 122.183292 227.909824 
L 122.979431 229.340816 
L 123.775571 231.570627 
L 125.367851 236.520833 
L 126.163991 237.86369 
L 126.960131 237.727359 
L 127.756271 236.037748 
L 128.552411 233.182688 
L 130.144691 226.967468 
L 130.940831 225.047243 
L 131.73697 224.371598 
L 132.53311 224.767559 
L 134.92153 227.669318 
L 135.71767 228.120861 
L 136.51381 228.40328 
L 137.30995 228.818068 
L 138.10609 229.579747 
L 139.69837 231.780014 
L 140.494509 232.482693 
L 141.290649 232.37997 
L 142.086789 231.337917 
L 144.475209 226.351968 
L 145.271349 226.149364 
L 146.067489 227.340468 
L 146.863629 229.745338 
L 148.455909 235.805579 
L 149.252049 238.071125 
L 150.048188 239.230871 
L 150.844328 239.278662 
L 151.640468 238.522007 
L 153.232748 236.345586 
L 155.621168 233.929725 
L 156.417308 232.644428 
L 157.213448 230.766503 
L 159.601867 223.739405 
L 160.398007 222.517792 
L 161.194147 222.57506 
L 161.990287 223.995629 
L 162.786427 226.54902 
L 164.378707 232.955492 
L 165.174847 235.559958 
L 165.970987 237.085794 
L 166.767127 237.304618 
L 167.563266 236.276805 
L 168.359406 234.340035 
L 169.951686 230.057582 
L 170.747826 229.013513 
L 171.543966 229.394439 
L 172.340106 231.402975 
L 173.136246 234.89566 
L 175.524666 248.345226 
L 176.320805 251.259381 
L 177.116945 252.444976 
L 177.913085 251.839658 
L 178.709225 249.764181 
L 181.097645 241.051381 
L 181.893785 239.227193 
L 182.689925 238.317554 
L 183.486065 238.138258 
L 185.078344 238.603566 
L 185.874484 238.646451 
L 186.670624 238.385865 
L 187.466764 237.866272 
L 189.855184 235.760657 
L 190.651324 234.96169 
L 191.447464 234.00019 
L 192.243604 232.808876 
L 194.632023 228.609074 
L 195.428163 227.714414 
L 196.224303 227.474475 
L 197.020443 228.002962 
L 197.816583 229.256008 
L 200.205003 234.787646 
L 201.001143 236.032431 
L 201.797283 236.479939 
L 202.593423 236.034625 
L 203.389562 234.790513 
L 205.777982 229.565514 
L 206.574122 228.681762 
L 207.370262 228.656111 
L 208.166402 229.400528 
L 209.758682 231.606937 
L 210.554822 231.962703 
L 211.350962 231.20667 
L 212.147101 229.217971 
L 214.535521 219.972932 
L 215.331661 218.185445 
L 216.127801 218.028566 
L 216.923941 219.563696 
L 217.720081 222.40824 
L 219.312361 229.055355 
L 220.108501 231.330974 
L 220.90464 232.305078 
L 221.70078 232.016454 
L 222.49692 230.85881 
L 223.29306 229.416371 
L 224.0892 228.251133 
L 224.88534 227.717414 
L 225.68148 227.865838 
L 227.27376 229.120698 
L 228.0699 229.457728 
L 228.86604 229.270715 
L 229.66218 228.612232 
L 230.458319 227.774105 
L 231.254459 227.175088 
L 232.050599 227.194366 
L 232.846739 228.009935 
L 233.642879 229.49896 
L 234.439019 231.235966 
L 235.235159 232.593945 
L 236.031299 232.922106 
L 236.827439 231.749336 
L 237.623579 228.952213 
L 238.419719 224.834496 
L 240.011998 215.647194 
L 240.808138 212.453314 
L 241.604278 211.226023 
L 242.400418 212.270109 
L 243.196558 215.392337 
L 245.584978 229.525426 
L 246.381118 232.722799 
L 247.177258 234.110527 
L 247.973397 233.645332 
L 248.769537 231.670321 
L 251.954097 220.487399 
L 252.750237 218.880669 
L 253.546377 217.775918 
L 255.138657 216.010516 
L 256.730936 213.715364 
L 257.527076 212.488857 
L 258.323216 211.522597 
L 259.119356 211.083524 
L 259.915496 211.355786 
L 260.711636 212.371165 
L 261.507776 213.980711 
L 263.100056 217.659685 
L 263.896196 218.937613 
L 264.692336 219.424617 
L 265.488475 219.017563 
L 266.284615 217.823041 
L 268.673035 212.714362 
L 269.469175 211.607253 
L 270.265315 211.049038 
L 271.061455 210.936198 
L 272.653735 211.178263 
L 273.449875 211.155254 
L 275.838294 210.630761 
L 276.634434 210.855017 
L 277.430574 211.516406 
L 278.226714 212.619003 
L 279.818994 215.718257 
L 282.207414 220.638946 
L 283.799693 223.336671 
L 284.595833 224.391629 
L 285.391973 225.159011 
L 286.188113 225.578023 
L 286.984253 225.638843 
L 287.780393 225.406918 
L 289.372673 224.633525 
L 290.168813 224.401802 
L 290.964953 224.401506 
L 291.761093 224.636502 
L 292.557232 225.057809 
L 294.149512 226.2542 
L 295.741792 227.847075 
L 297.334072 229.538935 
L 298.130212 230.00021 
L 298.926352 229.86966 
L 299.722492 228.985169 
L 300.518632 227.393735 
L 302.110911 223.571447 
L 302.907051 222.500061 
L 303.703191 222.685594 
L 304.499331 224.290121 
L 305.295471 227.040635 
L 306.887751 233.105978 
L 307.683891 234.755133 
L 308.480031 234.77765 
L 309.276171 233.258974 
L 310.86845 228.365831 
L 311.66459 226.916903 
L 312.46073 227.153731 
L 313.25687 229.258289 
L 314.05301 232.843842 
L 315.64529 240.973686 
L 316.44143 243.641675 
L 317.23757 244.592468 
L 318.03371 243.825144 
L 318.82985 241.791014 
L 320.422129 236.901468 
L 321.218269 235.439179 
L 322.014409 235.138326 
L 322.810549 235.956589 
L 323.606689 237.568943 
L 325.198969 241.219903 
L 325.995109 242.34749 
L 326.791249 242.633429 
L 327.587389 242.026108 
L 328.383528 240.649037 
L 330.771948 234.929446 
L 331.568088 233.732889 
L 332.364228 233.411282 
L 333.160368 234.083322 
L 333.956508 235.671646 
L 336.344928 242.443993 
L 337.141067 243.819992 
L 337.937207 244.194167 
L 338.733347 243.583085 
L 341.121767 239.818538 
L 341.917907 239.719564 
L 342.714047 240.765279 
L 343.510187 242.830635 
L 345.102467 248.00606 
L 345.898606 249.80428 
L 346.694746 250.399842 
L 347.490886 249.679582 
L 348.287026 247.907489 
L 349.879306 243.514909 
L 350.675446 242.0941 
L 351.471586 241.641265 
L 352.267726 242.0867 
L 353.860006 244.153781 
L 354.656146 244.888447 
L 355.452285 245.073699 
L 356.248425 244.746942 
L 357.840705 243.526482 
L 358.636845 243.110735 
L 360.229125 242.694433 
L 361.025265 242.221621 
L 361.821405 241.226332 
L 362.617545 239.622612 
L 365.005964 233.361586 
L 365.802104 231.985085 
L 366.598244 231.358057 
L 367.394384 231.435017 
L 368.190524 232.015999 
L 370.578944 234.646332 
L 372.171224 236.60174 
L 374.559643 239.921898 
L 375.355783 240.463934 
L 376.151923 240.363747 
L 376.948063 239.579834 
L 377.744203 238.257642 
L 379.336483 235.187745 
L 380.132623 234.017561 
L 380.928763 233.276956 
L 381.724902 232.919185 
L 382.521042 232.81485 
L 383.317182 232.849123 
L 384.113322 232.996908 
L 384.909462 233.335045 
L 385.705602 233.983059 
L 386.501742 235.001248 
L 388.094022 237.615452 
L 388.890162 238.574781 
L 389.686302 238.83771 
L 390.482441 238.253615 
L 391.278581 236.965077 
L 392.074721 235.401524 
L 392.870861 234.152236 
L 393.667001 233.760401 
L 394.463141 234.516422 
L 395.259281 236.334106 
L 396.851561 241.143743 
L 397.647701 242.829492 
L 398.443841 243.418745 
L 399.239981 242.878696 
L 400.03612 241.531878 
L 401.6284 238.52785 
L 402.42454 237.697418 
L 403.22068 237.409291 
L 404.01682 237.371584 
L 404.81296 237.157432 
L 405.6091 236.406113 
L 406.40524 234.992297 
L 407.99752 231.143857 
L 408.793659 229.655602 
L 409.589799 229.044575 
L 410.385939 229.464423 
L 411.182079 230.749332 
L 412.774359 234.069857 
L 413.570499 235.059213 
L 413.570499 235.059213 
" clip-path="url(#p3fca8f1e14)" style="fill: none; stroke: #377eb8; stroke-width: 1.5; stroke-linecap: square"/>
   </g>
   <g id="line2d_12">
    <path d="M 87.153135 318.04 
L 87.153135 71.732 
" clip-path="url(#p3fca8f1e14)" style="fill: none; stroke: #000000; stroke-width: 0.5; stroke-linecap: square"/>
   </g>
   <g id="line2d_13">
    <path d="M 46.55 224.781297 
L 413.570499 224.781297 
" clip-path="url(#p3fca8f1e14)" style="fill: none; stroke: #000000; stroke-width: 0.5; stroke-linecap: square"/>
   </g>
   <g id="patch_4">
    <path d="M 46.55 318.04 
L 46.55 71.732 
" style="fill: none; stroke: #000000; stroke-width: 0.8; stroke-linejoin: miter; stroke-linecap: square"/>
   </g>
   <g id="patch_5">
    <path d="M 413.570499 318.04 
L 413.570499 71.732 
" style="fill: none; stroke: #000000; stroke-width: 0.8; stroke-linejoin: miter; stroke-linecap: square"/>
   </g>
   <g id="patch_6">
    <path d="M 46.55 318.04 
L 413.570499 318.04 
" style="fill: none; stroke: #000000; stroke-width: 0.8; stroke-linejoin: miter; stroke-linecap: square"/>
   </g>
   <g id="patch_7">
    <path d="M 46.55 71.732 
L 413.570499 71.732 
" style="fill: none; stroke: #000000; stroke-width: 0.8; stroke-linejoin: miter; stroke-linecap: square"/>
   </g>
   <g id="text_12">
    <!-- Cz -->
    <g transform="translate(222.721499 65.732)scale(0.12 -0.12)">
     <defs>
      <path id="DejaVuSans-43" d="M 4122 4306 
L 4122 3641 
Q 3803 3938 3442 4084 
Q 3081 4231 2675 4231 
Q 1875 4231 1450 3742 
Q 1025 3253 1025 2328 
Q 1025 1406 1450 917 
Q 1875 428 2675 428 
Q 3081 428 3442 575 
Q 3803 722 4122 1019 
L 4122 359 
Q 3791 134 3420 21 
Q 3050 -91 2638 -91 
Q 1578 -91 968 557 
Q 359 1206 359 2328 
Q 359 3453 968 4101 
Q 1578 4750 2638 4750 
Q 3056 4750 3426 4639 
Q 3797 4528 4122 4306 
z
" transform="scale(0.015625)"/>
      <path id="DejaVuSans-7a" d="M 353 3500 
L 3084 3500 
L 3084 2975 
L 922 459 
L 3084 459 
L 3084 0 
L 275 0 
L 275 525 
L 2438 3041 
L 353 3041 
L 353 3500 
z
" transform="scale(0.015625)"/>
     </defs>
     <use xlink:href="#DejaVuSans-43"/>
     <use xlink:href="#DejaVuSans-7a" x="69.824219"/>
    </g>
   </g>
   <g id="legend_1">
    <g id="patch_8">
     <path d="M 106.195406 48.500845 
L 353.925093 48.500845 
Q 355.925093 48.500845 355.925093 46.500845 
L 355.925093 18.144595 
Q 355.925093 16.144595 353.925093 16.144595 
L 106.195406 16.144595 
Q 104.195406 16.144595 104.195406 18.144595 
L 104.195406 46.500845 
Q 104.195406 48.500845 106.195406 48.500845 
z
" style="fill: #ffffff; opacity: 0.8; stroke: #cccccc; stroke-linejoin: miter"/>
    </g>
    <g id="text_13">
     <!-- Average of Session 36 -->
     <g transform="translate(174.500874 27.743033)scale(0.1 -0.1)">
      <defs>
       <path id="DejaVuSans-41" d="M 2188 4044 
L 1331 1722 
L 3047 1722 
L 2188 4044 
z
M 1831 4666 
L 2547 4666 
L 4325 0 
L 3669 0 
L 3244 1197 
L 1141 1197 
L 716 0 
L 50 0 
L 1831 4666 
z
" transform="scale(0.015625)"/>
       <path id="DejaVuSans-76" d="M 191 3500 
L 800 3500 
L 1894 563 
L 2988 3500 
L 3597 3500 
L 2284 0 
L 1503 0 
L 191 3500 
z
" transform="scale(0.015625)"/>
       <path id="DejaVuSans-72" d="M 2631 2963 
Q 2534 3019 2420 3045 
Q 2306 3072 2169 3072 
Q 1681 3072 1420 2755 
Q 1159 2438 1159 1844 
L 1159 0 
L 581 0 
L 581 3500 
L 1159 3500 
L 1159 2956 
Q 1341 3275 1631 3429 
Q 1922 3584 2338 3584 
Q 2397 3584 2469 3576 
Q 2541 3569 2628 3553 
L 2631 2963 
z
" transform="scale(0.015625)"/>
       <path id="DejaVuSans-61" d="M 2194 1759 
Q 1497 1759 1228 1600 
Q 959 1441 959 1056 
Q 959 750 1161 570 
Q 1363 391 1709 391 
Q 2188 391 2477 730 
Q 2766 1069 2766 1631 
L 2766 1759 
L 2194 1759 
z
M 3341 1997 
L 3341 0 
L 2766 0 
L 2766 531 
Q 2569 213 2275 61 
Q 1981 -91 1556 -91 
Q 1019 -91 701 211 
Q 384 513 384 1019 
Q 384 1609 779 1909 
Q 1175 2209 1959 2209 
L 2766 2209 
L 2766 2266 
Q 2766 2663 2505 2880 
Q 2244 3097 1772 3097 
Q 1472 3097 1187 3025 
Q 903 2953 641 2809 
L 641 3341 
Q 956 3463 1253 3523 
Q 1550 3584 1831 3584 
Q 2591 3584 2966 3190 
Q 3341 2797 3341 1997 
z
" transform="scale(0.015625)"/>
       <path id="DejaVuSans-67" d="M 2906 1791 
Q 2906 2416 2648 2759 
Q 2391 3103 1925 3103 
Q 1463 3103 1205 2759 
Q 947 2416 947 1791 
Q 947 1169 1205 825 
Q 1463 481 1925 481 
Q 2391 481 2648 825 
Q 2906 1169 2906 1791 
z
M 3481 434 
Q 3481 -459 3084 -895 
Q 2688 -1331 1869 -1331 
Q 1566 -1331 1297 -1286 
Q 1028 -1241 775 -1147 
L 775 -588 
Q 1028 -725 1275 -790 
Q 1522 -856 1778 -856 
Q 2344 -856 2625 -561 
Q 2906 -266 2906 331 
L 2906 616 
Q 2728 306 2450 153 
Q 2172 0 1784 0 
Q 1141 0 747 490 
Q 353 981 353 1791 
Q 353 2603 747 3093 
Q 1141 3584 1784 3584 
Q 2172 3584 2450 3431 
Q 2728 3278 2906 2969 
L 2906 3500 
L 3481 3500 
L 3481 434 
z
" transform="scale(0.015625)"/>
       <path id="DejaVuSans-20" transform="scale(0.015625)"/>
       <path id="DejaVuSans-66" d="M 2375 4863 
L 2375 4384 
L 1825 4384 
Q 1516 4384 1395 4259 
Q 1275 4134 1275 3809 
L 1275 3500 
L 2222 3500 
L 2222 3053 
L 1275 3053 
L 1275 0 
L 697 0 
L 697 3053 
L 147 3053 
L 147 3500 
L 697 3500 
L 697 3744 
Q 697 4328 969 4595 
Q 1241 4863 1831 4863 
L 2375 4863 
z
" transform="scale(0.015625)"/>
       <path id="DejaVuSans-53" d="M 3425 4513 
L 3425 3897 
Q 3066 4069 2747 4153 
Q 2428 4238 2131 4238 
Q 1616 4238 1336 4038 
Q 1056 3838 1056 3469 
Q 1056 3159 1242 3001 
Q 1428 2844 1947 2747 
L 2328 2669 
Q 3034 2534 3370 2195 
Q 3706 1856 3706 1288 
Q 3706 609 3251 259 
Q 2797 -91 1919 -91 
Q 1588 -91 1214 -16 
Q 841 59 441 206 
L 441 856 
Q 825 641 1194 531 
Q 1563 422 1919 422 
Q 2459 422 2753 634 
Q 3047 847 3047 1241 
Q 3047 1584 2836 1778 
Q 2625 1972 2144 2069 
L 1759 2144 
Q 1053 2284 737 2584 
Q 422 2884 422 3419 
Q 422 4038 858 4394 
Q 1294 4750 2059 4750 
Q 2388 4750 2728 4690 
Q 3069 4631 3425 4513 
z
" transform="scale(0.015625)"/>
       <path id="DejaVuSans-69" d="M 603 3500 
L 1178 3500 
L 1178 0 
L 603 0 
L 603 3500 
z
M 603 4863 
L 1178 4863 
L 1178 4134 
L 603 4134 
L 603 4863 
z
" transform="scale(0.015625)"/>
       <path id="DejaVuSans-33" d="M 2597 2516 
Q 3050 2419 3304 2112 
Q 3559 1806 3559 1356 
Q 3559 666 3084 287 
Q 2609 -91 1734 -91 
Q 1441 -91 1130 -33 
Q 819 25 488 141 
L 488 750 
Q 750 597 1062 519 
Q 1375 441 1716 441 
Q 2309 441 2620 675 
Q 2931 909 2931 1356 
Q 2931 1769 2642 2001 
Q 2353 2234 1838 2234 
L 1294 2234 
L 1294 2753 
L 1863 2753 
Q 2328 2753 2575 2939 
Q 2822 3125 2822 3475 
Q 2822 3834 2567 4026 
Q 2313 4219 1838 4219 
Q 1578 4219 1281 4162 
Q 984 4106 628 3988 
L 628 4550 
Q 988 4650 1302 4700 
Q 1616 4750 1894 4750 
Q 2613 4750 3031 4423 
Q 3450 4097 3450 3541 
Q 3450 3153 3228 2886 
Q 3006 2619 2597 2516 
z
" transform="scale(0.015625)"/>
      </defs>
      <use xlink:href="#DejaVuSans-41"/>
      <use xlink:href="#DejaVuSans-76" x="62.533203"/>
      <use xlink:href="#DejaVuSans-65" x="121.712891"/>
      <use xlink:href="#DejaVuSans-72" x="183.236328"/>
      <use xlink:href="#DejaVuSans-61" x="224.349609"/>
      <use xlink:href="#DejaVuSans-67" x="285.628906"/>
      <use xlink:href="#DejaVuSans-65" x="349.105469"/>
      <use xlink:href="#DejaVuSans-20" x="410.628906"/>
      <use xlink:href="#DejaVuSans-6f" x="442.416016"/>
      <use xlink:href="#DejaVuSans-66" x="503.597656"/>
      <use xlink:href="#DejaVuSans-20" x="538.802734"/>
      <use xlink:href="#DejaVuSans-53" x="570.589844"/>
      <use xlink:href="#DejaVuSans-65" x="634.066406"/>
      <use xlink:href="#DejaVuSans-73" x="695.589844"/>
      <use xlink:href="#DejaVuSans-73" x="747.689453"/>
      <use xlink:href="#DejaVuSans-69" x="799.789062"/>
      <use xlink:href="#DejaVuSans-6f" x="827.572266"/>
      <use xlink:href="#DejaVuSans-6e" x="888.753906"/>
      <use xlink:href="#DejaVuSans-20" x="952.132812"/>
      <use xlink:href="#DejaVuSans-33" x="983.919922"/>
      <use xlink:href="#DejaVuSans-36" x="1047.542969"/>
     </g>
    </g>
    <g id="line2d_14">
     <path d="M 108.195406 38.921158 
L 118.195406 38.921158 
L 128.195406 38.921158 
" style="fill: none; stroke: #e41a1c; stroke-width: 1.5; stroke-linecap: square"/>
    </g>
    <g id="text_14">
     <!-- Target (n=82) -->
     <g transform="translate(136.195406 42.421158)scale(0.1 -0.1)">
      <defs>
       <path id="DejaVuSans-54" d="M -19 4666 
L 3928 4666 
L 3928 4134 
L 2272 4134 
L 2272 0 
L 1638 0 
L 1638 4134 
L -19 4134 
L -19 4666 
z
" transform="scale(0.015625)"/>
       <path id="DejaVuSans-74" d="M 1172 4494 
L 1172 3500 
L 2356 3500 
L 2356 3053 
L 1172 3053 
L 1172 1153 
Q 1172 725 1289 603 
Q 1406 481 1766 481 
L 2356 481 
L 2356 0 
L 1766 0 
Q 1100 0 847 248 
Q 594 497 594 1153 
L 594 3053 
L 172 3053 
L 172 3500 
L 594 3500 
L 594 4494 
L 1172 4494 
z
" transform="scale(0.015625)"/>
       <path id="DejaVuSans-28" d="M 1984 4856 
Q 1566 4138 1362 3434 
Q 1159 2731 1159 2009 
Q 1159 1288 1364 580 
Q 1569 -128 1984 -844 
L 1484 -844 
Q 1016 -109 783 600 
Q 550 1309 550 2009 
Q 550 2706 781 3412 
Q 1013 4119 1484 4856 
L 1984 4856 
z
" transform="scale(0.015625)"/>
       <path id="DejaVuSans-3d" d="M 678 2906 
L 4684 2906 
L 4684 2381 
L 678 2381 
L 678 2906 
z
M 678 1631 
L 4684 1631 
L 4684 1100 
L 678 1100 
L 678 1631 
z
" transform="scale(0.015625)"/>
       <path id="DejaVuSans-29" d="M 513 4856 
L 1013 4856 
Q 1481 4119 1714 3412 
Q 1947 2706 1947 2009 
Q 1947 1309 1714 600 
Q 1481 -109 1013 -844 
L 513 -844 
Q 928 -128 1133 580 
Q 1338 1288 1338 2009 
Q 1338 2731 1133 3434 
Q 928 4138 513 4856 
z
" transform="scale(0.015625)"/>
      </defs>
      <use xlink:href="#DejaVuSans-54"/>
      <use xlink:href="#DejaVuSans-61" x="44.583984"/>
      <use xlink:href="#DejaVuSans-72" x="105.863281"/>
      <use xlink:href="#DejaVuSans-67" x="145.226562"/>
      <use xlink:href="#DejaVuSans-65" x="208.703125"/>
      <use xlink:href="#DejaVuSans-74" x="270.226562"/>
      <use xlink:href="#DejaVuSans-20" x="309.435547"/>
      <use xlink:href="#DejaVuSans-28" x="341.222656"/>
      <use xlink:href="#DejaVuSans-6e" x="380.236328"/>
      <use xlink:href="#DejaVuSans-3d" x="443.615234"/>
      <use xlink:href="#DejaVuSans-38" x="527.404297"/>
      <use xlink:href="#DejaVuSans-32" x="591.027344"/>
      <use xlink:href="#DejaVuSans-29" x="654.650391"/>
     </g>
    </g>
    <g id="line2d_15">
     <path d="M 225.562593 38.921158 
L 235.562593 38.921158 
L 245.562593 38.921158 
" style="fill: none; stroke: #377eb8; stroke-width: 1.5; stroke-linecap: square"/>
    </g>
    <g id="text_15">
     <!-- Non-Target (n=430) -->
     <g transform="translate(253.562593 42.421158)scale(0.1 -0.1)">
      <defs>
       <path id="DejaVuSans-4e" d="M 628 4666 
L 1478 4666 
L 3547 763 
L 3547 4666 
L 4159 4666 
L 4159 0 
L 3309 0 
L 1241 3903 
L 1241 0 
L 628 0 
L 628 4666 
z
" transform="scale(0.015625)"/>
       <path id="DejaVuSans-2d" d="M 313 2009 
L 1997 2009 
L 1997 1497 
L 313 1497 
L 313 2009 
z
" transform="scale(0.015625)"/>
      </defs>
      <use xlink:href="#DejaVuSans-4e"/>
      <use xlink:href="#DejaVuSans-6f" x="74.804688"/>
      <use xlink:href="#DejaVuSans-6e" x="135.986328"/>
      <use xlink:href="#DejaVuSans-2d" x="199.365234"/>
      <use xlink:href="#DejaVuSans-54" x="226.324219"/>
      <use xlink:href="#DejaVuSans-61" x="270.908203"/>
      <use xlink:href="#DejaVuSans-72" x="332.1875"/>
      <use xlink:href="#DejaVuSans-67" x="371.550781"/>
      <use xlink:href="#DejaVuSans-65" x="435.027344"/>
      <use xlink:href="#DejaVuSans-74" x="496.550781"/>
      <use xlink:href="#DejaVuSans-20" x="535.759766"/>
      <use xlink:href="#DejaVuSans-28" x="567.546875"/>
      <use xlink:href="#DejaVuSans-6e" x="606.560547"/>
      <use xlink:href="#DejaVuSans-3d" x="669.939453"/>
      <use xlink:href="#DejaVuSans-34" x="753.728516"/>
      <use xlink:href="#DejaVuSans-33" x="817.351562"/>
      <use xlink:href="#DejaVuSans-30" x="880.974609"/>
      <use xlink:href="#DejaVuSans-29" x="944.597656"/>
     </g>
    </g>
   </g>
  </g>
 </g>
 <defs>
  <clipPath id="p3fca8f1e14">
   <rect x="46.55" y="71.732" width="367.020499" height="246.308"/>
  </clipPath>
 </defs>
</svg>
