<?xml version="1.0" encoding="utf-8" standalone="no"?>
<!DOCTYPE svg PUBLIC "-//W3C//DTD SVG 1.1//EN"
  "http://www.w3.org/Graphics/SVG/1.1/DTD/svg11.dtd">
<svg xmlns:xlink="http://www.w3.org/1999/xlink" width="432pt" height="360pt" viewBox="0 0 432 360" xmlns="http://www.w3.org/2000/svg" version="1.1">
 <metadata>
  <rdf:RDF xmlns:dc="http://purl.org/dc/elements/1.1/" xmlns:cc="http://creativecommons.org/ns#" xmlns:rdf="http://www.w3.org/1999/02/22-rdf-syntax-ns#">
   <cc:Work>
    <dc:type rdf:resource="http://purl.org/dc/dcmitype/StillImage"/>
    <dc:date>2022-05-19T11:52:11.141776</dc:date>
    <dc:format>image/svg+xml</dc:format>
    <dc:creator>
     <cc:Agent>
      <dc:title>Matplotlib v3.5.1, https://matplotlib.org/</dc:title>
     </cc:Agent>
    </dc:creator>
   </cc:Work>
  </rdf:RDF>
 </metadata>
 <defs>
  <style type="text/css">*{stroke-linejoin: round; stroke-linecap: butt}</style>
 </defs>
 <g id="figure_1">
  <g id="patch_1">
   <path d="M 0 360 
L 432 360 
L 432 0 
L 0 0 
L 0 360 
z
" style="fill: none"/>
  </g>
  <g id="axes_1">
   <g id="patch_2">
    <path d="M 46.64 318.04 
L 413.570499 318.04 
L 413.570499 71.732 
L 46.64 71.732 
L 46.64 318.04 
z
" style="fill: none"/>
   </g>
   <g id="PolyCollection_1">
    <defs>
     <path id="mb02c9c2ba2" d="M 46.64 -144.486899 
L 46.64 -101.405931 
L 47.435945 -98.047123 
L 48.231889 -94.323843 
L 49.027834 -90.731547 
L 49.823779 -87.447921 
L 50.619723 -84.429001 
L 51.415668 -81.612209 
L 52.211613 -79.059051 
L 53.007557 -76.9524 
L 53.803502 -75.512067 
L 54.599447 -74.910836 
L 55.395392 -75.188655 
L 56.191336 -76.14428 
L 56.987281 -77.258126 
L 57.783226 -77.757465 
L 58.57917 -76.90003 
L 59.375115 -74.403632 
L 60.17106 -70.735688 
L 60.967004 -66.994721 
L 61.762949 -64.465703 
L 62.558894 -64.142248 
L 63.354838 -66.433487 
L 64.150783 -71.130427 
L 64.946728 -77.53804 
L 65.742672 -84.613683 
L 66.538617 -91.128838 
L 67.334562 -95.962001 
L 68.130506 -98.428807 
L 68.926451 -98.409666 
L 69.722396 -96.188185 
L 70.51834 -92.16908 
L 71.314285 -86.735638 
L 72.11023 -80.370035 
L 72.906175 -73.831383 
L 73.702119 -68.057353 
L 74.498064 -63.832798 
L 75.294009 -61.526358 
L 76.089953 -61.086367 
L 76.885898 -62.323629 
L 77.681843 -65.162026 
L 78.477787 -69.435285 
L 79.273732 -74.495896 
L 80.069677 -79.190627 
L 80.865621 -82.318786 
L 81.661566 -83.287866 
L 82.457511 -82.444776 
L 83.253455 -80.798045 
L 84.0494 -79.44525 
L 84.845345 -79.15932 
L 85.641289 -80.271647 
L 86.437234 -82.670155 
L 87.233179 -85.729438 
L 88.029124 -88.319347 
L 88.825068 -89.120531 
L 89.621013 -87.182577 
L 90.416958 -82.414012 
L 91.212902 -75.707798 
L 92.008847 -68.647389 
L 92.804792 -62.970994 
L 93.600736 -60.01789 
L 94.396681 -60.33607 
L 95.192626 -63.577712 
L 95.98857 -68.699191 
L 96.784515 -74.332718 
L 97.58046 -79.149481 
L 98.376404 -82.142797 
L 99.172349 -82.869119 
L 99.968294 -81.627077 
L 100.764238 -79.376524 
L 101.560183 -77.265968 
L 102.356128 -76.033773 
L 103.152073 -75.708284 
L 103.948017 -75.789142 
L 104.743962 -75.745805 
L 105.539907 -75.417128 
L 106.335851 -75.035857 
L 107.131796 -75.035955 
L 107.927741 -75.899241 
L 108.723685 -78.046054 
L 109.51963 -81.638774 
L 110.315575 -86.329023 
L 111.111519 -91.186542 
L 111.907464 -94.991746 
L 112.703409 -96.784428 
L 113.499353 -96.285138 
L 114.295298 -93.887395 
L 115.091243 -90.325576 
L 115.887187 -86.329168 
L 116.683132 -82.459839 
L 117.479077 -79.126358 
L 118.275021 -76.613765 
L 119.070966 -75.024317 
L 119.866911 -74.25848 
L 120.662856 -74.158142 
L 121.4588 -74.679322 
L 122.254745 -75.871807 
L 123.05069 -77.663338 
L 123.846634 -79.67804 
L 124.642579 -81.295286 
L 125.438524 -81.926779 
L 126.234468 -81.277201 
L 127.030413 -79.392611 
L 127.826358 -76.537189 
L 128.622302 -73.064414 
L 129.418247 -69.383991 
L 130.214192 -65.973324 
L 131.010136 -63.27132 
L 131.806081 -61.43377 
L 132.602026 -60.18373 
L 133.39797 -58.961857 
L 134.193915 -57.338297 
L 134.98986 -55.425339 
L 135.785805 -53.950367 
L 136.581749 -53.881433 
L 137.377694 -55.863319 
L 138.173639 -59.81186 
L 138.969583 -64.872131 
L 139.765528 -69.770336 
L 140.561473 -73.376997 
L 141.357417 -75.140527 
L 142.153362 -75.18146 
L 142.949307 -74.111189 
L 143.745251 -72.728729 
L 144.541196 -71.727188 
L 145.337141 -71.517583 
L 146.133085 -72.184722 
L 146.92903 -73.487939 
L 147.724975 -74.888433 
L 148.520919 -75.706565 
L 149.316864 -75.422483 
L 150.112809 -73.932684 
L 150.908753 -71.551308 
L 151.704698 -68.77018 
L 152.500643 -66.015349 
L 153.296588 -63.591798 
L 154.092532 -61.76043 
L 154.888477 -60.758534 
L 155.684422 -60.710474 
L 156.480366 -61.56193 
L 157.276311 -63.183987 
L 158.072256 -65.598957 
L 158.8682 -69.013709 
L 159.664145 -73.490252 
L 160.46009 -78.594341 
L 161.256034 -83.412365 
L 162.051979 -86.937956 
L 162.847924 -88.559886 
L 163.643868 -88.356107 
L 164.439813 -87.056489 
L 165.235758 -85.74669 
L 166.031702 -85.462801 
L 166.827647 -86.795064 
L 167.623592 -89.62814 
L 168.419537 -93.155831 
L 169.215481 -96.214045 
L 170.011426 -97.807632 
L 170.807371 -97.560231 
L 171.603315 -95.817443 
L 172.39926 -93.368941 
L 173.195205 -91.033931 
L 173.991149 -89.372901 
L 174.787094 -88.583763 
L 175.583039 -88.505376 
L 176.378983 -88.704065 
L 177.174928 -88.680829 
L 177.970873 -88.170997 
L 178.766817 -87.386701 
L 179.562762 -87.00568 
L 180.358707 -87.841567 
L 181.154651 -90.379351 
L 181.950596 -94.469537 
L 182.746541 -99.344903 
L 183.542485 -103.91475 
L 184.33843 -107.166978 
L 185.134375 -108.511253 
L 185.93032 -107.959817 
L 186.726264 -106.09093 
L 187.522209 -103.796308 
L 188.318154 -101.90617 
L 189.114098 -100.855232 
L 189.910043 -100.547535 
L 190.705988 -100.501704 
L 191.501932 -100.2074 
L 192.297877 -99.432704 
L 193.093822 -98.227722 
L 193.889766 -96.695858 
L 194.685711 -94.849095 
L 195.481656 -92.7206 
L 196.2776 -90.577806 
L 197.073545 -88.937355 
L 197.86949 -88.324082 
L 198.665434 -89.008729 
L 199.461379 -90.959069 
L 200.257324 -94.042295 
L 201.053269 -98.245261 
L 201.849213 -103.573718 
L 202.645158 -109.684322 
L 203.441103 -115.694252 
L 204.237047 -120.403103 
L 205.032992 -122.747983 
L 205.828937 -122.174472 
L 206.624881 -118.767535 
L 207.420826 -113.201663 
L 208.216771 -106.606548 
L 209.012715 -100.355443 
L 209.80866 -95.762503 
L 210.604605 -93.765727 
L 211.400549 -94.72284 
L 212.196494 -98.368131 
L 212.992439 -103.885765 
L 213.788383 -110.064609 
L 214.584328 -115.554177 
L 215.380273 -119.226422 
L 216.176218 -120.537757 
L 216.972162 -119.688819 
L 217.768107 -117.472699 
L 218.564052 -114.936507 
L 219.359996 -113.074517 
L 220.155941 -112.654422 
L 220.951886 -114.12405 
L 221.74783 -117.507657 
L 222.543775 -122.306264 
L 223.33972 -127.530642 
L 224.135664 -131.970428 
L 224.931609 -134.642316 
L 225.727554 -135.181022 
L 226.523498 -133.921005 
L 227.319443 -131.643842 
L 228.115388 -129.207991 
L 228.911332 -127.29306 
L 229.707277 -126.313167 
L 230.503222 -126.370691 
L 231.299166 -127.164799 
L 232.095111 -127.989336 
L 232.891056 -127.97752 
L 233.687001 -126.513554 
L 234.482945 -123.538751 
L 235.27889 -119.551164 
L 236.074835 -115.354248 
L 236.870779 -111.770818 
L 237.666724 -109.462992 
L 238.462669 -108.82521 
L 239.258613 -109.879744 
L 240.054558 -112.237196 
L 240.850503 -115.246613 
L 241.646447 -118.311556 
L 242.442392 -121.155083 
L 243.238337 -123.828615 
L 244.034281 -126.495451 
L 244.830226 -129.192194 
L 245.626171 -131.720387 
L 246.422115 -133.695207 
L 247.21806 -134.70842 
L 248.014005 -134.531777 
L 248.80995 -133.260007 
L 249.605894 -131.304567 
L 250.401839 -129.240342 
L 251.197784 -127.609162 
L 251.993728 -126.776066 
L 252.789673 -126.840785 
L 253.585618 -127.589392 
L 254.381562 -128.546208 
L 255.177507 -129.185612 
L 255.973452 -129.231763 
L 256.769396 -128.848442 
L 257.565341 -128.562865 
L 258.361286 -128.975172 
L 259.15723 -130.463447 
L 259.953175 -133.035058 
L 260.74912 -136.309096 
L 261.545064 -139.568365 
L 262.341009 -141.907053 
L 263.136954 -142.525265 
L 263.932898 -141.107819 
L 264.728843 -138.08677 
L 265.524788 -134.580768 
L 266.320733 -132.004454 
L 267.116677 -131.575781 
L 267.912622 -133.960059 
L 268.708567 -139.121646 
L 269.504511 -146.341646 
L 270.300456 -154.373235 
L 271.096401 -161.736771 
L 271.892345 -167.124693 
L 272.68829 -169.813383 
L 273.484235 -169.914884 
L 274.280179 -168.314708 
L 275.076124 -166.29653 
L 275.872069 -165.05119 
L 276.668013 -165.314876 
L 277.463958 -167.262514 
L 278.259903 -170.615241 
L 279.055847 -174.821265 
L 279.851792 -179.209519 
L 280.647737 -183.11913 
L 281.443682 -186.029665 
L 282.239626 -187.668903 
L 283.035571 -188.053438 
L 283.831516 -187.436078 
L 284.62746 -186.161125 
L 285.423405 -184.472864 
L 286.21935 -182.386361 
L 287.015294 -179.740562 
L 287.811239 -176.445128 
L 288.607184 -172.761392 
L 289.403128 -169.394217 
L 290.199073 -167.3084 
L 290.995018 -167.375686 
L 291.790962 -170.023047 
L 292.586907 -175.004743 
L 293.382852 -181.364973 
L 294.178796 -187.630591 
L 294.974741 -192.218965 
L 295.770686 -193.927437 
L 296.56663 -192.297003 
L 297.362575 -187.720867 
L 298.15852 -181.304973 
L 298.954465 -174.556592 
L 299.750409 -168.98235 
L 300.546354 -165.672925 
L 301.342299 -164.971196 
L 302.138243 -166.35256 
L 302.934188 -168.610612 
L 303.730133 -170.294095 
L 304.526077 -170.198709 
L 305.322022 -167.723365 
L 306.117967 -163.011605 
L 306.913911 -156.879856 
L 307.709856 -150.562182 
L 308.505801 -145.336219 
L 309.301745 -142.149195 
L 310.09769 -141.386772 
L 310.893635 -142.878412 
L 311.689579 -146.109341 
L 312.485524 -150.472721 
L 313.281469 -155.387302 
L 314.077414 -160.272042 
L 314.873358 -164.514558 
L 315.669303 -167.534955 
L 316.465248 -168.914812 
L 317.261192 -168.490688 
L 318.057137 -166.368841 
L 318.853082 -162.917252 
L 319.649026 -158.787399 
L 320.444971 -154.899212 
L 321.240916 -152.251392 
L 322.03686 -151.549538 
L 322.832805 -152.865738 
L 323.62875 -155.585688 
L 324.424694 -158.689738 
L 325.220639 -161.144424 
L 326.016584 -162.15317 
L 326.812528 -161.255554 
L 327.608473 -158.403944 
L 328.404418 -154.037264 
L 329.200363 -149.043872 
L 329.996307 -144.531005 
L 330.792252 -141.467 
L 331.588197 -140.374509 
L 332.384141 -141.21039 
L 333.180086 -143.438303 
L 333.976031 -146.222777 
L 334.771975 -148.672093 
L 335.56792 -150.061041 
L 336.363865 -149.956031 
L 337.159809 -148.201038 
L 337.955754 -144.82107 
L 338.751699 -139.979829 
L 339.547643 -134.072217 
L 340.343588 -127.836108 
L 341.139533 -122.276276 
L 341.935477 -118.392331 
L 342.731422 -116.903198 
L 343.527367 -118.11307 
L 344.323311 -121.921138 
L 345.119256 -127.88566 
L 345.915201 -135.255115 
L 346.711146 -142.991095 
L 347.50709 -149.905774 
L 348.303035 -154.964684 
L 349.09898 -157.626418 
L 349.894924 -158.015079 
L 350.690869 -156.83867 
L 351.486814 -155.141896 
L 352.282758 -154.022625 
L 353.078703 -154.337879 
L 353.874648 -156.381824 
L 354.670592 -159.658609 
L 355.466537 -162.974372 
L 356.262482 -164.907976 
L 357.058426 -164.427921 
L 357.854371 -161.310498 
L 358.650316 -156.201276 
L 359.44626 -150.409714 
L 360.242205 -145.561641 
L 361.03815 -143.141754 
L 361.834095 -143.982771 
L 362.630039 -147.902142 
L 363.425984 -153.71467 
L 364.221929 -159.653588 
L 365.017873 -163.980382 
L 365.813818 -165.489497 
L 366.609763 -163.765933 
L 367.405707 -159.232541 
L 368.201652 -153.050319 
L 368.997597 -146.859782 
L 369.793541 -142.341576 
L 370.589486 -140.700249 
L 371.385431 -142.291248 
L 372.181375 -146.562223 
L 372.97732 -152.32355 
L 373.773265 -158.217594 
L 374.569209 -163.16553 
L 375.365154 -166.588646 
L 376.161099 -168.360957 
L 376.957043 -168.631975 
L 377.752988 -167.696234 
L 378.548933 -165.956239 
L 379.344878 -163.870359 
L 380.140822 -161.804249 
L 380.936767 -159.887579 
L 381.732712 -158.033889 
L 382.528656 -156.133559 
L 383.324601 -154.26634 
L 384.120546 -152.756281 
L 384.91649 -152.026532 
L 385.712435 -152.374311 
L 386.50838 -153.82042 
L 387.304324 -156.097833 
L 388.100269 -158.748054 
L 388.896214 -161.259638 
L 389.692158 -163.201254 
L 390.488103 -164.336179 
L 391.284048 -164.718536 
L 392.079992 -164.735945 
L 392.875937 -165.011937 
L 393.671882 -166.130832 
L 394.467827 -168.31591 
L 395.263771 -171.288226 
L 396.059716 -174.423389 
L 396.855661 -177.092074 
L 397.651605 -178.925509 
L 398.44755 -179.863924 
L 399.243495 -180.091473 
L 400.039439 -179.991382 
L 400.835384 -180.065377 
L 401.631329 -180.706173 
L 402.427273 -181.917158 
L 403.223218 -183.236087 
L 404.019163 -183.995329 
L 404.815107 -183.732193 
L 405.611052 -182.377957 
L 406.406997 -180.099617 
L 407.202941 -177.069364 
L 407.998886 -173.462582 
L 408.794831 -169.656215 
L 409.590775 -166.313116 
L 410.38672 -164.149198 
L 411.182665 -163.563484 
L 411.97861 -164.437584 
L 412.774554 -166.210757 
L 413.570499 -168.132643 
L 413.570499 -264.686657 
L 413.570499 -264.686657 
L 412.774554 -263.891105 
L 411.97861 -263.311973 
L 411.182665 -263.12257 
L 410.38672 -263.408991 
L 409.590775 -264.272671 
L 408.794831 -265.862933 
L 407.998886 -268.236517 
L 407.202941 -271.131297 
L 406.406997 -273.934562 
L 405.611052 -275.990174 
L 404.815107 -276.989059 
L 404.019163 -277.072182 
L 403.223218 -276.58159 
L 402.427273 -275.755678 
L 401.631329 -274.676852 
L 400.835384 -273.421439 
L 400.039439 -272.136921 
L 399.243495 -270.933849 
L 398.44755 -269.745189 
L 397.651605 -268.364567 
L 396.855661 -266.652807 
L 396.059716 -264.677494 
L 395.263771 -262.644902 
L 394.467827 -260.749042 
L 393.671882 -259.112912 
L 392.875937 -257.811224 
L 392.079992 -256.854092 
L 391.284048 -256.097979 
L 390.488103 -255.189699 
L 389.692158 -253.674356 
L 388.896214 -251.250479 
L 388.100269 -247.991958 
L 387.304324 -244.374785 
L 386.50838 -241.099732 
L 385.712435 -238.824397 
L 384.91649 -237.944889 
L 384.120546 -238.514295 
L 383.324601 -240.291886 
L 382.528656 -242.850547 
L 381.732712 -245.687074 
L 380.936767 -248.342955 
L 380.140822 -250.54242 
L 379.344878 -252.277147 
L 378.548933 -253.732706 
L 377.752988 -255.04052 
L 376.957043 -256.008713 
L 376.161099 -256.080238 
L 375.365154 -254.612391 
L 374.569209 -251.284159 
L 373.773265 -246.349642 
L 372.97732 -240.614704 
L 372.181375 -235.208099 
L 371.385431 -231.291527 
L 370.589486 -229.795631 
L 369.793541 -231.197046 
L 368.997597 -235.351337 
L 368.201652 -241.427511 
L 367.405707 -248.006156 
L 366.609763 -253.398 
L 365.813818 -256.159605 
L 365.017873 -255.616766 
L 364.221929 -252.118419 
L 363.425984 -246.876948 
L 362.630039 -241.505912 
L 361.834095 -237.509035 
L 361.03815 -235.895564 
L 360.242205 -236.948245 
L 359.44626 -240.140265 
L 358.650316 -244.263055 
L 357.854371 -247.82446 
L 357.058426 -249.611614 
L 356.262482 -249.132275 
L 355.466537 -246.704323 
L 354.670592 -243.231632 
L 353.874648 -239.87246 
L 353.078703 -237.712707 
L 352.282758 -237.428925 
L 351.486814 -238.985256 
L 350.690869 -241.546219 
L 349.894924 -243.756607 
L 349.09898 -244.28273 
L 348.303035 -242.304019 
L 347.50709 -237.727308 
L 346.711146 -231.128903 
L 345.915201 -223.552394 
L 345.119256 -216.242669 
L 344.323311 -210.332103 
L 343.527367 -206.541257 
L 342.731422 -205.037594 
L 341.935477 -205.548227 
L 341.139533 -207.644191 
L 340.343588 -210.986627 
L 339.547643 -215.360832 
L 338.751699 -220.483816 
L 337.955754 -225.778693 
L 337.159809 -230.38165 
L 336.363865 -233.421764 
L 335.56792 -234.357337 
L 334.771975 -233.175758 
L 333.976031 -230.417246 
L 333.180086 -227.057379 
L 332.384141 -224.278829 
L 331.588197 -223.160316 
L 330.792252 -224.357652 
L 329.996307 -227.897611 
L 329.200363 -233.164807 
L 328.404418 -239.061318 
L 327.608473 -244.27502 
L 326.812528 -247.62297 
L 326.016584 -248.428326 
L 325.220639 -246.801719 
L 324.424694 -243.646062 
L 323.62875 -240.305966 
L 322.832805 -238.02418 
L 322.03686 -237.541265 
L 321.240916 -239.026159 
L 320.444971 -242.20712 
L 319.649026 -246.492426 
L 318.853082 -251.04069 
L 318.057137 -254.886928 
L 317.261192 -257.181451 
L 316.465248 -257.429969 
L 315.669303 -255.574292 
L 314.873358 -251.894785 
L 314.077414 -246.871418 
L 313.281469 -241.135089 
L 312.485524 -235.491428 
L 311.689579 -230.885074 
L 310.893635 -228.219226 
L 310.09769 -228.096512 
L 309.301745 -230.634916 
L 308.505801 -235.435234 
L 307.709856 -241.655353 
L 306.913911 -248.14066 
L 306.117967 -253.622742 
L 305.322022 -257.009747 
L 304.526077 -257.723858 
L 303.730133 -255.954795 
L 302.934188 -252.681976 
L 302.138243 -249.410993 
L 301.342299 -247.712206 
L 300.546354 -248.72695 
L 299.750409 -252.781538 
L 298.954465 -259.207747 
L 298.15852 -266.462433 
L 297.362575 -272.580083 
L 296.56663 -275.831264 
L 295.770686 -275.318878 
L 294.974741 -271.255942 
L 294.178796 -264.825237 
L 293.382852 -257.721914 
L 292.586907 -251.603209 
L 291.790962 -247.642634 
L 290.995018 -246.289019 
L 290.199073 -247.276091 
L 289.403128 -249.869748 
L 288.607184 -253.229713 
L 287.811239 -256.696182 
L 287.015294 -259.884576 
L 286.21935 -262.628634 
L 285.423405 -264.890969 
L 284.62746 -266.689637 
L 283.831516 -268.009045 
L 283.035571 -268.697372 
L 282.239626 -268.428761 
L 281.443682 -266.80696 
L 280.647737 -263.591279 
L 279.851792 -258.925692 
L 279.055847 -253.436303 
L 278.259903 -248.122699 
L 277.463958 -244.052915 
L 276.668013 -241.969601 
L 275.872069 -241.998483 
L 275.076124 -243.614495 
L 274.280179 -245.851299 
L 273.484235 -247.60534 
L 272.68829 -247.893703 
L 271.892345 -246.022943 
L 271.096401 -241.719221 
L 270.300456 -235.256901 
L 269.504511 -227.509818 
L 268.708567 -219.805589 
L 267.912622 -213.564677 
L 267.116677 -209.848276 
L 266.320733 -209.015332 
L 265.524788 -210.64963 
L 264.728843 -213.765208 
L 263.932898 -217.141352 
L 263.136954 -219.632608 
L 262.341009 -220.427468 
L 261.545064 -219.273375 
L 260.74912 -216.577559 
L 259.953175 -213.251814 
L 259.15723 -210.310315 
L 258.361286 -208.419593 
L 257.565341 -207.664275 
L 256.769396 -207.641562 
L 255.973452 -207.752268 
L 255.177507 -207.47377 
L 254.381562 -206.527124 
L 253.585618 -204.970389 
L 252.789673 -203.215093 
L 251.993728 -201.895154 
L 251.197784 -201.58219 
L 250.401839 -202.487225 
L 249.605894 -204.345531 
L 248.80995 -206.555706 
L 248.014005 -208.447397 
L 247.21806 -209.498713 
L 246.422115 -209.430441 
L 245.626171 -208.202077 
L 244.830226 -205.948274 
L 244.034281 -202.890066 
L 243.238337 -199.271627 
L 242.442392 -195.356931 
L 241.646447 -191.453112 
L 240.850503 -187.897634 
L 240.054558 -185.019294 
L 239.258613 -183.14674 
L 238.462669 -182.646453 
L 237.666724 -183.856038 
L 236.870779 -186.85849 
L 236.074835 -191.250686 
L 235.27889 -196.145357 
L 234.482945 -200.470212 
L 233.687001 -203.367326 
L 232.891056 -204.449209 
L 232.095111 -203.844391 
L 231.299166 -202.126268 
L 230.503222 -200.192534 
L 229.707277 -199.042541 
L 228.911332 -199.407482 
L 228.115388 -201.368971 
L 227.319443 -204.254429 
L 226.523498 -206.949507 
L 225.727554 -208.415687 
L 224.931609 -208.07261 
L 224.135664 -205.886056 
L 223.33972 -202.250498 
L 222.543775 -197.849337 
L 221.74783 -193.551321 
L 220.951886 -190.258388 
L 220.155941 -188.651087 
L 219.359996 -188.913322 
L 218.564052 -190.608401 
L 217.768107 -192.824304 
L 216.972162 -194.52303 
L 216.176218 -194.886969 
L 215.380273 -193.488825 
L 214.584328 -190.281708 
L 213.788383 -185.555806 
L 212.992439 -179.95843 
L 212.196494 -174.486093 
L 211.400549 -170.312606 
L 210.604605 -168.462861 
L 209.80866 -169.479906 
L 209.012715 -173.236426 
L 208.216771 -178.940758 
L 207.420826 -185.303711 
L 206.624881 -190.832121 
L 205.828937 -194.21544 
L 205.032992 -194.691331 
L 204.237047 -192.214271 
L 203.441103 -187.350936 
L 202.645158 -181.028835 
L 201.849213 -174.333731 
L 201.053269 -168.387048 
L 200.257324 -164.156259 
L 199.461379 -162.119448 
L 198.665434 -162.015945 
L 197.86949 -163.030564 
L 197.073545 -164.327715 
L 196.2776 -165.480308 
L 195.481656 -166.505593 
L 194.685711 -167.570179 
L 193.889766 -168.679517 
L 193.093822 -169.664693 
L 192.297877 -170.435931 
L 191.501932 -171.171935 
L 190.705988 -172.215976 
L 189.910043 -173.780759 
L 189.114098 -175.760811 
L 188.318154 -177.786081 
L 187.522209 -179.380235 
L 186.726264 -180.083369 
L 185.93032 -179.532062 
L 185.134375 -177.536264 
L 184.33843 -174.163349 
L 183.542485 -169.797167 
L 182.746541 -165.106683 
L 181.950596 -160.880472 
L 181.154651 -157.781213 
L 180.358707 -156.147435 
L 179.562762 -155.925455 
L 178.766817 -156.718119 
L 177.970873 -157.899261 
L 177.174928 -158.784399 
L 176.378983 -158.876889 
L 175.583039 -158.120231 
L 174.787094 -156.976002 
L 173.991149 -156.202816 
L 173.195205 -156.418191 
L 172.39926 -157.712648 
L 171.603315 -159.583217 
L 170.807371 -161.210816 
L 170.011426 -161.848467 
L 169.215481 -161.085944 
L 168.419537 -158.948678 
L 167.623592 -155.894361 
L 166.827647 -152.703755 
L 166.031702 -150.225597 
L 165.235758 -149.031132 
L 164.439813 -149.139631 
L 163.643868 -149.980822 
L 162.847924 -150.634748 
L 162.051979 -150.206607 
L 161.256034 -148.135959 
L 160.46009 -144.356499 
L 159.664145 -139.326903 
L 158.8682 -133.942025 
L 158.072256 -129.295117 
L 157.276311 -126.27787 
L 156.480366 -125.156736 
L 155.684422 -125.485481 
L 154.888477 -126.522194 
L 154.092532 -127.763176 
L 153.296588 -129.132694 
L 152.500643 -130.770149 
L 151.704698 -132.682771 
L 150.908753 -134.584753 
L 150.112809 -136.017281 
L 149.316864 -136.579471 
L 148.520919 -136.090089 
L 147.724975 -134.665951 
L 146.92903 -132.764885 
L 146.133085 -131.132715 
L 145.337141 -130.53977 
L 144.541196 -131.353639 
L 143.745251 -133.224891 
L 142.949307 -135.16242 
L 142.153362 -135.980743 
L 141.357417 -134.847116 
L 140.561473 -131.648379 
L 139.765528 -127.01143 
L 138.969583 -121.973128 
L 138.173639 -117.512052 
L 137.377694 -114.239075 
L 136.581749 -112.344627 
L 135.785805 -111.704925 
L 134.98986 -112.040407 
L 134.193915 -113.040192 
L 133.39797 -114.40619 
L 132.602026 -115.893144 
L 131.806081 -117.436452 
L 131.010136 -119.263692 
L 130.214192 -121.806194 
L 129.418247 -125.388083 
L 128.622302 -129.869295 
L 127.826358 -134.536302 
L 127.030413 -138.399804 
L 126.234468 -140.692048 
L 125.438524 -141.194606 
L 124.642579 -140.20698 
L 123.846634 -138.246647 
L 123.05069 -135.760333 
L 122.254745 -133.05759 
L 121.4588 -130.412347 
L 120.662856 -128.145733 
L 119.866911 -126.600683 
L 119.070966 -126.075059 
L 118.275021 -126.817068 
L 117.479077 -129.038331 
L 116.683132 -132.785099 
L 115.887187 -137.679239 
L 115.091243 -142.809498 
L 114.295298 -146.985519 
L 113.499353 -149.210122 
L 112.703409 -149.052876 
L 111.907464 -146.714446 
L 111.111519 -142.801865 
L 110.315575 -138.061787 
L 109.51963 -133.263187 
L 108.723685 -129.129217 
L 107.927741 -126.169386 
L 107.131796 -124.477826 
L 106.335851 -123.713565 
L 105.539907 -123.378256 
L 104.743962 -123.202908 
L 103.948017 -123.292514 
L 103.152073 -123.902343 
L 102.356128 -125.120462 
L 101.560183 -126.779097 
L 100.764238 -128.555431 
L 99.968294 -130.051432 
L 99.172349 -130.776557 
L 98.376404 -130.139296 
L 97.58046 -127.651804 
L 96.784515 -123.335871 
L 95.98857 -117.978064 
L 95.192626 -112.959732 
L 94.396681 -109.749732 
L 93.600736 -109.359983 
L 92.804792 -112.010226 
L 92.008847 -117.076613 
L 91.212902 -123.295797 
L 90.416958 -129.154422 
L 89.621013 -133.331176 
L 88.825068 -135.030756 
L 88.029124 -134.141241 
L 87.233179 -131.248883 
L 86.437234 -127.50728 
L 85.641289 -124.295103 
L 84.845345 -122.673826 
L 84.0494 -122.872369 
L 83.253455 -124.188889 
L 82.457511 -125.440336 
L 81.661566 -125.593504 
L 80.865621 -124.1175 
L 80.069677 -120.931891 
L 79.273732 -116.24794 
L 78.477787 -110.612918 
L 77.681843 -105.011187 
L 76.885898 -100.71869 
L 76.089953 -98.831548 
L 75.294009 -99.701481 
L 74.498064 -102.827652 
L 73.702119 -107.361723 
L 72.906175 -112.652047 
L 72.11023 -118.392404 
L 71.314285 -124.376408 
L 70.51834 -130.112183 
L 69.722396 -134.711286 
L 68.926451 -137.193116 
L 68.130506 -136.89052 
L 67.334562 -133.67313 
L 66.538617 -127.966551 
L 65.742672 -120.671832 
L 64.946728 -113.055369 
L 64.150783 -106.543468 
L 63.354838 -102.334485 
L 62.558894 -100.961377 
L 61.762949 -102.123405 
L 60.967004 -104.917524 
L 60.17106 -108.276065 
L 59.375115 -111.344987 
L 58.57917 -113.640259 
L 57.783226 -114.989902 
L 56.987281 -115.446081 
L 56.191336 -115.281821 
L 55.395392 -114.959073 
L 54.599447 -114.980122 
L 53.803502 -115.703152 
L 53.007557 -117.252846 
L 52.211613 -119.58211 
L 51.415668 -122.608094 
L 50.619723 -126.269946 
L 49.823779 -130.44306 
L 49.027834 -134.820198 
L 48.231889 -138.918702 
L 47.435945 -142.241049 
L 46.64 -144.486899 
z
" style="stroke: #e41a1c; stroke-opacity: 0.3"/>
    </defs>
    <g clip-path="url(#pf4417ea1b6)">
     <use xlink:href="#mb02c9c2ba2" x="0" y="360" style="fill: #e41a1c; fill-opacity: 0.3; stroke: #e41a1c; stroke-opacity: 0.3"/>
    </g>
   </g>
   <g id="PolyCollection_2">
    <defs>
     <path id="me2315fa759" d="M 46.64 -120.827742 
L 46.64 -101.156221 
L 47.435945 -103.427656 
L 48.231889 -105.114859 
L 49.027834 -106.021489 
L 49.823779 -106.035655 
L 50.619723 -105.152315 
L 51.415668 -103.500975 
L 52.211613 -101.341232 
L 53.007557 -99.011395 
L 53.803502 -96.862077 
L 54.599447 -95.204612 
L 55.395392 -94.263249 
L 56.191336 -94.110985 
L 56.987281 -94.615806 
L 57.783226 -95.457052 
L 58.57917 -96.230487 
L 59.375115 -96.587608 
L 60.17106 -96.333484 
L 60.967004 -95.454483 
L 61.762949 -94.092879 
L 62.558894 -92.489626 
L 63.354838 -90.913755 
L 64.150783 -89.604703 
L 64.946728 -88.742787 
L 65.742672 -88.427798 
L 66.538617 -88.642635 
L 67.334562 -89.220243 
L 68.130506 -89.857554 
L 68.926451 -90.210691 
L 69.722396 -90.052613 
L 70.51834 -89.37127 
L 71.314285 -88.30474 
L 72.11023 -87.004342 
L 72.906175 -85.565181 
L 73.702119 -84.044727 
L 74.498064 -82.520663 
L 75.294009 -81.136239 
L 76.089953 -80.094011 
L 76.885898 -79.584599 
L 77.681843 -79.682604 
L 78.477787 -80.273248 
L 79.273732 -81.061711 
L 80.069677 -81.676686 
L 80.865621 -81.828563 
L 81.661566 -81.440991 
L 82.457511 -80.683211 
L 83.253455 -79.896397 
L 84.0494 -79.462974 
L 84.845345 -79.670443 
L 85.641289 -80.602797 
L 86.437234 -82.088008 
L 87.233179 -83.729909 
L 88.029124 -85.028855 
L 88.825068 -85.552233 
L 89.621013 -85.089566 
L 90.416958 -83.73789 
L 91.212902 -81.89262 
L 92.008847 -80.141372 
L 92.804792 -79.076156 
L 93.600736 -79.074038 
L 94.396681 -80.134146 
L 95.192626 -81.854658 
L 95.98857 -83.574798 
L 96.784515 -84.623688 
L 97.58046 -84.558171 
L 98.376404 -83.28705 
L 99.172349 -81.058159 
L 99.968294 -78.348271 
L 100.764238 -75.71048 
L 101.560183 -73.625505 
L 102.356128 -72.39188 
L 103.152073 -72.078768 
L 103.948017 -72.550113 
L 104.743962 -73.54556 
L 105.539907 -74.782447 
L 106.335851 -76.039245 
L 107.131796 -77.192832 
L 107.927741 -78.20253 
L 108.723685 -79.061815 
L 109.51963 -79.76103 
L 110.315575 -80.293352 
L 111.111519 -80.689881 
L 111.907464 -81.036347 
L 112.703409 -81.444131 
L 113.499353 -81.993477 
L 114.295298 -82.687419 
L 115.091243 -83.439079 
L 115.887187 -84.08038 
L 116.683132 -84.372489 
L 117.479077 -84.038653 
L 118.275021 -82.855606 
L 119.070966 -80.779322 
L 119.866911 -78.022612 
L 120.662856 -75.02548 
L 121.4588 -72.331404 
L 122.254745 -70.425674 
L 123.05069 -69.588782 
L 123.846634 -69.807889 
L 124.642579 -70.78998 
L 125.438524 -72.095741 
L 126.234468 -73.34107 
L 127.030413 -74.352366 
L 127.826358 -75.19088 
L 128.622302 -76.056036 
L 129.418247 -77.139435 
L 130.214192 -78.496539 
L 131.010136 -79.974861 
L 131.806081 -81.227891 
L 132.602026 -81.834979 
L 133.39797 -81.494118 
L 134.193915 -80.18755 
L 134.98986 -78.222272 
L 135.785805 -76.126135 
L 136.581749 -74.457207 
L 137.377694 -73.600571 
L 138.173639 -73.607748 
L 138.969583 -74.139462 
L 139.765528 -74.579628 
L 140.561473 -74.318944 
L 141.357417 -73.083318 
L 142.153362 -71.121957 
L 142.949307 -69.144866 
L 143.745251 -68.045348 
L 144.541196 -68.536078 
L 145.337141 -70.838297 
L 146.133085 -74.539572 
L 146.92903 -78.693653 
L 147.724975 -82.149818 
L 148.520919 -83.978641 
L 149.316864 -83.79941 
L 150.112809 -81.880604 
L 150.908753 -79.012669 
L 151.704698 -76.231232 
L 152.500643 -74.474363 
L 153.296588 -74.252244 
L 154.092532 -75.444481 
L 154.888477 -77.34821 
L 155.684422 -78.995187 
L 156.480366 -79.594199 
L 157.276311 -78.863262 
L 158.072256 -77.09038 
L 158.8682 -74.948354 
L 159.664145 -73.204619 
L 160.46009 -72.44955 
L 161.256034 -72.907086 
L 162.051979 -74.364854 
L 162.847924 -76.25343 
L 163.643868 -77.862222 
L 164.439813 -78.608202 
L 165.235758 -78.234186 
L 166.031702 -76.848519 
L 166.827647 -74.812553 
L 167.623592 -72.562485 
L 168.419537 -70.461777 
L 169.215481 -68.736358 
L 170.011426 -67.491155 
L 170.807371 -66.769735 
L 171.603315 -66.607374 
L 172.39926 -67.040715 
L 173.195205 -68.067567 
L 173.991149 -69.584233 
L 174.787094 -71.346286 
L 175.583039 -72.989982 
L 176.378983 -74.121419 
L 177.174928 -74.446281 
L 177.970873 -73.889566 
L 178.766817 -72.651105 
L 179.562762 -71.161401 
L 180.358707 -69.938293 
L 181.154651 -69.389479 
L 181.950596 -69.641897 
L 182.746541 -70.481734 
L 183.542485 -71.445236 
L 184.33843 -72.02463 
L 185.134375 -71.888062 
L 185.93032 -71.008635 
L 186.726264 -69.661043 
L 187.522209 -68.317582 
L 188.318154 -67.50121 
L 189.114098 -67.629157 
L 189.910043 -68.861375 
L 190.705988 -71.001765 
L 191.501932 -73.52969 
L 192.297877 -75.787318 
L 193.093822 -77.247787 
L 193.889766 -77.725773 
L 194.685711 -77.422175 
L 195.481656 -76.802249 
L 196.2776 -76.396689 
L 197.073545 -76.619446 
L 197.86949 -77.644603 
L 198.665434 -79.350466 
L 199.461379 -81.349041 
L 200.257324 -83.121011 
L 201.053269 -84.227595 
L 201.849213 -84.506924 
L 202.645158 -84.147551 
L 203.441103 -83.595595 
L 204.237047 -83.351572 
L 205.032992 -83.762228 
L 205.828937 -84.885807 
L 206.624881 -86.459587 
L 207.420826 -87.974429 
L 208.216771 -88.849523 
L 209.012715 -88.664916 
L 209.80866 -87.35967 
L 210.604605 -85.29215 
L 211.400549 -83.120893 
L 212.196494 -81.564594 
L 212.992439 -81.156088 
L 213.788383 -82.079977 
L 214.584328 -84.123246 
L 215.380273 -86.738287 
L 216.176218 -89.21267 
L 216.972162 -90.909142 
L 217.768107 -91.487688 
L 218.564052 -91.005191 
L 219.359996 -89.842567 
L 220.155941 -88.504734 
L 220.951886 -87.399137 
L 221.74783 -86.686268 
L 222.543775 -86.246519 
L 223.33972 -85.765253 
L 224.135664 -84.903041 
L 224.931609 -83.481108 
L 225.727554 -81.592322 
L 226.523498 -79.576283 
L 227.319443 -77.870363 
L 228.115388 -76.817066 
L 228.911332 -76.521716 
L 229.707277 -76.815659 
L 230.503222 -77.328991 
L 231.299166 -77.638917 
L 232.095111 -77.433902 
L 232.891056 -76.623279 
L 233.687001 -75.345004 
L 234.482945 -73.878579 
L 235.27889 -72.519244 
L 236.074835 -71.477725 
L 236.870779 -70.837005 
L 237.666724 -70.558955 
L 238.462669 -70.521051 
L 239.258613 -70.56676 
L 240.054558 -70.549883 
L 240.850503 -70.351977 
L 241.646447 -69.87132 
L 242.442392 -69.009282 
L 243.238337 -67.683529 
L 244.034281 -65.871893 
L 244.830226 -63.665947 
L 245.626171 -61.309741 
L 246.422115 -59.205622 
L 247.21806 -57.872587 
L 248.014005 -57.841951 
L 248.80995 -59.484424 
L 249.605894 -62.809174 
L 250.401839 -67.338499 
L 251.197784 -72.160611 
L 251.993728 -76.174397 
L 252.789673 -78.434333 
L 253.585618 -78.455101 
L 254.381562 -76.362392 
L 255.177507 -72.843646 
L 255.973452 -68.919218 
L 256.769396 -65.610786 
L 257.565341 -63.626258 
L 258.361286 -63.182165 
L 259.15723 -64.021239 
L 259.953175 -65.583432 
L 260.74912 -67.23376 
L 261.545064 -68.473343 
L 262.341009 -69.096057 
L 263.136954 -69.253339 
L 263.932898 -69.386773 
L 264.728843 -70.029276 
L 265.524788 -71.553994 
L 266.320733 -73.99629 
L 267.116677 -77.035165 
L 267.912622 -80.125558 
L 268.708567 -82.696546 
L 269.504511 -84.324354 
L 270.300456 -84.834962 
L 271.096401 -84.329336 
L 271.892345 -83.135467 
L 272.68829 -81.697179 
L 273.484235 -80.426333 
L 274.280179 -79.567996 
L 275.076124 -79.134933 
L 275.872069 -78.938848 
L 276.668013 -78.694865 
L 277.463958 -78.143068 
L 278.259903 -77.139561 
L 279.055847 -75.70025 
L 279.851792 -74.000704 
L 280.647737 -72.333469 
L 281.443682 -71.018857 
L 282.239626 -70.287285 
L 283.035571 -70.190738 
L 283.831516 -70.598275 
L 284.62746 -71.270779 
L 285.423405 -71.959289 
L 286.21935 -72.479925 
L 287.015294 -72.756599 
L 287.811239 -72.837854 
L 288.607184 -72.879316 
L 289.403128 -73.075471 
L 290.199073 -73.556333 
L 290.995018 -74.309797 
L 291.790962 -75.185799 
L 292.586907 -75.97864 
L 293.382852 -76.530867 
L 294.178796 -76.799971 
L 294.974741 -76.862148 
L 295.770686 -76.858299 
L 296.56663 -76.90669 
L 297.362575 -77.022705 
L 298.15852 -77.090511 
L 298.954465 -76.907712 
L 299.750409 -76.281261 
L 300.546354 -75.125021 
L 301.342299 -73.516282 
L 302.138243 -71.694615 
L 302.934188 -70.005136 
L 303.730133 -68.796627 
L 304.526077 -68.29792 
L 305.322022 -68.518005 
L 306.117967 -69.222993 
L 306.913911 -70.013164 
L 307.709856 -70.470576 
L 308.505801 -70.310986 
L 309.301745 -69.475805 
L 310.09769 -68.133506 
L 310.893635 -66.602849 
L 311.689579 -65.241227 
L 312.485524 -64.34537 
L 313.281469 -64.087672 
L 314.077414 -64.484537 
L 314.873358 -65.392298 
L 315.669303 -66.539208 
L 316.465248 -67.596126 
L 317.261192 -68.263339 
L 318.057137 -68.333703 
L 318.853082 -67.706472 
L 319.649026 -66.367351 
L 320.444971 -64.37526 
L 321.240916 -61.875435 
L 322.03686 -59.120342 
L 322.832805 -56.467624 
L 323.62875 -54.340894 
L 324.424694 -53.155818 
L 325.220639 -53.215712 
L 326.016584 -54.589327 
L 326.812528 -57.017687 
L 327.608473 -59.923143 
L 328.404418 -62.561584 
L 329.200363 -64.275024 
L 329.996307 -64.729776 
L 330.792252 -64.028382 
L 331.588197 -62.657352 
L 332.384141 -61.307413 
L 333.180086 -60.634309 
L 333.976031 -61.031154 
L 334.771975 -62.480281 
L 335.56792 -64.541693 
L 336.363865 -66.499735 
L 337.159809 -67.627 
L 337.955754 -67.465808 
L 338.751699 -66.015023 
L 339.547643 -63.751344 
L 340.343588 -61.477594 
L 341.139533 -60.045951 
L 341.935477 -60.045818 
L 342.731422 -61.570061 
L 343.527367 -64.159019 
L 344.323311 -66.956395 
L 345.119256 -69.017674 
L 345.915201 -69.641631 
L 346.711146 -68.593239 
L 347.50709 -66.147977 
L 348.303035 -62.963496 
L 349.09898 -59.837021 
L 349.894924 -57.435292 
L 350.690869 -56.093814 
L 351.486814 -55.76088 
L 352.282758 -56.100945 
L 353.078703 -56.697495 
L 353.874648 -57.253991 
L 354.670592 -57.706695 
L 355.466537 -58.216167 
L 356.262482 -59.057546 
L 357.058426 -60.463103 
L 357.854371 -62.48345 
L 358.650316 -64.927069 
L 359.44626 -67.406604 
L 360.242205 -69.470761 
L 361.03815 -70.760548 
L 361.834095 -71.122279 
L 362.630039 -70.634614 
L 363.425984 -69.544943 
L 364.221929 -68.148279 
L 365.017873 -66.668784 
L 365.813818 -65.203786 
L 366.609763 -63.753391 
L 367.405707 -62.305147 
L 368.201652 -60.912649 
L 368.997597 -59.720114 
L 369.793541 -58.921484 
L 370.589486 -58.672609 
L 371.385431 -58.994165 
L 372.181375 -59.71764 
L 372.97732 -60.522968 
L 373.773265 -61.071316 
L 374.569209 -61.168436 
L 375.365154 -60.863961 
L 376.161099 -60.432163 
L 376.957043 -60.249478 
L 377.752988 -60.626279 
L 378.548933 -61.655277 
L 379.344878 -63.131656 
L 380.140822 -64.591579 
L 380.936767 -65.482166 
L 381.732712 -65.403967 
L 382.528656 -64.305329 
L 383.324601 -62.523103 
L 384.120546 -60.650301 
L 384.91649 -59.295857 
L 385.712435 -58.834887 
L 386.50838 -59.24166 
L 387.304324 -60.078174 
L 388.100269 -60.670645 
L 388.896214 -60.42392 
L 389.692158 -59.130941 
L 390.488103 -57.11168 
L 391.284048 -55.103101 
L 392.079992 -53.955005 
L 392.875937 -54.271177 
L 393.671882 -56.142227 
L 394.467827 -59.072183 
L 395.263771 -62.133202 
L 396.059716 -64.301458 
L 396.855661 -64.846481 
L 397.651605 -63.608545 
L 398.44755 -61.044434 
L 399.243495 -58.032339 
L 400.039439 -55.531545 
L 400.835384 -54.236322 
L 401.631329 -54.346652 
L 402.427273 -55.532305 
L 403.223218 -57.104795 
L 404.019163 -58.332491 
L 404.815107 -58.763964 
L 405.611052 -58.411058 
L 406.406997 -57.70849 
L 407.202941 -57.280075 
L 407.998886 -57.633872 
L 408.794831 -58.92879 
L 409.590775 -60.9093 
L 410.38672 -63.027868 
L 411.182665 -64.694228 
L 411.97861 -65.530343 
L 412.774554 -65.503815 
L 413.570499 -64.879195 
L 413.570499 -105.192437 
L 413.570499 -105.192437 
L 412.774554 -105.613528 
L 411.97861 -105.53772 
L 411.182665 -104.757739 
L 410.38672 -103.30295 
L 409.590775 -101.476112 
L 408.794831 -99.75826 
L 407.998886 -98.613296 
L 407.202941 -98.27582 
L 406.406997 -98.628914 
L 405.611052 -99.244203 
L 404.815107 -99.576206 
L 404.019163 -99.224272 
L 403.223218 -98.143248 
L 402.427273 -96.70639 
L 401.631329 -95.579979 
L 400.835384 -95.44172 
L 400.039439 -96.651267 
L 399.243495 -99.026835 
L 398.44755 -101.854098 
L 397.651605 -104.145689 
L 396.855661 -105.039005 
L 396.059716 -104.150531 
L 395.263771 -101.733889 
L 394.467827 -98.58467 
L 393.671882 -95.737402 
L 392.875937 -94.072425 
L 392.079992 -93.986804 
L 391.284048 -95.268869 
L 390.488103 -97.231223 
L 389.692158 -99.032361 
L 388.896214 -100.030102 
L 388.100269 -100.013825 
L 387.304324 -99.24097 
L 386.50838 -98.292199 
L 385.712435 -97.81124 
L 384.91649 -98.221913 
L 384.120546 -99.535418 
L 383.324601 -101.343789 
L 382.528656 -103.010064 
L 381.732712 -103.955477 
L 380.936767 -103.896487 
L 380.140822 -102.931869 
L 379.344878 -101.469113 
L 378.548933 -100.041394 
L 377.752988 -99.088704 
L 376.957043 -98.785746 
L 376.161099 -98.993269 
L 375.365154 -99.360338 
L 374.569209 -99.521332 
L 373.773265 -99.275625 
L 372.97732 -98.659624 
L 372.181375 -97.898382 
L 371.385431 -97.288343 
L 370.589486 -97.073609 
L 369.793541 -97.359938 
L 368.997597 -98.095392 
L 368.201652 -99.125668 
L 367.405707 -100.294585 
L 366.609763 -101.528896 
L 365.813818 -102.853657 
L 365.017873 -104.330863 
L 364.221929 -105.963495 
L 363.425984 -107.622303 
L 362.630039 -109.034794 
L 361.834095 -109.848906 
L 361.03815 -109.755348 
L 360.242205 -108.62176 
L 359.44626 -106.574611 
L 358.650316 -103.981474 
L 357.854371 -101.332709 
L 357.058426 -99.070257 
L 356.262482 -97.436512 
L 355.466537 -96.409534 
L 354.670592 -95.757029 
L 353.874648 -95.18986 
L 353.078703 -94.544234 
L 352.282758 -93.899561 
L 351.486814 -93.567736 
L 350.690869 -93.955699 
L 349.894924 -95.363643 
L 349.09898 -97.80439 
L 348.303035 -100.919297 
L 347.50709 -104.036764 
L 346.711146 -106.371599 
L 345.915201 -107.301626 
L 345.119256 -106.609912 
L 344.323311 -104.584004 
L 343.527367 -101.926535 
L 342.731422 -99.517141 
L 341.935477 -98.11921 
L 341.139533 -98.1298 
L 340.343588 -99.450169 
L 339.547643 -101.522845 
L 338.751699 -103.533116 
L 337.955754 -104.710274 
L 337.159809 -104.614021 
L 336.363865 -103.290286 
L 335.56792 -101.236991 
L 334.771975 -99.201717 
L 333.976031 -97.894694 
L 333.180086 -97.721703 
L 332.384141 -98.631312 
L 331.588197 -100.136235 
L 330.792252 -101.505359 
L 329.996307 -102.047533 
L 329.200363 -101.364685 
L 328.404418 -99.472913 
L 327.608473 -96.765463 
L 326.812528 -93.868047 
L 326.016584 -91.458167 
L 325.220639 -90.092687 
L 324.424694 -90.069045 
L 323.62875 -91.353744 
L 322.832805 -93.612492 
L 322.03686 -96.338833 
L 321.240916 -99.022134 
L 320.444971 -101.27687 
L 319.649026 -102.892505 
L 318.853082 -103.816443 
L 318.057137 -104.106749 
L 317.261192 -103.881751 
L 316.465248 -103.28034 
L 315.669303 -102.448029 
L 314.873358 -101.55638 
L 314.077414 -100.829825 
L 313.281469 -100.53049 
L 312.485524 -100.876763 
L 311.689579 -101.927866 
L 310.893635 -103.507871 
L 310.09769 -105.230691 
L 309.301745 -106.626609 
L 308.505801 -107.312393 
L 307.709856 -107.132037 
L 306.913911 -106.216401 
L 306.117967 -104.944224 
L 305.322022 -103.82151 
L 304.526077 -103.322118 
L 303.730133 -103.739952 
L 302.934188 -105.095159 
L 302.138243 -107.125572 
L 301.342299 -109.376708 
L 300.546354 -111.365181 
L 299.750409 -112.74671 
L 298.954465 -113.411777 
L 298.15852 -113.472965 
L 297.362575 -113.167316 
L 296.56663 -112.734214 
L 295.770686 -112.324862 
L 294.974741 -111.969346 
L 294.178796 -111.601129 
L 293.382852 -111.123213 
L 292.586907 -110.484076 
L 291.790962 -109.722288 
L 290.995018 -108.956737 
L 290.199073 -108.335277 
L 289.403128 -107.972496 
L 288.607184 -107.897081 
L 287.811239 -108.019052 
L 287.015294 -108.136283 
L 286.21935 -108.004717 
L 285.423405 -107.461238 
L 284.62746 -106.532537 
L 283.831516 -105.455316 
L 283.035571 -104.590711 
L 282.239626 -104.284422 
L 281.443682 -104.744048 
L 280.647737 -105.971828 
L 279.851792 -107.755449 
L 279.055847 -109.719044 
L 278.259903 -111.440491 
L 277.463958 -112.607759 
L 276.668013 -113.142887 
L 275.872069 -113.22628 
L 275.076124 -113.209112 
L 274.280179 -113.460236 
L 273.484235 -114.215613 
L 272.68829 -115.480202 
L 271.892345 -117.004513 
L 271.096401 -118.342749 
L 270.300456 -118.987129 
L 269.504511 -118.547022 
L 268.708567 -116.909037 
L 267.912622 -114.303358 
L 267.116677 -111.234065 
L 266.320733 -108.298209 
L 265.524788 -105.978324 
L 264.728843 -104.496987 
L 263.932898 -103.772827 
L 263.136954 -103.470278 
L 262.341009 -103.122702 
L 261.545064 -102.311646 
L 260.74912 -100.866636 
L 259.953175 -99.004043 
L 259.15723 -97.307778 
L 258.361286 -96.520456 
L 257.565341 -97.227606 
L 256.769396 -99.58761 
L 255.973452 -103.225554 
L 255.177507 -107.315594 
L 254.381562 -110.809733 
L 253.585618 -112.742466 
L 252.789673 -112.521547 
L 251.993728 -110.108062 
L 251.197784 -106.020925 
L 250.401839 -101.172073 
L 249.605894 -96.603696 
L 248.80995 -93.215575 
L 248.014005 -91.549708 
L 247.21806 -91.677933 
L 246.422115 -93.226818 
L 245.626171 -95.546339 
L 244.830226 -97.963428 
L 244.034281 -100.003931 
L 243.238337 -101.484433 
L 242.442392 -102.458023 
L 241.646447 -103.078651 
L 240.850503 -103.477489 
L 240.054558 -103.713137 
L 239.258613 -103.79903 
L 238.462669 -103.770059 
L 237.666724 -103.738291 
L 236.870779 -103.895222 
L 236.074835 -104.443074 
L 235.27889 -105.481222 
L 234.482945 -106.915675 
L 233.687001 -108.459572 
L 232.891056 -109.737595 
L 232.095111 -110.442264 
L 231.299166 -110.467433 
L 230.503222 -109.964666 
L 229.707277 -109.302186 
L 228.911332 -108.937499 
L 228.115388 -109.245888 
L 227.319443 -110.373538 
L 226.523498 -112.18289 
L 225.727554 -114.315732 
L 224.931609 -116.34067 
L 224.135664 -117.917635 
L 223.33972 -118.917545 
L 222.543775 -119.457583 
L 221.74783 -119.833952 
L 220.951886 -120.366925 
L 220.155941 -121.220875 
L 219.359996 -122.29089 
L 218.564052 -123.221536 
L 217.768107 -123.551359 
L 216.972162 -122.913259 
L 216.176218 -121.208324 
L 215.380273 -118.694816 
L 214.584328 -115.956591 
L 213.788383 -113.737775 
L 212.992439 -112.680239 
L 212.196494 -113.066763 
L 211.400549 -114.698947 
L 210.604605 -116.9771 
L 209.80866 -119.133794 
L 209.012715 -120.502396 
L 208.216771 -120.718658 
L 207.420826 -119.809451 
L 206.624881 -118.159696 
L 205.828937 -116.363328 
L 205.032992 -114.993559 
L 204.237047 -114.376658 
L 203.441103 -114.474923 
L 202.645158 -114.935727 
L 201.849213 -115.269001 
L 201.053269 -115.054345 
L 200.257324 -114.093199 
L 199.461379 -112.474104 
L 198.665434 -110.548767 
L 197.86949 -108.816934 
L 197.073545 -107.734392 
L 196.2776 -107.507414 
L 195.481656 -107.977249 
L 194.685711 -108.672895 
L 193.889766 -109.012584 
L 193.093822 -108.543484 
L 192.297877 -107.104265 
L 191.501932 -104.86486 
L 190.705988 -102.267172 
L 189.910043 -99.901928 
L 189.114098 -98.336184 
L 188.318154 -97.916273 
L 187.522209 -98.615047 
L 186.726264 -100.018006 
L 185.93032 -101.491602 
L 185.134375 -102.458118 
L 184.33843 -102.62713 
L 183.542485 -102.073579 
L 182.746541 -101.154102 
L 181.950596 -100.332326 
L 181.154651 -99.997472 
L 180.358707 -100.330411 
L 179.562762 -101.245802 
L 178.766817 -102.424743 
L 177.970873 -103.429966 
L 177.174928 -103.864727 
L 176.378983 -103.514153 
L 175.583039 -102.411558 
L 174.787094 -100.8069 
L 173.991149 -99.061724 
L 173.195205 -97.525417 
L 172.39926 -96.44637 
L 171.603315 -95.945173 
L 170.807371 -96.042801 
L 170.011426 -96.710745 
L 169.215481 -97.903605 
L 168.419537 -99.551282 
L 167.623592 -101.518264 
L 166.827647 -103.56511 
L 166.031702 -105.355154 
L 165.235758 -106.526892 
L 164.439813 -106.810966 
L 163.643868 -106.142673 
L 162.847924 -104.725649 
L 162.051979 -103.019831 
L 161.256034 -101.634529 
L 160.46009 -101.128234 
L 159.664145 -101.771589 
L 158.8682 -103.387064 
L 158.072256 -105.379941 
L 157.276311 -106.982136 
L 156.480366 -107.591843 
L 155.684422 -107.028279 
L 154.888477 -105.590623 
L 154.092532 -103.938486 
L 153.296588 -102.866203 
L 152.500643 -103.020057 
L 151.704698 -104.616722 
L 150.908753 -107.273259 
L 150.112809 -110.073166 
L 149.316864 -111.902806 
L 148.520919 -111.918793 
L 147.724975 -109.904424 
L 146.92903 -106.346043 
L 146.133085 -102.226762 
L 145.337141 -98.658609 
L 144.541196 -96.499233 
L 143.745251 -96.075302 
L 142.949307 -97.108133 
L 142.153362 -98.877044 
L 141.357417 -100.548678 
L 140.561473 -101.514672 
L 139.765528 -101.591811 
L 138.969583 -101.034716 
L 138.173639 -100.394893 
L 137.377694 -100.280322 
L 136.581749 -101.082552 
L 135.785805 -102.778468 
L 134.98986 -104.920767 
L 134.193915 -106.840622 
L 133.39797 -107.948736 
L 132.602026 -107.968511 
L 131.806081 -107.003082 
L 131.010136 -105.44188 
L 130.214192 -103.771877 
L 129.418247 -102.369449 
L 128.622302 -101.353069 
L 127.826358 -100.572382 
L 127.030413 -99.747076 
L 126.234468 -98.671007 
L 125.438524 -97.357114 
L 124.642579 -96.053332 
L 123.846634 -95.148643 
L 123.05069 -95.030083 
L 122.254745 -95.936761 
L 121.4588 -97.84805 
L 120.662856 -100.456062 
L 119.866911 -103.255046 
L 119.070966 -105.714953 
L 118.275021 -107.45186 
L 117.479077 -108.321382 
L 116.683132 -108.420798 
L 115.887187 -108.022575 
L 115.091243 -107.458119 
L 114.295298 -106.977724 
L 113.499353 -106.65137 
L 112.703409 -106.377826 
L 111.907464 -105.99273 
L 111.111519 -105.389275 
L 110.315575 -104.569906 
L 109.51963 -103.611584 
L 108.723685 -102.590817 
L 107.927741 -101.532458 
L 107.131796 -100.409974 
L 106.335851 -99.183277 
L 105.539907 -97.852598 
L 104.743962 -96.511057 
L 103.948017 -95.371523 
L 103.152073 -94.739984 
L 102.356128 -94.925982 
L 101.560183 -96.113948 
L 100.764238 -98.246753 
L 99.968294 -100.979493 
L 99.172349 -103.742078 
L 98.376404 -105.90487 
L 97.58046 -106.989 
L 96.784515 -106.832056 
L 95.98857 -105.635003 
L 95.192626 -103.877399 
L 94.396681 -102.15474 
L 93.600736 -101.006455 
L 92.804792 -100.772389 
L 92.008847 -101.498127 
L 91.212902 -102.913184 
L 90.416958 -104.503653 
L 89.621013 -105.677813 
L 88.825068 -105.976229 
L 88.029124 -105.237581 
L 87.233179 -103.645884 
L 86.437234 -101.646595 
L 85.641289 -99.776894 
L 84.845345 -98.47877 
L 84.0494 -97.95862 
L 83.253455 -98.139337 
L 82.457511 -98.722046 
L 81.661566 -99.32966 
L 80.865621 -99.660646 
L 80.069677 -99.579352 
L 79.273732 -99.121915 
L 78.477787 -98.454405 
L 77.681843 -97.820762 
L 76.885898 -97.485047 
L 76.089953 -97.665462 
L 75.294009 -98.470819 
L 74.498064 -99.857132 
L 73.702119 -101.625056 
L 72.906175 -103.472668 
L 72.11023 -105.08976 
L 71.314285 -106.25531 
L 70.51834 -106.903356 
L 69.722396 -107.129669 
L 68.926451 -107.114526 
L 68.130506 -106.991776 
L 67.334562 -106.794529 
L 66.538617 -106.545677 
L 65.742672 -106.367847 
L 64.946728 -106.486277 
L 64.150783 -107.124952 
L 63.354838 -108.369397 
L 62.558894 -110.086924 
L 61.762949 -111.955897 
L 60.967004 -113.579441 
L 60.17106 -114.623992 
L 59.375115 -114.934017 
L 58.57917 -114.583367 
L 57.783226 -113.840313 
L 56.987281 -113.068863 
L 56.191336 -112.625323 
L 55.395392 -112.785862 
L 54.599447 -113.694317 
L 53.803502 -115.319714 
L 53.007557 -117.449257 
L 52.211613 -119.747977 
L 51.415668 -121.86426 
L 50.619723 -123.51446 
L 49.823779 -124.506155 
L 49.027834 -124.725474 
L 48.231889 -124.13496 
L 47.435945 -122.786866 
L 46.64 -120.827742 
z
" style="stroke: #377eb8; stroke-opacity: 0.3"/>
    </defs>
    <g clip-path="url(#pf4417ea1b6)">
     <use xlink:href="#me2315fa759" x="0" y="360" style="fill: #377eb8; fill-opacity: 0.3; stroke: #377eb8; stroke-opacity: 0.3"/>
    </g>
   </g>
   <g id="patch_3">
    <path d="M 229.866466 318.04 
L 229.866466 71.732 
L 331.747385 71.732 
L 331.747385 318.04 
z
" clip-path="url(#pf4417ea1b6)" style="fill: #808080; opacity: 0.3"/>
   </g>
   <g id="matplotlib.axis_1">
    <g id="xtick_1">
     <g id="line2d_1">
      <defs>
       <path id="mbd83e6c5b8" d="M 0 0 
L 0 3.5 
" style="stroke: #000000; stroke-width: 0.8"/>
      </defs>
      <g>
       <use xlink:href="#mbd83e6c5b8" x="87.233179" y="318.04" style="stroke: #000000; stroke-width: 0.8"/>
      </g>
     </g>
     <g id="text_1">
      <!-- 0.0 -->
      <g transform="translate(79.281616 332.638438)scale(0.1 -0.1)">
       <defs>
        <path id="DejaVuSans-30" d="M 2034 4250 
Q 1547 4250 1301 3770 
Q 1056 3291 1056 2328 
Q 1056 1369 1301 889 
Q 1547 409 2034 409 
Q 2525 409 2770 889 
Q 3016 1369 3016 2328 
Q 3016 3291 2770 3770 
Q 2525 4250 2034 4250 
z
M 2034 4750 
Q 2819 4750 3233 4129 
Q 3647 3509 3647 2328 
Q 3647 1150 3233 529 
Q 2819 -91 2034 -91 
Q 1250 -91 836 529 
Q 422 1150 422 2328 
Q 422 3509 836 4129 
Q 1250 4750 2034 4750 
z
" transform="scale(0.015625)"/>
        <path id="DejaVuSans-2e" d="M 684 794 
L 1344 794 
L 1344 0 
L 684 0 
L 684 794 
z
" transform="scale(0.015625)"/>
       </defs>
       <use xlink:href="#DejaVuSans-30"/>
       <use xlink:href="#DejaVuSans-2e" x="63.623047"/>
       <use xlink:href="#DejaVuSans-30" x="95.410156"/>
      </g>
     </g>
    </g>
    <g id="xtick_2">
     <g id="line2d_2">
      <g>
       <use xlink:href="#mbd83e6c5b8" x="168.737914" y="318.04" style="stroke: #000000; stroke-width: 0.8"/>
      </g>
     </g>
     <g id="text_2">
      <!-- 0.2 -->
      <g transform="translate(160.786352 332.638438)scale(0.1 -0.1)">
       <defs>
        <path id="DejaVuSans-32" d="M 1228 531 
L 3431 531 
L 3431 0 
L 469 0 
L 469 531 
Q 828 903 1448 1529 
Q 2069 2156 2228 2338 
Q 2531 2678 2651 2914 
Q 2772 3150 2772 3378 
Q 2772 3750 2511 3984 
Q 2250 4219 1831 4219 
Q 1534 4219 1204 4116 
Q 875 4013 500 3803 
L 500 4441 
Q 881 4594 1212 4672 
Q 1544 4750 1819 4750 
Q 2544 4750 2975 4387 
Q 3406 4025 3406 3419 
Q 3406 3131 3298 2873 
Q 3191 2616 2906 2266 
Q 2828 2175 2409 1742 
Q 1991 1309 1228 531 
z
" transform="scale(0.015625)"/>
       </defs>
       <use xlink:href="#DejaVuSans-30"/>
       <use xlink:href="#DejaVuSans-2e" x="63.623047"/>
       <use xlink:href="#DejaVuSans-32" x="95.410156"/>
      </g>
     </g>
    </g>
    <g id="xtick_3">
     <g id="line2d_3">
      <g>
       <use xlink:href="#mbd83e6c5b8" x="250.24265" y="318.04" style="stroke: #000000; stroke-width: 0.8"/>
      </g>
     </g>
     <g id="text_3">
      <!-- 0.4 -->
      <g transform="translate(242.291087 332.638438)scale(0.1 -0.1)">
       <defs>
        <path id="DejaVuSans-34" d="M 2419 4116 
L 825 1625 
L 2419 1625 
L 2419 4116 
z
M 2253 4666 
L 3047 4666 
L 3047 1625 
L 3713 1625 
L 3713 1100 
L 3047 1100 
L 3047 0 
L 2419 0 
L 2419 1100 
L 313 1100 
L 313 1709 
L 2253 4666 
z
" transform="scale(0.015625)"/>
       </defs>
       <use xlink:href="#DejaVuSans-30"/>
       <use xlink:href="#DejaVuSans-2e" x="63.623047"/>
       <use xlink:href="#DejaVuSans-34" x="95.410156"/>
      </g>
     </g>
    </g>
    <g id="xtick_4">
     <g id="line2d_4">
      <g>
       <use xlink:href="#mbd83e6c5b8" x="331.747385" y="318.04" style="stroke: #000000; stroke-width: 0.8"/>
      </g>
     </g>
     <g id="text_4">
      <!-- 0.6 -->
      <g transform="translate(323.795823 332.638438)scale(0.1 -0.1)">
       <defs>
        <path id="DejaVuSans-36" d="M 2113 2584 
Q 1688 2584 1439 2293 
Q 1191 2003 1191 1497 
Q 1191 994 1439 701 
Q 1688 409 2113 409 
Q 2538 409 2786 701 
Q 3034 994 3034 1497 
Q 3034 2003 2786 2293 
Q 2538 2584 2113 2584 
z
M 3366 4563 
L 3366 3988 
Q 3128 4100 2886 4159 
Q 2644 4219 2406 4219 
Q 1781 4219 1451 3797 
Q 1122 3375 1075 2522 
Q 1259 2794 1537 2939 
Q 1816 3084 2150 3084 
Q 2853 3084 3261 2657 
Q 3669 2231 3669 1497 
Q 3669 778 3244 343 
Q 2819 -91 2113 -91 
Q 1303 -91 875 529 
Q 447 1150 447 2328 
Q 447 3434 972 4092 
Q 1497 4750 2381 4750 
Q 2619 4750 2861 4703 
Q 3103 4656 3366 4563 
z
" transform="scale(0.015625)"/>
       </defs>
       <use xlink:href="#DejaVuSans-30"/>
       <use xlink:href="#DejaVuSans-2e" x="63.623047"/>
       <use xlink:href="#DejaVuSans-36" x="95.410156"/>
      </g>
     </g>
    </g>
    <g id="xtick_5">
     <g id="line2d_5">
      <g>
       <use xlink:href="#mbd83e6c5b8" x="413.252121" y="318.04" style="stroke: #000000; stroke-width: 0.8"/>
      </g>
     </g>
     <g id="text_5">
      <!-- 0.8 -->
      <g transform="translate(405.300559 332.638438)scale(0.1 -0.1)">
       <defs>
        <path id="DejaVuSans-38" d="M 2034 2216 
Q 1584 2216 1326 1975 
Q 1069 1734 1069 1313 
Q 1069 891 1326 650 
Q 1584 409 2034 409 
Q 2484 409 2743 651 
Q 3003 894 3003 1313 
Q 3003 1734 2745 1975 
Q 2488 2216 2034 2216 
z
M 1403 2484 
Q 997 2584 770 2862 
Q 544 3141 544 3541 
Q 544 4100 942 4425 
Q 1341 4750 2034 4750 
Q 2731 4750 3128 4425 
Q 3525 4100 3525 3541 
Q 3525 3141 3298 2862 
Q 3072 2584 2669 2484 
Q 3125 2378 3379 2068 
Q 3634 1759 3634 1313 
Q 3634 634 3220 271 
Q 2806 -91 2034 -91 
Q 1263 -91 848 271 
Q 434 634 434 1313 
Q 434 1759 690 2068 
Q 947 2378 1403 2484 
z
M 1172 3481 
Q 1172 3119 1398 2916 
Q 1625 2713 2034 2713 
Q 2441 2713 2670 2916 
Q 2900 3119 2900 3481 
Q 2900 3844 2670 4047 
Q 2441 4250 2034 4250 
Q 1625 4250 1398 4047 
Q 1172 3844 1172 3481 
z
" transform="scale(0.015625)"/>
       </defs>
       <use xlink:href="#DejaVuSans-30"/>
       <use xlink:href="#DejaVuSans-2e" x="63.623047"/>
       <use xlink:href="#DejaVuSans-38" x="95.410156"/>
      </g>
     </g>
    </g>
    <g id="text_6">
     <!-- seconds -->
     <g transform="translate(209.667749 346.316563)scale(0.1 -0.1)">
      <defs>
       <path id="DejaVuSans-73" d="M 2834 3397 
L 2834 2853 
Q 2591 2978 2328 3040 
Q 2066 3103 1784 3103 
Q 1356 3103 1142 2972 
Q 928 2841 928 2578 
Q 928 2378 1081 2264 
Q 1234 2150 1697 2047 
L 1894 2003 
Q 2506 1872 2764 1633 
Q 3022 1394 3022 966 
Q 3022 478 2636 193 
Q 2250 -91 1575 -91 
Q 1294 -91 989 -36 
Q 684 19 347 128 
L 347 722 
Q 666 556 975 473 
Q 1284 391 1588 391 
Q 1994 391 2212 530 
Q 2431 669 2431 922 
Q 2431 1156 2273 1281 
Q 2116 1406 1581 1522 
L 1381 1569 
Q 847 1681 609 1914 
Q 372 2147 372 2553 
Q 372 3047 722 3315 
Q 1072 3584 1716 3584 
Q 2034 3584 2315 3537 
Q 2597 3491 2834 3397 
z
" transform="scale(0.015625)"/>
       <path id="DejaVuSans-65" d="M 3597 1894 
L 3597 1613 
L 953 1613 
Q 991 1019 1311 708 
Q 1631 397 2203 397 
Q 2534 397 2845 478 
Q 3156 559 3463 722 
L 3463 178 
Q 3153 47 2828 -22 
Q 2503 -91 2169 -91 
Q 1331 -91 842 396 
Q 353 884 353 1716 
Q 353 2575 817 3079 
Q 1281 3584 2069 3584 
Q 2775 3584 3186 3129 
Q 3597 2675 3597 1894 
z
M 3022 2063 
Q 3016 2534 2758 2815 
Q 2500 3097 2075 3097 
Q 1594 3097 1305 2825 
Q 1016 2553 972 2059 
L 3022 2063 
z
" transform="scale(0.015625)"/>
       <path id="DejaVuSans-63" d="M 3122 3366 
L 3122 2828 
Q 2878 2963 2633 3030 
Q 2388 3097 2138 3097 
Q 1578 3097 1268 2742 
Q 959 2388 959 1747 
Q 959 1106 1268 751 
Q 1578 397 2138 397 
Q 2388 397 2633 464 
Q 2878 531 3122 666 
L 3122 134 
Q 2881 22 2623 -34 
Q 2366 -91 2075 -91 
Q 1284 -91 818 406 
Q 353 903 353 1747 
Q 353 2603 823 3093 
Q 1294 3584 2113 3584 
Q 2378 3584 2631 3529 
Q 2884 3475 3122 3366 
z
" transform="scale(0.015625)"/>
       <path id="DejaVuSans-6f" d="M 1959 3097 
Q 1497 3097 1228 2736 
Q 959 2375 959 1747 
Q 959 1119 1226 758 
Q 1494 397 1959 397 
Q 2419 397 2687 759 
Q 2956 1122 2956 1747 
Q 2956 2369 2687 2733 
Q 2419 3097 1959 3097 
z
M 1959 3584 
Q 2709 3584 3137 3096 
Q 3566 2609 3566 1747 
Q 3566 888 3137 398 
Q 2709 -91 1959 -91 
Q 1206 -91 779 398 
Q 353 888 353 1747 
Q 353 2609 779 3096 
Q 1206 3584 1959 3584 
z
" transform="scale(0.015625)"/>
       <path id="DejaVuSans-6e" d="M 3513 2113 
L 3513 0 
L 2938 0 
L 2938 2094 
Q 2938 2591 2744 2837 
Q 2550 3084 2163 3084 
Q 1697 3084 1428 2787 
Q 1159 2491 1159 1978 
L 1159 0 
L 581 0 
L 581 3500 
L 1159 3500 
L 1159 2956 
Q 1366 3272 1645 3428 
Q 1925 3584 2291 3584 
Q 2894 3584 3203 3211 
Q 3513 2838 3513 2113 
z
" transform="scale(0.015625)"/>
       <path id="DejaVuSans-64" d="M 2906 2969 
L 2906 4863 
L 3481 4863 
L 3481 0 
L 2906 0 
L 2906 525 
Q 2725 213 2448 61 
Q 2172 -91 1784 -91 
Q 1150 -91 751 415 
Q 353 922 353 1747 
Q 353 2572 751 3078 
Q 1150 3584 1784 3584 
Q 2172 3584 2448 3432 
Q 2725 3281 2906 2969 
z
M 947 1747 
Q 947 1113 1208 752 
Q 1469 391 1925 391 
Q 2381 391 2643 752 
Q 2906 1113 2906 1747 
Q 2906 2381 2643 2742 
Q 2381 3103 1925 3103 
Q 1469 3103 1208 2742 
Q 947 2381 947 1747 
z
" transform="scale(0.015625)"/>
      </defs>
      <use xlink:href="#DejaVuSans-73"/>
      <use xlink:href="#DejaVuSans-65" x="52.099609"/>
      <use xlink:href="#DejaVuSans-63" x="113.623047"/>
      <use xlink:href="#DejaVuSans-6f" x="168.603516"/>
      <use xlink:href="#DejaVuSans-6e" x="229.785156"/>
      <use xlink:href="#DejaVuSans-64" x="293.164062"/>
      <use xlink:href="#DejaVuSans-73" x="356.640625"/>
     </g>
    </g>
   </g>
   <g id="matplotlib.axis_2">
    <g id="ytick_1">
     <g id="line2d_6">
      <defs>
       <path id="m3b9d92cc36" d="M 0 0 
L -3.5 0 
" style="stroke: #000000; stroke-width: 0.8"/>
      </defs>
      <g>
       <use xlink:href="#m3b9d92cc36" x="46.64" y="296.255787" style="stroke: #000000; stroke-width: 0.8"/>
      </g>
     </g>
     <g id="text_7">
      <!-- 1 -->
      <g transform="translate(24.897813 300.055006)scale(0.1 -0.1)">
       <defs>
        <path id="DejaVuSans-2212" d="M 678 2272 
L 4684 2272 
L 4684 1741 
L 678 1741 
L 678 2272 
z
" transform="scale(0.015625)"/>
        <path id="DejaVuSans-31" d="M 794 531 
L 1825 531 
L 1825 4091 
L 703 3866 
L 703 4441 
L 1819 4666 
L 2450 4666 
L 2450 531 
L 3481 531 
L 3481 0 
L 794 0 
L 794 531 
z
" transform="scale(0.015625)"/>
       </defs>
       <use xlink:href="#DejaVuSans-2212"/>
       <use xlink:href="#DejaVuSans-31" x="83.789062"/>
      </g>
     </g>
    </g>
    <g id="ytick_2">
     <g id="line2d_7">
      <g>
       <use xlink:href="#m3b9d92cc36" x="46.64" y="260.763466" style="stroke: #000000; stroke-width: 0.8"/>
      </g>
     </g>
     <g id="text_8">
      <!-- 0 -->
      <g transform="translate(33.2775 264.562684)scale(0.1 -0.1)">
       <use xlink:href="#DejaVuSans-30"/>
      </g>
     </g>
    </g>
    <g id="ytick_3">
     <g id="line2d_8">
      <g>
       <use xlink:href="#m3b9d92cc36" x="46.64" y="225.271145" style="stroke: #000000; stroke-width: 0.8"/>
      </g>
     </g>
     <g id="text_9">
      <!-- 1 -->
      <g transform="translate(33.2775 229.070363)scale(0.1 -0.1)">
       <use xlink:href="#DejaVuSans-31"/>
      </g>
     </g>
    </g>
    <g id="ytick_4">
     <g id="line2d_9">
      <g>
       <use xlink:href="#m3b9d92cc36" x="46.64" y="189.778823" style="stroke: #000000; stroke-width: 0.8"/>
      </g>
     </g>
     <g id="text_10">
      <!-- 2 -->
      <g transform="translate(33.2775 193.578042)scale(0.1 -0.1)">
       <use xlink:href="#DejaVuSans-32"/>
      </g>
     </g>
    </g>
    <g id="ytick_5">
     <g id="line2d_10">
      <g>
       <use xlink:href="#m3b9d92cc36" x="46.64" y="154.286502" style="stroke: #000000; stroke-width: 0.8"/>
      </g>
     </g>
     <g id="text_11">
      <!-- 3 -->
      <g transform="translate(33.2775 158.085721)scale(0.1 -0.1)">
       <defs>
        <path id="DejaVuSans-33" d="M 2597 2516 
Q 3050 2419 3304 2112 
Q 3559 1806 3559 1356 
Q 3559 666 3084 287 
Q 2609 -91 1734 -91 
Q 1441 -91 1130 -33 
Q 819 25 488 141 
L 488 750 
Q 750 597 1062 519 
Q 1375 441 1716 441 
Q 2309 441 2620 675 
Q 2931 909 2931 1356 
Q 2931 1769 2642 2001 
Q 2353 2234 1838 2234 
L 1294 2234 
L 1294 2753 
L 1863 2753 
Q 2328 2753 2575 2939 
Q 2822 3125 2822 3475 
Q 2822 3834 2567 4026 
Q 2313 4219 1838 4219 
Q 1578 4219 1281 4162 
Q 984 4106 628 3988 
L 628 4550 
Q 988 4650 1302 4700 
Q 1616 4750 1894 4750 
Q 2613 4750 3031 4423 
Q 3450 4097 3450 3541 
Q 3450 3153 3228 2886 
Q 3006 2619 2597 2516 
z
" transform="scale(0.015625)"/>
       </defs>
       <use xlink:href="#DejaVuSans-33"/>
      </g>
     </g>
    </g>
    <g id="ytick_6">
     <g id="line2d_11">
      <g>
       <use xlink:href="#m3b9d92cc36" x="46.64" y="118.794181" style="stroke: #000000; stroke-width: 0.8"/>
      </g>
     </g>
     <g id="text_12">
      <!-- 4 -->
      <g transform="translate(33.2775 122.5934)scale(0.1 -0.1)">
       <use xlink:href="#DejaVuSans-34"/>
      </g>
     </g>
    </g>
    <g id="ytick_7">
     <g id="line2d_12">
      <g>
       <use xlink:href="#m3b9d92cc36" x="46.64" y="83.30186" style="stroke: #000000; stroke-width: 0.8"/>
      </g>
     </g>
     <g id="text_13">
      <!-- 5 -->
      <g transform="translate(33.2775 87.101079)scale(0.1 -0.1)">
       <defs>
        <path id="DejaVuSans-35" d="M 691 4666 
L 3169 4666 
L 3169 4134 
L 1269 4134 
L 1269 2991 
Q 1406 3038 1543 3061 
Q 1681 3084 1819 3084 
Q 2600 3084 3056 2656 
Q 3513 2228 3513 1497 
Q 3513 744 3044 326 
Q 2575 -91 1722 -91 
Q 1428 -91 1123 -41 
Q 819 9 494 109 
L 494 744 
Q 775 591 1075 516 
Q 1375 441 1709 441 
Q 2250 441 2565 725 
Q 2881 1009 2881 1497 
Q 2881 1984 2565 2268 
Q 2250 2553 1709 2553 
Q 1456 2553 1204 2497 
Q 953 2441 691 2322 
L 691 4666 
z
" transform="scale(0.015625)"/>
       </defs>
       <use xlink:href="#DejaVuSans-35"/>
      </g>
     </g>
    </g>
    <g id="text_14">
     <!-- V -->
     <g transform="translate(18.818125 201.487562)rotate(-90)scale(0.1 -0.1)">
      <defs>
       <path id="DejaVuSans-b5" d="M 544 -1331 
L 544 3500 
L 1119 3500 
L 1119 1325 
Q 1119 872 1334 640 
Q 1550 409 1972 409 
Q 2434 409 2667 671 
Q 2900 934 2900 1459 
L 2900 3500 
L 3475 3500 
L 3475 806 
Q 3475 619 3529 530 
Q 3584 441 3700 441 
Q 3728 441 3778 458 
Q 3828 475 3916 513 
L 3916 50 
Q 3788 -22 3673 -56 
Q 3559 -91 3450 -91 
Q 3234 -91 3106 31 
Q 2978 153 2931 403 
Q 2775 156 2548 32 
Q 2322 -91 2016 -91 
Q 1697 -91 1473 31 
Q 1250 153 1119 397 
L 1119 -1331 
L 544 -1331 
z
" transform="scale(0.015625)"/>
       <path id="DejaVuSans-56" d="M 1831 0 
L 50 4666 
L 709 4666 
L 2188 738 
L 3669 4666 
L 4325 4666 
L 2547 0 
L 1831 0 
z
" transform="scale(0.015625)"/>
      </defs>
      <use xlink:href="#DejaVuSans-b5"/>
      <use xlink:href="#DejaVuSans-56" x="63.623047"/>
     </g>
    </g>
   </g>
   <g id="line2d_13">
    <path d="M 46.64 237.053585 
L 47.435945 239.855914 
L 49.027834 247.224128 
L 50.619723 254.650527 
L 52.211613 260.67942 
L 53.007557 262.897377 
L 53.803502 264.39239 
L 54.599447 265.054521 
L 55.395392 264.926136 
L 56.987281 263.647896 
L 57.783226 263.626317 
L 58.57917 264.729856 
L 59.375115 267.12569 
L 60.967004 274.043877 
L 61.762949 276.705446 
L 62.558894 277.448187 
L 63.354838 275.616014 
L 64.150783 271.163052 
L 65.742672 257.357242 
L 66.538617 250.452306 
L 67.334562 245.182435 
L 68.130506 242.340337 
L 68.926451 242.198609 
L 69.722396 244.550264 
L 70.51834 248.859368 
L 72.11023 260.61878 
L 73.702119 272.290462 
L 74.498064 276.669775 
L 75.294009 279.386081 
L 76.089953 280.041042 
L 76.885898 278.478841 
L 77.681843 274.913394 
L 80.069677 259.938741 
L 80.865621 256.781857 
L 81.661566 255.559315 
L 82.457511 256.057444 
L 84.0494 258.841191 
L 84.845345 259.083427 
L 85.641289 257.716625 
L 86.437234 254.911283 
L 87.233179 251.51084 
L 88.029124 248.769706 
L 88.825068 247.924357 
L 89.621013 249.743123 
L 90.416958 254.215783 
L 92.804792 272.50939 
L 93.600736 275.311063 
L 94.396681 274.957099 
L 95.192626 271.731278 
L 97.58046 256.599357 
L 98.376404 253.858954 
L 99.172349 253.177162 
L 99.968294 254.160745 
L 101.560183 257.977467 
L 102.356128 259.422882 
L 103.152073 260.194687 
L 103.948017 260.459172 
L 106.335851 260.625289 
L 107.131796 260.243109 
L 107.927741 258.965687 
L 108.723685 256.412365 
L 109.51963 252.54902 
L 111.111519 243.005796 
L 111.907464 239.146904 
L 112.703409 237.081348 
L 113.499353 237.25237 
L 114.295298 239.563543 
L 115.091243 243.432463 
L 116.683132 252.377531 
L 117.479077 255.917656 
L 118.275021 258.284584 
L 119.070966 259.450312 
L 119.866911 259.570418 
L 120.662856 258.848063 
L 121.4588 257.454165 
L 122.254745 255.535302 
L 123.846634 251.037656 
L 124.642579 249.248867 
L 125.438524 248.439308 
L 126.234468 249.015375 
L 127.030413 251.103793 
L 127.826358 254.463254 
L 130.214192 266.110241 
L 131.010136 268.732494 
L 131.806081 270.564889 
L 134.98986 276.267127 
L 135.785805 277.172354 
L 136.581749 276.88697 
L 137.377694 274.948803 
L 138.173639 271.338044 
L 140.561473 257.487312 
L 141.357417 255.006179 
L 142.153362 254.418898 
L 142.949307 255.363195 
L 144.541196 258.459587 
L 145.337141 258.971324 
L 146.133085 258.341281 
L 148.520919 254.101673 
L 149.316864 253.999023 
L 150.112809 255.025018 
L 150.908753 256.931969 
L 153.296588 263.637754 
L 154.092532 265.238197 
L 154.888477 266.359636 
L 155.684422 266.902022 
L 156.480366 266.640667 
L 157.276311 265.269072 
L 158.072256 262.552963 
L 158.8682 258.522133 
L 161.256034 244.225838 
L 162.051979 241.427718 
L 162.847924 240.402683 
L 163.643868 240.831536 
L 164.439813 241.90194 
L 165.235758 242.611089 
L 166.031702 242.155801 
L 166.827647 240.25059 
L 169.215481 231.350006 
L 170.011426 230.171951 
L 170.807371 230.614476 
L 171.603315 232.29967 
L 172.39926 234.459205 
L 173.195205 236.273939 
L 173.991149 237.212141 
L 174.787094 237.220118 
L 176.378983 236.209523 
L 177.174928 236.267386 
L 177.970873 236.964871 
L 178.766817 237.94759 
L 179.562762 238.534432 
L 180.358707 238.005499 
L 181.154651 235.919718 
L 181.950596 232.324996 
L 183.542485 223.144042 
L 184.33843 219.334836 
L 185.134375 216.976242 
L 185.93032 216.254061 
L 186.726264 216.912851 
L 187.522209 218.411728 
L 189.114098 221.691978 
L 189.910043 222.835853 
L 191.501932 224.310332 
L 192.297877 225.065682 
L 193.093822 226.053793 
L 193.889766 227.312312 
L 197.073545 233.367465 
L 197.86949 234.322677 
L 198.665434 234.487663 
L 199.461379 233.460742 
L 200.257324 230.900723 
L 201.053269 226.683845 
L 202.645158 214.643421 
L 203.441103 208.477406 
L 204.237047 203.691313 
L 205.032992 201.280343 
L 205.828937 201.805044 
L 206.624881 205.200172 
L 207.420826 210.747313 
L 209.012715 223.204066 
L 209.80866 227.378796 
L 210.604605 228.885706 
L 211.400549 227.482277 
L 212.196494 223.572888 
L 214.584328 207.082057 
L 215.380273 203.642377 
L 216.176218 202.287637 
L 216.972162 202.894076 
L 217.768107 204.851498 
L 218.564052 207.227546 
L 219.359996 209.006081 
L 220.155941 209.347246 
L 220.951886 207.808781 
L 221.74783 204.470511 
L 224.135664 191.071758 
L 224.931609 188.642537 
L 225.727554 188.201645 
L 226.523498 189.564744 
L 228.115388 194.711519 
L 228.911332 196.649729 
L 229.707277 197.322146 
L 230.503222 196.718387 
L 232.095111 194.083137 
L 232.891056 193.786635 
L 233.687001 195.05956 
L 234.482945 197.995518 
L 236.870779 210.685346 
L 237.666724 213.340485 
L 238.462669 214.264169 
L 239.258613 213.486758 
L 240.054558 211.371755 
L 241.646447 205.117666 
L 244.034281 195.307242 
L 244.830226 192.429766 
L 245.626171 190.038768 
L 246.422115 188.437176 
L 247.21806 187.896434 
L 248.014005 188.510413 
L 248.80995 190.092144 
L 250.401839 194.136217 
L 251.197784 195.404324 
L 251.993728 195.66439 
L 252.789673 194.972061 
L 254.381562 192.463334 
L 255.177507 191.670309 
L 255.973452 191.507985 
L 257.565341 191.88643 
L 258.361286 191.302617 
L 259.15723 189.613119 
L 259.953175 186.856564 
L 261.545064 180.57913 
L 262.341009 178.83274 
L 263.136954 178.921063 
L 263.932898 180.875414 
L 265.524788 187.384801 
L 266.320733 189.490107 
L 267.116677 189.287971 
L 267.912622 186.237632 
L 268.708567 180.536383 
L 271.096401 158.272004 
L 271.892345 153.426182 
L 272.68829 151.146457 
L 273.484235 151.239888 
L 274.280179 152.916997 
L 275.076124 155.044488 
L 275.872069 156.475164 
L 276.668013 156.357762 
L 277.463958 154.342285 
L 278.259903 150.63103 
L 280.647737 136.644795 
L 281.443682 133.581688 
L 282.239626 131.951168 
L 283.035571 131.624595 
L 283.831516 132.277438 
L 284.62746 133.574619 
L 285.423405 135.318083 
L 286.21935 137.492502 
L 287.015294 140.187431 
L 290.199073 152.707754 
L 290.995018 153.167647 
L 291.790962 151.16716 
L 292.586907 146.696024 
L 294.974741 128.262546 
L 295.770686 125.376842 
L 296.56663 125.935866 
L 297.362575 129.849525 
L 299.750409 149.118056 
L 300.546354 152.800063 
L 301.342299 153.658299 
L 302.138243 152.118224 
L 303.730133 146.875555 
L 304.526077 146.038717 
L 305.322022 147.633444 
L 306.117967 151.682826 
L 308.505801 169.614273 
L 309.301745 173.607945 
L 310.09769 175.258358 
L 310.893635 174.451181 
L 311.689579 171.502793 
L 312.485524 167.017925 
L 314.873358 151.795328 
L 315.669303 148.445376 
L 316.465248 146.827609 
L 317.261192 147.16393 
L 318.057137 149.372115 
L 318.853082 153.021029 
L 320.444971 161.446834 
L 321.240916 164.361225 
L 322.03686 165.454599 
L 322.832805 164.555041 
L 323.62875 162.054173 
L 325.220639 156.026928 
L 326.016584 154.709252 
L 326.812528 155.560738 
L 327.608473 158.660518 
L 329.200363 168.89566 
L 329.996307 173.785692 
L 330.792252 177.087674 
L 331.588197 178.232588 
L 332.384141 177.255391 
L 333.180086 174.752159 
L 333.976031 171.679989 
L 334.771975 169.076075 
L 335.56792 167.790811 
L 336.363865 168.311103 
L 337.159809 170.708656 
L 337.955754 174.700119 
L 341.139533 195.039766 
L 341.935477 198.029721 
L 342.731422 199.029604 
L 343.527367 197.672837 
L 344.323311 193.87338 
L 345.119256 187.935835 
L 347.50709 166.183459 
L 348.303035 161.365648 
L 349.09898 159.045426 
L 349.894924 159.114157 
L 350.690869 160.807556 
L 351.486814 162.936424 
L 352.282758 164.274225 
L 353.078703 163.974707 
L 353.874648 161.872858 
L 355.466537 155.160652 
L 356.262482 152.979874 
L 357.058426 152.980233 
L 357.854371 155.432521 
L 358.650316 159.767835 
L 359.44626 164.725011 
L 360.242205 168.745057 
L 361.03815 170.481341 
L 361.834095 169.254097 
L 362.630039 165.295973 
L 364.221929 154.113997 
L 365.017873 150.201426 
L 365.813818 149.175449 
L 366.609763 151.418033 
L 367.405707 156.380651 
L 368.997597 168.89444 
L 369.793541 173.230689 
L 370.589486 174.75206 
L 371.385431 173.208612 
L 372.181375 169.114839 
L 374.569209 152.775156 
L 375.365154 149.399482 
L 376.161099 147.779402 
L 376.957043 147.679656 
L 377.752988 148.631623 
L 378.548933 150.155527 
L 380.140822 153.826665 
L 381.732712 158.139519 
L 383.324601 162.720887 
L 384.120546 164.364712 
L 384.91649 165.014289 
L 385.712435 164.400646 
L 386.50838 162.539924 
L 388.100269 156.629994 
L 388.896214 153.744942 
L 389.692158 151.562195 
L 390.488103 150.237061 
L 391.284048 149.591742 
L 392.079992 149.204981 
L 392.875937 148.58842 
L 393.671882 147.378128 
L 394.467827 145.467524 
L 396.855661 138.127559 
L 397.651605 136.354962 
L 398.44755 135.195443 
L 399.243495 134.487339 
L 400.835384 133.256592 
L 401.631329 132.308487 
L 403.223218 130.091162 
L 404.019163 129.466245 
L 404.815107 129.639374 
L 405.611052 130.815935 
L 406.406997 132.982911 
L 407.998886 139.150451 
L 408.794831 142.240426 
L 409.590775 144.707107 
L 410.38672 146.220906 
L 411.182665 146.656973 
L 411.97861 146.125221 
L 413.570499 143.59035 
L 413.570499 143.59035 
" clip-path="url(#pf4417ea1b6)" style="fill: none; stroke: #e41a1c; stroke-width: 1.5; stroke-linecap: square"/>
   </g>
   <g id="line2d_14">
    <path d="M 46.64 249.008019 
L 47.435945 246.892739 
L 48.231889 245.37509 
L 49.027834 244.626519 
L 49.823779 244.729095 
L 50.619723 245.666613 
L 51.415668 247.317382 
L 53.803502 253.909104 
L 54.599447 255.550536 
L 55.395392 256.475445 
L 56.191336 256.631846 
L 56.987281 256.157666 
L 58.57917 254.593073 
L 59.375115 254.239188 
L 60.17106 254.521262 
L 60.967004 255.483038 
L 61.762949 256.975612 
L 63.354838 260.358424 
L 64.150783 261.635172 
L 64.946728 262.385468 
L 65.742672 262.602177 
L 66.538617 262.405844 
L 68.130506 261.575335 
L 68.926451 261.337392 
L 69.722396 261.408859 
L 70.51834 261.862687 
L 71.314285 262.719975 
L 72.11023 263.952949 
L 73.702119 267.165109 
L 74.498064 268.811103 
L 75.294009 270.196471 
L 76.089953 271.120263 
L 76.885898 271.465177 
L 77.681843 271.248317 
L 80.069677 269.371981 
L 80.865621 269.255395 
L 81.661566 269.614675 
L 83.253455 270.982133 
L 84.0494 271.289203 
L 84.845345 270.925393 
L 85.641289 269.810155 
L 88.029124 264.866782 
L 88.825068 264.235769 
L 89.621013 264.61631 
L 90.416958 265.879228 
L 92.008847 269.180251 
L 92.804792 270.075728 
L 93.600736 269.959754 
L 94.396681 268.855557 
L 95.98857 265.395099 
L 96.784515 264.272128 
L 97.58046 264.226415 
L 98.376404 265.40404 
L 99.172349 267.599882 
L 100.764238 273.021383 
L 101.560183 275.130274 
L 102.356128 276.341069 
L 103.152073 276.590624 
L 103.948017 276.039182 
L 104.743962 274.971692 
L 107.131796 271.198597 
L 108.723685 269.173684 
L 110.315575 267.568371 
L 111.907464 266.485462 
L 113.499353 265.677576 
L 115.091243 264.551401 
L 115.887187 263.948522 
L 116.683132 263.603357 
L 117.479077 263.819982 
L 118.275021 264.846267 
L 119.070966 266.752863 
L 122.254745 276.818783 
L 123.05069 277.690568 
L 123.846634 277.521734 
L 124.642579 276.578344 
L 126.234468 273.993961 
L 127.030413 272.950279 
L 128.622302 271.295447 
L 129.418247 270.245558 
L 131.806081 265.884514 
L 132.602026 265.098255 
L 133.39797 265.278573 
L 134.193915 266.485914 
L 136.581749 272.23012 
L 137.377694 273.059553 
L 138.173639 272.99868 
L 139.765528 271.91428 
L 140.561473 272.083192 
L 141.357417 273.184002 
L 142.949307 276.873501 
L 143.745251 277.939675 
L 144.541196 277.482345 
L 145.337141 275.251547 
L 147.724975 263.972879 
L 148.520919 262.051283 
L 149.316864 262.148892 
L 150.112809 264.023115 
L 151.704698 269.576023 
L 152.500643 271.25279 
L 153.296588 271.440776 
L 154.092532 270.308516 
L 155.684422 266.988267 
L 156.480366 266.406979 
L 157.276311 267.077301 
L 158.072256 268.764839 
L 158.8682 270.832291 
L 159.664145 272.511896 
L 160.46009 273.211108 
L 161.256034 272.729193 
L 162.051979 271.307657 
L 162.847924 269.51046 
L 163.643868 267.997552 
L 164.439813 267.290416 
L 165.235758 267.619461 
L 166.031702 268.898164 
L 167.623592 272.959626 
L 168.419537 274.993471 
L 169.215481 276.680018 
L 170.011426 277.89905 
L 170.807371 278.593732 
L 171.603315 278.723727 
L 172.39926 278.256457 
L 173.195205 277.203508 
L 174.787094 273.923407 
L 175.583039 272.29923 
L 176.378983 271.182214 
L 177.174928 270.844496 
L 177.970873 271.340234 
L 178.766817 272.462076 
L 179.562762 273.796399 
L 180.358707 274.865648 
L 181.154651 275.306525 
L 181.950596 275.012889 
L 184.33843 272.67412 
L 185.134375 272.82691 
L 185.93032 273.749882 
L 187.522209 276.533686 
L 188.318154 277.291258 
L 189.114098 277.01733 
L 189.910043 275.618349 
L 192.297877 268.554208 
L 193.093822 267.104365 
L 193.889766 266.630821 
L 194.685711 266.952465 
L 195.481656 267.610251 
L 196.2776 268.047949 
L 197.073545 267.823081 
L 197.86949 266.769231 
L 200.257324 261.392895 
L 201.053269 260.35903 
L 201.849213 260.112037 
L 202.645158 260.458361 
L 203.441103 260.964741 
L 204.237047 261.135885 
L 205.032992 260.622106 
L 205.828937 259.375433 
L 207.420826 256.10806 
L 208.216771 255.21591 
L 209.012715 255.416344 
L 209.80866 256.753268 
L 211.400549 261.09008 
L 212.196494 262.684321 
L 212.992439 263.081837 
L 213.788383 262.091124 
L 214.584328 259.960081 
L 216.176218 254.789503 
L 216.972162 253.088799 
L 217.768107 252.480477 
L 218.564052 252.886637 
L 220.951886 256.116969 
L 221.74783 256.73989 
L 223.33972 257.658601 
L 224.135664 258.589662 
L 224.931609 260.089111 
L 227.319443 265.87805 
L 228.115388 266.968523 
L 228.911332 267.270392 
L 229.707277 266.941077 
L 230.503222 266.353171 
L 231.299166 265.946825 
L 232.095111 266.061917 
L 232.891056 266.819563 
L 233.687001 268.097712 
L 235.27889 270.999767 
L 236.074835 272.0396 
L 236.870779 272.633886 
L 237.666724 272.851377 
L 240.054558 272.86849 
L 240.850503 273.085267 
L 241.646447 273.525014 
L 242.442392 274.266347 
L 243.238337 275.416019 
L 244.034281 277.062088 
L 245.626171 281.57196 
L 246.422115 283.78378 
L 247.21806 285.22474 
L 248.014005 285.30417 
L 248.80995 283.65 
L 249.605894 280.293565 
L 251.993728 266.858771 
L 252.789673 264.52206 
L 253.585618 264.401217 
L 254.381562 266.413938 
L 256.769396 277.400802 
L 257.565341 279.573068 
L 258.361286 280.148689 
L 259.15723 279.335491 
L 261.545064 274.607506 
L 262.341009 273.890621 
L 263.932898 273.4202 
L 264.728843 272.736869 
L 265.524788 271.233841 
L 266.320733 268.852751 
L 268.708567 260.197209 
L 269.504511 258.564312 
L 270.300456 258.088955 
L 271.096401 258.663957 
L 271.892345 259.93001 
L 273.484235 262.679027 
L 274.280179 263.485884 
L 275.076124 263.827978 
L 276.668013 264.081124 
L 277.463958 264.624587 
L 278.259903 265.709974 
L 279.055847 267.290353 
L 280.647737 270.847352 
L 281.443682 272.118547 
L 282.239626 272.714146 
L 283.035571 272.609276 
L 283.831516 271.973205 
L 285.423405 270.289736 
L 286.21935 269.757679 
L 287.015294 269.553559 
L 288.607184 269.611802 
L 289.403128 269.476016 
L 290.199073 269.054195 
L 291.790962 267.545956 
L 292.586907 266.768642 
L 293.382852 266.17296 
L 294.178796 265.79945 
L 298.15852 264.718262 
L 298.954465 264.840256 
L 299.750409 265.486015 
L 300.546354 266.754899 
L 302.138243 270.589906 
L 302.934188 272.449853 
L 303.730133 273.731711 
L 304.526077 274.189981 
L 305.322022 273.830243 
L 307.709856 271.198693 
L 308.505801 271.188311 
L 309.301745 271.948793 
L 310.09769 273.317902 
L 311.689579 276.415453 
L 312.485524 277.388933 
L 313.281469 277.690919 
L 314.077414 277.342819 
L 314.873358 276.525661 
L 316.465248 274.561767 
L 317.261192 273.927455 
L 318.057137 273.779774 
L 318.853082 274.238542 
L 319.649026 275.370072 
L 320.444971 277.173935 
L 322.03686 282.270412 
L 322.832805 284.959942 
L 323.62875 287.152681 
L 324.424694 288.387569 
L 325.220639 288.3458 
L 326.016584 286.976253 
L 326.812528 284.557133 
L 328.404418 278.982752 
L 329.200363 277.180145 
L 329.996307 276.611345 
L 330.792252 277.233129 
L 332.384141 280.030637 
L 333.180086 280.821994 
L 333.976031 280.537076 
L 334.771975 279.159001 
L 336.363865 275.104989 
L 337.159809 273.879489 
L 337.955754 273.911959 
L 338.751699 275.225931 
L 340.343588 279.536118 
L 341.139533 280.912124 
L 341.935477 280.917486 
L 342.731422 279.456399 
L 345.119256 272.186207 
L 345.915201 271.528372 
L 346.711146 272.517581 
L 347.50709 274.90763 
L 349.09898 281.179294 
L 349.894924 283.600532 
L 350.690869 284.975243 
L 351.486814 285.335692 
L 352.282758 284.999747 
L 354.670592 283.268138 
L 355.466537 282.687149 
L 356.262482 281.752971 
L 357.058426 280.23332 
L 357.854371 278.091921 
L 359.44626 273.009392 
L 360.242205 270.953739 
L 361.03815 269.742052 
L 361.834095 269.514407 
L 362.630039 270.165296 
L 363.425984 271.416377 
L 366.609763 277.358856 
L 368.201652 279.980842 
L 368.997597 281.092247 
L 369.793541 281.859289 
L 370.589486 282.126891 
L 371.385431 281.858746 
L 373.773265 279.82653 
L 374.569209 279.655116 
L 375.365154 279.88785 
L 376.161099 280.287284 
L 376.957043 280.482388 
L 377.752988 280.142509 
L 378.548933 279.151664 
L 380.140822 276.238276 
L 380.936767 275.310674 
L 381.732712 275.320278 
L 382.528656 276.342303 
L 384.120546 279.907141 
L 384.91649 281.241115 
L 385.712435 281.676937 
L 386.50838 281.23307 
L 387.304324 280.340428 
L 388.100269 279.657765 
L 388.896214 279.772989 
L 389.692158 280.918349 
L 391.284048 284.814015 
L 392.079992 286.029096 
L 392.875937 285.828199 
L 393.671882 284.060186 
L 396.059716 275.774005 
L 396.855661 275.057257 
L 397.651605 276.122883 
L 398.44755 278.550734 
L 399.243495 281.470413 
L 400.039439 283.908594 
L 400.835384 285.160979 
L 401.631329 285.036685 
L 402.427273 283.880653 
L 403.223218 282.375978 
L 404.019163 281.221619 
L 404.815107 280.829915 
L 405.611052 281.172369 
L 406.406997 281.831298 
L 407.202941 282.222052 
L 407.998886 281.876416 
L 408.794831 280.656475 
L 411.182665 275.274016 
L 411.97861 274.465968 
L 412.774554 274.441328 
L 413.570499 274.964184 
L 413.570499 274.964184 
" clip-path="url(#pf4417ea1b6)" style="fill: none; stroke: #377eb8; stroke-width: 1.5; stroke-linecap: square"/>
   </g>
   <g id="line2d_15">
    <path d="M 87.233179 318.04 
L 87.233179 71.732 
" clip-path="url(#pf4417ea1b6)" style="fill: none; stroke: #000000; stroke-width: 0.5; stroke-linecap: square"/>
   </g>
   <g id="line2d_16">
    <path d="M 46.64 260.763466 
L 413.570499 260.763466 
" clip-path="url(#pf4417ea1b6)" style="fill: none; stroke: #000000; stroke-width: 0.5; stroke-linecap: square"/>
   </g>
   <g id="patch_4">
    <path d="M 46.64 318.04 
L 46.64 71.732 
" style="fill: none; stroke: #000000; stroke-width: 0.8; stroke-linejoin: miter; stroke-linecap: square"/>
   </g>
   <g id="patch_5">
    <path d="M 413.570499 318.04 
L 413.570499 71.732 
" style="fill: none; stroke: #000000; stroke-width: 0.8; stroke-linejoin: miter; stroke-linecap: square"/>
   </g>
   <g id="patch_6">
    <path d="M 46.64 318.04 
L 413.570499 318.04 
" style="fill: none; stroke: #000000; stroke-width: 0.8; stroke-linejoin: miter; stroke-linecap: square"/>
   </g>
   <g id="patch_7">
    <path d="M 46.64 71.732 
L 413.570499 71.732 
" style="fill: none; stroke: #000000; stroke-width: 0.8; stroke-linejoin: miter; stroke-linecap: square"/>
   </g>
   <g id="text_15">
    <!-- Cz -->
    <g transform="translate(222.766499 65.732)scale(0.12 -0.12)">
     <defs>
      <path id="DejaVuSans-43" d="M 4122 4306 
L 4122 3641 
Q 3803 3938 3442 4084 
Q 3081 4231 2675 4231 
Q 1875 4231 1450 3742 
Q 1025 3253 1025 2328 
Q 1025 1406 1450 917 
Q 1875 428 2675 428 
Q 3081 428 3442 575 
Q 3803 722 4122 1019 
L 4122 359 
Q 3791 134 3420 21 
Q 3050 -91 2638 -91 
Q 1578 -91 968 557 
Q 359 1206 359 2328 
Q 359 3453 968 4101 
Q 1578 4750 2638 4750 
Q 3056 4750 3426 4639 
Q 3797 4528 4122 4306 
z
" transform="scale(0.015625)"/>
      <path id="DejaVuSans-7a" d="M 353 3500 
L 3084 3500 
L 3084 2975 
L 922 459 
L 3084 459 
L 3084 0 
L 275 0 
L 275 525 
L 2438 3041 
L 353 3041 
L 353 3500 
z
" transform="scale(0.015625)"/>
     </defs>
     <use xlink:href="#DejaVuSans-43"/>
     <use xlink:href="#DejaVuSans-7a" x="69.824219"/>
    </g>
   </g>
   <g id="legend_1">
    <g id="patch_8">
     <path d="M 99.877906 48.500845 
L 360.332593 48.500845 
Q 362.332593 48.500845 362.332593 46.500845 
L 362.332593 18.144595 
Q 362.332593 16.144595 360.332593 16.144595 
L 99.877906 16.144595 
Q 97.877906 16.144595 97.877906 18.144595 
L 97.877906 46.500845 
Q 97.877906 48.500845 99.877906 48.500845 
z
" style="fill: #ffffff; opacity: 0.8; stroke: #cccccc; stroke-linejoin: miter"/>
    </g>
    <g id="text_16">
     <!-- Average of Session 30 -->
     <g transform="translate(174.545874 27.743033)scale(0.1 -0.1)">
      <defs>
       <path id="DejaVuSans-41" d="M 2188 4044 
L 1331 1722 
L 3047 1722 
L 2188 4044 
z
M 1831 4666 
L 2547 4666 
L 4325 0 
L 3669 0 
L 3244 1197 
L 1141 1197 
L 716 0 
L 50 0 
L 1831 4666 
z
" transform="scale(0.015625)"/>
       <path id="DejaVuSans-76" d="M 191 3500 
L 800 3500 
L 1894 563 
L 2988 3500 
L 3597 3500 
L 2284 0 
L 1503 0 
L 191 3500 
z
" transform="scale(0.015625)"/>
       <path id="DejaVuSans-72" d="M 2631 2963 
Q 2534 3019 2420 3045 
Q 2306 3072 2169 3072 
Q 1681 3072 1420 2755 
Q 1159 2438 1159 1844 
L 1159 0 
L 581 0 
L 581 3500 
L 1159 3500 
L 1159 2956 
Q 1341 3275 1631 3429 
Q 1922 3584 2338 3584 
Q 2397 3584 2469 3576 
Q 2541 3569 2628 3553 
L 2631 2963 
z
" transform="scale(0.015625)"/>
       <path id="DejaVuSans-61" d="M 2194 1759 
Q 1497 1759 1228 1600 
Q 959 1441 959 1056 
Q 959 750 1161 570 
Q 1363 391 1709 391 
Q 2188 391 2477 730 
Q 2766 1069 2766 1631 
L 2766 1759 
L 2194 1759 
z
M 3341 1997 
L 3341 0 
L 2766 0 
L 2766 531 
Q 2569 213 2275 61 
Q 1981 -91 1556 -91 
Q 1019 -91 701 211 
Q 384 513 384 1019 
Q 384 1609 779 1909 
Q 1175 2209 1959 2209 
L 2766 2209 
L 2766 2266 
Q 2766 2663 2505 2880 
Q 2244 3097 1772 3097 
Q 1472 3097 1187 3025 
Q 903 2953 641 2809 
L 641 3341 
Q 956 3463 1253 3523 
Q 1550 3584 1831 3584 
Q 2591 3584 2966 3190 
Q 3341 2797 3341 1997 
z
" transform="scale(0.015625)"/>
       <path id="DejaVuSans-67" d="M 2906 1791 
Q 2906 2416 2648 2759 
Q 2391 3103 1925 3103 
Q 1463 3103 1205 2759 
Q 947 2416 947 1791 
Q 947 1169 1205 825 
Q 1463 481 1925 481 
Q 2391 481 2648 825 
Q 2906 1169 2906 1791 
z
M 3481 434 
Q 3481 -459 3084 -895 
Q 2688 -1331 1869 -1331 
Q 1566 -1331 1297 -1286 
Q 1028 -1241 775 -1147 
L 775 -588 
Q 1028 -725 1275 -790 
Q 1522 -856 1778 -856 
Q 2344 -856 2625 -561 
Q 2906 -266 2906 331 
L 2906 616 
Q 2728 306 2450 153 
Q 2172 0 1784 0 
Q 1141 0 747 490 
Q 353 981 353 1791 
Q 353 2603 747 3093 
Q 1141 3584 1784 3584 
Q 2172 3584 2450 3431 
Q 2728 3278 2906 2969 
L 2906 3500 
L 3481 3500 
L 3481 434 
z
" transform="scale(0.015625)"/>
       <path id="DejaVuSans-20" transform="scale(0.015625)"/>
       <path id="DejaVuSans-66" d="M 2375 4863 
L 2375 4384 
L 1825 4384 
Q 1516 4384 1395 4259 
Q 1275 4134 1275 3809 
L 1275 3500 
L 2222 3500 
L 2222 3053 
L 1275 3053 
L 1275 0 
L 697 0 
L 697 3053 
L 147 3053 
L 147 3500 
L 697 3500 
L 697 3744 
Q 697 4328 969 4595 
Q 1241 4863 1831 4863 
L 2375 4863 
z
" transform="scale(0.015625)"/>
       <path id="DejaVuSans-53" d="M 3425 4513 
L 3425 3897 
Q 3066 4069 2747 4153 
Q 2428 4238 2131 4238 
Q 1616 4238 1336 4038 
Q 1056 3838 1056 3469 
Q 1056 3159 1242 3001 
Q 1428 2844 1947 2747 
L 2328 2669 
Q 3034 2534 3370 2195 
Q 3706 1856 3706 1288 
Q 3706 609 3251 259 
Q 2797 -91 1919 -91 
Q 1588 -91 1214 -16 
Q 841 59 441 206 
L 441 856 
Q 825 641 1194 531 
Q 1563 422 1919 422 
Q 2459 422 2753 634 
Q 3047 847 3047 1241 
Q 3047 1584 2836 1778 
Q 2625 1972 2144 2069 
L 1759 2144 
Q 1053 2284 737 2584 
Q 422 2884 422 3419 
Q 422 4038 858 4394 
Q 1294 4750 2059 4750 
Q 2388 4750 2728 4690 
Q 3069 4631 3425 4513 
z
" transform="scale(0.015625)"/>
       <path id="DejaVuSans-69" d="M 603 3500 
L 1178 3500 
L 1178 0 
L 603 0 
L 603 3500 
z
M 603 4863 
L 1178 4863 
L 1178 4134 
L 603 4134 
L 603 4863 
z
" transform="scale(0.015625)"/>
      </defs>
      <use xlink:href="#DejaVuSans-41"/>
      <use xlink:href="#DejaVuSans-76" x="62.533203"/>
      <use xlink:href="#DejaVuSans-65" x="121.712891"/>
      <use xlink:href="#DejaVuSans-72" x="183.236328"/>
      <use xlink:href="#DejaVuSans-61" x="224.349609"/>
      <use xlink:href="#DejaVuSans-67" x="285.628906"/>
      <use xlink:href="#DejaVuSans-65" x="349.105469"/>
      <use xlink:href="#DejaVuSans-20" x="410.628906"/>
      <use xlink:href="#DejaVuSans-6f" x="442.416016"/>
      <use xlink:href="#DejaVuSans-66" x="503.597656"/>
      <use xlink:href="#DejaVuSans-20" x="538.802734"/>
      <use xlink:href="#DejaVuSans-53" x="570.589844"/>
      <use xlink:href="#DejaVuSans-65" x="634.066406"/>
      <use xlink:href="#DejaVuSans-73" x="695.589844"/>
      <use xlink:href="#DejaVuSans-73" x="747.689453"/>
      <use xlink:href="#DejaVuSans-69" x="799.789062"/>
      <use xlink:href="#DejaVuSans-6f" x="827.572266"/>
      <use xlink:href="#DejaVuSans-6e" x="888.753906"/>
      <use xlink:href="#DejaVuSans-20" x="952.132812"/>
      <use xlink:href="#DejaVuSans-33" x="983.919922"/>
      <use xlink:href="#DejaVuSans-30" x="1047.542969"/>
     </g>
    </g>
    <g id="line2d_17">
     <path d="M 101.877906 38.921158 
L 111.877906 38.921158 
L 121.877906 38.921158 
" style="fill: none; stroke: #e41a1c; stroke-width: 1.5; stroke-linecap: square"/>
    </g>
    <g id="text_17">
     <!-- Target (n=313) -->
     <g transform="translate(129.877906 42.421158)scale(0.1 -0.1)">
      <defs>
       <path id="DejaVuSans-54" d="M -19 4666 
L 3928 4666 
L 3928 4134 
L 2272 4134 
L 2272 0 
L 1638 0 
L 1638 4134 
L -19 4134 
L -19 4666 
z
" transform="scale(0.015625)"/>
       <path id="DejaVuSans-74" d="M 1172 4494 
L 1172 3500 
L 2356 3500 
L 2356 3053 
L 1172 3053 
L 1172 1153 
Q 1172 725 1289 603 
Q 1406 481 1766 481 
L 2356 481 
L 2356 0 
L 1766 0 
Q 1100 0 847 248 
Q 594 497 594 1153 
L 594 3053 
L 172 3053 
L 172 3500 
L 594 3500 
L 594 4494 
L 1172 4494 
z
" transform="scale(0.015625)"/>
       <path id="DejaVuSans-28" d="M 1984 4856 
Q 1566 4138 1362 3434 
Q 1159 2731 1159 2009 
Q 1159 1288 1364 580 
Q 1569 -128 1984 -844 
L 1484 -844 
Q 1016 -109 783 600 
Q 550 1309 550 2009 
Q 550 2706 781 3412 
Q 1013 4119 1484 4856 
L 1984 4856 
z
" transform="scale(0.015625)"/>
       <path id="DejaVuSans-3d" d="M 678 2906 
L 4684 2906 
L 4684 2381 
L 678 2381 
L 678 2906 
z
M 678 1631 
L 4684 1631 
L 4684 1100 
L 678 1100 
L 678 1631 
z
" transform="scale(0.015625)"/>
       <path id="DejaVuSans-29" d="M 513 4856 
L 1013 4856 
Q 1481 4119 1714 3412 
Q 1947 2706 1947 2009 
Q 1947 1309 1714 600 
Q 1481 -109 1013 -844 
L 513 -844 
Q 928 -128 1133 580 
Q 1338 1288 1338 2009 
Q 1338 2731 1133 3434 
Q 928 4138 513 4856 
z
" transform="scale(0.015625)"/>
      </defs>
      <use xlink:href="#DejaVuSans-54"/>
      <use xlink:href="#DejaVuSans-61" x="44.583984"/>
      <use xlink:href="#DejaVuSans-72" x="105.863281"/>
      <use xlink:href="#DejaVuSans-67" x="145.226562"/>
      <use xlink:href="#DejaVuSans-65" x="208.703125"/>
      <use xlink:href="#DejaVuSans-74" x="270.226562"/>
      <use xlink:href="#DejaVuSans-20" x="309.435547"/>
      <use xlink:href="#DejaVuSans-28" x="341.222656"/>
      <use xlink:href="#DejaVuSans-6e" x="380.236328"/>
      <use xlink:href="#DejaVuSans-3d" x="443.615234"/>
      <use xlink:href="#DejaVuSans-33" x="527.404297"/>
      <use xlink:href="#DejaVuSans-31" x="591.027344"/>
      <use xlink:href="#DejaVuSans-33" x="654.650391"/>
      <use xlink:href="#DejaVuSans-29" x="718.273438"/>
     </g>
    </g>
    <g id="line2d_18">
     <path d="M 225.607593 38.921158 
L 235.607593 38.921158 
L 245.607593 38.921158 
" style="fill: none; stroke: #377eb8; stroke-width: 1.5; stroke-linecap: square"/>
    </g>
    <g id="text_18">
     <!-- Non-Target (n=1533) -->
     <g transform="translate(253.607593 42.421158)scale(0.1 -0.1)">
      <defs>
       <path id="DejaVuSans-4e" d="M 628 4666 
L 1478 4666 
L 3547 763 
L 3547 4666 
L 4159 4666 
L 4159 0 
L 3309 0 
L 1241 3903 
L 1241 0 
L 628 0 
L 628 4666 
z
" transform="scale(0.015625)"/>
       <path id="DejaVuSans-2d" d="M 313 2009 
L 1997 2009 
L 1997 1497 
L 313 1497 
L 313 2009 
z
" transform="scale(0.015625)"/>
      </defs>
      <use xlink:href="#DejaVuSans-4e"/>
      <use xlink:href="#DejaVuSans-6f" x="74.804688"/>
      <use xlink:href="#DejaVuSans-6e" x="135.986328"/>
      <use xlink:href="#DejaVuSans-2d" x="199.365234"/>
      <use xlink:href="#DejaVuSans-54" x="226.324219"/>
      <use xlink:href="#DejaVuSans-61" x="270.908203"/>
      <use xlink:href="#DejaVuSans-72" x="332.1875"/>
      <use xlink:href="#DejaVuSans-67" x="371.550781"/>
      <use xlink:href="#DejaVuSans-65" x="435.027344"/>
      <use xlink:href="#DejaVuSans-74" x="496.550781"/>
      <use xlink:href="#DejaVuSans-20" x="535.759766"/>
      <use xlink:href="#DejaVuSans-28" x="567.546875"/>
      <use xlink:href="#DejaVuSans-6e" x="606.560547"/>
      <use xlink:href="#DejaVuSans-3d" x="669.939453"/>
      <use xlink:href="#DejaVuSans-31" x="753.728516"/>
      <use xlink:href="#DejaVuSans-35" x="817.351562"/>
      <use xlink:href="#DejaVuSans-33" x="880.974609"/>
      <use xlink:href="#DejaVuSans-33" x="944.597656"/>
      <use xlink:href="#DejaVuSans-29" x="1008.220703"/>
     </g>
    </g>
   </g>
  </g>
 </g>
 <defs>
  <clipPath id="pf4417ea1b6">
   <rect x="46.64" y="71.732" width="366.930499" height="246.308"/>
  </clipPath>
 </defs>
</svg>
