<?xml version="1.0" encoding="utf-8" standalone="no"?>
<!DOCTYPE svg PUBLIC "-//W3C//DTD SVG 1.1//EN"
  "http://www.w3.org/Graphics/SVG/1.1/DTD/svg11.dtd">
<svg xmlns:xlink="http://www.w3.org/1999/xlink" width="432pt" height="360pt" viewBox="0 0 432 360" xmlns="http://www.w3.org/2000/svg" version="1.1">
 <metadata>
  <rdf:RDF xmlns:dc="http://purl.org/dc/elements/1.1/" xmlns:cc="http://creativecommons.org/ns#" xmlns:rdf="http://www.w3.org/1999/02/22-rdf-syntax-ns#">
   <cc:Work>
    <dc:type rdf:resource="http://purl.org/dc/dcmitype/StillImage"/>
    <dc:date>2022-05-19T11:51:45.709713</dc:date>
    <dc:format>image/svg+xml</dc:format>
    <dc:creator>
     <cc:Agent>
      <dc:title>Matplotlib v3.5.1, https://matplotlib.org/</dc:title>
     </cc:Agent>
    </dc:creator>
   </cc:Work>
  </rdf:RDF>
 </metadata>
 <defs>
  <style type="text/css">*{stroke-linejoin: round; stroke-linecap: butt}</style>
 </defs>
 <g id="figure_1">
  <g id="patch_1">
   <path d="M 0 360 
L 432 360 
L 432 0 
L 0 0 
L 0 360 
z
" style="fill: none"/>
  </g>
  <g id="axes_1">
   <g id="patch_2">
    <path d="M 46.64 318.04 
L 413.570499 318.04 
L 413.570499 71.732 
L 46.64 71.732 
L 46.64 318.04 
z
" style="fill: none"/>
   </g>
   <g id="PolyCollection_1">
    <defs>
     <path id="mb6878e258e" d="M 46.64 -187.083867 
L 46.64 -126.237782 
L 47.435945 -125.752697 
L 48.231889 -122.782743 
L 49.027834 -118.125352 
L 49.823779 -112.886676 
L 50.619723 -108.072646 
L 51.415668 -104.22075 
L 52.211613 -101.29068 
L 53.007557 -98.914389 
L 53.803502 -96.854952 
L 54.599447 -95.270875 
L 55.395392 -94.567487 
L 56.191336 -95.07043 
L 56.987281 -96.82728 
L 57.783226 -99.640562 
L 58.57917 -103.253597 
L 59.375115 -107.47372 
L 60.17106 -112.088378 
L 60.967004 -116.714258 
L 61.762949 -120.79517 
L 62.558894 -123.759991 
L 63.354838 -125.203371 
L 64.150783 -124.981078 
L 64.946728 -123.216973 
L 65.742672 -120.277894 
L 66.538617 -116.742942 
L 67.334562 -113.327913 
L 68.130506 -110.721489 
L 68.926451 -109.376029 
L 69.722396 -109.373149 
L 70.51834 -110.45711 
L 71.314285 -112.212626 
L 72.11023 -114.254199 
L 72.906175 -116.312024 
L 73.702119 -118.228215 
L 74.498064 -119.944009 
L 75.294009 -121.508577 
L 76.089953 -123.068493 
L 76.885898 -124.781317 
L 77.681843 -126.656423 
L 78.477787 -128.408469 
L 79.273732 -129.433911 
L 80.069677 -128.981775 
L 80.865621 -126.506206 
L 81.661566 -122.044473 
L 82.457511 -116.355327 
L 83.253455 -110.688758 
L 84.0494 -106.338973 
L 84.845345 -104.23119 
L 85.641289 -104.687241 
L 86.437234 -107.36725 
L 87.233179 -111.320439 
L 88.029124 -115.145467 
L 88.825068 -117.319897 
L 89.621013 -116.667947 
L 90.416958 -112.788943 
L 91.212902 -106.236834 
L 92.008847 -98.363808 
L 92.804792 -90.903809 
L 93.600736 -85.451902 
L 94.396681 -83.000793 
L 95.192626 -83.677284 
L 95.98857 -86.768638 
L 96.784515 -91.025895 
L 97.58046 -95.11713 
L 98.376404 -98.044785 
L 99.172349 -99.374121 
L 99.968294 -99.218783 
L 100.764238 -98.031676 
L 101.560183 -96.317233 
L 102.356128 -94.405744 
L 103.152073 -92.392742 
L 103.948017 -90.24327 
L 104.743962 -87.955615 
L 105.539907 -85.66517 
L 106.335851 -83.65056 
L 107.131796 -82.275421 
L 107.927741 -81.892223 
L 108.723685 -82.705518 
L 109.51963 -84.623308 
L 110.315575 -87.194521 
L 111.111519 -89.737984 
L 111.907464 -91.664638 
L 112.703409 -92.821462 
L 113.499353 -93.592023 
L 114.295298 -94.64911 
L 115.091243 -96.541154 
L 115.887187 -99.388255 
L 116.683132 -102.841987 
L 117.479077 -106.287449 
L 118.275021 -109.136302 
L 119.070966 -111.048841 
L 119.866911 -112.016534 
L 120.662856 -112.312232 
L 121.4588 -112.339932 
L 122.254745 -112.44808 
L 123.05069 -112.798295 
L 123.846634 -113.341681 
L 124.642579 -113.871779 
L 125.438524 -114.105107 
L 126.234468 -113.788621 
L 127.030413 -112.833004 
L 127.826358 -111.407909 
L 128.622302 -109.905178 
L 129.418247 -108.733976 
L 130.214192 -108.029969 
L 131.010136 -107.451538 
L 131.806081 -106.216067 
L 132.602026 -103.401027 
L 133.39797 -98.384869 
L 134.193915 -91.221707 
L 134.98986 -82.765966 
L 135.785805 -74.469436 
L 136.581749 -67.917946 
L 137.377694 -64.296208 
L 138.173639 -64.001183 
L 138.969583 -66.5414 
L 139.765528 -70.722494 
L 140.561473 -75.032952 
L 141.357417 -78.131317 
L 142.153362 -79.310982 
L 142.949307 -78.753026 
L 143.745251 -77.392188 
L 144.541196 -76.416533 
L 145.337141 -76.672013 
L 146.133085 -78.310718 
L 146.92903 -80.832486 
L 147.724975 -83.383145 
L 148.520919 -85.06663 
L 149.316864 -85.179371 
L 150.112809 -83.415681 
L 150.908753 -80.04473 
L 151.704698 -75.937247 
L 152.500643 -72.307198 
L 153.296588 -70.22537 
L 154.092532 -70.182948 
L 154.888477 -71.954565 
L 155.684422 -74.784095 
L 156.480366 -77.746703 
L 157.276311 -80.122188 
L 158.072256 -81.659165 
L 158.8682 -82.62625 
L 159.664145 -83.592423 
L 160.46009 -85.034582 
L 161.256034 -87.012859 
L 162.051979 -89.115663 
L 162.847924 -90.690741 
L 163.643868 -91.196861 
L 164.439813 -90.458765 
L 165.235758 -88.711201 
L 166.031702 -86.466293 
L 166.827647 -84.306192 
L 167.623592 -82.682772 
L 168.419537 -81.769279 
L 169.215481 -81.399414 
L 170.011426 -81.125725 
L 170.807371 -80.391263 
L 171.603315 -78.751866 
L 172.39926 -76.060813 
L 173.195205 -72.540683 
L 173.991149 -68.69799 
L 174.787094 -65.094156 
L 175.583039 -62.080552 
L 176.378983 -59.66734 
L 177.174928 -57.630139 
L 177.970873 -55.778593 
L 178.766817 -54.175683 
L 179.562762 -53.155818 
L 180.358707 -53.167561 
L 181.154651 -54.563306 
L 181.950596 -57.432909 
L 182.746541 -61.522179 
L 183.542485 -66.249592 
L 184.33843 -70.827192 
L 185.134375 -74.462762 
L 185.93032 -76.572462 
L 186.726264 -76.926881 
L 187.522209 -75.706082 
L 188.318154 -73.48309 
L 189.114098 -71.125532 
L 189.910043 -69.553638 
L 190.705988 -69.365039 
L 191.501932 -70.517483 
L 192.297877 -72.315609 
L 193.093822 -73.773494 
L 193.889766 -74.156716 
L 194.685711 -73.355783 
L 195.481656 -71.875922 
L 196.2776 -70.538292 
L 197.073545 -70.138845 
L 197.86949 -71.21909 
L 198.665434 -73.95968 
L 199.461379 -78.154162 
L 200.257324 -83.253227 
L 201.053269 -88.497871 
L 201.849213 -93.12351 
L 202.645158 -96.563203 
L 203.441103 -98.573911 
L 204.237047 -99.253116 
L 205.032992 -98.957935 
L 205.828937 -98.162361 
L 206.624881 -97.302738 
L 207.420826 -96.670895 
L 208.216771 -96.392129 
L 209.012715 -96.465715 
L 209.80866 -96.80433 
L 210.604605 -97.238626 
L 211.400549 -97.518089 
L 212.196494 -97.361579 
L 212.992439 -96.568392 
L 213.788383 -95.131314 
L 214.584328 -93.261058 
L 215.380273 -91.283622 
L 216.176218 -89.47053 
L 216.972162 -87.908166 
L 217.768107 -86.473837 
L 218.564052 -84.920291 
L 219.359996 -83.028539 
L 220.155941 -80.768319 
L 220.951886 -78.389952 
L 221.74783 -76.379885 
L 222.543775 -75.278018 
L 223.33972 -75.450248 
L 224.135664 -76.949696 
L 224.931609 -79.537872 
L 225.727554 -82.818486 
L 226.523498 -86.371563 
L 227.319443 -89.829849 
L 228.115388 -92.934347 
L 228.911332 -95.610892 
L 229.707277 -98.022476 
L 230.503222 -100.49952 
L 231.299166 -103.335121 
L 232.095111 -106.580946 
L 232.891056 -110.011674 
L 233.687001 -113.289437 
L 234.482945 -116.182152 
L 235.27889 -118.647997 
L 236.074835 -120.743201 
L 236.870779 -122.479326 
L 237.666724 -123.773645 
L 238.462669 -124.517436 
L 239.258613 -124.668064 
L 240.054558 -124.273366 
L 240.850503 -123.445541 
L 241.646447 -122.365269 
L 242.442392 -121.338869 
L 243.238337 -120.832211 
L 244.034281 -121.378616 
L 244.830226 -123.354991 
L 245.626171 -126.762949 
L 246.422115 -131.179916 
L 247.21806 -135.912391 
L 248.014005 -140.225894 
L 248.80995 -143.507704 
L 249.605894 -145.33328 
L 250.401839 -145.496566 
L 251.197784 -144.040518 
L 251.993728 -141.255392 
L 252.789673 -137.605902 
L 253.585618 -133.619288 
L 254.381562 -129.808868 
L 255.177507 -126.65124 
L 255.973452 -124.567071 
L 256.769396 -123.873817 
L 257.565341 -124.740899 
L 258.361286 -127.185511 
L 259.15723 -131.088126 
L 259.953175 -136.167388 
L 260.74912 -141.913809 
L 261.545064 -147.578643 
L 262.341009 -152.305979 
L 263.136954 -155.376007 
L 263.932898 -156.431891 
L 264.728843 -155.582716 
L 265.524788 -153.366007 
L 266.320733 -150.615197 
L 267.116677 -148.275565 
L 267.912622 -147.190098 
L 268.708567 -147.878265 
L 269.504511 -150.355075 
L 270.300456 -154.059162 
L 271.096401 -157.954508 
L 271.892345 -160.824216 
L 272.68829 -161.68086 
L 273.484235 -160.123141 
L 274.280179 -156.471558 
L 275.076124 -151.642659 
L 275.872069 -146.852318 
L 276.668013 -143.263617 
L 277.463958 -141.649945 
L 278.259903 -142.128482 
L 279.055847 -144.059125 
L 279.851792 -146.215362 
L 280.647737 -147.228181 
L 281.443682 -146.125539 
L 282.239626 -142.707085 
L 283.035571 -137.603471 
L 283.831516 -132.048194 
L 284.62746 -127.474001 
L 285.423405 -125.047313 
L 286.21935 -125.262354 
L 287.015294 -127.739449 
L 287.811239 -131.344313 
L 288.607184 -134.628156 
L 289.403128 -136.424298 
L 290.199073 -136.32642 
L 290.995018 -134.81589 
L 291.790962 -132.996006 
L 292.586907 -132.089734 
L 293.382852 -132.937628 
L 294.178796 -135.689277 
L 294.974741 -139.774032 
L 295.770686 -144.127964 
L 296.56663 -147.584943 
L 297.362575 -149.3059 
L 298.15852 -149.096058 
L 298.954465 -147.462331 
L 299.750409 -145.35293 
L 300.546354 -143.696283 
L 301.342299 -142.988247 
L 302.138243 -143.140494 
L 302.934188 -143.628221 
L 303.730133 -143.806571 
L 304.526077 -143.218054 
L 305.322022 -141.77597 
L 306.117967 -139.787545 
L 306.913911 -137.821136 
L 307.709856 -136.446166 
L 308.505801 -135.926736 
L 309.301745 -136.019028 
L 310.09769 -136.020964 
L 310.893635 -135.09199 
L 311.689579 -132.676441 
L 312.485524 -128.779409 
L 313.281469 -123.940972 
L 314.077414 -118.953271 
L 314.873358 -114.50849 
L 315.669303 -110.968321 
L 316.465248 -108.327262 
L 317.261192 -106.310241 
L 318.057137 -104.522396 
L 318.853082 -102.626886 
L 319.649026 -100.52872 
L 320.444971 -98.483408 
L 321.240916 -97.032184 
L 322.03686 -96.738499 
L 322.832805 -97.830117 
L 323.62875 -99.947393 
L 324.424694 -102.171881 
L 325.220639 -103.363652 
L 326.016584 -102.667214 
L 326.812528 -99.951484 
L 327.608473 -95.969809 
L 328.404418 -92.148051 
L 329.200363 -90.077061 
L 329.996307 -90.918682 
L 330.792252 -94.964358 
L 331.588197 -101.50432 
L 332.384141 -109.031922 
L 333.180086 -115.698448 
L 333.976031 -119.874478 
L 334.771975 -120.645837 
L 335.56792 -118.075831 
L 336.363865 -113.130593 
L 337.159809 -107.296499 
L 337.955754 -102.057065 
L 338.751699 -98.44743 
L 339.547643 -96.832242 
L 340.343588 -96.926123 
L 341.139533 -97.992258 
L 341.935477 -99.134755 
L 342.731422 -99.601161 
L 343.527367 -99.012406 
L 344.323311 -97.454253 
L 345.119256 -95.406884 
L 345.915201 -93.545142 
L 346.711146 -92.487987 
L 347.50709 -92.592682 
L 348.303035 -93.869359 
L 349.09898 -96.041658 
L 349.894924 -98.717686 
L 350.690869 -101.585006 
L 351.486814 -104.527934 
L 352.282758 -107.607493 
L 353.078703 -110.933866 
L 353.874648 -114.528435 
L 354.670592 -118.253239 
L 355.466537 -121.811585 
L 356.262482 -124.784066 
L 357.058426 -126.686569 
L 357.854371 -127.063871 
L 358.650316 -125.61626 
L 359.44626 -122.313244 
L 360.242205 -117.426899 
L 361.03815 -111.453966 
L 361.834095 -104.972286 
L 362.630039 -98.517395 
L 363.425984 -92.523055 
L 364.221929 -87.300433 
L 365.017873 -83.02113 
L 365.813818 -79.716322 
L 366.609763 -77.328505 
L 367.405707 -75.812778 
L 368.201652 -75.222239 
L 368.997597 -75.700684 
L 369.793541 -77.375723 
L 370.589486 -80.23342 
L 371.385431 -84.071462 
L 372.181375 -88.561455 
L 372.97732 -93.367372 
L 373.773265 -98.235135 
L 374.569209 -103.009035 
L 375.365154 -107.598848 
L 376.161099 -111.948468 
L 376.957043 -116.026681 
L 377.752988 -119.818557 
L 378.548933 -123.291428 
L 379.344878 -126.345122 
L 380.140822 -128.788897 
L 380.936767 -130.378997 
L 381.732712 -130.908941 
L 382.528656 -130.308669 
L 383.324601 -128.706244 
L 384.120546 -126.430381 
L 384.91649 -123.953842 
L 385.712435 -121.785031 
L 386.50838 -120.328807 
L 387.304324 -119.766963 
L 388.100269 -120.023742 
L 388.896214 -120.846345 
L 389.692158 -121.951445 
L 390.488103 -123.133782 
L 391.284048 -124.27337 
L 392.079992 -125.276247 
L 392.875937 -126.023226 
L 393.671882 -126.358924 
L 394.467827 -126.109127 
L 395.263771 -125.112331 
L 396.059716 -123.261821 
L 396.855661 -120.546485 
L 397.651605 -117.068779 
L 398.44755 -113.035748 
L 399.243495 -108.742328 
L 400.039439 -104.551216 
L 400.835384 -100.839002 
L 401.631329 -97.889795 
L 402.427273 -95.778918 
L 403.223218 -94.327103 
L 404.019163 -93.174002 
L 404.815107 -91.948899 
L 405.611052 -90.462416 
L 406.406997 -88.832027 
L 407.202941 -87.478522 
L 407.998886 -86.978651 
L 408.794831 -87.825452 
L 409.590775 -90.202473 
L 410.38672 -93.874439 
L 411.182665 -98.230332 
L 411.97861 -102.441997 
L 412.774554 -105.678305 
L 413.570499 -107.333756 
L 413.570499 -249.088463 
L 413.570499 -249.088463 
L 412.774554 -247.853262 
L 411.97861 -244.788645 
L 411.182665 -240.200329 
L 410.38672 -234.838316 
L 409.590775 -229.62556 
L 408.794831 -225.362045 
L 407.998886 -222.543065 
L 407.202941 -221.326634 
L 406.406997 -221.597835 
L 405.611052 -223.063688 
L 404.815107 -225.34493 
L 404.019163 -228.057522 
L 403.223218 -230.880942 
L 402.427273 -233.609644 
L 401.631329 -236.183492 
L 400.835384 -238.684728 
L 400.039439 -241.284972 
L 399.243495 -244.147278 
L 398.44755 -247.327575 
L 397.651605 -250.732348 
L 396.855661 -254.146084 
L 396.059716 -257.287024 
L 395.263771 -259.85127 
L 394.467827 -261.550243 
L 393.671882 -262.163711 
L 392.875937 -261.60371 
L 392.079992 -259.962413 
L 391.284048 -257.524534 
L 390.488103 -254.736877 
L 389.692158 -252.125404 
L 388.896214 -250.160215 
L 388.100269 -249.1166 
L 387.304324 -249.019344 
L 386.50838 -249.710505 
L 385.712435 -250.978093 
L 384.91649 -252.642741 
L 384.120546 -254.556427 
L 383.324601 -256.547113 
L 382.528656 -258.373453 
L 381.732712 -259.7266 
L 380.936767 -260.275813 
L 380.140822 -259.738828 
L 379.344878 -257.957069 
L 378.548933 -254.947566 
L 377.752988 -250.898985 
L 376.957043 -246.101088 
L 376.161099 -240.840001 
L 375.365154 -235.322129 
L 374.569209 -229.674302 
L 373.773265 -224.008697 
L 372.97732 -218.487761 
L 372.181375 -213.32905 
L 371.385431 -208.749389 
L 370.589486 -204.904593 
L 369.793541 -201.878753 
L 368.997597 -199.720111 
L 368.201652 -198.473376 
L 367.405707 -198.169939 
L 366.609763 -198.792806 
L 365.813818 -200.27323 
L 365.017873 -202.549231 
L 364.221929 -205.640656 
L 363.425984 -209.656742 
L 362.630039 -214.700592 
L 361.834095 -220.72551 
L 361.03815 -227.44265 
L 360.242205 -234.335094 
L 359.44626 -240.751318 
L 358.650316 -246.020779 
L 357.854371 -249.570211 
L 357.058426 -251.048378 
L 356.262482 -250.439996 
L 355.466537 -248.106673 
L 354.670592 -244.701051 
L 353.874648 -240.96841 
L 353.078703 -237.524047 
L 352.282758 -234.710595 
L 351.486814 -232.580281 
L 350.690869 -230.96979 
L 349.894924 -229.612277 
L 349.09898 -228.259416 
L 348.303035 -226.799713 
L 347.50709 -225.332267 
L 346.711146 -224.139929 
L 345.915201 -223.547683 
L 345.119256 -223.724917 
L 344.323311 -224.536258 
L 343.527367 -225.535269 
L 342.731422 -226.13381 
L 341.935477 -225.892 
L 341.139533 -224.797816 
L 340.343588 -223.384779 
L 339.547643 -222.59217 
L 338.751699 -223.388108 
L 337.955754 -226.303171 
L 337.159809 -231.090777 
L 336.363865 -236.683977 
L 335.56792 -241.479262 
L 334.771975 -243.841994 
L 333.976031 -242.662219 
L 333.180086 -237.781198 
L 332.384141 -230.131915 
L 331.588197 -221.506151 
L 330.792252 -213.992237 
L 329.996307 -209.279664 
L 329.200363 -208.10947 
L 328.404418 -210.092182 
L 327.608473 -213.942362 
L 326.812528 -218.000868 
L 326.016584 -220.82541 
L 325.220639 -221.639083 
L 324.424694 -220.502501 
L 323.62875 -218.180939 
L 322.832805 -215.781646 
L 322.03686 -214.308719 
L 321.240916 -214.300768 
L 320.444971 -215.679213 
L 319.649026 -217.862648 
L 318.853082 -220.108991 
L 318.057137 -221.940161 
L 317.261192 -223.43274 
L 316.465248 -225.195844 
L 315.669303 -228.016424 
L 314.873358 -232.358437 
L 314.077414 -238.022328 
L 313.281469 -244.179459 
L 312.485524 -249.740463 
L 311.689579 -253.822287 
L 310.893635 -256.075639 
L 310.09769 -256.759556 
L 309.301745 -256.58865 
L 308.505801 -256.450838 
L 307.709856 -257.089226 
L 306.913911 -258.826386 
L 306.117967 -261.425231 
L 305.322022 -264.180768 
L 304.526077 -266.249493 
L 303.730133 -267.069652 
L 302.934188 -266.637373 
L 302.138243 -265.478195 
L 301.342299 -264.341655 
L 300.546354 -263.808468 
L 299.750409 -264.022738 
L 298.954465 -264.652264 
L 298.15852 -265.049179 
L 297.362575 -264.52236 
L 296.56663 -262.63435 
L 295.770686 -259.43244 
L 294.974741 -255.501747 
L 294.178796 -251.765378 
L 293.382852 -249.09175 
L 292.586907 -247.90428 
L 291.790962 -248.002054 
L 290.995018 -248.680311 
L 290.199073 -249.077469 
L 289.403128 -248.569543 
L 288.607184 -247.032504 
L 287.811239 -244.885997 
L 287.015294 -242.939612 
L 286.21935 -242.108033 
L 285.423405 -243.067625 
L 284.62746 -245.955843 
L 283.831516 -250.24367 
L 283.035571 -254.876892 
L 282.239626 -258.666654 
L 281.443682 -260.765608 
L 280.647737 -260.996143 
L 279.851792 -259.877729 
L 279.055847 -258.385039 
L 278.259903 -257.593914 
L 277.463958 -258.342673 
L 276.668013 -260.961262 
L 275.872069 -265.125718 
L 275.076124 -269.923301 
L 274.280179 -274.15142 
L 273.484235 -276.735946 
L 272.68829 -277.072182 
L 271.892345 -275.15223 
L 271.096401 -271.490159 
L 270.300456 -266.950856 
L 269.504511 -262.557198 
L 268.708567 -259.27836 
L 267.912622 -257.800318 
L 267.116677 -258.330608 
L 266.320733 -260.516184 
L 265.524788 -263.526381 
L 264.728843 -266.289976 
L 263.932898 -267.807962 
L 263.136954 -267.426483 
L 262.341009 -264.975542 
L 261.545064 -260.753746 
L 260.74912 -255.411847 
L 259.953175 -249.795536 
L 259.15723 -244.763169 
L 258.361286 -240.979813 
L 257.565341 -238.744457 
L 256.769396 -237.956867 
L 255.973452 -238.267438 
L 255.177507 -239.309948 
L 254.381562 -240.854712 
L 253.585618 -242.804197 
L 252.789673 -245.080832 
L 251.993728 -247.50655 
L 251.197784 -249.735589 
L 250.401839 -251.261905 
L 249.605894 -251.526559 
L 248.80995 -250.129747 
L 248.014005 -247.06051 
L 247.21806 -242.789969 
L 246.422115 -238.137618 
L 245.626171 -233.979851 
L 244.830226 -230.977971 
L 244.034281 -229.448943 
L 243.238337 -229.360124 
L 242.442392 -230.372444 
L 241.646447 -231.918232 
L 240.850503 -233.355004 
L 240.054558 -234.184967 
L 239.258613 -234.227592 
L 238.462669 -233.618208 
L 237.666724 -232.620515 
L 236.870779 -231.391896 
L 236.074835 -229.888513 
L 235.27889 -227.973184 
L 234.482945 -225.604273 
L 233.687001 -222.925855 
L 232.891056 -220.189589 
L 232.095111 -217.600925 
L 231.299166 -215.23674 
L 230.503222 -213.073093 
L 229.707277 -211.036151 
L 228.911332 -209.000315 
L 228.115388 -206.767749 
L 227.319443 -204.126417 
L 226.523498 -201.006959 
L 225.727554 -197.618973 
L 224.931609 -194.422225 
L 224.135664 -191.923115 
L 223.33972 -190.441552 
L 222.543775 -190.010506 
L 221.74783 -190.441994 
L 220.951886 -191.466625 
L 220.155941 -192.841789 
L 219.359996 -194.392348 
L 218.564052 -196.008875 
L 217.768107 -197.635659 
L 216.972162 -199.252762 
L 216.176218 -200.846427 
L 215.380273 -202.379248 
L 214.584328 -203.775382 
L 213.788383 -204.915417 
L 212.992439 -205.628975 
L 212.196494 -205.701847 
L 211.400549 -204.937178 
L 210.604605 -203.27379 
L 209.80866 -200.894723 
L 209.012715 -198.238211 
L 208.216771 -195.878736 
L 207.420826 -194.328981 
L 206.624881 -193.861538 
L 205.828937 -194.426097 
L 205.032992 -195.668026 
L 204.237047 -197.011339 
L 203.441103 -197.783101 
L 202.645158 -197.3761 
L 201.849213 -195.427654 
L 201.053269 -191.959873 
L 200.257324 -187.423128 
L 199.461379 -182.610941 
L 198.665434 -178.448612 
L 197.86949 -175.69729 
L 197.073545 -174.671393 
L 196.2776 -175.113347 
L 195.481656 -176.327962 
L 194.685711 -177.526506 
L 193.889766 -178.179705 
L 193.093822 -178.172546 
L 192.297877 -177.719314 
L 191.501932 -177.189858 
L 190.705988 -176.994586 
L 189.910043 -177.50005 
L 189.114098 -178.875117 
L 188.318154 -180.88289 
L 187.522209 -182.780383 
L 186.726264 -183.500463 
L 185.93032 -182.098072 
L 185.134375 -178.20862 
L 184.33843 -172.245903 
L 183.542485 -165.251656 
L 182.746541 -158.501791 
L 181.950596 -153.060309 
L 181.154651 -149.459746 
L 180.358707 -147.624883 
L 179.562762 -147.060204 
L 178.766817 -147.196687 
L 177.970873 -147.702355 
L 177.174928 -148.585401 
L 176.378983 -150.064572 
L 175.583039 -152.343848 
L 174.787094 -155.454953 
L 173.991149 -159.21184 
L 173.195205 -163.231318 
L 172.39926 -167.001743 
L 171.603315 -170.024118 
L 170.807371 -172.011995 
L 170.011426 -173.055432 
L 169.215481 -173.634883 
L 168.419537 -174.447029 
L 167.623592 -176.10838 
L 166.827647 -178.865635 
L 166.031702 -182.449071 
L 165.235758 -186.154543 
L 164.439813 -189.129328 
L 163.643868 -190.716026 
L 162.847924 -190.67075 
L 162.051979 -189.160674 
L 161.256034 -186.596679 
L 160.46009 -183.440261 
L 159.664145 -180.079124 
L 158.8682 -176.77328 
L 158.072256 -173.637435 
L 157.276311 -170.656693 
L 156.480366 -167.771876 
L 155.684422 -165.036125 
L 154.888477 -162.738194 
L 154.092532 -161.364145 
L 153.296588 -161.39681 
L 152.500643 -163.07423 
L 151.704698 -166.21958 
L 150.908753 -170.184747 
L 150.112809 -173.94071 
L 149.316864 -176.377941 
L 148.520919 -176.782094 
L 147.724975 -175.234314 
L 146.92903 -172.630928 
L 146.133085 -170.242115 
L 145.337141 -169.056902 
L 144.541196 -169.32435 
L 143.745251 -170.526539 
L 142.949307 -171.691596 
L 142.153362 -171.815693 
L 141.357417 -170.238605 
L 140.561473 -166.917048 
L 139.765528 -162.543168 
L 138.969583 -158.409772 
L 138.173639 -155.984163 
L 137.377694 -156.340253 
L 136.581749 -159.732205 
L 135.785805 -165.521324 
L 134.98986 -172.458988 
L 134.193915 -179.161943 
L 133.39797 -184.573037 
L 132.602026 -188.24577 
L 131.806081 -190.376984 
L 131.010136 -191.60887 
L 130.214192 -192.700958 
L 129.418247 -194.206508 
L 128.622302 -196.266106 
L 127.826358 -198.577123 
L 127.030413 -200.543337 
L 126.234468 -201.558256 
L 125.438524 -201.315014 
L 124.642579 -199.990562 
L 123.846634 -198.182948 
L 123.05069 -196.603771 
L 122.254745 -195.684521 
L 121.4588 -195.335672 
L 120.662856 -195.005965 
L 119.866911 -193.986538 
L 119.070966 -191.77529 
L 118.275021 -188.325168 
L 117.479077 -184.070662 
L 116.683132 -179.718979 
L 115.887187 -175.912793 
L 115.091243 -172.962871 
L 114.295298 -170.800199 
L 113.499353 -169.13078 
L 112.703409 -167.650294 
L 111.907464 -166.170517 
L 111.111519 -164.612487 
L 110.315575 -162.964358 
L 109.51963 -161.308864 
L 108.723685 -159.866832 
L 107.927741 -158.938132 
L 107.131796 -158.740836 
L 106.335851 -159.271511 
L 105.539907 -160.308138 
L 104.743962 -161.559499 
L 103.948017 -162.834813 
L 103.152073 -164.09506 
L 102.356128 -165.363622 
L 101.560183 -166.591882 
L 100.764238 -167.584939 
L 99.968294 -168.022537 
L 99.172349 -167.557887 
L 98.376404 -165.964832 
L 97.58046 -163.290038 
L 96.784515 -159.944333 
L 95.98857 -156.673355 
L 95.192626 -154.396303 
L 94.396681 -153.954042 
L 93.600736 -155.834994 
L 92.804792 -159.960992 
L 92.008847 -165.619744 
L 91.212902 -171.602848 
L 90.416958 -176.533515 
L 89.621013 -179.27492 
L 88.825068 -179.270487 
L 88.029124 -176.716217 
L 87.233179 -172.532293 
L 86.437234 -168.122818 
L 85.641289 -164.943 
L 84.845345 -163.994371 
L 84.0494 -165.479003 
L 83.253455 -168.810124 
L 82.457511 -172.954886 
L 81.661566 -176.874797 
L 80.865621 -179.818854 
L 80.069677 -181.387038 
L 79.273732 -181.477093 
L 78.477787 -180.255607 
L 77.681843 -178.130951 
L 76.885898 -175.636389 
L 76.089953 -173.238044 
L 75.294009 -171.163929 
L 74.498064 -169.34219 
L 73.702119 -167.492765 
L 72.906175 -165.343676 
L 72.11023 -162.855721 
L 71.314285 -160.314926 
L 70.51834 -158.229272 
L 69.722396 -157.100178 
L 68.926451 -157.230496 
L 68.130506 -158.673001 
L 67.334562 -161.273976 
L 66.538617 -164.711683 
L 65.742672 -168.499971 
L 64.946728 -172.01113 
L 64.150783 -174.580087 
L 63.354838 -175.672653 
L 62.558894 -175.025518 
L 61.762949 -172.686777 
L 60.967004 -168.971767 
L 60.17106 -164.401851 
L 59.375115 -159.655892 
L 58.57917 -155.476813 
L 57.783226 -152.457871 
L 56.987281 -150.777769 
L 56.191336 -150.133777 
L 55.395392 -150.007457 
L 54.599447 -150.071143 
L 53.803502 -150.440609 
L 53.007557 -151.606472 
L 52.211613 -154.079206 
L 51.415668 -158.037954 
L 50.619723 -163.274721 
L 49.823779 -169.336691 
L 49.027834 -175.608878 
L 48.231889 -181.297799 
L 47.435945 -185.442012 
L 46.64 -187.083867 
z
" style="stroke: #e41a1c; stroke-opacity: 0.3"/>
    </defs>
    <g clip-path="url(#pcd72e1d1df)">
     <use xlink:href="#mb6878e258e" x="0" y="360" style="fill: #e41a1c; fill-opacity: 0.3; stroke: #e41a1c; stroke-opacity: 0.3"/>
    </g>
   </g>
   <g id="PolyCollection_2">
    <defs>
     <path id="ma3a0c8f1bf" d="M 46.64 -150.25048 
L 46.64 -122.004783 
L 47.435945 -123.700738 
L 48.231889 -124.945424 
L 49.027834 -125.791944 
L 49.823779 -126.42498 
L 50.619723 -127.115519 
L 51.415668 -128.141227 
L 52.211613 -129.672207 
L 53.007557 -131.658824 
L 53.803502 -133.787728 
L 54.599447 -135.556377 
L 55.395392 -136.460598 
L 56.191336 -136.220378 
L 56.987281 -134.927086 
L 57.783226 -133.033028 
L 58.57917 -131.196745 
L 59.375115 -130.055555 
L 60.17106 -130.005432 
L 60.967004 -131.063237 
L 61.762949 -132.866338 
L 62.558894 -134.810514 
L 63.354838 -136.259837 
L 64.150783 -136.741913 
L 64.946728 -136.073728 
L 65.742672 -134.395474 
L 66.538617 -132.115368 
L 67.334562 -129.797942 
L 68.130506 -128.026246 
L 68.926451 -127.23612 
L 69.722396 -127.550149 
L 70.51834 -128.705706 
L 71.314285 -130.138422 
L 72.11023 -131.19066 
L 72.906175 -131.36434 
L 73.702119 -130.514357 
L 74.498064 -128.874181 
L 75.294009 -126.893631 
L 76.089953 -125.007161 
L 76.885898 -123.474809 
L 77.681843 -122.354628 
L 78.477787 -121.579399 
L 79.273732 -121.060489 
L 80.069677 -120.747882 
L 80.865621 -120.632838 
L 81.661566 -120.725557 
L 82.457511 -121.032503 
L 83.253455 -121.532144 
L 84.0494 -122.152188 
L 84.845345 -122.773608 
L 85.641289 -123.280104 
L 86.437234 -123.63045 
L 87.233179 -123.897021 
L 88.029124 -124.228406 
L 88.825068 -124.753602 
L 89.621013 -125.490821 
L 90.416958 -126.311896 
L 91.212902 -126.971294 
L 92.008847 -127.184569 
L 92.804792 -126.736471 
L 93.600736 -125.587448 
L 94.396681 -123.928302 
L 95.192626 -122.139105 
L 95.98857 -120.659214 
L 96.784515 -119.834107 
L 97.58046 -119.811862 
L 98.376404 -120.515191 
L 99.172349 -121.674796 
L 99.968294 -122.910091 
L 100.764238 -123.848893 
L 101.560183 -124.257421 
L 102.356128 -124.125622 
L 103.152073 -123.657742 
L 103.948017 -123.167158 
L 104.743962 -122.934068 
L 105.539907 -123.098847 
L 106.335851 -123.626355 
L 107.131796 -124.334353 
L 107.927741 -124.963974 
L 108.723685 -125.270169 
L 109.51963 -125.105355 
L 110.315575 -124.464443 
L 111.111519 -123.469633 
L 111.907464 -122.30164 
L 112.703409 -121.112712 
L 113.499353 -119.965394 
L 114.295298 -118.825273 
L 115.091243 -117.605037 
L 115.887187 -116.226472 
L 116.683132 -114.658531 
L 117.479077 -112.915003 
L 118.275021 -111.032211 
L 119.070966 -109.058769 
L 119.866911 -107.065162 
L 120.662856 -105.148776 
L 121.4588 -103.412435 
L 122.254745 -101.931917 
L 123.05069 -100.746391 
L 123.846634 -99.879058 
L 124.642579 -99.36289 
L 125.438524 -99.247087 
L 126.234468 -99.583653 
L 127.030413 -100.405467 
L 127.826358 -101.6992 
L 128.622302 -103.374347 
L 129.418247 -105.246331 
L 130.214192 -107.061127 
L 131.010136 -108.564874 
L 131.806081 -109.582723 
L 132.602026 -110.06231 
L 133.39797 -110.070436 
L 134.193915 -109.764686 
L 134.98986 -109.36073 
L 135.785805 -109.096717 
L 136.581749 -109.187527 
L 137.377694 -109.77071 
L 138.173639 -110.860566 
L 138.969583 -112.333317 
L 139.765528 -113.96018 
L 140.561473 -115.488299 
L 141.357417 -116.744611 
L 142.153362 -117.714511 
L 142.949307 -118.548467 
L 143.745251 -119.486978 
L 144.541196 -120.741566 
L 145.337141 -122.389433 
L 146.133085 -124.324297 
L 146.92903 -126.274078 
L 147.724975 -127.869855 
L 148.520919 -128.741824 
L 149.316864 -128.620435 
L 150.112809 -127.420026 
L 150.908753 -125.277367 
L 151.704698 -122.521882 
L 152.500643 -119.576426 
L 153.296588 -116.819748 
L 154.092532 -114.465188 
L 154.888477 -112.507984 
L 155.684422 -110.7651 
L 156.480366 -108.991616 
L 157.276311 -107.024819 
L 158.072256 -104.893485 
L 158.8682 -102.841489 
L 159.664145 -101.251408 
L 160.46009 -100.500222 
L 161.256034 -100.809268 
L 162.051979 -102.147822 
L 162.847924 -104.220883 
L 163.643868 -106.537896 
L 164.439813 -108.537192 
L 165.235758 -109.729962 
L 166.031702 -109.819776 
L 166.827647 -108.755803 
L 167.623592 -106.705037 
L 168.419537 -103.972011 
L 169.215481 -100.918079 
L 170.011426 -97.915769 
L 170.807371 -95.334278 
L 171.603315 -93.524284 
L 172.39926 -92.77531 
L 173.195205 -93.248518 
L 173.991149 -94.912707 
L 174.787094 -97.513814 
L 175.583039 -100.595254 
L 176.378983 -103.572356 
L 177.174928 -105.852485 
L 177.970873 -106.97811 
L 178.766817 -106.753242 
L 179.562762 -105.304671 
L 180.358707 -103.042233 
L 181.154651 -100.52207 
L 181.950596 -98.267173 
L 182.746541 -96.624852 
L 183.542485 -95.714803 
L 184.33843 -95.460508 
L 185.134375 -95.657674 
L 185.93032 -96.048056 
L 186.726264 -96.395038 
L 187.522209 -96.554196 
L 188.318154 -96.510522 
L 189.114098 -96.351883 
L 189.910043 -96.184551 
L 190.705988 -96.046127 
L 191.501932 -95.879699 
L 192.297877 -95.58479 
L 193.093822 -95.10207 
L 193.889766 -94.472732 
L 194.685711 -93.842238 
L 195.481656 -93.413147 
L 196.2776 -93.36682 
L 197.073545 -93.777828 
L 197.86949 -94.552292 
L 198.665434 -95.424753 
L 199.461379 -96.02952 
L 200.257324 -96.024443 
L 201.053269 -95.215658 
L 201.849213 -93.634296 
L 202.645158 -91.543151 
L 203.441103 -89.378484 
L 204.237047 -87.646732 
L 205.032992 -86.801094 
L 205.828937 -87.125638 
L 206.624881 -88.656222 
L 207.420826 -91.163253 
L 208.216771 -94.206341 
L 209.012715 -97.248076 
L 209.80866 -99.794047 
L 210.604605 -101.518318 
L 211.400549 -102.338665 
L 212.196494 -102.418327 
L 212.992439 -102.08818 
L 213.788383 -101.708038 
L 214.584328 -101.515112 
L 215.380273 -101.523993 
L 216.176218 -101.527156 
L 216.972162 -101.198995 
L 217.768107 -100.255339 
L 218.564052 -98.597573 
L 219.359996 -96.386089 
L 220.155941 -94.019855 
L 220.951886 -92.025551 
L 221.74783 -90.883007 
L 222.543775 -90.840724 
L 223.33972 -91.794659 
L 224.135664 -93.291372 
L 224.931609 -94.667844 
L 225.727554 -95.280287 
L 226.523498 -94.736136 
L 227.319443 -93.041809 
L 228.115388 -90.608935 
L 228.911332 -88.11262 
L 229.707277 -86.253279 
L 230.503222 -85.516344 
L 231.299166 -86.025668 
L 232.095111 -87.541476 
L 232.891056 -89.588213 
L 233.687001 -91.648852 
L 234.482945 -93.347012 
L 235.27889 -94.550957 
L 236.074835 -95.365472 
L 236.870779 -96.024079 
L 237.666724 -96.741062 
L 238.462669 -97.602138 
L 239.258613 -98.545834 
L 240.054558 -99.431285 
L 240.850503 -100.142338 
L 241.646447 -100.668853 
L 242.442392 -101.127008 
L 243.238337 -101.709692 
L 244.034281 -102.585218 
L 244.830226 -103.787136 
L 245.626171 -105.151353 
L 246.422115 -106.342868 
L 247.21806 -106.9722 
L 248.014005 -106.75491 
L 248.80995 -105.64434 
L 249.605894 -103.876098 
L 250.401839 -101.895516 
L 251.197784 -100.187515 
L 251.993728 -99.078796 
L 252.789673 -98.607278 
L 253.585618 -98.527036 
L 254.381562 -98.445715 
L 255.177507 -98.020043 
L 255.973452 -97.110501 
L 256.769396 -95.827839 
L 257.565341 -94.461769 
L 258.361286 -93.33252 
L 259.15723 -92.634261 
L 259.953175 -92.341067 
L 260.74912 -92.218835 
L 261.545064 -91.938384 
L 262.341009 -91.239569 
L 263.136954 -90.075651 
L 263.932898 -88.675492 
L 264.728843 -87.490288 
L 265.524788 -87.032923 
L 266.320733 -87.663165 
L 267.116677 -89.406498 
L 267.912622 -91.895802 
L 268.708567 -94.47836 
L 269.504511 -96.45288 
L 270.300456 -97.33835 
L 271.096401 -97.064385 
L 271.892345 -96.008737 
L 272.68829 -94.865891 
L 273.484235 -94.390525 
L 274.280179 -95.109201 
L 275.076124 -97.115362 
L 275.872069 -100.035528 
L 276.668013 -103.181232 
L 277.463958 -105.819787 
L 278.259903 -107.452268 
L 279.055847 -107.993404 
L 279.851792 -107.789201 
L 280.647737 -107.466101 
L 281.443682 -107.669184 
L 282.239626 -108.796252 
L 283.035571 -110.839498 
L 283.831516 -113.395384 
L 284.62746 -115.824416 
L 285.423405 -117.483784 
L 286.21935 -117.943475 
L 287.015294 -117.1191 
L 287.811239 -115.287422 
L 288.607184 -112.983796 
L 289.403128 -110.817527 
L 290.199073 -109.275504 
L 290.995018 -108.592131 
L 291.790962 -108.729443 
L 292.586907 -109.454833 
L 293.382852 -110.463135 
L 294.178796 -111.485507 
L 294.974741 -112.351367 
L 295.770686 -112.999343 
L 296.56663 -113.452693 
L 297.362575 -113.78049 
L 298.15852 -114.061504 
L 298.954465 -114.359362 
L 299.750409 -114.711403 
L 300.546354 -115.130132 
L 301.342299 -115.611712 
L 302.138243 -116.14225 
L 302.934188 -116.696602 
L 303.730133 -117.236407 
L 304.526077 -117.721987 
L 305.322022 -118.143215 
L 306.117967 -118.551443 
L 306.913911 -119.062296 
L 307.709856 -119.815467 
L 308.505801 -120.909659 
L 309.301745 -122.3483 
L 310.09769 -124.021359 
L 310.893635 -125.725225 
L 311.689579 -127.209529 
L 312.485524 -128.241446 
L 313.281469 -128.677583 
L 314.077414 -128.522819 
L 314.873358 -127.948327 
L 315.669303 -127.251306 
L 316.465248 -126.763386 
L 317.261192 -126.737497 
L 318.057137 -127.252712 
L 318.853082 -128.173376 
L 319.649026 -129.18542 
L 320.444971 -129.907485 
L 321.240916 -130.039722 
L 322.03686 -129.485057 
L 322.832805 -128.382083 
L 323.62875 -127.035372 
L 324.424694 -125.786898 
L 325.220639 -124.894477 
L 326.016584 -124.459698 
L 326.812528 -124.41187 
L 327.608473 -124.538578 
L 328.404418 -124.556322 
L 329.200363 -124.210852 
L 329.996307 -123.376191 
L 330.792252 -122.106832 
L 331.588197 -120.616709 
L 332.384141 -119.201789 
L 333.180086 -118.150867 
L 333.976031 -117.679984 
L 334.771975 -117.897349 
L 335.56792 -118.787511 
L 336.363865 -120.208699 
L 337.159809 -121.911682 
L 337.955754 -123.588717 
L 338.751699 -124.944477 
L 339.547643 -125.766508 
L 340.343588 -125.974515 
L 341.139533 -125.637907 
L 341.935477 -124.957389 
L 342.731422 -124.20955 
L 343.527367 -123.663502 
L 344.323311 -123.496632 
L 345.119256 -123.745188 
L 345.915201 -124.309748 
L 346.711146 -125.005369 
L 347.50709 -125.627401 
L 348.303035 -126.008516 
L 349.09898 -126.056723 
L 349.894924 -125.771524 
L 350.690869 -125.235933 
L 351.486814 -124.585162 
L 352.282758 -123.96114 
L 353.078703 -123.468994 
L 353.874648 -123.15057 
L 354.670592 -122.982101 
L 355.466537 -122.894674 
L 356.262482 -122.810083 
L 357.058426 -122.679701 
L 357.854371 -122.510976 
L 358.650316 -122.369938 
L 359.44626 -122.359287 
L 360.242205 -122.581902 
L 361.03815 -123.102215 
L 361.834095 -123.915453 
L 362.630039 -124.933314 
L 363.425984 -125.992296 
L 364.221929 -126.882457 
L 365.017873 -127.384688 
L 365.813818 -127.306341 
L 366.609763 -126.516989 
L 367.405707 -124.98854 
L 368.201652 -122.827427 
L 368.997597 -120.272034 
L 369.793541 -117.641889 
L 370.589486 -115.258253 
L 371.385431 -113.373893 
L 372.181375 -112.136826 
L 372.97732 -111.587395 
L 373.773265 -111.675888 
L 374.569209 -112.291372 
L 375.365154 -113.294472 
L 376.161099 -114.540837 
L 376.957043 -115.883463 
L 377.752988 -117.159886 
L 378.548933 -118.187851 
L 379.344878 -118.788055 
L 380.140822 -118.828625 
L 380.936767 -118.268815 
L 381.732712 -117.184065 
L 382.528656 -115.767471 
L 383.324601 -114.305549 
L 384.120546 -113.124017 
L 384.91649 -112.507911 
L 385.712435 -112.618623 
L 386.50838 -113.441308 
L 387.304324 -114.78829 
L 388.100269 -116.36328 
L 388.896214 -117.869155 
L 389.692158 -119.123722 
L 390.488103 -120.136247 
L 391.284048 -121.103409 
L 392.079992 -122.315883 
L 392.875937 -124.013672 
L 393.671882 -126.258322 
L 394.467827 -128.879908 
L 395.263771 -131.513274 
L 396.059716 -133.697446 
L 396.855661 -135.002556 
L 397.651605 -135.156817 
L 398.44755 -134.143303 
L 399.243495 -132.226185 
L 400.039439 -129.877054 
L 400.835384 -127.61522 
L 401.631329 -125.825822 
L 402.427273 -124.63627 
L 403.223218 -123.901182 
L 404.019163 -123.293194 
L 404.815107 -122.456343 
L 405.611052 -121.1636 
L 406.406997 -119.422121 
L 407.202941 -117.483673 
L 407.998886 -115.750565 
L 408.794831 -114.6153 
L 409.590775 -114.305808 
L 410.38672 -114.800602 
L 411.182665 -115.836996 
L 411.97861 -116.994582 
L 412.774554 -117.818765 
L 413.570499 -117.947967 
L 413.570499 -178.75133 
L 413.570499 -178.75133 
L 412.774554 -178.406218 
L 411.97861 -177.391647 
L 411.182665 -176.076126 
L 410.38672 -174.920182 
L 409.590775 -174.342764 
L 408.794831 -174.587844 
L 407.998886 -175.650379 
L 407.202941 -177.293594 
L 406.406997 -179.146447 
L 405.611052 -180.84207 
L 404.815107 -182.150854 
L 404.019163 -183.063821 
L 403.223218 -183.790642 
L 402.427273 -184.663156 
L 401.631329 -185.978622 
L 400.835384 -187.850828 
L 400.039439 -190.133958 
L 399.243495 -192.446897 
L 398.44755 -194.284226 
L 397.651605 -195.176474 
L 396.855661 -194.851455 
L 396.059716 -193.340728 
L 395.263771 -190.98035 
L 394.467827 -188.290854 
L 393.671882 -185.781623 
L 392.875937 -183.771216 
L 392.079992 -182.306831 
L 391.284048 -181.205376 
L 390.488103 -180.175964 
L 389.692158 -178.960375 
L 388.896214 -177.440521 
L 388.100269 -175.685556 
L 387.304324 -173.930503 
L 386.50838 -172.494715 
L 385.712435 -171.667648 
L 384.91649 -171.60491 
L 384.120546 -172.274213 
L 383.324601 -173.467301 
L 382.528656 -174.866434 
L 381.732712 -176.13792 
L 380.936767 -177.020448 
L 380.140822 -177.378045 
L 379.344878 -177.200365 
L 378.548933 -176.559761 
L 377.752988 -175.560198 
L 376.957043 -174.312634 
L 376.161099 -172.942419 
L 375.365154 -171.60598 
L 374.569209 -170.492395 
L 373.773265 -169.803342 
L 372.97732 -169.718633 
L 372.181375 -170.355243 
L 371.385431 -171.727599 
L 370.589486 -173.724865 
L 369.793541 -176.123835 
L 368.997597 -178.639068 
L 368.201652 -180.98713 
L 367.405707 -182.936055 
L 366.609763 -184.33001 
L 365.813818 -185.099581 
L 365.017873 -185.266329 
L 364.221929 -184.934433 
L 363.425984 -184.260769 
L 362.630039 -183.413199 
L 361.834095 -182.539102 
L 361.03815 -181.754945 
L 360.242205 -181.147482 
L 359.44626 -180.771509 
L 358.650316 -180.640425 
L 357.854371 -180.718502 
L 357.058426 -180.925613 
L 356.262482 -181.158756 
L 355.466537 -181.326914 
L 354.670592 -181.38778 
L 353.874648 -181.368514 
L 353.078703 -181.355205 
L 352.282758 -181.449981 
L 351.486814 -181.713054 
L 350.690869 -182.117236 
L 349.894924 -182.53869 
L 349.09898 -182.793245 
L 348.303035 -182.708944 
L 347.50709 -182.207197 
L 346.711146 -181.354859 
L 345.915201 -180.357634 
L 345.119256 -179.492319 
L 344.323311 -179.006855 
L 343.527367 -179.031628 
L 342.731422 -179.533943 
L 341.935477 -180.323687 
L 341.139533 -181.102597 
L 340.343588 -181.545337 
L 339.547643 -181.39497 
L 338.751699 -180.54488 
L 337.955754 -179.076834 
L 337.159809 -177.240928 
L 336.363865 -175.388323 
L 335.56792 -173.882341 
L 334.771975 -173.010947 
L 333.976031 -172.916488 
L 333.180086 -173.55902 
L 332.384141 -174.730213 
L 331.588197 -176.120007 
L 330.792252 -177.411616 
L 329.996307 -178.366154 
L 329.200363 -178.869866 
L 328.404418 -178.943252 
L 327.608473 -178.726896 
L 326.812528 -178.4499 
L 326.016584 -178.37136 
L 325.220639 -178.693959 
L 324.424694 -179.479485 
L 323.62875 -180.612948 
L 322.832805 -181.839867 
L 322.03686 -182.857785 
L 321.240916 -183.417479 
L 320.444971 -183.398346 
L 319.649026 -182.84573 
L 318.853082 -181.967027 
L 318.057137 -181.078951 
L 317.261192 -180.50657 
L 316.465248 -180.462244 
L 315.669303 -180.955123 
L 314.873358 -181.776033 
L 314.077414 -182.568942 
L 313.281469 -182.95997 
L 312.485524 -182.691377 
L 311.689579 -181.708895 
L 310.893635 -180.169939 
L 310.09769 -178.370322 
L 309.301745 -176.622336 
L 308.505801 -175.142528 
L 307.709856 -174.00168 
L 306.913911 -173.149196 
L 306.117967 -172.479423 
L 305.322022 -171.893189 
L 304.526077 -171.32798 
L 303.730133 -170.759245 
L 302.934188 -170.188476 
L 302.138243 -169.62869 
L 301.342299 -169.09119 
L 300.546354 -168.578346 
L 299.750409 -168.087579 
L 298.954465 -167.62301 
L 298.15852 -167.200216 
L 297.362575 -166.831415 
L 296.56663 -166.496156 
L 295.770686 -166.121489 
L 294.974741 -165.597502 
L 294.178796 -164.833979 
L 293.382852 -163.834764 
L 292.586907 -162.748795 
L 291.790962 -161.862053 
L 290.995018 -161.519871 
L 290.199073 -162.001943 
L 289.403128 -163.396315 
L 288.607184 -165.521731 
L 287.811239 -167.933132 
L 287.015294 -170.022908 
L 286.21935 -171.201922 
L 285.423405 -171.106814 
L 284.62746 -169.749053 
L 283.831516 -167.528022 
L 283.035571 -165.086446 
L 282.239626 -163.063325 
L 281.443682 -161.849053 
L 280.647737 -161.442032 
L 279.851792 -161.458516 
L 279.055847 -161.289573 
L 278.259903 -160.349844 
L 277.463958 -158.328056 
L 276.668013 -155.338931 
L 275.872069 -151.90619 
L 275.076124 -148.775558 
L 274.280179 -146.632394 
L 273.484235 -145.838397 
L 272.68829 -146.289403 
L 271.892345 -147.447121 
L 271.096401 -148.535614 
L 270.300456 -148.832887 
L 269.504511 -147.945135 
L 268.708567 -145.95078 
L 267.912622 -143.355411 
L 267.116677 -140.883038 
L 266.320733 -139.196337 
L 265.524788 -138.657327 
L 264.728843 -139.214581 
L 263.932898 -140.454213 
L 263.136954 -141.79281 
L 262.341009 -142.732021 
L 261.545064 -143.062299 
L 260.74912 -142.924106 
L 259.953175 -142.704307 
L 259.15723 -142.825652 
L 258.361286 -143.53476 
L 257.565341 -144.78745 
L 256.769396 -146.278467 
L 255.973452 -147.59439 
L 255.177507 -148.413642 
L 254.381562 -148.657845 
L 253.585618 -148.524837 
L 252.789673 -148.394688 
L 251.993728 -148.66105 
L 251.197784 -149.564928 
L 250.401839 -151.093062 
L 249.605894 -152.972123 
L 248.80995 -154.759606 
L 248.014005 -156.002458 
L 247.21806 -156.404967 
L 246.422115 -155.934426 
L 245.626171 -154.816212 
L 244.830226 -153.423005 
L 244.034281 -152.112889 
L 243.238337 -151.09079 
L 242.442392 -150.35277 
L 241.646447 -149.733594 
L 240.850503 -149.028668 
L 240.054558 -148.122185 
L 239.258613 -147.048838 
L 238.462669 -145.956309 
L 237.666724 -144.996573 
L 236.870779 -144.214404 
L 236.074835 -143.496581 
L 235.27889 -142.60853 
L 234.482945 -141.305147 
L 233.687001 -139.47242 
L 232.891056 -137.237521 
L 232.095111 -134.986025 
L 231.299166 -133.258137 
L 230.503222 -132.554292 
L 229.707277 -133.130947 
L 228.911332 -134.87604 
L 228.115388 -137.317728 
L 227.319443 -139.765513 
L 226.523498 -141.535903 
L 225.727554 -142.184877 
L 224.931609 -141.661378 
L 224.135664 -140.319679 
L 223.33972 -138.783954 
L 222.543775 -137.720573 
L 221.74783 -137.608186 
L 220.951886 -138.588738 
L 220.155941 -140.446431 
L 219.359996 -142.715434 
L 218.564052 -144.871438 
L 217.768107 -146.527785 
L 216.972162 -147.553135 
L 216.176218 -148.066324 
L 215.380273 -148.327377 
L 214.584328 -148.589969 
L 213.788383 -148.982274 
L 212.992439 -149.452606 
L 212.196494 -149.785183 
L 211.400549 -149.674291 
L 210.604605 -148.835513 
L 209.80866 -147.122252 
L 209.012715 -144.608253 
L 208.216771 -141.603352 
L 207.420826 -138.592826 
L 206.624881 -136.118702 
L 205.828937 -134.639019 
L 205.032992 -134.404205 
L 204.237047 -135.383779 
L 203.441103 -137.266453 
L 202.645158 -139.540368 
L 201.849213 -141.635143 
L 201.053269 -143.081567 
L 200.257324 -143.634176 
L 199.461379 -143.316023 
L 198.665434 -142.377492 
L 197.86949 -141.19379 
L 197.073545 -140.141069 
L 196.2776 -139.487767 
L 195.481656 -139.328499 
L 194.685711 -139.579654 
L 193.889766 -140.040865 
L 193.093822 -140.497829 
L 192.297877 -140.815442 
L 191.501932 -140.974174 
L 190.705988 -141.040829 
L 189.910043 -141.105029 
L 189.114098 -141.220631 
L 188.318154 -141.371342 
L 187.522209 -141.466085 
L 186.726264 -141.375213 
L 185.93032 -141.014922 
L 185.134375 -140.449224 
L 184.33843 -139.938566 
L 183.542485 -139.876072 
L 182.746541 -140.620656 
L 181.950596 -142.311566 
L 181.154651 -144.768963 
L 180.358707 -147.528174 
L 179.562762 -149.976287 
L 178.766817 -151.526606 
L 177.970873 -151.777583 
L 177.174928 -150.620768 
L 176.378983 -148.272758 
L 175.583039 -145.219583 
L 174.787094 -142.08785 
L 173.991149 -139.486341 
L 173.195205 -137.873825 
L 172.39926 -137.491623 
L 171.603315 -138.363212 
L 170.807371 -140.332707 
L 170.011426 -143.108964 
L 169.215481 -146.302319 
L 168.419537 -149.464975 
L 167.623592 -152.149171 
L 166.827647 -153.979516 
L 166.031702 -154.72032 
L 165.235758 -154.320267 
L 164.439813 -152.927853 
L 163.643868 -150.876276 
L 162.847924 -148.631264 
L 162.051979 -146.6955 
L 161.256034 -145.484976 
L 160.46009 -145.221368 
L 159.664145 -145.888092 
L 158.8682 -147.26823 
L 158.072256 -149.043979 
L 157.276311 -150.915299 
L 156.480366 -152.695467 
L 155.684422 -154.354691 
L 154.888477 -156.000716 
L 154.092532 -157.804614 
L 153.296588 -159.899093 
L 152.500643 -162.288834 
L 151.704698 -164.809098 
L 150.908753 -167.150484 
L 150.112809 -168.943857 
L 149.316864 -169.87882 
L 148.520919 -169.814259 
L 147.724975 -168.835406 
L 146.92903 -167.227514 
L 146.133085 -165.371676 
L 145.337141 -163.607341 
L 144.541196 -162.124736 
L 143.745251 -160.932994 
L 142.949307 -159.906174 
L 142.153362 -158.870597 
L 141.357417 -157.686785 
L 140.561473 -156.297667 
L 139.765528 -154.74246 
L 138.969583 -153.147726 
L 138.173639 -151.69857 
L 137.377694 -150.586782 
L 136.581749 -149.943971 
L 135.785805 -149.782886 
L 134.98986 -149.97265 
L 134.193915 -150.262972 
L 133.39797 -150.354941 
L 132.602026 -149.995796 
L 131.806081 -149.058987 
L 131.010136 -147.572934 
L 130.214192 -145.689174 
L 129.418247 -143.618435 
L 128.622302 -141.577555 
L 127.826358 -139.763804 
L 127.030413 -138.339168 
L 126.234468 -137.408386 
L 125.438524 -137.001089 
L 124.642579 -137.078713 
L 123.846634 -137.566399 
L 123.05069 -138.387704 
L 122.254745 -139.485064 
L 121.4588 -140.827852 
L 120.662856 -142.411606 
L 119.866911 -144.239227 
L 119.070966 -146.27975 
L 118.275021 -148.430568 
L 117.479077 -150.525508 
L 116.683132 -152.397438 
L 115.887187 -153.951899 
L 115.091243 -155.19868 
L 114.295298 -156.226092 
L 113.499353 -157.144413 
L 112.703409 -158.035254 
L 111.907464 -158.924114 
L 111.111519 -159.773339 
L 110.315575 -160.49012 
L 109.51963 -160.950437 
L 108.723685 -161.041196 
L 107.927741 -160.714999 
L 107.131796 -160.037058 
L 106.335851 -159.192904 
L 105.539907 -158.435905 
L 104.743962 -157.987656 
L 103.948017 -157.938749 
L 103.152073 -158.202344 
L 102.356128 -158.541419 
L 101.560183 -158.65159 
L 100.764238 -158.268856 
L 99.968294 -157.278146 
L 99.172349 -155.791237 
L 98.376404 -154.147706 
L 97.58046 -152.810709 
L 96.784515 -152.18707 
L 95.98857 -152.456776 
L 95.192626 -153.50092 
L 94.396681 -154.956387 
L 93.600736 -156.352692 
L 92.804792 -157.264288 
L 92.008847 -157.433704 
L 91.212902 -156.83824 
L 90.416958 -155.676474 
L 89.621013 -154.271381 
L 88.825068 -152.931044 
L 88.029124 -151.837644 
L 87.233179 -151.01475 
L 86.437234 -150.366868 
L 85.641289 -149.74932 
L 84.845345 -149.036343 
L 84.0494 -148.176393 
L 83.253455 -147.220252 
L 82.457511 -146.300988 
L 81.661566 -145.568351 
L 80.865621 -145.119397 
L 80.069677 -144.978299 
L 79.273732 -145.137099 
L 78.477787 -145.608436 
L 77.681843 -146.429562 
L 76.885898 -147.610651 
L 76.089953 -149.077127 
L 75.294009 -150.654739 
L 74.498064 -152.104457 
L 73.702119 -153.183007 
L 72.906175 -153.696847 
L 72.11023 -153.537349 
L 71.314285 -152.725713 
L 70.51834 -151.478836 
L 69.722396 -150.227659 
L 68.926451 -149.520012 
L 68.130506 -149.82511 
L 67.334562 -151.315507 
L 66.538617 -153.723877 
L 65.742672 -156.380104 
L 64.946728 -158.461294 
L 64.150783 -159.334544 
L 63.354838 -158.813115 
L 62.558894 -157.218945 
L 61.762949 -155.239637 
L 60.967004 -153.648603 
L 60.17106 -153.01596 
L 59.375115 -153.530902 
L 58.57917 -154.98135 
L 57.783226 -156.867777 
L 56.987281 -158.597195 
L 56.191336 -159.684451 
L 55.395392 -159.884059 
L 54.599447 -159.213736 
L 53.803502 -157.896812 
L 53.007557 -156.276385 
L 52.211613 -154.722025 
L 51.415668 -153.529988 
L 50.619723 -152.834108 
L 49.823779 -152.560011 
L 49.027834 -152.452492 
L 48.231889 -152.179938 
L 47.435945 -151.475646 
L 46.64 -150.25048 
z
" style="stroke: #377eb8; stroke-opacity: 0.3"/>
    </defs>
    <g clip-path="url(#pcd72e1d1df)">
     <use xlink:href="#ma3a0c8f1bf" x="0" y="360" style="fill: #377eb8; fill-opacity: 0.3; stroke: #377eb8; stroke-opacity: 0.3"/>
    </g>
   </g>
   <g id="patch_3">
    <path d="M 229.866466 318.04 
L 229.866466 71.732 
L 331.747385 71.732 
L 331.747385 318.04 
z
" clip-path="url(#pcd72e1d1df)" style="fill: #808080; opacity: 0.3"/>
   </g>
   <g id="matplotlib.axis_1">
    <g id="xtick_1">
     <g id="line2d_1">
      <defs>
       <path id="m0f6a69eeff" d="M 0 0 
L 0 3.5 
" style="stroke: #000000; stroke-width: 0.8"/>
      </defs>
      <g>
       <use xlink:href="#m0f6a69eeff" x="87.233179" y="318.04" style="stroke: #000000; stroke-width: 0.8"/>
      </g>
     </g>
     <g id="text_1">
      <!-- 0.0 -->
      <g transform="translate(79.281616 332.638438)scale(0.1 -0.1)">
       <defs>
        <path id="DejaVuSans-30" d="M 2034 4250 
Q 1547 4250 1301 3770 
Q 1056 3291 1056 2328 
Q 1056 1369 1301 889 
Q 1547 409 2034 409 
Q 2525 409 2770 889 
Q 3016 1369 3016 2328 
Q 3016 3291 2770 3770 
Q 2525 4250 2034 4250 
z
M 2034 4750 
Q 2819 4750 3233 4129 
Q 3647 3509 3647 2328 
Q 3647 1150 3233 529 
Q 2819 -91 2034 -91 
Q 1250 -91 836 529 
Q 422 1150 422 2328 
Q 422 3509 836 4129 
Q 1250 4750 2034 4750 
z
" transform="scale(0.015625)"/>
        <path id="DejaVuSans-2e" d="M 684 794 
L 1344 794 
L 1344 0 
L 684 0 
L 684 794 
z
" transform="scale(0.015625)"/>
       </defs>
       <use xlink:href="#DejaVuSans-30"/>
       <use xlink:href="#DejaVuSans-2e" x="63.623047"/>
       <use xlink:href="#DejaVuSans-30" x="95.410156"/>
      </g>
     </g>
    </g>
    <g id="xtick_2">
     <g id="line2d_2">
      <g>
       <use xlink:href="#m0f6a69eeff" x="168.737914" y="318.04" style="stroke: #000000; stroke-width: 0.8"/>
      </g>
     </g>
     <g id="text_2">
      <!-- 0.2 -->
      <g transform="translate(160.786352 332.638438)scale(0.1 -0.1)">
       <defs>
        <path id="DejaVuSans-32" d="M 1228 531 
L 3431 531 
L 3431 0 
L 469 0 
L 469 531 
Q 828 903 1448 1529 
Q 2069 2156 2228 2338 
Q 2531 2678 2651 2914 
Q 2772 3150 2772 3378 
Q 2772 3750 2511 3984 
Q 2250 4219 1831 4219 
Q 1534 4219 1204 4116 
Q 875 4013 500 3803 
L 500 4441 
Q 881 4594 1212 4672 
Q 1544 4750 1819 4750 
Q 2544 4750 2975 4387 
Q 3406 4025 3406 3419 
Q 3406 3131 3298 2873 
Q 3191 2616 2906 2266 
Q 2828 2175 2409 1742 
Q 1991 1309 1228 531 
z
" transform="scale(0.015625)"/>
       </defs>
       <use xlink:href="#DejaVuSans-30"/>
       <use xlink:href="#DejaVuSans-2e" x="63.623047"/>
       <use xlink:href="#DejaVuSans-32" x="95.410156"/>
      </g>
     </g>
    </g>
    <g id="xtick_3">
     <g id="line2d_3">
      <g>
       <use xlink:href="#m0f6a69eeff" x="250.24265" y="318.04" style="stroke: #000000; stroke-width: 0.8"/>
      </g>
     </g>
     <g id="text_3">
      <!-- 0.4 -->
      <g transform="translate(242.291087 332.638438)scale(0.1 -0.1)">
       <defs>
        <path id="DejaVuSans-34" d="M 2419 4116 
L 825 1625 
L 2419 1625 
L 2419 4116 
z
M 2253 4666 
L 3047 4666 
L 3047 1625 
L 3713 1625 
L 3713 1100 
L 3047 1100 
L 3047 0 
L 2419 0 
L 2419 1100 
L 313 1100 
L 313 1709 
L 2253 4666 
z
" transform="scale(0.015625)"/>
       </defs>
       <use xlink:href="#DejaVuSans-30"/>
       <use xlink:href="#DejaVuSans-2e" x="63.623047"/>
       <use xlink:href="#DejaVuSans-34" x="95.410156"/>
      </g>
     </g>
    </g>
    <g id="xtick_4">
     <g id="line2d_4">
      <g>
       <use xlink:href="#m0f6a69eeff" x="331.747385" y="318.04" style="stroke: #000000; stroke-width: 0.8"/>
      </g>
     </g>
     <g id="text_4">
      <!-- 0.6 -->
      <g transform="translate(323.795823 332.638438)scale(0.1 -0.1)">
       <defs>
        <path id="DejaVuSans-36" d="M 2113 2584 
Q 1688 2584 1439 2293 
Q 1191 2003 1191 1497 
Q 1191 994 1439 701 
Q 1688 409 2113 409 
Q 2538 409 2786 701 
Q 3034 994 3034 1497 
Q 3034 2003 2786 2293 
Q 2538 2584 2113 2584 
z
M 3366 4563 
L 3366 3988 
Q 3128 4100 2886 4159 
Q 2644 4219 2406 4219 
Q 1781 4219 1451 3797 
Q 1122 3375 1075 2522 
Q 1259 2794 1537 2939 
Q 1816 3084 2150 3084 
Q 2853 3084 3261 2657 
Q 3669 2231 3669 1497 
Q 3669 778 3244 343 
Q 2819 -91 2113 -91 
Q 1303 -91 875 529 
Q 447 1150 447 2328 
Q 447 3434 972 4092 
Q 1497 4750 2381 4750 
Q 2619 4750 2861 4703 
Q 3103 4656 3366 4563 
z
" transform="scale(0.015625)"/>
       </defs>
       <use xlink:href="#DejaVuSans-30"/>
       <use xlink:href="#DejaVuSans-2e" x="63.623047"/>
       <use xlink:href="#DejaVuSans-36" x="95.410156"/>
      </g>
     </g>
    </g>
    <g id="xtick_5">
     <g id="line2d_5">
      <g>
       <use xlink:href="#m0f6a69eeff" x="413.252121" y="318.04" style="stroke: #000000; stroke-width: 0.8"/>
      </g>
     </g>
     <g id="text_5">
      <!-- 0.8 -->
      <g transform="translate(405.300559 332.638438)scale(0.1 -0.1)">
       <defs>
        <path id="DejaVuSans-38" d="M 2034 2216 
Q 1584 2216 1326 1975 
Q 1069 1734 1069 1313 
Q 1069 891 1326 650 
Q 1584 409 2034 409 
Q 2484 409 2743 651 
Q 3003 894 3003 1313 
Q 3003 1734 2745 1975 
Q 2488 2216 2034 2216 
z
M 1403 2484 
Q 997 2584 770 2862 
Q 544 3141 544 3541 
Q 544 4100 942 4425 
Q 1341 4750 2034 4750 
Q 2731 4750 3128 4425 
Q 3525 4100 3525 3541 
Q 3525 3141 3298 2862 
Q 3072 2584 2669 2484 
Q 3125 2378 3379 2068 
Q 3634 1759 3634 1313 
Q 3634 634 3220 271 
Q 2806 -91 2034 -91 
Q 1263 -91 848 271 
Q 434 634 434 1313 
Q 434 1759 690 2068 
Q 947 2378 1403 2484 
z
M 1172 3481 
Q 1172 3119 1398 2916 
Q 1625 2713 2034 2713 
Q 2441 2713 2670 2916 
Q 2900 3119 2900 3481 
Q 2900 3844 2670 4047 
Q 2441 4250 2034 4250 
Q 1625 4250 1398 4047 
Q 1172 3844 1172 3481 
z
" transform="scale(0.015625)"/>
       </defs>
       <use xlink:href="#DejaVuSans-30"/>
       <use xlink:href="#DejaVuSans-2e" x="63.623047"/>
       <use xlink:href="#DejaVuSans-38" x="95.410156"/>
      </g>
     </g>
    </g>
    <g id="text_6">
     <!-- seconds -->
     <g transform="translate(209.667749 346.316563)scale(0.1 -0.1)">
      <defs>
       <path id="DejaVuSans-73" d="M 2834 3397 
L 2834 2853 
Q 2591 2978 2328 3040 
Q 2066 3103 1784 3103 
Q 1356 3103 1142 2972 
Q 928 2841 928 2578 
Q 928 2378 1081 2264 
Q 1234 2150 1697 2047 
L 1894 2003 
Q 2506 1872 2764 1633 
Q 3022 1394 3022 966 
Q 3022 478 2636 193 
Q 2250 -91 1575 -91 
Q 1294 -91 989 -36 
Q 684 19 347 128 
L 347 722 
Q 666 556 975 473 
Q 1284 391 1588 391 
Q 1994 391 2212 530 
Q 2431 669 2431 922 
Q 2431 1156 2273 1281 
Q 2116 1406 1581 1522 
L 1381 1569 
Q 847 1681 609 1914 
Q 372 2147 372 2553 
Q 372 3047 722 3315 
Q 1072 3584 1716 3584 
Q 2034 3584 2315 3537 
Q 2597 3491 2834 3397 
z
" transform="scale(0.015625)"/>
       <path id="DejaVuSans-65" d="M 3597 1894 
L 3597 1613 
L 953 1613 
Q 991 1019 1311 708 
Q 1631 397 2203 397 
Q 2534 397 2845 478 
Q 3156 559 3463 722 
L 3463 178 
Q 3153 47 2828 -22 
Q 2503 -91 2169 -91 
Q 1331 -91 842 396 
Q 353 884 353 1716 
Q 353 2575 817 3079 
Q 1281 3584 2069 3584 
Q 2775 3584 3186 3129 
Q 3597 2675 3597 1894 
z
M 3022 2063 
Q 3016 2534 2758 2815 
Q 2500 3097 2075 3097 
Q 1594 3097 1305 2825 
Q 1016 2553 972 2059 
L 3022 2063 
z
" transform="scale(0.015625)"/>
       <path id="DejaVuSans-63" d="M 3122 3366 
L 3122 2828 
Q 2878 2963 2633 3030 
Q 2388 3097 2138 3097 
Q 1578 3097 1268 2742 
Q 959 2388 959 1747 
Q 959 1106 1268 751 
Q 1578 397 2138 397 
Q 2388 397 2633 464 
Q 2878 531 3122 666 
L 3122 134 
Q 2881 22 2623 -34 
Q 2366 -91 2075 -91 
Q 1284 -91 818 406 
Q 353 903 353 1747 
Q 353 2603 823 3093 
Q 1294 3584 2113 3584 
Q 2378 3584 2631 3529 
Q 2884 3475 3122 3366 
z
" transform="scale(0.015625)"/>
       <path id="DejaVuSans-6f" d="M 1959 3097 
Q 1497 3097 1228 2736 
Q 959 2375 959 1747 
Q 959 1119 1226 758 
Q 1494 397 1959 397 
Q 2419 397 2687 759 
Q 2956 1122 2956 1747 
Q 2956 2369 2687 2733 
Q 2419 3097 1959 3097 
z
M 1959 3584 
Q 2709 3584 3137 3096 
Q 3566 2609 3566 1747 
Q 3566 888 3137 398 
Q 2709 -91 1959 -91 
Q 1206 -91 779 398 
Q 353 888 353 1747 
Q 353 2609 779 3096 
Q 1206 3584 1959 3584 
z
" transform="scale(0.015625)"/>
       <path id="DejaVuSans-6e" d="M 3513 2113 
L 3513 0 
L 2938 0 
L 2938 2094 
Q 2938 2591 2744 2837 
Q 2550 3084 2163 3084 
Q 1697 3084 1428 2787 
Q 1159 2491 1159 1978 
L 1159 0 
L 581 0 
L 581 3500 
L 1159 3500 
L 1159 2956 
Q 1366 3272 1645 3428 
Q 1925 3584 2291 3584 
Q 2894 3584 3203 3211 
Q 3513 2838 3513 2113 
z
" transform="scale(0.015625)"/>
       <path id="DejaVuSans-64" d="M 2906 2969 
L 2906 4863 
L 3481 4863 
L 3481 0 
L 2906 0 
L 2906 525 
Q 2725 213 2448 61 
Q 2172 -91 1784 -91 
Q 1150 -91 751 415 
Q 353 922 353 1747 
Q 353 2572 751 3078 
Q 1150 3584 1784 3584 
Q 2172 3584 2448 3432 
Q 2725 3281 2906 2969 
z
M 947 1747 
Q 947 1113 1208 752 
Q 1469 391 1925 391 
Q 2381 391 2643 752 
Q 2906 1113 2906 1747 
Q 2906 2381 2643 2742 
Q 2381 3103 1925 3103 
Q 1469 3103 1208 2742 
Q 947 2381 947 1747 
z
" transform="scale(0.015625)"/>
      </defs>
      <use xlink:href="#DejaVuSans-73"/>
      <use xlink:href="#DejaVuSans-65" x="52.099609"/>
      <use xlink:href="#DejaVuSans-63" x="113.623047"/>
      <use xlink:href="#DejaVuSans-6f" x="168.603516"/>
      <use xlink:href="#DejaVuSans-6e" x="229.785156"/>
      <use xlink:href="#DejaVuSans-64" x="293.164062"/>
      <use xlink:href="#DejaVuSans-73" x="356.640625"/>
     </g>
    </g>
   </g>
   <g id="matplotlib.axis_2">
    <g id="ytick_1">
     <g id="line2d_6">
      <defs>
       <path id="mf7fe06c23b" d="M 0 0 
L -3.5 0 
" style="stroke: #000000; stroke-width: 0.8"/>
      </defs>
      <g>
       <use xlink:href="#mf7fe06c23b" x="46.64" y="268.870368" style="stroke: #000000; stroke-width: 0.8"/>
      </g>
     </g>
     <g id="text_7">
      <!-- 1 -->
      <g transform="translate(24.897813 272.669587)scale(0.1 -0.1)">
       <defs>
        <path id="DejaVuSans-2212" d="M 678 2272 
L 4684 2272 
L 4684 1741 
L 678 1741 
L 678 2272 
z
" transform="scale(0.015625)"/>
        <path id="DejaVuSans-31" d="M 794 531 
L 1825 531 
L 1825 4091 
L 703 3866 
L 703 4441 
L 1819 4666 
L 2450 4666 
L 2450 531 
L 3481 531 
L 3481 0 
L 794 0 
L 794 531 
z
" transform="scale(0.015625)"/>
       </defs>
       <use xlink:href="#DejaVuSans-2212"/>
       <use xlink:href="#DejaVuSans-31" x="83.789062"/>
      </g>
     </g>
    </g>
    <g id="ytick_2">
     <g id="line2d_7">
      <g>
       <use xlink:href="#mf7fe06c23b" x="46.64" y="219.695827" style="stroke: #000000; stroke-width: 0.8"/>
      </g>
     </g>
     <g id="text_8">
      <!-- 0 -->
      <g transform="translate(33.2775 223.495045)scale(0.1 -0.1)">
       <use xlink:href="#DejaVuSans-30"/>
      </g>
     </g>
    </g>
    <g id="ytick_3">
     <g id="line2d_8">
      <g>
       <use xlink:href="#mf7fe06c23b" x="46.64" y="170.521285" style="stroke: #000000; stroke-width: 0.8"/>
      </g>
     </g>
     <g id="text_9">
      <!-- 1 -->
      <g transform="translate(33.2775 174.320504)scale(0.1 -0.1)">
       <use xlink:href="#DejaVuSans-31"/>
      </g>
     </g>
    </g>
    <g id="ytick_4">
     <g id="line2d_9">
      <g>
       <use xlink:href="#mf7fe06c23b" x="46.64" y="121.346743" style="stroke: #000000; stroke-width: 0.8"/>
      </g>
     </g>
     <g id="text_10">
      <!-- 2 -->
      <g transform="translate(33.2775 125.145962)scale(0.1 -0.1)">
       <use xlink:href="#DejaVuSans-32"/>
      </g>
     </g>
    </g>
    <g id="ytick_5">
     <g id="line2d_10">
      <g>
       <use xlink:href="#mf7fe06c23b" x="46.64" y="72.172202" style="stroke: #000000; stroke-width: 0.8"/>
      </g>
     </g>
     <g id="text_11">
      <!-- 3 -->
      <g transform="translate(33.2775 75.971421)scale(0.1 -0.1)">
       <defs>
        <path id="DejaVuSans-33" d="M 2597 2516 
Q 3050 2419 3304 2112 
Q 3559 1806 3559 1356 
Q 3559 666 3084 287 
Q 2609 -91 1734 -91 
Q 1441 -91 1130 -33 
Q 819 25 488 141 
L 488 750 
Q 750 597 1062 519 
Q 1375 441 1716 441 
Q 2309 441 2620 675 
Q 2931 909 2931 1356 
Q 2931 1769 2642 2001 
Q 2353 2234 1838 2234 
L 1294 2234 
L 1294 2753 
L 1863 2753 
Q 2328 2753 2575 2939 
Q 2822 3125 2822 3475 
Q 2822 3834 2567 4026 
Q 2313 4219 1838 4219 
Q 1578 4219 1281 4162 
Q 984 4106 628 3988 
L 628 4550 
Q 988 4650 1302 4700 
Q 1616 4750 1894 4750 
Q 2613 4750 3031 4423 
Q 3450 4097 3450 3541 
Q 3450 3153 3228 2886 
Q 3006 2619 2597 2516 
z
" transform="scale(0.015625)"/>
       </defs>
       <use xlink:href="#DejaVuSans-33"/>
      </g>
     </g>
    </g>
    <g id="text_12">
     <!-- V -->
     <g transform="translate(18.818125 201.487562)rotate(-90)scale(0.1 -0.1)">
      <defs>
       <path id="DejaVuSans-b5" d="M 544 -1331 
L 544 3500 
L 1119 3500 
L 1119 1325 
Q 1119 872 1334 640 
Q 1550 409 1972 409 
Q 2434 409 2667 671 
Q 2900 934 2900 1459 
L 2900 3500 
L 3475 3500 
L 3475 806 
Q 3475 619 3529 530 
Q 3584 441 3700 441 
Q 3728 441 3778 458 
Q 3828 475 3916 513 
L 3916 50 
Q 3788 -22 3673 -56 
Q 3559 -91 3450 -91 
Q 3234 -91 3106 31 
Q 2978 153 2931 403 
Q 2775 156 2548 32 
Q 2322 -91 2016 -91 
Q 1697 -91 1473 31 
Q 1250 153 1119 397 
L 1119 -1331 
L 544 -1331 
z
" transform="scale(0.015625)"/>
       <path id="DejaVuSans-56" d="M 1831 0 
L 50 4666 
L 709 4666 
L 2188 738 
L 3669 4666 
L 4325 4666 
L 2547 0 
L 1831 0 
z
" transform="scale(0.015625)"/>
      </defs>
      <use xlink:href="#DejaVuSans-b5"/>
      <use xlink:href="#DejaVuSans-56" x="63.623047"/>
     </g>
    </g>
   </g>
   <g id="line2d_11">
    <path d="M 46.64 203.339176 
L 47.435945 204.402646 
L 48.231889 207.959729 
L 49.823779 218.888317 
L 50.619723 224.326317 
L 51.415668 228.870648 
L 52.211613 232.315057 
L 53.007557 234.73957 
L 53.803502 236.35222 
L 54.599447 237.328991 
L 55.395392 237.712528 
L 56.191336 237.397897 
L 56.987281 236.197475 
L 57.783226 233.950784 
L 58.57917 230.634795 
L 60.17106 221.754885 
L 60.967004 217.156988 
L 61.762949 213.259026 
L 62.558894 210.607245 
L 63.354838 209.561988 
L 64.150783 210.219417 
L 64.946728 212.385949 
L 66.538617 219.272688 
L 67.334562 222.699055 
L 68.130506 225.302755 
L 68.926451 226.696738 
L 69.722396 226.763337 
L 70.51834 225.656809 
L 71.314285 223.736224 
L 73.702119 217.13951 
L 76.885898 209.791147 
L 78.477787 205.667962 
L 79.273732 204.544498 
L 80.069677 204.815593 
L 80.865621 206.83747 
L 81.661566 210.540365 
L 83.253455 220.250559 
L 84.0494 224.091012 
L 84.845345 225.887219 
L 85.641289 225.184879 
L 86.437234 222.254966 
L 88.029124 214.069158 
L 88.825068 211.704808 
L 89.621013 212.028567 
L 90.416958 215.338771 
L 91.212902 221.080159 
L 92.804792 234.567599 
L 93.600736 239.356552 
L 94.396681 241.522582 
L 95.192626 240.963206 
L 95.98857 238.279004 
L 97.58046 230.796416 
L 98.376404 227.995191 
L 99.172349 226.533996 
L 99.968294 226.37934 
L 100.764238 227.191693 
L 102.356128 230.115317 
L 104.743962 235.242443 
L 106.335851 238.538964 
L 107.131796 239.491872 
L 107.927741 239.584822 
L 108.723685 238.713825 
L 109.51963 237.033914 
L 111.111519 232.824765 
L 111.907464 231.082423 
L 114.295298 227.275346 
L 115.091243 225.247988 
L 115.887187 222.349476 
L 118.275021 211.269265 
L 119.070966 208.587934 
L 119.866911 206.998464 
L 120.662856 206.340901 
L 122.254745 205.933699 
L 123.05069 205.298967 
L 125.438524 202.289939 
L 126.234468 202.326562 
L 127.030413 203.31183 
L 129.418247 208.529758 
L 130.214192 209.634537 
L 131.010136 210.469796 
L 131.806081 211.703475 
L 132.602026 214.176601 
L 133.39797 218.521047 
L 134.193915 224.808175 
L 135.785805 240.00462 
L 136.581749 246.174924 
L 137.377694 249.681769 
L 138.173639 250.007327 
L 138.969583 247.524414 
L 140.561473 239.025 
L 141.357417 235.815039 
L 142.153362 234.436662 
L 142.949307 234.777689 
L 144.541196 237.129559 
L 145.337141 237.135542 
L 146.133085 235.723584 
L 147.724975 230.69127 
L 148.520919 229.075638 
L 149.316864 229.221344 
L 150.112809 231.321805 
L 152.500643 242.309286 
L 153.296588 244.18891 
L 154.092532 244.226453 
L 154.888477 242.65362 
L 158.072256 232.3517 
L 159.664145 228.164226 
L 162.051979 220.861831 
L 162.847924 219.319254 
L 163.643868 219.043557 
L 164.439813 220.205953 
L 165.235758 222.567128 
L 166.827647 228.414086 
L 167.623592 230.604424 
L 168.419537 231.891846 
L 169.215481 232.482852 
L 170.011426 232.909422 
L 170.807371 233.798371 
L 171.603315 235.612008 
L 172.39926 238.468722 
L 175.583039 252.7878 
L 176.378983 255.134044 
L 177.174928 256.89223 
L 177.970873 258.259526 
L 178.766817 259.313815 
L 179.562762 259.891989 
L 180.358707 259.603778 
L 181.154651 257.988474 
L 181.950596 254.753391 
L 182.746541 249.988015 
L 184.33843 238.463453 
L 185.134375 233.664309 
L 185.93032 230.664733 
L 186.726264 229.786328 
L 187.522209 230.756768 
L 189.114098 234.999675 
L 189.910043 236.473156 
L 190.705988 236.820188 
L 191.501932 236.14633 
L 192.297877 234.982539 
L 193.093822 234.02698 
L 193.889766 233.83179 
L 194.685711 234.558856 
L 196.2776 237.17418 
L 197.073545 237.594881 
L 197.86949 236.54181 
L 198.665434 233.795854 
L 199.461379 229.617449 
L 201.053269 219.771128 
L 201.849213 215.724418 
L 202.645158 213.030349 
L 203.441103 211.821494 
L 204.237047 211.867773 
L 205.032992 212.68702 
L 205.828937 213.705771 
L 206.624881 214.417862 
L 207.420826 214.500062 
L 208.216771 213.864567 
L 209.012715 212.648037 
L 210.604605 209.743792 
L 211.400549 208.772366 
L 212.196494 208.468287 
L 212.992439 208.901317 
L 213.788383 209.976634 
L 215.380273 213.168565 
L 217.768107 217.945252 
L 219.359996 221.289557 
L 220.951886 225.071712 
L 221.74783 226.58906 
L 222.543775 227.355738 
L 223.33972 227.0541 
L 224.135664 225.563594 
L 224.931609 223.019952 
L 228.115388 210.148952 
L 229.707277 205.470686 
L 231.299166 200.71407 
L 235.27889 186.689409 
L 236.074835 184.684143 
L 236.870779 183.064389 
L 237.666724 181.80292 
L 238.462669 180.932178 
L 239.258613 180.552172 
L 240.054558 180.770834 
L 240.850503 181.599728 
L 242.442392 184.144344 
L 243.238337 184.903833 
L 244.034281 184.586221 
L 244.830226 182.833519 
L 245.626171 179.6286 
L 248.014005 166.356798 
L 248.80995 163.181275 
L 249.605894 161.57008 
L 250.401839 161.620764 
L 251.197784 163.111946 
L 251.993728 165.619029 
L 254.381562 174.66821 
L 255.177507 177.019406 
L 255.973452 178.582746 
L 256.769396 179.084658 
L 257.565341 178.257322 
L 258.361286 175.917338 
L 259.15723 172.074352 
L 260.74912 161.337172 
L 261.545064 155.833805 
L 262.341009 151.359239 
L 263.136954 148.598755 
L 263.932898 147.880074 
L 264.728843 149.063654 
L 265.524788 151.553806 
L 266.320733 154.434309 
L 267.116677 156.696914 
L 267.912622 157.504792 
L 268.708567 156.421688 
L 269.504511 153.543864 
L 271.096401 145.277667 
L 271.892345 142.011777 
L 272.68829 140.623479 
L 273.484235 141.570456 
L 274.280179 144.688511 
L 276.668013 157.88756 
L 277.463958 160.003691 
L 278.259903 160.138802 
L 279.055847 158.777918 
L 279.851792 156.953454 
L 280.647737 155.887838 
L 281.443682 156.554426 
L 282.239626 159.313131 
L 283.035571 163.759819 
L 284.62746 173.285078 
L 285.423405 175.942531 
L 286.21935 176.314807 
L 287.015294 174.660469 
L 288.607184 169.16967 
L 289.403128 167.50308 
L 290.199073 167.298055 
L 290.995018 168.2519 
L 291.790962 169.50097 
L 292.586907 170.002993 
L 293.382852 168.985311 
L 294.178796 166.272672 
L 296.56663 154.890354 
L 297.362575 153.08587 
L 298.15852 152.927382 
L 298.954465 153.942702 
L 299.750409 155.312166 
L 300.546354 156.247625 
L 301.342299 156.335049 
L 302.138243 155.690655 
L 302.934188 154.867203 
L 303.730133 154.561889 
L 304.526077 155.266226 
L 305.322022 157.021631 
L 306.913911 161.676239 
L 307.709856 163.232304 
L 308.505801 163.811213 
L 310.09769 163.60974 
L 310.893635 164.416185 
L 311.689579 166.750636 
L 312.485524 170.740064 
L 314.873358 186.566536 
L 315.669303 190.507627 
L 316.465248 193.238447 
L 321.240916 204.333524 
L 322.03686 204.476391 
L 322.832805 203.194119 
L 324.424694 198.662809 
L 325.220639 197.498632 
L 326.016584 198.253688 
L 326.812528 201.023824 
L 328.404418 208.879884 
L 329.200363 210.906735 
L 329.996307 209.900827 
L 330.792252 205.521703 
L 331.588197 198.494764 
L 333.180086 183.260177 
L 333.976031 178.731652 
L 334.771975 177.756085 
L 335.56792 180.222454 
L 336.363865 185.092715 
L 337.955754 195.819882 
L 338.751699 199.082231 
L 339.547643 200.287794 
L 340.343588 199.844549 
L 341.935477 197.486623 
L 342.731422 197.132514 
L 343.527367 197.726162 
L 345.915201 201.453587 
L 346.711146 201.686042 
L 347.50709 201.037525 
L 348.303035 199.665464 
L 349.894924 195.835018 
L 351.486814 191.445892 
L 352.282758 188.840956 
L 353.078703 185.771044 
L 355.466537 175.040871 
L 356.262482 172.387969 
L 357.058426 171.132527 
L 357.854371 171.682959 
L 358.650316 174.181481 
L 359.44626 178.467719 
L 361.03815 190.551692 
L 362.630039 203.391006 
L 363.425984 208.910102 
L 364.221929 213.529456 
L 365.017873 217.21482 
L 365.813818 220.005224 
L 366.609763 221.939345 
L 367.405707 223.008642 
L 368.201652 223.152193 
L 368.997597 222.289602 
L 369.793541 220.372762 
L 370.589486 217.430994 
L 371.385431 213.589574 
L 372.97732 204.072434 
L 376.161099 183.605765 
L 377.752988 174.641229 
L 378.548933 170.880503 
L 379.344878 167.848904 
L 380.140822 165.736138 
L 380.936767 164.672595 
L 381.732712 164.682229 
L 382.528656 165.658939 
L 383.324601 167.373321 
L 385.712435 173.618438 
L 386.50838 174.980344 
L 387.304324 175.606847 
L 388.100269 175.429829 
L 388.896214 174.49672 
L 389.692158 172.961576 
L 392.079992 167.38067 
L 392.875937 166.186532 
L 393.671882 165.738683 
L 394.467827 166.170315 
L 395.263771 167.5182 
L 396.059716 169.725578 
L 396.855661 172.653715 
L 398.44755 179.818338 
L 400.039439 187.081906 
L 401.631329 192.963357 
L 403.223218 197.395977 
L 405.611052 203.236948 
L 406.406997 204.785069 
L 407.202941 205.597422 
L 407.998886 205.239142 
L 408.794831 203.406252 
L 409.590775 200.085983 
L 411.97861 186.384679 
L 412.774554 183.234216 
L 413.570499 181.78889 
L 413.570499 181.78889 
" clip-path="url(#pcd72e1d1df)" style="fill: none; stroke: #e41a1c; stroke-width: 1.5; stroke-linecap: square"/>
   </g>
   <g id="line2d_12">
    <path d="M 46.64 223.872369 
L 47.435945 222.411808 
L 48.231889 221.437319 
L 49.027834 220.877782 
L 50.619723 220.025187 
L 51.415668 219.164393 
L 52.211613 217.802884 
L 54.599447 212.614944 
L 55.395392 211.827671 
L 56.191336 212.047586 
L 56.987281 213.23786 
L 58.57917 216.910952 
L 59.375115 218.206771 
L 60.17106 218.489304 
L 60.967004 217.64408 
L 61.762949 215.947013 
L 62.558894 213.985271 
L 63.354838 212.463524 
L 64.150783 211.961772 
L 64.946728 212.732489 
L 65.742672 214.612211 
L 67.334562 219.443275 
L 68.130506 221.074322 
L 68.926451 221.621934 
L 69.722396 221.111096 
L 72.11023 217.635995 
L 72.906175 217.469406 
L 73.702119 218.151318 
L 74.498064 219.510681 
L 76.885898 224.45727 
L 77.681843 225.607905 
L 78.477787 226.406083 
L 79.273732 226.901206 
L 80.069677 227.136909 
L 80.865621 227.123882 
L 81.661566 226.853046 
L 82.457511 226.333255 
L 85.641289 223.485288 
L 88.029124 221.966975 
L 88.825068 221.157677 
L 91.212902 218.095233 
L 92.008847 217.690864 
L 92.804792 217.99962 
L 93.600736 219.02993 
L 95.98857 223.442005 
L 96.784515 223.989412 
L 97.58046 223.688714 
L 98.376404 222.668552 
L 99.968294 219.905882 
L 100.764238 218.941126 
L 101.560183 218.545495 
L 102.356128 218.66648 
L 103.948017 219.447047 
L 104.743962 219.539138 
L 105.539907 219.232624 
L 107.131796 217.814295 
L 107.927741 217.160514 
L 108.723685 216.844318 
L 109.51963 216.972104 
L 110.315575 217.522718 
L 111.907464 219.387123 
L 115.091243 223.598142 
L 115.887187 224.910815 
L 116.683132 226.472016 
L 118.275021 230.268611 
L 120.662856 236.219809 
L 122.254745 239.29151 
L 123.05069 240.432953 
L 123.846634 241.277272 
L 124.642579 241.779198 
L 125.438524 241.875912 
L 126.234468 241.50398 
L 127.030413 240.627683 
L 127.826358 239.268498 
L 129.418247 235.567617 
L 131.010136 231.931096 
L 131.806081 230.679145 
L 132.602026 229.970947 
L 133.39797 229.787311 
L 134.193915 229.986171 
L 135.785805 230.560199 
L 136.581749 230.434251 
L 137.377694 229.821254 
L 138.173639 228.720432 
L 141.357417 222.784302 
L 142.949307 220.772679 
L 143.745251 219.790014 
L 144.541196 218.566849 
L 145.337141 217.001613 
L 147.724975 211.64737 
L 148.520919 210.721958 
L 149.316864 210.750373 
L 150.112809 211.818059 
L 150.908753 213.786075 
L 154.092532 223.865099 
L 155.684422 227.440105 
L 157.276311 231.029941 
L 158.8682 234.945141 
L 159.664145 236.43025 
L 160.46009 237.139205 
L 161.256034 236.852878 
L 162.051979 235.578339 
L 164.439813 229.267478 
L 165.235758 227.974886 
L 166.031702 227.729952 
L 166.827647 228.632341 
L 167.623592 230.572896 
L 168.419537 233.281507 
L 170.807371 242.166508 
L 171.603315 244.056252 
L 172.39926 244.866533 
L 173.195205 244.438828 
L 173.991149 242.800476 
L 174.787094 240.199168 
L 176.378983 234.077443 
L 177.174928 231.763373 
L 177.970873 230.622153 
L 178.766817 230.860076 
L 179.562762 232.359521 
L 181.950596 239.710631 
L 182.746541 241.377246 
L 183.542485 242.204563 
L 184.33843 242.300463 
L 185.134375 241.946551 
L 186.726264 241.114875 
L 187.522209 240.98986 
L 189.114098 241.213743 
L 192.297877 241.799884 
L 193.093822 242.20005 
L 194.685711 243.289054 
L 195.481656 243.629177 
L 196.2776 243.572706 
L 197.073545 243.040551 
L 199.461379 240.327228 
L 200.257324 240.170691 
L 201.053269 240.851388 
L 201.849213 242.36528 
L 204.237047 248.484745 
L 205.032992 249.39735 
L 205.828937 249.117672 
L 206.624881 247.612538 
L 207.420826 245.12196 
L 209.012715 239.071836 
L 209.80866 236.54185 
L 210.604605 234.823084 
L 211.400549 233.993522 
L 212.196494 233.898245 
L 214.584328 234.94746 
L 216.176218 235.20326 
L 216.972162 235.623935 
L 217.768107 236.608438 
L 218.564052 238.265495 
L 220.951886 244.692855 
L 221.74783 245.754403 
L 222.543775 245.719352 
L 223.33972 244.710693 
L 224.931609 241.835389 
L 225.727554 241.267418 
L 226.523498 241.86398 
L 227.319443 243.596339 
L 228.911332 248.50567 
L 229.707277 250.307887 
L 230.503222 250.964682 
L 231.299166 250.358097 
L 232.095111 248.736249 
L 233.687001 244.439364 
L 234.482945 242.673921 
L 235.27889 241.420256 
L 236.074835 240.568973 
L 237.666724 239.131182 
L 239.258613 237.202664 
L 240.850503 235.414497 
L 243.238337 233.599759 
L 244.034281 232.650947 
L 246.422115 228.861353 
L 247.21806 228.311416 
L 248.014005 228.621316 
L 248.80995 229.798027 
L 251.197784 235.123779 
L 251.993728 236.130077 
L 252.789673 236.499017 
L 254.381562 236.44822 
L 255.177507 236.783158 
L 255.973452 237.647554 
L 258.361286 241.56636 
L 259.15723 242.270044 
L 259.953175 242.477313 
L 260.74912 242.428529 
L 261.545064 242.499658 
L 262.341009 243.014205 
L 263.136954 244.065769 
L 264.728843 246.647565 
L 265.524788 247.154875 
L 266.320733 246.570249 
L 267.116677 244.855232 
L 268.708567 239.78543 
L 269.504511 237.800993 
L 270.300456 236.914382 
L 271.096401 237.200001 
L 272.68829 239.422353 
L 273.484235 239.885539 
L 274.280179 239.129202 
L 275.076124 237.05454 
L 277.463958 227.926079 
L 278.259903 226.098944 
L 279.055847 225.358511 
L 279.851792 225.376142 
L 280.647737 225.545934 
L 281.443682 225.240882 
L 282.239626 224.070212 
L 283.035571 222.037028 
L 284.62746 217.213265 
L 285.423405 215.704701 
L 286.21935 215.427301 
L 287.015294 216.428996 
L 287.811239 218.389723 
L 289.403128 222.893079 
L 290.199073 224.361277 
L 290.995018 224.943999 
L 291.790962 224.704252 
L 292.586907 223.898186 
L 294.178796 221.840257 
L 294.974741 221.025566 
L 295.770686 220.439584 
L 297.362575 219.694048 
L 299.750409 218.600509 
L 302.138243 217.11453 
L 305.322022 214.981798 
L 306.913911 213.894254 
L 307.709856 213.091426 
L 308.505801 211.973906 
L 309.301745 210.514682 
L 311.689579 205.540788 
L 312.485524 204.533588 
L 313.281469 204.181223 
L 314.077414 204.454119 
L 316.465248 206.387185 
L 317.261192 206.377966 
L 318.057137 205.834169 
L 319.649026 203.984425 
L 320.444971 203.347084 
L 321.240916 203.271399 
L 322.03686 203.828579 
L 322.832805 204.889025 
L 324.424694 207.366808 
L 325.220639 208.205782 
L 326.016584 208.584471 
L 326.812528 208.569115 
L 328.404418 208.250213 
L 329.200363 208.459641 
L 329.996307 209.128828 
L 330.792252 210.240776 
L 332.384141 213.033999 
L 333.180086 214.145057 
L 333.976031 214.701764 
L 334.771975 214.545852 
L 335.56792 213.665074 
L 336.363865 212.201489 
L 337.955754 208.667224 
L 338.751699 207.255322 
L 339.547643 206.419261 
L 340.343588 206.240074 
L 341.139533 206.629748 
L 342.731422 208.128253 
L 343.527367 208.652435 
L 344.323311 208.748256 
L 345.119256 208.381247 
L 346.711146 206.819886 
L 347.50709 206.082701 
L 348.303035 205.64127 
L 349.09898 205.575016 
L 349.894924 205.844893 
L 352.282758 207.29444 
L 353.078703 207.587901 
L 354.670592 207.815059 
L 356.262482 208.015581 
L 358.650316 208.494818 
L 359.44626 208.434602 
L 360.242205 208.135308 
L 361.03815 207.57142 
L 362.630039 205.826744 
L 364.221929 204.091555 
L 365.017873 203.674491 
L 365.813818 203.797039 
L 366.609763 204.5765 
L 367.405707 206.037702 
L 368.201652 208.092721 
L 370.589486 215.508441 
L 371.385431 217.449254 
L 372.181375 218.753966 
L 372.97732 219.346986 
L 373.773265 219.260385 
L 374.569209 218.608116 
L 375.365154 217.549774 
L 377.752988 213.639958 
L 378.548933 212.626194 
L 379.344878 212.00579 
L 380.140822 211.896665 
L 380.936767 212.355369 
L 381.732712 213.339008 
L 384.120546 217.300885 
L 384.91649 217.94359 
L 385.712435 217.856865 
L 386.50838 217.031989 
L 387.304324 215.640603 
L 388.896214 212.345162 
L 389.692158 210.957952 
L 392.079992 207.688643 
L 392.875937 206.107556 
L 393.671882 203.980028 
L 396.059716 196.480913 
L 396.855661 195.072994 
L 397.651605 194.833354 
L 398.44755 195.786235 
L 399.243495 197.663459 
L 400.835384 202.266976 
L 401.631329 204.097778 
L 402.427273 205.350287 
L 404.815107 207.696401 
L 405.611052 208.997165 
L 407.998886 214.299528 
L 408.794831 215.398428 
L 409.590775 215.675714 
L 410.38672 215.139608 
L 412.774554 211.887508 
L 413.570499 211.650352 
L 413.570499 211.650352 
" clip-path="url(#pcd72e1d1df)" style="fill: none; stroke: #377eb8; stroke-width: 1.5; stroke-linecap: square"/>
   </g>
   <g id="line2d_13">
    <path d="M 87.233179 318.04 
L 87.233179 71.732 
" clip-path="url(#pcd72e1d1df)" style="fill: none; stroke: #000000; stroke-width: 0.5; stroke-linecap: square"/>
   </g>
   <g id="line2d_14">
    <path d="M 46.64 219.695827 
L 413.570499 219.695827 
" clip-path="url(#pcd72e1d1df)" style="fill: none; stroke: #000000; stroke-width: 0.5; stroke-linecap: square"/>
   </g>
   <g id="patch_4">
    <path d="M 46.64 318.04 
L 46.64 71.732 
" style="fill: none; stroke: #000000; stroke-width: 0.8; stroke-linejoin: miter; stroke-linecap: square"/>
   </g>
   <g id="patch_5">
    <path d="M 413.570499 318.04 
L 413.570499 71.732 
" style="fill: none; stroke: #000000; stroke-width: 0.8; stroke-linejoin: miter; stroke-linecap: square"/>
   </g>
   <g id="patch_6">
    <path d="M 46.64 318.04 
L 413.570499 318.04 
" style="fill: none; stroke: #000000; stroke-width: 0.8; stroke-linejoin: miter; stroke-linecap: square"/>
   </g>
   <g id="patch_7">
    <path d="M 46.64 71.732 
L 413.570499 71.732 
" style="fill: none; stroke: #000000; stroke-width: 0.8; stroke-linejoin: miter; stroke-linecap: square"/>
   </g>
   <g id="text_13">
    <!-- Cz -->
    <g transform="translate(222.766499 65.732)scale(0.12 -0.12)">
     <defs>
      <path id="DejaVuSans-43" d="M 4122 4306 
L 4122 3641 
Q 3803 3938 3442 4084 
Q 3081 4231 2675 4231 
Q 1875 4231 1450 3742 
Q 1025 3253 1025 2328 
Q 1025 1406 1450 917 
Q 1875 428 2675 428 
Q 3081 428 3442 575 
Q 3803 722 4122 1019 
L 4122 359 
Q 3791 134 3420 21 
Q 3050 -91 2638 -91 
Q 1578 -91 968 557 
Q 359 1206 359 2328 
Q 359 3453 968 4101 
Q 1578 4750 2638 4750 
Q 3056 4750 3426 4639 
Q 3797 4528 4122 4306 
z
" transform="scale(0.015625)"/>
      <path id="DejaVuSans-7a" d="M 353 3500 
L 3084 3500 
L 3084 2975 
L 922 459 
L 3084 459 
L 3084 0 
L 275 0 
L 275 525 
L 2438 3041 
L 353 3041 
L 353 3500 
z
" transform="scale(0.015625)"/>
     </defs>
     <use xlink:href="#DejaVuSans-43"/>
     <use xlink:href="#DejaVuSans-7a" x="69.824219"/>
    </g>
   </g>
   <g id="legend_1">
    <g id="patch_8">
     <path d="M 99.877906 48.500845 
L 360.332593 48.500845 
Q 362.332593 48.500845 362.332593 46.500845 
L 362.332593 18.144595 
Q 362.332593 16.144595 360.332593 16.144595 
L 99.877906 16.144595 
Q 97.877906 16.144595 97.877906 18.144595 
L 97.877906 46.500845 
Q 97.877906 48.500845 99.877906 48.500845 
z
" style="fill: #ffffff; opacity: 0.8; stroke: #cccccc; stroke-linejoin: miter"/>
    </g>
    <g id="text_14">
     <!-- Average of Session 9 -->
     <g transform="translate(177.727124 27.743033)scale(0.1 -0.1)">
      <defs>
       <path id="DejaVuSans-41" d="M 2188 4044 
L 1331 1722 
L 3047 1722 
L 2188 4044 
z
M 1831 4666 
L 2547 4666 
L 4325 0 
L 3669 0 
L 3244 1197 
L 1141 1197 
L 716 0 
L 50 0 
L 1831 4666 
z
" transform="scale(0.015625)"/>
       <path id="DejaVuSans-76" d="M 191 3500 
L 800 3500 
L 1894 563 
L 2988 3500 
L 3597 3500 
L 2284 0 
L 1503 0 
L 191 3500 
z
" transform="scale(0.015625)"/>
       <path id="DejaVuSans-72" d="M 2631 2963 
Q 2534 3019 2420 3045 
Q 2306 3072 2169 3072 
Q 1681 3072 1420 2755 
Q 1159 2438 1159 1844 
L 1159 0 
L 581 0 
L 581 3500 
L 1159 3500 
L 1159 2956 
Q 1341 3275 1631 3429 
Q 1922 3584 2338 3584 
Q 2397 3584 2469 3576 
Q 2541 3569 2628 3553 
L 2631 2963 
z
" transform="scale(0.015625)"/>
       <path id="DejaVuSans-61" d="M 2194 1759 
Q 1497 1759 1228 1600 
Q 959 1441 959 1056 
Q 959 750 1161 570 
Q 1363 391 1709 391 
Q 2188 391 2477 730 
Q 2766 1069 2766 1631 
L 2766 1759 
L 2194 1759 
z
M 3341 1997 
L 3341 0 
L 2766 0 
L 2766 531 
Q 2569 213 2275 61 
Q 1981 -91 1556 -91 
Q 1019 -91 701 211 
Q 384 513 384 1019 
Q 384 1609 779 1909 
Q 1175 2209 1959 2209 
L 2766 2209 
L 2766 2266 
Q 2766 2663 2505 2880 
Q 2244 3097 1772 3097 
Q 1472 3097 1187 3025 
Q 903 2953 641 2809 
L 641 3341 
Q 956 3463 1253 3523 
Q 1550 3584 1831 3584 
Q 2591 3584 2966 3190 
Q 3341 2797 3341 1997 
z
" transform="scale(0.015625)"/>
       <path id="DejaVuSans-67" d="M 2906 1791 
Q 2906 2416 2648 2759 
Q 2391 3103 1925 3103 
Q 1463 3103 1205 2759 
Q 947 2416 947 1791 
Q 947 1169 1205 825 
Q 1463 481 1925 481 
Q 2391 481 2648 825 
Q 2906 1169 2906 1791 
z
M 3481 434 
Q 3481 -459 3084 -895 
Q 2688 -1331 1869 -1331 
Q 1566 -1331 1297 -1286 
Q 1028 -1241 775 -1147 
L 775 -588 
Q 1028 -725 1275 -790 
Q 1522 -856 1778 -856 
Q 2344 -856 2625 -561 
Q 2906 -266 2906 331 
L 2906 616 
Q 2728 306 2450 153 
Q 2172 0 1784 0 
Q 1141 0 747 490 
Q 353 981 353 1791 
Q 353 2603 747 3093 
Q 1141 3584 1784 3584 
Q 2172 3584 2450 3431 
Q 2728 3278 2906 2969 
L 2906 3500 
L 3481 3500 
L 3481 434 
z
" transform="scale(0.015625)"/>
       <path id="DejaVuSans-20" transform="scale(0.015625)"/>
       <path id="DejaVuSans-66" d="M 2375 4863 
L 2375 4384 
L 1825 4384 
Q 1516 4384 1395 4259 
Q 1275 4134 1275 3809 
L 1275 3500 
L 2222 3500 
L 2222 3053 
L 1275 3053 
L 1275 0 
L 697 0 
L 697 3053 
L 147 3053 
L 147 3500 
L 697 3500 
L 697 3744 
Q 697 4328 969 4595 
Q 1241 4863 1831 4863 
L 2375 4863 
z
" transform="scale(0.015625)"/>
       <path id="DejaVuSans-53" d="M 3425 4513 
L 3425 3897 
Q 3066 4069 2747 4153 
Q 2428 4238 2131 4238 
Q 1616 4238 1336 4038 
Q 1056 3838 1056 3469 
Q 1056 3159 1242 3001 
Q 1428 2844 1947 2747 
L 2328 2669 
Q 3034 2534 3370 2195 
Q 3706 1856 3706 1288 
Q 3706 609 3251 259 
Q 2797 -91 1919 -91 
Q 1588 -91 1214 -16 
Q 841 59 441 206 
L 441 856 
Q 825 641 1194 531 
Q 1563 422 1919 422 
Q 2459 422 2753 634 
Q 3047 847 3047 1241 
Q 3047 1584 2836 1778 
Q 2625 1972 2144 2069 
L 1759 2144 
Q 1053 2284 737 2584 
Q 422 2884 422 3419 
Q 422 4038 858 4394 
Q 1294 4750 2059 4750 
Q 2388 4750 2728 4690 
Q 3069 4631 3425 4513 
z
" transform="scale(0.015625)"/>
       <path id="DejaVuSans-69" d="M 603 3500 
L 1178 3500 
L 1178 0 
L 603 0 
L 603 3500 
z
M 603 4863 
L 1178 4863 
L 1178 4134 
L 603 4134 
L 603 4863 
z
" transform="scale(0.015625)"/>
       <path id="DejaVuSans-39" d="M 703 97 
L 703 672 
Q 941 559 1184 500 
Q 1428 441 1663 441 
Q 2288 441 2617 861 
Q 2947 1281 2994 2138 
Q 2813 1869 2534 1725 
Q 2256 1581 1919 1581 
Q 1219 1581 811 2004 
Q 403 2428 403 3163 
Q 403 3881 828 4315 
Q 1253 4750 1959 4750 
Q 2769 4750 3195 4129 
Q 3622 3509 3622 2328 
Q 3622 1225 3098 567 
Q 2575 -91 1691 -91 
Q 1453 -91 1209 -44 
Q 966 3 703 97 
z
M 1959 2075 
Q 2384 2075 2632 2365 
Q 2881 2656 2881 3163 
Q 2881 3666 2632 3958 
Q 2384 4250 1959 4250 
Q 1534 4250 1286 3958 
Q 1038 3666 1038 3163 
Q 1038 2656 1286 2365 
Q 1534 2075 1959 2075 
z
" transform="scale(0.015625)"/>
      </defs>
      <use xlink:href="#DejaVuSans-41"/>
      <use xlink:href="#DejaVuSans-76" x="62.533203"/>
      <use xlink:href="#DejaVuSans-65" x="121.712891"/>
      <use xlink:href="#DejaVuSans-72" x="183.236328"/>
      <use xlink:href="#DejaVuSans-61" x="224.349609"/>
      <use xlink:href="#DejaVuSans-67" x="285.628906"/>
      <use xlink:href="#DejaVuSans-65" x="349.105469"/>
      <use xlink:href="#DejaVuSans-20" x="410.628906"/>
      <use xlink:href="#DejaVuSans-6f" x="442.416016"/>
      <use xlink:href="#DejaVuSans-66" x="503.597656"/>
      <use xlink:href="#DejaVuSans-20" x="538.802734"/>
      <use xlink:href="#DejaVuSans-53" x="570.589844"/>
      <use xlink:href="#DejaVuSans-65" x="634.066406"/>
      <use xlink:href="#DejaVuSans-73" x="695.589844"/>
      <use xlink:href="#DejaVuSans-73" x="747.689453"/>
      <use xlink:href="#DejaVuSans-69" x="799.789062"/>
      <use xlink:href="#DejaVuSans-6f" x="827.572266"/>
      <use xlink:href="#DejaVuSans-6e" x="888.753906"/>
      <use xlink:href="#DejaVuSans-20" x="952.132812"/>
      <use xlink:href="#DejaVuSans-39" x="983.919922"/>
     </g>
    </g>
    <g id="line2d_15">
     <path d="M 101.877906 38.921158 
L 111.877906 38.921158 
L 121.877906 38.921158 
" style="fill: none; stroke: #e41a1c; stroke-width: 1.5; stroke-linecap: square"/>
    </g>
    <g id="text_15">
     <!-- Target (n=301) -->
     <g transform="translate(129.877906 42.421158)scale(0.1 -0.1)">
      <defs>
       <path id="DejaVuSans-54" d="M -19 4666 
L 3928 4666 
L 3928 4134 
L 2272 4134 
L 2272 0 
L 1638 0 
L 1638 4134 
L -19 4134 
L -19 4666 
z
" transform="scale(0.015625)"/>
       <path id="DejaVuSans-74" d="M 1172 4494 
L 1172 3500 
L 2356 3500 
L 2356 3053 
L 1172 3053 
L 1172 1153 
Q 1172 725 1289 603 
Q 1406 481 1766 481 
L 2356 481 
L 2356 0 
L 1766 0 
Q 1100 0 847 248 
Q 594 497 594 1153 
L 594 3053 
L 172 3053 
L 172 3500 
L 594 3500 
L 594 4494 
L 1172 4494 
z
" transform="scale(0.015625)"/>
       <path id="DejaVuSans-28" d="M 1984 4856 
Q 1566 4138 1362 3434 
Q 1159 2731 1159 2009 
Q 1159 1288 1364 580 
Q 1569 -128 1984 -844 
L 1484 -844 
Q 1016 -109 783 600 
Q 550 1309 550 2009 
Q 550 2706 781 3412 
Q 1013 4119 1484 4856 
L 1984 4856 
z
" transform="scale(0.015625)"/>
       <path id="DejaVuSans-3d" d="M 678 2906 
L 4684 2906 
L 4684 2381 
L 678 2381 
L 678 2906 
z
M 678 1631 
L 4684 1631 
L 4684 1100 
L 678 1100 
L 678 1631 
z
" transform="scale(0.015625)"/>
       <path id="DejaVuSans-29" d="M 513 4856 
L 1013 4856 
Q 1481 4119 1714 3412 
Q 1947 2706 1947 2009 
Q 1947 1309 1714 600 
Q 1481 -109 1013 -844 
L 513 -844 
Q 928 -128 1133 580 
Q 1338 1288 1338 2009 
Q 1338 2731 1133 3434 
Q 928 4138 513 4856 
z
" transform="scale(0.015625)"/>
      </defs>
      <use xlink:href="#DejaVuSans-54"/>
      <use xlink:href="#DejaVuSans-61" x="44.583984"/>
      <use xlink:href="#DejaVuSans-72" x="105.863281"/>
      <use xlink:href="#DejaVuSans-67" x="145.226562"/>
      <use xlink:href="#DejaVuSans-65" x="208.703125"/>
      <use xlink:href="#DejaVuSans-74" x="270.226562"/>
      <use xlink:href="#DejaVuSans-20" x="309.435547"/>
      <use xlink:href="#DejaVuSans-28" x="341.222656"/>
      <use xlink:href="#DejaVuSans-6e" x="380.236328"/>
      <use xlink:href="#DejaVuSans-3d" x="443.615234"/>
      <use xlink:href="#DejaVuSans-33" x="527.404297"/>
      <use xlink:href="#DejaVuSans-30" x="591.027344"/>
      <use xlink:href="#DejaVuSans-31" x="654.650391"/>
      <use xlink:href="#DejaVuSans-29" x="718.273438"/>
     </g>
    </g>
    <g id="line2d_16">
     <path d="M 225.607593 38.921158 
L 235.607593 38.921158 
L 245.607593 38.921158 
" style="fill: none; stroke: #377eb8; stroke-width: 1.5; stroke-linecap: square"/>
    </g>
    <g id="text_16">
     <!-- Non-Target (n=1501) -->
     <g transform="translate(253.607593 42.421158)scale(0.1 -0.1)">
      <defs>
       <path id="DejaVuSans-4e" d="M 628 4666 
L 1478 4666 
L 3547 763 
L 3547 4666 
L 4159 4666 
L 4159 0 
L 3309 0 
L 1241 3903 
L 1241 0 
L 628 0 
L 628 4666 
z
" transform="scale(0.015625)"/>
       <path id="DejaVuSans-2d" d="M 313 2009 
L 1997 2009 
L 1997 1497 
L 313 1497 
L 313 2009 
z
" transform="scale(0.015625)"/>
       <path id="DejaVuSans-35" d="M 691 4666 
L 3169 4666 
L 3169 4134 
L 1269 4134 
L 1269 2991 
Q 1406 3038 1543 3061 
Q 1681 3084 1819 3084 
Q 2600 3084 3056 2656 
Q 3513 2228 3513 1497 
Q 3513 744 3044 326 
Q 2575 -91 1722 -91 
Q 1428 -91 1123 -41 
Q 819 9 494 109 
L 494 744 
Q 775 591 1075 516 
Q 1375 441 1709 441 
Q 2250 441 2565 725 
Q 2881 1009 2881 1497 
Q 2881 1984 2565 2268 
Q 2250 2553 1709 2553 
Q 1456 2553 1204 2497 
Q 953 2441 691 2322 
L 691 4666 
z
" transform="scale(0.015625)"/>
      </defs>
      <use xlink:href="#DejaVuSans-4e"/>
      <use xlink:href="#DejaVuSans-6f" x="74.804688"/>
      <use xlink:href="#DejaVuSans-6e" x="135.986328"/>
      <use xlink:href="#DejaVuSans-2d" x="199.365234"/>
      <use xlink:href="#DejaVuSans-54" x="226.324219"/>
      <use xlink:href="#DejaVuSans-61" x="270.908203"/>
      <use xlink:href="#DejaVuSans-72" x="332.1875"/>
      <use xlink:href="#DejaVuSans-67" x="371.550781"/>
      <use xlink:href="#DejaVuSans-65" x="435.027344"/>
      <use xlink:href="#DejaVuSans-74" x="496.550781"/>
      <use xlink:href="#DejaVuSans-20" x="535.759766"/>
      <use xlink:href="#DejaVuSans-28" x="567.546875"/>
      <use xlink:href="#DejaVuSans-6e" x="606.560547"/>
      <use xlink:href="#DejaVuSans-3d" x="669.939453"/>
      <use xlink:href="#DejaVuSans-31" x="753.728516"/>
      <use xlink:href="#DejaVuSans-35" x="817.351562"/>
      <use xlink:href="#DejaVuSans-30" x="880.974609"/>
      <use xlink:href="#DejaVuSans-31" x="944.597656"/>
      <use xlink:href="#DejaVuSans-29" x="1008.220703"/>
     </g>
    </g>
   </g>
  </g>
 </g>
 <defs>
  <clipPath id="pcd72e1d1df">
   <rect x="46.64" y="71.732" width="366.930499" height="246.308"/>
  </clipPath>
 </defs>
</svg>
