<?xml version="1.0" encoding="utf-8" standalone="no"?>
<!DOCTYPE svg PUBLIC "-//W3C//DTD SVG 1.1//EN"
  "http://www.w3.org/Graphics/SVG/1.1/DTD/svg11.dtd">
<svg xmlns:xlink="http://www.w3.org/1999/xlink" width="432pt" height="360pt" viewBox="0 0 432 360" xmlns="http://www.w3.org/2000/svg" version="1.1">
 <metadata>
  <rdf:RDF xmlns:dc="http://purl.org/dc/elements/1.1/" xmlns:cc="http://creativecommons.org/ns#" xmlns:rdf="http://www.w3.org/1999/02/22-rdf-syntax-ns#">
   <cc:Work>
    <dc:type rdf:resource="http://purl.org/dc/dcmitype/StillImage"/>
    <dc:date>2022-05-19T11:52:17.134790</dc:date>
    <dc:format>image/svg+xml</dc:format>
    <dc:creator>
     <cc:Agent>
      <dc:title>Matplotlib v3.5.1, https://matplotlib.org/</dc:title>
     </cc:Agent>
    </dc:creator>
   </cc:Work>
  </rdf:RDF>
 </metadata>
 <defs>
  <style type="text/css">*{stroke-linejoin: round; stroke-linecap: butt}</style>
 </defs>
 <g id="figure_1">
  <g id="patch_1">
   <path d="M 0 360 
L 432 360 
L 432 0 
L 0 0 
L 0 360 
z
" style="fill: none"/>
  </g>
  <g id="axes_1">
   <g id="patch_2">
    <path d="M 46.64 318.04 
L 413.570499 318.04 
L 413.570499 71.732 
L 46.64 71.732 
L 46.64 318.04 
z
" style="fill: none"/>
   </g>
   <g id="PolyCollection_1">
    <defs>
     <path id="m372d6ff550" d="M 46.64 -128.944717 
L 46.64 -93.757704 
L 47.435945 -94.446718 
L 48.231889 -95.175574 
L 49.027834 -96.147289 
L 49.823779 -97.453052 
L 50.619723 -99.015121 
L 51.415668 -100.621505 
L 52.211613 -102.018011 
L 53.007557 -103.000344 
L 53.803502 -103.476709 
L 54.599447 -103.489598 
L 55.395392 -103.180879 
L 56.191336 -102.700116 
L 56.987281 -102.105464 
L 57.783226 -101.332525 
L 58.57917 -100.25845 
L 59.375115 -98.802926 
L 60.17106 -96.984384 
L 60.967004 -94.913979 
L 61.762949 -92.764978 
L 62.558894 -90.749063 
L 63.354838 -89.102537 
L 64.150783 -88.061191 
L 64.946728 -87.800618 
L 65.742672 -88.360233 
L 66.538617 -89.608774 
L 67.334562 -91.283094 
L 68.130506 -93.070133 
L 68.926451 -94.676771 
L 69.722396 -95.866189 
L 70.51834 -96.487108 
L 71.314285 -96.512538 
L 72.11023 -96.04432 
L 72.906175 -95.241416 
L 73.702119 -94.215886 
L 74.498064 -92.982335 
L 75.294009 -91.49928 
L 76.089953 -89.762273 
L 76.885898 -87.858157 
L 77.681843 -85.930064 
L 78.477787 -84.106871 
L 79.273732 -82.481813 
L 80.069677 -81.149838 
L 80.865621 -80.238338 
L 81.661566 -79.876022 
L 82.457511 -80.117528 
L 83.253455 -80.887597 
L 84.0494 -81.990354 
L 84.845345 -83.175518 
L 85.641289 -84.208615 
L 86.437234 -84.903013 
L 87.233179 -85.125038 
L 88.029124 -84.803046 
L 88.825068 -83.943617 
L 89.621013 -82.634717 
L 90.416958 -81.023046 
L 91.212902 -79.275307 
L 92.008847 -77.542746 
L 92.804792 -75.935666 
L 93.600736 -74.500505 
L 94.396681 -73.20066 
L 95.192626 -71.920842 
L 95.98857 -70.509722 
L 96.784515 -68.845006 
L 97.58046 -66.883915 
L 98.376404 -64.678563 
L 99.172349 -62.370488 
L 99.968294 -60.185228 
L 100.764238 -58.418492 
L 101.560183 -57.38507 
L 102.356128 -57.329379 
L 103.152073 -58.343495 
L 103.948017 -60.337363 
L 104.743962 -63.054467 
L 105.539907 -66.099481 
L 106.335851 -68.979315 
L 107.131796 -71.190129 
L 107.927741 -72.348818 
L 108.723685 -72.306724 
L 109.51963 -71.178013 
L 110.315575 -69.282821 
L 111.111519 -67.065483 
L 111.907464 -65.023094 
L 112.703409 -63.616158 
L 113.499353 -63.14404 
L 114.295298 -63.643836 
L 115.091243 -64.891412 
L 115.887187 -66.514623 
L 116.683132 -68.146658 
L 117.479077 -69.530258 
L 118.275021 -70.542979 
L 119.070966 -71.178701 
L 119.866911 -71.522453 
L 120.662856 -71.71776 
L 121.4588 -71.912981 
L 122.254745 -72.19766 
L 123.05069 -72.558173 
L 123.846634 -72.867823 
L 124.642579 -72.907058 
L 125.438524 -72.411988 
L 126.234468 -71.154473 
L 127.030413 -69.036389 
L 127.826358 -66.153077 
L 128.622302 -62.79072 
L 129.418247 -59.366462 
L 130.214192 -56.347097 
L 131.010136 -54.168453 
L 131.806081 -53.155818 
L 132.602026 -53.451783 
L 133.39797 -54.979093 
L 134.193915 -57.4616 
L 134.98986 -60.492954 
L 135.785805 -63.62072 
L 136.581749 -66.424222 
L 137.377694 -68.580562 
L 138.173639 -69.908964 
L 138.969583 -70.376966 
L 139.765528 -70.070599 
L 140.561473 -69.157188 
L 141.357417 -67.862911 
L 142.153362 -66.451677 
L 142.949307 -65.179184 
L 143.745251 -64.229718 
L 144.541196 -63.678685 
L 145.337141 -63.510358 
L 146.133085 -63.670784 
L 146.92903 -64.110146 
L 147.724975 -64.795006 
L 148.520919 -65.706103 
L 149.316864 -66.833954 
L 150.112809 -68.161085 
L 150.908753 -69.622461 
L 151.704698 -71.065847 
L 152.500643 -72.250838 
L 153.296588 -72.904216 
L 154.092532 -72.810737 
L 154.888477 -71.901578 
L 155.684422 -70.313258 
L 156.480366 -68.397269 
L 157.276311 -66.658877 
L 158.072256 -65.624049 
L 158.8682 -65.680799 
L 159.664145 -66.967908 
L 160.46009 -69.350952 
L 161.256034 -72.463154 
L 162.051979 -75.772327 
L 162.847924 -78.678625 
L 163.643868 -80.66428 
L 164.439813 -81.457102 
L 165.235758 -81.109147 
L 166.031702 -79.925214 
L 166.827647 -78.28561 
L 167.623592 -76.482352 
L 168.419537 -74.659843 
L 169.215481 -72.852566 
L 170.011426 -71.038177 
L 170.807371 -69.156059 
L 171.603315 -67.127365 
L 172.39926 -64.921934 
L 173.195205 -62.643421 
L 173.991149 -60.551818 
L 174.787094 -58.980526 
L 175.583039 -58.195975 
L 176.378983 -58.294179 
L 177.174928 -59.189044 
L 177.970873 -60.671944 
L 178.766817 -62.484534 
L 179.562762 -64.36969 
L 180.358707 -66.105328 
L 181.154651 -67.535178 
L 181.950596 -68.594137 
L 182.746541 -69.313113 
L 183.542485 -69.791916 
L 184.33843 -70.145382 
L 185.134375 -70.446461 
L 185.93032 -70.693855 
L 186.726264 -70.815518 
L 187.522209 -70.698867 
L 188.318154 -70.231288 
L 189.114098 -69.339954 
L 189.910043 -68.027187 
L 190.705988 -66.399333 
L 191.501932 -64.681976 
L 192.297877 -63.208198 
L 193.093822 -62.369916 
L 193.889766 -62.535231 
L 194.685711 -63.947748 
L 195.481656 -66.633782 
L 196.2776 -70.35236 
L 197.073545 -74.621442 
L 197.86949 -78.825673 
L 198.665434 -82.36598 
L 199.461379 -84.791797 
L 200.257324 -85.883094 
L 201.053269 -85.684654 
L 201.849213 -84.500722 
L 202.645158 -82.843949 
L 203.441103 -81.326372 
L 204.237047 -80.498545 
L 205.032992 -80.68169 
L 205.828937 -81.864885 
L 206.624881 -83.722534 
L 207.420826 -85.752748 
L 208.216771 -87.478297 
L 209.012715 -88.620017 
L 209.80866 -89.166536 
L 210.604605 -89.31946 
L 211.400549 -89.35663 
L 212.196494 -89.489709 
L 212.992439 -89.781773 
L 213.788383 -90.149299 
L 214.584328 -90.43179 
L 215.380273 -90.495729 
L 216.176218 -90.338788 
L 216.972162 -90.151983 
L 217.768107 -90.292354 
L 218.564052 -91.154286 
L 219.359996 -92.997601 
L 220.155941 -95.826359 
L 220.951886 -99.373031 
L 221.74783 -103.172177 
L 222.543775 -106.675207 
L 223.33972 -109.37661 
L 224.135664 -110.944072 
L 224.931609 -111.327328 
L 225.727554 -110.782875 
L 226.523498 -109.764421 
L 227.319443 -108.722568 
L 228.115388 -107.939293 
L 228.911332 -107.488431 
L 229.707277 -107.302824 
L 230.503222 -107.26513 
L 231.299166 -107.270135 
L 232.095111 -107.265843 
L 232.891056 -107.289092 
L 233.687001 -107.472166 
L 234.482945 -107.980363 
L 235.27889 -108.893808 
L 236.074835 -110.116528 
L 236.870779 -111.391929 
L 237.666724 -112.426365 
L 238.462669 -113.045647 
L 239.258613 -113.291122 
L 240.054558 -113.408608 
L 240.850503 -113.752167 
L 241.646447 -114.661261 
L 242.442392 -116.358674 
L 243.238337 -118.886706 
L 244.034281 -122.086223 
L 244.830226 -125.628598 
L 245.626171 -129.103309 
L 246.422115 -132.130803 
L 247.21806 -134.4451 
L 248.014005 -135.912507 
L 248.80995 -136.5065 
L 249.605894 -136.285498 
L 250.401839 -135.390191 
L 251.197784 -134.032318 
L 251.993728 -132.450722 
L 252.789673 -130.857998 
L 253.585618 -129.420893 
L 254.381562 -128.277653 
L 255.177507 -127.546604 
L 255.973452 -127.29072 
L 256.769396 -127.466638 
L 257.565341 -127.920389 
L 258.361286 -128.452887 
L 259.15723 -128.917159 
L 259.953175 -129.287952 
L 260.74912 -129.668326 
L 261.545064 -130.235601 
L 262.341009 -131.153836 
L 263.136954 -132.48701 
L 263.932898 -134.145744 
L 264.728843 -135.895759 
L 265.524788 -137.438093 
L 266.320733 -138.53363 
L 267.116677 -139.109566 
L 267.912622 -139.28671 
L 268.708567 -139.310705 
L 269.504511 -139.427929 
L 270.300456 -139.775255 
L 271.096401 -140.327676 
L 271.892345 -140.895437 
L 272.68829 -141.150307 
L 273.484235 -140.700462 
L 274.280179 -139.24291 
L 275.076124 -136.755479 
L 275.872069 -133.613571 
L 276.668013 -130.526771 
L 277.463958 -128.30338 
L 278.259903 -127.567187 
L 279.055847 -128.565653 
L 279.851792 -131.131093 
L 280.647737 -134.770629 
L 281.443682 -138.827488 
L 282.239626 -142.664398 
L 283.035571 -145.825831 
L 283.831516 -148.133998 
L 284.62746 -149.68831 
L 285.423405 -150.772035 
L 286.21935 -151.702853 
L 287.015294 -152.683935 
L 287.811239 -153.717353 
L 288.607184 -154.622806 
L 289.403128 -155.154763 
L 290.199073 -155.15116 
L 290.995018 -154.625051 
L 291.790962 -153.754459 
L 292.586907 -152.797448 
L 293.382852 -151.994382 
L 294.178796 -151.501317 
L 294.974741 -151.365121 
L 295.770686 -151.536704 
L 296.56663 -151.917772 
L 297.362575 -152.427166 
L 298.15852 -153.056796 
L 298.954465 -153.883824 
L 299.750409 -155.021545 
L 300.546354 -156.519846 
L 301.342299 -158.262509 
L 302.138243 -159.936508 
L 302.934188 -161.128516 
L 303.730133 -161.522494 
L 304.526077 -161.086026 
L 305.322022 -160.125417 
L 306.117967 -159.174357 
L 306.913911 -158.780795 
L 307.709856 -159.29518 
L 308.505801 -160.734613 
L 309.301745 -162.749282 
L 310.09769 -164.698318 
L 310.893635 -165.840375 
L 311.689579 -165.606156 
L 312.485524 -163.848769 
L 313.281469 -160.937497 
L 314.077414 -157.625303 
L 314.873358 -154.745162 
L 315.669303 -152.881294 
L 316.465248 -152.159869 
L 317.261192 -152.2307 
L 318.057137 -152.427131 
L 318.853082 -152.035389 
L 319.649026 -150.575872 
L 320.444971 -147.988694 
L 321.240916 -144.641346 
L 322.03686 -141.152076 
L 322.832805 -138.116414 
L 323.62875 -135.873448 
L 324.424694 -134.416882 
L 325.220639 -133.467196 
L 326.016584 -132.642529 
L 326.812528 -131.644982 
L 327.608473 -130.396995 
L 328.404418 -129.080492 
L 329.200363 -128.054912 
L 329.996307 -127.678918 
L 330.792252 -128.115473 
L 331.588197 -129.216328 
L 332.384141 -130.542247 
L 333.180086 -131.508319 
L 333.976031 -131.593319 
L 334.771975 -130.5368 
L 335.56792 -128.455314 
L 336.363865 -125.826412 
L 337.159809 -123.326166 
L 337.955754 -121.572483 
L 338.751699 -120.887163 
L 339.547643 -121.188447 
L 340.343588 -122.05677 
L 341.139533 -122.928961 
L 341.935477 -123.323272 
L 342.731422 -123.002977 
L 343.527367 -122.034158 
L 344.323311 -120.742877 
L 345.119256 -119.601086 
L 345.915201 -119.076731 
L 346.711146 -119.49051 
L 347.50709 -120.926943 
L 348.303035 -123.232965 
L 349.09898 -126.100269 
L 349.894924 -129.187032 
L 350.690869 -132.219028 
L 351.486814 -135.035037 
L 352.282758 -137.584391 
L 353.078703 -139.903963 
L 353.874648 -142.089196 
L 354.670592 -144.257512 
L 355.466537 -146.503902 
L 356.262482 -148.859539 
L 357.058426 -151.266001 
L 357.854371 -153.569961 
L 358.650316 -155.543245 
L 359.44626 -156.939488 
L 360.242205 -157.582864 
L 361.03815 -157.443143 
L 361.834095 -156.637093 
L 362.630039 -155.347873 
L 363.425984 -153.72561 
L 364.221929 -151.849876 
L 365.017873 -149.783976 
L 365.813818 -147.672887 
L 366.609763 -145.796621 
L 367.405707 -144.531403 
L 368.201652 -144.247642 
L 368.997597 -145.200391 
L 369.793541 -147.437568 
L 370.589486 -150.729354 
L 371.385431 -154.544734 
L 372.181375 -158.128389 
L 372.97732 -160.703747 
L 373.773265 -161.743716 
L 374.569209 -161.178427 
L 375.365154 -159.426819 
L 376.161099 -157.240643 
L 376.957043 -155.443797 
L 377.752988 -154.672245 
L 378.548933 -155.191029 
L 379.344878 -156.833364 
L 380.140822 -159.082587 
L 380.936767 -161.276783 
L 381.732712 -162.856912 
L 382.528656 -163.548163 
L 383.324601 -163.401788 
L 384.120546 -162.707673 
L 384.91649 -161.848957 
L 385.712435 -161.17075 
L 386.50838 -160.899659 
L 387.304324 -161.125265 
L 388.100269 -161.843477 
L 388.896214 -163.03699 
L 389.692158 -164.736254 
L 390.488103 -167.007428 
L 391.284048 -169.86457 
L 392.079992 -173.16209 
L 392.875937 -176.540933 
L 393.671882 -179.470368 
L 394.467827 -181.380443 
L 395.263771 -181.845661 
L 396.059716 -180.757014 
L 396.855661 -178.40841 
L 397.651605 -175.444044 
L 398.44755 -172.669081 
L 399.243495 -170.78764 
L 400.039439 -170.165445 
L 400.835384 -170.708083 
L 401.631329 -171.90546 
L 402.427273 -173.03075 
L 403.223218 -173.417737 
L 404.019163 -172.703902 
L 404.815107 -170.944705 
L 405.611052 -168.570811 
L 406.406997 -166.227731 
L 407.202941 -164.567647 
L 407.998886 -164.061914 
L 408.794831 -164.89079 
L 409.590775 -166.942066 
L 410.38672 -169.902944 
L 411.182665 -173.380876 
L 411.97861 -176.983065 
L 412.774554 -180.334234 
L 413.570499 -183.070875 
L 413.570499 -277.072182 
L 413.570499 -277.072182 
L 412.774554 -274.239038 
L 411.97861 -270.561181 
L 411.182665 -266.465158 
L 410.38672 -262.44981 
L 409.590775 -259.036107 
L 408.794831 -256.682991 
L 407.998886 -255.692702 
L 407.202941 -256.12818 
L 406.406997 -257.761633 
L 405.611052 -260.085991 
L 404.815107 -262.422308 
L 404.019163 -264.115787 
L 403.223218 -264.753786 
L 402.427273 -264.313108 
L 401.631329 -263.171538 
L 400.835384 -261.975434 
L 400.039439 -261.407191 
L 399.243495 -261.929177 
L 398.44755 -263.595003 
L 397.651605 -266.006064 
L 396.855661 -268.439636 
L 396.059716 -270.100991 
L 395.263771 -270.398209 
L 394.467827 -269.132775 
L 393.671882 -266.536641 
L 392.875937 -263.147737 
L 392.079992 -259.583254 
L 391.284048 -256.317336 
L 390.488103 -253.564513 
L 389.692158 -251.306815 
L 388.896214 -249.422808 
L 388.100269 -247.833811 
L 387.304324 -246.590716 
L 386.50838 -245.861382 
L 385.712435 -245.82075 
L 384.91649 -246.491094 
L 384.120546 -247.622386 
L 383.324601 -248.705155 
L 382.528656 -249.139618 
L 381.732712 -248.484838 
L 380.936767 -246.661764 
L 380.140822 -244.015094 
L 379.344878 -241.212308 
L 378.548933 -239.020916 
L 377.752988 -238.037622 
L 376.957043 -238.459503 
L 376.161099 -239.990713 
L 375.365154 -241.939755 
L 374.569209 -243.472349 
L 373.773265 -243.900809 
L 372.97732 -242.884525 
L 372.181375 -240.488193 
L 371.385431 -237.12312 
L 370.589486 -233.41895 
L 369.793541 -230.055393 
L 368.997597 -227.583772 
L 368.201652 -226.293869 
L 367.405707 -226.184913 
L 366.609763 -227.047221 
L 365.813818 -228.586598 
L 365.017873 -230.50272 
L 364.221929 -232.493758 
L 363.425984 -234.240081 
L 362.630039 -235.432478 
L 361.834095 -235.847363 
L 361.03815 -235.412857 
L 360.242205 -234.214564 
L 359.44626 -232.441075 
L 358.650316 -230.314743 
L 357.854371 -228.050441 
L 357.058426 -225.840006 
L 356.262482 -223.832062 
L 355.466537 -222.098468 
L 354.670592 -220.610432 
L 353.874648 -219.246198 
L 353.078703 -217.827999 
L 352.282758 -216.172829 
L 351.486814 -214.145902 
L 350.690869 -211.707513 
L 349.894924 -208.937059 
L 349.09898 -206.020177 
L 348.303035 -203.204656 
L 347.50709 -200.74735 
L 346.711146 -198.8677 
L 345.915201 -197.704705 
L 345.119256 -197.270921 
L 344.323311 -197.417167 
L 343.527367 -197.842823 
L 342.731422 -198.178333 
L 341.935477 -198.123211 
L 341.139533 -197.577476 
L 340.343588 -196.697828 
L 339.547643 -195.848085 
L 338.751699 -195.46522 
L 337.955754 -195.894982 
L 337.159809 -197.254612 
L 336.363865 -199.365082 
L 335.56792 -201.776619 
L 334.771975 -203.893743 
L 333.976031 -205.177181 
L 333.180086 -205.353391 
L 332.384141 -204.531583 
L 331.588197 -203.159131 
L 330.792252 -201.830704 
L 329.996307 -201.044705 
L 329.200363 -201.021837 
L 328.404418 -201.660959 
L 327.608473 -202.641092 
L 326.812528 -203.61979 
L 326.016584 -204.438556 
L 325.220639 -205.2328 
L 324.424694 -206.377094 
L 323.62875 -208.280917 
L 322.832805 -211.142035 
L 322.03686 -214.794558 
L 321.240916 -218.730515 
L 320.444971 -222.277987 
L 319.649026 -224.852735 
L 318.853082 -226.184437 
L 318.057137 -226.434772 
L 317.261192 -226.155766 
L 316.465248 -226.086685 
L 315.669303 -226.857854 
L 314.873358 -228.72736 
L 314.077414 -231.471761 
L 313.281469 -234.475544 
L 312.485524 -236.967319 
L 311.689579 -238.296955 
L 310.893635 -238.156624 
L 310.09769 -236.686628 
L 309.301745 -234.434639 
L 308.505801 -232.162962 
L 307.709856 -230.555393 
L 306.913911 -229.946467 
L 306.117967 -230.212303 
L 305.322022 -230.880161 
L 304.526077 -231.382973 
L 303.730133 -231.310626 
L 302.934188 -230.541809 
L 302.138243 -229.235047 
L 301.342299 -227.730088 
L 300.546354 -226.415445 
L 299.750409 -225.592169 
L 298.954465 -225.363851 
L 298.15852 -225.599566 
L 297.362575 -226.002556 
L 296.56663 -226.261141 
L 295.770686 -226.20296 
L 294.974741 -225.868597 
L 294.178796 -225.467906 
L 293.382852 -225.246304 
L 292.586907 -225.33601 
L 291.790962 -225.676979 
L 290.995018 -226.050851 
L 290.199073 -226.197712 
L 289.403128 -225.937508 
L 288.607184 -225.232986 
L 287.811239 -224.180894 
L 287.015294 -222.950265 
L 286.21935 -221.690127 
L 285.423405 -220.433249 
L 284.62746 -219.03894 
L 283.831516 -217.221765 
L 283.035571 -214.678794 
L 282.239626 -211.268849 
L 281.443682 -207.157636 
L 280.647737 -202.850385 
L 279.851792 -199.07825 
L 279.055847 -196.56671 
L 278.259903 -195.777345 
L 277.463958 -196.743098 
L 276.668013 -199.072041 
L 275.872069 -202.098326 
L 275.076124 -205.091028 
L 274.280179 -207.438668 
L 273.484235 -208.780327 
L 272.68829 -209.081943 
L 271.892345 -208.630877 
L 271.096401 -207.908153 
L 270.300456 -207.3587 
L 269.504511 -207.17313 
L 268.708567 -207.216051 
L 267.912622 -207.140558 
L 267.116677 -206.602111 
L 266.320733 -205.442396 
L 265.524788 -203.761568 
L 264.728843 -201.870801 
L 263.932898 -200.167699 
L 263.136954 -198.990929 
L 262.341009 -198.501961 
L 261.545064 -198.63086 
L 260.74912 -199.107424 
L 259.953175 -199.56869 
L 259.15723 -199.698534 
L 258.361286 -199.338903 
L 257.565341 -198.529838 
L 256.769396 -197.476745 
L 255.973452 -196.476096 
L 255.177507 -195.83071 
L 254.381562 -195.76716 
L 253.585618 -196.365847 
L 252.789673 -197.533675 
L 251.993728 -199.048398 
L 251.197784 -200.654035 
L 250.401839 -202.136141 
L 249.605894 -203.323097 
L 248.80995 -204.035841 
L 248.014005 -204.062942 
L 247.21806 -203.208462 
L 246.422115 -201.382323 
L 245.626171 -198.667692 
L 244.830226 -195.330484 
L 244.034281 -191.776965 
L 243.238337 -188.474311 
L 242.442392 -185.841084 
L 241.646447 -184.125716 
L 240.850503 -183.32059 
L 240.054558 -183.16623 
L 239.258613 -183.256757 
L 238.462669 -183.194715 
L 237.666724 -182.718659 
L 236.870779 -181.757609 
L 236.074835 -180.416707 
L 235.27889 -178.923906 
L 234.482945 -177.558418 
L 233.687001 -176.564557 
L 232.891056 -176.060455 
L 232.095111 -175.981882 
L 231.299166 -176.117162 
L 230.503222 -176.239557 
L 229.707277 -176.254474 
L 228.911332 -176.251489 
L 228.115388 -176.424715 
L 227.319443 -176.926982 
L 226.523498 -177.759508 
L 225.727554 -178.744197 
L 224.931609 -179.553365 
L 224.135664 -179.767191 
L 223.33972 -178.974427 
L 222.543775 -176.92775 
L 221.74783 -173.689087 
L 220.951886 -169.660226 
L 220.155941 -165.458472 
L 219.359996 -161.702161 
L 218.564052 -158.822464 
L 217.768107 -156.981829 
L 216.972162 -156.099299 
L 216.176218 -155.935223 
L 215.380273 -156.195807 
L 214.584328 -156.634737 
L 213.788383 -157.118971 
L 212.992439 -157.62106 
L 212.196494 -158.140188 
L 211.400549 -158.608627 
L 210.604605 -158.8521 
L 209.80866 -158.632544 
L 209.012715 -157.748457 
L 208.216771 -156.139184 
L 207.420826 -153.945203 
L 206.624881 -151.502053 
L 205.828937 -149.269557 
L 205.032992 -147.712438 
L 204.237047 -147.15937 
L 203.441103 -147.678143 
L 202.645158 -149.010717 
L 201.849213 -150.606903 
L 201.053269 -151.769458 
L 200.257324 -151.874225 
L 199.461379 -150.581621 
L 198.665434 -147.946836 
L 197.86949 -144.377416 
L 197.073545 -140.460847 
L 196.2776 -136.753776 
L 195.481656 -133.6371 
L 194.685711 -131.282278 
L 193.889766 -129.701735 
L 193.093822 -128.828062 
L 192.297877 -128.577399 
L 191.501932 -128.874499 
L 190.705988 -129.63946 
L 189.910043 -130.755307 
L 189.114098 -132.045345 
L 188.318154 -133.282887 
L 187.522209 -134.235188 
L 186.726264 -134.722573 
L 185.93032 -134.667 
L 185.134375 -134.110402 
L 184.33843 -133.193449 
L 183.542485 -132.097709 
L 182.746541 -130.969213 
L 181.950596 -129.854388 
L 181.154651 -128.682551 
L 180.358707 -127.315309 
L 179.562762 -125.649489 
L 178.766817 -123.722181 
L 177.970873 -121.754755 
L 177.174928 -120.100797 
L 176.378983 -119.117163 
L 175.583039 -119.027399 
L 174.787094 -119.852635 
L 173.991149 -121.432723 
L 173.195205 -123.498749 
L 172.39926 -125.748526 
L 171.603315 -127.914727 
L 170.807371 -129.839473 
L 170.011426 -131.539282 
L 169.215481 -133.199361 
L 168.419537 -135.051361 
L 167.623592 -137.179695 
L 166.827647 -139.38989 
L 166.031702 -141.244905 
L 165.235758 -142.240071 
L 164.439813 -141.995294 
L 163.643868 -140.371464 
L 162.847924 -137.500974 
L 162.051979 -133.771438 
L 161.256034 -129.779607 
L 160.46009 -126.224751 
L 159.664145 -123.725161 
L 158.8682 -122.62275 
L 158.072256 -122.887519 
L 157.276311 -124.171915 
L 156.480366 -125.961934 
L 155.684422 -127.738248 
L 154.888477 -129.097342 
L 154.092532 -129.820062 
L 153.296588 -129.883285 
L 152.500643 -129.412581 
L 151.704698 -128.595424 
L 150.908753 -127.599829 
L 150.112809 -126.535043 
L 149.316864 -125.45344 
L 148.520919 -124.371376 
L 147.724975 -123.297111 
L 146.92903 -122.263855 
L 146.133085 -121.353469 
L 145.337141 -120.685329 
L 144.541196 -120.366641 
L 143.745251 -120.439597 
L 142.949307 -120.866672 
L 142.153362 -121.554216 
L 141.357417 -122.376282 
L 140.561473 -123.173297 
L 139.765528 -123.744233 
L 138.969583 -123.867013 
L 138.173639 -123.349082 
L 137.377694 -122.076665 
L 136.581749 -120.042281 
L 135.785805 -117.359792 
L 134.98986 -114.275457 
L 134.193915 -111.15907 
L 133.39797 -108.455201 
L 132.602026 -106.599602 
L 131.806081 -105.927191 
L 131.010136 -106.594895 
L 130.214192 -108.531878 
L 129.418247 -111.433629 
L 128.622302 -114.821433 
L 127.826358 -118.162847 
L 127.030413 -121.004841 
L 126.234468 -123.061752 
L 125.438524 -124.238714 
L 124.642579 -124.611501 
L 123.846634 -124.385188 
L 123.05069 -123.833711 
L 122.254745 -123.221211 
L 121.4588 -122.727253 
L 120.662856 -122.406752 
L 119.866911 -122.193721 
L 119.070966 -121.934724 
L 118.275021 -121.442565 
L 117.479077 -120.569678 
L 116.683132 -119.280876 
L 115.887187 -117.682431 
L 115.091243 -115.986931 
L 114.295298 -114.446874 
L 113.499353 -113.306399 
L 112.703409 -112.776501 
L 111.907464 -112.994872 
L 111.111519 -113.94717 
L 110.315575 -115.391656 
L 109.51963 -116.872048 
L 108.723685 -117.850103 
L 107.927741 -117.882475 
L 107.131796 -116.742921 
L 106.335851 -114.465569 
L 105.539907 -111.339493 
L 104.743962 -107.864633 
L 103.948017 -104.649496 
L 103.152073 -102.255735 
L 102.356128 -101.050302 
L 101.560183 -101.138724 
L 100.764238 -102.392647 
L 99.968294 -104.51953 
L 99.172349 -107.129986 
L 98.376404 -109.807074 
L 97.58046 -112.190173 
L 96.784515 -114.051318 
L 95.98857 -115.32753 
L 95.192626 -116.101431 
L 94.396681 -116.555446 
L 93.600736 -116.924257 
L 92.804792 -117.44377 
L 92.008847 -118.283558 
L 91.212902 -119.473732 
L 90.416958 -120.867038 
L 89.621013 -122.168976 
L 88.825068 -123.02646 
L 88.029124 -123.136751 
L 87.233179 -122.342426 
L 86.437234 -120.689764 
L 85.641289 -118.432204 
L 84.845345 -115.966985 
L 84.0494 -113.713896 
L 83.253455 -111.982964 
L 82.457511 -110.904762 
L 81.661566 -110.460432 
L 80.865621 -110.567738 
L 80.069677 -111.147187 
L 79.273732 -112.13084 
L 78.477787 -113.435175 
L 77.681843 -114.950576 
L 76.885898 -116.57066 
L 76.089953 -118.221928 
L 75.294009 -119.841936 
L 74.498064 -121.320635 
L 73.702119 -122.484957 
L 72.906175 -123.168098 
L 72.11023 -123.30298 
L 71.314285 -122.952088 
L 70.51834 -122.24759 
L 69.722396 -121.294745 
L 68.926451 -120.131075 
L 68.130506 -118.777736 
L 67.334562 -117.31709 
L 66.538617 -115.921988 
L 65.742672 -114.832836 
L 64.946728 -114.311023 
L 64.150783 -114.578041 
L 63.354838 -115.738003 
L 62.558894 -117.704427 
L 61.762949 -120.185435 
L 60.967004 -122.769952 
L 60.17106 -125.085549 
L 59.375115 -126.938818 
L 58.57917 -128.359054 
L 57.783226 -129.524809 
L 56.987281 -130.625701 
L 56.191336 -131.753834 
L 55.395392 -132.878933 
L 54.599447 -133.881264 
L 53.803502 -134.596794 
L 53.007557 -134.866936 
L 52.211613 -134.602239 
L 51.415668 -133.838755 
L 50.619723 -132.742586 
L 49.823779 -131.55084 
L 49.027834 -130.488131 
L 48.231889 -129.701614 
L 47.435945 -129.221755 
L 46.64 -128.944717 
z
" style="stroke: #e41a1c; stroke-opacity: 0.3"/>
    </defs>
    <g clip-path="url(#p9840cda73d)">
     <use xlink:href="#m372d6ff550" x="0" y="360" style="fill: #e41a1c; fill-opacity: 0.3; stroke: #e41a1c; stroke-opacity: 0.3"/>
    </g>
   </g>
   <g id="PolyCollection_2">
    <defs>
     <path id="mbae1e843d9" d="M 46.64 -120.721187 
L 46.64 -104.727615 
L 47.435945 -105.327923 
L 48.231889 -106.039687 
L 49.027834 -106.843885 
L 49.823779 -107.667818 
L 50.619723 -108.410699 
L 51.415668 -108.970026 
L 52.211613 -109.248255 
L 53.007557 -109.147287 
L 53.803502 -108.579574 
L 54.599447 -107.508536 
L 55.395392 -105.995376 
L 56.191336 -104.214891 
L 56.987281 -102.424365 
L 57.783226 -100.902668 
L 58.57917 -99.888467 
L 59.375115 -99.531819 
L 60.17106 -99.855483 
L 60.967004 -100.730019 
L 61.762949 -101.889938 
L 62.558894 -103.013473 
L 63.354838 -103.845347 
L 64.150783 -104.292314 
L 64.946728 -104.423842 
L 65.742672 -104.385962 
L 66.538617 -104.298375 
L 67.334562 -104.196011 
L 68.130506 -104.034036 
L 68.926451 -103.733226 
L 69.722396 -103.225548 
L 70.51834 -102.48245 
L 71.314285 -101.53379 
L 72.11023 -100.478793 
L 72.906175 -99.470936 
L 73.702119 -98.660214 
L 74.498064 -98.111538 
L 75.294009 -97.755473 
L 76.089953 -97.420625 
L 76.885898 -96.937777 
L 77.681843 -96.237207 
L 78.477787 -95.366809 
L 79.273732 -94.442232 
L 80.069677 -93.586252 
L 80.865621 -92.892418 
L 81.661566 -92.411709 
L 82.457511 -92.142797 
L 83.253455 -92.023688 
L 84.0494 -91.948008 
L 84.845345 -91.812983 
L 85.641289 -91.568062 
L 86.437234 -91.228077 
L 87.233179 -90.847359 
L 88.029124 -90.479637 
L 88.825068 -90.147337 
L 89.621013 -89.828882 
L 90.416958 -89.466456 
L 91.212902 -88.995645 
L 92.008847 -88.387559 
L 92.804792 -87.678466 
L 93.600736 -86.963302 
L 94.396681 -86.354673 
L 95.192626 -85.935191 
L 95.98857 -85.731133 
L 96.784515 -85.713617 
L 97.58046 -85.818042 
L 98.376404 -85.973818 
L 99.172349 -86.137534 
L 99.968294 -86.315928 
L 100.764238 -86.564081 
L 101.560183 -86.957481 
L 102.356128 -87.552378 
L 103.152073 -88.352222 
L 103.948017 -89.291015 
L 104.743962 -90.240701 
L 105.539907 -91.048237 
L 106.335851 -91.596978 
L 107.131796 -91.866416 
L 107.927741 -91.952426 
L 108.723685 -92.027422 
L 109.51963 -92.260697 
L 110.315575 -92.745768 
L 111.111519 -93.467994 
L 111.907464 -94.312354 
L 112.703409 -95.09495 
L 113.499353 -95.609281 
L 114.295298 -95.684187 
L 115.091243 -95.240627 
L 115.887187 -94.325753 
L 116.683132 -93.110838 
L 117.479077 -91.856624 
L 118.275021 -90.857969 
L 119.070966 -90.37742 
L 119.866911 -90.578171 
L 120.662856 -91.474832 
L 121.4588 -92.922323 
L 122.254745 -94.649156 
L 123.05069 -96.321895 
L 123.846634 -97.619927 
L 124.642579 -98.305254 
L 125.438524 -98.276287 
L 126.234468 -97.592612 
L 127.030413 -96.459762 
L 127.826358 -95.174656 
L 128.622302 -94.044821 
L 129.418247 -93.300493 
L 130.214192 -93.023127 
L 131.010136 -93.118969 
L 131.806081 -93.358736 
L 132.602026 -93.474085 
L 133.39797 -93.265102 
L 134.193915 -92.66481 
L 134.98986 -91.739612 
L 135.785805 -90.646595 
L 136.581749 -89.580333 
L 137.377694 -88.72381 
L 138.173639 -88.20211 
L 138.969583 -88.045976 
L 139.765528 -88.186433 
L 140.561473 -88.489372 
L 141.357417 -88.8091 
L 142.153362 -89.029914 
L 142.949307 -89.08477 
L 143.745251 -88.962234 
L 144.541196 -88.711459 
L 145.337141 -88.438075 
L 146.133085 -88.279408 
L 146.92903 -88.36383 
L 147.724975 -88.772671 
L 148.520919 -89.516466 
L 149.316864 -90.524467 
L 150.112809 -91.64607 
L 150.908753 -92.671031 
L 151.704698 -93.373988 
L 152.500643 -93.573356 
L 153.296588 -93.181699 
L 154.092532 -92.22918 
L 154.888477 -90.857157 
L 155.684422 -89.287639 
L 156.480366 -87.772816 
L 157.276311 -86.531205 
L 158.072256 -85.689938 
L 158.8682 -85.261201 
L 159.664145 -85.167982 
L 160.46009 -85.306255 
L 161.256034 -85.609845 
L 162.051979 -86.08473 
L 162.847924 -86.797675 
L 163.643868 -87.825478 
L 164.439813 -89.18616 
L 165.235758 -90.781369 
L 166.031702 -92.379289 
L 166.827647 -93.654889 
L 167.623592 -94.279645 
L 168.419537 -94.028666 
L 169.215481 -92.863814 
L 170.011426 -90.960972 
L 170.807371 -88.670186 
L 171.603315 -86.418831 
L 172.39926 -84.585959 
L 173.195205 -83.389082 
L 173.991149 -82.826204 
L 174.787094 -82.697627 
L 175.583039 -82.697685 
L 176.378983 -82.535313 
L 177.174928 -82.033733 
L 177.970873 -81.176111 
L 178.766817 -80.090233 
L 179.562762 -78.98595 
L 180.358707 -78.070567 
L 181.154651 -77.471773 
L 181.950596 -77.194567 
L 182.746541 -77.12547 
L 183.542485 -77.077548 
L 184.33843 -76.85464 
L 185.134375 -76.310858 
L 185.93032 -75.388891 
L 186.726264 -74.129771 
L 187.522209 -72.655074 
L 188.318154 -71.131254 
L 189.114098 -69.731563 
L 189.910043 -68.607971 
L 190.705988 -67.874986 
L 191.501932 -67.59937 
L 192.297877 -67.79221 
L 193.093822 -68.406643 
L 193.889766 -69.344288 
L 194.685711 -70.46727 
L 195.481656 -71.612357 
L 196.2776 -72.61148 
L 197.073545 -73.325392 
L 197.86949 -73.685129 
L 198.665434 -73.719003 
L 199.461379 -73.541384 
L 200.257324 -73.302014 
L 201.053269 -73.122657 
L 201.849213 -73.054207 
L 202.645158 -73.070042 
L 203.441103 -73.092303 
L 204.237047 -73.040106 
L 205.032992 -72.885084 
L 205.828937 -72.692104 
L 206.624881 -72.619893 
L 207.420826 -72.870958 
L 208.216771 -73.60861 
L 209.012715 -74.879561 
L 209.80866 -76.577255 
L 210.604605 -78.460251 
L 211.400549 -80.218952 
L 212.196494 -81.570208 
L 212.992439 -82.349411 
L 213.788383 -82.56543 
L 214.584328 -82.393687 
L 215.380273 -82.107624 
L 216.176218 -81.975239 
L 216.972162 -82.160113 
L 217.768107 -82.66329 
L 218.564052 -83.32932 
L 219.359996 -83.917889 
L 220.155941 -84.211904 
L 220.951886 -84.107757 
L 221.74783 -83.6396 
L 222.543775 -82.932902 
L 223.33972 -82.128281 
L 224.135664 -81.325818 
L 224.931609 -80.572954 
L 225.727554 -79.884899 
L 226.523498 -79.272654 
L 227.319443 -78.762216 
L 228.115388 -78.39936 
L 228.911332 -78.236848 
L 229.707277 -78.304514 
L 230.503222 -78.573743 
L 231.299166 -78.937517 
L 232.095111 -79.22401 
L 232.891056 -79.246052 
L 233.687001 -78.870143 
L 234.482945 -78.076251 
L 235.27889 -76.978488 
L 236.074835 -75.789532 
L 236.870779 -74.736999 
L 237.666724 -73.96674 
L 238.462669 -73.479421 
L 239.258613 -73.133928 
L 240.054558 -72.720832 
L 240.850503 -72.075492 
L 241.646447 -71.17744 
L 242.442392 -70.183136 
L 243.238337 -69.369955 
L 244.034281 -69.017299 
L 244.830226 -69.284217 
L 245.626171 -70.138491 
L 246.422115 -71.359022 
L 247.21806 -72.601982 
L 248.014005 -73.508116 
L 248.80995 -73.821707 
L 249.605894 -73.479395 
L 250.401839 -72.623735 
L 251.197784 -71.526037 
L 251.993728 -70.459079 
L 252.789673 -69.595111 
L 253.585618 -68.981791 
L 254.381562 -68.590324 
L 255.177507 -68.389314 
L 255.973452 -68.400422 
L 256.769396 -68.71533 
L 257.565341 -69.468325 
L 258.361286 -70.766892 
L 259.15723 -72.601269 
L 259.953175 -74.779608 
L 260.74912 -76.939292 
L 261.545064 -78.648477 
L 262.341009 -79.558056 
L 263.136954 -79.535737 
L 263.932898 -78.726805 
L 264.728843 -77.520087 
L 265.524788 -76.429224 
L 266.320733 -75.925288 
L 267.116677 -76.278858 
L 267.912622 -77.475151 
L 268.708567 -79.238927 
L 269.504511 -81.154035 
L 270.300456 -82.818028 
L 271.096401 -83.964683 
L 271.892345 -84.514873 
L 272.68829 -84.553352 
L 273.484235 -84.255225 
L 274.280179 -83.798504 
L 275.076124 -83.299739 
L 275.872069 -82.795959 
L 276.668013 -82.270718 
L 277.463958 -81.699603 
L 278.259903 -81.086405 
L 279.055847 -80.474272 
L 279.851792 -79.932208 
L 280.647737 -79.526552 
L 281.443682 -79.291248 
L 282.239626 -79.213342 
L 283.035571 -79.245725 
L 283.831516 -79.34309 
L 284.62746 -79.498781 
L 285.423405 -79.757402 
L 286.21935 -80.194545 
L 287.015294 -80.875721 
L 287.811239 -81.8156 
L 288.607184 -82.955291 
L 289.403128 -84.167961 
L 290.199073 -85.294676 
L 290.995018 -86.199773 
L 291.790962 -86.821909 
L 292.586907 -87.195442 
L 293.382852 -87.432509 
L 294.178796 -87.677359 
L 294.974741 -88.054593 
L 295.770686 -88.628681 
L 296.56663 -89.38391 
L 297.362575 -90.229521 
L 298.15852 -91.030121 
L 298.954465 -91.650466 
L 299.750409 -91.99327 
L 300.546354 -92.012942 
L 301.342299 -91.707127 
L 302.138243 -91.102516 
L 302.934188 -90.247133 
L 303.730133 -89.206938 
L 304.526077 -88.059122 
L 305.322022 -86.88242 
L 306.117967 -85.752259 
L 306.913911 -84.743058 
L 307.709856 -83.927559 
L 308.505801 -83.362158 
L 309.301745 -83.064107 
L 310.09769 -83.002361 
L 310.893635 -83.116861 
L 311.689579 -83.355156 
L 312.485524 -83.696475 
L 313.281469 -84.142617 
L 314.077414 -84.684839 
L 314.873358 -85.275995 
L 315.669303 -85.830213 
L 316.465248 -86.249176 
L 317.261192 -86.456342 
L 318.057137 -86.420892 
L 318.853082 -86.16579 
L 319.649026 -85.763082 
L 320.444971 -85.317737 
L 321.240916 -84.937829 
L 322.03686 -84.694395 
L 322.832805 -84.586966 
L 323.62875 -84.536503 
L 324.424694 -84.415935 
L 325.220639 -84.105614 
L 326.016584 -83.544207 
L 326.812528 -82.749919 
L 327.608473 -81.808786 
L 328.404418 -80.845648 
L 329.200363 -79.994243 
L 329.996307 -79.371968 
L 330.792252 -79.058606 
L 331.588197 -79.082109 
L 332.384141 -79.417785 
L 333.180086 -80.000272 
L 333.976031 -80.737862 
L 334.771975 -81.519498 
L 335.56792 -82.216357 
L 336.363865 -82.689009 
L 337.159809 -82.808119 
L 337.955754 -82.486021 
L 338.751699 -81.708127 
L 339.547643 -80.550886 
L 340.343588 -79.17499 
L 341.139533 -77.789241 
L 341.935477 -76.593335 
L 342.731422 -75.721243 
L 343.527367 -75.208919 
L 344.323311 -74.996752 
L 345.119256 -74.959878 
L 345.915201 -74.953 
L 346.711146 -74.859395 
L 347.50709 -74.633725 
L 348.303035 -74.323385 
L 349.09898 -74.054434 
L 349.894924 -73.983116 
L 350.690869 -74.233515 
L 351.486814 -74.848486 
L 352.282758 -75.769636 
L 353.078703 -76.847345 
L 353.874648 -77.876938 
L 354.670592 -78.655988 
L 355.466537 -79.048979 
L 356.262482 -79.033907 
L 357.058426 -78.707191 
L 357.854371 -78.24424 
L 358.650316 -77.837072 
L 359.44626 -77.636527 
L 360.242205 -77.714215 
L 361.03815 -78.046454 
L 361.834095 -78.521317 
L 362.630039 -78.97244 
L 363.425984 -79.235305 
L 364.221929 -79.206886 
L 365.017873 -78.884606 
L 365.813818 -78.372107 
L 366.609763 -77.854767 
L 367.405707 -77.553338 
L 368.201652 -77.662412 
L 368.997597 -78.284428 
L 369.793541 -79.380905 
L 370.589486 -80.765517 
L 371.385431 -82.147916 
L 372.181375 -83.212176 
L 372.97732 -83.699262 
L 373.773265 -83.46815 
L 374.569209 -82.525697 
L 375.365154 -81.025196 
L 376.161099 -79.23394 
L 376.957043 -77.470407 
L 377.752988 -76.020861 
L 378.548933 -75.060491 
L 379.344878 -74.611041 
L 380.140822 -74.554332 
L 380.936767 -74.693742 
L 381.732712 -74.831408 
L 382.528656 -74.825976 
L 383.324601 -74.616349 
L 384.120546 -74.220098 
L 384.91649 -73.719459 
L 385.712435 -73.236572 
L 386.50838 -72.894738 
L 387.304324 -72.774111 
L 388.100269 -72.882621 
L 388.896214 -73.156648 
L 389.692158 -73.486009 
L 390.488103 -73.746413 
L 391.284048 -73.829881 
L 392.079992 -73.675077 
L 392.875937 -73.296859 
L 393.671882 -72.801137 
L 394.467827 -72.367767 
L 395.263771 -72.19954 
L 396.059716 -72.454848 
L 396.855661 -73.188169 
L 397.651605 -74.316817 
L 398.44755 -75.625157 
L 399.243495 -76.810813 
L 400.039439 -77.565052 
L 400.835384 -77.662571 
L 401.631329 -77.027828 
L 402.427273 -75.755729 
L 403.223218 -74.085178 
L 404.019163 -72.337997 
L 404.815107 -70.838501 
L 405.611052 -69.830642 
L 406.406997 -69.4166 
L 407.202941 -69.542826 
L 407.998886 -70.043829 
L 408.794831 -70.725177 
L 409.590775 -71.445626 
L 410.38672 -72.160502 
L 411.182665 -72.912248 
L 411.97861 -73.78122 
L 412.774554 -74.823355 
L 413.570499 -76.019466 
L 413.570499 -115.369565 
L 413.570499 -115.369565 
L 412.774554 -113.967936 
L 411.97861 -112.739256 
L 411.182665 -111.72531 
L 410.38672 -110.879785 
L 409.590775 -110.123421 
L 408.794831 -109.40869 
L 407.998886 -108.762375 
L 407.202941 -108.28964 
L 406.406997 -108.142051 
L 405.611052 -108.461984 
L 404.815107 -109.318854 
L 404.019163 -110.656596 
L 403.223218 -112.275956 
L 402.427273 -113.869709 
L 401.631329 -115.106881 
L 400.835384 -115.733826 
L 400.039439 -115.648517 
L 399.243495 -114.920547 
L 398.44755 -113.75813 
L 397.651605 -112.442192 
L 396.855661 -111.250186 
L 396.059716 -110.388801 
L 395.263771 -109.952197 
L 394.467827 -109.916408 
L 393.671882 -110.167057 
L 392.875937 -110.544248 
L 392.079992 -110.88739 
L 391.284048 -111.072765 
L 390.488103 -111.042403 
L 389.692158 -110.817529 
L 388.896214 -110.486944 
L 388.100269 -110.171574 
L 387.304324 -109.98156 
L 386.50838 -109.984578 
L 385.712435 -110.191607 
L 384.91649 -110.555315 
L 384.120546 -110.979265 
L 383.324601 -111.344612 
L 382.528656 -111.556195 
L 381.732712 -111.591017 
L 380.936767 -111.520994 
L 380.140822 -111.494461 
L 379.344878 -111.686708 
L 378.548933 -112.244111 
L 377.752988 -113.239696 
L 376.957043 -114.644612 
L 376.161099 -116.316776 
L 375.365154 -118.013614 
L 374.569209 -119.437573 
L 373.773265 -120.312095 
L 372.97732 -120.465904 
L 372.181375 -119.890702 
L 371.385431 -118.745343 
L 370.589486 -117.305092 
L 369.793541 -115.880327 
L 368.997597 -114.737448 
L 368.201652 -114.043188 
L 367.405707 -113.837352 
L 366.609763 -114.03369 
L 365.813818 -114.450822 
L 365.017873 -114.871054 
L 364.221929 -115.111085 
L 363.425984 -115.077889 
L 362.630039 -114.789184 
L 361.834095 -114.356821 
L 361.03815 -113.945493 
L 360.242205 -113.719498 
L 359.44626 -113.78711 
L 358.650316 -114.15669 
L 357.854371 -114.723968 
L 357.058426 -115.300973 
L 356.262482 -115.675833 
L 355.466537 -115.677854 
L 354.670592 -115.225949 
L 353.874648 -114.352172 
L 353.078703 -113.19946 
L 352.282758 -111.990746 
L 351.486814 -110.968753 
L 350.690869 -110.32074 
L 349.894924 -110.118487 
L 349.09898 -110.301176 
L 348.303035 -110.706488 
L 347.50709 -111.133243 
L 346.711146 -111.412324 
L 345.915201 -111.465914 
L 345.119256 -111.337448 
L 344.323311 -111.178123 
L 343.527367 -111.189357 
L 342.731422 -111.542724 
L 341.935477 -112.313242 
L 341.139533 -113.453671 
L 340.343588 -114.813173 
L 339.547643 -116.184024 
L 338.751699 -117.356345 
L 337.955754 -118.165924 
L 337.159809 -118.524934 
L 336.363865 -118.42997 
L 335.56792 -117.94961 
L 334.771975 -117.201092 
L 333.976031 -116.326091 
L 333.180086 -115.469928 
L 332.384141 -114.76427 
L 331.588197 -114.313986 
L 330.792252 -114.189324 
L 329.996307 -114.420693 
L 329.200363 -114.990942 
L 328.404418 -115.826886 
L 327.608473 -116.802307 
L 326.812528 -117.76376 
L 326.016584 -118.574369 
L 325.220639 -119.154162 
L 324.424694 -119.496043 
L 323.62875 -119.653846 
L 322.832805 -119.715038 
L 322.03686 -119.771493 
L 321.240916 -119.892999 
L 320.444971 -120.104958 
L 319.649026 -120.376972 
L 318.853082 -120.6322 
L 318.057137 -120.779325 
L 317.261192 -120.753184 
L 316.465248 -120.540779 
L 315.669303 -120.177891 
L 314.873358 -119.722949 
L 314.077414 -119.230783 
L 313.281469 -118.744331 
L 312.485524 -118.302897 
L 311.689579 -117.951002 
L 310.893635 -117.735253 
L 310.09769 -117.693056 
L 309.301745 -117.847588 
L 308.505801 -118.214338 
L 307.709856 -118.807063 
L 306.913911 -119.62921 
L 306.117967 -120.654009 
L 305.322022 -121.812386 
L 304.526077 -123.003772 
L 303.730133 -124.123527 
L 302.934188 -125.085427 
L 302.138243 -125.825447 
L 301.342299 -126.294017 
L 300.546354 -126.454278 
L 299.750409 -126.293668 
L 298.954465 -125.839513 
L 298.15852 -125.164986 
L 297.362575 -124.380435 
L 296.56663 -123.612967 
L 295.770686 -122.977237 
L 294.974741 -122.540278 
L 294.178796 -122.290872 
L 293.382852 -122.132132 
L 292.586907 -121.910192 
L 291.790962 -121.47139 
L 290.995018 -120.722319 
L 290.199073 -119.666401 
L 289.403128 -118.404307 
L 288.607184 -117.100615 
L 287.811239 -115.928747 
L 287.015294 -115.013188 
L 286.21935 -114.392515 
L 285.423405 -114.021202 
L 284.62746 -113.808442 
L 283.831516 -113.671006 
L 283.035571 -113.57175 
L 282.239626 -113.528096 
L 281.443682 -113.59221 
L 280.647737 -113.8149 
L 279.851792 -114.209569 
L 279.055847 -114.734467 
L 278.259903 -115.306408 
L 277.463958 -115.842152 
L 276.668013 -116.302864 
L 275.872069 -116.710539 
L 275.076124 -117.121511 
L 274.280179 -117.569885 
L 273.484235 -118.012751 
L 272.68829 -118.309361 
L 271.892345 -118.252108 
L 271.096401 -117.645559 
L 270.300456 -116.405451 
L 269.504511 -114.632023 
L 268.708567 -112.615791 
L 267.912622 -110.763372 
L 267.116677 -109.469279 
L 266.320733 -108.981895 
L 265.524788 -109.310397 
L 264.728843 -110.204771 
L 263.932898 -111.222195 
L 263.136954 -111.867193 
L 262.341009 -111.759733 
L 261.545064 -110.762973 
L 260.74912 -109.015808 
L 259.953175 -106.862861 
L 259.15723 -104.722084 
L 258.361286 -102.947174 
L 257.565341 -101.731003 
L 256.769396 -101.077516 
L 255.973452 -100.850008 
L 255.177507 -100.8746 
L 254.381562 -101.04438 
L 253.585618 -101.362302 
L 252.789673 -101.898853 
L 251.993728 -102.699525 
L 251.197784 -103.708002 
L 250.401839 -104.74993 
L 249.605894 -105.57738 
L 248.80995 -105.948518 
L 248.014005 -105.716969 
L 247.21806 -104.905655 
L 246.422115 -103.730134 
L 245.626171 -102.541544 
L 244.830226 -101.699177 
L 244.034281 -101.431978 
L 243.238337 -101.761127 
L 242.442392 -102.518283 
L 241.646447 -103.438779 
L 240.850503 -104.277783 
L 240.054558 -104.900641 
L 239.258613 -105.319372 
L 238.462669 -105.668171 
L 237.666724 -106.129457 
L 236.870779 -106.840601 
L 236.074835 -107.821707 
L 235.27889 -108.956348 
L 234.482945 -110.032865 
L 233.687001 -110.827716 
L 232.891056 -111.195027 
L 232.095111 -111.123407 
L 231.299166 -110.735387 
L 230.503222 -110.232417 
L 229.707277 -109.81456 
L 228.911332 -109.613547 
L 228.115388 -109.666802 
L 227.319443 -109.937527 
L 226.523498 -110.363744 
L 225.727554 -110.905153 
L 224.931609 -111.55749 
L 224.135664 -112.324496 
L 223.33972 -113.16963 
L 222.543775 -113.988963 
L 221.74783 -114.632098 
L 220.951886 -114.960441 
L 220.155941 -114.90649 
L 219.359996 -114.503033 
L 218.564052 -113.875452 
L 217.768107 -113.207405 
L 216.972162 -112.688217 
L 216.176218 -112.447623 
L 215.380273 -112.49597 
L 214.584328 -112.700509 
L 213.788383 -112.819334 
L 212.992439 -112.586084 
L 212.196494 -111.812059 
L 211.400549 -110.46449 
L 210.604605 -108.689725 
L 209.80866 -106.770277 
L 209.012715 -105.030052 
L 208.216771 -103.725756 
L 207.420826 -102.970457 
L 206.624881 -102.718167 
L 205.828937 -102.806309 
L 205.032992 -103.029494 
L 204.237047 -103.214481 
L 203.441103 -103.273295 
L 202.645158 -103.21815 
L 201.849213 -103.131921 
L 201.053269 -103.107542 
L 200.257324 -103.188199 
L 199.461379 -103.339002 
L 198.665434 -103.458478 
L 197.86949 -103.415288 
L 197.073545 -103.090922 
L 196.2776 -102.418643 
L 195.481656 -101.41356 
L 194.685711 -100.183221 
L 193.889766 -98.907747 
L 193.093822 -97.793289 
L 192.297877 -97.020045 
L 191.501932 -96.707772 
L 190.705988 -96.905463 
L 189.910043 -97.595015 
L 189.114098 -98.697297 
L 188.318154 -100.079358 
L 187.522209 -101.568557 
L 186.726264 -102.977172 
L 185.93032 -104.135517 
L 185.134375 -104.92856 
L 184.33843 -105.328457 
L 183.542485 -105.411102 
L 182.746541 -105.343591 
L 181.950596 -105.338179 
L 181.154651 -105.584224 
L 180.358707 -106.181961 
L 179.562762 -107.103268 
L 178.766817 -108.195973 
L 177.970873 -109.234882 
L 177.174928 -110.006662 
L 176.378983 -110.399446 
L 175.583039 -110.459988 
L 174.787094 -110.391114 
L 173.991149 -110.488024 
L 173.195205 -111.037723 
L 172.39926 -112.216602 
L 171.603315 -114.01765 
L 170.807371 -116.229956 
L 170.011426 -118.481782 
L 169.215481 -120.340525 
L 168.419537 -121.439894 
L 167.623592 -121.588604 
L 166.827647 -120.819672 
L 166.031702 -119.364823 
L 165.235758 -117.569462 
L 164.439813 -115.783342 
L 163.643868 -114.265638 
L 162.847924 -113.134611 
L 162.051979 -112.37531 
L 161.256034 -111.896322 
L 160.46009 -111.605573 
L 159.664145 -111.468222 
L 158.8682 -111.522665 
L 158.072256 -111.854137 
L 157.276311 -112.543179 
L 156.480366 -113.610817 
L 155.684422 -114.979585 
L 154.888477 -116.467173 
L 154.092532 -117.823476 
L 153.296588 -118.803429 
L 152.500643 -119.244393 
L 151.704698 -119.110962 
L 150.908753 -118.490816 
L 150.112809 -117.55417 
L 149.316864 -116.501935 
L 148.520919 -115.519698 
L 147.724975 -114.743381 
L 146.92903 -114.240662 
L 146.133085 -114.012169 
L 145.337141 -114.007982 
L 144.541196 -114.145384 
L 143.745251 -114.319008 
L 142.949307 -114.412401 
L 142.153362 -114.326384 
L 141.357417 -114.020705 
L 140.561473 -113.543473 
L 139.765528 -113.026237 
L 138.969583 -112.646222 
L 138.173639 -112.573812 
L 137.377694 -112.919727 
L 136.581749 -113.688659 
L 135.785805 -114.754235 
L 134.98986 -115.881437 
L 134.193915 -116.805671 
L 133.39797 -117.336058 
L 132.602026 -117.428265 
L 131.806081 -117.193088 
L 131.010136 -116.848598 
L 130.214192 -116.647614 
L 129.418247 -116.803891 
L 128.622302 -117.425064 
L 127.826358 -118.464121 
L 127.030413 -119.712296 
L 126.234468 -120.849086 
L 125.438524 -121.537626 
L 124.642579 -121.529562 
L 123.846634 -120.741681 
L 123.05069 -119.281486 
L 122.254745 -117.41684 
L 121.4588 -115.501503 
L 120.662856 -113.883245 
L 119.866911 -112.825769 
L 119.070966 -112.463068 
L 118.275021 -112.785416 
L 117.479077 -113.64855 
L 116.683132 -114.803933 
L 115.887187 -115.951893 
L 115.091243 -116.810242 
L 114.295298 -117.179261 
L 113.499353 -116.985005 
L 112.703409 -116.292492 
L 111.907464 -115.285382 
L 111.111519 -114.210592 
L 110.315575 -113.297294 
L 109.51963 -112.679559 
L 108.723685 -112.359485 
L 107.927741 -112.225841 
L 107.131796 -112.108938 
L 106.335851 -111.840398 
L 105.539907 -111.301989 
L 104.743962 -110.462212 
L 103.948017 -109.393066 
L 103.152073 -108.250241 
L 102.356128 -107.213295 
L 101.560183 -106.410674 
L 100.764238 -105.86981 
L 99.968294 -105.519046 
L 99.172349 -105.236391 
L 98.376404 -104.916514 
L 97.58046 -104.524733 
L 96.784515 -104.115564 
L 95.98857 -103.806422 
L 95.192626 -103.716733 
L 94.396681 -103.904241 
L 93.600736 -104.335186 
L 92.804792 -104.90207 
L 92.008847 -105.47106 
L 91.212902 -105.930316 
L 90.416958 -106.222158 
L 89.621013 -106.353967 
L 88.825068 -106.384548 
L 88.029124 -106.386709 
L 87.233179 -106.402552 
L 86.437234 -106.420552 
L 85.641289 -106.391845 
L 84.845345 -106.272989 
L 84.0494 -106.064851 
L 83.253455 -105.827953 
L 82.457511 -105.673229 
L 81.661566 -105.729879 
L 80.865621 -106.089604 
L 80.069677 -106.745323 
L 79.273732 -107.570766 
L 78.477787 -108.37469 
L 77.681843 -109.00311 
L 76.885898 -109.419987 
L 76.089953 -109.711789 
L 75.294009 -110.019836 
L 74.498064 -110.463803 
L 73.702119 -111.108889 
L 72.906175 -111.962155 
L 72.11023 -112.967648 
L 71.314285 -114.00641 
L 70.51834 -114.926814 
L 69.722396 -115.60891 
L 68.926451 -116.025092 
L 68.130506 -116.24709 
L 67.334562 -116.38569 
L 66.538617 -116.504545 
L 65.742672 -116.573035 
L 64.946728 -116.488761 
L 64.150783 -116.145533 
L 63.354838 -115.499146 
L 62.558894 -114.595081 
L 61.762949 -113.558823 
L 60.967004 -112.579352 
L 60.17106 -111.892782 
L 59.375115 -111.7376 
L 58.57917 -112.274124 
L 57.783226 -113.507151 
L 56.987281 -115.265963 
L 56.191336 -117.261741 
L 55.395392 -119.186747 
L 54.599447 -120.798155 
L 53.803502 -121.955572 
L 53.007557 -122.619721 
L 52.211613 -122.835644 
L 51.415668 -122.711058 
L 50.619723 -122.384598 
L 49.823779 -121.984152 
L 49.027834 -121.593913 
L 48.231889 -121.250183 
L 47.435945 -120.960664 
L 46.64 -120.721187 
z
" style="stroke: #377eb8; stroke-opacity: 0.3"/>
    </defs>
    <g clip-path="url(#p9840cda73d)">
     <use xlink:href="#mbae1e843d9" x="0" y="360" style="fill: #377eb8; fill-opacity: 0.3; stroke: #377eb8; stroke-opacity: 0.3"/>
    </g>
   </g>
   <g id="patch_3">
    <path d="M 229.866466 318.04 
L 229.866466 71.732 
L 331.747385 71.732 
L 331.747385 318.04 
z
" clip-path="url(#p9840cda73d)" style="fill: #808080; opacity: 0.3"/>
   </g>
   <g id="matplotlib.axis_1">
    <g id="xtick_1">
     <g id="line2d_1">
      <defs>
       <path id="m1415f1e74d" d="M 0 0 
L 0 3.5 
" style="stroke: #000000; stroke-width: 0.8"/>
      </defs>
      <g>
       <use xlink:href="#m1415f1e74d" x="87.233179" y="318.04" style="stroke: #000000; stroke-width: 0.8"/>
      </g>
     </g>
     <g id="text_1">
      <!-- 0.0 -->
      <g transform="translate(79.281616 332.638438)scale(0.1 -0.1)">
       <defs>
        <path id="DejaVuSans-30" d="M 2034 4250 
Q 1547 4250 1301 3770 
Q 1056 3291 1056 2328 
Q 1056 1369 1301 889 
Q 1547 409 2034 409 
Q 2525 409 2770 889 
Q 3016 1369 3016 2328 
Q 3016 3291 2770 3770 
Q 2525 4250 2034 4250 
z
M 2034 4750 
Q 2819 4750 3233 4129 
Q 3647 3509 3647 2328 
Q 3647 1150 3233 529 
Q 2819 -91 2034 -91 
Q 1250 -91 836 529 
Q 422 1150 422 2328 
Q 422 3509 836 4129 
Q 1250 4750 2034 4750 
z
" transform="scale(0.015625)"/>
        <path id="DejaVuSans-2e" d="M 684 794 
L 1344 794 
L 1344 0 
L 684 0 
L 684 794 
z
" transform="scale(0.015625)"/>
       </defs>
       <use xlink:href="#DejaVuSans-30"/>
       <use xlink:href="#DejaVuSans-2e" x="63.623047"/>
       <use xlink:href="#DejaVuSans-30" x="95.410156"/>
      </g>
     </g>
    </g>
    <g id="xtick_2">
     <g id="line2d_2">
      <g>
       <use xlink:href="#m1415f1e74d" x="168.737914" y="318.04" style="stroke: #000000; stroke-width: 0.8"/>
      </g>
     </g>
     <g id="text_2">
      <!-- 0.2 -->
      <g transform="translate(160.786352 332.638438)scale(0.1 -0.1)">
       <defs>
        <path id="DejaVuSans-32" d="M 1228 531 
L 3431 531 
L 3431 0 
L 469 0 
L 469 531 
Q 828 903 1448 1529 
Q 2069 2156 2228 2338 
Q 2531 2678 2651 2914 
Q 2772 3150 2772 3378 
Q 2772 3750 2511 3984 
Q 2250 4219 1831 4219 
Q 1534 4219 1204 4116 
Q 875 4013 500 3803 
L 500 4441 
Q 881 4594 1212 4672 
Q 1544 4750 1819 4750 
Q 2544 4750 2975 4387 
Q 3406 4025 3406 3419 
Q 3406 3131 3298 2873 
Q 3191 2616 2906 2266 
Q 2828 2175 2409 1742 
Q 1991 1309 1228 531 
z
" transform="scale(0.015625)"/>
       </defs>
       <use xlink:href="#DejaVuSans-30"/>
       <use xlink:href="#DejaVuSans-2e" x="63.623047"/>
       <use xlink:href="#DejaVuSans-32" x="95.410156"/>
      </g>
     </g>
    </g>
    <g id="xtick_3">
     <g id="line2d_3">
      <g>
       <use xlink:href="#m1415f1e74d" x="250.24265" y="318.04" style="stroke: #000000; stroke-width: 0.8"/>
      </g>
     </g>
     <g id="text_3">
      <!-- 0.4 -->
      <g transform="translate(242.291087 332.638438)scale(0.1 -0.1)">
       <defs>
        <path id="DejaVuSans-34" d="M 2419 4116 
L 825 1625 
L 2419 1625 
L 2419 4116 
z
M 2253 4666 
L 3047 4666 
L 3047 1625 
L 3713 1625 
L 3713 1100 
L 3047 1100 
L 3047 0 
L 2419 0 
L 2419 1100 
L 313 1100 
L 313 1709 
L 2253 4666 
z
" transform="scale(0.015625)"/>
       </defs>
       <use xlink:href="#DejaVuSans-30"/>
       <use xlink:href="#DejaVuSans-2e" x="63.623047"/>
       <use xlink:href="#DejaVuSans-34" x="95.410156"/>
      </g>
     </g>
    </g>
    <g id="xtick_4">
     <g id="line2d_4">
      <g>
       <use xlink:href="#m1415f1e74d" x="331.747385" y="318.04" style="stroke: #000000; stroke-width: 0.8"/>
      </g>
     </g>
     <g id="text_4">
      <!-- 0.6 -->
      <g transform="translate(323.795823 332.638438)scale(0.1 -0.1)">
       <defs>
        <path id="DejaVuSans-36" d="M 2113 2584 
Q 1688 2584 1439 2293 
Q 1191 2003 1191 1497 
Q 1191 994 1439 701 
Q 1688 409 2113 409 
Q 2538 409 2786 701 
Q 3034 994 3034 1497 
Q 3034 2003 2786 2293 
Q 2538 2584 2113 2584 
z
M 3366 4563 
L 3366 3988 
Q 3128 4100 2886 4159 
Q 2644 4219 2406 4219 
Q 1781 4219 1451 3797 
Q 1122 3375 1075 2522 
Q 1259 2794 1537 2939 
Q 1816 3084 2150 3084 
Q 2853 3084 3261 2657 
Q 3669 2231 3669 1497 
Q 3669 778 3244 343 
Q 2819 -91 2113 -91 
Q 1303 -91 875 529 
Q 447 1150 447 2328 
Q 447 3434 972 4092 
Q 1497 4750 2381 4750 
Q 2619 4750 2861 4703 
Q 3103 4656 3366 4563 
z
" transform="scale(0.015625)"/>
       </defs>
       <use xlink:href="#DejaVuSans-30"/>
       <use xlink:href="#DejaVuSans-2e" x="63.623047"/>
       <use xlink:href="#DejaVuSans-36" x="95.410156"/>
      </g>
     </g>
    </g>
    <g id="xtick_5">
     <g id="line2d_5">
      <g>
       <use xlink:href="#m1415f1e74d" x="413.252121" y="318.04" style="stroke: #000000; stroke-width: 0.8"/>
      </g>
     </g>
     <g id="text_5">
      <!-- 0.8 -->
      <g transform="translate(405.300559 332.638438)scale(0.1 -0.1)">
       <defs>
        <path id="DejaVuSans-38" d="M 2034 2216 
Q 1584 2216 1326 1975 
Q 1069 1734 1069 1313 
Q 1069 891 1326 650 
Q 1584 409 2034 409 
Q 2484 409 2743 651 
Q 3003 894 3003 1313 
Q 3003 1734 2745 1975 
Q 2488 2216 2034 2216 
z
M 1403 2484 
Q 997 2584 770 2862 
Q 544 3141 544 3541 
Q 544 4100 942 4425 
Q 1341 4750 2034 4750 
Q 2731 4750 3128 4425 
Q 3525 4100 3525 3541 
Q 3525 3141 3298 2862 
Q 3072 2584 2669 2484 
Q 3125 2378 3379 2068 
Q 3634 1759 3634 1313 
Q 3634 634 3220 271 
Q 2806 -91 2034 -91 
Q 1263 -91 848 271 
Q 434 634 434 1313 
Q 434 1759 690 2068 
Q 947 2378 1403 2484 
z
M 1172 3481 
Q 1172 3119 1398 2916 
Q 1625 2713 2034 2713 
Q 2441 2713 2670 2916 
Q 2900 3119 2900 3481 
Q 2900 3844 2670 4047 
Q 2441 4250 2034 4250 
Q 1625 4250 1398 4047 
Q 1172 3844 1172 3481 
z
" transform="scale(0.015625)"/>
       </defs>
       <use xlink:href="#DejaVuSans-30"/>
       <use xlink:href="#DejaVuSans-2e" x="63.623047"/>
       <use xlink:href="#DejaVuSans-38" x="95.410156"/>
      </g>
     </g>
    </g>
    <g id="text_6">
     <!-- seconds -->
     <g transform="translate(209.667749 346.316563)scale(0.1 -0.1)">
      <defs>
       <path id="DejaVuSans-73" d="M 2834 3397 
L 2834 2853 
Q 2591 2978 2328 3040 
Q 2066 3103 1784 3103 
Q 1356 3103 1142 2972 
Q 928 2841 928 2578 
Q 928 2378 1081 2264 
Q 1234 2150 1697 2047 
L 1894 2003 
Q 2506 1872 2764 1633 
Q 3022 1394 3022 966 
Q 3022 478 2636 193 
Q 2250 -91 1575 -91 
Q 1294 -91 989 -36 
Q 684 19 347 128 
L 347 722 
Q 666 556 975 473 
Q 1284 391 1588 391 
Q 1994 391 2212 530 
Q 2431 669 2431 922 
Q 2431 1156 2273 1281 
Q 2116 1406 1581 1522 
L 1381 1569 
Q 847 1681 609 1914 
Q 372 2147 372 2553 
Q 372 3047 722 3315 
Q 1072 3584 1716 3584 
Q 2034 3584 2315 3537 
Q 2597 3491 2834 3397 
z
" transform="scale(0.015625)"/>
       <path id="DejaVuSans-65" d="M 3597 1894 
L 3597 1613 
L 953 1613 
Q 991 1019 1311 708 
Q 1631 397 2203 397 
Q 2534 397 2845 478 
Q 3156 559 3463 722 
L 3463 178 
Q 3153 47 2828 -22 
Q 2503 -91 2169 -91 
Q 1331 -91 842 396 
Q 353 884 353 1716 
Q 353 2575 817 3079 
Q 1281 3584 2069 3584 
Q 2775 3584 3186 3129 
Q 3597 2675 3597 1894 
z
M 3022 2063 
Q 3016 2534 2758 2815 
Q 2500 3097 2075 3097 
Q 1594 3097 1305 2825 
Q 1016 2553 972 2059 
L 3022 2063 
z
" transform="scale(0.015625)"/>
       <path id="DejaVuSans-63" d="M 3122 3366 
L 3122 2828 
Q 2878 2963 2633 3030 
Q 2388 3097 2138 3097 
Q 1578 3097 1268 2742 
Q 959 2388 959 1747 
Q 959 1106 1268 751 
Q 1578 397 2138 397 
Q 2388 397 2633 464 
Q 2878 531 3122 666 
L 3122 134 
Q 2881 22 2623 -34 
Q 2366 -91 2075 -91 
Q 1284 -91 818 406 
Q 353 903 353 1747 
Q 353 2603 823 3093 
Q 1294 3584 2113 3584 
Q 2378 3584 2631 3529 
Q 2884 3475 3122 3366 
z
" transform="scale(0.015625)"/>
       <path id="DejaVuSans-6f" d="M 1959 3097 
Q 1497 3097 1228 2736 
Q 959 2375 959 1747 
Q 959 1119 1226 758 
Q 1494 397 1959 397 
Q 2419 397 2687 759 
Q 2956 1122 2956 1747 
Q 2956 2369 2687 2733 
Q 2419 3097 1959 3097 
z
M 1959 3584 
Q 2709 3584 3137 3096 
Q 3566 2609 3566 1747 
Q 3566 888 3137 398 
Q 2709 -91 1959 -91 
Q 1206 -91 779 398 
Q 353 888 353 1747 
Q 353 2609 779 3096 
Q 1206 3584 1959 3584 
z
" transform="scale(0.015625)"/>
       <path id="DejaVuSans-6e" d="M 3513 2113 
L 3513 0 
L 2938 0 
L 2938 2094 
Q 2938 2591 2744 2837 
Q 2550 3084 2163 3084 
Q 1697 3084 1428 2787 
Q 1159 2491 1159 1978 
L 1159 0 
L 581 0 
L 581 3500 
L 1159 3500 
L 1159 2956 
Q 1366 3272 1645 3428 
Q 1925 3584 2291 3584 
Q 2894 3584 3203 3211 
Q 3513 2838 3513 2113 
z
" transform="scale(0.015625)"/>
       <path id="DejaVuSans-64" d="M 2906 2969 
L 2906 4863 
L 3481 4863 
L 3481 0 
L 2906 0 
L 2906 525 
Q 2725 213 2448 61 
Q 2172 -91 1784 -91 
Q 1150 -91 751 415 
Q 353 922 353 1747 
Q 353 2572 751 3078 
Q 1150 3584 1784 3584 
Q 2172 3584 2448 3432 
Q 2725 3281 2906 2969 
z
M 947 1747 
Q 947 1113 1208 752 
Q 1469 391 1925 391 
Q 2381 391 2643 752 
Q 2906 1113 2906 1747 
Q 2906 2381 2643 2742 
Q 2381 3103 1925 3103 
Q 1469 3103 1208 2742 
Q 947 2381 947 1747 
z
" transform="scale(0.015625)"/>
      </defs>
      <use xlink:href="#DejaVuSans-73"/>
      <use xlink:href="#DejaVuSans-65" x="52.099609"/>
      <use xlink:href="#DejaVuSans-63" x="113.623047"/>
      <use xlink:href="#DejaVuSans-6f" x="168.603516"/>
      <use xlink:href="#DejaVuSans-6e" x="229.785156"/>
      <use xlink:href="#DejaVuSans-64" x="293.164062"/>
      <use xlink:href="#DejaVuSans-73" x="356.640625"/>
     </g>
    </g>
   </g>
   <g id="matplotlib.axis_2">
    <g id="ytick_1">
     <g id="line2d_6">
      <defs>
       <path id="mf8219b82ad" d="M 0 0 
L -3.5 0 
" style="stroke: #000000; stroke-width: 0.8"/>
      </defs>
      <g>
       <use xlink:href="#mf8219b82ad" x="46.64" y="316.384931" style="stroke: #000000; stroke-width: 0.8"/>
      </g>
     </g>
     <g id="text_7">
      <!-- 2 -->
      <g transform="translate(24.897813 320.18415)scale(0.1 -0.1)">
       <defs>
        <path id="DejaVuSans-2212" d="M 678 2272 
L 4684 2272 
L 4684 1741 
L 678 1741 
L 678 2272 
z
" transform="scale(0.015625)"/>
       </defs>
       <use xlink:href="#DejaVuSans-2212"/>
       <use xlink:href="#DejaVuSans-32" x="83.789062"/>
      </g>
     </g>
    </g>
    <g id="ytick_2">
     <g id="line2d_7">
      <g>
       <use xlink:href="#mf8219b82ad" x="46.64" y="284.562569" style="stroke: #000000; stroke-width: 0.8"/>
      </g>
     </g>
     <g id="text_8">
      <!-- 1 -->
      <g transform="translate(24.897813 288.361788)scale(0.1 -0.1)">
       <defs>
        <path id="DejaVuSans-31" d="M 794 531 
L 1825 531 
L 1825 4091 
L 703 3866 
L 703 4441 
L 1819 4666 
L 2450 4666 
L 2450 531 
L 3481 531 
L 3481 0 
L 794 0 
L 794 531 
z
" transform="scale(0.015625)"/>
       </defs>
       <use xlink:href="#DejaVuSans-2212"/>
       <use xlink:href="#DejaVuSans-31" x="83.789062"/>
      </g>
     </g>
    </g>
    <g id="ytick_3">
     <g id="line2d_8">
      <g>
       <use xlink:href="#mf8219b82ad" x="46.64" y="252.740208" style="stroke: #000000; stroke-width: 0.8"/>
      </g>
     </g>
     <g id="text_9">
      <!-- 0 -->
      <g transform="translate(33.2775 256.539427)scale(0.1 -0.1)">
       <use xlink:href="#DejaVuSans-30"/>
      </g>
     </g>
    </g>
    <g id="ytick_4">
     <g id="line2d_9">
      <g>
       <use xlink:href="#mf8219b82ad" x="46.64" y="220.917847" style="stroke: #000000; stroke-width: 0.8"/>
      </g>
     </g>
     <g id="text_10">
      <!-- 1 -->
      <g transform="translate(33.2775 224.717066)scale(0.1 -0.1)">
       <use xlink:href="#DejaVuSans-31"/>
      </g>
     </g>
    </g>
    <g id="ytick_5">
     <g id="line2d_10">
      <g>
       <use xlink:href="#mf8219b82ad" x="46.64" y="189.095486" style="stroke: #000000; stroke-width: 0.8"/>
      </g>
     </g>
     <g id="text_11">
      <!-- 2 -->
      <g transform="translate(33.2775 192.894704)scale(0.1 -0.1)">
       <use xlink:href="#DejaVuSans-32"/>
      </g>
     </g>
    </g>
    <g id="ytick_6">
     <g id="line2d_11">
      <g>
       <use xlink:href="#mf8219b82ad" x="46.64" y="157.273124" style="stroke: #000000; stroke-width: 0.8"/>
      </g>
     </g>
     <g id="text_12">
      <!-- 3 -->
      <g transform="translate(33.2775 161.072343)scale(0.1 -0.1)">
       <defs>
        <path id="DejaVuSans-33" d="M 2597 2516 
Q 3050 2419 3304 2112 
Q 3559 1806 3559 1356 
Q 3559 666 3084 287 
Q 2609 -91 1734 -91 
Q 1441 -91 1130 -33 
Q 819 25 488 141 
L 488 750 
Q 750 597 1062 519 
Q 1375 441 1716 441 
Q 2309 441 2620 675 
Q 2931 909 2931 1356 
Q 2931 1769 2642 2001 
Q 2353 2234 1838 2234 
L 1294 2234 
L 1294 2753 
L 1863 2753 
Q 2328 2753 2575 2939 
Q 2822 3125 2822 3475 
Q 2822 3834 2567 4026 
Q 2313 4219 1838 4219 
Q 1578 4219 1281 4162 
Q 984 4106 628 3988 
L 628 4550 
Q 988 4650 1302 4700 
Q 1616 4750 1894 4750 
Q 2613 4750 3031 4423 
Q 3450 4097 3450 3541 
Q 3450 3153 3228 2886 
Q 3006 2619 2597 2516 
z
" transform="scale(0.015625)"/>
       </defs>
       <use xlink:href="#DejaVuSans-33"/>
      </g>
     </g>
    </g>
    <g id="ytick_7">
     <g id="line2d_12">
      <g>
       <use xlink:href="#mf8219b82ad" x="46.64" y="125.450763" style="stroke: #000000; stroke-width: 0.8"/>
      </g>
     </g>
     <g id="text_13">
      <!-- 4 -->
      <g transform="translate(33.2775 129.249982)scale(0.1 -0.1)">
       <use xlink:href="#DejaVuSans-34"/>
      </g>
     </g>
    </g>
    <g id="ytick_8">
     <g id="line2d_13">
      <g>
       <use xlink:href="#mf8219b82ad" x="46.64" y="93.628402" style="stroke: #000000; stroke-width: 0.8"/>
      </g>
     </g>
     <g id="text_14">
      <!-- 5 -->
      <g transform="translate(33.2775 97.42762)scale(0.1 -0.1)">
       <defs>
        <path id="DejaVuSans-35" d="M 691 4666 
L 3169 4666 
L 3169 4134 
L 1269 4134 
L 1269 2991 
Q 1406 3038 1543 3061 
Q 1681 3084 1819 3084 
Q 2600 3084 3056 2656 
Q 3513 2228 3513 1497 
Q 3513 744 3044 326 
Q 2575 -91 1722 -91 
Q 1428 -91 1123 -41 
Q 819 9 494 109 
L 494 744 
Q 775 591 1075 516 
Q 1375 441 1709 441 
Q 2250 441 2565 725 
Q 2881 1009 2881 1497 
Q 2881 1984 2565 2268 
Q 2250 2553 1709 2553 
Q 1456 2553 1204 2497 
Q 953 2441 691 2322 
L 691 4666 
z
" transform="scale(0.015625)"/>
       </defs>
       <use xlink:href="#DejaVuSans-35"/>
      </g>
     </g>
    </g>
    <g id="text_15">
     <!-- V -->
     <g transform="translate(18.818125 201.487562)rotate(-90)scale(0.1 -0.1)">
      <defs>
       <path id="DejaVuSans-b5" d="M 544 -1331 
L 544 3500 
L 1119 3500 
L 1119 1325 
Q 1119 872 1334 640 
Q 1550 409 1972 409 
Q 2434 409 2667 671 
Q 2900 934 2900 1459 
L 2900 3500 
L 3475 3500 
L 3475 806 
Q 3475 619 3529 530 
Q 3584 441 3700 441 
Q 3728 441 3778 458 
Q 3828 475 3916 513 
L 3916 50 
Q 3788 -22 3673 -56 
Q 3559 -91 3450 -91 
Q 3234 -91 3106 31 
Q 2978 153 2931 403 
Q 2775 156 2548 32 
Q 2322 -91 2016 -91 
Q 1697 -91 1473 31 
Q 1250 153 1119 397 
L 1119 -1331 
L 544 -1331 
z
" transform="scale(0.015625)"/>
       <path id="DejaVuSans-56" d="M 1831 0 
L 50 4666 
L 709 4666 
L 2188 738 
L 3669 4666 
L 4325 4666 
L 2547 0 
L 1831 0 
z
" transform="scale(0.015625)"/>
      </defs>
      <use xlink:href="#DejaVuSans-b5"/>
      <use xlink:href="#DejaVuSans-56" x="63.623047"/>
     </g>
    </g>
   </g>
   <g id="line2d_14">
    <path d="M 46.64 248.648789 
L 48.231889 247.561406 
L 49.027834 246.68229 
L 50.619723 244.121146 
L 51.415668 242.76987 
L 52.211613 241.689875 
L 53.007557 241.06636 
L 53.803502 240.963248 
L 54.599447 241.314569 
L 55.395392 241.970094 
L 56.987281 243.634418 
L 57.783226 244.571333 
L 58.57917 245.691248 
L 59.375115 247.129128 
L 60.17106 248.965034 
L 63.354838 257.57973 
L 64.150783 258.680384 
L 64.946728 258.944179 
L 65.742672 258.403465 
L 66.538617 257.234619 
L 68.926451 252.596077 
L 69.722396 251.419533 
L 70.51834 250.632651 
L 71.314285 250.267687 
L 72.11023 250.32635 
L 72.906175 250.795243 
L 73.702119 251.649579 
L 74.498064 252.848515 
L 76.089953 256.0079 
L 78.477787 261.228977 
L 79.273732 262.693674 
L 80.069677 263.851488 
L 80.865621 264.596962 
L 81.661566 264.831773 
L 82.457511 264.488855 
L 83.253455 263.564719 
L 84.0494 262.147875 
L 86.437234 257.203612 
L 87.233179 256.266268 
L 88.029124 256.030102 
L 88.825068 256.514961 
L 89.621013 257.598154 
L 92.804792 263.310282 
L 94.396681 265.121947 
L 95.192626 265.988863 
L 95.98857 267.081374 
L 96.784515 268.551838 
L 97.58046 270.462956 
L 100.764238 279.59443 
L 101.560183 280.738103 
L 102.356128 280.810159 
L 103.152073 279.700385 
L 103.948017 277.506571 
L 107.131796 266.033475 
L 107.927741 264.884354 
L 108.723685 264.921587 
L 109.51963 265.974969 
L 111.907464 270.991017 
L 112.703409 271.80367 
L 113.499353 271.774781 
L 114.295298 270.954645 
L 115.091243 269.560829 
L 116.683132 266.286233 
L 117.479077 264.950032 
L 118.275021 264.007228 
L 119.070966 263.443287 
L 120.662856 262.937744 
L 121.4588 262.679883 
L 123.05069 261.804058 
L 123.846634 261.373495 
L 124.642579 261.24072 
L 125.438524 261.674649 
L 126.234468 262.891888 
L 127.030413 264.979385 
L 127.826358 267.842038 
L 130.214192 277.560513 
L 131.010136 279.618326 
L 131.806081 280.458496 
L 132.602026 279.974307 
L 133.39797 278.282853 
L 134.193915 275.689665 
L 136.581749 266.766749 
L 137.377694 264.671387 
L 138.173639 263.370977 
L 138.969583 262.878011 
L 139.765528 263.092584 
L 140.561473 263.834758 
L 142.949307 266.977072 
L 143.745251 267.665343 
L 144.541196 267.977337 
L 145.337141 267.902157 
L 146.133085 267.487873 
L 146.92903 266.812999 
L 148.520919 264.961261 
L 150.112809 262.651936 
L 151.704698 260.169365 
L 152.500643 259.168291 
L 153.296588 258.606249 
L 154.092532 258.6846 
L 154.888477 259.50054 
L 155.684422 260.974247 
L 157.276311 264.584604 
L 158.072256 265.744216 
L 158.8682 265.848226 
L 159.664145 264.653466 
L 160.46009 262.212148 
L 162.847924 251.910201 
L 163.643868 249.482128 
L 164.439813 248.273802 
L 165.235758 248.325391 
L 166.031702 249.414941 
L 167.623592 253.168977 
L 169.215481 256.974036 
L 170.807371 260.502234 
L 172.39926 264.66477 
L 173.991149 269.00773 
L 174.787094 270.583419 
L 175.583039 271.388313 
L 176.378983 271.294329 
L 177.174928 270.355079 
L 177.970873 268.78665 
L 180.358707 263.289681 
L 181.154651 261.891136 
L 181.950596 260.775737 
L 183.542485 259.055187 
L 185.134375 257.721569 
L 185.93032 257.319573 
L 186.726264 257.230954 
L 187.522209 257.532972 
L 188.318154 258.242913 
L 189.114098 259.30735 
L 191.501932 263.221763 
L 192.297877 264.107202 
L 193.093822 264.401011 
L 193.889766 263.881517 
L 194.685711 262.384987 
L 195.481656 259.864559 
L 196.2776 256.446932 
L 198.665434 244.843592 
L 199.461379 242.313291 
L 200.257324 241.121341 
L 201.053269 241.272944 
L 201.849213 242.446187 
L 203.441103 245.497742 
L 204.237047 246.171043 
L 205.032992 245.802936 
L 205.828937 244.432779 
L 208.216771 238.191259 
L 209.012715 236.815763 
L 209.80866 236.10046 
L 210.604605 235.91422 
L 214.584328 236.466736 
L 216.176218 236.862994 
L 216.972162 236.874359 
L 217.768107 236.362908 
L 218.564052 235.011625 
L 219.359996 232.650119 
L 220.155941 229.357585 
L 222.543775 218.198522 
L 223.33972 215.824481 
L 224.135664 214.644369 
L 224.931609 214.559653 
L 225.727554 215.236464 
L 227.319443 217.175225 
L 228.115388 217.817996 
L 228.911332 218.13004 
L 231.299166 218.306352 
L 232.095111 218.376137 
L 232.891056 218.325226 
L 233.687001 217.981638 
L 234.482945 217.230609 
L 235.27889 216.091143 
L 236.870779 213.425231 
L 237.666724 212.427488 
L 238.462669 211.879819 
L 239.258613 211.726061 
L 240.054558 211.712581 
L 240.850503 211.463622 
L 241.646447 210.606511 
L 242.442392 208.900121 
L 243.238337 206.319492 
L 246.422115 193.243437 
L 247.21806 191.173219 
L 248.014005 190.012276 
L 248.80995 189.72883 
L 249.605894 190.195703 
L 250.401839 191.236834 
L 251.993728 194.25044 
L 252.789673 195.804163 
L 253.585618 197.10663 
L 254.381562 197.977594 
L 255.177507 198.311343 
L 255.973452 198.116592 
L 256.769396 197.528308 
L 258.361286 196.104105 
L 259.15723 195.692153 
L 259.953175 195.571679 
L 261.545064 195.566769 
L 262.341009 195.172101 
L 263.136954 194.26103 
L 263.932898 192.843278 
L 265.524788 189.400169 
L 266.320733 188.011987 
L 267.116677 187.144162 
L 267.912622 186.786366 
L 269.504511 186.699471 
L 270.300456 186.433022 
L 272.68829 184.883875 
L 273.484235 185.259606 
L 274.280179 186.659211 
L 275.076124 189.076747 
L 276.668013 195.200594 
L 277.463958 197.476761 
L 278.259903 198.327734 
L 279.055847 197.433818 
L 279.851792 194.895328 
L 281.443682 187.007438 
L 282.239626 183.033377 
L 283.035571 179.747687 
L 283.831516 177.322118 
L 284.62746 175.636375 
L 286.21935 173.30351 
L 288.607184 170.072104 
L 289.403128 169.453864 
L 290.199073 169.325564 
L 290.995018 169.662049 
L 292.586907 170.933271 
L 293.382852 171.379657 
L 294.178796 171.515388 
L 294.974741 171.383141 
L 296.56663 170.910544 
L 298.15852 170.671819 
L 298.954465 170.376163 
L 299.750409 169.693143 
L 300.546354 168.532354 
L 302.934188 164.164837 
L 303.730133 163.58344 
L 304.526077 163.765501 
L 306.117967 165.30667 
L 306.913911 165.636369 
L 307.709856 165.074714 
L 308.505801 163.551213 
L 310.09769 159.307527 
L 310.893635 158.001501 
L 311.689579 158.048444 
L 312.485524 159.591956 
L 313.281469 162.293479 
L 314.873358 168.263739 
L 315.669303 170.130426 
L 316.465248 170.876723 
L 317.261192 170.806767 
L 318.057137 170.569049 
L 318.853082 170.890087 
L 319.649026 172.285697 
L 320.444971 174.86666 
L 322.832805 185.370776 
L 323.62875 187.922818 
L 324.424694 189.603012 
L 325.220639 190.650002 
L 326.812528 192.367614 
L 328.404418 194.629274 
L 329.200363 195.461626 
L 329.996307 195.638188 
L 330.792252 195.026911 
L 333.180086 191.569145 
L 333.976031 191.61475 
L 334.771975 192.784728 
L 335.56792 194.884034 
L 337.159809 199.709611 
L 337.955754 201.266268 
L 338.751699 201.823808 
L 339.547643 201.481734 
L 341.139533 199.746781 
L 341.935477 199.276758 
L 342.731422 199.409345 
L 343.527367 200.061509 
L 344.323311 200.919978 
L 345.119256 201.563997 
L 345.915201 201.609282 
L 346.711146 200.820895 
L 347.50709 199.162853 
L 348.303035 196.781189 
L 351.486814 185.409531 
L 353.078703 181.134019 
L 356.262482 173.654199 
L 358.650316 167.071006 
L 359.44626 165.309718 
L 360.242205 164.101286 
L 361.03815 163.572 
L 361.834095 163.757772 
L 362.630039 164.609825 
L 363.425984 166.017154 
L 365.017873 169.856652 
L 365.813818 171.870257 
L 366.609763 173.578079 
L 367.405707 174.641842 
L 368.201652 174.729245 
L 368.997597 173.607918 
L 369.793541 171.253519 
L 371.385431 164.166073 
L 372.181375 160.691709 
L 372.97732 158.205864 
L 373.773265 157.177737 
L 374.569209 157.674612 
L 375.365154 159.316713 
L 376.161099 161.384322 
L 376.957043 163.04835 
L 377.752988 163.645067 
L 378.548933 162.894027 
L 379.344878 160.977164 
L 380.936767 156.030727 
L 381.732712 154.329125 
L 382.528656 153.65611 
L 383.324601 153.946529 
L 385.712435 156.50425 
L 386.50838 156.61948 
L 387.304324 156.14201 
L 388.100269 155.161356 
L 388.896214 153.770101 
L 389.692158 151.978466 
L 390.488103 149.714029 
L 391.284048 146.909047 
L 393.671882 136.996495 
L 394.467827 134.743391 
L 395.263771 133.878065 
L 396.059716 134.570998 
L 396.855661 136.575977 
L 398.44755 141.867958 
L 399.243495 143.641591 
L 400.039439 144.213682 
L 400.835384 143.658241 
L 402.427273 141.328071 
L 403.223218 140.914239 
L 404.019163 141.590155 
L 404.815107 143.316494 
L 406.406997 148.005318 
L 407.202941 149.652086 
L 407.998886 150.122692 
L 408.794831 149.213109 
L 409.590775 147.010913 
L 410.38672 143.823623 
L 412.774554 132.713364 
L 413.570499 129.928472 
L 413.570499 129.928472 
" clip-path="url(#p9840cda73d)" style="fill: none; stroke: #e41a1c; stroke-width: 1.5; stroke-linecap: square"/>
   </g>
   <g id="line2d_15">
    <path d="M 46.64 247.275599 
L 48.231889 246.355065 
L 51.415668 244.159458 
L 52.211613 243.95805 
L 53.007557 244.116496 
L 53.803502 244.732427 
L 54.599447 245.846655 
L 55.395392 247.408939 
L 57.783226 252.795091 
L 58.57917 253.918705 
L 59.375115 254.36529 
L 60.17106 254.125867 
L 60.967004 253.345315 
L 62.558894 251.195723 
L 63.354838 250.327753 
L 64.150783 249.781077 
L 64.946728 249.543699 
L 66.538617 249.59854 
L 68.130506 249.859437 
L 68.926451 250.120841 
L 69.722396 250.582771 
L 70.51834 251.295368 
L 72.11023 253.276779 
L 73.702119 255.115448 
L 74.498064 255.712329 
L 77.681843 257.379842 
L 79.273732 258.993501 
L 80.069677 259.834212 
L 80.865621 260.508989 
L 81.661566 260.929206 
L 82.457511 261.091987 
L 85.641289 261.020046 
L 89.621013 261.908576 
L 90.416958 262.155693 
L 91.212902 262.537019 
L 92.804792 263.709732 
L 94.396681 264.870543 
L 95.192626 265.174038 
L 95.98857 265.231222 
L 97.58046 264.828613 
L 100.764238 263.783054 
L 101.560183 263.315923 
L 102.356128 262.617163 
L 103.948017 260.65796 
L 104.743962 259.648544 
L 105.539907 258.824887 
L 106.335851 258.281312 
L 107.131796 258.012323 
L 108.723685 257.806546 
L 109.51963 257.529872 
L 110.315575 256.978469 
L 111.907464 255.201132 
L 112.703409 254.306279 
L 113.499353 253.702857 
L 114.295298 253.568276 
L 115.091243 253.974566 
L 115.887187 254.861177 
L 117.479077 257.247413 
L 118.275021 258.178308 
L 119.070966 258.579756 
L 119.866911 258.29803 
L 120.662856 257.320961 
L 121.4588 255.788087 
L 123.05069 252.198309 
L 123.846634 250.819196 
L 124.642579 250.082592 
L 125.438524 250.093044 
L 126.234468 250.779151 
L 128.622302 254.265058 
L 129.418247 254.947808 
L 130.214192 255.164629 
L 131.010136 255.016217 
L 132.602026 254.548825 
L 133.39797 254.69942 
L 134.193915 255.26476 
L 134.98986 256.189476 
L 136.581749 258.365504 
L 137.377694 259.178232 
L 138.173639 259.612039 
L 138.969583 259.653901 
L 139.765528 259.393665 
L 141.357417 258.585098 
L 142.153362 258.321851 
L 142.949307 258.251414 
L 144.541196 258.571579 
L 145.337141 258.776971 
L 146.133085 258.854211 
L 146.92903 258.697754 
L 147.724975 258.241974 
L 148.520919 257.481918 
L 150.908753 254.419076 
L 151.704698 253.757525 
L 152.500643 253.591125 
L 153.296588 254.007436 
L 154.092532 254.973672 
L 155.684422 257.866388 
L 156.480366 259.308184 
L 157.276311 260.462808 
L 158.072256 261.227963 
L 158.8682 261.608067 
L 159.664145 261.681898 
L 160.46009 261.544086 
L 161.256034 261.246917 
L 162.051979 260.76998 
L 162.847924 260.033857 
L 163.643868 258.954442 
L 164.439813 257.515249 
L 166.031702 254.127944 
L 166.827647 252.76272 
L 167.623592 252.065876 
L 168.419537 252.26572 
L 169.215481 253.39783 
L 170.011426 255.278623 
L 171.603315 259.781759 
L 172.39926 261.598719 
L 173.195205 262.786598 
L 173.991149 263.342886 
L 174.787094 263.45563 
L 175.583039 263.421163 
L 176.378983 263.532621 
L 177.174928 263.979803 
L 177.970873 264.794503 
L 180.358707 267.873736 
L 181.154651 268.472001 
L 181.950596 268.733627 
L 184.33843 268.908451 
L 185.134375 269.380291 
L 185.93032 270.237796 
L 186.726264 271.446528 
L 189.114098 275.78557 
L 189.910043 276.898507 
L 190.705988 277.609775 
L 191.501932 277.846429 
L 192.297877 277.593873 
L 193.093822 276.900034 
L 194.685711 274.674754 
L 196.2776 272.484939 
L 197.073545 271.791843 
L 197.86949 271.449792 
L 198.665434 271.411259 
L 201.849213 271.906936 
L 203.441103 271.817201 
L 204.237047 271.872707 
L 206.624881 272.33097 
L 207.420826 272.079292 
L 208.216771 271.332817 
L 209.012715 270.045194 
L 212.196494 263.308866 
L 212.992439 262.532252 
L 213.788383 262.307618 
L 216.176218 262.788569 
L 216.972162 262.575835 
L 217.768107 262.064653 
L 219.359996 260.789539 
L 220.155941 260.440803 
L 220.951886 260.465901 
L 221.74783 260.864151 
L 223.33972 262.351045 
L 224.931609 263.934778 
L 226.523498 265.181801 
L 227.319443 265.650129 
L 228.115388 265.966919 
L 228.911332 266.074802 
L 229.707277 265.940463 
L 232.095111 264.826292 
L 232.891056 264.77946 
L 233.687001 265.151071 
L 234.482945 265.945442 
L 236.870779 269.2112 
L 237.666724 269.951901 
L 239.258613 270.77335 
L 240.054558 271.189264 
L 240.850503 271.823363 
L 243.238337 274.434459 
L 244.034281 274.775361 
L 244.830226 274.508303 
L 245.626171 273.659983 
L 247.21806 271.246182 
L 248.014005 270.387457 
L 248.80995 270.114887 
L 249.605894 270.471613 
L 250.401839 271.313167 
L 251.993728 273.420698 
L 252.789673 274.253018 
L 253.585618 274.827954 
L 254.381562 275.182648 
L 255.177507 275.368043 
L 255.973452 275.374785 
L 256.769396 275.103577 
L 257.565341 274.400336 
L 258.361286 273.142967 
L 259.15723 271.338323 
L 260.74912 267.02245 
L 261.545064 265.294275 
L 262.341009 264.341105 
L 263.136954 264.298535 
L 263.932898 265.0255 
L 265.524788 267.13019 
L 266.320733 267.546408 
L 267.116677 267.125931 
L 267.912622 265.880739 
L 270.300456 260.388261 
L 271.096401 259.194879 
L 271.892345 258.616509 
L 272.68829 258.568643 
L 273.484235 258.866012 
L 277.463958 261.229123 
L 279.851792 262.929111 
L 280.647737 263.329274 
L 281.443682 263.558271 
L 283.035571 263.591262 
L 284.62746 263.346388 
L 285.423405 263.110698 
L 286.21935 262.70647 
L 287.015294 262.055546 
L 287.811239 261.127826 
L 290.995018 256.538954 
L 291.790962 255.85335 
L 292.586907 255.447183 
L 294.974741 254.702565 
L 295.770686 254.197041 
L 297.362575 252.695022 
L 298.954465 251.255011 
L 299.750409 250.856531 
L 300.546354 250.76639 
L 301.342299 250.999428 
L 302.138243 251.536018 
L 302.934188 252.33372 
L 304.526077 254.468553 
L 306.117967 256.796866 
L 306.913911 257.813866 
L 307.709856 258.632689 
L 308.505801 259.211752 
L 309.301745 259.544153 
L 310.09769 259.652291 
L 310.893635 259.573943 
L 311.689579 259.346921 
L 313.281469 258.556526 
L 316.465248 256.605022 
L 317.261192 256.395237 
L 318.057137 256.399891 
L 318.853082 256.601005 
L 321.240916 257.584586 
L 322.832805 257.848998 
L 324.424694 258.044011 
L 325.220639 258.370112 
L 326.016584 258.940712 
L 327.608473 260.694454 
L 329.200363 262.507408 
L 329.996307 263.103669 
L 330.792252 263.376035 
L 331.588197 263.301952 
L 332.384141 262.908972 
L 333.180086 262.2649 
L 335.56792 259.917016 
L 336.363865 259.440511 
L 337.159809 259.333473 
L 337.955754 259.674027 
L 338.751699 260.467764 
L 339.547643 261.632545 
L 341.935477 265.546711 
L 342.731422 266.368016 
L 343.527367 266.800862 
L 344.323311 266.912562 
L 345.915201 266.790543 
L 346.711146 266.864141 
L 348.303035 267.485063 
L 349.09898 267.822195 
L 349.894924 267.949198 
L 350.690869 267.722872 
L 351.486814 267.09138 
L 353.078703 264.976597 
L 353.874648 263.885445 
L 354.670592 263.059032 
L 355.466537 262.636584 
L 356.262482 262.64513 
L 357.058426 262.995918 
L 358.650316 264.003119 
L 359.44626 264.288181 
L 360.242205 264.283143 
L 361.03815 264.004026 
L 362.630039 263.119188 
L 363.425984 262.843403 
L 364.221929 262.841014 
L 365.017873 263.12217 
L 366.609763 264.055772 
L 367.405707 264.304655 
L 368.201652 264.1472 
L 368.997597 263.489062 
L 369.793541 262.369384 
L 371.385431 259.553371 
L 372.181375 258.448561 
L 372.97732 257.917417 
L 373.773265 258.109878 
L 374.569209 259.018365 
L 375.365154 260.480595 
L 376.957043 263.94249 
L 377.752988 265.369721 
L 378.548933 266.347699 
L 379.344878 266.851125 
L 380.140822 266.975604 
L 382.528656 266.808915 
L 383.324601 267.019519 
L 384.91649 267.862613 
L 385.712435 268.285911 
L 386.50838 268.560342 
L 387.304324 268.622164 
L 388.100269 268.472903 
L 390.488103 267.605592 
L 391.284048 267.548677 
L 392.079992 267.718767 
L 394.467827 268.857912 
L 395.263771 268.924132 
L 396.059716 268.578176 
L 396.855661 267.780822 
L 399.243495 264.13432 
L 400.039439 263.393215 
L 400.835384 263.301801 
L 401.631329 263.932645 
L 402.427273 265.187281 
L 404.815107 269.921322 
L 405.611052 270.853687 
L 406.406997 271.220674 
L 407.202941 271.083767 
L 407.998886 270.596898 
L 410.38672 268.479857 
L 411.97861 266.739762 
L 413.570499 264.305484 
L 413.570499 264.305484 
" clip-path="url(#p9840cda73d)" style="fill: none; stroke: #377eb8; stroke-width: 1.5; stroke-linecap: square"/>
   </g>
   <g id="line2d_16">
    <path d="M 87.233179 318.04 
L 87.233179 71.732 
" clip-path="url(#p9840cda73d)" style="fill: none; stroke: #000000; stroke-width: 0.5; stroke-linecap: square"/>
   </g>
   <g id="line2d_17">
    <path d="M 46.64 252.740208 
L 413.570499 252.740208 
" clip-path="url(#p9840cda73d)" style="fill: none; stroke: #000000; stroke-width: 0.5; stroke-linecap: square"/>
   </g>
   <g id="patch_4">
    <path d="M 46.64 318.04 
L 46.64 71.732 
" style="fill: none; stroke: #000000; stroke-width: 0.8; stroke-linejoin: miter; stroke-linecap: square"/>
   </g>
   <g id="patch_5">
    <path d="M 413.570499 318.04 
L 413.570499 71.732 
" style="fill: none; stroke: #000000; stroke-width: 0.8; stroke-linejoin: miter; stroke-linecap: square"/>
   </g>
   <g id="patch_6">
    <path d="M 46.64 318.04 
L 413.570499 318.04 
" style="fill: none; stroke: #000000; stroke-width: 0.8; stroke-linejoin: miter; stroke-linecap: square"/>
   </g>
   <g id="patch_7">
    <path d="M 46.64 71.732 
L 413.570499 71.732 
" style="fill: none; stroke: #000000; stroke-width: 0.8; stroke-linejoin: miter; stroke-linecap: square"/>
   </g>
   <g id="text_16">
    <!-- Cz -->
    <g transform="translate(222.766499 65.732)scale(0.12 -0.12)">
     <defs>
      <path id="DejaVuSans-43" d="M 4122 4306 
L 4122 3641 
Q 3803 3938 3442 4084 
Q 3081 4231 2675 4231 
Q 1875 4231 1450 3742 
Q 1025 3253 1025 2328 
Q 1025 1406 1450 917 
Q 1875 428 2675 428 
Q 3081 428 3442 575 
Q 3803 722 4122 1019 
L 4122 359 
Q 3791 134 3420 21 
Q 3050 -91 2638 -91 
Q 1578 -91 968 557 
Q 359 1206 359 2328 
Q 359 3453 968 4101 
Q 1578 4750 2638 4750 
Q 3056 4750 3426 4639 
Q 3797 4528 4122 4306 
z
" transform="scale(0.015625)"/>
      <path id="DejaVuSans-7a" d="M 353 3500 
L 3084 3500 
L 3084 2975 
L 922 459 
L 3084 459 
L 3084 0 
L 275 0 
L 275 525 
L 2438 3041 
L 353 3041 
L 353 3500 
z
" transform="scale(0.015625)"/>
     </defs>
     <use xlink:href="#DejaVuSans-43"/>
     <use xlink:href="#DejaVuSans-7a" x="69.824219"/>
    </g>
   </g>
   <g id="legend_1">
    <g id="patch_8">
     <path d="M 99.877906 48.500845 
L 360.332593 48.500845 
Q 362.332593 48.500845 362.332593 46.500845 
L 362.332593 18.144595 
Q 362.332593 16.144595 360.332593 16.144595 
L 99.877906 16.144595 
Q 97.877906 16.144595 97.877906 18.144595 
L 97.877906 46.500845 
Q 97.877906 48.500845 99.877906 48.500845 
z
" style="fill: #ffffff; opacity: 0.8; stroke: #cccccc; stroke-linejoin: miter"/>
    </g>
    <g id="text_17">
     <!-- Average of Session 35 -->
     <g transform="translate(174.545874 27.743033)scale(0.1 -0.1)">
      <defs>
       <path id="DejaVuSans-41" d="M 2188 4044 
L 1331 1722 
L 3047 1722 
L 2188 4044 
z
M 1831 4666 
L 2547 4666 
L 4325 0 
L 3669 0 
L 3244 1197 
L 1141 1197 
L 716 0 
L 50 0 
L 1831 4666 
z
" transform="scale(0.015625)"/>
       <path id="DejaVuSans-76" d="M 191 3500 
L 800 3500 
L 1894 563 
L 2988 3500 
L 3597 3500 
L 2284 0 
L 1503 0 
L 191 3500 
z
" transform="scale(0.015625)"/>
       <path id="DejaVuSans-72" d="M 2631 2963 
Q 2534 3019 2420 3045 
Q 2306 3072 2169 3072 
Q 1681 3072 1420 2755 
Q 1159 2438 1159 1844 
L 1159 0 
L 581 0 
L 581 3500 
L 1159 3500 
L 1159 2956 
Q 1341 3275 1631 3429 
Q 1922 3584 2338 3584 
Q 2397 3584 2469 3576 
Q 2541 3569 2628 3553 
L 2631 2963 
z
" transform="scale(0.015625)"/>
       <path id="DejaVuSans-61" d="M 2194 1759 
Q 1497 1759 1228 1600 
Q 959 1441 959 1056 
Q 959 750 1161 570 
Q 1363 391 1709 391 
Q 2188 391 2477 730 
Q 2766 1069 2766 1631 
L 2766 1759 
L 2194 1759 
z
M 3341 1997 
L 3341 0 
L 2766 0 
L 2766 531 
Q 2569 213 2275 61 
Q 1981 -91 1556 -91 
Q 1019 -91 701 211 
Q 384 513 384 1019 
Q 384 1609 779 1909 
Q 1175 2209 1959 2209 
L 2766 2209 
L 2766 2266 
Q 2766 2663 2505 2880 
Q 2244 3097 1772 3097 
Q 1472 3097 1187 3025 
Q 903 2953 641 2809 
L 641 3341 
Q 956 3463 1253 3523 
Q 1550 3584 1831 3584 
Q 2591 3584 2966 3190 
Q 3341 2797 3341 1997 
z
" transform="scale(0.015625)"/>
       <path id="DejaVuSans-67" d="M 2906 1791 
Q 2906 2416 2648 2759 
Q 2391 3103 1925 3103 
Q 1463 3103 1205 2759 
Q 947 2416 947 1791 
Q 947 1169 1205 825 
Q 1463 481 1925 481 
Q 2391 481 2648 825 
Q 2906 1169 2906 1791 
z
M 3481 434 
Q 3481 -459 3084 -895 
Q 2688 -1331 1869 -1331 
Q 1566 -1331 1297 -1286 
Q 1028 -1241 775 -1147 
L 775 -588 
Q 1028 -725 1275 -790 
Q 1522 -856 1778 -856 
Q 2344 -856 2625 -561 
Q 2906 -266 2906 331 
L 2906 616 
Q 2728 306 2450 153 
Q 2172 0 1784 0 
Q 1141 0 747 490 
Q 353 981 353 1791 
Q 353 2603 747 3093 
Q 1141 3584 1784 3584 
Q 2172 3584 2450 3431 
Q 2728 3278 2906 2969 
L 2906 3500 
L 3481 3500 
L 3481 434 
z
" transform="scale(0.015625)"/>
       <path id="DejaVuSans-20" transform="scale(0.015625)"/>
       <path id="DejaVuSans-66" d="M 2375 4863 
L 2375 4384 
L 1825 4384 
Q 1516 4384 1395 4259 
Q 1275 4134 1275 3809 
L 1275 3500 
L 2222 3500 
L 2222 3053 
L 1275 3053 
L 1275 0 
L 697 0 
L 697 3053 
L 147 3053 
L 147 3500 
L 697 3500 
L 697 3744 
Q 697 4328 969 4595 
Q 1241 4863 1831 4863 
L 2375 4863 
z
" transform="scale(0.015625)"/>
       <path id="DejaVuSans-53" d="M 3425 4513 
L 3425 3897 
Q 3066 4069 2747 4153 
Q 2428 4238 2131 4238 
Q 1616 4238 1336 4038 
Q 1056 3838 1056 3469 
Q 1056 3159 1242 3001 
Q 1428 2844 1947 2747 
L 2328 2669 
Q 3034 2534 3370 2195 
Q 3706 1856 3706 1288 
Q 3706 609 3251 259 
Q 2797 -91 1919 -91 
Q 1588 -91 1214 -16 
Q 841 59 441 206 
L 441 856 
Q 825 641 1194 531 
Q 1563 422 1919 422 
Q 2459 422 2753 634 
Q 3047 847 3047 1241 
Q 3047 1584 2836 1778 
Q 2625 1972 2144 2069 
L 1759 2144 
Q 1053 2284 737 2584 
Q 422 2884 422 3419 
Q 422 4038 858 4394 
Q 1294 4750 2059 4750 
Q 2388 4750 2728 4690 
Q 3069 4631 3425 4513 
z
" transform="scale(0.015625)"/>
       <path id="DejaVuSans-69" d="M 603 3500 
L 1178 3500 
L 1178 0 
L 603 0 
L 603 3500 
z
M 603 4863 
L 1178 4863 
L 1178 4134 
L 603 4134 
L 603 4863 
z
" transform="scale(0.015625)"/>
      </defs>
      <use xlink:href="#DejaVuSans-41"/>
      <use xlink:href="#DejaVuSans-76" x="62.533203"/>
      <use xlink:href="#DejaVuSans-65" x="121.712891"/>
      <use xlink:href="#DejaVuSans-72" x="183.236328"/>
      <use xlink:href="#DejaVuSans-61" x="224.349609"/>
      <use xlink:href="#DejaVuSans-67" x="285.628906"/>
      <use xlink:href="#DejaVuSans-65" x="349.105469"/>
      <use xlink:href="#DejaVuSans-20" x="410.628906"/>
      <use xlink:href="#DejaVuSans-6f" x="442.416016"/>
      <use xlink:href="#DejaVuSans-66" x="503.597656"/>
      <use xlink:href="#DejaVuSans-20" x="538.802734"/>
      <use xlink:href="#DejaVuSans-53" x="570.589844"/>
      <use xlink:href="#DejaVuSans-65" x="634.066406"/>
      <use xlink:href="#DejaVuSans-73" x="695.589844"/>
      <use xlink:href="#DejaVuSans-73" x="747.689453"/>
      <use xlink:href="#DejaVuSans-69" x="799.789062"/>
      <use xlink:href="#DejaVuSans-6f" x="827.572266"/>
      <use xlink:href="#DejaVuSans-6e" x="888.753906"/>
      <use xlink:href="#DejaVuSans-20" x="952.132812"/>
      <use xlink:href="#DejaVuSans-33" x="983.919922"/>
      <use xlink:href="#DejaVuSans-35" x="1047.542969"/>
     </g>
    </g>
    <g id="line2d_18">
     <path d="M 101.877906 38.921158 
L 111.877906 38.921158 
L 121.877906 38.921158 
" style="fill: none; stroke: #e41a1c; stroke-width: 1.5; stroke-linecap: square"/>
    </g>
    <g id="text_18">
     <!-- Target (n=299) -->
     <g transform="translate(129.877906 42.421158)scale(0.1 -0.1)">
      <defs>
       <path id="DejaVuSans-54" d="M -19 4666 
L 3928 4666 
L 3928 4134 
L 2272 4134 
L 2272 0 
L 1638 0 
L 1638 4134 
L -19 4134 
L -19 4666 
z
" transform="scale(0.015625)"/>
       <path id="DejaVuSans-74" d="M 1172 4494 
L 1172 3500 
L 2356 3500 
L 2356 3053 
L 1172 3053 
L 1172 1153 
Q 1172 725 1289 603 
Q 1406 481 1766 481 
L 2356 481 
L 2356 0 
L 1766 0 
Q 1100 0 847 248 
Q 594 497 594 1153 
L 594 3053 
L 172 3053 
L 172 3500 
L 594 3500 
L 594 4494 
L 1172 4494 
z
" transform="scale(0.015625)"/>
       <path id="DejaVuSans-28" d="M 1984 4856 
Q 1566 4138 1362 3434 
Q 1159 2731 1159 2009 
Q 1159 1288 1364 580 
Q 1569 -128 1984 -844 
L 1484 -844 
Q 1016 -109 783 600 
Q 550 1309 550 2009 
Q 550 2706 781 3412 
Q 1013 4119 1484 4856 
L 1984 4856 
z
" transform="scale(0.015625)"/>
       <path id="DejaVuSans-3d" d="M 678 2906 
L 4684 2906 
L 4684 2381 
L 678 2381 
L 678 2906 
z
M 678 1631 
L 4684 1631 
L 4684 1100 
L 678 1100 
L 678 1631 
z
" transform="scale(0.015625)"/>
       <path id="DejaVuSans-39" d="M 703 97 
L 703 672 
Q 941 559 1184 500 
Q 1428 441 1663 441 
Q 2288 441 2617 861 
Q 2947 1281 2994 2138 
Q 2813 1869 2534 1725 
Q 2256 1581 1919 1581 
Q 1219 1581 811 2004 
Q 403 2428 403 3163 
Q 403 3881 828 4315 
Q 1253 4750 1959 4750 
Q 2769 4750 3195 4129 
Q 3622 3509 3622 2328 
Q 3622 1225 3098 567 
Q 2575 -91 1691 -91 
Q 1453 -91 1209 -44 
Q 966 3 703 97 
z
M 1959 2075 
Q 2384 2075 2632 2365 
Q 2881 2656 2881 3163 
Q 2881 3666 2632 3958 
Q 2384 4250 1959 4250 
Q 1534 4250 1286 3958 
Q 1038 3666 1038 3163 
Q 1038 2656 1286 2365 
Q 1534 2075 1959 2075 
z
" transform="scale(0.015625)"/>
       <path id="DejaVuSans-29" d="M 513 4856 
L 1013 4856 
Q 1481 4119 1714 3412 
Q 1947 2706 1947 2009 
Q 1947 1309 1714 600 
Q 1481 -109 1013 -844 
L 513 -844 
Q 928 -128 1133 580 
Q 1338 1288 1338 2009 
Q 1338 2731 1133 3434 
Q 928 4138 513 4856 
z
" transform="scale(0.015625)"/>
      </defs>
      <use xlink:href="#DejaVuSans-54"/>
      <use xlink:href="#DejaVuSans-61" x="44.583984"/>
      <use xlink:href="#DejaVuSans-72" x="105.863281"/>
      <use xlink:href="#DejaVuSans-67" x="145.226562"/>
      <use xlink:href="#DejaVuSans-65" x="208.703125"/>
      <use xlink:href="#DejaVuSans-74" x="270.226562"/>
      <use xlink:href="#DejaVuSans-20" x="309.435547"/>
      <use xlink:href="#DejaVuSans-28" x="341.222656"/>
      <use xlink:href="#DejaVuSans-6e" x="380.236328"/>
      <use xlink:href="#DejaVuSans-3d" x="443.615234"/>
      <use xlink:href="#DejaVuSans-32" x="527.404297"/>
      <use xlink:href="#DejaVuSans-39" x="591.027344"/>
      <use xlink:href="#DejaVuSans-39" x="654.650391"/>
      <use xlink:href="#DejaVuSans-29" x="718.273438"/>
     </g>
    </g>
    <g id="line2d_19">
     <path d="M 225.607593 38.921158 
L 235.607593 38.921158 
L 245.607593 38.921158 
" style="fill: none; stroke: #377eb8; stroke-width: 1.5; stroke-linecap: square"/>
    </g>
    <g id="text_19">
     <!-- Non-Target (n=1529) -->
     <g transform="translate(253.607593 42.421158)scale(0.1 -0.1)">
      <defs>
       <path id="DejaVuSans-4e" d="M 628 4666 
L 1478 4666 
L 3547 763 
L 3547 4666 
L 4159 4666 
L 4159 0 
L 3309 0 
L 1241 3903 
L 1241 0 
L 628 0 
L 628 4666 
z
" transform="scale(0.015625)"/>
       <path id="DejaVuSans-2d" d="M 313 2009 
L 1997 2009 
L 1997 1497 
L 313 1497 
L 313 2009 
z
" transform="scale(0.015625)"/>
      </defs>
      <use xlink:href="#DejaVuSans-4e"/>
      <use xlink:href="#DejaVuSans-6f" x="74.804688"/>
      <use xlink:href="#DejaVuSans-6e" x="135.986328"/>
      <use xlink:href="#DejaVuSans-2d" x="199.365234"/>
      <use xlink:href="#DejaVuSans-54" x="226.324219"/>
      <use xlink:href="#DejaVuSans-61" x="270.908203"/>
      <use xlink:href="#DejaVuSans-72" x="332.1875"/>
      <use xlink:href="#DejaVuSans-67" x="371.550781"/>
      <use xlink:href="#DejaVuSans-65" x="435.027344"/>
      <use xlink:href="#DejaVuSans-74" x="496.550781"/>
      <use xlink:href="#DejaVuSans-20" x="535.759766"/>
      <use xlink:href="#DejaVuSans-28" x="567.546875"/>
      <use xlink:href="#DejaVuSans-6e" x="606.560547"/>
      <use xlink:href="#DejaVuSans-3d" x="669.939453"/>
      <use xlink:href="#DejaVuSans-31" x="753.728516"/>
      <use xlink:href="#DejaVuSans-35" x="817.351562"/>
      <use xlink:href="#DejaVuSans-32" x="880.974609"/>
      <use xlink:href="#DejaVuSans-39" x="944.597656"/>
      <use xlink:href="#DejaVuSans-29" x="1008.220703"/>
     </g>
    </g>
   </g>
  </g>
 </g>
 <defs>
  <clipPath id="p9840cda73d">
   <rect x="46.64" y="71.732" width="366.930499" height="246.308"/>
  </clipPath>
 </defs>
</svg>
