<?xml version="1.0" encoding="utf-8" standalone="no"?>
<!DOCTYPE svg PUBLIC "-//W3C//DTD SVG 1.1//EN"
  "http://www.w3.org/Graphics/SVG/1.1/DTD/svg11.dtd">
<svg xmlns:xlink="http://www.w3.org/1999/xlink" width="432pt" height="360pt" viewBox="0 0 432 360" xmlns="http://www.w3.org/2000/svg" version="1.1">
 <metadata>
  <rdf:RDF xmlns:dc="http://purl.org/dc/elements/1.1/" xmlns:cc="http://creativecommons.org/ns#" xmlns:rdf="http://www.w3.org/1999/02/22-rdf-syntax-ns#">
   <cc:Work>
    <dc:type rdf:resource="http://purl.org/dc/dcmitype/StillImage"/>
    <dc:date>2022-05-19T11:52:05.107761</dc:date>
    <dc:format>image/svg+xml</dc:format>
    <dc:creator>
     <cc:Agent>
      <dc:title>Matplotlib v3.5.1, https://matplotlib.org/</dc:title>
     </cc:Agent>
    </dc:creator>
   </cc:Work>
  </rdf:RDF>
 </metadata>
 <defs>
  <style type="text/css">*{stroke-linejoin: round; stroke-linecap: butt}</style>
 </defs>
 <g id="figure_1">
  <g id="patch_1">
   <path d="M 0 360 
L 432 360 
L 432 0 
L 0 0 
L 0 360 
z
" style="fill: none"/>
  </g>
  <g id="axes_1">
   <g id="patch_2">
    <path d="M 46.64 318.04 
L 413.570499 318.04 
L 413.570499 71.732 
L 46.64 71.732 
L 46.64 318.04 
z
" style="fill: none"/>
   </g>
   <g id="PolyCollection_1">
    <defs>
     <path id="m81923bbd65" d="M 46.64 -149.498402 
L 46.64 -105.253707 
L 47.435945 -102.067901 
L 48.231889 -97.962848 
L 49.027834 -93.656534 
L 49.823779 -89.389086 
L 50.619723 -85.252542 
L 51.415668 -81.696524 
L 52.211613 -79.489362 
L 53.007557 -79.157316 
L 53.803502 -80.611368 
L 54.599447 -83.213697 
L 55.395392 -86.070844 
L 56.191336 -88.309574 
L 56.987281 -89.267975 
L 57.783226 -88.670543 
L 58.57917 -86.754759 
L 59.375115 -84.195081 
L 60.17106 -81.844186 
L 60.967004 -80.52126 
L 61.762949 -80.900745 
L 62.558894 -83.294862 
L 63.354838 -87.32916 
L 64.150783 -91.836061 
L 64.946728 -95.268393 
L 65.742672 -96.624843 
L 66.538617 -96.161848 
L 67.334562 -95.073333 
L 68.130506 -94.616169 
L 68.926451 -95.512709 
L 69.722396 -97.871511 
L 70.51834 -101.51698 
L 71.314285 -106.227919 
L 72.11023 -111.568058 
L 72.906175 -116.707738 
L 73.702119 -120.534569 
L 74.498064 -122.014953 
L 75.294009 -120.809994 
L 76.089953 -117.752829 
L 76.885898 -114.393216 
L 77.681843 -111.970624 
L 78.477787 -110.782037 
L 79.273732 -110.266224 
L 80.069677 -109.724992 
L 80.865621 -109.017243 
L 81.661566 -108.42999 
L 82.457511 -108.190727 
L 83.253455 -108.413449 
L 84.0494 -109.336622 
L 84.845345 -111.261805 
L 85.641289 -114.065772 
L 86.437234 -116.828149 
L 87.233179 -118.233501 
L 88.029124 -117.716566 
L 88.825068 -115.90741 
L 89.621013 -113.785508 
L 90.416958 -111.919134 
L 91.212902 -110.466398 
L 92.008847 -109.658312 
L 92.804792 -110.033247 
L 93.600736 -111.965847 
L 94.396681 -115.091769 
L 95.192626 -118.291699 
L 95.98857 -120.213326 
L 96.784515 -119.940078 
L 97.58046 -117.376495 
L 98.376404 -113.183905 
L 99.172349 -108.411864 
L 99.968294 -104.018155 
L 100.764238 -100.495201 
L 101.560183 -97.932878 
L 102.356128 -96.490415 
L 103.152073 -96.509585 
L 103.948017 -98.038319 
L 104.743962 -100.477387 
L 105.539907 -102.712112 
L 106.335851 -103.648442 
L 107.131796 -102.928528 
L 107.927741 -101.276461 
L 108.723685 -100.026048 
L 109.51963 -100.269512 
L 110.315575 -102.302712 
L 111.111519 -105.594351 
L 111.907464 -109.28644 
L 112.703409 -112.855812 
L 113.499353 -116.208985 
L 114.295298 -119.233337 
L 115.091243 -121.433995 
L 115.887187 -121.917864 
L 116.683132 -119.757031 
L 117.479077 -114.662606 
L 118.275021 -107.437727 
L 119.070966 -99.644642 
L 119.866911 -92.888114 
L 120.662856 -88.391587 
L 121.4588 -86.936232 
L 122.254745 -88.877826 
L 123.05069 -94.005758 
L 123.846634 -101.334508 
L 124.642579 -109.131827 
L 125.438524 -115.319891 
L 126.234468 -118.101756 
L 127.030413 -116.534698 
L 127.826358 -110.82849 
L 128.622302 -102.302193 
L 129.418247 -93.044421 
L 130.214192 -85.336573 
L 131.010136 -80.938139 
L 131.806081 -80.471287 
L 132.602026 -83.210809 
L 133.39797 -87.434224 
L 134.193915 -91.18298 
L 134.98986 -93.033359 
L 135.785805 -92.50654 
L 136.581749 -90.033595 
L 137.377694 -86.638975 
L 138.173639 -83.576418 
L 138.969583 -82.030856 
L 139.765528 -82.7677 
L 140.561473 -85.721247 
L 141.357417 -89.88765 
L 142.153362 -93.74239 
L 142.949307 -95.927871 
L 143.745251 -95.788601 
L 144.541196 -93.521996 
L 145.337141 -89.999561 
L 146.133085 -86.450047 
L 146.92903 -84.111118 
L 147.724975 -83.830263 
L 148.520919 -85.699582 
L 149.316864 -88.978663 
L 150.112809 -92.430808 
L 150.908753 -94.88303 
L 151.704698 -95.645521 
L 152.500643 -94.563269 
L 153.296588 -91.799708 
L 154.092532 -87.632665 
L 154.888477 -82.433199 
L 155.684422 -76.740074 
L 156.480366 -71.226213 
L 157.276311 -66.526202 
L 158.072256 -63.086601 
L 158.8682 -61.179676 
L 159.664145 -61.046309 
L 160.46009 -62.916813 
L 161.256034 -66.711337 
L 162.051979 -71.671113 
L 162.847924 -76.390163 
L 163.643868 -79.371257 
L 164.439813 -79.719252 
L 165.235758 -77.435168 
L 166.031702 -73.205134 
L 166.827647 -68.008988 
L 167.623592 -62.835715 
L 168.419537 -58.550731 
L 169.215481 -55.788698 
L 170.011426 -54.800845 
L 170.807371 -55.38415 
L 171.603315 -57.007828 
L 172.39926 -59.065402 
L 173.195205 -61.134167 
L 173.991149 -63.200553 
L 174.787094 -65.756096 
L 175.583039 -69.549623 
L 176.378983 -75.007715 
L 177.174928 -81.729721 
L 177.970873 -88.460857 
L 178.766817 -93.615133 
L 179.562762 -96.023729 
L 180.358707 -95.363668 
L 181.154651 -92.06971 
L 181.950596 -87.080477 
L 182.746541 -81.683733 
L 183.542485 -77.29512 
L 184.33843 -75.006496 
L 185.134375 -75.136545 
L 185.93032 -77.187068 
L 186.726264 -80.301533 
L 187.522209 -83.79194 
L 188.318154 -87.199473 
L 189.114098 -89.982621 
L 189.910043 -91.377296 
L 190.705988 -90.758333 
L 191.501932 -88.274806 
L 192.297877 -84.992475 
L 193.093822 -82.25373 
L 193.889766 -80.949298 
L 194.685711 -81.248456 
L 195.481656 -82.730103 
L 196.2776 -84.648683 
L 197.073545 -86.143424 
L 197.86949 -86.386629 
L 198.665434 -84.777131 
L 199.461379 -81.204551 
L 200.257324 -76.244853 
L 201.053269 -71.086035 
L 201.849213 -67.13602 
L 202.645158 -65.498006 
L 203.441103 -66.574174 
L 204.237047 -69.970096 
L 205.032992 -74.720122 
L 205.828937 -79.684376 
L 206.624881 -83.882484 
L 207.420826 -86.63351 
L 208.216771 -87.550351 
L 209.012715 -86.502702 
L 209.80866 -83.619635 
L 210.604605 -79.314941 
L 211.400549 -74.232875 
L 212.196494 -69.055308 
L 212.992439 -64.281468 
L 213.788383 -60.151337 
L 214.584328 -56.766033 
L 215.380273 -54.305922 
L 216.176218 -53.155818 
L 216.972162 -53.796494 
L 217.768107 -56.52312 
L 218.564052 -61.209441 
L 219.359996 -67.281025 
L 220.155941 -73.86671 
L 220.951886 -79.976942 
L 221.74783 -84.65176 
L 222.543775 -87.162119 
L 223.33972 -87.252414 
L 224.135664 -85.218798 
L 224.931609 -81.696043 
L 225.727554 -77.310793 
L 226.523498 -72.49855 
L 227.319443 -67.646297 
L 228.115388 -63.354844 
L 228.911332 -60.367519 
L 229.707277 -59.112762 
L 230.503222 -59.365949 
L 231.299166 -60.430185 
L 232.095111 -61.681457 
L 232.891056 -62.887128 
L 233.687001 -63.97483 
L 234.482945 -64.642784 
L 235.27889 -64.338195 
L 236.074835 -62.700601 
L 236.870779 -60.054179 
L 237.666724 -57.364646 
L 238.462669 -55.665596 
L 239.258613 -55.527734 
L 240.054558 -56.948717 
L 240.850503 -59.585101 
L 241.646447 -62.973016 
L 242.442392 -66.512529 
L 243.238337 -69.419825 
L 244.034281 -70.945531 
L 244.830226 -70.815605 
L 245.626171 -69.552564 
L 246.422115 -68.379064 
L 247.21806 -68.735108 
L 248.014005 -71.70923 
L 248.80995 -77.66814 
L 249.605894 -86.158907 
L 250.401839 -95.976726 
L 251.197784 -105.338416 
L 251.993728 -112.250254 
L 252.789673 -115.097941 
L 253.585618 -113.26426 
L 254.381562 -107.461603 
L 255.177507 -99.575648 
L 255.973452 -92.073607 
L 256.769396 -87.225302 
L 257.565341 -86.409222 
L 258.361286 -89.716844 
L 259.15723 -96.005372 
L 259.953175 -103.422773 
L 260.74912 -110.181042 
L 261.545064 -115.160343 
L 262.341009 -118.068636 
L 263.136954 -119.231368 
L 263.932898 -119.270148 
L 264.728843 -118.882158 
L 265.524788 -118.745323 
L 266.320733 -119.389702 
L 267.116677 -120.968036 
L 267.912622 -123.129363 
L 268.708567 -125.190075 
L 269.504511 -126.520868 
L 270.300456 -126.864312 
L 271.096401 -126.349131 
L 271.892345 -125.244747 
L 272.68829 -123.724843 
L 273.484235 -121.857477 
L 274.280179 -119.801387 
L 275.076124 -117.985443 
L 275.872069 -117.068432 
L 276.668013 -117.693205 
L 277.463958 -120.207971 
L 278.259903 -124.506378 
L 279.055847 -130.021433 
L 279.851792 -135.809272 
L 280.647737 -140.680147 
L 281.443682 -143.434748 
L 282.239626 -143.243701 
L 283.035571 -140.042407 
L 283.831516 -134.705636 
L 284.62746 -128.855255 
L 285.423405 -124.363784 
L 286.21935 -122.759307 
L 287.015294 -124.740838 
L 287.811239 -129.950499 
L 288.607184 -137.078743 
L 289.403128 -144.287893 
L 290.199073 -149.821639 
L 290.995018 -152.580587 
L 291.790962 -152.451833 
L 292.586907 -150.278001 
L 293.382852 -147.478569 
L 294.178796 -145.459995 
L 294.974741 -145.051941 
L 295.770686 -146.222683 
L 296.56663 -148.210296 
L 297.362575 -149.990954 
L 298.15852 -150.803767 
L 298.954465 -150.427503 
L 299.750409 -149.113589 
L 300.546354 -147.32965 
L 301.342299 -145.537714 
L 302.138243 -144.092816 
L 302.934188 -143.162463 
L 303.730133 -142.599729 
L 304.526077 -141.914282 
L 305.322022 -140.502865 
L 306.117967 -138.065834 
L 306.913911 -134.919694 
L 307.709856 -131.939521 
L 308.505801 -130.15011 
L 309.301745 -130.246071 
L 310.09769 -132.306176 
L 310.893635 -135.781463 
L 311.689579 -139.690535 
L 312.485524 -142.920593 
L 313.281469 -144.552995 
L 314.077414 -144.131947 
L 314.873358 -141.785421 
L 315.669303 -138.154178 
L 316.465248 -134.181822 
L 317.261192 -130.868709 
L 318.057137 -129.043077 
L 318.853082 -129.147968 
L 319.649026 -131.081522 
L 320.444971 -134.18797 
L 321.240916 -137.462976 
L 322.03686 -139.920803 
L 322.832805 -140.951709 
L 323.62875 -140.478739 
L 324.424694 -138.865942 
L 325.220639 -136.710886 
L 326.016584 -134.686511 
L 326.812528 -133.47696 
L 327.608473 -133.715126 
L 328.404418 -135.823683 
L 329.200363 -139.806245 
L 329.996307 -145.143328 
L 330.792252 -150.887794 
L 331.588197 -155.923306 
L 332.384141 -159.272443 
L 333.180086 -160.342937 
L 333.976031 -159.046577 
L 334.771975 -155.777521 
L 335.56792 -151.276993 
L 336.363865 -146.43354 
L 337.159809 -142.069601 
L 337.955754 -138.758926 
L 338.751699 -136.723812 
L 339.547643 -135.862063 
L 340.343588 -135.906442 
L 341.139533 -136.619928 
L 341.935477 -137.87599 
L 342.731422 -139.572206 
L 343.527367 -141.501496 
L 344.323311 -143.357254 
L 345.119256 -144.908398 
L 345.915201 -146.175996 
L 346.711146 -147.413862 
L 347.50709 -148.906348 
L 348.303035 -150.76545 
L 349.09898 -152.860279 
L 349.894924 -154.890514 
L 350.690869 -156.54227 
L 351.486814 -157.631642 
L 352.282758 -158.14938 
L 353.078703 -158.193787 
L 353.874648 -157.873036 
L 354.670592 -157.280444 
L 355.466537 -156.56304 
L 356.262482 -155.977636 
L 357.058426 -155.810903 
L 357.854371 -156.198714 
L 358.650316 -157.017527 
L 359.44626 -157.951855 
L 360.242205 -158.668247 
L 361.03815 -158.945331 
L 361.834095 -158.68886 
L 362.630039 -157.892964 
L 363.425984 -156.633419 
L 364.221929 -155.07623 
L 365.017873 -153.41727 
L 365.813818 -151.762527 
L 366.609763 -150.074912 
L 367.405707 -148.267593 
L 368.201652 -146.385593 
L 368.997597 -144.748655 
L 369.793541 -143.958945 
L 370.589486 -144.737801 
L 371.385431 -147.611517 
L 372.181375 -152.547448 
L 372.97732 -158.727251 
L 373.773265 -164.642799 
L 374.569209 -168.573376 
L 375.365154 -169.283988 
L 376.161099 -166.587153 
L 376.957043 -161.452367 
L 377.752988 -155.660222 
L 378.548933 -151.242598 
L 379.344878 -149.920695 
L 380.140822 -152.619142 
L 380.936767 -159.107044 
L 381.732712 -167.908044 
L 382.528656 -176.651042 
L 383.324601 -182.867755 
L 384.120546 -184.940081 
L 384.91649 -182.682685 
L 385.712435 -177.224697 
L 386.50838 -170.362465 
L 387.304324 -163.866891 
L 388.100269 -159.08995 
L 388.896214 -156.815149 
L 389.692158 -157.095269 
L 390.488103 -159.114529 
L 391.284048 -161.376492 
L 392.079992 -162.309959 
L 392.875937 -161.015232 
L 393.671882 -157.675297 
L 394.467827 -153.339534 
L 395.263771 -149.310918 
L 396.059716 -146.636406 
L 396.855661 -145.908245 
L 397.651605 -147.223633 
L 398.44755 -150.175532 
L 399.243495 -153.962694 
L 400.039439 -157.708428 
L 400.835384 -160.859587 
L 401.631329 -163.365453 
L 402.427273 -165.46777 
L 403.223218 -167.306365 
L 404.019163 -168.714405 
L 404.815107 -169.354772 
L 405.611052 -169.018782 
L 406.406997 -167.803654 
L 407.202941 -166.071977 
L 407.998886 -164.307698 
L 408.794831 -162.989721 
L 409.590775 -162.49004 
L 410.38672 -162.950662 
L 411.182665 -164.166422 
L 411.97861 -165.588997 
L 412.774554 -166.522312 
L 413.570499 -166.431603 
L 413.570499 -256.481727 
L 413.570499 -256.481727 
L 412.774554 -256.847811 
L 411.97861 -256.715825 
L 411.182665 -256.251297 
L 410.38672 -255.877217 
L 409.590775 -256.081527 
L 408.794831 -257.154632 
L 407.998886 -258.984339 
L 407.202941 -261.059547 
L 406.406997 -262.723303 
L 405.611052 -263.516473 
L 404.815107 -263.360396 
L 404.019163 -262.454807 
L 403.223218 -261.019796 
L 402.427273 -259.138373 
L 401.631329 -256.80188 
L 400.835384 -254.023429 
L 400.039439 -250.861604 
L 399.243495 -247.384264 
L 398.44755 -243.737438 
L 397.651605 -240.331997 
L 396.855661 -237.907048 
L 396.059716 -237.266817 
L 395.263771 -238.802396 
L 394.467827 -242.171088 
L 393.671882 -246.414215 
L 392.875937 -250.388933 
L 392.079992 -253.155508 
L 391.284048 -254.182792 
L 390.488103 -253.521491 
L 389.692158 -251.970293 
L 388.896214 -250.981499 
L 388.100269 -252.116224 
L 387.304324 -256.201032 
L 386.50838 -262.68933 
L 385.712435 -269.76001 
L 384.91649 -275.140526 
L 384.120546 -277.072182 
L 383.324601 -274.8781 
L 382.528656 -269.016196 
L 381.732712 -260.836296 
L 380.936767 -252.248187 
L 380.140822 -245.282244 
L 379.344878 -241.508346 
L 378.548933 -241.484948 
L 377.752988 -244.534486 
L 376.957043 -249.029059 
L 376.161099 -253.070028 
L 375.365154 -255.189117 
L 374.569209 -254.722547 
L 373.773265 -251.792318 
L 372.97732 -247.092019 
L 372.181375 -241.656437 
L 371.385431 -236.620568 
L 370.589486 -232.941563 
L 369.793541 -231.145582 
L 368.997597 -231.207523 
L 368.201652 -232.631871 
L 367.405707 -234.701323 
L 366.609763 -236.766283 
L 365.813818 -238.449265 
L 365.017873 -239.710681 
L 364.221929 -240.773673 
L 363.425984 -241.929015 
L 362.630039 -243.298832 
L 361.834095 -244.711973 
L 361.03815 -245.800441 
L 360.242205 -246.235641 
L 359.44626 -245.9034 
L 358.650316 -244.914591 
L 357.854371 -243.519264 
L 357.058426 -242.036176 
L 356.262482 -240.8137 
L 355.466537 -240.154195 
L 354.670592 -240.179449 
L 353.874648 -240.739253 
L 353.078703 -241.489748 
L 352.282758 -242.108748 
L 351.486814 -242.464955 
L 350.690869 -242.607698 
L 349.894924 -242.610141 
L 349.09898 -242.413497 
L 348.303035 -241.802525 
L 347.50709 -240.526812 
L 346.711146 -238.479131 
L 345.915201 -235.812142 
L 345.119256 -232.900706 
L 344.323311 -230.142659 
L 343.527367 -227.737612 
L 342.731422 -225.649901 
L 341.935477 -223.789443 
L 341.139533 -222.215081 
L 340.343588 -221.172342 
L 339.547643 -220.96456 
L 338.751699 -221.797881 
L 337.955754 -223.717457 
L 337.159809 -226.618931 
L 336.363865 -230.253144 
L 335.56792 -234.203609 
L 334.771975 -237.891123 
L 333.976031 -240.65664 
L 333.180086 -241.914142 
L 332.384141 -241.314666 
L 331.588197 -238.855294 
L 330.792252 -234.895642 
L 329.996307 -230.08521 
L 329.200363 -225.236178 
L 328.404418 -221.179311 
L 327.608473 -218.613588 
L 326.812528 -217.938595 
L 326.016584 -219.090791 
L 325.220639 -221.483096 
L 324.424694 -224.16052 
L 323.62875 -226.142914 
L 322.832805 -226.764027 
L 322.03686 -225.825628 
L 321.240916 -223.542595 
L 320.444971 -220.403019 
L 319.649026 -217.071396 
L 318.853082 -214.328821 
L 318.057137 -212.950312 
L 317.261192 -213.474712 
L 316.465248 -215.948367 
L 315.669303 -219.805117 
L 314.873358 -224.002541 
L 314.077414 -227.373952 
L 313.281469 -229.024609 
L 312.485524 -228.612764 
L 311.689579 -226.440264 
L 310.893635 -223.334516 
L 310.09769 -220.347379 
L 309.301745 -218.372264 
L 308.505801 -217.848226 
L 307.709856 -218.687224 
L 306.913911 -220.421065 
L 306.117967 -222.43502 
L 305.322022 -224.158603 
L 304.526077 -225.208431 
L 303.730133 -225.539616 
L 302.934188 -225.54181 
L 302.138243 -225.91234 
L 301.342299 -227.259152 
L 300.546354 -229.644229 
L 299.750409 -232.430024 
L 298.954465 -234.600009 
L 298.15852 -235.320281 
L 297.362575 -234.351897 
L 296.56663 -232.108427 
L 295.770686 -229.416529 
L 294.974741 -227.170988 
L 294.178796 -226.028145 
L 293.382852 -226.183306 
L 292.586907 -227.264808 
L 291.790962 -228.405236 
L 290.995018 -228.522941 
L 290.199073 -226.750731 
L 289.403128 -222.842655 
L 288.607184 -217.365523 
L 287.811239 -211.571809 
L 287.015294 -206.988097 
L 286.21935 -204.866665 
L 285.423405 -205.709048 
L 284.62746 -209.058808 
L 283.831516 -213.65633 
L 283.035571 -217.882037 
L 282.239626 -220.288489 
L 281.443682 -220.026407 
L 280.647737 -217.06539 
L 279.851792 -212.174403 
L 279.055847 -206.643988 
L 278.259903 -201.804134 
L 277.463958 -198.537212 
L 276.668013 -197.052598 
L 275.872069 -197.030424 
L 275.076124 -197.972401 
L 274.280179 -199.485365 
L 273.484235 -201.332234 
L 272.68829 -203.298286 
L 271.892345 -205.075001 
L 271.096401 -206.304399 
L 270.300456 -206.724865 
L 269.504511 -206.265555 
L 268.708567 -205.023117 
L 267.912622 -203.200894 
L 267.116677 -201.125662 
L 266.320733 -199.304017 
L 265.524788 -198.335877 
L 264.728843 -198.581743 
L 263.932898 -199.743338 
L 263.136954 -200.740427 
L 262.341009 -200.125004 
L 261.545064 -196.814413 
L 260.74912 -190.684804 
L 259.953175 -182.711883 
L 259.15723 -174.6319 
L 258.361286 -168.351323 
L 257.565341 -165.390476 
L 256.769396 -166.476637 
L 255.973452 -171.298615 
L 255.177507 -178.500745 
L 254.381562 -185.996747 
L 253.585618 -191.538602 
L 252.789673 -193.340443 
L 251.993728 -190.563511 
L 251.197784 -183.557348 
L 250.401839 -173.796359 
L 249.605894 -163.467507 
L 248.80995 -154.762575 
L 248.014005 -149.115431 
L 247.21806 -146.761174 
L 246.422115 -146.855381 
L 245.626171 -148.009733 
L 244.830226 -148.871112 
L 244.034281 -148.47875 
L 243.238337 -146.391568 
L 242.442392 -142.732069 
L 241.646447 -138.197562 
L 240.850503 -133.905669 
L 240.054558 -130.964952 
L 239.258613 -129.937004 
L 238.462669 -130.609635 
L 237.666724 -132.29629 
L 236.870779 -134.357313 
L 236.074835 -136.466473 
L 235.27889 -138.427287 
L 234.482945 -139.838522 
L 233.687001 -140.153265 
L 232.891056 -139.150161 
L 232.095111 -137.270234 
L 231.299166 -135.441262 
L 230.503222 -134.511359 
L 229.707277 -134.833041 
L 228.911332 -136.401244 
L 228.115388 -139.239016 
L 227.319443 -143.466701 
L 226.523498 -148.93591 
L 225.727554 -154.859584 
L 224.931609 -159.95145 
L 224.135664 -162.99428 
L 223.33972 -163.32248 
L 222.543775 -160.933995 
L 221.74783 -156.314912 
L 220.951886 -150.218876 
L 220.155941 -143.549919 
L 219.359996 -137.265934 
L 218.564052 -132.184143 
L 217.768107 -128.781878 
L 216.972162 -127.169243 
L 216.176218 -127.225449 
L 215.380273 -128.734514 
L 214.584328 -131.416777 
L 213.788383 -134.912289 
L 212.992439 -138.833926 
L 212.196494 -142.895769 
L 211.400549 -146.990449 
L 210.604605 -151.10707 
L 209.80866 -155.110026 
L 209.012715 -158.538344 
L 208.216771 -160.63707 
L 207.420826 -160.676868 
L 206.624881 -158.367451 
L 205.828937 -154.100094 
L 205.032992 -148.876753 
L 204.237047 -143.961403 
L 203.441103 -140.447778 
L 202.645158 -138.968213 
L 201.849213 -139.625021 
L 201.053269 -142.076525 
L 200.257324 -145.682893 
L 199.461379 -149.651817 
L 198.665434 -153.172928 
L 197.86949 -155.584602 
L 197.073545 -156.58547 
L 196.2776 -156.370845 
L 195.481656 -155.539506 
L 194.685711 -154.770907 
L 193.889766 -154.474443 
L 193.093822 -154.667298 
L 192.297877 -155.156474 
L 191.501932 -155.828507 
L 190.705988 -156.708758 
L 189.910043 -157.628182 
L 189.114098 -157.941912 
L 188.318154 -156.9157 
L 187.522209 -154.441628 
L 186.726264 -151.294455 
L 185.93032 -148.709411 
L 185.134375 -147.657151 
L 184.33843 -148.446806 
L 183.542485 -150.868391 
L 182.746541 -154.463982 
L 181.950596 -158.581699 
L 181.154651 -162.318083 
L 180.358707 -164.664334 
L 179.562762 -164.919187 
L 178.766817 -163.000348 
L 177.970873 -159.322118 
L 177.174928 -154.443593 
L 176.378983 -148.919269 
L 175.583039 -143.361606 
L 174.787094 -138.42879 
L 173.991149 -134.616534 
L 173.195205 -131.986103 
L 172.39926 -130.120469 
L 171.603315 -128.471613 
L 170.807371 -126.836617 
L 170.011426 -125.564503 
L 169.215481 -125.39173 
L 168.419537 -127.040627 
L 167.623592 -130.746954 
L 166.827647 -135.921011 
L 166.031702 -141.207414 
L 165.235758 -145.021025 
L 164.439813 -146.251993 
L 163.643868 -144.69061 
L 162.847924 -140.944737 
L 162.051979 -136.028609 
L 161.256034 -131.040687 
L 160.46009 -127.069957 
L 159.664145 -125.085175 
L 158.8682 -125.638676 
L 158.072256 -128.57131 
L 157.276311 -133.081647 
L 156.480366 -138.198186 
L 155.684422 -143.247396 
L 154.888477 -147.958494 
L 154.092532 -152.205509 
L 153.296588 -155.677911 
L 152.500643 -157.819356 
L 151.704698 -158.099293 
L 150.908753 -156.363575 
L 150.112809 -152.994637 
L 149.316864 -148.82252 
L 148.520919 -144.913176 
L 147.724975 -142.351083 
L 146.92903 -141.991041 
L 146.133085 -144.13015 
L 145.337141 -148.209774 
L 144.541196 -152.82256 
L 143.745251 -156.197814 
L 142.949307 -156.94764 
L 142.153362 -154.638498 
L 141.357417 -149.929934 
L 140.561473 -144.312789 
L 139.765528 -139.62674 
L 138.969583 -137.497915 
L 138.173639 -138.750938 
L 137.377694 -142.935156 
L 136.581749 -148.342274 
L 135.785805 -152.735779 
L 134.98986 -154.38624 
L 134.193915 -152.793297 
L 133.39797 -148.79563 
L 132.602026 -144.135902 
L 131.806081 -140.783142 
L 131.010136 -140.317181 
L 130.214192 -143.497732 
L 129.418247 -150.034667 
L 128.622302 -158.604189 
L 127.826358 -167.173288 
L 127.030413 -173.605869 
L 126.234468 -176.342671 
L 125.438524 -174.856417 
L 124.642579 -169.724149 
L 123.846634 -162.381385 
L 123.05069 -154.71676 
L 122.254745 -148.619211 
L 121.4588 -145.521302 
L 120.662856 -145.998517 
L 119.866911 -149.604645 
L 119.070966 -155.143667 
L 118.275021 -161.282006 
L 117.479077 -167.077793 
L 116.683132 -172.013068 
L 115.887187 -175.547115 
L 115.091243 -176.87969 
L 114.295298 -175.37301 
L 113.499353 -171.111163 
L 112.703409 -165.08343 
L 111.907464 -158.921098 
L 111.111519 -154.224288 
L 110.315575 -151.774286 
L 109.51963 -151.332673 
L 108.723685 -152.142799 
L 107.927741 -153.481844 
L 107.131796 -154.913753 
L 106.335851 -156.19317 
L 105.539907 -156.920068 
L 104.743962 -156.459405 
L 103.948017 -154.424385 
L 103.152073 -151.209947 
L 102.356128 -148.06878 
L 101.560183 -146.646355 
L 100.764238 -148.088282 
L 99.968294 -152.259858 
L 99.172349 -157.892222 
L 98.376404 -163.418651 
L 97.58046 -167.622551 
L 96.784515 -169.887403 
L 95.98857 -170.18276 
L 95.192626 -168.859785 
L 94.396681 -166.403398 
L 93.600736 -163.353236 
L 92.804792 -160.383576 
L 92.008847 -158.304677 
L 91.212902 -157.755692 
L 90.416958 -158.644435 
L 89.621013 -159.970101 
L 88.825068 -160.515456 
L 88.029124 -159.789828 
L 87.233179 -158.337518 
L 86.437234 -157.037823 
L 85.641289 -156.073616 
L 84.845345 -155.038371 
L 84.0494 -153.737622 
L 83.253455 -152.379946 
L 82.457511 -151.198639 
L 81.661566 -150.14393 
L 80.865621 -149.089184 
L 80.069677 -148.286456 
L 79.273732 -148.361275 
L 78.477787 -149.661404 
L 77.681843 -151.810553 
L 76.885898 -154.073699 
L 76.089953 -155.906048 
L 75.294009 -157.139406 
L 74.498064 -157.733622 
L 73.702119 -157.295287 
L 72.906175 -155.123732 
L 72.11023 -150.934298 
L 71.314285 -145.33735 
L 70.51834 -139.696505 
L 69.722396 -135.533714 
L 68.926451 -133.6973 
L 68.130506 -133.837621 
L 67.334562 -134.731513 
L 66.538617 -135.116784 
L 65.742672 -134.353511 
L 64.946728 -132.525849 
L 64.150783 -129.964807 
L 63.354838 -126.882156 
L 62.558894 -123.621874 
L 61.762949 -120.892703 
L 60.967004 -119.519209 
L 60.17106 -119.943179 
L 59.375115 -121.902083 
L 58.57917 -124.579726 
L 57.783226 -127.069315 
L 56.987281 -128.725936 
L 56.191336 -129.27498 
L 55.395392 -128.812601 
L 54.599447 -127.73651 
L 53.803502 -126.559982 
L 53.007557 -125.718276 
L 52.211613 -125.549411 
L 51.415668 -126.428724 
L 50.619723 -128.799934 
L 49.823779 -132.849582 
L 49.027834 -138.041427 
L 48.231889 -143.205285 
L 47.435945 -147.208434 
L 46.64 -149.498402 
z
" style="stroke: #e41a1c; stroke-opacity: 0.3"/>
    </defs>
    <g clip-path="url(#p5afeea96d2)">
     <use xlink:href="#m81923bbd65" x="0" y="360" style="fill: #e41a1c; fill-opacity: 0.3; stroke: #e41a1c; stroke-opacity: 0.3"/>
    </g>
   </g>
   <g id="PolyCollection_2">
    <defs>
     <path id="m5db46ad656" d="M 46.64 -136.027986 
L 46.64 -116.018986 
L 47.435945 -117.49632 
L 48.231889 -117.424438 
L 49.027834 -115.893799 
L 49.823779 -113.437219 
L 50.619723 -110.841522 
L 51.415668 -108.899923 
L 52.211613 -108.155026 
L 53.007557 -108.697772 
L 53.803502 -110.121987 
L 54.599447 -111.687055 
L 55.395392 -112.626766 
L 56.191336 -112.460788 
L 56.987281 -111.163219 
L 57.783226 -109.121275 
L 58.57917 -106.926478 
L 59.375115 -105.10612 
L 60.17106 -103.911458 
L 60.967004 -103.256585 
L 61.762949 -102.848187 
L 62.558894 -102.438233 
L 63.354838 -102.019366 
L 64.150783 -101.835102 
L 64.946728 -102.248164 
L 65.742672 -103.555966 
L 66.538617 -105.804098 
L 67.334562 -108.659244 
L 68.130506 -111.446452 
L 68.926451 -113.423846 
L 69.722396 -114.135641 
L 70.51834 -113.543362 
L 71.314285 -111.930622 
L 72.11023 -109.751894 
L 72.906175 -107.505805 
L 73.702119 -105.686232 
L 74.498064 -104.774597 
L 75.294009 -105.103817 
L 76.089953 -106.636713 
L 76.885898 -108.919961 
L 77.681843 -111.293229 
L 78.477787 -113.229638 
L 79.273732 -114.577755 
L 80.069677 -115.517603 
L 80.865621 -116.315677 
L 81.661566 -117.097635 
L 82.457511 -117.757103 
L 83.253455 -118.034235 
L 84.0494 -117.718019 
L 84.845345 -116.809655 
L 85.641289 -115.516911 
L 86.437234 -114.138213 
L 87.233179 -112.95583 
L 88.029124 -112.188514 
L 88.825068 -111.97405 
L 89.621013 -112.314208 
L 90.416958 -113.0052 
L 91.212902 -113.673084 
L 92.008847 -113.953656 
L 92.804792 -113.702177 
L 93.600736 -113.070915 
L 94.396681 -112.405752 
L 95.192626 -112.058218 
L 95.98857 -112.241496 
L 96.784515 -112.987306 
L 97.58046 -114.164043 
L 98.376404 -115.503966 
L 99.172349 -116.662251 
L 99.968294 -117.336245 
L 100.764238 -117.397521 
L 101.560183 -116.954921 
L 102.356128 -116.306478 
L 103.152073 -115.807054 
L 103.948017 -115.723458 
L 104.743962 -116.143608 
L 105.539907 -116.968301 
L 106.335851 -117.977518 
L 107.131796 -118.94077 
L 107.927741 -119.724247 
L 108.723685 -120.33886 
L 109.51963 -120.894915 
L 110.315575 -121.487381 
L 111.111519 -122.094354 
L 111.907464 -122.57377 
L 112.703409 -122.760623 
L 113.499353 -122.56419 
L 114.295298 -121.98356 
L 115.091243 -121.070171 
L 115.887187 -119.899859 
L 116.683132 -118.572694 
L 117.479077 -117.211358 
L 118.275021 -115.916056 
L 119.070966 -114.693069 
L 119.866911 -113.441008 
L 120.662856 -112.042691 
L 121.4588 -110.510188 
L 122.254745 -109.074576 
L 123.05069 -108.142237 
L 123.846634 -108.126801 
L 124.642579 -109.244271 
L 125.438524 -111.380801 
L 126.234468 -114.09533 
L 127.030413 -116.733053 
L 127.826358 -118.588186 
L 128.622302 -119.089488 
L 129.418247 -117.991139 
L 130.214192 -115.503669 
L 131.010136 -112.271374 
L 131.806081 -109.157717 
L 132.602026 -106.922626 
L 133.39797 -105.957054 
L 134.193915 -106.195838 
L 134.98986 -107.208202 
L 135.785805 -108.385776 
L 136.581749 -109.156811 
L 137.377694 -109.181654 
L 138.173639 -108.476645 
L 138.969583 -107.406102 
L 139.765528 -106.521434 
L 140.561473 -106.310419 
L 141.357417 -106.978646 
L 142.153362 -108.359333 
L 142.949307 -109.975393 
L 143.745251 -111.221619 
L 144.541196 -111.599818 
L 145.337141 -110.909825 
L 146.133085 -109.298291 
L 146.92903 -107.13802 
L 147.724975 -104.822447 
L 148.520919 -102.60713 
L 149.316864 -100.571276 
L 150.112809 -98.677374 
L 150.908753 -96.867403 
L 151.704698 -95.157354 
L 152.500643 -93.707186 
L 153.296588 -92.825578 
L 154.092532 -92.869508 
L 154.888477 -94.058303 
L 155.684422 -96.301264 
L 156.480366 -99.15122 
L 157.276311 -101.920773 
L 158.072256 -103.902962 
L 158.8682 -104.600443 
L 159.664145 -103.886826 
L 160.46009 -102.050269 
L 161.256034 -99.693834 
L 162.051979 -97.515093 
L 162.847924 -96.051337 
L 163.643868 -95.504952 
L 164.439813 -95.715911 
L 165.235758 -96.261317 
L 166.031702 -96.61985 
L 166.827647 -96.353937 
L 167.623592 -95.274005 
L 168.419537 -93.536554 
L 169.215481 -91.615161 
L 170.011426 -90.111643 
L 170.807371 -89.473129 
L 171.603315 -89.770253 
L 172.39926 -90.660494 
L 173.195205 -91.545664 
L 173.991149 -91.839379 
L 174.787094 -91.228482 
L 175.583039 -89.822927 
L 176.378983 -88.123891 
L 177.174928 -86.80945 
L 177.970873 -86.432035 
L 178.766817 -87.179552 
L 179.562762 -88.812747 
L 180.358707 -90.776222 
L 181.154651 -92.397453 
L 181.950596 -93.101824 
L 182.746541 -92.603982 
L 183.542485 -91.026625 
L 184.33843 -88.892469 
L 185.134375 -86.964353 
L 185.93032 -85.961139 
L 186.726264 -86.24585 
L 187.522209 -87.631131 
L 188.318154 -89.413442 
L 189.114098 -90.641252 
L 189.910043 -90.510088 
L 190.705988 -88.70809 
L 191.501932 -85.550919 
L 192.297877 -81.854642 
L 193.093822 -78.629818 
L 193.889766 -76.745388 
L 194.685711 -76.673009 
L 195.481656 -78.345049 
L 196.2776 -81.151045 
L 197.073545 -84.126885 
L 197.86949 -86.326163 
L 198.665434 -87.221166 
L 199.461379 -86.906714 
L 200.257324 -85.986203 
L 201.053269 -85.235135 
L 201.849213 -85.255433 
L 202.645158 -86.27909 
L 203.441103 -88.138348 
L 204.237047 -90.336773 
L 205.032992 -92.199414 
L 205.828937 -93.110873 
L 206.624881 -92.776965 
L 207.420826 -91.374261 
L 208.216771 -89.478938 
L 209.012715 -87.793719 
L 209.80866 -86.824328 
L 210.604605 -86.679322 
L 211.400549 -87.076499 
L 212.196494 -87.520541 
L 212.992439 -87.545353 
L 213.788383 -86.91268 
L 214.584328 -85.694139 
L 215.380273 -84.208708 
L 216.176218 -82.844676 
L 216.972162 -81.855293 
L 217.768107 -81.240343 
L 218.564052 -80.776723 
L 219.359996 -80.163769 
L 220.155941 -79.190109 
L 220.951886 -77.85125 
L 221.74783 -76.391075 
L 222.543775 -75.255544 
L 223.33972 -74.947271 
L 224.135664 -75.791637 
L 224.931609 -77.697311 
L 225.727554 -80.059982 
L 226.523498 -81.913443 
L 227.319443 -82.289072 
L 228.115388 -80.616681 
L 228.911332 -76.977461 
L 229.707277 -72.108824 
L 230.503222 -67.179112 
L 231.299166 -63.416607 
L 232.095111 -61.698993 
L 232.891056 -62.233864 
L 233.687001 -64.471445 
L 234.482945 -67.31987 
L 235.27889 -69.585462 
L 236.074835 -70.436408 
L 236.870779 -69.68609 
L 237.666724 -67.807676 
L 238.462669 -65.721384 
L 239.258613 -64.456287 
L 240.054558 -64.786767 
L 240.850503 -66.943508 
L 241.646447 -70.514787 
L 242.442392 -74.608339 
L 243.238337 -78.2127 
L 244.034281 -80.578549 
L 244.830226 -81.437096 
L 245.626171 -80.986301 
L 246.422115 -79.711165 
L 247.21806 -78.163947 
L 248.014005 -76.791257 
L 248.80995 -75.822846 
L 249.605894 -75.228557 
L 250.401839 -74.779204 
L 251.197784 -74.212409 
L 251.993728 -73.426564 
L 252.789673 -72.586027 
L 253.585618 -72.055788 
L 254.381562 -72.191729 
L 255.177507 -73.116993 
L 255.973452 -74.617621 
L 256.769396 -76.204009 
L 257.565341 -77.298098 
L 258.361286 -77.467464 
L 259.15723 -76.621686 
L 259.953175 -75.089984 
L 260.74912 -73.524853 
L 261.545064 -72.651383 
L 262.341009 -72.976727 
L 263.136954 -74.607459 
L 263.932898 -77.254552 
L 264.728843 -80.386648 
L 265.524788 -83.425381 
L 266.320733 -85.909583 
L 267.116677 -87.61202 
L 267.912622 -88.598092 
L 268.708567 -89.192164 
L 269.504511 -89.824055 
L 270.300456 -90.80335 
L 271.096401 -92.154997 
L 271.892345 -93.630741 
L 272.68829 -94.879393 
L 273.484235 -95.637715 
L 274.280179 -95.819507 
L 275.076124 -95.502368 
L 275.872069 -94.886311 
L 276.668013 -94.265826 
L 277.463958 -93.978764 
L 278.259903 -94.286043 
L 279.055847 -95.239153 
L 279.851792 -96.657263 
L 280.647737 -98.250792 
L 281.443682 -99.79147 
L 282.239626 -101.185101 
L 283.035571 -102.404756 
L 283.831516 -103.377083 
L 284.62746 -103.934867 
L 285.423405 -103.863381 
L 286.21935 -102.985334 
L 287.015294 -101.23029 
L 287.811239 -98.687086 
L 288.607184 -95.646759 
L 289.403128 -92.609448 
L 290.199073 -90.218053 
L 290.995018 -89.108753 
L 291.790962 -89.708362 
L 292.586907 -92.044402 
L 293.382852 -95.654648 
L 294.178796 -99.666947 
L 294.974741 -103.053944 
L 295.770686 -104.97076 
L 296.56663 -105.020745 
L 297.362575 -103.337361 
L 298.15852 -100.489029 
L 298.954465 -97.288235 
L 299.750409 -94.571576 
L 300.546354 -92.97775 
L 301.342299 -92.757723 
L 302.138243 -93.691796 
L 302.934188 -95.176056 
L 303.730133 -96.456086 
L 304.526077 -96.904684 
L 305.322022 -96.226979 
L 306.117967 -94.525672 
L 306.913911 -92.221696 
L 307.709856 -89.871082 
L 308.505801 -87.952792 
L 309.301745 -86.718686 
L 310.09769 -86.169358 
L 310.893635 -86.14752 
L 311.689579 -86.472582 
L 312.485524 -87.036681 
L 313.281469 -87.834592 
L 314.077414 -88.935117 
L 314.873358 -90.403093 
L 315.669303 -92.19631 
L 316.465248 -94.097535 
L 317.261192 -95.74507 
L 318.057137 -96.761614 
L 318.853082 -96.901698 
L 319.649026 -96.133955 
L 320.444971 -94.644874 
L 321.240916 -92.802016 
L 322.03686 -91.102186 
L 322.832805 -90.08513 
L 323.62875 -90.181892 
L 324.424694 -91.535423 
L 325.220639 -93.902695 
L 326.016584 -96.718229 
L 326.812528 -99.30234 
L 327.608473 -101.114007 
L 328.404418 -101.918803 
L 329.200363 -101.796971 
L 329.996307 -101.028929 
L 330.792252 -99.963219 
L 331.588197 -98.938914 
L 332.384141 -98.246727 
L 333.180086 -98.073406 
L 333.976031 -98.433726 
L 334.771975 -99.161329 
L 335.56792 -100.003203 
L 336.363865 -100.765007 
L 337.159809 -101.383343 
L 337.955754 -101.865075 
L 338.751699 -102.185903 
L 339.547643 -102.276834 
L 340.343588 -102.107601 
L 341.139533 -101.759078 
L 341.935477 -101.396939 
L 342.731422 -101.177315 
L 343.527367 -101.172739 
L 344.323311 -101.359503 
L 345.119256 -101.642364 
L 345.915201 -101.87906 
L 346.711146 -101.904044 
L 347.50709 -101.574528 
L 348.303035 -100.834932 
L 349.09898 -99.763116 
L 349.894924 -98.568015 
L 350.690869 -97.537246 
L 351.486814 -96.951307 
L 352.282758 -96.987916 
L 353.078703 -97.650935 
L 353.874648 -98.763465 
L 354.670592 -100.042627 
L 355.466537 -101.229823 
L 356.262482 -102.211205 
L 357.058426 -103.056697 
L 357.854371 -103.94779 
L 358.650316 -105.035644 
L 359.44626 -106.322432 
L 360.242205 -107.647869 
L 361.03815 -108.782478 
L 361.834095 -109.53809 
L 362.630039 -109.811241 
L 363.425984 -109.568071 
L 364.221929 -108.826442 
L 365.017873 -107.65901 
L 365.813818 -106.196982 
L 366.609763 -104.603113 
L 367.405707 -103.017519 
L 368.201652 -101.524973 
L 368.997597 -100.181997 
L 369.793541 -99.083162 
L 370.589486 -98.406727 
L 371.385431 -98.393531 
L 372.181375 -99.257573 
L 372.97732 -101.066341 
L 373.773265 -103.646076 
L 374.569209 -106.559273 
L 375.365154 -109.174385 
L 376.161099 -110.813945 
L 376.957043 -110.941999 
L 377.752988 -109.337878 
L 378.548933 -106.19451 
L 379.344878 -102.083787 
L 380.140822 -97.776577 
L 380.936767 -93.987607 
L 381.732712 -91.167912 
L 382.528656 -89.433911 
L 383.324601 -88.631124 
L 384.120546 -88.46328 
L 384.91649 -88.622131 
L 385.712435 -88.893991 
L 386.50838 -89.231849 
L 387.304324 -89.761717 
L 388.100269 -90.692533 
L 388.896214 -92.159228 
L 389.692158 -94.096294 
L 390.488103 -96.225279 
L 391.284048 -98.152968 
L 392.079992 -99.5099 
L 392.875937 -100.063909 
L 393.671882 -99.783248 
L 394.467827 -98.840779 
L 395.263771 -97.54763 
L 396.059716 -96.224681 
L 396.855661 -95.069194 
L 397.651605 -94.096254 
L 398.44755 -93.186452 
L 399.243495 -92.190311 
L 400.039439 -91.01298 
L 400.835384 -89.65023 
L 401.631329 -88.191595 
L 402.427273 -86.800935 
L 403.223218 -85.667532 
L 404.019163 -84.933205 
L 404.815107 -84.629756 
L 405.611052 -84.666069 
L 406.406997 -84.874259 
L 407.202941 -85.089549 
L 407.998886 -85.225428 
L 408.794831 -85.309059 
L 409.590775 -85.453209 
L 410.38672 -85.768734 
L 411.182665 -86.265231 
L 411.97861 -86.810594 
L 412.774554 -87.181245 
L 413.570499 -87.157638 
L 413.570499 -126.989449 
L 413.570499 -126.989449 
L 412.774554 -126.78353 
L 411.97861 -126.171052 
L 411.182665 -125.511536 
L 410.38672 -125.018979 
L 409.590775 -124.724934 
L 408.794831 -124.541538 
L 407.998886 -124.351592 
L 407.202941 -124.083115 
L 406.406997 -123.754696 
L 405.611052 -123.480697 
L 404.815107 -123.42926 
L 404.019163 -123.74883 
L 403.223218 -124.49857 
L 402.427273 -125.612894 
L 401.631329 -126.91332 
L 400.835384 -128.169937 
L 400.039439 -129.200135 
L 399.243495 -129.962992 
L 398.44755 -130.588476 
L 397.651605 -131.308002 
L 396.855661 -132.321853 
L 396.059716 -133.687359 
L 395.263771 -135.283687 
L 394.467827 -136.843314 
L 393.671882 -138.018843 
L 392.875937 -138.476045 
L 392.079992 -138.007738 
L 391.284048 -136.628973 
L 390.488103 -134.592609 
L 389.692158 -132.302637 
L 388.896214 -130.17193 
L 388.100269 -128.500172 
L 387.304324 -127.413511 
L 386.50838 -126.862047 
L 385.712435 -126.666996 
L 384.91649 -126.624886 
L 384.120546 -126.649097 
L 383.324601 -126.8684 
L 382.528656 -127.597618 
L 381.732712 -129.177603 
L 380.936767 -131.776122 
L 380.140822 -135.262746 
L 379.344878 -139.208995 
L 378.548933 -142.989722 
L 377.752988 -145.936264 
L 376.957043 -147.506566 
L 376.161099 -147.443397 
L 375.365154 -145.870208 
L 374.569209 -143.268734 
L 373.773265 -140.330119 
L 372.97732 -137.738615 
L 372.181375 -135.978861 
L 371.385431 -135.23875 
L 370.589486 -135.429207 
L 369.793541 -136.290241 
L 368.997597 -137.5242 
L 368.201652 -138.900714 
L 367.405707 -140.30255 
L 366.609763 -141.708004 
L 365.813818 -143.1231 
L 365.017873 -144.492898 
L 364.221929 -145.643172 
L 363.425984 -146.309887 
L 362.630039 -146.265046 
L 361.834095 -145.464569 
L 361.03815 -144.109503 
L 360.242205 -142.563002 
L 359.44626 -141.16844 
L 358.650316 -140.095782 
L 357.854371 -139.313353 
L 357.058426 -138.664792 
L 356.262482 -137.970665 
L 355.466537 -137.104653 
L 354.670592 -136.037212 
L 353.874648 -134.853896 
L 353.078703 -133.745875 
L 352.282758 -132.961261 
L 351.486814 -132.718879 
L 350.690869 -133.112603 
L 349.894924 -134.052405 
L 349.09898 -135.281381 
L 348.303035 -136.47021 
L 347.50709 -137.342964 
L 346.711146 -137.772619 
L 345.915201 -137.810029 
L 345.119256 -137.643193 
L 344.323311 -137.502525 
L 343.527367 -137.546394 
L 342.731422 -137.78616 
L 341.935477 -138.103609 
L 341.139533 -138.348049 
L 340.343588 -138.430629 
L 339.547643 -138.339216 
L 338.751699 -138.082235 
L 337.955754 -137.649162 
L 337.159809 -137.044475 
L 336.363865 -136.341854 
L 335.56792 -135.670787 
L 334.771975 -135.137742 
L 333.976031 -134.781325 
L 333.180086 -134.619854 
L 332.384141 -134.715386 
L 331.588197 -135.148408 
L 330.792252 -135.901563 
L 329.996307 -136.759173 
L 329.200363 -137.335312 
L 328.404418 -137.231955 
L 327.608473 -136.217887 
L 326.812528 -134.321552 
L 326.016584 -131.815146 
L 325.220639 -129.137617 
L 324.424694 -126.803099 
L 323.62875 -125.297773 
L 322.832805 -124.956154 
L 322.03686 -125.835382 
L 321.240916 -127.641032 
L 320.444971 -129.777306 
L 319.649026 -131.548846 
L 318.853082 -132.426256 
L 318.057137 -132.224019 
L 317.261192 -131.101046 
L 316.465248 -129.413495 
L 315.669303 -127.53262 
L 314.873358 -125.728195 
L 314.077414 -124.137801 
L 313.281469 -122.792485 
L 312.485524 -121.677264 
L 311.689579 -120.810604 
L 310.893635 -120.302487 
L 310.09769 -120.3392 
L 309.301745 -121.087951 
L 308.505801 -122.581905 
L 307.709856 -124.657926 
L 306.913911 -126.97095 
L 306.117967 -129.069842 
L 305.322022 -130.514955 
L 304.526077 -131.014948 
L 303.730133 -130.542814 
L 302.934188 -129.379965 
L 302.138243 -128.059325 
L 301.342299 -127.220969 
L 300.546354 -127.419612 
L 299.750409 -128.928115 
L 298.954465 -131.591162 
L 298.15852 -134.80246 
L 297.362575 -137.663386 
L 296.56663 -139.290967 
L 295.770686 -139.136602 
L 294.974741 -137.164119 
L 294.178796 -133.830528 
L 293.382852 -129.924754 
L 292.586907 -126.353698 
L 291.790962 -123.924998 
L 290.995018 -123.151597 
L 290.199073 -124.122056 
L 289.403128 -126.489214 
L 288.607184 -129.59579 
L 287.811239 -132.695935 
L 287.015294 -135.187058 
L 286.21935 -136.763542 
L 285.423405 -137.436336 
L 284.62746 -137.417064 
L 283.831516 -136.937682 
L 283.035571 -136.126249 
L 282.239626 -135.014134 
L 281.443682 -133.631099 
L 280.647737 -132.079862 
L 279.851792 -130.529857 
L 279.055847 -129.16622 
L 278.259903 -128.160802 
L 277.463958 -127.661581 
L 276.668013 -127.741811 
L 275.872069 -128.301326 
L 275.076124 -129.011627 
L 274.280179 -129.413418 
L 273.484235 -129.143039 
L 272.68829 -128.125316 
L 271.892345 -126.593688 
L 271.096401 -124.939365 
L 270.300456 -123.510663 
L 269.504511 -122.481148 
L 268.708567 -121.80659 
L 267.912622 -121.235241 
L 267.116677 -120.36984 
L 266.320733 -118.813175 
L 265.524788 -116.379314 
L 264.728843 -113.257831 
L 263.932898 -110.004353 
L 263.136954 -107.333187 
L 262.341009 -105.820069 
L 261.545064 -105.677925 
L 260.74912 -106.701159 
L 259.953175 -108.362353 
L 259.15723 -109.993982 
L 258.361286 -110.995966 
L 257.565341 -111.022399 
L 256.769396 -110.091779 
L 255.973452 -108.564212 
L 255.177507 -106.980134 
L 254.381562 -105.835081 
L 253.585618 -105.400833 
L 252.789673 -105.663735 
L 251.993728 -106.379248 
L 251.197784 -107.201478 
L 250.401839 -107.84639 
L 249.605894 -108.237887 
L 248.80995 -108.558627 
L 248.014005 -109.14582 
L 247.21806 -110.255335 
L 246.422115 -111.815641 
L 245.626171 -113.341479 
L 244.830226 -114.100736 
L 244.034281 -113.451289 
L 243.238337 -111.155901 
L 242.442392 -107.523222 
L 241.646447 -103.333853 
L 240.850503 -99.60146 
L 240.054558 -97.250883 
L 239.258613 -96.796467 
L 238.462669 -98.119763 
L 237.666724 -100.460744 
L 236.870779 -102.684217 
L 236.074835 -103.738811 
L 235.27889 -103.094486 
L 234.482945 -100.952951 
L 233.687001 -98.158023 
L 232.891056 -95.875606 
L 232.095111 -95.178945 
L 231.299166 -96.66968 
L 230.503222 -100.245652 
L 229.707277 -105.104971 
L 228.911332 -110.015109 
L 228.115388 -113.75826 
L 227.319443 -115.558066 
L 226.523498 -115.301767 
L 225.727554 -113.496116 
L 224.931609 -111.025501 
L 224.135664 -108.829904 
L 223.33972 -107.603867 
L 222.543775 -107.594357 
L 221.74783 -108.563378 
L 220.951886 -109.95068 
L 220.155941 -111.182353 
L 219.359996 -111.96458 
L 218.564052 -112.395198 
L 217.768107 -112.840712 
L 216.972162 -113.671852 
L 216.176218 -115.027832 
L 215.380273 -116.734751 
L 214.584328 -118.391017 
L 213.788383 -119.557002 
L 212.992439 -119.964784 
L 212.196494 -119.661364 
L 211.400549 -119.013976 
L 210.604605 -118.559408 
L 209.80866 -118.761532 
L 209.012715 -119.797005 
L 208.216771 -121.469007 
L 207.420826 -123.273665 
L 206.624881 -124.576281 
L 205.828937 -124.832074 
L 205.032992 -123.796755 
L 204.237047 -121.667629 
L 203.441103 -119.072513 
L 202.645158 -116.851446 
L 201.849213 -115.685221 
L 201.053269 -115.75621 
L 200.257324 -116.657669 
L 199.461379 -117.608382 
L 198.665434 -117.821242 
L 197.86949 -116.822225 
L 197.073545 -114.610273 
L 196.2776 -111.664471 
L 195.481656 -108.831409 
L 194.685711 -107.082711 
L 193.889766 -107.15958 
L 193.093822 -109.232272 
L 192.297877 -112.770322 
L 191.501932 -116.731175 
L 190.705988 -119.972269 
L 189.910043 -121.670852 
L 189.114098 -121.579422 
L 188.318154 -120.05791 
L 187.522209 -117.911965 
L 186.726264 -116.105414 
L 185.93032 -115.431061 
L 185.134375 -116.237017 
L 184.33843 -118.299005 
L 183.542485 -120.893055 
L 182.746541 -123.064848 
L 181.950596 -124.009642 
L 181.154651 -123.404188 
L 180.358707 -121.537667 
L 179.562762 -119.177325 
L 178.766817 -117.226423 
L 177.970873 -116.340545 
L 177.174928 -116.694414 
L 176.378983 -117.98577 
L 175.583039 -119.619047 
L 174.787094 -120.958086 
L 173.991149 -121.558507 
L 173.195205 -121.317102 
L 172.39926 -120.492813 
L 171.603315 -119.58733 
L 170.807371 -119.133008 
L 170.011426 -119.481351 
L 169.215481 -120.673735 
L 168.419537 -122.425061 
L 167.623592 -124.216466 
L 166.827647 -125.4885 
L 166.031702 -125.892283 
L 165.235758 -125.482307 
L 164.439813 -124.725164 
L 163.643868 -124.296042 
L 162.847924 -124.759854 
L 162.051979 -126.301726 
L 161.256034 -128.63557 
L 160.46009 -131.109614 
L 159.664145 -132.941833 
L 158.8682 -133.49579 
L 158.072256 -132.508515 
L 157.276311 -130.188038 
L 156.480366 -127.134704 
L 155.684422 -124.118032 
L 154.888477 -121.815804 
L 154.092532 -120.629116 
L 153.296588 -120.622948 
L 152.500643 -121.577348 
L 151.704698 -123.115582 
L 150.908753 -124.873149 
L 150.112809 -126.647138 
L 149.316864 -128.445253 
L 148.520919 -130.395462 
L 147.724975 -132.572766 
L 146.92903 -134.866462 
L 146.133085 -136.976542 
L 145.337141 -138.524558 
L 144.541196 -139.199797 
L 143.745251 -138.877869 
L 142.949307 -137.68963 
L 142.153362 -136.021513 
L 141.357417 -134.416772 
L 140.561473 -133.38633 
L 139.765528 -133.2077 
L 138.969583 -133.812224 
L 138.173639 -134.812926 
L 137.377694 -135.659791 
L 136.581749 -135.872115 
L 135.785805 -135.270881 
L 134.98986 -134.104443 
L 134.193915 -132.979216 
L 133.39797 -132.601478 
L 132.602026 -133.452914 
L 131.806081 -135.569616 
L 131.010136 -138.520241 
L 130.214192 -141.554908 
L 129.418247 -143.839658 
L 128.622302 -144.71048 
L 127.826358 -143.89672 
L 127.030413 -141.638972 
L 126.234468 -138.622768 
L 125.438524 -135.723562 
L 124.642579 -133.673288 
L 123.846634 -132.822562 
L 123.05069 -133.106529 
L 122.254745 -134.179082 
L 121.4588 -135.605419 
L 120.662856 -137.022838 
L 119.866911 -138.23005 
L 119.070966 -139.206209 
L 118.275021 -140.074093 
L 117.479077 -141.014988 
L 116.683132 -142.147986 
L 115.887187 -143.420946 
L 115.091243 -144.595692 
L 114.295298 -145.370303 
L 113.499353 -145.564468 
L 112.703409 -145.232117 
L 111.907464 -144.619574 
L 111.111519 -143.998348 
L 110.315575 -143.502955 
L 109.51963 -143.09408 
L 108.723685 -142.634314 
L 107.927741 -141.987639 
L 107.131796 -141.092521 
L 106.335851 -140.002184 
L 105.539907 -138.889368 
L 104.743962 -138.002802 
L 103.948017 -137.572785 
L 103.152073 -137.698674 
L 102.356128 -138.276852 
L 101.560183 -139.012868 
L 100.764238 -139.516619 
L 99.968294 -139.44153 
L 99.172349 -138.618224 
L 98.376404 -137.139602 
L 97.58046 -135.360849 
L 96.784515 -133.789787 
L 95.98857 -132.879611 
L 95.192626 -132.808896 
L 94.396681 -133.392646 
L 93.600736 -134.197061 
L 92.804792 -134.767365 
L 92.008847 -134.816522 
L 91.212902 -134.293576 
L 90.416958 -133.355948 
L 89.621013 -132.313969 
L 88.825068 -131.558191 
L 88.029124 -131.428352 
L 87.233179 -132.03819 
L 86.437234 -133.178042 
L 85.641289 -134.417231 
L 84.845345 -135.351435 
L 84.0494 -135.804689 
L 83.253455 -135.847982 
L 82.457511 -135.640932 
L 81.661566 -135.252757 
L 80.865621 -134.618054 
L 80.069677 -133.609498 
L 79.273732 -132.138488 
L 78.477787 -130.234545 
L 77.681843 -128.055121 
L 76.885898 -125.820041 
L 76.089953 -123.781148 
L 75.294009 -122.273469 
L 74.498064 -121.714381 
L 73.702119 -122.450993 
L 72.906175 -124.486723 
L 72.11023 -127.278583 
L 71.314285 -129.881628 
L 70.51834 -131.390074 
L 69.722396 -131.340011 
L 68.926451 -129.866383 
L 68.130506 -127.560238 
L 67.334562 -125.108765 
L 66.538617 -123.00145 
L 65.742672 -121.472485 
L 64.946728 -120.539456 
L 64.150783 -120.058158 
L 63.354838 -119.833828 
L 62.558894 -119.766402 
L 61.762949 -119.928386 
L 60.967004 -120.501934 
L 60.17106 -121.634472 
L 59.375115 -123.335307 
L 58.57917 -125.438585 
L 57.783226 -127.608465 
L 56.987281 -129.403634 
L 56.191336 -130.411784 
L 55.395392 -130.410942 
L 54.599447 -129.484982 
L 53.803502 -128.041926 
L 53.007557 -126.721878 
L 52.211613 -126.207113 
L 51.415668 -126.976268 
L 50.619723 -129.081092 
L 49.823779 -132.049152 
L 49.027834 -135.003124 
L 48.231889 -136.988093 
L 47.435945 -137.357404 
L 46.64 -136.027986 
z
" style="stroke: #377eb8; stroke-opacity: 0.3"/>
    </defs>
    <g clip-path="url(#p5afeea96d2)">
     <use xlink:href="#m5db46ad656" x="0" y="360" style="fill: #377eb8; fill-opacity: 0.3; stroke: #377eb8; stroke-opacity: 0.3"/>
    </g>
   </g>
   <g id="patch_3">
    <path d="M 229.866466 318.04 
L 229.866466 71.732 
L 331.747385 71.732 
L 331.747385 318.04 
z
" clip-path="url(#p5afeea96d2)" style="fill: #808080; opacity: 0.3"/>
   </g>
   <g id="matplotlib.axis_1">
    <g id="xtick_1">
     <g id="line2d_1">
      <defs>
       <path id="m2c29c493b2" d="M 0 0 
L 0 3.5 
" style="stroke: #000000; stroke-width: 0.8"/>
      </defs>
      <g>
       <use xlink:href="#m2c29c493b2" x="87.233179" y="318.04" style="stroke: #000000; stroke-width: 0.8"/>
      </g>
     </g>
     <g id="text_1">
      <!-- 0.0 -->
      <g transform="translate(79.281616 332.638438)scale(0.1 -0.1)">
       <defs>
        <path id="DejaVuSans-30" d="M 2034 4250 
Q 1547 4250 1301 3770 
Q 1056 3291 1056 2328 
Q 1056 1369 1301 889 
Q 1547 409 2034 409 
Q 2525 409 2770 889 
Q 3016 1369 3016 2328 
Q 3016 3291 2770 3770 
Q 2525 4250 2034 4250 
z
M 2034 4750 
Q 2819 4750 3233 4129 
Q 3647 3509 3647 2328 
Q 3647 1150 3233 529 
Q 2819 -91 2034 -91 
Q 1250 -91 836 529 
Q 422 1150 422 2328 
Q 422 3509 836 4129 
Q 1250 4750 2034 4750 
z
" transform="scale(0.015625)"/>
        <path id="DejaVuSans-2e" d="M 684 794 
L 1344 794 
L 1344 0 
L 684 0 
L 684 794 
z
" transform="scale(0.015625)"/>
       </defs>
       <use xlink:href="#DejaVuSans-30"/>
       <use xlink:href="#DejaVuSans-2e" x="63.623047"/>
       <use xlink:href="#DejaVuSans-30" x="95.410156"/>
      </g>
     </g>
    </g>
    <g id="xtick_2">
     <g id="line2d_2">
      <g>
       <use xlink:href="#m2c29c493b2" x="168.737914" y="318.04" style="stroke: #000000; stroke-width: 0.8"/>
      </g>
     </g>
     <g id="text_2">
      <!-- 0.2 -->
      <g transform="translate(160.786352 332.638438)scale(0.1 -0.1)">
       <defs>
        <path id="DejaVuSans-32" d="M 1228 531 
L 3431 531 
L 3431 0 
L 469 0 
L 469 531 
Q 828 903 1448 1529 
Q 2069 2156 2228 2338 
Q 2531 2678 2651 2914 
Q 2772 3150 2772 3378 
Q 2772 3750 2511 3984 
Q 2250 4219 1831 4219 
Q 1534 4219 1204 4116 
Q 875 4013 500 3803 
L 500 4441 
Q 881 4594 1212 4672 
Q 1544 4750 1819 4750 
Q 2544 4750 2975 4387 
Q 3406 4025 3406 3419 
Q 3406 3131 3298 2873 
Q 3191 2616 2906 2266 
Q 2828 2175 2409 1742 
Q 1991 1309 1228 531 
z
" transform="scale(0.015625)"/>
       </defs>
       <use xlink:href="#DejaVuSans-30"/>
       <use xlink:href="#DejaVuSans-2e" x="63.623047"/>
       <use xlink:href="#DejaVuSans-32" x="95.410156"/>
      </g>
     </g>
    </g>
    <g id="xtick_3">
     <g id="line2d_3">
      <g>
       <use xlink:href="#m2c29c493b2" x="250.24265" y="318.04" style="stroke: #000000; stroke-width: 0.8"/>
      </g>
     </g>
     <g id="text_3">
      <!-- 0.4 -->
      <g transform="translate(242.291087 332.638438)scale(0.1 -0.1)">
       <defs>
        <path id="DejaVuSans-34" d="M 2419 4116 
L 825 1625 
L 2419 1625 
L 2419 4116 
z
M 2253 4666 
L 3047 4666 
L 3047 1625 
L 3713 1625 
L 3713 1100 
L 3047 1100 
L 3047 0 
L 2419 0 
L 2419 1100 
L 313 1100 
L 313 1709 
L 2253 4666 
z
" transform="scale(0.015625)"/>
       </defs>
       <use xlink:href="#DejaVuSans-30"/>
       <use xlink:href="#DejaVuSans-2e" x="63.623047"/>
       <use xlink:href="#DejaVuSans-34" x="95.410156"/>
      </g>
     </g>
    </g>
    <g id="xtick_4">
     <g id="line2d_4">
      <g>
       <use xlink:href="#m2c29c493b2" x="331.747385" y="318.04" style="stroke: #000000; stroke-width: 0.8"/>
      </g>
     </g>
     <g id="text_4">
      <!-- 0.6 -->
      <g transform="translate(323.795823 332.638438)scale(0.1 -0.1)">
       <defs>
        <path id="DejaVuSans-36" d="M 2113 2584 
Q 1688 2584 1439 2293 
Q 1191 2003 1191 1497 
Q 1191 994 1439 701 
Q 1688 409 2113 409 
Q 2538 409 2786 701 
Q 3034 994 3034 1497 
Q 3034 2003 2786 2293 
Q 2538 2584 2113 2584 
z
M 3366 4563 
L 3366 3988 
Q 3128 4100 2886 4159 
Q 2644 4219 2406 4219 
Q 1781 4219 1451 3797 
Q 1122 3375 1075 2522 
Q 1259 2794 1537 2939 
Q 1816 3084 2150 3084 
Q 2853 3084 3261 2657 
Q 3669 2231 3669 1497 
Q 3669 778 3244 343 
Q 2819 -91 2113 -91 
Q 1303 -91 875 529 
Q 447 1150 447 2328 
Q 447 3434 972 4092 
Q 1497 4750 2381 4750 
Q 2619 4750 2861 4703 
Q 3103 4656 3366 4563 
z
" transform="scale(0.015625)"/>
       </defs>
       <use xlink:href="#DejaVuSans-30"/>
       <use xlink:href="#DejaVuSans-2e" x="63.623047"/>
       <use xlink:href="#DejaVuSans-36" x="95.410156"/>
      </g>
     </g>
    </g>
    <g id="xtick_5">
     <g id="line2d_5">
      <g>
       <use xlink:href="#m2c29c493b2" x="413.252121" y="318.04" style="stroke: #000000; stroke-width: 0.8"/>
      </g>
     </g>
     <g id="text_5">
      <!-- 0.8 -->
      <g transform="translate(405.300559 332.638438)scale(0.1 -0.1)">
       <defs>
        <path id="DejaVuSans-38" d="M 2034 2216 
Q 1584 2216 1326 1975 
Q 1069 1734 1069 1313 
Q 1069 891 1326 650 
Q 1584 409 2034 409 
Q 2484 409 2743 651 
Q 3003 894 3003 1313 
Q 3003 1734 2745 1975 
Q 2488 2216 2034 2216 
z
M 1403 2484 
Q 997 2584 770 2862 
Q 544 3141 544 3541 
Q 544 4100 942 4425 
Q 1341 4750 2034 4750 
Q 2731 4750 3128 4425 
Q 3525 4100 3525 3541 
Q 3525 3141 3298 2862 
Q 3072 2584 2669 2484 
Q 3125 2378 3379 2068 
Q 3634 1759 3634 1313 
Q 3634 634 3220 271 
Q 2806 -91 2034 -91 
Q 1263 -91 848 271 
Q 434 634 434 1313 
Q 434 1759 690 2068 
Q 947 2378 1403 2484 
z
M 1172 3481 
Q 1172 3119 1398 2916 
Q 1625 2713 2034 2713 
Q 2441 2713 2670 2916 
Q 2900 3119 2900 3481 
Q 2900 3844 2670 4047 
Q 2441 4250 2034 4250 
Q 1625 4250 1398 4047 
Q 1172 3844 1172 3481 
z
" transform="scale(0.015625)"/>
       </defs>
       <use xlink:href="#DejaVuSans-30"/>
       <use xlink:href="#DejaVuSans-2e" x="63.623047"/>
       <use xlink:href="#DejaVuSans-38" x="95.410156"/>
      </g>
     </g>
    </g>
    <g id="text_6">
     <!-- seconds -->
     <g transform="translate(209.667749 346.316563)scale(0.1 -0.1)">
      <defs>
       <path id="DejaVuSans-73" d="M 2834 3397 
L 2834 2853 
Q 2591 2978 2328 3040 
Q 2066 3103 1784 3103 
Q 1356 3103 1142 2972 
Q 928 2841 928 2578 
Q 928 2378 1081 2264 
Q 1234 2150 1697 2047 
L 1894 2003 
Q 2506 1872 2764 1633 
Q 3022 1394 3022 966 
Q 3022 478 2636 193 
Q 2250 -91 1575 -91 
Q 1294 -91 989 -36 
Q 684 19 347 128 
L 347 722 
Q 666 556 975 473 
Q 1284 391 1588 391 
Q 1994 391 2212 530 
Q 2431 669 2431 922 
Q 2431 1156 2273 1281 
Q 2116 1406 1581 1522 
L 1381 1569 
Q 847 1681 609 1914 
Q 372 2147 372 2553 
Q 372 3047 722 3315 
Q 1072 3584 1716 3584 
Q 2034 3584 2315 3537 
Q 2597 3491 2834 3397 
z
" transform="scale(0.015625)"/>
       <path id="DejaVuSans-65" d="M 3597 1894 
L 3597 1613 
L 953 1613 
Q 991 1019 1311 708 
Q 1631 397 2203 397 
Q 2534 397 2845 478 
Q 3156 559 3463 722 
L 3463 178 
Q 3153 47 2828 -22 
Q 2503 -91 2169 -91 
Q 1331 -91 842 396 
Q 353 884 353 1716 
Q 353 2575 817 3079 
Q 1281 3584 2069 3584 
Q 2775 3584 3186 3129 
Q 3597 2675 3597 1894 
z
M 3022 2063 
Q 3016 2534 2758 2815 
Q 2500 3097 2075 3097 
Q 1594 3097 1305 2825 
Q 1016 2553 972 2059 
L 3022 2063 
z
" transform="scale(0.015625)"/>
       <path id="DejaVuSans-63" d="M 3122 3366 
L 3122 2828 
Q 2878 2963 2633 3030 
Q 2388 3097 2138 3097 
Q 1578 3097 1268 2742 
Q 959 2388 959 1747 
Q 959 1106 1268 751 
Q 1578 397 2138 397 
Q 2388 397 2633 464 
Q 2878 531 3122 666 
L 3122 134 
Q 2881 22 2623 -34 
Q 2366 -91 2075 -91 
Q 1284 -91 818 406 
Q 353 903 353 1747 
Q 353 2603 823 3093 
Q 1294 3584 2113 3584 
Q 2378 3584 2631 3529 
Q 2884 3475 3122 3366 
z
" transform="scale(0.015625)"/>
       <path id="DejaVuSans-6f" d="M 1959 3097 
Q 1497 3097 1228 2736 
Q 959 2375 959 1747 
Q 959 1119 1226 758 
Q 1494 397 1959 397 
Q 2419 397 2687 759 
Q 2956 1122 2956 1747 
Q 2956 2369 2687 2733 
Q 2419 3097 1959 3097 
z
M 1959 3584 
Q 2709 3584 3137 3096 
Q 3566 2609 3566 1747 
Q 3566 888 3137 398 
Q 2709 -91 1959 -91 
Q 1206 -91 779 398 
Q 353 888 353 1747 
Q 353 2609 779 3096 
Q 1206 3584 1959 3584 
z
" transform="scale(0.015625)"/>
       <path id="DejaVuSans-6e" d="M 3513 2113 
L 3513 0 
L 2938 0 
L 2938 2094 
Q 2938 2591 2744 2837 
Q 2550 3084 2163 3084 
Q 1697 3084 1428 2787 
Q 1159 2491 1159 1978 
L 1159 0 
L 581 0 
L 581 3500 
L 1159 3500 
L 1159 2956 
Q 1366 3272 1645 3428 
Q 1925 3584 2291 3584 
Q 2894 3584 3203 3211 
Q 3513 2838 3513 2113 
z
" transform="scale(0.015625)"/>
       <path id="DejaVuSans-64" d="M 2906 2969 
L 2906 4863 
L 3481 4863 
L 3481 0 
L 2906 0 
L 2906 525 
Q 2725 213 2448 61 
Q 2172 -91 1784 -91 
Q 1150 -91 751 415 
Q 353 922 353 1747 
Q 353 2572 751 3078 
Q 1150 3584 1784 3584 
Q 2172 3584 2448 3432 
Q 2725 3281 2906 2969 
z
M 947 1747 
Q 947 1113 1208 752 
Q 1469 391 1925 391 
Q 2381 391 2643 752 
Q 2906 1113 2906 1747 
Q 2906 2381 2643 2742 
Q 2381 3103 1925 3103 
Q 1469 3103 1208 2742 
Q 947 2381 947 1747 
z
" transform="scale(0.015625)"/>
      </defs>
      <use xlink:href="#DejaVuSans-73"/>
      <use xlink:href="#DejaVuSans-65" x="52.099609"/>
      <use xlink:href="#DejaVuSans-63" x="113.623047"/>
      <use xlink:href="#DejaVuSans-6f" x="168.603516"/>
      <use xlink:href="#DejaVuSans-6e" x="229.785156"/>
      <use xlink:href="#DejaVuSans-64" x="293.164062"/>
      <use xlink:href="#DejaVuSans-73" x="356.640625"/>
     </g>
    </g>
   </g>
   <g id="matplotlib.axis_2">
    <g id="ytick_1">
     <g id="line2d_6">
      <defs>
       <path id="md5722b5be7" d="M 0 0 
L -3.5 0 
" style="stroke: #000000; stroke-width: 0.8"/>
      </defs>
      <g>
       <use xlink:href="#md5722b5be7" x="46.64" y="296.439637" style="stroke: #000000; stroke-width: 0.8"/>
      </g>
     </g>
     <g id="text_7">
      <!-- 2 -->
      <g transform="translate(24.897813 300.238856)scale(0.1 -0.1)">
       <defs>
        <path id="DejaVuSans-2212" d="M 678 2272 
L 4684 2272 
L 4684 1741 
L 678 1741 
L 678 2272 
z
" transform="scale(0.015625)"/>
       </defs>
       <use xlink:href="#DejaVuSans-2212"/>
       <use xlink:href="#DejaVuSans-32" x="83.789062"/>
      </g>
     </g>
    </g>
    <g id="ytick_2">
     <g id="line2d_7">
      <g>
       <use xlink:href="#md5722b5be7" x="46.64" y="268.494342" style="stroke: #000000; stroke-width: 0.8"/>
      </g>
     </g>
     <g id="text_8">
      <!-- 1 -->
      <g transform="translate(24.897813 272.29356)scale(0.1 -0.1)">
       <defs>
        <path id="DejaVuSans-31" d="M 794 531 
L 1825 531 
L 1825 4091 
L 703 3866 
L 703 4441 
L 1819 4666 
L 2450 4666 
L 2450 531 
L 3481 531 
L 3481 0 
L 794 0 
L 794 531 
z
" transform="scale(0.015625)"/>
       </defs>
       <use xlink:href="#DejaVuSans-2212"/>
       <use xlink:href="#DejaVuSans-31" x="83.789062"/>
      </g>
     </g>
    </g>
    <g id="ytick_3">
     <g id="line2d_8">
      <g>
       <use xlink:href="#md5722b5be7" x="46.64" y="240.549046" style="stroke: #000000; stroke-width: 0.8"/>
      </g>
     </g>
     <g id="text_9">
      <!-- 0 -->
      <g transform="translate(33.2775 244.348264)scale(0.1 -0.1)">
       <use xlink:href="#DejaVuSans-30"/>
      </g>
     </g>
    </g>
    <g id="ytick_4">
     <g id="line2d_9">
      <g>
       <use xlink:href="#md5722b5be7" x="46.64" y="212.60375" style="stroke: #000000; stroke-width: 0.8"/>
      </g>
     </g>
     <g id="text_10">
      <!-- 1 -->
      <g transform="translate(33.2775 216.402969)scale(0.1 -0.1)">
       <use xlink:href="#DejaVuSans-31"/>
      </g>
     </g>
    </g>
    <g id="ytick_5">
     <g id="line2d_10">
      <g>
       <use xlink:href="#md5722b5be7" x="46.64" y="184.658454" style="stroke: #000000; stroke-width: 0.8"/>
      </g>
     </g>
     <g id="text_11">
      <!-- 2 -->
      <g transform="translate(33.2775 188.457673)scale(0.1 -0.1)">
       <use xlink:href="#DejaVuSans-32"/>
      </g>
     </g>
    </g>
    <g id="ytick_6">
     <g id="line2d_11">
      <g>
       <use xlink:href="#md5722b5be7" x="46.64" y="156.713158" style="stroke: #000000; stroke-width: 0.8"/>
      </g>
     </g>
     <g id="text_12">
      <!-- 3 -->
      <g transform="translate(33.2775 160.512377)scale(0.1 -0.1)">
       <defs>
        <path id="DejaVuSans-33" d="M 2597 2516 
Q 3050 2419 3304 2112 
Q 3559 1806 3559 1356 
Q 3559 666 3084 287 
Q 2609 -91 1734 -91 
Q 1441 -91 1130 -33 
Q 819 25 488 141 
L 488 750 
Q 750 597 1062 519 
Q 1375 441 1716 441 
Q 2309 441 2620 675 
Q 2931 909 2931 1356 
Q 2931 1769 2642 2001 
Q 2353 2234 1838 2234 
L 1294 2234 
L 1294 2753 
L 1863 2753 
Q 2328 2753 2575 2939 
Q 2822 3125 2822 3475 
Q 2822 3834 2567 4026 
Q 2313 4219 1838 4219 
Q 1578 4219 1281 4162 
Q 984 4106 628 3988 
L 628 4550 
Q 988 4650 1302 4700 
Q 1616 4750 1894 4750 
Q 2613 4750 3031 4423 
Q 3450 4097 3450 3541 
Q 3450 3153 3228 2886 
Q 3006 2619 2597 2516 
z
" transform="scale(0.015625)"/>
       </defs>
       <use xlink:href="#DejaVuSans-33"/>
      </g>
     </g>
    </g>
    <g id="ytick_7">
     <g id="line2d_12">
      <g>
       <use xlink:href="#md5722b5be7" x="46.64" y="128.767862" style="stroke: #000000; stroke-width: 0.8"/>
      </g>
     </g>
     <g id="text_13">
      <!-- 4 -->
      <g transform="translate(33.2775 132.567081)scale(0.1 -0.1)">
       <use xlink:href="#DejaVuSans-34"/>
      </g>
     </g>
    </g>
    <g id="ytick_8">
     <g id="line2d_13">
      <g>
       <use xlink:href="#md5722b5be7" x="46.64" y="100.822567" style="stroke: #000000; stroke-width: 0.8"/>
      </g>
     </g>
     <g id="text_14">
      <!-- 5 -->
      <g transform="translate(33.2775 104.621785)scale(0.1 -0.1)">
       <defs>
        <path id="DejaVuSans-35" d="M 691 4666 
L 3169 4666 
L 3169 4134 
L 1269 4134 
L 1269 2991 
Q 1406 3038 1543 3061 
Q 1681 3084 1819 3084 
Q 2600 3084 3056 2656 
Q 3513 2228 3513 1497 
Q 3513 744 3044 326 
Q 2575 -91 1722 -91 
Q 1428 -91 1123 -41 
Q 819 9 494 109 
L 494 744 
Q 775 591 1075 516 
Q 1375 441 1709 441 
Q 2250 441 2565 725 
Q 2881 1009 2881 1497 
Q 2881 1984 2565 2268 
Q 2250 2553 1709 2553 
Q 1456 2553 1204 2497 
Q 953 2441 691 2322 
L 691 4666 
z
" transform="scale(0.015625)"/>
       </defs>
       <use xlink:href="#DejaVuSans-35"/>
      </g>
     </g>
    </g>
    <g id="ytick_9">
     <g id="line2d_14">
      <g>
       <use xlink:href="#md5722b5be7" x="46.64" y="72.877271" style="stroke: #000000; stroke-width: 0.8"/>
      </g>
     </g>
     <g id="text_15">
      <!-- 6 -->
      <g transform="translate(33.2775 76.67649)scale(0.1 -0.1)">
       <use xlink:href="#DejaVuSans-36"/>
      </g>
     </g>
    </g>
    <g id="text_16">
     <!-- V -->
     <g transform="translate(18.818125 201.487562)rotate(-90)scale(0.1 -0.1)">
      <defs>
       <path id="DejaVuSans-b5" d="M 544 -1331 
L 544 3500 
L 1119 3500 
L 1119 1325 
Q 1119 872 1334 640 
Q 1550 409 1972 409 
Q 2434 409 2667 671 
Q 2900 934 2900 1459 
L 2900 3500 
L 3475 3500 
L 3475 806 
Q 3475 619 3529 530 
Q 3584 441 3700 441 
Q 3728 441 3778 458 
Q 3828 475 3916 513 
L 3916 50 
Q 3788 -22 3673 -56 
Q 3559 -91 3450 -91 
Q 3234 -91 3106 31 
Q 2978 153 2931 403 
Q 2775 156 2548 32 
Q 2322 -91 2016 -91 
Q 1697 -91 1473 31 
Q 1250 153 1119 397 
L 1119 -1331 
L 544 -1331 
z
" transform="scale(0.015625)"/>
       <path id="DejaVuSans-56" d="M 1831 0 
L 50 4666 
L 709 4666 
L 2188 738 
L 3669 4666 
L 4325 4666 
L 2547 0 
L 1831 0 
z
" transform="scale(0.015625)"/>
      </defs>
      <use xlink:href="#DejaVuSans-b5"/>
      <use xlink:href="#DejaVuSans-56" x="63.623047"/>
     </g>
    </g>
   </g>
   <g id="line2d_15">
    <path d="M 46.64 232.623946 
L 47.435945 235.361832 
L 48.231889 239.415933 
L 50.619723 252.973762 
L 51.415668 255.937376 
L 52.211613 257.480613 
L 53.007557 257.562204 
L 53.803502 256.414325 
L 55.395392 252.558277 
L 56.191336 251.207723 
L 56.987281 251.003044 
L 57.783226 252.130071 
L 58.57917 254.332757 
L 59.375115 256.951418 
L 60.17106 259.106317 
L 60.967004 259.979766 
L 61.762949 259.103276 
L 62.558894 256.541632 
L 64.946728 246.102879 
L 65.742672 244.510823 
L 66.538617 244.360684 
L 68.130506 245.773105 
L 68.926451 245.394995 
L 69.722396 243.297387 
L 70.51834 239.393258 
L 72.906175 224.084265 
L 73.702119 221.085072 
L 74.498064 220.125712 
L 75.294009 221.0253 
L 76.089953 223.170561 
L 77.681843 228.109411 
L 78.477787 229.778279 
L 79.273732 230.68625 
L 80.069677 230.994276 
L 80.865621 230.946787 
L 81.661566 230.71304 
L 82.457511 230.305317 
L 83.253455 229.603303 
L 84.0494 228.462878 
L 84.845345 226.849912 
L 86.437234 223.067014 
L 87.233179 221.714491 
L 88.029124 221.246803 
L 88.825068 221.788567 
L 89.621013 223.122195 
L 90.416958 224.718215 
L 91.212902 225.888955 
L 92.008847 226.018506 
L 92.804792 224.791588 
L 93.600736 222.340459 
L 95.192626 216.424258 
L 95.98857 214.801957 
L 96.784515 215.08626 
L 97.58046 217.500477 
L 98.376404 221.698722 
L 99.968294 231.860993 
L 100.764238 235.708259 
L 101.560183 237.710384 
L 102.356128 237.720403 
L 103.152073 236.140234 
L 104.743962 231.531604 
L 105.539907 230.18391 
L 106.335851 230.079194 
L 107.131796 231.078859 
L 107.927741 232.620847 
L 108.723685 233.915576 
L 109.51963 234.198908 
L 110.315575 232.961501 
L 111.111519 230.090681 
L 111.907464 225.896231 
L 113.499353 216.339926 
L 114.295298 212.696826 
L 115.091243 210.843158 
L 115.887187 211.26751 
L 116.683132 214.11495 
L 117.479077 219.129801 
L 119.866911 238.753621 
L 120.662856 242.804948 
L 121.4588 243.771233 
L 122.254745 241.251481 
L 123.05069 235.638741 
L 124.642579 220.572012 
L 125.438524 214.911846 
L 126.234468 212.777786 
L 127.030413 214.929716 
L 127.826358 220.999111 
L 130.214192 245.582848 
L 131.010136 249.37234 
L 131.806081 249.372785 
L 132.602026 246.326645 
L 134.193915 238.011862 
L 134.98986 236.2902 
L 135.785805 237.37884 
L 136.581749 240.812065 
L 137.377694 245.212935 
L 138.173639 248.836322 
L 138.969583 250.235615 
L 139.765528 248.80278 
L 140.561473 244.982982 
L 142.153362 235.809556 
L 142.949307 233.562244 
L 143.745251 234.006793 
L 144.541196 236.827722 
L 146.133085 244.709901 
L 146.92903 246.94892 
L 147.724975 246.909327 
L 148.520919 244.693621 
L 150.908753 234.376698 
L 151.704698 233.127593 
L 152.500643 233.808687 
L 153.296588 236.261191 
L 154.092532 240.080913 
L 155.684422 250.006265 
L 157.276311 260.196076 
L 158.072256 264.171045 
L 158.8682 266.590824 
L 159.664145 266.934258 
L 160.46009 265.006615 
L 161.256034 261.123988 
L 162.847924 251.33255 
L 163.643868 247.969067 
L 164.439813 247.014377 
L 165.235758 248.771903 
L 166.031702 252.793726 
L 167.623592 263.208666 
L 168.419537 267.204321 
L 169.215481 269.409786 
L 170.011426 269.817326 
L 170.807371 268.889617 
L 172.39926 265.407065 
L 173.195205 263.439865 
L 173.991149 261.091456 
L 174.787094 257.907557 
L 175.583039 253.544385 
L 177.174928 241.913343 
L 177.970873 236.108512 
L 178.766817 231.692259 
L 179.562762 229.528542 
L 180.358707 229.985999 
L 181.154651 232.806103 
L 183.542485 245.918245 
L 184.33843 248.273349 
L 185.134375 248.603152 
L 185.93032 247.051761 
L 186.726264 244.202006 
L 188.318154 237.942414 
L 189.114098 236.037734 
L 189.910043 235.497261 
L 190.705988 236.266454 
L 191.501932 237.948344 
L 192.297877 239.925526 
L 193.093822 241.539486 
L 193.889766 242.288129 
L 194.685711 241.990318 
L 195.481656 240.865195 
L 196.2776 239.490236 
L 197.073545 238.635553 
L 197.86949 239.014385 
L 198.665434 241.024971 
L 199.461379 244.571816 
L 201.053269 253.41872 
L 201.849213 256.619479 
L 202.645158 257.76689 
L 203.441103 256.489024 
L 204.237047 253.03425 
L 206.624881 238.875032 
L 207.420826 236.344811 
L 208.216771 235.90629 
L 209.012715 237.479477 
L 209.80866 240.63517 
L 211.400549 249.388338 
L 212.992439 258.442303 
L 213.788383 262.468187 
L 214.584328 265.908595 
L 215.380273 268.479782 
L 216.176218 269.809366 
L 216.972162 269.517131 
L 217.768107 267.347501 
L 218.564052 263.303208 
L 219.359996 257.72652 
L 220.951886 244.902091 
L 221.74783 239.516664 
L 222.543775 235.951943 
L 223.33972 234.712553 
L 224.135664 235.893461 
L 224.931609 239.176253 
L 226.523498 249.28277 
L 227.319443 254.443501 
L 228.115388 258.70307 
L 228.911332 261.615619 
L 229.707277 263.027099 
L 230.503222 263.061346 
L 231.299166 262.064276 
L 232.891056 258.981355 
L 233.687001 257.935952 
L 234.482945 257.759347 
L 235.27889 258.617259 
L 236.074835 260.416463 
L 237.666724 265.169532 
L 238.462669 266.862385 
L 239.258613 267.267631 
L 240.054558 266.043166 
L 240.850503 263.254615 
L 243.238337 252.094304 
L 244.034281 250.287859 
L 244.830226 250.156641 
L 246.422115 252.382778 
L 247.21806 252.251859 
L 248.014005 249.58767 
L 248.80995 243.784643 
L 249.605894 235.186793 
L 251.197784 215.552118 
L 251.993728 208.593118 
L 252.789673 205.780808 
L 253.585618 207.598569 
L 254.381562 213.270825 
L 255.973452 228.313889 
L 256.769396 233.14903 
L 257.565341 234.100151 
L 258.361286 230.965916 
L 259.15723 224.681364 
L 260.74912 209.567077 
L 261.545064 204.012622 
L 262.341009 200.90318 
L 263.136954 200.014103 
L 263.932898 200.493257 
L 264.728843 201.26805 
L 265.524788 201.4594 
L 266.320733 200.65314 
L 267.116677 198.953151 
L 268.708567 194.893404 
L 269.504511 193.606788 
L 270.300456 193.205412 
L 271.096401 193.673235 
L 271.892345 194.840126 
L 272.68829 196.488435 
L 275.076124 202.021078 
L 275.872069 202.950572 
L 276.668013 202.627099 
L 277.463958 200.627408 
L 278.259903 196.844744 
L 280.647737 181.127232 
L 281.443682 178.269423 
L 282.239626 178.233905 
L 283.035571 181.037778 
L 285.423405 194.963584 
L 286.21935 196.187014 
L 287.015294 194.135533 
L 287.811239 189.238846 
L 289.403128 176.434726 
L 290.199073 171.713815 
L 290.995018 169.448236 
L 291.790962 169.571465 
L 292.586907 171.228595 
L 293.382852 173.169063 
L 294.178796 174.25593 
L 294.974741 173.888536 
L 295.770686 172.180394 
L 297.362575 167.828575 
L 298.15852 166.937976 
L 298.954465 167.486244 
L 299.750409 169.228193 
L 301.342299 173.601567 
L 302.138243 174.997422 
L 302.934188 175.647863 
L 303.730133 175.930328 
L 304.526077 176.438643 
L 305.322022 177.669266 
L 306.117967 179.749573 
L 307.709856 184.686628 
L 308.505801 186.000832 
L 309.301745 185.690833 
L 310.09769 183.673222 
L 312.485524 174.233322 
L 313.281469 173.211198 
L 314.077414 174.247051 
L 314.873358 177.106019 
L 316.465248 184.934905 
L 317.261192 187.828289 
L 318.057137 189.003306 
L 318.853082 188.261605 
L 319.649026 185.923541 
L 321.240916 179.497214 
L 322.03686 177.126784 
L 322.832805 176.142132 
L 323.62875 176.689174 
L 324.424694 178.486769 
L 326.016584 183.111349 
L 326.812528 184.292222 
L 327.608473 183.835643 
L 328.404418 181.498503 
L 329.200363 177.478788 
L 331.588197 162.6107 
L 332.384141 159.706446 
L 333.180086 158.871461 
L 333.976031 160.148391 
L 334.771975 163.165678 
L 337.159809 175.655734 
L 337.955754 178.761808 
L 338.751699 180.739153 
L 339.547643 181.586688 
L 340.343588 181.460608 
L 341.139533 180.582496 
L 341.935477 179.167283 
L 343.527367 175.380446 
L 346.711146 167.053504 
L 348.303035 163.716012 
L 349.09898 162.363112 
L 349.894924 161.249672 
L 350.690869 160.425016 
L 351.486814 159.951701 
L 352.282758 159.870936 
L 353.078703 160.158233 
L 355.466537 161.641382 
L 356.262482 161.604332 
L 357.058426 161.076461 
L 357.854371 160.141011 
L 359.44626 158.072373 
L 360.242205 157.548056 
L 361.03815 157.627114 
L 361.834095 158.299583 
L 362.630039 159.404102 
L 365.017873 163.436024 
L 366.609763 166.579403 
L 368.201652 170.491268 
L 368.997597 172.021911 
L 369.793541 172.447736 
L 370.589486 171.160318 
L 371.385431 167.883957 
L 372.181375 162.898057 
L 373.773265 151.782441 
L 374.569209 148.352038 
L 375.365154 147.763447 
L 376.161099 150.171409 
L 378.548933 163.636227 
L 379.344878 164.285479 
L 380.140822 161.049307 
L 380.936767 154.322384 
L 382.528656 137.166381 
L 383.324601 131.127072 
L 384.120546 128.993869 
L 384.91649 131.088394 
L 385.712435 136.507646 
L 387.304324 149.966038 
L 388.100269 154.396913 
L 388.896214 156.101676 
L 389.692158 155.467219 
L 390.488103 153.68199 
L 391.284048 152.220358 
L 392.079992 152.267266 
L 392.875937 154.297917 
L 393.671882 157.955244 
L 395.263771 165.943343 
L 396.059716 168.048389 
L 396.855661 168.092353 
L 397.651605 166.222185 
L 398.44755 163.043515 
L 400.039439 155.714984 
L 400.835384 152.558492 
L 401.631329 149.916333 
L 402.427273 147.696929 
L 403.223218 145.83692 
L 404.019163 144.415394 
L 404.815107 143.642416 
L 405.611052 143.732372 
L 406.406997 144.736522 
L 408.794831 149.927824 
L 409.590775 150.714216 
L 410.38672 150.58606 
L 412.774554 148.314939 
L 413.570499 148.543335 
L 413.570499 148.543335 
" clip-path="url(#p5afeea96d2)" style="fill: none; stroke: #e41a1c; stroke-width: 1.5; stroke-linecap: square"/>
   </g>
   <g id="line2d_16">
    <path d="M 46.64 233.976514 
L 47.435945 232.573138 
L 48.231889 232.793735 
L 49.027834 234.551539 
L 50.619723 240.038693 
L 51.415668 242.061905 
L 52.211613 242.818931 
L 53.007557 242.290175 
L 54.599447 239.413981 
L 55.395392 238.481146 
L 56.191336 238.563714 
L 56.987281 239.716574 
L 58.57917 243.817469 
L 59.375115 245.779286 
L 60.17106 247.227035 
L 60.967004 248.12074 
L 61.762949 248.611714 
L 63.354838 249.073403 
L 64.150783 249.05337 
L 64.946728 248.60619 
L 65.742672 247.485775 
L 66.538617 245.597226 
L 68.926451 238.354886 
L 69.722396 237.262174 
L 70.51834 237.533282 
L 71.314285 239.093875 
L 73.702119 245.931387 
L 74.498064 246.755511 
L 75.294009 246.311357 
L 76.089953 244.791069 
L 78.477787 238.267908 
L 79.273732 236.641879 
L 80.069677 235.43645 
L 80.865621 234.533135 
L 81.661566 233.824804 
L 82.457511 233.300982 
L 83.253455 233.058892 
L 84.0494 233.238646 
L 84.845345 233.919455 
L 85.641289 235.032929 
L 87.233179 237.50299 
L 88.029124 238.191567 
L 88.825068 238.233879 
L 89.621013 237.685912 
L 91.212902 236.01667 
L 92.008847 235.614911 
L 92.804792 235.765229 
L 95.192626 237.566443 
L 95.98857 237.439447 
L 96.784515 236.611454 
L 99.172349 232.359763 
L 99.968294 231.611112 
L 100.764238 231.54293 
L 101.560183 232.016106 
L 102.356128 232.708335 
L 103.152073 233.247136 
L 103.948017 233.351879 
L 104.743962 232.926795 
L 105.539907 232.071165 
L 107.131796 229.983354 
L 107.927741 229.144057 
L 109.51963 228.005503 
L 112.703409 226.00363 
L 113.499353 225.935671 
L 114.295298 226.323069 
L 115.091243 227.167068 
L 116.683132 229.63966 
L 118.275021 232.004925 
L 119.866911 234.164471 
L 121.4588 236.942196 
L 122.254745 238.373171 
L 123.05069 239.375617 
L 123.846634 239.525318 
L 124.642579 238.541221 
L 125.438524 236.447818 
L 127.030413 230.813988 
L 127.826358 228.757547 
L 128.622302 228.100016 
L 129.418247 229.084601 
L 130.214192 231.470712 
L 131.806081 237.636333 
L 132.602026 239.81223 
L 133.39797 240.720734 
L 134.193915 240.412473 
L 135.785805 238.171672 
L 136.581749 237.485537 
L 137.377694 237.579277 
L 138.173639 238.355215 
L 138.969583 239.390837 
L 139.765528 240.135433 
L 140.561473 240.151626 
L 141.357417 239.302291 
L 143.745251 234.950256 
L 144.541196 234.600193 
L 145.337141 235.282809 
L 146.133085 236.862584 
L 150.112809 247.337744 
L 151.704698 250.863532 
L 152.500643 252.357733 
L 153.296588 253.275737 
L 154.092532 253.250688 
L 154.888477 252.062947 
L 155.684422 249.790352 
L 157.276311 243.945595 
L 158.072256 241.794261 
L 158.8682 240.951883 
L 159.664145 241.58567 
L 160.46009 243.420058 
L 162.051979 248.09159 
L 162.847924 249.594404 
L 163.643868 250.099503 
L 164.439813 249.779462 
L 165.235758 249.128188 
L 166.031702 248.743934 
L 166.827647 249.078781 
L 167.623592 250.254764 
L 169.215481 253.855552 
L 170.011426 255.203503 
L 170.807371 255.696932 
L 171.603315 255.321208 
L 173.195205 253.568617 
L 173.991149 253.301057 
L 174.787094 253.906716 
L 175.583039 255.279013 
L 176.378983 256.945169 
L 177.174928 258.248068 
L 177.970873 258.61371 
L 178.766817 257.797013 
L 179.562762 256.004964 
L 180.358707 253.843055 
L 181.154651 252.099179 
L 181.950596 251.444267 
L 182.746541 252.165585 
L 183.542485 254.04016 
L 184.33843 256.404263 
L 185.134375 258.399315 
L 185.93032 259.3039 
L 186.726264 258.824368 
L 187.522209 257.228452 
L 188.318154 255.264324 
L 189.114098 253.889663 
L 189.910043 253.90953 
L 190.705988 255.659821 
L 191.501932 258.858953 
L 193.093822 266.068955 
L 193.889766 268.047516 
L 194.685711 268.12214 
L 195.481656 266.411771 
L 197.073545 260.631421 
L 197.86949 258.425806 
L 198.665434 257.478796 
L 199.461379 257.742452 
L 201.053269 259.504327 
L 201.849213 259.529673 
L 202.645158 258.434732 
L 203.441103 256.39457 
L 204.237047 253.997799 
L 205.032992 252.001915 
L 205.828937 251.028526 
L 206.624881 251.323377 
L 207.420826 252.676037 
L 209.012715 256.204638 
L 209.80866 257.20707 
L 210.604605 257.380635 
L 212.196494 256.409047 
L 212.992439 256.244931 
L 213.788383 256.765159 
L 214.584328 257.957422 
L 216.176218 261.063746 
L 216.972162 262.236427 
L 217.768107 262.959472 
L 219.359996 263.935825 
L 220.155941 264.813769 
L 222.543775 268.57505 
L 223.33972 268.724431 
L 224.135664 267.689229 
L 224.931609 265.638594 
L 225.727554 263.221951 
L 226.523498 261.392395 
L 227.319443 261.076431 
L 228.115388 262.812529 
L 228.911332 266.503715 
L 230.503222 276.287618 
L 231.299166 279.956857 
L 232.095111 281.561031 
L 232.891056 280.945265 
L 233.687001 278.685266 
L 234.482945 275.863589 
L 235.27889 273.660026 
L 236.074835 272.91239 
L 236.870779 273.814847 
L 238.462669 278.079427 
L 239.258613 279.373623 
L 240.054558 278.981175 
L 240.850503 276.727516 
L 243.238337 265.3157 
L 244.034281 262.985081 
L 244.830226 262.231084 
L 245.626171 262.83611 
L 248.014005 267.031461 
L 248.80995 267.809264 
L 251.197784 269.293056 
L 252.789673 270.875119 
L 253.585618 271.271689 
L 254.381562 270.986595 
L 255.177507 269.951436 
L 256.769396 266.852106 
L 257.565341 265.839752 
L 258.361286 265.768285 
L 259.15723 266.692166 
L 260.74912 269.886994 
L 261.545064 270.835346 
L 262.341009 270.601602 
L 263.136954 269.029677 
L 263.932898 266.370548 
L 265.524788 260.097653 
L 266.320733 257.638621 
L 267.116677 256.00907 
L 267.912622 255.083334 
L 269.504511 253.847398 
L 270.300456 252.842993 
L 272.68829 248.497645 
L 273.484235 247.609623 
L 274.280179 247.383537 
L 275.076124 247.743002 
L 276.668013 248.996181 
L 277.463958 249.179827 
L 278.259903 248.776578 
L 279.055847 247.797314 
L 280.647737 244.834673 
L 282.239626 241.900383 
L 283.035571 240.734497 
L 283.831516 239.842617 
L 284.62746 239.324034 
L 285.423405 239.350142 
L 286.21935 240.125562 
L 287.015294 241.791326 
L 287.811239 244.308489 
L 289.403128 250.450669 
L 290.199073 252.829945 
L 290.995018 253.869825 
L 291.790962 253.18332 
L 292.586907 250.80095 
L 294.974741 239.890969 
L 295.770686 237.946319 
L 296.56663 237.844144 
L 297.362575 239.499626 
L 299.750409 248.250155 
L 300.546354 249.801319 
L 301.342299 250.010654 
L 302.138243 249.124439 
L 303.730133 246.50055 
L 304.526077 246.040184 
L 305.322022 246.629033 
L 306.117967 248.202243 
L 308.505801 254.732652 
L 309.301745 256.096681 
L 310.09769 256.745721 
L 310.893635 256.774996 
L 311.689579 256.358407 
L 312.485524 255.643028 
L 313.281469 254.686462 
L 314.077414 253.463541 
L 314.873358 251.934356 
L 317.261192 246.576942 
L 318.057137 245.507184 
L 318.853082 245.336023 
L 319.649026 246.158599 
L 320.444971 247.78891 
L 322.03686 251.531216 
L 322.832805 252.479358 
L 323.62875 252.260167 
L 324.424694 250.830739 
L 325.220639 248.479844 
L 326.812528 243.188054 
L 327.608473 241.334053 
L 328.404418 240.424621 
L 329.200363 240.433859 
L 329.996307 241.105949 
L 331.588197 242.956339 
L 332.384141 243.518944 
L 333.180086 243.65337 
L 333.976031 243.392474 
L 334.771975 242.850464 
L 337.955754 240.242881 
L 338.751699 239.865931 
L 339.547643 239.691975 
L 340.343588 239.730885 
L 341.935477 240.249726 
L 342.731422 240.518262 
L 343.527367 240.640433 
L 344.323311 240.568986 
L 345.915201 240.155455 
L 346.711146 240.161668 
L 347.50709 240.541254 
L 348.303035 241.347429 
L 350.690869 244.675076 
L 351.486814 245.164907 
L 352.282758 245.025411 
L 353.078703 244.301595 
L 356.262482 239.909065 
L 357.854371 238.369429 
L 358.650316 237.434287 
L 360.242205 234.894565 
L 361.03815 233.55401 
L 361.834095 232.498671 
L 362.630039 231.961856 
L 363.425984 232.061021 
L 364.221929 232.765193 
L 365.017873 233.924046 
L 369.793541 242.313299 
L 370.589486 243.082033 
L 371.385431 243.183859 
L 372.181375 242.381783 
L 372.97732 240.597522 
L 375.365154 232.477703 
L 376.161099 230.871329 
L 376.957043 230.775717 
L 377.752988 232.362929 
L 378.548933 235.407884 
L 380.936767 247.118136 
L 381.732712 249.827243 
L 382.528656 251.484235 
L 383.324601 252.250238 
L 384.120546 252.443812 
L 385.712435 252.219506 
L 386.50838 251.953052 
L 387.304324 251.412386 
L 388.100269 250.403647 
L 388.896214 248.834421 
L 391.284048 242.609029 
L 392.079992 241.241181 
L 392.875937 240.730023 
L 393.671882 241.098955 
L 394.467827 242.157954 
L 396.855661 246.304476 
L 397.651605 247.297872 
L 400.039439 249.893443 
L 401.631329 252.447543 
L 402.427273 253.793085 
L 403.223218 254.916949 
L 404.019163 255.658982 
L 404.815107 255.970492 
L 405.611052 255.926617 
L 408.794831 255.074702 
L 409.590775 254.910928 
L 410.38672 254.606144 
L 412.774554 253.017613 
L 413.570499 252.926456 
L 413.570499 252.926456 
" clip-path="url(#p5afeea96d2)" style="fill: none; stroke: #377eb8; stroke-width: 1.5; stroke-linecap: square"/>
   </g>
   <g id="line2d_17">
    <path d="M 87.233179 318.04 
L 87.233179 71.732 
" clip-path="url(#p5afeea96d2)" style="fill: none; stroke: #000000; stroke-width: 0.5; stroke-linecap: square"/>
   </g>
   <g id="line2d_18">
    <path d="M 46.64 240.549046 
L 413.570499 240.549046 
" clip-path="url(#p5afeea96d2)" style="fill: none; stroke: #000000; stroke-width: 0.5; stroke-linecap: square"/>
   </g>
   <g id="patch_4">
    <path d="M 46.64 318.04 
L 46.64 71.732 
" style="fill: none; stroke: #000000; stroke-width: 0.8; stroke-linejoin: miter; stroke-linecap: square"/>
   </g>
   <g id="patch_5">
    <path d="M 413.570499 318.04 
L 413.570499 71.732 
" style="fill: none; stroke: #000000; stroke-width: 0.8; stroke-linejoin: miter; stroke-linecap: square"/>
   </g>
   <g id="patch_6">
    <path d="M 46.64 318.04 
L 413.570499 318.04 
" style="fill: none; stroke: #000000; stroke-width: 0.8; stroke-linejoin: miter; stroke-linecap: square"/>
   </g>
   <g id="patch_7">
    <path d="M 46.64 71.732 
L 413.570499 71.732 
" style="fill: none; stroke: #000000; stroke-width: 0.8; stroke-linejoin: miter; stroke-linecap: square"/>
   </g>
   <g id="text_17">
    <!-- Cz -->
    <g transform="translate(222.766499 65.732)scale(0.12 -0.12)">
     <defs>
      <path id="DejaVuSans-43" d="M 4122 4306 
L 4122 3641 
Q 3803 3938 3442 4084 
Q 3081 4231 2675 4231 
Q 1875 4231 1450 3742 
Q 1025 3253 1025 2328 
Q 1025 1406 1450 917 
Q 1875 428 2675 428 
Q 3081 428 3442 575 
Q 3803 722 4122 1019 
L 4122 359 
Q 3791 134 3420 21 
Q 3050 -91 2638 -91 
Q 1578 -91 968 557 
Q 359 1206 359 2328 
Q 359 3453 968 4101 
Q 1578 4750 2638 4750 
Q 3056 4750 3426 4639 
Q 3797 4528 4122 4306 
z
" transform="scale(0.015625)"/>
      <path id="DejaVuSans-7a" d="M 353 3500 
L 3084 3500 
L 3084 2975 
L 922 459 
L 3084 459 
L 3084 0 
L 275 0 
L 275 525 
L 2438 3041 
L 353 3041 
L 353 3500 
z
" transform="scale(0.015625)"/>
     </defs>
     <use xlink:href="#DejaVuSans-43"/>
     <use xlink:href="#DejaVuSans-7a" x="69.824219"/>
    </g>
   </g>
   <g id="legend_1">
    <g id="patch_8">
     <path d="M 99.877906 48.500845 
L 360.332593 48.500845 
Q 362.332593 48.500845 362.332593 46.500845 
L 362.332593 18.144595 
Q 362.332593 16.144595 360.332593 16.144595 
L 99.877906 16.144595 
Q 97.877906 16.144595 97.877906 18.144595 
L 97.877906 46.500845 
Q 97.877906 48.500845 99.877906 48.500845 
z
" style="fill: #ffffff; opacity: 0.8; stroke: #cccccc; stroke-linejoin: miter"/>
    </g>
    <g id="text_18">
     <!-- Average of Session 26 -->
     <g transform="translate(174.545874 27.743033)scale(0.1 -0.1)">
      <defs>
       <path id="DejaVuSans-41" d="M 2188 4044 
L 1331 1722 
L 3047 1722 
L 2188 4044 
z
M 1831 4666 
L 2547 4666 
L 4325 0 
L 3669 0 
L 3244 1197 
L 1141 1197 
L 716 0 
L 50 0 
L 1831 4666 
z
" transform="scale(0.015625)"/>
       <path id="DejaVuSans-76" d="M 191 3500 
L 800 3500 
L 1894 563 
L 2988 3500 
L 3597 3500 
L 2284 0 
L 1503 0 
L 191 3500 
z
" transform="scale(0.015625)"/>
       <path id="DejaVuSans-72" d="M 2631 2963 
Q 2534 3019 2420 3045 
Q 2306 3072 2169 3072 
Q 1681 3072 1420 2755 
Q 1159 2438 1159 1844 
L 1159 0 
L 581 0 
L 581 3500 
L 1159 3500 
L 1159 2956 
Q 1341 3275 1631 3429 
Q 1922 3584 2338 3584 
Q 2397 3584 2469 3576 
Q 2541 3569 2628 3553 
L 2631 2963 
z
" transform="scale(0.015625)"/>
       <path id="DejaVuSans-61" d="M 2194 1759 
Q 1497 1759 1228 1600 
Q 959 1441 959 1056 
Q 959 750 1161 570 
Q 1363 391 1709 391 
Q 2188 391 2477 730 
Q 2766 1069 2766 1631 
L 2766 1759 
L 2194 1759 
z
M 3341 1997 
L 3341 0 
L 2766 0 
L 2766 531 
Q 2569 213 2275 61 
Q 1981 -91 1556 -91 
Q 1019 -91 701 211 
Q 384 513 384 1019 
Q 384 1609 779 1909 
Q 1175 2209 1959 2209 
L 2766 2209 
L 2766 2266 
Q 2766 2663 2505 2880 
Q 2244 3097 1772 3097 
Q 1472 3097 1187 3025 
Q 903 2953 641 2809 
L 641 3341 
Q 956 3463 1253 3523 
Q 1550 3584 1831 3584 
Q 2591 3584 2966 3190 
Q 3341 2797 3341 1997 
z
" transform="scale(0.015625)"/>
       <path id="DejaVuSans-67" d="M 2906 1791 
Q 2906 2416 2648 2759 
Q 2391 3103 1925 3103 
Q 1463 3103 1205 2759 
Q 947 2416 947 1791 
Q 947 1169 1205 825 
Q 1463 481 1925 481 
Q 2391 481 2648 825 
Q 2906 1169 2906 1791 
z
M 3481 434 
Q 3481 -459 3084 -895 
Q 2688 -1331 1869 -1331 
Q 1566 -1331 1297 -1286 
Q 1028 -1241 775 -1147 
L 775 -588 
Q 1028 -725 1275 -790 
Q 1522 -856 1778 -856 
Q 2344 -856 2625 -561 
Q 2906 -266 2906 331 
L 2906 616 
Q 2728 306 2450 153 
Q 2172 0 1784 0 
Q 1141 0 747 490 
Q 353 981 353 1791 
Q 353 2603 747 3093 
Q 1141 3584 1784 3584 
Q 2172 3584 2450 3431 
Q 2728 3278 2906 2969 
L 2906 3500 
L 3481 3500 
L 3481 434 
z
" transform="scale(0.015625)"/>
       <path id="DejaVuSans-20" transform="scale(0.015625)"/>
       <path id="DejaVuSans-66" d="M 2375 4863 
L 2375 4384 
L 1825 4384 
Q 1516 4384 1395 4259 
Q 1275 4134 1275 3809 
L 1275 3500 
L 2222 3500 
L 2222 3053 
L 1275 3053 
L 1275 0 
L 697 0 
L 697 3053 
L 147 3053 
L 147 3500 
L 697 3500 
L 697 3744 
Q 697 4328 969 4595 
Q 1241 4863 1831 4863 
L 2375 4863 
z
" transform="scale(0.015625)"/>
       <path id="DejaVuSans-53" d="M 3425 4513 
L 3425 3897 
Q 3066 4069 2747 4153 
Q 2428 4238 2131 4238 
Q 1616 4238 1336 4038 
Q 1056 3838 1056 3469 
Q 1056 3159 1242 3001 
Q 1428 2844 1947 2747 
L 2328 2669 
Q 3034 2534 3370 2195 
Q 3706 1856 3706 1288 
Q 3706 609 3251 259 
Q 2797 -91 1919 -91 
Q 1588 -91 1214 -16 
Q 841 59 441 206 
L 441 856 
Q 825 641 1194 531 
Q 1563 422 1919 422 
Q 2459 422 2753 634 
Q 3047 847 3047 1241 
Q 3047 1584 2836 1778 
Q 2625 1972 2144 2069 
L 1759 2144 
Q 1053 2284 737 2584 
Q 422 2884 422 3419 
Q 422 4038 858 4394 
Q 1294 4750 2059 4750 
Q 2388 4750 2728 4690 
Q 3069 4631 3425 4513 
z
" transform="scale(0.015625)"/>
       <path id="DejaVuSans-69" d="M 603 3500 
L 1178 3500 
L 1178 0 
L 603 0 
L 603 3500 
z
M 603 4863 
L 1178 4863 
L 1178 4134 
L 603 4134 
L 603 4863 
z
" transform="scale(0.015625)"/>
      </defs>
      <use xlink:href="#DejaVuSans-41"/>
      <use xlink:href="#DejaVuSans-76" x="62.533203"/>
      <use xlink:href="#DejaVuSans-65" x="121.712891"/>
      <use xlink:href="#DejaVuSans-72" x="183.236328"/>
      <use xlink:href="#DejaVuSans-61" x="224.349609"/>
      <use xlink:href="#DejaVuSans-67" x="285.628906"/>
      <use xlink:href="#DejaVuSans-65" x="349.105469"/>
      <use xlink:href="#DejaVuSans-20" x="410.628906"/>
      <use xlink:href="#DejaVuSans-6f" x="442.416016"/>
      <use xlink:href="#DejaVuSans-66" x="503.597656"/>
      <use xlink:href="#DejaVuSans-20" x="538.802734"/>
      <use xlink:href="#DejaVuSans-53" x="570.589844"/>
      <use xlink:href="#DejaVuSans-65" x="634.066406"/>
      <use xlink:href="#DejaVuSans-73" x="695.589844"/>
      <use xlink:href="#DejaVuSans-73" x="747.689453"/>
      <use xlink:href="#DejaVuSans-69" x="799.789062"/>
      <use xlink:href="#DejaVuSans-6f" x="827.572266"/>
      <use xlink:href="#DejaVuSans-6e" x="888.753906"/>
      <use xlink:href="#DejaVuSans-20" x="952.132812"/>
      <use xlink:href="#DejaVuSans-32" x="983.919922"/>
      <use xlink:href="#DejaVuSans-36" x="1047.542969"/>
     </g>
    </g>
    <g id="line2d_19">
     <path d="M 101.877906 38.921158 
L 111.877906 38.921158 
L 121.877906 38.921158 
" style="fill: none; stroke: #e41a1c; stroke-width: 1.5; stroke-linecap: square"/>
    </g>
    <g id="text_19">
     <!-- Target (n=270) -->
     <g transform="translate(129.877906 42.421158)scale(0.1 -0.1)">
      <defs>
       <path id="DejaVuSans-54" d="M -19 4666 
L 3928 4666 
L 3928 4134 
L 2272 4134 
L 2272 0 
L 1638 0 
L 1638 4134 
L -19 4134 
L -19 4666 
z
" transform="scale(0.015625)"/>
       <path id="DejaVuSans-74" d="M 1172 4494 
L 1172 3500 
L 2356 3500 
L 2356 3053 
L 1172 3053 
L 1172 1153 
Q 1172 725 1289 603 
Q 1406 481 1766 481 
L 2356 481 
L 2356 0 
L 1766 0 
Q 1100 0 847 248 
Q 594 497 594 1153 
L 594 3053 
L 172 3053 
L 172 3500 
L 594 3500 
L 594 4494 
L 1172 4494 
z
" transform="scale(0.015625)"/>
       <path id="DejaVuSans-28" d="M 1984 4856 
Q 1566 4138 1362 3434 
Q 1159 2731 1159 2009 
Q 1159 1288 1364 580 
Q 1569 -128 1984 -844 
L 1484 -844 
Q 1016 -109 783 600 
Q 550 1309 550 2009 
Q 550 2706 781 3412 
Q 1013 4119 1484 4856 
L 1984 4856 
z
" transform="scale(0.015625)"/>
       <path id="DejaVuSans-3d" d="M 678 2906 
L 4684 2906 
L 4684 2381 
L 678 2381 
L 678 2906 
z
M 678 1631 
L 4684 1631 
L 4684 1100 
L 678 1100 
L 678 1631 
z
" transform="scale(0.015625)"/>
       <path id="DejaVuSans-37" d="M 525 4666 
L 3525 4666 
L 3525 4397 
L 1831 0 
L 1172 0 
L 2766 4134 
L 525 4134 
L 525 4666 
z
" transform="scale(0.015625)"/>
       <path id="DejaVuSans-29" d="M 513 4856 
L 1013 4856 
Q 1481 4119 1714 3412 
Q 1947 2706 1947 2009 
Q 1947 1309 1714 600 
Q 1481 -109 1013 -844 
L 513 -844 
Q 928 -128 1133 580 
Q 1338 1288 1338 2009 
Q 1338 2731 1133 3434 
Q 928 4138 513 4856 
z
" transform="scale(0.015625)"/>
      </defs>
      <use xlink:href="#DejaVuSans-54"/>
      <use xlink:href="#DejaVuSans-61" x="44.583984"/>
      <use xlink:href="#DejaVuSans-72" x="105.863281"/>
      <use xlink:href="#DejaVuSans-67" x="145.226562"/>
      <use xlink:href="#DejaVuSans-65" x="208.703125"/>
      <use xlink:href="#DejaVuSans-74" x="270.226562"/>
      <use xlink:href="#DejaVuSans-20" x="309.435547"/>
      <use xlink:href="#DejaVuSans-28" x="341.222656"/>
      <use xlink:href="#DejaVuSans-6e" x="380.236328"/>
      <use xlink:href="#DejaVuSans-3d" x="443.615234"/>
      <use xlink:href="#DejaVuSans-32" x="527.404297"/>
      <use xlink:href="#DejaVuSans-37" x="591.027344"/>
      <use xlink:href="#DejaVuSans-30" x="654.650391"/>
      <use xlink:href="#DejaVuSans-29" x="718.273438"/>
     </g>
    </g>
    <g id="line2d_20">
     <path d="M 225.607593 38.921158 
L 235.607593 38.921158 
L 245.607593 38.921158 
" style="fill: none; stroke: #377eb8; stroke-width: 1.5; stroke-linecap: square"/>
    </g>
    <g id="text_20">
     <!-- Non-Target (n=1384) -->
     <g transform="translate(253.607593 42.421158)scale(0.1 -0.1)">
      <defs>
       <path id="DejaVuSans-4e" d="M 628 4666 
L 1478 4666 
L 3547 763 
L 3547 4666 
L 4159 4666 
L 4159 0 
L 3309 0 
L 1241 3903 
L 1241 0 
L 628 0 
L 628 4666 
z
" transform="scale(0.015625)"/>
       <path id="DejaVuSans-2d" d="M 313 2009 
L 1997 2009 
L 1997 1497 
L 313 1497 
L 313 2009 
z
" transform="scale(0.015625)"/>
      </defs>
      <use xlink:href="#DejaVuSans-4e"/>
      <use xlink:href="#DejaVuSans-6f" x="74.804688"/>
      <use xlink:href="#DejaVuSans-6e" x="135.986328"/>
      <use xlink:href="#DejaVuSans-2d" x="199.365234"/>
      <use xlink:href="#DejaVuSans-54" x="226.324219"/>
      <use xlink:href="#DejaVuSans-61" x="270.908203"/>
      <use xlink:href="#DejaVuSans-72" x="332.1875"/>
      <use xlink:href="#DejaVuSans-67" x="371.550781"/>
      <use xlink:href="#DejaVuSans-65" x="435.027344"/>
      <use xlink:href="#DejaVuSans-74" x="496.550781"/>
      <use xlink:href="#DejaVuSans-20" x="535.759766"/>
      <use xlink:href="#DejaVuSans-28" x="567.546875"/>
      <use xlink:href="#DejaVuSans-6e" x="606.560547"/>
      <use xlink:href="#DejaVuSans-3d" x="669.939453"/>
      <use xlink:href="#DejaVuSans-31" x="753.728516"/>
      <use xlink:href="#DejaVuSans-33" x="817.351562"/>
      <use xlink:href="#DejaVuSans-38" x="880.974609"/>
      <use xlink:href="#DejaVuSans-34" x="944.597656"/>
      <use xlink:href="#DejaVuSans-29" x="1008.220703"/>
     </g>
    </g>
   </g>
  </g>
 </g>
 <defs>
  <clipPath id="p5afeea96d2">
   <rect x="46.64" y="71.732" width="366.930499" height="246.308"/>
  </clipPath>
 </defs>
</svg>
