<?xml version="1.0" encoding="utf-8" standalone="no"?>
<!DOCTYPE svg PUBLIC "-//W3C//DTD SVG 1.1//EN"
  "http://www.w3.org/Graphics/SVG/1.1/DTD/svg11.dtd">
<svg xmlns:xlink="http://www.w3.org/1999/xlink" width="432pt" height="360pt" viewBox="0 0 432 360" xmlns="http://www.w3.org/2000/svg" version="1.1">
 <metadata>
  <rdf:RDF xmlns:dc="http://purl.org/dc/elements/1.1/" xmlns:cc="http://creativecommons.org/ns#" xmlns:rdf="http://www.w3.org/1999/02/22-rdf-syntax-ns#">
   <cc:Work>
    <dc:type rdf:resource="http://purl.org/dc/dcmitype/StillImage"/>
    <dc:date>2022-05-19T11:51:57.459743</dc:date>
    <dc:format>image/svg+xml</dc:format>
    <dc:creator>
     <cc:Agent>
      <dc:title>Matplotlib v3.5.1, https://matplotlib.org/</dc:title>
     </cc:Agent>
    </dc:creator>
   </cc:Work>
  </rdf:RDF>
 </metadata>
 <defs>
  <style type="text/css">*{stroke-linejoin: round; stroke-linecap: butt}</style>
 </defs>
 <g id="figure_1">
  <g id="patch_1">
   <path d="M 0 360 
L 432 360 
L 432 0 
L 0 0 
L 0 360 
z
" style="fill: none"/>
  </g>
  <g id="axes_1">
   <g id="patch_2">
    <path d="M 46.64 318.04 
L 413.570499 318.04 
L 413.570499 71.732 
L 46.64 71.732 
L 46.64 318.04 
z
" style="fill: none"/>
   </g>
   <g id="PolyCollection_1">
    <defs>
     <path id="m642b17f0d6" d="M 46.64 -121.398453 
L 46.64 -78.283779 
L 47.435945 -73.761383 
L 48.231889 -68.664359 
L 49.027834 -64.35062 
L 49.823779 -61.98497 
L 50.619723 -62.291379 
L 51.415668 -65.061133 
L 52.211613 -69.037863 
L 53.007557 -72.700545 
L 53.803502 -75.29861 
L 54.599447 -77.027567 
L 55.395392 -78.441897 
L 56.191336 -79.802539 
L 56.987281 -80.78239 
L 57.783226 -81.038037 
L 58.57917 -81.164863 
L 59.375115 -82.173525 
L 60.17106 -84.350673 
L 60.967004 -87.075715 
L 61.762949 -89.292615 
L 62.558894 -90.216311 
L 63.354838 -89.878247 
L 64.150783 -88.905105 
L 64.946728 -87.770141 
L 65.742672 -86.465046 
L 66.538617 -84.872279 
L 67.334562 -83.304137 
L 68.130506 -82.506375 
L 68.926451 -83.113942 
L 69.722396 -85.119423 
L 70.51834 -87.881925 
L 71.314285 -90.742577 
L 72.11023 -93.319053 
L 72.906175 -95.069374 
L 73.702119 -95.086448 
L 74.498064 -92.502681 
L 75.294009 -87.143829 
L 76.089953 -80.011437 
L 76.885898 -73.186637 
L 77.681843 -69.021316 
L 78.477787 -69.135281 
L 79.273732 -73.813523 
L 80.069677 -81.87386 
L 80.865621 -90.929898 
L 81.661566 -98.114819 
L 82.457511 -101.201774 
L 83.253455 -99.612188 
L 84.0494 -94.582388 
L 84.845345 -88.376166 
L 85.641289 -83.131258 
L 86.437234 -79.999432 
L 87.233179 -79.122782 
L 88.029124 -80.252543 
L 88.825068 -82.892892 
L 89.621013 -86.058355 
L 90.416958 -88.424263 
L 91.212902 -88.770608 
L 92.008847 -86.481915 
L 92.804792 -81.988769 
L 93.600736 -76.737688 
L 94.396681 -72.415087 
L 95.192626 -70.036268 
L 95.98857 -69.677934 
L 96.784515 -71.046193 
L 97.58046 -74.195506 
L 98.376404 -79.36361 
L 99.172349 -86.219352 
L 99.968294 -93.530606 
L 100.764238 -99.548768 
L 101.560183 -102.793685 
L 102.356128 -102.611458 
L 103.152073 -99.201472 
L 103.948017 -93.492822 
L 104.743962 -87.133288 
L 105.539907 -82.220821 
L 106.335851 -80.442894 
L 107.131796 -82.107643 
L 107.927741 -85.967438 
L 108.723685 -90.083111 
L 109.51963 -92.781585 
L 110.315575 -92.937776 
L 111.111519 -90.037021 
L 111.907464 -84.383959 
L 112.703409 -77.339305 
L 113.499353 -71.303491 
L 114.295298 -69.003888 
L 115.091243 -72.197707 
L 115.887187 -80.73634 
L 116.683132 -92.587822 
L 117.479077 -104.639151 
L 118.275021 -113.805789 
L 119.070966 -118.024609 
L 119.866911 -116.849935 
L 120.662856 -111.491127 
L 121.4588 -104.274116 
L 122.254745 -97.735956 
L 123.05069 -93.730319 
L 123.846634 -92.893546 
L 124.642579 -94.648847 
L 125.438524 -97.696818 
L 126.234468 -100.704599 
L 127.030413 -102.817803 
L 127.826358 -103.803065 
L 128.622302 -103.894636 
L 129.418247 -103.535288 
L 130.214192 -103.167936 
L 131.010136 -103.111602 
L 131.806081 -103.468637 
L 132.602026 -104.087778 
L 133.39797 -104.678615 
L 134.193915 -105.036048 
L 134.98986 -105.181164 
L 135.785805 -105.298054 
L 136.581749 -105.54722 
L 137.377694 -105.920379 
L 138.173639 -106.2135 
L 138.969583 -106.079283 
L 139.765528 -105.115467 
L 140.561473 -103.0136 
L 141.357417 -99.77385 
L 142.153362 -95.852481 
L 142.949307 -92.055714 
L 143.745251 -89.19018 
L 144.541196 -87.702609 
L 145.337141 -87.520366 
L 146.133085 -88.132315 
L 146.92903 -88.823135 
L 147.724975 -88.958691 
L 148.520919 -88.259612 
L 149.316864 -86.990021 
L 150.112809 -85.93304 
L 150.908753 -86.079195 
L 151.704698 -88.150137 
L 152.500643 -92.220988 
L 153.296588 -97.660406 
L 154.092532 -103.403068 
L 154.888477 -108.323592 
L 155.684422 -111.463972 
L 156.480366 -112.133916 
L 157.276311 -110.063614 
L 158.072256 -105.635288 
L 158.8682 -99.954139 
L 159.664145 -94.506731 
L 160.46009 -90.541772 
L 161.256034 -88.614656 
L 162.051979 -88.585202 
L 162.847924 -89.959878 
L 163.643868 -92.197593 
L 164.439813 -94.777266 
L 165.235758 -97.211024 
L 166.031702 -99.173024 
L 166.827647 -100.610802 
L 167.623592 -101.637996 
L 168.419537 -102.279351 
L 169.215481 -102.36819 
L 170.011426 -101.751066 
L 170.807371 -100.557296 
L 171.603315 -99.179051 
L 172.39926 -98.012244 
L 173.195205 -97.266634 
L 173.991149 -96.94795 
L 174.787094 -96.905914 
L 175.583039 -96.874215 
L 176.378983 -96.546829 
L 177.174928 -95.713241 
L 177.970873 -94.345831 
L 178.766817 -92.539005 
L 179.562762 -90.362979 
L 180.358707 -87.815118 
L 181.154651 -85.000203 
L 181.950596 -82.366637 
L 182.746541 -80.563317 
L 183.542485 -79.908323 
L 184.33843 -79.99983 
L 185.134375 -79.808061 
L 185.93032 -78.193982 
L 186.726264 -74.587504 
L 187.522209 -69.404732 
L 188.318154 -63.887993 
L 189.114098 -59.528175 
L 189.910043 -57.512941 
L 190.705988 -58.465737 
L 191.501932 -62.431909 
L 192.297877 -68.913992 
L 193.093822 -76.882808 
L 193.889766 -84.897074 
L 194.685711 -91.444441 
L 195.481656 -95.412323 
L 196.2776 -96.418122 
L 197.073545 -94.772186 
L 197.86949 -91.159233 
L 198.665434 -86.348422 
L 199.461379 -81.098786 
L 200.257324 -76.164744 
L 201.053269 -72.253776 
L 201.849213 -69.92838 
L 202.645158 -69.541018 
L 203.441103 -71.243616 
L 204.237047 -75.007467 
L 205.032992 -80.552198 
L 205.828937 -87.197129 
L 206.624881 -93.804213 
L 207.420826 -98.96775 
L 208.216771 -101.428849 
L 209.012715 -100.523662 
L 209.80866 -96.440999 
L 210.604605 -90.182456 
L 211.400549 -83.268059 
L 212.196494 -77.301337 
L 212.992439 -73.527468 
L 213.788383 -72.538294 
L 214.584328 -74.258502 
L 215.380273 -78.201291 
L 216.176218 -83.750152 
L 216.972162 -90.204868 
L 217.768107 -96.642868 
L 218.564052 -101.887497 
L 219.359996 -104.789365 
L 220.155941 -104.70565 
L 220.951886 -101.746175 
L 221.74783 -96.559366 
L 222.543775 -89.961422 
L 223.33972 -82.760326 
L 224.135664 -75.813308 
L 224.931609 -70.119658 
L 225.727554 -66.696087 
L 226.523498 -66.19844 
L 227.319443 -68.57046 
L 228.115388 -73.021504 
L 228.911332 -78.357545 
L 229.707277 -83.421945 
L 230.503222 -87.383167 
L 231.299166 -89.830427 
L 232.095111 -90.805861 
L 232.891056 -90.802087 
L 233.687001 -90.579114 
L 234.482945 -90.742524 
L 235.27889 -91.326373 
L 236.074835 -91.740012 
L 236.870779 -91.220313 
L 237.666724 -89.500922 
L 238.462669 -87.122496 
L 239.258613 -85.146177 
L 240.054558 -84.611403 
L 240.850503 -86.15364 
L 241.646447 -89.922868 
L 242.442392 -95.659834 
L 243.238337 -102.693727 
L 244.034281 -109.907169 
L 244.830226 -115.944087 
L 245.626171 -119.687568 
L 246.422115 -120.72169 
L 247.21806 -119.514465 
L 248.014005 -117.280385 
L 248.80995 -115.616491 
L 249.605894 -115.996562 
L 250.401839 -119.222185 
L 251.197784 -125.053857 
L 251.993728 -132.275068 
L 252.789673 -139.18615 
L 253.585618 -144.205975 
L 254.381562 -146.278693 
L 255.177507 -145.066641 
L 255.973452 -141.028808 
L 256.769396 -135.353292 
L 257.565341 -129.61242 
L 258.361286 -125.189653 
L 259.15723 -122.829153 
L 259.953175 -122.613734 
L 260.74912 -124.236324 
L 261.545064 -127.168813 
L 262.341009 -130.636417 
L 263.136954 -133.689923 
L 263.932898 -135.570106 
L 264.728843 -136.084676 
L 265.524788 -135.520653 
L 266.320733 -134.175976 
L 267.116677 -132.103262 
L 267.912622 -129.372809 
L 268.708567 -126.545651 
L 269.504511 -124.747611 
L 270.300456 -125.151415 
L 271.096401 -128.333275 
L 271.892345 -134.008967 
L 272.68829 -141.195001 
L 273.484235 -148.495425 
L 274.280179 -154.340884 
L 275.076124 -157.327822 
L 275.872069 -156.733465 
L 276.668013 -152.937945 
L 277.463958 -147.402831 
L 278.259903 -142.152338 
L 279.055847 -139.026819 
L 279.851792 -139.031888 
L 280.647737 -141.99138 
L 281.443682 -146.616259 
L 282.239626 -151.001523 
L 283.035571 -153.379001 
L 283.831516 -152.792766 
L 284.62746 -149.407114 
L 285.423405 -144.374989 
L 286.21935 -139.394904 
L 287.015294 -136.159144 
L 287.811239 -135.854589 
L 288.607184 -138.800872 
L 289.403128 -144.305872 
L 290.199073 -150.831777 
L 290.995018 -156.460338 
L 291.790962 -159.502714 
L 292.586907 -159.056866 
L 293.382852 -155.338314 
L 294.178796 -149.631967 
L 294.974741 -143.815758 
L 295.770686 -139.646204 
L 296.56663 -138.158678 
L 297.362575 -139.435643 
L 298.15852 -142.760133 
L 298.954465 -146.997787 
L 299.750409 -151.008031 
L 300.546354 -153.934925 
L 301.342299 -155.304952 
L 302.138243 -154.945265 
L 302.934188 -152.83349 
L 303.730133 -149.042222 
L 304.526077 -143.857482 
L 305.322022 -137.933434 
L 306.117967 -132.229377 
L 306.913911 -127.686596 
L 307.709856 -124.89184 
L 308.505801 -123.984219 
L 309.301745 -124.835096 
L 310.09769 -127.260401 
L 310.893635 -130.993501 
L 311.689579 -135.490872 
L 312.485524 -139.901567 
L 313.281469 -143.359265 
L 314.077414 -145.408498 
L 314.873358 -146.200721 
L 315.669303 -146.291929 
L 316.465248 -146.23846 
L 317.261192 -146.289077 
L 318.057137 -146.308918 
L 318.853082 -145.902377 
L 319.649026 -144.627346 
L 320.444971 -142.201678 
L 321.240916 -138.653566 
L 322.03686 -134.399185 
L 322.832805 -130.220914 
L 323.62875 -127.106999 
L 324.424694 -125.947849 
L 325.220639 -127.174716 
L 326.016584 -130.516801 
L 326.812528 -135.042254 
L 327.608473 -139.484221 
L 328.404418 -142.647894 
L 329.200363 -143.681458 
L 329.996307 -142.182326 
L 330.792252 -138.237913 
L 331.588197 -132.464729 
L 332.384141 -126.004023 
L 333.180086 -120.339794 
L 333.976031 -116.863279 
L 334.771975 -116.362582 
L 335.56792 -118.760197 
L 336.363865 -123.244568 
L 337.159809 -128.665944 
L 337.955754 -133.946134 
L 338.751699 -138.324838 
L 339.547643 -141.42311 
L 340.343588 -143.220095 
L 341.139533 -144.03786 
L 341.935477 -144.49004 
L 342.731422 -145.242619 
L 343.527367 -146.616716 
L 344.323311 -148.322597 
L 345.119256 -149.564648 
L 345.915201 -149.489064 
L 346.711146 -147.695519 
L 347.50709 -144.45898 
L 348.303035 -140.538923 
L 349.09898 -136.800321 
L 349.894924 -133.939386 
L 350.690869 -132.3752 
L 351.486814 -132.177089 
L 352.282758 -132.987298 
L 353.078703 -134.088443 
L 353.874648 -134.730517 
L 354.670592 -134.58185 
L 355.466537 -133.968872 
L 356.262482 -133.683814 
L 357.058426 -134.509959 
L 357.854371 -136.811909 
L 358.650316 -140.392434 
L 359.44626 -144.590029 
L 360.242205 -148.508275 
L 361.03815 -151.308632 
L 361.834095 -152.516378 
L 362.630039 -152.232825 
L 363.425984 -151.112506 
L 364.221929 -150.050754 
L 365.017873 -149.706926 
L 365.813818 -150.125125 
L 366.609763 -150.694041 
L 367.405707 -150.499147 
L 368.201652 -148.861238 
L 368.997597 -145.729602 
L 369.793541 -141.739395 
L 370.589486 -137.994321 
L 371.385431 -135.74586 
L 372.181375 -136.054599 
L 372.97732 -139.400959 
L 373.773265 -145.310949 
L 374.569209 -152.282603 
L 375.365154 -158.236299 
L 376.161099 -161.360964 
L 376.957043 -160.93547 
L 377.752988 -157.688354 
L 378.548933 -153.509163 
L 379.344878 -150.652856 
L 380.140822 -150.789572 
L 380.936767 -154.306575 
L 381.732712 -160.177886 
L 382.528656 -166.451719 
L 383.324601 -171.066177 
L 384.120546 -172.57363 
L 384.91649 -170.542186 
L 385.712435 -165.649726 
L 386.50838 -159.542384 
L 387.304324 -154.401594 
L 388.100269 -152.147568 
L 388.896214 -153.570955 
L 389.692158 -157.977303 
L 390.488103 -163.625972 
L 391.284048 -168.648972 
L 392.079992 -171.823588 
L 392.875937 -172.812146 
L 393.671882 -171.971739 
L 394.467827 -170.040563 
L 395.263771 -167.849724 
L 396.059716 -166.024618 
L 396.855661 -164.714409 
L 397.651605 -163.569505 
L 398.44755 -162.093629 
L 399.243495 -160.160918 
L 400.039439 -158.280911 
L 400.835384 -157.36926 
L 401.631329 -158.199616 
L 402.427273 -160.931571 
L 403.223218 -164.949115 
L 404.019163 -168.988811 
L 404.815107 -171.485068 
L 405.611052 -171.117486 
L 406.406997 -167.450974 
L 407.202941 -161.341662 
L 407.998886 -154.743142 
L 408.794831 -149.894027 
L 409.590775 -148.336676 
L 410.38672 -150.325474 
L 411.182665 -154.856899 
L 411.97861 -160.144665 
L 412.774554 -164.247347 
L 413.570499 -165.704411 
L 413.570499 -272.020532 
L 413.570499 -272.020532 
L 412.774554 -270.321114 
L 411.97861 -265.810224 
L 411.182665 -260.043884 
L 410.38672 -255.277133 
L 409.590775 -253.442644 
L 408.794831 -255.304726 
L 407.998886 -260.23956 
L 407.202941 -266.619296 
L 406.406997 -272.459417 
L 405.611052 -276.040883 
L 404.815107 -276.413551 
L 404.019163 -273.722449 
L 403.223218 -269.179649 
L 402.427273 -264.559437 
L 401.631329 -261.412685 
L 400.835384 -260.455821 
L 400.039439 -261.478584 
L 399.243495 -263.705576 
L 398.44755 -266.266818 
L 397.651605 -268.525994 
L 396.855661 -270.246215 
L 396.059716 -271.613655 
L 395.263771 -273.046392 
L 394.467827 -274.777672 
L 393.671882 -276.445775 
L 392.875937 -277.072182 
L 392.079992 -275.580993 
L 391.284048 -271.529536 
L 390.488103 -265.510569 
L 389.692158 -258.971306 
L 388.896214 -253.653021 
L 388.100269 -251.024708 
L 387.304324 -251.86692 
L 386.50838 -255.961929 
L 385.712435 -261.940825 
L 384.91649 -267.547465 
L 384.120546 -270.486654 
L 383.324601 -269.497978 
L 382.528656 -264.968896 
L 381.732712 -258.7124 
L 380.936767 -253.093457 
L 380.140822 -250.021535 
L 379.344878 -250.267435 
L 378.548933 -253.280248 
L 377.752988 -257.472152 
L 376.957043 -260.838455 
L 376.161099 -261.687559 
L 375.365154 -259.21738 
L 374.569209 -253.76431 
L 373.773265 -246.689316 
L 372.97732 -239.945773 
L 372.181375 -235.421607 
L 371.385431 -234.231618 
L 370.589486 -236.251661 
L 369.793541 -240.207246 
L 368.997597 -244.347912 
L 368.201652 -247.298288 
L 367.405707 -248.566397 
L 366.609763 -248.498537 
L 365.813818 -247.854086 
L 365.017873 -247.335321 
L 364.221929 -247.290637 
L 363.425984 -247.621814 
L 362.630039 -247.855804 
L 361.834095 -247.346069 
L 361.03815 -245.556507 
L 360.242205 -242.339415 
L 359.44626 -238.077931 
L 358.650316 -233.583637 
L 357.854371 -229.76157 
L 357.058426 -227.219141 
L 356.262482 -226.05879 
L 355.466537 -225.96062 
L 354.670592 -226.433467 
L 353.874648 -227.021724 
L 353.078703 -227.397173 
L 352.282758 -227.444932 
L 351.486814 -227.384833 
L 350.690869 -227.76628 
L 349.894924 -229.198644 
L 349.09898 -231.93438 
L 348.303035 -235.622372 
L 347.50709 -239.451067 
L 346.711146 -242.553424 
L 345.915201 -244.336653 
L 345.119256 -244.557704 
L 344.323311 -243.26182 
L 343.527367 -240.76546 
L 342.731422 -237.66163 
L 341.935477 -234.693737 
L 341.139533 -232.44254 
L 340.343588 -230.965728 
L 339.547643 -229.678524 
L 338.751699 -227.669085 
L 337.955754 -224.270086 
L 337.159809 -219.490999 
L 336.363865 -214.079661 
L 335.56792 -209.247461 
L 334.771975 -206.245725 
L 333.976031 -205.990307 
L 333.180086 -208.825004 
L 332.384141 -214.398173 
L 331.588197 -221.624843 
L 330.792252 -228.824675 
L 329.996307 -234.163137 
L 329.200363 -236.30122 
L 328.404418 -234.91752 
L 327.608473 -230.811231 
L 326.812528 -225.538877 
L 326.016584 -220.789219 
L 325.220639 -217.833182 
L 324.424694 -217.274419 
L 323.62875 -219.068592 
L 322.832805 -222.669501 
L 322.03686 -227.230669 
L 321.240916 -231.849629 
L 320.444971 -235.815835 
L 319.649026 -238.776656 
L 318.853082 -240.741422 
L 318.057137 -241.918085 
L 317.261192 -242.47873 
L 316.465248 -242.402576 
L 315.669303 -241.493178 
L 314.873358 -239.540279 
L 314.077414 -236.49009 
L 313.281469 -232.482751 
L 312.485524 -227.751686 
L 311.689579 -222.561821 
L 310.893635 -217.32412 
L 310.09769 -212.743497 
L 309.301745 -209.734343 
L 308.505801 -209.042344 
L 307.709856 -210.836188 
L 306.913911 -214.647547 
L 306.117967 -219.709032 
L 305.322022 -225.344967 
L 304.526077 -231.092803 
L 303.730133 -236.532736 
L 302.934188 -241.077545 
L 302.138243 -244.006077 
L 301.342299 -244.744551 
L 300.546354 -243.156655 
L 299.750409 -239.660988 
L 298.954465 -235.15876 
L 298.15852 -230.828401 
L 297.362575 -227.843022 
L 296.56663 -227.067608 
L 295.770686 -228.815808 
L 294.974741 -232.74408 
L 294.178796 -237.907676 
L 293.382852 -242.944362 
L 292.586907 -246.348623 
L 291.790962 -246.844611 
L 290.995018 -243.843029 
L 290.199073 -237.813033 
L 289.403128 -230.312103 
L 288.607184 -223.563392 
L 287.811239 -219.708906 
L 287.015294 -220.010645 
L 286.21935 -224.309942 
L 285.423405 -231.015417 
L 284.62746 -237.695058 
L 283.831516 -242.02594 
L 283.035571 -242.663143 
L 282.239626 -239.66637 
L 281.443682 -234.365344 
L 280.647737 -228.793449 
L 279.851792 -224.943093 
L 279.055847 -224.082155 
L 278.259903 -226.328787 
L 277.463958 -230.640102 
L 276.668013 -235.231814 
L 275.872069 -238.231577 
L 275.076124 -238.279377 
L 274.280179 -234.914686 
L 273.484235 -228.728639 
L 272.68829 -221.221762 
L 271.892345 -214.278116 
L 271.096401 -209.399767 
L 270.300456 -207.168869 
L 269.504511 -207.305362 
L 268.708567 -209.130856 
L 267.912622 -211.926818 
L 267.116677 -214.941918 
L 266.320733 -217.318278 
L 265.524788 -218.309947 
L 264.728843 -217.661442 
L 263.932898 -215.695166 
L 263.136954 -212.955497 
L 262.341009 -209.781114 
L 261.545064 -206.336466 
L 260.74912 -203.040349 
L 259.953175 -200.775054 
L 259.15723 -200.552519 
L 258.361286 -202.927911 
L 257.565341 -207.665803 
L 256.769396 -213.811545 
L 255.973452 -219.933904 
L 255.177507 -224.393783 
L 254.381562 -225.743098 
L 253.585618 -223.273815 
L 252.789673 -217.42744 
L 251.993728 -209.724036 
L 251.197784 -202.191772 
L 250.401839 -196.636373 
L 249.605894 -194.115671 
L 248.80995 -194.705956 
L 248.014005 -197.492187 
L 247.21806 -200.804723 
L 246.422115 -202.742945 
L 245.626171 -201.835487 
L 244.830226 -197.53718 
L 244.034281 -190.36555 
L 243.238337 -181.702903 
L 242.442392 -173.385729 
L 241.646447 -167.145727 
L 240.850503 -163.981961 
L 240.054558 -163.759253 
L 239.258613 -165.388168 
L 238.462669 -167.511078 
L 237.666724 -169.19514 
L 236.870779 -170.188759 
L 236.074835 -170.658854 
L 235.27889 -170.761603 
L 234.482945 -170.49944 
L 233.687001 -169.852431 
L 232.891056 -168.848913 
L 232.095111 -167.449611 
L 231.299166 -165.412632 
L 230.503222 -162.379274 
L 229.707277 -158.20667 
L 228.911332 -153.263416 
L 228.115388 -148.404185 
L 227.319443 -144.657699 
L 226.523498 -142.896457 
L 225.727554 -143.664001 
L 224.931609 -147.104729 
L 224.135664 -152.875867 
L 223.33972 -160.061689 
L 222.543775 -167.275209 
L 221.74783 -173.059998 
L 220.951886 -176.406779 
L 220.155941 -177.05043 
L 219.359996 -175.349271 
L 218.564052 -171.844996 
L 217.768107 -166.930318 
L 216.972162 -160.9746 
L 216.176218 -154.675368 
L 215.380273 -149.15863 
L 214.584328 -145.669494 
L 213.788383 -145.064509 
L 212.992439 -147.471316 
L 212.196494 -152.29313 
L 211.400549 -158.427264 
L 210.604605 -164.529404 
L 209.80866 -169.283636 
L 209.012715 -171.671731 
L 208.216771 -171.183108 
L 207.420826 -167.893775 
L 206.624881 -162.409497 
L 205.828937 -155.729942 
L 205.032992 -149.068107 
L 204.237047 -143.614249 
L 203.441103 -140.255326 
L 202.645158 -139.341931 
L 201.849213 -140.64884 
L 201.053269 -143.583819 
L 200.257324 -147.499232 
L 199.461379 -151.880404 
L 198.665434 -156.310698 
L 197.86949 -160.314373 
L 197.073545 -163.284129 
L 196.2776 -164.597068 
L 195.481656 -163.807529 
L 194.685711 -160.749574 
L 193.889766 -155.558678 
L 193.093822 -148.746704 
L 192.297877 -141.303796 
L 191.501932 -134.61619 
L 190.705988 -130.08101 
L 189.910043 -128.560825 
L 189.114098 -130.021509 
L 188.318154 -133.625672 
L 187.522209 -138.199699 
L 186.726264 -142.717764 
L 185.93032 -146.505286 
L 185.134375 -149.170487 
L 184.33843 -150.546718 
L 183.542485 -150.798234 
L 182.746541 -150.514433 
L 181.950596 -150.601641 
L 181.154651 -151.932582 
L 180.358707 -154.837457 
L 179.562762 -158.78179 
L 178.766817 -162.648517 
L 177.970873 -165.433976 
L 177.174928 -166.746239 
L 176.378983 -166.832424 
L 175.583039 -166.273786 
L 174.787094 -165.629603 
L 173.991149 -165.230131 
L 173.195205 -165.132625 
L 172.39926 -165.180326 
L 171.603315 -165.155569 
L 170.807371 -164.987572 
L 170.011426 -164.851775 
L 169.215481 -165.003506 
L 168.419537 -165.456473 
L 167.623592 -165.873259 
L 166.827647 -165.796882 
L 166.031702 -164.926374 
L 165.235758 -163.194443 
L 164.439813 -160.733257 
L 163.643868 -157.915724 
L 162.847924 -155.439868 
L 162.051979 -154.213748 
L 161.256034 -154.954076 
L 160.46009 -157.794178 
L 159.664145 -162.249529 
L 158.8682 -167.482417 
L 158.072256 -172.55078 
L 157.276311 -176.488089 
L 156.480366 -178.353101 
L 155.684422 -177.479206 
L 154.888477 -173.860392 
L 154.092532 -168.309884 
L 153.296588 -162.167132 
L 152.500643 -156.720242 
L 151.704698 -152.746582 
L 150.908753 -150.419344 
L 150.112809 -149.480423 
L 149.316864 -149.462628 
L 148.520919 -149.856388 
L 147.724975 -150.232912 
L 146.92903 -150.366019 
L 146.133085 -150.323442 
L 145.337141 -150.429427 
L 144.541196 -151.077745 
L 143.745251 -152.516703 
L 142.949307 -154.74777 
L 142.153362 -157.564054 
L 141.357417 -160.642042 
L 140.561473 -163.60464 
L 139.765528 -166.08089 
L 138.969583 -167.825199 
L 138.173639 -168.826176 
L 137.377694 -169.261537 
L 136.581749 -169.308241 
L 135.785805 -168.985664 
L 134.98986 -168.174592 
L 134.193915 -166.775254 
L 133.39797 -164.855601 
L 132.602026 -162.691321 
L 131.806081 -160.711452 
L 131.010136 -159.386434 
L 130.214192 -159.036488 
L 129.418247 -159.575857 
L 128.622302 -160.376199 
L 127.826358 -160.465812 
L 127.030413 -159.027554 
L 126.234468 -155.901428 
L 125.438524 -151.793079 
L 124.642579 -148.06446 
L 123.846634 -146.211368 
L 123.05069 -147.281815 
L 122.254745 -151.447275 
L 121.4588 -157.828709 
L 120.662856 -164.639222 
L 119.866911 -169.64865 
L 119.070966 -170.85981 
L 118.275021 -167.196829 
L 117.479077 -158.971564 
L 116.683132 -147.90646 
L 115.887187 -136.632741 
L 115.091243 -127.851404 
L 114.295298 -123.520813 
L 113.499353 -124.347337 
L 112.703409 -129.593011 
L 111.907464 -137.102272 
L 111.111519 -143.782673 
L 110.315575 -146.82032 
L 109.51963 -145.034973 
L 108.723685 -139.45595 
L 107.927741 -132.766595 
L 107.131796 -127.840846 
L 106.335851 -126.341737 
L 105.539907 -128.456834 
L 104.743962 -133.401113 
L 103.948017 -139.788168 
L 103.152073 -145.826011 
L 102.356128 -149.752428 
L 101.560183 -150.527503 
L 100.764238 -148.180364 
L 99.968294 -143.44147 
L 99.172349 -137.144257 
L 98.376404 -130.081834 
L 97.58046 -123.258326 
L 96.784515 -117.997198 
L 95.98857 -115.5282 
L 95.192626 -116.216847 
L 94.396681 -119.349333 
L 93.600736 -123.784577 
L 92.804792 -128.555945 
L 92.008847 -132.878973 
L 91.212902 -135.811726 
L 90.416958 -136.235488 
L 89.621013 -133.496417 
L 88.825068 -128.110298 
L 88.029124 -121.898739 
L 87.233179 -117.459904 
L 86.437234 -117.026816 
L 85.641289 -121.090082 
L 84.845345 -128.040059 
L 84.0494 -135.18568 
L 83.253455 -139.963104 
L 82.457511 -140.732401 
L 81.661566 -137.095895 
L 80.865621 -129.823538 
L 80.069677 -120.671648 
L 79.273732 -112.085896 
L 78.477787 -106.534989 
L 77.681843 -105.628114 
L 76.885898 -109.533064 
L 76.089953 -117.035782 
L 75.294009 -126.042834 
L 74.498064 -134.140362 
L 73.702119 -139.209109 
L 72.906175 -140.122154 
L 72.11023 -137.181831 
L 71.314285 -132.016533 
L 70.51834 -126.899461 
L 69.722396 -123.583668 
L 68.926451 -122.366078 
L 68.130506 -122.433974 
L 67.334562 -122.932676 
L 66.538617 -123.535948 
L 65.742672 -124.30772 
L 64.946728 -125.243865 
L 64.150783 -126.09936 
L 63.354838 -126.66945 
L 62.558894 -127.027215 
L 61.762949 -127.294445 
L 60.967004 -127.180177 
L 60.17106 -126.058257 
L 59.375115 -123.617622 
L 58.57917 -120.364534 
L 57.783226 -117.629012 
L 56.987281 -116.855766 
L 56.191336 -118.1444 
L 55.395392 -119.810854 
L 54.599447 -119.856076 
L 53.803502 -117.296231 
L 53.007557 -112.550806 
L 52.211613 -107.076158 
L 51.415668 -102.493629 
L 50.619723 -99.971998 
L 49.823779 -100.249913 
L 49.027834 -103.589945 
L 48.231889 -109.367077 
L 47.435945 -115.954464 
L 46.64 -121.398453 
z
" style="stroke: #e41a1c; stroke-opacity: 0.3"/>
    </defs>
    <g clip-path="url(#pb33f2c48f4)">
     <use xlink:href="#m642b17f0d6" x="0" y="360" style="fill: #e41a1c; fill-opacity: 0.3; stroke: #e41a1c; stroke-opacity: 0.3"/>
    </g>
   </g>
   <g id="PolyCollection_2">
    <defs>
     <path id="m1eb73b7ab5" d="M 46.64 -106.085672 
L 46.64 -85.46171 
L 47.435945 -86.162912 
L 48.231889 -86.602952 
L 49.027834 -87.127794 
L 49.823779 -88.022102 
L 50.619723 -89.343512 
L 51.415668 -90.904196 
L 52.211613 -92.410607 
L 53.007557 -93.652873 
L 53.803502 -94.591032 
L 54.599447 -95.279501 
L 55.395392 -95.711272 
L 56.191336 -95.730401 
L 56.987281 -95.140918 
L 57.783226 -93.936784 
L 58.57917 -92.344667 
L 59.375115 -90.644112 
L 60.17106 -89.045446 
L 60.967004 -87.749155 
L 61.762949 -87.079456 
L 62.558894 -87.426684 
L 63.354838 -88.926014 
L 64.150783 -91.213067 
L 64.946728 -93.544972 
L 65.742672 -95.191737 
L 66.538617 -95.735166 
L 67.334562 -95.091982 
L 68.130506 -93.429764 
L 68.926451 -91.149008 
L 69.722396 -88.912873 
L 70.51834 -87.513393 
L 71.314285 -87.496094 
L 72.11023 -88.862 
L 72.906175 -91.117207 
L 73.702119 -93.601195 
L 74.498064 -95.818371 
L 75.294009 -97.558238 
L 76.089953 -98.844479 
L 76.885898 -99.836056 
L 77.681843 -100.7127 
L 78.477787 -101.549536 
L 79.273732 -102.232147 
L 80.069677 -102.479428 
L 80.865621 -101.976999 
L 81.661566 -100.540736 
L 82.457511 -98.220606 
L 83.253455 -95.308386 
L 84.0494 -92.256108 
L 84.845345 -89.536039 
L 85.641289 -87.495976 
L 86.437234 -86.266102 
L 87.233179 -85.742142 
L 88.029124 -85.639637 
L 88.825068 -85.612584 
L 89.621013 -85.418672 
L 90.416958 -85.061002 
L 91.212902 -84.803004 
L 92.008847 -85.024871 
L 92.804792 -86.015008 
L 93.600736 -87.832029 
L 94.396681 -90.294942 
L 95.192626 -93.040588 
L 95.98857 -95.573863 
L 96.784515 -97.343261 
L 97.58046 -97.905444 
L 98.376404 -97.128633 
L 99.172349 -95.277126 
L 99.968294 -92.886838 
L 100.764238 -90.531395 
L 101.560183 -88.649376 
L 102.356128 -87.501995 
L 103.152073 -87.193191 
L 103.948017 -87.668145 
L 104.743962 -88.720074 
L 105.539907 -90.073441 
L 106.335851 -91.518727 
L 107.131796 -92.999309 
L 107.927741 -94.581717 
L 108.723685 -96.337716 
L 109.51963 -98.224543 
L 110.315575 -100.02887 
L 111.111519 -101.400287 
L 111.907464 -101.973082 
L 112.703409 -101.532675 
L 113.499353 -100.13557 
L 114.295298 -98.10668 
L 115.091243 -95.922012 
L 115.887187 -94.057241 
L 116.683132 -92.876921 
L 117.479077 -92.563975 
L 118.275021 -93.054568 
L 119.070966 -94.018683 
L 119.866911 -94.964143 
L 120.662856 -95.450375 
L 121.4588 -95.300202 
L 122.254745 -94.6919 
L 123.05069 -94.087824 
L 123.846634 -94.040371 
L 124.642579 -94.954243 
L 125.438524 -96.89171 
L 126.234468 -99.508245 
L 127.030413 -102.168882 
L 127.826358 -104.204894 
L 128.622302 -105.177724 
L 129.418247 -105.009446 
L 130.214192 -103.940262 
L 131.010136 -102.381722 
L 131.806081 -100.751172 
L 132.602026 -99.332738 
L 133.39797 -98.197824 
L 134.193915 -97.230554 
L 134.98986 -96.266881 
L 135.785805 -95.270251 
L 136.581749 -94.423497 
L 137.377694 -94.072628 
L 138.173639 -94.560283 
L 138.969583 -96.040581 
L 139.765528 -98.35276 
L 140.561473 -101.000564 
L 141.357417 -103.266483 
L 142.153362 -104.450404 
L 142.949307 -104.146345 
L 143.745251 -102.420101 
L 144.541196 -99.791285 
L 145.337141 -97.033073 
L 146.133085 -94.890613 
L 146.92903 -93.830396 
L 147.724975 -93.894667 
L 148.520919 -94.700303 
L 149.316864 -95.592972 
L 150.112809 -95.914705 
L 150.908753 -95.284912 
L 151.704698 -93.78056 
L 152.500643 -91.939006 
L 153.296588 -90.570288 
L 154.092532 -90.438061 
L 154.888477 -91.936441 
L 155.684422 -94.909161 
L 156.480366 -98.696858 
L 157.276311 -102.387858 
L 158.072256 -105.149087 
L 158.8682 -106.485365 
L 159.664145 -106.337042 
L 160.46009 -105.021154 
L 161.256034 -103.075011 
L 162.051979 -101.063759 
L 162.847924 -99.402529 
L 163.643868 -98.243158 
L 164.439813 -97.470892 
L 165.235758 -96.823469 
L 166.031702 -96.082181 
L 166.827647 -95.222248 
L 167.623592 -94.41728 
L 168.419537 -93.90124 
L 169.215481 -93.798026 
L 170.011426 -94.034381 
L 170.807371 -94.38097 
L 171.603315 -94.574749 
L 172.39926 -94.424637 
L 173.195205 -93.846858 
L 173.991149 -92.856657 
L 174.787094 -91.559658 
L 175.583039 -90.152357 
L 176.378983 -88.909606 
L 177.174928 -88.12687 
L 177.970873 -88.013142 
L 178.766817 -88.581752 
L 179.562762 -89.606739 
L 180.358707 -90.683659 
L 181.154651 -91.375205 
L 181.950596 -91.360301 
L 182.746541 -90.500143 
L 183.542485 -88.819357 
L 184.33843 -86.477138 
L 185.134375 -83.767733 
L 185.93032 -81.092908 
L 186.726264 -78.835979 
L 187.522209 -77.184469 
L 188.318154 -76.042481 
L 189.114098 -75.112606 
L 189.910043 -74.074605 
L 190.705988 -72.714189 
L 191.501932 -70.951571 
L 192.297877 -68.838415 
L 193.093822 -66.576336 
L 193.889766 -64.518813 
L 194.685711 -63.078432 
L 195.481656 -62.543706 
L 196.2776 -62.927312 
L 197.073545 -63.952572 
L 197.86949 -65.16509 
L 198.665434 -66.087475 
L 199.461379 -66.358377 
L 200.257324 -65.83262 
L 201.053269 -64.612696 
L 201.849213 -62.976481 
L 202.645158 -61.223862 
L 203.441103 -59.543559 
L 204.237047 -57.991845 
L 205.032992 -56.573953 
L 205.828937 -55.342812 
L 206.624881 -54.450291 
L 207.420826 -54.141397 
L 208.216771 -54.694722 
L 209.012715 -56.305907 
L 209.80866 -58.941495 
L 210.604605 -62.245129 
L 211.400549 -65.578953 
L 212.196494 -68.203311 
L 212.992439 -69.514312 
L 213.788383 -69.246818 
L 214.584328 -67.585479 
L 215.380273 -65.14638 
L 216.176218 -62.802175 
L 216.972162 -61.379156 
L 217.768107 -61.347369 
L 218.564052 -62.65696 
L 219.359996 -64.795074 
L 220.155941 -67.018093 
L 220.951886 -68.647629 
L 221.74783 -69.322204 
L 222.543775 -69.119097 
L 223.33972 -68.484546 
L 224.135664 -67.983541 
L 224.931609 -67.995721 
L 225.727554 -68.530375 
L 226.523498 -69.248322 
L 227.319443 -69.640958 
L 228.115388 -69.254126 
L 228.911332 -67.880763 
L 229.707277 -65.689874 
L 230.503222 -63.248426 
L 231.299166 -61.367431 
L 232.095111 -60.769055 
L 232.891056 -61.732696 
L 233.687001 -63.939743 
L 234.482945 -66.605509 
L 235.27889 -68.806922 
L 236.074835 -69.834238 
L 236.870779 -69.433441 
L 237.666724 -67.879919 
L 238.462669 -65.866863 
L 239.258613 -64.228556 
L 240.054558 -63.590086 
L 240.850503 -64.099457 
L 241.646447 -65.373338 
L 242.442392 -66.675011 
L 243.238337 -67.229003 
L 244.034281 -66.530856 
L 244.830226 -64.532099 
L 245.626171 -61.635721 
L 246.422115 -58.511588 
L 247.21806 -55.823384 
L 248.014005 -54.00245 
L 248.80995 -53.163149 
L 249.605894 -53.155818 
L 250.401839 -53.689849 
L 251.197784 -54.471717 
L 251.993728 -55.3282 
L 252.789673 -56.274514 
L 253.585618 -57.473117 
L 254.381562 -59.073205 
L 255.177507 -61.02365 
L 255.973452 -63.003745 
L 256.769396 -64.532188 
L 257.565341 -65.175031 
L 258.361286 -64.724276 
L 259.15723 -63.283625 
L 259.953175 -61.266712 
L 260.74912 -59.315984 
L 261.545064 -58.128559 
L 262.341009 -58.208831 
L 263.136954 -59.656353 
L 263.932898 -62.12152 
L 264.728843 -64.964062 
L 265.524788 -67.524093 
L 266.320733 -69.3642 
L 267.116677 -70.381263 
L 267.912622 -70.767623 
L 268.708567 -70.865911 
L 269.504511 -70.993464 
L 270.300456 -71.312649 
L 271.096401 -71.793199 
L 271.892345 -72.26652 
L 272.68829 -72.536723 
L 273.484235 -72.499653 
L 274.280179 -72.219444 
L 275.076124 -71.918696 
L 275.872069 -71.870839 
L 276.668013 -72.246065 
L 277.463958 -73.008025 
L 278.259903 -73.932681 
L 279.055847 -74.736454 
L 279.851792 -75.2306 
L 280.647737 -75.417154 
L 281.443682 -75.489666 
L 282.239626 -75.744165 
L 283.035571 -76.43015 
L 283.831516 -77.596468 
L 284.62746 -79.005952 
L 285.423405 -80.17499 
L 286.21935 -80.535961 
L 287.015294 -79.659636 
L 287.811239 -77.449752 
L 288.607184 -74.233397 
L 289.403128 -70.700228 
L 290.199073 -67.691386 
L 290.995018 -65.908202 
L 291.790962 -65.662782 
L 292.586907 -66.779171 
L 293.382852 -68.681407 
L 294.178796 -70.622695 
L 294.974741 -71.958979 
L 295.770686 -72.36246 
L 296.56663 -71.900157 
L 297.362575 -70.958975 
L 298.15852 -70.0632 
L 298.954465 -69.672203 
L 299.750409 -70.041267 
L 300.546354 -71.181046 
L 301.342299 -72.896339 
L 302.138243 -74.862035 
L 302.934188 -76.705966 
L 303.730133 -78.085643 
L 304.526077 -78.754559 
L 305.322022 -78.617046 
L 306.117967 -77.762451 
L 306.913911 -76.454092 
L 307.709856 -75.058389 
L 308.505801 -73.940079 
L 309.301745 -73.373067 
L 310.09769 -73.495447 
L 310.893635 -74.297761 
L 311.689579 -75.617993 
L 312.485524 -77.145043 
L 313.281469 -78.468544 
L 314.077414 -79.198438 
L 314.873358 -79.117054 
L 315.669303 -78.284149 
L 316.465248 -77.036076 
L 317.261192 -75.88157 
L 318.057137 -75.344249 
L 318.853082 -75.809023 
L 319.649026 -77.409276 
L 320.444971 -79.973724 
L 321.240916 -83.051246 
L 322.03686 -86.028161 
L 322.832805 -88.320121 
L 323.62875 -89.573469 
L 324.424694 -89.78581 
L 325.220639 -89.281354 
L 326.016584 -88.549912 
L 326.812528 -88.031655 
L 327.608473 -87.949811 
L 328.404418 -88.254275 
L 329.200363 -88.676692 
L 329.996307 -88.853473 
L 330.792252 -88.464908 
L 331.588197 -87.349565 
L 332.384141 -85.562342 
L 333.180086 -83.356144 
L 333.976031 -81.092461 
L 334.771975 -79.117386 
L 335.56792 -77.657113 
L 336.363865 -76.777787 
L 337.159809 -76.418704 
L 337.955754 -76.462889 
L 338.751699 -76.791996 
L 339.547643 -77.303792 
L 340.343588 -77.914953 
L 341.139533 -78.578333 
L 341.935477 -79.305817 
L 342.731422 -80.154788 
L 343.527367 -81.164935 
L 344.323311 -82.296088 
L 345.119256 -83.425935 
L 345.915201 -84.403289 
L 346.711146 -85.096164 
L 347.50709 -85.392228 
L 348.303035 -85.180044 
L 349.09898 -84.373303 
L 349.894924 -82.992596 
L 350.690869 -81.240938 
L 351.486814 -79.496073 
L 352.282758 -78.21819 
L 353.078703 -77.833692 
L 353.874648 -78.635915 
L 354.670592 -80.702148 
L 355.466537 -83.827856 
L 356.262482 -87.510696 
L 357.058426 -91.02578 
L 357.854371 -93.596424 
L 358.650316 -94.611777 
L 359.44626 -93.818059 
L 360.242205 -91.422003 
L 361.03815 -88.070115 
L 361.834095 -84.694391 
L 362.630039 -82.254394 
L 363.425984 -81.451949 
L 364.221929 -82.518186 
L 365.017873 -85.149946 
L 365.813818 -88.6125 
L 366.609763 -91.963767 
L 367.405707 -94.325212 
L 368.201652 -95.126317 
L 368.997597 -94.262044 
L 369.793541 -92.119694 
L 370.589486 -89.460013 
L 371.385431 -87.178928 
L 372.181375 -86.022479 
L 372.97732 -86.356338 
L 373.773265 -88.075879 
L 374.569209 -90.682331 
L 375.365154 -93.478742 
L 376.161099 -95.797928 
L 376.957043 -97.182088 
L 377.752988 -97.473022 
L 378.548933 -96.806855 
L 379.344878 -95.523563 
L 380.140822 -94.018865 
L 380.936767 -92.596868 
L 381.732712 -91.39612 
L 382.528656 -90.424746 
L 383.324601 -89.667515 
L 384.120546 -89.176662 
L 384.91649 -89.077341 
L 385.712435 -89.491627 
L 386.50838 -90.441499 
L 387.304324 -91.790513 
L 388.100269 -93.247604 
L 388.896214 -94.426507 
L 389.692158 -94.946857 
L 390.488103 -94.558071 
L 391.284048 -93.247847 
L 392.079992 -91.281839 
L 392.875937 -89.137287 
L 393.671882 -87.341293 
L 394.467827 -86.275823 
L 395.263771 -86.034365 
L 396.059716 -86.395685 
L 396.855661 -86.928314 
L 397.651605 -87.181375 
L 398.44755 -86.88133 
L 399.243495 -86.055412 
L 400.039439 -85.035884 
L 400.835384 -84.346524 
L 401.631329 -84.513635 
L 402.427273 -85.865374 
L 403.223218 -88.385162 
L 404.019163 -91.673983 
L 404.815107 -95.049726 
L 405.611052 -97.7632 
L 406.406997 -99.254088 
L 407.202941 -99.33825 
L 407.998886 -98.240427 
L 408.794831 -96.464057 
L 409.590775 -94.575158 
L 410.38672 -93.007802 
L 411.182665 -91.959742 
L 411.97861 -91.383604 
L 412.774554 -91.049544 
L 413.570499 -90.662337 
L 413.570499 -134.312589 
L 413.570499 -134.312589 
L 412.774554 -134.544626 
L 411.97861 -134.731128 
L 411.182665 -135.15875 
L 410.38672 -136.090662 
L 409.590775 -137.594085 
L 408.794831 -139.437283 
L 407.998886 -141.130384 
L 407.202941 -142.091602 
L 406.406997 -141.855716 
L 405.611052 -140.242566 
L 404.815107 -137.438231 
L 404.019163 -133.969551 
L 403.223218 -130.569339 
L 402.427273 -127.957292 
L 401.631329 -126.603221 
L 400.835384 -126.566136 
L 400.039439 -127.48592 
L 399.243495 -128.741154 
L 398.44755 -129.707156 
L 397.651605 -130.000759 
L 396.855661 -129.61011 
L 396.059716 -128.865498 
L 395.263771 -128.276813 
L 394.467827 -128.313203 
L 393.671882 -129.213687 
L 392.875937 -130.895636 
L 392.079992 -132.98595 
L 391.284048 -134.954936 
L 390.488103 -136.300413 
L 389.692158 -136.716718 
L 388.896214 -136.189656 
L 388.100269 -134.982107 
L 387.304324 -133.515151 
L 386.50838 -132.197704 
L 385.712435 -131.288714 
L 384.91649 -130.858361 
L 384.120546 -130.849211 
L 383.324601 -131.174945 
L 382.528656 -131.784493 
L 381.732712 -132.663363 
L 380.936767 -133.795148 
L 380.140822 -135.117957 
L 379.344878 -136.490046 
L 378.548933 -137.670708 
L 377.752988 -138.337945 
L 376.957043 -138.169975 
L 376.161099 -136.984106 
L 375.365154 -134.87102 
L 374.569209 -132.240433 
L 373.773265 -129.7341 
L 372.97732 -128.031987 
L 372.181375 -127.626259 
L 371.385431 -128.644069 
L 370.589486 -130.776811 
L 369.793541 -133.341592 
L 368.997597 -135.46777 
L 368.201652 -136.364861 
L 367.405707 -135.591419 
L 366.609763 -133.226347 
L 365.813818 -129.866967 
L 365.017873 -126.442715 
L 364.221929 -123.911236 
L 363.425984 -122.953235 
L 362.630039 -123.774955 
L 361.834095 -126.071401 
L 361.03815 -129.139563 
L 360.242205 -132.090983 
L 359.44626 -134.099086 
L 358.650316 -134.615747 
L 357.854371 -133.498195 
L 357.058426 -131.010944 
L 356.262482 -127.712877 
L 355.466537 -124.283032 
L 354.670592 -121.347005 
L 353.874648 -119.343358 
L 353.078703 -118.449892 
L 352.282758 -118.584763 
L 351.486814 -119.484261 
L 350.690869 -120.822468 
L 349.894924 -122.306112 
L 349.09898 -123.697821 
L 348.303035 -124.792387 
L 347.50709 -125.416576 
L 346.711146 -125.475202 
L 345.915201 -124.989804 
L 345.119256 -124.078614 
L 344.323311 -122.89374 
L 343.527367 -121.574467 
L 342.731422 -120.245466 
L 341.935477 -119.027126 
L 341.139533 -118.013944 
L 340.343588 -117.23097 
L 339.547643 -116.628288 
L 338.751699 -116.146098 
L 337.955754 -115.802325 
L 337.159809 -115.723459 
L 336.363865 -116.090097 
L 335.56792 -117.037056 
L 334.771975 -118.571194 
L 333.976031 -120.543597 
L 333.180086 -122.676654 
L 332.384141 -124.631726 
L 331.588197 -126.102093 
L 330.792252 -126.910579 
L 329.996307 -127.080266 
L 329.200363 -126.841634 
L 328.404418 -126.554317 
L 327.608473 -126.560594 
L 326.812528 -127.032041 
L 326.016584 -127.883553 
L 325.220639 -128.793979 
L 324.424694 -129.318037 
L 323.62875 -129.039357 
L 322.832805 -127.712296 
L 322.03686 -125.358308 
L 321.240916 -122.296555 
L 320.444971 -119.089012 
L 319.649026 -116.391813 
L 318.853082 -114.74462 
L 318.057137 -114.376088 
L 317.261192 -115.117214 
L 316.465248 -116.47158 
L 315.669303 -117.809436 
L 314.873358 -118.590364 
L 314.077414 -118.519896 
L 313.281469 -117.597098 
L 312.485524 -116.069315 
L 311.689579 -114.335954 
L 310.893635 -112.830523 
L 310.09769 -111.897515 
L 309.301745 -111.694475 
L 308.505801 -112.16295 
L 307.709856 -113.084009 
L 306.913911 -114.177353 
L 306.117967 -115.177796 
L 305.322022 -115.85667 
L 304.526077 -116.014796 
L 303.730133 -115.5008 
L 302.934188 -114.273845 
L 302.138243 -112.471459 
L 301.342299 -110.423856 
L 300.546354 -108.583202 
L 299.750409 -107.379556 
L 298.954465 -107.056342 
L 298.15852 -107.560568 
L 297.362575 -108.54491 
L 296.56663 -109.485343 
L 295.770686 -109.867459 
L 294.974741 -109.373743 
L 294.178796 -108.009125 
L 293.382852 -106.121455 
L 292.586907 -104.303641 
L 291.790962 -103.20401 
L 290.995018 -103.309215 
L 290.199073 -104.777579 
L 289.403128 -107.38003 
L 288.607184 -110.56493 
L 287.811239 -113.625099 
L 287.015294 -115.918558 
L 286.21935 -117.071508 
L 285.423405 -117.081504 
L 284.62746 -116.272414 
L 283.831516 -115.126167 
L 283.035571 -114.075077 
L 282.239626 -113.345165 
L 281.443682 -112.907745 
L 280.647737 -112.549947 
L 279.851792 -112.026294 
L 279.055847 -111.212836 
L 278.259903 -110.179168 
L 277.463958 -109.14298 
L 276.668013 -108.348507 
L 275.872069 -107.948244 
L 275.076124 -107.941198 
L 274.280179 -108.176621 
L 273.484235 -108.413519 
L 272.68829 -108.422314 
L 271.892345 -108.095169 
L 271.096401 -107.504026 
L 270.300456 -106.856645 
L 269.504511 -106.363381 
L 268.708567 -106.090922 
L 267.912622 -105.890727 
L 267.116677 -105.44669 
L 266.320733 -104.423616 
L 265.524788 -102.647393 
L 264.728843 -100.228009 
L 263.932898 -97.5626 
L 263.136954 -95.218629 
L 262.341009 -93.751367 
L 261.545064 -93.519844 
L 260.74912 -94.547731 
L 259.953175 -96.468201 
L 259.15723 -98.600602 
L 258.361286 -100.180452 
L 257.565341 -100.661678 
L 256.769396 -99.922731 
L 255.973452 -98.257509 
L 255.177507 -96.180352 
L 254.381562 -94.184988 
L 253.585618 -92.58187 
L 252.789673 -91.444591 
L 251.993728 -90.643835 
L 251.197784 -89.959649 
L 250.401839 -89.254844 
L 249.605894 -88.626371 
L 248.80995 -88.417038 
L 248.014005 -89.046282 
L 247.21806 -90.751398 
L 246.422115 -93.402119 
L 245.626171 -96.497618 
L 244.830226 -99.335265 
L 244.034281 -101.264596 
L 243.238337 -101.929184 
L 242.442392 -101.409666 
L 241.646447 -100.203795 
L 240.850503 -99.036791 
L 240.054558 -98.575389 
L 239.258613 -99.165321 
L 238.462669 -100.692588 
L 237.666724 -102.613762 
L 236.870779 -104.150048 
L 236.074835 -104.594294 
L 235.27889 -103.620635 
L 234.482945 -101.447406 
L 233.687001 -98.758367 
L 232.891056 -96.425255 
L 232.095111 -95.181791 
L 231.299166 -95.388765 
L 230.503222 -96.942364 
L 229.707277 -99.31587 
L 228.911332 -101.729475 
L 228.115388 -103.442666 
L 227.319443 -104.068512 
L 226.523498 -103.722258 
L 225.727554 -102.90051 
L 224.931609 -102.173984 
L 224.135664 -101.890497 
L 223.33972 -102.042841 
L 222.543775 -102.323007 
L 221.74783 -102.293358 
L 220.951886 -101.598478 
L 220.155941 -100.155442 
L 219.359996 -98.246899 
L 218.564052 -96.44732 
L 217.768107 -95.394962 
L 216.972162 -95.520907 
L 216.176218 -96.862633 
L 215.380273 -99.025498 
L 214.584328 -101.289313 
L 213.788383 -102.829128 
L 212.992439 -102.997018 
L 212.196494 -101.563815 
L 211.400549 -98.800298 
L 210.604605 -95.351998 
L 209.80866 -91.98355 
L 209.012715 -89.326302 
L 208.216771 -87.721531 
L 207.420826 -87.18299 
L 206.624881 -87.47155 
L 205.828937 -88.255092 
L 205.032992 -89.281676 
L 204.237047 -90.466444 
L 203.441103 -91.844637 
L 202.645158 -93.445963 
L 201.849213 -95.19628 
L 201.053269 -96.900541 
L 200.257324 -98.285593 
L 199.461379 -99.073511 
L 198.665434 -99.084286 
L 197.86949 -98.347595 
L 197.073545 -97.151822 
L 196.2776 -95.971453 
L 195.481656 -95.302172 
L 194.685711 -95.497199 
L 193.889766 -96.671173 
L 193.093822 -98.670746 
L 192.297877 -101.102628 
L 191.501932 -103.452953 
L 190.705988 -105.301894 
L 189.910043 -106.523254 
L 189.114098 -107.324877 
L 188.318154 -108.096244 
L 187.522209 -109.183266 
L 186.726264 -110.757259 
L 185.93032 -112.818921 
L 185.134375 -115.242556 
L 184.33843 -117.787125 
L 183.542485 -120.10912 
L 182.746541 -121.85113 
L 181.950596 -122.788825 
L 181.154651 -122.923884 
L 180.358707 -122.451455 
L 179.562762 -121.651039 
L 178.766817 -120.801947 
L 177.970873 -120.158258 
L 177.174928 -119.937159 
L 176.378983 -120.27706 
L 175.583039 -121.173613 
L 174.787094 -122.441745 
L 173.991149 -123.756183 
L 173.195205 -124.778107 
L 172.39926 -125.307163 
L 171.603315 -125.369355 
L 170.807371 -125.183566 
L 170.011426 -125.022771 
L 169.215481 -125.06399 
L 168.419537 -125.329764 
L 167.623592 -125.738569 
L 166.827647 -126.200088 
L 166.031702 -126.683777 
L 165.235758 -127.228731 
L 164.439813 -127.915911 
L 163.643868 -128.844268 
L 162.847924 -130.107023 
L 162.051979 -131.729408 
L 161.256034 -133.573855 
L 160.46009 -135.282024 
L 159.664145 -136.328412 
L 158.8682 -136.198269 
L 158.072256 -134.615939 
L 157.276311 -131.704595 
L 156.480366 -127.991537 
L 155.684422 -124.258277 
L 154.888477 -121.30464 
L 154.092532 -119.710053 
L 153.296588 -119.658615 
L 152.500643 -120.878966 
L 151.704698 -122.728955 
L 150.908753 -124.41751 
L 150.112809 -125.301451 
L 149.316864 -125.141963 
L 148.520919 -124.202214 
L 147.724975 -123.134393 
L 146.92903 -122.697483 
L 146.133085 -123.418281 
L 145.337141 -125.34019 
L 144.541196 -127.981483 
L 143.745251 -130.529018 
L 142.949307 -132.167172 
L 142.153362 -132.381935 
L 141.357417 -131.122224 
L 140.561473 -128.786689 
L 139.765528 -126.065343 
L 138.969583 -123.691964 
L 138.173639 -122.189443 
L 137.377694 -121.71335 
L 136.581749 -122.068651 
L 135.785805 -122.878045 
L 134.98986 -123.792342 
L 134.193915 -124.6321 
L 133.39797 -125.417416 
L 132.602026 -126.300839 
L 131.806081 -127.435287 
L 131.010136 -128.823118 
L 130.214192 -130.224821 
L 129.418247 -131.207123 
L 128.622302 -131.32977 
L 127.826358 -130.360954 
L 127.030413 -128.391784 
L 126.234468 -125.807742 
L 125.438524 -123.163554 
L 124.642579 -121.017651 
L 123.846634 -119.759944 
L 123.05069 -119.477558 
L 122.254745 -119.9217 
L 121.4588 -120.611915 
L 120.662856 -121.040299 
L 119.866911 -120.879989 
L 119.070966 -120.114253 
L 118.275021 -119.050406 
L 117.479077 -118.212701 
L 116.683132 -118.13036 
L 115.887187 -119.08234 
L 115.091243 -120.925399 
L 114.295298 -123.135133 
L 113.499353 -125.047687 
L 112.703409 -126.136493 
L 111.907464 -126.171426 
L 111.111519 -125.224424 
L 110.315575 -123.574991 
L 109.51963 -121.583261 
L 108.723685 -119.568853 
L 107.927741 -117.724264 
L 107.131796 -116.095555 
L 106.335851 -114.632705 
L 105.539907 -113.269457 
L 104.743962 -111.995375 
L 103.948017 -110.911795 
L 103.152073 -110.253761 
L 102.356128 -110.329812 
L 101.560183 -111.358135 
L 100.764238 -113.277402 
L 99.968294 -115.687828 
L 99.172349 -117.990155 
L 98.376404 -119.61104 
L 97.58046 -120.161185 
L 96.784515 -119.482062 
L 95.98857 -117.653126 
L 95.192626 -115.011314 
L 94.396681 -112.112567 
L 93.600736 -109.558463 
L 92.804792 -107.752376 
L 92.008847 -106.758052 
L 91.212902 -106.357758 
L 90.416958 -106.23036 
L 89.621013 -106.112599 
L 88.825068 -105.882423 
L 88.029124 -105.585492 
L 87.233179 -105.432817 
L 86.437234 -105.744599 
L 85.641289 -106.815162 
L 84.845345 -108.750779 
L 84.0494 -111.379041 
L 83.253455 -114.286057 
L 82.457511 -116.959114 
L 81.661566 -118.9669 
L 80.865621 -120.101398 
L 80.069677 -120.419278 
L 79.273732 -120.165004 
L 78.477787 -119.624085 
L 77.681843 -118.985219 
L 76.885898 -118.260913 
L 76.089953 -117.287518 
L 75.294009 -115.822755 
L 74.498064 -113.726553 
L 73.702119 -111.131829 
L 72.906175 -108.466453 
L 72.11023 -106.28088 
L 71.314285 -105.030127 
L 70.51834 -104.975314 
L 69.722396 -106.1669 
L 68.926451 -108.388012 
L 68.130506 -111.052002 
L 67.334562 -113.265163 
L 66.538617 -114.213032 
L 65.742672 -113.595221 
L 64.946728 -111.744667 
L 64.150783 -109.36706 
L 63.354838 -107.152504 
L 62.558894 -105.593868 
L 61.762949 -105.009845 
L 60.967004 -105.533649 
L 60.17106 -106.991071 
L 59.375115 -108.871428 
L 58.57917 -110.590687 
L 57.783226 -111.842382 
L 56.987281 -112.703416 
L 56.191336 -113.408174 
L 55.395392 -114.004412 
L 54.599447 -114.27772 
L 53.803502 -113.976187 
L 53.007557 -113.021622 
L 52.211613 -111.560149 
L 51.415668 -109.883583 
L 50.619723 -108.303156 
L 49.823779 -107.059243 
L 49.027834 -106.284438 
L 48.231889 -105.982108 
L 47.435945 -106.007369 
L 46.64 -106.085672 
z
" style="stroke: #377eb8; stroke-opacity: 0.3"/>
    </defs>
    <g clip-path="url(#pb33f2c48f4)">
     <use xlink:href="#m1eb73b7ab5" x="0" y="360" style="fill: #377eb8; fill-opacity: 0.3; stroke: #377eb8; stroke-opacity: 0.3"/>
    </g>
   </g>
   <g id="patch_3">
    <path d="M 229.866466 318.04 
L 229.866466 71.732 
L 331.747385 71.732 
L 331.747385 318.04 
z
" clip-path="url(#pb33f2c48f4)" style="fill: #808080; opacity: 0.3"/>
   </g>
   <g id="matplotlib.axis_1">
    <g id="xtick_1">
     <g id="line2d_1">
      <defs>
       <path id="m31ee869c5d" d="M 0 0 
L 0 3.5 
" style="stroke: #000000; stroke-width: 0.8"/>
      </defs>
      <g>
       <use xlink:href="#m31ee869c5d" x="87.233179" y="318.04" style="stroke: #000000; stroke-width: 0.8"/>
      </g>
     </g>
     <g id="text_1">
      <!-- 0.0 -->
      <g transform="translate(79.281616 332.638438)scale(0.1 -0.1)">
       <defs>
        <path id="DejaVuSans-30" d="M 2034 4250 
Q 1547 4250 1301 3770 
Q 1056 3291 1056 2328 
Q 1056 1369 1301 889 
Q 1547 409 2034 409 
Q 2525 409 2770 889 
Q 3016 1369 3016 2328 
Q 3016 3291 2770 3770 
Q 2525 4250 2034 4250 
z
M 2034 4750 
Q 2819 4750 3233 4129 
Q 3647 3509 3647 2328 
Q 3647 1150 3233 529 
Q 2819 -91 2034 -91 
Q 1250 -91 836 529 
Q 422 1150 422 2328 
Q 422 3509 836 4129 
Q 1250 4750 2034 4750 
z
" transform="scale(0.015625)"/>
        <path id="DejaVuSans-2e" d="M 684 794 
L 1344 794 
L 1344 0 
L 684 0 
L 684 794 
z
" transform="scale(0.015625)"/>
       </defs>
       <use xlink:href="#DejaVuSans-30"/>
       <use xlink:href="#DejaVuSans-2e" x="63.623047"/>
       <use xlink:href="#DejaVuSans-30" x="95.410156"/>
      </g>
     </g>
    </g>
    <g id="xtick_2">
     <g id="line2d_2">
      <g>
       <use xlink:href="#m31ee869c5d" x="168.737914" y="318.04" style="stroke: #000000; stroke-width: 0.8"/>
      </g>
     </g>
     <g id="text_2">
      <!-- 0.2 -->
      <g transform="translate(160.786352 332.638438)scale(0.1 -0.1)">
       <defs>
        <path id="DejaVuSans-32" d="M 1228 531 
L 3431 531 
L 3431 0 
L 469 0 
L 469 531 
Q 828 903 1448 1529 
Q 2069 2156 2228 2338 
Q 2531 2678 2651 2914 
Q 2772 3150 2772 3378 
Q 2772 3750 2511 3984 
Q 2250 4219 1831 4219 
Q 1534 4219 1204 4116 
Q 875 4013 500 3803 
L 500 4441 
Q 881 4594 1212 4672 
Q 1544 4750 1819 4750 
Q 2544 4750 2975 4387 
Q 3406 4025 3406 3419 
Q 3406 3131 3298 2873 
Q 3191 2616 2906 2266 
Q 2828 2175 2409 1742 
Q 1991 1309 1228 531 
z
" transform="scale(0.015625)"/>
       </defs>
       <use xlink:href="#DejaVuSans-30"/>
       <use xlink:href="#DejaVuSans-2e" x="63.623047"/>
       <use xlink:href="#DejaVuSans-32" x="95.410156"/>
      </g>
     </g>
    </g>
    <g id="xtick_3">
     <g id="line2d_3">
      <g>
       <use xlink:href="#m31ee869c5d" x="250.24265" y="318.04" style="stroke: #000000; stroke-width: 0.8"/>
      </g>
     </g>
     <g id="text_3">
      <!-- 0.4 -->
      <g transform="translate(242.291087 332.638438)scale(0.1 -0.1)">
       <defs>
        <path id="DejaVuSans-34" d="M 2419 4116 
L 825 1625 
L 2419 1625 
L 2419 4116 
z
M 2253 4666 
L 3047 4666 
L 3047 1625 
L 3713 1625 
L 3713 1100 
L 3047 1100 
L 3047 0 
L 2419 0 
L 2419 1100 
L 313 1100 
L 313 1709 
L 2253 4666 
z
" transform="scale(0.015625)"/>
       </defs>
       <use xlink:href="#DejaVuSans-30"/>
       <use xlink:href="#DejaVuSans-2e" x="63.623047"/>
       <use xlink:href="#DejaVuSans-34" x="95.410156"/>
      </g>
     </g>
    </g>
    <g id="xtick_4">
     <g id="line2d_4">
      <g>
       <use xlink:href="#m31ee869c5d" x="331.747385" y="318.04" style="stroke: #000000; stroke-width: 0.8"/>
      </g>
     </g>
     <g id="text_4">
      <!-- 0.6 -->
      <g transform="translate(323.795823 332.638438)scale(0.1 -0.1)">
       <defs>
        <path id="DejaVuSans-36" d="M 2113 2584 
Q 1688 2584 1439 2293 
Q 1191 2003 1191 1497 
Q 1191 994 1439 701 
Q 1688 409 2113 409 
Q 2538 409 2786 701 
Q 3034 994 3034 1497 
Q 3034 2003 2786 2293 
Q 2538 2584 2113 2584 
z
M 3366 4563 
L 3366 3988 
Q 3128 4100 2886 4159 
Q 2644 4219 2406 4219 
Q 1781 4219 1451 3797 
Q 1122 3375 1075 2522 
Q 1259 2794 1537 2939 
Q 1816 3084 2150 3084 
Q 2853 3084 3261 2657 
Q 3669 2231 3669 1497 
Q 3669 778 3244 343 
Q 2819 -91 2113 -91 
Q 1303 -91 875 529 
Q 447 1150 447 2328 
Q 447 3434 972 4092 
Q 1497 4750 2381 4750 
Q 2619 4750 2861 4703 
Q 3103 4656 3366 4563 
z
" transform="scale(0.015625)"/>
       </defs>
       <use xlink:href="#DejaVuSans-30"/>
       <use xlink:href="#DejaVuSans-2e" x="63.623047"/>
       <use xlink:href="#DejaVuSans-36" x="95.410156"/>
      </g>
     </g>
    </g>
    <g id="xtick_5">
     <g id="line2d_5">
      <g>
       <use xlink:href="#m31ee869c5d" x="413.252121" y="318.04" style="stroke: #000000; stroke-width: 0.8"/>
      </g>
     </g>
     <g id="text_5">
      <!-- 0.8 -->
      <g transform="translate(405.300559 332.638438)scale(0.1 -0.1)">
       <defs>
        <path id="DejaVuSans-38" d="M 2034 2216 
Q 1584 2216 1326 1975 
Q 1069 1734 1069 1313 
Q 1069 891 1326 650 
Q 1584 409 2034 409 
Q 2484 409 2743 651 
Q 3003 894 3003 1313 
Q 3003 1734 2745 1975 
Q 2488 2216 2034 2216 
z
M 1403 2484 
Q 997 2584 770 2862 
Q 544 3141 544 3541 
Q 544 4100 942 4425 
Q 1341 4750 2034 4750 
Q 2731 4750 3128 4425 
Q 3525 4100 3525 3541 
Q 3525 3141 3298 2862 
Q 3072 2584 2669 2484 
Q 3125 2378 3379 2068 
Q 3634 1759 3634 1313 
Q 3634 634 3220 271 
Q 2806 -91 2034 -91 
Q 1263 -91 848 271 
Q 434 634 434 1313 
Q 434 1759 690 2068 
Q 947 2378 1403 2484 
z
M 1172 3481 
Q 1172 3119 1398 2916 
Q 1625 2713 2034 2713 
Q 2441 2713 2670 2916 
Q 2900 3119 2900 3481 
Q 2900 3844 2670 4047 
Q 2441 4250 2034 4250 
Q 1625 4250 1398 4047 
Q 1172 3844 1172 3481 
z
" transform="scale(0.015625)"/>
       </defs>
       <use xlink:href="#DejaVuSans-30"/>
       <use xlink:href="#DejaVuSans-2e" x="63.623047"/>
       <use xlink:href="#DejaVuSans-38" x="95.410156"/>
      </g>
     </g>
    </g>
    <g id="text_6">
     <!-- seconds -->
     <g transform="translate(209.667749 346.316563)scale(0.1 -0.1)">
      <defs>
       <path id="DejaVuSans-73" d="M 2834 3397 
L 2834 2853 
Q 2591 2978 2328 3040 
Q 2066 3103 1784 3103 
Q 1356 3103 1142 2972 
Q 928 2841 928 2578 
Q 928 2378 1081 2264 
Q 1234 2150 1697 2047 
L 1894 2003 
Q 2506 1872 2764 1633 
Q 3022 1394 3022 966 
Q 3022 478 2636 193 
Q 2250 -91 1575 -91 
Q 1294 -91 989 -36 
Q 684 19 347 128 
L 347 722 
Q 666 556 975 473 
Q 1284 391 1588 391 
Q 1994 391 2212 530 
Q 2431 669 2431 922 
Q 2431 1156 2273 1281 
Q 2116 1406 1581 1522 
L 1381 1569 
Q 847 1681 609 1914 
Q 372 2147 372 2553 
Q 372 3047 722 3315 
Q 1072 3584 1716 3584 
Q 2034 3584 2315 3537 
Q 2597 3491 2834 3397 
z
" transform="scale(0.015625)"/>
       <path id="DejaVuSans-65" d="M 3597 1894 
L 3597 1613 
L 953 1613 
Q 991 1019 1311 708 
Q 1631 397 2203 397 
Q 2534 397 2845 478 
Q 3156 559 3463 722 
L 3463 178 
Q 3153 47 2828 -22 
Q 2503 -91 2169 -91 
Q 1331 -91 842 396 
Q 353 884 353 1716 
Q 353 2575 817 3079 
Q 1281 3584 2069 3584 
Q 2775 3584 3186 3129 
Q 3597 2675 3597 1894 
z
M 3022 2063 
Q 3016 2534 2758 2815 
Q 2500 3097 2075 3097 
Q 1594 3097 1305 2825 
Q 1016 2553 972 2059 
L 3022 2063 
z
" transform="scale(0.015625)"/>
       <path id="DejaVuSans-63" d="M 3122 3366 
L 3122 2828 
Q 2878 2963 2633 3030 
Q 2388 3097 2138 3097 
Q 1578 3097 1268 2742 
Q 959 2388 959 1747 
Q 959 1106 1268 751 
Q 1578 397 2138 397 
Q 2388 397 2633 464 
Q 2878 531 3122 666 
L 3122 134 
Q 2881 22 2623 -34 
Q 2366 -91 2075 -91 
Q 1284 -91 818 406 
Q 353 903 353 1747 
Q 353 2603 823 3093 
Q 1294 3584 2113 3584 
Q 2378 3584 2631 3529 
Q 2884 3475 3122 3366 
z
" transform="scale(0.015625)"/>
       <path id="DejaVuSans-6f" d="M 1959 3097 
Q 1497 3097 1228 2736 
Q 959 2375 959 1747 
Q 959 1119 1226 758 
Q 1494 397 1959 397 
Q 2419 397 2687 759 
Q 2956 1122 2956 1747 
Q 2956 2369 2687 2733 
Q 2419 3097 1959 3097 
z
M 1959 3584 
Q 2709 3584 3137 3096 
Q 3566 2609 3566 1747 
Q 3566 888 3137 398 
Q 2709 -91 1959 -91 
Q 1206 -91 779 398 
Q 353 888 353 1747 
Q 353 2609 779 3096 
Q 1206 3584 1959 3584 
z
" transform="scale(0.015625)"/>
       <path id="DejaVuSans-6e" d="M 3513 2113 
L 3513 0 
L 2938 0 
L 2938 2094 
Q 2938 2591 2744 2837 
Q 2550 3084 2163 3084 
Q 1697 3084 1428 2787 
Q 1159 2491 1159 1978 
L 1159 0 
L 581 0 
L 581 3500 
L 1159 3500 
L 1159 2956 
Q 1366 3272 1645 3428 
Q 1925 3584 2291 3584 
Q 2894 3584 3203 3211 
Q 3513 2838 3513 2113 
z
" transform="scale(0.015625)"/>
       <path id="DejaVuSans-64" d="M 2906 2969 
L 2906 4863 
L 3481 4863 
L 3481 0 
L 2906 0 
L 2906 525 
Q 2725 213 2448 61 
Q 2172 -91 1784 -91 
Q 1150 -91 751 415 
Q 353 922 353 1747 
Q 353 2572 751 3078 
Q 1150 3584 1784 3584 
Q 2172 3584 2448 3432 
Q 2725 3281 2906 2969 
z
M 947 1747 
Q 947 1113 1208 752 
Q 1469 391 1925 391 
Q 2381 391 2643 752 
Q 2906 1113 2906 1747 
Q 2906 2381 2643 2742 
Q 2381 3103 1925 3103 
Q 1469 3103 1208 2742 
Q 947 2381 947 1747 
z
" transform="scale(0.015625)"/>
      </defs>
      <use xlink:href="#DejaVuSans-73"/>
      <use xlink:href="#DejaVuSans-65" x="52.099609"/>
      <use xlink:href="#DejaVuSans-63" x="113.623047"/>
      <use xlink:href="#DejaVuSans-6f" x="168.603516"/>
      <use xlink:href="#DejaVuSans-6e" x="229.785156"/>
      <use xlink:href="#DejaVuSans-64" x="293.164062"/>
      <use xlink:href="#DejaVuSans-73" x="356.640625"/>
     </g>
    </g>
   </g>
   <g id="matplotlib.axis_2">
    <g id="ytick_1">
     <g id="line2d_6">
      <defs>
       <path id="mc26a3a460a" d="M 0 0 
L -3.5 0 
" style="stroke: #000000; stroke-width: 0.8"/>
      </defs>
      <g>
       <use xlink:href="#mc26a3a460a" x="46.64" y="289.248489" style="stroke: #000000; stroke-width: 0.8"/>
      </g>
     </g>
     <g id="text_7">
      <!-- 1 -->
      <g transform="translate(24.897813 293.047708)scale(0.1 -0.1)">
       <defs>
        <path id="DejaVuSans-2212" d="M 678 2272 
L 4684 2272 
L 4684 1741 
L 678 1741 
L 678 2272 
z
" transform="scale(0.015625)"/>
        <path id="DejaVuSans-31" d="M 794 531 
L 1825 531 
L 1825 4091 
L 703 3866 
L 703 4441 
L 1819 4666 
L 2450 4666 
L 2450 531 
L 3481 531 
L 3481 0 
L 794 0 
L 794 531 
z
" transform="scale(0.015625)"/>
       </defs>
       <use xlink:href="#DejaVuSans-2212"/>
       <use xlink:href="#DejaVuSans-31" x="83.789062"/>
      </g>
     </g>
    </g>
    <g id="ytick_2">
     <g id="line2d_7">
      <g>
       <use xlink:href="#mc26a3a460a" x="46.64" y="258.047374" style="stroke: #000000; stroke-width: 0.8"/>
      </g>
     </g>
     <g id="text_8">
      <!-- 0 -->
      <g transform="translate(33.2775 261.846592)scale(0.1 -0.1)">
       <use xlink:href="#DejaVuSans-30"/>
      </g>
     </g>
    </g>
    <g id="ytick_3">
     <g id="line2d_8">
      <g>
       <use xlink:href="#mc26a3a460a" x="46.64" y="226.846258" style="stroke: #000000; stroke-width: 0.8"/>
      </g>
     </g>
     <g id="text_9">
      <!-- 1 -->
      <g transform="translate(33.2775 230.645477)scale(0.1 -0.1)">
       <use xlink:href="#DejaVuSans-31"/>
      </g>
     </g>
    </g>
    <g id="ytick_4">
     <g id="line2d_9">
      <g>
       <use xlink:href="#mc26a3a460a" x="46.64" y="195.645143" style="stroke: #000000; stroke-width: 0.8"/>
      </g>
     </g>
     <g id="text_10">
      <!-- 2 -->
      <g transform="translate(33.2775 199.444362)scale(0.1 -0.1)">
       <use xlink:href="#DejaVuSans-32"/>
      </g>
     </g>
    </g>
    <g id="ytick_5">
     <g id="line2d_10">
      <g>
       <use xlink:href="#mc26a3a460a" x="46.64" y="164.444028" style="stroke: #000000; stroke-width: 0.8"/>
      </g>
     </g>
     <g id="text_11">
      <!-- 3 -->
      <g transform="translate(33.2775 168.243247)scale(0.1 -0.1)">
       <defs>
        <path id="DejaVuSans-33" d="M 2597 2516 
Q 3050 2419 3304 2112 
Q 3559 1806 3559 1356 
Q 3559 666 3084 287 
Q 2609 -91 1734 -91 
Q 1441 -91 1130 -33 
Q 819 25 488 141 
L 488 750 
Q 750 597 1062 519 
Q 1375 441 1716 441 
Q 2309 441 2620 675 
Q 2931 909 2931 1356 
Q 2931 1769 2642 2001 
Q 2353 2234 1838 2234 
L 1294 2234 
L 1294 2753 
L 1863 2753 
Q 2328 2753 2575 2939 
Q 2822 3125 2822 3475 
Q 2822 3834 2567 4026 
Q 2313 4219 1838 4219 
Q 1578 4219 1281 4162 
Q 984 4106 628 3988 
L 628 4550 
Q 988 4650 1302 4700 
Q 1616 4750 1894 4750 
Q 2613 4750 3031 4423 
Q 3450 4097 3450 3541 
Q 3450 3153 3228 2886 
Q 3006 2619 2597 2516 
z
" transform="scale(0.015625)"/>
       </defs>
       <use xlink:href="#DejaVuSans-33"/>
      </g>
     </g>
    </g>
    <g id="ytick_6">
     <g id="line2d_11">
      <g>
       <use xlink:href="#mc26a3a460a" x="46.64" y="133.242912" style="stroke: #000000; stroke-width: 0.8"/>
      </g>
     </g>
     <g id="text_12">
      <!-- 4 -->
      <g transform="translate(33.2775 137.042131)scale(0.1 -0.1)">
       <use xlink:href="#DejaVuSans-34"/>
      </g>
     </g>
    </g>
    <g id="ytick_7">
     <g id="line2d_12">
      <g>
       <use xlink:href="#mc26a3a460a" x="46.64" y="102.041797" style="stroke: #000000; stroke-width: 0.8"/>
      </g>
     </g>
     <g id="text_13">
      <!-- 5 -->
      <g transform="translate(33.2775 105.841016)scale(0.1 -0.1)">
       <defs>
        <path id="DejaVuSans-35" d="M 691 4666 
L 3169 4666 
L 3169 4134 
L 1269 4134 
L 1269 2991 
Q 1406 3038 1543 3061 
Q 1681 3084 1819 3084 
Q 2600 3084 3056 2656 
Q 3513 2228 3513 1497 
Q 3513 744 3044 326 
Q 2575 -91 1722 -91 
Q 1428 -91 1123 -41 
Q 819 9 494 109 
L 494 744 
Q 775 591 1075 516 
Q 1375 441 1709 441 
Q 2250 441 2565 725 
Q 2881 1009 2881 1497 
Q 2881 1984 2565 2268 
Q 2250 2553 1709 2553 
Q 1456 2553 1204 2497 
Q 953 2441 691 2322 
L 691 4666 
z
" transform="scale(0.015625)"/>
       </defs>
       <use xlink:href="#DejaVuSans-35"/>
      </g>
     </g>
    </g>
    <g id="text_14">
     <!-- V -->
     <g transform="translate(18.818125 201.487562)rotate(-90)scale(0.1 -0.1)">
      <defs>
       <path id="DejaVuSans-b5" d="M 544 -1331 
L 544 3500 
L 1119 3500 
L 1119 1325 
Q 1119 872 1334 640 
Q 1550 409 1972 409 
Q 2434 409 2667 671 
Q 2900 934 2900 1459 
L 2900 3500 
L 3475 3500 
L 3475 806 
Q 3475 619 3529 530 
Q 3584 441 3700 441 
Q 3728 441 3778 458 
Q 3828 475 3916 513 
L 3916 50 
Q 3788 -22 3673 -56 
Q 3559 -91 3450 -91 
Q 3234 -91 3106 31 
Q 2978 153 2931 403 
Q 2775 156 2548 32 
Q 2322 -91 2016 -91 
Q 1697 -91 1473 31 
Q 1250 153 1119 397 
L 1119 -1331 
L 544 -1331 
z
" transform="scale(0.015625)"/>
       <path id="DejaVuSans-56" d="M 1831 0 
L 50 4666 
L 709 4666 
L 2188 738 
L 3669 4666 
L 4325 4666 
L 2547 0 
L 1831 0 
z
" transform="scale(0.015625)"/>
      </defs>
      <use xlink:href="#DejaVuSans-b5"/>
      <use xlink:href="#DejaVuSans-56" x="63.623047"/>
     </g>
    </g>
   </g>
   <g id="line2d_13">
    <path d="M 46.64 260.158884 
L 47.435945 265.142077 
L 49.027834 276.029718 
L 49.823779 278.882559 
L 50.619723 278.868312 
L 51.415668 276.222619 
L 53.803502 263.702579 
L 54.599447 261.558179 
L 55.395392 260.873624 
L 56.987281 261.180922 
L 57.783226 260.666475 
L 58.57917 259.235302 
L 60.967004 252.872054 
L 61.762949 251.70647 
L 62.558894 251.378237 
L 63.354838 251.726151 
L 64.150783 252.497767 
L 65.742672 254.613617 
L 67.334562 256.881593 
L 68.130506 257.529826 
L 68.926451 257.25999 
L 69.722396 255.648455 
L 70.51834 252.609307 
L 72.11023 244.749558 
L 72.906175 242.404236 
L 73.702119 242.852221 
L 74.498064 246.678478 
L 75.294009 253.406668 
L 76.885898 268.64015 
L 77.681843 272.675285 
L 78.477787 272.164865 
L 79.273732 267.05029 
L 81.661566 242.394643 
L 82.457511 239.032913 
L 83.253455 240.212354 
L 84.0494 245.115966 
L 85.641289 257.88933 
L 86.437234 261.486876 
L 87.233179 261.708657 
L 88.029124 258.924359 
L 89.621013 250.222614 
L 90.416958 247.670124 
L 91.212902 247.708833 
L 92.008847 250.319556 
L 94.396681 264.11779 
L 95.192626 266.873442 
L 95.98857 267.396933 
L 96.784515 265.478305 
L 97.58046 261.273084 
L 98.376404 255.277278 
L 99.968294 241.513962 
L 100.764238 236.135434 
L 101.560183 233.339406 
L 102.356128 233.818057 
L 103.152073 237.486258 
L 105.539907 254.661172 
L 106.335851 256.607685 
L 107.131796 255.025755 
L 107.927741 250.632984 
L 108.723685 245.23047 
L 109.51963 241.091721 
L 110.315575 240.120952 
L 111.111519 243.090153 
L 111.907464 249.256884 
L 112.703409 256.533842 
L 113.499353 262.174586 
L 114.295298 263.73765 
L 115.091243 259.975444 
L 115.887187 251.31546 
L 117.479077 228.194643 
L 118.275021 219.498691 
L 119.070966 215.557791 
L 119.866911 216.750708 
L 120.662856 221.934826 
L 122.254745 235.408385 
L 123.05069 239.493933 
L 123.846634 240.447543 
L 124.642579 238.643346 
L 126.234468 231.696986 
L 127.030413 229.077321 
L 127.826358 227.865562 
L 128.622302 227.864582 
L 130.214192 228.897788 
L 131.010136 228.750982 
L 131.806081 227.909956 
L 134.193915 224.094349 
L 134.98986 223.322122 
L 135.785805 222.858141 
L 136.581749 222.57227 
L 137.377694 222.409042 
L 138.173639 222.480162 
L 138.969583 223.047759 
L 139.765528 224.401822 
L 140.561473 226.69088 
L 142.153362 233.291732 
L 142.949307 236.598258 
L 143.745251 239.146558 
L 144.541196 240.609823 
L 145.337141 241.025104 
L 146.92903 240.405423 
L 147.724975 240.404199 
L 148.520919 240.942 
L 149.316864 241.773675 
L 150.112809 242.293269 
L 150.908753 241.750731 
L 151.704698 239.55164 
L 152.500643 235.529385 
L 154.888477 218.908008 
L 155.684422 215.528411 
L 156.480366 214.756492 
L 157.276311 216.724149 
L 158.072256 220.906966 
L 159.664145 231.62187 
L 160.46009 235.832025 
L 161.256034 238.215634 
L 162.051979 238.600525 
L 162.847924 237.300127 
L 164.439813 232.244738 
L 165.235758 229.797266 
L 166.031702 227.950301 
L 166.827647 226.796158 
L 167.623592 226.244373 
L 168.419537 226.132088 
L 169.215481 226.314152 
L 170.011426 226.69858 
L 173.195205 228.80037 
L 173.991149 228.910959 
L 174.787094 228.732241 
L 175.583039 228.425999 
L 176.378983 228.310374 
L 177.174928 228.77026 
L 177.970873 230.110096 
L 178.766817 232.406239 
L 181.154651 241.533608 
L 181.950596 243.515861 
L 182.746541 244.461125 
L 184.33843 244.726726 
L 185.134375 245.510726 
L 185.93032 247.650366 
L 186.726264 251.347366 
L 189.114098 265.225158 
L 189.910043 266.963117 
L 190.705988 265.726627 
L 191.501932 261.47595 
L 192.297877 254.891106 
L 193.889766 239.772124 
L 194.685711 233.902993 
L 195.481656 230.390074 
L 196.2776 229.492405 
L 197.073545 230.971843 
L 197.86949 234.263197 
L 199.461379 243.510405 
L 200.257324 248.168012 
L 201.053269 252.081202 
L 201.849213 254.71139 
L 202.645158 255.558526 
L 203.441103 254.250529 
L 204.237047 250.689142 
L 205.032992 245.189847 
L 206.624881 231.893145 
L 207.420826 226.569238 
L 208.216771 223.694022 
L 209.012715 223.902303 
L 209.80866 227.137683 
L 210.604605 232.64407 
L 212.196494 245.202766 
L 212.992439 249.500608 
L 213.788383 251.198599 
L 214.584328 250.036002 
L 215.380273 246.320039 
L 216.176218 240.78724 
L 217.768107 228.213407 
L 218.564052 223.133753 
L 219.359996 219.930682 
L 220.155941 219.12196 
L 220.951886 220.923523 
L 221.74783 225.190318 
L 222.543775 231.381685 
L 224.135664 245.655413 
L 224.931609 251.387807 
L 225.727554 254.819956 
L 226.523498 255.452552 
L 227.319443 253.385921 
L 228.115388 249.287155 
L 229.707277 239.185693 
L 230.503222 235.118779 
L 231.299166 232.37847 
L 232.095111 230.872264 
L 232.891056 230.1745 
L 235.27889 228.956012 
L 236.074835 228.800567 
L 236.870779 229.295464 
L 237.666724 230.651969 
L 239.258613 234.732828 
L 240.054558 235.814672 
L 240.850503 234.9322 
L 241.646447 231.465702 
L 242.442392 225.477219 
L 244.830226 203.259366 
L 245.626171 199.238473 
L 246.422115 198.267682 
L 247.21806 199.840406 
L 248.014005 202.613714 
L 248.80995 204.838777 
L 249.605894 204.943883 
L 250.401839 202.070721 
L 251.197784 196.377185 
L 252.789673 181.693205 
L 253.585618 176.260105 
L 254.381562 173.989104 
L 255.177507 175.269788 
L 255.973452 179.518644 
L 257.565341 191.360889 
L 258.361286 195.941218 
L 259.15723 198.309164 
L 259.953175 198.305606 
L 260.74912 196.361663 
L 263.136954 186.67729 
L 263.932898 184.367364 
L 264.728843 183.126941 
L 265.524788 183.0847 
L 266.320733 184.252873 
L 267.116677 186.47741 
L 268.708567 192.161747 
L 269.504511 193.973513 
L 270.300456 193.839858 
L 271.096401 191.133479 
L 271.892345 185.856459 
L 274.280179 165.372215 
L 275.076124 162.1964 
L 275.872069 162.517479 
L 276.668013 165.915121 
L 278.259903 175.759438 
L 279.055847 178.445513 
L 279.851792 178.01251 
L 280.647737 174.607585 
L 282.239626 164.666054 
L 283.035571 161.978928 
L 283.831516 162.590647 
L 284.62746 166.448914 
L 286.21935 178.147577 
L 287.015294 181.915105 
L 287.811239 182.218253 
L 288.607184 178.817868 
L 289.403128 172.691013 
L 290.199073 165.677595 
L 290.995018 159.848316 
L 291.790962 156.826338 
L 292.586907 157.297256 
L 293.382852 160.858662 
L 294.974741 171.720081 
L 295.770686 175.768994 
L 296.56663 177.386857 
L 297.362575 176.360667 
L 298.15852 173.205733 
L 299.750409 164.66549 
L 300.546354 161.45421 
L 301.342299 159.975248 
L 302.138243 160.524329 
L 302.934188 163.044482 
L 303.730133 167.212521 
L 305.322022 178.360799 
L 306.117967 184.030795 
L 306.913911 188.832928 
L 307.709856 192.135986 
L 308.505801 193.486719 
L 309.301745 192.715281 
L 310.09769 189.998051 
L 310.893635 185.841189 
L 312.485524 176.173373 
L 313.281469 172.078992 
L 314.077414 169.050706 
L 314.873358 167.1295 
L 315.669303 166.107446 
L 316.465248 165.679482 
L 317.261192 165.616097 
L 318.057137 165.886499 
L 318.853082 166.678101 
L 319.649026 168.297999 
L 320.444971 170.991243 
L 321.240916 174.748402 
L 322.832805 183.554792 
L 323.62875 186.912204 
L 324.424694 188.388866 
L 325.220639 187.496051 
L 326.016584 184.34699 
L 327.608473 174.852274 
L 328.404418 171.217293 
L 329.200363 170.008661 
L 329.996307 171.827269 
L 330.792252 176.468706 
L 333.180086 195.417601 
L 333.976031 198.573207 
L 334.771975 198.695847 
L 335.56792 195.996171 
L 336.363865 191.337885 
L 337.955754 180.89189 
L 338.751699 177.003038 
L 339.547643 174.449183 
L 340.343588 172.907088 
L 341.139533 171.7598 
L 341.935477 170.408112 
L 342.731422 168.547875 
L 344.323311 164.207792 
L 345.119256 162.938824 
L 345.915201 163.087141 
L 346.711146 164.875529 
L 347.50709 168.044976 
L 349.09898 175.632649 
L 349.894924 178.430985 
L 350.690869 179.92926 
L 351.486814 180.219039 
L 353.078703 179.257192 
L 353.874648 179.123879 
L 354.670592 179.492341 
L 355.466537 180.035254 
L 356.262482 180.128698 
L 357.058426 179.13545 
L 357.854371 176.713261 
L 358.650316 173.011965 
L 360.242205 164.576155 
L 361.03815 161.567431 
L 361.834095 160.068777 
L 362.630039 159.955686 
L 364.221929 161.329305 
L 365.017873 161.478876 
L 365.813818 161.010394 
L 366.609763 160.403711 
L 367.405707 160.467228 
L 368.201652 161.920237 
L 368.997597 164.961243 
L 370.589486 172.877009 
L 371.385431 175.011261 
L 372.181375 174.261897 
L 372.97732 170.326634 
L 375.365154 151.273161 
L 376.161099 148.475738 
L 376.957043 149.113038 
L 377.752988 152.419747 
L 378.548933 156.605295 
L 379.344878 159.539855 
L 380.140822 159.594446 
L 380.936767 156.299984 
L 383.324601 139.717923 
L 384.120546 138.469858 
L 384.91649 140.955175 
L 385.712435 146.204724 
L 386.50838 152.247843 
L 387.304324 156.865743 
L 388.100269 158.413862 
L 388.896214 156.388012 
L 389.692158 151.525696 
L 391.284048 139.910746 
L 392.079992 136.297709 
L 392.875937 135.057836 
L 393.671882 135.791243 
L 396.059716 141.180864 
L 397.651605 143.95225 
L 398.44755 145.819776 
L 400.039439 150.120252 
L 400.835384 151.08746 
L 401.631329 150.19385 
L 402.427273 147.254496 
L 404.019163 138.64437 
L 404.815107 136.050691 
L 405.611052 136.420816 
L 406.406997 140.044805 
L 408.794831 157.400624 
L 409.590775 159.11034 
L 410.38672 157.198696 
L 411.182665 152.549608 
L 411.97861 147.022555 
L 412.774554 142.715769 
L 413.570499 141.137528 
L 413.570499 141.137528 
" clip-path="url(#pb33f2c48f4)" style="fill: none; stroke: #e41a1c; stroke-width: 1.5; stroke-linecap: square"/>
   </g>
   <g id="line2d_14">
    <path d="M 46.64 264.226309 
L 49.027834 263.293884 
L 49.823779 262.459328 
L 50.619723 261.176666 
L 53.007557 256.662753 
L 53.803502 255.716391 
L 54.599447 255.221389 
L 55.395392 255.142158 
L 56.191336 255.430713 
L 56.987281 256.077833 
L 57.783226 257.110417 
L 58.57917 258.532323 
L 60.17106 261.981742 
L 60.967004 263.358598 
L 61.762949 263.95535 
L 62.558894 263.489724 
L 63.354838 261.960741 
L 64.946728 257.355181 
L 65.742672 255.606521 
L 66.538617 255.025901 
L 67.334562 255.821428 
L 68.130506 257.759117 
L 69.722396 262.460114 
L 70.51834 263.755646 
L 71.314285 263.73689 
L 72.11023 262.42856 
L 72.906175 260.20817 
L 74.498064 255.227538 
L 75.294009 253.309504 
L 76.089953 251.934002 
L 76.885898 250.951515 
L 78.477787 249.413189 
L 79.273732 248.801424 
L 80.069677 248.550647 
L 80.865621 248.960801 
L 81.661566 250.246182 
L 82.457511 252.41014 
L 84.845345 260.856591 
L 85.641289 262.844431 
L 86.437234 263.99465 
L 87.233179 264.41252 
L 90.416958 264.354319 
L 91.212902 264.419619 
L 92.008847 264.108539 
L 92.804792 263.116308 
L 93.600736 261.304754 
L 95.192626 255.974049 
L 95.98857 253.386505 
L 96.784515 251.587338 
L 97.58046 250.966685 
L 98.376404 251.630163 
L 99.172349 253.366359 
L 100.764238 258.095602 
L 101.560183 259.996244 
L 102.356128 261.084097 
L 103.152073 261.276524 
L 103.948017 260.71003 
L 104.743962 259.642275 
L 106.335851 256.924284 
L 107.927741 253.84701 
L 111.111519 246.687644 
L 111.907464 245.927746 
L 112.703409 246.165416 
L 113.499353 247.408371 
L 115.887187 253.43021 
L 116.683132 254.496359 
L 117.479077 254.611662 
L 118.275021 253.947513 
L 119.866911 252.077934 
L 120.662856 251.754663 
L 121.4588 252.043941 
L 123.05069 253.217309 
L 123.846634 253.099843 
L 124.642579 252.014053 
L 125.438524 249.972368 
L 127.030413 244.719667 
L 127.826358 242.717076 
L 128.622302 241.746253 
L 129.418247 241.891715 
L 130.214192 242.917459 
L 132.602026 247.183211 
L 134.193915 249.068673 
L 136.581749 251.753926 
L 137.377694 252.107011 
L 138.173639 251.625137 
L 138.969583 250.133727 
L 141.357417 242.805647 
L 142.153362 241.583831 
L 142.949307 241.843241 
L 143.745251 243.525441 
L 145.337141 248.813369 
L 146.133085 250.845553 
L 146.92903 251.736061 
L 147.724975 251.48547 
L 149.316864 249.632532 
L 150.112809 249.391922 
L 150.908753 250.148789 
L 151.704698 251.745243 
L 152.500643 253.591014 
L 153.296588 254.885549 
L 154.092532 254.925943 
L 154.888477 253.37946 
L 155.684422 250.416281 
L 157.276311 242.953773 
L 158.072256 240.117487 
L 158.8682 238.658183 
L 159.664145 238.667273 
L 160.46009 239.848411 
L 162.847924 245.245224 
L 163.643868 246.456287 
L 164.439813 247.306599 
L 167.623592 249.922076 
L 168.419537 250.384498 
L 169.215481 250.568992 
L 170.011426 250.471424 
L 171.603315 250.027948 
L 172.39926 250.1341 
L 173.195205 250.687517 
L 173.991149 251.69358 
L 176.378983 255.406667 
L 177.174928 255.967985 
L 177.970873 255.9143 
L 178.766817 255.308151 
L 180.358707 253.432443 
L 181.154651 252.850456 
L 181.950596 252.925437 
L 182.746541 253.824364 
L 183.542485 255.535761 
L 185.134375 260.494855 
L 185.93032 263.044085 
L 186.726264 265.203381 
L 187.522209 266.816133 
L 188.318154 267.930638 
L 189.910043 269.701071 
L 190.705988 270.991958 
L 191.501932 272.797738 
L 193.889766 279.405007 
L 194.685711 280.712184 
L 195.481656 281.077061 
L 196.2776 280.550618 
L 198.665434 277.41412 
L 199.461379 277.284056 
L 200.257324 277.940894 
L 201.053269 279.243381 
L 204.237047 285.770856 
L 205.828937 288.201048 
L 206.624881 289.03908 
L 207.420826 289.337807 
L 208.216771 288.791874 
L 209.012715 287.183895 
L 209.80866 284.537478 
L 211.400549 277.810374 
L 212.196494 275.116437 
L 212.992439 273.744335 
L 213.788383 273.962027 
L 214.584328 275.562604 
L 216.176218 280.167596 
L 216.972162 281.549968 
L 217.768107 281.628834 
L 218.564052 280.44786 
L 220.155941 276.413232 
L 220.951886 274.876947 
L 221.74783 274.192219 
L 222.543775 274.278948 
L 223.33972 274.736306 
L 224.135664 275.062981 
L 224.931609 274.915147 
L 227.319443 273.145265 
L 228.115388 273.651604 
L 228.911332 275.194881 
L 230.503222 279.904605 
L 231.299166 281.621902 
L 232.095111 282.024577 
L 232.891056 280.921024 
L 233.687001 278.650945 
L 234.482945 275.973543 
L 235.27889 273.786221 
L 236.074835 272.785734 
L 236.870779 273.208255 
L 237.666724 274.753159 
L 238.462669 276.720275 
L 239.258613 278.303062 
L 240.054558 278.917262 
L 240.850503 278.431876 
L 242.442392 275.957662 
L 243.238337 275.420906 
L 244.034281 276.102274 
L 244.830226 278.066318 
L 247.21806 286.712609 
L 248.014005 288.475634 
L 248.80995 289.209906 
L 249.605894 289.108906 
L 250.401839 288.527653 
L 251.993728 287.013982 
L 252.789673 286.140447 
L 253.585618 284.972506 
L 254.381562 283.370903 
L 255.973452 279.369373 
L 256.769396 277.77254 
L 257.565341 277.081645 
L 258.361286 277.547636 
L 259.15723 279.057886 
L 260.74912 283.068143 
L 261.545064 284.175799 
L 262.341009 284.019901 
L 263.136954 282.562509 
L 264.728843 277.403965 
L 265.524788 274.914257 
L 266.320733 273.106092 
L 267.116677 272.086023 
L 267.912622 271.670825 
L 269.504511 271.321577 
L 270.300456 270.915353 
L 271.892345 269.819155 
L 272.68829 269.520482 
L 273.484235 269.543414 
L 275.076124 270.070053 
L 275.872069 270.090459 
L 276.668013 269.702714 
L 277.463958 268.924497 
L 279.055847 267.025355 
L 279.851792 266.371553 
L 280.647737 266.016449 
L 281.443682 265.801295 
L 282.239626 265.455335 
L 283.035571 264.747387 
L 285.423405 261.371753 
L 286.21935 261.196265 
L 287.015294 262.210903 
L 287.811239 264.462575 
L 290.199073 273.765517 
L 290.995018 275.391292 
L 291.790962 275.566604 
L 292.586907 274.458594 
L 294.178796 270.68409 
L 294.974741 269.333639 
L 295.770686 268.885041 
L 296.56663 269.30725 
L 298.15852 271.188116 
L 298.954465 271.635728 
L 299.750409 271.289589 
L 300.546354 270.117876 
L 302.138243 266.333253 
L 302.934188 264.510094 
L 303.730133 263.206779 
L 304.526077 262.615323 
L 305.322022 262.763142 
L 306.117967 263.529876 
L 308.505801 266.948486 
L 309.301745 267.466229 
L 310.09769 267.303519 
L 310.893635 266.435858 
L 312.485524 263.392821 
L 313.281469 261.967179 
L 314.077414 261.140833 
L 314.873358 261.146291 
L 315.669303 261.953208 
L 317.261192 264.500608 
L 318.057137 265.139831 
L 318.853082 264.723178 
L 319.649026 263.099456 
L 320.444971 260.468632 
L 322.03686 254.306766 
L 322.832805 251.983791 
L 323.62875 250.693587 
L 324.424694 250.448076 
L 325.220639 250.962334 
L 326.812528 252.468152 
L 327.608473 252.744797 
L 328.404418 252.595704 
L 329.200363 252.240837 
L 329.996307 252.03313 
L 330.792252 252.312256 
L 331.588197 253.274171 
L 332.384141 254.902966 
L 334.771975 261.15571 
L 335.56792 262.652916 
L 336.363865 263.566058 
L 337.159809 263.928919 
L 337.955754 263.867393 
L 338.751699 263.530953 
L 340.343588 262.427038 
L 341.935477 260.833529 
L 343.527367 258.630299 
L 345.119256 256.247726 
L 345.915201 255.303453 
L 346.711146 254.714317 
L 347.50709 254.595598 
L 348.303035 255.013784 
L 349.09898 255.964438 
L 349.894924 257.350646 
L 351.486814 260.509833 
L 352.282758 261.598524 
L 353.078703 261.858208 
L 353.874648 261.010363 
L 354.670592 258.975423 
L 355.466537 255.944556 
L 357.058426 248.981638 
L 357.854371 246.452691 
L 358.650316 245.386238 
L 359.44626 246.041428 
L 360.242205 248.243507 
L 361.834095 254.617104 
L 362.630039 256.985326 
L 363.425984 257.797408 
L 364.221929 256.785289 
L 365.017873 254.20367 
L 366.609763 247.404943 
L 367.405707 245.041685 
L 368.201652 244.254411 
L 368.997597 245.135093 
L 369.793541 247.269357 
L 370.589486 249.881588 
L 371.385431 252.088502 
L 372.181375 253.175631 
L 372.97732 252.805838 
L 373.773265 251.09501 
L 376.161099 243.608983 
L 376.957043 242.323968 
L 377.752988 242.094516 
L 378.548933 242.761219 
L 379.344878 243.993195 
L 380.936767 246.803992 
L 381.732712 247.970258 
L 382.528656 248.89538 
L 383.324601 249.57877 
L 384.120546 249.987064 
L 384.91649 250.032149 
L 385.712435 249.609829 
L 386.50838 248.680399 
L 388.896214 244.691919 
L 389.692158 244.168212 
L 390.488103 244.570758 
L 391.284048 245.898608 
L 393.671882 251.72251 
L 394.467827 252.705487 
L 395.263771 252.844411 
L 396.059716 252.369409 
L 396.855661 251.730788 
L 397.651605 251.408933 
L 398.44755 251.705757 
L 399.243495 252.601717 
L 400.039439 253.739098 
L 400.835384 254.54367 
L 401.631329 254.441572 
L 402.427273 253.088667 
L 403.223218 250.52275 
L 404.815107 243.756021 
L 405.611052 240.997117 
L 406.406997 239.445098 
L 407.202941 239.285074 
L 407.998886 240.314594 
L 410.38672 245.450768 
L 411.182665 246.440754 
L 411.97861 246.942634 
L 413.570499 247.512537 
L 413.570499 247.512537 
" clip-path="url(#pb33f2c48f4)" style="fill: none; stroke: #377eb8; stroke-width: 1.5; stroke-linecap: square"/>
   </g>
   <g id="line2d_15">
    <path d="M 87.233179 318.04 
L 87.233179 71.732 
" clip-path="url(#pb33f2c48f4)" style="fill: none; stroke: #000000; stroke-width: 0.5; stroke-linecap: square"/>
   </g>
   <g id="line2d_16">
    <path d="M 46.64 258.047374 
L 413.570499 258.047374 
" clip-path="url(#pb33f2c48f4)" style="fill: none; stroke: #000000; stroke-width: 0.5; stroke-linecap: square"/>
   </g>
   <g id="patch_4">
    <path d="M 46.64 318.04 
L 46.64 71.732 
" style="fill: none; stroke: #000000; stroke-width: 0.8; stroke-linejoin: miter; stroke-linecap: square"/>
   </g>
   <g id="patch_5">
    <path d="M 413.570499 318.04 
L 413.570499 71.732 
" style="fill: none; stroke: #000000; stroke-width: 0.8; stroke-linejoin: miter; stroke-linecap: square"/>
   </g>
   <g id="patch_6">
    <path d="M 46.64 318.04 
L 413.570499 318.04 
" style="fill: none; stroke: #000000; stroke-width: 0.8; stroke-linejoin: miter; stroke-linecap: square"/>
   </g>
   <g id="patch_7">
    <path d="M 46.64 71.732 
L 413.570499 71.732 
" style="fill: none; stroke: #000000; stroke-width: 0.8; stroke-linejoin: miter; stroke-linecap: square"/>
   </g>
   <g id="text_15">
    <!-- Cz -->
    <g transform="translate(222.766499 65.732)scale(0.12 -0.12)">
     <defs>
      <path id="DejaVuSans-43" d="M 4122 4306 
L 4122 3641 
Q 3803 3938 3442 4084 
Q 3081 4231 2675 4231 
Q 1875 4231 1450 3742 
Q 1025 3253 1025 2328 
Q 1025 1406 1450 917 
Q 1875 428 2675 428 
Q 3081 428 3442 575 
Q 3803 722 4122 1019 
L 4122 359 
Q 3791 134 3420 21 
Q 3050 -91 2638 -91 
Q 1578 -91 968 557 
Q 359 1206 359 2328 
Q 359 3453 968 4101 
Q 1578 4750 2638 4750 
Q 3056 4750 3426 4639 
Q 3797 4528 4122 4306 
z
" transform="scale(0.015625)"/>
      <path id="DejaVuSans-7a" d="M 353 3500 
L 3084 3500 
L 3084 2975 
L 922 459 
L 3084 459 
L 3084 0 
L 275 0 
L 275 525 
L 2438 3041 
L 353 3041 
L 353 3500 
z
" transform="scale(0.015625)"/>
     </defs>
     <use xlink:href="#DejaVuSans-43"/>
     <use xlink:href="#DejaVuSans-7a" x="69.824219"/>
    </g>
   </g>
   <g id="legend_1">
    <g id="patch_8">
     <path d="M 99.877906 48.500845 
L 360.332593 48.500845 
Q 362.332593 48.500845 362.332593 46.500845 
L 362.332593 18.144595 
Q 362.332593 16.144595 360.332593 16.144595 
L 99.877906 16.144595 
Q 97.877906 16.144595 97.877906 18.144595 
L 97.877906 46.500845 
Q 97.877906 48.500845 99.877906 48.500845 
z
" style="fill: #ffffff; opacity: 0.8; stroke: #cccccc; stroke-linejoin: miter"/>
    </g>
    <g id="text_16">
     <!-- Average of Session 22 -->
     <g transform="translate(174.545874 27.743033)scale(0.1 -0.1)">
      <defs>
       <path id="DejaVuSans-41" d="M 2188 4044 
L 1331 1722 
L 3047 1722 
L 2188 4044 
z
M 1831 4666 
L 2547 4666 
L 4325 0 
L 3669 0 
L 3244 1197 
L 1141 1197 
L 716 0 
L 50 0 
L 1831 4666 
z
" transform="scale(0.015625)"/>
       <path id="DejaVuSans-76" d="M 191 3500 
L 800 3500 
L 1894 563 
L 2988 3500 
L 3597 3500 
L 2284 0 
L 1503 0 
L 191 3500 
z
" transform="scale(0.015625)"/>
       <path id="DejaVuSans-72" d="M 2631 2963 
Q 2534 3019 2420 3045 
Q 2306 3072 2169 3072 
Q 1681 3072 1420 2755 
Q 1159 2438 1159 1844 
L 1159 0 
L 581 0 
L 581 3500 
L 1159 3500 
L 1159 2956 
Q 1341 3275 1631 3429 
Q 1922 3584 2338 3584 
Q 2397 3584 2469 3576 
Q 2541 3569 2628 3553 
L 2631 2963 
z
" transform="scale(0.015625)"/>
       <path id="DejaVuSans-61" d="M 2194 1759 
Q 1497 1759 1228 1600 
Q 959 1441 959 1056 
Q 959 750 1161 570 
Q 1363 391 1709 391 
Q 2188 391 2477 730 
Q 2766 1069 2766 1631 
L 2766 1759 
L 2194 1759 
z
M 3341 1997 
L 3341 0 
L 2766 0 
L 2766 531 
Q 2569 213 2275 61 
Q 1981 -91 1556 -91 
Q 1019 -91 701 211 
Q 384 513 384 1019 
Q 384 1609 779 1909 
Q 1175 2209 1959 2209 
L 2766 2209 
L 2766 2266 
Q 2766 2663 2505 2880 
Q 2244 3097 1772 3097 
Q 1472 3097 1187 3025 
Q 903 2953 641 2809 
L 641 3341 
Q 956 3463 1253 3523 
Q 1550 3584 1831 3584 
Q 2591 3584 2966 3190 
Q 3341 2797 3341 1997 
z
" transform="scale(0.015625)"/>
       <path id="DejaVuSans-67" d="M 2906 1791 
Q 2906 2416 2648 2759 
Q 2391 3103 1925 3103 
Q 1463 3103 1205 2759 
Q 947 2416 947 1791 
Q 947 1169 1205 825 
Q 1463 481 1925 481 
Q 2391 481 2648 825 
Q 2906 1169 2906 1791 
z
M 3481 434 
Q 3481 -459 3084 -895 
Q 2688 -1331 1869 -1331 
Q 1566 -1331 1297 -1286 
Q 1028 -1241 775 -1147 
L 775 -588 
Q 1028 -725 1275 -790 
Q 1522 -856 1778 -856 
Q 2344 -856 2625 -561 
Q 2906 -266 2906 331 
L 2906 616 
Q 2728 306 2450 153 
Q 2172 0 1784 0 
Q 1141 0 747 490 
Q 353 981 353 1791 
Q 353 2603 747 3093 
Q 1141 3584 1784 3584 
Q 2172 3584 2450 3431 
Q 2728 3278 2906 2969 
L 2906 3500 
L 3481 3500 
L 3481 434 
z
" transform="scale(0.015625)"/>
       <path id="DejaVuSans-20" transform="scale(0.015625)"/>
       <path id="DejaVuSans-66" d="M 2375 4863 
L 2375 4384 
L 1825 4384 
Q 1516 4384 1395 4259 
Q 1275 4134 1275 3809 
L 1275 3500 
L 2222 3500 
L 2222 3053 
L 1275 3053 
L 1275 0 
L 697 0 
L 697 3053 
L 147 3053 
L 147 3500 
L 697 3500 
L 697 3744 
Q 697 4328 969 4595 
Q 1241 4863 1831 4863 
L 2375 4863 
z
" transform="scale(0.015625)"/>
       <path id="DejaVuSans-53" d="M 3425 4513 
L 3425 3897 
Q 3066 4069 2747 4153 
Q 2428 4238 2131 4238 
Q 1616 4238 1336 4038 
Q 1056 3838 1056 3469 
Q 1056 3159 1242 3001 
Q 1428 2844 1947 2747 
L 2328 2669 
Q 3034 2534 3370 2195 
Q 3706 1856 3706 1288 
Q 3706 609 3251 259 
Q 2797 -91 1919 -91 
Q 1588 -91 1214 -16 
Q 841 59 441 206 
L 441 856 
Q 825 641 1194 531 
Q 1563 422 1919 422 
Q 2459 422 2753 634 
Q 3047 847 3047 1241 
Q 3047 1584 2836 1778 
Q 2625 1972 2144 2069 
L 1759 2144 
Q 1053 2284 737 2584 
Q 422 2884 422 3419 
Q 422 4038 858 4394 
Q 1294 4750 2059 4750 
Q 2388 4750 2728 4690 
Q 3069 4631 3425 4513 
z
" transform="scale(0.015625)"/>
       <path id="DejaVuSans-69" d="M 603 3500 
L 1178 3500 
L 1178 0 
L 603 0 
L 603 3500 
z
M 603 4863 
L 1178 4863 
L 1178 4134 
L 603 4134 
L 603 4863 
z
" transform="scale(0.015625)"/>
      </defs>
      <use xlink:href="#DejaVuSans-41"/>
      <use xlink:href="#DejaVuSans-76" x="62.533203"/>
      <use xlink:href="#DejaVuSans-65" x="121.712891"/>
      <use xlink:href="#DejaVuSans-72" x="183.236328"/>
      <use xlink:href="#DejaVuSans-61" x="224.349609"/>
      <use xlink:href="#DejaVuSans-67" x="285.628906"/>
      <use xlink:href="#DejaVuSans-65" x="349.105469"/>
      <use xlink:href="#DejaVuSans-20" x="410.628906"/>
      <use xlink:href="#DejaVuSans-6f" x="442.416016"/>
      <use xlink:href="#DejaVuSans-66" x="503.597656"/>
      <use xlink:href="#DejaVuSans-20" x="538.802734"/>
      <use xlink:href="#DejaVuSans-53" x="570.589844"/>
      <use xlink:href="#DejaVuSans-65" x="634.066406"/>
      <use xlink:href="#DejaVuSans-73" x="695.589844"/>
      <use xlink:href="#DejaVuSans-73" x="747.689453"/>
      <use xlink:href="#DejaVuSans-69" x="799.789062"/>
      <use xlink:href="#DejaVuSans-6f" x="827.572266"/>
      <use xlink:href="#DejaVuSans-6e" x="888.753906"/>
      <use xlink:href="#DejaVuSans-20" x="952.132812"/>
      <use xlink:href="#DejaVuSans-32" x="983.919922"/>
      <use xlink:href="#DejaVuSans-32" x="1047.542969"/>
     </g>
    </g>
    <g id="line2d_17">
     <path d="M 101.877906 38.921158 
L 111.877906 38.921158 
L 121.877906 38.921158 
" style="fill: none; stroke: #e41a1c; stroke-width: 1.5; stroke-linecap: square"/>
    </g>
    <g id="text_17">
     <!-- Target (n=284) -->
     <g transform="translate(129.877906 42.421158)scale(0.1 -0.1)">
      <defs>
       <path id="DejaVuSans-54" d="M -19 4666 
L 3928 4666 
L 3928 4134 
L 2272 4134 
L 2272 0 
L 1638 0 
L 1638 4134 
L -19 4134 
L -19 4666 
z
" transform="scale(0.015625)"/>
       <path id="DejaVuSans-74" d="M 1172 4494 
L 1172 3500 
L 2356 3500 
L 2356 3053 
L 1172 3053 
L 1172 1153 
Q 1172 725 1289 603 
Q 1406 481 1766 481 
L 2356 481 
L 2356 0 
L 1766 0 
Q 1100 0 847 248 
Q 594 497 594 1153 
L 594 3053 
L 172 3053 
L 172 3500 
L 594 3500 
L 594 4494 
L 1172 4494 
z
" transform="scale(0.015625)"/>
       <path id="DejaVuSans-28" d="M 1984 4856 
Q 1566 4138 1362 3434 
Q 1159 2731 1159 2009 
Q 1159 1288 1364 580 
Q 1569 -128 1984 -844 
L 1484 -844 
Q 1016 -109 783 600 
Q 550 1309 550 2009 
Q 550 2706 781 3412 
Q 1013 4119 1484 4856 
L 1984 4856 
z
" transform="scale(0.015625)"/>
       <path id="DejaVuSans-3d" d="M 678 2906 
L 4684 2906 
L 4684 2381 
L 678 2381 
L 678 2906 
z
M 678 1631 
L 4684 1631 
L 4684 1100 
L 678 1100 
L 678 1631 
z
" transform="scale(0.015625)"/>
       <path id="DejaVuSans-29" d="M 513 4856 
L 1013 4856 
Q 1481 4119 1714 3412 
Q 1947 2706 1947 2009 
Q 1947 1309 1714 600 
Q 1481 -109 1013 -844 
L 513 -844 
Q 928 -128 1133 580 
Q 1338 1288 1338 2009 
Q 1338 2731 1133 3434 
Q 928 4138 513 4856 
z
" transform="scale(0.015625)"/>
      </defs>
      <use xlink:href="#DejaVuSans-54"/>
      <use xlink:href="#DejaVuSans-61" x="44.583984"/>
      <use xlink:href="#DejaVuSans-72" x="105.863281"/>
      <use xlink:href="#DejaVuSans-67" x="145.226562"/>
      <use xlink:href="#DejaVuSans-65" x="208.703125"/>
      <use xlink:href="#DejaVuSans-74" x="270.226562"/>
      <use xlink:href="#DejaVuSans-20" x="309.435547"/>
      <use xlink:href="#DejaVuSans-28" x="341.222656"/>
      <use xlink:href="#DejaVuSans-6e" x="380.236328"/>
      <use xlink:href="#DejaVuSans-3d" x="443.615234"/>
      <use xlink:href="#DejaVuSans-32" x="527.404297"/>
      <use xlink:href="#DejaVuSans-38" x="591.027344"/>
      <use xlink:href="#DejaVuSans-34" x="654.650391"/>
      <use xlink:href="#DejaVuSans-29" x="718.273438"/>
     </g>
    </g>
    <g id="line2d_18">
     <path d="M 225.607593 38.921158 
L 235.607593 38.921158 
L 245.607593 38.921158 
" style="fill: none; stroke: #377eb8; stroke-width: 1.5; stroke-linecap: square"/>
    </g>
    <g id="text_18">
     <!-- Non-Target (n=1440) -->
     <g transform="translate(253.607593 42.421158)scale(0.1 -0.1)">
      <defs>
       <path id="DejaVuSans-4e" d="M 628 4666 
L 1478 4666 
L 3547 763 
L 3547 4666 
L 4159 4666 
L 4159 0 
L 3309 0 
L 1241 3903 
L 1241 0 
L 628 0 
L 628 4666 
z
" transform="scale(0.015625)"/>
       <path id="DejaVuSans-2d" d="M 313 2009 
L 1997 2009 
L 1997 1497 
L 313 1497 
L 313 2009 
z
" transform="scale(0.015625)"/>
      </defs>
      <use xlink:href="#DejaVuSans-4e"/>
      <use xlink:href="#DejaVuSans-6f" x="74.804688"/>
      <use xlink:href="#DejaVuSans-6e" x="135.986328"/>
      <use xlink:href="#DejaVuSans-2d" x="199.365234"/>
      <use xlink:href="#DejaVuSans-54" x="226.324219"/>
      <use xlink:href="#DejaVuSans-61" x="270.908203"/>
      <use xlink:href="#DejaVuSans-72" x="332.1875"/>
      <use xlink:href="#DejaVuSans-67" x="371.550781"/>
      <use xlink:href="#DejaVuSans-65" x="435.027344"/>
      <use xlink:href="#DejaVuSans-74" x="496.550781"/>
      <use xlink:href="#DejaVuSans-20" x="535.759766"/>
      <use xlink:href="#DejaVuSans-28" x="567.546875"/>
      <use xlink:href="#DejaVuSans-6e" x="606.560547"/>
      <use xlink:href="#DejaVuSans-3d" x="669.939453"/>
      <use xlink:href="#DejaVuSans-31" x="753.728516"/>
      <use xlink:href="#DejaVuSans-34" x="817.351562"/>
      <use xlink:href="#DejaVuSans-34" x="880.974609"/>
      <use xlink:href="#DejaVuSans-30" x="944.597656"/>
      <use xlink:href="#DejaVuSans-29" x="1008.220703"/>
     </g>
    </g>
   </g>
  </g>
 </g>
 <defs>
  <clipPath id="pb33f2c48f4">
   <rect x="46.64" y="71.732" width="366.930499" height="246.308"/>
  </clipPath>
 </defs>
</svg>
