<?xml version="1.0" encoding="utf-8" standalone="no"?>
<!DOCTYPE svg PUBLIC "-//W3C//DTD SVG 1.1//EN"
  "http://www.w3.org/Graphics/SVG/1.1/DTD/svg11.dtd">
<svg xmlns:xlink="http://www.w3.org/1999/xlink" width="432pt" height="360pt" viewBox="0 0 432 360" xmlns="http://www.w3.org/2000/svg" version="1.1">
 <metadata>
  <rdf:RDF xmlns:dc="http://purl.org/dc/elements/1.1/" xmlns:cc="http://creativecommons.org/ns#" xmlns:rdf="http://www.w3.org/1999/02/22-rdf-syntax-ns#">
   <cc:Work>
    <dc:type rdf:resource="http://purl.org/dc/dcmitype/StillImage"/>
    <dc:date>2022-05-19T11:51:47.672720</dc:date>
    <dc:format>image/svg+xml</dc:format>
    <dc:creator>
     <cc:Agent>
      <dc:title>Matplotlib v3.5.1, https://matplotlib.org/</dc:title>
     </cc:Agent>
    </dc:creator>
   </cc:Work>
  </rdf:RDF>
 </metadata>
 <defs>
  <style type="text/css">*{stroke-linejoin: round; stroke-linecap: butt}</style>
 </defs>
 <g id="figure_1">
  <g id="patch_1">
   <path d="M 0 360 
L 432 360 
L 432 0 
L 0 0 
L 0 360 
z
" style="fill: none"/>
  </g>
  <g id="axes_1">
   <g id="patch_2">
    <path d="M 46.64 318.04 
L 413.570499 318.04 
L 413.570499 71.732 
L 46.64 71.732 
L 46.64 318.04 
z
" style="fill: none"/>
   </g>
   <g id="PolyCollection_1">
    <defs>
     <path id="mdafc5982e8" d="M 46.64 -136.506641 
L 46.64 -80.051083 
L 47.435945 -83.075912 
L 48.231889 -85.4518 
L 49.027834 -86.063962 
L 49.823779 -84.277425 
L 50.619723 -80.348759 
L 51.415668 -75.4812 
L 52.211613 -71.415366 
L 53.007557 -69.727694 
L 53.803502 -71.1965 
L 54.599447 -75.528253 
L 55.395392 -81.515008 
L 56.191336 -87.481613 
L 56.987281 -91.816829 
L 57.783226 -93.46523 
L 58.57917 -92.294748 
L 59.375115 -89.163762 
L 60.17106 -85.538402 
L 60.967004 -82.821557 
L 61.762949 -81.788015 
L 62.558894 -82.399799 
L 63.354838 -83.999964 
L 64.150783 -85.686584 
L 64.946728 -86.659885 
L 65.742672 -86.454641 
L 66.538617 -85.03576 
L 67.334562 -82.723826 
L 68.130506 -79.968046 
L 68.926451 -77.107716 
L 69.722396 -74.292155 
L 70.51834 -71.588935 
L 71.314285 -69.154549 
L 72.11023 -67.334759 
L 72.906175 -66.655868 
L 73.702119 -67.711342 
L 74.498064 -70.924672 
L 75.294009 -76.20631 
L 76.089953 -82.677238 
L 76.885898 -88.725466 
L 77.681843 -92.499493 
L 78.477787 -92.611077 
L 79.273732 -88.659183 
L 80.069677 -81.372011 
L 80.865621 -72.403952 
L 81.661566 -63.904984 
L 82.457511 -57.985986 
L 83.253455 -56.167497 
L 84.0494 -58.875235 
L 84.845345 -65.159671 
L 85.641289 -72.900257 
L 86.437234 -79.532062 
L 87.233179 -82.963472 
L 88.029124 -82.229523 
L 88.825068 -77.670404 
L 89.621013 -70.729892 
L 90.416958 -63.539885 
L 91.212902 -58.351344 
L 92.008847 -56.844013 
L 92.804792 -59.530291 
L 93.600736 -65.582106 
L 94.396681 -73.210541 
L 95.192626 -80.397253 
L 95.98857 -85.591644 
L 96.784515 -88.087635 
L 97.58046 -88.058166 
L 98.376404 -86.372419 
L 99.172349 -84.278808 
L 99.968294 -82.977951 
L 100.764238 -83.179254 
L 101.560183 -84.842428 
L 102.356128 -87.25788 
L 103.152073 -89.424413 
L 103.948017 -90.505756 
L 104.743962 -90.124662 
L 105.539907 -88.401112 
L 106.335851 -85.827891 
L 107.131796 -83.134138 
L 107.927741 -81.168059 
L 108.723685 -80.694849 
L 109.51963 -82.097547 
L 110.315575 -85.158167 
L 111.111519 -89.081446 
L 111.907464 -92.775348 
L 112.703409 -95.270801 
L 113.499353 -96.054679 
L 114.295298 -95.115174 
L 115.091243 -92.74854 
L 115.887187 -89.374171 
L 116.683132 -85.509631 
L 117.479077 -81.827711 
L 118.275021 -79.107297 
L 119.070966 -78.008622 
L 119.866911 -78.80253 
L 120.662856 -81.233616 
L 121.4588 -84.59422 
L 122.254745 -87.949416 
L 123.05069 -90.3809 
L 123.846634 -91.173473 
L 124.642579 -89.968204 
L 125.438524 -86.896256 
L 126.234468 -82.626286 
L 127.030413 -78.253812 
L 127.826358 -75.04485 
L 128.622302 -74.114748 
L 129.418247 -76.118292 
L 130.214192 -81.002854 
L 131.010136 -87.902089 
L 131.806081 -95.278352 
L 132.602026 -101.359143 
L 133.39797 -104.744169 
L 134.193915 -104.897381 
L 134.98986 -102.272264 
L 135.785805 -98.061355 
L 136.581749 -93.747635 
L 137.377694 -90.638426 
L 138.173639 -89.50421 
L 138.969583 -90.40638 
L 139.765528 -92.75719 
L 140.561473 -95.586229 
L 141.357417 -97.911112 
L 142.153362 -99.076277 
L 142.949307 -98.951353 
L 143.745251 -97.93876 
L 144.541196 -96.7947 
L 145.337141 -96.309784 
L 146.133085 -96.940229 
L 146.92903 -98.53501 
L 147.724975 -100.315639 
L 148.520919 -101.17017 
L 149.316864 -100.154096 
L 150.112809 -96.960125 
L 150.908753 -92.121898 
L 151.704698 -86.852036 
L 152.500643 -82.588482 
L 153.296588 -80.446983 
L 154.092532 -80.815585 
L 154.888477 -83.259306 
L 155.684422 -86.742715 
L 156.480366 -90.036843 
L 157.276311 -92.161966 
L 158.072256 -92.75397 
L 158.8682 -92.235077 
L 159.664145 -91.689755 
L 160.46009 -92.457953 
L 161.256034 -95.598935 
L 162.051979 -101.444593 
L 162.847924 -109.409279 
L 163.643868 -118.109304 
L 164.439813 -125.749055 
L 165.235758 -130.662784 
L 166.031702 -131.845105 
L 166.827647 -129.290052 
L 167.623592 -124.015106 
L 168.419537 -117.745575 
L 169.215481 -112.344007 
L 170.011426 -109.1788 
L 170.807371 -108.684099 
L 171.603315 -110.29312 
L 172.39926 -112.748149 
L 173.195205 -114.618472 
L 173.991149 -114.798295 
L 174.787094 -112.825316 
L 175.583039 -108.969598 
L 176.378983 -104.095047 
L 177.174928 -99.311414 
L 177.970873 -95.512837 
L 178.766817 -93.016554 
L 179.562762 -91.518683 
L 180.358707 -90.410553 
L 181.154651 -89.240359 
L 181.950596 -87.977391 
L 182.746541 -86.927656 
L 183.542485 -86.459409 
L 184.33843 -86.774962 
L 185.134375 -87.831166 
L 185.93032 -89.368122 
L 186.726264 -90.968707 
L 187.522209 -92.141234 
L 188.318154 -92.469942 
L 189.114098 -91.816414 
L 189.910043 -90.454993 
L 190.705988 -89.021143 
L 191.501932 -88.267142 
L 192.297877 -88.745947 
L 193.093822 -90.578558 
L 193.889766 -93.410634 
L 194.685711 -96.581308 
L 195.481656 -99.432011 
L 196.2776 -101.602399 
L 197.073545 -103.158029 
L 197.86949 -104.49805 
L 198.665434 -106.122657 
L 199.461379 -108.395363 
L 200.257324 -111.391336 
L 201.053269 -114.843309 
L 201.849213 -118.17526 
L 202.645158 -120.654044 
L 203.441103 -121.671257 
L 204.237047 -121.053096 
L 205.032992 -119.214028 
L 205.828937 -117.035737 
L 206.624881 -115.522342 
L 207.420826 -115.412254 
L 208.216771 -116.923325 
L 209.012715 -119.698397 
L 209.80866 -122.916864 
L 210.604605 -125.5257 
L 211.400549 -126.559869 
L 212.196494 -125.476248 
L 212.992439 -122.357598 
L 213.788383 -117.857014 
L 214.584328 -112.882383 
L 215.380273 -108.183249 
L 216.176218 -104.06249 
L 216.972162 -100.344483 
L 217.768107 -96.581985 
L 218.564052 -92.391093 
L 219.359996 -87.783609 
L 220.155941 -83.361872 
L 220.951886 -80.243122 
L 221.74783 -79.658629 
L 222.543775 -82.35892 
L 223.33972 -88.127761 
L 224.135664 -95.693265 
L 224.931609 -103.111046 
L 225.727554 -108.438343 
L 226.523498 -110.401229 
L 227.319443 -108.820319 
L 228.115388 -104.683053 
L 228.911332 -99.837891 
L 229.707277 -96.368573 
L 230.503222 -95.830647 
L 231.299166 -98.643947 
L 232.095111 -103.912387 
L 232.891056 -109.758643 
L 233.687001 -114.03621 
L 234.482945 -115.145314 
L 235.27889 -112.658718 
L 236.074835 -107.517387 
L 236.870779 -101.681358 
L 237.666724 -97.344518 
L 238.462669 -96.056854 
L 239.258613 -98.161841 
L 240.054558 -102.784666 
L 240.850503 -108.308924 
L 241.646447 -113.051337 
L 242.442392 -115.834212 
L 243.238337 -116.299874 
L 244.034281 -114.932785 
L 244.830226 -112.815429 
L 245.626171 -111.202017 
L 246.422115 -111.055824 
L 247.21806 -112.721473 
L 248.014005 -115.858526 
L 248.80995 -119.649439 
L 249.605894 -123.168238 
L 250.401839 -125.732802 
L 251.197784 -127.100499 
L 251.993728 -127.472564 
L 252.789673 -127.370236 
L 253.585618 -127.467723 
L 254.381562 -128.417617 
L 255.177507 -130.668563 
L 255.973452 -134.312441 
L 256.769396 -139.045887 
L 257.565341 -144.294773 
L 258.361286 -149.433416 
L 259.15723 -153.937998 
L 259.953175 -157.378965 
L 260.74912 -159.344059 
L 261.545064 -159.454666 
L 262.341009 -157.506948 
L 263.136954 -153.624666 
L 263.932898 -148.315582 
L 264.728843 -142.421432 
L 265.524788 -137.000311 
L 266.320733 -133.154222 
L 267.116677 -131.795593 
L 267.912622 -133.389164 
L 268.708567 -137.766557 
L 269.504511 -144.106868 
L 270.300456 -151.101473 
L 271.096401 -157.252211 
L 271.892345 -161.23396 
L 272.68829 -162.248799 
L 273.484235 -160.277461 
L 274.280179 -156.125829 
L 275.076124 -151.210708 
L 275.872069 -147.123343 
L 276.668013 -145.108519 
L 277.463958 -145.657766 
L 278.259903 -148.395762 
L 279.055847 -152.30817 
L 279.851792 -156.168899 
L 280.647737 -158.941928 
L 281.443682 -160.037364 
L 282.239626 -159.436404 
L 283.035571 -157.71551 
L 283.831516 -155.930302 
L 284.62746 -155.288391 
L 285.423405 -156.658663 
L 286.21935 -160.160585 
L 287.015294 -165.103455 
L 287.811239 -170.320885 
L 288.607184 -174.671557 
L 289.403128 -177.413525 
L 290.199073 -178.341163 
L 290.995018 -177.746341 
L 291.790962 -176.261963 
L 292.586907 -174.601483 
L 293.382852 -173.265544 
L 294.178796 -172.372201 
L 294.974741 -171.723083 
L 295.770686 -171.038695 
L 296.56663 -170.159729 
L 297.362575 -169.081512 
L 298.15852 -167.881041 
L 298.954465 -166.662701 
L 299.750409 -165.528368 
L 300.546354 -164.486019 
L 301.342299 -163.320558 
L 302.138243 -161.593037 
L 302.934188 -158.872479 
L 303.730133 -155.093266 
L 304.526077 -150.774798 
L 305.322022 -146.895847 
L 306.117967 -144.475721 
L 306.913911 -144.12756 
L 307.709856 -145.810355 
L 308.505801 -148.828966 
L 309.301745 -152.032098 
L 310.09769 -154.163199 
L 310.893635 -154.300023 
L 311.689579 -152.230261 
L 312.485524 -148.564336 
L 313.281469 -144.493429 
L 314.077414 -141.313126 
L 314.873358 -139.963471 
L 315.669303 -140.76809 
L 316.465248 -143.390219 
L 317.261192 -146.953309 
L 318.057137 -150.308937 
L 318.853082 -152.419761 
L 319.649026 -152.728319 
L 320.444971 -151.330074 
L 321.240916 -148.85294 
L 322.03686 -146.122366 
L 322.832805 -143.815038 
L 323.62875 -142.264283 
L 324.424694 -141.429026 
L 325.220639 -140.950241 
L 326.016584 -140.268213 
L 326.812528 -138.827027 
L 327.608473 -136.330836 
L 328.404418 -132.911757 
L 329.200363 -129.074243 
L 329.996307 -125.437145 
L 330.792252 -122.453127 
L 331.588197 -120.279969 
L 332.384141 -118.827979 
L 333.180086 -117.867867 
L 333.976031 -117.092638 
L 334.771975 -116.154965 
L 335.56792 -114.760669 
L 336.363865 -112.807888 
L 337.159809 -110.460812 
L 337.955754 -108.085363 
L 338.751699 -106.096969 
L 339.547643 -104.813965 
L 340.343588 -104.35458 
L 341.139533 -104.573631 
L 341.935477 -105.06257 
L 342.731422 -105.269013 
L 343.527367 -104.738186 
L 344.323311 -103.353573 
L 345.119256 -101.411362 
L 345.915201 -99.492987 
L 346.711146 -98.245663 
L 347.50709 -98.185628 
L 348.303035 -99.564413 
L 349.09898 -102.293808 
L 349.894924 -105.930716 
L 350.690869 -109.742783 
L 351.486814 -112.867723 
L 352.282758 -114.538155 
L 353.078703 -114.303308 
L 353.874648 -112.167071 
L 354.670592 -108.582275 
L 355.466537 -104.293224 
L 356.262482 -100.088989 
L 357.058426 -96.574638 
L 357.854371 -94.050726 
L 358.650316 -92.525836 
L 359.44626 -91.817775 
L 360.242205 -91.666283 
L 361.03815 -91.799846 
L 361.834095 -91.954577 
L 362.630039 -91.889418 
L 363.425984 -91.438051 
L 364.221929 -90.585678 
L 365.017873 -89.511238 
L 365.813818 -88.543938 
L 366.609763 -88.036552 
L 367.405707 -88.209677 
L 368.201652 -89.045047 
L 368.997597 -90.286731 
L 369.793541 -91.532961 
L 370.589486 -92.331881 
L 371.385431 -92.248426 
L 372.181375 -90.977021 
L 372.97732 -88.534682 
L 373.773265 -85.418036 
L 374.569209 -82.554678 
L 375.365154 -80.995669 
L 376.161099 -81.470655 
L 376.957043 -84.012451 
L 377.752988 -87.815011 
L 378.548933 -91.389847 
L 379.344878 -92.998402 
L 380.140822 -91.255446 
L 380.936767 -85.704744 
L 381.732712 -77.119292 
L 382.528656 -67.359331 
L 383.324601 -58.817346 
L 384.120546 -53.661951 
L 384.91649 -53.155818 
L 385.712435 -57.269115 
L 386.50838 -64.699288 
L 387.304324 -73.282908 
L 388.100269 -80.664356 
L 388.896214 -85.001536 
L 389.692158 -85.482867 
L 390.488103 -82.503673 
L 391.284048 -77.458495 
L 392.079992 -72.218141 
L 392.875937 -68.474444 
L 393.671882 -67.212234 
L 394.467827 -68.526676 
L 395.263771 -71.818879 
L 396.059716 -76.176203 
L 396.855661 -80.67429 
L 397.651605 -84.504406 
L 398.44755 -87.029922 
L 399.243495 -87.88472 
L 400.039439 -87.07964 
L 400.835384 -84.993685 
L 401.631329 -82.229344 
L 402.427273 -79.454742 
L 403.223218 -77.32316 
L 404.019163 -76.42555 
L 404.815107 -77.193172 
L 405.611052 -79.751615 
L 406.406997 -83.80601 
L 407.202941 -88.626134 
L 407.998886 -93.15108 
L 408.794831 -96.219533 
L 409.590775 -96.920549 
L 410.38672 -94.969995 
L 411.182665 -90.897842 
L 411.97861 -85.878057 
L 412.774554 -81.285482 
L 413.570499 -78.247097 
L 413.570499 -184.860925 
L 413.570499 -184.860925 
L 412.774554 -186.487852 
L 411.97861 -189.606332 
L 411.182665 -193.239872 
L 410.38672 -196.360383 
L 409.590775 -198.187785 
L 408.794831 -198.323555 
L 407.998886 -196.798798 
L 407.202941 -194.073092 
L 406.406997 -190.914519 
L 405.611052 -188.143878 
L 404.815107 -186.361829 
L 404.019163 -185.798516 
L 403.223218 -186.320882 
L 402.427273 -187.540446 
L 401.631329 -188.959312 
L 400.835384 -190.116861 
L 400.039439 -190.687035 
L 399.243495 -190.469147 
L 398.44755 -189.29765 
L 397.651605 -187.017508 
L 396.855661 -183.639155 
L 396.059716 -179.567052 
L 395.263771 -175.654721 
L 394.467827 -172.960644 
L 393.671882 -172.327902 
L 392.875937 -174.032898 
L 392.079992 -177.647837 
L 391.284048 -182.106347 
L 390.488103 -185.926676 
L 389.692158 -187.578906 
L 388.896214 -185.959165 
L 388.100269 -180.842358 
L 387.304324 -173.115026 
L 386.50838 -164.635214 
L 385.712435 -157.718791 
L 384.91649 -154.414053 
L 384.120546 -155.820925 
L 383.324601 -161.710838 
L 382.528656 -170.599671 
L 381.732712 -180.245645 
L 380.936767 -188.372855 
L 380.140822 -193.351172 
L 379.344878 -194.615793 
L 378.548933 -192.72681 
L 377.752988 -189.079035 
L 376.957043 -185.361628 
L 376.161099 -182.955119 
L 375.365154 -182.499546 
L 374.569209 -183.796084 
L 373.773265 -186.034961 
L 372.97732 -188.199644 
L 372.181375 -189.470069 
L 371.385431 -189.505434 
L 370.589486 -188.543812 
L 369.793541 -187.279882 
L 368.997597 -186.529994 
L 368.201652 -186.816092 
L 367.405707 -188.110884 
L 366.609763 -189.90819 
L 365.813818 -191.538066 
L 365.017873 -192.498685 
L 364.221929 -192.631692 
L 363.425984 -192.101459 
L 362.630039 -191.245682 
L 361.834095 -190.412037 
L 361.03815 -189.870227 
L 360.242205 -189.811075 
L 359.44626 -190.380386 
L 358.650316 -191.692289 
L 357.854371 -193.804571 
L 357.058426 -196.672361 
L 356.262482 -200.107481 
L 355.466537 -203.765463 
L 354.670592 -207.172274 
L 353.874648 -209.793803 
L 353.078703 -211.14399 
L 352.282758 -210.917034 
L 351.486814 -209.109818 
L 350.690869 -206.080852 
L 349.894924 -202.495885 
L 349.09898 -199.152245 
L 348.303035 -196.733743 
L 347.50709 -195.591314 
L 346.711146 -195.64947 
L 345.915201 -196.493571 
L 345.119256 -197.602771 
L 344.323311 -198.603442 
L 343.527367 -199.39671 
L 342.731422 -200.099058 
L 341.935477 -200.880619 
L 341.139533 -201.852106 
L 340.343588 -203.053233 
L 339.547643 -204.47348 
L 338.751699 -206.048972 
L 337.955754 -207.661035 
L 337.159809 -209.177599 
L 336.363865 -210.519042 
L 335.56792 -211.689634 
L 334.771975 -212.760793 
L 333.976031 -213.862287 
L 333.180086 -215.21276 
L 332.384141 -217.119686 
L 331.588197 -219.864061 
L 330.792252 -223.5124 
L 329.996307 -227.810773 
L 329.200363 -232.256222 
L 328.404418 -236.280812 
L 327.608473 -239.416543 
L 326.812528 -241.384281 
L 326.016584 -242.151653 
L 325.220639 -242.003349 
L 324.424694 -241.560683 
L 323.62875 -241.630718 
L 322.832805 -242.870898 
L 322.03686 -245.435227 
L 321.240916 -248.832286 
L 320.444971 -252.087146 
L 319.649026 -254.100588 
L 318.853082 -254.035108 
L 318.057137 -251.618738 
L 317.261192 -247.307451 
L 316.465248 -242.238129 
L 315.669303 -237.916892 
L 314.873358 -235.692515 
L 314.077414 -236.219718 
L 313.281469 -239.188268 
L 312.485524 -243.465576 
L 311.689579 -247.551063 
L 310.893635 -250.103785 
L 310.09769 -250.359696 
L 309.301745 -248.357967 
L 308.505801 -244.92904 
L 307.709856 -241.412025 
L 306.913911 -239.163272 
L 306.117967 -239.058962 
L 305.322022 -241.236182 
L 304.526077 -245.169382 
L 303.730133 -249.958379 
L 302.934188 -254.631135 
L 302.138243 -258.38174 
L 301.342299 -260.769886 
L 300.546354 -261.852301 
L 299.750409 -262.135971 
L 298.954465 -262.310216 
L 298.15852 -262.883559 
L 297.362575 -263.968171 
L 296.56663 -265.370215 
L 295.770686 -266.872493 
L 294.974741 -268.430287 
L 294.178796 -270.136659 
L 293.382852 -272.054753 
L 292.586907 -274.084254 
L 291.790962 -275.919307 
L 290.995018 -277.072182 
L 290.199073 -276.969861 
L 289.403128 -275.161284 
L 288.607184 -271.590083 
L 287.811239 -266.759465 
L 287.015294 -261.626673 
L 286.21935 -257.263058 
L 285.423405 -254.493206 
L 284.62746 -253.672883 
L 283.831516 -254.597718 
L 283.035571 -256.499387 
L 282.239626 -258.181056 
L 281.443682 -258.377845 
L 280.647737 -256.280576 
L 279.851792 -251.960503 
L 279.055847 -246.421864 
L 278.259903 -241.222242 
L 277.463958 -237.861925 
L 276.668013 -237.253732 
L 275.872069 -239.467435 
L 275.076124 -243.750908 
L 274.280179 -248.752367 
L 273.484235 -252.877891 
L 272.68829 -254.714082 
L 271.892345 -253.41954 
L 271.096401 -248.977817 
L 270.300456 -242.227115 
L 269.504511 -234.640216 
L 268.708567 -227.912537 
L 267.912622 -223.495351 
L 267.116677 -222.233092 
L 266.320733 -224.201841 
L 265.524788 -228.7537 
L 264.728843 -234.725135 
L 263.932898 -240.757668 
L 263.136954 -245.648454 
L 262.341009 -248.610416 
L 261.545064 -249.349594 
L 260.74912 -247.97553 
L 259.953175 -244.858822 
L 259.15723 -240.532523 
L 258.361286 -235.622689 
L 257.565341 -230.740339 
L 256.769396 -226.350266 
L 255.973452 -222.720885 
L 255.177507 -219.988919 
L 254.381562 -218.229581 
L 253.585618 -217.4199 
L 252.789673 -217.319968 
L 251.993728 -217.412125 
L 251.197784 -217.018308 
L 250.401839 -215.575589 
L 249.605894 -212.919854 
L 248.80995 -209.417705 
L 248.014005 -205.876805 
L 247.21806 -203.267892 
L 246.422115 -202.355187 
L 245.626171 -203.358102 
L 244.830226 -205.770294 
L 244.034281 -208.433825 
L 243.238337 -209.893437 
L 242.442392 -208.945047 
L 241.646447 -205.177238 
L 240.850503 -199.250509 
L 240.054558 -192.734245 
L 239.258613 -187.531447 
L 238.462669 -185.152963 
L 237.666724 -186.171456 
L 236.870779 -190.044108 
L 236.074835 -195.307407 
L 235.27889 -200.048074 
L 234.482945 -202.519606 
L 233.687001 -201.745126 
L 232.891056 -197.903715 
L 232.095111 -192.306489 
L 231.299166 -186.917348 
L 230.503222 -183.596653 
L 229.707277 -183.3791 
L 228.911332 -186.067894 
L 228.115388 -190.291637 
L 227.319443 -194.010004 
L 226.523498 -195.298113 
L 225.727554 -193.104979 
L 224.931609 -187.652215 
L 224.135664 -180.29477 
L 223.33972 -172.944327 
L 222.543775 -167.365705 
L 221.74783 -164.650265 
L 220.951886 -165.005534 
L 220.155941 -167.848706 
L 219.359996 -172.126426 
L 218.564052 -176.757396 
L 217.768107 -181.04936 
L 216.972162 -184.906193 
L 216.176218 -188.711883 
L 215.380273 -192.960408 
L 214.584328 -197.854237 
L 213.788383 -203.092826 
L 212.992439 -207.934647 
L 212.196494 -211.470825 
L 211.400549 -212.986452 
L 210.604605 -212.284397 
L 209.80866 -209.849361 
L 209.012715 -206.749076 
L 208.216771 -204.258498 
L 207.420826 -203.344972 
L 206.624881 -204.269273 
L 205.828937 -206.514972 
L 205.032992 -209.057798 
L 204.237047 -210.799767 
L 203.441103 -210.959054 
L 202.645158 -209.293547 
L 201.849213 -206.135667 
L 201.053269 -202.25703 
L 200.257324 -198.584712 
L 199.461379 -195.833594 
L 198.665434 -194.208271 
L 197.86949 -193.350446 
L 197.073545 -192.573511 
L 196.2776 -191.235016 
L 195.481656 -189.030994 
L 194.685711 -186.084758 
L 193.889766 -182.842238 
L 193.093822 -179.870697 
L 192.297877 -177.654266 
L 191.501932 -176.440286 
L 190.705988 -176.170535 
L 189.910043 -176.515418 
L 189.114098 -176.993221 
L 188.318154 -177.129894 
L 187.522209 -176.620683 
L 186.726264 -175.454775 
L 185.93032 -173.9352 
L 185.134375 -172.534594 
L 184.33843 -171.629429 
L 183.542485 -171.28257 
L 182.746541 -171.249368 
L 181.950596 -171.215734 
L 181.154651 -171.085223 
L 180.358707 -171.092555 
L 179.562762 -171.666754 
L 178.766817 -173.186569 
L 177.970873 -175.830501 
L 177.174928 -179.544817 
L 176.378983 -184.022159 
L 175.583039 -188.666595 
L 174.787094 -192.644496 
L 173.991149 -195.11986 
L 173.195205 -195.626055 
L 172.39926 -194.36372 
L 171.603315 -192.222748 
L 170.807371 -190.496048 
L 170.011426 -190.41227 
L 169.215481 -192.667308 
L 168.419537 -197.109381 
L 167.623592 -202.68387 
L 166.827647 -207.686848 
L 166.031702 -210.29289 
L 165.235758 -209.20331 
L 164.439813 -204.163318 
L 163.643868 -196.115626 
L 162.847924 -186.902989 
L 162.051979 -178.61977 
L 161.256034 -172.862085 
L 160.46009 -170.181877 
L 159.664145 -169.968529 
L 158.8682 -170.785788 
L 158.072256 -171.000169 
L 157.276311 -169.447565 
L 156.480366 -165.896027 
L 155.684422 -161.136088 
L 154.888477 -156.649752 
L 154.092532 -153.973839 
L 153.296588 -154.03944 
L 152.500643 -156.804788 
L 151.704698 -161.323263 
L 150.908753 -166.152691 
L 150.112809 -169.897099 
L 149.316864 -171.671873 
L 148.520919 -171.341205 
L 147.724975 -169.477203 
L 146.92903 -167.095806 
L 146.133085 -165.278964 
L 145.337141 -164.794268 
L 144.541196 -165.817858 
L 143.745251 -167.862648 
L 142.949307 -169.972778 
L 142.153362 -171.139239 
L 141.357417 -170.762914 
L 140.561473 -168.94313 
L 139.765528 -166.453448 
L 138.969583 -164.421813 
L 138.173639 -163.860942 
L 137.377694 -165.241356 
L 136.581749 -168.268334 
L 135.785805 -171.947159 
L 134.98986 -174.91917 
L 134.193915 -175.941988 
L 133.39797 -174.313614 
L 132.602026 -170.064329 
L 131.806081 -163.886182 
L 131.010136 -156.923688 
L 130.214192 -150.532347 
L 129.418247 -145.991793 
L 128.622302 -144.165348 
L 127.826358 -145.211483 
L 127.030413 -148.505278 
L 126.234468 -152.843268 
L 125.438524 -156.845528 
L 124.642579 -159.376326 
L 123.846634 -159.840556 
L 123.05069 -158.29758 
L 122.254745 -155.380871 
L 121.4588 -152.037541 
L 120.662856 -149.173403 
L 119.866911 -147.376467 
L 119.070966 -146.854108 
L 118.275021 -147.546154 
L 117.479077 -149.257381 
L 116.683132 -151.690104 
L 115.887187 -154.389182 
L 115.091243 -156.734958 
L 114.295298 -158.097321 
L 113.499353 -158.078796 
L 112.703409 -156.650113 
L 111.907464 -154.075436 
L 111.111519 -150.737306 
L 110.315575 -147.063249 
L 109.51963 -143.582717 
L 108.723685 -140.949221 
L 107.927741 -139.803021 
L 107.131796 -140.497654 
L 106.335851 -142.832363 
L 105.539907 -146.010059 
L 104.743962 -148.946153 
L 103.948017 -150.756985 
L 103.152073 -151.108521 
L 102.356128 -150.263989 
L 101.560183 -148.888026 
L 100.764238 -147.754121 
L 99.968294 -147.458791 
L 99.172349 -148.179773 
L 98.376404 -149.517187 
L 97.58046 -150.508553 
L 96.784515 -149.918315 
L 95.98857 -146.768887 
L 95.192626 -140.863289 
L 94.396681 -132.990349 
L 93.600736 -124.701258 
L 92.804792 -117.813094 
L 92.008847 -113.877579 
L 91.212902 -113.738708 
L 90.416958 -117.216048 
L 89.621013 -122.995951 
L 88.825068 -128.888946 
L 88.029124 -132.530865 
L 87.233179 -132.290784 
L 86.437234 -127.917422 
L 85.641289 -120.607579 
L 84.845345 -112.546916 
L 84.0494 -106.213723 
L 83.253455 -103.680112 
L 82.457511 -105.994531 
L 81.661566 -112.761455 
L 80.865621 -122.154232 
L 80.069677 -131.501299 
L 79.273732 -138.234388 
L 78.477787 -140.75061 
L 77.681843 -138.823175 
L 76.885898 -133.447104 
L 76.089953 -126.291505 
L 75.294009 -119.103288 
L 74.498064 -113.290269 
L 73.702119 -109.679205 
L 72.906175 -108.415233 
L 72.11023 -109.056148 
L 71.314285 -110.880833 
L 70.51834 -113.264106 
L 69.722396 -115.884525 
L 68.926451 -118.665884 
L 68.130506 -121.567698 
L 67.334562 -124.417566 
L 66.538617 -126.881175 
L 65.742672 -128.553203 
L 64.946728 -129.130061 
L 64.150783 -128.616669 
L 63.354838 -127.452711 
L 62.558894 -126.415423 
L 61.762949 -126.28693 
L 60.967004 -127.473038 
L 60.17106 -129.802642 
L 59.375115 -132.586582 
L 58.57917 -134.855472 
L 57.783226 -135.655012 
L 56.987281 -134.350846 
L 56.191336 -130.940781 
L 55.395392 -126.229776 
L 54.599447 -121.637907 
L 53.803502 -118.655792 
L 53.007557 -118.253703 
L 52.211613 -120.556572 
L 51.415668 -124.879849 
L 50.619723 -130.026541 
L 49.823779 -134.683946 
L 49.027834 -137.803661 
L 48.231889 -138.904433 
L 47.435945 -138.208581 
L 46.64 -136.506641 
z
" style="stroke: #e41a1c; stroke-opacity: 0.3"/>
    </defs>
    <g clip-path="url(#pd083913043)">
     <use xlink:href="#mdafc5982e8" x="0" y="360" style="fill: #e41a1c; fill-opacity: 0.3; stroke: #e41a1c; stroke-opacity: 0.3"/>
    </g>
   </g>
   <g id="PolyCollection_2">
    <defs>
     <path id="mab2aec590d" d="M 46.64 -120.202884 
L 46.64 -96.605875 
L 47.435945 -96.275718 
L 48.231889 -96.228261 
L 49.027834 -96.357189 
L 49.823779 -96.541074 
L 50.619723 -96.692675 
L 51.415668 -96.794681 
L 52.211613 -96.884523 
L 53.007557 -96.985938 
L 53.803502 -97.043688 
L 54.599447 -96.926517 
L 55.395392 -96.507322 
L 56.191336 -95.758545 
L 56.987281 -94.783496 
L 57.783226 -93.765482 
L 58.57917 -92.880965 
L 59.375115 -92.224798 
L 60.17106 -91.769426 
L 60.967004 -91.369625 
L 61.762949 -90.822249 
L 62.558894 -89.969612 
L 63.354838 -88.796712 
L 64.150783 -87.462974 
L 64.946728 -86.252044 
L 65.742672 -85.47152 
L 66.538617 -85.351475 
L 67.334562 -85.984004 
L 68.130506 -87.31782 
L 68.926451 -89.181255 
L 69.722396 -91.304054 
L 70.51834 -93.349019 
L 71.314285 -94.975928 
L 72.11023 -95.93006 
L 72.906175 -96.124851 
L 73.702119 -95.681095 
L 74.498064 -94.889417 
L 75.294009 -94.097403 
L 76.089953 -93.573652 
L 76.885898 -93.414933 
L 77.681843 -93.531864 
L 78.477787 -93.705369 
L 79.273732 -93.672704 
L 80.069677 -93.197217 
L 80.865621 -92.107701 
L 81.661566 -90.327098 
L 82.457511 -87.907672 
L 83.253455 -85.057267 
L 84.0494 -82.117384 
L 84.845345 -79.474976 
L 85.641289 -77.443052 
L 86.437234 -76.171151 
L 87.233179 -75.622994 
L 88.029124 -75.615889 
L 88.825068 -75.889739 
L 89.621013 -76.175976 
L 90.416958 -76.253082 
L 91.212902 -75.983184 
L 92.008847 -75.326566 
L 92.804792 -74.338064 
L 93.600736 -73.152395 
L 94.396681 -71.956077 
L 95.192626 -70.938966 
L 95.98857 -70.237299 
L 96.784515 -69.90187 
L 97.58046 -69.916542 
L 98.376404 -70.256695 
L 99.172349 -70.942881 
L 99.968294 -72.044052 
L 100.764238 -73.626839 
L 101.560183 -75.690684 
L 102.356128 -78.128635 
L 103.152073 -80.726063 
L 103.948017 -83.192475 
L 104.743962 -85.21914 
L 105.539907 -86.548371 
L 106.335851 -87.027524 
L 107.131796 -86.625762 
L 107.927741 -85.420609 
L 108.723685 -83.581296 
L 109.51963 -81.363446 
L 110.315575 -79.10239 
L 111.111519 -77.179753 
L 111.907464 -75.951045 
L 112.703409 -75.650354 
L 113.499353 -76.309768 
L 114.295298 -77.730445 
L 115.091243 -79.521633 
L 115.887187 -81.198047 
L 116.683132 -82.309025 
L 117.479077 -82.566373 
L 118.275021 -81.935637 
L 119.070966 -80.657281 
L 119.866911 -79.176584 
L 120.662856 -77.990963 
L 121.4588 -77.467136 
L 122.254745 -77.710522 
L 123.05069 -78.54945 
L 123.846634 -79.629899 
L 124.642579 -80.559993 
L 125.438524 -81.042856 
L 126.234468 -80.965049 
L 127.030413 -80.423464 
L 127.826358 -79.678221 
L 128.622302 -79.033915 
L 129.418247 -78.686111 
L 130.214192 -78.607141 
L 131.010136 -78.543505 
L 131.806081 -78.139608 
L 132.602026 -77.127509 
L 133.39797 -75.485708 
L 134.193915 -73.492229 
L 134.98986 -71.651075 
L 135.785805 -70.521494 
L 136.581749 -70.515238 
L 137.377694 -71.7426 
L 138.173639 -73.968863 
L 138.969583 -76.689215 
L 139.765528 -79.277863 
L 140.561473 -81.155451 
L 141.357417 -81.938413 
L 142.153362 -81.543426 
L 142.949307 -80.211547 
L 143.745251 -78.423898 
L 144.541196 -76.73 
L 145.337141 -75.566244 
L 146.133085 -75.144233 
L 146.92903 -75.434361 
L 147.724975 -76.216362 
L 148.520919 -77.160209 
L 149.316864 -77.923344 
L 150.112809 -78.256565 
L 150.908753 -78.09015 
L 151.704698 -77.563118 
L 152.500643 -76.987399 
L 153.296588 -76.773241 
L 154.092532 -77.342331 
L 154.888477 -79.031056 
L 155.684422 -81.979301 
L 156.480366 -86.026978 
L 157.276311 -90.67125 
L 158.072256 -95.131076 
L 158.8682 -98.522755 
L 159.664145 -100.103707 
L 160.46009 -99.51316 
L 161.256034 -96.929283 
L 162.051979 -93.075312 
L 162.847924 -89.04977 
L 163.643868 -86.020096 
L 164.439813 -84.874119 
L 165.235758 -85.941514 
L 166.031702 -88.876676 
L 166.827647 -92.750438 
L 167.623592 -96.337331 
L 168.419537 -98.513215 
L 169.215481 -98.623171 
L 170.011426 -96.680745 
L 170.807371 -93.328007 
L 171.603315 -89.584993 
L 172.39926 -86.491711 
L 173.195205 -84.768353 
L 173.991149 -84.600579 
L 174.787094 -85.616145 
L 175.583039 -87.058847 
L 176.378983 -88.09127 
L 177.174928 -88.102259 
L 177.970873 -86.896353 
L 178.766817 -84.703641 
L 179.562762 -82.03193 
L 180.358707 -79.443269 
L 181.154651 -77.352968 
L 181.950596 -75.925343 
L 182.746541 -75.090165 
L 183.542485 -74.647439 
L 184.33843 -74.393035 
L 185.134375 -74.203189 
L 185.93032 -74.05192 
L 186.726264 -73.971006 
L 187.522209 -73.980336 
L 188.318154 -74.024014 
L 189.114098 -73.95137 
L 189.910043 -73.56965 
L 190.705988 -72.753425 
L 191.501932 -71.542649 
L 192.297877 -70.149304 
L 193.093822 -68.854793 
L 193.889766 -67.866483 
L 194.685711 -67.225791 
L 195.481656 -66.809443 
L 196.2776 -66.402366 
L 197.073545 -65.799248 
L 197.86949 -64.903753 
L 198.665434 -63.798274 
L 199.461379 -62.74761 
L 200.257324 -62.108995 
L 201.053269 -62.167875 
L 201.849213 -62.977828 
L 202.645158 -64.298397 
L 203.441103 -65.675445 
L 204.237047 -66.633263 
L 205.032992 -66.894373 
L 205.828937 -66.529711 
L 206.624881 -65.966169 
L 207.420826 -65.833717 
L 208.216771 -66.705566 
L 209.012715 -68.839772 
L 209.80866 -72.035667 
L 210.604605 -75.669543 
L 211.400549 -78.900251 
L 212.196494 -80.970649 
L 212.992439 -81.492901 
L 213.788383 -80.604549 
L 214.584328 -78.926238 
L 215.380273 -77.332254 
L 216.176218 -76.62442 
L 216.972162 -77.235945 
L 217.768107 -79.072334 
L 218.564052 -81.543923 
L 219.359996 -83.781988 
L 220.155941 -84.967126 
L 220.951886 -84.647568 
L 221.74783 -82.912932 
L 222.543775 -80.341092 
L 223.33972 -77.743746 
L 224.135664 -75.836219 
L 224.931609 -74.980633 
L 225.727554 -75.095915 
L 226.523498 -75.74365 
L 227.319443 -76.332629 
L 228.115388 -76.353117 
L 228.911332 -75.551642 
L 229.707277 -73.986942 
L 230.503222 -71.960199 
L 231.299166 -69.86325 
L 232.095111 -68.011629 
L 232.891056 -66.52398 
L 233.687001 -65.292081 
L 234.482945 -64.060265 
L 235.27889 -62.588735 
L 236.074835 -60.821756 
L 236.870779 -58.963211 
L 237.666724 -57.412664 
L 238.462669 -56.602757 
L 239.258613 -56.829465 
L 240.054558 -58.149197 
L 240.850503 -60.363435 
L 241.646447 -63.073518 
L 242.442392 -65.784923 
L 243.238337 -68.042993 
L 244.034281 -69.562725 
L 244.830226 -70.295188 
L 245.626171 -70.391917 
L 246.422115 -70.087464 
L 247.21806 -69.571459 
L 248.014005 -68.919851 
L 248.80995 -68.106717 
L 249.605894 -67.068619 
L 250.401839 -65.77849 
L 251.197784 -64.299744 
L 251.993728 -62.804504 
L 252.789673 -61.544725 
L 253.585618 -60.776721 
L 254.381562 -60.664724 
L 255.177507 -61.210077 
L 255.973452 -62.246123 
L 256.769396 -63.502807 
L 257.565341 -64.704978 
L 258.361286 -65.654755 
L 259.15723 -66.267583 
L 259.953175 -66.562544 
L 260.74912 -66.626465 
L 261.545064 -66.571228 
L 262.341009 -66.492375 
L 263.136954 -66.432857 
L 263.932898 -66.367067 
L 264.728843 -66.225734 
L 265.524788 -65.960236 
L 266.320733 -65.60931 
L 267.116677 -65.317171 
L 267.912622 -65.279707 
L 268.708567 -65.645833 
L 269.504511 -66.430303 
L 270.300456 -67.481248 
L 271.096401 -68.510678 
L 271.892345 -69.172687 
L 272.68829 -69.169913 
L 273.484235 -68.364722 
L 274.280179 -66.858578 
L 275.076124 -64.999821 
L 275.872069 -63.303485 
L 276.668013 -62.304786 
L 277.463958 -62.393644 
L 278.259903 -63.680805 
L 279.055847 -65.937049 
L 279.851792 -68.633437 
L 280.647737 -71.086017 
L 281.443682 -72.669345 
L 282.239626 -73.027275 
L 283.035571 -72.202523 
L 283.831516 -70.63498 
L 284.62746 -69.025251 
L 285.423405 -68.104398 
L 286.21935 -68.38415 
L 287.015294 -69.976837 
L 287.811239 -72.557203 
L 288.607184 -75.48424 
L 289.403128 -78.032057 
L 290.199073 -79.635085 
L 290.995018 -80.059089 
L 291.790962 -79.450338 
L 292.586907 -78.259192 
L 293.382852 -77.067958 
L 294.178796 -76.379138 
L 294.974741 -76.437201 
L 295.770686 -77.151885 
L 296.56663 -78.15511 
L 297.362575 -78.968783 
L 298.15852 -79.214221 
L 298.954465 -78.776273 
L 299.750409 -77.852466 
L 300.546354 -76.865288 
L 301.342299 -76.277133 
L 302.138243 -76.392021 
L 302.934188 -77.230842 
L 303.730133 -78.527376 
L 304.526077 -79.836154 
L 305.322022 -80.700931 
L 306.117967 -80.817167 
L 306.913911 -80.129413 
L 307.709856 -78.829685 
L 308.505801 -77.261732 
L 309.301745 -75.775836 
L 310.09769 -74.599356 
L 310.893635 -73.776884 
L 311.689579 -73.197562 
L 312.485524 -72.687453 
L 313.281469 -72.119895 
L 314.077414 -71.493195 
L 314.873358 -70.941237 
L 315.669303 -70.672785 
L 316.465248 -70.867807 
L 317.261192 -71.579023 
L 318.057137 -72.683797 
L 318.853082 -73.90907 
L 319.649026 -74.92331 
L 320.444971 -75.464976 
L 321.240916 -75.460643 
L 322.03686 -75.080296 
L 322.832805 -74.689542 
L 323.62875 -74.69954 
L 324.424694 -75.375185 
L 325.220639 -76.697395 
L 326.016584 -78.350693 
L 326.812528 -79.837356 
L 327.608473 -80.655767 
L 328.404418 -80.465297 
L 329.200363 -79.188792 
L 329.996307 -77.037721 
L 330.792252 -74.460044 
L 331.588197 -72.015861 
L 332.384141 -70.203514 
L 333.180086 -69.292871 
L 333.976031 -69.24044 
L 334.771975 -69.730021 
L 335.56792 -70.318692 
L 336.363865 -70.618042 
L 337.159809 -70.434131 
L 337.955754 -69.818609 
L 338.751699 -69.021805 
L 339.547643 -68.372142 
L 340.343588 -68.133636 
L 341.139533 -68.404494 
L 341.935477 -69.099199 
L 342.731422 -70.009206 
L 343.527367 -70.898301 
L 344.323311 -71.588091 
L 345.119256 -72.014727 
L 345.915201 -72.254171 
L 346.711146 -72.509212 
L 347.50709 -73.047222 
L 348.303035 -74.096817 
L 349.09898 -75.74667 
L 349.894924 -77.900727 
L 350.690869 -80.311543 
L 351.486814 -82.667543 
L 352.282758 -84.689166 
L 353.078703 -86.198743 
L 353.874648 -87.14856 
L 354.670592 -87.605175 
L 355.466537 -87.699733 
L 356.262482 -87.569218 
L 357.058426 -87.320575 
L 357.854371 -87.034213 
L 358.650316 -86.794368 
L 359.44626 -86.714436 
L 360.242205 -86.929456 
L 361.03815 -87.550476 
L 361.834095 -88.600525 
L 362.630039 -89.96529 
L 363.425984 -91.388743 
L 364.221929 -92.527895 
L 365.017873 -93.057259 
L 365.813818 -92.79015 
L 366.609763 -91.769344 
L 367.405707 -90.282049 
L 368.201652 -88.778532 
L 368.997597 -87.715839 
L 369.793541 -87.389233 
L 370.589486 -87.827079 
L 371.385431 -88.794737 
L 372.181375 -89.895839 
L 372.97732 -90.717354 
L 373.773265 -90.965076 
L 374.569209 -90.558282 
L 375.365154 -89.663105 
L 376.161099 -88.645201 
L 376.957043 -87.939532 
L 377.752988 -87.877548 
L 378.548933 -88.548985 
L 379.344878 -89.765956 
L 380.140822 -91.142811 
L 380.936767 -92.248874 
L 381.732712 -92.767901 
L 382.528656 -92.607779 
L 383.324601 -91.926086 
L 384.120546 -91.062965 
L 384.91649 -90.406703 
L 385.712435 -90.248677 
L 386.50838 -90.687605 
L 387.304324 -91.612258 
L 388.100269 -92.752935 
L 388.896214 -93.773915 
L 389.692158 -94.381335 
L 390.488103 -94.421957 
L 391.284048 -93.939942 
L 392.079992 -93.160236 
L 392.875937 -92.397687 
L 393.671882 -91.932629 
L 394.467827 -91.907272 
L 395.263771 -92.276925 
L 396.059716 -92.825473 
L 396.855661 -93.242553 
L 397.651605 -93.246875 
L 398.44755 -92.715263 
L 399.243495 -91.760238 
L 400.039439 -90.718604 
L 400.835384 -90.059448 
L 401.631329 -90.251621 
L 402.427273 -91.630223 
L 403.223218 -94.288116 
L 404.019163 -98.015086 
L 404.815107 -102.310361 
L 405.611052 -106.482963 
L 406.406997 -109.823188 
L 407.202941 -111.797698 
L 407.998886 -112.209697 
L 408.794831 -111.273362 
L 409.590775 -109.570725 
L 410.38672 -107.891706 
L 411.182665 -107.001235 
L 411.97861 -107.409642 
L 412.774554 -109.219962 
L 413.570499 -112.092728 
L 413.570499 -158.123382 
L 413.570499 -158.123382 
L 412.774554 -155.30365 
L 411.97861 -153.640383 
L 411.182665 -153.4437 
L 410.38672 -154.546527 
L 409.590775 -156.366529 
L 408.794831 -158.094414 
L 407.998886 -158.935908 
L 407.202941 -158.333813 
L 406.406997 -156.113817 
L 405.611052 -152.519651 
L 404.815107 -148.13158 
L 404.019163 -143.69691 
L 403.223218 -139.927299 
L 402.427273 -137.321205 
L 401.631329 -136.055859 
L 400.835384 -135.974716 
L 400.039439 -136.672723 
L 399.243495 -137.648285 
L 398.44755 -138.462435 
L 397.651605 -138.847456 
L 396.855661 -138.74126 
L 396.059716 -138.26136 
L 395.263771 -137.642805 
L 394.467827 -137.153941 
L 393.671882 -137.003243 
L 392.875937 -137.264822 
L 392.079992 -137.853506 
L 391.284048 -138.558332 
L 390.488103 -139.115791 
L 389.692158 -139.296553 
L 388.896214 -138.986319 
L 388.100269 -138.239396 
L 387.304324 -137.275282 
L 386.50838 -136.402532 
L 385.712435 -135.894768 
L 384.91649 -135.877347 
L 384.120546 -136.278032 
L 383.324601 -136.85771 
L 382.528656 -137.301516 
L 381.732712 -137.336019 
L 380.936767 -136.835514 
L 380.140822 -135.879036 
L 379.344878 -134.729201 
L 378.548933 -133.73553 
L 377.752988 -133.202067 
L 376.957043 -133.272677 
L 376.161099 -133.872477 
L 375.365154 -134.721774 
L 374.569209 -135.423914 
L 373.773265 -135.611799 
L 372.97732 -135.107474 
L 372.181375 -134.021515 
L 371.385431 -132.73043 
L 370.589486 -131.730417 
L 369.793541 -131.436505 
L 368.997597 -132.023737 
L 368.201652 -133.372172 
L 367.405707 -135.117853 
L 366.609763 -136.774969 
L 365.813818 -137.885795 
L 365.017873 -138.155692 
L 364.221929 -137.533746 
L 363.425984 -136.212825 
L 362.630039 -134.550226 
L 361.834095 -132.941485 
L 361.03815 -131.697652 
L 360.242205 -130.970436 
L 359.44626 -130.744029 
L 358.650316 -130.88204 
L 357.854371 -131.198425 
L 357.058426 -131.519862 
L 356.262482 -131.719439 
L 355.466537 -131.71798 
L 354.670592 -131.462411 
L 353.874648 -130.899004 
L 353.078703 -129.962833 
L 352.282758 -128.597951 
L 351.486814 -126.802441 
L 350.690869 -124.669884 
L 349.894924 -122.395182 
L 349.09898 -120.233634 
L 348.303035 -118.428835 
L 347.50709 -117.136933 
L 346.711146 -116.371773 
L 345.915201 -115.990425 
L 345.119256 -115.73621 
L 344.323311 -115.34125 
L 343.527367 -114.652209 
L 342.731422 -113.710648 
L 341.935477 -112.734996 
L 341.139533 -112.010545 
L 340.343588 -111.749896 
L 339.547643 -111.996372 
L 338.751699 -112.607565 
L 337.955754 -113.313633 
L 337.159809 -113.823064 
L 336.363865 -113.940895 
L 335.56792 -113.658679 
L 334.771975 -113.178143 
L 333.976031 -112.853219 
L 333.180086 -113.070191 
L 332.384141 -114.109121 
L 331.588197 -116.029804 
L 330.792252 -118.614832 
L 329.996307 -121.395079 
L 329.200363 -123.770961 
L 328.404418 -125.20681 
L 327.608473 -125.424922 
L 326.812528 -124.506755 
L 326.016584 -122.850182 
L 325.220639 -121.007662 
L 324.424694 -119.486819 
L 323.62875 -118.596653 
L 322.832805 -118.381117 
L 322.03686 -118.639955 
L 321.240916 -119.018379 
L 320.444971 -119.142115 
L 319.649026 -118.762227 
L 318.853082 -117.856191 
L 318.057137 -116.635167 
L 317.261192 -115.44817 
L 316.465248 -114.627732 
L 315.669303 -114.351694 
L 314.873358 -114.585082 
L 314.077414 -115.123983 
L 313.281469 -115.71425 
L 312.485524 -116.185088 
L 311.689579 -116.533285 
L 310.893635 -116.91766 
L 310.09769 -117.565103 
L 309.301745 -118.632795 
L 308.505801 -120.094659 
L 307.709856 -121.709951 
L 306.913911 -123.093417 
L 306.117967 -123.860758 
L 305.322022 -123.790478 
L 304.526077 -122.93327 
L 303.730133 -121.615917 
L 302.934188 -120.328075 
L 302.138243 -119.534392 
L 301.342299 -119.492827 
L 300.546354 -120.157973 
L 299.750409 -121.207629 
L 298.954465 -122.17775 
L 298.15852 -122.650983 
L 297.362575 -122.427181 
L 296.56663 -121.609941 
L 295.770686 -120.571018 
L 294.974741 -119.800253 
L 294.178796 -119.696492 
L 293.382852 -120.382924 
L 292.586907 -121.625107 
L 291.790962 -122.893168 
L 290.995018 -123.55348 
L 290.199073 -123.118618 
L 289.403128 -121.452503 
L 288.607184 -118.841472 
L 287.811239 -115.900362 
L 287.015294 -113.356764 
L 286.21935 -111.80392 
L 285.423405 -111.510724 
L 284.62746 -112.343159 
L 283.831516 -113.813854 
L 283.035571 -115.242526 
L 282.239626 -115.976956 
L 281.443682 -115.601186 
L 280.647737 -114.061435 
L 279.851792 -111.673139 
L 279.055847 -109.015054 
L 278.259903 -106.747753 
L 277.463958 -105.411094 
L 276.668013 -105.262226 
L 275.872069 -106.207676 
L 275.076124 -107.852268 
L 274.280179 -109.641942 
L 273.484235 -111.043101 
L 272.68829 -111.697053 
L 271.892345 -111.506816 
L 271.096401 -110.636637 
L 270.300456 -109.427405 
L 269.504511 -108.258729 
L 268.708567 -107.413751 
L 267.912622 -107.003551 
L 267.116677 -106.973521 
L 266.320733 -107.168461 
L 265.524788 -107.412879 
L 264.728843 -107.575478 
L 263.932898 -107.60766 
L 263.136954 -107.551239 
L 262.341009 -107.506344 
L 261.545064 -107.560442 
L 260.74912 -107.709097 
L 259.953175 -107.82157 
L 259.15723 -107.686642 
L 258.361286 -107.120609 
L 257.565341 -106.075919 
L 256.769396 -104.689876 
L 255.973452 -103.249891 
L 255.177507 -102.096271 
L 254.381562 -101.510046 
L 253.585618 -101.630096 
L 252.789673 -102.421373 
L 251.993728 -103.696606 
L 251.197784 -105.183976 
L 250.401839 -106.622078 
L 249.605894 -107.847146 
L 248.80995 -108.829962 
L 248.014005 -109.6387 
L 247.21806 -110.346987 
L 246.422115 -110.943459 
L 245.626171 -111.297301 
L 244.830226 -111.195059 
L 244.034281 -110.424283 
L 243.238337 -108.867622 
L 242.442392 -106.580596 
L 241.646447 -103.831006 
L 240.850503 -101.071272 
L 240.054558 -98.824453 
L 239.258613 -97.510747 
L 238.462669 -97.29526 
L 237.666724 -98.043022 
L 236.870779 -99.40465 
L 236.074835 -100.977776 
L 235.27889 -102.459662 
L 234.482945 -103.733282 
L 233.687001 -104.873963 
L 232.891056 -106.087126 
L 232.095111 -107.591096 
L 231.299166 -109.475944 
L 230.503222 -111.601739 
L 229.707277 -113.604731 
L 228.911332 -115.031412 
L 228.115388 -115.546521 
L 227.319443 -115.115795 
L 226.523498 -114.073037 
L 225.727554 -113.030642 
L 224.931609 -112.65815 
L 224.135664 -113.413933 
L 223.33972 -115.345186 
L 222.543775 -118.046743 
L 221.74783 -120.7965 
L 220.951886 -122.808848 
L 220.155941 -123.51018 
L 219.359996 -122.746665 
L 218.564052 -120.857486 
L 217.768107 -118.574339 
L 216.972162 -116.759406 
L 216.176218 -116.068359 
L 215.380273 -116.677367 
L 214.584328 -118.198936 
L 213.788383 -119.828726 
L 212.992439 -120.66015 
L 212.196494 -120.035433 
L 211.400549 -117.796263 
L 210.604605 -114.341648 
L 209.80866 -110.47332 
L 209.012715 -107.090614 
L 208.216771 -104.859319 
L 207.420826 -103.989546 
L 206.624881 -104.204702 
L 205.828937 -104.897097 
L 205.032992 -105.393174 
L 204.237047 -105.219025 
L 203.441103 -104.265115 
L 202.645158 -102.79235 
L 201.849213 -101.289096 
L 201.053269 -100.252107 
L 200.257324 -99.989099 
L 199.461379 -100.516834 
L 198.665434 -101.580849 
L 197.86949 -102.780993 
L 197.073545 -103.753791 
L 196.2776 -104.332998 
L 195.481656 -104.606442 
L 194.685711 -104.836868 
L 193.889766 -105.296919 
L 193.093822 -106.122935 
L 192.297877 -107.269179 
L 191.501932 -108.562138 
L 190.705988 -109.792397 
L 189.910043 -110.787715 
L 189.114098 -111.45435 
L 188.318154 -111.793497 
L 187.522209 -111.886676 
L 186.726264 -111.845986 
L 185.93032 -111.756641 
L 185.134375 -111.657564 
L 184.33843 -111.580803 
L 183.542485 -111.619694 
L 182.746541 -111.964535 
L 181.950596 -112.862325 
L 181.154651 -114.507715 
L 180.358707 -116.91604 
L 179.562762 -119.842915 
L 178.766817 -122.800494 
L 177.970873 -125.185715 
L 177.174928 -126.487113 
L 176.378983 -126.493515 
L 175.583039 -125.416704 
L 174.787094 -123.868992 
L 173.991149 -122.68823 
L 173.195205 -122.655554 
L 172.39926 -124.195073 
L 171.603315 -127.169135 
L 170.807371 -130.867154 
L 170.011426 -134.217503 
L 169.215481 -136.153785 
L 168.419537 -135.995261 
L 167.623592 -133.698633 
L 166.827647 -129.895673 
L 166.031702 -125.708265 
L 165.235758 -122.400502 
L 164.439813 -120.977689 
L 163.643868 -121.865063 
L 162.847924 -124.778364 
L 162.051979 -128.829074 
L 161.256034 -132.81604 
L 160.46009 -135.590658 
L 159.664145 -136.373149 
L 158.8682 -134.931294 
L 158.072256 -131.585548 
L 157.276311 -127.060339 
L 156.480366 -122.246857 
L 155.684422 -117.960429 
L 154.888477 -114.759032 
L 154.092532 -112.854698 
L 153.296588 -112.121413 
L 152.500643 -112.187677 
L 151.704698 -112.584196 
L 150.908753 -112.895225 
L 150.112809 -112.860342 
L 149.316864 -112.405902 
L 148.520919 -111.626668 
L 147.724975 -110.747795 
L 146.92903 -110.07054 
L 146.133085 -109.887355 
L 145.337141 -110.376034 
L 144.541196 -111.517118 
L 143.745251 -113.076114 
L 142.949307 -114.654327 
L 142.153362 -115.783189 
L 141.357417 -116.040561 
L 140.561473 -115.179091 
L 139.765528 -113.23975 
L 138.969583 -110.590567 
L 138.173639 -107.839295 
L 137.377694 -105.635855 
L 136.581749 -104.451526 
L 135.785805 -104.434795 
L 134.98986 -105.394757 
L 134.193915 -106.901766 
L 133.39797 -108.45816 
L 132.602026 -109.675618 
L 131.806081 -110.393877 
L 131.010136 -110.69799 
L 130.214192 -110.837454 
L 129.418247 -111.091888 
L 128.622302 -111.637555 
L 127.826358 -112.45656 
L 127.030413 -113.319791 
L 126.234468 -113.86368 
L 125.438524 -113.749588 
L 124.642579 -112.843864 
L 123.846634 -111.325064 
L 123.05069 -109.649388 
L 122.254745 -108.379483 
L 121.4588 -107.959402 
L 120.662856 -108.544496 
L 119.866911 -109.949887 
L 119.070966 -111.714724 
L 118.275021 -113.247848 
L 117.479077 -114.014191 
L 116.683132 -113.709834 
L 115.887187 -112.365113 
L 115.091243 -110.333725 
L 114.295298 -108.171636 
L 113.499353 -106.456933 
L 112.703409 -105.622917 
L 111.907464 -105.860179 
L 111.111519 -107.102693 
L 110.315575 -109.077611 
L 109.51963 -111.386783 
L 108.723685 -113.595329 
L 107.927741 -115.313828 
L 107.131796 -116.264531 
L 106.335851 -116.319479 
L 105.539907 -115.499868 
L 104.743962 -113.939226 
L 103.948017 -111.831635 
L 103.152073 -109.391483 
L 102.356128 -106.833086 
L 101.560183 -104.357791 
L 100.764238 -102.138556 
L 99.968294 -100.306243 
L 99.172349 -98.94337 
L 98.376404 -98.080903 
L 97.58046 -97.693699 
L 96.784515 -97.705668 
L 95.98857 -98.018145 
L 95.192626 -98.547974 
L 94.396681 -99.241058 
L 93.600736 -100.044724 
L 92.804792 -100.86122 
L 92.008847 -101.529152 
L 91.212902 -101.863972 
L 90.416958 -101.740987 
L 89.621013 -101.170897 
L 88.825068 -100.326361 
L 88.029124 -99.506844 
L 87.233179 -99.053369 
L 86.437234 -99.243749 
L 85.641289 -100.211026 
L 84.845345 -101.917698 
L 84.0494 -104.184717 
L 83.253455 -106.745119 
L 82.457511 -109.293111 
L 81.661566 -111.526111 
L 80.865621 -113.198752 
L 80.069677 -114.19068 
L 79.273732 -114.551713 
L 78.477787 -114.483838 
L 77.681843 -114.259507 
L 76.885898 -114.119608 
L 76.089953 -114.202997 
L 75.294009 -114.526744 
L 74.498064 -115.000549 
L 73.702119 -115.452623 
L 72.906175 -115.658193 
L 72.11023 -115.378934 
L 71.314285 -114.429492 
L 70.51834 -112.765654 
L 69.722396 -110.550527 
L 68.926451 -108.14959 
L 68.130506 -106.037748 
L 67.334562 -104.641972 
L 66.538617 -104.183407 
L 65.742672 -104.604937 
L 64.946728 -105.626623 
L 64.150783 -106.886139 
L 63.354838 -108.083781 
L 62.558894 -109.071055 
L 61.762949 -109.857716 
L 60.967004 -110.553332 
L 60.17106 -111.289119 
L 59.375115 -112.156556 
L 58.57917 -113.171938 
L 57.783226 -114.271437 
L 56.987281 -115.343963 
L 56.191336 -116.289193 
L 55.395392 -117.061392 
L 54.599447 -117.665609 
L 53.803502 -118.120706 
L 53.007557 -118.438134 
L 52.211613 -118.633039 
L 51.415668 -118.737264 
L 50.619723 -118.790555 
L 49.823779 -118.825023 
L 49.027834 -118.876267 
L 48.231889 -119.023933 
L 47.435945 -119.412706 
L 46.64 -120.202884 
z
" style="stroke: #377eb8; stroke-opacity: 0.3"/>
    </defs>
    <g clip-path="url(#pd083913043)">
     <use xlink:href="#mab2aec590d" x="0" y="360" style="fill: #377eb8; fill-opacity: 0.3; stroke: #377eb8; stroke-opacity: 0.3"/>
    </g>
   </g>
   <g id="patch_3">
    <path d="M 229.866466 318.04 
L 229.866466 71.732 
L 331.747385 71.732 
L 331.747385 318.04 
z
" clip-path="url(#pd083913043)" style="fill: #808080; opacity: 0.3"/>
   </g>
   <g id="matplotlib.axis_1">
    <g id="xtick_1">
     <g id="line2d_1">
      <defs>
       <path id="m0066655b92" d="M 0 0 
L 0 3.5 
" style="stroke: #000000; stroke-width: 0.8"/>
      </defs>
      <g>
       <use xlink:href="#m0066655b92" x="87.233179" y="318.04" style="stroke: #000000; stroke-width: 0.8"/>
      </g>
     </g>
     <g id="text_1">
      <!-- 0.0 -->
      <g transform="translate(79.281616 332.638438)scale(0.1 -0.1)">
       <defs>
        <path id="DejaVuSans-30" d="M 2034 4250 
Q 1547 4250 1301 3770 
Q 1056 3291 1056 2328 
Q 1056 1369 1301 889 
Q 1547 409 2034 409 
Q 2525 409 2770 889 
Q 3016 1369 3016 2328 
Q 3016 3291 2770 3770 
Q 2525 4250 2034 4250 
z
M 2034 4750 
Q 2819 4750 3233 4129 
Q 3647 3509 3647 2328 
Q 3647 1150 3233 529 
Q 2819 -91 2034 -91 
Q 1250 -91 836 529 
Q 422 1150 422 2328 
Q 422 3509 836 4129 
Q 1250 4750 2034 4750 
z
" transform="scale(0.015625)"/>
        <path id="DejaVuSans-2e" d="M 684 794 
L 1344 794 
L 1344 0 
L 684 0 
L 684 794 
z
" transform="scale(0.015625)"/>
       </defs>
       <use xlink:href="#DejaVuSans-30"/>
       <use xlink:href="#DejaVuSans-2e" x="63.623047"/>
       <use xlink:href="#DejaVuSans-30" x="95.410156"/>
      </g>
     </g>
    </g>
    <g id="xtick_2">
     <g id="line2d_2">
      <g>
       <use xlink:href="#m0066655b92" x="168.737914" y="318.04" style="stroke: #000000; stroke-width: 0.8"/>
      </g>
     </g>
     <g id="text_2">
      <!-- 0.2 -->
      <g transform="translate(160.786352 332.638438)scale(0.1 -0.1)">
       <defs>
        <path id="DejaVuSans-32" d="M 1228 531 
L 3431 531 
L 3431 0 
L 469 0 
L 469 531 
Q 828 903 1448 1529 
Q 2069 2156 2228 2338 
Q 2531 2678 2651 2914 
Q 2772 3150 2772 3378 
Q 2772 3750 2511 3984 
Q 2250 4219 1831 4219 
Q 1534 4219 1204 4116 
Q 875 4013 500 3803 
L 500 4441 
Q 881 4594 1212 4672 
Q 1544 4750 1819 4750 
Q 2544 4750 2975 4387 
Q 3406 4025 3406 3419 
Q 3406 3131 3298 2873 
Q 3191 2616 2906 2266 
Q 2828 2175 2409 1742 
Q 1991 1309 1228 531 
z
" transform="scale(0.015625)"/>
       </defs>
       <use xlink:href="#DejaVuSans-30"/>
       <use xlink:href="#DejaVuSans-2e" x="63.623047"/>
       <use xlink:href="#DejaVuSans-32" x="95.410156"/>
      </g>
     </g>
    </g>
    <g id="xtick_3">
     <g id="line2d_3">
      <g>
       <use xlink:href="#m0066655b92" x="250.24265" y="318.04" style="stroke: #000000; stroke-width: 0.8"/>
      </g>
     </g>
     <g id="text_3">
      <!-- 0.4 -->
      <g transform="translate(242.291087 332.638438)scale(0.1 -0.1)">
       <defs>
        <path id="DejaVuSans-34" d="M 2419 4116 
L 825 1625 
L 2419 1625 
L 2419 4116 
z
M 2253 4666 
L 3047 4666 
L 3047 1625 
L 3713 1625 
L 3713 1100 
L 3047 1100 
L 3047 0 
L 2419 0 
L 2419 1100 
L 313 1100 
L 313 1709 
L 2253 4666 
z
" transform="scale(0.015625)"/>
       </defs>
       <use xlink:href="#DejaVuSans-30"/>
       <use xlink:href="#DejaVuSans-2e" x="63.623047"/>
       <use xlink:href="#DejaVuSans-34" x="95.410156"/>
      </g>
     </g>
    </g>
    <g id="xtick_4">
     <g id="line2d_4">
      <g>
       <use xlink:href="#m0066655b92" x="331.747385" y="318.04" style="stroke: #000000; stroke-width: 0.8"/>
      </g>
     </g>
     <g id="text_4">
      <!-- 0.6 -->
      <g transform="translate(323.795823 332.638438)scale(0.1 -0.1)">
       <defs>
        <path id="DejaVuSans-36" d="M 2113 2584 
Q 1688 2584 1439 2293 
Q 1191 2003 1191 1497 
Q 1191 994 1439 701 
Q 1688 409 2113 409 
Q 2538 409 2786 701 
Q 3034 994 3034 1497 
Q 3034 2003 2786 2293 
Q 2538 2584 2113 2584 
z
M 3366 4563 
L 3366 3988 
Q 3128 4100 2886 4159 
Q 2644 4219 2406 4219 
Q 1781 4219 1451 3797 
Q 1122 3375 1075 2522 
Q 1259 2794 1537 2939 
Q 1816 3084 2150 3084 
Q 2853 3084 3261 2657 
Q 3669 2231 3669 1497 
Q 3669 778 3244 343 
Q 2819 -91 2113 -91 
Q 1303 -91 875 529 
Q 447 1150 447 2328 
Q 447 3434 972 4092 
Q 1497 4750 2381 4750 
Q 2619 4750 2861 4703 
Q 3103 4656 3366 4563 
z
" transform="scale(0.015625)"/>
       </defs>
       <use xlink:href="#DejaVuSans-30"/>
       <use xlink:href="#DejaVuSans-2e" x="63.623047"/>
       <use xlink:href="#DejaVuSans-36" x="95.410156"/>
      </g>
     </g>
    </g>
    <g id="xtick_5">
     <g id="line2d_5">
      <g>
       <use xlink:href="#m0066655b92" x="413.252121" y="318.04" style="stroke: #000000; stroke-width: 0.8"/>
      </g>
     </g>
     <g id="text_5">
      <!-- 0.8 -->
      <g transform="translate(405.300559 332.638438)scale(0.1 -0.1)">
       <defs>
        <path id="DejaVuSans-38" d="M 2034 2216 
Q 1584 2216 1326 1975 
Q 1069 1734 1069 1313 
Q 1069 891 1326 650 
Q 1584 409 2034 409 
Q 2484 409 2743 651 
Q 3003 894 3003 1313 
Q 3003 1734 2745 1975 
Q 2488 2216 2034 2216 
z
M 1403 2484 
Q 997 2584 770 2862 
Q 544 3141 544 3541 
Q 544 4100 942 4425 
Q 1341 4750 2034 4750 
Q 2731 4750 3128 4425 
Q 3525 4100 3525 3541 
Q 3525 3141 3298 2862 
Q 3072 2584 2669 2484 
Q 3125 2378 3379 2068 
Q 3634 1759 3634 1313 
Q 3634 634 3220 271 
Q 2806 -91 2034 -91 
Q 1263 -91 848 271 
Q 434 634 434 1313 
Q 434 1759 690 2068 
Q 947 2378 1403 2484 
z
M 1172 3481 
Q 1172 3119 1398 2916 
Q 1625 2713 2034 2713 
Q 2441 2713 2670 2916 
Q 2900 3119 2900 3481 
Q 2900 3844 2670 4047 
Q 2441 4250 2034 4250 
Q 1625 4250 1398 4047 
Q 1172 3844 1172 3481 
z
" transform="scale(0.015625)"/>
       </defs>
       <use xlink:href="#DejaVuSans-30"/>
       <use xlink:href="#DejaVuSans-2e" x="63.623047"/>
       <use xlink:href="#DejaVuSans-38" x="95.410156"/>
      </g>
     </g>
    </g>
    <g id="text_6">
     <!-- seconds -->
     <g transform="translate(209.667749 346.316563)scale(0.1 -0.1)">
      <defs>
       <path id="DejaVuSans-73" d="M 2834 3397 
L 2834 2853 
Q 2591 2978 2328 3040 
Q 2066 3103 1784 3103 
Q 1356 3103 1142 2972 
Q 928 2841 928 2578 
Q 928 2378 1081 2264 
Q 1234 2150 1697 2047 
L 1894 2003 
Q 2506 1872 2764 1633 
Q 3022 1394 3022 966 
Q 3022 478 2636 193 
Q 2250 -91 1575 -91 
Q 1294 -91 989 -36 
Q 684 19 347 128 
L 347 722 
Q 666 556 975 473 
Q 1284 391 1588 391 
Q 1994 391 2212 530 
Q 2431 669 2431 922 
Q 2431 1156 2273 1281 
Q 2116 1406 1581 1522 
L 1381 1569 
Q 847 1681 609 1914 
Q 372 2147 372 2553 
Q 372 3047 722 3315 
Q 1072 3584 1716 3584 
Q 2034 3584 2315 3537 
Q 2597 3491 2834 3397 
z
" transform="scale(0.015625)"/>
       <path id="DejaVuSans-65" d="M 3597 1894 
L 3597 1613 
L 953 1613 
Q 991 1019 1311 708 
Q 1631 397 2203 397 
Q 2534 397 2845 478 
Q 3156 559 3463 722 
L 3463 178 
Q 3153 47 2828 -22 
Q 2503 -91 2169 -91 
Q 1331 -91 842 396 
Q 353 884 353 1716 
Q 353 2575 817 3079 
Q 1281 3584 2069 3584 
Q 2775 3584 3186 3129 
Q 3597 2675 3597 1894 
z
M 3022 2063 
Q 3016 2534 2758 2815 
Q 2500 3097 2075 3097 
Q 1594 3097 1305 2825 
Q 1016 2553 972 2059 
L 3022 2063 
z
" transform="scale(0.015625)"/>
       <path id="DejaVuSans-63" d="M 3122 3366 
L 3122 2828 
Q 2878 2963 2633 3030 
Q 2388 3097 2138 3097 
Q 1578 3097 1268 2742 
Q 959 2388 959 1747 
Q 959 1106 1268 751 
Q 1578 397 2138 397 
Q 2388 397 2633 464 
Q 2878 531 3122 666 
L 3122 134 
Q 2881 22 2623 -34 
Q 2366 -91 2075 -91 
Q 1284 -91 818 406 
Q 353 903 353 1747 
Q 353 2603 823 3093 
Q 1294 3584 2113 3584 
Q 2378 3584 2631 3529 
Q 2884 3475 3122 3366 
z
" transform="scale(0.015625)"/>
       <path id="DejaVuSans-6f" d="M 1959 3097 
Q 1497 3097 1228 2736 
Q 959 2375 959 1747 
Q 959 1119 1226 758 
Q 1494 397 1959 397 
Q 2419 397 2687 759 
Q 2956 1122 2956 1747 
Q 2956 2369 2687 2733 
Q 2419 3097 1959 3097 
z
M 1959 3584 
Q 2709 3584 3137 3096 
Q 3566 2609 3566 1747 
Q 3566 888 3137 398 
Q 2709 -91 1959 -91 
Q 1206 -91 779 398 
Q 353 888 353 1747 
Q 353 2609 779 3096 
Q 1206 3584 1959 3584 
z
" transform="scale(0.015625)"/>
       <path id="DejaVuSans-6e" d="M 3513 2113 
L 3513 0 
L 2938 0 
L 2938 2094 
Q 2938 2591 2744 2837 
Q 2550 3084 2163 3084 
Q 1697 3084 1428 2787 
Q 1159 2491 1159 1978 
L 1159 0 
L 581 0 
L 581 3500 
L 1159 3500 
L 1159 2956 
Q 1366 3272 1645 3428 
Q 1925 3584 2291 3584 
Q 2894 3584 3203 3211 
Q 3513 2838 3513 2113 
z
" transform="scale(0.015625)"/>
       <path id="DejaVuSans-64" d="M 2906 2969 
L 2906 4863 
L 3481 4863 
L 3481 0 
L 2906 0 
L 2906 525 
Q 2725 213 2448 61 
Q 2172 -91 1784 -91 
Q 1150 -91 751 415 
Q 353 922 353 1747 
Q 353 2572 751 3078 
Q 1150 3584 1784 3584 
Q 2172 3584 2448 3432 
Q 2725 3281 2906 2969 
z
M 947 1747 
Q 947 1113 1208 752 
Q 1469 391 1925 391 
Q 2381 391 2643 752 
Q 2906 1113 2906 1747 
Q 2906 2381 2643 2742 
Q 2381 3103 1925 3103 
Q 1469 3103 1208 2742 
Q 947 2381 947 1747 
z
" transform="scale(0.015625)"/>
      </defs>
      <use xlink:href="#DejaVuSans-73"/>
      <use xlink:href="#DejaVuSans-65" x="52.099609"/>
      <use xlink:href="#DejaVuSans-63" x="113.623047"/>
      <use xlink:href="#DejaVuSans-6f" x="168.603516"/>
      <use xlink:href="#DejaVuSans-6e" x="229.785156"/>
      <use xlink:href="#DejaVuSans-64" x="293.164062"/>
      <use xlink:href="#DejaVuSans-73" x="356.640625"/>
     </g>
    </g>
   </g>
   <g id="matplotlib.axis_2">
    <g id="ytick_1">
     <g id="line2d_6">
      <defs>
       <path id="mc92b4c86b1" d="M 0 0 
L -3.5 0 
" style="stroke: #000000; stroke-width: 0.8"/>
      </defs>
      <g>
       <use xlink:href="#mc92b4c86b1" x="46.64" y="296.727388" style="stroke: #000000; stroke-width: 0.8"/>
      </g>
     </g>
     <g id="text_7">
      <!-- 1 -->
      <g transform="translate(24.897813 300.526607)scale(0.1 -0.1)">
       <defs>
        <path id="DejaVuSans-2212" d="M 678 2272 
L 4684 2272 
L 4684 1741 
L 678 1741 
L 678 2272 
z
" transform="scale(0.015625)"/>
        <path id="DejaVuSans-31" d="M 794 531 
L 1825 531 
L 1825 4091 
L 703 3866 
L 703 4441 
L 1819 4666 
L 2450 4666 
L 2450 531 
L 3481 531 
L 3481 0 
L 794 0 
L 794 531 
z
" transform="scale(0.015625)"/>
       </defs>
       <use xlink:href="#DejaVuSans-2212"/>
       <use xlink:href="#DejaVuSans-31" x="83.789062"/>
      </g>
     </g>
    </g>
    <g id="ytick_2">
     <g id="line2d_7">
      <g>
       <use xlink:href="#mc92b4c86b1" x="46.64" y="258.253528" style="stroke: #000000; stroke-width: 0.8"/>
      </g>
     </g>
     <g id="text_8">
      <!-- 0 -->
      <g transform="translate(33.2775 262.052747)scale(0.1 -0.1)">
       <use xlink:href="#DejaVuSans-30"/>
      </g>
     </g>
    </g>
    <g id="ytick_3">
     <g id="line2d_8">
      <g>
       <use xlink:href="#mc92b4c86b1" x="46.64" y="219.779669" style="stroke: #000000; stroke-width: 0.8"/>
      </g>
     </g>
     <g id="text_9">
      <!-- 1 -->
      <g transform="translate(33.2775 223.578888)scale(0.1 -0.1)">
       <use xlink:href="#DejaVuSans-31"/>
      </g>
     </g>
    </g>
    <g id="ytick_4">
     <g id="line2d_9">
      <g>
       <use xlink:href="#mc92b4c86b1" x="46.64" y="181.305809" style="stroke: #000000; stroke-width: 0.8"/>
      </g>
     </g>
     <g id="text_10">
      <!-- 2 -->
      <g transform="translate(33.2775 185.105028)scale(0.1 -0.1)">
       <use xlink:href="#DejaVuSans-32"/>
      </g>
     </g>
    </g>
    <g id="ytick_5">
     <g id="line2d_10">
      <g>
       <use xlink:href="#mc92b4c86b1" x="46.64" y="142.83195" style="stroke: #000000; stroke-width: 0.8"/>
      </g>
     </g>
     <g id="text_11">
      <!-- 3 -->
      <g transform="translate(33.2775 146.631169)scale(0.1 -0.1)">
       <defs>
        <path id="DejaVuSans-33" d="M 2597 2516 
Q 3050 2419 3304 2112 
Q 3559 1806 3559 1356 
Q 3559 666 3084 287 
Q 2609 -91 1734 -91 
Q 1441 -91 1130 -33 
Q 819 25 488 141 
L 488 750 
Q 750 597 1062 519 
Q 1375 441 1716 441 
Q 2309 441 2620 675 
Q 2931 909 2931 1356 
Q 2931 1769 2642 2001 
Q 2353 2234 1838 2234 
L 1294 2234 
L 1294 2753 
L 1863 2753 
Q 2328 2753 2575 2939 
Q 2822 3125 2822 3475 
Q 2822 3834 2567 4026 
Q 2313 4219 1838 4219 
Q 1578 4219 1281 4162 
Q 984 4106 628 3988 
L 628 4550 
Q 988 4650 1302 4700 
Q 1616 4750 1894 4750 
Q 2613 4750 3031 4423 
Q 3450 4097 3450 3541 
Q 3450 3153 3228 2886 
Q 3006 2619 2597 2516 
z
" transform="scale(0.015625)"/>
       </defs>
       <use xlink:href="#DejaVuSans-33"/>
      </g>
     </g>
    </g>
    <g id="ytick_6">
     <g id="line2d_11">
      <g>
       <use xlink:href="#mc92b4c86b1" x="46.64" y="104.35809" style="stroke: #000000; stroke-width: 0.8"/>
      </g>
     </g>
     <g id="text_12">
      <!-- 4 -->
      <g transform="translate(33.2775 108.157309)scale(0.1 -0.1)">
       <use xlink:href="#DejaVuSans-34"/>
      </g>
     </g>
    </g>
    <g id="text_13">
     <!-- V -->
     <g transform="translate(18.818125 201.487562)rotate(-90)scale(0.1 -0.1)">
      <defs>
       <path id="DejaVuSans-b5" d="M 544 -1331 
L 544 3500 
L 1119 3500 
L 1119 1325 
Q 1119 872 1334 640 
Q 1550 409 1972 409 
Q 2434 409 2667 671 
Q 2900 934 2900 1459 
L 2900 3500 
L 3475 3500 
L 3475 806 
Q 3475 619 3529 530 
Q 3584 441 3700 441 
Q 3728 441 3778 458 
Q 3828 475 3916 513 
L 3916 50 
Q 3788 -22 3673 -56 
Q 3559 -91 3450 -91 
Q 3234 -91 3106 31 
Q 2978 153 2931 403 
Q 2775 156 2548 32 
Q 2322 -91 2016 -91 
Q 1697 -91 1473 31 
Q 1250 153 1119 397 
L 1119 -1331 
L 544 -1331 
z
" transform="scale(0.015625)"/>
       <path id="DejaVuSans-56" d="M 1831 0 
L 50 4666 
L 709 4666 
L 2188 738 
L 3669 4666 
L 4325 4666 
L 2547 0 
L 1831 0 
z
" transform="scale(0.015625)"/>
      </defs>
      <use xlink:href="#DejaVuSans-b5"/>
      <use xlink:href="#DejaVuSans-56" x="63.623047"/>
     </g>
    </g>
   </g>
   <g id="line2d_12">
    <path d="M 46.64 251.721138 
L 47.435945 249.357754 
L 48.231889 247.821883 
L 49.027834 248.066189 
L 49.823779 250.519315 
L 50.619723 254.81235 
L 51.415668 259.819475 
L 52.211613 264.014031 
L 53.007557 266.009302 
L 53.803502 265.073854 
L 54.599447 261.41692 
L 56.191336 250.788803 
L 56.987281 246.916163 
L 57.783226 245.439879 
L 58.57917 246.42489 
L 59.375115 249.124828 
L 60.17106 252.329478 
L 60.967004 254.852702 
L 61.762949 255.962528 
L 62.558894 255.592389 
L 64.150783 252.848374 
L 64.946728 252.105027 
L 65.742672 252.496078 
L 66.538617 254.041533 
L 67.334562 256.429304 
L 70.51834 267.57348 
L 71.314285 269.982309 
L 72.11023 271.804546 
L 72.906175 272.464449 
L 73.702119 271.304727 
L 74.498064 267.892529 
L 75.294009 262.345201 
L 76.885898 248.913715 
L 77.681843 244.338666 
L 78.477787 243.319157 
L 79.273732 246.553215 
L 80.069677 253.563345 
L 81.661566 271.666781 
L 82.457511 278.009741 
L 83.253455 280.076195 
L 84.0494 277.455521 
L 84.845345 271.146706 
L 86.437234 256.275258 
L 87.233179 252.372872 
L 88.029124 252.619806 
L 88.825068 256.720325 
L 90.416958 269.622033 
L 91.212902 273.954974 
L 92.008847 274.639204 
L 92.804792 271.328308 
L 93.600736 264.858318 
L 95.192626 249.369729 
L 95.98857 243.819734 
L 96.784515 240.997025 
L 97.58046 240.716641 
L 98.376404 242.055197 
L 99.172349 243.770709 
L 99.968294 244.781629 
L 100.764238 244.533312 
L 101.560183 243.134773 
L 102.356128 241.239065 
L 103.152073 239.733533 
L 103.948017 239.36863 
L 104.743962 240.464593 
L 105.539907 242.794415 
L 107.131796 248.184104 
L 107.927741 249.51446 
L 108.723685 249.177965 
L 109.51963 247.159868 
L 110.315575 243.889292 
L 111.907464 236.574608 
L 112.703409 234.039543 
L 113.499353 232.933262 
L 114.295298 233.393752 
L 115.091243 235.258251 
L 115.887187 238.118323 
L 117.479077 244.457454 
L 118.275021 246.673275 
L 119.070966 247.568635 
L 119.866911 246.910502 
L 120.662856 244.796491 
L 123.05069 235.66076 
L 123.846634 234.492985 
L 124.642579 235.327735 
L 125.438524 238.129108 
L 127.030413 246.620455 
L 127.826358 249.871833 
L 128.622302 250.859952 
L 129.418247 248.944958 
L 130.214192 244.2324 
L 132.602026 224.288264 
L 133.39797 220.471109 
L 134.193915 219.580315 
L 134.98986 221.404283 
L 137.377694 232.060109 
L 138.173639 233.317424 
L 138.969583 232.585904 
L 139.765528 230.394681 
L 140.561473 227.735321 
L 141.357417 225.662987 
L 142.153362 224.892242 
L 142.949307 225.537934 
L 144.541196 228.693721 
L 145.337141 229.447974 
L 146.133085 228.890403 
L 146.92903 227.184592 
L 147.724975 225.103579 
L 148.520919 223.744313 
L 149.316864 224.087015 
L 150.112809 226.571388 
L 150.908753 230.862705 
L 152.500643 240.303365 
L 153.296588 242.756788 
L 154.092532 242.605288 
L 154.888477 240.045471 
L 156.480366 232.033565 
L 157.276311 229.195234 
L 158.072256 228.122931 
L 158.8682 228.489567 
L 159.664145 229.170858 
L 160.46009 228.680085 
L 161.256034 225.76949 
L 162.051979 219.967819 
L 164.439813 195.043813 
L 165.235758 190.066953 
L 166.031702 188.931003 
L 166.827647 191.51155 
L 167.623592 196.650512 
L 168.419537 202.572522 
L 169.215481 207.494343 
L 170.011426 210.204465 
L 170.807371 210.409927 
L 171.603315 208.742066 
L 172.39926 206.444065 
L 173.195205 204.877736 
L 173.991149 205.040923 
L 174.787094 207.265094 
L 175.583039 211.181903 
L 177.174928 220.571884 
L 177.970873 224.328331 
L 178.766817 226.898438 
L 179.562762 228.407282 
L 180.358707 229.248446 
L 182.746541 230.911488 
L 183.542485 231.129011 
L 184.33843 230.797805 
L 185.134375 229.81712 
L 187.522209 225.619042 
L 188.318154 225.200082 
L 189.114098 225.595182 
L 190.705988 227.404161 
L 191.501932 227.646286 
L 192.297877 226.799894 
L 193.093822 224.775372 
L 196.2776 213.581292 
L 197.073545 212.13423 
L 198.665434 209.834536 
L 199.461379 207.885522 
L 200.257324 205.011976 
L 201.849213 197.844536 
L 202.645158 195.026204 
L 203.441103 193.684844 
L 204.237047 194.073568 
L 205.032992 195.864087 
L 205.828937 198.224645 
L 206.624881 200.104193 
L 207.420826 200.621387 
L 208.216771 199.409089 
L 209.012715 196.776263 
L 209.80866 193.616888 
L 210.604605 191.094952 
L 211.400549 190.22684 
L 212.196494 191.526463 
L 212.992439 194.853878 
L 216.176218 213.612814 
L 218.564052 225.425756 
L 220.155941 234.394711 
L 220.951886 237.375672 
L 221.74783 237.845553 
L 222.543775 235.137688 
L 223.33972 229.463956 
L 224.931609 214.61837 
L 225.727554 209.228339 
L 226.523498 207.150329 
L 227.319443 208.584838 
L 228.115388 212.512655 
L 228.911332 217.047107 
L 229.707277 220.126163 
L 230.503222 220.28635 
L 231.299166 217.219352 
L 232.891056 206.168821 
L 233.687001 202.109332 
L 234.482945 201.16754 
L 235.27889 203.646604 
L 237.666724 218.242013 
L 238.462669 219.395091 
L 239.258613 217.153356 
L 240.054558 212.240545 
L 241.646447 200.885712 
L 242.442392 197.610371 
L 243.238337 196.903345 
L 244.034281 198.316695 
L 244.830226 200.707139 
L 245.626171 202.719941 
L 246.422115 203.294494 
L 247.21806 202.005317 
L 248.014005 199.132335 
L 249.605894 191.955954 
L 250.401839 189.345805 
L 251.197784 187.940597 
L 251.993728 187.557655 
L 252.789673 187.654898 
L 253.585618 187.556189 
L 254.381562 186.676401 
L 255.177507 184.671259 
L 255.973452 181.483337 
L 256.769396 177.301923 
L 259.15723 162.76474 
L 259.953175 158.881107 
L 260.74912 156.340206 
L 261.545064 155.59787 
L 262.341009 156.941318 
L 263.136954 160.36344 
L 263.932898 165.463375 
L 265.524788 177.122994 
L 266.320733 181.321968 
L 267.116677 182.985658 
L 267.912622 181.557743 
L 268.708567 177.160453 
L 271.096401 156.884986 
L 271.892345 152.67325 
L 272.68829 151.51856 
L 273.484235 153.422324 
L 274.280179 157.560902 
L 275.076124 162.519192 
L 275.872069 166.704611 
L 276.668013 168.818874 
L 277.463958 168.240154 
L 278.259903 165.190998 
L 279.851792 155.935299 
L 280.647737 152.388748 
L 281.443682 150.792396 
L 282.239626 151.19127 
L 283.831516 154.73599 
L 284.62746 155.519363 
L 285.423405 154.424066 
L 286.21935 151.288179 
L 288.607184 136.86918 
L 289.403128 133.712596 
L 290.199073 132.344488 
L 290.995018 132.590739 
L 291.790962 133.909365 
L 293.382852 137.339852 
L 294.178796 138.74557 
L 298.15852 144.6177 
L 298.954465 145.513542 
L 300.546354 146.83084 
L 301.342299 147.954778 
L 302.138243 150.012611 
L 302.934188 153.248193 
L 305.322022 165.933986 
L 306.117967 168.232658 
L 306.913911 168.354584 
L 307.709856 166.38881 
L 309.301745 159.804967 
L 310.09769 157.738553 
L 310.893635 157.798096 
L 311.689579 160.109338 
L 314.077414 171.233578 
L 314.873358 172.172007 
L 315.669303 170.657509 
L 316.465248 167.185826 
L 318.057137 159.036162 
L 318.853082 156.772566 
L 319.649026 156.585546 
L 320.444971 158.29139 
L 322.832805 166.657032 
L 323.62875 168.052499 
L 324.424694 168.505145 
L 325.220639 168.523205 
L 326.016584 168.790067 
L 326.812528 169.894346 
L 327.608473 172.126311 
L 328.404418 175.403716 
L 330.792252 187.017237 
L 331.588197 189.927985 
L 332.384141 192.026168 
L 333.180086 193.459686 
L 335.56792 196.774849 
L 336.363865 198.336535 
L 338.751699 203.927029 
L 339.547643 205.356278 
L 340.343588 206.296093 
L 341.139533 206.787132 
L 342.731422 207.315964 
L 343.527367 207.932552 
L 344.323311 209.021493 
L 345.915201 212.006721 
L 346.711146 213.052433 
L 347.50709 213.111529 
L 348.303035 211.850922 
L 349.09898 209.276974 
L 351.486814 199.01123 
L 352.282758 197.272405 
L 353.078703 197.276351 
L 353.874648 199.019563 
L 354.670592 202.122726 
L 357.058426 213.3765 
L 357.854371 216.072352 
L 358.650316 217.890938 
L 359.44626 218.900919 
L 360.242205 219.261321 
L 361.03815 219.164963 
L 363.425984 218.230245 
L 364.221929 218.391315 
L 365.017873 218.995039 
L 367.405707 221.83972 
L 368.201652 222.06943 
L 368.997597 221.591638 
L 370.589486 219.562153 
L 371.385431 219.12307 
L 372.181375 219.776455 
L 372.97732 221.632837 
L 374.569209 226.824619 
L 375.365154 228.252393 
L 376.161099 227.787113 
L 376.957043 225.312961 
L 378.548933 217.941672 
L 379.344878 216.192903 
L 380.140822 217.696691 
L 380.936767 222.9612 
L 381.732712 231.317531 
L 383.324601 249.735908 
L 384.120546 255.258562 
L 384.91649 256.215065 
L 385.712435 252.506047 
L 386.50838 245.332749 
L 388.100269 229.246643 
L 388.896214 224.51965 
L 389.692158 223.469113 
L 390.488103 225.784826 
L 392.875937 238.746329 
L 393.671882 240.229932 
L 394.467827 239.25634 
L 395.263771 236.2632 
L 397.651605 224.239043 
L 398.44755 221.836214 
L 399.243495 220.823066 
L 400.039439 221.116663 
L 400.835384 222.444727 
L 403.223218 228.177979 
L 404.019163 228.887967 
L 404.815107 228.2225 
L 405.611052 226.052254 
L 406.406997 222.639736 
L 407.998886 215.025061 
L 408.794831 212.728456 
L 409.590775 212.445833 
L 410.38672 214.334811 
L 411.182665 217.931143 
L 412.774554 226.113333 
L 413.570499 228.445989 
L 413.570499 228.445989 
" clip-path="url(#pd083913043)" style="fill: none; stroke: #e41a1c; stroke-width: 1.5; stroke-linecap: square"/>
   </g>
   <g id="line2d_13">
    <path d="M 46.64 251.595621 
L 47.435945 252.155788 
L 48.231889 252.373903 
L 49.823779 252.316952 
L 52.211613 252.241219 
L 53.803502 252.417803 
L 54.599447 252.703937 
L 55.395392 253.215643 
L 56.191336 253.976131 
L 59.375115 257.809323 
L 62.558894 260.479666 
L 64.150783 262.825444 
L 64.946728 264.060667 
L 65.742672 264.961772 
L 66.538617 265.232559 
L 67.334562 264.687012 
L 68.130506 263.322216 
L 69.722396 259.07271 
L 70.51834 256.942663 
L 71.314285 255.29729 
L 72.11023 254.345503 
L 72.906175 254.108478 
L 73.702119 254.433141 
L 75.294009 255.687926 
L 76.089953 256.111676 
L 76.885898 256.23273 
L 79.273732 255.887791 
L 80.069677 256.306052 
L 80.865621 257.346774 
L 81.661566 259.073396 
L 82.457511 261.399609 
L 84.845345 269.303663 
L 85.641289 271.172961 
L 86.437234 272.29255 
L 87.233179 272.661819 
L 88.029124 272.438633 
L 89.621013 271.326564 
L 90.416958 271.002966 
L 91.212902 271.076422 
L 92.008847 271.572141 
L 92.804792 272.400358 
L 95.192626 275.25653 
L 95.98857 275.872278 
L 96.784515 276.196231 
L 97.58046 276.19488 
L 98.376404 275.831201 
L 99.172349 275.056875 
L 99.968294 273.824853 
L 100.764238 272.117302 
L 102.356128 267.51914 
L 103.948017 262.487945 
L 104.743962 260.420817 
L 105.539907 258.975881 
L 106.335851 258.326499 
L 107.131796 258.554854 
L 107.927741 259.632782 
L 108.723685 261.411687 
L 111.111519 267.858777 
L 111.907464 269.094388 
L 112.703409 269.363364 
L 113.499353 268.61665 
L 114.295298 267.048959 
L 115.887187 263.21842 
L 116.683132 261.99057 
L 117.479077 261.709718 
L 118.275021 262.408258 
L 120.662856 266.73227 
L 121.4588 267.286731 
L 122.254745 266.954998 
L 123.05069 265.900581 
L 124.642579 263.298071 
L 125.438524 262.603778 
L 126.234468 262.585636 
L 127.030413 263.128373 
L 128.622302 264.664265 
L 129.418247 265.111 
L 131.010136 265.379253 
L 131.806081 265.733258 
L 132.602026 266.598437 
L 133.39797 268.028066 
L 134.98986 271.477084 
L 135.785805 272.521856 
L 136.581749 272.516618 
L 137.377694 271.310772 
L 138.173639 269.095921 
L 139.765528 263.741194 
L 140.561473 261.832729 
L 141.357417 261.010513 
L 142.153362 261.336692 
L 142.949307 262.567063 
L 144.541196 265.876441 
L 145.337141 267.028861 
L 146.133085 267.484206 
L 146.92903 267.24755 
L 147.724975 266.517921 
L 149.316864 264.835377 
L 150.112809 264.441546 
L 150.908753 264.507313 
L 152.500643 265.412462 
L 153.296588 265.552673 
L 154.092532 264.901486 
L 154.888477 263.104956 
L 155.684422 260.030135 
L 157.276311 251.134206 
L 158.072256 246.641688 
L 158.8682 243.272975 
L 159.664145 241.761572 
L 160.46009 242.448091 
L 161.256034 245.127339 
L 162.847924 253.085933 
L 163.643868 256.057421 
L 164.439813 257.074096 
L 165.235758 255.828992 
L 166.031702 252.70753 
L 167.623592 244.982018 
L 168.419537 242.745762 
L 169.215481 242.611522 
L 170.011426 244.550876 
L 172.39926 254.656608 
L 173.195205 256.288047 
L 173.991149 256.355596 
L 174.787094 255.257431 
L 175.583039 253.762224 
L 176.378983 252.707607 
L 177.174928 252.705314 
L 177.970873 253.958966 
L 178.766817 256.247932 
L 180.358707 261.820346 
L 181.154651 264.069659 
L 181.950596 265.606166 
L 182.746541 266.47265 
L 183.542485 266.866434 
L 185.134375 267.069623 
L 189.114098 267.29714 
L 189.910043 267.821318 
L 190.705988 268.727089 
L 193.889766 273.418299 
L 194.685711 273.96867 
L 196.2776 274.632318 
L 197.073545 275.223481 
L 197.86949 276.157627 
L 199.461379 278.367778 
L 200.257324 278.950953 
L 201.053269 278.790009 
L 201.849213 277.866538 
L 203.441103 275.02972 
L 204.237047 274.073856 
L 205.032992 273.856226 
L 205.828937 274.286596 
L 206.624881 274.914564 
L 207.420826 275.088369 
L 208.216771 274.217557 
L 209.012715 272.034807 
L 210.604605 264.994405 
L 211.400549 261.651743 
L 212.196494 259.496959 
L 212.992439 258.923474 
L 213.788383 259.783363 
L 215.380273 262.99519 
L 216.176218 263.65361 
L 216.972162 263.002325 
L 217.768107 261.176663 
L 219.359996 256.735673 
L 220.155941 255.761347 
L 220.951886 256.271792 
L 221.74783 258.145284 
L 223.33972 263.455534 
L 224.135664 265.374924 
L 224.931609 266.180608 
L 225.727554 265.936722 
L 227.319443 264.275788 
L 228.115388 264.050181 
L 228.911332 264.708473 
L 229.707277 266.204163 
L 232.095111 272.198637 
L 232.891056 273.694447 
L 235.27889 277.475802 
L 237.666724 282.272157 
L 238.462669 283.050992 
L 239.258613 282.829894 
L 240.054558 281.513175 
L 240.850503 279.282646 
L 242.442392 273.81724 
L 243.238337 271.544692 
L 244.034281 270.006496 
L 244.830226 269.254876 
L 245.626171 269.155391 
L 246.422115 269.484539 
L 248.014005 270.720724 
L 248.80995 271.53166 
L 249.605894 272.542117 
L 251.197784 275.25814 
L 252.789673 278.016951 
L 253.585618 278.796591 
L 254.381562 278.912615 
L 255.177507 278.346826 
L 255.973452 277.251993 
L 257.565341 274.609552 
L 258.361286 273.612318 
L 259.15723 273.022887 
L 259.953175 272.807943 
L 261.545064 272.934165 
L 263.136954 273.007952 
L 264.728843 273.099394 
L 267.912622 273.858371 
L 268.708567 273.470208 
L 269.504511 272.655484 
L 271.096401 270.426342 
L 271.892345 269.660248 
L 272.68829 269.566517 
L 273.484235 270.296089 
L 274.280179 271.74974 
L 275.872069 275.24442 
L 276.668013 276.216494 
L 277.463958 276.097631 
L 278.259903 274.785721 
L 279.055847 272.523949 
L 280.647737 267.426274 
L 281.443682 265.864734 
L 282.239626 265.497885 
L 283.035571 266.277475 
L 284.62746 269.315795 
L 285.423405 270.192439 
L 286.21935 269.905965 
L 287.015294 268.3332 
L 288.607184 262.837144 
L 289.403128 260.25772 
L 290.199073 258.623149 
L 290.995018 258.193715 
L 291.790962 258.828247 
L 293.382852 261.274559 
L 294.178796 261.962185 
L 294.974741 261.881273 
L 295.770686 261.138548 
L 296.56663 260.117475 
L 297.362575 259.302018 
L 298.15852 259.067398 
L 298.954465 259.522989 
L 300.546354 261.488369 
L 301.342299 262.11502 
L 302.138243 262.036793 
L 302.934188 261.220541 
L 304.526077 258.615288 
L 305.322022 257.754296 
L 306.117967 257.661038 
L 306.913911 258.388585 
L 307.709856 259.730182 
L 309.301745 262.795685 
L 310.09769 263.91777 
L 310.893635 264.652728 
L 314.077414 266.691411 
L 314.873358 267.23684 
L 315.669303 267.487761 
L 316.465248 267.252231 
L 317.261192 266.486404 
L 319.649026 263.157231 
L 320.444971 262.696455 
L 321.240916 262.760489 
L 322.832805 263.46467 
L 323.62875 263.351903 
L 324.424694 262.568998 
L 325.220639 261.147472 
L 326.812528 257.827944 
L 327.608473 256.959655 
L 328.404418 257.163946 
L 329.200363 258.520123 
L 329.996307 260.7836 
L 331.588197 265.977168 
L 332.384141 267.843683 
L 333.180086 268.818469 
L 333.976031 268.95317 
L 334.771975 268.545918 
L 335.56792 268.011314 
L 336.363865 267.720532 
L 337.159809 267.871403 
L 337.955754 268.433879 
L 339.547643 269.815743 
L 340.343588 270.058234 
L 341.139533 269.792481 
L 341.935477 269.082903 
L 343.527367 267.224745 
L 344.323311 266.535329 
L 345.119256 266.124531 
L 346.711146 265.559507 
L 347.50709 264.907922 
L 348.303035 263.737174 
L 349.09898 262.009848 
L 352.282758 253.356442 
L 353.078703 251.919212 
L 353.874648 250.976218 
L 354.670592 250.466207 
L 355.466537 250.291144 
L 356.262482 250.355672 
L 357.854371 250.883681 
L 358.650316 251.161796 
L 359.44626 251.270767 
L 360.242205 251.050054 
L 361.03815 250.375936 
L 361.834095 249.228995 
L 364.221929 244.96918 
L 365.017873 244.393524 
L 365.813818 244.662027 
L 366.609763 245.727844 
L 368.201652 248.924648 
L 368.997597 250.130212 
L 369.793541 250.587131 
L 370.589486 250.221252 
L 371.385431 249.237416 
L 372.181375 248.041323 
L 372.97732 247.087586 
L 373.773265 246.711562 
L 374.569209 247.008902 
L 376.957043 249.393895 
L 377.752988 249.460193 
L 378.548933 248.857742 
L 380.936767 245.457806 
L 381.732712 244.94804 
L 382.528656 245.045353 
L 383.324601 245.608102 
L 384.120546 246.329502 
L 384.91649 246.857975 
L 385.712435 246.928278 
L 386.50838 246.454931 
L 388.896214 243.619883 
L 389.692158 243.161056 
L 390.488103 243.231126 
L 391.284048 243.750863 
L 392.875937 245.168745 
L 393.671882 245.532064 
L 394.467827 245.469393 
L 395.263771 245.040135 
L 396.855661 244.008094 
L 397.651605 243.952834 
L 398.44755 244.411151 
L 400.835384 246.982918 
L 401.631329 246.84626 
L 402.427273 245.524286 
L 403.223218 242.892293 
L 404.019163 239.144002 
L 405.611052 230.498693 
L 406.406997 227.031497 
L 407.202941 224.934245 
L 407.998886 224.427198 
L 408.794831 225.316112 
L 410.38672 228.780883 
L 411.182665 229.777533 
L 411.97861 229.474988 
L 412.774554 227.738194 
L 413.570499 224.891945 
L 413.570499 224.891945 
" clip-path="url(#pd083913043)" style="fill: none; stroke: #377eb8; stroke-width: 1.5; stroke-linecap: square"/>
   </g>
   <g id="line2d_14">
    <path d="M 87.233179 318.04 
L 87.233179 71.732 
" clip-path="url(#pd083913043)" style="fill: none; stroke: #000000; stroke-width: 0.5; stroke-linecap: square"/>
   </g>
   <g id="line2d_15">
    <path d="M 46.64 258.253528 
L 413.570499 258.253528 
" clip-path="url(#pd083913043)" style="fill: none; stroke: #000000; stroke-width: 0.5; stroke-linecap: square"/>
   </g>
   <g id="patch_4">
    <path d="M 46.64 318.04 
L 46.64 71.732 
" style="fill: none; stroke: #000000; stroke-width: 0.8; stroke-linejoin: miter; stroke-linecap: square"/>
   </g>
   <g id="patch_5">
    <path d="M 413.570499 318.04 
L 413.570499 71.732 
" style="fill: none; stroke: #000000; stroke-width: 0.8; stroke-linejoin: miter; stroke-linecap: square"/>
   </g>
   <g id="patch_6">
    <path d="M 46.64 318.04 
L 413.570499 318.04 
" style="fill: none; stroke: #000000; stroke-width: 0.8; stroke-linejoin: miter; stroke-linecap: square"/>
   </g>
   <g id="patch_7">
    <path d="M 46.64 71.732 
L 413.570499 71.732 
" style="fill: none; stroke: #000000; stroke-width: 0.8; stroke-linejoin: miter; stroke-linecap: square"/>
   </g>
   <g id="text_14">
    <!-- Cz -->
    <g transform="translate(222.766499 65.732)scale(0.12 -0.12)">
     <defs>
      <path id="DejaVuSans-43" d="M 4122 4306 
L 4122 3641 
Q 3803 3938 3442 4084 
Q 3081 4231 2675 4231 
Q 1875 4231 1450 3742 
Q 1025 3253 1025 2328 
Q 1025 1406 1450 917 
Q 1875 428 2675 428 
Q 3081 428 3442 575 
Q 3803 722 4122 1019 
L 4122 359 
Q 3791 134 3420 21 
Q 3050 -91 2638 -91 
Q 1578 -91 968 557 
Q 359 1206 359 2328 
Q 359 3453 968 4101 
Q 1578 4750 2638 4750 
Q 3056 4750 3426 4639 
Q 3797 4528 4122 4306 
z
" transform="scale(0.015625)"/>
      <path id="DejaVuSans-7a" d="M 353 3500 
L 3084 3500 
L 3084 2975 
L 922 459 
L 3084 459 
L 3084 0 
L 275 0 
L 275 525 
L 2438 3041 
L 353 3041 
L 353 3500 
z
" transform="scale(0.015625)"/>
     </defs>
     <use xlink:href="#DejaVuSans-43"/>
     <use xlink:href="#DejaVuSans-7a" x="69.824219"/>
    </g>
   </g>
   <g id="legend_1">
    <g id="patch_8">
     <path d="M 99.877906 48.500845 
L 360.332593 48.500845 
Q 362.332593 48.500845 362.332593 46.500845 
L 362.332593 18.144595 
Q 362.332593 16.144595 360.332593 16.144595 
L 99.877906 16.144595 
Q 97.877906 16.144595 97.877906 18.144595 
L 97.877906 46.500845 
Q 97.877906 48.500845 99.877906 48.500845 
z
" style="fill: #ffffff; opacity: 0.8; stroke: #cccccc; stroke-linejoin: miter"/>
    </g>
    <g id="text_15">
     <!-- Average of Session 13 -->
     <g transform="translate(174.545874 27.743033)scale(0.1 -0.1)">
      <defs>
       <path id="DejaVuSans-41" d="M 2188 4044 
L 1331 1722 
L 3047 1722 
L 2188 4044 
z
M 1831 4666 
L 2547 4666 
L 4325 0 
L 3669 0 
L 3244 1197 
L 1141 1197 
L 716 0 
L 50 0 
L 1831 4666 
z
" transform="scale(0.015625)"/>
       <path id="DejaVuSans-76" d="M 191 3500 
L 800 3500 
L 1894 563 
L 2988 3500 
L 3597 3500 
L 2284 0 
L 1503 0 
L 191 3500 
z
" transform="scale(0.015625)"/>
       <path id="DejaVuSans-72" d="M 2631 2963 
Q 2534 3019 2420 3045 
Q 2306 3072 2169 3072 
Q 1681 3072 1420 2755 
Q 1159 2438 1159 1844 
L 1159 0 
L 581 0 
L 581 3500 
L 1159 3500 
L 1159 2956 
Q 1341 3275 1631 3429 
Q 1922 3584 2338 3584 
Q 2397 3584 2469 3576 
Q 2541 3569 2628 3553 
L 2631 2963 
z
" transform="scale(0.015625)"/>
       <path id="DejaVuSans-61" d="M 2194 1759 
Q 1497 1759 1228 1600 
Q 959 1441 959 1056 
Q 959 750 1161 570 
Q 1363 391 1709 391 
Q 2188 391 2477 730 
Q 2766 1069 2766 1631 
L 2766 1759 
L 2194 1759 
z
M 3341 1997 
L 3341 0 
L 2766 0 
L 2766 531 
Q 2569 213 2275 61 
Q 1981 -91 1556 -91 
Q 1019 -91 701 211 
Q 384 513 384 1019 
Q 384 1609 779 1909 
Q 1175 2209 1959 2209 
L 2766 2209 
L 2766 2266 
Q 2766 2663 2505 2880 
Q 2244 3097 1772 3097 
Q 1472 3097 1187 3025 
Q 903 2953 641 2809 
L 641 3341 
Q 956 3463 1253 3523 
Q 1550 3584 1831 3584 
Q 2591 3584 2966 3190 
Q 3341 2797 3341 1997 
z
" transform="scale(0.015625)"/>
       <path id="DejaVuSans-67" d="M 2906 1791 
Q 2906 2416 2648 2759 
Q 2391 3103 1925 3103 
Q 1463 3103 1205 2759 
Q 947 2416 947 1791 
Q 947 1169 1205 825 
Q 1463 481 1925 481 
Q 2391 481 2648 825 
Q 2906 1169 2906 1791 
z
M 3481 434 
Q 3481 -459 3084 -895 
Q 2688 -1331 1869 -1331 
Q 1566 -1331 1297 -1286 
Q 1028 -1241 775 -1147 
L 775 -588 
Q 1028 -725 1275 -790 
Q 1522 -856 1778 -856 
Q 2344 -856 2625 -561 
Q 2906 -266 2906 331 
L 2906 616 
Q 2728 306 2450 153 
Q 2172 0 1784 0 
Q 1141 0 747 490 
Q 353 981 353 1791 
Q 353 2603 747 3093 
Q 1141 3584 1784 3584 
Q 2172 3584 2450 3431 
Q 2728 3278 2906 2969 
L 2906 3500 
L 3481 3500 
L 3481 434 
z
" transform="scale(0.015625)"/>
       <path id="DejaVuSans-20" transform="scale(0.015625)"/>
       <path id="DejaVuSans-66" d="M 2375 4863 
L 2375 4384 
L 1825 4384 
Q 1516 4384 1395 4259 
Q 1275 4134 1275 3809 
L 1275 3500 
L 2222 3500 
L 2222 3053 
L 1275 3053 
L 1275 0 
L 697 0 
L 697 3053 
L 147 3053 
L 147 3500 
L 697 3500 
L 697 3744 
Q 697 4328 969 4595 
Q 1241 4863 1831 4863 
L 2375 4863 
z
" transform="scale(0.015625)"/>
       <path id="DejaVuSans-53" d="M 3425 4513 
L 3425 3897 
Q 3066 4069 2747 4153 
Q 2428 4238 2131 4238 
Q 1616 4238 1336 4038 
Q 1056 3838 1056 3469 
Q 1056 3159 1242 3001 
Q 1428 2844 1947 2747 
L 2328 2669 
Q 3034 2534 3370 2195 
Q 3706 1856 3706 1288 
Q 3706 609 3251 259 
Q 2797 -91 1919 -91 
Q 1588 -91 1214 -16 
Q 841 59 441 206 
L 441 856 
Q 825 641 1194 531 
Q 1563 422 1919 422 
Q 2459 422 2753 634 
Q 3047 847 3047 1241 
Q 3047 1584 2836 1778 
Q 2625 1972 2144 2069 
L 1759 2144 
Q 1053 2284 737 2584 
Q 422 2884 422 3419 
Q 422 4038 858 4394 
Q 1294 4750 2059 4750 
Q 2388 4750 2728 4690 
Q 3069 4631 3425 4513 
z
" transform="scale(0.015625)"/>
       <path id="DejaVuSans-69" d="M 603 3500 
L 1178 3500 
L 1178 0 
L 603 0 
L 603 3500 
z
M 603 4863 
L 1178 4863 
L 1178 4134 
L 603 4134 
L 603 4863 
z
" transform="scale(0.015625)"/>
      </defs>
      <use xlink:href="#DejaVuSans-41"/>
      <use xlink:href="#DejaVuSans-76" x="62.533203"/>
      <use xlink:href="#DejaVuSans-65" x="121.712891"/>
      <use xlink:href="#DejaVuSans-72" x="183.236328"/>
      <use xlink:href="#DejaVuSans-61" x="224.349609"/>
      <use xlink:href="#DejaVuSans-67" x="285.628906"/>
      <use xlink:href="#DejaVuSans-65" x="349.105469"/>
      <use xlink:href="#DejaVuSans-20" x="410.628906"/>
      <use xlink:href="#DejaVuSans-6f" x="442.416016"/>
      <use xlink:href="#DejaVuSans-66" x="503.597656"/>
      <use xlink:href="#DejaVuSans-20" x="538.802734"/>
      <use xlink:href="#DejaVuSans-53" x="570.589844"/>
      <use xlink:href="#DejaVuSans-65" x="634.066406"/>
      <use xlink:href="#DejaVuSans-73" x="695.589844"/>
      <use xlink:href="#DejaVuSans-73" x="747.689453"/>
      <use xlink:href="#DejaVuSans-69" x="799.789062"/>
      <use xlink:href="#DejaVuSans-6f" x="827.572266"/>
      <use xlink:href="#DejaVuSans-6e" x="888.753906"/>
      <use xlink:href="#DejaVuSans-20" x="952.132812"/>
      <use xlink:href="#DejaVuSans-31" x="983.919922"/>
      <use xlink:href="#DejaVuSans-33" x="1047.542969"/>
     </g>
    </g>
    <g id="line2d_16">
     <path d="M 101.877906 38.921158 
L 111.877906 38.921158 
L 121.877906 38.921158 
" style="fill: none; stroke: #e41a1c; stroke-width: 1.5; stroke-linecap: square"/>
    </g>
    <g id="text_16">
     <!-- Target (n=316) -->
     <g transform="translate(129.877906 42.421158)scale(0.1 -0.1)">
      <defs>
       <path id="DejaVuSans-54" d="M -19 4666 
L 3928 4666 
L 3928 4134 
L 2272 4134 
L 2272 0 
L 1638 0 
L 1638 4134 
L -19 4134 
L -19 4666 
z
" transform="scale(0.015625)"/>
       <path id="DejaVuSans-74" d="M 1172 4494 
L 1172 3500 
L 2356 3500 
L 2356 3053 
L 1172 3053 
L 1172 1153 
Q 1172 725 1289 603 
Q 1406 481 1766 481 
L 2356 481 
L 2356 0 
L 1766 0 
Q 1100 0 847 248 
Q 594 497 594 1153 
L 594 3053 
L 172 3053 
L 172 3500 
L 594 3500 
L 594 4494 
L 1172 4494 
z
" transform="scale(0.015625)"/>
       <path id="DejaVuSans-28" d="M 1984 4856 
Q 1566 4138 1362 3434 
Q 1159 2731 1159 2009 
Q 1159 1288 1364 580 
Q 1569 -128 1984 -844 
L 1484 -844 
Q 1016 -109 783 600 
Q 550 1309 550 2009 
Q 550 2706 781 3412 
Q 1013 4119 1484 4856 
L 1984 4856 
z
" transform="scale(0.015625)"/>
       <path id="DejaVuSans-3d" d="M 678 2906 
L 4684 2906 
L 4684 2381 
L 678 2381 
L 678 2906 
z
M 678 1631 
L 4684 1631 
L 4684 1100 
L 678 1100 
L 678 1631 
z
" transform="scale(0.015625)"/>
       <path id="DejaVuSans-29" d="M 513 4856 
L 1013 4856 
Q 1481 4119 1714 3412 
Q 1947 2706 1947 2009 
Q 1947 1309 1714 600 
Q 1481 -109 1013 -844 
L 513 -844 
Q 928 -128 1133 580 
Q 1338 1288 1338 2009 
Q 1338 2731 1133 3434 
Q 928 4138 513 4856 
z
" transform="scale(0.015625)"/>
      </defs>
      <use xlink:href="#DejaVuSans-54"/>
      <use xlink:href="#DejaVuSans-61" x="44.583984"/>
      <use xlink:href="#DejaVuSans-72" x="105.863281"/>
      <use xlink:href="#DejaVuSans-67" x="145.226562"/>
      <use xlink:href="#DejaVuSans-65" x="208.703125"/>
      <use xlink:href="#DejaVuSans-74" x="270.226562"/>
      <use xlink:href="#DejaVuSans-20" x="309.435547"/>
      <use xlink:href="#DejaVuSans-28" x="341.222656"/>
      <use xlink:href="#DejaVuSans-6e" x="380.236328"/>
      <use xlink:href="#DejaVuSans-3d" x="443.615234"/>
      <use xlink:href="#DejaVuSans-33" x="527.404297"/>
      <use xlink:href="#DejaVuSans-31" x="591.027344"/>
      <use xlink:href="#DejaVuSans-36" x="654.650391"/>
      <use xlink:href="#DejaVuSans-29" x="718.273438"/>
     </g>
    </g>
    <g id="line2d_17">
     <path d="M 225.607593 38.921158 
L 235.607593 38.921158 
L 245.607593 38.921158 
" style="fill: none; stroke: #377eb8; stroke-width: 1.5; stroke-linecap: square"/>
    </g>
    <g id="text_17">
     <!-- Non-Target (n=1540) -->
     <g transform="translate(253.607593 42.421158)scale(0.1 -0.1)">
      <defs>
       <path id="DejaVuSans-4e" d="M 628 4666 
L 1478 4666 
L 3547 763 
L 3547 4666 
L 4159 4666 
L 4159 0 
L 3309 0 
L 1241 3903 
L 1241 0 
L 628 0 
L 628 4666 
z
" transform="scale(0.015625)"/>
       <path id="DejaVuSans-2d" d="M 313 2009 
L 1997 2009 
L 1997 1497 
L 313 1497 
L 313 2009 
z
" transform="scale(0.015625)"/>
       <path id="DejaVuSans-35" d="M 691 4666 
L 3169 4666 
L 3169 4134 
L 1269 4134 
L 1269 2991 
Q 1406 3038 1543 3061 
Q 1681 3084 1819 3084 
Q 2600 3084 3056 2656 
Q 3513 2228 3513 1497 
Q 3513 744 3044 326 
Q 2575 -91 1722 -91 
Q 1428 -91 1123 -41 
Q 819 9 494 109 
L 494 744 
Q 775 591 1075 516 
Q 1375 441 1709 441 
Q 2250 441 2565 725 
Q 2881 1009 2881 1497 
Q 2881 1984 2565 2268 
Q 2250 2553 1709 2553 
Q 1456 2553 1204 2497 
Q 953 2441 691 2322 
L 691 4666 
z
" transform="scale(0.015625)"/>
      </defs>
      <use xlink:href="#DejaVuSans-4e"/>
      <use xlink:href="#DejaVuSans-6f" x="74.804688"/>
      <use xlink:href="#DejaVuSans-6e" x="135.986328"/>
      <use xlink:href="#DejaVuSans-2d" x="199.365234"/>
      <use xlink:href="#DejaVuSans-54" x="226.324219"/>
      <use xlink:href="#DejaVuSans-61" x="270.908203"/>
      <use xlink:href="#DejaVuSans-72" x="332.1875"/>
      <use xlink:href="#DejaVuSans-67" x="371.550781"/>
      <use xlink:href="#DejaVuSans-65" x="435.027344"/>
      <use xlink:href="#DejaVuSans-74" x="496.550781"/>
      <use xlink:href="#DejaVuSans-20" x="535.759766"/>
      <use xlink:href="#DejaVuSans-28" x="567.546875"/>
      <use xlink:href="#DejaVuSans-6e" x="606.560547"/>
      <use xlink:href="#DejaVuSans-3d" x="669.939453"/>
      <use xlink:href="#DejaVuSans-31" x="753.728516"/>
      <use xlink:href="#DejaVuSans-35" x="817.351562"/>
      <use xlink:href="#DejaVuSans-34" x="880.974609"/>
      <use xlink:href="#DejaVuSans-30" x="944.597656"/>
      <use xlink:href="#DejaVuSans-29" x="1008.220703"/>
     </g>
    </g>
   </g>
  </g>
 </g>
 <defs>
  <clipPath id="pd083913043">
   <rect x="46.64" y="71.732" width="366.930499" height="246.308"/>
  </clipPath>
 </defs>
</svg>
