<?xml version="1.0" encoding="utf-8" standalone="no"?>
<!DOCTYPE svg PUBLIC "-//W3C//DTD SVG 1.1//EN"
  "http://www.w3.org/Graphics/SVG/1.1/DTD/svg11.dtd">
<svg xmlns:xlink="http://www.w3.org/1999/xlink" width="432pt" height="360pt" viewBox="0 0 432 360" xmlns="http://www.w3.org/2000/svg" version="1.1">
 <metadata>
  <rdf:RDF xmlns:dc="http://purl.org/dc/elements/1.1/" xmlns:cc="http://creativecommons.org/ns#" xmlns:rdf="http://www.w3.org/1999/02/22-rdf-syntax-ns#">
   <cc:Work>
    <dc:type rdf:resource="http://purl.org/dc/dcmitype/StillImage"/>
    <dc:date>2022-05-19T11:52:26.161811</dc:date>
    <dc:format>image/svg+xml</dc:format>
    <dc:creator>
     <cc:Agent>
      <dc:title>Matplotlib v3.5.1, https://matplotlib.org/</dc:title>
     </cc:Agent>
    </dc:creator>
   </cc:Work>
  </rdf:RDF>
 </metadata>
 <defs>
  <style type="text/css">*{stroke-linejoin: round; stroke-linecap: butt}</style>
 </defs>
 <g id="figure_1">
  <g id="patch_1">
   <path d="M 0 360 
L 432 360 
L 432 0 
L 0 0 
L 0 360 
z
" style="fill: none"/>
  </g>
  <g id="axes_1">
   <g id="patch_2">
    <path d="M 46.64 318.04 
L 413.570499 318.04 
L 413.570499 71.732 
L 46.64 71.732 
L 46.64 318.04 
z
" style="fill: none"/>
   </g>
   <g id="PolyCollection_1">
    <defs>
     <path id="mad66b916a4" d="M 46.64 -99.967474 
L 46.64 -53.867448 
L 47.435945 -58.095403 
L 48.231889 -64.37083 
L 49.027834 -71.083063 
L 49.823779 -76.930354 
L 50.619723 -81.277419 
L 51.415668 -84.037983 
L 52.211613 -85.484894 
L 53.007557 -86.116612 
L 53.803502 -86.510817 
L 54.599447 -87.18322 
L 55.395392 -88.550364 
L 56.191336 -90.956828 
L 56.987281 -94.581591 
L 57.783226 -99.24374 
L 58.57917 -104.337813 
L 59.375115 -109.037943 
L 60.17106 -112.702457 
L 60.967004 -115.144412 
L 61.762949 -116.467257 
L 62.558894 -116.731255 
L 63.354838 -115.920251 
L 64.150783 -114.215932 
L 64.946728 -112.165578 
L 65.742672 -110.476578 
L 66.538617 -109.681808 
L 67.334562 -110.011281 
L 68.130506 -111.436801 
L 68.926451 -113.630119 
L 69.722396 -115.841192 
L 70.51834 -117.004192 
L 71.314285 -116.200658 
L 72.11023 -113.179779 
L 72.906175 -108.478929 
L 73.702119 -103.106601 
L 74.498064 -98.132944 
L 75.294009 -94.390379 
L 76.089953 -92.248942 
L 76.885898 -91.440143 
L 77.681843 -91.064705 
L 78.477787 -89.962014 
L 79.273732 -87.37518 
L 80.069677 -83.418013 
L 80.865621 -78.915643 
L 81.661566 -74.883772 
L 82.457511 -72.133257 
L 83.253455 -71.148909 
L 84.0494 -72.067414 
L 84.845345 -74.564966 
L 85.641289 -77.781131 
L 86.437234 -80.527514 
L 87.233179 -81.808645 
L 88.029124 -81.384651 
L 88.825068 -79.930187 
L 89.621013 -78.635155 
L 90.416958 -78.587406 
L 91.212902 -80.316608 
L 92.008847 -83.653365 
L 92.804792 -87.901601 
L 93.600736 -92.190665 
L 94.396681 -95.781442 
L 95.192626 -98.189367 
L 95.98857 -99.175535 
L 96.784515 -98.726583 
L 97.58046 -97.089034 
L 98.376404 -94.807679 
L 99.172349 -92.62667 
L 99.968294 -91.223448 
L 100.764238 -90.94957 
L 101.560183 -91.757537 
L 102.356128 -93.346221 
L 103.152073 -95.40661 
L 103.948017 -97.757871 
L 104.743962 -100.266641 
L 105.539907 -102.675281 
L 106.335851 -104.525738 
L 107.131796 -105.250651 
L 107.927741 -104.40248 
L 108.723685 -101.916251 
L 109.51963 -98.219148 
L 110.315575 -94.060338 
L 111.111519 -90.174887 
L 111.907464 -87.015901 
L 112.703409 -84.685468 
L 113.499353 -83.04702 
L 114.295298 -81.905297 
L 115.091243 -81.127937 
L 115.887187 -80.664862 
L 116.683132 -80.51647 
L 117.479077 -80.719222 
L 118.275021 -81.360103 
L 119.070966 -82.562643 
L 119.866911 -84.392271 
L 120.662856 -86.727002 
L 121.4588 -89.212783 
L 122.254745 -91.377445 
L 123.05069 -92.849403 
L 123.846634 -93.509285 
L 124.642579 -93.436146 
L 125.438524 -92.720866 
L 126.234468 -91.346096 
L 127.030413 -89.223142 
L 127.826358 -86.311718 
L 128.622302 -82.706207 
L 129.418247 -78.644707 
L 130.214192 -74.473081 
L 131.010136 -70.602339 
L 131.806081 -67.448486 
L 132.602026 -65.31271 
L 133.39797 -64.221788 
L 134.193915 -63.850063 
L 134.98986 -63.639486 
L 135.785805 -63.10329 
L 136.581749 -62.144055 
L 137.377694 -61.163223 
L 138.173639 -60.869925 
L 138.969583 -61.914403 
L 139.765528 -64.571206 
L 140.561473 -68.624479 
L 141.357417 -73.456489 
L 142.153362 -78.241986 
L 142.949307 -82.179293 
L 143.745251 -84.745271 
L 144.541196 -85.906206 
L 145.337141 -86.130778 
L 146.133085 -86.124219 
L 146.92903 -86.411727 
L 147.724975 -87.024898 
L 148.520919 -87.480406 
L 149.316864 -87.05805 
L 150.112809 -85.205865 
L 150.908753 -81.845777 
L 151.704698 -77.454309 
L 152.500643 -72.918763 
L 153.296588 -69.233183 
L 154.092532 -67.151019 
L 154.888477 -66.951274 
L 155.684422 -68.419801 
L 156.480366 -71.006644 
L 157.276311 -74.03993 
L 158.072256 -76.930444 
L 158.8682 -79.367531 
L 159.664145 -81.471141 
L 160.46009 -83.768586 
L 161.256034 -86.882542 
L 162.051979 -91.056565 
L 162.847924 -95.859814 
L 163.643868 -100.312187 
L 164.439813 -103.353342 
L 165.235758 -104.338536 
L 166.031702 -103.284958 
L 166.827647 -100.829911 
L 167.623592 -98.006591 
L 168.419537 -95.913255 
L 169.215481 -95.319296 
L 170.011426 -96.331996 
L 170.807371 -98.32592 
L 171.603315 -100.233748 
L 172.39926 -101.060132 
L 173.195205 -100.339808 
L 173.991149 -98.336771 
L 174.787094 -95.949096 
L 175.583039 -94.378781 
L 176.378983 -94.654324 
L 177.174928 -97.149139 
L 177.970873 -101.309946 
L 178.766817 -105.775357 
L 179.562762 -108.874746 
L 180.358707 -109.268186 
L 181.154651 -106.416428 
L 181.950596 -100.720949 
L 182.746541 -93.365465 
L 183.542485 -85.950781 
L 184.33843 -80.012636 
L 185.134375 -76.560392 
L 185.93032 -75.824179 
L 186.726264 -77.330555 
L 187.522209 -80.239222 
L 188.318154 -83.71449 
L 189.114098 -87.134964 
L 189.910043 -90.1206 
L 190.705988 -92.472185 
L 191.501932 -94.102492 
L 192.297877 -94.9867 
L 193.093822 -95.142761 
L 193.889766 -94.651727 
L 194.685711 -93.703422 
L 195.481656 -92.618952 
L 196.2776 -91.811639 
L 197.073545 -91.702625 
L 197.86949 -92.636257 
L 198.665434 -94.799188 
L 199.461379 -98.109382 
L 200.257324 -102.110873 
L 201.053269 -106.007291 
L 201.849213 -108.915346 
L 202.645158 -110.231523 
L 203.441103 -109.873639 
L 204.237047 -108.242484 
L 205.032992 -105.970941 
L 205.828937 -103.651109 
L 206.624881 -101.67179 
L 207.420826 -100.166992 
L 208.216771 -99.008036 
L 209.012715 -97.8286 
L 209.80866 -96.148074 
L 210.604605 -93.608516 
L 211.400549 -90.211251 
L 212.196494 -86.398674 
L 212.992439 -82.929844 
L 213.788383 -80.627649 
L 214.584328 -80.113673 
L 215.380273 -81.611649 
L 216.176218 -84.866455 
L 216.972162 -89.210304 
L 217.768107 -93.763656 
L 218.564052 -97.680716 
L 219.359996 -100.333236 
L 220.155941 -101.408191 
L 220.951886 -100.961476 
L 221.74783 -99.44818 
L 222.543775 -97.68789 
L 223.33972 -96.693523 
L 224.135664 -97.353355 
L 224.931609 -100.087533 
L 225.727554 -104.664752 
L 226.523498 -110.276324 
L 227.319443 -115.812131 
L 228.115388 -120.20325 
L 228.911332 -122.718691 
L 229.707277 -123.150653 
L 230.503222 -121.842491 
L 231.299166 -119.541841 
L 232.095111 -117.12521 
L 232.891056 -115.300276 
L 233.687001 -114.398303 
L 234.482945 -114.321393 
L 235.27889 -114.648969 
L 236.074835 -114.862531 
L 236.870779 -114.606548 
L 237.666724 -113.871684 
L 238.462669 -113.012402 
L 239.258613 -112.598856 
L 240.054558 -113.182237 
L 240.850503 -115.074449 
L 241.646447 -118.222493 
L 242.442392 -122.222438 
L 243.238337 -126.471499 
L 244.034281 -130.39525 
L 244.830226 -133.633815 
L 245.626171 -136.085362 
L 246.422115 -137.804941 
L 247.21806 -138.858029 
L 248.014005 -139.242244 
L 248.80995 -138.918909 
L 249.605894 -137.907188 
L 250.401839 -136.368465 
L 251.197784 -134.654278 
L 251.993728 -133.318635 
L 252.789673 -133.066848 
L 253.585618 -134.598832 
L 254.381562 -138.360614 
L 255.177507 -144.302857 
L 255.973452 -151.774465 
L 256.769396 -159.621812 
L 257.565341 -166.471373 
L 258.361286 -171.111586 
L 259.15723 -172.869969 
L 259.953175 -171.873294 
L 260.74912 -169.080362 
L 261.545064 -166.025962 
L 262.341009 -164.328768 
L 263.136954 -165.142128 
L 263.932898 -168.770248 
L 264.728843 -174.593379 
L 265.524788 -181.303877 
L 266.320733 -187.342513 
L 267.116677 -191.381372 
L 267.912622 -192.705031 
L 268.708567 -191.373898 
L 269.504511 -188.121521 
L 270.300456 -184.039914 
L 271.096401 -180.197157 
L 271.892345 -177.346868 
L 272.68829 -175.816876 
L 273.484235 -175.566095 
L 274.280179 -176.340318 
L 275.076124 -177.843781 
L 275.872069 -179.852933 
L 276.668013 -182.230569 
L 277.463958 -184.852582 
L 278.259903 -187.510021 
L 279.055847 -189.861282 
L 279.851792 -191.477237 
L 280.647737 -191.971814 
L 281.443682 -191.167688 
L 282.239626 -189.221361 
L 283.035571 -186.630945 
L 283.831516 -184.087114 
L 284.62746 -182.208296 
L 285.423405 -181.2845 
L 286.21935 -181.162592 
L 287.015294 -181.318773 
L 287.811239 -181.068665 
L 288.607184 -179.837593 
L 289.403128 -177.417229 
L 290.199073 -174.123009 
L 290.995018 -170.766927 
L 291.790962 -168.414087 
L 292.586907 -167.995276 
L 293.382852 -169.93676 
L 294.178796 -173.961097 
L 294.974741 -179.117619 
L 295.770686 -184.01389 
L 296.56663 -187.185969 
L 297.362575 -187.527829 
L 298.15852 -184.667746 
L 298.954465 -179.144432 
L 299.750409 -172.259148 
L 300.546354 -165.626858 
L 301.342299 -160.632374 
L 302.138243 -158.027446 
L 302.934188 -157.780074 
L 303.730133 -159.167776 
L 304.526077 -161.066629 
L 305.322022 -162.372694 
L 306.117967 -162.434759 
L 306.913911 -161.306643 
L 307.709856 -159.671822 
L 308.505801 -158.486857 
L 309.301745 -158.553455 
L 310.09769 -160.223874 
L 310.893635 -163.328979 
L 311.689579 -167.291271 
L 312.485524 -171.316041 
L 313.281469 -174.582379 
L 314.077414 -176.427932 
L 314.873358 -176.532115 
L 315.669303 -175.037328 
L 316.465248 -172.500383 
L 317.261192 -169.63454 
L 318.057137 -166.960421 
L 318.853082 -164.579751 
L 319.649026 -162.216864 
L 320.444971 -159.476068 
L 321.240916 -156.096407 
L 322.03686 -152.04468 
L 322.832805 -147.509289 
L 323.62875 -142.926119 
L 324.424694 -139.004141 
L 325.220639 -136.584818 
L 326.016584 -136.296957 
L 326.812528 -138.214337 
L 327.608473 -141.767157 
L 328.404418 -145.974703 
L 329.200363 -149.846536 
L 329.996307 -152.700953 
L 330.792252 -154.253109 
L 331.588197 -154.528837 
L 332.384141 -153.742719 
L 333.180086 -152.205418 
L 333.976031 -150.245703 
L 334.771975 -148.138704 
L 335.56792 -146.07443 
L 336.363865 -144.195657 
L 337.159809 -142.684518 
L 337.955754 -141.835985 
L 338.751699 -142.046718 
L 339.547643 -143.672684 
L 340.343588 -146.78255 
L 341.139533 -150.937976 
L 341.935477 -155.179267 
L 342.731422 -158.309595 
L 343.527367 -159.378359 
L 344.323311 -158.101734 
L 345.119256 -154.988401 
L 345.915201 -151.141809 
L 346.711146 -147.881822 
L 347.50709 -146.357408 
L 348.303035 -147.252473 
L 349.09898 -150.600258 
L 349.894924 -155.713438 
L 350.690869 -161.30507 
L 351.486814 -165.856561 
L 352.282758 -168.129739 
L 353.078703 -167.592095 
L 353.874648 -164.563479 
L 354.670592 -160.048455 
L 355.466537 -155.3548 
L 356.262482 -151.647926 
L 357.058426 -149.583555 
L 357.854371 -149.134279 
L 358.650316 -149.671144 
L 359.44626 -150.271292 
L 360.242205 -150.134444 
L 361.03815 -148.949041 
L 361.834095 -147.060309 
L 362.630039 -145.354987 
L 363.425984 -144.894781 
L 364.221929 -146.460116 
L 365.017873 -150.216848 
L 365.813818 -155.647352 
L 366.609763 -161.744473 
L 367.405707 -167.348758 
L 368.201652 -171.484408 
L 368.997597 -173.598452 
L 369.793541 -173.657809 
L 370.589486 -172.089966 
L 371.385431 -169.600015 
L 372.181375 -166.952915 
L 372.97732 -164.813405 
L 373.773265 -163.669877 
L 374.569209 -163.803859 
L 375.365154 -165.268393 
L 376.161099 -167.881436 
L 376.957043 -171.262265 
L 377.752988 -174.916141 
L 378.548933 -178.329018 
L 379.344878 -181.028807 
L 380.140822 -182.625637 
L 380.936767 -182.878852 
L 381.732712 -181.790979 
L 382.528656 -179.667784 
L 383.324601 -177.082934 
L 384.120546 -174.728997 
L 384.91649 -173.186692 
L 385.712435 -172.694777 
L 386.50838 -173.037887 
L 387.304324 -173.640133 
L 388.100269 -173.838269 
L 388.896214 -173.188313 
L 389.692158 -171.65119 
L 390.488103 -169.60436 
L 391.284048 -167.715684 
L 392.079992 -166.725349 
L 392.875937 -167.164257 
L 393.671882 -169.074431 
L 394.467827 -171.871792 
L 395.263771 -174.480898 
L 396.059716 -175.723145 
L 396.855661 -174.77562 
L 397.651605 -171.489492 
L 398.44755 -166.463099 
L 399.243495 -160.872841 
L 400.039439 -156.109451 
L 400.835384 -153.309508 
L 401.631329 -152.94529 
L 402.427273 -154.661537 
L 403.223218 -157.449282 
L 404.019163 -160.065238 
L 404.815107 -161.474693 
L 405.611052 -161.130619 
L 406.406997 -159.050994 
L 407.202941 -155.749742 
L 407.998886 -152.063551 
L 408.794831 -148.8966 
L 409.590775 -146.943333 
L 410.38672 -146.498225 
L 411.182665 -147.439283 
L 411.97861 -149.367379 
L 412.774554 -151.778623 
L 413.570499 -154.152332 
L 413.570499 -253.195215 
L 413.570499 -253.195215 
L 412.774554 -250.325738 
L 411.97861 -247.367266 
L 411.182665 -245.268086 
L 410.38672 -244.683658 
L 409.590775 -245.81295 
L 408.794831 -248.4031 
L 407.998886 -251.856226 
L 407.202941 -255.363516 
L 406.406997 -258.06158 
L 405.611052 -259.240754 
L 404.815107 -258.584954 
L 404.019163 -256.337612 
L 403.223218 -253.27041 
L 402.427273 -250.434661 
L 401.631329 -248.815923 
L 400.835384 -249.043722 
L 400.039439 -251.223017 
L 399.243495 -254.890166 
L 398.44755 -259.108472 
L 397.651605 -262.727166 
L 396.855661 -264.76335 
L 396.059716 -264.761669 
L 395.263771 -262.953661 
L 394.467827 -260.143206 
L 393.671882 -257.397107 
L 392.875937 -255.679679 
L 392.079992 -255.535768 
L 391.284048 -256.903143 
L 390.488103 -259.143946 
L 389.692158 -261.334092 
L 388.896214 -262.70232 
L 388.100269 -262.988658 
L 387.304324 -262.529131 
L 386.50838 -262.045985 
L 385.712435 -262.290494 
L 384.91649 -263.723862 
L 384.120546 -266.339725 
L 383.324601 -269.652069 
L 382.528656 -272.845766 
L 381.732712 -275.051832 
L 380.936767 -275.648038 
L 380.140822 -274.462361 
L 379.344878 -271.80473 
L 378.548933 -268.328941 
L 377.752988 -264.785318 
L 376.957043 -261.764039 
L 376.161099 -259.54788 
L 375.365154 -258.146462 
L 374.569209 -257.462514 
L 373.773265 -257.445967 
L 372.97732 -258.115652 
L 372.181375 -259.442045 
L 371.385431 -261.192581 
L 370.589486 -262.864503 
L 369.793541 -263.762997 
L 368.997597 -263.196928 
L 368.201652 -260.722566 
L 367.405707 -256.352631 
L 366.609763 -250.637593 
L 365.813818 -244.549407 
L 365.017873 -239.186169 
L 364.221929 -235.420992 
L 363.425984 -233.647727 
L 362.630039 -233.708797 
L 361.834095 -234.999716 
L 361.03815 -236.697473 
L 360.242205 -238.049896 
L 359.44626 -238.649973 
L 358.650316 -238.595767 
L 357.854371 -238.448158 
L 357.058426 -238.975885 
L 356.262482 -240.779501 
L 355.466537 -243.950026 
L 354.670592 -247.917371 
L 353.874648 -251.578571 
L 353.078703 -253.678453 
L 352.282758 -253.291577 
L 351.486814 -250.200904 
L 350.690869 -245.027469 
L 349.894924 -239.085371 
L 349.09898 -234.01918 
L 348.303035 -231.304026 
L 347.50709 -231.728321 
L 346.711146 -235.062746 
L 345.915201 -240.121372 
L 345.119256 -245.22883 
L 344.323311 -248.858905 
L 343.527367 -250.13054 
L 342.731422 -248.966393 
L 341.935477 -245.930754 
L 341.139533 -241.926762 
L 340.343588 -237.921739 
L 339.547643 -234.739388 
L 338.751699 -232.895174 
L 337.955754 -232.492959 
L 337.159809 -233.240753 
L 336.363865 -234.610929 
L 335.56792 -236.080037 
L 334.771975 -237.320589 
L 333.976031 -238.249224 
L 333.180086 -238.926487 
L 332.384141 -239.383106 
L 331.588197 -239.489818 
L 330.792252 -238.975203 
L 329.996307 -237.600733 
L 329.200363 -235.367601 
L 328.404418 -232.58757 
L 327.608473 -229.769346 
L 326.812528 -227.438241 
L 326.016584 -226.028099 
L 325.220639 -225.854558 
L 324.424694 -227.084743 
L 323.62875 -229.654801 
L 322.832805 -233.20016 
L 322.03686 -237.141407 
L 321.240916 -240.963949 
L 320.444971 -244.492383 
L 319.649026 -247.904987 
L 318.853082 -251.47093 
L 318.057137 -255.253893 
L 317.261192 -259.01398 
L 316.465248 -262.304094 
L 315.669303 -264.614665 
L 314.873358 -265.480909 
L 314.077414 -264.578118 
L 313.281469 -261.853597 
L 312.485524 -257.658815 
L 311.689579 -252.75941 
L 310.893635 -248.13759 
L 310.09769 -244.646657 
L 309.301745 -242.701316 
L 308.505801 -242.17488 
L 307.709856 -242.534748 
L 306.913911 -243.111222 
L 306.117967 -243.355679 
L 305.322022 -242.993943 
L 304.526077 -242.076589 
L 303.730133 -240.982546 
L 302.934188 -240.372351 
L 302.138243 -241.021092 
L 301.342299 -243.528845 
L 300.546354 -248.030726 
L 299.750409 -254.057746 
L 298.954465 -260.611015 
L 298.15852 -266.401293 
L 297.362575 -270.17525 
L 296.56663 -271.080291 
L 295.770686 -268.992273 
L 294.974741 -264.652328 
L 294.178796 -259.484187 
L 293.382852 -255.121426 
L 292.586907 -252.837758 
L 291.790962 -253.126684 
L 290.995018 -255.591614 
L 290.199073 -259.156845 
L 289.403128 -262.497671 
L 288.607184 -264.539478 
L 287.811239 -264.856257 
L 287.015294 -263.812735 
L 286.21935 -262.377757 
L 285.423405 -261.681217 
L 284.62746 -262.519892 
L 283.831516 -265.041978 
L 283.035571 -268.724948 
L 282.239626 -272.606088 
L 281.443682 -275.643333 
L 280.647737 -277.072182 
L 279.851792 -276.63663 
L 279.055847 -274.612723 
L 278.259903 -271.626363 
L 277.463958 -268.362725 
L 276.668013 -265.315063 
L 275.872069 -262.688299 
L 275.076124 -260.478852 
L 274.280179 -258.65945 
L 273.484235 -257.350689 
L 272.68829 -256.868269 
L 271.892345 -257.595519 
L 271.096401 -259.729145 
L 270.300456 -263.032821 
L 269.504511 -266.747789 
L 268.708567 -269.735463 
L 267.912622 -270.815558 
L 267.116677 -269.181002 
L 266.320733 -264.739569 
L 265.524788 -258.243218 
L 264.728843 -251.121747 
L 263.932898 -245.044821 
L 263.136954 -241.364641 
L 262.341009 -240.660173 
L 261.545064 -242.555391 
L 260.74912 -245.856796 
L 259.953175 -248.940112 
L 259.15723 -250.256756 
L 258.361286 -248.81077 
L 257.565341 -244.457512 
L 256.769396 -237.914708 
L 255.973452 -230.476456 
L 255.177507 -223.550287 
L 254.381562 -218.215623 
L 253.585618 -214.969178 
L 252.789673 -213.709645 
L 251.993728 -213.909919 
L 251.197784 -214.879851 
L 250.401839 -216.020261 
L 249.605894 -216.981311 
L 248.80995 -217.666668 
L 248.014005 -218.091805 
L 247.21806 -218.199898 
L 246.422115 -217.780758 
L 245.626171 -216.555905 
L 244.830226 -214.355113 
L 244.034281 -211.251979 
L 243.238337 -207.574268 
L 242.442392 -203.795921 
L 241.646447 -200.381833 
L 240.850503 -197.653402 
L 240.054558 -195.705715 
L 239.258613 -194.395096 
L 238.462669 -193.415426 
L 237.666724 -192.449924 
L 236.870779 -191.335071 
L 236.074835 -190.157085 
L 235.27889 -189.238353 
L 234.482945 -189.023869 
L 233.687001 -189.90318 
L 232.891056 -192.013682 
L 232.095111 -195.095697 
L 231.299166 -198.479246 
L 230.503222 -201.2347 
L 229.707277 -202.440712 
L 228.911332 -201.474142 
L 228.115388 -198.228357 
L 227.319443 -193.190833 
L 226.523498 -187.338699 
L 225.727554 -181.863826 
L 224.931609 -177.82235 
L 224.135664 -175.848154 
L 223.33972 -176.0157 
L 222.543775 -177.843623 
L 221.74783 -180.401149 
L 220.951886 -182.518398 
L 220.155941 -183.110279 
L 219.359996 -181.542898 
L 218.564052 -177.883298 
L 217.768107 -172.892604 
L 216.972162 -167.748461 
L 216.176218 -163.628371 
L 215.380273 -161.349831 
L 214.584328 -161.192387 
L 213.788383 -162.904173 
L 212.992439 -165.844279 
L 212.196494 -169.21279 
L 211.400549 -172.301608 
L 210.604605 -174.677978 
L 209.80866 -176.24455 
L 209.012715 -177.197833 
L 208.216771 -177.943793 
L 207.420826 -178.977448 
L 206.624881 -180.690728 
L 205.828937 -183.143807 
L 205.032992 -185.945121 
L 204.237047 -188.365245 
L 203.441103 -189.641165 
L 202.645158 -189.286024 
L 201.849213 -187.23708 
L 201.053269 -183.81734 
L 200.257324 -179.619001 
L 199.461379 -175.399596 
L 198.665434 -171.957342 
L 197.86949 -169.92387 
L 197.073545 -169.529621 
L 196.2776 -170.503575 
L 195.481656 -172.211401 
L 194.685711 -173.948031 
L 193.889766 -175.19212 
L 193.093822 -175.698443 
L 192.297877 -175.434809 
L 191.501932 -174.444892 
L 190.705988 -172.728091 
L 189.910043 -170.211992 
L 189.114098 -166.855313 
L 188.318154 -162.83685 
L 187.522209 -158.697394 
L 186.726264 -155.299057 
L 185.93032 -153.583672 
L 185.134375 -154.254397 
L 184.33843 -157.528554 
L 183.542485 -163.019511 
L 182.746541 -169.751292 
L 181.950596 -176.336045 
L 181.154651 -181.340697 
L 180.358707 -183.759188 
L 179.562762 -183.374548 
L 178.766817 -180.809149 
L 177.970873 -177.250727 
L 177.174928 -174.019533 
L 176.378983 -172.148243 
L 175.583039 -172.068073 
L 174.787094 -173.473932 
L 173.991149 -175.448928 
L 173.195205 -176.859523 
L 172.39926 -176.873734 
L 171.603315 -175.337409 
L 170.807371 -172.812784 
L 170.011426 -170.296701 
L 169.215481 -168.794845 
L 168.419537 -168.925302 
L 167.623592 -170.656088 
L 166.827647 -173.262796 
L 166.031702 -175.578888 
L 165.235758 -176.485632 
L 164.439813 -175.395154 
L 163.643868 -172.438666 
L 162.847924 -168.281929 
L 162.051979 -163.761889 
L 161.256034 -159.589688 
L 160.46009 -156.191487 
L 159.664145 -153.630639 
L 158.8682 -151.598302 
L 158.072256 -149.557814 
L 157.276311 -147.085138 
L 156.480366 -144.226148 
L 155.684422 -141.581754 
L 154.888477 -140.021419 
L 154.092532 -140.21198 
L 153.296588 -142.268099 
L 152.500643 -145.707608 
L 151.704698 -149.679049 
L 150.908753 -153.312332 
L 150.112809 -156.036424 
L 149.316864 -157.733235 
L 148.520919 -158.657743 
L 147.724975 -159.181816 
L 146.92903 -159.533854 
L 146.133085 -159.679625 
L 145.337141 -159.361692 
L 144.541196 -158.229509 
L 143.745251 -155.988673 
L 142.949307 -152.538342 
L 142.153362 -148.090572 
L 141.357417 -143.21815 
L 140.561473 -138.728975 
L 139.765528 -135.357261 
L 138.969583 -133.444396 
L 138.173639 -132.828983 
L 137.377694 -132.999158 
L 136.581749 -133.369937 
L 135.785805 -133.510685 
L 134.98986 -133.244782 
L 134.193915 -132.658882 
L 133.39797 -132.079223 
L 132.602026 -131.999814 
L 131.806081 -132.917431 
L 131.010136 -135.099885 
L 130.214192 -138.406491 
L 129.418247 -142.297107 
L 128.622302 -146.054532 
L 127.826358 -149.079658 
L 127.030413 -151.073588 
L 126.234468 -152.031182 
L 125.438524 -152.114463 
L 124.642579 -151.53543 
L 123.846634 -150.515633 
L 123.05069 -149.276173 
L 122.254745 -147.983857 
L 121.4588 -146.682272 
L 120.662856 -145.320574 
L 119.866911 -143.889077 
L 119.070966 -142.520459 
L 118.275021 -141.444112 
L 117.479077 -140.826014 
L 116.683132 -140.634638 
L 115.887187 -140.664182 
L 115.091243 -140.708827 
L 114.295298 -140.7428 
L 113.499353 -140.962115 
L 112.703409 -141.66121 
L 111.907464 -143.042074 
L 111.111519 -145.094009 
L 110.315575 -147.608759 
L 109.51963 -150.284444 
L 108.723685 -152.81889 
L 107.927741 -154.918652 
L 107.131796 -156.251219 
L 106.335851 -156.470229 
L 105.539907 -155.368948 
L 104.743962 -153.041761 
L 103.948017 -149.923444 
L 103.152073 -146.679011 
L 102.356128 -143.978365 
L 101.560183 -142.246531 
L 100.764238 -141.549805 
L 99.968294 -141.702915 
L 99.172349 -142.469124 
L 98.376404 -143.65824 
L 97.58046 -145.053106 
L 96.784515 -146.254802 
L 95.98857 -146.650953 
L 95.192626 -145.643373 
L 94.396681 -143.003316 
L 93.600736 -139.079493 
L 92.804792 -134.70151 
L 92.008847 -130.822064 
L 91.212902 -128.107489 
L 90.416958 -126.708485 
L 89.621013 -126.284929 
L 88.825068 -126.213241 
L 88.029124 -125.861106 
L 87.233179 -124.78797 
L 86.437234 -122.779434 
L 85.641289 -119.838773 
L 84.845345 -116.310578 
L 84.0494 -112.980029 
L 83.253455 -110.873451 
L 82.457511 -110.767663 
L 81.661566 -112.709313 
L 80.865621 -115.955522 
L 80.069677 -119.444904 
L 79.273732 -122.412339 
L 78.477787 -124.675187 
L 77.681843 -126.465176 
L 76.885898 -128.151418 
L 76.089953 -130.17158 
L 75.294009 -132.969149 
L 74.498064 -136.745318 
L 73.702119 -141.208759 
L 72.906175 -145.600067 
L 72.11023 -149.040613 
L 71.314285 -150.946105 
L 70.51834 -151.186732 
L 69.722396 -149.983206 
L 68.926451 -147.822977 
L 68.130506 -145.462992 
L 67.334562 -143.776938 
L 66.538617 -143.378279 
L 65.742672 -144.30327 
L 64.946728 -146.087021 
L 64.150783 -148.140443 
L 63.354838 -150.003948 
L 62.558894 -151.297275 
L 61.762949 -151.63341 
L 60.967004 -150.764874 
L 60.17106 -148.779069 
L 59.375115 -146.01639 
L 58.57917 -142.754788 
L 57.783226 -139.091707 
L 56.987281 -135.202484 
L 56.191336 -131.600537 
L 55.395392 -129.055191 
L 54.599447 -128.174063 
L 53.803502 -128.932193 
L 53.007557 -130.528487 
L 52.211613 -131.668966 
L 51.415668 -131.05309 
L 50.619723 -127.87055 
L 49.823779 -122.187784 
L 49.027834 -115.037144 
L 48.231889 -108.033169 
L 47.435945 -102.683399 
L 46.64 -99.967474 
z
" style="stroke: #e41a1c; stroke-opacity: 0.3"/>
    </defs>
    <g clip-path="url(#pbef220b345)">
     <use xlink:href="#mad66b916a4" x="0" y="360" style="fill: #e41a1c; fill-opacity: 0.3; stroke: #e41a1c; stroke-opacity: 0.3"/>
    </g>
   </g>
   <g id="PolyCollection_2">
    <defs>
     <path id="m54647ad847" d="M 46.64 -124.052974 
L 46.64 -103.837437 
L 47.435945 -105.458842 
L 48.231889 -106.891094 
L 49.027834 -107.543163 
L 49.823779 -107.075356 
L 50.619723 -105.460689 
L 51.415668 -102.946702 
L 52.211613 -100.017537 
L 53.007557 -97.333236 
L 53.803502 -95.557827 
L 54.599447 -95.094752 
L 55.395392 -95.90232 
L 56.191336 -97.538974 
L 56.987281 -99.414061 
L 57.783226 -101.050201 
L 58.57917 -102.186729 
L 59.375115 -102.753176 
L 60.17106 -102.831261 
L 60.967004 -102.666085 
L 61.762949 -102.672343 
L 62.558894 -103.299851 
L 63.354838 -104.789115 
L 64.150783 -107.027458 
L 64.946728 -109.604824 
L 65.742672 -111.999329 
L 66.538617 -113.75626 
L 67.334562 -114.570092 
L 68.130506 -114.296401 
L 68.926451 -112.965112 
L 69.722396 -110.805712 
L 70.51834 -108.235667 
L 71.314285 -105.77744 
L 72.11023 -103.931746 
L 72.906175 -103.061331 
L 73.702119 -103.308463 
L 74.498064 -104.543239 
L 75.294009 -106.362038 
L 76.089953 -108.177397 
L 76.885898 -109.394254 
L 77.681843 -109.592704 
L 78.477787 -108.632691 
L 79.273732 -106.660047 
L 80.069677 -104.051132 
L 80.865621 -101.348524 
L 81.661566 -99.182418 
L 82.457511 -98.094339 
L 83.253455 -98.282909 
L 84.0494 -99.460399 
L 84.845345 -100.952793 
L 85.641289 -102.003808 
L 86.437234 -102.103338 
L 87.233179 -101.143237 
L 88.029124 -99.370162 
L 88.825068 -97.250181 
L 89.621013 -95.338418 
L 90.416958 -94.168393 
L 91.212902 -94.130617 
L 92.008847 -95.343003 
L 92.804792 -97.585745 
L 93.600736 -100.363408 
L 94.396681 -103.073263 
L 95.192626 -105.19594 
L 95.98857 -106.427169 
L 96.784515 -106.721667 
L 97.58046 -106.266785 
L 98.376404 -105.409966 
L 99.172349 -104.554849 
L 99.968294 -104.046673 
L 100.764238 -104.080871 
L 101.560183 -104.664068 
L 102.356128 -105.628739 
L 103.152073 -106.679335 
L 103.948017 -107.455741 
L 104.743962 -107.618461 
L 105.539907 -106.951473 
L 106.335851 -105.448729 
L 107.131796 -103.332933 
L 107.927741 -100.978641 
L 108.723685 -98.773435 
L 109.51963 -97.001758 
L 110.315575 -95.814239 
L 111.111519 -95.25555 
L 111.907464 -95.278391 
L 112.703409 -95.73922 
L 113.499353 -96.433974 
L 114.295298 -97.200795 
L 115.091243 -98.040611 
L 115.887187 -99.145517 
L 116.683132 -100.768447 
L 117.479077 -103.019504 
L 118.275021 -105.746283 
L 119.070966 -108.571581 
L 119.866911 -111.039334 
L 120.662856 -112.762553 
L 121.4588 -113.509775 
L 122.254745 -113.241721 
L 123.05069 -112.122262 
L 123.846634 -110.494716 
L 124.642579 -108.804229 
L 125.438524 -107.474181 
L 126.234468 -106.775757 
L 127.030413 -106.736203 
L 127.826358 -107.118322 
L 128.622302 -107.486243 
L 129.418247 -107.346261 
L 130.214192 -106.315514 
L 131.010136 -104.254101 
L 131.806081 -101.321479 
L 132.602026 -97.954718 
L 133.39797 -94.773409 
L 134.193915 -92.414991 
L 134.98986 -91.334365 
L 135.785805 -91.643323 
L 136.581749 -93.061192 
L 137.377694 -94.987585 
L 138.173639 -96.653581 
L 138.969583 -97.312842 
L 139.765528 -96.461227 
L 140.561473 -94.051281 
L 141.357417 -90.596982 
L 142.153362 -87.045527 
L 142.949307 -84.426902 
L 143.745251 -83.45935 
L 144.541196 -84.299503 
L 145.337141 -86.514853 
L 146.133085 -89.248703 
L 146.92903 -91.499985 
L 147.724975 -92.439134 
L 148.520919 -91.676572 
L 149.316864 -89.386334 
L 150.112809 -86.220747 
L 150.908753 -83.050728 
L 151.704698 -80.65396 
L 152.500643 -79.477933 
L 153.296588 -79.545367 
L 154.092532 -80.505995 
L 154.888477 -81.799372 
L 155.684422 -82.869056 
L 156.480366 -83.353127 
L 157.276311 -83.182734 
L 158.072256 -82.55778 
L 158.8682 -81.822217 
L 159.664145 -81.303325 
L 160.46009 -81.18986 
L 161.256034 -81.498018 
L 162.051979 -82.120778 
L 162.847924 -82.906084 
L 163.643868 -83.704552 
L 164.439813 -84.372662 
L 165.235758 -84.762576 
L 166.031702 -84.729018 
L 166.827647 -84.149901 
L 167.623592 -82.944758 
L 168.419537 -81.101754 
L 169.215481 -78.735191 
L 170.011426 -76.149955 
L 170.807371 -73.835959 
L 171.603315 -72.338956 
L 172.39926 -72.0555 
L 173.195205 -73.070548 
L 173.991149 -75.121486 
L 174.787094 -77.682786 
L 175.583039 -80.115977 
L 176.378983 -81.845181 
L 177.174928 -82.534809 
L 177.970873 -82.216409 
L 178.766817 -81.280495 
L 179.562762 -80.296499 
L 180.358707 -79.743377 
L 181.154651 -79.805076 
L 181.950596 -80.334799 
L 182.746541 -80.974928 
L 183.542485 -81.337758 
L 184.33843 -81.162223 
L 185.134375 -80.416859 
L 185.93032 -79.337594 
L 186.726264 -78.368971 
L 187.522209 -77.985498 
L 188.318154 -78.448497 
L 189.114098 -79.6368 
L 189.910043 -81.070227 
L 190.705988 -82.123042 
L 191.501932 -82.302081 
L 192.297877 -81.443741 
L 193.093822 -79.767051 
L 193.889766 -77.802806 
L 194.685711 -76.241623 
L 195.481656 -75.734228 
L 196.2776 -76.677024 
L 197.073545 -79.044809 
L 197.86949 -82.355119 
L 198.665434 -85.806478 
L 199.461379 -88.544779 
L 200.257324 -89.951214 
L 201.053269 -89.844042 
L 201.849213 -88.527307 
L 202.645158 -86.674086 
L 203.441103 -85.086079 
L 204.237047 -84.416948 
L 205.032992 -84.963527 
L 205.828937 -86.597738 
L 206.624881 -88.845913 
L 207.420826 -91.063451 
L 208.216771 -92.633243 
L 209.012715 -93.130297 
L 209.80866 -92.419394 
L 210.604605 -90.67243 
L 211.400549 -88.30146 
L 212.196494 -85.814139 
L 212.992439 -83.632774 
L 213.788383 -81.95794 
L 214.584328 -80.748666 
L 215.380273 -79.824934 
L 216.176218 -79.020788 
L 216.972162 -78.285754 
L 217.768107 -77.680639 
L 218.564052 -77.299379 
L 219.359996 -77.18731 
L 220.155941 -77.297041 
L 220.951886 -77.479444 
L 221.74783 -77.501663 
L 222.543775 -77.104274 
L 223.33972 -76.101538 
L 224.135664 -74.483125 
L 224.931609 -72.446901 
L 225.727554 -70.327068 
L 226.523498 -68.45496 
L 227.319443 -67.030025 
L 228.115388 -66.058487 
L 228.911332 -65.373629 
L 229.707277 -64.722849 
L 230.503222 -63.891834 
L 231.299166 -62.819098 
L 232.095111 -61.644337 
L 232.891056 -60.658084 
L 233.687001 -60.174903 
L 234.482945 -60.396247 
L 235.27889 -61.326976 
L 236.074835 -62.768357 
L 236.870779 -64.372253 
L 237.666724 -65.734829 
L 238.462669 -66.513166 
L 239.258613 -66.53631 
L 240.054558 -65.86605 
L 240.850503 -64.77109 
L 241.646447 -63.617899 
L 242.442392 -62.727828 
L 243.238337 -62.266977 
L 244.034281 -62.211933 
L 244.830226 -62.39353 
L 245.626171 -62.590278 
L 246.422115 -62.631167 
L 247.21806 -62.468875 
L 248.014005 -62.196217 
L 248.80995 -62.000413 
L 249.605894 -62.075695 
L 250.401839 -62.533189 
L 251.197784 -63.347157 
L 251.993728 -64.359156 
L 252.789673 -65.338019 
L 253.585618 -66.073456 
L 254.381562 -66.466509 
L 255.177507 -66.575368 
L 255.973452 -66.591297 
L 256.769396 -66.756688 
L 257.565341 -67.269511 
L 258.361286 -68.216057 
L 259.15723 -69.54282 
L 259.953175 -71.059259 
L 260.74912 -72.475682 
L 261.545064 -73.491071 
L 262.341009 -73.920132 
L 263.136954 -73.801147 
L 263.932898 -73.406907 
L 264.728843 -73.131233 
L 265.524788 -73.311844 
L 266.320733 -74.091084 
L 267.116677 -75.37567 
L 267.912622 -76.883719 
L 268.708567 -78.233305 
L 269.504511 -79.048626 
L 270.300456 -79.079242 
L 271.096401 -78.306082 
L 271.892345 -76.979988 
L 272.68829 -75.551659 
L 273.484235 -74.509469 
L 274.280179 -74.199972 
L 275.076124 -74.714242 
L 275.872069 -75.878771 
L 276.668013 -77.335083 
L 277.463958 -78.665109 
L 278.259903 -79.519963 
L 279.055847 -79.718853 
L 279.851792 -79.293584 
L 280.647737 -78.464588 
L 281.443682 -77.550068 
L 282.239626 -76.835379 
L 283.035571 -76.458689 
L 283.831516 -76.37225 
L 284.62746 -76.40068 
L 285.423405 -76.360834 
L 286.21935 -76.169375 
L 287.015294 -75.872441 
L 287.811239 -75.587842 
L 288.607184 -75.410219 
L 289.403128 -75.342415 
L 290.199073 -75.28302 
L 290.995018 -75.063533 
L 291.790962 -74.516607 
L 292.586907 -73.55534 
L 293.382852 -72.232584 
L 294.178796 -70.741753 
L 294.974741 -69.345381 
L 295.770686 -68.26725 
L 296.56663 -67.610778 
L 297.362575 -67.341522 
L 298.15852 -67.323383 
L 298.954465 -67.377102 
L 299.750409 -67.344849 
L 300.546354 -67.155746 
L 301.342299 -66.871438 
L 302.138243 -66.677455 
L 302.934188 -66.810772 
L 303.730133 -67.461167 
L 304.526077 -68.701028 
L 305.322022 -70.468086 
L 306.117967 -72.587971 
L 306.913911 -74.816322 
L 307.709856 -76.894737 
L 308.505801 -78.617255 
L 309.301745 -79.886047 
L 310.09769 -80.727302 
L 310.893635 -81.263345 
L 311.689579 -81.665906 
L 312.485524 -82.110669 
L 313.281469 -82.728982 
L 314.077414 -83.551674 
L 314.873358 -84.467924 
L 315.669303 -85.238946 
L 316.465248 -85.577594 
L 317.261192 -85.25372 
L 318.057137 -84.171157 
L 318.853082 -82.399004 
L 319.649026 -80.173219 
L 320.444971 -77.876151 
L 321.240916 -75.972283 
L 322.03686 -74.875435 
L 322.832805 -74.776652 
L 323.62875 -75.528918 
L 324.424694 -76.675575 
L 325.220639 -77.617257 
L 326.016584 -77.827166 
L 326.812528 -77.019407 
L 327.608473 -75.227792 
L 328.404418 -72.794207 
L 329.200363 -70.272689 
L 329.996307 -68.257759 
L 330.792252 -67.176418 
L 331.588197 -67.127922 
L 332.384141 -67.855046 
L 333.180086 -68.864155 
L 333.976031 -69.629806 
L 334.771975 -69.784613 
L 335.56792 -69.222935 
L 336.363865 -68.103274 
L 337.159809 -66.775365 
L 337.955754 -65.669282 
L 338.751699 -65.177739 
L 339.547643 -65.557295 
L 340.343588 -66.874088 
L 341.139533 -69.010559 
L 341.935477 -71.722554 
L 342.731422 -74.709382 
L 343.527367 -77.661242 
L 344.323311 -80.28128 
L 345.119256 -82.309717 
L 345.915201 -83.571092 
L 346.711146 -84.029369 
L 347.50709 -83.812048 
L 348.303035 -83.180735 
L 349.09898 -82.459547 
L 349.894924 -81.948129 
L 350.690869 -81.84104 
L 351.486814 -82.169231 
L 352.282758 -82.780076 
L 353.078703 -83.370509 
L 353.874648 -83.57289 
L 354.670592 -83.072053 
L 355.466537 -81.71887 
L 356.262482 -79.603448 
L 357.058426 -77.053951 
L 357.854371 -74.54141 
L 358.650316 -72.513963 
L 359.44626 -71.238119 
L 360.242205 -70.732314 
L 361.03815 -70.818179 
L 361.834095 -71.239117 
L 362.630039 -71.77086 
L 363.425984 -72.283626 
L 364.221929 -72.759033 
L 365.017873 -73.275796 
L 365.813818 -73.966794 
L 366.609763 -74.949273 
L 367.405707 -76.252302 
L 368.201652 -77.783412 
L 368.997597 -79.358452 
L 369.793541 -80.777401 
L 370.589486 -81.900423 
L 371.385431 -82.682027 
L 372.181375 -83.15023 
L 372.97732 -83.351154 
L 373.773265 -83.295108 
L 374.569209 -82.931599 
L 375.365154 -82.159768 
L 376.161099 -80.863566 
L 376.957043 -78.954656 
L 377.752988 -76.409382 
L 378.548933 -73.293232 
L 379.344878 -69.77126 
L 380.140822 -66.103083 
L 380.936767 -62.618224 
L 381.732712 -59.668132 
L 382.528656 -57.560341 
L 383.324601 -56.492801 
L 384.120546 -56.50888 
L 384.91649 -57.481143 
L 385.712435 -59.120003 
L 386.50838 -61.009097 
L 387.304324 -62.682063 
L 388.100269 -63.743624 
L 388.896214 -63.996539 
L 389.692158 -63.506581 
L 390.488103 -62.563822 
L 391.284048 -61.56399 
L 392.079992 -60.874532 
L 392.875937 -60.733247 
L 393.671882 -61.185574 
L 394.467827 -62.056414 
L 395.263771 -62.97778 
L 396.059716 -63.496636 
L 396.855661 -63.241794 
L 397.651605 -62.07768 
L 398.44755 -60.165599 
L 399.243495 -57.901357 
L 400.039439 -55.766068 
L 400.835384 -54.162622 
L 401.631329 -53.299758 
L 402.427273 -53.155818 
L 403.223218 -53.525526 
L 404.019163 -54.125407 
L 404.815107 -54.710652 
L 405.611052 -55.154342 
L 406.406997 -55.465211 
L 407.202941 -55.754942 
L 407.998886 -56.183629 
L 408.794831 -56.902344 
L 409.590775 -57.995045 
L 410.38672 -59.426203 
L 411.182665 -61.018864 
L 411.97861 -62.488491 
L 412.774554 -63.530758 
L 413.570499 -63.924667 
L 413.570499 -108.630728 
L 413.570499 -108.630728 
L 412.774554 -108.064746 
L 411.97861 -106.985158 
L 411.182665 -105.547093 
L 410.38672 -103.93165 
L 409.590775 -102.351391 
L 408.794831 -101.020905 
L 407.998886 -100.088806 
L 407.202941 -99.570459 
L 406.406997 -99.334084 
L 405.611052 -99.163795 
L 404.815107 -98.870801 
L 404.019163 -98.392739 
L 403.223218 -97.833466 
L 402.427273 -97.430895 
L 401.631329 -97.468817 
L 400.835384 -98.162798 
L 400.039439 -99.55907 
L 399.243495 -101.488212 
L 398.44755 -103.599468 
L 397.651605 -105.465372 
L 396.855661 -106.713257 
L 396.059716 -107.136274 
L 395.263771 -106.757238 
L 394.467827 -105.832878 
L 393.671882 -104.78556 
L 392.875937 -104.061656 
L 392.079992 -103.95566 
L 391.284048 -104.48178 
L 390.488103 -105.371196 
L 389.692158 -106.200886 
L 388.896214 -106.57454 
L 388.100269 -106.259053 
L 387.304324 -105.235374 
L 386.50838 -103.683857 
L 385.712435 -101.936578 
L 384.91649 -100.405353 
L 384.120546 -99.487645 
L 383.324601 -99.474286 
L 382.528656 -100.494549 
L 381.732712 -102.513971 
L 380.936767 -105.368198 
L 380.140822 -108.803663 
L 379.344878 -112.511031 
L 378.548933 -116.158951 
L 377.752988 -119.439648 
L 376.957043 -122.121983 
L 376.161099 -124.092054 
L 375.365154 -125.361833 
L 374.569209 -126.039851 
L 373.773265 -126.274948 
L 372.97732 -126.196671 
L 372.181375 -125.877141 
L 371.385431 -125.32739 
L 370.589486 -124.523643 
L 369.793541 -123.447244 
L 368.997597 -122.12048 
L 368.201652 -120.625573 
L 367.405707 -119.099773 
L 366.609763 -117.704276 
L 365.813818 -116.571988 
L 365.017873 -115.751511 
L 364.221929 -115.177874 
L 363.425984 -114.701612 
L 362.630039 -114.180296 
L 361.834095 -113.587352 
L 361.03815 -113.065535 
L 360.242205 -112.881967 
L 359.44626 -113.308732 
L 358.650316 -114.498993 
L 357.854371 -116.41574 
L 357.058426 -118.824816 
L 356.262482 -121.339139 
L 355.466537 -123.507386 
L 354.670592 -124.942896 
L 353.874648 -125.460103 
L 353.078703 -125.153626 
L 352.282758 -124.368842 
L 351.486814 -123.570218 
L 350.690869 -123.165489 
L 349.894924 -123.358391 
L 349.09898 -124.085227 
L 348.303035 -125.055749 
L 347.50709 -125.874368 
L 346.711146 -126.180904 
L 345.915201 -125.747075 
L 345.119256 -124.501603 
L 344.323311 -122.505184 
L 343.527367 -119.916656 
L 342.731422 -116.97074 
L 341.935477 -113.957817 
L 341.139533 -111.192258 
L 340.343588 -108.971527 
L 339.547643 -107.534007 
L 338.751699 -107.014202 
L 337.955754 -107.393078 
L 337.159809 -108.461233 
L 336.363865 -109.832622 
L 335.56792 -111.036711 
L 334.771975 -111.672209 
L 333.976031 -111.558867 
L 333.180086 -110.814694 
L 332.384141 -109.821342 
L 331.588197 -109.093524 
L 330.792252 -109.104861 
L 329.996307 -110.12635 
L 329.200363 -112.118998 
L 328.404418 -114.712138 
L 327.608473 -117.293682 
L 326.812528 -119.211138 
L 326.016584 -120.019259 
L 325.220639 -119.659253 
L 324.424694 -118.477252 
L 323.62875 -117.079586 
L 322.832805 -116.109306 
L 322.03686 -116.046213 
L 321.240916 -117.082927 
L 320.444971 -119.080816 
L 319.649026 -121.607755 
L 318.853082 -124.070654 
L 318.057137 -125.919966 
L 317.261192 -126.83907 
L 316.465248 -126.821925 
L 315.669303 -126.109552 
L 314.873358 -125.041752 
L 314.077414 -123.91871 
L 313.281469 -122.930962 
L 312.485524 -122.149022 
L 311.689579 -121.53774 
L 310.893635 -120.982442 
L 310.09769 -120.332273 
L 309.301745 -119.453303 
L 308.505801 -118.266737 
L 307.709856 -116.75959 
L 306.913911 -114.982514 
L 306.117967 -113.051864 
L 305.322022 -111.146509 
L 304.526077 -109.47591 
L 303.730133 -108.218275 
L 302.934188 -107.459965 
L 302.138243 -107.170864 
L 301.342299 -107.222657 
L 300.546354 -107.433487 
L 299.750409 -107.626117 
L 298.954465 -107.694732 
L 298.15852 -107.659549 
L 297.362575 -107.668981 
L 296.56663 -107.92897 
L 295.770686 -108.592964 
L 294.974741 -109.679792 
L 294.178796 -111.063775 
L 293.382852 -112.527689 
L 292.586907 -113.839873 
L 291.790962 -114.82609 
L 290.995018 -115.422181 
L 290.199073 -115.690701 
L 289.403128 -115.784198 
L 288.607184 -115.865167 
L 287.811239 -116.028463 
L 287.015294 -116.273677 
L 286.21935 -116.536019 
L 285.423405 -116.743427 
L 284.62746 -116.862046 
L 283.831516 -116.916031 
L 283.035571 -116.984623 
L 282.239626 -117.174378 
L 281.443682 -117.562664 
L 280.647737 -118.128279 
L 279.851792 -118.70863 
L 279.055847 -119.025819 
L 278.259903 -118.794474 
L 277.463958 -117.870358 
L 276.668013 -116.359489 
L 275.872069 -114.619983 
L 275.076124 -113.144557 
L 274.280179 -112.373461 
L 273.484235 -112.523228 
L 272.68829 -113.506036 
L 271.892345 -114.963516 
L 271.096401 -116.386822 
L 270.300456 -117.27643 
L 269.504511 -117.301002 
L 268.708567 -116.413866 
L 267.912622 -114.878325 
L 267.116677 -113.170868 
L 266.320733 -111.787486 
L 265.524788 -111.042866 
L 264.728843 -110.967549 
L 263.932898 -111.342526 
L 263.136954 -111.820113 
L 262.341009 -112.050719 
L 261.545064 -111.775214 
L 260.74912 -110.889133 
L 259.953175 -109.482903 
L 259.15723 -107.829695 
L 258.361286 -106.294427 
L 257.565341 -105.187621 
L 256.769396 -104.637108 
L 255.973452 -104.548802 
L 255.177507 -104.669533 
L 254.381562 -104.70368 
L 253.585618 -104.42336 
L 252.789673 -103.738397 
L 251.993728 -102.716758 
L 251.197784 -101.554888 
L 250.401839 -100.504778 
L 249.605894 -99.780508 
L 248.80995 -99.481219 
L 248.014005 -99.563726 
L 247.21806 -99.874996 
L 246.422115 -100.228011 
L 245.626171 -100.488734 
L 244.830226 -100.638093 
L 244.034281 -100.779412 
L 243.238337 -101.082885 
L 242.442392 -101.690268 
L 241.646447 -102.624732 
L 240.850503 -103.748048 
L 240.054558 -104.784641 
L 239.258613 -105.40468 
L 238.462669 -105.339413 
L 237.666724 -104.492838 
L 236.870779 -103.007979 
L 236.074835 -101.248128 
L 235.27889 -99.680649 
L 234.482945 -98.703207 
L 233.687001 -98.495852 
L 232.891056 -98.975205 
L 232.095111 -99.866049 
L 231.299166 -100.840507 
L 230.503222 -101.653941 
L 229.707277 -102.228568 
L 228.911332 -102.666803 
L 228.115388 -103.195104 
L 227.319443 -104.054578 
L 226.523498 -105.379957 
L 225.727554 -107.125675 
L 224.931609 -109.076623 
L 224.135664 -110.930399 
L 223.33972 -112.40297 
L 222.543775 -113.316333 
L 221.74783 -113.652057 
L 220.951886 -113.560778 
L 220.155941 -113.310462 
L 219.359996 -113.176035 
L 218.564052 -113.322255 
L 217.768107 -113.756503 
L 216.972162 -114.383298 
L 216.176218 -115.111874 
L 215.380273 -115.933866 
L 214.584328 -116.92772 
L 213.788383 -118.20933 
L 212.992439 -119.870473 
L 212.196494 -121.922046 
L 211.400549 -124.241116 
L 210.604605 -126.537012 
L 209.80866 -128.375824 
L 209.012715 -129.296105 
L 208.216771 -128.994458 
L 207.420826 -127.494345 
L 206.624881 -125.200004 
L 205.828937 -122.792187 
L 205.032992 -121.000721 
L 204.237047 -120.346724 
L 203.441103 -120.957126 
L 202.645158 -122.515799 
L 201.849213 -124.359875 
L 201.053269 -125.686712 
L 200.257324 -125.811023 
L 199.461379 -124.395903 
L 198.665434 -121.579999 
L 197.86949 -117.950469 
L 197.073545 -114.366744 
L 196.2776 -111.694236 
L 195.481656 -110.531134 
L 194.685711 -111.008333 
L 193.889766 -112.733797 
L 193.093822 -114.928536 
L 192.297877 -116.726396 
L 191.501932 -117.510489 
L 190.705988 -117.12542 
L 189.910043 -115.872259 
L 189.114098 -114.316789 
L 188.318154 -113.037386 
L 187.522209 -112.431687 
L 186.726264 -112.619484 
L 185.93032 -113.428967 
L 185.134375 -114.463772 
L 184.33843 -115.259963 
L 183.542485 -115.498895 
L 182.746541 -115.168625 
L 181.950596 -114.56248 
L 181.154651 -114.104296 
L 180.358707 -114.111169 
L 179.562762 -114.636369 
L 178.766817 -115.455652 
L 177.970873 -116.162759 
L 177.174928 -116.310207 
L 176.378983 -115.559439 
L 175.583039 -113.823922 
L 174.787094 -111.357664 
L 173.991149 -108.714504 
L 173.195205 -106.560189 
L 172.39926 -105.425657 
L 171.603315 -105.536834 
L 170.807371 -106.791892 
L 170.011426 -108.850215 
L 169.215481 -111.254861 
L 168.419537 -113.547023 
L 167.623592 -115.371139 
L 166.827647 -116.553135 
L 166.031702 -117.105854 
L 165.235758 -117.150161 
L 164.439813 -116.812722 
L 163.643868 -116.182933 
L 162.847924 -115.348322 
L 162.051979 -114.449595 
L 161.256034 -113.687269 
L 160.46009 -113.264939 
L 159.664145 -113.30529 
L 158.8682 -113.78521 
L 158.072256 -114.518378 
L 157.276311 -115.196721 
L 156.480366 -115.489448 
L 155.684422 -115.177794 
L 154.888477 -114.277684 
L 154.092532 -113.090555 
L 153.296588 -112.138902 
L 152.500643 -111.987057 
L 151.704698 -113.005282 
L 150.908753 -115.179856 
L 150.112809 -118.067515 
L 149.316864 -120.925974 
L 148.520919 -122.964519 
L 147.724975 -123.613226 
L 146.92903 -122.723118 
L 146.133085 -120.641115 
L 145.337141 -118.122547 
L 144.541196 -116.082589 
L 143.745251 -115.269693 
L 142.949307 -116.00674 
L 142.153362 -118.112956 
L 141.357417 -121.0105 
L 140.561473 -123.92847 
L 139.765528 -126.114023 
L 138.969583 -127.028075 
L 138.173639 -126.524384 
L 137.377694 -124.935223 
L 136.581749 -122.969848 
L 135.785805 -121.447133 
L 134.98986 -120.998426 
L 134.193915 -121.882104 
L 133.39797 -123.959708 
L 132.602026 -126.791917 
L 131.806081 -129.79277 
L 131.010136 -132.401621 
L 130.214192 -134.235903 
L 129.418247 -135.177607 
L 128.622302 -135.365508 
L 127.826358 -135.113976 
L 127.030413 -134.805887 
L 126.234468 -134.789952 
L 125.438524 -135.290956 
L 124.642579 -136.343629 
L 123.846634 -137.76994 
L 123.05069 -139.214499 
L 122.254745 -140.236877 
L 121.4588 -140.444163 
L 120.662856 -139.627859 
L 119.866911 -137.846601 
L 119.070966 -135.399613 
L 118.275021 -132.693302 
L 117.479077 -130.084639 
L 116.683132 -127.798981 
L 115.887187 -125.937948 
L 115.091243 -124.515544 
L 114.295298 -123.467508 
L 113.499353 -122.651316 
L 112.703409 -121.909304 
L 111.907464 -121.20058 
L 111.111519 -120.690637 
L 110.315575 -120.697766 
L 109.51963 -121.51017 
L 108.723685 -123.191453 
L 107.927741 -125.510871 
L 107.131796 -128.029998 
L 106.335851 -130.257203 
L 105.539907 -131.780906 
L 104.743962 -132.358913 
L 103.948017 -131.972373 
L 103.152073 -130.838181 
L 102.356128 -129.358309 
L 101.560183 -128.002073 
L 100.764238 -127.156292 
L 99.968294 -127.004502 
L 99.172349 -127.483725 
L 98.376404 -128.321846 
L 97.58046 -129.123386 
L 96.784515 -129.473109 
L 95.98857 -129.042553 
L 95.192626 -127.683657 
L 94.396681 -125.481031 
L 93.600736 -122.739303 
L 92.804792 -119.912948 
L 92.008847 -117.509647 
L 91.212902 -115.986625 
L 90.416958 -115.637506 
L 89.621013 -116.475367 
L 88.825068 -118.161273 
L 88.029124 -120.063852 
L 87.233179 -121.480792 
L 86.437234 -121.922373 
L 85.641289 -121.296016 
L 84.845345 -119.895778 
L 84.0494 -118.238376 
L 83.253455 -116.888465 
L 82.457511 -116.347963 
L 81.661566 -116.960737 
L 80.865621 -118.789706 
L 80.069677 -121.502932 
L 79.273732 -124.391565 
L 78.477787 -126.614267 
L 77.681843 -127.544314 
L 76.885898 -126.998363 
L 76.089953 -125.256526 
L 75.294009 -122.916478 
L 74.498064 -120.682383 
L 73.702119 -119.177969 
L 72.906175 -118.812897 
L 72.11023 -119.701477 
L 71.314285 -121.652782 
L 70.51834 -124.246557 
L 69.722396 -126.958097 
L 68.926451 -129.270189 
L 68.130506 -130.749972 
L 67.334562 -131.116101 
L 66.538617 -130.308741 
L 65.742672 -128.521908 
L 64.946728 -126.146529 
L 64.150783 -123.63618 
L 63.354838 -121.383215 
L 62.558894 -119.671099 
L 61.762949 -118.670817 
L 60.967004 -118.409288 
L 60.17106 -118.686173 
L 59.375115 -119.040373 
L 58.57917 -118.922397 
L 57.783226 -118.004757 
L 56.987281 -116.383993 
L 56.191336 -114.538521 
L 55.395392 -113.087181 
L 54.599447 -112.530622 
L 53.803502 -113.128032 
L 53.007557 -114.878203 
L 52.211613 -117.514444 
L 51.415668 -120.513591 
L 50.619723 -123.202654 
L 49.823779 -125.004671 
L 49.027834 -125.695074 
L 48.231889 -125.470276 
L 47.435945 -124.775525 
L 46.64 -124.052974 
z
" style="stroke: #377eb8; stroke-opacity: 0.3"/>
    </defs>
    <g clip-path="url(#pbef220b345)">
     <use xlink:href="#m54647ad847" x="0" y="360" style="fill: #377eb8; fill-opacity: 0.3; stroke: #377eb8; stroke-opacity: 0.3"/>
    </g>
   </g>
   <g id="patch_3">
    <path d="M 229.866466 318.04 
L 229.866466 71.732 
L 331.747385 71.732 
L 331.747385 318.04 
z
" clip-path="url(#pbef220b345)" style="fill: #808080; opacity: 0.3"/>
   </g>
   <g id="matplotlib.axis_1">
    <g id="xtick_1">
     <g id="line2d_1">
      <defs>
       <path id="m368123c120" d="M 0 0 
L 0 3.5 
" style="stroke: #000000; stroke-width: 0.8"/>
      </defs>
      <g>
       <use xlink:href="#m368123c120" x="87.233179" y="318.04" style="stroke: #000000; stroke-width: 0.8"/>
      </g>
     </g>
     <g id="text_1">
      <!-- 0.0 -->
      <g transform="translate(79.281616 332.638438)scale(0.1 -0.1)">
       <defs>
        <path id="DejaVuSans-30" d="M 2034 4250 
Q 1547 4250 1301 3770 
Q 1056 3291 1056 2328 
Q 1056 1369 1301 889 
Q 1547 409 2034 409 
Q 2525 409 2770 889 
Q 3016 1369 3016 2328 
Q 3016 3291 2770 3770 
Q 2525 4250 2034 4250 
z
M 2034 4750 
Q 2819 4750 3233 4129 
Q 3647 3509 3647 2328 
Q 3647 1150 3233 529 
Q 2819 -91 2034 -91 
Q 1250 -91 836 529 
Q 422 1150 422 2328 
Q 422 3509 836 4129 
Q 1250 4750 2034 4750 
z
" transform="scale(0.015625)"/>
        <path id="DejaVuSans-2e" d="M 684 794 
L 1344 794 
L 1344 0 
L 684 0 
L 684 794 
z
" transform="scale(0.015625)"/>
       </defs>
       <use xlink:href="#DejaVuSans-30"/>
       <use xlink:href="#DejaVuSans-2e" x="63.623047"/>
       <use xlink:href="#DejaVuSans-30" x="95.410156"/>
      </g>
     </g>
    </g>
    <g id="xtick_2">
     <g id="line2d_2">
      <g>
       <use xlink:href="#m368123c120" x="168.737914" y="318.04" style="stroke: #000000; stroke-width: 0.8"/>
      </g>
     </g>
     <g id="text_2">
      <!-- 0.2 -->
      <g transform="translate(160.786352 332.638438)scale(0.1 -0.1)">
       <defs>
        <path id="DejaVuSans-32" d="M 1228 531 
L 3431 531 
L 3431 0 
L 469 0 
L 469 531 
Q 828 903 1448 1529 
Q 2069 2156 2228 2338 
Q 2531 2678 2651 2914 
Q 2772 3150 2772 3378 
Q 2772 3750 2511 3984 
Q 2250 4219 1831 4219 
Q 1534 4219 1204 4116 
Q 875 4013 500 3803 
L 500 4441 
Q 881 4594 1212 4672 
Q 1544 4750 1819 4750 
Q 2544 4750 2975 4387 
Q 3406 4025 3406 3419 
Q 3406 3131 3298 2873 
Q 3191 2616 2906 2266 
Q 2828 2175 2409 1742 
Q 1991 1309 1228 531 
z
" transform="scale(0.015625)"/>
       </defs>
       <use xlink:href="#DejaVuSans-30"/>
       <use xlink:href="#DejaVuSans-2e" x="63.623047"/>
       <use xlink:href="#DejaVuSans-32" x="95.410156"/>
      </g>
     </g>
    </g>
    <g id="xtick_3">
     <g id="line2d_3">
      <g>
       <use xlink:href="#m368123c120" x="250.24265" y="318.04" style="stroke: #000000; stroke-width: 0.8"/>
      </g>
     </g>
     <g id="text_3">
      <!-- 0.4 -->
      <g transform="translate(242.291087 332.638438)scale(0.1 -0.1)">
       <defs>
        <path id="DejaVuSans-34" d="M 2419 4116 
L 825 1625 
L 2419 1625 
L 2419 4116 
z
M 2253 4666 
L 3047 4666 
L 3047 1625 
L 3713 1625 
L 3713 1100 
L 3047 1100 
L 3047 0 
L 2419 0 
L 2419 1100 
L 313 1100 
L 313 1709 
L 2253 4666 
z
" transform="scale(0.015625)"/>
       </defs>
       <use xlink:href="#DejaVuSans-30"/>
       <use xlink:href="#DejaVuSans-2e" x="63.623047"/>
       <use xlink:href="#DejaVuSans-34" x="95.410156"/>
      </g>
     </g>
    </g>
    <g id="xtick_4">
     <g id="line2d_4">
      <g>
       <use xlink:href="#m368123c120" x="331.747385" y="318.04" style="stroke: #000000; stroke-width: 0.8"/>
      </g>
     </g>
     <g id="text_4">
      <!-- 0.6 -->
      <g transform="translate(323.795823 332.638438)scale(0.1 -0.1)">
       <defs>
        <path id="DejaVuSans-36" d="M 2113 2584 
Q 1688 2584 1439 2293 
Q 1191 2003 1191 1497 
Q 1191 994 1439 701 
Q 1688 409 2113 409 
Q 2538 409 2786 701 
Q 3034 994 3034 1497 
Q 3034 2003 2786 2293 
Q 2538 2584 2113 2584 
z
M 3366 4563 
L 3366 3988 
Q 3128 4100 2886 4159 
Q 2644 4219 2406 4219 
Q 1781 4219 1451 3797 
Q 1122 3375 1075 2522 
Q 1259 2794 1537 2939 
Q 1816 3084 2150 3084 
Q 2853 3084 3261 2657 
Q 3669 2231 3669 1497 
Q 3669 778 3244 343 
Q 2819 -91 2113 -91 
Q 1303 -91 875 529 
Q 447 1150 447 2328 
Q 447 3434 972 4092 
Q 1497 4750 2381 4750 
Q 2619 4750 2861 4703 
Q 3103 4656 3366 4563 
z
" transform="scale(0.015625)"/>
       </defs>
       <use xlink:href="#DejaVuSans-30"/>
       <use xlink:href="#DejaVuSans-2e" x="63.623047"/>
       <use xlink:href="#DejaVuSans-36" x="95.410156"/>
      </g>
     </g>
    </g>
    <g id="xtick_5">
     <g id="line2d_5">
      <g>
       <use xlink:href="#m368123c120" x="413.252121" y="318.04" style="stroke: #000000; stroke-width: 0.8"/>
      </g>
     </g>
     <g id="text_5">
      <!-- 0.8 -->
      <g transform="translate(405.300559 332.638438)scale(0.1 -0.1)">
       <defs>
        <path id="DejaVuSans-38" d="M 2034 2216 
Q 1584 2216 1326 1975 
Q 1069 1734 1069 1313 
Q 1069 891 1326 650 
Q 1584 409 2034 409 
Q 2484 409 2743 651 
Q 3003 894 3003 1313 
Q 3003 1734 2745 1975 
Q 2488 2216 2034 2216 
z
M 1403 2484 
Q 997 2584 770 2862 
Q 544 3141 544 3541 
Q 544 4100 942 4425 
Q 1341 4750 2034 4750 
Q 2731 4750 3128 4425 
Q 3525 4100 3525 3541 
Q 3525 3141 3298 2862 
Q 3072 2584 2669 2484 
Q 3125 2378 3379 2068 
Q 3634 1759 3634 1313 
Q 3634 634 3220 271 
Q 2806 -91 2034 -91 
Q 1263 -91 848 271 
Q 434 634 434 1313 
Q 434 1759 690 2068 
Q 947 2378 1403 2484 
z
M 1172 3481 
Q 1172 3119 1398 2916 
Q 1625 2713 2034 2713 
Q 2441 2713 2670 2916 
Q 2900 3119 2900 3481 
Q 2900 3844 2670 4047 
Q 2441 4250 2034 4250 
Q 1625 4250 1398 4047 
Q 1172 3844 1172 3481 
z
" transform="scale(0.015625)"/>
       </defs>
       <use xlink:href="#DejaVuSans-30"/>
       <use xlink:href="#DejaVuSans-2e" x="63.623047"/>
       <use xlink:href="#DejaVuSans-38" x="95.410156"/>
      </g>
     </g>
    </g>
    <g id="text_6">
     <!-- seconds -->
     <g transform="translate(209.667749 346.316563)scale(0.1 -0.1)">
      <defs>
       <path id="DejaVuSans-73" d="M 2834 3397 
L 2834 2853 
Q 2591 2978 2328 3040 
Q 2066 3103 1784 3103 
Q 1356 3103 1142 2972 
Q 928 2841 928 2578 
Q 928 2378 1081 2264 
Q 1234 2150 1697 2047 
L 1894 2003 
Q 2506 1872 2764 1633 
Q 3022 1394 3022 966 
Q 3022 478 2636 193 
Q 2250 -91 1575 -91 
Q 1294 -91 989 -36 
Q 684 19 347 128 
L 347 722 
Q 666 556 975 473 
Q 1284 391 1588 391 
Q 1994 391 2212 530 
Q 2431 669 2431 922 
Q 2431 1156 2273 1281 
Q 2116 1406 1581 1522 
L 1381 1569 
Q 847 1681 609 1914 
Q 372 2147 372 2553 
Q 372 3047 722 3315 
Q 1072 3584 1716 3584 
Q 2034 3584 2315 3537 
Q 2597 3491 2834 3397 
z
" transform="scale(0.015625)"/>
       <path id="DejaVuSans-65" d="M 3597 1894 
L 3597 1613 
L 953 1613 
Q 991 1019 1311 708 
Q 1631 397 2203 397 
Q 2534 397 2845 478 
Q 3156 559 3463 722 
L 3463 178 
Q 3153 47 2828 -22 
Q 2503 -91 2169 -91 
Q 1331 -91 842 396 
Q 353 884 353 1716 
Q 353 2575 817 3079 
Q 1281 3584 2069 3584 
Q 2775 3584 3186 3129 
Q 3597 2675 3597 1894 
z
M 3022 2063 
Q 3016 2534 2758 2815 
Q 2500 3097 2075 3097 
Q 1594 3097 1305 2825 
Q 1016 2553 972 2059 
L 3022 2063 
z
" transform="scale(0.015625)"/>
       <path id="DejaVuSans-63" d="M 3122 3366 
L 3122 2828 
Q 2878 2963 2633 3030 
Q 2388 3097 2138 3097 
Q 1578 3097 1268 2742 
Q 959 2388 959 1747 
Q 959 1106 1268 751 
Q 1578 397 2138 397 
Q 2388 397 2633 464 
Q 2878 531 3122 666 
L 3122 134 
Q 2881 22 2623 -34 
Q 2366 -91 2075 -91 
Q 1284 -91 818 406 
Q 353 903 353 1747 
Q 353 2603 823 3093 
Q 1294 3584 2113 3584 
Q 2378 3584 2631 3529 
Q 2884 3475 3122 3366 
z
" transform="scale(0.015625)"/>
       <path id="DejaVuSans-6f" d="M 1959 3097 
Q 1497 3097 1228 2736 
Q 959 2375 959 1747 
Q 959 1119 1226 758 
Q 1494 397 1959 397 
Q 2419 397 2687 759 
Q 2956 1122 2956 1747 
Q 2956 2369 2687 2733 
Q 2419 3097 1959 3097 
z
M 1959 3584 
Q 2709 3584 3137 3096 
Q 3566 2609 3566 1747 
Q 3566 888 3137 398 
Q 2709 -91 1959 -91 
Q 1206 -91 779 398 
Q 353 888 353 1747 
Q 353 2609 779 3096 
Q 1206 3584 1959 3584 
z
" transform="scale(0.015625)"/>
       <path id="DejaVuSans-6e" d="M 3513 2113 
L 3513 0 
L 2938 0 
L 2938 2094 
Q 2938 2591 2744 2837 
Q 2550 3084 2163 3084 
Q 1697 3084 1428 2787 
Q 1159 2491 1159 1978 
L 1159 0 
L 581 0 
L 581 3500 
L 1159 3500 
L 1159 2956 
Q 1366 3272 1645 3428 
Q 1925 3584 2291 3584 
Q 2894 3584 3203 3211 
Q 3513 2838 3513 2113 
z
" transform="scale(0.015625)"/>
       <path id="DejaVuSans-64" d="M 2906 2969 
L 2906 4863 
L 3481 4863 
L 3481 0 
L 2906 0 
L 2906 525 
Q 2725 213 2448 61 
Q 2172 -91 1784 -91 
Q 1150 -91 751 415 
Q 353 922 353 1747 
Q 353 2572 751 3078 
Q 1150 3584 1784 3584 
Q 2172 3584 2448 3432 
Q 2725 3281 2906 2969 
z
M 947 1747 
Q 947 1113 1208 752 
Q 1469 391 1925 391 
Q 2381 391 2643 752 
Q 2906 1113 2906 1747 
Q 2906 2381 2643 2742 
Q 2381 3103 1925 3103 
Q 1469 3103 1208 2742 
Q 947 2381 947 1747 
z
" transform="scale(0.015625)"/>
      </defs>
      <use xlink:href="#DejaVuSans-73"/>
      <use xlink:href="#DejaVuSans-65" x="52.099609"/>
      <use xlink:href="#DejaVuSans-63" x="113.623047"/>
      <use xlink:href="#DejaVuSans-6f" x="168.603516"/>
      <use xlink:href="#DejaVuSans-6e" x="229.785156"/>
      <use xlink:href="#DejaVuSans-64" x="293.164062"/>
      <use xlink:href="#DejaVuSans-73" x="356.640625"/>
     </g>
    </g>
   </g>
   <g id="matplotlib.axis_2">
    <g id="ytick_1">
     <g id="line2d_6">
      <defs>
       <path id="mafe7aaef6b" d="M 0 0 
L -3.5 0 
" style="stroke: #000000; stroke-width: 0.8"/>
      </defs>
      <g>
       <use xlink:href="#mafe7aaef6b" x="46.64" y="282.730292" style="stroke: #000000; stroke-width: 0.8"/>
      </g>
     </g>
     <g id="text_7">
      <!-- 1 -->
      <g transform="translate(24.897813 286.52951)scale(0.1 -0.1)">
       <defs>
        <path id="DejaVuSans-2212" d="M 678 2272 
L 4684 2272 
L 4684 1741 
L 678 1741 
L 678 2272 
z
" transform="scale(0.015625)"/>
        <path id="DejaVuSans-31" d="M 794 531 
L 1825 531 
L 1825 4091 
L 703 3866 
L 703 4441 
L 1819 4666 
L 2450 4666 
L 2450 531 
L 3481 531 
L 3481 0 
L 794 0 
L 794 531 
z
" transform="scale(0.015625)"/>
       </defs>
       <use xlink:href="#DejaVuSans-2212"/>
       <use xlink:href="#DejaVuSans-31" x="83.789062"/>
      </g>
     </g>
    </g>
    <g id="ytick_2">
     <g id="line2d_7">
      <g>
       <use xlink:href="#mafe7aaef6b" x="46.64" y="247.084268" style="stroke: #000000; stroke-width: 0.8"/>
      </g>
     </g>
     <g id="text_8">
      <!-- 0 -->
      <g transform="translate(33.2775 250.883486)scale(0.1 -0.1)">
       <use xlink:href="#DejaVuSans-30"/>
      </g>
     </g>
    </g>
    <g id="ytick_3">
     <g id="line2d_8">
      <g>
       <use xlink:href="#mafe7aaef6b" x="46.64" y="211.438243" style="stroke: #000000; stroke-width: 0.8"/>
      </g>
     </g>
     <g id="text_9">
      <!-- 1 -->
      <g transform="translate(33.2775 215.237462)scale(0.1 -0.1)">
       <use xlink:href="#DejaVuSans-31"/>
      </g>
     </g>
    </g>
    <g id="ytick_4">
     <g id="line2d_9">
      <g>
       <use xlink:href="#mafe7aaef6b" x="46.64" y="175.792219" style="stroke: #000000; stroke-width: 0.8"/>
      </g>
     </g>
     <g id="text_10">
      <!-- 2 -->
      <g transform="translate(33.2775 179.591438)scale(0.1 -0.1)">
       <use xlink:href="#DejaVuSans-32"/>
      </g>
     </g>
    </g>
    <g id="ytick_5">
     <g id="line2d_10">
      <g>
       <use xlink:href="#mafe7aaef6b" x="46.64" y="140.146195" style="stroke: #000000; stroke-width: 0.8"/>
      </g>
     </g>
     <g id="text_11">
      <!-- 3 -->
      <g transform="translate(33.2775 143.945414)scale(0.1 -0.1)">
       <defs>
        <path id="DejaVuSans-33" d="M 2597 2516 
Q 3050 2419 3304 2112 
Q 3559 1806 3559 1356 
Q 3559 666 3084 287 
Q 2609 -91 1734 -91 
Q 1441 -91 1130 -33 
Q 819 25 488 141 
L 488 750 
Q 750 597 1062 519 
Q 1375 441 1716 441 
Q 2309 441 2620 675 
Q 2931 909 2931 1356 
Q 2931 1769 2642 2001 
Q 2353 2234 1838 2234 
L 1294 2234 
L 1294 2753 
L 1863 2753 
Q 2328 2753 2575 2939 
Q 2822 3125 2822 3475 
Q 2822 3834 2567 4026 
Q 2313 4219 1838 4219 
Q 1578 4219 1281 4162 
Q 984 4106 628 3988 
L 628 4550 
Q 988 4650 1302 4700 
Q 1616 4750 1894 4750 
Q 2613 4750 3031 4423 
Q 3450 4097 3450 3541 
Q 3450 3153 3228 2886 
Q 3006 2619 2597 2516 
z
" transform="scale(0.015625)"/>
       </defs>
       <use xlink:href="#DejaVuSans-33"/>
      </g>
     </g>
    </g>
    <g id="ytick_6">
     <g id="line2d_11">
      <g>
       <use xlink:href="#mafe7aaef6b" x="46.64" y="104.500171" style="stroke: #000000; stroke-width: 0.8"/>
      </g>
     </g>
     <g id="text_12">
      <!-- 4 -->
      <g transform="translate(33.2775 108.29939)scale(0.1 -0.1)">
       <use xlink:href="#DejaVuSans-34"/>
      </g>
     </g>
    </g>
    <g id="text_13">
     <!-- V -->
     <g transform="translate(18.818125 201.487562)rotate(-90)scale(0.1 -0.1)">
      <defs>
       <path id="DejaVuSans-b5" d="M 544 -1331 
L 544 3500 
L 1119 3500 
L 1119 1325 
Q 1119 872 1334 640 
Q 1550 409 1972 409 
Q 2434 409 2667 671 
Q 2900 934 2900 1459 
L 2900 3500 
L 3475 3500 
L 3475 806 
Q 3475 619 3529 530 
Q 3584 441 3700 441 
Q 3728 441 3778 458 
Q 3828 475 3916 513 
L 3916 50 
Q 3788 -22 3673 -56 
Q 3559 -91 3450 -91 
Q 3234 -91 3106 31 
Q 2978 153 2931 403 
Q 2775 156 2548 32 
Q 2322 -91 2016 -91 
Q 1697 -91 1473 31 
Q 1250 153 1119 397 
L 1119 -1331 
L 544 -1331 
z
" transform="scale(0.015625)"/>
       <path id="DejaVuSans-56" d="M 1831 0 
L 50 4666 
L 709 4666 
L 2188 738 
L 3669 4666 
L 4325 4666 
L 2547 0 
L 1831 0 
z
" transform="scale(0.015625)"/>
      </defs>
      <use xlink:href="#DejaVuSans-b5"/>
      <use xlink:href="#DejaVuSans-56" x="63.623047"/>
     </g>
    </g>
   </g>
   <g id="line2d_12">
    <path d="M 46.64 283.082539 
L 47.435945 279.610599 
L 48.231889 273.798001 
L 49.823779 260.440931 
L 50.619723 255.426016 
L 51.415668 252.454464 
L 52.211613 251.42307 
L 53.007557 251.677451 
L 53.803502 252.278495 
L 54.599447 252.321358 
L 55.395392 251.197222 
L 56.191336 248.721318 
L 56.987281 245.107962 
L 59.375115 232.472833 
L 60.17106 229.259237 
L 60.967004 227.045357 
L 61.762949 225.949666 
L 62.558894 225.985735 
L 63.354838 227.037901 
L 65.742672 232.610076 
L 66.538617 233.469956 
L 67.334562 233.10589 
L 68.130506 231.550103 
L 69.722396 227.087801 
L 70.51834 225.904538 
L 71.314285 226.426619 
L 72.11023 228.889804 
L 72.906175 232.960502 
L 74.498064 242.560869 
L 75.294009 246.320236 
L 76.089953 248.789739 
L 76.885898 250.20422 
L 77.681843 251.23506 
L 78.477787 252.6814 
L 79.273732 255.106241 
L 80.069677 258.568541 
L 81.661566 266.203457 
L 82.457511 268.54954 
L 83.253455 268.98882 
L 84.0494 267.476279 
L 84.845345 264.562228 
L 85.641289 261.190048 
L 86.437234 258.346526 
L 87.233179 256.701692 
L 88.029124 256.377122 
L 89.621013 257.539958 
L 90.416958 257.352055 
L 91.212902 255.787951 
L 92.008847 252.762286 
L 94.396681 240.607621 
L 95.192626 238.08363 
L 95.98857 237.086756 
L 96.784515 237.509307 
L 97.58046 238.92893 
L 99.172349 242.452103 
L 99.968294 243.536818 
L 100.764238 243.750312 
L 101.560183 242.997966 
L 102.356128 241.337707 
L 103.152073 238.957189 
L 104.743962 233.345799 
L 105.539907 230.977886 
L 106.335851 229.502017 
L 107.131796 229.249065 
L 107.927741 230.339434 
L 108.723685 232.63243 
L 111.907464 244.971013 
L 112.703409 246.826661 
L 113.499353 247.995433 
L 114.295298 248.675951 
L 115.091243 249.081618 
L 115.887187 249.335478 
L 116.683132 249.424446 
L 117.479077 249.227382 
L 118.275021 248.597893 
L 119.070966 247.458449 
L 119.866911 245.859326 
L 122.254745 240.319349 
L 123.05069 238.937212 
L 123.846634 237.987541 
L 124.642579 237.514212 
L 125.438524 237.582336 
L 126.234468 238.311361 
L 127.030413 239.851635 
L 127.826358 242.304312 
L 128.622302 245.61963 
L 131.010136 257.148888 
L 131.806081 259.817042 
L 132.602026 261.343738 
L 133.39797 261.849494 
L 134.98986 261.557866 
L 135.785805 261.693013 
L 137.377694 262.91881 
L 138.173639 263.150546 
L 138.969583 262.3206 
L 139.765528 260.035767 
L 140.561473 256.323273 
L 142.949307 242.641183 
L 143.745251 239.633028 
L 144.541196 237.932142 
L 145.337141 237.253765 
L 147.724975 236.896643 
L 148.520919 236.930926 
L 149.316864 237.604357 
L 150.112809 239.378856 
L 150.908753 242.420946 
L 153.296588 254.249359 
L 154.092532 256.3185 
L 154.888477 256.513654 
L 155.684422 254.999222 
L 157.276311 249.437466 
L 158.072256 246.755871 
L 160.46009 240.019964 
L 161.256034 236.763885 
L 162.847924 227.929129 
L 163.643868 223.624573 
L 164.439813 220.625752 
L 165.235758 219.587916 
L 166.031702 220.568077 
L 168.419537 227.580722 
L 169.215481 227.94293 
L 170.011426 226.685651 
L 171.603315 222.214421 
L 172.39926 221.033067 
L 173.195205 221.400335 
L 173.991149 223.107151 
L 174.787094 225.288486 
L 175.583039 226.776573 
L 176.378983 226.598717 
L 177.174928 224.415664 
L 178.766817 216.707747 
L 179.562762 213.875353 
L 180.358707 213.486313 
L 181.154651 216.121437 
L 181.950596 221.471503 
L 183.542485 235.514854 
L 184.33843 241.229405 
L 185.134375 244.592606 
L 185.93032 245.296075 
L 186.726264 243.685194 
L 187.522209 240.531692 
L 189.114098 233.004861 
L 189.910043 229.833704 
L 190.705988 227.399862 
L 191.501932 225.726308 
L 192.297877 224.789246 
L 193.093822 224.579398 
L 193.889766 225.078077 
L 194.685711 226.174274 
L 196.2776 228.842393 
L 197.073545 229.383877 
L 197.86949 228.719937 
L 198.665434 226.621735 
L 199.461379 223.245511 
L 201.053269 215.087685 
L 201.849213 211.923787 
L 202.645158 210.241227 
L 203.441103 210.242598 
L 204.237047 211.696136 
L 206.624881 218.818741 
L 207.420826 220.42778 
L 209.80866 223.803688 
L 210.604605 225.856753 
L 211.400549 228.74357 
L 212.992439 235.612938 
L 213.788383 238.234089 
L 214.584328 239.34697 
L 215.380273 238.51926 
L 216.176218 235.752587 
L 216.972162 231.520617 
L 218.564052 222.217993 
L 219.359996 219.061933 
L 220.155941 217.740765 
L 220.951886 218.260063 
L 221.74783 220.075335 
L 222.543775 222.234244 
L 223.33972 223.645389 
L 224.135664 223.399246 
L 224.931609 221.045058 
L 225.727554 216.735711 
L 228.115388 200.784196 
L 228.911332 197.903584 
L 229.707277 197.204318 
L 230.503222 198.461404 
L 231.299166 200.989456 
L 232.095111 203.889547 
L 232.891056 206.343021 
L 233.687001 207.849258 
L 234.482945 208.327369 
L 235.27889 208.056339 
L 236.870779 207.029191 
L 237.666724 206.839196 
L 238.462669 206.786086 
L 239.258613 206.503024 
L 240.054558 205.556024 
L 240.850503 203.636075 
L 241.646447 200.697837 
L 244.830226 186.005536 
L 245.626171 183.679367 
L 246.422115 182.207151 
L 247.21806 181.471037 
L 248.014005 181.332975 
L 248.80995 181.707212 
L 249.605894 182.555751 
L 251.993728 186.385723 
L 252.789673 186.611754 
L 253.585618 185.215995 
L 254.381562 181.711882 
L 255.177507 176.073428 
L 257.565341 154.535558 
L 258.361286 150.038822 
L 259.15723 148.436638 
L 259.953175 149.593297 
L 261.545064 155.709323 
L 262.341009 157.50553 
L 263.136954 156.746616 
L 263.932898 153.092465 
L 264.728843 147.142437 
L 266.320733 133.958959 
L 267.116677 129.718813 
L 267.912622 128.239706 
L 268.708567 129.44532 
L 269.504511 132.565345 
L 271.096401 140.036849 
L 271.892345 142.528806 
L 272.68829 143.657427 
L 273.484235 143.541608 
L 274.280179 142.500116 
L 275.076124 140.838683 
L 275.872069 138.729384 
L 277.463958 133.392346 
L 279.055847 127.762997 
L 279.851792 125.943067 
L 280.647737 125.478002 
L 281.443682 126.59449 
L 282.239626 129.086275 
L 283.831516 135.435454 
L 284.62746 137.635906 
L 285.423405 138.517142 
L 286.21935 138.229826 
L 287.015294 137.434246 
L 287.811239 137.037539 
L 288.607184 137.811465 
L 289.403128 140.04255 
L 290.995018 146.82073 
L 291.790962 149.229615 
L 292.586907 149.583483 
L 293.382852 147.470907 
L 294.178796 143.277358 
L 295.770686 133.496918 
L 296.56663 130.86687 
L 297.362575 131.148461 
L 298.15852 134.465481 
L 298.954465 140.122276 
L 300.546354 153.171208 
L 301.342299 157.91939 
L 302.138243 160.475731 
L 302.934188 160.923788 
L 303.730133 159.924839 
L 304.526077 158.428391 
L 305.322022 157.316682 
L 306.117967 157.104781 
L 306.913911 157.791067 
L 307.709856 158.896715 
L 308.505801 159.669131 
L 309.301745 159.372615 
L 310.09769 157.564734 
L 310.893635 154.266715 
L 313.281469 141.782012 
L 314.077414 139.496975 
L 314.873358 138.993488 
L 315.669303 140.174003 
L 316.465248 142.597762 
L 321.240916 161.469822 
L 324.424694 176.955558 
L 325.220639 178.780312 
L 326.016584 178.837472 
L 326.812528 177.173711 
L 327.608473 174.231749 
L 329.200363 167.392931 
L 329.996307 164.849157 
L 330.792252 163.385844 
L 331.588197 162.990672 
L 332.384141 163.437088 
L 333.180086 164.434047 
L 334.771975 167.270353 
L 337.159809 172.037365 
L 337.955754 172.835528 
L 338.751699 172.529054 
L 339.547643 170.793964 
L 340.343588 167.647855 
L 341.935477 159.444989 
L 342.731422 156.362006 
L 343.527367 155.245551 
L 344.323311 156.51968 
L 345.119256 159.891385 
L 346.711146 168.527716 
L 347.50709 170.957135 
L 348.303035 170.72175 
L 349.09898 167.690281 
L 351.486814 151.971268 
L 352.282758 149.289342 
L 353.078703 149.364726 
L 353.874648 151.928975 
L 356.262482 163.786286 
L 357.058426 165.72028 
L 357.854371 166.208781 
L 359.44626 165.539367 
L 360.242205 165.90783 
L 361.03815 167.176743 
L 361.834095 168.969988 
L 362.630039 170.468108 
L 363.425984 170.728746 
L 364.221929 169.059446 
L 365.017873 165.298492 
L 366.609763 153.808967 
L 367.405707 148.149306 
L 368.201652 143.896513 
L 368.997597 141.60231 
L 369.793541 141.289597 
L 370.589486 142.522765 
L 372.97732 148.535471 
L 373.773265 149.442078 
L 374.569209 149.366813 
L 375.365154 148.292572 
L 376.161099 146.285342 
L 376.957043 143.486848 
L 379.344878 133.583231 
L 380.140822 131.456001 
L 380.936767 130.736555 
L 381.732712 131.578594 
L 382.528656 133.743225 
L 384.120546 139.465639 
L 384.91649 141.544723 
L 385.712435 142.507365 
L 386.50838 142.458064 
L 387.304324 141.915368 
L 388.100269 141.586536 
L 388.896214 142.054684 
L 389.692158 143.507359 
L 391.284048 147.690587 
L 392.079992 148.869441 
L 392.875937 148.578032 
L 393.671882 146.764231 
L 395.263771 141.282721 
L 396.059716 139.757593 
L 396.855661 140.230515 
L 397.651605 142.891671 
L 400.039439 156.333766 
L 400.835384 158.823385 
L 401.631329 159.119393 
L 402.427273 157.451901 
L 404.019163 151.798575 
L 404.815107 149.970177 
L 405.611052 149.814314 
L 406.406997 151.443713 
L 407.202941 154.443371 
L 408.794831 161.35015 
L 409.590775 163.621859 
L 410.38672 164.409058 
L 411.182665 163.646316 
L 411.97861 161.632678 
L 413.570499 156.326227 
L 413.570499 156.326227 
" clip-path="url(#pbef220b345)" style="fill: none; stroke: #e41a1c; stroke-width: 1.5; stroke-linecap: square"/>
   </g>
   <g id="line2d_13">
    <path d="M 46.64 246.054794 
L 48.231889 243.819315 
L 49.027834 243.380881 
L 49.823779 243.959986 
L 50.619723 245.668329 
L 52.211613 251.234009 
L 53.007557 253.894281 
L 53.803502 255.65707 
L 54.599447 256.187313 
L 55.395392 255.50525 
L 56.191336 253.961252 
L 57.783226 250.472521 
L 58.57917 249.445437 
L 59.375115 249.103225 
L 60.967004 249.462313 
L 61.762949 249.32842 
L 62.558894 248.514525 
L 63.354838 246.913835 
L 64.946728 242.124323 
L 65.742672 239.739382 
L 66.538617 237.967499 
L 67.334562 237.156903 
L 68.130506 237.476814 
L 68.926451 238.882349 
L 69.722396 241.118096 
L 71.314285 246.284889 
L 72.11023 248.183388 
L 72.906175 249.062886 
L 73.702119 248.756784 
L 74.498064 247.387189 
L 76.089953 243.283038 
L 76.885898 241.803691 
L 77.681843 241.431491 
L 78.477787 242.376521 
L 79.273732 244.474194 
L 80.865621 249.930885 
L 81.661566 251.928423 
L 82.457511 252.778849 
L 83.253455 252.414313 
L 84.0494 251.150612 
L 84.845345 249.575714 
L 85.641289 248.350088 
L 86.437234 247.987145 
L 87.233179 248.687985 
L 88.029124 250.282993 
L 89.621013 254.093108 
L 90.416958 255.09705 
L 91.212902 254.941379 
L 92.008847 253.573675 
L 92.804792 251.250654 
L 94.396681 245.722853 
L 95.192626 243.560201 
L 95.98857 242.265139 
L 96.784515 241.902612 
L 97.58046 242.304915 
L 99.172349 243.980713 
L 99.968294 244.474413 
L 100.764238 244.381419 
L 101.560183 243.66693 
L 103.948017 240.285943 
L 104.743962 240.011313 
L 105.539907 240.63381 
L 106.335851 242.147034 
L 107.927741 246.755244 
L 108.723685 249.017556 
L 109.51963 250.744036 
L 110.315575 251.743998 
L 111.111519 252.026906 
L 111.907464 251.760515 
L 113.499353 250.457355 
L 115.091243 248.721922 
L 115.887187 247.458267 
L 116.683132 245.716286 
L 117.479077 243.447928 
L 119.866911 235.557032 
L 120.662856 233.804794 
L 121.4588 233.023031 
L 122.254745 233.260701 
L 123.05069 234.331619 
L 124.642579 237.426071 
L 125.438524 238.617431 
L 126.234468 239.217146 
L 127.030413 239.228955 
L 128.622302 238.574125 
L 129.418247 238.738066 
L 130.214192 239.724291 
L 131.010136 241.672139 
L 131.806081 244.442875 
L 133.39797 250.633441 
L 134.193915 252.851452 
L 134.98986 253.833605 
L 135.785805 253.454772 
L 136.581749 251.98448 
L 137.377694 250.038596 
L 138.173639 248.411018 
L 138.969583 247.829541 
L 139.765528 248.712375 
L 140.561473 251.010124 
L 142.153362 257.420758 
L 142.949307 259.783179 
L 143.745251 260.635479 
L 144.541196 259.808954 
L 145.337141 257.6813 
L 146.133085 255.055091 
L 146.92903 252.888449 
L 147.724975 251.97382 
L 148.520919 252.679455 
L 149.316864 254.843846 
L 150.908753 260.884708 
L 151.704698 263.170379 
L 152.500643 264.267505 
L 153.296588 264.157865 
L 154.092532 263.201725 
L 154.888477 261.961472 
L 155.684422 260.976575 
L 156.480366 260.578712 
L 157.276311 260.810273 
L 159.664145 262.695692 
L 160.46009 262.7726 
L 161.256034 262.407356 
L 162.051979 261.714813 
L 163.643868 260.056258 
L 164.439813 259.407308 
L 165.235758 259.043631 
L 166.031702 259.082564 
L 166.827647 259.648482 
L 167.623592 260.842052 
L 168.419537 262.675612 
L 170.807371 269.686074 
L 171.603315 271.062105 
L 172.39926 271.259422 
L 173.195205 270.184631 
L 173.991149 268.082005 
L 175.583039 263.030051 
L 176.378983 261.29769 
L 177.174928 260.577492 
L 177.970873 260.810416 
L 179.562762 262.533566 
L 180.358707 263.072727 
L 181.154651 263.045314 
L 183.542485 261.581674 
L 184.33843 261.788907 
L 185.134375 262.559685 
L 186.726264 264.505773 
L 187.522209 264.791407 
L 188.318154 264.257059 
L 189.114098 263.023205 
L 189.910043 261.528757 
L 190.705988 260.375769 
L 191.501932 260.093715 
L 192.297877 260.914931 
L 193.093822 262.652206 
L 193.889766 264.731698 
L 194.685711 266.375022 
L 195.481656 266.867319 
L 196.2776 265.81437 
L 197.073545 263.294224 
L 198.665434 256.306762 
L 199.461379 253.529659 
L 200.257324 252.118882 
L 201.053269 252.234623 
L 201.849213 253.556409 
L 203.441103 256.978398 
L 204.237047 257.618164 
L 205.032992 257.017876 
L 205.828937 255.305038 
L 207.420826 250.721102 
L 208.216771 249.186149 
L 209.012715 248.786799 
L 209.80866 249.602391 
L 210.604605 251.395279 
L 212.992439 258.248377 
L 213.788383 259.916365 
L 214.584328 261.161807 
L 216.176218 262.933669 
L 217.768107 264.281429 
L 218.564052 264.689183 
L 219.359996 264.818327 
L 221.74783 264.42314 
L 222.543775 264.789696 
L 223.33972 265.747746 
L 224.135664 267.293238 
L 226.523498 273.082541 
L 227.319443 274.457699 
L 228.115388 275.373204 
L 230.503222 277.227113 
L 232.891056 280.183355 
L 233.687001 280.664622 
L 234.482945 280.450273 
L 235.27889 279.496187 
L 237.666724 274.886167 
L 238.462669 274.07371 
L 239.258613 274.029505 
L 240.054558 274.674654 
L 242.442392 277.790952 
L 243.238337 278.325069 
L 244.034281 278.504328 
L 245.626171 278.460494 
L 246.422115 278.570411 
L 248.80995 279.259184 
L 249.605894 279.071898 
L 250.401839 278.481016 
L 251.993728 276.462043 
L 252.789673 275.461792 
L 253.585618 274.751592 
L 254.381562 274.414906 
L 256.769396 274.303102 
L 257.565341 273.771434 
L 258.361286 272.744758 
L 260.74912 268.317593 
L 261.545064 267.366857 
L 262.341009 267.014574 
L 263.136954 267.18937 
L 264.728843 267.950609 
L 265.524788 267.822645 
L 266.320733 267.060715 
L 267.116677 265.726731 
L 268.708567 262.676415 
L 269.504511 261.825186 
L 270.300456 261.822164 
L 271.096401 262.653548 
L 272.68829 265.471152 
L 273.484235 266.483652 
L 274.280179 266.713284 
L 275.076124 266.0706 
L 275.872069 264.750623 
L 277.463958 261.732266 
L 278.259903 260.842782 
L 279.055847 260.627664 
L 279.851792 260.998893 
L 282.239626 262.995121 
L 283.035571 263.278344 
L 286.21935 263.647303 
L 287.811239 264.191847 
L 289.403128 264.436694 
L 290.199073 264.51314 
L 290.995018 264.757143 
L 291.790962 265.328651 
L 292.586907 266.302393 
L 294.178796 269.097236 
L 294.974741 270.487414 
L 295.770686 271.569893 
L 296.56663 272.230126 
L 297.362575 272.494748 
L 299.750409 272.514517 
L 302.138243 273.07584 
L 302.934188 272.864632 
L 303.730133 272.160279 
L 304.526077 270.911531 
L 305.322022 269.192703 
L 307.709856 263.172837 
L 308.505801 261.558004 
L 309.301745 260.330325 
L 310.09769 259.470212 
L 311.689579 258.398177 
L 312.485524 257.870155 
L 313.281469 257.170028 
L 315.669303 254.325751 
L 316.465248 253.800241 
L 317.261192 253.953605 
L 318.057137 254.954439 
L 318.853082 256.765171 
L 321.240916 263.472395 
L 322.03686 264.539176 
L 322.832805 264.557021 
L 323.62875 263.695748 
L 324.424694 262.423587 
L 325.220639 261.361745 
L 326.016584 261.076787 
L 326.812528 261.884728 
L 327.608473 263.739263 
L 329.200363 268.804156 
L 329.996307 270.807945 
L 330.792252 271.85936 
L 331.588197 271.889277 
L 332.384141 271.161806 
L 333.180086 270.160576 
L 333.976031 269.405664 
L 334.771975 269.271589 
L 335.56792 269.870177 
L 337.955754 273.46882 
L 338.751699 273.904029 
L 339.547643 273.454349 
L 340.343588 272.077193 
L 341.139533 269.898592 
L 342.731422 264.159939 
L 344.323311 258.606768 
L 345.119256 256.59434 
L 345.915201 255.340916 
L 346.711146 254.894863 
L 347.50709 255.156792 
L 349.894924 257.34674 
L 350.690869 257.496735 
L 351.486814 257.130275 
L 353.078703 255.737932 
L 353.874648 255.483503 
L 354.670592 255.992526 
L 355.466537 257.386872 
L 356.262482 259.528707 
L 357.854371 264.521425 
L 358.650316 266.493522 
L 359.44626 267.726575 
L 360.242205 268.192859 
L 361.03815 268.058143 
L 362.630039 267.024422 
L 365.017873 265.486347 
L 365.813818 264.730609 
L 366.609763 263.673226 
L 368.201652 260.795508 
L 369.793541 257.887678 
L 370.589486 256.787967 
L 371.385431 255.995292 
L 372.181375 255.486314 
L 372.97732 255.226088 
L 373.773265 255.214972 
L 374.569209 255.514275 
L 375.365154 256.239199 
L 376.161099 257.52219 
L 376.957043 259.461681 
L 377.752988 262.075485 
L 379.344878 268.858854 
L 380.936767 276.006789 
L 381.732712 278.908948 
L 382.528656 280.972555 
L 383.324601 282.016456 
L 384.120546 282.001738 
L 384.91649 281.056752 
L 386.50838 277.653523 
L 387.304324 276.041281 
L 388.100269 274.998662 
L 388.896214 274.71446 
L 389.692158 275.146267 
L 391.284048 276.977115 
L 392.079992 277.584904 
L 392.875937 277.602549 
L 393.671882 277.014433 
L 395.263771 275.132491 
L 396.059716 274.683545 
L 396.855661 275.022475 
L 397.651605 276.228474 
L 398.44755 278.117466 
L 400.039439 282.337431 
L 400.835384 283.83729 
L 401.631329 284.615713 
L 402.427273 284.706643 
L 403.223218 284.320504 
L 404.815107 283.209274 
L 405.611052 282.840931 
L 407.202941 282.3373 
L 407.998886 281.863783 
L 408.794831 281.038375 
L 409.590775 279.826782 
L 411.97861 275.263176 
L 412.774554 274.202248 
L 413.570499 273.722303 
L 413.570499 273.722303 
" clip-path="url(#pbef220b345)" style="fill: none; stroke: #377eb8; stroke-width: 1.5; stroke-linecap: square"/>
   </g>
   <g id="line2d_14">
    <path d="M 87.233179 318.04 
L 87.233179 71.732 
" clip-path="url(#pbef220b345)" style="fill: none; stroke: #000000; stroke-width: 0.5; stroke-linecap: square"/>
   </g>
   <g id="line2d_15">
    <path d="M 46.64 247.084268 
L 413.570499 247.084268 
" clip-path="url(#pbef220b345)" style="fill: none; stroke: #000000; stroke-width: 0.5; stroke-linecap: square"/>
   </g>
   <g id="patch_4">
    <path d="M 46.64 318.04 
L 46.64 71.732 
" style="fill: none; stroke: #000000; stroke-width: 0.8; stroke-linejoin: miter; stroke-linecap: square"/>
   </g>
   <g id="patch_5">
    <path d="M 413.570499 318.04 
L 413.570499 71.732 
" style="fill: none; stroke: #000000; stroke-width: 0.8; stroke-linejoin: miter; stroke-linecap: square"/>
   </g>
   <g id="patch_6">
    <path d="M 46.64 318.04 
L 413.570499 318.04 
" style="fill: none; stroke: #000000; stroke-width: 0.8; stroke-linejoin: miter; stroke-linecap: square"/>
   </g>
   <g id="patch_7">
    <path d="M 46.64 71.732 
L 413.570499 71.732 
" style="fill: none; stroke: #000000; stroke-width: 0.8; stroke-linejoin: miter; stroke-linecap: square"/>
   </g>
   <g id="text_14">
    <!-- Cz -->
    <g transform="translate(222.766499 65.732)scale(0.12 -0.12)">
     <defs>
      <path id="DejaVuSans-43" d="M 4122 4306 
L 4122 3641 
Q 3803 3938 3442 4084 
Q 3081 4231 2675 4231 
Q 1875 4231 1450 3742 
Q 1025 3253 1025 2328 
Q 1025 1406 1450 917 
Q 1875 428 2675 428 
Q 3081 428 3442 575 
Q 3803 722 4122 1019 
L 4122 359 
Q 3791 134 3420 21 
Q 3050 -91 2638 -91 
Q 1578 -91 968 557 
Q 359 1206 359 2328 
Q 359 3453 968 4101 
Q 1578 4750 2638 4750 
Q 3056 4750 3426 4639 
Q 3797 4528 4122 4306 
z
" transform="scale(0.015625)"/>
      <path id="DejaVuSans-7a" d="M 353 3500 
L 3084 3500 
L 3084 2975 
L 922 459 
L 3084 459 
L 3084 0 
L 275 0 
L 275 525 
L 2438 3041 
L 353 3041 
L 353 3500 
z
" transform="scale(0.015625)"/>
     </defs>
     <use xlink:href="#DejaVuSans-43"/>
     <use xlink:href="#DejaVuSans-7a" x="69.824219"/>
    </g>
   </g>
   <g id="legend_1">
    <g id="patch_8">
     <path d="M 99.877906 48.500845 
L 360.332593 48.500845 
Q 362.332593 48.500845 362.332593 46.500845 
L 362.332593 18.144595 
Q 362.332593 16.144595 360.332593 16.144595 
L 99.877906 16.144595 
Q 97.877906 16.144595 97.877906 18.144595 
L 97.877906 46.500845 
Q 97.877906 48.500845 99.877906 48.500845 
z
" style="fill: #ffffff; opacity: 0.8; stroke: #cccccc; stroke-linejoin: miter"/>
    </g>
    <g id="text_15">
     <!-- Average of Session 40 -->
     <g transform="translate(174.545874 27.743033)scale(0.1 -0.1)">
      <defs>
       <path id="DejaVuSans-41" d="M 2188 4044 
L 1331 1722 
L 3047 1722 
L 2188 4044 
z
M 1831 4666 
L 2547 4666 
L 4325 0 
L 3669 0 
L 3244 1197 
L 1141 1197 
L 716 0 
L 50 0 
L 1831 4666 
z
" transform="scale(0.015625)"/>
       <path id="DejaVuSans-76" d="M 191 3500 
L 800 3500 
L 1894 563 
L 2988 3500 
L 3597 3500 
L 2284 0 
L 1503 0 
L 191 3500 
z
" transform="scale(0.015625)"/>
       <path id="DejaVuSans-72" d="M 2631 2963 
Q 2534 3019 2420 3045 
Q 2306 3072 2169 3072 
Q 1681 3072 1420 2755 
Q 1159 2438 1159 1844 
L 1159 0 
L 581 0 
L 581 3500 
L 1159 3500 
L 1159 2956 
Q 1341 3275 1631 3429 
Q 1922 3584 2338 3584 
Q 2397 3584 2469 3576 
Q 2541 3569 2628 3553 
L 2631 2963 
z
" transform="scale(0.015625)"/>
       <path id="DejaVuSans-61" d="M 2194 1759 
Q 1497 1759 1228 1600 
Q 959 1441 959 1056 
Q 959 750 1161 570 
Q 1363 391 1709 391 
Q 2188 391 2477 730 
Q 2766 1069 2766 1631 
L 2766 1759 
L 2194 1759 
z
M 3341 1997 
L 3341 0 
L 2766 0 
L 2766 531 
Q 2569 213 2275 61 
Q 1981 -91 1556 -91 
Q 1019 -91 701 211 
Q 384 513 384 1019 
Q 384 1609 779 1909 
Q 1175 2209 1959 2209 
L 2766 2209 
L 2766 2266 
Q 2766 2663 2505 2880 
Q 2244 3097 1772 3097 
Q 1472 3097 1187 3025 
Q 903 2953 641 2809 
L 641 3341 
Q 956 3463 1253 3523 
Q 1550 3584 1831 3584 
Q 2591 3584 2966 3190 
Q 3341 2797 3341 1997 
z
" transform="scale(0.015625)"/>
       <path id="DejaVuSans-67" d="M 2906 1791 
Q 2906 2416 2648 2759 
Q 2391 3103 1925 3103 
Q 1463 3103 1205 2759 
Q 947 2416 947 1791 
Q 947 1169 1205 825 
Q 1463 481 1925 481 
Q 2391 481 2648 825 
Q 2906 1169 2906 1791 
z
M 3481 434 
Q 3481 -459 3084 -895 
Q 2688 -1331 1869 -1331 
Q 1566 -1331 1297 -1286 
Q 1028 -1241 775 -1147 
L 775 -588 
Q 1028 -725 1275 -790 
Q 1522 -856 1778 -856 
Q 2344 -856 2625 -561 
Q 2906 -266 2906 331 
L 2906 616 
Q 2728 306 2450 153 
Q 2172 0 1784 0 
Q 1141 0 747 490 
Q 353 981 353 1791 
Q 353 2603 747 3093 
Q 1141 3584 1784 3584 
Q 2172 3584 2450 3431 
Q 2728 3278 2906 2969 
L 2906 3500 
L 3481 3500 
L 3481 434 
z
" transform="scale(0.015625)"/>
       <path id="DejaVuSans-20" transform="scale(0.015625)"/>
       <path id="DejaVuSans-66" d="M 2375 4863 
L 2375 4384 
L 1825 4384 
Q 1516 4384 1395 4259 
Q 1275 4134 1275 3809 
L 1275 3500 
L 2222 3500 
L 2222 3053 
L 1275 3053 
L 1275 0 
L 697 0 
L 697 3053 
L 147 3053 
L 147 3500 
L 697 3500 
L 697 3744 
Q 697 4328 969 4595 
Q 1241 4863 1831 4863 
L 2375 4863 
z
" transform="scale(0.015625)"/>
       <path id="DejaVuSans-53" d="M 3425 4513 
L 3425 3897 
Q 3066 4069 2747 4153 
Q 2428 4238 2131 4238 
Q 1616 4238 1336 4038 
Q 1056 3838 1056 3469 
Q 1056 3159 1242 3001 
Q 1428 2844 1947 2747 
L 2328 2669 
Q 3034 2534 3370 2195 
Q 3706 1856 3706 1288 
Q 3706 609 3251 259 
Q 2797 -91 1919 -91 
Q 1588 -91 1214 -16 
Q 841 59 441 206 
L 441 856 
Q 825 641 1194 531 
Q 1563 422 1919 422 
Q 2459 422 2753 634 
Q 3047 847 3047 1241 
Q 3047 1584 2836 1778 
Q 2625 1972 2144 2069 
L 1759 2144 
Q 1053 2284 737 2584 
Q 422 2884 422 3419 
Q 422 4038 858 4394 
Q 1294 4750 2059 4750 
Q 2388 4750 2728 4690 
Q 3069 4631 3425 4513 
z
" transform="scale(0.015625)"/>
       <path id="DejaVuSans-69" d="M 603 3500 
L 1178 3500 
L 1178 0 
L 603 0 
L 603 3500 
z
M 603 4863 
L 1178 4863 
L 1178 4134 
L 603 4134 
L 603 4863 
z
" transform="scale(0.015625)"/>
      </defs>
      <use xlink:href="#DejaVuSans-41"/>
      <use xlink:href="#DejaVuSans-76" x="62.533203"/>
      <use xlink:href="#DejaVuSans-65" x="121.712891"/>
      <use xlink:href="#DejaVuSans-72" x="183.236328"/>
      <use xlink:href="#DejaVuSans-61" x="224.349609"/>
      <use xlink:href="#DejaVuSans-67" x="285.628906"/>
      <use xlink:href="#DejaVuSans-65" x="349.105469"/>
      <use xlink:href="#DejaVuSans-20" x="410.628906"/>
      <use xlink:href="#DejaVuSans-6f" x="442.416016"/>
      <use xlink:href="#DejaVuSans-66" x="503.597656"/>
      <use xlink:href="#DejaVuSans-20" x="538.802734"/>
      <use xlink:href="#DejaVuSans-53" x="570.589844"/>
      <use xlink:href="#DejaVuSans-65" x="634.066406"/>
      <use xlink:href="#DejaVuSans-73" x="695.589844"/>
      <use xlink:href="#DejaVuSans-73" x="747.689453"/>
      <use xlink:href="#DejaVuSans-69" x="799.789062"/>
      <use xlink:href="#DejaVuSans-6f" x="827.572266"/>
      <use xlink:href="#DejaVuSans-6e" x="888.753906"/>
      <use xlink:href="#DejaVuSans-20" x="952.132812"/>
      <use xlink:href="#DejaVuSans-34" x="983.919922"/>
      <use xlink:href="#DejaVuSans-30" x="1047.542969"/>
     </g>
    </g>
    <g id="line2d_16">
     <path d="M 101.877906 38.921158 
L 111.877906 38.921158 
L 121.877906 38.921158 
" style="fill: none; stroke: #e41a1c; stroke-width: 1.5; stroke-linecap: square"/>
    </g>
    <g id="text_16">
     <!-- Target (n=277) -->
     <g transform="translate(129.877906 42.421158)scale(0.1 -0.1)">
      <defs>
       <path id="DejaVuSans-54" d="M -19 4666 
L 3928 4666 
L 3928 4134 
L 2272 4134 
L 2272 0 
L 1638 0 
L 1638 4134 
L -19 4134 
L -19 4666 
z
" transform="scale(0.015625)"/>
       <path id="DejaVuSans-74" d="M 1172 4494 
L 1172 3500 
L 2356 3500 
L 2356 3053 
L 1172 3053 
L 1172 1153 
Q 1172 725 1289 603 
Q 1406 481 1766 481 
L 2356 481 
L 2356 0 
L 1766 0 
Q 1100 0 847 248 
Q 594 497 594 1153 
L 594 3053 
L 172 3053 
L 172 3500 
L 594 3500 
L 594 4494 
L 1172 4494 
z
" transform="scale(0.015625)"/>
       <path id="DejaVuSans-28" d="M 1984 4856 
Q 1566 4138 1362 3434 
Q 1159 2731 1159 2009 
Q 1159 1288 1364 580 
Q 1569 -128 1984 -844 
L 1484 -844 
Q 1016 -109 783 600 
Q 550 1309 550 2009 
Q 550 2706 781 3412 
Q 1013 4119 1484 4856 
L 1984 4856 
z
" transform="scale(0.015625)"/>
       <path id="DejaVuSans-3d" d="M 678 2906 
L 4684 2906 
L 4684 2381 
L 678 2381 
L 678 2906 
z
M 678 1631 
L 4684 1631 
L 4684 1100 
L 678 1100 
L 678 1631 
z
" transform="scale(0.015625)"/>
       <path id="DejaVuSans-37" d="M 525 4666 
L 3525 4666 
L 3525 4397 
L 1831 0 
L 1172 0 
L 2766 4134 
L 525 4134 
L 525 4666 
z
" transform="scale(0.015625)"/>
       <path id="DejaVuSans-29" d="M 513 4856 
L 1013 4856 
Q 1481 4119 1714 3412 
Q 1947 2706 1947 2009 
Q 1947 1309 1714 600 
Q 1481 -109 1013 -844 
L 513 -844 
Q 928 -128 1133 580 
Q 1338 1288 1338 2009 
Q 1338 2731 1133 3434 
Q 928 4138 513 4856 
z
" transform="scale(0.015625)"/>
      </defs>
      <use xlink:href="#DejaVuSans-54"/>
      <use xlink:href="#DejaVuSans-61" x="44.583984"/>
      <use xlink:href="#DejaVuSans-72" x="105.863281"/>
      <use xlink:href="#DejaVuSans-67" x="145.226562"/>
      <use xlink:href="#DejaVuSans-65" x="208.703125"/>
      <use xlink:href="#DejaVuSans-74" x="270.226562"/>
      <use xlink:href="#DejaVuSans-20" x="309.435547"/>
      <use xlink:href="#DejaVuSans-28" x="341.222656"/>
      <use xlink:href="#DejaVuSans-6e" x="380.236328"/>
      <use xlink:href="#DejaVuSans-3d" x="443.615234"/>
      <use xlink:href="#DejaVuSans-32" x="527.404297"/>
      <use xlink:href="#DejaVuSans-37" x="591.027344"/>
      <use xlink:href="#DejaVuSans-37" x="654.650391"/>
      <use xlink:href="#DejaVuSans-29" x="718.273438"/>
     </g>
    </g>
    <g id="line2d_17">
     <path d="M 225.607593 38.921158 
L 235.607593 38.921158 
L 245.607593 38.921158 
" style="fill: none; stroke: #377eb8; stroke-width: 1.5; stroke-linecap: square"/>
    </g>
    <g id="text_17">
     <!-- Non-Target (n=1371) -->
     <g transform="translate(253.607593 42.421158)scale(0.1 -0.1)">
      <defs>
       <path id="DejaVuSans-4e" d="M 628 4666 
L 1478 4666 
L 3547 763 
L 3547 4666 
L 4159 4666 
L 4159 0 
L 3309 0 
L 1241 3903 
L 1241 0 
L 628 0 
L 628 4666 
z
" transform="scale(0.015625)"/>
       <path id="DejaVuSans-2d" d="M 313 2009 
L 1997 2009 
L 1997 1497 
L 313 1497 
L 313 2009 
z
" transform="scale(0.015625)"/>
      </defs>
      <use xlink:href="#DejaVuSans-4e"/>
      <use xlink:href="#DejaVuSans-6f" x="74.804688"/>
      <use xlink:href="#DejaVuSans-6e" x="135.986328"/>
      <use xlink:href="#DejaVuSans-2d" x="199.365234"/>
      <use xlink:href="#DejaVuSans-54" x="226.324219"/>
      <use xlink:href="#DejaVuSans-61" x="270.908203"/>
      <use xlink:href="#DejaVuSans-72" x="332.1875"/>
      <use xlink:href="#DejaVuSans-67" x="371.550781"/>
      <use xlink:href="#DejaVuSans-65" x="435.027344"/>
      <use xlink:href="#DejaVuSans-74" x="496.550781"/>
      <use xlink:href="#DejaVuSans-20" x="535.759766"/>
      <use xlink:href="#DejaVuSans-28" x="567.546875"/>
      <use xlink:href="#DejaVuSans-6e" x="606.560547"/>
      <use xlink:href="#DejaVuSans-3d" x="669.939453"/>
      <use xlink:href="#DejaVuSans-31" x="753.728516"/>
      <use xlink:href="#DejaVuSans-33" x="817.351562"/>
      <use xlink:href="#DejaVuSans-37" x="880.974609"/>
      <use xlink:href="#DejaVuSans-31" x="944.597656"/>
      <use xlink:href="#DejaVuSans-29" x="1008.220703"/>
     </g>
    </g>
   </g>
  </g>
 </g>
 <defs>
  <clipPath id="pbef220b345">
   <rect x="46.64" y="71.732" width="366.930499" height="246.308"/>
  </clipPath>
 </defs>
</svg>
