<?xml version="1.0" encoding="utf-8" standalone="no"?>
<!DOCTYPE svg PUBLIC "-//W3C//DTD SVG 1.1//EN"
  "http://www.w3.org/Graphics/SVG/1.1/DTD/svg11.dtd">
<svg xmlns:xlink="http://www.w3.org/1999/xlink" width="432pt" height="360pt" viewBox="0 0 432 360" xmlns="http://www.w3.org/2000/svg" version="1.1">
 <metadata>
  <rdf:RDF xmlns:dc="http://purl.org/dc/elements/1.1/" xmlns:cc="http://creativecommons.org/ns#" xmlns:rdf="http://www.w3.org/1999/02/22-rdf-syntax-ns#">
   <cc:Work>
    <dc:type rdf:resource="http://purl.org/dc/dcmitype/StillImage"/>
    <dc:date>2022-05-19T11:52:28.115818</dc:date>
    <dc:format>image/svg+xml</dc:format>
    <dc:creator>
     <cc:Agent>
      <dc:title>Matplotlib v3.5.1, https://matplotlib.org/</dc:title>
     </cc:Agent>
    </dc:creator>
   </cc:Work>
  </rdf:RDF>
 </metadata>
 <defs>
  <style type="text/css">*{stroke-linejoin: round; stroke-linecap: butt}</style>
 </defs>
 <g id="figure_1">
  <g id="patch_1">
   <path d="M 0 360 
L 432 360 
L 432 0 
L 0 0 
L 0 360 
z
" style="fill: none"/>
  </g>
  <g id="axes_1">
   <g id="patch_2">
    <path d="M 46.64 318.04 
L 413.570499 318.04 
L 413.570499 71.732 
L 46.64 71.732 
L 46.64 318.04 
z
" style="fill: none"/>
   </g>
   <g id="PolyCollection_1">
    <defs>
     <path id="ma408ac9248" d="M 46.64 -121.866578 
L 46.64 -76.405039 
L 47.435945 -80.885917 
L 48.231889 -85.885384 
L 49.027834 -90.254654 
L 49.823779 -93.040735 
L 50.619723 -93.82486 
L 51.415668 -92.779135 
L 52.211613 -90.472167 
L 53.007557 -87.589155 
L 53.803502 -84.705462 
L 54.599447 -82.173022 
L 55.395392 -80.120483 
L 56.191336 -78.541535 
L 56.987281 -77.433256 
L 57.783226 -76.915822 
L 58.57917 -77.244867 
L 59.375115 -78.682329 
L 60.17106 -81.300052 
L 60.967004 -84.860313 
L 61.762949 -88.880493 
L 62.558894 -92.836373 
L 63.354838 -96.329442 
L 64.150783 -99.128208 
L 64.946728 -101.157272 
L 65.742672 -102.520476 
L 66.538617 -103.534095 
L 67.334562 -104.62886 
L 68.130506 -106.06641 
L 68.926451 -107.672905 
L 69.722396 -108.819025 
L 70.51834 -108.681253 
L 71.314285 -106.686097 
L 72.11023 -102.970217 
L 72.906175 -98.556682 
L 73.702119 -94.993486 
L 74.498064 -93.64184 
L 75.294009 -95.05148 
L 76.089953 -98.727129 
L 76.885898 -103.388924 
L 77.681843 -107.535242 
L 78.477787 -109.920312 
L 79.273732 -109.802987 
L 80.069677 -107.068493 
L 80.865621 -102.25486 
L 81.661566 -96.450614 
L 82.457511 -91.038777 
L 83.253455 -87.28402 
L 84.0494 -85.887646 
L 84.845345 -86.756637 
L 85.641289 -89.134297 
L 86.437234 -92.030722 
L 87.233179 -94.71445 
L 88.029124 -96.95599 
L 88.825068 -98.902241 
L 89.621013 -100.767866 
L 90.416958 -102.607278 
L 91.212902 -104.28517 
L 92.008847 -105.581539 
L 92.804792 -106.296782 
L 93.600736 -106.321844 
L 94.396681 -105.731606 
L 95.192626 -104.868002 
L 95.98857 -104.246806 
L 96.784515 -104.239196 
L 97.58046 -104.76986 
L 98.376404 -105.342161 
L 99.172349 -105.41875 
L 99.968294 -104.806244 
L 100.764238 -103.709934 
L 101.560183 -102.526851 
L 102.356128 -101.617086 
L 103.152073 -101.191001 
L 103.948017 -101.332241 
L 104.743962 -102.039809 
L 105.539907 -103.147462 
L 106.335851 -104.211433 
L 107.131796 -104.589711 
L 107.927741 -103.760579 
L 108.723685 -101.709562 
L 109.51963 -99.08672 
L 110.315575 -96.932606 
L 111.111519 -96.136702 
L 111.907464 -96.9958 
L 112.703409 -99.095129 
L 113.499353 -101.515493 
L 114.295298 -103.227212 
L 115.091243 -103.486918 
L 115.887187 -102.102449 
L 116.683132 -99.497095 
L 117.479077 -96.535523 
L 118.275021 -94.140789 
L 119.070966 -92.865803 
L 119.866911 -92.656336 
L 120.662856 -92.942362 
L 121.4588 -92.968711 
L 122.254745 -92.124833 
L 123.05069 -90.120503 
L 123.846634 -87.039124 
L 124.642579 -83.344728 
L 125.438524 -79.82242 
L 126.234468 -77.35463 
L 127.030413 -76.54672 
L 127.826358 -77.429883 
L 128.622302 -79.463902 
L 129.418247 -81.808298 
L 130.214192 -83.632796 
L 131.010136 -84.30362 
L 131.806081 -83.47858 
L 132.602026 -81.212547 
L 133.39797 -78.061582 
L 134.193915 -75.024784 
L 134.98986 -73.210923 
L 135.785805 -73.383936 
L 136.581749 -75.683977 
L 137.377694 -79.666415 
L 138.173639 -84.539317 
L 138.969583 -89.370441 
L 139.765528 -93.20897 
L 140.561473 -95.260175 
L 141.357417 -95.155193 
L 142.153362 -93.145369 
L 142.949307 -90.035674 
L 143.745251 -86.879014 
L 144.541196 -84.635203 
L 145.337141 -83.962183 
L 146.133085 -85.116042 
L 146.92903 -87.850144 
L 147.724975 -91.364958 
L 148.520919 -94.49532 
L 149.316864 -96.185865 
L 150.112809 -96.031029 
L 150.908753 -94.506355 
L 151.704698 -92.714154 
L 152.500643 -91.846747 
L 153.296588 -92.704524 
L 154.092532 -95.452315 
L 154.888477 -99.595338 
L 155.684422 -104.0844 
L 156.480366 -107.547528 
L 157.276311 -108.689061 
L 158.072256 -106.754755 
L 158.8682 -101.816936 
L 159.664145 -94.723051 
L 160.46009 -86.796663 
L 161.256034 -79.484082 
L 162.051979 -74.030336 
L 162.847924 -71.177319 
L 163.643868 -70.950162 
L 164.439813 -72.675918 
L 165.235758 -75.292979 
L 166.031702 -77.810022 
L 166.827647 -79.632892 
L 167.623592 -80.587107 
L 168.419537 -80.75337 
L 169.215481 -80.339744 
L 170.011426 -79.642532 
L 170.807371 -78.989688 
L 171.603315 -78.624217 
L 172.39926 -78.627112 
L 173.195205 -78.957863 
L 173.991149 -79.537753 
L 174.787094 -80.242925 
L 175.583039 -80.807221 
L 176.378983 -80.785605 
L 177.174928 -79.699288 
L 177.970873 -77.302503 
L 178.766817 -73.765004 
L 179.562762 -69.627621 
L 180.358707 -65.594653 
L 181.154651 -62.31831 
L 181.950596 -60.249559 
L 182.746541 -59.534752 
L 183.542485 -59.942884 
L 184.33843 -60.881404 
L 185.134375 -61.568756 
L 185.93032 -61.332986 
L 186.726264 -59.900979 
L 187.522209 -57.537745 
L 188.318154 -54.982875 
L 189.114098 -53.220773 
L 189.910043 -53.155818 
L 190.705988 -55.278482 
L 191.501932 -59.440084 
L 192.297877 -64.859456 
L 193.093822 -70.403929 
L 193.889766 -75.028122 
L 194.685711 -78.128612 
L 195.481656 -79.633742 
L 196.2776 -79.86438 
L 197.073545 -79.336544 
L 197.86949 -78.617349 
L 198.665434 -78.209188 
L 199.461379 -78.408541 
L 200.257324 -79.195896 
L 201.053269 -80.26813 
L 201.849213 -81.227165 
L 202.645158 -81.816306 
L 203.441103 -82.062046 
L 204.237047 -82.241048 
L 205.032992 -82.701611 
L 205.828937 -83.657377 
L 206.624881 -85.079474 
L 207.420826 -86.734816 
L 208.216771 -88.314659 
L 209.012715 -89.557801 
L 209.80866 -90.319449 
L 210.604605 -90.600079 
L 211.400549 -90.563629 
L 212.196494 -90.536878 
L 212.992439 -90.936263 
L 213.788383 -92.097043 
L 214.584328 -94.089655 
L 215.380273 -96.657644 
L 216.176218 -99.324007 
L 216.972162 -101.595659 
L 217.768107 -103.158796 
L 218.564052 -103.994272 
L 219.359996 -104.38429 
L 220.155941 -104.803493 
L 220.951886 -105.724675 
L 221.74783 -107.427743 
L 222.543775 -109.91827 
L 223.33972 -112.990844 
L 224.135664 -116.35859 
L 224.931609 -119.734877 
L 225.727554 -122.840063 
L 226.523498 -125.395396 
L 227.319443 -127.158009 
L 228.115388 -127.991459 
L 228.911332 -127.927692 
L 229.707277 -127.177049 
L 230.503222 -126.072452 
L 231.299166 -124.970141 
L 232.095111 -124.148129 
L 232.891056 -123.737237 
L 233.687001 -123.699907 
L 234.482945 -123.852374 
L 235.27889 -123.917504 
L 236.074835 -123.601028 
L 236.870779 -122.683525 
L 237.666724 -121.102394 
L 238.462669 -118.988874 
L 239.258613 -116.647035 
L 240.054558 -114.489521 
L 240.850503 -112.94916 
L 241.646447 -112.376225 
L 242.442392 -112.93538 
L 243.238337 -114.536037 
L 244.034281 -116.833172 
L 244.830226 -119.301576 
L 245.626171 -121.351884 
L 246.422115 -122.466188 
L 247.21806 -122.354031 
L 248.014005 -121.103885 
L 248.80995 -119.243105 
L 249.605894 -117.615249 
L 250.401839 -117.092801 
L 251.197784 -118.26594 
L 251.993728 -121.250869 
L 252.789673 -125.664216 
L 253.585618 -130.730643 
L 254.381562 -135.486085 
L 255.177507 -139.049359 
L 255.973452 -140.890004 
L 256.769396 -140.973204 
L 257.565341 -139.716403 
L 258.361286 -137.814676 
L 259.15723 -136.053003 
L 259.953175 -135.174107 
L 260.74912 -135.773674 
L 261.545064 -138.164293 
L 262.341009 -142.238646 
L 263.136954 -147.44447 
L 263.932898 -152.92412 
L 264.728843 -157.754504 
L 265.524788 -161.194114 
L 266.320733 -162.89126 
L 267.116677 -163.025211 
L 267.912622 -162.313627 
L 268.708567 -161.814781 
L 269.504511 -162.552596 
L 270.300456 -165.12153 
L 271.096401 -169.455631 
L 271.892345 -174.853301 
L 272.68829 -180.216712 
L 273.484235 -184.384964 
L 274.280179 -186.452514 
L 275.076124 -186.01195 
L 275.872069 -183.273075 
L 276.668013 -179.010719 
L 277.463958 -174.336542 
L 278.259903 -170.371034 
L 279.055847 -167.95046 
L 279.851792 -167.479081 
L 280.647737 -168.935433 
L 281.443682 -171.960425 
L 282.239626 -175.973935 
L 283.035571 -180.322042 
L 283.831516 -184.452952 
L 284.62746 -188.06411 
L 285.423405 -191.126057 
L 286.21935 -193.742027 
L 287.015294 -195.935855 
L 287.811239 -197.531883 
L 288.607184 -198.206729 
L 289.403128 -197.653168 
L 290.199073 -195.743717 
L 290.995018 -192.626872 
L 291.790962 -188.73837 
L 292.586907 -184.714091 
L 293.382852 -181.2021 
L 294.178796 -178.634147 
L 294.974741 -177.075805 
L 295.770686 -176.24331 
L 296.56663 -175.664911 
L 297.362575 -174.880015 
L 298.15852 -173.588219 
L 298.954465 -171.733648 
L 299.750409 -169.532754 
L 300.546354 -167.42135 
L 301.342299 -165.901528 
L 302.138243 -165.342184 
L 302.934188 -165.838359 
L 303.730133 -167.198235 
L 304.526077 -169.046434 
L 305.322022 -170.975836 
L 306.117967 -172.672292 
L 306.913911 -173.967207 
L 307.709856 -174.817267 
L 308.505801 -175.244577 
L 309.301745 -175.279044 
L 310.09769 -174.929595 
L 310.893635 -174.19055 
L 311.689579 -173.077695 
L 312.485524 -171.677381 
L 313.281469 -170.173042 
L 314.077414 -168.808364 
L 314.873358 -167.784147 
L 315.669303 -167.144194 
L 316.465248 -166.724402 
L 317.261192 -166.196353 
L 318.057137 -165.17524 
L 318.853082 -163.3418 
L 319.649026 -160.554015 
L 320.444971 -156.936915 
L 321.240916 -152.91161 
L 322.03686 -149.117139 
L 322.832805 -146.233963 
L 323.62875 -144.781145 
L 324.424694 -144.96126 
L 325.220639 -146.587581 
L 326.016584 -149.108632 
L 326.812528 -151.747383 
L 327.608473 -153.746611 
L 328.404418 -154.642803 
L 329.200363 -154.433934 
L 329.996307 -153.545133 
L 330.792252 -152.626399 
L 331.588197 -152.301585 
L 332.384141 -152.950385 
L 333.180086 -154.552812 
L 333.976031 -156.648772 
L 334.771975 -158.481192 
L 335.56792 -159.308597 
L 336.363865 -158.745249 
L 337.159809 -156.941132 
L 337.955754 -154.51482 
L 338.751699 -152.317152 
L 339.547643 -151.169452 
L 340.343588 -151.645513 
L 341.139533 -153.895404 
L 341.935477 -157.552386 
L 342.731422 -161.816218 
L 343.527367 -165.73427 
L 344.323311 -168.563248 
L 345.119256 -170.025894 
L 345.915201 -170.337653 
L 346.711146 -170.0181 
L 347.50709 -169.61059 
L 348.303035 -169.446573 
L 349.09898 -169.537207 
L 349.894924 -169.611116 
L 350.690869 -169.264927 
L 351.486814 -168.155404 
L 352.282758 -166.152484 
L 353.078703 -163.402001 
L 353.874648 -160.296361 
L 354.670592 -157.380447 
L 355.466537 -155.211377 
L 356.262482 -154.185809 
L 357.058426 -154.392823 
L 357.854371 -155.589836 
L 358.650316 -157.346516 
L 359.44626 -159.282077 
L 360.242205 -161.241677 
L 361.03815 -163.294303 
L 361.834095 -165.563926 
L 362.630039 -168.017021 
L 363.425984 -170.340655 
L 364.221929 -171.972903 
L 365.017873 -172.262149 
L 365.813818 -170.690009 
L 366.609763 -167.090386 
L 367.405707 -161.793527 
L 368.201652 -155.619534 
L 368.997597 -149.685709 
L 369.793541 -145.081862 
L 370.589486 -142.543329 
L 371.385431 -142.253363 
L 372.181375 -143.840419 
L 372.97732 -146.550784 
L 373.773265 -149.520275 
L 374.569209 -152.053856 
L 375.365154 -153.829203 
L 376.161099 -154.957481 
L 376.957043 -155.877001 
L 377.752988 -157.125602 
L 378.548933 -159.098502 
L 379.344878 -161.905482 
L 380.140822 -165.383029 
L 380.936767 -169.22338 
L 381.732712 -173.115972 
L 382.528656 -176.813349 
L 383.324601 -180.115747 
L 384.120546 -182.830615 
L 384.91649 -184.750443 
L 385.712435 -185.644831 
L 386.50838 -185.260482 
L 387.304324 -183.368108 
L 388.100269 -179.898869 
L 388.896214 -175.128093 
L 389.692158 -169.766573 
L 390.488103 -164.832694 
L 391.284048 -161.327485 
L 392.079992 -159.882499 
L 392.875937 -160.550805 
L 393.671882 -162.789911 
L 394.467827 -165.593068 
L 395.263771 -167.741142 
L 396.059716 -168.171046 
L 396.855661 -166.377816 
L 397.651605 -162.658685 
L 398.44755 -158.034663 
L 399.243495 -153.871611 
L 400.039439 -151.399005 
L 400.835384 -151.346252 
L 401.631329 -153.806654 
L 402.427273 -158.303975 
L 403.223218 -163.970901 
L 404.019163 -169.771589 
L 404.815107 -174.73917 
L 405.611052 -178.196847 
L 406.406997 -179.907823 
L 407.202941 -180.089677 
L 407.998886 -179.259874 
L 408.794831 -177.969427 
L 409.590775 -176.577954 
L 410.38672 -175.210498 
L 411.182665 -173.887932 
L 411.97861 -172.674433 
L 412.774554 -171.70395 
L 413.570499 -171.102392 
L 413.570499 -264.240181 
L 413.570499 -264.240181 
L 412.774554 -264.159992 
L 411.97861 -263.910435 
L 411.182665 -263.653776 
L 410.38672 -263.70352 
L 409.590775 -264.317955 
L 408.794831 -265.524822 
L 407.998886 -267.08241 
L 407.202941 -268.543732 
L 406.406997 -269.342196 
L 405.611052 -268.890974 
L 404.815107 -266.746702 
L 404.019163 -262.833672 
L 403.223218 -257.616952 
L 402.427273 -252.083969 
L 401.631329 -247.479744 
L 400.835384 -244.875046 
L 400.039439 -244.754372 
L 399.243495 -246.824713 
L 398.44755 -250.134113 
L 397.651605 -253.423449 
L 396.855661 -255.539582 
L 396.059716 -255.760812 
L 395.263771 -253.976913 
L 394.467827 -250.728174 
L 393.671882 -247.088195 
L 392.875937 -244.357305 
L 392.079992 -243.622346 
L 391.284048 -245.373524 
L 390.488103 -249.377902 
L 389.692158 -254.840779 
L 388.896214 -260.709918 
L 388.100269 -265.961811 
L 387.304324 -269.810164 
L 386.50838 -271.841931 
L 385.712435 -272.062504 
L 384.91649 -270.809179 
L 384.120546 -268.549757 
L 383.324601 -265.676004 
L 382.528656 -262.421042 
L 381.732712 -258.929042 
L 380.936767 -255.376228 
L 380.140822 -252.017967 
L 379.344878 -249.125565 
L 378.548933 -246.872564 
L 377.752988 -245.250639 
L 376.957043 -244.054677 
L 376.161099 -242.93764 
L 375.365154 -241.521667 
L 374.569209 -239.544948 
L 373.773265 -237.006861 
L 372.97732 -234.250838 
L 372.181375 -231.922902 
L 371.385431 -230.787338 
L 370.589486 -231.45681 
L 369.793541 -234.15139 
L 368.997597 -238.592555 
L 368.201652 -244.069582 
L 367.405707 -249.639247 
L 366.609763 -254.381809 
L 365.813818 -257.637034 
L 365.017873 -259.153884 
L 364.221929 -259.099287 
L 363.425984 -257.913889 
L 362.630039 -256.081072 
L 361.834095 -253.932992 
L 361.03815 -251.590943 
L 360.242205 -249.041668 
L 359.44626 -246.270571 
L 358.650316 -243.366888 
L 357.854371 -240.567961 
L 357.058426 -238.252392 
L 356.262482 -236.883213 
L 355.466537 -236.88213 
L 354.670592 -238.444781 
L 353.874648 -241.377444 
L 353.078703 -245.078527 
L 352.282758 -248.728211 
L 351.486814 -251.605348 
L 350.690869 -253.357606 
L 349.894924 -254.090238 
L 349.09898 -254.2487 
L 348.303035 -254.364441 
L 347.50709 -254.781731 
L 346.711146 -255.484828 
L 345.915201 -256.098743 
L 345.119256 -256.056263 
L 344.323311 -254.846572 
L 343.527367 -252.23492 
L 342.731422 -248.382372 
L 341.935477 -243.852403 
L 341.139533 -239.508313 
L 340.343588 -236.296806 
L 339.547643 -234.940889 
L 338.751699 -235.642822 
L 337.955754 -237.960396 
L 337.159809 -240.964508 
L 336.363865 -243.603129 
L 335.56792 -245.062281 
L 334.771975 -244.97053 
L 333.976031 -243.439319 
L 333.180086 -240.991999 
L 332.384141 -238.398382 
L 331.588197 -236.419821 
L 330.792252 -235.532355 
L 329.996307 -235.758387 
L 329.200363 -236.705128 
L 328.404418 -237.775573 
L 327.608473 -238.415028 
L 326.812528 -238.290416 
L 326.016584 -237.387307 
L 325.220639 -236.023424 
L 324.424694 -234.75132 
L 323.62875 -234.154914 
L 322.832805 -234.620803 
L 322.03686 -236.198496 
L 321.240916 -238.611872 
L 320.444971 -241.392647 
L 319.649026 -244.057248 
L 318.853082 -246.262623 
L 318.057137 -247.902152 
L 317.261192 -249.10843 
L 316.465248 -250.150667 
L 315.669303 -251.275714 
L 314.873358 -252.58768 
L 314.077414 -254.027421 
L 313.281469 -255.433019 
L 312.485524 -256.62182 
L 311.689579 -257.45407 
L 310.893635 -257.869521 
L 310.09769 -257.895102 
L 309.301745 -257.61731 
L 308.505801 -257.124928 
L 307.709856 -256.452514 
L 306.913911 -255.563019 
L 306.117967 -254.383711 
L 305.322022 -252.873267 
L 304.526077 -251.080926 
L 303.730133 -249.167909 
L 302.934188 -247.382129 
L 302.138243 -245.996782 
L 301.342299 -245.23537 
L 300.546354 -245.205366 
L 299.750409 -245.855175 
L 298.954465 -246.972505 
L 298.15852 -248.253861 
L 297.362575 -249.450401 
L 296.56663 -250.520671 
L 295.770686 -251.677495 
L 294.974741 -253.281666 
L 294.178796 -255.652321 
L 293.382852 -258.909101 
L 292.586907 -262.905131 
L 291.790962 -267.241428 
L 290.995018 -271.344648 
L 290.199073 -274.608506 
L 289.403128 -276.574909 
L 288.607184 -277.072182 
L 287.811239 -276.225224 
L 287.015294 -274.339587 
L 286.21935 -271.74759 
L 285.423405 -268.698805 
L 284.62746 -265.311695 
L 283.831516 -261.575456 
L 283.035571 -257.422513 
L 282.239626 -252.89313 
L 281.443682 -248.322759 
L 280.647737 -244.399701 
L 279.851792 -241.991083 
L 279.055847 -241.7887 
L 278.259903 -243.958901 
L 277.463958 -247.989387 
L 276.668013 -252.801602 
L 275.872069 -257.056965 
L 275.076124 -259.535224 
L 274.280179 -259.479475 
L 273.484235 -256.818811 
L 272.68829 -252.191046 
L 271.892345 -246.73159 
L 271.096401 -241.687602 
L 270.300456 -238.013808 
L 269.504511 -236.117835 
L 268.708567 -235.822915 
L 267.912622 -236.497526 
L 267.116677 -237.258848 
L 266.320733 -237.192035 
L 265.524788 -235.577155 
L 264.728843 -232.106304 
L 263.932898 -227.012937 
L 263.136954 -221.029232 
L 262.341009 -215.176043 
L 261.545064 -210.480717 
L 260.74912 -207.718725 
L 259.953175 -207.212434 
L 259.15723 -208.702183 
L 258.361286 -211.359513 
L 257.565341 -214.013435 
L 256.769396 -215.529733 
L 255.973452 -215.162629 
L 255.177507 -212.727398 
L 254.381562 -208.570433 
L 253.585618 -203.415562 
L 252.789673 -198.169214 
L 251.993728 -193.708707 
L 251.197784 -190.666215 
L 250.401839 -189.271938 
L 249.605894 -189.329777 
L 248.80995 -190.323104 
L 248.014005 -191.575625 
L 247.21806 -192.407245 
L 246.422115 -192.288902 
L 245.626171 -191.004887 
L 244.830226 -188.758569 
L 244.034281 -186.12829 
L 243.238337 -183.862128 
L 242.442392 -182.607471 
L 241.646447 -182.701049 
L 240.850503 -184.088817 
L 240.054558 -186.374676 
L 239.258613 -188.966026 
L 238.462669 -191.271676 
L 237.666724 -192.887008 
L 236.870779 -193.695957 
L 236.074835 -193.856869 
L 235.27889 -193.698543 
L 234.482945 -193.586646 
L 233.687001 -193.811109 
L 232.891056 -194.517301 
L 232.095111 -195.687772 
L 231.299166 -197.172584 
L 230.503222 -198.748537 
L 229.707277 -200.172976 
L 228.911332 -201.206567 
L 228.115388 -201.608971 
L 227.319443 -201.139813 
L 226.523498 -199.59983 
L 225.727554 -196.91754 
L 224.931609 -193.243595 
L 224.135664 -188.985709 
L 223.33972 -184.727544 
L 222.543775 -181.038262 
L 221.74783 -178.267984 
L 220.951886 -176.452379 
L 220.155941 -175.361843 
L 219.359996 -174.622965 
L 218.564052 -173.832777 
L 217.768107 -172.648339 
L 216.972162 -170.868362 
L 216.176218 -168.49929 
L 215.380273 -165.766066 
L 214.584328 -163.046869 
L 213.788383 -160.759398 
L 212.992439 -159.237318 
L 212.196494 -158.611468 
L 211.400549 -158.715445 
L 210.604605 -159.082869 
L 209.80866 -159.106729 
L 209.012715 -158.319886 
L 208.216771 -156.633547 
L 207.420826 -154.383008 
L 206.624881 -152.157672 
L 205.828937 -150.52327 
L 205.032992 -149.792137 
L 204.237047 -149.938008 
L 203.441103 -150.649946 
L 202.645158 -151.46508 
L 201.849213 -151.925236 
L 201.053269 -151.725256 
L 200.257324 -150.8246 
L 199.461379 -149.478687 
L 198.665434 -148.145431 
L 197.86949 -147.262659 
L 197.073545 -146.97153 
L 196.2776 -146.948766 
L 195.481656 -146.50881 
L 194.685711 -144.957739 
L 193.889766 -141.96808 
L 193.093822 -137.738502 
L 192.297877 -132.893261 
L 191.501932 -128.253451 
L 190.705988 -124.614679 
L 189.910043 -122.557097 
L 189.114098 -122.280475 
L 188.318154 -123.514951 
L 187.522209 -125.586185 
L 186.726264 -127.651313 
L 185.93032 -129.011916 
L 185.134375 -129.35598 
L 184.33843 -128.836853 
L 183.542485 -127.991575 
L 182.746541 -127.544178 
L 181.950596 -128.14316 
L 181.154651 -130.104972 
L 180.358707 -133.275705 
L 179.562762 -137.105795 
L 178.766817 -140.909499 
L 177.970873 -144.141407 
L 177.174928 -146.514744 
L 176.378983 -147.939055 
L 175.583039 -148.423667 
L 174.787094 -148.075193 
L 173.991149 -147.141709 
L 173.195205 -145.979747 
L 172.39926 -144.921213 
L 171.603315 -144.147283 
L 170.807371 -143.680533 
L 170.011426 -143.465535 
L 169.215481 -143.405287 
L 168.419537 -143.310978 
L 167.623592 -142.886858 
L 166.827647 -141.867405 
L 166.031702 -140.227184 
L 165.235758 -138.266007 
L 164.439813 -136.507094 
L 163.643868 -135.546049 
L 162.847924 -135.964031 
L 162.051979 -138.236253 
L 161.256034 -142.539481 
L 160.46009 -148.518223 
L 159.664145 -155.205441 
L 158.8682 -161.250953 
L 158.072256 -165.382058 
L 157.276311 -166.83623 
L 156.480366 -165.573638 
L 155.684422 -162.266176 
L 154.888477 -158.116476 
L 154.092532 -154.500619 
L 153.296588 -152.472829 
L 152.500643 -152.34402 
L 151.704698 -153.603655 
L 150.908753 -155.239062 
L 150.112809 -156.225111 
L 149.316864 -155.891414 
L 148.520919 -154.043813 
L 147.724975 -150.947087 
L 146.92903 -147.299297 
L 146.133085 -144.129158 
L 145.337141 -142.485065 
L 144.541196 -142.971613 
L 143.745251 -145.401996 
L 142.949307 -148.837812 
L 142.153362 -151.998833 
L 141.357417 -153.747418 
L 140.561473 -153.396384 
L 139.765528 -150.815091 
L 138.969583 -146.43561 
L 138.173639 -141.19098 
L 137.377694 -136.30091 
L 136.581749 -132.879077 
L 135.785805 -131.550185 
L 134.98986 -132.331249 
L 134.193915 -134.78713 
L 133.39797 -138.23869 
L 132.602026 -141.862184 
L 131.806081 -144.738943 
L 131.010136 -146.033671 
L 130.214192 -145.321957 
L 129.418247 -142.839446 
L 128.622302 -139.431674 
L 127.826358 -136.21579 
L 127.030413 -134.170845 
L 126.234468 -133.872811 
L 125.438524 -135.406113 
L 124.642579 -138.359385 
L 123.846634 -141.892567 
L 123.05069 -144.977708 
L 122.254745 -146.819627 
L 121.4588 -147.229388 
L 120.662856 -146.683967 
L 119.866911 -146.023908 
L 119.070966 -146.001527 
L 118.275021 -146.963956 
L 117.479077 -148.782576 
L 116.683132 -150.957183 
L 115.887187 -152.806947 
L 115.091243 -153.71057 
L 114.295298 -153.351807 
L 113.499353 -151.869445 
L 112.703409 -149.806837 
L 111.907464 -147.871009 
L 111.111519 -146.643034 
L 110.315575 -146.392901 
L 109.51963 -147.055119 
L 108.723685 -148.313433 
L 107.927741 -149.700312 
L 107.131796 -150.695716 
L 106.335851 -150.916279 
L 105.539907 -150.367552 
L 104.743962 -149.534305 
L 103.948017 -149.157339 
L 103.152073 -149.774545 
L 102.356128 -151.313455 
L 101.560183 -153.078802 
L 100.764238 -154.176755 
L 99.968294 -154.047709 
L 99.172349 -152.756222 
L 98.376404 -150.879716 
L 97.58046 -149.092782 
L 96.784515 -147.800032 
L 95.98857 -147.09172 
L 95.192626 -146.885206 
L 94.396681 -146.998096 
L 93.600736 -147.136582 
L 92.804792 -146.950449 
L 92.008847 -146.208209 
L 91.212902 -144.920866 
L 90.416958 -143.248711 
L 89.621013 -141.280444 
L 88.825068 -138.925652 
L 88.029124 -136.027693 
L 87.233179 -132.58139 
L 86.437234 -128.869906 
L 85.641289 -125.430402 
L 84.845345 -122.91861 
L 84.0494 -121.98547 
L 83.253455 -123.145471 
L 82.457511 -126.570902 
L 81.661566 -131.861076 
L 80.865621 -137.930922 
L 80.069677 -143.188805 
L 79.273732 -146.059402 
L 78.477787 -145.639043 
L 77.681843 -142.12845 
L 76.885898 -136.795344 
L 76.089953 -131.438457 
L 75.294009 -127.622253 
L 74.498064 -126.158344 
L 73.702119 -127.049997 
L 72.906175 -129.720362 
L 72.11023 -133.312195 
L 71.314285 -136.924744 
L 70.51834 -139.742789 
L 69.722396 -141.182307 
L 68.926451 -141.08505 
L 68.130506 -139.760274 
L 67.334562 -137.798192 
L 66.538617 -135.777348 
L 65.742672 -133.990451 
L 64.946728 -132.293477 
L 64.150783 -130.214205 
L 63.354838 -127.320109 
L 62.558894 -123.573448 
L 61.762949 -119.398705 
L 60.967004 -115.441403 
L 60.17106 -112.230965 
L 59.375115 -110.004978 
L 58.57917 -108.756125 
L 57.783226 -108.374357 
L 56.987281 -108.766523 
L 56.191336 -109.914941 
L 55.395392 -111.874029 
L 54.599447 -114.706347 
L 53.803502 -118.36416 
L 53.007557 -122.563219 
L 52.211613 -126.740477 
L 51.415668 -130.164478 
L 50.619723 -132.172538 
L 49.823779 -132.41469 
L 49.027834 -130.967406 
L 48.231889 -128.275072 
L 47.435945 -125.000718 
L 46.64 -121.866578 
z
" style="stroke: #e41a1c; stroke-opacity: 0.3"/>
    </defs>
    <g clip-path="url(#p61579bfe23)">
     <use xlink:href="#ma408ac9248" x="0" y="360" style="fill: #e41a1c; fill-opacity: 0.3; stroke: #e41a1c; stroke-opacity: 0.3"/>
    </g>
   </g>
   <g id="PolyCollection_2">
    <defs>
     <path id="m3067ea9bea" d="M 46.64 -120.592819 
L 46.64 -102.293908 
L 47.435945 -101.28118 
L 48.231889 -100.838463 
L 49.027834 -101.085209 
L 49.823779 -101.871831 
L 50.619723 -102.84179 
L 51.415668 -103.586542 
L 52.211613 -103.806612 
L 53.007557 -103.391076 
L 53.803502 -102.406135 
L 54.599447 -101.044121 
L 55.395392 -99.571596 
L 56.191336 -98.28078 
L 56.987281 -97.43484 
L 57.783226 -97.208839 
L 58.57917 -97.646478 
L 59.375115 -98.651598 
L 60.17106 -100.016458 
L 60.967004 -101.47886 
L 61.762949 -102.795878 
L 62.558894 -103.809476 
L 63.354838 -104.470504 
L 64.150783 -104.814046 
L 64.946728 -104.922585 
L 65.742672 -104.913384 
L 66.538617 -104.942263 
L 67.334562 -105.18533 
L 68.130506 -105.780704 
L 68.926451 -106.75957 
L 69.722396 -108.015185 
L 70.51834 -109.328561 
L 71.314285 -110.422317 
L 72.11023 -111.010541 
L 72.906175 -110.851879 
L 73.702119 -109.821958 
L 74.498064 -107.990664 
L 75.294009 -105.662175 
L 76.089953 -103.326881 
L 76.885898 -101.507105 
L 77.681843 -100.556628 
L 78.477787 -100.521448 
L 79.273732 -101.135581 
L 80.069677 -101.947479 
L 80.865621 -102.502345 
L 81.661566 -102.492017 
L 82.457511 -101.83239 
L 83.253455 -100.669307 
L 84.0494 -99.31017 
L 84.845345 -98.08109 
L 85.641289 -97.159187 
L 86.437234 -96.475127 
L 87.233179 -95.752001 
L 88.029124 -94.658824 
L 88.825068 -92.985672 
L 89.621013 -90.752533 
L 90.416958 -88.22756 
L 91.212902 -85.875237 
L 92.008847 -84.245704 
L 92.804792 -83.804432 
L 93.600736 -84.747991 
L 94.396681 -86.905791 
L 95.192626 -89.795956 
L 95.98857 -92.808783 
L 96.784515 -95.416507 
L 97.58046 -97.306199 
L 98.376404 -98.398949 
L 99.172349 -98.788744 
L 99.968294 -98.657793 
L 100.764238 -98.207129 
L 101.560183 -97.611255 
L 102.356128 -96.992833 
L 103.152073 -96.420968 
L 103.948017 -95.935979 
L 104.743962 -95.586837 
L 105.539907 -95.454876 
L 106.335851 -95.639316 
L 107.131796 -96.198546 
L 107.927741 -97.077137 
L 108.723685 -98.07694 
L 109.51963 -98.911681 
L 110.315575 -99.325027 
L 111.111519 -99.20623 
L 111.907464 -98.642284 
L 112.703409 -97.885588 
L 113.499353 -97.254649 
L 114.295298 -97.008835 
L 115.091243 -97.248121 
L 115.887187 -97.878639 
L 116.683132 -98.652269 
L 117.479077 -99.255355 
L 118.275021 -99.411289 
L 119.070966 -98.968128 
L 119.866911 -97.949186 
L 120.662856 -96.549886 
L 121.4588 -95.071644 
L 122.254745 -93.802687 
L 123.05069 -92.891364 
L 123.846634 -92.279644 
L 124.642579 -91.737538 
L 125.438524 -90.980128 
L 126.234468 -89.8052 
L 127.030413 -88.187106 
L 127.826358 -86.292339 
L 128.622302 -84.419338 
L 129.418247 -82.892109 
L 130.214192 -81.951408 
L 131.010136 -81.686194 
L 131.806081 -82.028078 
L 132.602026 -82.799689 
L 133.39797 -83.785206 
L 134.193915 -84.790945 
L 134.98986 -85.678208 
L 135.785805 -86.363545 
L 136.581749 -86.789789 
L 137.377694 -86.884793 
L 138.173639 -86.54203 
L 138.969583 -85.653469 
L 139.765528 -84.18794 
L 140.561473 -82.265847 
L 141.357417 -80.174097 
L 142.153362 -78.301652 
L 142.949307 -77.023156 
L 143.745251 -76.578735 
L 144.541196 -76.989141 
L 145.337141 -78.030009 
L 146.133085 -79.282017 
L 146.92903 -80.260092 
L 147.724975 -80.58882 
L 148.520919 -80.153284 
L 149.316864 -79.151867 
L 150.112809 -78.021367 
L 150.908753 -77.267221 
L 151.704698 -77.272801 
L 152.500643 -78.165346 
L 153.296588 -79.788608 
L 154.092532 -81.784672 
L 154.888477 -83.738337 
L 155.684422 -85.314205 
L 156.480366 -86.33364 
L 157.276311 -86.779533 
L 158.072256 -86.750993 
L 158.8682 -86.400432 
L 159.664145 -85.874146 
L 160.46009 -85.266049 
L 161.256034 -84.60002 
L 162.051979 -83.858166 
L 162.847924 -83.044571 
L 163.643868 -82.238756 
L 164.439813 -81.591847 
L 165.235758 -81.259965 
L 166.031702 -81.317522 
L 166.827647 -81.705981 
L 167.623592 -82.245564 
L 168.419537 -82.698258 
L 169.215481 -82.850902 
L 170.011426 -82.589259 
L 170.807371 -81.939951 
L 171.603315 -81.062168 
L 172.39926 -80.184803 
L 173.195205 -79.509149 
L 173.991149 -79.119113 
L 174.787094 -78.942706 
L 175.583039 -78.784851 
L 176.378983 -78.415143 
L 177.174928 -77.666776 
L 177.970873 -76.499094 
L 178.766817 -74.997087 
L 179.562762 -73.315046 
L 180.358707 -71.599743 
L 181.154651 -69.934842 
L 181.950596 -68.330383 
L 182.746541 -66.753159 
L 183.542485 -65.175449 
L 184.33843 -63.617821 
L 185.134375 -62.168374 
L 185.93032 -60.968989 
L 186.726264 -60.170618 
L 187.522209 -59.874475 
L 188.318154 -60.085682 
L 189.114098 -60.701085 
L 189.910043 -61.535691 
L 190.705988 -62.376542 
L 191.501932 -63.046604 
L 192.297877 -63.458867 
L 193.093822 -63.639603 
L 193.889766 -63.706841 
L 194.685711 -63.809343 
L 195.481656 -64.053104 
L 196.2776 -64.450611 
L 197.073545 -64.915037 
L 197.86949 -65.297203 
L 198.665434 -65.446195 
L 199.461379 -65.272947 
L 200.257324 -64.799872 
L 201.053269 -64.178572 
L 201.849213 -63.658608 
L 202.645158 -63.507152 
L 203.441103 -63.909112 
L 204.237047 -64.894759 
L 205.032992 -66.328504 
L 205.828937 -67.957304 
L 206.624881 -69.488849 
L 207.420826 -70.669417 
L 208.216771 -71.348937 
L 209.012715 -71.527885 
L 209.80866 -71.370665 
L 210.604605 -71.165447 
L 211.400549 -71.230766 
L 212.196494 -71.803707 
L 212.992439 -72.959926 
L 213.788383 -74.595321 
L 214.584328 -76.462284 
L 215.380273 -78.234948 
L 216.176218 -79.586809 
L 216.972162 -80.272492 
L 217.768107 -80.19452 
L 218.564052 -79.423778 
L 219.359996 -78.154626 
L 220.155941 -76.611702 
L 220.951886 -74.956605 
L 221.74783 -73.241621 
L 222.543775 -71.427571 
L 223.33972 -69.449578 
L 224.135664 -67.297211 
L 224.931609 -65.074674 
L 225.727554 -63.013648 
L 226.523498 -61.424178 
L 227.319443 -60.591668 
L 228.115388 -60.657011 
L 228.911332 -61.534466 
L 229.707277 -62.910538 
L 230.503222 -64.330048 
L 231.299166 -65.335683 
L 232.095111 -65.607236 
L 232.891056 -65.052263 
L 233.687001 -63.821478 
L 234.482945 -62.2478 
L 235.27889 -60.730636 
L 236.074835 -59.604154 
L 236.870779 -59.036198 
L 237.666724 -58.995418 
L 238.462669 -59.296024 
L 239.258613 -59.695834 
L 240.054558 -60.002067 
L 240.850503 -60.138875 
L 241.646447 -60.149455 
L 242.442392 -60.137224 
L 243.238337 -60.182015 
L 244.034281 -60.280296 
L 244.830226 -60.342511 
L 245.626171 -60.245823 
L 246.422115 -59.910403 
L 247.21806 -59.359619 
L 248.014005 -58.73694 
L 248.80995 -58.270735 
L 249.605894 -58.194129 
L 250.401839 -58.645256 
L 251.197784 -59.591518 
L 251.993728 -60.822157 
L 252.789673 -62.023952 
L 253.585618 -62.908665 
L 254.381562 -63.32936 
L 255.177507 -63.329465 
L 255.973452 -63.107141 
L 256.769396 -62.917779 
L 257.565341 -62.958119 
L 258.361286 -63.278778 
L 259.15723 -63.762692 
L 259.953175 -64.181974 
L 260.74912 -64.30909 
L 261.545064 -64.029857 
L 262.341009 -63.405399 
L 263.136954 -62.657727 
L 263.932898 -62.089103 
L 264.728843 -61.968608 
L 265.524788 -62.426784 
L 266.320733 -63.397913 
L 267.116677 -64.637983 
L 267.912622 -65.817656 
L 268.708567 -66.65184 
L 269.504511 -67.006912 
L 270.300456 -66.940439 
L 271.096401 -66.665004 
L 271.892345 -66.460123 
L 272.68829 -66.568329 
L 273.484235 -67.109634 
L 274.280179 -68.043879 
L 275.076124 -69.199287 
L 275.872069 -70.359633 
L 276.668013 -71.370568 
L 277.463958 -72.210131 
L 278.259903 -72.984104 
L 279.055847 -73.847047 
L 279.851792 -74.890086 
L 280.647737 -76.053493 
L 281.443682 -77.110185 
L 282.239626 -77.734564 
L 283.035571 -77.632309 
L 283.831516 -76.675425 
L 284.62746 -74.980767 
L 285.423405 -72.897046 
L 286.21935 -70.908857 
L 287.015294 -69.498714 
L 287.811239 -69.014109 
L 288.607184 -69.574067 
L 289.403128 -71.036557 
L 290.199073 -73.039829 
L 290.995018 -75.11492 
L 291.790962 -76.837622 
L 292.586907 -77.963738 
L 293.382852 -78.49404 
L 294.178796 -78.646855 
L 294.974741 -78.754869 
L 295.770686 -79.126637 
L 296.56663 -79.91983 
L 297.362575 -81.069622 
L 298.15852 -82.301575 
L 298.954465 -83.229017 
L 299.750409 -83.496798 
L 300.546354 -82.908736 
L 301.342299 -81.487007 
L 302.138243 -79.452054 
L 302.934188 -77.14787 
L 303.730133 -74.947814 
L 304.526077 -73.16958 
L 305.322022 -72.019354 
L 306.117967 -71.575177 
L 306.913911 -71.804612 
L 307.709856 -72.598875 
L 308.505801 -73.805877 
L 309.301745 -75.257085 
L 310.09769 -76.792055 
L 310.893635 -78.279297 
L 311.689579 -79.62465 
L 312.485524 -80.767942 
L 313.281469 -81.685776 
L 314.077414 -82.413334 
L 314.873358 -83.068779 
L 315.669303 -83.842688 
L 316.465248 -84.931803 
L 317.261192 -86.441218 
L 318.057137 -88.309428 
L 318.853082 -90.299336 
L 319.649026 -92.059039 
L 320.444971 -93.224386 
L 321.240916 -93.528935 
L 322.03686 -92.892765 
L 322.832805 -91.464281 
L 323.62875 -89.59456 
L 324.424694 -87.741158 
L 325.220639 -86.324165 
L 326.016584 -85.582066 
L 326.812528 -85.4866 
L 327.608473 -85.760429 
L 328.404418 -85.997007 
L 329.200363 -85.829715 
L 329.996307 -85.071825 
L 330.792252 -83.770252 
L 331.588197 -82.16463 
L 332.384141 -80.580723 
L 333.180086 -79.300202 
L 333.976031 -78.451178 
L 334.771975 -77.962092 
L 335.56792 -77.60281 
L 336.363865 -77.095517 
L 337.159809 -76.239597 
L 337.955754 -74.993903 
L 338.751699 -73.49482 
L 339.547643 -72.020266 
L 340.343588 -70.914157 
L 341.139533 -70.483558 
L 341.935477 -70.897078 
L 342.731422 -72.130506 
L 343.527367 -73.988518 
L 344.323311 -76.183821 
L 345.119256 -78.420497 
L 345.915201 -80.441257 
L 346.711146 -82.042969 
L 347.50709 -83.089509 
L 348.303035 -83.533757 
L 349.09898 -83.432282 
L 349.894924 -82.934355 
L 350.690869 -82.248665 
L 351.486814 -81.604063 
L 352.282758 -81.212723 
L 353.078703 -81.233593 
L 353.874648 -81.735355 
L 354.670592 -82.667516 
L 355.466537 -83.855734 
L 356.262482 -85.036115 
L 357.058426 -85.928863 
L 357.854371 -86.3273 
L 358.650316 -86.162061 
L 359.44626 -85.511815 
L 360.242205 -84.563277 
L 361.03815 -83.545227 
L 361.834095 -82.661617 
L 362.630039 -82.040699 
L 363.425984 -81.712875 
L 364.221929 -81.624949 
L 365.017873 -81.682386 
L 365.813818 -81.790936 
L 366.609763 -81.870106 
L 367.405707 -81.840291 
L 368.201652 -81.611912 
L 368.997597 -81.098139 
L 369.793541 -80.242713 
L 370.589486 -79.037555 
L 371.385431 -77.520404 
L 372.181375 -75.766817 
L 372.97732 -73.890584 
L 373.773265 -72.044505 
L 374.569209 -70.400053 
L 375.365154 -69.100196 
L 376.161099 -68.208972 
L 376.957043 -67.689451 
L 377.752988 -67.420502 
L 378.548933 -67.239623 
L 379.344878 -66.99472 
L 380.140822 -66.593451 
L 380.936767 -66.038236 
L 381.732712 -65.430313 
L 382.528656 -64.93153 
L 383.324601 -64.693396 
L 384.120546 -64.785183 
L 384.91649 -65.15652 
L 385.712435 -65.651187 
L 386.50838 -66.064009 
L 387.304324 -66.21705 
L 388.100269 -66.027212 
L 388.896214 -65.540767 
L 389.692158 -64.920365 
L 390.488103 -64.387124 
L 391.284048 -64.139152 
L 392.079992 -64.278526 
L 392.875937 -64.774584 
L 393.671882 -65.475006 
L 394.467827 -66.15838 
L 395.263771 -66.611154 
L 396.059716 -66.706883 
L 396.855661 -66.463156 
L 397.651605 -66.052675 
L 398.44755 -65.753869 
L 399.243495 -65.848817 
L 400.039439 -66.506693 
L 400.835384 -67.707492 
L 401.631329 -69.244816 
L 402.427273 -70.804421 
L 403.223218 -72.074524 
L 404.019163 -72.833541 
L 404.815107 -72.986923 
L 405.611052 -72.560564 
L 406.406997 -71.672111 
L 407.202941 -70.492275 
L 407.998886 -69.199521 
L 408.794831 -67.937975 
L 409.590775 -66.797156 
L 410.38672 -65.822928 
L 411.182665 -65.045389 
L 411.97861 -64.496313 
L 412.774554 -64.201668 
L 413.570499 -64.16015 
L 413.570499 -104.412863 
L 413.570499 -104.412863 
L 412.774554 -104.440318 
L 411.97861 -104.719094 
L 411.182665 -105.250164 
L 410.38672 -106.018579 
L 409.590775 -106.999632 
L 408.794831 -108.155552 
L 407.998886 -109.427844 
L 407.202941 -110.726411 
L 406.406997 -111.91712 
L 405.611052 -112.82114 
L 404.815107 -113.24569 
L 404.019163 -113.048497 
L 403.223218 -112.206893 
L 402.427273 -110.848681 
L 401.631329 -109.222414 
L 400.835384 -107.62279 
L 400.039439 -106.308916 
L 399.243495 -105.444104 
L 398.44755 -105.065156 
L 397.651605 -105.080631 
L 396.855661 -105.299957 
L 396.059716 -105.494268 
L 395.263771 -105.478193 
L 394.467827 -105.183627 
L 393.671882 -104.688673 
L 392.875937 -104.181859 
L 392.079992 -103.875528 
L 391.284048 -103.909209 
L 390.488103 -104.287234 
L 389.692158 -104.875732 
L 388.896214 -105.455922 
L 388.100269 -105.808466 
L 387.304324 -105.795691 
L 386.50838 -105.412798 
L 385.712435 -104.790113 
L 384.91649 -104.144743 
L 384.120546 -103.70038 
L 383.324601 -103.608685 
L 382.528656 -103.903117 
L 381.732712 -104.497536 
L 380.936767 -105.222884 
L 380.140822 -105.887413 
L 379.344878 -106.345139 
L 378.548933 -106.553575 
L 377.752988 -106.597222 
L 376.957043 -106.661029 
L 376.161099 -106.961986 
L 375.365154 -107.670959 
L 374.569209 -108.859271 
L 373.773265 -110.483686 
L 372.97732 -112.401882 
L 372.181375 -114.407749 
L 371.385431 -116.28278 
L 370.589486 -117.854455 
L 369.793541 -119.03693 
L 368.997597 -119.830057 
L 368.201652 -120.281218 
L 367.405707 -120.445995 
L 366.609763 -120.381576 
L 365.813818 -120.168965 
L 365.017873 -119.928997 
L 364.221929 -119.805284 
L 363.425984 -119.920327 
L 362.630039 -120.332543 
L 361.834095 -121.014267 
L 361.03815 -121.852391 
L 360.242205 -122.668713 
L 359.44626 -123.26125 
L 358.650316 -123.46205 
L 357.854371 -123.192195 
L 357.058426 -122.48935 
L 356.262482 -121.496922 
L 355.466537 -120.42394 
L 354.670592 -119.492272 
L 353.874648 -118.882755 
L 353.078703 -118.689032 
L 352.282758 -118.891292 
L 351.486814 -119.361855 
L 350.690869 -119.90416 
L 349.894924 -120.31104 
L 349.09898 -120.417432 
L 348.303035 -120.124982 
L 347.50709 -119.393221 
L 346.711146 -118.217054 
L 345.915201 -116.622332 
L 345.119256 -114.689988 
L 344.323311 -112.58225 
L 343.527367 -110.535292 
L 342.731422 -108.812054 
L 341.935477 -107.641514 
L 341.139533 -107.171153 
L 340.343588 -107.436387 
L 339.547643 -108.341516 
L 338.751699 -109.663073 
L 337.955754 -111.099864 
L 337.159809 -112.372321 
L 336.363865 -113.327796 
L 335.56792 -113.99073 
L 334.771975 -114.531476 
L 333.976031 -115.177016 
L 333.180086 -116.106611 
L 332.384141 -117.368316 
L 331.588197 -118.843849 
L 330.792252 -120.282065 
L 329.996307 -121.398883 
L 329.200363 -122.004397 
L 328.404418 -122.095166 
L 327.608473 -121.867008 
L 326.812528 -121.647857 
L 326.016584 -121.783402 
L 325.220639 -122.514458 
L 324.424694 -123.880942 
L 323.62875 -125.684601 
L 322.832805 -127.532347 
L 322.03686 -128.955996 
L 321.240916 -129.569969 
L 320.444971 -129.205138 
L 319.649026 -127.96154 
L 318.853082 -126.156935 
L 318.057137 -124.196478 
L 317.261192 -122.426117 
L 316.465248 -121.034923 
L 315.669303 -120.035442 
L 314.873358 -119.305238 
L 314.077414 -118.653293 
L 313.281469 -117.886874 
L 312.485524 -116.870752 
L 311.689579 -115.568928 
L 310.893635 -114.05049 
L 310.09769 -112.452333 
L 309.301745 -110.921561 
L 308.505801 -109.578715 
L 307.709856 -108.523119 
L 306.913911 -107.859902 
L 306.117967 -107.709482 
L 305.322022 -108.179827 
L 304.526077 -109.313003 
L 303.730133 -111.03362 
L 302.934188 -113.126093 
L 302.138243 -115.259166 
L 301.342299 -117.060729 
L 300.546354 -118.222474 
L 299.750409 -118.593663 
L 298.954465 -118.223374 
L 298.15852 -117.334984 
L 297.362575 -116.248008 
L 296.56663 -115.27716 
L 295.770686 -114.634776 
L 294.974741 -114.359744 
L 294.178796 -114.298934 
L 293.382852 -114.159286 
L 292.586907 -113.621206 
L 291.790962 -112.472443 
L 290.995018 -110.709669 
L 290.199073 -108.569159 
L 289.403128 -106.474949 
L 288.607184 -104.9178 
L 287.811239 -104.297899 
L 287.015294 -104.781312 
L 286.21935 -106.227788 
L 285.423405 -108.22832 
L 284.62746 -110.242162 
L 283.831516 -111.774266 
L 283.035571 -112.51941 
L 282.239626 -112.423163 
L 281.443682 -111.65165 
L 280.647737 -110.497141 
L 279.851792 -109.261195 
L 279.055847 -108.155424 
L 278.259903 -107.250107 
L 277.463958 -106.483826 
L 276.668013 -105.724252 
L 275.872069 -104.851772 
L 275.076124 -103.83197 
L 274.280179 -102.7479 
L 273.484235 -101.775188 
L 272.68829 -101.103861 
L 271.892345 -100.837599 
L 271.096401 -100.920063 
L 270.300456 -101.133302 
L 269.504511 -101.179419 
L 268.708567 -100.809388 
L 267.912622 -99.935505 
L 267.116677 -98.675691 
L 266.320733 -97.31437 
L 265.524788 -96.199027 
L 264.728843 -95.611583 
L 263.932898 -95.66165 
L 263.136954 -96.244891 
L 262.341009 -97.088227 
L 261.545064 -97.864843 
L 260.74912 -98.325121 
L 259.953175 -98.382136 
L 259.15723 -98.1183 
L 258.361286 -97.720752 
L 257.565341 -97.381184 
L 256.769396 -97.203817 
L 255.973452 -97.159077 
L 255.177507 -97.10285 
L 254.381562 -96.852416 
L 253.585618 -96.281378 
L 252.789673 -95.386442 
L 251.993728 -94.297053 
L 251.197784 -93.230375 
L 250.401839 -92.414761 
L 249.605894 -92.009001 
L 248.80995 -92.043669 
L 248.014005 -92.408836 
L 247.21806 -92.899896 
L 246.422115 -93.306205 
L 245.626171 -93.499919 
L 244.830226 -93.478241 
L 244.034281 -93.339362 
L 243.238337 -93.212166 
L 242.442392 -93.182206 
L 241.646447 -93.249986 
L 240.850503 -93.336225 
L 240.054558 -93.329349 
L 239.258613 -93.155951 
L 238.462669 -92.843081 
L 237.666724 -92.538274 
L 236.870779 -92.468253 
L 236.074835 -92.846656 
L 235.27889 -93.768271 
L 234.482945 -95.137388 
L 233.687001 -96.667159 
L 232.891056 -97.960122 
L 232.095111 -98.645899 
L 231.299166 -98.522943 
L 230.503222 -97.64347 
L 229.707277 -96.303827 
L 228.911332 -94.946185 
L 228.115388 -94.015858 
L 227.319443 -93.830728 
L 226.523498 -94.505422 
L 225.727554 -95.946928 
L 224.931609 -97.913717 
L 224.135664 -100.112994 
L 223.33972 -102.299972 
L 222.543775 -104.340364 
L 221.74783 -106.210753 
L 220.951886 -107.942658 
L 220.155941 -109.546519 
L 219.359996 -110.958657 
L 218.564052 -112.035184 
L 217.768107 -112.590323 
L 216.972162 -112.461431 
L 216.176218 -111.580752 
L 215.380273 -110.032131 
L 214.584328 -108.06476 
L 213.788383 -106.041478 
L 212.992439 -104.32929 
L 212.196494 -103.178473 
L 211.400549 -102.648532 
L 210.604605 -102.609317 
L 209.80866 -102.801227 
L 209.012715 -102.918901 
L 208.216771 -102.6939 
L 207.420826 -101.967423 
L 206.624881 -100.741365 
L 205.828937 -99.184201 
L 205.032992 -97.575895 
L 204.237047 -96.209571 
L 203.441103 -95.296735 
L 202.645158 -94.916501 
L 201.849213 -95.01582 
L 201.053269 -95.442357 
L 200.257324 -95.990887 
L 199.461379 -96.455894 
L 198.665434 -96.687202 
L 197.86949 -96.634344 
L 197.073545 -96.355737 
L 196.2776 -95.981185 
L 195.481656 -95.644201 
L 194.685711 -95.418568 
L 193.889766 -95.28785 
L 193.093822 -95.156464 
L 192.297877 -94.893733 
L 191.501932 -94.395277 
L 190.705988 -93.642516 
L 189.910043 -92.735949 
L 189.114098 -91.880039 
L 188.318154 -91.317622 
L 187.522209 -91.240587 
L 186.726264 -91.719512 
L 185.93032 -92.685111 
L 185.134375 -93.966781 
L 184.33843 -95.367728 
L 183.542485 -96.742982 
L 182.746541 -98.04678 
L 181.950596 -99.3278 
L 181.154651 -100.674123 
L 180.358707 -102.137722 
L 179.562762 -103.682288 
L 178.766817 -105.183824 
L 177.970873 -106.481093 
L 177.174928 -107.447391 
L 176.378983 -108.048827 
L 175.583039 -108.364306 
L 174.787094 -108.560216 
L 173.991149 -108.829781 
L 173.195205 -109.318503 
L 172.39926 -110.062606 
L 171.603315 -110.965575 
L 170.807371 -111.826343 
L 170.011426 -112.413977 
L 169.215481 -112.563827 
L 168.419537 -112.255128 
L 167.623592 -111.62982 
L 166.827647 -110.937081 
L 166.031702 -110.429696 
L 165.235758 -110.267769 
L 164.439813 -110.476929 
L 163.643868 -110.969584 
L 162.847924 -111.603515 
L 162.051979 -112.245238 
L 161.256034 -112.817284 
L 160.46009 -113.316467 
L 159.664145 -113.790272 
L 158.8682 -114.270451 
L 158.072256 -114.695451 
L 157.276311 -114.880582 
L 156.480366 -114.577903 
L 155.684422 -113.60557 
L 154.888477 -111.972655 
L 154.092532 -109.925529 
L 153.296588 -107.887069 
L 152.500643 -106.31491 
L 151.704698 -105.539577 
L 150.908753 -105.645496 
L 150.112809 -106.437599 
L 149.316864 -107.50628 
L 148.520919 -108.36847 
L 147.724975 -108.633583 
L 146.92903 -108.13636 
L 146.133085 -106.995055 
L 145.337141 -105.577815 
L 144.541196 -104.383236 
L 143.745251 -103.867342 
L 142.949307 -104.278217 
L 142.153362 -105.570688 
L 141.357417 -107.441919 
L 140.561473 -109.463553 
L 139.765528 -111.236923 
L 138.969583 -112.501829 
L 138.173639 -113.171281 
L 137.377694 -113.304489 
L 136.581749 -113.0449 
L 135.785805 -112.54759 
L 134.98986 -111.92087 
L 134.193915 -111.209904 
L 133.39797 -110.434001 
L 132.602026 -109.651021 
L 131.806081 -108.997404 
L 131.010136 -108.668823 
L 130.214192 -108.848529 
L 129.418247 -109.622479 
L 128.622302 -110.925247 
L 127.826358 -112.54427 
L 127.030413 -114.18497 
L 126.234468 -115.57446 
L 125.438524 -116.562413 
L 124.642579 -117.17389 
L 123.846634 -117.589251 
L 123.05069 -118.061926 
L 122.254745 -118.81048 
L 121.4588 -119.9237 
L 120.662856 -121.307658 
L 119.866911 -122.696825 
L 119.070966 -123.741639 
L 118.275021 -124.154155 
L 117.479077 -123.849034 
L 116.683132 -123.002564 
L 115.887187 -121.990305 
L 115.091243 -121.228982 
L 114.295298 -121.000107 
L 113.499353 -121.34018 
L 112.703409 -122.041611 
L 111.907464 -122.752378 
L 111.111519 -123.124545 
L 110.315575 -122.948977 
L 109.51963 -122.224003 
L 108.723685 -121.138598 
L 107.927741 -119.990962 
L 107.131796 -119.08442 
L 106.335851 -118.634702 
L 105.539907 -118.70805 
L 104.743962 -119.207894 
L 103.948017 -119.925078 
L 103.152073 -120.637751 
L 102.356128 -121.207559 
L 101.560183 -121.613308 
L 100.764238 -121.900856 
L 99.968294 -122.079578 
L 99.172349 -122.034174 
L 98.376404 -121.52208 
L 97.58046 -120.27527 
L 96.784515 -118.151861 
L 95.98857 -115.249788 
L 95.192626 -111.921652 
L 94.396681 -108.689444 
L 93.600736 -106.106989 
L 92.804792 -104.621756 
L 92.008847 -104.461893 
L 91.212902 -105.563123 
L 90.416958 -107.563868 
L 89.621013 -109.9063 
L 88.825068 -112.037028 
L 88.029124 -113.612571 
L 87.233179 -114.589878 
L 86.437234 -115.164838 
L 85.641289 -115.622582 
L 84.845345 -116.191595 
L 84.0494 -116.952068 
L 83.253455 -117.807583 
L 82.457511 -118.523015 
L 81.661566 -118.83237 
L 80.865621 -118.589062 
L 80.069677 -117.879218 
L 79.273732 -117.017679 
L 78.477787 -116.424219 
L 77.681843 -116.459454 
L 76.885898 -117.304367 
L 76.089953 -118.912736 
L 75.294009 -121.024897 
L 74.498064 -123.225659 
L 73.702119 -125.04202 
L 72.906175 -126.078398 
L 72.11023 -126.15117 
L 71.314285 -125.353327 
L 70.51834 -124.008644 
L 69.722396 -122.533815 
L 68.926451 -121.276043 
L 68.130506 -120.412431 
L 67.334562 -119.952056 
L 66.538617 -119.799884 
L 65.742672 -119.816539 
L 64.946728 -119.84883 
L 64.150783 -119.749382 
L 63.354838 -119.406513 
L 62.558894 -118.774688 
L 61.762949 -117.879039 
L 60.967004 -116.79217 
L 60.17106 -115.6152 
L 59.375115 -114.48476 
L 58.57917 -113.583172 
L 57.783226 -113.116364 
L 56.987281 -113.254488 
L 56.191336 -114.059361 
L 55.395392 -115.430688 
L 54.599447 -117.100391 
L 53.803502 -118.695068 
L 53.007557 -119.85787 
L 52.211613 -120.38056 
L 51.415668 -120.278586 
L 50.619723 -119.76752 
L 49.823779 -119.162352 
L 49.027834 -118.771433 
L 48.231889 -118.829477 
L 47.435945 -119.452444 
L 46.64 -120.592819 
z
" style="stroke: #377eb8; stroke-opacity: 0.3"/>
    </defs>
    <g clip-path="url(#p61579bfe23)">
     <use xlink:href="#m3067ea9bea" x="0" y="360" style="fill: #377eb8; fill-opacity: 0.3; stroke: #377eb8; stroke-opacity: 0.3"/>
    </g>
   </g>
   <g id="patch_3">
    <path d="M 229.866466 318.04 
L 229.866466 71.732 
L 331.747385 71.732 
L 331.747385 318.04 
z
" clip-path="url(#p61579bfe23)" style="fill: #808080; opacity: 0.3"/>
   </g>
   <g id="matplotlib.axis_1">
    <g id="xtick_1">
     <g id="line2d_1">
      <defs>
       <path id="mf70e6646ac" d="M 0 0 
L 0 3.5 
" style="stroke: #000000; stroke-width: 0.8"/>
      </defs>
      <g>
       <use xlink:href="#mf70e6646ac" x="87.233179" y="318.04" style="stroke: #000000; stroke-width: 0.8"/>
      </g>
     </g>
     <g id="text_1">
      <!-- 0.0 -->
      <g transform="translate(79.281616 332.638438)scale(0.1 -0.1)">
       <defs>
        <path id="DejaVuSans-30" d="M 2034 4250 
Q 1547 4250 1301 3770 
Q 1056 3291 1056 2328 
Q 1056 1369 1301 889 
Q 1547 409 2034 409 
Q 2525 409 2770 889 
Q 3016 1369 3016 2328 
Q 3016 3291 2770 3770 
Q 2525 4250 2034 4250 
z
M 2034 4750 
Q 2819 4750 3233 4129 
Q 3647 3509 3647 2328 
Q 3647 1150 3233 529 
Q 2819 -91 2034 -91 
Q 1250 -91 836 529 
Q 422 1150 422 2328 
Q 422 3509 836 4129 
Q 1250 4750 2034 4750 
z
" transform="scale(0.015625)"/>
        <path id="DejaVuSans-2e" d="M 684 794 
L 1344 794 
L 1344 0 
L 684 0 
L 684 794 
z
" transform="scale(0.015625)"/>
       </defs>
       <use xlink:href="#DejaVuSans-30"/>
       <use xlink:href="#DejaVuSans-2e" x="63.623047"/>
       <use xlink:href="#DejaVuSans-30" x="95.410156"/>
      </g>
     </g>
    </g>
    <g id="xtick_2">
     <g id="line2d_2">
      <g>
       <use xlink:href="#mf70e6646ac" x="168.737914" y="318.04" style="stroke: #000000; stroke-width: 0.8"/>
      </g>
     </g>
     <g id="text_2">
      <!-- 0.2 -->
      <g transform="translate(160.786352 332.638438)scale(0.1 -0.1)">
       <defs>
        <path id="DejaVuSans-32" d="M 1228 531 
L 3431 531 
L 3431 0 
L 469 0 
L 469 531 
Q 828 903 1448 1529 
Q 2069 2156 2228 2338 
Q 2531 2678 2651 2914 
Q 2772 3150 2772 3378 
Q 2772 3750 2511 3984 
Q 2250 4219 1831 4219 
Q 1534 4219 1204 4116 
Q 875 4013 500 3803 
L 500 4441 
Q 881 4594 1212 4672 
Q 1544 4750 1819 4750 
Q 2544 4750 2975 4387 
Q 3406 4025 3406 3419 
Q 3406 3131 3298 2873 
Q 3191 2616 2906 2266 
Q 2828 2175 2409 1742 
Q 1991 1309 1228 531 
z
" transform="scale(0.015625)"/>
       </defs>
       <use xlink:href="#DejaVuSans-30"/>
       <use xlink:href="#DejaVuSans-2e" x="63.623047"/>
       <use xlink:href="#DejaVuSans-32" x="95.410156"/>
      </g>
     </g>
    </g>
    <g id="xtick_3">
     <g id="line2d_3">
      <g>
       <use xlink:href="#mf70e6646ac" x="250.24265" y="318.04" style="stroke: #000000; stroke-width: 0.8"/>
      </g>
     </g>
     <g id="text_3">
      <!-- 0.4 -->
      <g transform="translate(242.291087 332.638438)scale(0.1 -0.1)">
       <defs>
        <path id="DejaVuSans-34" d="M 2419 4116 
L 825 1625 
L 2419 1625 
L 2419 4116 
z
M 2253 4666 
L 3047 4666 
L 3047 1625 
L 3713 1625 
L 3713 1100 
L 3047 1100 
L 3047 0 
L 2419 0 
L 2419 1100 
L 313 1100 
L 313 1709 
L 2253 4666 
z
" transform="scale(0.015625)"/>
       </defs>
       <use xlink:href="#DejaVuSans-30"/>
       <use xlink:href="#DejaVuSans-2e" x="63.623047"/>
       <use xlink:href="#DejaVuSans-34" x="95.410156"/>
      </g>
     </g>
    </g>
    <g id="xtick_4">
     <g id="line2d_4">
      <g>
       <use xlink:href="#mf70e6646ac" x="331.747385" y="318.04" style="stroke: #000000; stroke-width: 0.8"/>
      </g>
     </g>
     <g id="text_4">
      <!-- 0.6 -->
      <g transform="translate(323.795823 332.638438)scale(0.1 -0.1)">
       <defs>
        <path id="DejaVuSans-36" d="M 2113 2584 
Q 1688 2584 1439 2293 
Q 1191 2003 1191 1497 
Q 1191 994 1439 701 
Q 1688 409 2113 409 
Q 2538 409 2786 701 
Q 3034 994 3034 1497 
Q 3034 2003 2786 2293 
Q 2538 2584 2113 2584 
z
M 3366 4563 
L 3366 3988 
Q 3128 4100 2886 4159 
Q 2644 4219 2406 4219 
Q 1781 4219 1451 3797 
Q 1122 3375 1075 2522 
Q 1259 2794 1537 2939 
Q 1816 3084 2150 3084 
Q 2853 3084 3261 2657 
Q 3669 2231 3669 1497 
Q 3669 778 3244 343 
Q 2819 -91 2113 -91 
Q 1303 -91 875 529 
Q 447 1150 447 2328 
Q 447 3434 972 4092 
Q 1497 4750 2381 4750 
Q 2619 4750 2861 4703 
Q 3103 4656 3366 4563 
z
" transform="scale(0.015625)"/>
       </defs>
       <use xlink:href="#DejaVuSans-30"/>
       <use xlink:href="#DejaVuSans-2e" x="63.623047"/>
       <use xlink:href="#DejaVuSans-36" x="95.410156"/>
      </g>
     </g>
    </g>
    <g id="xtick_5">
     <g id="line2d_5">
      <g>
       <use xlink:href="#mf70e6646ac" x="413.252121" y="318.04" style="stroke: #000000; stroke-width: 0.8"/>
      </g>
     </g>
     <g id="text_5">
      <!-- 0.8 -->
      <g transform="translate(405.300559 332.638438)scale(0.1 -0.1)">
       <defs>
        <path id="DejaVuSans-38" d="M 2034 2216 
Q 1584 2216 1326 1975 
Q 1069 1734 1069 1313 
Q 1069 891 1326 650 
Q 1584 409 2034 409 
Q 2484 409 2743 651 
Q 3003 894 3003 1313 
Q 3003 1734 2745 1975 
Q 2488 2216 2034 2216 
z
M 1403 2484 
Q 997 2584 770 2862 
Q 544 3141 544 3541 
Q 544 4100 942 4425 
Q 1341 4750 2034 4750 
Q 2731 4750 3128 4425 
Q 3525 4100 3525 3541 
Q 3525 3141 3298 2862 
Q 3072 2584 2669 2484 
Q 3125 2378 3379 2068 
Q 3634 1759 3634 1313 
Q 3634 634 3220 271 
Q 2806 -91 2034 -91 
Q 1263 -91 848 271 
Q 434 634 434 1313 
Q 434 1759 690 2068 
Q 947 2378 1403 2484 
z
M 1172 3481 
Q 1172 3119 1398 2916 
Q 1625 2713 2034 2713 
Q 2441 2713 2670 2916 
Q 2900 3119 2900 3481 
Q 2900 3844 2670 4047 
Q 2441 4250 2034 4250 
Q 1625 4250 1398 4047 
Q 1172 3844 1172 3481 
z
" transform="scale(0.015625)"/>
       </defs>
       <use xlink:href="#DejaVuSans-30"/>
       <use xlink:href="#DejaVuSans-2e" x="63.623047"/>
       <use xlink:href="#DejaVuSans-38" x="95.410156"/>
      </g>
     </g>
    </g>
    <g id="text_6">
     <!-- seconds -->
     <g transform="translate(209.667749 346.316563)scale(0.1 -0.1)">
      <defs>
       <path id="DejaVuSans-73" d="M 2834 3397 
L 2834 2853 
Q 2591 2978 2328 3040 
Q 2066 3103 1784 3103 
Q 1356 3103 1142 2972 
Q 928 2841 928 2578 
Q 928 2378 1081 2264 
Q 1234 2150 1697 2047 
L 1894 2003 
Q 2506 1872 2764 1633 
Q 3022 1394 3022 966 
Q 3022 478 2636 193 
Q 2250 -91 1575 -91 
Q 1294 -91 989 -36 
Q 684 19 347 128 
L 347 722 
Q 666 556 975 473 
Q 1284 391 1588 391 
Q 1994 391 2212 530 
Q 2431 669 2431 922 
Q 2431 1156 2273 1281 
Q 2116 1406 1581 1522 
L 1381 1569 
Q 847 1681 609 1914 
Q 372 2147 372 2553 
Q 372 3047 722 3315 
Q 1072 3584 1716 3584 
Q 2034 3584 2315 3537 
Q 2597 3491 2834 3397 
z
" transform="scale(0.015625)"/>
       <path id="DejaVuSans-65" d="M 3597 1894 
L 3597 1613 
L 953 1613 
Q 991 1019 1311 708 
Q 1631 397 2203 397 
Q 2534 397 2845 478 
Q 3156 559 3463 722 
L 3463 178 
Q 3153 47 2828 -22 
Q 2503 -91 2169 -91 
Q 1331 -91 842 396 
Q 353 884 353 1716 
Q 353 2575 817 3079 
Q 1281 3584 2069 3584 
Q 2775 3584 3186 3129 
Q 3597 2675 3597 1894 
z
M 3022 2063 
Q 3016 2534 2758 2815 
Q 2500 3097 2075 3097 
Q 1594 3097 1305 2825 
Q 1016 2553 972 2059 
L 3022 2063 
z
" transform="scale(0.015625)"/>
       <path id="DejaVuSans-63" d="M 3122 3366 
L 3122 2828 
Q 2878 2963 2633 3030 
Q 2388 3097 2138 3097 
Q 1578 3097 1268 2742 
Q 959 2388 959 1747 
Q 959 1106 1268 751 
Q 1578 397 2138 397 
Q 2388 397 2633 464 
Q 2878 531 3122 666 
L 3122 134 
Q 2881 22 2623 -34 
Q 2366 -91 2075 -91 
Q 1284 -91 818 406 
Q 353 903 353 1747 
Q 353 2603 823 3093 
Q 1294 3584 2113 3584 
Q 2378 3584 2631 3529 
Q 2884 3475 3122 3366 
z
" transform="scale(0.015625)"/>
       <path id="DejaVuSans-6f" d="M 1959 3097 
Q 1497 3097 1228 2736 
Q 959 2375 959 1747 
Q 959 1119 1226 758 
Q 1494 397 1959 397 
Q 2419 397 2687 759 
Q 2956 1122 2956 1747 
Q 2956 2369 2687 2733 
Q 2419 3097 1959 3097 
z
M 1959 3584 
Q 2709 3584 3137 3096 
Q 3566 2609 3566 1747 
Q 3566 888 3137 398 
Q 2709 -91 1959 -91 
Q 1206 -91 779 398 
Q 353 888 353 1747 
Q 353 2609 779 3096 
Q 1206 3584 1959 3584 
z
" transform="scale(0.015625)"/>
       <path id="DejaVuSans-6e" d="M 3513 2113 
L 3513 0 
L 2938 0 
L 2938 2094 
Q 2938 2591 2744 2837 
Q 2550 3084 2163 3084 
Q 1697 3084 1428 2787 
Q 1159 2491 1159 1978 
L 1159 0 
L 581 0 
L 581 3500 
L 1159 3500 
L 1159 2956 
Q 1366 3272 1645 3428 
Q 1925 3584 2291 3584 
Q 2894 3584 3203 3211 
Q 3513 2838 3513 2113 
z
" transform="scale(0.015625)"/>
       <path id="DejaVuSans-64" d="M 2906 2969 
L 2906 4863 
L 3481 4863 
L 3481 0 
L 2906 0 
L 2906 525 
Q 2725 213 2448 61 
Q 2172 -91 1784 -91 
Q 1150 -91 751 415 
Q 353 922 353 1747 
Q 353 2572 751 3078 
Q 1150 3584 1784 3584 
Q 2172 3584 2448 3432 
Q 2725 3281 2906 2969 
z
M 947 1747 
Q 947 1113 1208 752 
Q 1469 391 1925 391 
Q 2381 391 2643 752 
Q 2906 1113 2906 1747 
Q 2906 2381 2643 2742 
Q 2381 3103 1925 3103 
Q 1469 3103 1208 2742 
Q 947 2381 947 1747 
z
" transform="scale(0.015625)"/>
      </defs>
      <use xlink:href="#DejaVuSans-73"/>
      <use xlink:href="#DejaVuSans-65" x="52.099609"/>
      <use xlink:href="#DejaVuSans-63" x="113.623047"/>
      <use xlink:href="#DejaVuSans-6f" x="168.603516"/>
      <use xlink:href="#DejaVuSans-6e" x="229.785156"/>
      <use xlink:href="#DejaVuSans-64" x="293.164062"/>
      <use xlink:href="#DejaVuSans-73" x="356.640625"/>
     </g>
    </g>
   </g>
   <g id="matplotlib.axis_2">
    <g id="ytick_1">
     <g id="line2d_6">
      <defs>
       <path id="mc50574708e" d="M 0 0 
L -3.5 0 
" style="stroke: #000000; stroke-width: 0.8"/>
      </defs>
      <g>
       <use xlink:href="#mc50574708e" x="46.64" y="309.649725" style="stroke: #000000; stroke-width: 0.8"/>
      </g>
     </g>
     <g id="text_7">
      <!-- 2 -->
      <g transform="translate(24.897813 313.448944)scale(0.1 -0.1)">
       <defs>
        <path id="DejaVuSans-2212" d="M 678 2272 
L 4684 2272 
L 4684 1741 
L 678 1741 
L 678 2272 
z
" transform="scale(0.015625)"/>
       </defs>
       <use xlink:href="#DejaVuSans-2212"/>
       <use xlink:href="#DejaVuSans-32" x="83.789062"/>
      </g>
     </g>
    </g>
    <g id="ytick_2">
     <g id="line2d_7">
      <g>
       <use xlink:href="#mc50574708e" x="46.64" y="279.462695" style="stroke: #000000; stroke-width: 0.8"/>
      </g>
     </g>
     <g id="text_8">
      <!-- 1 -->
      <g transform="translate(24.897813 283.261914)scale(0.1 -0.1)">
       <defs>
        <path id="DejaVuSans-31" d="M 794 531 
L 1825 531 
L 1825 4091 
L 703 3866 
L 703 4441 
L 1819 4666 
L 2450 4666 
L 2450 531 
L 3481 531 
L 3481 0 
L 794 0 
L 794 531 
z
" transform="scale(0.015625)"/>
       </defs>
       <use xlink:href="#DejaVuSans-2212"/>
       <use xlink:href="#DejaVuSans-31" x="83.789062"/>
      </g>
     </g>
    </g>
    <g id="ytick_3">
     <g id="line2d_8">
      <g>
       <use xlink:href="#mc50574708e" x="46.64" y="249.275665" style="stroke: #000000; stroke-width: 0.8"/>
      </g>
     </g>
     <g id="text_9">
      <!-- 0 -->
      <g transform="translate(33.2775 253.074884)scale(0.1 -0.1)">
       <use xlink:href="#DejaVuSans-30"/>
      </g>
     </g>
    </g>
    <g id="ytick_4">
     <g id="line2d_9">
      <g>
       <use xlink:href="#mc50574708e" x="46.64" y="219.088635" style="stroke: #000000; stroke-width: 0.8"/>
      </g>
     </g>
     <g id="text_10">
      <!-- 1 -->
      <g transform="translate(33.2775 222.887854)scale(0.1 -0.1)">
       <use xlink:href="#DejaVuSans-31"/>
      </g>
     </g>
    </g>
    <g id="ytick_5">
     <g id="line2d_10">
      <g>
       <use xlink:href="#mc50574708e" x="46.64" y="188.901606" style="stroke: #000000; stroke-width: 0.8"/>
      </g>
     </g>
     <g id="text_11">
      <!-- 2 -->
      <g transform="translate(33.2775 192.700824)scale(0.1 -0.1)">
       <use xlink:href="#DejaVuSans-32"/>
      </g>
     </g>
    </g>
    <g id="ytick_6">
     <g id="line2d_11">
      <g>
       <use xlink:href="#mc50574708e" x="46.64" y="158.714576" style="stroke: #000000; stroke-width: 0.8"/>
      </g>
     </g>
     <g id="text_12">
      <!-- 3 -->
      <g transform="translate(33.2775 162.513795)scale(0.1 -0.1)">
       <defs>
        <path id="DejaVuSans-33" d="M 2597 2516 
Q 3050 2419 3304 2112 
Q 3559 1806 3559 1356 
Q 3559 666 3084 287 
Q 2609 -91 1734 -91 
Q 1441 -91 1130 -33 
Q 819 25 488 141 
L 488 750 
Q 750 597 1062 519 
Q 1375 441 1716 441 
Q 2309 441 2620 675 
Q 2931 909 2931 1356 
Q 2931 1769 2642 2001 
Q 2353 2234 1838 2234 
L 1294 2234 
L 1294 2753 
L 1863 2753 
Q 2328 2753 2575 2939 
Q 2822 3125 2822 3475 
Q 2822 3834 2567 4026 
Q 2313 4219 1838 4219 
Q 1578 4219 1281 4162 
Q 984 4106 628 3988 
L 628 4550 
Q 988 4650 1302 4700 
Q 1616 4750 1894 4750 
Q 2613 4750 3031 4423 
Q 3450 4097 3450 3541 
Q 3450 3153 3228 2886 
Q 3006 2619 2597 2516 
z
" transform="scale(0.015625)"/>
       </defs>
       <use xlink:href="#DejaVuSans-33"/>
      </g>
     </g>
    </g>
    <g id="ytick_7">
     <g id="line2d_12">
      <g>
       <use xlink:href="#mc50574708e" x="46.64" y="128.527546" style="stroke: #000000; stroke-width: 0.8"/>
      </g>
     </g>
     <g id="text_13">
      <!-- 4 -->
      <g transform="translate(33.2775 132.326765)scale(0.1 -0.1)">
       <use xlink:href="#DejaVuSans-34"/>
      </g>
     </g>
    </g>
    <g id="ytick_8">
     <g id="line2d_13">
      <g>
       <use xlink:href="#mc50574708e" x="46.64" y="98.340516" style="stroke: #000000; stroke-width: 0.8"/>
      </g>
     </g>
     <g id="text_14">
      <!-- 5 -->
      <g transform="translate(33.2775 102.139735)scale(0.1 -0.1)">
       <defs>
        <path id="DejaVuSans-35" d="M 691 4666 
L 3169 4666 
L 3169 4134 
L 1269 4134 
L 1269 2991 
Q 1406 3038 1543 3061 
Q 1681 3084 1819 3084 
Q 2600 3084 3056 2656 
Q 3513 2228 3513 1497 
Q 3513 744 3044 326 
Q 2575 -91 1722 -91 
Q 1428 -91 1123 -41 
Q 819 9 494 109 
L 494 744 
Q 775 591 1075 516 
Q 1375 441 1709 441 
Q 2250 441 2565 725 
Q 2881 1009 2881 1497 
Q 2881 1984 2565 2268 
Q 2250 2553 1709 2553 
Q 1456 2553 1204 2497 
Q 953 2441 691 2322 
L 691 4666 
z
" transform="scale(0.015625)"/>
       </defs>
       <use xlink:href="#DejaVuSans-35"/>
      </g>
     </g>
    </g>
    <g id="text_15">
     <!-- V -->
     <g transform="translate(18.818125 201.487562)rotate(-90)scale(0.1 -0.1)">
      <defs>
       <path id="DejaVuSans-b5" d="M 544 -1331 
L 544 3500 
L 1119 3500 
L 1119 1325 
Q 1119 872 1334 640 
Q 1550 409 1972 409 
Q 2434 409 2667 671 
Q 2900 934 2900 1459 
L 2900 3500 
L 3475 3500 
L 3475 806 
Q 3475 619 3529 530 
Q 3584 441 3700 441 
Q 3728 441 3778 458 
Q 3828 475 3916 513 
L 3916 50 
Q 3788 -22 3673 -56 
Q 3559 -91 3450 -91 
Q 3234 -91 3106 31 
Q 2978 153 2931 403 
Q 2775 156 2548 32 
Q 2322 -91 2016 -91 
Q 1697 -91 1473 31 
Q 1250 153 1119 397 
L 1119 -1331 
L 544 -1331 
z
" transform="scale(0.015625)"/>
       <path id="DejaVuSans-56" d="M 1831 0 
L 50 4666 
L 709 4666 
L 2188 738 
L 3669 4666 
L 4325 4666 
L 2547 0 
L 1831 0 
z
" transform="scale(0.015625)"/>
      </defs>
      <use xlink:href="#DejaVuSans-b5"/>
      <use xlink:href="#DejaVuSans-56" x="63.623047"/>
     </g>
    </g>
   </g>
   <g id="line2d_14">
    <path d="M 46.64 260.864191 
L 49.027834 249.38897 
L 49.823779 247.272287 
L 50.619723 247.001301 
L 51.415668 248.528194 
L 52.211613 251.393678 
L 54.599447 261.560316 
L 55.395392 264.002744 
L 56.191336 265.771762 
L 56.987281 266.90011 
L 57.783226 267.354911 
L 58.57917 266.999504 
L 59.375115 265.656347 
L 60.17106 263.234491 
L 60.967004 259.849142 
L 63.354838 248.175225 
L 64.150783 245.328793 
L 64.946728 243.274626 
L 68.926451 235.621022 
L 69.722396 234.999334 
L 70.51834 235.787979 
L 71.314285 238.194579 
L 73.702119 248.978258 
L 74.498064 250.099908 
L 75.294009 248.663133 
L 76.089953 244.917207 
L 77.681843 235.168154 
L 78.477787 232.220323 
L 79.273732 232.068805 
L 80.069677 234.871351 
L 80.865621 239.907109 
L 82.457511 251.19516 
L 83.253455 254.785255 
L 84.0494 256.063442 
L 84.845345 255.162376 
L 85.641289 252.717651 
L 88.029124 243.508158 
L 89.621013 238.975845 
L 91.212902 235.396982 
L 92.008847 234.105126 
L 92.804792 233.376385 
L 93.600736 233.270787 
L 94.396681 233.635149 
L 95.192626 234.123396 
L 95.98857 234.330737 
L 96.784515 233.980386 
L 97.58046 233.068679 
L 98.376404 231.889062 
L 99.172349 230.912514 
L 99.968294 230.573023 
L 100.764238 231.056656 
L 101.560183 232.197173 
L 102.356128 233.534729 
L 103.152073 234.517227 
L 103.948017 234.75521 
L 104.743962 234.212943 
L 106.335851 232.436144 
L 107.131796 232.357286 
L 107.927741 233.269555 
L 110.315575 238.337246 
L 111.111519 238.610132 
L 111.907464 237.566595 
L 114.295298 231.71049 
L 115.091243 231.401256 
L 115.887187 232.545302 
L 116.683132 234.772861 
L 117.479077 237.34095 
L 118.275021 239.447628 
L 119.070966 240.566335 
L 119.866911 240.659878 
L 120.662856 240.186835 
L 121.4588 239.90095 
L 122.254745 240.52777 
L 123.05069 242.450894 
L 123.846634 245.534154 
L 125.438524 252.385734 
L 126.234468 254.386279 
L 127.030413 254.641217 
L 127.826358 253.177163 
L 130.214192 245.522623 
L 131.010136 244.831355 
L 131.806081 245.891239 
L 132.602026 248.462634 
L 134.193915 255.094043 
L 134.98986 257.228914 
L 135.785805 257.53294 
L 136.581749 255.718473 
L 137.377694 252.016338 
L 139.765528 237.98797 
L 140.561473 235.67172 
L 141.357417 235.548695 
L 142.153362 237.427899 
L 143.745251 243.859495 
L 144.541196 246.196592 
L 145.337141 246.776376 
L 146.133085 245.3774 
L 146.92903 242.42528 
L 148.520919 235.730434 
L 149.316864 233.96136 
L 150.112809 233.87193 
L 150.908753 235.127292 
L 151.704698 236.841096 
L 152.500643 237.904616 
L 153.296588 237.411323 
L 154.092532 235.023533 
L 156.480366 223.439417 
L 157.276311 222.237354 
L 158.072256 223.931593 
L 158.8682 228.466055 
L 162.051979 253.866705 
L 162.847924 256.429325 
L 163.643868 256.751895 
L 164.439813 255.408494 
L 166.031702 250.981397 
L 166.827647 249.249852 
L 167.623592 248.263018 
L 168.419537 247.967826 
L 169.215481 248.127484 
L 170.807371 248.66489 
L 171.603315 248.61425 
L 172.39926 248.225838 
L 173.195205 247.531195 
L 174.787094 245.840941 
L 175.583039 245.384556 
L 176.378983 245.63767 
L 177.174928 246.892984 
L 177.970873 249.278045 
L 178.766817 252.662749 
L 180.358707 260.564821 
L 181.154651 263.788359 
L 181.950596 265.803641 
L 182.746541 266.460535 
L 183.542485 266.032771 
L 184.33843 265.140872 
L 185.134375 264.537632 
L 185.93032 264.827549 
L 186.726264 266.223854 
L 188.318154 270.751087 
L 189.114098 272.249376 
L 189.910043 272.143542 
L 190.705988 270.05342 
L 191.501932 266.153232 
L 193.889766 251.501899 
L 194.685711 248.456825 
L 195.481656 246.928724 
L 196.2776 246.593427 
L 197.86949 247.059996 
L 198.665434 246.822691 
L 199.461379 246.056386 
L 201.053269 244.003307 
L 201.849213 243.423799 
L 202.645158 243.359307 
L 204.237047 243.910472 
L 205.032992 243.753126 
L 205.828937 242.909677 
L 206.624881 241.381427 
L 208.216771 237.525897 
L 209.012715 236.061156 
L 209.80866 235.286911 
L 210.604605 235.158526 
L 211.400549 235.360463 
L 212.196494 235.425827 
L 212.992439 234.913209 
L 213.788383 233.57178 
L 214.584328 231.431738 
L 216.972162 223.76799 
L 217.768107 222.096433 
L 218.564052 221.086476 
L 220.155941 219.917332 
L 220.951886 218.911473 
L 221.74783 217.152137 
L 222.543775 214.521734 
L 224.135664 207.327851 
L 225.727554 200.121199 
L 226.523498 197.502387 
L 227.319443 195.851089 
L 228.115388 195.199785 
L 228.911332 195.43287 
L 229.707277 196.324987 
L 232.095111 200.082049 
L 232.891056 200.872731 
L 233.687001 201.244492 
L 234.482945 201.28049 
L 235.27889 201.191976 
L 236.074835 201.271052 
L 236.870779 201.810259 
L 237.666724 203.005299 
L 238.462669 204.869725 
L 240.054558 209.567902 
L 240.850503 211.481012 
L 241.646447 212.461363 
L 242.442392 212.228575 
L 243.238337 210.800917 
L 245.626171 203.821614 
L 246.422115 202.622455 
L 247.21806 202.619362 
L 248.014005 203.660245 
L 248.80995 205.216895 
L 249.605894 206.527487 
L 250.401839 206.817631 
L 251.197784 205.533922 
L 251.993728 202.520212 
L 252.789673 198.083285 
L 254.381562 187.971741 
L 255.177507 184.111621 
L 255.973452 181.973684 
L 256.769396 181.748532 
L 257.565341 183.135081 
L 259.15723 187.622407 
L 259.953175 188.80673 
L 260.74912 188.253801 
L 261.545064 185.677495 
L 262.341009 181.292655 
L 264.728843 165.069596 
L 265.524788 161.614365 
L 266.320733 159.958352 
L 267.116677 159.85797 
L 268.708567 161.181152 
L 269.504511 160.664784 
L 270.300456 158.432331 
L 271.096401 154.428383 
L 273.484235 139.398113 
L 274.280179 137.034005 
L 275.076124 137.226413 
L 275.872069 139.83498 
L 278.259903 152.835032 
L 279.055847 155.13042 
L 279.851792 155.264918 
L 280.647737 153.332433 
L 281.443682 149.858408 
L 283.831516 136.985796 
L 285.423405 130.087569 
L 286.21935 127.255191 
L 287.015294 124.862279 
L 287.811239 123.121446 
L 288.607184 122.360544 
L 289.403128 122.885962 
L 290.199073 124.823889 
L 290.995018 128.01424 
L 293.382852 139.944399 
L 294.178796 142.856766 
L 294.974741 144.821264 
L 295.770686 146.039598 
L 297.362575 147.834792 
L 298.15852 149.07896 
L 300.546354 153.686642 
L 301.342299 154.431551 
L 302.138243 154.330517 
L 302.934188 153.389756 
L 303.730133 151.816928 
L 305.322022 148.075448 
L 306.117967 146.471999 
L 306.913911 145.234887 
L 307.709856 144.36511 
L 308.505801 143.815247 
L 309.301745 143.551823 
L 310.09769 143.587652 
L 310.893635 143.969965 
L 311.689579 144.734117 
L 312.485524 145.8504 
L 314.873358 149.814087 
L 315.669303 150.790046 
L 317.261192 152.347609 
L 318.057137 153.461304 
L 318.853082 155.197789 
L 319.649026 157.694369 
L 322.03686 167.342182 
L 322.832805 169.572617 
L 323.62875 170.53197 
L 324.424694 170.14371 
L 325.220639 168.694497 
L 326.812528 164.9811 
L 327.608473 163.91918 
L 328.404418 163.790812 
L 329.200363 164.430469 
L 329.996307 165.34824 
L 330.792252 165.920623 
L 331.588197 165.639297 
L 332.384141 164.325617 
L 334.771975 158.274139 
L 335.56792 157.814561 
L 336.363865 158.825811 
L 337.159809 161.04718 
L 337.955754 163.762392 
L 338.751699 166.020013 
L 339.547643 166.944829 
L 340.343588 166.02884 
L 341.139533 163.298141 
L 343.527367 151.015405 
L 344.323311 148.29509 
L 345.119256 146.958922 
L 345.915201 146.781802 
L 348.303035 148.094493 
L 349.894924 148.149323 
L 350.690869 148.688733 
L 351.486814 150.119624 
L 352.282758 152.559653 
L 354.670592 162.087386 
L 355.466537 163.953247 
L 356.262482 164.465489 
L 357.058426 163.677393 
L 357.854371 161.921102 
L 363.425984 145.872728 
L 364.221929 144.463905 
L 365.017873 144.291983 
L 365.813818 145.836478 
L 366.609763 149.263903 
L 367.405707 154.283613 
L 368.997597 165.860868 
L 369.793541 170.383374 
L 370.589486 172.99993 
L 371.385431 173.47965 
L 372.181375 172.118339 
L 375.365154 162.324565 
L 376.161099 161.052439 
L 376.957043 160.034161 
L 377.752988 158.81188 
L 378.548933 157.014467 
L 379.344878 154.484477 
L 380.936767 147.700196 
L 382.528656 140.382804 
L 383.324601 137.104125 
L 384.120546 134.309814 
L 384.91649 132.220189 
L 385.712435 131.146332 
L 386.50838 131.448793 
L 387.304324 133.410864 
L 388.100269 137.06966 
L 389.692158 147.696324 
L 390.488103 152.894702 
L 391.284048 156.649495 
L 392.079992 158.247577 
L 392.875937 157.545945 
L 393.671882 155.060947 
L 394.467827 151.839379 
L 395.263771 149.140973 
L 396.059716 148.034071 
L 396.855661 149.041301 
L 397.651605 151.958933 
L 399.243495 159.651838 
L 400.039439 161.923311 
L 400.835384 161.889351 
L 401.631329 159.356801 
L 402.427273 154.806028 
L 404.019163 143.69737 
L 404.815107 139.257064 
L 405.611052 136.456089 
L 406.406997 135.374991 
L 407.202941 135.683296 
L 407.998886 136.828858 
L 409.590775 139.552045 
L 410.38672 140.542991 
L 411.182665 141.229146 
L 412.774554 142.068029 
L 413.570499 142.328713 
L 413.570499 142.328713 
" clip-path="url(#p61579bfe23)" style="fill: none; stroke: #e41a1c; stroke-width: 1.5; stroke-linecap: square"/>
   </g>
   <g id="line2d_15">
    <path d="M 46.64 248.556636 
L 47.435945 249.633188 
L 48.231889 250.16603 
L 49.027834 250.071679 
L 49.823779 249.482908 
L 50.619723 248.695345 
L 51.415668 248.067436 
L 52.211613 247.906414 
L 53.007557 248.375527 
L 53.803502 249.449399 
L 56.191336 253.82993 
L 56.987281 254.655336 
L 57.783226 254.837399 
L 58.57917 254.385175 
L 59.375115 253.431821 
L 61.762949 249.662542 
L 62.558894 248.707918 
L 63.354838 248.061491 
L 64.150783 247.718286 
L 64.946728 247.614292 
L 66.538617 247.628926 
L 67.334562 247.431307 
L 68.130506 246.903433 
L 68.926451 245.982194 
L 71.314285 242.112178 
L 72.11023 241.419144 
L 72.906175 241.534862 
L 73.702119 242.568011 
L 74.498064 244.391838 
L 76.089953 248.880192 
L 76.885898 250.594264 
L 77.681843 251.491959 
L 78.477787 251.527166 
L 79.273732 250.92337 
L 80.069677 250.086651 
L 80.865621 249.454296 
L 81.661566 249.337806 
L 82.457511 249.822297 
L 84.0494 251.868881 
L 84.845345 252.863657 
L 85.641289 253.609115 
L 87.233179 254.82906 
L 88.029124 255.864303 
L 88.825068 257.48865 
L 91.212902 264.28082 
L 92.008847 265.646202 
L 92.804792 265.786906 
L 93.600736 264.57251 
L 94.396681 262.202382 
L 96.784515 253.215816 
L 97.58046 251.209265 
L 98.376404 250.039485 
L 99.172349 249.588541 
L 99.968294 249.631314 
L 100.764238 249.946008 
L 102.356128 250.899804 
L 104.743962 252.602634 
L 105.539907 252.918537 
L 106.335851 252.862991 
L 107.131796 252.358517 
L 107.927741 251.465951 
L 109.51963 249.432158 
L 110.315575 248.862998 
L 111.111519 248.834613 
L 111.907464 249.302669 
L 113.499353 250.702585 
L 114.295298 250.995529 
L 115.091243 250.761448 
L 115.887187 250.065528 
L 116.683132 249.172584 
L 117.479077 248.447805 
L 118.275021 248.217278 
L 119.070966 248.645116 
L 119.866911 249.676994 
L 122.254745 253.693416 
L 123.05069 254.523355 
L 125.438524 256.228729 
L 126.234468 257.31017 
L 127.030413 258.813962 
L 128.622302 262.327707 
L 129.418247 263.742706 
L 130.214192 264.600032 
L 131.010136 264.822491 
L 131.806081 264.487259 
L 132.602026 263.774645 
L 134.98986 261.200461 
L 135.785805 260.544432 
L 136.581749 260.082656 
L 137.377694 259.905359 
L 138.173639 260.143345 
L 138.969583 260.922351 
L 139.765528 262.287569 
L 142.153362 268.06383 
L 142.949307 269.349313 
L 143.745251 269.776961 
L 144.541196 269.313811 
L 145.337141 268.196088 
L 146.133085 266.861464 
L 146.92903 265.801774 
L 147.724975 265.388799 
L 148.520919 265.739123 
L 150.908753 268.543641 
L 151.704698 268.593811 
L 152.500643 267.759872 
L 153.296588 266.162161 
L 154.888477 262.144504 
L 155.684422 260.540112 
L 156.480366 259.544229 
L 157.276311 259.169943 
L 158.072256 259.276778 
L 159.664145 260.167791 
L 161.256034 261.291348 
L 164.439813 263.965612 
L 165.235758 264.236133 
L 166.031702 264.126391 
L 166.827647 263.678469 
L 168.419537 262.523307 
L 169.215481 262.292635 
L 170.011426 262.498382 
L 170.807371 263.116853 
L 173.195205 265.586174 
L 173.991149 266.025553 
L 176.378983 266.768015 
L 177.174928 267.442916 
L 177.970873 268.509906 
L 179.562762 271.501333 
L 181.950596 276.170908 
L 185.93032 283.17295 
L 186.726264 284.054935 
L 187.522209 284.442469 
L 188.318154 284.298348 
L 189.114098 283.709438 
L 191.501932 281.27906 
L 192.297877 280.8237 
L 193.093822 280.601967 
L 194.685711 280.386045 
L 195.481656 280.151347 
L 197.86949 279.034227 
L 198.665434 278.933301 
L 199.461379 279.135579 
L 201.849213 280.662786 
L 202.645158 280.788174 
L 203.441103 280.397076 
L 204.237047 279.447835 
L 205.828937 276.429247 
L 206.624881 274.884893 
L 207.420826 273.68158 
L 208.216771 272.978581 
L 209.012715 272.776607 
L 210.604605 273.112618 
L 211.400549 273.060351 
L 212.196494 272.50891 
L 212.992439 271.355392 
L 213.788383 269.681601 
L 215.380273 265.866461 
L 216.176218 264.41622 
L 216.972162 263.633039 
L 217.768107 263.607578 
L 218.564052 264.270519 
L 219.359996 265.443359 
L 220.951886 268.550368 
L 222.543775 272.116032 
L 224.135664 276.294898 
L 225.727554 280.519712 
L 226.523498 282.0352 
L 227.319443 282.788802 
L 228.115388 282.663565 
L 228.911332 281.759674 
L 230.503222 279.013241 
L 231.299166 278.070687 
L 232.095111 277.873432 
L 232.891056 278.493807 
L 233.687001 279.755681 
L 235.27889 282.750546 
L 236.074835 283.774595 
L 236.870779 284.247775 
L 237.666724 284.233154 
L 240.054558 283.334292 
L 241.646447 283.300279 
L 243.238337 283.302909 
L 244.830226 283.089624 
L 245.626171 283.127129 
L 246.422115 283.391696 
L 248.80995 284.842798 
L 249.605894 284.898435 
L 250.401839 284.469991 
L 251.197784 283.589054 
L 252.789673 281.294803 
L 253.585618 280.404978 
L 254.381562 279.909112 
L 255.177507 279.783842 
L 256.769396 279.939202 
L 257.565341 279.830348 
L 259.15723 279.059504 
L 259.953175 278.717945 
L 260.74912 278.682894 
L 261.545064 279.05265 
L 263.932898 281.124624 
L 264.728843 281.209904 
L 265.524788 280.687095 
L 266.320733 279.643859 
L 267.912622 277.123419 
L 268.708567 276.269386 
L 269.504511 275.906834 
L 270.300456 275.96313 
L 271.892345 276.351139 
L 272.68829 276.163905 
L 273.484235 275.557589 
L 275.076124 273.484372 
L 276.668013 271.45259 
L 279.055847 268.998765 
L 281.443682 265.619082 
L 282.239626 264.921137 
L 283.035571 264.92414 
L 283.831516 265.775154 
L 284.62746 267.388535 
L 286.21935 271.431678 
L 287.015294 272.859987 
L 287.811239 273.343996 
L 288.607184 272.754067 
L 289.403128 271.244247 
L 291.790962 265.344967 
L 292.586907 264.207528 
L 293.382852 263.673337 
L 294.974741 263.442693 
L 295.770686 263.119293 
L 296.56663 262.401505 
L 298.954465 259.273804 
L 299.750409 258.95477 
L 300.546354 259.434395 
L 301.342299 260.726132 
L 302.138243 262.64439 
L 303.730133 267.009283 
L 304.526077 268.758708 
L 305.322022 269.900409 
L 306.117967 270.357671 
L 306.913911 270.167743 
L 307.709856 269.439003 
L 308.505801 268.307704 
L 310.09769 265.377806 
L 311.689579 262.403211 
L 312.485524 261.180653 
L 313.281469 260.213675 
L 315.669303 258.060935 
L 316.465248 257.016637 
L 317.261192 255.566333 
L 319.649026 249.989711 
L 320.444971 248.785238 
L 321.240916 248.450548 
L 322.03686 249.075619 
L 322.832805 250.501686 
L 324.424694 254.18895 
L 325.220639 255.580689 
L 326.016584 256.317266 
L 326.812528 256.432771 
L 328.404418 255.953913 
L 329.200363 256.082944 
L 329.996307 256.764646 
L 330.792252 257.973842 
L 332.384141 261.025481 
L 333.180086 262.296594 
L 333.976031 263.185903 
L 336.363865 264.788343 
L 337.159809 265.694041 
L 337.955754 266.953117 
L 339.547643 269.819109 
L 340.343588 270.824728 
L 341.139533 271.172645 
L 341.935477 270.730704 
L 342.731422 269.52872 
L 343.527367 267.738095 
L 345.915201 261.468206 
L 346.711146 259.869988 
L 347.50709 258.758635 
L 348.303035 258.17063 
L 349.09898 258.075143 
L 349.894924 258.377302 
L 352.282758 259.947992 
L 353.078703 260.038687 
L 353.874648 259.690945 
L 354.670592 258.920106 
L 357.058426 255.790893 
L 357.854371 255.240253 
L 358.650316 255.187945 
L 359.44626 255.613467 
L 361.03815 257.301191 
L 361.834095 258.162058 
L 362.630039 258.813379 
L 363.425984 259.183399 
L 364.221929 259.284884 
L 365.813818 259.02005 
L 366.609763 258.874159 
L 367.405707 258.856857 
L 368.201652 259.053435 
L 368.997597 259.535902 
L 369.793541 260.360179 
L 370.589486 261.553995 
L 371.385431 263.098408 
L 374.569209 270.370338 
L 375.365154 271.614423 
L 376.161099 272.414521 
L 376.957043 272.82476 
L 379.344878 273.33007 
L 380.140822 273.759568 
L 382.528656 275.582676 
L 383.324601 275.848959 
L 384.120546 275.757219 
L 384.91649 275.349369 
L 386.50838 274.261596 
L 387.304324 273.99363 
L 388.100269 274.082161 
L 388.896214 274.501656 
L 390.488103 275.662821 
L 391.284048 275.975819 
L 392.079992 275.922973 
L 392.875937 275.521779 
L 394.467827 274.328997 
L 395.263771 273.955327 
L 396.059716 273.899425 
L 398.44755 274.590487 
L 399.243495 274.353539 
L 400.039439 273.592196 
L 400.835384 272.334859 
L 403.223218 267.859292 
L 404.019163 267.058981 
L 404.815107 266.883693 
L 405.611052 267.309148 
L 406.406997 268.205384 
L 410.38672 274.079247 
L 411.182665 274.852223 
L 411.97861 275.392297 
L 412.774554 275.679007 
L 413.570499 275.713494 
L 413.570499 275.713494 
" clip-path="url(#p61579bfe23)" style="fill: none; stroke: #377eb8; stroke-width: 1.5; stroke-linecap: square"/>
   </g>
   <g id="line2d_16">
    <path d="M 87.233179 318.04 
L 87.233179 71.732 
" clip-path="url(#p61579bfe23)" style="fill: none; stroke: #000000; stroke-width: 0.5; stroke-linecap: square"/>
   </g>
   <g id="line2d_17">
    <path d="M 46.64 249.275665 
L 413.570499 249.275665 
" clip-path="url(#p61579bfe23)" style="fill: none; stroke: #000000; stroke-width: 0.5; stroke-linecap: square"/>
   </g>
   <g id="patch_4">
    <path d="M 46.64 318.04 
L 46.64 71.732 
" style="fill: none; stroke: #000000; stroke-width: 0.8; stroke-linejoin: miter; stroke-linecap: square"/>
   </g>
   <g id="patch_5">
    <path d="M 413.570499 318.04 
L 413.570499 71.732 
" style="fill: none; stroke: #000000; stroke-width: 0.8; stroke-linejoin: miter; stroke-linecap: square"/>
   </g>
   <g id="patch_6">
    <path d="M 46.64 318.04 
L 413.570499 318.04 
" style="fill: none; stroke: #000000; stroke-width: 0.8; stroke-linejoin: miter; stroke-linecap: square"/>
   </g>
   <g id="patch_7">
    <path d="M 46.64 71.732 
L 413.570499 71.732 
" style="fill: none; stroke: #000000; stroke-width: 0.8; stroke-linejoin: miter; stroke-linecap: square"/>
   </g>
   <g id="text_16">
    <!-- Cz -->
    <g transform="translate(222.766499 65.732)scale(0.12 -0.12)">
     <defs>
      <path id="DejaVuSans-43" d="M 4122 4306 
L 4122 3641 
Q 3803 3938 3442 4084 
Q 3081 4231 2675 4231 
Q 1875 4231 1450 3742 
Q 1025 3253 1025 2328 
Q 1025 1406 1450 917 
Q 1875 428 2675 428 
Q 3081 428 3442 575 
Q 3803 722 4122 1019 
L 4122 359 
Q 3791 134 3420 21 
Q 3050 -91 2638 -91 
Q 1578 -91 968 557 
Q 359 1206 359 2328 
Q 359 3453 968 4101 
Q 1578 4750 2638 4750 
Q 3056 4750 3426 4639 
Q 3797 4528 4122 4306 
z
" transform="scale(0.015625)"/>
      <path id="DejaVuSans-7a" d="M 353 3500 
L 3084 3500 
L 3084 2975 
L 922 459 
L 3084 459 
L 3084 0 
L 275 0 
L 275 525 
L 2438 3041 
L 353 3041 
L 353 3500 
z
" transform="scale(0.015625)"/>
     </defs>
     <use xlink:href="#DejaVuSans-43"/>
     <use xlink:href="#DejaVuSans-7a" x="69.824219"/>
    </g>
   </g>
   <g id="legend_1">
    <g id="patch_8">
     <path d="M 99.877906 48.500845 
L 360.332593 48.500845 
Q 362.332593 48.500845 362.332593 46.500845 
L 362.332593 18.144595 
Q 362.332593 16.144595 360.332593 16.144595 
L 99.877906 16.144595 
Q 97.877906 16.144595 97.877906 18.144595 
L 97.877906 46.500845 
Q 97.877906 48.500845 99.877906 48.500845 
z
" style="fill: #ffffff; opacity: 0.8; stroke: #cccccc; stroke-linejoin: miter"/>
    </g>
    <g id="text_17">
     <!-- Average of Session 41 -->
     <g transform="translate(174.545874 27.743033)scale(0.1 -0.1)">
      <defs>
       <path id="DejaVuSans-41" d="M 2188 4044 
L 1331 1722 
L 3047 1722 
L 2188 4044 
z
M 1831 4666 
L 2547 4666 
L 4325 0 
L 3669 0 
L 3244 1197 
L 1141 1197 
L 716 0 
L 50 0 
L 1831 4666 
z
" transform="scale(0.015625)"/>
       <path id="DejaVuSans-76" d="M 191 3500 
L 800 3500 
L 1894 563 
L 2988 3500 
L 3597 3500 
L 2284 0 
L 1503 0 
L 191 3500 
z
" transform="scale(0.015625)"/>
       <path id="DejaVuSans-72" d="M 2631 2963 
Q 2534 3019 2420 3045 
Q 2306 3072 2169 3072 
Q 1681 3072 1420 2755 
Q 1159 2438 1159 1844 
L 1159 0 
L 581 0 
L 581 3500 
L 1159 3500 
L 1159 2956 
Q 1341 3275 1631 3429 
Q 1922 3584 2338 3584 
Q 2397 3584 2469 3576 
Q 2541 3569 2628 3553 
L 2631 2963 
z
" transform="scale(0.015625)"/>
       <path id="DejaVuSans-61" d="M 2194 1759 
Q 1497 1759 1228 1600 
Q 959 1441 959 1056 
Q 959 750 1161 570 
Q 1363 391 1709 391 
Q 2188 391 2477 730 
Q 2766 1069 2766 1631 
L 2766 1759 
L 2194 1759 
z
M 3341 1997 
L 3341 0 
L 2766 0 
L 2766 531 
Q 2569 213 2275 61 
Q 1981 -91 1556 -91 
Q 1019 -91 701 211 
Q 384 513 384 1019 
Q 384 1609 779 1909 
Q 1175 2209 1959 2209 
L 2766 2209 
L 2766 2266 
Q 2766 2663 2505 2880 
Q 2244 3097 1772 3097 
Q 1472 3097 1187 3025 
Q 903 2953 641 2809 
L 641 3341 
Q 956 3463 1253 3523 
Q 1550 3584 1831 3584 
Q 2591 3584 2966 3190 
Q 3341 2797 3341 1997 
z
" transform="scale(0.015625)"/>
       <path id="DejaVuSans-67" d="M 2906 1791 
Q 2906 2416 2648 2759 
Q 2391 3103 1925 3103 
Q 1463 3103 1205 2759 
Q 947 2416 947 1791 
Q 947 1169 1205 825 
Q 1463 481 1925 481 
Q 2391 481 2648 825 
Q 2906 1169 2906 1791 
z
M 3481 434 
Q 3481 -459 3084 -895 
Q 2688 -1331 1869 -1331 
Q 1566 -1331 1297 -1286 
Q 1028 -1241 775 -1147 
L 775 -588 
Q 1028 -725 1275 -790 
Q 1522 -856 1778 -856 
Q 2344 -856 2625 -561 
Q 2906 -266 2906 331 
L 2906 616 
Q 2728 306 2450 153 
Q 2172 0 1784 0 
Q 1141 0 747 490 
Q 353 981 353 1791 
Q 353 2603 747 3093 
Q 1141 3584 1784 3584 
Q 2172 3584 2450 3431 
Q 2728 3278 2906 2969 
L 2906 3500 
L 3481 3500 
L 3481 434 
z
" transform="scale(0.015625)"/>
       <path id="DejaVuSans-20" transform="scale(0.015625)"/>
       <path id="DejaVuSans-66" d="M 2375 4863 
L 2375 4384 
L 1825 4384 
Q 1516 4384 1395 4259 
Q 1275 4134 1275 3809 
L 1275 3500 
L 2222 3500 
L 2222 3053 
L 1275 3053 
L 1275 0 
L 697 0 
L 697 3053 
L 147 3053 
L 147 3500 
L 697 3500 
L 697 3744 
Q 697 4328 969 4595 
Q 1241 4863 1831 4863 
L 2375 4863 
z
" transform="scale(0.015625)"/>
       <path id="DejaVuSans-53" d="M 3425 4513 
L 3425 3897 
Q 3066 4069 2747 4153 
Q 2428 4238 2131 4238 
Q 1616 4238 1336 4038 
Q 1056 3838 1056 3469 
Q 1056 3159 1242 3001 
Q 1428 2844 1947 2747 
L 2328 2669 
Q 3034 2534 3370 2195 
Q 3706 1856 3706 1288 
Q 3706 609 3251 259 
Q 2797 -91 1919 -91 
Q 1588 -91 1214 -16 
Q 841 59 441 206 
L 441 856 
Q 825 641 1194 531 
Q 1563 422 1919 422 
Q 2459 422 2753 634 
Q 3047 847 3047 1241 
Q 3047 1584 2836 1778 
Q 2625 1972 2144 2069 
L 1759 2144 
Q 1053 2284 737 2584 
Q 422 2884 422 3419 
Q 422 4038 858 4394 
Q 1294 4750 2059 4750 
Q 2388 4750 2728 4690 
Q 3069 4631 3425 4513 
z
" transform="scale(0.015625)"/>
       <path id="DejaVuSans-69" d="M 603 3500 
L 1178 3500 
L 1178 0 
L 603 0 
L 603 3500 
z
M 603 4863 
L 1178 4863 
L 1178 4134 
L 603 4134 
L 603 4863 
z
" transform="scale(0.015625)"/>
      </defs>
      <use xlink:href="#DejaVuSans-41"/>
      <use xlink:href="#DejaVuSans-76" x="62.533203"/>
      <use xlink:href="#DejaVuSans-65" x="121.712891"/>
      <use xlink:href="#DejaVuSans-72" x="183.236328"/>
      <use xlink:href="#DejaVuSans-61" x="224.349609"/>
      <use xlink:href="#DejaVuSans-67" x="285.628906"/>
      <use xlink:href="#DejaVuSans-65" x="349.105469"/>
      <use xlink:href="#DejaVuSans-20" x="410.628906"/>
      <use xlink:href="#DejaVuSans-6f" x="442.416016"/>
      <use xlink:href="#DejaVuSans-66" x="503.597656"/>
      <use xlink:href="#DejaVuSans-20" x="538.802734"/>
      <use xlink:href="#DejaVuSans-53" x="570.589844"/>
      <use xlink:href="#DejaVuSans-65" x="634.066406"/>
      <use xlink:href="#DejaVuSans-73" x="695.589844"/>
      <use xlink:href="#DejaVuSans-73" x="747.689453"/>
      <use xlink:href="#DejaVuSans-69" x="799.789062"/>
      <use xlink:href="#DejaVuSans-6f" x="827.572266"/>
      <use xlink:href="#DejaVuSans-6e" x="888.753906"/>
      <use xlink:href="#DejaVuSans-20" x="952.132812"/>
      <use xlink:href="#DejaVuSans-34" x="983.919922"/>
      <use xlink:href="#DejaVuSans-31" x="1047.542969"/>
     </g>
    </g>
    <g id="line2d_18">
     <path d="M 101.877906 38.921158 
L 111.877906 38.921158 
L 121.877906 38.921158 
" style="fill: none; stroke: #e41a1c; stroke-width: 1.5; stroke-linecap: square"/>
    </g>
    <g id="text_18">
     <!-- Target (n=311) -->
     <g transform="translate(129.877906 42.421158)scale(0.1 -0.1)">
      <defs>
       <path id="DejaVuSans-54" d="M -19 4666 
L 3928 4666 
L 3928 4134 
L 2272 4134 
L 2272 0 
L 1638 0 
L 1638 4134 
L -19 4134 
L -19 4666 
z
" transform="scale(0.015625)"/>
       <path id="DejaVuSans-74" d="M 1172 4494 
L 1172 3500 
L 2356 3500 
L 2356 3053 
L 1172 3053 
L 1172 1153 
Q 1172 725 1289 603 
Q 1406 481 1766 481 
L 2356 481 
L 2356 0 
L 1766 0 
Q 1100 0 847 248 
Q 594 497 594 1153 
L 594 3053 
L 172 3053 
L 172 3500 
L 594 3500 
L 594 4494 
L 1172 4494 
z
" transform="scale(0.015625)"/>
       <path id="DejaVuSans-28" d="M 1984 4856 
Q 1566 4138 1362 3434 
Q 1159 2731 1159 2009 
Q 1159 1288 1364 580 
Q 1569 -128 1984 -844 
L 1484 -844 
Q 1016 -109 783 600 
Q 550 1309 550 2009 
Q 550 2706 781 3412 
Q 1013 4119 1484 4856 
L 1984 4856 
z
" transform="scale(0.015625)"/>
       <path id="DejaVuSans-3d" d="M 678 2906 
L 4684 2906 
L 4684 2381 
L 678 2381 
L 678 2906 
z
M 678 1631 
L 4684 1631 
L 4684 1100 
L 678 1100 
L 678 1631 
z
" transform="scale(0.015625)"/>
       <path id="DejaVuSans-29" d="M 513 4856 
L 1013 4856 
Q 1481 4119 1714 3412 
Q 1947 2706 1947 2009 
Q 1947 1309 1714 600 
Q 1481 -109 1013 -844 
L 513 -844 
Q 928 -128 1133 580 
Q 1338 1288 1338 2009 
Q 1338 2731 1133 3434 
Q 928 4138 513 4856 
z
" transform="scale(0.015625)"/>
      </defs>
      <use xlink:href="#DejaVuSans-54"/>
      <use xlink:href="#DejaVuSans-61" x="44.583984"/>
      <use xlink:href="#DejaVuSans-72" x="105.863281"/>
      <use xlink:href="#DejaVuSans-67" x="145.226562"/>
      <use xlink:href="#DejaVuSans-65" x="208.703125"/>
      <use xlink:href="#DejaVuSans-74" x="270.226562"/>
      <use xlink:href="#DejaVuSans-20" x="309.435547"/>
      <use xlink:href="#DejaVuSans-28" x="341.222656"/>
      <use xlink:href="#DejaVuSans-6e" x="380.236328"/>
      <use xlink:href="#DejaVuSans-3d" x="443.615234"/>
      <use xlink:href="#DejaVuSans-33" x="527.404297"/>
      <use xlink:href="#DejaVuSans-31" x="591.027344"/>
      <use xlink:href="#DejaVuSans-31" x="654.650391"/>
      <use xlink:href="#DejaVuSans-29" x="718.273438"/>
     </g>
    </g>
    <g id="line2d_19">
     <path d="M 225.607593 38.921158 
L 235.607593 38.921158 
L 245.607593 38.921158 
" style="fill: none; stroke: #377eb8; stroke-width: 1.5; stroke-linecap: square"/>
    </g>
    <g id="text_19">
     <!-- Non-Target (n=1538) -->
     <g transform="translate(253.607593 42.421158)scale(0.1 -0.1)">
      <defs>
       <path id="DejaVuSans-4e" d="M 628 4666 
L 1478 4666 
L 3547 763 
L 3547 4666 
L 4159 4666 
L 4159 0 
L 3309 0 
L 1241 3903 
L 1241 0 
L 628 0 
L 628 4666 
z
" transform="scale(0.015625)"/>
       <path id="DejaVuSans-2d" d="M 313 2009 
L 1997 2009 
L 1997 1497 
L 313 1497 
L 313 2009 
z
" transform="scale(0.015625)"/>
      </defs>
      <use xlink:href="#DejaVuSans-4e"/>
      <use xlink:href="#DejaVuSans-6f" x="74.804688"/>
      <use xlink:href="#DejaVuSans-6e" x="135.986328"/>
      <use xlink:href="#DejaVuSans-2d" x="199.365234"/>
      <use xlink:href="#DejaVuSans-54" x="226.324219"/>
      <use xlink:href="#DejaVuSans-61" x="270.908203"/>
      <use xlink:href="#DejaVuSans-72" x="332.1875"/>
      <use xlink:href="#DejaVuSans-67" x="371.550781"/>
      <use xlink:href="#DejaVuSans-65" x="435.027344"/>
      <use xlink:href="#DejaVuSans-74" x="496.550781"/>
      <use xlink:href="#DejaVuSans-20" x="535.759766"/>
      <use xlink:href="#DejaVuSans-28" x="567.546875"/>
      <use xlink:href="#DejaVuSans-6e" x="606.560547"/>
      <use xlink:href="#DejaVuSans-3d" x="669.939453"/>
      <use xlink:href="#DejaVuSans-31" x="753.728516"/>
      <use xlink:href="#DejaVuSans-35" x="817.351562"/>
      <use xlink:href="#DejaVuSans-33" x="880.974609"/>
      <use xlink:href="#DejaVuSans-38" x="944.597656"/>
      <use xlink:href="#DejaVuSans-29" x="1008.220703"/>
     </g>
    </g>
   </g>
  </g>
 </g>
 <defs>
  <clipPath id="p61579bfe23">
   <rect x="46.64" y="71.732" width="366.930499" height="246.308"/>
  </clipPath>
 </defs>
</svg>
