<?xml version="1.0" encoding="utf-8" standalone="no"?>
<!DOCTYPE svg PUBLIC "-//W3C//DTD SVG 1.1//EN"
  "http://www.w3.org/Graphics/SVG/1.1/DTD/svg11.dtd">
<svg xmlns:xlink="http://www.w3.org/1999/xlink" width="432pt" height="360pt" viewBox="0 0 432 360" xmlns="http://www.w3.org/2000/svg" version="1.1">
 <metadata>
  <rdf:RDF xmlns:dc="http://purl.org/dc/elements/1.1/" xmlns:cc="http://creativecommons.org/ns#" xmlns:rdf="http://www.w3.org/1999/02/22-rdf-syntax-ns#">
   <cc:Work>
    <dc:type rdf:resource="http://purl.org/dc/dcmitype/StillImage"/>
    <dc:date>2022-05-19T11:52:42.508851</dc:date>
    <dc:format>image/svg+xml</dc:format>
    <dc:creator>
     <cc:Agent>
      <dc:title>Matplotlib v3.5.1, https://matplotlib.org/</dc:title>
     </cc:Agent>
    </dc:creator>
   </cc:Work>
  </rdf:RDF>
 </metadata>
 <defs>
  <style type="text/css">*{stroke-linejoin: round; stroke-linecap: butt}</style>
 </defs>
 <g id="figure_1">
  <g id="patch_1">
   <path d="M 0 360 
L 432 360 
L 432 0 
L 0 0 
L 0 360 
z
" style="fill: none"/>
  </g>
  <g id="axes_1">
   <g id="patch_2">
    <path d="M 46.55 318.04 
L 413.570499 318.04 
L 413.570499 71.732 
L 46.55 71.732 
L 46.55 318.04 
z
" style="fill: none"/>
   </g>
   <g id="PolyCollection_1">
    <defs>
     <path id="m353d997cf0" d="M 46.55 -142.361967 
L 46.55 -102.045102 
L 47.34614 -101.707322 
L 48.14228 -100.931197 
L 48.93842 -99.643906 
L 49.73456 -98.000217 
L 50.5307 -96.263186 
L 51.326839 -94.647574 
L 52.122979 -93.226655 
L 52.919119 -91.934429 
L 53.715259 -90.634428 
L 54.511399 -89.220022 
L 55.307539 -87.716002 
L 56.103679 -86.328286 
L 56.899819 -85.392347 
L 57.695959 -85.235068 
L 58.492099 -86.030183 
L 59.288239 -87.719859 
L 60.084378 -90.008071 
L 60.880518 -92.409072 
L 61.676658 -94.3743 
L 62.472798 -95.504702 
L 63.268938 -95.758444 
L 64.065078 -95.505698 
L 64.861218 -95.357361 
L 65.657358 -95.859994 
L 66.453498 -97.25276 
L 67.249638 -99.420596 
L 68.045778 -101.997443 
L 68.841918 -104.485865 
L 69.638057 -106.373587 
L 70.434197 -107.296596 
L 71.230337 -107.20521 
L 72.026477 -106.411242 
L 72.822617 -105.44042 
L 73.618757 -104.755387 
L 74.414897 -104.523761 
L 75.211037 -104.576059 
L 76.007177 -104.55922 
L 76.803317 -104.159161 
L 77.599457 -103.25145 
L 78.395596 -101.929895 
L 79.191736 -100.439007 
L 79.987876 -99.061995 
L 80.784016 -98.020091 
L 81.580156 -97.411988 
L 82.376296 -97.180463 
L 83.172436 -97.104104 
L 83.968576 -96.856465 
L 84.764716 -96.151544 
L 85.560856 -94.903544 
L 86.356996 -93.275516 
L 87.153135 -91.559273 
L 87.949275 -89.970775 
L 88.745415 -88.50924 
L 89.541555 -86.959706 
L 90.337695 -85.0111 
L 91.133835 -82.416455 
L 91.929975 -79.143137 
L 92.726115 -75.476447 
L 93.522255 -72.019136 
L 94.318395 -69.534258 
L 95.114535 -68.662049 
L 95.910674 -69.640989 
L 96.706814 -72.177137 
L 97.502954 -75.528772 
L 98.299094 -78.76973 
L 99.095234 -81.116522 
L 99.891374 -82.179317 
L 100.687514 -82.03707 
L 101.483654 -81.121701 
L 102.279794 -79.983826 
L 103.075934 -79.067853 
L 103.872074 -78.611139 
L 104.668213 -78.67585 
L 105.464353 -79.207275 
L 106.260493 -80.044531 
L 107.056633 -80.930605 
L 107.852773 -81.584564 
L 108.648913 -81.823658 
L 109.445053 -81.66021 
L 110.241193 -81.286678 
L 111.037333 -80.935881 
L 111.833473 -80.724212 
L 112.629613 -80.613133 
L 113.425753 -80.510167 
L 114.221892 -80.393246 
L 115.018032 -80.332501 
L 115.814172 -80.407746 
L 116.610312 -80.618598 
L 117.406452 -80.86143 
L 118.202592 -80.964844 
L 118.998732 -80.729074 
L 119.794872 -79.946207 
L 120.591012 -78.435915 
L 121.387152 -76.125714 
L 122.183292 -73.132633 
L 122.979431 -69.762749 
L 123.775571 -66.406014 
L 124.571711 -63.397951 
L 125.367851 -60.935585 
L 126.163991 -59.072247 
L 126.960131 -57.755333 
L 127.756271 -56.864922 
L 128.552411 -56.243461 
L 129.348551 -55.729557 
L 130.144691 -55.201575 
L 130.940831 -54.616076 
L 131.73697 -54.016946 
L 132.53311 -53.505263 
L 133.32925 -53.1897 
L 134.12539 -53.155818 
L 134.92153 -53.475349 
L 135.71767 -54.229355 
L 136.51381 -55.489421 
L 137.30995 -57.242859 
L 138.10609 -59.327364 
L 138.90223 -61.44942 
L 139.69837 -63.281504 
L 140.494509 -64.569645 
L 141.290649 -65.204922 
L 142.086789 -65.258195 
L 142.882929 -64.965509 
L 143.679069 -64.631282 
L 144.475209 -64.474377 
L 145.271349 -64.5341 
L 146.067489 -64.747377 
L 146.863629 -65.144976 
L 147.659769 -65.942692 
L 148.455909 -67.394634 
L 149.252049 -69.547033 
L 150.048188 -72.117005 
L 150.844328 -74.590188 
L 151.640468 -76.461625 
L 152.436608 -77.439551 
L 153.232748 -77.487825 
L 154.028888 -76.757332 
L 154.825028 -75.523177 
L 155.621168 -74.154287 
L 156.417308 -73.061071 
L 157.213448 -72.58266 
L 158.009588 -72.84761 
L 158.805727 -73.691725 
L 159.601867 -74.698126 
L 160.398007 -75.354396 
L 161.194147 -75.250946 
L 161.990287 -74.225511 
L 162.786427 -72.40674 
L 163.582567 -70.174047 
L 164.378707 -68.062372 
L 165.174847 -66.610977 
L 165.970987 -66.172229 
L 166.767127 -66.770237 
L 167.563266 -68.111564 
L 168.359406 -69.742443 
L 169.155546 -71.228827 
L 169.951686 -72.247166 
L 170.747826 -72.594771 
L 171.543966 -72.199243 
L 172.340106 -71.150325 
L 173.136246 -69.692484 
L 173.932386 -68.137134 
L 174.728526 -66.756306 
L 175.524666 -65.743992 
L 176.320805 -65.23451 
L 177.116945 -65.289745 
L 177.913085 -65.825307 
L 178.709225 -66.566233 
L 179.505365 -67.130392 
L 180.301505 -67.197632 
L 181.097645 -66.617734 
L 181.893785 -65.400948 
L 182.689925 -63.682603 
L 183.486065 -61.743872 
L 184.282205 -60.047057 
L 185.078344 -59.173081 
L 185.874484 -59.620602 
L 186.670624 -61.573751 
L 187.466764 -64.797774 
L 188.262904 -68.721281 
L 189.059044 -72.626595 
L 189.855184 -75.827512 
L 190.651324 -77.779139 
L 191.447464 -78.139238 
L 192.243604 -76.816825 
L 193.039744 -74.020136 
L 193.835884 -70.275144 
L 194.632023 -66.354407 
L 195.428163 -63.096322 
L 196.224303 -61.192336 
L 197.020443 -61.047801 
L 197.816583 -62.746734 
L 198.612723 -66.07582 
L 199.408863 -70.564651 
L 200.205003 -75.549408 
L 201.001143 -80.292825 
L 201.797283 -84.158685 
L 202.593423 -86.778596 
L 203.389562 -88.131813 
L 204.185702 -88.511356 
L 204.981842 -88.412384 
L 205.777982 -88.386973 
L 206.574122 -88.887619 
L 207.370262 -90.128352 
L 208.166402 -92.01628 
L 208.962542 -94.191494 
L 209.758682 -96.155121 
L 210.554822 -97.422825 
L 211.350962 -97.654012 
L 212.147101 -96.745284 
L 212.943241 -94.886683 
L 213.739381 -92.553522 
L 214.535521 -90.397308 
L 215.331661 -89.052432 
L 216.127801 -88.945273 
L 216.923941 -90.192313 
L 217.720081 -92.606883 
L 218.516221 -95.778615 
L 219.312361 -99.185727 
L 220.108501 -102.316179 
L 220.90464 -104.770269 
L 221.70078 -106.308444 
L 222.49692 -106.833943 
L 223.29306 -106.349736 
L 224.0892 -104.943263 
L 224.88534 -102.807238 
L 225.68148 -100.248715 
L 226.47762 -97.637589 
L 227.27376 -95.304666 
L 228.0699 -93.448818 
L 228.86604 -92.099549 
L 229.66218 -91.134721 
L 230.458319 -90.329908 
L 231.254459 -89.427059 
L 232.050599 -88.21926 
L 232.846739 -86.631861 
L 233.642879 -84.765337 
L 234.439019 -82.881526 
L 235.235159 -81.344239 
L 236.031299 -80.533231 
L 236.827439 -80.742648 
L 237.623579 -82.081736 
L 238.419719 -84.417522 
L 239.215858 -87.404195 
L 240.011998 -90.607614 
L 240.808138 -93.665491 
L 241.604278 -96.383073 
L 242.400418 -98.712713 
L 243.196558 -100.663334 
L 243.992698 -102.223293 
L 244.788838 -103.34168 
L 245.584978 -103.965489 
L 246.381118 -104.105447 
L 247.177258 -103.893758 
L 247.973397 -103.600887 
L 248.769537 -103.60004 
L 249.565677 -104.294077 
L 250.361817 -106.027355 
L 251.157957 -108.994957 
L 251.954097 -113.160594 
L 252.750237 -118.213345 
L 253.546377 -123.605032 
L 254.342517 -128.683099 
L 255.138657 -132.877801 
L 255.934797 -135.865868 
L 256.730936 -137.648789 
L 257.527076 -138.530667 
L 258.323216 -139.015034 
L 259.119356 -139.651888 
L 259.915496 -140.872597 
L 260.711636 -142.858458 
L 261.507776 -145.486705 
L 262.303916 -148.373696 
L 263.100056 -150.997275 
L 263.896196 -152.853721 
L 264.692336 -153.601376 
L 265.488475 -153.153343 
L 266.284615 -151.696919 
L 267.080755 -149.636393 
L 267.876895 -147.476631 
L 268.673035 -145.682279 
L 269.469175 -144.555928 
L 270.265315 -144.174131 
L 271.061455 -144.402118 
L 271.857595 -144.98149 
L 272.653735 -145.658469 
L 273.449875 -146.302684 
L 274.246015 -146.969006 
L 275.042154 -147.880212 
L 275.838294 -149.344008 
L 276.634434 -151.644667 
L 277.430574 -154.952348 
L 278.226714 -159.270949 
L 279.022854 -164.417219 
L 279.818994 -170.018202 
L 280.615134 -175.535736 
L 281.411274 -180.342399 
L 282.207414 -183.854093 
L 283.003554 -185.681641 
L 283.799693 -185.736685 
L 284.595833 -184.247571 
L 285.391973 -181.693439 
L 286.188113 -178.697589 
L 286.984253 -175.911124 
L 287.780393 -173.896344 
L 288.576533 -173.020573 
L 289.372673 -173.384474 
L 290.168813 -174.805642 
L 290.964953 -176.859211 
L 291.761093 -178.965904 
L 292.557232 -180.520429 
L 293.353372 -181.047624 
L 294.149512 -180.346921 
L 294.945652 -178.562057 
L 295.741792 -176.131739 
L 296.537932 -173.642134 
L 297.334072 -171.660118 
L 298.130212 -170.617783 
L 298.926352 -170.754152 
L 299.722492 -172.078109 
L 300.518632 -174.347427 
L 301.314771 -177.106496 
L 302.110911 -179.811154 
L 302.907051 -182.001082 
L 303.703191 -183.42561 
L 304.499331 -184.046609 
L 305.295471 -183.933433 
L 306.091611 -183.147712 
L 306.887751 -181.707294 
L 307.683891 -179.634069 
L 308.480031 -177.01876 
L 309.276171 -174.041896 
L 310.072311 -170.948862 
L 310.86845 -168.011893 
L 311.66459 -165.494893 
L 312.46073 -163.608923 
L 313.25687 -162.451825 
L 314.05301 -161.958984 
L 314.84915 -161.908253 
L 315.64529 -161.994931 
L 316.44143 -161.945605 
L 317.23757 -161.612451 
L 318.03371 -160.998844 
L 318.82985 -160.2043 
L 319.625989 -159.320194 
L 320.422129 -158.335758 
L 321.218269 -157.11396 
L 322.014409 -155.462589 
L 322.810549 -153.268228 
L 323.606689 -150.617723 
L 324.402829 -147.839363 
L 325.198969 -145.444992 
L 325.995109 -143.998506 
L 326.791249 -143.951831 
L 327.587389 -145.491206 
L 328.383528 -148.439316 
L 329.179668 -152.254595 
L 329.975808 -156.142128 
L 330.771948 -159.248111 
L 331.568088 -160.880986 
L 332.364228 -160.699247 
L 333.160368 -158.812685 
L 333.956508 -155.755194 
L 334.752648 -152.322025 
L 335.548788 -149.325455 
L 336.344928 -147.369178 
L 337.141067 -146.727582 
L 337.937207 -147.34424 
L 338.733347 -148.895426 
L 339.529487 -150.864097 
L 340.325627 -152.623811 
L 341.121767 -153.560547 
L 341.917907 -153.222507 
L 342.714047 -151.42759 
L 343.510187 -148.257242 
L 344.306327 -143.947926 
L 345.102467 -138.774546 
L 345.898606 -133.010679 
L 346.694746 -126.960841 
L 347.490886 -120.98523 
L 348.287026 -115.454382 
L 349.083166 -110.656481 
L 349.879306 -106.734566 
L 350.675446 -103.700289 
L 351.471586 -101.49959 
L 352.267726 -100.070629 
L 353.063866 -99.362507 
L 353.860006 -99.330642 
L 354.656146 -99.933525 
L 355.452285 -101.128531 
L 356.248425 -102.849211 
L 357.044565 -104.966133 
L 357.840705 -107.26152 
L 358.636845 -109.448406 
L 359.432985 -111.237036 
L 360.229125 -112.422448 
L 361.025265 -112.957078 
L 361.821405 -112.979312 
L 362.617545 -112.782364 
L 363.413685 -112.723706 
L 364.209824 -113.097034 
L 365.005964 -114.009768 
L 365.802104 -115.314965 
L 366.598244 -116.631773 
L 367.394384 -117.457865 
L 368.190524 -117.339591 
L 368.986664 -116.035751 
L 369.782804 -113.608053 
L 370.578944 -110.400777 
L 371.375084 -106.918141 
L 372.171224 -103.647779 
L 372.967363 -100.898835 
L 373.763503 -98.720342 
L 374.559643 -96.938093 
L 375.355783 -95.29787 
L 376.151923 -93.649163 
L 376.948063 -92.079466 
L 377.744203 -90.934714 
L 378.540343 -90.718255 
L 379.336483 -91.9075 
L 380.132623 -94.747444 
L 380.928763 -99.090254 
L 381.724902 -104.355693 
L 382.521042 -109.660704 
L 383.317182 -114.090679 
L 384.113322 -116.999491 
L 384.909462 -118.200539 
L 385.705602 -117.974611 
L 386.501742 -116.921556 
L 387.297882 -115.741934 
L 388.094022 -115.028129 
L 388.890162 -115.112182 
L 389.686302 -115.997811 
L 390.482441 -117.392167 
L 391.278581 -118.82733 
L 392.074721 -119.826681 
L 392.870861 -120.052946 
L 393.667001 -119.387791 
L 394.463141 -117.929816 
L 395.259281 -115.93573 
L 396.055421 -113.745662 
L 396.851561 -111.721319 
L 397.647701 -110.198034 
L 398.443841 -109.435488 
L 399.239981 -109.563595 
L 400.03612 -110.543877 
L 400.83226 -112.171896 
L 401.6284 -114.125321 
L 402.42454 -116.039153 
L 403.22068 -117.586718 
L 404.01682 -118.555046 
L 404.81296 -118.90482 
L 405.6091 -118.794873 
L 406.40524 -118.547096 
L 407.20138 -118.545229 
L 407.99752 -119.093212 
L 408.793659 -120.284605 
L 409.589799 -121.939437 
L 410.385939 -123.647334 
L 411.182079 -124.917483 
L 411.978219 -125.384258 
L 412.774359 -124.978388 
L 413.570499 -123.98055 
L 413.570499 -242.551437 
L 413.570499 -242.551437 
L 412.774359 -243.87934 
L 411.978219 -244.640145 
L 411.182079 -244.450692 
L 410.385939 -243.278028 
L 409.589799 -241.413244 
L 408.793659 -239.350095 
L 407.99752 -237.606621 
L 407.20138 -236.546545 
L 406.40524 -236.262247 
L 405.6091 -236.559361 
L 404.81296 -237.043152 
L 404.01682 -237.269867 
L 403.22068 -236.906443 
L 402.42454 -235.841385 
L 401.6284 -234.208209 
L 400.83226 -232.320478 
L 400.03612 -230.559192 
L 399.239981 -229.27014 
L 398.443841 -228.704532 
L 397.647701 -228.993334 
L 396.851561 -230.127714 
L 396.055421 -231.938314 
L 395.259281 -234.095917 
L 394.463141 -236.159428 
L 393.667001 -237.670857 
L 392.870861 -238.270231 
L 392.074721 -237.796553 
L 391.278581 -236.347632 
L 390.482441 -234.278135 
L 389.686302 -232.122508 
L 388.890162 -230.446893 
L 388.094022 -229.661227 
L 387.297882 -229.850489 
L 386.501742 -230.699125 
L 385.705602 -231.563333 
L 384.909462 -231.683351 
L 384.113322 -230.453724 
L 383.317182 -227.637976 
L 382.521042 -223.449902 
L 381.724902 -218.494009 
L 380.928763 -213.60488 
L 380.132623 -209.630515 
L 379.336483 -207.203528 
L 378.540343 -206.563126 
L 377.744203 -207.501966 
L 376.948063 -209.47411 
L 376.151923 -211.821541 
L 375.355783 -214.0154 
L 374.559643 -215.811109 
L 373.763503 -217.269525 
L 372.967363 -218.65521 
L 372.171224 -220.263271 
L 371.375084 -222.246022 
L 370.578944 -224.510417 
L 369.782804 -226.730414 
L 368.986664 -228.467896 
L 368.190524 -229.346619 
L 367.394384 -229.204087 
L 366.598244 -228.161195 
L 365.802104 -226.584406 
L 365.005964 -224.955349 
L 364.209824 -223.69797 
L 363.413685 -223.031081 
L 362.617545 -222.904014 
L 361.821405 -223.037708 
L 361.025265 -223.048795 
L 360.229125 -222.601488 
L 359.432985 -221.525186 
L 358.636845 -219.855738 
L 357.840705 -217.794839 
L 357.044565 -215.618259 
L 356.248425 -213.580727 
L 355.452285 -211.854705 
L 354.656146 -210.516501 
L 353.860006 -209.576156 
L 353.063866 -209.036984 
L 352.267726 -208.956832 
L 351.471586 -209.471933 
L 350.675446 -210.757288 
L 349.879306 -212.942239 
L 349.083166 -216.041604 
L 348.287026 -219.952005 
L 347.490886 -224.500745 
L 346.694746 -229.486606 
L 345.898606 -234.672017 
L 345.102467 -239.751743 
L 344.306327 -244.361093 
L 343.510187 -248.148922 
L 342.714047 -250.868717 
L 341.917907 -252.421612 
L 341.121767 -252.840191 
L 340.325627 -252.267455 
L 339.529487 -250.980604 
L 338.733347 -249.43015 
L 337.937207 -248.208058 
L 337.141067 -247.899038 
L 336.344928 -248.868423 
L 335.548788 -251.103296 
L 334.752648 -254.192817 
L 333.956508 -257.444443 
L 333.160368 -260.071136 
L 332.364228 -261.386248 
L 331.568088 -260.9717 
L 330.771948 -258.795038 
L 329.975808 -255.240285 
L 329.179668 -251.02327 
L 328.383528 -247.003616 
L 327.587389 -243.954828 
L 326.791249 -242.371193 
L 325.995109 -242.370329 
L 325.198969 -243.713969 
L 324.402829 -245.931446 
L 323.606689 -248.494553 
L 322.810549 -250.971289 
L 322.014409 -253.100591 
L 321.218269 -254.78054 
L 320.422129 -256.010297 
L 319.625989 -256.833508 
L 318.82985 -257.304678 
L 318.03371 -257.476632 
L 317.23757 -257.402963 
L 316.44143 -257.151602 
L 315.64529 -256.823079 
L 314.84915 -256.562809 
L 314.05301 -256.557391 
L 313.25687 -257.009438 
L 312.46073 -258.089437 
L 311.66459 -259.871751 
L 310.86845 -262.280385 
L 310.072311 -265.084636 
L 309.276171 -267.968042 
L 308.480031 -270.641633 
L 307.683891 -272.928315 
L 306.887751 -274.76139 
L 306.091611 -276.111487 
L 305.295471 -276.916118 
L 304.499331 -277.072182 
L 303.703191 -276.481963 
L 302.907051 -275.100739 
L 302.110911 -272.960436 
L 301.314771 -270.193032 
L 300.518632 -267.076027 
L 299.722492 -264.064931 
L 298.926352 -261.741326 
L 298.130212 -260.645922 
L 297.334072 -261.056887 
L 296.537932 -262.839524 
L 295.741792 -265.466461 
L 294.945652 -268.196507 
L 294.149512 -270.308761 
L 293.353372 -271.293523 
L 292.557232 -270.962419 
L 291.761093 -269.479546 
L 290.964953 -267.315369 
L 290.168813 -265.121876 
L 289.372673 -263.551223 
L 288.576533 -263.07472 
L 287.780393 -263.864736 
L 286.984253 -265.7688 
L 286.188113 -268.364584 
L 285.391973 -271.066967 
L 284.595833 -273.259099 
L 283.799693 -274.41791 
L 283.003554 -274.201804 
L 282.207414 -272.481514 
L 281.411274 -269.32742 
L 280.615134 -264.988031 
L 279.818994 -259.872978 
L 279.022854 -254.513408 
L 278.226714 -249.468859 
L 277.430574 -245.192171 
L 276.634434 -241.910334 
L 275.838294 -239.584408 
L 275.042154 -237.969069 
L 274.246015 -236.737981 
L 273.449875 -235.616705 
L 272.653735 -234.476132 
L 271.857595 -233.363885 
L 271.061455 -232.472012 
L 270.265315 -232.054794 
L 269.469175 -232.321684 
L 268.673035 -233.33705 
L 267.876895 -234.958815 
L 267.080755 -236.839991 
L 266.284615 -238.499964 
L 265.488475 -239.44938 
L 264.692336 -239.331741 
L 263.896196 -238.034435 
L 263.100056 -235.727323 
L 262.303916 -232.809754 
L 261.507776 -229.781258 
L 260.711636 -227.082383 
L 259.915496 -224.961693 
L 259.119356 -223.40826 
L 258.323216 -222.162599 
L 257.527076 -220.79864 
L 256.730936 -218.855536 
L 255.934797 -215.984055 
L 255.138657 -212.05957 
L 254.342517 -207.219937 
L 253.546377 -201.822358 
L 252.750237 -196.353685 
L 251.954097 -191.33369 
L 251.157957 -187.223334 
L 250.361817 -184.335317 
L 249.565677 -182.761241 
L 248.769537 -182.348989 
L 247.973397 -182.750655 
L 247.177258 -183.520047 
L 246.381118 -184.211454 
L 245.584978 -184.445579 
L 244.788838 -183.943384 
L 243.992698 -182.546875 
L 243.196558 -180.237843 
L 242.400418 -177.150554 
L 241.604278 -173.565815 
L 240.808138 -169.868972 
L 240.011998 -166.461407 
L 239.215858 -163.65064 
L 238.419719 -161.583374 
L 237.623579 -160.263392 
L 236.827439 -159.619556 
L 236.031299 -159.555616 
L 235.235159 -159.954305 
L 234.439019 -160.661868 
L 233.642879 -161.494442 
L 232.846739 -162.281038 
L 232.050599 -162.920077 
L 231.254459 -163.415633 
L 230.458319 -163.878436 
L 229.66218 -164.494892 
L 228.86604 -165.469727 
L 228.0699 -166.953398 
L 227.27376 -168.982105 
L 226.47762 -171.460068 
L 225.68148 -174.18405 
L 224.88534 -176.878012 
L 224.0892 -179.214305 
L 223.29306 -180.839712 
L 222.49692 -181.440023 
L 221.70078 -180.835872 
L 220.90464 -179.055469 
L 220.108501 -176.337832 
L 219.312361 -173.072884 
L 218.516221 -169.72304 
L 217.720081 -166.757936 
L 216.923941 -164.595249 
L 216.127801 -163.533341 
L 215.331661 -163.690152 
L 214.535521 -164.975031 
L 213.739381 -167.096634 
L 212.943241 -169.592185 
L 212.147101 -171.882961 
L 211.350962 -173.38557 
L 210.554822 -173.678382 
L 209.758682 -172.651716 
L 208.962542 -170.549267 
L 208.166402 -167.871605 
L 207.370262 -165.195892 
L 206.574122 -162.995548 
L 205.777982 -161.513621 
L 204.981842 -160.70587 
L 204.185702 -160.261491 
L 203.389562 -159.708553 
L 202.593423 -158.577286 
L 201.797283 -156.549701 
L 201.001143 -153.534459 
L 200.205003 -149.670077 
L 199.408863 -145.29756 
L 198.612723 -140.916405 
L 197.816583 -137.102946 
L 197.020443 -134.385427 
L 196.224303 -133.116418 
L 195.428163 -133.400447 
L 194.632023 -135.094103 
L 193.835884 -137.83749 
L 193.039744 -141.072152 
L 192.243604 -144.067299 
L 191.447464 -146.031653 
L 190.651324 -146.334069 
L 189.855184 -144.73836 
L 189.059044 -141.519116 
L 188.262904 -137.38935 
L 187.466764 -133.266727 
L 186.670624 -129.985526 
L 185.874484 -128.083488 
L 185.078344 -127.72582 
L 184.282205 -128.729571 
L 183.486065 -130.625232 
L 182.689925 -132.754182 
L 181.893785 -134.446767 
L 181.097645 -135.262086 
L 180.301505 -135.160759 
L 179.505365 -134.477778 
L 178.709225 -133.699301 
L 177.913085 -133.210628 
L 177.116945 -133.194809 
L 176.320805 -133.683349 
L 175.524666 -134.622708 
L 174.728526 -135.884514 
L 173.932386 -137.268125 
L 173.136246 -138.54652 
L 172.340106 -139.519711 
L 171.543966 -140.013469 
L 170.747826 -139.844273 
L 169.951686 -138.844159 
L 169.155546 -136.977951 
L 168.359406 -134.455788 
L 167.563266 -131.722273 
L 166.767127 -129.317659 
L 165.970987 -127.712992 
L 165.174847 -127.202762 
L 164.378707 -127.848054 
L 163.582567 -129.440755 
L 162.786427 -131.521517 
L 161.990287 -133.509714 
L 161.194147 -134.92149 
L 160.398007 -135.55514 
L 159.601867 -135.538545 
L 158.805727 -135.236877 
L 158.009588 -135.092674 
L 157.213448 -135.467592 
L 156.417308 -136.521944 
L 155.621168 -138.152482 
L 154.825028 -140.009931 
L 154.028888 -141.60982 
L 153.232748 -142.514738 
L 152.436608 -142.511955 
L 151.640468 -141.678645 
L 150.844328 -140.272176 
L 150.048188 -138.518815 
L 149.252049 -136.489534 
L 148.455909 -134.174508 
L 147.659769 -131.660394 
L 146.863629 -129.222409 
L 146.067489 -127.223353 
L 145.271349 -125.879441 
L 144.475209 -125.10463 
L 143.679069 -124.58647 
L 142.882929 -123.989894 
L 142.086789 -123.089135 
L 141.290649 -121.776239 
L 140.494509 -120.028911 
L 139.69837 -117.909369 
L 138.90223 -115.577867 
L 138.10609 -113.270655 
L 137.30995 -111.244769 
L 136.51381 -109.730208 
L 135.71767 -108.895442 
L 134.92153 -108.799426 
L 134.12539 -109.339621 
L 133.32925 -110.255616 
L 132.53311 -111.219184 
L 131.73697 -111.958796 
L 130.940831 -112.339075 
L 130.144691 -112.366068 
L 129.348551 -112.146719 
L 128.552411 -111.846552 
L 127.756271 -111.666955 
L 126.960131 -111.830671 
L 126.163991 -112.550046 
L 125.367851 -113.968463 
L 124.571711 -116.098903 
L 123.775571 -118.803273 
L 122.979431 -121.834186 
L 122.183292 -124.911814 
L 121.387152 -127.78354 
L 120.591012 -130.244353 
L 119.794872 -132.14852 
L 118.998732 -133.442516 
L 118.202592 -134.188656 
L 117.406452 -134.525465 
L 116.610312 -134.574437 
L 115.814172 -134.375444 
L 115.018032 -133.916758 
L 114.221892 -133.229923 
L 113.425753 -132.451495 
L 112.629613 -131.78444 
L 111.833473 -131.392448 
L 111.037333 -131.327324 
L 110.241193 -131.537622 
L 109.445053 -131.905076 
L 108.648913 -132.247198 
L 107.852773 -132.311523 
L 107.056633 -131.844626 
L 106.260493 -130.752431 
L 105.464353 -129.244988 
L 104.668213 -127.827727 
L 103.872074 -127.088471 
L 103.075934 -127.369782 
L 102.279794 -128.532341 
L 101.483654 -129.979935 
L 100.687514 -130.917292 
L 99.891374 -130.672019 
L 99.095234 -128.937899 
L 98.299094 -125.8734 
L 97.502954 -122.045573 
L 96.706814 -118.252195 
L 95.910674 -115.285949 
L 95.114535 -113.716199 
L 94.318395 -113.752385 
L 93.522255 -115.220911 
L 92.726115 -117.64868 
L 91.929975 -120.422657 
L 91.133835 -122.987366 
L 90.337695 -125.022791 
L 89.541555 -126.519021 
L 88.745415 -127.695026 
L 87.949275 -128.810607 
L 87.153135 -129.999334 
L 86.356996 -131.218421 
L 85.560856 -132.307665 
L 84.764716 -133.087155 
L 83.968576 -133.445216 
L 83.172436 -133.41286 
L 82.376296 -133.208129 
L 81.580156 -133.190853 
L 80.784016 -133.697691 
L 79.987876 -134.832511 
L 79.191736 -136.362928 
L 78.395596 -137.818897 
L 77.599457 -138.73728 
L 76.803317 -138.902064 
L 76.007177 -138.449792 
L 75.211037 -137.787066 
L 74.414897 -137.367396 
L 73.618757 -137.461269 
L 72.822617 -138.043052 
L 72.026477 -138.814096 
L 71.230337 -139.308014 
L 70.434197 -139.034115 
L 69.638057 -137.649374 
L 68.841918 -135.138667 
L 68.045778 -131.917488 
L 67.249638 -128.741912 
L 66.453498 -126.398926 
L 65.657358 -125.326163 
L 64.861218 -125.418654 
L 64.065078 -126.135315 
L 63.268938 -126.771238 
L 62.472798 -126.719085 
L 61.676658 -125.647995 
L 60.880518 -123.600616 
L 60.084378 -120.997887 
L 59.288239 -118.509944 
L 58.492099 -116.794799 
L 57.695959 -116.216857 
L 56.899819 -116.717566 
L 56.103679 -117.917223 
L 55.307539 -119.357809 
L 54.511399 -120.732392 
L 53.715259 -122.0024 
L 52.919119 -123.377007 
L 52.122979 -125.17345 
L 51.326839 -127.61439 
L 50.5307 -130.663678 
L 49.73456 -134.002828 
L 48.93842 -137.162092 
L 48.14228 -139.717145 
L 47.34614 -141.441411 
L 46.55 -142.361967 
z
" style="stroke: #e41a1c; stroke-opacity: 0.3"/>
    </defs>
    <g clip-path="url(#pbd4b9669ac)">
     <use xlink:href="#m353d997cf0" x="0" y="360" style="fill: #e41a1c; fill-opacity: 0.3; stroke: #e41a1c; stroke-opacity: 0.3"/>
    </g>
   </g>
   <g id="PolyCollection_2">
    <defs>
     <path id="mafea073d5f" d="M 46.55 -124.764255 
L 46.55 -107.750327 
L 47.34614 -107.203793 
L 48.14228 -106.834761 
L 48.93842 -106.749358 
L 49.73456 -107.012598 
L 50.5307 -107.635 
L 51.326839 -108.567158 
L 52.122979 -109.694065 
L 52.919119 -110.840344 
L 53.715259 -111.803948 
L 54.511399 -112.415738 
L 55.307539 -112.596033 
L 56.103679 -112.372601 
L 56.899819 -111.84908 
L 57.695959 -111.150689 
L 58.492099 -110.387816 
L 59.288239 -109.651303 
L 60.084378 -109.013634 
L 60.880518 -108.511324 
L 61.676658 -108.12677 
L 62.472798 -107.803428 
L 63.268938 -107.490928 
L 64.065078 -107.1761 
L 64.861218 -106.867408 
L 65.657358 -106.556744 
L 66.453498 -106.210226 
L 67.249638 -105.803423 
L 68.045778 -105.359714 
L 68.841918 -104.943016 
L 69.638057 -104.613514 
L 70.434197 -104.39664 
L 71.230337 -104.288486 
L 72.026477 -104.272088 
L 72.822617 -104.313027 
L 73.618757 -104.345549 
L 74.414897 -104.28529 
L 75.211037 -104.074397 
L 76.007177 -103.725168 
L 76.803317 -103.327362 
L 77.599457 -103.015946 
L 78.395596 -102.920831 
L 79.191736 -103.120932 
L 79.987876 -103.616205 
L 80.784016 -104.324467 
L 81.580156 -105.101581 
L 82.376296 -105.775383 
L 83.172436 -106.183624 
L 83.968576 -106.212368 
L 84.764716 -105.830342 
L 85.560856 -105.104251 
L 86.356996 -104.17862 
L 87.153135 -103.225996 
L 87.949275 -102.398175 
L 88.745415 -101.805292 
L 89.541555 -101.520351 
L 90.337695 -101.583364 
L 91.133835 -101.986832 
L 91.929975 -102.652099 
L 92.726115 -103.420427 
L 93.522255 -104.072238 
L 94.318395 -104.369969 
L 95.114535 -104.111784 
L 95.910674 -103.185588 
L 96.706814 -101.613627 
L 97.502954 -99.57265 
L 98.299094 -97.372799 
L 99.095234 -95.389469 
L 99.891374 -93.962943 
L 100.687514 -93.297643 
L 101.483654 -93.396442 
L 102.279794 -94.055309 
L 103.075934 -94.924148 
L 103.872074 -95.616807 
L 104.668213 -95.834207 
L 105.464353 -95.457448 
L 106.260493 -94.577339 
L 107.056633 -93.451206 
L 107.852773 -92.40677 
L 108.648913 -91.73221 
L 109.445053 -91.592066 
L 110.241193 -91.993532 
L 111.037333 -92.807581 
L 111.833473 -93.831544 
L 112.629613 -94.866205 
L 113.425753 -95.775382 
L 114.221892 -96.504383 
L 115.018032 -97.054972 
L 115.814172 -97.438664 
L 116.610312 -97.641243 
L 117.406452 -97.620184 
L 118.202592 -97.332919 
L 118.998732 -96.776141 
L 119.794872 -96.012806 
L 120.591012 -95.170603 
L 121.387152 -94.408293 
L 122.183292 -93.860403 
L 122.979431 -93.580902 
L 123.775571 -93.509153 
L 124.571711 -93.475966 
L 125.367851 -93.254867 
L 126.163991 -92.645692 
L 126.960131 -91.560174 
L 127.756271 -90.071189 
L 128.552411 -88.397283 
L 129.348551 -86.822865 
L 130.144691 -85.588021 
L 130.940831 -84.798233 
L 131.73697 -84.393069 
L 132.53311 -84.18395 
L 133.32925 -83.941974 
L 134.12539 -83.498803 
L 134.92153 -82.819193 
L 135.71767 -82.013691 
L 136.51381 -81.284429 
L 137.30995 -80.828135 
L 138.10609 -80.742163 
L 138.90223 -80.977897 
L 139.69837 -81.362421 
L 140.494509 -81.67767 
L 141.290649 -81.761197 
L 142.086789 -81.583879 
L 142.882929 -81.270112 
L 143.679069 -81.051245 
L 144.475209 -81.171289 
L 145.271349 -81.782534 
L 146.067489 -82.871722 
L 146.863629 -84.24703 
L 147.659769 -85.595894 
L 148.455909 -86.596786 
L 149.252049 -87.042124 
L 150.048188 -86.91934 
L 150.844328 -86.414192 
L 151.640468 -85.836856 
L 152.436608 -85.503384 
L 153.232748 -85.616683 
L 154.028888 -86.185662 
L 154.825028 -87.010111 
L 155.621168 -87.743255 
L 156.417308 -88.017698 
L 157.213448 -87.589142 
L 158.009588 -86.437259 
L 158.805727 -84.78081 
L 159.601867 -83.005321 
L 160.398007 -81.538457 
L 161.194147 -80.721799 
L 161.990287 -80.720878 
L 162.786427 -81.498362 
L 163.582567 -82.852722 
L 164.378707 -84.499729 
L 165.174847 -86.157041 
L 165.970987 -87.595946 
L 166.767127 -88.649535 
L 167.563266 -89.194892 
L 168.359406 -89.137948 
L 169.155546 -88.418998 
L 169.951686 -87.036872 
L 170.747826 -85.076181 
L 171.543966 -82.720336 
L 172.340106 -80.23678 
L 173.136246 -77.926627 
L 173.932386 -76.043589 
L 174.728526 -74.707105 
L 175.524666 -73.849879 
L 176.320805 -73.234169 
L 177.116945 -72.541002 
L 177.913085 -71.498902 
L 178.709225 -69.999388 
L 179.505365 -68.15551 
L 180.301505 -66.283651 
L 181.097645 -64.812794 
L 181.893785 -64.146226 
L 182.689925 -64.518251 
L 183.486065 -65.897611 
L 184.282205 -67.979386 
L 185.078344 -70.274135 
L 185.874484 -72.261072 
L 186.670624 -73.545673 
L 187.466764 -73.964824 
L 188.262904 -73.607341 
L 189.059044 -72.749679 
L 189.855184 -71.735907 
L 190.651324 -70.850408 
L 191.447464 -70.233766 
L 192.243604 -69.872111 
L 193.039744 -69.654407 
L 193.835884 -69.4594 
L 194.632023 -69.224324 
L 195.428163 -68.96529 
L 196.224303 -68.748827 
L 197.020443 -68.637175 
L 197.816583 -68.639171 
L 198.612723 -68.693943 
L 199.408863 -68.698295 
L 200.205003 -68.566598 
L 201.001143 -68.294004 
L 201.797283 -67.989516 
L 202.593423 -67.857603 
L 203.389562 -68.130208 
L 204.185702 -68.974295 
L 204.981842 -70.413032 
L 205.777982 -72.294684 
L 206.574122 -74.323246 
L 207.370262 -76.139676 
L 208.166402 -77.425514 
L 208.962542 -77.996241 
L 209.758682 -77.856221 
L 210.554822 -77.197301 
L 211.350962 -76.339215 
L 212.147101 -75.630406 
L 212.943241 -75.344509 
L 213.739381 -75.609319 
L 214.535521 -76.388377 
L 215.331661 -77.511805 
L 216.127801 -78.738163 
L 216.923941 -79.826327 
L 217.720081 -80.597605 
L 218.516221 -80.970108 
L 219.312361 -80.956444 
L 220.108501 -80.633622 
L 220.90464 -80.107256 
L 221.70078 -79.487605 
L 222.49692 -78.876711 
L 223.29306 -78.354397 
L 224.0892 -77.959705 
L 224.88534 -77.68033 
L 225.68148 -77.461887 
L 226.47762 -77.232303 
L 227.27376 -76.926152 
L 228.0699 -76.500042 
L 228.86604 -75.941165 
L 229.66218 -75.271698 
L 230.458319 -74.544603 
L 231.254459 -73.826527 
L 232.050599 -73.174337 
L 232.846739 -72.618765 
L 233.642879 -72.161256 
L 234.439019 -71.777758 
L 235.235159 -71.421616 
L 236.031299 -71.026957 
L 236.827439 -70.519443 
L 237.623579 -69.836035 
L 238.419719 -68.947277 
L 239.215858 -67.87353 
L 240.011998 -66.689589 
L 240.808138 -65.514576 
L 241.604278 -64.48548 
L 242.400418 -63.717877 
L 243.196558 -63.266677 
L 243.992698 -63.105339 
L 244.788838 -63.136071 
L 245.584978 -63.228713 
L 246.381118 -63.272626 
L 247.177258 -63.22158 
L 247.973397 -63.115732 
L 248.769537 -63.072955 
L 249.565677 -63.250919 
L 250.361817 -63.790445 
L 251.157957 -64.757751 
L 251.954097 -66.10597 
L 252.750237 -67.672409 
L 253.546377 -69.216386 
L 254.342517 -70.486696 
L 255.138657 -71.295517 
L 255.934797 -71.573541 
L 256.730936 -71.389396 
L 257.527076 -70.929699 
L 258.323216 -70.447665 
L 259.119356 -70.195821 
L 259.915496 -70.362817 
L 260.711636 -71.033878 
L 261.507776 -72.185802 
L 262.303916 -73.71292 
L 263.100056 -75.469015 
L 263.896196 -77.308221 
L 264.692336 -79.113818 
L 265.488475 -80.811217 
L 266.284615 -82.366353 
L 267.080755 -83.773871 
L 267.876895 -85.041836 
L 268.673035 -86.180128 
L 269.469175 -87.195922 
L 270.265315 -88.093854 
L 271.061455 -88.876474 
L 271.857595 -89.544004 
L 272.653735 -90.095899 
L 273.449875 -90.535053 
L 274.246015 -90.870108 
L 275.042154 -91.110476 
L 275.838294 -91.256298 
L 276.634434 -91.294172 
L 277.430574 -91.207324 
L 278.226714 -90.995569 
L 279.022854 -90.688881 
L 279.818994 -90.341757 
L 280.615134 -90.01148 
L 281.411274 -89.736116 
L 282.207414 -89.525919 
L 283.003554 -89.368876 
L 283.799693 -89.2402 
L 284.595833 -89.105733 
L 285.391973 -88.918853 
L 286.188113 -88.6195 
L 286.984253 -88.143866 
L 287.780393 -87.444822 
L 288.576533 -86.513784 
L 289.372673 -85.391626 
L 290.168813 -84.161952 
L 290.964953 -82.930236 
L 291.761093 -81.798948 
L 292.557232 -80.847314 
L 293.353372 -80.117541 
L 294.149512 -79.605436 
L 294.945652 -79.257295 
L 295.741792 -78.980292 
L 296.537932 -78.67007 
L 297.334072 -78.246844 
L 298.130212 -77.682551 
L 298.926352 -77.006006 
L 299.722492 -76.286778 
L 300.518632 -75.609142 
L 301.314771 -75.048327 
L 302.110911 -74.656145 
L 302.907051 -74.457783 
L 303.703191 -74.457609 
L 304.499331 -74.64895 
L 305.295471 -75.021836 
L 306.091611 -75.565363 
L 306.887751 -76.26499 
L 307.683891 -77.095881 
L 308.480031 -78.013302 
L 309.276171 -78.945266 
L 310.072311 -79.798064 
L 310.86845 -80.481253 
L 311.66459 -80.94336 
L 312.46073 -81.197334 
L 313.25687 -81.319961 
L 314.05301 -81.426942 
L 314.84915 -81.63661 
L 315.64529 -82.032087 
L 316.44143 -82.625834 
L 317.23757 -83.336234 
L 318.03371 -83.995979 
L 318.82985 -84.404372 
L 319.625989 -84.407013 
L 320.422129 -83.962769 
L 321.218269 -83.164447 
L 322.014409 -82.209174 
L 322.810549 -81.338517 
L 323.606689 -80.771085 
L 324.402829 -80.641941 
L 325.198969 -80.960632 
L 325.995109 -81.602951 
L 326.791249 -82.346449 
L 327.587389 -82.941154 
L 328.383528 -83.188774 
L 329.179668 -83.000357 
L 329.975808 -82.414371 
L 330.771948 -81.57437 
L 331.568088 -80.678652 
L 332.364228 -79.920837 
L 333.160368 -79.439865 
L 333.956508 -79.291656 
L 334.752648 -79.446718 
L 335.548788 -79.811841 
L 336.344928 -80.268856 
L 337.141067 -80.71755 
L 337.937207 -81.106123 
L 338.733347 -81.436109 
L 339.529487 -81.741133 
L 340.325627 -82.053024 
L 341.121767 -82.37348 
L 341.917907 -82.662661 
L 342.714047 -82.846302 
L 343.510187 -82.837645 
L 344.306327 -82.568877 
L 345.102467 -82.024146 
L 345.898606 -81.262547 
L 346.694746 -80.41975 
L 347.490886 -79.683468 
L 348.287026 -79.247618 
L 349.083166 -79.258005 
L 349.879306 -79.765967 
L 350.675446 -80.705234 
L 351.471586 -81.901162 
L 352.267726 -83.111437 
L 353.063866 -84.086843 
L 353.860006 -84.633579 
L 354.656146 -84.657963 
L 355.452285 -84.181148 
L 356.248425 -83.32321 
L 357.044565 -82.26663 
L 357.840705 -81.213355 
L 358.636845 -80.346241 
L 359.432985 -79.799244 
L 360.229125 -79.637278 
L 361.025265 -79.847594 
L 361.821405 -80.345076 
L 362.617545 -80.990425 
L 363.413685 -81.615868 
L 364.209824 -82.053353 
L 365.005964 -82.164351 
L 365.802104 -81.871241 
L 366.598244 -81.184188 
L 367.394384 -80.210209 
L 368.190524 -79.131752 
L 368.986664 -78.15403 
L 369.782804 -77.43689 
L 370.578944 -77.037144 
L 371.375084 -76.885 
L 372.171224 -76.805588 
L 372.967363 -76.579938 
L 373.763503 -76.02516 
L 374.559643 -75.065457 
L 375.355783 -73.766806 
L 376.151923 -72.319549 
L 376.948063 -70.972343 
L 377.744203 -69.941041 
L 378.540343 -69.328053 
L 379.336483 -69.085383 
L 380.132623 -69.037742 
L 380.928763 -68.957248 
L 381.724902 -68.6589 
L 382.521042 -68.07681 
L 383.317182 -67.289431 
L 384.113322 -66.483857 
L 384.909462 -65.874756 
L 385.705602 -65.611915 
L 386.501742 -65.714456 
L 387.297882 -66.058964 
L 388.094022 -66.427323 
L 388.890162 -66.595974 
L 389.686302 -66.431029 
L 390.482441 -65.950707 
L 391.278581 -65.32912 
L 392.074721 -64.838506 
L 392.870861 -64.751375 
L 393.667001 -65.239914 
L 394.463141 -66.310286 
L 395.259281 -67.794288 
L 396.055421 -69.398019 
L 396.851561 -70.787941 
L 397.647701 -71.68578 
L 398.443841 -71.945037 
L 399.239981 -71.589338 
L 400.03612 -70.802226 
L 400.83226 -69.868958 
L 401.6284 -69.085343 
L 402.42454 -68.663285 
L 403.22068 -68.667412 
L 404.01682 -69.004815 
L 404.81296 -69.466095 
L 405.6091 -69.796018 
L 406.40524 -69.768007 
L 407.20138 -69.245763 
L 407.99752 -68.223804 
L 408.793659 -66.839145 
L 409.589799 -65.345728 
L 410.385939 -64.052227 
L 411.182079 -63.240954 
L 411.978219 -63.096022 
L 412.774359 -63.661438 
L 413.570499 -64.830789 
L 413.570499 -116.209467 
L 413.570499 -116.209467 
L 412.774359 -114.74054 
L 411.978219 -113.99301 
L 411.182079 -114.075163 
L 410.385939 -114.891211 
L 409.589799 -116.190811 
L 408.793659 -117.648658 
L 407.99752 -118.946226 
L 407.20138 -119.840243 
L 406.40524 -120.211755 
L 405.6091 -120.088897 
L 404.81296 -119.634444 
L 404.01682 -119.096115 
L 403.22068 -118.732283 
L 402.42454 -118.736554 
L 401.6284 -119.183056 
L 400.83226 -120.004141 
L 400.03612 -121.002813 
L 399.239981 -121.897746 
L 398.443841 -122.395443 
L 397.647701 -122.276541 
L 396.851561 -121.471861 
L 396.055421 -120.098133 
L 395.259281 -118.432723 
L 394.463141 -116.830258 
L 393.667001 -115.609816 
L 392.870861 -114.955104 
L 392.074721 -114.864403 
L 391.278581 -115.166208 
L 390.482441 -115.591556 
L 389.686302 -115.8752 
L 388.890162 -115.850199 
L 388.094022 -115.503861 
L 387.297882 -114.975772 
L 386.501742 -114.498247 
L 385.705602 -114.301125 
L 384.909462 -114.518427 
L 384.113322 -115.13532 
L 383.317182 -115.997207 
L 382.521042 -116.8755 
L 381.724902 -117.560841 
L 380.928763 -117.945166 
L 380.132623 -118.061108 
L 379.336483 -118.065301 
L 378.540343 -118.173262 
L 377.744203 -118.571394 
L 376.948063 -119.340749 
L 376.151923 -120.423334 
L 375.355783 -121.644849 
L 374.559643 -122.784116 
L 373.763503 -123.660007 
L 372.967363 -124.200488 
L 372.171224 -124.467404 
L 371.375084 -124.628928 
L 370.578944 -124.891542 
L 369.782804 -125.418642 
L 368.986664 -126.267889 
L 368.190524 -127.370369 
L 367.394384 -128.555284 
L 366.598244 -129.605701 
L 365.802104 -130.323125 
L 365.005964 -130.581733 
L 364.209824 -130.360378 
L 363.413685 -129.746536 
L 362.617545 -128.911862 
L 361.821405 -128.067017 
L 361.025265 -127.41143 
L 360.229125 -127.094172 
L 359.432985 -127.192804 
L 358.636845 -127.705993 
L 357.840705 -128.553246 
L 357.044565 -129.581834 
L 356.248425 -130.587337 
L 355.452285 -131.351696 
L 354.656146 -131.69245 
L 353.860006 -131.508224 
L 353.063866 -130.805623 
L 352.267726 -129.699981 
L 351.471586 -128.390504 
L 350.675446 -127.115711 
L 349.879306 -126.098728 
L 349.083166 -125.495281 
L 348.287026 -125.358997 
L 347.490886 -125.635469 
L 346.694746 -126.186783 
L 345.898606 -126.836331 
L 345.102467 -127.417301 
L 344.306327 -127.810436 
L 343.510187 -127.963423 
L 342.714047 -127.890007 
L 341.917907 -127.650548 
L 341.121767 -127.320262 
L 340.325627 -126.957257 
L 339.529487 -126.584254 
L 338.733347 -126.190943 
L 337.937207 -125.752025 
L 337.141067 -125.249168 
L 336.344928 -124.688206 
L 335.548788 -124.109525 
L 334.752648 -123.590755 
L 333.956508 -123.236394 
L 333.160368 -123.148914 
L 332.364228 -123.386482 
L 331.568088 -123.925493 
L 330.771948 -124.648567 
L 329.975808 -125.367695 
L 329.179668 -125.876364 
L 328.383528 -126.013391 
L 327.587389 -125.717695 
L 326.791249 -125.055874 
L 325.995109 -124.211777 
L 325.198969 -123.438247 
L 324.402829 -122.983052 
L 323.606689 -123.009998 
L 322.810549 -123.541165 
L 322.014409 -124.444666 
L 321.218269 -125.478565 
L 320.422129 -126.375945 
L 319.625989 -126.933744 
L 318.82985 -127.068105 
L 318.03371 -126.821902 
L 317.23757 -126.334584 
L 316.44143 -125.791232 
L 315.64529 -125.362075 
L 314.84915 -125.143952 
L 314.05301 -125.123925 
L 313.25687 -125.185673 
L 312.46073 -125.159649 
L 311.66459 -124.891398 
L 310.86845 -124.294329 
L 310.072311 -123.369222 
L 309.276171 -122.193786 
L 308.480031 -120.894361 
L 307.683891 -119.609958 
L 306.887751 -118.457416 
L 306.091611 -117.508708 
L 305.295471 -116.78939 
L 304.499331 -116.296062 
L 303.703191 -116.01894 
L 302.907051 -115.954875 
L 302.110911 -116.105484 
L 301.314771 -116.464513 
L 300.518632 -117.002824 
L 299.722492 -117.660438 
L 298.926352 -118.353201 
L 298.130212 -118.994623 
L 297.334072 -119.523219 
L 296.537932 -119.921423 
L 295.741792 -120.218996 
L 294.945652 -120.484022 
L 294.149512 -120.807045 
L 293.353372 -121.279178 
L 292.557232 -121.964244 
L 291.761093 -122.872742 
L 290.964953 -123.952257 
L 290.168813 -125.103326 
L 289.372673 -126.213709 
L 288.576533 -127.192066 
L 287.780393 -127.985281 
L 286.984253 -128.577841 
L 286.188113 -128.983088 
L 285.391973 -129.235607 
L 284.595833 -129.385591 
L 283.799693 -129.490149 
L 283.003554 -129.599113 
L 282.207414 -129.740272 
L 281.411274 -129.913102 
L 280.615134 -130.096096 
L 279.818994 -130.263495 
L 279.022854 -130.400146 
L 278.226714 -130.504665 
L 277.430574 -130.580202 
L 276.634434 -130.622377 
L 275.838294 -130.616013 
L 275.042154 -130.54269 
L 274.246015 -130.389649 
L 273.449875 -130.149836 
L 272.653735 -129.81277 
L 271.857595 -129.355813 
L 271.061455 -128.745843 
L 270.265315 -127.952187 
L 269.469175 -126.961517 
L 268.673035 -125.783633 
L 267.876895 -124.444576 
L 267.080755 -122.972871 
L 266.284615 -121.388421 
L 265.488475 -119.70075 
L 264.692336 -117.917853 
L 263.896196 -116.062516 
L 263.100056 -114.189689 
L 262.303916 -112.395858 
L 261.507776 -110.811931 
L 260.711636 -109.576979 
L 259.915496 -108.798692 
L 259.119356 -108.5128 
L 258.323216 -108.655659 
L 257.527076 -109.062047 
L 256.730936 -109.494308 
L 255.934797 -109.69888 
L 255.138657 -109.474662 
L 254.342517 -108.730614 
L 253.546377 -107.512058 
L 252.750237 -105.985897 
L 251.954097 -104.389137 
L 251.157957 -102.95739 
L 250.361817 -101.856846 
L 249.565677 -101.142634 
L 248.769537 -100.757481 
L 247.973397 -100.56925 
L 247.177258 -100.431269 
L 246.381118 -100.242063 
L 245.584978 -99.982958 
L 244.788838 -99.721381 
L 243.992698 -99.581053 
L 243.196558 -99.69287 
L 242.400418 -100.146317 
L 241.604278 -100.957915 
L 240.808138 -102.063774 
L 240.011998 -103.33479 
L 239.215858 -104.608893 
L 238.419719 -105.732306 
L 237.623579 -106.598371 
L 236.827439 -107.171443 
L 236.031299 -107.488888 
L 235.235159 -107.643419 
L 234.439019 -107.753764 
L 233.642879 -107.93186 
L 232.846739 -108.253945 
L 232.050599 -108.743704 
L 231.254459 -109.373445 
L 230.458319 -110.080858 
L 229.66218 -110.790908 
L 228.86604 -111.433648 
L 228.0699 -111.957013 
L 227.27376 -112.337659 
L 226.47762 -112.588403 
L 225.68148 -112.756121 
L 224.88534 -112.908428 
L 224.0892 -113.116144 
L 223.29306 -113.438609 
L 222.49692 -113.909732 
L 221.70078 -114.519038 
L 220.90464 -115.192806 
L 220.108501 -115.793183 
L 219.312361 -116.148191 
L 218.516221 -116.104243 
L 217.720081 -115.577902 
L 216.923941 -114.588435 
L 216.127801 -113.265817 
L 215.331661 -111.834317 
L 214.535521 -110.570017 
L 213.739381 -109.733724 
L 212.943241 -109.493566 
L 212.147101 -109.86349 
L 211.350962 -110.68176 
L 210.554822 -111.639355 
L 209.758682 -112.353807 
L 208.962542 -112.473448 
L 208.166402 -111.785574 
L 207.370262 -110.291641 
L 206.574122 -108.215637 
L 205.777982 -105.935302 
L 204.981842 -103.859991 
L 204.185702 -102.30327 
L 203.389562 -101.3984 
L 202.593423 -101.083393 
L 201.797283 -101.153756 
L 201.001143 -101.357345 
L 200.205003 -101.492491 
L 199.408863 -101.471108 
L 198.612723 -101.324361 
L 197.816583 -101.155075 
L 197.020443 -101.065871 
L 196.224303 -101.101735 
L 195.428163 -101.23523 
L 194.632023 -101.398504 
L 193.835884 -101.541085 
L 193.039744 -101.678522 
L 192.243604 -101.901427 
L 191.447464 -102.335178 
L 190.651324 -103.065832 
L 189.855184 -104.065124 
L 189.059044 -105.150844 
L 188.262904 -106.008477 
L 187.466764 -106.278359 
L 186.670624 -105.684319 
L 185.874484 -104.15586 
L 185.078344 -101.890621 
L 184.282205 -99.324342 
L 183.486065 -97.013117 
L 182.689925 -95.467981 
L 181.893785 -94.999364 
L 181.097645 -95.625824 
L 180.301505 -97.081235 
L 179.505365 -98.920987 
L 178.709225 -100.688346 
L 177.913085 -102.074488 
L 177.116945 -103.007772 
L 176.320805 -103.641973 
L 175.524666 -104.261264 
L 174.728526 -105.15287 
L 173.932386 -106.499981 
L 173.136246 -108.326556 
L 172.340106 -110.501497 
L 171.543966 -112.791015 
L 170.747826 -114.934396 
L 169.951686 -116.711676 
L 169.155546 -117.977605 
L 168.359406 -118.656825 
L 167.563266 -118.719552 
L 166.767127 -118.166639 
L 165.970987 -117.039707 
L 165.174847 -115.448587 
L 164.378707 -113.593109 
L 163.582567 -111.756977 
L 162.786427 -110.26461 
L 161.990287 -109.408613 
L 161.194147 -109.367736 
L 160.398007 -110.141615 
L 159.601867 -111.529961 
L 158.805727 -113.174633 
L 158.009588 -114.65912 
L 157.213448 -115.632623 
L 156.417308 -115.913789 
L 155.621168 -115.539357 
L 154.825028 -114.744534 
L 154.028888 -113.880576 
L 153.232748 -113.290306 
L 152.436608 -113.180064 
L 151.640468 -113.53888 
L 150.844328 -114.144403 
L 150.048188 -114.656382 
L 149.252049 -114.755295 
L 148.455909 -114.265694 
L 147.659769 -113.217893 
L 146.863629 -111.83139 
L 146.067489 -110.430962 
L 145.271349 -109.326227 
L 144.475209 -108.698512 
L 143.679069 -108.540354 
L 142.882929 -108.674042 
L 142.086789 -108.839622 
L 141.290649 -108.810559 
L 140.494509 -108.486302 
L 139.69837 -107.926018 
L 138.90223 -107.314753 
L 138.10609 -106.880042 
L 137.30995 -106.795138 
L 136.51381 -107.109259 
L 135.71767 -107.733296 
L 134.92153 -108.484982 
L 134.12539 -109.171933 
L 133.32925 -109.676485 
L 132.53311 -110.007107 
L 131.73697 -110.294551 
L 130.940831 -110.732863 
L 130.144691 -111.489666 
L 129.348551 -112.625174 
L 128.552411 -114.055488 
L 127.756271 -115.575095 
L 126.960131 -116.928572 
L 126.163991 -117.90368 
L 125.367851 -118.411048 
L 124.571711 -118.519153 
L 123.775571 -118.427968 
L 122.979431 -118.389004 
L 122.183292 -118.603685 
L 121.387152 -119.143948 
L 120.591012 -119.9305 
L 119.794872 -120.776941 
L 118.998732 -121.475486 
L 118.202592 -121.880747 
L 117.406452 -121.952166 
L 116.610312 -121.740103 
L 115.814172 -121.33191 
L 115.018032 -120.794169 
L 114.221892 -120.143406 
L 113.425753 -119.356119 
L 112.629613 -118.407877 
L 111.833473 -117.320938 
L 111.037333 -116.197549 
L 110.241193 -115.218243 
L 109.445053 -114.594538 
L 108.648913 -114.486784 
L 107.852773 -114.921766 
L 107.056633 -115.753067 
L 106.260493 -116.69062 
L 105.464353 -117.392811 
L 104.668213 -117.585672 
L 103.872074 -117.164011 
L 103.075934 -116.238117 
L 102.279794 -115.108933 
L 101.483654 -114.177786 
L 100.687514 -113.819304 
L 99.891374 -114.261212 
L 99.095234 -115.513976 
L 98.299094 -117.373431 
L 97.502954 -119.489677 
L 96.706814 -121.472037 
L 95.910674 -122.993213 
L 95.114535 -123.863074 
L 94.318395 -124.05537 
L 93.522255 -123.684914 
L 92.726115 -122.949189 
L 91.929975 -122.062595 
L 91.133835 -121.211602 
L 90.337695 -120.539578 
L 89.541555 -120.146406 
L 88.745415 -120.082633 
L 87.949275 -120.335185 
L 87.153135 -120.821971 
L 86.356996 -121.410273 
L 85.560856 -121.950905 
L 84.764716 -122.307376 
L 83.968576 -122.372453 
L 83.172436 -122.083947 
L 82.376296 -121.448798 
L 81.580156 -120.560715 
L 80.784016 -119.585929 
L 79.987876 -118.712089 
L 79.191736 -118.084117 
L 78.395596 -117.759613 
L 77.599457 -117.70177 
L 76.803317 -117.806947 
L 76.007177 -117.950891 
L 75.211037 -118.032751 
L 74.414897 -117.99984 
L 73.618757 -117.851303 
L 72.822617 -117.632837 
L 72.026477 -117.428158 
L 71.230337 -117.336042 
L 70.434197 -117.427137 
L 69.638057 -117.705974 
L 68.841918 -118.116978 
L 68.045778 -118.593097 
L 67.249638 -119.097486 
L 66.453498 -119.618605 
L 65.657358 -120.13578 
L 64.861218 -120.607955 
L 64.065078 -121.002875 
L 63.268938 -121.327133 
L 62.472798 -121.62027 
L 61.676658 -121.924719 
L 60.880518 -122.272239 
L 60.084378 -122.699465 
L 59.288239 -123.257662 
L 58.492099 -123.983028 
L 57.695959 -124.843653 
L 56.899819 -125.716994 
L 56.103679 -126.426943 
L 55.307539 -126.810993 
L 54.511399 -126.771683 
L 53.715259 -126.297277 
L 52.919119 -125.463816 
L 52.122979 -124.428506 
L 51.326839 -123.407498 
L 50.5307 -122.628282 
L 49.73456 -122.264546 
L 48.93842 -122.382315 
L 48.14228 -122.929282 
L 47.34614 -123.773584 
L 46.55 -124.764255 
z
" style="stroke: #377eb8; stroke-opacity: 0.3"/>
    </defs>
    <g clip-path="url(#pbd4b9669ac)">
     <use xlink:href="#mafea073d5f" x="0" y="360" style="fill: #377eb8; fill-opacity: 0.3; stroke: #377eb8; stroke-opacity: 0.3"/>
    </g>
   </g>
   <g id="patch_3">
    <path d="M 229.821407 318.04 
L 229.821407 71.732 
L 331.727316 71.732 
L 331.727316 318.04 
z
" clip-path="url(#pbd4b9669ac)" style="fill: #808080; opacity: 0.3"/>
   </g>
   <g id="matplotlib.axis_1">
    <g id="xtick_1">
     <g id="line2d_1">
      <defs>
       <path id="m8e541228ef" d="M 0 0 
L 0 3.5 
" style="stroke: #000000; stroke-width: 0.8"/>
      </defs>
      <g>
       <use xlink:href="#m8e541228ef" x="87.153135" y="318.04" style="stroke: #000000; stroke-width: 0.8"/>
      </g>
     </g>
     <g id="text_1">
      <!-- 0.0 -->
      <g transform="translate(79.201573 332.638438)scale(0.1 -0.1)">
       <defs>
        <path id="DejaVuSans-30" d="M 2034 4250 
Q 1547 4250 1301 3770 
Q 1056 3291 1056 2328 
Q 1056 1369 1301 889 
Q 1547 409 2034 409 
Q 2525 409 2770 889 
Q 3016 1369 3016 2328 
Q 3016 3291 2770 3770 
Q 2525 4250 2034 4250 
z
M 2034 4750 
Q 2819 4750 3233 4129 
Q 3647 3509 3647 2328 
Q 3647 1150 3233 529 
Q 2819 -91 2034 -91 
Q 1250 -91 836 529 
Q 422 1150 422 2328 
Q 422 3509 836 4129 
Q 1250 4750 2034 4750 
z
" transform="scale(0.015625)"/>
        <path id="DejaVuSans-2e" d="M 684 794 
L 1344 794 
L 1344 0 
L 684 0 
L 684 794 
z
" transform="scale(0.015625)"/>
       </defs>
       <use xlink:href="#DejaVuSans-30"/>
       <use xlink:href="#DejaVuSans-2e" x="63.623047"/>
       <use xlink:href="#DejaVuSans-30" x="95.410156"/>
      </g>
     </g>
    </g>
    <g id="xtick_2">
     <g id="line2d_2">
      <g>
       <use xlink:href="#m8e541228ef" x="168.677862" y="318.04" style="stroke: #000000; stroke-width: 0.8"/>
      </g>
     </g>
     <g id="text_2">
      <!-- 0.2 -->
      <g transform="translate(160.7263 332.638438)scale(0.1 -0.1)">
       <defs>
        <path id="DejaVuSans-32" d="M 1228 531 
L 3431 531 
L 3431 0 
L 469 0 
L 469 531 
Q 828 903 1448 1529 
Q 2069 2156 2228 2338 
Q 2531 2678 2651 2914 
Q 2772 3150 2772 3378 
Q 2772 3750 2511 3984 
Q 2250 4219 1831 4219 
Q 1534 4219 1204 4116 
Q 875 4013 500 3803 
L 500 4441 
Q 881 4594 1212 4672 
Q 1544 4750 1819 4750 
Q 2544 4750 2975 4387 
Q 3406 4025 3406 3419 
Q 3406 3131 3298 2873 
Q 3191 2616 2906 2266 
Q 2828 2175 2409 1742 
Q 1991 1309 1228 531 
z
" transform="scale(0.015625)"/>
       </defs>
       <use xlink:href="#DejaVuSans-30"/>
       <use xlink:href="#DejaVuSans-2e" x="63.623047"/>
       <use xlink:href="#DejaVuSans-32" x="95.410156"/>
      </g>
     </g>
    </g>
    <g id="xtick_3">
     <g id="line2d_3">
      <g>
       <use xlink:href="#m8e541228ef" x="250.202589" y="318.04" style="stroke: #000000; stroke-width: 0.8"/>
      </g>
     </g>
     <g id="text_3">
      <!-- 0.4 -->
      <g transform="translate(242.251027 332.638438)scale(0.1 -0.1)">
       <defs>
        <path id="DejaVuSans-34" d="M 2419 4116 
L 825 1625 
L 2419 1625 
L 2419 4116 
z
M 2253 4666 
L 3047 4666 
L 3047 1625 
L 3713 1625 
L 3713 1100 
L 3047 1100 
L 3047 0 
L 2419 0 
L 2419 1100 
L 313 1100 
L 313 1709 
L 2253 4666 
z
" transform="scale(0.015625)"/>
       </defs>
       <use xlink:href="#DejaVuSans-30"/>
       <use xlink:href="#DejaVuSans-2e" x="63.623047"/>
       <use xlink:href="#DejaVuSans-34" x="95.410156"/>
      </g>
     </g>
    </g>
    <g id="xtick_4">
     <g id="line2d_4">
      <g>
       <use xlink:href="#m8e541228ef" x="331.727316" y="318.04" style="stroke: #000000; stroke-width: 0.8"/>
      </g>
     </g>
     <g id="text_4">
      <!-- 0.6 -->
      <g transform="translate(323.775754 332.638438)scale(0.1 -0.1)">
       <defs>
        <path id="DejaVuSans-36" d="M 2113 2584 
Q 1688 2584 1439 2293 
Q 1191 2003 1191 1497 
Q 1191 994 1439 701 
Q 1688 409 2113 409 
Q 2538 409 2786 701 
Q 3034 994 3034 1497 
Q 3034 2003 2786 2293 
Q 2538 2584 2113 2584 
z
M 3366 4563 
L 3366 3988 
Q 3128 4100 2886 4159 
Q 2644 4219 2406 4219 
Q 1781 4219 1451 3797 
Q 1122 3375 1075 2522 
Q 1259 2794 1537 2939 
Q 1816 3084 2150 3084 
Q 2853 3084 3261 2657 
Q 3669 2231 3669 1497 
Q 3669 778 3244 343 
Q 2819 -91 2113 -91 
Q 1303 -91 875 529 
Q 447 1150 447 2328 
Q 447 3434 972 4092 
Q 1497 4750 2381 4750 
Q 2619 4750 2861 4703 
Q 3103 4656 3366 4563 
z
" transform="scale(0.015625)"/>
       </defs>
       <use xlink:href="#DejaVuSans-30"/>
       <use xlink:href="#DejaVuSans-2e" x="63.623047"/>
       <use xlink:href="#DejaVuSans-36" x="95.410156"/>
      </g>
     </g>
    </g>
    <g id="xtick_5">
     <g id="line2d_5">
      <g>
       <use xlink:href="#m8e541228ef" x="413.252043" y="318.04" style="stroke: #000000; stroke-width: 0.8"/>
      </g>
     </g>
     <g id="text_5">
      <!-- 0.8 -->
      <g transform="translate(405.30048 332.638438)scale(0.1 -0.1)">
       <defs>
        <path id="DejaVuSans-38" d="M 2034 2216 
Q 1584 2216 1326 1975 
Q 1069 1734 1069 1313 
Q 1069 891 1326 650 
Q 1584 409 2034 409 
Q 2484 409 2743 651 
Q 3003 894 3003 1313 
Q 3003 1734 2745 1975 
Q 2488 2216 2034 2216 
z
M 1403 2484 
Q 997 2584 770 2862 
Q 544 3141 544 3541 
Q 544 4100 942 4425 
Q 1341 4750 2034 4750 
Q 2731 4750 3128 4425 
Q 3525 4100 3525 3541 
Q 3525 3141 3298 2862 
Q 3072 2584 2669 2484 
Q 3125 2378 3379 2068 
Q 3634 1759 3634 1313 
Q 3634 634 3220 271 
Q 2806 -91 2034 -91 
Q 1263 -91 848 271 
Q 434 634 434 1313 
Q 434 1759 690 2068 
Q 947 2378 1403 2484 
z
M 1172 3481 
Q 1172 3119 1398 2916 
Q 1625 2713 2034 2713 
Q 2441 2713 2670 2916 
Q 2900 3119 2900 3481 
Q 2900 3844 2670 4047 
Q 2441 4250 2034 4250 
Q 1625 4250 1398 4047 
Q 1172 3844 1172 3481 
z
" transform="scale(0.015625)"/>
       </defs>
       <use xlink:href="#DejaVuSans-30"/>
       <use xlink:href="#DejaVuSans-2e" x="63.623047"/>
       <use xlink:href="#DejaVuSans-38" x="95.410156"/>
      </g>
     </g>
    </g>
    <g id="text_6">
     <!-- seconds -->
     <g transform="translate(209.622749 346.316563)scale(0.1 -0.1)">
      <defs>
       <path id="DejaVuSans-73" d="M 2834 3397 
L 2834 2853 
Q 2591 2978 2328 3040 
Q 2066 3103 1784 3103 
Q 1356 3103 1142 2972 
Q 928 2841 928 2578 
Q 928 2378 1081 2264 
Q 1234 2150 1697 2047 
L 1894 2003 
Q 2506 1872 2764 1633 
Q 3022 1394 3022 966 
Q 3022 478 2636 193 
Q 2250 -91 1575 -91 
Q 1294 -91 989 -36 
Q 684 19 347 128 
L 347 722 
Q 666 556 975 473 
Q 1284 391 1588 391 
Q 1994 391 2212 530 
Q 2431 669 2431 922 
Q 2431 1156 2273 1281 
Q 2116 1406 1581 1522 
L 1381 1569 
Q 847 1681 609 1914 
Q 372 2147 372 2553 
Q 372 3047 722 3315 
Q 1072 3584 1716 3584 
Q 2034 3584 2315 3537 
Q 2597 3491 2834 3397 
z
" transform="scale(0.015625)"/>
       <path id="DejaVuSans-65" d="M 3597 1894 
L 3597 1613 
L 953 1613 
Q 991 1019 1311 708 
Q 1631 397 2203 397 
Q 2534 397 2845 478 
Q 3156 559 3463 722 
L 3463 178 
Q 3153 47 2828 -22 
Q 2503 -91 2169 -91 
Q 1331 -91 842 396 
Q 353 884 353 1716 
Q 353 2575 817 3079 
Q 1281 3584 2069 3584 
Q 2775 3584 3186 3129 
Q 3597 2675 3597 1894 
z
M 3022 2063 
Q 3016 2534 2758 2815 
Q 2500 3097 2075 3097 
Q 1594 3097 1305 2825 
Q 1016 2553 972 2059 
L 3022 2063 
z
" transform="scale(0.015625)"/>
       <path id="DejaVuSans-63" d="M 3122 3366 
L 3122 2828 
Q 2878 2963 2633 3030 
Q 2388 3097 2138 3097 
Q 1578 3097 1268 2742 
Q 959 2388 959 1747 
Q 959 1106 1268 751 
Q 1578 397 2138 397 
Q 2388 397 2633 464 
Q 2878 531 3122 666 
L 3122 134 
Q 2881 22 2623 -34 
Q 2366 -91 2075 -91 
Q 1284 -91 818 406 
Q 353 903 353 1747 
Q 353 2603 823 3093 
Q 1294 3584 2113 3584 
Q 2378 3584 2631 3529 
Q 2884 3475 3122 3366 
z
" transform="scale(0.015625)"/>
       <path id="DejaVuSans-6f" d="M 1959 3097 
Q 1497 3097 1228 2736 
Q 959 2375 959 1747 
Q 959 1119 1226 758 
Q 1494 397 1959 397 
Q 2419 397 2687 759 
Q 2956 1122 2956 1747 
Q 2956 2369 2687 2733 
Q 2419 3097 1959 3097 
z
M 1959 3584 
Q 2709 3584 3137 3096 
Q 3566 2609 3566 1747 
Q 3566 888 3137 398 
Q 2709 -91 1959 -91 
Q 1206 -91 779 398 
Q 353 888 353 1747 
Q 353 2609 779 3096 
Q 1206 3584 1959 3584 
z
" transform="scale(0.015625)"/>
       <path id="DejaVuSans-6e" d="M 3513 2113 
L 3513 0 
L 2938 0 
L 2938 2094 
Q 2938 2591 2744 2837 
Q 2550 3084 2163 3084 
Q 1697 3084 1428 2787 
Q 1159 2491 1159 1978 
L 1159 0 
L 581 0 
L 581 3500 
L 1159 3500 
L 1159 2956 
Q 1366 3272 1645 3428 
Q 1925 3584 2291 3584 
Q 2894 3584 3203 3211 
Q 3513 2838 3513 2113 
z
" transform="scale(0.015625)"/>
       <path id="DejaVuSans-64" d="M 2906 2969 
L 2906 4863 
L 3481 4863 
L 3481 0 
L 2906 0 
L 2906 525 
Q 2725 213 2448 61 
Q 2172 -91 1784 -91 
Q 1150 -91 751 415 
Q 353 922 353 1747 
Q 353 2572 751 3078 
Q 1150 3584 1784 3584 
Q 2172 3584 2448 3432 
Q 2725 3281 2906 2969 
z
M 947 1747 
Q 947 1113 1208 752 
Q 1469 391 1925 391 
Q 2381 391 2643 752 
Q 2906 1113 2906 1747 
Q 2906 2381 2643 2742 
Q 2381 3103 1925 3103 
Q 1469 3103 1208 2742 
Q 947 2381 947 1747 
z
" transform="scale(0.015625)"/>
      </defs>
      <use xlink:href="#DejaVuSans-73"/>
      <use xlink:href="#DejaVuSans-65" x="52.099609"/>
      <use xlink:href="#DejaVuSans-63" x="113.623047"/>
      <use xlink:href="#DejaVuSans-6f" x="168.603516"/>
      <use xlink:href="#DejaVuSans-6e" x="229.785156"/>
      <use xlink:href="#DejaVuSans-64" x="293.164062"/>
      <use xlink:href="#DejaVuSans-73" x="356.640625"/>
     </g>
    </g>
   </g>
   <g id="matplotlib.axis_2">
    <g id="ytick_1">
     <g id="line2d_6">
      <defs>
       <path id="m7b7d0c6777" d="M 0 0 
L -3.5 0 
" style="stroke: #000000; stroke-width: 0.8"/>
      </defs>
      <g>
       <use xlink:href="#m7b7d0c6777" x="46.55" y="297.330102" style="stroke: #000000; stroke-width: 0.8"/>
      </g>
     </g>
     <g id="text_7">
      <!-- 2 -->
      <g transform="translate(24.807813 301.12932)scale(0.1 -0.1)">
       <defs>
        <path id="DejaVuSans-2212" d="M 678 2272 
L 4684 2272 
L 4684 1741 
L 678 1741 
L 678 2272 
z
" transform="scale(0.015625)"/>
       </defs>
       <use xlink:href="#DejaVuSans-2212"/>
       <use xlink:href="#DejaVuSans-32" x="83.789062"/>
      </g>
     </g>
    </g>
    <g id="ytick_2">
     <g id="line2d_7">
      <g>
       <use xlink:href="#m7b7d0c6777" x="46.55" y="246.02146" style="stroke: #000000; stroke-width: 0.8"/>
      </g>
     </g>
     <g id="text_8">
      <!-- 0 -->
      <g transform="translate(33.1875 249.820679)scale(0.1 -0.1)">
       <use xlink:href="#DejaVuSans-30"/>
      </g>
     </g>
    </g>
    <g id="ytick_3">
     <g id="line2d_8">
      <g>
       <use xlink:href="#m7b7d0c6777" x="46.55" y="194.712819" style="stroke: #000000; stroke-width: 0.8"/>
      </g>
     </g>
     <g id="text_9">
      <!-- 2 -->
      <g transform="translate(33.1875 198.512037)scale(0.1 -0.1)">
       <use xlink:href="#DejaVuSans-32"/>
      </g>
     </g>
    </g>
    <g id="ytick_4">
     <g id="line2d_9">
      <g>
       <use xlink:href="#m7b7d0c6777" x="46.55" y="143.404177" style="stroke: #000000; stroke-width: 0.8"/>
      </g>
     </g>
     <g id="text_10">
      <!-- 4 -->
      <g transform="translate(33.1875 147.203396)scale(0.1 -0.1)">
       <use xlink:href="#DejaVuSans-34"/>
      </g>
     </g>
    </g>
    <g id="ytick_5">
     <g id="line2d_10">
      <g>
       <use xlink:href="#m7b7d0c6777" x="46.55" y="92.095535" style="stroke: #000000; stroke-width: 0.8"/>
      </g>
     </g>
     <g id="text_11">
      <!-- 6 -->
      <g transform="translate(33.1875 95.894754)scale(0.1 -0.1)">
       <use xlink:href="#DejaVuSans-36"/>
      </g>
     </g>
    </g>
    <g id="text_12">
     <!-- V -->
     <g transform="translate(18.728125 201.487562)rotate(-90)scale(0.1 -0.1)">
      <defs>
       <path id="DejaVuSans-b5" d="M 544 -1331 
L 544 3500 
L 1119 3500 
L 1119 1325 
Q 1119 872 1334 640 
Q 1550 409 1972 409 
Q 2434 409 2667 671 
Q 2900 934 2900 1459 
L 2900 3500 
L 3475 3500 
L 3475 806 
Q 3475 619 3529 530 
Q 3584 441 3700 441 
Q 3728 441 3778 458 
Q 3828 475 3916 513 
L 3916 50 
Q 3788 -22 3673 -56 
Q 3559 -91 3450 -91 
Q 3234 -91 3106 31 
Q 2978 153 2931 403 
Q 2775 156 2548 32 
Q 2322 -91 2016 -91 
Q 1697 -91 1473 31 
Q 1250 153 1119 397 
L 1119 -1331 
L 544 -1331 
z
" transform="scale(0.015625)"/>
       <path id="DejaVuSans-56" d="M 1831 0 
L 50 4666 
L 709 4666 
L 2188 738 
L 3669 4666 
L 4325 4666 
L 2547 0 
L 1831 0 
z
" transform="scale(0.015625)"/>
      </defs>
      <use xlink:href="#DejaVuSans-b5"/>
      <use xlink:href="#DejaVuSans-56" x="63.623047"/>
     </g>
    </g>
   </g>
   <g id="line2d_11">
    <path d="M 46.55 237.796465 
L 47.34614 238.425634 
L 48.14228 239.675829 
L 48.93842 241.597001 
L 51.326839 248.869018 
L 52.122979 250.799948 
L 53.715259 253.681586 
L 56.899819 258.945043 
L 57.695959 259.274037 
L 58.492099 258.587509 
L 59.288239 256.885099 
L 61.676658 249.988853 
L 62.472798 248.888106 
L 63.268938 248.735159 
L 64.861218 249.611992 
L 65.657358 249.406921 
L 66.453498 248.174157 
L 67.249638 245.918746 
L 68.841918 240.187734 
L 69.638057 237.98852 
L 70.434197 236.834644 
L 71.230337 236.743388 
L 72.026477 237.387331 
L 72.822617 238.258264 
L 73.618757 238.891672 
L 74.414897 239.054422 
L 76.007177 238.495494 
L 76.803317 238.469388 
L 77.599457 239.005635 
L 78.395596 240.125604 
L 79.987876 243.052747 
L 80.784016 244.141109 
L 81.580156 244.69858 
L 82.376296 244.805704 
L 83.172436 244.741518 
L 83.968576 244.84916 
L 84.764716 245.380651 
L 85.560856 246.394395 
L 89.541555 253.260637 
L 90.337695 254.983054 
L 91.133835 257.29809 
L 93.522255 266.379977 
L 94.318395 268.356679 
L 95.114535 268.810876 
L 95.910674 267.536531 
L 96.706814 264.785334 
L 98.299094 257.678435 
L 99.095234 254.972789 
L 99.891374 253.574332 
L 100.687514 253.522819 
L 101.483654 254.449182 
L 102.279794 255.741917 
L 103.075934 256.781182 
L 103.872074 257.150195 
L 104.668213 256.748211 
L 105.464353 255.773868 
L 107.056633 253.612385 
L 107.852773 253.051956 
L 108.648913 252.964572 
L 109.445053 253.217357 
L 111.037333 253.868397 
L 111.833473 253.94167 
L 112.629613 253.801213 
L 116.610312 252.403483 
L 117.406452 252.306552 
L 118.202592 252.42325 
L 118.998732 252.914205 
L 119.794872 253.952637 
L 120.591012 255.659866 
L 121.387152 258.045373 
L 122.979431 264.201533 
L 124.571711 270.251573 
L 125.367851 272.547976 
L 126.163991 274.188853 
L 126.960131 275.206998 
L 127.756271 275.734061 
L 129.348551 276.061862 
L 130.144691 276.216178 
L 130.940831 276.522424 
L 131.73697 277.012129 
L 134.12539 278.75228 
L 134.92153 278.862612 
L 135.71767 278.437602 
L 136.51381 277.390186 
L 137.30995 275.756186 
L 140.494509 267.700722 
L 141.290649 266.509419 
L 142.086789 265.826335 
L 142.882929 265.522299 
L 144.475209 265.210497 
L 145.271349 264.793229 
L 146.067489 264.014635 
L 146.863629 262.816308 
L 147.659769 261.198457 
L 149.252049 256.981716 
L 150.844328 252.568818 
L 151.640468 250.929865 
L 152.436608 250.024247 
L 153.232748 249.998719 
L 154.028888 250.816424 
L 156.417308 255.208492 
L 157.213448 255.974874 
L 158.009588 256.029858 
L 158.805727 255.535699 
L 159.601867 254.881665 
L 160.398007 254.545232 
L 161.194147 254.913782 
L 161.990287 256.132388 
L 164.378707 262.044787 
L 165.174847 263.09313 
L 165.970987 263.057389 
L 166.767127 261.956052 
L 167.563266 260.083082 
L 169.155546 255.896611 
L 169.951686 254.454337 
L 170.747826 253.780478 
L 171.543966 253.893644 
L 172.340106 254.664982 
L 173.932386 257.297371 
L 174.728526 258.67959 
L 175.524666 259.81665 
L 176.320805 260.54107 
L 177.116945 260.757723 
L 177.913085 260.482033 
L 179.505365 259.195915 
L 180.301505 258.820805 
L 181.097645 259.06009 
L 181.893785 260.076142 
L 182.689925 261.781608 
L 184.282205 265.611686 
L 185.078344 266.55055 
L 185.874484 266.147955 
L 186.670624 264.220361 
L 187.466764 260.967749 
L 189.059044 252.927144 
L 189.855184 249.717064 
L 190.651324 247.943396 
L 191.447464 247.914555 
L 192.243604 249.557938 
L 193.039744 252.453856 
L 194.632023 259.275745 
L 195.428163 261.751615 
L 196.224303 262.845623 
L 197.020443 262.283386 
L 197.816583 260.07516 
L 198.612723 256.503888 
L 201.001143 243.086358 
L 201.797283 239.645807 
L 202.593423 237.322059 
L 203.389562 236.079817 
L 204.185702 235.613576 
L 204.981842 235.440873 
L 205.777982 235.049703 
L 206.574122 234.058417 
L 207.370262 232.337878 
L 209.758682 225.596581 
L 210.554822 224.449396 
L 211.350962 224.480209 
L 212.147101 225.685878 
L 212.943241 227.760566 
L 214.535521 232.313831 
L 215.331661 233.628708 
L 216.127801 233.760693 
L 216.923941 232.606219 
L 217.720081 230.31759 
L 220.90464 218.087131 
L 221.70078 216.427842 
L 222.49692 215.863017 
L 223.29306 216.405276 
L 224.0892 217.921216 
L 224.88534 220.157375 
L 227.27376 227.856615 
L 228.0699 229.798892 
L 228.86604 231.215362 
L 229.66218 232.185193 
L 232.050599 234.430331 
L 232.846739 235.54355 
L 235.235159 239.350728 
L 236.031299 239.955577 
L 236.827439 239.818898 
L 237.623579 238.827436 
L 238.419719 236.999552 
L 239.215858 234.472582 
L 243.196558 219.549412 
L 243.992698 217.614916 
L 244.788838 216.357468 
L 245.584978 215.794466 
L 246.381118 215.84155 
L 247.973397 216.824229 
L 248.769537 217.025485 
L 249.565677 216.472341 
L 250.361817 214.818664 
L 251.157957 211.890855 
L 251.954097 207.752858 
L 255.138657 187.531314 
L 255.934797 184.075038 
L 256.730936 181.747837 
L 257.527076 180.335346 
L 259.119356 178.469926 
L 259.915496 177.082855 
L 260.711636 175.029579 
L 262.303916 169.408275 
L 263.100056 166.637701 
L 263.896196 164.555922 
L 264.692336 163.533441 
L 265.488475 163.698638 
L 266.284615 164.901558 
L 268.673035 170.490336 
L 269.469175 171.561194 
L 270.265315 171.885538 
L 271.061455 171.562935 
L 271.857595 170.827312 
L 274.246015 168.146507 
L 275.042154 167.07536 
L 275.838294 165.535792 
L 276.634434 163.2225 
L 277.430574 159.927741 
L 278.226714 155.630096 
L 281.411274 135.165091 
L 282.207414 131.832197 
L 283.003554 130.058278 
L 283.799693 129.922702 
L 284.595833 131.246665 
L 285.391973 133.619797 
L 286.984253 139.160038 
L 287.780393 141.11946 
L 288.576533 141.952354 
L 289.372673 141.532152 
L 290.168813 140.036241 
L 291.761093 135.777275 
L 292.557232 134.258576 
L 293.353372 133.829426 
L 294.149512 134.672159 
L 294.945652 136.620718 
L 296.537932 141.759171 
L 297.334072 143.641497 
L 298.130212 144.368147 
L 298.926352 143.752261 
L 299.722492 141.92848 
L 301.314771 136.350236 
L 302.110911 133.614205 
L 302.907051 131.449089 
L 303.703191 130.046214 
L 304.499331 129.440604 
L 305.295471 129.575224 
L 306.091611 130.370401 
L 306.887751 131.765658 
L 307.683891 133.718808 
L 308.480031 136.169803 
L 311.66459 147.316678 
L 312.46073 149.15082 
L 313.25687 150.269368 
L 314.05301 150.741812 
L 314.84915 150.764469 
L 316.44143 150.451397 
L 317.23757 150.492293 
L 318.03371 150.762262 
L 318.82985 151.245511 
L 319.625989 151.923149 
L 320.422129 152.826973 
L 321.218269 154.05275 
L 322.014409 155.71841 
L 322.810549 157.880241 
L 325.198969 165.42052 
L 325.995109 166.815583 
L 326.791249 166.838488 
L 327.587389 165.276983 
L 328.383528 162.278534 
L 330.771948 150.978425 
L 331.568088 149.073657 
L 332.364228 148.957253 
L 333.160368 150.55809 
L 333.956508 153.400182 
L 335.548788 159.785624 
L 336.344928 161.881199 
L 337.141067 162.68669 
L 337.937207 162.223851 
L 338.733347 160.837212 
L 340.325627 157.554367 
L 341.121767 156.799631 
L 341.917907 157.177941 
L 342.714047 158.851847 
L 343.510187 161.796918 
L 344.306327 165.84549 
L 345.898606 176.158652 
L 348.287026 192.296806 
L 349.083166 196.650957 
L 349.879306 200.161598 
L 350.675446 202.771212 
L 351.471586 204.514238 
L 352.267726 205.48627 
L 353.063866 205.800255 
L 353.860006 205.546601 
L 354.656146 204.774987 
L 355.452285 203.508382 
L 356.248425 201.785031 
L 359.432985 193.618889 
L 360.229125 192.488032 
L 361.025265 191.997064 
L 361.821405 191.99149 
L 362.617545 192.156811 
L 363.413685 192.122606 
L 364.209824 191.602498 
L 365.005964 190.517442 
L 366.598244 187.603516 
L 367.394384 186.669024 
L 368.190524 186.656895 
L 368.986664 187.748177 
L 369.782804 189.830766 
L 372.171224 198.044475 
L 372.967363 200.222977 
L 377.744203 210.78166 
L 378.540343 211.35931 
L 379.336483 210.444486 
L 380.132623 207.81102 
L 380.928763 203.652433 
L 383.317182 189.135672 
L 384.113322 186.273392 
L 384.909462 185.058055 
L 385.705602 185.231028 
L 387.297882 187.203789 
L 388.094022 187.655322 
L 388.890162 187.220463 
L 389.686302 185.939841 
L 391.278581 182.412519 
L 392.074721 181.188383 
L 392.870861 180.838412 
L 393.667001 181.470676 
L 394.463141 182.955378 
L 396.851561 189.075483 
L 397.647701 190.404316 
L 398.443841 190.92999 
L 399.239981 190.583132 
L 400.03612 189.448465 
L 401.6284 185.833235 
L 402.42454 184.059731 
L 403.22068 182.753419 
L 404.01682 182.087543 
L 404.81296 182.026014 
L 406.40524 182.595328 
L 407.20138 182.454113 
L 407.99752 181.650083 
L 408.793659 180.18265 
L 410.385939 176.537319 
L 411.182079 175.315913 
L 411.978219 174.987798 
L 412.774359 175.571136 
L 413.570499 176.734007 
L 413.570499 176.734007 
" clip-path="url(#pbd4b9669ac)" style="fill: none; stroke: #e41a1c; stroke-width: 1.5; stroke-linecap: square"/>
   </g>
   <g id="line2d_12">
    <path d="M 46.55 243.742709 
L 47.34614 244.511312 
L 48.14228 245.117978 
L 48.93842 245.434163 
L 49.73456 245.361428 
L 50.5307 244.868359 
L 51.326839 244.012672 
L 53.715259 240.949388 
L 54.511399 240.40629 
L 55.307539 240.296487 
L 56.103679 240.600228 
L 56.899819 241.216963 
L 59.288239 243.545518 
L 60.880518 244.608219 
L 63.268938 245.590969 
L 65.657358 246.653738 
L 69.638057 248.840256 
L 70.434197 249.088112 
L 71.230337 249.187736 
L 72.822617 249.027068 
L 74.414897 248.857435 
L 75.211037 248.946426 
L 77.599457 249.641142 
L 78.395596 249.659778 
L 79.191736 249.397476 
L 79.987876 248.835853 
L 82.376296 246.38791 
L 83.172436 245.866215 
L 83.968576 245.70759 
L 84.764716 245.931141 
L 85.560856 246.472422 
L 87.949275 248.63332 
L 88.745415 249.056038 
L 89.541555 249.166621 
L 90.337695 248.938529 
L 91.133835 248.400783 
L 93.522255 246.121424 
L 94.318395 245.78733 
L 95.114535 246.012571 
L 95.910674 246.910599 
L 96.706814 248.457168 
L 99.095234 254.548278 
L 99.891374 255.887922 
L 100.687514 256.441526 
L 101.483654 256.212886 
L 102.279794 255.417879 
L 103.075934 254.418867 
L 103.872074 253.609591 
L 104.668213 253.29006 
L 105.464353 253.574871 
L 106.260493 254.36602 
L 107.852773 256.335732 
L 108.648913 256.890503 
L 109.445053 256.906698 
L 110.241193 256.394112 
L 111.037333 255.497435 
L 113.425753 252.43425 
L 114.221892 251.676105 
L 115.018032 251.07543 
L 115.814172 250.614713 
L 116.610312 250.309327 
L 117.406452 250.213825 
L 118.202592 250.393167 
L 118.998732 250.874187 
L 120.591012 252.449449 
L 121.387152 253.223879 
L 122.183292 253.767956 
L 122.979431 254.015047 
L 125.367851 254.167042 
L 126.163991 254.725314 
L 126.960131 255.755627 
L 128.552411 258.773614 
L 129.348551 260.275981 
L 130.144691 261.461157 
L 130.940831 262.234452 
L 131.73697 262.65619 
L 133.32925 263.19077 
L 134.12539 263.664632 
L 136.51381 265.803156 
L 137.30995 266.188364 
L 138.10609 266.188897 
L 138.90223 265.853675 
L 140.494509 264.918014 
L 141.290649 264.714122 
L 142.086789 264.78825 
L 143.679069 265.2042 
L 144.475209 265.065099 
L 145.271349 264.445619 
L 146.067489 263.348658 
L 147.659769 260.593107 
L 148.455909 259.56876 
L 149.252049 259.10129 
L 150.048188 259.212139 
L 152.436608 260.658276 
L 153.232748 260.546505 
L 154.028888 259.966881 
L 155.621168 258.358694 
L 156.417308 258.034256 
L 157.213448 258.389117 
L 158.009588 259.451811 
L 160.398007 264.159964 
L 161.194147 264.955232 
L 161.990287 264.935254 
L 162.786427 264.118514 
L 163.582567 262.695151 
L 165.970987 257.682173 
L 166.767127 256.591913 
L 167.563266 256.042778 
L 168.359406 256.102613 
L 169.155546 256.801699 
L 169.951686 258.125726 
L 170.747826 259.994711 
L 173.932386 268.728215 
L 174.728526 270.070012 
L 175.524666 270.944429 
L 177.116945 272.225613 
L 177.913085 273.213305 
L 178.709225 274.656133 
L 180.301505 278.317557 
L 181.097645 279.780691 
L 181.893785 280.427205 
L 182.689925 280.006884 
L 183.486065 278.544636 
L 185.874484 271.791534 
L 186.670624 270.385004 
L 187.466764 269.878409 
L 188.262904 270.192091 
L 189.059044 271.049738 
L 190.651324 273.04188 
L 191.447464 273.715528 
L 192.243604 274.113231 
L 195.428163 274.89974 
L 197.020443 275.148477 
L 200.205003 274.970455 
L 202.593423 275.529502 
L 203.389562 275.235696 
L 204.185702 274.361218 
L 204.981842 272.863489 
L 207.370262 266.784341 
L 208.166402 265.394456 
L 208.962542 264.765155 
L 209.758682 264.894986 
L 210.554822 265.581672 
L 212.147101 267.253052 
L 212.943241 267.580963 
L 213.739381 267.328478 
L 214.535521 266.520803 
L 217.720081 261.912246 
L 218.516221 261.462825 
L 219.312361 261.447683 
L 220.108501 261.786598 
L 223.29306 264.103497 
L 224.88534 264.705621 
L 227.27376 265.368095 
L 228.0699 265.771472 
L 229.66218 266.968697 
L 232.050599 269.040979 
L 233.642879 269.953442 
L 236.827439 271.154557 
L 237.623579 271.782797 
L 238.419719 272.660208 
L 240.011998 274.987811 
L 241.604278 277.278302 
L 242.400418 278.067903 
L 243.196558 278.520227 
L 243.992698 278.656804 
L 245.584978 278.394165 
L 247.177258 278.173576 
L 248.769537 278.084782 
L 249.565677 277.803224 
L 250.361817 277.176355 
L 251.157957 276.14243 
L 252.750237 273.170847 
L 253.546377 271.635778 
L 254.342517 270.391345 
L 255.138657 269.61491 
L 255.934797 269.36379 
L 256.730936 269.558148 
L 258.323216 270.448338 
L 259.119356 270.645689 
L 259.915496 270.419246 
L 260.711636 269.694571 
L 261.507776 268.501133 
L 263.100056 265.170648 
L 265.488475 259.744016 
L 267.080755 256.626629 
L 268.673035 254.01812 
L 270.265315 251.97698 
L 271.857595 250.550091 
L 273.449875 249.657555 
L 275.042154 249.173417 
L 276.634434 249.041726 
L 278.226714 249.249883 
L 283.799693 250.634826 
L 285.391973 250.92277 
L 286.188113 251.198706 
L 286.984253 251.639147 
L 287.780393 252.284949 
L 288.576533 253.147075 
L 290.168813 255.367361 
L 291.761093 257.664155 
L 292.557232 258.594221 
L 293.353372 259.30164 
L 294.149512 259.793759 
L 297.334072 261.114969 
L 298.926352 262.320396 
L 300.518632 263.694017 
L 301.314771 264.24358 
L 302.110911 264.619185 
L 302.907051 264.793671 
L 303.703191 264.761726 
L 304.499331 264.527494 
L 305.295471 264.094387 
L 306.091611 263.462965 
L 306.887751 262.638797 
L 308.480031 260.546168 
L 310.072311 258.416357 
L 310.86845 257.612209 
L 311.66459 257.082621 
L 312.46073 256.821509 
L 314.84915 256.609719 
L 315.64529 256.302919 
L 317.23757 255.164591 
L 318.03371 254.59106 
L 318.82985 254.263761 
L 319.625989 254.329621 
L 320.422129 254.830643 
L 322.014409 256.67308 
L 322.810549 257.560159 
L 323.606689 258.109459 
L 324.402829 258.187503 
L 325.198969 257.800561 
L 327.587389 255.670576 
L 328.383528 255.398917 
L 329.179668 255.561639 
L 329.975808 256.108967 
L 332.364228 258.34634 
L 333.160368 258.70561 
L 333.956508 258.735975 
L 334.752648 258.481264 
L 336.344928 257.521469 
L 337.937207 256.570926 
L 341.121767 255.153129 
L 342.714047 254.631845 
L 343.510187 254.599466 
L 344.306327 254.810343 
L 345.102467 255.279276 
L 347.490886 257.340531 
L 348.287026 257.696693 
L 349.083166 257.623357 
L 349.879306 257.067653 
L 350.675446 256.089528 
L 353.063866 252.553767 
L 353.860006 251.929099 
L 354.656146 251.824794 
L 355.452285 252.233578 
L 356.248425 253.044727 
L 358.636845 255.973883 
L 359.432985 256.503976 
L 360.229125 256.634275 
L 361.025265 256.370488 
L 361.821405 255.793953 
L 363.413685 254.318798 
L 364.209824 253.793134 
L 365.005964 253.626958 
L 365.802104 253.902817 
L 366.598244 254.605056 
L 369.782804 258.572234 
L 370.578944 259.035657 
L 372.967363 259.609787 
L 373.763503 260.157417 
L 374.559643 261.075213 
L 376.948063 264.843454 
L 377.744203 265.743782 
L 378.540343 266.249342 
L 379.336483 266.424658 
L 380.928763 266.548793 
L 381.724902 266.890129 
L 382.521042 267.523845 
L 384.113322 269.190412 
L 384.909462 269.803409 
L 385.705602 270.04348 
L 386.501742 269.893648 
L 388.890162 268.776913 
L 389.686302 268.846885 
L 390.482441 269.228869 
L 392.074721 270.148546 
L 392.870861 270.14676 
L 393.667001 269.575135 
L 394.463141 268.429728 
L 396.851561 263.870099 
L 397.647701 263.01884 
L 398.443841 262.82976 
L 399.239981 263.256458 
L 401.6284 265.8658 
L 402.42454 266.300081 
L 403.22068 266.300152 
L 404.01682 265.949535 
L 405.6091 265.057543 
L 406.40524 265.010119 
L 407.20138 265.456997 
L 407.99752 266.414985 
L 410.385939 270.528281 
L 411.182079 271.341942 
L 411.978219 271.455484 
L 412.774359 270.799011 
L 413.570499 269.479872 
L 413.570499 269.479872 
" clip-path="url(#pbd4b9669ac)" style="fill: none; stroke: #377eb8; stroke-width: 1.5; stroke-linecap: square"/>
   </g>
   <g id="line2d_13">
    <path d="M 87.153135 318.04 
L 87.153135 71.732 
" clip-path="url(#pbd4b9669ac)" style="fill: none; stroke: #000000; stroke-width: 0.5; stroke-linecap: square"/>
   </g>
   <g id="line2d_14">
    <path d="M 46.55 246.02146 
L 413.570499 246.02146 
" clip-path="url(#pbd4b9669ac)" style="fill: none; stroke: #000000; stroke-width: 0.5; stroke-linecap: square"/>
   </g>
   <g id="patch_4">
    <path d="M 46.55 318.04 
L 46.55 71.732 
" style="fill: none; stroke: #000000; stroke-width: 0.8; stroke-linejoin: miter; stroke-linecap: square"/>
   </g>
   <g id="patch_5">
    <path d="M 413.570499 318.04 
L 413.570499 71.732 
" style="fill: none; stroke: #000000; stroke-width: 0.8; stroke-linejoin: miter; stroke-linecap: square"/>
   </g>
   <g id="patch_6">
    <path d="M 46.55 318.04 
L 413.570499 318.04 
" style="fill: none; stroke: #000000; stroke-width: 0.8; stroke-linejoin: miter; stroke-linecap: square"/>
   </g>
   <g id="patch_7">
    <path d="M 46.55 71.732 
L 413.570499 71.732 
" style="fill: none; stroke: #000000; stroke-width: 0.8; stroke-linejoin: miter; stroke-linecap: square"/>
   </g>
   <g id="text_13">
    <!-- Cz -->
    <g transform="translate(222.721499 65.732)scale(0.12 -0.12)">
     <defs>
      <path id="DejaVuSans-43" d="M 4122 4306 
L 4122 3641 
Q 3803 3938 3442 4084 
Q 3081 4231 2675 4231 
Q 1875 4231 1450 3742 
Q 1025 3253 1025 2328 
Q 1025 1406 1450 917 
Q 1875 428 2675 428 
Q 3081 428 3442 575 
Q 3803 722 4122 1019 
L 4122 359 
Q 3791 134 3420 21 
Q 3050 -91 2638 -91 
Q 1578 -91 968 557 
Q 359 1206 359 2328 
Q 359 3453 968 4101 
Q 1578 4750 2638 4750 
Q 3056 4750 3426 4639 
Q 3797 4528 4122 4306 
z
" transform="scale(0.015625)"/>
      <path id="DejaVuSans-7a" d="M 353 3500 
L 3084 3500 
L 3084 2975 
L 922 459 
L 3084 459 
L 3084 0 
L 275 0 
L 275 525 
L 2438 3041 
L 353 3041 
L 353 3500 
z
" transform="scale(0.015625)"/>
     </defs>
     <use xlink:href="#DejaVuSans-43"/>
     <use xlink:href="#DejaVuSans-7a" x="69.824219"/>
    </g>
   </g>
   <g id="legend_1">
    <g id="patch_8">
     <path d="M 99.832906 48.500845 
L 360.287593 48.500845 
Q 362.287593 48.500845 362.287593 46.500845 
L 362.287593 18.144595 
Q 362.287593 16.144595 360.287593 16.144595 
L 99.832906 16.144595 
Q 97.832906 16.144595 97.832906 18.144595 
L 97.832906 46.500845 
Q 97.832906 48.500845 99.832906 48.500845 
z
" style="fill: #ffffff; opacity: 0.8; stroke: #cccccc; stroke-linejoin: miter"/>
    </g>
    <g id="text_14">
     <!-- Average of Session 48 -->
     <g transform="translate(174.500874 27.743033)scale(0.1 -0.1)">
      <defs>
       <path id="DejaVuSans-41" d="M 2188 4044 
L 1331 1722 
L 3047 1722 
L 2188 4044 
z
M 1831 4666 
L 2547 4666 
L 4325 0 
L 3669 0 
L 3244 1197 
L 1141 1197 
L 716 0 
L 50 0 
L 1831 4666 
z
" transform="scale(0.015625)"/>
       <path id="DejaVuSans-76" d="M 191 3500 
L 800 3500 
L 1894 563 
L 2988 3500 
L 3597 3500 
L 2284 0 
L 1503 0 
L 191 3500 
z
" transform="scale(0.015625)"/>
       <path id="DejaVuSans-72" d="M 2631 2963 
Q 2534 3019 2420 3045 
Q 2306 3072 2169 3072 
Q 1681 3072 1420 2755 
Q 1159 2438 1159 1844 
L 1159 0 
L 581 0 
L 581 3500 
L 1159 3500 
L 1159 2956 
Q 1341 3275 1631 3429 
Q 1922 3584 2338 3584 
Q 2397 3584 2469 3576 
Q 2541 3569 2628 3553 
L 2631 2963 
z
" transform="scale(0.015625)"/>
       <path id="DejaVuSans-61" d="M 2194 1759 
Q 1497 1759 1228 1600 
Q 959 1441 959 1056 
Q 959 750 1161 570 
Q 1363 391 1709 391 
Q 2188 391 2477 730 
Q 2766 1069 2766 1631 
L 2766 1759 
L 2194 1759 
z
M 3341 1997 
L 3341 0 
L 2766 0 
L 2766 531 
Q 2569 213 2275 61 
Q 1981 -91 1556 -91 
Q 1019 -91 701 211 
Q 384 513 384 1019 
Q 384 1609 779 1909 
Q 1175 2209 1959 2209 
L 2766 2209 
L 2766 2266 
Q 2766 2663 2505 2880 
Q 2244 3097 1772 3097 
Q 1472 3097 1187 3025 
Q 903 2953 641 2809 
L 641 3341 
Q 956 3463 1253 3523 
Q 1550 3584 1831 3584 
Q 2591 3584 2966 3190 
Q 3341 2797 3341 1997 
z
" transform="scale(0.015625)"/>
       <path id="DejaVuSans-67" d="M 2906 1791 
Q 2906 2416 2648 2759 
Q 2391 3103 1925 3103 
Q 1463 3103 1205 2759 
Q 947 2416 947 1791 
Q 947 1169 1205 825 
Q 1463 481 1925 481 
Q 2391 481 2648 825 
Q 2906 1169 2906 1791 
z
M 3481 434 
Q 3481 -459 3084 -895 
Q 2688 -1331 1869 -1331 
Q 1566 -1331 1297 -1286 
Q 1028 -1241 775 -1147 
L 775 -588 
Q 1028 -725 1275 -790 
Q 1522 -856 1778 -856 
Q 2344 -856 2625 -561 
Q 2906 -266 2906 331 
L 2906 616 
Q 2728 306 2450 153 
Q 2172 0 1784 0 
Q 1141 0 747 490 
Q 353 981 353 1791 
Q 353 2603 747 3093 
Q 1141 3584 1784 3584 
Q 2172 3584 2450 3431 
Q 2728 3278 2906 2969 
L 2906 3500 
L 3481 3500 
L 3481 434 
z
" transform="scale(0.015625)"/>
       <path id="DejaVuSans-20" transform="scale(0.015625)"/>
       <path id="DejaVuSans-66" d="M 2375 4863 
L 2375 4384 
L 1825 4384 
Q 1516 4384 1395 4259 
Q 1275 4134 1275 3809 
L 1275 3500 
L 2222 3500 
L 2222 3053 
L 1275 3053 
L 1275 0 
L 697 0 
L 697 3053 
L 147 3053 
L 147 3500 
L 697 3500 
L 697 3744 
Q 697 4328 969 4595 
Q 1241 4863 1831 4863 
L 2375 4863 
z
" transform="scale(0.015625)"/>
       <path id="DejaVuSans-53" d="M 3425 4513 
L 3425 3897 
Q 3066 4069 2747 4153 
Q 2428 4238 2131 4238 
Q 1616 4238 1336 4038 
Q 1056 3838 1056 3469 
Q 1056 3159 1242 3001 
Q 1428 2844 1947 2747 
L 2328 2669 
Q 3034 2534 3370 2195 
Q 3706 1856 3706 1288 
Q 3706 609 3251 259 
Q 2797 -91 1919 -91 
Q 1588 -91 1214 -16 
Q 841 59 441 206 
L 441 856 
Q 825 641 1194 531 
Q 1563 422 1919 422 
Q 2459 422 2753 634 
Q 3047 847 3047 1241 
Q 3047 1584 2836 1778 
Q 2625 1972 2144 2069 
L 1759 2144 
Q 1053 2284 737 2584 
Q 422 2884 422 3419 
Q 422 4038 858 4394 
Q 1294 4750 2059 4750 
Q 2388 4750 2728 4690 
Q 3069 4631 3425 4513 
z
" transform="scale(0.015625)"/>
       <path id="DejaVuSans-69" d="M 603 3500 
L 1178 3500 
L 1178 0 
L 603 0 
L 603 3500 
z
M 603 4863 
L 1178 4863 
L 1178 4134 
L 603 4134 
L 603 4863 
z
" transform="scale(0.015625)"/>
      </defs>
      <use xlink:href="#DejaVuSans-41"/>
      <use xlink:href="#DejaVuSans-76" x="62.533203"/>
      <use xlink:href="#DejaVuSans-65" x="121.712891"/>
      <use xlink:href="#DejaVuSans-72" x="183.236328"/>
      <use xlink:href="#DejaVuSans-61" x="224.349609"/>
      <use xlink:href="#DejaVuSans-67" x="285.628906"/>
      <use xlink:href="#DejaVuSans-65" x="349.105469"/>
      <use xlink:href="#DejaVuSans-20" x="410.628906"/>
      <use xlink:href="#DejaVuSans-6f" x="442.416016"/>
      <use xlink:href="#DejaVuSans-66" x="503.597656"/>
      <use xlink:href="#DejaVuSans-20" x="538.802734"/>
      <use xlink:href="#DejaVuSans-53" x="570.589844"/>
      <use xlink:href="#DejaVuSans-65" x="634.066406"/>
      <use xlink:href="#DejaVuSans-73" x="695.589844"/>
      <use xlink:href="#DejaVuSans-73" x="747.689453"/>
      <use xlink:href="#DejaVuSans-69" x="799.789062"/>
      <use xlink:href="#DejaVuSans-6f" x="827.572266"/>
      <use xlink:href="#DejaVuSans-6e" x="888.753906"/>
      <use xlink:href="#DejaVuSans-20" x="952.132812"/>
      <use xlink:href="#DejaVuSans-34" x="983.919922"/>
      <use xlink:href="#DejaVuSans-38" x="1047.542969"/>
     </g>
    </g>
    <g id="line2d_15">
     <path d="M 101.832906 38.921158 
L 111.832906 38.921158 
L 121.832906 38.921158 
" style="fill: none; stroke: #e41a1c; stroke-width: 1.5; stroke-linecap: square"/>
    </g>
    <g id="text_15">
     <!-- Target (n=220) -->
     <g transform="translate(129.832906 42.421158)scale(0.1 -0.1)">
      <defs>
       <path id="DejaVuSans-54" d="M -19 4666 
L 3928 4666 
L 3928 4134 
L 2272 4134 
L 2272 0 
L 1638 0 
L 1638 4134 
L -19 4134 
L -19 4666 
z
" transform="scale(0.015625)"/>
       <path id="DejaVuSans-74" d="M 1172 4494 
L 1172 3500 
L 2356 3500 
L 2356 3053 
L 1172 3053 
L 1172 1153 
Q 1172 725 1289 603 
Q 1406 481 1766 481 
L 2356 481 
L 2356 0 
L 1766 0 
Q 1100 0 847 248 
Q 594 497 594 1153 
L 594 3053 
L 172 3053 
L 172 3500 
L 594 3500 
L 594 4494 
L 1172 4494 
z
" transform="scale(0.015625)"/>
       <path id="DejaVuSans-28" d="M 1984 4856 
Q 1566 4138 1362 3434 
Q 1159 2731 1159 2009 
Q 1159 1288 1364 580 
Q 1569 -128 1984 -844 
L 1484 -844 
Q 1016 -109 783 600 
Q 550 1309 550 2009 
Q 550 2706 781 3412 
Q 1013 4119 1484 4856 
L 1984 4856 
z
" transform="scale(0.015625)"/>
       <path id="DejaVuSans-3d" d="M 678 2906 
L 4684 2906 
L 4684 2381 
L 678 2381 
L 678 2906 
z
M 678 1631 
L 4684 1631 
L 4684 1100 
L 678 1100 
L 678 1631 
z
" transform="scale(0.015625)"/>
       <path id="DejaVuSans-29" d="M 513 4856 
L 1013 4856 
Q 1481 4119 1714 3412 
Q 1947 2706 1947 2009 
Q 1947 1309 1714 600 
Q 1481 -109 1013 -844 
L 513 -844 
Q 928 -128 1133 580 
Q 1338 1288 1338 2009 
Q 1338 2731 1133 3434 
Q 928 4138 513 4856 
z
" transform="scale(0.015625)"/>
      </defs>
      <use xlink:href="#DejaVuSans-54"/>
      <use xlink:href="#DejaVuSans-61" x="44.583984"/>
      <use xlink:href="#DejaVuSans-72" x="105.863281"/>
      <use xlink:href="#DejaVuSans-67" x="145.226562"/>
      <use xlink:href="#DejaVuSans-65" x="208.703125"/>
      <use xlink:href="#DejaVuSans-74" x="270.226562"/>
      <use xlink:href="#DejaVuSans-20" x="309.435547"/>
      <use xlink:href="#DejaVuSans-28" x="341.222656"/>
      <use xlink:href="#DejaVuSans-6e" x="380.236328"/>
      <use xlink:href="#DejaVuSans-3d" x="443.615234"/>
      <use xlink:href="#DejaVuSans-32" x="527.404297"/>
      <use xlink:href="#DejaVuSans-32" x="591.027344"/>
      <use xlink:href="#DejaVuSans-30" x="654.650391"/>
      <use xlink:href="#DejaVuSans-29" x="718.273438"/>
     </g>
    </g>
    <g id="line2d_16">
     <path d="M 225.562593 38.921158 
L 235.562593 38.921158 
L 245.562593 38.921158 
" style="fill: none; stroke: #377eb8; stroke-width: 1.5; stroke-linecap: square"/>
    </g>
    <g id="text_16">
     <!-- Non-Target (n=1173) -->
     <g transform="translate(253.562593 42.421158)scale(0.1 -0.1)">
      <defs>
       <path id="DejaVuSans-4e" d="M 628 4666 
L 1478 4666 
L 3547 763 
L 3547 4666 
L 4159 4666 
L 4159 0 
L 3309 0 
L 1241 3903 
L 1241 0 
L 628 0 
L 628 4666 
z
" transform="scale(0.015625)"/>
       <path id="DejaVuSans-2d" d="M 313 2009 
L 1997 2009 
L 1997 1497 
L 313 1497 
L 313 2009 
z
" transform="scale(0.015625)"/>
       <path id="DejaVuSans-31" d="M 794 531 
L 1825 531 
L 1825 4091 
L 703 3866 
L 703 4441 
L 1819 4666 
L 2450 4666 
L 2450 531 
L 3481 531 
L 3481 0 
L 794 0 
L 794 531 
z
" transform="scale(0.015625)"/>
       <path id="DejaVuSans-37" d="M 525 4666 
L 3525 4666 
L 3525 4397 
L 1831 0 
L 1172 0 
L 2766 4134 
L 525 4134 
L 525 4666 
z
" transform="scale(0.015625)"/>
       <path id="DejaVuSans-33" d="M 2597 2516 
Q 3050 2419 3304 2112 
Q 3559 1806 3559 1356 
Q 3559 666 3084 287 
Q 2609 -91 1734 -91 
Q 1441 -91 1130 -33 
Q 819 25 488 141 
L 488 750 
Q 750 597 1062 519 
Q 1375 441 1716 441 
Q 2309 441 2620 675 
Q 2931 909 2931 1356 
Q 2931 1769 2642 2001 
Q 2353 2234 1838 2234 
L 1294 2234 
L 1294 2753 
L 1863 2753 
Q 2328 2753 2575 2939 
Q 2822 3125 2822 3475 
Q 2822 3834 2567 4026 
Q 2313 4219 1838 4219 
Q 1578 4219 1281 4162 
Q 984 4106 628 3988 
L 628 4550 
Q 988 4650 1302 4700 
Q 1616 4750 1894 4750 
Q 2613 4750 3031 4423 
Q 3450 4097 3450 3541 
Q 3450 3153 3228 2886 
Q 3006 2619 2597 2516 
z
" transform="scale(0.015625)"/>
      </defs>
      <use xlink:href="#DejaVuSans-4e"/>
      <use xlink:href="#DejaVuSans-6f" x="74.804688"/>
      <use xlink:href="#DejaVuSans-6e" x="135.986328"/>
      <use xlink:href="#DejaVuSans-2d" x="199.365234"/>
      <use xlink:href="#DejaVuSans-54" x="226.324219"/>
      <use xlink:href="#DejaVuSans-61" x="270.908203"/>
      <use xlink:href="#DejaVuSans-72" x="332.1875"/>
      <use xlink:href="#DejaVuSans-67" x="371.550781"/>
      <use xlink:href="#DejaVuSans-65" x="435.027344"/>
      <use xlink:href="#DejaVuSans-74" x="496.550781"/>
      <use xlink:href="#DejaVuSans-20" x="535.759766"/>
      <use xlink:href="#DejaVuSans-28" x="567.546875"/>
      <use xlink:href="#DejaVuSans-6e" x="606.560547"/>
      <use xlink:href="#DejaVuSans-3d" x="669.939453"/>
      <use xlink:href="#DejaVuSans-31" x="753.728516"/>
      <use xlink:href="#DejaVuSans-31" x="817.351562"/>
      <use xlink:href="#DejaVuSans-37" x="880.974609"/>
      <use xlink:href="#DejaVuSans-33" x="944.597656"/>
      <use xlink:href="#DejaVuSans-29" x="1008.220703"/>
     </g>
    </g>
   </g>
  </g>
 </g>
 <defs>
  <clipPath id="pbd4b9669ac">
   <rect x="46.55" y="71.732" width="367.020499" height="246.308"/>
  </clipPath>
 </defs>
</svg>
