<?xml version="1.0" encoding="utf-8" standalone="no"?>
<!DOCTYPE svg PUBLIC "-//W3C//DTD SVG 1.1//EN"
  "http://www.w3.org/Graphics/SVG/1.1/DTD/svg11.dtd">
<svg xmlns:xlink="http://www.w3.org/1999/xlink" width="432pt" height="360pt" viewBox="0 0 432 360" xmlns="http://www.w3.org/2000/svg" version="1.1">
 <metadata>
  <rdf:RDF xmlns:dc="http://purl.org/dc/elements/1.1/" xmlns:cc="http://creativecommons.org/ns#" xmlns:rdf="http://www.w3.org/1999/02/22-rdf-syntax-ns#">
   <cc:Work>
    <dc:type rdf:resource="http://purl.org/dc/dcmitype/StillImage"/>
    <dc:date>2022-05-19T11:52:20.055798</dc:date>
    <dc:format>image/svg+xml</dc:format>
    <dc:creator>
     <cc:Agent>
      <dc:title>Matplotlib v3.5.1, https://matplotlib.org/</dc:title>
     </cc:Agent>
    </dc:creator>
   </cc:Work>
  </rdf:RDF>
 </metadata>
 <defs>
  <style type="text/css">*{stroke-linejoin: round; stroke-linecap: butt}</style>
 </defs>
 <g id="figure_1">
  <g id="patch_1">
   <path d="M 0 360 
L 432 360 
L 432 0 
L 0 0 
L 0 360 
z
" style="fill: none"/>
  </g>
  <g id="axes_1">
   <g id="patch_2">
    <path d="M 46.64 318.04 
L 413.570499 318.04 
L 413.570499 71.732 
L 46.64 71.732 
L 46.64 318.04 
z
" style="fill: none"/>
   </g>
   <g id="PolyCollection_1">
    <defs>
     <path id="mc3d451d8df" d="M 46.64 -113.799914 
L 46.64 -80.150768 
L 47.435945 -81.30006 
L 48.231889 -82.826129 
L 49.027834 -84.140605 
L 49.823779 -84.944756 
L 50.619723 -85.202719 
L 51.415668 -85.044786 
L 52.211613 -84.690807 
L 53.007557 -84.403202 
L 53.803502 -84.456074 
L 54.599447 -85.09845 
L 55.395392 -86.49124 
L 56.191336 -88.638156 
L 56.987281 -91.37299 
L 57.783226 -94.438388 
L 58.57917 -97.589118 
L 59.375115 -100.60625 
L 60.17106 -103.236137 
L 60.967004 -105.18849 
L 61.762949 -106.252869 
L 62.558894 -106.435636 
L 63.354838 -105.966872 
L 64.150783 -105.154466 
L 64.946728 -104.228482 
L 65.742672 -103.306322 
L 66.538617 -102.427105 
L 67.334562 -101.521038 
L 68.130506 -100.351723 
L 68.926451 -98.594442 
L 69.722396 -96.087779 
L 70.51834 -93.07328 
L 71.314285 -90.158302 
L 72.11023 -87.983994 
L 72.906175 -86.862429 
L 73.702119 -86.650955 
L 74.498064 -86.961377 
L 75.294009 -87.482209 
L 76.089953 -88.059456 
L 76.885898 -88.58816 
L 77.681843 -88.960767 
L 78.477787 -89.110447 
L 79.273732 -89.095949 
L 80.069677 -89.160031 
L 80.865621 -89.638181 
L 81.661566 -90.696571 
L 82.457511 -92.109021 
L 83.253455 -93.276682 
L 84.0494 -93.496678 
L 84.845345 -92.327839 
L 85.641289 -89.833287 
L 86.437234 -86.571019 
L 87.233179 -83.394356 
L 88.029124 -81.184507 
L 88.825068 -80.585231 
L 89.621013 -81.797813 
L 90.416958 -84.518211 
L 91.212902 -88.070786 
L 92.008847 -91.676754 
L 92.804792 -94.689864 
L 93.600736 -96.696359 
L 94.396681 -97.527495 
L 95.192626 -97.265076 
L 95.98857 -96.247845 
L 96.784515 -95.009403 
L 97.58046 -94.083275 
L 98.376404 -93.74522 
L 99.172349 -93.874301 
L 99.968294 -94.039476 
L 100.764238 -93.739811 
L 101.560183 -92.63091 
L 102.356128 -90.639467 
L 103.152073 -87.985363 
L 103.948017 -85.146656 
L 104.743962 -82.743791 
L 105.539907 -81.314469 
L 106.335851 -81.057814 
L 107.131796 -81.730113 
L 107.927741 -82.802094 
L 108.723685 -83.755613 
L 109.51963 -84.281114 
L 110.315575 -84.301159 
L 111.111519 -83.913461 
L 111.907464 -83.326299 
L 112.703409 -82.787363 
L 113.499353 -82.481959 
L 114.295298 -82.414568 
L 115.091243 -82.366042 
L 115.887187 -82.010187 
L 116.683132 -81.126798 
L 117.479077 -79.750681 
L 118.275021 -78.177715 
L 119.070966 -76.868091 
L 119.866911 -76.308705 
L 120.662856 -76.856034 
L 121.4588 -78.566847 
L 122.254745 -81.079043 
L 123.05069 -83.655511 
L 123.846634 -85.443617 
L 124.642579 -85.847282 
L 125.438524 -84.789186 
L 126.234468 -82.70043 
L 127.030413 -80.276913 
L 127.826358 -78.170608 
L 128.622302 -76.763876 
L 129.418247 -76.091313 
L 130.214192 -75.890189 
L 131.010136 -75.719213 
L 131.806081 -75.099637 
L 132.602026 -73.654997 
L 133.39797 -71.226674 
L 134.193915 -67.938814 
L 134.98986 -64.181383 
L 135.785805 -60.486958 
L 136.581749 -57.339244 
L 137.377694 -55.028097 
L 138.173639 -53.63971 
L 138.969583 -53.155818 
L 139.765528 -53.561176 
L 140.561473 -54.881879 
L 141.357417 -57.145042 
L 142.153362 -60.292081 
L 142.949307 -64.087998 
L 143.745251 -68.083489 
L 144.541196 -71.693286 
L 145.337141 -74.392752 
L 146.133085 -75.923785 
L 146.92903 -76.374885 
L 147.724975 -76.106529 
L 148.520919 -75.601044 
L 149.316864 -75.326947 
L 150.112809 -75.643508 
L 150.908753 -76.708267 
L 151.704698 -78.383859 
L 152.500643 -80.235112 
L 153.296588 -81.687416 
L 154.092532 -82.275398 
L 154.888477 -81.82998 
L 155.684422 -80.518761 
L 156.480366 -78.768875 
L 157.276311 -77.141483 
L 158.072256 -76.1901 
L 158.8682 -76.301101 
L 159.664145 -77.543342 
L 160.46009 -79.603758 
L 161.256034 -81.870735 
L 162.051979 -83.645867 
L 162.847924 -84.388093 
L 163.643868 -83.876929 
L 164.439813 -82.232754 
L 165.235758 -79.812239 
L 166.031702 -77.052547 
L 166.827647 -74.347997 
L 167.623592 -72.004654 
L 168.419537 -70.242846 
L 169.215481 -69.178593 
L 170.011426 -68.779619 
L 170.807371 -68.867697 
L 171.603315 -69.207431 
L 172.39926 -69.632545 
L 173.195205 -70.121109 
L 173.991149 -70.772439 
L 174.787094 -71.71439 
L 175.583039 -73.00719 
L 176.378983 -74.589013 
L 177.174928 -76.273943 
L 177.970873 -77.800211 
L 178.766817 -78.923721 
L 179.562762 -79.53632 
L 180.358707 -79.762631 
L 181.154651 -79.976005 
L 181.950596 -80.696671 
L 182.746541 -82.395157 
L 183.542485 -85.285331 
L 184.33843 -89.207443 
L 185.134375 -93.66026 
L 185.93032 -97.965258 
L 186.726264 -101.478447 
L 187.522209 -103.755939 
L 188.318154 -104.632054 
L 189.114098 -104.224581 
L 189.910043 -102.891349 
L 190.705988 -101.14298 
L 191.501932 -99.517044 
L 192.297877 -98.449071 
L 193.093822 -98.191296 
L 193.889766 -98.800378 
L 194.685711 -100.173529 
L 195.481656 -102.104735 
L 196.2776 -104.352238 
L 197.073545 -106.707267 
L 197.86949 -109.024974 
L 198.665434 -111.185419 
L 199.461379 -113.01903 
L 200.257324 -114.277982 
L 201.053269 -114.709359 
L 201.849213 -114.214302 
L 202.645158 -112.992253 
L 203.441103 -111.530277 
L 204.237047 -110.397283 
L 205.032992 -109.975663 
L 205.828937 -110.30725 
L 206.624881 -111.121429 
L 207.420826 -111.983674 
L 208.216771 -112.457104 
L 209.012715 -112.22336 
L 209.80866 -111.173389 
L 210.604605 -109.469348 
L 211.400549 -107.532393 
L 212.196494 -105.917894 
L 212.992439 -105.117462 
L 213.788383 -105.389332 
L 214.584328 -106.689609 
L 215.380273 -108.703026 
L 216.176218 -110.942066 
L 216.972162 -112.897633 
L 217.768107 -114.219365 
L 218.564052 -114.863447 
L 219.359996 -115.125356 
L 220.155941 -115.526361 
L 220.951886 -116.613631 
L 221.74783 -118.770455 
L 222.543775 -122.088839 
L 223.33972 -126.309448 
L 224.135664 -130.84147 
L 224.931609 -134.891 
L 225.727554 -137.68611 
L 226.523498 -138.714227 
L 227.319443 -137.866551 
L 228.115388 -135.447443 
L 228.911332 -132.081946 
L 229.707277 -128.563929 
L 230.503222 -125.664226 
L 231.299166 -123.93503 
L 232.095111 -123.582843 
L 232.891056 -124.46358 
L 233.687001 -126.180378 
L 234.482945 -128.216264 
L 235.27889 -130.054962 
L 236.074835 -131.283573 
L 236.870779 -131.671533 
L 237.666724 -131.200427 
L 238.462669 -130.030491 
L 239.258613 -128.430905 
L 240.054558 -126.719963 
L 240.850503 -125.228739 
L 241.646447 -124.260442 
L 242.442392 -124.027865 
L 243.238337 -124.598913 
L 244.034281 -125.897274 
L 244.830226 -127.770048 
L 245.626171 -130.077718 
L 246.422115 -132.731055 
L 247.21806 -135.640023 
L 248.014005 -138.628174 
L 248.80995 -141.407172 
L 249.605894 -143.662296 
L 250.401839 -145.212549 
L 251.197784 -146.13359 
L 251.993728 -146.738835 
L 252.789673 -147.426145 
L 253.585618 -148.50022 
L 254.381562 -150.065711 
L 255.177507 -152.002275 
L 255.973452 -153.990775 
L 256.769396 -155.586465 
L 257.565341 -156.352952 
L 258.361286 -156.023443 
L 259.15723 -154.607144 
L 259.953175 -152.391903 
L 260.74912 -149.87466 
L 261.545064 -147.674379 
L 262.341009 -146.425915 
L 263.136954 -146.621498 
L 263.932898 -148.440186 
L 264.728843 -151.687997 
L 265.524788 -155.920393 
L 266.320733 -160.661955 
L 267.116677 -165.546815 
L 267.912622 -170.30145 
L 268.708567 -174.664056 
L 269.504511 -178.371012 
L 270.300456 -181.229619 
L 271.096401 -183.183511 
L 271.892345 -184.292752 
L 272.68829 -184.666874 
L 273.484235 -184.434215 
L 274.280179 -183.761604 
L 275.076124 -182.8801 
L 275.872069 -182.084243 
L 276.668013 -181.694683 
L 277.463958 -181.968112 
L 278.259903 -182.958531 
L 279.055847 -184.404578 
L 279.851792 -185.752473 
L 280.647737 -186.356869 
L 281.443682 -185.768583 
L 282.239626 -183.927937 
L 283.035571 -181.152222 
L 283.831516 -177.981034 
L 284.62746 -175.01342 
L 285.423405 -172.786184 
L 286.21935 -171.655944 
L 287.015294 -171.67775 
L 287.811239 -172.558939 
L 288.607184 -173.764091 
L 289.403128 -174.740279 
L 290.199073 -175.133494 
L 290.995018 -174.873778 
L 291.790962 -174.11055 
L 292.586907 -173.079206 
L 293.382852 -171.990851 
L 294.178796 -170.974198 
L 294.974741 -170.046017 
L 295.770686 -169.103462 
L 296.56663 -167.972541 
L 297.362575 -166.530668 
L 298.15852 -164.853427 
L 298.954465 -163.284023 
L 299.750409 -162.345881 
L 300.546354 -162.519012 
L 301.342299 -164.001916 
L 302.138243 -166.596721 
L 302.934188 -169.781898 
L 303.730133 -172.926515 
L 304.526077 -175.519088 
L 305.322022 -177.296207 
L 306.117967 -178.244879 
L 306.913911 -178.518012 
L 307.709856 -178.310982 
L 308.505801 -177.745921 
L 309.301745 -176.814665 
L 310.09769 -175.414558 
L 310.893635 -173.462679 
L 311.689579 -171.022074 
L 312.485524 -168.362468 
L 313.281469 -165.918172 
L 314.077414 -164.159424 
L 314.873358 -163.42557 
L 315.669303 -163.779831 
L 316.465248 -164.943933 
L 317.261192 -166.351892 
L 318.057137 -167.321569 
L 318.853082 -167.292968 
L 319.649026 -166.047254 
L 320.444971 -163.816953 
L 321.240916 -161.22893 
L 322.03686 -159.082976 
L 322.832805 -158.043632 
L 323.62875 -158.372424 
L 324.424694 -159.814916 
L 325.220639 -161.689161 
L 326.016584 -163.142181 
L 326.812528 -163.480481 
L 327.608473 -162.450105 
L 328.404418 -160.35144 
L 329.200363 -157.934341 
L 329.996307 -156.117379 
L 330.792252 -155.659498 
L 331.588197 -156.919543 
L 332.384141 -159.765627 
L 333.180086 -163.624433 
L 333.976031 -167.649153 
L 334.771975 -170.981887 
L 335.56792 -173.038545 
L 336.363865 -173.693504 
L 337.159809 -173.262695 
L 337.955754 -172.294671 
L 338.751699 -171.301487 
L 339.547643 -170.585561 
L 340.343588 -170.221002 
L 341.139533 -170.122569 
L 341.935477 -170.110461 
L 342.731422 -169.957563 
L 343.527367 -169.458686 
L 344.323311 -168.526889 
L 345.119256 -167.259423 
L 345.915201 -165.902793 
L 346.711146 -164.716222 
L 347.50709 -163.827093 
L 348.303035 -163.187014 
L 349.09898 -162.655067 
L 349.894924 -162.131906 
L 350.690869 -161.634982 
L 351.486814 -161.274039 
L 352.282758 -161.180987 
L 353.078703 -161.467846 
L 353.874648 -162.229932 
L 354.670592 -163.551333 
L 355.466537 -165.468904 
L 356.262482 -167.90964 
L 357.058426 -170.661371 
L 357.854371 -173.406539 
L 358.650316 -175.781164 
L 359.44626 -177.410031 
L 360.242205 -177.932042 
L 361.03815 -177.074721 
L 361.834095 -174.792845 
L 362.630039 -171.392938 
L 363.425984 -167.526988 
L 364.221929 -164.017435 
L 365.017873 -161.601232 
L 365.813818 -160.722206 
L 366.609763 -161.435269 
L 367.405707 -163.406064 
L 368.201652 -165.979205 
L 368.997597 -168.326418 
L 369.793541 -169.683353 
L 370.589486 -169.617404 
L 371.385431 -168.210001 
L 372.181375 -166.056159 
L 372.97732 -164.074472 
L 373.773265 -163.207342 
L 374.569209 -164.118753 
L 375.365154 -166.979807 
L 376.161099 -171.405668 
L 376.957043 -176.573664 
L 377.752988 -181.492757 
L 378.548933 -185.322983 
L 379.344878 -187.616467 
L 380.140822 -188.401878 
L 380.936767 -188.114738 
L 381.732712 -187.420293 
L 382.528656 -186.979717 
L 383.324601 -187.215095 
L 384.120546 -188.150541 
L 384.91649 -189.408054 
L 385.712435 -190.374651 
L 386.50838 -190.460011 
L 387.304324 -189.321668 
L 388.100269 -186.985602 
L 388.896214 -183.858945 
L 389.692158 -180.641071 
L 390.488103 -178.122272 
L 391.284048 -176.898376 
L 392.079992 -177.117865 
L 392.875937 -178.406775 
L 393.671882 -180.024441 
L 394.467827 -181.159182 
L 395.263771 -181.205555 
L 396.059716 -179.92498 
L 396.855661 -177.486654 
L 397.651605 -174.411464 
L 398.44755 -171.423757 
L 399.243495 -169.233132 
L 400.039439 -168.320266 
L 400.835384 -168.811289 
L 401.631329 -170.464016 
L 402.427273 -172.730868 
L 403.223218 -174.875435 
L 404.019163 -176.154133 
L 404.815107 -176.054273 
L 405.611052 -174.514656 
L 406.406997 -172.0158 
L 407.202941 -169.470634 
L 407.998886 -167.952422 
L 408.794831 -168.374154 
L 409.590775 -171.226848 
L 410.38672 -176.427293 
L 411.182665 -183.286242 
L 411.97861 -190.611018 
L 412.774554 -196.957328 
L 413.570499 -200.996626 
L 413.570499 -277.072182 
L 413.570499 -277.072182 
L 412.774554 -272.936348 
L 411.97861 -266.163803 
L 411.182665 -258.217327 
L 410.38672 -250.77972 
L 409.590775 -245.283677 
L 408.794831 -242.535232 
L 407.998886 -242.549487 
L 407.202941 -244.644948 
L 406.406997 -247.731655 
L 405.611052 -250.654541 
L 404.815107 -252.472867 
L 404.019163 -252.63638 
L 403.223218 -251.076603 
L 402.427273 -248.220318 
L 401.631329 -244.892744 
L 400.835384 -242.08751 
L 400.039439 -240.65278 
L 399.243495 -241.015197 
L 398.44755 -243.059451 
L 397.651605 -246.193693 
L 396.855661 -249.548154 
L 396.059716 -252.241117 
L 395.263771 -253.654327 
L 394.467827 -253.635888 
L 393.671882 -252.535996 
L 392.875937 -251.045364 
L 392.079992 -249.921009 
L 391.284048 -249.738479 
L 390.488103 -250.749417 
L 389.692158 -252.836585 
L 388.896214 -255.544658 
L 388.100269 -258.201438 
L 387.304324 -260.141219 
L 386.50838 -260.964729 
L 385.712435 -260.699398 
L 384.91649 -259.762351 
L 384.120546 -258.753951 
L 383.324601 -258.200274 
L 382.528656 -258.35066 
L 381.732712 -259.076533 
L 380.936767 -259.889517 
L 380.140822 -260.090748 
L 379.344878 -259.025473 
L 378.548933 -256.351637 
L 377.752988 -252.201647 
L 376.957043 -247.164911 
L 376.161099 -242.111169 
L 375.365154 -237.936692 
L 374.569209 -235.315014 
L 373.773265 -234.509989 
L 372.97732 -235.299644 
L 372.181375 -237.045213 
L 371.385431 -238.892729 
L 370.589486 -240.035275 
L 369.793541 -239.943177 
L 368.997597 -238.502755 
L 368.201652 -236.047712 
L 367.405707 -233.277781 
L 366.609763 -231.060196 
L 365.813818 -230.149149 
L 365.017873 -230.925802 
L 364.221929 -233.284069 
L 363.425984 -236.711089 
L 362.630039 -240.488318 
L 361.834095 -243.88786 
L 361.03815 -246.29941 
L 360.242205 -247.313638 
L 359.44626 -246.798972 
L 358.650316 -244.942585 
L 357.854371 -242.194971 
L 357.058426 -239.114651 
L 356.262482 -236.191867 
L 355.466537 -233.748275 
L 354.670592 -231.937082 
L 353.874648 -230.783816 
L 353.078703 -230.208844 
L 352.282758 -230.04113 
L 351.486814 -230.06941 
L 350.690869 -230.135519 
L 349.894924 -230.211217 
L 349.09898 -230.393683 
L 348.303035 -230.818142 
L 347.50709 -231.559149 
L 346.711146 -232.595541 
L 345.915201 -233.839961 
L 345.119256 -235.172972 
L 344.323311 -236.441534 
L 343.527367 -237.449018 
L 342.731422 -238.001572 
L 341.935477 -238.027952 
L 341.139533 -237.691631 
L 340.343588 -237.376891 
L 339.547643 -237.507724 
L 338.751699 -238.291256 
L 337.955754 -239.554023 
L 337.159809 -240.775899 
L 336.363865 -241.282173 
L 335.56792 -240.48055 
L 334.771975 -238.063034 
L 333.976031 -234.14488 
L 333.180086 -229.314599 
L 332.384141 -224.542186 
L 331.588197 -220.913636 
L 330.792252 -219.253524 
L 329.996307 -219.797662 
L 329.200363 -222.086322 
L 328.404418 -225.133426 
L 327.608473 -227.782143 
L 326.812528 -229.096066 
L 326.016584 -228.656961 
L 325.220639 -226.68457 
L 324.424694 -223.941534 
L 323.62875 -221.450825 
L 322.832805 -220.125882 
L 322.03686 -220.453686 
L 321.240916 -222.346686 
L 320.444971 -225.204707 
L 319.649026 -228.148366 
L 318.853082 -230.333723 
L 318.057137 -231.236582 
L 317.261192 -230.805483 
L 316.465248 -229.432875 
L 315.669303 -227.769693 
L 314.873358 -226.471188 
L 314.077414 -225.980905 
L 313.281469 -226.431659 
L 312.485524 -227.6835 
L 311.689579 -229.45472 
L 310.893635 -231.462158 
L 310.09769 -233.495196 
L 309.301745 -235.403075 
L 308.505801 -237.03588 
L 307.709856 -238.198208 
L 306.913911 -238.651851 
L 306.117967 -238.174872 
L 305.322022 -236.661626 
L 304.526077 -234.222814 
L 303.730133 -231.223213 
L 302.934188 -228.207996 
L 302.138243 -225.735033 
L 301.342299 -224.204122 
L 300.546354 -223.769979 
L 299.750409 -224.3501 
L 298.954465 -225.685407 
L 298.15852 -227.41488 
L 297.362575 -229.153011 
L 296.56663 -230.580631 
L 295.770686 -231.546363 
L 294.974741 -232.129591 
L 294.178796 -232.598434 
L 293.382852 -233.250744 
L 292.586907 -234.216699 
L 291.790962 -235.352641 
L 290.995018 -236.306579 
L 290.199073 -236.710474 
L 289.403128 -236.369443 
L 288.607184 -235.346787 
L 287.811239 -233.938045 
L 287.015294 -232.587641 
L 286.21935 -231.783306 
L 285.423405 -231.922538 
L 284.62746 -233.157663 
L 283.831516 -235.287762 
L 283.035571 -237.797002 
L 282.239626 -240.060782 
L 281.443682 -241.598909 
L 280.647737 -242.211116 
L 279.851792 -241.948597 
L 279.055847 -241.023103 
L 278.259903 -239.755372 
L 277.463958 -238.54276 
L 276.668013 -237.774554 
L 275.872069 -237.691927 
L 275.076124 -238.271876 
L 274.280179 -239.224123 
L 273.484235 -240.111192 
L 272.68829 -240.513588 
L 271.892345 -240.156503 
L 271.096401 -238.961527 
L 270.300456 -237.012016 
L 269.504511 -234.440008 
L 268.708567 -231.304623 
L 267.912622 -227.578437 
L 267.116677 -223.275768 
L 266.320733 -218.605712 
L 265.524788 -213.999606 
L 264.728843 -209.982782 
L 263.932898 -207.004439 
L 263.136954 -205.349976 
L 262.341009 -205.128274 
L 261.545064 -206.243856 
L 260.74912 -208.337432 
L 259.953175 -210.788394 
L 259.15723 -212.862244 
L 258.361286 -213.951626 
L 257.565341 -213.7666 
L 256.769396 -212.382483 
L 255.973452 -210.163589 
L 255.177507 -207.625498 
L 254.381562 -205.272953 
L 253.585618 -203.439699 
L 252.789673 -202.189736 
L 251.993728 -201.340454 
L 251.197784 -200.589116 
L 250.401839 -199.645479 
L 249.605894 -198.292526 
L 248.80995 -196.39232 
L 248.014005 -193.906608 
L 247.21806 -190.946736 
L 246.422115 -187.793689 
L 245.626171 -184.837315 
L 244.830226 -182.448227 
L 244.034281 -180.853192 
L 243.238337 -180.095439 
L 242.442392 -180.099659 
L 241.646447 -180.772734 
L 240.850503 -182.048957 
L 240.054558 -183.846145 
L 239.258613 -185.976912 
L 238.462669 -188.10072 
L 237.666724 -189.771936 
L 236.870779 -190.562041 
L 236.074835 -190.190677 
L 235.27889 -188.619904 
L 234.482945 -186.096865 
L 233.687001 -183.131703 
L 232.891056 -180.39296 
L 232.095111 -178.531681 
L 231.299166 -177.997002 
L 230.503222 -178.919819 
L 229.707277 -181.091536 
L 228.911332 -184.012361 
L 228.115388 -186.986993 
L 227.319443 -189.271691 
L 226.523498 -190.259318 
L 225.727554 -189.638701 
L 224.931609 -187.460624 
L 224.135664 -184.103545 
L 223.33972 -180.177968 
L 222.543775 -176.390613 
L 221.74783 -173.367582 
L 220.951886 -171.468521 
L 220.155941 -170.673991 
L 219.359996 -170.615916 
L 218.564052 -170.734971 
L 217.768107 -170.478145 
L 216.972162 -169.4643 
L 216.176218 -167.596294 
L 215.380273 -165.105905 
L 214.584328 -162.497156 
L 213.788383 -160.375544 
L 212.992439 -159.221585 
L 212.196494 -159.216729 
L 211.400549 -160.198766 
L 210.604605 -161.740076 
L 209.80866 -163.293182 
L 209.012715 -164.362706 
L 208.216771 -164.674627 
L 207.420826 -164.281644 
L 206.624881 -163.530673 
L 205.828937 -162.888022 
L 205.032992 -162.723395 
L 204.237047 -163.183717 
L 203.441103 -164.200632 
L 202.645158 -165.564996 
L 201.849213 -166.977325 
L 201.053269 -168.057813 
L 200.257324 -168.391622 
L 199.461379 -167.66343 
L 198.665434 -165.810637 
L 197.86949 -163.077954 
L 197.073545 -159.932396 
L 196.2776 -156.889726 
L 195.481656 -154.351942 
L 194.685711 -152.542428 
L 193.889766 -151.543561 
L 193.093822 -151.36137 
L 192.297877 -151.950025 
L 191.501932 -153.19207 
L 190.705988 -154.864922 
L 189.910043 -156.620387 
L 189.114098 -157.999554 
L 188.318154 -158.507878 
L 187.522209 -157.753984 
L 186.726264 -155.601731 
L 185.93032 -152.248611 
L 185.134375 -148.175192 
L 184.33843 -143.991042 
L 183.542485 -140.258976 
L 182.746541 -137.366317 
L 181.950596 -135.462714 
L 181.154651 -134.454984 
L 180.358707 -134.048735 
L 179.562762 -133.832962 
L 178.766817 -133.400676 
L 177.970873 -132.477503 
L 177.174928 -131.006758 
L 176.378983 -129.14654 
L 175.583039 -127.177591 
L 174.787094 -125.36989 
L 173.991149 -123.878053 
L 173.195205 -122.713895 
L 172.39926 -121.792606 
L 171.603315 -121.010402 
L 170.807371 -120.317272 
L 170.011426 -119.773808 
L 169.215481 -119.579492 
L 168.419537 -120.036719 
L 167.623592 -121.42162 
L 166.827647 -123.796392 
L 166.031702 -126.878935 
L 165.235758 -130.083205 
L 164.439813 -132.720503 
L 163.643868 -134.24046 
L 162.847924 -134.397274 
L 162.051979 -133.295548 
L 161.256034 -131.32981 
L 160.46009 -129.065628 
L 159.664145 -127.109047 
L 158.8682 -125.980736 
L 158.072256 -125.990128 
L 157.276311 -127.121971 
L 156.480366 -128.988732 
L 155.684422 -130.917562 
L 154.888477 -132.180697 
L 154.092532 -132.272025 
L 153.296588 -131.087408 
L 152.500643 -128.931898 
L 151.704698 -126.387362 
L 150.908753 -124.124078 
L 150.112809 -122.700769 
L 149.316864 -122.361851 
L 148.520919 -122.893106 
L 147.724975 -123.658844 
L 146.92903 -123.862842 
L 146.133085 -122.897495 
L 145.337141 -120.578794 
L 144.541196 -117.159918 
L 143.745251 -113.165755 
L 142.949307 -109.181583 
L 142.153362 -105.696982 
L 141.357417 -103.017512 
L 140.561473 -101.236601 
L 139.765528 -100.283633 
L 138.969583 -100.036954 
L 138.173639 -100.433859 
L 137.377694 -101.507578 
L 136.581749 -103.340124 
L 135.785805 -105.971292 
L 134.98986 -109.305446 
L 134.193915 -113.042148 
L 133.39797 -116.672056 
L 132.602026 -119.596664 
L 131.806081 -121.366082 
L 131.010136 -121.911645 
L 130.214192 -121.619762 
L 129.418247 -121.182732 
L 128.622302 -121.286571 
L 127.826358 -122.289043 
L 127.030413 -124.058921 
L 126.234468 -126.058659 
L 125.438524 -127.610117 
L 124.642579 -128.192016 
L 123.846634 -127.623389 
L 123.05069 -126.079347 
L 122.254745 -123.99923 
L 121.4588 -121.960652 
L 120.662856 -120.518626 
L 119.866911 -120.006158 
L 119.070966 -120.376601 
L 118.275021 -121.211688 
L 117.479077 -121.939362 
L 116.683132 -122.147673 
L 115.887187 -121.79666 
L 115.091243 -121.204031 
L 114.295298 -120.843896 
L 113.499353 -121.105823 
L 112.703409 -122.119882 
L 111.907464 -123.665781 
L 111.111519 -125.19886 
L 110.315575 -126.0484 
L 109.51963 -125.741456 
L 108.723685 -124.278936 
L 107.927741 -122.186175 
L 107.131796 -120.283625 
L 106.335851 -119.314653 
L 105.539907 -119.679466 
L 104.743962 -121.382735 
L 103.948017 -124.09111 
L 103.152073 -127.214568 
L 102.356128 -130.048883 
L 101.560183 -132.0094 
L 100.764238 -132.861958 
L 99.968294 -132.796726 
L 99.172349 -132.289134 
L 98.376404 -131.852485 
L 97.58046 -131.84241 
L 96.784515 -132.372586 
L 95.98857 -133.28997 
L 95.192626 -134.173306 
L 94.396681 -134.410921 
L 93.600736 -133.423624 
L 92.804792 -130.961477 
L 92.008847 -127.288853 
L 91.212902 -123.125304 
L 90.416958 -119.365343 
L 89.621013 -116.746607 
L 88.825068 -115.648006 
L 88.029124 -116.050922 
L 87.233179 -117.594018 
L 86.437234 -119.688162 
L 85.641289 -121.691075 
L 84.845345 -123.100286 
L 84.0494 -123.67271 
L 83.253455 -123.415638 
L 82.457511 -122.512856 
L 81.661566 -121.276987 
L 80.865621 -120.108573 
L 80.069677 -119.393748 
L 79.273732 -119.327376 
L 78.477787 -119.738752 
L 77.681843 -120.097358 
L 76.885898 -119.795628 
L 76.089953 -118.534108 
L 75.294009 -116.552457 
L 74.498064 -114.577976 
L 73.702119 -113.475228 
L 72.906175 -113.754702 
L 72.11023 -115.339928 
L 71.314285 -117.769148 
L 70.51834 -120.522574 
L 69.722396 -123.202716 
L 68.926451 -125.538244 
L 68.130506 -127.331036 
L 67.334562 -128.505353 
L 66.538617 -129.219795 
L 65.742672 -129.842482 
L 64.946728 -130.725432 
L 64.150783 -131.941076 
L 63.354838 -133.221372 
L 62.558894 -134.137423 
L 61.762949 -134.314565 
L 60.967004 -133.52554 
L 60.17106 -131.698392 
L 59.375115 -128.937893 
L 58.57917 -125.555135 
L 57.783226 -122.016115 
L 56.987281 -118.781386 
L 56.191336 -116.142726 
L 55.395392 -114.198586 
L 54.599447 -112.956583 
L 53.803502 -112.414845 
L 53.007557 -112.538492 
L 52.211613 -113.180844 
L 51.415668 -114.049456 
L 50.619723 -114.771802 
L 49.823779 -115.040952 
L 49.027834 -114.773091 
L 48.231889 -114.183259 
L 47.435945 -113.705403 
L 46.64 -113.799914 
z
" style="stroke: #e41a1c; stroke-opacity: 0.3"/>
    </defs>
    <g clip-path="url(#p7d9bd07c85)">
     <use xlink:href="#mc3d451d8df" x="0" y="360" style="fill: #e41a1c; fill-opacity: 0.3; stroke: #e41a1c; stroke-opacity: 0.3"/>
    </g>
   </g>
   <g id="PolyCollection_2">
    <defs>
     <path id="mee35df24a7" d="M 46.64 -119.600901 
L 46.64 -103.870172 
L 47.435945 -104.170253 
L 48.231889 -104.57243 
L 49.027834 -104.894367 
L 49.823779 -104.966431 
L 50.619723 -104.692024 
L 51.415668 -104.100354 
L 52.211613 -103.345899 
L 53.007557 -102.64326 
L 53.803502 -102.182537 
L 54.599447 -102.080383 
L 55.395392 -102.377244 
L 56.191336 -103.04665 
L 56.987281 -103.988248 
L 57.783226 -105.01909 
L 58.57917 -105.893396 
L 59.375115 -106.354138 
L 60.17106 -106.191143 
L 60.967004 -105.282013 
L 61.762949 -103.617019 
L 62.558894 -101.321111 
L 63.354838 -98.668763 
L 64.150783 -96.062891 
L 64.946728 -93.952861 
L 65.742672 -92.707046 
L 66.538617 -92.495099 
L 67.334562 -93.235839 
L 68.130506 -94.630831 
L 68.926451 -96.258318 
L 69.722396 -97.68523 
L 70.51834 -98.573072 
L 71.314285 -98.761903 
L 72.11023 -98.305054 
L 72.906175 -97.434623 
L 73.702119 -96.473437 
L 74.498064 -95.736614 
L 75.294009 -95.450539 
L 76.089953 -95.686789 
L 76.885898 -96.32413 
L 77.681843 -97.078606 
L 78.477787 -97.614978 
L 79.273732 -97.69981 
L 80.069677 -97.319647 
L 80.865621 -96.691744 
L 81.661566 -96.159181 
L 82.457511 -96.036724 
L 83.253455 -96.48723 
L 84.0494 -97.472694 
L 84.845345 -98.78156 
L 85.641289 -100.105134 
L 86.437234 -101.131461 
L 87.233179 -101.6361 
L 88.029124 -101.551959 
L 88.825068 -100.992257 
L 89.621013 -100.20518 
L 90.416958 -99.470346 
L 91.212902 -98.984897 
L 92.008847 -98.797407 
L 92.804792 -98.821049 
L 93.600736 -98.907448 
L 94.396681 -98.923951 
L 95.192626 -98.791308 
L 95.98857 -98.487278 
L 96.784515 -98.040414 
L 97.58046 -97.522275 
L 98.376404 -97.033697 
L 99.172349 -96.683491 
L 99.968294 -96.563678 
L 100.764238 -96.725891 
L 101.560183 -97.163172 
L 102.356128 -97.804437 
L 103.152073 -98.529949 
L 103.948017 -99.208493 
L 104.743962 -99.742569 
L 105.539907 -100.097729 
L 106.335851 -100.299079 
L 107.131796 -100.399667 
L 107.927741 -100.442383 
L 108.723685 -100.435381 
L 109.51963 -100.34729 
L 110.315575 -100.115369 
L 111.111519 -99.657737 
L 111.907464 -98.890744 
L 112.703409 -97.761375 
L 113.499353 -96.29556 
L 114.295298 -94.636084 
L 115.091243 -93.027581 
L 115.887187 -91.735484 
L 116.683132 -90.941601 
L 117.479077 -90.680325 
L 118.275021 -90.8468 
L 119.070966 -91.253999 
L 119.866911 -91.690592 
L 120.662856 -91.961307 
L 121.4588 -91.926509 
L 122.254745 -91.542758 
L 123.05069 -90.873022 
L 123.846634 -90.045867 
L 124.642579 -89.190868 
L 125.438524 -88.399067 
L 126.234468 -87.725092 
L 127.030413 -87.205185 
L 127.826358 -86.86414 
L 128.622302 -86.715214 
L 129.418247 -86.769297 
L 130.214192 -87.048535 
L 131.010136 -87.581349 
L 131.806081 -88.372647 
L 132.602026 -89.375676 
L 133.39797 -90.494882 
L 134.193915 -91.619947 
L 134.98986 -92.667439 
L 135.785805 -93.606462 
L 136.581749 -94.4552 
L 137.377694 -95.24607 
L 138.173639 -95.975381 
L 138.969583 -96.574209 
L 139.765528 -96.930731 
L 140.561473 -96.950318 
L 141.357417 -96.60466 
L 142.153362 -95.941536 
L 142.949307 -95.07128 
L 143.745251 -94.153782 
L 144.541196 -93.377909 
L 145.337141 -92.9043 
L 146.133085 -92.778962 
L 146.92903 -92.883482 
L 147.724975 -92.981569 
L 148.520919 -92.844281 
L 149.316864 -92.367237 
L 150.112809 -91.607258 
L 150.908753 -90.742077 
L 151.704698 -89.998393 
L 152.500643 -89.574288 
L 153.296588 -89.56261 
L 154.092532 -89.898511 
L 154.888477 -90.371962 
L 155.684422 -90.717991 
L 156.480366 -90.738684 
L 157.276311 -90.384795 
L 158.072256 -89.76063 
L 158.8682 -89.069729 
L 159.664145 -88.538344 
L 160.46009 -88.341004 
L 161.256034 -88.539477 
L 162.051979 -89.05013 
L 162.847924 -89.659512 
L 163.643868 -90.09096 
L 164.439813 -90.094316 
L 165.235758 -89.515809 
L 166.031702 -88.319344 
L 166.827647 -86.561395 
L 167.623592 -84.346381 
L 168.419537 -81.792051 
L 169.215481 -79.016997 
L 170.011426 -76.142709 
L 170.807371 -73.298118 
L 171.603315 -70.622352 
L 172.39926 -68.264073 
L 173.195205 -66.369802 
L 173.991149 -65.053215 
L 174.787094 -64.352617 
L 175.583039 -64.202137 
L 176.378983 -64.441436 
L 177.174928 -64.8648 
L 177.970873 -65.28577 
L 178.766817 -65.58987 
L 179.562762 -65.7613 
L 180.358707 -65.879841 
L 181.154651 -66.087202 
L 181.950596 -66.528357 
L 182.746541 -67.286473 
L 183.542485 -68.338012 
L 184.33843 -69.546738 
L 185.134375 -70.698028 
L 185.93032 -71.561649 
L 186.726264 -71.964392 
L 187.522209 -71.848599 
L 188.318154 -71.292927 
L 189.114098 -70.486716 
L 189.910043 -69.673504 
L 190.705988 -69.092514 
L 191.501932 -68.937351 
L 192.297877 -69.329857 
L 193.093822 -70.298398 
L 193.889766 -71.763423 
L 194.685711 -73.546904 
L 195.481656 -75.413341 
L 196.2776 -77.127955 
L 197.073545 -78.50746 
L 197.86949 -79.449942 
L 198.665434 -79.947544 
L 199.461379 -80.088523 
L 200.257324 -80.044626 
L 201.053269 -80.035221 
L 201.849213 -80.271748 
L 202.645158 -80.90199 
L 203.441103 -81.975511 
L 204.237047 -83.438566 
L 205.032992 -85.152596 
L 205.828937 -86.926819 
L 206.624881 -88.560731 
L 207.420826 -89.894107 
L 208.216771 -90.854343 
L 209.012715 -91.482471 
L 209.80866 -91.922639 
L 210.604605 -92.37553 
L 211.400549 -93.032062 
L 212.196494 -94.009152 
L 212.992439 -95.305354 
L 213.788383 -96.78802 
L 214.584328 -98.217887 
L 215.380273 -99.308051 
L 216.176218 -99.800455 
L 216.972162 -99.532795 
L 217.768107 -98.47286 
L 218.564052 -96.714554 
L 219.359996 -94.446611 
L 220.155941 -91.910427 
L 220.951886 -89.359086 
L 221.74783 -87.023192 
L 222.543775 -85.085232 
L 223.33972 -83.661922 
L 224.135664 -82.791571 
L 224.931609 -82.423618 
L 225.727554 -82.414086 
L 226.523498 -82.538796 
L 227.319443 -82.534125 
L 228.115388 -82.158575 
L 228.911332 -81.251791 
L 229.707277 -79.769939 
L 230.503222 -77.794558 
L 231.299166 -75.523839 
L 232.095111 -73.249039 
L 232.891056 -71.305356 
L 233.687001 -69.989494 
L 234.482945 -69.464954 
L 235.27889 -69.702602 
L 236.074835 -70.492553 
L 236.870779 -71.521802 
L 237.666724 -72.47906 
L 238.462669 -73.146161 
L 239.258613 -73.452289 
L 240.054558 -73.480506 
L 240.850503 -73.423173 
L 241.646447 -73.497689 
L 242.442392 -73.855688 
L 243.238337 -74.525583 
L 244.034281 -75.407318 
L 244.830226 -76.308512 
L 245.626171 -77.001627 
L 246.422115 -77.290561 
L 247.21806 -77.07677 
L 248.014005 -76.403733 
L 248.80995 -75.455133 
L 249.605894 -74.501918 
L 250.401839 -73.822502 
L 251.197784 -73.630027 
L 251.993728 -74.0245 
L 252.789673 -74.9699 
L 253.585618 -76.296703 
L 254.381562 -77.737268 
L 255.177507 -78.992471 
L 255.973452 -79.807114 
L 256.769396 -80.025634 
L 257.565341 -79.617828 
L 258.361286 -78.68312 
L 259.15723 -77.440265 
L 259.953175 -76.195909 
L 260.74912 -75.283313 
L 261.545064 -74.979637 
L 262.341009 -75.429491 
L 263.136954 -76.603677 
L 263.932898 -78.306227 
L 264.728843 -80.225601 
L 265.524788 -82.016575 
L 266.320733 -83.393348 
L 267.116677 -84.207113 
L 267.912622 -84.478981 
L 268.708567 -84.372347 
L 269.504511 -84.115097 
L 270.300456 -83.906364 
L 271.096401 -83.849919 
L 271.892345 -83.940113 
L 272.68829 -84.093488 
L 273.484235 -84.195008 
L 274.280179 -84.13571 
L 275.076124 -83.842981 
L 275.872069 -83.309966 
L 276.668013 -82.613234 
L 277.463958 -81.895816 
L 278.259903 -81.309353 
L 279.055847 -80.944811 
L 279.851792 -80.798158 
L 280.647737 -80.794832 
L 281.443682 -80.854264 
L 282.239626 -80.949206 
L 283.035571 -81.123659 
L 283.831516 -81.464412 
L 284.62746 -82.045707 
L 285.423405 -82.873988 
L 286.21935 -83.857626 
L 287.015294 -84.816883 
L 287.811239 -85.531319 
L 288.607184 -85.804836 
L 289.403128 -85.525563 
L 290.199073 -84.706142 
L 290.995018 -83.495595 
L 291.790962 -82.152661 
L 292.586907 -80.974307 
L 293.382852 -80.195235 
L 294.178796 -79.902754 
L 294.974741 -80.013417 
L 295.770686 -80.32225 
L 296.56663 -80.59236 
L 297.362575 -80.639026 
L 298.15852 -80.380866 
L 298.954465 -79.853332 
L 299.750409 -79.188862 
L 300.546354 -78.570977 
L 301.342299 -78.1763 
L 302.138243 -78.124955 
L 302.934188 -78.456006 
L 303.730133 -79.130428 
L 304.526077 -80.051306 
L 305.322022 -81.088244 
L 306.117967 -82.096955 
L 306.913911 -82.930046 
L 307.709856 -83.441461 
L 308.505801 -83.49456 
L 309.301745 -82.985089 
L 310.09769 -81.879078 
L 310.893635 -80.248669 
L 311.689579 -78.281818 
L 312.485524 -76.252811 
L 313.281469 -74.460091 
L 314.077414 -73.151746 
L 314.873358 -72.461924 
L 315.669303 -72.377389 
L 316.465248 -72.746134 
L 317.261192 -73.328995 
L 318.057137 -73.879691 
L 318.853082 -74.224386 
L 319.649026 -74.309007 
L 320.444971 -74.196336 
L 321.240916 -74.019157 
L 322.03686 -73.91593 
L 322.832805 -73.978453 
L 323.62875 -74.226283 
L 324.424694 -74.605231 
L 325.220639 -75.003888 
L 326.016584 -75.288954 
L 326.812528 -75.358306 
L 327.608473 -75.194725 
L 328.404418 -74.888515 
L 329.200363 -74.605001 
L 329.996307 -74.507195 
L 330.792252 -74.677007 
L 331.588197 -75.078514 
L 332.384141 -75.577 
L 333.180086 -75.996341 
L 333.976031 -76.185881 
L 334.771975 -76.074981 
L 335.56792 -75.702778 
L 336.363865 -75.2127 
L 337.159809 -74.804831 
L 337.955754 -74.656868 
L 338.751699 -74.848123 
L 339.547643 -75.326179 
L 340.343588 -75.933601 
L 341.139533 -76.478278 
L 341.935477 -76.809811 
L 342.731422 -76.869189 
L 343.527367 -76.700398 
L 344.323311 -76.428816 
L 345.119256 -76.215141 
L 345.915201 -76.195854 
L 346.711146 -76.429719 
L 347.50709 -76.874713 
L 348.303035 -77.407964 
L 349.09898 -77.878145 
L 349.894924 -78.165587 
L 350.690869 -78.228407 
L 351.486814 -78.121804 
L 352.282758 -77.981313 
L 353.078703 -77.966253 
L 353.874648 -78.179852 
L 354.670592 -78.607542 
L 355.466537 -79.113737 
L 356.262482 -79.501018 
L 357.058426 -79.594421 
L 357.854371 -79.304502 
L 358.650316 -78.648274 
L 359.44626 -77.734422 
L 360.242205 -76.724901 
L 361.03815 -75.779216 
L 361.834095 -74.991472 
L 362.630039 -74.346935 
L 363.425984 -73.73017 
L 364.221929 -72.991378 
L 365.017873 -72.038014 
L 365.813818 -70.900546 
L 366.609763 -69.738486 
L 367.405707 -68.787295 
L 368.201652 -68.271466 
L 368.997597 -68.314846 
L 369.793541 -68.875151 
L 370.589486 -69.725707 
L 371.385431 -70.500663 
L 372.181375 -70.801139 
L 372.97732 -70.331011 
L 373.773265 -69.008965 
L 374.569209 -67.00671 
L 375.365154 -64.695942 
L 376.161099 -62.529559 
L 376.957043 -60.907416 
L 377.752988 -60.073492 
L 378.548933 -60.070708 
L 379.344878 -60.757118 
L 380.140822 -61.87001 
L 380.936767 -63.113281 
L 381.732712 -64.239348 
L 382.528656 -65.102365 
L 383.324601 -65.672954 
L 384.120546 -66.018054 
L 384.91649 -66.256741 
L 385.712435 -66.506706 
L 386.50838 -66.839877 
L 387.304324 -67.264559 
L 388.100269 -67.738882 
L 388.896214 -68.202016 
L 389.692158 -68.601408 
L 390.488103 -68.903972 
L 391.284048 -69.094918 
L 392.079992 -69.17268 
L 392.875937 -69.142235 
L 393.671882 -69.006644 
L 394.467827 -68.763268 
L 395.263771 -68.413679 
L 396.059716 -67.98459 
L 396.855661 -67.541533 
L 397.651605 -67.177466 
L 398.44755 -66.97874 
L 399.243495 -66.989803 
L 400.039439 -67.195087 
L 400.835384 -67.520043 
L 401.631329 -67.846104 
L 402.427273 -68.039764 
L 403.223218 -67.99609 
L 404.019163 -67.683252 
L 404.815107 -67.162604 
L 405.611052 -66.567459 
L 406.406997 -66.049494 
L 407.202941 -65.720946 
L 407.998886 -65.617634 
L 408.794831 -65.690427 
L 409.590775 -65.819883 
L 410.38672 -65.84808 
L 411.182665 -65.623305 
L 411.97861 -65.046901 
L 412.774554 -64.102027 
L 413.570499 -62.845299 
L 413.570499 -97.690331 
L 413.570499 -97.690331 
L 412.774554 -98.860494 
L 411.97861 -99.677584 
L 411.182665 -100.093487 
L 410.38672 -100.126476 
L 409.590775 -99.880893 
L 408.794831 -99.535336 
L 407.998886 -99.293438 
L 407.202941 -99.31337 
L 406.406997 -99.649402 
L 405.611052 -100.235764 
L 404.815107 -100.918606 
L 404.019163 -101.515593 
L 403.223218 -101.875385 
L 402.427273 -101.92038 
L 401.631329 -101.667855 
L 400.835384 -101.226162 
L 400.039439 -100.762008 
L 399.243495 -100.444325 
L 398.44755 -100.386884 
L 397.651605 -100.617272 
L 396.855661 -101.082728 
L 396.059716 -101.679119 
L 395.263771 -102.28337 
L 394.467827 -102.781948 
L 393.671882 -103.096106 
L 392.875937 -103.198412 
L 392.079992 -103.109734 
L 391.284048 -102.87571 
L 390.488103 -102.538743 
L 389.692158 -102.125456 
L 388.896214 -101.65403 
L 388.100269 -101.147691 
L 387.304324 -100.63946 
L 386.50838 -100.165627 
L 385.712435 -99.753399 
L 384.91649 -99.406464 
L 384.120546 -99.091232 
L 383.324601 -98.732488 
L 382.528656 -98.231449 
L 381.732712 -97.510292 
L 380.936767 -96.567695 
L 380.140822 -95.516443 
L 379.344878 -94.578746 
L 378.548933 -94.033027 
L 377.752988 -94.126454 
L 376.957043 -94.982939 
L 376.161099 -96.542113 
L 375.365154 -98.556576 
L 374.569209 -100.652765 
L 373.773265 -102.434651 
L 372.97732 -103.59358 
L 372.181375 -103.989804 
L 371.385431 -103.685943 
L 370.589486 -102.926352 
L 369.793541 -102.064951 
L 368.997597 -101.456388 
L 368.201652 -101.343425 
L 367.405707 -101.784394 
L 366.609763 -102.654015 
L 365.813818 -103.717773 
L 365.017873 -104.742223 
L 364.221929 -105.587404 
L 363.425984 -106.243787 
L 362.630039 -106.809962 
L 361.834095 -107.431874 
L 361.03815 -108.228957 
L 360.242205 -109.228976 
L 359.44626 -110.335073 
L 358.650316 -111.347855 
L 357.854371 -112.044597 
L 357.058426 -112.280586 
L 356.262482 -112.056484 
L 355.466537 -111.514572 
L 354.670592 -110.872222 
L 353.874648 -110.335575 
L 353.078703 -110.034172 
L 352.282758 -109.990441 
L 351.486814 -110.121047 
L 350.690869 -110.269678 
L 349.894924 -110.270515 
L 349.09898 -110.023392 
L 348.303035 -109.543343 
L 347.50709 -108.955317 
L 346.711146 -108.437117 
L 345.915201 -108.141728 
L 345.119256 -108.134522 
L 344.323311 -108.367394 
L 343.527367 -108.696984 
L 342.731422 -108.941775 
L 341.935477 -108.957565 
L 341.139533 -108.697417 
L 340.343588 -108.226062 
L 339.547643 -107.684308 
L 338.751699 -107.227704 
L 337.955754 -106.97159 
L 337.159809 -106.959824 
L 336.363865 -107.157343 
L 335.56792 -107.462442 
L 334.771975 -107.738281 
L 333.976031 -107.861191 
L 333.180086 -107.770734 
L 332.384141 -107.495523 
L 331.588197 -107.137219 
L 330.792252 -106.821144 
L 329.996307 -106.642243 
L 329.200363 -106.632276 
L 328.404418 -106.755146 
L 327.608473 -106.922262 
L 326.812528 -107.020153 
L 326.016584 -106.950062 
L 325.220639 -106.674982 
L 324.424694 -106.251294 
L 323.62875 -105.816096 
L 322.832805 -105.524527 
L 322.03686 -105.467346 
L 321.240916 -105.617186 
L 320.444971 -105.836229 
L 319.649026 -105.940171 
L 318.853082 -105.783626 
L 318.057137 -105.328128 
L 317.261192 -104.668393 
L 316.465248 -104.011139 
L 315.669303 -103.615458 
L 314.873358 -103.713206 
L 314.077414 -104.433722 
L 313.281469 -105.758257 
L 312.485524 -107.521556 
L 311.689579 -109.460018 
L 310.893635 -111.28566 
L 310.09769 -112.755533 
L 309.301745 -113.713948 
L 308.505801 -114.103144 
L 307.709856 -113.951784 
L 306.913911 -113.352412 
L 306.117967 -112.435426 
L 305.322022 -111.346193 
L 304.526077 -110.231242 
L 303.730133 -109.23299 
L 302.934188 -108.48353 
L 302.138243 -108.087169 
L 301.342299 -108.091962 
L 300.546354 -108.462936 
L 299.750409 -109.073736 
L 298.954465 -109.728271 
L 298.15852 -110.214045 
L 297.362575 -110.375541 
L 296.56663 -110.18066 
L 295.770686 -109.746203 
L 294.974741 -109.302851 
L 294.178796 -109.112465 
L 293.382852 -109.375892 
L 292.586907 -110.166907 
L 291.790962 -111.40606 
L 290.995018 -112.873845 
L 290.199073 -114.263227 
L 289.403128 -115.268254 
L 288.607184 -115.684365 
L 287.811239 -115.475468 
L 287.015294 -114.772385 
L 286.21935 -113.805398 
L 285.423405 -112.809579 
L 284.62746 -111.949653 
L 283.831516 -111.291927 
L 283.035571 -110.823581 
L 282.239626 -110.499942 
L 281.443682 -110.291243 
L 280.647737 -110.203663 
L 279.851792 -110.267681 
L 279.055847 -110.50968 
L 278.259903 -110.929076 
L 277.463958 -111.48891 
L 276.668013 -112.114247 
L 275.872069 -112.696482 
L 275.076124 -113.113927 
L 274.280179 -113.277597 
L 273.484235 -113.185874 
L 272.68829 -112.947091 
L 271.892345 -112.739078 
L 271.096401 -112.71848 
L 270.300456 -112.932981 
L 269.504511 -113.288728 
L 268.708567 -113.584492 
L 267.912622 -113.585932 
L 267.116677 -113.104929 
L 266.320733 -112.059799 
L 265.524788 -110.505179 
L 264.728843 -108.62885 
L 263.932898 -106.716024 
L 263.136954 -105.085306 
L 262.341009 -104.010169 
L 261.545064 -103.649592 
L 260.74912 -104.010035 
L 259.953175 -104.946578 
L 259.15723 -106.19608 
L 258.361286 -107.43158 
L 257.565341 -108.331378 
L 256.769396 -108.654224 
L 255.973452 -108.300492 
L 255.177507 -107.334413 
L 254.381562 -105.958084 
L 253.585618 -104.45333 
L 252.789673 -103.117621 
L 251.993728 -102.20685 
L 251.197784 -101.883248 
L 250.401839 -102.172737 
L 249.605894 -102.950986 
L 248.80995 -103.973916 
L 248.014005 -104.944459 
L 247.21806 -105.589421 
L 246.422115 -105.724908 
L 245.626171 -105.301791 
L 244.830226 -104.423402 
L 244.034281 -103.32038 
L 243.238337 -102.275664 
L 242.442392 -101.522021 
L 241.646447 -101.158821 
L 240.850503 -101.125698 
L 240.054558 -101.236489 
L 239.258613 -101.251752 
L 238.462669 -100.965703 
L 237.666724 -100.286179 
L 236.870779 -99.282553 
L 236.074835 -98.178469 
L 235.27889 -97.287393 
L 234.482945 -96.917911 
L 233.687001 -97.286234 
L 232.891056 -98.458556 
L 232.095111 -100.327373 
L 231.299166 -102.624424 
L 230.503222 -104.979702 
L 229.707277 -107.023598 
L 228.911332 -108.496905 
L 228.115388 -109.318104 
L 227.319443 -109.581195 
L 226.523498 -109.498613 
L 225.727554 -109.328598 
L 224.931609 -109.319236 
L 224.135664 -109.675548 
L 223.33972 -110.539037 
L 222.543775 -111.971272 
L 221.74783 -113.942166 
L 220.951886 -116.327287 
L 220.155941 -118.917263 
L 219.359996 -121.441654 
L 218.564052 -123.609281 
L 217.768107 -125.162405 
L 216.972162 -125.932982 
L 216.176218 -125.882851 
L 215.380273 -125.113018 
L 214.584328 -123.838796 
L 213.788383 -122.339232 
L 212.992439 -120.893598 
L 212.196494 -119.717541 
L 211.400549 -118.913068 
L 210.604605 -118.448304 
L 209.80866 -118.176524 
L 209.012715 -117.888978 
L 208.216771 -117.382362 
L 207.420826 -116.518908 
L 206.624881 -115.264026 
L 205.828937 -113.695152 
L 205.032992 -111.980677 
L 204.237047 -110.33233 
L 203.441103 -108.942928 
L 202.645158 -107.931007 
L 201.849213 -107.313664 
L 201.053269 -107.01403 
L 200.257324 -106.891248 
L 199.461379 -106.774598 
L 198.665434 -106.492604 
L 197.86949 -105.900638 
L 197.073545 -104.911376 
L 196.2776 -103.52068 
L 195.481656 -101.814441 
L 194.685711 -99.951738 
L 193.889766 -98.134691 
L 193.093822 -96.576619 
L 192.297877 -95.468151 
L 191.501932 -94.934679 
L 190.705988 -94.990702 
L 189.910043 -95.515518 
L 189.114098 -96.275071 
L 188.318154 -96.987994 
L 187.522209 -97.405214 
L 186.726264 -97.370104 
L 185.93032 -96.845495 
L 185.134375 -95.911022 
L 184.33843 -94.736674 
L 183.542485 -93.535185 
L 182.746541 -92.501197 
L 181.950596 -91.75562 
L 181.154651 -91.315388 
L 180.358707 -91.098715 
L 179.562762 -90.963727 
L 178.766817 -90.76955 
L 177.970873 -90.44077 
L 177.174928 -90.00915 
L 176.378983 -89.611142 
L 175.583039 -89.441587 
L 174.787094 -89.688639 
L 173.991149 -90.480292 
L 173.195205 -91.857233 
L 172.39926 -93.77086 
L 171.603315 -96.102327 
L 170.807371 -98.698844 
L 170.011426 -101.415104 
L 169.215481 -104.137756 
L 168.419537 -106.777196 
L 167.623592 -109.235596 
L 166.827647 -111.38166 
L 166.031702 -113.059185 
L 165.235758 -114.130789 
L 164.439813 -114.534034 
L 163.643868 -114.321777 
L 162.847924 -113.668789 
L 162.051979 -112.840952 
L 161.256034 -112.133114 
L 160.46009 -111.787791 
L 159.664145 -111.915594 
L 158.8682 -112.450065 
L 158.072256 -113.169984 
L 157.276311 -113.79373 
L 156.480366 -114.10383 
L 155.684422 -114.03549 
L 154.888477 -113.686808 
L 154.092532 -113.260962 
L 153.296588 -112.983256 
L 152.500643 -113.024097 
L 151.704698 -113.437984 
L 150.908753 -114.134974 
L 150.112809 -114.912696 
L 149.316864 -115.551694 
L 148.520919 -115.923366 
L 147.724975 -116.039513 
L 146.92903 -116.020443 
L 146.133085 -116.026477 
L 145.337141 -116.204147 
L 144.541196 -116.648221 
L 143.745251 -117.359678 
L 142.949307 -118.214222 
L 142.153362 -118.987388 
L 141.357417 -119.450782 
L 140.561473 -119.481756 
L 139.765528 -119.106706 
L 138.969583 -118.454648 
L 138.173639 -117.669576 
L 137.377694 -116.848026 
L 136.581749 -116.02457 
L 135.785805 -115.185092 
L 134.98986 -114.289367 
L 134.193915 -113.300733 
L 133.39797 -112.217148 
L 132.602026 -111.087599 
L 131.806081 -110.004249 
L 131.010136 -109.076542 
L 130.214192 -108.398638 
L 129.418247 -108.01857 
L 128.622302 -107.921901 
L 127.826358 -108.047034 
L 127.030413 -108.329414 
L 126.234468 -108.739038 
L 125.438524 -109.275186 
L 124.642579 -109.923593 
L 123.846634 -110.619802 
L 123.05069 -111.2537 
L 122.254745 -111.706433 
L 121.4588 -111.88862 
L 120.662856 -111.768061 
L 119.866911 -111.395563 
L 119.070966 -110.922019 
L 118.275021 -110.574423 
L 117.479077 -110.577055 
L 116.683132 -111.059691 
L 115.887187 -112.016469 
L 115.091243 -113.332208 
L 114.295298 -114.837524 
L 113.499353 -116.35059 
L 112.703409 -117.698155 
L 111.907464 -118.737338 
L 111.111519 -119.390221 
L 110.315575 -119.669158 
L 109.51963 -119.663919 
L 108.723685 -119.492562 
L 107.927741 -119.247349 
L 107.131796 -118.967653 
L 106.335851 -118.648225 
L 105.539907 -118.266923 
L 104.743962 -117.809044 
L 103.948017 -117.275836 
L 103.152073 -116.682193 
L 102.356128 -116.057806 
L 101.560183 -115.455958 
L 100.764238 -114.957235 
L 99.968294 -114.65391 
L 99.172349 -114.615384 
L 98.376404 -114.850729 
L 97.58046 -115.289443 
L 96.784515 -115.79373 
L 95.98857 -116.201951 
L 95.192626 -116.390723 
L 94.396681 -116.332352 
L 93.600736 -116.11679 
L 92.804792 -115.915006 
L 92.008847 -115.893798 
L 91.212902 -116.132211 
L 90.416958 -116.588538 
L 89.621013 -117.120321 
L 88.825068 -117.529216 
L 88.029124 -117.611207 
L 87.233179 -117.209367 
L 86.437234 -116.2693 
L 85.641289 -114.883233 
L 84.845345 -113.291407 
L 84.0494 -111.817594 
L 83.253455 -110.754905 
L 82.457511 -110.25615 
L 81.661566 -110.283892 
L 80.865621 -110.639071 
L 80.069677 -111.045779 
L 79.273732 -111.248207 
L 78.477787 -111.082614 
L 77.681843 -110.518519 
L 76.885898 -109.678997 
L 76.089953 -108.825323 
L 75.294009 -108.279898 
L 74.498064 -108.295287 
L 73.702119 -108.921022 
L 72.906175 -109.944753 
L 72.11023 -110.959354 
L 71.314285 -111.524534 
L 70.51834 -111.335843 
L 69.722396 -110.335518 
L 68.926451 -108.74018 
L 68.130506 -106.98123 
L 67.334562 -105.571547 
L 66.538617 -104.943777 
L 65.742672 -105.329067 
L 64.946728 -106.720027 
L 64.150783 -108.906303 
L 63.354838 -111.543996 
L 62.558894 -114.230758 
L 61.762949 -116.579779 
L 60.967004 -118.293415 
L 60.17106 -119.221948 
L 59.375115 -119.380906 
L 58.57917 -118.917737 
L 57.783226 -118.051307 
L 56.987281 -117.021621 
L 56.191336 -116.065164 
L 55.395392 -115.396796 
L 54.599447 -115.173492 
L 53.803502 -115.446546 
L 53.007557 -116.141038 
L 52.211613 -117.087744 
L 51.415668 -118.085013 
L 50.619723 -118.949814 
L 49.823779 -119.545909 
L 49.027834 -119.809904 
L 48.231889 -119.785827 
L 47.435945 -119.637663 
L 46.64 -119.600901 
z
" style="stroke: #377eb8; stroke-opacity: 0.3"/>
    </defs>
    <g clip-path="url(#p7d9bd07c85)">
     <use xlink:href="#mee35df24a7" x="0" y="360" style="fill: #377eb8; fill-opacity: 0.3; stroke: #377eb8; stroke-opacity: 0.3"/>
    </g>
   </g>
   <g id="patch_3">
    <path d="M 229.866466 318.04 
L 229.866466 71.732 
L 331.747385 71.732 
L 331.747385 318.04 
z
" clip-path="url(#p7d9bd07c85)" style="fill: #808080; opacity: 0.3"/>
   </g>
   <g id="matplotlib.axis_1">
    <g id="xtick_1">
     <g id="line2d_1">
      <defs>
       <path id="m0eebf0aad5" d="M 0 0 
L 0 3.5 
" style="stroke: #000000; stroke-width: 0.8"/>
      </defs>
      <g>
       <use xlink:href="#m0eebf0aad5" x="87.233179" y="318.04" style="stroke: #000000; stroke-width: 0.8"/>
      </g>
     </g>
     <g id="text_1">
      <!-- 0.0 -->
      <g transform="translate(79.281616 332.638438)scale(0.1 -0.1)">
       <defs>
        <path id="DejaVuSans-30" d="M 2034 4250 
Q 1547 4250 1301 3770 
Q 1056 3291 1056 2328 
Q 1056 1369 1301 889 
Q 1547 409 2034 409 
Q 2525 409 2770 889 
Q 3016 1369 3016 2328 
Q 3016 3291 2770 3770 
Q 2525 4250 2034 4250 
z
M 2034 4750 
Q 2819 4750 3233 4129 
Q 3647 3509 3647 2328 
Q 3647 1150 3233 529 
Q 2819 -91 2034 -91 
Q 1250 -91 836 529 
Q 422 1150 422 2328 
Q 422 3509 836 4129 
Q 1250 4750 2034 4750 
z
" transform="scale(0.015625)"/>
        <path id="DejaVuSans-2e" d="M 684 794 
L 1344 794 
L 1344 0 
L 684 0 
L 684 794 
z
" transform="scale(0.015625)"/>
       </defs>
       <use xlink:href="#DejaVuSans-30"/>
       <use xlink:href="#DejaVuSans-2e" x="63.623047"/>
       <use xlink:href="#DejaVuSans-30" x="95.410156"/>
      </g>
     </g>
    </g>
    <g id="xtick_2">
     <g id="line2d_2">
      <g>
       <use xlink:href="#m0eebf0aad5" x="168.737914" y="318.04" style="stroke: #000000; stroke-width: 0.8"/>
      </g>
     </g>
     <g id="text_2">
      <!-- 0.2 -->
      <g transform="translate(160.786352 332.638438)scale(0.1 -0.1)">
       <defs>
        <path id="DejaVuSans-32" d="M 1228 531 
L 3431 531 
L 3431 0 
L 469 0 
L 469 531 
Q 828 903 1448 1529 
Q 2069 2156 2228 2338 
Q 2531 2678 2651 2914 
Q 2772 3150 2772 3378 
Q 2772 3750 2511 3984 
Q 2250 4219 1831 4219 
Q 1534 4219 1204 4116 
Q 875 4013 500 3803 
L 500 4441 
Q 881 4594 1212 4672 
Q 1544 4750 1819 4750 
Q 2544 4750 2975 4387 
Q 3406 4025 3406 3419 
Q 3406 3131 3298 2873 
Q 3191 2616 2906 2266 
Q 2828 2175 2409 1742 
Q 1991 1309 1228 531 
z
" transform="scale(0.015625)"/>
       </defs>
       <use xlink:href="#DejaVuSans-30"/>
       <use xlink:href="#DejaVuSans-2e" x="63.623047"/>
       <use xlink:href="#DejaVuSans-32" x="95.410156"/>
      </g>
     </g>
    </g>
    <g id="xtick_3">
     <g id="line2d_3">
      <g>
       <use xlink:href="#m0eebf0aad5" x="250.24265" y="318.04" style="stroke: #000000; stroke-width: 0.8"/>
      </g>
     </g>
     <g id="text_3">
      <!-- 0.4 -->
      <g transform="translate(242.291087 332.638438)scale(0.1 -0.1)">
       <defs>
        <path id="DejaVuSans-34" d="M 2419 4116 
L 825 1625 
L 2419 1625 
L 2419 4116 
z
M 2253 4666 
L 3047 4666 
L 3047 1625 
L 3713 1625 
L 3713 1100 
L 3047 1100 
L 3047 0 
L 2419 0 
L 2419 1100 
L 313 1100 
L 313 1709 
L 2253 4666 
z
" transform="scale(0.015625)"/>
       </defs>
       <use xlink:href="#DejaVuSans-30"/>
       <use xlink:href="#DejaVuSans-2e" x="63.623047"/>
       <use xlink:href="#DejaVuSans-34" x="95.410156"/>
      </g>
     </g>
    </g>
    <g id="xtick_4">
     <g id="line2d_4">
      <g>
       <use xlink:href="#m0eebf0aad5" x="331.747385" y="318.04" style="stroke: #000000; stroke-width: 0.8"/>
      </g>
     </g>
     <g id="text_4">
      <!-- 0.6 -->
      <g transform="translate(323.795823 332.638438)scale(0.1 -0.1)">
       <defs>
        <path id="DejaVuSans-36" d="M 2113 2584 
Q 1688 2584 1439 2293 
Q 1191 2003 1191 1497 
Q 1191 994 1439 701 
Q 1688 409 2113 409 
Q 2538 409 2786 701 
Q 3034 994 3034 1497 
Q 3034 2003 2786 2293 
Q 2538 2584 2113 2584 
z
M 3366 4563 
L 3366 3988 
Q 3128 4100 2886 4159 
Q 2644 4219 2406 4219 
Q 1781 4219 1451 3797 
Q 1122 3375 1075 2522 
Q 1259 2794 1537 2939 
Q 1816 3084 2150 3084 
Q 2853 3084 3261 2657 
Q 3669 2231 3669 1497 
Q 3669 778 3244 343 
Q 2819 -91 2113 -91 
Q 1303 -91 875 529 
Q 447 1150 447 2328 
Q 447 3434 972 4092 
Q 1497 4750 2381 4750 
Q 2619 4750 2861 4703 
Q 3103 4656 3366 4563 
z
" transform="scale(0.015625)"/>
       </defs>
       <use xlink:href="#DejaVuSans-30"/>
       <use xlink:href="#DejaVuSans-2e" x="63.623047"/>
       <use xlink:href="#DejaVuSans-36" x="95.410156"/>
      </g>
     </g>
    </g>
    <g id="xtick_5">
     <g id="line2d_5">
      <g>
       <use xlink:href="#m0eebf0aad5" x="413.252121" y="318.04" style="stroke: #000000; stroke-width: 0.8"/>
      </g>
     </g>
     <g id="text_5">
      <!-- 0.8 -->
      <g transform="translate(405.300559 332.638438)scale(0.1 -0.1)">
       <defs>
        <path id="DejaVuSans-38" d="M 2034 2216 
Q 1584 2216 1326 1975 
Q 1069 1734 1069 1313 
Q 1069 891 1326 650 
Q 1584 409 2034 409 
Q 2484 409 2743 651 
Q 3003 894 3003 1313 
Q 3003 1734 2745 1975 
Q 2488 2216 2034 2216 
z
M 1403 2484 
Q 997 2584 770 2862 
Q 544 3141 544 3541 
Q 544 4100 942 4425 
Q 1341 4750 2034 4750 
Q 2731 4750 3128 4425 
Q 3525 4100 3525 3541 
Q 3525 3141 3298 2862 
Q 3072 2584 2669 2484 
Q 3125 2378 3379 2068 
Q 3634 1759 3634 1313 
Q 3634 634 3220 271 
Q 2806 -91 2034 -91 
Q 1263 -91 848 271 
Q 434 634 434 1313 
Q 434 1759 690 2068 
Q 947 2378 1403 2484 
z
M 1172 3481 
Q 1172 3119 1398 2916 
Q 1625 2713 2034 2713 
Q 2441 2713 2670 2916 
Q 2900 3119 2900 3481 
Q 2900 3844 2670 4047 
Q 2441 4250 2034 4250 
Q 1625 4250 1398 4047 
Q 1172 3844 1172 3481 
z
" transform="scale(0.015625)"/>
       </defs>
       <use xlink:href="#DejaVuSans-30"/>
       <use xlink:href="#DejaVuSans-2e" x="63.623047"/>
       <use xlink:href="#DejaVuSans-38" x="95.410156"/>
      </g>
     </g>
    </g>
    <g id="text_6">
     <!-- seconds -->
     <g transform="translate(209.667749 346.316563)scale(0.1 -0.1)">
      <defs>
       <path id="DejaVuSans-73" d="M 2834 3397 
L 2834 2853 
Q 2591 2978 2328 3040 
Q 2066 3103 1784 3103 
Q 1356 3103 1142 2972 
Q 928 2841 928 2578 
Q 928 2378 1081 2264 
Q 1234 2150 1697 2047 
L 1894 2003 
Q 2506 1872 2764 1633 
Q 3022 1394 3022 966 
Q 3022 478 2636 193 
Q 2250 -91 1575 -91 
Q 1294 -91 989 -36 
Q 684 19 347 128 
L 347 722 
Q 666 556 975 473 
Q 1284 391 1588 391 
Q 1994 391 2212 530 
Q 2431 669 2431 922 
Q 2431 1156 2273 1281 
Q 2116 1406 1581 1522 
L 1381 1569 
Q 847 1681 609 1914 
Q 372 2147 372 2553 
Q 372 3047 722 3315 
Q 1072 3584 1716 3584 
Q 2034 3584 2315 3537 
Q 2597 3491 2834 3397 
z
" transform="scale(0.015625)"/>
       <path id="DejaVuSans-65" d="M 3597 1894 
L 3597 1613 
L 953 1613 
Q 991 1019 1311 708 
Q 1631 397 2203 397 
Q 2534 397 2845 478 
Q 3156 559 3463 722 
L 3463 178 
Q 3153 47 2828 -22 
Q 2503 -91 2169 -91 
Q 1331 -91 842 396 
Q 353 884 353 1716 
Q 353 2575 817 3079 
Q 1281 3584 2069 3584 
Q 2775 3584 3186 3129 
Q 3597 2675 3597 1894 
z
M 3022 2063 
Q 3016 2534 2758 2815 
Q 2500 3097 2075 3097 
Q 1594 3097 1305 2825 
Q 1016 2553 972 2059 
L 3022 2063 
z
" transform="scale(0.015625)"/>
       <path id="DejaVuSans-63" d="M 3122 3366 
L 3122 2828 
Q 2878 2963 2633 3030 
Q 2388 3097 2138 3097 
Q 1578 3097 1268 2742 
Q 959 2388 959 1747 
Q 959 1106 1268 751 
Q 1578 397 2138 397 
Q 2388 397 2633 464 
Q 2878 531 3122 666 
L 3122 134 
Q 2881 22 2623 -34 
Q 2366 -91 2075 -91 
Q 1284 -91 818 406 
Q 353 903 353 1747 
Q 353 2603 823 3093 
Q 1294 3584 2113 3584 
Q 2378 3584 2631 3529 
Q 2884 3475 3122 3366 
z
" transform="scale(0.015625)"/>
       <path id="DejaVuSans-6f" d="M 1959 3097 
Q 1497 3097 1228 2736 
Q 959 2375 959 1747 
Q 959 1119 1226 758 
Q 1494 397 1959 397 
Q 2419 397 2687 759 
Q 2956 1122 2956 1747 
Q 2956 2369 2687 2733 
Q 2419 3097 1959 3097 
z
M 1959 3584 
Q 2709 3584 3137 3096 
Q 3566 2609 3566 1747 
Q 3566 888 3137 398 
Q 2709 -91 1959 -91 
Q 1206 -91 779 398 
Q 353 888 353 1747 
Q 353 2609 779 3096 
Q 1206 3584 1959 3584 
z
" transform="scale(0.015625)"/>
       <path id="DejaVuSans-6e" d="M 3513 2113 
L 3513 0 
L 2938 0 
L 2938 2094 
Q 2938 2591 2744 2837 
Q 2550 3084 2163 3084 
Q 1697 3084 1428 2787 
Q 1159 2491 1159 1978 
L 1159 0 
L 581 0 
L 581 3500 
L 1159 3500 
L 1159 2956 
Q 1366 3272 1645 3428 
Q 1925 3584 2291 3584 
Q 2894 3584 3203 3211 
Q 3513 2838 3513 2113 
z
" transform="scale(0.015625)"/>
       <path id="DejaVuSans-64" d="M 2906 2969 
L 2906 4863 
L 3481 4863 
L 3481 0 
L 2906 0 
L 2906 525 
Q 2725 213 2448 61 
Q 2172 -91 1784 -91 
Q 1150 -91 751 415 
Q 353 922 353 1747 
Q 353 2572 751 3078 
Q 1150 3584 1784 3584 
Q 2172 3584 2448 3432 
Q 2725 3281 2906 2969 
z
M 947 1747 
Q 947 1113 1208 752 
Q 1469 391 1925 391 
Q 2381 391 2643 752 
Q 2906 1113 2906 1747 
Q 2906 2381 2643 2742 
Q 2381 3103 1925 3103 
Q 1469 3103 1208 2742 
Q 947 2381 947 1747 
z
" transform="scale(0.015625)"/>
      </defs>
      <use xlink:href="#DejaVuSans-73"/>
      <use xlink:href="#DejaVuSans-65" x="52.099609"/>
      <use xlink:href="#DejaVuSans-63" x="113.623047"/>
      <use xlink:href="#DejaVuSans-6f" x="168.603516"/>
      <use xlink:href="#DejaVuSans-6e" x="229.785156"/>
      <use xlink:href="#DejaVuSans-64" x="293.164062"/>
      <use xlink:href="#DejaVuSans-73" x="356.640625"/>
     </g>
    </g>
   </g>
   <g id="matplotlib.axis_2">
    <g id="ytick_1">
     <g id="line2d_6">
      <defs>
       <path id="m248db132d0" d="M 0 0 
L -3.5 0 
" style="stroke: #000000; stroke-width: 0.8"/>
      </defs>
      <g>
       <use xlink:href="#m248db132d0" x="46.64" y="316.402628" style="stroke: #000000; stroke-width: 0.8"/>
      </g>
     </g>
     <g id="text_7">
      <!-- 2 -->
      <g transform="translate(24.897813 320.201846)scale(0.1 -0.1)">
       <defs>
        <path id="DejaVuSans-2212" d="M 678 2272 
L 4684 2272 
L 4684 1741 
L 678 1741 
L 678 2272 
z
" transform="scale(0.015625)"/>
       </defs>
       <use xlink:href="#DejaVuSans-2212"/>
       <use xlink:href="#DejaVuSans-32" x="83.789062"/>
      </g>
     </g>
    </g>
    <g id="ytick_2">
     <g id="line2d_7">
      <g>
       <use xlink:href="#m248db132d0" x="46.64" y="284.95215" style="stroke: #000000; stroke-width: 0.8"/>
      </g>
     </g>
     <g id="text_8">
      <!-- 1 -->
      <g transform="translate(24.897813 288.751369)scale(0.1 -0.1)">
       <defs>
        <path id="DejaVuSans-31" d="M 794 531 
L 1825 531 
L 1825 4091 
L 703 3866 
L 703 4441 
L 1819 4666 
L 2450 4666 
L 2450 531 
L 3481 531 
L 3481 0 
L 794 0 
L 794 531 
z
" transform="scale(0.015625)"/>
       </defs>
       <use xlink:href="#DejaVuSans-2212"/>
       <use xlink:href="#DejaVuSans-31" x="83.789062"/>
      </g>
     </g>
    </g>
    <g id="ytick_3">
     <g id="line2d_8">
      <g>
       <use xlink:href="#m248db132d0" x="46.64" y="253.501673" style="stroke: #000000; stroke-width: 0.8"/>
      </g>
     </g>
     <g id="text_9">
      <!-- 0 -->
      <g transform="translate(33.2775 257.300891)scale(0.1 -0.1)">
       <use xlink:href="#DejaVuSans-30"/>
      </g>
     </g>
    </g>
    <g id="ytick_4">
     <g id="line2d_9">
      <g>
       <use xlink:href="#m248db132d0" x="46.64" y="222.051195" style="stroke: #000000; stroke-width: 0.8"/>
      </g>
     </g>
     <g id="text_10">
      <!-- 1 -->
      <g transform="translate(33.2775 225.850414)scale(0.1 -0.1)">
       <use xlink:href="#DejaVuSans-31"/>
      </g>
     </g>
    </g>
    <g id="ytick_5">
     <g id="line2d_10">
      <g>
       <use xlink:href="#m248db132d0" x="46.64" y="190.600718" style="stroke: #000000; stroke-width: 0.8"/>
      </g>
     </g>
     <g id="text_11">
      <!-- 2 -->
      <g transform="translate(33.2775 194.399936)scale(0.1 -0.1)">
       <use xlink:href="#DejaVuSans-32"/>
      </g>
     </g>
    </g>
    <g id="ytick_6">
     <g id="line2d_11">
      <g>
       <use xlink:href="#m248db132d0" x="46.64" y="159.15024" style="stroke: #000000; stroke-width: 0.8"/>
      </g>
     </g>
     <g id="text_12">
      <!-- 3 -->
      <g transform="translate(33.2775 162.949459)scale(0.1 -0.1)">
       <defs>
        <path id="DejaVuSans-33" d="M 2597 2516 
Q 3050 2419 3304 2112 
Q 3559 1806 3559 1356 
Q 3559 666 3084 287 
Q 2609 -91 1734 -91 
Q 1441 -91 1130 -33 
Q 819 25 488 141 
L 488 750 
Q 750 597 1062 519 
Q 1375 441 1716 441 
Q 2309 441 2620 675 
Q 2931 909 2931 1356 
Q 2931 1769 2642 2001 
Q 2353 2234 1838 2234 
L 1294 2234 
L 1294 2753 
L 1863 2753 
Q 2328 2753 2575 2939 
Q 2822 3125 2822 3475 
Q 2822 3834 2567 4026 
Q 2313 4219 1838 4219 
Q 1578 4219 1281 4162 
Q 984 4106 628 3988 
L 628 4550 
Q 988 4650 1302 4700 
Q 1616 4750 1894 4750 
Q 2613 4750 3031 4423 
Q 3450 4097 3450 3541 
Q 3450 3153 3228 2886 
Q 3006 2619 2597 2516 
z
" transform="scale(0.015625)"/>
       </defs>
       <use xlink:href="#DejaVuSans-33"/>
      </g>
     </g>
    </g>
    <g id="ytick_7">
     <g id="line2d_12">
      <g>
       <use xlink:href="#m248db132d0" x="46.64" y="127.699763" style="stroke: #000000; stroke-width: 0.8"/>
      </g>
     </g>
     <g id="text_13">
      <!-- 4 -->
      <g transform="translate(33.2775 131.498982)scale(0.1 -0.1)">
       <use xlink:href="#DejaVuSans-34"/>
      </g>
     </g>
    </g>
    <g id="ytick_8">
     <g id="line2d_13">
      <g>
       <use xlink:href="#m248db132d0" x="46.64" y="96.249285" style="stroke: #000000; stroke-width: 0.8"/>
      </g>
     </g>
     <g id="text_14">
      <!-- 5 -->
      <g transform="translate(33.2775 100.048504)scale(0.1 -0.1)">
       <defs>
        <path id="DejaVuSans-35" d="M 691 4666 
L 3169 4666 
L 3169 4134 
L 1269 4134 
L 1269 2991 
Q 1406 3038 1543 3061 
Q 1681 3084 1819 3084 
Q 2600 3084 3056 2656 
Q 3513 2228 3513 1497 
Q 3513 744 3044 326 
Q 2575 -91 1722 -91 
Q 1428 -91 1123 -41 
Q 819 9 494 109 
L 494 744 
Q 775 591 1075 516 
Q 1375 441 1709 441 
Q 2250 441 2565 725 
Q 2881 1009 2881 1497 
Q 2881 1984 2565 2268 
Q 2250 2553 1709 2553 
Q 1456 2553 1204 2497 
Q 953 2441 691 2322 
L 691 4666 
z
" transform="scale(0.015625)"/>
       </defs>
       <use xlink:href="#DejaVuSans-35"/>
      </g>
     </g>
    </g>
    <g id="text_15">
     <!-- V -->
     <g transform="translate(18.818125 201.487562)rotate(-90)scale(0.1 -0.1)">
      <defs>
       <path id="DejaVuSans-b5" d="M 544 -1331 
L 544 3500 
L 1119 3500 
L 1119 1325 
Q 1119 872 1334 640 
Q 1550 409 1972 409 
Q 2434 409 2667 671 
Q 2900 934 2900 1459 
L 2900 3500 
L 3475 3500 
L 3475 806 
Q 3475 619 3529 530 
Q 3584 441 3700 441 
Q 3728 441 3778 458 
Q 3828 475 3916 513 
L 3916 50 
Q 3788 -22 3673 -56 
Q 3559 -91 3450 -91 
Q 3234 -91 3106 31 
Q 2978 153 2931 403 
Q 2775 156 2548 32 
Q 2322 -91 2016 -91 
Q 1697 -91 1473 31 
Q 1250 153 1119 397 
L 1119 -1331 
L 544 -1331 
z
" transform="scale(0.015625)"/>
       <path id="DejaVuSans-56" d="M 1831 0 
L 50 4666 
L 709 4666 
L 2188 738 
L 3669 4666 
L 4325 4666 
L 2547 0 
L 1831 0 
z
" transform="scale(0.015625)"/>
      </defs>
      <use xlink:href="#DejaVuSans-b5"/>
      <use xlink:href="#DejaVuSans-56" x="63.623047"/>
     </g>
    </g>
   </g>
   <g id="line2d_14">
    <path d="M 46.64 263.024659 
L 47.435945 262.497268 
L 49.027834 260.543152 
L 49.823779 260.007146 
L 50.619723 260.012739 
L 51.415668 260.452879 
L 52.211613 261.064175 
L 53.007557 261.529153 
L 53.803502 261.564541 
L 54.599447 260.972484 
L 55.395392 259.655087 
L 56.191336 257.609559 
L 56.987281 254.922812 
L 60.17106 242.532735 
L 60.967004 240.642985 
L 61.762949 239.716283 
L 62.558894 239.713471 
L 63.354838 240.405878 
L 65.742672 243.425598 
L 67.334562 244.986805 
L 68.130506 246.158621 
L 68.926451 247.933657 
L 69.722396 250.354753 
L 71.314285 256.036275 
L 72.11023 258.338039 
L 72.906175 259.691435 
L 73.702119 259.936908 
L 74.498064 259.230323 
L 76.089953 256.703218 
L 76.885898 255.808106 
L 77.681843 255.470938 
L 80.069677 255.72311 
L 80.865621 255.126623 
L 81.661566 254.013221 
L 82.457511 252.689062 
L 83.253455 251.65384 
L 84.0494 251.415306 
L 84.845345 252.285937 
L 85.641289 254.237819 
L 87.233179 259.505813 
L 88.029124 261.382286 
L 88.825068 261.883382 
L 89.621013 260.72779 
L 90.416958 258.058223 
L 92.804792 247.174329 
L 93.600736 244.940008 
L 94.396681 244.030792 
L 95.192626 244.280809 
L 97.58046 247.037157 
L 98.376404 247.201147 
L 99.968294 246.581899 
L 100.764238 246.699116 
L 101.560183 247.679845 
L 102.356128 249.655825 
L 104.743962 257.936737 
L 105.539907 259.503032 
L 106.335851 259.813766 
L 107.131796 258.993131 
L 108.723685 255.982725 
L 109.51963 254.988715 
L 110.315575 254.825221 
L 111.111519 255.443839 
L 112.703409 257.546378 
L 113.499353 258.206109 
L 114.295298 258.370768 
L 115.887187 258.096576 
L 116.683132 258.362764 
L 117.479077 259.154978 
L 119.070966 261.377654 
L 119.866911 261.842568 
L 120.662856 261.31267 
L 121.4588 259.73625 
L 123.05069 255.132571 
L 123.846634 253.466497 
L 124.642579 252.980351 
L 125.438524 253.800349 
L 126.234468 255.620456 
L 127.826358 259.770175 
L 128.622302 260.974777 
L 129.418247 261.362978 
L 131.010136 261.184571 
L 131.806081 261.767141 
L 132.602026 263.374169 
L 133.39797 266.050635 
L 136.581749 279.660316 
L 137.377694 281.732163 
L 138.173639 282.963215 
L 138.969583 283.403614 
L 139.765528 283.077595 
L 140.561473 281.94076 
L 141.357417 279.918723 
L 142.153362 277.005469 
L 145.337141 262.514227 
L 146.133085 260.58936 
L 146.92903 259.881137 
L 147.724975 260.117313 
L 148.520919 260.752925 
L 149.316864 261.155601 
L 150.112809 260.827862 
L 150.908753 259.583827 
L 153.296588 253.612588 
L 154.092532 252.726288 
L 154.888477 252.994662 
L 155.684422 254.281838 
L 157.276311 257.868273 
L 158.072256 258.909886 
L 158.8682 258.859081 
L 159.664145 257.673806 
L 162.051979 251.529293 
L 162.847924 250.607316 
L 163.643868 250.941305 
L 164.439813 252.523372 
L 165.235758 255.052278 
L 166.827647 260.927806 
L 167.623592 263.286863 
L 168.419537 264.860217 
L 169.215481 265.620958 
L 170.011426 265.723287 
L 170.807371 265.407515 
L 172.39926 264.287424 
L 173.195205 263.582498 
L 173.991149 262.674754 
L 174.787094 261.45786 
L 176.378983 258.132223 
L 177.174928 256.35965 
L 177.970873 254.861143 
L 178.766817 253.837802 
L 179.562762 253.315359 
L 181.154651 252.784505 
L 181.950596 251.920308 
L 182.746541 250.119263 
L 183.542485 247.227847 
L 185.134375 239.082274 
L 185.93032 234.893065 
L 186.726264 231.459911 
L 187.522209 229.245039 
L 188.318154 228.430034 
L 189.114098 228.887933 
L 189.910043 230.244132 
L 191.501932 233.645443 
L 192.297877 234.800452 
L 193.093822 235.223667 
L 193.889766 234.82803 
L 194.685711 233.642021 
L 195.481656 231.771661 
L 197.073545 226.680168 
L 198.665434 221.501972 
L 199.461379 219.65877 
L 200.257324 218.665198 
L 201.053269 218.616414 
L 201.849213 219.404186 
L 204.237047 223.2095 
L 205.032992 223.650471 
L 205.828937 223.402364 
L 207.420826 221.867341 
L 208.216771 221.434135 
L 209.012715 221.706967 
L 209.80866 222.766715 
L 212.196494 227.432689 
L 212.992439 227.830477 
L 213.788383 227.117562 
L 214.584328 225.406618 
L 216.176218 220.73082 
L 216.972162 218.819034 
L 217.768107 217.651245 
L 218.564052 217.200791 
L 219.359996 217.129364 
L 220.155941 216.899824 
L 220.951886 215.958924 
L 221.74783 213.930981 
L 222.543775 210.760274 
L 224.931609 198.824188 
L 225.727554 196.337594 
L 226.523498 195.513227 
L 227.319443 196.430879 
L 228.115388 198.782782 
L 229.707277 205.172267 
L 230.503222 207.707977 
L 231.299166 209.033984 
L 232.095111 208.942738 
L 232.891056 207.57173 
L 235.27889 200.662567 
L 236.074835 199.262875 
L 236.870779 198.883213 
L 237.666724 199.513818 
L 238.462669 200.934394 
L 240.850503 206.361152 
L 241.646447 207.483412 
L 242.442392 207.936238 
L 243.238337 207.652824 
L 244.034281 206.624767 
L 244.830226 204.890863 
L 245.626171 202.542483 
L 248.80995 191.100254 
L 249.605894 189.022589 
L 250.401839 187.570986 
L 251.197784 186.638647 
L 252.789673 185.192059 
L 253.585618 184.03004 
L 254.381562 182.330668 
L 256.769396 176.015526 
L 257.565341 174.940224 
L 258.361286 175.012465 
L 259.15723 176.265306 
L 259.953175 178.409851 
L 261.545064 183.040883 
L 262.341009 184.222905 
L 263.136954 184.014263 
L 263.932898 182.277687 
L 264.728843 179.164611 
L 266.320733 170.366167 
L 267.912622 161.060056 
L 268.708567 157.015661 
L 269.504511 153.59449 
L 270.300456 150.879183 
L 271.096401 148.927481 
L 271.892345 147.775373 
L 272.68829 147.409769 
L 273.484235 147.727297 
L 275.872069 150.111915 
L 276.668013 150.265382 
L 277.463958 149.744564 
L 278.259903 148.643049 
L 279.055847 147.28616 
L 279.851792 146.149465 
L 280.647737 145.716008 
L 281.443682 146.316254 
L 282.239626 148.00564 
L 284.62746 155.914458 
L 285.423405 157.645639 
L 286.21935 158.280375 
L 287.015294 157.867304 
L 289.403128 154.445139 
L 290.199073 154.078016 
L 290.995018 154.409821 
L 291.790962 155.268404 
L 293.382852 157.379202 
L 294.974741 158.912196 
L 295.770686 159.675087 
L 296.56663 160.723414 
L 297.362575 162.158161 
L 298.954465 165.515285 
L 299.750409 166.65201 
L 300.546354 166.855504 
L 301.342299 165.896981 
L 302.138243 163.834123 
L 304.526077 155.129049 
L 305.322022 153.021083 
L 306.117967 151.790125 
L 306.913911 151.415069 
L 307.709856 151.745405 
L 308.505801 152.6091 
L 309.301745 153.89113 
L 310.09769 155.545123 
L 311.689579 159.761603 
L 312.485524 161.977016 
L 313.281469 163.825084 
L 314.077414 164.929836 
L 314.873358 165.051621 
L 315.669303 164.225238 
L 317.261192 161.421312 
L 318.057137 160.720925 
L 318.853082 161.186654 
L 319.649026 162.90219 
L 321.240916 168.212192 
L 322.03686 170.231669 
L 322.832805 170.915243 
L 323.62875 170.088375 
L 324.424694 168.121775 
L 325.220639 165.813134 
L 326.016584 164.100429 
L 326.812528 163.711726 
L 327.608473 164.883876 
L 328.404418 167.257567 
L 329.200363 169.989668 
L 329.996307 172.042479 
L 330.792252 172.543489 
L 331.588197 171.08341 
L 332.384141 167.846094 
L 334.771975 155.477539 
L 335.56792 153.240452 
L 336.363865 152.512161 
L 337.159809 152.980703 
L 338.751699 155.203629 
L 339.547643 155.953358 
L 340.343588 156.201053 
L 341.935477 155.930794 
L 342.731422 156.020433 
L 343.527367 156.546148 
L 344.323311 157.515788 
L 346.711146 161.344119 
L 347.50709 162.306879 
L 348.303035 162.997422 
L 349.894924 163.828438 
L 351.486814 164.328276 
L 352.282758 164.388942 
L 353.078703 164.161655 
L 353.874648 163.493126 
L 354.670592 162.255793 
L 355.466537 160.391411 
L 356.262482 157.949247 
L 358.650316 149.638125 
L 359.44626 147.895498 
L 360.242205 147.37716 
L 361.03815 148.312934 
L 361.834095 150.659648 
L 363.425984 157.880962 
L 364.221929 161.349248 
L 365.017873 163.736483 
L 365.813818 164.564322 
L 366.609763 163.752267 
L 367.405707 161.658078 
L 368.997597 156.585413 
L 369.793541 155.186735 
L 370.589486 155.173661 
L 371.385431 156.448635 
L 372.97732 160.312942 
L 373.773265 161.141334 
L 374.569209 160.283116 
L 375.365154 157.54175 
L 376.161099 153.241581 
L 377.752988 143.152798 
L 378.548933 139.16269 
L 379.344878 136.67903 
L 380.140822 135.753687 
L 380.936767 135.997872 
L 381.732712 136.751587 
L 382.528656 137.334811 
L 383.324601 137.292315 
L 384.120546 136.547754 
L 385.712435 134.462975 
L 386.50838 134.28763 
L 387.304324 135.268557 
L 388.100269 137.40648 
L 389.692158 143.261172 
L 390.488103 145.564156 
L 391.284048 146.681573 
L 392.079992 146.480563 
L 392.875937 145.27393 
L 393.671882 143.719782 
L 394.467827 142.602465 
L 395.263771 142.570059 
L 396.059716 143.916952 
L 396.855661 146.482596 
L 398.44755 152.758396 
L 399.243495 154.875836 
L 400.039439 155.513477 
L 400.835384 154.550601 
L 401.631329 152.32162 
L 403.223218 147.023981 
L 404.019163 145.604743 
L 404.815107 145.73643 
L 405.611052 147.415402 
L 407.202941 152.942209 
L 407.998886 154.749045 
L 408.794831 154.545307 
L 409.590775 151.744738 
L 410.38672 146.396493 
L 412.774554 125.053162 
L 413.570499 120.965596 
L 413.570499 120.965596 
" clip-path="url(#p7d9bd07c85)" style="fill: none; stroke: #e41a1c; stroke-width: 1.5; stroke-linecap: square"/>
   </g>
   <g id="line2d_15">
    <path d="M 46.64 248.264464 
L 49.027834 247.647865 
L 49.823779 247.74383 
L 50.619723 248.179081 
L 52.211613 249.783178 
L 53.007557 250.607851 
L 53.803502 251.185458 
L 54.599447 251.373063 
L 55.395392 251.11298 
L 56.191336 250.444093 
L 58.57917 247.594434 
L 59.375115 247.132478 
L 60.17106 247.293455 
L 60.967004 248.212286 
L 61.762949 249.901601 
L 62.558894 252.224065 
L 64.150783 257.515403 
L 64.946728 259.663556 
L 65.742672 260.981944 
L 66.538617 261.280562 
L 67.334562 260.596307 
L 68.130506 259.193969 
L 69.722396 255.989626 
L 70.51834 255.045543 
L 71.314285 254.856782 
L 72.11023 255.367796 
L 73.702119 257.302771 
L 74.498064 257.984049 
L 75.294009 258.134781 
L 76.089953 257.743944 
L 78.477787 255.651204 
L 79.273732 255.525992 
L 80.069677 255.817287 
L 81.661566 256.778463 
L 82.457511 256.853563 
L 83.253455 256.378932 
L 84.0494 255.354856 
L 86.437234 251.29962 
L 87.233179 250.577267 
L 88.029124 250.418417 
L 88.825068 250.739264 
L 91.212902 252.441446 
L 92.008847 252.654397 
L 92.804792 252.631972 
L 94.396681 252.371849 
L 95.192626 252.408984 
L 95.98857 252.655386 
L 99.172349 254.350562 
L 99.968294 254.391206 
L 100.764238 254.158437 
L 101.560183 253.690435 
L 104.743962 251.224194 
L 106.335851 250.526348 
L 107.927741 250.155134 
L 109.51963 249.994395 
L 110.315575 250.107737 
L 111.111519 250.476021 
L 111.907464 251.185959 
L 112.703409 252.270235 
L 114.295298 255.263196 
L 115.091243 256.820106 
L 115.887187 258.124023 
L 116.683132 258.999354 
L 117.479077 259.37131 
L 118.275021 259.289388 
L 120.662856 258.135316 
L 121.4588 258.092436 
L 122.254745 258.375405 
L 123.05069 258.936639 
L 126.234468 261.767935 
L 127.030413 262.2327 
L 127.826358 262.544413 
L 128.622302 262.681443 
L 129.418247 262.606067 
L 130.214192 262.276413 
L 131.010136 261.671055 
L 131.806081 260.811552 
L 135.785805 255.604223 
L 138.173639 253.177521 
L 138.969583 252.485571 
L 139.765528 251.981282 
L 140.561473 251.783963 
L 141.357417 251.972279 
L 142.153362 252.535538 
L 144.541196 254.986935 
L 145.337141 255.445777 
L 146.133085 255.597281 
L 147.724975 255.489459 
L 148.520919 255.616177 
L 149.316864 256.040534 
L 152.500643 258.700808 
L 153.296588 258.727067 
L 154.092532 258.420264 
L 155.684422 257.623259 
L 156.480366 257.578743 
L 157.276311 257.910738 
L 159.664145 259.773031 
L 160.46009 259.935602 
L 161.256034 259.663704 
L 163.643868 257.793632 
L 164.439813 257.685825 
L 165.235758 258.176701 
L 166.031702 259.310735 
L 166.827647 261.028473 
L 167.623592 263.209011 
L 169.215481 268.422623 
L 171.603315 276.637661 
L 172.39926 278.982534 
L 173.195205 280.886483 
L 173.991149 282.233246 
L 174.787094 282.979372 
L 175.583039 283.178138 
L 176.378983 282.973711 
L 178.766817 281.82029 
L 181.154651 281.298705 
L 181.950596 280.858012 
L 182.746541 280.106165 
L 184.33843 277.858294 
L 185.134375 276.695475 
L 185.93032 275.796428 
L 186.726264 275.332752 
L 187.522209 275.373094 
L 188.318154 275.859539 
L 189.910043 277.405489 
L 190.705988 277.958392 
L 191.501932 278.063985 
L 192.297877 277.600996 
L 193.093822 276.562492 
L 193.889766 275.050943 
L 196.2776 269.675682 
L 197.073545 268.290582 
L 197.86949 267.32471 
L 198.665434 266.779926 
L 199.461379 266.56844 
L 201.053269 266.475375 
L 201.849213 266.207294 
L 202.645158 265.583502 
L 203.441103 264.54078 
L 204.237047 263.114552 
L 206.624881 258.087622 
L 207.420826 256.793493 
L 208.216771 255.881648 
L 209.012715 255.314276 
L 210.604605 254.588083 
L 211.400549 254.027435 
L 212.196494 253.136654 
L 212.992439 251.900524 
L 214.584328 248.971658 
L 215.380273 247.789466 
L 216.176218 247.158347 
L 216.972162 247.267111 
L 217.768107 248.182368 
L 218.564052 249.838083 
L 220.155941 254.586155 
L 221.74783 259.517321 
L 222.543775 261.471748 
L 223.33972 262.899521 
L 224.135664 263.766441 
L 224.931609 264.128573 
L 225.727554 264.128658 
L 227.319443 263.94234 
L 228.115388 264.26166 
L 228.911332 265.125652 
L 229.707277 266.603231 
L 230.503222 268.61287 
L 232.095111 273.211794 
L 232.891056 275.118044 
L 233.687001 276.362136 
L 234.482945 276.808568 
L 235.27889 276.505003 
L 236.074835 275.664489 
L 237.666724 273.617381 
L 238.462669 272.944068 
L 239.258613 272.64798 
L 241.646447 272.671745 
L 242.442392 272.311145 
L 243.238337 271.599377 
L 245.626171 268.848291 
L 246.422115 268.492266 
L 247.21806 268.666904 
L 248.014005 269.325904 
L 249.605894 271.273548 
L 250.401839 272.00238 
L 251.197784 272.243362 
L 251.993728 271.884325 
L 252.789673 270.95624 
L 255.177507 266.836558 
L 255.973452 265.946197 
L 256.769396 265.660071 
L 257.565341 266.025397 
L 258.361286 266.94265 
L 259.953175 269.428756 
L 260.74912 270.353326 
L 261.545064 270.685386 
L 262.341009 270.28017 
L 263.136954 269.155508 
L 264.728843 265.572774 
L 265.524788 263.739123 
L 266.320733 262.273427 
L 267.116677 261.343979 
L 267.912622 260.967543 
L 268.708567 261.02158 
L 270.300456 261.580327 
L 271.096401 261.715801 
L 271.892345 261.660404 
L 273.484235 261.309559 
L 274.280179 261.293347 
L 275.076124 261.521546 
L 275.872069 261.996776 
L 278.259903 263.880785 
L 279.055847 264.272755 
L 279.851792 264.46708 
L 281.443682 264.427246 
L 283.035571 264.02638 
L 283.831516 263.621831 
L 284.62746 263.00232 
L 286.21935 261.168488 
L 287.015294 260.205366 
L 287.811239 259.496606 
L 288.607184 259.2554 
L 289.403128 259.603092 
L 290.199073 260.515316 
L 292.586907 264.429393 
L 293.382852 265.214437 
L 294.178796 265.49239 
L 294.974741 265.341866 
L 296.56663 264.61349 
L 297.362575 264.492717 
L 298.15852 264.702544 
L 298.954465 265.209199 
L 300.546354 266.483044 
L 301.342299 266.865869 
L 302.138243 266.893938 
L 302.934188 266.530232 
L 303.730133 265.818291 
L 305.322022 263.782781 
L 306.913911 261.858771 
L 307.709856 261.303378 
L 308.505801 261.201148 
L 309.301745 261.650482 
L 310.09769 262.682694 
L 310.893635 264.232835 
L 313.281469 269.890826 
L 314.077414 271.207266 
L 314.873358 271.912435 
L 315.669303 272.003577 
L 316.465248 271.621363 
L 318.057137 270.396091 
L 318.853082 269.995994 
L 319.649026 269.875411 
L 322.832805 270.24851 
L 323.62875 269.978811 
L 326.016584 268.880492 
L 326.812528 268.810771 
L 328.404418 269.178169 
L 329.200363 269.381361 
L 329.996307 269.425281 
L 330.792252 269.250924 
L 333.180086 268.116462 
L 333.976031 267.976464 
L 334.771975 268.093369 
L 337.159809 269.117672 
L 337.955754 269.185771 
L 338.751699 268.962087 
L 340.343588 267.920169 
L 341.139533 267.412152 
L 341.935477 267.116312 
L 342.731422 267.094518 
L 345.915201 267.831209 
L 346.711146 267.566582 
L 349.09898 266.049231 
L 349.894924 265.781949 
L 350.690869 265.750957 
L 352.282758 266.014123 
L 353.078703 265.999787 
L 353.874648 265.742287 
L 356.262482 264.221249 
L 357.058426 264.062496 
L 357.854371 264.325451 
L 358.650316 265.001936 
L 361.834095 268.788327 
L 364.221929 270.710609 
L 365.017873 271.609881 
L 367.405707 274.714156 
L 368.201652 275.192554 
L 368.997597 275.114383 
L 369.793541 274.529949 
L 371.385431 272.906697 
L 372.181375 272.604529 
L 372.97732 273.037704 
L 373.773265 274.278192 
L 374.569209 276.170263 
L 376.161099 280.464164 
L 376.957043 282.054822 
L 377.752988 282.900027 
L 378.548933 282.948133 
L 379.344878 282.332068 
L 382.528656 278.333093 
L 383.324601 277.797279 
L 384.91649 277.168397 
L 386.50838 276.497248 
L 390.488103 274.278643 
L 392.079992 273.858793 
L 392.875937 273.829677 
L 393.671882 273.948625 
L 394.467827 274.227392 
L 396.059716 275.168145 
L 397.651605 276.102631 
L 398.44755 276.317188 
L 399.243495 276.282936 
L 400.039439 276.021452 
L 401.631329 275.24302 
L 402.427273 275.019928 
L 403.223218 275.064262 
L 404.019163 275.400577 
L 406.406997 277.150552 
L 407.202941 277.482842 
L 407.998886 277.544464 
L 410.38672 277.012722 
L 411.182665 277.141604 
L 411.97861 277.637758 
L 412.774554 278.518739 
L 413.570499 279.732185 
L 413.570499 279.732185 
" clip-path="url(#p7d9bd07c85)" style="fill: none; stroke: #377eb8; stroke-width: 1.5; stroke-linecap: square"/>
   </g>
   <g id="line2d_16">
    <path d="M 87.233179 318.04 
L 87.233179 71.732 
" clip-path="url(#p7d9bd07c85)" style="fill: none; stroke: #000000; stroke-width: 0.5; stroke-linecap: square"/>
   </g>
   <g id="line2d_17">
    <path d="M 46.64 253.501673 
L 413.570499 253.501673 
" clip-path="url(#p7d9bd07c85)" style="fill: none; stroke: #000000; stroke-width: 0.5; stroke-linecap: square"/>
   </g>
   <g id="patch_4">
    <path d="M 46.64 318.04 
L 46.64 71.732 
" style="fill: none; stroke: #000000; stroke-width: 0.8; stroke-linejoin: miter; stroke-linecap: square"/>
   </g>
   <g id="patch_5">
    <path d="M 413.570499 318.04 
L 413.570499 71.732 
" style="fill: none; stroke: #000000; stroke-width: 0.8; stroke-linejoin: miter; stroke-linecap: square"/>
   </g>
   <g id="patch_6">
    <path d="M 46.64 318.04 
L 413.570499 318.04 
" style="fill: none; stroke: #000000; stroke-width: 0.8; stroke-linejoin: miter; stroke-linecap: square"/>
   </g>
   <g id="patch_7">
    <path d="M 46.64 71.732 
L 413.570499 71.732 
" style="fill: none; stroke: #000000; stroke-width: 0.8; stroke-linejoin: miter; stroke-linecap: square"/>
   </g>
   <g id="text_16">
    <!-- Cz -->
    <g transform="translate(222.766499 65.732)scale(0.12 -0.12)">
     <defs>
      <path id="DejaVuSans-43" d="M 4122 4306 
L 4122 3641 
Q 3803 3938 3442 4084 
Q 3081 4231 2675 4231 
Q 1875 4231 1450 3742 
Q 1025 3253 1025 2328 
Q 1025 1406 1450 917 
Q 1875 428 2675 428 
Q 3081 428 3442 575 
Q 3803 722 4122 1019 
L 4122 359 
Q 3791 134 3420 21 
Q 3050 -91 2638 -91 
Q 1578 -91 968 557 
Q 359 1206 359 2328 
Q 359 3453 968 4101 
Q 1578 4750 2638 4750 
Q 3056 4750 3426 4639 
Q 3797 4528 4122 4306 
z
" transform="scale(0.015625)"/>
      <path id="DejaVuSans-7a" d="M 353 3500 
L 3084 3500 
L 3084 2975 
L 922 459 
L 3084 459 
L 3084 0 
L 275 0 
L 275 525 
L 2438 3041 
L 353 3041 
L 353 3500 
z
" transform="scale(0.015625)"/>
     </defs>
     <use xlink:href="#DejaVuSans-43"/>
     <use xlink:href="#DejaVuSans-7a" x="69.824219"/>
    </g>
   </g>
   <g id="legend_1">
    <g id="patch_8">
     <path d="M 99.877906 48.500845 
L 360.332593 48.500845 
Q 362.332593 48.500845 362.332593 46.500845 
L 362.332593 18.144595 
Q 362.332593 16.144595 360.332593 16.144595 
L 99.877906 16.144595 
Q 97.877906 16.144595 97.877906 18.144595 
L 97.877906 46.500845 
Q 97.877906 48.500845 99.877906 48.500845 
z
" style="fill: #ffffff; opacity: 0.8; stroke: #cccccc; stroke-linejoin: miter"/>
    </g>
    <g id="text_17">
     <!-- Average of Session 37 -->
     <g transform="translate(174.545874 27.743033)scale(0.1 -0.1)">
      <defs>
       <path id="DejaVuSans-41" d="M 2188 4044 
L 1331 1722 
L 3047 1722 
L 2188 4044 
z
M 1831 4666 
L 2547 4666 
L 4325 0 
L 3669 0 
L 3244 1197 
L 1141 1197 
L 716 0 
L 50 0 
L 1831 4666 
z
" transform="scale(0.015625)"/>
       <path id="DejaVuSans-76" d="M 191 3500 
L 800 3500 
L 1894 563 
L 2988 3500 
L 3597 3500 
L 2284 0 
L 1503 0 
L 191 3500 
z
" transform="scale(0.015625)"/>
       <path id="DejaVuSans-72" d="M 2631 2963 
Q 2534 3019 2420 3045 
Q 2306 3072 2169 3072 
Q 1681 3072 1420 2755 
Q 1159 2438 1159 1844 
L 1159 0 
L 581 0 
L 581 3500 
L 1159 3500 
L 1159 2956 
Q 1341 3275 1631 3429 
Q 1922 3584 2338 3584 
Q 2397 3584 2469 3576 
Q 2541 3569 2628 3553 
L 2631 2963 
z
" transform="scale(0.015625)"/>
       <path id="DejaVuSans-61" d="M 2194 1759 
Q 1497 1759 1228 1600 
Q 959 1441 959 1056 
Q 959 750 1161 570 
Q 1363 391 1709 391 
Q 2188 391 2477 730 
Q 2766 1069 2766 1631 
L 2766 1759 
L 2194 1759 
z
M 3341 1997 
L 3341 0 
L 2766 0 
L 2766 531 
Q 2569 213 2275 61 
Q 1981 -91 1556 -91 
Q 1019 -91 701 211 
Q 384 513 384 1019 
Q 384 1609 779 1909 
Q 1175 2209 1959 2209 
L 2766 2209 
L 2766 2266 
Q 2766 2663 2505 2880 
Q 2244 3097 1772 3097 
Q 1472 3097 1187 3025 
Q 903 2953 641 2809 
L 641 3341 
Q 956 3463 1253 3523 
Q 1550 3584 1831 3584 
Q 2591 3584 2966 3190 
Q 3341 2797 3341 1997 
z
" transform="scale(0.015625)"/>
       <path id="DejaVuSans-67" d="M 2906 1791 
Q 2906 2416 2648 2759 
Q 2391 3103 1925 3103 
Q 1463 3103 1205 2759 
Q 947 2416 947 1791 
Q 947 1169 1205 825 
Q 1463 481 1925 481 
Q 2391 481 2648 825 
Q 2906 1169 2906 1791 
z
M 3481 434 
Q 3481 -459 3084 -895 
Q 2688 -1331 1869 -1331 
Q 1566 -1331 1297 -1286 
Q 1028 -1241 775 -1147 
L 775 -588 
Q 1028 -725 1275 -790 
Q 1522 -856 1778 -856 
Q 2344 -856 2625 -561 
Q 2906 -266 2906 331 
L 2906 616 
Q 2728 306 2450 153 
Q 2172 0 1784 0 
Q 1141 0 747 490 
Q 353 981 353 1791 
Q 353 2603 747 3093 
Q 1141 3584 1784 3584 
Q 2172 3584 2450 3431 
Q 2728 3278 2906 2969 
L 2906 3500 
L 3481 3500 
L 3481 434 
z
" transform="scale(0.015625)"/>
       <path id="DejaVuSans-20" transform="scale(0.015625)"/>
       <path id="DejaVuSans-66" d="M 2375 4863 
L 2375 4384 
L 1825 4384 
Q 1516 4384 1395 4259 
Q 1275 4134 1275 3809 
L 1275 3500 
L 2222 3500 
L 2222 3053 
L 1275 3053 
L 1275 0 
L 697 0 
L 697 3053 
L 147 3053 
L 147 3500 
L 697 3500 
L 697 3744 
Q 697 4328 969 4595 
Q 1241 4863 1831 4863 
L 2375 4863 
z
" transform="scale(0.015625)"/>
       <path id="DejaVuSans-53" d="M 3425 4513 
L 3425 3897 
Q 3066 4069 2747 4153 
Q 2428 4238 2131 4238 
Q 1616 4238 1336 4038 
Q 1056 3838 1056 3469 
Q 1056 3159 1242 3001 
Q 1428 2844 1947 2747 
L 2328 2669 
Q 3034 2534 3370 2195 
Q 3706 1856 3706 1288 
Q 3706 609 3251 259 
Q 2797 -91 1919 -91 
Q 1588 -91 1214 -16 
Q 841 59 441 206 
L 441 856 
Q 825 641 1194 531 
Q 1563 422 1919 422 
Q 2459 422 2753 634 
Q 3047 847 3047 1241 
Q 3047 1584 2836 1778 
Q 2625 1972 2144 2069 
L 1759 2144 
Q 1053 2284 737 2584 
Q 422 2884 422 3419 
Q 422 4038 858 4394 
Q 1294 4750 2059 4750 
Q 2388 4750 2728 4690 
Q 3069 4631 3425 4513 
z
" transform="scale(0.015625)"/>
       <path id="DejaVuSans-69" d="M 603 3500 
L 1178 3500 
L 1178 0 
L 603 0 
L 603 3500 
z
M 603 4863 
L 1178 4863 
L 1178 4134 
L 603 4134 
L 603 4863 
z
" transform="scale(0.015625)"/>
       <path id="DejaVuSans-37" d="M 525 4666 
L 3525 4666 
L 3525 4397 
L 1831 0 
L 1172 0 
L 2766 4134 
L 525 4134 
L 525 4666 
z
" transform="scale(0.015625)"/>
      </defs>
      <use xlink:href="#DejaVuSans-41"/>
      <use xlink:href="#DejaVuSans-76" x="62.533203"/>
      <use xlink:href="#DejaVuSans-65" x="121.712891"/>
      <use xlink:href="#DejaVuSans-72" x="183.236328"/>
      <use xlink:href="#DejaVuSans-61" x="224.349609"/>
      <use xlink:href="#DejaVuSans-67" x="285.628906"/>
      <use xlink:href="#DejaVuSans-65" x="349.105469"/>
      <use xlink:href="#DejaVuSans-20" x="410.628906"/>
      <use xlink:href="#DejaVuSans-6f" x="442.416016"/>
      <use xlink:href="#DejaVuSans-66" x="503.597656"/>
      <use xlink:href="#DejaVuSans-20" x="538.802734"/>
      <use xlink:href="#DejaVuSans-53" x="570.589844"/>
      <use xlink:href="#DejaVuSans-65" x="634.066406"/>
      <use xlink:href="#DejaVuSans-73" x="695.589844"/>
      <use xlink:href="#DejaVuSans-73" x="747.689453"/>
      <use xlink:href="#DejaVuSans-69" x="799.789062"/>
      <use xlink:href="#DejaVuSans-6f" x="827.572266"/>
      <use xlink:href="#DejaVuSans-6e" x="888.753906"/>
      <use xlink:href="#DejaVuSans-20" x="952.132812"/>
      <use xlink:href="#DejaVuSans-33" x="983.919922"/>
      <use xlink:href="#DejaVuSans-37" x="1047.542969"/>
     </g>
    </g>
    <g id="line2d_18">
     <path d="M 101.877906 38.921158 
L 111.877906 38.921158 
L 121.877906 38.921158 
" style="fill: none; stroke: #e41a1c; stroke-width: 1.5; stroke-linecap: square"/>
    </g>
    <g id="text_18">
     <!-- Target (n=308) -->
     <g transform="translate(129.877906 42.421158)scale(0.1 -0.1)">
      <defs>
       <path id="DejaVuSans-54" d="M -19 4666 
L 3928 4666 
L 3928 4134 
L 2272 4134 
L 2272 0 
L 1638 0 
L 1638 4134 
L -19 4134 
L -19 4666 
z
" transform="scale(0.015625)"/>
       <path id="DejaVuSans-74" d="M 1172 4494 
L 1172 3500 
L 2356 3500 
L 2356 3053 
L 1172 3053 
L 1172 1153 
Q 1172 725 1289 603 
Q 1406 481 1766 481 
L 2356 481 
L 2356 0 
L 1766 0 
Q 1100 0 847 248 
Q 594 497 594 1153 
L 594 3053 
L 172 3053 
L 172 3500 
L 594 3500 
L 594 4494 
L 1172 4494 
z
" transform="scale(0.015625)"/>
       <path id="DejaVuSans-28" d="M 1984 4856 
Q 1566 4138 1362 3434 
Q 1159 2731 1159 2009 
Q 1159 1288 1364 580 
Q 1569 -128 1984 -844 
L 1484 -844 
Q 1016 -109 783 600 
Q 550 1309 550 2009 
Q 550 2706 781 3412 
Q 1013 4119 1484 4856 
L 1984 4856 
z
" transform="scale(0.015625)"/>
       <path id="DejaVuSans-3d" d="M 678 2906 
L 4684 2906 
L 4684 2381 
L 678 2381 
L 678 2906 
z
M 678 1631 
L 4684 1631 
L 4684 1100 
L 678 1100 
L 678 1631 
z
" transform="scale(0.015625)"/>
       <path id="DejaVuSans-29" d="M 513 4856 
L 1013 4856 
Q 1481 4119 1714 3412 
Q 1947 2706 1947 2009 
Q 1947 1309 1714 600 
Q 1481 -109 1013 -844 
L 513 -844 
Q 928 -128 1133 580 
Q 1338 1288 1338 2009 
Q 1338 2731 1133 3434 
Q 928 4138 513 4856 
z
" transform="scale(0.015625)"/>
      </defs>
      <use xlink:href="#DejaVuSans-54"/>
      <use xlink:href="#DejaVuSans-61" x="44.583984"/>
      <use xlink:href="#DejaVuSans-72" x="105.863281"/>
      <use xlink:href="#DejaVuSans-67" x="145.226562"/>
      <use xlink:href="#DejaVuSans-65" x="208.703125"/>
      <use xlink:href="#DejaVuSans-74" x="270.226562"/>
      <use xlink:href="#DejaVuSans-20" x="309.435547"/>
      <use xlink:href="#DejaVuSans-28" x="341.222656"/>
      <use xlink:href="#DejaVuSans-6e" x="380.236328"/>
      <use xlink:href="#DejaVuSans-3d" x="443.615234"/>
      <use xlink:href="#DejaVuSans-33" x="527.404297"/>
      <use xlink:href="#DejaVuSans-30" x="591.027344"/>
      <use xlink:href="#DejaVuSans-38" x="654.650391"/>
      <use xlink:href="#DejaVuSans-29" x="718.273438"/>
     </g>
    </g>
    <g id="line2d_19">
     <path d="M 225.607593 38.921158 
L 235.607593 38.921158 
L 245.607593 38.921158 
" style="fill: none; stroke: #377eb8; stroke-width: 1.5; stroke-linecap: square"/>
    </g>
    <g id="text_19">
     <!-- Non-Target (n=1543) -->
     <g transform="translate(253.607593 42.421158)scale(0.1 -0.1)">
      <defs>
       <path id="DejaVuSans-4e" d="M 628 4666 
L 1478 4666 
L 3547 763 
L 3547 4666 
L 4159 4666 
L 4159 0 
L 3309 0 
L 1241 3903 
L 1241 0 
L 628 0 
L 628 4666 
z
" transform="scale(0.015625)"/>
       <path id="DejaVuSans-2d" d="M 313 2009 
L 1997 2009 
L 1997 1497 
L 313 1497 
L 313 2009 
z
" transform="scale(0.015625)"/>
      </defs>
      <use xlink:href="#DejaVuSans-4e"/>
      <use xlink:href="#DejaVuSans-6f" x="74.804688"/>
      <use xlink:href="#DejaVuSans-6e" x="135.986328"/>
      <use xlink:href="#DejaVuSans-2d" x="199.365234"/>
      <use xlink:href="#DejaVuSans-54" x="226.324219"/>
      <use xlink:href="#DejaVuSans-61" x="270.908203"/>
      <use xlink:href="#DejaVuSans-72" x="332.1875"/>
      <use xlink:href="#DejaVuSans-67" x="371.550781"/>
      <use xlink:href="#DejaVuSans-65" x="435.027344"/>
      <use xlink:href="#DejaVuSans-74" x="496.550781"/>
      <use xlink:href="#DejaVuSans-20" x="535.759766"/>
      <use xlink:href="#DejaVuSans-28" x="567.546875"/>
      <use xlink:href="#DejaVuSans-6e" x="606.560547"/>
      <use xlink:href="#DejaVuSans-3d" x="669.939453"/>
      <use xlink:href="#DejaVuSans-31" x="753.728516"/>
      <use xlink:href="#DejaVuSans-35" x="817.351562"/>
      <use xlink:href="#DejaVuSans-34" x="880.974609"/>
      <use xlink:href="#DejaVuSans-33" x="944.597656"/>
      <use xlink:href="#DejaVuSans-29" x="1008.220703"/>
     </g>
    </g>
   </g>
  </g>
 </g>
 <defs>
  <clipPath id="p7d9bd07c85">
   <rect x="46.64" y="71.732" width="366.930499" height="246.308"/>
  </clipPath>
 </defs>
</svg>
