<?xml version="1.0" encoding="utf-8" standalone="no"?>
<!DOCTYPE svg PUBLIC "-//W3C//DTD SVG 1.1//EN"
  "http://www.w3.org/Graphics/SVG/1.1/DTD/svg11.dtd">
<svg xmlns:xlink="http://www.w3.org/1999/xlink" width="432pt" height="360pt" viewBox="0 0 432 360" xmlns="http://www.w3.org/2000/svg" version="1.1">
 <metadata>
  <rdf:RDF xmlns:dc="http://purl.org/dc/elements/1.1/" xmlns:cc="http://creativecommons.org/ns#" xmlns:rdf="http://www.w3.org/1999/02/22-rdf-syntax-ns#">
   <cc:Work>
    <dc:type rdf:resource="http://purl.org/dc/dcmitype/StillImage"/>
    <dc:date>2022-05-19T11:52:32.374826</dc:date>
    <dc:format>image/svg+xml</dc:format>
    <dc:creator>
     <cc:Agent>
      <dc:title>Matplotlib v3.5.1, https://matplotlib.org/</dc:title>
     </cc:Agent>
    </dc:creator>
   </cc:Work>
  </rdf:RDF>
 </metadata>
 <defs>
  <style type="text/css">*{stroke-linejoin: round; stroke-linecap: butt}</style>
 </defs>
 <g id="figure_1">
  <g id="patch_1">
   <path d="M 0 360 
L 432 360 
L 432 0 
L 0 0 
L 0 360 
z
" style="fill: none"/>
  </g>
  <g id="axes_1">
   <g id="patch_2">
    <path d="M 46.64 318.04 
L 413.570499 318.04 
L 413.570499 71.732 
L 46.64 71.732 
L 46.64 318.04 
z
" style="fill: none"/>
   </g>
   <g id="PolyCollection_1">
    <defs>
     <path id="m9afbe44b5c" d="M 46.64 -127.218944 
L 46.64 -81.64671 
L 47.435945 -85.074109 
L 48.231889 -86.999233 
L 49.027834 -87.190526 
L 49.823779 -85.936808 
L 50.619723 -83.792391 
L 51.415668 -81.365474 
L 52.211613 -79.335358 
L 53.007557 -78.525457 
L 53.803502 -79.613443 
L 54.599447 -82.615055 
L 55.395392 -86.673615 
L 56.191336 -90.397137 
L 56.987281 -92.634089 
L 57.783226 -93.072419 
L 58.57917 -92.052601 
L 59.375115 -89.997222 
L 60.17106 -87.08998 
L 60.967004 -83.325804 
L 61.762949 -78.817133 
L 62.558894 -74.052428 
L 63.354838 -69.784419 
L 64.150783 -66.691617 
L 64.946728 -65.159792 
L 65.742672 -65.249688 
L 66.538617 -66.75973 
L 67.334562 -69.31014 
L 68.130506 -72.397054 
L 68.926451 -75.399424 
L 69.722396 -77.593491 
L 70.51834 -78.284501 
L 71.314285 -77.110617 
L 72.11023 -74.344796 
L 72.906175 -70.857938 
L 73.702119 -67.708715 
L 74.498064 -65.69002 
L 75.294009 -65.103215 
L 76.089953 -65.817978 
L 76.885898 -67.486152 
L 77.681843 -69.681798 
L 78.477787 -71.933094 
L 79.273732 -73.821664 
L 80.069677 -75.166597 
L 80.865621 -76.086788 
L 81.661566 -76.840606 
L 82.457511 -77.59294 
L 83.253455 -78.332665 
L 84.0494 -78.994573 
L 84.845345 -79.569973 
L 85.641289 -80.011115 
L 86.437234 -80.107252 
L 87.233179 -79.581481 
L 88.029124 -78.327391 
L 88.825068 -76.505098 
L 89.621013 -74.39417 
L 90.416958 -72.206683 
L 91.212902 -70.142362 
L 92.008847 -68.673446 
L 92.804792 -68.582672 
L 93.600736 -70.499361 
L 94.396681 -74.383148 
L 95.192626 -79.393239 
L 95.98857 -84.185874 
L 96.784515 -87.439231 
L 97.58046 -88.28017 
L 98.376404 -86.431666 
L 99.172349 -82.206869 
L 99.968294 -76.462008 
L 100.764238 -70.418357 
L 101.560183 -65.299973 
L 102.356128 -61.932255 
L 103.152073 -60.537544 
L 103.948017 -60.8641 
L 104.743962 -62.502923 
L 105.539907 -65.032463 
L 106.335851 -67.923137 
L 107.131796 -70.519966 
L 107.927741 -72.262909 
L 108.723685 -72.961132 
L 109.51963 -72.858889 
L 110.315575 -72.443906 
L 111.111519 -72.18181 
L 111.907464 -72.360892 
L 112.703409 -73.084223 
L 113.499353 -74.326875 
L 114.295298 -75.962893 
L 115.091243 -77.760599 
L 115.887187 -79.440485 
L 116.683132 -80.842172 
L 117.479077 -82.071255 
L 118.275021 -83.449604 
L 119.070966 -85.296535 
L 119.866911 -87.725501 
L 120.662856 -90.572972 
L 121.4588 -93.443099 
L 122.254745 -95.793006 
L 123.05069 -97.020289 
L 123.846634 -96.584777 
L 124.642579 -94.177246 
L 125.438524 -89.861543 
L 126.234468 -84.102855 
L 127.030413 -77.704398 
L 127.826358 -71.715855 
L 128.622302 -67.283313 
L 129.418247 -65.371937 
L 130.214192 -66.426414 
L 131.010136 -70.167192 
L 131.806081 -75.663168 
L 132.602026 -81.627427 
L 133.39797 -86.750787 
L 134.193915 -89.95416 
L 134.98986 -90.586062 
L 135.785805 -88.587956 
L 136.581749 -84.528216 
L 137.377694 -79.400538 
L 138.173639 -74.258461 
L 138.969583 -69.902552 
L 139.765528 -66.778988 
L 140.561473 -65.053104 
L 141.357417 -64.68885 
L 142.153362 -65.452277 
L 142.949307 -66.927291 
L 143.745251 -68.633741 
L 144.541196 -70.2008 
L 145.337141 -71.480378 
L 146.133085 -72.545346 
L 146.92903 -73.612613 
L 147.724975 -74.95867 
L 148.520919 -76.854958 
L 149.316864 -79.507709 
L 150.112809 -82.983681 
L 150.908753 -87.132955 
L 151.704698 -91.557038 
L 152.500643 -95.676511 
L 153.296588 -98.907636 
L 154.092532 -100.879794 
L 154.888477 -101.578784 
L 155.684422 -101.341567 
L 156.480366 -100.71957 
L 157.276311 -100.273576 
L 158.072256 -100.356055 
L 158.8682 -100.945421 
L 159.664145 -101.620934 
L 160.46009 -101.73189 
L 161.256034 -100.691417 
L 162.051979 -98.218539 
L 162.847924 -94.412758 
L 163.643868 -89.711344 
L 164.439813 -84.818599 
L 165.235758 -80.584602 
L 166.031702 -77.769857 
L 166.827647 -76.766874 
L 167.623592 -77.46088 
L 168.419537 -79.318861 
L 169.215481 -81.615965 
L 170.011426 -83.65418 
L 170.807371 -84.927153 
L 171.603315 -85.258384 
L 172.39926 -84.869622 
L 173.195205 -84.263345 
L 173.991149 -83.922992 
L 174.787094 -84.03565 
L 175.583039 -84.451409 
L 176.378983 -84.870211 
L 177.174928 -85.040404 
L 177.970873 -84.816525 
L 178.766817 -84.156375 
L 179.562762 -83.171504 
L 180.358707 -82.174102 
L 181.154651 -81.600435 
L 181.950596 -81.836421 
L 182.746541 -83.100182 
L 183.542485 -85.460802 
L 184.33843 -88.895033 
L 185.134375 -93.248678 
L 185.93032 -98.127451 
L 186.726264 -102.859034 
L 187.522209 -106.603093 
L 188.318154 -108.569368 
L 189.114098 -108.263858 
L 189.910043 -105.690664 
L 190.705988 -101.422274 
L 191.501932 -96.458389 
L 192.297877 -91.905386 
L 193.093822 -88.64932 
L 193.889766 -87.200611 
L 194.685711 -87.713207 
L 195.481656 -90.004636 
L 196.2776 -93.496715 
L 197.073545 -97.247076 
L 197.86949 -100.249907 
L 198.665434 -101.91465 
L 199.461379 -102.372884 
L 200.257324 -102.342849 
L 201.053269 -102.684967 
L 201.849213 -104.007442 
L 202.645158 -106.519393 
L 203.441103 -110.074278 
L 204.237047 -114.257424 
L 205.032992 -118.468005 
L 205.828937 -122.043715 
L 206.624881 -124.440191 
L 207.420826 -125.393415 
L 208.216771 -124.981875 
L 209.012715 -123.565175 
L 209.80866 -121.637132 
L 210.604605 -119.658592 
L 211.400549 -117.941331 
L 212.196494 -116.633248 
L 212.992439 -115.789442 
L 213.788383 -115.447156 
L 214.584328 -115.629526 
L 215.380273 -116.283113 
L 216.176218 -117.222451 
L 216.972162 -118.144903 
L 217.768107 -118.704189 
L 218.564052 -118.575228 
L 219.359996 -117.485796 
L 220.155941 -115.270723 
L 220.951886 -111.983734 
L 221.74783 -107.997142 
L 222.543775 -103.982859 
L 223.33972 -100.753455 
L 224.135664 -99.036608 
L 224.931609 -99.266925 
L 225.727554 -101.447338 
L 226.523498 -105.119793 
L 227.319443 -109.479127 
L 228.115388 -113.615474 
L 228.911332 -116.778762 
L 229.707277 -118.527178 
L 230.503222 -118.727282 
L 231.299166 -117.492662 
L 232.095111 -115.148765 
L 232.891056 -112.225503 
L 233.687001 -109.416164 
L 234.482945 -107.434189 
L 235.27889 -106.776396 
L 236.074835 -107.506059 
L 236.870779 -109.201126 
L 237.666724 -111.137353 
L 238.462669 -112.630653 
L 239.258613 -113.332993 
L 240.054558 -113.30313 
L 240.850503 -112.869114 
L 241.646447 -112.436605 
L 242.442392 -112.357841 
L 243.238337 -112.884715 
L 244.034281 -114.182587 
L 244.830226 -116.362868 
L 245.626171 -119.481374 
L 246.422115 -123.474874 
L 247.21806 -128.078118 
L 248.014005 -132.81105 
L 248.80995 -137.093207 
L 249.605894 -140.447548 
L 250.401839 -142.674019 
L 251.197784 -143.894269 
L 251.993728 -144.469793 
L 252.789673 -144.871301 
L 253.585618 -145.547647 
L 254.381562 -146.793526 
L 255.177507 -148.622232 
L 255.973452 -150.695574 
L 256.769396 -152.373632 
L 257.565341 -152.901616 
L 258.361286 -151.6948 
L 259.15723 -148.640117 
L 259.953175 -144.300812 
L 260.74912 -139.90959 
L 261.545064 -137.094446 
L 262.341009 -137.389117 
L 263.136954 -141.685006 
L 263.932898 -149.826331 
L 264.728843 -160.515643 
L 265.524788 -171.601421 
L 266.320733 -180.686195 
L 267.116677 -185.854361 
L 267.912622 -186.246398 
L 268.708567 -182.274398 
L 269.504511 -175.447622 
L 270.300456 -167.913115 
L 271.096401 -161.839893 
L 271.892345 -158.784215 
L 272.68829 -159.24663 
L 273.484235 -162.633173 
L 274.280179 -167.639349 
L 275.076124 -172.816609 
L 275.872069 -177.00486 
L 276.668013 -179.499726 
L 277.463958 -180.055101 
L 278.259903 -178.846716 
L 279.055847 -176.373604 
L 279.851792 -173.229884 
L 280.647737 -169.85621 
L 281.443682 -166.494167 
L 282.239626 -163.38646 
L 283.035571 -160.96974 
L 283.831516 -159.767878 
L 284.62746 -160.027804 
L 285.423405 -161.435775 
L 286.21935 -163.160487 
L 287.015294 -164.179338 
L 287.811239 -163.677677 
L 288.607184 -161.35893 
L 289.403128 -157.611385 
L 290.199073 -153.49495 
L 290.995018 -150.4931 
L 291.790962 -150.037695 
L 292.586907 -152.950779 
L 293.382852 -159.038033 
L 294.178796 -167.026316 
L 294.974741 -174.904417 
L 295.770686 -180.581378 
L 296.56663 -182.645203 
L 297.362575 -180.909379 
L 298.15852 -176.465001 
L 298.954465 -171.182824 
L 299.750409 -166.916715 
L 300.546354 -164.808856 
L 301.342299 -164.983277 
L 302.138243 -166.658418 
L 302.934188 -168.536208 
L 303.730133 -169.318211 
L 304.526077 -168.213784 
L 305.322022 -165.264343 
L 306.117967 -161.328295 
L 306.913911 -157.71839 
L 307.709856 -155.660067 
L 308.505801 -155.81176 
L 309.301745 -158.032358 
L 310.09769 -161.46887 
L 310.893635 -164.921191 
L 311.689579 -167.333039 
L 312.485524 -168.194769 
L 313.281469 -167.677811 
L 314.077414 -166.456905 
L 314.873358 -165.339308 
L 315.669303 -164.899214 
L 316.465248 -165.269807 
L 317.261192 -166.142807 
L 318.057137 -166.947437 
L 318.853082 -167.130594 
L 319.649026 -166.414646 
L 320.444971 -164.898642 
L 321.240916 -162.938541 
L 322.03686 -160.875936 
L 322.832805 -158.790765 
L 323.62875 -156.443549 
L 324.424694 -153.449506 
L 325.220639 -149.582169 
L 326.016584 -145.033077 
L 326.812528 -140.478963 
L 327.608473 -136.897802 
L 328.404418 -135.196207 
L 329.200363 -135.814107 
L 329.996307 -138.489858 
L 330.792252 -142.282218 
L 331.588197 -145.829614 
L 332.384141 -147.762009 
L 333.180086 -147.158808 
L 333.976031 -143.916471 
L 334.771975 -138.8533 
L 335.56792 -133.419552 
L 336.363865 -129.074968 
L 337.159809 -126.635307 
L 337.955754 -125.943159 
L 338.751699 -126.027913 
L 339.547643 -125.640682 
L 340.343588 -123.869939 
L 341.139533 -120.558365 
L 341.935477 -116.392504 
L 342.731422 -112.682398 
L 343.527367 -110.917324 
L 344.323311 -112.210262 
L 345.119256 -116.792429 
L 345.915201 -123.774376 
L 346.711146 -131.343742 
L 347.50709 -137.381492 
L 348.303035 -140.25074 
L 349.09898 -139.390274 
L 349.894924 -135.436882 
L 350.690869 -129.875367 
L 351.486814 -124.450406 
L 352.282758 -120.603628 
L 353.078703 -119.0993 
L 353.874648 -119.911474 
L 354.670592 -122.384572 
L 355.466537 -125.604991 
L 356.262482 -128.835385 
L 357.058426 -131.811679 
L 357.854371 -134.739132 
L 358.650316 -137.980794 
L 359.44626 -141.634925 
L 360.242205 -145.275365 
L 361.03815 -148.022159 
L 361.834095 -148.920809 
L 362.630039 -147.440657 
L 363.425984 -143.822578 
L 364.221929 -139.072655 
L 365.017873 -134.596159 
L 365.813818 -131.666782 
L 366.609763 -130.988706 
L 367.405707 -132.501316 
L 368.201652 -135.423877 
L 368.997597 -138.499131 
L 369.793541 -140.41613 
L 370.589486 -140.31645 
L 371.385431 -138.16222 
L 372.181375 -134.742335 
L 372.97732 -131.274306 
L 373.773265 -128.804539 
L 374.569209 -127.730471 
L 375.365154 -127.67973 
L 376.161099 -127.763206 
L 376.957043 -127.030557 
L 377.752988 -124.908926 
L 378.548933 -121.46141 
L 379.344878 -117.369405 
L 380.140822 -113.631337 
L 380.936767 -111.107912 
L 381.732712 -110.148865 
L 382.528656 -110.500044 
L 383.324601 -111.515661 
L 384.120546 -112.518439 
L 384.91649 -113.110168 
L 385.712435 -113.335781 
L 386.50838 -113.692884 
L 387.304324 -114.974021 
L 388.100269 -117.925142 
L 388.896214 -122.811564 
L 389.692158 -129.12089 
L 390.488103 -135.612451 
L 391.284048 -140.733241 
L 392.079992 -143.219676 
L 392.875937 -142.614513 
L 393.671882 -139.470499 
L 394.467827 -135.149127 
L 395.263771 -131.29539 
L 396.059716 -129.213751 
L 396.855661 -129.417893 
L 397.651605 -131.536286 
L 398.44755 -134.571798 
L 399.243495 -137.358539 
L 400.039439 -139.021354 
L 400.835384 -139.28741 
L 401.631329 -138.551583 
L 402.427273 -137.66579 
L 403.223218 -137.537199 
L 404.019163 -138.727636 
L 404.815107 -141.243655 
L 405.611052 -144.5753 
L 406.406997 -147.90148 
L 407.202941 -150.353161 
L 407.998886 -151.275319 
L 408.794831 -150.43881 
L 409.590775 -148.111822 
L 410.38672 -144.905845 
L 411.182665 -141.434076 
L 411.97861 -137.979087 
L 412.774554 -134.39193 
L 413.570499 -130.289868 
L 413.570499 -247.98961 
L 413.570499 -247.98961 
L 412.774554 -250.554974 
L 411.97861 -253.305546 
L 411.182665 -256.503953 
L 410.38672 -260.094054 
L 409.590775 -263.701723 
L 408.794831 -266.719181 
L 407.998886 -268.466704 
L 407.202941 -268.44511 
L 406.406997 -266.612525 
L 405.611052 -263.514184 
L 404.815107 -260.123702 
L 404.019163 -257.435545 
L 403.223218 -256.027753 
L 402.427273 -255.834932 
L 401.631329 -256.225907 
L 400.835384 -256.313016 
L 400.039439 -255.351575 
L 399.243495 -253.091648 
L 398.44755 -249.949856 
L 397.651605 -246.897371 
L 396.855661 -245.07387 
L 396.059716 -245.293881 
L 395.263771 -247.676989 
L 394.467827 -251.554056 
L 393.671882 -255.663515 
L 392.875937 -258.548127 
L 392.079992 -259.014689 
L 391.284048 -256.51105 
L 390.488103 -251.296767 
L 389.692158 -244.345971 
L 388.896214 -237.019591 
L 388.100269 -230.628799 
L 387.304324 -226.036055 
L 386.50838 -223.420359 
L 385.712435 -222.304156 
L 384.91649 -221.870578 
L 384.120546 -221.443562 
L 383.324601 -220.854977 
L 382.528656 -220.466002 
L 381.732712 -220.849981 
L 380.936767 -222.374346 
L 380.140822 -224.945808 
L 379.344878 -228.024842 
L 378.548933 -230.856308 
L 377.752988 -232.801142 
L 376.957043 -233.642418 
L 376.161099 -233.732427 
L 375.365154 -233.876943 
L 374.569209 -234.967557 
L 373.773265 -237.531997 
L 372.97732 -241.436983 
L 372.181375 -245.88159 
L 371.385431 -249.661225 
L 370.589486 -251.585844 
L 369.793541 -250.92132 
L 368.997597 -247.73233 
L 368.201652 -242.99375 
L 367.405707 -238.353528 
L 366.609763 -235.553868 
L 365.813818 -235.724231 
L 365.017873 -238.901777 
L 364.221929 -244.045878 
L 363.425984 -249.50932 
L 362.630039 -253.67701 
L 361.834095 -255.475375 
L 361.03815 -254.604707 
L 360.242205 -251.488676 
L 359.44626 -247.012687 
L 358.650316 -242.163694 
L 357.854371 -237.703729 
L 357.058426 -233.987334 
L 356.262482 -230.972106 
L 355.466537 -228.40663 
L 354.670592 -226.118471 
L 353.874648 -224.254717 
L 353.078703 -223.306653 
L 352.282758 -223.852854 
L 351.486814 -226.136831 
L 350.690869 -229.729922 
L 349.894924 -233.514326 
L 349.09898 -236.040396 
L 348.303035 -236.082596 
L 347.50709 -233.117885 
L 346.711146 -227.540268 
L 345.915201 -220.578174 
L 345.119256 -213.954104 
L 344.323311 -209.354176 
L 343.527367 -207.849739 
L 342.731422 -209.494815 
L 341.935477 -213.313061 
L 341.139533 -217.736664 
L 340.343588 -221.314371 
L 339.547643 -223.331476 
L 338.751699 -224.029363 
L 337.955754 -224.350557 
L 337.159809 -225.399101 
L 336.363865 -227.914497 
L 335.56792 -231.968646 
L 334.771975 -236.939456 
L 333.976031 -241.718519 
L 333.180086 -245.084387 
L 332.384141 -246.158058 
L 331.588197 -244.795002 
L 330.792252 -241.709747 
L 329.996307 -238.214661 
L 329.200363 -235.678898 
L 328.404418 -234.991145 
L 327.608473 -236.29283 
L 326.812528 -239.067679 
L 326.016584 -242.482767 
L 325.220639 -245.786831 
L 324.424694 -248.587013 
L 323.62875 -250.906998 
L 322.832805 -253.038412 
L 322.03686 -255.288875 
L 321.240916 -257.76422 
L 320.444971 -260.285655 
L 319.649026 -262.464783 
L 318.853082 -263.892068 
L 318.057137 -264.360037 
L 317.261192 -264.022028 
L 316.465248 -263.383523 
L 315.669303 -263.084764 
L 314.873358 -263.560122 
L 314.077414 -264.761548 
L 313.281469 -266.118943 
L 312.485524 -266.778054 
L 311.689579 -266.001429 
L 310.893635 -263.544582 
L 310.09769 -259.845999 
L 309.301745 -255.942796 
L 308.505801 -253.113309 
L 307.709856 -252.360417 
L 306.913911 -253.951972 
L 306.117967 -257.245959 
L 305.322022 -260.909039 
L 304.526077 -263.452031 
L 303.730133 -263.864397 
L 302.934188 -262.087617 
L 302.138243 -259.115386 
L 301.342299 -256.629873 
L 300.546354 -256.272691 
L 299.750409 -258.864916 
L 298.954465 -263.978013 
L 298.15852 -270.068752 
L 297.362575 -275.060434 
L 296.56663 -277.072182 
L 295.770686 -275.035206 
L 294.974741 -269.048447 
L 294.178796 -260.39475 
L 293.382852 -251.181437 
L 292.586907 -243.676448 
L 291.790962 -239.565197 
L 290.995018 -239.422367 
L 290.199073 -242.600565 
L 289.403128 -247.551136 
L 288.607184 -252.434382 
L 287.811239 -255.786567 
L 287.015294 -256.978969 
L 286.21935 -256.277809 
L 285.423405 -254.521267 
L 284.62746 -252.656236 
L 283.831516 -251.42209 
L 283.035571 -251.273684 
L 282.239626 -252.409263 
L 281.443682 -254.751369 
L 280.647737 -257.916859 
L 279.851792 -261.327071 
L 279.055847 -264.430606 
L 278.259903 -266.815441 
L 277.463958 -268.114794 
L 276.668013 -267.893213 
L 275.872069 -265.764033 
L 275.076124 -261.725564 
L 274.280179 -256.424847 
L 273.484235 -251.101906 
L 272.68829 -247.236379 
L 271.892345 -246.095342 
L 271.096401 -248.337145 
L 270.300456 -253.724318 
L 269.504511 -261.014118 
L 268.708567 -268.157082 
L 267.912622 -272.858486 
L 267.116677 -273.328808 
L 266.320733 -268.893076 
L 265.524788 -260.209847 
L 264.728843 -249.056022 
L 263.932898 -237.789423 
L 263.136954 -228.668623 
L 262.341009 -223.230204 
L 261.545064 -221.910648 
L 260.74912 -224.028133 
L 259.953175 -228.109548 
L 259.15723 -232.423001 
L 258.361286 -235.524499 
L 257.565341 -236.64785 
L 256.769396 -235.825762 
L 255.973452 -233.724031 
L 255.177507 -231.282013 
L 254.381562 -229.319547 
L 253.585618 -228.256241 
L 252.789673 -228.020625 
L 251.993728 -228.150888 
L 251.197784 -228.026945 
L 250.401839 -227.127135 
L 249.605894 -225.19043 
L 248.80995 -222.220864 
L 248.014005 -218.385373 
L 247.21806 -213.928704 
L 246.422115 -209.176203 
L 245.626171 -204.564101 
L 244.830226 -200.599452 
L 244.034281 -197.720493 
L 243.238337 -196.122005 
L 242.442392 -195.652861 
L 241.646447 -195.855315 
L 240.850503 -196.132909 
L 240.054558 -195.975582 
L 239.258613 -195.152484 
L 238.462669 -193.782755 
L 237.666724 -192.235705 
L 236.870779 -190.926618 
L 236.074835 -190.166619 
L 235.27889 -190.143659 
L 234.482945 -190.951845 
L 233.687001 -192.56606 
L 232.891056 -194.757718 
L 232.095111 -197.033601 
L 231.299166 -198.698165 
L 230.503222 -199.070193 
L 229.707277 -197.762901 
L 228.911332 -194.872412 
L 228.115388 -190.962999 
L 227.319443 -186.856284 
L 226.523498 -183.344967 
L 225.727554 -180.992607 
L 224.931609 -180.074882 
L 224.135664 -180.598029 
L 223.33972 -182.336713 
L 222.543775 -184.895981 
L 221.74783 -187.806332 
L 220.951886 -190.624019 
L 220.155941 -193.003418 
L 219.359996 -194.743682 
L 218.564052 -195.825858 
L 217.768107 -196.415177 
L 216.972162 -196.775781 
L 216.176218 -197.109731 
L 215.380273 -197.4326 
L 214.584328 -197.592565 
L 213.788383 -197.411816 
L 212.992439 -196.830281 
L 212.196494 -195.958195 
L 211.400549 -195.032141 
L 210.604605 -194.322811 
L 209.80866 -194.036523 
L 209.012715 -194.225532 
L 208.216771 -194.722135 
L 207.420826 -195.137318 
L 206.624881 -194.963151 
L 205.828937 -193.763328 
L 205.032992 -191.376518 
L 204.237047 -188.040856 
L 203.441103 -184.362878 
L 202.645158 -181.095301 
L 201.849213 -178.788802 
L 201.053269 -177.513509 
L 200.257324 -176.853119 
L 199.461379 -176.175271 
L 198.665434 -174.960406 
L 197.86949 -172.961863 
L 197.073545 -170.185851 
L 196.2776 -166.884727 
L 195.481656 -163.642465 
L 194.685711 -161.354972 
L 193.889766 -160.925615 
L 193.093822 -162.794364 
L 192.297877 -166.65092 
L 191.501932 -171.565762 
L 190.705988 -176.400952 
L 189.910043 -180.187907 
L 189.114098 -182.305966 
L 188.318154 -182.495768 
L 187.522209 -180.811753 
L 186.726264 -177.564255 
L 185.93032 -173.247789 
L 185.134375 -168.466253 
L 184.33843 -163.866807 
L 183.542485 -160.046887 
L 182.746541 -157.402571 
L 181.950596 -155.989384 
L 181.154651 -155.529298 
L 180.358707 -155.580343 
L 179.562762 -155.726518 
L 178.766817 -155.667399 
L 177.970873 -155.23833 
L 177.174928 -154.454928 
L 176.378983 -153.561892 
L 175.583039 -152.952802 
L 174.787094 -152.932372 
L 173.991149 -153.51208 
L 173.195205 -154.424093 
L 172.39926 -155.28708 
L 171.603315 -155.735602 
L 170.807371 -155.460458 
L 170.011426 -154.259925 
L 169.215481 -152.171892 
L 168.419537 -149.582092 
L 167.623592 -147.156924 
L 166.827647 -145.610506 
L 166.031702 -145.464991 
L 165.235758 -146.921809 
L 164.439813 -149.825929 
L 163.643868 -153.676726 
L 162.847924 -157.726126 
L 162.051979 -161.218397 
L 161.256034 -163.678129 
L 160.46009 -165.046214 
L 159.664145 -165.582017 
L 158.8682 -165.653894 
L 158.072256 -165.580861 
L 157.276311 -165.559267 
L 156.480366 -165.623316 
L 155.684422 -165.628595 
L 154.888477 -165.295367 
L 154.092532 -164.315135 
L 153.296588 -162.461039 
L 152.500643 -159.649995 
L 151.704698 -155.968445 
L 150.908753 -151.684864 
L 150.112809 -147.225677 
L 149.316864 -143.082666 
L 148.520919 -139.667048 
L 147.724975 -137.171755 
L 146.92903 -135.513738 
L 146.133085 -134.392237 
L 145.337141 -133.434074 
L 144.541196 -132.350232 
L 143.745251 -131.036545 
L 142.949307 -129.599987 
L 142.153362 -128.342946 
L 141.357417 -127.736428 
L 140.561473 -128.348787 
L 139.765528 -130.66166 
L 138.969583 -134.796945 
L 138.173639 -140.330558 
L 137.377694 -146.361513 
L 136.581749 -151.788222 
L 135.785805 -155.601262 
L 134.98986 -157.069864 
L 134.193915 -155.845922 
L 133.39797 -152.062148 
L 132.602026 -146.397194 
L 131.806081 -139.975817 
L 131.010136 -134.06381 
L 130.214192 -129.716113 
L 129.418247 -127.57147 
L 128.622302 -127.817706 
L 127.826358 -130.224487 
L 127.030413 -134.187655 
L 126.234468 -138.835412 
L 125.438524 -143.252472 
L 124.642579 -146.74819 
L 123.846634 -149.000867 
L 123.05069 -150.012446 
L 122.254745 -149.973539 
L 121.4588 -149.14491 
L 120.662856 -147.760294 
L 119.866911 -145.946229 
L 119.070966 -143.720552 
L 118.275021 -141.094971 
L 117.479077 -138.206999 
L 116.683132 -135.35923 
L 115.887187 -132.906141 
L 115.091243 -131.075593 
L 114.295298 -129.905552 
L 113.499353 -129.334392 
L 112.703409 -129.280633 
L 111.907464 -129.605099 
L 111.111519 -130.037239 
L 110.315575 -130.190607 
L 109.51963 -129.683854 
L 108.723685 -128.279221 
L 107.927741 -125.939304 
L 107.131796 -122.783101 
L 106.335851 -119.047834 
L 105.539907 -115.173042 
L 104.743962 -111.921012 
L 103.948017 -110.281984 
L 103.152073 -111.052165 
L 102.356128 -114.358955 
L 101.560183 -119.570399 
L 100.764238 -125.607691 
L 99.968294 -131.323667 
L 99.172349 -135.743607 
L 98.376404 -138.183739 
L 97.58046 -138.341359 
L 96.784515 -136.378271 
L 95.98857 -132.875066 
L 95.192626 -128.576081 
L 94.396681 -124.119116 
L 93.600736 -119.99565 
L 92.804792 -116.682839 
L 92.008847 -114.71314 
L 91.212902 -114.514161 
L 90.416958 -116.038327 
L 89.621013 -118.564332 
L 88.825068 -121.047983 
L 88.029124 -122.692096 
L 87.233179 -123.199009 
L 86.437234 -122.659525 
L 85.641289 -121.348882 
L 84.845345 -119.648286 
L 84.0494 -118.039308 
L 83.253455 -116.961019 
L 82.457511 -116.519326 
L 81.661566 -116.357288 
L 80.865621 -115.888297 
L 80.069677 -114.661453 
L 79.273732 -112.560646 
L 78.477787 -109.79343 
L 77.681843 -106.804042 
L 76.885898 -104.213368 
L 76.089953 -102.710417 
L 75.294009 -102.785355 
L 74.498064 -104.439154 
L 73.702119 -107.15956 
L 72.906175 -110.192652 
L 72.11023 -112.871572 
L 71.314285 -114.786493 
L 70.51834 -115.729878 
L 69.722396 -115.565143 
L 68.926451 -114.266999 
L 68.130506 -112.092415 
L 67.334562 -109.609704 
L 66.538617 -107.508014 
L 65.742672 -106.335848 
L 64.946728 -106.344173 
L 64.150783 -107.505163 
L 63.354838 -109.655249 
L 62.558894 -112.656958 
L 61.762949 -116.457541 
L 60.967004 -120.930303 
L 60.17106 -125.580236 
L 59.375115 -129.500956 
L 58.57917 -131.759036 
L 57.783226 -131.884456 
L 56.987281 -130.127573 
L 56.191336 -127.294738 
L 55.395392 -124.194632 
L 54.599447 -121.272214 
L 53.803502 -118.84806 
L 53.007557 -117.437714 
L 52.211613 -117.66892 
L 51.415668 -119.835754 
L 50.619723 -123.435915 
L 49.823779 -127.236192 
L 49.027834 -129.914567 
L 48.231889 -130.69057 
L 47.435945 -129.568382 
L 46.64 -127.218944 
z
" style="stroke: #e41a1c; stroke-opacity: 0.3"/>
    </defs>
    <g clip-path="url(#p84284dd604)">
     <use xlink:href="#m9afbe44b5c" x="0" y="360" style="fill: #e41a1c; fill-opacity: 0.3; stroke: #e41a1c; stroke-opacity: 0.3"/>
    </g>
   </g>
   <g id="PolyCollection_2">
    <defs>
     <path id="mcfcf7429f5" d="M 46.64 -114.436142 
L 46.64 -93.915097 
L 47.435945 -98.292851 
L 48.231889 -101.118763 
L 49.027834 -101.999119 
L 49.823779 -101.091579 
L 50.619723 -98.98816 
L 51.415668 -96.480976 
L 52.211613 -94.28808 
L 53.007557 -92.822734 
L 53.803502 -92.088513 
L 54.599447 -91.749133 
L 55.395392 -91.341029 
L 56.191336 -90.519104 
L 56.987281 -89.218054 
L 57.783226 -87.673963 
L 58.57917 -86.323053 
L 59.375115 -85.625018 
L 60.17106 -85.859497 
L 60.967004 -86.96862 
L 61.762949 -88.541841 
L 62.558894 -89.975683 
L 63.354838 -90.720473 
L 64.150783 -90.475264 
L 64.946728 -89.257577 
L 65.742672 -87.374895 
L 66.538617 -85.355619 
L 67.334562 -83.827157 
L 68.130506 -83.297789 
L 68.926451 -83.934858 
L 69.722396 -85.503856 
L 70.51834 -87.509749 
L 71.314285 -89.438705 
L 72.11023 -90.940289 
L 72.906175 -91.858194 
L 73.702119 -92.160828 
L 74.498064 -91.872622 
L 75.294009 -91.040841 
L 76.089953 -89.721421 
L 76.885898 -87.983948 
L 77.681843 -85.951539 
L 78.477787 -83.851963 
L 79.273732 -82.013279 
L 80.069677 -80.767601 
L 80.865621 -80.31071 
L 81.661566 -80.603738 
L 82.457511 -81.364629 
L 83.253455 -82.144767 
L 84.0494 -82.466549 
L 84.845345 -81.989192 
L 85.641289 -80.645276 
L 86.437234 -78.675602 
L 87.233179 -76.527892 
L 88.029124 -74.663849 
L 88.825068 -73.372422 
L 89.621013 -72.672159 
L 90.416958 -72.329488 
L 91.212902 -71.975351 
L 92.008847 -71.27993 
L 92.804792 -70.122226 
L 93.600736 -68.678024 
L 94.396681 -67.376615 
L 95.192626 -66.738593 
L 95.98857 -67.16383 
L 96.784515 -68.755657 
L 97.58046 -71.245464 
L 98.376404 -74.047216 
L 99.172349 -76.434099 
L 99.968294 -77.78208 
L 100.764238 -77.784929 
L 101.560183 -76.550794 
L 102.356128 -74.547838 
L 103.152073 -72.433477 
L 103.948017 -70.837454 
L 104.743962 -70.171586 
L 105.539907 -70.525759 
L 106.335851 -71.684494 
L 107.131796 -73.254816 
L 107.927741 -74.843504 
L 108.723685 -76.19439 
L 109.51963 -77.226507 
L 110.315575 -77.982774 
L 111.111519 -78.543185 
L 111.907464 -78.949707 
L 112.703409 -79.168466 
L 113.499353 -79.106878 
L 114.295298 -78.690129 
L 115.091243 -77.9612 
L 115.887187 -77.127414 
L 116.683132 -76.494715 
L 117.479077 -76.318396 
L 118.275021 -76.670416 
L 119.070966 -77.403709 
L 119.866911 -78.210429 
L 120.662856 -78.71892 
L 121.4588 -78.599697 
L 122.254745 -77.681635 
L 123.05069 -76.05459 
L 123.846634 -74.094612 
L 124.642579 -72.355761 
L 125.438524 -71.349249 
L 126.234468 -71.321329 
L 127.030413 -72.15531 
L 127.826358 -73.442462 
L 128.622302 -74.661727 
L 129.418247 -75.367407 
L 130.214192 -75.321218 
L 131.010136 -74.546673 
L 131.806081 -73.298154 
L 132.602026 -71.956986 
L 133.39797 -70.894725 
L 134.193915 -70.353223 
L 134.98986 -70.378367 
L 135.785805 -70.828371 
L 136.581749 -71.461797 
L 137.377694 -72.081739 
L 138.173639 -72.668993 
L 138.969583 -73.410444 
L 139.765528 -74.578194 
L 140.561473 -76.329135 
L 141.357417 -78.556464 
L 142.153362 -80.877533 
L 142.949307 -82.751934 
L 143.745251 -83.664975 
L 144.541196 -83.305604 
L 145.337141 -81.68566 
L 146.133085 -79.160005 
L 146.92903 -76.326215 
L 147.724975 -73.829343 
L 148.520919 -72.151089 
L 149.316864 -71.474669 
L 150.112809 -71.671933 
L 150.908753 -72.398591 
L 151.704698 -73.249004 
L 152.500643 -73.913644 
L 153.296588 -74.282548 
L 154.092532 -74.451689 
L 154.888477 -74.629213 
L 155.684422 -74.992133 
L 156.480366 -75.571777 
L 157.276311 -76.222871 
L 158.072256 -76.680539 
L 158.8682 -76.673469 
L 159.664145 -76.048682 
L 160.46009 -74.857668 
L 161.256034 -73.355349 
L 162.051979 -71.893008 
L 162.847924 -70.7474 
L 163.643868 -69.978284 
L 164.439813 -69.396959 
L 165.235758 -68.664388 
L 166.031702 -67.466987 
L 166.827647 -65.683481 
L 167.623592 -63.467061 
L 168.419537 -61.205933 
L 169.215481 -59.373765 
L 170.011426 -58.329457 
L 170.807371 -58.15482 
L 171.603315 -58.606633 
L 172.39926 -59.207163 
L 173.195205 -59.434267 
L 173.991149 -58.932062 
L 174.787094 -57.659218 
L 175.583039 -55.917274 
L 176.378983 -54.243791 
L 177.174928 -53.203636 
L 177.970873 -53.155818 
L 178.766817 -54.09556 
L 179.562762 -55.650392 
L 180.358707 -57.243155 
L 181.154651 -58.352545 
L 181.950596 -58.748118 
L 182.746541 -58.586921 
L 183.542485 -58.330396 
L 184.33843 -58.526891 
L 185.134375 -59.557934 
L 185.93032 -61.449923 
L 186.726264 -63.821634 
L 187.522209 -65.992471 
L 188.318154 -67.225029 
L 189.114098 -67.021044 
L 189.910043 -65.350385 
L 190.705988 -62.703051 
L 191.501932 -59.930453 
L 192.297877 -57.945154 
L 193.093822 -57.408783 
L 193.889766 -58.525382 
L 194.685711 -60.99794 
L 195.481656 -64.144218 
L 196.2776 -67.126356 
L 197.073545 -69.223199 
L 197.86949 -70.059989 
L 198.665434 -69.713653 
L 199.461379 -68.646286 
L 200.257324 -67.490722 
L 201.053269 -66.78779 
L 201.849213 -66.798506 
L 202.645158 -67.469319 
L 203.441103 -68.543144 
L 204.237047 -69.726877 
L 205.032992 -70.806369 
L 205.828937 -71.66798 
L 206.624881 -72.269775 
L 207.420826 -72.617701 
L 208.216771 -72.757222 
L 209.012715 -72.759752 
L 209.80866 -72.704224 
L 210.604605 -72.681894 
L 211.400549 -72.830704 
L 212.196494 -73.356263 
L 212.992439 -74.4846 
L 213.788383 -76.34374 
L 214.584328 -78.839395 
L 215.380273 -81.604154 
L 216.176218 -84.054368 
L 216.972162 -85.536984 
L 217.768107 -85.523133 
L 218.564052 -83.79408 
L 219.359996 -80.552162 
L 220.155941 -76.396159 
L 220.951886 -72.151905 
L 221.74783 -68.621913 
L 222.543775 -66.350929 
L 223.33972 -65.481124 
L 224.135664 -65.729655 
L 224.931609 -66.493259 
L 225.727554 -67.057037 
L 226.523498 -66.843547 
L 227.319443 -65.60709 
L 228.115388 -63.494958 
L 228.911332 -60.963592 
L 229.707277 -58.602504 
L 230.503222 -56.93728 
L 231.299166 -56.268868 
L 232.095111 -56.592719 
L 232.891056 -57.625781 
L 233.687001 -58.931731 
L 234.482945 -60.086919 
L 235.27889 -60.812171 
L 236.074835 -61.027747 
L 236.870779 -60.837893 
L 237.666724 -60.472695 
L 238.462669 -60.205147 
L 239.258613 -60.254291 
L 240.054558 -60.700836 
L 240.850503 -61.453893 
L 241.646447 -62.286271 
L 242.442392 -62.916373 
L 243.238337 -63.096223 
L 244.034281 -62.678815 
L 244.830226 -61.658577 
L 245.626171 -60.183093 
L 246.422115 -58.52803 
L 247.21806 -57.031573 
L 248.014005 -56.005758 
L 248.80995 -55.660702 
L 249.605894 -56.072821 
L 250.401839 -57.200814 
L 251.197784 -58.925392 
L 251.993728 -61.082743 
L 252.789673 -63.48 
L 253.585618 -65.902418 
L 254.381562 -68.128172 
L 255.177507 -69.958757 
L 255.973452 -71.258972 
L 256.769396 -71.986889 
L 257.565341 -72.193212 
L 258.361286 -71.990473 
L 259.15723 -71.51756 
L 259.953175 -70.925137 
L 260.74912 -70.382336 
L 261.545064 -70.080477 
L 262.341009 -70.209397 
L 263.136954 -70.906496 
L 263.932898 -72.203981 
L 264.728843 -74.003019 
L 265.524788 -76.086118 
L 266.320733 -78.160316 
L 267.116677 -79.917618 
L 267.912622 -81.101783 
L 268.708567 -81.570299 
L 269.504511 -81.335463 
L 270.300456 -80.567662 
L 271.096401 -79.55277 
L 271.892345 -78.612004 
L 272.68829 -78.010188 
L 273.484235 -77.886232 
L 274.280179 -78.228747 
L 275.076124 -78.89608 
L 275.872069 -79.663991 
L 276.668013 -80.285486 
L 277.463958 -80.554491 
L 278.259903 -80.363638 
L 279.055847 -79.737772 
L 279.851792 -78.824751 
L 280.647737 -77.844718 
L 281.443682 -77.023709 
L 282.239626 -76.539657 
L 283.035571 -76.487298 
L 283.831516 -76.854966 
L 284.62746 -77.512711 
L 285.423405 -78.22465 
L 286.21935 -78.693593 
L 287.015294 -78.630059 
L 287.811239 -77.829396 
L 288.607184 -76.243039 
L 289.403128 -74.02957 
L 290.199073 -71.561951 
L 290.995018 -69.365275 
L 291.790962 -67.985012 
L 292.586907 -67.826135 
L 293.382852 -69.023382 
L 294.178796 -71.387546 
L 294.974741 -74.441278 
L 295.770686 -77.533429 
L 296.56663 -80.005336 
L 297.362575 -81.3664 
L 298.15852 -81.424105 
L 298.954465 -80.321542 
L 299.750409 -78.468609 
L 300.546354 -76.394885 
L 301.342299 -74.578594 
L 302.138243 -73.308056 
L 302.934188 -72.618262 
L 303.730133 -72.322121 
L 304.526077 -72.12283 
L 305.322022 -71.758795 
L 306.117967 -71.114559 
L 306.913911 -70.24501 
L 307.709856 -69.305623 
L 308.505801 -68.437076 
L 309.301745 -67.679025 
L 310.09769 -66.960599 
L 310.893635 -66.155792 
L 311.689579 -65.156473 
L 312.485524 -63.930885 
L 313.281469 -62.564108 
L 314.077414 -61.27781 
L 314.873358 -60.405281 
L 315.669303 -60.292447 
L 316.465248 -61.141933 
L 317.261192 -62.885026 
L 318.057137 -65.170703 
L 318.853082 -67.485598 
L 319.649026 -69.335626 
L 320.444971 -70.396586 
L 321.240916 -70.580863 
L 322.03686 -70.02015 
L 322.832805 -68.988406 
L 323.62875 -67.792687 
L 324.424694 -66.666391 
L 325.220639 -65.706869 
L 326.016584 -64.884167 
L 326.812528 -64.109318 
L 327.608473 -63.318355 
L 328.404418 -62.527671 
L 329.200363 -61.838491 
L 329.996307 -61.394244 
L 330.792252 -61.312428 
L 331.588197 -61.622827 
L 332.384141 -62.243129 
L 333.180086 -63.004614 
L 333.976031 -63.71133 
L 334.771975 -64.19884 
L 335.56792 -64.367579 
L 336.363865 -64.187878 
L 337.159809 -63.686474 
L 337.955754 -62.925181 
L 338.751699 -61.982625 
L 339.547643 -60.951114 
L 340.343588 -59.95235 
L 341.139533 -59.15612 
L 341.935477 -58.773676 
L 342.731422 -59.009227 
L 343.527367 -59.982235 
L 344.323311 -61.655603 
L 345.119256 -63.80388 
L 345.915201 -66.037697 
L 346.711146 -67.883027 
L 347.50709 -68.900729 
L 348.303035 -68.816215 
L 349.09898 -67.615351 
L 349.894924 -65.566389 
L 350.690869 -63.153089 
L 351.486814 -60.938121 
L 352.282758 -59.400967 
L 353.078703 -58.802294 
L 353.874648 -59.119027 
L 354.670592 -60.074019 
L 355.466537 -61.250853 
L 356.262482 -62.247617 
L 357.058426 -62.807464 
L 357.854371 -62.880838 
L 358.650316 -62.608848 
L 359.44626 -62.244809 
L 360.242205 -62.044218 
L 361.03815 -62.161066 
L 361.834095 -62.592185 
L 362.630039 -63.19836 
L 363.425984 -63.793375 
L 364.221929 -64.249201 
L 365.017873 -64.554228 
L 365.813818 -64.797773 
L 366.609763 -65.104473 
L 367.405707 -65.561709 
L 368.201652 -66.169127 
L 368.997597 -66.820718 
L 369.793541 -67.324655 
L 370.589486 -67.464514 
L 371.385431 -67.090214 
L 372.181375 -66.201573 
L 372.97732 -64.974984 
L 373.773265 -63.710996 
L 374.569209 -62.729984 
L 375.365154 -62.27146 
L 376.161099 -62.43827 
L 376.957043 -63.192707 
L 377.752988 -64.388416 
L 378.548933 -65.819708 
L 379.344878 -67.27547 
L 380.140822 -68.585707 
L 380.936767 -69.647879 
L 381.732712 -70.4255 
L 382.528656 -70.922657 
L 383.324601 -71.150196 
L 384.120546 -71.106491 
L 384.91649 -70.790749 
L 385.712435 -70.246028 
L 386.50838 -69.602321 
L 387.304324 -69.077464 
L 388.100269 -68.912561 
L 388.896214 -69.263402 
L 389.692158 -70.106131 
L 390.488103 -71.212781 
L 391.284048 -72.212956 
L 392.079992 -72.71522 
L 392.875937 -72.441146 
L 393.671882 -71.328661 
L 394.467827 -69.57293 
L 395.263771 -67.583664 
L 396.059716 -65.857476 
L 396.855661 -64.803101 
L 397.651605 -64.595689 
L 398.44755 -65.130739 
L 399.243495 -66.091377 
L 400.039439 -67.086312 
L 400.835384 -67.800779 
L 401.631329 -68.112584 
L 402.427273 -68.128929 
L 403.223218 -68.111206 
L 404.019163 -68.311116 
L 404.815107 -68.815934 
L 405.611052 -69.501194 
L 406.406997 -70.096068 
L 407.202941 -70.293785 
L 407.998886 -69.865416 
L 408.794831 -68.775328 
L 409.590775 -67.251034 
L 410.38672 -65.702812 
L 411.182665 -64.483763 
L 411.97861 -63.676357 
L 412.774554 -63.10304 
L 413.570499 -62.511255 
L 413.570499 -110.941176 
L 413.570499 -110.941176 
L 412.774554 -111.333496 
L 411.97861 -111.695605 
L 411.182665 -112.389322 
L 410.38672 -113.503975 
L 409.590775 -114.877625 
L 408.794831 -116.211579 
L 407.998886 -117.16385 
L 407.202941 -117.461624 
L 406.406997 -117.04876 
L 405.611052 -116.15559 
L 404.815107 -115.192367 
L 404.019163 -114.52864 
L 403.223218 -114.317719 
L 402.427273 -114.458516 
L 401.631329 -114.67148 
L 400.835384 -114.632616 
L 400.039439 -114.128639 
L 399.243495 -113.183632 
L 398.44755 -112.085966 
L 397.651605 -111.282485 
L 396.855661 -111.18855 
L 396.059716 -112.010239 
L 395.263771 -113.654939 
L 394.467827 -115.754345 
L 393.671882 -117.784794 
L 392.875937 -119.245829 
L 392.079992 -119.834021 
L 391.284048 -119.538529 
L 390.488103 -118.616312 
L 389.692158 -117.467513 
L 388.896214 -116.479396 
L 388.100269 -115.90847 
L 387.304324 -115.833504 
L 386.50838 -116.171548 
L 385.712435 -116.732112 
L 384.91649 -117.28738 
L 384.120546 -117.641545 
L 383.324601 -117.678941 
L 382.528656 -117.372189 
L 381.732712 -116.750507 
L 380.936767 -115.852919 
L 380.140822 -114.700676 
L 379.344878 -113.309841 
L 378.548933 -111.736224 
L 377.752988 -110.11956 
L 376.957043 -108.688982 
L 376.161099 -107.711141 
L 375.365154 -107.39591 
L 374.569209 -107.805002 
L 373.773265 -108.814277 
L 372.97732 -110.150695 
L 372.181375 -111.480963 
L 371.385431 -112.507707 
L 370.589486 -113.040748 
L 369.793541 -113.032503 
L 368.997597 -112.575424 
L 368.201652 -111.857691 
L 367.405707 -111.083867 
L 366.609763 -110.390966 
L 365.813818 -109.806295 
L 365.017873 -109.27234 
L 364.221929 -108.717408 
L 363.425984 -108.120816 
L 362.630039 -107.534467 
L 361.834095 -107.059887 
L 361.03815 -106.801989 
L 360.242205 -106.816968 
L 359.44626 -107.066033 
L 358.650316 -107.394929 
L 357.854371 -107.564158 
L 357.058426 -107.336188 
L 356.262482 -106.58962 
L 355.466537 -105.404938 
L 354.670592 -104.075109 
L 353.874648 -103.030029 
L 353.078703 -102.700312 
L 352.282758 -103.365744 
L 351.486814 -105.038364 
L 350.690869 -107.424118 
L 349.894924 -109.986623 
L 349.09898 -112.09985 
L 348.303035 -113.237738 
L 347.50709 -113.131331 
L 346.711146 -111.839257 
L 345.915201 -109.712774 
L 345.119256 -107.272473 
L 344.323311 -105.041839 
L 343.527367 -103.399067 
L 342.731422 -102.501465 
L 341.935477 -102.300769 
L 341.139533 -102.622498 
L 340.343588 -103.259031 
L 339.547643 -104.035397 
L 338.751699 -104.833233 
L 337.955754 -105.580046 
L 337.159809 -106.219655 
L 336.363865 -106.683614 
L 335.56792 -106.885657 
L 334.771975 -106.75095 
L 333.976031 -106.265957 
L 333.180086 -105.513831 
L 332.384141 -104.666902 
L 331.588197 -103.935996 
L 330.792252 -103.501544 
L 329.996307 -103.457742 
L 329.200363 -103.791217 
L 328.404418 -104.401606 
L 327.608473 -105.157244 
L 326.812528 -105.962101 
L 326.016584 -106.798472 
L 325.220639 -107.71948 
L 324.424694 -108.794228 
L 323.62875 -110.033832 
L 322.832805 -111.332147 
L 322.03686 -112.450752 
L 321.240916 -113.067947 
L 320.444971 -112.889232 
L 319.649026 -111.778968 
L 318.853082 -109.846078 
L 318.057137 -107.433394 
L 317.261192 -105.016651 
L 316.465248 -103.067352 
L 315.669303 -101.932833 
L 314.873358 -101.754883 
L 314.077414 -102.433522 
L 313.281469 -103.655414 
L 312.485524 -105.007771 
L 311.689579 -106.150126 
L 310.893635 -106.954162 
L 310.09769 -107.523981 
L 309.301745 -108.08634 
L 308.505801 -108.827462 
L 307.709856 -109.780579 
L 306.913911 -110.818402 
L 306.117967 -111.731072 
L 305.322022 -112.336168 
L 304.526077 -112.573949 
L 303.730133 -112.55635 
L 302.934188 -112.549697 
L 302.138243 -112.886497 
L 301.342299 -113.827577 
L 300.546354 -115.424725 
L 299.750409 -117.446795 
L 298.954465 -119.413834 
L 298.15852 -120.738177 
L 297.362575 -120.922286 
L 296.56663 -119.7384 
L 295.770686 -117.324901 
L 294.974741 -114.166633 
L 294.178796 -110.96454 
L 293.382852 -108.43531 
L 292.586907 -107.108206 
L 291.790962 -107.190366 
L 290.995018 -108.542225 
L 290.199073 -110.754373 
L 289.403128 -113.281311 
L 288.607184 -115.585052 
L 287.811239 -117.25658 
L 287.015294 -118.093309 
L 286.21935 -118.116598 
L 285.423405 -117.528762 
L 284.62746 -116.631882 
L 283.831516 -115.742609 
L 283.035571 -115.125607 
L 282.239626 -114.948201 
L 281.443682 -115.253862 
L 280.647737 -115.960776 
L 279.851792 -116.890914 
L 279.055847 -117.82058 
L 278.259903 -118.53186 
L 277.463958 -118.855647 
L 276.668013 -118.710398 
L 275.872069 -118.136336 
L 275.076124 -117.306086 
L 274.280179 -116.488889 
L 273.484235 -115.969035 
L 272.68829 -115.949253 
L 271.892345 -116.47904 
L 271.096401 -117.432003 
L 270.300456 -118.533953 
L 269.504511 -119.431018 
L 268.708567 -119.782038 
L 267.912622 -119.353402 
L 267.116677 -118.088754 
L 266.320733 -116.129329 
L 265.524788 -113.775876 
L 264.728843 -111.404087 
L 263.932898 -109.363528 
L 263.136954 -107.896325 
L 262.341009 -107.099926 
L 261.545064 -106.933323 
L 260.74912 -107.247541 
L 259.953175 -107.824029 
L 259.15723 -108.418663 
L 258.361286 -108.81142 
L 257.565341 -108.849311 
L 256.769396 -108.462154 
L 255.973452 -107.642092 
L 255.177507 -106.403028 
L 254.381562 -104.755246 
L 253.585618 -102.720408 
L 252.789673 -100.375974 
L 251.993728 -97.891818 
L 251.197784 -95.527587 
L 250.401839 -93.583251 
L 249.605894 -92.319571 
L 248.80995 -91.882799 
L 248.014005 -92.267563 
L 247.21806 -93.328033 
L 246.422115 -94.819541 
L 245.626171 -96.446365 
L 244.830226 -97.906092 
L 244.034281 -98.937118 
L 243.238337 -99.37392 
L 242.442392 -99.19447 
L 241.646447 -98.530411 
L 240.850503 -97.62546 
L 240.054558 -96.758363 
L 239.258613 -96.162053 
L 238.462669 -95.96022 
L 237.666724 -96.128232 
L 236.870779 -96.488359 
L 236.074835 -96.758685 
L 235.27889 -96.66026 
L 234.482945 -96.044823 
L 233.687001 -94.977983 
L 232.891056 -93.73461 
L 232.095111 -92.71379 
L 231.299166 -92.312776 
L 230.503222 -92.797671 
L 229.707277 -94.200756 
L 228.911332 -96.279589 
L 228.115388 -98.571127 
L 227.319443 -100.540164 
L 226.523498 -101.769236 
L 225.727554 -102.112334 
L 224.931609 -101.757968 
L 224.135664 -101.187064 
L 223.33972 -101.034014 
L 222.543775 -101.877615 
L 221.74783 -104.02316 
L 220.951886 -107.364223 
L 220.155941 -111.39176 
L 219.359996 -115.348975 
L 218.564052 -118.463239 
L 217.768107 -120.167639 
L 216.972162 -120.248531 
L 216.176218 -118.884486 
L 215.380273 -116.565625 
L 214.584328 -113.918293 
L 213.788383 -111.506003 
L 212.992439 -109.688394 
L 212.196494 -108.577424 
L 211.400549 -108.073767 
L 210.604605 -107.946727 
L 209.80866 -107.933197 
L 209.012715 -107.831983 
L 208.216771 -107.553531 
L 207.420826 -107.095639 
L 206.624881 -106.469243 
L 205.828937 -105.648257 
L 205.032992 -104.600531 
L 204.237047 -103.373752 
L 203.441103 -102.14787 
L 202.645158 -101.192542 
L 201.849213 -100.752677 
L 201.053269 -100.936051 
L 200.257324 -101.653837 
L 199.461379 -102.62052 
L 198.665434 -103.407958 
L 197.86949 -103.550887 
L 197.073545 -102.692999 
L 196.2776 -100.742283 
L 195.481656 -97.9753 
L 194.685711 -95.017733 
L 193.889766 -92.668781 
L 193.093822 -91.61851 
L 192.297877 -92.175517 
L 191.501932 -94.130654 
L 190.705988 -96.821294 
L 189.910043 -99.365666 
L 189.114098 -100.966013 
L 188.318154 -101.165983 
L 187.522209 -99.980154 
L 186.726264 -97.859419 
L 185.93032 -95.502186 
L 185.134375 -93.574383 
L 184.33843 -92.448781 
L 183.542485 -92.079747 
L 182.746541 -92.070372 
L 181.950596 -91.892663 
L 181.154651 -91.149276 
L 180.358707 -89.757587 
L 179.562762 -87.986414 
L 178.766817 -86.344918 
L 177.970873 -85.376614 
L 177.174928 -85.437962 
L 176.378983 -86.544496 
L 175.583039 -88.347753 
L 174.787094 -90.260985 
L 173.991149 -91.689909 
L 173.195205 -92.272604 
L 172.39926 -92.021525 
L 171.603315 -91.30364 
L 170.807371 -90.672055 
L 170.011426 -90.631633 
L 169.215481 -91.444482 
L 168.419537 -93.051472 
L 167.623592 -95.12839 
L 166.827647 -97.241119 
L 166.031702 -99.029442 
L 165.235758 -100.340425 
L 164.439813 -101.25653 
L 163.643868 -102.015608 
L 162.847924 -102.871972 
L 162.051979 -103.968226 
L 161.256034 -105.269639 
L 160.46009 -106.57756 
L 159.664145 -107.61033 
L 158.8682 -108.12432 
L 158.072256 -108.030571 
L 157.276311 -107.447584 
L 156.480366 -106.649842 
L 155.684422 -105.93233 
L 154.888477 -105.467587 
L 154.092532 -105.234948 
L 153.296588 -105.053654 
L 152.500643 -104.696321 
L 151.704698 -104.03037 
L 150.908753 -103.128291 
L 150.112809 -102.291566 
L 149.316864 -101.958365 
L 148.520919 -102.520781 
L 147.724975 -104.134517 
L 146.92903 -106.614606 
L 146.133085 -109.464143 
L 145.337141 -112.019435 
L 144.541196 -113.656012 
L 143.745251 -113.986896 
L 142.949307 -112.982089 
L 142.153362 -110.955967 
L 141.357417 -108.423933 
L 140.561473 -105.900868 
L 139.765528 -103.74384 
L 138.969583 -102.099048 
L 138.173639 -100.939081 
L 137.377694 -100.138492 
L 136.581749 -99.554212 
L 135.785805 -99.106427 
L 134.98986 -98.836888 
L 134.193915 -98.891629 
L 133.39797 -99.411556 
L 132.602026 -100.390545 
L 131.806081 -101.596889 
L 131.010136 -102.620252 
L 130.214192 -103.031152 
L 129.418247 -102.578007 
L 128.622302 -101.328388 
L 127.826358 -99.681142 
L 127.030413 -98.227871 
L 126.234468 -97.52161 
L 125.438524 -97.870631 
L 124.642579 -99.248586 
L 123.846634 -101.325685 
L 123.05069 -103.576121 
L 122.254745 -105.426496 
L 121.4588 -106.427006 
L 120.662856 -106.408115 
L 119.866911 -105.54964 
L 119.070966 -104.302664 
L 118.275021 -103.185016 
L 117.479077 -102.560916 
L 116.683132 -102.531193 
L 115.887187 -102.970245 
L 115.091243 -103.639686 
L 114.295298 -104.291983 
L 113.499353 -104.733119 
L 112.703409 -104.857097 
L 111.907464 -104.654395 
L 111.111519 -104.177936 
L 110.315575 -103.477597 
L 109.51963 -102.554202 
L 108.723685 -101.376559 
L 107.927741 -99.951677 
L 107.131796 -98.392993 
L 106.335851 -96.93675 
L 105.539907 -95.895439 
L 104.743962 -95.563827 
L 103.948017 -96.100453 
L 103.152073 -97.421047 
L 102.356128 -99.158245 
L 101.560183 -100.732927 
L 100.764238 -101.532914 
L 99.968294 -101.13252 
L 99.172349 -99.458908 
L 98.376404 -96.837197 
L 97.58046 -93.898221 
L 96.784515 -91.377193 
L 95.98857 -89.865746 
L 95.192626 -89.607483 
L 94.396681 -90.42611 
L 93.600736 -91.822327 
L 92.804792 -93.193752 
L 92.008847 -94.078278 
L 91.212902 -94.322964 
L 90.416958 -94.119687 
L 89.621013 -93.898507 
L 88.825068 -94.120489 
L 88.029124 -95.057599 
L 87.233179 -96.662898 
L 86.437234 -98.590645 
L 85.641289 -100.34337 
L 84.845345 -101.466934 
L 84.0494 -101.715773 
L 83.253455 -101.140292 
L 82.457511 -100.071948 
L 81.661566 -99.00413 
L 80.865621 -98.409404 
L 80.069677 -98.576688 
L 79.273732 -99.544606 
L 78.477787 -101.140665 
L 77.681843 -103.073615 
L 76.885898 -105.026075 
L 76.089953 -106.730143 
L 75.294009 -108.016145 
L 74.498064 -108.809896 
L 73.702119 -109.078485 
L 72.906175 -108.781536 
L 72.11023 -107.892508 
L 71.314285 -106.47814 
L 70.51834 -104.749721 
L 69.722396 -103.029609 
L 68.926451 -101.672432 
L 68.130506 -100.999618 
L 67.334562 -101.23805 
L 66.538617 -102.430998 
L 65.742672 -104.336754 
L 64.946728 -106.404716 
L 64.150783 -107.942384 
L 63.354838 -108.42814 
L 62.558894 -107.755164 
L 61.762949 -106.260829 
L 60.967004 -104.564591 
L 60.17106 -103.325718 
L 59.375115 -103.019099 
L 58.57917 -103.779871 
L 57.783226 -105.35787 
L 56.987281 -107.2266 
L 56.191336 -108.830174 
L 55.395392 -109.848856 
L 54.599447 -110.33934 
L 53.803502 -110.686675 
L 53.007557 -111.406618 
L 52.211613 -112.890931 
L 51.415668 -115.190622 
L 50.619723 -117.917832 
L 49.823779 -120.324219 
L 49.027834 -121.553714 
L 48.231889 -120.976508 
L 47.435945 -118.456778 
L 46.64 -114.436142 
z
" style="stroke: #377eb8; stroke-opacity: 0.3"/>
    </defs>
    <g clip-path="url(#p84284dd604)">
     <use xlink:href="#mcfcf7429f5" x="0" y="360" style="fill: #377eb8; fill-opacity: 0.3; stroke: #377eb8; stroke-opacity: 0.3"/>
    </g>
   </g>
   <g id="patch_3">
    <path d="M 229.866466 318.04 
L 229.866466 71.732 
L 331.747385 71.732 
L 331.747385 318.04 
z
" clip-path="url(#p84284dd604)" style="fill: #808080; opacity: 0.3"/>
   </g>
   <g id="matplotlib.axis_1">
    <g id="xtick_1">
     <g id="line2d_1">
      <defs>
       <path id="m00a17016e8" d="M 0 0 
L 0 3.5 
" style="stroke: #000000; stroke-width: 0.8"/>
      </defs>
      <g>
       <use xlink:href="#m00a17016e8" x="87.233179" y="318.04" style="stroke: #000000; stroke-width: 0.8"/>
      </g>
     </g>
     <g id="text_1">
      <!-- 0.0 -->
      <g transform="translate(79.281616 332.638438)scale(0.1 -0.1)">
       <defs>
        <path id="DejaVuSans-30" d="M 2034 4250 
Q 1547 4250 1301 3770 
Q 1056 3291 1056 2328 
Q 1056 1369 1301 889 
Q 1547 409 2034 409 
Q 2525 409 2770 889 
Q 3016 1369 3016 2328 
Q 3016 3291 2770 3770 
Q 2525 4250 2034 4250 
z
M 2034 4750 
Q 2819 4750 3233 4129 
Q 3647 3509 3647 2328 
Q 3647 1150 3233 529 
Q 2819 -91 2034 -91 
Q 1250 -91 836 529 
Q 422 1150 422 2328 
Q 422 3509 836 4129 
Q 1250 4750 2034 4750 
z
" transform="scale(0.015625)"/>
        <path id="DejaVuSans-2e" d="M 684 794 
L 1344 794 
L 1344 0 
L 684 0 
L 684 794 
z
" transform="scale(0.015625)"/>
       </defs>
       <use xlink:href="#DejaVuSans-30"/>
       <use xlink:href="#DejaVuSans-2e" x="63.623047"/>
       <use xlink:href="#DejaVuSans-30" x="95.410156"/>
      </g>
     </g>
    </g>
    <g id="xtick_2">
     <g id="line2d_2">
      <g>
       <use xlink:href="#m00a17016e8" x="168.737914" y="318.04" style="stroke: #000000; stroke-width: 0.8"/>
      </g>
     </g>
     <g id="text_2">
      <!-- 0.2 -->
      <g transform="translate(160.786352 332.638438)scale(0.1 -0.1)">
       <defs>
        <path id="DejaVuSans-32" d="M 1228 531 
L 3431 531 
L 3431 0 
L 469 0 
L 469 531 
Q 828 903 1448 1529 
Q 2069 2156 2228 2338 
Q 2531 2678 2651 2914 
Q 2772 3150 2772 3378 
Q 2772 3750 2511 3984 
Q 2250 4219 1831 4219 
Q 1534 4219 1204 4116 
Q 875 4013 500 3803 
L 500 4441 
Q 881 4594 1212 4672 
Q 1544 4750 1819 4750 
Q 2544 4750 2975 4387 
Q 3406 4025 3406 3419 
Q 3406 3131 3298 2873 
Q 3191 2616 2906 2266 
Q 2828 2175 2409 1742 
Q 1991 1309 1228 531 
z
" transform="scale(0.015625)"/>
       </defs>
       <use xlink:href="#DejaVuSans-30"/>
       <use xlink:href="#DejaVuSans-2e" x="63.623047"/>
       <use xlink:href="#DejaVuSans-32" x="95.410156"/>
      </g>
     </g>
    </g>
    <g id="xtick_3">
     <g id="line2d_3">
      <g>
       <use xlink:href="#m00a17016e8" x="250.24265" y="318.04" style="stroke: #000000; stroke-width: 0.8"/>
      </g>
     </g>
     <g id="text_3">
      <!-- 0.4 -->
      <g transform="translate(242.291087 332.638438)scale(0.1 -0.1)">
       <defs>
        <path id="DejaVuSans-34" d="M 2419 4116 
L 825 1625 
L 2419 1625 
L 2419 4116 
z
M 2253 4666 
L 3047 4666 
L 3047 1625 
L 3713 1625 
L 3713 1100 
L 3047 1100 
L 3047 0 
L 2419 0 
L 2419 1100 
L 313 1100 
L 313 1709 
L 2253 4666 
z
" transform="scale(0.015625)"/>
       </defs>
       <use xlink:href="#DejaVuSans-30"/>
       <use xlink:href="#DejaVuSans-2e" x="63.623047"/>
       <use xlink:href="#DejaVuSans-34" x="95.410156"/>
      </g>
     </g>
    </g>
    <g id="xtick_4">
     <g id="line2d_4">
      <g>
       <use xlink:href="#m00a17016e8" x="331.747385" y="318.04" style="stroke: #000000; stroke-width: 0.8"/>
      </g>
     </g>
     <g id="text_4">
      <!-- 0.6 -->
      <g transform="translate(323.795823 332.638438)scale(0.1 -0.1)">
       <defs>
        <path id="DejaVuSans-36" d="M 2113 2584 
Q 1688 2584 1439 2293 
Q 1191 2003 1191 1497 
Q 1191 994 1439 701 
Q 1688 409 2113 409 
Q 2538 409 2786 701 
Q 3034 994 3034 1497 
Q 3034 2003 2786 2293 
Q 2538 2584 2113 2584 
z
M 3366 4563 
L 3366 3988 
Q 3128 4100 2886 4159 
Q 2644 4219 2406 4219 
Q 1781 4219 1451 3797 
Q 1122 3375 1075 2522 
Q 1259 2794 1537 2939 
Q 1816 3084 2150 3084 
Q 2853 3084 3261 2657 
Q 3669 2231 3669 1497 
Q 3669 778 3244 343 
Q 2819 -91 2113 -91 
Q 1303 -91 875 529 
Q 447 1150 447 2328 
Q 447 3434 972 4092 
Q 1497 4750 2381 4750 
Q 2619 4750 2861 4703 
Q 3103 4656 3366 4563 
z
" transform="scale(0.015625)"/>
       </defs>
       <use xlink:href="#DejaVuSans-30"/>
       <use xlink:href="#DejaVuSans-2e" x="63.623047"/>
       <use xlink:href="#DejaVuSans-36" x="95.410156"/>
      </g>
     </g>
    </g>
    <g id="xtick_5">
     <g id="line2d_5">
      <g>
       <use xlink:href="#m00a17016e8" x="413.252121" y="318.04" style="stroke: #000000; stroke-width: 0.8"/>
      </g>
     </g>
     <g id="text_5">
      <!-- 0.8 -->
      <g transform="translate(405.300559 332.638438)scale(0.1 -0.1)">
       <defs>
        <path id="DejaVuSans-38" d="M 2034 2216 
Q 1584 2216 1326 1975 
Q 1069 1734 1069 1313 
Q 1069 891 1326 650 
Q 1584 409 2034 409 
Q 2484 409 2743 651 
Q 3003 894 3003 1313 
Q 3003 1734 2745 1975 
Q 2488 2216 2034 2216 
z
M 1403 2484 
Q 997 2584 770 2862 
Q 544 3141 544 3541 
Q 544 4100 942 4425 
Q 1341 4750 2034 4750 
Q 2731 4750 3128 4425 
Q 3525 4100 3525 3541 
Q 3525 3141 3298 2862 
Q 3072 2584 2669 2484 
Q 3125 2378 3379 2068 
Q 3634 1759 3634 1313 
Q 3634 634 3220 271 
Q 2806 -91 2034 -91 
Q 1263 -91 848 271 
Q 434 634 434 1313 
Q 434 1759 690 2068 
Q 947 2378 1403 2484 
z
M 1172 3481 
Q 1172 3119 1398 2916 
Q 1625 2713 2034 2713 
Q 2441 2713 2670 2916 
Q 2900 3119 2900 3481 
Q 2900 3844 2670 4047 
Q 2441 4250 2034 4250 
Q 1625 4250 1398 4047 
Q 1172 3844 1172 3481 
z
" transform="scale(0.015625)"/>
       </defs>
       <use xlink:href="#DejaVuSans-30"/>
       <use xlink:href="#DejaVuSans-2e" x="63.623047"/>
       <use xlink:href="#DejaVuSans-38" x="95.410156"/>
      </g>
     </g>
    </g>
    <g id="text_6">
     <!-- seconds -->
     <g transform="translate(209.667749 346.316563)scale(0.1 -0.1)">
      <defs>
       <path id="DejaVuSans-73" d="M 2834 3397 
L 2834 2853 
Q 2591 2978 2328 3040 
Q 2066 3103 1784 3103 
Q 1356 3103 1142 2972 
Q 928 2841 928 2578 
Q 928 2378 1081 2264 
Q 1234 2150 1697 2047 
L 1894 2003 
Q 2506 1872 2764 1633 
Q 3022 1394 3022 966 
Q 3022 478 2636 193 
Q 2250 -91 1575 -91 
Q 1294 -91 989 -36 
Q 684 19 347 128 
L 347 722 
Q 666 556 975 473 
Q 1284 391 1588 391 
Q 1994 391 2212 530 
Q 2431 669 2431 922 
Q 2431 1156 2273 1281 
Q 2116 1406 1581 1522 
L 1381 1569 
Q 847 1681 609 1914 
Q 372 2147 372 2553 
Q 372 3047 722 3315 
Q 1072 3584 1716 3584 
Q 2034 3584 2315 3537 
Q 2597 3491 2834 3397 
z
" transform="scale(0.015625)"/>
       <path id="DejaVuSans-65" d="M 3597 1894 
L 3597 1613 
L 953 1613 
Q 991 1019 1311 708 
Q 1631 397 2203 397 
Q 2534 397 2845 478 
Q 3156 559 3463 722 
L 3463 178 
Q 3153 47 2828 -22 
Q 2503 -91 2169 -91 
Q 1331 -91 842 396 
Q 353 884 353 1716 
Q 353 2575 817 3079 
Q 1281 3584 2069 3584 
Q 2775 3584 3186 3129 
Q 3597 2675 3597 1894 
z
M 3022 2063 
Q 3016 2534 2758 2815 
Q 2500 3097 2075 3097 
Q 1594 3097 1305 2825 
Q 1016 2553 972 2059 
L 3022 2063 
z
" transform="scale(0.015625)"/>
       <path id="DejaVuSans-63" d="M 3122 3366 
L 3122 2828 
Q 2878 2963 2633 3030 
Q 2388 3097 2138 3097 
Q 1578 3097 1268 2742 
Q 959 2388 959 1747 
Q 959 1106 1268 751 
Q 1578 397 2138 397 
Q 2388 397 2633 464 
Q 2878 531 3122 666 
L 3122 134 
Q 2881 22 2623 -34 
Q 2366 -91 2075 -91 
Q 1284 -91 818 406 
Q 353 903 353 1747 
Q 353 2603 823 3093 
Q 1294 3584 2113 3584 
Q 2378 3584 2631 3529 
Q 2884 3475 3122 3366 
z
" transform="scale(0.015625)"/>
       <path id="DejaVuSans-6f" d="M 1959 3097 
Q 1497 3097 1228 2736 
Q 959 2375 959 1747 
Q 959 1119 1226 758 
Q 1494 397 1959 397 
Q 2419 397 2687 759 
Q 2956 1122 2956 1747 
Q 2956 2369 2687 2733 
Q 2419 3097 1959 3097 
z
M 1959 3584 
Q 2709 3584 3137 3096 
Q 3566 2609 3566 1747 
Q 3566 888 3137 398 
Q 2709 -91 1959 -91 
Q 1206 -91 779 398 
Q 353 888 353 1747 
Q 353 2609 779 3096 
Q 1206 3584 1959 3584 
z
" transform="scale(0.015625)"/>
       <path id="DejaVuSans-6e" d="M 3513 2113 
L 3513 0 
L 2938 0 
L 2938 2094 
Q 2938 2591 2744 2837 
Q 2550 3084 2163 3084 
Q 1697 3084 1428 2787 
Q 1159 2491 1159 1978 
L 1159 0 
L 581 0 
L 581 3500 
L 1159 3500 
L 1159 2956 
Q 1366 3272 1645 3428 
Q 1925 3584 2291 3584 
Q 2894 3584 3203 3211 
Q 3513 2838 3513 2113 
z
" transform="scale(0.015625)"/>
       <path id="DejaVuSans-64" d="M 2906 2969 
L 2906 4863 
L 3481 4863 
L 3481 0 
L 2906 0 
L 2906 525 
Q 2725 213 2448 61 
Q 2172 -91 1784 -91 
Q 1150 -91 751 415 
Q 353 922 353 1747 
Q 353 2572 751 3078 
Q 1150 3584 1784 3584 
Q 2172 3584 2448 3432 
Q 2725 3281 2906 2969 
z
M 947 1747 
Q 947 1113 1208 752 
Q 1469 391 1925 391 
Q 2381 391 2643 752 
Q 2906 1113 2906 1747 
Q 2906 2381 2643 2742 
Q 2381 3103 1925 3103 
Q 1469 3103 1208 2742 
Q 947 2381 947 1747 
z
" transform="scale(0.015625)"/>
      </defs>
      <use xlink:href="#DejaVuSans-73"/>
      <use xlink:href="#DejaVuSans-65" x="52.099609"/>
      <use xlink:href="#DejaVuSans-63" x="113.623047"/>
      <use xlink:href="#DejaVuSans-6f" x="168.603516"/>
      <use xlink:href="#DejaVuSans-6e" x="229.785156"/>
      <use xlink:href="#DejaVuSans-64" x="293.164062"/>
      <use xlink:href="#DejaVuSans-73" x="356.640625"/>
     </g>
    </g>
   </g>
   <g id="matplotlib.axis_2">
    <g id="ytick_1">
     <g id="line2d_6">
      <defs>
       <path id="m71e9db2f7b" d="M 0 0 
L -3.5 0 
" style="stroke: #000000; stroke-width: 0.8"/>
      </defs>
      <g>
       <use xlink:href="#m71e9db2f7b" x="46.64" y="299.918101" style="stroke: #000000; stroke-width: 0.8"/>
      </g>
     </g>
     <g id="text_7">
      <!-- 1 -->
      <g transform="translate(24.897813 303.71732)scale(0.1 -0.1)">
       <defs>
        <path id="DejaVuSans-2212" d="M 678 2272 
L 4684 2272 
L 4684 1741 
L 678 1741 
L 678 2272 
z
" transform="scale(0.015625)"/>
        <path id="DejaVuSans-31" d="M 794 531 
L 1825 531 
L 1825 4091 
L 703 3866 
L 703 4441 
L 1819 4666 
L 2450 4666 
L 2450 531 
L 3481 531 
L 3481 0 
L 794 0 
L 794 531 
z
" transform="scale(0.015625)"/>
       </defs>
       <use xlink:href="#DejaVuSans-2212"/>
       <use xlink:href="#DejaVuSans-31" x="83.789062"/>
      </g>
     </g>
    </g>
    <g id="ytick_2">
     <g id="line2d_7">
      <g>
       <use xlink:href="#m71e9db2f7b" x="46.64" y="262.592287" style="stroke: #000000; stroke-width: 0.8"/>
      </g>
     </g>
     <g id="text_8">
      <!-- 0 -->
      <g transform="translate(33.2775 266.391506)scale(0.1 -0.1)">
       <use xlink:href="#DejaVuSans-30"/>
      </g>
     </g>
    </g>
    <g id="ytick_3">
     <g id="line2d_8">
      <g>
       <use xlink:href="#m71e9db2f7b" x="46.64" y="225.266473" style="stroke: #000000; stroke-width: 0.8"/>
      </g>
     </g>
     <g id="text_9">
      <!-- 1 -->
      <g transform="translate(33.2775 229.065692)scale(0.1 -0.1)">
       <use xlink:href="#DejaVuSans-31"/>
      </g>
     </g>
    </g>
    <g id="ytick_4">
     <g id="line2d_9">
      <g>
       <use xlink:href="#m71e9db2f7b" x="46.64" y="187.940659" style="stroke: #000000; stroke-width: 0.8"/>
      </g>
     </g>
     <g id="text_10">
      <!-- 2 -->
      <g transform="translate(33.2775 191.739877)scale(0.1 -0.1)">
       <use xlink:href="#DejaVuSans-32"/>
      </g>
     </g>
    </g>
    <g id="ytick_5">
     <g id="line2d_10">
      <g>
       <use xlink:href="#m71e9db2f7b" x="46.64" y="150.614845" style="stroke: #000000; stroke-width: 0.8"/>
      </g>
     </g>
     <g id="text_11">
      <!-- 3 -->
      <g transform="translate(33.2775 154.414063)scale(0.1 -0.1)">
       <defs>
        <path id="DejaVuSans-33" d="M 2597 2516 
Q 3050 2419 3304 2112 
Q 3559 1806 3559 1356 
Q 3559 666 3084 287 
Q 2609 -91 1734 -91 
Q 1441 -91 1130 -33 
Q 819 25 488 141 
L 488 750 
Q 750 597 1062 519 
Q 1375 441 1716 441 
Q 2309 441 2620 675 
Q 2931 909 2931 1356 
Q 2931 1769 2642 2001 
Q 2353 2234 1838 2234 
L 1294 2234 
L 1294 2753 
L 1863 2753 
Q 2328 2753 2575 2939 
Q 2822 3125 2822 3475 
Q 2822 3834 2567 4026 
Q 2313 4219 1838 4219 
Q 1578 4219 1281 4162 
Q 984 4106 628 3988 
L 628 4550 
Q 988 4650 1302 4700 
Q 1616 4750 1894 4750 
Q 2613 4750 3031 4423 
Q 3450 4097 3450 3541 
Q 3450 3153 3228 2886 
Q 3006 2619 2597 2516 
z
" transform="scale(0.015625)"/>
       </defs>
       <use xlink:href="#DejaVuSans-33"/>
      </g>
     </g>
    </g>
    <g id="ytick_6">
     <g id="line2d_11">
      <g>
       <use xlink:href="#m71e9db2f7b" x="46.64" y="113.28903" style="stroke: #000000; stroke-width: 0.8"/>
      </g>
     </g>
     <g id="text_12">
      <!-- 4 -->
      <g transform="translate(33.2775 117.088249)scale(0.1 -0.1)">
       <use xlink:href="#DejaVuSans-34"/>
      </g>
     </g>
    </g>
    <g id="ytick_7">
     <g id="line2d_12">
      <g>
       <use xlink:href="#m71e9db2f7b" x="46.64" y="75.963216" style="stroke: #000000; stroke-width: 0.8"/>
      </g>
     </g>
     <g id="text_13">
      <!-- 5 -->
      <g transform="translate(33.2775 79.762435)scale(0.1 -0.1)">
       <defs>
        <path id="DejaVuSans-35" d="M 691 4666 
L 3169 4666 
L 3169 4134 
L 1269 4134 
L 1269 2991 
Q 1406 3038 1543 3061 
Q 1681 3084 1819 3084 
Q 2600 3084 3056 2656 
Q 3513 2228 3513 1497 
Q 3513 744 3044 326 
Q 2575 -91 1722 -91 
Q 1428 -91 1123 -41 
Q 819 9 494 109 
L 494 744 
Q 775 591 1075 516 
Q 1375 441 1709 441 
Q 2250 441 2565 725 
Q 2881 1009 2881 1497 
Q 2881 1984 2565 2268 
Q 2250 2553 1709 2553 
Q 1456 2553 1204 2497 
Q 953 2441 691 2322 
L 691 4666 
z
" transform="scale(0.015625)"/>
       </defs>
       <use xlink:href="#DejaVuSans-35"/>
      </g>
     </g>
    </g>
    <g id="text_14">
     <!-- V -->
     <g transform="translate(18.818125 201.487562)rotate(-90)scale(0.1 -0.1)">
      <defs>
       <path id="DejaVuSans-b5" d="M 544 -1331 
L 544 3500 
L 1119 3500 
L 1119 1325 
Q 1119 872 1334 640 
Q 1550 409 1972 409 
Q 2434 409 2667 671 
Q 2900 934 2900 1459 
L 2900 3500 
L 3475 3500 
L 3475 806 
Q 3475 619 3529 530 
Q 3584 441 3700 441 
Q 3728 441 3778 458 
Q 3828 475 3916 513 
L 3916 50 
Q 3788 -22 3673 -56 
Q 3559 -91 3450 -91 
Q 3234 -91 3106 31 
Q 2978 153 2931 403 
Q 2775 156 2548 32 
Q 2322 -91 2016 -91 
Q 1697 -91 1473 31 
Q 1250 153 1119 397 
L 1119 -1331 
L 544 -1331 
z
" transform="scale(0.015625)"/>
       <path id="DejaVuSans-56" d="M 1831 0 
L 50 4666 
L 709 4666 
L 2188 738 
L 3669 4666 
L 4325 4666 
L 2547 0 
L 1831 0 
z
" transform="scale(0.015625)"/>
      </defs>
      <use xlink:href="#DejaVuSans-b5"/>
      <use xlink:href="#DejaVuSans-56" x="63.623047"/>
     </g>
    </g>
   </g>
   <g id="line2d_13">
    <path d="M 46.64 255.567173 
L 47.435945 252.678754 
L 48.231889 251.155098 
L 49.027834 251.447454 
L 49.823779 253.4135 
L 51.415668 259.399386 
L 52.211613 261.497861 
L 53.007557 262.018414 
L 53.803502 260.769249 
L 54.599447 258.056365 
L 56.191336 251.154062 
L 56.987281 248.619169 
L 57.783226 247.521562 
L 58.57917 248.094182 
L 59.375115 250.250911 
L 60.17106 253.664892 
L 63.354838 270.280166 
L 64.150783 272.90161 
L 64.946728 274.248017 
L 65.742672 274.207232 
L 66.538617 272.866128 
L 67.334562 270.540078 
L 68.926451 265.166788 
L 69.722396 263.420683 
L 70.51834 262.99281 
L 71.314285 264.051445 
L 72.11023 266.391816 
L 73.702119 272.565863 
L 74.498064 274.935413 
L 75.294009 276.055715 
L 76.089953 275.735803 
L 76.885898 274.15024 
L 79.273732 266.808845 
L 80.069677 265.085975 
L 80.865621 264.012458 
L 81.661566 263.401053 
L 82.457511 262.943867 
L 83.253455 262.353158 
L 84.0494 261.483059 
L 85.641289 259.320002 
L 86.437234 258.616611 
L 87.233179 258.609755 
L 88.029124 259.490257 
L 88.825068 261.223459 
L 90.416958 265.877495 
L 91.212902 267.671738 
L 92.008847 268.306707 
L 92.804792 267.367244 
L 93.600736 264.752495 
L 94.396681 260.748868 
L 95.98857 251.46953 
L 96.784515 248.091249 
L 97.58046 246.689236 
L 98.376404 247.692297 
L 99.172349 251.024762 
L 99.968294 256.107163 
L 101.560183 267.564814 
L 102.356128 271.854395 
L 103.152073 274.205145 
L 103.948017 274.426958 
L 104.743962 272.788033 
L 105.539907 269.897247 
L 107.131796 263.348466 
L 107.927741 260.898893 
L 108.723685 259.379824 
L 109.51963 258.728629 
L 110.315575 258.682744 
L 111.907464 259.017004 
L 112.703409 258.817572 
L 113.499353 258.169367 
L 114.295298 257.065778 
L 115.091243 255.581904 
L 116.683132 251.899299 
L 119.070966 245.491457 
L 121.4588 238.705996 
L 122.254745 237.116728 
L 123.05069 236.483632 
L 123.846634 237.207178 
L 124.642579 239.537282 
L 125.438524 243.442993 
L 127.826358 259.029829 
L 128.622302 262.44949 
L 129.418247 263.528297 
L 130.214192 261.928736 
L 131.010136 257.884499 
L 133.39797 240.593532 
L 134.193915 237.099959 
L 134.98986 236.172037 
L 135.785805 237.905391 
L 136.581749 241.841781 
L 138.969583 257.650251 
L 139.765528 261.279676 
L 140.561473 263.299054 
L 141.357417 263.787361 
L 142.153362 263.102389 
L 143.745251 260.164857 
L 144.541196 258.724484 
L 146.133085 256.531209 
L 146.92903 255.436825 
L 147.724975 253.934787 
L 148.520919 251.738997 
L 149.316864 248.704812 
L 150.908753 240.59109 
L 152.500643 232.336747 
L 153.296588 229.315662 
L 154.092532 227.402535 
L 154.888477 226.562925 
L 155.684422 226.514919 
L 157.276311 227.083578 
L 158.072256 227.031542 
L 159.664145 226.398525 
L 160.46009 226.610948 
L 161.256034 227.815227 
L 162.051979 230.281532 
L 162.847924 233.930558 
L 164.439813 242.677736 
L 165.235758 246.246794 
L 166.031702 248.382576 
L 166.827647 248.81131 
L 167.623592 247.691098 
L 170.011426 241.042947 
L 170.807371 239.806194 
L 171.603315 239.503007 
L 172.39926 239.921649 
L 173.991149 241.282464 
L 174.787094 241.515989 
L 175.583039 241.297894 
L 177.174928 240.252334 
L 177.970873 239.972572 
L 178.766817 240.088113 
L 181.154651 241.435133 
L 181.950596 241.087097 
L 182.746541 239.748623 
L 183.542485 237.246156 
L 184.33843 233.61908 
L 187.522209 216.292577 
L 188.318154 214.467432 
L 189.114098 214.715088 
L 189.910043 217.060715 
L 190.705988 221.088387 
L 192.297877 230.721847 
L 193.093822 234.278158 
L 193.889766 235.936887 
L 194.685711 235.46591 
L 195.481656 233.17645 
L 197.86949 223.394115 
L 198.665434 221.562472 
L 199.461379 220.725923 
L 200.257324 220.402016 
L 201.053269 219.900762 
L 201.849213 218.601878 
L 202.645158 216.192653 
L 203.441103 212.781422 
L 205.032992 205.077739 
L 205.828937 202.096479 
L 206.624881 200.298329 
L 207.420826 199.734633 
L 208.216771 200.147995 
L 210.604605 203.009299 
L 211.400549 203.513264 
L 212.196494 203.704279 
L 213.788383 203.570514 
L 215.380273 203.142143 
L 216.972162 202.539658 
L 217.768107 202.440317 
L 218.564052 202.799457 
L 219.359996 203.885261 
L 220.155941 205.862929 
L 220.951886 208.696124 
L 223.33972 218.454916 
L 224.135664 220.182681 
L 224.931609 220.329096 
L 225.727554 218.780027 
L 226.523498 215.76762 
L 228.911332 204.174413 
L 229.707277 201.854961 
L 230.503222 201.101262 
L 231.299166 201.904586 
L 232.095111 203.908817 
L 233.687001 209.008888 
L 234.482945 210.806983 
L 235.27889 211.539973 
L 236.074835 211.163661 
L 236.870779 209.936128 
L 238.462669 206.793296 
L 239.258613 205.757262 
L 240.054558 205.360644 
L 240.850503 205.498989 
L 241.646447 205.85404 
L 242.442392 205.994649 
L 243.238337 205.49664 
L 244.034281 204.04846 
L 244.830226 201.51884 
L 245.626171 197.977262 
L 247.21806 188.996589 
L 248.80995 180.342965 
L 249.605894 177.181011 
L 250.401839 175.099423 
L 251.197784 174.039393 
L 251.993728 173.68966 
L 252.789673 173.554037 
L 253.585618 173.098056 
L 254.381562 171.943463 
L 255.177507 170.047877 
L 255.973452 167.790198 
L 256.769396 165.900303 
L 257.565341 165.225267 
L 258.361286 166.390351 
L 259.15723 169.468441 
L 260.74912 178.031139 
L 261.545064 180.497453 
L 262.341009 179.690339 
L 263.136954 174.823186 
L 263.932898 166.192123 
L 265.524788 144.094366 
L 266.320733 135.210365 
L 267.116677 130.408416 
L 267.912622 130.447558 
L 268.708567 134.78426 
L 271.096401 154.911481 
L 271.892345 157.560221 
L 272.68829 156.758496 
L 273.484235 153.132461 
L 275.076124 142.728913 
L 275.872069 138.615554 
L 276.668013 136.30353 
L 277.463958 135.915052 
L 278.259903 137.168922 
L 279.055847 139.597895 
L 282.239626 152.102138 
L 283.035571 153.878288 
L 283.831516 154.405016 
L 284.62746 153.65798 
L 286.21935 150.280852 
L 287.015294 149.420846 
L 287.811239 150.267878 
L 288.607184 153.103344 
L 290.199073 161.952242 
L 290.995018 165.042267 
L 291.790962 165.198554 
L 292.586907 161.686387 
L 293.382852 154.890265 
L 294.974741 138.023568 
L 295.770686 132.191708 
L 296.56663 130.141307 
L 297.362575 132.015094 
L 298.15852 136.733124 
L 298.954465 142.419581 
L 299.750409 147.109185 
L 300.546354 149.459226 
L 301.342299 149.193425 
L 302.138243 147.113098 
L 302.934188 144.688088 
L 303.730133 143.408696 
L 304.526077 144.167092 
L 305.322022 146.913309 
L 306.913911 154.164819 
L 307.709856 155.989758 
L 308.505801 155.537465 
L 309.301745 153.012423 
L 310.893635 145.767114 
L 311.689579 143.332766 
L 312.485524 142.513588 
L 313.281469 143.101623 
L 314.873358 145.550285 
L 315.669303 146.008011 
L 316.465248 145.673335 
L 317.261192 144.917583 
L 318.057137 144.346263 
L 318.853082 144.488669 
L 319.649026 145.560285 
L 320.444971 147.407851 
L 323.62875 156.324727 
L 324.424694 158.981741 
L 325.220639 162.3155 
L 326.812528 170.226679 
L 327.608473 173.404684 
L 328.404418 174.906324 
L 329.200363 174.253498 
L 329.996307 171.64774 
L 331.588197 164.687692 
L 332.384141 163.039967 
L 333.180086 163.878403 
L 333.976031 167.182505 
L 336.363865 181.505267 
L 337.159809 183.982796 
L 337.955754 184.853142 
L 338.751699 184.971362 
L 339.547643 185.513921 
L 340.343588 187.407845 
L 341.139533 190.852485 
L 342.731422 198.911394 
L 343.527367 200.616468 
L 344.323311 199.217781 
L 345.119256 194.626734 
L 347.50709 174.750312 
L 348.303035 171.833332 
L 349.09898 172.284665 
L 349.894924 175.524396 
L 351.486814 184.706382 
L 352.282758 187.771759 
L 353.078703 188.797024 
L 353.874648 187.916905 
L 354.670592 185.748479 
L 357.058426 177.100494 
L 357.854371 173.77857 
L 359.44626 165.676194 
L 360.242205 161.61798 
L 361.03815 158.686567 
L 361.834095 157.801908 
L 362.630039 159.441166 
L 363.425984 163.334051 
L 365.017873 173.251032 
L 365.813818 176.304493 
L 366.609763 176.728713 
L 367.405707 174.572578 
L 368.997597 166.88427 
L 369.793541 164.331275 
L 370.589486 164.048853 
L 371.385431 166.088277 
L 373.773265 176.831732 
L 374.569209 178.650986 
L 375.365154 179.221663 
L 376.161099 179.252184 
L 376.957043 179.663512 
L 377.752988 181.144966 
L 378.548933 183.841141 
L 380.140822 190.711428 
L 380.936767 193.258871 
L 381.732712 194.500577 
L 382.528656 194.516977 
L 384.91649 192.509627 
L 385.712435 192.180032 
L 386.50838 191.443378 
L 387.304324 189.494962 
L 388.100269 185.72303 
L 388.896214 180.084423 
L 390.488103 166.545391 
L 391.284048 161.377854 
L 392.079992 158.882817 
L 392.875937 159.41868 
L 393.671882 162.432993 
L 395.263771 170.513811 
L 396.059716 172.746184 
L 396.855661 172.754118 
L 397.651605 170.783171 
L 399.243495 164.774907 
L 400.039439 162.813536 
L 400.835384 162.199787 
L 401.631329 162.611255 
L 402.427273 163.249639 
L 403.223218 163.217524 
L 404.019163 161.91841 
L 404.815107 159.316322 
L 406.406997 152.742997 
L 407.202941 150.600865 
L 407.998886 150.128989 
L 408.794831 151.421004 
L 409.590775 154.093227 
L 413.570499 170.860261 
L 413.570499 170.860261 
" clip-path="url(#p84284dd604)" style="fill: none; stroke: #e41a1c; stroke-width: 1.5; stroke-linecap: square"/>
   </g>
   <g id="line2d_14">
    <path d="M 46.64 255.82438 
L 47.435945 251.625186 
L 48.231889 248.952364 
L 49.027834 248.223583 
L 49.823779 249.292101 
L 50.619723 251.547004 
L 52.211613 256.410495 
L 53.007557 257.885324 
L 53.803502 258.612406 
L 55.395392 259.405058 
L 56.191336 260.325361 
L 56.987281 261.777673 
L 58.57917 264.948538 
L 59.375115 265.677942 
L 60.17106 265.407393 
L 60.967004 264.233395 
L 62.558894 261.134576 
L 63.354838 260.425694 
L 64.150783 260.791176 
L 64.946728 262.168853 
L 66.538617 266.106692 
L 67.334562 267.467397 
L 68.130506 267.851297 
L 68.926451 267.196355 
L 69.722396 265.733267 
L 71.314285 262.041578 
L 72.11023 260.583601 
L 72.906175 259.680135 
L 73.702119 259.380344 
L 74.498064 259.658741 
L 75.294009 260.471507 
L 76.089953 261.774218 
L 76.885898 263.494989 
L 79.273732 269.221057 
L 80.069677 270.327855 
L 80.865621 270.639943 
L 81.661566 270.196066 
L 83.253455 268.35747 
L 84.0494 267.908839 
L 84.845345 268.271937 
L 85.641289 269.505677 
L 88.029124 275.139276 
L 88.825068 276.253545 
L 89.621013 276.714667 
L 91.212902 276.850843 
L 92.008847 277.320896 
L 92.804792 278.342011 
L 94.396681 281.098638 
L 95.192626 281.826962 
L 95.98857 281.485212 
L 96.784515 279.933575 
L 99.172349 272.053497 
L 99.968294 270.5427 
L 100.764238 270.341079 
L 101.560183 271.358139 
L 103.948017 276.531047 
L 104.743962 277.132293 
L 105.539907 276.789401 
L 106.335851 275.689378 
L 108.723685 271.214525 
L 109.51963 270.109645 
L 110.315575 269.269814 
L 111.111519 268.639439 
L 111.907464 268.197949 
L 112.703409 267.987218 
L 113.499353 268.080001 
L 114.295298 268.508944 
L 116.683132 270.487046 
L 117.479077 270.560344 
L 118.275021 270.072284 
L 120.662856 267.436482 
L 121.4588 267.486648 
L 122.254745 268.445935 
L 123.05069 270.184644 
L 124.642579 274.197826 
L 125.438524 275.39006 
L 126.234468 275.578531 
L 127.030413 274.80841 
L 128.622302 272.004943 
L 129.418247 271.027293 
L 130.214192 270.823815 
L 131.010136 271.416538 
L 133.39797 274.84686 
L 134.193915 275.377574 
L 134.98986 275.392373 
L 135.785805 275.032601 
L 137.377694 273.889885 
L 138.173639 273.195963 
L 138.969583 272.245254 
L 139.765528 270.838983 
L 140.561473 268.884999 
L 142.153362 264.08325 
L 142.949307 262.132989 
L 143.745251 261.174065 
L 144.541196 261.519192 
L 145.337141 263.147452 
L 147.724975 271.01807 
L 148.520919 272.664065 
L 149.316864 273.283483 
L 150.112809 273.01825 
L 152.500643 270.695018 
L 153.296588 270.331899 
L 154.888477 269.9516 
L 155.684422 269.537768 
L 158.072256 267.644445 
L 158.8682 267.601106 
L 159.664145 268.170494 
L 160.46009 269.282386 
L 162.051979 272.069383 
L 162.847924 273.190314 
L 165.235758 275.497594 
L 166.031702 276.751785 
L 166.827647 278.5377 
L 168.419537 282.871298 
L 169.215481 284.590877 
L 170.011426 285.519455 
L 170.807371 285.586562 
L 172.39926 284.385656 
L 173.195205 284.146565 
L 173.991149 284.689015 
L 174.787094 286.039898 
L 176.378983 289.605857 
L 177.174928 290.679201 
L 177.970873 290.733784 
L 178.766817 289.779761 
L 180.358707 286.499629 
L 181.154651 285.249089 
L 181.950596 284.679609 
L 182.746541 284.671353 
L 183.542485 284.794928 
L 184.33843 284.512164 
L 185.134375 283.433842 
L 185.93032 281.523945 
L 187.522209 277.013687 
L 188.318154 275.804494 
L 189.114098 276.006472 
L 189.910043 277.641974 
L 191.501932 282.969446 
L 192.297877 284.939665 
L 193.093822 285.486353 
L 193.889766 284.402918 
L 194.685711 281.992163 
L 196.2776 276.065681 
L 197.073545 274.041901 
L 197.86949 273.194562 
L 198.665434 273.439195 
L 201.053269 276.13808 
L 201.849213 276.224409 
L 202.645158 275.669069 
L 203.441103 274.654493 
L 205.032992 272.29655 
L 205.828937 271.341881 
L 206.624881 270.630491 
L 207.420826 270.14333 
L 208.216771 269.844623 
L 209.012715 269.704133 
L 211.400549 269.547765 
L 212.196494 269.033157 
L 212.992439 267.913503 
L 213.788383 266.075128 
L 216.176218 258.530573 
L 216.972162 257.107242 
L 217.768107 257.154614 
L 218.564052 258.87134 
L 219.359996 262.049431 
L 221.74783 273.677464 
L 222.543775 275.885728 
L 223.33972 276.742431 
L 224.135664 276.541641 
L 224.931609 275.874387 
L 225.727554 275.415315 
L 226.523498 275.693608 
L 227.319443 276.926373 
L 228.115388 278.966957 
L 229.707277 283.59837 
L 230.503222 285.132524 
L 231.299166 285.709178 
L 232.095111 285.346746 
L 232.891056 284.319804 
L 234.482945 281.934129 
L 235.27889 281.263785 
L 236.074835 281.106784 
L 236.870779 281.336874 
L 237.666724 281.699536 
L 238.462669 281.917316 
L 239.258613 281.791828 
L 240.054558 281.2704 
L 242.442392 278.944578 
L 243.238337 278.764928 
L 244.034281 279.192034 
L 244.830226 280.217666 
L 248.014005 285.863339 
L 248.80995 286.228249 
L 249.605894 285.803804 
L 250.401839 284.607968 
L 251.197784 282.77351 
L 254.381562 273.558291 
L 255.177507 271.819108 
L 255.973452 270.549468 
L 256.769396 269.775478 
L 257.565341 269.478739 
L 258.361286 269.599053 
L 259.15723 270.031889 
L 260.74912 271.185062 
L 261.545064 271.4931 
L 262.341009 271.345339 
L 263.136954 270.598589 
L 263.932898 269.216246 
L 264.728843 267.296447 
L 266.320733 262.855177 
L 267.116677 260.996814 
L 267.912622 259.772407 
L 268.708567 259.323832 
L 269.504511 259.61676 
L 270.300456 260.449193 
L 271.892345 262.454478 
L 272.68829 263.02028 
L 273.484235 263.072366 
L 274.280179 262.641182 
L 276.668013 260.502058 
L 277.463958 260.294931 
L 278.259903 260.552251 
L 279.055847 261.220824 
L 281.443682 263.861214 
L 282.239626 264.256071 
L 283.035571 264.193547 
L 283.831516 263.701213 
L 285.423405 262.123294 
L 286.21935 261.594904 
L 287.015294 261.638316 
L 287.811239 262.457012 
L 288.607184 264.085954 
L 290.995018 271.04625 
L 291.790962 272.412311 
L 292.586907 272.53283 
L 293.382852 271.270654 
L 294.178796 268.823957 
L 295.770686 262.570835 
L 296.56663 260.128132 
L 297.362575 258.855657 
L 298.15852 258.918859 
L 298.954465 260.132312 
L 301.342299 265.796915 
L 302.138243 266.902723 
L 302.934188 267.41602 
L 305.322022 267.952519 
L 306.117967 268.577184 
L 309.301745 272.117317 
L 310.893635 273.445023 
L 311.689579 274.3467 
L 313.281469 276.890239 
L 314.077414 278.144334 
L 314.873358 278.919918 
L 315.669303 278.88736 
L 316.465248 277.895357 
L 317.261192 276.049162 
L 318.853082 271.334162 
L 319.649026 269.442703 
L 320.444971 268.357091 
L 321.240916 268.175595 
L 322.03686 268.764549 
L 323.62875 271.086741 
L 325.220639 273.286826 
L 327.608473 275.7622 
L 329.200363 277.185146 
L 329.996307 277.574007 
L 330.792252 277.593014 
L 331.588197 277.220589 
L 333.180086 275.740778 
L 333.976031 275.011357 
L 334.771975 274.525105 
L 335.56792 274.373382 
L 336.363865 274.564254 
L 337.159809 275.046936 
L 338.751699 276.592071 
L 340.343588 278.394309 
L 341.139533 279.110691 
L 341.935477 279.462778 
L 342.731422 279.244654 
L 343.527367 278.309349 
L 344.323311 276.651279 
L 346.711146 270.138858 
L 347.50709 268.98397 
L 348.303035 268.973023 
L 349.09898 270.142399 
L 349.894924 272.223494 
L 351.486814 277.011758 
L 352.282758 278.616644 
L 353.078703 279.248697 
L 353.874648 278.925472 
L 354.670592 277.925436 
L 356.262482 275.581381 
L 357.058426 274.928174 
L 357.854371 274.777502 
L 358.650316 274.998111 
L 359.44626 275.344579 
L 360.242205 275.569407 
L 361.03815 275.518473 
L 361.834095 275.173964 
L 365.017873 273.086716 
L 366.609763 272.25228 
L 368.201652 270.986591 
L 368.997597 270.301929 
L 369.793541 269.821421 
L 370.589486 269.747369 
L 371.385431 270.201039 
L 372.181375 271.158732 
L 373.773265 273.737364 
L 374.569209 274.732507 
L 375.365154 275.166315 
L 376.161099 274.925294 
L 376.957043 274.059155 
L 378.548933 271.222034 
L 380.140822 268.356809 
L 380.936767 267.249601 
L 381.732712 266.411996 
L 382.528656 265.852577 
L 383.324601 265.585432 
L 384.120546 265.625982 
L 384.91649 265.960936 
L 387.304324 267.544516 
L 388.100269 267.589485 
L 388.896214 267.128601 
L 389.692158 266.213178 
L 391.284048 264.124258 
L 392.079992 263.725379 
L 392.875937 264.156513 
L 393.671882 265.443273 
L 396.059716 271.066142 
L 396.855661 272.004175 
L 397.651605 272.060913 
L 398.44755 271.391648 
L 400.039439 269.392524 
L 400.835384 268.783303 
L 401.631329 268.607968 
L 403.223218 268.785537 
L 404.019163 268.580122 
L 404.815107 267.995849 
L 406.406997 266.427586 
L 407.202941 266.122295 
L 407.998886 266.485367 
L 408.794831 267.506546 
L 410.38672 270.396607 
L 411.182665 271.563457 
L 411.97861 272.314019 
L 413.570499 273.273784 
L 413.570499 273.273784 
" clip-path="url(#p84284dd604)" style="fill: none; stroke: #377eb8; stroke-width: 1.5; stroke-linecap: square"/>
   </g>
   <g id="line2d_15">
    <path d="M 87.233179 318.04 
L 87.233179 71.732 
" clip-path="url(#p84284dd604)" style="fill: none; stroke: #000000; stroke-width: 0.5; stroke-linecap: square"/>
   </g>
   <g id="line2d_16">
    <path d="M 46.64 262.592287 
L 413.570499 262.592287 
" clip-path="url(#p84284dd604)" style="fill: none; stroke: #000000; stroke-width: 0.5; stroke-linecap: square"/>
   </g>
   <g id="patch_4">
    <path d="M 46.64 318.04 
L 46.64 71.732 
" style="fill: none; stroke: #000000; stroke-width: 0.8; stroke-linejoin: miter; stroke-linecap: square"/>
   </g>
   <g id="patch_5">
    <path d="M 413.570499 318.04 
L 413.570499 71.732 
" style="fill: none; stroke: #000000; stroke-width: 0.8; stroke-linejoin: miter; stroke-linecap: square"/>
   </g>
   <g id="patch_6">
    <path d="M 46.64 318.04 
L 413.570499 318.04 
" style="fill: none; stroke: #000000; stroke-width: 0.8; stroke-linejoin: miter; stroke-linecap: square"/>
   </g>
   <g id="patch_7">
    <path d="M 46.64 71.732 
L 413.570499 71.732 
" style="fill: none; stroke: #000000; stroke-width: 0.8; stroke-linejoin: miter; stroke-linecap: square"/>
   </g>
   <g id="text_15">
    <!-- Cz -->
    <g transform="translate(222.766499 65.732)scale(0.12 -0.12)">
     <defs>
      <path id="DejaVuSans-43" d="M 4122 4306 
L 4122 3641 
Q 3803 3938 3442 4084 
Q 3081 4231 2675 4231 
Q 1875 4231 1450 3742 
Q 1025 3253 1025 2328 
Q 1025 1406 1450 917 
Q 1875 428 2675 428 
Q 3081 428 3442 575 
Q 3803 722 4122 1019 
L 4122 359 
Q 3791 134 3420 21 
Q 3050 -91 2638 -91 
Q 1578 -91 968 557 
Q 359 1206 359 2328 
Q 359 3453 968 4101 
Q 1578 4750 2638 4750 
Q 3056 4750 3426 4639 
Q 3797 4528 4122 4306 
z
" transform="scale(0.015625)"/>
      <path id="DejaVuSans-7a" d="M 353 3500 
L 3084 3500 
L 3084 2975 
L 922 459 
L 3084 459 
L 3084 0 
L 275 0 
L 275 525 
L 2438 3041 
L 353 3041 
L 353 3500 
z
" transform="scale(0.015625)"/>
     </defs>
     <use xlink:href="#DejaVuSans-43"/>
     <use xlink:href="#DejaVuSans-7a" x="69.824219"/>
    </g>
   </g>
   <g id="legend_1">
    <g id="patch_8">
     <path d="M 99.877906 48.500845 
L 360.332593 48.500845 
Q 362.332593 48.500845 362.332593 46.500845 
L 362.332593 18.144595 
Q 362.332593 16.144595 360.332593 16.144595 
L 99.877906 16.144595 
Q 97.877906 16.144595 97.877906 18.144595 
L 97.877906 46.500845 
Q 97.877906 48.500845 99.877906 48.500845 
z
" style="fill: #ffffff; opacity: 0.8; stroke: #cccccc; stroke-linejoin: miter"/>
    </g>
    <g id="text_16">
     <!-- Average of Session 43 -->
     <g transform="translate(174.545874 27.743033)scale(0.1 -0.1)">
      <defs>
       <path id="DejaVuSans-41" d="M 2188 4044 
L 1331 1722 
L 3047 1722 
L 2188 4044 
z
M 1831 4666 
L 2547 4666 
L 4325 0 
L 3669 0 
L 3244 1197 
L 1141 1197 
L 716 0 
L 50 0 
L 1831 4666 
z
" transform="scale(0.015625)"/>
       <path id="DejaVuSans-76" d="M 191 3500 
L 800 3500 
L 1894 563 
L 2988 3500 
L 3597 3500 
L 2284 0 
L 1503 0 
L 191 3500 
z
" transform="scale(0.015625)"/>
       <path id="DejaVuSans-72" d="M 2631 2963 
Q 2534 3019 2420 3045 
Q 2306 3072 2169 3072 
Q 1681 3072 1420 2755 
Q 1159 2438 1159 1844 
L 1159 0 
L 581 0 
L 581 3500 
L 1159 3500 
L 1159 2956 
Q 1341 3275 1631 3429 
Q 1922 3584 2338 3584 
Q 2397 3584 2469 3576 
Q 2541 3569 2628 3553 
L 2631 2963 
z
" transform="scale(0.015625)"/>
       <path id="DejaVuSans-61" d="M 2194 1759 
Q 1497 1759 1228 1600 
Q 959 1441 959 1056 
Q 959 750 1161 570 
Q 1363 391 1709 391 
Q 2188 391 2477 730 
Q 2766 1069 2766 1631 
L 2766 1759 
L 2194 1759 
z
M 3341 1997 
L 3341 0 
L 2766 0 
L 2766 531 
Q 2569 213 2275 61 
Q 1981 -91 1556 -91 
Q 1019 -91 701 211 
Q 384 513 384 1019 
Q 384 1609 779 1909 
Q 1175 2209 1959 2209 
L 2766 2209 
L 2766 2266 
Q 2766 2663 2505 2880 
Q 2244 3097 1772 3097 
Q 1472 3097 1187 3025 
Q 903 2953 641 2809 
L 641 3341 
Q 956 3463 1253 3523 
Q 1550 3584 1831 3584 
Q 2591 3584 2966 3190 
Q 3341 2797 3341 1997 
z
" transform="scale(0.015625)"/>
       <path id="DejaVuSans-67" d="M 2906 1791 
Q 2906 2416 2648 2759 
Q 2391 3103 1925 3103 
Q 1463 3103 1205 2759 
Q 947 2416 947 1791 
Q 947 1169 1205 825 
Q 1463 481 1925 481 
Q 2391 481 2648 825 
Q 2906 1169 2906 1791 
z
M 3481 434 
Q 3481 -459 3084 -895 
Q 2688 -1331 1869 -1331 
Q 1566 -1331 1297 -1286 
Q 1028 -1241 775 -1147 
L 775 -588 
Q 1028 -725 1275 -790 
Q 1522 -856 1778 -856 
Q 2344 -856 2625 -561 
Q 2906 -266 2906 331 
L 2906 616 
Q 2728 306 2450 153 
Q 2172 0 1784 0 
Q 1141 0 747 490 
Q 353 981 353 1791 
Q 353 2603 747 3093 
Q 1141 3584 1784 3584 
Q 2172 3584 2450 3431 
Q 2728 3278 2906 2969 
L 2906 3500 
L 3481 3500 
L 3481 434 
z
" transform="scale(0.015625)"/>
       <path id="DejaVuSans-20" transform="scale(0.015625)"/>
       <path id="DejaVuSans-66" d="M 2375 4863 
L 2375 4384 
L 1825 4384 
Q 1516 4384 1395 4259 
Q 1275 4134 1275 3809 
L 1275 3500 
L 2222 3500 
L 2222 3053 
L 1275 3053 
L 1275 0 
L 697 0 
L 697 3053 
L 147 3053 
L 147 3500 
L 697 3500 
L 697 3744 
Q 697 4328 969 4595 
Q 1241 4863 1831 4863 
L 2375 4863 
z
" transform="scale(0.015625)"/>
       <path id="DejaVuSans-53" d="M 3425 4513 
L 3425 3897 
Q 3066 4069 2747 4153 
Q 2428 4238 2131 4238 
Q 1616 4238 1336 4038 
Q 1056 3838 1056 3469 
Q 1056 3159 1242 3001 
Q 1428 2844 1947 2747 
L 2328 2669 
Q 3034 2534 3370 2195 
Q 3706 1856 3706 1288 
Q 3706 609 3251 259 
Q 2797 -91 1919 -91 
Q 1588 -91 1214 -16 
Q 841 59 441 206 
L 441 856 
Q 825 641 1194 531 
Q 1563 422 1919 422 
Q 2459 422 2753 634 
Q 3047 847 3047 1241 
Q 3047 1584 2836 1778 
Q 2625 1972 2144 2069 
L 1759 2144 
Q 1053 2284 737 2584 
Q 422 2884 422 3419 
Q 422 4038 858 4394 
Q 1294 4750 2059 4750 
Q 2388 4750 2728 4690 
Q 3069 4631 3425 4513 
z
" transform="scale(0.015625)"/>
       <path id="DejaVuSans-69" d="M 603 3500 
L 1178 3500 
L 1178 0 
L 603 0 
L 603 3500 
z
M 603 4863 
L 1178 4863 
L 1178 4134 
L 603 4134 
L 603 4863 
z
" transform="scale(0.015625)"/>
      </defs>
      <use xlink:href="#DejaVuSans-41"/>
      <use xlink:href="#DejaVuSans-76" x="62.533203"/>
      <use xlink:href="#DejaVuSans-65" x="121.712891"/>
      <use xlink:href="#DejaVuSans-72" x="183.236328"/>
      <use xlink:href="#DejaVuSans-61" x="224.349609"/>
      <use xlink:href="#DejaVuSans-67" x="285.628906"/>
      <use xlink:href="#DejaVuSans-65" x="349.105469"/>
      <use xlink:href="#DejaVuSans-20" x="410.628906"/>
      <use xlink:href="#DejaVuSans-6f" x="442.416016"/>
      <use xlink:href="#DejaVuSans-66" x="503.597656"/>
      <use xlink:href="#DejaVuSans-20" x="538.802734"/>
      <use xlink:href="#DejaVuSans-53" x="570.589844"/>
      <use xlink:href="#DejaVuSans-65" x="634.066406"/>
      <use xlink:href="#DejaVuSans-73" x="695.589844"/>
      <use xlink:href="#DejaVuSans-73" x="747.689453"/>
      <use xlink:href="#DejaVuSans-69" x="799.789062"/>
      <use xlink:href="#DejaVuSans-6f" x="827.572266"/>
      <use xlink:href="#DejaVuSans-6e" x="888.753906"/>
      <use xlink:href="#DejaVuSans-20" x="952.132812"/>
      <use xlink:href="#DejaVuSans-34" x="983.919922"/>
      <use xlink:href="#DejaVuSans-33" x="1047.542969"/>
     </g>
    </g>
    <g id="line2d_17">
     <path d="M 101.877906 38.921158 
L 111.877906 38.921158 
L 121.877906 38.921158 
" style="fill: none; stroke: #e41a1c; stroke-width: 1.5; stroke-linecap: square"/>
    </g>
    <g id="text_17">
     <!-- Target (n=303) -->
     <g transform="translate(129.877906 42.421158)scale(0.1 -0.1)">
      <defs>
       <path id="DejaVuSans-54" d="M -19 4666 
L 3928 4666 
L 3928 4134 
L 2272 4134 
L 2272 0 
L 1638 0 
L 1638 4134 
L -19 4134 
L -19 4666 
z
" transform="scale(0.015625)"/>
       <path id="DejaVuSans-74" d="M 1172 4494 
L 1172 3500 
L 2356 3500 
L 2356 3053 
L 1172 3053 
L 1172 1153 
Q 1172 725 1289 603 
Q 1406 481 1766 481 
L 2356 481 
L 2356 0 
L 1766 0 
Q 1100 0 847 248 
Q 594 497 594 1153 
L 594 3053 
L 172 3053 
L 172 3500 
L 594 3500 
L 594 4494 
L 1172 4494 
z
" transform="scale(0.015625)"/>
       <path id="DejaVuSans-28" d="M 1984 4856 
Q 1566 4138 1362 3434 
Q 1159 2731 1159 2009 
Q 1159 1288 1364 580 
Q 1569 -128 1984 -844 
L 1484 -844 
Q 1016 -109 783 600 
Q 550 1309 550 2009 
Q 550 2706 781 3412 
Q 1013 4119 1484 4856 
L 1984 4856 
z
" transform="scale(0.015625)"/>
       <path id="DejaVuSans-3d" d="M 678 2906 
L 4684 2906 
L 4684 2381 
L 678 2381 
L 678 2906 
z
M 678 1631 
L 4684 1631 
L 4684 1100 
L 678 1100 
L 678 1631 
z
" transform="scale(0.015625)"/>
       <path id="DejaVuSans-29" d="M 513 4856 
L 1013 4856 
Q 1481 4119 1714 3412 
Q 1947 2706 1947 2009 
Q 1947 1309 1714 600 
Q 1481 -109 1013 -844 
L 513 -844 
Q 928 -128 1133 580 
Q 1338 1288 1338 2009 
Q 1338 2731 1133 3434 
Q 928 4138 513 4856 
z
" transform="scale(0.015625)"/>
      </defs>
      <use xlink:href="#DejaVuSans-54"/>
      <use xlink:href="#DejaVuSans-61" x="44.583984"/>
      <use xlink:href="#DejaVuSans-72" x="105.863281"/>
      <use xlink:href="#DejaVuSans-67" x="145.226562"/>
      <use xlink:href="#DejaVuSans-65" x="208.703125"/>
      <use xlink:href="#DejaVuSans-74" x="270.226562"/>
      <use xlink:href="#DejaVuSans-20" x="309.435547"/>
      <use xlink:href="#DejaVuSans-28" x="341.222656"/>
      <use xlink:href="#DejaVuSans-6e" x="380.236328"/>
      <use xlink:href="#DejaVuSans-3d" x="443.615234"/>
      <use xlink:href="#DejaVuSans-33" x="527.404297"/>
      <use xlink:href="#DejaVuSans-30" x="591.027344"/>
      <use xlink:href="#DejaVuSans-33" x="654.650391"/>
      <use xlink:href="#DejaVuSans-29" x="718.273438"/>
     </g>
    </g>
    <g id="line2d_18">
     <path d="M 225.607593 38.921158 
L 235.607593 38.921158 
L 245.607593 38.921158 
" style="fill: none; stroke: #377eb8; stroke-width: 1.5; stroke-linecap: square"/>
    </g>
    <g id="text_18">
     <!-- Non-Target (n=1535) -->
     <g transform="translate(253.607593 42.421158)scale(0.1 -0.1)">
      <defs>
       <path id="DejaVuSans-4e" d="M 628 4666 
L 1478 4666 
L 3547 763 
L 3547 4666 
L 4159 4666 
L 4159 0 
L 3309 0 
L 1241 3903 
L 1241 0 
L 628 0 
L 628 4666 
z
" transform="scale(0.015625)"/>
       <path id="DejaVuSans-2d" d="M 313 2009 
L 1997 2009 
L 1997 1497 
L 313 1497 
L 313 2009 
z
" transform="scale(0.015625)"/>
      </defs>
      <use xlink:href="#DejaVuSans-4e"/>
      <use xlink:href="#DejaVuSans-6f" x="74.804688"/>
      <use xlink:href="#DejaVuSans-6e" x="135.986328"/>
      <use xlink:href="#DejaVuSans-2d" x="199.365234"/>
      <use xlink:href="#DejaVuSans-54" x="226.324219"/>
      <use xlink:href="#DejaVuSans-61" x="270.908203"/>
      <use xlink:href="#DejaVuSans-72" x="332.1875"/>
      <use xlink:href="#DejaVuSans-67" x="371.550781"/>
      <use xlink:href="#DejaVuSans-65" x="435.027344"/>
      <use xlink:href="#DejaVuSans-74" x="496.550781"/>
      <use xlink:href="#DejaVuSans-20" x="535.759766"/>
      <use xlink:href="#DejaVuSans-28" x="567.546875"/>
      <use xlink:href="#DejaVuSans-6e" x="606.560547"/>
      <use xlink:href="#DejaVuSans-3d" x="669.939453"/>
      <use xlink:href="#DejaVuSans-31" x="753.728516"/>
      <use xlink:href="#DejaVuSans-35" x="817.351562"/>
      <use xlink:href="#DejaVuSans-33" x="880.974609"/>
      <use xlink:href="#DejaVuSans-35" x="944.597656"/>
      <use xlink:href="#DejaVuSans-29" x="1008.220703"/>
     </g>
    </g>
   </g>
  </g>
 </g>
 <defs>
  <clipPath id="p84284dd604">
   <rect x="46.64" y="71.732" width="366.930499" height="246.308"/>
  </clipPath>
 </defs>
</svg>
