<?xml version="1.0" encoding="utf-8" standalone="no"?>
<!DOCTYPE svg PUBLIC "-//W3C//DTD SVG 1.1//EN"
  "http://www.w3.org/Graphics/SVG/1.1/DTD/svg11.dtd">
<svg xmlns:xlink="http://www.w3.org/1999/xlink" width="432pt" height="360pt" viewBox="0 0 432 360" xmlns="http://www.w3.org/2000/svg" version="1.1">
 <metadata>
  <rdf:RDF xmlns:dc="http://purl.org/dc/elements/1.1/" xmlns:cc="http://creativecommons.org/ns#" xmlns:rdf="http://www.w3.org/1999/02/22-rdf-syntax-ns#">
   <cc:Work>
    <dc:type rdf:resource="http://purl.org/dc/dcmitype/StillImage"/>
    <dc:date>2022-05-19T11:52:21.920802</dc:date>
    <dc:format>image/svg+xml</dc:format>
    <dc:creator>
     <cc:Agent>
      <dc:title>Matplotlib v3.5.1, https://matplotlib.org/</dc:title>
     </cc:Agent>
    </dc:creator>
   </cc:Work>
  </rdf:RDF>
 </metadata>
 <defs>
  <style type="text/css">*{stroke-linejoin: round; stroke-linecap: butt}</style>
 </defs>
 <g id="figure_1">
  <g id="patch_1">
   <path d="M 0 360 
L 432 360 
L 432 0 
L 0 0 
L 0 360 
z
" style="fill: none"/>
  </g>
  <g id="axes_1">
   <g id="patch_2">
    <path d="M 46.64 318.04 
L 413.570499 318.04 
L 413.570499 71.732 
L 46.64 71.732 
L 46.64 318.04 
z
" style="fill: none"/>
   </g>
   <g id="PolyCollection_1">
    <defs>
     <path id="m9981fa1cf3" d="M 46.64 -137.424987 
L 46.64 -84.47536 
L 47.435945 -81.72317 
L 48.231889 -78.292475 
L 49.027834 -74.385601 
L 49.823779 -70.612879 
L 50.619723 -67.803875 
L 51.415668 -66.629446 
L 52.211613 -67.33709 
L 53.007557 -69.784249 
L 53.803502 -73.630612 
L 54.599447 -78.412862 
L 55.395392 -83.4612 
L 56.191336 -87.903847 
L 56.987281 -90.94062 
L 57.783226 -92.220418 
L 58.57917 -91.955246 
L 59.375115 -90.715795 
L 60.17106 -89.20524 
L 60.967004 -88.188826 
L 61.762949 -88.465107 
L 62.558894 -90.659813 
L 63.354838 -94.860476 
L 64.150783 -100.407715 
L 64.946728 -106.107686 
L 65.742672 -110.786543 
L 66.538617 -113.766981 
L 67.334562 -114.953183 
L 68.130506 -114.669781 
L 68.926451 -113.505828 
L 69.722396 -112.209648 
L 70.51834 -111.550911 
L 71.314285 -112.096714 
L 72.11023 -114.004182 
L 72.906175 -116.998889 
L 73.702119 -120.542767 
L 74.498064 -124.017935 
L 75.294009 -126.804058 
L 76.089953 -128.307959 
L 76.885898 -128.080492 
L 77.681843 -126.042648 
L 78.477787 -122.621417 
L 79.273732 -118.596336 
L 80.069677 -114.775076 
L 80.865621 -111.753558 
L 81.661566 -109.864716 
L 82.457511 -109.255418 
L 83.253455 -109.92681 
L 84.0494 -111.636261 
L 84.845345 -113.78898 
L 85.641289 -115.507317 
L 86.437234 -115.882921 
L 87.233179 -114.266361 
L 88.029124 -110.462265 
L 88.825068 -104.802786 
L 89.621013 -98.123994 
L 90.416958 -91.60688 
L 91.212902 -86.427893 
L 92.008847 -83.337043 
L 92.804792 -82.406903 
L 93.600736 -83.075305 
L 94.396681 -84.407725 
L 95.192626 -85.416975 
L 95.98857 -85.32329 
L 96.784515 -83.7377 
L 97.58046 -80.789877 
L 98.376404 -77.146658 
L 99.172349 -73.807468 
L 99.968294 -71.707186 
L 100.764238 -71.354574 
L 101.560183 -72.702291 
L 102.356128 -75.261657 
L 103.152073 -78.335216 
L 103.948017 -81.214228 
L 104.743962 -83.278376 
L 105.539907 -84.045639 
L 106.335851 -83.239412 
L 107.131796 -80.88086 
L 107.927741 -77.350489 
L 108.723685 -73.342498 
L 109.51963 -69.688979 
L 110.315575 -67.129292 
L 111.111519 -66.138382 
L 111.907464 -66.853821 
L 112.703409 -69.050144 
L 113.499353 -72.133978 
L 114.295298 -75.230158 
L 115.091243 -77.426119 
L 115.887187 -78.10542 
L 116.683132 -77.176847 
L 117.479077 -75.058798 
L 118.275021 -72.477503 
L 119.070966 -70.2522 
L 119.866911 -69.162878 
L 120.662856 -69.847611 
L 121.4588 -72.644236 
L 122.254745 -77.421943 
L 123.05069 -83.550449 
L 123.846634 -90.071377 
L 124.642579 -95.966768 
L 125.438524 -100.362526 
L 126.234468 -102.624601 
L 127.030413 -102.42774 
L 127.826358 -99.837254 
L 128.622302 -95.33948 
L 129.418247 -89.748989 
L 130.214192 -84.00823 
L 131.010136 -78.961558 
L 131.806081 -75.175147 
L 132.602026 -72.835307 
L 133.39797 -71.743934 
L 134.193915 -71.428436 
L 134.98986 -71.346381 
L 135.785805 -71.098472 
L 136.581749 -70.544278 
L 137.377694 -69.783151 
L 138.173639 -69.04954 
L 138.969583 -68.59622 
L 139.765528 -68.606642 
L 140.561473 -69.145718 
L 141.357417 -70.155006 
L 142.153362 -71.501009 
L 142.949307 -73.065414 
L 143.745251 -74.832528 
L 144.541196 -76.914685 
L 145.337141 -79.478623 
L 146.133085 -82.58826 
L 146.92903 -86.038479 
L 147.724975 -89.283184 
L 148.520919 -91.529844 
L 149.316864 -91.988768 
L 150.112809 -90.174456 
L 150.908753 -86.117033 
L 151.704698 -80.383229 
L 152.500643 -73.902686 
L 153.296588 -67.683574 
L 154.092532 -62.530025 
L 154.888477 -58.845281 
L 155.684422 -56.56885 
L 156.480366 -55.277312 
L 157.276311 -54.436525 
L 158.072256 -53.70898 
L 158.8682 -53.155818 
L 159.664145 -53.207155 
L 160.46009 -54.406884 
L 161.256034 -57.072293 
L 162.051979 -61.04388 
L 162.847924 -65.635271 
L 163.643868 -69.801287 
L 164.439813 -72.476777 
L 165.235758 -72.989021 
L 166.031702 -71.386272 
L 166.827647 -68.49557 
L 167.623592 -65.623142 
L 168.419537 -64.02324 
L 169.215481 -64.403205 
L 170.011426 -66.69532 
L 170.807371 -70.170222 
L 171.603315 -73.797241 
L 172.39926 -76.662446 
L 173.195205 -78.273486 
L 173.991149 -78.663647 
L 174.787094 -78.287973 
L 175.583039 -77.769376 
L 176.378983 -77.60382 
L 177.174928 -77.945545 
L 177.970873 -78.555142 
L 178.766817 -78.928762 
L 179.562762 -78.558752 
L 180.358707 -77.219468 
L 181.154651 -75.148027 
L 181.950596 -73.018354 
L 182.746541 -71.690117 
L 183.542485 -71.824874 
L 184.33843 -73.544016 
L 185.134375 -76.299941 
L 185.93032 -79.035287 
L 186.726264 -80.56755 
L 187.522209 -80.032627 
L 188.318154 -77.20276 
L 189.114098 -72.563219 
L 189.910043 -67.14274 
L 190.705988 -62.186405 
L 191.501932 -58.797068 
L 192.297877 -57.652962 
L 193.093822 -58.870421 
L 193.889766 -62.045191 
L 194.685711 -66.453558 
L 195.481656 -71.322262 
L 196.2776 -76.041612 
L 197.073545 -80.24339 
L 197.86949 -83.755728 
L 198.665434 -86.504574 
L 199.461379 -88.424809 
L 200.257324 -89.412199 
L 201.053269 -89.337401 
L 201.849213 -88.139985 
L 202.645158 -85.979409 
L 203.441103 -83.355505 
L 204.237047 -81.090645 
L 205.032992 -80.13068 
L 205.828937 -81.233737 
L 206.624881 -84.686341 
L 207.420826 -90.16616 
L 208.216771 -96.791699 
L 209.012715 -103.328685 
L 209.80866 -108.494617 
L 210.604605 -111.295076 
L 211.400549 -111.308634 
L 212.196494 -108.8246 
L 212.992439 -104.765269 
L 213.788383 -100.403352 
L 214.584328 -96.976524 
L 215.380273 -95.341935 
L 216.176218 -95.781374 
L 216.972162 -97.995513 
L 217.768107 -101.259414 
L 218.564052 -104.672766 
L 219.359996 -107.422755 
L 220.155941 -108.9799 
L 220.951886 -109.175398 
L 221.74783 -108.161058 
L 222.543775 -106.299536 
L 223.33972 -104.040103 
L 224.135664 -101.811262 
L 224.931609 -99.944231 
L 225.727554 -98.640377 
L 226.523498 -97.985579 
L 227.319443 -97.986633 
L 228.115388 -98.588183 
L 228.911332 -99.649952 
L 229.707277 -100.911282 
L 230.503222 -102.00063 
L 231.299166 -102.528129 
L 232.095111 -102.240222 
L 232.891056 -101.164599 
L 233.687001 -99.667574 
L 234.482945 -98.381148 
L 235.27889 -98.008983 
L 236.074835 -99.06941 
L 236.870779 -101.666192 
L 237.666724 -105.380531 
L 238.462669 -109.343679 
L 239.258613 -112.489212 
L 240.054558 -113.919523 
L 240.850503 -113.270905 
L 241.646447 -110.937124 
L 242.442392 -108.029924 
L 243.238337 -106.038678 
L 244.034281 -106.286339 
L 244.830226 -109.39352 
L 245.626171 -114.984079 
L 246.422115 -121.777282 
L 247.21806 -128.047034 
L 248.014005 -132.258249 
L 248.80995 -133.615129 
L 249.605894 -132.325117 
L 250.401839 -129.521784 
L 251.197784 -126.901442 
L 251.993728 -126.192388 
L 252.789673 -128.608447 
L 253.585618 -134.445324 
L 254.381562 -142.955528 
L 255.177507 -152.570516 
L 255.973452 -161.419432 
L 256.769396 -167.955036 
L 257.565341 -171.421105 
L 258.361286 -171.969274 
L 259.15723 -170.42986 
L 259.953175 -167.900288 
L 260.74912 -165.339656 
L 261.545064 -163.299649 
L 262.341009 -161.853273 
L 263.136954 -160.720523 
L 263.932898 -159.522452 
L 264.728843 -158.038078 
L 265.524788 -156.34222 
L 266.320733 -154.778827 
L 267.116677 -153.814367 
L 267.912622 -153.857358 
L 268.708567 -155.1187 
L 269.504511 -157.552018 
L 270.300456 -160.876019 
L 271.096401 -164.650157 
L 271.892345 -168.361173 
L 272.68829 -171.494841 
L 273.484235 -173.601874 
L 274.280179 -174.380149 
L 275.076124 -173.765466 
L 275.872069 -171.980277 
L 276.668013 -169.493658 
L 277.463958 -166.907435 
L 278.259903 -164.833364 
L 279.055847 -163.806734 
L 279.851792 -164.222133 
L 280.647737 -166.252339 
L 281.443682 -169.754352 
L 282.239626 -174.224758 
L 283.035571 -178.866739 
L 283.831516 -182.773279 
L 284.62746 -185.169833 
L 285.423405 -185.632656 
L 286.21935 -184.209728 
L 287.015294 -181.409815 
L 287.811239 -178.071345 
L 288.607184 -175.151561 
L 289.403128 -173.480533 
L 290.199073 -173.524473 
L 290.995018 -175.218352 
L 291.790962 -177.940555 
L 292.586907 -180.672724 
L 293.382852 -182.315929 
L 294.178796 -182.064834 
L 294.974741 -179.71181 
L 295.770686 -175.764576 
L 296.56663 -171.30672 
L 297.362575 -167.619172 
L 298.15852 -165.697299 
L 298.954465 -165.870083 
L 299.750409 -167.69003 
L 300.546354 -170.131684 
L 301.342299 -171.998957 
L 302.138243 -172.379455 
L 302.934188 -170.999141 
L 303.730133 -168.361105 
L 304.526077 -165.588467 
L 305.322022 -163.987828 
L 306.117967 -164.498946 
L 306.913911 -167.286665 
L 307.709856 -171.666167 
L 308.505801 -176.366207 
L 309.301745 -179.975267 
L 310.09769 -181.395848 
L 310.893635 -180.19149 
L 311.689579 -176.73504 
L 312.485524 -172.077548 
L 313.281469 -167.541873 
L 314.077414 -164.191423 
L 314.873358 -162.415747 
L 315.669303 -161.825466 
L 316.465248 -161.497284 
L 317.261192 -160.451601 
L 318.057137 -158.142501 
L 318.853082 -154.726603 
L 319.649026 -150.981006 
L 320.444971 -147.925903 
L 321.240916 -146.356775 
L 322.03686 -146.508395 
L 322.832805 -147.970429 
L 323.62875 -149.847191 
L 324.424694 -151.085184 
L 325.220639 -150.870791 
L 326.016584 -148.966043 
L 326.812528 -145.815907 
L 327.608473 -142.325985 
L 328.404418 -139.402623 
L 329.200363 -137.517565 
L 329.996307 -136.543915 
L 330.792252 -135.924789 
L 331.588197 -135.027815 
L 332.384141 -133.458267 
L 333.180086 -131.189613 
L 333.976031 -128.510829 
L 334.771975 -125.864678 
L 335.56792 -123.650584 
L 336.363865 -122.044896 
L 337.159809 -120.896741 
L 337.955754 -119.772885 
L 338.751699 -118.183047 
L 339.547643 -115.907501 
L 340.343588 -113.250343 
L 341.139533 -111.040045 
L 341.935477 -110.320013 
L 342.731422 -111.85483 
L 343.527367 -115.694829 
L 344.323311 -121.011675 
L 345.119256 -126.284892 
L 345.915201 -129.778069 
L 346.711146 -130.143133 
L 347.50709 -126.938217 
L 348.303035 -120.851367 
L 349.09898 -113.515086 
L 349.894924 -106.963326 
L 350.690869 -102.940164 
L 351.486814 -102.327424 
L 352.282758 -104.897134 
L 353.078703 -109.459775 
L 353.874648 -114.330856 
L 354.670592 -117.927406 
L 355.466537 -119.272172 
L 356.262482 -118.240652 
L 357.058426 -115.503658 
L 357.854371 -112.233477 
L 358.650316 -109.705838 
L 359.44626 -108.933631 
L 360.242205 -110.430043 
L 361.03815 -114.142016 
L 361.834095 -119.53852 
L 362.630039 -125.79703 
L 363.425984 -132.016051 
L 364.221929 -137.392726 
L 365.017873 -141.336002 
L 365.813818 -143.522484 
L 366.609763 -143.920107 
L 367.405707 -142.790597 
L 368.201652 -140.654846 
L 368.997597 -138.200955 
L 369.793541 -136.142481 
L 370.589486 -135.066039 
L 371.385431 -135.311169 
L 372.181375 -136.90107 
L 372.97732 -139.524339 
L 373.773265 -142.577695 
L 374.569209 -145.289925 
L 375.365154 -146.919141 
L 376.161099 -146.961556 
L 376.957043 -145.283795 
L 377.752988 -142.126038 
L 378.548933 -137.995166 
L 379.344878 -133.51287 
L 380.140822 -129.272483 
L 380.936767 -125.725691 
L 381.732712 -123.111747 
L 382.528656 -121.44784 
L 383.324601 -120.583514 
L 384.120546 -120.287106 
L 384.91649 -120.318617 
L 385.712435 -120.471589 
L 386.50838 -120.605465 
L 387.304324 -120.691675 
L 388.100269 -120.852232 
L 388.896214 -121.329973 
L 389.692158 -122.363974 
L 390.488103 -124.036604 
L 391.284048 -126.202049 
L 392.079992 -128.542993 
L 392.875937 -130.702002 
L 393.671882 -132.400042 
L 394.467827 -133.503787 
L 395.263771 -134.057631 
L 396.059716 -134.287992 
L 396.855661 -134.543969 
L 397.651605 -135.146136 
L 398.44755 -136.199263 
L 399.243495 -137.490546 
L 400.039439 -138.553982 
L 400.835384 -138.873658 
L 401.631329 -138.123458 
L 402.427273 -136.341979 
L 403.223218 -133.989382 
L 404.019163 -131.873427 
L 404.815107 -130.94405 
L 405.611052 -131.976953 
L 406.406997 -135.234907 
L 407.202941 -140.26112 
L 407.998886 -145.935006 
L 408.794831 -150.804426 
L 409.590775 -153.571202 
L 410.38672 -153.52256 
L 411.182665 -150.728824 
L 411.97861 -145.963534 
L 412.774554 -140.439368 
L 413.570499 -135.483063 
L 413.570499 -250.080705 
L 413.570499 -250.080705 
L 412.774554 -253.889167 
L 411.97861 -258.601534 
L 411.182665 -262.981663 
L 410.38672 -265.827694 
L 409.590775 -266.34559 
L 408.794831 -264.36238 
L 407.998886 -260.336054 
L 407.202941 -255.210846 
L 406.406997 -250.17527 
L 405.611052 -246.363302 
L 404.815107 -244.551887 
L 404.019163 -244.935938 
L 403.223218 -247.07018 
L 402.427273 -250.030879 
L 401.631329 -252.756119 
L 400.835384 -254.417261 
L 400.039439 -254.653316 
L 399.243495 -253.590309 
L 398.44755 -251.687904 
L 397.651605 -249.516645 
L 396.855661 -247.553313 
L 396.059716 -246.037876 
L 395.263771 -244.917164 
L 394.467827 -243.904093 
L 393.671882 -242.650728 
L 392.875937 -240.954013 
L 392.079992 -238.868932 
L 391.284048 -236.667073 
L 390.488103 -234.695843 
L 389.692158 -233.248486 
L 388.896214 -232.503338 
L 388.100269 -232.507159 
L 387.304324 -233.160336 
L 386.50838 -234.215256 
L 385.712435 -235.336559 
L 384.91649 -236.229661 
L 384.120546 -236.770732 
L 383.324601 -237.059882 
L 382.528656 -237.376995 
L 381.732712 -238.079024 
L 380.936767 -239.488663 
L 380.140822 -241.797194 
L 379.344878 -244.985035 
L 378.548933 -248.777004 
L 377.752988 -252.667205 
L 376.957043 -256.029766 
L 376.161099 -258.283808 
L 375.365154 -259.052615 
L 374.569209 -258.270988 
L 373.773265 -256.223199 
L 372.97732 -253.502175 
L 372.181375 -250.877949 
L 371.385431 -249.085891 
L 370.589486 -248.596136 
L 369.793541 -249.460916 
L 368.997597 -251.310639 
L 368.201652 -253.489641 
L 367.405707 -255.253669 
L 366.609763 -255.946533 
L 365.813818 -255.117818 
L 365.017873 -252.584225 
L 364.221929 -248.447499 
L 363.425984 -243.076405 
L 362.630039 -237.057938 
L 361.834095 -231.12282 
L 361.03815 -226.044467 
L 360.242205 -222.505614 
L 359.44626 -220.937198 
L 358.650316 -221.362703 
L 357.854371 -223.311098 
L 357.058426 -225.866773 
L 356.262482 -227.888161 
L 355.466537 -228.354675 
L 354.670592 -226.728712 
L 353.874648 -223.190779 
L 353.078703 -218.642605 
L 352.282758 -214.456146 
L 351.486814 -212.037375 
L 350.690869 -212.342879 
L 349.894924 -215.515987 
L 349.09898 -220.780936 
L 348.303035 -226.647603 
L 347.50709 -231.366586 
L 346.711146 -233.485471 
L 345.915201 -232.323579 
L 345.119256 -228.20168 
L 344.323311 -222.330969 
L 343.527367 -216.386768 
L 342.731422 -211.930676 
L 341.935477 -209.916691 
L 341.139533 -210.466807 
L 340.343588 -212.96339 
L 339.547643 -216.374756 
L 338.751699 -219.673832 
L 337.955754 -222.208257 
L 337.159809 -223.89272 
L 336.363865 -225.140437 
L 335.56792 -226.558527 
L 334.771975 -228.558914 
L 333.976031 -231.101126 
L 333.180086 -233.725271 
L 332.384141 -235.857151 
L 331.588197 -237.184398 
L 330.792252 -237.857985 
L 329.996307 -238.400257 
L 329.200363 -239.399724 
L 328.404418 -241.195643 
L 327.608473 -243.71811 
L 326.812528 -246.520412 
L 326.016584 -248.94779 
L 325.220639 -250.372568 
L 324.424694 -250.44442 
L 323.62875 -249.288788 
L 322.832805 -247.538894 
L 322.03686 -246.115795 
L 321.240916 -245.824233 
L 320.444971 -246.982154 
L 319.649026 -249.29729 
L 318.853082 -252.04723 
L 318.057137 -254.444656 
L 317.261192 -255.996282 
L 316.465248 -256.704807 
L 315.669303 -257.052148 
L 314.873358 -257.779068 
L 314.077414 -259.538519 
L 313.281469 -262.556229 
L 312.485524 -266.446773 
L 311.689579 -270.276918 
L 310.893635 -272.871989 
L 310.09769 -273.271388 
L 309.301745 -271.167105 
L 308.505801 -267.120515 
L 307.709856 -262.408084 
L 306.913911 -258.526665 
L 306.117967 -256.597622 
L 305.322022 -256.967564 
L 304.526077 -259.156279 
L 303.730133 -262.106522 
L 302.934188 -264.598835 
L 302.138243 -265.692517 
L 301.342299 -265.063873 
L 300.546354 -263.120999 
L 299.750409 -260.830315 
L 298.954465 -259.317043 
L 298.15852 -259.423341 
L 297.362575 -261.41592 
L 296.56663 -264.929125 
L 295.770686 -269.114359 
L 294.974741 -272.916057 
L 294.178796 -275.392235 
L 293.382852 -276.000103 
L 292.586907 -274.764413 
L 291.790962 -272.267339 
L 290.995018 -269.458873 
L 290.199073 -267.352673 
L 289.403128 -266.705157 
L 288.607184 -267.773879 
L 287.811239 -270.230595 
L 287.015294 -273.26532 
L 286.21935 -275.851482 
L 285.423405 -277.072182 
L 284.62746 -276.38566 
L 283.831516 -273.750341 
L 283.035571 -269.597894 
L 282.239626 -264.693662 
L 281.443682 -259.942431 
L 280.647737 -256.190402 
L 279.851792 -254.054898 
L 279.055847 -253.800265 
L 278.259903 -255.284804 
L 277.463958 -258.010058 
L 276.668013 -261.271476 
L 275.872069 -264.346512 
L 275.076124 -266.630566 
L 274.280179 -267.682961 
L 273.484235 -267.227343 
L 272.68829 -265.177639 
L 271.892345 -261.701561 
L 271.096401 -257.258276 
L 270.300456 -252.54112 
L 269.504511 -248.31739 
L 268.708567 -245.221392 
L 267.912622 -243.580841 
L 267.116677 -243.341813 
L 266.320733 -244.12332 
L 265.524788 -245.387928 
L 264.728843 -246.664854 
L 263.932898 -247.729697 
L 263.136954 -248.660089 
L 262.341009 -249.747021 
L 261.545064 -251.304104 
L 260.74912 -253.445782 
L 259.953175 -255.91425 
L 259.15723 -258.03974 
L 258.361286 -258.891217 
L 257.565341 -257.59081 
L 256.769396 -253.667481 
L 255.973452 -247.292255 
L 255.177507 -239.303084 
L 254.381562 -231.028391 
L 253.585618 -223.960078 
L 252.789673 -219.32957 
L 251.993728 -217.687425 
L 251.197784 -218.650763 
L 250.401839 -220.96759 
L 249.605894 -222.925478 
L 248.80995 -222.96582 
L 248.014005 -220.252373 
L 247.21806 -214.952386 
L 246.422115 -208.121722 
L 245.626171 -201.273898 
L 244.830226 -195.841129 
L 244.034281 -192.730682 
L 243.238337 -192.093927 
L 242.442392 -193.344258 
L 241.646447 -195.39679 
L 240.850503 -197.046242 
L 240.054558 -197.363122 
L 239.258613 -195.981982 
L 238.462669 -193.182158 
L 237.666724 -189.730609 
L 236.870779 -186.555078 
L 236.074835 -184.389616 
L 235.27889 -183.537168 
L 234.482945 -183.828321 
L 233.687001 -184.763075 
L 232.891056 -185.750134 
L 232.095111 -186.332307 
L 231.299166 -186.310859 
L 230.503222 -185.742348 
L 229.707277 -184.845867 
L 228.911332 -183.88725 
L 228.115388 -183.090262 
L 227.319443 -182.592392 
L 226.523498 -182.443225 
L 225.727554 -182.63609 
L 224.931609 -183.15308 
L 224.135664 -183.989244 
L 223.33972 -185.125573 
L 222.543775 -186.456702 
L 221.74783 -187.727221 
L 220.951886 -188.545577 
L 220.155941 -188.501206 
L 219.359996 -187.339819 
L 218.564052 -185.114204 
L 217.768107 -182.242279 
L 216.972162 -179.440565 
L 216.176218 -177.537442 
L 215.380273 -177.21062 
L 214.584328 -178.73373 
L 213.788383 -181.830654 
L 212.992439 -185.701049 
L 212.196494 -189.213337 
L 211.400549 -191.204708 
L 210.604605 -190.806137 
L 209.80866 -187.71073 
L 209.012715 -182.305767 
L 208.216771 -175.604202 
L 207.420826 -168.967797 
L 206.624881 -163.703372 
L 205.828937 -160.683778 
L 205.032992 -160.139912 
L 204.237047 -161.682356 
L 203.441103 -164.502703 
L 202.645158 -167.649254 
L 201.849213 -170.283477 
L 201.053269 -171.859555 
L 200.257324 -172.190603 
L 199.461379 -171.380537 
L 198.665434 -169.644967 
L 197.86949 -167.114498 
L 197.073545 -163.748294 
L 196.2776 -159.426034 
L 195.481656 -154.163006 
L 194.685711 -148.309977 
L 193.889766 -142.614062 
L 193.093822 -138.093582 
L 192.297877 -135.757743 
L 191.501932 -136.255719 
L 190.705988 -139.577632 
L 189.910043 -144.946806 
L 189.114098 -150.995403 
L 188.318154 -156.188838 
L 187.522209 -159.332633 
L 186.726264 -159.952808 
L 185.93032 -158.403645 
L 185.134375 -155.676482 
L 184.33843 -153.001093 
L 183.542485 -151.3992 
L 182.746541 -151.348683 
L 181.950596 -152.663415 
L 181.154651 -154.616644 
L 180.358707 -156.257837 
L 179.562762 -156.807608 
L 178.766817 -155.977776 
L 177.970873 -154.078668 
L 177.174928 -151.85729 
L 176.378983 -150.13269 
L 175.583039 -149.399124 
L 174.787094 -149.591784 
L 173.991149 -150.131408 
L 173.195205 -150.223682 
L 172.39926 -149.265895 
L 171.603315 -147.163827 
L 170.807371 -144.401481 
L 170.011426 -141.826204 
L 169.215481 -140.262595 
L 168.419537 -140.153915 
L 167.623592 -141.390352 
L 166.827647 -143.366133 
L 166.031702 -145.202518 
L 165.235758 -146.031795 
L 164.439813 -145.260721 
L 163.643868 -142.766463 
L 162.847924 -138.96231 
L 162.051979 -134.66242 
L 161.256034 -130.768714 
L 160.46009 -127.931088 
L 159.664145 -126.357593 
L 158.8682 -125.851859 
L 158.072256 -126.022638 
L 157.276311 -126.542799 
L 156.480366 -127.349114 
L 155.684422 -128.713642 
L 154.888477 -131.146932 
L 154.092532 -135.141993 
L 153.296588 -140.854093 
L 152.500643 -147.880501 
L 151.704698 -155.279288 
L 150.908753 -161.837688 
L 150.112809 -166.459743 
L 149.316864 -168.496126 
L 148.520919 -167.898009 
L 147.724975 -165.172311 
L 146.92903 -161.184919 
L 146.133085 -156.888967 
L 145.337141 -153.062791 
L 144.541196 -150.13398 
L 143.745251 -148.139683 
L 142.949307 -146.828752 
L 142.153362 -145.854982 
L 141.357417 -144.967039 
L 140.561473 -144.104636 
L 139.765528 -143.36454 
L 138.969583 -142.87087 
L 138.173639 -142.637555 
L 137.377694 -142.519559 
L 136.581749 -142.295177 
L 135.785805 -141.828708 
L 134.98986 -141.203433 
L 134.193915 -140.74084 
L 133.39797 -140.905384 
L 132.602026 -142.153613 
L 131.806081 -144.780014 
L 131.010136 -148.786522 
L 130.214192 -153.810921 
L 129.418247 -159.160535 
L 128.622302 -163.958455 
L 127.826358 -167.343889 
L 127.030413 -168.648686 
L 126.234468 -167.518113 
L 125.438524 -163.990335 
L 124.642579 -158.528509 
L 123.846634 -151.95094 
L 123.05069 -145.235687 
L 122.254745 -139.288406 
L 121.4588 -134.80299 
L 120.662856 -132.224686 
L 119.866911 -131.707911 
L 119.070966 -133.016185 
L 118.275021 -135.464681 
L 117.479077 -138.052582 
L 116.683132 -139.780088 
L 115.887187 -139.967352 
L 115.091243 -138.402914 
L 114.295298 -135.31156 
L 113.499353 -131.25713 
L 112.703409 -127.054252 
L 111.907464 -123.637944 
L 111.111519 -121.830804 
L 110.315575 -122.071506 
L 109.51963 -124.264358 
L 108.723685 -127.846445 
L 107.927741 -132.001259 
L 107.131796 -135.873865 
L 106.335851 -138.721145 
L 105.539907 -140.025102 
L 104.743962 -139.59858 
L 103.948017 -137.653643 
L 103.152073 -134.773772 
L 102.356128 -131.762052 
L 101.560183 -129.405373 
L 100.764238 -128.259522 
L 99.968294 -128.554715 
L 99.172349 -130.227422 
L 98.376404 -132.995732 
L 97.58046 -136.39427 
L 96.784515 -139.7725 
L 95.98857 -142.377122 
L 95.192626 -143.610739 
L 94.396681 -143.337782 
L 93.600736 -142.001742 
L 92.804792 -140.470562 
L 92.008847 -139.718299 
L 91.212902 -140.508947 
L 90.416958 -143.183034 
L 89.621013 -147.555938 
L 88.825068 -152.91293 
L 88.029124 -158.145427 
L 87.233179 -162.083663 
L 86.437234 -163.917312 
L 85.641289 -163.467088 
L 84.845345 -161.190553 
L 84.0494 -157.992437 
L 83.253455 -154.960412 
L 82.457511 -153.085149 
L 81.661566 -152.976497 
L 80.865621 -154.651651 
L 80.069677 -157.558892 
L 79.273732 -160.875481 
L 78.477787 -163.873244 
L 77.681843 -166.113368 
L 76.885898 -167.386224 
L 76.089953 -167.514178 
L 75.294009 -166.293164 
L 74.498064 -163.688841 
L 73.702119 -160.053307 
L 72.906175 -156.113909 
L 72.11023 -152.732243 
L 71.314285 -150.603399 
L 70.51834 -150.054738 
L 69.722396 -150.959289 
L 68.926451 -152.710336 
L 68.130506 -154.304871 
L 67.334562 -154.640641 
L 66.538617 -152.969821 
L 65.742672 -149.253925 
L 64.946728 -144.165821 
L 64.150783 -138.716639 
L 63.354838 -133.825026 
L 62.558894 -130.151049 
L 61.762949 -128.100408 
L 60.967004 -127.757277 
L 60.17106 -128.740027 
L 59.375115 -130.195117 
L 58.57917 -131.102806 
L 57.783226 -130.738206 
L 56.987281 -128.928816 
L 56.191336 -125.934436 
L 55.395392 -122.149925 
L 54.599447 -118.000977 
L 53.803502 -114.058614 
L 53.007557 -111.05899 
L 52.211613 -109.682246 
L 51.415668 -110.275295 
L 50.619723 -112.781204 
L 49.823779 -116.875217 
L 49.027834 -122.081399 
L 48.231889 -127.758597 
L 47.435945 -133.111023 
L 46.64 -137.424987 
z
" style="stroke: #e41a1c; stroke-opacity: 0.3"/>
    </defs>
    <g clip-path="url(#p1311b7eafd)">
     <use xlink:href="#m9981fa1cf3" x="0" y="360" style="fill: #e41a1c; fill-opacity: 0.3; stroke: #e41a1c; stroke-opacity: 0.3"/>
    </g>
   </g>
   <g id="PolyCollection_2">
    <defs>
     <path id="m2cd78cade2" d="M 46.64 -133.612248 
L 46.64 -112.1113 
L 47.435945 -112.439445 
L 48.231889 -113.698821 
L 49.027834 -115.755977 
L 49.823779 -118.150751 
L 50.619723 -120.250691 
L 51.415668 -121.445487 
L 52.211613 -121.313932 
L 53.007557 -119.740061 
L 53.803502 -116.963958 
L 54.599447 -113.537875 
L 55.395392 -110.169824 
L 56.191336 -107.500559 
L 56.987281 -105.915774 
L 57.783226 -105.471611 
L 58.57917 -105.941905 
L 59.375115 -106.949523 
L 60.17106 -108.130797 
L 60.967004 -109.269826 
L 61.762949 -110.332621 
L 62.558894 -111.381182 
L 63.354838 -112.440892 
L 64.150783 -113.432425 
L 64.946728 -114.210645 
L 65.742672 -114.638716 
L 66.538617 -114.613221 
L 67.334562 -114.058001 
L 68.130506 -112.947594 
L 68.926451 -111.377529 
L 69.722396 -109.637435 
L 70.51834 -108.179511 
L 71.314285 -107.42846 
L 72.11023 -107.562282 
L 72.906175 -108.42741 
L 73.702119 -109.617812 
L 74.498064 -110.650432 
L 75.294009 -111.153587 
L 76.089953 -111.00593 
L 76.885898 -110.382623 
L 77.681843 -109.681818 
L 78.477787 -109.349811 
L 79.273732 -109.685863 
L 80.069677 -110.727832 
L 80.865621 -112.269315 
L 81.661566 -113.969859 
L 82.457511 -115.472816 
L 83.253455 -116.485812 
L 84.0494 -116.832162 
L 84.845345 -116.483746 
L 85.641289 -115.56391 
L 86.437234 -114.296132 
L 87.233179 -112.898837 
L 88.029124 -111.485634 
L 88.825068 -110.043739 
L 89.621013 -108.499635 
L 90.416958 -106.815969 
L 91.212902 -105.05736 
L 92.008847 -103.399358 
L 92.804792 -102.090941 
L 93.600736 -101.389261 
L 94.396681 -101.472752 
L 95.192626 -102.345846 
L 95.98857 -103.785019 
L 96.784515 -105.379776 
L 97.58046 -106.666606 
L 98.376404 -107.294962 
L 99.172349 -107.150195 
L 99.968294 -106.38604 
L 100.764238 -105.360392 
L 101.560183 -104.501086 
L 102.356128 -104.148939 
L 103.152073 -104.434278 
L 103.948017 -105.234178 
L 104.743962 -106.227359 
L 105.539907 -107.022462 
L 106.335851 -107.303251 
L 107.131796 -106.930041 
L 107.927741 -105.964371 
L 108.723685 -104.623088 
L 109.51963 -103.192444 
L 110.315575 -101.93747 
L 111.111519 -101.036885 
L 111.907464 -100.56335 
L 112.703409 -100.509488 
L 113.499353 -100.835481 
L 114.295298 -101.50218 
L 115.091243 -102.470146 
L 115.887187 -103.676496 
L 116.683132 -105.015488 
L 117.479077 -106.335795 
L 118.275021 -107.449988 
L 119.070966 -108.152562 
L 119.866911 -108.253095 
L 120.662856 -107.625022 
L 121.4588 -106.250048 
L 122.254745 -104.232947 
L 123.05069 -101.783083 
L 123.846634 -99.1785 
L 124.642579 -96.720157 
L 125.438524 -94.670504 
L 126.234468 -93.185879 
L 127.030413 -92.279881 
L 127.826358 -91.852251 
L 128.622302 -91.773144 
L 129.418247 -91.958227 
L 130.214192 -92.37282 
L 131.010136 -92.979387 
L 131.806081 -93.695049 
L 132.602026 -94.396661 
L 133.39797 -94.962701 
L 134.193915 -95.326609 
L 134.98986 -95.520161 
L 135.785805 -95.681647 
L 136.581749 -96.005066 
L 137.377694 -96.640393 
L 138.173639 -97.600613 
L 138.969583 -98.737077 
L 139.765528 -99.795002 
L 140.561473 -100.498086 
L 141.357417 -100.607751 
L 142.153362 -99.963755 
L 142.949307 -98.543931 
L 143.745251 -96.532455 
L 144.541196 -94.326706 
L 145.337141 -92.430868 
L 146.133085 -91.273775 
L 146.92903 -91.048857 
L 147.724975 -91.654072 
L 148.520919 -92.747677 
L 149.316864 -93.87802 
L 150.112809 -94.623311 
L 150.908753 -94.700865 
L 151.704698 -94.038018 
L 152.500643 -92.800652 
L 153.296588 -91.362675 
L 154.092532 -90.201863 
L 154.888477 -89.73782 
L 155.684422 -90.17117 
L 156.480366 -91.399439 
L 157.276311 -93.047324 
L 158.072256 -94.583909 
L 158.8682 -95.468729 
L 159.664145 -95.291402 
L 160.46009 -93.89381 
L 161.256034 -91.447159 
L 162.051979 -88.429412 
L 162.847924 -85.476405 
L 163.643868 -83.166817 
L 164.439813 -81.855775 
L 165.235758 -81.624673 
L 166.031702 -82.317026 
L 166.827647 -83.595422 
L 167.623592 -85.010492 
L 168.419537 -86.113713 
L 169.215481 -86.599899 
L 170.011426 -86.395114 
L 170.807371 -85.620064 
L 171.603315 -84.465692 
L 172.39926 -83.088992 
L 173.195205 -81.592495 
L 173.991149 -80.055357 
L 174.787094 -78.5457 
L 175.583039 -77.098601 
L 176.378983 -75.707506 
L 177.174928 -74.359329 
L 177.970873 -73.078909 
L 178.766817 -71.929523 
L 179.562762 -70.968396 
L 180.358707 -70.208032 
L 181.154651 -69.621909 
L 181.950596 -69.18161 
L 182.746541 -68.881369 
L 183.542485 -68.723599 
L 184.33843 -68.681889 
L 185.134375 -68.678063 
L 185.93032 -68.594073 
L 186.726264 -68.313972 
L 187.522209 -67.775756 
L 188.318154 -67.009075 
L 189.114098 -66.140585 
L 189.910043 -65.362892 
L 190.705988 -64.879455 
L 191.501932 -64.845822 
L 192.297877 -65.32439 
L 193.093822 -66.263826 
L 193.889766 -67.511291 
L 194.685711 -68.859091 
L 195.481656 -70.112066 
L 196.2776 -71.147209 
L 197.073545 -71.937393 
L 197.86949 -72.529221 
L 198.665434 -72.989215 
L 199.461379 -73.347807 
L 200.257324 -73.569756 
L 201.053269 -73.565391 
L 201.849213 -73.237253 
L 202.645158 -72.540215 
L 203.441103 -71.528006 
L 204.237047 -70.365561 
L 205.032992 -69.29764 
L 205.828937 -68.575785 
L 206.624881 -68.362789 
L 207.420826 -68.65536 
L 208.216771 -69.271612 
L 209.012715 -69.92121 
L 209.80866 -70.324932 
L 210.604605 -70.319898 
L 211.400549 -69.906549 
L 212.196494 -69.238959 
L 212.992439 -68.579213 
L 213.788383 -68.221487 
L 214.584328 -68.386794 
L 215.380273 -69.122701 
L 216.176218 -70.270821 
L 216.972162 -71.533856 
L 217.768107 -72.600579 
L 218.564052 -73.246819 
L 219.359996 -73.369585 
L 220.155941 -72.981105 
L 220.951886 -72.205379 
L 221.74783 -71.272695 
L 222.543775 -70.46991 
L 223.33972 -70.039841 
L 224.135664 -70.088663 
L 224.931609 -70.562151 
L 225.727554 -71.291477 
L 226.523498 -72.061191 
L 227.319443 -72.658479 
L 228.115388 -72.90175 
L 228.911332 -72.666079 
L 229.707277 -71.908017 
L 230.503222 -70.67712 
L 231.299166 -69.108673 
L 232.095111 -67.400938 
L 232.891056 -65.773555 
L 233.687001 -64.402554 
L 234.482945 -63.351775 
L 235.27889 -62.545359 
L 236.074835 -61.810314 
L 236.870779 -60.965381 
L 237.666724 -59.898854 
L 238.462669 -58.603894 
L 239.258613 -57.184684 
L 240.054558 -55.850696 
L 240.850503 -54.887892 
L 241.646447 -54.585652 
L 242.442392 -55.130145 
L 243.238337 -56.516815 
L 244.034281 -58.534481 
L 244.830226 -60.828227 
L 245.626171 -63.006508 
L 246.422115 -64.752262 
L 247.21806 -65.911366 
L 248.014005 -66.537395 
L 248.80995 -66.870594 
L 249.605894 -67.241582 
L 250.401839 -67.925514 
L 251.197784 -69.009379 
L 251.993728 -70.339012 
L 252.789673 -71.573418 
L 253.585618 -72.319637 
L 254.381562 -72.288938 
L 255.177507 -71.418221 
L 255.973452 -69.923008 
L 256.769396 -68.266975 
L 257.565341 -67.043879 
L 258.361286 -66.788364 
L 259.15723 -67.773478 
L 259.953175 -69.884807 
L 260.74912 -72.639402 
L 261.545064 -75.346186 
L 262.341009 -77.336172 
L 263.136954 -78.171254 
L 263.932898 -77.767783 
L 264.728843 -76.409204 
L 265.524788 -74.648056 
L 266.320733 -73.121394 
L 267.116677 -72.336914 
L 267.912622 -72.512454 
L 268.708567 -73.536043 
L 269.504511 -75.056364 
L 270.300456 -76.653074 
L 271.096401 -78.008541 
L 271.892345 -79.013016 
L 272.68829 -79.770004 
L 273.484235 -80.511815 
L 274.280179 -81.471311 
L 275.076124 -82.768199 
L 275.872069 -84.352127 
L 276.668013 -86.016859 
L 277.463958 -87.478574 
L 278.259903 -88.495183 
L 279.055847 -88.983647 
L 279.851792 -89.076014 
L 280.647737 -89.067787 
L 281.443682 -89.270311 
L 282.239626 -89.84897 
L 283.035571 -90.744203 
L 283.831516 -91.712942 
L 284.62746 -92.448898 
L 285.423405 -92.70839 
L 286.21935 -92.3919 
L 287.015294 -91.564321 
L 287.811239 -90.412568 
L 288.607184 -89.154453 
L 289.403128 -87.937953 
L 290.199073 -86.784333 
L 290.995018 -85.608776 
L 291.790962 -84.307615 
L 292.586907 -82.86497 
L 293.382852 -81.422991 
L 294.178796 -80.274169 
L 294.974741 -79.763813 
L 295.770686 -80.134374 
L 296.56663 -81.385038 
L 297.362575 -83.224833 
L 298.15852 -85.148328 
L 298.954465 -86.594981 
L 299.750409 -87.122109 
L 300.546354 -86.536589 
L 301.342299 -84.95386 
L 302.138243 -82.76311 
L 302.934188 -80.492802 
L 303.730133 -78.613279 
L 304.526077 -77.364598 
L 305.322022 -76.699654 
L 306.117967 -76.365587 
L 306.913911 -76.068257 
L 307.709856 -75.636939 
L 308.505801 -75.125902 
L 309.301745 -74.816425 
L 310.09769 -75.105562 
L 310.893635 -76.308928 
L 311.689579 -78.464813 
L 312.485524 -81.253016 
L 313.281469 -84.084881 
L 314.077414 -86.315188 
L 314.873358 -87.465087 
L 315.669303 -87.37017 
L 316.465248 -86.226428 
L 317.261192 -84.539626 
L 318.057137 -82.988375 
L 318.853082 -82.219057 
L 319.649026 -82.627217 
L 320.444971 -84.219365 
L 321.240916 -86.627325 
L 322.03686 -89.264283 
L 322.832805 -91.54116 
L 323.62875 -93.052483 
L 324.424694 -93.676236 
L 325.220639 -93.572416 
L 326.016584 -93.092848 
L 326.812528 -92.638688 
L 327.608473 -92.523776 
L 328.404418 -92.900044 
L 329.200363 -93.762668 
L 329.996307 -95.004414 
L 330.792252 -96.471107 
L 331.588197 -97.991715 
L 332.384141 -99.38813 
L 333.180086 -100.481317 
L 333.976031 -101.101735 
L 334.771975 -101.104719 
L 335.56792 -100.396353 
L 336.363865 -98.975599 
L 337.159809 -96.978435 
L 337.955754 -94.686137 
L 338.751699 -92.466733 
L 339.547643 -90.661671 
L 340.343588 -89.473061 
L 341.139533 -88.911717 
L 341.935477 -88.828006 
L 342.731422 -88.995957 
L 343.527367 -89.199252 
L 344.323311 -89.289478 
L 345.119256 -89.216361 
L 345.915201 -89.033807 
L 346.711146 -88.8761 
L 347.50709 -88.901557 
L 348.303035 -89.220468 
L 349.09898 -89.841173 
L 349.894924 -90.662233 
L 350.690869 -91.510978 
L 351.486814 -92.202868 
L 352.282758 -92.591953 
L 353.078703 -92.59766 
L 353.874648 -92.209256 
L 354.670592 -91.475549 
L 355.466537 -90.486049 
L 356.262482 -89.348478 
L 357.058426 -88.168219 
L 357.854371 -87.034445 
L 358.650316 -86.014032 
L 359.44626 -85.151909 
L 360.242205 -84.476979 
L 361.03815 -84.012038 
L 361.834095 -83.781495 
L 362.630039 -83.808781 
L 363.425984 -84.103672 
L 364.221929 -84.651357 
L 365.017873 -85.413268 
L 365.813818 -86.333155 
L 366.609763 -87.332635 
L 367.405707 -88.295609 
L 368.201652 -89.063411 
L 368.997597 -89.460827 
L 369.793541 -89.34575 
L 370.589486 -88.654147 
L 371.385431 -87.420645 
L 372.181375 -85.777306 
L 372.97732 -83.936307 
L 373.773265 -82.148771 
L 374.569209 -80.63678 
L 375.365154 -79.52588 
L 376.161099 -78.822504 
L 376.957043 -78.454895 
L 377.752988 -78.345801 
L 378.548933 -78.459617 
L 379.344878 -78.795858 
L 380.140822 -79.353496 
L 380.936767 -80.108493 
L 381.732712 -81.020445 
L 382.528656 -82.052345 
L 383.324601 -83.180807 
L 384.120546 -84.389614 
L 384.91649 -85.65418 
L 385.712435 -86.926262 
L 386.50838 -88.124225 
L 387.304324 -89.132445 
L 388.100269 -89.812548 
L 388.896214 -90.026763 
L 389.692158 -89.67102 
L 390.488103 -88.712693 
L 391.284048 -87.223503 
L 392.079992 -85.393433 
L 392.875937 -83.511268 
L 393.671882 -81.90476 
L 394.467827 -80.848631 
L 395.263771 -80.467814 
L 396.059716 -80.677082 
L 396.855661 -81.193381 
L 397.651605 -81.627714 
L 398.44755 -81.621963 
L 399.243495 -80.971984 
L 400.039439 -79.690435 
L 400.835384 -77.996008 
L 401.631329 -76.240417 
L 402.427273 -74.792901 
L 403.223218 -73.910997 
L 404.019163 -73.643105 
L 404.815107 -73.810719 
L 405.611052 -74.084254 
L 406.406997 -74.114234 
L 407.202941 -73.654 
L 407.998886 -72.629661 
L 408.794831 -71.149127 
L 409.590775 -69.460362 
L 410.38672 -67.870124 
L 411.182665 -66.642152 
L 411.97861 -65.913129 
L 412.774554 -65.668241 
L 413.570499 -65.78481 
L 413.570499 -115.561084 
L 413.570499 -115.561084 
L 412.774554 -115.323416 
L 411.97861 -115.552622 
L 411.182665 -116.353831 
L 410.38672 -117.710794 
L 409.590775 -119.465059 
L 408.794831 -121.331283 
L 407.998886 -122.960383 
L 407.202941 -124.0488 
L 406.406997 -124.456114 
L 405.611052 -124.270378 
L 404.815107 -123.782261 
L 404.019163 -123.380279 
L 403.223218 -123.41614 
L 402.427273 -124.089118 
L 401.631329 -125.379223 
L 400.835384 -127.047192 
L 400.039439 -128.711179 
L 399.243495 -129.984939 
L 398.44755 -130.624932 
L 397.651605 -130.619903 
L 396.855661 -130.186114 
L 396.059716 -129.681053 
L 395.263771 -129.479638 
L 394.467827 -129.857211 
L 393.671882 -130.909389 
L 392.875937 -132.526928 
L 392.079992 -134.432887 
L 391.284048 -136.271841 
L 390.488103 -137.719567 
L 389.692158 -138.571697 
L 388.896214 -138.780575 
L 388.100269 -138.433469 
L 387.304324 -137.689594 
L 386.50838 -136.708826 
L 385.712435 -135.604745 
L 384.91649 -134.437227 
L 384.120546 -133.235835 
L 383.324601 -132.030864 
L 382.528656 -130.87037 
L 381.732712 -129.81369 
L 380.936767 -128.908667 
L 380.140822 -128.173692 
L 379.344878 -127.604891 
L 378.548933 -127.20724 
L 377.752988 -127.021968 
L 376.957043 -127.119903 
L 376.161099 -127.56071 
L 375.365154 -128.353461 
L 374.569209 -129.451814 
L 373.773265 -130.776969 
L 372.97732 -132.234897 
L 372.181375 -133.711669 
L 371.385431 -135.065152 
L 370.589486 -136.140574 
L 369.793541 -136.810519 
L 368.997597 -137.01094 
L 368.201652 -136.750984 
L 367.405707 -136.103076 
L 366.609763 -135.189665 
L 365.813818 -134.167212 
L 365.017873 -133.197611 
L 364.221929 -132.410434 
L 363.425984 -131.877377 
L 362.630039 -131.615323 
L 361.834095 -131.609341 
L 361.03815 -131.832837 
L 360.242205 -132.254473 
L 359.44626 -132.839982 
L 358.650316 -133.558367 
L 357.854371 -134.389124 
L 357.058426 -135.319792 
L 356.262482 -136.329865 
L 355.466537 -137.368737 
L 354.670592 -138.340809 
L 353.874648 -139.109318 
L 353.078703 -139.525211 
L 352.282758 -139.477219 
L 351.486814 -138.944746 
L 350.690869 -138.026173 
L 349.894924 -136.922538 
L 349.09898 -135.878813 
L 348.303035 -135.107036 
L 347.50709 -134.72156 
L 346.711146 -134.706897 
L 345.915201 -134.92684 
L 345.119256 -135.176913 
L 344.323311 -135.272421 
L 343.527367 -135.143782 
L 342.731422 -134.892004 
L 341.935477 -134.763775 
L 341.139533 -135.046658 
L 340.343588 -135.937766 
L 339.547643 -137.458991 
L 338.751699 -139.455365 
L 337.955754 -141.657063 
L 337.159809 -143.760649 
L 336.363865 -145.497287 
L 335.56792 -146.678808 
L 334.771975 -147.223083 
L 333.976031 -147.154362 
L 333.180086 -146.571986 
L 332.384141 -145.599155 
L 331.588197 -144.345538 
L 330.792252 -142.910683 
L 329.996307 -141.418265 
L 329.200363 -140.040575 
L 328.404418 -138.978705 
L 327.608473 -138.398561 
L 326.812528 -138.354066 
L 326.016584 -138.7341 
L 325.220639 -139.256438 
L 324.424694 -139.520677 
L 323.62875 -139.122741 
L 322.832805 -137.808553 
L 322.03686 -135.607574 
L 321.240916 -132.874288 
L 320.444971 -130.201935 
L 319.649026 -128.235156 
L 318.853082 -127.450982 
L 318.057137 -127.980411 
L 317.261192 -129.52584 
L 316.465248 -131.416525 
L 315.669303 -132.817421 
L 314.873358 -133.035144 
L 314.077414 -131.78723 
L 313.281469 -129.29998 
L 312.485524 -126.19061 
L 311.689579 -123.20624 
L 310.893635 -120.954516 
L 310.09769 -119.731438 
L 309.301745 -119.478715 
L 308.505801 -119.858593 
L 307.709856 -120.421182 
L 306.913911 -120.813669 
L 306.117967 -120.942725 
L 305.322022 -121.004058 
L 304.526077 -121.361442 
L 303.730133 -122.343539 
L 302.934188 -124.062232 
L 302.138243 -126.326096 
L 301.342299 -128.672543 
L 300.546354 -130.510297 
L 299.750409 -131.335318 
L 298.954465 -130.939407 
L 298.15852 -129.508127 
L 297.362575 -127.5499 
L 296.56663 -125.692091 
L 295.770686 -124.451594 
L 294.974741 -124.084151 
L 294.178796 -124.555001 
L 293.382852 -125.613993 
L 292.586907 -126.930985 
L 291.790962 -128.237651 
L 290.995018 -129.419271 
L 290.199073 -130.517617 
L 289.403128 -131.649887 
L 288.607184 -132.89368 
L 287.811239 -134.201273 
L 287.015294 -135.385218 
L 286.21935 -136.183348 
L 285.423405 -136.37815 
L 284.62746 -135.915281 
L 283.831516 -134.953953 
L 283.035571 -133.810795 
L 282.239626 -132.822857 
L 281.443682 -132.206779 
L 280.647737 -131.983654 
L 279.851792 -131.986481 
L 279.055847 -131.927418 
L 278.259903 -131.500228 
L 277.463958 -130.499259 
L 276.668013 -128.918805 
L 275.872069 -126.976587 
L 275.076124 -125.028131 
L 274.280179 -123.403153 
L 273.484235 -122.249252 
L 272.68829 -121.468673 
L 271.892345 -120.78046 
L 271.096401 -119.87282 
L 270.300456 -118.570824 
L 269.504511 -116.943281 
L 268.708567 -115.300246 
L 267.912622 -114.078916 
L 267.116677 -113.664389 
L 266.320733 -114.218635 
L 265.524788 -115.583689 
L 264.728843 -117.295896 
L 263.932898 -118.71488 
L 263.136954 -119.235342 
L 262.341009 -118.509665 
L 261.545064 -116.587364 
L 260.74912 -113.90543 
L 259.953175 -111.135403 
L 259.15723 -108.959263 
L 258.361286 -107.862443 
L 257.565341 -108.002504 
L 256.769396 -109.176141 
L 255.973452 -110.88892 
L 255.177507 -112.517175 
L 254.381562 -113.518375 
L 253.585618 -113.609442 
L 252.789673 -112.835339 
L 251.993728 -111.504228 
L 251.197784 -110.031955 
L 250.401839 -108.772079 
L 249.605894 -107.895547 
L 248.80995 -107.348601 
L 248.014005 -106.888248 
L 247.21806 -106.180782 
L 246.422115 -104.938437 
L 245.626171 -103.050982 
L 244.830226 -100.656233 
L 244.034281 -98.110881 
L 243.238337 -95.871334 
L 242.442392 -94.341545 
L 241.646447 -93.754385 
L 240.850503 -94.120786 
L 240.054558 -95.243396 
L 239.258613 -96.782187 
L 238.462669 -98.363927 
L 237.666724 -99.710762 
L 236.870779 -100.73258 
L 236.074835 -101.529638 
L 235.27889 -102.304099 
L 234.482945 -103.241811 
L 233.687001 -104.436657 
L 232.891056 -105.877839 
L 232.095111 -107.470337 
L 231.299166 -109.061084 
L 230.503222 -110.470846 
L 229.707277 -111.537852 
L 228.911332 -112.161252 
L 228.115388 -112.323734 
L 227.319443 -112.08866 
L 226.523498 -111.583632 
L 225.727554 -110.976538 
L 224.931609 -110.439571 
L 224.135664 -110.107723 
L 223.33972 -110.054738 
L 222.543775 -110.296576 
L 221.74783 -110.799874 
L 220.951886 -111.467909 
L 220.155941 -112.116688 
L 219.359996 -112.495413 
L 218.564052 -112.381081 
L 217.768107 -111.695136 
L 216.972162 -110.55304 
L 216.176218 -109.213523 
L 215.380273 -107.974782 
L 214.584328 -107.084632 
L 213.788383 -106.68634 
L 212.992439 -106.784578 
L 212.196494 -107.231368 
L 211.400549 -107.761567 
L 210.604605 -108.093216 
L 209.80866 -108.051619 
L 209.012715 -107.643409 
L 208.216771 -107.04089 
L 207.420826 -106.499782 
L 206.624881 -106.26225 
L 205.828937 -106.48011 
L 205.032992 -107.16897 
L 204.237047 -108.200292 
L 203.441103 -109.340526 
L 202.645158 -110.3322 
L 201.849213 -110.985015 
L 201.053269 -111.232873 
L 200.257324 -111.130892 
L 199.461379 -110.800615 
L 198.665434 -110.356222 
L 197.86949 -109.848265 
L 197.073545 -109.248218 
L 196.2776 -108.47688 
L 195.481656 -107.461463 
L 194.685711 -106.195608 
L 193.889766 -104.77582 
L 193.093822 -103.396511 
L 192.297877 -102.300472 
L 191.501932 -101.699212 
L 190.705988 -101.694014 
L 189.910043 -102.234078 
L 189.114098 -103.133246 
L 188.318154 -104.136491 
L 187.522209 -105.003028 
L 186.726264 -105.571295 
L 185.93032 -105.787554 
L 185.134375 -105.6988 
L 184.33843 -105.422493 
L 183.542485 -105.108842 
L 182.746541 -104.906576 
L 181.950596 -104.933565 
L 181.154651 -105.250081 
L 180.358707 -105.843165 
L 179.562762 -106.641017 
L 178.766817 -107.56047 
L 177.970873 -108.55665 
L 177.174928 -109.634271 
L 176.378983 -110.813949 
L 175.583039 -112.094041 
L 174.787094 -113.452846 
L 173.991149 -114.880169 
L 173.195205 -116.37987 
L 172.39926 -117.916455 
L 171.603315 -119.356805 
L 170.807371 -120.481964 
L 170.011426 -121.073683 
L 169.215481 -121.00538 
L 168.419537 -120.278233 
L 167.623592 -119.015432 
L 166.827647 -117.466372 
L 166.031702 -116.019847 
L 165.235758 -115.156925 
L 164.439813 -115.30412 
L 163.643868 -116.651759 
L 162.847924 -119.057293 
L 162.051979 -122.088686 
L 161.256034 -125.157293 
L 160.46009 -127.664653 
L 159.664145 -129.136899 
L 158.8682 -129.349889 
L 158.072256 -128.415282 
L 157.276311 -126.764549 
L 156.480366 -125.005713 
L 155.684422 -123.710163 
L 154.888477 -123.230902 
L 154.092532 -123.620012 
L 153.296588 -124.64721 
L 152.500643 -125.890049 
L 151.704698 -126.871082 
L 150.908753 -127.216765 
L 150.112809 -126.79313 
L 149.316864 -125.761314 
L 148.520919 -124.518317 
L 147.724975 -123.541536 
L 146.92903 -123.209857 
L 146.133085 -123.686583 
L 145.337141 -124.902666 
L 144.541196 -126.61605 
L 143.745251 -128.495329 
L 142.949307 -130.190402 
L 142.153362 -131.391349 
L 141.357417 -131.89963 
L 140.561473 -131.701496 
L 139.765528 -130.982599 
L 138.969583 -130.042244 
L 138.173639 -129.151235 
L 137.377694 -128.452382 
L 136.581749 -127.957384 
L 135.785805 -127.603151 
L 134.98986 -127.302214 
L 134.193915 -126.962644 
L 133.39797 -126.496796 
L 132.602026 -125.841153 
L 131.806081 -124.982474 
L 131.010136 -123.972956 
L 130.214192 -122.931209 
L 129.418247 -122.03269 
L 128.622302 -121.479816 
L 127.826358 -121.441898 
L 127.030413 -121.992225 
L 126.234468 -123.096501 
L 125.438524 -124.660735 
L 124.642579 -126.58189 
L 123.846634 -128.7524 
L 123.05069 -131.027884 
L 122.254745 -133.20528 
L 121.4588 -135.045984 
L 120.662856 -136.33426 
L 119.866911 -136.934437 
L 119.070966 -136.82282 
L 118.275021 -136.091273 
L 117.479077 -134.922843 
L 116.683132 -133.540532 
L 115.887187 -132.146292 
L 115.091243 -130.882801 
L 114.295298 -129.837823 
L 113.499353 -129.075564 
L 112.703409 -128.659629 
L 111.907464 -128.647371 
L 111.111519 -129.063639 
L 110.315575 -129.873281 
L 109.51963 -130.964715 
L 108.723685 -132.151028 
L 107.927741 -133.197004 
L 107.131796 -133.876193 
L 106.335851 -134.0441 
L 105.539907 -133.695858 
L 104.743962 -132.97896 
L 103.948017 -132.153577 
L 103.152073 -131.514389 
L 102.356128 -131.296172 
L 101.560183 -131.588235 
L 100.764238 -132.286392 
L 99.968294 -133.107575 
L 99.172349 -133.674027 
L 98.376404 -133.64488 
L 97.58046 -132.84692 
L 96.784515 -131.351695 
L 95.98857 -129.469028 
L 95.192626 -127.661501 
L 94.396681 -126.408441 
L 93.600736 -126.05653 
L 92.804792 -126.700231 
L 92.008847 -128.144825 
L 91.212902 -129.989544 
L 90.416958 -131.801208 
L 89.621013 -133.283412 
L 88.825068 -134.354808 
L 88.029124 -135.116068 
L 87.233179 -135.746325 
L 86.437234 -136.388713 
L 85.641289 -137.064384 
L 84.845345 -137.633038 
L 84.0494 -137.822945 
L 83.253455 -137.349945 
L 82.457511 -136.085944 
L 81.661566 -134.175786 
L 80.865621 -132.018505 
L 80.069677 -130.110496 
L 79.273732 -128.836801 
L 78.477787 -128.331714 
L 77.681843 -128.467889 
L 76.885898 -128.940456 
L 76.089953 -129.385892 
L 75.294009 -129.498974 
L 74.498064 -129.130004 
L 73.702119 -128.339088 
L 72.906175 -127.37691 
L 72.11023 -126.590602 
L 71.314285 -126.301537 
L 70.51834 -126.71135 
L 69.722396 -127.852314 
L 68.926451 -129.556399 
L 68.130506 -131.444272 
L 67.334562 -133.013216 
L 66.538617 -133.847169 
L 65.742672 -133.808641 
L 64.946728 -133.071484 
L 64.150783 -131.980967 
L 63.354838 -130.838314 
L 62.558894 -129.764516 
L 61.762949 -128.72859 
L 60.967004 -127.66963 
L 60.17106 -126.595993 
L 59.375115 -125.619206 
L 58.57917 -124.945048 
L 57.783226 -124.841954 
L 56.987281 -125.574032 
L 56.191336 -127.296539 
L 55.395392 -129.956147 
L 54.599447 -133.248327 
L 53.803502 -136.651447 
L 53.007557 -139.530069 
L 52.211613 -141.298769 
L 51.415668 -141.619014 
L 50.619723 -140.547497 
L 49.823779 -138.540521 
L 49.027834 -136.291318 
L 48.231889 -134.478387 
L 47.435945 -133.548371 
L 46.64 -133.612248 
z
" style="stroke: #377eb8; stroke-opacity: 0.3"/>
    </defs>
    <g clip-path="url(#p1311b7eafd)">
     <use xlink:href="#m2cd78cade2" x="0" y="360" style="fill: #377eb8; fill-opacity: 0.3; stroke: #377eb8; stroke-opacity: 0.3"/>
    </g>
   </g>
   <g id="patch_3">
    <path d="M 229.866466 318.04 
L 229.866466 71.732 
L 331.747385 71.732 
L 331.747385 318.04 
z
" clip-path="url(#p1311b7eafd)" style="fill: #808080; opacity: 0.3"/>
   </g>
   <g id="matplotlib.axis_1">
    <g id="xtick_1">
     <g id="line2d_1">
      <defs>
       <path id="m48ff688934" d="M 0 0 
L 0 3.5 
" style="stroke: #000000; stroke-width: 0.8"/>
      </defs>
      <g>
       <use xlink:href="#m48ff688934" x="87.233179" y="318.04" style="stroke: #000000; stroke-width: 0.8"/>
      </g>
     </g>
     <g id="text_1">
      <!-- 0.0 -->
      <g transform="translate(79.281616 332.638438)scale(0.1 -0.1)">
       <defs>
        <path id="DejaVuSans-30" d="M 2034 4250 
Q 1547 4250 1301 3770 
Q 1056 3291 1056 2328 
Q 1056 1369 1301 889 
Q 1547 409 2034 409 
Q 2525 409 2770 889 
Q 3016 1369 3016 2328 
Q 3016 3291 2770 3770 
Q 2525 4250 2034 4250 
z
M 2034 4750 
Q 2819 4750 3233 4129 
Q 3647 3509 3647 2328 
Q 3647 1150 3233 529 
Q 2819 -91 2034 -91 
Q 1250 -91 836 529 
Q 422 1150 422 2328 
Q 422 3509 836 4129 
Q 1250 4750 2034 4750 
z
" transform="scale(0.015625)"/>
        <path id="DejaVuSans-2e" d="M 684 794 
L 1344 794 
L 1344 0 
L 684 0 
L 684 794 
z
" transform="scale(0.015625)"/>
       </defs>
       <use xlink:href="#DejaVuSans-30"/>
       <use xlink:href="#DejaVuSans-2e" x="63.623047"/>
       <use xlink:href="#DejaVuSans-30" x="95.410156"/>
      </g>
     </g>
    </g>
    <g id="xtick_2">
     <g id="line2d_2">
      <g>
       <use xlink:href="#m48ff688934" x="168.737914" y="318.04" style="stroke: #000000; stroke-width: 0.8"/>
      </g>
     </g>
     <g id="text_2">
      <!-- 0.2 -->
      <g transform="translate(160.786352 332.638438)scale(0.1 -0.1)">
       <defs>
        <path id="DejaVuSans-32" d="M 1228 531 
L 3431 531 
L 3431 0 
L 469 0 
L 469 531 
Q 828 903 1448 1529 
Q 2069 2156 2228 2338 
Q 2531 2678 2651 2914 
Q 2772 3150 2772 3378 
Q 2772 3750 2511 3984 
Q 2250 4219 1831 4219 
Q 1534 4219 1204 4116 
Q 875 4013 500 3803 
L 500 4441 
Q 881 4594 1212 4672 
Q 1544 4750 1819 4750 
Q 2544 4750 2975 4387 
Q 3406 4025 3406 3419 
Q 3406 3131 3298 2873 
Q 3191 2616 2906 2266 
Q 2828 2175 2409 1742 
Q 1991 1309 1228 531 
z
" transform="scale(0.015625)"/>
       </defs>
       <use xlink:href="#DejaVuSans-30"/>
       <use xlink:href="#DejaVuSans-2e" x="63.623047"/>
       <use xlink:href="#DejaVuSans-32" x="95.410156"/>
      </g>
     </g>
    </g>
    <g id="xtick_3">
     <g id="line2d_3">
      <g>
       <use xlink:href="#m48ff688934" x="250.24265" y="318.04" style="stroke: #000000; stroke-width: 0.8"/>
      </g>
     </g>
     <g id="text_3">
      <!-- 0.4 -->
      <g transform="translate(242.291087 332.638438)scale(0.1 -0.1)">
       <defs>
        <path id="DejaVuSans-34" d="M 2419 4116 
L 825 1625 
L 2419 1625 
L 2419 4116 
z
M 2253 4666 
L 3047 4666 
L 3047 1625 
L 3713 1625 
L 3713 1100 
L 3047 1100 
L 3047 0 
L 2419 0 
L 2419 1100 
L 313 1100 
L 313 1709 
L 2253 4666 
z
" transform="scale(0.015625)"/>
       </defs>
       <use xlink:href="#DejaVuSans-30"/>
       <use xlink:href="#DejaVuSans-2e" x="63.623047"/>
       <use xlink:href="#DejaVuSans-34" x="95.410156"/>
      </g>
     </g>
    </g>
    <g id="xtick_4">
     <g id="line2d_4">
      <g>
       <use xlink:href="#m48ff688934" x="331.747385" y="318.04" style="stroke: #000000; stroke-width: 0.8"/>
      </g>
     </g>
     <g id="text_4">
      <!-- 0.6 -->
      <g transform="translate(323.795823 332.638438)scale(0.1 -0.1)">
       <defs>
        <path id="DejaVuSans-36" d="M 2113 2584 
Q 1688 2584 1439 2293 
Q 1191 2003 1191 1497 
Q 1191 994 1439 701 
Q 1688 409 2113 409 
Q 2538 409 2786 701 
Q 3034 994 3034 1497 
Q 3034 2003 2786 2293 
Q 2538 2584 2113 2584 
z
M 3366 4563 
L 3366 3988 
Q 3128 4100 2886 4159 
Q 2644 4219 2406 4219 
Q 1781 4219 1451 3797 
Q 1122 3375 1075 2522 
Q 1259 2794 1537 2939 
Q 1816 3084 2150 3084 
Q 2853 3084 3261 2657 
Q 3669 2231 3669 1497 
Q 3669 778 3244 343 
Q 2819 -91 2113 -91 
Q 1303 -91 875 529 
Q 447 1150 447 2328 
Q 447 3434 972 4092 
Q 1497 4750 2381 4750 
Q 2619 4750 2861 4703 
Q 3103 4656 3366 4563 
z
" transform="scale(0.015625)"/>
       </defs>
       <use xlink:href="#DejaVuSans-30"/>
       <use xlink:href="#DejaVuSans-2e" x="63.623047"/>
       <use xlink:href="#DejaVuSans-36" x="95.410156"/>
      </g>
     </g>
    </g>
    <g id="xtick_5">
     <g id="line2d_5">
      <g>
       <use xlink:href="#m48ff688934" x="413.252121" y="318.04" style="stroke: #000000; stroke-width: 0.8"/>
      </g>
     </g>
     <g id="text_5">
      <!-- 0.8 -->
      <g transform="translate(405.300559 332.638438)scale(0.1 -0.1)">
       <defs>
        <path id="DejaVuSans-38" d="M 2034 2216 
Q 1584 2216 1326 1975 
Q 1069 1734 1069 1313 
Q 1069 891 1326 650 
Q 1584 409 2034 409 
Q 2484 409 2743 651 
Q 3003 894 3003 1313 
Q 3003 1734 2745 1975 
Q 2488 2216 2034 2216 
z
M 1403 2484 
Q 997 2584 770 2862 
Q 544 3141 544 3541 
Q 544 4100 942 4425 
Q 1341 4750 2034 4750 
Q 2731 4750 3128 4425 
Q 3525 4100 3525 3541 
Q 3525 3141 3298 2862 
Q 3072 2584 2669 2484 
Q 3125 2378 3379 2068 
Q 3634 1759 3634 1313 
Q 3634 634 3220 271 
Q 2806 -91 2034 -91 
Q 1263 -91 848 271 
Q 434 634 434 1313 
Q 434 1759 690 2068 
Q 947 2378 1403 2484 
z
M 1172 3481 
Q 1172 3119 1398 2916 
Q 1625 2713 2034 2713 
Q 2441 2713 2670 2916 
Q 2900 3119 2900 3481 
Q 2900 3844 2670 4047 
Q 2441 4250 2034 4250 
Q 1625 4250 1398 4047 
Q 1172 3844 1172 3481 
z
" transform="scale(0.015625)"/>
       </defs>
       <use xlink:href="#DejaVuSans-30"/>
       <use xlink:href="#DejaVuSans-2e" x="63.623047"/>
       <use xlink:href="#DejaVuSans-38" x="95.410156"/>
      </g>
     </g>
    </g>
    <g id="text_6">
     <!-- seconds -->
     <g transform="translate(209.667749 346.316563)scale(0.1 -0.1)">
      <defs>
       <path id="DejaVuSans-73" d="M 2834 3397 
L 2834 2853 
Q 2591 2978 2328 3040 
Q 2066 3103 1784 3103 
Q 1356 3103 1142 2972 
Q 928 2841 928 2578 
Q 928 2378 1081 2264 
Q 1234 2150 1697 2047 
L 1894 2003 
Q 2506 1872 2764 1633 
Q 3022 1394 3022 966 
Q 3022 478 2636 193 
Q 2250 -91 1575 -91 
Q 1294 -91 989 -36 
Q 684 19 347 128 
L 347 722 
Q 666 556 975 473 
Q 1284 391 1588 391 
Q 1994 391 2212 530 
Q 2431 669 2431 922 
Q 2431 1156 2273 1281 
Q 2116 1406 1581 1522 
L 1381 1569 
Q 847 1681 609 1914 
Q 372 2147 372 2553 
Q 372 3047 722 3315 
Q 1072 3584 1716 3584 
Q 2034 3584 2315 3537 
Q 2597 3491 2834 3397 
z
" transform="scale(0.015625)"/>
       <path id="DejaVuSans-65" d="M 3597 1894 
L 3597 1613 
L 953 1613 
Q 991 1019 1311 708 
Q 1631 397 2203 397 
Q 2534 397 2845 478 
Q 3156 559 3463 722 
L 3463 178 
Q 3153 47 2828 -22 
Q 2503 -91 2169 -91 
Q 1331 -91 842 396 
Q 353 884 353 1716 
Q 353 2575 817 3079 
Q 1281 3584 2069 3584 
Q 2775 3584 3186 3129 
Q 3597 2675 3597 1894 
z
M 3022 2063 
Q 3016 2534 2758 2815 
Q 2500 3097 2075 3097 
Q 1594 3097 1305 2825 
Q 1016 2553 972 2059 
L 3022 2063 
z
" transform="scale(0.015625)"/>
       <path id="DejaVuSans-63" d="M 3122 3366 
L 3122 2828 
Q 2878 2963 2633 3030 
Q 2388 3097 2138 3097 
Q 1578 3097 1268 2742 
Q 959 2388 959 1747 
Q 959 1106 1268 751 
Q 1578 397 2138 397 
Q 2388 397 2633 464 
Q 2878 531 3122 666 
L 3122 134 
Q 2881 22 2623 -34 
Q 2366 -91 2075 -91 
Q 1284 -91 818 406 
Q 353 903 353 1747 
Q 353 2603 823 3093 
Q 1294 3584 2113 3584 
Q 2378 3584 2631 3529 
Q 2884 3475 3122 3366 
z
" transform="scale(0.015625)"/>
       <path id="DejaVuSans-6f" d="M 1959 3097 
Q 1497 3097 1228 2736 
Q 959 2375 959 1747 
Q 959 1119 1226 758 
Q 1494 397 1959 397 
Q 2419 397 2687 759 
Q 2956 1122 2956 1747 
Q 2956 2369 2687 2733 
Q 2419 3097 1959 3097 
z
M 1959 3584 
Q 2709 3584 3137 3096 
Q 3566 2609 3566 1747 
Q 3566 888 3137 398 
Q 2709 -91 1959 -91 
Q 1206 -91 779 398 
Q 353 888 353 1747 
Q 353 2609 779 3096 
Q 1206 3584 1959 3584 
z
" transform="scale(0.015625)"/>
       <path id="DejaVuSans-6e" d="M 3513 2113 
L 3513 0 
L 2938 0 
L 2938 2094 
Q 2938 2591 2744 2837 
Q 2550 3084 2163 3084 
Q 1697 3084 1428 2787 
Q 1159 2491 1159 1978 
L 1159 0 
L 581 0 
L 581 3500 
L 1159 3500 
L 1159 2956 
Q 1366 3272 1645 3428 
Q 1925 3584 2291 3584 
Q 2894 3584 3203 3211 
Q 3513 2838 3513 2113 
z
" transform="scale(0.015625)"/>
       <path id="DejaVuSans-64" d="M 2906 2969 
L 2906 4863 
L 3481 4863 
L 3481 0 
L 2906 0 
L 2906 525 
Q 2725 213 2448 61 
Q 2172 -91 1784 -91 
Q 1150 -91 751 415 
Q 353 922 353 1747 
Q 353 2572 751 3078 
Q 1150 3584 1784 3584 
Q 2172 3584 2448 3432 
Q 2725 3281 2906 2969 
z
M 947 1747 
Q 947 1113 1208 752 
Q 1469 391 1925 391 
Q 2381 391 2643 752 
Q 2906 1113 2906 1747 
Q 2906 2381 2643 2742 
Q 2381 3103 1925 3103 
Q 1469 3103 1208 2742 
Q 947 2381 947 1747 
z
" transform="scale(0.015625)"/>
      </defs>
      <use xlink:href="#DejaVuSans-73"/>
      <use xlink:href="#DejaVuSans-65" x="52.099609"/>
      <use xlink:href="#DejaVuSans-63" x="113.623047"/>
      <use xlink:href="#DejaVuSans-6f" x="168.603516"/>
      <use xlink:href="#DejaVuSans-6e" x="229.785156"/>
      <use xlink:href="#DejaVuSans-64" x="293.164062"/>
      <use xlink:href="#DejaVuSans-73" x="356.640625"/>
     </g>
    </g>
   </g>
   <g id="matplotlib.axis_2">
    <g id="ytick_1">
     <g id="line2d_6">
      <defs>
       <path id="mba41d2eecc" d="M 0 0 
L -3.5 0 
" style="stroke: #000000; stroke-width: 0.8"/>
      </defs>
      <g>
       <use xlink:href="#mba41d2eecc" x="46.64" y="280.15622" style="stroke: #000000; stroke-width: 0.8"/>
      </g>
     </g>
     <g id="text_7">
      <!-- 1 -->
      <g transform="translate(24.897813 283.955439)scale(0.1 -0.1)">
       <defs>
        <path id="DejaVuSans-2212" d="M 678 2272 
L 4684 2272 
L 4684 1741 
L 678 1741 
L 678 2272 
z
" transform="scale(0.015625)"/>
        <path id="DejaVuSans-31" d="M 794 531 
L 1825 531 
L 1825 4091 
L 703 3866 
L 703 4441 
L 1819 4666 
L 2450 4666 
L 2450 531 
L 3481 531 
L 3481 0 
L 794 0 
L 794 531 
z
" transform="scale(0.015625)"/>
       </defs>
       <use xlink:href="#DejaVuSans-2212"/>
       <use xlink:href="#DejaVuSans-31" x="83.789062"/>
      </g>
     </g>
    </g>
    <g id="ytick_2">
     <g id="line2d_7">
      <g>
       <use xlink:href="#mba41d2eecc" x="46.64" y="237.884307" style="stroke: #000000; stroke-width: 0.8"/>
      </g>
     </g>
     <g id="text_8">
      <!-- 0 -->
      <g transform="translate(33.2775 241.683526)scale(0.1 -0.1)">
       <use xlink:href="#DejaVuSans-30"/>
      </g>
     </g>
    </g>
    <g id="ytick_3">
     <g id="line2d_8">
      <g>
       <use xlink:href="#mba41d2eecc" x="46.64" y="195.612395" style="stroke: #000000; stroke-width: 0.8"/>
      </g>
     </g>
     <g id="text_9">
      <!-- 1 -->
      <g transform="translate(33.2775 199.411613)scale(0.1 -0.1)">
       <use xlink:href="#DejaVuSans-31"/>
      </g>
     </g>
    </g>
    <g id="ytick_4">
     <g id="line2d_9">
      <g>
       <use xlink:href="#mba41d2eecc" x="46.64" y="153.340482" style="stroke: #000000; stroke-width: 0.8"/>
      </g>
     </g>
     <g id="text_10">
      <!-- 2 -->
      <g transform="translate(33.2775 157.139701)scale(0.1 -0.1)">
       <use xlink:href="#DejaVuSans-32"/>
      </g>
     </g>
    </g>
    <g id="ytick_5">
     <g id="line2d_10">
      <g>
       <use xlink:href="#mba41d2eecc" x="46.64" y="111.068569" style="stroke: #000000; stroke-width: 0.8"/>
      </g>
     </g>
     <g id="text_11">
      <!-- 3 -->
      <g transform="translate(33.2775 114.867788)scale(0.1 -0.1)">
       <defs>
        <path id="DejaVuSans-33" d="M 2597 2516 
Q 3050 2419 3304 2112 
Q 3559 1806 3559 1356 
Q 3559 666 3084 287 
Q 2609 -91 1734 -91 
Q 1441 -91 1130 -33 
Q 819 25 488 141 
L 488 750 
Q 750 597 1062 519 
Q 1375 441 1716 441 
Q 2309 441 2620 675 
Q 2931 909 2931 1356 
Q 2931 1769 2642 2001 
Q 2353 2234 1838 2234 
L 1294 2234 
L 1294 2753 
L 1863 2753 
Q 2328 2753 2575 2939 
Q 2822 3125 2822 3475 
Q 2822 3834 2567 4026 
Q 2313 4219 1838 4219 
Q 1578 4219 1281 4162 
Q 984 4106 628 3988 
L 628 4550 
Q 988 4650 1302 4700 
Q 1616 4750 1894 4750 
Q 2613 4750 3031 4423 
Q 3450 4097 3450 3541 
Q 3450 3153 3228 2886 
Q 3006 2619 2597 2516 
z
" transform="scale(0.015625)"/>
       </defs>
       <use xlink:href="#DejaVuSans-33"/>
      </g>
     </g>
    </g>
    <g id="text_12">
     <!-- V -->
     <g transform="translate(18.818125 201.487562)rotate(-90)scale(0.1 -0.1)">
      <defs>
       <path id="DejaVuSans-b5" d="M 544 -1331 
L 544 3500 
L 1119 3500 
L 1119 1325 
Q 1119 872 1334 640 
Q 1550 409 1972 409 
Q 2434 409 2667 671 
Q 2900 934 2900 1459 
L 2900 3500 
L 3475 3500 
L 3475 806 
Q 3475 619 3529 530 
Q 3584 441 3700 441 
Q 3728 441 3778 458 
Q 3828 475 3916 513 
L 3916 50 
Q 3788 -22 3673 -56 
Q 3559 -91 3450 -91 
Q 3234 -91 3106 31 
Q 2978 153 2931 403 
Q 2775 156 2548 32 
Q 2322 -91 2016 -91 
Q 1697 -91 1473 31 
Q 1250 153 1119 397 
L 1119 -1331 
L 544 -1331 
z
" transform="scale(0.015625)"/>
       <path id="DejaVuSans-56" d="M 1831 0 
L 50 4666 
L 709 4666 
L 2188 738 
L 3669 4666 
L 4325 4666 
L 2547 0 
L 1831 0 
z
" transform="scale(0.015625)"/>
      </defs>
      <use xlink:href="#DejaVuSans-b5"/>
      <use xlink:href="#DejaVuSans-56" x="63.623047"/>
     </g>
    </g>
   </g>
   <g id="line2d_11">
    <path d="M 46.64 249.049826 
L 47.435945 252.582903 
L 50.619723 269.70746 
L 51.415668 271.547629 
L 52.211613 271.490332 
L 53.007557 269.57838 
L 53.803502 266.155387 
L 56.191336 253.080859 
L 56.987281 250.065282 
L 57.783226 248.520688 
L 58.57917 248.470974 
L 59.375115 249.544544 
L 60.17106 251.027366 
L 60.967004 252.026949 
L 61.762949 251.717242 
L 62.558894 249.594569 
L 63.354838 245.657249 
L 65.742672 229.979766 
L 66.538617 226.631599 
L 67.334562 225.203088 
L 68.130506 225.512674 
L 69.722396 228.415532 
L 70.51834 229.197175 
L 71.314285 228.649944 
L 72.11023 226.631788 
L 72.906175 223.443601 
L 74.498064 216.146612 
L 75.294009 213.451389 
L 76.089953 212.088932 
L 76.885898 212.266642 
L 77.681843 213.921992 
L 78.477787 216.75267 
L 80.865621 226.797396 
L 81.661566 228.579393 
L 82.457511 228.829716 
L 83.253455 227.556389 
L 85.641289 220.512797 
L 86.437234 220.099883 
L 87.233179 221.824988 
L 88.029124 225.696154 
L 90.416958 242.605043 
L 91.212902 246.53158 
L 92.008847 248.472329 
L 92.804792 248.561267 
L 93.600736 247.461476 
L 94.396681 246.127247 
L 95.192626 245.486143 
L 95.98857 246.149794 
L 96.784515 248.2449 
L 99.172349 257.982555 
L 99.968294 259.869049 
L 100.764238 260.192952 
L 101.560183 258.946168 
L 102.356128 256.488146 
L 103.948017 250.566065 
L 104.743962 248.561522 
L 105.539907 247.96463 
L 106.335851 249.019721 
L 107.131796 251.622638 
L 109.51963 263.023331 
L 110.315575 265.399601 
L 111.111519 266.015407 
L 111.907464 264.754118 
L 112.703409 261.947802 
L 114.295298 254.729141 
L 115.091243 252.085483 
L 115.887187 250.963614 
L 116.683132 251.521532 
L 117.479077 253.44431 
L 119.070966 258.365807 
L 119.866911 259.564605 
L 120.662856 258.963852 
L 121.4588 256.276387 
L 122.254745 251.644826 
L 125.438524 227.82357 
L 126.234468 224.928643 
L 127.030413 224.461787 
L 127.826358 226.409429 
L 128.622302 230.351032 
L 131.010136 246.12596 
L 131.806081 250.022419 
L 132.602026 252.50554 
L 133.39797 253.675341 
L 134.193915 253.915362 
L 135.785805 253.53641 
L 136.581749 253.580273 
L 138.173639 254.156453 
L 138.969583 254.266455 
L 139.765528 254.014409 
L 140.561473 253.374823 
L 141.357417 252.438978 
L 142.949307 250.052917 
L 143.745251 248.513894 
L 144.541196 246.475667 
L 145.337141 243.729293 
L 146.92903 236.388301 
L 147.724975 232.772252 
L 148.520919 230.286073 
L 149.316864 229.757553 
L 150.112809 231.682901 
L 150.908753 236.02264 
L 152.500643 249.108406 
L 153.296588 255.731167 
L 154.092532 261.163991 
L 154.888477 265.003893 
L 155.684422 267.358754 
L 156.480366 268.686787 
L 157.276311 269.510338 
L 158.072256 270.134191 
L 158.8682 270.496161 
L 159.664145 270.217626 
L 160.46009 268.831014 
L 161.256034 266.079496 
L 162.847924 257.701209 
L 163.643868 253.716125 
L 164.439813 251.131251 
L 165.235758 250.489592 
L 166.031702 251.705605 
L 167.623592 256.493253 
L 168.419537 257.911423 
L 169.215481 257.6671 
L 170.011426 255.739238 
L 172.39926 247.035829 
L 173.195205 245.751416 
L 173.991149 245.602473 
L 175.583039 246.41575 
L 176.378983 246.131745 
L 177.174928 245.098583 
L 177.970873 243.683095 
L 178.766817 242.546731 
L 179.562762 242.31682 
L 180.358707 243.261347 
L 181.950596 247.159115 
L 182.746541 248.4806 
L 183.542485 248.387963 
L 184.33843 246.727446 
L 185.93032 241.280534 
L 186.726264 239.739821 
L 187.522209 240.31737 
L 188.318154 243.304201 
L 189.114098 248.220689 
L 190.705988 259.117982 
L 191.501932 262.473606 
L 192.297877 263.294647 
L 193.093822 261.517999 
L 193.889766 257.670373 
L 197.073545 238.004158 
L 197.86949 234.564887 
L 198.665434 231.92523 
L 199.461379 230.097327 
L 200.257324 229.198599 
L 201.053269 229.401522 
L 201.849213 230.788269 
L 202.645158 233.185669 
L 204.237047 238.6135 
L 205.032992 239.864704 
L 205.828937 239.041243 
L 206.624881 235.805144 
L 207.420826 230.433022 
L 209.012715 217.182774 
L 209.80866 211.897326 
L 210.604605 208.949394 
L 211.400549 208.743329 
L 212.196494 210.981032 
L 214.584328 222.144873 
L 215.380273 223.723722 
L 216.176218 223.340592 
L 216.972162 221.281961 
L 219.359996 212.618713 
L 220.155941 211.259447 
L 220.951886 211.139512 
L 221.74783 212.055861 
L 223.33972 215.417162 
L 224.135664 217.099747 
L 224.931609 218.451344 
L 225.727554 219.361766 
L 226.523498 219.785598 
L 227.319443 219.710487 
L 228.115388 219.160777 
L 228.911332 218.231399 
L 230.503222 216.128511 
L 231.299166 215.580506 
L 232.095111 215.713735 
L 232.891056 216.542633 
L 234.482945 218.895265 
L 235.27889 219.226924 
L 236.074835 218.270487 
L 236.870779 215.889365 
L 239.258613 205.764403 
L 240.054558 204.358678 
L 240.850503 204.841426 
L 241.646447 206.833043 
L 242.442392 209.312909 
L 243.238337 210.933697 
L 244.034281 210.49149 
L 244.830226 207.382676 
L 245.626171 201.871012 
L 247.21806 188.50029 
L 248.014005 183.744689 
L 248.80995 181.709526 
L 249.605894 182.374703 
L 251.197784 187.223898 
L 251.993728 188.060094 
L 252.789673 186.030991 
L 253.585618 180.797299 
L 254.381562 173.008041 
L 255.973452 155.644156 
L 256.769396 149.188742 
L 257.565341 145.494042 
L 258.361286 144.569754 
L 259.15723 145.7652 
L 261.545064 152.698123 
L 262.341009 154.199853 
L 264.728843 157.648534 
L 266.320733 160.548926 
L 267.116677 161.42191 
L 267.912622 161.280901 
L 268.708567 159.829954 
L 269.504511 157.065296 
L 271.096401 149.045784 
L 271.892345 144.968633 
L 272.68829 141.66376 
L 273.484235 139.585392 
L 274.280179 138.968445 
L 275.076124 139.801984 
L 275.872069 141.836606 
L 278.259903 149.940916 
L 279.055847 151.196501 
L 279.851792 150.861484 
L 280.647737 148.77863 
L 281.443682 145.151608 
L 283.831516 131.73819 
L 284.62746 129.222253 
L 285.423405 128.647581 
L 286.21935 129.969395 
L 287.015294 132.662433 
L 287.811239 135.84903 
L 288.607184 138.53728 
L 289.403128 139.907155 
L 290.199073 139.561427 
L 290.995018 137.661388 
L 292.586907 132.281431 
L 293.382852 130.841984 
L 294.178796 131.271465 
L 294.974741 133.686067 
L 297.362575 145.482454 
L 298.15852 147.43968 
L 298.954465 147.406437 
L 299.750409 145.739828 
L 300.546354 143.373658 
L 301.342299 141.468585 
L 302.138243 140.964014 
L 302.934188 142.201012 
L 305.322022 149.522304 
L 306.117967 149.451716 
L 306.913911 147.093335 
L 309.301745 134.428814 
L 310.09769 132.666382 
L 310.893635 133.46826 
L 311.689579 136.494021 
L 313.281469 144.950949 
L 314.077414 148.135029 
L 314.873358 149.902592 
L 315.669303 150.561193 
L 316.465248 150.898955 
L 317.261192 151.776059 
L 318.057137 153.706421 
L 320.444971 162.545971 
L 321.240916 163.909496 
L 322.03686 163.687905 
L 322.832805 162.245339 
L 323.62875 160.43201 
L 324.424694 159.235198 
L 325.220639 159.37832 
L 326.016584 161.043083 
L 328.404418 169.700867 
L 329.200363 171.541356 
L 329.996307 172.527914 
L 330.792252 173.108613 
L 331.588197 173.893893 
L 332.384141 175.342291 
L 333.180086 177.542558 
L 334.771975 182.788204 
L 335.56792 184.895444 
L 336.363865 186.407333 
L 337.159809 187.605269 
L 337.955754 189.009429 
L 338.751699 191.071561 
L 341.139533 199.246574 
L 341.935477 199.881648 
L 342.731422 198.107247 
L 343.527367 193.959202 
L 345.119256 182.756714 
L 345.915201 178.949176 
L 346.711146 178.185698 
L 347.50709 180.847598 
L 348.303035 186.250515 
L 349.894924 198.760344 
L 350.690869 202.358478 
L 351.486814 202.8176 
L 352.282758 200.32336 
L 354.670592 187.671941 
L 355.466537 186.186576 
L 356.262482 186.935593 
L 357.058426 189.314784 
L 357.854371 192.227713 
L 358.650316 194.465729 
L 359.44626 195.064585 
L 360.242205 193.532171 
L 361.03815 189.906758 
L 361.834095 184.66933 
L 364.221929 167.079887 
L 365.017873 163.039887 
L 365.813818 160.679849 
L 366.609763 160.06668 
L 367.405707 160.977867 
L 368.201652 162.927756 
L 368.997597 165.244203 
L 369.793541 167.198301 
L 370.589486 168.168912 
L 371.385431 167.80147 
L 372.181375 166.11049 
L 374.569209 158.219543 
L 375.365154 157.014122 
L 376.161099 157.377318 
L 376.957043 159.343219 
L 377.752988 162.603378 
L 380.140822 174.465162 
L 380.936767 177.392823 
L 381.732712 179.404615 
L 382.528656 180.587583 
L 383.324601 181.178302 
L 385.712435 182.095926 
L 387.304324 183.073994 
L 388.100269 183.320305 
L 388.896214 183.083344 
L 389.692158 182.19377 
L 390.488103 180.633776 
L 393.671882 172.474615 
L 394.467827 171.29606 
L 396.855661 168.951359 
L 397.651605 167.668609 
L 399.243495 164.459572 
L 400.039439 163.396351 
L 400.835384 163.354541 
L 401.631329 164.560211 
L 402.427273 166.813571 
L 403.223218 169.470219 
L 404.019163 171.595317 
L 404.815107 172.252031 
L 405.611052 170.829872 
L 406.406997 167.294911 
L 408.794831 152.416597 
L 409.590775 150.041604 
L 410.38672 150.324873 
L 411.182665 153.144757 
L 413.570499 167.218116 
L 413.570499 167.218116 
" clip-path="url(#p1311b7eafd)" style="fill: none; stroke: #e41a1c; stroke-width: 1.5; stroke-linecap: square"/>
   </g>
   <g id="line2d_12">
    <path d="M 46.64 237.138226 
L 47.435945 237.006092 
L 48.231889 235.911396 
L 49.027834 233.976353 
L 50.619723 229.600906 
L 51.415668 228.467749 
L 52.211613 228.69365 
L 53.007557 230.364935 
L 53.803502 233.192297 
L 55.395392 239.937015 
L 56.191336 242.601451 
L 56.987281 244.255097 
L 57.783226 244.843218 
L 58.57917 244.556523 
L 59.375115 243.715635 
L 64.150783 237.293304 
L 64.946728 236.358936 
L 65.742672 235.776321 
L 66.538617 235.769805 
L 67.334562 236.464391 
L 68.130506 237.804067 
L 69.722396 241.255126 
L 70.51834 242.55457 
L 71.314285 243.135002 
L 72.11023 242.923558 
L 72.906175 242.09784 
L 74.498064 240.109782 
L 75.294009 239.673719 
L 76.089953 239.804089 
L 77.681843 240.925147 
L 78.477787 241.159238 
L 79.273732 240.738668 
L 80.069677 239.580836 
L 82.457511 234.22062 
L 83.253455 233.082122 
L 84.0494 232.672446 
L 84.845345 232.941608 
L 85.641289 233.685853 
L 88.029124 236.699149 
L 88.825068 237.800726 
L 89.621013 239.108476 
L 91.212902 242.476548 
L 92.008847 244.227908 
L 92.804792 245.604414 
L 93.600736 246.277104 
L 94.396681 246.059403 
L 95.192626 244.996326 
L 97.58046 240.243237 
L 98.376404 239.530079 
L 99.172349 239.587889 
L 99.968294 240.253193 
L 101.560183 241.955339 
L 102.356128 242.277445 
L 103.152073 242.025667 
L 103.948017 241.306122 
L 105.539907 239.64084 
L 106.335851 239.326325 
L 107.131796 239.596883 
L 107.927741 240.419312 
L 110.315575 244.094625 
L 111.111519 244.949738 
L 111.907464 245.394639 
L 112.703409 245.415442 
L 113.499353 245.044477 
L 114.295298 244.329999 
L 115.091243 243.323527 
L 116.683132 240.72199 
L 118.275021 238.22937 
L 119.070966 237.512309 
L 119.866911 237.406234 
L 120.662856 238.020359 
L 121.4588 239.351984 
L 122.254745 241.280887 
L 125.438524 250.33438 
L 126.234468 251.85881 
L 127.030413 252.863947 
L 127.826358 253.352925 
L 128.622302 253.37352 
L 129.418247 253.004541 
L 130.214192 252.347985 
L 132.602026 249.881093 
L 133.39797 249.270251 
L 134.193915 248.855373 
L 136.581749 248.018775 
L 137.377694 247.453612 
L 138.173639 246.624076 
L 139.765528 244.611199 
L 140.561473 243.900209 
L 141.357417 243.746309 
L 142.153362 244.322448 
L 142.949307 245.632834 
L 145.337141 251.333233 
L 146.133085 252.519821 
L 146.92903 252.870643 
L 147.724975 252.402196 
L 150.112809 249.291779 
L 150.908753 249.041185 
L 151.704698 249.54545 
L 152.500643 250.65465 
L 153.296588 251.995058 
L 154.092532 253.089063 
L 154.888477 253.515639 
L 155.684422 253.059334 
L 156.480366 251.797424 
L 158.072256 248.500404 
L 158.8682 247.590691 
L 159.664145 247.785849 
L 160.46009 249.220769 
L 161.256034 251.697774 
L 162.847924 257.733151 
L 163.643868 260.090712 
L 164.439813 261.420052 
L 165.235758 261.609201 
L 166.031702 260.831564 
L 168.419537 256.804027 
L 169.215481 256.19736 
L 170.011426 256.265602 
L 170.807371 256.948986 
L 171.603315 258.088752 
L 173.991149 262.532237 
L 176.378983 266.739272 
L 177.970873 269.182221 
L 179.562762 271.195294 
L 180.358707 271.974401 
L 181.154651 272.564005 
L 181.950596 272.942413 
L 182.746541 273.106027 
L 183.542485 273.08378 
L 185.134375 272.811569 
L 185.93032 272.809187 
L 186.726264 273.057367 
L 187.522209 273.610608 
L 189.910043 276.201515 
L 190.705988 276.713266 
L 191.501932 276.727483 
L 192.297877 276.187569 
L 193.093822 275.169832 
L 195.481656 271.213235 
L 196.2776 270.187956 
L 197.073545 269.407195 
L 198.665434 268.327282 
L 199.461379 267.925789 
L 200.257324 267.649676 
L 201.053269 267.600868 
L 201.849213 267.888866 
L 202.645158 268.563793 
L 204.237047 270.717074 
L 205.032992 271.766695 
L 205.828937 272.472053 
L 206.624881 272.687481 
L 207.420826 272.422429 
L 209.80866 270.811724 
L 210.604605 270.793443 
L 211.400549 271.165942 
L 212.992439 272.318105 
L 213.788383 272.546087 
L 214.584328 272.264287 
L 215.380273 271.451258 
L 217.768107 267.852142 
L 218.564052 267.18605 
L 219.359996 267.067501 
L 220.155941 267.451104 
L 222.543775 269.616757 
L 223.33972 269.952711 
L 224.135664 269.901807 
L 224.931609 269.499139 
L 227.319443 267.62643 
L 228.115388 267.387258 
L 228.911332 267.586335 
L 229.707277 268.277065 
L 230.503222 269.426017 
L 232.095111 272.564362 
L 233.687001 275.580394 
L 234.482945 276.703207 
L 236.074835 278.330024 
L 236.870779 279.151019 
L 237.666724 280.195192 
L 239.258613 283.016565 
L 240.054558 284.452954 
L 240.850503 285.495661 
L 241.646447 285.829981 
L 242.442392 285.264155 
L 243.238337 283.805926 
L 244.830226 279.25777 
L 245.626171 276.971255 
L 246.422115 275.15465 
L 247.21806 273.953926 
L 248.014005 273.287179 
L 249.605894 272.431436 
L 250.401839 271.651203 
L 251.197784 270.479333 
L 252.789673 267.795622 
L 253.585618 267.03546 
L 254.381562 267.096344 
L 255.177507 268.032302 
L 257.565341 272.476809 
L 258.361286 272.674596 
L 259.15723 271.63363 
L 259.953175 269.489895 
L 261.545064 264.033225 
L 262.341009 262.077081 
L 263.136954 261.296702 
L 263.932898 261.758668 
L 264.728843 263.14745 
L 265.524788 264.884127 
L 266.320733 266.329985 
L 267.116677 266.999348 
L 267.912622 266.704315 
L 268.708567 265.581855 
L 271.096401 261.05932 
L 271.892345 260.103262 
L 273.484235 258.619467 
L 274.280179 257.562768 
L 275.076124 256.101835 
L 277.463958 251.011084 
L 278.259903 250.002294 
L 279.055847 249.544468 
L 281.443682 249.261455 
L 282.239626 248.664087 
L 284.62746 245.81791 
L 285.423405 245.45673 
L 286.21935 245.712376 
L 287.015294 246.525231 
L 291.790962 253.727367 
L 293.382852 256.481508 
L 294.178796 257.585415 
L 294.974741 258.076018 
L 295.770686 257.707016 
L 296.56663 256.461436 
L 298.15852 252.671772 
L 298.954465 251.232806 
L 299.750409 250.771287 
L 300.546354 251.476557 
L 301.342299 253.186798 
L 302.934188 257.722483 
L 303.730133 259.521591 
L 304.526077 260.63698 
L 305.322022 261.148144 
L 306.913911 261.559037 
L 309.301745 262.85243 
L 310.09769 262.5815 
L 310.893635 261.368278 
L 311.689579 259.164473 
L 313.281469 253.30757 
L 314.077414 250.948791 
L 314.873358 249.749884 
L 315.669303 249.906205 
L 316.465248 251.178523 
L 318.057137 254.515607 
L 318.853082 255.16498 
L 319.649026 254.568813 
L 320.444971 252.78935 
L 322.832805 245.325143 
L 323.62875 243.912388 
L 324.424694 243.401544 
L 325.220639 243.585573 
L 326.812528 244.503623 
L 327.608473 244.538832 
L 328.404418 244.060625 
L 329.200363 243.098378 
L 330.792252 240.309105 
L 332.384141 237.506357 
L 333.180086 236.473348 
L 333.976031 235.871951 
L 334.771975 235.836099 
L 335.56792 236.46242 
L 336.363865 237.763557 
L 337.159809 239.630458 
L 339.547643 245.939669 
L 340.343588 247.294586 
L 341.139533 248.020813 
L 341.935477 248.20411 
L 344.323311 247.71905 
L 345.119256 247.803363 
L 346.711146 248.208502 
L 347.50709 248.188442 
L 348.303035 247.836248 
L 349.09898 247.140007 
L 351.486814 244.426193 
L 352.282758 243.965414 
L 353.078703 243.938565 
L 353.874648 244.340713 
L 354.670592 245.091821 
L 356.262482 247.160829 
L 357.854371 249.288216 
L 359.44626 251.004054 
L 360.242205 251.634274 
L 361.03815 252.077562 
L 361.834095 252.304582 
L 362.630039 252.287948 
L 363.425984 252.009475 
L 364.221929 251.469104 
L 365.017873 250.69456 
L 367.405707 247.800657 
L 368.201652 247.092803 
L 368.997597 246.764117 
L 369.793541 246.921865 
L 370.589486 247.60264 
L 371.385431 248.757102 
L 372.97732 251.914398 
L 374.569209 254.955703 
L 375.365154 256.06033 
L 376.161099 256.808393 
L 376.957043 257.212601 
L 377.752988 257.316116 
L 378.548933 257.166571 
L 379.344878 256.799625 
L 380.140822 256.236406 
L 380.936767 255.49142 
L 382.528656 253.538643 
L 384.91649 249.954296 
L 386.50838 247.583474 
L 387.304324 246.58898 
L 388.100269 245.876991 
L 388.896214 245.596331 
L 389.692158 245.878641 
L 390.488103 246.78387 
L 391.284048 248.252328 
L 393.671882 253.592925 
L 394.467827 254.647079 
L 395.263771 255.026274 
L 396.059716 254.820933 
L 397.651605 253.876192 
L 398.44755 253.876553 
L 399.243495 254.521538 
L 400.039439 255.799193 
L 401.631329 259.19018 
L 402.427273 260.558991 
L 403.223218 261.336431 
L 404.019163 261.488308 
L 406.406997 260.714826 
L 407.202941 261.1486 
L 407.998886 262.204978 
L 409.590775 265.53729 
L 410.38672 267.209541 
L 411.182665 268.502009 
L 411.97861 269.267125 
L 412.774554 269.504171 
L 413.570499 269.327053 
L 413.570499 269.327053 
" clip-path="url(#p1311b7eafd)" style="fill: none; stroke: #377eb8; stroke-width: 1.5; stroke-linecap: square"/>
   </g>
   <g id="line2d_13">
    <path d="M 87.233179 318.04 
L 87.233179 71.732 
" clip-path="url(#p1311b7eafd)" style="fill: none; stroke: #000000; stroke-width: 0.5; stroke-linecap: square"/>
   </g>
   <g id="line2d_14">
    <path d="M 46.64 237.884307 
L 413.570499 237.884307 
" clip-path="url(#p1311b7eafd)" style="fill: none; stroke: #000000; stroke-width: 0.5; stroke-linecap: square"/>
   </g>
   <g id="patch_4">
    <path d="M 46.64 318.04 
L 46.64 71.732 
" style="fill: none; stroke: #000000; stroke-width: 0.8; stroke-linejoin: miter; stroke-linecap: square"/>
   </g>
   <g id="patch_5">
    <path d="M 413.570499 318.04 
L 413.570499 71.732 
" style="fill: none; stroke: #000000; stroke-width: 0.8; stroke-linejoin: miter; stroke-linecap: square"/>
   </g>
   <g id="patch_6">
    <path d="M 46.64 318.04 
L 413.570499 318.04 
" style="fill: none; stroke: #000000; stroke-width: 0.8; stroke-linejoin: miter; stroke-linecap: square"/>
   </g>
   <g id="patch_7">
    <path d="M 46.64 71.732 
L 413.570499 71.732 
" style="fill: none; stroke: #000000; stroke-width: 0.8; stroke-linejoin: miter; stroke-linecap: square"/>
   </g>
   <g id="text_13">
    <!-- Cz -->
    <g transform="translate(222.766499 65.732)scale(0.12 -0.12)">
     <defs>
      <path id="DejaVuSans-43" d="M 4122 4306 
L 4122 3641 
Q 3803 3938 3442 4084 
Q 3081 4231 2675 4231 
Q 1875 4231 1450 3742 
Q 1025 3253 1025 2328 
Q 1025 1406 1450 917 
Q 1875 428 2675 428 
Q 3081 428 3442 575 
Q 3803 722 4122 1019 
L 4122 359 
Q 3791 134 3420 21 
Q 3050 -91 2638 -91 
Q 1578 -91 968 557 
Q 359 1206 359 2328 
Q 359 3453 968 4101 
Q 1578 4750 2638 4750 
Q 3056 4750 3426 4639 
Q 3797 4528 4122 4306 
z
" transform="scale(0.015625)"/>
      <path id="DejaVuSans-7a" d="M 353 3500 
L 3084 3500 
L 3084 2975 
L 922 459 
L 3084 459 
L 3084 0 
L 275 0 
L 275 525 
L 2438 3041 
L 353 3041 
L 353 3500 
z
" transform="scale(0.015625)"/>
     </defs>
     <use xlink:href="#DejaVuSans-43"/>
     <use xlink:href="#DejaVuSans-7a" x="69.824219"/>
    </g>
   </g>
   <g id="legend_1">
    <g id="patch_8">
     <path d="M 99.877906 48.500845 
L 360.332593 48.500845 
Q 362.332593 48.500845 362.332593 46.500845 
L 362.332593 18.144595 
Q 362.332593 16.144595 360.332593 16.144595 
L 99.877906 16.144595 
Q 97.877906 16.144595 97.877906 18.144595 
L 97.877906 46.500845 
Q 97.877906 48.500845 99.877906 48.500845 
z
" style="fill: #ffffff; opacity: 0.8; stroke: #cccccc; stroke-linejoin: miter"/>
    </g>
    <g id="text_14">
     <!-- Average of Session 38 -->
     <g transform="translate(174.545874 27.743033)scale(0.1 -0.1)">
      <defs>
       <path id="DejaVuSans-41" d="M 2188 4044 
L 1331 1722 
L 3047 1722 
L 2188 4044 
z
M 1831 4666 
L 2547 4666 
L 4325 0 
L 3669 0 
L 3244 1197 
L 1141 1197 
L 716 0 
L 50 0 
L 1831 4666 
z
" transform="scale(0.015625)"/>
       <path id="DejaVuSans-76" d="M 191 3500 
L 800 3500 
L 1894 563 
L 2988 3500 
L 3597 3500 
L 2284 0 
L 1503 0 
L 191 3500 
z
" transform="scale(0.015625)"/>
       <path id="DejaVuSans-72" d="M 2631 2963 
Q 2534 3019 2420 3045 
Q 2306 3072 2169 3072 
Q 1681 3072 1420 2755 
Q 1159 2438 1159 1844 
L 1159 0 
L 581 0 
L 581 3500 
L 1159 3500 
L 1159 2956 
Q 1341 3275 1631 3429 
Q 1922 3584 2338 3584 
Q 2397 3584 2469 3576 
Q 2541 3569 2628 3553 
L 2631 2963 
z
" transform="scale(0.015625)"/>
       <path id="DejaVuSans-61" d="M 2194 1759 
Q 1497 1759 1228 1600 
Q 959 1441 959 1056 
Q 959 750 1161 570 
Q 1363 391 1709 391 
Q 2188 391 2477 730 
Q 2766 1069 2766 1631 
L 2766 1759 
L 2194 1759 
z
M 3341 1997 
L 3341 0 
L 2766 0 
L 2766 531 
Q 2569 213 2275 61 
Q 1981 -91 1556 -91 
Q 1019 -91 701 211 
Q 384 513 384 1019 
Q 384 1609 779 1909 
Q 1175 2209 1959 2209 
L 2766 2209 
L 2766 2266 
Q 2766 2663 2505 2880 
Q 2244 3097 1772 3097 
Q 1472 3097 1187 3025 
Q 903 2953 641 2809 
L 641 3341 
Q 956 3463 1253 3523 
Q 1550 3584 1831 3584 
Q 2591 3584 2966 3190 
Q 3341 2797 3341 1997 
z
" transform="scale(0.015625)"/>
       <path id="DejaVuSans-67" d="M 2906 1791 
Q 2906 2416 2648 2759 
Q 2391 3103 1925 3103 
Q 1463 3103 1205 2759 
Q 947 2416 947 1791 
Q 947 1169 1205 825 
Q 1463 481 1925 481 
Q 2391 481 2648 825 
Q 2906 1169 2906 1791 
z
M 3481 434 
Q 3481 -459 3084 -895 
Q 2688 -1331 1869 -1331 
Q 1566 -1331 1297 -1286 
Q 1028 -1241 775 -1147 
L 775 -588 
Q 1028 -725 1275 -790 
Q 1522 -856 1778 -856 
Q 2344 -856 2625 -561 
Q 2906 -266 2906 331 
L 2906 616 
Q 2728 306 2450 153 
Q 2172 0 1784 0 
Q 1141 0 747 490 
Q 353 981 353 1791 
Q 353 2603 747 3093 
Q 1141 3584 1784 3584 
Q 2172 3584 2450 3431 
Q 2728 3278 2906 2969 
L 2906 3500 
L 3481 3500 
L 3481 434 
z
" transform="scale(0.015625)"/>
       <path id="DejaVuSans-20" transform="scale(0.015625)"/>
       <path id="DejaVuSans-66" d="M 2375 4863 
L 2375 4384 
L 1825 4384 
Q 1516 4384 1395 4259 
Q 1275 4134 1275 3809 
L 1275 3500 
L 2222 3500 
L 2222 3053 
L 1275 3053 
L 1275 0 
L 697 0 
L 697 3053 
L 147 3053 
L 147 3500 
L 697 3500 
L 697 3744 
Q 697 4328 969 4595 
Q 1241 4863 1831 4863 
L 2375 4863 
z
" transform="scale(0.015625)"/>
       <path id="DejaVuSans-53" d="M 3425 4513 
L 3425 3897 
Q 3066 4069 2747 4153 
Q 2428 4238 2131 4238 
Q 1616 4238 1336 4038 
Q 1056 3838 1056 3469 
Q 1056 3159 1242 3001 
Q 1428 2844 1947 2747 
L 2328 2669 
Q 3034 2534 3370 2195 
Q 3706 1856 3706 1288 
Q 3706 609 3251 259 
Q 2797 -91 1919 -91 
Q 1588 -91 1214 -16 
Q 841 59 441 206 
L 441 856 
Q 825 641 1194 531 
Q 1563 422 1919 422 
Q 2459 422 2753 634 
Q 3047 847 3047 1241 
Q 3047 1584 2836 1778 
Q 2625 1972 2144 2069 
L 1759 2144 
Q 1053 2284 737 2584 
Q 422 2884 422 3419 
Q 422 4038 858 4394 
Q 1294 4750 2059 4750 
Q 2388 4750 2728 4690 
Q 3069 4631 3425 4513 
z
" transform="scale(0.015625)"/>
       <path id="DejaVuSans-69" d="M 603 3500 
L 1178 3500 
L 1178 0 
L 603 0 
L 603 3500 
z
M 603 4863 
L 1178 4863 
L 1178 4134 
L 603 4134 
L 603 4863 
z
" transform="scale(0.015625)"/>
      </defs>
      <use xlink:href="#DejaVuSans-41"/>
      <use xlink:href="#DejaVuSans-76" x="62.533203"/>
      <use xlink:href="#DejaVuSans-65" x="121.712891"/>
      <use xlink:href="#DejaVuSans-72" x="183.236328"/>
      <use xlink:href="#DejaVuSans-61" x="224.349609"/>
      <use xlink:href="#DejaVuSans-67" x="285.628906"/>
      <use xlink:href="#DejaVuSans-65" x="349.105469"/>
      <use xlink:href="#DejaVuSans-20" x="410.628906"/>
      <use xlink:href="#DejaVuSans-6f" x="442.416016"/>
      <use xlink:href="#DejaVuSans-66" x="503.597656"/>
      <use xlink:href="#DejaVuSans-20" x="538.802734"/>
      <use xlink:href="#DejaVuSans-53" x="570.589844"/>
      <use xlink:href="#DejaVuSans-65" x="634.066406"/>
      <use xlink:href="#DejaVuSans-73" x="695.589844"/>
      <use xlink:href="#DejaVuSans-73" x="747.689453"/>
      <use xlink:href="#DejaVuSans-69" x="799.789062"/>
      <use xlink:href="#DejaVuSans-6f" x="827.572266"/>
      <use xlink:href="#DejaVuSans-6e" x="888.753906"/>
      <use xlink:href="#DejaVuSans-20" x="952.132812"/>
      <use xlink:href="#DejaVuSans-33" x="983.919922"/>
      <use xlink:href="#DejaVuSans-38" x="1047.542969"/>
     </g>
    </g>
    <g id="line2d_15">
     <path d="M 101.877906 38.921158 
L 111.877906 38.921158 
L 121.877906 38.921158 
" style="fill: none; stroke: #e41a1c; stroke-width: 1.5; stroke-linecap: square"/>
    </g>
    <g id="text_15">
     <!-- Target (n=313) -->
     <g transform="translate(129.877906 42.421158)scale(0.1 -0.1)">
      <defs>
       <path id="DejaVuSans-54" d="M -19 4666 
L 3928 4666 
L 3928 4134 
L 2272 4134 
L 2272 0 
L 1638 0 
L 1638 4134 
L -19 4134 
L -19 4666 
z
" transform="scale(0.015625)"/>
       <path id="DejaVuSans-74" d="M 1172 4494 
L 1172 3500 
L 2356 3500 
L 2356 3053 
L 1172 3053 
L 1172 1153 
Q 1172 725 1289 603 
Q 1406 481 1766 481 
L 2356 481 
L 2356 0 
L 1766 0 
Q 1100 0 847 248 
Q 594 497 594 1153 
L 594 3053 
L 172 3053 
L 172 3500 
L 594 3500 
L 594 4494 
L 1172 4494 
z
" transform="scale(0.015625)"/>
       <path id="DejaVuSans-28" d="M 1984 4856 
Q 1566 4138 1362 3434 
Q 1159 2731 1159 2009 
Q 1159 1288 1364 580 
Q 1569 -128 1984 -844 
L 1484 -844 
Q 1016 -109 783 600 
Q 550 1309 550 2009 
Q 550 2706 781 3412 
Q 1013 4119 1484 4856 
L 1984 4856 
z
" transform="scale(0.015625)"/>
       <path id="DejaVuSans-3d" d="M 678 2906 
L 4684 2906 
L 4684 2381 
L 678 2381 
L 678 2906 
z
M 678 1631 
L 4684 1631 
L 4684 1100 
L 678 1100 
L 678 1631 
z
" transform="scale(0.015625)"/>
       <path id="DejaVuSans-29" d="M 513 4856 
L 1013 4856 
Q 1481 4119 1714 3412 
Q 1947 2706 1947 2009 
Q 1947 1309 1714 600 
Q 1481 -109 1013 -844 
L 513 -844 
Q 928 -128 1133 580 
Q 1338 1288 1338 2009 
Q 1338 2731 1133 3434 
Q 928 4138 513 4856 
z
" transform="scale(0.015625)"/>
      </defs>
      <use xlink:href="#DejaVuSans-54"/>
      <use xlink:href="#DejaVuSans-61" x="44.583984"/>
      <use xlink:href="#DejaVuSans-72" x="105.863281"/>
      <use xlink:href="#DejaVuSans-67" x="145.226562"/>
      <use xlink:href="#DejaVuSans-65" x="208.703125"/>
      <use xlink:href="#DejaVuSans-74" x="270.226562"/>
      <use xlink:href="#DejaVuSans-20" x="309.435547"/>
      <use xlink:href="#DejaVuSans-28" x="341.222656"/>
      <use xlink:href="#DejaVuSans-6e" x="380.236328"/>
      <use xlink:href="#DejaVuSans-3d" x="443.615234"/>
      <use xlink:href="#DejaVuSans-33" x="527.404297"/>
      <use xlink:href="#DejaVuSans-31" x="591.027344"/>
      <use xlink:href="#DejaVuSans-33" x="654.650391"/>
      <use xlink:href="#DejaVuSans-29" x="718.273438"/>
     </g>
    </g>
    <g id="line2d_16">
     <path d="M 225.607593 38.921158 
L 235.607593 38.921158 
L 245.607593 38.921158 
" style="fill: none; stroke: #377eb8; stroke-width: 1.5; stroke-linecap: square"/>
    </g>
    <g id="text_16">
     <!-- Non-Target (n=1549) -->
     <g transform="translate(253.607593 42.421158)scale(0.1 -0.1)">
      <defs>
       <path id="DejaVuSans-4e" d="M 628 4666 
L 1478 4666 
L 3547 763 
L 3547 4666 
L 4159 4666 
L 4159 0 
L 3309 0 
L 1241 3903 
L 1241 0 
L 628 0 
L 628 4666 
z
" transform="scale(0.015625)"/>
       <path id="DejaVuSans-2d" d="M 313 2009 
L 1997 2009 
L 1997 1497 
L 313 1497 
L 313 2009 
z
" transform="scale(0.015625)"/>
       <path id="DejaVuSans-35" d="M 691 4666 
L 3169 4666 
L 3169 4134 
L 1269 4134 
L 1269 2991 
Q 1406 3038 1543 3061 
Q 1681 3084 1819 3084 
Q 2600 3084 3056 2656 
Q 3513 2228 3513 1497 
Q 3513 744 3044 326 
Q 2575 -91 1722 -91 
Q 1428 -91 1123 -41 
Q 819 9 494 109 
L 494 744 
Q 775 591 1075 516 
Q 1375 441 1709 441 
Q 2250 441 2565 725 
Q 2881 1009 2881 1497 
Q 2881 1984 2565 2268 
Q 2250 2553 1709 2553 
Q 1456 2553 1204 2497 
Q 953 2441 691 2322 
L 691 4666 
z
" transform="scale(0.015625)"/>
       <path id="DejaVuSans-39" d="M 703 97 
L 703 672 
Q 941 559 1184 500 
Q 1428 441 1663 441 
Q 2288 441 2617 861 
Q 2947 1281 2994 2138 
Q 2813 1869 2534 1725 
Q 2256 1581 1919 1581 
Q 1219 1581 811 2004 
Q 403 2428 403 3163 
Q 403 3881 828 4315 
Q 1253 4750 1959 4750 
Q 2769 4750 3195 4129 
Q 3622 3509 3622 2328 
Q 3622 1225 3098 567 
Q 2575 -91 1691 -91 
Q 1453 -91 1209 -44 
Q 966 3 703 97 
z
M 1959 2075 
Q 2384 2075 2632 2365 
Q 2881 2656 2881 3163 
Q 2881 3666 2632 3958 
Q 2384 4250 1959 4250 
Q 1534 4250 1286 3958 
Q 1038 3666 1038 3163 
Q 1038 2656 1286 2365 
Q 1534 2075 1959 2075 
z
" transform="scale(0.015625)"/>
      </defs>
      <use xlink:href="#DejaVuSans-4e"/>
      <use xlink:href="#DejaVuSans-6f" x="74.804688"/>
      <use xlink:href="#DejaVuSans-6e" x="135.986328"/>
      <use xlink:href="#DejaVuSans-2d" x="199.365234"/>
      <use xlink:href="#DejaVuSans-54" x="226.324219"/>
      <use xlink:href="#DejaVuSans-61" x="270.908203"/>
      <use xlink:href="#DejaVuSans-72" x="332.1875"/>
      <use xlink:href="#DejaVuSans-67" x="371.550781"/>
      <use xlink:href="#DejaVuSans-65" x="435.027344"/>
      <use xlink:href="#DejaVuSans-74" x="496.550781"/>
      <use xlink:href="#DejaVuSans-20" x="535.759766"/>
      <use xlink:href="#DejaVuSans-28" x="567.546875"/>
      <use xlink:href="#DejaVuSans-6e" x="606.560547"/>
      <use xlink:href="#DejaVuSans-3d" x="669.939453"/>
      <use xlink:href="#DejaVuSans-31" x="753.728516"/>
      <use xlink:href="#DejaVuSans-35" x="817.351562"/>
      <use xlink:href="#DejaVuSans-34" x="880.974609"/>
      <use xlink:href="#DejaVuSans-39" x="944.597656"/>
      <use xlink:href="#DejaVuSans-29" x="1008.220703"/>
     </g>
    </g>
   </g>
  </g>
 </g>
 <defs>
  <clipPath id="p1311b7eafd">
   <rect x="46.64" y="71.732" width="366.930499" height="246.308"/>
  </clipPath>
 </defs>
</svg>
