<?xml version="1.0" encoding="utf-8" standalone="no"?>
<!DOCTYPE svg PUBLIC "-//W3C//DTD SVG 1.1//EN"
  "http://www.w3.org/Graphics/SVG/1.1/DTD/svg11.dtd">
<svg xmlns:xlink="http://www.w3.org/1999/xlink" width="432pt" height="360pt" viewBox="0 0 432 360" xmlns="http://www.w3.org/2000/svg" version="1.1">
 <metadata>
  <rdf:RDF xmlns:dc="http://purl.org/dc/elements/1.1/" xmlns:cc="http://creativecommons.org/ns#" xmlns:rdf="http://www.w3.org/1999/02/22-rdf-syntax-ns#">
   <cc:Work>
    <dc:type rdf:resource="http://purl.org/dc/dcmitype/StillImage"/>
    <dc:date>2022-05-19T11:51:49.894723</dc:date>
    <dc:format>image/svg+xml</dc:format>
    <dc:creator>
     <cc:Agent>
      <dc:title>Matplotlib v3.5.1, https://matplotlib.org/</dc:title>
     </cc:Agent>
    </dc:creator>
   </cc:Work>
  </rdf:RDF>
 </metadata>
 <defs>
  <style type="text/css">*{stroke-linejoin: round; stroke-linecap: butt}</style>
 </defs>
 <g id="figure_1">
  <g id="patch_1">
   <path d="M 0 360 
L 432 360 
L 432 0 
L 0 0 
L 0 360 
z
" style="fill: none"/>
  </g>
  <g id="axes_1">
   <g id="patch_2">
    <path d="M 46.64 318.04 
L 413.570499 318.04 
L 413.570499 71.732 
L 46.64 71.732 
L 46.64 318.04 
z
" style="fill: none"/>
   </g>
   <g id="PolyCollection_1">
    <defs>
     <path id="m9c365f0aa9" d="M 46.64 -131.72649 
L 46.64 -88.224214 
L 47.435945 -85.949048 
L 48.231889 -83.533345 
L 49.027834 -81.958557 
L 49.823779 -81.928143 
L 50.619723 -83.500834 
L 51.415668 -86.01936 
L 52.211613 -88.425075 
L 53.007557 -89.80578 
L 53.803502 -89.830052 
L 54.599447 -88.803951 
L 55.395392 -87.425433 
L 56.191336 -86.48355 
L 56.987281 -86.630022 
L 57.783226 -88.193385 
L 58.57917 -91.01472 
L 59.375115 -94.41513 
L 60.17106 -97.400288 
L 60.967004 -99.047561 
L 61.762949 -98.895804 
L 62.558894 -97.13077 
L 63.354838 -94.450355 
L 64.150783 -91.69146 
L 64.946728 -89.431898 
L 65.742672 -87.76108 
L 66.538617 -86.337099 
L 67.334562 -84.728028 
L 68.130506 -82.810496 
L 68.926451 -80.881957 
L 69.722396 -79.434157 
L 70.51834 -78.85174 
L 71.314285 -79.260344 
L 72.11023 -80.549165 
L 72.906175 -82.418446 
L 73.702119 -84.345942 
L 74.498064 -85.60395 
L 75.294009 -85.516228 
L 76.089953 -83.918925 
L 76.885898 -81.437045 
L 77.681843 -79.195488 
L 78.477787 -78.177508 
L 79.273732 -78.734958 
L 80.069677 -80.520621 
L 80.865621 -82.820807 
L 81.661566 -84.973218 
L 82.457511 -86.541489 
L 83.253455 -87.311628 
L 84.0494 -87.314182 
L 84.845345 -86.866784 
L 85.641289 -86.513999 
L 86.437234 -86.805079 
L 87.233179 -88.014819 
L 88.029124 -90.00308 
L 88.825068 -92.302699 
L 89.621013 -94.353666 
L 90.416958 -95.735991 
L 91.212902 -96.305159 
L 92.008847 -96.214164 
L 92.804792 -95.847385 
L 93.600736 -95.680816 
L 94.396681 -96.075752 
L 95.192626 -97.076919 
L 95.98857 -98.345402 
L 96.784515 -99.292844 
L 97.58046 -99.351907 
L 98.376404 -98.241225 
L 99.172349 -96.096871 
L 99.968294 -93.41585 
L 100.764238 -90.843347 
L 101.560183 -88.899 
L 102.356128 -87.761418 
L 103.152073 -87.205868 
L 103.948017 -86.719358 
L 104.743962 -85.732735 
L 105.539907 -83.862229 
L 106.335851 -81.066488 
L 107.131796 -77.673255 
L 107.927741 -74.270201 
L 108.723685 -71.480661 
L 109.51963 -69.690044 
L 110.315575 -68.845799 
L 111.111519 -68.448994 
L 111.907464 -67.761553 
L 112.703409 -66.140773 
L 113.499353 -63.355571 
L 114.295298 -59.749986 
L 115.091243 -56.174683 
L 115.887187 -53.691138 
L 116.683132 -53.155818 
L 117.479077 -54.864394 
L 118.275021 -58.415228 
L 119.070966 -62.842719 
L 119.866911 -66.950813 
L 120.662856 -69.712478 
L 121.4588 -70.599785 
L 122.254745 -69.740275 
L 123.05069 -67.843133 
L 123.846634 -65.914007 
L 124.642579 -64.869166 
L 125.438524 -65.211217 
L 126.234468 -66.89138 
L 127.030413 -69.384819 
L 127.826358 -71.920049 
L 128.622302 -73.768095 
L 129.418247 -74.492947 
L 130.214192 -74.074683 
L 131.010136 -72.857216 
L 131.806081 -71.353165 
L 132.602026 -70.017219 
L 133.39797 -69.112773 
L 134.193915 -68.724077 
L 134.98986 -68.85882 
L 135.785805 -69.53585 
L 136.581749 -70.797717 
L 137.377694 -72.658794 
L 138.173639 -75.029529 
L 138.969583 -77.661033 
L 139.765528 -80.152881 
L 140.561473 -82.045146 
L 141.357417 -82.968684 
L 142.153362 -82.789448 
L 142.949307 -81.687693 
L 143.745251 -80.149081 
L 144.541196 -78.868624 
L 145.337141 -78.570158 
L 146.133085 -79.761097 
L 146.92903 -82.498858 
L 147.724975 -86.294693 
L 148.520919 -90.254554 
L 149.316864 -93.44703 
L 150.112809 -95.339729 
L 150.908753 -96.053002 
L 151.704698 -96.271212 
L 152.500643 -96.886817 
L 153.296588 -98.603686 
L 154.092532 -101.690356 
L 154.888477 -105.931123 
L 155.684422 -110.702132 
L 156.480366 -115.109944 
L 157.276311 -118.210844 
L 158.072256 -119.317451 
L 158.8682 -118.293261 
L 159.664145 -115.662023 
L 160.46009 -112.418313 
L 161.256034 -109.61471 
L 162.051979 -107.958698 
L 162.847924 -107.625361 
L 163.643868 -108.321647 
L 164.439813 -109.484428 
L 165.235758 -110.478768 
L 166.031702 -110.750542 
L 166.827647 -109.94515 
L 167.623592 -107.991972 
L 168.419537 -105.124789 
L 169.215481 -101.800564 
L 170.011426 -98.52073 
L 170.807371 -95.637711 
L 171.603315 -93.2589 
L 172.39926 -91.291968 
L 173.195205 -89.572093 
L 173.991149 -87.970113 
L 174.787094 -86.432771 
L 175.583039 -84.982108 
L 176.378983 -83.711996 
L 177.174928 -82.775988 
L 177.970873 -82.341291 
L 178.766817 -82.518484 
L 179.562762 -83.315711 
L 180.358707 -84.657779 
L 181.154651 -86.454611 
L 181.950596 -88.64774 
L 182.746541 -91.179694 
L 183.542485 -93.921972 
L 184.33843 -96.649309 
L 185.134375 -99.099565 
L 185.93032 -101.085159 
L 186.726264 -102.593886 
L 187.522209 -103.827185 
L 188.318154 -105.145287 
L 189.114098 -106.920822 
L 189.910043 -109.352583 
L 190.705988 -112.332109 
L 191.501932 -115.443833 
L 192.297877 -118.11127 
L 193.093822 -119.821095 
L 193.889766 -120.320297 
L 194.685711 -119.712313 
L 195.481656 -118.440614 
L 196.2776 -117.185198 
L 197.073545 -116.693159 
L 197.86949 -117.55959 
L 198.665434 -120.012562 
L 199.461379 -123.805953 
L 200.257324 -128.303148 
L 201.053269 -132.723525 
L 201.849213 -136.412499 
L 202.645158 -138.999585 
L 203.441103 -140.421127 
L 204.237047 -140.867683 
L 205.032992 -140.695644 
L 205.828937 -140.297888 
L 206.624881 -139.953035 
L 207.420826 -139.734005 
L 208.216771 -139.546964 
L 209.012715 -139.273894 
L 209.80866 -138.905204 
L 210.604605 -138.568542 
L 211.400549 -138.465228 
L 212.196494 -138.794512 
L 212.992439 -139.704397 
L 213.788383 -141.230392 
L 214.584328 -143.200157 
L 215.380273 -145.174138 
L 216.176218 -146.513898 
L 216.972162 -146.586893 
L 217.768107 -145.018268 
L 218.564052 -141.856656 
L 219.359996 -137.562478 
L 220.155941 -132.837839 
L 220.951886 -128.405584 
L 221.74783 -124.837977 
L 222.543775 -122.469577 
L 223.33972 -121.381925 
L 224.135664 -121.443144 
L 224.931609 -122.393161 
L 225.727554 -123.95062 
L 226.523498 -125.889031 
L 227.319443 -128.038288 
L 228.115388 -130.231967 
L 228.911332 -132.274834 
L 229.707277 -133.981572 
L 230.503222 -135.263316 
L 231.299166 -136.194616 
L 232.095111 -137.019934 
L 232.891056 -138.111296 
L 233.687001 -139.894183 
L 234.482945 -142.724597 
L 235.27889 -146.716575 
L 236.074835 -151.600613 
L 236.870779 -156.727884 
L 237.666724 -161.25983 
L 238.462669 -164.462436 
L 239.258613 -165.957724 
L 240.054558 -165.821708 
L 240.850503 -164.519138 
L 241.646447 -162.73755 
L 242.442392 -161.185511 
L 243.238337 -160.39437 
L 244.034281 -160.559784 
L 244.830226 -161.474651 
L 245.626171 -162.596344 
L 246.422115 -163.241137 
L 247.21806 -162.839413 
L 248.014005 -161.153967 
L 248.80995 -158.373842 
L 249.605894 -155.046881 
L 250.401839 -151.888414 
L 251.197784 -149.558268 
L 251.993728 -148.493369 
L 252.789673 -148.829556 
L 253.585618 -150.401748 
L 254.381562 -152.813976 
L 255.177507 -155.587337 
L 255.973452 -158.365695 
L 256.769396 -161.080305 
L 257.565341 -163.937732 
L 258.361286 -167.207953 
L 259.15723 -170.968115 
L 259.953175 -174.99207 
L 260.74912 -178.839096 
L 261.545064 -182.045724 
L 262.341009 -184.295391 
L 263.136954 -185.517057 
L 263.932898 -185.92309 
L 264.728843 -185.980669 
L 265.524788 -186.283494 
L 266.320733 -187.325866 
L 267.116677 -189.264445 
L 267.912622 -191.796262 
L 268.708567 -194.233037 
L 269.504511 -195.751758 
L 270.300456 -195.717417 
L 271.096401 -193.940725 
L 271.892345 -190.759559 
L 272.68829 -186.910989 
L 273.484235 -183.257786 
L 274.280179 -180.494325 
L 275.076124 -178.948105 
L 275.872069 -178.532543 
L 276.668013 -178.841152 
L 277.463958 -179.334198 
L 278.259903 -179.553722 
L 279.055847 -179.294888 
L 279.851792 -178.66243 
L 280.647737 -177.974261 
L 281.443682 -177.549604 
L 282.239626 -177.495423 
L 283.035571 -177.618115 
L 283.831516 -177.519219 
L 284.62746 -176.827613 
L 285.423405 -175.441501 
L 286.21935 -173.650025 
L 287.015294 -172.075244 
L 287.811239 -171.465768 
L 288.607184 -172.426522 
L 289.403128 -175.173551 
L 290.199073 -179.387322 
L 290.995018 -184.225659 
L 291.790962 -188.53114 
L 292.586907 -191.19748 
L 293.382852 -191.562642 
L 294.178796 -189.650907 
L 294.974741 -186.155041 
L 295.770686 -182.190344 
L 296.56663 -178.946105 
L 297.362575 -177.352331 
L 298.15852 -177.82967 
L 298.954465 -180.173556 
L 299.750409 -183.628132 
L 300.546354 -187.162174 
L 301.342299 -189.852209 
L 302.138243 -191.185687 
L 302.934188 -191.129828 
L 303.730133 -189.973423 
L 304.526077 -188.087815 
L 305.322022 -185.75118 
L 306.117967 -183.087452 
L 306.913911 -180.094657 
L 307.709856 -176.720338 
L 308.505801 -172.953313 
L 309.301745 -168.899131 
L 310.09769 -164.799251 
L 310.893635 -160.974133 
L 311.689579 -157.715128 
L 312.485524 -155.182329 
L 313.281469 -153.359928 
L 314.077414 -152.087177 
L 314.873358 -151.147121 
L 315.669303 -150.37107 
L 316.465248 -149.708923 
L 317.261192 -149.229595 
L 318.057137 -149.050281 
L 318.853082 -149.229369 
L 319.649026 -149.672867 
L 320.444971 -150.09594 
L 321.240916 -150.065287 
L 322.03686 -149.128593 
L 322.832805 -147.002166 
L 323.62875 -143.741175 
L 324.424694 -139.796831 
L 325.220639 -135.907944 
L 326.016584 -132.863207 
L 326.812528 -131.238648 
L 327.608473 -131.213947 
L 328.404418 -132.520433 
L 329.200363 -134.525491 
L 329.996307 -136.432201 
L 330.792252 -137.547228 
L 331.588197 -137.536681 
L 332.384141 -136.573501 
L 333.180086 -135.303729 
L 333.976031 -134.62024 
L 334.771975 -135.31158 
L 335.56792 -137.718366 
L 336.363865 -141.542446 
L 337.159809 -145.900047 
L 337.955754 -149.612064 
L 338.751699 -151.621783 
L 339.547643 -151.367417 
L 340.343588 -148.954028 
L 341.139533 -145.068251 
L 341.935477 -140.702399 
L 342.731422 -136.826632 
L 343.527367 -134.134569 
L 344.323311 -132.914978 
L 345.119256 -133.037196 
L 345.915201 -134.027322 
L 346.711146 -135.227209 
L 347.50709 -136.015887 
L 348.303035 -136.030399 
L 349.09898 -135.287255 
L 349.894924 -134.126983 
L 350.690869 -133.005969 
L 351.486814 -132.265788 
L 352.282758 -132.007451 
L 353.078703 -132.100694 
L 353.874648 -132.279332 
L 354.670592 -132.265158 
L 355.466537 -131.883662 
L 356.262482 -131.134128 
L 357.058426 -130.165485 
L 357.854371 -129.145947 
L 358.650316 -128.103927 
L 359.44626 -126.863499 
L 360.242205 -125.125706 
L 361.03815 -122.628171 
L 361.834095 -119.277866 
L 362.630039 -115.214192 
L 363.425984 -110.819703 
L 364.221929 -106.682205 
L 365.017873 -103.472964 
L 365.813818 -101.736363 
L 366.609763 -101.68167 
L 367.405707 -103.105179 
L 368.201652 -105.487477 
L 368.997597 -108.194575 
L 369.793541 -110.675733 
L 370.589486 -112.597294 
L 371.385431 -113.898426 
L 372.181375 -114.759775 
L 372.97732 -115.484279 
L 373.773265 -116.338145 
L 374.569209 -117.442816 
L 375.365154 -118.777359 
L 376.161099 -120.262069 
L 376.957043 -121.840202 
L 377.752988 -123.506703 
L 378.548933 -125.295692 
L 379.344878 -127.251584 
L 380.140822 -129.379509 
L 380.936767 -131.571589 
L 381.732712 -133.556119 
L 382.528656 -134.943051 
L 383.324601 -135.379482 
L 384.120546 -134.729113 
L 384.91649 -133.155301 
L 385.712435 -131.060901 
L 386.50838 -128.942287 
L 387.304324 -127.246305 
L 388.100269 -126.271833 
L 388.896214 -126.110882 
L 389.692158 -126.632566 
L 390.488103 -127.53986 
L 391.284048 -128.504003 
L 392.079992 -129.311865 
L 392.875937 -129.928292 
L 393.671882 -130.43064 
L 394.467827 -130.872305 
L 395.263771 -131.178872 
L 396.059716 -131.136996 
L 396.855661 -130.462375 
L 397.651605 -128.906324 
L 398.44755 -126.377786 
L 399.243495 -123.056614 
L 400.039439 -119.440216 
L 400.835384 -116.255811 
L 401.631329 -114.229931 
L 402.427273 -113.805447 
L 403.223218 -114.949462 
L 404.019163 -117.150468 
L 404.815107 -119.597286 
L 405.611052 -121.452915 
L 406.406997 -122.126274 
L 407.202941 -121.468327 
L 407.998886 -119.834937 
L 408.794831 -117.978745 
L 409.590775 -116.785045 
L 410.38672 -116.942488 
L 411.182665 -118.686606 
L 411.97861 -121.727222 
L 412.774554 -125.382883 
L 413.570499 -128.85593 
L 413.570499 -230.564048 
L 413.570499 -230.564048 
L 412.774554 -226.008509 
L 411.97861 -221.44514 
L 411.182665 -217.828342 
L 410.38672 -215.899228 
L 409.590775 -215.904547 
L 408.794831 -217.492698 
L 407.998886 -219.82055 
L 407.202941 -221.832857 
L 406.406997 -222.626128 
L 405.611052 -221.774773 
L 404.815107 -219.491321 
L 404.019163 -216.542156 
L 403.223218 -213.945634 
L 402.427273 -212.588291 
L 401.631329 -212.930025 
L 400.835384 -214.901563 
L 400.039439 -217.988503 
L 399.243495 -221.432107 
L 398.44755 -224.474091 
L 397.651605 -226.58408 
L 396.855661 -227.602528 
L 396.059716 -227.735949 
L 395.263771 -227.397113 
L 394.467827 -226.974225 
L 393.671882 -226.663232 
L 392.875937 -226.447763 
L 392.079992 -226.200525 
L 391.284048 -225.813288 
L 390.488103 -225.285706 
L 389.692158 -224.759018 
L 388.896214 -224.498046 
L 388.100269 -224.809941 
L 387.304324 -225.901942 
L 386.50838 -227.738305 
L 385.712435 -229.994704 
L 384.91649 -232.160818 
L 384.120546 -233.734136 
L 383.324601 -234.385248 
L 382.528656 -234.01738 
L 381.732712 -232.736526 
L 380.936767 -230.791648 
L 380.140822 -228.508887 
L 379.344878 -226.205568 
L 378.548933 -224.093511 
L 377.752988 -222.228532 
L 376.957043 -220.553664 
L 376.161099 -219.005408 
L 375.365154 -217.589723 
L 374.569209 -216.36614 
L 373.773265 -215.368953 
L 372.97732 -214.540893 
L 372.181375 -213.719916 
L 371.385431 -212.669403 
L 370.589486 -211.139262 
L 369.793541 -208.963665 
L 368.997597 -206.179909 
L 368.201652 -203.102032 
L 367.405707 -200.278745 
L 366.609763 -198.337536 
L 365.813818 -197.793357 
L 365.017873 -198.901391 
L 364.221929 -201.579141 
L 363.425984 -205.397962 
L 362.630039 -209.669053 
L 361.834095 -213.646271 
L 361.03815 -216.784639 
L 360.242205 -218.913389 
L 359.44626 -220.221448 
L 358.650316 -221.086624 
L 357.854371 -221.87487 
L 357.058426 -222.810016 
L 356.262482 -223.925094 
L 355.466537 -225.069378 
L 354.670592 -225.974775 
L 353.874648 -226.39019 
L 353.078703 -226.230698 
L 352.282758 -225.642534 
L 351.486814 -224.934063 
L 350.690869 -224.421842 
L 349.894924 -224.289875 
L 349.09898 -224.525802 
L 348.303035 -224.937402 
L 347.50709 -225.235895 
L 346.711146 -225.185233 
L 345.915201 -224.784476 
L 345.119256 -224.379449 
L 344.323311 -224.593984 
L 343.527367 -226.067919 
L 342.731422 -229.115392 
L 341.935477 -233.484795 
L 341.139533 -238.359719 
L 340.343588 -242.607368 
L 339.547643 -245.153865 
L 338.751699 -245.326873 
L 337.955754 -243.0512 
L 337.159809 -238.858564 
L 336.363865 -233.73075 
L 335.56792 -228.824836 
L 334.771975 -225.149529 
L 333.976031 -223.281511 
L 333.180086 -223.211692 
L 332.384141 -224.379356 
L 331.588197 -225.894353 
L 330.792252 -226.879378 
L 329.996307 -226.809191 
L 329.200363 -225.712427 
L 328.404418 -224.150826 
L 327.608473 -222.981628 
L 326.812528 -223.001947 
L 326.016584 -224.628695 
L 325.220639 -227.75087 
L 324.424694 -231.801319 
L 323.62875 -235.987094 
L 322.832805 -239.562728 
L 322.03686 -242.047359 
L 321.240916 -243.332899 
L 320.444971 -243.665333 
L 319.649026 -243.508634 
L 318.853082 -243.339746 
L 318.057137 -243.461225 
L 317.261192 -243.91803 
L 316.465248 -244.551183 
L 315.669303 -245.145963 
L 314.873358 -245.588419 
L 314.077414 -245.952261 
L 313.281469 -246.481161 
L 312.485524 -247.481763 
L 311.689579 -249.181969 
L 310.893635 -251.623887 
L 310.09769 -254.641926 
L 309.301745 -257.931618 
L 308.505801 -261.171119 
L 307.709856 -264.138321 
L 306.913911 -266.771634 
L 306.117967 -269.141906 
L 305.322022 -271.339162 
L 304.526077 -273.331801 
L 303.730133 -274.893987 
L 302.934188 -275.668783 
L 302.138243 -275.342009 
L 301.342299 -273.821421 
L 300.546354 -271.32212 
L 299.750409 -268.342175 
L 298.954465 -265.574791 
L 298.15852 -263.776087 
L 297.362575 -263.56561 
L 296.56663 -265.181405 
L 295.770686 -268.301637 
L 294.974741 -272.066029 
L 294.178796 -275.33414 
L 293.382852 -277.072182 
L 292.586907 -276.690254 
L 291.790962 -274.205185 
L 290.995018 -270.207792 
L 290.199073 -265.673434 
L 289.403128 -261.666061 
L 288.607184 -259.007759 
L 287.811239 -258.026163 
L 287.015294 -258.492193 
L 286.21935 -259.78103 
L 285.423405 -261.171724 
L 284.62746 -262.133363 
L 283.831516 -262.473807 
L 283.035571 -262.318005 
L 282.239626 -261.967822 
L 281.443682 -261.727548 
L 280.647737 -261.764575 
L 279.851792 -262.045996 
L 279.055847 -262.366946 
L 278.259903 -262.463485 
L 277.463958 -262.173613 
L 276.668013 -261.575106 
L 275.872069 -261.015194 
L 275.076124 -260.989245 
L 274.280179 -261.912992 
L 273.484235 -263.904932 
L 272.68829 -266.695542 
L 271.892345 -269.706934 
L 271.096401 -272.25653 
L 270.300456 -273.789781 
L 269.504511 -274.053486 
L 268.708567 -273.158592 
L 267.912622 -271.521014 
L 267.116677 -269.703298 
L 266.320733 -268.210338 
L 265.524788 -267.307308 
L 264.728843 -266.917825 
L 263.932898 -266.638349 
L 263.136954 -265.880949 
L 262.341009 -264.112801 
L 261.545064 -261.092884 
L 260.74912 -256.974163 
L 259.953175 -252.20658 
L 259.15723 -247.312199 
L 258.361286 -242.690581 
L 257.565341 -238.558897 
L 256.769396 -234.996299 
L 255.973452 -231.996365 
L 255.177507 -229.491296 
L 254.381562 -227.40059 
L 253.585618 -225.734123 
L 252.789673 -224.666641 
L 251.993728 -224.479494 
L 251.197784 -225.379673 
L 250.401839 -227.317422 
L 249.605894 -229.926691 
L 248.80995 -232.622523 
L 248.014005 -234.794688 
L 247.21806 -236.00607 
L 246.422115 -236.129526 
L 245.626171 -235.391005 
L 244.830226 -234.307339 
L 244.034281 -233.527088 
L 243.238337 -233.61203 
L 242.442392 -234.823851 
L 241.646447 -236.991749 
L 240.850503 -239.524569 
L 240.054558 -241.585126 
L 239.258613 -242.367469 
L 238.462669 -241.35657 
L 237.666724 -238.46132 
L 236.870779 -233.994158 
L 236.074835 -228.553981 
L 235.27889 -222.88221 
L 234.482945 -217.716245 
L 233.687001 -213.634785 
L 232.891056 -210.913081 
L 232.095111 -209.451372 
L 231.299166 -208.839472 
L 230.503222 -208.538051 
L 229.707277 -208.069983 
L 228.911332 -207.13176 
L 228.115388 -205.622946 
L 227.319443 -203.635851 
L 226.523498 -201.423028 
L 225.727554 -199.332275 
L 224.931609 -197.71447 
L 224.135664 -196.845556 
L 223.33972 -196.902337 
L 222.543775 -197.978443 
L 221.74783 -200.087239 
L 220.951886 -203.126204 
L 220.155941 -206.835488 
L 219.359996 -210.802848 
L 218.564052 -214.530851 
L 217.768107 -217.533226 
L 216.972162 -219.419964 
L 216.176218 -219.967682 
L 215.380273 -219.191405 
L 214.584328 -217.396208 
L 213.788383 -215.147631 
L 212.992439 -213.122231 
L 212.196494 -211.872347 
L 211.400549 -211.617711 
L 210.604605 -212.197954 
L 209.80866 -213.220642 
L 209.012715 -214.286109 
L 208.216771 -215.133415 
L 207.420826 -215.657193 
L 206.624881 -215.851532 
L 205.828937 -215.743501 
L 205.032992 -215.327602 
L 204.237047 -214.500044 
L 203.441103 -213.034275 
L 202.645158 -210.659309 
L 201.849213 -207.234853 
L 201.053269 -202.913114 
L 200.257324 -198.16308 
L 199.461379 -193.639671 
L 198.665434 -189.989698 
L 197.86949 -187.68484 
L 197.073545 -186.901223 
L 196.2776 -187.443444 
L 195.481656 -188.749507 
L 194.685711 -190.026107 
L 193.889766 -190.498745 
L 193.093822 -189.670148 
L 192.297877 -187.460487 
L 191.501932 -184.176456 
L 190.705988 -180.35391 
L 189.910043 -176.564452 
L 189.114098 -173.255737 
L 188.318154 -170.652325 
L 187.522209 -168.721144 
L 186.726264 -167.20453 
L 185.93032 -165.720943 
L 185.134375 -163.91095 
L 184.33843 -161.576137 
L 183.542485 -158.756179 
L 182.746541 -155.721019 
L 181.950596 -152.8871 
L 181.154651 -150.67881 
L 180.358707 -149.370776 
L 179.562762 -148.980551 
L 178.766817 -149.285659 
L 177.970873 -149.959653 
L 177.174928 -150.728433 
L 176.378983 -151.449653 
L 175.583039 -152.098515 
L 174.787094 -152.715559 
L 173.991149 -153.379909 
L 173.195205 -154.216835 
L 172.39926 -155.394924 
L 171.603315 -157.079699 
L 170.807371 -159.367171 
L 170.011426 -162.241468 
L 169.215481 -165.561735 
L 168.419537 -169.051574 
L 167.623592 -172.29118 
L 166.827647 -174.765043 
L 166.031702 -176.017707 
L 165.235758 -175.883291 
L 164.439813 -174.65776 
L 163.643868 -173.078837 
L 162.847924 -172.075954 
L 162.051979 -172.39229 
L 161.256034 -174.275254 
L 160.46009 -177.389092 
L 159.664145 -180.949378 
L 158.8682 -183.968247 
L 158.072256 -185.513134 
L 157.276311 -184.953539 
L 156.480366 -182.183211 
L 155.684422 -177.730521 
L 154.888477 -172.633205 
L 154.092532 -168.055793 
L 153.296588 -164.806691 
L 152.500643 -163.023495 
L 151.704698 -162.210504 
L 150.908753 -161.570486 
L 150.112809 -160.400474 
L 149.316864 -158.343377 
L 148.520919 -155.434796 
L 147.724975 -152.025445 
L 146.92903 -148.668382 
L 146.133085 -145.972593 
L 145.337141 -144.40881 
L 144.541196 -144.122866 
L 143.745251 -144.853584 
L 142.949307 -146.019594 
L 142.153362 -146.950091 
L 141.357417 -147.140761 
L 140.561473 -146.398039 
L 139.765528 -144.817214 
L 138.969583 -142.649931 
L 138.173639 -140.16581 
L 137.377694 -137.582656 
L 136.581749 -135.077904 
L 135.785805 -132.846534 
L 134.98986 -131.146564 
L 134.193915 -130.274269 
L 133.39797 -130.451866 
L 132.602026 -131.683254 
L 131.806081 -133.675778 
L 131.010136 -135.883677 
L 130.214192 -137.650424 
L 129.418247 -138.393065 
L 128.622302 -137.780317 
L 127.826358 -135.863478 
L 127.030413 -133.11055 
L 126.234468 -130.296275 
L 125.438524 -128.249256 
L 124.642579 -127.539427 
L 123.846634 -128.239947 
L 123.05069 -129.869681 
L 122.254745 -131.539728 
L 121.4588 -132.251573 
L 120.662856 -131.252847 
L 119.866911 -128.335034 
L 119.070966 -123.955097 
L 118.275021 -119.112003 
L 117.479077 -115.014072 
L 116.683132 -112.672986 
L 115.887187 -112.585716 
L 115.091243 -114.609561 
L 114.295298 -118.049801 
L 113.499353 -121.914912 
L 112.703409 -125.256401 
L 111.907464 -127.48231 
L 111.111519 -128.527999 
L 110.315575 -128.818273 
L 109.51963 -129.045997 
L 108.723685 -129.865099 
L 107.927741 -131.616904 
L 107.131796 -134.190763 
L 106.335851 -137.081614 
L 105.539907 -139.638045 
L 104.743962 -141.392473 
L 103.948017 -142.300029 
L 103.152073 -142.759356 
L 102.356128 -143.414119 
L 101.560183 -144.843371 
L 100.764238 -147.284973 
L 99.968294 -150.504582 
L 99.172349 -153.85786 
L 98.376404 -156.51992 
L 97.58046 -157.790369 
L 96.784515 -157.351271 
L 95.98857 -155.378506 
L 95.192626 -152.471267 
L 94.396681 -149.433012 
L 93.600736 -146.980357 
L 92.804792 -145.472957 
L 92.008847 -144.766308 
L 91.212902 -144.28278 
L 90.416958 -143.308833 
L 89.621013 -141.368742 
L 88.825068 -138.459555 
L 88.029124 -135.032015 
L 87.233179 -131.760242 
L 86.437234 -129.242154 
L 85.641289 -127.765887 
L 84.845345 -127.201005 
L 84.0494 -127.02378 
L 83.253455 -126.500359 
L 82.457511 -125.028342 
L 81.661566 -122.501679 
L 80.865621 -119.454361 
L 80.069677 -116.808685 
L 79.273732 -115.330407 
L 78.477787 -115.217434 
L 77.681843 -116.131105 
L 76.885898 -117.503822 
L 76.089953 -118.819957 
L 75.294009 -119.703768 
L 74.498064 -119.845514 
L 73.702119 -119.039509 
L 72.906175 -117.423535 
L 72.11023 -115.571908 
L 71.314285 -114.223649 
L 70.51834 -113.839122 
L 69.722396 -114.36278 
L 68.926451 -115.389564 
L 68.130506 -116.546567 
L 67.334562 -117.752018 
L 66.538617 -119.172199 
L 65.742672 -120.976139 
L 64.946728 -123.166778 
L 64.150783 -125.584454 
L 63.354838 -127.950683 
L 62.558894 -129.8979 
L 61.762949 -131.030352 
L 60.967004 -131.027221 
L 60.17106 -129.763441 
L 59.375115 -127.427296 
L 58.57917 -124.574953 
L 57.783226 -122.029179 
L 56.987281 -120.601665 
L 56.191336 -120.732393 
L 55.395392 -122.233219 
L 54.599447 -124.345291 
L 53.803502 -126.139222 
L 53.007557 -126.999187 
L 52.211613 -126.864084 
L 51.415668 -126.123008 
L 50.619723 -125.35032 
L 49.823779 -125.092793 
L 49.027834 -125.722162 
L 48.231889 -127.303932 
L 47.435945 -129.51878 
L 46.64 -131.72649 
z
" style="stroke: #e41a1c; stroke-opacity: 0.3"/>
    </defs>
    <g clip-path="url(#p7bfdb66b55)">
     <use xlink:href="#m9c365f0aa9" x="0" y="360" style="fill: #e41a1c; fill-opacity: 0.3; stroke: #e41a1c; stroke-opacity: 0.3"/>
    </g>
   </g>
   <g id="PolyCollection_2">
    <defs>
     <path id="mb154ab2a33" d="M 46.64 -122.490479 
L 46.64 -102.833043 
L 47.435945 -102.757125 
L 48.231889 -102.99501 
L 49.027834 -103.588072 
L 49.823779 -104.514733 
L 50.619723 -105.679909 
L 51.415668 -106.909806 
L 52.211613 -107.976233 
L 53.007557 -108.661282 
L 53.803502 -108.836658 
L 54.599447 -108.504778 
L 55.395392 -107.770424 
L 56.191336 -106.773515 
L 56.987281 -105.64001 
L 57.783226 -104.470352 
L 58.57917 -103.339563 
L 59.375115 -102.284029 
L 60.17106 -101.286979 
L 60.967004 -100.292035 
L 61.762949 -99.248875 
L 62.558894 -98.157518 
L 63.354838 -97.074656 
L 64.150783 -96.085673 
L 64.946728 -95.275808 
L 65.742672 -94.717606 
L 66.538617 -94.460349 
L 67.334562 -94.502212 
L 68.130506 -94.753365 
L 68.926451 -95.026062 
L 69.722396 -95.081867 
L 70.51834 -94.724956 
L 71.314285 -93.887142 
L 72.11023 -92.654727 
L 72.906175 -91.236721 
L 73.702119 -89.905377 
L 74.498064 -88.931334 
L 75.294009 -88.51577 
L 76.089953 -88.719259 
L 76.885898 -89.412286 
L 77.681843 -90.292039 
L 78.477787 -90.980662 
L 79.273732 -91.163378 
L 80.069677 -90.699136 
L 80.865621 -89.660988 
L 81.661566 -88.303867 
L 82.457511 -86.978599 
L 83.253455 -86.016494 
L 84.0494 -85.618709 
L 84.845345 -85.795475 
L 85.641289 -86.386199 
L 86.437234 -87.148268 
L 87.233179 -87.863944 
L 88.029124 -88.413752 
L 88.825068 -88.793749 
L 89.621013 -89.081654 
L 90.416958 -89.370253 
L 91.212902 -89.696143 
L 92.008847 -89.999941 
L 92.804792 -90.144503 
L 93.600736 -89.985892 
L 94.396681 -89.458991 
L 95.192626 -88.631024 
L 95.98857 -87.695246 
L 96.784515 -86.906571 
L 97.58046 -86.48438 
L 98.376404 -86.52215 
L 99.172349 -86.946252 
L 99.968294 -87.548082 
L 100.764238 -88.076754 
L 101.560183 -88.346888 
L 102.356128 -88.310828 
L 103.152073 -88.066348 
L 103.948017 -87.800128 
L 104.743962 -87.689959 
L 105.539907 -87.806045 
L 106.335851 -88.060809 
L 107.131796 -88.241337 
L 107.927741 -88.113286 
L 108.723685 -87.53678 
L 109.51963 -86.527423 
L 110.315575 -85.238167 
L 111.111519 -83.886002 
L 111.907464 -82.662332 
L 112.703409 -81.657783 
L 113.499353 -80.827043 
L 114.295298 -80.016262 
L 115.091243 -79.053603 
L 115.887187 -77.862962 
L 116.683132 -76.534672 
L 117.479077 -75.307227 
L 118.275021 -74.469813 
L 119.070966 -74.238962 
L 119.866911 -74.665476 
L 120.662856 -75.604403 
L 121.4588 -76.757412 
L 122.254745 -77.777236 
L 123.05069 -78.399781 
L 123.846634 -78.549341 
L 124.642579 -78.367563 
L 125.438524 -78.151794 
L 126.234468 -78.231177 
L 127.030413 -78.83286 
L 127.826358 -79.988654 
L 128.622302 -81.5154 
L 129.418247 -83.078639 
L 130.214192 -84.319391 
L 131.010136 -84.994447 
L 131.806081 -85.06834 
L 132.602026 -84.713834 
L 133.39797 -84.222796 
L 134.193915 -83.874036 
L 134.98986 -83.820841 
L 135.785805 -84.043224 
L 136.581749 -84.376053 
L 137.377694 -84.5945 
L 138.173639 -84.521751 
L 138.969583 -84.118544 
L 139.765528 -83.518355 
L 140.561473 -82.989447 
L 141.357417 -82.836017 
L 142.153362 -83.28175 
L 142.949307 -84.388166 
L 143.745251 -86.037374 
L 144.541196 -87.972562 
L 145.337141 -89.870181 
L 146.133085 -91.423057 
L 146.92903 -92.4208 
L 147.724975 -92.808273 
L 148.520919 -92.697185 
L 149.316864 -92.318243 
L 150.112809 -91.929791 
L 150.908753 -91.721239 
L 151.704698 -91.74803 
L 152.500643 -91.915251 
L 153.296588 -92.008278 
L 154.092532 -91.759927 
L 154.888477 -90.938444 
L 155.684422 -89.433535 
L 156.480366 -87.313892 
L 157.276311 -84.836868 
L 158.072256 -82.405907 
L 158.8682 -80.484666 
L 159.664145 -79.485587 
L 160.46009 -79.659092 
L 161.256034 -81.016521 
L 162.051979 -83.315654 
L 162.847924 -86.117144 
L 163.643868 -88.892939 
L 164.439813 -91.150618 
L 165.235758 -92.538586 
L 166.031702 -92.909907 
L 166.827647 -92.335643 
L 167.623592 -91.06793 
L 168.419537 -89.462233 
L 169.215481 -87.878949 
L 170.011426 -86.591897 
L 170.807371 -85.729567 
L 171.603315 -85.263057 
L 172.39926 -85.037583 
L 173.195205 -84.830659 
L 173.991149 -84.416354 
L 174.787094 -83.620518 
L 175.583039 -82.359432 
L 176.378983 -80.657785 
L 177.174928 -78.642452 
L 177.970873 -76.511695 
L 178.766817 -74.487112 
L 179.562762 -72.762539 
L 180.358707 -71.463868 
L 181.154651 -70.628443 
L 181.950596 -70.207967 
L 182.746541 -70.094593 
L 183.542485 -70.161739 
L 184.33843 -70.302149 
L 185.134375 -70.446704 
L 185.93032 -70.562193 
L 186.726264 -70.640915 
L 187.522209 -70.694048 
L 188.318154 -70.747402 
L 189.114098 -70.830107 
L 189.910043 -70.954207 
L 190.705988 -71.096036 
L 191.501932 -71.192473 
L 192.297877 -71.155321 
L 193.093822 -70.897132 
L 193.889766 -70.360209 
L 194.685711 -69.542843 
L 195.481656 -68.515979 
L 196.2776 -67.421148 
L 197.073545 -66.443726 
L 197.86949 -65.764959 
L 198.665434 -65.505065 
L 199.461379 -65.674189 
L 200.257324 -66.149397 
L 201.053269 -66.693031 
L 201.849213 -67.015858 
L 202.645158 -66.86824 
L 203.441103 -66.126213 
L 204.237047 -64.84053 
L 205.032992 -63.233593 
L 205.828937 -61.64697 
L 206.624881 -60.453188 
L 207.420826 -59.954067 
L 208.216771 -60.295864 
L 209.012715 -61.43097 
L 209.80866 -63.140264 
L 210.604605 -65.105858 
L 211.400549 -67.006327 
L 212.196494 -68.603508 
L 212.992439 -69.796622 
L 213.788383 -70.629323 
L 214.584328 -71.248975 
L 215.380273 -71.836064 
L 216.176218 -72.53554 
L 216.972162 -73.418047 
L 217.768107 -74.478267 
L 218.564052 -75.657418 
L 219.359996 -76.871496 
L 220.155941 -78.033575 
L 220.951886 -79.065727 
L 221.74783 -79.899733 
L 222.543775 -80.470616 
L 223.33972 -80.715225 
L 224.135664 -80.590189 
L 224.931609 -80.110621 
L 225.727554 -79.38983 
L 226.523498 -78.649905 
L 227.319443 -78.183693 
L 228.115388 -78.273017 
L 228.911332 -79.089828 
L 229.707277 -80.616325 
L 230.503222 -82.6167 
L 231.299166 -84.680497 
L 232.095111 -86.335745 
L 232.891056 -87.201447 
L 233.687001 -87.124849 
L 234.482945 -86.245817 
L 235.27889 -84.9558 
L 236.074835 -83.761574 
L 236.870779 -83.102194 
L 237.666724 -83.18487 
L 238.462669 -83.898398 
L 239.258613 -84.837544 
L 240.054558 -85.435687 
L 240.850503 -85.164365 
L 241.646447 -83.729502 
L 242.442392 -81.189728 
L 243.238337 -77.94927 
L 244.034281 -74.626904 
L 244.830226 -71.850587 
L 245.626171 -70.053125 
L 246.422115 -69.339448 
L 247.21806 -69.466828 
L 248.014005 -69.939524 
L 248.80995 -70.182713 
L 249.605894 -69.73705 
L 250.401839 -68.409143 
L 251.197784 -66.326065 
L 251.993728 -63.873581 
L 252.789673 -61.54264 
L 253.585618 -59.74819 
L 254.381562 -58.694638 
L 255.177507 -58.335107 
L 255.973452 -58.424312 
L 256.769396 -58.626898 
L 257.565341 -58.633962 
L 258.361286 -58.253567 
L 259.15723 -57.457529 
L 259.953175 -56.378466 
L 260.74912 -55.261016 
L 261.545064 -54.381928 
L 262.341009 -53.964062 
L 263.136954 -54.113881 
L 263.932898 -54.804139 
L 264.728843 -55.903949 
L 265.524788 -57.237446 
L 266.320733 -58.641545 
L 267.116677 -59.998194 
L 267.912622 -61.234092 
L 268.708567 -62.300369 
L 269.504511 -63.15398 
L 270.300456 -63.75674 
L 271.096401 -64.09303 
L 271.892345 -64.194417 
L 272.68829 -64.155698 
L 273.484235 -64.130939 
L 274.280179 -64.305549 
L 275.076124 -64.848999 
L 275.872069 -65.861083 
L 276.668013 -67.329917 
L 277.463958 -69.118996 
L 278.259903 -70.992278 
L 279.055847 -72.673127 
L 279.851792 -73.920058 
L 280.647737 -74.594673 
L 281.443682 -74.698469 
L 282.239626 -74.365545 
L 283.035571 -73.813547 
L 283.831516 -73.269763 
L 284.62746 -72.898529 
L 285.423405 -72.756445 
L 286.21935 -72.791007 
L 287.015294 -72.878884 
L 287.811239 -72.882805 
L 288.607184 -72.701227 
L 289.403128 -72.293788 
L 290.199073 -71.679981 
L 290.995018 -70.919305 
L 291.790962 -70.085216 
L 292.586907 -69.245115 
L 293.382852 -68.455389 
L 294.178796 -67.772416 
L 294.974741 -67.269316 
L 295.770686 -67.041647 
L 296.56663 -67.189344 
L 297.362575 -67.775357 
L 298.15852 -68.77636 
L 298.954465 -70.049787 
L 299.750409 -71.340228 
L 300.546354 -72.335226 
L 301.342299 -72.758399 
L 302.138243 -72.465751 
L 302.934188 -71.503923 
L 303.730133 -70.104835 
L 304.526077 -68.619745 
L 305.322022 -67.417433 
L 306.117967 -66.776903 
L 306.913911 -66.802189 
L 307.709856 -67.384531 
L 308.505801 -68.230956 
L 309.301745 -68.958144 
L 310.09769 -69.220278 
L 310.893635 -68.820168 
L 311.689579 -67.761955 
L 312.485524 -66.234763 
L 313.281469 -64.544898 
L 314.077414 -63.023738 
L 314.873358 -61.935335 
L 315.669303 -61.404091 
L 316.465248 -61.381338 
L 317.261192 -61.663615 
L 318.057137 -61.960933 
L 318.853082 -61.99543 
L 319.649026 -61.598302 
L 320.444971 -60.771874 
L 321.240916 -59.694669 
L 322.03686 -58.666805 
L 322.832805 -58.01337 
L 323.62875 -57.977159 
L 324.424694 -58.634865 
L 325.220639 -59.863085 
L 326.016584 -61.366316 
L 326.812528 -62.761945 
L 327.608473 -63.698907 
L 328.404418 -63.971707 
L 329.200363 -63.587787 
L 329.996307 -62.759754 
L 330.792252 -61.822897 
L 331.588197 -61.110903 
L 332.384141 -60.841643 
L 333.180086 -61.059137 
L 333.976031 -61.649979 
L 334.771975 -62.417997 
L 335.56792 -63.178001 
L 336.363865 -63.82769 
L 337.159809 -64.371764 
L 337.955754 -64.893032 
L 338.751699 -65.48552 
L 339.547643 -66.181296 
L 340.343588 -66.910034 
L 341.139533 -67.517838 
L 341.935477 -67.839817 
L 342.731422 -67.788303 
L 343.527367 -67.408928 
L 344.323311 -66.87606 
L 345.119256 -66.431288 
L 345.915201 -66.293202 
L 346.711146 -66.574831 
L 347.50709 -67.239863 
L 348.303035 -68.114938 
L 349.09898 -68.955436 
L 349.894924 -69.540453 
L 350.690869 -69.757842 
L 351.486814 -69.641573 
L 352.282758 -69.343036 
L 353.078703 -69.048389 
L 353.874648 -68.881772 
L 354.670592 -68.843603 
L 355.466537 -68.815815 
L 356.262482 -68.629243 
L 357.058426 -68.154378 
L 357.854371 -67.367402 
L 358.650316 -66.362495 
L 359.44626 -65.31124 
L 360.242205 -64.391484 
L 361.03815 -63.716528 
L 361.834095 -63.295095 
L 362.630039 -63.04247 
L 363.425984 -62.840769 
L 364.221929 -62.61825 
L 365.017873 -62.40264 
L 365.813818 -62.315687 
L 366.609763 -62.509045 
L 367.405707 -63.073133 
L 368.201652 -63.96334 
L 368.997597 -64.979888 
L 369.793541 -65.816012 
L 370.589486 -66.161528 
L 371.385431 -65.823787 
L 372.181375 -64.816117 
L 372.97732 -63.373699 
L 373.773265 -61.885775 
L 374.569209 -60.767226 
L 375.365154 -60.316447 
L 376.161099 -60.612325 
L 376.957043 -61.490323 
L 377.752988 -62.609503 
L 378.548933 -63.586895 
L 379.344878 -64.14705 
L 380.140822 -64.22621 
L 380.936767 -63.987909 
L 381.732712 -63.744033 
L 382.528656 -63.816228 
L 383.324601 -64.397572 
L 384.120546 -65.471651 
L 384.91649 -66.81895 
L 385.712435 -68.103651 
L 386.50838 -69.003887 
L 387.304324 -69.335117 
L 388.100269 -69.121465 
L 388.896214 -68.58998 
L 389.692158 -68.091066 
L 390.488103 -67.975805 
L 391.284048 -68.476612 
L 392.079992 -69.634392 
L 392.875937 -71.295185 
L 393.671882 -73.172147 
L 394.467827 -74.946341 
L 395.263771 -76.369096 
L 396.059716 -77.331617 
L 396.855661 -77.88207 
L 397.651605 -78.189977 
L 398.44755 -78.473624 
L 399.243495 -78.91387 
L 400.039439 -79.580007 
L 400.835384 -80.393114 
L 401.631329 -81.145005 
L 402.427273 -81.571038 
L 403.223218 -81.449811 
L 404.019163 -80.689548 
L 404.815107 -79.370134 
L 405.611052 -77.732356 
L 406.406997 -76.12414 
L 407.202941 -74.919451 
L 407.998886 -74.425517 
L 408.794831 -74.798284 
L 409.590775 -75.992328 
L 410.38672 -77.766957 
L 411.182665 -79.749642 
L 411.97861 -81.53354 
L 412.774554 -82.774565 
L 413.570499 -83.259876 
L 413.570499 -130.297494 
L 413.570499 -130.297494 
L 412.774554 -129.751568 
L 411.97861 -128.450566 
L 411.182665 -126.631914 
L 410.38672 -124.652222 
L 409.590775 -122.911657 
L 408.794831 -121.766571 
L 407.998886 -121.449356 
L 407.202941 -122.011171 
L 406.406997 -123.302127 
L 405.611052 -125.001485 
L 404.815107 -126.69951 
L 404.019163 -128.01125 
L 403.223218 -128.68307 
L 402.427273 -128.652424 
L 401.631329 -128.042921 
L 400.835384 -127.104531 
L 400.039439 -126.124601 
L 399.243495 -125.335796 
L 398.44755 -124.842932 
L 397.651605 -124.58915 
L 396.855661 -124.377255 
L 396.059716 -123.94581 
L 395.263771 -123.075534 
L 394.467827 -121.685121 
L 393.671882 -119.878266 
L 392.875937 -117.922821 
L 392.079992 -116.168277 
L 391.284048 -114.929549 
L 390.488103 -114.377567 
L 389.692158 -114.47599 
L 388.896214 -114.988009 
L 388.100269 -115.552657 
L 387.304324 -115.805515 
L 386.50838 -115.502417 
L 385.712435 -114.601958 
L 384.91649 -113.2752 
L 384.120546 -111.836827 
L 383.324601 -110.62288 
L 382.528656 -109.862803 
L 381.732712 -109.596212 
L 380.936767 -109.665993 
L 380.140822 -109.788554 
L 379.344878 -109.672922 
L 378.548933 -109.143211 
L 377.752988 -108.218132 
L 376.957043 -107.115694 
L 376.161099 -106.177457 
L 375.365154 -105.737633 
L 374.569209 -105.986808 
L 373.773265 -106.886315 
L 372.97732 -108.171421 
L 372.181375 -109.444606 
L 371.385431 -110.320629 
L 370.589486 -110.562669 
L 369.793541 -110.154972 
L 368.997597 -109.28721 
L 368.201652 -108.2634 
L 367.405707 -107.377743 
L 366.609763 -106.810877 
L 365.813818 -106.58845 
L 365.017873 -106.613074 
L 364.221929 -106.745102 
L 363.425984 -106.887026 
L 362.630039 -107.031314 
L 361.834095 -107.254829 
L 361.03815 -107.668173 
L 360.242205 -108.345078 
L 359.44626 -109.265174 
L 358.650316 -110.301141 
L 357.854371 -111.262668 
L 357.058426 -111.977927 
L 356.262482 -112.368785 
L 355.466537 -112.478771 
L 354.670592 -112.441602 
L 353.874648 -112.410866 
L 353.078703 -112.486694 
L 352.282758 -112.670326 
L 351.486814 -112.863235 
L 350.690869 -112.911725 
L 349.894924 -112.681406 
L 349.09898 -112.131265 
L 348.303035 -111.352098 
L 347.50709 -110.546024 
L 346.711146 -109.950076 
L 345.915201 -109.735209 
L 345.119256 -109.927647 
L 344.323311 -110.392425 
L 343.527367 -110.889326 
L 342.731422 -111.173796 
L 341.935477 -111.092859 
L 341.139533 -110.632833 
L 340.343588 -109.904687 
L 339.547643 -109.082682 
L 338.751699 -108.326791 
L 337.955754 -107.719516 
L 337.159809 -107.241304 
L 336.363865 -106.796265 
L 335.56792 -106.278724 
L 334.771975 -105.647876 
L 333.976031 -104.969262 
L 333.180086 -104.397823 
L 332.384141 -104.109051 
L 331.588197 -104.211293 
L 330.792252 -104.679962 
L 329.996307 -105.342948 
L 329.200363 -105.924736 
L 328.404418 -106.134613 
L 327.608473 -105.768985 
L 326.812528 -104.791957 
L 326.016584 -103.363219 
L 325.220639 -101.798333 
L 324.424694 -100.471046 
L 323.62875 -99.691295 
L 322.832805 -99.604302 
L 322.03686 -100.148884 
L 321.240916 -101.089105 
L 320.444971 -102.103937 
L 319.649026 -102.898936 
L 318.853082 -103.300275 
L 318.057137 -103.302719 
L 317.261192 -103.061085 
L 316.465248 -102.832308 
L 315.669303 -102.887995 
L 314.873358 -103.423142 
L 314.077414 -104.486625 
L 313.281469 -105.954905 
L 312.485524 -107.561134 
L 311.689579 -108.975362 
L 310.893635 -109.910697 
L 310.09769 -110.216673 
L 309.301745 -109.926007 
L 308.505801 -109.242948 
L 307.709856 -108.484004 
L 306.913911 -107.99049 
L 306.117967 -108.03145 
L 305.322022 -108.71851 
L 304.526077 -109.960975 
L 303.730133 -111.485169 
L 302.934188 -112.918442 
L 302.138243 -113.907045 
L 301.342299 -114.221497 
L 300.546354 -113.813536 
L 299.750409 -112.813616 
L 298.954465 -111.479093 
L 298.15852 -110.113953 
L 297.362575 -108.985173 
L 296.56663 -108.261065 
L 295.770686 -107.989694 
L 294.974741 -108.119493 
L 294.178796 -108.546361 
L 293.382852 -109.162475 
L 292.586907 -109.885977 
L 291.790962 -110.663159 
L 290.995018 -111.449222 
L 290.199073 -112.185 
L 289.403128 -112.789997 
L 288.607184 -113.182388 
L 287.811239 -113.318076 
L 287.015294 -113.225698 
L 286.21935 -113.013874 
L 285.423405 -112.841202 
L 284.62746 -112.858312 
L 283.831516 -113.143955 
L 283.035571 -113.659731 
L 282.239626 -114.242712 
L 281.443682 -114.643935 
L 280.647737 -114.604523 
L 279.851792 -113.944867 
L 279.055847 -112.633731 
L 278.259903 -110.809522 
L 277.463958 -108.744025 
L 276.668013 -106.761311 
L 275.872069 -105.141371 
L 275.076124 -104.042752 
L 274.280179 -103.469882 
L 273.484235 -103.292687 
L 272.68829 -103.305857 
L 271.892345 -103.301231 
L 271.096401 -103.124889 
L 270.300456 -102.700461 
L 269.504511 -102.017579 
L 268.708567 -101.101121 
L 267.912622 -99.983687 
L 267.116677 -98.69674 
L 266.320733 -97.281063 
L 265.524788 -95.805661 
L 264.728843 -94.38163 
L 263.932898 -93.160803 
L 263.136954 -92.31365 
L 262.341009 -91.986689 
L 261.545064 -92.248586 
L 260.74912 -93.044234 
L 259.953175 -94.181135 
L 259.15723 -95.366505 
L 258.361286 -96.295196 
L 257.565341 -96.762672 
L 256.769396 -96.757079 
L 255.973452 -96.484199 
L 255.177507 -96.30389 
L 254.381562 -96.597109 
L 253.585618 -97.617647 
L 252.789673 -99.390125 
L 251.993728 -101.691583 
L 251.197784 -104.118149 
L 250.401839 -106.212157 
L 249.605894 -107.61268 
L 248.80995 -108.186318 
L 248.014005 -108.093359 
L 247.21806 -107.755477 
L 246.422115 -107.722756 
L 245.626171 -108.480688 
L 244.830226 -110.268697 
L 244.034281 -112.981711 
L 243.238337 -116.194466 
L 242.442392 -119.300205 
L 241.646447 -121.712532 
L 240.850503 -123.057955 
L 240.054558 -123.292934 
L 239.258613 -122.707263 
L 238.462669 -121.813863 
L 237.666724 -121.16256 
L 236.870779 -121.142889 
L 236.074835 -121.848055 
L 235.27889 -123.051036 
L 234.482945 -124.299186 
L 233.687001 -125.086087 
L 232.891056 -125.03252 
L 232.095111 -124.012336 
L 231.299166 -122.185865 
L 230.503222 -119.937725 
L 229.707277 -117.745946 
L 228.911332 -116.029742 
L 228.115388 -115.029397 
L 227.319443 -114.758434 
L 226.523498 -115.037279 
L 225.727554 -115.583044 
L 224.931609 -116.111081 
L 224.135664 -116.409677 
L 223.33972 -116.371164 
L 222.543775 -115.983815 
L 221.74783 -115.299498 
L 220.951886 -114.394766 
L 220.155941 -113.342352 
L 219.359996 -112.204241 
L 218.564052 -111.043654 
L 217.768107 -109.937776 
L 216.972162 -108.97032 
L 216.176218 -108.199506 
L 215.380273 -107.619218 
L 214.584328 -107.139183 
L 213.788383 -106.59893 
L 212.992439 -105.813469 
L 212.196494 -104.637666 
L 211.400549 -103.030734 
L 210.604605 -101.097853 
L 209.80866 -99.086463 
L 209.012715 -97.328406 
L 208.216771 -96.143695 
L 207.420826 -95.741287 
L 206.624881 -96.153058 
L 205.828937 -97.221924 
L 205.032992 -98.646511 
L 204.237047 -100.069007 
L 203.441103 -101.178921 
L 202.645158 -101.796812 
L 201.849213 -101.908357 
L 201.053269 -101.642334 
L 200.257324 -101.210956 
L 199.461379 -100.839873 
L 198.665434 -100.708128 
L 197.86949 -100.909166 
L 197.073545 -101.439155 
L 196.2776 -102.213267 
L 195.481656 -103.101474 
L 194.685711 -103.96892 
L 193.889766 -104.707807 
L 193.093822 -105.254953 
L 192.297877 -105.594518 
L 191.501932 -105.747924 
L 190.705988 -105.756414 
L 189.910043 -105.664763 
L 189.114098 -105.511695 
L 188.318154 -105.325059 
L 187.522209 -105.116961 
L 186.726264 -104.880417 
L 185.93032 -104.596142 
L 185.134375 -104.253692 
L 184.33843 -103.876982 
L 183.542485 -103.536277 
L 182.746541 -103.337573 
L 181.950596 -103.39687 
L 181.154651 -103.813963 
L 180.358707 -104.652872 
L 179.562762 -105.926788 
L 178.766817 -107.586248 
L 177.970873 -109.515556 
L 177.174928 -111.543764 
L 176.378983 -113.471722 
L 175.583039 -115.111194 
L 174.787094 -116.328792 
L 173.991149 -117.084387 
L 173.195205 -117.450505 
L 172.39926 -117.600596 
L 171.603315 -117.76388 
L 170.807371 -118.158611 
L 170.011426 -118.924604 
L 169.215481 -120.07473 
L 168.419537 -121.477525 
L 167.623592 -122.87539 
L 166.827647 -123.936915 
L 166.031702 -124.335837 
L 165.235758 -123.841279 
L 164.439813 -122.395599 
L 163.643868 -120.153099 
L 162.847924 -117.461669 
L 162.051979 -114.789367 
L 161.256034 -112.618535 
L 160.46009 -111.338665 
L 159.664145 -111.163662 
L 158.8682 -112.088856 
L 158.072256 -113.895548 
L 157.276311 -116.204685 
L 156.480366 -118.571017 
L 155.684422 -120.594515 
L 154.888477 -122.015581 
L 154.092532 -122.764972 
L 153.296588 -122.956653 
L 152.500643 -122.830108 
L 151.704698 -122.660413 
L 150.908753 -122.661917 
L 150.112809 -122.915557 
L 149.316864 -123.344328 
L 148.520919 -123.742998 
L 147.724975 -123.847466 
L 146.92903 -123.420741 
L 146.133085 -122.335582 
L 145.337141 -120.635152 
L 144.541196 -118.548504 
L 143.745251 -116.44115 
L 142.949307 -114.705129 
L 142.153362 -113.628613 
L 141.357417 -113.303173 
L 140.561473 -113.607419 
L 139.765528 -114.264647 
L 138.969583 -114.943859 
L 138.173639 -115.368617 
L 137.377694 -115.402733 
L 136.581749 -115.086064 
L 135.785805 -114.603389 
L 134.98986 -114.192771 
L 134.193915 -114.030028 
L 133.39797 -114.141926 
L 132.602026 -114.387994 
L 131.806081 -114.516803 
L 131.010136 -114.269303 
L 130.214192 -113.486673 
L 129.418247 -112.183772 
L 128.622302 -110.561685 
L 127.826358 -108.948665 
L 127.030413 -107.682157 
L 126.234468 -106.97356 
L 125.438524 -106.815375 
L 124.642579 -106.978876 
L 123.846634 -107.108659 
L 123.05069 -106.872186 
L 122.254745 -106.09853 
L 121.4588 -104.850572 
L 120.662856 -103.404966 
L 119.866911 -102.147809 
L 119.070966 -101.425362 
L 118.275021 -101.412209 
L 117.479077 -102.057697 
L 116.683132 -103.133399 
L 115.887187 -104.348453 
L 115.091243 -105.468502 
L 114.295298 -106.387792 
L 113.499353 -107.139103 
L 112.703409 -107.849185 
L 111.907464 -108.656437 
L 111.111519 -109.621306 
L 110.315575 -110.675292 
L 109.51963 -111.644824 
L 108.723685 -112.341573 
L 107.927741 -112.66293 
L 107.131796 -112.640831 
L 106.335851 -112.418836 
L 105.539907 -112.183536 
L 104.743962 -112.087356 
L 103.948017 -112.18695 
L 103.152073 -112.416019 
L 102.356128 -112.610468 
L 101.560183 -112.586003 
L 100.764238 -112.235406 
L 99.968294 -111.593873 
L 99.172349 -110.837028 
L 98.376404 -110.214083 
L 97.58046 -109.948472 
L 96.784515 -110.147169 
L 95.98857 -110.754259 
L 95.192626 -111.569186 
L 94.396681 -112.324126 
L 93.600736 -112.785495 
L 92.804792 -112.831846 
L 92.008847 -112.475969 
L 91.212902 -111.829773 
L 90.416958 -111.034903 
L 89.621013 -110.191965 
L 88.825068 -109.320532 
L 88.029124 -108.371648 
L 87.233179 -107.290168 
L 86.437234 -106.091904 
L 85.641289 -104.905163 
L 84.845345 -103.946803 
L 84.0494 -103.444126 
L 83.253455 -103.540455 
L 82.457511 -104.221673 
L 81.661566 -105.290882 
L 80.865621 -106.409608 
L 80.069677 -107.205154 
L 79.273732 -107.407806 
L 78.477787 -106.954489 
L 77.681843 -106.009643 
L 76.885898 -104.901835 
L 76.089953 -104.013703 
L 75.294009 -103.665468 
L 74.498064 -104.016856 
L 73.702119 -105.011384 
L 72.906175 -106.394469 
L 72.11023 -107.814767 
L 71.314285 -108.964447 
L 70.51834 -109.683834 
L 69.722396 -109.981471 
L 68.926451 -109.979257 
L 68.130506 -109.838895 
L 67.334562 -109.716462 
L 66.538617 -109.742567 
L 65.742672 -110.004522 
L 64.946728 -110.5272 
L 64.150783 -111.270994 
L 63.354838 -112.160644 
L 62.558894 -113.130815 
L 61.762949 -114.154253 
L 60.967004 -115.232454 
L 60.17106 -116.366736 
L 59.375115 -117.546925 
L 58.57917 -118.765729 
L 57.783226 -120.027901 
L 56.987281 -121.329126 
L 56.191336 -122.619832 
L 55.395392 -123.794536 
L 54.599447 -124.725173 
L 53.803502 -125.310272 
L 53.007557 -125.499469 
L 52.211613 -125.289635 
L 51.415668 -124.725206 
L 50.619723 -123.917253 
L 49.823779 -123.050954 
L 49.027834 -122.348258 
L 48.231889 -121.992282 
L 47.435945 -122.057397 
L 46.64 -122.490479 
z
" style="stroke: #377eb8; stroke-opacity: 0.3"/>
    </defs>
    <g clip-path="url(#p7bfdb66b55)">
     <use xlink:href="#mb154ab2a33" x="0" y="360" style="fill: #377eb8; fill-opacity: 0.3; stroke: #377eb8; stroke-opacity: 0.3"/>
    </g>
   </g>
   <g id="patch_3">
    <path d="M 229.866466 318.04 
L 229.866466 71.732 
L 331.747385 71.732 
L 331.747385 318.04 
z
" clip-path="url(#p7bfdb66b55)" style="fill: #808080; opacity: 0.3"/>
   </g>
   <g id="matplotlib.axis_1">
    <g id="xtick_1">
     <g id="line2d_1">
      <defs>
       <path id="mda611de0c4" d="M 0 0 
L 0 3.5 
" style="stroke: #000000; stroke-width: 0.8"/>
      </defs>
      <g>
       <use xlink:href="#mda611de0c4" x="87.233179" y="318.04" style="stroke: #000000; stroke-width: 0.8"/>
      </g>
     </g>
     <g id="text_1">
      <!-- 0.0 -->
      <g transform="translate(79.281616 332.638438)scale(0.1 -0.1)">
       <defs>
        <path id="DejaVuSans-30" d="M 2034 4250 
Q 1547 4250 1301 3770 
Q 1056 3291 1056 2328 
Q 1056 1369 1301 889 
Q 1547 409 2034 409 
Q 2525 409 2770 889 
Q 3016 1369 3016 2328 
Q 3016 3291 2770 3770 
Q 2525 4250 2034 4250 
z
M 2034 4750 
Q 2819 4750 3233 4129 
Q 3647 3509 3647 2328 
Q 3647 1150 3233 529 
Q 2819 -91 2034 -91 
Q 1250 -91 836 529 
Q 422 1150 422 2328 
Q 422 3509 836 4129 
Q 1250 4750 2034 4750 
z
" transform="scale(0.015625)"/>
        <path id="DejaVuSans-2e" d="M 684 794 
L 1344 794 
L 1344 0 
L 684 0 
L 684 794 
z
" transform="scale(0.015625)"/>
       </defs>
       <use xlink:href="#DejaVuSans-30"/>
       <use xlink:href="#DejaVuSans-2e" x="63.623047"/>
       <use xlink:href="#DejaVuSans-30" x="95.410156"/>
      </g>
     </g>
    </g>
    <g id="xtick_2">
     <g id="line2d_2">
      <g>
       <use xlink:href="#mda611de0c4" x="168.737914" y="318.04" style="stroke: #000000; stroke-width: 0.8"/>
      </g>
     </g>
     <g id="text_2">
      <!-- 0.2 -->
      <g transform="translate(160.786352 332.638438)scale(0.1 -0.1)">
       <defs>
        <path id="DejaVuSans-32" d="M 1228 531 
L 3431 531 
L 3431 0 
L 469 0 
L 469 531 
Q 828 903 1448 1529 
Q 2069 2156 2228 2338 
Q 2531 2678 2651 2914 
Q 2772 3150 2772 3378 
Q 2772 3750 2511 3984 
Q 2250 4219 1831 4219 
Q 1534 4219 1204 4116 
Q 875 4013 500 3803 
L 500 4441 
Q 881 4594 1212 4672 
Q 1544 4750 1819 4750 
Q 2544 4750 2975 4387 
Q 3406 4025 3406 3419 
Q 3406 3131 3298 2873 
Q 3191 2616 2906 2266 
Q 2828 2175 2409 1742 
Q 1991 1309 1228 531 
z
" transform="scale(0.015625)"/>
       </defs>
       <use xlink:href="#DejaVuSans-30"/>
       <use xlink:href="#DejaVuSans-2e" x="63.623047"/>
       <use xlink:href="#DejaVuSans-32" x="95.410156"/>
      </g>
     </g>
    </g>
    <g id="xtick_3">
     <g id="line2d_3">
      <g>
       <use xlink:href="#mda611de0c4" x="250.24265" y="318.04" style="stroke: #000000; stroke-width: 0.8"/>
      </g>
     </g>
     <g id="text_3">
      <!-- 0.4 -->
      <g transform="translate(242.291087 332.638438)scale(0.1 -0.1)">
       <defs>
        <path id="DejaVuSans-34" d="M 2419 4116 
L 825 1625 
L 2419 1625 
L 2419 4116 
z
M 2253 4666 
L 3047 4666 
L 3047 1625 
L 3713 1625 
L 3713 1100 
L 3047 1100 
L 3047 0 
L 2419 0 
L 2419 1100 
L 313 1100 
L 313 1709 
L 2253 4666 
z
" transform="scale(0.015625)"/>
       </defs>
       <use xlink:href="#DejaVuSans-30"/>
       <use xlink:href="#DejaVuSans-2e" x="63.623047"/>
       <use xlink:href="#DejaVuSans-34" x="95.410156"/>
      </g>
     </g>
    </g>
    <g id="xtick_4">
     <g id="line2d_4">
      <g>
       <use xlink:href="#mda611de0c4" x="331.747385" y="318.04" style="stroke: #000000; stroke-width: 0.8"/>
      </g>
     </g>
     <g id="text_4">
      <!-- 0.6 -->
      <g transform="translate(323.795823 332.638438)scale(0.1 -0.1)">
       <defs>
        <path id="DejaVuSans-36" d="M 2113 2584 
Q 1688 2584 1439 2293 
Q 1191 2003 1191 1497 
Q 1191 994 1439 701 
Q 1688 409 2113 409 
Q 2538 409 2786 701 
Q 3034 994 3034 1497 
Q 3034 2003 2786 2293 
Q 2538 2584 2113 2584 
z
M 3366 4563 
L 3366 3988 
Q 3128 4100 2886 4159 
Q 2644 4219 2406 4219 
Q 1781 4219 1451 3797 
Q 1122 3375 1075 2522 
Q 1259 2794 1537 2939 
Q 1816 3084 2150 3084 
Q 2853 3084 3261 2657 
Q 3669 2231 3669 1497 
Q 3669 778 3244 343 
Q 2819 -91 2113 -91 
Q 1303 -91 875 529 
Q 447 1150 447 2328 
Q 447 3434 972 4092 
Q 1497 4750 2381 4750 
Q 2619 4750 2861 4703 
Q 3103 4656 3366 4563 
z
" transform="scale(0.015625)"/>
       </defs>
       <use xlink:href="#DejaVuSans-30"/>
       <use xlink:href="#DejaVuSans-2e" x="63.623047"/>
       <use xlink:href="#DejaVuSans-36" x="95.410156"/>
      </g>
     </g>
    </g>
    <g id="xtick_5">
     <g id="line2d_5">
      <g>
       <use xlink:href="#mda611de0c4" x="413.252121" y="318.04" style="stroke: #000000; stroke-width: 0.8"/>
      </g>
     </g>
     <g id="text_5">
      <!-- 0.8 -->
      <g transform="translate(405.300559 332.638438)scale(0.1 -0.1)">
       <defs>
        <path id="DejaVuSans-38" d="M 2034 2216 
Q 1584 2216 1326 1975 
Q 1069 1734 1069 1313 
Q 1069 891 1326 650 
Q 1584 409 2034 409 
Q 2484 409 2743 651 
Q 3003 894 3003 1313 
Q 3003 1734 2745 1975 
Q 2488 2216 2034 2216 
z
M 1403 2484 
Q 997 2584 770 2862 
Q 544 3141 544 3541 
Q 544 4100 942 4425 
Q 1341 4750 2034 4750 
Q 2731 4750 3128 4425 
Q 3525 4100 3525 3541 
Q 3525 3141 3298 2862 
Q 3072 2584 2669 2484 
Q 3125 2378 3379 2068 
Q 3634 1759 3634 1313 
Q 3634 634 3220 271 
Q 2806 -91 2034 -91 
Q 1263 -91 848 271 
Q 434 634 434 1313 
Q 434 1759 690 2068 
Q 947 2378 1403 2484 
z
M 1172 3481 
Q 1172 3119 1398 2916 
Q 1625 2713 2034 2713 
Q 2441 2713 2670 2916 
Q 2900 3119 2900 3481 
Q 2900 3844 2670 4047 
Q 2441 4250 2034 4250 
Q 1625 4250 1398 4047 
Q 1172 3844 1172 3481 
z
" transform="scale(0.015625)"/>
       </defs>
       <use xlink:href="#DejaVuSans-30"/>
       <use xlink:href="#DejaVuSans-2e" x="63.623047"/>
       <use xlink:href="#DejaVuSans-38" x="95.410156"/>
      </g>
     </g>
    </g>
    <g id="text_6">
     <!-- seconds -->
     <g transform="translate(209.667749 346.316563)scale(0.1 -0.1)">
      <defs>
       <path id="DejaVuSans-73" d="M 2834 3397 
L 2834 2853 
Q 2591 2978 2328 3040 
Q 2066 3103 1784 3103 
Q 1356 3103 1142 2972 
Q 928 2841 928 2578 
Q 928 2378 1081 2264 
Q 1234 2150 1697 2047 
L 1894 2003 
Q 2506 1872 2764 1633 
Q 3022 1394 3022 966 
Q 3022 478 2636 193 
Q 2250 -91 1575 -91 
Q 1294 -91 989 -36 
Q 684 19 347 128 
L 347 722 
Q 666 556 975 473 
Q 1284 391 1588 391 
Q 1994 391 2212 530 
Q 2431 669 2431 922 
Q 2431 1156 2273 1281 
Q 2116 1406 1581 1522 
L 1381 1569 
Q 847 1681 609 1914 
Q 372 2147 372 2553 
Q 372 3047 722 3315 
Q 1072 3584 1716 3584 
Q 2034 3584 2315 3537 
Q 2597 3491 2834 3397 
z
" transform="scale(0.015625)"/>
       <path id="DejaVuSans-65" d="M 3597 1894 
L 3597 1613 
L 953 1613 
Q 991 1019 1311 708 
Q 1631 397 2203 397 
Q 2534 397 2845 478 
Q 3156 559 3463 722 
L 3463 178 
Q 3153 47 2828 -22 
Q 2503 -91 2169 -91 
Q 1331 -91 842 396 
Q 353 884 353 1716 
Q 353 2575 817 3079 
Q 1281 3584 2069 3584 
Q 2775 3584 3186 3129 
Q 3597 2675 3597 1894 
z
M 3022 2063 
Q 3016 2534 2758 2815 
Q 2500 3097 2075 3097 
Q 1594 3097 1305 2825 
Q 1016 2553 972 2059 
L 3022 2063 
z
" transform="scale(0.015625)"/>
       <path id="DejaVuSans-63" d="M 3122 3366 
L 3122 2828 
Q 2878 2963 2633 3030 
Q 2388 3097 2138 3097 
Q 1578 3097 1268 2742 
Q 959 2388 959 1747 
Q 959 1106 1268 751 
Q 1578 397 2138 397 
Q 2388 397 2633 464 
Q 2878 531 3122 666 
L 3122 134 
Q 2881 22 2623 -34 
Q 2366 -91 2075 -91 
Q 1284 -91 818 406 
Q 353 903 353 1747 
Q 353 2603 823 3093 
Q 1294 3584 2113 3584 
Q 2378 3584 2631 3529 
Q 2884 3475 3122 3366 
z
" transform="scale(0.015625)"/>
       <path id="DejaVuSans-6f" d="M 1959 3097 
Q 1497 3097 1228 2736 
Q 959 2375 959 1747 
Q 959 1119 1226 758 
Q 1494 397 1959 397 
Q 2419 397 2687 759 
Q 2956 1122 2956 1747 
Q 2956 2369 2687 2733 
Q 2419 3097 1959 3097 
z
M 1959 3584 
Q 2709 3584 3137 3096 
Q 3566 2609 3566 1747 
Q 3566 888 3137 398 
Q 2709 -91 1959 -91 
Q 1206 -91 779 398 
Q 353 888 353 1747 
Q 353 2609 779 3096 
Q 1206 3584 1959 3584 
z
" transform="scale(0.015625)"/>
       <path id="DejaVuSans-6e" d="M 3513 2113 
L 3513 0 
L 2938 0 
L 2938 2094 
Q 2938 2591 2744 2837 
Q 2550 3084 2163 3084 
Q 1697 3084 1428 2787 
Q 1159 2491 1159 1978 
L 1159 0 
L 581 0 
L 581 3500 
L 1159 3500 
L 1159 2956 
Q 1366 3272 1645 3428 
Q 1925 3584 2291 3584 
Q 2894 3584 3203 3211 
Q 3513 2838 3513 2113 
z
" transform="scale(0.015625)"/>
       <path id="DejaVuSans-64" d="M 2906 2969 
L 2906 4863 
L 3481 4863 
L 3481 0 
L 2906 0 
L 2906 525 
Q 2725 213 2448 61 
Q 2172 -91 1784 -91 
Q 1150 -91 751 415 
Q 353 922 353 1747 
Q 353 2572 751 3078 
Q 1150 3584 1784 3584 
Q 2172 3584 2448 3432 
Q 2725 3281 2906 2969 
z
M 947 1747 
Q 947 1113 1208 752 
Q 1469 391 1925 391 
Q 2381 391 2643 752 
Q 2906 1113 2906 1747 
Q 2906 2381 2643 2742 
Q 2381 3103 1925 3103 
Q 1469 3103 1208 2742 
Q 947 2381 947 1747 
z
" transform="scale(0.015625)"/>
      </defs>
      <use xlink:href="#DejaVuSans-73"/>
      <use xlink:href="#DejaVuSans-65" x="52.099609"/>
      <use xlink:href="#DejaVuSans-63" x="113.623047"/>
      <use xlink:href="#DejaVuSans-6f" x="168.603516"/>
      <use xlink:href="#DejaVuSans-6e" x="229.785156"/>
      <use xlink:href="#DejaVuSans-64" x="293.164062"/>
      <use xlink:href="#DejaVuSans-73" x="356.640625"/>
     </g>
    </g>
   </g>
   <g id="matplotlib.axis_2">
    <g id="ytick_1">
     <g id="line2d_6">
      <defs>
       <path id="m16af906e3d" d="M 0 0 
L -3.5 0 
" style="stroke: #000000; stroke-width: 0.8"/>
      </defs>
      <g>
       <use xlink:href="#m16af906e3d" x="46.64" y="291.664096" style="stroke: #000000; stroke-width: 0.8"/>
      </g>
     </g>
     <g id="text_7">
      <!-- 1 -->
      <g transform="translate(24.897813 295.463314)scale(0.1 -0.1)">
       <defs>
        <path id="DejaVuSans-2212" d="M 678 2272 
L 4684 2272 
L 4684 1741 
L 678 1741 
L 678 2272 
z
" transform="scale(0.015625)"/>
        <path id="DejaVuSans-31" d="M 794 531 
L 1825 531 
L 1825 4091 
L 703 3866 
L 703 4441 
L 1819 4666 
L 2450 4666 
L 2450 531 
L 3481 531 
L 3481 0 
L 794 0 
L 794 531 
z
" transform="scale(0.015625)"/>
       </defs>
       <use xlink:href="#DejaVuSans-2212"/>
       <use xlink:href="#DejaVuSans-31" x="83.789062"/>
      </g>
     </g>
    </g>
    <g id="ytick_2">
     <g id="line2d_7">
      <g>
       <use xlink:href="#m16af906e3d" x="46.64" y="255.392556" style="stroke: #000000; stroke-width: 0.8"/>
      </g>
     </g>
     <g id="text_8">
      <!-- 0 -->
      <g transform="translate(33.2775 259.191774)scale(0.1 -0.1)">
       <use xlink:href="#DejaVuSans-30"/>
      </g>
     </g>
    </g>
    <g id="ytick_3">
     <g id="line2d_8">
      <g>
       <use xlink:href="#m16af906e3d" x="46.64" y="219.121016" style="stroke: #000000; stroke-width: 0.8"/>
      </g>
     </g>
     <g id="text_9">
      <!-- 1 -->
      <g transform="translate(33.2775 222.920234)scale(0.1 -0.1)">
       <use xlink:href="#DejaVuSans-31"/>
      </g>
     </g>
    </g>
    <g id="ytick_4">
     <g id="line2d_9">
      <g>
       <use xlink:href="#m16af906e3d" x="46.64" y="182.849476" style="stroke: #000000; stroke-width: 0.8"/>
      </g>
     </g>
     <g id="text_10">
      <!-- 2 -->
      <g transform="translate(33.2775 186.648694)scale(0.1 -0.1)">
       <use xlink:href="#DejaVuSans-32"/>
      </g>
     </g>
    </g>
    <g id="ytick_5">
     <g id="line2d_10">
      <g>
       <use xlink:href="#m16af906e3d" x="46.64" y="146.577936" style="stroke: #000000; stroke-width: 0.8"/>
      </g>
     </g>
     <g id="text_11">
      <!-- 3 -->
      <g transform="translate(33.2775 150.377154)scale(0.1 -0.1)">
       <defs>
        <path id="DejaVuSans-33" d="M 2597 2516 
Q 3050 2419 3304 2112 
Q 3559 1806 3559 1356 
Q 3559 666 3084 287 
Q 2609 -91 1734 -91 
Q 1441 -91 1130 -33 
Q 819 25 488 141 
L 488 750 
Q 750 597 1062 519 
Q 1375 441 1716 441 
Q 2309 441 2620 675 
Q 2931 909 2931 1356 
Q 2931 1769 2642 2001 
Q 2353 2234 1838 2234 
L 1294 2234 
L 1294 2753 
L 1863 2753 
Q 2328 2753 2575 2939 
Q 2822 3125 2822 3475 
Q 2822 3834 2567 4026 
Q 2313 4219 1838 4219 
Q 1578 4219 1281 4162 
Q 984 4106 628 3988 
L 628 4550 
Q 988 4650 1302 4700 
Q 1616 4750 1894 4750 
Q 2613 4750 3031 4423 
Q 3450 4097 3450 3541 
Q 3450 3153 3228 2886 
Q 3006 2619 2597 2516 
z
" transform="scale(0.015625)"/>
       </defs>
       <use xlink:href="#DejaVuSans-33"/>
      </g>
     </g>
    </g>
    <g id="ytick_6">
     <g id="line2d_11">
      <g>
       <use xlink:href="#m16af906e3d" x="46.64" y="110.306395" style="stroke: #000000; stroke-width: 0.8"/>
      </g>
     </g>
     <g id="text_12">
      <!-- 4 -->
      <g transform="translate(33.2775 114.105614)scale(0.1 -0.1)">
       <use xlink:href="#DejaVuSans-34"/>
      </g>
     </g>
    </g>
    <g id="ytick_7">
     <g id="line2d_12">
      <g>
       <use xlink:href="#m16af906e3d" x="46.64" y="74.034855" style="stroke: #000000; stroke-width: 0.8"/>
      </g>
     </g>
     <g id="text_13">
      <!-- 5 -->
      <g transform="translate(33.2775 77.834074)scale(0.1 -0.1)">
       <defs>
        <path id="DejaVuSans-35" d="M 691 4666 
L 3169 4666 
L 3169 4134 
L 1269 4134 
L 1269 2991 
Q 1406 3038 1543 3061 
Q 1681 3084 1819 3084 
Q 2600 3084 3056 2656 
Q 3513 2228 3513 1497 
Q 3513 744 3044 326 
Q 2575 -91 1722 -91 
Q 1428 -91 1123 -41 
Q 819 9 494 109 
L 494 744 
Q 775 591 1075 516 
Q 1375 441 1709 441 
Q 2250 441 2565 725 
Q 2881 1009 2881 1497 
Q 2881 1984 2565 2268 
Q 2250 2553 1709 2553 
Q 1456 2553 1204 2497 
Q 953 2441 691 2322 
L 691 4666 
z
" transform="scale(0.015625)"/>
       </defs>
       <use xlink:href="#DejaVuSans-35"/>
      </g>
     </g>
    </g>
    <g id="text_14">
     <!-- V -->
     <g transform="translate(18.818125 201.487562)rotate(-90)scale(0.1 -0.1)">
      <defs>
       <path id="DejaVuSans-b5" d="M 544 -1331 
L 544 3500 
L 1119 3500 
L 1119 1325 
Q 1119 872 1334 640 
Q 1550 409 1972 409 
Q 2434 409 2667 671 
Q 2900 934 2900 1459 
L 2900 3500 
L 3475 3500 
L 3475 806 
Q 3475 619 3529 530 
Q 3584 441 3700 441 
Q 3728 441 3778 458 
Q 3828 475 3916 513 
L 3916 50 
Q 3788 -22 3673 -56 
Q 3559 -91 3450 -91 
Q 3234 -91 3106 31 
Q 2978 153 2931 403 
Q 2775 156 2548 32 
Q 2322 -91 2016 -91 
Q 1697 -91 1473 31 
Q 1250 153 1119 397 
L 1119 -1331 
L 544 -1331 
z
" transform="scale(0.015625)"/>
       <path id="DejaVuSans-56" d="M 1831 0 
L 50 4666 
L 709 4666 
L 2188 738 
L 3669 4666 
L 4325 4666 
L 2547 0 
L 1831 0 
z
" transform="scale(0.015625)"/>
      </defs>
      <use xlink:href="#DejaVuSans-b5"/>
      <use xlink:href="#DejaVuSans-56" x="63.623047"/>
     </g>
    </g>
   </g>
   <g id="line2d_13">
    <path d="M 46.64 250.024648 
L 48.231889 254.581362 
L 49.027834 256.159641 
L 49.823779 256.489532 
L 50.619723 255.574423 
L 52.211613 252.355421 
L 53.007557 251.597516 
L 53.803502 252.015363 
L 54.599447 253.425379 
L 55.395392 255.170674 
L 56.191336 256.392028 
L 56.987281 256.384156 
L 57.783226 254.888718 
L 58.57917 252.205164 
L 59.375115 249.078787 
L 60.17106 246.418135 
L 60.967004 244.962609 
L 61.762949 245.036922 
L 62.558894 246.485665 
L 65.742672 255.631391 
L 68.926451 261.86424 
L 69.722396 263.101531 
L 70.51834 263.654569 
L 71.314285 263.258003 
L 72.11023 261.939464 
L 73.702119 258.307274 
L 74.498064 257.275268 
L 75.294009 257.390002 
L 76.089953 258.630559 
L 77.681843 262.336703 
L 78.477787 263.302529 
L 79.273732 262.967318 
L 80.069677 261.335347 
L 82.457511 254.215085 
L 83.253455 253.094007 
L 84.0494 252.831019 
L 84.845345 252.966106 
L 85.641289 252.860057 
L 86.437234 251.976384 
L 87.233179 250.112469 
L 89.621013 242.138796 
L 90.416958 240.477588 
L 91.212902 239.70603 
L 92.804792 239.339829 
L 93.600736 238.669413 
L 94.396681 237.245618 
L 95.98857 233.138046 
L 96.784515 231.677942 
L 97.58046 231.428862 
L 98.376404 232.619428 
L 99.172349 235.022634 
L 100.764238 240.93584 
L 101.560183 243.128815 
L 102.356128 244.412232 
L 103.948017 245.490306 
L 104.743962 246.437396 
L 105.539907 248.249863 
L 106.335851 250.925949 
L 107.927741 257.056448 
L 108.723685 259.32712 
L 109.51963 260.631979 
L 110.315575 261.167964 
L 111.111519 261.511504 
L 111.907464 262.378069 
L 112.703409 264.301413 
L 113.499353 267.364759 
L 115.091243 274.607878 
L 115.887187 276.861573 
L 116.683132 277.085598 
L 117.479077 275.060767 
L 118.275021 271.236385 
L 119.866911 262.357076 
L 120.662856 259.517338 
L 121.4588 258.574321 
L 122.254745 259.359998 
L 123.846634 262.923023 
L 124.642579 263.795703 
L 125.438524 263.269764 
L 126.234468 261.406173 
L 127.826358 256.108237 
L 128.622302 254.225794 
L 129.418247 253.556994 
L 130.214192 254.137446 
L 131.010136 255.629553 
L 132.602026 259.149764 
L 133.39797 260.217681 
L 134.193915 260.500827 
L 134.98986 259.997308 
L 135.785805 258.808808 
L 136.581749 257.06219 
L 138.173639 252.40233 
L 139.765528 247.514952 
L 140.561473 245.778408 
L 141.357417 244.945278 
L 142.153362 245.130231 
L 142.949307 246.146357 
L 143.745251 247.498668 
L 144.541196 248.504255 
L 145.337141 248.510516 
L 146.133085 247.133155 
L 146.92903 244.41638 
L 149.316864 234.104796 
L 150.112809 232.129899 
L 150.908753 231.188256 
L 151.704698 230.759142 
L 152.500643 230.044844 
L 153.296588 228.294812 
L 154.092532 225.126925 
L 156.480366 211.353423 
L 157.276311 208.417808 
L 158.072256 207.584707 
L 158.8682 208.869246 
L 159.664145 211.6943 
L 161.256034 218.055018 
L 162.051979 219.824506 
L 162.847924 220.149343 
L 163.643868 219.299758 
L 164.439813 217.928906 
L 165.235758 216.818971 
L 166.031702 216.615875 
L 166.827647 217.644904 
L 167.623592 219.858424 
L 169.215481 226.318851 
L 170.807371 232.497559 
L 171.603315 234.830701 
L 172.39926 236.656554 
L 173.991149 239.324989 
L 175.583039 241.459689 
L 177.174928 243.24779 
L 177.970873 243.849528 
L 178.766817 244.097928 
L 179.562762 243.851869 
L 180.358707 242.985722 
L 181.154651 241.43329 
L 181.950596 239.23258 
L 185.134375 228.494743 
L 185.93032 226.596949 
L 188.318154 222.101194 
L 189.114098 219.91172 
L 189.910043 217.041482 
L 192.297877 207.214122 
L 193.093822 205.254379 
L 193.889766 204.590479 
L 194.685711 205.13079 
L 196.2776 207.685679 
L 197.073545 208.202809 
L 197.86949 207.377785 
L 198.665434 204.99887 
L 199.461379 201.277188 
L 201.849213 188.176324 
L 202.645158 185.170553 
L 203.441103 183.272299 
L 204.237047 182.316136 
L 205.032992 181.988377 
L 205.828937 181.979306 
L 207.420826 182.304401 
L 208.216771 182.65981 
L 209.012715 183.219998 
L 210.604605 184.616752 
L 211.400549 184.958531 
L 212.196494 184.666571 
L 212.992439 183.586686 
L 213.788383 181.810988 
L 215.380273 177.817228 
L 216.176218 176.75921 
L 216.972162 176.996572 
L 217.768107 178.724253 
L 218.564052 181.806247 
L 221.74783 197.537392 
L 222.543775 199.77599 
L 223.33972 200.857869 
L 224.135664 200.85565 
L 224.931609 199.946184 
L 225.727554 198.358552 
L 228.911332 190.296703 
L 229.707277 188.974223 
L 230.503222 188.099317 
L 232.095111 186.764347 
L 232.891056 185.487812 
L 233.687001 183.235516 
L 234.482945 179.779579 
L 235.27889 175.200607 
L 236.870779 164.638979 
L 237.666724 160.139425 
L 238.462669 157.090497 
L 239.258613 155.837404 
L 240.054558 156.296583 
L 240.850503 157.978147 
L 242.442392 161.995319 
L 243.238337 162.9968 
L 244.034281 162.956564 
L 244.830226 162.109005 
L 245.626171 161.006325 
L 246.422115 160.314668 
L 247.21806 160.577258 
L 248.014005 162.025672 
L 248.80995 164.501817 
L 250.401839 170.397082 
L 251.197784 172.53103 
L 251.993728 173.513568 
L 252.789673 173.251901 
L 253.585618 171.932065 
L 254.381562 169.892717 
L 255.973452 164.81897 
L 257.565341 158.751686 
L 259.15723 150.859843 
L 260.74912 142.093371 
L 261.545064 138.430696 
L 262.341009 135.795904 
L 263.136954 134.300997 
L 263.932898 133.71928 
L 264.728843 133.550753 
L 265.524788 133.204599 
L 266.320733 132.231898 
L 267.116677 130.516129 
L 268.708567 126.304186 
L 269.504511 125.097378 
L 270.300456 125.246401 
L 271.096401 126.901373 
L 271.892345 129.766754 
L 273.484235 136.418641 
L 274.280179 138.796342 
L 275.076124 140.031325 
L 275.872069 140.226132 
L 278.259903 138.991397 
L 279.055847 139.169083 
L 280.647737 140.130582 
L 281.443682 140.361424 
L 282.239626 140.268377 
L 283.035571 140.03194 
L 283.831516 140.003487 
L 284.62746 140.519512 
L 285.423405 141.693388 
L 287.015294 144.716282 
L 287.811239 145.254034 
L 288.607184 144.282859 
L 289.403128 141.580194 
L 290.995018 132.783274 
L 291.790962 128.631838 
L 292.586907 126.056133 
L 293.382852 125.682588 
L 294.178796 127.507476 
L 296.56663 137.936245 
L 297.362575 139.541029 
L 298.15852 139.197122 
L 298.954465 137.125826 
L 301.342299 128.163185 
L 302.138243 126.736152 
L 302.934188 126.600695 
L 303.730133 127.566295 
L 304.526077 129.290192 
L 306.117967 133.885321 
L 307.709856 139.570671 
L 309.301745 146.584626 
L 310.893635 153.70099 
L 311.689579 156.551452 
L 312.485524 158.667954 
L 313.281469 160.079455 
L 314.077414 160.980281 
L 316.465248 162.869947 
L 317.261192 163.426187 
L 318.057137 163.744247 
L 318.853082 163.715442 
L 320.444971 163.119363 
L 321.240916 163.300907 
L 322.03686 164.412024 
L 322.832805 166.717553 
L 323.62875 170.135866 
L 325.220639 178.170593 
L 326.016584 181.254049 
L 326.812528 182.879702 
L 327.608473 182.902212 
L 328.404418 181.664371 
L 329.200363 179.881041 
L 329.996307 178.379304 
L 330.792252 177.786697 
L 331.588197 178.284483 
L 333.180086 180.74229 
L 333.976031 181.049124 
L 334.771975 179.769446 
L 335.56792 176.728399 
L 337.955754 163.668368 
L 338.751699 161.525672 
L 339.547643 161.739359 
L 340.343588 164.219302 
L 341.935477 172.906403 
L 342.731422 177.028988 
L 343.527367 179.898756 
L 344.323311 181.245519 
L 345.119256 181.291678 
L 346.711146 179.793779 
L 347.50709 179.374109 
L 348.303035 179.516099 
L 350.690869 181.286094 
L 351.486814 181.400074 
L 352.282758 181.175007 
L 353.078703 180.834304 
L 353.874648 180.665239 
L 354.670592 180.880033 
L 355.466537 181.52348 
L 358.650316 185.404724 
L 359.44626 186.457527 
L 360.242205 187.980452 
L 361.03815 190.293595 
L 361.834095 193.537932 
L 364.221929 205.869327 
L 365.017873 208.812823 
L 365.813818 210.23514 
L 366.609763 209.990397 
L 367.405707 208.308038 
L 370.589486 198.131722 
L 371.385431 196.716086 
L 372.181375 195.760155 
L 373.773265 194.146451 
L 374.569209 193.095522 
L 376.161099 190.366261 
L 377.752988 187.132383 
L 379.344878 183.271424 
L 381.732712 176.853677 
L 382.528656 175.519784 
L 383.324601 175.117635 
L 384.120546 175.768375 
L 384.91649 177.34194 
L 387.304324 183.425877 
L 388.100269 184.459113 
L 388.896214 184.695536 
L 389.692158 184.304208 
L 392.079992 182.243805 
L 393.671882 181.453064 
L 395.263771 180.712007 
L 396.059716 180.563527 
L 396.855661 180.967548 
L 397.651605 182.254798 
L 398.44755 184.574061 
L 400.835384 194.421313 
L 401.631329 196.420022 
L 402.427273 196.803131 
L 403.223218 195.552452 
L 405.611052 188.386156 
L 406.406997 187.623799 
L 407.202941 188.349408 
L 409.590775 193.655204 
L 410.38672 193.579142 
L 411.182665 191.742526 
L 411.97861 188.413819 
L 413.570499 180.290011 
L 413.570499 180.290011 
" clip-path="url(#p7bfdb66b55)" style="fill: none; stroke: #e41a1c; stroke-width: 1.5; stroke-linecap: square"/>
   </g>
   <g id="line2d_14">
    <path d="M 46.64 247.338239 
L 47.435945 247.592739 
L 48.231889 247.506354 
L 49.027834 247.031835 
L 49.823779 246.217156 
L 51.415668 244.182494 
L 52.211613 243.367066 
L 53.007557 242.919625 
L 53.803502 242.926535 
L 54.599447 243.385024 
L 55.395392 244.21752 
L 56.987281 246.515432 
L 59.375115 250.084523 
L 63.354838 255.38235 
L 64.946728 257.098496 
L 65.742672 257.638936 
L 66.538617 257.898542 
L 67.334562 257.890663 
L 68.926451 257.49734 
L 69.722396 257.468331 
L 70.51834 257.795605 
L 71.314285 258.574206 
L 72.11023 259.765253 
L 73.702119 262.54162 
L 74.498064 263.525905 
L 75.294009 263.909381 
L 76.089953 263.633519 
L 76.885898 262.84294 
L 78.477787 261.032425 
L 79.273732 260.714408 
L 80.069677 261.047855 
L 80.865621 261.964702 
L 82.457511 264.399864 
L 83.253455 265.221526 
L 84.0494 265.468582 
L 84.845345 265.128861 
L 85.641289 264.354319 
L 87.233179 262.422944 
L 88.825068 260.94286 
L 91.212902 259.237042 
L 92.008847 258.762045 
L 92.804792 258.511826 
L 93.600736 258.614306 
L 94.396681 259.108442 
L 96.784515 261.47313 
L 97.58046 261.783574 
L 98.376404 261.631883 
L 99.172349 261.10836 
L 100.764238 259.84392 
L 101.560183 259.533554 
L 102.356128 259.539352 
L 104.743962 260.111343 
L 105.539907 260.005209 
L 107.131796 259.558916 
L 107.927741 259.611892 
L 108.723685 260.060824 
L 109.51963 260.913876 
L 112.703409 265.246516 
L 114.295298 266.797973 
L 115.091243 267.738947 
L 117.479077 271.317538 
L 118.275021 272.058989 
L 119.070966 272.167838 
L 119.866911 271.593358 
L 120.662856 270.495315 
L 122.254745 268.062117 
L 123.05069 267.364016 
L 123.846634 267.171 
L 125.438524 267.516415 
L 126.234468 267.397632 
L 127.030413 266.742492 
L 127.826358 265.53134 
L 129.418247 262.368794 
L 130.214192 261.096968 
L 131.010136 260.368125 
L 131.806081 260.207429 
L 132.602026 260.449086 
L 133.39797 260.817639 
L 134.193915 261.047968 
L 134.98986 260.993194 
L 137.377694 260.001383 
L 138.173639 260.054816 
L 138.969583 260.468798 
L 140.561473 261.701567 
L 141.357417 261.930405 
L 142.153362 261.544818 
L 142.949307 260.453353 
L 143.745251 258.760738 
L 145.337141 254.747333 
L 146.133085 253.120681 
L 146.92903 252.079229 
L 147.724975 251.67213 
L 148.520919 251.779909 
L 150.112809 252.577326 
L 150.908753 252.808422 
L 151.704698 252.795779 
L 153.296588 252.517534 
L 154.092532 252.737551 
L 154.888477 253.522988 
L 155.684422 254.985975 
L 156.480366 257.057545 
L 158.072256 261.849273 
L 158.8682 263.713239 
L 159.664145 264.675376 
L 160.46009 264.501121 
L 161.256034 263.182472 
L 162.051979 260.94749 
L 163.643868 255.476981 
L 164.439813 253.226892 
L 165.235758 251.810067 
L 166.031702 251.377128 
L 166.827647 251.863721 
L 167.623592 253.02834 
L 169.215481 256.023161 
L 170.011426 257.241749 
L 170.807371 258.055911 
L 171.603315 258.486532 
L 173.195205 258.859418 
L 173.991149 259.24963 
L 174.787094 260.025345 
L 175.583039 261.264687 
L 176.378983 262.935247 
L 179.562762 270.655337 
L 180.358707 271.94163 
L 181.154651 272.778797 
L 181.950596 273.197581 
L 182.746541 273.283917 
L 184.33843 272.910434 
L 186.726264 272.239334 
L 190.705988 271.573775 
L 191.501932 271.529802 
L 192.297877 271.62508 
L 193.093822 271.923957 
L 193.889766 272.465992 
L 194.685711 273.244119 
L 197.073545 276.05856 
L 197.86949 276.662937 
L 198.665434 276.893403 
L 199.461379 276.742969 
L 201.849213 275.537892 
L 202.645158 275.667474 
L 203.441103 276.347433 
L 204.237047 277.545231 
L 205.828937 280.565553 
L 206.624881 281.696877 
L 207.420826 282.152323 
L 208.216771 281.780221 
L 209.012715 280.620312 
L 210.604605 276.898144 
L 211.400549 274.981469 
L 212.196494 273.379413 
L 212.992439 272.194955 
L 213.788383 271.385874 
L 216.176218 269.632477 
L 216.972162 268.805817 
L 218.564052 266.649464 
L 220.951886 263.269754 
L 221.74783 262.400385 
L 222.543775 261.772784 
L 223.33972 261.456806 
L 224.135664 261.500067 
L 224.931609 261.889149 
L 226.523498 263.156408 
L 227.319443 263.528936 
L 228.115388 263.348793 
L 228.911332 262.440215 
L 229.707277 260.818865 
L 232.095111 254.82596 
L 232.891056 253.883017 
L 233.687001 253.894532 
L 234.482945 254.727499 
L 236.074835 257.195186 
L 236.870779 257.877458 
L 237.666724 257.826285 
L 238.462669 257.143869 
L 239.258613 256.227597 
L 240.054558 255.63569 
L 240.850503 255.88884 
L 241.646447 257.278983 
L 242.442392 259.755033 
L 244.830226 268.940358 
L 245.626171 270.733093 
L 246.422115 271.468898 
L 247.21806 271.388848 
L 248.014005 270.983559 
L 248.80995 270.815484 
L 249.605894 271.325135 
L 250.401839 272.68935 
L 251.197784 274.777893 
L 252.789673 279.533618 
L 253.585618 281.317081 
L 254.381562 282.354127 
L 255.177507 282.680502 
L 257.565341 282.301683 
L 258.361286 282.725618 
L 259.15723 283.587983 
L 260.74912 285.847375 
L 261.545064 286.684743 
L 262.341009 287.024625 
L 263.136954 286.786235 
L 263.932898 286.017529 
L 264.728843 284.85721 
L 267.912622 279.39111 
L 268.708567 278.299255 
L 269.504511 277.414221 
L 270.300456 276.7714 
L 271.096401 276.39104 
L 271.892345 276.252176 
L 273.484235 276.288187 
L 274.280179 276.112284 
L 275.076124 275.554124 
L 275.872069 274.498773 
L 276.668013 272.954386 
L 279.055847 267.346571 
L 279.851792 266.067537 
L 280.647737 265.400402 
L 281.443682 265.328798 
L 282.239626 265.695871 
L 283.831516 266.793141 
L 284.62746 267.12158 
L 285.423405 267.201176 
L 287.811239 266.89956 
L 288.607184 267.058193 
L 289.403128 267.458108 
L 290.995018 268.815736 
L 293.382852 271.191068 
L 294.178796 271.840611 
L 294.974741 272.305596 
L 295.770686 272.484329 
L 296.56663 272.274795 
L 297.362575 271.619735 
L 298.15852 270.554844 
L 299.750409 267.923078 
L 300.546354 266.925619 
L 301.342299 266.510052 
L 302.138243 266.813602 
L 302.934188 267.788818 
L 305.322022 271.932028 
L 306.117967 272.595824 
L 306.913911 272.60366 
L 307.709856 272.065733 
L 309.301745 270.557924 
L 310.09769 270.281525 
L 310.893635 270.634568 
L 311.689579 271.631342 
L 314.873358 277.320762 
L 315.669303 277.853957 
L 316.465248 277.893177 
L 318.057137 277.368174 
L 318.853082 277.352148 
L 319.649026 277.751381 
L 320.444971 278.562095 
L 322.03686 280.592155 
L 322.832805 281.191164 
L 323.62875 281.165773 
L 324.424694 280.447044 
L 325.220639 279.169291 
L 326.812528 276.223049 
L 327.608473 275.266054 
L 328.404418 274.94684 
L 329.200363 275.243738 
L 331.588197 277.338902 
L 332.384141 277.524653 
L 333.180086 277.27152 
L 333.976031 276.69038 
L 335.56792 275.271638 
L 337.159809 274.193466 
L 338.751699 273.093844 
L 341.139533 270.924665 
L 341.935477 270.533662 
L 342.731422 270.51895 
L 343.527367 270.850873 
L 345.119256 271.820532 
L 345.915201 271.985794 
L 346.711146 271.737547 
L 347.50709 271.107056 
L 349.09898 269.456649 
L 349.894924 268.88907 
L 350.690869 268.665216 
L 351.486814 268.747596 
L 353.078703 269.232458 
L 353.874648 269.353681 
L 355.466537 269.352707 
L 356.262482 269.500986 
L 357.058426 269.933848 
L 357.854371 270.684965 
L 360.242205 273.631719 
L 361.03815 274.307649 
L 361.834095 274.725038 
L 363.425984 275.136102 
L 365.017873 275.492143 
L 365.813818 275.547931 
L 366.609763 275.340039 
L 367.405707 274.774562 
L 369.793541 272.014508 
L 370.589486 271.637901 
L 371.385431 271.927792 
L 372.181375 272.869638 
L 373.773265 275.613955 
L 374.569209 276.622983 
L 375.365154 276.97296 
L 376.161099 276.605109 
L 376.957043 275.696992 
L 378.548933 273.634947 
L 379.344878 273.090014 
L 380.140822 272.992618 
L 381.732712 273.329878 
L 382.528656 273.160485 
L 383.324601 272.489774 
L 384.120546 271.345761 
L 385.712435 268.647196 
L 386.50838 267.746848 
L 387.304324 267.429684 
L 388.100269 267.662939 
L 389.692158 268.716472 
L 390.488103 268.823314 
L 391.284048 268.296919 
L 392.079992 267.098665 
L 393.671882 263.474794 
L 394.467827 261.684269 
L 395.263771 260.277685 
L 396.059716 259.361286 
L 396.855661 258.870337 
L 398.44755 258.341722 
L 399.243495 257.875167 
L 400.039439 257.147696 
L 401.631329 255.406037 
L 402.427273 254.888269 
L 403.223218 254.93356 
L 404.019163 255.649601 
L 404.815107 256.965178 
L 406.406997 260.286866 
L 407.202941 261.534689 
L 407.998886 262.062564 
L 408.794831 261.717573 
L 409.590775 260.548008 
L 412.774554 253.736934 
L 413.570499 253.221315 
L 413.570499 253.221315 
" clip-path="url(#p7bfdb66b55)" style="fill: none; stroke: #377eb8; stroke-width: 1.5; stroke-linecap: square"/>
   </g>
   <g id="line2d_15">
    <path d="M 87.233179 318.04 
L 87.233179 71.732 
" clip-path="url(#p7bfdb66b55)" style="fill: none; stroke: #000000; stroke-width: 0.5; stroke-linecap: square"/>
   </g>
   <g id="line2d_16">
    <path d="M 46.64 255.392556 
L 413.570499 255.392556 
" clip-path="url(#p7bfdb66b55)" style="fill: none; stroke: #000000; stroke-width: 0.5; stroke-linecap: square"/>
   </g>
   <g id="patch_4">
    <path d="M 46.64 318.04 
L 46.64 71.732 
" style="fill: none; stroke: #000000; stroke-width: 0.8; stroke-linejoin: miter; stroke-linecap: square"/>
   </g>
   <g id="patch_5">
    <path d="M 413.570499 318.04 
L 413.570499 71.732 
" style="fill: none; stroke: #000000; stroke-width: 0.8; stroke-linejoin: miter; stroke-linecap: square"/>
   </g>
   <g id="patch_6">
    <path d="M 46.64 318.04 
L 413.570499 318.04 
" style="fill: none; stroke: #000000; stroke-width: 0.8; stroke-linejoin: miter; stroke-linecap: square"/>
   </g>
   <g id="patch_7">
    <path d="M 46.64 71.732 
L 413.570499 71.732 
" style="fill: none; stroke: #000000; stroke-width: 0.8; stroke-linejoin: miter; stroke-linecap: square"/>
   </g>
   <g id="text_15">
    <!-- Cz -->
    <g transform="translate(222.766499 65.732)scale(0.12 -0.12)">
     <defs>
      <path id="DejaVuSans-43" d="M 4122 4306 
L 4122 3641 
Q 3803 3938 3442 4084 
Q 3081 4231 2675 4231 
Q 1875 4231 1450 3742 
Q 1025 3253 1025 2328 
Q 1025 1406 1450 917 
Q 1875 428 2675 428 
Q 3081 428 3442 575 
Q 3803 722 4122 1019 
L 4122 359 
Q 3791 134 3420 21 
Q 3050 -91 2638 -91 
Q 1578 -91 968 557 
Q 359 1206 359 2328 
Q 359 3453 968 4101 
Q 1578 4750 2638 4750 
Q 3056 4750 3426 4639 
Q 3797 4528 4122 4306 
z
" transform="scale(0.015625)"/>
      <path id="DejaVuSans-7a" d="M 353 3500 
L 3084 3500 
L 3084 2975 
L 922 459 
L 3084 459 
L 3084 0 
L 275 0 
L 275 525 
L 2438 3041 
L 353 3041 
L 353 3500 
z
" transform="scale(0.015625)"/>
     </defs>
     <use xlink:href="#DejaVuSans-43"/>
     <use xlink:href="#DejaVuSans-7a" x="69.824219"/>
    </g>
   </g>
   <g id="legend_1">
    <g id="patch_8">
     <path d="M 99.877906 48.500845 
L 360.332593 48.500845 
Q 362.332593 48.500845 362.332593 46.500845 
L 362.332593 18.144595 
Q 362.332593 16.144595 360.332593 16.144595 
L 99.877906 16.144595 
Q 97.877906 16.144595 97.877906 18.144595 
L 97.877906 46.500845 
Q 97.877906 48.500845 99.877906 48.500845 
z
" style="fill: #ffffff; opacity: 0.8; stroke: #cccccc; stroke-linejoin: miter"/>
    </g>
    <g id="text_16">
     <!-- Average of Session 14 -->
     <g transform="translate(174.545874 27.743033)scale(0.1 -0.1)">
      <defs>
       <path id="DejaVuSans-41" d="M 2188 4044 
L 1331 1722 
L 3047 1722 
L 2188 4044 
z
M 1831 4666 
L 2547 4666 
L 4325 0 
L 3669 0 
L 3244 1197 
L 1141 1197 
L 716 0 
L 50 0 
L 1831 4666 
z
" transform="scale(0.015625)"/>
       <path id="DejaVuSans-76" d="M 191 3500 
L 800 3500 
L 1894 563 
L 2988 3500 
L 3597 3500 
L 2284 0 
L 1503 0 
L 191 3500 
z
" transform="scale(0.015625)"/>
       <path id="DejaVuSans-72" d="M 2631 2963 
Q 2534 3019 2420 3045 
Q 2306 3072 2169 3072 
Q 1681 3072 1420 2755 
Q 1159 2438 1159 1844 
L 1159 0 
L 581 0 
L 581 3500 
L 1159 3500 
L 1159 2956 
Q 1341 3275 1631 3429 
Q 1922 3584 2338 3584 
Q 2397 3584 2469 3576 
Q 2541 3569 2628 3553 
L 2631 2963 
z
" transform="scale(0.015625)"/>
       <path id="DejaVuSans-61" d="M 2194 1759 
Q 1497 1759 1228 1600 
Q 959 1441 959 1056 
Q 959 750 1161 570 
Q 1363 391 1709 391 
Q 2188 391 2477 730 
Q 2766 1069 2766 1631 
L 2766 1759 
L 2194 1759 
z
M 3341 1997 
L 3341 0 
L 2766 0 
L 2766 531 
Q 2569 213 2275 61 
Q 1981 -91 1556 -91 
Q 1019 -91 701 211 
Q 384 513 384 1019 
Q 384 1609 779 1909 
Q 1175 2209 1959 2209 
L 2766 2209 
L 2766 2266 
Q 2766 2663 2505 2880 
Q 2244 3097 1772 3097 
Q 1472 3097 1187 3025 
Q 903 2953 641 2809 
L 641 3341 
Q 956 3463 1253 3523 
Q 1550 3584 1831 3584 
Q 2591 3584 2966 3190 
Q 3341 2797 3341 1997 
z
" transform="scale(0.015625)"/>
       <path id="DejaVuSans-67" d="M 2906 1791 
Q 2906 2416 2648 2759 
Q 2391 3103 1925 3103 
Q 1463 3103 1205 2759 
Q 947 2416 947 1791 
Q 947 1169 1205 825 
Q 1463 481 1925 481 
Q 2391 481 2648 825 
Q 2906 1169 2906 1791 
z
M 3481 434 
Q 3481 -459 3084 -895 
Q 2688 -1331 1869 -1331 
Q 1566 -1331 1297 -1286 
Q 1028 -1241 775 -1147 
L 775 -588 
Q 1028 -725 1275 -790 
Q 1522 -856 1778 -856 
Q 2344 -856 2625 -561 
Q 2906 -266 2906 331 
L 2906 616 
Q 2728 306 2450 153 
Q 2172 0 1784 0 
Q 1141 0 747 490 
Q 353 981 353 1791 
Q 353 2603 747 3093 
Q 1141 3584 1784 3584 
Q 2172 3584 2450 3431 
Q 2728 3278 2906 2969 
L 2906 3500 
L 3481 3500 
L 3481 434 
z
" transform="scale(0.015625)"/>
       <path id="DejaVuSans-20" transform="scale(0.015625)"/>
       <path id="DejaVuSans-66" d="M 2375 4863 
L 2375 4384 
L 1825 4384 
Q 1516 4384 1395 4259 
Q 1275 4134 1275 3809 
L 1275 3500 
L 2222 3500 
L 2222 3053 
L 1275 3053 
L 1275 0 
L 697 0 
L 697 3053 
L 147 3053 
L 147 3500 
L 697 3500 
L 697 3744 
Q 697 4328 969 4595 
Q 1241 4863 1831 4863 
L 2375 4863 
z
" transform="scale(0.015625)"/>
       <path id="DejaVuSans-53" d="M 3425 4513 
L 3425 3897 
Q 3066 4069 2747 4153 
Q 2428 4238 2131 4238 
Q 1616 4238 1336 4038 
Q 1056 3838 1056 3469 
Q 1056 3159 1242 3001 
Q 1428 2844 1947 2747 
L 2328 2669 
Q 3034 2534 3370 2195 
Q 3706 1856 3706 1288 
Q 3706 609 3251 259 
Q 2797 -91 1919 -91 
Q 1588 -91 1214 -16 
Q 841 59 441 206 
L 441 856 
Q 825 641 1194 531 
Q 1563 422 1919 422 
Q 2459 422 2753 634 
Q 3047 847 3047 1241 
Q 3047 1584 2836 1778 
Q 2625 1972 2144 2069 
L 1759 2144 
Q 1053 2284 737 2584 
Q 422 2884 422 3419 
Q 422 4038 858 4394 
Q 1294 4750 2059 4750 
Q 2388 4750 2728 4690 
Q 3069 4631 3425 4513 
z
" transform="scale(0.015625)"/>
       <path id="DejaVuSans-69" d="M 603 3500 
L 1178 3500 
L 1178 0 
L 603 0 
L 603 3500 
z
M 603 4863 
L 1178 4863 
L 1178 4134 
L 603 4134 
L 603 4863 
z
" transform="scale(0.015625)"/>
      </defs>
      <use xlink:href="#DejaVuSans-41"/>
      <use xlink:href="#DejaVuSans-76" x="62.533203"/>
      <use xlink:href="#DejaVuSans-65" x="121.712891"/>
      <use xlink:href="#DejaVuSans-72" x="183.236328"/>
      <use xlink:href="#DejaVuSans-61" x="224.349609"/>
      <use xlink:href="#DejaVuSans-67" x="285.628906"/>
      <use xlink:href="#DejaVuSans-65" x="349.105469"/>
      <use xlink:href="#DejaVuSans-20" x="410.628906"/>
      <use xlink:href="#DejaVuSans-6f" x="442.416016"/>
      <use xlink:href="#DejaVuSans-66" x="503.597656"/>
      <use xlink:href="#DejaVuSans-20" x="538.802734"/>
      <use xlink:href="#DejaVuSans-53" x="570.589844"/>
      <use xlink:href="#DejaVuSans-65" x="634.066406"/>
      <use xlink:href="#DejaVuSans-73" x="695.589844"/>
      <use xlink:href="#DejaVuSans-73" x="747.689453"/>
      <use xlink:href="#DejaVuSans-69" x="799.789062"/>
      <use xlink:href="#DejaVuSans-6f" x="827.572266"/>
      <use xlink:href="#DejaVuSans-6e" x="888.753906"/>
      <use xlink:href="#DejaVuSans-20" x="952.132812"/>
      <use xlink:href="#DejaVuSans-31" x="983.919922"/>
      <use xlink:href="#DejaVuSans-34" x="1047.542969"/>
     </g>
    </g>
    <g id="line2d_17">
     <path d="M 101.877906 38.921158 
L 111.877906 38.921158 
L 121.877906 38.921158 
" style="fill: none; stroke: #e41a1c; stroke-width: 1.5; stroke-linecap: square"/>
    </g>
    <g id="text_17">
     <!-- Target (n=306) -->
     <g transform="translate(129.877906 42.421158)scale(0.1 -0.1)">
      <defs>
       <path id="DejaVuSans-54" d="M -19 4666 
L 3928 4666 
L 3928 4134 
L 2272 4134 
L 2272 0 
L 1638 0 
L 1638 4134 
L -19 4134 
L -19 4666 
z
" transform="scale(0.015625)"/>
       <path id="DejaVuSans-74" d="M 1172 4494 
L 1172 3500 
L 2356 3500 
L 2356 3053 
L 1172 3053 
L 1172 1153 
Q 1172 725 1289 603 
Q 1406 481 1766 481 
L 2356 481 
L 2356 0 
L 1766 0 
Q 1100 0 847 248 
Q 594 497 594 1153 
L 594 3053 
L 172 3053 
L 172 3500 
L 594 3500 
L 594 4494 
L 1172 4494 
z
" transform="scale(0.015625)"/>
       <path id="DejaVuSans-28" d="M 1984 4856 
Q 1566 4138 1362 3434 
Q 1159 2731 1159 2009 
Q 1159 1288 1364 580 
Q 1569 -128 1984 -844 
L 1484 -844 
Q 1016 -109 783 600 
Q 550 1309 550 2009 
Q 550 2706 781 3412 
Q 1013 4119 1484 4856 
L 1984 4856 
z
" transform="scale(0.015625)"/>
       <path id="DejaVuSans-3d" d="M 678 2906 
L 4684 2906 
L 4684 2381 
L 678 2381 
L 678 2906 
z
M 678 1631 
L 4684 1631 
L 4684 1100 
L 678 1100 
L 678 1631 
z
" transform="scale(0.015625)"/>
       <path id="DejaVuSans-29" d="M 513 4856 
L 1013 4856 
Q 1481 4119 1714 3412 
Q 1947 2706 1947 2009 
Q 1947 1309 1714 600 
Q 1481 -109 1013 -844 
L 513 -844 
Q 928 -128 1133 580 
Q 1338 1288 1338 2009 
Q 1338 2731 1133 3434 
Q 928 4138 513 4856 
z
" transform="scale(0.015625)"/>
      </defs>
      <use xlink:href="#DejaVuSans-54"/>
      <use xlink:href="#DejaVuSans-61" x="44.583984"/>
      <use xlink:href="#DejaVuSans-72" x="105.863281"/>
      <use xlink:href="#DejaVuSans-67" x="145.226562"/>
      <use xlink:href="#DejaVuSans-65" x="208.703125"/>
      <use xlink:href="#DejaVuSans-74" x="270.226562"/>
      <use xlink:href="#DejaVuSans-20" x="309.435547"/>
      <use xlink:href="#DejaVuSans-28" x="341.222656"/>
      <use xlink:href="#DejaVuSans-6e" x="380.236328"/>
      <use xlink:href="#DejaVuSans-3d" x="443.615234"/>
      <use xlink:href="#DejaVuSans-33" x="527.404297"/>
      <use xlink:href="#DejaVuSans-30" x="591.027344"/>
      <use xlink:href="#DejaVuSans-36" x="654.650391"/>
      <use xlink:href="#DejaVuSans-29" x="718.273438"/>
     </g>
    </g>
    <g id="line2d_18">
     <path d="M 225.607593 38.921158 
L 235.607593 38.921158 
L 245.607593 38.921158 
" style="fill: none; stroke: #377eb8; stroke-width: 1.5; stroke-linecap: square"/>
    </g>
    <g id="text_18">
     <!-- Non-Target (n=1564) -->
     <g transform="translate(253.607593 42.421158)scale(0.1 -0.1)">
      <defs>
       <path id="DejaVuSans-4e" d="M 628 4666 
L 1478 4666 
L 3547 763 
L 3547 4666 
L 4159 4666 
L 4159 0 
L 3309 0 
L 1241 3903 
L 1241 0 
L 628 0 
L 628 4666 
z
" transform="scale(0.015625)"/>
       <path id="DejaVuSans-2d" d="M 313 2009 
L 1997 2009 
L 1997 1497 
L 313 1497 
L 313 2009 
z
" transform="scale(0.015625)"/>
      </defs>
      <use xlink:href="#DejaVuSans-4e"/>
      <use xlink:href="#DejaVuSans-6f" x="74.804688"/>
      <use xlink:href="#DejaVuSans-6e" x="135.986328"/>
      <use xlink:href="#DejaVuSans-2d" x="199.365234"/>
      <use xlink:href="#DejaVuSans-54" x="226.324219"/>
      <use xlink:href="#DejaVuSans-61" x="270.908203"/>
      <use xlink:href="#DejaVuSans-72" x="332.1875"/>
      <use xlink:href="#DejaVuSans-67" x="371.550781"/>
      <use xlink:href="#DejaVuSans-65" x="435.027344"/>
      <use xlink:href="#DejaVuSans-74" x="496.550781"/>
      <use xlink:href="#DejaVuSans-20" x="535.759766"/>
      <use xlink:href="#DejaVuSans-28" x="567.546875"/>
      <use xlink:href="#DejaVuSans-6e" x="606.560547"/>
      <use xlink:href="#DejaVuSans-3d" x="669.939453"/>
      <use xlink:href="#DejaVuSans-31" x="753.728516"/>
      <use xlink:href="#DejaVuSans-35" x="817.351562"/>
      <use xlink:href="#DejaVuSans-36" x="880.974609"/>
      <use xlink:href="#DejaVuSans-34" x="944.597656"/>
      <use xlink:href="#DejaVuSans-29" x="1008.220703"/>
     </g>
    </g>
   </g>
  </g>
 </g>
 <defs>
  <clipPath id="p7bfdb66b55">
   <rect x="46.64" y="71.732" width="366.930499" height="246.308"/>
  </clipPath>
 </defs>
</svg>
