<?xml version="1.0" encoding="utf-8" standalone="no"?>
<!DOCTYPE svg PUBLIC "-//W3C//DTD SVG 1.1//EN"
  "http://www.w3.org/Graphics/SVG/1.1/DTD/svg11.dtd">
<svg xmlns:xlink="http://www.w3.org/1999/xlink" width="432pt" height="360pt" viewBox="0 0 432 360" xmlns="http://www.w3.org/2000/svg" version="1.1">
 <metadata>
  <rdf:RDF xmlns:dc="http://purl.org/dc/elements/1.1/" xmlns:cc="http://creativecommons.org/ns#" xmlns:rdf="http://www.w3.org/1999/02/22-rdf-syntax-ns#">
   <cc:Work>
    <dc:type rdf:resource="http://purl.org/dc/dcmitype/StillImage"/>
    <dc:date>2022-05-19T11:52:38.252842</dc:date>
    <dc:format>image/svg+xml</dc:format>
    <dc:creator>
     <cc:Agent>
      <dc:title>Matplotlib v3.5.1, https://matplotlib.org/</dc:title>
     </cc:Agent>
    </dc:creator>
   </cc:Work>
  </rdf:RDF>
 </metadata>
 <defs>
  <style type="text/css">*{stroke-linejoin: round; stroke-linecap: butt}</style>
 </defs>
 <g id="figure_1">
  <g id="patch_1">
   <path d="M 0 360 
L 432 360 
L 432 0 
L 0 0 
L 0 360 
z
" style="fill: none"/>
  </g>
  <g id="axes_1">
   <g id="patch_2">
    <path d="M 46.64 318.04 
L 413.570499 318.04 
L 413.570499 71.732 
L 46.64 71.732 
L 46.64 318.04 
z
" style="fill: none"/>
   </g>
   <g id="PolyCollection_1">
    <defs>
     <path id="m83669c3f25" d="M 46.64 -136.820829 
L 46.64 -87.466922 
L 47.435945 -90.403288 
L 48.231889 -91.69237 
L 49.027834 -91.819377 
L 49.823779 -91.717988 
L 50.619723 -92.306555 
L 51.415668 -94.163551 
L 52.211613 -97.503335 
L 53.007557 -102.284697 
L 53.803502 -108.160549 
L 54.599447 -114.345749 
L 55.395392 -119.718963 
L 56.191336 -123.250782 
L 56.987281 -124.50827 
L 57.783226 -123.802507 
L 58.57917 -121.862354 
L 59.375115 -119.39585 
L 60.17106 -116.886709 
L 60.967004 -114.674059 
L 61.762949 -113.086402 
L 62.558894 -112.369184 
L 63.354838 -112.494545 
L 64.150783 -113.133391 
L 64.946728 -113.837817 
L 65.742672 -114.249405 
L 66.538617 -114.167569 
L 67.334562 -113.513012 
L 68.130506 -112.372298 
L 68.926451 -111.156383 
L 69.722396 -110.560364 
L 70.51834 -111.161727 
L 71.314285 -112.983615 
L 72.11023 -115.333782 
L 72.906175 -116.995559 
L 73.702119 -116.764731 
L 74.498064 -114.123928 
L 75.294009 -109.492964 
L 76.089953 -103.852915 
L 76.885898 -98.242102 
L 77.681843 -93.467329 
L 78.477787 -90.015468 
L 79.273732 -88.063151 
L 80.069677 -87.485448 
L 80.865621 -87.850908 
L 81.661566 -88.485364 
L 82.457511 -88.651927 
L 83.253455 -87.798276 
L 84.0494 -85.768366 
L 84.845345 -82.861005 
L 85.641289 -79.670967 
L 86.437234 -76.791134 
L 87.233179 -74.555317 
L 88.029124 -72.961362 
L 88.825068 -71.793764 
L 89.621013 -70.84197 
L 90.416958 -70.060789 
L 91.212902 -69.598739 
L 92.008847 -69.73954 
L 92.804792 -70.824527 
L 93.600736 -73.161673 
L 94.396681 -76.895743 
L 95.192626 -81.870281 
L 95.98857 -87.578705 
L 96.784515 -93.279457 
L 97.58046 -98.246008 
L 98.376404 -102.019167 
L 99.172349 -104.518751 
L 99.968294 -105.976892 
L 100.764238 -106.770418 
L 101.560183 -107.249754 
L 102.356128 -107.615336 
L 103.152073 -107.859749 
L 103.948017 -107.791374 
L 104.743962 -107.140832 
L 105.539907 -105.70542 
L 106.335851 -103.453776 
L 107.131796 -100.539383 
L 107.927741 -97.233282 
L 108.723685 -93.823947 
L 109.51963 -90.529851 
L 110.315575 -87.456238 
L 111.111519 -84.616885 
L 111.907464 -82.013747 
L 112.703409 -79.718739 
L 113.499353 -77.886128 
L 114.295298 -76.676723 
L 115.091243 -76.145529 
L 115.887187 -76.173164 
L 116.683132 -76.49541 
L 117.479077 -76.810214 
L 118.275021 -76.868319 
L 119.070966 -76.484995 
L 119.866911 -75.528034 
L 120.662856 -73.965367 
L 121.4588 -71.948561 
L 122.254745 -69.819655 
L 123.05069 -67.979481 
L 123.846634 -66.686679 
L 124.642579 -65.918552 
L 125.438524 -65.372562 
L 126.234468 -64.596191 
L 127.030413 -63.18174 
L 127.826358 -60.963826 
L 128.622302 -58.161014 
L 129.418247 -55.386456 
L 130.214192 -53.473125 
L 131.010136 -53.155818 
L 131.806081 -54.756123 
L 132.602026 -58.029311 
L 133.39797 -62.229661 
L 134.193915 -66.321674 
L 134.98986 -69.240768 
L 135.785805 -70.172855 
L 136.581749 -68.835561 
L 137.377694 -65.676324 
L 138.173639 -61.845627 
L 138.969583 -58.854827 
L 139.765528 -58.011895 
L 140.561473 -59.901013 
L 141.357417 -64.165214 
L 142.153362 -69.681813 
L 142.949307 -75.017212 
L 143.745251 -78.931877 
L 144.541196 -80.741342 
L 145.337141 -80.466677 
L 146.133085 -78.792833 
L 146.92903 -76.842344 
L 147.724975 -75.766578 
L 148.520919 -76.272461 
L 149.316864 -78.326058 
L 150.112809 -81.207892 
L 150.908753 -83.885137 
L 151.704698 -85.495493 
L 152.500643 -85.704642 
L 153.296588 -84.792376 
L 154.092532 -83.462178 
L 154.888477 -82.48377 
L 155.684422 -82.347028 
L 156.480366 -83.102087 
L 157.276311 -84.439281 
L 158.072256 -85.888635 
L 158.8682 -86.981323 
L 159.664145 -87.336225 
L 160.46009 -86.723175 
L 161.256034 -85.139829 
L 162.051979 -82.872183 
L 162.847924 -80.439934 
L 163.643868 -78.377733 
L 164.439813 -76.992904 
L 165.235758 -76.316299 
L 166.031702 -76.287479 
L 166.827647 -76.982879 
L 167.623592 -78.660342 
L 168.419537 -81.591855 
L 169.215481 -85.845299 
L 170.011426 -91.172118 
L 170.807371 -97.037306 
L 171.603315 -102.729597 
L 172.39926 -107.485053 
L 173.195205 -110.619948 
L 173.991149 -111.701227 
L 174.787094 -110.731867 
L 175.583039 -108.237639 
L 176.378983 -105.13025 
L 177.174928 -102.369828 
L 177.970873 -100.617399 
L 178.766817 -100.061021 
L 179.562762 -100.4558 
L 180.358707 -101.297498 
L 181.154651 -102.028305 
L 181.950596 -102.215977 
L 182.746541 -101.676648 
L 183.542485 -100.503843 
L 184.33843 -98.973517 
L 185.134375 -97.362787 
L 185.93032 -95.798075 
L 186.726264 -94.23419 
L 187.522209 -92.551498 
L 188.318154 -90.669578 
L 189.114098 -88.612305 
L 189.910043 -86.545036 
L 190.705988 -84.811321 
L 191.501932 -83.926101 
L 192.297877 -84.441562 
L 193.093822 -86.680612 
L 193.889766 -90.482667 
L 194.685711 -95.160921 
L 195.481656 -99.742474 
L 196.2776 -103.344528 
L 197.073545 -105.447139 
L 197.86949 -105.966915 
L 198.665434 -105.212884 
L 199.461379 -103.805289 
L 200.257324 -102.540266 
L 201.053269 -102.153696 
L 201.849213 -103.028273 
L 202.645158 -104.99904 
L 203.441103 -107.399955 
L 204.237047 -109.348774 
L 205.032992 -110.114642 
L 205.828937 -109.379619 
L 206.624881 -107.307722 
L 207.420826 -104.452893 
L 208.216771 -101.571681 
L 209.012715 -99.395993 
L 209.80866 -98.430051 
L 210.604605 -98.843915 
L 211.400549 -100.496911 
L 212.196494 -103.055193 
L 212.992439 -106.130524 
L 213.788383 -109.384759 
L 214.584328 -112.580095 
L 215.380273 -115.571015 
L 216.176218 -118.239064 
L 216.972162 -120.396212 
L 217.768107 -121.717128 
L 218.564052 -121.758086 
L 219.359996 -120.069656 
L 220.155941 -116.359687 
L 220.951886 -110.648459 
L 221.74783 -103.360392 
L 222.543775 -95.296005 
L 223.33972 -87.455903 
L 224.135664 -80.772699 
L 224.931609 -75.884723 
L 225.727554 -73.064568 
L 226.523498 -72.295475 
L 227.319443 -73.379054 
L 228.115388 -75.980978 
L 228.911332 -79.642789 
L 229.707277 -83.841803 
L 230.503222 -88.112986 
L 231.299166 -92.151876 
L 232.095111 -95.808263 
L 232.891056 -98.98281 
L 233.687001 -101.540861 
L 234.482945 -103.332424 
L 235.27889 -104.284999 
L 236.074835 -104.466333 
L 236.870779 -104.07822 
L 237.666724 -103.437702 
L 238.462669 -102.994986 
L 239.258613 -103.34756 
L 240.054558 -105.155983 
L 240.850503 -108.928142 
L 241.646447 -114.765892 
L 242.442392 -122.226015 
L 243.238337 -130.382679 
L 244.034281 -138.06525 
L 244.830226 -144.176909 
L 245.626171 -147.998156 
L 246.422115 -149.398765 
L 247.21806 -148.890897 
L 248.014005 -147.483537 
L 248.80995 -146.36909 
L 249.605894 -146.551235 
L 250.401839 -148.549777 
L 251.197784 -152.275863 
L 251.993728 -157.099209 
L 252.789673 -162.075487 
L 253.585618 -166.268717 
L 254.381562 -169.07093 
L 255.177507 -170.403167 
L 255.973452 -170.711923 
L 256.769396 -170.758485 
L 257.565341 -171.292969 
L 258.361286 -172.753493 
L 259.15723 -175.109908 
L 259.953175 -177.899846 
L 260.74912 -180.422938 
L 261.545064 -182.004601 
L 262.341009 -182.230333 
L 263.136954 -181.074241 
L 263.932898 -178.88475 
L 264.728843 -176.241448 
L 265.524788 -173.748427 
L 266.320733 -171.852697 
L 267.116677 -170.75134 
L 267.912622 -170.394607 
L 268.708567 -170.550262 
L 269.504511 -170.896012 
L 270.300456 -171.129158 
L 271.096401 -171.08272 
L 271.892345 -170.806301 
L 272.68829 -170.553155 
L 273.484235 -170.663645 
L 274.280179 -171.417348 
L 275.076124 -172.94522 
L 275.872069 -175.224035 
L 276.668013 -178.102763 
L 277.463958 -181.318582 
L 278.259903 -184.522545 
L 279.055847 -187.355858 
L 279.851792 -189.565445 
L 280.647737 -191.087059 
L 281.443682 -192.033925 
L 282.239626 -192.605938 
L 283.035571 -192.991664 
L 283.831516 -193.309401 
L 284.62746 -193.569953 
L 285.423405 -193.6398 
L 286.21935 -193.246835 
L 287.015294 -192.094801 
L 287.811239 -190.066907 
L 288.607184 -187.379512 
L 289.403128 -184.546898 
L 290.199073 -182.170557 
L 290.995018 -180.704594 
L 291.790962 -180.334796 
L 292.586907 -180.98834 
L 293.382852 -182.392715 
L 294.178796 -184.122343 
L 294.974741 -185.667156 
L 295.770686 -186.573338 
L 296.56663 -186.601145 
L 297.362575 -185.773326 
L 298.15852 -184.280384 
L 298.954465 -182.35671 
L 299.750409 -180.246952 
L 300.546354 -178.241704 
L 301.342299 -176.656507 
L 302.138243 -175.7007 
L 302.934188 -175.342971 
L 303.730133 -175.31402 
L 304.526077 -175.244924 
L 305.322022 -174.795668 
L 306.117967 -173.677253 
L 306.913911 -171.644512 
L 307.709856 -168.580964 
L 308.505801 -164.669192 
L 309.301745 -160.500403 
L 310.09769 -156.960868 
L 310.893635 -154.879809 
L 311.689579 -154.61651 
L 312.485524 -155.821016 
L 313.281469 -157.495501 
L 314.077414 -158.328677 
L 314.873358 -157.170182 
L 315.669303 -153.477554 
L 316.465248 -147.583108 
L 317.261192 -140.674069 
L 318.057137 -134.461605 
L 318.853082 -130.628802 
L 319.649026 -130.2489 
L 320.444971 -133.390511 
L 321.240916 -139.055335 
L 322.03686 -145.470823 
L 322.832805 -150.64878 
L 323.62875 -153.046921 
L 324.424694 -152.12449 
L 325.220639 -148.569545 
L 326.016584 -144.04961 
L 326.812528 -140.545904 
L 327.608473 -139.574738 
L 328.404418 -141.67291 
L 329.200363 -146.33856 
L 329.996307 -152.321985 
L 330.792252 -158.034641 
L 331.588197 -161.956345 
L 332.384141 -163.02778 
L 333.180086 -160.981721 
L 333.976031 -156.476308 
L 334.771975 -150.874615 
L 335.56792 -145.686451 
L 336.363865 -141.96038 
L 337.159809 -139.974388 
L 337.955754 -139.346258 
L 338.751699 -139.404365 
L 339.547643 -139.549073 
L 340.343588 -139.440004 
L 341.139533 -139.016211 
L 341.935477 -138.424331 
L 342.731422 -137.896943 
L 343.527367 -137.597273 
L 344.323311 -137.478514 
L 345.119256 -137.24465 
L 345.915201 -136.469672 
L 346.711146 -134.835709 
L 347.50709 -132.361489 
L 348.303035 -129.482696 
L 349.09898 -126.93065 
L 349.894924 -125.474233 
L 350.690869 -125.65354 
L 351.486814 -127.611966 
L 352.282758 -131.065487 
L 353.078703 -135.389673 
L 353.874648 -139.785827 
L 354.670592 -143.490972 
L 355.466537 -145.982592 
L 356.262482 -147.102617 
L 357.058426 -147.040652 
L 357.854371 -146.192051 
L 358.650316 -144.977673 
L 359.44626 -143.714152 
L 360.242205 -142.571623 
L 361.03815 -141.604794 
L 361.834095 -140.817549 
L 362.630039 -140.215298 
L 363.425984 -139.811771 
L 364.221929 -139.59498 
L 365.017873 -139.499111 
L 365.813818 -139.423772 
L 366.609763 -139.281307 
L 367.405707 -139.01393 
L 368.201652 -138.568103 
L 368.997597 -137.885276 
L 369.793541 -136.965424 
L 370.589486 -135.96867 
L 371.385431 -135.22859 
L 372.181375 -135.091917 
L 372.97732 -135.677457 
L 373.773265 -136.75277 
L 374.569209 -137.822926 
L 375.365154 -138.342964 
L 376.161099 -137.90631 
L 376.957043 -136.352208 
L 377.752988 -133.825724 
L 378.548933 -130.802707 
L 379.344878 -128.01464 
L 380.140822 -126.210368 
L 380.936767 -125.822981 
L 381.732712 -126.739387 
L 382.528656 -128.337964 
L 383.324601 -129.782469 
L 384.120546 -130.39457 
L 384.91649 -129.911231 
L 385.712435 -128.552863 
L 386.50838 -126.938269 
L 387.304324 -125.900045 
L 388.100269 -126.230962 
L 388.896214 -128.401291 
L 389.692158 -132.335196 
L 390.488103 -137.360429 
L 391.284048 -142.390377 
L 392.079992 -146.277007 
L 392.875937 -148.174967 
L 393.671882 -147.762122 
L 394.467827 -145.26379 
L 395.263771 -141.331951 
L 396.059716 -136.860337 
L 396.855661 -132.7857 
L 397.651605 -129.895368 
L 398.44755 -128.666341 
L 399.243495 -129.183343 
L 400.039439 -131.17495 
L 400.835384 -134.149159 
L 401.631329 -137.545171 
L 402.427273 -140.820317 
L 403.223218 -143.474609 
L 404.019163 -145.087176 
L 404.815107 -145.415749 
L 405.611052 -144.525375 
L 406.406997 -142.852048 
L 407.202941 -141.1253 
L 407.998886 -140.157491 
L 408.794831 -140.585406 
L 409.590775 -142.66702 
L 410.38672 -146.199326 
L 411.182665 -150.568952 
L 411.97861 -154.907383 
L 412.774554 -158.306639 
L 413.570499 -160.047032 
L 413.570499 -260.006764 
L 413.570499 -260.006764 
L 412.774554 -258.679911 
L 411.97861 -256.045999 
L 411.182665 -252.695307 
L 410.38672 -249.369536 
L 409.590775 -246.755998 
L 408.794831 -245.277806 
L 407.998886 -244.977047 
L 407.202941 -245.539773 
L 406.406997 -246.43056 
L 405.611052 -247.056016 
L 404.815107 -246.893921 
L 404.019163 -245.582935 
L 403.223218 -243.002594 
L 402.427273 -239.34302 
L 401.631329 -235.112285 
L 400.835384 -231.034474 
L 400.039439 -227.860569 
L 399.243495 -226.180228 
L 398.44755 -226.314408 
L 397.651605 -228.288593 
L 396.855661 -231.826925 
L 396.059716 -236.339999 
L 395.263771 -240.955221 
L 394.467827 -244.65835 
L 393.671882 -246.546306 
L 392.875937 -246.099884 
L 392.079992 -243.35414 
L 391.284048 -238.893029 
L 390.488103 -233.680212 
L 389.692158 -228.798856 
L 388.896214 -225.176581 
L 388.100269 -223.348673 
L 387.304324 -223.311961 
L 386.50838 -224.531801 
L 385.712435 -226.136224 
L 384.91649 -227.251437 
L 384.120546 -227.345453 
L 383.324601 -226.418984 
L 382.528656 -224.95259 
L 381.732712 -223.658227 
L 380.936767 -223.189172 
L 380.140822 -223.93943 
L 379.344878 -225.956165 
L 378.548933 -228.927009 
L 377.752988 -232.23075 
L 376.957043 -235.088057 
L 376.161099 -236.822482 
L 375.365154 -237.130651 
L 374.569209 -236.19601 
L 373.773265 -234.56904 
L 372.97732 -232.905435 
L 372.181375 -231.737126 
L 371.385431 -231.371657 
L 370.589486 -231.876915 
L 369.793541 -233.075372 
L 368.997597 -234.563816 
L 368.201652 -235.838214 
L 367.405707 -236.516069 
L 366.609763 -236.517314 
L 365.813818 -236.073047 
L 365.017873 -235.56786 
L 364.221929 -235.341863 
L 363.425984 -235.583131 
L 362.630039 -236.339897 
L 361.834095 -237.582311 
L 361.03815 -239.237222 
L 360.242205 -241.179565 
L 359.44626 -243.210298 
L 358.650316 -245.053109 
L 357.854371 -246.383034 
L 357.058426 -246.8831 
L 356.262482 -246.311964 
L 355.466537 -244.560761 
L 354.670592 -241.690743 
L 353.874648 -237.959077 
L 353.078703 -233.826165 
L 352.282758 -229.905365 
L 351.486814 -226.825152 
L 350.690869 -225.03965 
L 349.894924 -224.679919 
L 349.09898 -225.524743 
L 348.303035 -227.099591 
L 347.50709 -228.84751 
L 346.711146 -230.299158 
L 345.915201 -231.193223 
L 345.119256 -231.527095 
L 344.323311 -231.528974 
L 343.527367 -231.549449 
L 342.731422 -231.895946 
L 341.935477 -232.673013 
L 341.139533 -233.717112 
L 340.343588 -234.692961 
L 339.547643 -235.329965 
L 338.751699 -235.664037 
L 337.955754 -236.112694 
L 337.159809 -237.308473 
L 336.363865 -239.785147 
L 335.56792 -243.701685 
L 334.771975 -248.72017 
L 333.976031 -254.026934 
L 333.180086 -258.448028 
L 332.384141 -260.680624 
L 331.588197 -259.704666 
L 330.792252 -255.295944 
L 329.996307 -248.347225 
L 329.200363 -240.711715 
L 328.404418 -234.546554 
L 327.608473 -231.453951 
L 326.812528 -231.872094 
L 326.016584 -234.998628 
L 325.220639 -239.180036 
L 324.424694 -242.514428 
L 323.62875 -243.458445 
L 322.832805 -241.316388 
L 322.03686 -236.502633 
L 321.240916 -230.454411 
L 320.444971 -225.15582 
L 319.649026 -222.420777 
L 318.853082 -223.22966 
L 318.057137 -227.399175 
L 317.261192 -233.700248 
L 316.465248 -240.341223 
L 315.669303 -245.608492 
L 314.873358 -248.429192 
L 314.077414 -248.670089 
L 313.281469 -247.087799 
L 312.485524 -244.972489 
L 311.689579 -243.644304 
L 310.893635 -244.013694 
L 310.09769 -246.360401 
L 309.301745 -250.352267 
L 308.505801 -255.2177 
L 307.709856 -259.981834 
L 306.913911 -263.7364 
L 306.117967 -265.918497 
L 305.322022 -266.502337 
L 304.526077 -265.979971 
L 303.730133 -265.100483 
L 302.934188 -264.505095 
L 302.138243 -264.499404 
L 301.342299 -265.089538 
L 300.546354 -266.156476 
L 299.750409 -267.554306 
L 298.954465 -269.07543 
L 298.15852 -270.409076 
L 297.362575 -271.217015 
L 296.56663 -271.286036 
L 295.770686 -270.616001 
L 294.974741 -269.385586 
L 294.178796 -267.877091 
L 293.382852 -266.448143 
L 292.586907 -265.512921 
L 291.790962 -265.439255 
L 290.995018 -266.377656 
L 290.199073 -268.162356 
L 289.403128 -270.38841 
L 288.607184 -272.608927 
L 287.811239 -274.49946 
L 287.015294 -275.894761 
L 286.21935 -276.741046 
L 285.423405 -277.072182 
L 284.62746 -277.033095 
L 283.831516 -276.864213 
L 283.035571 -276.788854 
L 282.239626 -276.868344 
L 281.443682 -276.948152 
L 280.647737 -276.740447 
L 279.851792 -275.965071 
L 279.055847 -274.446124 
L 278.259903 -272.143954 
L 277.463958 -269.168917 
L 276.668013 -265.795689 
L 275.872069 -262.43616 
L 275.076124 -259.533068 
L 274.280179 -257.409934 
L 273.484235 -256.170612 
L 272.68829 -255.707839 
L 271.892345 -255.784823 
L 271.096401 -256.112401 
L 270.300456 -256.401002 
L 269.504511 -256.42968 
L 268.708567 -256.146653 
L 267.912622 -255.735369 
L 267.116677 -255.563557 
L 266.320733 -256.009753 
L 265.524788 -257.256125 
L 264.728843 -259.16359 
L 263.932898 -261.288228 
L 263.136954 -263.017499 
L 262.341009 -263.766842 
L 261.545064 -263.178752 
L 260.74912 -261.266499 
L 259.953175 -258.440195 
L 259.15723 -255.378302 
L 258.361286 -252.77478 
L 257.565341 -251.062793 
L 256.769396 -250.236771 
L 255.973452 -249.848469 
L 255.177507 -249.173619 
L 254.381562 -247.484048 
L 253.585618 -244.335882 
L 252.789673 -239.783358 
L 251.993728 -234.435936 
L 251.197784 -229.306862 
L 250.401839 -225.473873 
L 249.605894 -223.66936 
L 248.80995 -223.975671 
L 248.014005 -225.762213 
L 247.21806 -227.880378 
L 246.422115 -229.021402 
L 245.626171 -228.107683 
L 244.830226 -224.607145 
L 244.034281 -218.684663 
L 243.238337 -211.13653 
L 242.442392 -203.123364 
L 241.646447 -195.809603 
L 240.850503 -190.06197 
L 240.054558 -186.302205 
L 239.258613 -184.500682 
L 238.462669 -184.245043 
L 237.666724 -184.856949 
L 236.870779 -185.575915 
L 236.074835 -185.787448 
L 235.27889 -185.18839 
L 234.482945 -183.785223 
L 233.687001 -181.736869 
L 232.891056 -179.177722 
L 232.095111 -176.158489 
L 231.299166 -172.706484 
L 230.503222 -168.893197 
L 229.707277 -164.839234 
L 228.911332 -160.706848 
L 228.115388 -156.755607 
L 227.319443 -153.430418 
L 226.523498 -151.359848 
L 225.727554 -151.189681 
L 224.931609 -153.321491 
L 224.135664 -157.727473 
L 223.33972 -163.953182 
L 222.543775 -171.258975 
L 221.74783 -178.779889 
L 220.951886 -185.651812 
L 220.155941 -191.132417 
L 219.359996 -194.736774 
L 218.564052 -196.339855 
L 217.768107 -196.175283 
L 216.972162 -194.718873 
L 216.176218 -192.515649 
L 215.380273 -190.022559 
L 214.584328 -187.512359 
L 213.788383 -185.06458 
L 212.992439 -182.652665 
L 212.196494 -180.289444 
L 211.400549 -178.140184 
L 210.604605 -176.520151 
L 209.80866 -175.769771 
L 209.012715 -176.079662 
L 208.216771 -177.361672 
L 207.420826 -179.229572 
L 206.624881 -181.10222 
L 205.828937 -182.399016 
L 205.032992 -182.757749 
L 204.237047 -182.175285 
L 203.441103 -180.994362 
L 202.645158 -179.749814 
L 201.849213 -178.965956 
L 201.053269 -178.983093 
L 200.257324 -179.834013 
L 199.461379 -181.18077 
L 198.665434 -182.355214 
L 197.86949 -182.554104 
L 197.073545 -181.16317 
L 196.2776 -178.060192 
L 195.481656 -173.70485 
L 194.685711 -168.942056 
L 193.889766 -164.653746 
L 193.093822 -161.490793 
L 192.297877 -159.784083 
L 191.501932 -159.557837 
L 190.705988 -160.558605 
L 189.910043 -162.309014 
L 189.114098 -164.245179 
L 188.318154 -165.932854 
L 187.522209 -167.245905 
L 186.726264 -168.374574 
L 185.93032 -169.647987 
L 185.134375 -171.29655 
L 184.33843 -173.312442 
L 183.542485 -175.46369 
L 182.746541 -177.401793 
L 181.950596 -178.78895 
L 181.154651 -179.418499 
L 180.358707 -179.313849 
L 179.562762 -178.758845 
L 178.766817 -178.21161 
L 177.970873 -178.121132 
L 177.174928 -178.74004 
L 176.378983 -180.027552 
L 175.583039 -181.66404 
L 174.787094 -183.129003 
L 173.991149 -183.798211 
L 173.195205 -183.07989 
L 172.39926 -180.614757 
L 171.603315 -176.457898 
L 170.807371 -171.098724 
L 170.011426 -165.272436 
L 169.215481 -159.673135 
L 168.419537 -154.750678 
L 167.623592 -150.700327 
L 166.827647 -147.596901 
L 166.031702 -145.521138 
L 165.235758 -144.564042 
L 164.439813 -144.742632 
L 163.643868 -145.956636 
L 162.847924 -148.023664 
L 162.051979 -150.689086 
L 161.256034 -153.541899 
L 160.46009 -155.943486 
L 159.664145 -157.157955 
L 158.8682 -156.699641 
L 158.072256 -154.664905 
L 157.276311 -151.788715 
L 156.480366 -149.153278 
L 155.684422 -147.702214 
L 154.888477 -147.840949 
L 154.092532 -149.32484 
L 153.296588 -151.422214 
L 152.500643 -153.22022 
L 151.704698 -153.957655 
L 150.908753 -153.293128 
L 150.112809 -151.421637 
L 149.316864 -148.993091 
L 148.520919 -146.864924 
L 147.724975 -145.782076 
L 146.92903 -146.087155 
L 146.133085 -147.54303 
L 145.337141 -149.34214 
L 144.541196 -150.368201 
L 143.745251 -149.671873 
L 142.949307 -146.936859 
L 142.153362 -142.661903 
L 141.357417 -137.957846 
L 140.561473 -134.090605 
L 139.765528 -132.008497 
L 138.969583 -132.039031 
L 138.173639 -133.816788 
L 137.377694 -136.411745 
L 136.581749 -138.602071 
L 135.785805 -139.249494 
L 134.98986 -137.708565 
L 134.193915 -134.112476 
L 133.39797 -129.356795 
L 132.602026 -124.740378 
L 131.806081 -121.431832 
L 131.010136 -120.048648 
L 130.214192 -120.547943 
L 129.418247 -122.401094 
L 128.622302 -124.882179 
L 127.826358 -127.325683 
L 127.030413 -129.298485 
L 126.234468 -130.679366 
L 125.438524 -131.632407 
L 124.642579 -132.468697 
L 123.846634 -133.457093 
L 123.05069 -134.695299 
L 122.254745 -136.103844 
L 121.4588 -137.504358 
L 120.662856 -138.700627 
L 119.866911 -139.529251 
L 119.070966 -139.911321 
L 118.275021 -139.919721 
L 117.479077 -139.795843 
L 116.683132 -139.840138 
L 115.887187 -140.221306 
L 115.091243 -140.867764 
L 114.295298 -141.549639 
L 113.499353 -142.080493 
L 112.703409 -142.480233 
L 111.907464 -142.997588 
L 111.111519 -143.994478 
L 110.315575 -145.773723 
L 109.51963 -148.447086 
L 108.723685 -151.887285 
L 107.927741 -155.751411 
L 107.131796 -159.560933 
L 106.335851 -162.831304 
L 105.539907 -165.214695 
L 104.743962 -166.590919 
L 103.948017 -167.063568 
L 103.152073 -166.874839 
L 102.356128 -166.288146 
L 101.560183 -165.479445 
L 100.764238 -164.460561 
L 99.968294 -163.061462 
L 99.172349 -160.997876 
L 98.376404 -158.00903 
L 97.58046 -153.992869 
L 96.784515 -149.063914 
L 95.98857 -143.527664 
L 95.192626 -137.821658 
L 94.396681 -132.450185 
L 93.600736 -127.894151 
L 92.804792 -124.487491 
L 92.008847 -122.30575 
L 91.212902 -121.15294 
L 90.416958 -120.694166 
L 89.621013 -120.660711 
L 88.825068 -120.975056 
L 88.029124 -121.710747 
L 87.233179 -122.949293 
L 86.437234 -124.665999 
L 85.641289 -126.708835 
L 84.845345 -128.837326 
L 84.0494 -130.76559 
L 83.253455 -132.192337 
L 82.457511 -132.856681 
L 81.661566 -132.665046 
L 80.865621 -131.840565 
L 80.069677 -130.963554 
L 79.273732 -130.819753 
L 78.477787 -132.088451 
L 77.681843 -135.00475 
L 76.885898 -139.192813 
L 76.089953 -143.806903 
L 75.294009 -147.919172 
L 74.498064 -150.933733 
L 73.702119 -152.767813 
L 72.906175 -153.633903 
L 72.11023 -153.671687 
L 71.314285 -152.93159 
L 70.51834 -151.61267 
L 69.722396 -150.156517 
L 68.926451 -149.139672 
L 68.130506 -149.03717 
L 67.334562 -149.925476 
L 66.538617 -151.366303 
L 65.742672 -152.698825 
L 64.946728 -153.472555 
L 64.150783 -153.623123 
L 63.354838 -153.386061 
L 62.558894 -153.158129 
L 61.762949 -153.414911 
L 60.967004 -154.609098 
L 60.17106 -156.938103 
L 59.375115 -160.075401 
L 58.57917 -163.173827 
L 57.783226 -165.236503 
L 56.987281 -165.559313 
L 56.191336 -163.927753 
L 55.395392 -160.497247 
L 54.599447 -155.595577 
L 53.803502 -149.750157 
L 53.007557 -143.835396 
L 52.211613 -138.985904 
L 51.415668 -136.158033 
L 50.619723 -135.596418 
L 49.823779 -136.673651 
L 49.027834 -138.251938 
L 48.231889 -139.215563 
L 47.435945 -138.825054 
L 46.64 -136.820829 
z
" style="stroke: #e41a1c; stroke-opacity: 0.3"/>
    </defs>
    <g clip-path="url(#p568aa5cfd3)">
     <use xlink:href="#m83669c3f25" x="0" y="360" style="fill: #e41a1c; fill-opacity: 0.3; stroke: #e41a1c; stroke-opacity: 0.3"/>
    </g>
   </g>
   <g id="PolyCollection_2">
    <defs>
     <path id="m6a4310b3de" d="M 46.64 -140.115834 
L 46.64 -118.38166 
L 47.435945 -118.341461 
L 48.231889 -119.043336 
L 49.027834 -120.07795 
L 49.823779 -120.949152 
L 50.619723 -121.244431 
L 51.415668 -120.771455 
L 52.211613 -119.615046 
L 53.007557 -118.09552 
L 53.803502 -116.640704 
L 54.599447 -115.618054 
L 55.395392 -115.198251 
L 56.191336 -115.313317 
L 56.987281 -115.722732 
L 57.783226 -116.143357 
L 58.57917 -116.376455 
L 59.375115 -116.383446 
L 60.17106 -116.293216 
L 60.967004 -116.343402 
L 61.762949 -116.767086 
L 62.558894 -117.656249 
L 63.354838 -118.865726 
L 64.150783 -120.023502 
L 64.946728 -120.661309 
L 65.742672 -120.409286 
L 66.538617 -119.161164 
L 67.334562 -117.135729 
L 68.130506 -114.814903 
L 68.926451 -112.787407 
L 69.722396 -111.556071 
L 70.51834 -111.381495 
L 71.314285 -112.224653 
L 72.11023 -113.797548 
L 72.906175 -115.664579 
L 73.702119 -117.339466 
L 74.498064 -118.379614 
L 75.294009 -118.49228 
L 76.089953 -117.628872 
L 76.885898 -116.008078 
L 77.681843 -114.02656 
L 78.477787 -112.097003 
L 79.273732 -110.508984 
L 80.069677 -109.38166 
L 80.865621 -108.70564 
L 81.661566 -108.40873 
L 82.457511 -108.385297 
L 83.253455 -108.496369 
L 84.0494 -108.583314 
L 84.845345 -108.511482 
L 85.641289 -108.219471 
L 86.437234 -107.733373 
L 87.233179 -107.132678 
L 88.029124 -106.500227 
L 88.825068 -105.897565 
L 89.621013 -105.373378 
L 90.416958 -104.979331 
L 91.212902 -104.766221 
L 92.008847 -104.759928 
L 92.804792 -104.94092 
L 93.600736 -105.249435 
L 94.396681 -105.615399 
L 95.192626 -105.990701 
L 95.98857 -106.363505 
L 96.784515 -106.754829 
L 97.58046 -107.209167 
L 98.376404 -107.782665 
L 99.172349 -108.521788 
L 99.968294 -109.429996 
L 100.764238 -110.435779 
L 101.560183 -111.384972 
L 102.356128 -112.073529 
L 103.152073 -112.31801 
L 103.948017 -112.03969 
L 104.743962 -111.32455 
L 105.539907 -110.424758 
L 106.335851 -109.690608 
L 107.131796 -109.453113 
L 107.927741 -109.898903 
L 108.723685 -110.982858 
L 109.51963 -112.41304 
L 110.315575 -113.722923 
L 111.111519 -114.418712 
L 111.907464 -114.157673 
L 112.703409 -112.891895 
L 113.499353 -110.917117 
L 114.295298 -108.799213 
L 115.091243 -107.196407 
L 115.887187 -106.63463 
L 116.683132 -107.314235 
L 117.479077 -109.02099 
L 118.275021 -111.181516 
L 119.070966 -113.051672 
L 119.866911 -113.974756 
L 120.662856 -113.616038 
L 121.4588 -112.083511 
L 122.254745 -109.88346 
L 123.05069 -107.723735 
L 123.846634 -106.242366 
L 124.642579 -105.773235 
L 125.438524 -106.243458 
L 126.234468 -107.233972 
L 127.030413 -108.161027 
L 127.826358 -108.496247 
L 128.622302 -107.94907 
L 129.418247 -106.562146 
L 130.214192 -104.694001 
L 131.010136 -102.887136 
L 131.806081 -101.658947 
L 132.602026 -101.300268 
L 133.39797 -101.77879 
L 134.193915 -102.791882 
L 134.98986 -103.927079 
L 135.785805 -104.836333 
L 136.581749 -105.347327 
L 137.377694 -105.489676 
L 138.173639 -105.452053 
L 138.969583 -105.494706 
L 139.765528 -105.842654 
L 140.561473 -106.595998 
L 141.357417 -107.701147 
L 142.153362 -109.001992 
L 142.949307 -110.338214 
L 143.745251 -111.621727 
L 144.541196 -112.839095 
L 145.337141 -113.986809 
L 146.133085 -114.996369 
L 146.92903 -115.70986 
L 147.724975 -115.929859 
L 148.520919 -115.521577 
L 149.316864 -114.518259 
L 150.112809 -113.180145 
L 150.908753 -111.972565 
L 151.704698 -111.452491 
L 152.500643 -112.085534 
L 153.296588 -114.052363 
L 154.092532 -117.124797 
L 154.888477 -120.676577 
L 155.684422 -123.842111 
L 156.480366 -125.775252 
L 157.276311 -125.921339 
L 158.072256 -124.2111 
L 158.8682 -121.106603 
L 159.664145 -117.469714 
L 160.46009 -114.281609 
L 161.256034 -112.306946 
L 162.051979 -111.833378 
L 162.847924 -112.592362 
L 163.643868 -113.886538 
L 164.439813 -114.858198 
L 165.235758 -114.784365 
L 166.031702 -113.294669 
L 166.827647 -110.45473 
L 167.623592 -106.708006 
L 168.419537 -102.709396 
L 169.215481 -99.112125 
L 170.011426 -96.379438 
L 170.807371 -94.678601 
L 171.603315 -93.880986 
L 172.39926 -93.651542 
L 173.195205 -93.580211 
L 173.991149 -93.300531 
L 174.787094 -92.559361 
L 175.583039 -91.234916 
L 176.378983 -89.326693 
L 177.174928 -86.943143 
L 177.970873 -84.291308 
L 178.766817 -81.651458 
L 179.562762 -79.325356 
L 180.358707 -77.570907 
L 181.154651 -76.548193 
L 181.950596 -76.293152 
L 182.746541 -76.719439 
L 183.542485 -77.641722 
L 184.33843 -78.817929 
L 185.134375 -80.01079 
L 185.93032 -81.059362 
L 186.726264 -81.936291 
L 187.522209 -82.761636 
L 188.318154 -83.756036 
L 189.114098 -85.141284 
L 189.910043 -87.024705 
L 190.705988 -89.319525 
L 191.501932 -91.74229 
L 192.297877 -93.891213 
L 193.093822 -95.367937 
L 193.889766 -95.890477 
L 194.685711 -95.364994 
L 195.481656 -93.912017 
L 196.2776 -91.851479 
L 197.073545 -89.644421 
L 197.86949 -87.791697 
L 198.665434 -86.710888 
L 199.461379 -86.633323 
L 200.257324 -87.558537 
L 201.053269 -89.274367 
L 201.849213 -91.423844 
L 202.645158 -93.595082 
L 203.441103 -95.419292 
L 204.237047 -96.662972 
L 205.032992 -97.287822 
L 205.828937 -97.446723 
L 206.624881 -97.408196 
L 207.420826 -97.443743 
L 208.216771 -97.733165 
L 209.012715 -98.322423 
L 209.80866 -99.131555 
L 210.604605 -99.992745 
L 211.400549 -100.705825 
L 212.196494 -101.10378 
L 212.992439 -101.107504 
L 213.788383 -100.739016 
L 214.584328 -100.083036 
L 215.380273 -99.226238 
L 216.176218 -98.219337 
L 216.972162 -97.08037 
L 217.768107 -95.818925 
L 218.564052 -94.453846 
L 219.359996 -93.020142 
L 220.155941 -91.574684 
L 220.951886 -90.197262 
L 221.74783 -88.970159 
L 222.543775 -87.933089 
L 223.33972 -87.040693 
L 224.135664 -86.160679 
L 224.931609 -85.125659 
L 225.727554 -83.812366 
L 226.523498 -82.202732 
L 227.319443 -80.396194 
L 228.115388 -78.574965 
L 228.911332 -76.946678 
L 229.707277 -75.690744 
L 230.503222 -74.923392 
L 231.299166 -74.683343 
L 232.095111 -74.934251 
L 232.891056 -75.582241 
L 233.687001 -76.506292 
L 234.482945 -77.589432 
L 235.27889 -78.73072 
L 236.074835 -79.829704 
L 236.870779 -80.763159 
L 237.666724 -81.388185 
L 238.462669 -81.586726 
L 239.258613 -81.329145 
L 240.054558 -80.713167 
L 240.850503 -79.950529 
L 241.646447 -79.307816 
L 242.442392 -79.0255 
L 243.238337 -79.237399 
L 244.034281 -79.914182 
L 244.830226 -80.861047 
L 245.626171 -81.787601 
L 246.422115 -82.429347 
L 247.21806 -82.663618 
L 248.014005 -82.563368 
L 248.80995 -82.369932 
L 249.605894 -82.404105 
L 250.401839 -82.948739 
L 251.197784 -84.136773 
L 251.993728 -85.882364 
L 252.789673 -87.89 
L 253.585618 -89.748385 
L 254.381562 -91.070956 
L 255.177507 -91.619039 
L 255.973452 -91.359836 
L 256.769396 -90.452274 
L 257.565341 -89.182102 
L 258.361286 -87.872128 
L 259.15723 -86.792724 
L 259.953175 -86.101749 
L 260.74912 -85.838171 
L 261.545064 -85.967738 
L 262.341009 -86.446009 
L 263.136954 -87.253077 
L 263.932898 -88.378652 
L 264.728843 -89.776069 
L 265.524788 -91.324932 
L 266.320733 -92.832512 
L 267.116677 -94.079925 
L 267.912622 -94.897446 
L 268.708567 -95.239456 
L 269.504511 -95.224395 
L 270.300456 -95.11313 
L 271.096401 -95.223417 
L 271.892345 -95.809757 
L 272.68829 -96.958247 
L 273.484235 -98.542116 
L 274.280179 -100.257506 
L 275.076124 -101.725488 
L 275.872069 -102.622089 
L 276.668013 -102.791615 
L 277.463958 -102.306693 
L 278.259903 -101.452804 
L 279.055847 -100.63506 
L 279.851792 -100.233565 
L 280.647737 -100.461515 
L 281.443682 -101.286709 
L 282.239626 -102.450454 
L 283.035571 -103.571764 
L 283.831516 -104.28829 
L 284.62746 -104.377577 
L 285.423405 -103.81855 
L 286.21935 -102.775294 
L 287.015294 -101.507713 
L 287.811239 -100.243381 
L 288.607184 -99.072225 
L 289.403128 -97.922703 
L 290.199073 -96.633578 
L 290.995018 -95.076471 
L 291.790962 -93.256376 
L 292.586907 -91.340477 
L 293.382852 -89.611978 
L 294.178796 -88.374715 
L 294.974741 -87.841377 
L 295.770686 -88.043405 
L 296.56663 -88.803845 
L 297.362575 -89.795603 
L 298.15852 -90.664769 
L 298.954465 -91.16202 
L 299.750409 -91.224785 
L 300.546354 -90.983637 
L 301.342299 -90.698763 
L 302.138243 -90.650406 
L 302.934188 -91.01962 
L 303.730133 -91.808842 
L 304.526077 -92.84736 
L 305.322022 -93.887265 
L 306.117967 -94.739939 
L 306.913911 -95.37623 
L 307.709856 -95.938133 
L 308.505801 -96.662292 
L 309.301745 -97.755693 
L 310.09769 -99.275879 
L 310.893635 -101.062071 
L 311.689579 -102.750198 
L 312.485524 -103.880491 
L 313.281469 -104.068029 
L 314.077414 -103.170854 
L 314.873358 -101.381717 
L 315.669303 -99.197379 
L 316.465248 -97.269875 
L 317.261192 -96.19273 
L 318.057137 -96.301874 
L 318.853082 -97.565347 
L 319.649026 -99.599322 
L 320.444971 -101.796642 
L 321.240916 -103.513256 
L 322.03686 -104.246868 
L 322.832805 -103.757916 
L 323.62875 -102.107511 
L 324.424694 -99.608779 
L 325.220639 -96.710552 
L 326.016584 -93.856848 
L 326.812528 -91.376194 
L 327.608473 -89.436594 
L 328.404418 -88.065566 
L 329.200363 -87.204491 
L 329.996307 -86.759175 
L 330.792252 -86.624332 
L 331.588197 -86.684179 
L 332.384141 -86.806911 
L 333.180086 -86.850583 
L 333.976031 -86.687308 
L 334.771975 -86.23994 
L 335.56792 -85.516512 
L 336.363865 -84.626554 
L 337.159809 -83.768486 
L 337.955754 -83.184441 
L 338.751699 -83.089059 
L 339.547643 -83.593867 
L 340.343588 -84.660811 
L 341.139533 -86.112745 
L 341.935477 -87.702336 
L 342.731422 -89.20946 
L 343.527367 -90.522487 
L 344.323311 -91.67016 
L 345.119256 -92.796542 
L 345.915201 -94.092767 
L 346.711146 -95.709783 
L 347.50709 -97.67992 
L 348.303035 -99.874355 
L 349.09898 -102.015045 
L 349.894924 -103.742794 
L 350.690869 -104.724162 
L 351.486814 -104.765304 
L 352.282758 -103.894187 
L 353.078703 -102.376356 
L 353.874648 -100.647434 
L 354.670592 -99.178761 
L 355.466537 -98.325696 
L 356.262482 -98.216941 
L 357.058426 -98.721013 
L 357.854371 -99.492355 
L 358.650316 -100.078476 
L 359.44626 -100.061949 
L 360.242205 -99.202614 
L 361.03815 -97.534879 
L 361.834095 -95.377574 
L 362.630039 -93.241491 
L 363.425984 -91.663373 
L 364.221929 -91.027667 
L 365.017873 -91.439429 
L 365.813818 -92.688121 
L 366.609763 -94.311111 
L 367.405707 -95.738412 
L 368.201652 -96.476767 
L 368.997597 -96.27408 
L 369.793541 -95.203377 
L 370.589486 -93.62917 
L 371.385431 -92.066145 
L 372.181375 -90.987562 
L 372.97732 -90.660966 
L 373.773265 -91.071925 
L 374.569209 -91.955166 
L 375.365154 -92.909796 
L 376.161099 -93.550128 
L 376.957043 -93.640422 
L 377.752988 -93.171606 
L 378.548933 -92.353908 
L 379.344878 -91.524354 
L 380.140822 -91.002847 
L 380.936767 -90.959832 
L 381.732712 -91.357528 
L 382.528656 -91.987993 
L 383.324601 -92.579655 
L 384.120546 -92.915561 
L 384.91649 -92.915994 
L 385.712435 -92.665508 
L 386.50838 -92.382757 
L 387.304324 -92.339616 
L 388.100269 -92.751336 
L 388.896214 -93.683068 
L 389.692158 -95.023721 
L 390.488103 -96.545532 
L 391.284048 -98.014201 
L 392.079992 -99.282238 
L 392.875937 -100.316012 
L 393.671882 -101.158085 
L 394.467827 -101.863961 
L 395.263771 -102.452459 
L 396.059716 -102.888793 
L 396.855661 -103.104517 
L 397.651605 -103.05041 
L 398.44755 -102.763309 
L 399.243495 -102.408621 
L 400.039439 -102.259551 
L 400.835384 -102.606298 
L 401.631329 -103.634051 
L 402.427273 -105.329412 
L 403.223218 -107.455809 
L 404.019163 -109.603018 
L 404.815107 -111.293507 
L 405.611052 -112.119533 
L 406.406997 -111.873688 
L 407.202941 -110.623358 
L 407.998886 -108.687891 
L 408.794831 -106.518302 
L 409.590775 -104.531513 
L 410.38672 -102.973504 
L 411.182665 -101.862159 
L 411.97861 -101.016597 
L 412.774554 -100.149234 
L 413.570499 -98.986831 
L 413.570499 -149.098503 
L 413.570499 -149.098503 
L 412.774554 -150.264228 
L 411.97861 -151.131375 
L 411.182665 -151.971114 
L 410.38672 -153.073641 
L 409.590775 -154.619534 
L 408.794831 -156.581833 
L 407.998886 -158.706985 
L 407.202941 -160.587032 
L 406.406997 -161.79161 
L 405.611052 -162.008375 
L 404.815107 -161.148194 
L 404.019163 -159.386362 
L 403.223218 -157.122288 
L 402.427273 -154.859733 
L 401.631329 -153.045174 
L 400.835384 -151.931097 
L 400.039439 -151.523891 
L 399.243495 -151.630227 
L 398.44755 -151.964645 
L 397.651605 -152.261047 
L 396.855661 -152.346289 
L 396.059716 -152.161474 
L 395.263771 -151.735625 
L 394.467827 -151.128856 
L 393.671882 -150.374949 
L 392.875937 -149.457221 
L 392.079992 -148.333353 
L 391.284048 -146.99132 
L 390.488103 -145.495759 
L 389.692158 -143.992428 
L 388.896214 -142.668586 
L 388.100269 -141.691112 
L 387.304324 -141.147273 
L 386.50838 -141.006044 
L 385.712435 -141.114848 
L 384.91649 -141.244312 
L 384.120546 -141.178055 
L 383.324601 -140.81414 
L 382.528656 -140.223093 
L 381.732712 -139.622051 
L 380.936767 -139.272049 
L 380.140822 -139.350998 
L 379.344878 -139.865618 
L 378.548933 -140.63927 
L 377.752988 -141.374935 
L 376.957043 -141.76651 
L 376.161099 -141.620646 
L 375.365154 -140.948103 
L 374.569209 -139.985653 
L 373.773265 -139.126292 
L 372.97732 -138.77292 
L 372.181375 -139.173206 
L 371.385431 -140.310631 
L 370.589486 -141.900969 
L 369.793541 -143.490741 
L 368.997597 -144.611239 
L 368.201652 -144.930964 
L 367.405707 -144.36385 
L 366.609763 -143.107775 
L 365.813818 -141.597773 
L 365.017873 -140.374863 
L 364.221929 -139.905071 
L 363.425984 -140.416483 
L 362.630039 -141.823549 
L 361.834095 -143.767165 
L 361.03815 -145.743963 
L 360.242205 -147.268044 
L 359.44626 -148.01495 
L 358.650316 -147.916975 
L 357.854371 -147.186289 
L 357.058426 -146.247733 
L 356.262482 -145.590136 
L 355.466537 -145.588735 
L 354.670592 -146.374403 
L 353.874648 -147.800682 
L 353.078703 -149.505347 
L 352.282758 -151.025386 
L 351.486814 -151.924135 
L 350.690869 -151.90569 
L 349.894924 -150.895429 
L 349.09898 -149.05915 
L 348.303035 -146.743465 
L 347.50709 -144.354116 
L 346.711146 -142.222138 
L 345.915201 -140.511944 
L 345.119256 -139.199941 
L 344.323311 -138.119967 
L 343.527367 -137.051649 
L 342.731422 -135.819796 
L 341.935477 -134.37058 
L 341.139533 -132.79626 
L 340.343588 -131.300034 
L 339.547643 -130.119024 
L 338.751699 -129.439837 
L 337.955754 -129.337542 
L 337.159809 -129.753252 
L 336.363865 -130.511731 
L 335.56792 -131.372883 
L 334.771975 -132.104174 
L 333.976031 -132.551136 
L 333.180086 -132.678347 
L 332.384141 -132.564588 
L 331.588197 -132.360397 
L 330.792252 -132.236404 
L 329.996307 -132.349715 
L 329.200363 -132.833862 
L 328.404418 -133.795728 
L 327.608473 -135.300644 
L 326.812528 -137.344591 
L 326.016584 -139.82855 
L 325.220639 -142.548251 
L 324.424694 -145.202478 
L 323.62875 -147.422682 
L 322.832805 -148.834726 
L 322.03686 -149.159575 
L 321.240916 -148.330412 
L 320.444971 -146.569273 
L 319.649026 -144.366163 
L 318.853082 -142.349829 
L 318.057137 -141.098183 
L 317.261192 -140.9628 
L 316.465248 -141.966409 
L 315.669303 -143.800061 
L 314.873358 -145.919041 
L 314.077414 -147.7123 
L 313.281469 -148.693984 
L 312.485524 -148.649066 
L 311.689579 -147.677481 
L 310.893635 -146.123344 
L 310.09769 -144.423974 
L 309.301745 -142.942103 
L 308.505801 -141.846087 
L 307.709856 -141.081807 
L 306.913911 -140.442258 
L 306.117967 -139.697657 
L 305.322022 -138.720662 
L 304.526077 -137.547476 
L 303.730133 -136.35338 
L 302.934188 -135.363734 
L 302.138243 -134.745 
L 301.342299 -134.521904 
L 300.546354 -134.555249 
L 299.750409 -134.594125 
L 298.954465 -134.386067 
L 298.15852 -133.797799 
L 297.362575 -132.888119 
L 296.56663 -131.896664 
L 295.770686 -131.154579 
L 294.974741 -130.957587 
L 294.178796 -131.454395 
L 293.382852 -132.596101 
L 292.586907 -134.168544 
L 291.790962 -135.891872 
L 290.995018 -137.535971 
L 290.199073 -138.992988 
L 289.403128 -140.278303 
L 288.607184 -141.475383 
L 287.811239 -142.662685 
L 287.015294 -143.853322 
L 286.21935 -144.964897 
L 285.423405 -145.832633 
L 284.62746 -146.270805 
L 283.831516 -146.164143 
L 283.035571 -145.544871 
L 282.239626 -144.609638 
L 281.443682 -143.662782 
L 280.647737 -143.011835 
L 279.851792 -142.858292 
L 279.055847 -143.220763 
L 278.259903 -143.916001 
L 277.463958 -144.611561 
L 276.668013 -144.942419 
L 275.872069 -144.651605 
L 275.076124 -143.69273 
L 274.280179 -142.245213 
L 273.484235 -140.637954 
L 272.68829 -139.221756 
L 271.892345 -138.24619 
L 271.096401 -137.78327 
L 270.300456 -137.716843 
L 269.504511 -137.79577 
L 268.708567 -137.729788 
L 267.912622 -137.291075 
L 267.116677 -136.382052 
L 266.320733 -135.047242 
L 265.524788 -133.436004 
L 264.728843 -131.744197 
L 263.932898 -130.16333 
L 263.136954 -128.85038 
L 262.341009 -127.91515 
L 261.545064 -127.417157 
L 260.74912 -127.369335 
L 259.953175 -127.74776 
L 259.15723 -128.498484 
L 258.361286 -129.528345 
L 257.565341 -130.682257 
L 256.769396 -131.73287 
L 255.973452 -132.411623 
L 255.177507 -132.483541 
L 254.381562 -131.832365 
L 253.585618 -130.510979 
L 252.789673 -128.734384 
L 251.993728 -126.822965 
L 251.197784 -125.115232 
L 250.401839 -123.868482 
L 249.605894 -123.174377 
L 248.80995 -122.928358 
L 248.014005 -122.879725 
L 247.21806 -122.746163 
L 246.422115 -122.334074 
L 245.626171 -121.605259 
L 244.830226 -120.672257 
L 244.034281 -119.744943 
L 243.238337 -119.055679 
L 242.442392 -118.778023 
L 241.646447 -118.958373 
L 240.850503 -119.492855 
L 240.054558 -120.169088 
L 239.258613 -120.750659 
L 238.462669 -121.051892 
L 237.666724 -120.967283 
L 236.870779 -120.465469 
L 236.074835 -119.578562 
L 235.27889 -118.396844 
L 234.482945 -117.055234 
L 233.687001 -115.705469 
L 232.891056 -114.491035 
L 232.095111 -113.54336 
L 231.299166 -112.99072 
L 230.503222 -112.950215 
L 229.707277 -113.48854 
L 228.911332 -114.575511 
L 228.115388 -116.072256 
L 227.319443 -117.772196 
L 226.523498 -119.472858 
L 225.727554 -121.038179 
L 224.931609 -122.423941 
L 224.135664 -123.665283 
L 223.33972 -124.843561 
L 222.543775 -126.049643 
L 221.74783 -127.349866 
L 220.951886 -128.757828 
L 220.155941 -130.22297 
L 219.359996 -131.649534 
L 218.564052 -132.944405 
L 217.768107 -134.067246 
L 216.972162 -135.046488 
L 216.176218 -135.945955 
L 215.380273 -136.8052 
L 214.584328 -137.597567 
L 213.788383 -138.232387 
L 212.992439 -138.592247 
L 212.196494 -138.58112 
L 211.400549 -138.16799 
L 210.604605 -137.417066 
L 209.80866 -136.489001 
L 209.012715 -135.597583 
L 208.216771 -134.929928 
L 207.420826 -134.568235 
L 206.624881 -134.454891 
L 205.828937 -134.413428 
L 205.032992 -134.205872 
L 204.237047 -133.601865 
L 203.441103 -132.448956 
L 202.645158 -130.737605 
L 201.849213 -128.639622 
L 201.053269 -126.490333 
L 200.257324 -124.706264 
L 199.461379 -123.666065 
L 198.665434 -123.600131 
L 197.86949 -124.522955 
L 197.073545 -126.219037 
L 196.2776 -128.281213 
L 195.481656 -130.198984 
L 194.685711 -131.485295 
L 193.889766 -131.808342 
L 193.093822 -131.079881 
L 192.297877 -129.463537 
L 191.501932 -127.301852 
L 190.705988 -124.996548 
L 189.910043 -122.890192 
L 189.114098 -121.18437 
L 188.318154 -119.909159 
L 187.522209 -118.945725 
L 186.726264 -118.092972 
L 185.93032 -117.155979 
L 185.134375 -116.026593 
L 184.33843 -114.731868 
L 183.542485 -113.437796 
L 182.746541 -112.405896 
L 181.950596 -111.911426 
L 181.154651 -112.149618 
L 180.358707 -113.17145 
L 179.562762 -114.880866 
L 178.766817 -117.086114 
L 177.970873 -119.561638 
L 177.174928 -122.079622 
L 176.378983 -124.410205 
L 175.583039 -126.327465 
L 174.787094 -127.652653 
L 173.991149 -128.323521 
L 173.195205 -128.44823 
L 172.39926 -128.310978 
L 171.603315 -128.323538 
L 170.807371 -128.93351 
L 170.011426 -130.503039 
L 169.215481 -133.179384 
L 168.419537 -136.798724 
L 167.623592 -140.876871 
L 166.827647 -144.719498 
L 166.031702 -147.632746 
L 165.235758 -149.16311 
L 164.439813 -149.273365 
L 163.643868 -148.380299 
L 162.847924 -147.231311 
L 162.051979 -146.658972 
L 161.256034 -147.29812 
L 160.46009 -149.361438 
L 159.664145 -152.54897 
L 158.8682 -156.124859 
L 158.072256 -159.141617 
L 157.276311 -160.742808 
L 156.480366 -160.444116 
L 155.684422 -158.293623 
L 154.888477 -154.851933 
L 154.092532 -151.000036 
L 153.296588 -147.648454 
L 152.500643 -145.456413 
L 151.704698 -144.660695 
L 150.908753 -145.065644 
L 150.112809 -146.179568 
L 149.316864 -147.427007 
L 148.520919 -148.344307 
L 147.724975 -148.686632 
L 146.92903 -148.425702 
L 146.133085 -147.670329 
L 145.337141 -146.568445 
L 144.541196 -145.240962 
L 143.745251 -143.767716 
L 142.949307 -142.213503 
L 142.153362 -140.662794 
L 141.357417 -139.234281 
L 140.561473 -138.064216 
L 139.765528 -137.263141 
L 138.969583 -136.859786 
L 138.173639 -136.756325 
L 137.377694 -136.727943 
L 136.581749 -136.491121 
L 135.785805 -135.829233 
L 134.98986 -134.717901 
L 134.193915 -133.375317 
L 133.39797 -132.197721 
L 132.602026 -131.605726 
L 131.806081 -131.873861 
L 131.010136 -133.01401 
L 130.214192 -134.750616 
L 129.418247 -136.594385 
L 128.622302 -137.999593 
L 127.826358 -138.564641 
L 127.030413 -138.203485 
L 126.234468 -137.204103 
L 125.438524 -136.129137 
L 124.642579 -135.590648 
L 123.846634 -135.997305 
L 123.05069 -137.385734 
L 122.254745 -139.402464 
L 121.4588 -141.433337 
L 120.662856 -142.82297 
L 119.866911 -143.104459 
L 119.070966 -142.165629 
L 118.275021 -140.299594 
L 117.479077 -138.117979 
L 116.683132 -136.347291 
L 115.887187 -135.575211 
L 115.091243 -136.041821 
L 114.295298 -137.559612 
L 113.499353 -139.593249 
L 112.703409 -141.460768 
L 111.907464 -142.570988 
L 111.111519 -142.610126 
L 110.315575 -141.622513 
L 109.51963 -139.970061 
L 108.723685 -138.190033 
L 107.927741 -136.800842 
L 107.131796 -136.126962 
L 106.335851 -136.210934 
L 105.539907 -136.841163 
L 104.743962 -137.666653 
L 103.948017 -138.334251 
L 103.152073 -138.592421 
L 102.356128 -138.339393 
L 101.560183 -137.619739 
L 100.764238 -136.581601 
L 99.968294 -135.410259 
L 99.172349 -134.261231 
L 98.376404 -133.219532 
L 97.58046 -132.299944 
L 96.784515 -131.480052 
L 95.98857 -130.740992 
L 95.192626 -130.091727 
L 94.396681 -129.566478 
L 93.600736 -129.200597 
L 92.804792 -129.002535 
L 92.008847 -128.942681 
L 91.212902 -128.967006 
L 90.416958 -129.023962 
L 89.621013 -129.08439 
L 88.825068 -129.141251 
L 88.029124 -129.192907 
L 87.233179 -129.227666 
L 86.437234 -129.224054 
L 85.641289 -129.161555 
L 84.845345 -129.024581 
L 84.0494 -128.797275 
L 83.253455 -128.471473 
L 82.457511 -128.083855 
L 81.661566 -127.757838 
L 80.865621 -127.700612 
L 80.069677 -128.127491 
L 79.273732 -129.143975 
L 78.477787 -130.666965 
L 77.681843 -132.441789 
L 76.885898 -134.127629 
L 76.089953 -135.384952 
L 75.294009 -135.930483 
L 74.498064 -135.579499 
L 73.702119 -134.314569 
L 72.906175 -132.363973 
L 72.11023 -130.208379 
L 71.314285 -128.458374 
L 70.51834 -127.638423 
L 69.722396 -127.993163 
L 68.926451 -129.41935 
L 68.130506 -131.528297 
L 67.334562 -133.780466 
L 66.538617 -135.643293 
L 65.742672 -136.737946 
L 64.946728 -136.937067 
L 64.150783 -136.379944 
L 63.354838 -135.400963 
L 62.558894 -134.402707 
L 61.762949 -133.71916 
L 60.967004 -133.508746 
L 60.17106 -133.708422 
L 59.375115 -134.072374 
L 58.57917 -134.296265 
L 57.783226 -134.180831 
L 56.987281 -133.750825 
L 56.191336 -133.260755 
L 55.395392 -133.080465 
L 54.599447 -133.519166 
L 53.803502 -134.675696 
L 53.007557 -136.380753 
L 52.211613 -138.248843 
L 51.415668 -139.817362 
L 50.619723 -140.723571 
L 49.823779 -140.85376 
L 49.027834 -140.401634 
L 48.231889 -139.804387 
L 47.435945 -139.577223 
L 46.64 -140.115834 
z
" style="stroke: #377eb8; stroke-opacity: 0.3"/>
    </defs>
    <g clip-path="url(#p568aa5cfd3)">
     <use xlink:href="#m6a4310b3de" x="0" y="360" style="fill: #377eb8; fill-opacity: 0.3; stroke: #377eb8; stroke-opacity: 0.3"/>
    </g>
   </g>
   <g id="patch_3">
    <path d="M 229.866466 318.04 
L 229.866466 71.732 
L 331.747385 71.732 
L 331.747385 318.04 
z
" clip-path="url(#p568aa5cfd3)" style="fill: #808080; opacity: 0.3"/>
   </g>
   <g id="matplotlib.axis_1">
    <g id="xtick_1">
     <g id="line2d_1">
      <defs>
       <path id="made5be1c50" d="M 0 0 
L 0 3.5 
" style="stroke: #000000; stroke-width: 0.8"/>
      </defs>
      <g>
       <use xlink:href="#made5be1c50" x="87.233179" y="318.04" style="stroke: #000000; stroke-width: 0.8"/>
      </g>
     </g>
     <g id="text_1">
      <!-- 0.0 -->
      <g transform="translate(79.281616 332.638438)scale(0.1 -0.1)">
       <defs>
        <path id="DejaVuSans-30" d="M 2034 4250 
Q 1547 4250 1301 3770 
Q 1056 3291 1056 2328 
Q 1056 1369 1301 889 
Q 1547 409 2034 409 
Q 2525 409 2770 889 
Q 3016 1369 3016 2328 
Q 3016 3291 2770 3770 
Q 2525 4250 2034 4250 
z
M 2034 4750 
Q 2819 4750 3233 4129 
Q 3647 3509 3647 2328 
Q 3647 1150 3233 529 
Q 2819 -91 2034 -91 
Q 1250 -91 836 529 
Q 422 1150 422 2328 
Q 422 3509 836 4129 
Q 1250 4750 2034 4750 
z
" transform="scale(0.015625)"/>
        <path id="DejaVuSans-2e" d="M 684 794 
L 1344 794 
L 1344 0 
L 684 0 
L 684 794 
z
" transform="scale(0.015625)"/>
       </defs>
       <use xlink:href="#DejaVuSans-30"/>
       <use xlink:href="#DejaVuSans-2e" x="63.623047"/>
       <use xlink:href="#DejaVuSans-30" x="95.410156"/>
      </g>
     </g>
    </g>
    <g id="xtick_2">
     <g id="line2d_2">
      <g>
       <use xlink:href="#made5be1c50" x="168.737914" y="318.04" style="stroke: #000000; stroke-width: 0.8"/>
      </g>
     </g>
     <g id="text_2">
      <!-- 0.2 -->
      <g transform="translate(160.786352 332.638438)scale(0.1 -0.1)">
       <defs>
        <path id="DejaVuSans-32" d="M 1228 531 
L 3431 531 
L 3431 0 
L 469 0 
L 469 531 
Q 828 903 1448 1529 
Q 2069 2156 2228 2338 
Q 2531 2678 2651 2914 
Q 2772 3150 2772 3378 
Q 2772 3750 2511 3984 
Q 2250 4219 1831 4219 
Q 1534 4219 1204 4116 
Q 875 4013 500 3803 
L 500 4441 
Q 881 4594 1212 4672 
Q 1544 4750 1819 4750 
Q 2544 4750 2975 4387 
Q 3406 4025 3406 3419 
Q 3406 3131 3298 2873 
Q 3191 2616 2906 2266 
Q 2828 2175 2409 1742 
Q 1991 1309 1228 531 
z
" transform="scale(0.015625)"/>
       </defs>
       <use xlink:href="#DejaVuSans-30"/>
       <use xlink:href="#DejaVuSans-2e" x="63.623047"/>
       <use xlink:href="#DejaVuSans-32" x="95.410156"/>
      </g>
     </g>
    </g>
    <g id="xtick_3">
     <g id="line2d_3">
      <g>
       <use xlink:href="#made5be1c50" x="250.24265" y="318.04" style="stroke: #000000; stroke-width: 0.8"/>
      </g>
     </g>
     <g id="text_3">
      <!-- 0.4 -->
      <g transform="translate(242.291087 332.638438)scale(0.1 -0.1)">
       <defs>
        <path id="DejaVuSans-34" d="M 2419 4116 
L 825 1625 
L 2419 1625 
L 2419 4116 
z
M 2253 4666 
L 3047 4666 
L 3047 1625 
L 3713 1625 
L 3713 1100 
L 3047 1100 
L 3047 0 
L 2419 0 
L 2419 1100 
L 313 1100 
L 313 1709 
L 2253 4666 
z
" transform="scale(0.015625)"/>
       </defs>
       <use xlink:href="#DejaVuSans-30"/>
       <use xlink:href="#DejaVuSans-2e" x="63.623047"/>
       <use xlink:href="#DejaVuSans-34" x="95.410156"/>
      </g>
     </g>
    </g>
    <g id="xtick_4">
     <g id="line2d_4">
      <g>
       <use xlink:href="#made5be1c50" x="331.747385" y="318.04" style="stroke: #000000; stroke-width: 0.8"/>
      </g>
     </g>
     <g id="text_4">
      <!-- 0.6 -->
      <g transform="translate(323.795823 332.638438)scale(0.1 -0.1)">
       <defs>
        <path id="DejaVuSans-36" d="M 2113 2584 
Q 1688 2584 1439 2293 
Q 1191 2003 1191 1497 
Q 1191 994 1439 701 
Q 1688 409 2113 409 
Q 2538 409 2786 701 
Q 3034 994 3034 1497 
Q 3034 2003 2786 2293 
Q 2538 2584 2113 2584 
z
M 3366 4563 
L 3366 3988 
Q 3128 4100 2886 4159 
Q 2644 4219 2406 4219 
Q 1781 4219 1451 3797 
Q 1122 3375 1075 2522 
Q 1259 2794 1537 2939 
Q 1816 3084 2150 3084 
Q 2853 3084 3261 2657 
Q 3669 2231 3669 1497 
Q 3669 778 3244 343 
Q 2819 -91 2113 -91 
Q 1303 -91 875 529 
Q 447 1150 447 2328 
Q 447 3434 972 4092 
Q 1497 4750 2381 4750 
Q 2619 4750 2861 4703 
Q 3103 4656 3366 4563 
z
" transform="scale(0.015625)"/>
       </defs>
       <use xlink:href="#DejaVuSans-30"/>
       <use xlink:href="#DejaVuSans-2e" x="63.623047"/>
       <use xlink:href="#DejaVuSans-36" x="95.410156"/>
      </g>
     </g>
    </g>
    <g id="xtick_5">
     <g id="line2d_5">
      <g>
       <use xlink:href="#made5be1c50" x="413.252121" y="318.04" style="stroke: #000000; stroke-width: 0.8"/>
      </g>
     </g>
     <g id="text_5">
      <!-- 0.8 -->
      <g transform="translate(405.300559 332.638438)scale(0.1 -0.1)">
       <defs>
        <path id="DejaVuSans-38" d="M 2034 2216 
Q 1584 2216 1326 1975 
Q 1069 1734 1069 1313 
Q 1069 891 1326 650 
Q 1584 409 2034 409 
Q 2484 409 2743 651 
Q 3003 894 3003 1313 
Q 3003 1734 2745 1975 
Q 2488 2216 2034 2216 
z
M 1403 2484 
Q 997 2584 770 2862 
Q 544 3141 544 3541 
Q 544 4100 942 4425 
Q 1341 4750 2034 4750 
Q 2731 4750 3128 4425 
Q 3525 4100 3525 3541 
Q 3525 3141 3298 2862 
Q 3072 2584 2669 2484 
Q 3125 2378 3379 2068 
Q 3634 1759 3634 1313 
Q 3634 634 3220 271 
Q 2806 -91 2034 -91 
Q 1263 -91 848 271 
Q 434 634 434 1313 
Q 434 1759 690 2068 
Q 947 2378 1403 2484 
z
M 1172 3481 
Q 1172 3119 1398 2916 
Q 1625 2713 2034 2713 
Q 2441 2713 2670 2916 
Q 2900 3119 2900 3481 
Q 2900 3844 2670 4047 
Q 2441 4250 2034 4250 
Q 1625 4250 1398 4047 
Q 1172 3844 1172 3481 
z
" transform="scale(0.015625)"/>
       </defs>
       <use xlink:href="#DejaVuSans-30"/>
       <use xlink:href="#DejaVuSans-2e" x="63.623047"/>
       <use xlink:href="#DejaVuSans-38" x="95.410156"/>
      </g>
     </g>
    </g>
    <g id="text_6">
     <!-- seconds -->
     <g transform="translate(209.667749 346.316563)scale(0.1 -0.1)">
      <defs>
       <path id="DejaVuSans-73" d="M 2834 3397 
L 2834 2853 
Q 2591 2978 2328 3040 
Q 2066 3103 1784 3103 
Q 1356 3103 1142 2972 
Q 928 2841 928 2578 
Q 928 2378 1081 2264 
Q 1234 2150 1697 2047 
L 1894 2003 
Q 2506 1872 2764 1633 
Q 3022 1394 3022 966 
Q 3022 478 2636 193 
Q 2250 -91 1575 -91 
Q 1294 -91 989 -36 
Q 684 19 347 128 
L 347 722 
Q 666 556 975 473 
Q 1284 391 1588 391 
Q 1994 391 2212 530 
Q 2431 669 2431 922 
Q 2431 1156 2273 1281 
Q 2116 1406 1581 1522 
L 1381 1569 
Q 847 1681 609 1914 
Q 372 2147 372 2553 
Q 372 3047 722 3315 
Q 1072 3584 1716 3584 
Q 2034 3584 2315 3537 
Q 2597 3491 2834 3397 
z
" transform="scale(0.015625)"/>
       <path id="DejaVuSans-65" d="M 3597 1894 
L 3597 1613 
L 953 1613 
Q 991 1019 1311 708 
Q 1631 397 2203 397 
Q 2534 397 2845 478 
Q 3156 559 3463 722 
L 3463 178 
Q 3153 47 2828 -22 
Q 2503 -91 2169 -91 
Q 1331 -91 842 396 
Q 353 884 353 1716 
Q 353 2575 817 3079 
Q 1281 3584 2069 3584 
Q 2775 3584 3186 3129 
Q 3597 2675 3597 1894 
z
M 3022 2063 
Q 3016 2534 2758 2815 
Q 2500 3097 2075 3097 
Q 1594 3097 1305 2825 
Q 1016 2553 972 2059 
L 3022 2063 
z
" transform="scale(0.015625)"/>
       <path id="DejaVuSans-63" d="M 3122 3366 
L 3122 2828 
Q 2878 2963 2633 3030 
Q 2388 3097 2138 3097 
Q 1578 3097 1268 2742 
Q 959 2388 959 1747 
Q 959 1106 1268 751 
Q 1578 397 2138 397 
Q 2388 397 2633 464 
Q 2878 531 3122 666 
L 3122 134 
Q 2881 22 2623 -34 
Q 2366 -91 2075 -91 
Q 1284 -91 818 406 
Q 353 903 353 1747 
Q 353 2603 823 3093 
Q 1294 3584 2113 3584 
Q 2378 3584 2631 3529 
Q 2884 3475 3122 3366 
z
" transform="scale(0.015625)"/>
       <path id="DejaVuSans-6f" d="M 1959 3097 
Q 1497 3097 1228 2736 
Q 959 2375 959 1747 
Q 959 1119 1226 758 
Q 1494 397 1959 397 
Q 2419 397 2687 759 
Q 2956 1122 2956 1747 
Q 2956 2369 2687 2733 
Q 2419 3097 1959 3097 
z
M 1959 3584 
Q 2709 3584 3137 3096 
Q 3566 2609 3566 1747 
Q 3566 888 3137 398 
Q 2709 -91 1959 -91 
Q 1206 -91 779 398 
Q 353 888 353 1747 
Q 353 2609 779 3096 
Q 1206 3584 1959 3584 
z
" transform="scale(0.015625)"/>
       <path id="DejaVuSans-6e" d="M 3513 2113 
L 3513 0 
L 2938 0 
L 2938 2094 
Q 2938 2591 2744 2837 
Q 2550 3084 2163 3084 
Q 1697 3084 1428 2787 
Q 1159 2491 1159 1978 
L 1159 0 
L 581 0 
L 581 3500 
L 1159 3500 
L 1159 2956 
Q 1366 3272 1645 3428 
Q 1925 3584 2291 3584 
Q 2894 3584 3203 3211 
Q 3513 2838 3513 2113 
z
" transform="scale(0.015625)"/>
       <path id="DejaVuSans-64" d="M 2906 2969 
L 2906 4863 
L 3481 4863 
L 3481 0 
L 2906 0 
L 2906 525 
Q 2725 213 2448 61 
Q 2172 -91 1784 -91 
Q 1150 -91 751 415 
Q 353 922 353 1747 
Q 353 2572 751 3078 
Q 1150 3584 1784 3584 
Q 2172 3584 2448 3432 
Q 2725 3281 2906 2969 
z
M 947 1747 
Q 947 1113 1208 752 
Q 1469 391 1925 391 
Q 2381 391 2643 752 
Q 2906 1113 2906 1747 
Q 2906 2381 2643 2742 
Q 2381 3103 1925 3103 
Q 1469 3103 1208 2742 
Q 947 2381 947 1747 
z
" transform="scale(0.015625)"/>
      </defs>
      <use xlink:href="#DejaVuSans-73"/>
      <use xlink:href="#DejaVuSans-65" x="52.099609"/>
      <use xlink:href="#DejaVuSans-63" x="113.623047"/>
      <use xlink:href="#DejaVuSans-6f" x="168.603516"/>
      <use xlink:href="#DejaVuSans-6e" x="229.785156"/>
      <use xlink:href="#DejaVuSans-64" x="293.164062"/>
      <use xlink:href="#DejaVuSans-73" x="356.640625"/>
     </g>
    </g>
   </g>
   <g id="matplotlib.axis_2">
    <g id="ytick_1">
     <g id="line2d_6">
      <defs>
       <path id="m5b7399738c" d="M 0 0 
L -3.5 0 
" style="stroke: #000000; stroke-width: 0.8"/>
      </defs>
      <g>
       <use xlink:href="#m5b7399738c" x="46.64" y="315.901467" style="stroke: #000000; stroke-width: 0.8"/>
      </g>
     </g>
     <g id="text_7">
      <!-- 2 -->
      <g transform="translate(24.897813 319.700686)scale(0.1 -0.1)">
       <defs>
        <path id="DejaVuSans-2212" d="M 678 2272 
L 4684 2272 
L 4684 1741 
L 678 1741 
L 678 2272 
z
" transform="scale(0.015625)"/>
       </defs>
       <use xlink:href="#DejaVuSans-2212"/>
       <use xlink:href="#DejaVuSans-32" x="83.789062"/>
      </g>
     </g>
    </g>
    <g id="ytick_2">
     <g id="line2d_7">
      <g>
       <use xlink:href="#m5b7399738c" x="46.64" y="275.810093" style="stroke: #000000; stroke-width: 0.8"/>
      </g>
     </g>
     <g id="text_8">
      <!-- 1 -->
      <g transform="translate(24.897813 279.609312)scale(0.1 -0.1)">
       <defs>
        <path id="DejaVuSans-31" d="M 794 531 
L 1825 531 
L 1825 4091 
L 703 3866 
L 703 4441 
L 1819 4666 
L 2450 4666 
L 2450 531 
L 3481 531 
L 3481 0 
L 794 0 
L 794 531 
z
" transform="scale(0.015625)"/>
       </defs>
       <use xlink:href="#DejaVuSans-2212"/>
       <use xlink:href="#DejaVuSans-31" x="83.789062"/>
      </g>
     </g>
    </g>
    <g id="ytick_3">
     <g id="line2d_8">
      <g>
       <use xlink:href="#m5b7399738c" x="46.64" y="235.718719" style="stroke: #000000; stroke-width: 0.8"/>
      </g>
     </g>
     <g id="text_9">
      <!-- 0 -->
      <g transform="translate(33.2775 239.517938)scale(0.1 -0.1)">
       <use xlink:href="#DejaVuSans-30"/>
      </g>
     </g>
    </g>
    <g id="ytick_4">
     <g id="line2d_9">
      <g>
       <use xlink:href="#m5b7399738c" x="46.64" y="195.627345" style="stroke: #000000; stroke-width: 0.8"/>
      </g>
     </g>
     <g id="text_10">
      <!-- 1 -->
      <g transform="translate(33.2775 199.426564)scale(0.1 -0.1)">
       <use xlink:href="#DejaVuSans-31"/>
      </g>
     </g>
    </g>
    <g id="ytick_5">
     <g id="line2d_10">
      <g>
       <use xlink:href="#m5b7399738c" x="46.64" y="155.535971" style="stroke: #000000; stroke-width: 0.8"/>
      </g>
     </g>
     <g id="text_11">
      <!-- 2 -->
      <g transform="translate(33.2775 159.33519)scale(0.1 -0.1)">
       <use xlink:href="#DejaVuSans-32"/>
      </g>
     </g>
    </g>
    <g id="ytick_6">
     <g id="line2d_11">
      <g>
       <use xlink:href="#m5b7399738c" x="46.64" y="115.444597" style="stroke: #000000; stroke-width: 0.8"/>
      </g>
     </g>
     <g id="text_12">
      <!-- 3 -->
      <g transform="translate(33.2775 119.243816)scale(0.1 -0.1)">
       <defs>
        <path id="DejaVuSans-33" d="M 2597 2516 
Q 3050 2419 3304 2112 
Q 3559 1806 3559 1356 
Q 3559 666 3084 287 
Q 2609 -91 1734 -91 
Q 1441 -91 1130 -33 
Q 819 25 488 141 
L 488 750 
Q 750 597 1062 519 
Q 1375 441 1716 441 
Q 2309 441 2620 675 
Q 2931 909 2931 1356 
Q 2931 1769 2642 2001 
Q 2353 2234 1838 2234 
L 1294 2234 
L 1294 2753 
L 1863 2753 
Q 2328 2753 2575 2939 
Q 2822 3125 2822 3475 
Q 2822 3834 2567 4026 
Q 2313 4219 1838 4219 
Q 1578 4219 1281 4162 
Q 984 4106 628 3988 
L 628 4550 
Q 988 4650 1302 4700 
Q 1616 4750 1894 4750 
Q 2613 4750 3031 4423 
Q 3450 4097 3450 3541 
Q 3450 3153 3228 2886 
Q 3006 2619 2597 2516 
z
" transform="scale(0.015625)"/>
       </defs>
       <use xlink:href="#DejaVuSans-33"/>
      </g>
     </g>
    </g>
    <g id="ytick_7">
     <g id="line2d_12">
      <g>
       <use xlink:href="#m5b7399738c" x="46.64" y="75.353223" style="stroke: #000000; stroke-width: 0.8"/>
      </g>
     </g>
     <g id="text_13">
      <!-- 4 -->
      <g transform="translate(33.2775 79.152441)scale(0.1 -0.1)">
       <use xlink:href="#DejaVuSans-34"/>
      </g>
     </g>
    </g>
    <g id="text_14">
     <!-- V -->
     <g transform="translate(18.818125 201.487562)rotate(-90)scale(0.1 -0.1)">
      <defs>
       <path id="DejaVuSans-b5" d="M 544 -1331 
L 544 3500 
L 1119 3500 
L 1119 1325 
Q 1119 872 1334 640 
Q 1550 409 1972 409 
Q 2434 409 2667 671 
Q 2900 934 2900 1459 
L 2900 3500 
L 3475 3500 
L 3475 806 
Q 3475 619 3529 530 
Q 3584 441 3700 441 
Q 3728 441 3778 458 
Q 3828 475 3916 513 
L 3916 50 
Q 3788 -22 3673 -56 
Q 3559 -91 3450 -91 
Q 3234 -91 3106 31 
Q 2978 153 2931 403 
Q 2775 156 2548 32 
Q 2322 -91 2016 -91 
Q 1697 -91 1473 31 
Q 1250 153 1119 397 
L 1119 -1331 
L 544 -1331 
z
" transform="scale(0.015625)"/>
       <path id="DejaVuSans-56" d="M 1831 0 
L 50 4666 
L 709 4666 
L 2188 738 
L 3669 4666 
L 4325 4666 
L 2547 0 
L 1831 0 
z
" transform="scale(0.015625)"/>
      </defs>
      <use xlink:href="#DejaVuSans-b5"/>
      <use xlink:href="#DejaVuSans-56" x="63.623047"/>
     </g>
    </g>
   </g>
   <g id="line2d_13">
    <path d="M 46.64 247.856124 
L 47.435945 245.385829 
L 48.231889 244.546033 
L 49.027834 244.964342 
L 49.823779 245.804181 
L 50.619723 246.048513 
L 51.415668 244.839208 
L 52.211613 241.755381 
L 53.007557 236.939953 
L 55.395392 219.891895 
L 56.191336 216.410733 
L 56.987281 214.966209 
L 57.783226 215.480495 
L 58.57917 217.481909 
L 60.17106 223.087594 
L 60.967004 225.358421 
L 61.762949 226.749344 
L 62.558894 227.236344 
L 63.354838 227.059697 
L 64.150783 226.621743 
L 64.946728 226.344814 
L 65.742672 226.525885 
L 66.538617 227.233064 
L 68.130506 229.295266 
L 68.926451 229.851972 
L 69.722396 229.641559 
L 70.51834 228.612801 
L 72.11023 225.497266 
L 72.906175 224.685269 
L 73.702119 225.233728 
L 74.498064 227.47117 
L 75.294009 231.293932 
L 77.681843 245.763961 
L 78.477787 248.948041 
L 79.273732 250.558548 
L 80.069677 250.775499 
L 81.661566 249.424795 
L 82.457511 249.245696 
L 83.253455 250.004693 
L 84.0494 251.733022 
L 87.233179 261.247695 
L 88.029124 262.663946 
L 88.825068 263.61559 
L 89.621013 264.248659 
L 90.416958 264.622522 
L 91.212902 264.62416 
L 92.008847 263.977355 
L 92.804792 262.343991 
L 93.600736 259.472088 
L 94.396681 255.327036 
L 95.98857 244.446816 
L 97.58046 233.880561 
L 98.376404 229.985901 
L 99.172349 227.241687 
L 99.968294 225.480823 
L 100.764238 224.38451 
L 101.560183 223.6354 
L 102.356128 223.048259 
L 103.152073 222.632706 
L 103.948017 222.572529 
L 104.743962 223.134124 
L 105.539907 224.539943 
L 106.335851 226.85746 
L 107.131796 229.949842 
L 109.51963 240.511531 
L 110.315575 243.38502 
L 111.111519 245.694319 
L 111.907464 247.494332 
L 112.703409 248.900514 
L 113.499353 250.01669 
L 114.295298 250.886819 
L 115.091243 251.493354 
L 115.887187 251.802765 
L 116.683132 251.832226 
L 118.275021 251.60598 
L 119.070966 251.801842 
L 119.866911 252.471357 
L 120.662856 253.667003 
L 123.846634 259.928114 
L 124.642579 260.806376 
L 125.438524 261.497515 
L 126.234468 262.362222 
L 127.030413 263.759887 
L 127.826358 265.855246 
L 129.418247 271.106225 
L 130.214192 272.989466 
L 131.010136 273.397767 
L 131.806081 271.906022 
L 132.602026 268.615155 
L 134.193915 259.782925 
L 134.98986 256.525334 
L 135.785805 255.288826 
L 136.581749 256.281184 
L 137.377694 258.955966 
L 138.173639 262.168793 
L 138.969583 264.553071 
L 139.765528 264.989804 
L 140.561473 263.004191 
L 141.357417 258.93847 
L 142.949307 249.022964 
L 143.745251 245.698125 
L 144.541196 244.445228 
L 145.337141 245.095592 
L 146.92903 248.53525 
L 147.724975 249.225673 
L 148.520919 248.431308 
L 149.316864 246.340426 
L 150.908753 241.410867 
L 151.704698 240.273426 
L 152.500643 240.537569 
L 153.296588 241.892705 
L 154.092532 243.606491 
L 154.888477 244.837641 
L 155.684422 244.975379 
L 156.480366 243.872317 
L 158.8682 238.159518 
L 159.664145 237.75291 
L 160.46009 238.666669 
L 161.256034 240.659136 
L 162.847924 245.768201 
L 163.643868 247.832816 
L 164.439813 249.132232 
L 165.235758 249.55983 
L 166.031702 249.095691 
L 166.827647 247.71011 
L 167.623592 245.319666 
L 168.419537 241.828734 
L 169.215481 237.240783 
L 172.39926 215.950095 
L 173.195205 213.150081 
L 173.991149 212.250281 
L 174.787094 213.069565 
L 175.583039 215.049161 
L 177.174928 219.445066 
L 177.970873 220.630734 
L 178.766817 220.863685 
L 179.562762 220.392678 
L 180.358707 219.694327 
L 181.154651 219.276598 
L 181.950596 219.497537 
L 182.746541 220.46078 
L 183.542485 222.016234 
L 185.93032 227.276969 
L 188.318154 231.698784 
L 190.705988 237.315037 
L 191.501932 238.258031 
L 192.297877 237.887178 
L 193.093822 235.914297 
L 193.889766 232.431793 
L 196.2776 219.29764 
L 197.073545 216.694846 
L 197.86949 215.73949 
L 198.665434 216.215951 
L 200.257324 218.812861 
L 201.053269 219.431606 
L 201.849213 219.002886 
L 202.645158 217.625573 
L 204.237047 214.23797 
L 205.032992 213.563805 
L 205.828937 214.110682 
L 206.624881 215.795029 
L 208.216771 220.533324 
L 209.012715 222.262173 
L 209.80866 222.900089 
L 210.604605 222.317967 
L 211.400549 220.681453 
L 212.196494 218.327681 
L 216.176218 204.622643 
L 216.972162 202.442458 
L 217.768107 201.053795 
L 218.564052 200.95103 
L 219.359996 202.596785 
L 220.155941 206.253948 
L 220.951886 211.849864 
L 222.543775 226.72251 
L 223.33972 234.295457 
L 224.135664 240.749914 
L 224.931609 245.396893 
L 225.727554 247.872876 
L 226.523498 248.172339 
L 227.319443 246.595264 
L 228.115388 243.631708 
L 229.707277 235.659482 
L 231.299166 227.57082 
L 232.891056 220.919734 
L 233.687001 218.361135 
L 234.482945 216.441177 
L 235.27889 215.263306 
L 236.074835 214.87311 
L 236.870779 215.172933 
L 237.666724 215.852675 
L 238.462669 216.379985 
L 239.258613 216.075879 
L 240.054558 214.270906 
L 240.850503 210.504944 
L 241.646447 204.712252 
L 244.830226 175.607973 
L 245.626171 171.947081 
L 246.422115 170.789916 
L 247.21806 171.614363 
L 248.014005 173.377125 
L 248.80995 174.827619 
L 249.605894 174.889702 
L 250.401839 172.988175 
L 251.197784 169.208637 
L 253.585618 154.697701 
L 254.381562 151.722511 
L 255.177507 150.211607 
L 255.973452 149.719804 
L 256.769396 149.502372 
L 257.565341 148.822119 
L 258.361286 147.235863 
L 259.15723 144.755895 
L 260.74912 139.155282 
L 261.545064 137.408324 
L 262.341009 137.001413 
L 263.136954 137.95413 
L 263.932898 139.913511 
L 265.524788 144.497724 
L 266.320733 146.068775 
L 267.116677 146.842552 
L 267.912622 146.935012 
L 269.504511 146.337154 
L 270.300456 146.23492 
L 271.096401 146.402439 
L 271.892345 146.704438 
L 272.68829 146.869503 
L 273.484235 146.582872 
L 274.280179 145.586359 
L 275.076124 143.760856 
L 275.872069 141.169902 
L 279.055847 129.099009 
L 279.851792 127.234742 
L 280.647737 126.086247 
L 281.443682 125.508961 
L 283.035571 125.109741 
L 284.62746 124.698476 
L 285.423405 124.644009 
L 286.21935 125.00606 
L 287.015294 126.005219 
L 287.811239 127.716817 
L 290.199073 134.833544 
L 290.995018 136.458875 
L 291.790962 137.112974 
L 292.586907 136.74937 
L 293.382852 135.579571 
L 294.974741 132.473629 
L 295.770686 131.405331 
L 296.56663 131.056409 
L 297.362575 131.50483 
L 298.15852 132.65527 
L 299.750409 136.099371 
L 300.546354 137.80091 
L 301.342299 139.126977 
L 302.138243 139.899948 
L 302.934188 140.075967 
L 303.730133 139.792748 
L 304.526077 139.387553 
L 305.322022 139.350998 
L 306.117967 140.202125 
L 306.913911 142.309544 
L 307.709856 145.718601 
L 310.09769 158.339366 
L 310.893635 160.553248 
L 311.689579 160.869593 
L 312.485524 159.603248 
L 313.281469 157.70835 
L 314.077414 156.500617 
L 314.873358 157.200313 
L 315.669303 160.456977 
L 316.465248 166.037834 
L 318.057137 179.06961 
L 318.853082 183.070769 
L 319.649026 183.665161 
L 320.444971 180.726835 
L 322.832805 164.017416 
L 323.62875 161.747317 
L 324.424694 162.680541 
L 325.220639 166.125209 
L 326.016584 170.475881 
L 326.812528 173.791001 
L 327.608473 174.485655 
L 328.404418 171.890268 
L 329.200363 166.474863 
L 330.792252 153.334707 
L 331.588197 149.169495 
L 332.384141 148.145798 
L 333.180086 150.285125 
L 333.976031 154.748379 
L 335.56792 165.305932 
L 336.363865 169.127236 
L 337.159809 171.358569 
L 337.955754 172.270524 
L 340.343588 172.933517 
L 342.731422 175.103556 
L 343.527367 175.426639 
L 345.119256 175.614128 
L 345.915201 176.168552 
L 346.711146 177.432566 
L 347.50709 179.395501 
L 349.09898 183.772304 
L 349.894924 184.922924 
L 350.690869 184.653405 
L 351.486814 182.781441 
L 352.282758 179.514574 
L 354.670592 167.409142 
L 355.466537 164.728324 
L 356.262482 163.29271 
L 357.058426 163.038124 
L 357.854371 163.712457 
L 358.650316 164.984609 
L 361.03815 169.578992 
L 361.834095 170.80007 
L 362.630039 171.722403 
L 363.425984 172.302549 
L 364.221929 172.531579 
L 365.017873 172.466515 
L 366.609763 172.100689 
L 367.405707 172.235 
L 368.201652 172.796842 
L 368.997597 173.775454 
L 370.589486 176.077207 
L 371.385431 176.699877 
L 372.181375 176.585479 
L 372.97732 175.708554 
L 374.569209 172.990532 
L 375.365154 172.263192 
L 376.161099 172.635604 
L 376.957043 174.279868 
L 377.752988 176.971763 
L 379.344878 183.014598 
L 380.140822 184.925101 
L 380.936767 185.493923 
L 381.732712 184.801193 
L 383.324601 181.899273 
L 384.120546 181.129988 
L 384.91649 181.418666 
L 385.712435 182.655456 
L 386.50838 184.264965 
L 387.304324 185.393997 
L 388.100269 185.210183 
L 388.896214 183.211064 
L 389.692158 179.432974 
L 392.079992 165.184426 
L 392.875937 162.862575 
L 393.671882 162.845786 
L 394.467827 165.03893 
L 395.263771 168.856414 
L 396.855661 177.693687 
L 397.651605 180.908019 
L 398.44755 182.509626 
L 399.243495 182.318214 
L 400.039439 180.482241 
L 400.835384 177.408184 
L 402.427273 169.918331 
L 403.223218 166.761398 
L 404.019163 164.664945 
L 404.815107 163.845165 
L 405.611052 164.209304 
L 407.202941 166.667464 
L 407.998886 167.432731 
L 408.794831 167.068394 
L 409.590775 165.288491 
L 410.38672 162.215569 
L 411.97861 154.523309 
L 412.774554 151.506725 
L 413.570499 149.973102 
L 413.570499 149.973102 
" clip-path="url(#p568aa5cfd3)" style="fill: none; stroke: #e41a1c; stroke-width: 1.5; stroke-linecap: square"/>
   </g>
   <g id="line2d_14">
    <path d="M 46.64 230.751253 
L 47.435945 231.040658 
L 48.231889 230.576139 
L 49.823779 229.098544 
L 50.619723 229.015999 
L 51.415668 229.705592 
L 52.211613 231.068056 
L 53.803502 234.3418 
L 54.599447 235.43139 
L 55.395392 235.860642 
L 56.191336 235.712964 
L 57.783226 234.837906 
L 58.57917 234.66364 
L 59.375115 234.77209 
L 60.17106 234.999181 
L 60.967004 235.073926 
L 61.762949 234.756877 
L 62.558894 233.970522 
L 64.150783 231.798277 
L 64.946728 231.200812 
L 65.742672 231.426384 
L 66.538617 232.597772 
L 67.334562 234.541902 
L 68.926451 238.896621 
L 69.722396 240.225383 
L 70.51834 240.490041 
L 71.314285 239.658487 
L 72.11023 237.997036 
L 73.702119 234.172983 
L 74.498064 233.020443 
L 75.294009 232.788619 
L 76.089953 233.493088 
L 76.885898 234.932147 
L 79.273732 240.17352 
L 80.069677 241.245425 
L 80.865621 241.796874 
L 81.661566 241.916716 
L 83.253455 241.516079 
L 84.0494 241.309705 
L 84.845345 241.231968 
L 85.641289 241.309487 
L 87.233179 241.819828 
L 89.621013 242.771116 
L 91.212902 243.133387 
L 92.008847 243.148695 
L 92.804792 243.028273 
L 94.396681 242.409062 
L 95.98857 241.447751 
L 97.58046 240.245444 
L 99.172349 238.60849 
L 101.560183 235.497644 
L 102.356128 234.793539 
L 103.152073 234.544784 
L 103.948017 234.813029 
L 104.743962 235.504399 
L 105.539907 236.367039 
L 106.335851 237.049229 
L 107.131796 237.209962 
L 107.927741 236.650128 
L 108.723685 235.413555 
L 110.315575 232.327282 
L 111.111519 231.485581 
L 111.907464 231.635669 
L 112.703409 232.823668 
L 115.091243 238.380886 
L 115.887187 238.89508 
L 116.683132 238.169237 
L 117.479077 236.430516 
L 119.070966 232.39135 
L 119.866911 231.460392 
L 120.662856 231.780496 
L 121.4588 233.241576 
L 123.05069 237.445265 
L 123.846634 238.880165 
L 124.642579 239.318059 
L 125.438524 238.813702 
L 127.030413 236.817744 
L 127.826358 236.469556 
L 128.622302 237.025669 
L 129.418247 238.421734 
L 131.010136 242.049427 
L 131.806081 243.233596 
L 132.602026 243.547003 
L 133.39797 243.011744 
L 135.785805 239.667217 
L 136.581749 239.080776 
L 137.377694 238.89119 
L 138.969583 238.822754 
L 139.765528 238.447103 
L 140.561473 237.669893 
L 141.357417 236.532286 
L 145.337141 229.722373 
L 146.133085 228.666651 
L 146.92903 227.932219 
L 147.724975 227.691754 
L 148.520919 228.067058 
L 149.316864 229.027367 
L 150.908753 231.480895 
L 151.704698 231.943407 
L 152.500643 231.229026 
L 153.296588 229.149591 
L 154.092532 225.937584 
L 155.684422 218.932133 
L 156.480366 216.890316 
L 157.276311 216.667927 
L 158.072256 218.323641 
L 158.8682 221.384269 
L 160.46009 228.178476 
L 161.256034 230.197467 
L 162.051979 230.753825 
L 162.847924 230.088163 
L 163.643868 228.866581 
L 164.439813 227.934219 
L 165.235758 228.026263 
L 166.031702 229.536292 
L 166.827647 232.412886 
L 169.215481 243.854245 
L 170.011426 246.558762 
L 170.807371 248.193944 
L 171.603315 248.897738 
L 172.39926 249.01874 
L 173.195205 248.985779 
L 173.991149 249.187974 
L 174.787094 249.893993 
L 175.583039 251.21881 
L 176.378983 253.131551 
L 177.970873 258.073527 
L 179.562762 262.896889 
L 180.358707 264.628822 
L 181.154651 265.651094 
L 181.950596 265.897711 
L 182.746541 265.437333 
L 183.542485 264.460241 
L 185.93032 260.89233 
L 188.318154 258.167402 
L 189.114098 256.837173 
L 189.910043 255.042551 
L 192.297877 248.322625 
L 193.093822 246.776091 
L 193.889766 246.15059 
L 194.685711 246.574856 
L 195.481656 247.9445 
L 197.86949 253.842674 
L 198.665434 254.844491 
L 199.461379 254.850306 
L 200.257324 253.867599 
L 201.053269 252.11765 
L 202.645158 247.833657 
L 203.441103 246.065876 
L 204.237047 244.867581 
L 205.032992 244.253153 
L 205.828937 244.069925 
L 207.420826 243.994011 
L 208.216771 243.668453 
L 209.012715 243.039997 
L 211.400549 240.563092 
L 212.196494 240.15755 
L 212.992439 240.150125 
L 213.788383 240.514299 
L 214.584328 241.159699 
L 216.176218 242.917354 
L 217.768107 245.056915 
L 219.359996 247.665162 
L 221.74783 251.839988 
L 223.33972 254.057873 
L 224.931609 256.2252 
L 225.727554 257.574728 
L 227.319443 260.915805 
L 228.911332 264.238905 
L 229.707277 265.410358 
L 230.503222 266.063196 
L 231.299166 266.162969 
L 232.095111 265.761195 
L 232.891056 264.963362 
L 234.482945 262.677667 
L 236.074835 260.295867 
L 236.870779 259.385686 
L 237.666724 258.822266 
L 238.462669 258.680691 
L 239.258613 258.960098 
L 241.646447 260.866905 
L 242.442392 261.098238 
L 243.238337 260.853461 
L 244.034281 260.170438 
L 245.626171 258.30357 
L 246.422115 257.61829 
L 247.21806 257.29511 
L 249.605894 257.210759 
L 250.401839 256.59139 
L 251.197784 255.373998 
L 252.789673 251.687808 
L 253.585618 249.870318 
L 254.381562 248.548339 
L 255.177507 247.94871 
L 255.973452 248.114271 
L 256.769396 248.907428 
L 259.15723 252.354396 
L 259.953175 253.075246 
L 260.74912 253.396247 
L 261.545064 253.307552 
L 262.341009 252.819421 
L 263.136954 251.948271 
L 263.932898 250.729009 
L 267.116677 244.769011 
L 267.912622 243.905739 
L 268.708567 243.515378 
L 269.504511 243.489917 
L 270.300456 243.585013 
L 271.096401 243.496657 
L 271.892345 242.972026 
L 272.68829 241.909999 
L 275.076124 237.290891 
L 275.872069 236.363153 
L 276.668013 236.132983 
L 277.463958 236.540873 
L 279.055847 238.072089 
L 279.851792 238.454071 
L 280.647737 238.263325 
L 281.443682 237.525254 
L 283.035571 235.441682 
L 283.831516 234.773783 
L 284.62746 234.675809 
L 285.423405 235.174409 
L 286.21935 236.129905 
L 290.199073 242.186717 
L 291.790962 245.425876 
L 293.382852 248.89596 
L 294.178796 250.085445 
L 294.974741 250.600518 
L 295.770686 250.401008 
L 296.56663 249.649745 
L 298.15852 247.768716 
L 298.954465 247.225957 
L 299.750409 247.090545 
L 301.342299 247.389666 
L 302.138243 247.302297 
L 302.934188 246.808323 
L 303.730133 245.918889 
L 305.322022 243.696037 
L 306.117967 242.781202 
L 308.505801 240.74581 
L 309.301745 239.651102 
L 310.09769 238.150073 
L 311.689579 234.78616 
L 312.485524 233.735221 
L 313.281469 233.618993 
L 314.077414 234.558423 
L 314.873358 236.349621 
L 316.465248 240.381858 
L 317.261192 241.422235 
L 318.057137 241.299971 
L 318.853082 240.042412 
L 321.240916 234.078166 
L 322.03686 233.296778 
L 322.832805 233.703679 
L 323.62875 235.234904 
L 324.424694 237.594372 
L 326.812528 245.639608 
L 327.608473 247.631381 
L 328.404418 249.069353 
L 329.200363 249.980823 
L 329.996307 250.445555 
L 330.792252 250.569632 
L 333.180086 250.235535 
L 333.976031 250.380778 
L 334.771975 250.827943 
L 336.363865 252.430858 
L 337.159809 253.239131 
L 337.955754 253.739008 
L 338.751699 253.735552 
L 339.547643 253.143554 
L 340.343588 252.019578 
L 343.527367 246.212932 
L 345.119256 244.001759 
L 345.915201 242.697645 
L 346.711146 241.03404 
L 348.303035 236.69109 
L 349.09898 234.462903 
L 349.894924 232.680889 
L 350.690869 231.685074 
L 351.486814 231.655281 
L 352.282758 232.540213 
L 354.670592 237.223418 
L 355.466537 238.042784 
L 356.262482 238.096462 
L 357.058426 237.515627 
L 357.854371 236.660678 
L 358.650316 236.002275 
L 359.44626 235.96155 
L 360.242205 236.764671 
L 361.03815 238.360579 
L 362.630039 242.46748 
L 363.425984 243.960072 
L 364.221929 244.533631 
L 365.017873 244.092854 
L 365.813818 242.857053 
L 367.405707 239.948869 
L 368.201652 239.296135 
L 368.997597 239.557341 
L 369.793541 240.652941 
L 371.385431 243.811612 
L 372.181375 244.919616 
L 372.97732 245.283057 
L 373.773265 244.900891 
L 376.161099 242.414613 
L 376.957043 242.296534 
L 377.752988 242.726729 
L 379.344878 244.305014 
L 380.140822 244.823077 
L 380.936767 244.884059 
L 381.732712 244.51021 
L 383.324601 243.303102 
L 384.120546 242.953192 
L 384.91649 242.919847 
L 386.50838 243.3056 
L 387.304324 243.256555 
L 388.100269 242.778776 
L 388.896214 241.824173 
L 390.488103 238.979355 
L 392.079992 236.192204 
L 392.875937 235.113383 
L 394.467827 233.503592 
L 395.263771 232.905958 
L 396.059716 232.474867 
L 396.855661 232.274597 
L 397.651605 232.344272 
L 400.039439 233.108279 
L 400.835384 232.731303 
L 401.631329 231.660388 
L 402.427273 229.905428 
L 404.019163 225.50531 
L 404.815107 223.77915 
L 405.611052 222.936046 
L 406.406997 223.167351 
L 407.202941 224.394805 
L 408.794831 228.449933 
L 409.590775 230.424477 
L 410.38672 231.976427 
L 411.182665 233.083363 
L 412.774554 234.793269 
L 413.570499 235.957333 
L 413.570499 235.957333 
" clip-path="url(#p568aa5cfd3)" style="fill: none; stroke: #377eb8; stroke-width: 1.5; stroke-linecap: square"/>
   </g>
   <g id="line2d_15">
    <path d="M 87.233179 318.04 
L 87.233179 71.732 
" clip-path="url(#p568aa5cfd3)" style="fill: none; stroke: #000000; stroke-width: 0.5; stroke-linecap: square"/>
   </g>
   <g id="line2d_16">
    <path d="M 46.64 235.718719 
L 413.570499 235.718719 
" clip-path="url(#p568aa5cfd3)" style="fill: none; stroke: #000000; stroke-width: 0.5; stroke-linecap: square"/>
   </g>
   <g id="patch_4">
    <path d="M 46.64 318.04 
L 46.64 71.732 
" style="fill: none; stroke: #000000; stroke-width: 0.8; stroke-linejoin: miter; stroke-linecap: square"/>
   </g>
   <g id="patch_5">
    <path d="M 413.570499 318.04 
L 413.570499 71.732 
" style="fill: none; stroke: #000000; stroke-width: 0.8; stroke-linejoin: miter; stroke-linecap: square"/>
   </g>
   <g id="patch_6">
    <path d="M 46.64 318.04 
L 413.570499 318.04 
" style="fill: none; stroke: #000000; stroke-width: 0.8; stroke-linejoin: miter; stroke-linecap: square"/>
   </g>
   <g id="patch_7">
    <path d="M 46.64 71.732 
L 413.570499 71.732 
" style="fill: none; stroke: #000000; stroke-width: 0.8; stroke-linejoin: miter; stroke-linecap: square"/>
   </g>
   <g id="text_15">
    <!-- Cz -->
    <g transform="translate(222.766499 65.732)scale(0.12 -0.12)">
     <defs>
      <path id="DejaVuSans-43" d="M 4122 4306 
L 4122 3641 
Q 3803 3938 3442 4084 
Q 3081 4231 2675 4231 
Q 1875 4231 1450 3742 
Q 1025 3253 1025 2328 
Q 1025 1406 1450 917 
Q 1875 428 2675 428 
Q 3081 428 3442 575 
Q 3803 722 4122 1019 
L 4122 359 
Q 3791 134 3420 21 
Q 3050 -91 2638 -91 
Q 1578 -91 968 557 
Q 359 1206 359 2328 
Q 359 3453 968 4101 
Q 1578 4750 2638 4750 
Q 3056 4750 3426 4639 
Q 3797 4528 4122 4306 
z
" transform="scale(0.015625)"/>
      <path id="DejaVuSans-7a" d="M 353 3500 
L 3084 3500 
L 3084 2975 
L 922 459 
L 3084 459 
L 3084 0 
L 275 0 
L 275 525 
L 2438 3041 
L 353 3041 
L 353 3500 
z
" transform="scale(0.015625)"/>
     </defs>
     <use xlink:href="#DejaVuSans-43"/>
     <use xlink:href="#DejaVuSans-7a" x="69.824219"/>
    </g>
   </g>
   <g id="legend_1">
    <g id="patch_8">
     <path d="M 99.877906 48.500845 
L 360.332593 48.500845 
Q 362.332593 48.500845 362.332593 46.500845 
L 362.332593 18.144595 
Q 362.332593 16.144595 360.332593 16.144595 
L 99.877906 16.144595 
Q 97.877906 16.144595 97.877906 18.144595 
L 97.877906 46.500845 
Q 97.877906 48.500845 99.877906 48.500845 
z
" style="fill: #ffffff; opacity: 0.8; stroke: #cccccc; stroke-linejoin: miter"/>
    </g>
    <g id="text_16">
     <!-- Average of Session 46 -->
     <g transform="translate(174.545874 27.743033)scale(0.1 -0.1)">
      <defs>
       <path id="DejaVuSans-41" d="M 2188 4044 
L 1331 1722 
L 3047 1722 
L 2188 4044 
z
M 1831 4666 
L 2547 4666 
L 4325 0 
L 3669 0 
L 3244 1197 
L 1141 1197 
L 716 0 
L 50 0 
L 1831 4666 
z
" transform="scale(0.015625)"/>
       <path id="DejaVuSans-76" d="M 191 3500 
L 800 3500 
L 1894 563 
L 2988 3500 
L 3597 3500 
L 2284 0 
L 1503 0 
L 191 3500 
z
" transform="scale(0.015625)"/>
       <path id="DejaVuSans-72" d="M 2631 2963 
Q 2534 3019 2420 3045 
Q 2306 3072 2169 3072 
Q 1681 3072 1420 2755 
Q 1159 2438 1159 1844 
L 1159 0 
L 581 0 
L 581 3500 
L 1159 3500 
L 1159 2956 
Q 1341 3275 1631 3429 
Q 1922 3584 2338 3584 
Q 2397 3584 2469 3576 
Q 2541 3569 2628 3553 
L 2631 2963 
z
" transform="scale(0.015625)"/>
       <path id="DejaVuSans-61" d="M 2194 1759 
Q 1497 1759 1228 1600 
Q 959 1441 959 1056 
Q 959 750 1161 570 
Q 1363 391 1709 391 
Q 2188 391 2477 730 
Q 2766 1069 2766 1631 
L 2766 1759 
L 2194 1759 
z
M 3341 1997 
L 3341 0 
L 2766 0 
L 2766 531 
Q 2569 213 2275 61 
Q 1981 -91 1556 -91 
Q 1019 -91 701 211 
Q 384 513 384 1019 
Q 384 1609 779 1909 
Q 1175 2209 1959 2209 
L 2766 2209 
L 2766 2266 
Q 2766 2663 2505 2880 
Q 2244 3097 1772 3097 
Q 1472 3097 1187 3025 
Q 903 2953 641 2809 
L 641 3341 
Q 956 3463 1253 3523 
Q 1550 3584 1831 3584 
Q 2591 3584 2966 3190 
Q 3341 2797 3341 1997 
z
" transform="scale(0.015625)"/>
       <path id="DejaVuSans-67" d="M 2906 1791 
Q 2906 2416 2648 2759 
Q 2391 3103 1925 3103 
Q 1463 3103 1205 2759 
Q 947 2416 947 1791 
Q 947 1169 1205 825 
Q 1463 481 1925 481 
Q 2391 481 2648 825 
Q 2906 1169 2906 1791 
z
M 3481 434 
Q 3481 -459 3084 -895 
Q 2688 -1331 1869 -1331 
Q 1566 -1331 1297 -1286 
Q 1028 -1241 775 -1147 
L 775 -588 
Q 1028 -725 1275 -790 
Q 1522 -856 1778 -856 
Q 2344 -856 2625 -561 
Q 2906 -266 2906 331 
L 2906 616 
Q 2728 306 2450 153 
Q 2172 0 1784 0 
Q 1141 0 747 490 
Q 353 981 353 1791 
Q 353 2603 747 3093 
Q 1141 3584 1784 3584 
Q 2172 3584 2450 3431 
Q 2728 3278 2906 2969 
L 2906 3500 
L 3481 3500 
L 3481 434 
z
" transform="scale(0.015625)"/>
       <path id="DejaVuSans-20" transform="scale(0.015625)"/>
       <path id="DejaVuSans-66" d="M 2375 4863 
L 2375 4384 
L 1825 4384 
Q 1516 4384 1395 4259 
Q 1275 4134 1275 3809 
L 1275 3500 
L 2222 3500 
L 2222 3053 
L 1275 3053 
L 1275 0 
L 697 0 
L 697 3053 
L 147 3053 
L 147 3500 
L 697 3500 
L 697 3744 
Q 697 4328 969 4595 
Q 1241 4863 1831 4863 
L 2375 4863 
z
" transform="scale(0.015625)"/>
       <path id="DejaVuSans-53" d="M 3425 4513 
L 3425 3897 
Q 3066 4069 2747 4153 
Q 2428 4238 2131 4238 
Q 1616 4238 1336 4038 
Q 1056 3838 1056 3469 
Q 1056 3159 1242 3001 
Q 1428 2844 1947 2747 
L 2328 2669 
Q 3034 2534 3370 2195 
Q 3706 1856 3706 1288 
Q 3706 609 3251 259 
Q 2797 -91 1919 -91 
Q 1588 -91 1214 -16 
Q 841 59 441 206 
L 441 856 
Q 825 641 1194 531 
Q 1563 422 1919 422 
Q 2459 422 2753 634 
Q 3047 847 3047 1241 
Q 3047 1584 2836 1778 
Q 2625 1972 2144 2069 
L 1759 2144 
Q 1053 2284 737 2584 
Q 422 2884 422 3419 
Q 422 4038 858 4394 
Q 1294 4750 2059 4750 
Q 2388 4750 2728 4690 
Q 3069 4631 3425 4513 
z
" transform="scale(0.015625)"/>
       <path id="DejaVuSans-69" d="M 603 3500 
L 1178 3500 
L 1178 0 
L 603 0 
L 603 3500 
z
M 603 4863 
L 1178 4863 
L 1178 4134 
L 603 4134 
L 603 4863 
z
" transform="scale(0.015625)"/>
      </defs>
      <use xlink:href="#DejaVuSans-41"/>
      <use xlink:href="#DejaVuSans-76" x="62.533203"/>
      <use xlink:href="#DejaVuSans-65" x="121.712891"/>
      <use xlink:href="#DejaVuSans-72" x="183.236328"/>
      <use xlink:href="#DejaVuSans-61" x="224.349609"/>
      <use xlink:href="#DejaVuSans-67" x="285.628906"/>
      <use xlink:href="#DejaVuSans-65" x="349.105469"/>
      <use xlink:href="#DejaVuSans-20" x="410.628906"/>
      <use xlink:href="#DejaVuSans-6f" x="442.416016"/>
      <use xlink:href="#DejaVuSans-66" x="503.597656"/>
      <use xlink:href="#DejaVuSans-20" x="538.802734"/>
      <use xlink:href="#DejaVuSans-53" x="570.589844"/>
      <use xlink:href="#DejaVuSans-65" x="634.066406"/>
      <use xlink:href="#DejaVuSans-73" x="695.589844"/>
      <use xlink:href="#DejaVuSans-73" x="747.689453"/>
      <use xlink:href="#DejaVuSans-69" x="799.789062"/>
      <use xlink:href="#DejaVuSans-6f" x="827.572266"/>
      <use xlink:href="#DejaVuSans-6e" x="888.753906"/>
      <use xlink:href="#DejaVuSans-20" x="952.132812"/>
      <use xlink:href="#DejaVuSans-34" x="983.919922"/>
      <use xlink:href="#DejaVuSans-36" x="1047.542969"/>
     </g>
    </g>
    <g id="line2d_17">
     <path d="M 101.877906 38.921158 
L 111.877906 38.921158 
L 121.877906 38.921158 
" style="fill: none; stroke: #e41a1c; stroke-width: 1.5; stroke-linecap: square"/>
    </g>
    <g id="text_17">
     <!-- Target (n=286) -->
     <g transform="translate(129.877906 42.421158)scale(0.1 -0.1)">
      <defs>
       <path id="DejaVuSans-54" d="M -19 4666 
L 3928 4666 
L 3928 4134 
L 2272 4134 
L 2272 0 
L 1638 0 
L 1638 4134 
L -19 4134 
L -19 4666 
z
" transform="scale(0.015625)"/>
       <path id="DejaVuSans-74" d="M 1172 4494 
L 1172 3500 
L 2356 3500 
L 2356 3053 
L 1172 3053 
L 1172 1153 
Q 1172 725 1289 603 
Q 1406 481 1766 481 
L 2356 481 
L 2356 0 
L 1766 0 
Q 1100 0 847 248 
Q 594 497 594 1153 
L 594 3053 
L 172 3053 
L 172 3500 
L 594 3500 
L 594 4494 
L 1172 4494 
z
" transform="scale(0.015625)"/>
       <path id="DejaVuSans-28" d="M 1984 4856 
Q 1566 4138 1362 3434 
Q 1159 2731 1159 2009 
Q 1159 1288 1364 580 
Q 1569 -128 1984 -844 
L 1484 -844 
Q 1016 -109 783 600 
Q 550 1309 550 2009 
Q 550 2706 781 3412 
Q 1013 4119 1484 4856 
L 1984 4856 
z
" transform="scale(0.015625)"/>
       <path id="DejaVuSans-3d" d="M 678 2906 
L 4684 2906 
L 4684 2381 
L 678 2381 
L 678 2906 
z
M 678 1631 
L 4684 1631 
L 4684 1100 
L 678 1100 
L 678 1631 
z
" transform="scale(0.015625)"/>
       <path id="DejaVuSans-29" d="M 513 4856 
L 1013 4856 
Q 1481 4119 1714 3412 
Q 1947 2706 1947 2009 
Q 1947 1309 1714 600 
Q 1481 -109 1013 -844 
L 513 -844 
Q 928 -128 1133 580 
Q 1338 1288 1338 2009 
Q 1338 2731 1133 3434 
Q 928 4138 513 4856 
z
" transform="scale(0.015625)"/>
      </defs>
      <use xlink:href="#DejaVuSans-54"/>
      <use xlink:href="#DejaVuSans-61" x="44.583984"/>
      <use xlink:href="#DejaVuSans-72" x="105.863281"/>
      <use xlink:href="#DejaVuSans-67" x="145.226562"/>
      <use xlink:href="#DejaVuSans-65" x="208.703125"/>
      <use xlink:href="#DejaVuSans-74" x="270.226562"/>
      <use xlink:href="#DejaVuSans-20" x="309.435547"/>
      <use xlink:href="#DejaVuSans-28" x="341.222656"/>
      <use xlink:href="#DejaVuSans-6e" x="380.236328"/>
      <use xlink:href="#DejaVuSans-3d" x="443.615234"/>
      <use xlink:href="#DejaVuSans-32" x="527.404297"/>
      <use xlink:href="#DejaVuSans-38" x="591.027344"/>
      <use xlink:href="#DejaVuSans-36" x="654.650391"/>
      <use xlink:href="#DejaVuSans-29" x="718.273438"/>
     </g>
    </g>
    <g id="line2d_18">
     <path d="M 225.607593 38.921158 
L 235.607593 38.921158 
L 245.607593 38.921158 
" style="fill: none; stroke: #377eb8; stroke-width: 1.5; stroke-linecap: square"/>
    </g>
    <g id="text_18">
     <!-- Non-Target (n=1474) -->
     <g transform="translate(253.607593 42.421158)scale(0.1 -0.1)">
      <defs>
       <path id="DejaVuSans-4e" d="M 628 4666 
L 1478 4666 
L 3547 763 
L 3547 4666 
L 4159 4666 
L 4159 0 
L 3309 0 
L 1241 3903 
L 1241 0 
L 628 0 
L 628 4666 
z
" transform="scale(0.015625)"/>
       <path id="DejaVuSans-2d" d="M 313 2009 
L 1997 2009 
L 1997 1497 
L 313 1497 
L 313 2009 
z
" transform="scale(0.015625)"/>
       <path id="DejaVuSans-37" d="M 525 4666 
L 3525 4666 
L 3525 4397 
L 1831 0 
L 1172 0 
L 2766 4134 
L 525 4134 
L 525 4666 
z
" transform="scale(0.015625)"/>
      </defs>
      <use xlink:href="#DejaVuSans-4e"/>
      <use xlink:href="#DejaVuSans-6f" x="74.804688"/>
      <use xlink:href="#DejaVuSans-6e" x="135.986328"/>
      <use xlink:href="#DejaVuSans-2d" x="199.365234"/>
      <use xlink:href="#DejaVuSans-54" x="226.324219"/>
      <use xlink:href="#DejaVuSans-61" x="270.908203"/>
      <use xlink:href="#DejaVuSans-72" x="332.1875"/>
      <use xlink:href="#DejaVuSans-67" x="371.550781"/>
      <use xlink:href="#DejaVuSans-65" x="435.027344"/>
      <use xlink:href="#DejaVuSans-74" x="496.550781"/>
      <use xlink:href="#DejaVuSans-20" x="535.759766"/>
      <use xlink:href="#DejaVuSans-28" x="567.546875"/>
      <use xlink:href="#DejaVuSans-6e" x="606.560547"/>
      <use xlink:href="#DejaVuSans-3d" x="669.939453"/>
      <use xlink:href="#DejaVuSans-31" x="753.728516"/>
      <use xlink:href="#DejaVuSans-34" x="817.351562"/>
      <use xlink:href="#DejaVuSans-37" x="880.974609"/>
      <use xlink:href="#DejaVuSans-34" x="944.597656"/>
      <use xlink:href="#DejaVuSans-29" x="1008.220703"/>
     </g>
    </g>
   </g>
  </g>
 </g>
 <defs>
  <clipPath id="p568aa5cfd3">
   <rect x="46.64" y="71.732" width="366.930499" height="246.308"/>
  </clipPath>
 </defs>
</svg>
