<?xml version="1.0" encoding="utf-8" standalone="no"?>
<!DOCTYPE svg PUBLIC "-//W3C//DTD SVG 1.1//EN"
  "http://www.w3.org/Graphics/SVG/1.1/DTD/svg11.dtd">
<svg xmlns:xlink="http://www.w3.org/1999/xlink" width="432pt" height="360pt" viewBox="0 0 432 360" xmlns="http://www.w3.org/2000/svg" version="1.1">
 <metadata>
  <rdf:RDF xmlns:dc="http://purl.org/dc/elements/1.1/" xmlns:cc="http://creativecommons.org/ns#" xmlns:rdf="http://www.w3.org/1999/02/22-rdf-syntax-ns#">
   <cc:Work>
    <dc:type rdf:resource="http://purl.org/dc/dcmitype/StillImage"/>
    <dc:date>2022-11-02T16:57:15.938508</dc:date>
    <dc:format>image/svg+xml</dc:format>
    <dc:creator>
     <cc:Agent>
      <dc:title>Matplotlib v3.5.1, https://matplotlib.org/</dc:title>
     </cc:Agent>
    </dc:creator>
   </cc:Work>
  </rdf:RDF>
 </metadata>
 <defs>
  <style type="text/css">*{stroke-linejoin: round; stroke-linecap: butt}</style>
 </defs>
 <g id="figure_1">
  <g id="patch_1">
   <path d="M 0 360 
L 432 360 
L 432 0 
L 0 0 
L 0 360 
z
" style="fill: none"/>
  </g>
  <g id="axes_1">
   <g id="patch_2">
    <path d="M 46.55 318.2 
L 413.615499 318.2 
L 413.615499 71.241125 
L 46.55 71.241125 
L 46.55 318.2 
z
" style="fill: none"/>
   </g>
   <g id="PolyCollection_1">
    <defs>
     <path id="m00c73d6bc1" d="M 46.55 -151.089187 
L 46.55 -106.512149 
L 47.346238 -108.218504 
L 48.142475 -110.653484 
L 48.938713 -113.240914 
L 49.73495 -115.491168 
L 50.531188 -117.150871 
L 51.327425 -118.222078 
L 52.123663 -118.831452 
L 52.9199 -119.050562 
L 53.716138 -118.817267 
L 54.512375 -118.024071 
L 55.308613 -116.660522 
L 56.10485 -114.844536 
L 56.901088 -112.759207 
L 57.697325 -110.627205 
L 58.493563 -108.749323 
L 59.2898 -107.508518 
L 60.086038 -107.246149 
L 60.882275 -108.065491 
L 61.678513 -109.750233 
L 62.47475 -111.880021 
L 63.270988 -113.993712 
L 64.067226 -115.660948 
L 64.863463 -116.514747 
L 65.659701 -116.326007 
L 66.455938 -115.096817 
L 67.252176 -113.077976 
L 68.048413 -110.649703 
L 68.844651 -108.140703 
L 69.640888 -105.740235 
L 70.437126 -103.556804 
L 71.233363 -101.725301 
L 72.029601 -100.44568 
L 72.825838 -99.939487 
L 73.622076 -100.376541 
L 74.418313 -101.792723 
L 75.214551 -103.996656 
L 76.010788 -106.514476 
L 76.807026 -108.663051 
L 77.603263 -109.779 
L 78.399501 -109.503424 
L 79.195739 -107.950947 
L 79.991976 -105.6559 
L 80.788214 -103.33732 
L 81.584451 -101.61853 
L 82.380689 -100.820229 
L 83.176926 -100.869923 
L 83.973164 -101.325897 
L 84.769401 -101.52844 
L 85.565639 -100.878436 
L 86.361876 -99.158414 
L 87.158114 -96.718149 
L 87.954351 -94.371847 
L 88.750589 -93.03588 
L 89.546826 -93.316646 
L 90.343064 -95.260128 
L 91.139301 -98.335354 
L 91.935539 -101.596913 
L 92.731776 -103.954618 
L 93.528014 -104.497619 
L 94.324251 -102.800905 
L 95.120489 -99.094009 
L 95.916727 -94.180747 
L 96.712964 -89.115595 
L 97.509202 -84.798044 
L 98.305439 -81.695826 
L 99.101677 -79.806963 
L 99.897914 -78.823181 
L 100.694152 -78.366288 
L 101.490389 -78.179064 
L 102.286627 -78.212814 
L 103.082864 -78.603487 
L 103.879102 -79.560918 
L 104.675339 -81.222222 
L 105.471577 -83.533681 
L 106.267814 -86.211649 
L 107.064052 -88.799437 
L 107.860289 -90.797098 
L 108.656527 -91.813709 
L 109.452764 -91.689474 
L 110.249002 -90.55083 
L 111.04524 -88.776519 
L 111.841477 -86.866684 
L 112.637715 -85.246626 
L 113.433952 -84.097222 
L 114.23019 -83.320504 
L 115.026427 -82.676128 
L 115.822665 -82.002267 
L 116.618902 -81.361643 
L 117.41514 -81.014109 
L 118.211377 -81.260936 
L 119.007615 -82.283185 
L 119.803852 -84.049913 
L 120.60009 -86.28632 
L 121.396327 -88.479247 
L 122.192565 -89.959225 
L 122.988802 -90.10873 
L 123.78504 -88.646806 
L 124.581277 -85.830225 
L 125.377515 -82.423735 
L 126.173752 -79.435271 
L 126.96999 -77.749002 
L 127.766228 -77.813716 
L 128.562465 -79.486082 
L 129.358703 -82.060279 
L 130.15494 -84.477448 
L 130.951178 -85.658205 
L 131.747415 -84.865611 
L 132.543653 -81.975465 
L 133.33989 -77.557424 
L 134.136128 -72.737916 
L 134.932365 -68.883238 
L 135.728603 -67.189671 
L 136.52484 -68.302167 
L 137.321078 -72.098023 
L 138.117315 -77.728937 
L 138.913553 -83.912148 
L 139.70979 -89.350522 
L 140.506028 -93.114501 
L 141.302265 -94.856966 
L 142.098503 -94.818015 
L 142.89474 -93.651274 
L 143.690978 -92.148784 
L 144.487216 -90.963737 
L 145.283453 -90.433323 
L 146.079691 -90.564144 
L 146.875928 -91.160005 
L 147.672166 -91.994555 
L 148.468403 -92.923636 
L 149.264641 -93.898973 
L 150.060878 -94.917746 
L 150.857116 -95.966633 
L 151.653353 -96.998576 
L 152.449591 -97.947749 
L 153.245828 -98.768408 
L 154.042066 -99.480774 
L 154.838303 -100.211244 
L 155.634541 -101.200409 
L 156.430778 -102.747077 
L 157.227016 -105.065691 
L 158.023253 -108.103654 
L 158.819491 -111.426767 
L 159.615729 -114.27344 
L 160.411966 -115.797763 
L 161.208204 -115.420904 
L 162.004441 -113.136666 
L 162.800679 -109.614149 
L 163.596916 -106.017628 
L 164.393154 -103.601762 
L 165.189391 -103.256065 
L 165.985629 -105.19139 
L 166.781866 -108.887465 
L 167.578104 -113.301161 
L 168.374341 -117.237434 
L 169.170579 -119.747766 
L 169.966816 -120.437866 
L 170.763054 -119.596978 
L 171.559291 -118.099027 
L 172.355529 -117.086296 
L 173.151766 -117.537219 
L 173.948004 -119.897704 
L 174.744241 -123.94333 
L 175.540479 -128.923371 
L 176.336717 -133.895551 
L 177.132954 -138.08387 
L 177.929192 -141.113574 
L 178.725429 -143.048456 
L 179.521667 -144.238822 
L 180.317904 -145.063919 
L 181.114142 -145.701541 
L 181.910379 -146.042195 
L 182.706617 -145.781909 
L 183.502854 -144.628533 
L 184.299092 -142.510344 
L 185.095329 -139.691919 
L 185.891567 -136.744607 
L 186.687804 -134.362629 
L 187.484042 -133.07609 
L 188.280279 -132.985166 
L 189.076517 -133.670015 
L 189.872754 -134.353741 
L 190.668992 -134.243769 
L 191.46523 -132.868803 
L 192.261467 -130.256753 
L 193.057705 -126.919763 
L 193.853942 -123.696883 
L 194.65018 -121.516753 
L 195.446417 -121.108997 
L 196.242655 -122.727382 
L 197.038892 -126.015541 
L 197.83513 -130.125495 
L 198.631367 -134.056949 
L 199.427605 -137.042115 
L 200.223842 -138.777753 
L 201.02008 -139.416704 
L 201.816317 -139.377031 
L 202.612555 -139.096159 
L 203.408792 -138.838835 
L 204.20503 -138.62006 
L 205.001267 -138.262053 
L 205.797505 -137.556447 
L 206.593742 -136.450485 
L 207.38998 -135.150654 
L 208.186218 -134.082946 
L 208.982455 -133.726747 
L 209.778693 -134.40075 
L 210.57493 -136.09616 
L 211.371168 -138.43183 
L 212.167405 -140.759635 
L 212.963643 -142.389044 
L 213.75988 -142.846368 
L 214.556118 -142.067752 
L 215.352355 -140.44907 
L 216.148593 -138.726235 
L 216.94483 -137.721584 
L 217.741068 -138.052557 
L 218.537305 -139.924482 
L 219.333543 -143.086062 
L 220.12978 -146.934873 
L 220.926018 -150.701274 
L 221.722255 -153.652649 
L 222.518493 -155.294031 
L 223.31473 -155.529805 
L 224.110968 -154.705161 
L 224.907206 -153.452215 
L 225.703443 -152.388338 
L 226.499681 -151.846035 
L 227.295918 -151.80589 
L 228.092156 -152.038023 
L 228.888393 -152.307399 
L 229.684631 -152.501343 
L 230.480868 -152.657853 
L 231.277106 -152.94048 
L 232.073343 -153.571219 
L 232.869581 -154.713252 
L 233.665818 -156.350988 
L 234.462056 -158.267307 
L 235.258293 -160.160308 
L 236.054531 -161.815202 
L 236.850768 -163.201088 
L 237.647006 -164.448797 
L 238.443243 -165.762941 
L 239.239481 -167.315207 
L 240.035719 -169.133001 
L 240.831956 -171.004452 
L 241.628194 -172.467388 
L 242.424431 -172.940874 
L 243.220669 -171.965527 
L 244.016906 -169.426833 
L 244.813144 -165.639513 
L 245.609381 -161.262353 
L 246.405619 -157.100062 
L 247.201856 -153.873132 
L 247.998094 -152.016514 
L 248.794331 -151.552554 
L 249.590569 -152.083382 
L 250.386806 -152.930768 
L 251.183044 -153.392432 
L 251.979281 -153.016779 
L 252.775519 -151.771632 
L 253.571756 -150.026732 
L 254.367994 -148.367217 
L 255.164231 -147.346457 
L 255.960469 -147.302948 
L 256.756707 -148.297013 
L 257.552944 -150.142288 
L 258.349182 -152.485414 
L 259.145419 -154.925419 
L 259.941657 -157.163524 
L 260.737894 -159.13024 
L 261.534132 -161.012417 
L 262.330369 -163.148171 
L 263.126607 -165.845959 
L 263.922844 -169.232451 
L 264.719082 -173.204405 
L 265.515319 -177.479579 
L 266.311557 -181.68233 
L 267.107794 -185.405366 
L 267.904032 -188.24931 
L 268.700269 -189.8825 
L 269.496507 -190.136994 
L 270.292744 -189.098437 
L 271.088982 -187.132602 
L 271.88522 -184.830907 
L 272.681457 -182.901507 
L 273.477695 -182.031918 
L 274.273932 -182.716506 
L 275.07017 -185.056677 
L 275.866407 -188.617957 
L 276.662645 -192.472255 
L 277.458882 -195.474812 
L 278.25512 -196.670531 
L 279.051357 -195.626689 
L 279.847595 -192.549269 
L 280.643832 -188.187397 
L 281.44007 -183.615279 
L 282.236307 -179.96933 
L 283.032545 -178.173839 
L 283.828782 -178.682686 
L 284.62502 -181.312836 
L 285.421257 -185.26884 
L 286.217495 -189.389402 
L 287.013732 -192.523116 
L 287.80997 -193.874544 
L 288.606208 -193.193932 
L 289.402445 -190.771818 
L 290.198683 -187.278679 
L 290.99492 -183.530972 
L 291.791158 -180.270051 
L 292.587395 -178.014906 
L 293.383633 -177.004787 
L 294.17987 -177.210095 
L 294.976108 -178.382972 
L 295.772345 -180.131248 
L 296.568583 -182.002418 
L 297.36482 -183.562411 
L 298.161058 -184.463199 
L 298.957295 -184.511811 
L 299.753533 -183.746589 
L 300.54977 -182.479666 
L 301.346008 -181.233453 
L 302.142245 -180.550249 
L 302.938483 -180.767681 
L 303.73472 -181.880263 
L 304.530958 -183.540753 
L 305.327196 -185.168325 
L 306.123433 -186.106174 
L 306.919671 -185.800405 
L 307.715908 -183.981963 
L 308.512146 -180.79458 
L 309.308383 -176.79027 
L 310.104621 -172.770591 
L 310.900858 -169.545109 
L 311.697096 -167.708041 
L 312.493333 -167.48735 
L 313.289571 -168.679255 
L 314.085808 -170.690177 
L 314.882046 -172.710167 
L 315.678283 -173.98383 
L 316.474521 -174.062933 
L 317.270758 -172.921929 
L 318.066996 -170.905082 
L 318.863233 -168.562714 
L 319.659471 -166.447547 
L 320.455709 -164.917746 
L 321.251946 -163.999644 
L 322.048184 -163.377602 
L 322.844421 -162.541312 
L 323.640659 -161.028367 
L 324.436896 -158.637575 
L 325.233134 -155.525424 
L 326.029371 -152.187944 
L 326.825609 -149.364197 
L 327.621846 -147.863815 
L 328.418084 -148.312284 
L 329.214321 -150.877103 
L 330.010559 -155.107813 
L 330.806796 -159.997845 
L 331.603034 -164.265043 
L 332.399271 -166.73456 
L 333.195509 -166.671791 
L 333.991746 -163.968928 
L 334.787984 -159.162948 
L 335.584221 -153.296734 
L 336.380459 -147.655442 
L 337.176697 -143.446029 
L 337.972934 -141.51719 
L 338.769172 -142.199102 
L 339.565409 -145.27973 
L 340.361647 -150.082338 
L 341.157884 -155.620364 
L 341.954122 -160.817915 
L 342.750359 -164.771386 
L 343.546597 -166.98383 
L 344.342834 -167.476383 
L 345.139072 -166.711863 
L 345.935309 -165.362497 
L 346.731547 -164.050362 
L 347.527784 -163.18086 
L 348.324022 -162.910754 
L 349.120259 -163.203377 
L 349.916497 -163.899078 
L 350.712734 -164.7634 
L 351.508972 -165.518831 
L 352.30521 -165.878852 
L 353.101447 -165.591787 
L 353.897685 -164.491637 
L 354.693922 -162.547755 
L 355.49016 -159.899356 
L 356.286397 -156.855657 
L 357.082635 -153.848586 
L 357.878872 -151.343612 
L 358.67511 -149.730134 
L 359.471347 -149.216104 
L 360.267585 -149.741906 
L 361.063822 -150.950295 
L 361.86006 -152.257647 
L 362.656297 -153.039964 
L 363.452535 -152.866227 
L 364.248772 -151.655254 
L 365.04501 -149.668162 
L 365.841247 -147.357679 
L 366.637485 -145.168957 
L 367.433722 -143.390028 
L 368.22996 -142.085342 
L 369.026198 -141.090832 
L 369.822435 -140.059014 
L 370.618673 -138.576823 
L 371.41491 -136.346586 
L 372.211148 -133.345631 
L 373.007385 -129.869391 
L 373.803623 -126.442132 
L 374.59986 -123.656635 
L 375.396098 -122.012576 
L 376.192335 -121.780394 
L 376.988573 -122.899595 
L 377.78481 -124.954188 
L 378.581048 -127.280373 
L 379.377285 -129.190136 
L 380.173523 -130.203255 
L 380.96976 -130.176691 
L 381.765998 -129.301901 
L 382.562235 -128.013116 
L 383.358473 -126.854922 
L 384.15471 -126.327109 
L 384.950948 -126.72388 
L 385.747186 -128.02105 
L 386.543423 -129.876228 
L 387.339661 -131.748958 
L 388.135898 -133.073626 
L 388.932136 -133.404449 
L 389.728373 -132.495152 
L 390.524611 -130.316216 
L 391.320848 -127.020145 
L 392.117086 -122.868117 
L 392.913323 -118.151683 
L 393.709561 -113.157802 
L 394.505798 -108.196018 
L 395.302036 -103.645864 
L 396.098273 -99.954262 
L 396.894511 -97.551884 
L 397.690748 -96.72549 
L 398.486986 -97.51649 
L 399.283223 -99.694478 
L 400.079461 -102.80656 
L 400.875699 -106.276348 
L 401.671936 -109.534646 
L 402.468174 -112.168609 
L 403.264411 -114.047385 
L 404.060649 -115.351574 
L 404.856886 -116.457916 
L 405.653124 -117.716434 
L 406.449361 -119.23661 
L 407.245599 -120.798152 
L 408.041836 -121.924751 
L 408.838074 -122.07636 
L 409.634311 -120.8814 
L 410.430549 -118.332464 
L 411.226786 -114.87374 
L 412.023024 -111.321892 
L 412.819261 -108.615147 
L 413.615499 -107.473607 
L 413.615499 -194.109316 
L 413.615499 -194.109316 
L 412.819261 -195.093349 
L 412.023024 -197.360074 
L 411.226786 -200.256392 
L 410.430549 -202.924383 
L 409.634311 -204.596844 
L 408.838074 -204.862492 
L 408.041836 -203.791197 
L 407.245599 -201.85612 
L 406.449361 -199.6881 
L 405.653124 -197.791196 
L 404.856886 -196.36083 
L 404.060649 -195.267398 
L 403.264411 -194.173213 
L 402.468174 -192.711497 
L 401.671936 -190.666666 
L 400.875699 -188.105276 
L 400.079461 -185.403253 
L 399.283223 -183.136841 
L 398.486986 -181.872696 
L 397.690748 -181.963546 
L 396.894511 -183.458177 
L 396.098273 -186.154323 
L 395.302036 -189.729557 
L 394.505798 -193.855854 
L 393.709561 -198.245863 
L 392.913323 -202.642843 
L 392.117086 -206.795519 
L 391.320848 -210.443759 
L 390.524611 -213.318855 
L 389.728373 -215.165956 
L 388.932136 -215.805823 
L 388.135898 -215.230519 
L 387.339661 -213.680905 
L 386.543423 -211.63998 
L 385.747186 -209.723461 
L 384.950948 -208.510879 
L 384.15471 -208.379242 
L 383.358473 -209.379699 
L 382.562235 -211.18711 
L 381.765998 -213.163158 
L 380.96976 -214.554243 
L 380.173523 -214.768645 
L 379.377285 -213.606848 
L 378.581048 -211.3366 
L 377.78481 -208.596997 
L 376.988573 -206.198682 
L 376.192335 -204.896024 
L 375.396098 -205.171953 
L 374.59986 -207.074609 
L 373.803623 -210.178744 
L 373.007385 -213.730405 
L 372.211148 -216.933012 
L 371.41491 -219.237501 
L 370.618673 -220.507056 
L 369.822435 -221.015264 
L 369.026198 -221.314875 
L 368.22996 -222.028298 
L 367.433722 -223.603267 
L 366.637485 -226.104447 
L 365.841247 -229.150498 
L 365.04501 -232.057628 
L 364.248772 -234.122538 
L 363.452535 -234.894313 
L 362.656297 -234.314753 
L 361.86006 -232.700945 
L 361.063822 -230.627871 
L 360.267585 -228.773999 
L 359.471347 -227.759381 
L 358.67511 -227.989854 
L 357.878872 -229.546532 
L 357.082635 -232.174163 
L 356.286397 -235.385475 
L 355.49016 -238.628706 
L 354.693922 -241.443181 
L 353.897685 -243.544868 
L 353.101447 -244.835301 
L 352.30521 -245.362216 
L 351.508972 -245.269442 
L 350.712734 -244.763105 
L 349.916497 -244.098351 
L 349.120259 -243.565084 
L 348.324022 -243.441676 
L 347.527784 -243.909148 
L 346.731547 -244.959678 
L 345.935309 -246.353811 
L 345.139072 -247.655591 
L 344.342834 -248.32851 
L 343.546597 -247.853625 
L 342.750359 -245.848024 
L 341.954122 -242.196371 
L 341.157884 -237.183561 
L 340.361647 -231.560651 
L 339.565409 -226.452546 
L 338.769172 -223.07905 
L 337.972934 -222.368593 
L 337.176697 -224.621808 
L 336.380459 -229.37793 
L 335.584221 -235.533067 
L 334.787984 -241.65142 
L 333.991746 -246.355226 
L 333.195509 -248.681637 
L 332.399271 -248.31166 
L 331.603034 -245.6043 
L 330.806796 -241.430177 
L 330.010559 -236.884245 
L 329.214321 -232.99936 
L 328.418084 -230.543865 
L 327.621846 -229.910506 
L 326.825609 -231.072554 
L 326.029371 -233.609106 
L 325.233134 -236.83124 
L 324.436896 -240.011157 
L 323.640659 -242.630688 
L 322.844421 -244.52185 
L 322.048184 -245.839175 
L 321.251946 -246.916027 
L 320.455709 -248.098167 
L 319.659471 -249.605637 
L 318.863233 -251.434726 
L 318.066996 -253.325219 
L 317.270758 -254.833334 
L 316.474521 -255.507718 
L 315.678283 -255.089685 
L 314.882046 -253.63957 
L 314.085808 -251.548672 
L 313.289571 -249.457039 
L 312.493333 -248.10099 
L 311.697096 -248.102846 
L 310.900858 -249.751655 
L 310.104621 -252.872953 
L 309.308383 -256.870767 
L 308.512146 -260.926457 
L 307.715908 -264.251849 
L 306.919671 -266.297564 
L 306.123433 -266.875417 
L 305.327196 -266.184214 
L 304.530958 -264.725288 
L 303.73472 -263.117815 
L 302.938483 -261.887723 
L 302.142245 -261.332582 
L 301.346008 -261.506778 
L 300.54977 -262.279804 
L 299.753533 -263.391072 
L 298.957295 -264.480505 
L 298.161058 -265.144367 
L 297.36482 -265.048628 
L 296.568583 -264.060793 
L 295.772345 -262.324195 
L 294.976108 -260.242809 
L 294.17987 -258.392056 
L 293.383633 -257.380567 
L 292.587395 -257.683156 
L 291.791158 -259.476476 
L 290.99492 -262.53309 
L 290.198683 -266.228216 
L 289.402445 -269.676115 
L 288.606208 -271.963393 
L 287.80997 -272.413691 
L 287.013732 -270.806303 
L 286.217495 -267.477973 
L 285.421257 -263.26921 
L 284.62502 -259.326383 
L 283.828782 -256.811021 
L 283.032545 -256.579769 
L 282.236307 -258.904084 
L 281.44007 -263.320193 
L 280.643832 -268.707256 
L 279.847595 -273.625577 
L 279.051357 -276.800206 
L 278.25512 -277.533472 
L 277.458882 -275.866637 
L 276.662645 -272.458082 
L 275.866407 -268.298011 
L 275.07017 -264.418067 
L 274.273932 -261.667117 
L 273.477695 -260.542493 
L 272.681457 -261.079675 
L 271.88522 -262.853932 
L 271.088982 -265.130992 
L 270.292744 -267.115809 
L 269.496507 -268.179225 
L 268.700269 -267.97374 
L 267.904032 -266.440852 
L 267.107794 -263.767958 
L 266.311557 -260.328549 
L 265.515319 -256.593831 
L 264.719082 -253.006423 
L 263.922844 -249.851579 
L 263.126607 -247.190012 
L 262.330369 -244.883498 
L 261.534132 -242.684237 
L 260.737894 -240.334298 
L 259.941657 -237.645708 
L 259.145419 -234.565903 
L 258.349182 -231.240614 
L 257.552944 -228.04833 
L 256.756707 -225.543723 
L 255.960469 -224.275291 
L 255.164231 -224.538363 
L 254.367994 -226.203118 
L 253.571756 -228.725531 
L 252.775519 -231.335399 
L 251.979281 -233.299481 
L 251.183044 -234.15662 
L 250.386806 -233.863079 
L 249.590569 -232.816325 
L 248.794331 -231.740538 
L 247.998094 -231.445769 
L 247.201856 -232.526643 
L 246.405619 -235.115296 
L 245.609381 -238.806397 
L 244.813144 -242.803206 
L 244.016906 -246.219939 
L 243.220669 -248.391306 
L 242.424431 -249.051513 
L 241.628194 -248.33624 
L 240.831956 -246.656134 
L 240.035719 -244.519292 
L 239.239481 -242.355891 
L 238.443243 -240.385761 
L 237.647006 -238.583222 
L 236.850768 -236.774486 
L 236.054531 -234.819725 
L 235.258293 -232.754646 
L 234.462056 -230.787844 
L 233.665818 -229.180098 
L 232.869581 -228.115473 
L 232.073343 -227.639804 
L 231.277106 -227.655059 
L 230.480868 -227.948859 
L 229.684631 -228.27765 
L 228.888393 -228.501265 
L 228.092156 -228.686445 
L 227.295918 -229.073624 
L 226.499681 -229.907132 
L 225.703443 -231.255121 
L 224.907206 -232.939931 
L 224.110968 -234.578186 
L 223.31473 -235.659263 
L 222.518493 -235.639981 
L 221.722255 -234.095308 
L 220.926018 -230.929765 
L 220.12978 -226.534609 
L 219.333543 -221.746173 
L 218.537305 -217.576456 
L 217.741068 -214.840773 
L 216.94483 -213.868467 
L 216.148593 -214.417391 
L 215.352355 -215.796397 
L 214.556118 -217.126263 
L 213.75988 -217.646291 
L 212.963643 -216.966512 
L 212.167405 -215.175297 
L 211.371168 -212.762349 
L 210.57493 -210.3951 
L 209.778693 -208.648135 
L 208.982455 -207.798205 
L 208.186218 -207.762769 
L 207.38998 -208.194204 
L 206.593742 -208.674871 
L 205.797505 -208.916075 
L 205.001267 -208.869653 
L 204.20503 -208.709067 
L 203.408792 -208.696617 
L 202.612555 -208.996625 
L 201.816317 -209.522872 
L 201.02008 -209.905855 
L 200.223842 -209.620638 
L 199.427605 -208.226426 
L 198.631367 -205.597354 
L 197.83513 -202.032084 
L 197.038892 -198.207043 
L 196.242655 -195.00646 
L 195.446417 -193.275552 
L 194.65018 -193.540897 
L 193.853942 -195.775781 
L 193.057705 -199.335146 
L 192.261467 -203.159672 
L 191.46523 -206.199991 
L 190.668992 -207.84432 
L 189.872754 -208.123631 
L 189.076517 -207.612352 
L 188.280279 -207.124667 
L 187.484042 -207.374828 
L 186.687804 -208.725756 
L 185.891567 -211.078801 
L 185.095329 -213.924429 
L 184.299092 -216.548316 
L 183.502854 -218.323873 
L 182.706617 -218.956764 
L 181.910379 -218.553359 
L 181.114142 -217.485858 
L 180.317904 -216.14392 
L 179.521667 -214.713251 
L 178.725429 -213.08734 
L 177.929192 -210.945485 
L 177.132954 -207.960813 
L 176.336717 -204.044729 
L 175.540479 -199.504254 
L 174.744241 -195.015088 
L 173.948004 -191.403825 
L 173.151766 -189.332079 
L 172.355529 -189.014915 
L 171.559291 -190.08449 
L 170.763054 -191.655604 
L 169.966816 -192.595573 
L 169.170579 -191.933703 
L 168.374341 -189.26423 
L 167.578104 -184.956377 
L 166.781866 -180.050855 
L 165.985629 -175.873615 
L 165.189391 -173.539976 
L 164.393154 -173.565902 
L 163.596916 -175.731084 
L 162.800679 -179.206387 
L 162.004441 -182.85564 
L 161.208204 -185.584239 
L 160.411966 -186.628814 
L 159.615729 -185.724776 
L 158.819491 -183.124931 
L 158.023253 -179.472187 
L 157.227016 -175.568826 
L 156.430778 -172.123763 
L 155.634541 -169.561506 
L 154.838303 -167.952643 
L 154.042066 -167.083375 
L 153.245828 -166.621608 
L 152.449591 -166.28218 
L 151.653353 -165.903723 
L 150.857116 -165.415816 
L 150.060878 -164.762279 
L 149.264641 -163.86557 
L 148.468403 -162.672263 
L 147.672166 -161.243917 
L 146.875928 -159.814125 
L 146.079691 -158.749573 
L 145.283453 -158.415729 
L 144.487216 -159.007915 
L 143.690978 -160.420391 
L 142.89474 -162.19954 
L 142.098503 -163.605421 
L 141.302265 -163.791758 
L 140.506028 -162.0771 
L 139.70979 -158.220814 
L 138.913553 -152.585911 
L 138.117315 -146.103532 
L 137.321078 -140.039949 
L 136.52484 -135.644467 
L 135.728603 -133.788239 
L 134.932365 -134.696958 
L 134.136128 -137.860539 
L 133.33989 -142.167394 
L 132.543653 -146.245998 
L 131.747415 -148.907336 
L 130.951178 -149.523991 
L 130.15494 -148.202783 
L 129.358703 -145.697572 
L 128.562465 -143.106804 
L 127.766228 -141.469135 
L 126.96999 -141.403202 
L 126.173752 -142.921718 
L 125.377515 -145.487936 
L 124.581277 -148.26235 
L 123.78504 -150.410985 
L 122.988802 -151.347577 
L 122.192565 -150.860096 
L 121.396327 -149.139837 
L 120.60009 -146.719966 
L 119.803852 -144.301906 
L 119.007615 -142.49557 
L 118.211377 -141.593017 
L 117.41514 -141.516044 
L 116.618902 -141.963997 
L 115.822665 -142.637442 
L 115.026427 -143.380614 
L 114.23019 -144.187168 
L 113.433952 -145.129284 
L 112.637715 -146.286861 
L 111.841477 -147.689127 
L 111.04524 -149.249372 
L 110.249002 -150.710946 
L 109.452764 -151.663809 
L 108.656527 -151.671328 
L 107.860289 -150.466331 
L 107.064052 -148.105145 
L 106.267814 -144.982707 
L 105.471577 -141.69454 
L 104.675339 -138.81265 
L 103.879102 -136.6808 
L 103.082864 -135.322813 
L 102.286627 -134.504996 
L 101.490389 -133.922594 
L 100.694152 -133.42009 
L 99.897914 -133.130224 
L 99.101677 -133.447417 
L 98.305439 -134.833463 
L 97.509202 -137.552176 
L 96.712964 -141.472878 
L 95.916727 -146.033278 
L 95.120489 -150.360805 
L 94.324251 -153.49427 
L 93.528014 -154.649814 
L 92.731776 -153.482454 
L 91.935539 -150.264778 
L 91.139301 -145.868865 
L 90.343064 -141.493369 
L 89.546826 -138.224654 
L 88.750589 -136.645445 
L 87.954351 -136.691693 
L 87.158114 -137.792904 
L 86.361876 -139.170123 
L 85.565639 -140.133271 
L 84.769401 -140.300998 
L 83.973164 -139.725013 
L 83.176926 -138.872652 
L 82.380689 -138.41802 
L 81.584451 -138.899141 
L 80.788214 -140.41834 
L 79.991976 -142.56809 
L 79.195739 -144.621448 
L 78.399501 -145.854358 
L 77.603263 -145.815693 
L 76.807026 -144.442566 
L 76.010788 -142.033995 
L 75.214551 -139.142577 
L 74.418313 -136.418135 
L 73.622076 -134.422381 
L 72.825838 -133.470305 
L 72.029601 -133.581967 
L 71.233363 -134.579268 
L 70.437126 -136.247374 
L 69.640888 -138.426585 
L 68.844651 -140.985868 
L 68.048413 -143.751087 
L 67.252176 -146.470811 
L 66.455938 -148.816825 
L 65.659701 -150.391921 
L 64.863463 -150.785817 
L 64.067226 -149.739264 
L 63.270988 -147.359272 
L 62.47475 -144.217695 
L 61.678513 -141.20804 
L 60.882275 -139.201787 
L 60.086038 -138.722187 
L 59.2898 -139.840569 
L 58.493563 -142.256986 
L 57.697325 -145.419373 
L 56.901088 -148.669973 
L 56.10485 -151.460235 
L 55.308613 -153.556411 
L 54.512375 -155.080792 
L 53.716138 -156.320741 
L 52.9199 -157.432947 
L 52.123663 -158.298006 
L 51.327425 -158.632497 
L 50.531188 -158.209398 
L 49.73495 -157.008978 
L 48.938713 -155.248937 
L 48.142475 -153.335155 
L 47.346238 -151.77941 
L 46.55 -151.089187 
z
" style="stroke: #e41a1c; stroke-opacity: 0.3"/>
    </defs>
    <g clip-path="url(#p94760cedd5)">
     <use xlink:href="#m00c73d6bc1" x="0" y="360" style="fill: #e41a1c; fill-opacity: 0.3; stroke: #e41a1c; stroke-opacity: 0.3"/>
    </g>
   </g>
   <g id="PolyCollection_2">
    <defs>
     <path id="m717de16389" d="M 46.55 -145.391782 
L 46.55 -120.445095 
L 47.346238 -120.520062 
L 48.142475 -120.19941 
L 48.938713 -119.559344 
L 49.73495 -118.785428 
L 50.531188 -118.061087 
L 51.327425 -117.493348 
L 52.123663 -117.116861 
L 52.9199 -116.934515 
L 53.716138 -116.932548 
L 54.512375 -117.078267 
L 55.308613 -117.338725 
L 56.10485 -117.716986 
L 56.901088 -118.264432 
L 57.697325 -119.04064 
L 58.493563 -120.047983 
L 59.2898 -121.202187 
L 60.086038 -122.364636 
L 60.882275 -123.402187 
L 61.678513 -124.226201 
L 62.47475 -124.802306 
L 63.270988 -125.148212 
L 64.067226 -125.317827 
L 64.863463 -125.354912 
L 65.659701 -125.236187 
L 66.455938 -124.860404 
L 67.252176 -124.11581 
L 68.048413 -122.979636 
L 68.844651 -121.567705 
L 69.640888 -120.098696 
L 70.437126 -118.810596 
L 71.233363 -117.881844 
L 72.029601 -117.376332 
L 72.825838 -117.21468 
L 73.622076 -117.184417 
L 74.418313 -117.008023 
L 75.214551 -116.454033 
L 76.010788 -115.436839 
L 76.807026 -114.051296 
L 77.603263 -112.530228 
L 78.399501 -111.152389 
L 79.195739 -110.138935 
L 79.991976 -109.568224 
L 80.788214 -109.339548 
L 81.584451 -109.20354 
L 82.380689 -108.850479 
L 83.176926 -108.020211 
L 83.973164 -106.588492 
L 84.769401 -104.594421 
L 85.565639 -102.199563 
L 86.361876 -99.60047 
L 87.158114 -96.945299 
L 87.954351 -94.304097 
L 88.750589 -91.711257 
L 89.546826 -89.250271 
L 90.343064 -87.117384 
L 91.139301 -85.610785 
L 91.935539 -85.042013 
L 92.731776 -85.615756 
L 93.528014 -87.332874 
L 94.324251 -89.956841 
L 95.120489 -93.057027 
L 95.916727 -96.114843 
L 96.712964 -98.656738 
L 97.509202 -100.369273 
L 98.305439 -101.163075 
L 99.101677 -101.16987 
L 99.897914 -100.681573 
L 100.694152 -100.05108 
L 101.490389 -99.584089 
L 102.286627 -99.457294 
L 103.082864 -99.694167 
L 103.879102 -100.205039 
L 104.675339 -100.860405 
L 105.471577 -101.550575 
L 106.267814 -102.202725 
L 107.064052 -102.766524 
L 107.860289 -103.196612 
L 108.656527 -103.44713 
L 109.452764 -103.473856 
L 110.249002 -103.238183 
L 111.04524 -102.717713 
L 111.841477 -101.924964 
L 112.637715 -100.921896 
L 113.433952 -99.814178 
L 114.23019 -98.725521 
L 115.026427 -97.765434 
L 115.822665 -96.998892 
L 116.618902 -96.419496 
L 117.41514 -95.939459 
L 118.211377 -95.417857 
L 119.007615 -94.732371 
L 119.803852 -93.856877 
L 120.60009 -92.889313 
L 121.396327 -92.010415 
L 122.192565 -91.406818 
L 122.988802 -91.203828 
L 123.78504 -91.426331 
L 124.581277 -91.983715 
L 125.377515 -92.683526 
L 126.173752 -93.286176 
L 126.96999 -93.591798 
L 127.766228 -93.512665 
L 128.562465 -93.081596 
L 129.358703 -92.395795 
L 130.15494 -91.5421 
L 130.951178 -90.551015 
L 131.747415 -89.396488 
L 132.543653 -88.035322 
L 133.33989 -86.46728 
L 134.136128 -84.786941 
L 134.932365 -83.194222 
L 135.728603 -81.947737 
L 136.52484 -81.280053 
L 137.321078 -81.313777 
L 138.117315 -82.009516 
L 138.913553 -83.154353 
L 139.70979 -84.392294 
L 140.506028 -85.303208 
L 141.302265 -85.524791 
L 142.098503 -84.878702 
L 142.89474 -83.440422 
L 143.690978 -81.517062 
L 144.487216 -79.547963 
L 145.283453 -77.976222 
L 146.079691 -77.132474 
L 146.875928 -77.151859 
L 147.672166 -77.942079 
L 148.468403 -79.223128 
L 149.264641 -80.637984 
L 150.060878 -81.893517 
L 150.857116 -82.869471 
L 151.653353 -83.646019 
L 152.449591 -84.440308 
L 153.245828 -85.484798 
L 154.042066 -86.904543 
L 154.838303 -88.647422 
L 155.634541 -90.491433 
L 156.430778 -92.11873 
L 157.227016 -93.220252 
L 158.023253 -93.595228 
L 158.819491 -93.220166 
L 159.615729 -92.269594 
L 160.411966 -91.076189 
L 161.208204 -90.03182 
L 162.004441 -89.459472 
L 162.800679 -89.507468 
L 163.596916 -90.110063 
L 164.393154 -91.020864 
L 165.189391 -91.893093 
L 165.985629 -92.375343 
L 166.781866 -92.201872 
L 167.578104 -91.262679 
L 168.374341 -89.635537 
L 169.170579 -87.56524 
L 169.966816 -85.390649 
L 170.763054 -83.446065 
L 171.559291 -81.976678 
L 172.355529 -81.09727 
L 173.151766 -80.797651 
L 173.948004 -80.97592 
L 174.744241 -81.473396 
L 175.540479 -82.096387 
L 176.336717 -82.629828 
L 177.132954 -82.860802 
L 177.929192 -82.625893 
L 178.725429 -81.873728 
L 179.521667 -80.70556 
L 180.317904 -79.353793 
L 181.114142 -78.09748 
L 181.910379 -77.159877 
L 182.706617 -76.640068 
L 183.502854 -76.496175 
L 184.299092 -76.562341 
L 185.095329 -76.581217 
L 185.891567 -76.259681 
L 186.687804 -75.360164 
L 187.484042 -73.808992 
L 188.280279 -71.764774 
L 189.076517 -69.595336 
L 189.872754 -67.75968 
L 190.668992 -66.648375 
L 191.46523 -66.453124 
L 192.261467 -67.107842 
L 193.057705 -68.303954 
L 193.853942 -69.566605 
L 194.65018 -70.382574 
L 195.446417 -70.356151 
L 196.242655 -69.343537 
L 197.038892 -67.508938 
L 197.83513 -65.272947 
L 198.631367 -63.172669 
L 199.427605 -61.690737 
L 200.223842 -61.1165 
L 201.02008 -61.483067 
L 201.816317 -62.59256 
L 202.612555 -64.113274 
L 203.408792 -65.707759 
L 204.20503 -67.138031 
L 205.001267 -68.304907 
L 205.797505 -69.213572 
L 206.593742 -69.896386 
L 207.38998 -70.344337 
L 208.186218 -70.487207 
L 208.982455 -70.232092 
L 209.778693 -69.53539 
L 210.57493 -68.465607 
L 211.371168 -67.222779 
L 212.167405 -66.102885 
L 212.963643 -65.417806 
L 213.75988 -65.396477 
L 214.556118 -66.101788 
L 215.352355 -67.395474 
L 216.148593 -68.968448 
L 216.94483 -70.429614 
L 217.741068 -71.423877 
L 218.537305 -71.739911 
L 219.333543 -71.374418 
L 220.12978 -70.530019 
L 220.926018 -69.545381 
L 221.722255 -68.777921 
L 222.518493 -68.482936 
L 223.31473 -68.739748 
L 224.110968 -69.454088 
L 224.907206 -70.42653 
L 225.703443 -71.448467 
L 226.499681 -72.378693 
L 227.295918 -73.171873 
L 228.092156 -73.851218 
L 228.888393 -74.441246 
L 229.684631 -74.897564 
L 230.480868 -75.079733 
L 231.277106 -74.795431 
L 232.073343 -73.901035 
L 232.869581 -72.402482 
L 233.665818 -70.494863 
L 234.462056 -68.517472 
L 235.258293 -66.849227 
L 236.054531 -65.794298 
L 236.850768 -65.496824 
L 237.647006 -65.897137 
L 238.443243 -66.73377 
L 239.239481 -67.607826 
L 240.035719 -68.11497 
L 240.831956 -68.003281 
L 241.628194 -67.274955 
L 242.424431 -66.166333 
L 243.220669 -65.013665 
L 244.016906 -64.083422 
L 244.813144 -63.455798 
L 245.609381 -63.004588 
L 246.405619 -62.464221 
L 247.201856 -61.552228 
L 247.998094 -60.107749 
L 248.794331 -58.194134 
L 249.590569 -56.111738 
L 250.386806 -54.303059 
L 251.183044 -53.190824 
L 251.979281 -53.025403 
L 252.775519 -53.800268 
L 253.571756 -55.255262 
L 254.367994 -56.958959 
L 255.164231 -58.447466 
L 255.960469 -59.377754 
L 256.756707 -59.634117 
L 257.552944 -59.337852 
L 258.349182 -58.762401 
L 259.145419 -58.208323 
L 259.941657 -57.900771 
L 260.737894 -57.940852 
L 261.534132 -58.309607 
L 262.330369 -58.911867 
L 263.126607 -59.643539 
L 263.922844 -60.454356 
L 264.719082 -61.370526 
L 265.515319 -62.460376 
L 266.311557 -63.765183 
L 267.107794 -65.240068 
L 267.904032 -66.739113 
L 268.700269 -68.052117 
L 269.496507 -68.979711 
L 270.292744 -69.423446 
L 271.088982 -69.454562 
L 271.88522 -69.324299 
L 272.681457 -69.395301 
L 273.477695 -70.013361 
L 274.273932 -71.371929 
L 275.07017 -73.423173 
L 275.866407 -75.865087 
L 276.662645 -78.207419 
L 277.458882 -79.900599 
L 278.25512 -80.497532 
L 279.051357 -79.802826 
L 279.847595 -77.957644 
L 280.643832 -75.424305 
L 281.44007 -72.87123 
L 282.236307 -70.997006 
L 283.032545 -70.349878 
L 283.828782 -71.193382 
L 284.62502 -73.449393 
L 285.421257 -76.727959 
L 286.217495 -80.432222 
L 287.013732 -83.908969 
L 287.80997 -86.603057 
L 288.606208 -88.172685 
L 289.402445 -88.537833 
L 290.198683 -87.857504 
L 290.99492 -86.455492 
L 291.791158 -84.723046 
L 292.587395 -83.024857 
L 293.383633 -81.628274 
L 294.17987 -80.670158 
L 294.976108 -80.167228 
L 295.772345 -80.056872 
L 296.568583 -80.243798 
L 297.36482 -80.6232 
L 298.161058 -81.077004 
L 298.957295 -81.463937 
L 299.753533 -81.627781 
L 300.54977 -81.429831 
L 301.346008 -80.794488 
L 302.142245 -79.751686 
L 302.938483 -78.461652 
L 303.73472 -77.206131 
L 304.530958 -76.33219 
L 305.327196 -76.154222 
L 306.123433 -76.848622 
L 306.919671 -78.387748 
L 307.715908 -80.540596 
L 308.512146 -82.934769 
L 309.308383 -85.15602 
L 310.104621 -86.857423 
L 310.900858 -87.848737 
L 311.697096 -88.133704 
L 312.493333 -87.875537 
L 313.289571 -87.304823 
L 314.085808 -86.61806 
L 314.882046 -85.916067 
L 315.678283 -85.205119 
L 316.474521 -84.4439 
L 317.270758 -83.603909 
L 318.066996 -82.715176 
L 318.863233 -81.880417 
L 319.659471 -81.251894 
L 320.455709 -80.977686 
L 321.251946 -81.139777 
L 322.048184 -81.710569 
L 322.844421 -82.547188 
L 323.640659 -83.425149 
L 324.436896 -84.098472 
L 325.233134 -84.365414 
L 326.029371 -84.116675 
L 326.825609 -83.347567 
L 327.621846 -82.131908 
L 328.418084 -80.572652 
L 329.214321 -78.759677 
L 330.010559 -76.756533 
L 330.806796 -74.618186 
L 331.603034 -72.422237 
L 332.399271 -70.289197 
L 333.195509 -68.374828 
L 333.991746 -66.83382 
L 334.787984 -65.766505 
L 335.584221 -65.17221 
L 336.380459 -64.933372 
L 337.176697 -64.846296 
L 337.972934 -64.694097 
L 338.769172 -64.335424 
L 339.565409 -63.772249 
L 340.361647 -63.164432 
L 341.157884 -62.781774 
L 341.954122 -62.904781 
L 342.750359 -63.707414 
L 343.546597 -65.165734 
L 344.342834 -67.033128 
L 345.139072 -68.900745 
L 345.935309 -70.32551 
L 346.731547 -70.97844 
L 347.527784 -70.755978 
L 348.324022 -69.818543 
L 349.120259 -68.545429 
L 349.916497 -67.421195 
L 350.712734 -66.889077 
L 351.508972 -67.221269 
L 352.30521 -68.453054 
L 353.101447 -70.398737 
L 353.897685 -72.730949 
L 354.693922 -75.0797 
L 355.49016 -77.116389 
L 356.286397 -78.608323 
L 357.082635 -79.442088 
L 357.878872 -79.616952 
L 358.67511 -79.21456 
L 359.471347 -78.360141 
L 360.267585 -77.19519 
L 361.063822 -75.868147 
L 361.86006 -74.534536 
L 362.656297 -73.353983 
L 363.452535 -72.477682 
L 364.248772 -72.024784 
L 365.04501 -72.049787 
L 365.841247 -72.513662 
L 366.637485 -73.281522 
L 367.433722 -74.162113 
L 368.22996 -74.974388 
L 369.026198 -75.603163 
L 369.822435 -76.01451 
L 370.618673 -76.234114 
L 371.41491 -76.314497 
L 372.211148 -76.312162 
L 373.007385 -76.275141 
L 373.803623 -76.233939 
L 374.59986 -76.195577 
L 375.396098 -76.146269 
L 376.192335 -76.061145 
L 376.988573 -75.909197 
L 377.78481 -75.644196 
L 378.581048 -75.189113 
L 379.377285 -74.432138 
L 380.173523 -73.253266 
L 380.96976 -71.583463 
L 381.765998 -69.475343 
L 382.562235 -67.14697 
L 383.358473 -64.963104 
L 384.15471 -63.347468 
L 384.950948 -62.658322 
L 385.747186 -63.077203 
L 386.543423 -64.54866 
L 387.339661 -66.781694 
L 388.135898 -69.307596 
L 388.932136 -71.588312 
L 389.728373 -73.161351 
L 390.524611 -73.782408 
L 391.320848 -73.505665 
L 392.117086 -72.659771 
L 392.913323 -71.727453 
L 393.709561 -71.183894 
L 394.505798 -71.356444 
L 395.302036 -72.342996 
L 396.098273 -73.999346 
L 396.894511 -75.99372 
L 397.690748 -77.918578 
L 398.486986 -79.429629 
L 399.283223 -80.362691 
L 400.079461 -80.779452 
L 400.875699 -80.923466 
L 401.671936 -81.110142 
L 402.468174 -81.602503 
L 403.264411 -82.524411 
L 404.060649 -83.835265 
L 404.856886 -85.364087 
L 405.653124 -86.875464 
L 406.449361 -88.141024 
L 407.245599 -89.000015 
L 408.041836 -89.400529 
L 408.838074 -89.413316 
L 409.634311 -89.209683 
L 410.430549 -89.004225 
L 411.226786 -88.980399 
L 412.023024 -89.228852 
L 412.819261 -89.720784 
L 413.615499 -90.320255 
L 413.615499 -140.893522 
L 413.615499 -140.893522 
L 412.819261 -140.395811 
L 412.023024 -140.103469 
L 411.226786 -140.096088 
L 410.430549 -140.352514 
L 409.634311 -140.754452 
L 408.838074 -141.111751 
L 408.041836 -141.205125 
L 407.245599 -140.843911 
L 406.449361 -139.930637 
L 405.653124 -138.511126 
L 404.856886 -136.78108 
L 404.060649 -135.033517 
L 403.264411 -133.560629 
L 402.468174 -132.549422 
L 401.671936 -132.014836 
L 400.875699 -131.795156 
L 400.079461 -131.609762 
L 399.283223 -131.153648 
L 398.486986 -130.199745 
L 397.690748 -128.680144 
L 396.894511 -126.725376 
L 396.098273 -124.646132 
L 395.302036 -122.849677 
L 394.505798 -121.704248 
L 393.709561 -121.394904 
L 392.913323 -121.834295 
L 392.117086 -122.675031 
L 391.320848 -123.421985 
L 390.524611 -123.595301 
L 389.728373 -122.881974 
L 388.932136 -121.233136 
L 388.135898 -118.887868 
L 387.339661 -116.317124 
L 386.543423 -114.0926 
L 385.747186 -112.714613 
L 384.950948 -112.462471 
L 384.15471 -113.331043 
L 383.358473 -115.072503 
L 382.562235 -117.306879 
L 381.765998 -119.642028 
L 380.96976 -121.760356 
L 380.173523 -123.461051 
L 379.377285 -124.665633 
L 378.581048 -125.398737 
L 377.78481 -125.753742 
L 376.988573 -125.853269 
L 376.192335 -125.81575 
L 375.396098 -125.735793 
L 374.59986 -125.679176 
L 373.803623 -125.688561 
L 373.007385 -125.787458 
L 372.211148 -125.971749 
L 371.41491 -126.191534 
L 370.618673 -126.343897 
L 369.822435 -126.297616 
L 369.026198 -125.946652 
L 368.22996 -125.262633 
L 367.433722 -124.317153 
L 366.637485 -123.266093 
L 365.841247 -122.311623 
L 365.04501 -121.659154 
L 364.248772 -121.474431 
L 363.452535 -121.842309 
L 362.656297 -122.738864 
L 361.86006 -124.033216 
L 361.063822 -125.523018 
L 360.267585 -126.985638 
L 359.471347 -128.220259 
L 358.67511 -129.06778 
L 357.878872 -129.411763 
L 357.082635 -129.172396 
L 356.286397 -128.307314 
L 355.49016 -126.83031 
L 354.693922 -124.845249 
L 353.897685 -122.573857 
L 353.101447 -120.344456 
L 352.30521 -118.525057 
L 351.508972 -117.418627 
L 350.712734 -117.162381 
L 349.916497 -117.670207 
L 349.120259 -118.640422 
L 348.324022 -119.629149 
L 347.527784 -120.175433 
L 346.731547 -119.944114 
L 345.935309 -118.837576 
L 345.139072 -117.031005 
L 344.342834 -114.914137 
L 343.546597 -112.962921 
L 342.750359 -111.587769 
L 341.954122 -111.010989 
L 341.157884 -111.209601 
L 340.361647 -111.941155 
L 339.565409 -112.844134 
L 338.769172 -113.5763 
L 337.972934 -113.937323 
L 337.176697 -113.929206 
L 336.380459 -113.738771 
L 335.584221 -113.655813 
L 334.787984 -113.964789 
L 333.991746 -114.850357 
L 333.195509 -116.34803 
L 332.399271 -118.351477 
L 331.603034 -120.664146 
L 330.806796 -123.0669 
L 330.010559 -125.370552 
L 329.214321 -127.438596 
L 328.418084 -129.182316 
L 327.621846 -130.543615 
L 326.825609 -131.481065 
L 326.029371 -131.967913 
L 325.233134 -132.003419 
L 324.436896 -131.633552 
L 323.640659 -130.968171 
L 322.844421 -130.180327 
L 322.048184 -129.475062 
L 321.251946 -129.034123 
L 320.455709 -128.960941 
L 319.659471 -129.253317 
L 318.863233 -129.816951 
L 318.066996 -130.513111 
L 317.270758 -131.218441 
L 316.474521 -131.871411 
L 315.678283 -132.481816 
L 314.882046 -133.096725 
L 314.085808 -133.739819 
L 313.289571 -134.359261 
L 312.493333 -134.814274 
L 311.697096 -134.906623 
L 310.900858 -134.442862 
L 310.104621 -133.30392 
L 309.308383 -131.505637 
L 308.512146 -129.231395 
L 307.715908 -126.815328 
L 306.919671 -124.666252 
L 306.123433 -123.153653 
L 305.327196 -122.50216 
L 304.530958 -122.736069 
L 303.73472 -123.685465 
L 302.938483 -125.041531 
L 302.142245 -126.44113 
L 301.346008 -127.560578 
L 300.54977 -128.193833 
L 299.753533 -128.288972 
L 298.957295 -127.933577 
L 298.161058 -127.305076 
L 297.36482 -126.615417 
L 296.568583 -126.069694 
L 295.772345 -125.839112 
L 294.976108 -126.042356 
L 294.17987 -126.734 
L 293.383633 -127.900054 
L 292.587395 -129.452847 
L 291.791158 -131.220781 
L 290.99492 -132.937908 
L 290.198683 -134.257112 
L 289.402445 -134.804946 
L 288.606208 -134.274231 
L 287.80997 -132.526252 
L 287.013732 -129.664775 
L 286.217495 -126.052907 
L 285.421257 -122.260012 
L 284.62502 -118.946197 
L 283.828782 -116.708354 
L 283.032545 -115.927655 
L 282.236307 -116.663933 
L 281.44007 -118.633096 
L 280.643832 -121.278419 
L 279.847595 -123.914237 
L 279.051357 -125.897692 
L 278.25512 -126.77992 
L 277.458882 -126.400831 
L 276.662645 -124.90874 
L 275.866407 -122.7011 
L 275.07017 -120.298817 
L 274.273932 -118.189189 
L 273.477695 -116.689873 
L 272.681457 -115.880639 
L 271.88522 -115.618818 
L 271.088982 -115.618016 
L 270.292744 -115.552771 
L 269.496507 -115.157315 
L 268.700269 -114.29646 
L 267.904032 -112.990451 
L 267.107794 -111.384811 
L 266.311557 -109.678344 
L 265.515319 -108.047906 
L 264.719082 -106.604247 
L 263.922844 -105.390023 
L 263.126607 -104.406558 
L 262.330369 -103.650167 
L 261.534132 -103.141835 
L 260.737894 -102.931907 
L 259.941657 -103.065399 
L 259.145419 -103.518974 
L 258.349182 -104.151867 
L 257.552944 -104.714497 
L 256.756707 -104.921681 
L 255.960469 -104.555898 
L 255.164231 -103.55457 
L 254.367994 -102.05255 
L 253.571756 -100.368256 
L 252.775519 -98.926935 
L 251.979281 -98.129303 
L 251.183044 -98.208625 
L 250.386806 -99.143761 
L 249.590569 -100.674252 
L 248.794331 -102.407981 
L 247.998094 -103.967595 
L 247.201856 -105.117676 
L 246.405619 -105.832834 
L 245.609381 -106.286327 
L 244.813144 -106.755721 
L 244.016906 -107.477452 
L 243.220669 -108.52028 
L 242.424431 -109.745372 
L 241.628194 -110.868425 
L 240.831956 -111.582608 
L 240.035719 -111.683086 
L 239.239481 -111.155776 
L 238.443243 -110.212237 
L 237.647006 -109.251882 
L 236.850768 -108.73963 
L 236.054531 -109.028094 
L 235.258293 -110.20418 
L 234.462056 -112.048368 
L 233.665818 -114.133235 
L 232.869581 -116.001839 
L 232.073343 -117.328582 
L 231.277106 -117.995015 
L 230.480868 -118.07084 
L 229.684631 -117.734548 
L 228.888393 -117.178717 
L 228.092156 -116.535092 
L 227.295918 -115.84004 
L 226.499681 -115.051941 
L 225.703443 -114.114911 
L 224.907206 -113.038159 
L 224.110968 -111.945002 
L 223.31473 -111.057678 
L 222.518493 -110.619393 
L 221.722255 -110.787304 
L 220.926018 -111.54565 
L 220.12978 -112.675634 
L 219.333543 -113.800502 
L 218.537305 -114.499616 
L 217.741068 -114.456409 
L 216.94483 -113.581925 
L 216.148593 -112.058924 
L 215.352355 -110.283436 
L 214.556118 -108.728746 
L 213.75988 -107.786589 
L 212.963643 -107.647969 
L 212.167405 -108.265027 
L 211.371168 -109.399856 
L 210.57493 -110.73104 
L 209.778693 -111.967403 
L 208.982455 -112.919367 
L 208.186218 -113.505173 
L 207.38998 -113.706753 
L 206.593742 -113.515437 
L 205.797505 -112.904372 
L 205.001267 -111.841778 
L 204.20503 -110.334264 
L 203.408792 -108.475304 
L 202.612555 -106.473448 
L 201.816317 -104.641138 
L 201.02008 -103.338752 
L 200.223842 -102.881445 
L 199.427605 -103.432439 
L 198.631367 -104.921387 
L 197.83513 -107.027981 
L 197.038892 -109.249802 
L 196.242655 -111.038611 
L 195.446417 -111.960417 
L 194.65018 -111.828977 
L 193.853942 -110.772506 
L 193.057705 -109.208887 
L 192.261467 -107.725474 
L 191.46523 -106.89135 
L 190.668992 -107.067665 
L 189.872754 -108.296374 
L 189.076517 -110.312405 
L 188.280279 -112.659797 
L 187.484042 -114.846856 
L 186.687804 -116.481781 
L 185.891567 -117.363902 
L 185.095329 -117.524877 
L 184.299092 -117.210789 
L 183.502854 -116.795712 
L 182.706617 -116.645974 
L 181.910379 -116.988876 
L 181.114142 -117.851306 
L 180.317904 -119.091655 
L 179.521667 -120.48591 
L 178.725429 -121.805038 
L 177.929192 -122.852886 
L 177.132954 -123.481183 
L 176.336717 -123.612518 
L 175.540479 -123.273742 
L 174.744241 -122.613561 
L 173.948004 -121.881375 
L 173.151766 -121.368587 
L 172.355529 -121.334128 
L 171.559291 -121.940776 
L 170.763054 -123.219069 
L 169.966816 -125.060979 
L 169.170579 -127.237243 
L 168.374341 -129.432462 
L 167.578104 -131.297603 
L 166.781866 -132.522179 
L 165.985629 -132.919832 
L 165.189391 -132.501089 
L 164.393154 -131.495287 
L 163.596916 -130.295759 
L 162.800679 -129.339135 
L 162.004441 -128.963525 
L 161.208204 -129.300963 
L 160.411966 -130.23911 
L 159.615729 -131.456505 
L 158.819491 -132.517998 
L 158.023253 -133.008879 
L 157.227016 -132.672984 
L 156.430778 -131.502337 
L 155.634541 -129.734683 
L 154.838303 -127.754717 
L 154.042066 -125.942918 
L 153.245828 -124.53966 
L 152.449591 -123.577929 
L 151.653353 -122.901939 
L 150.857116 -122.252626 
L 150.060878 -121.384616 
L 149.264641 -120.173627 
L 148.468403 -118.680703 
L 147.672166 -117.152923 
L 146.875928 -115.955364 
L 146.079691 -115.447476 
L 145.283453 -115.839014 
L 144.487216 -117.082781 
L 143.690978 -118.861164 
L 142.89474 -120.685028 
L 142.098503 -122.061033 
L 141.302265 -122.649592 
L 140.506028 -122.356266 
L 139.70979 -121.342902 
L 138.913553 -119.97 
L 138.117315 -118.685227 
L 137.321078 -117.884747 
L 136.52484 -117.795486 
L 135.728603 -118.430979 
L 134.932365 -119.635387 
L 134.136128 -121.177088 
L 133.33989 -122.834344 
L 132.543653 -124.439612 
L 131.747415 -125.884892 
L 130.951178 -127.104761 
L 130.15494 -128.053205 
L 129.358703 -128.688401 
L 128.562465 -128.976937 
L 127.766228 -128.915229 
L 126.96999 -128.54771 
L 126.173752 -127.963698 
L 125.377515 -127.278361 
L 124.581277 -126.619328 
L 123.78504 -126.118938 
L 122.988802 -125.890826 
L 122.192565 -125.988152 
L 121.396327 -126.374783 
L 120.60009 -126.941236 
L 119.803852 -127.557925 
L 119.007615 -128.128217 
L 118.211377 -128.611513 
L 117.41514 -129.022802 
L 116.618902 -129.427101 
L 115.822665 -129.924898 
L 115.026427 -130.612466 
L 114.23019 -131.525034 
L 113.433952 -132.599105 
L 112.637715 -133.686927 
L 111.841477 -134.614905 
L 111.04524 -135.249262 
L 110.249002 -135.536477 
L 109.452764 -135.507157 
L 108.656527 -135.246423 
L 107.860289 -134.843643 
L 107.064052 -134.346816 
L 106.267814 -133.753936 
L 105.471577 -133.050686 
L 104.675339 -132.264907 
L 103.879102 -131.492791 
L 103.082864 -130.875251 
L 102.286627 -130.539997 
L 101.490389 -130.540292 
L 100.694152 -130.812528 
L 99.897914 -131.160672 
L 99.101677 -131.279981 
L 98.305439 -130.829964 
L 97.509202 -129.545574 
L 96.712964 -127.346267 
L 95.916727 -124.392095 
L 95.120489 -121.057832 
L 94.324251 -117.831342 
L 93.528014 -115.178399 
L 92.731776 -113.423504 
L 91.935539 -112.688113 
L 91.139301 -112.901911 
L 90.343064 -113.871101 
L 89.546826 -115.363869 
L 88.750589 -117.17239 
L 87.954351 -119.137707 
L 87.158114 -121.148254 
L 86.361876 -123.128567 
L 85.565639 -125.021269 
L 84.769401 -126.76439 
L 83.973164 -128.276892 
L 83.176926 -129.467739 
L 82.380689 -130.273555 
L 81.584451 -130.707403 
L 80.788214 -130.886953 
L 79.991976 -131.014865 
L 79.195739 -131.311862 
L 78.399501 -131.928188 
L 77.603263 -132.874149 
L 76.807026 -134.008448 
L 76.010788 -135.099107 
L 75.214551 -135.928107 
L 74.418313 -136.386672 
L 73.622076 -136.517961 
L 72.825838 -136.499511 
L 72.029601 -136.577491 
L 71.233363 -136.970882 
L 70.437126 -137.777402 
L 69.640888 -138.929502 
L 68.844651 -140.232705 
L 68.048413 -141.464429 
L 67.252176 -142.462799 
L 66.455938 -143.155375 
L 65.659701 -143.540029 
L 64.863463 -143.66118 
L 64.067226 -143.591691 
L 63.270988 -143.400586 
L 62.47475 -143.111738 
L 61.678513 -142.691141 
L 60.882275 -142.091487 
L 60.086038 -141.318857 
L 59.2898 -140.457204 
L 58.493563 -139.632224 
L 57.697325 -138.95471 
L 56.901088 -138.484125 
L 56.10485 -138.215937 
L 55.308613 -138.083381 
L 54.512375 -137.986581 
L 53.716138 -137.861063 
L 52.9199 -137.752981 
L 52.123663 -137.8335 
L 51.327425 -138.312941 
L 50.531188 -139.29792 
L 49.73495 -140.701021 
L 48.938713 -142.271489 
L 48.142475 -143.708361 
L 47.346238 -144.777369 
L 46.55 -145.391782 
z
" style="stroke: #377eb8; stroke-opacity: 0.3"/>
    </defs>
    <g clip-path="url(#p94760cedd5)">
     <use xlink:href="#m717de16389" x="0" y="360" style="fill: #377eb8; fill-opacity: 0.3; stroke: #377eb8; stroke-opacity: 0.3"/>
    </g>
   </g>
   <g id="patch_3">
    <path d="M 229.843878 318.2 
L 229.843878 71.241125 
L 331.762281 71.241125 
L 331.762281 318.2 
z
" clip-path="url(#p94760cedd5)" style="fill: #808080; opacity: 0.3"/>
   </g>
   <g id="matplotlib.axis_1">
    <g id="xtick_1">
     <g id="line2d_1">
      <defs>
       <path id="m5836597525" d="M 0 0 
L 0 3.5 
" style="stroke: #000000; stroke-width: 0.8"/>
      </defs>
      <g>
       <use xlink:href="#m5836597525" x="87.158114" y="318.2" style="stroke: #000000; stroke-width: 0.8"/>
      </g>
     </g>
     <g id="text_1">
      <!-- 0.0 -->
      <g transform="translate(79.206551 332.798437)scale(0.1 -0.1)">
       <defs>
        <path id="DejaVuSans-30" d="M 2034 4250 
Q 1547 4250 1301 3770 
Q 1056 3291 1056 2328 
Q 1056 1369 1301 889 
Q 1547 409 2034 409 
Q 2525 409 2770 889 
Q 3016 1369 3016 2328 
Q 3016 3291 2770 3770 
Q 2525 4250 2034 4250 
z
M 2034 4750 
Q 2819 4750 3233 4129 
Q 3647 3509 3647 2328 
Q 3647 1150 3233 529 
Q 2819 -91 2034 -91 
Q 1250 -91 836 529 
Q 422 1150 422 2328 
Q 422 3509 836 4129 
Q 1250 4750 2034 4750 
z
" transform="scale(0.015625)"/>
        <path id="DejaVuSans-2e" d="M 684 794 
L 1344 794 
L 1344 0 
L 684 0 
L 684 794 
z
" transform="scale(0.015625)"/>
       </defs>
       <use xlink:href="#DejaVuSans-30"/>
       <use xlink:href="#DejaVuSans-2e" x="63.623047"/>
       <use xlink:href="#DejaVuSans-30" x="95.410156"/>
      </g>
     </g>
    </g>
    <g id="xtick_2">
     <g id="line2d_2">
      <g>
       <use xlink:href="#m5836597525" x="168.692836" y="318.2" style="stroke: #000000; stroke-width: 0.8"/>
      </g>
     </g>
     <g id="text_2">
      <!-- 0.2 -->
      <g transform="translate(160.741274 332.798437)scale(0.1 -0.1)">
       <defs>
        <path id="DejaVuSans-32" d="M 1228 531 
L 3431 531 
L 3431 0 
L 469 0 
L 469 531 
Q 828 903 1448 1529 
Q 2069 2156 2228 2338 
Q 2531 2678 2651 2914 
Q 2772 3150 2772 3378 
Q 2772 3750 2511 3984 
Q 2250 4219 1831 4219 
Q 1534 4219 1204 4116 
Q 875 4013 500 3803 
L 500 4441 
Q 881 4594 1212 4672 
Q 1544 4750 1819 4750 
Q 2544 4750 2975 4387 
Q 3406 4025 3406 3419 
Q 3406 3131 3298 2873 
Q 3191 2616 2906 2266 
Q 2828 2175 2409 1742 
Q 1991 1309 1228 531 
z
" transform="scale(0.015625)"/>
       </defs>
       <use xlink:href="#DejaVuSans-30"/>
       <use xlink:href="#DejaVuSans-2e" x="63.623047"/>
       <use xlink:href="#DejaVuSans-32" x="95.410156"/>
      </g>
     </g>
    </g>
    <g id="xtick_3">
     <g id="line2d_3">
      <g>
       <use xlink:href="#m5836597525" x="250.227559" y="318.2" style="stroke: #000000; stroke-width: 0.8"/>
      </g>
     </g>
     <g id="text_3">
      <!-- 0.4 -->
      <g transform="translate(242.275996 332.798437)scale(0.1 -0.1)">
       <defs>
        <path id="DejaVuSans-34" d="M 2419 4116 
L 825 1625 
L 2419 1625 
L 2419 4116 
z
M 2253 4666 
L 3047 4666 
L 3047 1625 
L 3713 1625 
L 3713 1100 
L 3047 1100 
L 3047 0 
L 2419 0 
L 2419 1100 
L 313 1100 
L 313 1709 
L 2253 4666 
z
" transform="scale(0.015625)"/>
       </defs>
       <use xlink:href="#DejaVuSans-30"/>
       <use xlink:href="#DejaVuSans-2e" x="63.623047"/>
       <use xlink:href="#DejaVuSans-34" x="95.410156"/>
      </g>
     </g>
    </g>
    <g id="xtick_4">
     <g id="line2d_4">
      <g>
       <use xlink:href="#m5836597525" x="331.762281" y="318.2" style="stroke: #000000; stroke-width: 0.8"/>
      </g>
     </g>
     <g id="text_4">
      <!-- 0.6 -->
      <g transform="translate(323.810719 332.798437)scale(0.1 -0.1)">
       <defs>
        <path id="DejaVuSans-36" d="M 2113 2584 
Q 1688 2584 1439 2293 
Q 1191 2003 1191 1497 
Q 1191 994 1439 701 
Q 1688 409 2113 409 
Q 2538 409 2786 701 
Q 3034 994 3034 1497 
Q 3034 2003 2786 2293 
Q 2538 2584 2113 2584 
z
M 3366 4563 
L 3366 3988 
Q 3128 4100 2886 4159 
Q 2644 4219 2406 4219 
Q 1781 4219 1451 3797 
Q 1122 3375 1075 2522 
Q 1259 2794 1537 2939 
Q 1816 3084 2150 3084 
Q 2853 3084 3261 2657 
Q 3669 2231 3669 1497 
Q 3669 778 3244 343 
Q 2819 -91 2113 -91 
Q 1303 -91 875 529 
Q 447 1150 447 2328 
Q 447 3434 972 4092 
Q 1497 4750 2381 4750 
Q 2619 4750 2861 4703 
Q 3103 4656 3366 4563 
z
" transform="scale(0.015625)"/>
       </defs>
       <use xlink:href="#DejaVuSans-30"/>
       <use xlink:href="#DejaVuSans-2e" x="63.623047"/>
       <use xlink:href="#DejaVuSans-36" x="95.410156"/>
      </g>
     </g>
    </g>
    <g id="xtick_5">
     <g id="line2d_5">
      <g>
       <use xlink:href="#m5836597525" x="413.297004" y="318.2" style="stroke: #000000; stroke-width: 0.8"/>
      </g>
     </g>
     <g id="text_5">
      <!-- 0.8 -->
      <g transform="translate(405.345441 332.798437)scale(0.1 -0.1)">
       <defs>
        <path id="DejaVuSans-38" d="M 2034 2216 
Q 1584 2216 1326 1975 
Q 1069 1734 1069 1313 
Q 1069 891 1326 650 
Q 1584 409 2034 409 
Q 2484 409 2743 651 
Q 3003 894 3003 1313 
Q 3003 1734 2745 1975 
Q 2488 2216 2034 2216 
z
M 1403 2484 
Q 997 2584 770 2862 
Q 544 3141 544 3541 
Q 544 4100 942 4425 
Q 1341 4750 2034 4750 
Q 2731 4750 3128 4425 
Q 3525 4100 3525 3541 
Q 3525 3141 3298 2862 
Q 3072 2584 2669 2484 
Q 3125 2378 3379 2068 
Q 3634 1759 3634 1313 
Q 3634 634 3220 271 
Q 2806 -91 2034 -91 
Q 1263 -91 848 271 
Q 434 634 434 1313 
Q 434 1759 690 2068 
Q 947 2378 1403 2484 
z
M 1172 3481 
Q 1172 3119 1398 2916 
Q 1625 2713 2034 2713 
Q 2441 2713 2670 2916 
Q 2900 3119 2900 3481 
Q 2900 3844 2670 4047 
Q 2441 4250 2034 4250 
Q 1625 4250 1398 4047 
Q 1172 3844 1172 3481 
z
" transform="scale(0.015625)"/>
       </defs>
       <use xlink:href="#DejaVuSans-30"/>
       <use xlink:href="#DejaVuSans-2e" x="63.623047"/>
       <use xlink:href="#DejaVuSans-38" x="95.410156"/>
      </g>
     </g>
    </g>
    <g id="text_6">
     <!-- seconds -->
     <g transform="translate(209.645249 346.476562)scale(0.1 -0.1)">
      <defs>
       <path id="DejaVuSans-73" d="M 2834 3397 
L 2834 2853 
Q 2591 2978 2328 3040 
Q 2066 3103 1784 3103 
Q 1356 3103 1142 2972 
Q 928 2841 928 2578 
Q 928 2378 1081 2264 
Q 1234 2150 1697 2047 
L 1894 2003 
Q 2506 1872 2764 1633 
Q 3022 1394 3022 966 
Q 3022 478 2636 193 
Q 2250 -91 1575 -91 
Q 1294 -91 989 -36 
Q 684 19 347 128 
L 347 722 
Q 666 556 975 473 
Q 1284 391 1588 391 
Q 1994 391 2212 530 
Q 2431 669 2431 922 
Q 2431 1156 2273 1281 
Q 2116 1406 1581 1522 
L 1381 1569 
Q 847 1681 609 1914 
Q 372 2147 372 2553 
Q 372 3047 722 3315 
Q 1072 3584 1716 3584 
Q 2034 3584 2315 3537 
Q 2597 3491 2834 3397 
z
" transform="scale(0.015625)"/>
       <path id="DejaVuSans-65" d="M 3597 1894 
L 3597 1613 
L 953 1613 
Q 991 1019 1311 708 
Q 1631 397 2203 397 
Q 2534 397 2845 478 
Q 3156 559 3463 722 
L 3463 178 
Q 3153 47 2828 -22 
Q 2503 -91 2169 -91 
Q 1331 -91 842 396 
Q 353 884 353 1716 
Q 353 2575 817 3079 
Q 1281 3584 2069 3584 
Q 2775 3584 3186 3129 
Q 3597 2675 3597 1894 
z
M 3022 2063 
Q 3016 2534 2758 2815 
Q 2500 3097 2075 3097 
Q 1594 3097 1305 2825 
Q 1016 2553 972 2059 
L 3022 2063 
z
" transform="scale(0.015625)"/>
       <path id="DejaVuSans-63" d="M 3122 3366 
L 3122 2828 
Q 2878 2963 2633 3030 
Q 2388 3097 2138 3097 
Q 1578 3097 1268 2742 
Q 959 2388 959 1747 
Q 959 1106 1268 751 
Q 1578 397 2138 397 
Q 2388 397 2633 464 
Q 2878 531 3122 666 
L 3122 134 
Q 2881 22 2623 -34 
Q 2366 -91 2075 -91 
Q 1284 -91 818 406 
Q 353 903 353 1747 
Q 353 2603 823 3093 
Q 1294 3584 2113 3584 
Q 2378 3584 2631 3529 
Q 2884 3475 3122 3366 
z
" transform="scale(0.015625)"/>
       <path id="DejaVuSans-6f" d="M 1959 3097 
Q 1497 3097 1228 2736 
Q 959 2375 959 1747 
Q 959 1119 1226 758 
Q 1494 397 1959 397 
Q 2419 397 2687 759 
Q 2956 1122 2956 1747 
Q 2956 2369 2687 2733 
Q 2419 3097 1959 3097 
z
M 1959 3584 
Q 2709 3584 3137 3096 
Q 3566 2609 3566 1747 
Q 3566 888 3137 398 
Q 2709 -91 1959 -91 
Q 1206 -91 779 398 
Q 353 888 353 1747 
Q 353 2609 779 3096 
Q 1206 3584 1959 3584 
z
" transform="scale(0.015625)"/>
       <path id="DejaVuSans-6e" d="M 3513 2113 
L 3513 0 
L 2938 0 
L 2938 2094 
Q 2938 2591 2744 2837 
Q 2550 3084 2163 3084 
Q 1697 3084 1428 2787 
Q 1159 2491 1159 1978 
L 1159 0 
L 581 0 
L 581 3500 
L 1159 3500 
L 1159 2956 
Q 1366 3272 1645 3428 
Q 1925 3584 2291 3584 
Q 2894 3584 3203 3211 
Q 3513 2838 3513 2113 
z
" transform="scale(0.015625)"/>
       <path id="DejaVuSans-64" d="M 2906 2969 
L 2906 4863 
L 3481 4863 
L 3481 0 
L 2906 0 
L 2906 525 
Q 2725 213 2448 61 
Q 2172 -91 1784 -91 
Q 1150 -91 751 415 
Q 353 922 353 1747 
Q 353 2572 751 3078 
Q 1150 3584 1784 3584 
Q 2172 3584 2448 3432 
Q 2725 3281 2906 2969 
z
M 947 1747 
Q 947 1113 1208 752 
Q 1469 391 1925 391 
Q 2381 391 2643 752 
Q 2906 1113 2906 1747 
Q 2906 2381 2643 2742 
Q 2381 3103 1925 3103 
Q 1469 3103 1208 2742 
Q 947 2381 947 1747 
z
" transform="scale(0.015625)"/>
      </defs>
      <use xlink:href="#DejaVuSans-73"/>
      <use xlink:href="#DejaVuSans-65" x="52.099609"/>
      <use xlink:href="#DejaVuSans-63" x="113.623047"/>
      <use xlink:href="#DejaVuSans-6f" x="168.603516"/>
      <use xlink:href="#DejaVuSans-6e" x="229.785156"/>
      <use xlink:href="#DejaVuSans-64" x="293.164062"/>
      <use xlink:href="#DejaVuSans-73" x="356.640625"/>
     </g>
    </g>
   </g>
   <g id="matplotlib.axis_2">
    <g id="ytick_1">
     <g id="line2d_6">
      <defs>
       <path id="mf6b535dc61" d="M 0 0 
L -3.5 0 
" style="stroke: #000000; stroke-width: 0.8"/>
      </defs>
      <g>
       <use xlink:href="#mf6b535dc61" x="46.55" y="317.624238" style="stroke: #000000; stroke-width: 0.8"/>
      </g>
     </g>
     <g id="text_7">
      <!-- 3 -->
      <g transform="translate(24.807812 321.423456)scale(0.1 -0.1)">
       <defs>
        <path id="DejaVuSans-2212" d="M 678 2272 
L 4684 2272 
L 4684 1741 
L 678 1741 
L 678 2272 
z
" transform="scale(0.015625)"/>
        <path id="DejaVuSans-33" d="M 2597 2516 
Q 3050 2419 3304 2112 
Q 3559 1806 3559 1356 
Q 3559 666 3084 287 
Q 2609 -91 1734 -91 
Q 1441 -91 1130 -33 
Q 819 25 488 141 
L 488 750 
Q 750 597 1062 519 
Q 1375 441 1716 441 
Q 2309 441 2620 675 
Q 2931 909 2931 1356 
Q 2931 1769 2642 2001 
Q 2353 2234 1838 2234 
L 1294 2234 
L 1294 2753 
L 1863 2753 
Q 2328 2753 2575 2939 
Q 2822 3125 2822 3475 
Q 2822 3834 2567 4026 
Q 2313 4219 1838 4219 
Q 1578 4219 1281 4162 
Q 984 4106 628 3988 
L 628 4550 
Q 988 4650 1302 4700 
Q 1616 4750 1894 4750 
Q 2613 4750 3031 4423 
Q 3450 4097 3450 3541 
Q 3450 3153 3228 2886 
Q 3006 2619 2597 2516 
z
" transform="scale(0.015625)"/>
       </defs>
       <use xlink:href="#DejaVuSans-2212"/>
       <use xlink:href="#DejaVuSans-33" x="83.789062"/>
      </g>
     </g>
    </g>
    <g id="ytick_2">
     <g id="line2d_7">
      <g>
       <use xlink:href="#mf6b535dc61" x="46.55" y="289.460052" style="stroke: #000000; stroke-width: 0.8"/>
      </g>
     </g>
     <g id="text_8">
      <!-- 2 -->
      <g transform="translate(24.807812 293.259271)scale(0.1 -0.1)">
       <use xlink:href="#DejaVuSans-2212"/>
       <use xlink:href="#DejaVuSans-32" x="83.789062"/>
      </g>
     </g>
    </g>
    <g id="ytick_3">
     <g id="line2d_8">
      <g>
       <use xlink:href="#mf6b535dc61" x="46.55" y="261.295866" style="stroke: #000000; stroke-width: 0.8"/>
      </g>
     </g>
     <g id="text_9">
      <!-- 1 -->
      <g transform="translate(24.807812 265.095085)scale(0.1 -0.1)">
       <defs>
        <path id="DejaVuSans-31" d="M 794 531 
L 1825 531 
L 1825 4091 
L 703 3866 
L 703 4441 
L 1819 4666 
L 2450 4666 
L 2450 531 
L 3481 531 
L 3481 0 
L 794 0 
L 794 531 
z
" transform="scale(0.015625)"/>
       </defs>
       <use xlink:href="#DejaVuSans-2212"/>
       <use xlink:href="#DejaVuSans-31" x="83.789062"/>
      </g>
     </g>
    </g>
    <g id="ytick_4">
     <g id="line2d_9">
      <g>
       <use xlink:href="#mf6b535dc61" x="46.55" y="233.13168" style="stroke: #000000; stroke-width: 0.8"/>
      </g>
     </g>
     <g id="text_10">
      <!-- 0 -->
      <g transform="translate(33.1875 236.930899)scale(0.1 -0.1)">
       <use xlink:href="#DejaVuSans-30"/>
      </g>
     </g>
    </g>
    <g id="ytick_5">
     <g id="line2d_10">
      <g>
       <use xlink:href="#mf6b535dc61" x="46.55" y="204.967494" style="stroke: #000000; stroke-width: 0.8"/>
      </g>
     </g>
     <g id="text_11">
      <!-- 1 -->
      <g transform="translate(33.1875 208.766713)scale(0.1 -0.1)">
       <use xlink:href="#DejaVuSans-31"/>
      </g>
     </g>
    </g>
    <g id="ytick_6">
     <g id="line2d_11">
      <g>
       <use xlink:href="#mf6b535dc61" x="46.55" y="176.803308" style="stroke: #000000; stroke-width: 0.8"/>
      </g>
     </g>
     <g id="text_12">
      <!-- 2 -->
      <g transform="translate(33.1875 180.602527)scale(0.1 -0.1)">
       <use xlink:href="#DejaVuSans-32"/>
      </g>
     </g>
    </g>
    <g id="ytick_7">
     <g id="line2d_12">
      <g>
       <use xlink:href="#mf6b535dc61" x="46.55" y="148.639122" style="stroke: #000000; stroke-width: 0.8"/>
      </g>
     </g>
     <g id="text_13">
      <!-- 3 -->
      <g transform="translate(33.1875 152.438341)scale(0.1 -0.1)">
       <use xlink:href="#DejaVuSans-33"/>
      </g>
     </g>
    </g>
    <g id="ytick_8">
     <g id="line2d_13">
      <g>
       <use xlink:href="#mf6b535dc61" x="46.55" y="120.474937" style="stroke: #000000; stroke-width: 0.8"/>
      </g>
     </g>
     <g id="text_14">
      <!-- 4 -->
      <g transform="translate(33.1875 124.274155)scale(0.1 -0.1)">
       <use xlink:href="#DejaVuSans-34"/>
      </g>
     </g>
    </g>
    <g id="ytick_9">
     <g id="line2d_14">
      <g>
       <use xlink:href="#mf6b535dc61" x="46.55" y="92.310751" style="stroke: #000000; stroke-width: 0.8"/>
      </g>
     </g>
     <g id="text_15">
      <!-- 5 -->
      <g transform="translate(33.1875 96.10997)scale(0.1 -0.1)">
       <defs>
        <path id="DejaVuSans-35" d="M 691 4666 
L 3169 4666 
L 3169 4134 
L 1269 4134 
L 1269 2991 
Q 1406 3038 1543 3061 
Q 1681 3084 1819 3084 
Q 2600 3084 3056 2656 
Q 3513 2228 3513 1497 
Q 3513 744 3044 326 
Q 2575 -91 1722 -91 
Q 1428 -91 1123 -41 
Q 819 9 494 109 
L 494 744 
Q 775 591 1075 516 
Q 1375 441 1709 441 
Q 2250 441 2565 725 
Q 2881 1009 2881 1497 
Q 2881 1984 2565 2268 
Q 2250 2553 1709 2553 
Q 1456 2553 1204 2497 
Q 953 2441 691 2322 
L 691 4666 
z
" transform="scale(0.015625)"/>
       </defs>
       <use xlink:href="#DejaVuSans-35"/>
      </g>
     </g>
    </g>
    <g id="text_16">
     <!-- V -->
     <g transform="translate(18.728125 201.322125)rotate(-90)scale(0.1 -0.1)">
      <defs>
       <path id="DejaVuSans-b5" d="M 544 -1331 
L 544 3500 
L 1119 3500 
L 1119 1325 
Q 1119 872 1334 640 
Q 1550 409 1972 409 
Q 2434 409 2667 671 
Q 2900 934 2900 1459 
L 2900 3500 
L 3475 3500 
L 3475 806 
Q 3475 619 3529 530 
Q 3584 441 3700 441 
Q 3728 441 3778 458 
Q 3828 475 3916 513 
L 3916 50 
Q 3788 -22 3673 -56 
Q 3559 -91 3450 -91 
Q 3234 -91 3106 31 
Q 2978 153 2931 403 
Q 2775 156 2548 32 
Q 2322 -91 2016 -91 
Q 1697 -91 1473 31 
Q 1250 153 1119 397 
L 1119 -1331 
L 544 -1331 
z
" transform="scale(0.015625)"/>
       <path id="DejaVuSans-56" d="M 1831 0 
L 50 4666 
L 709 4666 
L 2188 738 
L 3669 4666 
L 4325 4666 
L 2547 0 
L 1831 0 
z
" transform="scale(0.015625)"/>
      </defs>
      <use xlink:href="#DejaVuSans-b5"/>
      <use xlink:href="#DejaVuSans-56" x="63.623047"/>
     </g>
    </g>
   </g>
   <g id="line2d_15">
    <path d="M 46.55 231.199332 
L 47.346238 230.001043 
L 49.73495 223.749927 
L 50.531188 222.319866 
L 51.327425 221.572712 
L 52.123663 221.435271 
L 52.9199 221.758246 
L 53.716138 222.430996 
L 54.512375 223.447569 
L 55.308613 224.891533 
L 56.10485 226.847614 
L 59.2898 236.325457 
L 60.086038 237.015832 
L 60.882275 236.366361 
L 61.678513 234.520864 
L 63.270988 229.323508 
L 64.067226 227.299894 
L 64.863463 226.349718 
L 65.659701 226.641036 
L 66.455938 228.043179 
L 67.252176 230.225606 
L 69.640888 237.91659 
L 70.437126 240.097911 
L 71.233363 241.847715 
L 72.029601 242.986177 
L 72.825838 243.295104 
L 73.622076 242.600539 
L 74.418313 240.894571 
L 76.807026 233.447192 
L 77.603263 232.202654 
L 78.399501 232.321109 
L 79.195739 233.713803 
L 80.788214 238.12217 
L 81.584451 239.741165 
L 82.380689 240.380876 
L 83.176926 240.128713 
L 83.973164 239.474545 
L 84.769401 239.085281 
L 85.565639 239.494146 
L 86.361876 240.835732 
L 87.954351 244.46823 
L 88.750589 245.159338 
L 89.546826 244.22935 
L 90.343064 241.623252 
L 91.935539 234.069155 
L 92.731776 231.281464 
L 93.528014 230.426283 
L 94.324251 231.852413 
L 95.120489 235.272593 
L 97.509202 248.82489 
L 98.305439 251.735355 
L 99.101677 253.37281 
L 99.897914 254.023298 
L 100.694152 254.106811 
L 101.490389 253.949171 
L 102.286627 253.641095 
L 103.082864 253.03685 
L 103.879102 251.879141 
L 104.675339 249.982564 
L 105.471577 247.385889 
L 107.064052 241.547709 
L 107.860289 239.368286 
L 108.656527 238.257481 
L 109.452764 238.323358 
L 110.249002 239.369112 
L 112.637715 244.233256 
L 113.433952 245.386747 
L 115.026427 246.971629 
L 116.618902 248.33718 
L 117.41514 248.734924 
L 118.211377 248.573023 
L 119.007615 247.610622 
L 119.803852 245.82409 
L 121.396327 241.190458 
L 122.192565 239.59034 
L 122.988802 239.271847 
L 123.78504 240.471105 
L 124.581277 242.953713 
L 126.173752 248.821506 
L 126.96999 250.423898 
L 127.766228 250.358574 
L 128.562465 248.703557 
L 130.15494 243.659885 
L 130.951178 242.408902 
L 131.747415 243.113526 
L 132.543653 245.889269 
L 134.932365 258.209902 
L 135.728603 259.511045 
L 136.52484 258.026683 
L 137.321078 253.931014 
L 139.70979 236.214332 
L 140.506028 232.404199 
L 141.302265 230.675638 
L 142.098503 230.788282 
L 142.89474 232.074593 
L 143.690978 233.715412 
L 144.487216 235.014174 
L 145.283453 235.575474 
L 146.079691 235.343142 
L 146.875928 234.512935 
L 150.060878 230.159987 
L 151.653353 228.548851 
L 153.245828 227.304992 
L 154.042066 226.717925 
L 154.838303 225.918056 
L 155.634541 224.619042 
L 156.430778 222.56458 
L 157.227016 219.682742 
L 158.819491 212.724151 
L 159.615729 210.000892 
L 160.411966 208.786712 
L 161.208204 209.497428 
L 162.004441 212.003847 
L 163.596916 219.125644 
L 164.393154 221.416168 
L 165.189391 221.60198 
L 165.985629 219.467498 
L 166.781866 215.53084 
L 168.374341 206.749168 
L 169.170579 204.159266 
L 169.966816 203.48328 
L 170.763054 204.373709 
L 171.559291 205.908241 
L 172.355529 206.949395 
L 173.151766 206.565351 
L 173.948004 204.349236 
L 174.744241 200.520791 
L 177.132954 186.977658 
L 177.929192 183.970471 
L 178.725429 181.932102 
L 179.521667 180.523963 
L 181.114142 178.406301 
L 181.910379 177.702223 
L 182.706617 177.630663 
L 183.502854 178.523797 
L 184.299092 180.47067 
L 186.687804 188.455808 
L 187.484042 189.774541 
L 188.280279 189.945084 
L 189.872754 188.761314 
L 190.668992 188.955956 
L 191.46523 190.465603 
L 192.261467 193.291788 
L 193.853942 200.263668 
L 194.65018 202.471175 
L 195.446417 202.807726 
L 196.242655 201.133079 
L 197.038892 197.888708 
L 198.631367 190.172849 
L 199.427605 187.36573 
L 200.223842 185.800804 
L 201.02008 185.338721 
L 201.816317 185.550048 
L 202.612555 185.953608 
L 203.408792 186.232274 
L 205.001267 186.434147 
L 205.797505 186.763739 
L 206.593742 187.437322 
L 208.186218 189.077142 
L 208.982455 189.237524 
L 209.778693 188.475557 
L 210.57493 186.75437 
L 212.167405 182.032534 
L 212.963643 180.322222 
L 213.75988 179.753671 
L 214.556118 180.402993 
L 216.148593 183.428187 
L 216.94483 184.204975 
L 217.741068 183.553335 
L 218.537305 181.249531 
L 219.333543 177.583883 
L 220.926018 169.184481 
L 221.722255 166.126021 
L 222.518493 164.532994 
L 223.31473 164.405466 
L 224.110968 165.358326 
L 225.703443 168.178271 
L 226.499681 169.123416 
L 227.295918 169.560243 
L 228.092156 169.637766 
L 229.684631 169.610504 
L 231.277106 169.70223 
L 232.073343 169.394488 
L 232.869581 168.585638 
L 233.665818 167.234457 
L 241.628194 149.598186 
L 242.424431 149.003806 
L 243.220669 149.821584 
L 244.016906 152.176614 
L 244.813144 155.77864 
L 246.405619 163.892321 
L 247.201856 166.800112 
L 247.998094 168.268859 
L 248.794331 168.353454 
L 250.386806 166.603077 
L 251.183044 166.225474 
L 251.979281 166.84187 
L 252.775519 168.446484 
L 254.367994 172.714832 
L 255.164231 174.05759 
L 255.960469 174.21088 
L 256.756707 173.079632 
L 257.552944 170.904691 
L 259.941657 162.595384 
L 261.534132 158.151673 
L 262.330369 155.984165 
L 263.126607 153.482015 
L 263.922844 150.457985 
L 265.515319 142.963295 
L 267.107794 135.413338 
L 267.904032 132.654919 
L 268.700269 131.07188 
L 269.496507 130.841891 
L 270.292744 131.892877 
L 271.088982 133.868203 
L 271.88522 136.15758 
L 272.681457 138.009409 
L 273.477695 138.712794 
L 274.273932 137.808188 
L 275.07017 135.262628 
L 277.458882 124.329276 
L 278.25512 122.897999 
L 279.051357 123.786552 
L 279.847595 126.912577 
L 282.236307 140.563293 
L 283.032545 142.623196 
L 283.828782 142.253146 
L 284.62502 139.68039 
L 287.013732 128.33529 
L 287.80997 126.855882 
L 288.606208 127.421337 
L 289.402445 129.776034 
L 291.791158 140.126737 
L 292.587395 142.150969 
L 293.383633 142.807323 
L 294.17987 142.198924 
L 294.976108 140.68711 
L 296.568583 136.968395 
L 297.36482 135.69448 
L 298.161058 135.196217 
L 298.957295 135.503842 
L 299.753533 136.43117 
L 301.346008 138.629885 
L 302.142245 139.058585 
L 302.938483 138.672298 
L 303.73472 137.500961 
L 305.327196 134.323731 
L 306.123433 133.509204 
L 306.919671 133.951015 
L 307.715908 135.883094 
L 308.512146 139.139481 
L 310.104621 147.178228 
L 310.900858 150.351618 
L 311.697096 152.094557 
L 312.493333 152.20583 
L 313.289571 150.931853 
L 314.882046 146.825132 
L 315.678283 145.463243 
L 316.474521 145.214675 
L 317.270758 146.122368 
L 318.066996 147.884849 
L 319.659471 151.973408 
L 320.455709 153.492043 
L 321.251946 154.542164 
L 322.048184 155.391612 
L 322.844421 156.468419 
L 323.640659 158.170472 
L 324.436896 160.675634 
L 326.825609 169.781624 
L 327.621846 171.112839 
L 328.418084 170.571926 
L 329.214321 168.061769 
L 330.010559 164.003971 
L 331.603034 155.065329 
L 332.399271 152.47689 
L 333.195509 152.323286 
L 333.991746 154.837923 
L 334.787984 159.592816 
L 336.380459 171.483314 
L 337.176697 175.966082 
L 337.972934 178.057109 
L 338.769172 177.360924 
L 339.565409 174.133862 
L 341.157884 163.598038 
L 341.954122 158.492857 
L 342.750359 154.690295 
L 343.546597 152.581273 
L 344.342834 152.097553 
L 345.139072 152.816273 
L 346.731547 155.49498 
L 347.527784 156.454996 
L 348.324022 156.823785 
L 349.120259 156.615769 
L 349.916497 156.001285 
L 351.508972 154.605864 
L 352.30521 154.379466 
L 353.101447 154.786456 
L 353.897685 155.981747 
L 354.693922 158.004532 
L 355.49016 160.735969 
L 357.082635 166.988625 
L 357.878872 169.554928 
L 358.67511 171.140006 
L 359.471347 171.512258 
L 360.267585 170.742047 
L 362.656297 166.322642 
L 363.452535 166.11973 
L 364.248772 167.111104 
L 365.04501 169.137105 
L 366.637485 174.363298 
L 367.433722 176.503353 
L 368.22996 177.94318 
L 369.026198 178.797147 
L 369.822435 179.462861 
L 370.618673 180.458061 
L 371.41491 182.207956 
L 372.211148 184.860679 
L 374.59986 194.634378 
L 375.396098 196.407736 
L 376.192335 196.661791 
L 376.988573 195.450861 
L 379.377285 188.601508 
L 380.173523 187.51405 
L 380.96976 187.634533 
L 381.765998 188.767471 
L 383.358473 191.88269 
L 384.15471 192.646824 
L 384.950948 192.38262 
L 385.747186 191.127744 
L 387.339661 187.285069 
L 388.135898 185.847928 
L 388.932136 185.394864 
L 389.728373 186.169446 
L 390.524611 188.182465 
L 391.320848 191.268048 
L 392.913323 199.602737 
L 395.302036 213.312289 
L 396.098273 216.945708 
L 396.894511 219.49497 
L 397.690748 220.655482 
L 398.486986 220.305407 
L 399.283223 218.584341 
L 400.079461 215.895094 
L 401.671936 209.899344 
L 402.468174 207.559947 
L 403.264411 205.889701 
L 405.653124 202.246185 
L 408.041836 197.142026 
L 408.838074 196.530574 
L 409.634311 197.260878 
L 410.430549 199.371577 
L 412.819261 208.145752 
L 413.615499 209.208538 
L 413.615499 209.208538 
" clip-path="url(#p94760cedd5)" style="fill: none; stroke: #e41a1c; stroke-width: 1.5; stroke-linecap: square"/>
   </g>
   <g id="line2d_16">
    <path d="M 46.55 227.081561 
L 47.346238 227.351285 
L 48.142475 228.046114 
L 51.327425 232.096855 
L 52.123663 232.524819 
L 52.9199 232.656252 
L 54.512375 232.467576 
L 56.10485 232.033539 
L 56.901088 231.625722 
L 57.697325 231.002325 
L 59.2898 229.170304 
L 60.882275 227.253163 
L 61.678513 226.541329 
L 62.47475 226.042978 
L 63.270988 225.725601 
L 64.067226 225.545241 
L 64.863463 225.491954 
L 65.659701 225.611892 
L 66.455938 225.992111 
L 67.252176 226.710696 
L 68.048413 227.777967 
L 70.437126 231.706001 
L 71.233363 232.573637 
L 72.029601 233.023089 
L 72.825838 233.142904 
L 73.622076 233.148811 
L 74.418313 233.302653 
L 75.214551 233.80893 
L 76.010788 234.732027 
L 78.399501 238.459712 
L 79.195739 239.274601 
L 79.991976 239.708455 
L 81.584451 240.044529 
L 82.380689 240.437983 
L 83.176926 241.256025 
L 83.973164 242.567308 
L 84.769401 244.320594 
L 86.361876 248.635482 
L 89.546826 257.69293 
L 90.343064 259.505758 
L 91.139301 260.743652 
L 91.935539 261.134937 
L 92.731776 260.48037 
L 93.528014 258.744364 
L 94.324251 256.105909 
L 96.712964 246.998498 
L 97.509202 245.042577 
L 98.305439 244.00348 
L 99.101677 243.775075 
L 99.897914 244.078877 
L 101.490389 244.93781 
L 102.286627 245.001355 
L 103.082864 244.715291 
L 103.879102 244.151085 
L 107.064052 241.44333 
L 107.860289 240.979872 
L 108.656527 240.653223 
L 109.452764 240.509493 
L 110.249002 240.61267 
L 111.04524 241.016513 
L 111.841477 241.730066 
L 113.433952 243.793359 
L 115.026427 245.81105 
L 115.822665 246.538105 
L 117.41514 247.518869 
L 119.007615 248.569706 
L 121.396327 250.807401 
L 122.192565 251.302515 
L 122.988802 251.452673 
L 123.78504 251.227366 
L 124.581277 250.698479 
L 126.173752 249.375063 
L 126.96999 248.930246 
L 127.766228 248.786053 
L 128.562465 248.970734 
L 129.358703 249.457902 
L 130.15494 250.202347 
L 130.951178 251.172112 
L 131.747415 252.35931 
L 133.33989 255.349188 
L 134.932365 258.585196 
L 135.728603 259.810642 
L 136.52484 260.462231 
L 137.321078 260.400738 
L 138.117315 259.652629 
L 140.506028 256.170263 
L 141.302265 255.912808 
L 142.098503 256.530133 
L 142.89474 257.937275 
L 144.487216 261.684628 
L 145.283453 263.092382 
L 146.079691 263.710025 
L 146.875928 263.446389 
L 147.672166 262.452499 
L 150.060878 258.360933 
L 150.857116 257.438952 
L 152.449591 255.990881 
L 153.245828 254.987771 
L 154.042066 253.57627 
L 156.430778 248.189466 
L 157.227016 247.053382 
L 158.023253 246.697947 
L 158.819491 247.130918 
L 159.615729 248.13695 
L 160.411966 249.342351 
L 161.208204 250.333609 
L 162.004441 250.788501 
L 162.800679 250.576699 
L 163.596916 249.797089 
L 165.189391 247.802909 
L 165.985629 247.352413 
L 166.781866 247.637974 
L 167.578104 248.719859 
L 168.374341 250.466001 
L 170.763054 256.667433 
L 171.559291 258.041273 
L 172.355529 258.784301 
L 173.151766 258.916881 
L 173.948004 258.571353 
L 175.540479 257.314936 
L 176.336717 256.878827 
L 177.132954 256.829008 
L 177.929192 257.260611 
L 178.725429 258.160617 
L 181.114142 262.025607 
L 181.910379 262.925623 
L 182.706617 263.356979 
L 183.502854 263.354057 
L 185.095329 262.946953 
L 185.891567 263.188208 
L 186.687804 264.079027 
L 187.484042 265.672076 
L 189.872754 271.971973 
L 190.668992 273.14198 
L 191.46523 273.327763 
L 192.261467 272.583342 
L 193.853942 269.830444 
L 194.65018 268.894224 
L 195.446417 268.841716 
L 196.242655 269.808926 
L 197.038892 271.62063 
L 198.631367 275.952972 
L 199.427605 277.438412 
L 200.223842 278.001028 
L 201.02008 277.58909 
L 201.816317 276.383151 
L 205.001267 269.926657 
L 205.797505 268.941028 
L 206.593742 268.294089 
L 207.38998 267.974455 
L 208.186218 268.00381 
L 208.982455 268.42427 
L 209.778693 269.248603 
L 212.167405 272.816044 
L 212.963643 273.467113 
L 213.75988 273.408467 
L 214.556118 272.584733 
L 215.352355 271.160545 
L 216.94483 267.99423 
L 217.741068 267.059857 
L 218.537305 266.880237 
L 219.333543 267.41254 
L 221.722255 270.217387 
L 222.518493 270.448836 
L 223.31473 270.101287 
L 224.110968 269.300455 
L 226.499681 266.284683 
L 228.092156 264.806845 
L 229.684631 263.683944 
L 230.480868 263.424713 
L 231.277106 263.604777 
L 232.073343 264.385192 
L 232.869581 265.797839 
L 235.258293 271.473296 
L 236.054531 272.588804 
L 236.850768 272.881773 
L 237.647006 272.42549 
L 239.239481 270.618199 
L 240.035719 270.100972 
L 240.831956 270.207056 
L 241.628194 270.92831 
L 244.016906 274.219563 
L 244.813144 274.89424 
L 246.405619 275.851473 
L 247.201856 276.665048 
L 247.998094 277.962328 
L 250.386806 283.27659 
L 251.183044 284.300275 
L 251.979281 284.422647 
L 252.775519 283.636399 
L 253.571756 282.188241 
L 255.164231 278.998982 
L 255.960469 278.033174 
L 256.756707 277.722101 
L 257.552944 277.973825 
L 259.145419 279.136351 
L 259.941657 279.516915 
L 260.737894 279.563621 
L 261.534132 279.274279 
L 262.330369 278.718983 
L 263.126607 277.974952 
L 263.922844 277.077811 
L 264.719082 276.012613 
L 266.311557 273.278237 
L 267.904032 270.135218 
L 268.700269 268.825711 
L 269.496507 267.931487 
L 270.292744 267.511892 
L 271.088982 267.463711 
L 271.88522 267.528442 
L 272.681457 267.36203 
L 273.477695 266.648383 
L 274.273932 265.219441 
L 275.07017 263.139005 
L 276.662645 258.44192 
L 277.458882 256.849285 
L 278.25512 256.361274 
L 279.051357 257.149741 
L 279.847595 259.064059 
L 281.44007 264.247837 
L 282.236307 266.16953 
L 283.032545 266.861234 
L 283.828782 266.049132 
L 284.62502 263.802205 
L 286.217495 256.757436 
L 287.013732 253.213128 
L 287.80997 250.435346 
L 288.606208 248.776542 
L 289.402445 248.32861 
L 290.198683 248.942692 
L 290.99492 250.3033 
L 293.383633 255.235836 
L 294.17987 256.297921 
L 294.976108 256.895208 
L 295.772345 257.052008 
L 296.568583 256.843254 
L 298.161058 255.80896 
L 298.957295 255.301243 
L 299.753533 255.041624 
L 300.54977 255.188168 
L 301.346008 255.822467 
L 302.142245 256.903592 
L 303.73472 259.554202 
L 304.530958 260.46587 
L 305.327196 260.671809 
L 306.123433 259.998863 
L 306.919671 258.473 
L 308.512146 253.916918 
L 309.308383 251.669172 
L 310.104621 249.919328 
L 310.900858 248.8542 
L 311.697096 248.479837 
L 312.493333 248.655094 
L 313.289571 249.167958 
L 316.474521 251.842345 
L 319.659471 254.747394 
L 320.455709 255.030686 
L 321.251946 254.91305 
L 322.048184 254.407185 
L 324.436896 252.133988 
L 325.233134 251.815584 
L 326.029371 251.957706 
L 326.825609 252.585684 
L 327.621846 253.662239 
L 328.418084 255.122516 
L 330.010559 258.936458 
L 333.195509 267.638571 
L 333.991746 269.157912 
L 334.787984 270.134353 
L 335.584221 270.585988 
L 336.380459 270.663929 
L 337.176697 270.612249 
L 337.972934 270.68429 
L 338.769172 271.044138 
L 341.157884 273.004313 
L 341.954122 273.042115 
L 342.750359 272.352408 
L 343.546597 270.935672 
L 345.935309 265.418457 
L 346.731547 264.538723 
L 347.527784 264.534294 
L 348.324022 265.276154 
L 349.916497 267.454299 
L 350.712734 267.974271 
L 351.508972 267.680052 
L 352.30521 266.510944 
L 353.101447 264.628403 
L 355.49016 258.02665 
L 356.286397 256.542181 
L 357.082635 255.692758 
L 357.878872 255.485643 
L 358.67511 255.85883 
L 359.471347 256.7098 
L 361.063822 259.304418 
L 362.656297 261.953577 
L 363.452535 262.840005 
L 364.248772 263.250393 
L 365.04501 263.14553 
L 365.841247 262.587358 
L 369.026198 259.225093 
L 369.822435 258.843937 
L 370.618673 258.710995 
L 372.211148 258.858044 
L 373.803623 259.03875 
L 376.988573 259.118767 
L 377.78481 259.301031 
L 378.581048 259.706075 
L 379.377285 260.451114 
L 380.173523 261.642842 
L 380.96976 263.32809 
L 384.15471 271.660745 
L 384.950948 272.439603 
L 385.747186 272.104092 
L 386.543423 270.67937 
L 388.135898 265.902268 
L 388.932136 263.589276 
L 389.728373 261.978337 
L 390.524611 261.311145 
L 391.320848 261.536175 
L 392.913323 263.219126 
L 393.709561 263.710601 
L 394.505798 263.469654 
L 395.302036 262.403664 
L 396.098273 260.677261 
L 397.690748 256.700639 
L 398.486986 255.185313 
L 399.283223 254.241831 
L 400.079461 253.805393 
L 401.671936 253.437511 
L 402.468174 252.924037 
L 403.264411 251.95748 
L 404.060649 250.565609 
L 405.653124 247.306705 
L 406.449361 245.964169 
L 407.245599 245.078037 
L 408.041836 244.697173 
L 408.838074 244.737466 
L 411.226786 245.461757 
L 412.023024 245.33384 
L 412.819261 244.941702 
L 413.615499 244.393111 
L 413.615499 244.393111 
" clip-path="url(#p94760cedd5)" style="fill: none; stroke: #377eb8; stroke-width: 1.5; stroke-linecap: square"/>
   </g>
   <g id="line2d_17">
    <path d="M 87.158114 318.2 
L 87.158114 71.241125 
" clip-path="url(#p94760cedd5)" style="fill: none; stroke: #000000; stroke-width: 0.5; stroke-linecap: square"/>
   </g>
   <g id="line2d_18">
    <path d="M 46.55 233.13168 
L 413.615499 233.13168 
" clip-path="url(#p94760cedd5)" style="fill: none; stroke: #000000; stroke-width: 0.5; stroke-linecap: square"/>
   </g>
   <g id="patch_4">
    <path d="M 46.55 318.2 
L 46.55 71.241125 
" style="fill: none; stroke: #000000; stroke-width: 0.8; stroke-linejoin: miter; stroke-linecap: square"/>
   </g>
   <g id="patch_5">
    <path d="M 413.615499 318.2 
L 413.615499 71.241125 
" style="fill: none; stroke: #000000; stroke-width: 0.8; stroke-linejoin: miter; stroke-linecap: square"/>
   </g>
   <g id="patch_6">
    <path d="M 46.55 318.2 
L 413.615499 318.2 
" style="fill: none; stroke: #000000; stroke-width: 0.8; stroke-linejoin: miter; stroke-linecap: square"/>
   </g>
   <g id="patch_7">
    <path d="M 46.55 71.241125 
L 413.615499 71.241125 
" style="fill: none; stroke: #000000; stroke-width: 0.8; stroke-linejoin: miter; stroke-linecap: square"/>
   </g>
   <g id="text_17">
    <!-- Cz -->
    <g transform="translate(222.743999 65.241125)scale(0.12 -0.12)">
     <defs>
      <path id="DejaVuSans-43" d="M 4122 4306 
L 4122 3641 
Q 3803 3938 3442 4084 
Q 3081 4231 2675 4231 
Q 1875 4231 1450 3742 
Q 1025 3253 1025 2328 
Q 1025 1406 1450 917 
Q 1875 428 2675 428 
Q 3081 428 3442 575 
Q 3803 722 4122 1019 
L 4122 359 
Q 3791 134 3420 21 
Q 3050 -91 2638 -91 
Q 1578 -91 968 557 
Q 359 1206 359 2328 
Q 359 3453 968 4101 
Q 1578 4750 2638 4750 
Q 3056 4750 3426 4639 
Q 3797 4528 4122 4306 
z
" transform="scale(0.015625)"/>
      <path id="DejaVuSans-7a" d="M 353 3500 
L 3084 3500 
L 3084 2975 
L 922 459 
L 3084 459 
L 3084 0 
L 275 0 
L 275 525 
L 2438 3041 
L 353 3041 
L 353 3500 
z
" transform="scale(0.015625)"/>
     </defs>
     <use xlink:href="#DejaVuSans-43"/>
     <use xlink:href="#DejaVuSans-7a" x="69.824219"/>
    </g>
   </g>
   <g id="legend_1">
    <g id="patch_8">
     <path d="M 99.855406 48.044893 
L 360.310093 48.044893 
Q 362.310093 48.044893 362.310093 46.044893 
L 362.310093 17.410517 
Q 362.310093 15.410517 360.310093 15.410517 
L 99.855406 15.410517 
Q 97.855406 15.410517 97.855406 17.410517 
L 97.855406 46.044893 
Q 97.855406 48.044893 99.855406 48.044893 
z
" style="fill: #ffffff; opacity: 0.8; stroke: #cccccc; stroke-linejoin: miter"/>
    </g>
    <g id="text_18">
     <!-- Average of Session 25_tac4 -->
     <g transform="translate(161.068687 27.008955)scale(0.1 -0.1)">
      <defs>
       <path id="DejaVuSans-41" d="M 2188 4044 
L 1331 1722 
L 3047 1722 
L 2188 4044 
z
M 1831 4666 
L 2547 4666 
L 4325 0 
L 3669 0 
L 3244 1197 
L 1141 1197 
L 716 0 
L 50 0 
L 1831 4666 
z
" transform="scale(0.015625)"/>
       <path id="DejaVuSans-76" d="M 191 3500 
L 800 3500 
L 1894 563 
L 2988 3500 
L 3597 3500 
L 2284 0 
L 1503 0 
L 191 3500 
z
" transform="scale(0.015625)"/>
       <path id="DejaVuSans-72" d="M 2631 2963 
Q 2534 3019 2420 3045 
Q 2306 3072 2169 3072 
Q 1681 3072 1420 2755 
Q 1159 2438 1159 1844 
L 1159 0 
L 581 0 
L 581 3500 
L 1159 3500 
L 1159 2956 
Q 1341 3275 1631 3429 
Q 1922 3584 2338 3584 
Q 2397 3584 2469 3576 
Q 2541 3569 2628 3553 
L 2631 2963 
z
" transform="scale(0.015625)"/>
       <path id="DejaVuSans-61" d="M 2194 1759 
Q 1497 1759 1228 1600 
Q 959 1441 959 1056 
Q 959 750 1161 570 
Q 1363 391 1709 391 
Q 2188 391 2477 730 
Q 2766 1069 2766 1631 
L 2766 1759 
L 2194 1759 
z
M 3341 1997 
L 3341 0 
L 2766 0 
L 2766 531 
Q 2569 213 2275 61 
Q 1981 -91 1556 -91 
Q 1019 -91 701 211 
Q 384 513 384 1019 
Q 384 1609 779 1909 
Q 1175 2209 1959 2209 
L 2766 2209 
L 2766 2266 
Q 2766 2663 2505 2880 
Q 2244 3097 1772 3097 
Q 1472 3097 1187 3025 
Q 903 2953 641 2809 
L 641 3341 
Q 956 3463 1253 3523 
Q 1550 3584 1831 3584 
Q 2591 3584 2966 3190 
Q 3341 2797 3341 1997 
z
" transform="scale(0.015625)"/>
       <path id="DejaVuSans-67" d="M 2906 1791 
Q 2906 2416 2648 2759 
Q 2391 3103 1925 3103 
Q 1463 3103 1205 2759 
Q 947 2416 947 1791 
Q 947 1169 1205 825 
Q 1463 481 1925 481 
Q 2391 481 2648 825 
Q 2906 1169 2906 1791 
z
M 3481 434 
Q 3481 -459 3084 -895 
Q 2688 -1331 1869 -1331 
Q 1566 -1331 1297 -1286 
Q 1028 -1241 775 -1147 
L 775 -588 
Q 1028 -725 1275 -790 
Q 1522 -856 1778 -856 
Q 2344 -856 2625 -561 
Q 2906 -266 2906 331 
L 2906 616 
Q 2728 306 2450 153 
Q 2172 0 1784 0 
Q 1141 0 747 490 
Q 353 981 353 1791 
Q 353 2603 747 3093 
Q 1141 3584 1784 3584 
Q 2172 3584 2450 3431 
Q 2728 3278 2906 2969 
L 2906 3500 
L 3481 3500 
L 3481 434 
z
" transform="scale(0.015625)"/>
       <path id="DejaVuSans-20" transform="scale(0.015625)"/>
       <path id="DejaVuSans-66" d="M 2375 4863 
L 2375 4384 
L 1825 4384 
Q 1516 4384 1395 4259 
Q 1275 4134 1275 3809 
L 1275 3500 
L 2222 3500 
L 2222 3053 
L 1275 3053 
L 1275 0 
L 697 0 
L 697 3053 
L 147 3053 
L 147 3500 
L 697 3500 
L 697 3744 
Q 697 4328 969 4595 
Q 1241 4863 1831 4863 
L 2375 4863 
z
" transform="scale(0.015625)"/>
       <path id="DejaVuSans-53" d="M 3425 4513 
L 3425 3897 
Q 3066 4069 2747 4153 
Q 2428 4238 2131 4238 
Q 1616 4238 1336 4038 
Q 1056 3838 1056 3469 
Q 1056 3159 1242 3001 
Q 1428 2844 1947 2747 
L 2328 2669 
Q 3034 2534 3370 2195 
Q 3706 1856 3706 1288 
Q 3706 609 3251 259 
Q 2797 -91 1919 -91 
Q 1588 -91 1214 -16 
Q 841 59 441 206 
L 441 856 
Q 825 641 1194 531 
Q 1563 422 1919 422 
Q 2459 422 2753 634 
Q 3047 847 3047 1241 
Q 3047 1584 2836 1778 
Q 2625 1972 2144 2069 
L 1759 2144 
Q 1053 2284 737 2584 
Q 422 2884 422 3419 
Q 422 4038 858 4394 
Q 1294 4750 2059 4750 
Q 2388 4750 2728 4690 
Q 3069 4631 3425 4513 
z
" transform="scale(0.015625)"/>
       <path id="DejaVuSans-69" d="M 603 3500 
L 1178 3500 
L 1178 0 
L 603 0 
L 603 3500 
z
M 603 4863 
L 1178 4863 
L 1178 4134 
L 603 4134 
L 603 4863 
z
" transform="scale(0.015625)"/>
       <path id="DejaVuSans-5f" d="M 3263 -1063 
L 3263 -1509 
L -63 -1509 
L -63 -1063 
L 3263 -1063 
z
" transform="scale(0.015625)"/>
       <path id="DejaVuSans-74" d="M 1172 4494 
L 1172 3500 
L 2356 3500 
L 2356 3053 
L 1172 3053 
L 1172 1153 
Q 1172 725 1289 603 
Q 1406 481 1766 481 
L 2356 481 
L 2356 0 
L 1766 0 
Q 1100 0 847 248 
Q 594 497 594 1153 
L 594 3053 
L 172 3053 
L 172 3500 
L 594 3500 
L 594 4494 
L 1172 4494 
z
" transform="scale(0.015625)"/>
      </defs>
      <use xlink:href="#DejaVuSans-41"/>
      <use xlink:href="#DejaVuSans-76" x="62.533203"/>
      <use xlink:href="#DejaVuSans-65" x="121.712891"/>
      <use xlink:href="#DejaVuSans-72" x="183.236328"/>
      <use xlink:href="#DejaVuSans-61" x="224.349609"/>
      <use xlink:href="#DejaVuSans-67" x="285.628906"/>
      <use xlink:href="#DejaVuSans-65" x="349.105469"/>
      <use xlink:href="#DejaVuSans-20" x="410.628906"/>
      <use xlink:href="#DejaVuSans-6f" x="442.416016"/>
      <use xlink:href="#DejaVuSans-66" x="503.597656"/>
      <use xlink:href="#DejaVuSans-20" x="538.802734"/>
      <use xlink:href="#DejaVuSans-53" x="570.589844"/>
      <use xlink:href="#DejaVuSans-65" x="634.066406"/>
      <use xlink:href="#DejaVuSans-73" x="695.589844"/>
      <use xlink:href="#DejaVuSans-73" x="747.689453"/>
      <use xlink:href="#DejaVuSans-69" x="799.789062"/>
      <use xlink:href="#DejaVuSans-6f" x="827.572266"/>
      <use xlink:href="#DejaVuSans-6e" x="888.753906"/>
      <use xlink:href="#DejaVuSans-20" x="952.132812"/>
      <use xlink:href="#DejaVuSans-32" x="983.919922"/>
      <use xlink:href="#DejaVuSans-35" x="1047.542969"/>
      <use xlink:href="#DejaVuSans-5f" x="1111.166016"/>
      <use xlink:href="#DejaVuSans-74" x="1161.166016"/>
      <use xlink:href="#DejaVuSans-61" x="1200.375"/>
      <use xlink:href="#DejaVuSans-63" x="1261.654297"/>
      <use xlink:href="#DejaVuSans-34" x="1316.634766"/>
     </g>
    </g>
    <g id="line2d_19">
     <path d="M 101.855406 38.465205 
L 111.855406 38.465205 
L 121.855406 38.465205 
" style="fill: none; stroke: #e41a1c; stroke-width: 1.5; stroke-linecap: square"/>
    </g>
    <g id="text_19">
     <!-- Target (n=398) -->
     <g transform="translate(129.855406 41.965205)scale(0.1 -0.1)">
      <defs>
       <path id="DejaVuSans-54" d="M -19 4666 
L 3928 4666 
L 3928 4134 
L 2272 4134 
L 2272 0 
L 1638 0 
L 1638 4134 
L -19 4134 
L -19 4666 
z
" transform="scale(0.015625)"/>
       <path id="DejaVuSans-28" d="M 1984 4856 
Q 1566 4138 1362 3434 
Q 1159 2731 1159 2009 
Q 1159 1288 1364 580 
Q 1569 -128 1984 -844 
L 1484 -844 
Q 1016 -109 783 600 
Q 550 1309 550 2009 
Q 550 2706 781 3412 
Q 1013 4119 1484 4856 
L 1984 4856 
z
" transform="scale(0.015625)"/>
       <path id="DejaVuSans-3d" d="M 678 2906 
L 4684 2906 
L 4684 2381 
L 678 2381 
L 678 2906 
z
M 678 1631 
L 4684 1631 
L 4684 1100 
L 678 1100 
L 678 1631 
z
" transform="scale(0.015625)"/>
       <path id="DejaVuSans-39" d="M 703 97 
L 703 672 
Q 941 559 1184 500 
Q 1428 441 1663 441 
Q 2288 441 2617 861 
Q 2947 1281 2994 2138 
Q 2813 1869 2534 1725 
Q 2256 1581 1919 1581 
Q 1219 1581 811 2004 
Q 403 2428 403 3163 
Q 403 3881 828 4315 
Q 1253 4750 1959 4750 
Q 2769 4750 3195 4129 
Q 3622 3509 3622 2328 
Q 3622 1225 3098 567 
Q 2575 -91 1691 -91 
Q 1453 -91 1209 -44 
Q 966 3 703 97 
z
M 1959 2075 
Q 2384 2075 2632 2365 
Q 2881 2656 2881 3163 
Q 2881 3666 2632 3958 
Q 2384 4250 1959 4250 
Q 1534 4250 1286 3958 
Q 1038 3666 1038 3163 
Q 1038 2656 1286 2365 
Q 1534 2075 1959 2075 
z
" transform="scale(0.015625)"/>
       <path id="DejaVuSans-29" d="M 513 4856 
L 1013 4856 
Q 1481 4119 1714 3412 
Q 1947 2706 1947 2009 
Q 1947 1309 1714 600 
Q 1481 -109 1013 -844 
L 513 -844 
Q 928 -128 1133 580 
Q 1338 1288 1338 2009 
Q 1338 2731 1133 3434 
Q 928 4138 513 4856 
z
" transform="scale(0.015625)"/>
      </defs>
      <use xlink:href="#DejaVuSans-54"/>
      <use xlink:href="#DejaVuSans-61" x="44.583984"/>
      <use xlink:href="#DejaVuSans-72" x="105.863281"/>
      <use xlink:href="#DejaVuSans-67" x="145.226562"/>
      <use xlink:href="#DejaVuSans-65" x="208.703125"/>
      <use xlink:href="#DejaVuSans-74" x="270.226562"/>
      <use xlink:href="#DejaVuSans-20" x="309.435547"/>
      <use xlink:href="#DejaVuSans-28" x="341.222656"/>
      <use xlink:href="#DejaVuSans-6e" x="380.236328"/>
      <use xlink:href="#DejaVuSans-3d" x="443.615234"/>
      <use xlink:href="#DejaVuSans-33" x="527.404297"/>
      <use xlink:href="#DejaVuSans-39" x="591.027344"/>
      <use xlink:href="#DejaVuSans-38" x="654.650391"/>
      <use xlink:href="#DejaVuSans-29" x="718.273438"/>
     </g>
    </g>
    <g id="line2d_20">
     <path d="M 225.585093 38.465205 
L 235.585093 38.465205 
L 245.585093 38.465205 
" style="fill: none; stroke: #377eb8; stroke-width: 1.5; stroke-linecap: square"/>
    </g>
    <g id="text_20">
     <!-- Non-Target (n=1198) -->
     <g transform="translate(253.585093 41.965205)scale(0.1 -0.1)">
      <defs>
       <path id="DejaVuSans-4e" d="M 628 4666 
L 1478 4666 
L 3547 763 
L 3547 4666 
L 4159 4666 
L 4159 0 
L 3309 0 
L 1241 3903 
L 1241 0 
L 628 0 
L 628 4666 
z
" transform="scale(0.015625)"/>
       <path id="DejaVuSans-2d" d="M 313 2009 
L 1997 2009 
L 1997 1497 
L 313 1497 
L 313 2009 
z
" transform="scale(0.015625)"/>
      </defs>
      <use xlink:href="#DejaVuSans-4e"/>
      <use xlink:href="#DejaVuSans-6f" x="74.804688"/>
      <use xlink:href="#DejaVuSans-6e" x="135.986328"/>
      <use xlink:href="#DejaVuSans-2d" x="199.365234"/>
      <use xlink:href="#DejaVuSans-54" x="226.324219"/>
      <use xlink:href="#DejaVuSans-61" x="270.908203"/>
      <use xlink:href="#DejaVuSans-72" x="332.1875"/>
      <use xlink:href="#DejaVuSans-67" x="371.550781"/>
      <use xlink:href="#DejaVuSans-65" x="435.027344"/>
      <use xlink:href="#DejaVuSans-74" x="496.550781"/>
      <use xlink:href="#DejaVuSans-20" x="535.759766"/>
      <use xlink:href="#DejaVuSans-28" x="567.546875"/>
      <use xlink:href="#DejaVuSans-6e" x="606.560547"/>
      <use xlink:href="#DejaVuSans-3d" x="669.939453"/>
      <use xlink:href="#DejaVuSans-31" x="753.728516"/>
      <use xlink:href="#DejaVuSans-31" x="817.351562"/>
      <use xlink:href="#DejaVuSans-39" x="880.974609"/>
      <use xlink:href="#DejaVuSans-38" x="944.597656"/>
      <use xlink:href="#DejaVuSans-29" x="1008.220703"/>
     </g>
    </g>
   </g>
  </g>
 </g>
 <defs>
  <clipPath id="p94760cedd5">
   <rect x="46.55" y="71.241125" width="367.065499" height="246.958875"/>
  </clipPath>
 </defs>
</svg>
