<?xml version="1.0" encoding="utf-8" standalone="no"?>
<!DOCTYPE svg PUBLIC "-//W3C//DTD SVG 1.1//EN"
  "http://www.w3.org/Graphics/SVG/1.1/DTD/svg11.dtd">
<svg xmlns:xlink="http://www.w3.org/1999/xlink" width="432pt" height="360pt" viewBox="0 0 432 360" xmlns="http://www.w3.org/2000/svg" version="1.1">
 <metadata>
  <rdf:RDF xmlns:dc="http://purl.org/dc/elements/1.1/" xmlns:cc="http://creativecommons.org/ns#" xmlns:rdf="http://www.w3.org/1999/02/22-rdf-syntax-ns#">
   <cc:Work>
    <dc:type rdf:resource="http://purl.org/dc/dcmitype/StillImage"/>
    <dc:date>2022-11-02T16:56:51.963930</dc:date>
    <dc:format>image/svg+xml</dc:format>
    <dc:creator>
     <cc:Agent>
      <dc:title>Matplotlib v3.5.1, https://matplotlib.org/</dc:title>
     </cc:Agent>
    </dc:creator>
   </cc:Work>
  </rdf:RDF>
 </metadata>
 <defs>
  <style type="text/css">*{stroke-linejoin: round; stroke-linecap: butt}</style>
 </defs>
 <g id="figure_1">
  <g id="patch_1">
   <path d="M 0 360 
L 432 360 
L 432 0 
L 0 0 
L 0 360 
z
" style="fill: none"/>
  </g>
  <g id="axes_1">
   <g id="patch_2">
    <path d="M 46.55 318.2 
L 413.615499 318.2 
L 413.615499 71.241125 
L 46.55 71.241125 
L 46.55 318.2 
z
" style="fill: none"/>
   </g>
   <g id="PolyCollection_1">
    <defs>
     <path id="m358aaad562" d="M 46.55 -126.337929 
L 46.55 -82.625887 
L 47.346238 -84.131254 
L 48.142475 -85.681169 
L 48.938713 -87.049535 
L 49.73495 -88.208708 
L 50.531188 -89.283084 
L 51.327425 -90.417655 
L 52.123663 -91.671454 
L 52.9199 -92.991436 
L 53.716138 -94.265073 
L 54.512375 -95.423084 
L 55.308613 -96.525902 
L 56.10485 -97.740385 
L 56.901088 -99.191078 
L 57.697325 -100.802414 
L 58.493563 -102.271146 
L 59.2898 -103.202776 
L 60.086038 -103.300019 
L 60.882275 -102.4536 
L 61.678513 -100.729135 
L 62.47475 -98.351891 
L 63.270988 -95.712936 
L 64.067226 -93.320777 
L 64.863463 -91.661253 
L 65.659701 -91.048916 
L 66.455938 -91.581713 
L 67.252176 -93.192909 
L 68.048413 -95.686855 
L 68.844651 -98.713614 
L 69.640888 -101.777263 
L 70.437126 -104.363837 
L 71.233363 -106.114464 
L 72.029601 -106.86894 
L 72.825838 -106.564895 
L 73.622076 -105.176563 
L 74.418313 -102.79943 
L 75.214551 -99.771227 
L 76.010788 -96.65366 
L 76.807026 -94.0526 
L 77.603263 -92.424319 
L 78.399501 -91.997913 
L 79.195739 -92.786102 
L 79.991976 -94.5666 
L 80.788214 -96.841945 
L 81.584451 -98.930211 
L 82.380689 -100.246023 
L 83.176926 -100.589525 
L 83.973164 -100.184635 
L 84.769401 -99.450215 
L 85.565639 -98.734934 
L 86.361876 -98.217769 
L 87.158114 -97.978414 
L 87.954351 -98.070999 
L 88.750589 -98.484331 
L 89.546826 -99.073998 
L 90.343064 -99.596434 
L 91.139301 -99.845762 
L 91.935539 -99.78037 
L 92.731776 -99.521475 
L 93.528014 -99.22553 
L 94.324251 -98.950795 
L 95.120489 -98.620602 
L 95.916727 -98.091783 
L 96.712964 -97.277625 
L 97.509202 -96.257164 
L 98.305439 -95.302086 
L 99.101677 -94.784545 
L 99.897914 -95.006802 
L 100.694152 -96.057569 
L 101.490389 -97.780522 
L 102.286627 -99.855085 
L 103.082864 -101.920401 
L 103.879102 -103.675039 
L 104.675339 -104.932906 
L 105.471577 -105.64228 
L 106.267814 -105.865123 
L 107.064052 -105.71316 
L 107.860289 -105.270936 
L 108.656527 -104.559875 
L 109.452764 -103.566868 
L 110.249002 -102.30346 
L 111.04524 -100.839911 
L 111.841477 -99.289856 
L 112.637715 -97.765742 
L 113.433952 -96.334245 
L 114.23019 -94.983563 
L 115.026427 -93.617675 
L 115.822665 -92.112278 
L 116.618902 -90.443749 
L 117.41514 -88.830506 
L 118.211377 -87.778013 
L 119.007615 -87.956747 
L 119.803852 -89.948394 
L 120.60009 -93.98247 
L 121.396327 -99.785872 
L 122.192565 -106.594972 
L 122.988802 -113.309108 
L 123.78504 -118.748097 
L 124.581277 -121.974842 
L 125.377515 -122.602116 
L 126.173752 -120.946357 
L 126.96999 -117.911914 
L 127.766228 -114.622966 
L 128.562465 -111.975051 
L 129.358703 -110.323486 
L 130.15494 -109.442765 
L 130.951178 -108.743819 
L 131.747415 -107.611577 
L 132.543653 -105.699724 
L 133.33989 -103.085695 
L 134.136128 -100.258587 
L 134.932365 -97.949367 
L 135.728603 -96.854372 
L 136.52484 -97.353818 
L 137.321078 -99.343626 
L 138.117315 -102.247596 
L 138.913553 -105.188612 
L 139.70979 -107.23786 
L 140.506028 -107.66249 
L 141.302265 -106.118949 
L 142.098503 -102.753386 
L 142.89474 -98.169566 
L 143.690978 -93.241944 
L 144.487216 -88.821889 
L 145.283453 -85.468522 
L 146.079691 -83.342346 
L 146.875928 -82.298069 
L 147.672166 -82.076012 
L 148.468403 -82.443435 
L 149.264641 -83.226375 
L 150.060878 -84.288406 
L 150.857116 -85.523147 
L 151.653353 -86.862461 
L 152.449591 -88.269211 
L 153.245828 -89.714873 
L 154.042066 -91.177443 
L 154.838303 -92.676911 
L 155.634541 -94.314137 
L 156.430778 -96.255359 
L 157.227016 -98.642599 
L 158.023253 -101.478194 
L 158.819491 -104.563542 
L 159.615729 -107.53933 
L 160.411966 -110.011364 
L 161.208204 -111.700435 
L 162.004441 -112.551391 
L 162.800679 -112.765153 
L 163.596916 -112.751769 
L 164.393154 -113.02418 
L 165.189391 -114.05675 
L 165.985629 -116.134801 
L 166.781866 -119.239937 
L 167.578104 -123.039518 
L 168.374341 -127.026141 
L 169.170579 -130.764502 
L 169.966816 -134.108621 
L 170.763054 -137.250509 
L 171.559291 -140.579144 
L 172.355529 -144.453842 
L 173.151766 -149.02266 
L 173.948004 -154.150333 
L 174.744241 -159.437998 
L 175.540479 -164.295626 
L 176.336717 -168.068713 
L 177.132954 -170.232376 
L 177.929192 -170.608304 
L 178.725429 -169.50033 
L 179.521667 -167.657166 
L 180.317904 -166.056971 
L 181.114142 -165.60276 
L 181.910379 -166.851505 
L 182.706617 -169.865616 
L 183.502854 -174.216634 
L 184.299092 -179.128711 
L 185.095329 -183.719646 
L 185.891567 -187.26489 
L 186.687804 -189.390312 
L 187.484042 -190.124908 
L 188.280279 -189.811566 
L 189.076517 -188.939395 
L 189.872754 -187.975229 
L 190.668992 -187.232392 
L 191.46523 -186.778792 
L 192.261467 -186.403483 
L 193.057705 -185.683052 
L 193.853942 -184.157618 
L 194.65018 -181.558589 
L 195.446417 -177.981374 
L 196.242655 -173.897084 
L 197.038892 -169.976047 
L 197.83513 -166.816809 
L 198.631367 -164.730099 
L 199.427605 -163.67065 
L 200.223842 -163.314202 
L 201.02008 -163.221402 
L 201.816317 -163.021226 
L 202.612555 -162.555031 
L 203.408792 -161.928304 
L 204.20503 -161.436441 
L 205.001267 -161.385264 
L 205.797505 -161.898146 
L 206.593742 -162.821734 
L 207.38998 -163.77383 
L 208.186218 -164.283946 
L 208.982455 -163.947223 
L 209.778693 -162.550234 
L 210.57493 -160.162207 
L 211.371168 -157.175449 
L 212.167405 -154.238131 
L 212.963643 -152.032698 
L 213.75988 -150.969031 
L 214.556118 -150.973524 
L 215.352355 -151.513456 
L 216.148593 -151.843015 
L 216.94483 -151.332756 
L 217.741068 -149.721527 
L 218.537305 -147.197966 
L 219.333543 -144.310393 
L 220.12978 -141.76095 
L 220.926018 -140.16357 
L 221.722255 -139.851661 
L 222.518493 -140.803401 
L 223.31473 -142.70077 
L 224.110968 -145.078969 
L 224.907206 -147.492537 
L 225.703443 -149.634816 
L 226.499681 -151.378842 
L 227.295918 -152.739809 
L 228.092156 -153.790059 
L 228.888393 -154.579461 
L 229.684631 -155.108887 
L 230.480868 -155.368426 
L 231.277106 -155.405189 
L 232.073343 -155.362218 
L 232.869581 -155.445121 
L 233.665818 -155.819395 
L 234.462056 -156.488026 
L 235.258293 -157.220311 
L 236.054531 -157.584386 
L 236.850768 -157.08474 
L 237.647006 -155.354198 
L 238.443243 -152.331018 
L 239.239481 -148.363427 
L 240.035719 -144.200481 
L 240.831956 -140.84072 
L 241.628194 -139.248489 
L 242.424431 -140.021935 
L 243.220669 -143.155766 
L 244.016906 -148.017616 
L 244.813144 -153.552479 
L 245.609381 -158.620142 
L 246.405619 -162.330749 
L 247.201856 -164.281209 
L 247.998094 -164.644087 
L 248.794331 -164.083128 
L 249.590569 -163.50108 
L 250.386806 -163.699277 
L 251.183044 -165.088542 
L 251.979281 -167.565714 
L 252.775519 -170.576065 
L 253.571756 -173.306449 
L 254.367994 -174.944194 
L 255.164231 -174.949417 
L 255.960469 -173.267868 
L 256.756707 -170.385918 
L 257.552944 -167.173006 
L 258.349182 -164.575162 
L 259.145419 -163.3082 
L 259.941657 -163.670257 
L 260.737894 -165.506051 
L 261.534132 -168.300501 
L 262.330369 -171.368517 
L 263.126607 -174.090545 
L 263.922844 -176.10536 
L 264.719082 -177.367448 
L 265.515319 -178.051035 
L 266.311557 -178.38285 
L 267.107794 -178.511444 
L 267.904032 -178.459053 
L 268.700269 -178.138043 
L 269.496507 -177.407215 
L 270.292744 -176.159155 
L 271.088982 -174.415803 
L 271.88522 -172.378869 
L 272.681457 -170.390581 
L 273.477695 -168.81947 
L 274.273932 -167.940235 
L 275.07017 -167.869376 
L 275.866407 -168.562175 
L 276.662645 -169.840557 
L 277.458882 -171.434728 
L 278.25512 -173.04556 
L 279.051357 -174.427295 
L 279.847595 -175.46158 
L 280.643832 -176.176969 
L 281.44007 -176.692458 
L 282.236307 -177.122095 
L 283.032545 -177.517402 
L 283.828782 -177.89216 
L 284.62502 -178.289913 
L 285.421257 -178.806755 
L 286.217495 -179.534736 
L 287.013732 -180.488125 
L 287.80997 -181.593936 
L 288.606208 -182.748652 
L 289.402445 -183.869924 
L 290.198683 -184.897908 
L 290.99492 -185.780232 
L 291.791158 -186.4916 
L 292.587395 -187.079736 
L 293.383633 -187.67222 
L 294.17987 -188.39698 
L 294.976108 -189.255437 
L 295.772345 -190.046759 
L 296.568583 -190.404249 
L 297.36482 -189.925462 
L 298.161058 -188.341482 
L 298.957295 -185.674755 
L 299.753533 -182.329541 
L 300.54977 -179.046071 
L 301.346008 -176.683462 
L 302.142245 -175.899677 
L 302.938483 -176.882678 
L 303.73472 -179.261863 
L 304.530958 -182.218527 
L 305.327196 -184.729566 
L 306.123433 -185.86454 
L 306.919671 -185.069636 
L 307.715908 -182.3671 
L 308.512146 -178.385722 
L 309.308383 -174.166705 
L 310.104621 -170.792521 
L 310.900858 -169.003174 
L 311.697096 -168.977041 
L 312.493333 -170.344554 
L 313.289571 -172.377413 
L 314.085808 -174.243762 
L 314.882046 -175.244434 
L 315.678283 -174.987106 
L 316.474521 -173.472449 
L 317.270758 -171.067036 
L 318.066996 -168.362619 
L 318.863233 -165.976142 
L 319.659471 -164.378351 
L 320.455709 -163.80476 
L 321.251946 -164.237338 
L 322.048184 -165.418061 
L 322.844421 -166.88526 
L 323.640659 -168.061679 
L 324.436896 -168.410412 
L 325.233134 -167.612524 
L 326.029371 -165.67717 
L 326.825609 -162.934959 
L 327.621846 -159.944466 
L 328.418084 -157.36858 
L 329.214321 -155.847439 
L 330.010559 -155.867294 
L 330.806796 -157.632786 
L 331.603034 -160.979931 
L 332.399271 -165.383768 
L 333.195509 -170.088162 
L 333.991746 -174.323287 
L 334.787984 -177.522535 
L 335.584221 -179.450291 
L 336.380459 -180.204195 
L 337.176697 -180.113641 
L 337.972934 -179.584598 
L 338.769172 -178.943412 
L 339.565409 -178.327775 
L 340.361647 -177.665376 
L 341.157884 -176.755425 
L 341.954122 -175.42401 
L 342.750359 -173.678587 
L 343.546597 -171.775667 
L 344.342834 -170.157723 
L 345.139072 -169.285267 
L 345.935309 -169.441752 
L 346.731547 -170.597903 
L 347.527784 -172.390496 
L 348.324022 -174.220013 
L 349.120259 -175.42691 
L 349.916497 -175.488867 
L 350.712734 -174.185719 
L 351.508972 -171.688519 
L 352.30521 -168.53798 
L 353.101447 -165.502237 
L 353.897685 -163.354476 
L 354.693922 -162.655778 
L 355.49016 -163.624055 
L 356.286397 -166.11643 
L 357.082635 -169.699329 
L 357.878872 -173.765741 
L 358.67511 -177.673159 
L 359.471347 -180.880858 
L 360.267585 -183.055678 
L 361.063822 -184.116685 
L 361.86006 -184.213358 
L 362.656297 -183.660016 
L 363.452535 -182.852084 
L 364.248772 -182.173315 
L 365.04501 -181.900513 
L 365.841247 -182.130782 
L 366.637485 -182.763739 
L 367.433722 -183.545382 
L 368.22996 -184.144253 
L 369.026198 -184.226408 
L 369.822435 -183.525872 
L 370.618673 -181.925815 
L 371.41491 -179.541377 
L 372.211148 -176.752712 
L 373.007385 -174.132697 
L 373.803623 -172.270655 
L 374.59986 -171.564872 
L 375.396098 -172.077985 
L 376.192335 -173.510488 
L 376.988573 -175.289935 
L 377.78481 -176.738183 
L 378.581048 -177.26921 
L 379.377285 -176.566224 
L 380.173523 -174.677288 
L 380.96976 -171.979687 
L 381.765998 -169.020923 
L 382.562235 -166.31527 
L 383.358473 -164.198094 
L 384.15471 -162.794874 
L 384.950948 -162.086582 
L 385.747186 -162.001838 
L 386.543423 -162.473323 
L 387.339661 -163.44283 
L 388.135898 -164.835412 
L 388.932136 -166.524404 
L 389.728373 -168.302263 
L 390.524611 -169.874498 
L 391.320848 -170.895865 
L 392.117086 -171.052962 
L 392.913323 -170.167842 
L 393.709561 -168.272986 
L 394.505798 -165.610016 
L 395.302036 -162.541109 
L 396.098273 -159.414596 
L 396.894511 -156.455475 
L 397.690748 -153.732378 
L 398.486986 -151.201635 
L 399.283223 -148.791431 
L 400.079461 -146.485902 
L 400.875699 -144.385265 
L 401.671936 -142.726166 
L 402.468174 -141.843164 
L 403.264411 -142.060225 
L 404.060649 -143.537791 
L 404.856886 -146.147087 
L 405.653124 -149.449466 
L 406.449361 -152.807513 
L 407.245599 -155.584364 
L 408.041836 -157.349696 
L 408.838074 -158.015002 
L 409.634311 -157.849602 
L 410.430549 -157.371838 
L 411.226786 -157.162783 
L 412.023024 -157.689926 
L 412.819261 -159.217481 
L 413.615499 -161.815959 
L 413.615499 -264.47327 
L 413.615499 -264.47327 
L 412.819261 -261.63798 
L 412.023024 -259.927967 
L 411.226786 -259.252544 
L 410.430549 -259.279393 
L 409.634311 -259.500508 
L 408.838074 -259.355087 
L 408.041836 -258.374991 
L 407.245599 -256.321663 
L 406.449361 -253.276506 
L 405.653124 -249.645156 
L 404.856886 -246.059134 
L 404.060649 -243.200968 
L 403.264411 -241.610014 
L 402.468174 -241.530095 
L 401.671936 -242.846801 
L 400.875699 -245.143558 
L 400.079461 -247.870765 
L 399.283223 -250.563615 
L 398.486986 -253.00402 
L 397.690748 -255.245997 
L 396.894511 -257.502692 
L 396.098273 -259.969575 
L 395.302036 -262.682817 
L 394.505798 -265.473555 
L 393.709561 -268.015983 
L 392.913323 -269.929696 
L 392.117086 -270.894228 
L 391.320848 -270.744147 
L 390.524611 -269.51962 
L 389.728373 -267.456475 
L 388.932136 -264.920041 
L 388.135898 -262.311824 
L 387.339661 -259.991009 
L 386.543423 -258.241002 
L 385.747186 -257.276801 
L 384.950948 -257.255272 
L 384.15471 -258.250586 
L 383.358473 -260.199452 
L 382.562235 -262.863465 
L 381.765998 -265.852827 
L 380.96976 -268.709793 
L 380.173523 -271.012021 
L 379.377285 -272.456353 
L 378.581048 -272.910381 
L 377.78481 -272.439523 
L 376.988573 -271.309691 
L 376.192335 -269.943761 
L 375.396098 -268.817403 
L 374.59986 -268.3221 
L 373.803623 -268.655054 
L 373.007385 -269.780535 
L 372.211148 -271.461601 
L 371.41491 -273.331872 
L 370.618673 -274.983014 
L 369.822435 -276.064543 
L 369.026198 -276.388299 
L 368.22996 -275.998545 
L 367.433722 -275.158872 
L 366.637485 -274.248932 
L 365.841247 -273.623616 
L 365.04501 -273.506612 
L 364.248772 -273.951235 
L 363.452535 -274.848937 
L 362.656297 -275.95316 
L 361.86006 -276.913076 
L 361.063822 -277.332767 
L 360.267585 -276.859013 
L 359.471347 -275.275608 
L 358.67511 -272.576725 
L 357.878872 -269.0041 
L 357.082635 -265.037152 
L 356.286397 -261.319109 
L 355.49016 -258.513111 
L 354.693922 -257.121858 
L 353.897685 -257.339511 
L 353.101447 -258.996543 
L 352.30521 -261.611888 
L 351.508972 -264.522505 
L 350.712734 -267.049982 
L 349.916497 -268.670846 
L 349.120259 -269.153745 
L 348.324022 -268.61478 
L 347.527784 -267.457352 
L 346.731547 -266.21397 
L 345.935309 -265.358477 
L 345.139072 -265.166911 
L 344.342834 -265.672166 
L 343.546597 -266.710695 
L 342.750359 -268.022675 
L 341.954122 -269.355754 
L 341.157884 -270.535753 
L 340.361647 -271.490634 
L 339.565409 -272.227475 
L 338.769172 -272.769154 
L 337.972934 -273.072582 
L 337.176697 -272.97023 
L 336.380459 -272.180468 
L 335.584221 -270.404025 
L 334.787984 -267.471511 
L 333.991746 -263.469224 
L 333.195509 -258.777145 
L 332.399271 -254.001199 
L 331.603034 -249.831241 
L 330.806796 -246.873223 
L 330.010559 -245.496062 
L 329.214321 -245.728448 
L 328.418084 -247.242097 
L 327.621846 -249.445555 
L 326.825609 -251.670911 
L 326.029371 -253.383223 
L 325.233134 -254.318779 
L 324.436896 -254.492415 
L 323.640659 -254.096049 
L 322.844421 -253.382139 
L 322.048184 -252.611733 
L 321.251946 -252.057028 
L 320.455709 -251.991318 
L 319.659471 -252.630318 
L 318.863233 -254.05119 
L 318.066996 -256.139759 
L 317.270758 -258.592742 
L 316.474521 -260.96825 
L 315.678283 -262.773874 
L 314.882046 -263.596777 
L 314.085808 -263.265788 
L 313.289571 -261.98261 
L 312.493333 -260.329281 
L 311.697096 -259.108372 
L 310.900858 -259.06948 
L 310.104621 -260.640965 
L 309.308383 -263.771531 
L 308.512146 -267.920036 
L 307.715908 -272.177827 
L 306.919671 -275.499394 
L 306.123433 -277.014492 
L 305.327196 -276.344465 
L 304.530958 -273.782782 
L 303.73472 -270.223993 
L 302.938483 -266.850508 
L 302.142245 -264.717795 
L 301.346008 -264.421576 
L 300.54977 -265.96362 
L 299.753533 -268.819263 
L 298.957295 -272.14444 
L 298.161058 -275.056629 
L 297.36482 -276.919861 
L 296.568583 -277.533472 
L 295.772345 -277.138556 
L 294.976108 -276.246347 
L 294.17987 -275.390205 
L 293.383633 -274.920497 
L 292.587395 -274.903117 
L 291.791158 -275.125374 
L 290.99492 -275.200931 
L 290.198683 -274.75252 
L 289.402445 -273.599281 
L 288.606208 -271.841242 
L 287.80997 -269.784922 
L 287.013732 -267.766494 
L 286.217495 -266.006728 
L 285.421257 -264.589862 
L 284.62502 -263.53234 
L 283.828782 -262.836307 
L 283.032545 -262.477769 
L 282.236307 -262.372541 
L 281.44007 -262.378751 
L 280.643832 -262.332866 
L 279.847595 -262.076248 
L 279.051357 -261.461712 
L 278.25512 -260.376667 
L 277.458882 -258.81057 
L 276.662645 -256.935203 
L 275.866407 -255.124269 
L 275.07017 -253.862725 
L 274.273932 -253.568062 
L 273.477695 -254.413006 
L 272.681457 -256.247481 
L 271.88522 -258.654537 
L 271.088982 -261.095953 
L 270.292744 -263.077051 
L 269.496507 -264.281214 
L 268.700269 -264.643723 
L 267.904032 -264.336098 
L 267.107794 -263.650205 
L 266.311557 -262.826326 
L 265.515319 -261.922237 
L 264.719082 -260.806065 
L 263.922844 -259.267385 
L 263.126607 -257.164806 
L 262.330369 -254.533767 
L 261.534132 -251.630964 
L 260.737894 -248.91345 
L 259.941657 -246.935524 
L 259.145419 -246.163346 
L 258.349182 -246.772918 
L 257.552944 -248.538713 
L 256.756707 -250.876855 
L 255.960469 -253.01547 
L 255.164231 -254.214653 
L 254.367994 -253.977365 
L 253.571756 -252.21493 
L 252.775519 -249.308912 
L 251.979281 -246.001664 
L 251.183044 -243.12077 
L 250.386806 -241.253172 
L 249.590569 -240.523908 
L 248.794331 -240.566865 
L 247.998094 -240.670961 
L 247.201856 -240.032172 
L 246.405619 -238.04005 
L 245.609381 -234.520579 
L 244.813144 -229.840238 
L 244.016906 -224.808944 
L 243.220669 -220.417057 
L 242.424431 -217.527862 
L 241.628194 -216.643781 
L 240.831956 -217.798253 
L 240.035719 -220.570894 
L 239.239481 -224.210552 
L 238.443243 -227.84696 
L 237.647006 -230.742021 
L 236.850768 -232.489917 
L 236.054531 -233.079489 
L 235.258293 -232.80523 
L 234.462056 -232.092977 
L 233.665818 -231.330622 
L 232.869581 -230.762686 
L 232.073343 -230.461724 
L 231.277106 -230.35732 
L 230.480868 -230.292997 
L 229.684631 -230.086389 
L 228.888393 -229.577353 
L 228.092156 -228.655594 
L 227.295918 -227.2677 
L 226.499681 -225.412077 
L 225.703443 -223.137735 
L 224.907206 -220.559637 
L 224.110968 -217.886484 
L 223.31473 -215.433508 
L 222.518493 -213.586481 
L 221.722255 -212.708365 
L 220.926018 -213.017962 
L 220.12978 -214.491402 
L 219.333543 -216.831745 
L 218.537305 -219.530704 
L 217.741068 -222.016605 
L 216.94483 -223.842834 
L 216.148593 -224.838975 
L 215.352355 -225.156326 
L 214.556118 -225.196736 
L 213.75988 -225.469102 
L 212.963643 -226.426506 
L 212.167405 -228.313781 
L 211.371168 -231.046004 
L 210.57493 -234.165768 
L 209.778693 -236.954777 
L 208.982455 -238.716297 
L 208.186218 -239.099759 
L 207.38998 -238.269118 
L 206.593742 -236.814644 
L 205.797505 -235.472139 
L 205.001267 -234.814336 
L 204.20503 -235.060477 
L 203.408792 -236.053015 
L 202.612555 -237.369767 
L 201.816317 -238.518665 
L 201.02008 -239.154909 
L 200.223842 -239.24057 
L 199.427605 -239.069546 
L 198.631367 -239.138252 
L 197.83513 -239.925902 
L 197.038892 -241.694327 
L 196.242655 -244.392675 
L 195.446417 -247.681317 
L 194.65018 -251.03843 
L 193.853942 -253.913865 
L 193.057705 -255.909088 
L 192.261467 -256.934797 
L 191.46523 -257.260451 
L 190.668992 -257.398026 
L 189.872754 -257.847302 
L 189.076517 -258.81593 
L 188.280279 -260.06386 
L 187.484042 -260.972502 
L 186.687804 -260.809167 
L 185.891567 -259.048668 
L 185.095329 -255.607655 
L 184.299092 -250.914378 
L 183.502854 -245.805806 
L 182.706617 -241.288933 
L 181.910379 -238.233961 
L 181.114142 -237.094983 
L 180.317904 -237.759079 
L 179.521667 -239.581442 
L 178.725429 -241.58556 
L 177.929192 -242.746455 
L 177.132954 -242.265352 
L 176.336717 -239.771923 
L 175.540479 -235.412752 
L 174.744241 -229.7924 
L 173.948004 -223.758032 
L 173.151766 -218.084985 
L 172.355529 -213.199002 
L 171.559291 -209.082365 
L 170.763054 -205.405549 
L 169.966816 -201.781452 
L 169.170579 -197.983918 
L 168.374341 -194.033352 
L 167.578104 -190.158787 
L 166.781866 -186.706034 
L 165.985629 -184.03304 
L 165.189391 -182.387476 
L 164.393154 -181.778548 
L 163.596916 -181.907065 
L 162.800679 -182.221741 
L 162.004441 -182.102729 
L 161.208204 -181.088493 
L 160.411966 -179.032675 
L 159.615729 -176.123082 
L 158.819491 -172.772178 
L 158.023253 -169.447819 
L 157.227016 -166.524267 
L 156.430778 -164.200155 
L 155.634541 -162.483904 
L 154.838303 -161.223927 
L 154.042066 -160.169609 
L 153.245828 -159.059025 
L 152.449591 -157.713247 
L 151.653353 -156.092214 
L 150.857116 -154.279092 
L 150.060878 -152.414526 
L 149.264641 -150.649681 
L 148.468403 -149.168029 
L 147.672166 -148.243917 
L 146.875928 -148.245279 
L 146.079691 -149.526813 
L 145.283453 -152.268373 
L 144.487216 -156.366756 
L 143.690978 -161.424956 
L 142.89474 -166.801372 
L 142.098503 -171.687464 
L 141.302265 -175.23483 
L 140.506028 -176.762009 
L 139.70979 -176.001947 
L 138.913553 -173.266157 
L 138.117315 -169.404801 
L 137.321078 -165.544157 
L 136.52484 -162.707403 
L 135.728603 -161.485315 
L 134.932365 -161.887923 
L 134.136128 -163.4168 
L 133.33989 -165.31368 
L 132.543653 -166.890625 
L 131.747415 -167.817912 
L 130.951178 -168.246598 
L 130.15494 -168.698727 
L 129.358703 -169.772923 
L 128.562465 -171.818848 
L 127.766228 -174.738434 
L 126.96999 -177.978213 
L 126.173752 -180.683492 
L 125.377515 -181.942934 
L 124.581277 -181.052775 
L 123.78504 -177.749525 
L 122.988802 -172.354598 
L 122.192565 -165.749747 
L 121.396327 -159.136175 
L 120.60009 -153.647967 
L 119.803852 -149.996342 
L 119.007615 -148.312689 
L 118.211377 -148.231999 
L 117.41514 -149.126197 
L 116.618902 -150.35739 
L 115.822665 -151.466219 
L 115.026427 -152.26763 
L 114.23019 -152.848109 
L 113.433952 -153.463914 
L 112.637715 -154.371281 
L 111.841477 -155.669063 
L 111.04524 -157.24352 
L 110.249002 -158.838932 
L 109.452764 -160.188129 
L 108.656527 -161.111877 
L 107.860289 -161.545933 
L 107.064052 -161.511288 
L 106.267814 -161.060258 
L 105.471577 -160.223303 
L 104.675339 -158.98242 
L 103.879102 -157.298801 
L 103.082864 -155.193014 
L 102.286627 -152.821943 
L 101.490389 -150.480866 
L 100.694152 -148.514326 
L 99.897914 -147.194438 
L 99.101677 -146.64091 
L 98.305439 -146.807187 
L 97.509202 -147.507419 
L 96.712964 -148.459008 
L 95.916727 -149.343484 
L 95.120489 -149.89093 
L 94.324251 -149.958868 
L 93.528014 -149.561325 
L 92.731776 -148.835109 
L 91.935539 -147.963554 
L 91.139301 -147.082638 
L 90.343064 -146.20391 
L 89.546826 -145.218948 
L 88.750589 -144.024103 
L 87.954351 -142.684143 
L 87.158114 -141.476549 
L 86.361876 -140.731615 
L 85.565639 -140.558556 
L 84.769401 -140.694497 
L 83.973164 -140.635934 
L 83.176926 -139.936131 
L 82.380689 -138.422352 
L 81.584451 -136.209139 
L 80.788214 -133.589391 
L 79.991976 -130.973954 
L 79.195739 -128.890906 
L 78.399501 -127.890639 
L 77.603263 -128.310971 
L 76.807026 -130.073399 
L 76.010788 -132.708917 
L 75.214551 -135.587449 
L 74.418313 -138.141497 
L 73.622076 -139.946856 
L 72.825838 -140.711657 
L 72.029601 -140.29949 
L 71.233363 -138.796133 
L 70.437126 -136.502095 
L 69.640888 -133.793884 
L 68.844651 -130.978809 
L 68.048413 -128.307768 
L 67.252176 -126.091089 
L 66.455938 -124.715473 
L 65.659701 -124.497327 
L 64.863463 -125.506836 
L 64.067226 -127.52212 
L 63.270988 -130.118251 
L 62.47475 -132.784135 
L 61.678513 -135.017939 
L 60.882275 -136.43517 
L 60.086038 -136.889998 
L 59.2898 -136.51948 
L 58.493563 -135.633843 
L 57.697325 -134.524472 
L 56.901088 -133.364423 
L 56.10485 -132.260344 
L 55.308613 -131.339137 
L 54.512375 -130.749465 
L 53.716138 -130.573065 
L 52.9199 -130.740375 
L 52.123663 -131.039336 
L 51.327425 -131.204001 
L 50.531188 -131.015827 
L 49.73495 -130.381464 
L 48.938713 -129.369231 
L 48.142475 -128.183324 
L 47.346238 -127.087012 
L 46.55 -126.337929 
z
" style="stroke: #e41a1c; stroke-opacity: 0.3"/>
    </defs>
    <g clip-path="url(#pd5ad324cee)">
     <use xlink:href="#m358aaad562" x="0" y="360" style="fill: #e41a1c; fill-opacity: 0.3; stroke: #e41a1c; stroke-opacity: 0.3"/>
    </g>
   </g>
   <g id="PolyCollection_2">
    <defs>
     <path id="mb19bb47359" d="M 46.55 -136.580972 
L 46.55 -112.402405 
L 47.346238 -111.811475 
L 48.142475 -111.337124 
L 48.938713 -110.834936 
L 49.73495 -110.1639 
L 50.531188 -109.262564 
L 51.327425 -108.18633 
L 52.123663 -107.093768 
L 52.9199 -106.182673 
L 53.716138 -105.600164 
L 54.512375 -105.374209 
L 55.308613 -105.40659 
L 56.10485 -105.524652 
L 56.901088 -105.545504 
L 57.697325 -105.310316 
L 58.493563 -104.698733 
L 59.2898 -103.659529 
L 60.086038 -102.253491 
L 60.882275 -100.656708 
L 61.678513 -99.094146 
L 62.47475 -97.746179 
L 63.270988 -96.700692 
L 64.067226 -95.978237 
L 64.863463 -95.581583 
L 65.659701 -95.497386 
L 66.455938 -95.65463 
L 67.252176 -95.913777 
L 68.048413 -96.126868 
L 68.844651 -96.231372 
L 69.640888 -96.30031 
L 70.437126 -96.508174 
L 71.233363 -97.049279 
L 72.029601 -98.067101 
L 72.825838 -99.614345 
L 73.622076 -101.629812 
L 74.418313 -103.926759 
L 75.214551 -106.215414 
L 76.010788 -108.178744 
L 76.807026 -109.57105 
L 77.603263 -110.275869 
L 78.399501 -110.303416 
L 79.195739 -109.766156 
L 79.991976 -108.863985 
L 80.788214 -107.869464 
L 81.584451 -107.087109 
L 82.380689 -106.784376 
L 83.176926 -107.12506 
L 83.973164 -108.13754 
L 84.769401 -109.718425 
L 85.565639 -111.649419 
L 86.361876 -113.62074 
L 87.158114 -115.278423 
L 87.954351 -116.302069 
L 88.750589 -116.488453 
L 89.546826 -115.803763 
L 90.343064 -114.384767 
L 91.139301 -112.494631 
L 91.935539 -110.452214 
L 92.731776 -108.553674 
L 93.528014 -107.004499 
L 94.324251 -105.880188 
L 95.120489 -105.127884 
L 95.916727 -104.607212 
L 96.712964 -104.153315 
L 97.509202 -103.63792 
L 98.305439 -103.007847 
L 99.101677 -102.290259 
L 99.897914 -101.567071 
L 100.694152 -100.932645 
L 101.490389 -100.454886 
L 102.286627 -100.155444 
L 103.082864 -100.01372 
L 103.879102 -99.989322 
L 104.675339 -100.052949 
L 105.471577 -100.214947 
L 106.267814 -100.539721 
L 107.064052 -101.135053 
L 107.860289 -102.11325 
L 108.656527 -103.536246 
L 109.452764 -105.368428 
L 110.249002 -107.460063 
L 111.04524 -109.568944 
L 111.841477 -111.410284 
L 112.637715 -112.718304 
L 113.433952 -113.307235 
L 114.23019 -113.122222 
L 115.026427 -112.264995 
L 115.822665 -110.97593 
L 116.618902 -109.568889 
L 117.41514 -108.341666 
L 118.211377 -107.498312 
L 119.007615 -107.107594 
L 119.803852 -107.099328 
L 120.60009 -107.291342 
L 121.396327 -107.445644 
L 122.192565 -107.350493 
L 122.988802 -106.906316 
L 123.78504 -106.176689 
L 124.581277 -105.37278 
L 125.377515 -104.771736 
L 126.173752 -104.604082 
L 126.96999 -104.95745 
L 127.766228 -105.730933 
L 128.562465 -106.651341 
L 129.358703 -107.343799 
L 130.15494 -107.437231 
L 130.951178 -106.67577 
L 131.747415 -105.001394 
L 132.543653 -102.577259 
L 133.33989 -99.740571 
L 134.136128 -96.903761 
L 134.932365 -94.448489 
L 135.728603 -92.657437 
L 136.52484 -91.701207 
L 137.321078 -91.660732 
L 138.117315 -92.548125 
L 138.913553 -94.304009 
L 139.70979 -96.777596 
L 140.506028 -99.709279 
L 141.302265 -102.730004 
L 142.098503 -105.38442 
L 142.89474 -107.188015 
L 143.690978 -107.726609 
L 144.487216 -106.783805 
L 145.283453 -104.446999 
L 146.079691 -101.12905 
L 146.875928 -97.474382 
L 147.672166 -94.178815 
L 148.468403 -91.795064 
L 149.264641 -90.594284 
L 150.060878 -90.52469 
L 150.857116 -91.274328 
L 151.653353 -92.412973 
L 152.449591 -93.559986 
L 153.245828 -94.513065 
L 154.042066 -95.288815 
L 154.838303 -96.065356 
L 155.634541 -97.057603 
L 156.430778 -98.379459 
L 157.227016 -99.951775 
L 158.023253 -101.50282 
L 158.819491 -102.673274 
L 159.615729 -103.186986 
L 160.411966 -103.007679 
L 161.208204 -102.401241 
L 162.004441 -101.869167 
L 162.800679 -101.982676 
L 163.596916 -103.188785 
L 164.393154 -105.661564 
L 165.189391 -109.246263 
L 165.985629 -113.509891 
L 166.781866 -117.87905 
L 167.578104 -121.818345 
L 168.374341 -124.98676 
L 169.170579 -127.315058 
L 169.966816 -128.976074 
L 170.763054 -130.263736 
L 171.559291 -131.436669 
L 172.355529 -132.597026 
L 173.151766 -133.654824 
L 173.948004 -134.383962 
L 174.744241 -134.532866 
L 175.540479 -133.934993 
L 176.336717 -132.57625 
L 177.132954 -130.602481 
L 177.929192 -128.272696 
L 178.725429 -125.879808 
L 179.521667 -123.672199 
L 180.317904 -121.809713 
L 181.114142 -120.367454 
L 181.910379 -119.369759 
L 182.706617 -118.82148 
L 183.502854 -118.718387 
L 184.299092 -119.042598 
L 185.095329 -119.755469 
L 185.891567 -120.788054 
L 186.687804 -122.023105 
L 187.484042 -123.277327 
L 188.280279 -124.310178 
L 189.076517 -124.875756 
L 189.872754 -124.798488 
L 190.668992 -124.028707 
L 191.46523 -122.650035 
L 192.261467 -120.848233 
L 193.057705 -118.867703 
L 193.853942 -116.965387 
L 194.65018 -115.356828 
L 195.446417 -114.160744 
L 196.242655 -113.368224 
L 197.038892 -112.858134 
L 197.83513 -112.451138 
L 198.631367 -111.973121 
L 199.427605 -111.304227 
L 200.223842 -110.409406 
L 201.02008 -109.351939 
L 201.816317 -108.282421 
L 202.612555 -107.396011 
L 203.408792 -106.869381 
L 204.20503 -106.806182 
L 205.001267 -107.213971 
L 205.797505 -108.014015 
L 206.593742 -109.070536 
L 207.38998 -110.226988 
L 208.186218 -111.341524 
L 208.982455 -112.312066 
L 209.778693 -113.080678 
L 210.57493 -113.616332 
L 211.371168 -113.890586 
L 212.167405 -113.86781 
L 212.963643 -113.521988 
L 213.75988 -112.87132 
L 214.556118 -112.006295 
L 215.352355 -111.087765 
L 216.148593 -110.308656 
L 216.94483 -109.832691 
L 217.741068 -109.733101 
L 218.537305 -109.951796 
L 219.333543 -110.292289 
L 220.12978 -110.454615 
L 220.926018 -110.115478 
L 221.722255 -109.039573 
L 222.518493 -107.182934 
L 223.31473 -104.737482 
L 224.110968 -102.085057 
L 224.907206 -99.670931 
L 225.703443 -97.84348 
L 226.499681 -96.720012 
L 227.295918 -96.130313 
L 228.092156 -95.666619 
L 228.888393 -94.831618 
L 229.684631 -93.231067 
L 230.480868 -90.730899 
L 231.277106 -87.513153 
L 232.073343 -84.014139 
L 232.869581 -80.776914 
L 233.665818 -78.275182 
L 234.462056 -76.767283 
L 235.258293 -76.226867 
L 236.054531 -76.373063 
L 236.850768 -76.786877 
L 237.647006 -77.064552 
L 238.443243 -76.945685 
L 239.239481 -76.371919 
L 240.035719 -75.465898 
L 240.831956 -74.448719 
L 241.628194 -73.531509 
L 242.424431 -72.824971 
L 243.220669 -72.306908 
L 244.016906 -71.861348 
L 244.813144 -71.364073 
L 245.609381 -70.764978 
L 246.405619 -70.12407 
L 247.201856 -69.58685 
L 247.998094 -69.315076 
L 248.794331 -69.407875 
L 249.590569 -69.851308 
L 250.386806 -70.521667 
L 251.183044 -71.241308 
L 251.979281 -71.858317 
L 252.775519 -72.311136 
L 253.571756 -72.64931 
L 254.367994 -73.002498 
L 255.164231 -73.509335 
L 255.960469 -74.233077 
L 256.756707 -75.101582 
L 257.552944 -75.907378 
L 258.349182 -76.380245 
L 259.145419 -76.305585 
L 259.941657 -75.63236 
L 260.737894 -74.518434 
L 261.534132 -73.294414 
L 262.330369 -72.361074 
L 263.126607 -72.056311 
L 263.922844 -72.53707 
L 264.719082 -73.721388 
L 265.515319 -75.317614 
L 266.311557 -76.931646 
L 267.107794 -78.206466 
L 267.904032 -78.937591 
L 268.700269 -79.126721 
L 269.496507 -78.963448 
L 270.292744 -78.744082 
L 271.088982 -78.748583 
L 271.88522 -79.114959 
L 272.681457 -79.767982 
L 273.477695 -80.447112 
L 274.273932 -80.826458 
L 275.07017 -80.662536 
L 275.866407 -79.894831 
L 276.662645 -78.66442 
L 277.458882 -77.262619 
L 278.25512 -76.037694 
L 279.051357 -75.28336 
L 279.847595 -75.13522 
L 280.643832 -75.516808 
L 281.44007 -76.172749 
L 282.236307 -76.783893 
L 283.032545 -77.104994 
L 283.828782 -77.04981 
L 284.62502 -76.687646 
L 285.421257 -76.171301 
L 286.217495 -75.643802 
L 287.013732 -75.165226 
L 287.80997 -74.683242 
L 288.606208 -74.055371 
L 289.402445 -73.114136 
L 290.198683 -71.748425 
L 290.99492 -69.966736 
L 291.791158 -67.91823 
L 292.587395 -65.865779 
L 293.383633 -64.118059 
L 294.17987 -62.93527 
L 294.976108 -62.435667 
L 295.772345 -62.543374 
L 296.568583 -63.010541 
L 297.36482 -63.510573 
L 298.161058 -63.756387 
L 298.957295 -63.584579 
L 299.753533 -62.97556 
L 300.54977 -62.022587 
L 301.346008 -60.882435 
L 302.142245 -59.731984 
L 302.938483 -58.737933 
L 303.73472 -58.034207 
L 304.530958 -57.699341 
L 305.327196 -57.734404 
L 306.123433 -58.052705 
L 306.919671 -58.493919 
L 307.715908 -58.86336 
L 308.512146 -58.981306 
L 309.308383 -58.724001 
L 310.104621 -58.049226 
L 310.900858 -57.010013 
L 311.697096 -55.756431 
L 312.493333 -54.51476 
L 313.289571 -53.535854 
L 314.085808 -53.025403 
L 314.882046 -53.086985 
L 315.678283 -53.70357 
L 316.474521 -54.759145 
L 317.270758 -56.083155 
L 318.066996 -57.499083 
L 318.863233 -58.865994 
L 319.659471 -60.106582 
L 320.455709 -61.21557 
L 321.251946 -62.246565 
L 322.048184 -63.283738 
L 322.844421 -64.41068 
L 323.640659 -65.686036 
L 324.436896 -67.129342 
L 325.233134 -68.71707 
L 326.029371 -70.388001 
L 326.825609 -72.055408 
L 327.621846 -73.621797 
L 328.418084 -74.994627 
L 329.214321 -76.107451 
L 330.010559 -76.948378 
L 330.806796 -77.584309 
L 331.603034 -78.156823 
L 332.399271 -78.833271 
L 333.195509 -79.72706 
L 333.991746 -80.830563 
L 334.787984 -82.002676 
L 335.584221 -83.020352 
L 336.380459 -83.664961 
L 337.176697 -83.801239 
L 337.972934 -83.420782 
L 338.769172 -82.643101 
L 339.565409 -81.677338 
L 340.361647 -80.752642 
L 341.157884 -80.034367 
L 341.954122 -79.556303 
L 342.750359 -79.202212 
L 343.546597 -78.753157 
L 344.342834 -77.986583 
L 345.139072 -76.78663 
L 345.935309 -75.217335 
L 346.731547 -73.525093 
L 347.527784 -72.067951 
L 348.324022 -71.199729 
L 349.120259 -71.154491 
L 349.916497 -71.973459 
L 350.712734 -73.496412 
L 351.508972 -75.415422 
L 352.30521 -77.369752 
L 353.101447 -79.050443 
L 353.897685 -80.281684 
L 354.693922 -81.054574 
L 355.49016 -81.50642 
L 356.286397 -81.85801 
L 357.082635 -82.333094 
L 357.878872 -83.084691 
L 358.67511 -84.146436 
L 359.471347 -85.418573 
L 360.267585 -86.689103 
L 361.063822 -87.683985 
L 361.86006 -88.136109 
L 362.656297 -87.859708 
L 363.452535 -86.813107 
L 364.248772 -85.130719 
L 365.04501 -83.111328 
L 365.841247 -81.163033 
L 366.637485 -79.719442 
L 367.433722 -79.144824 
L 368.22996 -79.645778 
L 369.026198 -81.208606 
L 369.822435 -83.585739 
L 370.618673 -86.347985 
L 371.41491 -88.995451 
L 372.211148 -91.09258 
L 373.007385 -92.380637 
L 373.803623 -92.830855 
L 374.59986 -92.623515 
L 375.396098 -92.060907 
L 376.192335 -91.442536 
L 376.988573 -90.947059 
L 377.78481 -90.567788 
L 378.581048 -90.129321 
L 379.377285 -89.376921 
L 380.173523 -88.098915 
L 380.96976 -86.231993 
L 381.765998 -83.910474 
L 382.562235 -81.443719 
L 383.358473 -79.232896 
L 384.15471 -77.659983 
L 384.950948 -76.989324 
L 385.747186 -77.310831 
L 386.543423 -78.531195 
L 387.339661 -80.402364 
L 388.135898 -82.572124 
L 388.932136 -84.645536 
L 389.728373 -86.247385 
L 390.524611 -87.075193 
L 391.320848 -86.93659 
L 392.117086 -85.772894 
L 392.913323 -83.675376 
L 393.709561 -80.894508 
L 394.505798 -77.83102 
L 395.302036 -74.990131 
L 396.098273 -72.887573 
L 396.894511 -71.922132 
L 397.690748 -72.259246 
L 398.486986 -73.779399 
L 399.283223 -76.12084 
L 400.079461 -78.8025 
L 400.875699 -81.376346 
L 401.671936 -83.550654 
L 402.468174 -85.246732 
L 403.264411 -86.581146 
L 404.060649 -87.786472 
L 404.856886 -89.095736 
L 405.653124 -90.629315 
L 406.449361 -92.332756 
L 407.245599 -94.000392 
L 408.041836 -95.378017 
L 408.838074 -96.294488 
L 409.634311 -96.757545 
L 410.430549 -96.970617 
L 411.226786 -97.266006 
L 412.023024 -97.982843 
L 412.819261 -99.335652 
L 413.615499 -101.322961 
L 413.615499 -158.168473 
L 413.615499 -158.168473 
L 412.819261 -156.238274 
L 412.023024 -154.939547 
L 411.226786 -154.27566 
L 410.430549 -154.014232 
L 409.634311 -153.781978 
L 408.838074 -153.215977 
L 408.041836 -152.101865 
L 407.245599 -150.440468 
L 406.449361 -148.423103 
L 405.653124 -146.336431 
L 404.856886 -144.439495 
L 404.060649 -142.857767 
L 403.264411 -141.531479 
L 402.468174 -140.242204 
L 401.671936 -138.715348 
L 400.875699 -136.758871 
L 400.079461 -134.373608 
L 399.283223 -131.783404 
L 398.486986 -129.376973 
L 397.690748 -127.594482 
L 396.894511 -126.804547 
L 396.098273 -127.206406 
L 395.302036 -128.775253 
L 394.505798 -131.257874 
L 393.709561 -134.220119 
L 392.913323 -137.139389 
L 392.117086 -139.520292 
L 391.320848 -140.998516 
L 390.524611 -141.402543 
L 389.728373 -140.763208 
L 388.932136 -139.282606 
L 388.135898 -137.283755 
L 387.339661 -135.156964 
L 386.543423 -133.306338 
L 385.747186 -132.091226 
L 384.950948 -131.763089 
L 384.15471 -132.412059 
L 383.358473 -133.944689 
L 382.562235 -136.106766 
L 381.765998 -138.547581 
L 380.96976 -140.908082 
L 380.173523 -142.908282 
L 379.377285 -144.408992 
L 378.581048 -145.428287 
L 377.78481 -146.106099 
L 376.988573 -146.628792 
L 376.192335 -147.140144 
L 375.396098 -147.669971 
L 374.59986 -148.106261 
L 373.803623 -148.224258 
L 373.007385 -147.767896 
L 372.211148 -146.558244 
L 371.41491 -144.586961 
L 370.618673 -142.054972 
L 369.822435 -139.339828 
L 369.026198 -136.904008 
L 368.22996 -135.174349 
L 367.433722 -134.427662 
L 366.637485 -134.715707 
L 365.841247 -135.854715 
L 365.04501 -137.484791 
L 364.248772 -139.176959 
L 363.452535 -140.54685 
L 362.656297 -141.337403 
L 361.86006 -141.454875 
L 361.063822 -140.961387 
L 360.267585 -140.036583 
L 359.471347 -138.919887 
L 358.67511 -137.844383 
L 357.878872 -136.975068 
L 357.082635 -136.365192 
L 356.286397 -135.942255 
L 355.49016 -135.530131 
L 354.693922 -134.905723 
L 353.897685 -133.877114 
L 353.101447 -132.360437 
L 352.30521 -130.429835 
L 351.508972 -128.320461 
L 350.712734 -126.377414 
L 349.916497 -124.960482 
L 349.120259 -124.33272 
L 348.324022 -124.572826 
L 347.527784 -125.547043 
L 346.731547 -126.953647 
L 345.935309 -128.423452 
L 345.139072 -129.638687 
L 344.342834 -130.427705 
L 343.546597 -130.804273 
L 342.750359 -130.94141 
L 341.954122 -131.091309 
L 341.157884 -131.480481 
L 340.361647 -132.216251 
L 339.565409 -133.237533 
L 338.769172 -134.330091 
L 337.972934 -135.204542 
L 337.176697 -135.608656 
L 336.380459 -135.425771 
L 335.584221 -134.713368 
L 334.787984 -133.665021 
L 333.991746 -132.520974 
L 333.195509 -131.477309 
L 332.399271 -130.632835 
L 331.603034 -129.979803 
L 330.806796 -129.423108 
L 330.010559 -128.81441 
L 329.214321 -127.99834 
L 328.418084 -126.866064 
L 327.621846 -125.398255 
L 326.825609 -123.674687 
L 326.029371 -121.843416 
L 325.233134 -120.065772 
L 324.436896 -118.464793 
L 323.640659 -117.096626 
L 322.844421 -115.948007 
L 322.048184 -114.951066 
L 321.251946 -114.006242 
L 320.455709 -113.007967 
L 319.659471 -111.86974 
L 318.863233 -110.546228 
L 318.066996 -109.051276 
L 317.270758 -107.468915 
L 316.474521 -105.949972 
L 315.678283 -104.685723 
L 314.882046 -103.860056 
L 314.085808 -103.59647 
L 313.289571 -103.921637 
L 312.493333 -104.756186 
L 311.697096 -105.92927 
L 310.900858 -107.210439 
L 310.104621 -108.357615 
L 309.308383 -109.17737 
L 308.512146 -109.57865 
L 307.715908 -109.593634 
L 306.919671 -109.354832 
L 306.123433 -109.044458 
L 305.327196 -108.844224 
L 304.530958 -108.901253 
L 303.73472 -109.305903 
L 302.938483 -110.072369 
L 302.142245 -111.124052 
L 301.346008 -112.296871 
L 300.54977 -113.371868 
L 299.753533 -114.13504 
L 298.957295 -114.446943 
L 298.161058 -114.294954 
L 297.36482 -113.804075 
L 296.568583 -113.201496 
L 295.772345 -112.75402 
L 294.976108 -112.705133 
L 294.17987 -113.223342 
L 293.383633 -114.36018 
L 292.587395 -116.02363 
L 291.791158 -117.987296 
L 290.99492 -119.951628 
L 290.198683 -121.644005 
L 289.402445 -122.912911 
L 288.606208 -123.768443 
L 287.80997 -124.350749 
L 287.013732 -124.844911 
L 286.217495 -125.382766 
L 285.421257 -125.976157 
L 284.62502 -126.514201 
L 283.828782 -126.828616 
L 283.032545 -126.794095 
L 282.236307 -126.40942 
L 281.44007 -125.818277 
L 280.643832 -125.26739 
L 279.847595 -125.028104 
L 279.051357 -125.30688 
L 278.25512 -126.162307 
L 277.458882 -127.455403 
L 276.662645 -128.870382 
L 275.866407 -130.021351 
L 275.07017 -130.606425 
L 274.273932 -130.531092 
L 273.477695 -129.936227 
L 272.681457 -129.124614 
L 271.88522 -128.431893 
L 271.088982 -128.098469 
L 270.292744 -128.179547 
L 269.496507 -128.51642 
L 268.700269 -128.786861 
L 267.904032 -128.63214 
L 267.107794 -127.816497 
L 266.311557 -126.344923 
L 265.515319 -124.479854 
L 264.719082 -122.649289 
L 263.922844 -121.291394 
L 263.126607 -120.701226 
L 262.330369 -120.934167 
L 261.534132 -121.796153 
L 260.737894 -122.922604 
L 259.941657 -123.916289 
L 259.145419 -124.487125 
L 258.349182 -124.535211 
L 257.552944 -124.148746 
L 256.756707 -123.531331 
L 255.960469 -122.899069 
L 255.164231 -122.38956 
L 254.367994 -122.013196 
L 253.571756 -121.663674 
L 252.775519 -121.185239 
L 251.979281 -120.467703 
L 251.183044 -119.521752 
L 250.386806 -118.494585 
L 249.590569 -117.617597 
L 248.794331 -117.11266 
L 247.998094 -117.101056 
L 247.201856 -117.554139 
L 246.405619 -118.306591 
L 245.609381 -119.127144 
L 244.813144 -119.81585 
L 244.016906 -120.283638 
L 243.220669 -120.578447 
L 242.424431 -120.848542 
L 241.628194 -121.260797 
L 240.831956 -121.908821 
L 240.035719 -122.750622 
L 239.239481 -123.60907 
L 238.443243 -124.246261 
L 237.647006 -124.486203 
L 236.850768 -124.328119 
L 236.054531 -123.99029 
L 235.258293 -123.8574 
L 234.462056 -124.348931 
L 233.665818 -125.758143 
L 232.869581 -128.123249 
L 232.073343 -131.185882 
L 231.277106 -134.463542 
L 230.480868 -137.414987 
L 229.684631 -139.63157 
L 228.888393 -140.974772 
L 228.092156 -141.609538 
L 227.295918 -141.931243 
L 226.499681 -142.419833 
L 225.703443 -143.471077 
L 224.907206 -145.259496 
L 224.110968 -147.681419 
L 223.31473 -150.399649 
L 222.518493 -152.969361 
L 221.722255 -154.99167 
L 220.926018 -156.23727 
L 220.12978 -156.703135 
L 219.333543 -156.591371 
L 218.537305 -156.222268 
L 217.741068 -155.914746 
L 216.94483 -155.881947 
L 216.148593 -156.184265 
L 215.352355 -156.751777 
L 214.556118 -157.450745 
L 213.75988 -158.149805 
L 212.963643 -158.753265 
L 212.167405 -159.197901 
L 211.371168 -159.432942 
L 210.57493 -159.406561 
L 209.778693 -159.069694 
L 208.982455 -158.393816 
L 208.186218 -157.393197 
L 207.38998 -156.142111 
L 206.593742 -154.779242 
L 205.797505 -153.49245 
L 205.001267 -152.480642 
L 204.20503 -151.900995 
L 203.408792 -151.823762 
L 202.612555 -152.217118 
L 201.816317 -152.966736 
L 201.02008 -153.915026 
L 200.223842 -154.902218 
L 199.427605 -155.802968 
L 198.631367 -156.557531 
L 197.83513 -157.188358 
L 197.038892 -157.788181 
L 196.242655 -158.481106 
L 195.446417 -159.378201 
L 194.65018 -160.547255 
L 193.853942 -161.996384 
L 193.057705 -163.660734 
L 192.261467 -165.394762 
L 191.46523 -166.988702 
L 190.668992 -168.220113 
L 189.872754 -168.920729 
L 189.076517 -169.021801 
L 188.280279 -168.560276 
L 187.484042 -167.659341 
L 186.687804 -166.502734 
L 185.891567 -165.303689 
L 185.095329 -164.262207 
L 184.299092 -163.521756 
L 183.502854 -163.153293 
L 182.706617 -163.181253 
L 181.910379 -163.629351 
L 181.114142 -164.543555 
L 180.317904 -165.969422 
L 179.521667 -167.899733 
L 178.725429 -170.229288 
L 177.929192 -172.743531 
L 177.132954 -175.146941 
L 176.336717 -177.124688 
L 175.540479 -178.423445 
L 174.744241 -178.925499 
L 173.948004 -178.682229 
L 173.151766 -177.883699 
L 172.355529 -176.771459 
L 171.559291 -175.531629 
L 170.763054 -174.214142 
L 169.966816 -172.709774 
L 169.170579 -170.794255 
L 168.374341 -168.226909 
L 167.578104 -164.873154 
L 166.781866 -160.807299 
L 165.985629 -156.350834 
L 165.189391 -152.017552 
L 164.393154 -148.37095 
L 163.596916 -145.8401 
L 162.800679 -144.567349 
L 162.004441 -144.35526 
L 161.208204 -144.738697 
L 160.411966 -145.150803 
L 159.615729 -145.111852 
L 158.819491 -144.368954 
L 158.023253 -142.944775 
L 157.227016 -141.090632 
L 156.430778 -139.166418 
L 155.634541 -137.489774 
L 154.838303 -136.211737 
L 154.042066 -135.273321 
L 153.245828 -134.466323 
L 152.449591 -133.570823 
L 151.653353 -132.50191 
L 150.857116 -131.394046 
L 150.060878 -130.582755 
L 149.264641 -130.488273 
L 148.468403 -131.445477 
L 147.672166 -133.548592 
L 146.875928 -136.577141 
L 146.079691 -140.03502 
L 145.283453 -143.282338 
L 144.487216 -145.70357 
L 143.690978 -146.855866 
L 142.89474 -146.563916 
L 142.098503 -144.945471 
L 141.302265 -142.36189 
L 140.506028 -139.307582 
L 139.70979 -136.279765 
L 138.913553 -133.681438 
L 138.117315 -131.788592 
L 137.321078 -130.768003 
L 136.52484 -130.703065 
L 135.728603 -131.595769 
L 134.932365 -133.348202 
L 134.136128 -135.749154 
L 133.33989 -138.485669 
L 132.543653 -141.182449 
L 131.747415 -143.462483 
L 130.951178 -145.020385 
L 130.15494 -145.695792 
L 129.358703 -145.524368 
L 128.562465 -144.739612 
L 127.766228 -143.710517 
L 126.96999 -142.828346 
L 126.173752 -142.383103 
L 125.377515 -142.478891 
L 124.581277 -143.020033 
L 123.78504 -143.76678 
L 122.988802 -144.431543 
L 122.192565 -144.779356 
L 121.396327 -144.705277 
L 120.60009 -144.271074 
L 119.803852 -143.688487 
L 119.007615 -143.246353 
L 118.211377 -143.201208 
L 117.41514 -143.674945 
L 116.618902 -144.605983 
L 115.822665 -145.771921 
L 115.026427 -146.862788 
L 114.23019 -147.567544 
L 113.433952 -147.648472 
L 112.637715 -146.994055 
L 111.841477 -145.642924 
L 111.04524 -143.768908 
L 110.249002 -141.627124 
L 109.452764 -139.480355 
L 108.656527 -137.535511 
L 107.860289 -135.910488 
L 107.064052 -134.633137 
L 106.267814 -133.66312 
L 105.471577 -132.926496 
L 104.675339 -132.354461 
L 103.879102 -131.916167 
L 103.082864 -131.632187 
L 102.286627 -131.559363 
L 101.490389 -131.750926 
L 100.694152 -132.211252 
L 99.897914 -132.870183 
L 99.101677 -133.592407 
L 98.305439 -134.219623 
L 97.509202 -134.629132 
L 96.712964 -134.786585 
L 95.916727 -134.771708 
L 95.120489 -134.764098 
L 94.324251 -134.989295 
L 93.528014 -135.640505 
L 92.731776 -136.801338 
L 91.935539 -138.395775 
L 91.139301 -140.184144 
L 90.343064 -141.811527 
L 89.546826 -142.898061 
L 88.750589 -143.142414 
L 87.954351 -142.402719 
L 87.158114 -140.731173 
L 86.361876 -138.360301 
L 85.565639 -135.653872 
L 84.769401 -133.033785 
L 83.973164 -130.889148 
L 83.176926 -129.483099 
L 82.380689 -128.891757 
L 81.584451 -129.004099 
L 80.788214 -129.572953 
L 79.991976 -130.27947 
L 79.195739 -130.789482 
L 78.399501 -130.810192 
L 77.603263 -130.156174 
L 76.807026 -128.803886 
L 76.010788 -126.895531 
L 75.214551 -124.677779 
L 74.418313 -122.414426 
L 73.622076 -120.329722 
L 72.825838 -118.588776 
L 72.029601 -117.280801 
L 71.233363 -116.399139 
L 70.437126 -115.84781 
L 69.640888 -115.48928 
L 68.844651 -115.205401 
L 68.048413 -114.928229 
L 67.252176 -114.631328 
L 66.455938 -114.320209 
L 65.659701 -114.053301 
L 64.863463 -113.965313 
L 64.067226 -114.238256 
L 63.270988 -115.009195 
L 62.47475 -116.276544 
L 61.678513 -117.890685 
L 60.882275 -119.634422 
L 60.086038 -121.312864 
L 59.2898 -122.789 
L 58.493563 -123.972727 
L 57.697325 -124.815685 
L 56.901088 -125.339341 
L 56.10485 -125.658401 
L 55.308613 -125.94936 
L 54.512375 -126.374294 
L 53.716138 -127.020465 
L 52.9199 -127.8941 
L 52.123663 -128.94996 
L 51.327425 -130.120134 
L 50.531188 -131.329793 
L 49.73495 -132.510131 
L 48.938713 -133.616447 
L 48.142475 -134.641955 
L 47.346238 -135.614724 
L 46.55 -136.580972 
z
" style="stroke: #377eb8; stroke-opacity: 0.3"/>
    </defs>
    <g clip-path="url(#pd5ad324cee)">
     <use xlink:href="#mb19bb47359" x="0" y="360" style="fill: #377eb8; fill-opacity: 0.3; stroke: #377eb8; stroke-opacity: 0.3"/>
    </g>
   </g>
   <g id="patch_3">
    <path d="M 229.843878 318.2 
L 229.843878 71.241125 
L 331.762281 71.241125 
L 331.762281 318.2 
z
" clip-path="url(#pd5ad324cee)" style="fill: #808080; opacity: 0.3"/>
   </g>
   <g id="matplotlib.axis_1">
    <g id="xtick_1">
     <g id="line2d_1">
      <defs>
       <path id="m24ce6be69e" d="M 0 0 
L 0 3.5 
" style="stroke: #000000; stroke-width: 0.8"/>
      </defs>
      <g>
       <use xlink:href="#m24ce6be69e" x="87.158114" y="318.2" style="stroke: #000000; stroke-width: 0.8"/>
      </g>
     </g>
     <g id="text_1">
      <!-- 0.0 -->
      <g transform="translate(79.206551 332.798437)scale(0.1 -0.1)">
       <defs>
        <path id="DejaVuSans-30" d="M 2034 4250 
Q 1547 4250 1301 3770 
Q 1056 3291 1056 2328 
Q 1056 1369 1301 889 
Q 1547 409 2034 409 
Q 2525 409 2770 889 
Q 3016 1369 3016 2328 
Q 3016 3291 2770 3770 
Q 2525 4250 2034 4250 
z
M 2034 4750 
Q 2819 4750 3233 4129 
Q 3647 3509 3647 2328 
Q 3647 1150 3233 529 
Q 2819 -91 2034 -91 
Q 1250 -91 836 529 
Q 422 1150 422 2328 
Q 422 3509 836 4129 
Q 1250 4750 2034 4750 
z
" transform="scale(0.015625)"/>
        <path id="DejaVuSans-2e" d="M 684 794 
L 1344 794 
L 1344 0 
L 684 0 
L 684 794 
z
" transform="scale(0.015625)"/>
       </defs>
       <use xlink:href="#DejaVuSans-30"/>
       <use xlink:href="#DejaVuSans-2e" x="63.623047"/>
       <use xlink:href="#DejaVuSans-30" x="95.410156"/>
      </g>
     </g>
    </g>
    <g id="xtick_2">
     <g id="line2d_2">
      <g>
       <use xlink:href="#m24ce6be69e" x="168.692836" y="318.2" style="stroke: #000000; stroke-width: 0.8"/>
      </g>
     </g>
     <g id="text_2">
      <!-- 0.2 -->
      <g transform="translate(160.741274 332.798437)scale(0.1 -0.1)">
       <defs>
        <path id="DejaVuSans-32" d="M 1228 531 
L 3431 531 
L 3431 0 
L 469 0 
L 469 531 
Q 828 903 1448 1529 
Q 2069 2156 2228 2338 
Q 2531 2678 2651 2914 
Q 2772 3150 2772 3378 
Q 2772 3750 2511 3984 
Q 2250 4219 1831 4219 
Q 1534 4219 1204 4116 
Q 875 4013 500 3803 
L 500 4441 
Q 881 4594 1212 4672 
Q 1544 4750 1819 4750 
Q 2544 4750 2975 4387 
Q 3406 4025 3406 3419 
Q 3406 3131 3298 2873 
Q 3191 2616 2906 2266 
Q 2828 2175 2409 1742 
Q 1991 1309 1228 531 
z
" transform="scale(0.015625)"/>
       </defs>
       <use xlink:href="#DejaVuSans-30"/>
       <use xlink:href="#DejaVuSans-2e" x="63.623047"/>
       <use xlink:href="#DejaVuSans-32" x="95.410156"/>
      </g>
     </g>
    </g>
    <g id="xtick_3">
     <g id="line2d_3">
      <g>
       <use xlink:href="#m24ce6be69e" x="250.227559" y="318.2" style="stroke: #000000; stroke-width: 0.8"/>
      </g>
     </g>
     <g id="text_3">
      <!-- 0.4 -->
      <g transform="translate(242.275996 332.798437)scale(0.1 -0.1)">
       <defs>
        <path id="DejaVuSans-34" d="M 2419 4116 
L 825 1625 
L 2419 1625 
L 2419 4116 
z
M 2253 4666 
L 3047 4666 
L 3047 1625 
L 3713 1625 
L 3713 1100 
L 3047 1100 
L 3047 0 
L 2419 0 
L 2419 1100 
L 313 1100 
L 313 1709 
L 2253 4666 
z
" transform="scale(0.015625)"/>
       </defs>
       <use xlink:href="#DejaVuSans-30"/>
       <use xlink:href="#DejaVuSans-2e" x="63.623047"/>
       <use xlink:href="#DejaVuSans-34" x="95.410156"/>
      </g>
     </g>
    </g>
    <g id="xtick_4">
     <g id="line2d_4">
      <g>
       <use xlink:href="#m24ce6be69e" x="331.762281" y="318.2" style="stroke: #000000; stroke-width: 0.8"/>
      </g>
     </g>
     <g id="text_4">
      <!-- 0.6 -->
      <g transform="translate(323.810719 332.798437)scale(0.1 -0.1)">
       <defs>
        <path id="DejaVuSans-36" d="M 2113 2584 
Q 1688 2584 1439 2293 
Q 1191 2003 1191 1497 
Q 1191 994 1439 701 
Q 1688 409 2113 409 
Q 2538 409 2786 701 
Q 3034 994 3034 1497 
Q 3034 2003 2786 2293 
Q 2538 2584 2113 2584 
z
M 3366 4563 
L 3366 3988 
Q 3128 4100 2886 4159 
Q 2644 4219 2406 4219 
Q 1781 4219 1451 3797 
Q 1122 3375 1075 2522 
Q 1259 2794 1537 2939 
Q 1816 3084 2150 3084 
Q 2853 3084 3261 2657 
Q 3669 2231 3669 1497 
Q 3669 778 3244 343 
Q 2819 -91 2113 -91 
Q 1303 -91 875 529 
Q 447 1150 447 2328 
Q 447 3434 972 4092 
Q 1497 4750 2381 4750 
Q 2619 4750 2861 4703 
Q 3103 4656 3366 4563 
z
" transform="scale(0.015625)"/>
       </defs>
       <use xlink:href="#DejaVuSans-30"/>
       <use xlink:href="#DejaVuSans-2e" x="63.623047"/>
       <use xlink:href="#DejaVuSans-36" x="95.410156"/>
      </g>
     </g>
    </g>
    <g id="xtick_5">
     <g id="line2d_5">
      <g>
       <use xlink:href="#m24ce6be69e" x="413.297004" y="318.2" style="stroke: #000000; stroke-width: 0.8"/>
      </g>
     </g>
     <g id="text_5">
      <!-- 0.8 -->
      <g transform="translate(405.345441 332.798437)scale(0.1 -0.1)">
       <defs>
        <path id="DejaVuSans-38" d="M 2034 2216 
Q 1584 2216 1326 1975 
Q 1069 1734 1069 1313 
Q 1069 891 1326 650 
Q 1584 409 2034 409 
Q 2484 409 2743 651 
Q 3003 894 3003 1313 
Q 3003 1734 2745 1975 
Q 2488 2216 2034 2216 
z
M 1403 2484 
Q 997 2584 770 2862 
Q 544 3141 544 3541 
Q 544 4100 942 4425 
Q 1341 4750 2034 4750 
Q 2731 4750 3128 4425 
Q 3525 4100 3525 3541 
Q 3525 3141 3298 2862 
Q 3072 2584 2669 2484 
Q 3125 2378 3379 2068 
Q 3634 1759 3634 1313 
Q 3634 634 3220 271 
Q 2806 -91 2034 -91 
Q 1263 -91 848 271 
Q 434 634 434 1313 
Q 434 1759 690 2068 
Q 947 2378 1403 2484 
z
M 1172 3481 
Q 1172 3119 1398 2916 
Q 1625 2713 2034 2713 
Q 2441 2713 2670 2916 
Q 2900 3119 2900 3481 
Q 2900 3844 2670 4047 
Q 2441 4250 2034 4250 
Q 1625 4250 1398 4047 
Q 1172 3844 1172 3481 
z
" transform="scale(0.015625)"/>
       </defs>
       <use xlink:href="#DejaVuSans-30"/>
       <use xlink:href="#DejaVuSans-2e" x="63.623047"/>
       <use xlink:href="#DejaVuSans-38" x="95.410156"/>
      </g>
     </g>
    </g>
    <g id="text_6">
     <!-- seconds -->
     <g transform="translate(209.645249 346.476562)scale(0.1 -0.1)">
      <defs>
       <path id="DejaVuSans-73" d="M 2834 3397 
L 2834 2853 
Q 2591 2978 2328 3040 
Q 2066 3103 1784 3103 
Q 1356 3103 1142 2972 
Q 928 2841 928 2578 
Q 928 2378 1081 2264 
Q 1234 2150 1697 2047 
L 1894 2003 
Q 2506 1872 2764 1633 
Q 3022 1394 3022 966 
Q 3022 478 2636 193 
Q 2250 -91 1575 -91 
Q 1294 -91 989 -36 
Q 684 19 347 128 
L 347 722 
Q 666 556 975 473 
Q 1284 391 1588 391 
Q 1994 391 2212 530 
Q 2431 669 2431 922 
Q 2431 1156 2273 1281 
Q 2116 1406 1581 1522 
L 1381 1569 
Q 847 1681 609 1914 
Q 372 2147 372 2553 
Q 372 3047 722 3315 
Q 1072 3584 1716 3584 
Q 2034 3584 2315 3537 
Q 2597 3491 2834 3397 
z
" transform="scale(0.015625)"/>
       <path id="DejaVuSans-65" d="M 3597 1894 
L 3597 1613 
L 953 1613 
Q 991 1019 1311 708 
Q 1631 397 2203 397 
Q 2534 397 2845 478 
Q 3156 559 3463 722 
L 3463 178 
Q 3153 47 2828 -22 
Q 2503 -91 2169 -91 
Q 1331 -91 842 396 
Q 353 884 353 1716 
Q 353 2575 817 3079 
Q 1281 3584 2069 3584 
Q 2775 3584 3186 3129 
Q 3597 2675 3597 1894 
z
M 3022 2063 
Q 3016 2534 2758 2815 
Q 2500 3097 2075 3097 
Q 1594 3097 1305 2825 
Q 1016 2553 972 2059 
L 3022 2063 
z
" transform="scale(0.015625)"/>
       <path id="DejaVuSans-63" d="M 3122 3366 
L 3122 2828 
Q 2878 2963 2633 3030 
Q 2388 3097 2138 3097 
Q 1578 3097 1268 2742 
Q 959 2388 959 1747 
Q 959 1106 1268 751 
Q 1578 397 2138 397 
Q 2388 397 2633 464 
Q 2878 531 3122 666 
L 3122 134 
Q 2881 22 2623 -34 
Q 2366 -91 2075 -91 
Q 1284 -91 818 406 
Q 353 903 353 1747 
Q 353 2603 823 3093 
Q 1294 3584 2113 3584 
Q 2378 3584 2631 3529 
Q 2884 3475 3122 3366 
z
" transform="scale(0.015625)"/>
       <path id="DejaVuSans-6f" d="M 1959 3097 
Q 1497 3097 1228 2736 
Q 959 2375 959 1747 
Q 959 1119 1226 758 
Q 1494 397 1959 397 
Q 2419 397 2687 759 
Q 2956 1122 2956 1747 
Q 2956 2369 2687 2733 
Q 2419 3097 1959 3097 
z
M 1959 3584 
Q 2709 3584 3137 3096 
Q 3566 2609 3566 1747 
Q 3566 888 3137 398 
Q 2709 -91 1959 -91 
Q 1206 -91 779 398 
Q 353 888 353 1747 
Q 353 2609 779 3096 
Q 1206 3584 1959 3584 
z
" transform="scale(0.015625)"/>
       <path id="DejaVuSans-6e" d="M 3513 2113 
L 3513 0 
L 2938 0 
L 2938 2094 
Q 2938 2591 2744 2837 
Q 2550 3084 2163 3084 
Q 1697 3084 1428 2787 
Q 1159 2491 1159 1978 
L 1159 0 
L 581 0 
L 581 3500 
L 1159 3500 
L 1159 2956 
Q 1366 3272 1645 3428 
Q 1925 3584 2291 3584 
Q 2894 3584 3203 3211 
Q 3513 2838 3513 2113 
z
" transform="scale(0.015625)"/>
       <path id="DejaVuSans-64" d="M 2906 2969 
L 2906 4863 
L 3481 4863 
L 3481 0 
L 2906 0 
L 2906 525 
Q 2725 213 2448 61 
Q 2172 -91 1784 -91 
Q 1150 -91 751 415 
Q 353 922 353 1747 
Q 353 2572 751 3078 
Q 1150 3584 1784 3584 
Q 2172 3584 2448 3432 
Q 2725 3281 2906 2969 
z
M 947 1747 
Q 947 1113 1208 752 
Q 1469 391 1925 391 
Q 2381 391 2643 752 
Q 2906 1113 2906 1747 
Q 2906 2381 2643 2742 
Q 2381 3103 1925 3103 
Q 1469 3103 1208 2742 
Q 947 2381 947 1747 
z
" transform="scale(0.015625)"/>
      </defs>
      <use xlink:href="#DejaVuSans-73"/>
      <use xlink:href="#DejaVuSans-65" x="52.099609"/>
      <use xlink:href="#DejaVuSans-63" x="113.623047"/>
      <use xlink:href="#DejaVuSans-6f" x="168.603516"/>
      <use xlink:href="#DejaVuSans-6e" x="229.785156"/>
      <use xlink:href="#DejaVuSans-64" x="293.164062"/>
      <use xlink:href="#DejaVuSans-73" x="356.640625"/>
     </g>
    </g>
   </g>
   <g id="matplotlib.axis_2">
    <g id="ytick_1">
     <g id="line2d_6">
      <defs>
       <path id="m2ad83bd027" d="M 0 0 
L -3.5 0 
" style="stroke: #000000; stroke-width: 0.8"/>
      </defs>
      <g>
       <use xlink:href="#m2ad83bd027" x="46.55" y="282.078634" style="stroke: #000000; stroke-width: 0.8"/>
      </g>
     </g>
     <g id="text_7">
      <!-- 1 -->
      <g transform="translate(24.807812 285.877853)scale(0.1 -0.1)">
       <defs>
        <path id="DejaVuSans-2212" d="M 678 2272 
L 4684 2272 
L 4684 1741 
L 678 1741 
L 678 2272 
z
" transform="scale(0.015625)"/>
        <path id="DejaVuSans-31" d="M 794 531 
L 1825 531 
L 1825 4091 
L 703 3866 
L 703 4441 
L 1819 4666 
L 2450 4666 
L 2450 531 
L 3481 531 
L 3481 0 
L 794 0 
L 794 531 
z
" transform="scale(0.015625)"/>
       </defs>
       <use xlink:href="#DejaVuSans-2212"/>
       <use xlink:href="#DejaVuSans-31" x="83.789062"/>
      </g>
     </g>
    </g>
    <g id="ytick_2">
     <g id="line2d_7">
      <g>
       <use xlink:href="#m2ad83bd027" x="46.55" y="245.111569" style="stroke: #000000; stroke-width: 0.8"/>
      </g>
     </g>
     <g id="text_8">
      <!-- 0 -->
      <g transform="translate(33.1875 248.910788)scale(0.1 -0.1)">
       <use xlink:href="#DejaVuSans-30"/>
      </g>
     </g>
    </g>
    <g id="ytick_3">
     <g id="line2d_8">
      <g>
       <use xlink:href="#m2ad83bd027" x="46.55" y="208.144505" style="stroke: #000000; stroke-width: 0.8"/>
      </g>
     </g>
     <g id="text_9">
      <!-- 1 -->
      <g transform="translate(33.1875 211.943723)scale(0.1 -0.1)">
       <use xlink:href="#DejaVuSans-31"/>
      </g>
     </g>
    </g>
    <g id="ytick_4">
     <g id="line2d_9">
      <g>
       <use xlink:href="#m2ad83bd027" x="46.55" y="171.17744" style="stroke: #000000; stroke-width: 0.8"/>
      </g>
     </g>
     <g id="text_10">
      <!-- 2 -->
      <g transform="translate(33.1875 174.976659)scale(0.1 -0.1)">
       <use xlink:href="#DejaVuSans-32"/>
      </g>
     </g>
    </g>
    <g id="ytick_5">
     <g id="line2d_10">
      <g>
       <use xlink:href="#m2ad83bd027" x="46.55" y="134.210376" style="stroke: #000000; stroke-width: 0.8"/>
      </g>
     </g>
     <g id="text_11">
      <!-- 3 -->
      <g transform="translate(33.1875 138.009594)scale(0.1 -0.1)">
       <defs>
        <path id="DejaVuSans-33" d="M 2597 2516 
Q 3050 2419 3304 2112 
Q 3559 1806 3559 1356 
Q 3559 666 3084 287 
Q 2609 -91 1734 -91 
Q 1441 -91 1130 -33 
Q 819 25 488 141 
L 488 750 
Q 750 597 1062 519 
Q 1375 441 1716 441 
Q 2309 441 2620 675 
Q 2931 909 2931 1356 
Q 2931 1769 2642 2001 
Q 2353 2234 1838 2234 
L 1294 2234 
L 1294 2753 
L 1863 2753 
Q 2328 2753 2575 2939 
Q 2822 3125 2822 3475 
Q 2822 3834 2567 4026 
Q 2313 4219 1838 4219 
Q 1578 4219 1281 4162 
Q 984 4106 628 3988 
L 628 4550 
Q 988 4650 1302 4700 
Q 1616 4750 1894 4750 
Q 2613 4750 3031 4423 
Q 3450 4097 3450 3541 
Q 3450 3153 3228 2886 
Q 3006 2619 2597 2516 
z
" transform="scale(0.015625)"/>
       </defs>
       <use xlink:href="#DejaVuSans-33"/>
      </g>
     </g>
    </g>
    <g id="ytick_6">
     <g id="line2d_11">
      <g>
       <use xlink:href="#m2ad83bd027" x="46.55" y="97.243311" style="stroke: #000000; stroke-width: 0.8"/>
      </g>
     </g>
     <g id="text_12">
      <!-- 4 -->
      <g transform="translate(33.1875 101.04253)scale(0.1 -0.1)">
       <use xlink:href="#DejaVuSans-34"/>
      </g>
     </g>
    </g>
    <g id="text_13">
     <!-- V -->
     <g transform="translate(18.728125 201.322125)rotate(-90)scale(0.1 -0.1)">
      <defs>
       <path id="DejaVuSans-b5" d="M 544 -1331 
L 544 3500 
L 1119 3500 
L 1119 1325 
Q 1119 872 1334 640 
Q 1550 409 1972 409 
Q 2434 409 2667 671 
Q 2900 934 2900 1459 
L 2900 3500 
L 3475 3500 
L 3475 806 
Q 3475 619 3529 530 
Q 3584 441 3700 441 
Q 3728 441 3778 458 
Q 3828 475 3916 513 
L 3916 50 
Q 3788 -22 3673 -56 
Q 3559 -91 3450 -91 
Q 3234 -91 3106 31 
Q 2978 153 2931 403 
Q 2775 156 2548 32 
Q 2322 -91 2016 -91 
Q 1697 -91 1473 31 
Q 1250 153 1119 397 
L 1119 -1331 
L 544 -1331 
z
" transform="scale(0.015625)"/>
       <path id="DejaVuSans-56" d="M 1831 0 
L 50 4666 
L 709 4666 
L 2188 738 
L 3669 4666 
L 4325 4666 
L 2547 0 
L 1831 0 
z
" transform="scale(0.015625)"/>
      </defs>
      <use xlink:href="#DejaVuSans-b5"/>
      <use xlink:href="#DejaVuSans-56" x="63.623047"/>
     </g>
    </g>
   </g>
   <g id="line2d_12">
    <path d="M 46.55 255.518092 
L 47.346238 254.390867 
L 48.938713 251.790617 
L 49.73495 250.704914 
L 50.531188 249.850544 
L 52.123663 248.644605 
L 53.716138 247.580931 
L 54.512375 246.913725 
L 55.308613 246.067481 
L 56.10485 244.999636 
L 58.493563 241.047505 
L 59.2898 240.138872 
L 60.086038 239.904991 
L 60.882275 240.555615 
L 61.678513 242.126463 
L 62.47475 244.431987 
L 64.067226 249.578552 
L 64.863463 251.415955 
L 65.659701 252.226878 
L 66.455938 251.851407 
L 67.252176 250.358001 
L 68.048413 248.002689 
L 70.437126 239.567034 
L 71.233363 237.544701 
L 72.029601 236.415785 
L 72.825838 236.361724 
L 73.622076 237.438291 
L 74.418313 239.529536 
L 76.807026 247.937 
L 77.603263 249.632355 
L 78.399501 250.055724 
L 79.195739 249.161496 
L 79.991976 247.229723 
L 81.584451 242.430325 
L 82.380689 240.665813 
L 83.176926 239.737172 
L 83.973164 239.589716 
L 86.361876 240.525308 
L 87.158114 240.272519 
L 87.954351 239.622429 
L 90.343064 237.099828 
L 91.139301 236.5358 
L 92.731776 235.821708 
L 93.528014 235.606573 
L 94.324251 235.545169 
L 95.120489 235.744234 
L 95.916727 236.282366 
L 98.305439 238.945363 
L 99.101677 239.287272 
L 99.897914 238.89938 
L 100.694152 237.714053 
L 101.490389 235.869306 
L 103.879102 229.51308 
L 104.675339 228.042337 
L 105.471577 227.067208 
L 106.267814 226.53731 
L 107.064052 226.387776 
L 107.860289 226.591566 
L 108.656527 227.164124 
L 109.452764 228.122502 
L 110.249002 229.428804 
L 112.637715 233.931488 
L 114.23019 236.084164 
L 115.026427 237.057348 
L 115.822665 238.210751 
L 117.41514 241.021648 
L 118.211377 241.994994 
L 119.007615 241.865282 
L 119.803852 240.027632 
L 120.60009 236.184782 
L 121.396327 230.538977 
L 122.988802 217.168147 
L 123.78504 211.751189 
L 124.581277 208.486192 
L 125.377515 207.727475 
L 126.173752 209.185076 
L 128.562465 218.10305 
L 129.358703 219.951795 
L 130.15494 220.929254 
L 130.951178 221.504791 
L 131.747415 222.285256 
L 132.543653 223.704826 
L 134.932365 230.081355 
L 135.728603 230.830156 
L 136.52484 229.96939 
L 137.321078 227.556109 
L 138.913553 220.772616 
L 139.70979 218.380097 
L 140.506028 217.78775 
L 141.302265 219.32311 
L 142.098503 222.779575 
L 145.283453 241.131552 
L 146.079691 243.565421 
L 146.875928 244.728326 
L 147.672166 244.840036 
L 148.468403 244.194268 
L 149.264641 243.061972 
L 150.857116 240.09888 
L 153.245828 235.613051 
L 155.634541 231.60098 
L 156.430778 229.772243 
L 157.227016 227.416567 
L 158.819491 221.33214 
L 159.615729 218.168794 
L 160.411966 215.47798 
L 161.208204 213.605536 
L 162.004441 212.67294 
L 162.800679 212.506553 
L 163.596916 212.670583 
L 164.393154 212.598636 
L 165.189391 211.777887 
L 165.985629 209.916079 
L 166.781866 207.027014 
L 168.374341 199.470253 
L 169.966816 192.054963 
L 171.559291 185.169246 
L 172.355529 181.173578 
L 173.151766 176.446177 
L 175.540479 160.145811 
L 176.336717 156.079682 
L 177.132954 153.751136 
L 177.929192 153.322621 
L 178.725429 154.457055 
L 180.317904 158.091975 
L 181.114142 158.651128 
L 181.910379 157.457267 
L 182.706617 154.422726 
L 184.299092 144.978455 
L 185.095329 140.336349 
L 185.891567 136.843221 
L 186.687804 134.90026 
L 187.484042 134.451295 
L 188.280279 135.062287 
L 189.872754 137.088735 
L 190.668992 137.684791 
L 192.261467 138.33086 
L 193.057705 139.20393 
L 193.853942 140.964259 
L 194.65018 143.701491 
L 197.038892 154.164813 
L 197.83513 156.628645 
L 198.631367 158.065824 
L 199.427605 158.629902 
L 201.02008 158.811844 
L 201.816317 159.230054 
L 202.612555 160.037601 
L 203.408792 161.00934 
L 204.20503 161.751541 
L 205.001267 161.9002 
L 205.797505 161.314857 
L 207.38998 158.978526 
L 208.186218 158.308148 
L 208.982455 158.66824 
L 209.778693 160.247495 
L 210.57493 162.836012 
L 212.167405 168.724044 
L 212.963643 170.770398 
L 213.75988 171.780934 
L 214.556118 171.91487 
L 215.352355 171.665109 
L 216.148593 171.659005 
L 216.94483 172.412205 
L 217.741068 174.130934 
L 220.12978 181.873824 
L 220.926018 183.409234 
L 221.722255 183.719987 
L 222.518493 182.805059 
L 223.31473 180.932861 
L 226.499681 171.604541 
L 227.295918 169.996245 
L 228.092156 168.777174 
L 228.888393 167.921593 
L 229.684631 167.402362 
L 230.480868 167.169288 
L 232.073343 167.088029 
L 232.869581 166.896097 
L 233.665818 166.424992 
L 235.258293 164.987229 
L 236.054531 164.668063 
L 236.850768 165.212672 
L 237.647006 166.951891 
L 238.443243 169.911011 
L 240.035719 177.614312 
L 240.831956 180.680513 
L 241.628194 182.053865 
L 242.424431 181.225101 
L 243.220669 178.213589 
L 244.016906 173.58672 
L 245.609381 163.42964 
L 246.405619 159.814601 
L 247.201856 157.84331 
L 247.998094 157.342476 
L 249.590569 157.987506 
L 250.386806 157.523776 
L 251.183044 155.895344 
L 251.979281 153.216311 
L 253.571756 147.239311 
L 254.367994 145.539221 
L 255.164231 145.417965 
L 255.960469 146.858331 
L 258.349182 154.32596 
L 259.145419 155.264227 
L 259.941657 154.69711 
L 260.737894 152.790249 
L 263.126607 144.372325 
L 263.922844 142.313628 
L 264.719082 140.913244 
L 265.515319 140.013364 
L 266.311557 139.395412 
L 267.107794 138.919175 
L 267.904032 138.602424 
L 268.700269 138.609117 
L 269.496507 139.155785 
L 270.292744 140.381897 
L 271.088982 142.244122 
L 272.681457 146.680969 
L 273.477695 148.383762 
L 274.273932 149.245852 
L 275.07017 149.133949 
L 275.866407 148.156778 
L 279.051357 142.055496 
L 279.847595 141.231086 
L 280.643832 140.745083 
L 283.828782 139.635766 
L 284.62502 139.088874 
L 285.421257 138.301691 
L 286.217495 137.229268 
L 287.80997 134.310571 
L 289.402445 131.265398 
L 290.198683 130.174786 
L 290.99492 129.509418 
L 291.791158 129.191513 
L 292.587395 129.008573 
L 293.383633 128.703642 
L 294.17987 128.106408 
L 295.772345 126.407342 
L 296.568583 126.03114 
L 297.36482 126.577338 
L 298.161058 128.300944 
L 298.957295 131.090403 
L 300.54977 137.495155 
L 301.346008 139.447481 
L 302.142245 139.691264 
L 302.938483 138.133407 
L 305.327196 129.462984 
L 306.123433 128.560484 
L 306.919671 129.715485 
L 307.715908 132.727536 
L 309.308383 141.030882 
L 310.104621 144.283257 
L 310.900858 145.963673 
L 311.697096 145.957293 
L 312.493333 144.663083 
L 314.085808 141.245225 
L 314.882046 140.579394 
L 315.678283 141.11951 
L 316.474521 142.77965 
L 318.863233 149.986334 
L 319.659471 151.495665 
L 320.455709 152.101961 
L 321.251946 151.852817 
L 322.048184 150.985103 
L 323.640659 148.921136 
L 324.436896 148.548587 
L 325.233134 149.034349 
L 326.029371 150.469804 
L 326.825609 152.697065 
L 328.418084 157.694661 
L 329.214321 159.212056 
L 330.010559 159.318322 
L 330.806796 157.746995 
L 331.603034 154.594414 
L 333.195509 145.567346 
L 333.991746 141.103744 
L 334.787984 137.502977 
L 335.584221 135.072842 
L 336.380459 133.807668 
L 337.176697 133.458065 
L 337.972934 133.67141 
L 339.565409 134.722375 
L 340.361647 135.421995 
L 341.157884 136.354411 
L 341.954122 137.610118 
L 344.342834 142.085056 
L 345.139072 142.773911 
L 345.935309 142.599885 
L 346.731547 141.594064 
L 348.324022 138.582604 
L 349.120259 137.709673 
L 349.916497 137.920143 
L 350.712734 139.382149 
L 351.508972 141.894488 
L 353.101447 147.75061 
L 353.897685 149.653006 
L 354.693922 150.111182 
L 355.49016 148.931417 
L 356.286397 146.28223 
L 359.471347 131.921767 
L 360.267585 130.042655 
L 361.063822 129.275274 
L 361.86006 129.436783 
L 362.656297 130.193412 
L 364.248772 131.937725 
L 365.04501 132.296437 
L 365.841247 132.122801 
L 366.637485 131.493665 
L 368.22996 129.928601 
L 369.026198 129.692647 
L 369.822435 130.204792 
L 370.618673 131.545586 
L 371.41491 133.563376 
L 373.007385 138.043384 
L 373.803623 139.537146 
L 374.59986 140.056514 
L 375.396098 139.552306 
L 376.192335 138.272875 
L 376.988573 136.700187 
L 377.78481 135.411147 
L 378.581048 134.910204 
L 379.377285 135.488712 
L 380.173523 137.155346 
L 380.96976 139.65526 
L 382.562235 145.410632 
L 383.358473 147.801227 
L 384.15471 149.47727 
L 384.950948 150.329073 
L 385.747186 150.360681 
L 386.543423 149.642838 
L 387.339661 148.283081 
L 388.135898 146.426382 
L 389.728373 142.120631 
L 390.524611 140.302941 
L 391.320848 139.179994 
L 392.117086 139.026405 
L 392.913323 139.951231 
L 393.709561 141.855516 
L 395.302036 147.388037 
L 396.894511 153.020916 
L 400.875699 165.235588 
L 401.671936 167.213516 
L 402.468174 168.31337 
L 403.264411 168.16488 
L 404.060649 166.630621 
L 404.856886 163.89689 
L 407.245599 154.046987 
L 408.041836 152.137657 
L 408.838074 151.314956 
L 409.634311 151.324945 
L 410.430549 151.674384 
L 411.226786 151.792337 
L 412.023024 151.191053 
L 412.819261 149.572269 
L 413.615499 146.855386 
L 413.615499 146.855386 
" clip-path="url(#pd5ad324cee)" style="fill: none; stroke: #e41a1c; stroke-width: 1.5; stroke-linecap: square"/>
   </g>
   <g id="line2d_13">
    <path d="M 46.55 235.508311 
L 49.73495 238.662985 
L 51.327425 240.846768 
L 52.9199 242.961614 
L 53.716138 243.689686 
L 54.512375 244.125749 
L 56.10485 244.408474 
L 56.901088 244.557577 
L 57.697325 244.937 
L 58.493563 245.66427 
L 59.2898 246.775735 
L 60.882275 249.854435 
L 62.47475 252.988639 
L 63.270988 254.145056 
L 64.067226 254.891754 
L 64.863463 255.226552 
L 65.659701 255.224656 
L 67.252176 254.727448 
L 68.844651 254.281614 
L 70.437126 253.822008 
L 71.233363 253.275791 
L 72.029601 252.326049 
L 72.825838 250.898439 
L 73.622076 249.020233 
L 76.010788 242.462863 
L 76.807026 240.812532 
L 77.603263 239.783978 
L 78.399501 239.443196 
L 79.195739 239.722181 
L 81.584451 241.954396 
L 82.380689 242.161934 
L 83.176926 241.695921 
L 83.973164 240.486656 
L 84.769401 238.623895 
L 87.158114 231.995202 
L 87.954351 230.647606 
L 88.750589 230.184566 
L 89.546826 230.649088 
L 90.343064 231.901853 
L 93.528014 238.677498 
L 94.324251 239.565259 
L 95.120489 240.054009 
L 97.509202 240.866474 
L 98.305439 241.386265 
L 100.694152 243.428052 
L 101.490389 243.897094 
L 102.286627 244.142596 
L 103.082864 244.177046 
L 103.879102 244.047255 
L 105.471577 243.429278 
L 106.267814 242.898579 
L 107.064052 242.115905 
L 107.860289 240.988131 
L 108.656527 239.464122 
L 110.249002 235.456407 
L 111.841477 231.473396 
L 112.637715 230.143821 
L 113.433952 229.522147 
L 114.23019 229.655117 
L 115.026427 230.436108 
L 117.41514 233.991695 
L 118.211377 234.65024 
L 119.007615 234.823026 
L 119.803852 234.606092 
L 121.396327 233.92454 
L 122.192565 233.935076 
L 122.988802 234.33107 
L 125.377515 236.374687 
L 126.173752 236.506407 
L 126.96999 236.107102 
L 129.358703 233.565917 
L 130.15494 233.433489 
L 130.951178 234.151923 
L 131.747415 235.768062 
L 132.543653 238.120146 
L 134.932365 246.101655 
L 135.728603 247.873397 
L 136.52484 248.797864 
L 137.321078 248.785632 
L 138.117315 247.831642 
L 138.913553 246.007277 
L 139.70979 243.471319 
L 142.098503 234.835054 
L 142.89474 233.124034 
L 143.690978 232.708763 
L 144.487216 233.756313 
L 145.283453 236.135332 
L 147.672166 246.136297 
L 148.468403 248.379729 
L 149.264641 249.458721 
L 150.060878 249.446277 
L 150.857116 248.665813 
L 152.449591 246.434595 
L 154.042066 244.718932 
L 154.838303 243.861454 
L 155.634541 242.726312 
L 156.430778 241.227062 
L 158.023253 237.776203 
L 158.819491 236.478886 
L 159.615729 235.850581 
L 160.411966 235.920759 
L 162.004441 236.887787 
L 162.800679 236.724988 
L 163.596916 235.485558 
L 164.393154 232.983743 
L 165.189391 229.368093 
L 167.578104 216.654251 
L 168.374341 213.393165 
L 169.170579 210.945343 
L 169.966816 209.157076 
L 171.559291 206.515851 
L 173.151766 204.230739 
L 173.948004 203.466904 
L 174.744241 203.270817 
L 175.540479 203.820781 
L 176.336717 205.149531 
L 177.132954 207.125289 
L 179.521667 214.214034 
L 180.317904 216.110432 
L 181.114142 217.544495 
L 181.910379 218.500445 
L 182.706617 218.998633 
L 183.502854 219.06416 
L 184.299092 218.717823 
L 185.095329 217.991162 
L 186.687804 215.737081 
L 187.484042 214.531666 
L 188.280279 213.564773 
L 189.076517 213.051222 
L 189.872754 213.140391 
L 190.668992 213.87559 
L 191.46523 215.180631 
L 194.65018 222.047958 
L 195.446417 223.230528 
L 196.242655 224.075335 
L 197.83513 225.180252 
L 198.631367 225.734674 
L 199.427605 226.446403 
L 201.02008 228.366517 
L 201.816317 229.375421 
L 202.612555 230.193435 
L 203.408792 230.653429 
L 204.20503 230.646411 
L 205.001267 230.152694 
L 205.797505 229.246768 
L 208.982455 224.647059 
L 209.778693 223.924814 
L 210.57493 223.488553 
L 211.371168 223.338236 
L 212.167405 223.467145 
L 212.963643 223.862374 
L 213.75988 224.489438 
L 216.148593 226.75354 
L 216.94483 227.142681 
L 217.741068 227.176077 
L 220.12978 226.421125 
L 220.926018 226.823626 
L 221.722255 227.984379 
L 222.518493 229.923852 
L 224.907206 237.534787 
L 225.703443 239.342722 
L 226.499681 240.430077 
L 227.295918 240.969222 
L 228.092156 241.361922 
L 228.888393 242.096805 
L 229.684631 243.568682 
L 230.480868 245.927057 
L 233.665818 257.983337 
L 234.462056 259.441893 
L 235.258293 259.957866 
L 236.054531 259.818324 
L 236.850768 259.442502 
L 237.647006 259.224623 
L 238.443243 259.404027 
L 239.239481 260.009506 
L 241.628194 262.603847 
L 242.424431 263.163244 
L 244.813144 264.410039 
L 247.201856 266.429505 
L 247.998094 266.791934 
L 248.794331 266.739732 
L 249.590569 266.265548 
L 252.775519 263.251812 
L 255.164231 262.050552 
L 256.756707 260.683543 
L 257.552944 259.971938 
L 258.349182 259.542272 
L 259.145419 259.603645 
L 259.941657 260.225676 
L 262.330369 263.35238 
L 263.126607 263.621232 
L 263.922844 263.085768 
L 264.719082 261.814662 
L 266.311557 258.361715 
L 267.107794 256.988518 
L 267.904032 256.215135 
L 268.700269 256.043209 
L 270.292744 256.538185 
L 271.088982 256.576474 
L 271.88522 256.226574 
L 274.273932 254.321225 
L 275.07017 254.365519 
L 275.866407 255.041909 
L 276.662645 256.232599 
L 278.25512 258.9 
L 279.051357 259.70488 
L 279.847595 259.918338 
L 280.643832 259.607901 
L 282.236307 258.403343 
L 283.032545 258.050456 
L 283.828782 258.060787 
L 284.62502 258.399076 
L 288.606208 261.088093 
L 289.402445 261.986477 
L 290.198683 263.303785 
L 290.99492 265.040818 
L 293.383633 270.760881 
L 294.17987 271.920694 
L 294.976108 272.4296 
L 295.772345 272.351303 
L 298.161058 270.97433 
L 298.957295 270.984239 
L 299.753533 271.4447 
L 300.54977 272.302773 
L 302.938483 275.594849 
L 303.73472 276.329945 
L 304.530958 276.699703 
L 305.327196 276.710686 
L 306.919671 276.075625 
L 307.715908 275.771503 
L 308.512146 275.720022 
L 309.308383 276.049315 
L 310.104621 276.79658 
L 311.697096 279.157149 
L 312.493333 280.364527 
L 313.289571 281.271254 
L 314.085808 281.689063 
L 314.882046 281.526479 
L 315.678283 280.805353 
L 316.474521 279.645441 
L 319.659471 274.011839 
L 321.251946 271.873597 
L 322.844421 269.820656 
L 324.436896 267.202933 
L 326.029371 263.884291 
L 327.621846 260.489974 
L 328.418084 259.069654 
L 329.214321 257.947104 
L 330.010559 257.118606 
L 332.399271 255.266947 
L 333.195509 254.397816 
L 335.584221 251.13314 
L 336.380459 250.454634 
L 337.176697 250.295052 
L 337.972934 250.687338 
L 338.769172 251.513404 
L 340.361647 253.515553 
L 341.157884 254.242576 
L 341.954122 254.676194 
L 343.546597 255.221285 
L 344.342834 255.792856 
L 345.139072 256.787342 
L 346.731547 259.76063 
L 347.527784 261.192503 
L 348.324022 262.113723 
L 349.120259 262.256395 
L 349.916497 261.533029 
L 350.712734 260.063087 
L 353.101447 254.29456 
L 353.897685 252.920601 
L 354.693922 252.019852 
L 355.49016 251.481725 
L 357.082635 250.650857 
L 357.878872 249.970121 
L 358.67511 249.00459 
L 361.063822 245.677314 
L 361.86006 245.204508 
L 362.656297 245.401445 
L 363.452535 246.320022 
L 364.248772 247.846161 
L 365.841247 251.491126 
L 366.637485 252.782425 
L 367.433722 253.213757 
L 368.22996 252.589936 
L 369.026198 250.943693 
L 370.618673 245.798522 
L 371.41491 243.208794 
L 372.211148 241.174588 
L 373.007385 239.925734 
L 373.803623 239.472443 
L 374.59986 239.635112 
L 378.581048 242.221196 
L 379.377285 243.107044 
L 380.173523 244.496402 
L 380.96976 246.429963 
L 383.358473 253.411208 
L 384.15471 254.963979 
L 384.950948 255.623793 
L 385.747186 255.298972 
L 386.543423 254.081234 
L 387.339661 252.220336 
L 388.932136 248.035929 
L 389.728373 246.494703 
L 390.524611 245.761132 
L 391.320848 246.032447 
L 392.117086 247.353407 
L 392.913323 249.592617 
L 395.302036 258.117308 
L 396.098273 259.95301 
L 396.894511 260.636661 
L 397.690748 260.073136 
L 398.486986 258.421814 
L 400.079461 253.411946 
L 400.875699 250.932392 
L 401.671936 248.866999 
L 402.468174 247.255532 
L 404.856886 243.232385 
L 406.449361 239.62207 
L 407.245599 237.77957 
L 408.041836 236.260059 
L 408.838074 235.244768 
L 409.634311 234.730239 
L 411.226786 234.229167 
L 412.023024 233.538805 
L 412.819261 232.213037 
L 413.615499 230.254283 
L 413.615499 230.254283 
" clip-path="url(#pd5ad324cee)" style="fill: none; stroke: #377eb8; stroke-width: 1.5; stroke-linecap: square"/>
   </g>
   <g id="line2d_14">
    <path d="M 87.158114 318.2 
L 87.158114 71.241125 
" clip-path="url(#pd5ad324cee)" style="fill: none; stroke: #000000; stroke-width: 0.5; stroke-linecap: square"/>
   </g>
   <g id="line2d_15">
    <path d="M 46.55 245.111569 
L 413.615499 245.111569 
" clip-path="url(#pd5ad324cee)" style="fill: none; stroke: #000000; stroke-width: 0.5; stroke-linecap: square"/>
   </g>
   <g id="patch_4">
    <path d="M 46.55 318.2 
L 46.55 71.241125 
" style="fill: none; stroke: #000000; stroke-width: 0.8; stroke-linejoin: miter; stroke-linecap: square"/>
   </g>
   <g id="patch_5">
    <path d="M 413.615499 318.2 
L 413.615499 71.241125 
" style="fill: none; stroke: #000000; stroke-width: 0.8; stroke-linejoin: miter; stroke-linecap: square"/>
   </g>
   <g id="patch_6">
    <path d="M 46.55 318.2 
L 413.615499 318.2 
" style="fill: none; stroke: #000000; stroke-width: 0.8; stroke-linejoin: miter; stroke-linecap: square"/>
   </g>
   <g id="patch_7">
    <path d="M 46.55 71.241125 
L 413.615499 71.241125 
" style="fill: none; stroke: #000000; stroke-width: 0.8; stroke-linejoin: miter; stroke-linecap: square"/>
   </g>
   <g id="text_14">
    <!-- Cz -->
    <g transform="translate(222.743999 65.241125)scale(0.12 -0.12)">
     <defs>
      <path id="DejaVuSans-43" d="M 4122 4306 
L 4122 3641 
Q 3803 3938 3442 4084 
Q 3081 4231 2675 4231 
Q 1875 4231 1450 3742 
Q 1025 3253 1025 2328 
Q 1025 1406 1450 917 
Q 1875 428 2675 428 
Q 3081 428 3442 575 
Q 3803 722 4122 1019 
L 4122 359 
Q 3791 134 3420 21 
Q 3050 -91 2638 -91 
Q 1578 -91 968 557 
Q 359 1206 359 2328 
Q 359 3453 968 4101 
Q 1578 4750 2638 4750 
Q 3056 4750 3426 4639 
Q 3797 4528 4122 4306 
z
" transform="scale(0.015625)"/>
      <path id="DejaVuSans-7a" d="M 353 3500 
L 3084 3500 
L 3084 2975 
L 922 459 
L 3084 459 
L 3084 0 
L 275 0 
L 275 525 
L 2438 3041 
L 353 3041 
L 353 3500 
z
" transform="scale(0.015625)"/>
     </defs>
     <use xlink:href="#DejaVuSans-43"/>
     <use xlink:href="#DejaVuSans-7a" x="69.824219"/>
    </g>
   </g>
   <g id="legend_1">
    <g id="patch_8">
     <path d="M 99.855406 48.044893 
L 360.310093 48.044893 
Q 362.310093 48.044893 362.310093 46.044893 
L 362.310093 17.410517 
Q 362.310093 15.410517 360.310093 15.410517 
L 99.855406 15.410517 
Q 97.855406 15.410517 97.855406 17.410517 
L 97.855406 46.044893 
Q 97.855406 48.044893 99.855406 48.044893 
z
" style="fill: #ffffff; opacity: 0.8; stroke: #cccccc; stroke-linejoin: miter"/>
    </g>
    <g id="text_15">
     <!-- Average of Session 6_tac4 -->
     <g transform="translate(164.249937 27.008955)scale(0.1 -0.1)">
      <defs>
       <path id="DejaVuSans-41" d="M 2188 4044 
L 1331 1722 
L 3047 1722 
L 2188 4044 
z
M 1831 4666 
L 2547 4666 
L 4325 0 
L 3669 0 
L 3244 1197 
L 1141 1197 
L 716 0 
L 50 0 
L 1831 4666 
z
" transform="scale(0.015625)"/>
       <path id="DejaVuSans-76" d="M 191 3500 
L 800 3500 
L 1894 563 
L 2988 3500 
L 3597 3500 
L 2284 0 
L 1503 0 
L 191 3500 
z
" transform="scale(0.015625)"/>
       <path id="DejaVuSans-72" d="M 2631 2963 
Q 2534 3019 2420 3045 
Q 2306 3072 2169 3072 
Q 1681 3072 1420 2755 
Q 1159 2438 1159 1844 
L 1159 0 
L 581 0 
L 581 3500 
L 1159 3500 
L 1159 2956 
Q 1341 3275 1631 3429 
Q 1922 3584 2338 3584 
Q 2397 3584 2469 3576 
Q 2541 3569 2628 3553 
L 2631 2963 
z
" transform="scale(0.015625)"/>
       <path id="DejaVuSans-61" d="M 2194 1759 
Q 1497 1759 1228 1600 
Q 959 1441 959 1056 
Q 959 750 1161 570 
Q 1363 391 1709 391 
Q 2188 391 2477 730 
Q 2766 1069 2766 1631 
L 2766 1759 
L 2194 1759 
z
M 3341 1997 
L 3341 0 
L 2766 0 
L 2766 531 
Q 2569 213 2275 61 
Q 1981 -91 1556 -91 
Q 1019 -91 701 211 
Q 384 513 384 1019 
Q 384 1609 779 1909 
Q 1175 2209 1959 2209 
L 2766 2209 
L 2766 2266 
Q 2766 2663 2505 2880 
Q 2244 3097 1772 3097 
Q 1472 3097 1187 3025 
Q 903 2953 641 2809 
L 641 3341 
Q 956 3463 1253 3523 
Q 1550 3584 1831 3584 
Q 2591 3584 2966 3190 
Q 3341 2797 3341 1997 
z
" transform="scale(0.015625)"/>
       <path id="DejaVuSans-67" d="M 2906 1791 
Q 2906 2416 2648 2759 
Q 2391 3103 1925 3103 
Q 1463 3103 1205 2759 
Q 947 2416 947 1791 
Q 947 1169 1205 825 
Q 1463 481 1925 481 
Q 2391 481 2648 825 
Q 2906 1169 2906 1791 
z
M 3481 434 
Q 3481 -459 3084 -895 
Q 2688 -1331 1869 -1331 
Q 1566 -1331 1297 -1286 
Q 1028 -1241 775 -1147 
L 775 -588 
Q 1028 -725 1275 -790 
Q 1522 -856 1778 -856 
Q 2344 -856 2625 -561 
Q 2906 -266 2906 331 
L 2906 616 
Q 2728 306 2450 153 
Q 2172 0 1784 0 
Q 1141 0 747 490 
Q 353 981 353 1791 
Q 353 2603 747 3093 
Q 1141 3584 1784 3584 
Q 2172 3584 2450 3431 
Q 2728 3278 2906 2969 
L 2906 3500 
L 3481 3500 
L 3481 434 
z
" transform="scale(0.015625)"/>
       <path id="DejaVuSans-20" transform="scale(0.015625)"/>
       <path id="DejaVuSans-66" d="M 2375 4863 
L 2375 4384 
L 1825 4384 
Q 1516 4384 1395 4259 
Q 1275 4134 1275 3809 
L 1275 3500 
L 2222 3500 
L 2222 3053 
L 1275 3053 
L 1275 0 
L 697 0 
L 697 3053 
L 147 3053 
L 147 3500 
L 697 3500 
L 697 3744 
Q 697 4328 969 4595 
Q 1241 4863 1831 4863 
L 2375 4863 
z
" transform="scale(0.015625)"/>
       <path id="DejaVuSans-53" d="M 3425 4513 
L 3425 3897 
Q 3066 4069 2747 4153 
Q 2428 4238 2131 4238 
Q 1616 4238 1336 4038 
Q 1056 3838 1056 3469 
Q 1056 3159 1242 3001 
Q 1428 2844 1947 2747 
L 2328 2669 
Q 3034 2534 3370 2195 
Q 3706 1856 3706 1288 
Q 3706 609 3251 259 
Q 2797 -91 1919 -91 
Q 1588 -91 1214 -16 
Q 841 59 441 206 
L 441 856 
Q 825 641 1194 531 
Q 1563 422 1919 422 
Q 2459 422 2753 634 
Q 3047 847 3047 1241 
Q 3047 1584 2836 1778 
Q 2625 1972 2144 2069 
L 1759 2144 
Q 1053 2284 737 2584 
Q 422 2884 422 3419 
Q 422 4038 858 4394 
Q 1294 4750 2059 4750 
Q 2388 4750 2728 4690 
Q 3069 4631 3425 4513 
z
" transform="scale(0.015625)"/>
       <path id="DejaVuSans-69" d="M 603 3500 
L 1178 3500 
L 1178 0 
L 603 0 
L 603 3500 
z
M 603 4863 
L 1178 4863 
L 1178 4134 
L 603 4134 
L 603 4863 
z
" transform="scale(0.015625)"/>
       <path id="DejaVuSans-5f" d="M 3263 -1063 
L 3263 -1509 
L -63 -1509 
L -63 -1063 
L 3263 -1063 
z
" transform="scale(0.015625)"/>
       <path id="DejaVuSans-74" d="M 1172 4494 
L 1172 3500 
L 2356 3500 
L 2356 3053 
L 1172 3053 
L 1172 1153 
Q 1172 725 1289 603 
Q 1406 481 1766 481 
L 2356 481 
L 2356 0 
L 1766 0 
Q 1100 0 847 248 
Q 594 497 594 1153 
L 594 3053 
L 172 3053 
L 172 3500 
L 594 3500 
L 594 4494 
L 1172 4494 
z
" transform="scale(0.015625)"/>
      </defs>
      <use xlink:href="#DejaVuSans-41"/>
      <use xlink:href="#DejaVuSans-76" x="62.533203"/>
      <use xlink:href="#DejaVuSans-65" x="121.712891"/>
      <use xlink:href="#DejaVuSans-72" x="183.236328"/>
      <use xlink:href="#DejaVuSans-61" x="224.349609"/>
      <use xlink:href="#DejaVuSans-67" x="285.628906"/>
      <use xlink:href="#DejaVuSans-65" x="349.105469"/>
      <use xlink:href="#DejaVuSans-20" x="410.628906"/>
      <use xlink:href="#DejaVuSans-6f" x="442.416016"/>
      <use xlink:href="#DejaVuSans-66" x="503.597656"/>
      <use xlink:href="#DejaVuSans-20" x="538.802734"/>
      <use xlink:href="#DejaVuSans-53" x="570.589844"/>
      <use xlink:href="#DejaVuSans-65" x="634.066406"/>
      <use xlink:href="#DejaVuSans-73" x="695.589844"/>
      <use xlink:href="#DejaVuSans-73" x="747.689453"/>
      <use xlink:href="#DejaVuSans-69" x="799.789062"/>
      <use xlink:href="#DejaVuSans-6f" x="827.572266"/>
      <use xlink:href="#DejaVuSans-6e" x="888.753906"/>
      <use xlink:href="#DejaVuSans-20" x="952.132812"/>
      <use xlink:href="#DejaVuSans-36" x="983.919922"/>
      <use xlink:href="#DejaVuSans-5f" x="1047.542969"/>
      <use xlink:href="#DejaVuSans-74" x="1097.542969"/>
      <use xlink:href="#DejaVuSans-61" x="1136.751953"/>
      <use xlink:href="#DejaVuSans-63" x="1198.03125"/>
      <use xlink:href="#DejaVuSans-34" x="1253.011719"/>
     </g>
    </g>
    <g id="line2d_16">
     <path d="M 101.855406 38.465205 
L 111.855406 38.465205 
L 121.855406 38.465205 
" style="fill: none; stroke: #e41a1c; stroke-width: 1.5; stroke-linecap: square"/>
    </g>
    <g id="text_16">
     <!-- Target (n=402) -->
     <g transform="translate(129.855406 41.965205)scale(0.1 -0.1)">
      <defs>
       <path id="DejaVuSans-54" d="M -19 4666 
L 3928 4666 
L 3928 4134 
L 2272 4134 
L 2272 0 
L 1638 0 
L 1638 4134 
L -19 4134 
L -19 4666 
z
" transform="scale(0.015625)"/>
       <path id="DejaVuSans-28" d="M 1984 4856 
Q 1566 4138 1362 3434 
Q 1159 2731 1159 2009 
Q 1159 1288 1364 580 
Q 1569 -128 1984 -844 
L 1484 -844 
Q 1016 -109 783 600 
Q 550 1309 550 2009 
Q 550 2706 781 3412 
Q 1013 4119 1484 4856 
L 1984 4856 
z
" transform="scale(0.015625)"/>
       <path id="DejaVuSans-3d" d="M 678 2906 
L 4684 2906 
L 4684 2381 
L 678 2381 
L 678 2906 
z
M 678 1631 
L 4684 1631 
L 4684 1100 
L 678 1100 
L 678 1631 
z
" transform="scale(0.015625)"/>
       <path id="DejaVuSans-29" d="M 513 4856 
L 1013 4856 
Q 1481 4119 1714 3412 
Q 1947 2706 1947 2009 
Q 1947 1309 1714 600 
Q 1481 -109 1013 -844 
L 513 -844 
Q 928 -128 1133 580 
Q 1338 1288 1338 2009 
Q 1338 2731 1133 3434 
Q 928 4138 513 4856 
z
" transform="scale(0.015625)"/>
      </defs>
      <use xlink:href="#DejaVuSans-54"/>
      <use xlink:href="#DejaVuSans-61" x="44.583984"/>
      <use xlink:href="#DejaVuSans-72" x="105.863281"/>
      <use xlink:href="#DejaVuSans-67" x="145.226562"/>
      <use xlink:href="#DejaVuSans-65" x="208.703125"/>
      <use xlink:href="#DejaVuSans-74" x="270.226562"/>
      <use xlink:href="#DejaVuSans-20" x="309.435547"/>
      <use xlink:href="#DejaVuSans-28" x="341.222656"/>
      <use xlink:href="#DejaVuSans-6e" x="380.236328"/>
      <use xlink:href="#DejaVuSans-3d" x="443.615234"/>
      <use xlink:href="#DejaVuSans-34" x="527.404297"/>
      <use xlink:href="#DejaVuSans-30" x="591.027344"/>
      <use xlink:href="#DejaVuSans-32" x="654.650391"/>
      <use xlink:href="#DejaVuSans-29" x="718.273438"/>
     </g>
    </g>
    <g id="line2d_17">
     <path d="M 225.585093 38.465205 
L 235.585093 38.465205 
L 245.585093 38.465205 
" style="fill: none; stroke: #377eb8; stroke-width: 1.5; stroke-linecap: square"/>
    </g>
    <g id="text_17">
     <!-- Non-Target (n=1213) -->
     <g transform="translate(253.585093 41.965205)scale(0.1 -0.1)">
      <defs>
       <path id="DejaVuSans-4e" d="M 628 4666 
L 1478 4666 
L 3547 763 
L 3547 4666 
L 4159 4666 
L 4159 0 
L 3309 0 
L 1241 3903 
L 1241 0 
L 628 0 
L 628 4666 
z
" transform="scale(0.015625)"/>
       <path id="DejaVuSans-2d" d="M 313 2009 
L 1997 2009 
L 1997 1497 
L 313 1497 
L 313 2009 
z
" transform="scale(0.015625)"/>
      </defs>
      <use xlink:href="#DejaVuSans-4e"/>
      <use xlink:href="#DejaVuSans-6f" x="74.804688"/>
      <use xlink:href="#DejaVuSans-6e" x="135.986328"/>
      <use xlink:href="#DejaVuSans-2d" x="199.365234"/>
      <use xlink:href="#DejaVuSans-54" x="226.324219"/>
      <use xlink:href="#DejaVuSans-61" x="270.908203"/>
      <use xlink:href="#DejaVuSans-72" x="332.1875"/>
      <use xlink:href="#DejaVuSans-67" x="371.550781"/>
      <use xlink:href="#DejaVuSans-65" x="435.027344"/>
      <use xlink:href="#DejaVuSans-74" x="496.550781"/>
      <use xlink:href="#DejaVuSans-20" x="535.759766"/>
      <use xlink:href="#DejaVuSans-28" x="567.546875"/>
      <use xlink:href="#DejaVuSans-6e" x="606.560547"/>
      <use xlink:href="#DejaVuSans-3d" x="669.939453"/>
      <use xlink:href="#DejaVuSans-31" x="753.728516"/>
      <use xlink:href="#DejaVuSans-32" x="817.351562"/>
      <use xlink:href="#DejaVuSans-31" x="880.974609"/>
      <use xlink:href="#DejaVuSans-33" x="944.597656"/>
      <use xlink:href="#DejaVuSans-29" x="1008.220703"/>
     </g>
    </g>
   </g>
  </g>
 </g>
 <defs>
  <clipPath id="pd5ad324cee">
   <rect x="46.55" y="71.241125" width="367.065499" height="246.958875"/>
  </clipPath>
 </defs>
</svg>
