<?xml version="1.0" encoding="utf-8" standalone="no"?>
<!DOCTYPE svg PUBLIC "-//W3C//DTD SVG 1.1//EN"
  "http://www.w3.org/Graphics/SVG/1.1/DTD/svg11.dtd">
<svg xmlns:xlink="http://www.w3.org/1999/xlink" width="432pt" height="360pt" viewBox="0 0 432 360" xmlns="http://www.w3.org/2000/svg" version="1.1">
 <metadata>
  <rdf:RDF xmlns:dc="http://purl.org/dc/elements/1.1/" xmlns:cc="http://creativecommons.org/ns#" xmlns:rdf="http://www.w3.org/1999/02/22-rdf-syntax-ns#">
   <cc:Work>
    <dc:type rdf:resource="http://purl.org/dc/dcmitype/StillImage"/>
    <dc:date>2022-11-02T16:56:59.928985</dc:date>
    <dc:format>image/svg+xml</dc:format>
    <dc:creator>
     <cc:Agent>
      <dc:title>Matplotlib v3.5.1, https://matplotlib.org/</dc:title>
     </cc:Agent>
    </dc:creator>
   </cc:Work>
  </rdf:RDF>
 </metadata>
 <defs>
  <style type="text/css">*{stroke-linejoin: round; stroke-linecap: butt}</style>
 </defs>
 <g id="figure_1">
  <g id="patch_1">
   <path d="M 0 360 
L 432 360 
L 432 0 
L 0 0 
L 0 360 
z
" style="fill: none"/>
  </g>
  <g id="axes_1">
   <g id="patch_2">
    <path d="M 46.55 318.2 
L 413.615499 318.2 
L 413.615499 71.241125 
L 46.55 71.241125 
L 46.55 318.2 
z
" style="fill: none"/>
   </g>
   <g id="PolyCollection_1">
    <defs>
     <path id="m0a4a258029" d="M 46.55 -122.699588 
L 46.55 -76.844362 
L 47.346238 -77.42793 
L 48.142475 -79.717657 
L 48.938713 -83.062343 
L 49.73495 -86.456746 
L 50.531188 -88.97645 
L 51.327425 -90.177063 
L 52.123663 -90.267001 
L 52.9199 -89.995432 
L 53.716138 -90.323347 
L 54.512375 -92.01102 
L 55.308613 -95.279764 
L 56.10485 -99.699339 
L 56.901088 -104.373453 
L 57.697325 -108.329572 
L 58.493563 -110.884823 
L 59.2898 -111.817397 
L 60.086038 -111.346941 
L 60.882275 -110.02343 
L 61.678513 -108.588539 
L 62.47475 -107.770131 
L 63.270988 -107.991136 
L 64.067226 -109.164905 
L 64.863463 -110.778609 
L 65.659701 -112.246978 
L 66.455938 -113.295918 
L 67.252176 -114.089221 
L 68.048413 -115.018274 
L 68.844651 -116.341584 
L 69.640888 -117.916592 
L 70.437126 -119.151778 
L 71.233363 -119.182921 
L 72.029601 -117.198623 
L 72.825838 -112.79922 
L 73.622076 -106.246924 
L 74.418313 -98.483871 
L 75.214551 -90.885395 
L 76.010788 -84.839192 
L 76.807026 -81.312433 
L 77.603263 -80.560714 
L 78.399501 -82.078429 
L 79.195739 -84.819822 
L 79.991976 -87.623778 
L 80.788214 -89.663609 
L 81.584451 -90.697613 
L 82.380689 -91.005366 
L 83.176926 -91.091241 
L 83.973164 -91.353867 
L 84.769401 -91.883705 
L 85.565639 -92.434071 
L 86.361876 -92.534768 
L 87.158114 -91.708491 
L 87.954351 -89.728146 
L 88.750589 -86.811557 
L 89.546826 -83.645546 
L 90.343064 -81.178324 
L 91.139301 -80.218734 
L 91.935539 -81.018049 
L 92.731776 -83.076875 
L 93.528014 -85.310893 
L 94.324251 -86.495435 
L 95.120489 -85.754849 
L 95.916727 -82.877246 
L 96.712964 -78.366215 
L 97.509202 -73.258864 
L 98.305439 -68.794316 
L 99.101677 -66.031516 
L 99.897914 -65.526728 
L 100.694152 -67.186783 
L 101.490389 -70.36033 
L 102.286627 -74.111429 
L 103.082864 -77.536757 
L 103.879102 -80.00861 
L 104.675339 -81.301978 
L 105.471577 -81.59627 
L 106.267814 -81.325821 
L 107.064052 -80.903164 
L 107.860289 -80.464436 
L 108.656527 -79.812323 
L 109.452764 -78.599441 
L 110.249002 -76.621849 
L 111.04524 -74.011807 
L 111.841477 -71.206066 
L 112.637715 -68.751638 
L 113.433952 -67.101679 
L 114.23019 -66.485446 
L 115.026427 -66.839115 
L 115.822665 -67.790358 
L 116.618902 -68.745101 
L 117.41514 -69.099965 
L 118.211377 -68.498674 
L 119.007615 -66.986465 
L 119.803852 -64.975851 
L 120.60009 -63.068941 
L 121.396327 -61.8546 
L 122.192565 -61.765898 
L 122.988802 -63.013678 
L 123.78504 -65.571769 
L 124.581277 -69.188425 
L 125.377515 -73.415278 
L 126.173752 -77.661276 
L 126.96999 -81.286121 
L 127.766228 -83.733085 
L 128.562465 -84.660271 
L 129.358703 -84.008449 
L 130.15494 -81.984436 
L 130.951178 -79.002227 
L 131.747415 -75.624974 
L 132.543653 -72.491607 
L 133.33989 -70.180693 
L 134.136128 -69.025106 
L 134.932365 -68.976707 
L 135.728603 -69.617069 
L 136.52484 -70.319141 
L 137.321078 -70.480387 
L 138.117315 -69.733057 
L 138.913553 -68.075222 
L 139.70979 -65.894975 
L 140.506028 -63.871528 
L 141.302265 -62.772329 
L 142.098503 -63.222658 
L 142.89474 -65.540789 
L 143.690978 -69.683272 
L 144.487216 -75.279774 
L 145.283453 -81.713876 
L 146.079691 -88.227231 
L 146.875928 -94.041803 
L 147.672166 -98.480735 
L 148.468403 -101.056088 
L 149.264641 -101.515217 
L 150.060878 -99.868496 
L 150.857116 -96.414687 
L 151.653353 -91.745423 
L 152.449591 -86.695088 
L 153.245828 -82.220246 
L 154.042066 -79.222421 
L 154.838303 -78.3451 
L 155.634541 -79.78949 
L 156.430778 -83.213694 
L 157.227016 -87.778565 
L 158.023253 -92.354831 
L 158.819491 -95.833312 
L 159.615729 -97.437535 
L 160.411966 -96.945796 
L 161.208204 -94.761098 
L 162.004441 -91.799445 
L 162.800679 -89.20995 
L 163.596916 -88.006253 
L 164.393154 -88.741691 
L 165.189391 -91.354504 
L 165.985629 -95.236869 
L 166.781866 -99.484682 
L 167.578104 -103.212561 
L 168.374341 -105.810226 
L 169.170579 -107.068576 
L 169.966816 -107.16881 
L 170.763054 -106.572171 
L 171.559291 -105.864326 
L 172.355529 -105.602082 
L 173.151766 -106.19106 
L 173.948004 -107.811349 
L 174.744241 -110.406167 
L 175.540479 -113.73351 
L 176.336717 -117.450833 
L 177.132954 -121.185906 
L 177.929192 -124.570129 
L 178.725429 -127.254535 
L 179.521667 -128.944511 
L 180.317904 -129.458405 
L 181.114142 -128.783614 
L 181.910379 -127.107867 
L 182.706617 -124.82394 
L 183.502854 -122.496033 
L 184.299092 -120.75622 
L 185.095329 -120.124571 
L 185.891567 -120.816765 
L 186.687804 -122.647165 
L 187.484042 -125.09292 
L 188.280279 -127.481877 
L 189.076517 -129.202604 
L 189.872754 -129.86791 
L 190.668992 -129.42152 
L 191.46523 -128.176131 
L 192.261467 -126.741707 
L 193.057705 -125.823771 
L 193.853942 -125.949047 
L 194.65018 -127.243618 
L 195.446417 -129.375432 
L 196.242655 -131.681703 
L 197.038892 -133.412098 
L 197.83513 -133.992855 
L 198.631367 -133.232446 
L 199.427605 -131.403515 
L 200.223842 -129.157808 
L 201.02008 -127.291323 
L 201.816317 -126.447808 
L 202.612555 -126.88536 
L 203.408792 -128.405807 
L 204.20503 -130.470602 
L 205.001267 -132.438678 
L 205.797505 -133.81097 
L 206.593742 -134.380646 
L 207.38998 -134.245693 
L 208.186218 -133.700736 
L 208.982455 -133.067376 
L 209.778693 -132.536062 
L 210.57493 -132.076427 
L 211.371168 -131.447377 
L 212.167405 -130.312935 
L 212.963643 -128.429941 
L 213.75988 -125.827252 
L 214.556118 -122.883538 
L 215.352355 -120.253222 
L 216.148593 -118.661819 
L 216.94483 -118.644838 
L 217.741068 -120.321017 
L 218.537305 -123.283511 
L 219.333543 -126.670034 
L 220.12978 -129.419606 
L 220.926018 -130.638439 
L 221.722255 -129.920499 
L 222.518493 -127.471181 
L 223.31473 -123.984392 
L 224.110968 -120.356375 
L 224.907206 -117.383154 
L 225.703443 -115.558981 
L 226.499681 -115.01523 
L 227.295918 -115.574579 
L 228.092156 -116.874259 
L 228.888393 -118.516661 
L 229.684631 -120.207271 
L 230.480868 -121.837424 
L 231.277106 -123.474203 
L 232.073343 -125.246012 
L 232.869581 -127.173046 
L 233.665818 -129.053785 
L 234.462056 -130.507414 
L 235.258293 -131.169481 
L 236.054531 -130.918508 
L 236.850768 -129.983851 
L 237.647006 -128.88278 
L 238.443243 -128.251343 
L 239.239481 -128.655995 
L 240.035719 -130.420643 
L 240.831956 -133.482925 
L 241.628194 -137.341171 
L 242.424431 -141.175337 
L 243.220669 -144.142093 
L 244.016906 -145.711933 
L 244.813144 -145.863642 
L 245.609381 -145.046187 
L 246.405619 -143.968105 
L 247.201856 -143.349115 
L 247.998094 -143.725373 
L 248.794331 -145.323031 
L 249.590569 -147.998615 
L 250.386806 -151.279471 
L 251.183044 -154.527104 
L 251.979281 -157.166884 
L 252.775519 -158.873205 
L 253.571756 -159.628071 
L 254.367994 -159.64768 
L 255.164231 -159.228104 
L 255.960469 -158.577355 
L 256.756707 -157.702068 
L 257.552944 -156.413334 
L 258.349182 -154.478004 
L 259.145419 -151.852454 
L 259.941657 -148.852354 
L 260.737894 -146.12898 
L 261.534132 -144.448323 
L 262.330369 -144.393406 
L 263.126607 -146.133265 
L 263.922844 -149.338363 
L 264.719082 -153.244576 
L 265.515319 -156.846483 
L 266.311557 -159.197547 
L 267.107794 -159.751669 
L 267.904032 -158.607473 
L 268.700269 -156.511658 
L 269.496507 -154.586257 
L 270.292744 -153.895995 
L 271.088982 -155.046069 
L 271.88522 -157.961547 
L 272.681457 -161.901546 
L 273.477695 -165.682515 
L 274.273932 -168.045077 
L 275.07017 -168.064083 
L 275.866407 -165.464196 
L 276.662645 -160.712046 
L 277.458882 -154.839757 
L 278.25512 -149.077725 
L 279.051357 -144.461307 
L 279.847595 -141.572478 
L 280.643832 -140.494926 
L 281.44007 -140.955563 
L 282.236307 -142.554603 
L 283.032545 -144.973969 
L 283.828782 -148.080593 
L 284.62502 -151.883951 
L 285.421257 -156.362862 
L 286.217495 -161.249761 
L 287.013732 -165.914767 
L 287.80997 -169.465433 
L 288.606208 -171.064738 
L 289.402445 -170.335069 
L 290.198683 -167.640908 
L 290.99492 -164.084443 
L 291.791158 -161.18991 
L 292.587395 -160.402488 
L 293.383633 -162.597128 
L 294.17987 -167.772045 
L 294.976108 -175.033106 
L 295.772345 -182.885774 
L 296.568583 -189.742875 
L 297.36482 -194.454914 
L 298.161058 -196.641305 
L 298.957295 -196.693389 
L 299.753533 -195.4837 
L 300.54977 -193.941916 
L 301.346008 -192.69097 
L 302.142245 -191.881776 
L 302.938483 -191.26243 
L 303.73472 -190.420639 
L 304.530958 -189.080343 
L 305.327196 -187.316942 
L 306.123433 -185.581949 
L 306.919671 -184.51081 
L 307.715908 -184.605558 
L 308.512146 -185.962967 
L 309.308383 -188.193119 
L 310.104621 -190.557155 
L 310.900858 -192.233777 
L 311.697096 -192.589844 
L 312.493333 -191.370212 
L 313.289571 -188.770119 
L 314.085808 -185.379162 
L 314.882046 -182.001077 
L 315.678283 -179.381083 
L 316.474521 -177.928222 
L 317.270758 -177.56967 
L 318.066996 -177.828169 
L 318.863233 -178.077028 
L 319.659471 -177.81804 
L 320.455709 -176.836891 
L 321.251946 -175.192425 
L 322.048184 -173.098844 
L 322.844421 -170.797851 
L 323.640659 -168.487986 
L 324.436896 -166.317511 
L 325.233134 -164.405024 
L 326.029371 -162.855161 
L 326.825609 -161.757208 
L 327.621846 -161.159913 
L 328.418084 -161.014655 
L 329.214321 -161.100594 
L 330.010559 -160.984445 
L 330.806796 -160.084021 
L 331.603034 -157.860498 
L 332.399271 -154.075284 
L 333.195509 -148.981741 
L 333.991746 -143.338989 
L 334.787984 -138.22714 
L 335.584221 -134.727735 
L 336.380459 -133.570365 
L 337.176697 -134.848984 
L 337.972934 -137.907623 
L 338.769172 -141.471521 
L 339.565409 -144.021596 
L 340.361647 -144.290881 
L 341.157884 -141.679155 
L 341.954122 -136.415856 
L 342.750359 -129.435792 
L 343.546597 -122.063386 
L 344.342834 -115.645605 
L 345.139072 -111.236036 
L 345.935309 -109.377927 
L 346.731547 -110.01855 
L 347.527784 -112.584435 
L 348.324022 -116.197711 
L 349.120259 -119.939522 
L 349.916497 -123.053122 
L 350.712734 -125.043101 
L 351.508972 -125.700215 
L 352.30521 -125.094372 
L 353.101447 -123.536891 
L 353.897685 -121.489674 
L 354.693922 -119.432662 
L 355.49016 -117.752607 
L 356.286397 -116.702063 
L 357.082635 -116.407787 
L 357.878872 -116.87276 
L 358.67511 -117.961801 
L 359.471347 -119.422468 
L 360.267585 -120.979409 
L 361.063822 -122.467926 
L 361.86006 -123.92257 
L 362.656297 -125.561172 
L 363.452535 -127.674426 
L 364.248772 -130.477074 
L 365.04501 -133.975387 
L 365.841247 -137.891543 
L 366.637485 -141.680829 
L 367.433722 -144.660246 
L 368.22996 -146.220755 
L 369.026198 -146.047987 
L 369.822435 -144.265119 
L 370.618673 -141.435733 
L 371.41491 -138.408497 
L 372.211148 -136.041975 
L 373.007385 -134.901827 
L 373.803623 -135.05571 
L 374.59986 -136.056256 
L 375.396098 -137.110698 
L 376.192335 -137.342402 
L 376.988573 -136.035455 
L 377.78481 -132.81348 
L 378.581048 -127.748161 
L 379.377285 -121.377751 
L 380.173523 -114.598207 
L 380.96976 -108.425827 
L 381.765998 -103.703997 
L 382.562235 -100.869523 
L 383.358473 -99.865576 
L 384.15471 -100.216917 
L 384.950948 -101.22549 
L 385.747186 -102.218054 
L 386.543423 -102.764802 
L 387.339661 -102.792989 
L 388.135898 -102.558099 
L 388.932136 -102.492964 
L 389.728373 -102.997559 
L 390.524611 -104.246214 
L 391.320848 -106.08844 
L 392.117086 -108.101939 
L 392.913323 -109.7987 
L 393.709561 -110.892768 
L 394.505798 -111.473995 
L 395.302036 -111.973777 
L 396.098273 -112.943585 
L 396.894511 -114.7799 
L 397.690748 -117.531688 
L 398.486986 -120.851218 
L 399.283223 -124.085714 
L 400.079461 -126.488449 
L 400.875699 -127.504937 
L 401.671936 -127.034712 
L 402.468174 -125.535411 
L 403.264411 -123.887381 
L 404.060649 -123.062471 
L 404.856886 -123.746771 
L 405.653124 -126.081614 
L 406.449361 -129.620492 
L 407.245599 -133.510957 
L 408.041836 -136.833122 
L 408.838074 -138.963596 
L 409.634311 -139.807067 
L 410.430549 -139.780684 
L 411.226786 -139.553152 
L 412.023024 -139.672346 
L 412.819261 -140.276348 
L 413.615499 -141.031654 
L 413.615499 -228.248352 
L 413.615499 -228.248352 
L 412.819261 -226.224328 
L 412.023024 -224.549217 
L 411.226786 -223.587099 
L 410.430549 -223.208978 
L 409.634311 -222.893648 
L 408.838074 -221.994801 
L 408.041836 -220.057036 
L 407.245599 -217.056685 
L 406.449361 -213.468589 
L 405.653124 -210.113555 
L 404.856886 -207.831543 
L 404.060649 -207.120247 
L 403.264411 -207.910348 
L 402.468174 -209.582085 
L 401.671936 -211.205746 
L 400.875699 -211.892095 
L 400.079461 -211.113971 
L 399.283223 -208.887817 
L 398.486986 -205.746874 
L 397.690748 -202.503015 
L 396.894511 -199.889319 
L 396.098273 -198.257135 
L 395.302036 -197.485398 
L 394.505798 -197.128637 
L 393.709561 -196.684796 
L 392.913323 -195.82443 
L 392.117086 -194.494422 
L 391.320848 -192.900111 
L 390.524611 -191.401801 
L 389.728373 -190.353469 
L 388.932136 -189.92856 
L 388.135898 -190.013701 
L 387.339661 -190.244348 
L 386.543423 -190.183517 
L 385.747186 -189.559066 
L 384.950948 -188.443123 
L 384.15471 -187.290414 
L 383.358473 -186.815967 
L 382.562235 -187.754532 
L 381.765998 -190.590262 
L 380.96976 -195.359578 
L 380.173523 -201.598712 
L 379.377285 -208.445859 
L 378.581048 -214.856971 
L 377.78481 -219.878152 
L 376.988573 -222.913261 
L 376.192335 -223.905717 
L 375.396098 -223.348288 
L 374.59986 -222.092092 
L 373.803623 -221.032347 
L 373.007385 -220.817335 
L 372.211148 -221.692241 
L 371.41491 -223.490872 
L 370.618673 -225.727327 
L 369.822435 -227.742859 
L 369.026198 -228.883516 
L 368.22996 -228.677724 
L 367.433722 -226.968155 
L 366.637485 -223.951129 
L 365.841247 -220.110335 
L 365.04501 -216.068152 
L 364.248772 -212.400496 
L 363.452535 -209.475712 
L 362.656297 -207.377423 
L 361.86006 -205.940834 
L 361.063822 -204.875194 
L 360.267585 -203.904308 
L 359.471347 -202.869098 
L 358.67511 -201.778919 
L 357.878872 -200.815496 
L 357.082635 -200.279036 
L 356.286397 -200.469719 
L 355.49016 -201.542484 
L 354.693922 -203.415597 
L 353.897685 -205.786177 
L 353.101447 -208.220975 
L 352.30521 -210.242044 
L 351.508972 -211.373787 
L 350.712734 -211.195276 
L 349.916497 -209.449725 
L 349.120259 -206.191567 
L 348.324022 -201.884002 
L 347.527784 -197.376047 
L 346.731547 -193.751035 
L 345.935309 -192.084554 
L 345.139072 -193.159183 
L 344.342834 -197.191459 
L 343.546597 -203.661659 
L 342.750359 -211.357718 
L 341.954122 -218.680877 
L 341.157884 -224.121401 
L 340.361647 -226.714348 
L 339.565409 -226.30412 
L 338.769172 -223.549839 
L 337.972934 -219.705241 
L 337.176697 -216.254557 
L 336.380459 -214.49561 
L 335.584221 -215.175446 
L 334.787984 -218.295735 
L 333.991746 -223.171343 
L 333.195509 -228.723745 
L 332.399271 -233.875316 
L 331.603034 -237.871606 
L 330.806796 -240.425612 
L 330.010559 -241.684201 
L 329.214321 -242.07954 
L 328.418084 -242.138661 
L 327.621846 -242.311905 
L 326.825609 -242.871729 
L 326.029371 -243.910603 
L 325.233134 -245.417267 
L 324.436896 -247.359735 
L 323.640659 -249.699661 
L 322.844421 -252.325814 
L 322.048184 -254.975568 
L 321.251946 -257.238352 
L 320.455709 -258.678236 
L 319.659471 -259.025635 
L 318.863233 -258.336817 
L 318.066996 -257.034778 
L 317.270758 -255.808146 
L 316.474521 -255.409847 
L 315.678283 -256.421463 
L 314.882046 -259.038115 
L 314.085808 -262.930252 
L 313.289571 -267.260893 
L 312.493333 -270.919815 
L 311.697096 -272.928954 
L 310.900858 -272.840699 
L 310.104621 -270.921006 
L 309.308383 -268.020562 
L 308.512146 -265.204176 
L 307.715908 -263.330732 
L 306.919671 -262.782692 
L 306.123433 -263.436628 
L 305.327196 -264.837159 
L 304.530958 -266.46503 
L 303.73472 -267.98139 
L 302.938483 -269.350393 
L 302.142245 -270.783895 
L 301.346008 -272.524306 
L 300.54977 -274.571212 
L 299.753533 -276.506304 
L 298.957295 -277.533472 
L 298.161058 -276.741463 
L 297.36482 -273.479846 
L 296.568583 -267.681662 
L 295.772345 -259.994966 
L 294.976108 -251.671266 
L 294.17987 -244.242744 
L 293.383633 -239.078716 
L 292.587395 -236.957159 
L 291.791158 -237.809039 
L 290.99492 -240.747843 
L 290.198683 -244.377604 
L 289.402445 -247.246075 
L 288.606208 -248.260446 
L 287.80997 -246.934339 
L 287.013732 -243.426742 
L 286.217495 -238.399101 
L 285.421257 -232.7535 
L 284.62502 -227.344046 
L 283.828782 -222.763864 
L 283.032545 -219.284595 
L 282.236307 -216.960398 
L 281.44007 -215.817903 
L 280.643832 -215.991964 
L 279.847595 -217.701983 
L 279.051357 -221.077502 
L 278.25512 -225.943283 
L 277.458882 -231.697158 
L 276.662645 -237.362806 
L 275.866407 -241.81532 
L 275.07017 -244.106983 
L 274.273932 -243.785509 
L 273.477695 -241.090454 
L 272.681457 -236.932434 
L 271.88522 -232.621553 
L 271.088982 -229.418685 
L 270.292744 -228.085722 
L 269.496507 -228.633509 
L 268.700269 -230.374009 
L 267.904032 -232.228678 
L 267.107794 -233.139192 
L 266.311557 -232.425435 
L 265.515319 -229.997173 
L 264.719082 -226.37589 
L 263.922844 -222.512392 
L 263.126607 -219.440544 
L 262.330369 -217.898045 
L 261.534132 -218.091163 
L 260.737894 -219.710095 
L 259.941657 -222.148152 
L 259.145419 -224.774111 
L 258.349182 -227.119704 
L 257.552944 -228.942648 
L 256.756707 -230.202819 
L 255.960469 -230.988961 
L 255.164231 -231.407194 
L 254.367994 -231.461224 
L 253.571756 -230.991969 
L 252.775519 -229.733536 
L 251.979281 -227.471639 
L 251.183044 -224.217765 
L 250.386806 -220.302957 
L 249.590569 -216.34518 
L 248.794331 -213.096528 
L 247.998094 -211.204512 
L 247.201856 -210.953037 
L 246.405619 -212.097308 
L 245.609381 -213.90882 
L 244.813144 -215.441865 
L 244.016906 -215.888245 
L 243.220669 -214.84132 
L 242.424431 -212.37469 
L 241.628194 -208.963765 
L 240.831956 -205.329337 
L 240.035719 -202.239935 
L 239.239481 -200.283675 
L 238.443243 -199.664605 
L 237.647006 -200.131124 
L 236.850768 -201.106641 
L 236.054531 -201.960901 
L 235.258293 -202.257102 
L 234.462056 -201.845108 
L 233.665818 -200.805475 
L 232.869581 -199.33897 
L 232.073343 -197.669273 
L 231.277106 -195.964083 
L 230.480868 -194.276135 
L 229.684631 -192.540234 
L 228.888393 -190.661141 
L 228.092156 -188.665238 
L 227.295918 -186.818613 
L 226.499681 -185.609402 
L 225.703443 -185.569112 
L 224.907206 -187.01027 
L 224.110968 -189.817978 
L 223.31473 -193.413533 
L 222.518493 -196.917946 
L 221.722255 -199.439341 
L 220.926018 -200.357123 
L 220.12978 -199.50125 
L 219.333543 -197.191592 
L 218.537305 -194.147339 
L 217.741068 -191.286137 
L 216.94483 -189.448686 
L 216.148593 -189.129596 
L 215.352355 -190.32315 
L 214.556118 -192.561022 
L 213.75988 -195.129525 
L 212.963643 -197.363639 
L 212.167405 -198.885232 
L 211.371168 -199.694729 
L 210.57493 -200.094189 
L 209.778693 -200.482745 
L 208.982455 -201.116031 
L 208.186218 -201.948028 
L 207.38998 -202.64384 
L 206.593742 -202.762208 
L 205.797505 -202.012286 
L 205.001267 -200.44991 
L 204.20503 -198.511757 
L 203.408792 -196.8684 
L 202.612555 -196.163115 
L 201.816317 -196.750466 
L 201.02008 -198.540285 
L 200.223842 -201.003589 
L 199.427605 -203.336226 
L 198.631367 -204.725185 
L 197.83513 -204.631434 
L 197.038892 -202.994779 
L 196.242655 -200.280934 
L 195.446417 -197.334038 
L 194.65018 -195.077381 
L 193.853942 -194.1829 
L 193.057705 -194.848626 
L 192.261467 -196.756148 
L 191.46523 -199.192392 
L 190.668992 -201.281466 
L 189.872754 -202.269378 
L 189.076517 -201.786323 
L 188.280279 -199.98394 
L 187.484042 -197.468029 
L 186.687804 -195.044788 
L 185.891567 -193.410756 
L 185.095329 -192.942952 
L 184.299092 -193.651591 
L 183.502854 -195.246419 
L 182.706617 -197.245005 
L 181.910379 -199.094323 
L 181.114142 -200.300552 
L 180.317904 -200.538833 
L 179.521667 -199.696892 
L 178.725429 -197.840792 
L 177.929192 -195.146735 
L 177.132954 -191.854203 
L 176.336717 -188.25423 
L 175.540479 -184.683107 
L 174.744241 -181.49517 
L 173.948004 -179.013606 
L 173.151766 -177.468208 
L 172.355529 -176.922817 
L 171.559291 -177.205817 
L 170.763054 -177.886391 
L 169.966816 -178.346735 
L 169.170579 -177.957281 
L 168.374341 -176.298857 
L 167.578104 -173.33931 
L 166.781866 -169.48344 
L 165.985629 -165.467429 
L 165.189391 -162.135856 
L 164.393154 -160.185847 
L 163.596916 -159.961977 
L 162.800679 -161.352096 
L 162.004441 -163.799355 
L 161.208204 -166.423896 
L 160.411966 -168.235183 
L 159.615729 -168.398283 
L 158.819491 -166.4886 
L 158.023253 -162.645893 
L 157.227016 -157.560614 
L 156.430778 -152.293123 
L 155.634541 -147.992769 
L 154.838303 -145.606334 
L 154.042066 -145.649573 
L 153.245828 -148.090894 
L 152.449591 -152.374043 
L 151.653353 -157.57301 
L 150.857116 -162.623558 
L 150.060878 -166.551043 
L 149.264641 -168.638146 
L 148.468403 -168.5163 
L 147.672166 -166.183801 
L 146.875928 -161.957963 
L 146.079691 -156.384565 
L 145.283453 -150.141746 
L 144.487216 -143.959973 
L 143.690978 -138.542146 
L 142.89474 -134.458539 
L 142.098503 -132.030633 
L 141.302265 -131.259103 
L 140.506028 -131.83992 
L 139.70979 -133.259667 
L 138.913553 -134.928656 
L 138.117315 -136.320639 
L 137.321078 -137.102426 
L 136.52484 -137.22114 
L 135.728603 -136.902913 
L 134.932365 -136.553467 
L 134.136128 -136.610573 
L 133.33989 -137.410491 
L 132.543653 -139.091969 
L 131.747415 -141.531869 
L 130.951178 -144.326911 
L 130.15494 -146.866934 
L 129.358703 -148.511942 
L 128.562465 -148.794975 
L 127.766228 -147.53768 
L 126.96999 -144.839773 
L 126.173752 -141.002579 
L 125.377515 -136.464962 
L 124.581277 -131.766846 
L 123.78504 -127.498442 
L 122.988802 -124.204034 
L 122.192565 -122.255062 
L 121.396327 -121.740851 
L 120.60009 -122.429444 
L 119.803852 -123.829422 
L 119.007615 -125.340567 
L 118.211377 -126.433524 
L 117.41514 -126.785728 
L 116.618902 -126.343393 
L 115.822665 -125.329445 
L 115.026427 -124.207167 
L 114.23019 -123.565433 
L 113.433952 -123.910695 
L 112.637715 -125.442589 
L 111.841477 -127.9555 
L 111.04524 -130.946198 
L 110.249002 -133.846806 
L 109.452764 -136.217371 
L 108.656527 -137.812372 
L 107.860289 -138.566614 
L 107.064052 -138.563968 
L 106.267814 -137.981733 
L 105.471577 -136.983529 
L 104.675339 -135.592943 
L 103.879102 -133.647275 
L 103.082864 -130.927961 
L 102.286627 -127.43003 
L 101.490389 -123.575222 
L 100.694152 -120.191963 
L 99.897914 -118.254504 
L 99.101677 -118.507578 
L 98.305439 -121.131413 
L 97.509202 -125.57791 
L 96.712964 -130.670805 
L 95.916727 -134.979891 
L 95.120489 -137.342917 
L 94.324251 -137.303425 
L 93.528014 -135.25692 
L 92.731776 -132.249012 
L 91.935539 -129.549027 
L 91.139301 -128.201655 
L 90.343064 -128.705471 
L 89.546826 -130.880692 
L 88.750589 -133.948102 
L 87.954351 -136.818891 
L 87.158114 -138.522448 
L 86.361876 -138.596902 
L 85.565639 -137.242717 
L 84.769401 -135.15296 
L 83.973164 -133.1078 
L 83.176926 -131.554329 
L 82.380689 -130.412876 
L 81.584451 -129.213961 
L 80.788214 -127.456324 
L 79.991976 -124.962035 
L 79.195739 -122.055863 
L 78.399501 -119.520747 
L 77.603263 -118.366519 
L 76.807026 -119.475284 
L 76.010788 -123.230448 
L 75.214551 -129.289734 
L 74.418313 -136.634307 
L 73.622076 -143.894394 
L 72.825838 -149.807907 
L 72.029601 -153.611633 
L 71.233363 -155.214558 
L 70.437126 -155.107551 
L 69.640888 -154.066965 
L 68.844651 -152.791121 
L 68.048413 -151.646757 
L 67.252176 -150.640732 
L 66.455938 -149.588688 
L 65.659701 -148.33165 
L 64.863463 -146.859851 
L 64.067226 -145.332543 
L 63.270988 -144.059832 
L 62.47475 -143.434317 
L 61.678513 -143.751897 
L 60.882275 -144.954741 
L 60.086038 -146.468738 
L 59.2898 -147.351265 
L 58.493563 -146.750268 
L 57.697325 -144.370613 
L 56.901088 -140.63652 
L 56.10485 -136.479669 
L 55.308613 -132.914651 
L 54.512375 -130.643432 
L 53.716138 -129.83231 
L 52.9199 -130.091166 
L 52.123663 -130.650329 
L 51.327425 -130.688644 
L 50.531188 -129.68853 
L 49.73495 -127.658199 
L 48.938713 -125.126291 
L 48.142475 -122.936427 
L 47.346238 -121.941731 
L 46.55 -122.699588 
z
" style="stroke: #e41a1c; stroke-opacity: 0.3"/>
    </defs>
    <g clip-path="url(#pd1d1a7a58b)">
     <use xlink:href="#m0a4a258029" x="0" y="360" style="fill: #e41a1c; fill-opacity: 0.3; stroke: #e41a1c; stroke-opacity: 0.3"/>
    </g>
   </g>
   <g id="PolyCollection_2">
    <defs>
     <path id="m01c9db75ea" d="M 46.55 -133.949336 
L 46.55 -107.059504 
L 47.346238 -109.688795 
L 48.142475 -110.908848 
L 48.938713 -110.535978 
L 49.73495 -108.844877 
L 50.531188 -106.47479 
L 51.327425 -104.195795 
L 52.123663 -102.643247 
L 52.9199 -102.140788 
L 53.716138 -102.670762 
L 54.512375 -103.963239 
L 55.308613 -105.631376 
L 56.10485 -107.295697 
L 56.901088 -108.674485 
L 57.697325 -109.625671 
L 58.493563 -110.126832 
L 59.2898 -110.209028 
L 60.086038 -109.900112 
L 60.882275 -109.229417 
L 61.678513 -108.291745 
L 62.47475 -107.304463 
L 63.270988 -106.585074 
L 64.067226 -106.443614 
L 64.863463 -107.058033 
L 65.659701 -108.408251 
L 66.455938 -110.287082 
L 67.252176 -112.344405 
L 68.048413 -114.141803 
L 68.844651 -115.24241 
L 69.640888 -115.340552 
L 70.437126 -114.38169 
L 71.233363 -112.602319 
L 72.029601 -110.447258 
L 72.825838 -108.392507 
L 73.622076 -106.768395 
L 74.418313 -105.675761 
L 75.214551 -105.024485 
L 76.010788 -104.652311 
L 76.807026 -104.444301 
L 77.603263 -104.386486 
L 78.399501 -104.536361 
L 79.195739 -104.938571 
L 79.991976 -105.532489 
L 80.788214 -106.095122 
L 81.584451 -106.253491 
L 82.380689 -105.585654 
L 83.176926 -103.793158 
L 83.973164 -100.876858 
L 84.769401 -97.223532 
L 85.565639 -93.543263 
L 86.361876 -90.66966 
L 87.158114 -89.293538 
L 87.954351 -89.720284 
L 88.750589 -91.731195 
L 89.546826 -94.606089 
L 90.343064 -97.322753 
L 91.139301 -98.879336 
L 91.935539 -98.616274 
L 92.731776 -96.405839 
L 93.528014 -92.650819 
L 94.324251 -88.125248 
L 95.120489 -83.733621 
L 95.916727 -80.261405 
L 96.712964 -78.174818 
L 97.509202 -77.519601 
L 98.305439 -77.9543 
L 99.101677 -78.908589 
L 99.897914 -79.798329 
L 100.694152 -80.204321 
L 101.490389 -79.958149 
L 102.286627 -79.136826 
L 103.082864 -77.997834 
L 103.879102 -76.88253 
L 104.675339 -76.108143 
L 105.471577 -75.874313 
L 106.267814 -76.214607 
L 107.064052 -77.010969 
L 107.860289 -78.058176 
L 108.656527 -79.13934 
L 109.452764 -80.076574 
L 110.249002 -80.749563 
L 111.04524 -81.099502 
L 111.841477 -81.135296 
L 112.637715 -80.944075 
L 113.433952 -80.691381 
L 114.23019 -80.592265 
L 115.026427 -80.850431 
L 115.822665 -81.588688 
L 116.618902 -82.802275 
L 117.41514 -84.352469 
L 118.211377 -85.995522 
L 119.007615 -87.437336 
L 119.803852 -88.405897 
L 120.60009 -88.730838 
L 121.396327 -88.407943 
L 122.192565 -87.617517 
L 122.988802 -86.675704 
L 123.78504 -85.928976 
L 124.581277 -85.629625 
L 125.377515 -85.843836 
L 126.173752 -86.429537 
L 126.96999 -87.091035 
L 127.766228 -87.483889 
L 128.562465 -87.325788 
L 129.358703 -86.477133 
L 130.15494 -84.975014 
L 130.951178 -83.020284 
L 131.747415 -80.920556 
L 132.543653 -78.995651 
L 133.33989 -77.464639 
L 134.136128 -76.355589 
L 134.932365 -75.486505 
L 135.728603 -74.538867 
L 136.52484 -73.196926 
L 137.321078 -71.292539 
L 138.117315 -68.892665 
L 138.913553 -66.296832 
L 139.70979 -63.951006 
L 140.506028 -62.310344 
L 141.302265 -61.69336 
L 142.098503 -62.171608 
L 142.89474 -63.537793 
L 143.690978 -65.374467 
L 144.487216 -67.208268 
L 145.283453 -68.688457 
L 146.079691 -69.708463 
L 146.875928 -70.415293 
L 147.672166 -71.112564 
L 148.468403 -72.115129 
L 149.264641 -73.621998 
L 150.060878 -75.64273 
L 150.857116 -77.980439 
L 151.653353 -80.27197 
L 152.449591 -82.089216 
L 153.245828 -83.083252 
L 154.042066 -83.117874 
L 154.838303 -82.327659 
L 155.634541 -81.07026 
L 156.430778 -79.797641 
L 157.227016 -78.910418 
L 158.023253 -78.653162 
L 158.819491 -79.077976 
L 159.615729 -80.073836 
L 160.411966 -81.437148 
L 161.208204 -82.945799 
L 162.004441 -84.405073 
L 162.800679 -85.655514 
L 163.596916 -86.56388 
L 164.393154 -87.026487 
L 165.189391 -86.994568 
L 165.985629 -86.504943 
L 166.781866 -85.694261 
L 167.578104 -84.787738 
L 168.374341 -84.063044 
L 169.170579 -83.789755 
L 169.966816 -84.151438 
L 170.763054 -85.173244 
L 171.559291 -86.688672 
L 172.355529 -88.36878 
L 173.151766 -89.811081 
L 173.948004 -90.659819 
L 174.744241 -90.719761 
L 175.540479 -90.021314 
L 176.336717 -88.805347 
L 177.132954 -87.424154 
L 177.929192 -86.198977 
L 178.725429 -85.30267 
L 179.521667 -84.721851 
L 180.317904 -84.304978 
L 181.114142 -83.858129 
L 181.910379 -83.238747 
L 182.706617 -82.414042 
L 183.502854 -81.472378 
L 184.299092 -80.589901 
L 185.095329 -79.965912 
L 185.891567 -79.753506 
L 186.687804 -80.015969 
L 187.484042 -80.725353 
L 188.280279 -81.795326 
L 189.076517 -83.121583 
L 189.872754 -84.60262 
L 190.668992 -86.130579 
L 191.46523 -87.565111 
L 192.261467 -88.716852 
L 193.057705 -89.364857 
L 193.853942 -89.312264 
L 194.65018 -88.460292 
L 195.446417 -86.864563 
L 196.242655 -84.743605 
L 197.038892 -82.431951 
L 197.83513 -80.294076 
L 198.631367 -78.630078 
L 199.427605 -77.605037 
L 200.223842 -77.222164 
L 201.02008 -77.343172 
L 201.816317 -77.746523 
L 202.612555 -78.204713 
L 203.408792 -78.553235 
L 204.20503 -78.722753 
L 205.001267 -78.722562 
L 205.797505 -78.592541 
L 206.593742 -78.361618 
L 207.38998 -78.042196 
L 208.186218 -77.658705 
L 208.982455 -77.283502 
L 209.778693 -77.054731 
L 210.57493 -77.166235 
L 211.371168 -77.827011 
L 212.167405 -79.187344 
L 212.963643 -81.241774 
L 213.75988 -83.750033 
L 214.556118 -86.234978 
L 215.352355 -88.089933 
L 216.148593 -88.768694 
L 216.94483 -87.97917 
L 217.741068 -85.792557 
L 218.537305 -82.622187 
L 219.333543 -79.09065 
L 220.12978 -75.845677 
L 220.926018 -73.391049 
L 221.722255 -71.978363 
L 222.518493 -71.578682 
L 223.31473 -71.931165 
L 224.110968 -72.649197 
L 224.907206 -73.347012 
L 225.703443 -73.738717 
L 226.499681 -73.670645 
L 227.295918 -73.086707 
L 228.092156 -71.96936 
L 228.888393 -70.311363 
L 229.684631 -68.143141 
L 230.480868 -65.589749 
L 231.277106 -62.901294 
L 232.073343 -60.418265 
L 232.869581 -58.478048 
L 233.665818 -57.305663 
L 234.462056 -56.936201 
L 235.258293 -57.198844 
L 236.054531 -57.766048 
L 236.850768 -58.250273 
L 237.647006 -58.320228 
L 238.443243 -57.804406 
L 239.239481 -56.748996 
L 240.035719 -55.403803 
L 240.831956 -54.132277 
L 241.628194 -53.275289 
L 242.424431 -53.025403 
L 243.220669 -53.368734 
L 244.016906 -54.118764 
L 244.813144 -55.020811 
L 245.609381 -55.874425 
L 246.405619 -56.616641 
L 247.201856 -57.329334 
L 247.998094 -58.170181 
L 248.794331 -59.263789 
L 249.590569 -60.607896 
L 250.386806 -62.038358 
L 251.183044 -63.266272 
L 251.979281 -63.970446 
L 252.775519 -63.913192 
L 253.571756 -63.040815 
L 254.367994 -61.530715 
L 255.164231 -59.76 
L 255.960469 -58.200101 
L 256.756707 -57.275979 
L 257.552944 -57.245498 
L 258.349182 -58.139747 
L 259.145419 -59.776205 
L 259.941657 -61.829702 
L 260.737894 -63.932412 
L 261.534132 -65.771615 
L 262.330369 -67.158873 
L 263.126607 -68.054819 
L 263.922844 -68.547514 
L 264.719082 -68.795336 
L 265.515319 -68.955663 
L 266.311557 -69.126035 
L 267.107794 -69.320264 
L 267.904032 -69.485708 
L 268.700269 -69.543464 
L 269.496507 -69.418752 
L 270.292744 -69.042489 
L 271.088982 -68.340125 
L 271.88522 -67.240855 
L 272.681457 -65.719521 
L 273.477695 -63.846928 
L 274.273932 -61.811082 
L 275.07017 -59.892275 
L 275.866407 -58.403329 
L 276.662645 -57.614577 
L 277.458882 -57.679899 
L 278.25512 -58.57815 
L 279.051357 -60.093801 
L 279.847595 -61.856382 
L 280.643832 -63.434577 
L 281.44007 -64.453462 
L 282.236307 -64.693246 
L 283.032545 -64.141192 
L 283.828782 -62.985764 
L 284.62502 -61.558541 
L 285.421257 -60.238861 
L 286.217495 -59.349461 
L 287.013732 -59.079218 
L 287.80997 -59.459825 
L 288.606208 -60.396107 
L 289.402445 -61.723099 
L 290.198683 -63.25521 
L 290.99492 -64.809567 
L 291.791158 -66.213018 
L 292.587395 -67.31362 
L 293.383633 -68.002946 
L 294.17987 -68.234014 
L 294.976108 -68.015752 
L 295.772345 -67.388235 
L 296.568583 -66.403046 
L 297.36482 -65.130097 
L 298.161058 -63.684284 
L 298.957295 -62.24628 
L 299.753533 -61.057282 
L 300.54977 -60.386903 
L 301.346008 -60.4851 
L 302.142245 -61.52699 
L 302.938483 -63.553994 
L 303.73472 -66.425896 
L 304.530958 -69.809569 
L 305.327196 -73.225183 
L 306.123433 -76.144183 
L 306.919671 -78.109185 
L 307.715908 -78.84221 
L 308.512146 -78.318989 
L 309.308383 -76.793744 
L 310.104621 -74.761327 
L 310.900858 -72.851594 
L 311.697096 -71.674699 
L 312.493333 -71.663079 
L 313.289571 -72.964525 
L 314.085808 -75.418303 
L 314.882046 -78.610907 
L 315.678283 -81.97895 
L 316.474521 -84.926125 
L 317.270758 -86.931148 
L 318.066996 -87.633159 
L 318.863233 -86.885137 
L 319.659471 -84.769443 
L 320.455709 -81.57458 
L 321.251946 -77.738435 
L 322.048184 -73.769145 
L 322.844421 -70.160231 
L 323.640659 -67.316676 
L 324.436896 -65.502326 
L 325.233134 -64.810161 
L 326.029371 -65.153831 
L 326.825609 -66.284816 
L 327.621846 -67.842658 
L 328.418084 -69.435074 
L 329.214321 -70.72588 
L 330.010559 -71.498895 
L 330.806796 -71.678432 
L 331.603034 -71.311329 
L 332.399271 -70.531015 
L 333.195509 -69.519874 
L 333.991746 -68.474936 
L 334.787984 -67.577865 
L 335.584221 -66.972253 
L 336.380459 -66.74975 
L 337.176697 -66.942315 
L 337.972934 -67.517461 
L 338.769172 -68.376543 
L 339.565409 -69.357508 
L 340.361647 -70.244655 
L 341.157884 -70.794429 
L 341.954122 -70.78776 
L 342.750359 -70.10384 
L 343.546597 -68.783878 
L 344.342834 -67.043385 
L 345.139072 -65.214692 
L 345.935309 -63.641849 
L 346.731547 -62.576579 
L 347.527784 -62.115829 
L 348.324022 -62.194795 
L 349.120259 -62.62958 
L 349.916497 -63.195755 
L 350.712734 -63.717386 
L 351.508972 -64.129199 
L 352.30521 -64.480966 
L 353.101447 -64.882962 
L 353.897685 -65.423869 
L 354.693922 -66.102541 
L 355.49016 -66.801345 
L 356.286397 -67.310863 
L 357.082635 -67.401981 
L 357.878872 -66.923473 
L 358.67511 -65.88222 
L 359.471347 -64.462019 
L 360.267585 -62.966913 
L 361.063822 -61.717777 
L 361.86006 -60.949859 
L 362.656297 -60.746577 
L 363.452535 -61.022499 
L 364.248772 -61.558614 
L 365.04501 -62.084812 
L 365.841247 -62.386296 
L 366.637485 -62.387075 
L 367.433722 -62.169805 
L 368.22996 -61.926974 
L 369.026198 -61.8784 
L 369.822435 -62.199514 
L 370.618673 -62.983413 
L 371.41491 -64.234285 
L 372.211148 -65.87917 
L 373.007385 -67.784473 
L 373.803623 -69.771631 
L 374.59986 -71.634627 
L 375.396098 -73.168532 
L 376.192335 -74.213734 
L 376.988573 -74.702127 
L 377.78481 -74.679662 
L 378.581048 -74.291234 
L 379.377285 -73.739611 
L 380.173523 -73.23509 
L 380.96976 -72.941157 
L 381.765998 -72.914322 
L 382.562235 -73.052515 
L 383.358473 -73.088018 
L 384.15471 -72.655392 
L 384.950948 -71.424045 
L 385.747186 -69.243986 
L 386.543423 -66.24081 
L 387.339661 -62.822943 
L 388.135898 -59.60059 
L 388.932136 -57.239523 
L 389.728373 -56.286328 
L 390.524611 -57.012527 
L 391.320848 -59.330017 
L 392.117086 -62.810157 
L 392.913323 -66.803792 
L 393.709561 -70.619532 
L 394.505798 -73.699057 
L 395.302036 -75.736671 
L 396.098273 -76.716891 
L 396.894511 -76.872695 
L 397.690748 -76.587421 
L 398.486986 -76.269501 
L 399.283223 -76.229264 
L 400.079461 -76.590036 
L 400.875699 -77.264425 
L 401.671936 -78.008102 
L 402.468174 -78.531795 
L 403.264411 -78.623874 
L 404.060649 -78.233109 
L 404.856886 -77.482314 
L 405.653124 -76.619133 
L 406.449361 -75.931291 
L 407.245599 -75.658022 
L 408.041836 -75.925283 
L 408.838074 -76.722707 
L 409.634311 -77.923218 
L 410.430549 -79.33184 
L 411.226786 -80.741443 
L 412.023024 -81.981337 
L 412.819261 -82.951539 
L 413.615499 -83.636753 
L 413.615499 -133.760609 
L 413.615499 -133.760609 
L 412.819261 -133.422535 
L 412.023024 -132.848316 
L 411.226786 -131.977417 
L 410.430549 -130.842679 
L 409.634311 -129.580091 
L 408.838074 -128.396725 
L 408.041836 -127.504509 
L 407.245599 -127.047988 
L 406.449361 -127.055374 
L 405.653124 -127.430189 
L 404.856886 -127.98248 
L 404.060649 -128.489447 
L 403.264411 -128.765403 
L 402.468174 -128.716214 
L 401.671936 -128.360526 
L 400.875699 -127.816016 
L 400.079461 -127.258408 
L 399.283223 -126.861585 
L 398.486986 -126.72489 
L 397.690748 -126.806725 
L 396.894511 -126.895622 
L 396.098273 -126.647219 
L 395.302036 -125.689461 
L 394.505798 -123.762782 
L 393.709561 -120.84082 
L 392.913323 -117.183432 
L 392.117086 -113.300814 
L 391.320848 -109.838895 
L 390.524611 -107.418835 
L 389.728373 -106.476178 
L 388.932136 -107.145381 
L 388.135898 -109.223837 
L 387.339661 -112.228081 
L 386.543423 -115.531375 
L 385.747186 -118.539003 
L 384.950948 -120.839449 
L 384.15471 -122.279159 
L 383.358473 -122.947816 
L 382.562235 -123.098856 
L 381.765998 -123.041888 
L 380.96976 -123.036974 
L 380.173523 -123.213106 
L 379.377285 -123.536744 
L 378.581048 -123.84667 
L 377.78481 -123.940959 
L 376.988573 -123.668132 
L 376.192335 -122.973151 
L 375.396098 -121.885146 
L 374.59986 -120.477483 
L 373.803623 -118.839236 
L 373.007385 -117.073167 
L 372.211148 -115.304707 
L 371.41491 -113.680828 
L 370.618673 -112.349068 
L 369.822435 -111.420495 
L 369.026198 -110.930113 
L 368.22996 -110.814302 
L 367.433722 -110.922617 
L 366.637485 -111.063267 
L 365.841247 -111.064972 
L 365.04501 -110.834771 
L 364.248772 -110.397795 
L 363.452535 -109.906247 
L 362.656297 -109.602435 
L 361.86006 -109.731703 
L 361.063822 -110.433367 
L 360.267585 -111.661206 
L 359.471347 -113.180211 
L 358.67511 -114.644327 
L 357.878872 -115.716908 
L 357.082635 -116.181527 
L 356.286397 -116.005637 
L 355.49016 -115.338474 
L 354.693922 -114.442881 
L 353.897685 -113.583727 
L 353.101447 -112.920745 
L 352.30521 -112.458361 
L 351.508972 -112.076932 
L 350.712734 -111.624515 
L 349.916497 -111.01966 
L 349.120259 -110.318199 
L 348.324022 -109.716902 
L 347.527784 -109.488646 
L 346.731547 -109.86864 
L 345.935309 -110.938966 
L 345.139072 -112.569132 
L 344.342834 -114.444321 
L 343.546597 -116.16563 
L 342.750359 -117.374015 
L 341.954122 -117.851778 
L 341.157884 -117.576031 
L 340.361647 -116.715909 
L 339.565409 -115.574001 
L 338.769172 -114.486638 
L 337.972934 -113.718367 
L 337.176697 -113.395445 
L 336.380459 -113.504267 
L 335.584221 -113.942014 
L 334.787984 -114.581921 
L 333.991746 -115.317763 
L 333.195509 -116.07172 
L 332.399271 -116.771871 
L 331.603034 -117.322928 
L 330.806796 -117.599224 
L 330.010559 -117.474429 
L 329.214321 -116.875095 
L 328.418084 -115.828481 
L 327.621846 -114.483209 
L 326.825609 -113.099496 
L 326.029371 -112.013537 
L 325.233134 -111.57821 
L 324.436896 -112.085861 
L 323.640659 -113.691155 
L 322.844421 -116.360467 
L 322.048184 -119.866186 
L 321.251946 -123.823304 
L 320.455709 -127.750229 
L 319.659471 -131.136725 
L 318.863233 -133.514198 
L 318.066996 -134.529881 
L 317.270758 -134.020094 
L 316.474521 -132.067107 
L 315.678283 -129.016731 
L 314.882046 -125.436277 
L 314.085808 -122.007053 
L 313.289571 -119.370895 
L 312.493333 -117.974765 
L 311.697096 -117.963401 
L 310.900858 -119.149528 
L 310.104621 -121.064375 
L 309.308383 -123.07008 
L 308.512146 -124.510657 
L 307.715908 -124.870957 
L 306.919671 -123.903243 
L 306.123433 -121.680098 
L 305.327196 -118.554385 
L 304.530958 -115.044583 
L 303.73472 -111.694741 
L 302.938483 -108.957879 
L 302.142245 -107.126301 
L 301.346008 -106.307122 
L 300.54977 -106.434754 
L 299.753533 -107.313614 
L 298.957295 -108.680139 
L 298.161058 -110.262267 
L 297.36482 -111.818235 
L 296.568583 -113.151922 
L 295.772345 -114.11985 
L 294.976108 -114.640861 
L 294.17987 -114.700724 
L 293.383633 -114.33713 
L 292.587395 -113.607007 
L 291.791158 -112.560071 
L 290.99492 -111.24525 
L 290.198683 -109.745177 
L 289.402445 -108.206207 
L 288.606208 -106.833316 
L 287.80997 -105.846463 
L 287.013732 -105.419282 
L 286.217495 -105.626892 
L 285.421257 -106.418058 
L 284.62502 -107.61295 
L 283.828782 -108.925954 
L 283.032545 -110.016982 
L 282.236307 -110.569828 
L 281.44007 -110.381294 
L 280.643832 -109.430241 
L 279.847595 -107.897277 
L 279.051357 -106.123773 
L 278.25512 -104.525289 
L 277.458882 -103.485472 
L 276.662645 -103.258735 
L 275.866407 -103.90754 
L 275.07017 -105.29628 
L 274.273932 -107.147807 
L 273.477695 -109.138517 
L 272.681457 -110.988574 
L 271.88522 -112.511677 
L 271.088982 -113.623167 
L 270.292744 -114.326876 
L 269.496507 -114.694804 
L 268.700269 -114.836336 
L 267.904032 -114.854718 
L 267.107794 -114.807484 
L 266.311557 -114.695517 
L 265.515319 -114.483075 
L 264.719082 -114.124325 
L 263.922844 -113.572165 
L 263.126607 -112.770068 
L 262.330369 -111.649107 
L 261.534132 -110.152345 
L 260.737894 -108.286916 
L 259.941657 -106.178039 
L 259.145419 -104.087996 
L 258.349182 -102.374407 
L 257.552944 -101.390604 
L 256.756707 -101.36191 
L 255.960469 -102.288922 
L 255.164231 -103.920725 
L 254.367994 -105.81227 
L 253.571756 -107.448495 
L 252.775519 -108.397504 
L 251.979281 -108.441159 
L 251.183044 -107.63369 
L 250.386806 -106.260809 
L 249.590569 -104.71284 
L 248.794331 -103.326677 
L 247.998094 -102.267716 
L 247.201856 -101.500539 
L 246.405619 -100.852231 
L 245.609381 -100.130583 
L 244.813144 -99.241274 
L 244.016906 -98.252735 
L 243.220669 -97.381363 
L 242.424431 -96.904225 
L 241.628194 -97.037045 
L 240.831956 -97.828894 
L 240.035719 -99.117927 
L 239.239481 -100.569475 
L 238.443243 -101.787627 
L 237.647006 -102.462015 
L 236.850768 -102.491823 
L 236.054531 -102.031031 
L 235.258293 -101.430794 
L 234.462056 -101.103773 
L 233.665818 -101.37288 
L 232.869581 -102.372458 
L 232.073343 -104.036947 
L 231.277106 -106.162957 
L 230.480868 -108.496689 
L 229.684631 -110.798485 
L 228.888393 -112.866752 
L 228.092156 -114.537907 
L 227.295918 -115.690013 
L 226.499681 -116.258442 
L 225.703443 -116.255441 
L 224.907206 -115.784184 
L 224.110968 -115.044466 
L 223.31473 -114.328382 
L 222.518493 -113.994798 
L 221.722255 -114.404396 
L 220.926018 -115.813124 
L 220.12978 -118.255826 
L 219.333543 -121.47868 
L 218.537305 -124.969272 
L 217.741068 -128.087747 
L 216.94483 -130.249527 
L 216.148593 -131.086549 
L 215.352355 -130.531929 
L 214.556118 -128.814396 
L 213.75988 -126.379987 
L 212.963643 -123.768811 
L 212.167405 -121.475628 
L 211.371168 -119.8283 
L 210.57493 -118.922758 
L 209.778693 -118.642768 
L 208.982455 -118.756782 
L 208.186218 -119.038991 
L 207.38998 -119.347269 
L 206.593742 -119.626002 
L 205.797505 -119.85673 
L 205.001267 -120.00793 
L 204.20503 -120.020948 
L 203.408792 -119.835169 
L 202.612555 -119.433442 
L 201.816317 -118.884506 
L 201.02008 -118.360301 
L 200.223842 -118.109893 
L 199.427605 -118.386346 
L 198.631367 -119.349657 
L 197.83513 -120.989902 
L 197.038892 -123.110974 
L 196.242655 -125.385239 
L 195.446417 -127.453621 
L 194.65018 -129.026369 
L 193.853942 -129.945077 
L 193.057705 -130.189946 
L 192.261467 -129.84355 
L 191.46523 -129.039141 
L 190.668992 -127.920686 
L 189.872754 -126.62702 
L 189.076517 -125.295141 
L 188.280279 -124.068591 
L 187.484042 -123.095389 
L 186.687804 -122.508199 
L 185.891567 -122.390773 
L 185.095329 -122.744573 
L 184.299092 -123.472512 
L 183.502854 -124.393807 
L 182.706617 -125.294924 
L 181.910379 -126.005992 
L 181.114142 -126.472822 
L 180.317904 -126.785742 
L 179.521667 -127.140662 
L 178.725429 -127.743289 
L 177.929192 -128.702933 
L 177.132954 -129.967685 
L 176.336717 -131.324914 
L 175.540479 -132.459806 
L 174.744241 -133.049799 
L 173.948004 -132.869933 
L 173.151766 -131.879905 
L 172.355529 -130.258731 
L 171.559291 -128.363819 
L 170.763054 -126.622435 
L 169.966816 -125.398867 
L 169.170579 -124.888279 
L 168.374341 -125.073538 
L 167.578104 -125.752723 
L 166.781866 -126.621941 
L 165.985629 -127.379117 
L 165.189391 -127.805088 
L 164.393154 -127.791307 
L 163.596916 -127.318724 
L 162.800679 -126.421981 
L 162.004441 -125.172578 
L 161.208204 -123.6859 
L 160.411966 -122.131548 
L 159.615729 -120.725171 
L 158.819491 -119.695675 
L 158.023253 -119.233394 
L 157.227016 -119.430437 
L 156.430778 -120.22869 
L 155.634541 -121.401583 
L 154.838303 -122.589146 
L 154.042066 -123.382543 
L 153.245828 -123.433334 
L 152.449591 -122.557813 
L 151.653353 -120.807696 
L 150.857116 -118.478336 
L 150.060878 -116.028871 
L 149.264641 -113.922728 
L 148.468403 -112.446118 
L 147.672166 -111.594496 
L 146.875928 -111.092247 
L 146.079691 -110.534111 
L 145.283453 -109.570754 
L 144.487216 -108.053608 
L 143.690978 -106.092542 
L 142.89474 -104.02284 
L 142.098503 -102.301169 
L 141.302265 -101.360198 
L 140.506028 -101.4625 
L 139.70979 -102.604765 
L 138.913553 -104.514352 
L 138.117315 -106.748432 
L 137.321078 -108.855246 
L 136.52484 -110.528181 
L 135.728603 -111.690425 
L 134.932365 -112.486855 
L 134.136128 -113.200548 
L 133.33989 -114.132252 
L 132.543653 -115.482221 
L 131.747415 -117.26598 
L 130.951178 -119.292651 
L 130.15494 -121.221719 
L 129.358703 -122.686756 
L 128.562465 -123.439057 
L 127.766228 -123.446677 
L 126.96999 -122.903319 
L 126.173752 -122.148283 
L 125.377515 -121.539708 
L 124.581277 -121.337919 
L 123.78504 -121.636878 
L 122.988802 -122.35307 
L 122.192565 -123.261423 
L 121.396327 -124.061112 
L 120.60009 -124.455299 
L 119.803852 -124.230138 
L 119.007615 -123.318217 
L 118.211377 -121.82486 
L 117.41514 -120.002188 
L 116.618902 -118.175096 
L 115.822665 -116.645611 
L 115.026427 -115.612602 
L 114.23019 -115.132868 
L 113.433952 -115.124098 
L 112.637715 -115.396126 
L 111.841477 -115.697712 
L 111.04524 -115.777178 
L 110.249002 -115.451352 
L 109.452764 -114.664038 
L 108.656527 -113.508949 
L 107.860289 -112.203451 
L 107.064052 -111.021088 
L 106.267814 -110.21098 
L 105.471577 -109.934092 
L 104.675339 -110.229236 
L 103.879102 -111.002024 
L 103.082864 -112.030377 
L 102.286627 -112.995825 
L 101.490389 -113.557329 
L 100.694152 -113.466074 
L 99.897914 -112.682534 
L 99.101677 -111.437561 
L 98.305439 -110.198786 
L 97.509202 -109.54869 
L 96.712964 -110.01384 
L 95.916727 -111.889054 
L 95.120489 -115.098735 
L 94.324251 -119.146334 
L 93.528014 -123.201695 
L 92.731776 -126.329853 
L 91.935539 -127.789389 
L 91.139301 -127.280362 
L 90.343064 -125.043665 
L 89.546826 -121.786325 
L 88.750589 -118.475891 
L 87.954351 -116.070613 
L 87.158114 -115.250925 
L 86.361876 -116.226081 
L 85.565639 -118.689072 
L 84.769401 -121.946366 
L 83.973164 -125.16949 
L 83.176926 -127.661592 
L 82.380689 -129.041968 
L 81.584451 -129.302906 
L 80.788214 -128.741655 
L 79.991976 -127.803968 
L 79.195739 -126.901209 
L 78.399501 -126.277232 
L 77.603263 -125.981813 
L 76.807026 -125.948906 
L 76.010788 -126.115841 
L 75.214551 -126.502643 
L 74.418313 -127.209405 
L 73.622076 -128.34646 
L 72.825838 -129.94422 
L 72.029601 -131.887827 
L 71.233363 -133.902727 
L 70.437126 -135.596604 
L 69.640888 -136.551098 
L 68.844651 -136.451994 
L 68.048413 -135.225866 
L 67.252176 -133.117979 
L 66.455938 -130.649369 
L 65.659701 -128.446136 
L 64.863463 -127.007607 
L 64.067226 -126.536283 
L 63.270988 -126.927375 
L 62.47475 -127.891758 
L 61.678513 -129.100605 
L 60.882275 -130.269503 
L 60.086038 -131.180366 
L 59.2898 -131.681523 
L 58.493563 -131.690741 
L 57.697325 -131.194713 
L 56.901088 -130.240406 
L 56.10485 -128.933493 
L 55.308613 -127.461128 
L 54.512375 -126.120568 
L 53.716138 -125.299216 
L 52.9199 -125.36994 
L 52.123663 -126.53595 
L 51.327425 -128.709242 
L 50.531188 -131.488397 
L 49.73495 -134.243594 
L 48.938713 -136.277456 
L 48.142475 -137.016225 
L 47.346238 -136.189894 
L 46.55 -133.949336 
z
" style="stroke: #377eb8; stroke-opacity: 0.3"/>
    </defs>
    <g clip-path="url(#pd1d1a7a58b)">
     <use xlink:href="#m01c9db75ea" x="0" y="360" style="fill: #377eb8; fill-opacity: 0.3; stroke: #377eb8; stroke-opacity: 0.3"/>
    </g>
   </g>
   <g id="patch_3">
    <path d="M 229.843878 318.2 
L 229.843878 71.241125 
L 331.762281 71.241125 
L 331.762281 318.2 
z
" clip-path="url(#pd1d1a7a58b)" style="fill: #808080; opacity: 0.3"/>
   </g>
   <g id="matplotlib.axis_1">
    <g id="xtick_1">
     <g id="line2d_1">
      <defs>
       <path id="m47b033af31" d="M 0 0 
L 0 3.5 
" style="stroke: #000000; stroke-width: 0.8"/>
      </defs>
      <g>
       <use xlink:href="#m47b033af31" x="87.158114" y="318.2" style="stroke: #000000; stroke-width: 0.8"/>
      </g>
     </g>
     <g id="text_1">
      <!-- 0.0 -->
      <g transform="translate(79.206551 332.798437)scale(0.1 -0.1)">
       <defs>
        <path id="DejaVuSans-30" d="M 2034 4250 
Q 1547 4250 1301 3770 
Q 1056 3291 1056 2328 
Q 1056 1369 1301 889 
Q 1547 409 2034 409 
Q 2525 409 2770 889 
Q 3016 1369 3016 2328 
Q 3016 3291 2770 3770 
Q 2525 4250 2034 4250 
z
M 2034 4750 
Q 2819 4750 3233 4129 
Q 3647 3509 3647 2328 
Q 3647 1150 3233 529 
Q 2819 -91 2034 -91 
Q 1250 -91 836 529 
Q 422 1150 422 2328 
Q 422 3509 836 4129 
Q 1250 4750 2034 4750 
z
" transform="scale(0.015625)"/>
        <path id="DejaVuSans-2e" d="M 684 794 
L 1344 794 
L 1344 0 
L 684 0 
L 684 794 
z
" transform="scale(0.015625)"/>
       </defs>
       <use xlink:href="#DejaVuSans-30"/>
       <use xlink:href="#DejaVuSans-2e" x="63.623047"/>
       <use xlink:href="#DejaVuSans-30" x="95.410156"/>
      </g>
     </g>
    </g>
    <g id="xtick_2">
     <g id="line2d_2">
      <g>
       <use xlink:href="#m47b033af31" x="168.692836" y="318.2" style="stroke: #000000; stroke-width: 0.8"/>
      </g>
     </g>
     <g id="text_2">
      <!-- 0.2 -->
      <g transform="translate(160.741274 332.798437)scale(0.1 -0.1)">
       <defs>
        <path id="DejaVuSans-32" d="M 1228 531 
L 3431 531 
L 3431 0 
L 469 0 
L 469 531 
Q 828 903 1448 1529 
Q 2069 2156 2228 2338 
Q 2531 2678 2651 2914 
Q 2772 3150 2772 3378 
Q 2772 3750 2511 3984 
Q 2250 4219 1831 4219 
Q 1534 4219 1204 4116 
Q 875 4013 500 3803 
L 500 4441 
Q 881 4594 1212 4672 
Q 1544 4750 1819 4750 
Q 2544 4750 2975 4387 
Q 3406 4025 3406 3419 
Q 3406 3131 3298 2873 
Q 3191 2616 2906 2266 
Q 2828 2175 2409 1742 
Q 1991 1309 1228 531 
z
" transform="scale(0.015625)"/>
       </defs>
       <use xlink:href="#DejaVuSans-30"/>
       <use xlink:href="#DejaVuSans-2e" x="63.623047"/>
       <use xlink:href="#DejaVuSans-32" x="95.410156"/>
      </g>
     </g>
    </g>
    <g id="xtick_3">
     <g id="line2d_3">
      <g>
       <use xlink:href="#m47b033af31" x="250.227559" y="318.2" style="stroke: #000000; stroke-width: 0.8"/>
      </g>
     </g>
     <g id="text_3">
      <!-- 0.4 -->
      <g transform="translate(242.275996 332.798437)scale(0.1 -0.1)">
       <defs>
        <path id="DejaVuSans-34" d="M 2419 4116 
L 825 1625 
L 2419 1625 
L 2419 4116 
z
M 2253 4666 
L 3047 4666 
L 3047 1625 
L 3713 1625 
L 3713 1100 
L 3047 1100 
L 3047 0 
L 2419 0 
L 2419 1100 
L 313 1100 
L 313 1709 
L 2253 4666 
z
" transform="scale(0.015625)"/>
       </defs>
       <use xlink:href="#DejaVuSans-30"/>
       <use xlink:href="#DejaVuSans-2e" x="63.623047"/>
       <use xlink:href="#DejaVuSans-34" x="95.410156"/>
      </g>
     </g>
    </g>
    <g id="xtick_4">
     <g id="line2d_4">
      <g>
       <use xlink:href="#m47b033af31" x="331.762281" y="318.2" style="stroke: #000000; stroke-width: 0.8"/>
      </g>
     </g>
     <g id="text_4">
      <!-- 0.6 -->
      <g transform="translate(323.810719 332.798437)scale(0.1 -0.1)">
       <defs>
        <path id="DejaVuSans-36" d="M 2113 2584 
Q 1688 2584 1439 2293 
Q 1191 2003 1191 1497 
Q 1191 994 1439 701 
Q 1688 409 2113 409 
Q 2538 409 2786 701 
Q 3034 994 3034 1497 
Q 3034 2003 2786 2293 
Q 2538 2584 2113 2584 
z
M 3366 4563 
L 3366 3988 
Q 3128 4100 2886 4159 
Q 2644 4219 2406 4219 
Q 1781 4219 1451 3797 
Q 1122 3375 1075 2522 
Q 1259 2794 1537 2939 
Q 1816 3084 2150 3084 
Q 2853 3084 3261 2657 
Q 3669 2231 3669 1497 
Q 3669 778 3244 343 
Q 2819 -91 2113 -91 
Q 1303 -91 875 529 
Q 447 1150 447 2328 
Q 447 3434 972 4092 
Q 1497 4750 2381 4750 
Q 2619 4750 2861 4703 
Q 3103 4656 3366 4563 
z
" transform="scale(0.015625)"/>
       </defs>
       <use xlink:href="#DejaVuSans-30"/>
       <use xlink:href="#DejaVuSans-2e" x="63.623047"/>
       <use xlink:href="#DejaVuSans-36" x="95.410156"/>
      </g>
     </g>
    </g>
    <g id="xtick_5">
     <g id="line2d_5">
      <g>
       <use xlink:href="#m47b033af31" x="413.297004" y="318.2" style="stroke: #000000; stroke-width: 0.8"/>
      </g>
     </g>
     <g id="text_5">
      <!-- 0.8 -->
      <g transform="translate(405.345441 332.798437)scale(0.1 -0.1)">
       <defs>
        <path id="DejaVuSans-38" d="M 2034 2216 
Q 1584 2216 1326 1975 
Q 1069 1734 1069 1313 
Q 1069 891 1326 650 
Q 1584 409 2034 409 
Q 2484 409 2743 651 
Q 3003 894 3003 1313 
Q 3003 1734 2745 1975 
Q 2488 2216 2034 2216 
z
M 1403 2484 
Q 997 2584 770 2862 
Q 544 3141 544 3541 
Q 544 4100 942 4425 
Q 1341 4750 2034 4750 
Q 2731 4750 3128 4425 
Q 3525 4100 3525 3541 
Q 3525 3141 3298 2862 
Q 3072 2584 2669 2484 
Q 3125 2378 3379 2068 
Q 3634 1759 3634 1313 
Q 3634 634 3220 271 
Q 2806 -91 2034 -91 
Q 1263 -91 848 271 
Q 434 634 434 1313 
Q 434 1759 690 2068 
Q 947 2378 1403 2484 
z
M 1172 3481 
Q 1172 3119 1398 2916 
Q 1625 2713 2034 2713 
Q 2441 2713 2670 2916 
Q 2900 3119 2900 3481 
Q 2900 3844 2670 4047 
Q 2441 4250 2034 4250 
Q 1625 4250 1398 4047 
Q 1172 3844 1172 3481 
z
" transform="scale(0.015625)"/>
       </defs>
       <use xlink:href="#DejaVuSans-30"/>
       <use xlink:href="#DejaVuSans-2e" x="63.623047"/>
       <use xlink:href="#DejaVuSans-38" x="95.410156"/>
      </g>
     </g>
    </g>
    <g id="text_6">
     <!-- seconds -->
     <g transform="translate(209.645249 346.476562)scale(0.1 -0.1)">
      <defs>
       <path id="DejaVuSans-73" d="M 2834 3397 
L 2834 2853 
Q 2591 2978 2328 3040 
Q 2066 3103 1784 3103 
Q 1356 3103 1142 2972 
Q 928 2841 928 2578 
Q 928 2378 1081 2264 
Q 1234 2150 1697 2047 
L 1894 2003 
Q 2506 1872 2764 1633 
Q 3022 1394 3022 966 
Q 3022 478 2636 193 
Q 2250 -91 1575 -91 
Q 1294 -91 989 -36 
Q 684 19 347 128 
L 347 722 
Q 666 556 975 473 
Q 1284 391 1588 391 
Q 1994 391 2212 530 
Q 2431 669 2431 922 
Q 2431 1156 2273 1281 
Q 2116 1406 1581 1522 
L 1381 1569 
Q 847 1681 609 1914 
Q 372 2147 372 2553 
Q 372 3047 722 3315 
Q 1072 3584 1716 3584 
Q 2034 3584 2315 3537 
Q 2597 3491 2834 3397 
z
" transform="scale(0.015625)"/>
       <path id="DejaVuSans-65" d="M 3597 1894 
L 3597 1613 
L 953 1613 
Q 991 1019 1311 708 
Q 1631 397 2203 397 
Q 2534 397 2845 478 
Q 3156 559 3463 722 
L 3463 178 
Q 3153 47 2828 -22 
Q 2503 -91 2169 -91 
Q 1331 -91 842 396 
Q 353 884 353 1716 
Q 353 2575 817 3079 
Q 1281 3584 2069 3584 
Q 2775 3584 3186 3129 
Q 3597 2675 3597 1894 
z
M 3022 2063 
Q 3016 2534 2758 2815 
Q 2500 3097 2075 3097 
Q 1594 3097 1305 2825 
Q 1016 2553 972 2059 
L 3022 2063 
z
" transform="scale(0.015625)"/>
       <path id="DejaVuSans-63" d="M 3122 3366 
L 3122 2828 
Q 2878 2963 2633 3030 
Q 2388 3097 2138 3097 
Q 1578 3097 1268 2742 
Q 959 2388 959 1747 
Q 959 1106 1268 751 
Q 1578 397 2138 397 
Q 2388 397 2633 464 
Q 2878 531 3122 666 
L 3122 134 
Q 2881 22 2623 -34 
Q 2366 -91 2075 -91 
Q 1284 -91 818 406 
Q 353 903 353 1747 
Q 353 2603 823 3093 
Q 1294 3584 2113 3584 
Q 2378 3584 2631 3529 
Q 2884 3475 3122 3366 
z
" transform="scale(0.015625)"/>
       <path id="DejaVuSans-6f" d="M 1959 3097 
Q 1497 3097 1228 2736 
Q 959 2375 959 1747 
Q 959 1119 1226 758 
Q 1494 397 1959 397 
Q 2419 397 2687 759 
Q 2956 1122 2956 1747 
Q 2956 2369 2687 2733 
Q 2419 3097 1959 3097 
z
M 1959 3584 
Q 2709 3584 3137 3096 
Q 3566 2609 3566 1747 
Q 3566 888 3137 398 
Q 2709 -91 1959 -91 
Q 1206 -91 779 398 
Q 353 888 353 1747 
Q 353 2609 779 3096 
Q 1206 3584 1959 3584 
z
" transform="scale(0.015625)"/>
       <path id="DejaVuSans-6e" d="M 3513 2113 
L 3513 0 
L 2938 0 
L 2938 2094 
Q 2938 2591 2744 2837 
Q 2550 3084 2163 3084 
Q 1697 3084 1428 2787 
Q 1159 2491 1159 1978 
L 1159 0 
L 581 0 
L 581 3500 
L 1159 3500 
L 1159 2956 
Q 1366 3272 1645 3428 
Q 1925 3584 2291 3584 
Q 2894 3584 3203 3211 
Q 3513 2838 3513 2113 
z
" transform="scale(0.015625)"/>
       <path id="DejaVuSans-64" d="M 2906 2969 
L 2906 4863 
L 3481 4863 
L 3481 0 
L 2906 0 
L 2906 525 
Q 2725 213 2448 61 
Q 2172 -91 1784 -91 
Q 1150 -91 751 415 
Q 353 922 353 1747 
Q 353 2572 751 3078 
Q 1150 3584 1784 3584 
Q 2172 3584 2448 3432 
Q 2725 3281 2906 2969 
z
M 947 1747 
Q 947 1113 1208 752 
Q 1469 391 1925 391 
Q 2381 391 2643 752 
Q 2906 1113 2906 1747 
Q 2906 2381 2643 2742 
Q 2381 3103 1925 3103 
Q 1469 3103 1208 2742 
Q 947 2381 947 1747 
z
" transform="scale(0.015625)"/>
      </defs>
      <use xlink:href="#DejaVuSans-73"/>
      <use xlink:href="#DejaVuSans-65" x="52.099609"/>
      <use xlink:href="#DejaVuSans-63" x="113.623047"/>
      <use xlink:href="#DejaVuSans-6f" x="168.603516"/>
      <use xlink:href="#DejaVuSans-6e" x="229.785156"/>
      <use xlink:href="#DejaVuSans-64" x="293.164062"/>
      <use xlink:href="#DejaVuSans-73" x="356.640625"/>
     </g>
    </g>
   </g>
   <g id="matplotlib.axis_2">
    <g id="ytick_1">
     <g id="line2d_6">
      <defs>
       <path id="mc7709ca914" d="M 0 0 
L -3.5 0 
" style="stroke: #000000; stroke-width: 0.8"/>
      </defs>
      <g>
       <use xlink:href="#mc7709ca914" x="46.55" y="281.610065" style="stroke: #000000; stroke-width: 0.8"/>
      </g>
     </g>
     <g id="text_7">
      <!-- 1 -->
      <g transform="translate(24.807812 285.409284)scale(0.1 -0.1)">
       <defs>
        <path id="DejaVuSans-2212" d="M 678 2272 
L 4684 2272 
L 4684 1741 
L 678 1741 
L 678 2272 
z
" transform="scale(0.015625)"/>
        <path id="DejaVuSans-31" d="M 794 531 
L 1825 531 
L 1825 4091 
L 703 3866 
L 703 4441 
L 1819 4666 
L 2450 4666 
L 2450 531 
L 3481 531 
L 3481 0 
L 794 0 
L 794 531 
z
" transform="scale(0.015625)"/>
       </defs>
       <use xlink:href="#DejaVuSans-2212"/>
       <use xlink:href="#DejaVuSans-31" x="83.789062"/>
      </g>
     </g>
    </g>
    <g id="ytick_2">
     <g id="line2d_7">
      <g>
       <use xlink:href="#mc7709ca914" x="46.55" y="242.282783" style="stroke: #000000; stroke-width: 0.8"/>
      </g>
     </g>
     <g id="text_8">
      <!-- 0 -->
      <g transform="translate(33.1875 246.082002)scale(0.1 -0.1)">
       <use xlink:href="#DejaVuSans-30"/>
      </g>
     </g>
    </g>
    <g id="ytick_3">
     <g id="line2d_8">
      <g>
       <use xlink:href="#mc7709ca914" x="46.55" y="202.955501" style="stroke: #000000; stroke-width: 0.8"/>
      </g>
     </g>
     <g id="text_9">
      <!-- 1 -->
      <g transform="translate(33.1875 206.75472)scale(0.1 -0.1)">
       <use xlink:href="#DejaVuSans-31"/>
      </g>
     </g>
    </g>
    <g id="ytick_4">
     <g id="line2d_9">
      <g>
       <use xlink:href="#mc7709ca914" x="46.55" y="163.628219" style="stroke: #000000; stroke-width: 0.8"/>
      </g>
     </g>
     <g id="text_10">
      <!-- 2 -->
      <g transform="translate(33.1875 167.427437)scale(0.1 -0.1)">
       <use xlink:href="#DejaVuSans-32"/>
      </g>
     </g>
    </g>
    <g id="ytick_5">
     <g id="line2d_10">
      <g>
       <use xlink:href="#mc7709ca914" x="46.55" y="124.300936" style="stroke: #000000; stroke-width: 0.8"/>
      </g>
     </g>
     <g id="text_11">
      <!-- 3 -->
      <g transform="translate(33.1875 128.100155)scale(0.1 -0.1)">
       <defs>
        <path id="DejaVuSans-33" d="M 2597 2516 
Q 3050 2419 3304 2112 
Q 3559 1806 3559 1356 
Q 3559 666 3084 287 
Q 2609 -91 1734 -91 
Q 1441 -91 1130 -33 
Q 819 25 488 141 
L 488 750 
Q 750 597 1062 519 
Q 1375 441 1716 441 
Q 2309 441 2620 675 
Q 2931 909 2931 1356 
Q 2931 1769 2642 2001 
Q 2353 2234 1838 2234 
L 1294 2234 
L 1294 2753 
L 1863 2753 
Q 2328 2753 2575 2939 
Q 2822 3125 2822 3475 
Q 2822 3834 2567 4026 
Q 2313 4219 1838 4219 
Q 1578 4219 1281 4162 
Q 984 4106 628 3988 
L 628 4550 
Q 988 4650 1302 4700 
Q 1616 4750 1894 4750 
Q 2613 4750 3031 4423 
Q 3450 4097 3450 3541 
Q 3450 3153 3228 2886 
Q 3006 2619 2597 2516 
z
" transform="scale(0.015625)"/>
       </defs>
       <use xlink:href="#DejaVuSans-33"/>
      </g>
     </g>
    </g>
    <g id="ytick_6">
     <g id="line2d_11">
      <g>
       <use xlink:href="#mc7709ca914" x="46.55" y="84.973654" style="stroke: #000000; stroke-width: 0.8"/>
      </g>
     </g>
     <g id="text_12">
      <!-- 4 -->
      <g transform="translate(33.1875 88.772873)scale(0.1 -0.1)">
       <use xlink:href="#DejaVuSans-34"/>
      </g>
     </g>
    </g>
    <g id="text_13">
     <!-- V -->
     <g transform="translate(18.728125 201.322125)rotate(-90)scale(0.1 -0.1)">
      <defs>
       <path id="DejaVuSans-b5" d="M 544 -1331 
L 544 3500 
L 1119 3500 
L 1119 1325 
Q 1119 872 1334 640 
Q 1550 409 1972 409 
Q 2434 409 2667 671 
Q 2900 934 2900 1459 
L 2900 3500 
L 3475 3500 
L 3475 806 
Q 3475 619 3529 530 
Q 3584 441 3700 441 
Q 3728 441 3778 458 
Q 3828 475 3916 513 
L 3916 50 
Q 3788 -22 3673 -56 
Q 3559 -91 3450 -91 
Q 3234 -91 3106 31 
Q 2978 153 2931 403 
Q 2775 156 2548 32 
Q 2322 -91 2016 -91 
Q 1697 -91 1473 31 
Q 1250 153 1119 397 
L 1119 -1331 
L 544 -1331 
z
" transform="scale(0.015625)"/>
       <path id="DejaVuSans-56" d="M 1831 0 
L 50 4666 
L 709 4666 
L 2188 738 
L 3669 4666 
L 4325 4666 
L 2547 0 
L 1831 0 
z
" transform="scale(0.015625)"/>
      </defs>
      <use xlink:href="#DejaVuSans-b5"/>
      <use xlink:href="#DejaVuSans-56" x="63.623047"/>
     </g>
    </g>
   </g>
   <g id="line2d_12">
    <path d="M 46.55 260.228025 
L 47.346238 260.31517 
L 48.142475 258.672958 
L 50.531188 250.66751 
L 51.327425 249.567146 
L 52.123663 249.541335 
L 52.9199 249.956701 
L 53.716138 249.922171 
L 54.512375 248.672774 
L 55.308613 245.902793 
L 57.697325 233.649908 
L 58.493563 231.182455 
L 59.2898 230.415669 
L 60.086038 231.092161 
L 61.678513 233.829782 
L 62.47475 234.397776 
L 63.270988 233.974516 
L 64.067226 232.751276 
L 65.659701 229.710686 
L 66.455938 228.557697 
L 68.048413 226.667484 
L 70.437126 222.870336 
L 71.233363 222.80126 
L 72.029601 224.594872 
L 72.825838 228.696437 
L 73.622076 234.929341 
L 75.214551 249.912436 
L 76.010788 255.96518 
L 76.807026 259.606142 
L 77.603263 260.536384 
L 78.399501 259.200412 
L 80.788214 251.440034 
L 81.584451 250.044213 
L 83.973164 247.769166 
L 85.565639 245.161606 
L 86.361876 244.434165 
L 87.158114 244.88453 
L 87.954351 246.726482 
L 90.343064 255.058102 
L 91.139301 255.789806 
L 91.935539 254.716462 
L 93.528014 249.716093 
L 94.324251 248.10057 
L 95.120489 248.451117 
L 95.916727 251.071432 
L 96.712964 255.48149 
L 98.305439 265.037135 
L 99.101677 267.730453 
L 99.897914 268.109384 
L 100.694152 266.310627 
L 101.490389 263.032224 
L 103.082864 255.767641 
L 103.879102 253.172057 
L 104.675339 251.552539 
L 105.471577 250.7101 
L 106.267814 250.346223 
L 107.064052 250.266434 
L 107.860289 250.484475 
L 108.656527 251.187652 
L 109.452764 252.591594 
L 110.249002 254.765673 
L 112.637715 262.902887 
L 113.433952 264.493813 
L 114.23019 264.97456 
L 115.026427 264.476859 
L 116.618902 262.455753 
L 117.41514 262.057154 
L 118.211377 262.533901 
L 119.007615 263.836484 
L 120.60009 267.250808 
L 121.396327 268.202274 
L 122.192565 267.98952 
L 122.988802 266.391144 
L 123.78504 263.464895 
L 125.377515 255.05988 
L 126.173752 250.668072 
L 126.96999 246.937053 
L 127.766228 244.364618 
L 128.562465 243.272377 
L 129.358703 243.739804 
L 130.15494 245.574315 
L 132.543653 254.208212 
L 133.33989 256.204408 
L 134.136128 257.18216 
L 134.932365 257.234913 
L 136.52484 256.229859 
L 137.321078 256.208593 
L 138.117315 256.973152 
L 138.913553 258.498061 
L 140.506028 262.144276 
L 141.302265 262.984284 
L 142.098503 262.373354 
L 142.89474 260.000336 
L 143.690978 255.887291 
L 144.487216 250.380127 
L 146.875928 232.000117 
L 147.672166 227.667732 
L 148.468403 225.213806 
L 149.264641 224.923319 
L 150.060878 226.790231 
L 150.857116 230.480878 
L 153.245828 244.84443 
L 154.042066 247.564003 
L 154.838303 248.024283 
L 155.634541 246.108871 
L 156.430778 242.246591 
L 158.023253 232.499638 
L 158.819491 228.839044 
L 159.615729 227.082091 
L 160.411966 227.409511 
L 161.208204 229.407503 
L 162.800679 234.718977 
L 163.596916 236.015885 
L 164.393154 235.536231 
L 165.189391 233.25482 
L 165.985629 229.647851 
L 167.578104 221.724065 
L 168.374341 218.945458 
L 169.170579 217.487071 
L 169.966816 217.242228 
L 170.763054 217.770719 
L 171.559291 218.464929 
L 172.355529 218.737551 
L 173.151766 218.170366 
L 173.948004 216.587522 
L 174.744241 214.049332 
L 176.336717 207.147468 
L 177.929192 200.141568 
L 178.725429 197.452337 
L 179.521667 195.679298 
L 180.317904 195.001381 
L 181.114142 195.457917 
L 181.910379 196.898905 
L 184.299092 202.796095 
L 185.095329 203.466238 
L 185.891567 202.886239 
L 186.687804 201.154023 
L 188.280279 196.267092 
L 189.076517 194.505537 
L 189.872754 193.931356 
L 190.668992 194.648507 
L 191.46523 196.315739 
L 192.261467 198.251073 
L 193.057705 199.663801 
L 193.853942 199.934027 
L 194.65018 198.8395 
L 195.446417 196.645265 
L 196.242655 194.018682 
L 197.038892 191.796562 
L 197.83513 190.687855 
L 198.631367 191.021185 
L 199.427605 192.630129 
L 201.02008 197.084196 
L 201.816317 198.400863 
L 202.612555 198.475762 
L 203.408792 197.362897 
L 205.001267 193.555706 
L 205.797505 192.088372 
L 206.593742 191.428573 
L 207.38998 191.555233 
L 210.57493 193.914692 
L 211.371168 194.428947 
L 212.167405 195.400917 
L 212.963643 197.10321 
L 215.352355 204.711814 
L 216.148593 206.104292 
L 216.94483 205.953238 
L 217.741068 204.196423 
L 220.12978 195.539572 
L 220.926018 194.502219 
L 221.722255 195.32008 
L 222.518493 197.805437 
L 224.907206 207.803288 
L 225.703443 209.435953 
L 226.499681 209.687684 
L 227.295918 208.803404 
L 228.888393 205.411099 
L 232.869581 196.743992 
L 233.665818 195.07037 
L 234.462056 193.823739 
L 235.258293 193.286709 
L 236.054531 193.560295 
L 237.647006 195.493048 
L 238.443243 196.042026 
L 239.239481 195.530165 
L 240.035719 193.669711 
L 240.831956 190.593869 
L 242.424431 183.224986 
L 243.220669 180.508293 
L 244.016906 179.199911 
L 244.813144 179.347246 
L 245.609381 180.522497 
L 246.405619 181.967293 
L 247.201856 182.848924 
L 247.998094 182.535057 
L 248.794331 180.790221 
L 249.590569 177.828103 
L 251.183044 170.627565 
L 251.979281 167.680739 
L 252.775519 165.69663 
L 253.571756 164.68998 
L 254.367994 164.445548 
L 255.164231 164.682351 
L 255.960469 165.216842 
L 256.756707 166.047556 
L 257.552944 167.322009 
L 258.349182 169.201146 
L 259.941657 174.499747 
L 260.737894 177.080463 
L 261.534132 178.730257 
L 262.330369 178.854275 
L 263.126607 177.213096 
L 263.922844 174.074622 
L 265.515319 166.578172 
L 266.311557 164.188509 
L 267.107794 163.55457 
L 267.904032 164.581924 
L 269.496507 168.390117 
L 270.292744 169.009141 
L 271.088982 167.767623 
L 271.88522 164.70845 
L 273.477695 156.613516 
L 274.273932 154.084707 
L 275.07017 153.914467 
L 275.866407 156.360242 
L 276.662645 160.962574 
L 278.25512 172.489496 
L 279.051357 177.230596 
L 279.847595 180.362769 
L 280.643832 181.756555 
L 281.44007 181.613267 
L 282.236307 180.2425 
L 283.032545 177.870718 
L 283.828782 174.577771 
L 284.62502 170.386002 
L 287.013732 155.329245 
L 287.80997 151.800114 
L 288.606208 150.337408 
L 289.402445 151.209428 
L 290.198683 153.990744 
L 290.99492 157.583857 
L 291.791158 160.500526 
L 292.587395 161.320177 
L 293.383633 159.162078 
L 294.17987 153.992605 
L 296.568583 131.287731 
L 297.36482 126.03262 
L 298.161058 123.308616 
L 298.957295 122.88657 
L 299.753533 124.004998 
L 301.346008 127.392362 
L 302.142245 128.667164 
L 303.73472 130.798986 
L 304.530958 132.227314 
L 306.123433 135.490711 
L 306.919671 136.353249 
L 307.715908 136.031855 
L 308.512146 134.416428 
L 310.104621 129.26092 
L 310.900858 127.462762 
L 311.697096 127.240601 
L 312.493333 128.854986 
L 313.289571 131.984494 
L 314.882046 139.480404 
L 315.678283 142.098727 
L 316.474521 143.330965 
L 317.270758 143.311092 
L 318.863233 141.793077 
L 319.659471 141.578162 
L 320.455709 142.242436 
L 321.251946 143.784611 
L 322.844421 148.438168 
L 324.436896 153.161377 
L 325.233134 155.088854 
L 326.029371 156.617118 
L 326.825609 157.685531 
L 327.621846 158.264091 
L 328.418084 158.423342 
L 329.214321 158.409933 
L 330.010559 158.665677 
L 330.806796 159.745183 
L 331.603034 162.133948 
L 332.399271 166.0247 
L 334.787984 181.738562 
L 335.584221 185.04841 
L 336.380459 185.967013 
L 337.176697 184.44823 
L 339.565409 174.837142 
L 340.361647 174.497385 
L 341.157884 177.099722 
L 341.954122 182.451633 
L 344.342834 203.581468 
L 345.139072 207.802391 
L 345.935309 209.26876 
L 346.731547 208.115207 
L 347.527784 205.019759 
L 349.120259 196.934456 
L 349.916497 193.748577 
L 350.712734 191.880811 
L 351.508972 191.462999 
L 352.30521 192.331792 
L 353.101447 194.121067 
L 354.693922 198.57587 
L 355.49016 200.352455 
L 356.286397 201.414109 
L 357.082635 201.656588 
L 357.878872 201.155872 
L 358.67511 200.12964 
L 361.86006 195.068298 
L 362.656297 193.530703 
L 363.452535 191.424931 
L 364.248772 188.561215 
L 365.841247 180.999061 
L 366.637485 177.184021 
L 367.433722 174.1858 
L 368.22996 172.550761 
L 369.026198 172.534249 
L 369.822435 173.996011 
L 372.211148 181.132892 
L 373.007385 182.140419 
L 373.803623 181.955972 
L 375.396098 179.770507 
L 376.192335 179.37594 
L 376.988573 180.525642 
L 377.78481 183.654184 
L 378.581048 188.697434 
L 380.96976 208.107298 
L 381.765998 212.852871 
L 382.562235 215.687972 
L 383.358473 216.659228 
L 384.15471 216.246335 
L 385.747186 214.11144 
L 386.543423 213.52584 
L 387.339661 213.481332 
L 388.135898 213.7141 
L 388.932136 213.789238 
L 389.728373 213.324486 
L 390.524611 212.175992 
L 392.913323 207.188435 
L 393.709561 206.211218 
L 395.302036 205.270412 
L 396.098273 204.39964 
L 396.894511 202.665391 
L 397.690748 199.982648 
L 399.283223 193.513235 
L 400.079461 191.19879 
L 400.875699 190.301484 
L 401.671936 190.879771 
L 403.264411 194.101135 
L 404.060649 194.908641 
L 404.856886 194.210843 
L 405.653124 191.902416 
L 408.041836 181.554921 
L 408.838074 179.520802 
L 409.634311 178.649643 
L 411.226786 178.429875 
L 412.023024 177.889219 
L 412.819261 176.749662 
L 413.615499 175.359997 
L 413.615499 175.359997 
" clip-path="url(#pd1d1a7a58b)" style="fill: none; stroke: #e41a1c; stroke-width: 1.5; stroke-linecap: square"/>
   </g>
   <g id="line2d_13">
    <path d="M 46.55 239.49558 
L 47.346238 237.060656 
L 48.142475 236.037463 
L 48.938713 236.593283 
L 49.73495 238.455764 
L 51.327425 243.547481 
L 52.123663 245.410401 
L 52.9199 246.244636 
L 53.716138 246.015011 
L 54.512375 244.958096 
L 56.901088 240.542555 
L 57.697325 239.589808 
L 58.493563 239.091214 
L 59.2898 239.054724 
L 60.086038 239.459761 
L 60.882275 240.25054 
L 63.270988 243.243775 
L 64.067226 243.510051 
L 64.863463 242.96718 
L 65.659701 241.572807 
L 68.048413 235.316166 
L 68.844651 234.152798 
L 69.640888 234.054175 
L 70.437126 235.010853 
L 71.233363 236.747477 
L 72.825838 240.831636 
L 73.622076 242.442572 
L 74.418313 243.557417 
L 75.214551 244.236436 
L 76.010788 244.615924 
L 76.807026 244.803397 
L 77.603263 244.81585 
L 78.399501 244.593203 
L 79.195739 244.08011 
L 80.788214 242.581611 
L 81.584451 242.221801 
L 82.380689 242.686189 
L 83.176926 244.272625 
L 83.973164 246.976826 
L 85.565639 253.883833 
L 86.361876 256.552129 
L 87.158114 257.727768 
L 87.954351 257.104551 
L 88.750589 254.896457 
L 90.343064 248.816791 
L 91.139301 246.920151 
L 91.935539 246.797169 
L 92.731776 248.632154 
L 93.528014 252.073743 
L 95.120489 260.583822 
L 95.916727 263.924771 
L 96.712964 265.905671 
L 97.509202 266.465854 
L 98.305439 265.923457 
L 99.897914 263.759568 
L 100.694152 263.164803 
L 101.490389 263.242261 
L 102.286627 263.933674 
L 103.879102 266.057723 
L 104.675339 266.831311 
L 105.471577 267.095797 
L 106.267814 266.787207 
L 107.064052 265.983972 
L 109.452764 262.629694 
L 110.249002 261.899543 
L 111.04524 261.56166 
L 111.841477 261.583496 
L 113.433952 262.092261 
L 114.23019 262.137433 
L 115.026427 261.768484 
L 115.822665 260.882851 
L 116.618902 259.511314 
L 119.007615 254.622224 
L 119.803852 253.681983 
L 120.60009 253.406932 
L 121.396327 253.765472 
L 123.78504 256.217073 
L 124.581277 256.516228 
L 125.377515 256.308228 
L 127.766228 254.534717 
L 128.562465 254.617578 
L 129.358703 255.418055 
L 130.15494 256.901633 
L 132.543653 262.761064 
L 133.33989 264.201555 
L 134.136128 265.221931 
L 135.728603 266.885354 
L 136.52484 268.137446 
L 137.321078 269.926107 
L 139.70979 276.722114 
L 140.506028 278.113578 
L 141.302265 278.473221 
L 142.098503 277.763611 
L 142.89474 276.219683 
L 144.487216 272.369062 
L 145.283453 270.870395 
L 146.079691 269.878713 
L 147.672166 268.64647 
L 148.468403 267.719377 
L 149.264641 266.227637 
L 150.060878 264.1642 
L 151.653353 259.460167 
L 152.449591 257.676485 
L 153.245828 256.741707 
L 154.042066 256.749791 
L 154.838303 257.541597 
L 156.430778 259.986835 
L 157.227016 260.829572 
L 158.023253 261.056722 
L 158.819491 260.613175 
L 159.615729 259.600497 
L 161.208204 256.684151 
L 162.800679 253.961253 
L 163.596916 253.058698 
L 164.393154 252.591103 
L 165.189391 252.600172 
L 165.985629 253.05797 
L 168.374341 255.431709 
L 169.170579 255.660983 
L 169.966816 255.224848 
L 170.763054 254.10216 
L 173.151766 249.154507 
L 173.948004 248.235124 
L 174.744241 248.11522 
L 175.540479 248.75944 
L 177.132954 251.30408 
L 177.929192 252.549045 
L 178.725429 253.477021 
L 179.521667 254.068744 
L 181.114142 254.834525 
L 181.910379 255.377631 
L 183.502854 257.066908 
L 184.299092 257.968793 
L 185.095329 258.644757 
L 185.891567 258.927861 
L 186.687804 258.737916 
L 187.484042 258.089629 
L 188.280279 257.068042 
L 189.872754 254.38518 
L 191.46523 251.697874 
L 192.261467 250.719799 
L 193.057705 250.222598 
L 193.853942 250.371329 
L 194.65018 251.256669 
L 195.446417 252.840908 
L 198.631367 261.010133 
L 199.427605 262.004308 
L 200.223842 262.333971 
L 201.02008 262.148263 
L 203.408792 260.805798 
L 204.20503 260.62815 
L 205.001267 260.634754 
L 206.593742 261.00619 
L 209.778693 262.15125 
L 210.57493 261.955504 
L 211.371168 261.172345 
L 212.167405 259.668514 
L 212.963643 257.494708 
L 214.556118 252.475313 
L 215.352355 250.689069 
L 216.148593 250.072378 
L 216.94483 250.885651 
L 217.741068 253.059848 
L 219.333543 259.715335 
L 220.12978 262.949249 
L 220.926018 265.397914 
L 221.722255 266.808621 
L 222.518493 267.21326 
L 223.31473 266.870226 
L 224.907206 265.434402 
L 225.703443 265.002921 
L 226.499681 265.035456 
L 227.295918 265.61164 
L 228.092156 266.746367 
L 228.888393 268.410942 
L 230.480868 272.956781 
L 232.073343 277.772394 
L 232.869581 279.574747 
L 233.665818 280.660729 
L 234.462056 280.980013 
L 235.258293 280.685181 
L 236.850768 279.628952 
L 237.647006 279.608878 
L 238.443243 280.203984 
L 239.239481 281.340764 
L 240.831956 284.019415 
L 241.628194 284.843833 
L 242.424431 285.035186 
L 243.220669 284.624952 
L 244.813144 282.868958 
L 246.405619 281.265564 
L 247.998094 279.781052 
L 248.794331 278.704767 
L 251.183044 274.550019 
L 251.979281 273.794197 
L 252.775519 273.844652 
L 253.571756 274.755345 
L 254.367994 276.328508 
L 255.960469 279.755488 
L 256.756707 280.681055 
L 257.552944 280.681949 
L 258.349182 279.742923 
L 259.145419 278.067899 
L 261.534132 272.03802 
L 262.330369 270.59601 
L 263.126607 269.587557 
L 263.922844 268.940161 
L 264.719082 268.54017 
L 266.311557 268.089224 
L 267.904032 267.829787 
L 268.700269 267.8101 
L 269.496507 267.943222 
L 270.292744 268.315317 
L 271.088982 269.018354 
L 271.88522 270.123734 
L 272.681457 271.645952 
L 275.866407 278.844565 
L 276.662645 279.563344 
L 277.458882 279.417314 
L 278.25512 278.44828 
L 280.643832 273.567591 
L 281.44007 272.582622 
L 282.236307 272.368463 
L 283.032545 272.920913 
L 283.828782 274.044141 
L 285.421257 276.671541 
L 286.217495 277.511824 
L 287.013732 277.75075 
L 287.80997 277.346856 
L 288.606208 276.385289 
L 290.198683 273.499807 
L 291.791158 270.613456 
L 292.587395 269.539686 
L 293.383633 268.829962 
L 294.17987 268.532631 
L 294.976108 268.671693 
L 295.772345 269.245958 
L 296.568583 270.222516 
L 298.161058 273.026724 
L 299.753533 275.814552 
L 300.54977 276.589171 
L 301.346008 276.603889 
L 302.142245 275.673355 
L 302.938483 273.744063 
L 303.73472 270.939682 
L 306.123433 261.08786 
L 306.919671 258.993786 
L 307.715908 258.143417 
L 308.512146 258.585177 
L 309.308383 260.068088 
L 310.900858 263.999439 
L 311.697096 265.18095 
L 312.493333 265.181078 
L 313.289571 263.83229 
L 314.085808 261.287322 
L 316.474521 251.503384 
L 317.270758 249.524379 
L 318.066996 248.91848 
L 318.863233 249.800333 
L 319.659471 252.046916 
L 320.455709 255.337596 
L 322.844421 266.739651 
L 323.640659 269.496084 
L 324.436896 271.205907 
L 325.233134 271.805815 
L 326.029371 271.416316 
L 326.825609 270.307844 
L 328.418084 267.368223 
L 329.214321 266.199513 
L 330.010559 265.513338 
L 330.806796 265.361172 
L 331.603034 265.682872 
L 332.399271 266.348557 
L 334.787984 268.920107 
L 335.584221 269.542866 
L 336.380459 269.872992 
L 337.176697 269.83112 
L 337.972934 269.382086 
L 338.769172 268.56841 
L 340.361647 266.519718 
L 341.157884 265.81477 
L 341.954122 265.680231 
L 342.750359 266.261073 
L 343.546597 267.525246 
L 345.935309 272.709593 
L 346.731547 273.777391 
L 347.527784 274.197762 
L 348.324022 274.044152 
L 349.916497 272.892293 
L 351.508972 271.896935 
L 353.101447 271.098146 
L 353.897685 270.496202 
L 356.286397 268.34175 
L 357.082635 268.208246 
L 357.878872 268.679809 
L 358.67511 269.736726 
L 361.063822 273.924428 
L 361.86006 274.659219 
L 362.656297 274.825494 
L 363.452535 274.535627 
L 365.04501 273.540209 
L 365.841247 273.274366 
L 366.637485 273.274829 
L 368.22996 273.629362 
L 369.026198 273.595744 
L 369.822435 273.189995 
L 370.618673 272.33376 
L 371.41491 271.042443 
L 373.007385 267.57118 
L 374.59986 263.943945 
L 375.396098 262.473161 
L 376.192335 261.406558 
L 376.988573 260.81487 
L 377.78481 260.68969 
L 378.581048 260.931048 
L 380.173523 261.775902 
L 380.96976 262.010935 
L 383.358473 261.982083 
L 384.15471 262.532724 
L 384.950948 263.868253 
L 385.747186 266.108506 
L 387.339661 272.474488 
L 388.135898 275.587787 
L 388.932136 277.807548 
L 389.728373 278.618747 
L 390.524611 277.784319 
L 391.320848 275.415544 
L 392.913323 268.006388 
L 393.709561 264.269824 
L 394.505798 261.269081 
L 395.302036 259.286934 
L 396.098273 258.317945 
L 396.894511 258.115841 
L 398.486986 258.502804 
L 399.283223 258.454576 
L 400.079461 258.075778 
L 401.671936 256.815686 
L 402.468174 256.375995 
L 403.264411 256.305361 
L 404.060649 256.638722 
L 406.449361 258.506668 
L 407.245599 258.646995 
L 408.041836 258.285104 
L 408.838074 257.440284 
L 410.430549 254.912741 
L 411.226786 253.64057 
L 412.023024 252.585173 
L 412.819261 251.812963 
L 413.615499 251.301319 
L 413.615499 251.301319 
" clip-path="url(#pd1d1a7a58b)" style="fill: none; stroke: #377eb8; stroke-width: 1.5; stroke-linecap: square"/>
   </g>
   <g id="line2d_14">
    <path d="M 87.158114 318.2 
L 87.158114 71.241125 
" clip-path="url(#pd1d1a7a58b)" style="fill: none; stroke: #000000; stroke-width: 0.5; stroke-linecap: square"/>
   </g>
   <g id="line2d_15">
    <path d="M 46.55 242.282783 
L 413.615499 242.282783 
" clip-path="url(#pd1d1a7a58b)" style="fill: none; stroke: #000000; stroke-width: 0.5; stroke-linecap: square"/>
   </g>
   <g id="patch_4">
    <path d="M 46.55 318.2 
L 46.55 71.241125 
" style="fill: none; stroke: #000000; stroke-width: 0.8; stroke-linejoin: miter; stroke-linecap: square"/>
   </g>
   <g id="patch_5">
    <path d="M 413.615499 318.2 
L 413.615499 71.241125 
" style="fill: none; stroke: #000000; stroke-width: 0.8; stroke-linejoin: miter; stroke-linecap: square"/>
   </g>
   <g id="patch_6">
    <path d="M 46.55 318.2 
L 413.615499 318.2 
" style="fill: none; stroke: #000000; stroke-width: 0.8; stroke-linejoin: miter; stroke-linecap: square"/>
   </g>
   <g id="patch_7">
    <path d="M 46.55 71.241125 
L 413.615499 71.241125 
" style="fill: none; stroke: #000000; stroke-width: 0.8; stroke-linejoin: miter; stroke-linecap: square"/>
   </g>
   <g id="text_14">
    <!-- Cz -->
    <g transform="translate(222.743999 65.241125)scale(0.12 -0.12)">
     <defs>
      <path id="DejaVuSans-43" d="M 4122 4306 
L 4122 3641 
Q 3803 3938 3442 4084 
Q 3081 4231 2675 4231 
Q 1875 4231 1450 3742 
Q 1025 3253 1025 2328 
Q 1025 1406 1450 917 
Q 1875 428 2675 428 
Q 3081 428 3442 575 
Q 3803 722 4122 1019 
L 4122 359 
Q 3791 134 3420 21 
Q 3050 -91 2638 -91 
Q 1578 -91 968 557 
Q 359 1206 359 2328 
Q 359 3453 968 4101 
Q 1578 4750 2638 4750 
Q 3056 4750 3426 4639 
Q 3797 4528 4122 4306 
z
" transform="scale(0.015625)"/>
      <path id="DejaVuSans-7a" d="M 353 3500 
L 3084 3500 
L 3084 2975 
L 922 459 
L 3084 459 
L 3084 0 
L 275 0 
L 275 525 
L 2438 3041 
L 353 3041 
L 353 3500 
z
" transform="scale(0.015625)"/>
     </defs>
     <use xlink:href="#DejaVuSans-43"/>
     <use xlink:href="#DejaVuSans-7a" x="69.824219"/>
    </g>
   </g>
   <g id="legend_1">
    <g id="patch_8">
     <path d="M 99.855406 48.044893 
L 360.310093 48.044893 
Q 362.310093 48.044893 362.310093 46.044893 
L 362.310093 17.410517 
Q 362.310093 15.410517 360.310093 15.410517 
L 99.855406 15.410517 
Q 97.855406 15.410517 97.855406 17.410517 
L 97.855406 46.044893 
Q 97.855406 48.044893 99.855406 48.044893 
z
" style="fill: #ffffff; opacity: 0.8; stroke: #cccccc; stroke-linejoin: miter"/>
    </g>
    <g id="text_15">
     <!-- Average of Session 12_tac4 -->
     <g transform="translate(161.068687 27.008955)scale(0.1 -0.1)">
      <defs>
       <path id="DejaVuSans-41" d="M 2188 4044 
L 1331 1722 
L 3047 1722 
L 2188 4044 
z
M 1831 4666 
L 2547 4666 
L 4325 0 
L 3669 0 
L 3244 1197 
L 1141 1197 
L 716 0 
L 50 0 
L 1831 4666 
z
" transform="scale(0.015625)"/>
       <path id="DejaVuSans-76" d="M 191 3500 
L 800 3500 
L 1894 563 
L 2988 3500 
L 3597 3500 
L 2284 0 
L 1503 0 
L 191 3500 
z
" transform="scale(0.015625)"/>
       <path id="DejaVuSans-72" d="M 2631 2963 
Q 2534 3019 2420 3045 
Q 2306 3072 2169 3072 
Q 1681 3072 1420 2755 
Q 1159 2438 1159 1844 
L 1159 0 
L 581 0 
L 581 3500 
L 1159 3500 
L 1159 2956 
Q 1341 3275 1631 3429 
Q 1922 3584 2338 3584 
Q 2397 3584 2469 3576 
Q 2541 3569 2628 3553 
L 2631 2963 
z
" transform="scale(0.015625)"/>
       <path id="DejaVuSans-61" d="M 2194 1759 
Q 1497 1759 1228 1600 
Q 959 1441 959 1056 
Q 959 750 1161 570 
Q 1363 391 1709 391 
Q 2188 391 2477 730 
Q 2766 1069 2766 1631 
L 2766 1759 
L 2194 1759 
z
M 3341 1997 
L 3341 0 
L 2766 0 
L 2766 531 
Q 2569 213 2275 61 
Q 1981 -91 1556 -91 
Q 1019 -91 701 211 
Q 384 513 384 1019 
Q 384 1609 779 1909 
Q 1175 2209 1959 2209 
L 2766 2209 
L 2766 2266 
Q 2766 2663 2505 2880 
Q 2244 3097 1772 3097 
Q 1472 3097 1187 3025 
Q 903 2953 641 2809 
L 641 3341 
Q 956 3463 1253 3523 
Q 1550 3584 1831 3584 
Q 2591 3584 2966 3190 
Q 3341 2797 3341 1997 
z
" transform="scale(0.015625)"/>
       <path id="DejaVuSans-67" d="M 2906 1791 
Q 2906 2416 2648 2759 
Q 2391 3103 1925 3103 
Q 1463 3103 1205 2759 
Q 947 2416 947 1791 
Q 947 1169 1205 825 
Q 1463 481 1925 481 
Q 2391 481 2648 825 
Q 2906 1169 2906 1791 
z
M 3481 434 
Q 3481 -459 3084 -895 
Q 2688 -1331 1869 -1331 
Q 1566 -1331 1297 -1286 
Q 1028 -1241 775 -1147 
L 775 -588 
Q 1028 -725 1275 -790 
Q 1522 -856 1778 -856 
Q 2344 -856 2625 -561 
Q 2906 -266 2906 331 
L 2906 616 
Q 2728 306 2450 153 
Q 2172 0 1784 0 
Q 1141 0 747 490 
Q 353 981 353 1791 
Q 353 2603 747 3093 
Q 1141 3584 1784 3584 
Q 2172 3584 2450 3431 
Q 2728 3278 2906 2969 
L 2906 3500 
L 3481 3500 
L 3481 434 
z
" transform="scale(0.015625)"/>
       <path id="DejaVuSans-20" transform="scale(0.015625)"/>
       <path id="DejaVuSans-66" d="M 2375 4863 
L 2375 4384 
L 1825 4384 
Q 1516 4384 1395 4259 
Q 1275 4134 1275 3809 
L 1275 3500 
L 2222 3500 
L 2222 3053 
L 1275 3053 
L 1275 0 
L 697 0 
L 697 3053 
L 147 3053 
L 147 3500 
L 697 3500 
L 697 3744 
Q 697 4328 969 4595 
Q 1241 4863 1831 4863 
L 2375 4863 
z
" transform="scale(0.015625)"/>
       <path id="DejaVuSans-53" d="M 3425 4513 
L 3425 3897 
Q 3066 4069 2747 4153 
Q 2428 4238 2131 4238 
Q 1616 4238 1336 4038 
Q 1056 3838 1056 3469 
Q 1056 3159 1242 3001 
Q 1428 2844 1947 2747 
L 2328 2669 
Q 3034 2534 3370 2195 
Q 3706 1856 3706 1288 
Q 3706 609 3251 259 
Q 2797 -91 1919 -91 
Q 1588 -91 1214 -16 
Q 841 59 441 206 
L 441 856 
Q 825 641 1194 531 
Q 1563 422 1919 422 
Q 2459 422 2753 634 
Q 3047 847 3047 1241 
Q 3047 1584 2836 1778 
Q 2625 1972 2144 2069 
L 1759 2144 
Q 1053 2284 737 2584 
Q 422 2884 422 3419 
Q 422 4038 858 4394 
Q 1294 4750 2059 4750 
Q 2388 4750 2728 4690 
Q 3069 4631 3425 4513 
z
" transform="scale(0.015625)"/>
       <path id="DejaVuSans-69" d="M 603 3500 
L 1178 3500 
L 1178 0 
L 603 0 
L 603 3500 
z
M 603 4863 
L 1178 4863 
L 1178 4134 
L 603 4134 
L 603 4863 
z
" transform="scale(0.015625)"/>
       <path id="DejaVuSans-5f" d="M 3263 -1063 
L 3263 -1509 
L -63 -1509 
L -63 -1063 
L 3263 -1063 
z
" transform="scale(0.015625)"/>
       <path id="DejaVuSans-74" d="M 1172 4494 
L 1172 3500 
L 2356 3500 
L 2356 3053 
L 1172 3053 
L 1172 1153 
Q 1172 725 1289 603 
Q 1406 481 1766 481 
L 2356 481 
L 2356 0 
L 1766 0 
Q 1100 0 847 248 
Q 594 497 594 1153 
L 594 3053 
L 172 3053 
L 172 3500 
L 594 3500 
L 594 4494 
L 1172 4494 
z
" transform="scale(0.015625)"/>
      </defs>
      <use xlink:href="#DejaVuSans-41"/>
      <use xlink:href="#DejaVuSans-76" x="62.533203"/>
      <use xlink:href="#DejaVuSans-65" x="121.712891"/>
      <use xlink:href="#DejaVuSans-72" x="183.236328"/>
      <use xlink:href="#DejaVuSans-61" x="224.349609"/>
      <use xlink:href="#DejaVuSans-67" x="285.628906"/>
      <use xlink:href="#DejaVuSans-65" x="349.105469"/>
      <use xlink:href="#DejaVuSans-20" x="410.628906"/>
      <use xlink:href="#DejaVuSans-6f" x="442.416016"/>
      <use xlink:href="#DejaVuSans-66" x="503.597656"/>
      <use xlink:href="#DejaVuSans-20" x="538.802734"/>
      <use xlink:href="#DejaVuSans-53" x="570.589844"/>
      <use xlink:href="#DejaVuSans-65" x="634.066406"/>
      <use xlink:href="#DejaVuSans-73" x="695.589844"/>
      <use xlink:href="#DejaVuSans-73" x="747.689453"/>
      <use xlink:href="#DejaVuSans-69" x="799.789062"/>
      <use xlink:href="#DejaVuSans-6f" x="827.572266"/>
      <use xlink:href="#DejaVuSans-6e" x="888.753906"/>
      <use xlink:href="#DejaVuSans-20" x="952.132812"/>
      <use xlink:href="#DejaVuSans-31" x="983.919922"/>
      <use xlink:href="#DejaVuSans-32" x="1047.542969"/>
      <use xlink:href="#DejaVuSans-5f" x="1111.166016"/>
      <use xlink:href="#DejaVuSans-74" x="1161.166016"/>
      <use xlink:href="#DejaVuSans-61" x="1200.375"/>
      <use xlink:href="#DejaVuSans-63" x="1261.654297"/>
      <use xlink:href="#DejaVuSans-34" x="1316.634766"/>
     </g>
    </g>
    <g id="line2d_16">
     <path d="M 101.855406 38.465205 
L 111.855406 38.465205 
L 121.855406 38.465205 
" style="fill: none; stroke: #e41a1c; stroke-width: 1.5; stroke-linecap: square"/>
    </g>
    <g id="text_16">
     <!-- Target (n=416) -->
     <g transform="translate(129.855406 41.965205)scale(0.1 -0.1)">
      <defs>
       <path id="DejaVuSans-54" d="M -19 4666 
L 3928 4666 
L 3928 4134 
L 2272 4134 
L 2272 0 
L 1638 0 
L 1638 4134 
L -19 4134 
L -19 4666 
z
" transform="scale(0.015625)"/>
       <path id="DejaVuSans-28" d="M 1984 4856 
Q 1566 4138 1362 3434 
Q 1159 2731 1159 2009 
Q 1159 1288 1364 580 
Q 1569 -128 1984 -844 
L 1484 -844 
Q 1016 -109 783 600 
Q 550 1309 550 2009 
Q 550 2706 781 3412 
Q 1013 4119 1484 4856 
L 1984 4856 
z
" transform="scale(0.015625)"/>
       <path id="DejaVuSans-3d" d="M 678 2906 
L 4684 2906 
L 4684 2381 
L 678 2381 
L 678 2906 
z
M 678 1631 
L 4684 1631 
L 4684 1100 
L 678 1100 
L 678 1631 
z
" transform="scale(0.015625)"/>
       <path id="DejaVuSans-29" d="M 513 4856 
L 1013 4856 
Q 1481 4119 1714 3412 
Q 1947 2706 1947 2009 
Q 1947 1309 1714 600 
Q 1481 -109 1013 -844 
L 513 -844 
Q 928 -128 1133 580 
Q 1338 1288 1338 2009 
Q 1338 2731 1133 3434 
Q 928 4138 513 4856 
z
" transform="scale(0.015625)"/>
      </defs>
      <use xlink:href="#DejaVuSans-54"/>
      <use xlink:href="#DejaVuSans-61" x="44.583984"/>
      <use xlink:href="#DejaVuSans-72" x="105.863281"/>
      <use xlink:href="#DejaVuSans-67" x="145.226562"/>
      <use xlink:href="#DejaVuSans-65" x="208.703125"/>
      <use xlink:href="#DejaVuSans-74" x="270.226562"/>
      <use xlink:href="#DejaVuSans-20" x="309.435547"/>
      <use xlink:href="#DejaVuSans-28" x="341.222656"/>
      <use xlink:href="#DejaVuSans-6e" x="380.236328"/>
      <use xlink:href="#DejaVuSans-3d" x="443.615234"/>
      <use xlink:href="#DejaVuSans-34" x="527.404297"/>
      <use xlink:href="#DejaVuSans-31" x="591.027344"/>
      <use xlink:href="#DejaVuSans-36" x="654.650391"/>
      <use xlink:href="#DejaVuSans-29" x="718.273438"/>
     </g>
    </g>
    <g id="line2d_17">
     <path d="M 225.585093 38.465205 
L 235.585093 38.465205 
L 245.585093 38.465205 
" style="fill: none; stroke: #377eb8; stroke-width: 1.5; stroke-linecap: square"/>
    </g>
    <g id="text_17">
     <!-- Non-Target (n=1246) -->
     <g transform="translate(253.585093 41.965205)scale(0.1 -0.1)">
      <defs>
       <path id="DejaVuSans-4e" d="M 628 4666 
L 1478 4666 
L 3547 763 
L 3547 4666 
L 4159 4666 
L 4159 0 
L 3309 0 
L 1241 3903 
L 1241 0 
L 628 0 
L 628 4666 
z
" transform="scale(0.015625)"/>
       <path id="DejaVuSans-2d" d="M 313 2009 
L 1997 2009 
L 1997 1497 
L 313 1497 
L 313 2009 
z
" transform="scale(0.015625)"/>
      </defs>
      <use xlink:href="#DejaVuSans-4e"/>
      <use xlink:href="#DejaVuSans-6f" x="74.804688"/>
      <use xlink:href="#DejaVuSans-6e" x="135.986328"/>
      <use xlink:href="#DejaVuSans-2d" x="199.365234"/>
      <use xlink:href="#DejaVuSans-54" x="226.324219"/>
      <use xlink:href="#DejaVuSans-61" x="270.908203"/>
      <use xlink:href="#DejaVuSans-72" x="332.1875"/>
      <use xlink:href="#DejaVuSans-67" x="371.550781"/>
      <use xlink:href="#DejaVuSans-65" x="435.027344"/>
      <use xlink:href="#DejaVuSans-74" x="496.550781"/>
      <use xlink:href="#DejaVuSans-20" x="535.759766"/>
      <use xlink:href="#DejaVuSans-28" x="567.546875"/>
      <use xlink:href="#DejaVuSans-6e" x="606.560547"/>
      <use xlink:href="#DejaVuSans-3d" x="669.939453"/>
      <use xlink:href="#DejaVuSans-31" x="753.728516"/>
      <use xlink:href="#DejaVuSans-32" x="817.351562"/>
      <use xlink:href="#DejaVuSans-34" x="880.974609"/>
      <use xlink:href="#DejaVuSans-36" x="944.597656"/>
      <use xlink:href="#DejaVuSans-29" x="1008.220703"/>
     </g>
    </g>
   </g>
  </g>
 </g>
 <defs>
  <clipPath id="pd1d1a7a58b">
   <rect x="46.55" y="71.241125" width="367.065499" height="246.958875"/>
  </clipPath>
 </defs>
</svg>
