<?xml version="1.0" encoding="utf-8" standalone="no"?>
<!DOCTYPE svg PUBLIC "-//W3C//DTD SVG 1.1//EN"
  "http://www.w3.org/Graphics/SVG/1.1/DTD/svg11.dtd">
<svg xmlns:xlink="http://www.w3.org/1999/xlink" width="432pt" height="360pt" viewBox="0 0 432 360" xmlns="http://www.w3.org/2000/svg" version="1.1">
 <metadata>
  <rdf:RDF xmlns:dc="http://purl.org/dc/elements/1.1/" xmlns:cc="http://creativecommons.org/ns#" xmlns:rdf="http://www.w3.org/1999/02/22-rdf-syntax-ns#">
   <cc:Work>
    <dc:type rdf:resource="http://purl.org/dc/dcmitype/StillImage"/>
    <dc:date>2022-11-02T16:57:09.708221</dc:date>
    <dc:format>image/svg+xml</dc:format>
    <dc:creator>
     <cc:Agent>
      <dc:title>Matplotlib v3.5.1, https://matplotlib.org/</dc:title>
     </cc:Agent>
    </dc:creator>
   </cc:Work>
  </rdf:RDF>
 </metadata>
 <defs>
  <style type="text/css">*{stroke-linejoin: round; stroke-linecap: butt}</style>
 </defs>
 <g id="figure_1">
  <g id="patch_1">
   <path d="M 0 360 
L 432 360 
L 432 0 
L 0 0 
L 0 360 
z
" style="fill: none"/>
  </g>
  <g id="axes_1">
   <g id="patch_2">
    <path d="M 46.55 318.2 
L 413.615499 318.2 
L 413.615499 71.241125 
L 46.55 71.241125 
L 46.55 318.2 
z
" style="fill: none"/>
   </g>
   <g id="PolyCollection_1">
    <defs>
     <path id="m136c97b5c7" d="M 46.55 -138.181587 
L 46.55 -102.363056 
L 47.346238 -102.58198 
L 48.142475 -102.478723 
L 48.938713 -102.573064 
L 49.73495 -103.284387 
L 50.531188 -104.700389 
L 51.327425 -106.499375 
L 52.123663 -108.110083 
L 52.9199 -109.013688 
L 53.716138 -108.974853 
L 54.512375 -108.06942 
L 55.308613 -106.563586 
L 56.10485 -104.786253 
L 56.901088 -103.078285 
L 57.697325 -101.758335 
L 58.493563 -100.994793 
L 59.2898 -100.657536 
L 60.086038 -100.32689 
L 60.882275 -99.492593 
L 61.678513 -97.828254 
L 62.47475 -95.378082 
L 63.270988 -92.540901 
L 64.067226 -89.881382 
L 64.863463 -87.905954 
L 65.659701 -86.910515 
L 66.455938 -86.92044 
L 67.252176 -87.701024 
L 68.048413 -88.82814 
L 68.844651 -89.822739 
L 69.640888 -90.320966 
L 70.437126 -90.199061 
L 71.233363 -89.57984 
L 72.029601 -88.737893 
L 72.825838 -87.985067 
L 73.622076 -87.581449 
L 74.418313 -87.658512 
L 75.214551 -88.149401 
L 76.010788 -88.773233 
L 76.807026 -89.12765 
L 77.603263 -88.864558 
L 78.399501 -87.826374 
L 79.195739 -86.049094 
L 79.991976 -83.680992 
L 80.788214 -80.925471 
L 81.584451 -78.052886 
L 82.380689 -75.435807 
L 83.176926 -73.513137 
L 83.973164 -72.650071 
L 84.769401 -72.984867 
L 85.565639 -74.382977 
L 86.361876 -76.527646 
L 87.158114 -79.06165 
L 87.954351 -81.666038 
L 88.750589 -84.057083 
L 89.546826 -85.973836 
L 90.343064 -87.2059 
L 91.139301 -87.642263 
L 91.935539 -87.301262 
L 92.731776 -86.335179 
L 93.528014 -85.027909 
L 94.324251 -83.776569 
L 95.120489 -83.014121 
L 95.916727 -83.06619 
L 96.712964 -84.015779 
L 97.509202 -85.673064 
L 98.305439 -87.665697 
L 99.101677 -89.553769 
L 99.897914 -90.886967 
L 100.694152 -91.245564 
L 101.490389 -90.341996 
L 102.286627 -88.167031 
L 103.082864 -85.078971 
L 103.879102 -81.743413 
L 104.675339 -78.930783 
L 105.471577 -77.272395 
L 106.267814 -77.079988 
L 107.064052 -78.278187 
L 107.860289 -80.455226 
L 108.656527 -83.014446 
L 109.452764 -85.377921 
L 110.249002 -87.157821 
L 111.04524 -88.221129 
L 111.841477 -88.64258 
L 112.637715 -88.606318 
L 113.433952 -88.321526 
L 114.23019 -87.979801 
L 115.026427 -87.745032 
L 115.822665 -87.753353 
L 116.618902 -88.106622 
L 117.41514 -88.857023 
L 118.211377 -89.993832 
L 119.007615 -91.442626 
L 119.803852 -93.065913 
L 120.60009 -94.644873 
L 121.396327 -95.858254 
L 122.192565 -96.316375 
L 122.988802 -95.687572 
L 123.78504 -93.871169 
L 124.581277 -91.097148 
L 125.377515 -87.856993 
L 126.173752 -84.699749 
L 126.96999 -82.035789 
L 127.766228 -80.06554 
L 128.562465 -78.824231 
L 129.358703 -78.240155 
L 130.15494 -78.146066 
L 130.951178 -78.288903 
L 131.747415 -78.398792 
L 132.543653 -78.297293 
L 133.33989 -77.95448 
L 134.136128 -77.435165 
L 134.932365 -76.793202 
L 135.728603 -76.030239 
L 136.52484 -75.155003 
L 137.321078 -74.270193 
L 138.117315 -73.59832 
L 138.913553 -73.427454 
L 139.70979 -74.016658 
L 140.506028 -75.50103 
L 141.302265 -77.817212 
L 142.098503 -80.676979 
L 142.89474 -83.62879 
L 143.690978 -86.21066 
L 144.487216 -88.12468 
L 145.283453 -89.332816 
L 146.079691 -90.027514 
L 146.875928 -90.514584 
L 147.672166 -91.082176 
L 148.468403 -91.90083 
L 149.264641 -92.959813 
L 150.060878 -94.052689 
L 150.857116 -94.848637 
L 151.653353 -95.051726 
L 152.449591 -94.578805 
L 153.245828 -93.655484 
L 154.042066 -92.765782 
L 154.838303 -92.465211 
L 155.634541 -93.137453 
L 156.430778 -94.808043 
L 157.227016 -97.106978 
L 158.023253 -99.400506 
L 158.819491 -101.027161 
L 159.615729 -101.5304 
L 160.411966 -100.80009 
L 161.208204 -99.087717 
L 162.004441 -96.906631 
L 162.800679 -94.859814 
L 163.596916 -93.457029 
L 164.393154 -92.987639 
L 165.189391 -93.494226 
L 165.985629 -94.846111 
L 166.781866 -96.863352 
L 167.578104 -99.419574 
L 168.374341 -102.46716 
L 169.170579 -105.968764 
L 169.966816 -109.77239 
L 170.763054 -113.511632 
L 171.559291 -116.618017 
L 172.355529 -118.479035 
L 173.151766 -118.682454 
L 173.948004 -117.218642 
L 174.744241 -114.533704 
L 175.540479 -111.421301 
L 176.336717 -108.81426 
L 177.132954 -107.539426 
L 177.929192 -108.079726 
L 178.725429 -110.405603 
L 179.521667 -113.961212 
L 180.317904 -117.850231 
L 181.114142 -121.165526 
L 181.910379 -123.317167 
L 182.706617 -124.205922 
L 183.502854 -124.178438 
L 184.299092 -123.820311 
L 185.095329 -123.706481 
L 185.891567 -124.214249 
L 186.687804 -125.451012 
L 187.484042 -127.293454 
L 188.280279 -129.49398 
L 189.076517 -131.794162 
L 189.872754 -133.995919 
L 190.668992 -135.974229 
L 191.46523 -137.649251 
L 192.261467 -138.949528 
L 193.057705 -139.789106 
L 193.853942 -140.068711 
L 194.65018 -139.708367 
L 195.446417 -138.713148 
L 196.242655 -137.24758 
L 197.038892 -135.662238 
L 197.83513 -134.420003 
L 198.631367 -133.930557 
L 199.427605 -134.378411 
L 200.223842 -135.646972 
L 201.02008 -137.377486 
L 201.816317 -139.11597 
L 202.612555 -140.470809 
L 203.408792 -141.233672 
L 204.20503 -141.445641 
L 205.001267 -141.383482 
L 205.797505 -141.4381 
L 206.593742 -141.909982 
L 207.38998 -142.826944 
L 208.186218 -143.906681 
L 208.982455 -144.691306 
L 209.778693 -144.749328 
L 210.57493 -143.815837 
L 211.371168 -141.847552 
L 212.167405 -139.055977 
L 212.963643 -135.944855 
L 213.75988 -133.275294 
L 214.556118 -131.863243 
L 215.352355 -132.260739 
L 216.148593 -134.519513 
L 216.94483 -138.190592 
L 217.741068 -142.533853 
L 218.537305 -146.774733 
L 219.333543 -150.269275 
L 220.12978 -152.572834 
L 220.926018 -153.484382 
L 221.722255 -153.095766 
L 222.518493 -151.801619 
L 223.31473 -150.207893 
L 224.110968 -148.940168 
L 224.907206 -148.434296 
L 225.703443 -148.804861 
L 226.499681 -149.835198 
L 227.295918 -151.078309 
L 228.092156 -152.025899 
L 228.888393 -152.286463 
L 229.684631 -151.712776 
L 230.480868 -150.440835 
L 231.277106 -148.838111 
L 232.073343 -147.387311 
L 232.869581 -146.543319 
L 233.665818 -146.602303 
L 234.462056 -147.620149 
L 235.258293 -149.404897 
L 236.054531 -151.581605 
L 236.850768 -153.70028 
L 237.647006 -155.348418 
L 238.443243 -156.239505 
L 239.239481 -156.265413 
L 240.035719 -155.513132 
L 240.831956 -154.249904 
L 241.628194 -152.878626 
L 242.424431 -151.864475 
L 243.220669 -151.639772 
L 244.016906 -152.506023 
L 244.813144 -154.560908 
L 245.609381 -157.671703 
L 246.405619 -161.497356 
L 247.201856 -165.544947 
L 247.998094 -169.248112 
L 248.794331 -172.069214 
L 249.590569 -173.629125 
L 250.386806 -173.843338 
L 251.183044 -173.005164 
L 251.979281 -171.747037 
L 252.775519 -170.862134 
L 253.571756 -171.051657 
L 254.367994 -172.703672 
L 255.164231 -175.781048 
L 255.960469 -179.838153 
L 256.756707 -184.144563 
L 257.552944 -187.880213 
L 258.349182 -190.357821 
L 259.145419 -191.211894 
L 259.941657 -190.488068 
L 260.737894 -188.600841 
L 261.534132 -186.186159 
L 262.330369 -183.91356 
L 263.126607 -182.319836 
L 263.922844 -181.698695 
L 264.719082 -182.057158 
L 265.515319 -183.141049 
L 266.311557 -184.527838 
L 267.107794 -185.770603 
L 267.904032 -186.552606 
L 268.700269 -186.79507 
L 269.496507 -186.669351 
L 270.292744 -186.506052 
L 271.088982 -186.648952 
L 271.88522 -187.330461 
L 272.681457 -188.621467 
L 273.477695 -190.451376 
L 274.273932 -192.656487 
L 275.07017 -195.025629 
L 275.866407 -197.34209 
L 276.662645 -199.425583 
L 277.458882 -201.160313 
L 278.25512 -202.490066 
L 279.051357 -203.384784 
L 279.847595 -203.808592 
L 280.643832 -203.714359 
L 281.44007 -203.060671 
L 282.236307 -201.831293 
L 283.032545 -200.046156 
L 283.828782 -197.76595 
L 284.62502 -195.090163 
L 285.421257 -192.143683 
L 286.217495 -189.053797 
L 287.013732 -185.934319 
L 287.80997 -182.894709 
L 288.606208 -180.074802 
L 289.402445 -177.685473 
L 290.198683 -176.026955 
L 290.99492 -175.456567 
L 291.791158 -176.285233 
L 292.587395 -178.614458 
L 293.383633 -182.18303 
L 294.17987 -186.328838 
L 294.976108 -190.129121 
L 295.772345 -192.676395 
L 296.568583 -193.363719 
L 297.36482 -192.064944 
L 298.161058 -189.171766 
L 298.957295 -185.500704 
L 299.753533 -182.085118 
L 300.54977 -179.87083 
L 301.346008 -179.388557 
L 302.142245 -180.544309 
L 302.938483 -182.653023 
L 303.73472 -184.716871 
L 304.530958 -185.814945 
L 305.327196 -185.431824 
L 306.123433 -183.616205 
L 306.919671 -180.942558 
L 307.715908 -178.293501 
L 308.512146 -176.51641 
L 309.308383 -176.070453 
L 310.104621 -176.822046 
L 310.900858 -178.093144 
L 311.697096 -178.9365 
L 312.493333 -178.506767 
L 313.289571 -176.379727 
L 314.085808 -172.717539 
L 314.882046 -168.232552 
L 315.678283 -163.952136 
L 316.474521 -160.852064 
L 317.270758 -159.496827 
L 318.066996 -159.842586 
L 318.863233 -161.285272 
L 319.659471 -162.91917 
L 320.455709 -163.889002 
L 321.251946 -163.698887 
L 322.048184 -162.36532 
L 322.844421 -160.354287 
L 323.640659 -158.332086 
L 324.436896 -156.852128 
L 325.233134 -156.12958 
L 326.029371 -155.994962 
L 326.825609 -156.015584 
L 327.621846 -155.707712 
L 328.418084 -154.751492 
L 329.214321 -153.129574 
L 330.010559 -151.126646 
L 330.806796 -149.181317 
L 331.603034 -147.668419 
L 332.399271 -146.735325 
L 333.195509 -146.264675 
L 333.991746 -145.945416 
L 334.787984 -145.400639 
L 335.584221 -144.341895 
L 336.380459 -142.715633 
L 337.176697 -140.767072 
L 337.972934 -138.947208 
L 338.769172 -137.683833 
L 339.565409 -137.158303 
L 340.361647 -137.24068 
L 341.157884 -137.607257 
L 341.954122 -137.93053 
L 342.750359 -138.028703 
L 343.546597 -137.942734 
L 344.342834 -137.940333 
L 345.139072 -138.418358 
L 345.935309 -139.691781 
L 346.731547 -141.754812 
L 347.527784 -144.173765 
L 348.324022 -146.207348 
L 349.120259 -147.097993 
L 349.916497 -146.384699 
L 350.712734 -144.115031 
L 351.508972 -140.897623 
L 352.30521 -137.762112 
L 353.101447 -135.821731 
L 353.897685 -135.830913 
L 354.693922 -137.843642 
L 355.49016 -141.165974 
L 356.286397 -144.633317 
L 357.082635 -147.062506 
L 357.878872 -147.669092 
L 358.67511 -146.307986 
L 359.471347 -143.490072 
L 360.267585 -140.18566 
L 361.063822 -137.46779 
L 361.86006 -136.106627 
L 362.656297 -136.275278 
L 363.452535 -137.505819 
L 364.248772 -138.924042 
L 365.04501 -139.650408 
L 365.841247 -139.172576 
L 366.637485 -137.523034 
L 367.433722 -135.212304 
L 368.22996 -132.98766 
L 369.026198 -131.542502 
L 369.822435 -131.283702 
L 370.618673 -132.214135 
L 371.41491 -133.951508 
L 372.211148 -135.881401 
L 373.007385 -137.399403 
L 373.803623 -138.140244 
L 374.59986 -138.080367 
L 375.396098 -137.472738 
L 376.192335 -136.678011 
L 376.988573 -136.003748 
L 377.78481 -135.622122 
L 378.581048 -135.565952 
L 379.377285 -135.768947 
L 380.173523 -136.122997 
L 380.96976 -136.531373 
L 381.765998 -136.930912 
L 382.562235 -137.264463 
L 383.358473 -137.424365 
L 384.15471 -137.22559 
L 384.950948 -136.456118 
L 385.747186 -134.994557 
L 386.543423 -132.928916 
L 387.339661 -130.600916 
L 388.135898 -128.538485 
L 388.932136 -127.29271 
L 389.728373 -127.234999 
L 390.524611 -128.390385 
L 391.320848 -130.381345 
L 392.117086 -132.525546 
L 392.913323 -134.068782 
L 393.709561 -134.467606 
L 394.505798 -133.602653 
L 395.302036 -131.827094 
L 396.098273 -129.826397 
L 396.894511 -128.348869 
L 397.690748 -127.919966 
L 398.486986 -128.654439 
L 399.283223 -130.23317 
L 400.079461 -132.04413 
L 400.875699 -133.430291 
L 401.671936 -133.954672 
L 402.468174 -133.586634 
L 403.264411 -132.732583 
L 404.060649 -132.081588 
L 404.856886 -132.31115 
L 405.653124 -133.775379 
L 406.449361 -136.324296 
L 407.245599 -139.342563 
L 408.041836 -141.982379 
L 408.838074 -143.473293 
L 409.634311 -143.373606 
L 410.430549 -141.67832 
L 411.226786 -138.771969 
L 412.023024 -135.268178 
L 412.819261 -131.799954 
L 413.615499 -128.829184 
L 413.615499 -213.287446 
L 413.615499 -213.287446 
L 412.819261 -215.493557 
L 412.023024 -218.389067 
L 411.226786 -221.61071 
L 410.430549 -224.486539 
L 409.634311 -226.257575 
L 408.838074 -226.384795 
L 408.041836 -224.791051 
L 407.245599 -221.917229 
L 406.449361 -218.568599 
L 405.653124 -215.625906 
L 404.856886 -213.743214 
L 404.060649 -213.140986 
L 403.264411 -213.556839 
L 402.468174 -214.366883 
L 401.671936 -214.842394 
L 400.875699 -214.455837 
L 400.079461 -213.11241 
L 399.283223 -211.19553 
L 398.486986 -209.394036 
L 397.690748 -208.387027 
L 396.894511 -208.534442 
L 396.098273 -209.716207 
L 395.302036 -211.385016 
L 394.505798 -212.797066 
L 393.709561 -213.312899 
L 392.913323 -212.643442 
L 392.117086 -210.951111 
L 391.320848 -208.779796 
L 390.524611 -206.852346 
L 389.728373 -205.81665 
L 388.932136 -206.033282 
L 388.135898 -207.478934 
L 387.339661 -209.794241 
L 386.543423 -212.444209 
L 385.747186 -214.912936 
L 384.950948 -216.847794 
L 384.15471 -218.108151 
L 383.358473 -218.729385 
L 382.562235 -218.84602 
L 381.765998 -218.61554 
L 380.96976 -218.168567 
L 380.173523 -217.599092 
L 379.377285 -216.993758 
L 378.581048 -216.471789 
L 377.78481 -216.186862 
L 376.988573 -216.26203 
L 376.192335 -216.688518 
L 375.396098 -217.267558 
L 374.59986 -217.654376 
L 373.803623 -217.491711 
L 373.007385 -216.565281 
L 372.211148 -214.916095 
L 371.41491 -212.874475 
L 370.618673 -210.996236 
L 369.822435 -209.890199 
L 369.026198 -209.970299 
L 368.22996 -211.236189 
L 367.433722 -213.214711 
L 366.637485 -215.126473 
L 365.841247 -216.212377 
L 365.04501 -216.062546 
L 364.248772 -214.795169 
L 363.452535 -213.016273 
L 362.656297 -211.59068 
L 361.86006 -211.315381 
L 361.063822 -212.604378 
L 360.267585 -215.287758 
L 359.471347 -218.608797 
L 358.67511 -221.454948 
L 357.878872 -222.770633 
L 357.082635 -221.994484 
L 356.286397 -219.314667 
L 355.49016 -215.607991 
L 354.693922 -212.094965 
L 353.897685 -209.888276 
L 353.101447 -209.62801 
L 352.30521 -211.304691 
L 351.508972 -214.285212 
L 350.712734 -217.528768 
L 349.916497 -219.954504 
L 349.120259 -220.843578 
L 348.324022 -220.088791 
L 347.527784 -218.162103 
L 346.731547 -215.840944 
L 345.935309 -213.864112 
L 345.139072 -212.676218 
L 344.342834 -212.324374 
L 343.546597 -212.508134 
L 342.750359 -212.769529 
L 341.954122 -212.763791 
L 341.157884 -212.471238 
L 340.361647 -212.207226 
L 339.565409 -212.418202 
L 338.769172 -213.410446 
L 337.972934 -215.186557 
L 337.176697 -217.446981 
L 336.380459 -219.703855 
L 335.584221 -221.448039 
L 334.787984 -222.340089 
L 333.991746 -222.371674 
L 333.195509 -221.90002 
L 332.399271 -221.49463 
L 331.603034 -221.658457 
L 330.806796 -222.58595 
L 330.010559 -224.096039 
L 329.214321 -225.753408 
L 328.418084 -227.089968 
L 327.621846 -227.823172 
L 326.825609 -227.991244 
L 326.029371 -227.94697 
L 325.233134 -228.193602 
L 324.436896 -229.128063 
L 323.640659 -230.823417 
L 322.844421 -232.965254 
L 322.048184 -234.967128 
L 321.251946 -236.206851 
L 320.455709 -236.29097 
L 319.659471 -235.25389 
L 318.863233 -233.60934 
L 318.066996 -232.210869 
L 317.270758 -231.956543 
L 316.474521 -233.451068 
L 315.678283 -236.760969 
L 314.882046 -241.354003 
L 314.085808 -246.24663 
L 313.289571 -250.322786 
L 312.493333 -252.726613 
L 311.697096 -253.178789 
L 310.900858 -252.072677 
L 310.104621 -250.301368 
L 309.308383 -248.897947 
L 308.512146 -248.649089 
L 307.715908 -249.826417 
L 306.919671 -252.112392 
L 306.123433 -254.737387 
L 305.327196 -256.793507 
L 304.530958 -257.620174 
L 303.73472 -257.093975 
L 302.938483 -255.681995 
L 302.142245 -254.243375 
L 301.346008 -253.69114 
L 300.54977 -254.659295 
L 299.753533 -257.272902 
L 298.957295 -261.070657 
L 298.161058 -265.113058 
L 297.36482 -268.275986 
L 296.568583 -269.642437 
L 295.772345 -268.822538 
L 294.976108 -266.052754 
L 294.17987 -262.052032 
L 293.383633 -257.744029 
L 292.587395 -253.988785 
L 291.791158 -251.403652 
L 290.99492 -250.281306 
L 290.198683 -250.592607 
L 289.402445 -252.067781 
L 288.606208 -254.334145 
L 287.80997 -257.055867 
L 287.013732 -260.01284 
L 286.217495 -263.093689 
L 285.421257 -266.22929 
L 284.62502 -269.317835 
L 283.828782 -272.185335 
L 283.032545 -274.603461 
L 282.236307 -276.357877 
L 281.44007 -277.328827 
L 280.643832 -277.533472 
L 279.847595 -277.101955 
L 279.051357 -276.204058 
L 278.25512 -274.973114 
L 277.458882 -273.467241 
L 276.662645 -271.677622 
L 275.866407 -269.573054 
L 275.07017 -267.164542 
L 274.273932 -264.565301 
L 273.477695 -262.008139 
L 272.681457 -259.790861 
L 271.88522 -258.163536 
L 271.088982 -257.219085 
L 270.292744 -256.852062 
L 269.496507 -256.802743 
L 268.700269 -256.752624 
L 267.904032 -256.426711 
L 267.107794 -255.678822 
L 266.311557 -254.551049 
L 265.515319 -253.291366 
L 264.719082 -252.304549 
L 263.922844 -252.027782 
L 263.126607 -252.759942 
L 262.330369 -254.508498 
L 261.534132 -256.925903 
L 260.737894 -259.377067 
L 259.941657 -261.120099 
L 259.145419 -261.53043 
L 258.349182 -260.286345 
L 257.552944 -257.461305 
L 256.756707 -253.507648 
L 255.960469 -249.142443 
L 255.164231 -245.160116 
L 254.367994 -242.216688 
L 253.571756 -240.6535 
L 252.775519 -240.425257 
L 251.979281 -241.149962 
L 251.183044 -242.240323 
L 250.386806 -243.054793 
L 249.590569 -243.032174 
L 248.794331 -241.807251 
L 247.998094 -239.30176 
L 247.201856 -235.756785 
L 246.405619 -231.673171 
L 245.609381 -227.670517 
L 244.813144 -224.320545 
L 244.016906 -222.018259 
L 243.220669 -220.923438 
L 242.424431 -220.964265 
L 241.628194 -221.875448 
L 240.831956 -223.2511 
L 240.035719 -224.610369 
L 239.239481 -225.481168 
L 238.443243 -225.498853 
L 237.647006 -224.498945 
L 236.850768 -222.571799 
L 236.054531 -220.052461 
L 235.258293 -217.439788 
L 234.462056 -215.265985 
L 233.665818 -213.956164 
L 232.869581 -213.717163 
L 232.073343 -214.483015 
L 231.277106 -215.932263 
L 230.480868 -217.577534 
L 229.684631 -218.906557 
L 228.888393 -219.530903 
L 228.092156 -219.292199 
L 227.295918 -218.292821 
L 226.499681 -216.848981 
L 225.703443 -215.38822 
L 224.907206 -214.322975 
L 224.110968 -213.932156 
L 223.31473 -214.277808 
L 222.518493 -215.171304 
L 221.722255 -216.190442 
L 220.926018 -216.754775 
L 220.12978 -216.278814 
L 219.333543 -214.390395 
L 218.537305 -211.125891 
L 217.741068 -206.980543 
L 216.94483 -202.757088 
L 216.148593 -199.285273 
L 215.352355 -197.17457 
L 214.556118 -196.711498 
L 213.75988 -197.86962 
L 212.963643 -200.33567 
L 212.167405 -203.525156 
L 211.371168 -206.668291 
L 210.57493 -209.038722 
L 209.778693 -210.23936 
L 208.982455 -210.348052 
L 208.186218 -209.813545 
L 207.38998 -209.180847 
L 206.593742 -208.833298 
L 205.797505 -208.877822 
L 205.001267 -209.162397 
L 204.20503 -209.35964 
L 203.408792 -209.088778 
L 202.612555 -208.072625 
L 201.816317 -206.287675 
L 201.02008 -204.021255 
L 200.223842 -201.780106 
L 199.427605 -200.090262 
L 198.631367 -199.300872 
L 197.83513 -199.485739 
L 197.038892 -200.455555 
L 196.242655 -201.839361 
L 195.446417 -203.196523 
L 194.65018 -204.139074 
L 193.853942 -204.436124 
L 193.057705 -204.05406 
L 192.261467 -203.105419 
L 191.46523 -201.737386 
L 190.668992 -200.037058 
L 189.872754 -198.01923 
L 189.076517 -195.698864 
L 188.280279 -193.187443 
L 187.484042 -190.737674 
L 186.687804 -188.69523 
L 185.891567 -187.369628 
L 185.095329 -186.88137 
L 184.299092 -187.061341 
L 183.502854 -187.461951 
L 182.706617 -187.49166 
L 181.910379 -186.623379 
L 181.114142 -184.589532 
L 180.317904 -181.489184 
L 179.521667 -177.782362 
L 178.725429 -174.184751 
L 177.929192 -171.482107 
L 177.132954 -170.292723 
L 176.336717 -170.841391 
L 175.540479 -172.841373 
L 174.744241 -175.565875 
L 173.948004 -178.100808 
L 173.151766 -179.655526 
L 172.355529 -179.775475 
L 171.559291 -178.385304 
L 170.763054 -175.705832 
L 169.966816 -172.128629 
L 169.170579 -168.100192 
L 168.374341 -164.035591 
L 167.578104 -160.274801 
L 166.781866 -157.087123 
L 165.985629 -154.705441 
L 165.189391 -153.348641 
L 164.393154 -153.193357 
L 163.596916 -154.291275 
L 162.800679 -156.470691 
L 162.004441 -159.283973 
L 161.208204 -162.054121 
L 160.411966 -164.036812 
L 159.615729 -164.65624 
L 158.819491 -163.720182 
L 158.023253 -161.509907 
L 157.227016 -158.690643 
L 156.430778 -156.074622 
L 155.634541 -154.33773 
L 154.838303 -153.801079 
L 154.042066 -154.347422 
L 153.245828 -155.488866 
L 152.449591 -156.556669 
L 151.653353 -156.947211 
L 150.857116 -156.33714 
L 150.060878 -154.789097 
L 149.264641 -152.707044 
L 148.468403 -150.65167 
L 147.672166 -149.080518 
L 146.875928 -148.125776 
L 146.079691 -147.532256 
L 145.283453 -146.801676 
L 144.487216 -145.457099 
L 143.690978 -143.271507 
L 142.89474 -140.35297 
L 142.098503 -137.081592 
L 141.302265 -133.961576 
L 140.506028 -131.453864 
L 139.70979 -129.833191 
L 138.913553 -129.112069 
L 138.117315 -129.070959 
L 137.321078 -129.384786 
L 136.52484 -129.769425 
L 135.728603 -130.062567 
L 134.932365 -130.218648 
L 134.136128 -130.265719 
L 133.33989 -130.270254 
L 132.543653 -130.305073 
L 131.747415 -130.402943 
L 130.951178 -130.531141 
L 130.15494 -130.648981 
L 129.358703 -130.829317 
L 128.562465 -131.324445 
L 127.766228 -132.477072 
L 126.96999 -134.510085 
L 126.173752 -137.349531 
L 125.377515 -140.618435 
L 124.581277 -143.785939 
L 123.78504 -146.342605 
L 122.988802 -147.906238 
L 122.192565 -148.26458 
L 121.396327 -147.409437 
L 120.60009 -145.567112 
L 119.803852 -143.16802 
L 119.007615 -140.722219 
L 118.211377 -138.648969 
L 117.41514 -137.158547 
L 116.618902 -136.252466 
L 115.822665 -135.815656 
L 115.026427 -135.713428 
L 114.23019 -135.828763 
L 113.433952 -136.037387 
L 112.637715 -136.163648 
L 111.841477 -135.971011 
L 111.04524 -135.216684 
L 110.249002 -133.752699 
L 109.452764 -131.61835 
L 108.656527 -129.07106 
L 107.860289 -126.543474 
L 107.064052 -124.550568 
L 106.267814 -123.570119 
L 105.471577 -123.909223 
L 104.675339 -125.589584 
L 103.879102 -128.306019 
L 103.082864 -131.487423 
L 102.286627 -134.432667 
L 101.490389 -136.470285 
L 100.694152 -137.116565 
L 99.897914 -136.21965 
L 99.101677 -134.039698 
L 98.305439 -131.190603 
L 97.509202 -128.42124 
L 96.712964 -126.329099 
L 95.916727 -125.178214 
L 95.120489 -124.915831 
L 94.324251 -125.305586 
L 93.528014 -126.039273 
L 92.731776 -126.781788 
L 91.935539 -127.193635 
L 91.139301 -126.974679 
L 90.343064 -125.917283 
L 89.546826 -123.937356 
L 88.750589 -121.086786 
L 87.954351 -117.570924 
L 87.158114 -113.7598 
L 86.361876 -110.144321 
L 85.565639 -107.214503 
L 84.769401 -105.319378 
L 83.973164 -104.60718 
L 83.176926 -105.062953 
L 82.380689 -106.561423 
L 81.584451 -108.8653 
L 80.788214 -111.59122 
L 79.991976 -114.235522 
L 79.195739 -116.311677 
L 78.399501 -117.527872 
L 77.603263 -117.880641 
L 76.807026 -117.602174 
L 76.010788 -117.00665 
L 75.214551 -116.360018 
L 74.418313 -115.852041 
L 73.622076 -115.615229 
L 72.825838 -115.707831 
L 72.029601 -116.069098 
L 71.233363 -116.516463 
L 70.437126 -116.821383 
L 69.640888 -116.819377 
L 68.844651 -116.478479 
L 68.048413 -115.905322 
L 67.252176 -115.324923 
L 66.455938 -115.046563 
L 65.659701 -115.384188 
L 64.863463 -116.530902 
L 64.067226 -118.453739 
L 63.270988 -120.885496 
L 62.47475 -123.425791 
L 61.678513 -125.683997 
L 60.882275 -127.382842 
L 60.086038 -128.407623 
L 59.2898 -128.842916 
L 58.493563 -128.995646 
L 57.697325 -129.341767 
L 56.901088 -130.35453 
L 56.10485 -132.246686 
L 55.308613 -134.771971 
L 54.512375 -137.292462 
L 53.716138 -139.115505 
L 52.9199 -139.844604 
L 52.123663 -139.52107 
L 51.327425 -138.526516 
L 50.531188 -137.371603 
L 49.73495 -136.517184 
L 48.938713 -136.261226 
L 48.142475 -136.652765 
L 47.346238 -137.446797 
L 46.55 -138.181587 
z
" style="stroke: #e41a1c; stroke-opacity: 0.3"/>
    </defs>
    <g clip-path="url(#p7aaacb956c)">
     <use xlink:href="#m136c97b5c7" x="0" y="360" style="fill: #e41a1c; fill-opacity: 0.3; stroke: #e41a1c; stroke-opacity: 0.3"/>
    </g>
   </g>
   <g id="PolyCollection_2">
    <defs>
     <path id="m3c92a2000b" d="M 46.55 -127.916141 
L 46.55 -107.014789 
L 47.346238 -107.240045 
L 48.142475 -107.341854 
L 48.938713 -107.136071 
L 49.73495 -106.478487 
L 50.531188 -105.338141 
L 51.327425 -103.860737 
L 52.123663 -102.351873 
L 52.9199 -101.154732 
L 53.716138 -100.489993 
L 54.512375 -100.364406 
L 55.308613 -100.599584 
L 56.10485 -100.941972 
L 56.901088 -101.172499 
L 57.697325 -101.175175 
L 58.493563 -100.97159 
L 59.2898 -100.7197 
L 60.086038 -100.65614 
L 60.882275 -100.982558 
L 61.678513 -101.744576 
L 62.47475 -102.773375 
L 63.270988 -103.727068 
L 64.067226 -104.211922 
L 64.863463 -103.927088 
L 65.659701 -102.77688 
L 66.455938 -100.91609 
L 67.252176 -98.718413 
L 68.048413 -96.677339 
L 68.844651 -95.262355 
L 69.640888 -94.768907 
L 70.437126 -95.217101 
L 71.233363 -96.34853 
L 72.029601 -97.730532 
L 72.825838 -98.920532 
L 73.622076 -99.60839 
L 74.418313 -99.675768 
L 75.214551 -99.17386 
L 76.010788 -98.26154 
L 76.807026 -97.138341 
L 77.603263 -95.984283 
L 78.399501 -94.914802 
L 79.195739 -93.968024 
L 79.991976 -93.129648 
L 80.788214 -92.369115 
L 81.584451 -91.652641 
L 82.380689 -90.929891 
L 83.176926 -90.123574 
L 83.973164 -89.144465 
L 84.769401 -87.919621 
L 85.565639 -86.410572 
L 86.361876 -84.623135 
L 87.158114 -82.622982 
L 87.954351 -80.549742 
L 88.750589 -78.60384 
L 89.546826 -76.993918 
L 90.343064 -75.866168 
L 91.139301 -75.254244 
L 91.935539 -75.07328 
L 92.731776 -75.155436 
L 93.528014 -75.310959 
L 94.324251 -75.395953 
L 95.120489 -75.362905 
L 95.916727 -75.269707 
L 96.712964 -75.239803 
L 97.509202 -75.392753 
L 98.305439 -75.779477 
L 99.101677 -76.349873 
L 99.897914 -76.964435 
L 100.694152 -77.44944 
L 101.490389 -77.682135 
L 102.286627 -77.671558 
L 103.082864 -77.585429 
L 103.879102 -77.694466 
L 104.675339 -78.258996 
L 105.471577 -79.420103 
L 106.267814 -81.146482 
L 107.064052 -83.249504 
L 107.860289 -85.447362 
L 108.656527 -87.449427 
L 109.452764 -89.034093 
L 110.249002 -90.097007 
L 111.04524 -90.654593 
L 111.841477 -90.805328 
L 112.637715 -90.670085 
L 113.433952 -90.340085 
L 114.23019 -89.853574 
L 115.026427 -89.208139 
L 115.822665 -88.401327 
L 116.618902 -87.477437 
L 117.41514 -86.548206 
L 118.211377 -85.76525 
L 119.007615 -85.255473 
L 119.803852 -85.059645 
L 120.60009 -85.111943 
L 121.396327 -85.268956 
L 122.192565 -85.368178 
L 122.988802 -85.287441 
L 123.78504 -84.983673 
L 124.581277 -84.498043 
L 125.377515 -83.924039 
L 126.173752 -83.352739 
L 126.96999 -82.826941 
L 127.766228 -82.332645 
L 128.562465 -81.830827 
L 129.358703 -81.307897 
L 130.15494 -80.817019 
L 130.951178 -80.489004 
L 131.747415 -80.498263 
L 132.543653 -80.980923 
L 133.33989 -81.932066 
L 134.136128 -83.141194 
L 134.932365 -84.220291 
L 135.728603 -84.728509 
L 136.52484 -84.338881 
L 137.321078 -82.971705 
L 138.117315 -80.844319 
L 138.913553 -78.425318 
L 139.70979 -76.303447 
L 140.506028 -74.997629 
L 141.302265 -74.76641 
L 142.098503 -75.50338 
L 142.89474 -76.782378 
L 143.690978 -78.03889 
L 144.487216 -78.797404 
L 145.283453 -78.838778 
L 146.079691 -78.25042 
L 146.875928 -77.3631 
L 147.672166 -76.611752 
L 148.468403 -76.367313 
L 149.264641 -76.791804 
L 150.060878 -77.771794 
L 150.857116 -78.966183 
L 151.653353 -79.954297 
L 152.449591 -80.418644 
L 153.245828 -80.280917 
L 154.042066 -79.737335 
L 154.838303 -79.184193 
L 155.634541 -79.063432 
L 156.430778 -79.683602 
L 157.227016 -81.083409 
L 158.023253 -82.994625 
L 158.819491 -84.92318 
L 159.615729 -86.316762 
L 160.411966 -86.751995 
L 161.208204 -86.071742 
L 162.004441 -84.428432 
L 162.800679 -82.2264 
L 163.596916 -79.990443 
L 164.393154 -78.210339 
L 165.189391 -77.214129 
L 165.985629 -77.10563 
L 166.781866 -77.773664 
L 167.578104 -78.95677 
L 168.374341 -80.335648 
L 169.170579 -81.621939 
L 169.966816 -82.614656 
L 170.763054 -83.209453 
L 171.559291 -83.370944 
L 172.355529 -83.098669 
L 173.151766 -82.414991 
L 173.948004 -81.381186 
L 174.744241 -80.123917 
L 175.540479 -78.845301 
L 176.336717 -77.798756 
L 177.132954 -77.230429 
L 177.929192 -77.302189 
L 178.725429 -78.024691 
L 179.521667 -79.233058 
L 180.317904 -80.625815 
L 181.114142 -81.859359 
L 181.910379 -82.661793 
L 182.706617 -82.921752 
L 183.502854 -82.723552 
L 184.299092 -82.322319 
L 185.095329 -82.065867 
L 185.891567 -82.27838 
L 186.687804 -83.135881 
L 187.484042 -84.582027 
L 188.280279 -86.330758 
L 189.076517 -87.966098 
L 189.872754 -89.097402 
L 190.668992 -89.499539 
L 191.46523 -89.182715 
L 192.261467 -88.377681 
L 193.057705 -87.452452 
L 193.853942 -86.786478 
L 194.65018 -86.636029 
L 195.446417 -87.037715 
L 196.242655 -87.796014 
L 197.038892 -88.567658 
L 197.83513 -89.00568 
L 198.631367 -88.895597 
L 199.427605 -88.227202 
L 200.223842 -87.182828 
L 201.02008 -86.057139 
L 201.816317 -85.140864 
L 202.612555 -84.607872 
L 203.408792 -84.446441 
L 204.20503 -84.464895 
L 205.001267 -84.373389 
L 205.797505 -83.908372 
L 206.593742 -82.944643 
L 207.38998 -81.546414 
L 208.186218 -79.937538 
L 208.982455 -78.406829 
L 209.778693 -77.191084 
L 210.57493 -76.386542 
L 211.371168 -75.926269 
L 212.167405 -75.631576 
L 212.963643 -75.311682 
L 213.75988 -74.864316 
L 214.556118 -74.330596 
L 215.352355 -73.879541 
L 216.148593 -73.728699 
L 216.94483 -74.03339 
L 217.741068 -74.788432 
L 218.537305 -75.782435 
L 219.333543 -76.629709 
L 220.12978 -76.880669 
L 220.926018 -76.179852 
L 221.722255 -74.412954 
L 222.518493 -71.778986 
L 223.31473 -68.750987 
L 224.110968 -65.93698 
L 224.907206 -63.89376 
L 225.703443 -62.960423 
L 226.499681 -63.167047 
L 227.295918 -64.245801 
L 228.092156 -65.735392 
L 228.888393 -67.13674 
L 229.684631 -68.062501 
L 230.480868 -68.332678 
L 231.277106 -67.994217 
L 232.073343 -67.267663 
L 232.869581 -66.443541 
L 233.665818 -65.766955 
L 234.462056 -65.356378 
L 235.258293 -65.188428 
L 236.054531 -65.146488 
L 236.850768 -65.097496 
L 237.647006 -64.954174 
L 238.443243 -64.700739 
L 239.239481 -64.3851 
L 240.035719 -64.090688 
L 240.831956 -63.900882 
L 241.628194 -63.868221 
L 242.424431 -63.998191 
L 243.220669 -64.250459 
L 244.016906 -64.553243 
L 244.813144 -64.826107 
L 245.609381 -65.00907 
L 246.405619 -65.092014 
L 247.201856 -65.128852 
L 247.998094 -65.222317 
L 248.794331 -65.484813 
L 249.590569 -65.999347 
L 250.386806 -66.799987 
L 251.183044 -67.868692 
L 251.979281 -69.131324 
L 252.775519 -70.448273 
L 253.571756 -71.619166 
L 254.367994 -72.423997 
L 255.164231 -72.696146 
L 255.960469 -72.393839 
L 256.756707 -71.632924 
L 257.552944 -70.666816 
L 258.349182 -69.82546 
L 259.145419 -69.435126 
L 259.941657 -69.737257 
L 260.737894 -70.820902 
L 261.534132 -72.584984 
L 262.330369 -74.748479 
L 263.126607 -76.917353 
L 263.922844 -78.695198 
L 264.719082 -79.79987 
L 265.515319 -80.140723 
L 266.311557 -79.830333 
L 267.107794 -79.138499 
L 267.904032 -78.415975 
L 268.700269 -78.009248 
L 269.496507 -78.174112 
L 270.292744 -78.999192 
L 271.088982 -80.367019 
L 271.88522 -81.980659 
L 272.681457 -83.4546 
L 273.477695 -84.433173 
L 274.273932 -84.688991 
L 275.07017 -84.176277 
L 275.866407 -83.041954 
L 276.662645 -81.601086 
L 277.458882 -80.27028 
L 278.25512 -79.456319 
L 279.051357 -79.427923 
L 279.847595 -80.223818 
L 280.643832 -81.638913 
L 281.44007 -83.289559 
L 282.236307 -84.724116 
L 283.032545 -85.540302 
L 283.828782 -85.485455 
L 284.62502 -84.523254 
L 285.421257 -82.845697 
L 286.217495 -80.812751 
L 287.013732 -78.830054 
L 287.80997 -77.211269 
L 288.606208 -76.083837 
L 289.402445 -75.3732 
L 290.198683 -74.861266 
L 290.99492 -74.286643 
L 291.791158 -73.447743 
L 292.587395 -72.27718 
L 293.383633 -70.86741 
L 294.17987 -69.440821 
L 294.976108 -68.272749 
L 295.772345 -67.590859 
L 296.568583 -67.484333 
L 297.36482 -67.857921 
L 298.161058 -68.453518 
L 298.957295 -68.936052 
L 299.753533 -69.010491 
L 300.54977 -68.520591 
L 301.346008 -67.490008 
L 302.142245 -66.097028 
L 302.938483 -64.604896 
L 303.73472 -63.281609 
L 304.530958 -62.334942 
L 305.327196 -61.873535 
L 306.123433 -61.896348 
L 306.919671 -62.309556 
L 307.715908 -62.964362 
L 308.512146 -63.701358 
L 309.308383 -64.38427 
L 310.104621 -64.913106 
L 310.900858 -65.219413 
L 311.697096 -65.255964 
L 312.493333 -64.993982 
L 313.289571 -64.432095 
L 314.085808 -63.610921 
L 314.882046 -62.622143 
L 315.678283 -61.603617 
L 316.474521 -60.718709 
L 317.270758 -60.124035 
L 318.066996 -59.933686 
L 318.863233 -60.190156 
L 319.659471 -60.851591 
L 320.455709 -61.800019 
L 321.251946 -62.866521 
L 322.048184 -63.863505 
L 322.844421 -64.616231 
L 323.640659 -64.991805 
L 324.436896 -64.9249 
L 325.233134 -64.432819 
L 326.029371 -63.608766 
L 326.825609 -62.591109 
L 327.621846 -61.521929 
L 328.418084 -60.514118 
L 329.214321 -59.637039 
L 330.010559 -58.916611 
L 330.806796 -58.339793 
L 331.603034 -57.859318 
L 332.399271 -57.404131 
L 333.195509 -56.901842 
L 333.991746 -56.309462 
L 334.787984 -55.63774 
L 335.584221 -54.953672 
L 336.380459 -54.356406 
L 337.176697 -53.936597 
L 337.972934 -53.737903 
L 338.769172 -53.73684 
L 339.565409 -53.84761 
L 340.361647 -53.949931 
L 341.157884 -53.933477 
L 341.954122 -53.747303 
L 342.750359 -53.434923 
L 343.546597 -53.13311 
L 344.342834 -53.025403 
L 345.139072 -53.266347 
L 345.935309 -53.911345 
L 346.731547 -54.885059 
L 347.527784 -56.000031 
L 348.324022 -57.013929 
L 349.120259 -57.703284 
L 349.916497 -57.933921 
L 350.712734 -57.712072 
L 351.508972 -57.199818 
L 352.30521 -56.681315 
L 353.101447 -56.481693 
L 353.897685 -56.865013 
L 354.693922 -57.953029 
L 355.49016 -59.698432 
L 356.286397 -61.917633 
L 357.082635 -64.357693 
L 357.878872 -66.760201 
L 358.67511 -68.898681 
L 359.471347 -70.591723 
L 360.267585 -71.709004 
L 361.063822 -72.183762 
L 361.86006 -72.031881 
L 362.656297 -71.367134 
L 363.452535 -70.399893 
L 364.248772 -69.411826 
L 365.04501 -68.705773 
L 365.841247 -68.536149 
L 366.637485 -69.034017 
L 367.433722 -70.150916 
L 368.22996 -71.648492 
L 369.026198 -73.149029 
L 369.822435 -74.238417 
L 370.618673 -74.58994 
L 371.41491 -74.06672 
L 372.211148 -72.765808 
L 373.007385 -70.984344 
L 373.803623 -69.114765 
L 374.59986 -67.506628 
L 375.396098 -66.353184 
L 376.192335 -65.652306 
L 376.988573 -65.252464 
L 377.78481 -64.950543 
L 378.581048 -64.588563 
L 379.377285 -64.109586 
L 380.173523 -63.560811 
L 380.96976 -63.051239 
L 381.765998 -62.681141 
L 382.562235 -62.472195 
L 383.358473 -62.337383 
L 384.15471 -62.118341 
L 384.950948 -61.678601 
L 385.747186 -61.001792 
L 386.543423 -60.236885 
L 387.339661 -59.663079 
L 388.135898 -59.589431 
L 388.932136 -60.232042 
L 389.728373 -61.618253 
L 390.524611 -63.558765 
L 391.320848 -65.706653 
L 392.117086 -67.685141 
L 392.913323 -69.229148 
L 393.709561 -70.275655 
L 394.505798 -70.965263 
L 395.302036 -71.561614 
L 396.098273 -72.327628 
L 396.894511 -73.406691 
L 397.690748 -74.750685 
L 398.486986 -76.124491 
L 399.283223 -77.194276 
L 400.079461 -77.67172 
L 400.875699 -77.453838 
L 401.671936 -76.692212 
L 402.468174 -75.754718 
L 403.264411 -75.092206 
L 404.060649 -75.066435 
L 404.856886 -75.811512 
L 405.653124 -77.184065 
L 406.449361 -78.816803 
L 407.245599 -80.24685 
L 408.041836 -81.066498 
L 408.838074 -81.047025 
L 409.634311 -80.204379 
L 410.430549 -78.792938 
L 411.226786 -77.229345 
L 412.023024 -75.9694 
L 412.819261 -75.38251 
L 413.615499 -75.670594 
L 413.615499 -122.127003 
L 413.615499 -122.127003 
L 412.819261 -121.890771 
L 412.023024 -122.462321 
L 411.226786 -123.623741 
L 410.430549 -125.02995 
L 409.634311 -126.271943 
L 408.838074 -126.969891 
L 408.041836 -126.881817 
L 407.245599 -125.991736 
L 406.449361 -124.531583 
L 405.653124 -122.912427 
L 404.856886 -121.584483 
L 404.060649 -120.881295 
L 403.264411 -120.908935 
L 402.468174 -121.518387 
L 401.671936 -122.366381 
L 400.875699 -123.04008 
L 400.079461 -123.201133 
L 399.283223 -122.699161 
L 398.486986 -121.614895 
L 397.690748 -120.216048 
L 396.894511 -118.838669 
L 396.098273 -117.737719 
L 395.302036 -116.970909 
L 394.505798 -116.373321 
L 393.709561 -115.640447 
L 392.913323 -114.480918 
L 392.117086 -112.763762 
L 391.320848 -110.592076 
L 390.524611 -108.276443 
L 389.728373 -106.226387 
L 388.932136 -104.805288 
L 388.135898 -104.202713 
L 387.339661 -104.372767 
L 386.543423 -105.064394 
L 385.747186 -105.929525 
L 384.950948 -106.657692 
L 384.15471 -107.077233 
L 383.358473 -107.187857 
L 382.562235 -107.12445 
L 381.765998 -107.07544 
L 380.96976 -107.189141 
L 380.173523 -107.505817 
L 379.377285 -107.949351 
L 378.581048 -108.387886 
L 377.78481 -108.731357 
L 376.988573 -109.005804 
L 376.192335 -109.357859 
L 375.396098 -109.987577 
L 374.59986 -111.047403 
L 373.803623 -112.555417 
L 373.007385 -114.356624 
L 372.211148 -116.145755 
L 371.41491 -117.548147 
L 370.618673 -118.237208 
L 369.822435 -118.049124 
L 369.026198 -117.04909 
L 368.22996 -115.519724 
L 367.433722 -113.875211 
L 366.637485 -112.53472 
L 365.841247 -111.801082 
L 365.04501 -111.784171 
L 364.248772 -112.38905 
L 363.452535 -113.364862 
L 362.656297 -114.389034 
L 361.86006 -115.151907 
L 361.063822 -115.414833 
L 360.267585 -115.034796 
L 359.471347 -113.966823 
L 358.67511 -112.260517 
L 357.878872 -110.057126 
L 357.082635 -107.579122 
L 356.286397 -105.10073 
L 355.49016 -102.898618 
L 354.693922 -101.196588 
L 353.897685 -100.121824 
L 353.101447 -99.682129 
L 352.30521 -99.764713 
L 351.508972 -100.156176 
L 350.712734 -100.586033 
L 349.916497 -100.793453 
L 349.120259 -100.604189 
L 348.324022 -99.988331 
L 347.527784 -99.067765 
L 346.731547 -98.063749 
L 345.935309 -97.207198 
L 345.139072 -96.654108 
L 344.342834 -96.441892 
L 343.546597 -96.496724 
L 342.750359 -96.677611 
L 341.954122 -96.834183 
L 341.157884 -96.85932 
L 340.361647 -96.723819 
L 339.565409 -96.48294 
L 338.769172 -96.250109 
L 337.972934 -96.146437 
L 337.176697 -96.248942 
L 336.380459 -96.562589 
L 335.584221 -97.027047 
L 334.787984 -97.549667 
L 333.991746 -98.045562 
L 333.195509 -98.468448 
L 332.399271 -98.825047 
L 331.603034 -99.172553 
L 330.806796 -99.600578 
L 330.010559 -100.199891 
L 329.214321 -101.025141 
L 328.418084 -102.065586 
L 327.621846 -103.238971 
L 326.825609 -104.413384 
L 326.029371 -105.445395 
L 325.233134 -106.214118 
L 324.436896 -106.63797 
L 323.640659 -106.676921 
L 322.844421 -106.333218 
L 322.048184 -105.658413 
L 321.251946 -104.759858 
L 320.455709 -103.792907 
L 319.659471 -102.933546 
L 318.863233 -102.339485 
L 318.066996 -102.114017 
L 317.270758 -102.283613 
L 316.474521 -102.794396 
L 315.678283 -103.528358 
L 314.882046 -104.335632 
L 314.085808 -105.073098 
L 313.289571 -105.635619 
L 312.493333 -105.969372 
L 311.697096 -106.066148 
L 310.900858 -105.946427 
L 310.104621 -105.642274 
L 309.308383 -105.188687 
L 308.512146 -104.626672 
L 307.715908 -104.015842 
L 306.919671 -103.448715 
L 306.123433 -103.055208 
L 305.327196 -102.985664 
L 304.530958 -103.368101 
L 303.73472 -104.250386 
L 302.938483 -105.553487 
L 302.142245 -107.06606 
L 301.346008 -108.494563 
L 300.54977 -109.554015 
L 299.753533 -110.062742 
L 298.957295 -110.004233 
L 298.161058 -109.536484 
L 297.36482 -108.948766 
L 296.568583 -108.578163 
L 295.772345 -108.706331 
L 294.976108 -109.465776 
L 294.17987 -110.789827 
L 293.383633 -112.432205 
L 292.587395 -114.057247 
L 291.791158 -115.369256 
L 290.99492 -116.228437 
L 290.198683 -116.703858 
L 289.402445 -117.039774 
L 288.606208 -117.548706 
L 287.80997 -118.477319 
L 287.013732 -119.902294 
L 286.217495 -121.694681 
L 285.421257 -123.556953 
L 284.62502 -125.111541 
L 283.828782 -126.013269 
L 283.032545 -126.059189 
L 282.236307 -125.265221 
L 281.44007 -123.876364 
L 280.643832 -122.295381 
L 279.847595 -120.954365 
L 279.051357 -120.185368 
L 278.25512 -120.140152 
L 277.458882 -120.772319 
L 276.662645 -121.865351 
L 275.866407 -123.088536 
L 275.07017 -124.075634 
L 274.273932 -124.521326 
L 273.477695 -124.269924 
L 272.681457 -123.357256 
L 271.88522 -121.986632 
L 271.088982 -120.458512 
L 270.292744 -119.090254 
L 269.496507 -118.145501 
L 268.700269 -117.772716 
L 267.904032 -117.956052 
L 267.107794 -118.500428 
L 266.311557 -119.075599 
L 265.515319 -119.317135 
L 264.719082 -118.944982 
L 263.922844 -117.849327 
L 263.126607 -116.116933 
L 262.330369 -114.002141 
L 261.534132 -111.860308 
L 260.737894 -110.059534 
L 259.941657 -108.885934 
L 259.145419 -108.46527 
L 258.349182 -108.72823 
L 257.552944 -109.436954 
L 256.756707 -110.265397 
L 255.960469 -110.900853 
L 255.164231 -111.125538 
L 254.367994 -110.852569 
L 253.571756 -110.118427 
L 252.775519 -109.052261 
L 251.979281 -107.837914 
L 251.183044 -106.669959 
L 250.386806 -105.703409 
L 249.590569 -105.011525 
L 248.794331 -104.575174 
L 247.998094 -104.3127 
L 247.201856 -104.130195 
L 246.405619 -103.959707 
L 245.609381 -103.769538 
L 244.813144 -103.556841 
L 244.016906 -103.34105 
L 243.220669 -103.162219 
L 242.424431 -103.072803 
L 241.628194 -103.115572 
L 240.831956 -103.296819 
L 240.035719 -103.571831 
L 239.239481 -103.852861 
L 238.443243 -104.03924 
L 237.647006 -104.060592 
L 236.850768 -103.915992 
L 236.054531 -103.687426 
L 235.258293 -103.51433 
L 234.462056 -103.537313 
L 233.665818 -103.837075 
L 232.869581 -104.393681 
L 232.073343 -105.077463 
L 231.277106 -105.674056 
L 230.480868 -105.943468 
L 229.684631 -105.705904 
L 228.888393 -104.929023 
L 228.092156 -103.777523 
L 227.295918 -102.593408 
L 226.499681 -101.80478 
L 225.703443 -101.792422 
L 224.907206 -102.760323 
L 224.110968 -104.655726 
L 223.31473 -107.169579 
L 222.518493 -109.821683 
L 221.722255 -112.103082 
L 220.926018 -113.625961 
L 220.12978 -114.230325 
L 219.333543 -114.01525 
L 218.537305 -113.287776 
L 217.741068 -112.446459 
L 216.94483 -111.838811 
L 216.148593 -111.646764 
L 215.352355 -111.847686 
L 214.556118 -112.265678 
L 213.75988 -112.684688 
L 212.963643 -112.966459 
L 212.167405 -113.118268 
L 211.371168 -113.283747 
L 210.57493 -113.667175 
L 209.778693 -114.429137 
L 208.982455 -115.600261 
L 208.186218 -117.05001 
L 207.38998 -118.525022 
L 206.593742 -119.742884 
L 205.797505 -120.503327 
L 205.001267 -120.770049 
L 204.20503 -120.688187 
L 203.408792 -120.52931 
L 202.612555 -120.584816 
L 201.816317 -121.047775 
L 201.02008 -121.928949 
L 200.223842 -123.043237 
L 199.427605 -124.078822 
L 198.631367 -124.725369 
L 197.83513 -124.806098 
L 197.038892 -124.353214 
L 196.242655 -123.594862 
L 195.446417 -122.865696 
L 194.65018 -122.482525 
L 193.853942 -122.628996 
L 193.057705 -123.283374 
L 192.261467 -124.21459 
L 191.46523 -125.057685 
L 190.668992 -125.44982 
L 189.872754 -125.172048 
L 189.076517 -124.231545 
L 188.280279 -122.849962 
L 187.484042 -121.373617 
L 186.687804 -120.151089 
L 185.891567 -119.420269 
L 185.095329 -119.231875 
L 184.299092 -119.429675 
L 183.502854 -119.701177 
L 182.706617 -119.69148 
L 181.910379 -119.140139 
L 181.114142 -117.982001 
L 180.317904 -116.368503 
L 179.521667 -114.607694 
L 178.725429 -113.058325 
L 177.929192 -112.023532 
L 177.132954 -111.675736 
L 176.336717 -112.025915 
L 175.540479 -112.938061 
L 174.744241 -114.17883 
L 173.948004 -115.482053 
L 173.151766 -116.604948 
L 172.355529 -117.362927 
L 171.559291 -117.643817 
L 170.763054 -117.409828 
L 169.966816 -116.693832 
L 169.170579 -115.593028 
L 168.374341 -114.262665 
L 167.578104 -112.91145 
L 166.781866 -111.791712 
L 165.985629 -111.168679 
L 165.189391 -111.259041 
L 164.393154 -112.151392 
L 163.596916 -113.742396 
L 162.800679 -115.724811 
L 162.004441 -117.645694 
L 161.208204 -119.025098 
L 160.411966 -119.500243 
L 159.615729 -118.945752 
L 158.819491 -117.523009 
L 158.023253 -115.634817 
L 157.227016 -113.797195 
L 156.430778 -112.471751 
L 155.634541 -111.915482 
L 154.838303 -112.099474 
L 154.042066 -112.728237 
L 153.245828 -113.359314 
L 152.449591 -113.582738 
L 151.653353 -113.188392 
L 150.857116 -112.249647 
L 150.060878 -111.088617 
L 149.264641 -110.14034 
L 148.468403 -109.770569 
L 147.672166 -110.115567 
L 146.875928 -111.00732 
L 146.079691 -112.025287 
L 145.283453 -112.66742 
L 144.487216 -112.570371 
L 143.690978 -111.674354 
L 142.89474 -110.254703 
L 142.098503 -108.815261 
L 141.302265 -107.904566 
L 140.506028 -107.930953 
L 139.70979 -109.028546 
L 138.913553 -111.003869 
L 138.117315 -113.383823 
L 137.321078 -115.566028 
L 136.52484 -117.025492 
L 135.728603 -117.488289 
L 134.932365 -116.994743 
L 134.136128 -115.839766 
L 133.33989 -114.43962 
L 132.543653 -113.189757 
L 131.747415 -112.357331 
L 130.951178 -112.028568 
L 130.15494 -112.119451 
L 129.358703 -112.445623 
L 128.562465 -112.821589 
L 127.766228 -113.138408 
L 126.96999 -113.382467 
L 126.173752 -113.598791 
L 125.377515 -113.833886 
L 124.581277 -114.09421 
L 123.78504 -114.338196 
L 122.988802 -114.501436 
L 122.192565 -114.541079 
L 121.396327 -114.474749 
L 120.60009 -114.387851 
L 119.803852 -114.401099 
L 119.007615 -114.617693 
L 118.211377 -115.081598 
L 117.41514 -115.765228 
L 116.618902 -116.583689 
L 115.822665 -117.423757 
L 115.026427 -118.178428 
L 114.23019 -118.77735 
L 113.433952 -119.197475 
L 112.637715 -119.443152 
L 111.841477 -119.504985 
L 111.04524 -119.32552 
L 110.249002 -118.799055 
L 109.452764 -117.812524 
L 108.656527 -116.30969 
L 107.860289 -114.346717 
L 107.064052 -112.107585 
L 106.267814 -109.863144 
L 105.471577 -107.885977 
L 104.675339 -106.360234 
L 103.879102 -105.330385 
L 103.082864 -104.708896 
L 102.286627 -104.328899 
L 101.490389 -104.010906 
L 100.694152 -103.621192 
L 99.897914 -103.112373 
L 99.101677 -102.534049 
L 98.305439 -101.99875 
L 97.509202 -101.611023 
L 96.712964 -101.398283 
L 95.916727 -101.286489 
L 95.120489 -101.134805 
L 94.324251 -100.808883 
L 93.528014 -100.256298 
L 92.731776 -99.551116 
L 91.935539 -98.886779 
L 91.139301 -98.514251 
L 90.343064 -98.647343 
L 89.546826 -99.378532 
L 88.750589 -100.645012 
L 87.954351 -102.254607 
L 87.158114 -103.951175 
L 86.361876 -105.492644 
L 85.565639 -106.72037 
L 84.769401 -107.598761 
L 83.973164 -108.205262 
L 83.176926 -108.67055 
L 82.380689 -109.104479 
L 81.584451 -109.55978 
L 80.788214 -110.051175 
L 79.991976 -110.595081 
L 79.195739 -111.226905 
L 78.399501 -111.986926 
L 77.603263 -112.892075 
L 76.807026 -113.906985 
L 76.010788 -114.919166 
L 75.214551 -115.734754 
L 74.418313 -116.121209 
L 73.622076 -115.89895 
L 72.825838 -115.039127 
L 72.029601 -113.709086 
L 71.233363 -112.240428 
L 70.437126 -111.0414 
L 69.640888 -110.490681 
L 68.844651 -110.834109 
L 68.048413 -112.100528 
L 67.252176 -114.065808 
L 66.455938 -116.296234 
L 65.659701 -118.276903 
L 64.863463 -119.583845 
L 64.067226 -120.025574 
L 63.270988 -119.691275 
L 62.47475 -118.889416 
L 61.678513 -118.011929 
L 60.882275 -117.38753 
L 60.086038 -117.180128 
L 59.2898 -117.35761 
L 58.493563 -117.730365 
L 57.697325 -118.04823 
L 56.901088 -118.130194 
L 56.10485 -117.972315 
L 55.308613 -117.766645 
L 54.512375 -117.805542 
L 53.716138 -118.328091 
L 52.9199 -119.411307 
L 52.123663 -120.957892 
L 51.327425 -122.749219 
L 50.531188 -124.511909 
L 49.73495 -125.982406 
L 48.938713 -126.983915 
L 48.142475 -127.504991 
L 47.346238 -127.721345 
L 46.55 -127.916141 
z
" style="stroke: #377eb8; stroke-opacity: 0.3"/>
    </defs>
    <g clip-path="url(#p7aaacb956c)">
     <use xlink:href="#m3c92a2000b" x="0" y="360" style="fill: #377eb8; fill-opacity: 0.3; stroke: #377eb8; stroke-opacity: 0.3"/>
    </g>
   </g>
   <g id="patch_3">
    <path d="M 229.843878 318.2 
L 229.843878 71.241125 
L 331.762281 71.241125 
L 331.762281 318.2 
z
" clip-path="url(#p7aaacb956c)" style="fill: #808080; opacity: 0.3"/>
   </g>
   <g id="matplotlib.axis_1">
    <g id="xtick_1">
     <g id="line2d_1">
      <defs>
       <path id="m61f97a0660" d="M 0 0 
L 0 3.5 
" style="stroke: #000000; stroke-width: 0.8"/>
      </defs>
      <g>
       <use xlink:href="#m61f97a0660" x="87.158114" y="318.2" style="stroke: #000000; stroke-width: 0.8"/>
      </g>
     </g>
     <g id="text_1">
      <!-- 0.0 -->
      <g transform="translate(79.206551 332.798437)scale(0.1 -0.1)">
       <defs>
        <path id="DejaVuSans-30" d="M 2034 4250 
Q 1547 4250 1301 3770 
Q 1056 3291 1056 2328 
Q 1056 1369 1301 889 
Q 1547 409 2034 409 
Q 2525 409 2770 889 
Q 3016 1369 3016 2328 
Q 3016 3291 2770 3770 
Q 2525 4250 2034 4250 
z
M 2034 4750 
Q 2819 4750 3233 4129 
Q 3647 3509 3647 2328 
Q 3647 1150 3233 529 
Q 2819 -91 2034 -91 
Q 1250 -91 836 529 
Q 422 1150 422 2328 
Q 422 3509 836 4129 
Q 1250 4750 2034 4750 
z
" transform="scale(0.015625)"/>
        <path id="DejaVuSans-2e" d="M 684 794 
L 1344 794 
L 1344 0 
L 684 0 
L 684 794 
z
" transform="scale(0.015625)"/>
       </defs>
       <use xlink:href="#DejaVuSans-30"/>
       <use xlink:href="#DejaVuSans-2e" x="63.623047"/>
       <use xlink:href="#DejaVuSans-30" x="95.410156"/>
      </g>
     </g>
    </g>
    <g id="xtick_2">
     <g id="line2d_2">
      <g>
       <use xlink:href="#m61f97a0660" x="168.692836" y="318.2" style="stroke: #000000; stroke-width: 0.8"/>
      </g>
     </g>
     <g id="text_2">
      <!-- 0.2 -->
      <g transform="translate(160.741274 332.798437)scale(0.1 -0.1)">
       <defs>
        <path id="DejaVuSans-32" d="M 1228 531 
L 3431 531 
L 3431 0 
L 469 0 
L 469 531 
Q 828 903 1448 1529 
Q 2069 2156 2228 2338 
Q 2531 2678 2651 2914 
Q 2772 3150 2772 3378 
Q 2772 3750 2511 3984 
Q 2250 4219 1831 4219 
Q 1534 4219 1204 4116 
Q 875 4013 500 3803 
L 500 4441 
Q 881 4594 1212 4672 
Q 1544 4750 1819 4750 
Q 2544 4750 2975 4387 
Q 3406 4025 3406 3419 
Q 3406 3131 3298 2873 
Q 3191 2616 2906 2266 
Q 2828 2175 2409 1742 
Q 1991 1309 1228 531 
z
" transform="scale(0.015625)"/>
       </defs>
       <use xlink:href="#DejaVuSans-30"/>
       <use xlink:href="#DejaVuSans-2e" x="63.623047"/>
       <use xlink:href="#DejaVuSans-32" x="95.410156"/>
      </g>
     </g>
    </g>
    <g id="xtick_3">
     <g id="line2d_3">
      <g>
       <use xlink:href="#m61f97a0660" x="250.227559" y="318.2" style="stroke: #000000; stroke-width: 0.8"/>
      </g>
     </g>
     <g id="text_3">
      <!-- 0.4 -->
      <g transform="translate(242.275996 332.798437)scale(0.1 -0.1)">
       <defs>
        <path id="DejaVuSans-34" d="M 2419 4116 
L 825 1625 
L 2419 1625 
L 2419 4116 
z
M 2253 4666 
L 3047 4666 
L 3047 1625 
L 3713 1625 
L 3713 1100 
L 3047 1100 
L 3047 0 
L 2419 0 
L 2419 1100 
L 313 1100 
L 313 1709 
L 2253 4666 
z
" transform="scale(0.015625)"/>
       </defs>
       <use xlink:href="#DejaVuSans-30"/>
       <use xlink:href="#DejaVuSans-2e" x="63.623047"/>
       <use xlink:href="#DejaVuSans-34" x="95.410156"/>
      </g>
     </g>
    </g>
    <g id="xtick_4">
     <g id="line2d_4">
      <g>
       <use xlink:href="#m61f97a0660" x="331.762281" y="318.2" style="stroke: #000000; stroke-width: 0.8"/>
      </g>
     </g>
     <g id="text_4">
      <!-- 0.6 -->
      <g transform="translate(323.810719 332.798437)scale(0.1 -0.1)">
       <defs>
        <path id="DejaVuSans-36" d="M 2113 2584 
Q 1688 2584 1439 2293 
Q 1191 2003 1191 1497 
Q 1191 994 1439 701 
Q 1688 409 2113 409 
Q 2538 409 2786 701 
Q 3034 994 3034 1497 
Q 3034 2003 2786 2293 
Q 2538 2584 2113 2584 
z
M 3366 4563 
L 3366 3988 
Q 3128 4100 2886 4159 
Q 2644 4219 2406 4219 
Q 1781 4219 1451 3797 
Q 1122 3375 1075 2522 
Q 1259 2794 1537 2939 
Q 1816 3084 2150 3084 
Q 2853 3084 3261 2657 
Q 3669 2231 3669 1497 
Q 3669 778 3244 343 
Q 2819 -91 2113 -91 
Q 1303 -91 875 529 
Q 447 1150 447 2328 
Q 447 3434 972 4092 
Q 1497 4750 2381 4750 
Q 2619 4750 2861 4703 
Q 3103 4656 3366 4563 
z
" transform="scale(0.015625)"/>
       </defs>
       <use xlink:href="#DejaVuSans-30"/>
       <use xlink:href="#DejaVuSans-2e" x="63.623047"/>
       <use xlink:href="#DejaVuSans-36" x="95.410156"/>
      </g>
     </g>
    </g>
    <g id="xtick_5">
     <g id="line2d_5">
      <g>
       <use xlink:href="#m61f97a0660" x="413.297004" y="318.2" style="stroke: #000000; stroke-width: 0.8"/>
      </g>
     </g>
     <g id="text_5">
      <!-- 0.8 -->
      <g transform="translate(405.345441 332.798437)scale(0.1 -0.1)">
       <defs>
        <path id="DejaVuSans-38" d="M 2034 2216 
Q 1584 2216 1326 1975 
Q 1069 1734 1069 1313 
Q 1069 891 1326 650 
Q 1584 409 2034 409 
Q 2484 409 2743 651 
Q 3003 894 3003 1313 
Q 3003 1734 2745 1975 
Q 2488 2216 2034 2216 
z
M 1403 2484 
Q 997 2584 770 2862 
Q 544 3141 544 3541 
Q 544 4100 942 4425 
Q 1341 4750 2034 4750 
Q 2731 4750 3128 4425 
Q 3525 4100 3525 3541 
Q 3525 3141 3298 2862 
Q 3072 2584 2669 2484 
Q 3125 2378 3379 2068 
Q 3634 1759 3634 1313 
Q 3634 634 3220 271 
Q 2806 -91 2034 -91 
Q 1263 -91 848 271 
Q 434 634 434 1313 
Q 434 1759 690 2068 
Q 947 2378 1403 2484 
z
M 1172 3481 
Q 1172 3119 1398 2916 
Q 1625 2713 2034 2713 
Q 2441 2713 2670 2916 
Q 2900 3119 2900 3481 
Q 2900 3844 2670 4047 
Q 2441 4250 2034 4250 
Q 1625 4250 1398 4047 
Q 1172 3844 1172 3481 
z
" transform="scale(0.015625)"/>
       </defs>
       <use xlink:href="#DejaVuSans-30"/>
       <use xlink:href="#DejaVuSans-2e" x="63.623047"/>
       <use xlink:href="#DejaVuSans-38" x="95.410156"/>
      </g>
     </g>
    </g>
    <g id="text_6">
     <!-- seconds -->
     <g transform="translate(209.645249 346.476562)scale(0.1 -0.1)">
      <defs>
       <path id="DejaVuSans-73" d="M 2834 3397 
L 2834 2853 
Q 2591 2978 2328 3040 
Q 2066 3103 1784 3103 
Q 1356 3103 1142 2972 
Q 928 2841 928 2578 
Q 928 2378 1081 2264 
Q 1234 2150 1697 2047 
L 1894 2003 
Q 2506 1872 2764 1633 
Q 3022 1394 3022 966 
Q 3022 478 2636 193 
Q 2250 -91 1575 -91 
Q 1294 -91 989 -36 
Q 684 19 347 128 
L 347 722 
Q 666 556 975 473 
Q 1284 391 1588 391 
Q 1994 391 2212 530 
Q 2431 669 2431 922 
Q 2431 1156 2273 1281 
Q 2116 1406 1581 1522 
L 1381 1569 
Q 847 1681 609 1914 
Q 372 2147 372 2553 
Q 372 3047 722 3315 
Q 1072 3584 1716 3584 
Q 2034 3584 2315 3537 
Q 2597 3491 2834 3397 
z
" transform="scale(0.015625)"/>
       <path id="DejaVuSans-65" d="M 3597 1894 
L 3597 1613 
L 953 1613 
Q 991 1019 1311 708 
Q 1631 397 2203 397 
Q 2534 397 2845 478 
Q 3156 559 3463 722 
L 3463 178 
Q 3153 47 2828 -22 
Q 2503 -91 2169 -91 
Q 1331 -91 842 396 
Q 353 884 353 1716 
Q 353 2575 817 3079 
Q 1281 3584 2069 3584 
Q 2775 3584 3186 3129 
Q 3597 2675 3597 1894 
z
M 3022 2063 
Q 3016 2534 2758 2815 
Q 2500 3097 2075 3097 
Q 1594 3097 1305 2825 
Q 1016 2553 972 2059 
L 3022 2063 
z
" transform="scale(0.015625)"/>
       <path id="DejaVuSans-63" d="M 3122 3366 
L 3122 2828 
Q 2878 2963 2633 3030 
Q 2388 3097 2138 3097 
Q 1578 3097 1268 2742 
Q 959 2388 959 1747 
Q 959 1106 1268 751 
Q 1578 397 2138 397 
Q 2388 397 2633 464 
Q 2878 531 3122 666 
L 3122 134 
Q 2881 22 2623 -34 
Q 2366 -91 2075 -91 
Q 1284 -91 818 406 
Q 353 903 353 1747 
Q 353 2603 823 3093 
Q 1294 3584 2113 3584 
Q 2378 3584 2631 3529 
Q 2884 3475 3122 3366 
z
" transform="scale(0.015625)"/>
       <path id="DejaVuSans-6f" d="M 1959 3097 
Q 1497 3097 1228 2736 
Q 959 2375 959 1747 
Q 959 1119 1226 758 
Q 1494 397 1959 397 
Q 2419 397 2687 759 
Q 2956 1122 2956 1747 
Q 2956 2369 2687 2733 
Q 2419 3097 1959 3097 
z
M 1959 3584 
Q 2709 3584 3137 3096 
Q 3566 2609 3566 1747 
Q 3566 888 3137 398 
Q 2709 -91 1959 -91 
Q 1206 -91 779 398 
Q 353 888 353 1747 
Q 353 2609 779 3096 
Q 1206 3584 1959 3584 
z
" transform="scale(0.015625)"/>
       <path id="DejaVuSans-6e" d="M 3513 2113 
L 3513 0 
L 2938 0 
L 2938 2094 
Q 2938 2591 2744 2837 
Q 2550 3084 2163 3084 
Q 1697 3084 1428 2787 
Q 1159 2491 1159 1978 
L 1159 0 
L 581 0 
L 581 3500 
L 1159 3500 
L 1159 2956 
Q 1366 3272 1645 3428 
Q 1925 3584 2291 3584 
Q 2894 3584 3203 3211 
Q 3513 2838 3513 2113 
z
" transform="scale(0.015625)"/>
       <path id="DejaVuSans-64" d="M 2906 2969 
L 2906 4863 
L 3481 4863 
L 3481 0 
L 2906 0 
L 2906 525 
Q 2725 213 2448 61 
Q 2172 -91 1784 -91 
Q 1150 -91 751 415 
Q 353 922 353 1747 
Q 353 2572 751 3078 
Q 1150 3584 1784 3584 
Q 2172 3584 2448 3432 
Q 2725 3281 2906 2969 
z
M 947 1747 
Q 947 1113 1208 752 
Q 1469 391 1925 391 
Q 2381 391 2643 752 
Q 2906 1113 2906 1747 
Q 2906 2381 2643 2742 
Q 2381 3103 1925 3103 
Q 1469 3103 1208 2742 
Q 947 2381 947 1747 
z
" transform="scale(0.015625)"/>
      </defs>
      <use xlink:href="#DejaVuSans-73"/>
      <use xlink:href="#DejaVuSans-65" x="52.099609"/>
      <use xlink:href="#DejaVuSans-63" x="113.623047"/>
      <use xlink:href="#DejaVuSans-6f" x="168.603516"/>
      <use xlink:href="#DejaVuSans-6e" x="229.785156"/>
      <use xlink:href="#DejaVuSans-64" x="293.164062"/>
      <use xlink:href="#DejaVuSans-73" x="356.640625"/>
     </g>
    </g>
   </g>
   <g id="matplotlib.axis_2">
    <g id="ytick_1">
     <g id="line2d_6">
      <defs>
       <path id="mee4a92beb7" d="M 0 0 
L -3.5 0 
" style="stroke: #000000; stroke-width: 0.8"/>
      </defs>
      <g>
       <use xlink:href="#mee4a92beb7" x="46.55" y="316.825033" style="stroke: #000000; stroke-width: 0.8"/>
      </g>
     </g>
     <g id="text_7">
      <!-- 2 -->
      <g transform="translate(24.807812 320.624252)scale(0.1 -0.1)">
       <defs>
        <path id="DejaVuSans-2212" d="M 678 2272 
L 4684 2272 
L 4684 1741 
L 678 1741 
L 678 2272 
z
" transform="scale(0.015625)"/>
       </defs>
       <use xlink:href="#DejaVuSans-2212"/>
       <use xlink:href="#DejaVuSans-32" x="83.789062"/>
      </g>
     </g>
    </g>
    <g id="ytick_2">
     <g id="line2d_7">
      <g>
       <use xlink:href="#mee4a92beb7" x="46.55" y="284.846459" style="stroke: #000000; stroke-width: 0.8"/>
      </g>
     </g>
     <g id="text_8">
      <!-- 1 -->
      <g transform="translate(24.807812 288.645677)scale(0.1 -0.1)">
       <defs>
        <path id="DejaVuSans-31" d="M 794 531 
L 1825 531 
L 1825 4091 
L 703 3866 
L 703 4441 
L 1819 4666 
L 2450 4666 
L 2450 531 
L 3481 531 
L 3481 0 
L 794 0 
L 794 531 
z
" transform="scale(0.015625)"/>
       </defs>
       <use xlink:href="#DejaVuSans-2212"/>
       <use xlink:href="#DejaVuSans-31" x="83.789062"/>
      </g>
     </g>
    </g>
    <g id="ytick_3">
     <g id="line2d_8">
      <g>
       <use xlink:href="#mee4a92beb7" x="46.55" y="252.867884" style="stroke: #000000; stroke-width: 0.8"/>
      </g>
     </g>
     <g id="text_9">
      <!-- 0 -->
      <g transform="translate(33.1875 256.667103)scale(0.1 -0.1)">
       <use xlink:href="#DejaVuSans-30"/>
      </g>
     </g>
    </g>
    <g id="ytick_4">
     <g id="line2d_9">
      <g>
       <use xlink:href="#mee4a92beb7" x="46.55" y="220.889309" style="stroke: #000000; stroke-width: 0.8"/>
      </g>
     </g>
     <g id="text_10">
      <!-- 1 -->
      <g transform="translate(33.1875 224.688528)scale(0.1 -0.1)">
       <use xlink:href="#DejaVuSans-31"/>
      </g>
     </g>
    </g>
    <g id="ytick_5">
     <g id="line2d_10">
      <g>
       <use xlink:href="#mee4a92beb7" x="46.55" y="188.910735" style="stroke: #000000; stroke-width: 0.8"/>
      </g>
     </g>
     <g id="text_11">
      <!-- 2 -->
      <g transform="translate(33.1875 192.709953)scale(0.1 -0.1)">
       <use xlink:href="#DejaVuSans-32"/>
      </g>
     </g>
    </g>
    <g id="ytick_6">
     <g id="line2d_11">
      <g>
       <use xlink:href="#mee4a92beb7" x="46.55" y="156.93216" style="stroke: #000000; stroke-width: 0.8"/>
      </g>
     </g>
     <g id="text_12">
      <!-- 3 -->
      <g transform="translate(33.1875 160.731379)scale(0.1 -0.1)">
       <defs>
        <path id="DejaVuSans-33" d="M 2597 2516 
Q 3050 2419 3304 2112 
Q 3559 1806 3559 1356 
Q 3559 666 3084 287 
Q 2609 -91 1734 -91 
Q 1441 -91 1130 -33 
Q 819 25 488 141 
L 488 750 
Q 750 597 1062 519 
Q 1375 441 1716 441 
Q 2309 441 2620 675 
Q 2931 909 2931 1356 
Q 2931 1769 2642 2001 
Q 2353 2234 1838 2234 
L 1294 2234 
L 1294 2753 
L 1863 2753 
Q 2328 2753 2575 2939 
Q 2822 3125 2822 3475 
Q 2822 3834 2567 4026 
Q 2313 4219 1838 4219 
Q 1578 4219 1281 4162 
Q 984 4106 628 3988 
L 628 4550 
Q 988 4650 1302 4700 
Q 1616 4750 1894 4750 
Q 2613 4750 3031 4423 
Q 3450 4097 3450 3541 
Q 3450 3153 3228 2886 
Q 3006 2619 2597 2516 
z
" transform="scale(0.015625)"/>
       </defs>
       <use xlink:href="#DejaVuSans-33"/>
      </g>
     </g>
    </g>
    <g id="ytick_7">
     <g id="line2d_12">
      <g>
       <use xlink:href="#mee4a92beb7" x="46.55" y="124.953585" style="stroke: #000000; stroke-width: 0.8"/>
      </g>
     </g>
     <g id="text_13">
      <!-- 4 -->
      <g transform="translate(33.1875 128.752804)scale(0.1 -0.1)">
       <use xlink:href="#DejaVuSans-34"/>
      </g>
     </g>
    </g>
    <g id="ytick_8">
     <g id="line2d_13">
      <g>
       <use xlink:href="#mee4a92beb7" x="46.55" y="92.97501" style="stroke: #000000; stroke-width: 0.8"/>
      </g>
     </g>
     <g id="text_14">
      <!-- 5 -->
      <g transform="translate(33.1875 96.774229)scale(0.1 -0.1)">
       <defs>
        <path id="DejaVuSans-35" d="M 691 4666 
L 3169 4666 
L 3169 4134 
L 1269 4134 
L 1269 2991 
Q 1406 3038 1543 3061 
Q 1681 3084 1819 3084 
Q 2600 3084 3056 2656 
Q 3513 2228 3513 1497 
Q 3513 744 3044 326 
Q 2575 -91 1722 -91 
Q 1428 -91 1123 -41 
Q 819 9 494 109 
L 494 744 
Q 775 591 1075 516 
Q 1375 441 1709 441 
Q 2250 441 2565 725 
Q 2881 1009 2881 1497 
Q 2881 1984 2565 2268 
Q 2250 2553 1709 2553 
Q 1456 2553 1204 2497 
Q 953 2441 691 2322 
L 691 4666 
z
" transform="scale(0.015625)"/>
       </defs>
       <use xlink:href="#DejaVuSans-35"/>
      </g>
     </g>
    </g>
    <g id="text_15">
     <!-- V -->
     <g transform="translate(18.728125 201.322125)rotate(-90)scale(0.1 -0.1)">
      <defs>
       <path id="DejaVuSans-b5" d="M 544 -1331 
L 544 3500 
L 1119 3500 
L 1119 1325 
Q 1119 872 1334 640 
Q 1550 409 1972 409 
Q 2434 409 2667 671 
Q 2900 934 2900 1459 
L 2900 3500 
L 3475 3500 
L 3475 806 
Q 3475 619 3529 530 
Q 3584 441 3700 441 
Q 3728 441 3778 458 
Q 3828 475 3916 513 
L 3916 50 
Q 3788 -22 3673 -56 
Q 3559 -91 3450 -91 
Q 3234 -91 3106 31 
Q 2978 153 2931 403 
Q 2775 156 2548 32 
Q 2322 -91 2016 -91 
Q 1697 -91 1473 31 
Q 1250 153 1119 397 
L 1119 -1331 
L 544 -1331 
z
" transform="scale(0.015625)"/>
       <path id="DejaVuSans-56" d="M 1831 0 
L 50 4666 
L 709 4666 
L 2188 738 
L 3669 4666 
L 4325 4666 
L 2547 0 
L 1831 0 
z
" transform="scale(0.015625)"/>
      </defs>
      <use xlink:href="#DejaVuSans-b5"/>
      <use xlink:href="#DejaVuSans-56" x="63.623047"/>
     </g>
    </g>
   </g>
   <g id="line2d_14">
    <path d="M 46.55 239.727679 
L 47.346238 239.985611 
L 48.142475 240.434256 
L 48.938713 240.582855 
L 49.73495 240.099214 
L 50.531188 238.964004 
L 52.123663 236.184423 
L 52.9199 235.570854 
L 53.716138 235.954821 
L 54.512375 237.319059 
L 56.901088 243.283592 
L 57.697325 244.449949 
L 58.493563 245.004781 
L 59.2898 245.249774 
L 60.086038 245.632743 
L 60.882275 246.562282 
L 61.678513 248.243874 
L 63.270988 253.286802 
L 64.067226 255.83244 
L 64.863463 257.781572 
L 65.659701 258.852649 
L 66.455938 259.016499 
L 67.252176 258.487026 
L 68.844651 256.849391 
L 69.640888 256.429828 
L 70.437126 256.489778 
L 71.233363 256.951848 
L 72.825838 258.153551 
L 73.622076 258.401661 
L 74.418313 258.244724 
L 75.214551 257.745291 
L 76.010788 257.110058 
L 76.807026 256.635088 
L 77.603263 256.6274 
L 78.399501 257.322877 
L 79.195739 258.819614 
L 79.991976 261.041743 
L 82.380689 269.001385 
L 83.176926 270.711955 
L 83.973164 271.371375 
L 84.769401 270.847878 
L 85.565639 269.20126 
L 86.361876 266.664016 
L 88.750589 257.428065 
L 89.546826 255.044404 
L 90.343064 253.438409 
L 91.139301 252.691529 
L 91.935539 252.752551 
L 92.731776 253.441517 
L 94.324251 255.458923 
L 95.120489 256.035024 
L 95.916727 255.877798 
L 96.712964 254.827561 
L 97.509202 252.952848 
L 99.101677 248.203267 
L 99.897914 246.446692 
L 100.694152 245.818935 
L 101.490389 246.593859 
L 102.286627 248.700151 
L 104.675339 257.739816 
L 105.471577 259.409191 
L 106.267814 259.674947 
L 107.064052 258.585623 
L 107.860289 256.50065 
L 109.452764 251.501865 
L 110.249002 249.54474 
L 111.04524 248.281093 
L 111.841477 247.693205 
L 112.637715 247.615017 
L 115.026427 248.27077 
L 115.822665 248.215496 
L 116.618902 247.820456 
L 117.41514 246.992215 
L 118.211377 245.6786 
L 119.007615 243.917578 
L 120.60009 239.894008 
L 121.396327 238.366155 
L 122.192565 237.709522 
L 122.988802 238.203095 
L 123.78504 239.893113 
L 124.581277 242.558457 
L 126.96999 251.727063 
L 127.766228 253.728694 
L 128.562465 254.925662 
L 129.358703 255.465264 
L 130.15494 255.602476 
L 131.747415 255.599133 
L 133.33989 255.887633 
L 134.932365 256.494075 
L 136.52484 257.537786 
L 138.117315 258.66536 
L 138.913553 258.730239 
L 139.70979 258.075075 
L 140.506028 256.522553 
L 141.302265 254.110606 
L 143.690978 245.258916 
L 144.487216 243.20911 
L 145.283453 241.932754 
L 146.079691 241.220115 
L 146.875928 240.67982 
L 147.672166 239.918653 
L 148.468403 238.72375 
L 150.060878 235.579107 
L 150.857116 234.407112 
L 151.653353 234.000531 
L 152.449591 234.432263 
L 154.042066 236.443398 
L 154.838303 236.866855 
L 155.634541 236.262409 
L 156.430778 234.558668 
L 158.023253 229.544793 
L 158.819491 227.626328 
L 159.615729 226.90668 
L 160.411966 227.581549 
L 161.208204 229.429081 
L 162.800679 234.334748 
L 163.596916 236.125848 
L 164.393154 236.909502 
L 165.189391 236.578566 
L 165.985629 235.224224 
L 166.781866 233.024762 
L 167.578104 230.152812 
L 169.170579 222.965522 
L 170.763054 215.391268 
L 171.559291 212.49834 
L 172.355529 210.872745 
L 173.151766 210.83101 
L 173.948004 212.340275 
L 176.336717 220.172175 
L 177.132954 221.083926 
L 177.929192 220.219084 
L 178.725429 217.704823 
L 181.114142 207.122471 
L 181.910379 205.029727 
L 182.706617 204.151209 
L 183.502854 204.179805 
L 184.299092 204.559174 
L 185.095329 204.706075 
L 185.891567 204.208062 
L 186.687804 202.926879 
L 187.484042 200.984436 
L 190.668992 191.994356 
L 191.46523 190.306682 
L 192.261467 188.972526 
L 193.057705 188.078417 
L 193.853942 187.747582 
L 194.65018 188.076279 
L 195.446417 189.045164 
L 197.038892 191.941104 
L 197.83513 193.047129 
L 198.631367 193.384286 
L 199.427605 192.765663 
L 200.223842 191.286461 
L 201.816317 187.298178 
L 202.612555 185.728283 
L 203.408792 184.838775 
L 204.20503 184.597359 
L 205.797505 184.842039 
L 206.593742 184.62836 
L 207.38998 183.996104 
L 208.186218 183.139887 
L 208.982455 182.480321 
L 209.778693 182.505656 
L 210.57493 183.572721 
L 211.371168 185.742079 
L 213.75988 194.427543 
L 214.556118 195.712629 
L 215.352355 195.282345 
L 216.148593 193.097607 
L 216.94483 189.52616 
L 218.537305 181.049688 
L 219.333543 177.670165 
L 220.12978 175.574176 
L 220.926018 174.880421 
L 221.722255 175.356896 
L 223.31473 177.757149 
L 224.110968 178.563838 
L 224.907206 178.621365 
L 225.703443 177.903459 
L 228.092156 174.340951 
L 228.888393 174.091317 
L 229.684631 174.690334 
L 230.480868 175.990816 
L 232.073343 179.064837 
L 232.869581 179.869759 
L 233.665818 179.720767 
L 234.462056 178.556933 
L 235.258293 176.577658 
L 236.850768 171.86396 
L 237.647006 170.076319 
L 238.443243 169.130821 
L 239.239481 169.12671 
L 240.035719 169.93825 
L 241.628194 172.622963 
L 242.424431 173.58563 
L 243.220669 173.718395 
L 244.016906 172.737859 
L 244.813144 170.559274 
L 245.609381 167.32889 
L 247.998094 155.725064 
L 248.794331 153.061768 
L 249.590569 151.66935 
L 250.386806 151.550935 
L 251.183044 152.377257 
L 251.979281 153.551501 
L 252.775519 154.356305 
L 253.571756 154.147422 
L 254.367994 152.53982 
L 255.164231 149.529418 
L 257.552944 137.329241 
L 258.349182 134.677917 
L 259.145419 133.628838 
L 259.941657 134.195917 
L 260.737894 136.011046 
L 262.330369 140.788971 
L 263.126607 142.460111 
L 263.922844 143.136762 
L 264.719082 142.819146 
L 265.515319 141.783792 
L 267.107794 139.275288 
L 267.904032 138.510341 
L 268.700269 138.226153 
L 270.292744 138.320943 
L 271.088982 138.065982 
L 271.88522 137.253002 
L 272.681457 135.793836 
L 273.477695 133.770242 
L 276.662645 124.448398 
L 277.458882 122.686223 
L 278.25512 121.26841 
L 279.051357 120.205579 
L 279.847595 119.544726 
L 280.643832 119.376085 
L 281.44007 119.805251 
L 282.236307 120.905415 
L 283.032545 122.675192 
L 283.828782 125.024358 
L 285.421257 130.813514 
L 287.80997 140.024712 
L 288.606208 142.795526 
L 289.402445 145.123373 
L 290.198683 146.690219 
L 290.99492 147.131063 
L 291.791158 146.155557 
L 292.587395 143.698379 
L 293.383633 140.03647 
L 294.976108 131.909062 
L 295.772345 129.250534 
L 296.568583 128.496922 
L 297.36482 129.829535 
L 298.161058 132.857588 
L 299.753533 140.32099 
L 300.54977 142.734937 
L 301.346008 143.460151 
L 302.142245 142.606158 
L 303.73472 139.094577 
L 304.530958 138.28244 
L 305.327196 138.887334 
L 306.123433 140.823204 
L 307.715908 145.940041 
L 308.512146 147.417251 
L 309.308383 147.5158 
L 310.104621 146.438293 
L 310.900858 144.91709 
L 311.697096 143.942356 
L 312.493333 144.38331 
L 313.289571 146.648743 
L 314.085808 150.517916 
L 315.678283 159.643447 
L 316.474521 162.848434 
L 317.270758 164.273315 
L 318.066996 163.973272 
L 320.455709 159.910014 
L 321.251946 160.047131 
L 322.048184 161.333776 
L 323.640659 165.422248 
L 324.436896 167.009905 
L 325.233134 167.838409 
L 326.029371 168.029034 
L 326.825609 167.996586 
L 327.621846 168.234558 
L 328.418084 169.07927 
L 329.214321 170.558509 
L 330.806796 174.116367 
L 331.603034 175.336562 
L 332.399271 175.885022 
L 333.991746 175.841455 
L 334.787984 176.129636 
L 335.584221 177.105033 
L 336.380459 178.790256 
L 337.972934 182.933118 
L 338.769172 184.452861 
L 339.565409 185.211748 
L 340.361647 185.276047 
L 341.954122 184.652839 
L 342.750359 184.600884 
L 344.342834 184.867646 
L 345.139072 184.452712 
L 345.935309 183.222054 
L 346.731547 181.202122 
L 347.527784 178.832066 
L 348.324022 176.851931 
L 349.120259 176.029214 
L 349.916497 176.830399 
L 350.712734 179.1781 
L 352.30521 185.466598 
L 353.101447 187.27513 
L 353.897685 187.140406 
L 354.693922 185.030697 
L 356.286397 178.026008 
L 357.082635 175.471505 
L 357.878872 174.780137 
L 358.67511 176.118533 
L 359.471347 178.950565 
L 360.267585 182.263291 
L 361.063822 184.963916 
L 361.86006 186.288996 
L 362.656297 186.067021 
L 363.452535 184.738954 
L 364.248772 183.140394 
L 365.04501 182.143523 
L 365.841247 182.307524 
L 366.637485 183.675247 
L 368.22996 187.888075 
L 369.026198 189.2436 
L 369.822435 189.41305 
L 370.618673 188.394814 
L 373.007385 183.017658 
L 373.803623 182.184022 
L 374.59986 182.132628 
L 375.396098 182.629852 
L 376.988573 183.867111 
L 377.78481 184.095508 
L 378.581048 183.98113 
L 380.173523 183.138956 
L 381.765998 182.226774 
L 382.562235 181.944758 
L 383.358473 181.923125 
L 384.15471 182.33313 
L 384.950948 183.348044 
L 385.747186 185.046253 
L 388.135898 191.991291 
L 388.932136 193.337004 
L 389.728373 193.474176 
L 390.524611 192.378635 
L 392.913323 186.643888 
L 393.709561 186.109748 
L 394.505798 186.80014 
L 396.894511 191.558345 
L 397.690748 191.846504 
L 398.486986 190.975763 
L 400.875699 186.056936 
L 401.671936 185.601467 
L 402.468174 186.023242 
L 403.264411 186.855289 
L 404.060649 187.388713 
L 404.856886 186.972818 
L 405.653124 185.299357 
L 406.449361 182.553552 
L 408.041836 176.613285 
L 408.838074 175.070956 
L 409.634311 175.184409 
L 410.430549 176.917571 
L 411.226786 179.80866 
L 412.819261 186.353244 
L 413.615499 188.941685 
L 413.615499 188.941685 
" clip-path="url(#p7aaacb956c)" style="fill: none; stroke: #e41a1c; stroke-width: 1.5; stroke-linecap: square"/>
   </g>
   <g id="line2d_15">
    <path d="M 46.55 242.534535 
L 48.142475 242.576578 
L 48.938713 242.940007 
L 49.73495 243.769553 
L 50.531188 245.074975 
L 52.9199 249.71698 
L 53.716138 250.590958 
L 54.512375 250.915026 
L 55.308613 250.816886 
L 56.901088 250.348654 
L 57.697325 250.388298 
L 60.086038 251.081866 
L 60.882275 250.814956 
L 61.678513 250.121747 
L 63.270988 248.290828 
L 64.067226 247.881252 
L 64.863463 248.244534 
L 65.659701 249.473108 
L 66.455938 251.393838 
L 68.048413 255.611067 
L 68.844651 256.951768 
L 69.640888 257.370206 
L 70.437126 256.870749 
L 71.233363 255.705521 
L 72.825838 253.020171 
L 73.622076 252.24633 
L 74.418313 252.101512 
L 75.214551 252.545693 
L 76.010788 253.409647 
L 78.399501 256.549136 
L 79.991976 258.137635 
L 83.973164 261.325136 
L 84.769401 262.240809 
L 85.565639 263.434529 
L 86.361876 264.94211 
L 89.546826 271.813775 
L 90.343064 272.743244 
L 91.139301 273.115753 
L 91.935539 273.019971 
L 94.324251 271.897582 
L 95.120489 271.751145 
L 96.712964 271.680957 
L 97.509202 271.498112 
L 98.305439 271.110887 
L 100.694152 269.464684 
L 101.490389 269.153479 
L 103.082864 268.852837 
L 103.879102 268.487574 
L 104.675339 267.690385 
L 105.471577 266.34696 
L 106.267814 264.495187 
L 108.656527 258.120441 
L 109.452764 256.576692 
L 110.249002 255.551969 
L 111.04524 255.009944 
L 111.841477 254.844843 
L 112.637715 254.943381 
L 113.433952 255.23122 
L 114.23019 255.684538 
L 115.026427 256.306716 
L 116.618902 257.969437 
L 118.211377 259.576576 
L 119.007615 260.063417 
L 119.803852 260.269628 
L 121.396327 260.128148 
L 122.192565 260.045372 
L 122.988802 260.105561 
L 123.78504 260.339066 
L 127.766228 262.264474 
L 130.15494 263.531765 
L 130.951178 263.741214 
L 131.747415 263.572203 
L 132.543653 262.91466 
L 133.33989 261.814157 
L 134.932365 259.392483 
L 135.728603 258.891601 
L 136.52484 259.317813 
L 137.321078 260.731134 
L 139.70979 267.334003 
L 140.506028 268.535709 
L 141.302265 268.664512 
L 142.098503 267.84068 
L 143.690978 265.143378 
L 144.487216 264.316113 
L 145.283453 264.246901 
L 146.079691 264.862147 
L 147.672166 266.636341 
L 148.468403 266.931059 
L 149.264641 266.533928 
L 150.060878 265.569794 
L 150.857116 264.392085 
L 151.653353 263.428656 
L 152.449591 262.999309 
L 153.245828 263.179885 
L 154.838303 264.358167 
L 155.634541 264.510543 
L 156.430778 263.922324 
L 157.227016 262.559698 
L 158.819491 258.776906 
L 159.615729 257.368743 
L 160.411966 256.873881 
L 161.208204 257.45158 
L 162.004441 258.962937 
L 163.596916 263.133581 
L 164.393154 264.819134 
L 165.189391 265.763415 
L 165.985629 265.862845 
L 166.781866 265.217312 
L 167.578104 264.06589 
L 169.170579 261.392517 
L 169.966816 260.345756 
L 170.763054 259.69036 
L 171.559291 259.49262 
L 172.355529 259.769202 
L 173.151766 260.49003 
L 173.948004 261.56838 
L 175.540479 264.108319 
L 176.336717 265.087665 
L 177.132954 265.546918 
L 177.929192 265.33714 
L 178.725429 264.458492 
L 180.317904 261.502841 
L 181.114142 260.07932 
L 181.910379 259.099034 
L 182.706617 258.693384 
L 183.502854 258.787635 
L 185.095329 259.351129 
L 185.891567 259.150676 
L 186.687804 258.356515 
L 187.484042 257.022178 
L 189.076517 253.901178 
L 189.872754 252.865275 
L 190.668992 252.52532 
L 191.46523 252.8798 
L 193.853942 255.292263 
L 194.65018 255.440723 
L 195.446417 255.048294 
L 197.038892 253.539564 
L 197.83513 253.094111 
L 198.631367 253.189517 
L 199.427605 253.846988 
L 201.816317 256.90568 
L 202.612555 257.403656 
L 203.408792 257.512124 
L 205.001267 257.428281 
L 205.797505 257.794151 
L 206.593742 258.656237 
L 207.38998 259.964282 
L 208.982455 262.996455 
L 209.778693 264.18989 
L 210.57493 264.973141 
L 211.371168 265.394992 
L 212.963643 265.860929 
L 214.556118 266.701863 
L 215.352355 267.136386 
L 216.148593 267.312269 
L 216.94483 267.063899 
L 217.741068 266.382554 
L 219.333543 264.67752 
L 220.12978 264.444503 
L 220.926018 265.097094 
L 221.722255 266.741982 
L 222.518493 269.199665 
L 224.110968 274.703647 
L 224.907206 276.672958 
L 225.703443 277.623578 
L 226.499681 277.514087 
L 227.295918 276.580395 
L 228.888393 273.967118 
L 229.684631 273.115798 
L 230.480868 272.861927 
L 231.277106 273.165863 
L 233.665818 275.197985 
L 234.462056 275.553154 
L 235.258293 275.648621 
L 237.647006 275.492617 
L 238.443243 275.630011 
L 240.831956 276.40115 
L 241.628194 276.508104 
L 242.424431 276.464503 
L 244.016906 276.052854 
L 245.609381 275.610696 
L 248.794331 274.970007 
L 249.590569 274.494564 
L 250.386806 273.748302 
L 251.183044 272.730675 
L 253.571756 269.131203 
L 254.367994 268.361717 
L 255.164231 268.089158 
L 255.960469 268.352654 
L 256.756707 269.050839 
L 258.349182 270.723155 
L 259.145419 271.049802 
L 259.941657 270.688404 
L 260.737894 269.559782 
L 261.534132 267.777354 
L 263.126607 263.482857 
L 263.922844 261.727737 
L 264.719082 260.627574 
L 265.515319 260.271071 
L 266.311557 260.547034 
L 267.904032 261.813987 
L 268.700269 262.109018 
L 269.496507 261.840193 
L 270.292744 260.955277 
L 271.88522 258.016355 
L 272.681457 256.594072 
L 273.477695 255.648451 
L 274.273932 255.394842 
L 275.07017 255.874044 
L 275.866407 256.934755 
L 277.458882 259.478701 
L 278.25512 260.201764 
L 279.051357 260.193354 
L 279.847595 259.410908 
L 280.643832 258.032853 
L 282.236307 255.005331 
L 283.032545 254.200255 
L 283.828782 254.250638 
L 284.62502 255.182603 
L 285.421257 256.798675 
L 287.013732 260.633826 
L 287.80997 262.155706 
L 288.606208 263.183728 
L 289.402445 263.793513 
L 290.99492 264.74246 
L 291.791158 265.591501 
L 292.587395 266.832787 
L 294.17987 269.884676 
L 294.976108 271.130738 
L 295.772345 271.851405 
L 296.568583 271.968752 
L 297.36482 271.596657 
L 298.957295 270.529857 
L 299.753533 270.463384 
L 300.54977 270.962697 
L 301.346008 272.007714 
L 303.73472 276.234003 
L 304.530958 277.148479 
L 305.327196 277.5704 
L 306.123433 277.524222 
L 306.919671 277.120864 
L 310.104621 274.72231 
L 310.900858 274.41708 
L 311.697096 274.338944 
L 312.493333 274.518323 
L 313.289571 274.966143 
L 314.085808 275.657991 
L 316.474521 278.243447 
L 317.270758 278.796176 
L 318.066996 278.976149 
L 318.863233 278.735179 
L 319.659471 278.107431 
L 322.844421 274.525276 
L 323.640659 274.165637 
L 324.436896 274.218565 
L 325.233134 274.676531 
L 326.029371 275.472919 
L 330.010559 280.441749 
L 331.603034 281.484065 
L 333.195509 282.314855 
L 334.787984 283.406296 
L 336.380459 284.540503 
L 337.176697 284.90723 
L 337.972934 285.05783 
L 338.769172 285.006526 
L 341.157884 284.603601 
L 341.954122 284.709257 
L 343.546597 285.185083 
L 344.342834 285.266352 
L 345.139072 285.039772 
L 345.935309 284.440728 
L 347.527784 282.466102 
L 348.324022 281.49887 
L 349.120259 280.846264 
L 349.916497 280.636313 
L 350.712734 280.850947 
L 352.30521 281.776986 
L 353.101447 281.918089 
L 353.897685 281.506582 
L 354.693922 280.425191 
L 355.49016 278.701475 
L 357.082635 274.031593 
L 358.67511 269.420401 
L 359.471347 267.720727 
L 360.267585 266.6281 
L 361.063822 266.200703 
L 361.86006 266.408106 
L 362.656297 267.121916 
L 364.248772 269.099562 
L 365.04501 269.755028 
L 365.841247 269.831385 
L 366.637485 269.215632 
L 367.433722 267.986936 
L 369.026198 264.900941 
L 369.822435 263.85623 
L 370.618673 263.586426 
L 371.41491 264.192566 
L 372.211148 265.544219 
L 374.59986 270.722985 
L 375.396098 271.82962 
L 376.192335 272.494917 
L 380.173523 274.466686 
L 380.96976 274.87981 
L 381.765998 275.121709 
L 384.15471 275.402213 
L 384.950948 275.831854 
L 387.339661 277.982077 
L 388.135898 278.103928 
L 388.932136 277.481335 
L 389.728373 276.07768 
L 391.320848 271.850636 
L 392.117086 269.775549 
L 392.913323 268.144967 
L 393.709561 267.041949 
L 396.098273 264.967326 
L 396.894511 263.87732 
L 398.486986 261.130307 
L 399.283223 260.053282 
L 400.079461 259.563573 
L 400.875699 259.753041 
L 401.671936 260.470703 
L 402.468174 261.363447 
L 403.264411 261.999429 
L 404.060649 262.026135 
L 404.856886 261.302003 
L 405.653124 259.951754 
L 407.245599 256.880707 
L 408.041836 256.025842 
L 408.838074 255.991542 
L 409.634311 256.761839 
L 412.023024 260.784139 
L 412.819261 261.36336 
L 413.615499 261.101202 
L 413.615499 261.101202 
" clip-path="url(#p7aaacb956c)" style="fill: none; stroke: #377eb8; stroke-width: 1.5; stroke-linecap: square"/>
   </g>
   <g id="line2d_16">
    <path d="M 87.158114 318.2 
L 87.158114 71.241125 
" clip-path="url(#p7aaacb956c)" style="fill: none; stroke: #000000; stroke-width: 0.5; stroke-linecap: square"/>
   </g>
   <g id="line2d_17">
    <path d="M 46.55 252.867884 
L 413.615499 252.867884 
" clip-path="url(#p7aaacb956c)" style="fill: none; stroke: #000000; stroke-width: 0.5; stroke-linecap: square"/>
   </g>
   <g id="patch_4">
    <path d="M 46.55 318.2 
L 46.55 71.241125 
" style="fill: none; stroke: #000000; stroke-width: 0.8; stroke-linejoin: miter; stroke-linecap: square"/>
   </g>
   <g id="patch_5">
    <path d="M 413.615499 318.2 
L 413.615499 71.241125 
" style="fill: none; stroke: #000000; stroke-width: 0.8; stroke-linejoin: miter; stroke-linecap: square"/>
   </g>
   <g id="patch_6">
    <path d="M 46.55 318.2 
L 413.615499 318.2 
" style="fill: none; stroke: #000000; stroke-width: 0.8; stroke-linejoin: miter; stroke-linecap: square"/>
   </g>
   <g id="patch_7">
    <path d="M 46.55 71.241125 
L 413.615499 71.241125 
" style="fill: none; stroke: #000000; stroke-width: 0.8; stroke-linejoin: miter; stroke-linecap: square"/>
   </g>
   <g id="text_16">
    <!-- Cz -->
    <g transform="translate(222.743999 65.241125)scale(0.12 -0.12)">
     <defs>
      <path id="DejaVuSans-43" d="M 4122 4306 
L 4122 3641 
Q 3803 3938 3442 4084 
Q 3081 4231 2675 4231 
Q 1875 4231 1450 3742 
Q 1025 3253 1025 2328 
Q 1025 1406 1450 917 
Q 1875 428 2675 428 
Q 3081 428 3442 575 
Q 3803 722 4122 1019 
L 4122 359 
Q 3791 134 3420 21 
Q 3050 -91 2638 -91 
Q 1578 -91 968 557 
Q 359 1206 359 2328 
Q 359 3453 968 4101 
Q 1578 4750 2638 4750 
Q 3056 4750 3426 4639 
Q 3797 4528 4122 4306 
z
" transform="scale(0.015625)"/>
      <path id="DejaVuSans-7a" d="M 353 3500 
L 3084 3500 
L 3084 2975 
L 922 459 
L 3084 459 
L 3084 0 
L 275 0 
L 275 525 
L 2438 3041 
L 353 3041 
L 353 3500 
z
" transform="scale(0.015625)"/>
     </defs>
     <use xlink:href="#DejaVuSans-43"/>
     <use xlink:href="#DejaVuSans-7a" x="69.824219"/>
    </g>
   </g>
   <g id="legend_1">
    <g id="patch_8">
     <path d="M 99.855406 48.044893 
L 360.310093 48.044893 
Q 362.310093 48.044893 362.310093 46.044893 
L 362.310093 17.410517 
Q 362.310093 15.410517 360.310093 15.410517 
L 99.855406 15.410517 
Q 97.855406 15.410517 97.855406 17.410517 
L 97.855406 46.044893 
Q 97.855406 48.044893 99.855406 48.044893 
z
" style="fill: #ffffff; opacity: 0.8; stroke: #cccccc; stroke-linejoin: miter"/>
    </g>
    <g id="text_17">
     <!-- Average of Session 20_tac4 -->
     <g transform="translate(161.068687 27.008955)scale(0.1 -0.1)">
      <defs>
       <path id="DejaVuSans-41" d="M 2188 4044 
L 1331 1722 
L 3047 1722 
L 2188 4044 
z
M 1831 4666 
L 2547 4666 
L 4325 0 
L 3669 0 
L 3244 1197 
L 1141 1197 
L 716 0 
L 50 0 
L 1831 4666 
z
" transform="scale(0.015625)"/>
       <path id="DejaVuSans-76" d="M 191 3500 
L 800 3500 
L 1894 563 
L 2988 3500 
L 3597 3500 
L 2284 0 
L 1503 0 
L 191 3500 
z
" transform="scale(0.015625)"/>
       <path id="DejaVuSans-72" d="M 2631 2963 
Q 2534 3019 2420 3045 
Q 2306 3072 2169 3072 
Q 1681 3072 1420 2755 
Q 1159 2438 1159 1844 
L 1159 0 
L 581 0 
L 581 3500 
L 1159 3500 
L 1159 2956 
Q 1341 3275 1631 3429 
Q 1922 3584 2338 3584 
Q 2397 3584 2469 3576 
Q 2541 3569 2628 3553 
L 2631 2963 
z
" transform="scale(0.015625)"/>
       <path id="DejaVuSans-61" d="M 2194 1759 
Q 1497 1759 1228 1600 
Q 959 1441 959 1056 
Q 959 750 1161 570 
Q 1363 391 1709 391 
Q 2188 391 2477 730 
Q 2766 1069 2766 1631 
L 2766 1759 
L 2194 1759 
z
M 3341 1997 
L 3341 0 
L 2766 0 
L 2766 531 
Q 2569 213 2275 61 
Q 1981 -91 1556 -91 
Q 1019 -91 701 211 
Q 384 513 384 1019 
Q 384 1609 779 1909 
Q 1175 2209 1959 2209 
L 2766 2209 
L 2766 2266 
Q 2766 2663 2505 2880 
Q 2244 3097 1772 3097 
Q 1472 3097 1187 3025 
Q 903 2953 641 2809 
L 641 3341 
Q 956 3463 1253 3523 
Q 1550 3584 1831 3584 
Q 2591 3584 2966 3190 
Q 3341 2797 3341 1997 
z
" transform="scale(0.015625)"/>
       <path id="DejaVuSans-67" d="M 2906 1791 
Q 2906 2416 2648 2759 
Q 2391 3103 1925 3103 
Q 1463 3103 1205 2759 
Q 947 2416 947 1791 
Q 947 1169 1205 825 
Q 1463 481 1925 481 
Q 2391 481 2648 825 
Q 2906 1169 2906 1791 
z
M 3481 434 
Q 3481 -459 3084 -895 
Q 2688 -1331 1869 -1331 
Q 1566 -1331 1297 -1286 
Q 1028 -1241 775 -1147 
L 775 -588 
Q 1028 -725 1275 -790 
Q 1522 -856 1778 -856 
Q 2344 -856 2625 -561 
Q 2906 -266 2906 331 
L 2906 616 
Q 2728 306 2450 153 
Q 2172 0 1784 0 
Q 1141 0 747 490 
Q 353 981 353 1791 
Q 353 2603 747 3093 
Q 1141 3584 1784 3584 
Q 2172 3584 2450 3431 
Q 2728 3278 2906 2969 
L 2906 3500 
L 3481 3500 
L 3481 434 
z
" transform="scale(0.015625)"/>
       <path id="DejaVuSans-20" transform="scale(0.015625)"/>
       <path id="DejaVuSans-66" d="M 2375 4863 
L 2375 4384 
L 1825 4384 
Q 1516 4384 1395 4259 
Q 1275 4134 1275 3809 
L 1275 3500 
L 2222 3500 
L 2222 3053 
L 1275 3053 
L 1275 0 
L 697 0 
L 697 3053 
L 147 3053 
L 147 3500 
L 697 3500 
L 697 3744 
Q 697 4328 969 4595 
Q 1241 4863 1831 4863 
L 2375 4863 
z
" transform="scale(0.015625)"/>
       <path id="DejaVuSans-53" d="M 3425 4513 
L 3425 3897 
Q 3066 4069 2747 4153 
Q 2428 4238 2131 4238 
Q 1616 4238 1336 4038 
Q 1056 3838 1056 3469 
Q 1056 3159 1242 3001 
Q 1428 2844 1947 2747 
L 2328 2669 
Q 3034 2534 3370 2195 
Q 3706 1856 3706 1288 
Q 3706 609 3251 259 
Q 2797 -91 1919 -91 
Q 1588 -91 1214 -16 
Q 841 59 441 206 
L 441 856 
Q 825 641 1194 531 
Q 1563 422 1919 422 
Q 2459 422 2753 634 
Q 3047 847 3047 1241 
Q 3047 1584 2836 1778 
Q 2625 1972 2144 2069 
L 1759 2144 
Q 1053 2284 737 2584 
Q 422 2884 422 3419 
Q 422 4038 858 4394 
Q 1294 4750 2059 4750 
Q 2388 4750 2728 4690 
Q 3069 4631 3425 4513 
z
" transform="scale(0.015625)"/>
       <path id="DejaVuSans-69" d="M 603 3500 
L 1178 3500 
L 1178 0 
L 603 0 
L 603 3500 
z
M 603 4863 
L 1178 4863 
L 1178 4134 
L 603 4134 
L 603 4863 
z
" transform="scale(0.015625)"/>
       <path id="DejaVuSans-5f" d="M 3263 -1063 
L 3263 -1509 
L -63 -1509 
L -63 -1063 
L 3263 -1063 
z
" transform="scale(0.015625)"/>
       <path id="DejaVuSans-74" d="M 1172 4494 
L 1172 3500 
L 2356 3500 
L 2356 3053 
L 1172 3053 
L 1172 1153 
Q 1172 725 1289 603 
Q 1406 481 1766 481 
L 2356 481 
L 2356 0 
L 1766 0 
Q 1100 0 847 248 
Q 594 497 594 1153 
L 594 3053 
L 172 3053 
L 172 3500 
L 594 3500 
L 594 4494 
L 1172 4494 
z
" transform="scale(0.015625)"/>
      </defs>
      <use xlink:href="#DejaVuSans-41"/>
      <use xlink:href="#DejaVuSans-76" x="62.533203"/>
      <use xlink:href="#DejaVuSans-65" x="121.712891"/>
      <use xlink:href="#DejaVuSans-72" x="183.236328"/>
      <use xlink:href="#DejaVuSans-61" x="224.349609"/>
      <use xlink:href="#DejaVuSans-67" x="285.628906"/>
      <use xlink:href="#DejaVuSans-65" x="349.105469"/>
      <use xlink:href="#DejaVuSans-20" x="410.628906"/>
      <use xlink:href="#DejaVuSans-6f" x="442.416016"/>
      <use xlink:href="#DejaVuSans-66" x="503.597656"/>
      <use xlink:href="#DejaVuSans-20" x="538.802734"/>
      <use xlink:href="#DejaVuSans-53" x="570.589844"/>
      <use xlink:href="#DejaVuSans-65" x="634.066406"/>
      <use xlink:href="#DejaVuSans-73" x="695.589844"/>
      <use xlink:href="#DejaVuSans-73" x="747.689453"/>
      <use xlink:href="#DejaVuSans-69" x="799.789062"/>
      <use xlink:href="#DejaVuSans-6f" x="827.572266"/>
      <use xlink:href="#DejaVuSans-6e" x="888.753906"/>
      <use xlink:href="#DejaVuSans-20" x="952.132812"/>
      <use xlink:href="#DejaVuSans-32" x="983.919922"/>
      <use xlink:href="#DejaVuSans-30" x="1047.542969"/>
      <use xlink:href="#DejaVuSans-5f" x="1111.166016"/>
      <use xlink:href="#DejaVuSans-74" x="1161.166016"/>
      <use xlink:href="#DejaVuSans-61" x="1200.375"/>
      <use xlink:href="#DejaVuSans-63" x="1261.654297"/>
      <use xlink:href="#DejaVuSans-34" x="1316.634766"/>
     </g>
    </g>
    <g id="line2d_18">
     <path d="M 101.855406 38.465205 
L 111.855406 38.465205 
L 121.855406 38.465205 
" style="fill: none; stroke: #e41a1c; stroke-width: 1.5; stroke-linecap: square"/>
    </g>
    <g id="text_18">
     <!-- Target (n=390) -->
     <g transform="translate(129.855406 41.965205)scale(0.1 -0.1)">
      <defs>
       <path id="DejaVuSans-54" d="M -19 4666 
L 3928 4666 
L 3928 4134 
L 2272 4134 
L 2272 0 
L 1638 0 
L 1638 4134 
L -19 4134 
L -19 4666 
z
" transform="scale(0.015625)"/>
       <path id="DejaVuSans-28" d="M 1984 4856 
Q 1566 4138 1362 3434 
Q 1159 2731 1159 2009 
Q 1159 1288 1364 580 
Q 1569 -128 1984 -844 
L 1484 -844 
Q 1016 -109 783 600 
Q 550 1309 550 2009 
Q 550 2706 781 3412 
Q 1013 4119 1484 4856 
L 1984 4856 
z
" transform="scale(0.015625)"/>
       <path id="DejaVuSans-3d" d="M 678 2906 
L 4684 2906 
L 4684 2381 
L 678 2381 
L 678 2906 
z
M 678 1631 
L 4684 1631 
L 4684 1100 
L 678 1100 
L 678 1631 
z
" transform="scale(0.015625)"/>
       <path id="DejaVuSans-39" d="M 703 97 
L 703 672 
Q 941 559 1184 500 
Q 1428 441 1663 441 
Q 2288 441 2617 861 
Q 2947 1281 2994 2138 
Q 2813 1869 2534 1725 
Q 2256 1581 1919 1581 
Q 1219 1581 811 2004 
Q 403 2428 403 3163 
Q 403 3881 828 4315 
Q 1253 4750 1959 4750 
Q 2769 4750 3195 4129 
Q 3622 3509 3622 2328 
Q 3622 1225 3098 567 
Q 2575 -91 1691 -91 
Q 1453 -91 1209 -44 
Q 966 3 703 97 
z
M 1959 2075 
Q 2384 2075 2632 2365 
Q 2881 2656 2881 3163 
Q 2881 3666 2632 3958 
Q 2384 4250 1959 4250 
Q 1534 4250 1286 3958 
Q 1038 3666 1038 3163 
Q 1038 2656 1286 2365 
Q 1534 2075 1959 2075 
z
" transform="scale(0.015625)"/>
       <path id="DejaVuSans-29" d="M 513 4856 
L 1013 4856 
Q 1481 4119 1714 3412 
Q 1947 2706 1947 2009 
Q 1947 1309 1714 600 
Q 1481 -109 1013 -844 
L 513 -844 
Q 928 -128 1133 580 
Q 1338 1288 1338 2009 
Q 1338 2731 1133 3434 
Q 928 4138 513 4856 
z
" transform="scale(0.015625)"/>
      </defs>
      <use xlink:href="#DejaVuSans-54"/>
      <use xlink:href="#DejaVuSans-61" x="44.583984"/>
      <use xlink:href="#DejaVuSans-72" x="105.863281"/>
      <use xlink:href="#DejaVuSans-67" x="145.226562"/>
      <use xlink:href="#DejaVuSans-65" x="208.703125"/>
      <use xlink:href="#DejaVuSans-74" x="270.226562"/>
      <use xlink:href="#DejaVuSans-20" x="309.435547"/>
      <use xlink:href="#DejaVuSans-28" x="341.222656"/>
      <use xlink:href="#DejaVuSans-6e" x="380.236328"/>
      <use xlink:href="#DejaVuSans-3d" x="443.615234"/>
      <use xlink:href="#DejaVuSans-33" x="527.404297"/>
      <use xlink:href="#DejaVuSans-39" x="591.027344"/>
      <use xlink:href="#DejaVuSans-30" x="654.650391"/>
      <use xlink:href="#DejaVuSans-29" x="718.273438"/>
     </g>
    </g>
    <g id="line2d_19">
     <path d="M 225.585093 38.465205 
L 235.585093 38.465205 
L 245.585093 38.465205 
" style="fill: none; stroke: #377eb8; stroke-width: 1.5; stroke-linecap: square"/>
    </g>
    <g id="text_19">
     <!-- Non-Target (n=1183) -->
     <g transform="translate(253.585093 41.965205)scale(0.1 -0.1)">
      <defs>
       <path id="DejaVuSans-4e" d="M 628 4666 
L 1478 4666 
L 3547 763 
L 3547 4666 
L 4159 4666 
L 4159 0 
L 3309 0 
L 1241 3903 
L 1241 0 
L 628 0 
L 628 4666 
z
" transform="scale(0.015625)"/>
       <path id="DejaVuSans-2d" d="M 313 2009 
L 1997 2009 
L 1997 1497 
L 313 1497 
L 313 2009 
z
" transform="scale(0.015625)"/>
      </defs>
      <use xlink:href="#DejaVuSans-4e"/>
      <use xlink:href="#DejaVuSans-6f" x="74.804688"/>
      <use xlink:href="#DejaVuSans-6e" x="135.986328"/>
      <use xlink:href="#DejaVuSans-2d" x="199.365234"/>
      <use xlink:href="#DejaVuSans-54" x="226.324219"/>
      <use xlink:href="#DejaVuSans-61" x="270.908203"/>
      <use xlink:href="#DejaVuSans-72" x="332.1875"/>
      <use xlink:href="#DejaVuSans-67" x="371.550781"/>
      <use xlink:href="#DejaVuSans-65" x="435.027344"/>
      <use xlink:href="#DejaVuSans-74" x="496.550781"/>
      <use xlink:href="#DejaVuSans-20" x="535.759766"/>
      <use xlink:href="#DejaVuSans-28" x="567.546875"/>
      <use xlink:href="#DejaVuSans-6e" x="606.560547"/>
      <use xlink:href="#DejaVuSans-3d" x="669.939453"/>
      <use xlink:href="#DejaVuSans-31" x="753.728516"/>
      <use xlink:href="#DejaVuSans-31" x="817.351562"/>
      <use xlink:href="#DejaVuSans-38" x="880.974609"/>
      <use xlink:href="#DejaVuSans-33" x="944.597656"/>
      <use xlink:href="#DejaVuSans-29" x="1008.220703"/>
     </g>
    </g>
   </g>
  </g>
 </g>
 <defs>
  <clipPath id="p7aaacb956c">
   <rect x="46.55" y="71.241125" width="367.065499" height="246.958875"/>
  </clipPath>
 </defs>
</svg>
