<?xml version="1.0" encoding="utf-8" standalone="no"?>
<!DOCTYPE svg PUBLIC "-//W3C//DTD SVG 1.1//EN"
  "http://www.w3.org/Graphics/SVG/1.1/DTD/svg11.dtd">
<svg xmlns:xlink="http://www.w3.org/1999/xlink" width="432pt" height="360pt" viewBox="0 0 432 360" xmlns="http://www.w3.org/2000/svg" version="1.1">
 <metadata>
  <rdf:RDF xmlns:dc="http://purl.org/dc/elements/1.1/" xmlns:cc="http://creativecommons.org/ns#" xmlns:rdf="http://www.w3.org/1999/02/22-rdf-syntax-ns#">
   <cc:Work>
    <dc:type rdf:resource="http://purl.org/dc/dcmitype/StillImage"/>
    <dc:date>2022-11-02T16:57:13.307188</dc:date>
    <dc:format>image/svg+xml</dc:format>
    <dc:creator>
     <cc:Agent>
      <dc:title>Matplotlib v3.5.1, https://matplotlib.org/</dc:title>
     </cc:Agent>
    </dc:creator>
   </cc:Work>
  </rdf:RDF>
 </metadata>
 <defs>
  <style type="text/css">*{stroke-linejoin: round; stroke-linecap: butt}</style>
 </defs>
 <g id="figure_1">
  <g id="patch_1">
   <path d="M 0 360 
L 432 360 
L 432 0 
L 0 0 
L 0 360 
z
" style="fill: none"/>
  </g>
  <g id="axes_1">
   <g id="patch_2">
    <path d="M 46.55 318.2 
L 413.615499 318.2 
L 413.615499 71.241125 
L 46.55 71.241125 
L 46.55 318.2 
z
" style="fill: none"/>
   </g>
   <g id="PolyCollection_1">
    <defs>
     <path id="mf9abed5a39" d="M 46.55 -142.922697 
L 46.55 -98.827963 
L 47.346238 -100.983466 
L 48.142475 -104.488964 
L 48.938713 -108.734582 
L 49.73495 -113.000079 
L 50.531188 -116.540678 
L 51.327425 -118.757112 
L 52.123663 -119.421878 
L 52.9199 -118.79772 
L 53.716138 -117.508421 
L 54.512375 -116.233817 
L 55.308613 -115.45098 
L 56.10485 -115.340769 
L 56.901088 -115.809042 
L 57.697325 -116.547561 
L 58.493563 -117.136938 
L 59.2898 -117.21806 
L 60.086038 -116.688912 
L 60.882275 -115.799635 
L 61.678513 -115.043918 
L 62.47475 -114.901908 
L 63.270988 -115.595824 
L 64.067226 -116.970902 
L 64.863463 -118.530947 
L 65.659701 -119.614375 
L 66.455938 -119.648627 
L 67.252176 -118.360647 
L 68.048413 -115.837663 
L 68.844651 -112.44703 
L 69.640888 -108.709436 
L 70.437126 -105.201572 
L 71.233363 -102.479249 
L 72.029601 -100.95814 
L 72.825838 -100.760388 
L 73.622076 -101.647773 
L 74.418313 -103.138657 
L 75.214551 -104.750319 
L 76.010788 -106.180286 
L 76.807026 -107.305823 
L 77.603263 -108.0718 
L 78.399501 -108.400229 
L 79.195739 -108.177927 
L 79.991976 -107.311217 
L 80.788214 -105.813958 
L 81.584451 -103.880043 
L 82.380689 -101.881656 
L 83.176926 -100.265471 
L 83.973164 -99.391108 
L 84.769401 -99.396585 
L 85.565639 -100.145714 
L 86.361876 -101.257446 
L 87.158114 -102.193018 
L 87.954351 -102.394918 
L 88.750589 -101.470066 
L 89.546826 -99.371008 
L 90.343064 -96.491766 
L 91.139301 -93.597301 
L 91.935539 -91.565176 
L 92.731776 -91.019779 
L 93.528014 -92.023255 
L 94.324251 -93.986107 
L 95.120489 -95.876581 
L 95.916727 -96.663208 
L 96.712964 -95.774014 
L 97.509202 -93.329444 
L 98.305439 -90.06732 
L 99.101677 -87.068855 
L 99.897914 -85.434763 
L 100.694152 -85.965395 
L 101.490389 -88.840447 
L 102.286627 -93.399571 
L 103.082864 -98.233313 
L 103.879102 -101.688676 
L 104.675339 -102.610355 
L 105.471577 -100.87097 
L 106.267814 -97.346185 
L 107.064052 -93.441315 
L 107.860289 -90.51629 
L 108.656527 -89.459331 
L 109.452764 -90.500279 
L 110.249002 -93.231471 
L 111.04524 -96.763107 
L 111.841477 -99.98479 
L 112.637715 -101.915167 
L 113.433952 -102.049156 
L 114.23019 -100.546119 
L 115.026427 -98.125254 
L 115.822665 -95.685562 
L 116.618902 -93.853629 
L 117.41514 -92.713428 
L 118.211377 -91.861614 
L 119.007615 -90.742458 
L 119.803852 -89.035062 
L 120.60009 -86.834931 
L 121.396327 -84.559645 
L 122.192565 -82.711335 
L 122.988802 -81.657642 
L 123.78504 -81.50474 
L 124.581277 -82.049637 
L 125.377515 -82.793773 
L 126.173752 -83.051551 
L 126.96999 -82.17825 
L 127.766228 -79.852327 
L 128.562465 -76.275408 
L 129.358703 -72.16269 
L 130.15494 -68.48815 
L 130.951178 -66.082827 
L 131.747415 -65.275124 
L 132.543653 -65.741996 
L 133.33989 -66.634817 
L 134.136128 -66.923022 
L 134.932365 -65.814954 
L 135.728603 -63.096928 
L 136.52484 -59.273015 
L 137.321078 -55.455333 
L 138.117315 -53.025403 
L 138.913553 -53.16252 
L 139.70979 -56.40216 
L 140.506028 -62.396906 
L 141.302265 -69.976147 
L 142.098503 -77.477006 
L 142.89474 -83.222803 
L 143.690978 -85.999976 
L 144.487216 -85.405572 
L 145.283453 -81.965315 
L 146.079691 -76.96971 
L 146.875928 -72.073216 
L 147.672166 -68.808892 
L 148.468403 -68.196659 
L 149.264641 -70.543072 
L 150.060878 -75.423669 
L 150.857116 -81.803951 
L 151.653353 -88.281856 
L 152.449591 -93.430433 
L 153.245828 -96.159664 
L 154.042066 -95.971079 
L 154.838303 -93.021748 
L 155.634541 -88.023015 
L 156.430778 -82.0658 
L 157.227016 -76.429653 
L 158.023253 -72.363944 
L 158.819491 -70.829154 
L 159.615729 -72.251028 
L 160.411966 -76.377271 
L 161.208204 -82.296958 
L 162.004441 -88.630746 
L 162.800679 -93.859416 
L 163.596916 -96.717542 
L 164.393154 -96.538342 
L 165.189391 -93.433294 
L 165.985629 -88.254125 
L 166.781866 -82.360514 
L 167.578104 -77.249235 
L 168.374341 -74.125331 
L 169.170579 -73.537279 
L 169.966816 -75.229099 
L 170.763054 -78.296424 
L 171.559291 -81.595631 
L 172.355529 -84.217798 
L 173.151766 -85.809711 
L 173.948004 -86.635866 
L 174.744241 -87.41868 
L 175.540479 -89.047396 
L 176.336717 -92.206979 
L 177.132954 -97.000668 
L 177.929192 -102.73343 
L 178.725429 -108.03222 
L 179.521667 -111.32616 
L 180.317904 -111.502735 
L 181.114142 -108.427909 
L 181.910379 -103.073434 
L 182.706617 -97.218893 
L 183.502854 -92.89745 
L 184.299092 -91.79784 
L 185.095329 -94.778163 
L 185.891567 -101.593592 
L 186.687804 -110.917325 
L 187.484042 -120.688569 
L 188.280279 -128.712056 
L 189.076517 -133.306816 
L 189.872754 -133.75928 
L 190.668992 -130.436048 
L 191.46523 -124.584426 
L 192.261467 -117.953015 
L 193.057705 -112.354578 
L 193.853942 -109.241874 
L 194.65018 -109.3696 
L 195.446417 -112.637468 
L 196.242655 -118.185486 
L 197.038892 -124.713543 
L 197.83513 -130.894217 
L 198.631367 -135.716948 
L 199.427605 -138.666986 
L 200.223842 -139.741903 
L 201.02008 -139.359777 
L 201.816317 -138.211587 
L 202.612555 -137.078432 
L 203.408792 -136.61382 
L 204.20503 -137.120408 
L 205.001267 -138.410827 
L 205.797505 -139.847279 
L 206.593742 -140.573288 
L 207.38998 -139.853846 
L 208.186218 -137.392066 
L 208.982455 -133.501384 
L 209.778693 -129.060992 
L 210.57493 -125.25461 
L 211.371168 -123.177337 
L 212.167405 -123.45525 
L 212.963643 -126.01568 
L 213.75988 -130.071859 
L 214.556118 -134.316425 
L 215.352355 -137.280688 
L 216.148593 -137.785343 
L 216.94483 -135.352058 
L 217.741068 -130.399277 
L 218.537305 -124.102 
L 219.333543 -117.971356 
L 220.12978 -113.374157 
L 220.926018 -111.20545 
L 221.722255 -111.76552 
L 222.518493 -114.753255 
L 223.31473 -119.331423 
L 224.110968 -124.325499 
L 224.907206 -128.584583 
L 225.703443 -131.391535 
L 226.499681 -132.699892 
L 227.295918 -133.033985 
L 228.092156 -133.127572 
L 228.888393 -133.558852 
L 229.684631 -134.580702 
L 230.480868 -136.164929 
L 231.277106 -138.151701 
L 232.073343 -140.382599 
L 232.869581 -142.762106 
L 233.665818 -145.254066 
L 234.462056 -147.837705 
L 235.258293 -150.44903 
L 236.054531 -152.932871 
L 236.850768 -155.027005 
L 237.647006 -156.394444 
L 238.443243 -156.71205 
L 239.239481 -155.79736 
L 240.035719 -153.724029 
L 240.831956 -150.860364 
L 241.628194 -147.793385 
L 242.424431 -145.161642 
L 243.220669 -143.469951 
L 244.016906 -142.956425 
L 244.813144 -143.54668 
L 245.609381 -144.89609 
L 246.405619 -146.504692 
L 247.201856 -147.872381 
L 247.998094 -148.640009 
L 248.794331 -148.65994 
L 249.590569 -147.975207 
L 250.386806 -146.741686 
L 251.183044 -145.152525 
L 251.979281 -143.404904 
L 252.775519 -141.702474 
L 253.571756 -140.266544 
L 254.367994 -139.332496 
L 255.164231 -139.122596 
L 255.960469 -139.795811 
L 256.756707 -141.384708 
L 257.552944 -143.749604 
L 258.349182 -146.585895 
L 259.145419 -149.508504 
L 259.941657 -152.195675 
L 260.737894 -154.529657 
L 261.534132 -156.65203 
L 262.330369 -158.880038 
L 263.126607 -161.51147 
L 263.922844 -164.627683 
L 264.719082 -168.012221 
L 265.515319 -171.221451 
L 266.311557 -173.750178 
L 267.107794 -175.21154 
L 267.904032 -175.480918 
L 268.700269 -174.777283 
L 269.496507 -173.659555 
L 270.292744 -172.91802 
L 271.088982 -173.355735 
L 271.88522 -175.50284 
L 272.681457 -179.379243 
L 273.477695 -184.436025 
L 274.273932 -189.719479 
L 275.07017 -194.181015 
L 275.866407 -196.996193 
L 276.662645 -197.781775 
L 277.458882 -196.659852 
L 278.25512 -194.179947 
L 279.051357 -191.136191 
L 279.847595 -188.328522 
L 280.643832 -186.329785 
L 281.44007 -185.3324 
L 282.236307 -185.130211 
L 283.032545 -185.233998 
L 283.828782 -185.07145 
L 284.62502 -184.195386 
L 285.421257 -182.434606 
L 286.217495 -179.950132 
L 287.013732 -177.196506 
L 287.80997 -174.815549 
L 288.606208 -173.492145 
L 289.402445 -173.789647 
L 290.198683 -175.986758 
L 290.99492 -179.961012 
L 291.791158 -185.171025 
L 292.587395 -190.760778 
L 293.383633 -195.765193 
L 294.17987 -199.363897 
L 294.976108 -201.112972 
L 295.772345 -201.076131 
L 296.568583 -199.791827 
L 297.36482 -198.07303 
L 298.161058 -196.717101 
L 298.957295 -196.241424 
L 299.753533 -196.734239 
L 300.54977 -197.852977 
L 301.346008 -198.958767 
L 302.142245 -199.350356 
L 302.938483 -198.534559 
L 303.73472 -196.426927 
L 304.530958 -193.380557 
L 305.327196 -190.035003 
L 306.123433 -187.091524 
L 306.919671 -185.135123 
L 307.715908 -184.530099 
L 308.512146 -185.341418 
L 309.308383 -187.281181 
L 310.104621 -189.76384 
L 310.900858 -192.12056 
L 311.697096 -193.879153 
L 312.493333 -194.916942 
L 313.289571 -195.379499 
L 314.085808 -195.465339 
L 314.882046 -195.269267 
L 315.678283 -194.770933 
L 316.474521 -193.895098 
L 317.270758 -192.539209 
L 318.066996 -190.57317 
L 318.863233 -187.88699 
L 319.659471 -184.497087 
L 320.455709 -180.62543 
L 321.251946 -176.66268 
L 322.048184 -173.024249 
L 322.844421 -170.001389 
L 323.640659 -167.70113 
L 324.436896 -166.078632 
L 325.233134 -164.990257 
L 326.029371 -164.20797 
L 326.825609 -163.40959 
L 327.621846 -162.199982 
L 328.418084 -160.196388 
L 329.214321 -157.156432 
L 330.010559 -153.091923 
L 330.806796 -148.309443 
L 331.603034 -143.355317 
L 332.399271 -138.891889 
L 333.195509 -135.555588 
L 333.991746 -133.829215 
L 334.787984 -133.925618 
L 335.584221 -135.68339 
L 336.380459 -138.523732 
L 337.176697 -141.543478 
L 337.972934 -143.762709 
L 338.769172 -144.444018 
L 339.565409 -143.338342 
L 340.361647 -140.744569 
L 341.157884 -137.369507 
L 341.954122 -134.068546 
L 342.750359 -131.570506 
L 343.546597 -130.26814 
L 344.342834 -130.131421 
L 345.139072 -130.776858 
L 345.935309 -131.670625 
L 346.731547 -132.37064 
L 347.527784 -132.687335 
L 348.324022 -132.706596 
L 349.120259 -132.703334 
L 349.916497 -133.008646 
L 350.712734 -133.871937 
L 351.508972 -135.343078 
L 352.30521 -137.216067 
L 353.101447 -139.081356 
L 353.897685 -140.476277 
L 354.693922 -141.053099 
L 355.49016 -140.685225 
L 356.286397 -139.49505 
L 357.082635 -137.823576 
L 357.878872 -136.141298 
L 358.67511 -134.899358 
L 359.471347 -134.379056 
L 360.267585 -134.640055 
L 361.063822 -135.595479 
L 361.86006 -137.126918 
L 362.656297 -139.113247 
L 363.452535 -141.354291 
L 364.248772 -143.507404 
L 365.04501 -145.147747 
L 365.841247 -145.91854 
L 366.637485 -145.63202 
L 367.433722 -144.264038 
L 368.22996 -141.911343 
L 369.026198 -138.775538 
L 369.822435 -135.146335 
L 370.618673 -131.323975 
L 371.41491 -127.493803 
L 372.211148 -123.650324 
L 373.007385 -119.649651 
L 373.803623 -115.362756 
L 374.59986 -110.82833 
L 375.396098 -106.328853 
L 376.192335 -102.37593 
L 376.988573 -99.61821 
L 377.78481 -98.68041 
L 378.581048 -99.954459 
L 379.377285 -103.410011 
L 380.173523 -108.523493 
L 380.96976 -114.390327 
L 381.765998 -119.992062 
L 382.562235 -124.506249 
L 383.358473 -127.526903 
L 384.15471 -129.117049 
L 384.950948 -129.699672 
L 385.747186 -129.852768 
L 386.543423 -130.090681 
L 387.339661 -130.703349 
L 388.135898 -131.705066 
L 388.932136 -132.910975 
L 389.728373 -134.102608 
L 390.524611 -135.186996 
L 391.320848 -136.250947 
L 392.117086 -137.485246 
L 392.913323 -139.042981 
L 393.709561 -140.925544 
L 394.505798 -142.955397 
L 395.302036 -144.839528 
L 396.098273 -146.288832 
L 396.894511 -147.140999 
L 397.690748 -147.432251 
L 398.486986 -147.379784 
L 399.283223 -147.277204 
L 400.079461 -147.351484 
L 400.875699 -147.649485 
L 401.671936 -148.002991 
L 402.468174 -148.084066 
L 403.264411 -147.52935 
L 404.060649 -146.087422 
L 404.856886 -143.727753 
L 405.653124 -140.660115 
L 406.449361 -137.257987 
L 407.245599 -133.929991 
L 408.041836 -130.996536 
L 408.838074 -128.602599 
L 409.634311 -126.680616 
L 410.430549 -124.978307 
L 411.226786 -123.175978 
L 412.023024 -121.058508 
L 412.819261 -118.652938 
L 413.615499 -116.23976 
L 413.615499 -201.472637 
L 413.615499 -201.472637 
L 412.819261 -203.762694 
L 412.023024 -206.205152 
L 411.226786 -208.467617 
L 410.430549 -210.398338 
L 409.634311 -212.08819 
L 408.838074 -213.831676 
L 408.041836 -215.980693 
L 407.245599 -218.74649 
L 406.449361 -222.059354 
L 405.653124 -225.568975 
L 404.856886 -228.790675 
L 404.060649 -231.307307 
L 403.264411 -232.922316 
L 402.468174 -233.706508 
L 401.671936 -233.937238 
L 400.875699 -233.964655 
L 400.079461 -234.060957 
L 399.283223 -234.317412 
L 398.486986 -234.634041 
L 397.690748 -234.798423 
L 396.894511 -234.603462 
L 396.098273 -233.942245 
L 395.302036 -232.840824 
L 394.505798 -231.424251 
L 393.709561 -229.839846 
L 392.913323 -228.181058 
L 392.117086 -226.457263 
L 391.320848 -224.628161 
L 390.524611 -222.676838 
L 389.728373 -220.667692 
L 388.932136 -218.749274 
L 388.135898 -217.10597 
L 387.339661 -215.888295 
L 386.543423 -215.140639 
L 385.747186 -214.734511 
L 384.950948 -214.335712 
L 384.15471 -213.452063 
L 383.358473 -211.579134 
L 382.562235 -208.398471 
L 381.765998 -203.939719 
L 380.96976 -198.632017 
L 380.173523 -193.225368 
L 379.377285 -188.612976 
L 378.581048 -185.607374 
L 377.78481 -184.726197 
L 376.988573 -186.045564 
L 376.192335 -189.178965 
L 375.396098 -193.414005 
L 374.59986 -197.973028 
L 373.803623 -202.282942 
L 373.007385 -206.120157 
L 372.211148 -209.571094 
L 371.41491 -212.862935 
L 370.618673 -216.178377 
L 369.822435 -219.533185 
L 369.026198 -222.731463 
L 368.22996 -225.398524 
L 367.433722 -227.10643 
L 366.637485 -227.570409 
L 365.841247 -226.810873 
L 365.04501 -225.15739 
L 364.248772 -223.078498 
L 363.452535 -220.974024 
L 362.656297 -219.091569 
L 361.86006 -217.575687 
L 361.063822 -216.527193 
L 360.267585 -215.99299 
L 359.471347 -215.93743 
L 358.67511 -216.266829 
L 357.878872 -216.885437 
L 357.082635 -217.704096 
L 356.286397 -218.580886 
L 355.49016 -219.27282 
L 354.693922 -219.484646 
L 353.897685 -219.007851 
L 353.101447 -217.845592 
L 352.30521 -216.236948 
L 351.508972 -214.576603 
L 350.712734 -213.270868 
L 349.916497 -212.573677 
L 349.120259 -212.460328 
L 348.324022 -212.617555 
L 347.527784 -212.592224 
L 346.731547 -212.039648 
L 345.935309 -210.931784 
L 345.139072 -209.61106 
L 344.342834 -208.67228 
L 343.546597 -208.736925 
L 342.750359 -210.204278 
L 341.954122 -213.058595 
L 341.157884 -216.805288 
L 340.361647 -220.585326 
L 339.565409 -223.441478 
L 338.769172 -224.628089 
L 337.972934 -223.839445 
L 337.176697 -221.291024 
L 336.380459 -217.659323 
L 335.584221 -213.918256 
L 334.787984 -211.103837 
L 333.991746 -210.047221 
L 333.195509 -211.146666 
L 332.399271 -214.269269 
L 331.603034 -218.835902 
L 330.806796 -224.047288 
L 330.010559 -229.131985 
L 329.214321 -233.511823 
L 328.418084 -236.857976 
L 327.621846 -239.079841 
L 326.825609 -240.301398 
L 326.029371 -240.842683 
L 325.233134 -241.182384 
L 324.436896 -241.867848 
L 323.640659 -243.370335 
L 322.844421 -245.93375 
L 322.048184 -249.500105 
L 321.251946 -253.754867 
L 320.455709 -258.250389 
L 319.659471 -262.525321 
L 318.863233 -266.179551 
L 318.066996 -268.929836 
L 317.270758 -270.678855 
L 316.474521 -271.565365 
L 315.678283 -271.912769 
L 314.882046 -272.048951 
L 314.085808 -272.102254 
L 313.289571 -271.940603 
L 312.493333 -271.305828 
L 311.697096 -270.01693 
L 310.900858 -268.082605 
L 310.104621 -265.691924 
L 309.308383 -263.175162 
L 308.512146 -260.993874 
L 307.715908 -259.694696 
L 306.919671 -259.744806 
L 306.123433 -261.297208 
L 305.327196 -264.054025 
L 304.530958 -267.357012 
L 303.73472 -270.456691 
L 302.938483 -272.78589 
L 302.142245 -274.106947 
L 301.346008 -274.52085 
L 300.54977 -274.386252 
L 299.753533 -274.17897 
L 298.957295 -274.311098 
L 298.161058 -274.963819 
L 297.36482 -276.006667 
L 296.568583 -277.040531 
L 295.772345 -277.533472 
L 294.976108 -276.983969 
L 294.17987 -275.059865 
L 293.383633 -271.693879 
L 292.587395 -267.127829 
L 291.791158 -261.890554 
L 290.99492 -256.702068 
L 290.198683 -252.323183 
L 289.402445 -249.387542 
L 288.606208 -248.252726 
L 287.80997 -248.903947 
L 287.013732 -250.94501 
L 286.217495 -253.698591 
L 285.421257 -256.397381 
L 284.62502 -258.403273 
L 283.828782 -259.381869 
L 283.032545 -259.384051 
L 282.236307 -258.817111 
L 281.44007 -258.31239 
L 280.643832 -258.518435 
L 279.847595 -259.870107 
L 279.051357 -262.400274 
L 278.25512 -265.657822 
L 277.458882 -268.784327 
L 276.662645 -270.755662 
L 275.866407 -270.723594 
L 275.07017 -268.329263 
L 274.273932 -263.857573 
L 273.477695 -258.169004 
L 272.681457 -252.437501 
L 271.88522 -247.799245 
L 271.088982 -245.023852 
L 270.292744 -244.292696 
L 269.496507 -245.13969 
L 268.700269 -246.59316 
L 267.904032 -247.508483 
L 267.107794 -246.981349 
L 266.311557 -244.663855 
L 265.515319 -240.842457 
L 264.719082 -236.254553 
L 263.922844 -231.747226 
L 263.126607 -227.95211 
L 262.330369 -225.117159 
L 261.534132 -223.121955 
L 260.737894 -221.609881 
L 259.941657 -220.158677 
L 259.145419 -218.442312 
L 258.349182 -216.350848 
L 257.552944 -214.030682 
L 256.756707 -211.824287 
L 255.960469 -210.132007 
L 255.164231 -209.257967 
L 254.367994 -209.308856 
L 253.571756 -210.183073 
L 252.775519 -211.640603 
L 251.979281 -213.396857 
L 251.183044 -215.186807 
L 250.386806 -216.7808 
L 249.590569 -217.972974 
L 248.794331 -218.576565 
L 247.998094 -218.445062 
L 247.201856 -217.520539 
L 246.405619 -215.893717 
L 245.609381 -213.851915 
L 244.813144 -211.875461 
L 244.016906 -210.547335 
L 243.220669 -210.379408 
L 242.424431 -211.616868 
L 241.628194 -214.114251 
L 240.831956 -217.350087 
L 240.035719 -220.574155 
L 239.239481 -223.025122 
L 238.443243 -224.144958 
L 237.647006 -223.724946 
L 236.850768 -221.935373 
L 236.054531 -219.22394 
L 235.258293 -216.121881 
L 234.462056 -213.044798 
L 233.665818 -210.186296 
L 232.869581 -207.549993 
L 232.073343 -205.083716 
L 231.277106 -202.818889 
L 230.480868 -200.916849 
L 229.684631 -199.58275 
L 228.888393 -198.901164 
L 228.092156 -198.712036 
L 227.295918 -198.618895 
L 226.499681 -198.11973 
L 225.703443 -196.769931 
L 224.907206 -194.298131 
L 224.110968 -190.690541 
L 223.31473 -186.303443 
L 222.518493 -181.950247 
L 221.722255 -178.799349 
L 220.926018 -178.00568 
L 220.12978 -180.204091 
L 219.333543 -185.148409 
L 218.537305 -191.732002 
L 217.741068 -198.368195 
L 216.94483 -203.498326 
L 216.148593 -206.013931 
L 215.352355 -205.514436 
L 214.556118 -202.39458 
L 213.75988 -197.744416 
L 212.963643 -193.040915 
L 212.167405 -189.693342 
L 211.371168 -188.607572 
L 210.57493 -189.946572 
L 209.778693 -193.163421 
L 208.982455 -197.254752 
L 208.186218 -201.116529 
L 207.38998 -203.881365 
L 206.593742 -205.146783 
L 205.797505 -205.039937 
L 205.001267 -204.11372 
L 204.20503 -203.12188 
L 203.408792 -202.747104 
L 202.612555 -203.351248 
L 201.816317 -204.808547 
L 201.02008 -206.48721 
L 200.223842 -207.426137 
L 199.427605 -206.674037 
L 198.631367 -203.659586 
L 197.83513 -198.437146 
L 197.038892 -191.717381 
L 196.242655 -184.689516 
L 195.446417 -178.721819 
L 194.65018 -175.040345 
L 193.853942 -174.445445 
L 193.057705 -177.087526 
L 192.261467 -182.33726 
L 191.46523 -188.824454 
L 190.668992 -194.71293 
L 189.872754 -198.186053 
L 189.076517 -197.981557 
L 188.280279 -193.77152 
L 187.484042 -186.26042 
L 186.687804 -177.002686 
L 185.891567 -168.011592 
L 185.095329 -161.238371 
L 184.299092 -158.023421 
L 183.502854 -158.679877 
L 182.706617 -162.388274 
L 181.910379 -167.485642 
L 181.114142 -172.046736 
L 180.317904 -174.506066 
L 179.521667 -174.072435 
L 178.725429 -170.836067 
L 177.929192 -165.626347 
L 177.132954 -159.714034 
L 176.336717 -154.417132 
L 175.540479 -150.684624 
L 174.744241 -148.785921 
L 173.948004 -148.254555 
L 173.151766 -148.16224 
L 172.355529 -147.611646 
L 171.559291 -146.17292 
L 170.763054 -144.040588 
L 169.966816 -141.889099 
L 169.170579 -140.563261 
L 168.374341 -140.747973 
L 167.578104 -142.70502 
L 166.781866 -146.13402 
L 165.985629 -150.205922 
L 165.189391 -153.786058 
L 164.393154 -155.785736 
L 163.596916 -155.511452 
L 162.800679 -152.869853 
L 162.004441 -148.373341 
L 161.208204 -142.986049 
L 160.411966 -137.882076 
L 159.615729 -134.177881 
L 158.819491 -132.693421 
L 158.023253 -133.787642 
L 157.227016 -137.285381 
L 156.430778 -142.491245 
L 155.634541 -148.296923 
L 154.838303 -153.400678 
L 154.042066 -156.612763 
L 153.245828 -157.147829 
L 152.449591 -154.801864 
L 151.653353 -149.986435 
L 150.857116 -143.654726 
L 150.060878 -137.138292 
L 149.264641 -131.874991 
L 148.468403 -129.037811 
L 147.672166 -129.166301 
L 146.875928 -131.96243 
L 146.079691 -136.356991 
L 145.283453 -140.817267 
L 144.487216 -143.772598 
L 143.690978 -144.033521 
L 142.89474 -141.116096 
L 142.098503 -135.395473 
L 141.302265 -128.021888 
L 140.506028 -120.594253 
L 139.70979 -114.69092 
L 138.913553 -111.422546 
L 138.117315 -111.149778 
L 137.321078 -113.43357 
L 136.52484 -117.215829 
L 135.728603 -121.177187 
L 134.932365 -124.169946 
L 134.136128 -125.581737 
L 133.33989 -125.493969 
L 132.543653 -124.580392 
L 131.747415 -123.802263 
L 130.951178 -124.031111 
L 130.15494 -125.739592 
L 129.358703 -128.856499 
L 128.562465 -132.813771 
L 127.766228 -136.754857 
L 126.96999 -139.840009 
L 126.173752 -141.557257 
L 125.377515 -141.921929 
L 124.581277 -141.464192 
L 123.78504 -140.986687 
L 122.988802 -141.185922 
L 122.192565 -142.32457 
L 121.396327 -144.149966 
L 120.60009 -146.112268 
L 119.803852 -147.726716 
L 119.007615 -148.834973 
L 118.211377 -149.615529 
L 117.41514 -150.390793 
L 116.618902 -151.410425 
L 115.822665 -152.731706 
L 115.026427 -154.188492 
L 114.23019 -155.415282 
L 113.433952 -155.928738 
L 112.637715 -155.282006 
L 111.841477 -153.288343 
L 111.04524 -150.238931 
L 110.249002 -146.955939 
L 109.452764 -144.557862 
L 108.656527 -143.983805 
L 107.860289 -145.508474 
L 107.064052 -148.540676 
L 106.267814 -151.846434 
L 105.471577 -154.074309 
L 104.675339 -154.295585 
L 103.879102 -152.285955 
L 103.082864 -148.471236 
L 102.286627 -143.723109 
L 101.490389 -139.177773 
L 100.694152 -135.997038 
L 99.897914 -134.992346 
L 99.101677 -136.253807 
L 98.305439 -139.046864 
L 97.509202 -142.123136 
L 96.712964 -144.291851 
L 95.916727 -144.904806 
L 95.120489 -144.014352 
L 94.324251 -142.216333 
L 93.528014 -140.351396 
L 92.731776 -139.211229 
L 91.935539 -139.301361 
L 91.139301 -140.691251 
L 90.343064 -142.993455 
L 89.546826 -145.488908 
L 88.750589 -147.370628 
L 87.954351 -148.030769 
L 87.158114 -147.283297 
L 86.361876 -145.421405 
L 85.565639 -143.081655 
L 84.769401 -140.980313 
L 83.973164 -139.650559 
L 83.176926 -139.3041 
L 82.380689 -139.855046 
L 81.584451 -141.039868 
L 80.788214 -142.530159 
L 79.991976 -143.990906 
L 79.195739 -145.104075 
L 78.399501 -145.59376 
L 77.603263 -145.265897 
L 76.807026 -144.059602 
L 76.010788 -142.100299 
L 75.214551 -139.720271 
L 74.418313 -137.398237 
L 73.622076 -135.621619 
L 72.825838 -134.768403 
L 72.029601 -135.085668 
L 71.233363 -136.699486 
L 70.437126 -139.555979 
L 69.640888 -143.315862 
L 68.844651 -147.338304 
L 68.048413 -150.85184 
L 67.252176 -153.237995 
L 66.455938 -154.248562 
L 65.659701 -154.039916 
L 64.863463 -153.042261 
L 64.067226 -151.774127 
L 63.270988 -150.693523 
L 62.47475 -150.10198 
L 61.678513 -150.09779 
L 60.882275 -150.590212 
L 60.086038 -151.362773 
L 59.2898 -152.143092 
L 58.493563 -152.669727 
L 57.697325 -152.792838 
L 56.901088 -152.584238 
L 56.10485 -152.345825 
L 55.308613 -152.457421 
L 54.512375 -153.144332 
L 53.716138 -154.325846 
L 52.9199 -155.640409 
L 52.123663 -156.588513 
L 51.327425 -156.673089 
L 50.531188 -155.521212 
L 49.73495 -153.054631 
L 48.938713 -149.66221 
L 48.142475 -146.196246 
L 47.346238 -143.690976 
L 46.55 -142.922697 
z
" style="stroke: #e41a1c; stroke-opacity: 0.3"/>
    </defs>
    <g clip-path="url(#p0aa30b0f76)">
     <use xlink:href="#mf9abed5a39" x="0" y="360" style="fill: #e41a1c; fill-opacity: 0.3; stroke: #e41a1c; stroke-opacity: 0.3"/>
    </g>
   </g>
   <g id="PolyCollection_2">
    <defs>
     <path id="m3e960d16a2" d="M 46.55 -154.338725 
L 46.55 -129.029527 
L 47.346238 -128.212471 
L 48.142475 -126.987304 
L 48.938713 -125.879101 
L 49.73495 -125.336435 
L 50.531188 -125.598916 
L 51.327425 -126.653763 
L 52.123663 -128.276914 
L 52.9199 -130.123443 
L 53.716138 -131.832182 
L 54.512375 -133.122071 
L 55.308613 -133.851415 
L 56.10485 -134.01353 
L 56.901088 -133.675945 
L 57.697325 -132.913635 
L 58.493563 -131.786843 
L 59.2898 -130.360235 
L 60.086038 -128.711716 
L 60.882275 -126.907694 
L 61.678513 -124.983405 
L 62.47475 -122.968685 
L 63.270988 -120.943604 
L 64.067226 -119.06109 
L 64.863463 -117.494059 
L 65.659701 -116.345176 
L 66.455938 -115.59785 
L 67.252176 -115.144572 
L 68.048413 -114.848298 
L 68.844651 -114.575839 
L 69.640888 -114.200145 
L 70.437126 -113.612712 
L 71.233363 -112.764035 
L 72.029601 -111.708357 
L 72.825838 -110.616358 
L 73.622076 -109.736063 
L 74.418313 -109.313663 
L 75.214551 -109.503844 
L 76.010788 -110.302412 
L 76.807026 -111.527665 
L 77.603263 -112.860657 
L 78.399501 -113.926092 
L 79.195739 -114.373279 
L 79.991976 -113.937079 
L 80.788214 -112.486187 
L 81.584451 -110.071002 
L 82.380689 -106.953836 
L 83.176926 -103.584434 
L 83.973164 -100.503942 
L 84.769401 -98.207454 
L 85.565639 -97.020873 
L 86.361876 -97.036454 
L 87.158114 -98.107841 
L 87.954351 -99.882048 
L 88.750589 -101.859264 
L 89.546826 -103.488202 
L 90.343064 -104.289053 
L 91.139301 -103.969485 
L 91.935539 -102.495962 
L 92.731776 -100.102149 
L 93.528014 -97.235872 
L 94.324251 -94.457251 
L 95.120489 -92.306723 
L 95.916727 -91.174691 
L 96.712964 -91.214125 
L 97.509202 -92.323564 
L 98.305439 -94.197732 
L 99.101677 -96.419584 
L 99.897914 -98.564715 
L 100.694152 -100.293794 
L 101.490389 -101.411446 
L 102.286627 -101.87707 
L 103.082864 -101.774235 
L 103.879102 -101.26731 
L 104.675339 -100.567486 
L 105.471577 -99.902345 
L 106.267814 -99.464175 
L 107.064052 -99.341153 
L 107.860289 -99.476735 
L 108.656527 -99.697268 
L 109.452764 -99.794046 
L 110.249002 -99.605553 
L 111.04524 -99.064849 
L 111.841477 -98.220381 
L 112.637715 -97.242303 
L 113.433952 -96.396911 
L 114.23019 -95.962205 
L 115.026427 -96.102416 
L 115.822665 -96.777 
L 116.618902 -97.75311 
L 117.41514 -98.706419 
L 118.211377 -99.32935 
L 119.007615 -99.39799 
L 119.803852 -98.813553 
L 120.60009 -97.631241 
L 121.396327 -96.049366 
L 122.192565 -94.331286 
L 122.988802 -92.688223 
L 123.78504 -91.20216 
L 124.581277 -89.846059 
L 125.377515 -88.57305 
L 126.173752 -87.3916 
L 126.96999 -86.382033 
L 127.766228 -85.674175 
L 128.562465 -85.415475 
L 129.358703 -85.731708 
L 130.15494 -86.671602 
L 130.951178 -88.149629 
L 131.747415 -89.929128 
L 132.543653 -91.68052 
L 133.33989 -93.09931 
L 134.136128 -94.019874 
L 134.932365 -94.459346 
L 135.728603 -94.57359 
L 136.52484 -94.559968 
L 137.321078 -94.559512 
L 138.117315 -94.598951 
L 138.913553 -94.589487 
L 139.70979 -94.380565 
L 140.506028 -93.852765 
L 141.302265 -93.0174 
L 142.098503 -92.076995 
L 142.89474 -91.406285 
L 143.690978 -91.445473 
L 144.487216 -92.54109 
L 145.283453 -94.798472 
L 146.079691 -98.007854 
L 146.875928 -101.678424 
L 147.672166 -105.17594 
L 148.468403 -107.918644 
L 149.264641 -109.555588 
L 150.060878 -110.052213 
L 150.857116 -109.65237 
L 151.653353 -108.749607 
L 152.449591 -107.739161 
L 153.245828 -106.913407 
L 154.042066 -106.421992 
L 154.838303 -106.279963 
L 155.634541 -106.402312 
L 156.430778 -106.651418 
L 157.227016 -106.88555 
L 158.023253 -106.989508 
L 158.819491 -106.874575 
L 159.615729 -106.453693 
L 160.411966 -105.615041 
L 161.208204 -104.223722 
L 162.004441 -102.165901 
L 162.800679 -99.428589 
L 163.596916 -96.170201 
L 164.393154 -92.725342 
L 165.189391 -89.516664 
L 165.985629 -86.907674 
L 166.781866 -85.072099 
L 167.578104 -83.945395 
L 168.374341 -83.278251 
L 169.170579 -82.758535 
L 169.966816 -82.146803 
L 170.763054 -81.37666 
L 171.559291 -80.588085 
L 172.355529 -80.077866 
L 173.151766 -80.17386 
L 173.948004 -81.075622 
L 174.744241 -82.726395 
L 175.540479 -84.787385 
L 176.336717 -86.737859 
L 177.132954 -88.069171 
L 177.929192 -88.491755 
L 178.725429 -88.063729 
L 179.521667 -87.184619 
L 180.317904 -86.456663 
L 181.114142 -86.467977 
L 181.910379 -87.57225 
L 182.706617 -89.73957 
L 183.502854 -92.53359 
L 184.299092 -95.236831 
L 185.095329 -97.092171 
L 185.891567 -97.573307 
L 186.687804 -96.577411 
L 187.484042 -94.464134 
L 188.280279 -91.939773 
L 189.076517 -89.838168 
L 189.872754 -88.87317 
L 190.668992 -89.433368 
L 191.46523 -91.479706 
L 192.261467 -94.583196 
L 193.057705 -98.090933 
L 193.853942 -101.352086 
L 194.65018 -103.912394 
L 195.446417 -105.610228 
L 196.242655 -106.557877 
L 197.038892 -107.032894 
L 197.83513 -107.324957 
L 198.631367 -107.596664 
L 199.427605 -107.818959 
L 200.223842 -107.814165 
L 201.02008 -107.383032 
L 201.816317 -106.435846 
L 202.612555 -105.050441 
L 203.408792 -103.440269 
L 204.20503 -101.872396 
L 205.001267 -100.583919 
L 205.797505 -99.722765 
L 206.593742 -99.318438 
L 207.38998 -99.284682 
L 208.186218 -99.454782 
L 208.982455 -99.640332 
L 209.778693 -99.689525 
L 210.57493 -99.521298 
L 211.371168 -99.127119 
L 212.167405 -98.545646 
L 212.963643 -97.820027 
L 213.75988 -96.95573 
L 214.556118 -95.9073 
L 215.352355 -94.615036 
L 216.148593 -93.077396 
L 216.94483 -91.407235 
L 217.741068 -89.822189 
L 218.537305 -88.566728 
L 219.333543 -87.809144 
L 220.12978 -87.567514 
L 220.926018 -87.690811 
L 221.722255 -87.893266 
L 222.518493 -87.82737 
L 223.31473 -87.180367 
L 224.110968 -85.771897 
L 224.907206 -83.620748 
L 225.703443 -80.953579 
L 226.499681 -78.152716 
L 227.295918 -75.658809 
L 228.092156 -73.854382 
L 228.888393 -72.95891 
L 229.684631 -72.971753 
L 230.480868 -73.691807 
L 231.277106 -74.811098 
L 232.073343 -76.040515 
L 232.869581 -77.208987 
L 233.665818 -78.295309 
L 234.462056 -79.388268 
L 235.258293 -80.602533 
L 236.054531 -81.992721 
L 236.850768 -83.507026 
L 237.647006 -85.004622 
L 238.443243 -86.328509 
L 239.239481 -87.394319 
L 240.035719 -88.246188 
L 240.831956 -89.052473 
L 241.628194 -90.048213 
L 242.424431 -91.452736 
L 243.220669 -93.390248 
L 244.016906 -95.830877 
L 244.813144 -98.566259 
L 245.609381 -101.234826 
L 246.405619 -103.403215 
L 247.201856 -104.685634 
L 247.998094 -104.859528 
L 248.794331 -103.930801 
L 249.590569 -102.119062 
L 250.386806 -99.767647 
L 251.183044 -97.218123 
L 251.979281 -94.704586 
L 252.775519 -92.311329 
L 253.571756 -90.006181 
L 254.367994 -87.726248 
L 255.164231 -85.468881 
L 255.960469 -83.341887 
L 256.756707 -81.552436 
L 257.552944 -80.34598 
L 258.349182 -79.924111 
L 259.145419 -80.369265 
L 259.941657 -81.596388 
L 260.737894 -83.34957 
L 261.534132 -85.25683 
L 262.330369 -86.93425 
L 263.126607 -88.100126 
L 263.922844 -88.652257 
L 264.719082 -88.679882 
L 265.515319 -88.413663 
L 266.311557 -88.13504 
L 267.107794 -88.073127 
L 267.904032 -88.325557 
L 268.700269 -88.841263 
L 269.496507 -89.479105 
L 270.292744 -90.106415 
L 271.088982 -90.675033 
L 271.88522 -91.233943 
L 272.681457 -91.889708 
L 273.477695 -92.750429 
L 274.273932 -93.875584 
L 275.07017 -95.237063 
L 275.866407 -96.700785 
L 276.662645 -98.050497 
L 277.458882 -99.058437 
L 278.25512 -99.571673 
L 279.051357 -99.562084 
L 279.847595 -99.11272 
L 280.643832 -98.360546 
L 281.44007 -97.436744 
L 282.236307 -96.432533 
L 283.032545 -95.392683 
L 283.828782 -94.338421 
L 284.62502 -93.31163 
L 285.421257 -92.417475 
L 286.217495 -91.828793 
L 287.013732 -91.731177 
L 287.80997 -92.228526 
L 288.606208 -93.259558 
L 289.402445 -94.572851 
L 290.198683 -95.778775 
L 290.99492 -96.466053 
L 291.791158 -96.34386 
L 292.587395 -95.354283 
L 293.383633 -93.704627 
L 294.17987 -91.802406 
L 294.976108 -90.12361 
L 295.772345 -89.068649 
L 296.568583 -88.854718 
L 297.36482 -89.467564 
L 298.161058 -90.682612 
L 298.957295 -92.1557 
L 299.753533 -93.558674 
L 300.54977 -94.703527 
L 301.346008 -95.593576 
L 302.142245 -96.376984 
L 302.938483 -97.234166 
L 303.73472 -98.25926 
L 304.530958 -99.386889 
L 305.327196 -100.386856 
L 306.123433 -100.92843 
L 306.919671 -100.699262 
L 307.715908 -99.539261 
L 308.512146 -97.5287 
L 309.308383 -94.981955 
L 310.104621 -92.345096 
L 310.900858 -90.045434 
L 311.697096 -88.358531 
L 312.493333 -87.339897 
L 313.289571 -86.836448 
L 314.085808 -86.566639 
L 314.882046 -86.237447 
L 315.678283 -85.656134 
L 316.474521 -84.791032 
L 317.270758 -83.761122 
L 318.066996 -82.769158 
L 318.863233 -82.016333 
L 319.659471 -81.636082 
L 320.455709 -81.668354 
L 321.251946 -82.078139 
L 322.048184 -82.802923 
L 322.844421 -83.798879 
L 323.640659 -85.051694 
L 324.436896 -86.541096 
L 325.233134 -88.183269 
L 326.029371 -89.793815 
L 326.825609 -91.101206 
L 327.621846 -91.806651 
L 328.418084 -91.668761 
L 329.214321 -90.585892 
L 330.010559 -88.655995 
L 330.806796 -86.191141 
L 331.603034 -83.663616 
L 332.399271 -81.58106 
L 333.195509 -80.327189 
L 333.991746 -80.031716 
L 334.787984 -80.530808 
L 335.584221 -81.435475 
L 336.380459 -82.279264 
L 337.176697 -82.683245 
L 337.972934 -82.473367 
L 338.769172 -81.711692 
L 339.565409 -80.64132 
L 340.361647 -79.57535 
L 341.157884 -78.774999 
L 341.954122 -78.360146 
L 342.750359 -78.284759 
L 343.546597 -78.387026 
L 344.342834 -78.491292 
L 345.139072 -78.510947 
L 345.935309 -78.499671 
L 346.731547 -78.628022 
L 347.527784 -79.103225 
L 348.324022 -80.072466 
L 349.120259 -81.543901 
L 349.916497 -83.344565 
L 350.712734 -85.133412 
L 351.508972 -86.488136 
L 352.30521 -87.05747 
L 353.101447 -86.718707 
L 353.897685 -85.650096 
L 354.693922 -84.263324 
L 355.49016 -83.028216 
L 356.286397 -82.286698 
L 357.082635 -82.145991 
L 357.878872 -82.479389 
L 358.67511 -83.002649 
L 359.471347 -83.380689 
L 360.267585 -83.339509 
L 361.063822 -82.764321 
L 361.86006 -81.750056 
L 362.656297 -80.570227 
L 363.452535 -79.565272 
L 364.248772 -79.001297 
L 365.04501 -78.970323 
L 365.841247 -79.374223 
L 366.637485 -79.984452 
L 367.433722 -80.538952 
L 368.22996 -80.836471 
L 369.026198 -80.796811 
L 369.822435 -80.464487 
L 370.618673 -79.954387 
L 371.41491 -79.370141 
L 372.211148 -78.745571 
L 373.007385 -78.043879 
L 373.803623 -77.206552 
L 374.59986 -76.212697 
L 375.396098 -75.114637 
L 376.192335 -74.040982 
L 376.988573 -73.171527 
L 377.78481 -72.685164 
L 378.581048 -72.68382 
L 379.377285 -73.116493 
L 380.173523 -73.749741 
L 380.96976 -74.22166 
L 381.765998 -74.170236 
L 382.562235 -73.380083 
L 383.358473 -71.880291 
L 384.15471 -69.954307 
L 384.950948 -68.063796 
L 385.747186 -66.715455 
L 386.543423 -66.310949 
L 387.339661 -67.022168 
L 388.135898 -68.731764 
L 388.932136 -71.063755 
L 389.728373 -73.49777 
L 390.524611 -75.527775 
L 391.320848 -76.811677 
L 392.117086 -77.266165 
L 392.913323 -77.079813 
L 393.709561 -76.639312 
L 394.505798 -76.390487 
L 395.302036 -76.685449 
L 396.098273 -77.678996 
L 396.894511 -79.311114 
L 397.690748 -81.360969 
L 398.486986 -83.522723 
L 399.283223 -85.46679 
L 400.079461 -86.889214 
L 400.875699 -87.568473 
L 401.671936 -87.428625 
L 402.468174 -86.57832 
L 403.264411 -85.294163 
L 404.060649 -83.952409 
L 404.856886 -82.941607 
L 405.653124 -82.585726 
L 406.449361 -83.081302 
L 407.245599 -84.442907 
L 408.041836 -86.466234 
L 408.838074 -88.734381 
L 409.634311 -90.688818 
L 410.430549 -91.759662 
L 411.226786 -91.521731 
L 412.023024 -89.820586 
L 412.819261 -86.817966 
L 413.615499 -82.939018 
L 413.615499 -131.265358 
L 413.615499 -131.265358 
L 412.819261 -134.856835 
L 412.023024 -137.632121 
L 411.226786 -139.232293 
L 410.430549 -139.532991 
L 409.634311 -138.65556 
L 408.838074 -136.929116 
L 408.041836 -134.816849 
L 407.245599 -132.817027 
L 406.449361 -131.355979 
L 405.653124 -130.695065 
L 404.856886 -130.877752 
L 404.060649 -131.735098 
L 403.264411 -132.949655 
L 402.468174 -134.149998 
L 401.671936 -134.994436 
L 400.875699 -135.221036 
L 400.079461 -134.675191 
L 399.283223 -133.340222 
L 398.486986 -131.367462 
L 397.690748 -129.071372 
L 396.894511 -126.860166 
L 396.098273 -125.115203 
L 395.302036 -124.072462 
L 394.505798 -123.757445 
L 393.709561 -123.986511 
L 392.913323 -124.417463 
L 392.117086 -124.632666 
L 391.320848 -124.248267 
L 390.524611 -123.034949 
L 389.728373 -121.013104 
L 388.932136 -118.476947 
L 388.135898 -115.925241 
L 387.339661 -113.916329 
L 386.543423 -112.894797 
L 385.747186 -113.046902 
L 384.950948 -114.234985 
L 384.15471 -116.039794 
L 383.358473 -117.90219 
L 382.562235 -119.312245 
L 381.765998 -119.970468 
L 380.96976 -119.860959 
L 380.173523 -119.221279 
L 379.377285 -118.436404 
L 378.581048 -117.902583 
L 377.78481 -117.902209 
L 376.988573 -118.522378 
L 376.192335 -119.645011 
L 375.396098 -121.019007 
L 374.59986 -122.384839 
L 373.803623 -123.584811 
L 373.007385 -124.597856 
L 372.211148 -125.488147 
L 371.41491 -126.31317 
L 370.618673 -127.055537 
L 369.822435 -127.614636 
L 369.026198 -127.852281 
L 368.22996 -127.665588 
L 367.433722 -127.058298 
L 366.637485 -126.181722 
L 365.841247 -125.317645 
L 365.04501 -124.793775 
L 364.248772 -124.860162 
L 363.452535 -125.584115 
L 362.656297 -126.813086 
L 361.86006 -128.218309 
L 361.063822 -129.399972 
L 360.267585 -130.022855 
L 359.471347 -129.944408 
L 358.67511 -129.286284 
L 357.878872 -128.403004 
L 357.082635 -127.739511 
L 356.286397 -127.634496 
L 355.49016 -128.17113 
L 354.693922 -129.152608 
L 353.897685 -130.199515 
L 353.101447 -130.901242 
L 352.30521 -130.949599 
L 351.508972 -130.221774 
L 350.712734 -128.813191 
L 349.916497 -127.018516 
L 349.120259 -125.246682 
L 348.324022 -123.878085 
L 347.527784 -123.120101 
L 346.731547 -122.93859 
L 345.935309 -123.106552 
L 345.139072 -123.338869 
L 344.342834 -123.434936 
L 343.546597 -123.359897 
L 342.750359 -123.238527 
L 341.954122 -123.276916 
L 341.157884 -123.649521 
L 340.361647 -124.397215 
L 339.565409 -125.380644 
L 338.769172 -126.315769 
L 337.972934 -126.883273 
L 337.176697 -126.866254 
L 336.380459 -126.255068 
L 335.584221 -125.272254 
L 334.787984 -124.308012 
L 333.991746 -123.794154 
L 333.195509 -124.06463 
L 332.399271 -125.249197 
L 331.603034 -127.230158 
L 330.806796 -129.670345 
L 330.010559 -132.104481 
L 329.214321 -134.06688 
L 328.418084 -135.220198 
L 327.621846 -135.439336 
L 326.825609 -134.815777 
L 326.029371 -133.584512 
L 325.233134 -132.01737 
L 324.436896 -130.340018 
L 323.640659 -128.705924 
L 322.844421 -127.215331 
L 322.048184 -125.948837 
L 321.251946 -124.988185 
L 320.455709 -124.414919 
L 319.659471 -124.289291 
L 318.863233 -124.617313 
L 318.066996 -125.322394 
L 317.270758 -126.243554 
L 316.474521 -127.175723 
L 315.678283 -127.942612 
L 314.882046 -128.471381 
L 314.085808 -128.834461 
L 313.289571 -129.238035 
L 312.493333 -129.955281 
L 311.697096 -131.22042 
L 310.900858 -133.12116 
L 310.104621 -135.534527 
L 309.308383 -138.142008 
L 308.512146 -140.521885 
L 307.715908 -142.280342 
L 306.919671 -143.170179 
L 306.123433 -143.159114 
L 305.327196 -142.429999 
L 304.530958 -141.310598 
L 303.73472 -140.14894 
L 302.938483 -139.179655 
L 302.142245 -138.443707 
L 301.346008 -137.802827 
L 300.54977 -137.037548 
L 299.753533 -135.975315 
L 298.957295 -134.591457 
L 298.161058 -133.050142 
L 297.36482 -131.673036 
L 296.568583 -130.838693 
L 295.772345 -130.837944 
L 294.976108 -131.741175 
L 294.17987 -133.344952 
L 293.383633 -135.231991 
L 292.587395 -136.916043 
L 291.791158 -138.001985 
L 290.99492 -138.295528 
L 290.198683 -137.836517 
L 289.402445 -136.859617 
L 288.606208 -135.704115 
L 287.80997 -134.704747 
L 287.013732 -134.101654 
L 286.217495 -133.998043 
L 285.421257 -134.36818 
L 284.62502 -135.098699 
L 283.828782 -136.04188 
L 283.032545 -137.065429 
L 282.236307 -138.081873 
L 281.44007 -139.042742 
L 280.643832 -139.903555 
L 279.847595 -140.590463 
L 279.051357 -141.00123 
L 278.25512 -141.038612 
L 277.458882 -140.651676 
L 276.662645 -139.858062 
L 275.866407 -138.744512 
L 275.07017 -137.451098 
L 274.273932 -136.135921 
L 273.477695 -134.920859 
L 272.681457 -133.843127 
L 271.88522 -132.852681 
L 271.088982 -131.867515 
L 270.292744 -130.852648 
L 269.496507 -129.86559 
L 268.700269 -129.039063 
L 267.904032 -128.520335 
L 267.107794 -128.405711 
L 266.311557 -128.69147 
L 265.515319 -129.244817 
L 264.719082 -129.810089 
L 263.922844 -130.067042 
L 263.126607 -129.735307 
L 262.330369 -128.684611 
L 261.534132 -127.000848 
L 260.737894 -124.979431 
L 259.941657 -123.048492 
L 259.145419 -121.648128 
L 258.349182 -121.101877 
L 257.552944 -121.525336 
L 256.756707 -122.810168 
L 255.960469 -124.692766 
L 255.164231 -126.873547 
L 254.367994 -129.127177 
L 253.571756 -131.355303 
L 252.775519 -133.56939 
L 251.979281 -135.824473 
L 251.183044 -138.139314 
L 250.386806 -140.435696 
L 249.590569 -142.518466 
L 248.794331 -144.103933 
L 247.998094 -144.890053 
L 247.201856 -144.649189 
L 246.405619 -143.315479 
L 245.609381 -141.035017 
L 244.813144 -138.152985 
L 244.016906 -135.131043 
L 243.220669 -132.416039 
L 242.424431 -130.306184 
L 241.628194 -128.869838 
L 240.831956 -127.954639 
L 240.035719 -127.281808 
L 239.239481 -126.575038 
L 238.443243 -125.660615 
L 237.647006 -124.500627 
L 236.850768 -123.162191 
L 236.054531 -121.753958 
L 235.258293 -120.364078 
L 234.462056 -119.022681 
L 233.665818 -117.700515 
L 232.869581 -116.344731 
L 232.073343 -114.936872 
L 231.277106 -113.545291 
L 230.480868 -112.344796 
L 229.684631 -111.5909 
L 228.888393 -111.553435 
L 228.092156 -112.425653 
L 227.295918 -114.234142 
L 226.499681 -116.784154 
L 225.703443 -119.675679 
L 224.907206 -122.403197 
L 224.110968 -124.509531 
L 223.31473 -125.731335 
L 222.518493 -126.07683 
L 221.722255 -125.809739 
L 220.926018 -125.347665 
L 220.12978 -125.112871 
L 219.333543 -125.391617 
L 218.537305 -126.259993 
L 217.741068 -127.603329 
L 216.94483 -129.20453 
L 216.148593 -130.843194 
L 215.352355 -132.359242 
L 214.556118 -133.67041 
L 213.75988 -134.762759 
L 212.963643 -135.668186 
L 212.167405 -136.429704 
L 211.371168 -137.061493 
L 210.57493 -137.528316 
L 209.778693 -137.767933 
L 208.982455 -137.749983 
L 208.186218 -137.53357 
L 207.38998 -137.283999 
L 206.593742 -137.233404 
L 205.797505 -137.598319 
L 205.001267 -138.485938 
L 204.20503 -139.83146 
L 203.408792 -141.405276 
L 202.612555 -142.898753 
L 201.816317 -144.048154 
L 201.02008 -144.729377 
L 200.223842 -144.974542 
L 199.427605 -144.914072 
L 198.631367 -144.69021 
L 197.83513 -144.383947 
L 197.038892 -143.968675 
L 196.242655 -143.297428 
L 195.446417 -142.139115 
L 194.65018 -140.274019 
L 193.853942 -137.623102 
L 193.057705 -134.350919 
L 192.261467 -130.883976 
L 191.46523 -127.825057 
L 190.668992 -125.787892 
L 189.872754 -125.201045 
L 189.076517 -126.141079 
L 188.280279 -128.260082 
L 187.484042 -130.855086 
L 186.687804 -133.075137 
L 185.891567 -134.194277 
L 185.095329 -133.842758 
L 184.299092 -132.1104 
L 183.502854 -129.496489 
L 182.706617 -126.729979 
L 181.910379 -124.522243 
L 181.114142 -123.329656 
L 180.317904 -123.208597 
L 179.521667 -123.820787 
L 178.725429 -124.588224 
L 177.929192 -124.930745 
L 177.132954 -124.482931 
L 176.336717 -123.208266 
L 175.540479 -121.380235 
L 174.744241 -119.456109 
L 173.948004 -117.900627 
L 173.151766 -117.02503 
L 172.355529 -116.896673 
L 171.559291 -117.347824 
L 170.763054 -118.079718 
L 169.966816 -118.813725 
L 169.170579 -119.426835 
L 168.374341 -120.005614 
L 167.578104 -120.792707 
L 166.781866 -122.05784 
L 165.985629 -123.965776 
L 165.189391 -126.50533 
L 164.393154 -129.497394 
L 163.596916 -132.659162 
L 162.800679 -135.684467 
L 162.004441 -138.313697 
L 161.208204 -140.38296 
L 160.411966 -141.845462 
L 159.615729 -142.756142 
L 158.819491 -143.223285 
L 158.023253 -143.355453 
L 157.227016 -143.233305 
L 156.430778 -142.924545 
L 155.634541 -142.526099 
L 154.838303 -142.196315 
L 154.042066 -142.138942 
L 153.245828 -142.526173 
L 152.449591 -143.390534 
L 151.653353 -144.549002 
L 150.857116 -145.618458 
L 150.060878 -146.127871 
L 149.264641 -145.678052 
L 148.468403 -144.079764 
L 147.672166 -141.42131 
L 146.875928 -138.052546 
L 146.079691 -134.497371 
L 145.283453 -131.317314 
L 144.487216 -128.960304 
L 143.690978 -127.642184 
L 142.89474 -127.304873 
L 142.098503 -127.666038 
L 141.302265 -128.337308 
L 140.506028 -128.963214 
L 139.70979 -129.330128 
L 138.913553 -129.407264 
L 138.117315 -129.305768 
L 137.321078 -129.176413 
L 136.52484 -129.098802 
L 135.728603 -129.022527 
L 134.932365 -128.791193 
L 134.136128 -128.230357 
L 133.33989 -127.244954 
L 132.543653 -125.874245 
L 131.747415 -124.287242 
L 130.951178 -122.734004 
L 130.15494 -121.475255 
L 129.358703 -120.704617 
L 128.562465 -120.482321 
L 127.766228 -120.714733 
L 126.96999 -121.208713 
L 126.173752 -121.786408 
L 125.377515 -122.392251 
L 124.581277 -123.115718 
L 123.78504 -124.108587 
L 122.988802 -125.457196 
L 122.192565 -127.101792 
L 121.396327 -128.838551 
L 120.60009 -130.37236 
L 119.803852 -131.389288 
L 119.007615 -131.649887 
L 118.211377 -131.096163 
L 117.41514 -129.919714 
L 116.618902 -128.524922 
L 115.822665 -127.379616 
L 115.026427 -126.83552 
L 114.23019 -127.024298 
L 113.433952 -127.856932 
L 112.637715 -129.078194 
L 111.841477 -130.340438 
L 111.04524 -131.300115 
L 110.249002 -131.730819 
L 109.452764 -131.604178 
L 108.656527 -131.085122 
L 107.860289 -130.440792 
L 107.064052 -129.924516 
L 106.267814 -129.701293 
L 105.471577 -129.827206 
L 104.675339 -130.250202 
L 103.879102 -130.813486 
L 103.082864 -131.279165 
L 102.286627 -131.389565 
L 101.490389 -130.94668 
L 100.694152 -129.870627 
L 99.897914 -128.217236 
L 99.101677 -126.168276 
L 98.305439 -124.010452 
L 97.509202 -122.101692 
L 96.712964 -120.813807 
L 95.916727 -120.452777 
L 95.120489 -121.174804 
L 94.324251 -122.921598 
L 93.528014 -125.39566 
L 92.731776 -128.091938 
L 91.935539 -130.396031 
L 91.139301 -131.736482 
L 90.343064 -131.746411 
L 89.546826 -130.376897 
L 88.750589 -127.923642 
L 87.954351 -124.961357 
L 87.158114 -122.203827 
L 86.361876 -120.322749 
L 85.565639 -119.772113 
L 84.769401 -120.677199 
L 83.973164 -122.832035 
L 83.176926 -125.793469 
L 82.380689 -129.013103 
L 81.584451 -131.955219 
L 80.788214 -134.182151 
L 79.991976 -135.41896 
L 79.195739 -135.60066 
L 78.399501 -134.881497 
L 77.603263 -133.583812 
L 76.807026 -132.096923 
L 76.010788 -130.771595 
L 75.214551 -129.855987 
L 74.418313 -129.476775 
L 73.622076 -129.645823 
L 72.825838 -130.275806 
L 72.029601 -131.202818 
L 71.233363 -132.218594 
L 70.437126 -133.114591 
L 69.640888 -133.73897 
L 68.844651 -134.054257 
L 68.048413 -134.167182 
L 67.252176 -134.299035 
L 66.455938 -134.693995 
L 65.659701 -135.513925 
L 64.863463 -136.792633 
L 64.067226 -138.468327 
L 63.270988 -140.437363 
L 62.47475 -142.575371 
L 61.678513 -144.731757 
L 60.882275 -146.749244 
L 60.086038 -148.521451 
L 59.2898 -150.035722 
L 58.493563 -151.346414 
L 57.697325 -152.488546 
L 56.901088 -153.405907 
L 56.10485 -153.961229 
L 55.308613 -154.015032 
L 54.512375 -153.507087 
L 53.716138 -152.499225 
L 52.9199 -151.181186 
L 52.123663 -149.848671 
L 51.327425 -148.846533 
L 50.531188 -148.473502 
L 49.73495 -148.878762 
L 48.938713 -149.998531 
L 48.142475 -151.562087 
L 47.346238 -153.158807 
L 46.55 -154.338725 
z
" style="stroke: #377eb8; stroke-opacity: 0.3"/>
    </defs>
    <g clip-path="url(#p0aa30b0f76)">
     <use xlink:href="#m3e960d16a2" x="0" y="360" style="fill: #377eb8; fill-opacity: 0.3; stroke: #377eb8; stroke-opacity: 0.3"/>
    </g>
   </g>
   <g id="patch_3">
    <path d="M 229.843878 318.2 
L 229.843878 71.241125 
L 331.762281 71.241125 
L 331.762281 318.2 
z
" clip-path="url(#p0aa30b0f76)" style="fill: #808080; opacity: 0.3"/>
   </g>
   <g id="matplotlib.axis_1">
    <g id="xtick_1">
     <g id="line2d_1">
      <defs>
       <path id="m069eaed757" d="M 0 0 
L 0 3.5 
" style="stroke: #000000; stroke-width: 0.8"/>
      </defs>
      <g>
       <use xlink:href="#m069eaed757" x="87.158114" y="318.2" style="stroke: #000000; stroke-width: 0.8"/>
      </g>
     </g>
     <g id="text_1">
      <!-- 0.0 -->
      <g transform="translate(79.206551 332.798437)scale(0.1 -0.1)">
       <defs>
        <path id="DejaVuSans-30" d="M 2034 4250 
Q 1547 4250 1301 3770 
Q 1056 3291 1056 2328 
Q 1056 1369 1301 889 
Q 1547 409 2034 409 
Q 2525 409 2770 889 
Q 3016 1369 3016 2328 
Q 3016 3291 2770 3770 
Q 2525 4250 2034 4250 
z
M 2034 4750 
Q 2819 4750 3233 4129 
Q 3647 3509 3647 2328 
Q 3647 1150 3233 529 
Q 2819 -91 2034 -91 
Q 1250 -91 836 529 
Q 422 1150 422 2328 
Q 422 3509 836 4129 
Q 1250 4750 2034 4750 
z
" transform="scale(0.015625)"/>
        <path id="DejaVuSans-2e" d="M 684 794 
L 1344 794 
L 1344 0 
L 684 0 
L 684 794 
z
" transform="scale(0.015625)"/>
       </defs>
       <use xlink:href="#DejaVuSans-30"/>
       <use xlink:href="#DejaVuSans-2e" x="63.623047"/>
       <use xlink:href="#DejaVuSans-30" x="95.410156"/>
      </g>
     </g>
    </g>
    <g id="xtick_2">
     <g id="line2d_2">
      <g>
       <use xlink:href="#m069eaed757" x="168.692836" y="318.2" style="stroke: #000000; stroke-width: 0.8"/>
      </g>
     </g>
     <g id="text_2">
      <!-- 0.2 -->
      <g transform="translate(160.741274 332.798437)scale(0.1 -0.1)">
       <defs>
        <path id="DejaVuSans-32" d="M 1228 531 
L 3431 531 
L 3431 0 
L 469 0 
L 469 531 
Q 828 903 1448 1529 
Q 2069 2156 2228 2338 
Q 2531 2678 2651 2914 
Q 2772 3150 2772 3378 
Q 2772 3750 2511 3984 
Q 2250 4219 1831 4219 
Q 1534 4219 1204 4116 
Q 875 4013 500 3803 
L 500 4441 
Q 881 4594 1212 4672 
Q 1544 4750 1819 4750 
Q 2544 4750 2975 4387 
Q 3406 4025 3406 3419 
Q 3406 3131 3298 2873 
Q 3191 2616 2906 2266 
Q 2828 2175 2409 1742 
Q 1991 1309 1228 531 
z
" transform="scale(0.015625)"/>
       </defs>
       <use xlink:href="#DejaVuSans-30"/>
       <use xlink:href="#DejaVuSans-2e" x="63.623047"/>
       <use xlink:href="#DejaVuSans-32" x="95.410156"/>
      </g>
     </g>
    </g>
    <g id="xtick_3">
     <g id="line2d_3">
      <g>
       <use xlink:href="#m069eaed757" x="250.227559" y="318.2" style="stroke: #000000; stroke-width: 0.8"/>
      </g>
     </g>
     <g id="text_3">
      <!-- 0.4 -->
      <g transform="translate(242.275996 332.798437)scale(0.1 -0.1)">
       <defs>
        <path id="DejaVuSans-34" d="M 2419 4116 
L 825 1625 
L 2419 1625 
L 2419 4116 
z
M 2253 4666 
L 3047 4666 
L 3047 1625 
L 3713 1625 
L 3713 1100 
L 3047 1100 
L 3047 0 
L 2419 0 
L 2419 1100 
L 313 1100 
L 313 1709 
L 2253 4666 
z
" transform="scale(0.015625)"/>
       </defs>
       <use xlink:href="#DejaVuSans-30"/>
       <use xlink:href="#DejaVuSans-2e" x="63.623047"/>
       <use xlink:href="#DejaVuSans-34" x="95.410156"/>
      </g>
     </g>
    </g>
    <g id="xtick_4">
     <g id="line2d_4">
      <g>
       <use xlink:href="#m069eaed757" x="331.762281" y="318.2" style="stroke: #000000; stroke-width: 0.8"/>
      </g>
     </g>
     <g id="text_4">
      <!-- 0.6 -->
      <g transform="translate(323.810719 332.798437)scale(0.1 -0.1)">
       <defs>
        <path id="DejaVuSans-36" d="M 2113 2584 
Q 1688 2584 1439 2293 
Q 1191 2003 1191 1497 
Q 1191 994 1439 701 
Q 1688 409 2113 409 
Q 2538 409 2786 701 
Q 3034 994 3034 1497 
Q 3034 2003 2786 2293 
Q 2538 2584 2113 2584 
z
M 3366 4563 
L 3366 3988 
Q 3128 4100 2886 4159 
Q 2644 4219 2406 4219 
Q 1781 4219 1451 3797 
Q 1122 3375 1075 2522 
Q 1259 2794 1537 2939 
Q 1816 3084 2150 3084 
Q 2853 3084 3261 2657 
Q 3669 2231 3669 1497 
Q 3669 778 3244 343 
Q 2819 -91 2113 -91 
Q 1303 -91 875 529 
Q 447 1150 447 2328 
Q 447 3434 972 4092 
Q 1497 4750 2381 4750 
Q 2619 4750 2861 4703 
Q 3103 4656 3366 4563 
z
" transform="scale(0.015625)"/>
       </defs>
       <use xlink:href="#DejaVuSans-30"/>
       <use xlink:href="#DejaVuSans-2e" x="63.623047"/>
       <use xlink:href="#DejaVuSans-36" x="95.410156"/>
      </g>
     </g>
    </g>
    <g id="xtick_5">
     <g id="line2d_5">
      <g>
       <use xlink:href="#m069eaed757" x="413.297004" y="318.2" style="stroke: #000000; stroke-width: 0.8"/>
      </g>
     </g>
     <g id="text_5">
      <!-- 0.8 -->
      <g transform="translate(405.345441 332.798437)scale(0.1 -0.1)">
       <defs>
        <path id="DejaVuSans-38" d="M 2034 2216 
Q 1584 2216 1326 1975 
Q 1069 1734 1069 1313 
Q 1069 891 1326 650 
Q 1584 409 2034 409 
Q 2484 409 2743 651 
Q 3003 894 3003 1313 
Q 3003 1734 2745 1975 
Q 2488 2216 2034 2216 
z
M 1403 2484 
Q 997 2584 770 2862 
Q 544 3141 544 3541 
Q 544 4100 942 4425 
Q 1341 4750 2034 4750 
Q 2731 4750 3128 4425 
Q 3525 4100 3525 3541 
Q 3525 3141 3298 2862 
Q 3072 2584 2669 2484 
Q 3125 2378 3379 2068 
Q 3634 1759 3634 1313 
Q 3634 634 3220 271 
Q 2806 -91 2034 -91 
Q 1263 -91 848 271 
Q 434 634 434 1313 
Q 434 1759 690 2068 
Q 947 2378 1403 2484 
z
M 1172 3481 
Q 1172 3119 1398 2916 
Q 1625 2713 2034 2713 
Q 2441 2713 2670 2916 
Q 2900 3119 2900 3481 
Q 2900 3844 2670 4047 
Q 2441 4250 2034 4250 
Q 1625 4250 1398 4047 
Q 1172 3844 1172 3481 
z
" transform="scale(0.015625)"/>
       </defs>
       <use xlink:href="#DejaVuSans-30"/>
       <use xlink:href="#DejaVuSans-2e" x="63.623047"/>
       <use xlink:href="#DejaVuSans-38" x="95.410156"/>
      </g>
     </g>
    </g>
    <g id="text_6">
     <!-- seconds -->
     <g transform="translate(209.645249 346.476562)scale(0.1 -0.1)">
      <defs>
       <path id="DejaVuSans-73" d="M 2834 3397 
L 2834 2853 
Q 2591 2978 2328 3040 
Q 2066 3103 1784 3103 
Q 1356 3103 1142 2972 
Q 928 2841 928 2578 
Q 928 2378 1081 2264 
Q 1234 2150 1697 2047 
L 1894 2003 
Q 2506 1872 2764 1633 
Q 3022 1394 3022 966 
Q 3022 478 2636 193 
Q 2250 -91 1575 -91 
Q 1294 -91 989 -36 
Q 684 19 347 128 
L 347 722 
Q 666 556 975 473 
Q 1284 391 1588 391 
Q 1994 391 2212 530 
Q 2431 669 2431 922 
Q 2431 1156 2273 1281 
Q 2116 1406 1581 1522 
L 1381 1569 
Q 847 1681 609 1914 
Q 372 2147 372 2553 
Q 372 3047 722 3315 
Q 1072 3584 1716 3584 
Q 2034 3584 2315 3537 
Q 2597 3491 2834 3397 
z
" transform="scale(0.015625)"/>
       <path id="DejaVuSans-65" d="M 3597 1894 
L 3597 1613 
L 953 1613 
Q 991 1019 1311 708 
Q 1631 397 2203 397 
Q 2534 397 2845 478 
Q 3156 559 3463 722 
L 3463 178 
Q 3153 47 2828 -22 
Q 2503 -91 2169 -91 
Q 1331 -91 842 396 
Q 353 884 353 1716 
Q 353 2575 817 3079 
Q 1281 3584 2069 3584 
Q 2775 3584 3186 3129 
Q 3597 2675 3597 1894 
z
M 3022 2063 
Q 3016 2534 2758 2815 
Q 2500 3097 2075 3097 
Q 1594 3097 1305 2825 
Q 1016 2553 972 2059 
L 3022 2063 
z
" transform="scale(0.015625)"/>
       <path id="DejaVuSans-63" d="M 3122 3366 
L 3122 2828 
Q 2878 2963 2633 3030 
Q 2388 3097 2138 3097 
Q 1578 3097 1268 2742 
Q 959 2388 959 1747 
Q 959 1106 1268 751 
Q 1578 397 2138 397 
Q 2388 397 2633 464 
Q 2878 531 3122 666 
L 3122 134 
Q 2881 22 2623 -34 
Q 2366 -91 2075 -91 
Q 1284 -91 818 406 
Q 353 903 353 1747 
Q 353 2603 823 3093 
Q 1294 3584 2113 3584 
Q 2378 3584 2631 3529 
Q 2884 3475 3122 3366 
z
" transform="scale(0.015625)"/>
       <path id="DejaVuSans-6f" d="M 1959 3097 
Q 1497 3097 1228 2736 
Q 959 2375 959 1747 
Q 959 1119 1226 758 
Q 1494 397 1959 397 
Q 2419 397 2687 759 
Q 2956 1122 2956 1747 
Q 2956 2369 2687 2733 
Q 2419 3097 1959 3097 
z
M 1959 3584 
Q 2709 3584 3137 3096 
Q 3566 2609 3566 1747 
Q 3566 888 3137 398 
Q 2709 -91 1959 -91 
Q 1206 -91 779 398 
Q 353 888 353 1747 
Q 353 2609 779 3096 
Q 1206 3584 1959 3584 
z
" transform="scale(0.015625)"/>
       <path id="DejaVuSans-6e" d="M 3513 2113 
L 3513 0 
L 2938 0 
L 2938 2094 
Q 2938 2591 2744 2837 
Q 2550 3084 2163 3084 
Q 1697 3084 1428 2787 
Q 1159 2491 1159 1978 
L 1159 0 
L 581 0 
L 581 3500 
L 1159 3500 
L 1159 2956 
Q 1366 3272 1645 3428 
Q 1925 3584 2291 3584 
Q 2894 3584 3203 3211 
Q 3513 2838 3513 2113 
z
" transform="scale(0.015625)"/>
       <path id="DejaVuSans-64" d="M 2906 2969 
L 2906 4863 
L 3481 4863 
L 3481 0 
L 2906 0 
L 2906 525 
Q 2725 213 2448 61 
Q 2172 -91 1784 -91 
Q 1150 -91 751 415 
Q 353 922 353 1747 
Q 353 2572 751 3078 
Q 1150 3584 1784 3584 
Q 2172 3584 2448 3432 
Q 2725 3281 2906 2969 
z
M 947 1747 
Q 947 1113 1208 752 
Q 1469 391 1925 391 
Q 2381 391 2643 752 
Q 2906 1113 2906 1747 
Q 2906 2381 2643 2742 
Q 2381 3103 1925 3103 
Q 1469 3103 1208 2742 
Q 947 2381 947 1747 
z
" transform="scale(0.015625)"/>
      </defs>
      <use xlink:href="#DejaVuSans-73"/>
      <use xlink:href="#DejaVuSans-65" x="52.099609"/>
      <use xlink:href="#DejaVuSans-63" x="113.623047"/>
      <use xlink:href="#DejaVuSans-6f" x="168.603516"/>
      <use xlink:href="#DejaVuSans-6e" x="229.785156"/>
      <use xlink:href="#DejaVuSans-64" x="293.164062"/>
      <use xlink:href="#DejaVuSans-73" x="356.640625"/>
     </g>
    </g>
   </g>
   <g id="matplotlib.axis_2">
    <g id="ytick_1">
     <g id="line2d_6">
      <defs>
       <path id="m03775261f3" d="M 0 0 
L -3.5 0 
" style="stroke: #000000; stroke-width: 0.8"/>
      </defs>
      <g>
       <use xlink:href="#m03775261f3" x="46.55" y="302.517399" style="stroke: #000000; stroke-width: 0.8"/>
      </g>
     </g>
     <g id="text_7">
      <!-- 2 -->
      <g transform="translate(24.807812 306.316618)scale(0.1 -0.1)">
       <defs>
        <path id="DejaVuSans-2212" d="M 678 2272 
L 4684 2272 
L 4684 1741 
L 678 1741 
L 678 2272 
z
" transform="scale(0.015625)"/>
       </defs>
       <use xlink:href="#DejaVuSans-2212"/>
       <use xlink:href="#DejaVuSans-32" x="83.789062"/>
      </g>
     </g>
    </g>
    <g id="ytick_2">
     <g id="line2d_7">
      <g>
       <use xlink:href="#m03775261f3" x="46.55" y="267.004972" style="stroke: #000000; stroke-width: 0.8"/>
      </g>
     </g>
     <g id="text_8">
      <!-- 1 -->
      <g transform="translate(24.807812 270.804191)scale(0.1 -0.1)">
       <defs>
        <path id="DejaVuSans-31" d="M 794 531 
L 1825 531 
L 1825 4091 
L 703 3866 
L 703 4441 
L 1819 4666 
L 2450 4666 
L 2450 531 
L 3481 531 
L 3481 0 
L 794 0 
L 794 531 
z
" transform="scale(0.015625)"/>
       </defs>
       <use xlink:href="#DejaVuSans-2212"/>
       <use xlink:href="#DejaVuSans-31" x="83.789062"/>
      </g>
     </g>
    </g>
    <g id="ytick_3">
     <g id="line2d_8">
      <g>
       <use xlink:href="#m03775261f3" x="46.55" y="231.492545" style="stroke: #000000; stroke-width: 0.8"/>
      </g>
     </g>
     <g id="text_9">
      <!-- 0 -->
      <g transform="translate(33.1875 235.291764)scale(0.1 -0.1)">
       <use xlink:href="#DejaVuSans-30"/>
      </g>
     </g>
    </g>
    <g id="ytick_4">
     <g id="line2d_9">
      <g>
       <use xlink:href="#m03775261f3" x="46.55" y="195.980119" style="stroke: #000000; stroke-width: 0.8"/>
      </g>
     </g>
     <g id="text_10">
      <!-- 1 -->
      <g transform="translate(33.1875 199.779337)scale(0.1 -0.1)">
       <use xlink:href="#DejaVuSans-31"/>
      </g>
     </g>
    </g>
    <g id="ytick_5">
     <g id="line2d_10">
      <g>
       <use xlink:href="#m03775261f3" x="46.55" y="160.467692" style="stroke: #000000; stroke-width: 0.8"/>
      </g>
     </g>
     <g id="text_11">
      <!-- 2 -->
      <g transform="translate(33.1875 164.266911)scale(0.1 -0.1)">
       <use xlink:href="#DejaVuSans-32"/>
      </g>
     </g>
    </g>
    <g id="ytick_6">
     <g id="line2d_11">
      <g>
       <use xlink:href="#m03775261f3" x="46.55" y="124.955265" style="stroke: #000000; stroke-width: 0.8"/>
      </g>
     </g>
     <g id="text_12">
      <!-- 3 -->
      <g transform="translate(33.1875 128.754484)scale(0.1 -0.1)">
       <defs>
        <path id="DejaVuSans-33" d="M 2597 2516 
Q 3050 2419 3304 2112 
Q 3559 1806 3559 1356 
Q 3559 666 3084 287 
Q 2609 -91 1734 -91 
Q 1441 -91 1130 -33 
Q 819 25 488 141 
L 488 750 
Q 750 597 1062 519 
Q 1375 441 1716 441 
Q 2309 441 2620 675 
Q 2931 909 2931 1356 
Q 2931 1769 2642 2001 
Q 2353 2234 1838 2234 
L 1294 2234 
L 1294 2753 
L 1863 2753 
Q 2328 2753 2575 2939 
Q 2822 3125 2822 3475 
Q 2822 3834 2567 4026 
Q 2313 4219 1838 4219 
Q 1578 4219 1281 4162 
Q 984 4106 628 3988 
L 628 4550 
Q 988 4650 1302 4700 
Q 1616 4750 1894 4750 
Q 2613 4750 3031 4423 
Q 3450 4097 3450 3541 
Q 3450 3153 3228 2886 
Q 3006 2619 2597 2516 
z
" transform="scale(0.015625)"/>
       </defs>
       <use xlink:href="#DejaVuSans-33"/>
      </g>
     </g>
    </g>
    <g id="ytick_7">
     <g id="line2d_12">
      <g>
       <use xlink:href="#m03775261f3" x="46.55" y="89.442839" style="stroke: #000000; stroke-width: 0.8"/>
      </g>
     </g>
     <g id="text_13">
      <!-- 4 -->
      <g transform="translate(33.1875 93.242057)scale(0.1 -0.1)">
       <use xlink:href="#DejaVuSans-34"/>
      </g>
     </g>
    </g>
    <g id="text_14">
     <!-- V -->
     <g transform="translate(18.728125 201.322125)rotate(-90)scale(0.1 -0.1)">
      <defs>
       <path id="DejaVuSans-b5" d="M 544 -1331 
L 544 3500 
L 1119 3500 
L 1119 1325 
Q 1119 872 1334 640 
Q 1550 409 1972 409 
Q 2434 409 2667 671 
Q 2900 934 2900 1459 
L 2900 3500 
L 3475 3500 
L 3475 806 
Q 3475 619 3529 530 
Q 3584 441 3700 441 
Q 3728 441 3778 458 
Q 3828 475 3916 513 
L 3916 50 
Q 3788 -22 3673 -56 
Q 3559 -91 3450 -91 
Q 3234 -91 3106 31 
Q 2978 153 2931 403 
Q 2775 156 2548 32 
Q 2322 -91 2016 -91 
Q 1697 -91 1473 31 
Q 1250 153 1119 397 
L 1119 -1331 
L 544 -1331 
z
" transform="scale(0.015625)"/>
       <path id="DejaVuSans-56" d="M 1831 0 
L 50 4666 
L 709 4666 
L 2188 738 
L 3669 4666 
L 4325 4666 
L 2547 0 
L 1831 0 
z
" transform="scale(0.015625)"/>
      </defs>
      <use xlink:href="#DejaVuSans-b5"/>
      <use xlink:href="#DejaVuSans-56" x="63.623047"/>
     </g>
    </g>
   </g>
   <g id="line2d_13">
    <path d="M 46.55 239.12467 
L 47.346238 237.662779 
L 48.142475 234.657395 
L 49.73495 226.972645 
L 50.531188 223.969055 
L 51.327425 222.284899 
L 52.123663 221.994805 
L 52.9199 222.780935 
L 54.512375 225.310925 
L 55.308613 226.045799 
L 56.10485 226.156703 
L 58.493563 225.096668 
L 59.2898 225.319424 
L 60.086038 225.974158 
L 60.882275 226.805076 
L 61.678513 227.429146 
L 62.47475 227.498056 
L 63.270988 226.855326 
L 65.659701 223.172855 
L 66.455938 223.051405 
L 67.252176 224.200679 
L 68.048413 226.655248 
L 69.640888 233.987351 
L 70.437126 237.621225 
L 71.233363 240.410632 
L 72.029601 241.978096 
L 72.825838 242.235605 
L 73.622076 241.365304 
L 74.418313 239.731553 
L 76.010788 235.859707 
L 76.807026 234.317288 
L 77.603263 233.331152 
L 78.399501 233.003006 
L 79.195739 233.358999 
L 79.991976 234.348939 
L 81.584451 237.540045 
L 82.380689 239.131649 
L 83.176926 240.215214 
L 83.973164 240.479166 
L 84.769401 239.811551 
L 85.565639 238.386315 
L 86.361876 236.660575 
L 87.158114 235.261843 
L 87.954351 234.787156 
L 88.750589 235.579653 
L 89.546826 237.570042 
L 91.139301 242.855724 
L 91.935539 244.566732 
L 92.731776 244.884496 
L 93.528014 243.812674 
L 95.120489 240.054533 
L 95.916727 239.215993 
L 96.712964 239.967068 
L 97.509202 242.27371 
L 99.101677 248.338669 
L 99.897914 249.786446 
L 100.694152 249.018783 
L 101.490389 245.99089 
L 103.082864 236.647726 
L 103.879102 233.012685 
L 104.675339 231.54703 
L 105.471577 232.527361 
L 106.267814 235.40369 
L 107.064052 239.009004 
L 107.860289 241.987618 
L 108.656527 243.278432 
L 109.452764 242.47093 
L 110.249002 239.906295 
L 111.841477 233.363433 
L 112.637715 231.401414 
L 113.433952 231.011053 
L 114.23019 232.019299 
L 116.618902 237.367973 
L 117.41514 238.44789 
L 119.007615 240.211284 
L 119.803852 241.619111 
L 122.192565 247.482047 
L 122.988802 248.578218 
L 123.78504 248.754287 
L 125.377515 247.642149 
L 126.173752 247.695596 
L 126.96999 248.990871 
L 127.766228 251.696408 
L 130.15494 262.886129 
L 130.951178 264.943031 
L 131.747415 265.461307 
L 132.543653 264.838806 
L 133.33989 263.935607 
L 134.136128 263.74762 
L 134.932365 265.00755 
L 135.728603 267.862943 
L 137.321078 275.555548 
L 138.117315 277.912409 
L 138.913553 277.707467 
L 139.70979 274.45346 
L 140.506028 268.504421 
L 142.098503 253.56376 
L 142.89474 247.830551 
L 143.690978 244.983252 
L 144.487216 245.410915 
L 145.283453 248.608709 
L 146.875928 257.982177 
L 147.672166 261.012403 
L 148.468403 261.382765 
L 149.264641 258.790969 
L 150.060878 253.71902 
L 151.653353 240.865855 
L 152.449591 235.883852 
L 153.245828 233.346253 
L 154.042066 233.708079 
L 154.838303 236.788787 
L 155.634541 241.840031 
L 157.227016 253.142483 
L 158.023253 256.924207 
L 158.819491 258.238712 
L 159.615729 256.785546 
L 160.411966 252.870326 
L 162.800679 236.635366 
L 163.596916 233.885503 
L 164.393154 233.837961 
L 165.189391 236.390324 
L 167.578104 250.022873 
L 168.374341 252.563348 
L 169.170579 252.94973 
L 169.966816 251.440901 
L 171.559291 246.115724 
L 172.355529 244.085278 
L 173.151766 243.014025 
L 173.948004 242.554789 
L 174.744241 241.897699 
L 175.540479 240.13399 
L 176.336717 236.687944 
L 177.132954 231.642649 
L 178.725429 220.565857 
L 179.521667 217.300703 
L 180.317904 216.9956 
L 181.114142 219.762678 
L 183.502854 234.211337 
L 184.299092 235.08937 
L 185.095329 231.991733 
L 185.891567 225.197408 
L 188.280279 198.758212 
L 189.076517 194.355814 
L 189.872754 194.027333 
L 190.668992 197.425511 
L 193.057705 215.278948 
L 193.853942 218.15634 
L 194.65018 217.795027 
L 195.446417 214.320356 
L 196.242655 208.562499 
L 197.83513 195.334319 
L 198.631367 190.311733 
L 199.427605 187.329489 
L 200.223842 186.41598 
L 201.02008 187.076506 
L 202.612555 189.78516 
L 203.408792 190.319538 
L 204.20503 189.878856 
L 205.797505 187.556392 
L 206.593742 187.139964 
L 207.38998 188.132395 
L 208.186218 190.745702 
L 210.57493 202.399409 
L 211.371168 204.107546 
L 212.167405 203.425704 
L 212.963643 200.471703 
L 214.556118 191.644497 
L 215.352355 188.602438 
L 216.148593 188.100363 
L 216.94483 190.574808 
L 217.741068 195.616264 
L 219.333543 208.440117 
L 220.12978 213.210876 
L 220.926018 215.394435 
L 221.722255 214.717565 
L 222.518493 211.648249 
L 224.907206 198.558643 
L 225.703443 195.919267 
L 226.499681 194.590189 
L 227.295918 194.17356 
L 228.092156 194.080196 
L 228.888393 193.769992 
L 229.684631 192.918274 
L 230.480868 191.459111 
L 231.277106 189.514705 
L 232.869581 184.843951 
L 234.462056 179.558748 
L 236.054531 173.921594 
L 236.850768 171.518811 
L 237.647006 169.940305 
L 238.443243 169.571496 
L 239.239481 170.588759 
L 240.035719 172.850908 
L 242.424431 181.610745 
L 243.220669 183.07532 
L 244.016906 183.24812 
L 244.813144 182.28893 
L 247.201856 177.30354 
L 247.998094 176.457464 
L 248.794331 176.381748 
L 249.590569 177.025909 
L 250.386806 178.238757 
L 251.979281 181.59912 
L 252.775519 183.328461 
L 253.571756 184.775192 
L 254.367994 185.679324 
L 255.164231 185.809719 
L 255.960469 185.036091 
L 256.756707 183.395502 
L 258.349182 178.531629 
L 259.941657 173.822824 
L 262.330369 168.001401 
L 263.126607 165.26821 
L 264.719082 157.866613 
L 265.515319 153.968046 
L 266.311557 150.792984 
L 267.107794 148.903556 
L 267.904032 148.5053 
L 268.700269 149.314778 
L 269.496507 150.600377 
L 270.292744 151.394642 
L 271.088982 150.810206 
L 271.88522 148.348958 
L 272.681457 144.091628 
L 274.273932 133.211474 
L 275.07017 128.744861 
L 275.866407 126.140106 
L 276.662645 125.731281 
L 277.458882 127.277911 
L 279.847595 135.900685 
L 280.643832 137.57589 
L 281.44007 138.177605 
L 282.236307 138.026339 
L 283.032545 137.690976 
L 283.828782 137.773341 
L 284.62502 138.70067 
L 285.421257 140.584006 
L 287.80997 148.140252 
L 288.606208 149.127564 
L 289.402445 148.411406 
L 290.198683 145.84503 
L 290.99492 141.66846 
L 293.383633 126.270464 
L 294.17987 122.788119 
L 294.976108 120.95153 
L 295.772345 120.695199 
L 296.568583 121.583821 
L 298.161058 124.15954 
L 298.957295 124.723739 
L 299.753533 124.543396 
L 301.346008 123.260192 
L 302.142245 123.271349 
L 302.938483 124.339775 
L 303.73472 126.558191 
L 306.123433 135.805634 
L 306.919671 137.560036 
L 307.715908 137.887602 
L 308.512146 136.832354 
L 309.308383 134.771828 
L 310.900858 129.898418 
L 311.697096 128.051958 
L 312.493333 126.888615 
L 313.289571 126.339949 
L 314.085808 126.216203 
L 314.882046 126.340891 
L 315.678283 126.658149 
L 316.474521 127.269769 
L 317.270758 128.390968 
L 318.066996 130.248497 
L 318.863233 132.966729 
L 319.659471 136.488796 
L 322.048184 148.737823 
L 322.844421 152.032431 
L 323.640659 154.464267 
L 324.436896 156.02676 
L 325.233134 156.91368 
L 326.825609 158.144506 
L 327.621846 159.360088 
L 328.418084 161.472818 
L 329.214321 164.665872 
L 330.010559 168.888046 
L 332.399271 183.419421 
L 333.195509 186.648873 
L 333.991746 188.061782 
L 334.787984 187.485273 
L 335.584221 185.199177 
L 337.176697 178.582749 
L 337.972934 176.198923 
L 338.769172 175.463947 
L 339.565409 176.61009 
L 340.361647 179.335053 
L 341.954122 186.436429 
L 342.750359 189.112608 
L 343.546597 190.497467 
L 344.342834 190.598149 
L 345.139072 189.806041 
L 345.935309 188.698796 
L 346.731547 187.794856 
L 347.527784 187.36022 
L 349.916497 187.208838 
L 350.712734 186.428597 
L 351.508972 185.040159 
L 353.101447 181.536526 
L 353.897685 180.257936 
L 354.693922 179.731127 
L 355.49016 180.020978 
L 356.286397 180.962032 
L 357.878872 183.486633 
L 358.67511 184.416907 
L 359.471347 184.841757 
L 360.267585 184.683478 
L 361.063822 183.938664 
L 361.86006 182.648698 
L 362.656297 180.897592 
L 365.04501 174.847431 
L 365.841247 173.635294 
L 366.637485 173.398786 
L 367.433722 174.314766 
L 368.22996 176.345067 
L 369.026198 179.246499 
L 372.211148 193.389291 
L 373.803623 201.177151 
L 376.192335 214.222553 
L 376.988573 217.168113 
L 377.78481 218.296696 
L 378.581048 217.219084 
L 379.377285 213.988506 
L 380.173523 209.12557 
L 381.765998 198.03411 
L 382.562235 193.54764 
L 383.358473 190.446982 
L 384.15471 188.715444 
L 384.950948 187.982308 
L 386.543423 187.38434 
L 387.339661 186.704178 
L 388.135898 185.594482 
L 389.728373 182.61485 
L 392.913323 176.387981 
L 395.302036 171.159824 
L 396.098273 169.884462 
L 396.894511 169.12777 
L 397.690748 168.884663 
L 400.079461 169.29378 
L 401.671936 169.029886 
L 402.468174 169.104713 
L 403.264411 169.774167 
L 404.060649 171.302635 
L 404.856886 173.740786 
L 406.449361 180.341329 
L 408.041836 186.511385 
L 408.838074 188.782863 
L 412.023024 196.36817 
L 413.615499 201.143801 
L 413.615499 201.143801 
" clip-path="url(#p0aa30b0f76)" style="fill: none; stroke: #e41a1c; stroke-width: 1.5; stroke-linecap: square"/>
   </g>
   <g id="line2d_14">
    <path d="M 46.55 218.315874 
L 47.346238 219.314361 
L 48.938713 222.061184 
L 49.73495 222.892402 
L 50.531188 222.963791 
L 51.327425 222.249852 
L 52.123663 220.937207 
L 53.716138 217.834296 
L 54.512375 216.685421 
L 55.308613 216.066777 
L 56.10485 216.01262 
L 56.901088 216.459074 
L 57.697325 217.298909 
L 58.493563 218.433372 
L 60.086038 221.383417 
L 61.678513 225.142419 
L 64.067226 231.235291 
L 64.863463 232.856654 
L 65.659701 234.070449 
L 66.455938 234.854078 
L 67.252176 235.278197 
L 69.640888 236.030442 
L 70.437126 236.636349 
L 72.029601 238.544412 
L 72.825838 239.553918 
L 73.622076 240.309057 
L 74.418313 240.604781 
L 75.214551 240.320084 
L 76.010788 239.462997 
L 78.399501 235.596206 
L 79.195739 235.01303 
L 79.991976 235.321981 
L 80.788214 236.665831 
L 81.584451 238.98689 
L 83.973164 248.332012 
L 84.769401 250.557674 
L 85.565639 251.603507 
L 86.361876 251.320398 
L 87.158114 249.844166 
L 89.546826 243.067451 
L 90.343064 241.982268 
L 91.139301 242.147017 
L 91.935539 243.554004 
L 92.731776 245.902956 
L 94.324251 251.310576 
L 95.120489 253.259236 
L 95.916727 254.186266 
L 96.712964 253.986034 
L 97.509202 252.787372 
L 98.305439 250.895908 
L 99.897914 246.609025 
L 100.694152 244.91779 
L 101.490389 243.820937 
L 102.286627 243.366683 
L 103.082864 243.4733 
L 103.879102 243.959602 
L 105.471577 245.135224 
L 106.267814 245.417266 
L 107.064052 245.367165 
L 109.452764 244.300888 
L 110.249002 244.331814 
L 111.04524 244.817518 
L 111.841477 245.719591 
L 113.433952 247.873079 
L 114.23019 248.506749 
L 115.026427 248.531032 
L 115.822665 247.921692 
L 118.211377 244.787243 
L 119.007615 244.476061 
L 119.803852 244.898579 
L 120.60009 245.998199 
L 122.192565 249.283461 
L 123.78504 252.344626 
L 125.377515 254.517349 
L 126.96999 256.204627 
L 127.766228 256.805546 
L 128.562465 257.051102 
L 129.358703 256.781837 
L 130.15494 255.926572 
L 130.951178 254.558184 
L 132.543653 251.222617 
L 133.33989 249.827868 
L 134.136128 248.874885 
L 134.932365 248.37473 
L 135.728603 248.201941 
L 139.70979 248.144653 
L 140.506028 248.59201 
L 142.89474 250.644421 
L 143.690978 250.456171 
L 144.487216 249.249303 
L 145.283453 246.942107 
L 146.875928 240.134515 
L 147.672166 236.701375 
L 148.468403 234.000796 
L 149.264641 232.38318 
L 150.060878 231.909958 
L 150.857116 232.364586 
L 153.245828 235.28021 
L 154.042066 235.719533 
L 154.838303 235.761861 
L 156.430778 235.212018 
L 157.227016 234.940572 
L 158.023253 234.827519 
L 158.819491 234.95107 
L 159.615729 235.395083 
L 160.411966 236.269749 
L 161.208204 237.696659 
L 162.004441 239.760201 
L 162.800679 242.443472 
L 165.985629 254.563275 
L 166.781866 256.43503 
L 167.578104 257.630949 
L 168.374341 258.358067 
L 169.966816 259.519736 
L 171.559291 261.032045 
L 172.355529 261.51273 
L 173.151766 261.400555 
L 173.948004 260.511876 
L 174.744241 258.908748 
L 176.336717 255.026937 
L 177.132954 253.723949 
L 177.929192 253.28875 
L 178.725429 253.674024 
L 180.317904 255.16737 
L 181.114142 255.101183 
L 181.910379 253.952754 
L 182.706617 251.765226 
L 184.299092 246.326384 
L 185.095329 244.532535 
L 185.891567 244.116208 
L 186.687804 245.173726 
L 187.484042 247.34039 
L 188.280279 249.900073 
L 189.076517 252.010376 
L 189.872754 252.962893 
L 190.668992 252.38937 
L 191.46523 250.347618 
L 193.057705 243.779074 
L 193.853942 240.512406 
L 194.65018 237.906793 
L 195.446417 236.125329 
L 196.242655 235.072348 
L 197.038892 234.499216 
L 198.631367 233.856563 
L 199.427605 233.633485 
L 200.223842 233.605647 
L 201.02008 233.943795 
L 201.816317 234.758 
L 202.612555 236.025403 
L 205.001267 240.465072 
L 205.797505 241.339458 
L 206.593742 241.724079 
L 207.38998 241.715659 
L 208.982455 241.304842 
L 209.778693 241.271271 
L 210.57493 241.475193 
L 211.371168 241.905694 
L 212.963643 243.255894 
L 213.75988 244.140755 
L 214.556118 245.211145 
L 215.352355 246.512861 
L 218.537305 252.586639 
L 219.333543 253.399619 
L 220.12978 253.659808 
L 220.926018 253.480762 
L 221.722255 253.148497 
L 222.518493 253.0479 
L 223.31473 253.544149 
L 224.110968 254.859286 
L 224.907206 256.988028 
L 227.295918 265.053524 
L 228.092156 266.859982 
L 228.888393 267.743827 
L 229.684631 267.718674 
L 230.480868 266.981699 
L 232.073343 264.511307 
L 236.850768 256.665391 
L 238.443243 254.005438 
L 239.239481 253.015322 
L 241.628194 250.540974 
L 242.424431 249.12054 
L 243.220669 247.096856 
L 244.813144 241.640378 
L 245.609381 238.865079 
L 246.405619 236.640653 
L 247.201856 235.332588 
L 247.998094 235.12521 
L 248.794331 235.982633 
L 249.590569 237.681236 
L 251.183044 242.321281 
L 253.571756 249.319258 
L 255.960469 255.982673 
L 256.756707 257.818698 
L 257.552944 259.064342 
L 258.349182 259.487006 
L 259.145419 258.991304 
L 259.941657 257.67756 
L 262.330369 252.190569 
L 263.126607 251.082283 
L 263.922844 250.64035 
L 264.719082 250.755014 
L 266.311557 251.586745 
L 267.107794 251.760581 
L 267.904032 251.577054 
L 268.700269 251.059837 
L 271.088982 248.728726 
L 272.681457 247.133582 
L 273.477695 246.164356 
L 275.07017 243.65592 
L 276.662645 241.045721 
L 277.458882 240.144943 
L 278.25512 239.694858 
L 279.051357 239.718343 
L 279.847595 240.148409 
L 280.643832 240.867949 
L 282.236307 242.742797 
L 284.62502 245.794836 
L 285.421257 246.607173 
L 286.217495 247.086582 
L 287.013732 247.083585 
L 287.80997 246.533364 
L 288.606208 245.518163 
L 290.198683 243.192354 
L 290.99492 242.61921 
L 291.791158 242.827078 
L 292.587395 243.864837 
L 294.976108 249.067607 
L 295.772345 250.046703 
L 296.568583 250.153295 
L 297.36482 249.4297 
L 298.957295 246.626421 
L 299.753533 245.233005 
L 300.54977 244.129462 
L 303.73472 240.7959 
L 305.327196 238.591573 
L 306.123433 237.956228 
L 306.919671 238.065279 
L 307.715908 239.090199 
L 308.512146 240.974708 
L 310.900858 248.416703 
L 311.697096 250.210525 
L 312.493333 251.352411 
L 313.289571 251.962758 
L 314.882046 252.645586 
L 315.678283 253.200627 
L 316.474521 254.016623 
L 318.066996 255.954224 
L 318.863233 256.683177 
L 319.659471 257.037314 
L 320.455709 256.958364 
L 321.251946 256.466838 
L 322.048184 255.62412 
L 322.844421 254.492895 
L 324.436896 251.559443 
L 326.029371 248.310837 
L 326.825609 247.041509 
L 327.621846 246.377006 
L 328.418084 246.55552 
L 329.214321 247.673614 
L 330.010559 249.619762 
L 331.603034 254.553113 
L 332.399271 256.584871 
L 333.195509 257.804091 
L 333.991746 258.087065 
L 334.787984 257.58059 
L 336.380459 255.732834 
L 337.176697 255.225251 
L 337.972934 255.32168 
L 338.769172 255.98627 
L 340.361647 258.013717 
L 341.157884 258.78774 
L 341.954122 259.181469 
L 342.750359 259.238357 
L 344.342834 259.036886 
L 346.731547 259.216694 
L 347.527784 258.888337 
L 348.324022 258.024725 
L 349.120259 256.604709 
L 350.712734 253.026698 
L 351.508972 251.645045 
L 352.30521 250.996465 
L 353.101447 251.190026 
L 353.897685 252.075194 
L 355.49016 254.400327 
L 356.286397 255.039403 
L 357.082635 255.057249 
L 357.878872 254.558804 
L 358.67511 253.855534 
L 359.471347 253.337451 
L 360.267585 253.318818 
L 361.063822 253.917854 
L 361.86006 255.015818 
L 363.452535 257.425306 
L 364.248772 258.06927 
L 365.04501 258.117951 
L 365.841247 257.654066 
L 367.433722 256.201375 
L 368.22996 255.74897 
L 369.026198 255.675454 
L 369.822435 255.960439 
L 371.41491 257.158345 
L 373.007385 258.679133 
L 373.803623 259.604319 
L 375.396098 261.933178 
L 376.192335 263.157003 
L 376.988573 264.153047 
L 377.78481 264.706314 
L 378.581048 264.706798 
L 379.377285 264.223551 
L 380.173523 263.51449 
L 380.96976 262.95869 
L 381.765998 262.929648 
L 382.562235 263.653836 
L 383.358473 265.10876 
L 384.950948 268.85061 
L 385.747186 270.118822 
L 386.543423 270.397127 
L 387.339661 269.530752 
L 388.135898 267.671498 
L 389.728373 262.744563 
L 390.524611 260.718638 
L 391.320848 259.470028 
L 392.117086 259.050584 
L 392.913323 259.251362 
L 393.709561 259.687088 
L 394.505798 259.926034 
L 395.302036 259.621044 
L 396.098273 258.6029 
L 396.894511 256.91436 
L 399.283223 250.596494 
L 400.079461 249.217798 
L 400.875699 248.605246 
L 401.671936 248.788469 
L 402.468174 249.635841 
L 404.060649 252.156246 
L 404.856886 253.09032 
L 405.653124 253.359604 
L 406.449361 252.78136 
L 407.245599 251.370033 
L 409.634311 245.327811 
L 410.430549 244.353674 
L 411.226786 244.622988 
L 412.023024 246.273646 
L 412.819261 249.1626 
L 413.615499 252.897812 
L 413.615499 252.897812 
" clip-path="url(#p0aa30b0f76)" style="fill: none; stroke: #377eb8; stroke-width: 1.5; stroke-linecap: square"/>
   </g>
   <g id="line2d_15">
    <path d="M 87.158114 318.2 
L 87.158114 71.241125 
" clip-path="url(#p0aa30b0f76)" style="fill: none; stroke: #000000; stroke-width: 0.5; stroke-linecap: square"/>
   </g>
   <g id="line2d_16">
    <path d="M 46.55 231.492545 
L 413.615499 231.492545 
" clip-path="url(#p0aa30b0f76)" style="fill: none; stroke: #000000; stroke-width: 0.5; stroke-linecap: square"/>
   </g>
   <g id="patch_4">
    <path d="M 46.55 318.2 
L 46.55 71.241125 
" style="fill: none; stroke: #000000; stroke-width: 0.8; stroke-linejoin: miter; stroke-linecap: square"/>
   </g>
   <g id="patch_5">
    <path d="M 413.615499 318.2 
L 413.615499 71.241125 
" style="fill: none; stroke: #000000; stroke-width: 0.8; stroke-linejoin: miter; stroke-linecap: square"/>
   </g>
   <g id="patch_6">
    <path d="M 46.55 318.2 
L 413.615499 318.2 
" style="fill: none; stroke: #000000; stroke-width: 0.8; stroke-linejoin: miter; stroke-linecap: square"/>
   </g>
   <g id="patch_7">
    <path d="M 46.55 71.241125 
L 413.615499 71.241125 
" style="fill: none; stroke: #000000; stroke-width: 0.8; stroke-linejoin: miter; stroke-linecap: square"/>
   </g>
   <g id="text_15">
    <!-- Cz -->
    <g transform="translate(222.743999 65.241125)scale(0.12 -0.12)">
     <defs>
      <path id="DejaVuSans-43" d="M 4122 4306 
L 4122 3641 
Q 3803 3938 3442 4084 
Q 3081 4231 2675 4231 
Q 1875 4231 1450 3742 
Q 1025 3253 1025 2328 
Q 1025 1406 1450 917 
Q 1875 428 2675 428 
Q 3081 428 3442 575 
Q 3803 722 4122 1019 
L 4122 359 
Q 3791 134 3420 21 
Q 3050 -91 2638 -91 
Q 1578 -91 968 557 
Q 359 1206 359 2328 
Q 359 3453 968 4101 
Q 1578 4750 2638 4750 
Q 3056 4750 3426 4639 
Q 3797 4528 4122 4306 
z
" transform="scale(0.015625)"/>
      <path id="DejaVuSans-7a" d="M 353 3500 
L 3084 3500 
L 3084 2975 
L 922 459 
L 3084 459 
L 3084 0 
L 275 0 
L 275 525 
L 2438 3041 
L 353 3041 
L 353 3500 
z
" transform="scale(0.015625)"/>
     </defs>
     <use xlink:href="#DejaVuSans-43"/>
     <use xlink:href="#DejaVuSans-7a" x="69.824219"/>
    </g>
   </g>
   <g id="legend_1">
    <g id="patch_8">
     <path d="M 99.855406 48.044893 
L 360.310093 48.044893 
Q 362.310093 48.044893 362.310093 46.044893 
L 362.310093 17.410517 
Q 362.310093 15.410517 360.310093 15.410517 
L 99.855406 15.410517 
Q 97.855406 15.410517 97.855406 17.410517 
L 97.855406 46.044893 
Q 97.855406 48.044893 99.855406 48.044893 
z
" style="fill: #ffffff; opacity: 0.8; stroke: #cccccc; stroke-linejoin: miter"/>
    </g>
    <g id="text_16">
     <!-- Average of Session 23_tac4 -->
     <g transform="translate(161.068687 27.008955)scale(0.1 -0.1)">
      <defs>
       <path id="DejaVuSans-41" d="M 2188 4044 
L 1331 1722 
L 3047 1722 
L 2188 4044 
z
M 1831 4666 
L 2547 4666 
L 4325 0 
L 3669 0 
L 3244 1197 
L 1141 1197 
L 716 0 
L 50 0 
L 1831 4666 
z
" transform="scale(0.015625)"/>
       <path id="DejaVuSans-76" d="M 191 3500 
L 800 3500 
L 1894 563 
L 2988 3500 
L 3597 3500 
L 2284 0 
L 1503 0 
L 191 3500 
z
" transform="scale(0.015625)"/>
       <path id="DejaVuSans-72" d="M 2631 2963 
Q 2534 3019 2420 3045 
Q 2306 3072 2169 3072 
Q 1681 3072 1420 2755 
Q 1159 2438 1159 1844 
L 1159 0 
L 581 0 
L 581 3500 
L 1159 3500 
L 1159 2956 
Q 1341 3275 1631 3429 
Q 1922 3584 2338 3584 
Q 2397 3584 2469 3576 
Q 2541 3569 2628 3553 
L 2631 2963 
z
" transform="scale(0.015625)"/>
       <path id="DejaVuSans-61" d="M 2194 1759 
Q 1497 1759 1228 1600 
Q 959 1441 959 1056 
Q 959 750 1161 570 
Q 1363 391 1709 391 
Q 2188 391 2477 730 
Q 2766 1069 2766 1631 
L 2766 1759 
L 2194 1759 
z
M 3341 1997 
L 3341 0 
L 2766 0 
L 2766 531 
Q 2569 213 2275 61 
Q 1981 -91 1556 -91 
Q 1019 -91 701 211 
Q 384 513 384 1019 
Q 384 1609 779 1909 
Q 1175 2209 1959 2209 
L 2766 2209 
L 2766 2266 
Q 2766 2663 2505 2880 
Q 2244 3097 1772 3097 
Q 1472 3097 1187 3025 
Q 903 2953 641 2809 
L 641 3341 
Q 956 3463 1253 3523 
Q 1550 3584 1831 3584 
Q 2591 3584 2966 3190 
Q 3341 2797 3341 1997 
z
" transform="scale(0.015625)"/>
       <path id="DejaVuSans-67" d="M 2906 1791 
Q 2906 2416 2648 2759 
Q 2391 3103 1925 3103 
Q 1463 3103 1205 2759 
Q 947 2416 947 1791 
Q 947 1169 1205 825 
Q 1463 481 1925 481 
Q 2391 481 2648 825 
Q 2906 1169 2906 1791 
z
M 3481 434 
Q 3481 -459 3084 -895 
Q 2688 -1331 1869 -1331 
Q 1566 -1331 1297 -1286 
Q 1028 -1241 775 -1147 
L 775 -588 
Q 1028 -725 1275 -790 
Q 1522 -856 1778 -856 
Q 2344 -856 2625 -561 
Q 2906 -266 2906 331 
L 2906 616 
Q 2728 306 2450 153 
Q 2172 0 1784 0 
Q 1141 0 747 490 
Q 353 981 353 1791 
Q 353 2603 747 3093 
Q 1141 3584 1784 3584 
Q 2172 3584 2450 3431 
Q 2728 3278 2906 2969 
L 2906 3500 
L 3481 3500 
L 3481 434 
z
" transform="scale(0.015625)"/>
       <path id="DejaVuSans-20" transform="scale(0.015625)"/>
       <path id="DejaVuSans-66" d="M 2375 4863 
L 2375 4384 
L 1825 4384 
Q 1516 4384 1395 4259 
Q 1275 4134 1275 3809 
L 1275 3500 
L 2222 3500 
L 2222 3053 
L 1275 3053 
L 1275 0 
L 697 0 
L 697 3053 
L 147 3053 
L 147 3500 
L 697 3500 
L 697 3744 
Q 697 4328 969 4595 
Q 1241 4863 1831 4863 
L 2375 4863 
z
" transform="scale(0.015625)"/>
       <path id="DejaVuSans-53" d="M 3425 4513 
L 3425 3897 
Q 3066 4069 2747 4153 
Q 2428 4238 2131 4238 
Q 1616 4238 1336 4038 
Q 1056 3838 1056 3469 
Q 1056 3159 1242 3001 
Q 1428 2844 1947 2747 
L 2328 2669 
Q 3034 2534 3370 2195 
Q 3706 1856 3706 1288 
Q 3706 609 3251 259 
Q 2797 -91 1919 -91 
Q 1588 -91 1214 -16 
Q 841 59 441 206 
L 441 856 
Q 825 641 1194 531 
Q 1563 422 1919 422 
Q 2459 422 2753 634 
Q 3047 847 3047 1241 
Q 3047 1584 2836 1778 
Q 2625 1972 2144 2069 
L 1759 2144 
Q 1053 2284 737 2584 
Q 422 2884 422 3419 
Q 422 4038 858 4394 
Q 1294 4750 2059 4750 
Q 2388 4750 2728 4690 
Q 3069 4631 3425 4513 
z
" transform="scale(0.015625)"/>
       <path id="DejaVuSans-69" d="M 603 3500 
L 1178 3500 
L 1178 0 
L 603 0 
L 603 3500 
z
M 603 4863 
L 1178 4863 
L 1178 4134 
L 603 4134 
L 603 4863 
z
" transform="scale(0.015625)"/>
       <path id="DejaVuSans-5f" d="M 3263 -1063 
L 3263 -1509 
L -63 -1509 
L -63 -1063 
L 3263 -1063 
z
" transform="scale(0.015625)"/>
       <path id="DejaVuSans-74" d="M 1172 4494 
L 1172 3500 
L 2356 3500 
L 2356 3053 
L 1172 3053 
L 1172 1153 
Q 1172 725 1289 603 
Q 1406 481 1766 481 
L 2356 481 
L 2356 0 
L 1766 0 
Q 1100 0 847 248 
Q 594 497 594 1153 
L 594 3053 
L 172 3053 
L 172 3500 
L 594 3500 
L 594 4494 
L 1172 4494 
z
" transform="scale(0.015625)"/>
      </defs>
      <use xlink:href="#DejaVuSans-41"/>
      <use xlink:href="#DejaVuSans-76" x="62.533203"/>
      <use xlink:href="#DejaVuSans-65" x="121.712891"/>
      <use xlink:href="#DejaVuSans-72" x="183.236328"/>
      <use xlink:href="#DejaVuSans-61" x="224.349609"/>
      <use xlink:href="#DejaVuSans-67" x="285.628906"/>
      <use xlink:href="#DejaVuSans-65" x="349.105469"/>
      <use xlink:href="#DejaVuSans-20" x="410.628906"/>
      <use xlink:href="#DejaVuSans-6f" x="442.416016"/>
      <use xlink:href="#DejaVuSans-66" x="503.597656"/>
      <use xlink:href="#DejaVuSans-20" x="538.802734"/>
      <use xlink:href="#DejaVuSans-53" x="570.589844"/>
      <use xlink:href="#DejaVuSans-65" x="634.066406"/>
      <use xlink:href="#DejaVuSans-73" x="695.589844"/>
      <use xlink:href="#DejaVuSans-73" x="747.689453"/>
      <use xlink:href="#DejaVuSans-69" x="799.789062"/>
      <use xlink:href="#DejaVuSans-6f" x="827.572266"/>
      <use xlink:href="#DejaVuSans-6e" x="888.753906"/>
      <use xlink:href="#DejaVuSans-20" x="952.132812"/>
      <use xlink:href="#DejaVuSans-32" x="983.919922"/>
      <use xlink:href="#DejaVuSans-33" x="1047.542969"/>
      <use xlink:href="#DejaVuSans-5f" x="1111.166016"/>
      <use xlink:href="#DejaVuSans-74" x="1161.166016"/>
      <use xlink:href="#DejaVuSans-61" x="1200.375"/>
      <use xlink:href="#DejaVuSans-63" x="1261.654297"/>
      <use xlink:href="#DejaVuSans-34" x="1316.634766"/>
     </g>
    </g>
    <g id="line2d_17">
     <path d="M 101.855406 38.465205 
L 111.855406 38.465205 
L 121.855406 38.465205 
" style="fill: none; stroke: #e41a1c; stroke-width: 1.5; stroke-linecap: square"/>
    </g>
    <g id="text_17">
     <!-- Target (n=408) -->
     <g transform="translate(129.855406 41.965205)scale(0.1 -0.1)">
      <defs>
       <path id="DejaVuSans-54" d="M -19 4666 
L 3928 4666 
L 3928 4134 
L 2272 4134 
L 2272 0 
L 1638 0 
L 1638 4134 
L -19 4134 
L -19 4666 
z
" transform="scale(0.015625)"/>
       <path id="DejaVuSans-28" d="M 1984 4856 
Q 1566 4138 1362 3434 
Q 1159 2731 1159 2009 
Q 1159 1288 1364 580 
Q 1569 -128 1984 -844 
L 1484 -844 
Q 1016 -109 783 600 
Q 550 1309 550 2009 
Q 550 2706 781 3412 
Q 1013 4119 1484 4856 
L 1984 4856 
z
" transform="scale(0.015625)"/>
       <path id="DejaVuSans-3d" d="M 678 2906 
L 4684 2906 
L 4684 2381 
L 678 2381 
L 678 2906 
z
M 678 1631 
L 4684 1631 
L 4684 1100 
L 678 1100 
L 678 1631 
z
" transform="scale(0.015625)"/>
       <path id="DejaVuSans-29" d="M 513 4856 
L 1013 4856 
Q 1481 4119 1714 3412 
Q 1947 2706 1947 2009 
Q 1947 1309 1714 600 
Q 1481 -109 1013 -844 
L 513 -844 
Q 928 -128 1133 580 
Q 1338 1288 1338 2009 
Q 1338 2731 1133 3434 
Q 928 4138 513 4856 
z
" transform="scale(0.015625)"/>
      </defs>
      <use xlink:href="#DejaVuSans-54"/>
      <use xlink:href="#DejaVuSans-61" x="44.583984"/>
      <use xlink:href="#DejaVuSans-72" x="105.863281"/>
      <use xlink:href="#DejaVuSans-67" x="145.226562"/>
      <use xlink:href="#DejaVuSans-65" x="208.703125"/>
      <use xlink:href="#DejaVuSans-74" x="270.226562"/>
      <use xlink:href="#DejaVuSans-20" x="309.435547"/>
      <use xlink:href="#DejaVuSans-28" x="341.222656"/>
      <use xlink:href="#DejaVuSans-6e" x="380.236328"/>
      <use xlink:href="#DejaVuSans-3d" x="443.615234"/>
      <use xlink:href="#DejaVuSans-34" x="527.404297"/>
      <use xlink:href="#DejaVuSans-30" x="591.027344"/>
      <use xlink:href="#DejaVuSans-38" x="654.650391"/>
      <use xlink:href="#DejaVuSans-29" x="718.273438"/>
     </g>
    </g>
    <g id="line2d_18">
     <path d="M 225.585093 38.465205 
L 235.585093 38.465205 
L 245.585093 38.465205 
" style="fill: none; stroke: #377eb8; stroke-width: 1.5; stroke-linecap: square"/>
    </g>
    <g id="text_18">
     <!-- Non-Target (n=1212) -->
     <g transform="translate(253.585093 41.965205)scale(0.1 -0.1)">
      <defs>
       <path id="DejaVuSans-4e" d="M 628 4666 
L 1478 4666 
L 3547 763 
L 3547 4666 
L 4159 4666 
L 4159 0 
L 3309 0 
L 1241 3903 
L 1241 0 
L 628 0 
L 628 4666 
z
" transform="scale(0.015625)"/>
       <path id="DejaVuSans-2d" d="M 313 2009 
L 1997 2009 
L 1997 1497 
L 313 1497 
L 313 2009 
z
" transform="scale(0.015625)"/>
      </defs>
      <use xlink:href="#DejaVuSans-4e"/>
      <use xlink:href="#DejaVuSans-6f" x="74.804688"/>
      <use xlink:href="#DejaVuSans-6e" x="135.986328"/>
      <use xlink:href="#DejaVuSans-2d" x="199.365234"/>
      <use xlink:href="#DejaVuSans-54" x="226.324219"/>
      <use xlink:href="#DejaVuSans-61" x="270.908203"/>
      <use xlink:href="#DejaVuSans-72" x="332.1875"/>
      <use xlink:href="#DejaVuSans-67" x="371.550781"/>
      <use xlink:href="#DejaVuSans-65" x="435.027344"/>
      <use xlink:href="#DejaVuSans-74" x="496.550781"/>
      <use xlink:href="#DejaVuSans-20" x="535.759766"/>
      <use xlink:href="#DejaVuSans-28" x="567.546875"/>
      <use xlink:href="#DejaVuSans-6e" x="606.560547"/>
      <use xlink:href="#DejaVuSans-3d" x="669.939453"/>
      <use xlink:href="#DejaVuSans-31" x="753.728516"/>
      <use xlink:href="#DejaVuSans-32" x="817.351562"/>
      <use xlink:href="#DejaVuSans-31" x="880.974609"/>
      <use xlink:href="#DejaVuSans-32" x="944.597656"/>
      <use xlink:href="#DejaVuSans-29" x="1008.220703"/>
     </g>
    </g>
   </g>
  </g>
 </g>
 <defs>
  <clipPath id="p0aa30b0f76">
   <rect x="46.55" y="71.241125" width="367.065499" height="246.958875"/>
  </clipPath>
 </defs>
</svg>
