<?xml version="1.0" encoding="utf-8" standalone="no"?>
<!DOCTYPE svg PUBLIC "-//W3C//DTD SVG 1.1//EN"
  "http://www.w3.org/Graphics/SVG/1.1/DTD/svg11.dtd">
<svg xmlns:xlink="http://www.w3.org/1999/xlink" width="432pt" height="360pt" viewBox="0 0 432 360" xmlns="http://www.w3.org/2000/svg" version="1.1">
 <metadata>
  <rdf:RDF xmlns:dc="http://purl.org/dc/elements/1.1/" xmlns:cc="http://creativecommons.org/ns#" xmlns:rdf="http://www.w3.org/1999/02/22-rdf-syntax-ns#">
   <cc:Work>
    <dc:type rdf:resource="http://purl.org/dc/dcmitype/StillImage"/>
    <dc:date>2022-11-02T16:57:21.647105</dc:date>
    <dc:format>image/svg+xml</dc:format>
    <dc:creator>
     <cc:Agent>
      <dc:title>Matplotlib v3.5.1, https://matplotlib.org/</dc:title>
     </cc:Agent>
    </dc:creator>
   </cc:Work>
  </rdf:RDF>
 </metadata>
 <defs>
  <style type="text/css">*{stroke-linejoin: round; stroke-linecap: butt}</style>
 </defs>
 <g id="figure_1">
  <g id="patch_1">
   <path d="M 0 360 
L 432 360 
L 432 0 
L 0 0 
L 0 360 
z
" style="fill: none"/>
  </g>
  <g id="axes_1">
   <g id="patch_2">
    <path d="M 46.55 318.2 
L 413.615499 318.2 
L 413.615499 71.241125 
L 46.55 71.241125 
L 46.55 318.2 
z
" style="fill: none"/>
   </g>
   <g id="PolyCollection_1">
    <defs>
     <path id="m0115439546" d="M 46.55 -144.683446 
L 46.55 -102.101114 
L 47.346238 -101.586899 
L 48.142475 -102.080917 
L 48.938713 -103.155851 
L 49.73495 -104.272976 
L 50.531188 -105.019338 
L 51.327425 -105.110347 
L 52.123663 -104.437867 
L 52.9199 -103.243836 
L 53.716138 -102.174232 
L 54.512375 -101.992241 
L 55.308613 -103.113907 
L 56.10485 -105.35209 
L 56.901088 -108.03845 
L 57.697325 -110.360443 
L 58.493563 -111.650299 
L 59.2898 -111.543403 
L 60.086038 -110.062048 
L 60.882275 -107.618182 
L 61.678513 -104.881214 
L 62.47475 -102.543236 
L 63.270988 -101.109311 
L 64.067226 -100.787573 
L 64.863463 -101.443207 
L 65.659701 -102.622584 
L 66.455938 -103.73044 
L 67.252176 -104.343748 
L 68.048413 -104.457294 
L 68.844651 -104.430418 
L 69.640888 -104.67469 
L 70.437126 -105.384699 
L 71.233363 -106.522301 
L 72.029601 -107.923603 
L 72.825838 -109.279003 
L 73.622076 -110.042314 
L 74.418313 -109.547708 
L 75.214551 -107.461528 
L 76.010788 -104.224527 
L 76.807026 -100.85089 
L 77.603263 -98.201762 
L 78.399501 -96.47597 
L 79.195739 -95.298955 
L 79.991976 -94.231421 
L 80.788214 -93.106851 
L 81.584451 -91.930685 
L 82.380689 -90.703356 
L 83.176926 -89.439713 
L 83.973164 -88.347559 
L 84.769401 -87.960813 
L 85.565639 -88.943353 
L 86.361876 -91.611627 
L 87.158114 -95.600564 
L 87.954351 -99.907777 
L 88.750589 -103.238225 
L 89.546826 -104.486432 
L 90.343064 -103.177497 
L 91.139301 -99.659293 
L 91.935539 -94.926931 
L 92.731776 -90.188584 
L 93.528014 -86.431639 
L 94.324251 -84.187863 
L 95.120489 -83.516416 
L 95.916727 -84.08202 
L 96.712964 -85.251993 
L 97.509202 -86.266304 
L 98.305439 -86.51537 
L 99.101677 -85.820749 
L 99.897914 -84.518117 
L 100.694152 -83.247594 
L 101.490389 -82.586757 
L 102.286627 -82.767916 
L 103.082864 -83.624119 
L 103.879102 -84.740192 
L 104.675339 -85.671824 
L 105.471577 -86.103616 
L 106.267814 -85.908277 
L 107.064052 -85.13349 
L 107.860289 -83.955739 
L 108.656527 -82.635092 
L 109.452764 -81.470322 
L 110.249002 -80.708749 
L 111.04524 -80.41045 
L 111.841477 -80.369849 
L 112.637715 -80.203103 
L 113.433952 -79.581814 
L 114.23019 -78.458278 
L 115.026427 -77.107828 
L 115.822665 -75.952819 
L 116.618902 -75.30194 
L 117.41514 -75.187269 
L 118.211377 -75.407908 
L 119.007615 -75.725126 
L 119.803852 -76.005313 
L 120.60009 -76.194921 
L 121.396327 -76.23462 
L 122.192565 -76.051383 
L 122.988802 -75.646487 
L 123.78504 -75.192547 
L 124.581277 -75.003939 
L 125.377515 -75.330954 
L 126.173752 -76.131022 
L 126.96999 -77.057534 
L 127.766228 -77.717215 
L 128.562465 -77.943928 
L 129.358703 -77.824892 
L 130.15494 -77.553033 
L 130.951178 -77.341728 
L 131.747415 -77.446927 
L 132.543653 -78.139239 
L 133.33989 -79.519925 
L 134.136128 -81.324977 
L 134.932365 -82.976359 
L 135.728603 -83.923611 
L 136.52484 -83.974131 
L 137.321078 -83.306125 
L 138.117315 -82.260182 
L 138.913553 -81.198964 
L 139.70979 -80.507579 
L 140.506028 -80.556274 
L 141.302265 -81.49213 
L 142.098503 -83.02524 
L 142.89474 -84.476102 
L 143.690978 -85.086743 
L 144.487216 -84.338319 
L 145.283453 -82.092537 
L 146.079691 -78.625496 
L 146.875928 -74.657815 
L 147.672166 -71.274396 
L 148.468403 -69.567891 
L 149.264641 -70.137056 
L 150.060878 -72.817279 
L 150.857116 -76.826119 
L 151.653353 -81.137628 
L 152.449591 -84.775179 
L 153.245828 -86.958704 
L 154.042066 -87.265413 
L 154.838303 -85.862492 
L 155.634541 -83.603523 
L 156.430778 -81.728496 
L 157.227016 -81.277036 
L 158.023253 -82.648979 
L 158.819491 -85.554886 
L 159.615729 -89.22127 
L 160.411966 -92.626833 
L 161.208204 -94.745622 
L 162.004441 -94.892268 
L 162.800679 -93.12318 
L 163.596916 -90.411911 
L 164.393154 -88.328189 
L 165.189391 -88.345044 
L 165.985629 -91.207569 
L 166.781866 -96.687343 
L 167.578104 -103.76126 
L 168.374341 -111.03047 
L 169.170579 -117.151213 
L 169.966816 -121.171459 
L 170.763054 -122.752852 
L 171.559291 -122.23789 
L 172.355529 -120.517161 
L 173.151766 -118.704878 
L 173.948004 -117.715234 
L 174.744241 -117.916696 
L 175.540479 -119.040776 
L 176.336717 -120.384391 
L 177.132954 -121.159637 
L 177.929192 -120.811559 
L 178.725429 -119.23262 
L 179.521667 -116.882933 
L 180.317904 -114.777505 
L 181.114142 -114.202555 
L 181.910379 -116.132989 
L 182.706617 -120.664023 
L 183.502854 -126.891572 
L 184.299092 -133.370409 
L 185.095329 -138.806021 
L 185.891567 -142.472996 
L 186.687804 -144.246327 
L 187.484042 -144.506959 
L 188.280279 -144.077389 
L 189.076517 -144.051361 
L 189.872754 -145.344715 
L 190.668992 -148.14837 
L 191.46523 -151.728743 
L 192.261467 -154.796786 
L 193.057705 -156.187242 
L 193.853942 -155.322619 
L 194.65018 -152.239647 
L 195.446417 -147.440385 
L 196.242655 -141.836116 
L 197.038892 -136.698021 
L 197.83513 -133.350181 
L 198.631367 -132.646448 
L 199.427605 -134.617805 
L 200.223842 -138.542217 
L 201.02008 -143.3256 
L 201.816317 -147.901933 
L 202.612555 -151.469283 
L 203.408792 -153.606205 
L 204.20503 -154.351079 
L 205.001267 -154.192213 
L 205.797505 -153.890776 
L 206.593742 -154.197908 
L 207.38998 -155.63146 
L 208.186218 -158.397448 
L 208.982455 -162.401644 
L 209.778693 -167.261194 
L 210.57493 -172.326038 
L 211.371168 -176.786364 
L 212.167405 -179.875726 
L 212.963643 -181.097632 
L 213.75988 -180.397543 
L 214.556118 -178.22059 
L 215.352355 -175.397577 
L 216.148593 -172.855557 
L 216.94483 -171.285168 
L 217.741068 -170.97194 
L 218.537305 -171.856755 
L 219.333543 -173.654517 
L 220.12978 -175.873579 
L 220.926018 -177.822966 
L 221.722255 -178.773157 
L 222.518493 -178.257925 
L 223.31473 -176.291161 
L 224.110968 -173.283906 
L 224.907206 -169.746488 
L 225.703443 -166.083567 
L 226.499681 -162.637638 
L 227.295918 -159.816463 
L 228.092156 -158.042979 
L 228.888393 -157.530868 
L 229.684631 -158.136108 
L 230.480868 -159.438694 
L 231.277106 -160.939917 
L 232.073343 -162.162534 
L 232.869581 -162.63555 
L 233.665818 -161.937122 
L 234.462056 -159.885443 
L 235.258293 -156.745889 
L 236.054531 -153.221649 
L 236.850768 -150.153248 
L 237.647006 -148.137006 
L 238.443243 -147.358714 
L 239.239481 -147.691284 
L 240.035719 -148.835842 
L 240.831956 -150.357746 
L 241.628194 -151.740034 
L 242.424431 -152.5826 
L 243.220669 -152.863632 
L 244.016906 -153.023942 
L 244.813144 -153.707041 
L 245.609381 -155.283197 
L 246.405619 -157.529247 
L 247.201856 -159.731115 
L 247.998094 -161.098603 
L 248.794331 -161.114892 
L 249.590569 -159.643101 
L 250.386806 -156.93669 
L 251.183044 -153.64747 
L 251.979281 -150.715314 
L 252.775519 -149.036252 
L 253.571756 -149.047714 
L 254.367994 -150.539712 
L 255.164231 -152.841111 
L 255.960469 -155.180716 
L 256.756707 -156.932048 
L 257.552944 -157.719191 
L 258.349182 -157.552598 
L 259.145419 -156.984276 
L 259.941657 -157.019924 
L 260.737894 -158.615089 
L 261.534132 -162.040879 
L 262.330369 -166.652207 
L 263.126607 -171.310993 
L 263.922844 -175.11268 
L 264.719082 -177.740571 
L 265.515319 -179.311454 
L 266.311557 -180.156187 
L 267.107794 -180.770754 
L 267.904032 -181.772788 
L 268.700269 -183.649385 
L 269.496507 -186.397966 
L 270.292744 -189.420267 
L 271.088982 -191.82254 
L 271.88522 -192.859387 
L 272.681457 -192.184751 
L 273.477695 -189.882393 
L 274.273932 -186.44854 
L 275.07017 -182.773571 
L 275.866407 -179.974631 
L 276.662645 -178.998382 
L 277.458882 -180.22552 
L 278.25512 -183.39606 
L 279.051357 -187.854608 
L 279.847595 -192.82217 
L 280.643832 -197.518382 
L 281.44007 -201.244442 
L 282.236307 -203.554241 
L 283.032545 -204.417551 
L 283.828782 -204.154991 
L 284.62502 -203.141183 
L 285.421257 -201.571089 
L 286.217495 -199.545585 
L 287.013732 -197.354689 
L 287.80997 -195.561312 
L 288.606208 -194.745854 
L 289.402445 -195.198411 
L 290.198683 -196.826108 
L 290.99492 -199.260998 
L 291.791158 -202.005267 
L 292.587395 -204.521667 
L 293.383633 -206.317341 
L 294.17987 -207.065661 
L 294.976108 -206.695026 
L 295.772345 -205.362348 
L 296.568583 -203.356239 
L 297.36482 -201.039812 
L 298.161058 -198.830072 
L 298.957295 -197.098435 
L 299.753533 -195.979211 
L 300.54977 -195.24453 
L 301.346008 -194.384441 
L 302.142245 -192.867468 
L 302.938483 -190.413416 
L 303.73472 -187.106219 
L 304.530958 -183.309468 
L 305.327196 -179.4975 
L 306.123433 -176.124041 
L 306.919671 -173.564856 
L 307.715908 -172.106259 
L 308.512146 -171.930537 
L 309.308383 -173.060332 
L 310.104621 -175.277174 
L 310.900858 -178.101865 
L 311.697096 -180.926468 
L 312.493333 -183.254243 
L 313.289571 -184.862113 
L 314.085808 -185.7792 
L 314.882046 -186.175784 
L 315.678283 -186.294728 
L 316.474521 -186.440184 
L 317.270758 -186.950217 
L 318.066996 -188.086673 
L 318.863233 -189.872939 
L 319.659471 -192.003164 
L 320.455709 -193.911377 
L 321.251946 -194.966524 
L 322.048184 -194.697312 
L 322.844421 -192.969285 
L 323.640659 -190.060965 
L 324.436896 -186.596331 
L 325.233134 -183.325755 
L 326.029371 -180.819073 
L 326.825609 -179.203349 
L 327.621846 -178.082208 
L 328.418084 -176.694639 
L 329.214321 -174.266131 
L 330.010559 -170.413844 
L 330.806796 -165.421374 
L 331.603034 -160.230729 
L 332.399271 -156.12641 
L 333.195509 -154.245138 
L 333.991746 -155.124759 
L 334.787984 -158.457514 
L 335.584221 -163.108387 
L 336.380459 -167.404434 
L 337.176697 -169.668497 
L 337.972934 -168.863599 
L 338.769172 -165.06698 
L 339.565409 -159.49112 
L 340.361647 -154.003209 
L 341.157884 -150.383244 
L 341.954122 -149.662284 
L 342.750359 -151.788007 
L 343.546597 -155.69908 
L 344.342834 -159.742925 
L 345.139072 -162.26994 
L 345.935309 -162.184119 
L 346.731547 -159.258616 
L 347.527784 -154.132528 
L 348.324022 -148.049533 
L 349.120259 -142.450526 
L 349.916497 -138.501766 
L 350.712734 -136.664457 
L 351.508972 -136.507564 
L 352.30521 -136.933736 
L 353.101447 -136.761629 
L 353.897685 -135.355896 
L 354.693922 -132.925419 
L 355.49016 -130.326381 
L 356.286397 -128.537871 
L 357.082635 -128.136853 
L 357.878872 -129.038864 
L 358.67511 -130.596065 
L 359.471347 -131.935658 
L 360.267585 -132.319062 
L 361.063822 -131.398088 
L 361.86006 -129.363141 
L 362.656297 -126.960617 
L 363.452535 -125.303828 
L 364.248772 -125.455051 
L 365.04501 -127.920737 
L 365.841247 -132.329029 
L 366.637485 -137.515872 
L 367.433722 -141.995153 
L 368.22996 -144.546575 
L 369.026198 -144.620423 
L 369.822435 -142.445603 
L 370.618673 -138.892947 
L 371.41491 -135.175604 
L 372.211148 -132.460693 
L 373.007385 -131.488172 
L 373.803623 -132.31827 
L 374.59986 -134.309168 
L 375.396098 -136.346692 
L 376.192335 -137.252337 
L 376.988573 -136.235245 
L 377.78481 -133.229584 
L 378.581048 -128.965811 
L 379.377285 -124.700175 
L 380.173523 -121.69264 
L 380.96976 -120.682978 
L 381.765998 -121.623784 
L 382.562235 -123.764586 
L 383.358473 -125.982179 
L 384.15471 -127.18645 
L 384.950948 -126.692808 
L 385.747186 -124.491304 
L 386.543423 -121.305309 
L 387.339661 -118.352204 
L 388.135898 -116.863806 
L 388.932136 -117.589337 
L 389.728373 -120.520529 
L 390.524611 -124.931523 
L 391.320848 -129.661408 
L 392.117086 -133.511168 
L 392.913323 -135.648799 
L 393.709561 -135.911172 
L 394.505798 -134.861003 
L 395.302036 -133.521836 
L 396.098273 -132.902418 
L 396.894511 -133.572233 
L 397.690748 -135.493255 
L 398.486986 -138.110911 
L 399.283223 -140.579903 
L 400.079461 -142.041513 
L 400.875699 -141.933706 
L 401.671936 -140.265719 
L 402.468174 -137.688575 
L 403.264411 -135.228241 
L 404.060649 -133.791366 
L 404.856886 -133.765972 
L 405.653124 -134.954015 
L 406.449361 -136.786348 
L 407.245599 -138.606008 
L 408.041836 -139.88799 
L 408.838074 -140.388783 
L 409.634311 -140.211734 
L 410.430549 -139.728285 
L 411.226786 -139.345 
L 412.023024 -139.247098 
L 412.819261 -139.295008 
L 413.615499 -139.10891 
L 413.615499 -228.41055 
L 413.615499 -228.41055 
L 412.819261 -227.048482 
L 412.023024 -225.915361 
L 411.226786 -225.808753 
L 410.430549 -226.865315 
L 409.634311 -228.584076 
L 408.838074 -230.10042 
L 408.041836 -230.571877 
L 407.245599 -229.568131 
L 406.449361 -227.315511 
L 405.653124 -224.640634 
L 404.856886 -222.592169 
L 404.060649 -221.947161 
L 403.264411 -222.897056 
L 402.468174 -225.040983 
L 401.671936 -227.579787 
L 400.875699 -229.56711 
L 400.079461 -230.193162 
L 399.283223 -229.102962 
L 398.486986 -226.612121 
L 397.690748 -223.62003 
L 396.894511 -221.193311 
L 396.098273 -220.044577 
L 395.302036 -220.215252 
L 394.505798 -221.107235 
L 393.709561 -221.773212 
L 392.913323 -221.29205 
L 392.117086 -219.116363 
L 391.320848 -215.322232 
L 390.524611 -210.659228 
L 389.728373 -206.312226 
L 388.932136 -203.43434 
L 388.135898 -202.675326 
L 387.339661 -203.940168 
L 386.543423 -206.457504 
L 385.747186 -209.079854 
L 384.950948 -210.691146 
L 384.15471 -210.613998 
L 383.358473 -208.89721 
L 382.562235 -206.338551 
L 381.765998 -204.169239 
L 380.96976 -203.51887 
L 380.173523 -204.93457 
L 379.377285 -208.185954 
L 378.581048 -212.387522 
L 377.78481 -216.323795 
L 376.988573 -218.8498 
L 376.192335 -219.275968 
L 375.396098 -217.64358 
L 374.59986 -214.770385 
L 373.803623 -211.991275 
L 373.007385 -210.658722 
L 372.211148 -211.600349 
L 371.41491 -214.759508 
L 370.618673 -219.170119 
L 369.822435 -223.293578 
L 369.026198 -225.606332 
L 368.22996 -225.202956 
L 367.433722 -222.140755 
L 366.637485 -217.35994 
L 365.841247 -212.244483 
L 365.04501 -208.087756 
L 364.248772 -205.707639 
L 363.452535 -205.276054 
L 362.656297 -206.327852 
L 361.86006 -207.944685 
L 361.063822 -209.112786 
L 360.267585 -209.176784 
L 359.471347 -208.178591 
L 358.67511 -206.854037 
L 357.878872 -206.235314 
L 357.082635 -207.079523 
L 356.286397 -209.479908 
L 355.49016 -212.861797 
L 354.693922 -216.296688 
L 353.897685 -218.929548 
L 353.101447 -220.314754 
L 352.30521 -220.545946 
L 351.508972 -220.203075 
L 350.712734 -220.192241 
L 349.916497 -221.480752 
L 349.120259 -224.712682 
L 348.324022 -229.811866 
L 347.527784 -235.808463 
L 346.731547 -241.09703 
L 345.935309 -244.08418 
L 345.139072 -243.898981 
L 344.342834 -240.798438 
L 343.546597 -236.09394 
L 342.750359 -231.651553 
L 341.954122 -229.182495 
L 341.157884 -229.60199 
L 340.361647 -232.712391 
L 339.565409 -237.329104 
L 338.769172 -241.768817 
L 337.972934 -244.47017 
L 337.176697 -244.508295 
L 336.380459 -241.874625 
L 335.584221 -237.487568 
L 334.787984 -232.911213 
L 333.991746 -229.806855 
L 333.195509 -229.299996 
L 332.399271 -231.563124 
L 331.603034 -235.827414 
L 330.806796 -240.786675 
L 330.010559 -245.16238 
L 329.214321 -248.179413 
L 328.418084 -249.795878 
L 327.621846 -250.638767 
L 326.825609 -251.68836 
L 326.029371 -253.834996 
L 325.233134 -257.482463 
L 324.436896 -262.352908 
L 323.640659 -267.561881 
L 322.844421 -271.934168 
L 322.048184 -274.443846 
L 321.251946 -274.608232 
L 320.455709 -272.66919 
L 319.659471 -269.480704 
L 318.863233 -266.160698 
L 318.066996 -263.675446 
L 317.270758 -262.528379 
L 316.474521 -262.633092 
L 315.678283 -263.376573 
L 314.882046 -263.863982 
L 314.085808 -263.29013 
L 313.289571 -261.289009 
L 312.493333 -258.082345 
L 311.697096 -254.338264 
L 310.900858 -250.825636 
L 310.104621 -248.103073 
L 309.308383 -246.441071 
L 308.512146 -245.926034 
L 307.715908 -246.5592 
L 306.919671 -248.267595 
L 306.123433 -250.874054 
L 305.327196 -254.092904 
L 304.530958 -257.572933 
L 303.73472 -260.972058 
L 302.938483 -264.029046 
L 302.142245 -266.589807 
L 301.346008 -268.576684 
L 300.54977 -269.958513 
L 299.753533 -270.789197 
L 298.957295 -271.283126 
L 298.161058 -271.807653 
L 297.36482 -272.72265 
L 296.568583 -274.134765 
L 295.772345 -275.763384 
L 294.976108 -277.06633 
L 294.17987 -277.533472 
L 293.383633 -276.917722 
L 292.587395 -275.295489 
L 291.791158 -273.011815 
L 290.99492 -270.572683 
L 290.198683 -268.482192 
L 289.402445 -267.059671 
L 288.606208 -266.368126 
L 287.80997 -266.335332 
L 287.013732 -266.947747 
L 286.217495 -268.284758 
L 285.421257 -270.307819 
L 284.62502 -272.639576 
L 283.828782 -274.640392 
L 283.032545 -275.703672 
L 282.236307 -275.437637 
L 281.44007 -273.630978 
L 280.643832 -270.20833 
L 279.847595 -265.365303 
L 279.051357 -259.761047 
L 278.25512 -254.47821 
L 277.458882 -250.663713 
L 276.662645 -249.09462 
L 275.866407 -249.965692 
L 275.07017 -252.910722 
L 274.273932 -257.078336 
L 273.477695 -261.244818 
L 272.681457 -264.127722 
L 271.88522 -264.88687 
L 271.088982 -263.488447 
L 270.292744 -260.637478 
L 269.496507 -257.341659 
L 268.700269 -254.457358 
L 267.904032 -252.46167 
L 267.107794 -251.374894 
L 266.311557 -250.717119 
L 265.515319 -249.621051 
L 264.719082 -247.263234 
L 263.922844 -243.432368 
L 263.126607 -238.766669 
L 262.330369 -234.373052 
L 261.534132 -231.125563 
L 260.737894 -229.311762 
L 259.941657 -228.786254 
L 259.145419 -229.192452 
L 258.349182 -229.989648 
L 257.552944 -230.43676 
L 256.756707 -229.814817 
L 255.960469 -227.874279 
L 255.164231 -225.110697 
L 254.367994 -222.552894 
L 253.571756 -221.199679 
L 252.775519 -221.534975 
L 251.979281 -223.402464 
L 251.183044 -226.142903 
L 250.386806 -228.811619 
L 249.590569 -230.454822 
L 248.794331 -230.470465 
L 247.998094 -228.917109 
L 247.201856 -226.511545 
L 246.405619 -224.220137 
L 245.609381 -222.722876 
L 244.813144 -222.168135 
L 244.016906 -222.284513 
L 243.220669 -222.587972 
L 242.424431 -222.515663 
L 241.628194 -221.550543 
L 240.831956 -219.4476 
L 240.035719 -216.490069 
L 239.239481 -213.536327 
L 238.443243 -211.710865 
L 237.647006 -211.861016 
L 236.850768 -214.141119 
L 236.054531 -218.017538 
L 235.258293 -222.591659 
L 234.462056 -226.918028 
L 233.665818 -230.185166 
L 232.869581 -231.847851 
L 232.073343 -231.787719 
L 231.277106 -230.404705 
L 230.480868 -228.489003 
L 229.684631 -226.880137 
L 228.888393 -226.135705 
L 228.092156 -226.457905 
L 227.295918 -227.860229 
L 226.499681 -230.309457 
L 225.703443 -233.665073 
L 224.907206 -237.533024 
L 224.110968 -241.28775 
L 223.31473 -244.300251 
L 222.518493 -246.145121 
L 221.722255 -246.616195 
L 220.926018 -245.651068 
L 220.12978 -243.378209 
L 219.333543 -240.285327 
L 218.537305 -237.261353 
L 217.741068 -235.334271 
L 216.94483 -235.214091 
L 216.148593 -236.962976 
L 215.352355 -240.011083 
L 214.556118 -243.415494 
L 213.75988 -246.142417 
L 212.963643 -247.296584 
L 212.167405 -246.325105 
L 211.371168 -243.175254 
L 210.57493 -238.327512 
L 209.778693 -232.667938 
L 208.982455 -227.24463 
L 208.186218 -222.977413 
L 207.38998 -220.385644 
L 206.593742 -219.430724 
L 205.797505 -219.571244 
L 205.001267 -220.007322 
L 204.20503 -219.958383 
L 203.408792 -218.841206 
L 202.612555 -216.355085 
L 201.816317 -212.554677 
L 201.02008 -207.911632 
L 200.223842 -203.245112 
L 199.427605 -199.473639 
L 198.631367 -197.335024 
L 197.83513 -197.244743 
L 197.038892 -199.273115 
L 196.242655 -203.096633 
L 195.446417 -207.893693 
L 194.65018 -212.395616 
L 193.853942 -215.318882 
L 193.057705 -215.981058 
L 192.261467 -214.596657 
L 191.46523 -212.020712 
L 190.668992 -209.224015 
L 189.872754 -206.94768 
L 189.076517 -205.608425 
L 188.280279 -205.225103 
L 187.484042 -205.289748 
L 186.687804 -204.792901 
L 185.891567 -202.639351 
L 185.095329 -198.303285 
L 184.299092 -192.221754 
L 183.502854 -185.598555 
L 182.706617 -179.800313 
L 181.910379 -175.843795 
L 181.114142 -174.217079 
L 180.317904 -174.863088 
L 179.521667 -177.164587 
L 178.725429 -180.016584 
L 177.929192 -182.16728 
L 177.132954 -182.776671 
L 176.336717 -181.836732 
L 175.540479 -180.149218 
L 174.744241 -178.884111 
L 173.948004 -178.994843 
L 173.151766 -180.782993 
L 172.355529 -183.746363 
L 171.559291 -186.710829 
L 170.763054 -188.20625 
L 169.966816 -187.001075 
L 169.170579 -182.611344 
L 168.374341 -175.561651 
L 167.578104 -167.253469 
L 166.781866 -159.461108 
L 165.985629 -153.67297 
L 165.189391 -150.609105 
L 164.393154 -150.125553 
L 163.596916 -151.444773 
L 162.800679 -153.492044 
L 162.004441 -155.158824 
L 161.208204 -155.501809 
L 160.411966 -154.010833 
L 159.615729 -150.884448 
L 158.819491 -147.030118 
L 158.023253 -143.665986 
L 157.227016 -141.746854 
L 156.430778 -141.592116 
L 155.634541 -142.892035 
L 154.838303 -144.923596 
L 154.042066 -146.736999 
L 153.245828 -147.333514 
L 152.449591 -146.007716 
L 151.653353 -142.752216 
L 150.857116 -138.364338 
L 150.060878 -134.096365 
L 149.264641 -131.085602 
L 148.468403 -129.965987 
L 147.672166 -130.820251 
L 146.875928 -133.29214 
L 146.079691 -136.667225 
L 145.283453 -139.979887 
L 144.487216 -142.30366 
L 143.690978 -143.144081 
L 142.89474 -142.618922 
L 142.098503 -141.289639 
L 141.302265 -139.842426 
L 140.506028 -138.866655 
L 139.70979 -138.741354 
L 138.913553 -139.512306 
L 138.117315 -140.801296 
L 137.321078 -141.945065 
L 136.52484 -142.38179 
L 135.728603 -141.98716 
L 134.932365 -141.063304 
L 134.136128 -140.022611 
L 133.33989 -139.118473 
L 132.543653 -138.442149 
L 131.747415 -138.017363 
L 130.951178 -137.781693 
L 130.15494 -137.512505 
L 129.358703 -136.894638 
L 128.562465 -135.762577 
L 127.766228 -134.297134 
L 126.96999 -132.948657 
L 126.173752 -132.132489 
L 125.377515 -132.001164 
L 124.581277 -132.474815 
L 123.78504 -133.36692 
L 122.988802 -134.409763 
L 122.192565 -135.219218 
L 121.396327 -135.363105 
L 120.60009 -134.578301 
L 119.803852 -132.988537 
L 119.007615 -131.13795 
L 118.211377 -129.769133 
L 117.41514 -129.44295 
L 116.618902 -130.251686 
L 115.822665 -131.836034 
L 115.026427 -133.639592 
L 114.23019 -135.175625 
L 113.433952 -136.165749 
L 112.637715 -136.542187 
L 111.841477 -136.393242 
L 111.04524 -135.935964 
L 110.249002 -135.50612 
L 109.452764 -135.482357 
L 108.656527 -136.113219 
L 107.860289 -137.336703 
L 107.064052 -138.746428 
L 106.267814 -139.776846 
L 105.471577 -140.000113 
L 104.675339 -139.350921 
L 103.879102 -138.160672 
L 103.082864 -136.990391 
L 102.286627 -136.352171 
L 101.490389 -136.475903 
L 100.694152 -137.24352 
L 99.897914 -138.288153 
L 99.101677 -139.160513 
L 98.305439 -139.468298 
L 97.509202 -138.974577 
L 96.712964 -137.707632 
L 95.916727 -136.070731 
L 95.120489 -134.816612 
L 94.324251 -134.781671 
L 93.528014 -136.463291 
L 92.731776 -139.705809 
L 91.935539 -143.718373 
L 91.139301 -147.395373 
L 90.343064 -149.716956 
L 89.546826 -150.031952 
L 88.750589 -148.168965 
L 87.954351 -144.436431 
L 87.158114 -139.560143 
L 86.361876 -134.528558 
L 85.565639 -130.351041 
L 84.769401 -127.80916 
L 83.973164 -127.244571 
L 83.176926 -128.380276 
L 82.380689 -130.326245 
L 81.584451 -131.990446 
L 80.788214 -132.70203 
L 79.991976 -132.580225 
L 79.195739 -132.389541 
L 78.399501 -132.933486 
L 77.603263 -134.451468 
L 76.807026 -136.596406 
L 76.010788 -138.874219 
L 75.214551 -140.977067 
L 74.418313 -142.723122 
L 73.622076 -143.792297 
L 72.825838 -143.807422 
L 72.029601 -142.764306 
L 71.233363 -141.187696 
L 70.437126 -139.799093 
L 69.640888 -139.016824 
L 68.844651 -138.740973 
L 68.048413 -138.560582 
L 67.252176 -138.08771 
L 66.455938 -137.133385 
L 65.659701 -135.736569 
L 64.863463 -134.189464 
L 64.067226 -133.048349 
L 63.270988 -132.98333 
L 62.47475 -134.44951 
L 61.678513 -137.378759 
L 60.882275 -141.126442 
L 60.086038 -144.702664 
L 59.2898 -147.132058 
L 58.493563 -147.800226 
L 57.697325 -146.68921 
L 56.901088 -144.389877 
L 56.10485 -141.831065 
L 55.308613 -139.853976 
L 54.512375 -138.911584 
L 53.716138 -139.037355 
L 52.9199 -139.959903 
L 52.123663 -141.196214 
L 51.327425 -142.146438 
L 50.531188 -142.345676 
L 49.73495 -141.813152 
L 48.938713 -141.154614 
L 48.142475 -141.200221 
L 47.346238 -142.426336 
L 46.55 -144.683446 
z
" style="stroke: #e41a1c; stroke-opacity: 0.3"/>
    </defs>
    <g clip-path="url(#p4aa7a594fc)">
     <use xlink:href="#m0115439546" x="0" y="360" style="fill: #e41a1c; fill-opacity: 0.3; stroke: #e41a1c; stroke-opacity: 0.3"/>
    </g>
   </g>
   <g id="PolyCollection_2">
    <defs>
     <path id="m3901cc8d39" d="M 46.55 -147.59414 
L 46.55 -122.450676 
L 47.346238 -123.737114 
L 48.142475 -124.232809 
L 48.938713 -124.105913 
L 49.73495 -123.690858 
L 50.531188 -123.362199 
L 51.327425 -123.378201 
L 52.123663 -123.768177 
L 52.9199 -124.311773 
L 53.716138 -124.609555 
L 54.512375 -124.212841 
L 55.308613 -122.77796 
L 56.10485 -120.210139 
L 56.901088 -116.752417 
L 57.697325 -112.966179 
L 58.493563 -109.577685 
L 59.2898 -107.242122 
L 60.086038 -106.339694 
L 60.882275 -106.886739 
L 61.678513 -108.560216 
L 62.47475 -110.793102 
L 63.270988 -112.927922 
L 64.067226 -114.432631 
L 64.863463 -115.112751 
L 65.659701 -115.157551 
L 66.455938 -114.944823 
L 67.252176 -114.755429 
L 68.048413 -114.606523 
L 68.844651 -114.303183 
L 69.640888 -113.638524 
L 70.437126 -112.536611 
L 71.233363 -111.048844 
L 72.029601 -109.324624 
L 72.825838 -107.63415 
L 73.622076 -106.364593 
L 74.418313 -105.880725 
L 75.214551 -106.286285 
L 76.010788 -107.267777 
L 76.807026 -108.167701 
L 77.603263 -108.256016 
L 78.399501 -106.999785 
L 79.195739 -104.1867 
L 79.991976 -99.956709 
L 80.788214 -94.820799 
L 81.584451 -89.622229 
L 82.380689 -85.347414 
L 83.176926 -82.80432 
L 83.973164 -82.336613 
L 84.769401 -83.737309 
L 85.565639 -86.369083 
L 86.361876 -89.361977 
L 87.158114 -91.793759 
L 87.954351 -92.878286 
L 88.750589 -92.184674 
L 89.546826 -89.803863 
L 90.343064 -86.32638 
L 91.139301 -82.60428 
L 91.935539 -79.443693 
L 92.731776 -77.401143 
L 93.528014 -76.723277 
L 94.324251 -77.340719 
L 95.120489 -78.865942 
L 95.916727 -80.662925 
L 96.712964 -82.043328 
L 97.509202 -82.51953 
L 98.305439 -81.959128 
L 99.101677 -80.547357 
L 99.897914 -78.632561 
L 100.694152 -76.596936 
L 101.490389 -74.796757 
L 102.286627 -73.514381 
L 103.082864 -72.891705 
L 103.879102 -72.90043 
L 104.675339 -73.404593 
L 105.471577 -74.280802 
L 106.267814 -75.47817 
L 107.064052 -76.941075 
L 107.860289 -78.47362 
L 108.656527 -79.698478 
L 109.452764 -80.174127 
L 110.249002 -79.597004 
L 111.04524 -77.951117 
L 111.841477 -75.528908 
L 112.637715 -72.851182 
L 113.433952 -70.544 
L 114.23019 -69.1929 
L 115.026427 -69.164315 
L 115.822665 -70.424332 
L 116.618902 -72.4632 
L 117.41514 -74.423963 
L 118.211377 -75.420979 
L 119.007615 -74.900825 
L 119.803852 -72.861145 
L 120.60009 -69.832227 
L 121.396327 -66.665662 
L 122.192565 -64.247582 
L 122.988802 -63.232417 
L 123.78504 -63.83714 
L 124.581277 -65.733821 
L 125.377515 -68.118916 
L 126.173752 -69.996487 
L 126.96999 -70.580091 
L 127.766228 -69.616944 
L 128.562465 -67.469338 
L 129.358703 -64.936691 
L 130.15494 -62.938218 
L 130.951178 -62.203458 
L 131.747415 -63.055888 
L 132.543653 -65.309997 
L 133.33989 -68.303524 
L 134.136128 -71.096975 
L 134.932365 -72.806069 
L 135.728603 -72.933787 
L 136.52484 -71.542338 
L 137.321078 -69.190874 
L 138.117315 -66.697444 
L 138.913553 -64.851638 
L 139.70979 -64.179133 
L 140.506028 -64.80313 
L 141.302265 -66.42587 
L 142.098503 -68.449987 
L 142.89474 -70.214189 
L 143.690978 -71.24388 
L 144.487216 -71.402261 
L 145.283453 -70.892551 
L 146.079691 -70.142685 
L 146.875928 -69.635172 
L 147.672166 -69.732682 
L 148.468403 -70.542334 
L 149.264641 -71.870987 
L 150.060878 -73.305001 
L 150.857116 -74.382544 
L 151.653353 -74.771248 
L 152.449591 -74.37792 
L 153.245828 -73.369934 
L 154.042066 -72.118013 
L 154.838303 -71.072872 
L 155.634541 -70.60479 
L 156.430778 -70.873254 
L 157.227016 -71.800492 
L 158.023253 -73.153759 
L 158.819491 -74.655429 
L 159.615729 -76.046079 
L 160.411966 -77.105915 
L 161.208204 -77.675071 
L 162.004441 -77.679113 
L 162.800679 -77.133203 
L 163.596916 -76.109791 
L 164.393154 -74.702639 
L 165.189391 -73.028835 
L 165.985629 -71.257361 
L 166.781866 -69.610905 
L 167.578104 -68.317578 
L 168.374341 -67.544516 
L 169.170579 -67.352632 
L 169.966816 -67.673272 
L 170.763054 -68.289993 
L 171.559291 -68.848529 
L 172.355529 -68.950729 
L 173.151766 -68.334875 
L 173.948004 -67.044652 
L 174.744241 -65.464431 
L 175.540479 -64.195992 
L 176.336717 -63.855755 
L 177.132954 -64.879507 
L 177.929192 -67.370723 
L 178.725429 -71.009442 
L 179.521667 -75.072419 
L 180.317904 -78.622701 
L 181.114142 -80.836868 
L 181.910379 -81.312242 
L 182.706617 -80.182808 
L 183.502854 -78.014796 
L 184.299092 -75.585269 
L 185.095329 -73.655128 
L 185.891567 -72.781268 
L 186.687804 -73.165322 
L 187.484042 -74.570216 
L 188.280279 -76.387422 
L 189.076517 -77.884322 
L 189.872754 -78.520084 
L 190.668992 -78.151481 
L 191.46523 -77.039744 
L 192.261467 -75.706725 
L 193.057705 -74.732807 
L 193.853942 -74.554194 
L 194.65018 -75.296804 
L 195.446417 -76.704311 
L 196.242655 -78.223339 
L 197.038892 -79.239766 
L 197.83513 -79.357865 
L 198.631367 -78.579371 
L 199.427605 -77.306325 
L 200.223842 -76.186576 
L 201.02008 -75.868615 
L 201.816317 -76.749239 
L 202.612555 -78.805109 
L 203.408792 -81.582422 
L 204.20503 -84.355906 
L 205.001267 -86.391175 
L 205.797505 -87.212269 
L 206.593742 -86.793141 
L 207.38998 -85.614595 
L 208.186218 -84.538056 
L 208.982455 -84.493628 
L 209.778693 -86.086471 
L 210.57493 -89.311375 
L 211.371168 -93.523537 
L 212.167405 -97.664166 
L 212.963643 -100.61331 
L 213.75988 -101.53496 
L 214.556118 -100.140992 
L 215.352355 -96.823443 
L 216.148593 -92.579493 
L 216.94483 -88.679009 
L 217.741068 -86.173092 
L 218.537305 -85.489137 
L 219.333543 -86.322835 
L 220.12978 -87.847334 
L 220.926018 -89.091435 
L 221.722255 -89.3044 
L 222.518493 -88.202595 
L 223.31473 -86.059711 
L 224.110968 -83.618417 
L 224.907206 -81.818956 
L 225.703443 -81.405876 
L 226.499681 -82.572308 
L 227.295918 -84.823198 
L 228.092156 -87.141385 
L 228.888393 -88.38895 
L 229.684631 -87.760739 
L 230.480868 -85.083276 
L 231.277106 -80.839774 
L 232.073343 -75.947019 
L 232.869581 -71.412485 
L 233.665818 -68.015813 
L 234.462056 -66.098902 
L 235.258293 -65.491595 
L 236.054531 -65.595963 
L 236.850768 -65.640647 
L 237.647006 -65.029465 
L 238.443243 -63.61017 
L 239.239481 -61.702774 
L 240.035719 -59.88482 
L 240.831956 -58.691506 
L 241.628194 -58.408513 
L 242.424431 -59.021093 
L 243.220669 -60.262223 
L 244.016906 -61.700982 
L 244.813144 -62.879305 
L 245.609381 -63.489785 
L 246.405619 -63.508106 
L 247.201856 -63.179727 
L 247.998094 -62.857027 
L 248.794331 -62.798303 
L 249.590569 -63.054697 
L 250.386806 -63.489187 
L 251.183044 -63.887453 
L 251.979281 -64.094396 
L 252.775519 -64.121821 
L 253.571756 -64.176264 
L 254.367994 -64.570454 
L 255.164231 -65.544063 
L 255.960469 -67.094688 
L 256.756707 -68.929202 
L 257.552944 -70.569996 
L 258.349182 -71.555448 
L 259.145419 -71.635731 
L 259.941657 -70.896279 
L 260.737894 -69.77574 
L 261.534132 -68.95284 
L 262.330369 -69.103894 
L 263.126607 -70.610218 
L 263.922844 -73.359082 
L 264.719082 -76.751542 
L 265.515319 -79.917822 
L 266.311557 -82.033987 
L 267.107794 -82.608903 
L 267.904032 -81.655779 
L 268.700269 -79.706535 
L 269.496507 -77.647723 
L 270.292744 -76.397797 
L 271.088982 -76.539396 
L 271.88522 -78.076723 
L 272.681457 -80.437225 
L 273.477695 -82.698963 
L 274.273932 -83.921471 
L 275.07017 -83.45999 
L 275.866407 -81.194066 
L 276.662645 -77.616368 
L 277.458882 -73.721133 
L 278.25512 -70.678657 
L 279.051357 -69.406058 
L 279.847595 -70.236212 
L 280.643832 -72.837793 
L 281.44007 -76.384558 
L 282.236307 -79.846823 
L 283.032545 -82.282538 
L 283.828782 -83.07753 
L 284.62502 -82.110677 
L 285.421257 -79.787948 
L 286.217495 -76.89737 
L 287.013732 -74.322601 
L 287.80997 -72.745653 
L 288.606208 -72.471147 
L 289.402445 -73.417647 
L 290.198683 -75.230283 
L 290.99492 -77.43851 
L 291.791158 -79.607685 
L 292.587395 -81.455608 
L 293.383633 -82.901087 
L 294.17987 -84.021877 
L 294.976108 -84.947754 
L 295.772345 -85.760045 
L 296.568583 -86.461452 
L 297.36482 -87.020573 
L 298.161058 -87.428906 
L 298.957295 -87.705096 
L 299.753533 -87.854237 
L 300.54977 -87.846737 
L 301.346008 -87.649187 
L 302.142245 -87.269228 
L 302.938483 -86.759996 
L 303.73472 -86.181875 
L 304.530958 -85.571437 
L 305.327196 -84.953054 
L 306.123433 -84.368002 
L 306.919671 -83.866019 
L 307.715908 -83.451755 
L 308.512146 -83.047158 
L 309.308383 -82.524378 
L 310.104621 -81.79431 
L 310.900858 -80.880707 
L 311.697096 -79.926398 
L 312.493333 -79.139137 
L 313.289571 -78.716198 
L 314.085808 -78.767631 
L 314.882046 -79.243775 
L 315.678283 -79.897919 
L 316.474521 -80.333617 
L 317.270758 -80.148874 
L 318.066996 -79.118584 
L 318.863233 -77.315616 
L 319.659471 -75.102684 
L 320.455709 -73.00591 
L 321.251946 -71.535031 
L 322.048184 -71.015112 
L 322.844421 -71.473532 
L 323.640659 -72.614956 
L 324.436896 -73.902137 
L 325.233134 -74.723742 
L 326.029371 -74.5887 
L 326.825609 -73.274397 
L 327.621846 -70.886774 
L 328.418084 -67.829119 
L 329.214321 -64.697415 
L 330.010559 -62.122228 
L 330.806796 -60.594189 
L 331.603034 -60.333636 
L 332.399271 -61.256505 
L 333.195509 -63.04151 
L 333.991746 -65.249787 
L 334.787984 -67.42777 
L 335.584221 -69.158856 
L 336.380459 -70.090974 
L 337.176697 -69.98493 
L 337.972934 -68.782709 
L 338.769172 -66.648123 
L 339.565409 -63.94432 
L 340.361647 -61.1596 
L 341.157884 -58.809261 
L 341.954122 -57.326631 
L 342.750359 -56.946357 
L 343.546597 -57.608989 
L 344.342834 -58.946767 
L 345.139072 -60.391721 
L 345.935309 -61.376179 
L 346.731547 -61.534265 
L 347.527784 -60.821386 
L 348.324022 -59.521012 
L 349.120259 -58.150529 
L 349.916497 -57.29209 
L 350.712734 -57.391455 
L 351.508972 -58.596153 
L 352.30521 -60.708348 
L 353.101447 -63.277503 
L 353.897685 -65.776691 
L 354.693922 -67.762986 
L 355.49016 -68.959958 
L 356.286397 -69.272351 
L 357.082635 -68.770853 
L 357.878872 -67.660408 
L 358.67511 -66.221282 
L 359.471347 -64.727447 
L 360.267585 -63.379252 
L 361.063822 -62.288553 
L 361.86006 -61.512268 
L 362.656297 -61.08505 
L 363.452535 -61.000828 
L 364.248772 -61.151564 
L 365.04501 -61.294241 
L 365.841247 -61.108978 
L 366.637485 -60.338848 
L 367.433722 -58.931495 
L 368.22996 -57.098068 
L 369.026198 -55.260921 
L 369.822435 -53.920227 
L 370.618673 -53.491691 
L 371.41491 -54.159055 
L 372.211148 -55.775131 
L 373.007385 -57.850749 
L 373.803623 -59.673481 
L 374.59986 -60.553087 
L 375.396098 -60.107728 
L 376.192335 -58.449596 
L 376.988573 -56.164552 
L 377.78481 -54.093469 
L 378.581048 -53.025403 
L 379.377285 -53.435091 
L 380.173523 -55.342593 
L 380.96976 -58.305126 
L 381.765998 -61.533692 
L 382.562235 -64.132823 
L 383.358473 -65.416897 
L 384.15471 -65.176151 
L 384.950948 -63.746284 
L 385.747186 -61.833559 
L 386.543423 -60.200392 
L 387.339661 -59.38203 
L 388.135898 -59.542066 
L 388.932136 -60.464393 
L 389.728373 -61.63845 
L 390.524611 -62.428015 
L 391.320848 -62.311724 
L 392.117086 -61.107429 
L 392.913323 -59.05607 
L 393.709561 -56.713366 
L 394.505798 -54.724769 
L 395.302036 -53.61316 
L 396.098273 -53.652034 
L 396.894511 -54.815469 
L 397.690748 -56.786786 
L 398.486986 -59.044844 
L 399.283223 -61.030241 
L 400.079461 -62.325378 
L 400.875699 -62.759913 
L 401.671936 -62.412301 
L 402.468174 -61.548396 
L 403.264411 -60.547682 
L 404.060649 -59.829175 
L 404.856886 -59.765126 
L 405.653124 -60.589274 
L 406.449361 -62.33154 
L 407.245599 -64.79755 
L 408.041836 -67.586822 
L 408.838074 -70.151564 
L 409.634311 -71.915643 
L 410.430549 -72.45097 
L 411.226786 -71.656546 
L 412.023024 -69.84598 
L 412.819261 -67.682657 
L 413.615499 -65.983065 
L 413.615499 -116.176521 
L 413.615499 -116.176521 
L 412.819261 -117.93458 
L 412.023024 -120.266401 
L 411.226786 -122.34383 
L 410.430549 -123.481182 
L 409.634311 -123.279545 
L 408.838074 -121.68836 
L 408.041836 -119.000075 
L 407.245599 -115.774362 
L 406.449361 -112.691592 
L 405.653124 -110.366373 
L 404.856886 -109.186393 
L 404.060649 -109.22922 
L 403.264411 -110.262895 
L 402.468174 -111.807454 
L 401.671936 -113.2479 
L 400.875699 -113.995443 
L 400.079461 -113.660044 
L 399.283223 -112.167055 
L 398.486986 -109.774515 
L 397.690748 -107.001962 
L 396.894511 -104.507863 
L 396.098273 -102.932369 
L 395.302036 -102.708744 
L 394.505798 -103.891546 
L 393.709561 -106.102493 
L 392.913323 -108.656448 
L 392.117086 -110.810739 
L 391.320848 -112.011928 
L 390.524611 -112.053297 
L 389.728373 -111.128207 
L 388.932136 -109.781702 
L 388.135898 -108.740785 
L 387.339661 -108.630721 
L 386.543423 -109.684902 
L 385.747186 -111.613105 
L 384.950948 -113.713977 
L 384.15471 -115.1582 
L 383.358473 -115.290979 
L 382.562235 -113.845965 
L 381.765998 -111.039124 
L 380.96976 -107.53537 
L 380.173523 -104.270691 
L 379.377285 -102.141052 
L 378.581048 -101.661046 
L 377.78481 -102.759753 
L 376.988573 -104.828027 
L 376.192335 -106.984151 
L 375.396098 -108.412388 
L 374.59986 -108.628684 
L 373.803623 -107.600493 
L 373.007385 -105.719604 
L 372.211148 -103.656303 
L 371.41491 -102.130949 
L 370.618673 -101.662555 
L 369.822435 -102.386107 
L 369.026198 -104.025247 
L 368.22996 -106.036978 
L 367.433722 -107.850457 
L 366.637485 -109.075383 
L 365.841247 -109.592406 
L 365.04501 -109.520828 
L 364.248772 -109.123565 
L 363.452535 -108.711513 
L 362.656297 -108.567341 
L 361.86006 -108.880657 
L 361.063822 -109.698531 
L 360.267585 -110.919678 
L 359.471347 -112.34602 
L 358.67511 -113.757905 
L 357.878872 -114.957195 
L 357.082635 -115.758446 
L 356.286397 -115.966396 
L 355.49016 -115.399898 
L 354.693922 -113.981439 
L 353.897685 -111.83698 
L 353.101447 -109.320835 
L 352.30521 -106.928292 
L 351.508972 -105.139031 
L 350.712734 -104.270159 
L 349.916497 -104.387582 
L 349.120259 -105.284325 
L 348.324022 -106.528768 
L 347.527784 -107.589077 
L 346.731547 -108.014215 
L 345.935309 -107.604885 
L 345.139072 -106.490731 
L 344.342834 -105.076125 
L 343.546597 -103.89175 
L 342.750359 -103.424537 
L 341.954122 -103.975161 
L 341.157884 -105.567383 
L 340.361647 -107.932303 
L 339.565409 -110.587761 
L 338.769172 -112.994042 
L 337.972934 -114.715921 
L 337.176697 -115.515722 
L 336.380459 -115.355862 
L 335.584221 -114.355145 
L 334.787984 -112.750019 
L 333.991746 -110.866778 
L 333.195509 -109.078075 
L 332.399271 -107.738095 
L 331.603034 -107.124513 
L 330.806796 -107.40763 
L 330.010559 -108.633138 
L 329.214321 -110.696381 
L 328.418084 -113.315225 
L 327.621846 -116.040945 
L 326.825609 -118.346198 
L 326.029371 -119.782567 
L 325.233134 -120.141054 
L 324.436896 -119.535579 
L 323.640659 -118.371116 
L 322.844421 -117.213664 
L 322.048184 -116.607426 
L 321.251946 -116.897239 
L 320.455709 -118.116725 
L 319.659471 -119.989489 
L 318.863233 -122.046853 
L 318.066996 -123.806065 
L 317.270758 -124.925111 
L 316.474521 -125.280586 
L 315.678283 -124.971044 
L 314.882046 -124.270575 
L 314.085808 -123.543152 
L 313.289571 -123.125353 
L 312.493333 -123.211452 
L 311.697096 -123.797838 
L 310.900858 -124.72134 
L 310.104621 -125.76135 
L 309.308383 -126.733384 
L 308.512146 -127.530919 
L 307.715908 -128.1304 
L 306.919671 -128.586299 
L 306.123433 -129.010106 
L 305.327196 -129.514015 
L 304.530958 -130.135238 
L 303.73472 -130.801051 
L 302.938483 -131.374146 
L 302.142245 -131.742004 
L 301.346008 -131.87123 
L 300.54977 -131.791732 
L 299.753533 -131.549889 
L 298.957295 -131.191141 
L 298.161058 -130.77934 
L 297.36482 -130.40004 
L 296.568583 -130.108951 
L 295.772345 -129.859637 
L 294.976108 -129.486051 
L 294.17987 -128.766931 
L 293.383633 -127.524435 
L 292.587395 -125.698468 
L 291.791158 -123.378135 
L 290.99492 -120.805201 
L 290.198683 -118.359533 
L 289.402445 -116.506941 
L 288.606208 -115.683983 
L 287.80997 -116.140934 
L 287.013732 -117.815519 
L 286.217495 -120.302859 
L 285.421257 -122.931562 
L 284.62502 -124.914862 
L 283.828782 -125.546591 
L 283.032545 -124.421389 
L 282.236307 -121.628633 
L 281.44007 -117.816598 
L 280.643832 -114.036459 
L 279.847595 -111.391952 
L 279.051357 -110.652192 
L 278.25512 -112.009907 
L 277.458882 -115.053759 
L 276.662645 -118.911171 
L 275.866407 -122.496134 
L 275.07017 -124.821583 
L 274.273932 -125.321734 
L 273.477695 -124.066375 
L 272.681457 -121.738091 
L 271.88522 -119.351901 
L 271.088982 -117.8494 
L 270.292744 -117.759399 
L 269.496507 -119.046507 
L 268.700269 -121.15829 
L 267.904032 -123.227274 
L 267.107794 -124.373376 
L 266.311557 -124.02675 
L 265.515319 -122.143588 
L 264.719082 -119.207529 
L 263.922844 -116.013445 
L 263.126607 -113.351267 
L 262.330369 -111.73867 
L 261.534132 -111.287995 
L 260.737894 -111.716891 
L 259.941657 -112.478271 
L 259.145419 -112.973903 
L 258.349182 -112.786923 
L 257.552944 -111.832267 
L 256.756707 -110.344 
L 255.960469 -108.715802 
L 255.164231 -107.303455 
L 254.367994 -106.297005 
L 253.571756 -105.696673 
L 252.775519 -105.365437 
L 251.979281 -105.120762 
L 251.183044 -104.835213 
L 250.386806 -104.50702 
L 249.590569 -104.25245 
L 248.794331 -104.2097 
L 247.998094 -104.415974 
L 247.201856 -104.744987 
L 246.405619 -104.941488 
L 245.609381 -104.721576 
L 244.813144 -103.891761 
L 244.016906 -102.461406 
L 243.220669 -100.716837 
L 242.424431 -99.188387 
L 241.628194 -98.45856 
L 240.831956 -98.873504 
L 240.035719 -100.339293 
L 239.239481 -102.355209 
L 238.443243 -104.257581 
L 237.647006 -105.513454 
L 236.850768 -105.923476 
L 236.054531 -105.6916 
L 235.258293 -105.379276 
L 234.462056 -105.744569 
L 233.665818 -107.461255 
L 232.869581 -110.791382 
L 232.073343 -115.380321 
L 231.277106 -120.324232 
L 230.480868 -124.502949 
L 229.684631 -127.010188 
L 228.888393 -127.480349 
L 228.092156 -126.19148 
L 227.295918 -123.939503 
L 226.499681 -121.75575 
L 225.703443 -120.565536 
L 224.907206 -120.885822 
L 224.110968 -122.651997 
L 223.31473 -125.237722 
L 222.518493 -127.687771 
L 221.722255 -129.113517 
L 220.926018 -129.097077 
L 220.12978 -127.90031 
L 219.333543 -126.354381 
L 218.537305 -125.483579 
L 217.741068 -126.065932 
L 216.94483 -128.337515 
L 216.148593 -131.921491 
L 215.352355 -135.944349 
L 214.556118 -139.282237 
L 213.75988 -140.904828 
L 212.963643 -140.25265 
L 212.167405 -137.485762 
L 211.371168 -133.440299 
L 210.57493 -129.290743 
L 209.778693 -126.096154 
L 208.982455 -124.451027 
L 208.186218 -124.353512 
L 207.38998 -125.276068 
L 206.593742 -126.378931 
L 205.797505 -126.813116 
L 205.001267 -126.038264 
L 204.20503 -124.032392 
L 203.408792 -121.283686 
L 202.612555 -118.563965 
L 201.816317 -116.600617 
L 201.02008 -115.798704 
L 200.223842 -116.113357 
L 199.427605 -117.100346 
L 198.631367 -118.115217 
L 197.83513 -118.581495 
L 197.038892 -118.214245 
L 196.242655 -117.10403 
L 195.446417 -115.646046 
L 194.65018 -114.370589 
L 193.853942 -113.742062 
L 193.057705 -113.973897 
L 192.261467 -114.915956 
L 191.46523 -116.085133 
L 190.668992 -116.862357 
L 189.872754 -116.773554 
L 189.076517 -115.703036 
L 188.280279 -113.935551 
L 187.484042 -112.042478 
L 186.687804 -110.697581 
L 185.891567 -110.471613 
L 185.095329 -111.616479 
L 184.299092 -113.900087 
L 183.502854 -116.612087 
L 182.706617 -118.800165 
L 181.910379 -119.634707 
L 181.114142 -118.708372 
L 180.317904 -116.134405 
L 179.521667 -112.447915 
L 178.725429 -108.417122 
L 177.929192 -104.846737 
L 177.132954 -102.379512 
L 176.336717 -101.312843 
L 175.540479 -101.514101 
L 174.744241 -102.507394 
L 173.948004 -103.69762 
L 173.151766 -104.602637 
L 172.355529 -104.979561 
L 171.559291 -104.83231 
L 170.763054 -104.360861 
L 169.966816 -103.887504 
L 169.170579 -103.747804 
L 168.374341 -104.158667 
L 167.578104 -105.135233 
L 166.781866 -106.518508 
L 165.985629 -108.086944 
L 165.189391 -109.658598 
L 164.393154 -111.119195 
L 163.596916 -112.390027 
L 162.800679 -113.389046 
L 162.004441 -114.012322 
L 161.208204 -114.132079 
L 160.411966 -113.620837 
L 159.615729 -112.423384 
L 158.819491 -110.654857 
L 158.023253 -108.648414 
L 157.227016 -106.883988 
L 156.430778 -105.814471 
L 155.634541 -105.690178 
L 154.838303 -106.476836 
L 154.042066 -107.875708 
L 153.245828 -109.406614 
L 152.449591 -110.537167 
L 151.653353 -110.849257 
L 150.857116 -110.193378 
L 150.060878 -108.75301 
L 149.264641 -106.977371 
L 148.468403 -105.414055 
L 147.672166 -104.515471 
L 146.875928 -104.480374 
L 146.079691 -105.169709 
L 145.283453 -106.134323 
L 144.487216 -106.773881 
L 143.690978 -106.579115 
L 142.89474 -105.349167 
L 142.098503 -103.2863 
L 141.302265 -100.939464 
L 140.506028 -99.031395 
L 139.70979 -98.222458 
L 138.913553 -98.866163 
L 138.117315 -100.836871 
L 137.321078 -103.523608 
L 136.52484 -106.025408 
L 135.728603 -107.469772 
L 134.932365 -107.311726 
L 134.136128 -105.505732 
L 133.33989 -102.520987 
L 132.543653 -99.214826 
L 131.747415 -96.582463 
L 130.951178 -95.422172 
L 130.15494 -96.020364 
L 129.358703 -98.01274 
L 128.562465 -100.523581 
L 127.766228 -102.52475 
L 126.96999 -103.231442 
L 126.173752 -102.364585 
L 125.377515 -100.213558 
L 124.581277 -97.527379 
L 123.78504 -95.284502 
L 122.988802 -94.379255 
L 122.192565 -95.291167 
L 121.396327 -97.865072 
L 120.60009 -101.340743 
L 119.803852 -104.653882 
L 119.007615 -106.856581 
L 118.211377 -107.445701 
L 117.41514 -106.47749 
L 116.618902 -104.480773 
L 115.822665 -102.255727 
L 115.026427 -100.631534 
L 114.23019 -100.222597 
L 113.433952 -101.232298 
L 112.637715 -103.377552 
L 111.841477 -106.003007 
L 111.04524 -108.357245 
L 110.249002 -109.88437 
L 109.452764 -110.372786 
L 108.656527 -109.915198 
L 107.860289 -108.767948 
L 107.064052 -107.237637 
L 106.267814 -105.638418 
L 105.471577 -104.268868 
L 104.675339 -103.3569 
L 103.879102 -102.996468 
L 103.082864 -103.155193 
L 102.286627 -103.765452 
L 101.490389 -104.797014 
L 100.694152 -106.22138 
L 99.897914 -107.899798 
L 99.101677 -109.521437 
L 98.305439 -110.683434 
L 97.509202 -111.060577 
L 96.712964 -110.531252 
L 95.916727 -109.204038 
L 95.120489 -107.402804 
L 94.324251 -105.650995 
L 93.528014 -104.595481 
L 92.731776 -104.80779 
L 91.935539 -106.519005 
L 91.139301 -109.458708 
L 90.343064 -112.930746 
L 89.546826 -116.067034 
L 88.750589 -118.087721 
L 87.954351 -118.473195 
L 87.158114 -117.078365 
L 86.361876 -114.223536 
L 85.565639 -110.693284 
L 84.769401 -107.548673 
L 83.973164 -105.781934 
L 83.176926 -105.989654 
L 82.380689 -108.236983 
L 81.584451 -112.116506 
L 80.788214 -116.888503 
L 79.991976 -121.640479 
L 79.195739 -125.494268 
L 78.399501 -127.869867 
L 77.603263 -128.690543 
L 76.807026 -128.37119 
L 76.010788 -127.569807 
L 75.214551 -126.883969 
L 74.418313 -126.698318 
L 73.622076 -127.175617 
L 72.825838 -128.273978 
L 72.029601 -129.75545 
L 71.233363 -131.248924 
L 70.437126 -132.420069 
L 69.640888 -133.162822 
L 68.844651 -133.637395 
L 68.048413 -134.087161 
L 67.252176 -134.594866 
L 66.455938 -135.016531 
L 65.659701 -135.1062 
L 64.863463 -134.669005 
L 64.067226 -133.63669 
L 63.270988 -132.062832 
L 62.47475 -130.120373 
L 61.678513 -128.15342 
L 60.882275 -126.684433 
L 60.086038 -126.274614 
L 59.2898 -127.296533 
L 58.493563 -129.765857 
L 57.697325 -133.323076 
L 56.901088 -137.346093 
L 56.10485 -141.12356 
L 55.308613 -144.042466 
L 54.512375 -145.757828 
L 53.716138 -146.290851 
L 52.9199 -145.999406 
L 52.123663 -145.421131 
L 51.327425 -145.05908 
L 50.531188 -145.207282 
L 49.73495 -145.879295 
L 48.938713 -146.840648 
L 48.142475 -147.706081 
L 47.346238 -148.062773 
L 46.55 -147.59414 
z
" style="stroke: #377eb8; stroke-opacity: 0.3"/>
    </defs>
    <g clip-path="url(#p4aa7a594fc)">
     <use xlink:href="#m3901cc8d39" x="0" y="360" style="fill: #377eb8; fill-opacity: 0.3; stroke: #377eb8; stroke-opacity: 0.3"/>
    </g>
   </g>
   <g id="patch_3">
    <path d="M 229.843878 318.2 
L 229.843878 71.241125 
L 331.762281 71.241125 
L 331.762281 318.2 
z
" clip-path="url(#p4aa7a594fc)" style="fill: #808080; opacity: 0.3"/>
   </g>
   <g id="matplotlib.axis_1">
    <g id="xtick_1">
     <g id="line2d_1">
      <defs>
       <path id="m5a709f1325" d="M 0 0 
L 0 3.5 
" style="stroke: #000000; stroke-width: 0.8"/>
      </defs>
      <g>
       <use xlink:href="#m5a709f1325" x="87.158114" y="318.2" style="stroke: #000000; stroke-width: 0.8"/>
      </g>
     </g>
     <g id="text_1">
      <!-- 0.0 -->
      <g transform="translate(79.206551 332.798437)scale(0.1 -0.1)">
       <defs>
        <path id="DejaVuSans-30" d="M 2034 4250 
Q 1547 4250 1301 3770 
Q 1056 3291 1056 2328 
Q 1056 1369 1301 889 
Q 1547 409 2034 409 
Q 2525 409 2770 889 
Q 3016 1369 3016 2328 
Q 3016 3291 2770 3770 
Q 2525 4250 2034 4250 
z
M 2034 4750 
Q 2819 4750 3233 4129 
Q 3647 3509 3647 2328 
Q 3647 1150 3233 529 
Q 2819 -91 2034 -91 
Q 1250 -91 836 529 
Q 422 1150 422 2328 
Q 422 3509 836 4129 
Q 1250 4750 2034 4750 
z
" transform="scale(0.015625)"/>
        <path id="DejaVuSans-2e" d="M 684 794 
L 1344 794 
L 1344 0 
L 684 0 
L 684 794 
z
" transform="scale(0.015625)"/>
       </defs>
       <use xlink:href="#DejaVuSans-30"/>
       <use xlink:href="#DejaVuSans-2e" x="63.623047"/>
       <use xlink:href="#DejaVuSans-30" x="95.410156"/>
      </g>
     </g>
    </g>
    <g id="xtick_2">
     <g id="line2d_2">
      <g>
       <use xlink:href="#m5a709f1325" x="168.692836" y="318.2" style="stroke: #000000; stroke-width: 0.8"/>
      </g>
     </g>
     <g id="text_2">
      <!-- 0.2 -->
      <g transform="translate(160.741274 332.798437)scale(0.1 -0.1)">
       <defs>
        <path id="DejaVuSans-32" d="M 1228 531 
L 3431 531 
L 3431 0 
L 469 0 
L 469 531 
Q 828 903 1448 1529 
Q 2069 2156 2228 2338 
Q 2531 2678 2651 2914 
Q 2772 3150 2772 3378 
Q 2772 3750 2511 3984 
Q 2250 4219 1831 4219 
Q 1534 4219 1204 4116 
Q 875 4013 500 3803 
L 500 4441 
Q 881 4594 1212 4672 
Q 1544 4750 1819 4750 
Q 2544 4750 2975 4387 
Q 3406 4025 3406 3419 
Q 3406 3131 3298 2873 
Q 3191 2616 2906 2266 
Q 2828 2175 2409 1742 
Q 1991 1309 1228 531 
z
" transform="scale(0.015625)"/>
       </defs>
       <use xlink:href="#DejaVuSans-30"/>
       <use xlink:href="#DejaVuSans-2e" x="63.623047"/>
       <use xlink:href="#DejaVuSans-32" x="95.410156"/>
      </g>
     </g>
    </g>
    <g id="xtick_3">
     <g id="line2d_3">
      <g>
       <use xlink:href="#m5a709f1325" x="250.227559" y="318.2" style="stroke: #000000; stroke-width: 0.8"/>
      </g>
     </g>
     <g id="text_3">
      <!-- 0.4 -->
      <g transform="translate(242.275996 332.798437)scale(0.1 -0.1)">
       <defs>
        <path id="DejaVuSans-34" d="M 2419 4116 
L 825 1625 
L 2419 1625 
L 2419 4116 
z
M 2253 4666 
L 3047 4666 
L 3047 1625 
L 3713 1625 
L 3713 1100 
L 3047 1100 
L 3047 0 
L 2419 0 
L 2419 1100 
L 313 1100 
L 313 1709 
L 2253 4666 
z
" transform="scale(0.015625)"/>
       </defs>
       <use xlink:href="#DejaVuSans-30"/>
       <use xlink:href="#DejaVuSans-2e" x="63.623047"/>
       <use xlink:href="#DejaVuSans-34" x="95.410156"/>
      </g>
     </g>
    </g>
    <g id="xtick_4">
     <g id="line2d_4">
      <g>
       <use xlink:href="#m5a709f1325" x="331.762281" y="318.2" style="stroke: #000000; stroke-width: 0.8"/>
      </g>
     </g>
     <g id="text_4">
      <!-- 0.6 -->
      <g transform="translate(323.810719 332.798437)scale(0.1 -0.1)">
       <defs>
        <path id="DejaVuSans-36" d="M 2113 2584 
Q 1688 2584 1439 2293 
Q 1191 2003 1191 1497 
Q 1191 994 1439 701 
Q 1688 409 2113 409 
Q 2538 409 2786 701 
Q 3034 994 3034 1497 
Q 3034 2003 2786 2293 
Q 2538 2584 2113 2584 
z
M 3366 4563 
L 3366 3988 
Q 3128 4100 2886 4159 
Q 2644 4219 2406 4219 
Q 1781 4219 1451 3797 
Q 1122 3375 1075 2522 
Q 1259 2794 1537 2939 
Q 1816 3084 2150 3084 
Q 2853 3084 3261 2657 
Q 3669 2231 3669 1497 
Q 3669 778 3244 343 
Q 2819 -91 2113 -91 
Q 1303 -91 875 529 
Q 447 1150 447 2328 
Q 447 3434 972 4092 
Q 1497 4750 2381 4750 
Q 2619 4750 2861 4703 
Q 3103 4656 3366 4563 
z
" transform="scale(0.015625)"/>
       </defs>
       <use xlink:href="#DejaVuSans-30"/>
       <use xlink:href="#DejaVuSans-2e" x="63.623047"/>
       <use xlink:href="#DejaVuSans-36" x="95.410156"/>
      </g>
     </g>
    </g>
    <g id="xtick_5">
     <g id="line2d_5">
      <g>
       <use xlink:href="#m5a709f1325" x="413.297004" y="318.2" style="stroke: #000000; stroke-width: 0.8"/>
      </g>
     </g>
     <g id="text_5">
      <!-- 0.8 -->
      <g transform="translate(405.345441 332.798437)scale(0.1 -0.1)">
       <defs>
        <path id="DejaVuSans-38" d="M 2034 2216 
Q 1584 2216 1326 1975 
Q 1069 1734 1069 1313 
Q 1069 891 1326 650 
Q 1584 409 2034 409 
Q 2484 409 2743 651 
Q 3003 894 3003 1313 
Q 3003 1734 2745 1975 
Q 2488 2216 2034 2216 
z
M 1403 2484 
Q 997 2584 770 2862 
Q 544 3141 544 3541 
Q 544 4100 942 4425 
Q 1341 4750 2034 4750 
Q 2731 4750 3128 4425 
Q 3525 4100 3525 3541 
Q 3525 3141 3298 2862 
Q 3072 2584 2669 2484 
Q 3125 2378 3379 2068 
Q 3634 1759 3634 1313 
Q 3634 634 3220 271 
Q 2806 -91 2034 -91 
Q 1263 -91 848 271 
Q 434 634 434 1313 
Q 434 1759 690 2068 
Q 947 2378 1403 2484 
z
M 1172 3481 
Q 1172 3119 1398 2916 
Q 1625 2713 2034 2713 
Q 2441 2713 2670 2916 
Q 2900 3119 2900 3481 
Q 2900 3844 2670 4047 
Q 2441 4250 2034 4250 
Q 1625 4250 1398 4047 
Q 1172 3844 1172 3481 
z
" transform="scale(0.015625)"/>
       </defs>
       <use xlink:href="#DejaVuSans-30"/>
       <use xlink:href="#DejaVuSans-2e" x="63.623047"/>
       <use xlink:href="#DejaVuSans-38" x="95.410156"/>
      </g>
     </g>
    </g>
    <g id="text_6">
     <!-- seconds -->
     <g transform="translate(209.645249 346.476562)scale(0.1 -0.1)">
      <defs>
       <path id="DejaVuSans-73" d="M 2834 3397 
L 2834 2853 
Q 2591 2978 2328 3040 
Q 2066 3103 1784 3103 
Q 1356 3103 1142 2972 
Q 928 2841 928 2578 
Q 928 2378 1081 2264 
Q 1234 2150 1697 2047 
L 1894 2003 
Q 2506 1872 2764 1633 
Q 3022 1394 3022 966 
Q 3022 478 2636 193 
Q 2250 -91 1575 -91 
Q 1294 -91 989 -36 
Q 684 19 347 128 
L 347 722 
Q 666 556 975 473 
Q 1284 391 1588 391 
Q 1994 391 2212 530 
Q 2431 669 2431 922 
Q 2431 1156 2273 1281 
Q 2116 1406 1581 1522 
L 1381 1569 
Q 847 1681 609 1914 
Q 372 2147 372 2553 
Q 372 3047 722 3315 
Q 1072 3584 1716 3584 
Q 2034 3584 2315 3537 
Q 2597 3491 2834 3397 
z
" transform="scale(0.015625)"/>
       <path id="DejaVuSans-65" d="M 3597 1894 
L 3597 1613 
L 953 1613 
Q 991 1019 1311 708 
Q 1631 397 2203 397 
Q 2534 397 2845 478 
Q 3156 559 3463 722 
L 3463 178 
Q 3153 47 2828 -22 
Q 2503 -91 2169 -91 
Q 1331 -91 842 396 
Q 353 884 353 1716 
Q 353 2575 817 3079 
Q 1281 3584 2069 3584 
Q 2775 3584 3186 3129 
Q 3597 2675 3597 1894 
z
M 3022 2063 
Q 3016 2534 2758 2815 
Q 2500 3097 2075 3097 
Q 1594 3097 1305 2825 
Q 1016 2553 972 2059 
L 3022 2063 
z
" transform="scale(0.015625)"/>
       <path id="DejaVuSans-63" d="M 3122 3366 
L 3122 2828 
Q 2878 2963 2633 3030 
Q 2388 3097 2138 3097 
Q 1578 3097 1268 2742 
Q 959 2388 959 1747 
Q 959 1106 1268 751 
Q 1578 397 2138 397 
Q 2388 397 2633 464 
Q 2878 531 3122 666 
L 3122 134 
Q 2881 22 2623 -34 
Q 2366 -91 2075 -91 
Q 1284 -91 818 406 
Q 353 903 353 1747 
Q 353 2603 823 3093 
Q 1294 3584 2113 3584 
Q 2378 3584 2631 3529 
Q 2884 3475 3122 3366 
z
" transform="scale(0.015625)"/>
       <path id="DejaVuSans-6f" d="M 1959 3097 
Q 1497 3097 1228 2736 
Q 959 2375 959 1747 
Q 959 1119 1226 758 
Q 1494 397 1959 397 
Q 2419 397 2687 759 
Q 2956 1122 2956 1747 
Q 2956 2369 2687 2733 
Q 2419 3097 1959 3097 
z
M 1959 3584 
Q 2709 3584 3137 3096 
Q 3566 2609 3566 1747 
Q 3566 888 3137 398 
Q 2709 -91 1959 -91 
Q 1206 -91 779 398 
Q 353 888 353 1747 
Q 353 2609 779 3096 
Q 1206 3584 1959 3584 
z
" transform="scale(0.015625)"/>
       <path id="DejaVuSans-6e" d="M 3513 2113 
L 3513 0 
L 2938 0 
L 2938 2094 
Q 2938 2591 2744 2837 
Q 2550 3084 2163 3084 
Q 1697 3084 1428 2787 
Q 1159 2491 1159 1978 
L 1159 0 
L 581 0 
L 581 3500 
L 1159 3500 
L 1159 2956 
Q 1366 3272 1645 3428 
Q 1925 3584 2291 3584 
Q 2894 3584 3203 3211 
Q 3513 2838 3513 2113 
z
" transform="scale(0.015625)"/>
       <path id="DejaVuSans-64" d="M 2906 2969 
L 2906 4863 
L 3481 4863 
L 3481 0 
L 2906 0 
L 2906 525 
Q 2725 213 2448 61 
Q 2172 -91 1784 -91 
Q 1150 -91 751 415 
Q 353 922 353 1747 
Q 353 2572 751 3078 
Q 1150 3584 1784 3584 
Q 2172 3584 2448 3432 
Q 2725 3281 2906 2969 
z
M 947 1747 
Q 947 1113 1208 752 
Q 1469 391 1925 391 
Q 2381 391 2643 752 
Q 2906 1113 2906 1747 
Q 2906 2381 2643 2742 
Q 2381 3103 1925 3103 
Q 1469 3103 1208 2742 
Q 947 2381 947 1747 
z
" transform="scale(0.015625)"/>
      </defs>
      <use xlink:href="#DejaVuSans-73"/>
      <use xlink:href="#DejaVuSans-65" x="52.099609"/>
      <use xlink:href="#DejaVuSans-63" x="113.623047"/>
      <use xlink:href="#DejaVuSans-6f" x="168.603516"/>
      <use xlink:href="#DejaVuSans-6e" x="229.785156"/>
      <use xlink:href="#DejaVuSans-64" x="293.164062"/>
      <use xlink:href="#DejaVuSans-73" x="356.640625"/>
     </g>
    </g>
   </g>
   <g id="matplotlib.axis_2">
    <g id="ytick_1">
     <g id="line2d_6">
      <defs>
       <path id="m5673127424" d="M 0 0 
L -3.5 0 
" style="stroke: #000000; stroke-width: 0.8"/>
      </defs>
      <g>
       <use xlink:href="#m5673127424" x="46.55" y="304.261968" style="stroke: #000000; stroke-width: 0.8"/>
      </g>
     </g>
     <g id="text_7">
      <!-- 2 -->
      <g transform="translate(24.807812 308.061187)scale(0.1 -0.1)">
       <defs>
        <path id="DejaVuSans-2212" d="M 678 2272 
L 4684 2272 
L 4684 1741 
L 678 1741 
L 678 2272 
z
" transform="scale(0.015625)"/>
       </defs>
       <use xlink:href="#DejaVuSans-2212"/>
       <use xlink:href="#DejaVuSans-32" x="83.789062"/>
      </g>
     </g>
    </g>
    <g id="ytick_2">
     <g id="line2d_7">
      <g>
       <use xlink:href="#m5673127424" x="46.55" y="272.061166" style="stroke: #000000; stroke-width: 0.8"/>
      </g>
     </g>
     <g id="text_8">
      <!-- 1 -->
      <g transform="translate(24.807812 275.860385)scale(0.1 -0.1)">
       <defs>
        <path id="DejaVuSans-31" d="M 794 531 
L 1825 531 
L 1825 4091 
L 703 3866 
L 703 4441 
L 1819 4666 
L 2450 4666 
L 2450 531 
L 3481 531 
L 3481 0 
L 794 0 
L 794 531 
z
" transform="scale(0.015625)"/>
       </defs>
       <use xlink:href="#DejaVuSans-2212"/>
       <use xlink:href="#DejaVuSans-31" x="83.789062"/>
      </g>
     </g>
    </g>
    <g id="ytick_3">
     <g id="line2d_8">
      <g>
       <use xlink:href="#m5673127424" x="46.55" y="239.860365" style="stroke: #000000; stroke-width: 0.8"/>
      </g>
     </g>
     <g id="text_9">
      <!-- 0 -->
      <g transform="translate(33.1875 243.659583)scale(0.1 -0.1)">
       <use xlink:href="#DejaVuSans-30"/>
      </g>
     </g>
    </g>
    <g id="ytick_4">
     <g id="line2d_9">
      <g>
       <use xlink:href="#m5673127424" x="46.55" y="207.659563" style="stroke: #000000; stroke-width: 0.8"/>
      </g>
     </g>
     <g id="text_10">
      <!-- 1 -->
      <g transform="translate(33.1875 211.458781)scale(0.1 -0.1)">
       <use xlink:href="#DejaVuSans-31"/>
      </g>
     </g>
    </g>
    <g id="ytick_5">
     <g id="line2d_10">
      <g>
       <use xlink:href="#m5673127424" x="46.55" y="175.458761" style="stroke: #000000; stroke-width: 0.8"/>
      </g>
     </g>
     <g id="text_11">
      <!-- 2 -->
      <g transform="translate(33.1875 179.257979)scale(0.1 -0.1)">
       <use xlink:href="#DejaVuSans-32"/>
      </g>
     </g>
    </g>
    <g id="ytick_6">
     <g id="line2d_11">
      <g>
       <use xlink:href="#m5673127424" x="46.55" y="143.257959" style="stroke: #000000; stroke-width: 0.8"/>
      </g>
     </g>
     <g id="text_12">
      <!-- 3 -->
      <g transform="translate(33.1875 147.057177)scale(0.1 -0.1)">
       <defs>
        <path id="DejaVuSans-33" d="M 2597 2516 
Q 3050 2419 3304 2112 
Q 3559 1806 3559 1356 
Q 3559 666 3084 287 
Q 2609 -91 1734 -91 
Q 1441 -91 1130 -33 
Q 819 25 488 141 
L 488 750 
Q 750 597 1062 519 
Q 1375 441 1716 441 
Q 2309 441 2620 675 
Q 2931 909 2931 1356 
Q 2931 1769 2642 2001 
Q 2353 2234 1838 2234 
L 1294 2234 
L 1294 2753 
L 1863 2753 
Q 2328 2753 2575 2939 
Q 2822 3125 2822 3475 
Q 2822 3834 2567 4026 
Q 2313 4219 1838 4219 
Q 1578 4219 1281 4162 
Q 984 4106 628 3988 
L 628 4550 
Q 988 4650 1302 4700 
Q 1616 4750 1894 4750 
Q 2613 4750 3031 4423 
Q 3450 4097 3450 3541 
Q 3450 3153 3228 2886 
Q 3006 2619 2597 2516 
z
" transform="scale(0.015625)"/>
       </defs>
       <use xlink:href="#DejaVuSans-33"/>
      </g>
     </g>
    </g>
    <g id="ytick_7">
     <g id="line2d_12">
      <g>
       <use xlink:href="#m5673127424" x="46.55" y="111.057157" style="stroke: #000000; stroke-width: 0.8"/>
      </g>
     </g>
     <g id="text_13">
      <!-- 4 -->
      <g transform="translate(33.1875 114.856375)scale(0.1 -0.1)">
       <use xlink:href="#DejaVuSans-34"/>
      </g>
     </g>
    </g>
    <g id="ytick_8">
     <g id="line2d_13">
      <g>
       <use xlink:href="#m5673127424" x="46.55" y="78.856355" style="stroke: #000000; stroke-width: 0.8"/>
      </g>
     </g>
     <g id="text_14">
      <!-- 5 -->
      <g transform="translate(33.1875 82.655573)scale(0.1 -0.1)">
       <defs>
        <path id="DejaVuSans-35" d="M 691 4666 
L 3169 4666 
L 3169 4134 
L 1269 4134 
L 1269 2991 
Q 1406 3038 1543 3061 
Q 1681 3084 1819 3084 
Q 2600 3084 3056 2656 
Q 3513 2228 3513 1497 
Q 3513 744 3044 326 
Q 2575 -91 1722 -91 
Q 1428 -91 1123 -41 
Q 819 9 494 109 
L 494 744 
Q 775 591 1075 516 
Q 1375 441 1709 441 
Q 2250 441 2565 725 
Q 2881 1009 2881 1497 
Q 2881 1984 2565 2268 
Q 2250 2553 1709 2553 
Q 1456 2553 1204 2497 
Q 953 2441 691 2322 
L 691 4666 
z
" transform="scale(0.015625)"/>
       </defs>
       <use xlink:href="#DejaVuSans-35"/>
      </g>
     </g>
    </g>
    <g id="text_15">
     <!-- V -->
     <g transform="translate(18.728125 201.322125)rotate(-90)scale(0.1 -0.1)">
      <defs>
       <path id="DejaVuSans-b5" d="M 544 -1331 
L 544 3500 
L 1119 3500 
L 1119 1325 
Q 1119 872 1334 640 
Q 1550 409 1972 409 
Q 2434 409 2667 671 
Q 2900 934 2900 1459 
L 2900 3500 
L 3475 3500 
L 3475 806 
Q 3475 619 3529 530 
Q 3584 441 3700 441 
Q 3728 441 3778 458 
Q 3828 475 3916 513 
L 3916 50 
Q 3788 -22 3673 -56 
Q 3559 -91 3450 -91 
Q 3234 -91 3106 31 
Q 2978 153 2931 403 
Q 2775 156 2548 32 
Q 2322 -91 2016 -91 
Q 1697 -91 1473 31 
Q 1250 153 1119 397 
L 1119 -1331 
L 544 -1331 
z
" transform="scale(0.015625)"/>
       <path id="DejaVuSans-56" d="M 1831 0 
L 50 4666 
L 709 4666 
L 2188 738 
L 3669 4666 
L 4325 4666 
L 2547 0 
L 1831 0 
z
" transform="scale(0.015625)"/>
      </defs>
      <use xlink:href="#DejaVuSans-b5"/>
      <use xlink:href="#DejaVuSans-56" x="63.623047"/>
     </g>
    </g>
   </g>
   <g id="line2d_14">
    <path d="M 46.55 236.60772 
L 47.346238 237.993383 
L 48.142475 238.359431 
L 48.938713 237.844768 
L 49.73495 236.956936 
L 50.531188 236.317493 
L 51.327425 236.371607 
L 52.123663 237.18296 
L 52.9199 238.398131 
L 53.716138 239.394206 
L 54.512375 239.548087 
L 55.308613 238.516058 
L 56.10485 236.408423 
L 57.697325 231.475174 
L 58.493563 230.274738 
L 59.2898 230.66227 
L 60.086038 232.617644 
L 62.47475 241.503627 
L 63.270988 242.95368 
L 64.067226 243.082039 
L 64.863463 242.183665 
L 66.455938 239.568087 
L 67.252176 238.784271 
L 68.048413 238.491062 
L 68.844651 238.414305 
L 69.640888 238.154243 
L 70.437126 237.408104 
L 71.233363 236.145001 
L 72.029601 234.656045 
L 72.825838 233.456788 
L 73.622076 233.082694 
L 74.418313 233.864585 
L 75.214551 235.780703 
L 77.603263 243.673385 
L 78.399501 245.295272 
L 79.195739 246.155752 
L 80.788214 247.095559 
L 81.584451 248.039434 
L 83.973164 252.203935 
L 84.769401 252.115013 
L 85.565639 250.352803 
L 86.361876 246.929907 
L 87.954351 237.827896 
L 88.750589 234.296405 
L 89.546826 232.740808 
L 90.343064 233.552774 
L 91.139301 236.472667 
L 93.528014 248.552535 
L 94.324251 250.515233 
L 95.120489 250.833486 
L 95.916727 249.923625 
L 96.712964 248.520188 
L 97.509202 247.37956 
L 98.305439 247.008166 
L 99.101677 247.509369 
L 100.694152 249.754443 
L 101.490389 250.46867 
L 102.286627 250.439957 
L 103.082864 249.692745 
L 104.675339 247.488628 
L 105.471577 246.948136 
L 106.267814 247.157439 
L 107.064052 248.060041 
L 108.656527 250.625844 
L 109.452764 251.52366 
L 110.249002 251.892565 
L 111.04524 251.826793 
L 111.841477 251.618454 
L 112.637715 251.627355 
L 113.433952 252.126218 
L 114.23019 253.183048 
L 115.822665 256.105574 
L 116.618902 257.223187 
L 117.41514 257.684891 
L 118.211377 257.41148 
L 119.007615 256.568462 
L 120.60009 254.613389 
L 121.396327 254.201137 
L 122.192565 254.3647 
L 122.988802 254.971875 
L 123.78504 255.720266 
L 124.581277 256.260623 
L 125.377515 256.333941 
L 126.173752 255.868244 
L 128.562465 253.146747 
L 129.358703 252.640235 
L 130.15494 252.467231 
L 130.951178 252.43829 
L 131.747415 252.267855 
L 132.543653 251.709306 
L 133.33989 250.680801 
L 134.932365 247.980168 
L 135.728603 247.044614 
L 136.52484 246.822039 
L 137.321078 247.374405 
L 138.913553 249.644365 
L 139.70979 250.375533 
L 140.506028 250.288535 
L 141.302265 249.332722 
L 142.89474 246.452488 
L 143.690978 245.884588 
L 144.487216 246.679011 
L 145.283453 248.963788 
L 147.672166 258.952677 
L 148.468403 260.233061 
L 149.264641 259.388671 
L 150.060878 256.543178 
L 152.449591 244.608552 
L 153.245828 242.853891 
L 154.042066 242.998794 
L 154.838303 244.606956 
L 155.634541 246.752221 
L 156.430778 248.339694 
L 157.227016 248.488055 
L 158.023253 246.842517 
L 158.819491 243.707498 
L 160.411966 236.681167 
L 161.208204 234.876285 
L 162.004441 234.974454 
L 162.800679 236.692388 
L 163.596916 239.071658 
L 164.393154 240.773129 
L 165.189391 240.522926 
L 165.985629 237.55973 
L 166.781866 231.925774 
L 169.170579 210.118721 
L 169.966816 205.913733 
L 170.763054 204.520449 
L 171.559291 205.52564 
L 173.151766 210.256065 
L 173.948004 211.644961 
L 174.744241 211.599596 
L 175.540479 210.405003 
L 176.336717 208.889438 
L 177.132954 208.031846 
L 177.929192 208.51058 
L 178.725429 210.375398 
L 179.521667 212.97624 
L 180.317904 215.179703 
L 181.114142 215.790183 
L 181.910379 214.011608 
L 182.706617 209.767832 
L 185.095329 191.445347 
L 185.891567 187.443826 
L 186.687804 185.480386 
L 187.484042 185.101647 
L 188.280279 185.348754 
L 189.076517 185.170107 
L 189.872754 183.853802 
L 190.668992 181.313807 
L 192.261467 175.303279 
L 193.057705 173.91585 
L 193.853942 174.679249 
L 194.65018 177.682369 
L 197.038892 192.014432 
L 197.83513 194.702538 
L 198.631367 195.009264 
L 199.427605 192.954278 
L 200.223842 189.106336 
L 201.816317 179.771695 
L 202.612555 176.087816 
L 203.408792 173.776294 
L 204.20503 172.845269 
L 205.001267 172.900232 
L 205.797505 173.26899 
L 206.593742 173.185684 
L 207.38998 171.991448 
L 208.186218 169.31257 
L 208.982455 165.176863 
L 211.371168 150.019191 
L 212.167405 146.899585 
L 212.963643 145.802892 
L 213.75988 146.73002 
L 214.556118 149.181958 
L 216.148593 155.090733 
L 216.94483 156.75037 
L 217.741068 156.846894 
L 218.537305 155.440946 
L 220.926018 148.262983 
L 221.722255 147.305324 
L 222.518493 147.798477 
L 223.31473 149.704294 
L 224.110968 152.714172 
L 226.499681 163.526452 
L 227.295918 166.161654 
L 228.092156 167.749558 
L 228.888393 168.166713 
L 229.684631 167.491878 
L 230.480868 166.036151 
L 231.277106 164.327689 
L 232.073343 163.024874 
L 232.869581 162.758299 
L 233.665818 163.938856 
L 234.462056 166.598264 
L 236.850768 177.852817 
L 237.647006 180.000989 
L 238.443243 180.465211 
L 239.239481 179.386194 
L 241.628194 173.354712 
L 242.424431 172.450868 
L 243.220669 172.274198 
L 244.016906 172.345773 
L 244.813144 172.062412 
L 245.609381 170.996964 
L 246.405619 169.125308 
L 247.201856 166.87867 
L 247.998094 164.992144 
L 248.794331 164.207321 
L 249.590569 164.951039 
L 250.386806 167.125846 
L 251.979281 172.941111 
L 252.775519 174.714387 
L 253.571756 174.876304 
L 254.367994 173.453697 
L 255.960469 168.472502 
L 256.756707 166.626567 
L 257.552944 165.922024 
L 258.349182 166.228877 
L 259.145419 166.911636 
L 259.941657 167.096911 
L 260.737894 166.036575 
L 261.534132 163.416779 
L 262.330369 159.487371 
L 263.922844 150.727476 
L 264.719082 147.498098 
L 265.515319 145.533747 
L 266.311557 144.563347 
L 267.107794 143.927176 
L 267.904032 142.882771 
L 268.700269 140.946628 
L 271.088982 132.344506 
L 271.88522 131.126872 
L 272.681457 131.843764 
L 273.477695 134.436395 
L 275.07017 142.157853 
L 275.866407 145.029838 
L 276.662645 145.953499 
L 277.458882 144.555383 
L 278.25512 141.062865 
L 280.643832 126.136644 
L 281.44007 122.56229 
L 282.236307 120.504061 
L 283.032545 119.939388 
L 283.828782 120.602308 
L 284.62502 122.10962 
L 287.013732 127.848782 
L 287.80997 129.051678 
L 288.606208 129.44301 
L 289.402445 128.870959 
L 290.198683 127.34585 
L 291.791158 122.491459 
L 292.587395 120.091422 
L 293.383633 118.382469 
L 294.17987 117.700433 
L 294.976108 118.119322 
L 295.772345 119.437134 
L 298.161058 124.681138 
L 298.957295 125.809219 
L 300.54977 127.398478 
L 301.346008 128.519438 
L 302.142245 130.271363 
L 302.938483 132.778769 
L 304.530958 139.5588 
L 306.123433 146.500952 
L 306.919671 149.083775 
L 307.715908 150.66727 
L 308.512146 151.071714 
L 309.308383 150.249298 
L 310.104621 148.309876 
L 311.697096 142.367634 
L 312.493333 139.331706 
L 313.289571 136.924439 
L 314.085808 135.465335 
L 314.882046 134.980117 
L 315.678283 135.164349 
L 316.474521 135.463362 
L 317.270758 135.260702 
L 318.066996 134.118941 
L 318.863233 131.983181 
L 320.455709 126.709717 
L 321.251946 125.212622 
L 322.048184 125.429421 
L 322.844421 127.548274 
L 323.640659 131.188577 
L 325.233134 139.595891 
L 326.029371 142.672965 
L 326.825609 144.554145 
L 328.418084 146.754742 
L 329.214321 148.777228 
L 330.010559 152.211888 
L 332.399271 166.155233 
L 333.195509 168.227433 
L 333.991746 167.534193 
L 334.787984 164.315636 
L 336.380459 155.36047 
L 337.176697 152.911604 
L 337.972934 153.333115 
L 338.769172 156.582102 
L 340.361647 166.6422 
L 341.157884 170.007383 
L 341.954122 170.577611 
L 342.750359 168.28022 
L 344.342834 159.729318 
L 345.139072 156.915539 
L 345.935309 156.86585 
L 346.731547 159.822177 
L 347.527784 165.029505 
L 349.120259 176.418396 
L 349.916497 180.008741 
L 350.712734 181.571651 
L 351.508972 181.64468 
L 352.30521 181.260159 
L 353.101447 181.461809 
L 353.897685 182.857278 
L 354.693922 185.388947 
L 356.286397 190.991111 
L 357.082635 192.391812 
L 357.878872 192.362911 
L 358.67511 191.274949 
L 359.471347 189.942875 
L 360.267585 189.252077 
L 361.063822 189.744563 
L 361.86006 191.346087 
L 362.656297 193.355765 
L 363.452535 194.710059 
L 364.248772 194.418655 
L 365.04501 191.995754 
L 365.841247 187.713244 
L 367.433722 177.932046 
L 368.22996 175.125235 
L 369.026198 174.886623 
L 369.822435 177.130409 
L 371.41491 185.032444 
L 372.211148 187.969479 
L 373.007385 188.926553 
L 373.803623 187.845227 
L 375.396098 183.004864 
L 376.192335 181.735848 
L 376.988573 182.457478 
L 377.78481 185.223311 
L 379.377285 193.556935 
L 380.173523 196.686395 
L 380.96976 197.899076 
L 381.765998 197.103488 
L 383.358473 192.560306 
L 384.15471 191.099776 
L 384.950948 191.308023 
L 385.747186 193.214421 
L 387.339661 198.853814 
L 388.135898 200.230434 
L 388.932136 199.488161 
L 389.728373 196.583623 
L 392.117086 183.686234 
L 392.913323 181.529575 
L 393.709561 181.157808 
L 394.505798 182.015881 
L 395.302036 183.131456 
L 396.098273 183.526502 
L 396.894511 182.617228 
L 397.690748 180.443357 
L 399.283223 175.158568 
L 400.079461 173.882663 
L 400.875699 174.249592 
L 401.671936 176.077247 
L 403.264411 180.937351 
L 404.060649 182.130736 
L 404.856886 181.82093 
L 405.653124 180.202675 
L 407.245599 175.91293 
L 408.041836 174.770067 
L 408.838074 174.755399 
L 409.634311 175.602095 
L 410.430549 176.7032 
L 411.226786 177.423123 
L 412.023024 177.41877 
L 413.615499 176.24027 
L 413.615499 176.24027 
" clip-path="url(#p4aa7a594fc)" style="fill: none; stroke: #e41a1c; stroke-width: 1.5; stroke-linecap: square"/>
   </g>
   <g id="line2d_15">
    <path d="M 46.55 224.977592 
L 47.346238 224.100057 
L 48.142475 224.030555 
L 48.938713 224.52672 
L 49.73495 225.214923 
L 50.531188 225.715259 
L 51.327425 225.781359 
L 52.123663 225.405346 
L 52.9199 224.84441 
L 53.716138 224.549797 
L 54.512375 225.014666 
L 55.308613 226.589787 
L 56.10485 229.33315 
L 58.493563 240.328229 
L 59.2898 242.730672 
L 60.086038 243.692846 
L 60.882275 243.214414 
L 61.678513 241.643182 
L 63.270988 237.504623 
L 64.067226 235.96534 
L 64.863463 235.109122 
L 65.659701 234.868124 
L 66.455938 235.019323 
L 68.844651 236.029711 
L 69.640888 236.599327 
L 70.437126 237.52166 
L 71.233363 238.851116 
L 72.825838 242.045936 
L 73.622076 243.229895 
L 74.418313 243.710478 
L 75.214551 243.414873 
L 76.807026 241.730555 
L 77.603263 241.526721 
L 78.399501 242.565174 
L 79.195739 245.159516 
L 79.991976 249.201406 
L 81.584451 259.130633 
L 82.380689 263.207801 
L 83.176926 265.603013 
L 83.973164 265.940726 
L 84.769401 264.357009 
L 87.158114 255.563938 
L 87.954351 254.324259 
L 88.750589 254.863803 
L 89.546826 257.064552 
L 91.935539 267.018651 
L 92.731776 268.895533 
L 93.528014 269.340621 
L 94.324251 268.504143 
L 96.712964 263.71271 
L 97.509202 263.209946 
L 98.305439 263.678719 
L 99.101677 264.965603 
L 101.490389 270.203114 
L 102.286627 271.360084 
L 103.082864 271.976551 
L 103.879102 272.051551 
L 104.675339 271.619254 
L 105.471577 270.725165 
L 106.267814 269.441706 
L 107.860289 266.379216 
L 108.656527 265.193162 
L 109.452764 264.726543 
L 110.249002 265.259313 
L 111.04524 266.845819 
L 113.433952 274.111851 
L 114.23019 275.292252 
L 115.026427 275.102075 
L 115.822665 273.659971 
L 117.41514 269.549274 
L 118.211377 268.56666 
L 119.007615 269.121297 
L 119.803852 271.242487 
L 121.396327 277.734633 
L 122.192565 280.230625 
L 122.988802 281.194164 
L 123.78504 280.439179 
L 124.581277 278.3694 
L 125.377515 275.833763 
L 126.173752 273.819464 
L 126.96999 273.094233 
L 127.766228 273.929153 
L 128.562465 276.003541 
L 129.358703 278.525284 
L 130.15494 280.520709 
L 130.951178 281.187185 
L 131.747415 280.180824 
L 132.543653 277.737589 
L 134.136128 271.698646 
L 134.932365 269.941102 
L 135.728603 269.798221 
L 136.52484 271.216127 
L 138.913553 278.1411 
L 139.70979 278.799204 
L 140.506028 278.082737 
L 141.302265 276.317333 
L 142.89474 272.218322 
L 143.690978 271.088503 
L 144.487216 270.911929 
L 145.283453 271.486563 
L 146.079691 272.343803 
L 146.875928 272.942227 
L 147.672166 272.875923 
L 148.468403 272.021806 
L 150.857116 267.712039 
L 151.653353 267.189747 
L 152.449591 267.542457 
L 153.245828 268.611726 
L 154.838303 271.225146 
L 155.634541 271.852516 
L 156.430778 271.656138 
L 157.227016 270.65776 
L 160.411966 264.636624 
L 161.208204 264.096425 
L 162.004441 264.154283 
L 162.800679 264.738875 
L 163.596916 265.750091 
L 164.393154 267.089083 
L 167.578104 273.273595 
L 168.374341 274.148408 
L 169.170579 274.449782 
L 169.966816 274.219612 
L 171.559291 273.159581 
L 172.355529 273.034855 
L 173.151766 273.531244 
L 173.948004 274.628864 
L 174.744241 276.014087 
L 175.540479 277.144953 
L 176.336717 277.415701 
L 177.132954 276.37049 
L 177.929192 273.89127 
L 180.317904 262.621447 
L 181.114142 260.22738 
L 181.910379 259.526525 
L 182.706617 260.508514 
L 183.502854 262.686558 
L 184.299092 265.257322 
L 185.095329 267.364197 
L 185.891567 268.373559 
L 186.687804 268.068548 
L 187.484042 266.693653 
L 189.076517 263.206321 
L 189.872754 262.353181 
L 190.668992 262.493081 
L 191.46523 263.437561 
L 192.261467 264.688659 
L 193.057705 265.646648 
L 193.853942 265.851872 
L 194.65018 265.166304 
L 197.038892 261.272995 
L 197.83513 261.03032 
L 198.631367 261.652706 
L 200.223842 263.850033 
L 201.02008 264.16634 
L 201.816317 263.325072 
L 202.612555 261.315463 
L 204.20503 255.805851 
L 205.001267 253.78528 
L 205.797505 252.987308 
L 206.593742 253.413964 
L 208.186218 255.554216 
L 208.982455 255.527672 
L 209.778693 253.908687 
L 210.57493 250.698941 
L 212.167405 242.425036 
L 212.963643 239.56702 
L 213.75988 238.780106 
L 214.556118 240.288385 
L 215.352355 243.616104 
L 216.94483 251.491738 
L 217.741068 253.880488 
L 218.537305 254.513642 
L 219.333543 253.661392 
L 220.12978 252.126178 
L 220.926018 250.905744 
L 221.722255 250.791042 
L 222.518493 252.054817 
L 224.907206 258.647611 
L 225.703443 259.014294 
L 226.499681 257.835971 
L 228.092156 253.333568 
L 228.888393 252.06535 
L 229.684631 252.614536 
L 230.480868 255.206888 
L 231.277106 259.417997 
L 232.869581 268.898066 
L 233.665818 272.261466 
L 234.462056 274.078265 
L 235.258293 274.564564 
L 236.850768 274.217939 
L 237.647006 274.72854 
L 238.443243 276.066124 
L 240.035719 279.887943 
L 240.831956 281.217495 
L 241.628194 281.566464 
L 242.424431 280.89526 
L 244.813144 276.614467 
L 245.609381 275.89432 
L 246.405619 275.775203 
L 248.794331 276.495999 
L 249.590569 276.346427 
L 251.979281 275.392421 
L 253.571756 275.063532 
L 254.367994 274.566271 
L 255.164231 273.576241 
L 255.960469 272.094755 
L 257.552944 268.798869 
L 258.349182 267.828814 
L 259.145419 267.695183 
L 259.941657 268.312725 
L 260.737894 269.253685 
L 261.534132 269.879582 
L 262.330369 269.578718 
L 263.126607 268.019257 
L 263.922844 265.313737 
L 265.515319 258.969295 
L 266.311557 256.969631 
L 267.107794 256.50886 
L 267.904032 257.558474 
L 269.496507 261.652885 
L 270.292744 262.921402 
L 271.088982 262.805602 
L 271.88522 261.285688 
L 273.477695 256.617331 
L 274.273932 255.378398 
L 275.07017 255.859213 
L 275.866407 258.1549 
L 278.25512 268.655718 
L 279.051357 269.970875 
L 279.847595 269.185918 
L 280.643832 266.562874 
L 282.236307 259.262272 
L 283.032545 256.648036 
L 283.828782 255.68794 
L 284.62502 256.48723 
L 285.421257 258.640245 
L 287.013732 263.93094 
L 287.80997 265.556706 
L 288.606208 265.922435 
L 289.402445 265.037706 
L 290.198683 263.205092 
L 292.587395 256.422962 
L 293.383633 254.787239 
L 294.17987 253.605596 
L 294.976108 252.783097 
L 296.568583 251.714799 
L 298.957295 250.551881 
L 299.753533 250.297937 
L 300.54977 250.180766 
L 301.346008 250.239792 
L 302.142245 250.494384 
L 302.938483 250.932929 
L 306.919671 253.773841 
L 308.512146 254.710961 
L 309.308383 255.371119 
L 310.900858 257.198977 
L 311.697096 258.137882 
L 312.493333 258.824706 
L 313.289571 259.079225 
L 314.085808 258.844608 
L 315.678283 257.565518 
L 316.474521 257.192898 
L 317.270758 257.463008 
L 318.066996 258.537676 
L 318.863233 260.318765 
L 320.455709 264.438682 
L 321.251946 265.783865 
L 322.048184 266.188731 
L 322.844421 265.656402 
L 324.436896 263.281142 
L 325.233134 262.567602 
L 326.029371 262.814367 
L 326.825609 264.189703 
L 327.621846 266.536141 
L 329.214321 272.303102 
L 330.010559 274.622317 
L 330.806796 275.99909 
L 331.603034 276.270925 
L 332.399271 275.5027 
L 333.195509 273.940207 
L 335.584221 268.242999 
L 336.380459 267.276582 
L 337.176697 267.249674 
L 337.972934 268.250685 
L 338.769172 270.178918 
L 341.157884 277.811678 
L 341.954122 279.349104 
L 342.750359 279.814553 
L 343.546597 279.249631 
L 345.935309 275.509468 
L 346.731547 275.22576 
L 347.527784 275.794768 
L 349.916497 279.160164 
L 350.712734 279.169193 
L 351.508972 278.132408 
L 352.30521 276.18168 
L 353.897685 271.193165 
L 354.693922 269.127787 
L 355.49016 267.820072 
L 356.286397 267.380626 
L 357.082635 267.735351 
L 357.878872 268.691198 
L 361.063822 274.006458 
L 361.86006 274.803537 
L 362.656297 275.173805 
L 363.452535 275.14383 
L 365.04501 274.592465 
L 365.841247 274.649308 
L 366.637485 275.292885 
L 367.433722 276.609024 
L 369.822435 281.846833 
L 370.618673 282.422877 
L 371.41491 281.854998 
L 372.211148 280.284283 
L 373.803623 276.363013 
L 374.59986 275.409115 
L 375.396098 275.739942 
L 376.192335 277.283127 
L 377.78481 281.573389 
L 378.581048 282.656775 
L 379.377285 282.211928 
L 380.173523 280.193358 
L 382.562235 271.010606 
L 383.358473 269.646062 
L 384.15471 269.832824 
L 384.950948 271.269869 
L 386.543423 275.057353 
L 387.339661 275.993625 
L 388.135898 275.858575 
L 388.932136 274.876952 
L 389.728373 273.616672 
L 390.524611 272.759344 
L 391.320848 272.838174 
L 392.117086 274.040916 
L 392.913323 276.143741 
L 394.505798 280.691843 
L 395.302036 281.839048 
L 396.098273 281.707798 
L 396.894511 280.338334 
L 399.283223 273.401352 
L 400.079461 272.007289 
L 400.875699 271.622322 
L 401.671936 272.169899 
L 404.060649 275.470803 
L 404.856886 275.524241 
L 405.653124 274.522177 
L 406.449361 272.488434 
L 408.838074 264.080038 
L 409.634311 262.402406 
L 410.430549 262.033924 
L 411.226786 262.999812 
L 412.023024 264.94381 
L 412.819261 267.191382 
L 413.615499 268.920207 
L 413.615499 268.920207 
" clip-path="url(#p4aa7a594fc)" style="fill: none; stroke: #377eb8; stroke-width: 1.5; stroke-linecap: square"/>
   </g>
   <g id="line2d_16">
    <path d="M 87.158114 318.2 
L 87.158114 71.241125 
" clip-path="url(#p4aa7a594fc)" style="fill: none; stroke: #000000; stroke-width: 0.5; stroke-linecap: square"/>
   </g>
   <g id="line2d_17">
    <path d="M 46.55 239.860365 
L 413.615499 239.860365 
" clip-path="url(#p4aa7a594fc)" style="fill: none; stroke: #000000; stroke-width: 0.5; stroke-linecap: square"/>
   </g>
   <g id="patch_4">
    <path d="M 46.55 318.2 
L 46.55 71.241125 
" style="fill: none; stroke: #000000; stroke-width: 0.8; stroke-linejoin: miter; stroke-linecap: square"/>
   </g>
   <g id="patch_5">
    <path d="M 413.615499 318.2 
L 413.615499 71.241125 
" style="fill: none; stroke: #000000; stroke-width: 0.8; stroke-linejoin: miter; stroke-linecap: square"/>
   </g>
   <g id="patch_6">
    <path d="M 46.55 318.2 
L 413.615499 318.2 
" style="fill: none; stroke: #000000; stroke-width: 0.8; stroke-linejoin: miter; stroke-linecap: square"/>
   </g>
   <g id="patch_7">
    <path d="M 46.55 71.241125 
L 413.615499 71.241125 
" style="fill: none; stroke: #000000; stroke-width: 0.8; stroke-linejoin: miter; stroke-linecap: square"/>
   </g>
   <g id="text_16">
    <!-- Cz -->
    <g transform="translate(222.743999 65.241125)scale(0.12 -0.12)">
     <defs>
      <path id="DejaVuSans-43" d="M 4122 4306 
L 4122 3641 
Q 3803 3938 3442 4084 
Q 3081 4231 2675 4231 
Q 1875 4231 1450 3742 
Q 1025 3253 1025 2328 
Q 1025 1406 1450 917 
Q 1875 428 2675 428 
Q 3081 428 3442 575 
Q 3803 722 4122 1019 
L 4122 359 
Q 3791 134 3420 21 
Q 3050 -91 2638 -91 
Q 1578 -91 968 557 
Q 359 1206 359 2328 
Q 359 3453 968 4101 
Q 1578 4750 2638 4750 
Q 3056 4750 3426 4639 
Q 3797 4528 4122 4306 
z
" transform="scale(0.015625)"/>
      <path id="DejaVuSans-7a" d="M 353 3500 
L 3084 3500 
L 3084 2975 
L 922 459 
L 3084 459 
L 3084 0 
L 275 0 
L 275 525 
L 2438 3041 
L 353 3041 
L 353 3500 
z
" transform="scale(0.015625)"/>
     </defs>
     <use xlink:href="#DejaVuSans-43"/>
     <use xlink:href="#DejaVuSans-7a" x="69.824219"/>
    </g>
   </g>
   <g id="legend_1">
    <g id="patch_8">
     <path d="M 99.855406 48.044893 
L 360.310093 48.044893 
Q 362.310093 48.044893 362.310093 46.044893 
L 362.310093 17.410517 
Q 362.310093 15.410517 360.310093 15.410517 
L 99.855406 15.410517 
Q 97.855406 15.410517 97.855406 17.410517 
L 97.855406 46.044893 
Q 97.855406 48.044893 99.855406 48.044893 
z
" style="fill: #ffffff; opacity: 0.8; stroke: #cccccc; stroke-linejoin: miter"/>
    </g>
    <g id="text_17">
     <!-- Average of Session 29_tac4 -->
     <g transform="translate(161.068687 27.008955)scale(0.1 -0.1)">
      <defs>
       <path id="DejaVuSans-41" d="M 2188 4044 
L 1331 1722 
L 3047 1722 
L 2188 4044 
z
M 1831 4666 
L 2547 4666 
L 4325 0 
L 3669 0 
L 3244 1197 
L 1141 1197 
L 716 0 
L 50 0 
L 1831 4666 
z
" transform="scale(0.015625)"/>
       <path id="DejaVuSans-76" d="M 191 3500 
L 800 3500 
L 1894 563 
L 2988 3500 
L 3597 3500 
L 2284 0 
L 1503 0 
L 191 3500 
z
" transform="scale(0.015625)"/>
       <path id="DejaVuSans-72" d="M 2631 2963 
Q 2534 3019 2420 3045 
Q 2306 3072 2169 3072 
Q 1681 3072 1420 2755 
Q 1159 2438 1159 1844 
L 1159 0 
L 581 0 
L 581 3500 
L 1159 3500 
L 1159 2956 
Q 1341 3275 1631 3429 
Q 1922 3584 2338 3584 
Q 2397 3584 2469 3576 
Q 2541 3569 2628 3553 
L 2631 2963 
z
" transform="scale(0.015625)"/>
       <path id="DejaVuSans-61" d="M 2194 1759 
Q 1497 1759 1228 1600 
Q 959 1441 959 1056 
Q 959 750 1161 570 
Q 1363 391 1709 391 
Q 2188 391 2477 730 
Q 2766 1069 2766 1631 
L 2766 1759 
L 2194 1759 
z
M 3341 1997 
L 3341 0 
L 2766 0 
L 2766 531 
Q 2569 213 2275 61 
Q 1981 -91 1556 -91 
Q 1019 -91 701 211 
Q 384 513 384 1019 
Q 384 1609 779 1909 
Q 1175 2209 1959 2209 
L 2766 2209 
L 2766 2266 
Q 2766 2663 2505 2880 
Q 2244 3097 1772 3097 
Q 1472 3097 1187 3025 
Q 903 2953 641 2809 
L 641 3341 
Q 956 3463 1253 3523 
Q 1550 3584 1831 3584 
Q 2591 3584 2966 3190 
Q 3341 2797 3341 1997 
z
" transform="scale(0.015625)"/>
       <path id="DejaVuSans-67" d="M 2906 1791 
Q 2906 2416 2648 2759 
Q 2391 3103 1925 3103 
Q 1463 3103 1205 2759 
Q 947 2416 947 1791 
Q 947 1169 1205 825 
Q 1463 481 1925 481 
Q 2391 481 2648 825 
Q 2906 1169 2906 1791 
z
M 3481 434 
Q 3481 -459 3084 -895 
Q 2688 -1331 1869 -1331 
Q 1566 -1331 1297 -1286 
Q 1028 -1241 775 -1147 
L 775 -588 
Q 1028 -725 1275 -790 
Q 1522 -856 1778 -856 
Q 2344 -856 2625 -561 
Q 2906 -266 2906 331 
L 2906 616 
Q 2728 306 2450 153 
Q 2172 0 1784 0 
Q 1141 0 747 490 
Q 353 981 353 1791 
Q 353 2603 747 3093 
Q 1141 3584 1784 3584 
Q 2172 3584 2450 3431 
Q 2728 3278 2906 2969 
L 2906 3500 
L 3481 3500 
L 3481 434 
z
" transform="scale(0.015625)"/>
       <path id="DejaVuSans-20" transform="scale(0.015625)"/>
       <path id="DejaVuSans-66" d="M 2375 4863 
L 2375 4384 
L 1825 4384 
Q 1516 4384 1395 4259 
Q 1275 4134 1275 3809 
L 1275 3500 
L 2222 3500 
L 2222 3053 
L 1275 3053 
L 1275 0 
L 697 0 
L 697 3053 
L 147 3053 
L 147 3500 
L 697 3500 
L 697 3744 
Q 697 4328 969 4595 
Q 1241 4863 1831 4863 
L 2375 4863 
z
" transform="scale(0.015625)"/>
       <path id="DejaVuSans-53" d="M 3425 4513 
L 3425 3897 
Q 3066 4069 2747 4153 
Q 2428 4238 2131 4238 
Q 1616 4238 1336 4038 
Q 1056 3838 1056 3469 
Q 1056 3159 1242 3001 
Q 1428 2844 1947 2747 
L 2328 2669 
Q 3034 2534 3370 2195 
Q 3706 1856 3706 1288 
Q 3706 609 3251 259 
Q 2797 -91 1919 -91 
Q 1588 -91 1214 -16 
Q 841 59 441 206 
L 441 856 
Q 825 641 1194 531 
Q 1563 422 1919 422 
Q 2459 422 2753 634 
Q 3047 847 3047 1241 
Q 3047 1584 2836 1778 
Q 2625 1972 2144 2069 
L 1759 2144 
Q 1053 2284 737 2584 
Q 422 2884 422 3419 
Q 422 4038 858 4394 
Q 1294 4750 2059 4750 
Q 2388 4750 2728 4690 
Q 3069 4631 3425 4513 
z
" transform="scale(0.015625)"/>
       <path id="DejaVuSans-69" d="M 603 3500 
L 1178 3500 
L 1178 0 
L 603 0 
L 603 3500 
z
M 603 4863 
L 1178 4863 
L 1178 4134 
L 603 4134 
L 603 4863 
z
" transform="scale(0.015625)"/>
       <path id="DejaVuSans-39" d="M 703 97 
L 703 672 
Q 941 559 1184 500 
Q 1428 441 1663 441 
Q 2288 441 2617 861 
Q 2947 1281 2994 2138 
Q 2813 1869 2534 1725 
Q 2256 1581 1919 1581 
Q 1219 1581 811 2004 
Q 403 2428 403 3163 
Q 403 3881 828 4315 
Q 1253 4750 1959 4750 
Q 2769 4750 3195 4129 
Q 3622 3509 3622 2328 
Q 3622 1225 3098 567 
Q 2575 -91 1691 -91 
Q 1453 -91 1209 -44 
Q 966 3 703 97 
z
M 1959 2075 
Q 2384 2075 2632 2365 
Q 2881 2656 2881 3163 
Q 2881 3666 2632 3958 
Q 2384 4250 1959 4250 
Q 1534 4250 1286 3958 
Q 1038 3666 1038 3163 
Q 1038 2656 1286 2365 
Q 1534 2075 1959 2075 
z
" transform="scale(0.015625)"/>
       <path id="DejaVuSans-5f" d="M 3263 -1063 
L 3263 -1509 
L -63 -1509 
L -63 -1063 
L 3263 -1063 
z
" transform="scale(0.015625)"/>
       <path id="DejaVuSans-74" d="M 1172 4494 
L 1172 3500 
L 2356 3500 
L 2356 3053 
L 1172 3053 
L 1172 1153 
Q 1172 725 1289 603 
Q 1406 481 1766 481 
L 2356 481 
L 2356 0 
L 1766 0 
Q 1100 0 847 248 
Q 594 497 594 1153 
L 594 3053 
L 172 3053 
L 172 3500 
L 594 3500 
L 594 4494 
L 1172 4494 
z
" transform="scale(0.015625)"/>
      </defs>
      <use xlink:href="#DejaVuSans-41"/>
      <use xlink:href="#DejaVuSans-76" x="62.533203"/>
      <use xlink:href="#DejaVuSans-65" x="121.712891"/>
      <use xlink:href="#DejaVuSans-72" x="183.236328"/>
      <use xlink:href="#DejaVuSans-61" x="224.349609"/>
      <use xlink:href="#DejaVuSans-67" x="285.628906"/>
      <use xlink:href="#DejaVuSans-65" x="349.105469"/>
      <use xlink:href="#DejaVuSans-20" x="410.628906"/>
      <use xlink:href="#DejaVuSans-6f" x="442.416016"/>
      <use xlink:href="#DejaVuSans-66" x="503.597656"/>
      <use xlink:href="#DejaVuSans-20" x="538.802734"/>
      <use xlink:href="#DejaVuSans-53" x="570.589844"/>
      <use xlink:href="#DejaVuSans-65" x="634.066406"/>
      <use xlink:href="#DejaVuSans-73" x="695.589844"/>
      <use xlink:href="#DejaVuSans-73" x="747.689453"/>
      <use xlink:href="#DejaVuSans-69" x="799.789062"/>
      <use xlink:href="#DejaVuSans-6f" x="827.572266"/>
      <use xlink:href="#DejaVuSans-6e" x="888.753906"/>
      <use xlink:href="#DejaVuSans-20" x="952.132812"/>
      <use xlink:href="#DejaVuSans-32" x="983.919922"/>
      <use xlink:href="#DejaVuSans-39" x="1047.542969"/>
      <use xlink:href="#DejaVuSans-5f" x="1111.166016"/>
      <use xlink:href="#DejaVuSans-74" x="1161.166016"/>
      <use xlink:href="#DejaVuSans-61" x="1200.375"/>
      <use xlink:href="#DejaVuSans-63" x="1261.654297"/>
      <use xlink:href="#DejaVuSans-34" x="1316.634766"/>
     </g>
    </g>
    <g id="line2d_18">
     <path d="M 101.855406 38.465205 
L 111.855406 38.465205 
L 121.855406 38.465205 
" style="fill: none; stroke: #e41a1c; stroke-width: 1.5; stroke-linecap: square"/>
    </g>
    <g id="text_18">
     <!-- Target (n=398) -->
     <g transform="translate(129.855406 41.965205)scale(0.1 -0.1)">
      <defs>
       <path id="DejaVuSans-54" d="M -19 4666 
L 3928 4666 
L 3928 4134 
L 2272 4134 
L 2272 0 
L 1638 0 
L 1638 4134 
L -19 4134 
L -19 4666 
z
" transform="scale(0.015625)"/>
       <path id="DejaVuSans-28" d="M 1984 4856 
Q 1566 4138 1362 3434 
Q 1159 2731 1159 2009 
Q 1159 1288 1364 580 
Q 1569 -128 1984 -844 
L 1484 -844 
Q 1016 -109 783 600 
Q 550 1309 550 2009 
Q 550 2706 781 3412 
Q 1013 4119 1484 4856 
L 1984 4856 
z
" transform="scale(0.015625)"/>
       <path id="DejaVuSans-3d" d="M 678 2906 
L 4684 2906 
L 4684 2381 
L 678 2381 
L 678 2906 
z
M 678 1631 
L 4684 1631 
L 4684 1100 
L 678 1100 
L 678 1631 
z
" transform="scale(0.015625)"/>
       <path id="DejaVuSans-29" d="M 513 4856 
L 1013 4856 
Q 1481 4119 1714 3412 
Q 1947 2706 1947 2009 
Q 1947 1309 1714 600 
Q 1481 -109 1013 -844 
L 513 -844 
Q 928 -128 1133 580 
Q 1338 1288 1338 2009 
Q 1338 2731 1133 3434 
Q 928 4138 513 4856 
z
" transform="scale(0.015625)"/>
      </defs>
      <use xlink:href="#DejaVuSans-54"/>
      <use xlink:href="#DejaVuSans-61" x="44.583984"/>
      <use xlink:href="#DejaVuSans-72" x="105.863281"/>
      <use xlink:href="#DejaVuSans-67" x="145.226562"/>
      <use xlink:href="#DejaVuSans-65" x="208.703125"/>
      <use xlink:href="#DejaVuSans-74" x="270.226562"/>
      <use xlink:href="#DejaVuSans-20" x="309.435547"/>
      <use xlink:href="#DejaVuSans-28" x="341.222656"/>
      <use xlink:href="#DejaVuSans-6e" x="380.236328"/>
      <use xlink:href="#DejaVuSans-3d" x="443.615234"/>
      <use xlink:href="#DejaVuSans-33" x="527.404297"/>
      <use xlink:href="#DejaVuSans-39" x="591.027344"/>
      <use xlink:href="#DejaVuSans-38" x="654.650391"/>
      <use xlink:href="#DejaVuSans-29" x="718.273438"/>
     </g>
    </g>
    <g id="line2d_19">
     <path d="M 225.585093 38.465205 
L 235.585093 38.465205 
L 245.585093 38.465205 
" style="fill: none; stroke: #377eb8; stroke-width: 1.5; stroke-linecap: square"/>
    </g>
    <g id="text_19">
     <!-- Non-Target (n=1201) -->
     <g transform="translate(253.585093 41.965205)scale(0.1 -0.1)">
      <defs>
       <path id="DejaVuSans-4e" d="M 628 4666 
L 1478 4666 
L 3547 763 
L 3547 4666 
L 4159 4666 
L 4159 0 
L 3309 0 
L 1241 3903 
L 1241 0 
L 628 0 
L 628 4666 
z
" transform="scale(0.015625)"/>
       <path id="DejaVuSans-2d" d="M 313 2009 
L 1997 2009 
L 1997 1497 
L 313 1497 
L 313 2009 
z
" transform="scale(0.015625)"/>
      </defs>
      <use xlink:href="#DejaVuSans-4e"/>
      <use xlink:href="#DejaVuSans-6f" x="74.804688"/>
      <use xlink:href="#DejaVuSans-6e" x="135.986328"/>
      <use xlink:href="#DejaVuSans-2d" x="199.365234"/>
      <use xlink:href="#DejaVuSans-54" x="226.324219"/>
      <use xlink:href="#DejaVuSans-61" x="270.908203"/>
      <use xlink:href="#DejaVuSans-72" x="332.1875"/>
      <use xlink:href="#DejaVuSans-67" x="371.550781"/>
      <use xlink:href="#DejaVuSans-65" x="435.027344"/>
      <use xlink:href="#DejaVuSans-74" x="496.550781"/>
      <use xlink:href="#DejaVuSans-20" x="535.759766"/>
      <use xlink:href="#DejaVuSans-28" x="567.546875"/>
      <use xlink:href="#DejaVuSans-6e" x="606.560547"/>
      <use xlink:href="#DejaVuSans-3d" x="669.939453"/>
      <use xlink:href="#DejaVuSans-31" x="753.728516"/>
      <use xlink:href="#DejaVuSans-32" x="817.351562"/>
      <use xlink:href="#DejaVuSans-30" x="880.974609"/>
      <use xlink:href="#DejaVuSans-31" x="944.597656"/>
      <use xlink:href="#DejaVuSans-29" x="1008.220703"/>
     </g>
    </g>
   </g>
  </g>
 </g>
 <defs>
  <clipPath id="p4aa7a594fc">
   <rect x="46.55" y="71.241125" width="367.065499" height="246.958875"/>
  </clipPath>
 </defs>
</svg>
