<?xml version="1.0" encoding="utf-8" standalone="no"?>
<!DOCTYPE svg PUBLIC "-//W3C//DTD SVG 1.1//EN"
  "http://www.w3.org/Graphics/SVG/1.1/DTD/svg11.dtd">
<svg xmlns:xlink="http://www.w3.org/1999/xlink" width="432pt" height="360pt" viewBox="0 0 432 360" xmlns="http://www.w3.org/2000/svg" version="1.1">
 <metadata>
  <rdf:RDF xmlns:dc="http://purl.org/dc/elements/1.1/" xmlns:cc="http://creativecommons.org/ns#" xmlns:rdf="http://www.w3.org/1999/02/22-rdf-syntax-ns#">
   <cc:Work>
    <dc:type rdf:resource="http://purl.org/dc/dcmitype/StillImage"/>
    <dc:date>2022-11-02T16:57:10.908389</dc:date>
    <dc:format>image/svg+xml</dc:format>
    <dc:creator>
     <cc:Agent>
      <dc:title>Matplotlib v3.5.1, https://matplotlib.org/</dc:title>
     </cc:Agent>
    </dc:creator>
   </cc:Work>
  </rdf:RDF>
 </metadata>
 <defs>
  <style type="text/css">*{stroke-linejoin: round; stroke-linecap: butt}</style>
 </defs>
 <g id="figure_1">
  <g id="patch_1">
   <path d="M 0 360 
L 432 360 
L 432 0 
L 0 0 
L 0 360 
z
" style="fill: none"/>
  </g>
  <g id="axes_1">
   <g id="patch_2">
    <path d="M 46.55 318.2 
L 413.615499 318.2 
L 413.615499 71.241125 
L 46.55 71.241125 
L 46.55 318.2 
z
" style="fill: none"/>
   </g>
   <g id="PolyCollection_1">
    <defs>
     <path id="m3a70a31d1f" d="M 46.55 -133.723827 
L 46.55 -88.462898 
L 47.346238 -90.412891 
L 48.142475 -91.419564 
L 48.938713 -91.372519 
L 49.73495 -90.309225 
L 50.531188 -88.512148 
L 51.327425 -86.518097 
L 52.123663 -84.976298 
L 52.9199 -84.392398 
L 53.716138 -84.899309 
L 54.512375 -86.192619 
L 55.308613 -87.679363 
L 56.10485 -88.786494 
L 56.901088 -89.277754 
L 57.697325 -89.3798 
L 58.493563 -89.626204 
L 59.2898 -90.531405 
L 60.086038 -92.300985 
L 60.882275 -94.723917 
L 61.678513 -97.252056 
L 62.47475 -99.167838 
L 63.270988 -99.778851 
L 64.067226 -98.648692 
L 64.863463 -95.833849 
L 65.659701 -92.012813 
L 66.455938 -88.368312 
L 67.252176 -86.181257 
L 68.048413 -86.302926 
L 68.844651 -88.791152 
L 69.640888 -92.904032 
L 70.437126 -97.427931 
L 71.233363 -101.129329 
L 72.029601 -103.117288 
L 72.825838 -103.049851 
L 73.622076 -101.18702 
L 74.418313 -98.275301 
L 75.214551 -95.269477 
L 76.010788 -92.989965 
L 76.807026 -91.880472 
L 77.603263 -91.964745 
L 78.399501 -92.947658 
L 79.195739 -94.346349 
L 79.991976 -95.610632 
L 80.788214 -96.251465 
L 81.584451 -95.97512 
L 82.380689 -94.762568 
L 83.176926 -92.819775 
L 83.973164 -90.426929 
L 84.769401 -87.823719 
L 85.565639 -85.209237 
L 86.361876 -82.799177 
L 87.158114 -80.83894 
L 87.954351 -79.547776 
L 88.750589 -79.043042 
L 89.546826 -79.294525 
L 90.343064 -80.121191 
L 91.139301 -81.224385 
L 91.935539 -82.260525 
L 92.731776 -82.942888 
L 93.528014 -83.125621 
L 94.324251 -82.820412 
L 95.120489 -82.152545 
L 95.916727 -81.31392 
L 96.712964 -80.545777 
L 97.509202 -80.102022 
L 98.305439 -80.142292 
L 99.101677 -80.623445 
L 99.897914 -81.308739 
L 100.694152 -81.902136 
L 101.490389 -82.193717 
L 102.286627 -82.109665 
L 103.082864 -81.665231 
L 103.879102 -80.895209 
L 104.675339 -79.8307 
L 105.471577 -78.526537 
L 106.267814 -77.09441 
L 107.064052 -75.69172 
L 107.860289 -74.470216 
L 108.656527 -73.534099 
L 109.452764 -72.939763 
L 110.249002 -72.724107 
L 111.04524 -72.92223 
L 111.841477 -73.555529 
L 112.637715 -74.594518 
L 113.433952 -75.927181 
L 114.23019 -77.364316 
L 115.026427 -78.688856 
L 115.822665 -79.725828 
L 116.618902 -80.399544 
L 117.41514 -80.760199 
L 118.211377 -80.97851 
L 119.007615 -81.311813 
L 119.803852 -82.051183 
L 120.60009 -83.461913 
L 121.396327 -85.714339 
L 122.192565 -88.790939 
L 122.988802 -92.395623 
L 123.78504 -95.94677 
L 124.581277 -98.717388 
L 125.377515 -100.093405 
L 126.173752 -99.8306 
L 126.96999 -98.169752 
L 127.766228 -95.744821 
L 128.562465 -93.34003 
L 129.358703 -91.615379 
L 130.15494 -90.891328 
L 130.951178 -91.044242 
L 131.747415 -91.546078 
L 132.543653 -91.662395 
L 133.33989 -90.761973 
L 134.136128 -88.622372 
L 134.932365 -85.583619 
L 135.728603 -82.444605 
L 136.52484 -80.131188 
L 137.321078 -79.307763 
L 138.117315 -80.124513 
L 138.913553 -82.186575 
L 139.70979 -84.714484 
L 140.506028 -86.813857 
L 141.302265 -87.767986 
L 142.098503 -87.267305 
L 142.89474 -85.497966 
L 143.690978 -83.046025 
L 144.487216 -80.648471 
L 145.283453 -78.899169 
L 146.079691 -78.047555 
L 146.875928 -77.977369 
L 147.672166 -78.355526 
L 148.468403 -78.859133 
L 149.264641 -79.358013 
L 150.060878 -79.962202 
L 150.857116 -80.916943 
L 151.653353 -82.411867 
L 152.449591 -84.413772 
L 153.245828 -86.607788 
L 154.042066 -88.463479 
L 154.838303 -89.389782 
L 155.634541 -88.93617 
L 156.430778 -86.990436 
L 157.227016 -83.897638 
L 158.023253 -80.409242 
L 158.819491 -77.44034 
L 159.615729 -75.737135 
L 160.411966 -75.620174 
L 161.208204 -76.914809 
L 162.004441 -79.072686 
L 162.800679 -81.409011 
L 163.596916 -83.360064 
L 164.393154 -84.675392 
L 165.189391 -85.477294 
L 165.985629 -86.161186 
L 166.781866 -87.184258 
L 167.578104 -88.850159 
L 168.374341 -91.192675 
L 169.170579 -93.995729 
L 169.966816 -96.914771 
L 170.763054 -99.631144 
L 171.559291 -101.973098 
L 172.355529 -103.954549 
L 173.151766 -105.715117 
L 173.948004 -107.396737 
L 174.744241 -109.034475 
L 175.540479 -110.525048 
L 176.336717 -111.676231 
L 177.132954 -112.287646 
L 177.929192 -112.222432 
L 178.725429 -111.466411 
L 179.521667 -110.17322 
L 180.317904 -108.662304 
L 181.114142 -107.329551 
L 181.910379 -106.481488 
L 182.706617 -106.177591 
L 183.502854 -106.186031 
L 184.299092 -106.100631 
L 185.095329 -105.564987 
L 185.891567 -104.47264 
L 186.687804 -103.026461 
L 187.484042 -101.643296 
L 188.280279 -100.787891 
L 189.076517 -100.827697 
L 189.872754 -101.937406 
L 190.668992 -104.035896 
L 191.46523 -106.766863 
L 192.261467 -109.58053 
L 193.057705 -111.931716 
L 193.853942 -113.49969 
L 194.65018 -114.287423 
L 195.446417 -114.543757 
L 196.242655 -114.588131 
L 197.038892 -114.668762 
L 197.83513 -114.920187 
L 198.631367 -115.383454 
L 199.427605 -116.017566 
L 200.223842 -116.69444 
L 201.02008 -117.225804 
L 201.816317 -117.437426 
L 202.612555 -117.239343 
L 203.408792 -116.630147 
L 204.20503 -115.632827 
L 205.001267 -114.228892 
L 205.797505 -112.365328 
L 206.593742 -110.043041 
L 207.38998 -107.413205 
L 208.186218 -104.793194 
L 208.982455 -102.587955 
L 209.778693 -101.180582 
L 210.57493 -100.856204 
L 211.371168 -101.760815 
L 212.167405 -103.852654 
L 212.963643 -106.841774 
L 213.75988 -110.186969 
L 214.556118 -113.22143 
L 215.352355 -115.383999 
L 216.148593 -116.428028 
L 216.94483 -116.478687 
L 217.741068 -115.930685 
L 218.537305 -115.288435 
L 219.333543 -115.037257 
L 220.12978 -115.554591 
L 220.926018 -117.03298 
L 221.722255 -119.417191 
L 222.518493 -122.390843 
L 223.31473 -125.434745 
L 224.110968 -127.947088 
L 224.907206 -129.40109 
L 225.703443 -129.506809 
L 226.499681 -128.31857 
L 227.295918 -126.227935 
L 228.092156 -123.837082 
L 228.888393 -121.77758 
L 229.684631 -120.548661 
L 230.480868 -120.402779 
L 231.277106 -121.276082 
L 232.073343 -122.783003 
L 232.869581 -124.318173 
L 233.665818 -125.268264 
L 234.462056 -125.249805 
L 235.258293 -124.254124 
L 236.054531 -122.643803 
L 236.850768 -121.031881 
L 237.647006 -120.096583 
L 238.443243 -120.358899 
L 239.239481 -121.962572 
L 240.035719 -124.548229 
L 240.831956 -127.321216 
L 241.628194 -129.317685 
L 242.424431 -129.748166 
L 243.220669 -128.264819 
L 244.016906 -125.067535 
L 244.813144 -120.843984 
L 245.609381 -116.570167 
L 246.405619 -113.218023 
L 247.201856 -111.457767 
L 247.998094 -111.468407 
L 248.794331 -112.929581 
L 249.590569 -115.178888 
L 250.386806 -117.456075 
L 251.183044 -119.153014 
L 251.979281 -120.006143 
L 252.775519 -120.167387 
L 253.571756 -120.108758 
L 254.367994 -120.394028 
L 255.164231 -121.44303 
L 255.960469 -123.417702 
L 256.756707 -126.250759 
L 257.552944 -129.719917 
L 258.349182 -133.480041 
L 259.145419 -137.071572 
L 259.941657 -139.983828 
L 260.737894 -141.788639 
L 261.534132 -142.268354 
L 262.330369 -141.457983 
L 263.126607 -139.610043 
L 263.922844 -137.155662 
L 264.719082 -134.702963 
L 265.515319 -133.010654 
L 266.311557 -132.848305 
L 267.107794 -134.749438 
L 267.904032 -138.790166 
L 268.700269 -144.53851 
L 269.496507 -151.21218 
L 270.292744 -157.954154 
L 271.088982 -164.084221 
L 271.88522 -169.238727 
L 272.681457 -173.392347 
L 273.477695 -176.789634 
L 274.273932 -179.807903 
L 275.07017 -182.778842 
L 275.866407 -185.827209 
L 276.662645 -188.803012 
L 277.458882 -191.346825 
L 278.25512 -193.048077 
L 279.051357 -193.606633 
L 279.847595 -192.930924 
L 280.643832 -191.16039 
L 281.44007 -188.630428 
L 282.236307 -185.793603 
L 283.032545 -183.114208 
L 283.828782 -180.958467 
L 284.62502 -179.531765 
L 285.421257 -178.893023 
L 286.217495 -179.02912 
L 287.013732 -179.926395 
L 287.80997 -181.578316 
L 288.606208 -183.921949 
L 289.402445 -186.753697 
L 290.198683 -189.691038 
L 290.99492 -192.211809 
L 291.791158 -193.758484 
L 292.587395 -193.87242 
L 293.383633 -192.322147 
L 294.17987 -189.192084 
L 294.976108 -184.892035 
L 295.772345 -180.062068 
L 296.568583 -175.392618 
L 297.36482 -171.4367 
L 298.161058 -168.497765 
L 298.957295 -166.627154 
L 299.753533 -165.699015 
L 300.54977 -165.501679 
L 301.346008 -165.805969 
L 302.142245 -166.402382 
L 302.938483 -167.110447 
L 303.73472 -167.759248 
L 304.530958 -168.161248 
L 305.327196 -168.124059 
L 306.123433 -167.525833 
L 306.919671 -166.423206 
L 307.715908 -165.11227 
L 308.512146 -164.07785 
L 309.308383 -163.834984 
L 310.104621 -164.735002 
L 310.900858 -166.819263 
L 311.697096 -169.770463 
L 312.493333 -172.97462 
L 313.289571 -175.684989 
L 314.085808 -177.255935 
L 314.882046 -177.377282 
L 315.678283 -176.208417 
L 316.474521 -174.330964 
L 317.270758 -172.523084 
L 318.066996 -171.452878 
L 318.863233 -171.425334 
L 319.659471 -172.279186 
L 320.455709 -173.454627 
L 321.251946 -174.189522 
L 322.048184 -173.776384 
L 322.844421 -171.810643 
L 323.640659 -168.357581 
L 324.436896 -163.969138 
L 325.233134 -159.525158 
L 326.029371 -155.952908 
L 326.825609 -153.940172 
L 327.621846 -153.747833 
L 328.418084 -155.161627 
L 329.214321 -157.560861 
L 330.010559 -160.070601 
L 330.806796 -161.773044 
L 331.603034 -161.940626 
L 332.399271 -160.226049 
L 333.195509 -156.742409 
L 333.991746 -152.008543 
L 334.787984 -146.789957 
L 335.584221 -141.902142 
L 336.380459 -138.037585 
L 337.176697 -135.652248 
L 337.972934 -134.920896 
L 338.769172 -135.749319 
L 339.565409 -137.818005 
L 340.361647 -140.636872 
L 341.157884 -143.61252 
L 341.954122 -146.14363 
L 342.750359 -147.74701 
L 343.546597 -148.181265 
L 344.342834 -147.508951 
L 345.139072 -146.055227 
L 345.935309 -144.275689 
L 346.731547 -142.592995 
L 347.527784 -141.270049 
L 348.324022 -140.353362 
L 349.120259 -139.691651 
L 349.916497 -139.019319 
L 350.712734 -138.083913 
L 351.508972 -136.779703 
L 352.30521 -135.232786 
L 353.101447 -133.788888 
L 353.897685 -132.897493 
L 354.693922 -132.934874 
L 355.49016 -134.042244 
L 356.286397 -136.046521 
L 357.082635 -138.492736 
L 357.878872 -140.773662 
L 358.67511 -142.31339 
L 359.471347 -142.750209 
L 360.267585 -142.058672 
L 361.063822 -140.566728 
L 361.86006 -138.850459 
L 362.656297 -137.534373 
L 363.452535 -137.068247 
L 364.248772 -137.5673 
L 365.04501 -138.781929 
L 365.841247 -140.193949 
L 366.637485 -141.204335 
L 367.433722 -141.335271 
L 368.22996 -140.378838 
L 369.026198 -138.442502 
L 369.822435 -135.876306 
L 370.618673 -133.115387 
L 371.41491 -130.513723 
L 372.211148 -128.245112 
L 373.007385 -126.310945 
L 373.803623 -124.626046 
L 374.59986 -123.116872 
L 375.396098 -121.776056 
L 376.192335 -120.660282 
L 376.988573 -119.850653 
L 377.78481 -119.406314 
L 378.581048 -119.325139 
L 379.377285 -119.539177 
L 380.173523 -119.946332 
L 380.96976 -120.458608 
L 381.765998 -121.027021 
L 382.562235 -121.620231 
L 383.358473 -122.176912 
L 384.15471 -122.578073 
L 384.950948 -122.665332 
L 385.747186 -122.290156 
L 386.543423 -121.361033 
L 387.339661 -119.874361 
L 388.135898 -117.932115 
L 388.932136 -115.73894 
L 389.728373 -113.557933 
L 390.524611 -111.622364 
L 391.320848 -110.037471 
L 392.117086 -108.737555 
L 392.913323 -107.528803 
L 393.709561 -106.192614 
L 394.505798 -104.594037 
L 395.302036 -102.75677 
L 396.098273 -100.890977 
L 396.894511 -99.36506 
L 397.690748 -98.606919 
L 398.486986 -98.944233 
L 399.283223 -100.443032 
L 400.079461 -102.835653 
L 400.875699 -105.592513 
L 401.671936 -108.105695 
L 402.468174 -109.893803 
L 403.264411 -110.743176 
L 404.060649 -110.748901 
L 404.856886 -110.255419 
L 405.653124 -109.722301 
L 406.449361 -109.561144 
L 407.245599 -110.003899 
L 408.041836 -111.0493 
L 408.838074 -112.492669 
L 409.634311 -114.008572 
L 410.430549 -115.251571 
L 411.226786 -115.961657 
L 412.023024 -116.057254 
L 412.819261 -115.679824 
L 413.615499 -115.155643 
L 413.615499 -212.479218 
L 413.615499 -212.479218 
L 412.819261 -212.41832 
L 412.023024 -212.296254 
L 411.226786 -211.924824 
L 410.430549 -211.173414 
L 409.634311 -210.018169 
L 408.838074 -208.597743 
L 408.041836 -207.207976 
L 407.245599 -206.202849 
L 406.449361 -205.840218 
L 405.653124 -206.148217 
L 404.856886 -206.878054 
L 404.060649 -207.565226 
L 403.264411 -207.68331 
L 402.468174 -206.843678 
L 401.671936 -204.965954 
L 400.875699 -202.339529 
L 400.079461 -199.539726 
L 399.283223 -197.23717 
L 398.486986 -195.982755 
L 397.690748 -196.043723 
L 396.894511 -197.329419 
L 396.098273 -199.425137 
L 395.302036 -201.738271 
L 394.505798 -203.721766 
L 393.709561 -205.084094 
L 392.913323 -205.879615 
L 392.117086 -206.435011 
L 391.320848 -207.160323 
L 390.524611 -208.352135 
L 389.728373 -210.078001 
L 388.932136 -212.167474 
L 388.135898 -214.286196 
L 387.339661 -216.061716 
L 386.543423 -217.216343 
L 385.747186 -217.66061 
L 384.950948 -217.498672 
L 384.15471 -216.945336 
L 383.358473 -216.212966 
L 382.562235 -215.442102 
L 381.765998 -214.704117 
L 380.96976 -214.044072 
L 380.173523 -213.513724 
L 379.377285 -213.174744 
L 378.581048 -213.084404 
L 377.78481 -213.281572 
L 376.988573 -213.778597 
L 376.192335 -214.560778 
L 375.396098 -215.59812 
L 374.59986 -216.875376 
L 373.803623 -218.41204 
L 373.007385 -220.256178 
L 372.211148 -222.441126 
L 371.41491 -224.930024 
L 370.618673 -227.581841 
L 369.822435 -230.156045 
L 369.026198 -232.352477 
L 368.22996 -233.878913 
L 367.433722 -234.533488 
L 366.637485 -234.289035 
L 365.841247 -233.345769 
L 365.04501 -232.11244 
L 364.248772 -231.099516 
L 363.452535 -230.752933 
L 362.656297 -231.28938 
L 361.86006 -232.604795 
L 361.063822 -234.282394 
L 360.267585 -235.715385 
L 359.471347 -236.306926 
L 358.67511 -235.684522 
L 357.878872 -233.848419 
L 357.082635 -231.187953 
L 356.286397 -228.351025 
L 355.49016 -226.015801 
L 354.693922 -224.660825 
L 353.897685 -224.425846 
L 353.101447 -225.10915 
L 352.30521 -226.285396 
L 351.508972 -227.484634 
L 350.712734 -228.363245 
L 349.916497 -228.811338 
L 349.120259 -228.967762 
L 348.324022 -229.137484 
L 347.527784 -229.641235 
L 346.731547 -230.657313 
L 345.935309 -232.125998 
L 345.139072 -233.758563 
L 344.342834 -235.135775 
L 343.546597 -235.838866 
L 342.750359 -235.561461 
L 341.954122 -234.181297 
L 341.157884 -231.801073 
L 340.361647 -228.760191 
L 339.565409 -225.60056 
L 338.769172 -222.972984 
L 337.972934 -221.49769 
L 337.176697 -221.619174 
L 336.380459 -223.499051 
L 335.584221 -226.97144 
L 334.787984 -231.563623 
L 333.991746 -236.574777 
L 333.195509 -241.201781 
L 332.399271 -244.694347 
L 331.603034 -246.514097 
L 330.806796 -246.470267 
L 330.010559 -244.802581 
L 329.214321 -242.176549 
L 328.418084 -239.556239 
L 327.621846 -237.954856 
L 326.825609 -238.128323 
L 326.029371 -240.33074 
L 325.233134 -244.239578 
L 324.436896 -249.076774 
L 323.640659 -253.863745 
L 322.844421 -257.712737 
L 322.048184 -260.072958 
L 321.251946 -260.871118 
L 320.455709 -260.501333 
L 319.659471 -259.652793 
L 318.863233 -259.029665 
L 318.066996 -259.078735 
L 317.270758 -259.841734 
L 316.474521 -260.98123 
L 315.678283 -261.943404 
L 314.882046 -262.17439 
L 314.085808 -261.312039 
L 313.289571 -259.306664 
L 312.493333 -256.449943 
L 311.697096 -253.300622 
L 310.900858 -250.515561 
L 310.104621 -248.637752 
L 309.308383 -247.928833 
L 308.512146 -248.317563 
L 307.715908 -249.469613 
L 306.919671 -250.921084 
L 306.123433 -252.20768 
L 305.327196 -252.960177 
L 304.530958 -252.971141 
L 303.73472 -252.235072 
L 302.938483 -250.943797 
L 302.142245 -249.429376 
L 301.346008 -248.079156 
L 300.54977 -247.265279 
L 299.753533 -247.307481 
L 298.957295 -248.447775 
L 298.161058 -250.808756 
L 297.36482 -254.339734 
L 296.568583 -258.788766 
L 295.772345 -263.725312 
L 294.976108 -268.604027 
L 294.17987 -272.84789 
L 293.383633 -275.941633 
L 292.587395 -277.533472 
L 291.791158 -277.522634 
L 290.99492 -276.090664 
L 290.198683 -273.646609 
L 289.402445 -270.707417 
L 288.606208 -267.772429 
L 287.80997 -265.243825 
L 287.013732 -263.402994 
L 286.217495 -262.418692 
L 285.421257 -262.360965 
L 284.62502 -263.211115 
L 283.828782 -264.869461 
L 283.032545 -267.154768 
L 282.236307 -269.788292 
L 281.44007 -272.37676 
L 280.643832 -274.433911 
L 279.847595 -275.476685 
L 279.051357 -275.177401 
L 278.25512 -273.503086 
L 277.458882 -270.747974 
L 276.662645 -267.423554 
L 275.866407 -264.053804 
L 275.07017 -260.973527 
L 274.273932 -258.208056 
L 273.477695 -255.46392 
L 272.681457 -252.232494 
L 271.88522 -247.991236 
L 271.088982 -242.446968 
L 270.292744 -235.717879 
L 269.496507 -228.354058 
L 268.700269 -221.176332 
L 267.904032 -215.021976 
L 267.107794 -210.529936 
L 266.311557 -208.033929 
L 265.515319 -207.539679 
L 264.719082 -208.733445 
L 263.922844 -211.013833 
L 263.126607 -213.591656 
L 262.330369 -215.679692 
L 261.534132 -216.700056 
L 260.737894 -216.391488 
L 259.941657 -214.777858 
L 259.145419 -212.068568 
L 258.349182 -208.599398 
L 257.552944 -204.832638 
L 256.756707 -201.331719 
L 255.960469 -198.633033 
L 255.164231 -197.052021 
L 254.367994 -196.5545 
L 253.571756 -196.786181 
L 252.775519 -197.221263 
L 251.979281 -197.335503 
L 251.183044 -196.752272 
L 250.386806 -195.362805 
L 249.590569 -193.407521 
L 248.794331 -191.45821 
L 247.998094 -190.25308 
L 247.201856 -190.427336 
L 246.405619 -192.255049 
L 245.609381 -195.511294 
L 244.813144 -199.500597 
L 244.016906 -203.24405 
L 243.220669 -205.779688 
L 242.424431 -206.483956 
L 241.628194 -205.284627 
L 240.831956 -202.666336 
L 240.035719 -199.475879 
L 239.239481 -196.63289 
L 238.443243 -194.860057 
L 237.647006 -194.490776 
L 236.850768 -195.384585 
L 236.054531 -196.988569 
L 235.258293 -198.556312 
L 234.462056 -199.44654 
L 233.665818 -199.355282 
L 232.869581 -198.378342 
L 232.073343 -196.915617 
L 231.277106 -195.504425 
L 230.480868 -194.649766 
L 229.684631 -194.672762 
L 228.888393 -195.602621 
L 228.092156 -197.162237 
L 227.295918 -198.870836 
L 226.499681 -200.213179 
L 225.703443 -200.78376 
L 224.907206 -200.353444 
L 224.110968 -198.879151 
L 223.31473 -196.501937 
L 222.518493 -193.538412 
L 221.722255 -190.435859 
L 220.926018 -187.679485 
L 220.12978 -185.67083 
L 219.333543 -184.608855 
L 218.537305 -184.410821 
L 217.741068 -184.719359 
L 216.94483 -185.022236 
L 216.148593 -184.842272 
L 215.352355 -183.895086 
L 214.556118 -182.138368 
L 213.75988 -179.734384 
L 212.963643 -177.002766 
L 212.167405 -174.385769 
L 211.371168 -172.374459 
L 210.57493 -171.365971 
L 209.778693 -171.511957 
L 208.982455 -172.667838 
L 208.186218 -174.492612 
L 207.38998 -176.627011 
L 206.593742 -178.821964 
L 205.797505 -180.949387 
L 205.001267 -182.9338 
L 204.20503 -184.693346 
L 203.408792 -186.135109 
L 202.612555 -187.179858 
L 201.816317 -187.778057 
L 201.02008 -187.916945 
L 200.223842 -187.644387 
L 199.427605 -187.110525 
L 198.631367 -186.577891 
L 197.83513 -186.340289 
L 197.038892 -186.557014 
L 196.242655 -187.107164 
L 195.446417 -187.591383 
L 194.65018 -187.502022 
L 193.853942 -186.452293 
L 193.057705 -184.330744 
L 192.261467 -181.328619 
L 191.46523 -177.878992 
L 190.668992 -174.563799 
L 189.872754 -171.991419 
L 189.076517 -170.62497 
L 188.280279 -170.606012 
L 187.484042 -171.687784 
L 186.687804 -173.352564 
L 185.891567 -175.053076 
L 185.095329 -176.427757 
L 184.299092 -177.379679 
L 183.502854 -178.020951 
L 182.706617 -178.560938 
L 181.910379 -179.206438 
L 181.114142 -180.087926 
L 180.317904 -181.205137 
L 179.521667 -182.403015 
L 178.725429 -183.405835 
L 177.929192 -183.92398 
L 177.132954 -183.79541 
L 176.336717 -183.07362 
L 175.540479 -181.987991 
L 174.744241 -180.790756 
L 173.948004 -179.594935 
L 173.151766 -178.313154 
L 172.355529 -176.724014 
L 171.559291 -174.609564 
L 170.763054 -171.886413 
L 169.966816 -168.678345 
L 169.170579 -165.302332 
L 168.374341 -162.166354 
L 167.578104 -159.613029 
L 166.781866 -157.779029 
L 165.985629 -156.541358 
L 165.189391 -155.574805 
L 164.393154 -154.489197 
L 163.596916 -152.990219 
L 162.800679 -151.012252 
L 162.004441 -148.778615 
L 161.208204 -146.751079 
L 160.411966 -145.466899 
L 159.615729 -145.325296 
L 158.819491 -146.422997 
L 158.023253 -148.50867 
L 157.227016 -151.058144 
L 156.430778 -153.425283 
L 155.634541 -155.024321 
L 154.838303 -155.510038 
L 154.042066 -154.898009 
L 153.245828 -153.5457 
L 152.449591 -151.974073 
L 151.653353 -150.619289 
L 150.857116 -149.66007 
L 150.060878 -149.006795 
L 149.264641 -148.433562 
L 148.468403 -147.763148 
L 147.672166 -147.008824 
L 146.875928 -146.411105 
L 146.079691 -146.353946 
L 145.283453 -147.19266 
L 144.487216 -149.061191 
L 143.690978 -151.741735 
L 142.89474 -154.65811 
L 142.098503 -157.013927 
L 141.302265 -158.049889 
L 140.506028 -157.342309 
L 139.70979 -155.020064 
L 138.913553 -151.780493 
L 138.117315 -148.667339 
L 137.321078 -146.692843 
L 136.52484 -146.473692 
L 135.728603 -148.040744 
L 134.932365 -150.87896 
L 134.136128 -154.13865 
L 133.33989 -156.920061 
L 132.543653 -158.558632 
L 131.747415 -158.845022 
L 130.951178 -158.09328 
L 130.15494 -157.00011 
L 129.358703 -156.33401 
L 128.562465 -156.588824 
L 127.766228 -157.766003 
L 126.96999 -159.388059 
L 126.173752 -160.718281 
L 125.377515 -161.052006 
L 124.581277 -159.951958 
L 123.78504 -157.374444 
L 122.988802 -153.682288 
L 122.192565 -149.542324 
L 121.396327 -145.717762 
L 120.60009 -142.810494 
L 119.803852 -141.055217 
L 119.007615 -140.270635 
L 118.211377 -139.99651 
L 117.41514 -139.730275 
L 116.618902 -139.130297 
L 115.822665 -138.102405 
L 115.026427 -136.762764 
L 114.23019 -135.322988 
L 113.433952 -133.968197 
L 112.637715 -132.789758 
L 111.841477 -131.791996 
L 111.04524 -130.944268 
L 110.249002 -130.233068 
L 109.452764 -129.68701 
L 108.656527 -129.374497 
L 107.860289 -129.388183 
L 107.064052 -129.827678 
L 106.267814 -130.770141 
L 105.471577 -132.218075 
L 104.675339 -134.031218 
L 103.879102 -135.892283 
L 103.082864 -137.364513 
L 102.286627 -138.038299 
L 101.490389 -137.690665 
L 100.694152 -136.367657 
L 99.897914 -134.35457 
L 99.101677 -132.068075 
L 98.305439 -129.947844 
L 97.509202 -128.38628 
L 96.712964 -127.659795 
L 95.916727 -127.822752 
L 95.120489 -128.621616 
L 94.324251 -129.55157 
L 93.528014 -130.073903 
L 92.731776 -129.854264 
L 91.935539 -128.878223 
L 91.139301 -127.415328 
L 90.343064 -125.888409 
L 89.546826 -124.715416 
L 88.750589 -124.172542 
L 87.954351 -124.321987 
L 87.158114 -125.038214 
L 86.361876 -126.112416 
L 85.565639 -127.358825 
L 84.769401 -128.652613 
L 83.973164 -129.900792 
L 83.176926 -131.004406 
L 82.380689 -131.847469 
L 81.584451 -132.291219 
L 80.788214 -132.161326 
L 79.991976 -131.291751 
L 79.195739 -129.673669 
L 78.399501 -127.61767 
L 77.603263 -125.762557 
L 76.807026 -124.861544 
L 76.010788 -125.440077 
L 75.214551 -127.520142 
L 74.418313 -130.557425 
L 73.622076 -133.592859 
L 72.825838 -135.544303 
L 72.029601 -135.570501 
L 71.233363 -133.414152 
L 70.437126 -129.572901 
L 69.640888 -125.167156 
L 68.844651 -121.525658 
L 68.048413 -119.702842 
L 67.252176 -120.162959 
L 66.455938 -122.702898 
L 65.659701 -126.554779 
L 64.863463 -130.60121 
L 64.067226 -133.675199 
L 63.270988 -134.920537 
L 62.47475 -134.102045 
L 61.678513 -131.689393 
L 60.882275 -128.62568 
L 60.086038 -125.878195 
L 59.2898 -124.020616 
L 58.493563 -123.088667 
L 57.697325 -122.741957 
L 56.901088 -122.558089 
L 56.10485 -122.264187 
L 55.308613 -121.817006 
L 54.512375 -121.369483 
L 53.716138 -121.201301 
L 52.9199 -121.627567 
L 52.123663 -122.877375 
L 51.327425 -124.978411 
L 50.531188 -127.696814 
L 49.73495 -130.560612 
L 48.938713 -132.980948 
L 48.142475 -134.445471 
L 47.346238 -134.687195 
L 46.55 -133.723827 
z
" style="stroke: #e41a1c; stroke-opacity: 0.3"/>
    </defs>
    <g clip-path="url(#p35859594a5)">
     <use xlink:href="#m3a70a31d1f" x="0" y="360" style="fill: #e41a1c; fill-opacity: 0.3; stroke: #e41a1c; stroke-opacity: 0.3"/>
    </g>
   </g>
   <g id="PolyCollection_2">
    <defs>
     <path id="m924a683225" d="M 46.55 -127.419449 
L 46.55 -102.872423 
L 47.346238 -103.569019 
L 48.142475 -104.502334 
L 48.938713 -105.589182 
L 49.73495 -106.653208 
L 50.531188 -107.488826 
L 51.327425 -107.94473 
L 52.123663 -107.984289 
L 52.9199 -107.699281 
L 53.716138 -107.276565 
L 54.512375 -106.930244 
L 55.308613 -106.817886 
L 56.10485 -106.971879 
L 56.901088 -107.280972 
L 57.697325 -107.540646 
L 58.493563 -107.55767 
L 59.2898 -107.25745 
L 60.086038 -106.729578 
L 60.882275 -106.181645 
L 61.678513 -105.832961 
L 62.47475 -105.810182 
L 63.270988 -106.093184 
L 64.067226 -106.525684 
L 64.863463 -106.875184 
L 65.659701 -106.917015 
L 66.455938 -106.521709 
L 67.252176 -105.720731 
L 68.048413 -104.713107 
L 68.844651 -103.785622 
L 69.640888 -103.167844 
L 70.437126 -102.897597 
L 71.233363 -102.77687 
L 72.029601 -102.443697 
L 72.825838 -101.515572 
L 73.622076 -99.736774 
L 74.418313 -97.086052 
L 75.214551 -93.82409 
L 76.010788 -90.455391 
L 76.807026 -87.588309 
L 77.603263 -85.7279 
L 78.399501 -85.091565 
L 79.195739 -85.538311 
L 79.991976 -86.641485 
L 80.788214 -87.856647 
L 81.584451 -88.695722 
L 82.380689 -88.841958 
L 83.176926 -88.190475 
L 83.973164 -86.83117 
L 84.769401 -84.999629 
L 85.565639 -83.011122 
L 86.361876 -81.180453 
L 87.158114 -79.743697 
L 87.954351 -78.819272 
L 88.750589 -78.428858 
L 89.546826 -78.555535 
L 90.343064 -79.191491 
L 91.139301 -80.338453 
L 91.935539 -81.962087 
L 92.731776 -83.940789 
L 93.528014 -86.05306 
L 94.324251 -88.018773 
L 95.120489 -89.57469 
L 95.916727 -90.550196 
L 96.712964 -90.914529 
L 97.509202 -90.776118 
L 98.305439 -90.331778 
L 99.101677 -89.780905 
L 99.897914 -89.241566 
L 100.694152 -88.708746 
L 101.490389 -88.076292 
L 102.286627 -87.21322 
L 103.082864 -86.061481 
L 103.879102 -84.713462 
L 104.675339 -83.429994 
L 105.471577 -82.577299 
L 106.267814 -82.494564 
L 107.064052 -83.345772 
L 107.860289 -85.028125 
L 108.656527 -87.186019 
L 109.452764 -89.326883 
L 110.249002 -90.985233 
L 111.04524 -91.867059 
L 111.841477 -91.925574 
L 112.637715 -91.351355 
L 113.433952 -90.487 
L 114.23019 -89.697336 
L 115.026427 -89.242357 
L 115.822665 -89.20146 
L 116.618902 -89.477064 
L 117.41514 -89.862256 
L 118.211377 -90.135574 
L 119.007615 -90.135591 
L 119.803852 -89.790658 
L 120.60009 -89.104438 
L 121.396327 -88.115616 
L 122.192565 -86.857672 
L 122.988802 -85.342353 
L 123.78504 -83.576713 
L 124.581277 -81.608621 
L 125.377515 -79.573643 
L 126.173752 -77.710663 
L 126.96999 -76.324618 
L 127.766228 -75.70036 
L 128.562465 -75.997947 
L 129.358703 -77.174244 
L 130.15494 -78.964829 
L 130.951178 -80.945368 
L 131.747415 -82.65075 
L 132.543653 -83.704276 
L 133.33989 -83.904786 
L 134.136128 -83.248308 
L 134.932365 -81.896695 
L 135.728603 -80.121492 
L 136.52484 -78.24518 
L 137.321078 -76.58388 
L 138.117315 -75.392065 
L 138.913553 -74.816791 
L 139.70979 -74.87561 
L 140.506028 -75.464472 
L 141.302265 -76.387699 
L 142.098503 -77.398525 
L 142.89474 -78.244091 
L 143.690978 -78.718884 
L 144.487216 -78.72033 
L 145.283453 -78.285418 
L 146.079691 -77.583337 
L 146.875928 -76.858354 
L 147.672166 -76.344667 
L 148.468403 -76.189216 
L 149.264641 -76.409784 
L 150.060878 -76.893939 
L 150.857116 -77.431564 
L 151.653353 -77.77209 
L 152.449591 -77.696586 
L 153.245828 -77.085009 
L 154.042066 -75.952435 
L 154.838303 -74.436936 
L 155.634541 -72.744124 
L 156.430778 -71.075192 
L 157.227016 -69.571207 
L 158.023253 -68.295559 
L 158.819491 -67.256099 
L 159.615729 -66.448864 
L 160.411966 -65.894014 
L 161.208204 -65.639594 
L 162.004441 -65.72859 
L 162.800679 -66.153122 
L 163.596916 -66.826813 
L 164.393154 -67.592442 
L 165.189391 -68.258375 
L 165.985629 -68.648682 
L 166.781866 -68.657104 
L 167.578104 -68.293208 
L 168.374341 -67.698219 
L 169.170579 -67.107802 
L 169.966816 -66.765189 
L 170.763054 -66.825152 
L 171.559291 -67.30226 
L 172.355529 -68.09039 
L 173.151766 -69.034485 
L 173.948004 -70.007491 
L 174.744241 -70.954384 
L 175.540479 -71.892708 
L 176.336717 -72.880491 
L 177.132954 -73.969269 
L 177.929192 -75.162235 
L 178.725429 -76.397282 
L 179.521667 -77.566385 
L 180.317904 -78.564568 
L 181.114142 -79.342988 
L 181.910379 -79.935822 
L 182.706617 -80.442024 
L 183.502854 -80.966116 
L 184.299092 -81.543941 
L 185.095329 -82.090026 
L 185.891567 -82.398371 
L 186.687804 -82.207473 
L 187.484042 -81.310444 
L 188.280279 -79.6665 
L 189.076517 -77.460784 
L 189.872754 -75.075924 
L 190.668992 -72.974348 
L 191.46523 -71.533367 
L 192.261467 -70.902901 
L 193.057705 -70.950181 
L 193.853942 -71.315238 
L 194.65018 -71.547402 
L 195.446417 -71.264186 
L 196.242655 -70.279443 
L 197.038892 -68.669389 
L 197.83513 -66.759917 
L 198.631367 -65.031399 
L 199.427605 -63.962596 
L 200.223842 -63.866723 
L 201.02008 -64.786255 
L 201.816317 -66.487747 
L 202.612555 -68.549345 
L 203.408792 -70.495282 
L 204.20503 -71.925257 
L 205.001267 -72.606083 
L 205.797505 -72.510853 
L 206.593742 -71.804962 
L 207.38998 -70.78538 
L 208.186218 -69.794466 
L 208.982455 -69.136333 
L 209.778693 -69.015035 
L 210.57493 -69.496561 
L 211.371168 -70.489544 
L 212.167405 -71.750476 
L 212.963643 -72.927958 
L 213.75988 -73.650376 
L 214.556118 -73.631914 
L 215.352355 -72.754107 
L 216.148593 -71.092513 
L 216.94483 -68.890122 
L 217.741068 -66.49989 
L 218.537305 -64.311529 
L 219.333543 -62.66941 
L 220.12978 -61.789578 
L 220.926018 -61.704721 
L 221.722255 -62.267112 
L 222.518493 -63.213042 
L 223.31473 -64.25959 
L 224.110968 -65.189512 
L 224.907206 -65.893732 
L 225.703443 -66.359189 
L 226.499681 -66.621652 
L 227.295918 -66.71173 
L 228.092156 -66.625505 
L 228.888393 -66.333427 
L 229.684631 -65.812851 
L 230.480868 -65.074395 
L 231.277106 -64.163367 
L 232.073343 -63.143658 
L 232.869581 -62.083295 
L 233.665818 -61.051674 
L 234.462056 -60.120827 
L 235.258293 -59.360226 
L 236.054531 -58.828135 
L 236.850768 -58.57161 
L 237.647006 -58.63864 
L 238.443243 -59.079689 
L 239.239481 -59.923887 
L 240.035719 -61.131894 
L 240.831956 -62.559121 
L 241.628194 -63.965448 
L 242.424431 -65.080993 
L 243.220669 -65.702347 
L 244.016906 -65.774992 
L 244.813144 -65.425991 
L 245.609381 -64.933923 
L 246.405619 -64.648702 
L 247.201856 -64.886327 
L 247.998094 -65.827444 
L 248.794331 -67.4493 
L 249.590569 -69.516828 
L 250.386806 -71.644587 
L 251.183044 -73.404358 
L 251.979281 -74.439466 
L 252.775519 -74.541095 
L 253.571756 -73.671165 
L 254.367994 -71.941337 
L 255.164231 -69.565859 
L 255.960469 -66.801663 
L 256.756707 -63.890481 
L 257.552944 -61.025763 
L 258.349182 -58.361602 
L 259.145419 -56.051049 
L 259.941657 -54.274157 
L 260.737894 -53.220316 
L 261.534132 -53.025403 
L 262.330369 -53.701102 
L 263.126607 -55.100489 
L 263.922844 -56.937468 
L 264.719082 -58.849235 
L 265.515319 -60.477757 
L 266.311557 -61.5548 
L 267.107794 -61.975432 
L 267.904032 -61.83382 
L 268.700269 -61.39262 
L 269.496507 -60.982026 
L 270.292744 -60.866491 
L 271.088982 -61.140479 
L 271.88522 -61.70078 
L 272.681457 -62.303338 
L 273.477695 -62.676188 
L 274.273932 -62.642496 
L 275.07017 -62.207746 
L 275.866407 -61.576479 
L 276.662645 -61.088248 
L 277.458882 -61.092942 
L 278.25512 -61.81514 
L 279.051357 -63.259649 
L 279.847595 -65.188754 
L 280.643832 -67.173476 
L 281.44007 -68.703243 
L 282.236307 -69.327775 
L 283.032545 -68.792531 
L 283.828782 -67.119921 
L 284.62502 -64.601499 
L 285.421257 -61.70318 
L 286.217495 -58.924914 
L 287.013732 -56.669624 
L 287.80997 -55.161053 
L 288.606208 -54.426401 
L 289.402445 -54.341915 
L 290.198683 -54.72202 
L 290.99492 -55.416304 
L 291.791158 -56.371614 
L 292.587395 -57.633334 
L 293.383633 -59.290704 
L 294.17987 -61.396231 
L 294.976108 -63.895581 
L 295.772345 -66.595592 
L 296.568583 -69.187408 
L 297.36482 -71.324717 
L 298.161058 -72.733935 
L 298.957295 -73.312946 
L 299.753533 -73.172519 
L 300.54977 -72.597068 
L 301.346008 -71.939054 
L 302.142245 -71.493066 
L 302.938483 -71.404528 
L 303.73472 -71.649741 
L 304.530958 -72.08897 
L 305.327196 -72.558999 
L 306.123433 -72.956057 
L 306.919671 -73.271832 
L 307.715908 -73.57377 
L 308.512146 -73.945822 
L 309.308383 -74.417675 
L 310.104621 -74.912351 
L 310.900858 -75.239876 
L 311.697096 -75.153293 
L 312.493333 -74.456301 
L 313.289571 -73.118386 
L 314.085808 -71.337567 
L 314.882046 -69.509568 
L 315.678283 -68.10545 
L 316.474521 -67.503178 
L 317.270758 -67.83915 
L 318.066996 -68.937996 
L 318.863233 -70.350905 
L 319.659471 -71.494629 
L 320.455709 -71.846364 
L 321.251946 -71.126071 
L 322.048184 -69.400027 
L 322.844421 -67.066234 
L 323.640659 -64.725533 
L 324.436896 -62.982671 
L 325.233134 -62.245629 
L 326.029371 -62.592506 
L 326.825609 -63.752934 
L 327.621846 -65.211479 
L 328.418084 -66.394927 
L 329.214321 -66.871873 
L 330.010559 -66.485625 
L 330.806796 -65.370594 
L 331.603034 -63.858912 
L 332.399271 -62.334282 
L 333.195509 -61.103424 
L 333.991746 -60.326709 
L 334.787984 -60.013582 
L 335.584221 -60.064238 
L 336.380459 -60.336748 
L 337.176697 -60.717856 
L 337.972934 -61.171055 
L 338.769172 -61.739237 
L 339.565409 -62.500044 
L 340.361647 -63.500668 
L 341.157884 -64.712179 
L 341.954122 -66.029297 
L 342.750359 -67.313362 
L 343.546597 -68.45483 
L 344.342834 -69.424654 
L 345.139072 -70.288855 
L 345.935309 -71.171988 
L 346.731547 -72.18156 
L 347.527784 -73.326422 
L 348.324022 -74.474529 
L 349.120259 -75.375587 
L 349.916497 -75.740876 
L 350.712734 -75.347667 
L 351.508972 -74.131306 
L 352.30521 -72.236432 
L 353.101447 -70.008968 
L 353.897685 -67.918876 
L 354.693922 -66.427657 
L 355.49016 -65.844731 
L 356.286397 -66.232959 
L 357.082635 -67.404678 
L 357.878872 -69.005527 
L 358.67511 -70.642796 
L 359.471347 -72.002367 
L 360.267585 -72.917016 
L 361.063822 -73.372669 
L 361.86006 -73.464309 
L 362.656297 -73.326919 
L 363.452535 -73.073123 
L 364.248772 -72.765201 
L 365.04501 -72.430381 
L 365.841247 -72.101592 
L 366.637485 -71.850632 
L 367.433722 -71.787339 
L 368.22996 -72.022786 
L 369.026198 -72.615209 
L 369.822435 -73.521889 
L 370.618673 -74.576089 
L 371.41491 -75.505665 
L 372.211148 -76.003997 
L 373.007385 -75.844685 
L 373.803623 -74.99828 
L 374.59986 -73.692511 
L 375.396098 -72.373899 
L 376.192335 -71.573924 
L 376.988573 -71.729351 
L 377.78481 -73.025325 
L 378.581048 -75.314365 
L 379.377285 -78.137427 
L 380.173523 -80.840013 
L 380.96976 -82.754042 
L 381.765998 -83.393935 
L 382.562235 -82.604021 
L 383.358473 -80.605318 
L 384.15471 -77.924177 
L 384.950948 -75.231935 
L 385.747186 -73.153366 
L 386.543423 -72.106712 
L 387.339661 -72.21563 
L 388.135898 -73.306058 
L 388.932136 -74.980099 
L 389.728373 -76.743791 
L 390.524611 -78.152316 
L 391.320848 -78.929088 
L 392.117086 -79.022513 
L 392.913323 -78.588315 
L 393.709561 -77.912698 
L 394.505798 -77.308835 
L 395.302036 -77.02046 
L 396.098273 -77.15792 
L 396.894511 -77.681067 
L 397.690748 -78.429508 
L 398.486986 -79.18311 
L 399.283223 -79.726436 
L 400.079461 -79.895335 
L 400.875699 -79.59864 
L 401.671936 -78.819085 
L 402.468174 -77.599568 
L 403.264411 -76.020494 
L 404.060649 -74.176873 
L 404.856886 -72.166821 
L 405.653124 -70.097171 
L 406.449361 -68.097908 
L 407.245599 -66.327979 
L 408.041836 -64.960322 
L 408.838074 -64.148032 
L 409.634311 -63.983812 
L 410.430549 -64.465995 
L 411.226786 -65.484547 
L 412.023024 -66.835942 
L 412.819261 -68.267157 
L 413.615499 -69.534637 
L 413.615499 -124.821475 
L 413.615499 -124.821475 
L 412.819261 -123.330051 
L 412.023024 -121.739522 
L 411.226786 -120.295533 
L 410.430549 -119.229751 
L 409.634311 -118.710799 
L 408.838074 -118.816085 
L 408.041836 -119.53008 
L 407.245599 -120.76641 
L 406.449361 -122.402334 
L 405.653124 -124.307839 
L 404.856886 -126.357926 
L 404.060649 -128.429295 
L 403.264411 -130.392115 
L 402.468174 -132.106705 
L 401.671936 -133.43016 
L 400.875699 -134.236015 
L 400.079461 -134.447364 
L 399.283223 -134.074485 
L 398.486986 -133.237923 
L 397.690748 -132.158488 
L 396.894511 -131.110646 
L 396.098273 -130.353486 
L 395.302036 -130.061326 
L 394.505798 -130.27291 
L 393.709561 -130.872288 
L 392.913323 -131.610649 
L 392.117086 -132.169305 
L 391.320848 -132.251065 
L 390.524611 -131.675752 
L 389.728373 -130.45275 
L 388.932136 -128.808326 
L 388.135898 -127.152791 
L 387.339661 -125.983411 
L 386.543423 -125.739362 
L 385.747186 -126.649493 
L 384.950948 -128.628149 
L 384.15471 -131.264716 
L 383.358473 -133.91902 
L 382.562235 -135.895084 
L 381.765998 -136.639817 
L 380.96976 -135.906736 
L 380.173523 -133.837379 
L 379.377285 -130.930662 
L 378.581048 -127.902105 
L 377.78481 -125.471009 
L 376.988573 -124.145318 
L 376.192335 -124.08092 
L 375.396098 -125.063406 
L 374.59986 -126.610607 
L 373.803623 -128.146002 
L 373.007385 -129.178783 
L 372.211148 -129.43629 
L 371.41491 -128.917265 
L 370.618673 -127.857285 
L 369.822435 -126.621046 
L 369.026198 -125.560956 
L 368.22996 -124.898846 
L 367.433722 -124.67846 
L 366.637485 -124.801137 
L 365.841247 -125.11143 
L 365.04501 -125.478192 
L 364.248772 -125.831456 
L 363.452535 -126.148602 
L 362.656297 -126.410765 
L 361.86006 -126.560106 
L 361.063822 -126.48385 
L 360.267585 -126.039796 
L 359.471347 -125.119804 
L 358.67511 -123.725617 
L 357.878872 -122.017472 
L 357.082635 -120.30331 
L 356.286397 -118.964363 
L 355.49016 -118.34522 
L 354.693922 -118.64695 
L 353.897685 -119.857323 
L 353.101447 -121.737747 
L 352.30521 -123.874018 
L 351.508972 -125.785115 
L 350.712734 -127.062168 
L 349.916497 -127.486879 
L 349.120259 -127.077754 
L 348.324022 -126.047121 
L 347.527784 -124.694636 
L 346.731547 -123.290306 
L 345.935309 -121.994499 
L 345.139072 -120.836178 
L 344.342834 -119.744729 
L 343.546597 -118.615561 
L 342.750359 -117.380306 
L 341.954122 -116.053464 
L 341.157884 -114.732155 
L 340.361647 -113.551424 
L 339.565409 -112.620041 
L 338.769172 -111.970731 
L 337.972934 -111.548554 
L 337.176697 -111.243356 
L 336.380459 -110.95496 
L 335.584221 -110.663217 
L 334.787984 -110.464109 
L 333.991746 -110.540394 
L 333.195509 -111.067147 
L 332.399271 -112.095321 
L 331.603034 -113.479242 
L 330.806796 -114.894724 
L 330.010559 -115.944766 
L 329.214321 -116.304684 
L 328.418084 -115.849741 
L 327.621846 -114.721128 
L 326.825609 -113.308042 
L 326.029371 -112.143988 
L 325.233134 -111.740191 
L 324.436896 -112.406172 
L 323.640659 -114.123412 
L 322.844421 -116.528187 
L 322.048184 -119.02072 
L 321.251946 -120.96656 
L 320.455709 -121.916012 
L 319.659471 -121.758266 
L 318.863233 -120.752449 
L 318.066996 -119.425676 
L 317.270758 -118.378999 
L 316.474521 -118.07549 
L 315.678283 -118.690197 
L 314.882046 -120.074327 
L 314.085808 -121.837757 
L 313.289571 -123.50653 
L 312.493333 -124.688377 
L 311.697096 -125.186763 
L 310.900858 -125.032489 
L 310.104621 -124.433494 
L 309.308383 -123.667967 
L 308.512146 -122.964235 
L 307.715908 -122.418109 
L 306.919671 -121.984967 
L 306.123433 -121.546892 
L 305.327196 -121.012701 
L 304.530958 -120.391742 
L 303.73472 -119.802129 
L 302.938483 -119.414125 
L 302.142245 -119.361147 
L 301.346008 -119.660758 
L 300.54977 -120.178627 
L 299.753533 -120.649787 
L 298.957295 -120.750608 
L 298.161058 -120.198094 
L 297.36482 -118.844 
L 296.568583 -116.731596 
L 295.772345 -114.091805 
L 294.976108 -111.274212 
L 294.17987 -108.634673 
L 293.383633 -106.424178 
L 292.587395 -104.728153 
L 291.791158 -103.48271 
L 290.99492 -102.554526 
L 290.198683 -101.84203 
L 289.402445 -101.3504 
L 288.606208 -101.209227 
L 287.80997 -101.624208 
L 287.013732 -102.77734 
L 286.217495 -104.713755 
L 285.421257 -107.265996 
L 284.62502 -110.056756 
L 283.828782 -112.585064 
L 283.032545 -114.363291 
L 282.236307 -115.056335 
L 281.44007 -114.581049 
L 280.643832 -113.136906 
L 279.847595 -111.15276 
L 279.051357 -109.157552 
L 278.25512 -107.616044 
L 277.458882 -106.792368 
L 276.662645 -106.694546 
L 275.866407 -107.113511 
L 275.07017 -107.728639 
L 274.273932 -108.232988 
L 273.477695 -108.435903 
L 272.681457 -108.312507 
L 271.88522 -107.987396 
L 271.088982 -107.659974 
L 270.292744 -107.504507 
L 269.496507 -107.587729 
L 268.700269 -107.834284 
L 267.904032 -108.046256 
L 267.107794 -107.96587 
L 266.311557 -107.364464 
L 265.515319 -106.13648 
L 264.719082 -104.364758 
L 263.922844 -102.320788 
L 263.126607 -100.388282 
L 262.330369 -98.941763 
L 261.534132 -98.239759 
L 260.737894 -98.379114 
L 259.941657 -99.315861 
L 259.145419 -100.91984 
L 258.349182 -103.028696 
L 257.552944 -105.483966 
L 256.756707 -108.146527 
L 255.960469 -110.88929 
L 255.164231 -113.566419 
L 254.367994 -115.975116 
L 253.571756 -117.845689 
L 252.775519 -118.889746 
L 251.979281 -118.898923 
L 251.183044 -117.845905 
L 250.386806 -115.932555 
L 249.590569 -113.558285 
L 248.794331 -111.219067 
L 247.998094 -109.370998 
L 247.201856 -108.303706 
L 246.405619 -108.058326 
L 245.609381 -108.425168 
L 244.813144 -109.025554 
L 244.016906 -109.449321 
L 243.220669 -109.39174 
L 242.424431 -108.736009 
L 241.628194 -107.558533 
L 240.831956 -106.07161 
L 240.035719 -104.541144 
L 239.239481 -103.211747 
L 238.443243 -102.255836 
L 237.647006 -101.750748 
L 236.850768 -101.684302 
L 236.054531 -101.986098 
L 235.258293 -102.570692 
L 234.462056 -103.370982 
L 233.665818 -104.336617 
L 232.869581 -105.406619 
L 232.073343 -106.483922 
L 231.277106 -107.44349 
L 230.480868 -108.175414 
L 229.684631 -108.631029 
L 228.888393 -108.836439 
L 228.092156 -108.863964 
L 227.295918 -108.783852 
L 226.499681 -108.627259 
L 225.703443 -108.377427 
L 224.907206 -107.986882 
L 224.110968 -107.411704 
L 223.31473 -106.651647 
L 222.518493 -105.781369 
L 221.722255 -104.960256 
L 220.926018 -104.408666 
L 220.12978 -104.357698 
L 219.333543 -104.980431 
L 218.537305 -106.321635 
L 217.741068 -108.249903 
L 216.94483 -110.461627 
L 216.148593 -112.552832 
L 215.352355 -114.138291 
L 214.556118 -114.966377 
L 213.75988 -114.977348 
L 212.963643 -114.294047 
L 212.167405 -113.169659 
L 211.371168 -111.923904 
L 210.57493 -110.879117 
L 209.778693 -110.29379 
L 208.982455 -110.299758 
L 208.186218 -110.862059 
L 207.38998 -111.78225 
L 206.593742 -112.747442 
L 205.797505 -113.409381 
L 205.001267 -113.472954 
L 204.20503 -112.778295 
L 203.408792 -111.360333 
L 202.612555 -109.463116 
L 201.816317 -107.491884 
L 201.02008 -105.905687 
L 200.223842 -105.08514 
L 199.427605 -105.21994 
L 198.631367 -106.251032 
L 197.83513 -107.882815 
L 197.038892 -109.66599 
L 196.242655 -111.137626 
L 195.446417 -111.981554 
L 194.65018 -112.148746 
L 193.853942 -111.877155 
L 193.057705 -111.592269 
L 192.261467 -111.731538 
L 191.46523 -112.574441 
L 190.668992 -114.147931 
L 189.872754 -116.23111 
L 189.076517 -118.443385 
L 188.280279 -120.377658 
L 187.484042 -121.731898 
L 186.687804 -122.394856 
L 185.891567 -122.457523 
L 185.095329 -122.149846 
L 184.299092 -121.7317 
L 183.502854 -121.385811 
L 182.706617 -121.1562 
L 181.910379 -120.95396 
L 181.114142 -120.621155 
L 180.317904 -120.018252 
L 179.521667 -119.092735 
L 178.725429 -117.898868 
L 177.929192 -116.564571 
L 177.132954 -115.227181 
L 176.336717 -113.972431 
L 175.540479 -112.80831 
L 174.744241 -111.68736 
L 173.948004 -110.564522 
L 173.151766 -109.454584 
L 172.355529 -108.45038 
L 171.559291 -107.68778 
L 170.763054 -107.279168 
L 169.966816 -107.255239 
L 169.170579 -107.541233 
L 168.374341 -107.970521 
L 167.578104 -108.326534 
L 166.781866 -108.404239 
L 165.985629 -108.07996 
L 165.189391 -107.365362 
L 164.393154 -106.413567 
L 163.596916 -105.463061 
L 162.800679 -104.743722 
L 162.004441 -104.397085 
L 161.208204 -104.451838 
L 160.411966 -104.855744 
L 159.615729 -105.532809 
L 158.819491 -106.430526 
L 158.023253 -107.538127 
L 157.227016 -108.871234 
L 156.430778 -110.432899 
L 155.634541 -112.169329 
L 154.838303 -113.944391 
L 154.042066 -115.551576 
L 153.245828 -116.765523 
L 152.449591 -117.416001 
L 151.653353 -117.456276 
L 150.857116 -116.996689 
L 150.060878 -116.283409 
L 149.264641 -115.621026 
L 148.468403 -115.264205 
L 147.672166 -115.325118 
L 146.875928 -115.740181 
L 146.079691 -116.308631 
L 145.283453 -116.776952 
L 144.487216 -116.927418 
L 143.690978 -116.63918 
L 142.89474 -115.913615 
L 142.098503 -114.87039 
L 141.302265 -113.720433 
L 140.506028 -112.719352 
L 139.70979 -112.109987 
L 138.913553 -112.071531 
L 138.117315 -112.686584 
L 137.321078 -113.926537 
L 136.52484 -115.644979 
L 135.728603 -117.579536 
L 134.932365 -119.378413 
L 134.136128 -120.666646 
L 133.33989 -121.143446 
L 132.543653 -120.674511 
L 131.747415 -119.33937 
L 130.951178 -117.412148 
L 130.15494 -115.287638 
L 129.358703 -113.384757 
L 128.562465 -112.056884 
L 127.766228 -111.52609 
L 126.96999 -111.850166 
L 126.173752 -112.931151 
L 125.377515 -114.558941 
L 124.581277 -116.478315 
L 123.78504 -118.453999 
L 122.988802 -120.311692 
L 122.192565 -121.944433 
L 121.396327 -123.290221 
L 120.60009 -124.300781 
L 119.803852 -124.927075 
L 119.007615 -125.133436 
L 118.211377 -124.935101 
L 117.41514 -124.432801 
L 116.618902 -123.814602 
L 115.822665 -123.311674 
L 115.026427 -123.120098 
L 114.23019 -123.318982 
L 113.433952 -123.821355 
L 112.637715 -124.378432 
L 111.841477 -124.649409 
L 111.04524 -124.320277 
L 110.249002 -123.231358 
L 109.452764 -121.458227 
L 108.656527 -119.303987 
L 107.860289 -117.202726 
L 107.064052 -115.57792 
L 106.267814 -114.714633 
L 105.471577 -114.686439 
L 104.675339 -115.353211 
L 103.879102 -116.424492 
L 103.082864 -117.56793 
L 102.286627 -118.526458 
L 101.490389 -119.197255 
L 100.694152 -119.636318 
L 99.897914 -119.986515 
L 99.101677 -120.368163 
L 98.305439 -120.788178 
L 97.509202 -121.110699 
L 96.712964 -121.100707 
L 95.916727 -120.520248 
L 95.120489 -119.235193 
L 94.324251 -117.283508 
L 93.528014 -114.873738 
L 92.731776 -112.314729 
L 91.935539 -109.915639 
L 91.139301 -107.904227 
L 90.343064 -106.392132 
L 89.546826 -105.386637 
L 88.750589 -104.833033 
L 87.954351 -104.669091 
L 87.158114 -104.867845 
L 86.361876 -105.442916 
L 85.565639 -106.403114 
L 84.769401 -107.672861 
L 83.973164 -109.028573 
L 83.176926 -110.114948 
L 82.380689 -110.566489 
L 81.584451 -110.18041 
L 80.788214 -109.042444 
L 79.991976 -107.534205 
L 79.195739 -106.213607 
L 78.399501 -105.624103 
L 77.603263 -106.119297 
L 76.807026 -107.765267 
L 76.010788 -110.334165 
L 75.214551 -113.374919 
L 74.418313 -116.342428 
L 73.622076 -118.761177 
L 72.825838 -120.377712 
L 72.029601 -121.233647 
L 71.233363 -121.612162 
L 70.437126 -121.883679 
L 69.640888 -122.339427 
L 68.844651 -123.094204 
L 68.048413 -124.077033 
L 67.252176 -125.085403 
L 66.455938 -125.873436 
L 65.659701 -126.252396 
L 64.863463 -126.175384 
L 64.067226 -125.765333 
L 63.270988 -125.260816 
L 62.47475 -124.904141 
L 61.678513 -124.836827 
L 60.882275 -125.060495 
L 60.086038 -125.473289 
L 59.2898 -125.945411 
L 58.493563 -126.383868 
L 57.697325 -126.757978 
L 56.901088 -127.092286 
L 56.10485 -127.446337 
L 55.308613 -127.886218 
L 54.512375 -128.446675 
L 53.716138 -129.096898 
L 52.9199 -129.731834 
L 52.123663 -130.202207 
L 51.327425 -130.374286 
L 50.531188 -130.188887 
L 49.73495 -129.687968 
L 48.938713 -128.998459 
L 48.142475 -128.289716 
L 47.346238 -127.725361 
L 46.55 -127.419449 
z
" style="stroke: #377eb8; stroke-opacity: 0.3"/>
    </defs>
    <g clip-path="url(#p35859594a5)">
     <use xlink:href="#m924a683225" x="0" y="360" style="fill: #377eb8; fill-opacity: 0.3; stroke: #377eb8; stroke-opacity: 0.3"/>
    </g>
   </g>
   <g id="patch_3">
    <path d="M 229.843878 318.2 
L 229.843878 71.241125 
L 331.762281 71.241125 
L 331.762281 318.2 
z
" clip-path="url(#p35859594a5)" style="fill: #808080; opacity: 0.3"/>
   </g>
   <g id="matplotlib.axis_1">
    <g id="xtick_1">
     <g id="line2d_1">
      <defs>
       <path id="md38ea5bb04" d="M 0 0 
L 0 3.5 
" style="stroke: #000000; stroke-width: 0.8"/>
      </defs>
      <g>
       <use xlink:href="#md38ea5bb04" x="87.158114" y="318.2" style="stroke: #000000; stroke-width: 0.8"/>
      </g>
     </g>
     <g id="text_1">
      <!-- 0.0 -->
      <g transform="translate(79.206551 332.798437)scale(0.1 -0.1)">
       <defs>
        <path id="DejaVuSans-30" d="M 2034 4250 
Q 1547 4250 1301 3770 
Q 1056 3291 1056 2328 
Q 1056 1369 1301 889 
Q 1547 409 2034 409 
Q 2525 409 2770 889 
Q 3016 1369 3016 2328 
Q 3016 3291 2770 3770 
Q 2525 4250 2034 4250 
z
M 2034 4750 
Q 2819 4750 3233 4129 
Q 3647 3509 3647 2328 
Q 3647 1150 3233 529 
Q 2819 -91 2034 -91 
Q 1250 -91 836 529 
Q 422 1150 422 2328 
Q 422 3509 836 4129 
Q 1250 4750 2034 4750 
z
" transform="scale(0.015625)"/>
        <path id="DejaVuSans-2e" d="M 684 794 
L 1344 794 
L 1344 0 
L 684 0 
L 684 794 
z
" transform="scale(0.015625)"/>
       </defs>
       <use xlink:href="#DejaVuSans-30"/>
       <use xlink:href="#DejaVuSans-2e" x="63.623047"/>
       <use xlink:href="#DejaVuSans-30" x="95.410156"/>
      </g>
     </g>
    </g>
    <g id="xtick_2">
     <g id="line2d_2">
      <g>
       <use xlink:href="#md38ea5bb04" x="168.692836" y="318.2" style="stroke: #000000; stroke-width: 0.8"/>
      </g>
     </g>
     <g id="text_2">
      <!-- 0.2 -->
      <g transform="translate(160.741274 332.798437)scale(0.1 -0.1)">
       <defs>
        <path id="DejaVuSans-32" d="M 1228 531 
L 3431 531 
L 3431 0 
L 469 0 
L 469 531 
Q 828 903 1448 1529 
Q 2069 2156 2228 2338 
Q 2531 2678 2651 2914 
Q 2772 3150 2772 3378 
Q 2772 3750 2511 3984 
Q 2250 4219 1831 4219 
Q 1534 4219 1204 4116 
Q 875 4013 500 3803 
L 500 4441 
Q 881 4594 1212 4672 
Q 1544 4750 1819 4750 
Q 2544 4750 2975 4387 
Q 3406 4025 3406 3419 
Q 3406 3131 3298 2873 
Q 3191 2616 2906 2266 
Q 2828 2175 2409 1742 
Q 1991 1309 1228 531 
z
" transform="scale(0.015625)"/>
       </defs>
       <use xlink:href="#DejaVuSans-30"/>
       <use xlink:href="#DejaVuSans-2e" x="63.623047"/>
       <use xlink:href="#DejaVuSans-32" x="95.410156"/>
      </g>
     </g>
    </g>
    <g id="xtick_3">
     <g id="line2d_3">
      <g>
       <use xlink:href="#md38ea5bb04" x="250.227559" y="318.2" style="stroke: #000000; stroke-width: 0.8"/>
      </g>
     </g>
     <g id="text_3">
      <!-- 0.4 -->
      <g transform="translate(242.275996 332.798437)scale(0.1 -0.1)">
       <defs>
        <path id="DejaVuSans-34" d="M 2419 4116 
L 825 1625 
L 2419 1625 
L 2419 4116 
z
M 2253 4666 
L 3047 4666 
L 3047 1625 
L 3713 1625 
L 3713 1100 
L 3047 1100 
L 3047 0 
L 2419 0 
L 2419 1100 
L 313 1100 
L 313 1709 
L 2253 4666 
z
" transform="scale(0.015625)"/>
       </defs>
       <use xlink:href="#DejaVuSans-30"/>
       <use xlink:href="#DejaVuSans-2e" x="63.623047"/>
       <use xlink:href="#DejaVuSans-34" x="95.410156"/>
      </g>
     </g>
    </g>
    <g id="xtick_4">
     <g id="line2d_4">
      <g>
       <use xlink:href="#md38ea5bb04" x="331.762281" y="318.2" style="stroke: #000000; stroke-width: 0.8"/>
      </g>
     </g>
     <g id="text_4">
      <!-- 0.6 -->
      <g transform="translate(323.810719 332.798437)scale(0.1 -0.1)">
       <defs>
        <path id="DejaVuSans-36" d="M 2113 2584 
Q 1688 2584 1439 2293 
Q 1191 2003 1191 1497 
Q 1191 994 1439 701 
Q 1688 409 2113 409 
Q 2538 409 2786 701 
Q 3034 994 3034 1497 
Q 3034 2003 2786 2293 
Q 2538 2584 2113 2584 
z
M 3366 4563 
L 3366 3988 
Q 3128 4100 2886 4159 
Q 2644 4219 2406 4219 
Q 1781 4219 1451 3797 
Q 1122 3375 1075 2522 
Q 1259 2794 1537 2939 
Q 1816 3084 2150 3084 
Q 2853 3084 3261 2657 
Q 3669 2231 3669 1497 
Q 3669 778 3244 343 
Q 2819 -91 2113 -91 
Q 1303 -91 875 529 
Q 447 1150 447 2328 
Q 447 3434 972 4092 
Q 1497 4750 2381 4750 
Q 2619 4750 2861 4703 
Q 3103 4656 3366 4563 
z
" transform="scale(0.015625)"/>
       </defs>
       <use xlink:href="#DejaVuSans-30"/>
       <use xlink:href="#DejaVuSans-2e" x="63.623047"/>
       <use xlink:href="#DejaVuSans-36" x="95.410156"/>
      </g>
     </g>
    </g>
    <g id="xtick_5">
     <g id="line2d_5">
      <g>
       <use xlink:href="#md38ea5bb04" x="413.297004" y="318.2" style="stroke: #000000; stroke-width: 0.8"/>
      </g>
     </g>
     <g id="text_5">
      <!-- 0.8 -->
      <g transform="translate(405.345441 332.798437)scale(0.1 -0.1)">
       <defs>
        <path id="DejaVuSans-38" d="M 2034 2216 
Q 1584 2216 1326 1975 
Q 1069 1734 1069 1313 
Q 1069 891 1326 650 
Q 1584 409 2034 409 
Q 2484 409 2743 651 
Q 3003 894 3003 1313 
Q 3003 1734 2745 1975 
Q 2488 2216 2034 2216 
z
M 1403 2484 
Q 997 2584 770 2862 
Q 544 3141 544 3541 
Q 544 4100 942 4425 
Q 1341 4750 2034 4750 
Q 2731 4750 3128 4425 
Q 3525 4100 3525 3541 
Q 3525 3141 3298 2862 
Q 3072 2584 2669 2484 
Q 3125 2378 3379 2068 
Q 3634 1759 3634 1313 
Q 3634 634 3220 271 
Q 2806 -91 2034 -91 
Q 1263 -91 848 271 
Q 434 634 434 1313 
Q 434 1759 690 2068 
Q 947 2378 1403 2484 
z
M 1172 3481 
Q 1172 3119 1398 2916 
Q 1625 2713 2034 2713 
Q 2441 2713 2670 2916 
Q 2900 3119 2900 3481 
Q 2900 3844 2670 4047 
Q 2441 4250 2034 4250 
Q 1625 4250 1398 4047 
Q 1172 3844 1172 3481 
z
" transform="scale(0.015625)"/>
       </defs>
       <use xlink:href="#DejaVuSans-30"/>
       <use xlink:href="#DejaVuSans-2e" x="63.623047"/>
       <use xlink:href="#DejaVuSans-38" x="95.410156"/>
      </g>
     </g>
    </g>
    <g id="text_6">
     <!-- seconds -->
     <g transform="translate(209.645249 346.476562)scale(0.1 -0.1)">
      <defs>
       <path id="DejaVuSans-73" d="M 2834 3397 
L 2834 2853 
Q 2591 2978 2328 3040 
Q 2066 3103 1784 3103 
Q 1356 3103 1142 2972 
Q 928 2841 928 2578 
Q 928 2378 1081 2264 
Q 1234 2150 1697 2047 
L 1894 2003 
Q 2506 1872 2764 1633 
Q 3022 1394 3022 966 
Q 3022 478 2636 193 
Q 2250 -91 1575 -91 
Q 1294 -91 989 -36 
Q 684 19 347 128 
L 347 722 
Q 666 556 975 473 
Q 1284 391 1588 391 
Q 1994 391 2212 530 
Q 2431 669 2431 922 
Q 2431 1156 2273 1281 
Q 2116 1406 1581 1522 
L 1381 1569 
Q 847 1681 609 1914 
Q 372 2147 372 2553 
Q 372 3047 722 3315 
Q 1072 3584 1716 3584 
Q 2034 3584 2315 3537 
Q 2597 3491 2834 3397 
z
" transform="scale(0.015625)"/>
       <path id="DejaVuSans-65" d="M 3597 1894 
L 3597 1613 
L 953 1613 
Q 991 1019 1311 708 
Q 1631 397 2203 397 
Q 2534 397 2845 478 
Q 3156 559 3463 722 
L 3463 178 
Q 3153 47 2828 -22 
Q 2503 -91 2169 -91 
Q 1331 -91 842 396 
Q 353 884 353 1716 
Q 353 2575 817 3079 
Q 1281 3584 2069 3584 
Q 2775 3584 3186 3129 
Q 3597 2675 3597 1894 
z
M 3022 2063 
Q 3016 2534 2758 2815 
Q 2500 3097 2075 3097 
Q 1594 3097 1305 2825 
Q 1016 2553 972 2059 
L 3022 2063 
z
" transform="scale(0.015625)"/>
       <path id="DejaVuSans-63" d="M 3122 3366 
L 3122 2828 
Q 2878 2963 2633 3030 
Q 2388 3097 2138 3097 
Q 1578 3097 1268 2742 
Q 959 2388 959 1747 
Q 959 1106 1268 751 
Q 1578 397 2138 397 
Q 2388 397 2633 464 
Q 2878 531 3122 666 
L 3122 134 
Q 2881 22 2623 -34 
Q 2366 -91 2075 -91 
Q 1284 -91 818 406 
Q 353 903 353 1747 
Q 353 2603 823 3093 
Q 1294 3584 2113 3584 
Q 2378 3584 2631 3529 
Q 2884 3475 3122 3366 
z
" transform="scale(0.015625)"/>
       <path id="DejaVuSans-6f" d="M 1959 3097 
Q 1497 3097 1228 2736 
Q 959 2375 959 1747 
Q 959 1119 1226 758 
Q 1494 397 1959 397 
Q 2419 397 2687 759 
Q 2956 1122 2956 1747 
Q 2956 2369 2687 2733 
Q 2419 3097 1959 3097 
z
M 1959 3584 
Q 2709 3584 3137 3096 
Q 3566 2609 3566 1747 
Q 3566 888 3137 398 
Q 2709 -91 1959 -91 
Q 1206 -91 779 398 
Q 353 888 353 1747 
Q 353 2609 779 3096 
Q 1206 3584 1959 3584 
z
" transform="scale(0.015625)"/>
       <path id="DejaVuSans-6e" d="M 3513 2113 
L 3513 0 
L 2938 0 
L 2938 2094 
Q 2938 2591 2744 2837 
Q 2550 3084 2163 3084 
Q 1697 3084 1428 2787 
Q 1159 2491 1159 1978 
L 1159 0 
L 581 0 
L 581 3500 
L 1159 3500 
L 1159 2956 
Q 1366 3272 1645 3428 
Q 1925 3584 2291 3584 
Q 2894 3584 3203 3211 
Q 3513 2838 3513 2113 
z
" transform="scale(0.015625)"/>
       <path id="DejaVuSans-64" d="M 2906 2969 
L 2906 4863 
L 3481 4863 
L 3481 0 
L 2906 0 
L 2906 525 
Q 2725 213 2448 61 
Q 2172 -91 1784 -91 
Q 1150 -91 751 415 
Q 353 922 353 1747 
Q 353 2572 751 3078 
Q 1150 3584 1784 3584 
Q 2172 3584 2448 3432 
Q 2725 3281 2906 2969 
z
M 947 1747 
Q 947 1113 1208 752 
Q 1469 391 1925 391 
Q 2381 391 2643 752 
Q 2906 1113 2906 1747 
Q 2906 2381 2643 2742 
Q 2381 3103 1925 3103 
Q 1469 3103 1208 2742 
Q 947 2381 947 1747 
z
" transform="scale(0.015625)"/>
      </defs>
      <use xlink:href="#DejaVuSans-73"/>
      <use xlink:href="#DejaVuSans-65" x="52.099609"/>
      <use xlink:href="#DejaVuSans-63" x="113.623047"/>
      <use xlink:href="#DejaVuSans-6f" x="168.603516"/>
      <use xlink:href="#DejaVuSans-6e" x="229.785156"/>
      <use xlink:href="#DejaVuSans-64" x="293.164062"/>
      <use xlink:href="#DejaVuSans-73" x="356.640625"/>
     </g>
    </g>
   </g>
   <g id="matplotlib.axis_2">
    <g id="ytick_1">
     <g id="line2d_6">
      <defs>
       <path id="mf0dfad39e3" d="M 0 0 
L -3.5 0 
" style="stroke: #000000; stroke-width: 0.8"/>
      </defs>
      <g>
       <use xlink:href="#mf0dfad39e3" x="46.55" y="284.824301" style="stroke: #000000; stroke-width: 0.8"/>
      </g>
     </g>
     <g id="text_7">
      <!-- 1 -->
      <g transform="translate(24.807812 288.623519)scale(0.1 -0.1)">
       <defs>
        <path id="DejaVuSans-2212" d="M 678 2272 
L 4684 2272 
L 4684 1741 
L 678 1741 
L 678 2272 
z
" transform="scale(0.015625)"/>
        <path id="DejaVuSans-31" d="M 794 531 
L 1825 531 
L 1825 4091 
L 703 3866 
L 703 4441 
L 1819 4666 
L 2450 4666 
L 2450 531 
L 3481 531 
L 3481 0 
L 794 0 
L 794 531 
z
" transform="scale(0.015625)"/>
       </defs>
       <use xlink:href="#DejaVuSans-2212"/>
       <use xlink:href="#DejaVuSans-31" x="83.789062"/>
      </g>
     </g>
    </g>
    <g id="ytick_2">
     <g id="line2d_7">
      <g>
       <use xlink:href="#mf0dfad39e3" x="46.55" y="250.059101" style="stroke: #000000; stroke-width: 0.8"/>
      </g>
     </g>
     <g id="text_8">
      <!-- 0 -->
      <g transform="translate(33.1875 253.858319)scale(0.1 -0.1)">
       <use xlink:href="#DejaVuSans-30"/>
      </g>
     </g>
    </g>
    <g id="ytick_3">
     <g id="line2d_8">
      <g>
       <use xlink:href="#mf0dfad39e3" x="46.55" y="215.293901" style="stroke: #000000; stroke-width: 0.8"/>
      </g>
     </g>
     <g id="text_9">
      <!-- 1 -->
      <g transform="translate(33.1875 219.093119)scale(0.1 -0.1)">
       <use xlink:href="#DejaVuSans-31"/>
      </g>
     </g>
    </g>
    <g id="ytick_4">
     <g id="line2d_9">
      <g>
       <use xlink:href="#mf0dfad39e3" x="46.55" y="180.528701" style="stroke: #000000; stroke-width: 0.8"/>
      </g>
     </g>
     <g id="text_10">
      <!-- 2 -->
      <g transform="translate(33.1875 184.327919)scale(0.1 -0.1)">
       <use xlink:href="#DejaVuSans-32"/>
      </g>
     </g>
    </g>
    <g id="ytick_5">
     <g id="line2d_10">
      <g>
       <use xlink:href="#mf0dfad39e3" x="46.55" y="145.763501" style="stroke: #000000; stroke-width: 0.8"/>
      </g>
     </g>
     <g id="text_11">
      <!-- 3 -->
      <g transform="translate(33.1875 149.56272)scale(0.1 -0.1)">
       <defs>
        <path id="DejaVuSans-33" d="M 2597 2516 
Q 3050 2419 3304 2112 
Q 3559 1806 3559 1356 
Q 3559 666 3084 287 
Q 2609 -91 1734 -91 
Q 1441 -91 1130 -33 
Q 819 25 488 141 
L 488 750 
Q 750 597 1062 519 
Q 1375 441 1716 441 
Q 2309 441 2620 675 
Q 2931 909 2931 1356 
Q 2931 1769 2642 2001 
Q 2353 2234 1838 2234 
L 1294 2234 
L 1294 2753 
L 1863 2753 
Q 2328 2753 2575 2939 
Q 2822 3125 2822 3475 
Q 2822 3834 2567 4026 
Q 2313 4219 1838 4219 
Q 1578 4219 1281 4162 
Q 984 4106 628 3988 
L 628 4550 
Q 988 4650 1302 4700 
Q 1616 4750 1894 4750 
Q 2613 4750 3031 4423 
Q 3450 4097 3450 3541 
Q 3450 3153 3228 2886 
Q 3006 2619 2597 2516 
z
" transform="scale(0.015625)"/>
       </defs>
       <use xlink:href="#DejaVuSans-33"/>
      </g>
     </g>
    </g>
    <g id="ytick_6">
     <g id="line2d_11">
      <g>
       <use xlink:href="#mf0dfad39e3" x="46.55" y="110.998301" style="stroke: #000000; stroke-width: 0.8"/>
      </g>
     </g>
     <g id="text_12">
      <!-- 4 -->
      <g transform="translate(33.1875 114.79752)scale(0.1 -0.1)">
       <use xlink:href="#DejaVuSans-34"/>
      </g>
     </g>
    </g>
    <g id="ytick_7">
     <g id="line2d_12">
      <g>
       <use xlink:href="#mf0dfad39e3" x="46.55" y="76.233101" style="stroke: #000000; stroke-width: 0.8"/>
      </g>
     </g>
     <g id="text_13">
      <!-- 5 -->
      <g transform="translate(33.1875 80.03232)scale(0.1 -0.1)">
       <defs>
        <path id="DejaVuSans-35" d="M 691 4666 
L 3169 4666 
L 3169 4134 
L 1269 4134 
L 1269 2991 
Q 1406 3038 1543 3061 
Q 1681 3084 1819 3084 
Q 2600 3084 3056 2656 
Q 3513 2228 3513 1497 
Q 3513 744 3044 326 
Q 2575 -91 1722 -91 
Q 1428 -91 1123 -41 
Q 819 9 494 109 
L 494 744 
Q 775 591 1075 516 
Q 1375 441 1709 441 
Q 2250 441 2565 725 
Q 2881 1009 2881 1497 
Q 2881 1984 2565 2268 
Q 2250 2553 1709 2553 
Q 1456 2553 1204 2497 
Q 953 2441 691 2322 
L 691 4666 
z
" transform="scale(0.015625)"/>
       </defs>
       <use xlink:href="#DejaVuSans-35"/>
      </g>
     </g>
    </g>
    <g id="text_14">
     <!-- V -->
     <g transform="translate(18.728125 201.322125)rotate(-90)scale(0.1 -0.1)">
      <defs>
       <path id="DejaVuSans-b5" d="M 544 -1331 
L 544 3500 
L 1119 3500 
L 1119 1325 
Q 1119 872 1334 640 
Q 1550 409 1972 409 
Q 2434 409 2667 671 
Q 2900 934 2900 1459 
L 2900 3500 
L 3475 3500 
L 3475 806 
Q 3475 619 3529 530 
Q 3584 441 3700 441 
Q 3728 441 3778 458 
Q 3828 475 3916 513 
L 3916 50 
Q 3788 -22 3673 -56 
Q 3559 -91 3450 -91 
Q 3234 -91 3106 31 
Q 2978 153 2931 403 
Q 2775 156 2548 32 
Q 2322 -91 2016 -91 
Q 1697 -91 1473 31 
Q 1250 153 1119 397 
L 1119 -1331 
L 544 -1331 
z
" transform="scale(0.015625)"/>
       <path id="DejaVuSans-56" d="M 1831 0 
L 50 4666 
L 709 4666 
L 2188 738 
L 3669 4666 
L 4325 4666 
L 2547 0 
L 1831 0 
z
" transform="scale(0.015625)"/>
      </defs>
      <use xlink:href="#DejaVuSans-b5"/>
      <use xlink:href="#DejaVuSans-56" x="63.623047"/>
     </g>
    </g>
   </g>
   <g id="line2d_13">
    <path d="M 46.55 248.906637 
L 47.346238 247.449957 
L 48.142475 247.067482 
L 48.938713 247.823266 
L 49.73495 249.565082 
L 51.327425 254.251746 
L 52.123663 256.073163 
L 52.9199 256.990017 
L 53.716138 256.949695 
L 54.512375 256.218949 
L 55.308613 255.251815 
L 56.10485 254.474659 
L 56.901088 254.082078 
L 57.697325 253.939122 
L 58.493563 253.642565 
L 59.2898 252.723989 
L 60.086038 250.91041 
L 62.47475 243.365059 
L 63.270988 242.650306 
L 64.067226 243.838054 
L 64.863463 246.78247 
L 66.455938 254.464395 
L 67.252176 256.827892 
L 68.048413 256.997116 
L 68.844651 254.841595 
L 69.640888 250.964406 
L 70.437126 246.499584 
L 71.233363 242.72826 
L 72.029601 240.656105 
L 72.825838 240.702923 
L 73.622076 242.61006 
L 75.214551 248.60519 
L 76.010788 250.784979 
L 76.807026 251.628992 
L 77.603263 251.136349 
L 78.399501 249.717336 
L 79.195739 247.989991 
L 79.991976 246.548809 
L 80.788214 245.793604 
L 81.584451 245.866831 
L 82.380689 246.694982 
L 83.176926 248.08791 
L 84.769401 251.761834 
L 86.361876 255.544204 
L 87.158114 257.061423 
L 87.954351 258.065119 
L 88.750589 258.392208 
L 89.546826 257.99503 
L 90.343064 256.9952 
L 91.935539 254.430626 
L 92.731776 253.601424 
L 93.528014 253.400238 
L 94.324251 253.814009 
L 95.916727 255.431664 
L 96.712964 255.897214 
L 97.509202 255.755849 
L 98.305439 254.954932 
L 100.694152 250.865103 
L 101.490389 250.057809 
L 102.286627 249.926018 
L 103.082864 250.485128 
L 103.879102 251.606254 
L 107.064052 257.240301 
L 107.860289 258.0708 
L 108.656527 258.545702 
L 109.452764 258.686613 
L 110.249002 258.521412 
L 111.04524 258.066751 
L 111.841477 257.326238 
L 112.637715 256.307862 
L 114.23019 253.656348 
L 115.822665 251.085883 
L 116.618902 250.235079 
L 117.41514 249.754763 
L 119.007615 249.208776 
L 119.803852 248.4468 
L 120.60009 246.863796 
L 121.396327 244.283949 
L 122.988802 236.961045 
L 123.78504 233.339393 
L 124.581277 230.665327 
L 125.377515 229.427295 
L 126.173752 229.72556 
L 126.96999 231.221094 
L 128.562465 235.035573 
L 129.358703 236.025305 
L 130.15494 236.054281 
L 131.747415 234.80445 
L 132.543653 234.889486 
L 133.33989 236.158983 
L 134.136128 238.619489 
L 135.728603 244.757326 
L 136.52484 246.69756 
L 137.321078 246.999697 
L 138.117315 245.604074 
L 140.506028 237.921917 
L 141.302265 237.091062 
L 142.098503 237.859384 
L 142.89474 239.921962 
L 144.487216 245.145169 
L 145.283453 246.954086 
L 146.079691 247.79925 
L 146.875928 247.805763 
L 147.672166 247.317825 
L 150.857116 244.711493 
L 151.653353 243.484422 
L 154.042066 238.319256 
L 154.838303 237.55009 
L 155.634541 238.019755 
L 156.430778 239.792141 
L 158.819491 248.068332 
L 159.615729 249.468784 
L 160.411966 249.456464 
L 161.208204 248.167056 
L 163.596916 241.824859 
L 164.393154 240.417705 
L 166.781866 237.518357 
L 167.578104 235.768406 
L 168.374341 233.320486 
L 171.559291 221.708669 
L 172.355529 219.660719 
L 173.948004 216.504164 
L 175.540479 213.74348 
L 176.336717 212.625075 
L 177.132954 211.958472 
L 177.929192 211.926794 
L 178.725429 212.563877 
L 179.521667 213.711882 
L 181.114142 216.291261 
L 181.910379 217.156037 
L 182.706617 217.630736 
L 184.299092 218.259845 
L 185.095329 219.003628 
L 185.891567 220.237142 
L 187.484042 223.33446 
L 188.280279 224.303048 
L 189.076517 224.273667 
L 189.872754 223.035587 
L 190.668992 220.700153 
L 193.057705 211.86877 
L 193.853942 210.024008 
L 194.65018 209.105277 
L 195.446417 208.93243 
L 197.038892 209.387112 
L 197.83513 209.369762 
L 198.631367 209.019327 
L 200.223842 207.830587 
L 201.02008 207.428626 
L 201.816317 207.392259 
L 202.612555 207.790399 
L 203.408792 208.617372 
L 204.20503 209.836913 
L 205.001267 211.418654 
L 205.797505 213.342643 
L 207.38998 217.979892 
L 208.186218 220.357097 
L 208.982455 222.372104 
L 209.778693 223.653731 
L 210.57493 223.888912 
L 211.371168 222.932363 
L 212.167405 220.880789 
L 214.556118 212.320101 
L 215.352355 210.360457 
L 216.148593 209.36485 
L 216.94483 209.249539 
L 218.537305 210.150372 
L 219.333543 210.176944 
L 220.12978 209.38729 
L 220.926018 207.643767 
L 221.722255 205.073475 
L 223.31473 199.031659 
L 224.110968 196.58688 
L 224.907206 195.122733 
L 225.703443 194.854715 
L 226.499681 195.734126 
L 227.295918 197.450614 
L 228.888393 201.3099 
L 229.684631 202.389288 
L 230.480868 202.473727 
L 231.277106 201.609747 
L 232.869581 198.651742 
L 233.665818 197.688227 
L 234.462056 197.651827 
L 235.258293 198.594782 
L 236.850768 201.791767 
L 237.647006 202.70632 
L 238.443243 202.390522 
L 239.239481 200.702269 
L 241.628194 192.698844 
L 242.424431 191.883939 
L 243.220669 192.977746 
L 244.016906 195.844208 
L 246.405619 207.263464 
L 247.201856 209.057449 
L 247.998094 209.139256 
L 248.794331 207.806104 
L 250.386806 203.59056 
L 251.183044 202.047357 
L 251.979281 201.329177 
L 252.775519 201.305675 
L 253.571756 201.552531 
L 254.367994 201.525736 
L 255.164231 200.752474 
L 255.960469 198.974632 
L 256.756707 196.208761 
L 259.941657 182.619157 
L 260.737894 180.909936 
L 261.534132 180.515795 
L 262.330369 181.431162 
L 263.126607 183.39915 
L 264.719082 188.281796 
L 265.515319 189.724833 
L 266.311557 189.558883 
L 267.107794 187.360313 
L 267.904032 183.093929 
L 268.700269 177.142579 
L 271.088982 156.734406 
L 271.88522 151.385019 
L 272.681457 147.18758 
L 274.273932 140.992021 
L 275.866407 135.059493 
L 277.458882 128.952601 
L 278.25512 126.724418 
L 279.051357 125.607983 
L 279.847595 125.796195 
L 280.643832 127.202849 
L 281.44007 129.496406 
L 283.032545 134.865512 
L 283.828782 137.086036 
L 284.62502 138.62856 
L 285.421257 139.373006 
L 286.217495 139.276094 
L 287.013732 138.335305 
L 287.80997 136.58893 
L 288.606208 134.152811 
L 290.99492 125.848763 
L 291.791158 124.359441 
L 292.587395 124.297054 
L 293.383633 125.86811 
L 294.17987 128.980013 
L 295.772345 138.10631 
L 297.36482 147.111783 
L 298.161058 150.346739 
L 298.957295 152.462536 
L 299.753533 153.496752 
L 300.54977 153.616521 
L 301.346008 153.057438 
L 303.73472 150.00284 
L 304.530958 149.433806 
L 305.327196 149.457882 
L 306.123433 150.133244 
L 308.512146 153.802294 
L 309.308383 154.118091 
L 310.104621 153.313623 
L 310.900858 151.332588 
L 313.289571 142.504174 
L 314.085808 140.716013 
L 314.882046 140.224164 
L 315.678283 140.92409 
L 317.270758 143.817591 
L 318.066996 144.734193 
L 318.863233 144.7725 
L 319.659471 144.034011 
L 320.455709 143.02202 
L 321.251946 142.46968 
L 322.048184 143.075329 
L 322.844421 145.23831 
L 323.640659 148.889337 
L 325.233134 158.117632 
L 326.029371 161.858176 
L 326.825609 163.965753 
L 327.621846 164.148655 
L 328.418084 162.641067 
L 330.010559 157.563409 
L 330.806796 155.878344 
L 331.603034 155.772638 
L 332.399271 157.539802 
L 333.195509 161.027905 
L 336.380459 179.231682 
L 337.176697 181.364289 
L 337.972934 181.790707 
L 338.769172 180.638849 
L 339.565409 178.290717 
L 341.157884 172.293204 
L 341.954122 169.837537 
L 342.750359 168.345765 
L 343.546597 167.989934 
L 344.342834 168.677637 
L 345.139072 170.093105 
L 346.731547 173.374846 
L 347.527784 174.544358 
L 348.324022 175.254577 
L 349.916497 176.084672 
L 350.712734 176.776421 
L 351.508972 177.867832 
L 353.101447 180.550981 
L 353.897685 181.33833 
L 354.693922 181.202151 
L 355.49016 179.970977 
L 356.286397 177.801227 
L 357.878872 172.68896 
L 358.67511 171.001044 
L 359.471347 170.471432 
L 360.267585 171.112972 
L 361.063822 172.575439 
L 361.86006 174.272373 
L 362.656297 175.588123 
L 363.452535 176.08941 
L 364.248772 175.666592 
L 365.04501 174.552815 
L 365.841247 173.230141 
L 366.637485 172.253315 
L 367.433722 172.065621 
L 368.22996 172.871125 
L 369.026198 174.60251 
L 370.618673 179.651386 
L 372.211148 184.656881 
L 373.803623 188.480957 
L 375.396098 191.312912 
L 376.192335 192.38947 
L 376.988573 193.185375 
L 377.78481 193.656057 
L 378.581048 193.795228 
L 379.377285 193.64304 
L 380.173523 193.269972 
L 381.765998 192.134431 
L 384.15471 190.238296 
L 384.950948 189.917998 
L 385.747186 190.024617 
L 386.543423 190.711312 
L 387.339661 192.031962 
L 388.135898 193.890845 
L 389.728373 198.182033 
L 390.524611 200.012751 
L 391.320848 201.401103 
L 393.709561 204.361646 
L 394.505798 205.842099 
L 396.894511 211.652761 
L 397.690748 212.674679 
L 398.486986 212.536506 
L 399.283223 211.159899 
L 400.079461 208.812311 
L 401.671936 203.464176 
L 402.468174 201.63126 
L 403.264411 200.786757 
L 404.060649 200.842937 
L 405.653124 202.064741 
L 406.449361 202.299319 
L 407.245599 201.896626 
L 408.041836 200.871362 
L 410.430549 196.787508 
L 411.226786 196.05676 
L 412.023024 195.823246 
L 413.615499 196.18257 
L 413.615499 196.18257 
" clip-path="url(#p35859594a5)" style="fill: none; stroke: #e41a1c; stroke-width: 1.5; stroke-linecap: square"/>
   </g>
   <g id="line2d_14">
    <path d="M 46.55 244.854064 
L 47.346238 244.35281 
L 48.938713 242.70618 
L 49.73495 241.829412 
L 50.531188 241.161144 
L 51.327425 240.840492 
L 52.123663 240.906752 
L 52.9199 241.284443 
L 54.512375 242.311541 
L 55.308613 242.647948 
L 56.10485 242.790892 
L 57.697325 242.850688 
L 58.493563 243.029231 
L 59.2898 243.398569 
L 60.882275 244.37893 
L 61.678513 244.665106 
L 62.47475 244.642839 
L 63.270988 244.323 
L 64.863463 243.474716 
L 65.659701 243.415295 
L 66.455938 243.802428 
L 67.252176 244.596933 
L 68.844651 246.560087 
L 69.640888 247.246364 
L 70.437126 247.609362 
L 71.233363 247.805484 
L 72.029601 248.161328 
L 72.825838 249.053358 
L 73.622076 250.751025 
L 74.418313 253.28576 
L 76.807026 262.323212 
L 77.603263 264.076402 
L 78.399501 264.642166 
L 79.195739 264.124041 
L 81.584451 260.561934 
L 82.380689 260.295776 
L 83.176926 260.847288 
L 83.973164 262.070129 
L 86.361876 266.688315 
L 87.158114 267.694229 
L 87.954351 268.255818 
L 88.750589 268.369054 
L 89.546826 268.028914 
L 90.343064 267.208188 
L 91.139301 265.87866 
L 91.935539 264.061137 
L 95.120489 255.595058 
L 95.916727 254.464778 
L 96.712964 253.992382 
L 97.509202 254.056592 
L 99.101677 254.925466 
L 101.490389 256.363226 
L 102.286627 257.130161 
L 103.082864 258.185295 
L 104.675339 260.608397 
L 105.471577 261.368131 
L 106.267814 261.395401 
L 107.064052 260.538154 
L 107.860289 258.884574 
L 109.452764 254.607445 
L 110.249002 252.891705 
L 111.04524 251.906332 
L 111.841477 251.712509 
L 112.637715 252.135107 
L 114.23019 253.491841 
L 115.026427 253.818773 
L 115.822665 253.743433 
L 118.211377 252.464662 
L 119.007615 252.365487 
L 119.803852 252.641134 
L 120.60009 253.29739 
L 121.396327 254.297082 
L 122.192565 255.598948 
L 123.78504 258.984644 
L 126.173752 264.679093 
L 126.96999 265.912608 
L 127.766228 266.386775 
L 128.562465 265.972585 
L 129.358703 264.720499 
L 131.747415 259.00494 
L 132.543653 257.810607 
L 133.33989 257.475884 
L 134.136128 258.042523 
L 134.932365 259.362446 
L 137.321078 264.744791 
L 138.117315 265.960676 
L 138.913553 266.555839 
L 139.70979 266.507201 
L 140.506028 265.908088 
L 142.89474 262.921147 
L 143.690978 262.320968 
L 144.487216 262.176126 
L 145.283453 262.468815 
L 147.672166 264.165107 
L 148.468403 264.273289 
L 149.264641 263.984595 
L 151.653353 262.385817 
L 152.449591 262.443706 
L 153.245828 263.074734 
L 154.042066 264.247994 
L 155.634541 267.543274 
L 157.227016 270.778779 
L 158.023253 272.083157 
L 158.819491 273.156688 
L 159.615729 274.009163 
L 160.411966 274.625121 
L 161.208204 274.954284 
L 162.004441 274.937163 
L 162.800679 274.551578 
L 163.596916 273.855063 
L 165.189391 272.188131 
L 165.985629 271.635679 
L 166.781866 271.469329 
L 167.578104 271.690129 
L 169.966816 272.989786 
L 170.763054 272.94784 
L 171.559291 272.50498 
L 172.355529 271.729615 
L 174.744241 268.679128 
L 176.336717 266.573539 
L 177.929192 264.136597 
L 179.521667 261.67044 
L 180.317904 260.70859 
L 181.114142 260.017928 
L 182.706617 259.200888 
L 184.299092 258.36218 
L 185.095329 257.880064 
L 185.891567 257.572053 
L 186.687804 257.698835 
L 187.484042 258.478829 
L 188.280279 259.977921 
L 190.668992 266.43886 
L 191.46523 267.946096 
L 192.261467 268.68278 
L 193.057705 268.728775 
L 194.65018 268.151926 
L 195.446417 268.37713 
L 196.242655 269.291466 
L 197.038892 270.83231 
L 198.631367 274.358785 
L 199.427605 275.408732 
L 200.223842 275.524069 
L 201.02008 274.654029 
L 201.816317 273.010184 
L 203.408792 269.072192 
L 204.20503 267.648224 
L 205.001267 266.960482 
L 205.797505 267.039883 
L 206.593742 267.723798 
L 208.186218 269.671737 
L 208.982455 270.281955 
L 209.778693 270.345587 
L 210.57493 269.812161 
L 211.371168 268.793276 
L 212.963643 266.388997 
L 213.75988 265.686138 
L 214.556118 265.700854 
L 215.352355 266.553801 
L 216.148593 268.177328 
L 218.537305 274.683418 
L 219.333543 276.175079 
L 220.12978 276.926362 
L 220.926018 276.943307 
L 221.722255 276.386316 
L 224.110968 273.699392 
L 224.907206 273.059693 
L 225.703443 272.631692 
L 226.499681 272.375544 
L 227.295918 272.252209 
L 228.092156 272.255266 
L 228.888393 272.415067 
L 229.684631 272.77806 
L 230.480868 273.375096 
L 231.277106 274.196572 
L 235.258293 279.034541 
L 236.054531 279.592884 
L 236.850768 279.872044 
L 237.647006 279.805306 
L 238.443243 279.332238 
L 239.239481 278.432183 
L 240.035719 277.163481 
L 241.628194 274.23801 
L 242.424431 273.091499 
L 243.220669 272.452956 
L 244.016906 272.387844 
L 244.813144 272.774228 
L 245.609381 273.320454 
L 246.405619 273.646486 
L 247.201856 273.404984 
L 247.998094 272.400779 
L 248.794331 270.665816 
L 251.183044 264.374869 
L 251.979281 263.330805 
L 252.775519 263.284579 
L 253.571756 264.241573 
L 254.367994 266.041774 
L 255.960469 271.154524 
L 258.349182 279.304851 
L 259.145419 281.514556 
L 259.941657 283.204991 
L 260.737894 284.200285 
L 261.534132 284.367419 
L 262.330369 283.678567 
L 263.126607 282.255614 
L 265.515319 276.692882 
L 266.311557 275.540368 
L 267.107794 275.029349 
L 267.904032 275.059962 
L 269.496507 275.715123 
L 270.292744 275.814501 
L 271.088982 275.599773 
L 272.681457 274.692077 
L 273.477695 274.443955 
L 274.273932 274.562258 
L 275.07017 275.031807 
L 275.866407 275.655005 
L 276.662645 276.108603 
L 277.458882 276.057345 
L 278.25512 275.284408 
L 279.051357 273.791399 
L 280.643832 269.844809 
L 281.44007 268.357854 
L 282.236307 267.807945 
L 283.032545 268.422089 
L 283.828782 270.147508 
L 285.421257 275.515412 
L 286.217495 278.180665 
L 287.013732 280.276518 
L 287.80997 281.607369 
L 288.606208 282.182186 
L 289.402445 282.153842 
L 290.198683 281.717975 
L 290.99492 281.014585 
L 291.791158 280.072838 
L 292.587395 278.819256 
L 293.383633 277.142559 
L 294.17987 274.984548 
L 297.36482 264.915642 
L 298.161058 263.533985 
L 298.957295 262.968223 
L 299.753533 263.088847 
L 302.142245 264.572893 
L 302.938483 264.590673 
L 303.73472 264.274065 
L 306.123433 262.748526 
L 308.512146 261.544972 
L 310.900858 259.863817 
L 311.697096 259.829972 
L 312.493333 260.427661 
L 313.289571 261.687542 
L 315.678283 266.602177 
L 316.474521 267.210666 
L 317.270758 266.890926 
L 318.066996 265.818164 
L 318.863233 264.448323 
L 319.659471 263.373553 
L 320.455709 263.118812 
L 321.251946 263.953684 
L 322.048184 265.789626 
L 323.640659 270.575527 
L 324.436896 272.305579 
L 325.233134 273.00709 
L 326.029371 272.631753 
L 326.825609 271.469512 
L 327.621846 270.033696 
L 328.418084 268.877666 
L 329.214321 268.411722 
L 330.010559 268.784805 
L 330.806796 269.867341 
L 332.399271 272.785199 
L 333.195509 273.914714 
L 333.991746 274.566448 
L 334.787984 274.761155 
L 335.584221 274.636273 
L 337.176697 274.019394 
L 338.769172 273.145016 
L 339.565409 272.439958 
L 340.361647 271.473954 
L 341.954122 268.958619 
L 343.546597 266.464804 
L 346.731547 262.264067 
L 348.324022 259.739175 
L 349.120259 258.77333 
L 349.916497 258.386122 
L 350.712734 258.795083 
L 351.508972 260.04179 
L 353.101447 264.126643 
L 353.897685 266.111901 
L 354.693922 267.462696 
L 355.49016 267.905024 
L 356.286397 267.401339 
L 357.082635 266.146006 
L 358.67511 262.815793 
L 359.471347 261.438914 
L 360.267585 260.521594 
L 361.063822 260.071741 
L 361.86006 259.987792 
L 362.656297 260.131158 
L 364.248772 260.701671 
L 366.637485 261.674115 
L 367.433722 261.7671 
L 368.22996 261.539184 
L 369.026198 260.911918 
L 371.41491 257.788535 
L 372.211148 257.279856 
L 373.007385 257.488266 
L 373.803623 258.427859 
L 375.396098 261.281347 
L 376.192335 262.172578 
L 376.988573 262.062665 
L 377.78481 260.751833 
L 378.581048 258.391765 
L 380.173523 252.661304 
L 380.96976 250.669611 
L 381.765998 249.983124 
L 382.562235 250.750448 
L 383.358473 252.737831 
L 384.950948 258.069958 
L 385.747186 260.09857 
L 386.543423 261.076963 
L 387.339661 260.90048 
L 388.135898 259.770576 
L 389.728373 256.401729 
L 390.524611 255.085966 
L 391.320848 254.409924 
L 392.117086 254.404091 
L 392.913323 254.900518 
L 394.505798 256.209127 
L 395.302036 256.459107 
L 396.098273 256.244297 
L 396.894511 255.604143 
L 398.486986 253.789483 
L 399.283223 253.099539 
L 400.079461 252.82865 
L 400.875699 253.082672 
L 401.671936 253.875378 
L 402.468174 255.146864 
L 403.264411 256.793696 
L 404.856886 260.737627 
L 406.449361 264.749879 
L 407.245599 266.452805 
L 408.041836 267.754799 
L 408.838074 268.517941 
L 409.634311 268.652695 
L 410.430549 268.152127 
L 411.226786 267.10996 
L 413.615499 262.821944 
L 413.615499 262.821944 
" clip-path="url(#p35859594a5)" style="fill: none; stroke: #377eb8; stroke-width: 1.5; stroke-linecap: square"/>
   </g>
   <g id="line2d_15">
    <path d="M 87.158114 318.2 
L 87.158114 71.241125 
" clip-path="url(#p35859594a5)" style="fill: none; stroke: #000000; stroke-width: 0.5; stroke-linecap: square"/>
   </g>
   <g id="line2d_16">
    <path d="M 46.55 250.059101 
L 413.615499 250.059101 
" clip-path="url(#p35859594a5)" style="fill: none; stroke: #000000; stroke-width: 0.5; stroke-linecap: square"/>
   </g>
   <g id="patch_4">
    <path d="M 46.55 318.2 
L 46.55 71.241125 
" style="fill: none; stroke: #000000; stroke-width: 0.8; stroke-linejoin: miter; stroke-linecap: square"/>
   </g>
   <g id="patch_5">
    <path d="M 413.615499 318.2 
L 413.615499 71.241125 
" style="fill: none; stroke: #000000; stroke-width: 0.8; stroke-linejoin: miter; stroke-linecap: square"/>
   </g>
   <g id="patch_6">
    <path d="M 46.55 318.2 
L 413.615499 318.2 
" style="fill: none; stroke: #000000; stroke-width: 0.8; stroke-linejoin: miter; stroke-linecap: square"/>
   </g>
   <g id="patch_7">
    <path d="M 46.55 71.241125 
L 413.615499 71.241125 
" style="fill: none; stroke: #000000; stroke-width: 0.8; stroke-linejoin: miter; stroke-linecap: square"/>
   </g>
   <g id="text_15">
    <!-- Cz -->
    <g transform="translate(222.743999 65.241125)scale(0.12 -0.12)">
     <defs>
      <path id="DejaVuSans-43" d="M 4122 4306 
L 4122 3641 
Q 3803 3938 3442 4084 
Q 3081 4231 2675 4231 
Q 1875 4231 1450 3742 
Q 1025 3253 1025 2328 
Q 1025 1406 1450 917 
Q 1875 428 2675 428 
Q 3081 428 3442 575 
Q 3803 722 4122 1019 
L 4122 359 
Q 3791 134 3420 21 
Q 3050 -91 2638 -91 
Q 1578 -91 968 557 
Q 359 1206 359 2328 
Q 359 3453 968 4101 
Q 1578 4750 2638 4750 
Q 3056 4750 3426 4639 
Q 3797 4528 4122 4306 
z
" transform="scale(0.015625)"/>
      <path id="DejaVuSans-7a" d="M 353 3500 
L 3084 3500 
L 3084 2975 
L 922 459 
L 3084 459 
L 3084 0 
L 275 0 
L 275 525 
L 2438 3041 
L 353 3041 
L 353 3500 
z
" transform="scale(0.015625)"/>
     </defs>
     <use xlink:href="#DejaVuSans-43"/>
     <use xlink:href="#DejaVuSans-7a" x="69.824219"/>
    </g>
   </g>
   <g id="legend_1">
    <g id="patch_8">
     <path d="M 99.855406 48.044893 
L 360.310093 48.044893 
Q 362.310093 48.044893 362.310093 46.044893 
L 362.310093 17.410517 
Q 362.310093 15.410517 360.310093 15.410517 
L 99.855406 15.410517 
Q 97.855406 15.410517 97.855406 17.410517 
L 97.855406 46.044893 
Q 97.855406 48.044893 99.855406 48.044893 
z
" style="fill: #ffffff; opacity: 0.8; stroke: #cccccc; stroke-linejoin: miter"/>
    </g>
    <g id="text_16">
     <!-- Average of Session 21_tac4 -->
     <g transform="translate(161.068687 27.008955)scale(0.1 -0.1)">
      <defs>
       <path id="DejaVuSans-41" d="M 2188 4044 
L 1331 1722 
L 3047 1722 
L 2188 4044 
z
M 1831 4666 
L 2547 4666 
L 4325 0 
L 3669 0 
L 3244 1197 
L 1141 1197 
L 716 0 
L 50 0 
L 1831 4666 
z
" transform="scale(0.015625)"/>
       <path id="DejaVuSans-76" d="M 191 3500 
L 800 3500 
L 1894 563 
L 2988 3500 
L 3597 3500 
L 2284 0 
L 1503 0 
L 191 3500 
z
" transform="scale(0.015625)"/>
       <path id="DejaVuSans-72" d="M 2631 2963 
Q 2534 3019 2420 3045 
Q 2306 3072 2169 3072 
Q 1681 3072 1420 2755 
Q 1159 2438 1159 1844 
L 1159 0 
L 581 0 
L 581 3500 
L 1159 3500 
L 1159 2956 
Q 1341 3275 1631 3429 
Q 1922 3584 2338 3584 
Q 2397 3584 2469 3576 
Q 2541 3569 2628 3553 
L 2631 2963 
z
" transform="scale(0.015625)"/>
       <path id="DejaVuSans-61" d="M 2194 1759 
Q 1497 1759 1228 1600 
Q 959 1441 959 1056 
Q 959 750 1161 570 
Q 1363 391 1709 391 
Q 2188 391 2477 730 
Q 2766 1069 2766 1631 
L 2766 1759 
L 2194 1759 
z
M 3341 1997 
L 3341 0 
L 2766 0 
L 2766 531 
Q 2569 213 2275 61 
Q 1981 -91 1556 -91 
Q 1019 -91 701 211 
Q 384 513 384 1019 
Q 384 1609 779 1909 
Q 1175 2209 1959 2209 
L 2766 2209 
L 2766 2266 
Q 2766 2663 2505 2880 
Q 2244 3097 1772 3097 
Q 1472 3097 1187 3025 
Q 903 2953 641 2809 
L 641 3341 
Q 956 3463 1253 3523 
Q 1550 3584 1831 3584 
Q 2591 3584 2966 3190 
Q 3341 2797 3341 1997 
z
" transform="scale(0.015625)"/>
       <path id="DejaVuSans-67" d="M 2906 1791 
Q 2906 2416 2648 2759 
Q 2391 3103 1925 3103 
Q 1463 3103 1205 2759 
Q 947 2416 947 1791 
Q 947 1169 1205 825 
Q 1463 481 1925 481 
Q 2391 481 2648 825 
Q 2906 1169 2906 1791 
z
M 3481 434 
Q 3481 -459 3084 -895 
Q 2688 -1331 1869 -1331 
Q 1566 -1331 1297 -1286 
Q 1028 -1241 775 -1147 
L 775 -588 
Q 1028 -725 1275 -790 
Q 1522 -856 1778 -856 
Q 2344 -856 2625 -561 
Q 2906 -266 2906 331 
L 2906 616 
Q 2728 306 2450 153 
Q 2172 0 1784 0 
Q 1141 0 747 490 
Q 353 981 353 1791 
Q 353 2603 747 3093 
Q 1141 3584 1784 3584 
Q 2172 3584 2450 3431 
Q 2728 3278 2906 2969 
L 2906 3500 
L 3481 3500 
L 3481 434 
z
" transform="scale(0.015625)"/>
       <path id="DejaVuSans-20" transform="scale(0.015625)"/>
       <path id="DejaVuSans-66" d="M 2375 4863 
L 2375 4384 
L 1825 4384 
Q 1516 4384 1395 4259 
Q 1275 4134 1275 3809 
L 1275 3500 
L 2222 3500 
L 2222 3053 
L 1275 3053 
L 1275 0 
L 697 0 
L 697 3053 
L 147 3053 
L 147 3500 
L 697 3500 
L 697 3744 
Q 697 4328 969 4595 
Q 1241 4863 1831 4863 
L 2375 4863 
z
" transform="scale(0.015625)"/>
       <path id="DejaVuSans-53" d="M 3425 4513 
L 3425 3897 
Q 3066 4069 2747 4153 
Q 2428 4238 2131 4238 
Q 1616 4238 1336 4038 
Q 1056 3838 1056 3469 
Q 1056 3159 1242 3001 
Q 1428 2844 1947 2747 
L 2328 2669 
Q 3034 2534 3370 2195 
Q 3706 1856 3706 1288 
Q 3706 609 3251 259 
Q 2797 -91 1919 -91 
Q 1588 -91 1214 -16 
Q 841 59 441 206 
L 441 856 
Q 825 641 1194 531 
Q 1563 422 1919 422 
Q 2459 422 2753 634 
Q 3047 847 3047 1241 
Q 3047 1584 2836 1778 
Q 2625 1972 2144 2069 
L 1759 2144 
Q 1053 2284 737 2584 
Q 422 2884 422 3419 
Q 422 4038 858 4394 
Q 1294 4750 2059 4750 
Q 2388 4750 2728 4690 
Q 3069 4631 3425 4513 
z
" transform="scale(0.015625)"/>
       <path id="DejaVuSans-69" d="M 603 3500 
L 1178 3500 
L 1178 0 
L 603 0 
L 603 3500 
z
M 603 4863 
L 1178 4863 
L 1178 4134 
L 603 4134 
L 603 4863 
z
" transform="scale(0.015625)"/>
       <path id="DejaVuSans-5f" d="M 3263 -1063 
L 3263 -1509 
L -63 -1509 
L -63 -1063 
L 3263 -1063 
z
" transform="scale(0.015625)"/>
       <path id="DejaVuSans-74" d="M 1172 4494 
L 1172 3500 
L 2356 3500 
L 2356 3053 
L 1172 3053 
L 1172 1153 
Q 1172 725 1289 603 
Q 1406 481 1766 481 
L 2356 481 
L 2356 0 
L 1766 0 
Q 1100 0 847 248 
Q 594 497 594 1153 
L 594 3053 
L 172 3053 
L 172 3500 
L 594 3500 
L 594 4494 
L 1172 4494 
z
" transform="scale(0.015625)"/>
      </defs>
      <use xlink:href="#DejaVuSans-41"/>
      <use xlink:href="#DejaVuSans-76" x="62.533203"/>
      <use xlink:href="#DejaVuSans-65" x="121.712891"/>
      <use xlink:href="#DejaVuSans-72" x="183.236328"/>
      <use xlink:href="#DejaVuSans-61" x="224.349609"/>
      <use xlink:href="#DejaVuSans-67" x="285.628906"/>
      <use xlink:href="#DejaVuSans-65" x="349.105469"/>
      <use xlink:href="#DejaVuSans-20" x="410.628906"/>
      <use xlink:href="#DejaVuSans-6f" x="442.416016"/>
      <use xlink:href="#DejaVuSans-66" x="503.597656"/>
      <use xlink:href="#DejaVuSans-20" x="538.802734"/>
      <use xlink:href="#DejaVuSans-53" x="570.589844"/>
      <use xlink:href="#DejaVuSans-65" x="634.066406"/>
      <use xlink:href="#DejaVuSans-73" x="695.589844"/>
      <use xlink:href="#DejaVuSans-73" x="747.689453"/>
      <use xlink:href="#DejaVuSans-69" x="799.789062"/>
      <use xlink:href="#DejaVuSans-6f" x="827.572266"/>
      <use xlink:href="#DejaVuSans-6e" x="888.753906"/>
      <use xlink:href="#DejaVuSans-20" x="952.132812"/>
      <use xlink:href="#DejaVuSans-32" x="983.919922"/>
      <use xlink:href="#DejaVuSans-31" x="1047.542969"/>
      <use xlink:href="#DejaVuSans-5f" x="1111.166016"/>
      <use xlink:href="#DejaVuSans-74" x="1161.166016"/>
      <use xlink:href="#DejaVuSans-61" x="1200.375"/>
      <use xlink:href="#DejaVuSans-63" x="1261.654297"/>
      <use xlink:href="#DejaVuSans-34" x="1316.634766"/>
     </g>
    </g>
    <g id="line2d_17">
     <path d="M 101.855406 38.465205 
L 111.855406 38.465205 
L 121.855406 38.465205 
" style="fill: none; stroke: #e41a1c; stroke-width: 1.5; stroke-linecap: square"/>
    </g>
    <g id="text_17">
     <!-- Target (n=410) -->
     <g transform="translate(129.855406 41.965205)scale(0.1 -0.1)">
      <defs>
       <path id="DejaVuSans-54" d="M -19 4666 
L 3928 4666 
L 3928 4134 
L 2272 4134 
L 2272 0 
L 1638 0 
L 1638 4134 
L -19 4134 
L -19 4666 
z
" transform="scale(0.015625)"/>
       <path id="DejaVuSans-28" d="M 1984 4856 
Q 1566 4138 1362 3434 
Q 1159 2731 1159 2009 
Q 1159 1288 1364 580 
Q 1569 -128 1984 -844 
L 1484 -844 
Q 1016 -109 783 600 
Q 550 1309 550 2009 
Q 550 2706 781 3412 
Q 1013 4119 1484 4856 
L 1984 4856 
z
" transform="scale(0.015625)"/>
       <path id="DejaVuSans-3d" d="M 678 2906 
L 4684 2906 
L 4684 2381 
L 678 2381 
L 678 2906 
z
M 678 1631 
L 4684 1631 
L 4684 1100 
L 678 1100 
L 678 1631 
z
" transform="scale(0.015625)"/>
       <path id="DejaVuSans-29" d="M 513 4856 
L 1013 4856 
Q 1481 4119 1714 3412 
Q 1947 2706 1947 2009 
Q 1947 1309 1714 600 
Q 1481 -109 1013 -844 
L 513 -844 
Q 928 -128 1133 580 
Q 1338 1288 1338 2009 
Q 1338 2731 1133 3434 
Q 928 4138 513 4856 
z
" transform="scale(0.015625)"/>
      </defs>
      <use xlink:href="#DejaVuSans-54"/>
      <use xlink:href="#DejaVuSans-61" x="44.583984"/>
      <use xlink:href="#DejaVuSans-72" x="105.863281"/>
      <use xlink:href="#DejaVuSans-67" x="145.226562"/>
      <use xlink:href="#DejaVuSans-65" x="208.703125"/>
      <use xlink:href="#DejaVuSans-74" x="270.226562"/>
      <use xlink:href="#DejaVuSans-20" x="309.435547"/>
      <use xlink:href="#DejaVuSans-28" x="341.222656"/>
      <use xlink:href="#DejaVuSans-6e" x="380.236328"/>
      <use xlink:href="#DejaVuSans-3d" x="443.615234"/>
      <use xlink:href="#DejaVuSans-34" x="527.404297"/>
      <use xlink:href="#DejaVuSans-31" x="591.027344"/>
      <use xlink:href="#DejaVuSans-30" x="654.650391"/>
      <use xlink:href="#DejaVuSans-29" x="718.273438"/>
     </g>
    </g>
    <g id="line2d_18">
     <path d="M 225.585093 38.465205 
L 235.585093 38.465205 
L 245.585093 38.465205 
" style="fill: none; stroke: #377eb8; stroke-width: 1.5; stroke-linecap: square"/>
    </g>
    <g id="text_18">
     <!-- Non-Target (n=1223) -->
     <g transform="translate(253.585093 41.965205)scale(0.1 -0.1)">
      <defs>
       <path id="DejaVuSans-4e" d="M 628 4666 
L 1478 4666 
L 3547 763 
L 3547 4666 
L 4159 4666 
L 4159 0 
L 3309 0 
L 1241 3903 
L 1241 0 
L 628 0 
L 628 4666 
z
" transform="scale(0.015625)"/>
       <path id="DejaVuSans-2d" d="M 313 2009 
L 1997 2009 
L 1997 1497 
L 313 1497 
L 313 2009 
z
" transform="scale(0.015625)"/>
      </defs>
      <use xlink:href="#DejaVuSans-4e"/>
      <use xlink:href="#DejaVuSans-6f" x="74.804688"/>
      <use xlink:href="#DejaVuSans-6e" x="135.986328"/>
      <use xlink:href="#DejaVuSans-2d" x="199.365234"/>
      <use xlink:href="#DejaVuSans-54" x="226.324219"/>
      <use xlink:href="#DejaVuSans-61" x="270.908203"/>
      <use xlink:href="#DejaVuSans-72" x="332.1875"/>
      <use xlink:href="#DejaVuSans-67" x="371.550781"/>
      <use xlink:href="#DejaVuSans-65" x="435.027344"/>
      <use xlink:href="#DejaVuSans-74" x="496.550781"/>
      <use xlink:href="#DejaVuSans-20" x="535.759766"/>
      <use xlink:href="#DejaVuSans-28" x="567.546875"/>
      <use xlink:href="#DejaVuSans-6e" x="606.560547"/>
      <use xlink:href="#DejaVuSans-3d" x="669.939453"/>
      <use xlink:href="#DejaVuSans-31" x="753.728516"/>
      <use xlink:href="#DejaVuSans-32" x="817.351562"/>
      <use xlink:href="#DejaVuSans-32" x="880.974609"/>
      <use xlink:href="#DejaVuSans-33" x="944.597656"/>
      <use xlink:href="#DejaVuSans-29" x="1008.220703"/>
     </g>
    </g>
   </g>
  </g>
 </g>
 <defs>
  <clipPath id="p35859594a5">
   <rect x="46.55" y="71.241125" width="367.065499" height="246.958875"/>
  </clipPath>
 </defs>
</svg>
