<?xml version="1.0" encoding="utf-8" standalone="no"?>
<!DOCTYPE svg PUBLIC "-//W3C//DTD SVG 1.1//EN"
  "http://www.w3.org/Graphics/SVG/1.1/DTD/svg11.dtd">
<svg xmlns:xlink="http://www.w3.org/1999/xlink" width="432pt" height="360pt" viewBox="0 0 432 360" xmlns="http://www.w3.org/2000/svg" version="1.1">
 <metadata>
  <rdf:RDF xmlns:dc="http://purl.org/dc/elements/1.1/" xmlns:cc="http://creativecommons.org/ns#" xmlns:rdf="http://www.w3.org/1999/02/22-rdf-syntax-ns#">
   <cc:Work>
    <dc:type rdf:resource="http://purl.org/dc/dcmitype/StillImage"/>
    <dc:date>2022-11-02T16:56:58.713801</dc:date>
    <dc:format>image/svg+xml</dc:format>
    <dc:creator>
     <cc:Agent>
      <dc:title>Matplotlib v3.5.1, https://matplotlib.org/</dc:title>
     </cc:Agent>
    </dc:creator>
   </cc:Work>
  </rdf:RDF>
 </metadata>
 <defs>
  <style type="text/css">*{stroke-linejoin: round; stroke-linecap: butt}</style>
 </defs>
 <g id="figure_1">
  <g id="patch_1">
   <path d="M 0 360 
L 432 360 
L 432 0 
L 0 0 
L 0 360 
z
" style="fill: none"/>
  </g>
  <g id="axes_1">
   <g id="patch_2">
    <path d="M 46.55 318.2 
L 413.615499 318.2 
L 413.615499 71.241125 
L 46.55 71.241125 
L 46.55 318.2 
z
" style="fill: none"/>
   </g>
   <g id="PolyCollection_1">
    <defs>
     <path id="m304ae7975c" d="M 46.55 -131.359555 
L 46.55 -97.044499 
L 47.346238 -97.314087 
L 48.142475 -98.039897 
L 48.938713 -99.305197 
L 49.73495 -100.947237 
L 50.531188 -102.65933 
L 51.327425 -104.136387 
L 52.123663 -105.145874 
L 52.9199 -105.512303 
L 53.716138 -105.104181 
L 54.512375 -103.878274 
L 55.308613 -101.947464 
L 56.10485 -99.592546 
L 56.901088 -97.171173 
L 57.697325 -94.975049 
L 58.493563 -93.152585 
L 59.2898 -91.762113 
L 60.086038 -90.872952 
L 60.882275 -90.557156 
L 61.678513 -90.760988 
L 62.47475 -91.21631 
L 63.270988 -91.512094 
L 64.067226 -91.282953 
L 64.863463 -90.348361 
L 65.659701 -88.706493 
L 66.455938 -86.47063 
L 67.252176 -83.872566 
L 68.048413 -81.332428 
L 68.844651 -79.466894 
L 69.640888 -78.90924 
L 70.437126 -80.008586 
L 71.233363 -82.623065 
L 72.029601 -86.140999 
L 72.825838 -89.702508 
L 73.622076 -92.490111 
L 74.418313 -93.962521 
L 75.214551 -93.994353 
L 76.010788 -92.924376 
L 76.807026 -91.485321 
L 77.603263 -90.587526 
L 78.399501 -91.009947 
L 79.195739 -93.130157 
L 79.991976 -96.810306 
L 80.788214 -101.466051 
L 81.584451 -106.266062 
L 82.380689 -110.380387 
L 83.176926 -113.203757 
L 83.973164 -114.487374 
L 84.769401 -114.332968 
L 85.565639 -113.061803 
L 86.361876 -111.049036 
L 87.158114 -108.625794 
L 87.954351 -106.07762 
L 88.750589 -103.657403 
L 89.546826 -101.538048 
L 90.343064 -99.747328 
L 91.139301 -98.177911 
L 91.935539 -96.696299 
L 92.731776 -95.274716 
L 93.528014 -94.024262 
L 94.324251 -93.097671 
L 95.120489 -92.559507 
L 95.916727 -92.329587 
L 96.712964 -92.218087 
L 97.509202 -92.007482 
L 98.305439 -91.530054 
L 99.101677 -90.721887 
L 99.897914 -89.653563 
L 100.694152 -88.543473 
L 101.490389 -87.744688 
L 102.286627 -87.680565 
L 103.082864 -88.712495 
L 103.879102 -90.970784 
L 104.675339 -94.23932 
L 105.471577 -97.987247 
L 106.267814 -101.554193 
L 107.064052 -104.3549 
L 107.860289 -105.97077 
L 108.656527 -106.160955 
L 109.452764 -104.899112 
L 110.249002 -102.449362 
L 111.04524 -99.39101 
L 111.841477 -96.499415 
L 112.637715 -94.497056 
L 113.433952 -93.806833 
L 114.23019 -94.433973 
L 115.026427 -96.007508 
L 115.822665 -97.935125 
L 116.618902 -99.602965 
L 117.41514 -100.557294 
L 118.211377 -100.615677 
L 119.007615 -99.879115 
L 119.803852 -98.658905 
L 120.60009 -97.361977 
L 121.396327 -96.373673 
L 122.192565 -95.957327 
L 122.988802 -96.189723 
L 123.78504 -96.95925 
L 124.581277 -98.037001 
L 125.377515 -99.187384 
L 126.173752 -100.250581 
L 126.96999 -101.151594 
L 127.766228 -101.858342 
L 128.562465 -102.345726 
L 129.358703 -102.592572 
L 130.15494 -102.596298 
L 130.951178 -102.380488 
L 131.747415 -101.983708 
L 132.543653 -101.433762 
L 133.33989 -100.726341 
L 134.136128 -99.833003 
L 134.932365 -98.74429 
L 135.728603 -97.514933 
L 136.52484 -96.269375 
L 137.321078 -95.168861 
L 138.117315 -94.377137 
L 138.913553 -94.046069 
L 139.70979 -94.309019 
L 140.506028 -95.25951 
L 141.302265 -96.909016 
L 142.098503 -99.142167 
L 142.89474 -101.699416 
L 143.690978 -104.210393 
L 144.487216 -106.288972 
L 145.283453 -107.677687 
L 146.079691 -108.385069 
L 146.875928 -108.718614 
L 147.672166 -109.152082 
L 148.468403 -110.093252 
L 149.264641 -111.706042 
L 150.060878 -113.891678 
L 150.857116 -116.401397 
L 151.653353 -118.962764 
L 152.449591 -121.339277 
L 153.245828 -123.344106 
L 154.042066 -124.863811 
L 154.838303 -125.908697 
L 155.634541 -126.649473 
L 156.430778 -127.379344 
L 157.227016 -128.385368 
L 158.023253 -129.806979 
L 158.819491 -131.585231 
L 159.615729 -133.530421 
L 160.411966 -135.444755 
L 161.208204 -137.21328 
L 162.004441 -138.826428 
L 162.800679 -140.356108 
L 163.596916 -141.912112 
L 164.393154 -143.574393 
L 165.189391 -145.297663 
L 165.985629 -146.840298 
L 166.781866 -147.802732 
L 167.578104 -147.802855 
L 168.374341 -146.697791 
L 169.170579 -144.700088 
L 169.966816 -142.316625 
L 170.763054 -140.175461 
L 171.559291 -138.846348 
L 172.355529 -138.704138 
L 173.151766 -139.832432 
L 173.948004 -141.973027 
L 174.744241 -144.564082 
L 175.540479 -146.899405 
L 176.336717 -148.364901 
L 177.132954 -148.644978 
L 177.929192 -147.80964 
L 178.725429 -146.267939 
L 179.521667 -144.628769 
L 180.317904 -143.513304 
L 181.114142 -143.354137 
L 181.910379 -144.234551 
L 182.706617 -145.845415 
L 183.502854 -147.604362 
L 184.299092 -148.889426 
L 185.095329 -149.27302 
L 185.891567 -148.658635 
L 186.687804 -147.294068 
L 187.484042 -145.680845 
L 188.280279 -144.403785 
L 189.076517 -143.906241 
L 189.872754 -144.291075 
L 190.668992 -145.263256 
L 191.46523 -146.272558 
L 192.261467 -146.794693 
L 193.057705 -146.595473 
L 193.853942 -145.829154 
L 194.65018 -144.932994 
L 195.446417 -144.398228 
L 196.242655 -144.546358 
L 197.038892 -145.404356 
L 197.83513 -146.703603 
L 198.631367 -147.975617 
L 199.427605 -148.709344 
L 200.223842 -148.535847 
L 201.02008 -147.388089 
L 201.816317 -145.556509 
L 202.612555 -143.589256 
L 203.408792 -142.073501 
L 204.20503 -141.415216 
L 205.001267 -141.728583 
L 205.797505 -142.861892 
L 206.593742 -144.505122 
L 207.38998 -146.315642 
L 208.186218 -148.025982 
L 208.982455 -149.515842 
L 209.778693 -150.824915 
L 210.57493 -152.092803 
L 211.371168 -153.456518 
L 212.167405 -154.975427 
L 212.963643 -156.63292 
L 213.75988 -158.391686 
L 214.556118 -160.246893 
L 215.352355 -162.245094 
L 216.148593 -164.473143 
L 216.94483 -167.021613 
L 217.741068 -169.91083 
L 218.537305 -172.992397 
L 219.333543 -175.898478 
L 220.12978 -178.122392 
L 220.926018 -179.236195 
L 221.722255 -179.141601 
L 222.518493 -178.193966 
L 223.31473 -177.09681 
L 224.110968 -176.609656 
L 224.907206 -177.222183 
L 225.703443 -178.947843 
L 226.499681 -181.309558 
L 227.295918 -183.506695 
L 228.092156 -184.696426 
L 228.888393 -184.303381 
L 229.684631 -182.261409 
L 230.480868 -179.086132 
L 231.277106 -175.717388 
L 232.073343 -173.176712 
L 232.869581 -172.188784 
L 233.665818 -172.930038 
L 234.462056 -174.992592 
L 235.258293 -177.558057 
L 236.054531 -179.712317 
L 236.850768 -180.793108 
L 237.647006 -180.632263 
L 238.443243 -179.570234 
L 239.239481 -178.23484 
L 240.035719 -177.223365 
L 240.831956 -176.869228 
L 241.628194 -177.181914 
L 242.424431 -177.922936 
L 243.220669 -178.736306 
L 244.016906 -179.293963 
L 244.813144 -179.441355 
L 245.609381 -179.292261 
L 246.405619 -179.195187 
L 247.201856 -179.552936 
L 247.998094 -180.589192 
L 248.794331 -182.2078 
L 249.590569 -184.027587 
L 250.386806 -185.557249 
L 251.183044 -186.396868 
L 251.979281 -186.362676 
L 252.775519 -185.511847 
L 253.571756 -184.102259 
L 254.367994 -182.528071 
L 255.164231 -181.244131 
L 255.960469 -180.66949 
L 256.756707 -181.075714 
L 257.552944 -182.504066 
L 258.349182 -184.764299 
L 259.145419 -187.524884 
L 259.941657 -190.446202 
L 260.737894 -193.279379 
L 261.534132 -195.888625 
L 262.330369 -198.221698 
L 263.126607 -200.277195 
L 263.922844 -202.087239 
L 264.719082 -203.713298 
L 265.515319 -205.252018 
L 266.311557 -206.840325 
L 267.107794 -208.62659 
L 267.904032 -210.684789 
L 268.700269 -212.914554 
L 269.496507 -215.017852 
L 270.292744 -216.595931 
L 271.088982 -217.310411 
L 271.88522 -217.008178 
L 272.681457 -215.762901 
L 273.477695 -213.853956 
L 274.273932 -211.71081 
L 275.07017 -209.818129 
L 275.866407 -208.574389 
L 276.662645 -208.146486 
L 277.458882 -208.397737 
L 278.25512 -208.942104 
L 279.051357 -209.303894 
L 279.847595 -209.106773 
L 280.643832 -208.211169 
L 281.44007 -206.75251 
L 282.236307 -205.07637 
L 283.032545 -203.602718 
L 283.828782 -202.673867 
L 284.62502 -202.440145 
L 285.421257 -202.814677 
L 286.217495 -203.501784 
L 287.013732 -204.089574 
L 287.80997 -204.1873 
L 288.606208 -203.564029 
L 289.402445 -202.225282 
L 290.198683 -200.389743 
L 290.99492 -198.390059 
L 291.791158 -196.561413 
L 292.587395 -195.168391 
L 293.383633 -194.37294 
L 294.17987 -194.213234 
L 294.976108 -194.582778 
L 295.772345 -195.24203 
L 296.568583 -195.889976 
L 297.36482 -196.26884 
L 298.161058 -196.242421 
L 298.957295 -195.817052 
L 299.753533 -195.123614 
L 300.54977 -194.390529 
L 301.346008 -193.901922 
L 302.142245 -193.916877 
L 302.938483 -194.56957 
L 303.73472 -195.816464 
L 304.530958 -197.472878 
L 305.327196 -199.314372 
L 306.123433 -201.177499 
L 306.919671 -203.004024 
L 307.715908 -204.815623 
L 308.512146 -206.644875 
L 309.308383 -208.459712 
L 310.104621 -210.115177 
L 310.900858 -211.357756 
L 311.697096 -211.891731 
L 312.493333 -211.486464 
L 313.289571 -210.072727 
L 314.085808 -207.772394 
L 314.882046 -204.841023 
L 315.678283 -201.558286 
L 316.474521 -198.133728 
L 317.270758 -194.679223 
L 318.066996 -191.248027 
L 318.863233 -187.898822 
L 319.659471 -184.743036 
L 320.455709 -181.960944 
L 321.251946 -179.789157 
L 322.048184 -178.473192 
L 322.844421 -178.173676 
L 323.640659 -178.846258 
L 324.436896 -180.164763 
L 325.233134 -181.555794 
L 326.029371 -182.344775 
L 326.825609 -181.942326 
L 327.621846 -179.991218 
L 328.418084 -176.442452 
L 329.214321 -171.577858 
L 330.010559 -165.986497 
L 330.806796 -160.455988 
L 331.603034 -155.759917 
L 332.399271 -152.423387 
L 333.195509 -150.589068 
L 333.991746 -150.037358 
L 334.787984 -150.32098 
L 335.584221 -150.935211 
L 336.380459 -151.445901 
L 337.176697 -151.537736 
L 337.972934 -151.006883 
L 338.769172 -149.758023 
L 339.565409 -147.839678 
L 340.361647 -145.490849 
L 341.157884 -143.135806 
L 341.954122 -141.289589 
L 342.750359 -140.400224 
L 343.546597 -140.698118 
L 344.342834 -142.1153 
L 345.139072 -144.295884 
L 345.935309 -146.687983 
L 346.731547 -148.697131 
L 347.527784 -149.866642 
L 348.324022 -150.024575 
L 349.120259 -149.33209 
L 349.916497 -148.207922 
L 350.712734 -147.163271 
L 351.508972 -146.616057 
L 352.30521 -146.745572 
L 353.101447 -147.425568 
L 353.897685 -148.2622 
L 354.693922 -148.740456 
L 355.49016 -148.431802 
L 356.286397 -147.169818 
L 357.082635 -145.109747 
L 357.878872 -142.653972 
L 358.67511 -140.297184 
L 359.471347 -138.470288 
L 360.267585 -137.429649 
L 361.063822 -137.20507 
L 361.86006 -137.615931 
L 362.656297 -138.36464 
L 363.452535 -139.178545 
L 364.248772 -139.928046 
L 365.04501 -140.652836 
L 365.841247 -141.487442 
L 366.637485 -142.540985 
L 367.433722 -143.806225 
L 368.22996 -145.139822 
L 369.026198 -146.303812 
L 369.822435 -147.031844 
L 370.618673 -147.091025 
L 371.41491 -146.326318 
L 372.211148 -144.685487 
L 373.007385 -142.231636 
L 373.803623 -139.158312 
L 374.59986 -135.806375 
L 375.396098 -132.650754 
L 376.192335 -130.222178 
L 376.988573 -128.97537 
L 377.78481 -129.158347 
L 378.581048 -130.732378 
L 379.377285 -133.356907 
L 380.173523 -136.441299 
L 380.96976 -139.261239 
L 381.765998 -141.126907 
L 382.562235 -141.563786 
L 383.358473 -140.448294 
L 384.15471 -138.053107 
L 384.950948 -134.988084 
L 385.747186 -132.048338 
L 386.543423 -129.998983 
L 387.339661 -129.352666 
L 388.135898 -130.218902 
L 388.932136 -132.294374 
L 389.728373 -135.003797 
L 390.524611 -137.718105 
L 391.320848 -139.937714 
L 392.117086 -141.384911 
L 392.913323 -142.021095 
L 393.709561 -142.01614 
L 394.505798 -141.670266 
L 395.302036 -141.293066 
L 396.098273 -141.082705 
L 396.894511 -141.070786 
L 397.690748 -141.167817 
L 398.486986 -141.272367 
L 399.283223 -141.358425 
L 400.079461 -141.480137 
L 400.875699 -141.707241 
L 401.671936 -142.047501 
L 402.468174 -142.399952 
L 403.264411 -142.555864 
L 404.060649 -142.246422 
L 404.856886 -141.233229 
L 405.653124 -139.418349 
L 406.449361 -136.935293 
L 407.245599 -134.178844 
L 408.041836 -131.748554 
L 408.838074 -130.310076 
L 409.634311 -130.40867 
L 410.430549 -132.291142 
L 411.226786 -135.800669 
L 412.023024 -140.3828 
L 412.819261 -145.199305 
L 413.615499 -149.311318 
L 413.615499 -223.947973 
L 413.615499 -223.947973 
L 412.819261 -219.906359 
L 412.023024 -215.218771 
L 411.226786 -210.885752 
L 410.430549 -207.746488 
L 409.634311 -206.26146 
L 408.838074 -206.432158 
L 408.041836 -207.864348 
L 407.245599 -209.933019 
L 406.449361 -211.988459 
L 405.653124 -213.537163 
L 404.856886 -214.345881 
L 404.060649 -214.445567 
L 403.264411 -214.050873 
L 402.468174 -213.439902 
L 401.671936 -212.845596 
L 400.875699 -212.39861 
L 400.079461 -212.139396 
L 399.283223 -212.076284 
L 398.486986 -212.239755 
L 397.690748 -212.682057 
L 396.894511 -213.420519 
L 396.098273 -214.375761 
L 395.302036 -215.35549 
L 394.505798 -216.08722 
L 393.709561 -216.272307 
L 392.913323 -215.648363 
L 392.117086 -214.067269 
L 391.320848 -211.586377 
L 390.524611 -208.530278 
L 389.728373 -205.457698 
L 388.932136 -203.010103 
L 388.135898 -201.706102 
L 387.339661 -201.789524 
L 386.543423 -203.183977 
L 385.747186 -205.534868 
L 384.950948 -208.300158 
L 384.15471 -210.871139 
L 383.358473 -212.709119 
L 382.562235 -213.468201 
L 381.765998 -213.063882 
L 380.96976 -211.666187 
L 380.173523 -209.630845 
L 379.377285 -207.406276 
L 378.581048 -205.446276 
L 377.78481 -204.141795 
L 376.988573 -203.776337 
L 376.192335 -204.503569 
L 375.396098 -206.335208 
L 374.59986 -209.119738 
L 373.803623 -212.516734 
L 373.007385 -216.005411 
L 372.211148 -218.974199 
L 371.41491 -220.884121 
L 370.618673 -221.436643 
L 369.822435 -220.66826 
L 369.026198 -218.931981 
L 368.22996 -216.771322 
L 367.433722 -214.731528 
L 366.637485 -213.178192 
L 365.841247 -212.198586 
L 365.04501 -211.625567 
L 364.248772 -211.162031 
L 363.452535 -210.541085 
L 362.656297 -209.658627 
L 361.86006 -208.641305 
L 361.063822 -207.831691 
L 360.267585 -207.681358 
L 359.471347 -208.566409 
L 358.67511 -210.587472 
L 357.878872 -213.457223 
L 357.082635 -216.556227 
L 356.286397 -219.145474 
L 355.49016 -220.633361 
L 354.693922 -220.781687 
L 353.897685 -219.779543 
L 353.101447 -218.171074 
L 352.30521 -216.661187 
L 351.508972 -215.854363 
L 350.712734 -216.015734 
L 349.916497 -216.959363 
L 349.120259 -218.127039 
L 348.324022 -218.825505 
L 347.527784 -218.510317 
L 346.731547 -216.996764 
L 345.935309 -214.527926 
L 345.139072 -211.68957 
L 344.342834 -209.207909 
L 343.546597 -207.704181 
L 342.750359 -207.501463 
L 341.954122 -208.559183 
L 341.157884 -210.543926 
L 340.361647 -212.976656 
L 339.565409 -215.377264 
L 338.769172 -217.361929 
L 337.972934 -218.696495 
L 337.176697 -219.323479 
L 336.380459 -219.361659 
L 335.584221 -219.066448 
L 334.787984 -218.757435 
L 333.991746 -218.746728 
L 333.195509 -219.301925 
L 332.399271 -220.644478 
L 331.603034 -222.949886 
L 330.806796 -226.313892 
L 330.010559 -230.673586 
L 329.214321 -235.715902 
L 328.418084 -240.848696 
L 327.621846 -245.31893 
L 326.825609 -248.464316 
L 326.029371 -249.960011 
L 325.233134 -249.922598 
L 324.436896 -248.844094 
L 323.640659 -247.41939 
L 322.844421 -246.347113 
L 322.048184 -246.156418 
L 321.251946 -247.092144 
L 320.455709 -249.09005 
L 319.659471 -251.861902 
L 318.863233 -255.057302 
L 318.066996 -258.412083 
L 317.270758 -261.79947 
L 316.474521 -265.175022 
L 315.678283 -268.478501 
L 314.882046 -271.568282 
L 314.085808 -274.221211 
L 313.289571 -276.184015 
L 312.493333 -277.245052 
L 311.697096 -277.301499 
L 310.900858 -276.405464 
L 310.104621 -274.771493 
L 309.308383 -272.730564 
L 308.512146 -270.635138 
L 307.715908 -268.749818 
L 306.919671 -267.178352 
L 306.123433 -265.863073 
L 305.327196 -264.653627 
L 304.530958 -263.405572 
L 303.73472 -262.064651 
L 302.938483 -260.707826 
L 302.142245 -259.529026 
L 301.346008 -258.767011 
L 300.54977 -258.588329 
L 299.753533 -258.972575 
L 298.957295 -259.67627 
L 298.161058 -260.323466 
L 297.36482 -260.580459 
L 296.568583 -260.308174 
L 295.772345 -259.615435 
L 294.976108 -258.81121 
L 294.17987 -258.296535 
L 293.383633 -258.429549 
L 292.587395 -259.387285 
L 291.791158 -261.069292 
L 290.99492 -263.106536 
L 290.198683 -264.996314 
L 289.402445 -266.301006 
L 288.606208 -266.808328 
L 287.80997 -266.584265 
L 287.013732 -265.917665 
L 286.217495 -265.206524 
L 285.421257 -264.837638 
L 284.62502 -265.081149 
L 283.828782 -266.010175 
L 283.032545 -267.471442 
L 282.236307 -269.131146 
L 281.44007 -270.586156 
L 280.643832 -271.498024 
L 279.847595 -271.701929 
L 279.051357 -271.258013 
L 278.25512 -270.432844 
L 277.458882 -269.619256 
L 276.662645 -269.221344 
L 275.866407 -269.539028 
L 275.07017 -270.676907 
L 274.273932 -272.491376 
L 273.477695 -274.595605 
L 272.681457 -276.449085 
L 271.88522 -277.531958 
L 271.088982 -277.533472 
L 270.292744 -276.45124 
L 269.496507 -274.549247 
L 268.700269 -272.220368 
L 267.904032 -269.848395 
L 267.107794 -267.720529 
L 266.311557 -265.975851 
L 265.515319 -264.570804 
L 264.719082 -263.288377 
L 263.922844 -261.822942 
L 263.126607 -259.913863 
L 262.330369 -257.453408 
L 261.534132 -254.518684 
L 260.737894 -251.33392 
L 259.941657 -248.196487 
L 259.145419 -245.391913 
L 258.349182 -243.125365 
L 257.552944 -241.501313 
L 256.756707 -240.556276 
L 255.960469 -240.297491 
L 255.164231 -240.691979 
L 254.367994 -241.602899 
L 253.571756 -242.735297 
L 252.775519 -243.667998 
L 251.979281 -243.991573 
L 251.183044 -243.484097 
L 250.386806 -242.216944 
L 249.590569 -240.522878 
L 248.794331 -238.845125 
L 247.998094 -237.55692 
L 247.201856 -236.840415 
L 246.405619 -236.657446 
L 245.609381 -236.788319 
L 244.813144 -236.911437 
L 244.016906 -236.717463 
L 243.220669 -236.050796 
L 242.424431 -235.023355 
L 241.628194 -234.004889 
L 240.831956 -233.446005 
L 240.035719 -233.618785 
L 239.239481 -234.445147 
L 238.443243 -235.523911 
L 237.647006 -236.320752 
L 236.850768 -236.397538 
L 236.054531 -235.581874 
L 235.258293 -234.045255 
L 234.462056 -232.283598 
L 233.665818 -230.979728 
L 232.869581 -230.758212 
L 232.073343 -231.925022 
L 231.277106 -234.321391 
L 230.480868 -237.362388 
L 229.684631 -240.234975 
L 228.888393 -242.17276 
L 228.092156 -242.717098 
L 227.295918 -241.879852 
L 226.499681 -240.13313 
L 225.703443 -238.207062 
L 224.907206 -236.778888 
L 224.110968 -236.205906 
L 223.31473 -236.424377 
L 222.518493 -237.032984 
L 221.722255 -237.482742 
L 220.926018 -237.273059 
L 220.12978 -236.090853 
L 219.333543 -233.885158 
L 218.537305 -230.876404 
L 217.741068 -227.481257 
L 216.94483 -224.154567 
L 216.148593 -221.207074 
L 215.352355 -218.69747 
L 214.556118 -216.471614 
L 213.75988 -214.323146 
L 212.963643 -212.155571 
L 212.167405 -210.035785 
L 211.371168 -208.125287 
L 210.57493 -206.559536 
L 209.778693 -205.355501 
L 208.982455 -204.384272 
L 208.186218 -203.418588 
L 207.38998 -202.247455 
L 206.593742 -200.817634 
L 205.797505 -199.316253 
L 205.001267 -198.120192 
L 204.20503 -197.621741 
L 203.408792 -198.028508 
L 202.612555 -199.252144 
L 201.816317 -200.92994 
L 201.02008 -202.550235 
L 200.223842 -203.624536 
L 199.427605 -203.860529 
L 198.631367 -203.286644 
L 197.83513 -202.263299 
L 197.038892 -201.340961 
L 196.242655 -201.010607 
L 195.446417 -201.471491 
L 194.65018 -202.547298 
L 193.853942 -203.789952 
L 193.057705 -204.700084 
L 192.261467 -204.941082 
L 191.46523 -204.452902 
L 190.668992 -203.446314 
L 189.872754 -202.317939 
L 189.076517 -201.522037 
L 188.280279 -201.415966 
L 187.484042 -202.106995 
L 186.687804 -203.363497 
L 185.891567 -204.666062 
L 185.095329 -205.416549 
L 184.299092 -205.211452 
L 183.502854 -204.029532 
L 182.706617 -202.239447 
L 181.910379 -200.449065 
L 181.114142 -199.277775 
L 180.317904 -199.13193 
L 179.521667 -200.043906 
L 178.725429 -201.631357 
L 177.929192 -203.216583 
L 177.132954 -204.082021 
L 176.336717 -203.750381 
L 175.540479 -202.156675 
L 174.744241 -199.651897 
L 173.948004 -196.86991 
L 173.151766 -194.527406 
L 172.355529 -193.211057 
L 171.559291 -193.194932 
L 170.763054 -194.350148 
L 169.966816 -196.205989 
L 169.170579 -198.151674 
L 168.374341 -199.671829 
L 167.578104 -200.485509 
L 166.781866 -200.540821 
L 165.985629 -199.93355 
L 165.189391 -198.845363 
L 164.393154 -197.510039 
L 163.596916 -196.155628 
L 162.800679 -194.914799 
L 162.004441 -193.766133 
L 161.208204 -192.569194 
L 160.411966 -191.177695 
L 159.615729 -189.544629 
L 158.819491 -187.749266 
L 158.023253 -185.952651 
L 157.227016 -184.331155 
L 156.430778 -183.017857 
L 155.634541 -182.044546 
L 154.838303 -181.281871 
L 154.042066 -180.421327 
L 153.245828 -179.062387 
L 152.449591 -176.899888 
L 151.653353 -173.908702 
L 150.857116 -170.398896 
L 150.060878 -166.893809 
L 149.264641 -163.893378 
L 148.468403 -161.668396 
L 147.672166 -160.204536 
L 146.875928 -159.285009 
L 146.079691 -158.607219 
L 145.283453 -157.857623 
L 144.487216 -156.757218 
L 143.690978 -155.129657 
L 142.89474 -152.98704 
L 142.098503 -150.560759 
L 141.302265 -148.229452 
L 140.506028 -146.376404 
L 139.70979 -145.251443 
L 138.913553 -144.89899 
L 138.117315 -145.176901 
L 137.321078 -145.850612 
L 136.52484 -146.715712 
L 135.728603 -147.684659 
L 134.932365 -148.785848 
L 134.136128 -150.074282 
L 133.33989 -151.518565 
L 132.543653 -152.950674 
L 131.747415 -154.110151 
L 130.951178 -154.740683 
L 130.15494 -154.67804 
L 129.358703 -153.894579 
L 128.562465 -152.494685 
L 127.766228 -150.674893 
L 126.96999 -148.674379 
L 126.173752 -146.737485 
L 125.377515 -145.087946 
L 124.581277 -143.899622 
L 123.78504 -143.267105 
L 122.988802 -143.203791 
L 122.192565 -143.671346 
L 121.396327 -144.600196 
L 120.60009 -145.867879 
L 119.803852 -147.256162 
L 119.007615 -148.444868 
L 118.211377 -149.079835 
L 117.41514 -148.89493 
L 116.618902 -147.828571 
L 115.822665 -146.080422 
L 115.026427 -144.083517 
L 114.23019 -142.393098 
L 113.433952 -141.520412 
L 112.637715 -141.769147 
L 111.841477 -143.137699 
L 111.04524 -145.311728 
L 110.249002 -147.724187 
L 109.452764 -149.660785 
L 108.656527 -150.42663 
L 107.860289 -149.574785 
L 107.064052 -147.107931 
L 106.267814 -143.51396 
L 105.471577 -139.574055 
L 104.675339 -136.038437 
L 103.879102 -133.382425 
L 103.082864 -131.770545 
L 102.286627 -131.149558 
L 101.490389 -131.339678 
L 100.694152 -132.084298 
L 99.897914 -133.090723 
L 99.101677 -134.085946 
L 98.305439 -134.877388 
L 97.509202 -135.386687 
L 96.712964 -135.638047 
L 95.916727 -135.713976 
L 95.120489 -135.71032 
L 94.324251 -135.720447 
L 93.528014 -135.845971 
L 92.731776 -136.204607 
L 91.935539 -136.896219 
L 91.139301 -137.934101 
L 90.343064 -139.219251 
L 89.546826 -140.619351 
L 88.750589 -142.088823 
L 87.954351 -143.700798 
L 87.158114 -145.533474 
L 86.361876 -147.487934 
L 85.565639 -149.194834 
L 84.769401 -150.102732 
L 83.973164 -149.681813 
L 83.176926 -147.616295 
L 82.380689 -143.917415 
L 81.584451 -138.953408 
L 80.788214 -133.395474 
L 79.991976 -128.0739 
L 79.195739 -123.761811 
L 78.399501 -120.955895 
L 77.603263 -119.73988 
L 76.807026 -119.775232 
L 76.010788 -120.407196 
L 75.214551 -120.85207 
L 74.418313 -120.431348 
L 73.622076 -118.802957 
L 72.825838 -116.09414 
L 72.029601 -112.846089 
L 71.233363 -109.788386 
L 70.437126 -107.580313 
L 69.640888 -106.647912 
L 68.844651 -107.13671 
L 68.048413 -108.917588 
L 67.252176 -111.593555 
L 66.455938 -114.544444 
L 65.659701 -117.098343 
L 64.863463 -118.790619 
L 64.067226 -119.529456 
L 63.270988 -119.547208 
L 62.47475 -119.191846 
L 61.678513 -118.747026 
L 60.882275 -118.424629 
L 60.086038 -118.457443 
L 59.2898 -119.120165 
L 58.493563 -120.614562 
L 57.697325 -122.923208 
L 56.901088 -125.794237 
L 56.10485 -128.863742 
L 55.308613 -131.774118 
L 54.512375 -134.210043 
L 53.716138 -135.899943 
L 52.9199 -136.659985 
L 52.123663 -136.483599 
L 51.327425 -135.596628 
L 50.531188 -134.397307 
L 49.73495 -133.280759 
L 48.938713 -132.459629 
L 48.142475 -131.925278 
L 47.346238 -131.571301 
L 46.55 -131.359555 
z
" style="stroke: #e41a1c; stroke-opacity: 0.3"/>
    </defs>
    <g clip-path="url(#p1e059412df)">
     <use xlink:href="#m304ae7975c" x="0" y="360" style="fill: #e41a1c; fill-opacity: 0.3; stroke: #e41a1c; stroke-opacity: 0.3"/>
    </g>
   </g>
   <g id="PolyCollection_2">
    <defs>
     <path id="ma719a77519" d="M 46.55 -130.229339 
L 46.55 -108.638128 
L 47.346238 -109.267866 
L 48.142475 -109.4722 
L 48.938713 -109.230166 
L 49.73495 -108.581449 
L 50.531188 -107.649482 
L 51.327425 -106.646279 
L 52.123663 -105.836841 
L 52.9199 -105.469406 
L 53.716138 -105.698925 
L 54.512375 -106.529188 
L 55.308613 -107.792113 
L 56.10485 -109.175661 
L 56.901088 -110.3051 
L 57.697325 -110.862979 
L 58.493563 -110.708792 
L 59.2898 -109.947452 
L 60.086038 -108.910423 
L 60.882275 -108.048468 
L 61.678513 -107.772334 
L 62.47475 -108.299182 
L 63.270988 -109.563859 
L 64.067226 -111.233332 
L 64.863463 -112.818852 
L 65.659701 -113.831376 
L 66.455938 -113.918401 
L 67.252176 -112.945181 
L 68.048413 -111.017305 
L 68.844651 -108.446118 
L 69.640888 -105.661413 
L 70.437126 -103.08862 
L 71.233363 -101.028266 
L 72.029601 -99.586054 
L 72.825838 -98.682659 
L 73.622076 -98.126502 
L 74.418313 -97.704133 
L 75.214551 -97.248196 
L 76.010788 -96.668637 
L 76.807026 -95.950919 
L 77.603263 -95.132247 
L 78.399501 -94.266019 
L 79.195739 -93.386092 
L 79.991976 -92.476939 
L 80.788214 -91.468312 
L 81.584451 -90.271793 
L 82.380689 -88.854202 
L 83.176926 -87.311316 
L 83.973164 -85.891843 
L 84.769401 -84.94433 
L 85.565639 -84.804445 
L 86.361876 -85.67242 
L 87.158114 -87.52792 
L 87.954351 -90.099374 
L 88.750589 -92.883208 
L 89.546826 -95.219712 
L 90.343064 -96.439965 
L 91.139301 -96.065246 
L 91.935539 -93.991176 
L 92.731776 -90.569997 
L 93.528014 -86.538516 
L 94.324251 -82.811506 
L 95.120489 -80.217863 
L 95.916727 -79.267651 
L 96.712964 -80.016248 
L 97.509202 -82.060793 
L 98.305439 -84.670108 
L 99.101677 -87.010141 
L 99.897914 -88.390687 
L 100.694152 -88.450631 
L 101.490389 -87.228412 
L 102.286627 -85.111917 
L 103.082864 -82.698739 
L 103.879102 -80.612114 
L 104.675339 -79.322734 
L 105.471577 -79.029451 
L 106.267814 -79.639534 
L 107.064052 -80.847196 
L 107.860289 -82.263303 
L 108.656527 -83.535727 
L 109.452764 -84.424674 
L 110.249002 -84.830817 
L 111.04524 -84.787791 
L 111.841477 -84.42496 
L 112.637715 -83.90987 
L 113.433952 -83.396573 
L 114.23019 -83.007716 
L 115.026427 -82.849662 
L 115.822665 -83.028178 
L 116.618902 -83.632896 
L 117.41514 -84.688806 
L 118.211377 -86.103653 
L 119.007615 -87.644058 
L 119.803852 -88.957745 
L 120.60009 -89.645207 
L 121.396327 -89.373053 
L 122.192565 -87.999366 
L 122.988802 -85.657116 
L 123.78504 -82.744141 
L 124.581277 -79.809588 
L 125.377515 -77.383725 
L 126.173752 -75.824464 
L 126.96999 -75.236291 
L 127.766228 -75.47672 
L 128.562465 -76.232873 
L 129.358703 -77.140231 
L 130.15494 -77.907815 
L 130.951178 -78.406474 
L 131.747415 -78.68309 
L 132.543653 -78.894175 
L 133.33989 -79.191198 
L 134.136128 -79.61428 
L 134.932365 -80.046894 
L 135.728603 -80.256328 
L 136.52484 -80.005554 
L 137.321078 -79.187345 
L 138.117315 -77.919088 
L 138.913553 -76.550451 
L 139.70979 -75.573611 
L 140.506028 -75.465683 
L 141.302265 -76.515182 
L 142.098503 -78.690484 
L 142.89474 -81.60139 
L 143.690978 -84.587553 
L 144.487216 -86.919273 
L 145.283453 -88.040156 
L 146.079691 -87.751509 
L 146.875928 -86.261667 
L 147.672166 -84.088382 
L 148.468403 -81.868508 
L 149.264641 -80.159149 
L 150.060878 -79.29836 
L 150.857116 -79.358348 
L 151.653353 -80.188977 
L 152.449591 -81.52366 
L 153.245828 -83.100029 
L 154.042066 -84.744236 
L 154.838303 -86.388493 
L 155.634541 -88.024069 
L 156.430778 -89.621863 
L 157.227016 -91.065962 
L 158.023253 -92.145263 
L 158.819491 -92.62477 
L 159.615729 -92.371959 
L 160.411966 -91.471778 
L 161.208204 -90.259563 
L 162.004441 -89.241724 
L 162.800679 -88.928933 
L 163.596916 -89.644675 
L 164.393154 -91.378312 
L 165.189391 -93.740606 
L 165.985629 -96.056429 
L 166.781866 -97.583854 
L 167.578104 -97.787373 
L 168.374341 -96.549477 
L 169.170579 -94.224029 
L 169.966816 -91.503419 
L 170.763054 -89.158839 
L 171.559291 -87.762721 
L 172.355529 -87.499785 
L 173.151766 -88.129576 
L 173.948004 -89.102437 
L 174.744241 -89.777353 
L 175.540479 -89.657563 
L 176.336717 -88.562068 
L 177.132954 -86.676664 
L 177.929192 -84.470392 
L 178.725429 -82.508628 
L 179.521667 -81.234537 
L 180.317904 -80.809388 
L 181.114142 -81.081785 
L 181.910379 -81.691832 
L 182.706617 -82.249149 
L 183.502854 -82.49281 
L 184.299092 -82.367105 
L 185.095329 -81.999303 
L 185.891567 -81.606272 
L 186.687804 -81.374741 
L 187.484042 -81.363497 
L 188.280279 -81.469731 
L 189.076517 -81.477623 
L 189.872754 -81.168971 
L 190.668992 -80.441716 
L 191.46523 -79.377109 
L 192.261467 -78.223122 
L 193.057705 -77.303979 
L 193.853942 -76.897477 
L 194.65018 -77.131969 
L 195.446417 -77.941566 
L 196.242655 -79.092508 
L 197.038892 -80.265366 
L 197.83513 -81.15712 
L 198.631367 -81.564176 
L 199.427605 -81.420605 
L 200.223842 -80.786955 
L 201.02008 -79.802028 
L 201.816317 -78.621096 
L 202.612555 -77.367677 
L 203.408792 -76.121182 
L 204.20503 -74.943033 
L 205.001267 -73.918379 
L 205.797505 -73.177334 
L 206.593742 -72.874442 
L 207.38998 -73.130355 
L 208.186218 -73.966053 
L 208.982455 -75.264963 
L 209.778693 -76.785784 
L 210.57493 -78.224096 
L 211.371168 -79.297539 
L 212.167405 -79.818821 
L 212.963643 -79.72984 
L 213.75988 -79.09179 
L 214.556118 -78.044876 
L 215.352355 -76.754167 
L 216.148593 -75.351754 
L 216.94483 -73.889932 
L 217.741068 -72.333639 
L 218.537305 -70.611745 
L 219.333543 -68.710985 
L 220.12978 -66.75152 
L 220.926018 -64.991537 
L 221.722255 -63.752944 
L 222.518493 -63.310795 
L 223.31473 -63.80006 
L 224.110968 -65.165782 
L 224.907206 -67.158483 
L 225.703443 -69.375575 
L 226.499681 -71.354301 
L 227.295918 -72.698676 
L 228.092156 -73.191665 
L 228.888393 -72.841334 
L 229.684631 -71.848065 
L 230.480868 -70.521979 
L 231.277106 -69.191125 
L 232.073343 -68.123992 
L 232.869581 -67.471775 
L 233.665818 -67.237395 
L 234.462056 -67.282909 
L 235.258293 -67.377506 
L 236.054531 -67.270976 
L 236.850768 -66.767304 
L 237.647006 -65.777414 
L 238.443243 -64.33752 
L 239.239481 -62.590512 
L 240.035719 -60.739712 
L 240.831956 -58.996268 
L 241.628194 -57.539049 
L 242.424431 -56.490212 
L 243.220669 -55.896304 
L 244.016906 -55.711561 
L 244.813144 -55.798307 
L 245.609381 -55.960198 
L 246.405619 -56.00451 
L 247.201856 -55.804689 
L 247.998094 -55.334126 
L 248.794331 -54.664873 
L 249.590569 -53.942029 
L 250.386806 -53.343507 
L 251.183044 -53.025403 
L 251.979281 -53.06457 
L 252.775519 -53.42553 
L 253.571756 -53.977497 
L 254.367994 -54.558838 
L 255.164231 -55.054335 
L 255.960469 -55.441838 
L 256.756707 -55.786244 
L 257.552944 -56.192924 
L 258.349182 -56.751049 
L 259.145419 -57.493011 
L 259.941657 -58.380726 
L 260.737894 -59.318854 
L 261.534132 -60.192056 
L 262.330369 -60.919031 
L 263.126607 -61.505789 
L 263.922844 -62.068076 
L 264.719082 -62.799561 
L 265.515319 -63.887842 
L 266.311557 -65.413797 
L 267.107794 -67.284142 
L 267.904032 -69.233028 
L 268.700269 -70.898098 
L 269.496507 -71.944844 
L 270.292744 -72.19197 
L 271.088982 -71.688535 
L 271.88522 -70.710706 
L 272.681457 -69.678866 
L 273.477695 -69.026825 
L 274.273932 -69.069303 
L 275.07017 -69.908645 
L 275.866407 -71.406875 
L 276.662645 -73.229096 
L 277.458882 -74.950306 
L 278.25512 -76.193816 
L 279.051357 -76.752404 
L 279.847595 -76.643795 
L 280.643832 -76.07872 
L 281.44007 -75.359879 
L 282.236307 -74.758159 
L 283.032545 -74.41662 
L 283.828782 -74.317285 
L 284.62502 -74.319182 
L 285.421257 -74.245486 
L 286.217495 -73.97548 
L 287.013732 -73.498946 
L 287.80997 -72.917015 
L 288.606208 -72.403257 
L 289.402445 -72.149352 
L 290.198683 -72.30913 
L 290.99492 -72.94518 
L 291.791158 -73.988335 
L 292.587395 -75.237827 
L 293.383633 -76.423796 
L 294.17987 -77.313531 
L 294.976108 -77.800579 
L 295.772345 -77.919956 
L 296.568583 -77.790417 
L 297.36482 -77.537524 
L 298.161058 -77.249786 
L 298.957295 -76.979377 
L 299.753533 -76.761762 
L 300.54977 -76.623437 
L 301.346008 -76.571547 
L 302.142245 -76.581203 
L 302.938483 -76.591803 
L 303.73472 -76.512565 
L 304.530958 -76.232097 
L 305.327196 -75.635457 
L 306.123433 -74.637583 
L 306.919671 -73.234173 
L 307.715908 -71.550565 
L 308.512146 -69.853309 
L 309.308383 -68.495098 
L 310.104621 -67.798387 
L 310.900858 -67.924364 
L 311.697096 -68.789074 
L 312.493333 -70.066571 
L 313.289571 -71.278457 
L 314.085808 -71.936328 
L 314.882046 -71.696921 
L 315.678283 -70.485494 
L 316.474521 -68.547586 
L 317.270758 -66.396647 
L 318.066996 -64.656261 
L 318.863233 -63.843896 
L 319.659471 -64.180323 
L 320.455709 -65.504371 
L 321.251946 -67.328142 
L 322.048184 -69.008024 
L 322.844421 -69.968202 
L 323.640659 -69.899275 
L 324.436896 -68.863375 
L 325.233134 -67.268977 
L 326.029371 -65.726149 
L 326.825609 -64.836051 
L 327.621846 -64.992469 
L 328.418084 -66.256772 
L 329.214321 -68.344056 
L 330.010559 -70.726501 
L 330.806796 -72.824484 
L 331.603034 -74.218674 
L 332.399271 -74.795996 
L 333.195509 -74.766545 
L 333.991746 -74.549723 
L 334.787984 -74.591096 
L 335.584221 -75.187006 
L 336.380459 -76.372948 
L 337.176697 -77.897067 
L 337.972934 -79.282994 
L 338.769172 -79.975732 
L 339.565409 -79.537847 
L 340.361647 -77.827241 
L 341.157884 -75.079936 
L 341.954122 -71.856155 
L 342.750359 -68.870958 
L 343.546597 -66.77553 
L 344.342834 -65.963069 
L 345.139072 -66.456515 
L 345.935309 -67.910025 
L 346.731547 -69.724756 
L 347.527784 -71.244687 
L 348.324022 -71.966166 
L 349.120259 -71.690165 
L 349.916497 -70.571017 
L 350.712734 -69.053463 
L 351.508972 -67.72195 
L 352.30521 -67.108648 
L 353.101447 -67.522596 
L 353.897685 -68.958675 
L 354.693922 -71.119152 
L 355.49016 -73.530694 
L 356.286397 -75.70131 
L 357.082635 -77.258173 
L 357.878872 -78.032275 
L 358.67511 -78.080255 
L 359.471347 -77.643419 
L 360.267585 -77.05396 
L 361.063822 -76.617741 
L 361.86006 -76.521952 
L 362.656297 -76.805911 
L 363.452535 -77.396211 
L 364.248772 -78.171691 
L 365.04501 -79.017327 
L 365.841247 -79.844104 
L 366.637485 -80.575762 
L 367.433722 -81.118331 
L 368.22996 -81.336116 
L 369.026198 -81.060965 
L 369.822435 -80.150626 
L 370.618673 -78.580347 
L 371.41491 -76.518543 
L 372.211148 -74.331615 
L 373.007385 -72.496323 
L 373.803623 -71.449311 
L 374.59986 -71.435291 
L 375.396098 -72.413333 
L 376.192335 -74.055822 
L 376.988573 -75.842605 
L 377.78481 -77.224943 
L 378.581048 -77.806578 
L 379.377285 -77.476296 
L 380.173523 -76.434859 
L 380.96976 -75.101792 
L 381.765998 -73.941739 
L 382.562235 -73.285939 
L 383.358473 -73.220883 
L 384.15471 -73.582037 
L 384.950948 -74.047849 
L 385.747186 -74.29523 
L 386.543423 -74.157093 
L 387.339661 -73.717978 
L 388.135898 -73.302501 
L 388.932136 -73.351787 
L 389.728373 -74.23153 
L 390.524611 -76.052992 
L 391.320848 -78.588052 
L 392.117086 -81.322172 
L 392.913323 -83.628239 
L 393.709561 -84.993178 
L 394.505798 -85.206003 
L 395.302036 -84.431262 
L 396.098273 -83.139416 
L 396.894511 -81.926746 
L 397.690748 -81.303905 
L 398.486986 -81.537394 
L 399.283223 -82.598873 
L 400.079461 -84.224902 
L 400.875699 -86.047607 
L 401.671936 -87.739875 
L 402.468174 -89.12498 
L 403.264411 -90.218199 
L 404.060649 -91.186332 
L 404.856886 -92.236523 
L 405.653124 -93.478449 
L 406.449361 -94.83259 
L 407.245599 -96.044361 
L 408.041836 -96.80553 
L 408.838074 -96.921239 
L 409.634311 -96.435771 
L 410.430549 -95.656194 
L 411.226786 -95.060723 
L 412.023024 -95.126766 
L 412.819261 -96.139772 
L 413.615499 -98.054081 
L 413.615499 -139.475815 
L 413.615499 -139.475815 
L 412.819261 -137.551118 
L 412.023024 -136.547363 
L 411.226786 -136.541246 
L 410.430549 -137.255704 
L 409.634311 -138.190106 
L 408.838074 -138.825209 
L 408.041836 -138.811977 
L 407.245599 -138.069197 
L 406.449361 -136.765265 
L 405.653124 -135.211928 
L 404.856886 -133.720072 
L 404.060649 -132.471595 
L 403.264411 -131.453252 
L 402.468174 -130.483248 
L 401.671936 -129.328725 
L 400.875699 -127.862712 
L 400.079461 -126.175668 
L 399.283223 -124.572451 
L 398.486986 -123.449105 
L 397.690748 -123.10775 
L 396.894511 -123.599162 
L 396.098273 -124.666523 
L 395.302036 -125.814836 
L 394.505798 -126.477221 
L 393.709561 -126.212657 
L 392.913323 -124.863537 
L 392.117086 -122.614936 
L 391.320848 -119.933307 
L 390.524611 -117.405521 
L 389.728373 -115.53699 
L 388.932136 -114.584659 
L 388.135898 -114.48625 
L 387.339661 -114.910536 
L 386.543423 -115.407207 
L 385.747186 -115.599435 
L 384.950948 -115.341072 
L 384.15471 -114.770217 
L 383.358473 -114.231451 
L 382.562235 -114.100059 
L 381.765998 -114.590437 
L 380.96976 -115.638522 
L 380.173523 -116.910528 
L 379.377285 -117.92934 
L 378.581048 -118.260928 
L 377.78481 -117.685974 
L 376.988573 -116.293258 
L 376.192335 -114.461117 
L 375.396098 -112.732048 
L 374.59986 -111.627299 
L 373.803623 -111.472708 
L 373.007385 -112.305461 
L 372.211148 -113.891658 
L 371.41491 -115.833479 
L 370.618673 -117.708667 
L 369.822435 -119.186362 
L 369.026198 -120.090237 
L 368.22996 -120.406245 
L 367.433722 -120.244914 
L 366.637485 -119.774615 
L 365.841247 -119.152995 
L 365.04501 -118.48767 
L 364.248772 -117.840876 
L 363.452535 -117.263068 
L 362.656297 -116.820789 
L 361.86006 -116.592345 
L 361.063822 -116.631338 
L 360.267585 -116.918375 
L 359.471347 -117.324852 
L 358.67511 -117.610827 
L 357.878872 -117.474182 
L 357.082635 -116.653345 
L 356.286397 -115.052014 
L 355.49016 -112.824243 
L 354.693922 -110.364437 
L 353.897685 -108.194323 
L 353.101447 -106.79163 
L 352.30521 -106.428945 
L 351.508972 -107.078915 
L 350.712734 -108.413685 
L 349.916497 -109.900988 
L 349.120259 -110.972553 
L 348.324022 -111.215259 
L 347.527784 -110.516623 
L 346.731547 -109.109476 
L 345.935309 -107.499619 
L 345.139072 -106.303922 
L 344.342834 -106.053192 
L 343.546597 -107.020663 
L 342.750359 -109.129671 
L 341.954122 -111.971229 
L 341.157884 -114.927273 
L 340.361647 -117.356159 
L 339.565409 -118.77656 
L 338.769172 -118.994929 
L 337.972934 -118.14753 
L 337.176697 -116.648989 
L 336.380459 -115.054703 
L 335.584221 -113.866616 
L 334.787984 -113.348049 
L 333.991746 -113.428279 
L 333.195509 -113.745402 
L 332.399271 -113.807019 
L 331.603034 -113.193552 
L 330.806796 -111.722339 
L 330.010559 -109.524231 
L 329.214321 -107.016274 
L 328.418084 -104.778897 
L 327.621846 -103.365239 
L 326.825609 -103.09967 
L 326.029371 -103.942978 
L 325.233134 -105.488208 
L 324.436896 -107.097439 
L 323.640659 -108.126637 
L 322.844421 -108.154674 
L 322.048184 -107.131167 
L 321.251946 -105.393205 
L 320.455709 -103.54474 
L 319.659471 -102.242346 
L 318.863233 -101.967765 
L 318.066996 -102.869558 
L 317.270758 -104.723214 
L 316.474521 -107.013946 
L 315.678283 -109.107484 
L 314.882046 -110.454901 
L 314.085808 -110.767557 
L 313.289571 -110.101163 
L 312.493333 -108.815677 
L 311.697096 -107.429614 
L 310.900858 -106.434078 
L 310.104621 -106.147847 
L 309.308383 -106.65785 
L 308.512146 -107.84341 
L 307.715908 -109.449569 
L 306.919671 -111.173357 
L 306.123433 -112.741682 
L 305.327196 -113.969749 
L 304.530958 -114.788714 
L 303.73472 -115.234749 
L 302.938483 -115.406928 
L 302.142245 -115.41819 
L 301.346008 -115.364603 
L 300.54977 -115.321625 
L 299.753533 -115.352187 
L 298.957295 -115.502066 
L 298.161058 -115.771975 
L 297.36482 -116.088578 
L 296.568583 -116.308983 
L 295.772345 -116.271128 
L 294.976108 -115.863648 
L 294.17987 -115.072183 
L 293.383633 -113.978985 
L 292.587395 -112.730461 
L 291.791158 -111.504994 
L 290.99492 -110.49011 
L 290.198683 -109.848063 
L 289.402445 -109.659945 
L 288.606208 -109.877137 
L 287.80997 -110.325627 
L 287.013732 -110.778644 
L 286.217495 -111.062057 
L 285.421257 -111.131156 
L 284.62502 -111.079429 
L 283.828782 -111.081396 
L 283.032545 -111.302675 
L 282.236307 -111.816977 
L 281.44007 -112.559601 
L 280.643832 -113.333358 
L 279.847595 -113.867131 
L 279.051357 -113.908055 
L 278.25512 -113.314201 
L 277.458882 -112.115709 
L 276.662645 -110.524893 
L 275.866407 -108.889227 
L 275.07017 -107.593917 
L 274.273932 -106.938328 
L 273.477695 -107.029276 
L 272.681457 -107.737428 
L 271.88522 -108.737106 
L 271.088982 -109.615603 
L 270.292744 -110.006679 
L 269.496507 -109.697877 
L 268.700269 -108.67739 
L 267.904032 -107.112751 
L 267.107794 -105.277695 
L 266.311557 -103.457689 
L 265.515319 -101.866105 
L 264.719082 -100.596149 
L 263.922844 -99.618101 
L 263.126607 -98.815475 
L 262.330369 -98.044134 
L 261.534132 -97.194699 
L 260.737894 -96.236993 
L 259.941657 -95.227539 
L 259.145419 -94.273044 
L 258.349182 -93.468087 
L 257.552944 -92.841479 
L 256.756707 -92.34286 
L 255.960469 -91.875199 
L 255.164231 -91.350181 
L 254.367994 -90.732957 
L 253.571756 -90.055879 
L 252.775519 -89.404256 
L 251.979281 -88.888658 
L 251.183044 -88.613334 
L 250.386806 -88.642159 
L 249.590569 -88.967938 
L 248.794331 -89.50155 
L 247.998094 -90.096908 
L 247.201856 -90.608171 
L 246.405619 -90.948466 
L 245.609381 -91.119264 
L 244.813144 -91.202071 
L 244.016906 -91.329259 
L 243.220669 -91.649524 
L 242.424431 -92.290468 
L 241.628194 -93.31849 
L 240.831956 -94.707189 
L 240.035719 -96.334552 
L 239.239481 -98.015082 
L 238.443243 -99.551247 
L 237.647006 -100.780192 
L 236.850768 -101.602966 
L 236.054531 -101.999789 
L 235.258293 -102.037582 
L 234.462056 -101.867355 
L 233.665818 -101.701244 
L 232.869581 -101.765019 
L 232.073343 -102.231114 
L 231.277106 -103.148421 
L 230.480868 -104.394702 
L 229.684631 -105.682826 
L 228.888393 -106.635686 
L 228.092156 -106.907494 
L 227.295918 -106.301692 
L 226.499681 -104.839782 
L 225.703443 -102.765492 
L 224.907206 -100.492569 
L 224.110968 -98.507779 
L 223.31473 -97.242995 
L 222.518493 -96.949953 
L 221.722255 -97.632705 
L 220.926018 -99.074542 
L 220.12978 -100.942864 
L 219.333543 -102.912049 
L 218.537305 -104.75076 
L 217.741068 -106.355342 
L 216.94483 -107.739622 
L 216.148593 -108.992618 
L 215.352355 -110.206206 
L 214.556118 -111.395441 
L 213.75988 -112.450138 
L 212.963643 -113.15887 
L 212.167405 -113.302941 
L 211.371168 -112.76895 
L 210.57493 -111.617977 
L 209.778693 -110.079636 
L 208.982455 -108.480227 
L 208.186218 -107.141562 
L 207.38998 -106.292459 
L 206.593742 -106.023492 
L 205.797505 -106.294376 
L 205.001267 -106.981522 
L 204.20503 -107.93914 
L 203.408792 -109.04764 
L 202.612555 -110.231771 
L 201.816317 -111.446861 
L 201.02008 -112.640999 
L 200.223842 -113.716052 
L 199.427605 -114.515589 
L 198.631367 -114.859278 
L 197.83513 -114.617792 
L 197.038892 -113.793968 
L 196.242655 -112.564366 
L 195.446417 -111.251797 
L 194.65018 -110.231789 
L 193.853942 -109.8075 
L 193.057705 -110.103487 
L 192.261467 -111.023556 
L 191.46523 -112.291839 
L 190.668992 -113.560642 
L 189.872754 -114.539531 
L 189.076517 -115.091874 
L 188.280279 -115.262335 
L 187.484042 -115.227881 
L 186.687804 -115.195354 
L 185.891567 -115.290194 
L 185.095329 -115.488699 
L 184.299092 -115.632047 
L 183.502854 -115.523356 
L 182.706617 -115.061478 
L 181.910379 -114.337707 
L 181.114142 -113.637673 
L 180.317904 -113.342695 
L 179.521667 -113.775486 
L 178.725429 -115.054692 
L 177.929192 -117.014221 
L 177.132954 -119.222475 
L 176.336717 -121.111454 
L 175.540479 -122.184234 
L 174.744241 -122.225085 
L 173.948004 -121.415892 
L 173.151766 -120.293423 
L 172.355529 -119.552411 
L 171.559291 -119.771725 
L 170.763054 -121.176331 
L 169.966816 -123.535265 
L 169.170579 -126.235742 
L 168.374341 -128.50128 
L 167.578104 -129.665792 
L 166.781866 -129.400823 
L 165.985629 -127.820964 
L 165.189391 -125.44 
L 164.393154 -122.996481 
L 163.596916 -121.200971 
L 162.800679 -120.492116 
L 162.004441 -120.896298 
L 161.208204 -122.050937 
L 160.411966 -123.375377 
L 159.615729 -124.302627 
L 158.819491 -124.469112 
L 158.023253 -123.797067 
L 157.227016 -122.460207 
L 156.430778 -120.764275 
L 155.634541 -118.999087 
L 154.838303 -117.326925 
L 154.042066 -115.758745 
L 153.245828 -114.227353 
L 152.449591 -112.711608 
L 151.653353 -111.335149 
L 150.857116 -110.376211 
L 150.060878 -110.172895 
L 149.264641 -110.959044 
L 148.468403 -112.705587 
L 147.672166 -115.05111 
L 146.875928 -117.369969 
L 146.079691 -118.959662 
L 145.283453 -119.271302 
L 144.487216 -118.094477 
L 143.690978 -115.632484 
L 142.89474 -112.448189 
L 142.098503 -109.299114 
L 141.302265 -106.908738 
L 140.506028 -105.743188 
L 139.70979 -105.871457 
L 138.913553 -106.968382 
L 138.117315 -108.461481 
L 137.321078 -109.758212 
L 136.52484 -110.453996 
L 135.728603 -110.440882 
L 134.932365 -109.886904 
L 134.136128 -109.111095 
L 133.33989 -108.41729 
L 132.543653 -107.958966 
L 131.747415 -107.68946 
L 130.951178 -107.412185 
L 130.15494 -106.903812 
L 129.358703 -106.055166 
L 128.562465 -104.967237 
L 127.766228 -103.955681 
L 126.96999 -103.452133 
L 126.173752 -103.836202 
L 125.377515 -105.269431 
L 124.581277 -107.609565 
L 123.78504 -110.443477 
L 122.988802 -113.216422 
L 122.192565 -115.395639 
L 121.396327 -116.609716 
L 120.60009 -116.731461 
L 119.803852 -115.892683 
L 119.007615 -114.429774 
L 118.211377 -112.771852 
L 117.41514 -111.309144 
L 116.618902 -110.294296 
L 115.822665 -109.81096 
L 115.026427 -109.803787 
L 114.23019 -110.136496 
L 113.433952 -110.648402 
L 112.637715 -111.194489 
L 111.841477 -111.661082 
L 111.04524 -111.953953 
L 110.249002 -111.973123 
L 109.452764 -111.607158 
L 108.656527 -110.774745 
L 107.860289 -109.501073 
L 107.064052 -107.975756 
L 106.267814 -106.54278 
L 105.471577 -105.613466 
L 104.675339 -105.534061 
L 103.879102 -106.454097 
L 103.082864 -108.237798 
L 102.286627 -110.454484 
L 101.490389 -112.472701 
L 100.694152 -113.649025 
L 99.897914 -113.552363 
L 99.101677 -112.13357 
L 98.305439 -109.769822 
L 97.509202 -107.166371 
L 96.712964 -105.150343 
L 95.916727 -104.421313 
L 95.120489 -105.334183 
L 94.324251 -107.783962 
L 93.528014 -111.232363 
L 92.731776 -114.865916 
L 91.935539 -117.826286 
L 91.139301 -119.434559 
L 90.343064 -119.350055 
L 89.546826 -117.638188 
L 88.750589 -114.741312 
L 87.954351 -111.354205 
L 87.158114 -108.225574 
L 86.361876 -105.943332 
L 85.565639 -104.785543 
L 84.769401 -104.698905 
L 83.973164 -105.397074 
L 83.176926 -106.509247 
L 82.380689 -107.707382 
L 81.584451 -108.779335 
L 80.788214 -109.649775 
L 79.991976 -110.361763 
L 79.195739 -111.026856 
L 78.399501 -111.753062 
L 77.603263 -112.574767 
L 76.807026 -113.421511 
L 76.010788 -114.15061 
L 75.214551 -114.630556 
L 74.418313 -114.833745 
L 73.622076 -114.886436 
L 72.825838 -115.049287 
L 72.029601 -115.632073 
L 71.233363 -116.878006 
L 70.437126 -118.865794 
L 69.640888 -121.461561 
L 68.844651 -124.328019 
L 68.048413 -126.992199 
L 67.252176 -128.966903 
L 66.455938 -129.900826 
L 65.659701 -129.704015 
L 64.863463 -128.589875 
L 64.067226 -127.005862 
L 63.270988 -125.479645 
L 62.47475 -124.449296 
L 61.678513 -124.146288 
L 60.882275 -124.554368 
L 60.086038 -125.44107 
L 59.2898 -126.445882 
L 58.493563 -127.19826 
L 57.697325 -127.430296 
L 56.901088 -127.05264 
L 56.10485 -126.175575 
L 55.308613 -125.071492 
L 54.512375 -124.088383 
L 53.716138 -123.540335 
L 52.9199 -123.612877 
L 52.123663 -124.31802 
L 51.327425 -125.510587 
L 50.531188 -126.947906 
L 49.73495 -128.359133 
L 48.938713 -129.503992 
L 48.142475 -130.217481 
L 47.346238 -130.440805 
L 46.55 -130.229339 
z
" style="stroke: #377eb8; stroke-opacity: 0.3"/>
    </defs>
    <g clip-path="url(#p1e059412df)">
     <use xlink:href="#ma719a77519" x="0" y="360" style="fill: #377eb8; fill-opacity: 0.3; stroke: #377eb8; stroke-opacity: 0.3"/>
    </g>
   </g>
   <g id="patch_3">
    <path d="M 229.843878 318.2 
L 229.843878 71.241125 
L 331.762281 71.241125 
L 331.762281 318.2 
z
" clip-path="url(#p1e059412df)" style="fill: #808080; opacity: 0.3"/>
   </g>
   <g id="matplotlib.axis_1">
    <g id="xtick_1">
     <g id="line2d_1">
      <defs>
       <path id="m734cfc563c" d="M 0 0 
L 0 3.5 
" style="stroke: #000000; stroke-width: 0.8"/>
      </defs>
      <g>
       <use xlink:href="#m734cfc563c" x="87.158114" y="318.2" style="stroke: #000000; stroke-width: 0.8"/>
      </g>
     </g>
     <g id="text_1">
      <!-- 0.0 -->
      <g transform="translate(79.206551 332.798437)scale(0.1 -0.1)">
       <defs>
        <path id="DejaVuSans-30" d="M 2034 4250 
Q 1547 4250 1301 3770 
Q 1056 3291 1056 2328 
Q 1056 1369 1301 889 
Q 1547 409 2034 409 
Q 2525 409 2770 889 
Q 3016 1369 3016 2328 
Q 3016 3291 2770 3770 
Q 2525 4250 2034 4250 
z
M 2034 4750 
Q 2819 4750 3233 4129 
Q 3647 3509 3647 2328 
Q 3647 1150 3233 529 
Q 2819 -91 2034 -91 
Q 1250 -91 836 529 
Q 422 1150 422 2328 
Q 422 3509 836 4129 
Q 1250 4750 2034 4750 
z
" transform="scale(0.015625)"/>
        <path id="DejaVuSans-2e" d="M 684 794 
L 1344 794 
L 1344 0 
L 684 0 
L 684 794 
z
" transform="scale(0.015625)"/>
       </defs>
       <use xlink:href="#DejaVuSans-30"/>
       <use xlink:href="#DejaVuSans-2e" x="63.623047"/>
       <use xlink:href="#DejaVuSans-30" x="95.410156"/>
      </g>
     </g>
    </g>
    <g id="xtick_2">
     <g id="line2d_2">
      <g>
       <use xlink:href="#m734cfc563c" x="168.692836" y="318.2" style="stroke: #000000; stroke-width: 0.8"/>
      </g>
     </g>
     <g id="text_2">
      <!-- 0.2 -->
      <g transform="translate(160.741274 332.798437)scale(0.1 -0.1)">
       <defs>
        <path id="DejaVuSans-32" d="M 1228 531 
L 3431 531 
L 3431 0 
L 469 0 
L 469 531 
Q 828 903 1448 1529 
Q 2069 2156 2228 2338 
Q 2531 2678 2651 2914 
Q 2772 3150 2772 3378 
Q 2772 3750 2511 3984 
Q 2250 4219 1831 4219 
Q 1534 4219 1204 4116 
Q 875 4013 500 3803 
L 500 4441 
Q 881 4594 1212 4672 
Q 1544 4750 1819 4750 
Q 2544 4750 2975 4387 
Q 3406 4025 3406 3419 
Q 3406 3131 3298 2873 
Q 3191 2616 2906 2266 
Q 2828 2175 2409 1742 
Q 1991 1309 1228 531 
z
" transform="scale(0.015625)"/>
       </defs>
       <use xlink:href="#DejaVuSans-30"/>
       <use xlink:href="#DejaVuSans-2e" x="63.623047"/>
       <use xlink:href="#DejaVuSans-32" x="95.410156"/>
      </g>
     </g>
    </g>
    <g id="xtick_3">
     <g id="line2d_3">
      <g>
       <use xlink:href="#m734cfc563c" x="250.227559" y="318.2" style="stroke: #000000; stroke-width: 0.8"/>
      </g>
     </g>
     <g id="text_3">
      <!-- 0.4 -->
      <g transform="translate(242.275996 332.798437)scale(0.1 -0.1)">
       <defs>
        <path id="DejaVuSans-34" d="M 2419 4116 
L 825 1625 
L 2419 1625 
L 2419 4116 
z
M 2253 4666 
L 3047 4666 
L 3047 1625 
L 3713 1625 
L 3713 1100 
L 3047 1100 
L 3047 0 
L 2419 0 
L 2419 1100 
L 313 1100 
L 313 1709 
L 2253 4666 
z
" transform="scale(0.015625)"/>
       </defs>
       <use xlink:href="#DejaVuSans-30"/>
       <use xlink:href="#DejaVuSans-2e" x="63.623047"/>
       <use xlink:href="#DejaVuSans-34" x="95.410156"/>
      </g>
     </g>
    </g>
    <g id="xtick_4">
     <g id="line2d_4">
      <g>
       <use xlink:href="#m734cfc563c" x="331.762281" y="318.2" style="stroke: #000000; stroke-width: 0.8"/>
      </g>
     </g>
     <g id="text_4">
      <!-- 0.6 -->
      <g transform="translate(323.810719 332.798437)scale(0.1 -0.1)">
       <defs>
        <path id="DejaVuSans-36" d="M 2113 2584 
Q 1688 2584 1439 2293 
Q 1191 2003 1191 1497 
Q 1191 994 1439 701 
Q 1688 409 2113 409 
Q 2538 409 2786 701 
Q 3034 994 3034 1497 
Q 3034 2003 2786 2293 
Q 2538 2584 2113 2584 
z
M 3366 4563 
L 3366 3988 
Q 3128 4100 2886 4159 
Q 2644 4219 2406 4219 
Q 1781 4219 1451 3797 
Q 1122 3375 1075 2522 
Q 1259 2794 1537 2939 
Q 1816 3084 2150 3084 
Q 2853 3084 3261 2657 
Q 3669 2231 3669 1497 
Q 3669 778 3244 343 
Q 2819 -91 2113 -91 
Q 1303 -91 875 529 
Q 447 1150 447 2328 
Q 447 3434 972 4092 
Q 1497 4750 2381 4750 
Q 2619 4750 2861 4703 
Q 3103 4656 3366 4563 
z
" transform="scale(0.015625)"/>
       </defs>
       <use xlink:href="#DejaVuSans-30"/>
       <use xlink:href="#DejaVuSans-2e" x="63.623047"/>
       <use xlink:href="#DejaVuSans-36" x="95.410156"/>
      </g>
     </g>
    </g>
    <g id="xtick_5">
     <g id="line2d_5">
      <g>
       <use xlink:href="#m734cfc563c" x="413.297004" y="318.2" style="stroke: #000000; stroke-width: 0.8"/>
      </g>
     </g>
     <g id="text_5">
      <!-- 0.8 -->
      <g transform="translate(405.345441 332.798437)scale(0.1 -0.1)">
       <defs>
        <path id="DejaVuSans-38" d="M 2034 2216 
Q 1584 2216 1326 1975 
Q 1069 1734 1069 1313 
Q 1069 891 1326 650 
Q 1584 409 2034 409 
Q 2484 409 2743 651 
Q 3003 894 3003 1313 
Q 3003 1734 2745 1975 
Q 2488 2216 2034 2216 
z
M 1403 2484 
Q 997 2584 770 2862 
Q 544 3141 544 3541 
Q 544 4100 942 4425 
Q 1341 4750 2034 4750 
Q 2731 4750 3128 4425 
Q 3525 4100 3525 3541 
Q 3525 3141 3298 2862 
Q 3072 2584 2669 2484 
Q 3125 2378 3379 2068 
Q 3634 1759 3634 1313 
Q 3634 634 3220 271 
Q 2806 -91 2034 -91 
Q 1263 -91 848 271 
Q 434 634 434 1313 
Q 434 1759 690 2068 
Q 947 2378 1403 2484 
z
M 1172 3481 
Q 1172 3119 1398 2916 
Q 1625 2713 2034 2713 
Q 2441 2713 2670 2916 
Q 2900 3119 2900 3481 
Q 2900 3844 2670 4047 
Q 2441 4250 2034 4250 
Q 1625 4250 1398 4047 
Q 1172 3844 1172 3481 
z
" transform="scale(0.015625)"/>
       </defs>
       <use xlink:href="#DejaVuSans-30"/>
       <use xlink:href="#DejaVuSans-2e" x="63.623047"/>
       <use xlink:href="#DejaVuSans-38" x="95.410156"/>
      </g>
     </g>
    </g>
    <g id="text_6">
     <!-- seconds -->
     <g transform="translate(209.645249 346.476562)scale(0.1 -0.1)">
      <defs>
       <path id="DejaVuSans-73" d="M 2834 3397 
L 2834 2853 
Q 2591 2978 2328 3040 
Q 2066 3103 1784 3103 
Q 1356 3103 1142 2972 
Q 928 2841 928 2578 
Q 928 2378 1081 2264 
Q 1234 2150 1697 2047 
L 1894 2003 
Q 2506 1872 2764 1633 
Q 3022 1394 3022 966 
Q 3022 478 2636 193 
Q 2250 -91 1575 -91 
Q 1294 -91 989 -36 
Q 684 19 347 128 
L 347 722 
Q 666 556 975 473 
Q 1284 391 1588 391 
Q 1994 391 2212 530 
Q 2431 669 2431 922 
Q 2431 1156 2273 1281 
Q 2116 1406 1581 1522 
L 1381 1569 
Q 847 1681 609 1914 
Q 372 2147 372 2553 
Q 372 3047 722 3315 
Q 1072 3584 1716 3584 
Q 2034 3584 2315 3537 
Q 2597 3491 2834 3397 
z
" transform="scale(0.015625)"/>
       <path id="DejaVuSans-65" d="M 3597 1894 
L 3597 1613 
L 953 1613 
Q 991 1019 1311 708 
Q 1631 397 2203 397 
Q 2534 397 2845 478 
Q 3156 559 3463 722 
L 3463 178 
Q 3153 47 2828 -22 
Q 2503 -91 2169 -91 
Q 1331 -91 842 396 
Q 353 884 353 1716 
Q 353 2575 817 3079 
Q 1281 3584 2069 3584 
Q 2775 3584 3186 3129 
Q 3597 2675 3597 1894 
z
M 3022 2063 
Q 3016 2534 2758 2815 
Q 2500 3097 2075 3097 
Q 1594 3097 1305 2825 
Q 1016 2553 972 2059 
L 3022 2063 
z
" transform="scale(0.015625)"/>
       <path id="DejaVuSans-63" d="M 3122 3366 
L 3122 2828 
Q 2878 2963 2633 3030 
Q 2388 3097 2138 3097 
Q 1578 3097 1268 2742 
Q 959 2388 959 1747 
Q 959 1106 1268 751 
Q 1578 397 2138 397 
Q 2388 397 2633 464 
Q 2878 531 3122 666 
L 3122 134 
Q 2881 22 2623 -34 
Q 2366 -91 2075 -91 
Q 1284 -91 818 406 
Q 353 903 353 1747 
Q 353 2603 823 3093 
Q 1294 3584 2113 3584 
Q 2378 3584 2631 3529 
Q 2884 3475 3122 3366 
z
" transform="scale(0.015625)"/>
       <path id="DejaVuSans-6f" d="M 1959 3097 
Q 1497 3097 1228 2736 
Q 959 2375 959 1747 
Q 959 1119 1226 758 
Q 1494 397 1959 397 
Q 2419 397 2687 759 
Q 2956 1122 2956 1747 
Q 2956 2369 2687 2733 
Q 2419 3097 1959 3097 
z
M 1959 3584 
Q 2709 3584 3137 3096 
Q 3566 2609 3566 1747 
Q 3566 888 3137 398 
Q 2709 -91 1959 -91 
Q 1206 -91 779 398 
Q 353 888 353 1747 
Q 353 2609 779 3096 
Q 1206 3584 1959 3584 
z
" transform="scale(0.015625)"/>
       <path id="DejaVuSans-6e" d="M 3513 2113 
L 3513 0 
L 2938 0 
L 2938 2094 
Q 2938 2591 2744 2837 
Q 2550 3084 2163 3084 
Q 1697 3084 1428 2787 
Q 1159 2491 1159 1978 
L 1159 0 
L 581 0 
L 581 3500 
L 1159 3500 
L 1159 2956 
Q 1366 3272 1645 3428 
Q 1925 3584 2291 3584 
Q 2894 3584 3203 3211 
Q 3513 2838 3513 2113 
z
" transform="scale(0.015625)"/>
       <path id="DejaVuSans-64" d="M 2906 2969 
L 2906 4863 
L 3481 4863 
L 3481 0 
L 2906 0 
L 2906 525 
Q 2725 213 2448 61 
Q 2172 -91 1784 -91 
Q 1150 -91 751 415 
Q 353 922 353 1747 
Q 353 2572 751 3078 
Q 1150 3584 1784 3584 
Q 2172 3584 2448 3432 
Q 2725 3281 2906 2969 
z
M 947 1747 
Q 947 1113 1208 752 
Q 1469 391 1925 391 
Q 2381 391 2643 752 
Q 2906 1113 2906 1747 
Q 2906 2381 2643 2742 
Q 2381 3103 1925 3103 
Q 1469 3103 1208 2742 
Q 947 2381 947 1747 
z
" transform="scale(0.015625)"/>
      </defs>
      <use xlink:href="#DejaVuSans-73"/>
      <use xlink:href="#DejaVuSans-65" x="52.099609"/>
      <use xlink:href="#DejaVuSans-63" x="113.623047"/>
      <use xlink:href="#DejaVuSans-6f" x="168.603516"/>
      <use xlink:href="#DejaVuSans-6e" x="229.785156"/>
      <use xlink:href="#DejaVuSans-64" x="293.164062"/>
      <use xlink:href="#DejaVuSans-73" x="356.640625"/>
     </g>
    </g>
   </g>
   <g id="matplotlib.axis_2">
    <g id="ytick_1">
     <g id="line2d_6">
      <defs>
       <path id="m9507bc7500" d="M 0 0 
L -3.5 0 
" style="stroke: #000000; stroke-width: 0.8"/>
      </defs>
      <g>
       <use xlink:href="#m9507bc7500" x="46.55" y="307.613882" style="stroke: #000000; stroke-width: 0.8"/>
      </g>
     </g>
     <g id="text_7">
      <!-- 2 -->
      <g transform="translate(24.807812 311.413101)scale(0.1 -0.1)">
       <defs>
        <path id="DejaVuSans-2212" d="M 678 2272 
L 4684 2272 
L 4684 1741 
L 678 1741 
L 678 2272 
z
" transform="scale(0.015625)"/>
       </defs>
       <use xlink:href="#DejaVuSans-2212"/>
       <use xlink:href="#DejaVuSans-32" x="83.789062"/>
      </g>
     </g>
    </g>
    <g id="ytick_2">
     <g id="line2d_7">
      <g>
       <use xlink:href="#m9507bc7500" x="46.55" y="278.194952" style="stroke: #000000; stroke-width: 0.8"/>
      </g>
     </g>
     <g id="text_8">
      <!-- 1 -->
      <g transform="translate(24.807812 281.994171)scale(0.1 -0.1)">
       <defs>
        <path id="DejaVuSans-31" d="M 794 531 
L 1825 531 
L 1825 4091 
L 703 3866 
L 703 4441 
L 1819 4666 
L 2450 4666 
L 2450 531 
L 3481 531 
L 3481 0 
L 794 0 
L 794 531 
z
" transform="scale(0.015625)"/>
       </defs>
       <use xlink:href="#DejaVuSans-2212"/>
       <use xlink:href="#DejaVuSans-31" x="83.789062"/>
      </g>
     </g>
    </g>
    <g id="ytick_3">
     <g id="line2d_8">
      <g>
       <use xlink:href="#m9507bc7500" x="46.55" y="248.776022" style="stroke: #000000; stroke-width: 0.8"/>
      </g>
     </g>
     <g id="text_9">
      <!-- 0 -->
      <g transform="translate(33.1875 252.575241)scale(0.1 -0.1)">
       <use xlink:href="#DejaVuSans-30"/>
      </g>
     </g>
    </g>
    <g id="ytick_4">
     <g id="line2d_9">
      <g>
       <use xlink:href="#m9507bc7500" x="46.55" y="219.357092" style="stroke: #000000; stroke-width: 0.8"/>
      </g>
     </g>
     <g id="text_10">
      <!-- 1 -->
      <g transform="translate(33.1875 223.156311)scale(0.1 -0.1)">
       <use xlink:href="#DejaVuSans-31"/>
      </g>
     </g>
    </g>
    <g id="ytick_5">
     <g id="line2d_10">
      <g>
       <use xlink:href="#m9507bc7500" x="46.55" y="189.938162" style="stroke: #000000; stroke-width: 0.8"/>
      </g>
     </g>
     <g id="text_11">
      <!-- 2 -->
      <g transform="translate(33.1875 193.73738)scale(0.1 -0.1)">
       <use xlink:href="#DejaVuSans-32"/>
      </g>
     </g>
    </g>
    <g id="ytick_6">
     <g id="line2d_11">
      <g>
       <use xlink:href="#m9507bc7500" x="46.55" y="160.519232" style="stroke: #000000; stroke-width: 0.8"/>
      </g>
     </g>
     <g id="text_12">
      <!-- 3 -->
      <g transform="translate(33.1875 164.31845)scale(0.1 -0.1)">
       <defs>
        <path id="DejaVuSans-33" d="M 2597 2516 
Q 3050 2419 3304 2112 
Q 3559 1806 3559 1356 
Q 3559 666 3084 287 
Q 2609 -91 1734 -91 
Q 1441 -91 1130 -33 
Q 819 25 488 141 
L 488 750 
Q 750 597 1062 519 
Q 1375 441 1716 441 
Q 2309 441 2620 675 
Q 2931 909 2931 1356 
Q 2931 1769 2642 2001 
Q 2353 2234 1838 2234 
L 1294 2234 
L 1294 2753 
L 1863 2753 
Q 2328 2753 2575 2939 
Q 2822 3125 2822 3475 
Q 2822 3834 2567 4026 
Q 2313 4219 1838 4219 
Q 1578 4219 1281 4162 
Q 984 4106 628 3988 
L 628 4550 
Q 988 4650 1302 4700 
Q 1616 4750 1894 4750 
Q 2613 4750 3031 4423 
Q 3450 4097 3450 3541 
Q 3450 3153 3228 2886 
Q 3006 2619 2597 2516 
z
" transform="scale(0.015625)"/>
       </defs>
       <use xlink:href="#DejaVuSans-33"/>
      </g>
     </g>
    </g>
    <g id="ytick_7">
     <g id="line2d_12">
      <g>
       <use xlink:href="#m9507bc7500" x="46.55" y="131.100301" style="stroke: #000000; stroke-width: 0.8"/>
      </g>
     </g>
     <g id="text_13">
      <!-- 4 -->
      <g transform="translate(33.1875 134.89952)scale(0.1 -0.1)">
       <use xlink:href="#DejaVuSans-34"/>
      </g>
     </g>
    </g>
    <g id="ytick_8">
     <g id="line2d_13">
      <g>
       <use xlink:href="#m9507bc7500" x="46.55" y="101.681371" style="stroke: #000000; stroke-width: 0.8"/>
      </g>
     </g>
     <g id="text_14">
      <!-- 5 -->
      <g transform="translate(33.1875 105.48059)scale(0.1 -0.1)">
       <defs>
        <path id="DejaVuSans-35" d="M 691 4666 
L 3169 4666 
L 3169 4134 
L 1269 4134 
L 1269 2991 
Q 1406 3038 1543 3061 
Q 1681 3084 1819 3084 
Q 2600 3084 3056 2656 
Q 3513 2228 3513 1497 
Q 3513 744 3044 326 
Q 2575 -91 1722 -91 
Q 1428 -91 1123 -41 
Q 819 9 494 109 
L 494 744 
Q 775 591 1075 516 
Q 1375 441 1709 441 
Q 2250 441 2565 725 
Q 2881 1009 2881 1497 
Q 2881 1984 2565 2268 
Q 2250 2553 1709 2553 
Q 1456 2553 1204 2497 
Q 953 2441 691 2322 
L 691 4666 
z
" transform="scale(0.015625)"/>
       </defs>
       <use xlink:href="#DejaVuSans-35"/>
      </g>
     </g>
    </g>
    <g id="ytick_9">
     <g id="line2d_14">
      <g>
       <use xlink:href="#m9507bc7500" x="46.55" y="72.262441" style="stroke: #000000; stroke-width: 0.8"/>
      </g>
     </g>
     <g id="text_15">
      <!-- 6 -->
      <g transform="translate(33.1875 76.06166)scale(0.1 -0.1)">
       <use xlink:href="#DejaVuSans-36"/>
      </g>
     </g>
    </g>
    <g id="text_16">
     <!-- V -->
     <g transform="translate(18.728125 201.322125)rotate(-90)scale(0.1 -0.1)">
      <defs>
       <path id="DejaVuSans-b5" d="M 544 -1331 
L 544 3500 
L 1119 3500 
L 1119 1325 
Q 1119 872 1334 640 
Q 1550 409 1972 409 
Q 2434 409 2667 671 
Q 2900 934 2900 1459 
L 2900 3500 
L 3475 3500 
L 3475 806 
Q 3475 619 3529 530 
Q 3584 441 3700 441 
Q 3728 441 3778 458 
Q 3828 475 3916 513 
L 3916 50 
Q 3788 -22 3673 -56 
Q 3559 -91 3450 -91 
Q 3234 -91 3106 31 
Q 2978 153 2931 403 
Q 2775 156 2548 32 
Q 2322 -91 2016 -91 
Q 1697 -91 1473 31 
Q 1250 153 1119 397 
L 1119 -1331 
L 544 -1331 
z
" transform="scale(0.015625)"/>
       <path id="DejaVuSans-56" d="M 1831 0 
L 50 4666 
L 709 4666 
L 2188 738 
L 3669 4666 
L 4325 4666 
L 2547 0 
L 1831 0 
z
" transform="scale(0.015625)"/>
      </defs>
      <use xlink:href="#DejaVuSans-b5"/>
      <use xlink:href="#DejaVuSans-56" x="63.623047"/>
     </g>
    </g>
   </g>
   <g id="line2d_15">
    <path d="M 46.55 245.797973 
L 47.346238 245.557306 
L 48.142475 245.017413 
L 48.938713 244.117587 
L 50.531188 241.471681 
L 51.327425 240.133492 
L 52.123663 239.185263 
L 52.9199 238.913856 
L 53.716138 239.497938 
L 54.512375 240.955842 
L 55.308613 243.139209 
L 57.697325 251.050871 
L 58.493563 253.116427 
L 59.2898 254.558861 
L 60.086038 255.334803 
L 60.882275 255.509107 
L 61.678513 255.245993 
L 63.270988 254.470349 
L 64.067226 254.593795 
L 64.863463 255.43051 
L 65.659701 257.097582 
L 66.455938 259.492463 
L 68.048413 264.874992 
L 68.844651 266.698198 
L 69.640888 267.221424 
L 70.437126 266.20555 
L 71.233363 263.794275 
L 73.622076 254.353466 
L 74.418313 252.803065 
L 75.214551 252.576788 
L 76.010788 253.334214 
L 76.807026 254.369723 
L 77.603263 254.836297 
L 78.399501 254.017079 
L 79.195739 251.554016 
L 79.991976 247.557897 
L 82.380689 232.851099 
L 83.176926 229.589974 
L 83.973164 227.915406 
L 84.769401 227.78215 
L 85.565639 228.871682 
L 86.361876 230.731515 
L 88.750589 237.126887 
L 90.343064 240.516711 
L 91.935539 243.203741 
L 92.731776 244.260339 
L 93.528014 245.064884 
L 94.324251 245.590941 
L 95.120489 245.865086 
L 97.509202 246.302915 
L 98.305439 246.796279 
L 99.101677 247.596083 
L 100.694152 249.686114 
L 101.490389 250.457817 
L 102.286627 250.584938 
L 103.082864 249.75848 
L 103.879102 247.823396 
L 104.675339 244.861122 
L 107.064052 234.268585 
L 107.860289 232.227222 
L 108.656527 231.706207 
L 109.452764 232.720052 
L 110.249002 234.913226 
L 111.841477 240.181443 
L 112.637715 241.866898 
L 113.433952 242.336378 
L 114.23019 241.586465 
L 115.026427 239.954487 
L 116.618902 236.284232 
L 117.41514 235.273888 
L 118.211377 235.152244 
L 119.007615 235.838009 
L 121.396327 239.513065 
L 122.192565 240.185664 
L 122.988802 240.303243 
L 123.78504 239.886823 
L 124.581277 239.031688 
L 126.173752 236.505967 
L 127.766228 233.733382 
L 128.562465 232.579794 
L 129.358703 231.756424 
L 130.15494 231.362831 
L 130.951178 231.439414 
L 131.747415 231.953071 
L 132.543653 232.807782 
L 134.136128 235.046357 
L 136.52484 238.507456 
L 137.321078 239.490264 
L 138.117315 240.222981 
L 138.913553 240.527471 
L 139.70979 240.219769 
L 140.506028 239.182043 
L 141.302265 237.430766 
L 144.487216 228.476905 
L 145.283453 227.232345 
L 146.079691 226.503856 
L 146.875928 225.998188 
L 147.672166 225.321691 
L 148.468403 224.119176 
L 149.264641 222.20029 
L 150.060878 219.607257 
L 152.449591 210.880417 
L 153.245828 208.796753 
L 154.042066 207.357431 
L 154.838303 206.404716 
L 156.430778 204.8014 
L 157.227016 203.641738 
L 158.023253 202.120185 
L 161.208204 195.108763 
L 165.985629 186.613076 
L 166.781866 185.828223 
L 167.578104 185.855818 
L 168.374341 186.81519 
L 169.170579 188.574119 
L 170.763054 192.737195 
L 171.559291 193.97936 
L 172.355529 194.042403 
L 173.151766 192.820081 
L 173.948004 190.578531 
L 175.540479 185.47196 
L 176.336717 183.942359 
L 177.132954 183.6365 
L 177.929192 184.486888 
L 179.521667 187.663663 
L 180.317904 188.677383 
L 181.114142 188.684044 
L 181.910379 187.658192 
L 183.502854 184.183053 
L 184.299092 182.949561 
L 185.095329 182.655216 
L 185.891567 183.337652 
L 187.484042 186.10608 
L 188.280279 187.090124 
L 189.076517 187.285861 
L 189.872754 186.695493 
L 191.46523 184.63727 
L 192.261467 184.132112 
L 193.057705 184.352221 
L 193.853942 185.190447 
L 194.65018 186.259854 
L 195.446417 187.065141 
L 196.242655 187.221518 
L 197.038892 186.627342 
L 198.631367 184.368869 
L 199.427605 183.715063 
L 200.223842 183.919808 
L 201.02008 185.030838 
L 203.408792 189.948995 
L 204.20503 190.481522 
L 205.001267 190.075612 
L 205.797505 188.910928 
L 208.186218 184.277715 
L 211.371168 179.209098 
L 212.963643 175.605755 
L 215.352355 169.528718 
L 216.148593 167.159892 
L 217.741068 161.303957 
L 219.333543 155.108182 
L 220.12978 152.893377 
L 220.926018 151.745373 
L 221.722255 151.687828 
L 222.518493 152.386525 
L 223.31473 153.239407 
L 224.110968 153.592219 
L 224.907206 152.999464 
L 225.703443 151.422548 
L 227.295918 147.306726 
L 228.092156 146.293238 
L 228.888393 146.761929 
L 229.684631 148.751808 
L 232.073343 157.449133 
L 232.869581 158.526502 
L 233.665818 158.045117 
L 234.462056 156.361905 
L 236.054531 152.352905 
L 236.850768 151.404677 
L 237.647006 151.523493 
L 238.443243 152.452928 
L 239.239481 153.660007 
L 240.035719 154.578925 
L 240.831956 154.842383 
L 241.628194 154.406598 
L 243.220669 152.606449 
L 244.016906 151.994287 
L 244.813144 151.823604 
L 246.405619 152.073684 
L 247.201856 151.803324 
L 247.998094 150.926944 
L 248.794331 149.473537 
L 250.386806 146.112903 
L 251.183044 145.059518 
L 251.979281 144.822875 
L 252.775519 145.410077 
L 255.164231 149.031945 
L 255.960469 149.516509 
L 256.756707 149.184005 
L 257.552944 147.99731 
L 258.349182 146.055168 
L 259.941657 140.678655 
L 261.534132 134.796346 
L 263.126607 129.904471 
L 263.922844 128.04491 
L 267.107794 121.826441 
L 268.700269 117.432539 
L 269.496507 115.216451 
L 270.292744 113.476415 
L 271.088982 112.578059 
L 271.88522 112.729932 
L 272.681457 113.894007 
L 275.07017 119.752482 
L 275.866407 120.943291 
L 276.662645 121.316085 
L 277.458882 120.991504 
L 279.051357 119.719046 
L 279.847595 119.595649 
L 280.643832 120.145404 
L 281.44007 121.330667 
L 283.032545 124.46292 
L 283.828782 125.657979 
L 284.62502 126.239353 
L 285.421257 126.173843 
L 287.80997 124.614218 
L 288.606208 124.813821 
L 289.402445 125.736856 
L 290.198683 127.306972 
L 291.791158 131.184647 
L 292.587395 132.722162 
L 293.383633 133.598755 
L 294.17987 133.745116 
L 294.976108 133.303006 
L 296.568583 131.900925 
L 297.36482 131.57535 
L 298.161058 131.717056 
L 298.957295 132.253339 
L 300.54977 133.510571 
L 301.346008 133.665534 
L 302.142245 133.277048 
L 302.938483 132.361302 
L 304.530958 129.560775 
L 307.715908 123.21728 
L 310.104621 117.556665 
L 310.900858 116.11839 
L 311.697096 115.403385 
L 312.493333 115.634242 
L 313.289571 116.871629 
L 314.085808 119.003197 
L 315.678283 124.981606 
L 319.659471 141.697531 
L 320.455709 144.474503 
L 321.251946 146.559349 
L 322.048184 147.685195 
L 322.844421 147.739605 
L 323.640659 146.867176 
L 325.233134 144.260804 
L 326.029371 143.847607 
L 326.825609 144.796679 
L 327.621846 147.344926 
L 328.418084 151.354426 
L 331.603034 170.645098 
L 332.399271 173.466067 
L 333.195509 175.054504 
L 333.991746 175.607957 
L 334.787984 175.460792 
L 336.380459 174.59622 
L 337.176697 174.569392 
L 337.972934 175.148311 
L 338.769172 176.440024 
L 339.565409 178.391529 
L 341.157884 183.160134 
L 341.954122 185.075614 
L 342.750359 186.049156 
L 343.546597 185.798851 
L 344.342834 184.338395 
L 346.731547 177.153052 
L 347.527784 175.81152 
L 348.324022 175.57496 
L 349.120259 176.270435 
L 350.712734 178.410497 
L 351.508972 178.76479 
L 352.30521 178.29662 
L 353.897685 175.979128 
L 354.693922 175.238929 
L 355.49016 175.467418 
L 356.286397 176.842354 
L 357.082635 179.167013 
L 358.67511 184.557672 
L 359.471347 186.481652 
L 360.267585 187.444497 
L 361.063822 187.481619 
L 361.86006 186.871382 
L 363.452535 185.140185 
L 365.841247 183.156986 
L 366.637485 182.140412 
L 367.433722 180.731124 
L 369.026198 177.382103 
L 369.822435 176.149948 
L 370.618673 175.736166 
L 371.41491 176.394781 
L 372.211148 178.170157 
L 373.007385 180.881477 
L 375.396098 190.507019 
L 376.192335 192.637127 
L 376.988573 193.624146 
L 377.78481 193.349929 
L 378.581048 191.910673 
L 379.377285 189.618408 
L 380.96976 184.536287 
L 381.765998 182.904606 
L 382.562235 182.484007 
L 383.358473 183.421293 
L 384.15471 185.537877 
L 385.747186 191.208397 
L 386.543423 193.40852 
L 387.339661 194.428905 
L 388.135898 194.037498 
L 388.932136 192.347762 
L 392.117086 182.27391 
L 392.913323 181.165271 
L 393.709561 180.855777 
L 394.505798 181.121257 
L 396.894511 182.754348 
L 397.690748 183.075063 
L 398.486986 183.243939 
L 399.283223 183.282645 
L 400.079461 183.190234 
L 400.875699 182.947075 
L 403.264411 181.696631 
L 404.060649 181.654006 
L 404.856886 182.210445 
L 405.653124 183.522244 
L 406.449361 185.538124 
L 408.041836 190.193549 
L 408.838074 191.628883 
L 409.634311 191.664935 
L 410.430549 189.981185 
L 411.226786 186.65679 
L 413.615499 173.370355 
L 413.615499 173.370355 
" clip-path="url(#p1e059412df)" style="fill: none; stroke: #e41a1c; stroke-width: 1.5; stroke-linecap: square"/>
   </g>
   <g id="line2d_16">
    <path d="M 46.55 240.566266 
L 47.346238 240.145664 
L 48.142475 240.155159 
L 48.938713 240.632921 
L 49.73495 241.529709 
L 52.123663 244.922569 
L 52.9199 245.458858 
L 53.716138 245.38037 
L 54.512375 244.691215 
L 56.901088 241.32113 
L 57.697325 240.853362 
L 58.493563 241.046474 
L 59.2898 241.803333 
L 60.882275 243.698582 
L 61.678513 244.040689 
L 62.47475 243.625761 
L 63.270988 242.478248 
L 64.863463 239.295636 
L 65.659701 238.232304 
L 66.455938 238.090386 
L 67.252176 239.043958 
L 68.048413 240.995248 
L 70.437126 249.022793 
L 71.233363 251.046864 
L 72.029601 252.390936 
L 72.825838 253.134027 
L 73.622076 253.493531 
L 75.214551 254.060624 
L 76.010788 254.590376 
L 77.603263 256.146493 
L 81.584451 260.474436 
L 83.973164 264.355541 
L 84.769401 265.178382 
L 85.565639 265.205006 
L 86.361876 264.192124 
L 87.158114 262.123253 
L 89.546826 253.57105 
L 90.343064 252.10499 
L 91.139301 252.250098 
L 91.935539 254.091269 
L 92.731776 257.282043 
L 94.324251 264.702266 
L 95.120489 267.223977 
L 95.916727 268.155518 
L 96.712964 267.416705 
L 97.509202 265.386418 
L 99.101677 260.428145 
L 99.897914 259.028475 
L 100.694152 258.950172 
L 101.490389 260.149443 
L 103.879102 266.466894 
L 104.675339 267.571602 
L 105.471577 267.678542 
L 106.267814 266.908843 
L 108.656527 262.844764 
L 109.452764 261.984084 
L 110.249002 261.59803 
L 111.04524 261.629128 
L 111.841477 261.956979 
L 114.23019 263.427894 
L 115.026427 263.673275 
L 115.822665 263.580431 
L 116.618902 263.036404 
L 117.41514 262.001025 
L 119.803852 257.574786 
L 120.60009 256.811666 
L 121.396327 257.008616 
L 122.192565 258.302498 
L 122.988802 260.563231 
L 124.581277 266.290423 
L 125.377515 268.673422 
L 126.173752 270.169667 
L 126.96999 270.655788 
L 127.766228 270.2838 
L 130.15494 267.594186 
L 130.951178 267.09067 
L 133.33989 266.195756 
L 135.728603 264.651395 
L 136.52484 264.770225 
L 137.321078 265.527222 
L 139.70979 269.277466 
L 140.506028 269.395564 
L 141.302265 268.28804 
L 142.098503 266.005201 
L 143.690978 259.889981 
L 144.487216 257.493125 
L 145.283453 256.344271 
L 146.079691 256.644415 
L 146.875928 258.184182 
L 148.468403 262.712952 
L 149.264641 264.440904 
L 150.060878 265.264373 
L 150.857116 265.13272 
L 151.653353 264.237937 
L 153.245828 261.336309 
L 158.023253 252.028835 
L 158.819491 251.453059 
L 159.615729 251.662707 
L 160.411966 252.576422 
L 162.004441 254.930989 
L 162.800679 255.289475 
L 163.596916 254.577177 
L 164.393154 252.812604 
L 165.985629 248.061304 
L 166.781866 246.507661 
L 167.578104 246.273417 
L 168.374341 247.474622 
L 169.170579 249.770114 
L 170.763054 254.832415 
L 171.559291 256.232777 
L 172.355529 256.473902 
L 173.151766 255.788501 
L 173.948004 254.740836 
L 174.744241 253.998781 
L 175.540479 254.079101 
L 176.336717 255.163239 
L 177.132954 257.050431 
L 178.725429 261.21834 
L 179.521667 262.494988 
L 180.317904 262.923958 
L 181.114142 262.640271 
L 182.706617 261.344686 
L 183.502854 260.991917 
L 184.299092 261.000424 
L 186.687804 261.714952 
L 189.076517 261.715252 
L 189.872754 262.145749 
L 190.668992 262.998821 
L 192.261467 265.376661 
L 193.057705 266.296267 
L 193.853942 266.647512 
L 194.65018 266.318121 
L 195.446417 265.403318 
L 197.038892 262.970333 
L 197.83513 262.112544 
L 198.631367 261.788273 
L 199.427605 262.031903 
L 200.223842 262.748497 
L 201.816317 264.966022 
L 204.20503 268.558914 
L 205.001267 269.55005 
L 205.797505 270.264145 
L 206.593742 270.551033 
L 207.38998 270.288593 
L 208.186218 269.446192 
L 208.982455 268.127405 
L 210.57493 265.078963 
L 211.371168 263.966755 
L 212.167405 263.439119 
L 212.963643 263.555645 
L 213.75988 264.229036 
L 214.556118 265.279842 
L 216.94483 269.185223 
L 218.537305 272.318748 
L 220.926018 277.966961 
L 221.722255 279.307176 
L 222.518493 279.869626 
L 223.31473 279.478473 
L 224.110968 278.163219 
L 227.295918 270.499816 
L 228.092156 269.950421 
L 228.888393 270.26149 
L 229.684631 271.234554 
L 231.277106 273.830227 
L 232.073343 274.822447 
L 232.869581 275.381603 
L 233.665818 275.530681 
L 235.258293 275.292456 
L 236.054531 275.364618 
L 236.850768 275.814865 
L 237.647006 276.721197 
L 238.443243 278.055616 
L 241.628194 284.571231 
L 242.424431 285.60966 
L 243.220669 286.227086 
L 244.016906 286.47959 
L 246.405619 286.523512 
L 247.201856 286.79357 
L 247.998094 287.284483 
L 249.590569 288.545016 
L 250.386806 289.007167 
L 251.183044 289.180631 
L 251.979281 289.023386 
L 252.775519 288.585107 
L 255.164231 286.797742 
L 258.349182 284.890432 
L 259.941657 283.195867 
L 261.534132 281.306622 
L 263.126607 279.839368 
L 263.922844 279.156911 
L 264.719082 278.302145 
L 265.515319 277.123026 
L 266.311557 275.564257 
L 268.700269 270.212256 
L 269.496507 269.17864 
L 270.292744 268.900676 
L 271.088982 269.347931 
L 273.477695 271.971949 
L 274.273932 271.996184 
L 275.07017 271.248719 
L 275.866407 269.851949 
L 277.458882 266.466993 
L 278.25512 265.245992 
L 279.051357 264.66977 
L 279.847595 264.744537 
L 280.643832 265.293961 
L 282.236307 266.712432 
L 283.032545 267.140352 
L 283.828782 267.30066 
L 285.421257 267.311679 
L 286.217495 267.481231 
L 287.013732 267.861205 
L 288.606208 268.859803 
L 289.402445 269.095352 
L 290.198683 268.921404 
L 290.99492 268.282355 
L 291.791158 267.253336 
L 293.383633 264.798609 
L 294.17987 263.807143 
L 294.976108 263.167886 
L 295.772345 262.904458 
L 296.568583 262.9503 
L 300.54977 264.027469 
L 303.73472 264.126343 
L 304.530958 264.489594 
L 305.327196 265.197397 
L 306.123433 266.310368 
L 307.715908 269.499933 
L 308.512146 271.151641 
L 309.308383 272.423526 
L 310.104621 273.026883 
L 310.900858 272.820779 
L 311.697096 271.890656 
L 313.289571 269.31019 
L 314.085808 268.648058 
L 314.882046 268.924089 
L 315.678283 270.203511 
L 318.066996 276.237091 
L 318.863233 277.094169 
L 319.659471 276.788666 
L 320.455709 275.475445 
L 322.048184 271.930405 
L 322.844421 270.938562 
L 323.640659 270.987044 
L 324.436896 272.019593 
L 326.029371 275.165436 
L 326.825609 276.03214 
L 327.621846 275.821146 
L 328.418084 274.482166 
L 330.806796 267.726588 
L 331.603034 266.293887 
L 332.399271 265.698493 
L 333.195509 265.744027 
L 333.991746 266.010999 
L 334.787984 266.030428 
L 335.584221 265.473189 
L 336.380459 264.286175 
L 337.972934 261.284738 
L 338.769172 260.514669 
L 339.565409 260.842796 
L 340.361647 262.4083 
L 341.157884 264.996395 
L 342.750359 270.999685 
L 343.546597 273.101903 
L 344.342834 273.991869 
L 345.139072 273.619781 
L 345.935309 272.295178 
L 347.527784 269.119345 
L 348.324022 268.409288 
L 349.120259 268.668641 
L 349.916497 269.763998 
L 351.508972 272.599568 
L 352.30521 273.231204 
L 353.101447 272.842887 
L 353.897685 271.423501 
L 357.082635 263.044241 
L 357.878872 262.246772 
L 358.67511 262.154459 
L 359.471347 262.515864 
L 360.267585 263.013832 
L 361.063822 263.375461 
L 361.86006 263.442852 
L 362.656297 263.18665 
L 363.452535 262.67036 
L 367.433722 259.318378 
L 368.22996 259.128819 
L 369.026198 259.424399 
L 369.822435 260.331506 
L 370.618673 261.855493 
L 373.007385 267.599108 
L 373.803623 268.538991 
L 374.59986 268.468705 
L 375.396098 267.42731 
L 377.78481 262.544541 
L 378.581048 261.966247 
L 379.377285 262.297182 
L 380.173523 263.327306 
L 381.765998 265.733912 
L 382.562235 266.307001 
L 383.358473 266.273833 
L 384.950948 265.30554 
L 385.747186 265.052667 
L 386.543423 265.21785 
L 388.135898 266.105624 
L 388.932136 266.031777 
L 389.728373 265.11574 
L 390.524611 263.270744 
L 392.913323 255.754112 
L 393.709561 254.397082 
L 394.505798 254.158388 
L 395.302036 254.876951 
L 396.894511 257.237046 
L 397.690748 257.794173 
L 398.486986 257.506751 
L 399.283223 256.414338 
L 402.468174 250.195886 
L 404.856886 247.021702 
L 407.245599 242.943221 
L 408.041836 242.191247 
L 408.838074 242.126776 
L 409.634311 242.687061 
L 410.430549 243.544051 
L 411.226786 244.199015 
L 412.023024 244.162935 
L 412.819261 243.154555 
L 413.615499 241.235052 
L 413.615499 241.235052 
" clip-path="url(#p1e059412df)" style="fill: none; stroke: #377eb8; stroke-width: 1.5; stroke-linecap: square"/>
   </g>
   <g id="line2d_17">
    <path d="M 87.158114 318.2 
L 87.158114 71.241125 
" clip-path="url(#p1e059412df)" style="fill: none; stroke: #000000; stroke-width: 0.5; stroke-linecap: square"/>
   </g>
   <g id="line2d_18">
    <path d="M 46.55 248.776022 
L 413.615499 248.776022 
" clip-path="url(#p1e059412df)" style="fill: none; stroke: #000000; stroke-width: 0.5; stroke-linecap: square"/>
   </g>
   <g id="patch_4">
    <path d="M 46.55 318.2 
L 46.55 71.241125 
" style="fill: none; stroke: #000000; stroke-width: 0.8; stroke-linejoin: miter; stroke-linecap: square"/>
   </g>
   <g id="patch_5">
    <path d="M 413.615499 318.2 
L 413.615499 71.241125 
" style="fill: none; stroke: #000000; stroke-width: 0.8; stroke-linejoin: miter; stroke-linecap: square"/>
   </g>
   <g id="patch_6">
    <path d="M 46.55 318.2 
L 413.615499 318.2 
" style="fill: none; stroke: #000000; stroke-width: 0.8; stroke-linejoin: miter; stroke-linecap: square"/>
   </g>
   <g id="patch_7">
    <path d="M 46.55 71.241125 
L 413.615499 71.241125 
" style="fill: none; stroke: #000000; stroke-width: 0.8; stroke-linejoin: miter; stroke-linecap: square"/>
   </g>
   <g id="text_17">
    <!-- Cz -->
    <g transform="translate(222.743999 65.241125)scale(0.12 -0.12)">
     <defs>
      <path id="DejaVuSans-43" d="M 4122 4306 
L 4122 3641 
Q 3803 3938 3442 4084 
Q 3081 4231 2675 4231 
Q 1875 4231 1450 3742 
Q 1025 3253 1025 2328 
Q 1025 1406 1450 917 
Q 1875 428 2675 428 
Q 3081 428 3442 575 
Q 3803 722 4122 1019 
L 4122 359 
Q 3791 134 3420 21 
Q 3050 -91 2638 -91 
Q 1578 -91 968 557 
Q 359 1206 359 2328 
Q 359 3453 968 4101 
Q 1578 4750 2638 4750 
Q 3056 4750 3426 4639 
Q 3797 4528 4122 4306 
z
" transform="scale(0.015625)"/>
      <path id="DejaVuSans-7a" d="M 353 3500 
L 3084 3500 
L 3084 2975 
L 922 459 
L 3084 459 
L 3084 0 
L 275 0 
L 275 525 
L 2438 3041 
L 353 3041 
L 353 3500 
z
" transform="scale(0.015625)"/>
     </defs>
     <use xlink:href="#DejaVuSans-43"/>
     <use xlink:href="#DejaVuSans-7a" x="69.824219"/>
    </g>
   </g>
   <g id="legend_1">
    <g id="patch_8">
     <path d="M 99.855406 48.044893 
L 360.310093 48.044893 
Q 362.310093 48.044893 362.310093 46.044893 
L 362.310093 17.410517 
Q 362.310093 15.410517 360.310093 15.410517 
L 99.855406 15.410517 
Q 97.855406 15.410517 97.855406 17.410517 
L 97.855406 46.044893 
Q 97.855406 48.044893 99.855406 48.044893 
z
" style="fill: #ffffff; opacity: 0.8; stroke: #cccccc; stroke-linejoin: miter"/>
    </g>
    <g id="text_18">
     <!-- Average of Session 11_tac4 -->
     <g transform="translate(161.068687 27.008955)scale(0.1 -0.1)">
      <defs>
       <path id="DejaVuSans-41" d="M 2188 4044 
L 1331 1722 
L 3047 1722 
L 2188 4044 
z
M 1831 4666 
L 2547 4666 
L 4325 0 
L 3669 0 
L 3244 1197 
L 1141 1197 
L 716 0 
L 50 0 
L 1831 4666 
z
" transform="scale(0.015625)"/>
       <path id="DejaVuSans-76" d="M 191 3500 
L 800 3500 
L 1894 563 
L 2988 3500 
L 3597 3500 
L 2284 0 
L 1503 0 
L 191 3500 
z
" transform="scale(0.015625)"/>
       <path id="DejaVuSans-72" d="M 2631 2963 
Q 2534 3019 2420 3045 
Q 2306 3072 2169 3072 
Q 1681 3072 1420 2755 
Q 1159 2438 1159 1844 
L 1159 0 
L 581 0 
L 581 3500 
L 1159 3500 
L 1159 2956 
Q 1341 3275 1631 3429 
Q 1922 3584 2338 3584 
Q 2397 3584 2469 3576 
Q 2541 3569 2628 3553 
L 2631 2963 
z
" transform="scale(0.015625)"/>
       <path id="DejaVuSans-61" d="M 2194 1759 
Q 1497 1759 1228 1600 
Q 959 1441 959 1056 
Q 959 750 1161 570 
Q 1363 391 1709 391 
Q 2188 391 2477 730 
Q 2766 1069 2766 1631 
L 2766 1759 
L 2194 1759 
z
M 3341 1997 
L 3341 0 
L 2766 0 
L 2766 531 
Q 2569 213 2275 61 
Q 1981 -91 1556 -91 
Q 1019 -91 701 211 
Q 384 513 384 1019 
Q 384 1609 779 1909 
Q 1175 2209 1959 2209 
L 2766 2209 
L 2766 2266 
Q 2766 2663 2505 2880 
Q 2244 3097 1772 3097 
Q 1472 3097 1187 3025 
Q 903 2953 641 2809 
L 641 3341 
Q 956 3463 1253 3523 
Q 1550 3584 1831 3584 
Q 2591 3584 2966 3190 
Q 3341 2797 3341 1997 
z
" transform="scale(0.015625)"/>
       <path id="DejaVuSans-67" d="M 2906 1791 
Q 2906 2416 2648 2759 
Q 2391 3103 1925 3103 
Q 1463 3103 1205 2759 
Q 947 2416 947 1791 
Q 947 1169 1205 825 
Q 1463 481 1925 481 
Q 2391 481 2648 825 
Q 2906 1169 2906 1791 
z
M 3481 434 
Q 3481 -459 3084 -895 
Q 2688 -1331 1869 -1331 
Q 1566 -1331 1297 -1286 
Q 1028 -1241 775 -1147 
L 775 -588 
Q 1028 -725 1275 -790 
Q 1522 -856 1778 -856 
Q 2344 -856 2625 -561 
Q 2906 -266 2906 331 
L 2906 616 
Q 2728 306 2450 153 
Q 2172 0 1784 0 
Q 1141 0 747 490 
Q 353 981 353 1791 
Q 353 2603 747 3093 
Q 1141 3584 1784 3584 
Q 2172 3584 2450 3431 
Q 2728 3278 2906 2969 
L 2906 3500 
L 3481 3500 
L 3481 434 
z
" transform="scale(0.015625)"/>
       <path id="DejaVuSans-20" transform="scale(0.015625)"/>
       <path id="DejaVuSans-66" d="M 2375 4863 
L 2375 4384 
L 1825 4384 
Q 1516 4384 1395 4259 
Q 1275 4134 1275 3809 
L 1275 3500 
L 2222 3500 
L 2222 3053 
L 1275 3053 
L 1275 0 
L 697 0 
L 697 3053 
L 147 3053 
L 147 3500 
L 697 3500 
L 697 3744 
Q 697 4328 969 4595 
Q 1241 4863 1831 4863 
L 2375 4863 
z
" transform="scale(0.015625)"/>
       <path id="DejaVuSans-53" d="M 3425 4513 
L 3425 3897 
Q 3066 4069 2747 4153 
Q 2428 4238 2131 4238 
Q 1616 4238 1336 4038 
Q 1056 3838 1056 3469 
Q 1056 3159 1242 3001 
Q 1428 2844 1947 2747 
L 2328 2669 
Q 3034 2534 3370 2195 
Q 3706 1856 3706 1288 
Q 3706 609 3251 259 
Q 2797 -91 1919 -91 
Q 1588 -91 1214 -16 
Q 841 59 441 206 
L 441 856 
Q 825 641 1194 531 
Q 1563 422 1919 422 
Q 2459 422 2753 634 
Q 3047 847 3047 1241 
Q 3047 1584 2836 1778 
Q 2625 1972 2144 2069 
L 1759 2144 
Q 1053 2284 737 2584 
Q 422 2884 422 3419 
Q 422 4038 858 4394 
Q 1294 4750 2059 4750 
Q 2388 4750 2728 4690 
Q 3069 4631 3425 4513 
z
" transform="scale(0.015625)"/>
       <path id="DejaVuSans-69" d="M 603 3500 
L 1178 3500 
L 1178 0 
L 603 0 
L 603 3500 
z
M 603 4863 
L 1178 4863 
L 1178 4134 
L 603 4134 
L 603 4863 
z
" transform="scale(0.015625)"/>
       <path id="DejaVuSans-5f" d="M 3263 -1063 
L 3263 -1509 
L -63 -1509 
L -63 -1063 
L 3263 -1063 
z
" transform="scale(0.015625)"/>
       <path id="DejaVuSans-74" d="M 1172 4494 
L 1172 3500 
L 2356 3500 
L 2356 3053 
L 1172 3053 
L 1172 1153 
Q 1172 725 1289 603 
Q 1406 481 1766 481 
L 2356 481 
L 2356 0 
L 1766 0 
Q 1100 0 847 248 
Q 594 497 594 1153 
L 594 3053 
L 172 3053 
L 172 3500 
L 594 3500 
L 594 4494 
L 1172 4494 
z
" transform="scale(0.015625)"/>
      </defs>
      <use xlink:href="#DejaVuSans-41"/>
      <use xlink:href="#DejaVuSans-76" x="62.533203"/>
      <use xlink:href="#DejaVuSans-65" x="121.712891"/>
      <use xlink:href="#DejaVuSans-72" x="183.236328"/>
      <use xlink:href="#DejaVuSans-61" x="224.349609"/>
      <use xlink:href="#DejaVuSans-67" x="285.628906"/>
      <use xlink:href="#DejaVuSans-65" x="349.105469"/>
      <use xlink:href="#DejaVuSans-20" x="410.628906"/>
      <use xlink:href="#DejaVuSans-6f" x="442.416016"/>
      <use xlink:href="#DejaVuSans-66" x="503.597656"/>
      <use xlink:href="#DejaVuSans-20" x="538.802734"/>
      <use xlink:href="#DejaVuSans-53" x="570.589844"/>
      <use xlink:href="#DejaVuSans-65" x="634.066406"/>
      <use xlink:href="#DejaVuSans-73" x="695.589844"/>
      <use xlink:href="#DejaVuSans-73" x="747.689453"/>
      <use xlink:href="#DejaVuSans-69" x="799.789062"/>
      <use xlink:href="#DejaVuSans-6f" x="827.572266"/>
      <use xlink:href="#DejaVuSans-6e" x="888.753906"/>
      <use xlink:href="#DejaVuSans-20" x="952.132812"/>
      <use xlink:href="#DejaVuSans-31" x="983.919922"/>
      <use xlink:href="#DejaVuSans-31" x="1047.542969"/>
      <use xlink:href="#DejaVuSans-5f" x="1111.166016"/>
      <use xlink:href="#DejaVuSans-74" x="1161.166016"/>
      <use xlink:href="#DejaVuSans-61" x="1200.375"/>
      <use xlink:href="#DejaVuSans-63" x="1261.654297"/>
      <use xlink:href="#DejaVuSans-34" x="1316.634766"/>
     </g>
    </g>
    <g id="line2d_19">
     <path d="M 101.855406 38.465205 
L 111.855406 38.465205 
L 121.855406 38.465205 
" style="fill: none; stroke: #e41a1c; stroke-width: 1.5; stroke-linecap: square"/>
    </g>
    <g id="text_19">
     <!-- Target (n=403) -->
     <g transform="translate(129.855406 41.965205)scale(0.1 -0.1)">
      <defs>
       <path id="DejaVuSans-54" d="M -19 4666 
L 3928 4666 
L 3928 4134 
L 2272 4134 
L 2272 0 
L 1638 0 
L 1638 4134 
L -19 4134 
L -19 4666 
z
" transform="scale(0.015625)"/>
       <path id="DejaVuSans-28" d="M 1984 4856 
Q 1566 4138 1362 3434 
Q 1159 2731 1159 2009 
Q 1159 1288 1364 580 
Q 1569 -128 1984 -844 
L 1484 -844 
Q 1016 -109 783 600 
Q 550 1309 550 2009 
Q 550 2706 781 3412 
Q 1013 4119 1484 4856 
L 1984 4856 
z
" transform="scale(0.015625)"/>
       <path id="DejaVuSans-3d" d="M 678 2906 
L 4684 2906 
L 4684 2381 
L 678 2381 
L 678 2906 
z
M 678 1631 
L 4684 1631 
L 4684 1100 
L 678 1100 
L 678 1631 
z
" transform="scale(0.015625)"/>
       <path id="DejaVuSans-29" d="M 513 4856 
L 1013 4856 
Q 1481 4119 1714 3412 
Q 1947 2706 1947 2009 
Q 1947 1309 1714 600 
Q 1481 -109 1013 -844 
L 513 -844 
Q 928 -128 1133 580 
Q 1338 1288 1338 2009 
Q 1338 2731 1133 3434 
Q 928 4138 513 4856 
z
" transform="scale(0.015625)"/>
      </defs>
      <use xlink:href="#DejaVuSans-54"/>
      <use xlink:href="#DejaVuSans-61" x="44.583984"/>
      <use xlink:href="#DejaVuSans-72" x="105.863281"/>
      <use xlink:href="#DejaVuSans-67" x="145.226562"/>
      <use xlink:href="#DejaVuSans-65" x="208.703125"/>
      <use xlink:href="#DejaVuSans-74" x="270.226562"/>
      <use xlink:href="#DejaVuSans-20" x="309.435547"/>
      <use xlink:href="#DejaVuSans-28" x="341.222656"/>
      <use xlink:href="#DejaVuSans-6e" x="380.236328"/>
      <use xlink:href="#DejaVuSans-3d" x="443.615234"/>
      <use xlink:href="#DejaVuSans-34" x="527.404297"/>
      <use xlink:href="#DejaVuSans-30" x="591.027344"/>
      <use xlink:href="#DejaVuSans-33" x="654.650391"/>
      <use xlink:href="#DejaVuSans-29" x="718.273438"/>
     </g>
    </g>
    <g id="line2d_20">
     <path d="M 225.585093 38.465205 
L 235.585093 38.465205 
L 245.585093 38.465205 
" style="fill: none; stroke: #377eb8; stroke-width: 1.5; stroke-linecap: square"/>
    </g>
    <g id="text_20">
     <!-- Non-Target (n=1202) -->
     <g transform="translate(253.585093 41.965205)scale(0.1 -0.1)">
      <defs>
       <path id="DejaVuSans-4e" d="M 628 4666 
L 1478 4666 
L 3547 763 
L 3547 4666 
L 4159 4666 
L 4159 0 
L 3309 0 
L 1241 3903 
L 1241 0 
L 628 0 
L 628 4666 
z
" transform="scale(0.015625)"/>
       <path id="DejaVuSans-2d" d="M 313 2009 
L 1997 2009 
L 1997 1497 
L 313 1497 
L 313 2009 
z
" transform="scale(0.015625)"/>
      </defs>
      <use xlink:href="#DejaVuSans-4e"/>
      <use xlink:href="#DejaVuSans-6f" x="74.804688"/>
      <use xlink:href="#DejaVuSans-6e" x="135.986328"/>
      <use xlink:href="#DejaVuSans-2d" x="199.365234"/>
      <use xlink:href="#DejaVuSans-54" x="226.324219"/>
      <use xlink:href="#DejaVuSans-61" x="270.908203"/>
      <use xlink:href="#DejaVuSans-72" x="332.1875"/>
      <use xlink:href="#DejaVuSans-67" x="371.550781"/>
      <use xlink:href="#DejaVuSans-65" x="435.027344"/>
      <use xlink:href="#DejaVuSans-74" x="496.550781"/>
      <use xlink:href="#DejaVuSans-20" x="535.759766"/>
      <use xlink:href="#DejaVuSans-28" x="567.546875"/>
      <use xlink:href="#DejaVuSans-6e" x="606.560547"/>
      <use xlink:href="#DejaVuSans-3d" x="669.939453"/>
      <use xlink:href="#DejaVuSans-31" x="753.728516"/>
      <use xlink:href="#DejaVuSans-32" x="817.351562"/>
      <use xlink:href="#DejaVuSans-30" x="880.974609"/>
      <use xlink:href="#DejaVuSans-32" x="944.597656"/>
      <use xlink:href="#DejaVuSans-29" x="1008.220703"/>
     </g>
    </g>
   </g>
  </g>
 </g>
 <defs>
  <clipPath id="p1e059412df">
   <rect x="46.55" y="71.241125" width="367.065499" height="246.958875"/>
  </clipPath>
 </defs>
</svg>
