<?xml version="1.0" encoding="utf-8" standalone="no"?>
<!DOCTYPE svg PUBLIC "-//W3C//DTD SVG 1.1//EN"
  "http://www.w3.org/Graphics/SVG/1.1/DTD/svg11.dtd">
<svg xmlns:xlink="http://www.w3.org/1999/xlink" width="432pt" height="360pt" viewBox="0 0 432 360" xmlns="http://www.w3.org/2000/svg" version="1.1">
 <metadata>
  <rdf:RDF xmlns:dc="http://purl.org/dc/elements/1.1/" xmlns:cc="http://creativecommons.org/ns#" xmlns:rdf="http://www.w3.org/1999/02/22-rdf-syntax-ns#">
   <cc:Work>
    <dc:type rdf:resource="http://purl.org/dc/dcmitype/StillImage"/>
    <dc:date>2022-11-02T16:57:17.216563</dc:date>
    <dc:format>image/svg+xml</dc:format>
    <dc:creator>
     <cc:Agent>
      <dc:title>Matplotlib v3.5.1, https://matplotlib.org/</dc:title>
     </cc:Agent>
    </dc:creator>
   </cc:Work>
  </rdf:RDF>
 </metadata>
 <defs>
  <style type="text/css">*{stroke-linejoin: round; stroke-linecap: butt}</style>
 </defs>
 <g id="figure_1">
  <g id="patch_1">
   <path d="M 0 360 
L 432 360 
L 432 0 
L 0 0 
L 0 360 
z
" style="fill: none"/>
  </g>
  <g id="axes_1">
   <g id="patch_2">
    <path d="M 46.55 318.2 
L 413.615499 318.2 
L 413.615499 71.241125 
L 46.55 71.241125 
L 46.55 318.2 
z
" style="fill: none"/>
   </g>
   <g id="PolyCollection_1">
    <defs>
     <path id="me79221a246" d="M 46.55 -124.594894 
L 46.55 -87.618133 
L 47.346238 -89.399422 
L 48.142475 -91.725189 
L 48.938713 -94.261808 
L 49.73495 -96.761914 
L 50.531188 -99.069651 
L 51.327425 -101.090368 
L 52.123663 -102.754198 
L 52.9199 -103.998513 
L 53.716138 -104.778249 
L 54.512375 -105.099861 
L 55.308613 -105.06654 
L 56.10485 -104.904674 
L 56.901088 -104.919537 
L 57.697325 -105.359732 
L 58.493563 -106.261818 
L 59.2898 -107.387239 
L 60.086038 -108.301068 
L 60.882275 -108.560048 
L 61.678513 -107.931651 
L 62.47475 -106.543789 
L 63.270988 -104.875088 
L 64.067226 -103.568874 
L 64.863463 -103.156978 
L 65.659701 -103.829954 
L 66.455938 -105.362309 
L 67.252176 -107.219903 
L 68.048413 -108.771479 
L 68.844651 -109.484229 
L 69.640888 -109.04402 
L 70.437126 -107.407894 
L 71.233363 -104.801111 
L 72.029601 -101.659581 
L 72.825838 -98.518276 
L 73.622076 -95.856863 
L 74.418313 -93.944122 
L 75.214551 -92.7536 
L 76.010788 -92.007764 
L 76.807026 -91.350693 
L 77.603263 -90.567906 
L 78.399501 -89.702731 
L 79.195739 -88.976764 
L 79.991976 -88.598736 
L 80.788214 -88.628618 
L 81.584451 -88.975012 
L 82.380689 -89.47253 
L 83.176926 -89.938124 
L 83.973164 -90.188193 
L 84.769401 -90.079409 
L 85.565639 -89.59061 
L 86.361876 -88.872217 
L 87.158114 -88.18674 
L 87.954351 -87.771381 
L 88.750589 -87.739313 
L 89.546826 -88.088889 
L 90.343064 -88.762127 
L 91.139301 -89.65154 
L 91.935539 -90.559448 
L 92.731776 -91.208475 
L 93.528014 -91.354972 
L 94.324251 -90.944226 
L 95.120489 -90.173217 
L 95.916727 -89.389912 
L 96.712964 -88.916499 
L 97.509202 -88.933695 
L 98.305439 -89.451153 
L 99.101677 -90.296623 
L 99.897914 -91.10815 
L 100.694152 -91.393452 
L 101.490389 -90.699575 
L 102.286627 -88.843865 
L 103.082864 -86.078634 
L 103.879102 -83.066204 
L 104.675339 -80.657211 
L 105.471577 -79.582407 
L 106.267814 -80.192865 
L 107.064052 -82.344583 
L 107.860289 -85.477621 
L 108.656527 -88.86054 
L 109.452764 -91.86012 
L 110.249002 -94.073767 
L 111.04524 -95.305046 
L 111.841477 -95.502427 
L 112.637715 -94.750389 
L 113.433952 -93.277859 
L 114.23019 -91.402124 
L 115.026427 -89.414892 
L 115.822665 -87.510352 
L 116.618902 -85.82582 
L 117.41514 -84.549774 
L 118.211377 -83.957968 
L 119.007615 -84.282507 
L 119.803852 -85.499166 
L 120.60009 -87.228384 
L 121.396327 -88.855862 
L 122.192565 -89.799522 
L 122.988802 -89.747182 
L 123.78504 -88.743476 
L 124.581277 -87.131756 
L 125.377515 -85.423147 
L 126.173752 -84.157182 
L 126.96999 -83.776738 
L 127.766228 -84.501839 
L 128.562465 -86.216803 
L 129.358703 -88.455167 
L 130.15494 -90.546859 
L 130.951178 -91.882046 
L 131.747415 -92.158145 
L 132.543653 -91.472921 
L 133.33989 -90.211901 
L 134.136128 -88.80743 
L 134.932365 -87.517782 
L 135.728603 -86.335636 
L 136.52484 -85.044169 
L 137.321078 -83.373339 
L 138.117315 -81.183608 
L 138.913553 -78.602157 
L 139.70979 -76.053255 
L 140.506028 -74.161395 
L 141.302265 -73.553165 
L 142.098503 -74.626415 
L 142.89474 -77.377945 
L 143.690978 -81.368252 
L 144.487216 -85.847891 
L 145.283453 -90.001871 
L 146.079691 -93.217401 
L 146.875928 -95.265877 
L 147.672166 -96.322632 
L 148.468403 -96.825445 
L 149.264641 -97.258212 
L 150.060878 -97.974599 
L 150.857116 -99.136051 
L 151.653353 -100.755394 
L 152.449591 -102.773918 
L 153.245828 -105.101739 
L 154.042066 -107.602886 
L 154.838303 -110.070062 
L 155.634541 -112.236049 
L 156.430778 -113.829018 
L 157.227016 -114.631373 
L 158.023253 -114.51691 
L 158.819491 -113.482864 
L 159.615729 -111.6917 
L 160.411966 -109.494324 
L 161.208204 -107.383409 
L 162.004441 -105.859257 
L 162.800679 -105.256627 
L 163.596916 -105.629026 
L 164.393154 -106.759894 
L 165.189391 -108.28947 
L 165.985629 -109.887035 
L 166.781866 -111.394677 
L 167.578104 -112.906423 
L 168.374341 -114.758096 
L 169.170579 -117.414174 
L 169.966816 -121.263415 
L 170.763054 -126.399996 
L 171.559291 -132.498526 
L 172.355529 -138.84994 
L 173.151766 -144.545359 
L 173.948004 -148.73558 
L 174.744241 -150.873456 
L 175.540479 -150.860293 
L 176.336717 -149.048884 
L 177.132954 -146.110921 
L 177.929192 -142.834608 
L 178.725429 -139.936779 
L 179.521667 -137.933358 
L 180.317904 -137.079086 
L 181.114142 -137.371871 
L 181.910379 -138.616828 
L 182.706617 -140.508143 
L 183.502854 -142.663795 
L 184.299092 -144.594964 
L 185.095329 -145.696988 
L 185.891567 -145.375502 
L 186.687804 -143.295454 
L 187.484042 -139.58251 
L 188.280279 -134.816872 
L 189.076517 -129.835786 
L 189.872754 -125.486358 
L 190.668992 -122.4378 
L 191.46523 -121.060522 
L 192.261467 -121.335717 
L 193.057705 -122.826539 
L 193.853942 -124.800559 
L 194.65018 -126.513365 
L 195.446417 -127.515538 
L 196.242655 -127.797558 
L 197.038892 -127.693314 
L 197.83513 -127.62779 
L 198.631367 -127.87354 
L 199.427605 -128.430988 
L 200.223842 -129.046761 
L 201.02008 -129.336323 
L 201.816317 -128.974298 
L 202.612555 -127.895355 
L 203.408792 -126.410821 
L 204.20503 -125.158636 
L 205.001267 -124.882133 
L 205.797505 -126.12171 
L 206.593742 -128.949426 
L 207.38998 -132.865661 
L 208.186218 -136.919898 
L 208.982455 -140.028939 
L 209.778693 -141.374999 
L 210.57493 -140.717812 
L 211.371168 -138.484211 
L 212.167405 -135.595679 
L 212.963643 -133.114466 
L 213.75988 -131.858353 
L 214.556118 -132.134783 
L 215.352355 -133.682057 
L 216.148593 -135.82495 
L 216.94483 -137.778305 
L 217.741068 -138.975192 
L 218.537305 -139.280936 
L 219.333543 -139.003828 
L 220.12978 -138.712478 
L 220.926018 -138.965492 
L 221.722255 -140.087019 
L 222.518493 -142.065428 
L 223.31473 -144.577683 
L 224.110968 -147.116407 
L 224.907206 -149.191488 
L 225.703443 -150.543503 
L 226.499681 -151.270067 
L 227.295918 -151.784716 
L 228.092156 -152.612032 
L 228.888393 -154.124047 
L 229.684631 -156.361867 
L 230.480868 -159.029784 
L 231.277106 -161.645976 
L 232.073343 -163.759003 
L 232.869581 -165.126024 
L 233.665818 -165.780252 
L 234.462056 -165.966984 
L 235.258293 -165.987174 
L 236.054531 -166.032764 
L 236.850768 -166.095965 
L 237.647006 -165.983204 
L 238.443243 -165.409092 
L 239.239481 -164.133854 
L 240.035719 -162.110262 
L 240.831956 -159.591198 
L 241.628194 -157.126973 
L 242.424431 -155.404629 
L 243.220669 -154.973766 
L 244.016906 -155.997569 
L 244.813144 -158.163378 
L 245.609381 -160.779395 
L 246.405619 -162.990806 
L 247.201856 -164.038572 
L 247.998094 -163.507456 
L 248.794331 -161.495661 
L 249.590569 -158.617104 
L 250.386806 -155.792463 
L 251.183044 -153.905666 
L 251.979281 -153.491267 
L 252.775519 -154.59276 
L 253.571756 -156.817868 
L 254.367994 -159.530653 
L 255.164231 -162.099626 
L 255.960469 -164.124249 
L 256.756707 -165.558533 
L 257.552944 -166.674011 
L 258.349182 -167.878046 
L 259.145419 -169.485603 
L 259.941657 -171.559852 
L 260.737894 -173.880684 
L 261.534132 -176.037815 
L 262.330369 -177.607159 
L 263.126607 -178.35281 
L 263.922844 -178.36186 
L 264.719082 -178.032594 
L 265.515319 -177.908818 
L 266.311557 -178.455762 
L 267.107794 -179.898845 
L 267.904032 -182.184992 
L 268.700269 -185.047895 
L 269.496507 -188.130114 
L 270.292744 -191.122455 
L 271.088982 -193.871763 
L 271.88522 -196.39206 
L 272.681457 -198.755067 
L 273.477695 -200.929294 
L 274.273932 -202.691215 
L 275.07017 -203.674899 
L 275.866407 -203.534032 
L 276.662645 -202.129202 
L 277.458882 -199.666302 
L 278.25512 -196.727335 
L 279.051357 -194.153781 
L 279.847595 -192.785812 
L 280.643832 -193.143365 
L 281.44007 -195.195452 
L 282.236307 -198.333282 
L 283.032545 -201.55738 
L 283.828782 -203.793887 
L 284.62502 -204.229666 
L 285.421257 -202.571956 
L 286.217495 -199.152165 
L 287.013732 -194.823497 
L 287.80997 -190.671211 
L 288.606208 -187.654577 
L 289.402445 -186.329827 
L 290.198683 -186.758254 
L 290.99492 -188.59768 
L 291.791158 -191.294599 
L 292.587395 -194.271614 
L 293.383633 -197.043888 
L 294.17987 -199.258764 
L 294.976108 -200.693359 
L 295.772345 -201.245424 
L 296.568583 -200.92595 
L 297.36482 -199.84241 
L 298.161058 -198.171621 
L 298.957295 -196.139582 
L 299.753533 -194.017925 
L 300.54977 -192.112373 
L 301.346008 -190.697993 
L 302.142245 -189.895917 
L 302.938483 -189.562682 
L 303.73472 -189.2939 
L 304.530958 -188.573142 
L 305.327196 -186.987606 
L 306.123433 -184.384973 
L 306.919671 -180.900067 
L 307.715908 -176.873265 
L 308.512146 -172.731538 
L 309.308383 -168.889361 
L 310.104621 -165.683422 
L 310.900858 -163.331125 
L 311.697096 -161.918782 
L 312.493333 -161.440955 
L 313.289571 -161.882112 
L 314.085808 -163.278505 
L 314.882046 -165.69195 
L 315.678283 -169.089108 
L 316.474521 -173.206336 
L 317.270758 -177.506896 
L 318.066996 -181.28145 
L 318.863233 -183.850286 
L 319.659471 -184.773913 
L 320.455709 -183.993755 
L 321.251946 -181.868378 
L 322.048184 -179.095581 
L 322.844421 -176.51873 
L 323.640659 -174.842861 
L 324.436896 -174.347508 
L 325.233134 -174.733299 
L 326.029371 -175.207886 
L 326.825609 -174.804989 
L 327.621846 -172.809279 
L 328.418084 -169.097442 
L 329.214321 -164.235645 
L 330.010559 -159.28335 
L 330.806796 -155.383821 
L 331.603034 -153.309128 
L 332.399271 -153.143346 
L 333.195509 -154.233892 
L 333.991746 -155.43371 
L 334.787984 -155.537938 
L 335.584221 -153.744741 
L 336.380459 -149.972215 
L 337.176697 -144.924285 
L 337.972934 -139.882349 
L 338.769172 -136.283869 
L 339.565409 -135.224479 
L 340.361647 -137.062601 
L 341.157884 -141.281306 
L 341.954122 -146.659694 
L 342.750359 -151.677636 
L 343.546597 -154.99482 
L 344.342834 -155.842737 
L 345.139072 -154.219819 
L 345.935309 -150.840801 
L 346.731547 -146.851282 
L 347.527784 -143.403927 
L 348.324022 -141.265243 
L 349.120259 -140.620452 
L 349.916497 -141.143713 
L 350.712734 -142.259641 
L 351.508972 -143.432811 
L 352.30521 -144.34148 
L 353.101447 -144.896023 
L 353.897685 -145.150244 
L 354.693922 -145.174721 
L 355.49016 -144.946936 
L 356.286397 -144.309524 
L 357.082635 -143.035369 
L 357.878872 -140.983363 
L 358.67511 -138.252367 
L 359.471347 -135.222373 
L 360.267585 -132.43735 
L 361.063822 -130.391945 
L 361.86006 -129.334064 
L 362.656297 -129.169765 
L 363.452535 -129.494997 
L 364.248772 -129.732531 
L 365.04501 -129.33429 
L 365.841247 -127.991947 
L 366.637485 -125.779879 
L 367.433722 -123.153377 
L 368.22996 -120.778754 
L 369.026198 -119.255686 
L 369.822435 -118.855504 
L 370.618673 -119.399463 
L 371.41491 -120.338798 
L 372.211148 -121.000889 
L 373.007385 -120.885005 
L 373.803623 -119.864411 
L 374.59986 -118.207189 
L 375.396098 -116.426485 
L 376.192335 -115.04266 
L 376.988573 -114.354169 
L 377.78481 -114.296464 
L 378.581048 -114.444321 
L 379.377285 -114.176654 
L 380.173523 -112.952147 
L 380.96976 -110.577504 
L 381.765998 -107.335212 
L 382.562235 -103.898453 
L 383.358473 -101.069313 
L 384.15471 -99.464705 
L 384.950948 -99.294232 
L 385.747186 -100.319165 
L 386.543423 -101.988635 
L 387.339661 -103.673105 
L 388.135898 -104.894011 
L 388.932136 -105.475605 
L 389.728373 -105.58618 
L 390.524611 -105.669647 
L 391.320848 -106.287113 
L 392.117086 -107.904604 
L 392.913323 -110.695092 
L 393.709561 -114.446889 
L 394.505798 -118.635172 
L 395.302036 -122.624875 
L 396.098273 -125.905386 
L 396.894511 -128.257919 
L 397.690748 -129.805914 
L 398.486986 -130.947493 
L 399.283223 -132.199538 
L 400.079461 -134.007422 
L 400.875699 -136.589778 
L 401.671936 -139.87167 
L 402.468174 -143.51366 
L 403.264411 -147.007994 
L 404.060649 -149.808294 
L 404.856886 -151.463668 
L 405.653124 -151.720162 
L 406.449361 -150.551583 
L 407.245599 -148.117305 
L 408.041836 -144.69743 
L 408.838074 -140.662866 
L 409.634311 -136.479583 
L 410.430549 -132.685681 
L 411.226786 -129.796521 
L 412.023024 -128.171111 
L 412.819261 -127.920747 
L 413.615499 -128.902602 
L 413.615499 -211.054244 
L 413.615499 -211.054244 
L 412.819261 -210.675739 
L 412.023024 -211.717737 
L 411.226786 -214.165824 
L 410.430549 -217.763505 
L 409.634311 -222.122944 
L 408.838074 -226.792448 
L 408.041836 -231.274946 
L 407.245599 -235.053862 
L 406.449361 -237.66388 
L 405.653124 -238.777368 
L 404.856886 -238.257689 
L 404.060649 -236.169575 
L 403.264411 -232.772305 
L 402.468174 -228.505742 
L 401.671936 -223.941568 
L 400.875699 -219.672527 
L 400.079461 -216.15907 
L 399.283223 -213.593831 
L 398.486986 -211.84215 
L 397.690748 -210.485755 
L 396.894511 -208.965058 
L 396.098273 -206.785215 
L 395.302036 -203.716397 
L 394.505798 -199.903222 
L 393.709561 -195.830693 
L 392.913323 -192.159017 
L 392.117086 -189.489678 
L 391.320848 -188.139183 
L 390.524611 -187.993551 
L 389.728373 -188.512494 
L 388.932136 -188.918537 
L 388.135898 -188.520882 
L 387.339661 -187.032446 
L 386.543423 -184.721832 
L 385.747186 -182.319685 
L 384.950948 -180.720663 
L 384.15471 -180.619645 
L 383.358473 -182.242237 
L 382.562235 -185.270943 
L 381.765998 -188.973311 
L 380.96976 -192.463764 
L 380.173523 -194.998539 
L 379.377285 -196.207111 
L 378.581048 -196.190396 
L 377.78481 -195.454109 
L 376.988573 -194.695209 
L 376.192335 -194.514836 
L 375.396098 -195.175116 
L 374.59986 -196.515354 
L 373.803623 -198.070541 
L 373.007385 -199.326702 
L 372.211148 -199.974649 
L 371.41491 -200.041777 
L 370.618673 -199.861644 
L 369.822435 -199.916483 
L 369.026198 -200.62605 
L 368.22996 -202.165492 
L 367.433722 -204.380289 
L 366.637485 -206.835346 
L 365.841247 -208.983984 
L 365.04501 -210.395896 
L 364.248772 -210.951598 
L 363.452535 -210.911175 
L 362.656297 -210.809763 
L 361.86006 -211.217979 
L 361.063822 -212.482537 
L 360.267585 -214.583042 
L 359.471347 -217.169592 
L 358.67511 -219.736684 
L 357.878872 -221.824765 
L 357.082635 -223.15837 
L 356.286397 -223.690927 
L 355.49016 -223.567396 
L 354.693922 -223.028004 
L 353.897685 -222.283342 
L 353.101447 -221.42258 
L 352.30521 -220.421018 
L 351.508972 -219.255108 
L 350.712734 -218.043665 
L 349.916497 -217.102227 
L 349.120259 -216.859573 
L 348.324022 -217.682945 
L 347.527784 -219.697425 
L 346.731547 -222.665134 
L 345.935309 -225.962328 
L 345.139072 -228.68291 
L 344.342834 -229.8779 
L 343.546597 -228.889881 
L 342.750359 -225.665726 
L 341.954122 -220.886761 
L 341.157884 -215.819529 
L 340.361647 -211.924337 
L 339.565409 -210.374415 
L 338.769172 -211.666761 
L 337.972934 -215.458708 
L 337.176697 -220.685334 
L 336.380459 -225.925817 
L 335.584221 -229.898779 
L 334.787984 -231.905444 
L 333.991746 -232.044845 
L 333.195509 -231.11742 
L 332.399271 -230.270063 
L 331.603034 -230.540088 
L 330.806796 -232.478394 
L 330.010559 -235.981951 
L 329.214321 -240.377665 
L 328.418084 -244.706206 
L 327.621846 -248.085358 
L 326.825609 -250.014448 
L 326.029371 -250.519304 
L 325.233134 -250.104981 
L 324.436896 -249.546628 
L 323.640659 -249.592913 
L 322.844421 -250.679498 
L 322.048184 -252.749772 
L 321.251946 -255.255854 
L 320.455709 -257.359075 
L 319.659471 -258.261852 
L 318.863233 -257.520561 
L 318.066996 -255.187077 
L 317.270758 -251.727293 
L 316.474521 -247.794227 
L 315.678283 -243.995801 
L 314.882046 -240.759084 
L 314.085808 -238.306699 
L 313.289571 -236.706859 
L 312.493333 -235.953804 
L 311.697096 -236.04879 
L 310.900858 -237.048882 
L 310.104621 -239.046058 
L 309.308383 -242.064829 
L 308.512146 -245.931277 
L 307.715908 -250.214322 
L 306.919671 -254.311862 
L 306.123433 -257.654615 
L 305.327196 -259.915898 
L 304.530958 -261.114833 
L 303.73472 -261.573119 
L 302.938483 -261.773755 
L 302.142245 -262.206253 
L 301.346008 -263.247154 
L 300.54977 -265.074711 
L 299.753533 -267.614727 
L 298.957295 -270.546579 
L 298.161058 -273.398491 
L 297.36482 -275.704106 
L 296.568583 -277.133928 
L 295.772345 -277.533472 
L 294.976108 -276.877451 
L 294.17987 -275.213039 
L 293.383633 -272.659708 
L 292.587395 -269.467762 
L 291.791158 -266.074064 
L 290.99492 -263.083304 
L 290.198683 -261.146504 
L 289.402445 -260.770835 
L 288.606208 -262.138051 
L 287.80997 -265.007513 
L 287.013732 -268.743269 
L 286.217495 -272.459315 
L 285.421257 -275.246604 
L 284.62502 -276.425277 
L 283.828782 -275.762158 
L 283.032545 -273.574467 
L 282.236307 -270.653076 
L 281.44007 -268.00124 
L 280.643832 -266.489978 
L 279.847595 -266.579228 
L 279.051357 -268.204756 
L 278.25512 -270.842019 
L 277.458882 -273.699846 
L 276.662645 -275.978071 
L 275.866407 -277.110534 
L 275.07017 -276.905077 
L 274.273932 -275.523176 
L 273.477695 -273.324811 
L 272.681457 -270.682394 
L 271.88522 -267.859422 
L 271.088982 -264.985797 
L 270.292744 -262.099529 
L 269.496507 -259.225049 
L 268.700269 -256.458294 
L 267.904032 -254.009457 
L 267.107794 -252.149589 
L 266.311557 -251.070258 
L 265.515319 -250.746973 
L 264.719082 -250.904356 
L 263.922844 -251.105879 
L 263.126607 -250.911265 
L 262.330369 -250.027738 
L 261.534132 -248.409227 
L 260.737894 -246.273749 
L 259.941657 -244.01708 
L 259.145419 -242.03139 
L 258.349182 -240.51303 
L 257.552944 -239.364093 
L 256.756707 -238.245477 
L 255.960469 -236.746214 
L 255.164231 -234.590691 
L 254.367994 -231.805836 
L 253.571756 -228.781664 
L 252.775519 -226.176329 
L 251.979281 -224.672964 
L 251.183044 -224.687748 
L 250.386806 -226.172884 
L 249.590569 -228.603449 
L 248.794331 -231.134093 
L 247.998094 -232.855487 
L 247.201856 -233.081837 
L 246.405619 -231.602585 
L 245.609381 -228.798628 
L 244.813144 -225.535034 
L 244.016906 -222.844476 
L 243.220669 -221.545664 
L 242.424431 -221.979431 
L 241.628194 -223.954228 
L 240.831956 -226.868672 
L 240.035719 -229.935786 
L 239.239481 -232.446626 
L 238.443243 -234.00389 
L 237.647006 -234.629771 
L 236.850768 -234.681964 
L 236.054531 -234.611841 
L 235.258293 -234.698298 
L 234.462056 -234.905054 
L 233.665818 -234.922317 
L 232.869581 -234.347211 
L 232.073343 -232.900714 
L 231.277106 -230.581613 
L 230.480868 -227.690866 
L 229.684631 -224.714932 
L 228.888393 -222.122654 
L 228.092156 -220.171553 
L 227.295918 -218.807883 
L 226.499681 -217.6944 
L 225.703443 -216.349678 
L 224.907206 -214.355016 
L 224.110968 -211.566315 
L 223.31473 -208.244108 
L 222.518493 -205.012898 
L 221.722255 -202.623299 
L 220.926018 -201.604077 
L 220.12978 -201.981772 
L 219.333543 -203.230844 
L 218.537305 -204.4865 
L 217.741068 -204.909756 
L 216.94483 -204.038756 
L 216.148593 -201.987255 
L 215.352355 -199.415492 
L 214.556118 -197.27755 
L 213.75988 -196.431457 
L 212.963643 -197.26324 
L 212.167405 -199.487649 
L 211.371168 -202.221891 
L 210.57493 -204.307545 
L 209.778693 -204.746229 
L 208.982455 -203.073481 
L 208.186218 -199.533041 
L 207.38998 -194.990684 
L 206.593742 -190.622788 
L 205.797505 -187.494579 
L 205.001267 -186.187586 
L 204.20503 -186.62175 
L 203.408792 -188.141232 
L 202.612555 -189.820209 
L 201.816317 -190.852545 
L 201.02008 -190.861976 
L 200.223842 -190.009361 
L 199.427605 -188.855881 
L 198.631367 -188.043187 
L 197.83513 -187.946064 
L 197.038892 -188.485331 
L 196.242655 -189.2004 
L 195.446417 -189.512222 
L 194.65018 -189.014018 
L 193.853942 -187.658328 
L 193.057705 -185.802827 
L 192.261467 -184.128814 
L 191.46523 -183.440717 
L 190.668992 -184.367576 
L 189.872754 -187.064339 
L 189.076517 -191.083719 
L 188.280279 -195.536603 
L 187.484042 -199.460874 
L 186.687804 -202.169208 
L 185.891567 -203.393684 
L 185.095329 -203.224253 
L 184.299092 -201.979969 
L 183.502854 -200.122344 
L 182.706617 -198.185838 
L 181.910379 -196.668713 
L 181.114142 -195.916379 
L 180.317904 -196.080502 
L 179.521667 -197.16836 
L 178.725429 -199.10272 
L 177.929192 -201.717676 
L 177.132954 -204.704711 
L 176.336717 -207.575797 
L 175.540479 -209.703871 
L 174.744241 -210.442538 
L 173.948004 -209.295525 
L 173.151766 -206.082973 
L 172.355529 -201.040385 
L 171.559291 -194.792126 
L 170.763054 -188.190255 
L 169.966816 -182.073761 
L 169.170579 -177.03948 
L 168.374341 -173.302752 
L 167.578104 -170.69237 
L 166.781866 -168.788944 
L 165.985629 -167.164142 
L 165.189391 -165.61112 
L 164.393154 -164.243004 
L 163.596916 -163.404892 
L 162.800679 -163.464154 
L 162.004441 -164.598078 
L 161.208204 -166.677926 
L 160.411966 -169.275565 
L 159.615729 -171.775104 
L 158.819491 -173.554627 
L 158.023253 -174.183349 
L 157.227016 -173.558616 
L 156.430778 -171.911946 
L 155.634541 -169.673419 
L 154.838303 -167.267405 
L 154.042066 -164.963844 
L 153.245828 -162.867554 
L 152.449591 -161.011935 
L 151.653353 -159.451154 
L 150.857116 -158.269084 
L 150.060878 -157.509793 
L 149.264641 -157.088909 
L 148.468403 -156.754642 
L 147.672166 -156.122905 
L 146.875928 -154.774316 
L 146.079691 -152.383968 
L 145.283453 -148.851154 
L 144.487216 -144.395014 
L 143.690978 -139.570275 
L 142.89474 -135.165231 
L 142.098503 -131.987504 
L 141.302265 -130.604387 
L 140.506028 -131.13942 
L 139.70979 -133.214619 
L 138.913553 -136.076654 
L 138.117315 -138.868017 
L 137.321078 -140.933016 
L 136.52484 -142.024778 
L 135.728603 -142.323708 
L 134.932365 -142.26858 
L 134.136128 -142.293105 
L 133.33989 -142.604663 
L 132.543653 -143.106781 
L 131.747415 -143.476343 
L 130.951178 -143.332466 
L 130.15494 -142.422896 
L 129.358703 -140.774023 
L 128.562465 -138.75219 
L 127.766228 -136.985299 
L 126.96999 -136.136982 
L 126.173752 -136.603441 
L 125.377515 -138.278047 
L 124.581277 -140.542706 
L 123.78504 -142.528364 
L 122.988802 -143.502098 
L 122.192565 -143.16138 
L 121.396327 -141.695764 
L 120.60009 -139.626559 
L 119.803852 -137.562394 
L 119.007615 -136.022066 
L 118.211377 -135.364211 
L 117.41514 -135.758067 
L 116.618902 -137.139617 
L 115.822665 -139.190431 
L 115.026427 -141.424637 
L 114.23019 -143.373552 
L 113.433952 -144.733807 
L 112.637715 -145.370887 
L 111.841477 -145.206178 
L 111.04524 -144.12607 
L 110.249002 -142.03394 
L 109.452764 -139.011449 
L 108.656527 -135.423391 
L 107.860289 -131.845691 
L 107.064052 -128.866473 
L 106.267814 -126.913988 
L 105.471577 -126.188858 
L 104.675339 -126.660313 
L 103.879102 -128.086087 
L 103.082864 -130.061756 
L 102.286627 -132.100246 
L 101.490389 -133.720655 
L 100.694152 -134.542804 
L 99.897914 -134.400101 
L 99.101677 -133.427063 
L 98.305439 -132.039017 
L 97.509202 -130.772101 
L 96.712964 -130.049703 
L 95.916727 -130.011815 
L 95.120489 -130.512184 
L 94.324251 -131.246211 
L 93.528014 -131.876626 
L 92.731776 -132.094818 
L 91.935539 -131.677994 
L 91.139301 -130.585934 
L 90.343064 -129.02732 
L 89.546826 -127.399364 
L 88.750589 -126.098581 
L 87.954351 -125.320859 
L 87.158114 -124.996527 
L 86.361876 -124.88742 
L 85.565639 -124.7292 
L 84.769401 -124.314633 
L 83.973164 -123.525221 
L 83.176926 -122.367451 
L 82.380689 -121.009073 
L 81.584451 -119.744406 
L 80.788214 -118.857617 
L 79.991976 -118.47284 
L 79.195739 -118.522595 
L 78.399501 -118.853459 
L 77.603263 -119.357702 
L 76.807026 -120.021112 
L 76.010788 -120.882951 
L 75.214551 -121.996899 
L 74.418313 -123.445086 
L 73.622076 -125.340852 
L 72.825838 -127.756179 
L 72.029601 -130.602779 
L 71.233363 -133.55459 
L 70.437126 -136.091882 
L 69.640888 -137.680075 
L 68.844651 -138.004503 
L 68.048413 -137.135419 
L 67.252176 -135.528425 
L 66.455938 -133.846065 
L 65.659701 -132.689341 
L 64.863463 -132.386934 
L 64.067226 -132.932551 
L 63.270988 -134.052533 
L 62.47475 -135.338329 
L 61.678513 -136.384625 
L 60.882275 -136.898187 
L 60.086038 -136.766802 
L 59.2898 -136.084131 
L 58.493563 -135.116026 
L 57.697325 -134.207766 
L 56.901088 -133.664837 
L 56.10485 -133.646742 
L 55.308613 -134.101086 
L 54.512375 -134.767772 
L 53.716138 -135.279669 
L 52.9199 -135.324036 
L 52.123663 -134.765277 
L 51.327425 -133.660462 
L 50.531188 -132.182951 
L 49.73495 -130.521376 
L 48.938713 -128.817749 
L 48.142475 -127.171911 
L 47.346238 -125.699032 
L 46.55 -124.594894 
z
" style="stroke: #e41a1c; stroke-opacity: 0.3"/>
    </defs>
    <g clip-path="url(#p7e84d7aac8)">
     <use xlink:href="#me79221a246" x="0" y="360" style="fill: #e41a1c; fill-opacity: 0.3; stroke: #e41a1c; stroke-opacity: 0.3"/>
    </g>
   </g>
   <g id="PolyCollection_2">
    <defs>
     <path id="m5a1bc9553a" d="M 46.55 -136.679841 
L 46.55 -114.0956 
L 47.346238 -115.73648 
L 48.142475 -116.804347 
L 48.938713 -117.00945 
L 49.73495 -116.257825 
L 50.531188 -114.698485 
L 51.327425 -112.70061 
L 52.123663 -110.758506 
L 52.9199 -109.348696 
L 53.716138 -108.785183 
L 54.512375 -109.123588 
L 55.308613 -110.150687 
L 56.10485 -111.460271 
L 56.901088 -112.580109 
L 57.697325 -113.100816 
L 58.493563 -112.771835 
L 59.2898 -111.554283 
L 60.086038 -109.632028 
L 60.882275 -107.370718 
L 61.678513 -105.211388 
L 62.47475 -103.526569 
L 63.270988 -102.510645 
L 64.067226 -102.155678 
L 64.863463 -102.303537 
L 65.659701 -102.724493 
L 66.455938 -103.179688 
L 67.252176 -103.464533 
L 68.048413 -103.445478 
L 68.844651 -103.085177 
L 69.640888 -102.442997 
L 70.437126 -101.656942 
L 71.233363 -100.924319 
L 72.029601 -100.475507 
L 72.825838 -100.511802 
L 73.622076 -101.104694 
L 74.418313 -102.114231 
L 75.214551 -103.199511 
L 76.010788 -103.932746 
L 76.807026 -103.946922 
L 77.603263 -103.039956 
L 78.399501 -101.225657 
L 79.195739 -98.755011 
L 79.991976 -96.099855 
L 80.788214 -93.865866 
L 81.584451 -92.62209 
L 82.380689 -92.697707 
L 83.176926 -94.042129 
L 83.973164 -96.218018 
L 84.769401 -98.527292 
L 85.565639 -100.217154 
L 86.361876 -100.69793 
L 87.158114 -99.709568 
L 87.954351 -97.388274 
L 88.750589 -94.213335 
L 89.546826 -90.855365 
L 90.343064 -87.980614 
L 91.139301 -86.072869 
L 91.935539 -85.322241 
L 92.731776 -85.606888 
L 93.528014 -86.57032 
L 94.324251 -87.763332 
L 95.120489 -88.793136 
L 95.916727 -89.424921 
L 96.712964 -89.613134 
L 97.509202 -89.472595 
L 98.305439 -89.208424 
L 99.101677 -89.023193 
L 99.897914 -89.026787 
L 100.694152 -89.190234 
L 101.490389 -89.37419 
L 102.286627 -89.418678 
L 103.082864 -89.237837 
L 103.879102 -88.861796 
L 104.675339 -88.41514 
L 105.471577 -88.060866 
L 106.267814 -87.939793 
L 107.064052 -88.116682 
L 107.860289 -88.545239 
L 108.656527 -89.074803 
L 109.452764 -89.511069 
L 110.249002 -89.708003 
L 111.04524 -89.638692 
L 111.841477 -89.398733 
L 112.637715 -89.145614 
L 113.433952 -89.016917 
L 114.23019 -89.071649 
L 115.026427 -89.276486 
L 115.822665 -89.536118 
L 116.618902 -89.748054 
L 117.41514 -89.848852 
L 118.211377 -89.82451 
L 119.007615 -89.685043 
L 119.803852 -89.428568 
L 120.60009 -89.021495 
L 121.396327 -88.401892 
L 122.192565 -87.497097 
L 122.988802 -86.249763 
L 123.78504 -84.653246 
L 124.581277 -82.792069 
L 125.377515 -80.863916 
L 126.173752 -79.157663 
L 126.96999 -77.981132 
L 127.766228 -77.558514 
L 128.562465 -77.934411 
L 129.358703 -78.92521 
L 130.15494 -80.14687 
L 130.951178 -81.121996 
L 131.747415 -81.428106 
L 132.543653 -80.826734 
L 133.33989 -79.325941 
L 134.136128 -77.167312 
L 134.932365 -74.755771 
L 135.728603 -72.550451 
L 136.52484 -70.933405 
L 137.321078 -70.093586 
L 138.117315 -69.9782 
L 138.913553 -70.339172 
L 139.70979 -70.85113 
L 140.506028 -71.242955 
L 141.302265 -71.390418 
L 142.098503 -71.347533 
L 142.89474 -71.318084 
L 143.690978 -71.578573 
L 144.487216 -72.373325 
L 145.283453 -73.819061 
L 146.079691 -75.859715 
L 146.875928 -78.289359 
L 147.672166 -80.828107 
L 148.468403 -83.217918 
L 149.264641 -85.305491 
L 150.060878 -87.085558 
L 150.857116 -88.687516 
L 151.653353 -90.308232 
L 152.449591 -92.11884 
L 153.245828 -94.184748 
L 154.042066 -96.426313 
L 154.838303 -98.625841 
L 155.634541 -100.476155 
L 156.430778 -101.662712 
L 157.227016 -101.961808 
L 158.023253 -101.319367 
L 158.819491 -99.873843 
L 159.615729 -97.915034 
L 160.411966 -95.806194 
L 161.208204 -93.906806 
L 162.004441 -92.514357 
L 162.800679 -91.821848 
L 163.596916 -91.887543 
L 164.393154 -92.625506 
L 165.189391 -93.826689 
L 165.985629 -95.205315 
L 166.781866 -96.453042 
L 167.578104 -97.287899 
L 168.374341 -97.49945 
L 169.170579 -96.993264 
L 169.966816 -95.82487 
L 170.763054 -94.201687 
L 171.559291 -92.440254 
L 172.355529 -90.887411 
L 173.151766 -89.829604 
L 173.948004 -89.415632 
L 174.744241 -89.610648 
L 175.540479 -90.195987 
L 176.336717 -90.825978 
L 177.132954 -91.139683 
L 177.929192 -90.89573 
L 178.725429 -90.072115 
L 179.521667 -88.877664 
L 180.317904 -87.666231 
L 181.114142 -86.797469 
L 181.910379 -86.508927 
L 182.706617 -86.840842 
L 183.502854 -87.622939 
L 184.299092 -88.51966 
L 185.095329 -89.128996 
L 185.891567 -89.113845 
L 186.687804 -88.320505 
L 187.484042 -86.836417 
L 188.280279 -84.964551 
L 189.076517 -83.127902 
L 189.872754 -81.741475 
L 190.668992 -81.093338 
L 191.46523 -81.27074 
L 192.261467 -82.154798 
L 193.057705 -83.483917 
L 193.853942 -84.955555 
L 194.65018 -86.316192 
L 195.446417 -87.401744 
L 196.242655 -88.127758 
L 197.038892 -88.459078 
L 197.83513 -88.389279 
L 198.631367 -87.939022 
L 199.427605 -87.162668 
L 200.223842 -86.152435 
L 201.02008 -85.035379 
L 201.816317 -83.964338 
L 202.612555 -83.100475 
L 203.408792 -82.588184 
L 204.20503 -82.532023 
L 205.001267 -82.986723 
L 205.797505 -83.959162 
L 206.593742 -85.407276 
L 207.38998 -87.229201 
L 208.186218 -89.25137 
L 208.982455 -91.236216 
L 209.778693 -92.918707 
L 210.57493 -94.057763 
L 211.371168 -94.481672 
L 212.167405 -94.122097 
L 212.963643 -93.045206 
L 213.75988 -91.473285 
L 214.556118 -89.768527 
L 215.352355 -88.351458 
L 216.148593 -87.564228 
L 216.94483 -87.53693 
L 217.741068 -88.12759 
L 218.537305 -88.969734 
L 219.333543 -89.606058 
L 220.12978 -89.648061 
L 220.926018 -88.905727 
L 221.722255 -87.452741 
L 222.518493 -85.611926 
L 223.31473 -83.859222 
L 224.110968 -82.667036 
L 224.907206 -82.338848 
L 225.703443 -82.902831 
L 226.499681 -84.10954 
L 227.295918 -85.525099 
L 228.092156 -86.668484 
L 228.888393 -87.138954 
L 229.684631 -86.705031 
L 230.480868 -85.346101 
L 231.277106 -83.238497 
L 232.073343 -80.680037 
L 232.869581 -77.973748 
L 233.665818 -75.325189 
L 234.462056 -72.805051 
L 235.258293 -70.381653 
L 236.054531 -67.982795 
L 236.850768 -65.546696 
L 237.647006 -63.053751 
L 238.443243 -60.548018 
L 239.239481 -58.14791 
L 240.035719 -56.029682 
L 240.831956 -54.381519 
L 241.628194 -53.352639 
L 242.424431 -53.025403 
L 243.220669 -53.413163 
L 244.016906 -54.463596 
L 244.813144 -56.054334 
L 245.609381 -57.990683 
L 246.405619 -60.022893 
L 247.201856 -61.885807 
L 247.998094 -63.347332 
L 248.794331 -64.251488 
L 249.590569 -64.548548 
L 250.386806 -64.306298 
L 251.183044 -63.694343 
L 251.979281 -62.940845 
L 252.775519 -62.272801 
L 253.571756 -61.857602 
L 254.367994 -61.761216 
L 255.164231 -61.935482 
L 255.960469 -62.244376 
L 256.756707 -62.526904 
L 257.552944 -62.669752 
L 258.349182 -62.650469 
L 259.145419 -62.532836 
L 259.941657 -62.430387 
L 260.737894 -62.465744 
L 261.534132 -62.73761 
L 262.330369 -63.292814 
L 263.126607 -64.106332 
L 263.922844 -65.085823 
L 264.719082 -66.112596 
L 265.515319 -67.098952 
L 266.311557 -68.021793 
L 267.107794 -68.911152 
L 267.904032 -69.810887 
L 268.700269 -70.744639 
L 269.496507 -71.705196 
L 270.292744 -72.66055 
L 271.088982 -73.564602 
L 271.88522 -74.371078 
L 272.681457 -75.059616 
L 273.477695 -75.670549 
L 274.273932 -76.325024 
L 275.07017 -77.204445 
L 275.866407 -78.483208 
L 276.662645 -80.237128 
L 277.458882 -82.367236 
L 278.25512 -84.577684 
L 279.051357 -86.429012 
L 279.847595 -87.459684 
L 280.643832 -87.338534 
L 281.44007 -85.991881 
L 282.236307 -83.652562 
L 283.032545 -80.804554 
L 283.828782 -78.037083 
L 284.62502 -75.85857 
L 285.421257 -74.538139 
L 286.217495 -74.030842 
L 287.013732 -74.009921 
L 287.80997 -73.992791 
L 288.606208 -73.519881 
L 289.402445 -72.327719 
L 290.198683 -70.455361 
L 290.99492 -68.238762 
L 291.791158 -66.18832 
L 292.587395 -64.796806 
L 293.383633 -64.360344 
L 294.17987 -64.886026 
L 294.976108 -66.1118 
L 295.772345 -67.615147 
L 296.568583 -68.961916 
L 297.36482 -69.844794 
L 298.161058 -70.16629 
L 298.957295 -70.038045 
L 299.753533 -69.701498 
L 300.54977 -69.411534 
L 301.346008 -69.339644 
L 302.142245 -69.534182 
L 302.938483 -69.938067 
L 303.73472 -70.439829 
L 304.530958 -70.928323 
L 305.327196 -71.327289 
L 306.123433 -71.597715 
L 306.919671 -71.714354 
L 307.715908 -71.640792 
L 308.512146 -71.329219 
L 309.308383 -70.750255 
L 310.104621 -69.932361 
L 310.900858 -68.980769 
L 311.697096 -68.060463 
L 312.493333 -67.347646 
L 313.289571 -66.964889 
L 314.085808 -66.922086 
L 314.882046 -67.089875 
L 315.678283 -67.231806 
L 316.474521 -67.093668 
L 317.270758 -66.51514 
L 318.066996 -65.513797 
L 318.863233 -64.305549 
L 319.659471 -63.252068 
L 320.455709 -62.745087 
L 321.251946 -63.053328 
L 322.048184 -64.180529 
L 322.844421 -65.80371 
L 323.640659 -67.344226 
L 324.436896 -68.161911 
L 325.233134 -67.793511 
L 326.029371 -66.131332 
L 326.825609 -63.472558 
L 327.621846 -60.432881 
L 328.418084 -57.761807 
L 329.214321 -56.118752 
L 330.010559 -55.875617 
L 330.806796 -57.008305 
L 331.603034 -59.115763 
L 332.399271 -61.559446 
L 333.195509 -63.669525 
L 333.991746 -64.941587 
L 334.787984 -65.158649 
L 335.584221 -64.405645 
L 336.380459 -62.985972 
L 337.176697 -61.285447 
L 337.972934 -59.642815 
L 338.769172 -58.272211 
L 339.565409 -57.250327 
L 340.361647 -56.554978 
L 341.157884 -56.128994 
L 341.954122 -55.942966 
L 342.750359 -56.029226 
L 343.546597 -56.466779 
L 344.342834 -57.320511 
L 345.139072 -58.568669 
L 345.935309 -60.06438 
L 346.731547 -61.554594 
L 347.527784 -62.747584 
L 348.324022 -63.396427 
L 349.120259 -63.370189 
L 349.916497 -62.695905 
L 350.712734 -61.560175 
L 351.508972 -60.26408 
L 352.30521 -59.138878 
L 353.101447 -58.452363 
L 353.897685 -58.341185 
L 354.693922 -58.792946 
L 355.49016 -59.675083 
L 356.286397 -60.788835 
L 357.082635 -61.925855 
L 357.878872 -62.914358 
L 358.67511 -63.649001 
L 359.471347 -64.100157 
L 360.267585 -64.299985 
L 361.063822 -64.313883 
L 361.86006 -64.215677 
L 362.656297 -64.083185 
L 363.452535 -64.013755 
L 364.248772 -64.139023 
L 365.04501 -64.611525 
L 365.841247 -65.552201 
L 366.637485 -66.976523 
L 367.433722 -68.739282 
L 368.22996 -70.532955 
L 369.026198 -71.95145 
L 369.822435 -72.603561 
L 370.618673 -72.240177 
L 371.41491 -70.85068 
L 372.211148 -68.689943 
L 373.007385 -66.221406 
L 373.803623 -63.990926 
L 374.59986 -62.472611 
L 375.396098 -61.937234 
L 376.192335 -62.383928 
L 376.988573 -63.55393 
L 377.78481 -65.020722 
L 378.581048 -66.327869 
L 379.377285 -67.128635 
L 380.173523 -67.276365 
L 380.96976 -66.832756 
L 381.765998 -65.997277 
L 382.562235 -64.997387 
L 383.358473 -63.993132 
L 384.15471 -63.034283 
L 384.950948 -62.076899 
L 385.747186 -61.041791 
L 386.543423 -59.88574 
L 387.339661 -58.65628 
L 388.135898 -57.507395 
L 388.932136 -56.667515 
L 389.728373 -56.370854 
L 390.524611 -56.780206 
L 391.320848 -57.932992 
L 392.117086 -59.729761 
L 392.913323 -61.964963 
L 393.709561 -64.38611 
L 394.505798 -66.760691 
L 395.302036 -68.928244 
L 396.098273 -70.81943 
L 396.894511 -72.439505 
L 397.690748 -73.833565 
L 398.486986 -75.058283 
L 399.283223 -76.174482 
L 400.079461 -77.254052 
L 400.875699 -78.381833 
L 401.671936 -79.637794 
L 402.468174 -81.059824 
L 403.264411 -82.605135 
L 404.060649 -84.133329 
L 404.856886 -85.428533 
L 405.653124 -86.262061 
L 406.449361 -86.476873 
L 407.245599 -86.060738 
L 408.041836 -85.176448 
L 408.838074 -84.133808 
L 409.634311 -83.309375 
L 410.430549 -83.037575 
L 411.226786 -83.505503 
L 412.023024 -84.689713 
L 412.819261 -86.364688 
L 413.615499 -88.186571 
L 413.615499 -134.673587 
L 413.615499 -134.673587 
L 412.819261 -132.849339 
L 412.023024 -131.217821 
L 411.226786 -130.094295 
L 410.430549 -129.693576 
L 409.634311 -130.037852 
L 408.838074 -130.929434 
L 408.041836 -132.00497 
L 407.245599 -132.852804 
L 406.449361 -133.144859 
L 405.653124 -132.730637 
L 404.856886 -131.660314 
L 404.060649 -130.138612 
L 403.264411 -128.43729 
L 402.468174 -126.803233 
L 401.671936 -125.392814 
L 400.875699 -124.247889 
L 400.079461 -123.310793 
L 399.283223 -122.462135 
L 398.486986 -121.562604 
L 397.690748 -120.485707 
L 396.894511 -119.138614 
L 396.098273 -117.471817 
L 395.302036 -115.481206 
L 394.505798 -113.209013 
L 393.709561 -110.750046 
L 392.913323 -108.261968 
L 392.117086 -105.964059 
L 391.320848 -104.106432 
L 390.524611 -102.908106 
L 389.728373 -102.485788 
L 388.932136 -102.806557 
L 388.135898 -103.689352 
L 387.339661 -104.85972 
L 386.543423 -106.039909 
L 385.747186 -107.040256 
L 384.950948 -107.813217 
L 384.15471 -108.44307 
L 383.358473 -109.072476 
L 382.562235 -109.800236 
L 381.765998 -110.602395 
L 380.96976 -111.317665 
L 380.173523 -111.704188 
L 379.377285 -111.543394 
L 378.581048 -110.749749 
L 377.78481 -109.444087 
L 376.988573 -107.957625 
L 376.192335 -106.753994 
L 375.396098 -106.286942 
L 374.59986 -106.842686 
L 373.803623 -108.428869 
L 373.007385 -110.757327 
L 372.211148 -113.328535 
L 371.41491 -115.583764 
L 370.618673 -117.067679 
L 369.822435 -117.546371 
L 369.026198 -117.047133 
L 368.22996 -115.816722 
L 367.433722 -114.221636 
L 366.637485 -112.632273 
L 365.841247 -111.330412 
L 365.04501 -110.461789 
L 364.248772 -110.03409 
L 363.452535 -109.947121 
L 362.656297 -110.040095 
L 361.86006 -110.142326 
L 361.063822 -110.115518 
L 360.267585 -109.87513 
L 359.471347 -109.386494 
L 358.67511 -108.646193 
L 357.878872 -107.669228 
L 357.082635 -106.496863 
L 356.286397 -105.220184 
L 355.49016 -103.995187 
L 354.693922 -103.026326 
L 353.897685 -102.514026 
L 353.101447 -102.585583 
L 352.30521 -103.239908 
L 351.508972 -104.329072 
L 350.712734 -105.58337 
L 349.916497 -106.673343 
L 349.120259 -107.294315 
L 348.324022 -107.253876 
L 347.527784 -106.531665 
L 346.731547 -105.283956 
L 345.935309 -103.785897 
L 345.139072 -102.33644 
L 344.342834 -101.169828 
L 343.546597 -100.407628 
L 342.750359 -100.059717 
L 341.954122 -100.060782 
L 341.157884 -100.32633 
L 340.361647 -100.808067 
L 339.565409 -101.522982 
L 338.769172 -102.533377 
L 337.972934 -103.878202 
L 337.176697 -105.489335 
L 336.380459 -107.143057 
L 335.584221 -108.483392 
L 334.787984 -109.118076 
L 333.991746 -108.75598 
L 333.195509 -107.336282 
L 332.399271 -105.098766 
L 331.603034 -102.559392 
L 330.806796 -100.386143 
L 330.010559 -99.20779 
L 329.214321 -99.415107 
L 328.418084 -101.02264 
L 327.621846 -103.644224 
L 326.825609 -106.601688 
L 326.029371 -109.138384 
L 325.233134 -110.66231 
L 324.436896 -110.924692 
L 323.640659 -110.067959 
L 322.844421 -108.541236 
L 322.048184 -106.932477 
L 321.251946 -105.780821 
L 320.455709 -105.419209 
L 319.659471 -105.886281 
L 318.863233 -106.938088 
L 318.066996 -108.163471 
L 317.270758 -109.159523 
L 316.474521 -109.687372 
L 315.678283 -109.739092 
L 314.882046 -109.50043 
L 314.085808 -109.245655 
L 313.289571 -109.21983 
L 312.493333 -109.553057 
L 311.697096 -110.23142 
L 310.900858 -111.128789 
L 310.104621 -112.076393 
L 309.308383 -112.931254 
L 308.512146 -113.607226 
L 307.715908 -114.063281 
L 306.919671 -114.274448 
L 306.123433 -114.215995 
L 305.327196 -113.872442 
L 304.530958 -113.262675 
L 303.73472 -112.465247 
L 302.938483 -111.626053 
L 302.142245 -110.933012 
L 301.346008 -110.554925 
L 300.54977 -110.565002 
L 299.753533 -110.88734 
L 298.957295 -111.299012 
L 298.161058 -111.494512 
L 297.36482 -111.194363 
L 296.568583 -110.263146 
L 295.772345 -108.794771 
L 294.976108 -107.123494 
L 294.17987 -105.738303 
L 293.383633 -105.11983 
L 292.587395 -105.56242 
L 291.791158 -107.057118 
L 290.99492 -109.284474 
L 290.198683 -111.717162 
L 289.402445 -113.795049 
L 288.606208 -115.116467 
L 287.80997 -115.582941 
L 287.013732 -115.441214 
L 286.217495 -115.19598 
L 285.421257 -115.418715 
L 284.62502 -116.525079 
L 283.828782 -118.610915 
L 283.032545 -121.40963 
L 282.236307 -124.381013 
L 281.44007 -126.889988 
L 280.643832 -128.40599 
L 279.847595 -128.65437 
L 279.051357 -127.674941 
L 278.25512 -125.77786 
L 277.458882 -123.42273 
L 276.662645 -121.069532 
L 275.866407 -119.053272 
L 275.07017 -117.51896 
L 274.273932 -116.427858 
L 273.477695 -115.620566 
L 272.681457 -114.905677 
L 271.88522 -114.139372 
L 271.088982 -113.269062 
L 270.292744 -112.328935 
L 269.496507 -111.392669 
L 268.700269 -110.50889 
L 267.904032 -109.659186 
L 267.107794 -108.768449 
L 266.311557 -107.7618 
L 265.515319 -106.625277 
L 264.719082 -105.427531 
L 263.922844 -104.291124 
L 263.126607 -103.339948 
L 262.330369 -102.656987 
L 261.534132 -102.263223 
L 260.737894 -102.110172 
L 259.941657 -102.087525 
L 259.145419 -102.056487 
L 258.349182 -101.906772 
L 257.552944 -101.608913 
L 256.756707 -101.227672 
L 255.960469 -100.888134 
L 255.164231 -100.719967 
L 254.367994 -100.813297 
L 253.571756 -101.196225 
L 252.775519 -101.825298 
L 251.979281 -102.585693 
L 251.183044 -103.307233 
L 250.386806 -103.79819 
L 249.590569 -103.887494 
L 248.794331 -103.462648 
L 247.998094 -102.494912 
L 247.201856 -101.047203 
L 246.405619 -99.261553 
L 245.609381 -97.330969 
L 244.813144 -95.468689 
L 244.016906 -93.885791 
L 243.220669 -92.774115 
L 242.424431 -92.284275 
L 241.628194 -92.49838 
L 240.831956 -93.412787 
L 240.035719 -94.944284 
L 239.239481 -96.953396 
L 238.443243 -99.268802 
L 237.647006 -101.710744 
L 236.850768 -104.126505 
L 236.054531 -106.437302 
L 235.258293 -108.666695 
L 234.462056 -110.918914 
L 233.665818 -113.307899 
L 232.869581 -115.878026 
L 232.073343 -118.557284 
L 231.277106 -121.153185 
L 230.480868 -123.38246 
L 229.684631 -124.933535 
L 228.888393 -125.565847 
L 228.092156 -125.223488 
L 227.295918 -124.105151 
L 226.499681 -122.637246 
L 225.703443 -121.347601 
L 224.907206 -120.693777 
L 224.110968 -120.919026 
L 223.31473 -121.984183 
L 222.518493 -123.587505 
L 221.722255 -125.262924 
L 220.926018 -126.53344 
L 220.12978 -127.07645 
L 219.333543 -126.838974 
L 218.537305 -126.049729 
L 217.741068 -125.121461 
L 216.94483 -124.492491 
L 216.148593 -124.479839 
L 215.352355 -125.192529 
L 214.556118 -126.516131 
L 213.75988 -128.154041 
L 212.963643 -129.710345 
L 212.167405 -130.800299 
L 211.371168 -131.161956 
L 210.57493 -130.726248 
L 209.778693 -129.611469 
L 208.982455 -128.047685 
L 208.186218 -126.280332 
L 207.38998 -124.507747 
L 206.593742 -122.873056 
L 205.797505 -121.486219 
L 205.001267 -120.441354 
L 204.20503 -119.814326 
L 203.408792 -119.64795 
L 202.612555 -119.939272 
L 201.816317 -120.633208 
L 201.02008 -121.624308 
L 200.223842 -122.767896 
L 199.427605 -123.901409 
L 198.631367 -124.868638 
L 197.83513 -125.534933 
L 197.038892 -125.791069 
L 196.242655 -125.556678 
L 195.446417 -124.797619 
L 194.65018 -123.553453 
L 193.853942 -121.957646 
L 193.057705 -120.233427 
L 192.261467 -118.664019 
L 191.46523 -117.546673 
L 190.668992 -117.135773 
L 189.872754 -117.575699 
L 189.076517 -118.83615 
L 188.280279 -120.680546 
L 187.484042 -122.699673 
L 186.687804 -124.416236 
L 185.891567 -125.428635 
L 185.095329 -125.541986 
L 184.299092 -124.838593 
L 183.502854 -123.659276 
L 182.706617 -122.492929 
L 181.910379 -121.804296 
L 181.114142 -121.863961 
L 180.317904 -122.656174 
L 179.521667 -123.907919 
L 178.725429 -125.217502 
L 177.929192 -126.212873 
L 177.132954 -126.674714 
L 176.336717 -126.593406 
L 175.540479 -126.15893 
L 174.744241 -125.691753 
L 173.948004 -125.530104 
L 173.151766 -125.906747 
L 172.355529 -126.862862 
L 171.559291 -128.236138 
L 170.763054 -129.72481 
L 169.966816 -130.991649 
L 169.170579 -131.761577 
L 168.374341 -131.883189 
L 167.578104 -131.349433 
L 166.781866 -130.286033 
L 165.985629 -128.916896 
L 165.189391 -127.515604 
L 164.393154 -126.355293 
L 163.596916 -125.670036 
L 162.800679 -125.628928 
L 162.004441 -126.31197 
L 161.208204 -127.680068 
L 160.411966 -129.55167 
L 159.615729 -131.61298 
L 158.819491 -133.476903 
L 158.023253 -134.774388 
L 157.227016 -135.242258 
L 156.430778 -134.778702 
L 155.634541 -133.458858 
L 154.838303 -131.513077 
L 154.042066 -129.267055 
L 153.245828 -127.047367 
L 152.449591 -125.078509 
L 151.653353 -123.415413 
L 150.857116 -121.944308 
L 150.060878 -120.447713 
L 149.264641 -118.701877 
L 148.468403 -116.570311 
L 147.672166 -114.065299 
L 146.875928 -111.358019 
L 146.079691 -108.730836 
L 145.283453 -106.487104 
L 144.487216 -104.853229 
L 143.690978 -103.908935 
L 142.89474 -103.565805 
L 142.098503 -103.597881 
L 141.302265 -103.718502 
L 140.506028 -103.684876 
L 139.70979 -103.392649 
L 138.913553 -102.917185 
L 138.117315 -102.481668 
L 137.321078 -102.370322 
L 136.52484 -102.824152 
L 135.728603 -103.950185 
L 134.932365 -105.663457 
L 134.136128 -107.680655 
L 133.33989 -109.584 
L 132.543653 -110.950797 
L 131.747415 -111.499839 
L 130.951178 -111.187145 
L 130.15494 -110.213319 
L 129.358703 -108.953831 
L 128.562465 -107.848326 
L 127.766228 -107.281945 
L 126.96999 -107.48559 
L 126.173752 -108.482908 
L 125.377515 -110.100609 
L 124.581277 -112.038516 
L 123.78504 -113.971191 
L 122.988802 -115.643975 
L 122.192565 -116.931938 
L 121.396327 -117.843155 
L 120.60009 -118.46764 
L 119.803852 -118.901227 
L 119.007615 -119.189804 
L 118.211377 -119.327784 
L 117.41514 -119.300442 
L 116.618902 -119.128297 
L 115.822665 -118.87875 
L 115.026427 -118.641964 
L 114.23019 -118.492699 
L 113.433952 -118.460351 
L 112.637715 -118.518206 
L 111.841477 -118.594794 
L 111.04524 -118.602664 
L 110.249002 -118.470063 
L 109.452764 -118.159805 
L 108.656527 -117.674935 
L 107.860289 -117.062688 
L 107.064052 -116.414154 
L 106.267814 -115.843484 
L 105.471577 -115.441106 
L 104.675339 -115.226882 
L 103.879102 -115.140644 
L 103.082864 -115.082524 
L 102.286627 -114.973759 
L 101.490389 -114.794155 
L 100.694152 -114.579874 
L 99.897914 -114.398664 
L 99.101677 -114.316065 
L 98.305439 -114.35347 
L 97.509202 -114.446187 
L 96.712964 -114.432148 
L 95.916727 -114.1026 
L 95.120489 -113.309459 
L 94.324251 -112.076691 
L 93.528014 -110.649509 
L 92.731776 -109.451085 
L 91.935539 -108.960279 
L 91.139301 -109.551138 
L 90.343064 -111.343858 
L 89.546826 -114.118859 
L 88.750589 -117.336057 
L 87.954351 -120.267505 
L 87.158114 -122.206301 
L 86.361876 -122.680689 
L 85.565639 -121.602526 
L 84.769401 -119.301859 
L 83.973164 -116.434578 
L 83.176926 -113.790227 
L 82.380689 -112.064304 
L 81.584451 -111.67314 
L 80.788214 -112.663375 
L 79.991976 -114.723634 
L 79.195739 -117.280196 
L 78.399501 -119.659359 
L 77.603263 -121.289889 
L 76.807026 -121.881122 
L 76.010788 -121.494187 
L 75.214551 -120.467248 
L 74.418313 -119.241482 
L 73.622076 -118.196481 
L 72.825838 -117.573572 
L 72.029601 -117.468775 
L 71.233363 -117.841646 
L 70.437126 -118.528571 
L 69.640888 -119.286121 
L 68.844651 -119.872747 
L 68.048413 -120.13104 
L 67.252176 -120.026825 
L 66.455938 -119.642255 
L 65.659701 -119.148933 
L 64.863463 -118.775178 
L 64.067226 -118.758735 
L 63.270988 -119.284555 
L 62.47475 -120.432887 
L 61.678513 -122.159262 
L 60.882275 -124.300793 
L 60.086038 -126.58974 
L 59.2898 -128.675216 
L 58.493563 -130.182713 
L 57.697325 -130.829592 
L 56.901088 -130.553423 
L 56.10485 -129.573842 
L 55.308613 -128.344457 
L 54.512375 -127.412536 
L 53.716138 -127.244548 
L 52.9199 -128.081221 
L 52.123663 -129.866404 
L 51.327425 -132.266837 
L 50.531188 -134.774654 
L 49.73495 -136.860084 
L 48.938713 -138.126148 
L 48.142475 -138.414716 
L 47.346238 -137.830642 
L 46.55 -136.679841 
z
" style="stroke: #377eb8; stroke-opacity: 0.3"/>
    </defs>
    <g clip-path="url(#p7e84d7aac8)">
     <use xlink:href="#m5a1bc9553a" x="0" y="360" style="fill: #377eb8; fill-opacity: 0.3; stroke: #377eb8; stroke-opacity: 0.3"/>
    </g>
   </g>
   <g id="patch_3">
    <path d="M 229.843878 318.2 
L 229.843878 71.241125 
L 331.762281 71.241125 
L 331.762281 318.2 
z
" clip-path="url(#p7e84d7aac8)" style="fill: #808080; opacity: 0.3"/>
   </g>
   <g id="matplotlib.axis_1">
    <g id="xtick_1">
     <g id="line2d_1">
      <defs>
       <path id="mdac3e4bd13" d="M 0 0 
L 0 3.5 
" style="stroke: #000000; stroke-width: 0.8"/>
      </defs>
      <g>
       <use xlink:href="#mdac3e4bd13" x="87.158114" y="318.2" style="stroke: #000000; stroke-width: 0.8"/>
      </g>
     </g>
     <g id="text_1">
      <!-- 0.0 -->
      <g transform="translate(79.206551 332.798437)scale(0.1 -0.1)">
       <defs>
        <path id="DejaVuSans-30" d="M 2034 4250 
Q 1547 4250 1301 3770 
Q 1056 3291 1056 2328 
Q 1056 1369 1301 889 
Q 1547 409 2034 409 
Q 2525 409 2770 889 
Q 3016 1369 3016 2328 
Q 3016 3291 2770 3770 
Q 2525 4250 2034 4250 
z
M 2034 4750 
Q 2819 4750 3233 4129 
Q 3647 3509 3647 2328 
Q 3647 1150 3233 529 
Q 2819 -91 2034 -91 
Q 1250 -91 836 529 
Q 422 1150 422 2328 
Q 422 3509 836 4129 
Q 1250 4750 2034 4750 
z
" transform="scale(0.015625)"/>
        <path id="DejaVuSans-2e" d="M 684 794 
L 1344 794 
L 1344 0 
L 684 0 
L 684 794 
z
" transform="scale(0.015625)"/>
       </defs>
       <use xlink:href="#DejaVuSans-30"/>
       <use xlink:href="#DejaVuSans-2e" x="63.623047"/>
       <use xlink:href="#DejaVuSans-30" x="95.410156"/>
      </g>
     </g>
    </g>
    <g id="xtick_2">
     <g id="line2d_2">
      <g>
       <use xlink:href="#mdac3e4bd13" x="168.692836" y="318.2" style="stroke: #000000; stroke-width: 0.8"/>
      </g>
     </g>
     <g id="text_2">
      <!-- 0.2 -->
      <g transform="translate(160.741274 332.798437)scale(0.1 -0.1)">
       <defs>
        <path id="DejaVuSans-32" d="M 1228 531 
L 3431 531 
L 3431 0 
L 469 0 
L 469 531 
Q 828 903 1448 1529 
Q 2069 2156 2228 2338 
Q 2531 2678 2651 2914 
Q 2772 3150 2772 3378 
Q 2772 3750 2511 3984 
Q 2250 4219 1831 4219 
Q 1534 4219 1204 4116 
Q 875 4013 500 3803 
L 500 4441 
Q 881 4594 1212 4672 
Q 1544 4750 1819 4750 
Q 2544 4750 2975 4387 
Q 3406 4025 3406 3419 
Q 3406 3131 3298 2873 
Q 3191 2616 2906 2266 
Q 2828 2175 2409 1742 
Q 1991 1309 1228 531 
z
" transform="scale(0.015625)"/>
       </defs>
       <use xlink:href="#DejaVuSans-30"/>
       <use xlink:href="#DejaVuSans-2e" x="63.623047"/>
       <use xlink:href="#DejaVuSans-32" x="95.410156"/>
      </g>
     </g>
    </g>
    <g id="xtick_3">
     <g id="line2d_3">
      <g>
       <use xlink:href="#mdac3e4bd13" x="250.227559" y="318.2" style="stroke: #000000; stroke-width: 0.8"/>
      </g>
     </g>
     <g id="text_3">
      <!-- 0.4 -->
      <g transform="translate(242.275996 332.798437)scale(0.1 -0.1)">
       <defs>
        <path id="DejaVuSans-34" d="M 2419 4116 
L 825 1625 
L 2419 1625 
L 2419 4116 
z
M 2253 4666 
L 3047 4666 
L 3047 1625 
L 3713 1625 
L 3713 1100 
L 3047 1100 
L 3047 0 
L 2419 0 
L 2419 1100 
L 313 1100 
L 313 1709 
L 2253 4666 
z
" transform="scale(0.015625)"/>
       </defs>
       <use xlink:href="#DejaVuSans-30"/>
       <use xlink:href="#DejaVuSans-2e" x="63.623047"/>
       <use xlink:href="#DejaVuSans-34" x="95.410156"/>
      </g>
     </g>
    </g>
    <g id="xtick_4">
     <g id="line2d_4">
      <g>
       <use xlink:href="#mdac3e4bd13" x="331.762281" y="318.2" style="stroke: #000000; stroke-width: 0.8"/>
      </g>
     </g>
     <g id="text_4">
      <!-- 0.6 -->
      <g transform="translate(323.810719 332.798437)scale(0.1 -0.1)">
       <defs>
        <path id="DejaVuSans-36" d="M 2113 2584 
Q 1688 2584 1439 2293 
Q 1191 2003 1191 1497 
Q 1191 994 1439 701 
Q 1688 409 2113 409 
Q 2538 409 2786 701 
Q 3034 994 3034 1497 
Q 3034 2003 2786 2293 
Q 2538 2584 2113 2584 
z
M 3366 4563 
L 3366 3988 
Q 3128 4100 2886 4159 
Q 2644 4219 2406 4219 
Q 1781 4219 1451 3797 
Q 1122 3375 1075 2522 
Q 1259 2794 1537 2939 
Q 1816 3084 2150 3084 
Q 2853 3084 3261 2657 
Q 3669 2231 3669 1497 
Q 3669 778 3244 343 
Q 2819 -91 2113 -91 
Q 1303 -91 875 529 
Q 447 1150 447 2328 
Q 447 3434 972 4092 
Q 1497 4750 2381 4750 
Q 2619 4750 2861 4703 
Q 3103 4656 3366 4563 
z
" transform="scale(0.015625)"/>
       </defs>
       <use xlink:href="#DejaVuSans-30"/>
       <use xlink:href="#DejaVuSans-2e" x="63.623047"/>
       <use xlink:href="#DejaVuSans-36" x="95.410156"/>
      </g>
     </g>
    </g>
    <g id="xtick_5">
     <g id="line2d_5">
      <g>
       <use xlink:href="#mdac3e4bd13" x="413.297004" y="318.2" style="stroke: #000000; stroke-width: 0.8"/>
      </g>
     </g>
     <g id="text_5">
      <!-- 0.8 -->
      <g transform="translate(405.345441 332.798437)scale(0.1 -0.1)">
       <defs>
        <path id="DejaVuSans-38" d="M 2034 2216 
Q 1584 2216 1326 1975 
Q 1069 1734 1069 1313 
Q 1069 891 1326 650 
Q 1584 409 2034 409 
Q 2484 409 2743 651 
Q 3003 894 3003 1313 
Q 3003 1734 2745 1975 
Q 2488 2216 2034 2216 
z
M 1403 2484 
Q 997 2584 770 2862 
Q 544 3141 544 3541 
Q 544 4100 942 4425 
Q 1341 4750 2034 4750 
Q 2731 4750 3128 4425 
Q 3525 4100 3525 3541 
Q 3525 3141 3298 2862 
Q 3072 2584 2669 2484 
Q 3125 2378 3379 2068 
Q 3634 1759 3634 1313 
Q 3634 634 3220 271 
Q 2806 -91 2034 -91 
Q 1263 -91 848 271 
Q 434 634 434 1313 
Q 434 1759 690 2068 
Q 947 2378 1403 2484 
z
M 1172 3481 
Q 1172 3119 1398 2916 
Q 1625 2713 2034 2713 
Q 2441 2713 2670 2916 
Q 2900 3119 2900 3481 
Q 2900 3844 2670 4047 
Q 2441 4250 2034 4250 
Q 1625 4250 1398 4047 
Q 1172 3844 1172 3481 
z
" transform="scale(0.015625)"/>
       </defs>
       <use xlink:href="#DejaVuSans-30"/>
       <use xlink:href="#DejaVuSans-2e" x="63.623047"/>
       <use xlink:href="#DejaVuSans-38" x="95.410156"/>
      </g>
     </g>
    </g>
    <g id="text_6">
     <!-- seconds -->
     <g transform="translate(209.645249 346.476562)scale(0.1 -0.1)">
      <defs>
       <path id="DejaVuSans-73" d="M 2834 3397 
L 2834 2853 
Q 2591 2978 2328 3040 
Q 2066 3103 1784 3103 
Q 1356 3103 1142 2972 
Q 928 2841 928 2578 
Q 928 2378 1081 2264 
Q 1234 2150 1697 2047 
L 1894 2003 
Q 2506 1872 2764 1633 
Q 3022 1394 3022 966 
Q 3022 478 2636 193 
Q 2250 -91 1575 -91 
Q 1294 -91 989 -36 
Q 684 19 347 128 
L 347 722 
Q 666 556 975 473 
Q 1284 391 1588 391 
Q 1994 391 2212 530 
Q 2431 669 2431 922 
Q 2431 1156 2273 1281 
Q 2116 1406 1581 1522 
L 1381 1569 
Q 847 1681 609 1914 
Q 372 2147 372 2553 
Q 372 3047 722 3315 
Q 1072 3584 1716 3584 
Q 2034 3584 2315 3537 
Q 2597 3491 2834 3397 
z
" transform="scale(0.015625)"/>
       <path id="DejaVuSans-65" d="M 3597 1894 
L 3597 1613 
L 953 1613 
Q 991 1019 1311 708 
Q 1631 397 2203 397 
Q 2534 397 2845 478 
Q 3156 559 3463 722 
L 3463 178 
Q 3153 47 2828 -22 
Q 2503 -91 2169 -91 
Q 1331 -91 842 396 
Q 353 884 353 1716 
Q 353 2575 817 3079 
Q 1281 3584 2069 3584 
Q 2775 3584 3186 3129 
Q 3597 2675 3597 1894 
z
M 3022 2063 
Q 3016 2534 2758 2815 
Q 2500 3097 2075 3097 
Q 1594 3097 1305 2825 
Q 1016 2553 972 2059 
L 3022 2063 
z
" transform="scale(0.015625)"/>
       <path id="DejaVuSans-63" d="M 3122 3366 
L 3122 2828 
Q 2878 2963 2633 3030 
Q 2388 3097 2138 3097 
Q 1578 3097 1268 2742 
Q 959 2388 959 1747 
Q 959 1106 1268 751 
Q 1578 397 2138 397 
Q 2388 397 2633 464 
Q 2878 531 3122 666 
L 3122 134 
Q 2881 22 2623 -34 
Q 2366 -91 2075 -91 
Q 1284 -91 818 406 
Q 353 903 353 1747 
Q 353 2603 823 3093 
Q 1294 3584 2113 3584 
Q 2378 3584 2631 3529 
Q 2884 3475 3122 3366 
z
" transform="scale(0.015625)"/>
       <path id="DejaVuSans-6f" d="M 1959 3097 
Q 1497 3097 1228 2736 
Q 959 2375 959 1747 
Q 959 1119 1226 758 
Q 1494 397 1959 397 
Q 2419 397 2687 759 
Q 2956 1122 2956 1747 
Q 2956 2369 2687 2733 
Q 2419 3097 1959 3097 
z
M 1959 3584 
Q 2709 3584 3137 3096 
Q 3566 2609 3566 1747 
Q 3566 888 3137 398 
Q 2709 -91 1959 -91 
Q 1206 -91 779 398 
Q 353 888 353 1747 
Q 353 2609 779 3096 
Q 1206 3584 1959 3584 
z
" transform="scale(0.015625)"/>
       <path id="DejaVuSans-6e" d="M 3513 2113 
L 3513 0 
L 2938 0 
L 2938 2094 
Q 2938 2591 2744 2837 
Q 2550 3084 2163 3084 
Q 1697 3084 1428 2787 
Q 1159 2491 1159 1978 
L 1159 0 
L 581 0 
L 581 3500 
L 1159 3500 
L 1159 2956 
Q 1366 3272 1645 3428 
Q 1925 3584 2291 3584 
Q 2894 3584 3203 3211 
Q 3513 2838 3513 2113 
z
" transform="scale(0.015625)"/>
       <path id="DejaVuSans-64" d="M 2906 2969 
L 2906 4863 
L 3481 4863 
L 3481 0 
L 2906 0 
L 2906 525 
Q 2725 213 2448 61 
Q 2172 -91 1784 -91 
Q 1150 -91 751 415 
Q 353 922 353 1747 
Q 353 2572 751 3078 
Q 1150 3584 1784 3584 
Q 2172 3584 2448 3432 
Q 2725 3281 2906 2969 
z
M 947 1747 
Q 947 1113 1208 752 
Q 1469 391 1925 391 
Q 2381 391 2643 752 
Q 2906 1113 2906 1747 
Q 2906 2381 2643 2742 
Q 2381 3103 1925 3103 
Q 1469 3103 1208 2742 
Q 947 2381 947 1747 
z
" transform="scale(0.015625)"/>
      </defs>
      <use xlink:href="#DejaVuSans-73"/>
      <use xlink:href="#DejaVuSans-65" x="52.099609"/>
      <use xlink:href="#DejaVuSans-63" x="113.623047"/>
      <use xlink:href="#DejaVuSans-6f" x="168.603516"/>
      <use xlink:href="#DejaVuSans-6e" x="229.785156"/>
      <use xlink:href="#DejaVuSans-64" x="293.164062"/>
      <use xlink:href="#DejaVuSans-73" x="356.640625"/>
     </g>
    </g>
   </g>
   <g id="matplotlib.axis_2">
    <g id="ytick_1">
     <g id="line2d_6">
      <defs>
       <path id="m4797dd7ab6" d="M 0 0 
L -3.5 0 
" style="stroke: #000000; stroke-width: 0.8"/>
      </defs>
      <g>
       <use xlink:href="#m4797dd7ab6" x="46.55" y="311.660683" style="stroke: #000000; stroke-width: 0.8"/>
      </g>
     </g>
     <g id="text_7">
      <!-- 2 -->
      <g transform="translate(24.807812 315.459902)scale(0.1 -0.1)">
       <defs>
        <path id="DejaVuSans-2212" d="M 678 2272 
L 4684 2272 
L 4684 1741 
L 678 1741 
L 678 2272 
z
" transform="scale(0.015625)"/>
       </defs>
       <use xlink:href="#DejaVuSans-2212"/>
       <use xlink:href="#DejaVuSans-32" x="83.789062"/>
      </g>
     </g>
    </g>
    <g id="ytick_2">
     <g id="line2d_7">
      <g>
       <use xlink:href="#m4797dd7ab6" x="46.55" y="278.783401" style="stroke: #000000; stroke-width: 0.8"/>
      </g>
     </g>
     <g id="text_8">
      <!-- 1 -->
      <g transform="translate(24.807812 282.582619)scale(0.1 -0.1)">
       <defs>
        <path id="DejaVuSans-31" d="M 794 531 
L 1825 531 
L 1825 4091 
L 703 3866 
L 703 4441 
L 1819 4666 
L 2450 4666 
L 2450 531 
L 3481 531 
L 3481 0 
L 794 0 
L 794 531 
z
" transform="scale(0.015625)"/>
       </defs>
       <use xlink:href="#DejaVuSans-2212"/>
       <use xlink:href="#DejaVuSans-31" x="83.789062"/>
      </g>
     </g>
    </g>
    <g id="ytick_3">
     <g id="line2d_8">
      <g>
       <use xlink:href="#m4797dd7ab6" x="46.55" y="245.906118" style="stroke: #000000; stroke-width: 0.8"/>
      </g>
     </g>
     <g id="text_9">
      <!-- 0 -->
      <g transform="translate(33.1875 249.705337)scale(0.1 -0.1)">
       <use xlink:href="#DejaVuSans-30"/>
      </g>
     </g>
    </g>
    <g id="ytick_4">
     <g id="line2d_9">
      <g>
       <use xlink:href="#m4797dd7ab6" x="46.55" y="213.028836" style="stroke: #000000; stroke-width: 0.8"/>
      </g>
     </g>
     <g id="text_10">
      <!-- 1 -->
      <g transform="translate(33.1875 216.828054)scale(0.1 -0.1)">
       <use xlink:href="#DejaVuSans-31"/>
      </g>
     </g>
    </g>
    <g id="ytick_5">
     <g id="line2d_10">
      <g>
       <use xlink:href="#m4797dd7ab6" x="46.55" y="180.151553" style="stroke: #000000; stroke-width: 0.8"/>
      </g>
     </g>
     <g id="text_11">
      <!-- 2 -->
      <g transform="translate(33.1875 183.950772)scale(0.1 -0.1)">
       <use xlink:href="#DejaVuSans-32"/>
      </g>
     </g>
    </g>
    <g id="ytick_6">
     <g id="line2d_11">
      <g>
       <use xlink:href="#m4797dd7ab6" x="46.55" y="147.274271" style="stroke: #000000; stroke-width: 0.8"/>
      </g>
     </g>
     <g id="text_12">
      <!-- 3 -->
      <g transform="translate(33.1875 151.07349)scale(0.1 -0.1)">
       <defs>
        <path id="DejaVuSans-33" d="M 2597 2516 
Q 3050 2419 3304 2112 
Q 3559 1806 3559 1356 
Q 3559 666 3084 287 
Q 2609 -91 1734 -91 
Q 1441 -91 1130 -33 
Q 819 25 488 141 
L 488 750 
Q 750 597 1062 519 
Q 1375 441 1716 441 
Q 2309 441 2620 675 
Q 2931 909 2931 1356 
Q 2931 1769 2642 2001 
Q 2353 2234 1838 2234 
L 1294 2234 
L 1294 2753 
L 1863 2753 
Q 2328 2753 2575 2939 
Q 2822 3125 2822 3475 
Q 2822 3834 2567 4026 
Q 2313 4219 1838 4219 
Q 1578 4219 1281 4162 
Q 984 4106 628 3988 
L 628 4550 
Q 988 4650 1302 4700 
Q 1616 4750 1894 4750 
Q 2613 4750 3031 4423 
Q 3450 4097 3450 3541 
Q 3450 3153 3228 2886 
Q 3006 2619 2597 2516 
z
" transform="scale(0.015625)"/>
       </defs>
       <use xlink:href="#DejaVuSans-33"/>
      </g>
     </g>
    </g>
    <g id="ytick_7">
     <g id="line2d_12">
      <g>
       <use xlink:href="#m4797dd7ab6" x="46.55" y="114.396988" style="stroke: #000000; stroke-width: 0.8"/>
      </g>
     </g>
     <g id="text_13">
      <!-- 4 -->
      <g transform="translate(33.1875 118.196207)scale(0.1 -0.1)">
       <use xlink:href="#DejaVuSans-34"/>
      </g>
     </g>
    </g>
    <g id="ytick_8">
     <g id="line2d_13">
      <g>
       <use xlink:href="#m4797dd7ab6" x="46.55" y="81.519706" style="stroke: #000000; stroke-width: 0.8"/>
      </g>
     </g>
     <g id="text_14">
      <!-- 5 -->
      <g transform="translate(33.1875 85.318925)scale(0.1 -0.1)">
       <defs>
        <path id="DejaVuSans-35" d="M 691 4666 
L 3169 4666 
L 3169 4134 
L 1269 4134 
L 1269 2991 
Q 1406 3038 1543 3061 
Q 1681 3084 1819 3084 
Q 2600 3084 3056 2656 
Q 3513 2228 3513 1497 
Q 3513 744 3044 326 
Q 2575 -91 1722 -91 
Q 1428 -91 1123 -41 
Q 819 9 494 109 
L 494 744 
Q 775 591 1075 516 
Q 1375 441 1709 441 
Q 2250 441 2565 725 
Q 2881 1009 2881 1497 
Q 2881 1984 2565 2268 
Q 2250 2553 1709 2553 
Q 1456 2553 1204 2497 
Q 953 2441 691 2322 
L 691 4666 
z
" transform="scale(0.015625)"/>
       </defs>
       <use xlink:href="#DejaVuSans-35"/>
      </g>
     </g>
    </g>
    <g id="text_15">
     <!-- V -->
     <g transform="translate(18.728125 201.322125)rotate(-90)scale(0.1 -0.1)">
      <defs>
       <path id="DejaVuSans-b5" d="M 544 -1331 
L 544 3500 
L 1119 3500 
L 1119 1325 
Q 1119 872 1334 640 
Q 1550 409 1972 409 
Q 2434 409 2667 671 
Q 2900 934 2900 1459 
L 2900 3500 
L 3475 3500 
L 3475 806 
Q 3475 619 3529 530 
Q 3584 441 3700 441 
Q 3728 441 3778 458 
Q 3828 475 3916 513 
L 3916 50 
Q 3788 -22 3673 -56 
Q 3559 -91 3450 -91 
Q 3234 -91 3106 31 
Q 2978 153 2931 403 
Q 2775 156 2548 32 
Q 2322 -91 2016 -91 
Q 1697 -91 1473 31 
Q 1250 153 1119 397 
L 1119 -1331 
L 544 -1331 
z
" transform="scale(0.015625)"/>
       <path id="DejaVuSans-56" d="M 1831 0 
L 50 4666 
L 709 4666 
L 2188 738 
L 3669 4666 
L 4325 4666 
L 2547 0 
L 1831 0 
z
" transform="scale(0.015625)"/>
      </defs>
      <use xlink:href="#DejaVuSans-b5"/>
      <use xlink:href="#DejaVuSans-56" x="63.623047"/>
     </g>
    </g>
   </g>
   <g id="line2d_14">
    <path d="M 46.55 253.893486 
L 47.346238 252.450773 
L 48.938713 248.460222 
L 50.531188 244.373699 
L 51.327425 242.624585 
L 52.123663 241.240263 
L 52.9199 240.338726 
L 53.716138 239.971041 
L 54.512375 240.066183 
L 56.10485 240.724292 
L 56.901088 240.707813 
L 57.697325 240.216251 
L 60.086038 237.466065 
L 60.882275 237.270883 
L 61.678513 237.841862 
L 62.47475 239.058941 
L 63.270988 240.53619 
L 64.067226 241.749287 
L 64.863463 242.228044 
L 65.659701 241.740353 
L 66.455938 240.395813 
L 68.048413 237.046551 
L 68.844651 236.255634 
L 69.640888 236.637952 
L 70.437126 238.250112 
L 71.233363 240.82215 
L 72.825838 246.862773 
L 73.622076 249.401142 
L 74.418313 251.305396 
L 75.214551 252.62475 
L 76.807026 254.314097 
L 78.399501 255.721905 
L 79.195739 256.250321 
L 79.991976 256.464212 
L 80.788214 256.256882 
L 81.584451 255.640291 
L 83.973164 253.143293 
L 84.769401 252.802979 
L 85.565639 252.840095 
L 87.158114 253.408366 
L 87.954351 253.45388 
L 88.750589 253.081053 
L 89.546826 252.255873 
L 91.935539 248.881279 
L 92.731776 248.348353 
L 93.528014 248.384201 
L 94.324251 248.904781 
L 95.916727 250.299136 
L 96.712964 250.516899 
L 97.509202 250.147102 
L 98.305439 249.254915 
L 99.101677 248.138157 
L 99.897914 247.245875 
L 100.694152 247.031872 
L 101.490389 247.789885 
L 102.286627 249.527944 
L 103.879102 254.423854 
L 104.675339 256.341238 
L 105.471577 257.114368 
L 106.267814 256.446574 
L 107.064052 254.394472 
L 108.656527 247.858035 
L 109.452764 244.564215 
L 110.249002 241.946146 
L 111.04524 240.284442 
L 111.841477 239.645698 
L 112.637715 239.939362 
L 113.433952 240.994167 
L 114.23019 242.612162 
L 116.618902 248.517282 
L 117.41514 249.84608 
L 118.211377 250.338911 
L 119.007615 249.847714 
L 119.803852 248.46922 
L 121.396327 244.724187 
L 122.192565 243.519549 
L 122.988802 243.37536 
L 123.78504 244.36408 
L 126.173752 249.619689 
L 126.96999 250.04314 
L 127.766228 249.256431 
L 128.562465 247.515504 
L 130.15494 243.515122 
L 130.951178 242.392744 
L 131.747415 242.182756 
L 132.543653 242.710149 
L 134.136128 244.449732 
L 136.52484 246.465527 
L 137.321078 247.846823 
L 138.117315 249.974188 
L 139.70979 255.366063 
L 140.506028 257.349592 
L 141.302265 257.921224 
L 142.098503 256.69304 
L 142.89474 253.728412 
L 146.079691 237.199316 
L 146.875928 234.979903 
L 147.672166 233.777232 
L 148.468403 233.209956 
L 149.264641 232.826439 
L 150.060878 232.257804 
L 150.857116 231.297432 
L 151.653353 229.896726 
L 152.449591 228.107073 
L 154.042066 223.716635 
L 155.634541 219.045266 
L 156.430778 217.129518 
L 157.227016 215.905006 
L 158.023253 215.64987 
L 158.819491 216.481255 
L 159.615729 218.266598 
L 161.208204 222.969332 
L 162.004441 224.771333 
L 162.800679 225.639609 
L 163.596916 225.483041 
L 164.393154 224.498551 
L 165.985629 221.474411 
L 167.578104 218.200603 
L 168.374341 215.969576 
L 169.170579 212.773173 
L 169.966816 208.331412 
L 171.559291 196.354674 
L 172.355529 190.054837 
L 173.151766 184.685834 
L 173.948004 180.984447 
L 174.744241 179.342003 
L 175.540479 179.717918 
L 176.336717 181.68766 
L 178.725429 190.48025 
L 179.521667 192.449141 
L 180.317904 193.420206 
L 181.114142 193.355875 
L 181.910379 192.35723 
L 182.706617 190.653009 
L 184.299092 186.712534 
L 185.095329 185.539379 
L 185.891567 185.615407 
L 186.687804 187.267669 
L 187.484042 190.478308 
L 189.872754 203.724652 
L 190.668992 206.597312 
L 191.46523 207.74938 
L 192.261467 207.267735 
L 193.057705 205.685317 
L 193.853942 203.770557 
L 194.65018 202.236308 
L 195.446417 201.48612 
L 196.242655 201.501021 
L 197.83513 202.213073 
L 198.631367 202.041637 
L 199.427605 201.356565 
L 200.223842 200.471939 
L 201.02008 199.900851 
L 201.816317 200.086578 
L 202.612555 201.142218 
L 204.20503 204.109807 
L 205.001267 204.465141 
L 205.797505 203.191855 
L 206.593742 200.213893 
L 208.186218 191.77353 
L 208.982455 188.44879 
L 209.778693 186.939386 
L 210.57493 187.487321 
L 211.371168 189.646949 
L 212.167405 192.458336 
L 212.963643 194.811147 
L 213.75988 195.855095 
L 214.556118 195.293833 
L 215.352355 193.451226 
L 216.148593 191.093898 
L 216.94483 189.091469 
L 217.741068 188.057526 
L 218.537305 188.116282 
L 220.12978 189.652875 
L 220.926018 189.715215 
L 221.722255 188.644841 
L 222.518493 186.460837 
L 224.907206 178.226748 
L 225.703443 176.55341 
L 226.499681 175.517767 
L 227.295918 174.703701 
L 228.092156 173.608207 
L 228.888393 171.876649 
L 229.684631 169.4616 
L 231.277106 163.886206 
L 232.073343 161.670142 
L 232.869581 160.263382 
L 233.665818 159.648715 
L 234.462056 159.563981 
L 236.054531 159.677697 
L 236.850768 159.611035 
L 237.647006 159.693513 
L 238.443243 160.293509 
L 239.239481 161.70976 
L 240.035719 163.976976 
L 241.628194 169.4594 
L 242.424431 171.30797 
L 243.220669 171.740285 
L 244.016906 170.578977 
L 244.813144 168.150794 
L 245.609381 165.210989 
L 246.405619 162.703304 
L 247.201856 161.439796 
L 247.998094 161.818529 
L 248.794331 163.685123 
L 250.386806 169.017327 
L 251.183044 170.703293 
L 251.979281 170.917885 
L 252.775519 169.615455 
L 253.571756 167.200234 
L 255.164231 161.654841 
L 255.960469 159.564769 
L 256.756707 158.097995 
L 258.349182 155.804462 
L 259.145419 154.241504 
L 260.737894 149.922784 
L 261.534132 147.776479 
L 262.330369 146.182552 
L 263.126607 145.367963 
L 263.922844 145.26613 
L 264.719082 145.531525 
L 265.515319 145.672105 
L 266.311557 145.23699 
L 267.107794 143.975783 
L 267.904032 141.902775 
L 269.496507 136.322418 
L 271.88522 127.874259 
L 273.477695 122.872947 
L 274.273932 120.892805 
L 275.07017 119.710012 
L 275.866407 119.677717 
L 276.662645 120.946364 
L 277.458882 123.316926 
L 279.051357 128.820732 
L 279.847595 130.31748 
L 280.643832 130.183329 
L 281.44007 128.401654 
L 283.032545 122.434076 
L 283.828782 120.221977 
L 284.62502 119.672529 
L 285.421257 121.09072 
L 286.217495 124.19426 
L 287.80997 132.160638 
L 288.606208 135.103686 
L 289.402445 136.449669 
L 290.198683 136.047621 
L 290.99492 134.159508 
L 292.587395 128.130312 
L 293.383633 125.148202 
L 294.17987 122.764099 
L 294.976108 121.214595 
L 295.772345 120.610552 
L 296.568583 120.970061 
L 297.36482 122.226742 
L 298.161058 124.214944 
L 300.54977 131.406458 
L 301.346008 133.027427 
L 302.142245 133.948915 
L 302.938483 134.331781 
L 303.73472 134.56649 
L 304.530958 135.156013 
L 305.327196 136.548248 
L 306.123433 138.980206 
L 306.919671 142.394036 
L 309.308383 154.522905 
L 310.104621 157.63526 
L 310.900858 159.809997 
L 311.697096 161.016214 
L 312.493333 161.302621 
L 313.289571 160.705515 
L 314.085808 159.207398 
L 314.882046 156.774483 
L 315.678283 153.457545 
L 318.066996 141.765737 
L 318.863233 139.314576 
L 319.659471 138.482118 
L 320.455709 139.323585 
L 321.251946 141.437884 
L 322.844421 146.400886 
L 323.640659 147.782113 
L 324.436896 148.052932 
L 326.029371 147.136405 
L 326.825609 147.590282 
L 327.621846 149.552682 
L 328.418084 153.098176 
L 330.010559 162.36735 
L 330.806796 166.068893 
L 331.603034 168.075392 
L 332.399271 168.293295 
L 333.991746 166.260722 
L 334.787984 166.278309 
L 335.584221 168.17824 
L 336.380459 172.050984 
L 337.972934 182.329471 
L 338.769172 186.024685 
L 339.565409 187.200553 
L 340.361647 185.506531 
L 341.157884 181.449582 
L 342.750359 171.328319 
L 343.546597 168.05765 
L 344.342834 167.139682 
L 345.139072 168.548635 
L 345.935309 171.598436 
L 347.527784 178.449324 
L 348.324022 180.525906 
L 349.120259 181.259988 
L 349.916497 180.87703 
L 353.101447 176.840698 
L 353.897685 176.283207 
L 354.693922 175.898638 
L 355.49016 175.742834 
L 356.286397 175.999774 
L 357.082635 176.90313 
L 357.878872 178.595936 
L 358.67511 181.005475 
L 360.267585 186.489804 
L 361.063822 188.562759 
L 361.86006 189.723979 
L 362.656297 190.010236 
L 364.248772 189.657935 
L 365.04501 190.134907 
L 365.841247 191.512035 
L 366.637485 193.692388 
L 368.22996 198.527877 
L 369.026198 200.059132 
L 369.822435 200.614006 
L 370.618673 200.369446 
L 371.41491 199.809713 
L 372.211148 199.512231 
L 373.007385 199.894147 
L 373.803623 201.032524 
L 375.396098 204.199199 
L 376.192335 205.221252 
L 376.988573 205.475311 
L 378.581048 204.682642 
L 379.377285 204.808117 
L 380.173523 206.024657 
L 380.96976 208.479366 
L 383.358473 218.344225 
L 384.15471 219.957825 
L 384.950948 219.992553 
L 385.747186 218.680575 
L 387.339661 214.647225 
L 388.135898 213.292553 
L 388.932136 212.802929 
L 390.524611 213.168401 
L 391.320848 212.786852 
L 392.117086 211.302859 
L 392.913323 208.572946 
L 394.505798 200.730803 
L 395.302036 196.829364 
L 396.098273 193.6547 
L 396.894511 191.388511 
L 397.690748 189.854166 
L 398.486986 188.605178 
L 399.283223 187.103315 
L 400.079461 184.916754 
L 400.875699 181.868848 
L 404.060649 167.011066 
L 404.856886 165.139322 
L 405.653124 164.751235 
L 406.449361 165.892269 
L 407.245599 168.414416 
L 408.041836 172.013812 
L 410.430549 184.775407 
L 411.226786 188.018828 
L 412.023024 190.055576 
L 412.819261 190.701757 
L 413.615499 190.021577 
L 413.615499 190.021577 
" clip-path="url(#p7e84d7aac8)" style="fill: none; stroke: #e41a1c; stroke-width: 1.5; stroke-linecap: square"/>
   </g>
   <g id="line2d_15">
    <path d="M 46.55 234.61228 
L 47.346238 233.216439 
L 48.142475 232.390468 
L 48.938713 232.432201 
L 49.73495 233.441045 
L 50.531188 235.263431 
L 52.123663 239.687545 
L 52.9199 241.285042 
L 53.716138 241.985134 
L 54.512375 241.731938 
L 55.308613 240.752428 
L 56.10485 239.482944 
L 56.901088 238.433234 
L 57.697325 238.034796 
L 58.493563 238.522726 
L 59.2898 239.885251 
L 60.882275 244.164244 
L 61.678513 246.314675 
L 62.47475 248.020272 
L 63.270988 249.1024 
L 64.067226 249.542793 
L 64.863463 249.460643 
L 67.252176 248.254321 
L 68.048413 248.211741 
L 68.844651 248.521038 
L 69.640888 249.135441 
L 71.233363 250.617017 
L 72.029601 251.027859 
L 72.825838 250.957313 
L 73.622076 250.349412 
L 76.010788 247.286534 
L 76.807026 247.085978 
L 77.603263 247.835078 
L 78.399501 249.557492 
L 80.788214 256.73538 
L 81.584451 257.852385 
L 82.380689 257.618994 
L 83.176926 256.083822 
L 85.565639 249.09016 
L 86.361876 248.31069 
L 87.158114 249.042065 
L 87.954351 251.17211 
L 90.343064 260.337764 
L 91.139301 262.187996 
L 91.935539 262.85874 
L 92.731776 262.471014 
L 93.528014 261.390085 
L 95.120489 258.948702 
L 95.916727 258.23624 
L 96.712964 257.977359 
L 97.509202 258.040609 
L 99.101677 258.330371 
L 99.897914 258.287274 
L 102.286627 257.803782 
L 103.082864 257.839819 
L 105.471577 258.249014 
L 106.267814 258.108362 
L 107.064052 257.734582 
L 109.452764 256.164563 
L 110.249002 255.910967 
L 111.04524 255.879322 
L 113.433952 256.261366 
L 114.23019 256.217826 
L 115.822665 255.792566 
L 117.41514 255.425353 
L 118.211377 255.423853 
L 119.007615 255.562576 
L 119.803852 255.835102 
L 120.60009 256.255432 
L 121.396327 256.877477 
L 122.192565 257.785483 
L 122.988802 259.053131 
L 123.78504 260.687782 
L 126.173752 266.179715 
L 126.96999 267.266639 
L 127.766228 267.579771 
L 128.562465 267.108632 
L 129.358703 266.060479 
L 130.15494 264.819906 
L 130.951178 263.845429 
L 131.747415 263.536028 
L 132.543653 264.111235 
L 133.33989 265.545029 
L 135.728603 271.749682 
L 136.52484 273.121221 
L 137.321078 273.768046 
L 138.117315 273.770066 
L 140.506028 272.536084 
L 141.302265 272.44554 
L 142.89474 272.558056 
L 143.690978 272.256246 
L 144.487216 271.386723 
L 145.283453 269.846918 
L 146.079691 267.704725 
L 148.468403 260.105885 
L 149.264641 257.996316 
L 150.857116 254.684088 
L 152.449591 251.401326 
L 154.042066 247.153316 
L 155.634541 243.032494 
L 156.430778 241.779293 
L 157.227016 241.397967 
L 158.023253 241.953122 
L 158.819491 243.324627 
L 161.208204 249.206563 
L 162.004441 250.586837 
L 162.800679 251.274612 
L 163.596916 251.221211 
L 164.393154 250.509601 
L 165.189391 249.328854 
L 166.781866 246.630462 
L 167.578104 245.681334 
L 168.374341 245.308681 
L 169.170579 245.622579 
L 169.966816 246.591741 
L 172.355529 251.124863 
L 173.151766 252.131824 
L 173.948004 252.527132 
L 174.744241 252.348799 
L 176.336717 251.290308 
L 177.132954 251.092802 
L 177.929192 251.445698 
L 178.725429 252.355192 
L 180.317904 254.838798 
L 181.114142 255.669285 
L 181.910379 255.843388 
L 182.706617 255.333114 
L 184.299092 253.320874 
L 185.095329 252.664509 
L 185.891567 252.72876 
L 186.687804 253.631629 
L 187.484042 255.231955 
L 189.076517 259.017974 
L 189.872754 260.341413 
L 190.668992 260.885445 
L 191.46523 260.591294 
L 192.261467 259.590592 
L 195.446417 253.900318 
L 196.242655 253.157782 
L 197.038892 252.874926 
L 197.83513 253.037894 
L 198.631367 253.59617 
L 199.427605 254.467962 
L 201.816317 257.701227 
L 202.612555 258.480126 
L 203.408792 258.881933 
L 204.20503 258.826825 
L 205.001267 258.285961 
L 205.797505 257.277309 
L 206.593742 255.859834 
L 208.186218 252.234149 
L 209.778693 248.734912 
L 210.57493 247.607995 
L 211.371168 247.178186 
L 212.167405 247.538802 
L 212.963643 248.622224 
L 215.352355 253.228007 
L 216.148593 253.977966 
L 216.94483 253.985289 
L 217.741068 253.375475 
L 218.537305 252.490268 
L 219.333543 251.777484 
L 220.12978 251.637744 
L 220.926018 252.280417 
L 221.722255 253.642168 
L 223.31473 257.078298 
L 224.110968 258.206969 
L 224.907206 258.483687 
L 225.703443 257.874784 
L 228.092156 254.054014 
L 228.888393 253.647599 
L 229.684631 254.180717 
L 230.480868 255.63572 
L 231.277106 257.804159 
L 235.258293 270.475826 
L 237.647006 277.617753 
L 239.239481 282.449347 
L 240.035719 284.513017 
L 240.831956 286.102847 
L 241.628194 287.07449 
L 242.424431 287.345161 
L 243.220669 286.906361 
L 244.016906 285.825306 
L 244.813144 284.238489 
L 247.201856 278.533495 
L 247.998094 277.078878 
L 248.794331 276.142932 
L 249.590569 275.781979 
L 250.386806 275.947756 
L 251.183044 276.499212 
L 252.775519 277.95095 
L 253.571756 278.473087 
L 254.367994 278.712743 
L 255.164231 278.672276 
L 258.349182 277.72138 
L 260.737894 277.712042 
L 261.534132 277.499583 
L 262.330369 277.025099 
L 263.126607 276.27686 
L 264.719082 274.229937 
L 266.311557 272.108204 
L 271.088982 266.583168 
L 272.681457 265.017353 
L 274.273932 263.623559 
L 275.07017 262.638298 
L 275.866407 261.23176 
L 276.662645 259.34667 
L 279.051357 252.948024 
L 279.847595 251.942973 
L 280.643832 252.127738 
L 281.44007 253.559066 
L 282.236307 255.983213 
L 283.828782 261.676001 
L 284.62502 263.808175 
L 285.421257 265.021573 
L 286.217495 265.386589 
L 287.80997 265.212134 
L 288.606208 265.681826 
L 289.402445 266.938616 
L 290.198683 268.913739 
L 291.791158 273.377281 
L 292.587395 274.820387 
L 293.383633 275.259913 
L 294.17987 274.687835 
L 294.976108 273.382353 
L 296.568583 270.387469 
L 297.36482 269.480421 
L 298.161058 269.169599 
L 298.957295 269.331471 
L 300.54977 270.011732 
L 301.346008 270.052716 
L 302.142245 269.766403 
L 303.73472 268.547462 
L 305.327196 267.400135 
L 306.123433 267.093145 
L 306.919671 267.005599 
L 307.715908 267.147963 
L 308.512146 267.531777 
L 309.308383 268.159245 
L 310.900858 269.945221 
L 311.697096 270.854058 
L 312.493333 271.549648 
L 313.289571 271.907641 
L 314.085808 271.916129 
L 315.678283 271.514551 
L 316.474521 271.60948 
L 317.270758 272.162668 
L 318.066996 273.161366 
L 319.659471 275.430825 
L 320.455709 275.917852 
L 321.251946 275.582925 
L 322.048184 274.443497 
L 323.640659 271.293908 
L 324.436896 270.456699 
L 325.233134 270.77209 
L 326.029371 272.365142 
L 326.825609 274.962877 
L 328.418084 280.607777 
L 329.214321 282.23307 
L 330.010559 282.458296 
L 330.806796 281.302776 
L 331.603034 279.162422 
L 333.195509 274.497097 
L 333.991746 273.151216 
L 334.787984 272.861637 
L 335.584221 273.555481 
L 336.380459 274.935486 
L 337.972934 278.239491 
L 338.769172 279.597206 
L 339.565409 280.613345 
L 340.361647 281.318477 
L 341.157884 281.772338 
L 341.954122 281.998126 
L 342.750359 281.955529 
L 343.546597 281.562797 
L 344.342834 280.75483 
L 345.139072 279.547446 
L 347.527784 275.360376 
L 348.324022 274.674848 
L 349.120259 274.667748 
L 349.916497 275.315376 
L 352.30521 278.810607 
L 353.101447 279.481027 
L 353.897685 279.572394 
L 354.693922 279.090364 
L 355.49016 278.164865 
L 357.878872 274.708207 
L 358.67511 273.852403 
L 359.471347 273.256675 
L 360.267585 272.912443 
L 361.063822 272.785299 
L 362.656297 272.93836 
L 363.452535 273.019562 
L 364.248772 272.913444 
L 365.04501 272.463343 
L 365.841247 271.558694 
L 366.637485 270.195602 
L 368.22996 266.825162 
L 369.026198 265.500709 
L 369.822435 264.925034 
L 370.618673 265.346072 
L 371.41491 266.782778 
L 373.007385 271.510634 
L 373.803623 273.790102 
L 374.59986 275.342351 
L 375.396098 275.887912 
L 376.192335 275.431039 
L 376.988573 274.244223 
L 378.581048 271.461191 
L 379.377285 270.663986 
L 380.173523 270.509723 
L 380.96976 270.92479 
L 382.562235 272.601188 
L 386.543423 277.037175 
L 388.135898 279.401627 
L 388.932136 280.262964 
L 389.728373 280.571679 
L 390.524611 280.155844 
L 391.320848 278.980288 
L 392.117086 277.15309 
L 393.709561 272.431922 
L 395.302036 267.795275 
L 396.098273 265.854376 
L 396.894511 264.210941 
L 398.486986 261.689556 
L 401.671936 257.484696 
L 403.264411 254.478788 
L 404.856886 251.455577 
L 405.653124 250.503651 
L 406.449361 250.189134 
L 407.245599 250.543229 
L 408.041836 251.409291 
L 408.838074 252.468379 
L 409.634311 253.326386 
L 410.430549 253.634425 
L 411.226786 253.200101 
L 412.023024 252.046233 
L 413.615499 248.569921 
L 413.615499 248.569921 
" clip-path="url(#p7e84d7aac8)" style="fill: none; stroke: #377eb8; stroke-width: 1.5; stroke-linecap: square"/>
   </g>
   <g id="line2d_16">
    <path d="M 87.158114 318.2 
L 87.158114 71.241125 
" clip-path="url(#p7e84d7aac8)" style="fill: none; stroke: #000000; stroke-width: 0.5; stroke-linecap: square"/>
   </g>
   <g id="line2d_17">
    <path d="M 46.55 245.906118 
L 413.615499 245.906118 
" clip-path="url(#p7e84d7aac8)" style="fill: none; stroke: #000000; stroke-width: 0.5; stroke-linecap: square"/>
   </g>
   <g id="patch_4">
    <path d="M 46.55 318.2 
L 46.55 71.241125 
" style="fill: none; stroke: #000000; stroke-width: 0.8; stroke-linejoin: miter; stroke-linecap: square"/>
   </g>
   <g id="patch_5">
    <path d="M 413.615499 318.2 
L 413.615499 71.241125 
" style="fill: none; stroke: #000000; stroke-width: 0.8; stroke-linejoin: miter; stroke-linecap: square"/>
   </g>
   <g id="patch_6">
    <path d="M 46.55 318.2 
L 413.615499 318.2 
" style="fill: none; stroke: #000000; stroke-width: 0.8; stroke-linejoin: miter; stroke-linecap: square"/>
   </g>
   <g id="patch_7">
    <path d="M 46.55 71.241125 
L 413.615499 71.241125 
" style="fill: none; stroke: #000000; stroke-width: 0.8; stroke-linejoin: miter; stroke-linecap: square"/>
   </g>
   <g id="text_16">
    <!-- Cz -->
    <g transform="translate(222.743999 65.241125)scale(0.12 -0.12)">
     <defs>
      <path id="DejaVuSans-43" d="M 4122 4306 
L 4122 3641 
Q 3803 3938 3442 4084 
Q 3081 4231 2675 4231 
Q 1875 4231 1450 3742 
Q 1025 3253 1025 2328 
Q 1025 1406 1450 917 
Q 1875 428 2675 428 
Q 3081 428 3442 575 
Q 3803 722 4122 1019 
L 4122 359 
Q 3791 134 3420 21 
Q 3050 -91 2638 -91 
Q 1578 -91 968 557 
Q 359 1206 359 2328 
Q 359 3453 968 4101 
Q 1578 4750 2638 4750 
Q 3056 4750 3426 4639 
Q 3797 4528 4122 4306 
z
" transform="scale(0.015625)"/>
      <path id="DejaVuSans-7a" d="M 353 3500 
L 3084 3500 
L 3084 2975 
L 922 459 
L 3084 459 
L 3084 0 
L 275 0 
L 275 525 
L 2438 3041 
L 353 3041 
L 353 3500 
z
" transform="scale(0.015625)"/>
     </defs>
     <use xlink:href="#DejaVuSans-43"/>
     <use xlink:href="#DejaVuSans-7a" x="69.824219"/>
    </g>
   </g>
   <g id="legend_1">
    <g id="patch_8">
     <path d="M 99.855406 48.044893 
L 360.310093 48.044893 
Q 362.310093 48.044893 362.310093 46.044893 
L 362.310093 17.410517 
Q 362.310093 15.410517 360.310093 15.410517 
L 99.855406 15.410517 
Q 97.855406 15.410517 97.855406 17.410517 
L 97.855406 46.044893 
Q 97.855406 48.044893 99.855406 48.044893 
z
" style="fill: #ffffff; opacity: 0.8; stroke: #cccccc; stroke-linejoin: miter"/>
    </g>
    <g id="text_17">
     <!-- Average of Session 26_tac4 -->
     <g transform="translate(161.068687 27.008955)scale(0.1 -0.1)">
      <defs>
       <path id="DejaVuSans-41" d="M 2188 4044 
L 1331 1722 
L 3047 1722 
L 2188 4044 
z
M 1831 4666 
L 2547 4666 
L 4325 0 
L 3669 0 
L 3244 1197 
L 1141 1197 
L 716 0 
L 50 0 
L 1831 4666 
z
" transform="scale(0.015625)"/>
       <path id="DejaVuSans-76" d="M 191 3500 
L 800 3500 
L 1894 563 
L 2988 3500 
L 3597 3500 
L 2284 0 
L 1503 0 
L 191 3500 
z
" transform="scale(0.015625)"/>
       <path id="DejaVuSans-72" d="M 2631 2963 
Q 2534 3019 2420 3045 
Q 2306 3072 2169 3072 
Q 1681 3072 1420 2755 
Q 1159 2438 1159 1844 
L 1159 0 
L 581 0 
L 581 3500 
L 1159 3500 
L 1159 2956 
Q 1341 3275 1631 3429 
Q 1922 3584 2338 3584 
Q 2397 3584 2469 3576 
Q 2541 3569 2628 3553 
L 2631 2963 
z
" transform="scale(0.015625)"/>
       <path id="DejaVuSans-61" d="M 2194 1759 
Q 1497 1759 1228 1600 
Q 959 1441 959 1056 
Q 959 750 1161 570 
Q 1363 391 1709 391 
Q 2188 391 2477 730 
Q 2766 1069 2766 1631 
L 2766 1759 
L 2194 1759 
z
M 3341 1997 
L 3341 0 
L 2766 0 
L 2766 531 
Q 2569 213 2275 61 
Q 1981 -91 1556 -91 
Q 1019 -91 701 211 
Q 384 513 384 1019 
Q 384 1609 779 1909 
Q 1175 2209 1959 2209 
L 2766 2209 
L 2766 2266 
Q 2766 2663 2505 2880 
Q 2244 3097 1772 3097 
Q 1472 3097 1187 3025 
Q 903 2953 641 2809 
L 641 3341 
Q 956 3463 1253 3523 
Q 1550 3584 1831 3584 
Q 2591 3584 2966 3190 
Q 3341 2797 3341 1997 
z
" transform="scale(0.015625)"/>
       <path id="DejaVuSans-67" d="M 2906 1791 
Q 2906 2416 2648 2759 
Q 2391 3103 1925 3103 
Q 1463 3103 1205 2759 
Q 947 2416 947 1791 
Q 947 1169 1205 825 
Q 1463 481 1925 481 
Q 2391 481 2648 825 
Q 2906 1169 2906 1791 
z
M 3481 434 
Q 3481 -459 3084 -895 
Q 2688 -1331 1869 -1331 
Q 1566 -1331 1297 -1286 
Q 1028 -1241 775 -1147 
L 775 -588 
Q 1028 -725 1275 -790 
Q 1522 -856 1778 -856 
Q 2344 -856 2625 -561 
Q 2906 -266 2906 331 
L 2906 616 
Q 2728 306 2450 153 
Q 2172 0 1784 0 
Q 1141 0 747 490 
Q 353 981 353 1791 
Q 353 2603 747 3093 
Q 1141 3584 1784 3584 
Q 2172 3584 2450 3431 
Q 2728 3278 2906 2969 
L 2906 3500 
L 3481 3500 
L 3481 434 
z
" transform="scale(0.015625)"/>
       <path id="DejaVuSans-20" transform="scale(0.015625)"/>
       <path id="DejaVuSans-66" d="M 2375 4863 
L 2375 4384 
L 1825 4384 
Q 1516 4384 1395 4259 
Q 1275 4134 1275 3809 
L 1275 3500 
L 2222 3500 
L 2222 3053 
L 1275 3053 
L 1275 0 
L 697 0 
L 697 3053 
L 147 3053 
L 147 3500 
L 697 3500 
L 697 3744 
Q 697 4328 969 4595 
Q 1241 4863 1831 4863 
L 2375 4863 
z
" transform="scale(0.015625)"/>
       <path id="DejaVuSans-53" d="M 3425 4513 
L 3425 3897 
Q 3066 4069 2747 4153 
Q 2428 4238 2131 4238 
Q 1616 4238 1336 4038 
Q 1056 3838 1056 3469 
Q 1056 3159 1242 3001 
Q 1428 2844 1947 2747 
L 2328 2669 
Q 3034 2534 3370 2195 
Q 3706 1856 3706 1288 
Q 3706 609 3251 259 
Q 2797 -91 1919 -91 
Q 1588 -91 1214 -16 
Q 841 59 441 206 
L 441 856 
Q 825 641 1194 531 
Q 1563 422 1919 422 
Q 2459 422 2753 634 
Q 3047 847 3047 1241 
Q 3047 1584 2836 1778 
Q 2625 1972 2144 2069 
L 1759 2144 
Q 1053 2284 737 2584 
Q 422 2884 422 3419 
Q 422 4038 858 4394 
Q 1294 4750 2059 4750 
Q 2388 4750 2728 4690 
Q 3069 4631 3425 4513 
z
" transform="scale(0.015625)"/>
       <path id="DejaVuSans-69" d="M 603 3500 
L 1178 3500 
L 1178 0 
L 603 0 
L 603 3500 
z
M 603 4863 
L 1178 4863 
L 1178 4134 
L 603 4134 
L 603 4863 
z
" transform="scale(0.015625)"/>
       <path id="DejaVuSans-5f" d="M 3263 -1063 
L 3263 -1509 
L -63 -1509 
L -63 -1063 
L 3263 -1063 
z
" transform="scale(0.015625)"/>
       <path id="DejaVuSans-74" d="M 1172 4494 
L 1172 3500 
L 2356 3500 
L 2356 3053 
L 1172 3053 
L 1172 1153 
Q 1172 725 1289 603 
Q 1406 481 1766 481 
L 2356 481 
L 2356 0 
L 1766 0 
Q 1100 0 847 248 
Q 594 497 594 1153 
L 594 3053 
L 172 3053 
L 172 3500 
L 594 3500 
L 594 4494 
L 1172 4494 
z
" transform="scale(0.015625)"/>
      </defs>
      <use xlink:href="#DejaVuSans-41"/>
      <use xlink:href="#DejaVuSans-76" x="62.533203"/>
      <use xlink:href="#DejaVuSans-65" x="121.712891"/>
      <use xlink:href="#DejaVuSans-72" x="183.236328"/>
      <use xlink:href="#DejaVuSans-61" x="224.349609"/>
      <use xlink:href="#DejaVuSans-67" x="285.628906"/>
      <use xlink:href="#DejaVuSans-65" x="349.105469"/>
      <use xlink:href="#DejaVuSans-20" x="410.628906"/>
      <use xlink:href="#DejaVuSans-6f" x="442.416016"/>
      <use xlink:href="#DejaVuSans-66" x="503.597656"/>
      <use xlink:href="#DejaVuSans-20" x="538.802734"/>
      <use xlink:href="#DejaVuSans-53" x="570.589844"/>
      <use xlink:href="#DejaVuSans-65" x="634.066406"/>
      <use xlink:href="#DejaVuSans-73" x="695.589844"/>
      <use xlink:href="#DejaVuSans-73" x="747.689453"/>
      <use xlink:href="#DejaVuSans-69" x="799.789062"/>
      <use xlink:href="#DejaVuSans-6f" x="827.572266"/>
      <use xlink:href="#DejaVuSans-6e" x="888.753906"/>
      <use xlink:href="#DejaVuSans-20" x="952.132812"/>
      <use xlink:href="#DejaVuSans-32" x="983.919922"/>
      <use xlink:href="#DejaVuSans-36" x="1047.542969"/>
      <use xlink:href="#DejaVuSans-5f" x="1111.166016"/>
      <use xlink:href="#DejaVuSans-74" x="1161.166016"/>
      <use xlink:href="#DejaVuSans-61" x="1200.375"/>
      <use xlink:href="#DejaVuSans-63" x="1261.654297"/>
      <use xlink:href="#DejaVuSans-34" x="1316.634766"/>
     </g>
    </g>
    <g id="line2d_18">
     <path d="M 101.855406 38.465205 
L 111.855406 38.465205 
L 121.855406 38.465205 
" style="fill: none; stroke: #e41a1c; stroke-width: 1.5; stroke-linecap: square"/>
    </g>
    <g id="text_18">
     <!-- Target (n=387) -->
     <g transform="translate(129.855406 41.965205)scale(0.1 -0.1)">
      <defs>
       <path id="DejaVuSans-54" d="M -19 4666 
L 3928 4666 
L 3928 4134 
L 2272 4134 
L 2272 0 
L 1638 0 
L 1638 4134 
L -19 4134 
L -19 4666 
z
" transform="scale(0.015625)"/>
       <path id="DejaVuSans-28" d="M 1984 4856 
Q 1566 4138 1362 3434 
Q 1159 2731 1159 2009 
Q 1159 1288 1364 580 
Q 1569 -128 1984 -844 
L 1484 -844 
Q 1016 -109 783 600 
Q 550 1309 550 2009 
Q 550 2706 781 3412 
Q 1013 4119 1484 4856 
L 1984 4856 
z
" transform="scale(0.015625)"/>
       <path id="DejaVuSans-3d" d="M 678 2906 
L 4684 2906 
L 4684 2381 
L 678 2381 
L 678 2906 
z
M 678 1631 
L 4684 1631 
L 4684 1100 
L 678 1100 
L 678 1631 
z
" transform="scale(0.015625)"/>
       <path id="DejaVuSans-37" d="M 525 4666 
L 3525 4666 
L 3525 4397 
L 1831 0 
L 1172 0 
L 2766 4134 
L 525 4134 
L 525 4666 
z
" transform="scale(0.015625)"/>
       <path id="DejaVuSans-29" d="M 513 4856 
L 1013 4856 
Q 1481 4119 1714 3412 
Q 1947 2706 1947 2009 
Q 1947 1309 1714 600 
Q 1481 -109 1013 -844 
L 513 -844 
Q 928 -128 1133 580 
Q 1338 1288 1338 2009 
Q 1338 2731 1133 3434 
Q 928 4138 513 4856 
z
" transform="scale(0.015625)"/>
      </defs>
      <use xlink:href="#DejaVuSans-54"/>
      <use xlink:href="#DejaVuSans-61" x="44.583984"/>
      <use xlink:href="#DejaVuSans-72" x="105.863281"/>
      <use xlink:href="#DejaVuSans-67" x="145.226562"/>
      <use xlink:href="#DejaVuSans-65" x="208.703125"/>
      <use xlink:href="#DejaVuSans-74" x="270.226562"/>
      <use xlink:href="#DejaVuSans-20" x="309.435547"/>
      <use xlink:href="#DejaVuSans-28" x="341.222656"/>
      <use xlink:href="#DejaVuSans-6e" x="380.236328"/>
      <use xlink:href="#DejaVuSans-3d" x="443.615234"/>
      <use xlink:href="#DejaVuSans-33" x="527.404297"/>
      <use xlink:href="#DejaVuSans-38" x="591.027344"/>
      <use xlink:href="#DejaVuSans-37" x="654.650391"/>
      <use xlink:href="#DejaVuSans-29" x="718.273438"/>
     </g>
    </g>
    <g id="line2d_19">
     <path d="M 225.585093 38.465205 
L 235.585093 38.465205 
L 245.585093 38.465205 
" style="fill: none; stroke: #377eb8; stroke-width: 1.5; stroke-linecap: square"/>
    </g>
    <g id="text_19">
     <!-- Non-Target (n=1168) -->
     <g transform="translate(253.585093 41.965205)scale(0.1 -0.1)">
      <defs>
       <path id="DejaVuSans-4e" d="M 628 4666 
L 1478 4666 
L 3547 763 
L 3547 4666 
L 4159 4666 
L 4159 0 
L 3309 0 
L 1241 3903 
L 1241 0 
L 628 0 
L 628 4666 
z
" transform="scale(0.015625)"/>
       <path id="DejaVuSans-2d" d="M 313 2009 
L 1997 2009 
L 1997 1497 
L 313 1497 
L 313 2009 
z
" transform="scale(0.015625)"/>
      </defs>
      <use xlink:href="#DejaVuSans-4e"/>
      <use xlink:href="#DejaVuSans-6f" x="74.804688"/>
      <use xlink:href="#DejaVuSans-6e" x="135.986328"/>
      <use xlink:href="#DejaVuSans-2d" x="199.365234"/>
      <use xlink:href="#DejaVuSans-54" x="226.324219"/>
      <use xlink:href="#DejaVuSans-61" x="270.908203"/>
      <use xlink:href="#DejaVuSans-72" x="332.1875"/>
      <use xlink:href="#DejaVuSans-67" x="371.550781"/>
      <use xlink:href="#DejaVuSans-65" x="435.027344"/>
      <use xlink:href="#DejaVuSans-74" x="496.550781"/>
      <use xlink:href="#DejaVuSans-20" x="535.759766"/>
      <use xlink:href="#DejaVuSans-28" x="567.546875"/>
      <use xlink:href="#DejaVuSans-6e" x="606.560547"/>
      <use xlink:href="#DejaVuSans-3d" x="669.939453"/>
      <use xlink:href="#DejaVuSans-31" x="753.728516"/>
      <use xlink:href="#DejaVuSans-31" x="817.351562"/>
      <use xlink:href="#DejaVuSans-36" x="880.974609"/>
      <use xlink:href="#DejaVuSans-38" x="944.597656"/>
      <use xlink:href="#DejaVuSans-29" x="1008.220703"/>
     </g>
    </g>
   </g>
  </g>
 </g>
 <defs>
  <clipPath id="p7e84d7aac8">
   <rect x="46.55" y="71.241125" width="367.065499" height="246.958875"/>
  </clipPath>
 </defs>
</svg>
