<?xml version="1.0" encoding="utf-8" standalone="no"?>
<!DOCTYPE svg PUBLIC "-//W3C//DTD SVG 1.1//EN"
  "http://www.w3.org/Graphics/SVG/1.1/DTD/svg11.dtd">
<svg xmlns:xlink="http://www.w3.org/1999/xlink" width="432pt" height="360pt" viewBox="0 0 432 360" xmlns="http://www.w3.org/2000/svg" version="1.1">
 <metadata>
  <rdf:RDF xmlns:dc="http://purl.org/dc/elements/1.1/" xmlns:cc="http://creativecommons.org/ns#" xmlns:rdf="http://www.w3.org/1999/02/22-rdf-syntax-ns#">
   <cc:Work>
    <dc:type rdf:resource="http://purl.org/dc/dcmitype/StillImage"/>
    <dc:date>2022-11-02T16:56:53.368503</dc:date>
    <dc:format>image/svg+xml</dc:format>
    <dc:creator>
     <cc:Agent>
      <dc:title>Matplotlib v3.5.1, https://matplotlib.org/</dc:title>
     </cc:Agent>
    </dc:creator>
   </cc:Work>
  </rdf:RDF>
 </metadata>
 <defs>
  <style type="text/css">*{stroke-linejoin: round; stroke-linecap: butt}</style>
 </defs>
 <g id="figure_1">
  <g id="patch_1">
   <path d="M 0 360 
L 432 360 
L 432 0 
L 0 0 
L 0 360 
z
" style="fill: none"/>
  </g>
  <g id="axes_1">
   <g id="patch_2">
    <path d="M 46.55 318.2 
L 413.615499 318.2 
L 413.615499 71.241125 
L 46.55 71.241125 
L 46.55 318.2 
z
" style="fill: none"/>
   </g>
   <g id="PolyCollection_1">
    <defs>
     <path id="mf39b8d9d49" d="M 46.55 -106.406575 
L 46.55 -59.126617 
L 47.346238 -58.835041 
L 48.142475 -62.921117 
L 48.938713 -69.401788 
L 49.73495 -75.76872 
L 50.531188 -80.00523 
L 51.327425 -81.193592 
L 52.123663 -79.592839 
L 52.9199 -76.333627 
L 53.716138 -72.913995 
L 54.512375 -70.666991 
L 55.308613 -70.325272 
L 56.10485 -71.775601 
L 56.901088 -74.120122 
L 57.697325 -76.103458 
L 58.493563 -76.755518 
L 59.2898 -75.908033 
L 60.086038 -74.280358 
L 60.882275 -73.110385 
L 61.678513 -73.560528 
L 62.47475 -76.179238 
L 63.270988 -80.642886 
L 64.067226 -85.894517 
L 64.863463 -90.594393 
L 65.659701 -93.622003 
L 66.455938 -94.429554 
L 67.252176 -93.212683 
L 68.048413 -90.885633 
L 68.844651 -88.804737 
L 69.640888 -88.244205 
L 70.437126 -89.808725 
L 71.233363 -93.10528 
L 72.029601 -96.917437 
L 72.825838 -99.806744 
L 73.622076 -100.728963 
L 74.418313 -99.338678 
L 75.214551 -96.043733 
L 76.010788 -91.940579 
L 76.807026 -88.555183 
L 77.603263 -87.284954 
L 78.399501 -88.742891 
L 79.195739 -92.458567 
L 79.991976 -97.182911 
L 80.788214 -101.538386 
L 81.584451 -104.530177 
L 82.380689 -105.763476 
L 83.176926 -105.501096 
L 83.973164 -104.585724 
L 84.769401 -104.096345 
L 85.565639 -104.734296 
L 86.361876 -106.284272 
L 87.158114 -107.611044 
L 87.954351 -107.270878 
L 88.750589 -104.274258 
L 89.546826 -98.50259 
L 90.343064 -90.732976 
L 91.139301 -82.433167 
L 91.935539 -75.406469 
L 92.731776 -71.301082 
L 93.528014 -71.026881 
L 94.324251 -74.288546 
L 95.120489 -79.559603 
L 95.916727 -84.62547 
L 96.712964 -87.467324 
L 97.509202 -87.055095 
L 98.305439 -83.685767 
L 99.101677 -78.763719 
L 99.897914 -74.184214 
L 100.694152 -71.60953 
L 101.490389 -71.902174 
L 102.286627 -74.872695 
L 103.082864 -79.401409 
L 103.879102 -83.902383 
L 104.675339 -86.970118 
L 105.471577 -87.93992 
L 106.267814 -87.10303 
L 107.064052 -85.477097 
L 107.860289 -84.257089 
L 108.656527 -84.214218 
L 109.452764 -85.302465 
L 110.249002 -86.638564 
L 111.04524 -86.889344 
L 111.841477 -84.928658 
L 112.637715 -80.464266 
L 113.433952 -74.299673 
L 114.23019 -68.070083 
L 115.026427 -63.594932 
L 115.822665 -62.178186 
L 116.618902 -64.118211 
L 117.41514 -68.530197 
L 118.211377 -73.549342 
L 119.007615 -76.959722 
L 119.803852 -77.091175 
L 120.60009 -73.570226 
L 121.396327 -67.488949 
L 122.192565 -60.895452 
L 122.988802 -55.939641 
L 123.78504 -54.13457 
L 124.581277 -55.96804 
L 125.377515 -60.821124 
L 126.173752 -67.15088 
L 126.96999 -73.011427 
L 127.766228 -76.81823 
L 128.562465 -77.965673 
L 129.358703 -76.927493 
L 130.15494 -74.843935 
L 130.951178 -72.934555 
L 131.747415 -72.065055 
L 132.543653 -72.537167 
L 133.33989 -74.01907 
L 134.136128 -75.652667 
L 134.932365 -76.435451 
L 135.728603 -75.761557 
L 136.52484 -73.785176 
L 137.321078 -71.347115 
L 138.117315 -69.542184 
L 138.913553 -69.243254 
L 139.70979 -70.820728 
L 140.506028 -74.075294 
L 141.302265 -78.313229 
L 142.098503 -82.557874 
L 142.89474 -85.880604 
L 143.690978 -87.707171 
L 144.487216 -87.928201 
L 145.283453 -86.806711 
L 146.079691 -84.833345 
L 146.875928 -82.620192 
L 147.672166 -80.759118 
L 148.468403 -79.61308 
L 149.264641 -79.210233 
L 150.060878 -79.406243 
L 150.857116 -80.2125 
L 151.653353 -81.943516 
L 152.449591 -84.972839 
L 153.245828 -89.323426 
L 154.042066 -94.493487 
L 154.838303 -99.644751 
L 155.634541 -103.912917 
L 156.430778 -106.571457 
L 157.227016 -107.085835 
L 158.023253 -105.242266 
L 158.819491 -101.365694 
L 159.615729 -96.440752 
L 160.411966 -91.927543 
L 161.208204 -89.279728 
L 162.004441 -89.416595 
L 162.800679 -92.392517 
L 163.596916 -97.353321 
L 164.393154 -102.792701 
L 165.189391 -107.080816 
L 165.985629 -109.09498 
L 166.781866 -108.632084 
L 167.578104 -106.396068 
L 168.374341 -103.660228 
L 169.170579 -101.833754 
L 169.966816 -102.073564 
L 170.763054 -104.978339 
L 171.559291 -110.390208 
L 172.355529 -117.380448 
L 173.151766 -124.475342 
L 173.948004 -130.055455 
L 174.744241 -132.792345 
L 175.540479 -132.041226 
L 176.336717 -128.14392 
L 177.132954 -122.493446 
L 177.929192 -117.139521 
L 178.725429 -113.976695 
L 179.521667 -113.954688 
L 180.317904 -116.793432 
L 181.114142 -121.328928 
L 181.910379 -126.131896 
L 182.706617 -129.922013 
L 183.502854 -131.755359 
L 184.299092 -131.251631 
L 185.095329 -128.842465 
L 185.891567 -125.699493 
L 186.687804 -123.172712 
L 187.484042 -122.085107 
L 188.280279 -122.403 
L 189.076517 -123.456671 
L 189.872754 -124.418611 
L 190.668992 -124.623751 
L 191.46523 -123.668238 
L 192.261467 -121.493674 
L 193.057705 -118.479945 
L 193.853942 -115.333407 
L 194.65018 -112.703007 
L 195.446417 -110.809922 
L 196.242655 -109.422187 
L 197.038892 -108.171744 
L 197.83513 -106.886519 
L 198.631367 -105.661702 
L 199.427605 -104.740454 
L 200.223842 -104.43537 
L 201.02008 -105.104985 
L 201.816317 -106.968085 
L 202.612555 -109.749907 
L 203.408792 -112.515339 
L 204.20503 -113.953094 
L 205.001267 -112.996155 
L 205.797505 -109.422729 
L 206.593742 -104.105029 
L 207.38998 -98.788865 
L 208.186218 -95.5073 
L 208.982455 -95.838915 
L 209.778693 -100.270467 
L 210.57493 -107.93453 
L 211.371168 -116.871756 
L 212.167405 -124.710309 
L 212.963643 -129.454541 
L 213.75988 -130.096077 
L 214.556118 -126.908228 
L 215.352355 -121.381763 
L 216.148593 -115.793762 
L 216.94483 -112.470798 
L 217.741068 -112.9615 
L 218.537305 -117.466386 
L 219.333543 -124.806915 
L 220.12978 -132.951181 
L 220.926018 -139.832354 
L 221.722255 -144.07523 
L 222.518493 -145.341525 
L 223.31473 -144.221947 
L 224.110968 -141.814457 
L 224.907206 -139.251299 
L 225.703443 -137.38242 
L 226.499681 -136.603758 
L 227.295918 -136.738755 
L 228.092156 -137.076665 
L 228.888393 -136.732343 
L 229.684631 -135.224378 
L 230.480868 -132.88377 
L 231.277106 -130.741473 
L 232.073343 -129.955171 
L 232.869581 -131.19666 
L 233.665818 -134.345781 
L 234.462056 -138.510549 
L 235.258293 -142.238243 
L 236.054531 -143.898698 
L 236.850768 -142.293131 
L 237.647006 -137.338085 
L 238.443243 -130.369125 
L 239.239481 -123.685302 
L 240.035719 -119.551627 
L 240.831956 -119.287373 
L 241.628194 -122.864368 
L 242.424431 -129.017617 
L 243.220669 -135.664504 
L 244.016906 -140.51174 
L 244.813144 -141.792636 
L 245.609381 -138.917797 
L 246.405619 -132.686844 
L 247.201856 -124.904076 
L 247.998094 -117.641694 
L 248.794331 -112.566932 
L 249.590569 -110.551911 
L 250.386806 -111.533291 
L 251.183044 -114.590774 
L 251.979281 -118.319798 
L 252.775519 -121.477462 
L 253.571756 -123.599877 
L 254.367994 -125.133427 
L 255.164231 -126.938343 
L 255.960469 -129.568775 
L 256.756707 -132.851972 
L 257.552944 -135.968938 
L 258.349182 -137.897925 
L 259.145419 -137.951123 
L 259.941657 -136.195397 
L 260.737894 -133.622173 
L 261.534132 -131.952087 
L 262.330369 -133.059458 
L 263.126607 -138.215111 
L 263.922844 -147.49379 
L 264.719082 -159.621119 
L 265.515319 -172.304661 
L 266.311557 -182.900712 
L 267.107794 -189.213155 
L 267.904032 -190.211352 
L 268.700269 -186.412779 
L 269.496507 -179.709644 
L 270.292744 -172.645455 
L 271.088982 -167.447064 
L 271.88522 -165.241833 
L 272.681457 -165.778985 
L 273.477695 -167.737717 
L 274.273932 -169.44438 
L 275.07017 -169.641081 
L 275.866407 -167.96813 
L 276.662645 -165.021071 
L 277.458882 -162.04698 
L 278.25512 -160.437424 
L 279.051357 -161.175522 
L 279.847595 -164.392034 
L 280.643832 -169.217982 
L 281.44007 -174.076276 
L 282.236307 -177.337667 
L 283.032545 -178.013117 
L 283.828782 -176.115507 
L 284.62502 -172.558034 
L 285.421257 -168.728406 
L 286.217495 -165.958418 
L 287.013732 -165.048691 
L 287.80997 -165.974102 
L 288.606208 -167.904868 
L 289.402445 -169.590244 
L 290.198683 -169.939779 
L 290.99492 -168.497797 
L 291.791158 -165.600617 
L 292.587395 -162.213002 
L 293.383633 -159.547853 
L 294.17987 -158.572593 
L 294.976108 -159.540796 
L 295.772345 -161.782337 
L 296.568583 -163.967805 
L 297.36482 -164.788418 
L 298.161058 -163.617088 
L 298.957295 -160.717955 
L 299.753533 -157.027473 
L 300.54977 -153.809157 
L 301.346008 -152.334433 
L 302.142245 -153.529219 
L 302.938483 -157.566618 
L 303.73472 -163.629487 
L 304.530958 -170.13911 
L 305.327196 -175.451412 
L 306.123433 -178.59819 
L 306.919671 -179.568556 
L 307.715908 -179.051567 
L 308.512146 -177.972326 
L 309.308383 -177.142574 
L 310.104621 -177.086629 
L 310.900858 -177.89972 
L 311.697096 -179.089851 
L 312.493333 -179.609185 
L 313.289571 -178.254237 
L 314.085808 -174.299143 
L 314.882046 -167.979441 
L 315.678283 -160.497554 
L 316.474521 -153.55431 
L 317.270758 -148.71699 
L 318.066996 -146.93605 
L 318.863233 -148.298424 
L 319.659471 -151.956439 
L 320.455709 -156.25003 
L 321.251946 -159.127846 
L 322.048184 -158.847992 
L 322.844421 -154.706242 
L 323.640659 -147.404343 
L 324.436896 -138.805001 
L 325.233134 -131.193284 
L 326.029371 -126.434485 
L 326.825609 -125.384276 
L 327.621846 -127.714022 
L 328.418084 -132.129458 
L 329.214321 -136.851281 
L 330.010559 -140.198982 
L 330.806796 -141.123498 
L 331.603034 -139.537233 
L 332.399271 -136.321626 
L 333.195509 -132.978588 
L 333.991746 -131.022853 
L 334.787984 -131.354381 
L 335.584221 -133.906092 
L 336.380459 -137.729577 
L 337.176697 -141.425944 
L 337.972934 -143.679582 
L 338.769172 -143.707953 
L 339.565409 -141.542127 
L 340.361647 -138.061932 
L 341.157884 -134.69333 
L 341.954122 -132.789278 
L 342.750359 -132.971046 
L 343.546597 -134.8397 
L 344.342834 -137.244887 
L 345.139072 -138.888602 
L 345.935309 -138.872967 
L 346.731547 -136.996743 
L 347.527784 -133.814342 
L 348.324022 -130.477709 
L 349.120259 -128.333517 
L 349.916497 -128.325968 
L 350.712734 -130.459435 
L 351.508972 -133.668324 
L 352.30521 -136.241107 
L 353.101447 -136.613576 
L 353.897685 -134.152525 
L 354.693922 -129.572265 
L 355.49016 -124.780262 
L 356.286397 -122.162994 
L 357.082635 -123.576041 
L 357.878872 -129.487275 
L 358.67511 -138.679576 
L 359.471347 -148.645547 
L 360.267585 -156.486819 
L 361.063822 -159.965086 
L 361.86006 -158.352177 
L 362.656297 -152.771701 
L 363.452535 -145.81807 
L 364.248772 -140.508145 
L 365.04501 -139.000155 
L 365.841247 -141.691887 
L 366.637485 -147.117754 
L 367.433722 -152.644167 
L 368.22996 -155.587606 
L 369.026198 -154.264955 
L 369.822435 -148.619573 
L 370.618673 -140.245797 
L 371.41491 -131.780838 
L 372.211148 -125.847377 
L 373.007385 -123.986696 
L 373.803623 -126.082447 
L 374.59986 -130.521362 
L 375.396098 -134.956963 
L 376.192335 -137.302697 
L 376.988573 -136.561482 
L 377.78481 -133.198445 
L 378.581048 -128.900866 
L 379.377285 -125.776845 
L 380.173523 -125.331393 
L 380.96976 -127.743535 
L 381.765998 -131.830722 
L 382.562235 -135.679337 
L 383.358473 -137.560963 
L 384.15471 -136.699071 
L 384.950948 -133.628998 
L 385.747186 -130.073977 
L 386.543423 -128.366997 
L 387.339661 -130.551296 
L 388.135898 -137.457612 
L 388.932136 -148.18303 
L 389.728373 -160.276625 
L 390.524611 -170.587841 
L 391.320848 -176.410681 
L 392.117086 -176.451359 
L 392.913323 -171.256234 
L 393.709561 -162.961152 
L 394.505798 -154.476965 
L 395.302036 -148.443807 
L 396.098273 -146.371789 
L 396.894511 -148.272431 
L 397.690748 -152.84782 
L 398.486986 -158.098379 
L 399.283223 -162.11131 
L 400.079461 -163.767399 
L 400.875699 -163.115954 
L 401.671936 -161.246904 
L 402.468174 -159.697322 
L 403.264411 -159.689298 
L 404.060649 -161.584154 
L 404.856886 -164.776827 
L 405.653124 -168.009657 
L 406.449361 -169.936049 
L 407.245599 -169.726197 
L 408.041836 -167.498678 
L 408.838074 -164.373436 
L 409.634311 -162.063132 
L 410.430549 -162.160945 
L 411.226786 -165.464465 
L 412.023024 -171.636174 
L 412.819261 -179.299926 
L 413.615499 -186.487594 
L 413.615499 -277.533472 
L 413.615499 -277.533472 
L 412.819261 -271.041685 
L 412.023024 -264.298226 
L 411.226786 -259.084127 
L 410.430549 -256.561739 
L 409.634311 -256.91205 
L 408.838074 -259.372948 
L 408.041836 -262.599445 
L 407.245599 -265.165503 
L 406.449361 -266.049853 
L 405.653124 -264.985367 
L 404.856886 -262.539976 
L 404.060649 -259.84123 
L 403.264411 -258.034081 
L 402.468174 -257.736588 
L 401.671936 -258.759878 
L 400.875699 -260.197875 
L 400.079461 -260.818248 
L 399.283223 -259.606188 
L 398.486986 -256.294031 
L 397.690748 -251.665963 
L 396.894511 -247.422516 
L 396.098273 -245.559773 
L 395.302036 -247.497103 
L 394.505798 -253.35645 
L 393.709561 -261.732444 
L 392.913323 -270.06334 
L 392.117086 -275.468525 
L 391.320848 -275.753289 
L 390.524611 -270.216707 
L 389.728373 -259.948665 
L 388.932136 -247.482146 
L 388.135898 -235.925005 
L 387.339661 -227.900236 
L 386.543423 -224.673534 
L 385.747186 -225.762703 
L 384.950948 -229.186905 
L 384.15471 -232.327039 
L 383.358473 -233.083041 
L 382.562235 -230.78057 
L 381.765998 -226.364011 
L 380.96976 -221.807914 
L 380.173523 -219.107505 
L 379.377285 -219.375238 
L 378.581048 -222.405217 
L 377.78481 -226.789985 
L 376.988573 -230.500653 
L 376.192335 -231.746543 
L 375.396098 -229.80837 
L 374.59986 -225.450102 
L 373.803623 -220.649335 
L 373.007385 -217.743101 
L 372.211148 -218.405049 
L 371.41491 -222.926818 
L 370.618673 -230.084975 
L 369.822435 -237.612159 
L 369.026198 -243.093038 
L 368.22996 -244.966371 
L 367.433722 -243.209793 
L 366.637485 -239.340872 
L 365.841247 -235.69853 
L 365.04501 -234.378016 
L 364.248772 -236.339769 
L 363.452535 -241.038784 
L 362.656297 -246.647982 
L 361.86006 -250.744826 
L 361.063822 -251.222791 
L 360.267585 -247.141532 
L 359.471347 -239.189857 
L 358.67511 -229.493185 
L 357.878872 -220.787951 
L 357.082635 -215.351993 
L 356.286397 -214.195534 
L 355.49016 -216.815924 
L 354.693922 -221.526691 
L 353.897685 -226.175895 
L 353.101447 -228.977272 
L 352.30521 -229.148383 
L 351.508972 -227.110363 
L 350.712734 -224.186733 
L 349.916497 -221.965526 
L 349.120259 -221.608593 
L 348.324022 -223.360044 
L 347.527784 -226.422084 
L 346.731547 -229.290518 
L 345.935309 -230.481383 
L 345.139072 -229.310828 
L 344.342834 -226.26838 
L 343.546597 -222.747854 
L 342.750359 -220.323513 
L 341.954122 -220.036969 
L 341.157884 -222.038402 
L 340.361647 -225.593102 
L 339.565409 -229.33264 
L 338.769172 -231.707571 
L 337.972934 -231.59338 
L 337.176697 -228.825286 
L 336.380459 -224.341262 
L 335.584221 -219.798791 
L 334.787984 -216.857856 
L 333.991746 -216.504449 
L 333.195509 -218.699658 
L 332.399271 -222.422277 
L 331.603034 -226.038296 
L 330.806796 -227.888647 
L 330.010559 -226.931918 
L 329.214321 -223.208532 
L 328.418084 -217.909474 
L 327.621846 -212.981814 
L 326.825609 -210.409773 
L 326.029371 -211.463902 
L 325.233134 -216.236085 
L 324.436896 -223.643695 
L 323.640659 -231.856326 
L 322.844421 -238.915852 
L 322.048184 -243.294899 
L 321.251946 -244.271276 
L 320.455709 -242.129881 
L 319.659471 -238.163506 
L 318.863233 -234.357155 
L 318.066996 -232.737484 
L 317.270758 -234.599443 
L 316.474521 -239.99265 
L 315.678283 -247.771456 
L 314.882046 -256.154307 
L 314.085808 -263.422258 
L 313.289571 -268.416095 
L 312.493333 -270.747375 
L 311.697096 -270.812105 
L 310.900858 -269.645065 
L 310.104621 -268.551339 
L 309.308383 -268.524281 
L 308.512146 -269.691241 
L 307.715908 -271.186136 
L 306.919671 -271.631262 
L 306.123433 -269.924301 
L 305.327196 -265.805769 
L 304.530958 -259.902498 
L 303.73472 -253.359288 
L 302.938483 -247.427588 
L 302.142245 -243.196932 
L 301.346008 -241.348715 
L 300.54977 -241.870879 
L 299.753533 -243.935812 
L 298.957295 -246.192547 
L 298.161058 -247.423022 
L 297.36482 -247.152026 
L 296.568583 -245.791449 
L 295.772345 -244.279006 
L 294.976108 -243.572777 
L 294.17987 -244.320934 
L 293.383633 -246.681289 
L 292.587395 -250.209013 
L 291.791158 -253.913447 
L 290.99492 -256.596505 
L 290.198683 -257.373995 
L 289.402445 -256.096196 
L 288.606208 -253.431098 
L 287.80997 -250.593779 
L 287.013732 -248.875885 
L 286.217495 -249.146894 
L 285.421257 -251.471524 
L 284.62502 -255.005121 
L 283.828782 -258.288862 
L 283.032545 -259.863128 
L 282.236307 -258.893463 
L 281.44007 -255.494342 
L 280.643832 -250.650172 
L 279.847595 -245.842979 
L 279.051357 -242.538334 
L 278.25512 -241.65172 
L 277.458882 -243.161308 
L 276.662645 -246.081809 
L 275.866407 -248.903953 
L 275.07017 -250.328397 
L 274.273932 -249.906455 
L 273.477695 -248.247 
L 272.681457 -246.708096 
L 271.88522 -246.759533 
L 271.088982 -249.313878 
L 270.292744 -254.279029 
L 269.496507 -260.481862 
L 268.700269 -265.986768 
L 267.904032 -268.699484 
L 267.107794 -267.063083 
L 266.311557 -260.641063 
L 265.515319 -250.384106 
L 264.719082 -238.409581 
L 263.922844 -227.298127 
L 263.126607 -219.187797 
L 262.330369 -215.087129 
L 261.534132 -214.686277 
L 260.737894 -216.657242 
L 259.941657 -219.243687 
L 259.145419 -220.906924 
L 258.349182 -220.818621 
L 257.552944 -219.018412 
L 256.756707 -216.164134 
L 255.960469 -213.03074 
L 255.164231 -210.085437 
L 254.367994 -207.378046 
L 253.571756 -204.71357 
L 252.775519 -201.887663 
L 251.979281 -198.832782 
L 251.183044 -195.744915 
L 250.386806 -193.249267 
L 249.590569 -192.383489 
L 248.794331 -194.178848 
L 247.998094 -198.997997 
L 247.201856 -206.08597 
L 246.405619 -213.694387 
L 245.609381 -219.716997 
L 244.813144 -222.452758 
L 244.016906 -221.17001 
L 243.220669 -216.369753 
L 242.424431 -209.712528 
L 241.628194 -203.528008 
L 240.831956 -199.964474 
L 240.035719 -200.148396 
L 239.239481 -203.830419 
L 238.443243 -209.668357 
L 237.647006 -215.85948 
L 236.850768 -220.718835 
L 236.054531 -223.057804 
L 235.258293 -222.484943 
L 234.462056 -219.603992 
L 233.665818 -215.828253 
L 232.869581 -212.737463 
L 232.073343 -211.333946 
L 231.277106 -211.682103 
L 230.480868 -213.096764 
L 229.684631 -214.62328 
L 228.888393 -215.463362 
L 228.092156 -215.235133 
L 227.295918 -214.131271 
L 226.499681 -212.928786 
L 225.703443 -212.681662 
L 224.907206 -214.09813 
L 224.110968 -216.942543 
L 223.31473 -219.937814 
L 222.518493 -221.310494 
L 221.722255 -219.628732 
L 220.926018 -214.470229 
L 220.12978 -206.653159 
L 219.333543 -197.984461 
L 218.537305 -190.65997 
L 217.741068 -186.554981 
L 216.94483 -186.629793 
L 216.148593 -190.597196 
L 215.352355 -196.933175 
L 214.556118 -203.266355 
L 213.75988 -207.107005 
L 212.963643 -206.720245 
L 212.167405 -201.787209 
L 211.371168 -193.525173 
L 210.57493 -184.200615 
L 209.778693 -176.285445 
L 208.982455 -171.644485 
L 208.186218 -171.030503 
L 207.38998 -173.972975 
L 206.593742 -179.037063 
L 205.797505 -184.357723 
L 205.001267 -188.257985 
L 204.20503 -189.716677 
L 203.408792 -188.553239 
L 202.612555 -185.360359 
L 201.816317 -181.270718 
L 201.02008 -177.59979 
L 200.223842 -175.396069 
L 199.427605 -175.032068 
L 198.631367 -176.11868 
L 197.83513 -177.899498 
L 197.038892 -179.814023 
L 196.242655 -181.744864 
L 195.446417 -183.840215 
L 194.65018 -186.212706 
L 193.853942 -188.80806 
L 193.057705 -191.428626 
L 192.261467 -193.753215 
L 191.46523 -195.349446 
L 190.668992 -195.835324 
L 189.872754 -195.20657 
L 189.076517 -194.030556 
L 188.280279 -193.210881 
L 187.484042 -193.450142 
L 186.687804 -194.873173 
L 185.891567 -197.054879 
L 185.095329 -199.259044 
L 184.299092 -200.628605 
L 183.502854 -200.327775 
L 182.706617 -197.8356 
L 181.910379 -193.389678 
L 181.114142 -188.180261 
L 180.317904 -183.939895 
L 179.521667 -182.119416 
L 178.725429 -183.272494 
L 177.929192 -187.002245 
L 177.132954 -192.246079 
L 176.336717 -197.573659 
L 175.540479 -201.428729 
L 174.744241 -202.451059 
L 173.948004 -199.941841 
L 173.151766 -194.233623 
L 172.355529 -186.656794 
L 171.559291 -179.081363 
L 170.763054 -173.273663 
L 169.966816 -170.330943 
L 169.170579 -170.355148 
L 168.374341 -172.456617 
L 167.578104 -175.1162 
L 166.781866 -176.787285 
L 165.985629 -176.467616 
L 165.189391 -173.97601 
L 164.393154 -169.864651 
L 163.596916 -165.138156 
L 162.800679 -160.976546 
L 162.004441 -158.475949 
L 161.208204 -158.366262 
L 160.411966 -160.783115 
L 159.615729 -165.205533 
L 158.819491 -170.567594 
L 158.023253 -175.484992 
L 157.227016 -178.590807 
L 156.430778 -178.970685 
L 155.634541 -176.525734 
L 154.838303 -172.007319 
L 154.042066 -166.632143 
L 153.245828 -161.49849 
L 152.449591 -157.222284 
L 151.653353 -153.997385 
L 150.857116 -151.851184 
L 150.060878 -150.76704 
L 149.264641 -150.624752 
L 148.468403 -151.180805 
L 147.672166 -152.21577 
L 146.875928 -153.66024 
L 146.079691 -155.483578 
L 145.283453 -157.422459 
L 144.487216 -158.85476 
L 143.690978 -159.009143 
L 142.89474 -157.360749 
L 142.098503 -153.923551 
L 141.302265 -149.307113 
L 140.506028 -144.566536 
L 139.70979 -140.89031 
L 138.913553 -139.171836 
L 138.117315 -139.619802 
L 137.321078 -141.652552 
L 136.52484 -144.175777 
L 135.728603 -146.062905 
L 134.932365 -146.562752 
L 134.136128 -145.510798 
L 133.33989 -143.374041 
L 132.543653 -141.126107 
L 131.747415 -139.873227 
L 130.951178 -140.274875 
L 130.15494 -142.065547 
L 129.358703 -144.06165 
L 128.562465 -144.712004 
L 127.766228 -142.836278 
L 126.96999 -138.145863 
L 126.173752 -131.395236 
L 125.377515 -124.221136 
L 124.581277 -118.713577 
L 123.78504 -116.715516 
L 122.988802 -119.024822 
L 122.192565 -124.934312 
L 121.396327 -132.466794 
L 120.60009 -139.181539 
L 119.803852 -143.079967 
L 119.007615 -143.223354 
L 118.211377 -139.955019 
L 117.41514 -134.775337 
L 116.618902 -129.88195 
L 115.822665 -127.405992 
L 115.026427 -128.576696 
L 114.23019 -133.220733 
L 113.433952 -139.892163 
L 112.637715 -146.54601 
L 111.841477 -151.364485 
L 111.04524 -153.373516 
L 110.249002 -152.685307 
L 109.452764 -150.343259 
L 108.656527 -147.825859 
L 107.860289 -146.379658 
L 107.064052 -146.462316 
L 106.267814 -147.563153 
L 105.471577 -148.491344 
L 104.675339 -147.984366 
L 103.879102 -145.351786 
L 103.082864 -140.876554 
L 102.286627 -135.794061 
L 101.490389 -131.824499 
L 100.694152 -130.425486 
L 99.897914 -132.090349 
L 99.101677 -136.048013 
L 98.305439 -140.547171 
L 97.509202 -143.594236 
L 96.712964 -143.783681 
L 95.916727 -140.856156 
L 95.120489 -135.79012 
L 94.324251 -130.446917 
L 93.528014 -126.932555 
L 92.731776 -126.876053 
L 91.935539 -130.81741 
L 91.139301 -137.914683 
L 90.343064 -146.181027 
L 89.546826 -153.274662 
L 88.750589 -157.491989 
L 87.954351 -158.426289 
L 87.158114 -156.937306 
L 86.361876 -154.495179 
L 85.565639 -152.392976 
L 84.769401 -151.30966 
L 83.973164 -151.220277 
L 83.176926 -151.454967 
L 82.380689 -150.923562 
L 81.584451 -148.610493 
L 80.788214 -144.194252 
L 79.991976 -138.373626 
L 79.195739 -132.601728 
L 78.399501 -128.386672 
L 77.603263 -126.672436 
L 76.807026 -127.609991 
L 76.010788 -130.589751 
L 75.214551 -134.38667 
L 74.418313 -137.489655 
L 73.622076 -138.679481 
L 72.825838 -137.607352 
L 72.029601 -134.94644 
L 71.233363 -131.968855 
L 70.437126 -129.878149 
L 69.640888 -129.349098 
L 68.844651 -130.375138 
L 68.048413 -132.30241 
L 67.252176 -134.016001 
L 66.455938 -134.310424 
L 65.659701 -132.389961 
L 64.863463 -128.281293 
L 64.067226 -122.891834 
L 63.270988 -117.627449 
L 62.47475 -113.777642 
L 61.678513 -112.018232 
L 60.882275 -112.234128 
L 60.086038 -113.656809 
L 59.2898 -115.228281 
L 58.493563 -116.049523 
L 57.697325 -115.73012 
L 56.901088 -114.518399 
L 56.10485 -113.210099 
L 55.308613 -112.860753 
L 54.512375 -114.320473 
L 53.716138 -117.71834 
L 52.9199 -122.17358 
L 52.123663 -125.999589 
L 51.327425 -127.399321 
L 50.531188 -125.328082 
L 49.73495 -120.087413 
L 48.938713 -113.330559 
L 48.142475 -107.453022 
L 47.346238 -104.700967 
L 46.55 -106.406575 
z
" style="stroke: #e41a1c; stroke-opacity: 0.3"/>
    </defs>
    <g clip-path="url(#pd2a405df2b)">
     <use xlink:href="#mf39b8d9d49" x="0" y="360" style="fill: #e41a1c; fill-opacity: 0.3; stroke: #e41a1c; stroke-opacity: 0.3"/>
    </g>
   </g>
   <g id="PolyCollection_2">
    <defs>
     <path id="m8382d52f1f" d="M 46.55 -126.940652 
L 46.55 -97.620652 
L 47.346238 -98.718619 
L 48.142475 -100.361257 
L 48.938713 -101.570693 
L 49.73495 -101.635633 
L 50.531188 -100.36284 
L 51.327425 -98.075681 
L 52.123663 -95.458219 
L 52.9199 -93.362253 
L 53.716138 -92.565748 
L 54.512375 -93.453999 
L 55.308613 -95.766074 
L 56.10485 -98.622243 
L 56.901088 -100.917266 
L 57.697325 -101.905526 
L 58.493563 -101.532253 
L 59.2898 -100.287628 
L 60.086038 -98.861024 
L 60.882275 -97.870829 
L 61.678513 -97.72636 
L 62.47475 -98.551237 
L 63.270988 -100.088909 
L 64.067226 -101.680696 
L 64.863463 -102.473462 
L 65.659701 -101.82263 
L 66.455938 -99.655881 
L 67.252176 -96.556257 
L 68.048413 -93.528627 
L 68.844651 -91.610791 
L 69.640888 -91.499908 
L 70.437126 -93.288674 
L 71.233363 -96.374088 
L 72.029601 -99.604229 
L 72.825838 -101.669935 
L 73.622076 -101.604985 
L 74.418313 -99.155151 
L 75.214551 -94.848577 
L 76.010788 -89.785386 
L 76.807026 -85.275829 
L 77.603263 -82.442368 
L 78.399501 -81.864203 
L 79.195739 -83.371499 
L 79.991976 -86.112959 
L 80.788214 -88.914688 
L 81.584451 -90.781822 
L 82.380689 -91.294909 
L 83.176926 -90.70609 
L 83.973164 -89.723873 
L 84.769401 -89.132423 
L 85.565639 -89.43332 
L 86.361876 -90.665908 
L 87.158114 -92.466267 
L 87.954351 -94.28363 
L 88.750589 -95.613083 
L 89.546826 -96.163092 
L 90.343064 -95.938278 
L 91.139301 -95.236723 
L 91.935539 -94.554682 
L 92.731776 -94.378625 
L 93.528014 -94.910159 
L 94.324251 -95.901023 
L 95.120489 -96.76649 
L 95.916727 -96.937408 
L 96.712964 -96.202903 
L 97.509202 -94.814088 
L 98.305439 -93.337699 
L 99.101677 -92.395954 
L 99.897914 -92.412943 
L 100.694152 -93.425957 
L 101.490389 -95.000665 
L 102.286627 -96.309834 
L 103.082864 -96.409299 
L 103.879102 -94.638926 
L 104.675339 -90.981223 
L 105.471577 -86.204588 
L 106.267814 -81.69523 
L 107.064052 -79.008972 
L 107.860289 -79.307649 
L 108.656527 -82.914 
L 109.452764 -89.169539 
L 110.249002 -96.636611 
L 111.04524 -103.544798 
L 111.841477 -108.325067 
L 112.637715 -110.087984 
L 113.433952 -108.910034 
L 114.23019 -105.793342 
L 115.026427 -102.255596 
L 115.822665 -99.711597 
L 116.618902 -98.94891 
L 117.41514 -99.934522 
L 118.211377 -101.975002 
L 119.007615 -104.064324 
L 119.803852 -105.249225 
L 120.60009 -104.948226 
L 121.396327 -103.177386 
L 122.192565 -100.574099 
L 122.988802 -98.133386 
L 123.78504 -96.748816 
L 124.581277 -96.816366 
L 125.377515 -98.110319 
L 126.173752 -99.934706 
L 126.96999 -101.411757 
L 127.766228 -101.786274 
L 128.562465 -100.686164 
L 129.358703 -98.271604 
L 130.15494 -95.182254 
L 130.951178 -92.257957 
L 131.747415 -90.160855 
L 132.543653 -89.117952 
L 133.33989 -88.915605 
L 134.136128 -89.096929 
L 134.932365 -89.22025 
L 135.728603 -89.075745 
L 136.52484 -88.811838 
L 137.321078 -88.927155 
L 138.117315 -90.088619 
L 138.913553 -92.800467 
L 139.70979 -97.064049 
L 140.506028 -102.226396 
L 141.302265 -107.125548 
L 142.098503 -110.469952 
L 142.89474 -111.282016 
L 143.690978 -109.246282 
L 144.487216 -104.866038 
L 145.283453 -99.380315 
L 146.079691 -94.429077 
L 146.875928 -91.529651 
L 147.672166 -91.547116 
L 148.468403 -94.398092 
L 149.264641 -99.130009 
L 150.060878 -104.322281 
L 150.857116 -108.602366 
L 151.653353 -111.064494 
L 152.449591 -111.485461 
L 153.245828 -110.319918 
L 154.042066 -108.487695 
L 154.838303 -107.001783 
L 155.634541 -106.565441 
L 156.430778 -107.324379 
L 157.227016 -108.897112 
L 158.023253 -110.643569 
L 158.819491 -112.002095 
L 159.615729 -112.731064 
L 160.411966 -112.98923 
L 161.208204 -113.260322 
L 162.004441 -114.138316 
L 162.800679 -116.012968 
L 163.596916 -118.777004 
L 164.393154 -121.732173 
L 165.189391 -123.792421 
L 165.985629 -123.909479 
L 166.781866 -121.51606 
L 167.578104 -116.787795 
L 168.374341 -110.638706 
L 169.170579 -104.478864 
L 169.966816 -99.814568 
L 170.763054 -97.789701 
L 171.559291 -98.796933 
L 172.355529 -102.311189 
L 173.151766 -107.045009 
L 173.948004 -111.391268 
L 174.744241 -113.983999 
L 175.540479 -114.151585 
L 176.336717 -112.087752 
L 177.132954 -108.697846 
L 177.929192 -105.213932 
L 178.725429 -102.741839 
L 179.521667 -101.89606 
L 180.317904 -102.630151 
L 181.114142 -104.31292 
L 181.910379 -106.029906 
L 182.706617 -107.001898 
L 183.502854 -106.936295 
L 184.299092 -106.127903 
L 185.095329 -105.253561 
L 185.891567 -104.992918 
L 186.687804 -105.694583 
L 187.484042 -107.234307 
L 188.280279 -109.076354 
L 189.076517 -110.475466 
L 189.872754 -110.756086 
L 190.668992 -109.592956 
L 191.46523 -107.175107 
L 192.261467 -104.138506 
L 193.057705 -101.26043 
L 193.853942 -99.07161 
L 194.65018 -97.612149 
L 195.446417 -96.454967 
L 196.242655 -94.947684 
L 197.038892 -92.540496 
L 197.83513 -89.088011 
L 198.631367 -85.032103 
L 199.427605 -81.366419 
L 200.223842 -79.321853 
L 201.02008 -79.843746 
L 201.816317 -83.093624 
L 202.612555 -88.250651 
L 203.408792 -93.745874 
L 204.20503 -97.832645 
L 205.001267 -99.237343 
L 205.797505 -97.632844 
L 206.593742 -93.778686 
L 207.38998 -89.283444 
L 208.186218 -86.049816 
L 208.982455 -85.570172 
L 209.778693 -88.322178 
L 210.57493 -93.515816 
L 211.371168 -99.331111 
L 212.167405 -103.58935 
L 212.963643 -104.599257 
L 213.75988 -101.812361 
L 214.556118 -95.999313 
L 215.352355 -88.898472 
L 216.148593 -82.526947 
L 216.94483 -78.455088 
L 217.741068 -77.312991 
L 218.537305 -78.666499 
L 219.333543 -81.261703 
L 220.12978 -83.547246 
L 220.926018 -84.304173 
L 221.722255 -83.140784 
L 222.518493 -80.629108 
L 223.31473 -78.010134 
L 224.110968 -76.604434 
L 224.907206 -77.204935 
L 225.703443 -79.721344 
L 226.499681 -83.213606 
L 227.295918 -86.279212 
L 228.092156 -87.623883 
L 228.888393 -86.584823 
L 229.684631 -83.398514 
L 230.480868 -79.10596 
L 231.277106 -75.138068 
L 232.073343 -72.755778 
L 232.869581 -72.570307 
L 233.665818 -74.323981 
L 234.462056 -77.005222 
L 235.258293 -79.248841 
L 236.054531 -79.870594 
L 236.850768 -78.332806 
L 237.647006 -74.953127 
L 238.443243 -70.761464 
L 239.239481 -67.064547 
L 240.035719 -64.916095 
L 240.831956 -64.725756 
L 241.628194 -66.160387 
L 242.424431 -68.351852 
L 243.220669 -70.293948 
L 244.016906 -71.245248 
L 244.813144 -70.979441 
L 245.609381 -69.811206 
L 246.405619 -68.418467 
L 247.201856 -67.543723 
L 247.998094 -67.68318 
L 248.794331 -68.874313 
L 249.590569 -70.67164 
L 250.386806 -72.3399 
L 251.183044 -73.19588 
L 251.979281 -72.940317 
L 252.775519 -71.807087 
L 253.571756 -70.45374 
L 254.367994 -69.66452 
L 255.164231 -70.019064 
L 255.960469 -71.658333 
L 256.756707 -74.209669 
L 257.552944 -76.882977 
L 258.349182 -78.724845 
L 259.145419 -78.976217 
L 259.941657 -77.4129 
L 260.737894 -74.502716 
L 261.534132 -71.262384 
L 262.330369 -68.860591 
L 263.126607 -68.167032 
L 263.922844 -69.454128 
L 264.719082 -72.346428 
L 265.515319 -75.992515 
L 266.311557 -79.374393 
L 267.107794 -81.65754 
L 267.904032 -82.477251 
L 268.700269 -82.056291 
L 269.496507 -81.091017 
L 270.292744 -80.435334 
L 271.088982 -80.712212 
L 271.88522 -82.024935 
L 272.681457 -83.89441 
L 273.477695 -85.450012 
L 274.273932 -85.803557 
L 275.07017 -84.462003 
L 275.866407 -81.596921 
L 276.662645 -78.026065 
L 277.458882 -74.89678 
L 278.25512 -73.221539 
L 279.051357 -73.484034 
L 279.847595 -75.466492 
L 280.643832 -78.326333 
L 281.44007 -80.878014 
L 282.236307 -82.015266 
L 283.032545 -81.1634 
L 283.828782 -78.583481 
L 284.62502 -75.34231 
L 285.421257 -72.893272 
L 286.217495 -72.442067 
L 287.013732 -74.408576 
L 287.80997 -78.229404 
L 288.606208 -82.555366 
L 289.402445 -85.729156 
L 290.198683 -86.359948 
L 290.99492 -83.817401 
L 291.791158 -78.488716 
L 292.587395 -71.691391 
L 293.383633 -65.244357 
L 294.17987 -60.842121 
L 294.976108 -59.466958 
L 295.772345 -61.059887 
L 296.568583 -64.568107 
L 297.36482 -68.345739 
L 298.161058 -70.755042 
L 298.957295 -70.739703 
L 299.753533 -68.157545 
L 300.54977 -63.766979 
L 301.346008 -58.903324 
L 302.142245 -54.985041 
L 302.938483 -53.025403 
L 303.73472 -53.308298 
L 304.530958 -55.337412 
L 305.327196 -58.081384 
L 306.123433 -60.419611 
L 306.919671 -61.595698 
L 307.715908 -61.481722 
L 308.512146 -60.560734 
L 309.308383 -59.669742 
L 310.104621 -59.627593 
L 310.900858 -60.891574 
L 311.697096 -63.367552 
L 312.493333 -66.44784 
L 313.289571 -69.264627 
L 314.085808 -71.049655 
L 314.882046 -71.444693 
L 315.678283 -70.645431 
L 316.474521 -69.338559 
L 317.270758 -68.453656 
L 318.066996 -68.798455 
L 318.863233 -70.701182 
L 319.659471 -73.822226 
L 320.455709 -77.255658 
L 321.251946 -79.898042 
L 322.048184 -80.89778 
L 322.844421 -79.959897 
L 323.640659 -77.407631 
L 324.436896 -74.043177 
L 325.233134 -70.883638 
L 326.029371 -68.828518 
L 326.825609 -68.340248 
L 327.621846 -69.278878 
L 328.418084 -71.009592 
L 329.214321 -72.754791 
L 330.010559 -74.001293 
L 330.806796 -74.736625 
L 331.603034 -75.406465 
L 332.399271 -76.643641 
L 333.195509 -78.904377 
L 333.991746 -82.166585 
L 334.787984 -85.832544 
L 335.584221 -88.912997 
L 336.380459 -90.432869 
L 337.176697 -89.865175 
L 337.972934 -87.38509 
L 338.769172 -83.846217 
L 339.565409 -80.506471 
L 340.361647 -78.599486 
L 341.157884 -78.879176 
L 341.954122 -81.296531 
L 342.750359 -84.970008 
L 343.546597 -88.513921 
L 344.342834 -90.606458 
L 345.139072 -90.536092 
L 345.935309 -88.476336 
L 346.731547 -85.387391 
L 347.527784 -82.609476 
L 348.324022 -81.314063 
L 349.120259 -82.017409 
L 349.916497 -84.347104 
L 350.712734 -87.171428 
L 351.508972 -89.057298 
L 352.30521 -88.875777 
L 353.101447 -86.303556 
L 353.897685 -82.009658 
L 354.693922 -77.443054 
L 355.49016 -74.297965 
L 356.286397 -73.869486 
L 357.082635 -76.559896 
L 357.878872 -81.72563 
L 358.67511 -87.908332 
L 359.471347 -93.350218 
L 360.267585 -96.606514 
L 361.063822 -97.040482 
L 361.86006 -95.01567 
L 362.656297 -91.700306 
L 363.452535 -88.564953 
L 364.248772 -86.804537 
L 365.04501 -86.937483 
L 365.841247 -88.713893 
L 366.637485 -91.304931 
L 367.433722 -93.658726 
L 368.22996 -94.900067 
L 369.026198 -94.655568 
L 369.822435 -93.183958 
L 370.618673 -91.236155 
L 371.41491 -89.696039 
L 372.211148 -89.186515 
L 373.007385 -89.839429 
L 373.803623 -91.307455 
L 374.59986 -92.956776 
L 375.396098 -94.127855 
L 376.192335 -94.375567 
L 376.988573 -93.624359 
L 377.78481 -92.183617 
L 378.581048 -90.605434 
L 379.377285 -89.441919 
L 380.173523 -89.017921 
L 380.96976 -89.322471 
L 381.765998 -90.049846 
L 382.562235 -90.752942 
L 383.358473 -91.044094 
L 384.15471 -90.773934 
L 384.950948 -90.117683 
L 385.747186 -89.519276 
L 386.543423 -89.503761 
L 387.339661 -90.438851 
L 388.135898 -92.354715 
L 388.932136 -94.899439 
L 389.728373 -97.441476 
L 390.524611 -99.271132 
L 391.320848 -99.827927 
L 392.117086 -98.88904 
L 392.913323 -96.67424 
L 393.709561 -93.836666 
L 394.505798 -91.31622 
L 395.302036 -90.060379 
L 396.098273 -90.69182 
L 396.894511 -93.274314 
L 397.690748 -97.30514 
L 398.486986 -101.931197 
L 399.283223 -106.250729 
L 400.079461 -109.552296 
L 400.875699 -111.449183 
L 401.671936 -111.939034 
L 402.468174 -111.390905 
L 403.264411 -110.421229 
L 404.060649 -109.659503 
L 404.856886 -109.506687 
L 405.653124 -110.026094 
L 406.449361 -111.015739 
L 407.245599 -112.184853 
L 408.041836 -113.318478 
L 408.838074 -114.368441 
L 409.634311 -115.460754 
L 410.430549 -116.81055 
L 411.226786 -118.54644 
L 412.023024 -120.515545 
L 412.819261 -122.204902 
L 413.615499 -122.875505 
L 413.615499 -177.733659 
L 413.615499 -177.733659 
L 412.819261 -177.027437 
L 412.023024 -175.376663 
L 411.226786 -173.409027 
L 410.430549 -171.575283 
L 409.634311 -170.070276 
L 408.838074 -168.850756 
L 408.041836 -167.747466 
L 407.245599 -166.635139 
L 406.449361 -165.562259 
L 405.653124 -164.744657 
L 404.856886 -164.427345 
L 404.060649 -164.717663 
L 403.264411 -165.486333 
L 402.468174 -166.356627 
L 401.671936 -166.764754 
L 400.875699 -166.097372 
L 400.079461 -163.913652 
L 399.283223 -160.183815 
L 398.486986 -155.400621 
L 397.690748 -150.460622 
L 396.894511 -146.360955 
L 396.098273 -143.87867 
L 395.302036 -143.373049 
L 394.505798 -144.729253 
L 393.709561 -147.398747 
L 392.913323 -150.519712 
L 392.117086 -153.129179 
L 391.320848 -154.442835 
L 390.524611 -154.104804 
L 389.728373 -152.289349 
L 388.932136 -149.604264 
L 388.135898 -146.843188 
L 387.339661 -144.696165 
L 386.543423 -143.532931 
L 385.747186 -143.329422 
L 384.950948 -143.740854 
L 384.15471 -144.273198 
L 383.358473 -144.487915 
L 382.562235 -144.177502 
L 381.765998 -143.451314 
L 380.96976 -142.686206 
L 380.173523 -142.347957 
L 379.377285 -142.760288 
L 378.581048 -143.933583 
L 377.78481 -145.533208 
L 376.988573 -146.995078 
L 376.192335 -147.739912 
L 375.396098 -147.413797 
L 374.59986 -146.068182 
L 373.803623 -144.186783 
L 373.007385 -142.511944 
L 372.211148 -141.728459 
L 371.41491 -142.159794 
L 370.618673 -143.62811 
L 369.822435 -145.526045 
L 369.026198 -147.045632 
L 368.22996 -147.478096 
L 367.433722 -146.506258 
L 366.637485 -144.395006 
L 365.841247 -141.963766 
L 365.04501 -140.28759 
L 364.248772 -140.226621 
L 363.452535 -142.008328 
L 362.656297 -145.070692 
L 361.86006 -148.232362 
L 361.063822 -150.10669 
L 360.267585 -149.603743 
L 359.471347 -146.357213 
L 358.67511 -140.928888 
L 357.878872 -134.686203 
L 357.082635 -129.356291 
L 356.286397 -126.410732 
L 355.49016 -126.530315 
L 354.693922 -129.369057 
L 353.897685 -133.705491 
L 353.101447 -137.913336 
L 352.30521 -140.56745 
L 351.508972 -140.955576 
L 350.712734 -139.303055 
L 349.916497 -136.627823 
L 349.120259 -134.288681 
L 348.324022 -133.410435 
L 347.527784 -134.416237 
L 346.731547 -136.856972 
L 345.935309 -139.614716 
L 345.139072 -141.400017 
L 344.342834 -141.320977 
L 343.546597 -139.263752 
L 342.750359 -135.928856 
L 341.954122 -132.542039 
L 341.157884 -130.379679 
L 340.361647 -130.280676 
L 339.565409 -132.310205 
L 338.769172 -135.713108 
L 337.972934 -139.206922 
L 337.176697 -141.506898 
L 336.380459 -141.836063 
L 335.584221 -140.175386 
L 334.787984 -137.165075 
L 333.991746 -133.757434 
L 333.195509 -130.809068 
L 332.399271 -128.771791 
L 331.603034 -127.582 
L 330.806796 -126.784575 
L 330.010559 -125.83231 
L 329.214321 -124.407638 
L 328.418084 -122.60201 
L 327.621846 -120.883156 
L 326.825609 -119.895806 
L 326.029371 -120.186128 
L 325.233134 -121.933475 
L 324.436896 -124.782099 
L 323.640659 -127.879437 
L 322.844421 -130.169215 
L 322.048184 -130.83323 
L 321.251946 -129.646228 
L 320.455709 -127.047607 
L 319.659471 -123.918068 
L 318.863233 -121.213794 
L 318.066996 -119.627767 
L 317.270758 -119.368421 
L 316.474521 -120.099018 
L 315.678283 -121.068829 
L 314.882046 -121.41803 
L 314.085808 -120.54659 
L 313.289571 -118.378158 
L 312.493333 -115.390479 
L 311.697096 -112.403766 
L 310.900858 -110.231786 
L 310.104621 -109.344758 
L 309.308383 -109.674712 
L 308.512146 -110.640952 
L 307.715908 -111.394143 
L 306.919671 -111.18446 
L 306.123433 -109.696419 
L 305.327196 -107.206261 
L 304.530958 -104.504196 
L 303.73472 -102.621541 
L 302.938483 -102.456431 
L 302.142245 -104.412468 
L 301.346008 -108.179048 
L 300.54977 -112.76337 
L 299.753533 -116.800337 
L 298.957295 -119.042757 
L 298.161058 -118.841179 
L 297.36482 -116.419032 
L 296.568583 -112.83563 
L 295.772345 -109.649505 
L 294.976108 -108.392225 
L 294.17987 -110.025007 
L 293.383633 -114.569929 
L 292.587395 -121.059567 
L 291.791158 -127.836076 
L 290.99492 -133.102035 
L 290.198683 -135.535189 
L 289.402445 -134.750158 
L 288.606208 -131.427797 
L 287.80997 -127.043238 
L 287.013732 -123.289235 
L 286.217495 -121.441084 
L 285.421257 -121.935927 
L 284.62502 -124.310092 
L 283.828782 -127.456913 
L 283.032545 -130.062626 
L 282.236307 -131.075072 
L 281.44007 -130.088803 
L 280.643832 -127.521668 
L 279.847595 -124.471426 
L 279.051357 -122.264393 
L 278.25512 -121.886129 
L 277.458882 -123.574462 
L 276.662645 -126.767471 
L 275.866407 -130.389657 
L 275.07017 -133.298794 
L 274.273932 -134.698763 
L 273.477695 -134.389339 
L 272.681457 -132.792242 
L 271.88522 -130.749184 
L 271.088982 -129.160213 
L 270.292744 -128.604402 
L 269.496507 -129.10305 
L 268.700269 -130.12237 
L 267.904032 -130.806858 
L 267.107794 -130.347768 
L 266.311557 -128.346188 
L 265.515319 -125.023301 
L 264.719082 -121.175522 
L 263.922844 -117.876727 
L 263.126607 -116.052852 
L 262.330369 -116.123097 
L 261.534132 -117.864795 
L 260.737894 -120.534071 
L 259.941657 -123.150878 
L 259.145419 -124.818761 
L 258.349182 -124.994558 
L 257.552944 -123.66048 
L 256.756707 -121.335098 
L 255.960469 -118.874885 
L 255.164231 -117.119018 
L 254.367994 -116.536184 
L 253.571756 -117.049512 
L 252.775519 -118.122008 
L 251.979281 -119.038074 
L 251.183044 -119.223872 
L 250.386806 -118.467221 
L 249.590569 -116.9789 
L 248.794331 -115.298028 
L 247.998094 -114.070348 
L 247.201856 -113.763675 
L 246.405619 -114.432232 
L 245.609381 -115.651572 
L 244.813144 -116.68481 
L 244.016906 -116.824338 
L 243.220669 -115.748622 
L 242.424431 -113.715411 
L 241.628194 -111.493053 
L 240.831956 -110.058374 
L 240.035719 -110.194637 
L 239.239481 -112.158827 
L 238.443243 -115.55017 
L 237.647006 -119.429476 
L 236.850768 -122.647109 
L 236.054531 -124.266885 
L 235.258293 -123.939847 
L 234.462056 -122.083333 
L 233.665818 -119.766165 
L 232.869581 -118.308014 
L 232.073343 -118.737094 
L 231.277106 -121.336482 
L 230.480868 -125.487185 
L 229.684631 -129.887998 
L 228.888393 -133.065229 
L 228.092156 -133.962104 
L 227.295918 -132.366967 
L 226.499681 -129.003582 
L 225.703443 -125.239686 
L 224.907206 -122.527292 
L 224.110968 -121.808678 
L 223.31473 -123.14454 
L 222.518493 -125.721681 
L 221.722255 -128.226477 
L 220.926018 -129.421625 
L 220.12978 -128.699626 
L 219.333543 -126.401341 
L 218.537305 -123.754719 
L 217.741068 -122.411661 
L 216.94483 -123.733953 
L 216.148593 -128.133895 
L 215.352355 -134.797714 
L 214.556118 -141.944283 
L 213.75988 -147.497456 
L 212.963643 -149.865683 
L 212.167405 -148.510253 
L 211.371168 -144.108813 
L 210.57493 -138.295591 
L 209.778693 -133.091011 
L 208.982455 -130.203279 
L 208.186218 -130.427639 
L 207.38998 -133.363489 
L 206.593742 -137.574895 
L 205.797505 -141.154074 
L 205.001267 -142.474514 
L 204.20503 -140.822013 
L 203.408792 -136.63541 
L 202.612555 -131.270165 
L 201.816317 -126.427064 
L 201.02008 -123.524617 
L 200.223842 -123.257803 
L 199.427605 -125.452285 
L 198.631367 -129.212605 
L 197.83513 -133.301774 
L 197.038892 -136.635141 
L 196.242655 -138.703309 
L 195.446417 -139.724441 
L 194.65018 -140.440514 
L 193.853942 -141.669518 
L 193.057705 -143.867952 
L 192.261467 -146.925673 
L 191.46523 -150.240766 
L 190.668992 -152.981605 
L 189.872754 -154.420569 
L 189.076517 -154.23849 
L 188.280279 -152.686074 
L 187.484042 -150.501805 
L 186.687804 -148.588513 
L 185.891567 -147.600048 
L 185.095329 -147.666383 
L 184.299092 -148.401593 
L 183.502854 -149.152899 
L 182.706617 -149.328595 
L 181.910379 -148.660188 
L 181.114142 -147.3309 
L 180.317904 -145.940844 
L 179.521667 -145.291128 
L 178.725429 -146.03089 
L 177.929192 -148.308489 
L 177.132954 -151.606307 
L 176.336717 -154.868518 
L 175.540479 -156.884823 
L 174.744241 -156.764739 
L 173.948004 -154.304088 
L 173.151766 -150.107691 
L 172.355529 -145.432686 
L 171.559291 -141.807653 
L 170.763054 -140.546306 
L 169.966816 -142.306582 
L 169.170579 -146.842387 
L 168.374341 -153.053511 
L 167.578104 -159.348178 
L 166.781866 -164.193493 
L 165.985629 -166.621119 
L 165.189391 -166.47618 
L 164.393154 -164.339353 
L 163.596916 -161.212004 
L 162.800679 -158.127814 
L 162.004441 -155.822149 
L 161.208204 -154.532945 
L 160.411966 -153.983017 
L 159.615729 -153.572306 
L 158.819491 -152.726821 
L 158.023253 -151.233818 
L 157.227016 -149.368235 
L 156.430778 -147.74188 
L 155.634541 -146.979105 
L 154.838303 -147.398662 
L 154.042066 -148.828472 
L 153.245828 -150.598539 
L 152.449591 -151.722406 
L 151.653353 -151.248084 
L 150.857116 -148.677188 
L 150.060878 -144.261808 
L 149.264641 -139.004512 
L 148.468403 -134.335558 
L 147.672166 -131.617087 
L 146.875928 -131.68842 
L 146.079691 -134.596274 
L 145.283453 -139.556927 
L 144.487216 -145.150907 
L 143.690978 -149.725268 
L 142.89474 -151.914412 
L 142.098503 -151.095317 
L 141.302265 -147.572816 
L 140.506028 -142.408739 
L 139.70979 -136.988236 
L 138.913553 -132.530824 
L 138.117315 -129.736108 
L 137.321078 -128.650952 
L 136.52484 -128.760158 
L 135.728603 -129.267398 
L 134.932365 -129.483143 
L 134.136128 -129.156107 
L 133.33989 -128.571358 
L 132.543653 -128.354004 
L 131.747415 -129.093942 
L 130.951178 -131.013572 
L 130.15494 -133.843397 
L 129.358703 -136.913726 
L 128.562465 -139.381492 
L 127.766228 -140.52499 
L 126.96999 -140.042998 
L 126.173752 -138.235793 
L 125.377515 -135.931739 
L 124.581277 -134.146108 
L 123.78504 -133.638754 
L 122.988802 -134.611049 
L 122.192565 -136.670689 
L 121.396327 -139.016146 
L 120.60009 -140.730272 
L 119.803852 -141.118753 
L 119.007615 -140.029452 
L 118.211377 -137.999266 
L 117.41514 -136.073157 
L 116.618902 -135.326961 
L 115.822665 -136.347993 
L 115.026427 -138.957928 
L 114.23019 -142.271259 
L 113.433952 -144.994366 
L 112.637715 -145.828869 
L 111.841477 -143.885055 
L 111.04524 -139.027878 
L 110.249002 -132.027434 
L 109.452764 -124.384333 
L 108.656527 -117.850461 
L 107.860289 -113.847742 
L 107.064052 -113.032128 
L 106.267814 -115.148834 
L 105.471577 -119.186359 
L 104.675339 -123.744103 
L 103.879102 -127.48725 
L 103.082864 -129.551672 
L 102.286627 -129.771371 
L 101.490389 -128.651121 
L 100.694152 -127.098722 
L 99.897914 -126.019225 
L 99.101677 -125.92759 
L 98.305439 -126.752037 
L 97.509202 -127.938562 
L 96.712964 -128.799856 
L 95.916727 -128.891653 
L 95.120489 -128.19576 
L 94.324251 -127.047423 
L 93.528014 -125.929326 
L 92.731776 -125.276934 
L 91.935539 -125.318773 
L 91.139301 -125.939503 
L 90.343064 -126.641092 
L 89.546826 -126.716448 
L 88.750589 -125.611823 
L 87.954351 -123.262262 
L 87.158114 -120.177317 
L 86.361876 -117.217276 
L 85.565639 -115.18027 
L 84.769401 -114.428986 
L 83.973164 -114.749333 
L 83.176926 -115.475863 
L 82.380689 -115.796289 
L 81.584451 -115.10423 
L 80.788214 -113.25881 
L 79.991976 -110.656986 
L 79.195739 -108.119354 
L 78.399501 -106.636576 
L 77.603263 -107.0241 
L 76.807026 -109.572024 
L 76.010788 -113.835006 
L 75.214551 -118.707076 
L 74.418313 -122.809958 
L 73.622076 -125.026035 
L 72.825838 -124.907742 
L 72.029601 -122.792011 
L 71.233363 -119.630284 
L 70.437126 -116.647953 
L 69.640888 -114.938053 
L 68.844651 -115.088659 
L 68.048413 -116.982303 
L 67.252176 -119.881805 
L 66.455938 -122.773144 
L 65.659701 -124.779023 
L 64.863463 -125.43893 
L 64.067226 -124.788235 
L 63.270988 -123.302025 
L 62.47475 -121.745622 
L 61.678513 -120.90482 
L 60.882275 -121.22524 
L 60.086038 -122.539895 
L 59.2898 -124.126547 
L 58.493563 -125.112464 
L 57.697325 -124.951947 
L 56.901088 -123.668535 
L 56.10485 -121.724832 
L 55.308613 -119.712508 
L 54.512375 -118.201343 
L 53.716138 -117.705635 
L 52.9199 -118.553995 
L 52.123663 -120.686058 
L 51.327425 -123.552802 
L 50.531188 -126.284704 
L 49.73495 -128.093665 
L 48.938713 -128.643422 
L 48.142475 -128.164535 
L 47.346238 -127.317876 
L 46.55 -126.940652 
z
" style="stroke: #377eb8; stroke-opacity: 0.3"/>
    </defs>
    <g clip-path="url(#pd2a405df2b)">
     <use xlink:href="#m8382d52f1f" x="0" y="360" style="fill: #377eb8; fill-opacity: 0.3; stroke: #377eb8; stroke-opacity: 0.3"/>
    </g>
   </g>
   <g id="patch_3">
    <path d="M 229.843878 318.2 
L 229.843878 71.241125 
L 331.762281 71.241125 
L 331.762281 318.2 
z
" clip-path="url(#pd2a405df2b)" style="fill: #808080; opacity: 0.3"/>
   </g>
   <g id="matplotlib.axis_1">
    <g id="xtick_1">
     <g id="line2d_1">
      <defs>
       <path id="m38905a3f7d" d="M 0 0 
L 0 3.5 
" style="stroke: #000000; stroke-width: 0.8"/>
      </defs>
      <g>
       <use xlink:href="#m38905a3f7d" x="87.158114" y="318.2" style="stroke: #000000; stroke-width: 0.8"/>
      </g>
     </g>
     <g id="text_1">
      <!-- 0.0 -->
      <g transform="translate(79.206551 332.798437)scale(0.1 -0.1)">
       <defs>
        <path id="DejaVuSans-30" d="M 2034 4250 
Q 1547 4250 1301 3770 
Q 1056 3291 1056 2328 
Q 1056 1369 1301 889 
Q 1547 409 2034 409 
Q 2525 409 2770 889 
Q 3016 1369 3016 2328 
Q 3016 3291 2770 3770 
Q 2525 4250 2034 4250 
z
M 2034 4750 
Q 2819 4750 3233 4129 
Q 3647 3509 3647 2328 
Q 3647 1150 3233 529 
Q 2819 -91 2034 -91 
Q 1250 -91 836 529 
Q 422 1150 422 2328 
Q 422 3509 836 4129 
Q 1250 4750 2034 4750 
z
" transform="scale(0.015625)"/>
        <path id="DejaVuSans-2e" d="M 684 794 
L 1344 794 
L 1344 0 
L 684 0 
L 684 794 
z
" transform="scale(0.015625)"/>
       </defs>
       <use xlink:href="#DejaVuSans-30"/>
       <use xlink:href="#DejaVuSans-2e" x="63.623047"/>
       <use xlink:href="#DejaVuSans-30" x="95.410156"/>
      </g>
     </g>
    </g>
    <g id="xtick_2">
     <g id="line2d_2">
      <g>
       <use xlink:href="#m38905a3f7d" x="168.692836" y="318.2" style="stroke: #000000; stroke-width: 0.8"/>
      </g>
     </g>
     <g id="text_2">
      <!-- 0.2 -->
      <g transform="translate(160.741274 332.798437)scale(0.1 -0.1)">
       <defs>
        <path id="DejaVuSans-32" d="M 1228 531 
L 3431 531 
L 3431 0 
L 469 0 
L 469 531 
Q 828 903 1448 1529 
Q 2069 2156 2228 2338 
Q 2531 2678 2651 2914 
Q 2772 3150 2772 3378 
Q 2772 3750 2511 3984 
Q 2250 4219 1831 4219 
Q 1534 4219 1204 4116 
Q 875 4013 500 3803 
L 500 4441 
Q 881 4594 1212 4672 
Q 1544 4750 1819 4750 
Q 2544 4750 2975 4387 
Q 3406 4025 3406 3419 
Q 3406 3131 3298 2873 
Q 3191 2616 2906 2266 
Q 2828 2175 2409 1742 
Q 1991 1309 1228 531 
z
" transform="scale(0.015625)"/>
       </defs>
       <use xlink:href="#DejaVuSans-30"/>
       <use xlink:href="#DejaVuSans-2e" x="63.623047"/>
       <use xlink:href="#DejaVuSans-32" x="95.410156"/>
      </g>
     </g>
    </g>
    <g id="xtick_3">
     <g id="line2d_3">
      <g>
       <use xlink:href="#m38905a3f7d" x="250.227559" y="318.2" style="stroke: #000000; stroke-width: 0.8"/>
      </g>
     </g>
     <g id="text_3">
      <!-- 0.4 -->
      <g transform="translate(242.275996 332.798437)scale(0.1 -0.1)">
       <defs>
        <path id="DejaVuSans-34" d="M 2419 4116 
L 825 1625 
L 2419 1625 
L 2419 4116 
z
M 2253 4666 
L 3047 4666 
L 3047 1625 
L 3713 1625 
L 3713 1100 
L 3047 1100 
L 3047 0 
L 2419 0 
L 2419 1100 
L 313 1100 
L 313 1709 
L 2253 4666 
z
" transform="scale(0.015625)"/>
       </defs>
       <use xlink:href="#DejaVuSans-30"/>
       <use xlink:href="#DejaVuSans-2e" x="63.623047"/>
       <use xlink:href="#DejaVuSans-34" x="95.410156"/>
      </g>
     </g>
    </g>
    <g id="xtick_4">
     <g id="line2d_4">
      <g>
       <use xlink:href="#m38905a3f7d" x="331.762281" y="318.2" style="stroke: #000000; stroke-width: 0.8"/>
      </g>
     </g>
     <g id="text_4">
      <!-- 0.6 -->
      <g transform="translate(323.810719 332.798437)scale(0.1 -0.1)">
       <defs>
        <path id="DejaVuSans-36" d="M 2113 2584 
Q 1688 2584 1439 2293 
Q 1191 2003 1191 1497 
Q 1191 994 1439 701 
Q 1688 409 2113 409 
Q 2538 409 2786 701 
Q 3034 994 3034 1497 
Q 3034 2003 2786 2293 
Q 2538 2584 2113 2584 
z
M 3366 4563 
L 3366 3988 
Q 3128 4100 2886 4159 
Q 2644 4219 2406 4219 
Q 1781 4219 1451 3797 
Q 1122 3375 1075 2522 
Q 1259 2794 1537 2939 
Q 1816 3084 2150 3084 
Q 2853 3084 3261 2657 
Q 3669 2231 3669 1497 
Q 3669 778 3244 343 
Q 2819 -91 2113 -91 
Q 1303 -91 875 529 
Q 447 1150 447 2328 
Q 447 3434 972 4092 
Q 1497 4750 2381 4750 
Q 2619 4750 2861 4703 
Q 3103 4656 3366 4563 
z
" transform="scale(0.015625)"/>
       </defs>
       <use xlink:href="#DejaVuSans-30"/>
       <use xlink:href="#DejaVuSans-2e" x="63.623047"/>
       <use xlink:href="#DejaVuSans-36" x="95.410156"/>
      </g>
     </g>
    </g>
    <g id="xtick_5">
     <g id="line2d_5">
      <g>
       <use xlink:href="#m38905a3f7d" x="413.297004" y="318.2" style="stroke: #000000; stroke-width: 0.8"/>
      </g>
     </g>
     <g id="text_5">
      <!-- 0.8 -->
      <g transform="translate(405.345441 332.798437)scale(0.1 -0.1)">
       <defs>
        <path id="DejaVuSans-38" d="M 2034 2216 
Q 1584 2216 1326 1975 
Q 1069 1734 1069 1313 
Q 1069 891 1326 650 
Q 1584 409 2034 409 
Q 2484 409 2743 651 
Q 3003 894 3003 1313 
Q 3003 1734 2745 1975 
Q 2488 2216 2034 2216 
z
M 1403 2484 
Q 997 2584 770 2862 
Q 544 3141 544 3541 
Q 544 4100 942 4425 
Q 1341 4750 2034 4750 
Q 2731 4750 3128 4425 
Q 3525 4100 3525 3541 
Q 3525 3141 3298 2862 
Q 3072 2584 2669 2484 
Q 3125 2378 3379 2068 
Q 3634 1759 3634 1313 
Q 3634 634 3220 271 
Q 2806 -91 2034 -91 
Q 1263 -91 848 271 
Q 434 634 434 1313 
Q 434 1759 690 2068 
Q 947 2378 1403 2484 
z
M 1172 3481 
Q 1172 3119 1398 2916 
Q 1625 2713 2034 2713 
Q 2441 2713 2670 2916 
Q 2900 3119 2900 3481 
Q 2900 3844 2670 4047 
Q 2441 4250 2034 4250 
Q 1625 4250 1398 4047 
Q 1172 3844 1172 3481 
z
" transform="scale(0.015625)"/>
       </defs>
       <use xlink:href="#DejaVuSans-30"/>
       <use xlink:href="#DejaVuSans-2e" x="63.623047"/>
       <use xlink:href="#DejaVuSans-38" x="95.410156"/>
      </g>
     </g>
    </g>
    <g id="text_6">
     <!-- seconds -->
     <g transform="translate(209.645249 346.476562)scale(0.1 -0.1)">
      <defs>
       <path id="DejaVuSans-73" d="M 2834 3397 
L 2834 2853 
Q 2591 2978 2328 3040 
Q 2066 3103 1784 3103 
Q 1356 3103 1142 2972 
Q 928 2841 928 2578 
Q 928 2378 1081 2264 
Q 1234 2150 1697 2047 
L 1894 2003 
Q 2506 1872 2764 1633 
Q 3022 1394 3022 966 
Q 3022 478 2636 193 
Q 2250 -91 1575 -91 
Q 1294 -91 989 -36 
Q 684 19 347 128 
L 347 722 
Q 666 556 975 473 
Q 1284 391 1588 391 
Q 1994 391 2212 530 
Q 2431 669 2431 922 
Q 2431 1156 2273 1281 
Q 2116 1406 1581 1522 
L 1381 1569 
Q 847 1681 609 1914 
Q 372 2147 372 2553 
Q 372 3047 722 3315 
Q 1072 3584 1716 3584 
Q 2034 3584 2315 3537 
Q 2597 3491 2834 3397 
z
" transform="scale(0.015625)"/>
       <path id="DejaVuSans-65" d="M 3597 1894 
L 3597 1613 
L 953 1613 
Q 991 1019 1311 708 
Q 1631 397 2203 397 
Q 2534 397 2845 478 
Q 3156 559 3463 722 
L 3463 178 
Q 3153 47 2828 -22 
Q 2503 -91 2169 -91 
Q 1331 -91 842 396 
Q 353 884 353 1716 
Q 353 2575 817 3079 
Q 1281 3584 2069 3584 
Q 2775 3584 3186 3129 
Q 3597 2675 3597 1894 
z
M 3022 2063 
Q 3016 2534 2758 2815 
Q 2500 3097 2075 3097 
Q 1594 3097 1305 2825 
Q 1016 2553 972 2059 
L 3022 2063 
z
" transform="scale(0.015625)"/>
       <path id="DejaVuSans-63" d="M 3122 3366 
L 3122 2828 
Q 2878 2963 2633 3030 
Q 2388 3097 2138 3097 
Q 1578 3097 1268 2742 
Q 959 2388 959 1747 
Q 959 1106 1268 751 
Q 1578 397 2138 397 
Q 2388 397 2633 464 
Q 2878 531 3122 666 
L 3122 134 
Q 2881 22 2623 -34 
Q 2366 -91 2075 -91 
Q 1284 -91 818 406 
Q 353 903 353 1747 
Q 353 2603 823 3093 
Q 1294 3584 2113 3584 
Q 2378 3584 2631 3529 
Q 2884 3475 3122 3366 
z
" transform="scale(0.015625)"/>
       <path id="DejaVuSans-6f" d="M 1959 3097 
Q 1497 3097 1228 2736 
Q 959 2375 959 1747 
Q 959 1119 1226 758 
Q 1494 397 1959 397 
Q 2419 397 2687 759 
Q 2956 1122 2956 1747 
Q 2956 2369 2687 2733 
Q 2419 3097 1959 3097 
z
M 1959 3584 
Q 2709 3584 3137 3096 
Q 3566 2609 3566 1747 
Q 3566 888 3137 398 
Q 2709 -91 1959 -91 
Q 1206 -91 779 398 
Q 353 888 353 1747 
Q 353 2609 779 3096 
Q 1206 3584 1959 3584 
z
" transform="scale(0.015625)"/>
       <path id="DejaVuSans-6e" d="M 3513 2113 
L 3513 0 
L 2938 0 
L 2938 2094 
Q 2938 2591 2744 2837 
Q 2550 3084 2163 3084 
Q 1697 3084 1428 2787 
Q 1159 2491 1159 1978 
L 1159 0 
L 581 0 
L 581 3500 
L 1159 3500 
L 1159 2956 
Q 1366 3272 1645 3428 
Q 1925 3584 2291 3584 
Q 2894 3584 3203 3211 
Q 3513 2838 3513 2113 
z
" transform="scale(0.015625)"/>
       <path id="DejaVuSans-64" d="M 2906 2969 
L 2906 4863 
L 3481 4863 
L 3481 0 
L 2906 0 
L 2906 525 
Q 2725 213 2448 61 
Q 2172 -91 1784 -91 
Q 1150 -91 751 415 
Q 353 922 353 1747 
Q 353 2572 751 3078 
Q 1150 3584 1784 3584 
Q 2172 3584 2448 3432 
Q 2725 3281 2906 2969 
z
M 947 1747 
Q 947 1113 1208 752 
Q 1469 391 1925 391 
Q 2381 391 2643 752 
Q 2906 1113 2906 1747 
Q 2906 2381 2643 2742 
Q 2381 3103 1925 3103 
Q 1469 3103 1208 2742 
Q 947 2381 947 1747 
z
" transform="scale(0.015625)"/>
      </defs>
      <use xlink:href="#DejaVuSans-73"/>
      <use xlink:href="#DejaVuSans-65" x="52.099609"/>
      <use xlink:href="#DejaVuSans-63" x="113.623047"/>
      <use xlink:href="#DejaVuSans-6f" x="168.603516"/>
      <use xlink:href="#DejaVuSans-6e" x="229.785156"/>
      <use xlink:href="#DejaVuSans-64" x="293.164062"/>
      <use xlink:href="#DejaVuSans-73" x="356.640625"/>
     </g>
    </g>
   </g>
   <g id="matplotlib.axis_2">
    <g id="ytick_1">
     <g id="line2d_6">
      <defs>
       <path id="m97efa7670b" d="M 0 0 
L -3.5 0 
" style="stroke: #000000; stroke-width: 0.8"/>
      </defs>
      <g>
       <use xlink:href="#m97efa7670b" x="46.55" y="316.635405" style="stroke: #000000; stroke-width: 0.8"/>
      </g>
     </g>
     <g id="text_7">
      <!-- 2 -->
      <g transform="translate(24.807812 320.434624)scale(0.1 -0.1)">
       <defs>
        <path id="DejaVuSans-2212" d="M 678 2272 
L 4684 2272 
L 4684 1741 
L 678 1741 
L 678 2272 
z
" transform="scale(0.015625)"/>
       </defs>
       <use xlink:href="#DejaVuSans-2212"/>
       <use xlink:href="#DejaVuSans-32" x="83.789062"/>
      </g>
     </g>
    </g>
    <g id="ytick_2">
     <g id="line2d_7">
      <g>
       <use xlink:href="#m97efa7670b" x="46.55" y="284.576149" style="stroke: #000000; stroke-width: 0.8"/>
      </g>
     </g>
     <g id="text_8">
      <!-- 1 -->
      <g transform="translate(24.807812 288.375368)scale(0.1 -0.1)">
       <defs>
        <path id="DejaVuSans-31" d="M 794 531 
L 1825 531 
L 1825 4091 
L 703 3866 
L 703 4441 
L 1819 4666 
L 2450 4666 
L 2450 531 
L 3481 531 
L 3481 0 
L 794 0 
L 794 531 
z
" transform="scale(0.015625)"/>
       </defs>
       <use xlink:href="#DejaVuSans-2212"/>
       <use xlink:href="#DejaVuSans-31" x="83.789062"/>
      </g>
     </g>
    </g>
    <g id="ytick_3">
     <g id="line2d_8">
      <g>
       <use xlink:href="#m97efa7670b" x="46.55" y="252.516893" style="stroke: #000000; stroke-width: 0.8"/>
      </g>
     </g>
     <g id="text_9">
      <!-- 0 -->
      <g transform="translate(33.1875 256.316112)scale(0.1 -0.1)">
       <use xlink:href="#DejaVuSans-30"/>
      </g>
     </g>
    </g>
    <g id="ytick_4">
     <g id="line2d_9">
      <g>
       <use xlink:href="#m97efa7670b" x="46.55" y="220.457637" style="stroke: #000000; stroke-width: 0.8"/>
      </g>
     </g>
     <g id="text_10">
      <!-- 1 -->
      <g transform="translate(33.1875 224.256855)scale(0.1 -0.1)">
       <use xlink:href="#DejaVuSans-31"/>
      </g>
     </g>
    </g>
    <g id="ytick_5">
     <g id="line2d_10">
      <g>
       <use xlink:href="#m97efa7670b" x="46.55" y="188.39838" style="stroke: #000000; stroke-width: 0.8"/>
      </g>
     </g>
     <g id="text_11">
      <!-- 2 -->
      <g transform="translate(33.1875 192.197599)scale(0.1 -0.1)">
       <use xlink:href="#DejaVuSans-32"/>
      </g>
     </g>
    </g>
    <g id="ytick_6">
     <g id="line2d_11">
      <g>
       <use xlink:href="#m97efa7670b" x="46.55" y="156.339124" style="stroke: #000000; stroke-width: 0.8"/>
      </g>
     </g>
     <g id="text_12">
      <!-- 3 -->
      <g transform="translate(33.1875 160.138343)scale(0.1 -0.1)">
       <defs>
        <path id="DejaVuSans-33" d="M 2597 2516 
Q 3050 2419 3304 2112 
Q 3559 1806 3559 1356 
Q 3559 666 3084 287 
Q 2609 -91 1734 -91 
Q 1441 -91 1130 -33 
Q 819 25 488 141 
L 488 750 
Q 750 597 1062 519 
Q 1375 441 1716 441 
Q 2309 441 2620 675 
Q 2931 909 2931 1356 
Q 2931 1769 2642 2001 
Q 2353 2234 1838 2234 
L 1294 2234 
L 1294 2753 
L 1863 2753 
Q 2328 2753 2575 2939 
Q 2822 3125 2822 3475 
Q 2822 3834 2567 4026 
Q 2313 4219 1838 4219 
Q 1578 4219 1281 4162 
Q 984 4106 628 3988 
L 628 4550 
Q 988 4650 1302 4700 
Q 1616 4750 1894 4750 
Q 2613 4750 3031 4423 
Q 3450 4097 3450 3541 
Q 3450 3153 3228 2886 
Q 3006 2619 2597 2516 
z
" transform="scale(0.015625)"/>
       </defs>
       <use xlink:href="#DejaVuSans-33"/>
      </g>
     </g>
    </g>
    <g id="ytick_7">
     <g id="line2d_12">
      <g>
       <use xlink:href="#m97efa7670b" x="46.55" y="124.279868" style="stroke: #000000; stroke-width: 0.8"/>
      </g>
     </g>
     <g id="text_13">
      <!-- 4 -->
      <g transform="translate(33.1875 128.079087)scale(0.1 -0.1)">
       <use xlink:href="#DejaVuSans-34"/>
      </g>
     </g>
    </g>
    <g id="ytick_8">
     <g id="line2d_13">
      <g>
       <use xlink:href="#m97efa7670b" x="46.55" y="92.220612" style="stroke: #000000; stroke-width: 0.8"/>
      </g>
     </g>
     <g id="text_14">
      <!-- 5 -->
      <g transform="translate(33.1875 96.019831)scale(0.1 -0.1)">
       <defs>
        <path id="DejaVuSans-35" d="M 691 4666 
L 3169 4666 
L 3169 4134 
L 1269 4134 
L 1269 2991 
Q 1406 3038 1543 3061 
Q 1681 3084 1819 3084 
Q 2600 3084 3056 2656 
Q 3513 2228 3513 1497 
Q 3513 744 3044 326 
Q 2575 -91 1722 -91 
Q 1428 -91 1123 -41 
Q 819 9 494 109 
L 494 744 
Q 775 591 1075 516 
Q 1375 441 1709 441 
Q 2250 441 2565 725 
Q 2881 1009 2881 1497 
Q 2881 1984 2565 2268 
Q 2250 2553 1709 2553 
Q 1456 2553 1204 2497 
Q 953 2441 691 2322 
L 691 4666 
z
" transform="scale(0.015625)"/>
       </defs>
       <use xlink:href="#DejaVuSans-35"/>
      </g>
     </g>
    </g>
    <g id="text_15">
     <!-- V -->
     <g transform="translate(18.728125 201.322125)rotate(-90)scale(0.1 -0.1)">
      <defs>
       <path id="DejaVuSans-b5" d="M 544 -1331 
L 544 3500 
L 1119 3500 
L 1119 1325 
Q 1119 872 1334 640 
Q 1550 409 1972 409 
Q 2434 409 2667 671 
Q 2900 934 2900 1459 
L 2900 3500 
L 3475 3500 
L 3475 806 
Q 3475 619 3529 530 
Q 3584 441 3700 441 
Q 3728 441 3778 458 
Q 3828 475 3916 513 
L 3916 50 
Q 3788 -22 3673 -56 
Q 3559 -91 3450 -91 
Q 3234 -91 3106 31 
Q 2978 153 2931 403 
Q 2775 156 2548 32 
Q 2322 -91 2016 -91 
Q 1697 -91 1473 31 
Q 1250 153 1119 397 
L 1119 -1331 
L 544 -1331 
z
" transform="scale(0.015625)"/>
       <path id="DejaVuSans-56" d="M 1831 0 
L 50 4666 
L 709 4666 
L 2188 738 
L 3669 4666 
L 4325 4666 
L 2547 0 
L 1831 0 
z
" transform="scale(0.015625)"/>
      </defs>
      <use xlink:href="#DejaVuSans-b5"/>
      <use xlink:href="#DejaVuSans-56" x="63.623047"/>
     </g>
    </g>
   </g>
   <g id="line2d_14">
    <path d="M 46.55 277.233404 
L 47.346238 278.231996 
L 48.142475 274.81293 
L 49.73495 262.071934 
L 50.531188 257.333344 
L 51.327425 255.703543 
L 52.123663 257.203786 
L 54.512375 267.506268 
L 55.308613 268.406988 
L 56.10485 267.50715 
L 57.697325 264.083211 
L 58.493563 263.597479 
L 59.2898 264.431843 
L 60.086038 266.031416 
L 60.882275 267.327744 
L 61.678513 267.21062 
L 62.47475 265.02156 
L 63.270988 260.864832 
L 64.863463 250.562157 
L 65.659701 246.994018 
L 66.455938 245.630011 
L 67.252176 246.385658 
L 68.844651 250.410062 
L 69.640888 251.203348 
L 70.437126 250.156563 
L 71.233363 247.462932 
L 72.029601 244.068062 
L 72.825838 241.292952 
L 73.622076 240.295778 
L 74.418313 241.585834 
L 75.214551 244.784798 
L 76.010788 248.734835 
L 76.807026 251.917413 
L 77.603263 253.021305 
L 78.399501 251.435219 
L 79.195739 247.469852 
L 80.788214 237.133681 
L 81.584451 233.429665 
L 82.380689 231.656481 
L 83.176926 231.521969 
L 83.973164 232.096999 
L 84.769401 232.296997 
L 85.565639 231.436364 
L 87.158114 227.725825 
L 87.954351 227.151416 
L 88.750589 229.116876 
L 89.546826 234.111374 
L 91.935539 256.88806 
L 92.731776 260.911433 
L 93.528014 261.020282 
L 94.324251 257.632269 
L 95.916727 247.259187 
L 96.712964 244.374498 
L 97.509202 244.675334 
L 98.305439 247.883531 
L 99.897914 256.862719 
L 100.694152 258.982492 
L 101.490389 258.136663 
L 102.286627 254.666622 
L 103.879102 245.372916 
L 104.675339 242.522758 
L 105.471577 241.784368 
L 106.267814 242.666908 
L 107.064052 244.030293 
L 107.860289 244.681626 
L 108.656527 243.979962 
L 110.249002 240.338065 
L 111.04524 239.86857 
L 111.841477 241.853428 
L 112.637715 246.494862 
L 114.23019 259.354592 
L 115.026427 263.914186 
L 115.822665 265.207911 
L 116.618902 262.99992 
L 118.211377 253.24782 
L 119.007615 249.908462 
L 119.803852 249.914429 
L 120.60009 253.624118 
L 122.988802 272.517768 
L 123.78504 274.574957 
L 124.581277 272.659192 
L 125.377515 267.47887 
L 126.96999 254.421355 
L 127.766228 250.172746 
L 128.562465 248.661161 
L 129.358703 249.505428 
L 130.951178 253.395285 
L 131.747415 254.030859 
L 132.543653 253.168363 
L 134.136128 249.418267 
L 134.932365 248.500899 
L 135.728603 249.087769 
L 136.52484 251.019523 
L 137.321078 253.500167 
L 138.117315 255.419007 
L 138.913553 255.792455 
L 139.70979 254.144481 
L 140.506028 250.679085 
L 142.098503 241.759288 
L 142.89474 238.379323 
L 143.690978 236.641843 
L 144.487216 236.608519 
L 145.283453 237.885415 
L 147.672166 243.512556 
L 148.468403 244.603057 
L 149.264641 245.082507 
L 150.060878 244.913358 
L 150.857116 243.968158 
L 151.653353 242.029549 
L 152.449591 238.902439 
L 153.245828 234.589042 
L 155.634541 219.780674 
L 156.430778 217.228929 
L 157.227016 217.161679 
L 158.023253 219.636371 
L 158.819491 224.033356 
L 160.411966 233.644671 
L 161.208204 236.177005 
L 162.004441 236.053728 
L 162.800679 233.315468 
L 165.189391 219.471587 
L 165.985629 217.218702 
L 166.781866 217.290315 
L 167.578104 219.243866 
L 168.374341 221.941577 
L 169.170579 223.905549 
L 169.966816 223.797746 
L 170.763054 220.873999 
L 171.559291 215.264214 
L 173.151766 200.645518 
L 173.948004 195.001352 
L 174.744241 192.378298 
L 175.540479 193.265022 
L 176.336717 197.14121 
L 177.929192 207.929117 
L 178.725429 211.375405 
L 179.521667 211.962948 
L 180.317904 209.633337 
L 182.706617 196.121194 
L 183.502854 193.958433 
L 184.299092 194.059882 
L 185.095329 195.949246 
L 186.687804 200.977057 
L 187.484042 202.232375 
L 188.280279 202.19306 
L 189.872754 200.187409 
L 190.668992 199.770462 
L 191.46523 200.491158 
L 192.261467 202.376556 
L 195.446417 212.674932 
L 197.038892 216.007117 
L 198.631367 219.109809 
L 199.427605 220.113739 
L 200.223842 220.08428 
L 201.02008 218.647613 
L 201.816317 215.880598 
L 203.408792 209.465711 
L 204.20503 208.165115 
L 205.001267 209.37293 
L 205.797505 213.109774 
L 207.38998 223.61908 
L 208.186218 226.731098 
L 208.982455 226.2583 
L 209.778693 221.722044 
L 210.57493 213.932427 
L 212.167405 196.751241 
L 212.963643 191.912607 
L 213.75988 191.398459 
L 214.556118 194.912708 
L 216.148593 206.804521 
L 216.94483 210.449705 
L 217.741068 210.24176 
L 218.537305 205.936822 
L 219.333543 198.604312 
L 220.926018 182.848709 
L 221.722255 178.148019 
L 222.518493 176.67399 
L 223.31473 177.92012 
L 224.907206 183.325286 
L 225.703443 184.967959 
L 226.499681 185.233728 
L 228.092156 183.844101 
L 228.888393 183.902147 
L 229.684631 185.076171 
L 231.277106 188.788212 
L 232.073343 189.355442 
L 232.869581 188.032938 
L 233.665818 184.912983 
L 234.462056 180.94273 
L 235.258293 177.638407 
L 236.054531 176.521749 
L 236.850768 178.494017 
L 237.647006 183.401217 
L 239.239481 196.24214 
L 240.035719 200.149989 
L 240.831956 200.374076 
L 241.628194 196.803812 
L 244.016906 179.159125 
L 244.813144 177.877303 
L 245.609381 180.682603 
L 246.405619 186.809385 
L 247.998094 201.680154 
L 248.794331 206.62711 
L 249.590569 208.5323 
L 250.386806 207.608721 
L 251.183044 204.832156 
L 252.775519 198.317437 
L 253.571756 195.843277 
L 255.164231 191.48811 
L 255.960469 188.700243 
L 257.552944 182.506325 
L 258.349182 180.641727 
L 259.145419 180.570976 
L 259.941657 182.280458 
L 260.737894 184.860292 
L 261.534132 186.680818 
L 262.330369 185.926707 
L 263.126607 181.298546 
L 263.922844 172.604042 
L 266.311557 138.229113 
L 267.107794 131.861881 
L 267.904032 130.544582 
L 268.700269 133.800227 
L 271.088982 151.619529 
L 271.88522 153.999317 
L 272.681457 153.75646 
L 274.273932 150.324582 
L 275.07017 150.015261 
L 275.866407 151.563958 
L 277.458882 157.395856 
L 278.25512 158.955428 
L 279.051357 158.143072 
L 279.847595 154.882493 
L 281.44007 145.214691 
L 282.236307 141.884435 
L 283.032545 141.061877 
L 283.828782 142.797816 
L 285.421257 149.900035 
L 286.217495 152.447344 
L 287.013732 153.037712 
L 287.80997 151.716059 
L 289.402445 147.15678 
L 290.198683 146.343113 
L 290.99492 147.452849 
L 291.791158 150.242968 
L 293.383633 156.885429 
L 294.17987 158.553237 
L 294.976108 158.443214 
L 295.772345 156.969329 
L 296.568583 155.120373 
L 297.36482 154.029778 
L 298.161058 154.479945 
L 298.957295 156.544749 
L 300.54977 162.159982 
L 301.346008 163.158426 
L 302.142245 161.636925 
L 302.938483 157.502897 
L 305.327196 139.37141 
L 306.123433 135.738755 
L 306.919671 134.400091 
L 307.715908 134.881148 
L 308.512146 136.168217 
L 309.308383 137.166573 
L 310.104621 137.181016 
L 310.900858 136.227608 
L 311.697096 135.049022 
L 312.493333 134.82172 
L 313.289571 136.664834 
L 314.085808 141.139299 
L 314.882046 147.933126 
L 316.474521 163.22652 
L 317.270758 168.341783 
L 318.066996 170.163233 
L 318.863233 168.672211 
L 320.455709 160.810045 
L 321.251946 158.300439 
L 322.048184 158.928554 
L 322.844421 163.188953 
L 323.640659 170.369666 
L 325.233134 186.285315 
L 326.029371 191.050807 
L 326.825609 192.102976 
L 327.621846 189.652082 
L 329.214321 179.970093 
L 330.010559 176.43455 
L 330.806796 175.493927 
L 331.603034 177.212236 
L 333.195509 184.160877 
L 333.991746 186.236349 
L 334.787984 185.893882 
L 335.584221 183.147558 
L 337.176697 174.874385 
L 337.972934 172.363519 
L 338.769172 172.292238 
L 339.565409 174.562617 
L 341.157884 181.634134 
L 341.954122 183.586877 
L 342.750359 183.35272 
L 343.546597 181.206223 
L 344.342834 178.243366 
L 345.139072 175.900285 
L 345.935309 175.322825 
L 346.731547 176.85637 
L 348.324022 183.081124 
L 349.120259 185.028945 
L 349.916497 184.854253 
L 350.712734 182.676916 
L 351.508972 179.610656 
L 352.30521 177.305255 
L 353.101447 177.204576 
L 353.897685 179.83579 
L 355.49016 189.201907 
L 356.286397 191.820736 
L 357.082635 190.535983 
L 357.878872 184.862387 
L 360.267585 158.185825 
L 361.063822 154.406062 
L 361.86006 155.451498 
L 362.656297 160.290158 
L 363.452535 166.571573 
L 364.248772 171.576043 
L 365.04501 173.310915 
L 365.841247 171.304791 
L 367.433722 162.07302 
L 368.22996 159.723012 
L 369.026198 161.321004 
L 369.822435 166.884134 
L 371.41491 182.646172 
L 372.211148 187.873787 
L 373.007385 189.135101 
L 373.803623 186.634109 
L 375.396098 177.617333 
L 376.192335 175.47538 
L 376.988573 176.468933 
L 377.78481 180.005785 
L 378.581048 184.346958 
L 379.377285 187.423959 
L 380.173523 187.780551 
L 380.96976 185.224275 
L 382.562235 176.770046 
L 383.358473 174.677998 
L 384.15471 175.486945 
L 385.747186 182.08166 
L 386.543423 183.479734 
L 387.339661 180.774234 
L 388.135898 173.308692 
L 390.524611 139.597726 
L 391.320848 133.918015 
L 392.117086 134.040058 
L 392.913323 139.340213 
L 394.505798 156.083293 
L 395.302036 162.029545 
L 396.098273 164.034219 
L 396.894511 162.152527 
L 399.283223 149.141251 
L 400.079461 147.707176 
L 400.875699 148.343085 
L 401.671936 149.996609 
L 402.468174 151.283045 
L 403.264411 151.13831 
L 404.060649 149.287308 
L 405.653124 143.502488 
L 406.449361 142.007049 
L 407.245599 142.55415 
L 408.041836 144.950939 
L 408.838074 148.126808 
L 409.634311 150.512409 
L 410.430549 150.638658 
L 411.226786 147.725704 
L 412.023024 142.0328 
L 413.615499 127.989467 
L 413.615499 127.989467 
" clip-path="url(#pd2a405df2b)" style="fill: none; stroke: #e41a1c; stroke-width: 1.5; stroke-linecap: square"/>
   </g>
   <g id="line2d_15">
    <path d="M 46.55 247.719348 
L 47.346238 246.981753 
L 48.142475 245.737104 
L 48.938713 244.892942 
L 49.73495 245.135351 
L 50.531188 246.676228 
L 52.9199 254.041876 
L 53.716138 254.864309 
L 54.512375 254.172329 
L 55.308613 252.260709 
L 56.901088 247.707099 
L 57.697325 246.571263 
L 58.493563 246.677642 
L 59.2898 247.792913 
L 60.086038 249.29954 
L 60.882275 250.451965 
L 61.678513 250.68441 
L 62.47475 249.85157 
L 64.067226 246.765535 
L 64.863463 246.043804 
L 65.659701 246.699174 
L 66.455938 248.785488 
L 68.048413 254.744535 
L 68.844651 256.650275 
L 69.640888 256.781019 
L 70.437126 255.031687 
L 72.029601 248.80188 
L 72.825838 246.711161 
L 73.622076 246.68449 
L 74.418313 249.017445 
L 75.214551 253.222174 
L 76.807026 262.576074 
L 77.603263 265.266766 
L 78.399501 265.74961 
L 79.195739 264.254573 
L 80.788214 258.913251 
L 81.584451 257.056974 
L 82.380689 256.454401 
L 83.176926 256.909024 
L 83.973164 257.763397 
L 84.769401 258.219296 
L 85.565639 257.693205 
L 86.361876 256.058408 
L 87.954351 251.227054 
L 88.750589 249.387547 
L 89.546826 248.56023 
L 90.343064 248.710315 
L 91.935539 250.063272 
L 92.731776 250.172221 
L 93.528014 249.580257 
L 95.120489 247.518875 
L 95.916727 247.085469 
L 96.712964 247.49862 
L 97.509202 248.623675 
L 98.305439 249.955132 
L 99.101677 250.838228 
L 99.897914 250.783916 
L 100.694152 249.73766 
L 101.490389 248.174107 
L 102.286627 246.959397 
L 103.082864 247.019514 
L 103.879102 248.936912 
L 104.675339 252.637337 
L 106.267814 261.577968 
L 107.064052 263.97945 
L 107.860289 263.422305 
L 108.656527 259.61777 
L 109.452764 253.223064 
L 111.04524 238.713662 
L 111.841477 233.894939 
L 112.637715 232.041574 
L 113.433952 233.0478 
L 114.23019 235.9677 
L 115.026427 239.393238 
L 115.822665 241.970205 
L 116.618902 242.862064 
L 117.41514 241.996161 
L 119.007615 237.953112 
L 119.803852 236.816011 
L 120.60009 237.160751 
L 121.396327 238.903234 
L 122.988802 243.627782 
L 123.78504 244.806215 
L 124.581277 244.518763 
L 125.377515 242.978971 
L 126.173752 240.91475 
L 126.96999 239.272622 
L 127.766228 238.844368 
L 128.562465 239.966172 
L 129.358703 242.407335 
L 130.951178 248.364235 
L 131.747415 250.372602 
L 132.543653 251.264022 
L 133.33989 251.256519 
L 134.136128 250.873482 
L 134.932365 250.648304 
L 135.728603 250.828428 
L 136.52484 251.214002 
L 137.321078 251.210946 
L 138.117315 250.087637 
L 138.913553 247.334355 
L 139.70979 242.973858 
L 141.302265 232.650818 
L 142.098503 229.217366 
L 142.89474 228.401786 
L 143.690978 230.514225 
L 144.487216 234.991528 
L 146.079691 245.487324 
L 146.875928 248.390965 
L 147.672166 248.417899 
L 148.468403 245.633175 
L 150.857116 231.360223 
L 151.653353 228.843711 
L 152.449591 228.396067 
L 153.245828 229.540771 
L 154.042066 231.341916 
L 154.838303 232.799778 
L 155.634541 233.227727 
L 156.430778 232.466871 
L 158.819491 227.635542 
L 159.615729 226.848315 
L 161.208204 226.103367 
L 162.004441 225.019768 
L 162.800679 222.929609 
L 164.393154 216.964237 
L 165.189391 214.865699 
L 165.985629 214.734701 
L 166.781866 217.145223 
L 167.578104 221.932014 
L 169.170579 234.339374 
L 169.966816 238.939425 
L 170.763054 240.831997 
L 171.559291 239.697707 
L 172.355529 236.128062 
L 173.948004 227.152322 
L 174.744241 224.625631 
L 175.540479 224.481796 
L 176.336717 226.521865 
L 177.929192 233.238789 
L 178.725429 235.613636 
L 179.521667 236.406406 
L 180.317904 235.714502 
L 181.910379 232.654953 
L 182.706617 231.834754 
L 183.502854 231.955403 
L 185.095329 233.540028 
L 185.891567 233.703517 
L 186.687804 232.858452 
L 187.484042 231.131944 
L 188.280279 229.118786 
L 189.076517 227.643022 
L 189.872754 227.411673 
L 190.668992 228.712719 
L 191.46523 231.292063 
L 193.057705 237.435809 
L 193.853942 239.629436 
L 194.65018 240.973669 
L 195.446417 241.910296 
L 196.242655 243.174503 
L 197.038892 245.412182 
L 197.83513 248.805107 
L 199.427605 256.590648 
L 200.223842 258.710172 
L 201.02008 258.315819 
L 201.816317 255.239656 
L 204.20503 240.672671 
L 205.001267 239.144072 
L 205.797505 240.606541 
L 206.593742 244.32321 
L 207.38998 248.676533 
L 208.186218 251.761273 
L 208.982455 252.113275 
L 209.778693 249.293406 
L 212.167405 233.950198 
L 212.963643 232.76753 
L 213.75988 235.345092 
L 214.556118 241.028202 
L 216.148593 254.669579 
L 216.94483 258.90548 
L 217.741068 260.137674 
L 218.537305 258.789391 
L 220.12978 253.876564 
L 220.926018 253.137101 
L 221.722255 254.316369 
L 223.31473 259.422663 
L 224.110968 260.793444 
L 224.907206 260.133886 
L 225.703443 257.519485 
L 227.295918 250.676911 
L 228.092156 249.207006 
L 228.888393 250.174974 
L 229.684631 253.356744 
L 231.277106 261.762725 
L 232.073343 264.253564 
L 232.869581 264.560839 
L 233.665818 262.954927 
L 234.462056 260.455723 
L 235.258293 258.405656 
L 236.054531 257.931261 
L 236.850768 259.510043 
L 237.647006 262.808698 
L 239.239481 270.388313 
L 240.035719 272.444634 
L 240.831956 272.607935 
L 241.628194 271.17328 
L 243.220669 266.978715 
L 244.016906 265.965207 
L 244.813144 266.167875 
L 245.609381 267.268611 
L 246.405619 268.574651 
L 247.201856 269.346301 
L 247.998094 269.123236 
L 248.794331 267.913829 
L 250.386806 264.59644 
L 251.183044 263.790124 
L 251.979281 264.010804 
L 252.775519 265.035452 
L 253.571756 266.248374 
L 254.367994 266.899648 
L 255.164231 266.430959 
L 255.960469 264.733391 
L 257.552944 259.728272 
L 258.349182 258.140299 
L 259.145419 258.102511 
L 259.941657 259.718111 
L 261.534132 265.43641 
L 262.330369 267.508156 
L 263.126607 267.890058 
L 263.922844 266.334573 
L 264.719082 263.239025 
L 266.311557 256.139709 
L 267.107794 253.997346 
L 267.904032 253.357945 
L 268.700269 253.910669 
L 269.496507 254.902966 
L 270.292744 255.480132 
L 271.088982 255.063787 
L 271.88522 253.612941 
L 272.681457 251.656674 
L 273.477695 250.080324 
L 274.273932 249.74884 
L 275.07017 251.119601 
L 275.866407 254.006711 
L 277.458882 260.764379 
L 278.25512 262.446166 
L 279.051357 262.125787 
L 279.847595 260.031041 
L 281.44007 254.516591 
L 282.236307 253.454831 
L 283.032545 254.386987 
L 283.828782 256.979803 
L 284.62502 260.173799 
L 285.421257 262.585401 
L 286.217495 263.058425 
L 287.013732 261.151094 
L 287.80997 257.363679 
L 288.606208 253.008419 
L 289.402445 249.760343 
L 290.198683 249.052431 
L 290.99492 251.540282 
L 291.791158 256.837604 
L 293.383633 270.092857 
L 294.17987 274.566436 
L 294.976108 276.070409 
L 295.772345 274.645304 
L 297.36482 267.617615 
L 298.161058 265.20189 
L 298.957295 265.10877 
L 299.753533 267.521059 
L 302.142245 280.301245 
L 302.938483 282.259083 
L 303.73472 282.03508 
L 304.530958 280.079196 
L 306.123433 274.941985 
L 306.919671 273.609921 
L 307.715908 273.562067 
L 309.308383 275.327773 
L 310.104621 275.513824 
L 310.900858 274.43832 
L 311.697096 272.114341 
L 313.289571 266.178607 
L 314.085808 264.201877 
L 314.882046 263.568639 
L 315.678283 264.14287 
L 316.474521 265.281211 
L 317.270758 266.088962 
L 318.066996 265.786889 
L 318.863233 264.042512 
L 321.251946 255.227865 
L 322.048184 254.134495 
L 322.844421 254.935444 
L 323.640659 257.356466 
L 325.233134 263.591444 
L 326.029371 265.492677 
L 326.825609 265.881973 
L 327.621846 264.918983 
L 329.214321 261.418786 
L 330.010559 260.083199 
L 331.603034 258.505767 
L 332.399271 257.292284 
L 333.195509 255.143278 
L 335.584221 245.455808 
L 336.380459 243.865534 
L 337.176697 244.313963 
L 337.972934 246.703994 
L 339.565409 253.591662 
L 340.361647 255.559919 
L 341.157884 255.370572 
L 341.954122 253.080715 
L 343.546597 246.111164 
L 344.342834 244.036283 
L 345.139072 244.031946 
L 345.935309 245.954474 
L 347.527784 251.487143 
L 348.324022 252.637751 
L 349.120259 251.846955 
L 349.916497 249.512537 
L 350.712734 246.762758 
L 351.508972 244.993563 
L 352.30521 245.278387 
L 353.101447 247.891554 
L 354.693922 256.593944 
L 355.49016 259.58586 
L 356.286397 259.859891 
L 357.082635 257.041907 
L 357.878872 251.794083 
L 359.471347 240.146285 
L 360.267585 236.894871 
L 361.063822 236.426414 
L 361.86006 238.375984 
L 363.452535 244.71336 
L 364.248772 246.484421 
L 365.04501 246.387463 
L 365.841247 244.66117 
L 367.433722 239.917508 
L 368.22996 238.810919 
L 369.026198 239.1494 
L 369.822435 240.644998 
L 370.618673 242.567867 
L 371.41491 244.072083 
L 372.211148 244.542513 
L 373.007385 243.824314 
L 375.396098 239.229174 
L 376.192335 238.942261 
L 376.988573 239.690282 
L 379.377285 243.898897 
L 380.173523 244.317061 
L 380.96976 243.995662 
L 382.562235 242.534778 
L 383.358473 242.233995 
L 384.15471 242.476434 
L 385.747186 243.575651 
L 386.543423 243.481654 
L 387.339661 242.432492 
L 388.135898 240.401048 
L 389.728373 235.134588 
L 390.524611 233.312032 
L 391.320848 232.864619 
L 392.117086 233.99089 
L 392.913323 236.403024 
L 394.505798 241.977264 
L 395.302036 243.283286 
L 396.098273 242.714755 
L 396.894511 240.182365 
L 397.690748 236.117119 
L 399.283223 226.782728 
L 400.079461 223.267026 
L 400.875699 221.226723 
L 401.671936 220.648106 
L 402.468174 221.126234 
L 404.060649 222.811417 
L 404.856886 223.032984 
L 405.653124 222.614625 
L 406.449361 221.711001 
L 409.634311 217.234485 
L 410.430549 215.807083 
L 412.819261 210.38383 
L 413.615499 209.695418 
L 413.615499 209.695418 
" clip-path="url(#pd2a405df2b)" style="fill: none; stroke: #377eb8; stroke-width: 1.5; stroke-linecap: square"/>
   </g>
   <g id="line2d_16">
    <path d="M 87.158114 318.2 
L 87.158114 71.241125 
" clip-path="url(#pd2a405df2b)" style="fill: none; stroke: #000000; stroke-width: 0.5; stroke-linecap: square"/>
   </g>
   <g id="line2d_17">
    <path d="M 46.55 252.516893 
L 413.615499 252.516893 
" clip-path="url(#pd2a405df2b)" style="fill: none; stroke: #000000; stroke-width: 0.5; stroke-linecap: square"/>
   </g>
   <g id="patch_4">
    <path d="M 46.55 318.2 
L 46.55 71.241125 
" style="fill: none; stroke: #000000; stroke-width: 0.8; stroke-linejoin: miter; stroke-linecap: square"/>
   </g>
   <g id="patch_5">
    <path d="M 413.615499 318.2 
L 413.615499 71.241125 
" style="fill: none; stroke: #000000; stroke-width: 0.8; stroke-linejoin: miter; stroke-linecap: square"/>
   </g>
   <g id="patch_6">
    <path d="M 46.55 318.2 
L 413.615499 318.2 
" style="fill: none; stroke: #000000; stroke-width: 0.8; stroke-linejoin: miter; stroke-linecap: square"/>
   </g>
   <g id="patch_7">
    <path d="M 46.55 71.241125 
L 413.615499 71.241125 
" style="fill: none; stroke: #000000; stroke-width: 0.8; stroke-linejoin: miter; stroke-linecap: square"/>
   </g>
   <g id="text_16">
    <!-- Cz -->
    <g transform="translate(222.743999 65.241125)scale(0.12 -0.12)">
     <defs>
      <path id="DejaVuSans-43" d="M 4122 4306 
L 4122 3641 
Q 3803 3938 3442 4084 
Q 3081 4231 2675 4231 
Q 1875 4231 1450 3742 
Q 1025 3253 1025 2328 
Q 1025 1406 1450 917 
Q 1875 428 2675 428 
Q 3081 428 3442 575 
Q 3803 722 4122 1019 
L 4122 359 
Q 3791 134 3420 21 
Q 3050 -91 2638 -91 
Q 1578 -91 968 557 
Q 359 1206 359 2328 
Q 359 3453 968 4101 
Q 1578 4750 2638 4750 
Q 3056 4750 3426 4639 
Q 3797 4528 4122 4306 
z
" transform="scale(0.015625)"/>
      <path id="DejaVuSans-7a" d="M 353 3500 
L 3084 3500 
L 3084 2975 
L 922 459 
L 3084 459 
L 3084 0 
L 275 0 
L 275 525 
L 2438 3041 
L 353 3041 
L 353 3500 
z
" transform="scale(0.015625)"/>
     </defs>
     <use xlink:href="#DejaVuSans-43"/>
     <use xlink:href="#DejaVuSans-7a" x="69.824219"/>
    </g>
   </g>
   <g id="legend_1">
    <g id="patch_8">
     <path d="M 99.855406 48.044893 
L 360.310093 48.044893 
Q 362.310093 48.044893 362.310093 46.044893 
L 362.310093 17.410517 
Q 362.310093 15.410517 360.310093 15.410517 
L 99.855406 15.410517 
Q 97.855406 15.410517 97.855406 17.410517 
L 97.855406 46.044893 
Q 97.855406 48.044893 99.855406 48.044893 
z
" style="fill: #ffffff; opacity: 0.8; stroke: #cccccc; stroke-linejoin: miter"/>
    </g>
    <g id="text_17">
     <!-- Average of Session 7_tac4 -->
     <g transform="translate(164.249937 27.008955)scale(0.1 -0.1)">
      <defs>
       <path id="DejaVuSans-41" d="M 2188 4044 
L 1331 1722 
L 3047 1722 
L 2188 4044 
z
M 1831 4666 
L 2547 4666 
L 4325 0 
L 3669 0 
L 3244 1197 
L 1141 1197 
L 716 0 
L 50 0 
L 1831 4666 
z
" transform="scale(0.015625)"/>
       <path id="DejaVuSans-76" d="M 191 3500 
L 800 3500 
L 1894 563 
L 2988 3500 
L 3597 3500 
L 2284 0 
L 1503 0 
L 191 3500 
z
" transform="scale(0.015625)"/>
       <path id="DejaVuSans-72" d="M 2631 2963 
Q 2534 3019 2420 3045 
Q 2306 3072 2169 3072 
Q 1681 3072 1420 2755 
Q 1159 2438 1159 1844 
L 1159 0 
L 581 0 
L 581 3500 
L 1159 3500 
L 1159 2956 
Q 1341 3275 1631 3429 
Q 1922 3584 2338 3584 
Q 2397 3584 2469 3576 
Q 2541 3569 2628 3553 
L 2631 2963 
z
" transform="scale(0.015625)"/>
       <path id="DejaVuSans-61" d="M 2194 1759 
Q 1497 1759 1228 1600 
Q 959 1441 959 1056 
Q 959 750 1161 570 
Q 1363 391 1709 391 
Q 2188 391 2477 730 
Q 2766 1069 2766 1631 
L 2766 1759 
L 2194 1759 
z
M 3341 1997 
L 3341 0 
L 2766 0 
L 2766 531 
Q 2569 213 2275 61 
Q 1981 -91 1556 -91 
Q 1019 -91 701 211 
Q 384 513 384 1019 
Q 384 1609 779 1909 
Q 1175 2209 1959 2209 
L 2766 2209 
L 2766 2266 
Q 2766 2663 2505 2880 
Q 2244 3097 1772 3097 
Q 1472 3097 1187 3025 
Q 903 2953 641 2809 
L 641 3341 
Q 956 3463 1253 3523 
Q 1550 3584 1831 3584 
Q 2591 3584 2966 3190 
Q 3341 2797 3341 1997 
z
" transform="scale(0.015625)"/>
       <path id="DejaVuSans-67" d="M 2906 1791 
Q 2906 2416 2648 2759 
Q 2391 3103 1925 3103 
Q 1463 3103 1205 2759 
Q 947 2416 947 1791 
Q 947 1169 1205 825 
Q 1463 481 1925 481 
Q 2391 481 2648 825 
Q 2906 1169 2906 1791 
z
M 3481 434 
Q 3481 -459 3084 -895 
Q 2688 -1331 1869 -1331 
Q 1566 -1331 1297 -1286 
Q 1028 -1241 775 -1147 
L 775 -588 
Q 1028 -725 1275 -790 
Q 1522 -856 1778 -856 
Q 2344 -856 2625 -561 
Q 2906 -266 2906 331 
L 2906 616 
Q 2728 306 2450 153 
Q 2172 0 1784 0 
Q 1141 0 747 490 
Q 353 981 353 1791 
Q 353 2603 747 3093 
Q 1141 3584 1784 3584 
Q 2172 3584 2450 3431 
Q 2728 3278 2906 2969 
L 2906 3500 
L 3481 3500 
L 3481 434 
z
" transform="scale(0.015625)"/>
       <path id="DejaVuSans-20" transform="scale(0.015625)"/>
       <path id="DejaVuSans-66" d="M 2375 4863 
L 2375 4384 
L 1825 4384 
Q 1516 4384 1395 4259 
Q 1275 4134 1275 3809 
L 1275 3500 
L 2222 3500 
L 2222 3053 
L 1275 3053 
L 1275 0 
L 697 0 
L 697 3053 
L 147 3053 
L 147 3500 
L 697 3500 
L 697 3744 
Q 697 4328 969 4595 
Q 1241 4863 1831 4863 
L 2375 4863 
z
" transform="scale(0.015625)"/>
       <path id="DejaVuSans-53" d="M 3425 4513 
L 3425 3897 
Q 3066 4069 2747 4153 
Q 2428 4238 2131 4238 
Q 1616 4238 1336 4038 
Q 1056 3838 1056 3469 
Q 1056 3159 1242 3001 
Q 1428 2844 1947 2747 
L 2328 2669 
Q 3034 2534 3370 2195 
Q 3706 1856 3706 1288 
Q 3706 609 3251 259 
Q 2797 -91 1919 -91 
Q 1588 -91 1214 -16 
Q 841 59 441 206 
L 441 856 
Q 825 641 1194 531 
Q 1563 422 1919 422 
Q 2459 422 2753 634 
Q 3047 847 3047 1241 
Q 3047 1584 2836 1778 
Q 2625 1972 2144 2069 
L 1759 2144 
Q 1053 2284 737 2584 
Q 422 2884 422 3419 
Q 422 4038 858 4394 
Q 1294 4750 2059 4750 
Q 2388 4750 2728 4690 
Q 3069 4631 3425 4513 
z
" transform="scale(0.015625)"/>
       <path id="DejaVuSans-69" d="M 603 3500 
L 1178 3500 
L 1178 0 
L 603 0 
L 603 3500 
z
M 603 4863 
L 1178 4863 
L 1178 4134 
L 603 4134 
L 603 4863 
z
" transform="scale(0.015625)"/>
       <path id="DejaVuSans-37" d="M 525 4666 
L 3525 4666 
L 3525 4397 
L 1831 0 
L 1172 0 
L 2766 4134 
L 525 4134 
L 525 4666 
z
" transform="scale(0.015625)"/>
       <path id="DejaVuSans-5f" d="M 3263 -1063 
L 3263 -1509 
L -63 -1509 
L -63 -1063 
L 3263 -1063 
z
" transform="scale(0.015625)"/>
       <path id="DejaVuSans-74" d="M 1172 4494 
L 1172 3500 
L 2356 3500 
L 2356 3053 
L 1172 3053 
L 1172 1153 
Q 1172 725 1289 603 
Q 1406 481 1766 481 
L 2356 481 
L 2356 0 
L 1766 0 
Q 1100 0 847 248 
Q 594 497 594 1153 
L 594 3053 
L 172 3053 
L 172 3500 
L 594 3500 
L 594 4494 
L 1172 4494 
z
" transform="scale(0.015625)"/>
      </defs>
      <use xlink:href="#DejaVuSans-41"/>
      <use xlink:href="#DejaVuSans-76" x="62.533203"/>
      <use xlink:href="#DejaVuSans-65" x="121.712891"/>
      <use xlink:href="#DejaVuSans-72" x="183.236328"/>
      <use xlink:href="#DejaVuSans-61" x="224.349609"/>
      <use xlink:href="#DejaVuSans-67" x="285.628906"/>
      <use xlink:href="#DejaVuSans-65" x="349.105469"/>
      <use xlink:href="#DejaVuSans-20" x="410.628906"/>
      <use xlink:href="#DejaVuSans-6f" x="442.416016"/>
      <use xlink:href="#DejaVuSans-66" x="503.597656"/>
      <use xlink:href="#DejaVuSans-20" x="538.802734"/>
      <use xlink:href="#DejaVuSans-53" x="570.589844"/>
      <use xlink:href="#DejaVuSans-65" x="634.066406"/>
      <use xlink:href="#DejaVuSans-73" x="695.589844"/>
      <use xlink:href="#DejaVuSans-73" x="747.689453"/>
      <use xlink:href="#DejaVuSans-69" x="799.789062"/>
      <use xlink:href="#DejaVuSans-6f" x="827.572266"/>
      <use xlink:href="#DejaVuSans-6e" x="888.753906"/>
      <use xlink:href="#DejaVuSans-20" x="952.132812"/>
      <use xlink:href="#DejaVuSans-37" x="983.919922"/>
      <use xlink:href="#DejaVuSans-5f" x="1047.542969"/>
      <use xlink:href="#DejaVuSans-74" x="1097.542969"/>
      <use xlink:href="#DejaVuSans-61" x="1136.751953"/>
      <use xlink:href="#DejaVuSans-63" x="1198.03125"/>
      <use xlink:href="#DejaVuSans-34" x="1253.011719"/>
     </g>
    </g>
    <g id="line2d_18">
     <path d="M 101.855406 38.465205 
L 111.855406 38.465205 
L 121.855406 38.465205 
" style="fill: none; stroke: #e41a1c; stroke-width: 1.5; stroke-linecap: square"/>
    </g>
    <g id="text_18">
     <!-- Target (n=376) -->
     <g transform="translate(129.855406 41.965205)scale(0.1 -0.1)">
      <defs>
       <path id="DejaVuSans-54" d="M -19 4666 
L 3928 4666 
L 3928 4134 
L 2272 4134 
L 2272 0 
L 1638 0 
L 1638 4134 
L -19 4134 
L -19 4666 
z
" transform="scale(0.015625)"/>
       <path id="DejaVuSans-28" d="M 1984 4856 
Q 1566 4138 1362 3434 
Q 1159 2731 1159 2009 
Q 1159 1288 1364 580 
Q 1569 -128 1984 -844 
L 1484 -844 
Q 1016 -109 783 600 
Q 550 1309 550 2009 
Q 550 2706 781 3412 
Q 1013 4119 1484 4856 
L 1984 4856 
z
" transform="scale(0.015625)"/>
       <path id="DejaVuSans-3d" d="M 678 2906 
L 4684 2906 
L 4684 2381 
L 678 2381 
L 678 2906 
z
M 678 1631 
L 4684 1631 
L 4684 1100 
L 678 1100 
L 678 1631 
z
" transform="scale(0.015625)"/>
       <path id="DejaVuSans-29" d="M 513 4856 
L 1013 4856 
Q 1481 4119 1714 3412 
Q 1947 2706 1947 2009 
Q 1947 1309 1714 600 
Q 1481 -109 1013 -844 
L 513 -844 
Q 928 -128 1133 580 
Q 1338 1288 1338 2009 
Q 1338 2731 1133 3434 
Q 928 4138 513 4856 
z
" transform="scale(0.015625)"/>
      </defs>
      <use xlink:href="#DejaVuSans-54"/>
      <use xlink:href="#DejaVuSans-61" x="44.583984"/>
      <use xlink:href="#DejaVuSans-72" x="105.863281"/>
      <use xlink:href="#DejaVuSans-67" x="145.226562"/>
      <use xlink:href="#DejaVuSans-65" x="208.703125"/>
      <use xlink:href="#DejaVuSans-74" x="270.226562"/>
      <use xlink:href="#DejaVuSans-20" x="309.435547"/>
      <use xlink:href="#DejaVuSans-28" x="341.222656"/>
      <use xlink:href="#DejaVuSans-6e" x="380.236328"/>
      <use xlink:href="#DejaVuSans-3d" x="443.615234"/>
      <use xlink:href="#DejaVuSans-33" x="527.404297"/>
      <use xlink:href="#DejaVuSans-37" x="591.027344"/>
      <use xlink:href="#DejaVuSans-36" x="654.650391"/>
      <use xlink:href="#DejaVuSans-29" x="718.273438"/>
     </g>
    </g>
    <g id="line2d_19">
     <path d="M 225.585093 38.465205 
L 235.585093 38.465205 
L 245.585093 38.465205 
" style="fill: none; stroke: #377eb8; stroke-width: 1.5; stroke-linecap: square"/>
    </g>
    <g id="text_19">
     <!-- Non-Target (n=1152) -->
     <g transform="translate(253.585093 41.965205)scale(0.1 -0.1)">
      <defs>
       <path id="DejaVuSans-4e" d="M 628 4666 
L 1478 4666 
L 3547 763 
L 3547 4666 
L 4159 4666 
L 4159 0 
L 3309 0 
L 1241 3903 
L 1241 0 
L 628 0 
L 628 4666 
z
" transform="scale(0.015625)"/>
       <path id="DejaVuSans-2d" d="M 313 2009 
L 1997 2009 
L 1997 1497 
L 313 1497 
L 313 2009 
z
" transform="scale(0.015625)"/>
      </defs>
      <use xlink:href="#DejaVuSans-4e"/>
      <use xlink:href="#DejaVuSans-6f" x="74.804688"/>
      <use xlink:href="#DejaVuSans-6e" x="135.986328"/>
      <use xlink:href="#DejaVuSans-2d" x="199.365234"/>
      <use xlink:href="#DejaVuSans-54" x="226.324219"/>
      <use xlink:href="#DejaVuSans-61" x="270.908203"/>
      <use xlink:href="#DejaVuSans-72" x="332.1875"/>
      <use xlink:href="#DejaVuSans-67" x="371.550781"/>
      <use xlink:href="#DejaVuSans-65" x="435.027344"/>
      <use xlink:href="#DejaVuSans-74" x="496.550781"/>
      <use xlink:href="#DejaVuSans-20" x="535.759766"/>
      <use xlink:href="#DejaVuSans-28" x="567.546875"/>
      <use xlink:href="#DejaVuSans-6e" x="606.560547"/>
      <use xlink:href="#DejaVuSans-3d" x="669.939453"/>
      <use xlink:href="#DejaVuSans-31" x="753.728516"/>
      <use xlink:href="#DejaVuSans-31" x="817.351562"/>
      <use xlink:href="#DejaVuSans-35" x="880.974609"/>
      <use xlink:href="#DejaVuSans-32" x="944.597656"/>
      <use xlink:href="#DejaVuSans-29" x="1008.220703"/>
     </g>
    </g>
   </g>
  </g>
 </g>
 <defs>
  <clipPath id="pd2a405df2b">
   <rect x="46.55" y="71.241125" width="367.065499" height="246.958875"/>
  </clipPath>
 </defs>
</svg>
