<?xml version="1.0" encoding="utf-8" standalone="no"?>
<!DOCTYPE svg PUBLIC "-//W3C//DTD SVG 1.1//EN"
  "http://www.w3.org/Graphics/SVG/1.1/DTD/svg11.dtd">
<svg xmlns:xlink="http://www.w3.org/1999/xlink" width="432pt" height="360pt" viewBox="0 0 432 360" xmlns="http://www.w3.org/2000/svg" version="1.1">
 <metadata>
  <rdf:RDF xmlns:dc="http://purl.org/dc/elements/1.1/" xmlns:cc="http://creativecommons.org/ns#" xmlns:rdf="http://www.w3.org/1999/02/22-rdf-syntax-ns#">
   <cc:Work>
    <dc:type rdf:resource="http://purl.org/dc/dcmitype/StillImage"/>
    <dc:date>2022-11-02T16:56:49.390864</dc:date>
    <dc:format>image/svg+xml</dc:format>
    <dc:creator>
     <cc:Agent>
      <dc:title>Matplotlib v3.5.1, https://matplotlib.org/</dc:title>
     </cc:Agent>
    </dc:creator>
   </cc:Work>
  </rdf:RDF>
 </metadata>
 <defs>
  <style type="text/css">*{stroke-linejoin: round; stroke-linecap: butt}</style>
 </defs>
 <g id="figure_1">
  <g id="patch_1">
   <path d="M 0 360 
L 432 360 
L 432 0 
L 0 0 
L 0 360 
z
" style="fill: none"/>
  </g>
  <g id="axes_1">
   <g id="patch_2">
    <path d="M 46.55 318.2 
L 413.615499 318.2 
L 413.615499 71.241125 
L 46.55 71.241125 
L 46.55 318.2 
z
" style="fill: none"/>
   </g>
   <g id="PolyCollection_1">
    <defs>
     <path id="mf52dd0f5a7" d="M 46.55 -134.642496 
L 46.55 -85.081549 
L 47.346238 -87.253486 
L 48.142475 -88.836771 
L 48.938713 -89.754609 
L 49.73495 -90.091845 
L 50.531188 -90.106536 
L 51.327425 -90.164477 
L 52.123663 -90.611805 
L 52.9199 -91.65424 
L 53.716138 -93.3017 
L 54.512375 -95.378086 
L 55.308613 -97.55564 
L 56.10485 -99.386353 
L 56.901088 -100.344619 
L 57.697325 -99.92206 
L 58.493563 -97.797459 
L 59.2898 -94.015507 
L 60.086038 -89.013461 
L 60.882275 -83.441378 
L 61.678513 -77.934589 
L 62.47475 -72.988065 
L 63.270988 -68.936953 
L 64.067226 -65.97073 
L 64.863463 -64.126911 
L 65.659701 -63.280045 
L 66.455938 -63.185693 
L 67.252176 -63.596574 
L 68.048413 -64.373723 
L 68.844651 -65.496747 
L 69.640888 -66.985622 
L 70.437126 -68.82807 
L 71.233363 -70.958717 
L 72.029601 -73.262268 
L 72.825838 -75.56874 
L 73.622076 -77.661308 
L 74.418313 -79.351687 
L 75.214551 -80.623054 
L 76.010788 -81.714449 
L 76.807026 -83.018494 
L 77.603263 -84.859847 
L 78.399501 -87.330309 
L 79.195739 -90.269959 
L 79.991976 -93.367671 
L 80.788214 -96.287855 
L 81.584451 -98.737715 
L 82.380689 -100.474217 
L 83.176926 -101.312381 
L 83.973164 -101.170585 
L 84.769401 -100.129756 
L 85.565639 -98.450956 
L 86.361876 -96.50744 
L 87.158114 -94.644418 
L 87.954351 -93.04333 
L 88.750589 -91.679339 
L 89.546826 -90.401546 
L 90.343064 -89.075595 
L 91.139301 -87.687 
L 91.935539 -86.354149 
L 92.731776 -85.270418 
L 93.528014 -84.617183 
L 94.324251 -84.485405 
L 95.120489 -84.839656 
L 95.916727 -85.538989 
L 96.712964 -86.3863 
L 97.509202 -87.159342 
L 98.305439 -87.623867 
L 99.101677 -87.576293 
L 99.897914 -86.934328 
L 100.694152 -85.825487 
L 101.490389 -84.595668 
L 102.286627 -83.703334 
L 103.082864 -83.542918 
L 103.879102 -84.284915 
L 104.675339 -85.80358 
L 105.471577 -87.718991 
L 106.267814 -89.540038 
L 107.064052 -90.858322 
L 107.860289 -91.512093 
L 108.656527 -91.640627 
L 109.452764 -91.602696 
L 110.249002 -91.806575 
L 111.04524 -92.533784 
L 111.841477 -93.82274 
L 112.637715 -95.444354 
L 113.433952 -96.98009 
L 114.23019 -97.986368 
L 115.026427 -98.181509 
L 115.822665 -97.554749 
L 116.618902 -96.329698 
L 117.41514 -94.81123 
L 118.211377 -93.224322 
L 119.007615 -91.644914 
L 119.803852 -90.029732 
L 120.60009 -88.268703 
L 121.396327 -86.216082 
L 122.192565 -83.746387 
L 122.988802 -80.870992 
L 123.78504 -77.846692 
L 124.581277 -75.158903 
L 125.377515 -73.346893 
L 126.173752 -72.772959 
L 126.96999 -73.48096 
L 127.766228 -75.208322 
L 128.562465 -77.502516 
L 129.358703 -79.86174 
L 130.15494 -81.867916 
L 130.951178 -83.30604 
L 131.747415 -84.232049 
L 132.543653 -84.93124 
L 133.33989 -85.755142 
L 134.136128 -86.905429 
L 134.932365 -88.2801 
L 135.728603 -89.474308 
L 136.52484 -89.948609 
L 137.321078 -89.283089 
L 138.117315 -87.384611 
L 138.913553 -84.548219 
L 139.70979 -81.366775 
L 140.506028 -78.55574 
L 141.302265 -76.774063 
L 142.098503 -76.488454 
L 142.89474 -77.885575 
L 143.690978 -80.829317 
L 144.487216 -84.886605 
L 145.283453 -89.443077 
L 146.079691 -93.876638 
L 146.875928 -97.708855 
L 147.672166 -100.66842 
L 148.468403 -102.66207 
L 149.264641 -103.699498 
L 150.060878 -103.82574 
L 150.857116 -103.094156 
L 151.653353 -101.589462 
L 152.449591 -99.483488 
L 153.245828 -97.076834 
L 154.042066 -94.776304 
L 154.838303 -92.998757 
L 155.634541 -92.046092 
L 156.430778 -92.013751 
L 157.227016 -92.765914 
L 158.023253 -93.974463 
L 158.819491 -95.211223 
L 159.615729 -96.085888 
L 160.411966 -96.397799 
L 161.208204 -96.231162 
L 162.004441 -95.927892 
L 162.800679 -95.93952 
L 163.596916 -96.632054 
L 164.393154 -98.133006 
L 165.189391 -100.273973 
L 165.985629 -102.644142 
L 166.781866 -104.74567 
L 167.578104 -106.205202 
L 168.374341 -106.948157 
L 169.170579 -107.234169 
L 169.966816 -107.524035 
L 170.763054 -108.248294 
L 171.559291 -109.592468 
L 172.355529 -111.385218 
L 173.151766 -113.119625 
L 173.948004 -114.098302 
L 174.744241 -113.667554 
L 175.540479 -111.469301 
L 176.336717 -107.607806 
L 177.132954 -102.65235 
L 177.929192 -97.477716 
L 178.725429 -93.017672 
L 179.521667 -90.022633 
L 180.317904 -88.883233 
L 181.114142 -89.547785 
L 181.910379 -91.549324 
L 182.706617 -94.145798 
L 183.502854 -96.538752 
L 184.299092 -98.092512 
L 185.095329 -98.472242 
L 185.891567 -97.667314 
L 186.687804 -95.922633 
L 187.484042 -93.623576 
L 188.280279 -91.167132 
L 189.076517 -88.836179 
L 189.872754 -86.703991 
L 190.668992 -84.617296 
L 191.46523 -82.290082 
L 192.261467 -79.477667 
L 193.057705 -76.142508 
L 193.853942 -72.525332 
L 194.65018 -69.094596 
L 195.446417 -66.410765 
L 196.242655 -64.962598 
L 197.038892 -65.014066 
L 197.83513 -66.484157 
L 198.631367 -68.899147 
L 199.427605 -71.474001 
L 200.223842 -73.338258 
L 201.02008 -73.830436 
L 201.816317 -72.722751 
L 202.612555 -70.269178 
L 203.408792 -67.073049 
L 204.20503 -63.858739 
L 205.001267 -61.251275 
L 205.797505 -59.625177 
L 206.593742 -59.035931 
L 207.38998 -59.236164 
L 208.186218 -59.788315 
L 208.982455 -60.263493 
L 209.778693 -60.454167 
L 210.57493 -60.483015 
L 211.371168 -60.727149 
L 212.167405 -61.592262 
L 212.963643 -63.272798 
L 213.75988 -65.632282 
L 214.556118 -68.248131 
L 215.352355 -70.573053 
L 216.148593 -72.130611 
L 216.94483 -72.676099 
L 217.741068 -72.276208 
L 218.537305 -71.282351 
L 219.333543 -70.199459 
L 220.12978 -69.489717 
L 220.926018 -69.385006 
L 221.722255 -69.793527 
L 222.518493 -70.352882 
L 223.31473 -70.611427 
L 224.110968 -70.251616 
L 224.907206 -69.245768 
L 225.703443 -67.87151 
L 226.499681 -66.585619 
L 227.295918 -65.816275 
L 228.092156 -65.758003 
L 228.888393 -66.24994 
L 229.684631 -66.79875 
L 230.480868 -66.763188 
L 231.277106 -65.64197 
L 232.073343 -63.332527 
L 232.869581 -60.219222 
L 233.665818 -57.037868 
L 234.462056 -54.591836 
L 235.258293 -53.46387 
L 236.054531 -53.839077 
L 236.850768 -55.481255 
L 237.647006 -57.850571 
L 238.443243 -60.321621 
L 239.239481 -62.427347 
L 240.035719 -64.025581 
L 240.831956 -65.305862 
L 241.628194 -66.63507 
L 242.424431 -68.329388 
L 243.220669 -70.47292 
L 244.016906 -72.864011 
L 244.813144 -75.100579 
L 245.609381 -76.764271 
L 246.405619 -77.636487 
L 247.201856 -77.859742 
L 247.998094 -77.960312 
L 248.794331 -78.693522 
L 249.590569 -80.752933 
L 250.386806 -84.456539 
L 251.183044 -89.544749 
L 251.979281 -95.185517 
L 252.775519 -100.198847 
L 253.571756 -103.42422 
L 254.367994 -104.099633 
L 255.164231 -102.119958 
L 255.960469 -98.087804 
L 256.756707 -93.138921 
L 257.552944 -88.592492 
L 258.349182 -85.533121 
L 259.145419 -84.465429 
L 259.941657 -85.17509 
L 260.737894 -86.864079 
L 261.534132 -88.515377 
L 262.330369 -89.336187 
L 263.126607 -89.090156 
L 263.922844 -88.18268 
L 264.719082 -87.480501 
L 265.515319 -87.956462 
L 266.311557 -90.303417 
L 267.107794 -94.654654 
L 267.904032 -100.504641 
L 268.700269 -106.858188 
L 269.496507 -112.554332 
L 270.292744 -116.638277 
L 271.088982 -118.635677 
L 271.88522 -118.637172 
L 272.681457 -117.19251 
L 273.477695 -115.08378 
L 274.273932 -113.070838 
L 275.07017 -111.692715 
L 275.866407 -111.182399 
L 276.662645 -111.511754 
L 277.458882 -112.525232 
L 278.25512 -114.078142 
L 279.051357 -116.098958 
L 279.847595 -118.545398 
L 280.643832 -121.288122 
L 281.44007 -123.998583 
L 282.236307 -126.125533 
L 283.032545 -127.013626 
L 283.828782 -126.149862 
L 284.62502 -123.441232 
L 285.421257 -119.380663 
L 286.217495 -114.994272 
L 287.013732 -111.568128 
L 287.80997 -110.253338 
L 288.606208 -111.688539 
L 289.402445 -115.762824 
L 290.198683 -121.601432 
L 290.99492 -127.798972 
L 291.791158 -132.844545 
L 292.587395 -135.601157 
L 293.383633 -135.665229 
L 294.17987 -133.475308 
L 294.976108 -130.143393 
L 295.772345 -127.085077 
L 296.568583 -125.575631 
L 297.36482 -126.362445 
L 298.161058 -129.444944 
L 298.957295 -134.096923 
L 299.753533 -139.137603 
L 300.54977 -143.360617 
L 301.346008 -145.943641 
L 302.142245 -146.653094 
L 302.938483 -145.772577 
L 303.73472 -143.848804 
L 304.530958 -141.426599 
L 305.327196 -138.882367 
L 306.123433 -136.354947 
L 306.919671 -133.738955 
L 307.715908 -130.75787 
L 308.512146 -127.150645 
L 309.308383 -122.918007 
L 310.104621 -118.470757 
L 310.900858 -114.544292 
L 311.697096 -111.911504 
L 312.493333 -111.072553 
L 313.289571 -112.080546 
L 314.085808 -114.527077 
L 314.882046 -117.624366 
L 315.678283 -120.353709 
L 316.474521 -121.704163 
L 317.270758 -120.982057 
L 318.066996 -118.071784 
L 318.863233 -113.50112 
L 319.659471 -108.262225 
L 320.455709 -103.476391 
L 321.251946 -100.046664 
L 322.048184 -98.40388 
L 322.844421 -98.397483 
L 323.640659 -99.357066 
L 324.436896 -100.323409 
L 325.233134 -100.386692 
L 326.029371 -99.005733 
L 326.825609 -96.176978 
L 327.621846 -92.394665 
L 328.418084 -88.444877 
L 329.214321 -85.13537 
L 330.010559 -83.056248 
L 330.806796 -82.431986 
L 331.603034 -83.098196 
L 332.399271 -84.610453 
L 333.195509 -86.44401 
L 333.991746 -88.191036 
L 334.787984 -89.657777 
L 335.584221 -90.828775 
L 336.380459 -91.752797 
L 337.176697 -92.438606 
L 337.972934 -92.811698 
L 338.769172 -92.731727 
L 339.565409 -92.056438 
L 340.361647 -90.741759 
L 341.157884 -88.941659 
L 341.954122 -87.031268 
L 342.750359 -85.492326 
L 343.546597 -84.695786 
L 344.342834 -84.710311 
L 345.139072 -85.259001 
L 345.935309 -85.844466 
L 346.731547 -85.958637 
L 347.527784 -85.273293 
L 348.324022 -83.756842 
L 349.120259 -81.701318 
L 349.916497 -79.644522 
L 350.712734 -78.18434 
L 351.508972 -77.739523 
L 352.30521 -78.366423 
L 353.101447 -79.730555 
L 353.897685 -81.252533 
L 354.693922 -82.358415 
L 355.49016 -82.718178 
L 356.286397 -82.372142 
L 357.082635 -81.700622 
L 357.878872 -81.2577 
L 358.67511 -81.541483 
L 359.471347 -82.793941 
L 360.267585 -84.907659 
L 361.063822 -87.471555 
L 361.86006 -89.936619 
L 362.656297 -91.84212 
L 363.452535 -93.015608 
L 364.248772 -93.655087 
L 365.04501 -94.241524 
L 365.841247 -95.314415 
L 366.637485 -97.219689 
L 367.433722 -99.949649 
L 368.22996 -103.139105 
L 369.026198 -106.202715 
L 369.822435 -108.543003 
L 370.618673 -109.74825 
L 371.41491 -109.720426 
L 372.211148 -108.698057 
L 373.007385 -107.16249 
L 373.803623 -105.654194 
L 374.59986 -104.572237 
L 375.396098 -104.046809 
L 376.192335 -103.940104 
L 376.988573 -103.96663 
L 377.78481 -103.873418 
L 378.581048 -103.607044 
L 379.377285 -103.406152 
L 380.173523 -103.776475 
L 380.96976 -105.331809 
L 381.765998 -108.534987 
L 382.562235 -113.439224 
L 383.358473 -119.557711 
L 384.15471 -125.94 
L 384.950948 -131.435535 
L 385.747186 -135.041341 
L 386.543423 -136.208286 
L 387.339661 -135.009361 
L 388.135898 -132.119038 
L 388.932136 -128.600536 
L 389.728373 -125.555789 
L 390.524611 -123.753236 
L 391.320848 -123.376219 
L 392.117086 -123.998679 
L 392.913323 -124.801935 
L 393.709561 -124.944293 
L 394.505798 -123.932476 
L 395.302036 -121.849803 
L 396.098273 -119.359731 
L 396.894511 -117.490108 
L 397.690748 -117.278125 
L 398.486986 -119.396787 
L 399.283223 -123.888915 
L 400.079461 -130.106835 
L 400.875699 -136.893263 
L 401.671936 -142.94919 
L 402.468174 -147.252164 
L 403.264411 -149.361465 
L 404.060649 -149.496716 
L 404.856886 -148.380338 
L 405.653124 -146.93415 
L 406.449361 -145.964101 
L 407.245599 -145.942277 
L 408.041836 -146.933205 
L 408.838074 -148.657388 
L 409.634311 -150.655084 
L 410.430549 -152.494385 
L 411.226786 -153.953129 
L 412.023024 -155.102181 
L 412.819261 -156.246538 
L 413.615499 -157.746878 
L 413.615499 -277.533472 
L 413.615499 -277.533472 
L 412.819261 -275.779933 
L 412.023024 -274.454348 
L 411.226786 -273.168456 
L 410.430549 -271.492989 
L 409.634311 -269.163321 
L 408.838074 -266.253252 
L 408.041836 -263.211243 
L 407.245599 -260.703322 
L 406.449361 -259.309467 
L 405.653124 -259.210246 
L 404.856886 -260.022518 
L 404.060649 -260.8773 
L 403.264411 -260.716326 
L 402.468174 -258.685206 
L 401.671936 -254.468815 
L 400.875699 -248.447204 
L 400.079461 -241.618279 
L 399.283223 -235.30851 
L 398.486986 -230.759363 
L 397.690748 -228.723973 
L 396.894511 -229.22086 
L 396.098273 -231.548099 
L 395.302036 -234.563242 
L 394.505798 -237.119875 
L 393.709561 -238.483001 
L 392.913323 -238.559996 
L 392.117086 -237.868577 
L 391.320848 -237.27244 
L 390.524611 -237.599363 
L 389.728373 -239.287692 
L 388.932136 -242.184346 
L 388.135898 -245.558524 
L 387.339661 -248.32585 
L 386.543423 -249.409378 
L 385.747186 -248.11174 
L 384.950948 -244.358137 
L 384.15471 -238.715718 
L 383.358473 -232.191134 
L 382.562235 -225.902925 
L 381.765998 -220.762702 
L 380.96976 -217.266656 
L 380.173523 -215.436205 
L 379.377285 -214.898715 
L 378.581048 -215.073736 
L 377.78481 -215.406056 
L 376.988573 -215.561929 
L 376.192335 -215.507761 
L 375.396098 -215.442238 
L 374.59986 -215.629473 
L 373.803623 -216.225522 
L 373.007385 -217.175978 
L 372.211148 -218.214008 
L 371.41491 -218.946574 
L 370.618673 -218.994663 
L 369.822435 -218.138769 
L 369.026198 -216.409075 
L 368.22996 -214.072395 
L 367.433722 -211.516807 
L 366.637485 -209.093569 
L 365.841247 -206.996842 
L 365.04501 -205.230401 
L 364.248772 -203.657553 
L 363.452535 -202.094593 
L 362.656297 -200.404423 
L 361.86006 -198.564323 
L 361.063822 -196.694333 
L 360.267585 -195.031444 
L 359.471347 -193.841935 
L 358.67511 -193.297826 
L 357.878872 -193.37766 
L 357.082635 -193.848949 
L 356.286397 -194.348741 
L 355.49016 -194.529225 
L 354.693922 -194.203365 
L 353.897685 -193.425198 
L 353.101447 -192.468666 
L 352.30521 -191.716663 
L 351.508972 -191.510756 
L 350.712734 -192.019712 
L 349.916497 -193.168519 
L 349.120259 -194.647982 
L 348.324022 -196.011241 
L 347.527784 -196.842347 
L 346.731547 -196.939599 
L 345.935309 -196.417566 
L 345.139072 -195.654325 
L 344.342834 -195.106007 
L 343.546597 -195.103548 
L 342.750359 -195.742876 
L 341.954122 -196.892043 
L 341.157884 -198.266539 
L 340.361647 -199.524532 
L 339.565409 -200.369184 
L 338.769172 -200.647056 
L 337.972934 -200.396736 
L 337.176697 -199.798147 
L 336.380459 -199.039785 
L 335.584221 -198.197037 
L 334.787984 -197.211726 
L 333.991746 -195.980547 
L 333.195509 -194.483081 
L 332.399271 -192.873534 
L 331.603034 -191.499101 
L 330.806796 -190.835819 
L 330.010559 -191.344136 
L 329.214321 -193.274026 
L 328.418084 -196.497411 
L 327.621846 -200.467285 
L 326.825609 -204.355639 
L 326.029371 -207.326916 
L 325.233134 -208.830586 
L 324.436896 -208.796936 
L 323.640659 -207.674015 
L 322.844421 -206.300548 
L 322.048184 -205.645935 
L 321.251946 -206.482066 
L 320.455709 -209.093149 
L 319.659471 -213.146171 
L 318.863233 -217.791215 
L 318.066996 -221.948801 
L 317.270758 -224.653888 
L 316.474521 -225.33369 
L 315.678283 -223.965681 
L 314.882046 -221.102204 
L 314.085808 -217.737772 
L 313.289571 -215.011368 
L 312.493333 -213.825976 
L 311.697096 -214.561235 
L 310.900858 -217.028753 
L 310.104621 -220.658799 
L 309.308383 -224.764907 
L 308.512146 -228.744917 
L 307.715908 -232.194416 
L 306.919671 -234.975658 
L 306.123433 -237.232052 
L 305.327196 -239.279884 
L 304.530958 -241.37096 
L 303.73472 -243.454174 
L 302.938483 -245.111706 
L 302.142245 -245.731119 
L 301.346008 -244.802998 
L 300.54977 -242.170139 
L 299.753533 -238.129198 
L 298.957295 -233.390328 
L 298.161058 -228.93281 
L 297.36482 -225.768977 
L 296.568583 -224.638324 
L 295.772345 -225.71675 
L 294.976108 -228.472723 
L 294.17987 -231.771454 
L 293.383633 -234.222609 
L 292.587395 -234.647211 
L 291.791158 -232.482187 
L 290.99492 -227.976097 
L 290.198683 -222.117157 
L 289.402445 -216.324019 
L 288.606208 -211.998616 
L 287.80997 -210.085935 
L 287.013732 -210.794581 
L 286.217495 -213.58093 
L 285.421257 -217.39096 
L 284.62502 -221.042631 
L 283.828782 -223.588115 
L 283.032545 -224.537134 
L 282.236307 -223.902675 
L 281.44007 -222.09165 
L 280.643832 -219.697568 
L 279.847595 -217.276099 
L 279.051357 -215.191034 
L 278.25512 -213.585327 
L 277.458882 -212.465307 
L 276.662645 -211.826897 
L 275.866407 -211.738004 
L 275.07017 -212.322723 
L 274.273932 -213.647941 
L 273.477695 -215.567445 
L 272.681457 -217.615729 
L 271.88522 -219.040966 
L 271.088982 -219.005749 
L 270.292744 -216.891514 
L 269.496507 -212.5742 
L 268.700269 -206.544517 
L 267.904032 -199.813437 
L 267.107794 -193.627603 
L 266.311557 -189.087045 
L 265.515319 -186.795662 
L 264.719082 -186.676388 
L 263.922844 -188.034007 
L 263.126607 -189.850654 
L 262.330369 -191.193741 
L 261.534132 -191.568122 
L 260.737894 -191.079785 
L 259.941657 -190.363383 
L 259.145419 -190.308813 
L 258.349182 -191.681996 
L 257.552944 -194.768997 
L 256.756707 -199.1773 
L 255.960469 -203.887926 
L 255.164231 -207.564077 
L 254.367994 -209.011342 
L 253.571756 -207.606806 
L 252.775519 -203.520674 
L 251.979281 -197.644078 
L 251.183044 -191.260832 
L 250.386806 -185.60041 
L 249.590569 -181.445045 
L 248.794331 -178.929238 
L 247.998094 -177.587351 
L 247.201856 -176.611189 
L 246.405619 -175.207602 
L 245.609381 -172.917244 
L 244.813144 -169.774488 
L 244.016906 -166.250378 
L 243.220669 -163.006694 
L 242.424431 -160.573043 
L 241.628194 -159.101635 
L 240.831956 -158.315946 
L 240.035719 -157.664693 
L 239.239481 -156.592121 
L 238.443243 -154.800745 
L 237.647006 -152.406817 
L 236.850768 -149.932374 
L 236.054531 -148.126491 
L 235.258293 -147.670671 
L 234.462056 -148.888334 
L 233.665818 -151.597532 
L 232.869581 -155.179598 
L 232.073343 -158.818145 
L 231.277106 -161.783754 
L 230.480868 -163.651271 
L 229.684631 -164.397417 
L 228.888393 -164.369005 
L 228.092156 -164.128735 
L 227.295918 -164.217004 
L 226.499681 -164.917933 
L 225.703443 -166.139598 
L 224.907206 -167.473507 
L 224.110968 -168.403953 
L 223.31473 -168.559207 
L 222.518493 -167.885604 
L 221.722255 -166.674467 
L 220.926018 -165.439225 
L 220.12978 -164.695444 
L 219.333543 -164.730896 
L 218.537305 -165.460505 
L 217.741068 -166.436187 
L 216.94483 -167.021697 
L 216.148593 -166.664366 
L 215.352355 -165.139544 
L 214.556118 -162.648123 
L 213.75988 -159.720637 
L 212.963643 -156.982965 
L 212.167405 -154.910215 
L 211.371168 -153.686533 
L 210.57493 -153.21041 
L 209.778693 -153.203451 
L 208.982455 -153.355836 
L 208.186218 -153.466692 
L 207.38998 -153.550484 
L 206.593742 -153.859744 
L 205.797505 -154.774699 
L 205.001267 -156.57821 
L 204.20503 -159.226484 
L 203.408792 -162.258951 
L 202.612555 -164.91981 
L 201.816317 -166.435124 
L 201.02008 -166.303773 
L 200.223842 -164.473915 
L 199.427605 -161.3568 
L 198.631367 -157.709157 
L 197.83513 -154.439031 
L 197.038892 -152.374976 
L 196.242655 -152.038858 
L 195.446417 -153.492927 
L 194.65018 -156.340637 
L 193.853942 -159.900529 
L 193.057705 -163.474604 
L 192.261467 -166.582441 
L 191.46523 -169.068263 
L 190.668992 -171.070187 
L 189.872754 -172.901068 
L 189.076517 -174.896557 
L 188.280279 -177.263265 
L 187.484042 -179.95586 
L 186.687804 -182.631316 
L 185.891567 -184.728501 
L 185.095329 -185.668526 
L 184.299092 -185.097921 
L 183.502854 -183.06566 
L 182.706617 -180.060166 
L 181.910379 -176.899778 
L 181.114142 -174.522989 
L 180.317904 -173.73934 
L 179.521667 -174.998026 
L 178.725429 -178.237005 
L 177.929192 -182.878952 
L 177.132954 -187.999492 
L 176.336717 -192.612818 
L 175.540479 -195.960603 
L 174.744241 -197.696672 
L 173.948004 -197.921506 
L 173.151766 -197.083869 
L 172.355529 -195.794886 
L 171.559291 -194.607028 
L 170.763054 -193.826774 
L 169.966816 -193.436684 
L 169.170579 -193.161437 
L 168.374341 -192.635644 
L 167.578104 -191.581137 
L 166.781866 -189.918381 
L 165.985629 -187.792569 
L 165.189391 -185.528301 
L 164.393154 -183.52349 
L 163.596916 -182.101801 
L 162.800679 -181.379394 
L 162.004441 -181.218874 
L 161.208204 -181.298453 
L 160.411966 -181.254941 
L 159.615729 -180.828407 
L 158.819491 -179.958421 
L 158.023253 -178.811908 
L 157.227016 -177.730085 
L 156.430778 -177.095829 
L 155.634541 -177.168743 
L 154.838303 -177.974893 
L 154.042066 -179.313308 
L 153.245828 -180.86232 
L 152.449591 -182.309313 
L 151.653353 -183.433734 
L 150.857116 -184.121533 
L 150.060878 -184.328897 
L 149.264641 -184.023488 
L 148.468403 -183.133019 
L 147.672166 -181.535394 
L 146.875928 -179.110454 
L 146.079691 -175.834282 
L 145.283453 -171.866464 
L 144.487216 -167.586789 
L 143.690978 -163.561568 
L 142.89474 -160.433574 
L 142.098503 -158.742373 
L 141.302265 -158.720694 
L 140.506028 -160.162488 
L 139.70979 -162.459422 
L 138.913553 -164.816979 
L 138.117315 -166.548312 
L 137.321078 -167.298595 
L 136.52484 -167.10224 
L 135.728603 -166.273623 
L 134.932365 -165.214442 
L 134.136128 -164.236308 
L 133.33989 -163.454725 
L 132.543653 -162.765423 
L 131.747415 -161.895873 
L 130.951178 -160.516938 
L 130.15494 -158.391092 
L 129.358703 -155.519495 
L 128.562465 -152.225781 
L 127.766228 -149.107139 
L 126.96999 -146.835962 
L 126.173752 -145.897819 
L 125.377515 -146.415546 
L 124.581277 -148.150292 
L 123.78504 -150.639519 
L 122.988802 -153.367406 
L 122.192565 -155.904633 
L 121.396327 -158.017763 
L 120.60009 -159.742869 
L 119.803852 -161.365392 
L 119.007615 -163.254291 
L 118.211377 -165.607337 
L 117.41514 -168.277144 
L 116.618902 -170.812409 
L 115.822665 -172.675235 
L 115.026427 -173.478032 
L 114.23019 -173.116901 
L 113.433952 -171.776695 
L 112.637715 -169.847997 
L 111.841477 -167.799994 
L 111.04524 -166.034539 
L 110.249002 -164.754148 
L 109.452764 -163.89905 
L 108.656527 -163.193652 
L 107.860289 -162.282977 
L 107.064052 -160.88955 
L 106.267814 -158.922041 
L 105.471577 -156.507462 
L 104.675339 -153.950823 
L 103.879102 -151.637404 
L 103.082864 -149.903326 
L 102.286627 -148.918873 
L 101.490389 -148.631555 
L 100.694152 -148.787848 
L 99.897914 -149.018963 
L 99.101677 -148.963752 
L 98.305439 -148.401215 
L 97.509202 -147.349574 
L 96.712964 -146.072522 
L 95.916727 -144.958407 
L 95.120489 -144.313301 
L 94.324251 -144.186172 
L 93.528014 -144.342174 
L 92.731776 -144.396294 
L 91.935539 -144.015518 
L 91.139301 -143.080708 
L 90.343064 -141.741594 
L 89.546826 -140.347023 
L 88.750589 -139.283624 
L 87.954351 -138.808422 
L 87.158114 -138.967276 
L 86.361876 -139.618077 
L 85.565639 -140.499602 
L 84.769401 -141.288427 
L 83.973164 -141.640319 
L 83.176926 -141.245809 
L 82.380689 -139.914368 
L 81.584451 -137.656593 
L 80.788214 -134.708153 
L 79.991976 -131.457567 
L 79.195739 -128.293636 
L 78.399501 -125.455077 
L 77.603263 -122.984814 
L 76.807026 -120.811062 
L 76.010788 -118.873014 
L 75.214551 -117.182247 
L 74.418313 -115.764277 
L 73.622076 -114.538029 
L 72.825838 -113.28507 
L 72.029601 -111.764313 
L 71.233363 -109.846078 
L 70.437126 -107.550793 
L 69.640888 -105.010665 
L 68.844651 -102.428257 
L 68.048413 -100.063351 
L 67.252176 -98.215634 
L 66.455938 -97.163149 
L 65.659701 -97.084485 
L 64.863463 -98.042576 
L 64.067226 -100.03695 
L 63.270988 -103.037466 
L 62.47475 -106.946423 
L 61.678513 -111.536707 
L 60.882275 -116.451591 
L 60.086038 -121.29436 
L 59.2898 -125.744776 
L 58.493563 -129.601301 
L 57.697325 -132.712925 
L 56.901088 -134.911587 
L 56.10485 -136.075731 
L 55.308613 -136.260329 
L 54.512375 -135.740718 
L 53.716138 -134.931852 
L 52.9199 -134.245465 
L 52.123663 -133.9662 
L 51.327425 -134.195021 
L 50.531188 -134.854371 
L 49.73495 -135.718789 
L 48.938713 -136.45337 
L 48.142475 -136.681797 
L 47.346238 -136.105518 
L 46.55 -134.642496 
z
" style="stroke: #e41a1c; stroke-opacity: 0.3"/>
    </defs>
    <g clip-path="url(#p8960940a7a)">
     <use xlink:href="#mf52dd0f5a7" x="0" y="360" style="fill: #e41a1c; fill-opacity: 0.3; stroke: #e41a1c; stroke-opacity: 0.3"/>
    </g>
   </g>
   <g id="PolyCollection_2">
    <defs>
     <path id="m4980ca5017" d="M 46.55 -123.884865 
L 46.55 -97.840729 
L 47.346238 -98.452312 
L 48.142475 -98.983072 
L 48.938713 -99.455894 
L 49.73495 -99.860462 
L 50.531188 -100.13391 
L 51.327425 -100.177234 
L 52.123663 -99.899622 
L 52.9199 -99.262205 
L 53.716138 -98.293893 
L 54.512375 -97.07355 
L 55.308613 -95.697977 
L 56.10485 -94.263015 
L 56.901088 -92.864596 
L 57.697325 -91.59692 
L 58.493563 -90.528903 
L 59.2898 -89.680268 
L 60.086038 -89.035497 
L 60.882275 -88.600486 
L 61.678513 -88.458652 
L 62.47475 -88.769752 
L 63.270988 -89.699307 
L 64.067226 -91.324484 
L 64.863463 -93.571459 
L 65.659701 -96.201518 
L 66.455938 -98.831987 
L 67.252176 -100.986438 
L 68.048413 -102.191841 
L 68.844651 -102.123732 
L 69.640888 -100.742029 
L 70.437126 -98.328745 
L 71.233363 -95.396286 
L 72.029601 -92.526542 
L 72.825838 -90.226989 
L 73.622076 -88.843818 
L 74.418313 -88.513652 
L 75.214551 -89.133437 
L 76.010788 -90.37658 
L 76.807026 -91.788022 
L 77.603263 -92.935664 
L 78.399501 -93.547687 
L 79.195739 -93.568097 
L 79.991976 -93.114714 
L 80.788214 -92.382929 
L 81.584451 -91.553051 
L 82.380689 -90.733304 
L 83.176926 -89.945594 
L 83.973164 -89.153254 
L 84.769401 -88.320875 
L 85.565639 -87.477584 
L 86.361876 -86.744996 
L 87.158114 -86.307591 
L 87.954351 -86.337442 
L 88.750589 -86.912433 
L 89.546826 -87.968038 
L 90.343064 -89.302723 
L 91.139301 -90.632214 
L 91.935539 -91.672347 
L 92.731776 -92.223435 
L 93.528014 -92.227886 
L 94.324251 -91.779327 
L 95.120489 -91.079972 
L 95.916727 -90.365684 
L 96.712964 -89.831192 
L 97.509202 -89.58286 
L 98.305439 -89.630054 
L 99.101677 -89.910112 
L 99.897914 -90.333348 
L 100.694152 -90.829184 
L 101.490389 -91.372441 
L 102.286627 -91.974098 
L 103.082864 -92.639136 
L 103.879102 -93.316661 
L 104.675339 -93.877964 
L 105.471577 -94.145497 
L 106.267814 -93.965733 
L 107.064052 -93.289268 
L 107.860289 -92.213803 
L 108.656527 -90.967558 
L 109.452764 -89.844199 
L 110.249002 -89.119721 
L 111.04524 -88.97922 
L 111.841477 -89.470138 
L 112.637715 -90.49091 
L 113.433952 -91.820625 
L 114.23019 -93.186415 
L 115.026427 -94.347739 
L 115.822665 -95.16301 
L 116.618902 -95.609788 
L 117.41514 -95.754974 
L 118.211377 -95.697895 
L 119.007615 -95.517465 
L 119.803852 -95.244146 
L 120.60009 -94.862639 
L 121.396327 -94.341225 
L 122.192565 -93.676866 
L 122.988802 -92.936774 
L 123.78504 -92.270237 
L 124.581277 -91.871455 
L 125.377515 -91.899766 
L 126.173752 -92.395019 
L 126.96999 -93.236319 
L 127.766228 -94.171995 
L 128.562465 -94.908854 
L 129.358703 -95.218221 
L 130.15494 -95.014919 
L 130.951178 -94.387509 
L 131.747415 -93.578865 
L 132.543653 -92.924091 
L 133.33989 -92.755116 
L 134.136128 -93.29072 
L 134.932365 -94.54728 
L 135.728603 -96.312926 
L 136.52484 -98.208338 
L 137.321078 -99.816148 
L 138.117315 -100.825325 
L 138.913553 -101.131402 
L 139.70979 -100.857571 
L 140.506028 -100.295465 
L 141.302265 -99.79091 
L 142.098503 -99.614032 
L 142.89474 -99.85705 
L 143.690978 -100.397148 
L 144.487216 -100.942985 
L 145.283453 -101.152725 
L 146.079691 -100.780044 
L 146.875928 -99.789317 
L 147.672166 -98.39217 
L 148.468403 -96.989029 
L 149.264641 -96.036443 
L 150.060878 -95.888044 
L 150.857116 -96.666775 
L 151.653353 -98.216277 
L 152.449591 -100.152099 
L 153.245828 -101.996077 
L 154.042066 -103.343915 
L 154.838303 -104.002307 
L 155.634541 -104.043592 
L 156.430778 -103.759185 
L 157.227016 -103.534658 
L 158.023253 -103.700626 
L 158.819491 -104.420202 
L 159.615729 -105.652454 
L 160.411966 -107.196946 
L 161.208204 -108.794447 
L 162.004441 -110.241617 
L 162.800679 -111.474358 
L 163.596916 -112.585329 
L 164.393154 -113.767464 
L 165.189391 -115.209288 
L 165.985629 -116.993257 
L 166.781866 -119.046977 
L 167.578104 -121.167911 
L 168.374341 -123.105048 
L 169.170579 -124.659076 
L 169.966816 -125.761039 
L 170.763054 -126.499629 
L 171.559291 -127.083207 
L 172.355529 -127.746509 
L 173.151766 -128.639455 
L 173.948004 -129.749221 
L 174.744241 -130.892065 
L 175.540479 -131.775143 
L 176.336717 -132.094686 
L 177.132954 -131.627177 
L 177.929192 -130.284322 
L 178.725429 -128.12408 
L 179.521667 -125.3232 
L 180.317904 -122.124362 
L 181.114142 -118.778521 
L 181.910379 -115.505726 
L 182.706617 -112.485913 
L 183.502854 -109.870079 
L 184.299092 -107.789171 
L 185.095329 -106.342118 
L 185.891567 -105.561994 
L 186.687804 -105.375074 
L 187.484042 -105.575252 
L 188.280279 -105.835252 
L 189.076517 -105.768047 
L 189.872754 -105.032552 
L 190.668992 -103.451936 
L 191.46523 -101.095239 
L 192.261467 -98.277828 
L 193.057705 -95.46738 
L 193.853942 -93.12684 
L 194.65018 -91.558301 
L 195.446417 -90.809709 
L 196.242655 -90.671211 
L 197.038892 -90.748629 
L 197.83513 -90.584145 
L 198.631367 -89.793261 
L 199.427605 -88.183035 
L 200.223842 -85.810539 
L 201.02008 -82.952447 
L 201.816317 -79.99488 
L 202.612555 -77.296722 
L 203.408792 -75.093127 
L 204.20503 -73.474306 
L 205.001267 -72.424323 
L 205.797505 -71.877265 
L 206.593742 -71.758717 
L 207.38998 -72.003866 
L 208.186218 -72.555391 
L 208.982455 -73.344001 
L 209.778693 -74.258741 
L 210.57493 -75.126021 
L 211.371168 -75.724234 
L 212.167405 -75.847727 
L 212.963643 -75.402824 
L 213.75988 -74.490013 
L 214.556118 -73.422299 
L 215.352355 -72.656574 
L 216.148593 -72.657968 
L 216.94483 -73.749652 
L 217.741068 -76.003827 
L 218.537305 -79.206306 
L 219.333543 -82.897513 
L 220.12978 -86.475142 
L 220.926018 -89.335303 
L 221.722255 -91.0185 
L 222.518493 -91.316602 
L 223.31473 -90.303328 
L 224.110968 -88.279294 
L 224.907206 -85.659521 
L 225.703443 -82.851766 
L 226.499681 -80.167672 
L 227.295918 -77.785289 
L 228.092156 -75.759649 
L 228.888393 -74.065713 
L 229.684631 -72.652125 
L 230.480868 -71.483086 
L 231.277106 -70.551712 
L 232.073343 -69.861983 
L 232.869581 -69.392373 
L 233.665818 -69.063609 
L 234.462056 -68.731736 
L 235.258293 -68.21551 
L 236.054531 -67.350444 
L 236.850768 -66.046581 
L 237.647006 -64.322539 
L 238.443243 -62.299615 
L 239.239481 -60.162015 
L 240.035719 -58.105751 
L 240.831956 -56.297604 
L 241.628194 -54.852452 
L 242.424431 -53.826858 
L 243.220669 -53.22636 
L 244.016906 -53.025403 
L 244.813144 -53.192881 
L 245.609381 -53.706363 
L 246.405619 -54.539636 
L 247.201856 -55.628615 
L 247.998094 -56.845366 
L 248.794331 -58.01245 
L 249.590569 -58.962631 
L 250.386806 -59.61239 
L 251.183044 -60.003596 
L 251.979281 -60.289309 
L 252.775519 -60.67462 
L 253.571756 -61.341831 
L 254.367994 -62.385499 
L 255.164231 -63.773642 
L 255.960469 -65.347129 
L 256.756707 -66.863045 
L 257.552944 -68.072375 
L 258.349182 -68.804573 
L 259.145419 -69.027158 
L 259.941657 -68.859523 
L 260.737894 -68.536744 
L 261.534132 -68.332647 
L 262.330369 -68.46354 
L 263.126607 -69.008875 
L 263.922844 -69.888311 
L 264.719082 -70.911417 
L 265.515319 -71.87574 
L 266.311557 -72.660954 
L 267.107794 -73.272204 
L 267.904032 -73.816002 
L 268.700269 -74.424356 
L 269.496507 -75.162086 
L 270.292744 -75.957733 
L 271.088982 -76.59152 
L 271.88522 -76.7536 
L 272.681457 -76.156045 
L 273.477695 -74.656935 
L 274.273932 -72.347819 
L 275.07017 -69.568403 
L 275.866407 -66.836525 
L 276.662645 -64.709509 
L 277.458882 -63.619906 
L 278.25512 -63.743619 
L 279.051357 -64.949306 
L 279.847595 -66.844168 
L 280.643832 -68.892204 
L 281.44007 -70.559774 
L 282.236307 -71.446556 
L 283.032545 -71.374178 
L 283.828782 -70.415683 
L 284.62502 -68.858567 
L 285.421257 -67.111162 
L 286.217495 -65.584489 
L 287.013732 -64.591542 
L 287.80997 -64.291858 
L 288.606208 -64.682777 
L 289.402445 -65.622227 
L 290.198683 -66.869895 
L 290.99492 -68.142671 
L 291.791158 -69.180323 
L 292.587395 -69.808207 
L 293.383633 -69.978443 
L 294.17987 -69.778203 
L 294.976108 -69.40491 
L 295.772345 -69.114287 
L 296.568583 -69.147647 
L 297.36482 -69.650475 
L 298.161058 -70.60787 
L 298.957295 -71.830198 
L 299.753533 -73.007072 
L 300.54977 -73.812204 
L 301.346008 -74.013109 
L 302.142245 -73.54102 
L 302.938483 -72.502342 
L 303.73472 -71.138191 
L 304.530958 -69.748848 
L 305.327196 -68.601464 
L 306.123433 -67.844891 
L 306.919671 -67.462798 
L 307.715908 -67.290369 
L 308.512146 -67.093243 
L 309.308383 -66.675069 
L 310.104621 -65.965063 
L 310.900858 -65.048452 
L 311.697096 -64.131232 
L 312.493333 -63.458516 
L 313.289571 -63.221289 
L 314.085808 -63.486606 
L 314.882046 -64.174246 
L 315.678283 -65.084338 
L 316.474521 -65.963371 
L 317.270758 -66.585475 
L 318.066996 -66.823285 
L 318.863233 -66.686533 
L 319.659471 -66.317069 
L 320.455709 -65.944797 
L 321.251946 -65.824912 
L 322.048184 -66.182023 
L 322.844421 -67.174798 
L 323.640659 -68.875184 
L 324.436896 -71.249252 
L 325.233134 -74.139391 
L 326.029371 -77.264817 
L 326.825609 -80.258083 
L 327.621846 -82.737376 
L 328.418084 -84.393571 
L 329.214321 -85.063504 
L 330.010559 -84.769664 
L 330.806796 -83.719927 
L 331.603034 -82.268253 
L 332.399271 -80.840886 
L 333.195509 -79.840128 
L 333.991746 -79.549305 
L 334.787984 -80.068484 
L 335.584221 -81.302779 
L 336.380459 -83.005532 
L 337.176697 -84.858917 
L 337.972934 -86.56374 
L 338.769172 -87.911703 
L 339.565409 -88.821508 
L 340.361647 -89.332531 
L 341.157884 -89.563663 
L 341.954122 -89.656532 
L 342.750359 -89.725991 
L 343.546597 -89.834713 
L 344.342834 -89.995083 
L 345.139072 -90.18917 
L 345.935309 -90.392529 
L 346.731547 -90.592682 
L 347.527784 -90.800227 
L 348.324022 -91.054052 
L 349.120259 -91.420196 
L 349.916497 -91.981948 
L 350.712734 -92.819842 
L 351.508972 -93.983933 
L 352.30521 -95.465747 
L 353.101447 -97.181031 
L 353.897685 -98.973761 
L 354.693922 -100.645075 
L 355.49016 -102.000523 
L 356.286397 -102.900898 
L 357.082635 -103.301423 
L 357.878872 -103.269427 
L 358.67511 -102.976896 
L 359.471347 -102.667367 
L 360.267585 -102.600203 
L 361.063822 -102.983699 
L 361.86006 -103.918851 
L 362.656297 -105.375426 
L 363.452535 -107.207384 
L 364.248772 -109.196236 
L 365.04501 -111.102845 
L 365.841247 -112.713236 
L 366.637485 -113.872 
L 367.433722 -114.499701 
L 368.22996 -114.591581 
L 369.026198 -114.202157 
L 369.822435 -113.429749 
L 370.618673 -112.413446 
L 371.41491 -111.339886 
L 372.211148 -110.441246 
L 373.007385 -109.965405 
L 373.803623 -110.117417 
L 374.59986 -110.992889 
L 375.396098 -112.531566 
L 376.192335 -114.511385 
L 376.988573 -116.588231 
L 377.78481 -118.373818 
L 378.581048 -119.534166 
L 379.377285 -119.882827 
L 380.173523 -119.438645 
L 380.96976 -118.422796 
L 381.765998 -117.188534 
L 382.562235 -116.104426 
L 383.358473 -115.435619 
L 384.15471 -115.27253 
L 384.950948 -115.535045 
L 385.747186 -116.044023 
L 386.543423 -116.621372 
L 387.339661 -117.171951 
L 388.135898 -117.716073 
L 388.932136 -118.36623 
L 389.728373 -119.263188 
L 390.524611 -120.498146 
L 391.320848 -122.050717 
L 392.117086 -123.76874 
L 392.913323 -125.404507 
L 393.709561 -126.699921 
L 394.505798 -127.488176 
L 395.302036 -127.766102 
L 396.098273 -127.702284 
L 396.894511 -127.576747 
L 397.690748 -127.680442 
L 398.486986 -128.216603 
L 399.283223 -129.23893 
L 400.079461 -130.643845 
L 400.875699 -132.21701 
L 401.671936 -133.718567 
L 402.468174 -134.977665 
L 403.264411 -135.959832 
L 404.060649 -136.777982 
L 404.856886 -137.64126 
L 405.653124 -138.765439 
L 406.449361 -140.286652 
L 407.245599 -142.215675 
L 408.041836 -144.446345 
L 408.838074 -146.805407 
L 409.634311 -149.116128 
L 410.430549 -151.248849 
L 411.226786 -153.142699 
L 412.023024 -154.796189 
L 412.819261 -156.235077 
L 413.615499 -157.473022 
L 413.615499 -223.134849 
L 413.615499 -223.134849 
L 412.819261 -221.725613 
L 412.023024 -220.041191 
L 411.226786 -218.105079 
L 410.430549 -215.929892 
L 409.634311 -213.544424 
L 408.838074 -211.026414 
L 408.041836 -208.515943 
L 407.245599 -206.193678 
L 406.449361 -204.229167 
L 405.653124 -202.721661 
L 404.856886 -201.659394 
L 404.060649 -200.914865 
L 403.264411 -200.279959 
L 402.468174 -199.531991 
L 401.671936 -198.511336 
L 400.875699 -197.184427 
L 400.079461 -195.664811 
L 399.283223 -194.175827 
L 398.486986 -192.96238 
L 397.690748 -192.186033 
L 396.894511 -191.850831 
L 396.098273 -191.795163 
L 395.302036 -191.752523 
L 394.505798 -191.452049 
L 393.709561 -190.715803 
L 392.913323 -189.51737 
L 392.117086 -187.984129 
L 391.320848 -186.344396 
L 390.524611 -184.837935 
L 389.728373 -183.624042 
L 388.932136 -182.726994 
L 388.135898 -182.045954 
L 387.339661 -181.425726 
L 386.543423 -180.752884 
L 385.747186 -180.027731 
L 384.950948 -179.376045 
L 384.15471 -178.996331 
L 383.358473 -179.068912 
L 382.562235 -179.666278 
L 381.765998 -180.698848 
L 380.96976 -181.914633 
L 380.173523 -182.954435 
L 379.377285 -183.449325 
L 378.581048 -183.13343 
L 377.78481 -181.935645 
L 376.988573 -180.015177 
L 376.192335 -177.723248 
L 375.396098 -175.5022 
L 374.59986 -173.758772 
L 373.803623 -172.757877 
L 373.007385 -172.571057 
L 372.211148 -173.086502 
L 371.41491 -174.062975 
L 370.618673 -175.201121 
L 369.822435 -176.211792 
L 369.026198 -176.86891 
L 368.22996 -177.038677 
L 367.433722 -176.680975 
L 366.637485 -175.827989 
L 365.841247 -174.556236 
L 365.04501 -172.970201 
L 364.248772 -171.201927 
L 363.452535 -169.413186 
L 362.656297 -167.783403 
L 361.86006 -166.4795 
L 361.063822 -165.618277 
L 360.267585 -165.23463 
L 359.471347 -165.26396 
L 358.67511 -165.544231 
L 357.878872 -165.84298 
L 357.082635 -165.909835 
L 356.286397 -165.542295 
L 355.49016 -164.641423 
L 354.693922 -163.235487 
L 353.897685 -161.464893 
L 353.101447 -159.538225 
L 352.30521 -157.676782 
L 351.508972 -156.062626 
L 350.712734 -154.800224 
L 349.916497 -153.898363 
L 349.120259 -153.277079 
L 348.324022 -152.800105 
L 347.527784 -152.325307 
L 346.731547 -151.757022 
L 345.935309 -151.080812 
L 345.139072 -150.365968 
L 344.342834 -149.732789 
L 343.546597 -149.295871 
L 342.750359 -149.10577 
L 341.954122 -149.11422 
L 341.157884 -149.177796 
L 340.361647 -149.098494 
L 339.565409 -148.686041 
L 338.769172 -147.82224 
L 337.972934 -146.508591 
L 337.176697 -144.882591 
L 336.380459 -143.19502 
L 335.584221 -141.751145 
L 334.787984 -140.831002 
L 333.991746 -140.612006 
L 333.195509 -141.116379 
L 332.399271 -142.19764 
L 331.603034 -143.568208 
L 330.806796 -144.8603 
L 330.010559 -145.705709 
L 329.214321 -145.815779 
L 328.418084 -145.04027 
L 327.621846 -143.388373 
L 326.825609 -141.010241 
L 326.029371 -138.155231 
L 325.233134 -135.127677 
L 324.436896 -132.248541 
L 323.640659 -129.816209 
L 322.844421 -128.05821 
L 322.048184 -127.079738 
L 321.251946 -126.830463 
L 320.455709 -127.11127 
L 319.659471 -127.624325 
L 318.863233 -128.049352 
L 318.066996 -128.122851 
L 317.270758 -127.702188 
L 316.474521 -126.802159 
L 315.678283 -125.593736 
L 314.882046 -124.358628 
L 314.085808 -123.405581 
L 313.289571 -122.972208 
L 312.493333 -123.147333 
L 311.697096 -123.844376 
L 310.900858 -124.837164 
L 310.104621 -125.84519 
L 309.308383 -126.635981 
L 308.512146 -127.106219 
L 307.715908 -127.312366 
L 306.919671 -127.44146 
L 306.123433 -127.733176 
L 305.327196 -128.378769 
L 304.530958 -129.430138 
L 303.73472 -130.754394 
L 302.938483 -132.060662 
L 302.142245 -132.999057 
L 301.346008 -133.294432 
L 300.54977 -132.854481 
L 299.753533 -131.803646 
L 298.957295 -130.433834 
L 298.161058 -129.102348 
L 297.36482 -128.121402 
L 296.568583 -127.671852 
L 295.772345 -127.757251 
L 294.976108 -128.207079 
L 294.17987 -128.732019 
L 293.383633 -129.018441 
L 292.587395 -128.829385 
L 291.791158 -128.074787 
L 290.99492 -126.83118 
L 290.198683 -125.31519 
L 289.402445 -123.828335 
L 288.606208 -122.688 
L 287.80997 -122.154475 
L 287.013732 -122.365538 
L 286.217495 -123.295393 
L 285.421257 -124.751704 
L 284.62502 -126.411557 
L 283.828782 -127.88589 
L 283.032545 -128.800632 
L 282.236307 -128.885676 
L 281.44007 -128.058098 
L 280.643832 -126.47337 
L 279.847595 -124.513334 
L 279.051357 -122.697957 
L 278.25512 -121.543167 
L 277.458882 -121.413616 
L 276.662645 -122.420042 
L 275.866407 -124.391022 
L 275.07017 -126.924303 
L 274.273932 -129.502443 
L 273.477695 -131.639469 
L 272.681457 -133.012322 
L 271.88522 -133.531827 
L 271.088982 -133.330004 
L 270.292744 -132.674545 
L 269.496507 -131.84953 
L 268.700269 -131.050717 
L 267.904032 -130.334339 
L 267.107794 -129.635517 
L 266.311557 -128.842481 
L 265.515319 -127.887071 
L 264.719082 -126.805578 
L 263.922844 -125.742801 
L 263.126607 -124.902839 
L 262.330369 -124.470826 
L 261.534132 -124.533624 
L 260.737894 -125.025439 
L 259.941657 -125.722369 
L 259.145419 -126.299811 
L 258.349182 -126.439977 
L 257.552944 -125.946485 
L 256.756707 -124.814625 
L 255.960469 -123.227218 
L 255.164231 -121.481788 
L 254.367994 -119.88173 
L 253.571756 -118.633601 
L 252.775519 -117.788499 
L 251.979281 -117.248429 
L 251.183044 -116.830548 
L 250.386806 -116.353466 
L 249.590569 -115.701465 
L 248.794331 -114.843521 
L 247.998094 -113.817753 
L 247.201856 -112.707524 
L 246.405619 -111.622709 
L 245.609381 -110.68206 
L 244.813144 -109.991712 
L 244.016906 -109.627312 
L 243.220669 -109.632621 
L 242.424431 -110.03463 
L 241.628194 -110.856522 
L 240.831956 -112.108062 
L 240.035719 -113.75407 
L 239.239481 -115.68527 
L 238.443243 -117.718553 
L 237.647006 -119.63368 
L 236.850768 -121.230228 
L 236.054531 -122.380158 
L 235.258293 -123.058475 
L 234.462056 -123.34542 
L 233.665818 -123.40166 
L 232.869581 -123.423656 
L 232.073343 -123.59227 
L 231.277106 -124.032635 
L 230.480868 -124.800722 
L 229.684631 -125.900556 
L 228.888393 -127.320173 
L 228.092156 -129.064305 
L 227.295918 -131.161219 
L 226.499681 -133.632136 
L 225.703443 -136.43158 
L 224.907206 -139.387932 
L 224.110968 -142.181643 
L 223.31473 -144.384772 
L 222.518493 -145.557149 
L 221.722255 -145.369648 
L 220.926018 -143.716031 
L 220.12978 -140.778306 
L 219.333543 -137.01832 
L 218.537305 -133.083424 
L 217.741068 -129.642464 
L 216.94483 -127.203428 
L 216.148593 -125.981928 
L 215.352355 -125.871023 
L 214.556118 -126.515092 
L 213.75988 -127.446547 
L 212.963643 -128.229418 
L 212.167405 -128.566693 
L 211.371168 -128.350882 
L 210.57493 -127.655391 
L 209.778693 -126.67681 
L 208.982455 -125.649635 
L 208.186218 -124.765451 
L 207.38998 -124.130581 
L 206.593742 -123.780904 
L 205.797505 -123.740457 
L 205.001267 -124.079822 
L 204.20503 -124.925711 
L 203.408792 -126.405389 
L 202.612555 -128.556447 
L 201.816317 -131.258554 
L 201.02008 -134.227071 
L 200.223842 -137.070504 
L 199.427605 -139.38917 
L 198.631367 -140.889902 
L 197.83513 -141.490772 
L 197.038892 -141.379385 
L 196.242655 -140.98491 
L 195.446417 -140.851175 
L 194.65018 -141.449332 
L 193.853942 -143.008027 
L 193.057705 -145.434273 
L 192.261467 -148.351669 
L 191.46523 -151.229891 
L 190.668992 -153.552493 
L 189.872754 -154.97025 
L 189.076517 -155.399346 
L 188.280279 -155.038766 
L 187.484042 -154.302339 
L 186.687804 -153.68841 
L 185.891567 -153.633679 
L 185.095329 -154.403402 
L 184.299092 -156.052107 
L 183.502854 -158.455749 
L 182.706617 -161.387087 
L 181.910379 -164.594828 
L 181.114142 -167.856392 
L 180.317904 -170.992936 
L 179.521667 -173.854951 
L 178.725429 -176.29948 
L 177.929192 -178.183433 
L 177.132954 -179.387008 
L 176.336717 -179.85925 
L 175.540479 -179.656635 
L 174.744241 -178.943786 
L 173.948004 -177.947668 
L 173.151766 -176.884572 
L 172.355529 -175.891921 
L 171.559291 -174.990518 
L 170.763054 -174.089227 
L 169.966816 -173.031662 
L 169.170579 -171.672338 
L 168.374341 -169.954967 
L 167.578104 -167.955377 
L 166.781866 -165.861467 
L 165.985629 -163.895084 
L 165.189391 -162.214398 
L 164.393154 -160.845232 
L 163.596916 -159.672413 
L 162.800679 -158.493923 
L 162.004441 -157.116262 
L 161.208204 -155.453802 
L 160.411966 -153.58947 
L 159.615729 -151.763418 
L 158.819491 -150.284006 
L 158.023253 -149.3938 
L 157.227016 -149.149756 
L 156.430778 -149.373914 
L 155.634541 -149.699628 
L 154.838303 -149.697461 
L 154.042066 -149.033681 
L 153.245828 -147.602106 
L 152.449591 -145.579561 
L 151.653353 -143.381341 
L 150.857116 -141.528839 
L 150.060878 -140.474468 
L 149.264641 -140.446812 
L 148.468403 -141.373965 
L 147.672166 -142.914384 
L 146.875928 -144.582888 
L 146.079691 -145.921862 
L 145.283453 -146.651519 
L 144.487216 -146.744835 
L 143.690978 -146.404505 
L 142.89474 -145.956112 
L 142.098503 -145.700274 
L 141.302265 -145.780267 
L 140.506028 -146.116743 
L 139.70979 -146.437143 
L 138.913553 -146.389335 
L 138.117315 -145.691749 
L 137.321078 -144.256089 
L 136.52484 -142.233441 
L 135.728603 -139.971236 
L 134.932365 -137.904568 
L 134.136128 -136.422889 
L 133.33989 -135.752144 
L 132.543653 -135.884413 
L 131.747415 -136.578621 
L 130.951178 -137.440568 
L 130.15494 -138.060913 
L 129.358703 -138.157939 
L 128.562465 -137.664025 
L 127.766228 -136.72193 
L 126.96999 -135.603006 
L 126.173752 -134.595292 
L 125.377515 -133.91246 
L 124.581277 -133.649096 
L 123.78504 -133.779471 
L 122.988802 -134.185845 
L 122.192565 -134.70424 
L 121.396327 -135.177849 
L 120.60009 -135.502597 
L 119.803852 -135.645488 
L 119.007615 -135.625363 
L 118.211377 -135.467965 
L 117.41514 -135.164662 
L 116.618902 -134.662293 
L 115.822665 -133.890802 
L 115.026427 -132.81191 
L 114.23019 -131.462687 
L 113.433952 -129.974274 
L 112.637715 -128.557864 
L 111.841477 -127.458342 
L 111.04524 -126.883718 
L 110.249002 -126.931539 
L 109.452764 -127.544638 
L 108.656527 -128.522605 
L 107.860289 -129.588409 
L 107.064052 -130.478378 
L 106.267814 -131.012555 
L 105.471577 -131.119762 
L 104.675339 -130.82177 
L 103.879102 -130.199272 
L 103.082864 -129.358171 
L 102.286627 -128.402289 
L 101.490389 -127.414238 
L 100.694152 -126.448502 
L 99.897914 -125.540736 
L 99.101677 -124.728952 
L 98.305439 -124.070429 
L 97.509202 -123.634824 
L 96.712964 -123.468522 
L 95.916727 -123.547703 
L 95.120489 -123.750395 
L 94.324251 -123.869517 
L 93.528014 -123.667954 
L 92.731776 -122.956198 
L 91.935539 -121.663612 
L 91.139301 -119.875808 
L 90.343064 -117.820883 
L 89.546826 -115.804329 
L 88.750589 -114.114128 
L 87.954351 -112.93385 
L 87.158114 -112.300126 
L 86.361876 -112.118341 
L 85.565639 -112.221426 
L 84.769401 -112.440844 
L 83.973164 -112.663186 
L 83.176926 -112.85721 
L 82.380689 -113.063355 
L 81.584451 -113.344986 
L 80.788214 -113.71942 
L 79.991976 -114.107505 
L 79.195739 -114.339097 
L 78.399501 -114.218221 
L 77.603263 -113.612615 
L 76.807026 -112.525204 
L 76.010788 -111.128229 
L 75.214551 -109.755704 
L 74.418313 -108.84397 
L 73.622076 -108.81115 
L 72.825838 -109.896177 
L 72.029601 -112.025251 
L 71.233363 -114.795342 
L 70.437126 -117.604414 
L 69.640888 -119.853804 
L 68.844651 -121.112515 
L 68.048413 -121.188537 
L 67.252176 -120.127811 
L 66.455938 -118.183852 
L 65.659701 -115.760504 
L 64.863463 -113.309483 
L 64.067226 -111.20517 
L 63.270988 -109.659158 
L 62.47475 -108.716751 
L 61.678513 -108.316204 
L 60.882275 -108.354646 
L 60.086038 -108.725468 
L 59.2898 -109.33722 
L 58.493563 -110.137901 
L 57.697325 -111.136431 
L 56.901088 -112.389628 
L 56.10485 -113.944845 
L 55.308613 -115.772656 
L 54.512375 -117.743666 
L 53.716138 -119.66815 
L 52.9199 -121.362476 
L 52.123663 -122.696929 
L 51.327425 -123.611485 
L 50.531188 -124.112709 
L 49.73495 -124.266886 
L 48.938713 -124.190415 
L 48.142475 -124.027186 
L 47.346238 -123.905312 
L 46.55 -123.884865 
z
" style="stroke: #377eb8; stroke-opacity: 0.3"/>
    </defs>
    <g clip-path="url(#p8960940a7a)">
     <use xlink:href="#m4980ca5017" x="0" y="360" style="fill: #377eb8; fill-opacity: 0.3; stroke: #377eb8; stroke-opacity: 0.3"/>
    </g>
   </g>
   <g id="patch_3">
    <path d="M 229.843878 318.2 
L 229.843878 71.241125 
L 331.762281 71.241125 
L 331.762281 318.2 
z
" clip-path="url(#p8960940a7a)" style="fill: #808080; opacity: 0.3"/>
   </g>
   <g id="matplotlib.axis_1">
    <g id="xtick_1">
     <g id="line2d_1">
      <defs>
       <path id="ma90760b1ea" d="M 0 0 
L 0 3.5 
" style="stroke: #000000; stroke-width: 0.8"/>
      </defs>
      <g>
       <use xlink:href="#ma90760b1ea" x="87.158114" y="318.2" style="stroke: #000000; stroke-width: 0.8"/>
      </g>
     </g>
     <g id="text_1">
      <!-- 0.0 -->
      <g transform="translate(79.206551 332.798437)scale(0.1 -0.1)">
       <defs>
        <path id="DejaVuSans-30" d="M 2034 4250 
Q 1547 4250 1301 3770 
Q 1056 3291 1056 2328 
Q 1056 1369 1301 889 
Q 1547 409 2034 409 
Q 2525 409 2770 889 
Q 3016 1369 3016 2328 
Q 3016 3291 2770 3770 
Q 2525 4250 2034 4250 
z
M 2034 4750 
Q 2819 4750 3233 4129 
Q 3647 3509 3647 2328 
Q 3647 1150 3233 529 
Q 2819 -91 2034 -91 
Q 1250 -91 836 529 
Q 422 1150 422 2328 
Q 422 3509 836 4129 
Q 1250 4750 2034 4750 
z
" transform="scale(0.015625)"/>
        <path id="DejaVuSans-2e" d="M 684 794 
L 1344 794 
L 1344 0 
L 684 0 
L 684 794 
z
" transform="scale(0.015625)"/>
       </defs>
       <use xlink:href="#DejaVuSans-30"/>
       <use xlink:href="#DejaVuSans-2e" x="63.623047"/>
       <use xlink:href="#DejaVuSans-30" x="95.410156"/>
      </g>
     </g>
    </g>
    <g id="xtick_2">
     <g id="line2d_2">
      <g>
       <use xlink:href="#ma90760b1ea" x="168.692836" y="318.2" style="stroke: #000000; stroke-width: 0.8"/>
      </g>
     </g>
     <g id="text_2">
      <!-- 0.2 -->
      <g transform="translate(160.741274 332.798437)scale(0.1 -0.1)">
       <defs>
        <path id="DejaVuSans-32" d="M 1228 531 
L 3431 531 
L 3431 0 
L 469 0 
L 469 531 
Q 828 903 1448 1529 
Q 2069 2156 2228 2338 
Q 2531 2678 2651 2914 
Q 2772 3150 2772 3378 
Q 2772 3750 2511 3984 
Q 2250 4219 1831 4219 
Q 1534 4219 1204 4116 
Q 875 4013 500 3803 
L 500 4441 
Q 881 4594 1212 4672 
Q 1544 4750 1819 4750 
Q 2544 4750 2975 4387 
Q 3406 4025 3406 3419 
Q 3406 3131 3298 2873 
Q 3191 2616 2906 2266 
Q 2828 2175 2409 1742 
Q 1991 1309 1228 531 
z
" transform="scale(0.015625)"/>
       </defs>
       <use xlink:href="#DejaVuSans-30"/>
       <use xlink:href="#DejaVuSans-2e" x="63.623047"/>
       <use xlink:href="#DejaVuSans-32" x="95.410156"/>
      </g>
     </g>
    </g>
    <g id="xtick_3">
     <g id="line2d_3">
      <g>
       <use xlink:href="#ma90760b1ea" x="250.227559" y="318.2" style="stroke: #000000; stroke-width: 0.8"/>
      </g>
     </g>
     <g id="text_3">
      <!-- 0.4 -->
      <g transform="translate(242.275996 332.798437)scale(0.1 -0.1)">
       <defs>
        <path id="DejaVuSans-34" d="M 2419 4116 
L 825 1625 
L 2419 1625 
L 2419 4116 
z
M 2253 4666 
L 3047 4666 
L 3047 1625 
L 3713 1625 
L 3713 1100 
L 3047 1100 
L 3047 0 
L 2419 0 
L 2419 1100 
L 313 1100 
L 313 1709 
L 2253 4666 
z
" transform="scale(0.015625)"/>
       </defs>
       <use xlink:href="#DejaVuSans-30"/>
       <use xlink:href="#DejaVuSans-2e" x="63.623047"/>
       <use xlink:href="#DejaVuSans-34" x="95.410156"/>
      </g>
     </g>
    </g>
    <g id="xtick_4">
     <g id="line2d_4">
      <g>
       <use xlink:href="#ma90760b1ea" x="331.762281" y="318.2" style="stroke: #000000; stroke-width: 0.8"/>
      </g>
     </g>
     <g id="text_4">
      <!-- 0.6 -->
      <g transform="translate(323.810719 332.798437)scale(0.1 -0.1)">
       <defs>
        <path id="DejaVuSans-36" d="M 2113 2584 
Q 1688 2584 1439 2293 
Q 1191 2003 1191 1497 
Q 1191 994 1439 701 
Q 1688 409 2113 409 
Q 2538 409 2786 701 
Q 3034 994 3034 1497 
Q 3034 2003 2786 2293 
Q 2538 2584 2113 2584 
z
M 3366 4563 
L 3366 3988 
Q 3128 4100 2886 4159 
Q 2644 4219 2406 4219 
Q 1781 4219 1451 3797 
Q 1122 3375 1075 2522 
Q 1259 2794 1537 2939 
Q 1816 3084 2150 3084 
Q 2853 3084 3261 2657 
Q 3669 2231 3669 1497 
Q 3669 778 3244 343 
Q 2819 -91 2113 -91 
Q 1303 -91 875 529 
Q 447 1150 447 2328 
Q 447 3434 972 4092 
Q 1497 4750 2381 4750 
Q 2619 4750 2861 4703 
Q 3103 4656 3366 4563 
z
" transform="scale(0.015625)"/>
       </defs>
       <use xlink:href="#DejaVuSans-30"/>
       <use xlink:href="#DejaVuSans-2e" x="63.623047"/>
       <use xlink:href="#DejaVuSans-36" x="95.410156"/>
      </g>
     </g>
    </g>
    <g id="xtick_5">
     <g id="line2d_5">
      <g>
       <use xlink:href="#ma90760b1ea" x="413.297004" y="318.2" style="stroke: #000000; stroke-width: 0.8"/>
      </g>
     </g>
     <g id="text_5">
      <!-- 0.8 -->
      <g transform="translate(405.345441 332.798437)scale(0.1 -0.1)">
       <defs>
        <path id="DejaVuSans-38" d="M 2034 2216 
Q 1584 2216 1326 1975 
Q 1069 1734 1069 1313 
Q 1069 891 1326 650 
Q 1584 409 2034 409 
Q 2484 409 2743 651 
Q 3003 894 3003 1313 
Q 3003 1734 2745 1975 
Q 2488 2216 2034 2216 
z
M 1403 2484 
Q 997 2584 770 2862 
Q 544 3141 544 3541 
Q 544 4100 942 4425 
Q 1341 4750 2034 4750 
Q 2731 4750 3128 4425 
Q 3525 4100 3525 3541 
Q 3525 3141 3298 2862 
Q 3072 2584 2669 2484 
Q 3125 2378 3379 2068 
Q 3634 1759 3634 1313 
Q 3634 634 3220 271 
Q 2806 -91 2034 -91 
Q 1263 -91 848 271 
Q 434 634 434 1313 
Q 434 1759 690 2068 
Q 947 2378 1403 2484 
z
M 1172 3481 
Q 1172 3119 1398 2916 
Q 1625 2713 2034 2713 
Q 2441 2713 2670 2916 
Q 2900 3119 2900 3481 
Q 2900 3844 2670 4047 
Q 2441 4250 2034 4250 
Q 1625 4250 1398 4047 
Q 1172 3844 1172 3481 
z
" transform="scale(0.015625)"/>
       </defs>
       <use xlink:href="#DejaVuSans-30"/>
       <use xlink:href="#DejaVuSans-2e" x="63.623047"/>
       <use xlink:href="#DejaVuSans-38" x="95.410156"/>
      </g>
     </g>
    </g>
    <g id="text_6">
     <!-- seconds -->
     <g transform="translate(209.645249 346.476562)scale(0.1 -0.1)">
      <defs>
       <path id="DejaVuSans-73" d="M 2834 3397 
L 2834 2853 
Q 2591 2978 2328 3040 
Q 2066 3103 1784 3103 
Q 1356 3103 1142 2972 
Q 928 2841 928 2578 
Q 928 2378 1081 2264 
Q 1234 2150 1697 2047 
L 1894 2003 
Q 2506 1872 2764 1633 
Q 3022 1394 3022 966 
Q 3022 478 2636 193 
Q 2250 -91 1575 -91 
Q 1294 -91 989 -36 
Q 684 19 347 128 
L 347 722 
Q 666 556 975 473 
Q 1284 391 1588 391 
Q 1994 391 2212 530 
Q 2431 669 2431 922 
Q 2431 1156 2273 1281 
Q 2116 1406 1581 1522 
L 1381 1569 
Q 847 1681 609 1914 
Q 372 2147 372 2553 
Q 372 3047 722 3315 
Q 1072 3584 1716 3584 
Q 2034 3584 2315 3537 
Q 2597 3491 2834 3397 
z
" transform="scale(0.015625)"/>
       <path id="DejaVuSans-65" d="M 3597 1894 
L 3597 1613 
L 953 1613 
Q 991 1019 1311 708 
Q 1631 397 2203 397 
Q 2534 397 2845 478 
Q 3156 559 3463 722 
L 3463 178 
Q 3153 47 2828 -22 
Q 2503 -91 2169 -91 
Q 1331 -91 842 396 
Q 353 884 353 1716 
Q 353 2575 817 3079 
Q 1281 3584 2069 3584 
Q 2775 3584 3186 3129 
Q 3597 2675 3597 1894 
z
M 3022 2063 
Q 3016 2534 2758 2815 
Q 2500 3097 2075 3097 
Q 1594 3097 1305 2825 
Q 1016 2553 972 2059 
L 3022 2063 
z
" transform="scale(0.015625)"/>
       <path id="DejaVuSans-63" d="M 3122 3366 
L 3122 2828 
Q 2878 2963 2633 3030 
Q 2388 3097 2138 3097 
Q 1578 3097 1268 2742 
Q 959 2388 959 1747 
Q 959 1106 1268 751 
Q 1578 397 2138 397 
Q 2388 397 2633 464 
Q 2878 531 3122 666 
L 3122 134 
Q 2881 22 2623 -34 
Q 2366 -91 2075 -91 
Q 1284 -91 818 406 
Q 353 903 353 1747 
Q 353 2603 823 3093 
Q 1294 3584 2113 3584 
Q 2378 3584 2631 3529 
Q 2884 3475 3122 3366 
z
" transform="scale(0.015625)"/>
       <path id="DejaVuSans-6f" d="M 1959 3097 
Q 1497 3097 1228 2736 
Q 959 2375 959 1747 
Q 959 1119 1226 758 
Q 1494 397 1959 397 
Q 2419 397 2687 759 
Q 2956 1122 2956 1747 
Q 2956 2369 2687 2733 
Q 2419 3097 1959 3097 
z
M 1959 3584 
Q 2709 3584 3137 3096 
Q 3566 2609 3566 1747 
Q 3566 888 3137 398 
Q 2709 -91 1959 -91 
Q 1206 -91 779 398 
Q 353 888 353 1747 
Q 353 2609 779 3096 
Q 1206 3584 1959 3584 
z
" transform="scale(0.015625)"/>
       <path id="DejaVuSans-6e" d="M 3513 2113 
L 3513 0 
L 2938 0 
L 2938 2094 
Q 2938 2591 2744 2837 
Q 2550 3084 2163 3084 
Q 1697 3084 1428 2787 
Q 1159 2491 1159 1978 
L 1159 0 
L 581 0 
L 581 3500 
L 1159 3500 
L 1159 2956 
Q 1366 3272 1645 3428 
Q 1925 3584 2291 3584 
Q 2894 3584 3203 3211 
Q 3513 2838 3513 2113 
z
" transform="scale(0.015625)"/>
       <path id="DejaVuSans-64" d="M 2906 2969 
L 2906 4863 
L 3481 4863 
L 3481 0 
L 2906 0 
L 2906 525 
Q 2725 213 2448 61 
Q 2172 -91 1784 -91 
Q 1150 -91 751 415 
Q 353 922 353 1747 
Q 353 2572 751 3078 
Q 1150 3584 1784 3584 
Q 2172 3584 2448 3432 
Q 2725 3281 2906 2969 
z
M 947 1747 
Q 947 1113 1208 752 
Q 1469 391 1925 391 
Q 2381 391 2643 752 
Q 2906 1113 2906 1747 
Q 2906 2381 2643 2742 
Q 2381 3103 1925 3103 
Q 1469 3103 1208 2742 
Q 947 2381 947 1747 
z
" transform="scale(0.015625)"/>
      </defs>
      <use xlink:href="#DejaVuSans-73"/>
      <use xlink:href="#DejaVuSans-65" x="52.099609"/>
      <use xlink:href="#DejaVuSans-63" x="113.623047"/>
      <use xlink:href="#DejaVuSans-6f" x="168.603516"/>
      <use xlink:href="#DejaVuSans-6e" x="229.785156"/>
      <use xlink:href="#DejaVuSans-64" x="293.164062"/>
      <use xlink:href="#DejaVuSans-73" x="356.640625"/>
     </g>
    </g>
   </g>
   <g id="matplotlib.axis_2">
    <g id="ytick_1">
     <g id="line2d_6">
      <defs>
       <path id="md15d19c45e" d="M 0 0 
L -3.5 0 
" style="stroke: #000000; stroke-width: 0.8"/>
      </defs>
      <g>
       <use xlink:href="#md15d19c45e" x="46.55" y="317.433509" style="stroke: #000000; stroke-width: 0.8"/>
      </g>
     </g>
     <g id="text_7">
      <!-- 2 -->
      <g transform="translate(24.807812 321.232728)scale(0.1 -0.1)">
       <defs>
        <path id="DejaVuSans-2212" d="M 678 2272 
L 4684 2272 
L 4684 1741 
L 678 1741 
L 678 2272 
z
" transform="scale(0.015625)"/>
       </defs>
       <use xlink:href="#DejaVuSans-2212"/>
       <use xlink:href="#DejaVuSans-32" x="83.789062"/>
      </g>
     </g>
    </g>
    <g id="ytick_2">
     <g id="line2d_7">
      <g>
       <use xlink:href="#md15d19c45e" x="46.55" y="286.511872" style="stroke: #000000; stroke-width: 0.8"/>
      </g>
     </g>
     <g id="text_8">
      <!-- 1 -->
      <g transform="translate(24.807812 290.311091)scale(0.1 -0.1)">
       <defs>
        <path id="DejaVuSans-31" d="M 794 531 
L 1825 531 
L 1825 4091 
L 703 3866 
L 703 4441 
L 1819 4666 
L 2450 4666 
L 2450 531 
L 3481 531 
L 3481 0 
L 794 0 
L 794 531 
z
" transform="scale(0.015625)"/>
       </defs>
       <use xlink:href="#DejaVuSans-2212"/>
       <use xlink:href="#DejaVuSans-31" x="83.789062"/>
      </g>
     </g>
    </g>
    <g id="ytick_3">
     <g id="line2d_8">
      <g>
       <use xlink:href="#md15d19c45e" x="46.55" y="255.590235" style="stroke: #000000; stroke-width: 0.8"/>
      </g>
     </g>
     <g id="text_9">
      <!-- 0 -->
      <g transform="translate(33.1875 259.389453)scale(0.1 -0.1)">
       <use xlink:href="#DejaVuSans-30"/>
      </g>
     </g>
    </g>
    <g id="ytick_4">
     <g id="line2d_9">
      <g>
       <use xlink:href="#md15d19c45e" x="46.55" y="224.668598" style="stroke: #000000; stroke-width: 0.8"/>
      </g>
     </g>
     <g id="text_10">
      <!-- 1 -->
      <g transform="translate(33.1875 228.467816)scale(0.1 -0.1)">
       <use xlink:href="#DejaVuSans-31"/>
      </g>
     </g>
    </g>
    <g id="ytick_5">
     <g id="line2d_10">
      <g>
       <use xlink:href="#md15d19c45e" x="46.55" y="193.74696" style="stroke: #000000; stroke-width: 0.8"/>
      </g>
     </g>
     <g id="text_11">
      <!-- 2 -->
      <g transform="translate(33.1875 197.546179)scale(0.1 -0.1)">
       <use xlink:href="#DejaVuSans-32"/>
      </g>
     </g>
    </g>
    <g id="ytick_6">
     <g id="line2d_11">
      <g>
       <use xlink:href="#md15d19c45e" x="46.55" y="162.825323" style="stroke: #000000; stroke-width: 0.8"/>
      </g>
     </g>
     <g id="text_12">
      <!-- 3 -->
      <g transform="translate(33.1875 166.624542)scale(0.1 -0.1)">
       <defs>
        <path id="DejaVuSans-33" d="M 2597 2516 
Q 3050 2419 3304 2112 
Q 3559 1806 3559 1356 
Q 3559 666 3084 287 
Q 2609 -91 1734 -91 
Q 1441 -91 1130 -33 
Q 819 25 488 141 
L 488 750 
Q 750 597 1062 519 
Q 1375 441 1716 441 
Q 2309 441 2620 675 
Q 2931 909 2931 1356 
Q 2931 1769 2642 2001 
Q 2353 2234 1838 2234 
L 1294 2234 
L 1294 2753 
L 1863 2753 
Q 2328 2753 2575 2939 
Q 2822 3125 2822 3475 
Q 2822 3834 2567 4026 
Q 2313 4219 1838 4219 
Q 1578 4219 1281 4162 
Q 984 4106 628 3988 
L 628 4550 
Q 988 4650 1302 4700 
Q 1616 4750 1894 4750 
Q 2613 4750 3031 4423 
Q 3450 4097 3450 3541 
Q 3450 3153 3228 2886 
Q 3006 2619 2597 2516 
z
" transform="scale(0.015625)"/>
       </defs>
       <use xlink:href="#DejaVuSans-33"/>
      </g>
     </g>
    </g>
    <g id="ytick_7">
     <g id="line2d_12">
      <g>
       <use xlink:href="#md15d19c45e" x="46.55" y="131.903686" style="stroke: #000000; stroke-width: 0.8"/>
      </g>
     </g>
     <g id="text_13">
      <!-- 4 -->
      <g transform="translate(33.1875 135.702905)scale(0.1 -0.1)">
       <use xlink:href="#DejaVuSans-34"/>
      </g>
     </g>
    </g>
    <g id="ytick_8">
     <g id="line2d_13">
      <g>
       <use xlink:href="#md15d19c45e" x="46.55" y="100.982049" style="stroke: #000000; stroke-width: 0.8"/>
      </g>
     </g>
     <g id="text_14">
      <!-- 5 -->
      <g transform="translate(33.1875 104.781268)scale(0.1 -0.1)">
       <defs>
        <path id="DejaVuSans-35" d="M 691 4666 
L 3169 4666 
L 3169 4134 
L 1269 4134 
L 1269 2991 
Q 1406 3038 1543 3061 
Q 1681 3084 1819 3084 
Q 2600 3084 3056 2656 
Q 3513 2228 3513 1497 
Q 3513 744 3044 326 
Q 2575 -91 1722 -91 
Q 1428 -91 1123 -41 
Q 819 9 494 109 
L 494 744 
Q 775 591 1075 516 
Q 1375 441 1709 441 
Q 2250 441 2565 725 
Q 2881 1009 2881 1497 
Q 2881 1984 2565 2268 
Q 2250 2553 1709 2553 
Q 1456 2553 1204 2497 
Q 953 2441 691 2322 
L 691 4666 
z
" transform="scale(0.015625)"/>
       </defs>
       <use xlink:href="#DejaVuSans-35"/>
      </g>
     </g>
    </g>
    <g id="text_15">
     <!-- V -->
     <g transform="translate(18.728125 201.322125)rotate(-90)scale(0.1 -0.1)">
      <defs>
       <path id="DejaVuSans-b5" d="M 544 -1331 
L 544 3500 
L 1119 3500 
L 1119 1325 
Q 1119 872 1334 640 
Q 1550 409 1972 409 
Q 2434 409 2667 671 
Q 2900 934 2900 1459 
L 2900 3500 
L 3475 3500 
L 3475 806 
Q 3475 619 3529 530 
Q 3584 441 3700 441 
Q 3728 441 3778 458 
Q 3828 475 3916 513 
L 3916 50 
Q 3788 -22 3673 -56 
Q 3559 -91 3450 -91 
Q 3234 -91 3106 31 
Q 2978 153 2931 403 
Q 2775 156 2548 32 
Q 2322 -91 2016 -91 
Q 1697 -91 1473 31 
Q 1250 153 1119 397 
L 1119 -1331 
L 544 -1331 
z
" transform="scale(0.015625)"/>
       <path id="DejaVuSans-56" d="M 1831 0 
L 50 4666 
L 709 4666 
L 2188 738 
L 3669 4666 
L 4325 4666 
L 2547 0 
L 1831 0 
z
" transform="scale(0.015625)"/>
      </defs>
      <use xlink:href="#DejaVuSans-b5"/>
      <use xlink:href="#DejaVuSans-56" x="63.623047"/>
     </g>
    </g>
   </g>
   <g id="line2d_14">
    <path d="M 46.55 250.137977 
L 47.346238 248.320498 
L 48.142475 247.240716 
L 48.938713 246.896011 
L 49.73495 247.094683 
L 51.327425 247.820251 
L 52.123663 247.710997 
L 52.9199 247.050147 
L 53.716138 245.883224 
L 55.308613 243.092015 
L 56.10485 242.268958 
L 56.901088 242.371897 
L 57.697325 243.682507 
L 58.493563 246.30062 
L 59.2898 250.119859 
L 60.882275 260.053516 
L 62.47475 270.032756 
L 63.270988 274.01279 
L 64.067226 276.99616 
L 64.863463 278.915256 
L 65.659701 279.817735 
L 66.455938 279.825579 
L 67.252176 279.093896 
L 68.048413 277.781463 
L 68.844651 276.037498 
L 70.437126 271.810569 
L 72.029601 267.48671 
L 73.622076 263.900331 
L 76.807026 258.085222 
L 77.603263 256.077669 
L 78.399501 253.607307 
L 79.991976 247.587381 
L 81.584451 241.802846 
L 82.380689 239.805707 
L 83.176926 238.720905 
L 83.973164 238.594548 
L 84.769401 239.290909 
L 87.954351 244.074124 
L 88.750589 244.518519 
L 89.546826 244.625715 
L 91.139301 244.616146 
L 91.935539 244.815166 
L 93.528014 245.520322 
L 94.324251 245.664212 
L 95.120489 245.423521 
L 95.916727 244.751302 
L 97.509202 242.745542 
L 98.305439 241.987459 
L 99.101677 241.729977 
L 99.897914 242.023355 
L 101.490389 243.386388 
L 102.286627 243.688896 
L 103.082864 243.276878 
L 103.879102 242.038841 
L 104.675339 240.122798 
L 106.267814 235.768961 
L 107.064052 234.126064 
L 107.860289 233.102465 
L 108.656527 232.58286 
L 109.452764 232.249127 
L 110.249002 231.719638 
L 111.04524 230.715838 
L 111.841477 229.188633 
L 113.433952 225.621608 
L 114.23019 224.448365 
L 115.026427 224.170229 
L 115.822665 224.885008 
L 116.618902 226.428946 
L 119.803852 234.302438 
L 121.396327 237.883078 
L 122.192565 240.17449 
L 124.581277 248.345403 
L 125.377515 250.11878 
L 126.173752 250.664611 
L 126.96999 249.841539 
L 127.766228 247.84227 
L 130.15494 239.870496 
L 130.951178 238.088511 
L 131.747415 236.936039 
L 134.136128 234.429132 
L 135.728603 232.126034 
L 136.52484 231.474576 
L 137.321078 231.709158 
L 138.117315 233.033538 
L 138.913553 235.317401 
L 140.506028 240.640886 
L 141.302265 242.252622 
L 142.098503 242.384586 
L 142.89474 240.840426 
L 143.690978 237.804557 
L 146.875928 221.590345 
L 147.672166 218.898093 
L 148.468403 217.102455 
L 149.264641 216.138507 
L 150.060878 215.922682 
L 150.857116 216.392155 
L 151.653353 217.488402 
L 152.449591 219.103599 
L 154.042066 222.955194 
L 154.838303 224.513175 
L 155.634541 225.392583 
L 156.430778 225.44521 
L 157.227016 224.752 
L 158.819491 222.415178 
L 159.615729 221.542852 
L 160.411966 221.17363 
L 161.208204 221.235193 
L 162.004441 221.426617 
L 162.800679 221.340543 
L 163.596916 220.633073 
L 164.393154 219.171752 
L 167.578104 211.106831 
L 168.374341 210.2081 
L 170.763054 208.962466 
L 171.559291 207.900252 
L 173.151766 204.898253 
L 173.948004 203.990096 
L 174.744241 204.317887 
L 175.540479 206.285048 
L 176.336717 209.889688 
L 178.725429 224.372662 
L 179.521667 227.489671 
L 180.317904 228.688714 
L 181.114142 227.964613 
L 181.910379 225.775449 
L 183.502854 220.197794 
L 184.299092 218.404784 
L 185.095329 217.929616 
L 185.891567 218.802092 
L 186.687804 220.723026 
L 189.076517 228.133632 
L 191.46523 234.320827 
L 192.261467 236.969946 
L 193.853942 243.787069 
L 194.65018 247.282383 
L 195.446417 250.048154 
L 196.242655 251.499272 
L 197.038892 251.305479 
L 197.83513 249.538406 
L 200.223842 241.093914 
L 201.02008 239.932896 
L 201.816317 240.421063 
L 202.612555 242.405506 
L 205.001267 251.085258 
L 205.797505 252.800062 
L 206.593742 253.552163 
L 207.38998 253.606676 
L 208.982455 253.190335 
L 210.57493 253.153288 
L 211.371168 252.793159 
L 212.167405 251.748761 
L 212.963643 249.872119 
L 215.352355 242.143701 
L 216.148593 240.602511 
L 216.94483 240.151102 
L 217.741068 240.643803 
L 219.333543 242.534823 
L 220.12978 242.90742 
L 220.926018 242.587884 
L 222.518493 240.880757 
L 223.31473 240.414683 
L 224.110968 240.672216 
L 224.907206 241.640362 
L 226.499681 244.248224 
L 227.295918 244.98336 
L 228.092156 245.056631 
L 229.684631 244.401917 
L 230.480868 244.79277 
L 231.277106 246.287138 
L 232.073343 248.924664 
L 233.665818 255.6823 
L 234.462056 258.259915 
L 235.258293 259.432729 
L 236.054531 259.017216 
L 236.850768 257.293185 
L 238.443243 252.438817 
L 239.239481 250.490266 
L 240.035719 249.154863 
L 241.628194 247.131647 
L 242.424431 245.548784 
L 243.220669 243.260193 
L 245.609381 235.159243 
L 246.405619 233.577955 
L 247.201856 232.764534 
L 247.998094 232.226169 
L 248.794331 231.18862 
L 249.590569 228.901011 
L 250.386806 224.971526 
L 252.775519 208.140239 
L 253.571756 204.484487 
L 254.367994 203.444512 
L 255.164231 205.157983 
L 255.960469 209.012135 
L 257.552944 218.319255 
L 258.349182 221.392441 
L 259.145419 222.612879 
L 259.941657 222.230764 
L 261.534132 219.958251 
L 262.330369 219.735036 
L 263.126607 220.529595 
L 263.922844 221.891657 
L 264.719082 222.921556 
L 265.515319 222.623938 
L 266.311557 220.304769 
L 267.107794 215.858871 
L 269.496507 197.435734 
L 270.292744 193.235105 
L 271.088982 191.179287 
L 271.88522 191.160931 
L 272.681457 192.595881 
L 274.273932 196.640611 
L 275.07017 197.992281 
L 275.866407 198.539798 
L 276.662645 198.330674 
L 277.458882 197.504731 
L 278.25512 196.168265 
L 279.051357 194.355004 
L 280.643832 189.507155 
L 281.44007 186.954883 
L 282.236307 184.985896 
L 283.032545 184.22462 
L 283.828782 185.131012 
L 284.62502 187.758069 
L 287.013732 198.818646 
L 287.80997 199.830363 
L 288.606208 198.156423 
L 289.402445 193.956578 
L 290.99492 182.112466 
L 291.791158 177.336634 
L 292.587395 174.875816 
L 293.383633 175.056081 
L 294.17987 177.376619 
L 295.772345 183.599086 
L 296.568583 184.893022 
L 297.36482 183.934289 
L 298.161058 180.811123 
L 300.54977 167.234622 
L 301.346008 164.62668 
L 302.142245 163.807894 
L 302.938483 164.557859 
L 303.73472 166.348511 
L 306.919671 175.642694 
L 307.715908 178.523857 
L 308.512146 182.052219 
L 310.900858 194.213478 
L 311.697096 196.763631 
L 312.493333 197.550735 
L 313.289571 196.454043 
L 314.085808 193.867576 
L 315.678283 187.840305 
L 316.474521 186.481073 
L 317.270758 187.182027 
L 318.066996 189.989707 
L 319.659471 199.295802 
L 320.455709 203.71523 
L 321.251946 206.735635 
L 322.048184 207.975092 
L 322.844421 207.650984 
L 324.436896 205.439827 
L 325.233134 205.391361 
L 326.029371 206.833675 
L 326.825609 209.733691 
L 329.214321 220.795302 
L 330.010559 222.799808 
L 330.806796 223.366098 
L 331.603034 222.701351 
L 332.399271 221.258006 
L 333.991746 217.914208 
L 334.787984 216.565248 
L 335.584221 215.487094 
L 337.176697 213.881624 
L 337.972934 213.395783 
L 338.769172 213.310609 
L 339.565409 213.787189 
L 340.361647 214.866854 
L 342.750359 219.382399 
L 343.546597 220.100333 
L 344.342834 220.091841 
L 346.731547 218.550882 
L 347.527784 218.94218 
L 348.324022 220.115959 
L 349.916497 223.593479 
L 350.712734 224.897974 
L 351.508972 225.37486 
L 352.30521 224.958457 
L 354.693922 221.71911 
L 355.49016 221.376299 
L 356.286397 221.639558 
L 357.878872 222.68232 
L 358.67511 222.580346 
L 359.471347 221.682062 
L 360.267585 220.030448 
L 362.656297 213.876728 
L 363.452535 212.444899 
L 365.04501 210.264037 
L 365.841247 208.844372 
L 366.637485 206.843371 
L 368.22996 201.39425 
L 369.026198 198.694105 
L 369.822435 196.659114 
L 370.618673 195.628544 
L 371.41491 195.6665 
L 372.211148 196.543968 
L 373.803623 199.060142 
L 374.59986 199.899145 
L 375.396098 200.255476 
L 377.78481 200.360263 
L 379.377285 200.847566 
L 380.173523 200.39366 
L 380.96976 198.700768 
L 381.765998 195.351155 
L 382.562235 190.328926 
L 384.950948 172.103164 
L 385.747186 168.423459 
L 386.543423 167.191168 
L 387.339661 168.332394 
L 388.135898 171.161219 
L 389.728373 177.578259 
L 390.524611 179.323701 
L 391.320848 179.67567 
L 392.913323 178.319034 
L 393.709561 178.286353 
L 394.505798 179.473824 
L 395.302036 181.793477 
L 396.098273 184.546085 
L 396.894511 186.644516 
L 397.690748 186.998951 
L 398.486986 184.921925 
L 399.283223 180.401287 
L 401.671936 161.290997 
L 402.468174 157.031315 
L 403.264411 154.961105 
L 404.060649 154.812992 
L 405.653124 156.927802 
L 406.449361 157.363216 
L 407.245599 156.677201 
L 408.041836 154.927776 
L 410.430549 148.006313 
L 411.226786 146.439207 
L 412.819261 143.986764 
L 413.615499 142.359825 
L 413.615499 142.359825 
" clip-path="url(#p8960940a7a)" style="fill: none; stroke: #e41a1c; stroke-width: 1.5; stroke-linecap: square"/>
   </g>
   <g id="line2d_15">
    <path d="M 46.55 249.137203 
L 49.73495 247.936326 
L 50.531188 247.876691 
L 51.327425 248.105641 
L 52.123663 248.701725 
L 52.9199 249.687659 
L 53.716138 251.018978 
L 56.901088 257.372888 
L 57.697325 258.633324 
L 58.493563 259.666598 
L 59.2898 260.491256 
L 60.086038 261.119518 
L 60.882275 261.522434 
L 61.678513 261.612572 
L 62.47475 261.256749 
L 63.270988 260.320768 
L 64.067226 258.735173 
L 64.863463 256.559529 
L 66.455938 251.49208 
L 67.252176 249.442876 
L 68.048413 248.309811 
L 68.844651 248.381877 
L 69.640888 249.702083 
L 70.437126 252.033421 
L 72.029601 257.724104 
L 72.825838 259.938417 
L 73.622076 261.172516 
L 74.418313 261.321189 
L 75.214551 260.55543 
L 77.603263 256.725861 
L 78.399501 256.117046 
L 79.195739 256.046403 
L 79.991976 256.38889 
L 84.769401 259.619141 
L 86.361876 260.568331 
L 87.158114 260.696142 
L 87.954351 260.364354 
L 88.750589 259.48672 
L 89.546826 258.113817 
L 91.935539 253.33202 
L 92.731776 252.410184 
L 93.528014 252.05208 
L 94.324251 252.175578 
L 96.712964 253.350143 
L 97.509202 253.391158 
L 98.305439 253.149758 
L 99.101677 252.680468 
L 100.694152 251.361157 
L 104.675339 247.650133 
L 105.471577 247.367371 
L 106.267814 247.510856 
L 107.064052 248.116177 
L 108.656527 250.254918 
L 109.452764 251.305581 
L 110.249002 251.97437 
L 111.04524 252.068531 
L 111.841477 251.53576 
L 112.637715 250.475613 
L 115.026427 246.420176 
L 115.822665 245.473094 
L 116.618902 244.863959 
L 117.41514 244.540182 
L 118.211377 244.41707 
L 119.007615 244.428586 
L 119.803852 244.555183 
L 120.60009 244.817382 
L 121.396327 245.240463 
L 123.78504 246.975146 
L 124.581277 247.239725 
L 125.377515 247.093887 
L 126.173752 246.504844 
L 128.562465 243.71356 
L 129.358703 243.31192 
L 130.15494 243.462084 
L 130.951178 244.085962 
L 132.543653 245.595748 
L 133.33989 245.74637 
L 134.136128 245.143196 
L 134.932365 243.774076 
L 137.321078 237.963881 
L 138.117315 236.741463 
L 138.913553 236.239631 
L 139.70979 236.352643 
L 141.302265 237.214412 
L 142.098503 237.342847 
L 142.89474 237.093419 
L 144.487216 236.15609 
L 145.283453 236.097878 
L 146.079691 236.649047 
L 146.875928 237.813898 
L 148.468403 240.818503 
L 149.264641 241.758373 
L 150.060878 241.818744 
L 150.857116 240.902193 
L 151.653353 239.201191 
L 153.245828 235.200909 
L 154.042066 233.811202 
L 154.838303 233.150116 
L 155.634541 233.12839 
L 157.227016 233.657793 
L 158.023253 233.452787 
L 158.819491 232.647896 
L 159.615729 231.292064 
L 162.004441 226.32106 
L 163.596916 223.871129 
L 164.393154 222.693652 
L 165.189391 221.288157 
L 165.985629 219.555829 
L 168.374341 213.469993 
L 169.170579 211.834293 
L 169.966816 210.603649 
L 171.559291 208.963137 
L 172.355529 208.180785 
L 173.948004 206.151556 
L 174.744241 205.082075 
L 175.540479 204.284111 
L 176.336717 204.023032 
L 177.132954 204.492907 
L 177.929192 205.766122 
L 178.725429 207.78822 
L 179.521667 210.410924 
L 181.114142 216.682543 
L 182.706617 223.0635 
L 183.502854 225.837086 
L 184.299092 228.079361 
L 185.095329 229.62724 
L 185.891567 230.402163 
L 186.687804 230.468258 
L 188.280279 229.562991 
L 189.076517 229.416303 
L 189.872754 229.998599 
L 190.668992 231.497785 
L 191.46523 233.837435 
L 193.057705 239.549173 
L 193.853942 241.932567 
L 194.65018 243.496184 
L 195.446417 244.169558 
L 196.242655 244.17194 
L 197.038892 243.935993 
L 197.83513 243.962542 
L 198.631367 244.658419 
L 199.427605 246.213897 
L 200.223842 248.559478 
L 202.612555 257.073415 
L 203.408792 259.250742 
L 204.20503 260.799991 
L 205.001267 261.747927 
L 205.797505 262.191139 
L 206.593742 262.230189 
L 207.38998 261.932776 
L 208.186218 261.339579 
L 209.778693 259.532224 
L 210.57493 258.609294 
L 211.371168 257.962442 
L 212.167405 257.79279 
L 212.963643 258.183879 
L 215.352355 260.736201 
L 216.148593 260.680052 
L 216.94483 259.52346 
L 217.741068 257.176854 
L 218.537305 253.855135 
L 220.12978 246.373276 
L 220.926018 243.474333 
L 221.722255 241.805926 
L 222.518493 241.563124 
L 223.31473 242.65595 
L 224.110968 244.769532 
L 227.295918 255.526746 
L 228.092156 257.588023 
L 228.888393 259.307057 
L 229.684631 260.72366 
L 230.480868 261.858096 
L 231.277106 262.707827 
L 232.073343 263.272873 
L 232.869581 263.591985 
L 234.462056 263.961422 
L 235.258293 264.363008 
L 236.054531 265.134699 
L 236.850768 266.361596 
L 237.647006 268.021891 
L 240.831956 275.797167 
L 241.628194 277.145513 
L 242.424431 278.069256 
L 243.220669 278.57051 
L 244.016906 278.673642 
L 244.813144 278.407703 
L 245.609381 277.805789 
L 246.405619 276.918827 
L 249.590569 272.667952 
L 250.386806 272.017072 
L 252.775519 270.76844 
L 253.571756 270.012284 
L 254.367994 268.866386 
L 257.552944 262.99057 
L 258.349182 262.377725 
L 259.145419 262.336515 
L 259.941657 262.709054 
L 260.737894 263.218909 
L 261.534132 263.566864 
L 262.330369 263.532817 
L 263.126607 263.044143 
L 263.922844 262.184444 
L 265.515319 260.118594 
L 266.311557 259.248282 
L 271.088982 255.039238 
L 271.88522 254.857287 
L 272.681457 255.415816 
L 273.477695 256.851798 
L 274.273932 259.074869 
L 275.866407 264.386226 
L 276.662645 266.435224 
L 277.458882 267.483239 
L 278.25512 267.356607 
L 279.051357 266.176369 
L 281.44007 260.691064 
L 282.236307 259.833884 
L 283.032545 259.912595 
L 283.828782 260.849213 
L 286.217495 265.560059 
L 287.013732 266.52146 
L 287.80997 266.776833 
L 288.606208 266.314611 
L 289.402445 265.274719 
L 291.791158 261.372445 
L 292.587395 260.681204 
L 293.383633 260.501558 
L 294.17987 260.744889 
L 295.772345 261.564231 
L 296.568583 261.590251 
L 297.36482 261.114061 
L 298.161058 260.144891 
L 299.753533 257.594641 
L 300.54977 256.666658 
L 301.346008 256.346229 
L 302.142245 256.729961 
L 302.938483 257.718498 
L 305.327196 261.509883 
L 306.123433 262.210967 
L 306.919671 262.547871 
L 308.512146 262.900269 
L 309.308383 263.344475 
L 310.104621 264.094873 
L 311.697096 266.012196 
L 312.493333 266.697076 
L 313.289571 266.903252 
L 314.085808 266.553906 
L 314.882046 265.733563 
L 316.474521 263.617235 
L 317.270758 262.856168 
L 318.066996 262.526932 
L 318.863233 262.632057 
L 320.455709 263.471967 
L 321.251946 263.672312 
L 322.048184 263.369119 
L 322.844421 262.383496 
L 323.640659 260.654304 
L 324.436896 258.251104 
L 327.621846 246.937126 
L 328.418084 245.28308 
L 329.214321 244.560359 
L 330.010559 244.762313 
L 330.806796 245.709887 
L 332.399271 248.480737 
L 333.195509 249.521746 
L 333.991746 249.919344 
L 334.787984 249.550257 
L 335.584221 248.473038 
L 337.176697 245.129246 
L 337.972934 243.463835 
L 338.769172 242.133029 
L 339.565409 241.246225 
L 340.361647 240.784488 
L 341.157884 240.62927 
L 342.750359 240.584119 
L 343.546597 240.434708 
L 345.139072 239.722431 
L 347.527784 238.437233 
L 349.120259 237.651363 
L 349.916497 237.059844 
L 350.712734 236.189967 
L 351.508972 234.976721 
L 353.101447 231.640372 
L 354.693922 228.059719 
L 355.49016 226.679027 
L 356.286397 225.778403 
L 357.082635 225.394371 
L 357.878872 225.443796 
L 359.471347 226.034336 
L 360.267585 226.082584 
L 361.063822 225.699012 
L 361.86006 224.800824 
L 362.656297 223.420586 
L 365.841247 216.365264 
L 366.637485 215.150006 
L 367.433722 214.409662 
L 368.22996 214.184871 
L 369.026198 214.464467 
L 369.822435 215.17923 
L 372.211148 218.236126 
L 373.007385 218.731769 
L 373.803623 218.562353 
L 374.59986 217.624169 
L 375.396098 215.983117 
L 377.78481 209.845268 
L 378.581048 208.666202 
L 379.377285 208.333924 
L 380.173523 208.80346 
L 380.96976 209.831286 
L 382.562235 212.114648 
L 383.358473 212.747735 
L 384.15471 212.865569 
L 384.950948 212.544455 
L 388.135898 210.118986 
L 388.932136 209.453388 
L 389.728373 208.556385 
L 390.524611 207.331959 
L 393.709561 201.292138 
L 394.505798 200.529887 
L 395.302036 200.240687 
L 396.894511 200.286211 
L 397.690748 200.066762 
L 398.486986 199.410508 
L 399.283223 198.292621 
L 401.671936 193.885049 
L 402.468174 192.745172 
L 404.060649 191.153576 
L 404.856886 190.349673 
L 405.653124 189.25645 
L 406.449361 187.74209 
L 407.245599 185.795323 
L 411.226786 174.376111 
L 412.819261 171.019655 
L 413.615499 169.696065 
L 413.615499 169.696065 
" clip-path="url(#p8960940a7a)" style="fill: none; stroke: #377eb8; stroke-width: 1.5; stroke-linecap: square"/>
   </g>
   <g id="line2d_16">
    <path d="M 87.158114 318.2 
L 87.158114 71.241125 
" clip-path="url(#p8960940a7a)" style="fill: none; stroke: #000000; stroke-width: 0.5; stroke-linecap: square"/>
   </g>
   <g id="line2d_17">
    <path d="M 46.55 255.590235 
L 413.615499 255.590235 
" clip-path="url(#p8960940a7a)" style="fill: none; stroke: #000000; stroke-width: 0.5; stroke-linecap: square"/>
   </g>
   <g id="patch_4">
    <path d="M 46.55 318.2 
L 46.55 71.241125 
" style="fill: none; stroke: #000000; stroke-width: 0.8; stroke-linejoin: miter; stroke-linecap: square"/>
   </g>
   <g id="patch_5">
    <path d="M 413.615499 318.2 
L 413.615499 71.241125 
" style="fill: none; stroke: #000000; stroke-width: 0.8; stroke-linejoin: miter; stroke-linecap: square"/>
   </g>
   <g id="patch_6">
    <path d="M 46.55 318.2 
L 413.615499 318.2 
" style="fill: none; stroke: #000000; stroke-width: 0.8; stroke-linejoin: miter; stroke-linecap: square"/>
   </g>
   <g id="patch_7">
    <path d="M 46.55 71.241125 
L 413.615499 71.241125 
" style="fill: none; stroke: #000000; stroke-width: 0.8; stroke-linejoin: miter; stroke-linecap: square"/>
   </g>
   <g id="text_16">
    <!-- Cz -->
    <g transform="translate(222.743999 65.241125)scale(0.12 -0.12)">
     <defs>
      <path id="DejaVuSans-43" d="M 4122 4306 
L 4122 3641 
Q 3803 3938 3442 4084 
Q 3081 4231 2675 4231 
Q 1875 4231 1450 3742 
Q 1025 3253 1025 2328 
Q 1025 1406 1450 917 
Q 1875 428 2675 428 
Q 3081 428 3442 575 
Q 3803 722 4122 1019 
L 4122 359 
Q 3791 134 3420 21 
Q 3050 -91 2638 -91 
Q 1578 -91 968 557 
Q 359 1206 359 2328 
Q 359 3453 968 4101 
Q 1578 4750 2638 4750 
Q 3056 4750 3426 4639 
Q 3797 4528 4122 4306 
z
" transform="scale(0.015625)"/>
      <path id="DejaVuSans-7a" d="M 353 3500 
L 3084 3500 
L 3084 2975 
L 922 459 
L 3084 459 
L 3084 0 
L 275 0 
L 275 525 
L 2438 3041 
L 353 3041 
L 353 3500 
z
" transform="scale(0.015625)"/>
     </defs>
     <use xlink:href="#DejaVuSans-43"/>
     <use xlink:href="#DejaVuSans-7a" x="69.824219"/>
    </g>
   </g>
   <g id="legend_1">
    <g id="patch_8">
     <path d="M 103.036656 48.044893 
L 357.128843 48.044893 
Q 359.128843 48.044893 359.128843 46.044893 
L 359.128843 17.410517 
Q 359.128843 15.410517 357.128843 15.410517 
L 103.036656 15.410517 
Q 101.036656 15.410517 101.036656 17.410517 
L 101.036656 46.044893 
Q 101.036656 48.044893 103.036656 48.044893 
z
" style="fill: #ffffff; opacity: 0.8; stroke: #cccccc; stroke-linejoin: miter"/>
    </g>
    <g id="text_17">
     <!-- Average of Session 4_tac4 -->
     <g transform="translate(164.249937 27.008955)scale(0.1 -0.1)">
      <defs>
       <path id="DejaVuSans-41" d="M 2188 4044 
L 1331 1722 
L 3047 1722 
L 2188 4044 
z
M 1831 4666 
L 2547 4666 
L 4325 0 
L 3669 0 
L 3244 1197 
L 1141 1197 
L 716 0 
L 50 0 
L 1831 4666 
z
" transform="scale(0.015625)"/>
       <path id="DejaVuSans-76" d="M 191 3500 
L 800 3500 
L 1894 563 
L 2988 3500 
L 3597 3500 
L 2284 0 
L 1503 0 
L 191 3500 
z
" transform="scale(0.015625)"/>
       <path id="DejaVuSans-72" d="M 2631 2963 
Q 2534 3019 2420 3045 
Q 2306 3072 2169 3072 
Q 1681 3072 1420 2755 
Q 1159 2438 1159 1844 
L 1159 0 
L 581 0 
L 581 3500 
L 1159 3500 
L 1159 2956 
Q 1341 3275 1631 3429 
Q 1922 3584 2338 3584 
Q 2397 3584 2469 3576 
Q 2541 3569 2628 3553 
L 2631 2963 
z
" transform="scale(0.015625)"/>
       <path id="DejaVuSans-61" d="M 2194 1759 
Q 1497 1759 1228 1600 
Q 959 1441 959 1056 
Q 959 750 1161 570 
Q 1363 391 1709 391 
Q 2188 391 2477 730 
Q 2766 1069 2766 1631 
L 2766 1759 
L 2194 1759 
z
M 3341 1997 
L 3341 0 
L 2766 0 
L 2766 531 
Q 2569 213 2275 61 
Q 1981 -91 1556 -91 
Q 1019 -91 701 211 
Q 384 513 384 1019 
Q 384 1609 779 1909 
Q 1175 2209 1959 2209 
L 2766 2209 
L 2766 2266 
Q 2766 2663 2505 2880 
Q 2244 3097 1772 3097 
Q 1472 3097 1187 3025 
Q 903 2953 641 2809 
L 641 3341 
Q 956 3463 1253 3523 
Q 1550 3584 1831 3584 
Q 2591 3584 2966 3190 
Q 3341 2797 3341 1997 
z
" transform="scale(0.015625)"/>
       <path id="DejaVuSans-67" d="M 2906 1791 
Q 2906 2416 2648 2759 
Q 2391 3103 1925 3103 
Q 1463 3103 1205 2759 
Q 947 2416 947 1791 
Q 947 1169 1205 825 
Q 1463 481 1925 481 
Q 2391 481 2648 825 
Q 2906 1169 2906 1791 
z
M 3481 434 
Q 3481 -459 3084 -895 
Q 2688 -1331 1869 -1331 
Q 1566 -1331 1297 -1286 
Q 1028 -1241 775 -1147 
L 775 -588 
Q 1028 -725 1275 -790 
Q 1522 -856 1778 -856 
Q 2344 -856 2625 -561 
Q 2906 -266 2906 331 
L 2906 616 
Q 2728 306 2450 153 
Q 2172 0 1784 0 
Q 1141 0 747 490 
Q 353 981 353 1791 
Q 353 2603 747 3093 
Q 1141 3584 1784 3584 
Q 2172 3584 2450 3431 
Q 2728 3278 2906 2969 
L 2906 3500 
L 3481 3500 
L 3481 434 
z
" transform="scale(0.015625)"/>
       <path id="DejaVuSans-20" transform="scale(0.015625)"/>
       <path id="DejaVuSans-66" d="M 2375 4863 
L 2375 4384 
L 1825 4384 
Q 1516 4384 1395 4259 
Q 1275 4134 1275 3809 
L 1275 3500 
L 2222 3500 
L 2222 3053 
L 1275 3053 
L 1275 0 
L 697 0 
L 697 3053 
L 147 3053 
L 147 3500 
L 697 3500 
L 697 3744 
Q 697 4328 969 4595 
Q 1241 4863 1831 4863 
L 2375 4863 
z
" transform="scale(0.015625)"/>
       <path id="DejaVuSans-53" d="M 3425 4513 
L 3425 3897 
Q 3066 4069 2747 4153 
Q 2428 4238 2131 4238 
Q 1616 4238 1336 4038 
Q 1056 3838 1056 3469 
Q 1056 3159 1242 3001 
Q 1428 2844 1947 2747 
L 2328 2669 
Q 3034 2534 3370 2195 
Q 3706 1856 3706 1288 
Q 3706 609 3251 259 
Q 2797 -91 1919 -91 
Q 1588 -91 1214 -16 
Q 841 59 441 206 
L 441 856 
Q 825 641 1194 531 
Q 1563 422 1919 422 
Q 2459 422 2753 634 
Q 3047 847 3047 1241 
Q 3047 1584 2836 1778 
Q 2625 1972 2144 2069 
L 1759 2144 
Q 1053 2284 737 2584 
Q 422 2884 422 3419 
Q 422 4038 858 4394 
Q 1294 4750 2059 4750 
Q 2388 4750 2728 4690 
Q 3069 4631 3425 4513 
z
" transform="scale(0.015625)"/>
       <path id="DejaVuSans-69" d="M 603 3500 
L 1178 3500 
L 1178 0 
L 603 0 
L 603 3500 
z
M 603 4863 
L 1178 4863 
L 1178 4134 
L 603 4134 
L 603 4863 
z
" transform="scale(0.015625)"/>
       <path id="DejaVuSans-5f" d="M 3263 -1063 
L 3263 -1509 
L -63 -1509 
L -63 -1063 
L 3263 -1063 
z
" transform="scale(0.015625)"/>
       <path id="DejaVuSans-74" d="M 1172 4494 
L 1172 3500 
L 2356 3500 
L 2356 3053 
L 1172 3053 
L 1172 1153 
Q 1172 725 1289 603 
Q 1406 481 1766 481 
L 2356 481 
L 2356 0 
L 1766 0 
Q 1100 0 847 248 
Q 594 497 594 1153 
L 594 3053 
L 172 3053 
L 172 3500 
L 594 3500 
L 594 4494 
L 1172 4494 
z
" transform="scale(0.015625)"/>
      </defs>
      <use xlink:href="#DejaVuSans-41"/>
      <use xlink:href="#DejaVuSans-76" x="62.533203"/>
      <use xlink:href="#DejaVuSans-65" x="121.712891"/>
      <use xlink:href="#DejaVuSans-72" x="183.236328"/>
      <use xlink:href="#DejaVuSans-61" x="224.349609"/>
      <use xlink:href="#DejaVuSans-67" x="285.628906"/>
      <use xlink:href="#DejaVuSans-65" x="349.105469"/>
      <use xlink:href="#DejaVuSans-20" x="410.628906"/>
      <use xlink:href="#DejaVuSans-6f" x="442.416016"/>
      <use xlink:href="#DejaVuSans-66" x="503.597656"/>
      <use xlink:href="#DejaVuSans-20" x="538.802734"/>
      <use xlink:href="#DejaVuSans-53" x="570.589844"/>
      <use xlink:href="#DejaVuSans-65" x="634.066406"/>
      <use xlink:href="#DejaVuSans-73" x="695.589844"/>
      <use xlink:href="#DejaVuSans-73" x="747.689453"/>
      <use xlink:href="#DejaVuSans-69" x="799.789062"/>
      <use xlink:href="#DejaVuSans-6f" x="827.572266"/>
      <use xlink:href="#DejaVuSans-6e" x="888.753906"/>
      <use xlink:href="#DejaVuSans-20" x="952.132812"/>
      <use xlink:href="#DejaVuSans-34" x="983.919922"/>
      <use xlink:href="#DejaVuSans-5f" x="1047.542969"/>
      <use xlink:href="#DejaVuSans-74" x="1097.542969"/>
      <use xlink:href="#DejaVuSans-61" x="1136.751953"/>
      <use xlink:href="#DejaVuSans-63" x="1198.03125"/>
      <use xlink:href="#DejaVuSans-34" x="1253.011719"/>
     </g>
    </g>
    <g id="line2d_18">
     <path d="M 105.036656 38.465205 
L 115.036656 38.465205 
L 125.036656 38.465205 
" style="fill: none; stroke: #e41a1c; stroke-width: 1.5; stroke-linecap: square"/>
    </g>
    <g id="text_18">
     <!-- Target (n=269) -->
     <g transform="translate(133.036656 41.965205)scale(0.1 -0.1)">
      <defs>
       <path id="DejaVuSans-54" d="M -19 4666 
L 3928 4666 
L 3928 4134 
L 2272 4134 
L 2272 0 
L 1638 0 
L 1638 4134 
L -19 4134 
L -19 4666 
z
" transform="scale(0.015625)"/>
       <path id="DejaVuSans-28" d="M 1984 4856 
Q 1566 4138 1362 3434 
Q 1159 2731 1159 2009 
Q 1159 1288 1364 580 
Q 1569 -128 1984 -844 
L 1484 -844 
Q 1016 -109 783 600 
Q 550 1309 550 2009 
Q 550 2706 781 3412 
Q 1013 4119 1484 4856 
L 1984 4856 
z
" transform="scale(0.015625)"/>
       <path id="DejaVuSans-3d" d="M 678 2906 
L 4684 2906 
L 4684 2381 
L 678 2381 
L 678 2906 
z
M 678 1631 
L 4684 1631 
L 4684 1100 
L 678 1100 
L 678 1631 
z
" transform="scale(0.015625)"/>
       <path id="DejaVuSans-39" d="M 703 97 
L 703 672 
Q 941 559 1184 500 
Q 1428 441 1663 441 
Q 2288 441 2617 861 
Q 2947 1281 2994 2138 
Q 2813 1869 2534 1725 
Q 2256 1581 1919 1581 
Q 1219 1581 811 2004 
Q 403 2428 403 3163 
Q 403 3881 828 4315 
Q 1253 4750 1959 4750 
Q 2769 4750 3195 4129 
Q 3622 3509 3622 2328 
Q 3622 1225 3098 567 
Q 2575 -91 1691 -91 
Q 1453 -91 1209 -44 
Q 966 3 703 97 
z
M 1959 2075 
Q 2384 2075 2632 2365 
Q 2881 2656 2881 3163 
Q 2881 3666 2632 3958 
Q 2384 4250 1959 4250 
Q 1534 4250 1286 3958 
Q 1038 3666 1038 3163 
Q 1038 2656 1286 2365 
Q 1534 2075 1959 2075 
z
" transform="scale(0.015625)"/>
       <path id="DejaVuSans-29" d="M 513 4856 
L 1013 4856 
Q 1481 4119 1714 3412 
Q 1947 2706 1947 2009 
Q 1947 1309 1714 600 
Q 1481 -109 1013 -844 
L 513 -844 
Q 928 -128 1133 580 
Q 1338 1288 1338 2009 
Q 1338 2731 1133 3434 
Q 928 4138 513 4856 
z
" transform="scale(0.015625)"/>
      </defs>
      <use xlink:href="#DejaVuSans-54"/>
      <use xlink:href="#DejaVuSans-61" x="44.583984"/>
      <use xlink:href="#DejaVuSans-72" x="105.863281"/>
      <use xlink:href="#DejaVuSans-67" x="145.226562"/>
      <use xlink:href="#DejaVuSans-65" x="208.703125"/>
      <use xlink:href="#DejaVuSans-74" x="270.226562"/>
      <use xlink:href="#DejaVuSans-20" x="309.435547"/>
      <use xlink:href="#DejaVuSans-28" x="341.222656"/>
      <use xlink:href="#DejaVuSans-6e" x="380.236328"/>
      <use xlink:href="#DejaVuSans-3d" x="443.615234"/>
      <use xlink:href="#DejaVuSans-32" x="527.404297"/>
      <use xlink:href="#DejaVuSans-36" x="591.027344"/>
      <use xlink:href="#DejaVuSans-39" x="654.650391"/>
      <use xlink:href="#DejaVuSans-29" x="718.273438"/>
     </g>
    </g>
    <g id="line2d_19">
     <path d="M 228.766343 38.465205 
L 238.766343 38.465205 
L 248.766343 38.465205 
" style="fill: none; stroke: #377eb8; stroke-width: 1.5; stroke-linecap: square"/>
    </g>
    <g id="text_19">
     <!-- Non-Target (n=899) -->
     <g transform="translate(256.766343 41.965205)scale(0.1 -0.1)">
      <defs>
       <path id="DejaVuSans-4e" d="M 628 4666 
L 1478 4666 
L 3547 763 
L 3547 4666 
L 4159 4666 
L 4159 0 
L 3309 0 
L 1241 3903 
L 1241 0 
L 628 0 
L 628 4666 
z
" transform="scale(0.015625)"/>
       <path id="DejaVuSans-2d" d="M 313 2009 
L 1997 2009 
L 1997 1497 
L 313 1497 
L 313 2009 
z
" transform="scale(0.015625)"/>
      </defs>
      <use xlink:href="#DejaVuSans-4e"/>
      <use xlink:href="#DejaVuSans-6f" x="74.804688"/>
      <use xlink:href="#DejaVuSans-6e" x="135.986328"/>
      <use xlink:href="#DejaVuSans-2d" x="199.365234"/>
      <use xlink:href="#DejaVuSans-54" x="226.324219"/>
      <use xlink:href="#DejaVuSans-61" x="270.908203"/>
      <use xlink:href="#DejaVuSans-72" x="332.1875"/>
      <use xlink:href="#DejaVuSans-67" x="371.550781"/>
      <use xlink:href="#DejaVuSans-65" x="435.027344"/>
      <use xlink:href="#DejaVuSans-74" x="496.550781"/>
      <use xlink:href="#DejaVuSans-20" x="535.759766"/>
      <use xlink:href="#DejaVuSans-28" x="567.546875"/>
      <use xlink:href="#DejaVuSans-6e" x="606.560547"/>
      <use xlink:href="#DejaVuSans-3d" x="669.939453"/>
      <use xlink:href="#DejaVuSans-38" x="753.728516"/>
      <use xlink:href="#DejaVuSans-39" x="817.351562"/>
      <use xlink:href="#DejaVuSans-39" x="880.974609"/>
      <use xlink:href="#DejaVuSans-29" x="944.597656"/>
     </g>
    </g>
   </g>
  </g>
 </g>
 <defs>
  <clipPath id="p8960940a7a">
   <rect x="46.55" y="71.241125" width="367.065499" height="246.958875"/>
  </clipPath>
 </defs>
</svg>
