<?xml version="1.0" encoding="utf-8" standalone="no"?>
<!DOCTYPE svg PUBLIC "-//W3C//DTD SVG 1.1//EN"
  "http://www.w3.org/Graphics/SVG/1.1/DTD/svg11.dtd">
<svg xmlns:xlink="http://www.w3.org/1999/xlink" width="432pt" height="360pt" viewBox="0 0 432 360" xmlns="http://www.w3.org/2000/svg" version="1.1">
 <metadata>
  <rdf:RDF xmlns:dc="http://purl.org/dc/elements/1.1/" xmlns:cc="http://creativecommons.org/ns#" xmlns:rdf="http://www.w3.org/1999/02/22-rdf-syntax-ns#">
   <cc:Work>
    <dc:type rdf:resource="http://purl.org/dc/dcmitype/StillImage"/>
    <dc:date>2022-11-02T17:00:56.399695</dc:date>
    <dc:format>image/svg+xml</dc:format>
    <dc:creator>
     <cc:Agent>
      <dc:title>Matplotlib v3.5.1, https://matplotlib.org/</dc:title>
     </cc:Agent>
    </dc:creator>
   </cc:Work>
  </rdf:RDF>
 </metadata>
 <defs>
  <style type="text/css">*{stroke-linejoin: round; stroke-linecap: butt}</style>
 </defs>
 <g id="figure_1">
  <g id="patch_1">
   <path d="M 0 360 
L 432 360 
L 432 0 
L 0 0 
L 0 360 
z
" style="fill: none"/>
  </g>
  <g id="axes_1">
   <g id="patch_2">
    <path d="M 46.55 318.2 
L 413.615499 318.2 
L 413.615499 71.241125 
L 46.55 71.241125 
L 46.55 318.2 
z
" style="fill: none"/>
   </g>
   <g id="PolyCollection_1">
    <defs>
     <path id="m66815c3950" d="M 46.55 -136.709877 
L 46.55 -95.15445 
L 47.346238 -94.339067 
L 48.142475 -94.19709 
L 48.938713 -95.065201 
L 49.73495 -96.830744 
L 50.531188 -98.959732 
L 51.327425 -100.705653 
L 52.123663 -101.397212 
L 52.9199 -100.675307 
L 53.716138 -98.600879 
L 54.512375 -95.625504 
L 55.308613 -92.463799 
L 56.10485 -89.907627 
L 56.901088 -88.599682 
L 57.697325 -88.809622 
L 58.493563 -90.324327 
L 59.2898 -92.536468 
L 60.086038 -94.696395 
L 60.882275 -96.204656 
L 61.678513 -96.836395 
L 62.47475 -96.814654 
L 63.270988 -96.682128 
L 64.067226 -97.00157 
L 64.863463 -98.043896 
L 65.659701 -99.661831 
L 66.455938 -101.416654 
L 67.252176 -102.820344 
L 68.048413 -103.50612 
L 68.844651 -103.276325 
L 69.640888 -102.104655 
L 70.437126 -100.186133 
L 71.233363 -98.018266 
L 72.029601 -96.30151 
L 72.825838 -95.579987 
L 73.622076 -95.923191 
L 74.418313 -96.911598 
L 75.214551 -97.907066 
L 76.010788 -98.426752 
L 76.807026 -98.374472 
L 77.603263 -97.98945 
L 78.399501 -97.622332 
L 79.195739 -97.528667 
L 79.991976 -97.762108 
L 80.788214 -98.170523 
L 81.584451 -98.488087 
L 82.380689 -98.499429 
L 83.176926 -98.201407 
L 83.973164 -97.853899 
L 84.769401 -97.865376 
L 85.565639 -98.581538 
L 86.361876 -100.104082 
L 87.158114 -102.228749 
L 87.954351 -104.500064 
L 88.750589 -106.333981 
L 89.546826 -107.171724 
L 90.343064 -106.644221 
L 91.139301 -104.714288 
L 91.935539 -101.745661 
L 92.731776 -98.43834 
L 93.528014 -95.615635 
L 94.324251 -93.941251 
L 95.120489 -93.709171 
L 95.916727 -94.808582 
L 96.712964 -96.857843 
L 97.509202 -99.407475 
L 98.305439 -102.09213 
L 99.101677 -104.677322 
L 99.897914 -107.0299 
L 100.694152 -109.069067 
L 101.490389 -110.728662 
L 102.286627 -111.934045 
L 103.082864 -112.599187 
L 103.879102 -112.659037 
L 104.675339 -112.130377 
L 105.471577 -111.164871 
L 106.267814 -110.046285 
L 107.064052 -109.124357 
L 107.860289 -108.722027 
L 108.656527 -109.057447 
L 109.452764 -110.190146 
L 110.249002 -111.984806 
L 111.04524 -114.10933 
L 111.841477 -116.100836 
L 112.637715 -117.503451 
L 113.433952 -118.028904 
L 114.23019 -117.662209 
L 115.026427 -116.658647 
L 115.822665 -115.438583 
L 116.618902 -114.433504 
L 117.41514 -113.944663 
L 118.211377 -114.059029 
L 119.007615 -114.647107 
L 119.803852 -115.436538 
L 120.60009 -116.123473 
L 121.396327 -116.474013 
L 122.192565 -116.388662 
L 122.988802 -115.925928 
L 123.78504 -115.282892 
L 124.581277 -114.736141 
L 125.377515 -114.550727 
L 126.173752 -114.886087 
L 126.96999 -115.736412 
L 127.766228 -116.930326 
L 128.562465 -118.185988 
L 129.358703 -119.195962 
L 130.15494 -119.708072 
L 130.951178 -119.581801 
L 131.747415 -118.813089 
L 132.543653 -117.537447 
L 133.33989 -116.019184 
L 134.136128 -114.612736 
L 134.932365 -113.675088 
L 135.728603 -113.446415 
L 136.52484 -113.962619 
L 137.321078 -115.054095 
L 138.117315 -116.427197 
L 138.913553 -117.773396 
L 139.70979 -118.849483 
L 140.506028 -119.516125 
L 141.302265 -119.756453 
L 142.098503 -119.68197 
L 142.89474 -119.505287 
L 143.690978 -119.4567 
L 144.487216 -119.670975 
L 145.283453 -120.102492 
L 146.079691 -120.516858 
L 146.875928 -120.562806 
L 147.672166 -119.885892 
L 148.468403 -118.238103 
L 149.264641 -115.558259 
L 150.060878 -112.018108 
L 150.857116 -108.019741 
L 151.653353 -104.123051 
L 152.449591 -100.894823 
L 153.245828 -98.713044 
L 154.042066 -97.609942 
L 154.838303 -97.249281 
L 155.634541 -97.073497 
L 156.430778 -96.552452 
L 157.227016 -95.398644 
L 158.023253 -93.652784 
L 158.819491 -91.640101 
L 159.615729 -89.852851 
L 160.411966 -88.805202 
L 161.208204 -88.881988 
L 162.004441 -90.208502 
L 162.800679 -92.592919 
L 163.596916 -95.593033 
L 164.393154 -98.697353 
L 165.189391 -101.539133 
L 165.985629 -104.041494 
L 166.781866 -106.433728 
L 167.578104 -109.139649 
L 168.374341 -112.588847 
L 169.170579 -117.019373 
L 169.966816 -122.353333 
L 170.763054 -128.20065 
L 171.559291 -133.991496 
L 172.355529 -139.176515 
L 173.151766 -143.404884 
L 173.948004 -146.611862 
L 174.744241 -148.99942 
L 175.540479 -150.929808 
L 176.336717 -152.77612 
L 177.132954 -154.784552 
L 177.929192 -157.003203 
L 178.725429 -159.306385 
L 179.521667 -161.492083 
L 180.317904 -163.384905 
L 181.114142 -164.881639 
L 181.910379 -165.929374 
L 182.706617 -166.485388 
L 183.502854 -166.518583 
L 184.299092 -166.065712 
L 185.095329 -165.285047 
L 185.891567 -164.432413 
L 186.687804 -163.759714 
L 187.484042 -163.413456 
L 188.280279 -163.401401 
L 189.076517 -163.617803 
L 189.872754 -163.870513 
L 190.668992 -163.879383 
L 191.46523 -163.281313 
L 192.261467 -161.700302 
L 193.057705 -158.886024 
L 193.853942 -154.849838 
L 194.65018 -149.901274 
L 195.446417 -144.559551 
L 196.242655 -139.394928 
L 197.038892 -134.878775 
L 197.83513 -131.290886 
L 198.631367 -128.696591 
L 199.427605 -126.985095 
L 200.223842 -125.955136 
L 201.02008 -125.420212 
L 201.816317 -125.305561 
L 202.612555 -125.697097 
L 203.408792 -126.804986 
L 204.20503 -128.835668 
L 205.001267 -131.825997 
L 205.797505 -135.532033 
L 206.593742 -139.43726 
L 207.38998 -142.872876 
L 208.186218 -145.192434 
L 208.982455 -145.945929 
L 209.778693 -145.019795 
L 210.57493 -142.708976 
L 211.371168 -139.680577 
L 212.167405 -136.812148 
L 212.963643 -134.946429 
L 213.75988 -134.650491 
L 214.556118 -136.063175 
L 215.352355 -138.872085 
L 216.148593 -142.420578 
L 216.94483 -145.914149 
L 217.741068 -148.662249 
L 218.537305 -150.270151 
L 219.333543 -150.715558 
L 220.12978 -150.302264 
L 220.926018 -149.532194 
L 221.722255 -148.94482 
L 222.518493 -148.960352 
L 223.31473 -149.766584 
L 224.110968 -151.294262 
L 224.907206 -153.290772 
L 225.703443 -155.441901 
L 226.499681 -157.464575 
L 227.295918 -159.140283 
L 228.092156 -160.310475 
L 228.888393 -160.861508 
L 229.684631 -160.698805 
L 230.480868 -159.711718 
L 231.277106 -157.767464 
L 232.073343 -154.774979 
L 232.869581 -150.797074 
L 233.665818 -146.120412 
L 234.462056 -141.221972 
L 235.258293 -136.659861 
L 236.054531 -132.958104 
L 236.850768 -130.517195 
L 237.647006 -129.535571 
L 238.443243 -129.937706 
L 239.239481 -131.353049 
L 240.035719 -133.195709 
L 240.831956 -134.832397 
L 241.628194 -135.762525 
L 242.424431 -135.738854 
L 243.220669 -134.810809 
L 244.016906 -133.30521 
L 244.813144 -131.75119 
L 245.609381 -130.74592 
L 246.405619 -130.779709 
L 247.201856 -132.075767 
L 247.998094 -134.505208 
L 248.794331 -137.605316 
L 249.590569 -140.692966 
L 250.386806 -143.047837 
L 251.183044 -144.124623 
L 251.979281 -143.734045 
L 252.775519 -142.115661 
L 253.571756 -139.861832 
L 254.367994 -137.723242 
L 255.164231 -136.380727 
L 255.960469 -136.26527 
L 256.756707 -137.466385 
L 257.552944 -139.729011 
L 258.349182 -142.535692 
L 259.145419 -145.255441 
L 259.941657 -147.325402 
L 260.737894 -148.407475 
L 261.534132 -148.466917 
L 262.330369 -147.757893 
L 263.126607 -146.741844 
L 263.922844 -145.974261 
L 264.719082 -145.975082 
L 265.515319 -147.087884 
L 266.311557 -149.361502 
L 267.107794 -152.515183 
L 267.904032 -156.023686 
L 268.700269 -159.292541 
L 269.496507 -161.840936 
L 270.292744 -163.413573 
L 271.088982 -163.995737 
L 271.88522 -163.761161 
L 272.681457 -163.000045 
L 273.477695 -162.05535 
L 274.273932 -161.264077 
L 275.07017 -160.891248 
L 275.866407 -161.065798 
L 276.662645 -161.749444 
L 277.458882 -162.762454 
L 278.25512 -163.861047 
L 279.051357 -164.838082 
L 279.847595 -165.605563 
L 280.643832 -166.219392 
L 281.44007 -166.8333 
L 282.236307 -167.613099 
L 283.032545 -168.66875 
L 283.828782 -170.037536 
L 284.62502 -171.710978 
L 285.421257 -173.667333 
L 286.217495 -175.878111 
L 287.013732 -178.287683 
L 287.80997 -180.79097 
L 288.606208 -183.23841 
L 289.402445 -185.475272 
L 290.198683 -187.395849 
L 290.99492 -188.969598 
L 291.791158 -190.218899 
L 292.587395 -191.171157 
L 293.383633 -191.829558 
L 294.17987 -192.182849 
L 294.976108 -192.234401 
L 295.772345 -192.017526 
L 296.568583 -191.592376 
L 297.36482 -191.044077 
L 298.161058 -190.493565 
L 298.957295 -190.104249 
L 299.753533 -190.055835 
L 300.54977 -190.478484 
L 301.346008 -191.375792 
L 302.142245 -192.58511 
L 302.938483 -193.805369 
L 303.73472 -194.691694 
L 304.530958 -194.983198 
L 305.327196 -194.61328 
L 306.123433 -193.753596 
L 306.919671 -192.765365 
L 307.715908 -192.068886 
L 308.512146 -191.982118 
L 309.308383 -192.595119 
L 310.104621 -193.737372 
L 310.900858 -195.049167 
L 311.697096 -196.116917 
L 312.493333 -196.610624 
L 313.289571 -196.381809 
L 314.085808 -195.51145 
L 314.882046 -194.305531 
L 315.678283 -193.225079 
L 316.474521 -192.743514 
L 317.270758 -193.166178 
L 318.066996 -194.495286 
L 318.863233 -196.420087 
L 319.659471 -198.445916 
L 320.455709 -200.09385 
L 321.251946 -201.066489 
L 322.048184 -201.309813 
L 322.844421 -200.976003 
L 323.640659 -200.339298 
L 324.436896 -199.710424 
L 325.233134 -199.359982 
L 326.029371 -199.443178 
L 326.825609 -199.936589 
L 327.621846 -200.624282 
L 328.418084 -201.154117 
L 329.214321 -201.147757 
L 330.010559 -200.3122 
L 330.806796 -198.510845 
L 331.603034 -195.790659 
L 332.399271 -192.383346 
L 333.195509 -188.6802 
L 333.991746 -185.163601 
L 334.787984 -182.293014 
L 335.584221 -180.390916 
L 336.380459 -179.579685 
L 337.176697 -179.78383 
L 337.972934 -180.771992 
L 338.769172 -182.209487 
L 339.565409 -183.715014 
L 340.361647 -184.920908 
L 341.157884 -185.529441 
L 341.954122 -185.344769 
L 342.750359 -184.27944 
L 343.546597 -182.350164 
L 344.342834 -179.670808 
L 345.139072 -176.43581 
L 345.935309 -172.89629 
L 346.731547 -169.350241 
L 347.527784 -166.14983 
L 348.324022 -163.695359 
L 349.120259 -162.367498 
L 349.916497 -162.392379 
L 350.712734 -163.703043 
L 351.508972 -165.888112 
L 352.30521 -168.274692 
L 353.101447 -170.117497 
L 353.897685 -170.818071 
L 354.693922 -170.098819 
L 355.49016 -168.080727 
L 356.286397 -165.237502 
L 357.082635 -162.230528 
L 357.878872 -159.675775 
L 358.67511 -157.930672 
L 359.471347 -156.98182 
L 360.267585 -156.481684 
L 361.063822 -155.915221 
L 361.86006 -154.829258 
L 362.656297 -153.028805 
L 363.452535 -150.657683 
L 364.248772 -148.136169 
L 365.04501 -145.996194 
L 365.841247 -144.688456 
L 366.637485 -144.440315 
L 367.433722 -145.206397 
L 368.22996 -146.720992 
L 369.026198 -148.624311 
L 369.822435 -150.599086 
L 370.618673 -152.443168 
L 371.41491 -154.04377 
L 372.211148 -155.29351 
L 373.007385 -156.03234 
L 373.803623 -156.072304 
L 374.59986 -155.286482 
L 375.396098 -153.696148 
L 376.192335 -151.512075 
L 376.988573 -149.125074 
L 377.78481 -147.040929 
L 378.581048 -145.745636 
L 379.377285 -145.519849 
L 380.173523 -146.2805 
L 380.96976 -147.549431 
L 381.765998 -148.595389 
L 382.562235 -148.698265 
L 383.358473 -147.420622 
L 384.15471 -144.78291 
L 384.950948 -141.287524 
L 385.747186 -137.778952 
L 386.543423 -135.166246 
L 387.339661 -134.091625 
L 388.135898 -134.674335 
L 388.932136 -136.44401 
L 389.728373 -138.497391 
L 390.524611 -139.81474 
L 391.320848 -139.616562 
L 392.117086 -137.638456 
L 392.913323 -134.232296 
L 393.709561 -130.251275 
L 394.505798 -126.744266 
L 395.302036 -124.569315 
L 396.098273 -124.085657 
L 396.894511 -125.051826 
L 397.690748 -126.753417 
L 398.486986 -128.288961 
L 399.283223 -128.888617 
L 400.079461 -128.14931 
L 400.875699 -126.111677 
L 401.671936 -123.165772 
L 402.468174 -119.843008 
L 403.264411 -116.600468 
L 404.060649 -113.701021 
L 404.856886 -111.224215 
L 405.653124 -109.172272 
L 406.449361 -107.594682 
L 407.245599 -106.66608 
L 408.041836 -106.682158 
L 408.838074 -107.968777 
L 409.634311 -110.729739 
L 410.430549 -114.891289 
L 411.226786 -120.019792 
L 412.023024 -125.370398 
L 412.819261 -130.067776 
L 413.615499 -133.358152 
L 413.615499 -214.077815 
L 413.615499 -214.077815 
L 412.819261 -210.958506 
L 412.023024 -206.606442 
L 411.226786 -201.68154 
L 410.430549 -196.972426 
L 409.634311 -193.170777 
L 408.838074 -190.687882 
L 408.041836 -189.57676 
L 407.245599 -189.58959 
L 406.449361 -190.347161 
L 405.653124 -191.540726 
L 404.856886 -193.062177 
L 404.060649 -194.994101 
L 403.264411 -197.470829 
L 402.468174 -200.495533 
L 401.671936 -203.818036 
L 400.875699 -206.940473 
L 400.079461 -209.253015 
L 399.283223 -210.256013 
L 398.486986 -209.784752 
L 397.690748 -208.139849 
L 396.894511 -206.046914 
L 396.098273 -204.437369 
L 395.302036 -204.126393 
L 394.505798 -205.514741 
L 393.709561 -208.43275 
L 392.913323 -212.182286 
L 392.117086 -215.769449 
L 391.320848 -218.257269 
L 390.524611 -219.116583 
L 389.728373 -218.429944 
L 388.932136 -216.8511 
L 388.135898 -215.333203 
L 387.339661 -214.749854 
L 386.543423 -215.570803 
L 385.747186 -217.712483 
L 384.950948 -220.603424 
L 384.15471 -223.42763 
L 383.358473 -225.451552 
L 382.562235 -226.304707 
L 381.765998 -226.093018 
L 380.96976 -225.300326 
L 380.173523 -224.544226 
L 379.377285 -224.320928 
L 378.581048 -224.845989 
L 377.78481 -226.022709 
L 376.988573 -227.518451 
L 376.192335 -228.91141 
L 375.396098 -229.856943 
L 374.59986 -230.20486 
L 373.803623 -230.006574 
L 373.007385 -229.411068 
L 372.211148 -228.531253 
L 371.41491 -227.38626 
L 370.618673 -225.952713 
L 369.822435 -224.265214 
L 369.026198 -222.484156 
L 368.22996 -220.891863 
L 367.433722 -219.826877 
L 366.637485 -219.584373 
L 365.841247 -220.311543 
L 365.04501 -221.933003 
L 364.248772 -224.147772 
L 363.452535 -226.518284 
L 362.656297 -228.624296 
L 361.86006 -230.218137 
L 361.063822 -231.308711 
L 360.267585 -232.144609 
L 359.471347 -233.105176 
L 358.67511 -234.54015 
L 357.878872 -236.614581 
L 357.082635 -239.217449 
L 356.286397 -241.971672 
L 355.49016 -244.350461 
L 354.693922 -245.854347 
L 353.897685 -246.191249 
L 353.101447 -245.392543 
L 352.30521 -243.816206 
L 351.508972 -242.032464 
L 350.712734 -240.644165 
L 349.916497 -240.122276 
L 349.120259 -240.710925 
L 348.324022 -242.406109 
L 347.527784 -244.986295 
L 346.731547 -248.081773 
L 345.935309 -251.278199 
L 345.139072 -254.2306 
L 344.342834 -256.737121 
L 343.546597 -258.733558 
L 342.750359 -260.22146 
L 341.954122 -261.193727 
L 341.157884 -261.613284 
L 340.361647 -261.450932 
L 339.565409 -260.746402 
L 338.769172 -259.653864 
L 337.972934 -258.449784 
L 337.176697 -257.491001 
L 336.380459 -257.129076 
L 335.584221 -257.609791 
L 334.787984 -259.009035 
L 333.991746 -261.231516 
L 333.195509 -264.053914 
L 332.399271 -267.173265 
L 331.603034 -270.244957 
L 330.806796 -272.928789 
L 330.010559 -274.954429 
L 329.214321 -276.187277 
L 328.418084 -276.655459 
L 327.621846 -276.530331 
L 326.825609 -276.081367 
L 326.029371 -275.620469 
L 325.233134 -275.429356 
L 324.436896 -275.667813 
L 323.640659 -276.291509 
L 322.844421 -277.040779 
L 322.048184 -277.533472 
L 321.251946 -277.429329 
L 320.455709 -276.579747 
L 319.659471 -275.086493 
L 318.863233 -273.253719 
L 318.066996 -271.477153 
L 317.270758 -270.126726 
L 316.474521 -269.450928 
L 315.678283 -269.505987 
L 314.882046 -270.120891 
L 314.085808 -270.927933 
L 313.289571 -271.48148 
L 312.493333 -271.437938 
L 311.697096 -270.711723 
L 310.900858 -269.515793 
L 310.104621 -268.258858 
L 309.308383 -267.355216 
L 308.512146 -267.046894 
L 307.715908 -267.316402 
L 306.919671 -267.910003 
L 306.123433 -268.443842 
L 305.327196 -268.54596 
L 304.530958 -267.983821 
L 303.73472 -266.739763 
L 302.938483 -265.011183 
L 302.142245 -263.140561 
L 301.346008 -261.503703 
L 300.54977 -260.396956 
L 299.753533 -259.959548 
L 298.957295 -260.149509 
L 298.161058 -260.770955 
L 297.36482 -261.542823 
L 296.568583 -262.188738 
L 295.772345 -262.520088 
L 294.976108 -262.477049 
L 294.17987 -262.106219 
L 293.383633 -261.49025 
L 292.587395 -260.680111 
L 291.791158 -259.678155 
L 290.99492 -258.471041 
L 290.198683 -257.069018 
L 289.402445 -255.509549 
L 288.606208 -253.827918 
L 287.80997 -252.033146 
L 287.013732 -250.118498 
L 286.217495 -248.096842 
L 285.421257 -246.031027 
L 284.62502 -244.032389 
L 283.828782 -242.229255 
L 283.032545 -240.724181 
L 282.236307 -239.564049 
L 281.44007 -238.734453 
L 280.643832 -238.170254 
L 279.847595 -237.765613 
L 279.051357 -237.378293 
L 278.25512 -236.848572 
L 277.458882 -236.049503 
L 276.662645 -234.95663 
L 275.866407 -233.693603 
L 275.07017 -232.512084 
L 274.273932 -231.697864 
L 273.477695 -231.433727 
L 272.681457 -231.678762 
L 271.88522 -232.130135 
L 271.088982 -232.305517 
L 270.292744 -231.719251 
L 269.496507 -230.0689 
L 268.700269 -227.347605 
L 267.904032 -223.845346 
L 267.107794 -220.061132 
L 266.311557 -216.578024 
L 265.515319 -213.93924 
L 264.719082 -212.532703 
L 263.922844 -212.48519 
L 263.126607 -213.593041 
L 262.330369 -215.340913 
L 261.534132 -217.037995 
L 260.737894 -218.032726 
L 259.941657 -217.916444 
L 259.145419 -216.638849 
L 258.349182 -214.509923 
L 257.552944 -212.103427 
L 256.756707 -210.090781 
L 255.960469 -209.040654 
L 255.164231 -209.236023 
L 254.367994 -210.572832 
L 253.571756 -212.588957 
L 252.775519 -214.608685 
L 251.979281 -215.94294 
L 251.183044 -216.073534 
L 250.386806 -214.780294 
L 249.590569 -212.199636 
L 248.794331 -208.804971 
L 247.998094 -205.294852 
L 247.201856 -202.403413 
L 246.405619 -200.687164 
L 245.609381 -200.36671 
L 244.813144 -201.273763 
L 244.016906 -202.908941 
L 243.220669 -204.589589 
L 242.424431 -205.655684 
L 241.628194 -205.679491 
L 240.831956 -204.602658 
L 240.035719 -202.741994 
L 239.239481 -200.67 
L 238.443243 -199.038496 
L 237.647006 -198.41563 
L 236.850768 -199.160939 
L 236.054531 -201.338993 
L 235.258293 -204.696229 
L 234.462056 -208.739234 
L 233.665818 -212.902036 
L 232.869581 -216.717753 
L 232.073343 -219.902948 
L 231.277106 -222.33735 
L 230.480868 -224.000972 
L 229.684631 -224.930803 
L 228.888393 -225.195536 
L 228.092156 -224.862793 
L 227.295918 -223.972001 
L 226.499681 -222.556631 
L 225.703443 -220.71486 
L 224.907206 -218.667064 
L 224.110968 -216.741771 
L 223.31473 -215.291587 
L 222.518493 -214.586105 
L 221.722255 -214.717501 
L 220.926018 -215.537338 
L 220.12978 -216.645822 
L 219.333543 -217.469081 
L 218.537305 -217.42918 
L 217.741068 -216.149582 
L 216.94483 -213.608195 
L 216.148593 -210.178275 
L 215.352355 -206.547928 
L 214.556118 -203.541293 
L 213.75988 -201.883236 
L 212.963643 -201.972296 
L 212.167405 -203.740317 
L 211.371168 -206.652909 
L 210.57493 -209.849337 
L 209.778693 -212.373766 
L 208.982455 -213.433581 
L 208.186218 -212.617826 
L 207.38998 -210.005113 
L 206.593742 -206.113601 
L 205.797505 -201.708936 
L 205.001267 -197.557488 
L 204.20503 -194.232189 
L 203.408792 -192.029128 
L 202.612555 -190.983561 
L 201.816317 -190.945491 
L 201.02008 -191.686406 
L 200.223842 -193.014417 
L 199.427605 -194.858891 
L 198.631367 -197.281847 
L 197.83513 -200.406366 
L 197.038892 -204.301516 
L 196.242655 -208.884074 
L 195.446417 -213.892228 
L 194.65018 -218.939364 
L 193.853942 -223.614258 
L 193.057705 -227.570595 
L 192.261467 -230.572127 
L 191.46523 -232.509145 
L 190.668992 -233.417483 
L 189.872754 -233.487884 
L 189.076517 -233.028197 
L 188.280279 -232.363327 
L 187.484042 -231.724839 
L 186.687804 -231.207101 
L 185.891567 -230.815093 
L 185.095329 -230.543805 
L 184.299092 -230.402686 
L 183.502854 -230.362735 
L 182.706617 -230.292338 
L 181.910379 -229.973139 
L 181.114142 -229.20343 
L 180.317904 -227.908043 
L 179.521667 -226.174414 
L 178.725429 -224.199387 
L 177.929192 -222.190343 
L 177.132954 -220.279331 
L 176.336717 -218.481825 
L 175.540479 -216.693542 
L 174.744241 -214.712151 
L 173.948004 -212.283615 
L 173.151766 -209.176242 
L 172.355529 -205.267267 
L 171.559291 -200.605316 
L 170.763054 -195.414125 
L 169.966816 -190.036398 
L 169.170579 -184.83852 
L 168.374341 -180.107392 
L 167.578104 -175.96951 
L 166.781866 -172.361816 
L 165.985629 -169.075925 
L 165.189391 -165.870957 
L 164.393154 -162.607674 
L 163.596916 -159.344618 
L 162.800679 -156.346983 
L 162.004441 -154.005655 
L 161.208204 -152.691731 
L 160.411966 -152.589326 
L 159.615729 -153.569979 
L 158.819491 -155.184998 
L 158.023253 -156.814689 
L 157.227016 -157.924678 
L 156.430778 -158.295498 
L 155.634541 -158.10047 
L 154.838303 -157.801899 
L 154.042066 -157.944906 
L 153.245828 -158.962997 
L 152.449591 -161.054953 
L 151.653353 -164.134343 
L 150.857116 -167.845951 
L 150.060878 -171.656747 
L 149.264641 -175.013441 
L 148.468403 -177.518713 
L 147.672166 -179.050442 
L 146.875928 -179.766045 
L 146.079691 -179.992087 
L 145.283453 -180.063172 
L 144.487216 -180.194565 
L 143.690978 -180.442311 
L 142.89474 -180.739152 
L 142.098503 -180.956957 
L 141.302265 -180.956579 
L 140.506028 -180.621727 
L 139.70979 -179.8938 
L 138.913553 -178.806242 
L 138.117315 -177.495674 
L 137.321078 -176.168321 
L 136.52484 -175.042413 
L 135.728603 -174.304813 
L 134.932365 -174.092506 
L 134.136128 -174.473133 
L 133.33989 -175.401137 
L 132.543653 -176.670235 
L 131.747415 -177.920336 
L 130.951178 -178.736583 
L 130.15494 -178.805738 
L 129.358703 -178.045112 
L 128.562465 -176.637988 
L 127.766228 -174.964382 
L 126.96999 -173.462295 
L 126.173752 -172.477805 
L 125.377515 -172.156513 
L 124.581277 -172.409774 
L 123.78504 -172.958112 
L 122.988802 -173.43267 
L 122.192565 -173.503267 
L 121.396327 -172.995351 
L 120.60009 -171.954587 
L 119.803852 -170.631125 
L 119.007615 -169.380204 
L 118.211377 -168.524853 
L 117.41514 -168.24194 
L 116.618902 -168.512161 
L 115.822665 -169.136879 
L 115.026427 -169.80246 
L 114.23019 -170.168071 
L 113.433952 -169.951253 
L 112.637715 -168.991159 
L 111.841477 -167.284524 
L 111.04524 -165.00197 
L 110.249002 -162.479927 
L 109.452764 -160.163865 
L 108.656527 -158.489165 
L 107.860289 -157.730407 
L 107.064052 -157.892253 
L 106.267814 -158.708517 
L 105.471577 -159.750577 
L 104.675339 -160.578388 
L 103.879102 -160.86092 
L 103.082864 -160.434305 
L 102.286627 -159.300621 
L 101.490389 -157.577629 
L 100.694152 -155.417879 
L 99.897914 -152.931666 
L 99.101677 -150.168663 
L 98.305439 -147.179335 
L 97.509202 -144.112229 
L 96.712964 -141.264918 
L 95.916727 -139.037665 
L 95.120489 -137.813162 
L 94.324251 -137.831081 
L 93.528014 -139.10429 
L 92.731776 -141.384188 
L 91.935539 -144.170458 
L 91.139301 -146.776103 
L 90.343064 -148.471572 
L 89.546826 -148.703794 
L 88.750589 -147.309656 
L 87.954351 -144.598855 
L 87.158114 -141.241336 
L 86.361876 -138.002333 
L 85.565639 -135.45799 
L 84.769401 -133.83429 
L 83.973164 -133.027807 
L 83.176926 -132.74955 
L 82.380689 -132.683323 
L 81.584451 -132.587483 
L 80.788214 -132.34111 
L 79.991976 -131.945809 
L 79.195739 -131.477105 
L 78.399501 -130.998095 
L 77.603263 -130.496734 
L 76.807026 -129.905676 
L 76.010788 -129.186926 
L 75.214551 -128.386996 
L 74.418313 -127.604265 
L 73.622076 -126.946306 
L 72.825838 -126.557715 
L 72.029601 -126.653394 
L 71.233363 -127.459353 
L 70.437126 -129.037288 
L 69.640888 -131.067443 
L 68.844651 -132.831456 
L 68.048413 -133.567124 
L 67.252176 -132.925026 
L 66.455938 -131.151946 
L 65.659701 -128.9185 
L 64.863463 -126.947804 
L 64.067226 -125.693887 
L 63.270988 -125.227221 
L 62.47475 -125.290931 
L 61.678513 -125.429712 
L 60.882275 -125.154302 
L 60.086038 -124.141946 
L 59.2898 -122.419833 
L 58.493563 -120.424096 
L 57.697325 -118.876629 
L 56.901088 -118.528711 
L 56.10485 -119.869365 
L 55.308613 -122.898722 
L 54.512375 -127.054137 
L 53.716138 -131.367431 
L 52.9199 -134.825834 
L 52.123663 -136.762215 
L 51.327425 -137.080128 
L 50.531188 -136.22891 
L 49.73495 -134.973293 
L 48.938713 -134.084506 
L 48.142475 -134.076465 
L 47.346238 -135.056198 
L 46.55 -136.709877 
z
" style="stroke: #e41a1c; stroke-opacity: 0.3"/>
    </defs>
    <g clip-path="url(#pb83ea55141)">
     <use xlink:href="#m66815c3950" x="0" y="360" style="fill: #e41a1c; fill-opacity: 0.3; stroke: #e41a1c; stroke-opacity: 0.3"/>
    </g>
   </g>
   <g id="PolyCollection_2">
    <defs>
     <path id="m5ab2e7e205" d="M 46.55 -138.839825 
L 46.55 -115.571526 
L 47.346238 -116.672751 
L 48.142475 -117.728289 
L 48.938713 -118.426052 
L 49.73495 -118.54746 
L 50.531188 -118.025004 
L 51.327425 -116.943422 
L 52.123663 -115.486147 
L 52.9199 -113.854853 
L 53.716138 -112.200613 
L 54.512375 -110.594758 
L 55.308613 -109.049863 
L 56.10485 -107.576932 
L 56.901088 -106.240293 
L 57.697325 -105.164454 
L 58.493563 -104.478721 
L 59.2898 -104.233707 
L 60.086038 -104.345647 
L 60.882275 -104.606119 
L 61.678513 -104.758245 
L 62.47475 -104.600152 
L 63.270988 -104.059473 
L 64.067226 -103.207825 
L 64.863463 -102.223459 
L 65.659701 -101.326716 
L 66.455938 -100.709618 
L 67.252176 -100.47446 
L 68.048413 -100.593982 
L 68.844651 -100.909874 
L 69.640888 -101.184803 
L 70.437126 -101.199113 
L 71.233363 -100.850941 
L 72.029601 -100.207553 
L 72.825838 -99.481555 
L 73.622076 -98.945337 
L 74.418313 -98.821772 
L 75.214551 -99.19019 
L 76.010788 -99.940639 
L 76.807026 -100.800184 
L 77.603263 -101.429719 
L 78.399501 -101.550608 
L 79.195739 -101.041763 
L 79.991976 -99.967891 
L 80.788214 -98.545435 
L 81.584451 -97.072896 
L 82.380689 -95.849258 
L 83.176926 -95.095764 
L 83.973164 -94.897975 
L 84.769401 -95.19001 
L 85.565639 -95.792309 
L 86.361876 -96.484665 
L 87.158114 -97.081245 
L 87.954351 -97.481884 
L 88.750589 -97.694492 
L 89.546826 -97.830924 
L 90.343064 -98.073749 
L 91.139301 -98.613672 
L 91.935539 -99.57144 
L 92.731776 -100.935852 
L 93.528014 -102.544722 
L 94.324251 -104.118727 
L 95.120489 -105.332057 
L 95.916727 -105.889663 
L 96.712964 -105.59231 
L 97.509202 -104.390863 
L 98.305439 -102.431085 
L 99.101677 -100.065096 
L 99.897914 -97.798152 
L 100.694152 -96.163627 
L 101.490389 -95.565431 
L 102.286627 -96.151975 
L 103.082864 -97.770474 
L 103.879102 -100.010023 
L 104.675339 -102.307229 
L 105.471577 -104.083871 
L 106.267814 -104.890432 
L 107.064052 -104.524728 
L 107.860289 -103.083928 
L 108.656527 -100.92205 
L 109.452764 -98.527466 
L 110.249002 -96.372096 
L 111.04524 -94.784673 
L 111.841477 -93.881722 
L 112.637715 -93.563248 
L 113.433952 -93.570012 
L 114.23019 -93.586842 
L 115.026427 -93.358181 
L 115.822665 -92.772295 
L 116.618902 -91.885496 
L 117.41514 -90.890137 
L 118.211377 -90.049786 
L 119.007615 -89.625127 
L 119.803852 -89.803699 
L 120.60009 -90.643025 
L 121.396327 -92.039885 
L 122.192565 -93.737893 
L 122.988802 -95.376039 
L 123.78504 -96.569131 
L 124.581277 -97.005022 
L 125.377515 -96.536837 
L 126.173752 -95.240814 
L 126.96999 -93.410667 
L 127.766228 -91.479791 
L 128.562465 -89.895144 
L 129.358703 -88.987462 
L 130.15494 -88.879096 
L 130.951178 -89.455169 
L 131.747415 -90.403401 
L 132.543653 -91.311825 
L 133.33989 -91.797873 
L 134.136128 -91.628832 
L 134.932365 -90.792017 
L 135.728603 -89.488564 
L 136.52484 -88.052719 
L 137.321078 -86.82409 
L 138.117315 -86.018297 
L 138.913553 -85.644461 
L 139.70979 -85.503295 
L 140.506028 -85.267833 
L 141.302265 -84.612611 
L 142.098503 -83.338549 
L 142.89474 -81.449457 
L 143.690978 -79.161496 
L 144.487216 -76.847725 
L 145.283453 -74.935028 
L 146.079691 -73.78151 
L 146.875928 -73.571251 
L 147.672166 -74.261737 
L 148.468403 -75.603092 
L 149.264641 -77.218297 
L 150.060878 -78.716494 
L 150.857116 -79.797783 
L 151.653353 -80.319194 
L 152.449591 -80.307095 
L 153.245828 -79.919747 
L 154.042066 -79.379357 
L 154.838303 -78.901242 
L 155.634541 -78.646196 
L 156.430778 -78.706324 
L 157.227016 -79.120572 
L 158.023253 -79.902934 
L 158.819491 -81.064524 
L 159.615729 -82.617533 
L 160.411966 -84.560925 
L 161.208204 -86.856712 
L 162.004441 -89.409661 
L 162.800679 -92.059701 
L 163.596916 -94.592777 
L 164.393154 -96.772407 
L 165.189391 -98.390214 
L 165.985629 -99.325854 
L 166.781866 -99.596463 
L 167.578104 -99.371279 
L 168.374341 -98.938171 
L 169.170579 -98.62885 
L 169.966816 -98.729675 
L 170.763054 -99.4077 
L 171.559291 -100.668879 
L 172.355529 -102.349484 
L 173.151766 -104.137436 
L 173.948004 -105.628449 
L 174.744241 -106.423358 
L 175.540479 -106.248789 
L 176.336717 -105.054738 
L 177.132954 -103.039816 
L 177.929192 -100.592508 
L 178.725429 -98.181223 
L 179.521667 -96.239165 
L 180.317904 -95.071974 
L 181.114142 -94.796355 
L 181.910379 -95.315597 
L 182.706617 -96.345322 
L 183.502854 -97.494175 
L 184.299092 -98.377638 
L 185.095329 -98.722326 
L 185.891567 -98.426193 
L 186.687804 -97.56472 
L 187.484042 -96.35328 
L 188.280279 -95.07935 
L 189.076517 -94.022051 
L 189.872754 -93.37905 
L 190.668992 -93.218941 
L 191.46523 -93.467385 
L 192.261467 -93.926444 
L 193.057705 -94.325649 
L 193.853942 -94.402426 
L 194.65018 -93.995847 
L 195.446417 -93.119719 
L 196.242655 -91.978287 
L 197.038892 -90.912315 
L 197.83513 -90.296825 
L 198.631367 -90.429223 
L 199.427605 -91.441006 
L 200.223842 -93.251795 
L 201.02008 -95.575787 
L 201.816317 -97.982772 
L 202.612555 -100.00562 
L 203.408792 -101.268909 
L 204.20503 -101.599225 
L 205.001267 -101.078755 
L 205.797505 -100.021946 
L 206.593742 -98.88247 
L 207.38998 -98.120266 
L 208.186218 -98.068383 
L 208.982455 -98.838735 
L 209.778693 -100.295708 
L 210.57493 -102.10755 
L 211.371168 -103.859225 
L 212.167405 -105.184353 
L 212.963643 -105.865966 
L 213.75988 -105.872838 
L 214.556118 -105.332818 
L 215.352355 -104.468829 
L 216.148593 -103.524815 
L 216.94483 -102.697605 
L 217.741068 -102.084337 
L 218.537305 -101.660049 
L 219.333543 -101.2986 
L 220.12978 -100.834462 
L 220.926018 -100.135922 
L 221.722255 -99.15224 
L 222.518493 -97.917089 
L 223.31473 -96.520978 
L 224.110968 -95.077367 
L 224.907206 -93.695674 
L 225.703443 -92.45848 
L 226.499681 -91.396918 
L 227.295918 -90.468635 
L 228.092156 -89.551055 
L 228.888393 -88.459933 
L 229.684631 -86.991784 
L 230.480868 -84.978332 
L 231.277106 -82.337073 
L 232.073343 -79.103723 
L 232.869581 -75.439534 
L 233.665818 -71.614319 
L 234.462056 -67.971229 
L 235.258293 -64.877092 
L 236.054531 -62.658498 
L 236.850768 -61.529661 
L 237.647006 -61.532674 
L 238.443243 -62.516864 
L 239.239481 -64.170319 
L 240.035719 -66.092456 
L 240.831956 -67.878752 
L 241.628194 -69.1913 
L 242.424431 -69.805623 
L 243.220669 -69.638279 
L 244.016906 -68.759325 
L 244.813144 -67.382433 
L 245.609381 -65.826083 
L 246.405619 -64.443816 
L 247.201856 -63.54008 
L 247.998094 -63.295214 
L 248.794331 -63.719457 
L 249.590569 -64.64731 
L 250.386806 -65.776072 
L 251.183044 -66.742408 
L 251.979281 -67.21985 
L 252.775519 -67.007883 
L 253.571756 -66.085563 
L 254.367994 -64.616263 
L 255.164231 -62.906269 
L 255.960469 -61.32915 
L 256.756707 -60.233034 
L 257.552944 -59.853109 
L 258.349182 -60.25607 
L 259.145419 -61.336281 
L 259.941657 -62.86112 
L 260.737894 -64.543088 
L 261.534132 -66.112879 
L 262.330369 -67.376822 
L 263.126607 -68.250099 
L 263.922844 -68.758606 
L 264.719082 -69.007933 
L 265.515319 -69.130309 
L 266.311557 -69.23447 
L 267.107794 -69.378477 
L 267.904032 -69.566294 
L 268.700269 -69.75681 
L 269.496507 -69.8793 
L 270.292744 -69.8572 
L 271.088982 -69.63853 
L 271.88522 -69.217788 
L 272.681457 -68.636563 
L 273.477695 -67.96752 
L 274.273932 -67.299116 
L 275.07017 -66.729825 
L 275.866407 -66.362328 
L 276.662645 -66.288102 
L 277.458882 -66.565244 
L 278.25512 -67.2058 
L 279.051357 -68.179309 
L 279.847595 -69.425432 
L 280.643832 -70.866339 
L 281.44007 -72.417268 
L 282.236307 -73.997917 
L 283.032545 -75.5421 
L 283.828782 -76.997567 
L 284.62502 -78.315816 
L 285.421257 -79.442564 
L 286.217495 -80.319896 
L 287.013732 -80.897906 
L 287.80997 -81.144723 
L 288.606208 -81.050088 
L 289.402445 -80.629035 
L 290.198683 -79.931706 
L 290.99492 -79.052864 
L 291.791158 -78.128504 
L 292.587395 -77.314862 
L 293.383633 -76.756819 
L 294.17987 -76.557107 
L 294.976108 -76.751823 
L 295.772345 -77.292947 
L 296.568583 -78.041062 
L 297.36482 -78.775327 
L 298.161058 -79.224382 
L 298.957295 -79.113684 
L 299.753533 -78.219164 
L 300.54977 -76.417582 
L 301.346008 -73.725752 
L 302.142245 -70.320059 
L 302.938483 -66.525329 
L 303.73472 -62.766786 
L 304.530958 -59.487001 
L 305.327196 -57.042687 
L 306.123433 -55.609714 
L 306.919671 -55.132083 
L 307.715908 -55.340788 
L 308.512146 -55.844333 
L 309.308383 -56.260297 
L 310.104621 -56.341425 
L 310.900858 -56.048596 
L 311.697096 -55.542426 
L 312.493333 -55.09627 
L 313.289571 -54.966789 
L 314.085808 -55.277478 
L 314.882046 -55.962944 
L 315.678283 -56.789988 
L 316.474521 -57.440687 
L 317.270758 -57.625505 
L 318.066996 -57.193015 
L 318.863233 -56.202415 
L 319.659471 -54.925809 
L 320.455709 -53.763638 
L 321.251946 -53.098219 
L 322.048184 -53.149001 
L 322.844421 -53.895998 
L 323.640659 -55.097217 
L 324.436896 -56.377598 
L 325.233134 -57.346778 
L 326.029371 -57.711669 
L 326.825609 -57.361208 
L 327.621846 -56.400948 
L 328.418084 -55.120312 
L 329.214321 -53.902418 
L 330.010559 -53.115143 
L 330.806796 -53.025403 
L 331.603034 -53.754182 
L 332.399271 -55.264741 
L 333.195509 -57.373005 
L 333.991746 -59.78123 
L 334.787984 -62.137357 
L 335.584221 -64.1112 
L 336.380459 -65.465132 
L 337.176697 -66.100754 
L 337.972934 -66.076124 
L 338.769172 -65.594764 
L 339.565409 -64.965733 
L 340.361647 -64.536013 
L 341.157884 -64.605543 
L 341.954122 -65.34662 
L 342.750359 -66.751142 
L 343.546597 -68.623208 
L 344.342834 -70.624234 
L 345.139072 -72.364694 
L 345.935309 -73.519856 
L 346.731547 -73.93289 
L 347.527784 -73.666116 
L 348.324022 -72.980134 
L 349.120259 -72.249032 
L 349.916497 -71.843522 
L 350.712734 -72.02103 
L 351.508972 -72.854876 
L 352.30521 -74.220133 
L 353.101447 -75.834486 
L 353.897685 -77.342094 
L 354.693922 -78.41515 
L 355.49016 -78.846553 
L 356.286397 -78.60844 
L 357.082635 -77.858643 
L 357.878872 -76.890757 
L 358.67511 -76.042503 
L 359.471347 -75.593176 
L 360.267585 -75.68502 
L 361.063822 -76.292013 
L 361.86006 -77.242091 
L 362.656297 -78.282116 
L 363.452535 -79.163013 
L 364.248772 -79.717108 
L 365.04501 -79.902242 
L 365.841247 -79.802997 
L 366.637485 -79.592009 
L 367.433722 -79.469778 
L 368.22996 -79.600317 
L 369.026198 -80.056337 
L 369.822435 -80.787377 
L 370.618673 -81.62518 
L 371.41491 -82.332367 
L 372.211148 -82.680047 
L 373.007385 -82.526731 
L 373.803623 -81.867557 
L 374.59986 -80.838458 
L 375.396098 -79.677804 
L 376.192335 -78.65926 
L 376.988573 -78.014329 
L 377.78481 -77.866904 
L 378.581048 -78.200967 
L 379.377285 -78.875684 
L 380.173523 -79.681449 
L 380.96976 -80.414542 
L 381.765998 -80.942608 
L 382.562235 -81.239371 
L 383.358473 -81.379488 
L 384.15471 -81.496546 
L 384.950948 -81.720048 
L 385.747186 -82.113241 
L 386.543423 -82.637039 
L 387.339661 -83.156046 
L 388.135898 -83.485733 
L 388.932136 -83.462399 
L 389.728373 -83.00719 
L 390.524611 -82.157621 
L 391.320848 -81.054421 
L 392.117086 -79.889 
L 392.913323 -78.834244 
L 393.709561 -77.988032 
L 394.505798 -77.352753 
L 395.302036 -76.856631 
L 396.098273 -76.402946 
L 396.894511 -75.924005 
L 397.690748 -75.417687 
L 398.486986 -74.957551 
L 399.283223 -74.670505 
L 400.079461 -74.687703 
L 400.875699 -75.084215 
L 401.671936 -75.831974 
L 402.468174 -76.790335 
L 403.264411 -77.746144 
L 404.060649 -78.493039 
L 404.856886 -78.91794 
L 405.653124 -79.055445 
L 406.449361 -79.084087 
L 407.245599 -79.265093 
L 408.041836 -79.84893 
L 408.838074 -80.985516 
L 409.634311 -82.668243 
L 410.430549 -84.729919 
L 411.226786 -86.891627 
L 412.023024 -88.851865 
L 412.819261 -90.387805 
L 413.615499 -91.432558 
L 413.615499 -140.510733 
L 413.615499 -140.510733 
L 412.819261 -139.418909 
L 412.023024 -137.903469 
L 411.226786 -136.009917 
L 410.430549 -133.940293 
L 409.634311 -131.988424 
L 408.838074 -130.437631 
L 408.041836 -129.457376 
L 407.245599 -129.041028 
L 406.449361 -129.01154 
L 405.653124 -129.093096 
L 404.856886 -129.015634 
L 404.060649 -128.608957 
L 403.264411 -127.851964 
L 402.468174 -126.864314 
L 401.671936 -125.850078 
L 400.875699 -125.017787 
L 400.079461 -124.506745 
L 399.283223 -124.345714 
L 398.486986 -124.458273 
L 397.690748 -124.711803 
L 396.894511 -124.988135 
L 396.098273 -125.241885 
L 395.302036 -125.517237 
L 394.505798 -125.914559 
L 393.709561 -126.528153 
L 392.913323 -127.386277 
L 392.117086 -128.424545 
L 391.320848 -129.501395 
L 390.524611 -130.444703 
L 389.728373 -131.108267 
L 388.932136 -131.416965 
L 388.135898 -131.385943 
L 387.339661 -131.108713 
L 386.543423 -130.720422 
L 385.747186 -130.349541 
L 384.950948 -130.074793 
L 384.15471 -129.901247 
L 383.358473 -129.762979 
L 382.562235 -129.552369 
L 381.765998 -129.167868 
L 380.96976 -128.563988 
L 380.173523 -127.784921 
L 379.377285 -126.965661 
L 378.581048 -126.298406 
L 377.78481 -125.975345 
L 376.988573 -126.126578 
L 376.192335 -126.771708 
L 375.396098 -127.80035 
L 374.59986 -128.991983 
L 373.803623 -130.072826 
L 373.007385 -130.795006 
L 372.211148 -131.010159 
L 371.41491 -130.710841 
L 370.618673 -130.027 
L 369.822435 -129.182073 
L 369.026198 -128.423327 
L 368.22996 -127.945481 
L 367.433722 -127.826245 
L 366.637485 -127.998148 
L 365.841247 -128.272239 
L 365.04501 -128.40907 
L 364.248772 -128.209523 
L 363.452535 -127.589158 
L 362.656297 -126.610218 
L 361.86006 -125.463147 
L 361.063822 -124.409446 
L 360.267585 -123.702139 
L 359.471347 -123.506522 
L 358.67511 -123.843842 
L 357.878872 -124.575299 
L 357.082635 -125.432081 
L 356.286397 -126.084183 
L 355.49016 -126.231779 
L 354.693922 -125.695847 
L 353.897685 -124.481507 
L 353.101447 -122.789486 
L 352.30521 -120.964485 
L 351.508972 -119.391799 
L 350.712734 -118.375256 
L 349.916497 -118.038672 
L 349.120259 -118.287353 
L 348.324022 -118.84052 
L 347.527784 -119.32362 
L 346.731547 -119.386883 
L 345.935309 -118.81031 
L 345.139072 -117.564187 
L 344.342834 -115.812062 
L 343.546597 -113.860305 
L 342.750359 -112.068913 
L 341.954122 -110.747281 
L 341.157884 -110.064703 
L 340.361647 -110.004408 
L 339.565409 -110.374553 
L 338.769172 -110.86781 
L 337.972934 -111.146396 
L 337.176697 -110.927604 
L 336.380459 -110.049281 
L 335.584221 -108.5018 
L 334.787984 -106.421758 
L 333.991746 -104.055984 
L 333.195509 -101.712619 
L 332.399271 -99.710576 
L 331.603034 -98.325974 
L 330.806796 -97.732816 
L 330.010559 -97.949437 
L 329.214321 -98.818213 
L 328.418084 -100.036509 
L 327.621846 -101.23154 
L 326.825609 -102.05313 
L 326.029371 -102.260253 
L 325.233134 -101.786509 
L 324.436896 -100.769255 
L 323.640659 -99.521571 
L 322.844421 -98.439506 
L 322.048184 -97.871014 
L 321.251946 -98.001047 
L 320.455709 -98.798623 
L 319.659471 -100.035244 
L 318.863233 -101.356625 
L 318.066996 -102.385426 
L 317.270758 -102.834912 
L 316.474521 -102.605184 
L 315.678283 -101.820903 
L 314.882046 -100.783245 
L 314.085808 -99.84982 
L 313.289571 -99.296358 
L 312.493333 -99.221875 
L 311.697096 -99.532728 
L 310.900858 -100.001793 
L 310.104621 -100.373653 
L 309.308383 -100.475931 
L 308.512146 -100.299191 
L 307.715908 -100.018595 
L 306.919671 -99.949658 
L 306.123433 -100.452587 
L 305.327196 -101.816861 
L 304.530958 -104.16104 
L 303.73472 -107.380034 
L 302.938483 -111.156094 
L 302.142245 -115.032804 
L 301.346008 -118.529549 
L 300.54977 -121.259081 
L 299.753533 -123.011007 
L 298.957295 -123.779688 
L 298.161058 -123.735901 
L 297.36482 -123.160672 
L 296.568583 -122.367882 
L 295.772345 -121.639683 
L 294.976108 -121.185739 
L 294.17987 -121.123709 
L 293.383633 -121.474665 
L 292.587395 -122.172249 
L 291.791158 -123.085829 
L 290.99492 -124.053395 
L 290.198683 -124.91415 
L 289.402445 -125.533581 
L 288.606208 -125.820621 
L 287.80997 -125.738271 
L 287.013732 -125.303138 
L 286.217495 -124.568532 
L 285.421257 -123.596676 
L 284.62502 -122.4361 
L 283.828782 -121.118606 
L 283.032545 -119.672818 
L 282.236307 -118.138434 
L 281.44007 -116.569976 
L 280.643832 -115.031868 
L 279.847595 -113.592169 
L 279.051357 -112.316349 
L 278.25512 -111.259156 
L 277.458882 -110.45694 
L 276.662645 -109.926888 
L 275.866407 -109.6729 
L 275.07017 -109.687842 
L 274.273932 -109.944676 
L 273.477695 -110.383806 
L 272.681457 -110.911943 
L 271.88522 -111.420391 
L 271.088982 -111.810372 
L 270.292744 -112.012091 
L 269.496507 -111.995898 
L 268.700269 -111.780443 
L 267.904032 -111.433836 
L 267.107794 -111.055436 
L 266.311557 -110.73617 
L 265.515319 -110.513125 
L 264.719082 -110.344479 
L 263.922844 -110.117463 
L 263.126607 -109.682921 
L 262.330369 -108.904183 
L 261.534132 -107.711357 
L 260.737894 -106.148792 
L 259.941657 -104.395577 
L 259.145419 -102.739081 
L 258.349182 -101.503255 
L 257.552944 -100.956453 
L 256.756707 -101.231107 
L 255.960469 -102.278199 
L 255.164231 -103.867617 
L 254.367994 -105.637874 
L 253.571756 -107.187973 
L 252.775519 -108.187044 
L 251.979281 -108.465021 
L 251.183044 -108.052434 
L 250.386806 -107.160209 
L 249.590569 -106.112673 
L 248.794331 -105.257591 
L 247.998094 -104.877092 
L 247.201856 -105.121196 
L 246.405619 -105.97817 
L 245.609381 -107.286703 
L 244.813144 -108.780537 
L 244.016906 -110.148816 
L 243.220669 -111.098434 
L 242.424431 -111.412265 
L 241.628194 -110.997781 
L 240.831956 -109.91719 
L 240.035719 -108.382596 
L 239.239481 -106.71425 
L 238.443243 -105.275915 
L 237.647006 -104.409815 
L 236.850768 -104.38519 
L 236.054531 -105.360145 
L 235.258293 -107.352826 
L 234.462056 -110.226114 
L 233.665818 -113.700277 
L 232.869581 -117.404446 
L 232.073343 -120.958803 
L 231.277106 -124.059701 
L 230.480868 -126.537363 
L 229.684631 -128.371192 
L 228.888393 -129.666613 
L 228.092156 -130.608789 
L 227.295918 -131.409395 
L 226.499681 -132.25881 
L 225.703443 -133.289391 
L 224.907206 -134.551555 
L 224.110968 -136.00531 
L 223.31473 -137.533905 
L 222.518493 -138.983828 
L 221.722255 -140.221325 
L 220.926018 -141.181584 
L 220.12978 -141.887078 
L 219.333543 -142.430176 
L 218.537305 -142.935898 
L 217.741068 -143.523727 
L 216.94483 -144.272791 
L 216.148593 -145.186103 
L 215.352355 -146.162058 
L 214.556118 -146.995607 
L 213.75988 -147.428695 
L 212.963643 -147.240366 
L 212.167405 -146.339077 
L 211.371168 -144.814634 
L 210.57493 -142.928598 
L 209.778693 -141.050336 
L 208.982455 -139.561433 
L 208.186218 -138.75293 
L 207.38998 -138.738177 
L 206.593742 -139.407125 
L 205.797505 -140.44312 
L 205.001267 -141.405215 
L 204.20503 -141.853641 
L 203.408792 -141.478418 
L 202.612555 -140.190908 
L 201.816317 -138.151124 
L 201.02008 -135.723888 
L 200.223842 -133.376499 
L 199.427605 -131.546287 
L 198.631367 -130.517955 
L 197.83513 -130.351706 
L 197.038892 -130.887504 
L 196.242655 -131.819956 
L 195.446417 -132.807668 
L 194.65018 -133.572946 
L 193.853942 -133.96356 
L 193.057705 -133.973029 
L 192.261467 -133.728159 
L 191.46523 -133.44733 
L 190.668992 -133.370902 
L 189.872754 -133.67786 
L 189.076517 -134.418138 
L 188.280279 -135.48769 
L 187.484042 -136.654941 
L 186.687804 -137.627411 
L 185.891567 -138.137657 
L 185.095329 -138.025649 
L 184.299092 -137.294639 
L 183.502854 -136.121498 
L 182.706617 -134.819128 
L 181.910379 -133.764486 
L 181.114142 -133.312405 
L 180.317904 -133.708096 
L 179.521667 -135.011704 
L 178.725429 -137.059628 
L 177.929192 -139.4907 
L 177.132954 -141.840385 
L 176.336717 -143.668163 
L 175.540479 -144.665616 
L 174.744241 -144.712115 
L 173.948004 -143.880042 
L 173.151766 -142.407983 
L 172.355529 -140.648052 
L 171.559291 -138.983079 
L 170.763054 -137.724074 
L 169.966816 -137.024324 
L 169.170579 -136.846897 
L 168.374341 -136.996829 
L 167.578104 -137.195727 
L 166.781866 -137.162771 
L 165.985629 -136.676702 
L 165.189391 -135.612116 
L 164.393154 -133.953804 
L 163.596916 -131.79298 
L 162.800679 -129.303612 
L 162.004441 -126.700649 
L 161.208204 -124.19063 
L 160.411966 -121.931388 
L 159.615729 -120.014692 
L 158.819491 -118.474398 
L 158.023253 -117.30991 
L 157.227016 -116.509901 
L 156.430778 -116.063321 
L 155.634541 -115.953426 
L 154.838303 -116.138123 
L 154.042066 -116.526761 
L 153.245828 -116.967283 
L 152.449591 -117.257204 
L 151.653353 -117.183178 
L 150.857116 -116.584407 
L 150.060878 -115.419836 
L 149.264641 -113.812955 
L 148.468403 -112.050081 
L 147.672166 -110.521976 
L 146.875928 -109.620529 
L 146.079691 -109.621001 
L 145.283453 -110.591941 
L 144.487216 -112.362753 
L 143.690978 -114.567454 
L 142.89474 -116.755993 
L 142.098503 -118.538165 
L 141.302265 -119.706392 
L 140.506028 -120.288041 
L 139.70979 -120.507514 
L 138.913553 -120.679715 
L 138.117315 -121.081706 
L 137.321078 -121.850697 
L 136.52484 -122.938892 
L 135.728603 -124.135457 
L 134.932365 -125.146503 
L 134.136128 -125.706017 
L 133.33989 -125.678701 
L 132.543653 -125.117614 
L 131.747415 -124.256946 
L 130.951178 -123.442394 
L 130.15494 -123.022112 
L 129.358703 -123.233974 
L 128.562465 -124.127877 
L 127.766228 -125.549824 
L 126.96999 -127.190056 
L 126.173752 -128.672716 
L 125.377515 -129.652986 
L 124.581277 -129.896811 
L 123.78504 -129.33219 
L 122.988802 -128.066681 
L 122.192565 -126.364285 
L 121.396327 -124.580989 
L 120.60009 -123.074193 
L 119.803852 -122.112749 
L 119.007615 -121.812044 
L 118.211377 -122.110619 
L 117.41514 -122.796043 
L 116.618902 -123.577161 
L 115.822665 -124.183026 
L 115.026427 -124.453954 
L 114.23019 -124.391669 
L 113.433952 -124.1546 
L 112.637715 -124.007261 
L 111.841477 -124.239789 
L 111.04524 -125.072733 
L 110.249002 -126.56729 
L 109.452764 -128.573334 
L 108.656527 -130.744965 
L 107.860289 -132.626229 
L 107.064052 -133.779665 
L 106.267814 -133.91218 
L 105.471577 -132.966498 
L 104.675339 -131.156648 
L 103.879102 -128.931131 
L 103.082864 -126.858615 
L 102.286627 -125.46398 
L 101.490389 -125.076601 
L 100.694152 -125.751864 
L 99.897914 -127.282988 
L 99.101677 -129.279089 
L 98.305439 -131.270894 
L 97.509202 -132.817733 
L 96.712964 -133.603029 
L 95.916727 -133.50273 
L 95.120489 -132.602291 
L 94.324251 -131.145952 
L 93.528014 -129.438067 
L 92.731776 -127.74356 
L 91.935539 -126.231114 
L 91.139301 -124.966122 
L 90.343064 -123.930756 
L 89.546826 -123.048799 
L 88.750589 -122.209669 
L 87.954351 -121.300501 
L 87.158114 -120.248907 
L 86.361876 -119.065742 
L 85.565639 -117.86299 
L 84.769401 -116.830653 
L 83.973164 -116.179452 
L 83.176926 -116.070784 
L 82.380689 -116.554063 
L 81.584451 -117.526037 
L 80.788214 -118.732478 
L 79.991976 -119.827929 
L 79.195739 -120.485028 
L 78.399501 -120.510178 
L 77.603263 -119.910758 
L 76.807026 -118.884136 
L 76.010788 -117.741711 
L 75.214551 -116.805059 
L 74.418313 -116.309661 
L 73.622076 -116.336063 
L 72.825838 -116.789225 
L 72.029601 -117.440901 
L 71.233363 -118.023153 
L 70.437126 -118.332631 
L 69.640888 -118.302128 
L 68.844651 -118.0175 
L 68.048413 -117.68116 
L 67.252176 -117.533703 
L 66.455938 -117.755909 
L 65.659701 -118.387922 
L 64.863463 -119.307472 
L 64.067226 -120.285379 
L 63.270988 -121.092825 
L 62.47475 -121.603458 
L 61.678513 -121.837417 
L 60.882275 -121.930173 
L 60.086038 -122.055904 
L 59.2898 -122.358846 
L 58.493563 -122.924175 
L 57.697325 -123.783502 
L 56.901088 -124.934525 
L 56.10485 -126.356039 
L 55.308613 -128.011735 
L 54.512375 -129.849589 
L 53.716138 -131.805438 
L 52.9199 -133.803908 
L 52.123663 -135.748462 
L 51.327425 -137.509684 
L 50.531188 -138.93152 
L 49.73495 -139.865023 
L 48.938713 -140.223135 
L 48.142475 -140.03538 
L 47.346238 -139.475821 
L 46.55 -138.839825 
z
" style="stroke: #377eb8; stroke-opacity: 0.3"/>
    </defs>
    <g clip-path="url(#pb83ea55141)">
     <use xlink:href="#m5ab2e7e205" x="0" y="360" style="fill: #377eb8; fill-opacity: 0.3; stroke: #377eb8; stroke-opacity: 0.3"/>
    </g>
   </g>
   <g id="patch_3">
    <path d="M 229.843878 318.2 
L 229.843878 71.241125 
L 331.762281 71.241125 
L 331.762281 318.2 
z
" clip-path="url(#pb83ea55141)" style="fill: #808080; opacity: 0.3"/>
   </g>
   <g id="matplotlib.axis_1">
    <g id="xtick_1">
     <g id="line2d_1">
      <defs>
       <path id="m085c9dc413" d="M 0 0 
L 0 3.5 
" style="stroke: #000000; stroke-width: 0.8"/>
      </defs>
      <g>
       <use xlink:href="#m085c9dc413" x="87.158114" y="318.2" style="stroke: #000000; stroke-width: 0.8"/>
      </g>
     </g>
     <g id="text_1">
      <!-- 0.0 -->
      <g transform="translate(79.206551 332.798437)scale(0.1 -0.1)">
       <defs>
        <path id="DejaVuSans-30" d="M 2034 4250 
Q 1547 4250 1301 3770 
Q 1056 3291 1056 2328 
Q 1056 1369 1301 889 
Q 1547 409 2034 409 
Q 2525 409 2770 889 
Q 3016 1369 3016 2328 
Q 3016 3291 2770 3770 
Q 2525 4250 2034 4250 
z
M 2034 4750 
Q 2819 4750 3233 4129 
Q 3647 3509 3647 2328 
Q 3647 1150 3233 529 
Q 2819 -91 2034 -91 
Q 1250 -91 836 529 
Q 422 1150 422 2328 
Q 422 3509 836 4129 
Q 1250 4750 2034 4750 
z
" transform="scale(0.015625)"/>
        <path id="DejaVuSans-2e" d="M 684 794 
L 1344 794 
L 1344 0 
L 684 0 
L 684 794 
z
" transform="scale(0.015625)"/>
       </defs>
       <use xlink:href="#DejaVuSans-30"/>
       <use xlink:href="#DejaVuSans-2e" x="63.623047"/>
       <use xlink:href="#DejaVuSans-30" x="95.410156"/>
      </g>
     </g>
    </g>
    <g id="xtick_2">
     <g id="line2d_2">
      <g>
       <use xlink:href="#m085c9dc413" x="168.692836" y="318.2" style="stroke: #000000; stroke-width: 0.8"/>
      </g>
     </g>
     <g id="text_2">
      <!-- 0.2 -->
      <g transform="translate(160.741274 332.798437)scale(0.1 -0.1)">
       <defs>
        <path id="DejaVuSans-32" d="M 1228 531 
L 3431 531 
L 3431 0 
L 469 0 
L 469 531 
Q 828 903 1448 1529 
Q 2069 2156 2228 2338 
Q 2531 2678 2651 2914 
Q 2772 3150 2772 3378 
Q 2772 3750 2511 3984 
Q 2250 4219 1831 4219 
Q 1534 4219 1204 4116 
Q 875 4013 500 3803 
L 500 4441 
Q 881 4594 1212 4672 
Q 1544 4750 1819 4750 
Q 2544 4750 2975 4387 
Q 3406 4025 3406 3419 
Q 3406 3131 3298 2873 
Q 3191 2616 2906 2266 
Q 2828 2175 2409 1742 
Q 1991 1309 1228 531 
z
" transform="scale(0.015625)"/>
       </defs>
       <use xlink:href="#DejaVuSans-30"/>
       <use xlink:href="#DejaVuSans-2e" x="63.623047"/>
       <use xlink:href="#DejaVuSans-32" x="95.410156"/>
      </g>
     </g>
    </g>
    <g id="xtick_3">
     <g id="line2d_3">
      <g>
       <use xlink:href="#m085c9dc413" x="250.227559" y="318.2" style="stroke: #000000; stroke-width: 0.8"/>
      </g>
     </g>
     <g id="text_3">
      <!-- 0.4 -->
      <g transform="translate(242.275996 332.798437)scale(0.1 -0.1)">
       <defs>
        <path id="DejaVuSans-34" d="M 2419 4116 
L 825 1625 
L 2419 1625 
L 2419 4116 
z
M 2253 4666 
L 3047 4666 
L 3047 1625 
L 3713 1625 
L 3713 1100 
L 3047 1100 
L 3047 0 
L 2419 0 
L 2419 1100 
L 313 1100 
L 313 1709 
L 2253 4666 
z
" transform="scale(0.015625)"/>
       </defs>
       <use xlink:href="#DejaVuSans-30"/>
       <use xlink:href="#DejaVuSans-2e" x="63.623047"/>
       <use xlink:href="#DejaVuSans-34" x="95.410156"/>
      </g>
     </g>
    </g>
    <g id="xtick_4">
     <g id="line2d_4">
      <g>
       <use xlink:href="#m085c9dc413" x="331.762281" y="318.2" style="stroke: #000000; stroke-width: 0.8"/>
      </g>
     </g>
     <g id="text_4">
      <!-- 0.6 -->
      <g transform="translate(323.810719 332.798437)scale(0.1 -0.1)">
       <defs>
        <path id="DejaVuSans-36" d="M 2113 2584 
Q 1688 2584 1439 2293 
Q 1191 2003 1191 1497 
Q 1191 994 1439 701 
Q 1688 409 2113 409 
Q 2538 409 2786 701 
Q 3034 994 3034 1497 
Q 3034 2003 2786 2293 
Q 2538 2584 2113 2584 
z
M 3366 4563 
L 3366 3988 
Q 3128 4100 2886 4159 
Q 2644 4219 2406 4219 
Q 1781 4219 1451 3797 
Q 1122 3375 1075 2522 
Q 1259 2794 1537 2939 
Q 1816 3084 2150 3084 
Q 2853 3084 3261 2657 
Q 3669 2231 3669 1497 
Q 3669 778 3244 343 
Q 2819 -91 2113 -91 
Q 1303 -91 875 529 
Q 447 1150 447 2328 
Q 447 3434 972 4092 
Q 1497 4750 2381 4750 
Q 2619 4750 2861 4703 
Q 3103 4656 3366 4563 
z
" transform="scale(0.015625)"/>
       </defs>
       <use xlink:href="#DejaVuSans-30"/>
       <use xlink:href="#DejaVuSans-2e" x="63.623047"/>
       <use xlink:href="#DejaVuSans-36" x="95.410156"/>
      </g>
     </g>
    </g>
    <g id="xtick_5">
     <g id="line2d_5">
      <g>
       <use xlink:href="#m085c9dc413" x="413.297004" y="318.2" style="stroke: #000000; stroke-width: 0.8"/>
      </g>
     </g>
     <g id="text_5">
      <!-- 0.8 -->
      <g transform="translate(405.345441 332.798437)scale(0.1 -0.1)">
       <defs>
        <path id="DejaVuSans-38" d="M 2034 2216 
Q 1584 2216 1326 1975 
Q 1069 1734 1069 1313 
Q 1069 891 1326 650 
Q 1584 409 2034 409 
Q 2484 409 2743 651 
Q 3003 894 3003 1313 
Q 3003 1734 2745 1975 
Q 2488 2216 2034 2216 
z
M 1403 2484 
Q 997 2584 770 2862 
Q 544 3141 544 3541 
Q 544 4100 942 4425 
Q 1341 4750 2034 4750 
Q 2731 4750 3128 4425 
Q 3525 4100 3525 3541 
Q 3525 3141 3298 2862 
Q 3072 2584 2669 2484 
Q 3125 2378 3379 2068 
Q 3634 1759 3634 1313 
Q 3634 634 3220 271 
Q 2806 -91 2034 -91 
Q 1263 -91 848 271 
Q 434 634 434 1313 
Q 434 1759 690 2068 
Q 947 2378 1403 2484 
z
M 1172 3481 
Q 1172 3119 1398 2916 
Q 1625 2713 2034 2713 
Q 2441 2713 2670 2916 
Q 2900 3119 2900 3481 
Q 2900 3844 2670 4047 
Q 2441 4250 2034 4250 
Q 1625 4250 1398 4047 
Q 1172 3844 1172 3481 
z
" transform="scale(0.015625)"/>
       </defs>
       <use xlink:href="#DejaVuSans-30"/>
       <use xlink:href="#DejaVuSans-2e" x="63.623047"/>
       <use xlink:href="#DejaVuSans-38" x="95.410156"/>
      </g>
     </g>
    </g>
    <g id="text_6">
     <!-- seconds -->
     <g transform="translate(209.645249 346.476562)scale(0.1 -0.1)">
      <defs>
       <path id="DejaVuSans-73" d="M 2834 3397 
L 2834 2853 
Q 2591 2978 2328 3040 
Q 2066 3103 1784 3103 
Q 1356 3103 1142 2972 
Q 928 2841 928 2578 
Q 928 2378 1081 2264 
Q 1234 2150 1697 2047 
L 1894 2003 
Q 2506 1872 2764 1633 
Q 3022 1394 3022 966 
Q 3022 478 2636 193 
Q 2250 -91 1575 -91 
Q 1294 -91 989 -36 
Q 684 19 347 128 
L 347 722 
Q 666 556 975 473 
Q 1284 391 1588 391 
Q 1994 391 2212 530 
Q 2431 669 2431 922 
Q 2431 1156 2273 1281 
Q 2116 1406 1581 1522 
L 1381 1569 
Q 847 1681 609 1914 
Q 372 2147 372 2553 
Q 372 3047 722 3315 
Q 1072 3584 1716 3584 
Q 2034 3584 2315 3537 
Q 2597 3491 2834 3397 
z
" transform="scale(0.015625)"/>
       <path id="DejaVuSans-65" d="M 3597 1894 
L 3597 1613 
L 953 1613 
Q 991 1019 1311 708 
Q 1631 397 2203 397 
Q 2534 397 2845 478 
Q 3156 559 3463 722 
L 3463 178 
Q 3153 47 2828 -22 
Q 2503 -91 2169 -91 
Q 1331 -91 842 396 
Q 353 884 353 1716 
Q 353 2575 817 3079 
Q 1281 3584 2069 3584 
Q 2775 3584 3186 3129 
Q 3597 2675 3597 1894 
z
M 3022 2063 
Q 3016 2534 2758 2815 
Q 2500 3097 2075 3097 
Q 1594 3097 1305 2825 
Q 1016 2553 972 2059 
L 3022 2063 
z
" transform="scale(0.015625)"/>
       <path id="DejaVuSans-63" d="M 3122 3366 
L 3122 2828 
Q 2878 2963 2633 3030 
Q 2388 3097 2138 3097 
Q 1578 3097 1268 2742 
Q 959 2388 959 1747 
Q 959 1106 1268 751 
Q 1578 397 2138 397 
Q 2388 397 2633 464 
Q 2878 531 3122 666 
L 3122 134 
Q 2881 22 2623 -34 
Q 2366 -91 2075 -91 
Q 1284 -91 818 406 
Q 353 903 353 1747 
Q 353 2603 823 3093 
Q 1294 3584 2113 3584 
Q 2378 3584 2631 3529 
Q 2884 3475 3122 3366 
z
" transform="scale(0.015625)"/>
       <path id="DejaVuSans-6f" d="M 1959 3097 
Q 1497 3097 1228 2736 
Q 959 2375 959 1747 
Q 959 1119 1226 758 
Q 1494 397 1959 397 
Q 2419 397 2687 759 
Q 2956 1122 2956 1747 
Q 2956 2369 2687 2733 
Q 2419 3097 1959 3097 
z
M 1959 3584 
Q 2709 3584 3137 3096 
Q 3566 2609 3566 1747 
Q 3566 888 3137 398 
Q 2709 -91 1959 -91 
Q 1206 -91 779 398 
Q 353 888 353 1747 
Q 353 2609 779 3096 
Q 1206 3584 1959 3584 
z
" transform="scale(0.015625)"/>
       <path id="DejaVuSans-6e" d="M 3513 2113 
L 3513 0 
L 2938 0 
L 2938 2094 
Q 2938 2591 2744 2837 
Q 2550 3084 2163 3084 
Q 1697 3084 1428 2787 
Q 1159 2491 1159 1978 
L 1159 0 
L 581 0 
L 581 3500 
L 1159 3500 
L 1159 2956 
Q 1366 3272 1645 3428 
Q 1925 3584 2291 3584 
Q 2894 3584 3203 3211 
Q 3513 2838 3513 2113 
z
" transform="scale(0.015625)"/>
       <path id="DejaVuSans-64" d="M 2906 2969 
L 2906 4863 
L 3481 4863 
L 3481 0 
L 2906 0 
L 2906 525 
Q 2725 213 2448 61 
Q 2172 -91 1784 -91 
Q 1150 -91 751 415 
Q 353 922 353 1747 
Q 353 2572 751 3078 
Q 1150 3584 1784 3584 
Q 2172 3584 2448 3432 
Q 2725 3281 2906 2969 
z
M 947 1747 
Q 947 1113 1208 752 
Q 1469 391 1925 391 
Q 2381 391 2643 752 
Q 2906 1113 2906 1747 
Q 2906 2381 2643 2742 
Q 2381 3103 1925 3103 
Q 1469 3103 1208 2742 
Q 947 2381 947 1747 
z
" transform="scale(0.015625)"/>
      </defs>
      <use xlink:href="#DejaVuSans-73"/>
      <use xlink:href="#DejaVuSans-65" x="52.099609"/>
      <use xlink:href="#DejaVuSans-63" x="113.623047"/>
      <use xlink:href="#DejaVuSans-6f" x="168.603516"/>
      <use xlink:href="#DejaVuSans-6e" x="229.785156"/>
      <use xlink:href="#DejaVuSans-64" x="293.164062"/>
      <use xlink:href="#DejaVuSans-73" x="356.640625"/>
     </g>
    </g>
   </g>
   <g id="matplotlib.axis_2">
    <g id="ytick_1">
     <g id="line2d_6">
      <defs>
       <path id="maaef0a4388" d="M 0 0 
L -3.5 0 
" style="stroke: #000000; stroke-width: 0.8"/>
      </defs>
      <g>
       <use xlink:href="#maaef0a4388" x="46.55" y="314.466953" style="stroke: #000000; stroke-width: 0.8"/>
      </g>
     </g>
     <g id="text_7">
      <!-- 2 -->
      <g transform="translate(24.807812 318.266172)scale(0.1 -0.1)">
       <defs>
        <path id="DejaVuSans-2212" d="M 678 2272 
L 4684 2272 
L 4684 1741 
L 678 1741 
L 678 2272 
z
" transform="scale(0.015625)"/>
       </defs>
       <use xlink:href="#DejaVuSans-2212"/>
       <use xlink:href="#DejaVuSans-32" x="83.789062"/>
      </g>
     </g>
    </g>
    <g id="ytick_2">
     <g id="line2d_7">
      <g>
       <use xlink:href="#maaef0a4388" x="46.55" y="280.406808" style="stroke: #000000; stroke-width: 0.8"/>
      </g>
     </g>
     <g id="text_8">
      <!-- 1 -->
      <g transform="translate(24.807812 284.206026)scale(0.1 -0.1)">
       <defs>
        <path id="DejaVuSans-31" d="M 794 531 
L 1825 531 
L 1825 4091 
L 703 3866 
L 703 4441 
L 1819 4666 
L 2450 4666 
L 2450 531 
L 3481 531 
L 3481 0 
L 794 0 
L 794 531 
z
" transform="scale(0.015625)"/>
       </defs>
       <use xlink:href="#DejaVuSans-2212"/>
       <use xlink:href="#DejaVuSans-31" x="83.789062"/>
      </g>
     </g>
    </g>
    <g id="ytick_3">
     <g id="line2d_8">
      <g>
       <use xlink:href="#maaef0a4388" x="46.55" y="246.346662" style="stroke: #000000; stroke-width: 0.8"/>
      </g>
     </g>
     <g id="text_9">
      <!-- 0 -->
      <g transform="translate(33.1875 250.145881)scale(0.1 -0.1)">
       <use xlink:href="#DejaVuSans-30"/>
      </g>
     </g>
    </g>
    <g id="ytick_4">
     <g id="line2d_9">
      <g>
       <use xlink:href="#maaef0a4388" x="46.55" y="212.286517" style="stroke: #000000; stroke-width: 0.8"/>
      </g>
     </g>
     <g id="text_10">
      <!-- 1 -->
      <g transform="translate(33.1875 216.085735)scale(0.1 -0.1)">
       <use xlink:href="#DejaVuSans-31"/>
      </g>
     </g>
    </g>
    <g id="ytick_5">
     <g id="line2d_10">
      <g>
       <use xlink:href="#maaef0a4388" x="46.55" y="178.226371" style="stroke: #000000; stroke-width: 0.8"/>
      </g>
     </g>
     <g id="text_11">
      <!-- 2 -->
      <g transform="translate(33.1875 182.02559)scale(0.1 -0.1)">
       <use xlink:href="#DejaVuSans-32"/>
      </g>
     </g>
    </g>
    <g id="ytick_6">
     <g id="line2d_11">
      <g>
       <use xlink:href="#maaef0a4388" x="46.55" y="144.166226" style="stroke: #000000; stroke-width: 0.8"/>
      </g>
     </g>
     <g id="text_12">
      <!-- 3 -->
      <g transform="translate(33.1875 147.965444)scale(0.1 -0.1)">
       <defs>
        <path id="DejaVuSans-33" d="M 2597 2516 
Q 3050 2419 3304 2112 
Q 3559 1806 3559 1356 
Q 3559 666 3084 287 
Q 2609 -91 1734 -91 
Q 1441 -91 1130 -33 
Q 819 25 488 141 
L 488 750 
Q 750 597 1062 519 
Q 1375 441 1716 441 
Q 2309 441 2620 675 
Q 2931 909 2931 1356 
Q 2931 1769 2642 2001 
Q 2353 2234 1838 2234 
L 1294 2234 
L 1294 2753 
L 1863 2753 
Q 2328 2753 2575 2939 
Q 2822 3125 2822 3475 
Q 2822 3834 2567 4026 
Q 2313 4219 1838 4219 
Q 1578 4219 1281 4162 
Q 984 4106 628 3988 
L 628 4550 
Q 988 4650 1302 4700 
Q 1616 4750 1894 4750 
Q 2613 4750 3031 4423 
Q 3450 4097 3450 3541 
Q 3450 3153 3228 2886 
Q 3006 2619 2597 2516 
z
" transform="scale(0.015625)"/>
       </defs>
       <use xlink:href="#DejaVuSans-33"/>
      </g>
     </g>
    </g>
    <g id="ytick_7">
     <g id="line2d_12">
      <g>
       <use xlink:href="#maaef0a4388" x="46.55" y="110.10608" style="stroke: #000000; stroke-width: 0.8"/>
      </g>
     </g>
     <g id="text_13">
      <!-- 4 -->
      <g transform="translate(33.1875 113.905299)scale(0.1 -0.1)">
       <use xlink:href="#DejaVuSans-34"/>
      </g>
     </g>
    </g>
    <g id="ytick_8">
     <g id="line2d_13">
      <g>
       <use xlink:href="#maaef0a4388" x="46.55" y="76.045935" style="stroke: #000000; stroke-width: 0.8"/>
      </g>
     </g>
     <g id="text_14">
      <!-- 5 -->
      <g transform="translate(33.1875 79.845153)scale(0.1 -0.1)">
       <defs>
        <path id="DejaVuSans-35" d="M 691 4666 
L 3169 4666 
L 3169 4134 
L 1269 4134 
L 1269 2991 
Q 1406 3038 1543 3061 
Q 1681 3084 1819 3084 
Q 2600 3084 3056 2656 
Q 3513 2228 3513 1497 
Q 3513 744 3044 326 
Q 2575 -91 1722 -91 
Q 1428 -91 1123 -41 
Q 819 9 494 109 
L 494 744 
Q 775 591 1075 516 
Q 1375 441 1709 441 
Q 2250 441 2565 725 
Q 2881 1009 2881 1497 
Q 2881 1984 2565 2268 
Q 2250 2553 1709 2553 
Q 1456 2553 1204 2497 
Q 953 2441 691 2322 
L 691 4666 
z
" transform="scale(0.015625)"/>
       </defs>
       <use xlink:href="#DejaVuSans-35"/>
      </g>
     </g>
    </g>
    <g id="text_15">
     <!-- V -->
     <g transform="translate(18.728125 201.322125)rotate(-90)scale(0.1 -0.1)">
      <defs>
       <path id="DejaVuSans-b5" d="M 544 -1331 
L 544 3500 
L 1119 3500 
L 1119 1325 
Q 1119 872 1334 640 
Q 1550 409 1972 409 
Q 2434 409 2667 671 
Q 2900 934 2900 1459 
L 2900 3500 
L 3475 3500 
L 3475 806 
Q 3475 619 3529 530 
Q 3584 441 3700 441 
Q 3728 441 3778 458 
Q 3828 475 3916 513 
L 3916 50 
Q 3788 -22 3673 -56 
Q 3559 -91 3450 -91 
Q 3234 -91 3106 31 
Q 2978 153 2931 403 
Q 2775 156 2548 32 
Q 2322 -91 2016 -91 
Q 1697 -91 1473 31 
Q 1250 153 1119 397 
L 1119 -1331 
L 544 -1331 
z
" transform="scale(0.015625)"/>
       <path id="DejaVuSans-56" d="M 1831 0 
L 50 4666 
L 709 4666 
L 2188 738 
L 3669 4666 
L 4325 4666 
L 2547 0 
L 1831 0 
z
" transform="scale(0.015625)"/>
      </defs>
      <use xlink:href="#DejaVuSans-b5"/>
      <use xlink:href="#DejaVuSans-56" x="63.623047"/>
     </g>
    </g>
   </g>
   <g id="line2d_14">
    <path d="M 46.55 244.067836 
L 47.346238 245.302367 
L 48.142475 245.863223 
L 48.938713 245.425146 
L 49.73495 244.097982 
L 50.531188 242.405679 
L 51.327425 241.10711 
L 52.123663 240.920287 
L 52.9199 242.24943 
L 53.716138 245.015845 
L 55.308613 252.31874 
L 56.10485 255.111504 
L 56.901088 256.435804 
L 57.697325 256.156875 
L 58.493563 254.625789 
L 60.086038 250.58083 
L 60.882275 249.320521 
L 61.678513 248.866946 
L 63.270988 249.045325 
L 64.067226 248.652272 
L 64.863463 247.50415 
L 67.252176 242.127315 
L 68.048413 241.463378 
L 68.844651 241.94611 
L 69.640888 243.413951 
L 71.233363 247.261191 
L 72.029601 248.522548 
L 72.825838 248.931149 
L 73.622076 248.565251 
L 76.010788 246.193161 
L 76.807026 245.859926 
L 79.195739 245.497114 
L 81.584451 244.462215 
L 82.380689 244.408624 
L 83.973164 244.559147 
L 84.769401 244.150167 
L 85.565639 242.980236 
L 86.361876 240.946793 
L 88.750589 233.178182 
L 89.546826 232.062241 
L 90.343064 232.442104 
L 91.139301 234.254804 
L 93.528014 242.640038 
L 94.324251 244.113834 
L 95.120489 244.238833 
L 95.916727 243.076877 
L 96.712964 240.938619 
L 100.694152 227.756527 
L 101.490389 225.846854 
L 102.286627 224.382667 
L 103.082864 223.483254 
L 103.879102 223.240021 
L 104.675339 223.645618 
L 105.471577 224.542276 
L 106.267814 225.622599 
L 107.064052 226.491695 
L 107.860289 226.773783 
L 108.656527 226.226694 
L 109.452764 224.822994 
L 111.04524 220.44435 
L 111.841477 218.30732 
L 112.637715 216.752695 
L 113.433952 216.009921 
L 114.23019 216.08486 
L 115.026427 216.769447 
L 116.618902 218.527167 
L 117.41514 218.906699 
L 118.211377 218.708059 
L 119.007615 217.986344 
L 120.60009 215.96097 
L 121.396327 215.265318 
L 122.192565 215.054036 
L 122.988802 215.320701 
L 124.581277 216.427042 
L 125.377515 216.64638 
L 126.173752 216.318054 
L 126.96999 215.400647 
L 129.358703 211.379463 
L 130.15494 210.743095 
L 130.951178 210.840808 
L 131.747415 211.633288 
L 134.136128 215.457065 
L 134.932365 216.116203 
L 135.728603 216.124386 
L 136.52484 215.497484 
L 137.321078 214.388792 
L 138.913553 211.710181 
L 139.70979 210.628358 
L 140.506028 209.931074 
L 141.302265 209.643484 
L 142.098503 209.680537 
L 143.690978 210.050494 
L 144.487216 210.06723 
L 146.079691 209.745528 
L 146.875928 209.835574 
L 147.672166 210.531833 
L 148.468403 212.121592 
L 149.264641 214.71415 
L 150.857116 222.067154 
L 151.653353 225.871303 
L 152.449591 229.025112 
L 153.245828 231.161979 
L 154.042066 232.222576 
L 154.838303 232.47441 
L 155.634541 232.413016 
L 156.430778 232.576025 
L 157.227016 233.338339 
L 158.023253 234.766264 
L 159.615729 238.288585 
L 160.411966 239.302736 
L 161.208204 239.213141 
L 162.004441 237.892921 
L 162.800679 235.530049 
L 167.578104 217.44542 
L 168.374341 213.651881 
L 169.170579 209.071054 
L 172.355529 187.778109 
L 173.151766 183.709437 
L 173.948004 180.552262 
L 174.744241 178.144215 
L 180.317904 164.353526 
L 181.114142 162.957466 
L 181.910379 162.048743 
L 182.706617 161.611137 
L 183.502854 161.559341 
L 185.095329 162.085574 
L 185.891567 162.376247 
L 186.687804 162.516592 
L 187.484042 162.430853 
L 188.280279 162.117636 
L 189.872754 161.320801 
L 190.668992 161.351567 
L 191.46523 162.104771 
L 192.261467 163.863785 
L 193.057705 166.77169 
L 193.853942 170.767952 
L 197.83513 194.151374 
L 198.631367 197.010781 
L 199.427605 199.078007 
L 200.223842 200.515224 
L 201.02008 201.446691 
L 201.816317 201.874474 
L 202.612555 201.659671 
L 203.408792 200.582943 
L 204.20503 198.466072 
L 205.001267 195.308258 
L 207.38998 183.561005 
L 208.186218 181.09487 
L 208.982455 180.310245 
L 209.778693 181.30322 
L 210.57493 183.720843 
L 212.167405 189.723767 
L 212.963643 191.540638 
L 213.75988 191.733136 
L 214.556118 190.197766 
L 215.352355 187.289994 
L 216.94483 180.238828 
L 217.741068 177.594085 
L 218.537305 176.150335 
L 219.333543 175.90768 
L 220.12978 176.525957 
L 220.926018 177.465234 
L 221.722255 178.16884 
L 222.518493 178.226771 
L 223.31473 177.470914 
L 224.110968 175.981984 
L 226.499681 169.989397 
L 227.295918 168.443858 
L 228.092156 167.413366 
L 228.888393 166.971478 
L 229.684631 167.185196 
L 230.480868 168.143655 
L 231.277106 169.947593 
L 232.073343 172.661037 
L 232.869581 176.242586 
L 236.054531 192.851451 
L 236.850768 195.160933 
L 237.647006 196.024399 
L 238.443243 195.511899 
L 239.239481 193.988476 
L 240.831956 190.282473 
L 241.628194 189.278992 
L 242.424431 189.302731 
L 243.220669 190.299801 
L 244.813144 193.487524 
L 245.609381 194.443685 
L 246.405619 194.266563 
L 247.201856 192.76041 
L 247.998094 190.09997 
L 249.590569 183.553699 
L 250.386806 181.085935 
L 251.183044 179.900922 
L 251.979281 180.161507 
L 252.775519 181.637827 
L 254.367994 185.851963 
L 255.164231 187.191625 
L 255.960469 187.347038 
L 256.756707 186.221417 
L 257.552944 184.083781 
L 259.145419 179.052855 
L 259.941657 177.379077 
L 260.737894 176.779899 
L 261.534132 177.247544 
L 263.922844 180.770274 
L 264.719082 180.746108 
L 265.515319 179.486438 
L 266.311557 177.030237 
L 269.496507 164.045082 
L 270.292744 162.433588 
L 271.088982 161.849373 
L 271.88522 162.054352 
L 273.477695 163.255462 
L 274.273932 163.519029 
L 275.07017 163.298334 
L 275.866407 162.6203 
L 279.051357 158.891812 
L 281.44007 157.216123 
L 282.236307 156.411426 
L 283.032545 155.303534 
L 283.828782 153.866604 
L 285.421257 150.15082 
L 289.402445 139.50759 
L 290.99492 136.27968 
L 291.791158 135.051473 
L 292.587395 134.074366 
L 293.383633 133.340096 
L 294.17987 132.855466 
L 294.976108 132.644275 
L 295.772345 132.731193 
L 296.568583 133.109443 
L 298.957295 134.873121 
L 299.753533 134.992308 
L 300.54977 134.56228 
L 301.346008 133.560253 
L 303.73472 129.284271 
L 304.530958 128.516491 
L 305.327196 128.42038 
L 306.123433 128.901281 
L 307.715908 130.307356 
L 308.512146 130.485494 
L 309.308383 130.024832 
L 310.104621 129.001885 
L 311.697096 126.58568 
L 312.493333 125.975719 
L 313.289571 126.068356 
L 314.085808 126.780308 
L 315.678283 128.634467 
L 316.474521 128.902779 
L 317.270758 128.353548 
L 318.066996 127.01378 
L 320.455709 121.663201 
L 321.251946 120.752091 
L 322.048184 120.578358 
L 322.844421 120.991609 
L 324.436896 122.310882 
L 325.233134 122.605331 
L 326.029371 122.468176 
L 328.418084 121.095212 
L 329.214321 121.332483 
L 330.010559 122.366686 
L 330.806796 124.280183 
L 331.603034 126.982192 
L 333.991746 136.802441 
L 334.787984 139.348976 
L 335.584221 140.999647 
L 336.380459 141.64562 
L 337.176697 141.362585 
L 337.972934 140.389112 
L 339.565409 137.769292 
L 340.361647 136.81408 
L 341.157884 136.428637 
L 341.954122 136.730752 
L 342.750359 137.74955 
L 343.546597 139.458139 
L 344.342834 141.796036 
L 345.935309 147.912755 
L 347.527784 154.431937 
L 348.324022 156.949266 
L 349.120259 158.460788 
L 349.916497 158.742672 
L 350.712734 157.826396 
L 351.508972 156.039712 
L 352.30521 153.954551 
L 353.101447 152.24498 
L 353.897685 151.49534 
L 354.693922 152.023417 
L 355.49016 153.784406 
L 357.878872 161.854822 
L 358.67511 163.764589 
L 359.471347 164.956502 
L 361.063822 166.388034 
L 361.86006 167.476302 
L 362.656297 169.17345 
L 365.04501 176.035402 
L 365.841247 177.5 
L 366.637485 177.987656 
L 367.433722 177.483363 
L 368.22996 176.193572 
L 371.41491 169.284985 
L 372.211148 168.087619 
L 373.007385 167.278296 
L 373.803623 166.960561 
L 374.59986 167.254329 
L 375.396098 168.223454 
L 376.192335 169.788258 
L 377.78481 173.468181 
L 378.581048 174.704187 
L 379.377285 175.079612 
L 380.173523 174.587637 
L 381.765998 172.655797 
L 382.562235 172.498514 
L 383.358473 173.563913 
L 384.15471 175.89473 
L 385.747186 182.254283 
L 386.543423 184.631475 
L 387.339661 185.579261 
L 388.135898 184.996231 
L 389.728373 181.536332 
L 390.524611 180.534339 
L 391.320848 181.063085 
L 392.117086 183.296047 
L 394.505798 193.870497 
L 395.302036 195.652146 
L 396.098273 195.738487 
L 396.894511 194.45063 
L 397.690748 192.553367 
L 398.486986 190.963143 
L 399.283223 190.427685 
L 400.079461 191.298838 
L 400.875699 193.473925 
L 404.060649 205.652439 
L 404.856886 207.856804 
L 405.653124 209.643501 
L 406.449361 211.029078 
L 407.245599 211.872165 
L 408.041836 211.870541 
L 408.838074 210.67167 
L 409.634311 208.049742 
L 410.430549 204.068142 
L 412.819261 189.486859 
L 413.615499 186.282017 
L 413.615499 186.282017 
" clip-path="url(#pb83ea55141)" style="fill: none; stroke: #e41a1c; stroke-width: 1.5; stroke-linecap: square"/>
   </g>
   <g id="line2d_15">
    <path d="M 46.55 232.794325 
L 48.142475 231.118166 
L 48.938713 230.675406 
L 49.73495 230.793759 
L 50.531188 231.521738 
L 51.327425 232.773447 
L 52.9199 236.170619 
L 55.308613 241.469201 
L 56.901088 244.412591 
L 57.697325 245.526022 
L 58.493563 246.298552 
L 59.2898 246.703724 
L 60.086038 246.799225 
L 61.678513 246.702169 
L 62.47475 246.898195 
L 63.270988 247.423851 
L 64.863463 249.234534 
L 65.659701 250.142681 
L 66.455938 250.767236 
L 67.252176 250.995918 
L 68.048413 250.862429 
L 69.640888 250.256535 
L 70.437126 250.234128 
L 71.233363 250.562953 
L 73.622076 252.3593 
L 74.418313 252.434283 
L 75.214551 252.002375 
L 77.603263 249.329762 
L 78.399501 248.969607 
L 79.195739 249.236604 
L 79.991976 250.10209 
L 82.380689 253.798339 
L 83.176926 254.416726 
L 83.973164 254.461286 
L 84.769401 253.989669 
L 86.361876 252.224796 
L 87.954351 250.608808 
L 90.343064 248.997747 
L 91.139301 248.210103 
L 91.935539 247.098723 
L 93.528014 244.008605 
L 94.324251 242.36766 
L 95.120489 241.032826 
L 95.916727 240.303803 
L 96.712964 240.40233 
L 97.509202 241.395702 
L 98.305439 243.14901 
L 99.897914 247.45943 
L 100.694152 249.042254 
L 101.490389 249.678984 
L 102.286627 249.192022 
L 103.082864 247.685456 
L 105.471577 241.474816 
L 106.267814 240.598694 
L 107.064052 240.847803 
L 107.860289 242.144921 
L 109.452764 246.4496 
L 110.249002 248.530307 
L 111.04524 250.071297 
L 111.841477 250.939245 
L 112.637715 251.214746 
L 115.026427 251.093933 
L 115.822665 251.52234 
L 117.41514 253.15691 
L 118.211377 253.919797 
L 119.007615 254.281414 
L 119.803852 254.041776 
L 120.60009 253.141391 
L 121.396327 251.689563 
L 122.988802 248.27864 
L 123.78504 247.049339 
L 124.581277 246.549084 
L 125.377515 246.905088 
L 126.173752 248.043235 
L 128.562465 252.988489 
L 129.358703 253.889282 
L 130.15494 254.049396 
L 130.951178 253.551219 
L 132.543653 251.78528 
L 133.33989 251.261713 
L 134.136128 251.332575 
L 134.932365 252.03074 
L 137.321078 255.662607 
L 138.117315 256.449998 
L 138.913553 256.837912 
L 140.506028 257.222063 
L 141.302265 257.840498 
L 142.098503 259.061643 
L 142.89474 260.897275 
L 144.487216 265.394761 
L 145.283453 267.236516 
L 146.079691 268.298744 
L 146.875928 268.40411 
L 147.672166 267.608143 
L 148.468403 266.173414 
L 150.060878 262.931835 
L 150.857116 261.808905 
L 151.653353 261.248814 
L 152.449591 261.217851 
L 153.245828 261.556485 
L 154.838303 262.480317 
L 155.634541 262.700189 
L 156.430778 262.615177 
L 157.227016 262.184763 
L 158.023253 261.393578 
L 158.819491 260.230539 
L 159.615729 258.683887 
L 160.411966 256.753844 
L 162.004441 251.944845 
L 163.596916 246.807121 
L 164.393154 244.636895 
L 165.189391 242.998835 
L 165.985629 241.998722 
L 166.781866 241.620383 
L 167.578104 241.716497 
L 169.170579 242.262126 
L 169.966816 242.123001 
L 170.763054 241.434113 
L 171.559291 240.174021 
L 173.948004 235.245755 
L 174.744241 234.432263 
L 175.540479 234.542798 
L 176.336717 235.63855 
L 177.132954 237.559899 
L 178.725429 242.379574 
L 179.521667 244.374566 
L 180.317904 245.609965 
L 181.114142 245.94562 
L 181.910379 245.459958 
L 182.706617 244.417775 
L 184.299092 242.163862 
L 185.095329 241.626012 
L 185.891567 241.718075 
L 186.687804 242.403934 
L 189.076517 245.779906 
L 189.872754 246.471545 
L 190.668992 246.705079 
L 191.46523 246.542643 
L 193.057705 245.850661 
L 193.853942 245.817007 
L 194.65018 246.215603 
L 195.446417 247.036306 
L 197.038892 249.10009 
L 197.83513 249.675734 
L 198.631367 249.526411 
L 199.427605 248.506354 
L 200.223842 246.685853 
L 202.612555 239.901736 
L 203.408792 238.626336 
L 204.20503 238.273567 
L 205.001267 238.758015 
L 206.593742 240.855202 
L 207.38998 241.570778 
L 208.186218 241.589343 
L 208.982455 240.799916 
L 209.778693 239.326978 
L 211.371168 235.663071 
L 212.167405 234.238285 
L 212.963643 233.446834 
L 213.75988 233.349234 
L 214.556118 233.835788 
L 217.741068 237.195968 
L 220.926018 239.341247 
L 221.722255 240.313218 
L 223.31473 242.972559 
L 224.907206 245.876385 
L 226.499681 248.172136 
L 228.888393 250.936727 
L 229.684631 252.318512 
L 230.480868 254.242152 
L 231.277106 256.801613 
L 232.869581 263.57801 
L 234.462056 270.901329 
L 235.258293 273.885041 
L 236.054531 275.990679 
L 236.850768 277.042575 
L 237.647006 277.028756 
L 238.443243 276.10361 
L 239.239481 274.557715 
L 240.831956 271.102029 
L 241.628194 269.90546 
L 242.424431 269.391056 
L 243.220669 269.631643 
L 244.016906 270.545929 
L 246.405619 274.789007 
L 247.201856 275.669362 
L 247.998094 275.913847 
L 248.794331 275.511476 
L 249.590569 274.620008 
L 251.183044 272.602579 
L 251.979281 272.157564 
L 252.775519 272.402536 
L 253.571756 273.363232 
L 255.164231 276.613057 
L 255.960469 278.196326 
L 256.756707 279.26793 
L 257.552944 279.595219 
L 258.349182 279.120338 
L 259.145419 277.962319 
L 261.534132 273.087882 
L 262.330369 271.859498 
L 263.126607 271.03349 
L 263.922844 270.561966 
L 265.515319 270.178283 
L 267.107794 269.783044 
L 268.700269 269.231373 
L 269.496507 269.062401 
L 270.292744 269.065354 
L 271.088982 269.275549 
L 271.88522 269.68091 
L 275.07017 271.791167 
L 275.866407 271.982386 
L 276.662645 271.892505 
L 277.458882 271.488908 
L 278.25512 270.767522 
L 279.051357 269.752171 
L 280.643832 267.050896 
L 283.828782 260.941913 
L 285.421257 258.48038 
L 286.217495 257.555786 
L 287.013732 256.899478 
L 287.80997 256.558503 
L 288.606208 256.564646 
L 289.402445 256.918692 
L 290.198683 257.577072 
L 292.587395 260.256445 
L 293.383633 260.884258 
L 294.17987 261.159592 
L 294.976108 261.031219 
L 295.772345 260.533685 
L 297.36482 259.032 
L 298.161058 258.519858 
L 298.957295 258.553314 
L 299.753533 259.384915 
L 300.54977 261.161669 
L 301.346008 263.872349 
L 302.938483 271.159289 
L 304.530958 278.175979 
L 305.327196 280.570226 
L 306.123433 281.96885 
L 306.919671 282.459129 
L 307.715908 282.320309 
L 309.308383 281.631886 
L 310.104621 281.642461 
L 310.900858 281.974806 
L 312.493333 282.840927 
L 313.289571 282.868426 
L 314.085808 282.436351 
L 316.474521 279.977064 
L 317.270758 279.769791 
L 318.066996 280.21078 
L 318.863233 281.22048 
L 320.455709 283.71887 
L 321.251946 284.450367 
L 322.048184 284.489992 
L 322.844421 283.832248 
L 325.233134 280.433357 
L 326.029371 280.014039 
L 326.825609 280.292831 
L 327.621846 281.183756 
L 329.214321 283.639685 
L 330.010559 284.46771 
L 330.806796 284.62089 
L 331.603034 283.959922 
L 332.399271 282.512342 
L 333.195509 280.457188 
L 334.787984 275.720442 
L 335.584221 273.6935 
L 336.380459 272.242793 
L 337.176697 271.485821 
L 337.972934 271.38874 
L 338.769172 271.768713 
L 339.565409 272.329857 
L 340.361647 272.72979 
L 341.157884 272.664877 
L 341.954122 271.953049 
L 342.750359 270.589972 
L 345.139072 265.035559 
L 345.935309 263.834917 
L 346.731547 263.340114 
L 347.527784 263.505132 
L 349.120259 264.731808 
L 349.916497 265.058903 
L 350.712734 264.801857 
L 351.508972 263.876663 
L 352.30521 262.407691 
L 353.897685 259.0882 
L 354.693922 257.944502 
L 355.49016 257.460834 
L 356.286397 257.653689 
L 357.082635 258.354638 
L 358.67511 260.056827 
L 359.471347 260.450151 
L 360.267585 260.306421 
L 361.063822 259.64927 
L 363.452535 256.623914 
L 364.248772 256.036685 
L 365.04501 255.844344 
L 365.841247 255.962382 
L 367.433722 256.351988 
L 368.22996 256.227101 
L 369.026198 255.760168 
L 371.41491 253.478396 
L 372.211148 253.154897 
L 373.007385 253.339132 
L 373.803623 254.029808 
L 376.192335 257.284516 
L 376.988573 257.929547 
L 377.78481 258.078875 
L 378.581048 257.750313 
L 380.173523 256.266815 
L 380.96976 255.510735 
L 381.765998 254.944762 
L 382.562235 254.60413 
L 384.950948 254.102579 
L 386.543423 253.32127 
L 387.339661 252.86762 
L 388.135898 252.564162 
L 388.932136 252.560318 
L 389.728373 252.942272 
L 390.524611 253.698838 
L 393.709561 257.741907 
L 394.505798 258.366344 
L 396.098273 259.177585 
L 398.486986 260.292088 
L 399.283223 260.49189 
L 400.079461 260.402776 
L 400.875699 259.948999 
L 401.671936 259.158974 
L 403.264411 257.200946 
L 404.060649 256.449002 
L 404.856886 256.033213 
L 405.653124 255.92573 
L 406.449361 255.952186 
L 407.245599 255.846939 
L 408.041836 255.346847 
L 408.838074 254.288426 
L 409.634311 252.671667 
L 412.023024 246.622333 
L 412.819261 245.096643 
L 413.615499 244.028354 
L 413.615499 244.028354 
" clip-path="url(#pb83ea55141)" style="fill: none; stroke: #377eb8; stroke-width: 1.5; stroke-linecap: square"/>
   </g>
   <g id="line2d_16">
    <path d="M 87.158114 318.2 
L 87.158114 71.241125 
" clip-path="url(#pb83ea55141)" style="fill: none; stroke: #000000; stroke-width: 0.5; stroke-linecap: square"/>
   </g>
   <g id="line2d_17">
    <path d="M 46.55 246.346662 
L 413.615499 246.346662 
" clip-path="url(#pb83ea55141)" style="fill: none; stroke: #000000; stroke-width: 0.5; stroke-linecap: square"/>
   </g>
   <g id="patch_4">
    <path d="M 46.55 318.2 
L 46.55 71.241125 
" style="fill: none; stroke: #000000; stroke-width: 0.8; stroke-linejoin: miter; stroke-linecap: square"/>
   </g>
   <g id="patch_5">
    <path d="M 413.615499 318.2 
L 413.615499 71.241125 
" style="fill: none; stroke: #000000; stroke-width: 0.8; stroke-linejoin: miter; stroke-linecap: square"/>
   </g>
   <g id="patch_6">
    <path d="M 46.55 318.2 
L 413.615499 318.2 
" style="fill: none; stroke: #000000; stroke-width: 0.8; stroke-linejoin: miter; stroke-linecap: square"/>
   </g>
   <g id="patch_7">
    <path d="M 46.55 71.241125 
L 413.615499 71.241125 
" style="fill: none; stroke: #000000; stroke-width: 0.8; stroke-linejoin: miter; stroke-linecap: square"/>
   </g>
   <g id="text_16">
    <!-- Cz -->
    <g transform="translate(222.743999 65.241125)scale(0.12 -0.12)">
     <defs>
      <path id="DejaVuSans-43" d="M 4122 4306 
L 4122 3641 
Q 3803 3938 3442 4084 
Q 3081 4231 2675 4231 
Q 1875 4231 1450 3742 
Q 1025 3253 1025 2328 
Q 1025 1406 1450 917 
Q 1875 428 2675 428 
Q 3081 428 3442 575 
Q 3803 722 4122 1019 
L 4122 359 
Q 3791 134 3420 21 
Q 3050 -91 2638 -91 
Q 1578 -91 968 557 
Q 359 1206 359 2328 
Q 359 3453 968 4101 
Q 1578 4750 2638 4750 
Q 3056 4750 3426 4639 
Q 3797 4528 4122 4306 
z
" transform="scale(0.015625)"/>
      <path id="DejaVuSans-7a" d="M 353 3500 
L 3084 3500 
L 3084 2975 
L 922 459 
L 3084 459 
L 3084 0 
L 275 0 
L 275 525 
L 2438 3041 
L 353 3041 
L 353 3500 
z
" transform="scale(0.015625)"/>
     </defs>
     <use xlink:href="#DejaVuSans-43"/>
     <use xlink:href="#DejaVuSans-7a" x="69.824219"/>
    </g>
   </g>
   <g id="legend_1">
    <g id="patch_8">
     <path d="M 99.855406 48.044893 
L 360.310093 48.044893 
Q 362.310093 48.044893 362.310093 46.044893 
L 362.310093 17.410517 
Q 362.310093 15.410517 360.310093 15.410517 
L 99.855406 15.410517 
Q 97.855406 15.410517 97.855406 17.410517 
L 97.855406 46.044893 
Q 97.855406 48.044893 99.855406 48.044893 
z
" style="fill: #ffffff; opacity: 0.8; stroke: #cccccc; stroke-linejoin: miter"/>
    </g>
    <g id="text_17">
     <!-- Average of Session 3_tac4 -->
     <g transform="translate(164.249937 27.008955)scale(0.1 -0.1)">
      <defs>
       <path id="DejaVuSans-41" d="M 2188 4044 
L 1331 1722 
L 3047 1722 
L 2188 4044 
z
M 1831 4666 
L 2547 4666 
L 4325 0 
L 3669 0 
L 3244 1197 
L 1141 1197 
L 716 0 
L 50 0 
L 1831 4666 
z
" transform="scale(0.015625)"/>
       <path id="DejaVuSans-76" d="M 191 3500 
L 800 3500 
L 1894 563 
L 2988 3500 
L 3597 3500 
L 2284 0 
L 1503 0 
L 191 3500 
z
" transform="scale(0.015625)"/>
       <path id="DejaVuSans-72" d="M 2631 2963 
Q 2534 3019 2420 3045 
Q 2306 3072 2169 3072 
Q 1681 3072 1420 2755 
Q 1159 2438 1159 1844 
L 1159 0 
L 581 0 
L 581 3500 
L 1159 3500 
L 1159 2956 
Q 1341 3275 1631 3429 
Q 1922 3584 2338 3584 
Q 2397 3584 2469 3576 
Q 2541 3569 2628 3553 
L 2631 2963 
z
" transform="scale(0.015625)"/>
       <path id="DejaVuSans-61" d="M 2194 1759 
Q 1497 1759 1228 1600 
Q 959 1441 959 1056 
Q 959 750 1161 570 
Q 1363 391 1709 391 
Q 2188 391 2477 730 
Q 2766 1069 2766 1631 
L 2766 1759 
L 2194 1759 
z
M 3341 1997 
L 3341 0 
L 2766 0 
L 2766 531 
Q 2569 213 2275 61 
Q 1981 -91 1556 -91 
Q 1019 -91 701 211 
Q 384 513 384 1019 
Q 384 1609 779 1909 
Q 1175 2209 1959 2209 
L 2766 2209 
L 2766 2266 
Q 2766 2663 2505 2880 
Q 2244 3097 1772 3097 
Q 1472 3097 1187 3025 
Q 903 2953 641 2809 
L 641 3341 
Q 956 3463 1253 3523 
Q 1550 3584 1831 3584 
Q 2591 3584 2966 3190 
Q 3341 2797 3341 1997 
z
" transform="scale(0.015625)"/>
       <path id="DejaVuSans-67" d="M 2906 1791 
Q 2906 2416 2648 2759 
Q 2391 3103 1925 3103 
Q 1463 3103 1205 2759 
Q 947 2416 947 1791 
Q 947 1169 1205 825 
Q 1463 481 1925 481 
Q 2391 481 2648 825 
Q 2906 1169 2906 1791 
z
M 3481 434 
Q 3481 -459 3084 -895 
Q 2688 -1331 1869 -1331 
Q 1566 -1331 1297 -1286 
Q 1028 -1241 775 -1147 
L 775 -588 
Q 1028 -725 1275 -790 
Q 1522 -856 1778 -856 
Q 2344 -856 2625 -561 
Q 2906 -266 2906 331 
L 2906 616 
Q 2728 306 2450 153 
Q 2172 0 1784 0 
Q 1141 0 747 490 
Q 353 981 353 1791 
Q 353 2603 747 3093 
Q 1141 3584 1784 3584 
Q 2172 3584 2450 3431 
Q 2728 3278 2906 2969 
L 2906 3500 
L 3481 3500 
L 3481 434 
z
" transform="scale(0.015625)"/>
       <path id="DejaVuSans-20" transform="scale(0.015625)"/>
       <path id="DejaVuSans-66" d="M 2375 4863 
L 2375 4384 
L 1825 4384 
Q 1516 4384 1395 4259 
Q 1275 4134 1275 3809 
L 1275 3500 
L 2222 3500 
L 2222 3053 
L 1275 3053 
L 1275 0 
L 697 0 
L 697 3053 
L 147 3053 
L 147 3500 
L 697 3500 
L 697 3744 
Q 697 4328 969 4595 
Q 1241 4863 1831 4863 
L 2375 4863 
z
" transform="scale(0.015625)"/>
       <path id="DejaVuSans-53" d="M 3425 4513 
L 3425 3897 
Q 3066 4069 2747 4153 
Q 2428 4238 2131 4238 
Q 1616 4238 1336 4038 
Q 1056 3838 1056 3469 
Q 1056 3159 1242 3001 
Q 1428 2844 1947 2747 
L 2328 2669 
Q 3034 2534 3370 2195 
Q 3706 1856 3706 1288 
Q 3706 609 3251 259 
Q 2797 -91 1919 -91 
Q 1588 -91 1214 -16 
Q 841 59 441 206 
L 441 856 
Q 825 641 1194 531 
Q 1563 422 1919 422 
Q 2459 422 2753 634 
Q 3047 847 3047 1241 
Q 3047 1584 2836 1778 
Q 2625 1972 2144 2069 
L 1759 2144 
Q 1053 2284 737 2584 
Q 422 2884 422 3419 
Q 422 4038 858 4394 
Q 1294 4750 2059 4750 
Q 2388 4750 2728 4690 
Q 3069 4631 3425 4513 
z
" transform="scale(0.015625)"/>
       <path id="DejaVuSans-69" d="M 603 3500 
L 1178 3500 
L 1178 0 
L 603 0 
L 603 3500 
z
M 603 4863 
L 1178 4863 
L 1178 4134 
L 603 4134 
L 603 4863 
z
" transform="scale(0.015625)"/>
       <path id="DejaVuSans-5f" d="M 3263 -1063 
L 3263 -1509 
L -63 -1509 
L -63 -1063 
L 3263 -1063 
z
" transform="scale(0.015625)"/>
       <path id="DejaVuSans-74" d="M 1172 4494 
L 1172 3500 
L 2356 3500 
L 2356 3053 
L 1172 3053 
L 1172 1153 
Q 1172 725 1289 603 
Q 1406 481 1766 481 
L 2356 481 
L 2356 0 
L 1766 0 
Q 1100 0 847 248 
Q 594 497 594 1153 
L 594 3053 
L 172 3053 
L 172 3500 
L 594 3500 
L 594 4494 
L 1172 4494 
z
" transform="scale(0.015625)"/>
      </defs>
      <use xlink:href="#DejaVuSans-41"/>
      <use xlink:href="#DejaVuSans-76" x="62.533203"/>
      <use xlink:href="#DejaVuSans-65" x="121.712891"/>
      <use xlink:href="#DejaVuSans-72" x="183.236328"/>
      <use xlink:href="#DejaVuSans-61" x="224.349609"/>
      <use xlink:href="#DejaVuSans-67" x="285.628906"/>
      <use xlink:href="#DejaVuSans-65" x="349.105469"/>
      <use xlink:href="#DejaVuSans-20" x="410.628906"/>
      <use xlink:href="#DejaVuSans-6f" x="442.416016"/>
      <use xlink:href="#DejaVuSans-66" x="503.597656"/>
      <use xlink:href="#DejaVuSans-20" x="538.802734"/>
      <use xlink:href="#DejaVuSans-53" x="570.589844"/>
      <use xlink:href="#DejaVuSans-65" x="634.066406"/>
      <use xlink:href="#DejaVuSans-73" x="695.589844"/>
      <use xlink:href="#DejaVuSans-73" x="747.689453"/>
      <use xlink:href="#DejaVuSans-69" x="799.789062"/>
      <use xlink:href="#DejaVuSans-6f" x="827.572266"/>
      <use xlink:href="#DejaVuSans-6e" x="888.753906"/>
      <use xlink:href="#DejaVuSans-20" x="952.132812"/>
      <use xlink:href="#DejaVuSans-33" x="983.919922"/>
      <use xlink:href="#DejaVuSans-5f" x="1047.542969"/>
      <use xlink:href="#DejaVuSans-74" x="1097.542969"/>
      <use xlink:href="#DejaVuSans-61" x="1136.751953"/>
      <use xlink:href="#DejaVuSans-63" x="1198.03125"/>
      <use xlink:href="#DejaVuSans-34" x="1253.011719"/>
     </g>
    </g>
    <g id="line2d_18">
     <path d="M 101.855406 38.465205 
L 111.855406 38.465205 
L 121.855406 38.465205 
" style="fill: none; stroke: #e41a1c; stroke-width: 1.5; stroke-linecap: square"/>
    </g>
    <g id="text_18">
     <!-- Target (n=406) -->
     <g transform="translate(129.855406 41.965205)scale(0.1 -0.1)">
      <defs>
       <path id="DejaVuSans-54" d="M -19 4666 
L 3928 4666 
L 3928 4134 
L 2272 4134 
L 2272 0 
L 1638 0 
L 1638 4134 
L -19 4134 
L -19 4666 
z
" transform="scale(0.015625)"/>
       <path id="DejaVuSans-28" d="M 1984 4856 
Q 1566 4138 1362 3434 
Q 1159 2731 1159 2009 
Q 1159 1288 1364 580 
Q 1569 -128 1984 -844 
L 1484 -844 
Q 1016 -109 783 600 
Q 550 1309 550 2009 
Q 550 2706 781 3412 
Q 1013 4119 1484 4856 
L 1984 4856 
z
" transform="scale(0.015625)"/>
       <path id="DejaVuSans-3d" d="M 678 2906 
L 4684 2906 
L 4684 2381 
L 678 2381 
L 678 2906 
z
M 678 1631 
L 4684 1631 
L 4684 1100 
L 678 1100 
L 678 1631 
z
" transform="scale(0.015625)"/>
       <path id="DejaVuSans-29" d="M 513 4856 
L 1013 4856 
Q 1481 4119 1714 3412 
Q 1947 2706 1947 2009 
Q 1947 1309 1714 600 
Q 1481 -109 1013 -844 
L 513 -844 
Q 928 -128 1133 580 
Q 1338 1288 1338 2009 
Q 1338 2731 1133 3434 
Q 928 4138 513 4856 
z
" transform="scale(0.015625)"/>
      </defs>
      <use xlink:href="#DejaVuSans-54"/>
      <use xlink:href="#DejaVuSans-61" x="44.583984"/>
      <use xlink:href="#DejaVuSans-72" x="105.863281"/>
      <use xlink:href="#DejaVuSans-67" x="145.226562"/>
      <use xlink:href="#DejaVuSans-65" x="208.703125"/>
      <use xlink:href="#DejaVuSans-74" x="270.226562"/>
      <use xlink:href="#DejaVuSans-20" x="309.435547"/>
      <use xlink:href="#DejaVuSans-28" x="341.222656"/>
      <use xlink:href="#DejaVuSans-6e" x="380.236328"/>
      <use xlink:href="#DejaVuSans-3d" x="443.615234"/>
      <use xlink:href="#DejaVuSans-34" x="527.404297"/>
      <use xlink:href="#DejaVuSans-30" x="591.027344"/>
      <use xlink:href="#DejaVuSans-36" x="654.650391"/>
      <use xlink:href="#DejaVuSans-29" x="718.273438"/>
     </g>
    </g>
    <g id="line2d_19">
     <path d="M 225.585093 38.465205 
L 235.585093 38.465205 
L 245.585093 38.465205 
" style="fill: none; stroke: #377eb8; stroke-width: 1.5; stroke-linecap: square"/>
    </g>
    <g id="text_19">
     <!-- Non-Target (n=1211) -->
     <g transform="translate(253.585093 41.965205)scale(0.1 -0.1)">
      <defs>
       <path id="DejaVuSans-4e" d="M 628 4666 
L 1478 4666 
L 3547 763 
L 3547 4666 
L 4159 4666 
L 4159 0 
L 3309 0 
L 1241 3903 
L 1241 0 
L 628 0 
L 628 4666 
z
" transform="scale(0.015625)"/>
       <path id="DejaVuSans-2d" d="M 313 2009 
L 1997 2009 
L 1997 1497 
L 313 1497 
L 313 2009 
z
" transform="scale(0.015625)"/>
      </defs>
      <use xlink:href="#DejaVuSans-4e"/>
      <use xlink:href="#DejaVuSans-6f" x="74.804688"/>
      <use xlink:href="#DejaVuSans-6e" x="135.986328"/>
      <use xlink:href="#DejaVuSans-2d" x="199.365234"/>
      <use xlink:href="#DejaVuSans-54" x="226.324219"/>
      <use xlink:href="#DejaVuSans-61" x="270.908203"/>
      <use xlink:href="#DejaVuSans-72" x="332.1875"/>
      <use xlink:href="#DejaVuSans-67" x="371.550781"/>
      <use xlink:href="#DejaVuSans-65" x="435.027344"/>
      <use xlink:href="#DejaVuSans-74" x="496.550781"/>
      <use xlink:href="#DejaVuSans-20" x="535.759766"/>
      <use xlink:href="#DejaVuSans-28" x="567.546875"/>
      <use xlink:href="#DejaVuSans-6e" x="606.560547"/>
      <use xlink:href="#DejaVuSans-3d" x="669.939453"/>
      <use xlink:href="#DejaVuSans-31" x="753.728516"/>
      <use xlink:href="#DejaVuSans-32" x="817.351562"/>
      <use xlink:href="#DejaVuSans-31" x="880.974609"/>
      <use xlink:href="#DejaVuSans-31" x="944.597656"/>
      <use xlink:href="#DejaVuSans-29" x="1008.220703"/>
     </g>
    </g>
   </g>
  </g>
 </g>
 <defs>
  <clipPath id="pb83ea55141">
   <rect x="46.55" y="71.241125" width="367.065499" height="246.958875"/>
  </clipPath>
 </defs>
</svg>
