<?xml version="1.0" encoding="utf-8" standalone="no"?>
<!DOCTYPE svg PUBLIC "-//W3C//DTD SVG 1.1//EN"
  "http://www.w3.org/Graphics/SVG/1.1/DTD/svg11.dtd">
<svg xmlns:xlink="http://www.w3.org/1999/xlink" width="432pt" height="360pt" viewBox="0 0 432 360" xmlns="http://www.w3.org/2000/svg" version="1.1">
 <metadata>
  <rdf:RDF xmlns:dc="http://purl.org/dc/elements/1.1/" xmlns:cc="http://creativecommons.org/ns#" xmlns:rdf="http://www.w3.org/1999/02/22-rdf-syntax-ns#">
   <cc:Work>
    <dc:type rdf:resource="http://purl.org/dc/dcmitype/StillImage"/>
    <dc:date>2022-11-02T16:56:50.611954</dc:date>
    <dc:format>image/svg+xml</dc:format>
    <dc:creator>
     <cc:Agent>
      <dc:title>Matplotlib v3.5.1, https://matplotlib.org/</dc:title>
     </cc:Agent>
    </dc:creator>
   </cc:Work>
  </rdf:RDF>
 </metadata>
 <defs>
  <style type="text/css">*{stroke-linejoin: round; stroke-linecap: butt}</style>
 </defs>
 <g id="figure_1">
  <g id="patch_1">
   <path d="M 0 360 
L 432 360 
L 432 0 
L 0 0 
L 0 360 
z
" style="fill: none"/>
  </g>
  <g id="axes_1">
   <g id="patch_2">
    <path d="M 46.55 318.2 
L 413.615499 318.2 
L 413.615499 71.241125 
L 46.55 71.241125 
L 46.55 318.2 
z
" style="fill: none"/>
   </g>
   <g id="PolyCollection_1">
    <defs>
     <path id="m4ceb581b80" d="M 46.55 -124.127838 
L 46.55 -93.334873 
L 47.346238 -95.109088 
L 48.142475 -96.618004 
L 48.938713 -97.835444 
L 49.73495 -98.994089 
L 50.531188 -100.410628 
L 51.327425 -102.269616 
L 52.123663 -104.494945 
L 52.9199 -106.759029 
L 53.716138 -108.589752 
L 54.512375 -109.511994 
L 55.308613 -109.196403 
L 56.10485 -107.60462 
L 56.901088 -105.089565 
L 57.697325 -102.359879 
L 58.493563 -100.244055 
L 59.2898 -99.350394 
L 60.086038 -99.821115 
L 60.882275 -101.292859 
L 61.678513 -103.049562 
L 62.47475 -104.293473 
L 63.270988 -104.441788 
L 64.067226 -103.341895 
L 64.863463 -101.308072 
L 65.659701 -98.970369 
L 66.455938 -97.036075 
L 67.252176 -96.076724 
L 68.048413 -96.391083 
L 68.844651 -97.949964 
L 69.640888 -100.427111 
L 70.437126 -103.322348 
L 71.233363 -106.148813 
L 72.029601 -108.589823 
L 72.825838 -110.523858 
L 73.622076 -111.930326 
L 74.418313 -112.787311 
L 75.214551 -113.04175 
L 76.010788 -112.653425 
L 76.807026 -111.665154 
L 77.603263 -110.243628 
L 78.399501 -108.6611 
L 79.195739 -107.224798 
L 79.991976 -106.183833 
L 80.788214 -105.651703 
L 81.584451 -105.577635 
L 82.380689 -105.77743 
L 83.176926 -106.005941 
L 83.973164 -106.040462 
L 84.769401 -105.751638 
L 85.565639 -105.144961 
L 86.361876 -104.355935 
L 87.158114 -103.598945 
L 87.954351 -103.10167 
L 88.750589 -103.062234 
L 89.546826 -103.627517 
L 90.343064 -104.860413 
L 91.139301 -106.693946 
L 91.935539 -108.919844 
L 92.731776 -111.257831 
L 93.528014 -113.48799 
L 94.324251 -115.55005 
L 95.120489 -117.516042 
L 95.916727 -119.465093 
L 96.712964 -121.38506 
L 97.509202 -123.179397 
L 98.305439 -124.740865 
L 99.101677 -125.997054 
L 99.897914 -126.896071 
L 100.694152 -127.390164 
L 101.490389 -127.470791 
L 102.286627 -127.232086 
L 103.082864 -126.885147 
L 103.879102 -126.677617 
L 104.675339 -126.765462 
L 105.471577 -127.127712 
L 106.267814 -127.573146 
L 107.064052 -127.82431 
L 107.860289 -127.631432 
L 108.656527 -126.870248 
L 109.452764 -125.592829 
L 110.249002 -124.01792 
L 111.04524 -122.462265 
L 111.841477 -121.229734 
L 112.637715 -120.491853 
L 113.433952 -120.205131 
L 114.23019 -120.105635 
L 115.026427 -119.793705 
L 115.822665 -118.883138 
L 116.618902 -117.155577 
L 117.41514 -114.652813 
L 118.211377 -111.666278 
L 119.007615 -108.635884 
L 119.803852 -106.01451 
L 120.60009 -104.157369 
L 121.396327 -103.259146 
L 122.192565 -103.325753 
L 122.988802 -104.172181 
L 123.78504 -105.463423 
L 124.581277 -106.811786 
L 125.377515 -107.905839 
L 126.173752 -108.612042 
L 126.96999 -108.999277 
L 127.766228 -109.287787 
L 128.562465 -109.767752 
L 129.358703 -110.726292 
L 130.15494 -112.38408 
L 130.951178 -114.823007 
L 131.747415 -117.907414 
L 132.543653 -121.238847 
L 133.33989 -124.195766 
L 134.136128 -126.079748 
L 134.932365 -126.334289 
L 135.728603 -124.752624 
L 136.52484 -121.58757 
L 137.321078 -117.525961 
L 138.117315 -113.544802 
L 138.913553 -110.683941 
L 139.70979 -109.770114 
L 140.506028 -111.14908 
L 141.302265 -114.521112 
L 142.098503 -118.979942 
L 142.89474 -123.288035 
L 143.690978 -126.303375 
L 144.487216 -127.374074 
L 145.283453 -126.527675 
L 146.079691 -124.406154 
L 146.875928 -122.019006 
L 147.672166 -120.421937 
L 148.468403 -120.408102 
L 149.264641 -122.277968 
L 150.060878 -125.749719 
L 150.857116 -130.055385 
L 151.653353 -134.207428 
L 152.449591 -137.341866 
L 153.245828 -139.002296 
L 154.042066 -139.253607 
L 154.838303 -138.59281 
L 155.634541 -137.714626 
L 156.430778 -137.244436 
L 157.227016 -137.547603 
L 158.023253 -138.672616 
L 158.819491 -140.418722 
L 159.615729 -142.47206 
L 160.411966 -144.545425 
L 161.208204 -146.47279 
L 162.004441 -148.233422 
L 162.800679 -149.906238 
L 163.596916 -151.585101 
L 164.393154 -153.30742 
L 165.189391 -155.041269 
L 165.985629 -156.736184 
L 166.781866 -158.398912 
L 167.578104 -160.138804 
L 168.374341 -162.147758 
L 169.170579 -164.617973 
L 169.966816 -167.633519 
L 170.763054 -171.086128 
L 171.559291 -174.660417 
L 172.355529 -177.907985 
L 173.151766 -180.38909 
L 173.948004 -181.824092 
L 174.744241 -182.18843 
L 175.540479 -181.710485 
L 176.336717 -180.773873 
L 177.132954 -179.761702 
L 177.929192 -178.901183 
L 178.725429 -178.17237 
L 179.521667 -177.329892 
L 180.317904 -176.041017 
L 181.114142 -174.079554 
L 181.910379 -171.473568 
L 182.706617 -168.526718 
L 183.502854 -165.706704 
L 184.299092 -163.462574 
L 185.095329 -162.053703 
L 185.891567 -161.452655 
L 186.687804 -161.350487 
L 187.484042 -161.263448 
L 188.280279 -160.711202 
L 189.076517 -159.405255 
L 189.872754 -157.367548 
L 190.668992 -154.919119 
L 191.46523 -152.540513 
L 192.261467 -150.671329 
L 193.057705 -149.540941 
L 193.853942 -149.098561 
L 194.65018 -149.061796 
L 195.446417 -149.054786 
L 196.242655 -148.774665 
L 197.038892 -148.11986 
L 197.83513 -147.235566 
L 198.631367 -146.466173 
L 199.427605 -146.234005 
L 200.223842 -146.883744 
L 201.02008 -148.54598 
L 201.816317 -151.074131 
L 202.612555 -154.082914 
L 203.408792 -157.071463 
L 204.20503 -159.577086 
L 205.001267 -161.30137 
L 205.797505 -162.175264 
L 206.593742 -162.357732 
L 207.38998 -162.173084 
L 208.186218 -162.001716 
L 208.982455 -162.15862 
L 209.778693 -162.804691 
L 210.57493 -163.914432 
L 211.371168 -165.288936 
L 212.167405 -166.591415 
L 212.963643 -167.405173 
L 213.75988 -167.332895 
L 214.556118 -166.131004 
L 215.352355 -163.819721 
L 216.148593 -160.698301 
L 216.94483 -157.256289 
L 217.741068 -154.036305 
L 218.537305 -151.50571 
L 219.333543 -149.955318 
L 220.12978 -149.426592 
L 220.926018 -149.690493 
L 221.722255 -150.31588 
L 222.518493 -150.825796 
L 223.31473 -150.873286 
L 224.110968 -150.348191 
L 224.907206 -149.374877 
L 225.703443 -148.225862 
L 226.499681 -147.201853 
L 227.295918 -146.519354 
L 228.092156 -146.235023 
L 228.888393 -146.232796 
L 229.684631 -146.286322 
L 230.480868 -146.173218 
L 231.277106 -145.783306 
L 232.073343 -145.164457 
L 232.869581 -144.488673 
L 233.665818 -143.963561 
L 234.462056 -143.731821 
L 235.258293 -143.799065 
L 236.054531 -144.019998 
L 236.850768 -144.154892 
L 237.647006 -143.977962 
L 238.443243 -143.390893 
L 239.239481 -142.489352 
L 240.035719 -141.552899 
L 240.831956 -140.962493 
L 241.628194 -141.076745 
L 242.424431 -142.11192 
L 243.220669 -144.070554 
L 244.016906 -146.746542 
L 244.813144 -149.801175 
L 245.609381 -152.874062 
L 246.405619 -155.682743 
L 247.201856 -158.077289 
L 247.998094 -160.03691 
L 248.794331 -161.618166 
L 249.590569 -162.885848 
L 250.386806 -163.870429 
L 251.183044 -164.580422 
L 251.979281 -165.056818 
L 252.775519 -165.422572 
L 253.571756 -165.887877 
L 254.367994 -166.707835 
L 255.164231 -168.114227 
L 255.960469 -170.241036 
L 256.756707 -173.053075 
L 257.552944 -176.298123 
L 258.349182 -179.527694 
L 259.145419 -182.222455 
L 259.941657 -183.994952 
L 260.737894 -184.772779 
L 261.534132 -184.856686 
L 262.330369 -184.814504 
L 263.126607 -185.259548 
L 263.922844 -186.609348 
L 264.719082 -188.917958 
L 265.515319 -191.843756 
L 266.311557 -194.768811 
L 267.107794 -197.031152 
L 267.904032 -198.186095 
L 268.700269 -198.198547 
L 269.496507 -197.492043 
L 270.292744 -196.827041 
L 271.088982 -197.036822 
L 271.88522 -198.7058 
L 272.681457 -201.914346 
L 273.477695 -206.165254 
L 274.273932 -210.534966 
L 275.07017 -213.988109 
L 275.866407 -215.716787 
L 276.662645 -215.369547 
L 277.458882 -213.108709 
L 278.25512 -209.512197 
L 279.051357 -205.370432 
L 279.847595 -201.436359 
L 280.643832 -198.202188 
L 281.44007 -195.787819 
L 282.236307 -193.9933 
L 283.032545 -192.488688 
L 283.828782 -191.039704 
L 284.62502 -189.649282 
L 285.421257 -188.549007 
L 286.217495 -188.063156 
L 287.013732 -188.431384 
L 287.80997 -189.680754 
L 288.606208 -191.597033 
L 289.402445 -193.79278 
L 290.198683 -195.835075 
L 290.99492 -197.385844 
L 291.791158 -198.310638 
L 292.587395 -198.717402 
L 293.383633 -198.900122 
L 294.17987 -199.196731 
L 294.976108 -199.820494 
L 295.772345 -200.75151 
L 296.568583 -201.747607 
L 297.36482 -202.464378 
L 298.161058 -202.613734 
L 298.957295 -202.080167 
L 299.753533 -200.951208 
L 300.54977 -199.466016 
L 301.346008 -197.912563 
L 302.142245 -196.514199 
L 302.938483 -195.350251 
L 303.73472 -194.346655 
L 304.530958 -193.342166 
L 305.327196 -192.196623 
L 306.123433 -190.885931 
L 306.919671 -189.538963 
L 307.715908 -188.401986 
L 308.512146 -187.74734 
L 309.308383 -187.764268 
L 310.104621 -188.478353 
L 310.900858 -189.734832 
L 311.697096 -191.251987 
L 312.493333 -192.717074 
L 313.289571 -193.881406 
L 314.085808 -194.619332 
L 314.882046 -194.936938 
L 315.678283 -194.933746 
L 316.474521 -194.733925 
L 317.270758 -194.414268 
L 318.066996 -193.95868 
L 318.863233 -193.257794 
L 319.659471 -192.153556 
L 320.455709 -190.511206 
L 321.251946 -188.291201 
L 322.048184 -185.591114 
L 322.844421 -182.637471 
L 323.640659 -179.729987 
L 324.436896 -177.164063 
L 325.233134 -175.16322 
L 326.029371 -173.839068 
L 326.825609 -173.179262 
L 327.621846 -173.059152 
L 328.418084 -173.278854 
L 329.214321 -173.626525 
L 330.010559 -173.953326 
L 330.806796 -174.229917 
L 331.603034 -174.556855 
L 332.399271 -175.122163 
L 333.195509 -176.119829 
L 333.991746 -177.654403 
L 334.787984 -179.663098 
L 335.584221 -181.886514 
L 336.380459 -183.90421 
L 337.176697 -185.224945 
L 337.972934 -185.403326 
L 338.769172 -184.155983 
L 339.565409 -181.458731 
L 340.361647 -177.601874 
L 341.157884 -173.16661 
L 341.954122 -168.894042 
L 342.750359 -165.470583 
L 343.546597 -163.315824 
L 344.342834 -162.468058 
L 345.139072 -162.611036 
L 345.935309 -163.218918 
L 346.731547 -163.753778 
L 347.527784 -163.841084 
L 348.324022 -163.366228 
L 349.120259 -162.469939 
L 349.916497 -161.460951 
L 350.712734 -160.694078 
L 351.508972 -160.463986 
L 352.30521 -160.941087 
L 353.101447 -162.148572 
L 353.897685 -163.97252 
L 354.693922 -166.205182 
L 355.49016 -168.621194 
L 356.286397 -171.06486 
L 357.082635 -173.50085 
L 357.878872 -175.989375 
L 358.67511 -178.600142 
L 359.471347 -181.326235 
L 360.267585 -184.048046 
L 361.063822 -186.549667 
L 361.86006 -188.562096 
L 362.656297 -189.815613 
L 363.452535 -190.100045 
L 364.248772 -189.325948 
L 365.04501 -187.560103 
L 365.841247 -185.010657 
L 366.637485 -181.973235 
L 367.433722 -178.777456 
L 368.22996 -175.757289 
L 369.026198 -173.228733 
L 369.822435 -171.44494 
L 370.618673 -170.528516 
L 371.41491 -170.417185 
L 372.211148 -170.859868 
L 373.007385 -171.469327 
L 373.803623 -171.811319 
L 374.59986 -171.509008 
L 375.396098 -170.346787 
L 376.192335 -168.351953 
L 376.988573 -165.82223 
L 377.78481 -163.273344 
L 378.581048 -161.307451 
L 379.377285 -160.435721 
L 380.173523 -160.910399 
L 380.96976 -162.624728 
L 381.765998 -165.122678 
L 382.562235 -167.725034 
L 383.358473 -169.735572 
L 384.15471 -170.65993 
L 384.950948 -170.367486 
L 385.747186 -169.145989 
L 386.543423 -167.627371 
L 387.339661 -166.597476 
L 388.135898 -166.743342 
L 388.932136 -168.425149 
L 389.728373 -171.556949 
L 390.524611 -175.634971 
L 391.320848 -179.890378 
L 392.117086 -183.504058 
L 392.913323 -185.817251 
L 393.709561 -186.4864 
L 394.505798 -185.54505 
L 395.302036 -183.357002 
L 396.098273 -180.480002 
L 396.894511 -177.494279 
L 397.690748 -174.858621 
L 398.486986 -172.835689 
L 399.283223 -171.495064 
L 400.079461 -170.7748 
L 400.875699 -170.564802 
L 401.671936 -170.769648 
L 402.468174 -171.323839 
L 403.264411 -172.165196 
L 404.060649 -173.199356 
L 404.856886 -174.286978 
L 405.653124 -175.26074 
L 406.449361 -175.958129 
L 407.245599 -176.256558 
L 408.041836 -176.106349 
L 408.838074 -175.557307 
L 409.634311 -174.76395 
L 410.430549 -173.953248 
L 411.226786 -173.357663 
L 412.023024 -173.140685 
L 412.819261 -173.351222 
L 413.615499 -173.928457 
L 413.615499 -246.761757 
L 413.615499 -246.761757 
L 412.819261 -246.173184 
L 412.023024 -245.931918 
L 411.226786 -246.004173 
L 410.430549 -246.303713 
L 409.634311 -246.702124 
L 408.838074 -247.03924 
L 408.041836 -247.144395 
L 407.245599 -246.875048 
L 406.449361 -246.16334 
L 405.653124 -245.044362 
L 404.856886 -243.643999 
L 404.060649 -242.131415 
L 403.264411 -240.668671 
L 402.468174 -239.390752 
L 401.671936 -238.419892 
L 400.875699 -237.889543 
L 400.079461 -237.949303 
L 399.283223 -238.740478 
L 398.486986 -240.349683 
L 397.690748 -242.753452 
L 396.894511 -245.768736 
L 396.098273 -249.031367 
L 395.302036 -252.025673 
L 394.505798 -254.17389 
L 393.709561 -254.969591 
L 392.913323 -254.120733 
L 392.117086 -251.660459 
L 391.320848 -247.983241 
L 390.524611 -243.776667 
L 389.728373 -239.852307 
L 388.932136 -236.925427 
L 388.135898 -235.42014 
L 387.339661 -235.363704 
L 386.543423 -236.394121 
L 385.747186 -237.870747 
L 384.950948 -239.058181 
L 384.15471 -239.340021 
L 383.358473 -238.403253 
L 382.562235 -236.331985 
L 381.765998 -233.57593 
L 380.96976 -230.806625 
L 380.173523 -228.713543 
L 379.377285 -227.804983 
L 378.581048 -228.270184 
L 377.78481 -229.938327 
L 376.988573 -232.343192 
L 376.192335 -234.870688 
L 375.396098 -236.94111 
L 374.59986 -238.169997 
L 373.803623 -238.462152 
L 373.007385 -238.014023 
L 372.211148 -237.22741 
L 371.41491 -236.570168 
L 370.618673 -236.441065 
L 369.822435 -237.086541 
L 369.026198 -238.577755 
L 368.22996 -240.823746 
L 367.433722 -243.598182 
L 366.637485 -246.580482 
L 365.841247 -249.418378 
L 365.04501 -251.796637 
L 364.248772 -253.479301 
L 363.452535 -254.311839 
L 362.656297 -254.207236 
L 361.86006 -253.14944 
L 361.063822 -251.214374 
L 360.267585 -248.576795 
L 359.471347 -245.480582 
L 358.67511 -242.185893 
L 357.878872 -238.923456 
L 357.082635 -235.869907 
L 356.286397 -233.135377 
L 355.49016 -230.757747 
L 354.693922 -228.718938 
L 353.897685 -226.995792 
L 353.101447 -225.618431 
L 352.30521 -224.683495 
L 351.508972 -224.298789 
L 350.712734 -224.491691 
L 349.916497 -225.145016 
L 349.120259 -226.0072 
L 348.324022 -226.775707 
L 347.527784 -227.212582 
L 346.731547 -227.241422 
L 345.935309 -226.990186 
L 345.139072 -226.765968 
L 344.342834 -226.968837 
L 343.546597 -227.970949 
L 342.750359 -229.998713 
L 341.954122 -233.051678 
L 341.157884 -236.874875 
L 340.361647 -240.987018 
L 339.565409 -244.766543 
L 338.769172 -247.596466 
L 337.972934 -249.040112 
L 337.176697 -248.977305 
L 336.380459 -247.630195 
L 335.584221 -245.465236 
L 334.787984 -243.023108 
L 333.991746 -240.754749 
L 333.195509 -238.9219 
L 332.399271 -237.58036 
L 331.603034 -236.63195 
L 330.806796 -235.914271 
L 330.010559 -235.291441 
L 329.214321 -234.714125 
L 328.418084 -234.234765 
L 327.621846 -233.98453 
L 326.825609 -234.127622 
L 326.029371 -234.806435 
L 325.233134 -236.08974 
L 324.436896 -237.941264 
L 323.640659 -240.224388 
L 322.844421 -242.74172 
L 322.048184 -245.288324 
L 321.251946 -247.69291 
L 320.455709 -249.835357 
L 319.659471 -251.646031 
L 318.863233 -253.096826 
L 318.066996 -254.187541 
L 317.270758 -254.92787 
L 316.474521 -255.320121 
L 315.678283 -255.350981 
L 314.882046 -254.998297 
L 314.085808 -254.253153 
L 313.289571 -253.151926 
L 312.493333 -251.804917 
L 311.697096 -250.402539 
L 310.900858 -249.186169 
L 310.104621 -248.389576 
L 309.308383 -248.173841 
L 308.512146 -248.581411 
L 307.715908 -249.525265 
L 306.919671 -250.818724 
L 306.123433 -252.239523 
L 305.327196 -253.607339 
L 304.530958 -254.842855 
L 303.73472 -255.981495 
L 302.938483 -257.135797 
L 302.142245 -258.423817 
L 301.346008 -259.893074 
L 300.54977 -261.471183 
L 299.753533 -262.968238 
L 298.957295 -264.140036 
L 298.161058 -264.79027 
L 297.36482 -264.860387 
L 296.568583 -264.456005 
L 295.772345 -263.796578 
L 294.976108 -263.118894 
L 294.17987 -262.580511 
L 293.383633 -262.195597 
L 292.587395 -261.820596 
L 291.791158 -261.200986 
L 290.99492 -260.079105 
L 290.198683 -258.33334 
L 289.402445 -256.083268 
L 288.606208 -253.692681 
L 287.80997 -251.6518 
L 287.013732 -250.391287 
L 286.217495 -250.123095 
L 285.421257 -250.786707 
L 284.62502 -252.118271 
L 283.828782 -253.796581 
L 283.032545 -255.590334 
L 282.236307 -257.444303 
L 281.44007 -259.478147 
L 280.643832 -261.90344 
L 279.847595 -264.883458 
L 279.051357 -268.379531 
L 278.25512 -272.048899 
L 277.458882 -275.263965 
L 276.662645 -277.28475 
L 275.866407 -277.533472 
L 275.07017 -275.842696 
L 274.273932 -272.548889 
L 273.477695 -268.388762 
L 272.681457 -264.257122 
L 271.88522 -260.929583 
L 271.088982 -258.839441 
L 270.292744 -257.968035 
L 269.496507 -257.880354 
L 268.700269 -257.901995 
L 267.904032 -257.383127 
L 267.107794 -255.950307 
L 266.311557 -253.640787 
L 265.515319 -250.863268 
L 264.719082 -248.208748 
L 263.922844 -246.197939 
L 263.126607 -245.071748 
L 262.330369 -244.707211 
L 261.534132 -244.685483 
L 260.737894 -244.471231 
L 259.941657 -243.61766 
L 259.145419 -241.914042 
L 258.349182 -239.436864 
L 257.552944 -236.509966 
L 256.756707 -233.593812 
L 255.960469 -231.127869 
L 255.164231 -229.372294 
L 254.367994 -228.32006 
L 253.571756 -227.733225 
L 252.775519 -227.285634 
L 251.979281 -226.723516 
L 251.183044 -225.950221 
L 250.386806 -225.001779 
L 249.590569 -223.951886 
L 248.794331 -222.815873 
L 247.998094 -221.504916 
L 247.201856 -219.846973 
L 246.405619 -217.6656 
L 245.609381 -214.888856 
L 244.813144 -211.640089 
L 244.016906 -208.259192 
L 243.220669 -205.229744 
L 242.424431 -203.033209 
L 241.628194 -201.986121 
L 240.831956 -202.124196 
L 240.035719 -203.179538 
L 239.239481 -204.664645 
L 238.443243 -206.035561 
L 237.647006 -206.871846 
L 236.850768 -207.002256 
L 236.054531 -206.530325 
L 235.258293 -205.757936 
L 234.462056 -205.044189 
L 233.665818 -204.658061 
L 232.869581 -204.68384 
L 232.073343 -205.017421 
L 231.277106 -205.450011 
L 230.480868 -205.791169 
L 229.684631 -205.965663 
L 228.888393 -206.041109 
L 228.092156 -206.182602 
L 227.295918 -206.559143 
L 226.499681 -207.239379 
L 225.703443 -208.122072 
L 224.907206 -208.945161 
L 224.110968 -209.386377 
L 223.31473 -209.213482 
L 222.518493 -208.405095 
L 221.722255 -207.180946 
L 220.926018 -205.939272 
L 220.12978 -205.14256 
L 219.333543 -205.189459 
L 218.537305 -206.292585 
L 217.741068 -208.392372 
L 216.94483 -211.155066 
L 216.148593 -214.078387 
L 215.352355 -216.660516 
L 214.556118 -218.54212 
L 213.75988 -219.559978 
L 212.963643 -219.725652 
L 212.167405 -219.184949 
L 211.371168 -218.183109 
L 210.57493 -217.015467 
L 209.778693 -215.951639 
L 208.982455 -215.161068 
L 208.186218 -214.677913 
L 207.38998 -214.412921 
L 206.593742 -214.190005 
L 205.797505 -213.787874 
L 205.001267 -212.989605 
L 204.20503 -211.647442 
L 203.408792 -209.747775 
L 202.612555 -207.442062 
L 201.816317 -205.022016 
L 201.02008 -202.844989 
L 200.223842 -201.232672 
L 199.427605 -200.37048 
L 198.631367 -200.239575 
L 197.83513 -200.615078 
L 197.038892 -201.147815 
L 196.242655 -201.507866 
L 195.446417 -201.528566 
L 194.65018 -201.281471 
L 193.853942 -201.045608 
L 193.057705 -201.185253 
L 192.261467 -201.990697 
L 191.46523 -203.550697 
L 190.668992 -205.710802 
L 189.872754 -208.13323 
L 189.076517 -210.429614 
L 188.280279 -212.310618 
L 187.484042 -213.696762 
L 186.687804 -214.750076 
L 185.891567 -215.807409 
L 185.095329 -217.231018 
L 184.299092 -219.236815 
L 183.502854 -221.785045 
L 182.706617 -224.592646 
L 181.910379 -227.260107 
L 181.114142 -229.443396 
L 180.317904 -230.984889 
L 179.521667 -231.951433 
L 178.725429 -232.579277 
L 177.929192 -233.157063 
L 177.132954 -233.886861 
L 176.336717 -234.770877 
L 175.540479 -235.575444 
L 174.744241 -235.90251 
L 173.948004 -235.347074 
L 173.151766 -233.669769 
L 172.355529 -230.903736 
L 171.559291 -227.351091 
L 170.763054 -223.47802 
L 169.966816 -219.757879 
L 169.170579 -216.525961 
L 168.374341 -213.900173 
L 167.578104 -211.792681 
L 166.781866 -209.996643 
L 165.985629 -208.298333 
L 165.189391 -206.559485 
L 164.393154 -204.739762 
L 163.596916 -202.864841 
L 162.800679 -200.969299 
L 162.004441 -199.04966 
L 161.208204 -197.056217 
L 160.411966 -194.935377 
L 159.615729 -192.705245 
L 158.819491 -190.517189 
L 158.023253 -188.648462 
L 157.227016 -187.403836 
L 156.430778 -186.961437 
L 155.634541 -187.239594 
L 154.838303 -187.857483 
L 154.042066 -188.219769 
L 153.245828 -187.701353 
L 152.449591 -185.869163 
L 151.653353 -182.664199 
L 150.857116 -178.477446 
L 150.060878 -174.08068 
L 149.264641 -170.413271 
L 148.468403 -168.275515 
L 147.672166 -168.025337 
L 146.875928 -169.399909 
L 146.079691 -171.562478 
L 145.283453 -173.38729 
L 144.487216 -173.872242 
L 143.690978 -172.495 
L 142.89474 -169.363796 
L 142.098503 -165.134894 
L 141.302265 -160.780958 
L 140.506028 -157.312774 
L 139.70979 -155.512264 
L 138.913553 -155.719473 
L 138.117315 -157.73155 
L 137.321078 -160.865031 
L 136.52484 -164.178664 
L 135.728603 -166.775224 
L 134.932365 -168.053834 
L 134.136128 -167.81809 
L 133.33989 -166.235489 
L 132.543653 -163.714489 
L 131.747415 -160.767747 
L 130.951178 -157.89136 
L 130.15494 -155.465466 
L 129.358703 -153.68311 
L 128.562465 -152.523969 
L 127.766228 -151.789284 
L 126.96999 -151.193451 
L 126.173752 -150.475306 
L 125.377515 -149.480245 
L 124.581277 -148.19033 
L 123.78504 -146.719837 
L 122.988802 -145.304297 
L 122.192565 -144.279875 
L 121.396327 -144.021063 
L 120.60009 -144.823232 
L 119.803852 -146.768998 
L 119.007615 -149.654114 
L 118.211377 -153.026785 
L 117.41514 -156.325137 
L 116.618902 -159.04561 
L 115.822665 -160.876417 
L 115.026427 -161.762867 
L 114.23019 -161.899607 
L 113.433952 -161.658688 
L 112.637715 -161.471049 
L 111.841477 -161.690844 
L 111.04524 -162.483747 
L 110.249002 -163.778321 
L 109.452764 -165.301397 
L 108.656527 -166.686409 
L 107.860289 -167.611319 
L 107.064052 -167.907597 
L 106.267814 -167.597035 
L 105.471577 -166.851359 
L 104.675339 -165.906715 
L 103.879102 -164.978762 
L 103.082864 -164.206687 
L 102.286627 -163.625745 
L 101.490389 -163.155424 
L 100.694152 -162.612237 
L 99.897914 -161.777069 
L 99.101677 -160.507716 
L 98.305439 -158.820818 
L 97.509202 -156.869375 
L 96.712964 -154.825737 
L 95.916727 -152.769669 
L 95.120489 -150.679838 
L 94.324251 -148.515773 
L 93.528014 -146.287422 
L 92.731776 -144.044 
L 91.935539 -141.821636 
L 91.139301 -139.641118 
L 90.343064 -137.568437 
L 89.546826 -135.754182 
L 88.750589 -134.387045 
L 87.954351 -133.586778 
L 87.158114 -133.32001 
L 86.361876 -133.405414 
L 85.565639 -133.598434 
L 84.769401 -133.690816 
L 83.973164 -133.575528 
L 83.176926 -133.268395 
L 82.380689 -132.891532 
L 81.584451 -132.621315 
L 80.788214 -132.616489 
L 79.991976 -132.959461 
L 79.195739 -133.636454 
L 78.399501 -134.554224 
L 77.603263 -135.572657 
L 76.807026 -136.533577 
L 76.010788 -137.27466 
L 75.214551 -137.629784 
L 74.418313 -137.432413 
L 73.622076 -136.543081 
L 72.825838 -134.90327 
L 72.029601 -132.589363 
L 71.233363 -129.825877 
L 70.437126 -126.935112 
L 69.640888 -124.256797 
L 68.844651 -122.103328 
L 68.048413 -120.749 
L 67.252176 -120.386816 
L 66.455938 -121.038052 
L 65.659701 -122.481872 
L 64.863463 -124.280685 
L 64.067226 -125.91128 
L 63.270988 -126.936726 
L 62.47475 -127.138551 
L 61.678513 -126.578927 
L 60.882275 -125.59519 
L 60.086038 -124.711155 
L 59.2898 -124.465351 
L 58.493563 -125.218683 
L 57.697325 -127.025754 
L 56.901088 -129.60801 
L 56.10485 -132.413773 
L 55.308613 -134.760115 
L 54.512375 -136.067935 
L 53.716138 -136.105363 
L 52.9199 -135.074855 
L 52.123663 -133.474156 
L 51.327425 -131.820726 
L 50.531188 -130.413628 
L 49.73495 -129.26346 
L 48.938713 -128.191169 
L 48.142475 -126.998237 
L 47.346238 -125.607552 
L 46.55 -124.127838 
z
" style="stroke: #e41a1c; stroke-opacity: 0.3"/>
    </defs>
    <g clip-path="url(#pe6af0e2bb4)">
     <use xlink:href="#m4ceb581b80" x="0" y="360" style="fill: #e41a1c; fill-opacity: 0.3; stroke: #e41a1c; stroke-opacity: 0.3"/>
    </g>
   </g>
   <g id="PolyCollection_2">
    <defs>
     <path id="m73e50758af" d="M 46.55 -136.618468 
L 46.55 -118.182205 
L 47.346238 -118.218409 
L 48.142475 -118.208288 
L 48.938713 -118.046689 
L 49.73495 -117.643041 
L 50.531188 -116.966883 
L 51.327425 -116.06594 
L 52.123663 -115.053876 
L 52.9199 -114.07705 
L 53.716138 -113.272938 
L 54.512375 -112.730406 
L 55.308613 -112.459884 
L 56.10485 -112.383412 
L 56.901088 -112.354681 
L 57.697325 -112.209645 
L 58.493563 -111.83059 
L 59.2898 -111.193749 
L 60.086038 -110.376905 
L 60.882275 -109.526334 
L 61.678513 -108.804372 
L 62.47475 -108.340205 
L 63.270988 -108.191195 
L 64.067226 -108.314094 
L 64.863463 -108.55947 
L 65.659701 -108.712495 
L 66.455938 -108.581747 
L 67.252176 -108.095426 
L 68.048413 -107.340947 
L 68.844651 -106.519927 
L 69.640888 -105.853884 
L 70.437126 -105.498171 
L 71.233363 -105.496347 
L 72.029601 -105.773726 
L 72.825838 -106.158985 
L 73.622076 -106.432933 
L 74.418313 -106.405643 
L 75.214551 -106.001217 
L 76.010788 -105.306173 
L 76.807026 -104.543954 
L 77.603263 -103.981952 
L 78.399501 -103.821398 
L 79.195739 -104.125451 
L 79.991976 -104.811039 
L 80.788214 -105.694734 
L 81.584451 -106.564711 
L 82.380689 -107.252663 
L 83.176926 -107.687084 
L 83.973164 -107.912171 
L 84.769401 -108.060717 
L 85.565639 -108.285365 
L 86.361876 -108.677518 
L 87.158114 -109.216172 
L 87.954351 -109.774396 
L 88.750589 -110.177965 
L 89.546826 -110.283356 
L 90.343064 -110.037962 
L 91.139301 -109.501184 
L 91.935539 -108.824429 
L 92.731776 -108.198918 
L 93.528014 -107.786535 
L 94.324251 -107.658406 
L 95.120489 -107.769736 
L 95.916727 -107.985821 
L 96.712964 -108.146505 
L 97.509202 -108.135742 
L 98.305439 -107.922475 
L 99.101677 -107.556762 
L 99.897914 -107.127342 
L 100.694152 -106.703872 
L 101.490389 -106.294554 
L 102.286627 -105.844948 
L 103.082864 -105.282975 
L 103.879102 -104.58573 
L 104.675339 -103.826189 
L 105.471577 -103.168734 
L 106.267814 -102.813698 
L 107.064052 -102.919455 
L 107.860289 -103.537905 
L 108.656527 -104.586481 
L 109.452764 -105.861792 
L 110.249002 -107.091903 
L 111.04524 -108.019367 
L 111.841477 -108.49208 
L 112.637715 -108.522819 
L 113.433952 -108.282782 
L 114.23019 -108.023654 
L 115.026427 -107.959737 
L 115.822665 -108.16415 
L 116.618902 -108.528619 
L 117.41514 -108.808022 
L 118.211377 -108.731778 
L 119.007615 -108.131427 
L 119.803852 -107.024953 
L 120.60009 -105.6205 
L 121.396327 -104.241073 
L 122.192565 -103.205039 
L 122.988802 -102.709667 
L 123.78504 -102.757304 
L 124.581277 -103.147707 
L 125.377515 -103.542911 
L 126.173752 -103.590027 
L 126.96999 -103.060353 
L 127.766228 -101.945752 
L 128.562465 -100.466098 
L 129.358703 -98.98451 
L 130.15494 -97.872236 
L 130.951178 -97.382037 
L 131.747415 -97.573388 
L 132.543653 -98.304664 
L 133.33989 -99.286042 
L 134.136128 -100.174289 
L 134.932365 -100.680923 
L 135.728603 -100.659303 
L 136.52484 -100.142433 
L 137.321078 -99.322486 
L 138.117315 -98.484608 
L 138.913553 -97.920937 
L 139.70979 -97.851687 
L 140.506028 -98.373118 
L 141.302265 -99.441297 
L 142.098503 -100.889843 
L 142.89474 -102.472661 
L 143.690978 -103.920393 
L 144.487216 -104.99927 
L 145.283453 -105.560672 
L 146.079691 -105.570059 
L 146.875928 -105.109715 
L 147.672166 -104.357534 
L 148.468403 -103.54855 
L 149.264641 -102.924404 
L 150.060878 -102.676992 
L 150.857116 -102.900032 
L 151.653353 -103.568397 
L 152.449591 -104.557753 
L 153.245828 -105.69674 
L 154.042066 -106.826911 
L 154.838303 -107.84589 
L 155.634541 -108.722634 
L 156.430778 -109.486204 
L 157.227016 -110.195098 
L 158.023253 -110.898274 
L 158.819491 -111.603848 
L 159.615729 -112.271323 
L 160.411966 -112.832726 
L 161.208204 -113.230916 
L 162.004441 -113.454205 
L 162.800679 -113.551844 
L 163.596916 -113.626863 
L 164.393154 -113.811958 
L 165.189391 -114.237199 
L 165.985629 -114.99756 
L 166.781866 -116.126014 
L 167.578104 -117.576376 
L 168.374341 -119.221073 
L 169.170579 -120.869766 
L 169.966816 -122.310267 
L 170.763054 -123.361784 
L 171.559291 -123.919745 
L 172.355529 -123.972976 
L 173.151766 -123.590159 
L 173.948004 -122.88875 
L 174.744241 -122.000721 
L 175.540479 -121.041495 
L 176.336717 -120.082721 
L 177.132954 -119.136829 
L 177.929192 -118.166688 
L 178.725429 -117.124254 
L 179.521667 -116.000396 
L 180.317904 -114.855609 
L 181.114142 -113.813463 
L 181.910379 -113.022473 
L 182.706617 -112.605636 
L 183.502854 -112.614602 
L 184.299092 -112.999314 
L 185.095329 -113.601893 
L 185.891567 -114.181589 
L 186.687804 -114.469816 
L 187.484042 -114.24171 
L 188.280279 -113.382248 
L 189.076517 -111.926434 
L 189.872754 -110.060616 
L 190.668992 -108.081858 
L 191.46523 -106.323071 
L 192.261467 -105.063955 
L 193.057705 -104.455649 
L 193.853942 -104.483052 
L 194.65018 -104.972858 
L 195.446417 -105.638233 
L 196.242655 -106.144522 
L 197.038892 -106.18258 
L 197.83513 -105.539464 
L 198.631367 -104.15379 
L 199.427605 -102.138058 
L 200.223842 -99.752222 
L 201.02008 -97.328657 
L 201.816317 -95.173429 
L 202.612555 -93.482956 
L 203.408792 -92.306936 
L 204.20503 -91.564063 
L 205.001267 -91.092281 
L 205.797505 -90.708035 
L 206.593742 -90.260279 
L 207.38998 -89.676653 
L 208.186218 -88.994027 
L 208.982455 -88.354513 
L 209.778693 -87.953109 
L 210.57493 -87.951058 
L 211.371168 -88.396241 
L 212.167405 -89.19082 
L 212.963643 -90.119506 
L 213.75988 -90.921109 
L 214.556118 -91.372257 
L 215.352355 -91.355711 
L 216.148593 -90.895118 
L 216.94483 -90.145146 
L 217.741068 -89.335821 
L 218.537305 -88.687353 
L 219.333543 -88.328923 
L 220.12978 -88.255957 
L 220.926018 -88.341381 
L 221.722255 -88.390558 
L 222.518493 -88.212725 
L 223.31473 -87.681472 
L 224.110968 -86.766913 
L 224.907206 -85.534451 
L 225.703443 -84.114858 
L 226.499681 -82.657594 
L 227.295918 -81.283018 
L 228.092156 -80.047917 
L 228.888393 -78.934301 
L 229.684631 -77.864275 
L 230.480868 -76.7354 
L 231.277106 -75.462119 
L 232.073343 -74.005257 
L 232.869581 -72.378291 
L 233.665818 -70.633421 
L 234.462056 -68.841358 
L 235.258293 -67.07707 
L 236.054531 -65.413484 
L 236.850768 -63.917222 
L 237.647006 -62.640674 
L 238.443243 -61.609925 
L 239.239481 -60.812388 
L 240.035719 -60.190016 
L 240.831956 -59.645467 
L 241.628194 -59.06698 
L 242.424431 -58.36934 
L 243.220669 -57.535482 
L 244.016906 -56.636661 
L 244.813144 -55.816486 
L 245.609381 -55.242306 
L 246.405619 -55.042289 
L 247.201856 -55.25159 
L 247.998094 -55.786711 
L 248.794331 -56.458784 
L 249.590569 -57.023956 
L 250.386806 -57.256305 
L 251.183044 -57.020157 
L 251.979281 -56.318676 
L 252.775519 -55.302299 
L 253.571756 -54.230699 
L 254.367994 -53.395262 
L 255.164231 -53.025403 
L 255.960469 -53.213584 
L 256.756707 -53.889644 
L 257.552944 -54.853417 
L 258.349182 -55.849453 
L 259.145419 -56.655077 
L 259.941657 -57.154925 
L 260.737894 -57.381126 
L 261.534132 -57.503281 
L 262.330369 -57.763504 
L 263.126607 -58.376147 
L 263.922844 -59.435972 
L 264.719082 -60.878568 
L 265.515319 -62.508898 
L 266.311557 -64.078245 
L 267.107794 -65.370234 
L 267.904032 -66.260982 
L 268.700269 -66.737331 
L 269.496507 -66.874581 
L 270.292744 -66.787355 
L 271.088982 -66.574882 
L 271.88522 -66.28343 
L 272.681457 -65.900841 
L 273.477695 -65.382346 
L 274.273932 -64.691897 
L 275.07017 -63.837734 
L 275.866407 -62.885291 
L 276.662645 -61.942021 
L 277.458882 -61.121347 
L 278.25512 -60.502905 
L 279.051357 -60.109037 
L 279.847595 -59.910568 
L 280.643832 -59.860434 
L 281.44007 -59.938313 
L 282.236307 -60.181334 
L 283.032545 -60.67995 
L 283.828782 -61.536194 
L 284.62502 -62.801922 
L 285.421257 -64.428222 
L 286.217495 -66.253005 
L 287.013732 -68.035055 
L 287.80997 -69.521348 
L 288.606208 -70.522143 
L 289.402445 -70.966967 
L 290.198683 -70.920829 
L 290.99492 -70.553295 
L 291.791158 -70.071662 
L 292.587395 -69.646135 
L 293.383633 -69.358617 
L 294.17987 -69.193903 
L 294.976108 -69.071512 
L 295.772345 -68.899528 
L 296.568583 -68.625528 
L 297.36482 -68.263098 
L 298.161058 -67.883229 
L 298.957295 -67.575193 
L 299.753533 -67.39666 
L 300.54977 -67.339003 
L 301.346008 -67.325684 
L 302.142245 -67.244608 
L 302.938483 -66.999069 
L 303.73472 -66.554631 
L 304.530958 -65.962019 
L 305.327196 -65.346155 
L 306.123433 -64.865201 
L 306.919671 -64.655506 
L 307.715908 -64.783918 
L 308.512146 -65.225432 
L 309.308383 -65.872913 
L 310.104621 -66.572901 
L 310.900858 -67.171297 
L 311.697096 -67.549962 
L 312.493333 -67.641994 
L 313.289571 -67.427968 
L 314.085808 -66.927838 
L 314.882046 -66.201944 
L 315.678283 -65.36019 
L 316.474521 -64.563349 
L 317.270758 -64.001679 
L 318.066996 -63.851509 
L 318.863233 -64.225293 
L 319.659471 -65.133338 
L 320.455709 -66.46834 
L 321.251946 -68.017755 
L 322.048184 -69.505587 
L 322.844421 -70.660133 
L 323.640659 -71.292442 
L 324.436896 -71.358209 
L 325.233134 -70.975196 
L 326.029371 -70.384206 
L 326.825609 -69.86683 
L 327.621846 -69.652935 
L 328.418084 -69.853514 
L 329.214321 -70.441121 
L 330.010559 -71.279601 
L 330.806796 -72.186095 
L 331.603034 -72.998855 
L 332.399271 -73.625751 
L 333.195509 -74.058904 
L 333.991746 -74.355509 
L 334.787984 -74.598071 
L 335.584221 -74.855146 
L 336.380459 -75.162434 
L 337.176697 -75.531815 
L 337.972934 -75.978126 
L 338.769172 -76.54148 
L 339.565409 -77.286539 
L 340.361647 -78.277219 
L 341.157884 -79.54171 
L 341.954122 -81.046035 
L 342.750359 -82.687447 
L 343.546597 -84.310088 
L 344.342834 -85.740694 
L 345.139072 -86.836189 
L 345.935309 -87.526935 
L 346.731547 -87.835306 
L 347.527784 -87.85783 
L 348.324022 -87.718107 
L 349.120259 -87.515066 
L 349.916497 -87.29329 
L 350.712734 -87.047727 
L 351.508972 -86.754594 
L 352.30521 -86.407396 
L 353.101447 -86.037275 
L 353.897685 -85.707599 
L 354.693922 -85.486563 
L 355.49016 -85.412638 
L 356.286397 -85.470345 
L 357.082635 -85.588584 
L 357.878872 -85.663224 
L 358.67511 -85.596474 
L 359.471347 -85.339608 
L 360.267585 -84.92285 
L 361.063822 -84.456595 
L 361.86006 -84.095181 
L 362.656297 -83.970299 
L 363.452535 -84.120337 
L 364.248772 -84.452086 
L 365.04501 -84.760235 
L 365.841247 -84.802229 
L 366.637485 -84.396405 
L 367.433722 -83.498773 
L 368.22996 -82.225452 
L 369.026198 -80.815327 
L 369.822435 -79.55224 
L 370.618673 -78.676088 
L 371.41491 -78.309606 
L 372.211148 -78.421541 
L 373.007385 -78.8406 
L 373.803623 -79.32172 
L 374.59986 -79.644496 
L 375.396098 -79.704197 
L 376.192335 -79.553764 
L 376.988573 -79.377394 
L 377.78481 -79.409601 
L 378.581048 -79.836774 
L 379.377285 -80.719337 
L 380.173523 -81.958465 
L 380.96976 -83.314995 
L 381.765998 -84.475376 
L 382.562235 -85.146885 
L 383.358473 -85.152805 
L 384.15471 -84.494606 
L 384.950948 -83.358908 
L 385.747186 -82.068981 
L 386.543423 -80.999328 
L 387.339661 -80.478604 
L 388.135898 -80.70303 
L 388.932136 -81.679427 
L 389.728373 -83.215484 
L 390.524611 -84.967995 
L 391.320848 -86.542107 
L 392.117086 -87.612243 
L 392.913323 -88.021861 
L 393.709561 -87.82635 
L 394.505798 -87.267864 
L 395.302036 -86.697168 
L 396.098273 -86.471015 
L 396.894511 -86.854333 
L 397.690748 -87.950459 
L 398.486986 -89.675519 
L 399.283223 -91.784977 
L 400.079461 -93.948053 
L 400.875699 -95.849466 
L 401.671936 -97.284605 
L 402.468174 -98.213311 
L 403.264411 -98.75323 
L 404.060649 -99.119051 
L 404.856886 -99.535831 
L 405.653124 -100.161648 
L 406.449361 -101.046141 
L 407.245599 -102.133667 
L 408.041836 -103.302785 
L 408.838074 -104.423071 
L 409.634311 -105.406487 
L 410.430549 -106.235511 
L 411.226786 -106.96235 
L 412.023024 -107.686821 
L 412.819261 -108.526957 
L 413.615499 -109.593262 
L 413.615499 -150.701736 
L 413.615499 -150.701736 
L 412.819261 -149.57781 
L 412.023024 -148.654418 
L 411.226786 -147.809644 
L 410.430549 -146.915179 
L 409.634311 -145.872148 
L 408.838074 -144.645691 
L 408.041836 -143.282809 
L 407.245599 -141.902689 
L 406.449361 -140.657996 
L 405.653124 -139.676704 
L 404.856886 -139.004263 
L 404.060649 -138.570276 
L 403.264411 -138.196854 
L 402.468174 -137.649735 
L 401.671936 -136.715565 
L 400.875699 -135.278927 
L 400.079461 -133.373821 
L 399.283223 -131.191862 
L 398.486986 -129.040341 
L 397.690748 -127.257073 
L 396.894511 -126.105014 
L 396.098273 -125.681674 
L 395.302036 -125.87864 
L 394.505798 -126.41056 
L 393.709561 -126.905237 
L 392.913323 -127.020873 
L 392.117086 -126.547297 
L 391.320848 -125.459315 
L 390.524611 -123.913748 
L 389.728373 -122.201122 
L 388.932136 -120.669707 
L 388.135898 -119.63735 
L 387.339661 -119.307052 
L 386.543423 -119.706891 
L 385.747186 -120.675975 
L 384.950948 -121.906958 
L 384.15471 -123.034381 
L 383.358473 -123.738735 
L 382.562235 -123.831903 
L 381.765998 -123.300355 
L 380.96976 -122.298427 
L 380.173523 -121.095505 
L 379.377285 -119.99027 
L 378.581048 -119.215662 
L 377.78481 -118.866828 
L 376.988573 -118.880532 
L 376.192335 -119.074002 
L 375.396098 -119.225149 
L 374.59986 -119.160627 
L 373.803623 -118.82071 
L 373.007385 -118.283222 
L 372.211148 -117.740904 
L 371.41491 -117.435964 
L 370.618673 -117.568726 
L 369.822435 -118.212652 
L 369.026198 -119.274147 
L 368.22996 -120.520252 
L 367.433722 -121.664481 
L 366.637485 -122.471207 
L 365.841247 -122.832573 
L 365.04501 -122.790657 
L 364.248772 -122.505648 
L 363.452535 -122.190032 
L 362.656297 -122.034279 
L 361.86006 -122.146566 
L 361.063822 -122.523687 
L 360.267585 -123.0621 
L 359.471347 -123.606264 
L 358.67511 -124.016163 
L 357.878872 -124.224825 
L 357.082635 -124.258778 
L 356.286397 -124.212927 
L 355.49016 -124.195873 
L 354.693922 -124.276623 
L 353.897685 -124.460077 
L 353.101447 -124.699828 
L 352.30521 -124.935721 
L 351.508972 -125.13195 
L 350.712734 -125.294439 
L 349.916497 -125.459007 
L 349.120259 -125.658202 
L 348.324022 -125.885464 
L 347.527784 -126.07561 
L 346.731547 -126.111349 
L 345.935309 -125.853895 
L 345.139072 -125.187489 
L 344.342834 -124.063916 
L 343.546597 -122.531128 
L 342.750359 -120.731562 
L 341.954122 -118.86511 
L 341.157884 -117.129058 
L 340.361647 -115.661636 
L 339.565409 -114.51511 
L 338.769172 -113.666194 
L 337.972934 -113.050388 
L 337.176697 -112.597445 
L 336.380459 -112.252596 
L 335.584221 -111.980003 
L 334.787984 -111.752929 
L 333.991746 -111.538444 
L 333.195509 -111.286899 
L 332.399271 -110.936442 
L 331.603034 -110.43633 
L 330.806796 -109.780154 
L 330.010559 -109.029982 
L 329.214321 -108.313196 
L 328.418084 -107.786248 
L 327.621846 -107.576591 
L 326.825609 -107.725934 
L 326.029371 -108.15924 
L 325.233134 -108.694532 
L 324.436896 -109.092156 
L 323.640659 -109.127121 
L 322.844421 -108.660631 
L 322.048184 -107.687631 
L 321.251946 -106.34375 
L 320.455709 -104.866284 
L 319.659471 -103.520578 
L 318.863233 -102.519564 
L 318.066996 -101.969207 
L 317.270758 -101.859473 
L 316.474521 -102.095654 
L 315.678283 -102.545057 
L 314.882046 -103.073994 
L 314.085808 -103.565765 
L 313.289571 -103.927044 
L 312.493333 -104.093295 
L 311.697096 -104.035555 
L 310.900858 -103.764733 
L 310.104621 -103.330637 
L 309.308383 -102.816889 
L 308.512146 -102.331195 
L 307.715908 -101.987056 
L 306.919671 -101.875462 
L 306.123433 -102.033962 
L 305.327196 -102.427795 
L 304.530958 -102.955677 
L 303.73472 -103.482659 
L 302.938483 -103.88871 
L 302.142245 -104.112751 
L 301.346008 -104.172006 
L 300.54977 -104.147283 
L 299.753533 -104.141276 
L 298.957295 -104.229947 
L 298.161058 -104.429617 
L 297.36482 -104.694325 
L 296.568583 -104.944094 
L 295.772345 -105.111092 
L 294.976108 -105.181095 
L 294.17987 -105.207325 
L 293.383633 -105.285492 
L 292.587395 -105.499056 
L 291.791158 -105.861384 
L 290.99492 -106.284783 
L 290.198683 -106.59357 
L 289.402445 -106.578467 
L 288.606208 -106.072581 
L 287.80997 -105.019494 
L 287.013732 -103.504647 
L 286.217495 -101.734079 
L 285.421257 -99.967395 
L 284.62502 -98.433847 
L 283.828782 -97.267487 
L 283.032545 -96.485626 
L 282.236307 -96.013183 
L 281.44007 -95.736962 
L 280.643832 -95.565327 
L 279.847595 -95.469274 
L 279.051357 -95.489435 
L 278.25512 -95.706684 
L 277.458882 -96.191374 
L 276.662645 -96.955889 
L 275.866407 -97.933902 
L 275.07017 -98.996677 
L 274.273932 -99.998403 
L 273.477695 -100.827756 
L 272.681457 -101.439961 
L 271.88522 -101.85414 
L 271.088982 -102.118917 
L 270.292744 -102.265445 
L 269.496507 -102.272604 
L 268.700269 -102.063517 
L 267.904032 -101.537976 
L 267.107794 -100.627806 
L 266.311557 -99.348253 
L 265.515319 -97.816779 
L 264.719082 -96.226363 
L 263.922844 -94.78506 
L 263.126607 -93.649335 
L 262.330369 -92.876871 
L 261.534132 -92.411357 
L 260.737894 -92.10115 
L 259.941657 -91.749382 
L 259.145419 -91.187222 
L 258.349182 -90.347608 
L 257.552944 -89.304808 
L 256.756707 -88.25466 
L 255.960469 -87.441047 
L 255.164231 -87.062548 
L 254.367994 -87.19888 
L 253.571756 -87.781905 
L 252.775519 -88.616259 
L 251.979281 -89.44047 
L 251.183044 -90.009864 
L 250.386806 -90.17478 
L 249.590569 -89.925725 
L 248.794331 -89.388261 
L 247.998094 -88.771759 
L 247.201856 -88.294939 
L 246.405619 -88.117344 
L 245.609381 -88.299672 
L 244.813144 -88.802372 
L 244.016906 -89.517175 
L 243.220669 -90.314215 
L 242.424431 -91.085154 
L 241.628194 -91.769891 
L 240.831956 -92.365629 
L 240.035719 -92.921834 
L 239.239481 -93.523833 
L 238.443243 -94.267492 
L 237.647006 -95.231342 
L 236.850768 -96.455216 
L 236.054531 -97.931568 
L 235.258293 -99.609258 
L 234.462056 -101.405823 
L 233.665818 -103.2248 
L 232.869581 -104.975825 
L 232.073343 -106.593429 
L 231.277106 -108.04874 
L 230.480868 -109.351209 
L 229.684631 -110.542962 
L 228.888393 -111.689562 
L 228.092156 -112.866433 
L 227.295918 -114.137049 
L 226.499681 -115.524532 
L 225.703443 -116.98816 
L 224.907206 -118.420327 
L 224.110968 -119.673053 
L 223.31473 -120.608731 
L 222.518493 -121.156054 
L 221.722255 -121.346166 
L 220.926018 -121.310352 
L 220.12978 -121.237077 
L 219.333543 -121.305041 
L 218.537305 -121.619518 
L 217.741068 -122.175495 
L 216.94483 -122.858465 
L 216.148593 -123.480785 
L 215.352355 -123.843537 
L 214.556118 -123.806907 
L 213.75988 -123.345108 
L 212.963643 -122.561216 
L 212.167405 -121.65178 
L 211.371168 -120.836997 
L 210.57493 -120.28975 
L 209.778693 -120.091859 
L 208.982455 -120.225835 
L 208.186218 -120.595013 
L 207.38998 -121.062751 
L 206.593742 -121.505962 
L 205.797505 -121.872494 
L 205.001267 -122.217617 
L 204.20503 -122.692725 
L 203.408792 -123.483241 
L 202.612555 -124.725835 
L 201.816317 -126.447 
L 201.02008 -128.54727 
L 200.223842 -130.82588 
L 199.427605 -133.025938 
L 198.631367 -134.884209 
L 197.83513 -136.181291 
L 197.038892 -136.7926 
L 196.242655 -136.732557 
L 195.446417 -136.172905 
L 194.65018 -135.416573 
L 193.853942 -134.82606 
L 193.057705 -134.72672 
L 192.261467 -135.317407 
L 191.46523 -136.617562 
L 190.668992 -138.463964 
L 189.872754 -140.554426 
L 189.076517 -142.525791 
L 188.280279 -144.047965 
L 187.484042 -144.910058 
L 186.687804 -145.072575 
L 185.891567 -144.668301 
L 185.095329 -143.952815 
L 184.299092 -143.22373 
L 183.502854 -142.736207 
L 182.706617 -142.640981 
L 181.910379 -142.962949 
L 181.114142 -143.624857 
L 180.317904 -144.502448 
L 179.521667 -145.482645 
L 178.725429 -146.497223 
L 177.929192 -147.522944 
L 177.132954 -148.56121 
L 176.336717 -149.616137 
L 175.540479 -150.677576 
L 174.744241 -151.706029 
L 173.948004 -152.621606 
L 173.151766 -153.307954 
L 172.355529 -153.638266 
L 171.559291 -153.514211 
L 170.763054 -152.898602 
L 169.966816 -151.827192 
L 169.170579 -150.402241 
L 168.374341 -148.777391 
L 167.578104 -147.137062 
L 166.781866 -145.665941 
L 165.985629 -144.508138 
L 165.189391 -143.727603 
L 164.393154 -143.288391 
L 163.596916 -143.067919 
L 162.800679 -142.901044 
L 162.004441 -142.637912 
L 161.208204 -142.19202 
L 160.411966 -141.559398 
L 159.615729 -140.802917 
L 158.819491 -140.011756 
L 158.023253 -139.256034 
L 157.227016 -138.554825 
L 156.430778 -137.867558 
L 155.634541 -137.111528 
L 154.838303 -136.201713 
L 154.042066 -135.099925 
L 153.245828 -133.850857 
L 152.449591 -132.584418 
L 151.653353 -131.480564 
L 150.857116 -130.712786 
L 150.060878 -130.393713 
L 149.264641 -130.538629 
L 148.468403 -131.053144 
L 147.672166 -131.748104 
L 146.875928 -132.382419 
L 146.079691 -132.72504 
L 145.283453 -132.615628 
L 144.487216 -132.002005 
L 143.690978 -130.944996 
L 142.89474 -129.596534 
L 142.098503 -128.164066 
L 141.302265 -126.870186 
L 140.506028 -125.91136 
L 139.70979 -125.418637 
L 138.913553 -125.426 
L 138.117315 -125.854328 
L 137.321078 -126.519249 
L 136.52484 -127.168065 
L 135.728603 -127.543189 
L 134.932365 -127.458436 
L 134.136128 -126.865843 
L 133.33989 -125.888333 
L 132.543653 -124.799953 
L 131.747415 -123.94929 
L 130.951178 -123.643506 
L 130.15494 -124.033515 
L 129.358703 -125.050116 
L 128.562465 -126.423563 
L 127.766228 -127.780054 
L 126.96999 -128.774073 
L 126.173752 -129.205704 
L 125.377515 -129.085296 
L 124.581277 -128.627718 
L 123.78504 -128.17546 
L 122.988802 -128.069932 
L 122.192565 -128.515763 
L 121.396327 -129.497019 
L 120.60009 -130.78724 
L 119.803852 -132.0496 
L 119.007615 -132.977741 
L 118.211377 -133.411787 
L 117.41514 -133.382578 
L 116.618902 -133.074252 
L 115.822665 -132.729685 
L 115.026427 -132.540834 
L 114.23019 -132.56669 
L 113.433952 -132.709102 
L 112.637715 -132.754809 
L 111.841477 -132.466829 
L 111.04524 -131.689677 
L 110.249002 -130.427885 
L 109.452764 -128.86541 
L 108.656527 -127.312619 
L 107.860289 -126.095866 
L 107.064052 -125.434973 
L 106.267814 -125.367696 
L 105.471577 -125.758463 
L 104.675339 -126.379676 
L 103.879102 -127.015693 
L 103.082864 -127.537797 
L 102.286627 -127.924508 
L 101.490389 -128.232737 
L 100.694152 -128.54377 
L 99.897914 -128.909147 
L 99.101677 -129.316237 
L 98.305439 -129.68718 
L 97.509202 -129.913687 
L 96.712964 -129.912586 
L 95.916727 -129.674166 
L 95.120489 -129.278356 
L 94.324251 -128.870386 
L 93.528014 -128.605596 
L 92.731776 -128.584682 
L 91.935539 -128.804817 
L 91.139301 -129.150144 
L 90.343064 -129.432871 
L 89.546826 -129.471465 
L 88.750589 -129.167204 
L 87.954351 -128.539247 
L 87.158114 -127.704077 
L 86.361876 -126.816223 
L 85.565639 -126.001459 
L 84.769401 -125.309226 
L 83.973164 -124.699056 
L 83.176926 -124.06517 
L 82.380689 -123.293332 
L 81.584451 -122.33084 
L 80.788214 -121.236285 
L 79.991976 -120.176585 
L 79.195739 -119.364484 
L 78.399501 -118.96636 
L 77.603263 -119.029574 
L 76.807026 -119.464482 
L 76.010788 -120.081816 
L 75.214551 -120.659471 
L 74.418313 -121.01 
L 73.622076 -121.03463 
L 72.825838 -120.757696 
L 72.029601 -120.32576 
L 71.233363 -119.954682 
L 70.437126 -119.835413 
L 69.640888 -120.044757 
L 68.844651 -120.514769 
L 68.048413 -121.07822 
L 67.252176 -121.555189 
L 66.455938 -121.825994 
L 65.659701 -121.85999 
L 64.863463 -121.711901 
L 64.067226 -121.508868 
L 63.270988 -121.423775 
L 62.47475 -121.619947 
L 61.678513 -122.179928 
L 60.882275 -123.059814 
L 60.086038 -124.103862 
L 59.2898 -125.113259 
L 58.493563 -125.927316 
L 57.697325 -126.477261 
L 56.901088 -126.799389 
L 56.10485 -127.015161 
L 55.308613 -127.290714 
L 54.512375 -127.784442 
L 53.716138 -128.593468 
L 52.9199 -129.716271 
L 52.123663 -131.049708 
L 51.327425 -132.426062 
L 50.531188 -133.67494 
L 49.73495 -134.681555 
L 48.938713 -135.416206 
L 48.142475 -135.926157 
L 47.346238 -136.29931 
L 46.55 -136.618468 
z
" style="stroke: #377eb8; stroke-opacity: 0.3"/>
    </defs>
    <g clip-path="url(#pe6af0e2bb4)">
     <use xlink:href="#m73e50758af" x="0" y="360" style="fill: #377eb8; fill-opacity: 0.3; stroke: #377eb8; stroke-opacity: 0.3"/>
    </g>
   </g>
   <g id="patch_3">
    <path d="M 229.843878 318.2 
L 229.843878 71.241125 
L 331.762281 71.241125 
L 331.762281 318.2 
z
" clip-path="url(#pe6af0e2bb4)" style="fill: #808080; opacity: 0.3"/>
   </g>
   <g id="matplotlib.axis_1">
    <g id="xtick_1">
     <g id="line2d_1">
      <defs>
       <path id="m9751054a24" d="M 0 0 
L 0 3.5 
" style="stroke: #000000; stroke-width: 0.8"/>
      </defs>
      <g>
       <use xlink:href="#m9751054a24" x="87.158114" y="318.2" style="stroke: #000000; stroke-width: 0.8"/>
      </g>
     </g>
     <g id="text_1">
      <!-- 0.0 -->
      <g transform="translate(79.206551 332.798437)scale(0.1 -0.1)">
       <defs>
        <path id="DejaVuSans-30" d="M 2034 4250 
Q 1547 4250 1301 3770 
Q 1056 3291 1056 2328 
Q 1056 1369 1301 889 
Q 1547 409 2034 409 
Q 2525 409 2770 889 
Q 3016 1369 3016 2328 
Q 3016 3291 2770 3770 
Q 2525 4250 2034 4250 
z
M 2034 4750 
Q 2819 4750 3233 4129 
Q 3647 3509 3647 2328 
Q 3647 1150 3233 529 
Q 2819 -91 2034 -91 
Q 1250 -91 836 529 
Q 422 1150 422 2328 
Q 422 3509 836 4129 
Q 1250 4750 2034 4750 
z
" transform="scale(0.015625)"/>
        <path id="DejaVuSans-2e" d="M 684 794 
L 1344 794 
L 1344 0 
L 684 0 
L 684 794 
z
" transform="scale(0.015625)"/>
       </defs>
       <use xlink:href="#DejaVuSans-30"/>
       <use xlink:href="#DejaVuSans-2e" x="63.623047"/>
       <use xlink:href="#DejaVuSans-30" x="95.410156"/>
      </g>
     </g>
    </g>
    <g id="xtick_2">
     <g id="line2d_2">
      <g>
       <use xlink:href="#m9751054a24" x="168.692836" y="318.2" style="stroke: #000000; stroke-width: 0.8"/>
      </g>
     </g>
     <g id="text_2">
      <!-- 0.2 -->
      <g transform="translate(160.741274 332.798437)scale(0.1 -0.1)">
       <defs>
        <path id="DejaVuSans-32" d="M 1228 531 
L 3431 531 
L 3431 0 
L 469 0 
L 469 531 
Q 828 903 1448 1529 
Q 2069 2156 2228 2338 
Q 2531 2678 2651 2914 
Q 2772 3150 2772 3378 
Q 2772 3750 2511 3984 
Q 2250 4219 1831 4219 
Q 1534 4219 1204 4116 
Q 875 4013 500 3803 
L 500 4441 
Q 881 4594 1212 4672 
Q 1544 4750 1819 4750 
Q 2544 4750 2975 4387 
Q 3406 4025 3406 3419 
Q 3406 3131 3298 2873 
Q 3191 2616 2906 2266 
Q 2828 2175 2409 1742 
Q 1991 1309 1228 531 
z
" transform="scale(0.015625)"/>
       </defs>
       <use xlink:href="#DejaVuSans-30"/>
       <use xlink:href="#DejaVuSans-2e" x="63.623047"/>
       <use xlink:href="#DejaVuSans-32" x="95.410156"/>
      </g>
     </g>
    </g>
    <g id="xtick_3">
     <g id="line2d_3">
      <g>
       <use xlink:href="#m9751054a24" x="250.227559" y="318.2" style="stroke: #000000; stroke-width: 0.8"/>
      </g>
     </g>
     <g id="text_3">
      <!-- 0.4 -->
      <g transform="translate(242.275996 332.798437)scale(0.1 -0.1)">
       <defs>
        <path id="DejaVuSans-34" d="M 2419 4116 
L 825 1625 
L 2419 1625 
L 2419 4116 
z
M 2253 4666 
L 3047 4666 
L 3047 1625 
L 3713 1625 
L 3713 1100 
L 3047 1100 
L 3047 0 
L 2419 0 
L 2419 1100 
L 313 1100 
L 313 1709 
L 2253 4666 
z
" transform="scale(0.015625)"/>
       </defs>
       <use xlink:href="#DejaVuSans-30"/>
       <use xlink:href="#DejaVuSans-2e" x="63.623047"/>
       <use xlink:href="#DejaVuSans-34" x="95.410156"/>
      </g>
     </g>
    </g>
    <g id="xtick_4">
     <g id="line2d_4">
      <g>
       <use xlink:href="#m9751054a24" x="331.762281" y="318.2" style="stroke: #000000; stroke-width: 0.8"/>
      </g>
     </g>
     <g id="text_4">
      <!-- 0.6 -->
      <g transform="translate(323.810719 332.798437)scale(0.1 -0.1)">
       <defs>
        <path id="DejaVuSans-36" d="M 2113 2584 
Q 1688 2584 1439 2293 
Q 1191 2003 1191 1497 
Q 1191 994 1439 701 
Q 1688 409 2113 409 
Q 2538 409 2786 701 
Q 3034 994 3034 1497 
Q 3034 2003 2786 2293 
Q 2538 2584 2113 2584 
z
M 3366 4563 
L 3366 3988 
Q 3128 4100 2886 4159 
Q 2644 4219 2406 4219 
Q 1781 4219 1451 3797 
Q 1122 3375 1075 2522 
Q 1259 2794 1537 2939 
Q 1816 3084 2150 3084 
Q 2853 3084 3261 2657 
Q 3669 2231 3669 1497 
Q 3669 778 3244 343 
Q 2819 -91 2113 -91 
Q 1303 -91 875 529 
Q 447 1150 447 2328 
Q 447 3434 972 4092 
Q 1497 4750 2381 4750 
Q 2619 4750 2861 4703 
Q 3103 4656 3366 4563 
z
" transform="scale(0.015625)"/>
       </defs>
       <use xlink:href="#DejaVuSans-30"/>
       <use xlink:href="#DejaVuSans-2e" x="63.623047"/>
       <use xlink:href="#DejaVuSans-36" x="95.410156"/>
      </g>
     </g>
    </g>
    <g id="xtick_5">
     <g id="line2d_5">
      <g>
       <use xlink:href="#m9751054a24" x="413.297004" y="318.2" style="stroke: #000000; stroke-width: 0.8"/>
      </g>
     </g>
     <g id="text_5">
      <!-- 0.8 -->
      <g transform="translate(405.345441 332.798437)scale(0.1 -0.1)">
       <defs>
        <path id="DejaVuSans-38" d="M 2034 2216 
Q 1584 2216 1326 1975 
Q 1069 1734 1069 1313 
Q 1069 891 1326 650 
Q 1584 409 2034 409 
Q 2484 409 2743 651 
Q 3003 894 3003 1313 
Q 3003 1734 2745 1975 
Q 2488 2216 2034 2216 
z
M 1403 2484 
Q 997 2584 770 2862 
Q 544 3141 544 3541 
Q 544 4100 942 4425 
Q 1341 4750 2034 4750 
Q 2731 4750 3128 4425 
Q 3525 4100 3525 3541 
Q 3525 3141 3298 2862 
Q 3072 2584 2669 2484 
Q 3125 2378 3379 2068 
Q 3634 1759 3634 1313 
Q 3634 634 3220 271 
Q 2806 -91 2034 -91 
Q 1263 -91 848 271 
Q 434 634 434 1313 
Q 434 1759 690 2068 
Q 947 2378 1403 2484 
z
M 1172 3481 
Q 1172 3119 1398 2916 
Q 1625 2713 2034 2713 
Q 2441 2713 2670 2916 
Q 2900 3119 2900 3481 
Q 2900 3844 2670 4047 
Q 2441 4250 2034 4250 
Q 1625 4250 1398 4047 
Q 1172 3844 1172 3481 
z
" transform="scale(0.015625)"/>
       </defs>
       <use xlink:href="#DejaVuSans-30"/>
       <use xlink:href="#DejaVuSans-2e" x="63.623047"/>
       <use xlink:href="#DejaVuSans-38" x="95.410156"/>
      </g>
     </g>
    </g>
    <g id="text_6">
     <!-- seconds -->
     <g transform="translate(209.645249 346.476562)scale(0.1 -0.1)">
      <defs>
       <path id="DejaVuSans-73" d="M 2834 3397 
L 2834 2853 
Q 2591 2978 2328 3040 
Q 2066 3103 1784 3103 
Q 1356 3103 1142 2972 
Q 928 2841 928 2578 
Q 928 2378 1081 2264 
Q 1234 2150 1697 2047 
L 1894 2003 
Q 2506 1872 2764 1633 
Q 3022 1394 3022 966 
Q 3022 478 2636 193 
Q 2250 -91 1575 -91 
Q 1294 -91 989 -36 
Q 684 19 347 128 
L 347 722 
Q 666 556 975 473 
Q 1284 391 1588 391 
Q 1994 391 2212 530 
Q 2431 669 2431 922 
Q 2431 1156 2273 1281 
Q 2116 1406 1581 1522 
L 1381 1569 
Q 847 1681 609 1914 
Q 372 2147 372 2553 
Q 372 3047 722 3315 
Q 1072 3584 1716 3584 
Q 2034 3584 2315 3537 
Q 2597 3491 2834 3397 
z
" transform="scale(0.015625)"/>
       <path id="DejaVuSans-65" d="M 3597 1894 
L 3597 1613 
L 953 1613 
Q 991 1019 1311 708 
Q 1631 397 2203 397 
Q 2534 397 2845 478 
Q 3156 559 3463 722 
L 3463 178 
Q 3153 47 2828 -22 
Q 2503 -91 2169 -91 
Q 1331 -91 842 396 
Q 353 884 353 1716 
Q 353 2575 817 3079 
Q 1281 3584 2069 3584 
Q 2775 3584 3186 3129 
Q 3597 2675 3597 1894 
z
M 3022 2063 
Q 3016 2534 2758 2815 
Q 2500 3097 2075 3097 
Q 1594 3097 1305 2825 
Q 1016 2553 972 2059 
L 3022 2063 
z
" transform="scale(0.015625)"/>
       <path id="DejaVuSans-63" d="M 3122 3366 
L 3122 2828 
Q 2878 2963 2633 3030 
Q 2388 3097 2138 3097 
Q 1578 3097 1268 2742 
Q 959 2388 959 1747 
Q 959 1106 1268 751 
Q 1578 397 2138 397 
Q 2388 397 2633 464 
Q 2878 531 3122 666 
L 3122 134 
Q 2881 22 2623 -34 
Q 2366 -91 2075 -91 
Q 1284 -91 818 406 
Q 353 903 353 1747 
Q 353 2603 823 3093 
Q 1294 3584 2113 3584 
Q 2378 3584 2631 3529 
Q 2884 3475 3122 3366 
z
" transform="scale(0.015625)"/>
       <path id="DejaVuSans-6f" d="M 1959 3097 
Q 1497 3097 1228 2736 
Q 959 2375 959 1747 
Q 959 1119 1226 758 
Q 1494 397 1959 397 
Q 2419 397 2687 759 
Q 2956 1122 2956 1747 
Q 2956 2369 2687 2733 
Q 2419 3097 1959 3097 
z
M 1959 3584 
Q 2709 3584 3137 3096 
Q 3566 2609 3566 1747 
Q 3566 888 3137 398 
Q 2709 -91 1959 -91 
Q 1206 -91 779 398 
Q 353 888 353 1747 
Q 353 2609 779 3096 
Q 1206 3584 1959 3584 
z
" transform="scale(0.015625)"/>
       <path id="DejaVuSans-6e" d="M 3513 2113 
L 3513 0 
L 2938 0 
L 2938 2094 
Q 2938 2591 2744 2837 
Q 2550 3084 2163 3084 
Q 1697 3084 1428 2787 
Q 1159 2491 1159 1978 
L 1159 0 
L 581 0 
L 581 3500 
L 1159 3500 
L 1159 2956 
Q 1366 3272 1645 3428 
Q 1925 3584 2291 3584 
Q 2894 3584 3203 3211 
Q 3513 2838 3513 2113 
z
" transform="scale(0.015625)"/>
       <path id="DejaVuSans-64" d="M 2906 2969 
L 2906 4863 
L 3481 4863 
L 3481 0 
L 2906 0 
L 2906 525 
Q 2725 213 2448 61 
Q 2172 -91 1784 -91 
Q 1150 -91 751 415 
Q 353 922 353 1747 
Q 353 2572 751 3078 
Q 1150 3584 1784 3584 
Q 2172 3584 2448 3432 
Q 2725 3281 2906 2969 
z
M 947 1747 
Q 947 1113 1208 752 
Q 1469 391 1925 391 
Q 2381 391 2643 752 
Q 2906 1113 2906 1747 
Q 2906 2381 2643 2742 
Q 2381 3103 1925 3103 
Q 1469 3103 1208 2742 
Q 947 2381 947 1747 
z
" transform="scale(0.015625)"/>
      </defs>
      <use xlink:href="#DejaVuSans-73"/>
      <use xlink:href="#DejaVuSans-65" x="52.099609"/>
      <use xlink:href="#DejaVuSans-63" x="113.623047"/>
      <use xlink:href="#DejaVuSans-6f" x="168.603516"/>
      <use xlink:href="#DejaVuSans-6e" x="229.785156"/>
      <use xlink:href="#DejaVuSans-64" x="293.164062"/>
      <use xlink:href="#DejaVuSans-73" x="356.640625"/>
     </g>
    </g>
   </g>
   <g id="matplotlib.axis_2">
    <g id="ytick_1">
     <g id="line2d_6">
      <defs>
       <path id="mc01fcfc2b6" d="M 0 0 
L -3.5 0 
" style="stroke: #000000; stroke-width: 0.8"/>
      </defs>
      <g>
       <use xlink:href="#mc01fcfc2b6" x="46.55" y="298.297007" style="stroke: #000000; stroke-width: 0.8"/>
      </g>
     </g>
     <g id="text_7">
      <!-- 2 -->
      <g transform="translate(24.807812 302.096226)scale(0.1 -0.1)">
       <defs>
        <path id="DejaVuSans-2212" d="M 678 2272 
L 4684 2272 
L 4684 1741 
L 678 1741 
L 678 2272 
z
" transform="scale(0.015625)"/>
       </defs>
       <use xlink:href="#DejaVuSans-2212"/>
       <use xlink:href="#DejaVuSans-32" x="83.789062"/>
      </g>
     </g>
    </g>
    <g id="ytick_2">
     <g id="line2d_7">
      <g>
       <use xlink:href="#mc01fcfc2b6" x="46.55" y="270.584868" style="stroke: #000000; stroke-width: 0.8"/>
      </g>
     </g>
     <g id="text_8">
      <!-- 1 -->
      <g transform="translate(24.807812 274.384087)scale(0.1 -0.1)">
       <defs>
        <path id="DejaVuSans-31" d="M 794 531 
L 1825 531 
L 1825 4091 
L 703 3866 
L 703 4441 
L 1819 4666 
L 2450 4666 
L 2450 531 
L 3481 531 
L 3481 0 
L 794 0 
L 794 531 
z
" transform="scale(0.015625)"/>
       </defs>
       <use xlink:href="#DejaVuSans-2212"/>
       <use xlink:href="#DejaVuSans-31" x="83.789062"/>
      </g>
     </g>
    </g>
    <g id="ytick_3">
     <g id="line2d_8">
      <g>
       <use xlink:href="#mc01fcfc2b6" x="46.55" y="242.872729" style="stroke: #000000; stroke-width: 0.8"/>
      </g>
     </g>
     <g id="text_9">
      <!-- 0 -->
      <g transform="translate(33.1875 246.671948)scale(0.1 -0.1)">
       <use xlink:href="#DejaVuSans-30"/>
      </g>
     </g>
    </g>
    <g id="ytick_4">
     <g id="line2d_9">
      <g>
       <use xlink:href="#mc01fcfc2b6" x="46.55" y="215.160591" style="stroke: #000000; stroke-width: 0.8"/>
      </g>
     </g>
     <g id="text_10">
      <!-- 1 -->
      <g transform="translate(33.1875 218.95981)scale(0.1 -0.1)">
       <use xlink:href="#DejaVuSans-31"/>
      </g>
     </g>
    </g>
    <g id="ytick_5">
     <g id="line2d_10">
      <g>
       <use xlink:href="#mc01fcfc2b6" x="46.55" y="187.448452" style="stroke: #000000; stroke-width: 0.8"/>
      </g>
     </g>
     <g id="text_11">
      <!-- 2 -->
      <g transform="translate(33.1875 191.247671)scale(0.1 -0.1)">
       <use xlink:href="#DejaVuSans-32"/>
      </g>
     </g>
    </g>
    <g id="ytick_6">
     <g id="line2d_11">
      <g>
       <use xlink:href="#mc01fcfc2b6" x="46.55" y="159.736314" style="stroke: #000000; stroke-width: 0.8"/>
      </g>
     </g>
     <g id="text_12">
      <!-- 3 -->
      <g transform="translate(33.1875 163.535532)scale(0.1 -0.1)">
       <defs>
        <path id="DejaVuSans-33" d="M 2597 2516 
Q 3050 2419 3304 2112 
Q 3559 1806 3559 1356 
Q 3559 666 3084 287 
Q 2609 -91 1734 -91 
Q 1441 -91 1130 -33 
Q 819 25 488 141 
L 488 750 
Q 750 597 1062 519 
Q 1375 441 1716 441 
Q 2309 441 2620 675 
Q 2931 909 2931 1356 
Q 2931 1769 2642 2001 
Q 2353 2234 1838 2234 
L 1294 2234 
L 1294 2753 
L 1863 2753 
Q 2328 2753 2575 2939 
Q 2822 3125 2822 3475 
Q 2822 3834 2567 4026 
Q 2313 4219 1838 4219 
Q 1578 4219 1281 4162 
Q 984 4106 628 3988 
L 628 4550 
Q 988 4650 1302 4700 
Q 1616 4750 1894 4750 
Q 2613 4750 3031 4423 
Q 3450 4097 3450 3541 
Q 3450 3153 3228 2886 
Q 3006 2619 2597 2516 
z
" transform="scale(0.015625)"/>
       </defs>
       <use xlink:href="#DejaVuSans-33"/>
      </g>
     </g>
    </g>
    <g id="ytick_7">
     <g id="line2d_12">
      <g>
       <use xlink:href="#mc01fcfc2b6" x="46.55" y="132.024175" style="stroke: #000000; stroke-width: 0.8"/>
      </g>
     </g>
     <g id="text_13">
      <!-- 4 -->
      <g transform="translate(33.1875 135.823394)scale(0.1 -0.1)">
       <use xlink:href="#DejaVuSans-34"/>
      </g>
     </g>
    </g>
    <g id="ytick_8">
     <g id="line2d_13">
      <g>
       <use xlink:href="#mc01fcfc2b6" x="46.55" y="104.312036" style="stroke: #000000; stroke-width: 0.8"/>
      </g>
     </g>
     <g id="text_14">
      <!-- 5 -->
      <g transform="translate(33.1875 108.111255)scale(0.1 -0.1)">
       <defs>
        <path id="DejaVuSans-35" d="M 691 4666 
L 3169 4666 
L 3169 4134 
L 1269 4134 
L 1269 2991 
Q 1406 3038 1543 3061 
Q 1681 3084 1819 3084 
Q 2600 3084 3056 2656 
Q 3513 2228 3513 1497 
Q 3513 744 3044 326 
Q 2575 -91 1722 -91 
Q 1428 -91 1123 -41 
Q 819 9 494 109 
L 494 744 
Q 775 591 1075 516 
Q 1375 441 1709 441 
Q 2250 441 2565 725 
Q 2881 1009 2881 1497 
Q 2881 1984 2565 2268 
Q 2250 2553 1709 2553 
Q 1456 2553 1204 2497 
Q 953 2441 691 2322 
L 691 4666 
z
" transform="scale(0.015625)"/>
       </defs>
       <use xlink:href="#DejaVuSans-35"/>
      </g>
     </g>
    </g>
    <g id="ytick_9">
     <g id="line2d_14">
      <g>
       <use xlink:href="#mc01fcfc2b6" x="46.55" y="76.599898" style="stroke: #000000; stroke-width: 0.8"/>
      </g>
     </g>
     <g id="text_15">
      <!-- 6 -->
      <g transform="translate(33.1875 80.399116)scale(0.1 -0.1)">
       <use xlink:href="#DejaVuSans-36"/>
      </g>
     </g>
    </g>
    <g id="text_16">
     <!-- V -->
     <g transform="translate(18.728125 201.322125)rotate(-90)scale(0.1 -0.1)">
      <defs>
       <path id="DejaVuSans-b5" d="M 544 -1331 
L 544 3500 
L 1119 3500 
L 1119 1325 
Q 1119 872 1334 640 
Q 1550 409 1972 409 
Q 2434 409 2667 671 
Q 2900 934 2900 1459 
L 2900 3500 
L 3475 3500 
L 3475 806 
Q 3475 619 3529 530 
Q 3584 441 3700 441 
Q 3728 441 3778 458 
Q 3828 475 3916 513 
L 3916 50 
Q 3788 -22 3673 -56 
Q 3559 -91 3450 -91 
Q 3234 -91 3106 31 
Q 2978 153 2931 403 
Q 2775 156 2548 32 
Q 2322 -91 2016 -91 
Q 1697 -91 1473 31 
Q 1250 153 1119 397 
L 1119 -1331 
L 544 -1331 
z
" transform="scale(0.015625)"/>
       <path id="DejaVuSans-56" d="M 1831 0 
L 50 4666 
L 709 4666 
L 2188 738 
L 3669 4666 
L 4325 4666 
L 2547 0 
L 1831 0 
z
" transform="scale(0.015625)"/>
      </defs>
      <use xlink:href="#DejaVuSans-b5"/>
      <use xlink:href="#DejaVuSans-56" x="63.623047"/>
     </g>
    </g>
   </g>
   <g id="line2d_15">
    <path d="M 46.55 251.268645 
L 48.142475 248.191879 
L 50.531188 244.587872 
L 51.327425 242.954829 
L 52.9199 239.083058 
L 53.716138 237.652442 
L 54.512375 237.210035 
L 55.308613 238.021741 
L 56.10485 239.990803 
L 57.697325 245.307183 
L 58.493563 247.268631 
L 59.2898 248.092128 
L 60.086038 247.733865 
L 62.47475 244.283988 
L 63.270988 244.310743 
L 64.067226 245.373412 
L 66.455938 250.962937 
L 67.252176 251.76823 
L 68.048413 251.429959 
L 68.844651 249.973354 
L 69.640888 247.658046 
L 72.029601 239.410407 
L 72.825838 237.286436 
L 73.622076 235.763297 
L 74.418313 234.890138 
L 75.214551 234.664233 
L 76.010788 235.035957 
L 76.807026 235.900635 
L 79.195739 239.569374 
L 79.991976 240.428353 
L 80.788214 240.865904 
L 81.584451 240.900525 
L 83.973164 240.192005 
L 84.769401 240.278773 
L 85.565639 240.628302 
L 87.158114 241.540522 
L 87.954351 241.655776 
L 88.750589 241.27536 
L 89.546826 240.30915 
L 90.343064 238.785575 
L 91.935539 234.62926 
L 94.324251 227.967089 
L 97.509202 219.975614 
L 98.305439 218.219159 
L 99.101677 216.747615 
L 99.897914 215.66343 
L 100.694152 214.9988 
L 101.490389 214.686893 
L 103.082864 214.454083 
L 103.879102 214.17181 
L 104.675339 213.663912 
L 106.267814 212.41491 
L 107.064052 212.134046 
L 107.860289 212.378625 
L 108.656527 213.221671 
L 109.452764 214.552887 
L 111.04524 217.526994 
L 111.841477 218.539711 
L 112.637715 219.018549 
L 113.433952 219.06809 
L 114.23019 218.997379 
L 115.026427 219.221714 
L 115.822665 220.120223 
L 116.618902 221.899406 
L 117.41514 224.511025 
L 119.803852 233.608246 
L 120.60009 235.5097 
L 121.396327 236.359895 
L 122.192565 236.197186 
L 122.988802 235.261761 
L 125.377515 231.306958 
L 126.173752 230.456326 
L 128.562465 228.854139 
L 129.358703 227.795299 
L 130.15494 226.075227 
L 130.951178 223.642816 
L 133.33989 214.784373 
L 134.136128 213.051081 
L 134.932365 212.805939 
L 135.728603 214.236076 
L 136.52484 217.116883 
L 138.117315 224.361824 
L 138.913553 226.798293 
L 139.70979 227.358811 
L 140.506028 225.769073 
L 141.302265 222.348965 
L 142.89474 213.674085 
L 143.690978 210.600813 
L 144.487216 209.376842 
L 145.283453 210.042517 
L 146.079691 212.015684 
L 146.875928 214.290542 
L 147.672166 215.776363 
L 148.468403 215.658192 
L 149.264641 213.654381 
L 150.060878 210.0848 
L 151.653353 201.564186 
L 152.449591 198.394485 
L 153.245828 196.648176 
L 154.042066 196.263312 
L 154.838303 196.774854 
L 155.634541 197.52289 
L 156.430778 197.897064 
L 157.227016 197.524281 
L 158.023253 196.339461 
L 158.819491 194.532045 
L 162.004441 186.358459 
L 168.374341 171.976035 
L 169.170579 169.428033 
L 169.966816 166.304301 
L 172.355529 155.594139 
L 173.151766 152.970571 
L 173.948004 151.414417 
L 174.744241 150.95453 
L 175.540479 151.357035 
L 177.929192 153.970877 
L 179.521667 155.359337 
L 180.317904 156.487047 
L 181.114142 158.238525 
L 181.910379 160.633163 
L 184.299092 168.650305 
L 185.095329 170.35764 
L 185.891567 171.369968 
L 187.484042 172.519895 
L 188.280279 173.48909 
L 189.076517 175.082566 
L 190.668992 179.68504 
L 191.46523 181.954395 
L 192.261467 183.668987 
L 193.057705 184.636903 
L 193.853942 184.927916 
L 195.446417 184.708324 
L 196.242655 184.858734 
L 197.038892 185.366162 
L 198.631367 186.647126 
L 199.427605 186.697757 
L 200.223842 185.941792 
L 201.02008 184.304515 
L 201.816317 181.951927 
L 203.408792 176.590381 
L 204.20503 174.387736 
L 205.001267 172.854513 
L 205.797505 172.018431 
L 206.593742 171.726132 
L 208.186218 171.660186 
L 208.982455 171.340156 
L 209.778693 170.621835 
L 211.371168 168.263978 
L 212.167405 167.111818 
L 212.963643 166.434587 
L 213.75988 166.553564 
L 214.556118 167.663438 
L 215.352355 169.759882 
L 216.94483 175.794322 
L 217.741068 178.785662 
L 218.537305 181.100853 
L 219.333543 182.427611 
L 220.12978 182.715424 
L 220.926018 182.185117 
L 222.518493 180.384555 
L 223.31473 179.956616 
L 224.110968 180.132716 
L 224.907206 180.839981 
L 226.499681 182.779384 
L 227.295918 183.460752 
L 228.092156 183.791187 
L 230.480868 184.017806 
L 231.277106 184.383341 
L 232.869581 185.413743 
L 233.665818 185.689189 
L 234.462056 185.611995 
L 236.850768 184.421426 
L 237.647006 184.575096 
L 238.443243 185.286773 
L 240.035719 187.633781 
L 240.831956 188.456655 
L 241.628194 188.468567 
L 242.424431 187.427436 
L 243.220669 185.349851 
L 244.813144 179.279368 
L 246.405619 173.325828 
L 247.201856 171.037869 
L 247.998094 169.229087 
L 248.794331 167.78298 
L 250.386806 165.563896 
L 251.183044 164.734679 
L 251.979281 164.109833 
L 253.571756 163.189449 
L 254.367994 162.486052 
L 255.164231 161.25674 
L 255.960469 159.315547 
L 256.756707 156.676556 
L 258.349182 150.517721 
L 259.145419 147.931752 
L 259.941657 146.193694 
L 260.737894 145.377995 
L 261.534132 145.228916 
L 262.330369 145.239142 
L 263.126607 144.834352 
L 263.922844 143.596357 
L 264.719082 141.436647 
L 266.311557 135.795201 
L 267.107794 133.509271 
L 267.904032 132.215389 
L 268.700269 131.949729 
L 270.292744 132.602462 
L 271.088982 132.061868 
L 271.88522 130.182309 
L 272.681457 126.914266 
L 274.273932 118.458073 
L 275.07017 115.084598 
L 275.866407 113.37487 
L 276.662645 113.672852 
L 277.458882 115.813663 
L 278.25512 119.219452 
L 279.847595 126.840092 
L 280.643832 129.947186 
L 281.44007 132.367017 
L 283.032545 135.960489 
L 284.62502 139.116224 
L 285.421257 140.332143 
L 286.217495 140.906874 
L 287.013732 140.588665 
L 287.80997 139.333723 
L 288.606208 137.355143 
L 290.198683 132.915793 
L 290.99492 131.267526 
L 291.791158 130.244188 
L 292.587395 129.731001 
L 294.17987 129.111379 
L 294.976108 128.530306 
L 296.568583 126.898194 
L 297.36482 126.337617 
L 298.161058 126.297998 
L 298.957295 126.889899 
L 299.753533 128.040277 
L 302.142245 132.530992 
L 303.73472 134.835925 
L 305.327196 137.098019 
L 307.715908 141.036374 
L 308.512146 141.835625 
L 309.308383 142.030946 
L 310.104621 141.566035 
L 310.900858 140.539499 
L 313.289571 136.483334 
L 314.085808 135.563758 
L 314.882046 135.032383 
L 315.678283 134.857636 
L 316.474521 134.972977 
L 317.270758 135.328931 
L 318.066996 135.926889 
L 318.863233 136.82269 
L 319.659471 138.100206 
L 320.455709 139.826718 
L 321.251946 142.007944 
L 324.436896 152.447337 
L 325.233134 154.37352 
L 326.029371 155.677249 
L 326.825609 156.346558 
L 327.621846 156.478159 
L 328.418084 156.24319 
L 330.806796 154.927906 
L 331.603034 154.405598 
L 332.399271 153.648738 
L 333.195509 152.479136 
L 333.991746 150.795424 
L 336.380459 144.232797 
L 337.176697 142.898875 
L 337.972934 142.778281 
L 338.769172 144.123776 
L 339.565409 146.887363 
L 341.157884 154.979257 
L 341.954122 159.02714 
L 342.750359 162.265352 
L 343.546597 164.356614 
L 344.342834 165.281553 
L 345.139072 165.311498 
L 346.731547 164.5024 
L 347.527784 164.473167 
L 348.324022 164.929033 
L 350.712734 167.407115 
L 351.508972 167.618612 
L 352.30521 167.187709 
L 353.101447 166.116499 
L 353.897685 164.515844 
L 355.49016 160.31053 
L 357.082635 155.314621 
L 358.67511 149.606983 
L 360.267585 143.687579 
L 361.063822 141.117979 
L 361.86006 139.144232 
L 362.656297 137.988576 
L 363.452535 137.794058 
L 364.248772 138.597375 
L 365.04501 140.32163 
L 365.841247 142.785483 
L 368.22996 151.709483 
L 369.026198 154.096756 
L 369.822435 155.734259 
L 370.618673 156.515209 
L 371.41491 156.506324 
L 372.211148 155.956361 
L 373.007385 155.258325 
L 373.803623 154.863265 
L 374.59986 155.160497 
L 375.396098 156.356051 
L 376.192335 158.38868 
L 377.78481 163.394165 
L 378.581048 165.211182 
L 379.377285 165.879648 
L 380.173523 165.188029 
L 380.96976 163.284324 
L 382.562235 157.97149 
L 383.358473 155.930587 
L 384.15471 155.000025 
L 384.950948 155.287166 
L 385.747186 156.491632 
L 386.543423 157.989254 
L 387.339661 159.01941 
L 388.135898 158.918259 
L 388.932136 157.324712 
L 389.728373 154.295372 
L 392.117086 142.417742 
L 392.913323 140.031008 
L 393.709561 139.272005 
L 394.505798 140.14053 
L 395.302036 142.308662 
L 397.690748 151.193964 
L 398.486986 153.407314 
L 399.283223 154.882229 
L 400.079461 155.637948 
L 400.875699 155.772828 
L 401.671936 155.40523 
L 402.468174 154.642704 
L 403.264411 153.583066 
L 405.653124 149.847449 
L 406.449361 148.939265 
L 407.245599 148.434197 
L 408.041836 148.374628 
L 408.838074 148.701726 
L 411.226786 150.319082 
L 412.023024 150.463698 
L 412.819261 150.237797 
L 413.615499 149.654893 
L 413.615499 149.654893 
" clip-path="url(#pe6af0e2bb4)" style="fill: none; stroke: #e41a1c; stroke-width: 1.5; stroke-linecap: square"/>
   </g>
   <g id="line2d_16">
    <path d="M 46.55 232.599663 
L 48.142475 232.932778 
L 48.938713 233.268553 
L 49.73495 233.837702 
L 50.531188 234.679088 
L 52.123663 236.948208 
L 53.716138 239.066797 
L 54.512375 239.742576 
L 55.308613 240.124701 
L 57.697325 240.656547 
L 58.493563 241.121047 
L 59.2898 241.846496 
L 61.678513 244.50785 
L 62.47475 245.019924 
L 63.270988 245.192515 
L 64.067226 245.088519 
L 65.659701 244.713758 
L 66.455938 244.79613 
L 67.252176 245.174693 
L 69.640888 247.05068 
L 70.437126 247.333208 
L 71.233363 247.274486 
L 73.622076 246.266218 
L 74.418313 246.292178 
L 75.214551 246.669656 
L 77.603263 248.494237 
L 78.399501 248.606121 
L 79.195739 248.255032 
L 79.991976 247.506188 
L 82.380689 244.727002 
L 83.176926 244.123873 
L 85.565639 242.856588 
L 87.158114 241.539875 
L 87.954351 240.843178 
L 88.750589 240.327415 
L 89.546826 240.12259 
L 90.343064 240.264583 
L 93.528014 241.803935 
L 94.324251 241.735604 
L 96.712964 240.970455 
L 97.509202 240.975285 
L 98.305439 241.195173 
L 102.286627 243.115272 
L 103.082864 243.589614 
L 106.267814 245.909303 
L 107.064052 245.822786 
L 107.860289 245.183115 
L 108.656527 244.05045 
L 110.249002 241.240106 
L 111.04524 240.145478 
L 111.841477 239.520545 
L 112.637715 239.361186 
L 115.026427 239.749714 
L 115.822665 239.553083 
L 117.41514 238.9047 
L 118.211377 238.928217 
L 119.007615 239.445416 
L 119.803852 240.462724 
L 121.396327 243.130954 
L 122.192565 244.139599 
L 122.988802 244.6102 
L 123.78504 244.533618 
L 125.377515 243.685896 
L 126.173752 243.602135 
L 126.96999 244.082787 
L 127.766228 245.137097 
L 129.358703 247.982687 
L 130.15494 249.047124 
L 130.951178 249.487229 
L 131.747415 249.238661 
L 132.543653 248.447691 
L 134.136128 246.479934 
L 134.932365 245.93032 
L 135.728603 245.898754 
L 136.52484 246.344751 
L 138.117315 247.830532 
L 138.913553 248.326531 
L 139.70979 248.364838 
L 140.506028 247.857761 
L 141.302265 246.844259 
L 144.487216 241.499362 
L 145.283453 240.91185 
L 146.079691 240.852451 
L 146.875928 241.253933 
L 149.264641 243.268484 
L 150.060878 243.464648 
L 150.857116 243.193591 
L 151.653353 242.475519 
L 153.245828 240.226202 
L 154.838303 237.976199 
L 156.430778 236.323119 
L 160.411966 232.803938 
L 161.208204 232.288532 
L 162.004441 231.953942 
L 164.393154 231.449825 
L 165.189391 231.017599 
L 165.985629 230.247151 
L 166.781866 229.104023 
L 168.374341 226.000768 
L 169.966816 222.93127 
L 170.763054 221.869807 
L 171.559291 221.283022 
L 172.355529 221.194379 
L 173.151766 221.550943 
L 173.948004 222.244822 
L 175.540479 224.140464 
L 181.114142 231.28084 
L 181.910379 232.007289 
L 182.706617 232.376691 
L 183.502854 232.324595 
L 184.299092 231.888478 
L 185.891567 230.575055 
L 186.687804 230.228804 
L 187.484042 230.424116 
L 188.280279 231.284893 
L 189.076517 232.773888 
L 191.46523 238.529684 
L 192.261467 239.809319 
L 193.057705 240.408816 
L 193.853942 240.345444 
L 194.65018 239.805285 
L 195.446417 239.094431 
L 196.242655 238.56146 
L 197.038892 238.51241 
L 197.83513 239.139622 
L 198.631367 240.481 
L 199.427605 242.418002 
L 201.816317 249.189785 
L 202.612555 250.895604 
L 203.408792 252.104912 
L 204.20503 252.871606 
L 205.797505 253.709736 
L 207.38998 254.630298 
L 208.982455 255.709826 
L 209.778693 255.977516 
L 210.57493 255.879596 
L 211.371168 255.383381 
L 213.75988 252.866891 
L 214.556118 252.410418 
L 215.352355 252.400376 
L 216.148593 252.812048 
L 218.537305 254.846564 
L 219.333543 255.183018 
L 220.12978 255.253483 
L 221.722255 255.131638 
L 222.518493 255.315611 
L 223.31473 255.854899 
L 224.110968 256.780017 
L 225.703443 259.448491 
L 227.295918 262.289967 
L 228.888393 264.688068 
L 230.480868 266.956695 
L 232.073343 269.700657 
L 233.665818 273.07089 
L 236.054531 278.327474 
L 236.850768 279.813781 
L 237.647006 281.063992 
L 238.443243 282.061292 
L 239.239481 282.83189 
L 242.424431 285.272753 
L 244.813144 287.690571 
L 245.609381 288.229011 
L 246.405619 288.420183 
L 247.201856 288.226735 
L 247.998094 287.720765 
L 249.590569 286.525159 
L 250.386806 286.284457 
L 251.183044 286.48499 
L 251.979281 287.120427 
L 253.571756 288.993698 
L 254.367994 289.702929 
L 255.164231 289.956024 
L 255.960469 289.672684 
L 256.756707 288.927848 
L 259.145419 286.078851 
L 259.941657 285.547847 
L 262.330369 284.679813 
L 263.126607 283.987259 
L 263.922844 282.889484 
L 265.515319 279.837162 
L 266.311557 278.286751 
L 267.107794 277.00098 
L 267.904032 276.100521 
L 268.700269 275.599576 
L 269.496507 275.426407 
L 270.292744 275.4736 
L 271.88522 275.931215 
L 272.681457 276.329599 
L 273.477695 276.894949 
L 274.273932 277.65485 
L 277.458882 281.343639 
L 278.25512 281.895206 
L 279.051357 282.200764 
L 279.847595 282.310079 
L 281.44007 282.162362 
L 282.236307 281.902742 
L 283.032545 281.417212 
L 283.828782 280.598159 
L 284.62502 279.382116 
L 286.217495 276.006458 
L 287.013732 274.230149 
L 287.80997 272.729579 
L 288.606208 271.702638 
L 289.402445 271.227283 
L 290.198683 271.242801 
L 291.791158 272.033477 
L 292.587395 272.427405 
L 293.383633 272.677946 
L 296.568583 273.215189 
L 298.957295 274.09743 
L 300.54977 274.256857 
L 302.142245 274.321321 
L 302.938483 274.556111 
L 303.73472 274.981355 
L 306.123433 276.550418 
L 306.919671 276.734516 
L 307.715908 276.614513 
L 308.512146 276.221686 
L 310.900858 274.531985 
L 311.697096 274.207242 
L 312.493333 274.132356 
L 313.289571 274.322494 
L 314.085808 274.753199 
L 317.270758 277.069424 
L 318.066996 277.089642 
L 318.863233 276.627571 
L 319.659471 275.673042 
L 321.251946 272.819248 
L 322.048184 271.403391 
L 322.844421 270.339618 
L 323.640659 269.790218 
L 324.436896 269.774817 
L 325.233134 270.165136 
L 326.825609 271.203618 
L 327.621846 271.385237 
L 328.418084 271.180119 
L 329.214321 270.622841 
L 331.603034 268.282407 
L 332.399271 267.718904 
L 333.991746 267.053023 
L 336.380459 266.292485 
L 337.972934 265.485743 
L 338.769172 264.896163 
L 339.565409 264.099176 
L 340.361647 263.030572 
L 341.157884 261.664616 
L 344.342834 255.097695 
L 345.139072 253.988161 
L 345.935309 253.309585 
L 346.731547 253.026673 
L 347.527784 253.03328 
L 349.916497 253.623851 
L 352.30521 254.328441 
L 353.897685 254.916162 
L 354.693922 255.118407 
L 355.49016 255.195745 
L 357.878872 255.055975 
L 358.67511 255.193682 
L 359.471347 255.527064 
L 361.86006 256.879127 
L 362.656297 256.997711 
L 363.452535 256.844816 
L 365.04501 256.224554 
L 365.841247 256.182599 
L 366.637485 256.566194 
L 367.433722 257.418373 
L 369.822435 261.117554 
L 370.618673 261.877593 
L 371.41491 262.127215 
L 372.211148 261.918777 
L 374.59986 260.597438 
L 375.396098 260.535327 
L 376.988573 260.871037 
L 377.78481 260.861786 
L 378.581048 260.473782 
L 379.377285 259.645197 
L 381.765998 256.112134 
L 382.562235 255.510606 
L 383.358473 255.55423 
L 384.15471 256.235507 
L 386.543423 259.646891 
L 387.339661 260.107172 
L 388.135898 259.82981 
L 388.932136 258.825433 
L 392.117086 252.92023 
L 392.913323 252.478633 
L 393.709561 252.634206 
L 395.302036 253.712096 
L 396.098273 253.923656 
L 396.894511 253.520326 
L 397.690748 252.396234 
L 398.486986 250.64207 
L 400.875699 244.435803 
L 401.671936 242.999915 
L 402.468174 242.068477 
L 403.264411 241.524958 
L 404.856886 240.729953 
L 405.653124 240.080824 
L 406.449361 239.147932 
L 410.430549 233.424655 
L 412.819261 230.947617 
L 413.615499 229.852501 
L 413.615499 229.852501 
" clip-path="url(#pe6af0e2bb4)" style="fill: none; stroke: #377eb8; stroke-width: 1.5; stroke-linecap: square"/>
   </g>
   <g id="line2d_17">
    <path d="M 87.158114 318.2 
L 87.158114 71.241125 
" clip-path="url(#pe6af0e2bb4)" style="fill: none; stroke: #000000; stroke-width: 0.5; stroke-linecap: square"/>
   </g>
   <g id="line2d_18">
    <path d="M 46.55 242.872729 
L 413.615499 242.872729 
" clip-path="url(#pe6af0e2bb4)" style="fill: none; stroke: #000000; stroke-width: 0.5; stroke-linecap: square"/>
   </g>
   <g id="patch_4">
    <path d="M 46.55 318.2 
L 46.55 71.241125 
" style="fill: none; stroke: #000000; stroke-width: 0.8; stroke-linejoin: miter; stroke-linecap: square"/>
   </g>
   <g id="patch_5">
    <path d="M 413.615499 318.2 
L 413.615499 71.241125 
" style="fill: none; stroke: #000000; stroke-width: 0.8; stroke-linejoin: miter; stroke-linecap: square"/>
   </g>
   <g id="patch_6">
    <path d="M 46.55 318.2 
L 413.615499 318.2 
" style="fill: none; stroke: #000000; stroke-width: 0.8; stroke-linejoin: miter; stroke-linecap: square"/>
   </g>
   <g id="patch_7">
    <path d="M 46.55 71.241125 
L 413.615499 71.241125 
" style="fill: none; stroke: #000000; stroke-width: 0.8; stroke-linejoin: miter; stroke-linecap: square"/>
   </g>
   <g id="text_17">
    <!-- Cz -->
    <g transform="translate(222.743999 65.241125)scale(0.12 -0.12)">
     <defs>
      <path id="DejaVuSans-43" d="M 4122 4306 
L 4122 3641 
Q 3803 3938 3442 4084 
Q 3081 4231 2675 4231 
Q 1875 4231 1450 3742 
Q 1025 3253 1025 2328 
Q 1025 1406 1450 917 
Q 1875 428 2675 428 
Q 3081 428 3442 575 
Q 3803 722 4122 1019 
L 4122 359 
Q 3791 134 3420 21 
Q 3050 -91 2638 -91 
Q 1578 -91 968 557 
Q 359 1206 359 2328 
Q 359 3453 968 4101 
Q 1578 4750 2638 4750 
Q 3056 4750 3426 4639 
Q 3797 4528 4122 4306 
z
" transform="scale(0.015625)"/>
      <path id="DejaVuSans-7a" d="M 353 3500 
L 3084 3500 
L 3084 2975 
L 922 459 
L 3084 459 
L 3084 0 
L 275 0 
L 275 525 
L 2438 3041 
L 353 3041 
L 353 3500 
z
" transform="scale(0.015625)"/>
     </defs>
     <use xlink:href="#DejaVuSans-43"/>
     <use xlink:href="#DejaVuSans-7a" x="69.824219"/>
    </g>
   </g>
   <g id="legend_1">
    <g id="patch_8">
     <path d="M 99.855406 48.044893 
L 360.310093 48.044893 
Q 362.310093 48.044893 362.310093 46.044893 
L 362.310093 17.410517 
Q 362.310093 15.410517 360.310093 15.410517 
L 99.855406 15.410517 
Q 97.855406 15.410517 97.855406 17.410517 
L 97.855406 46.044893 
Q 97.855406 48.044893 99.855406 48.044893 
z
" style="fill: #ffffff; opacity: 0.8; stroke: #cccccc; stroke-linejoin: miter"/>
    </g>
    <g id="text_18">
     <!-- Average of Session 5_tac4 -->
     <g transform="translate(164.249937 27.008955)scale(0.1 -0.1)">
      <defs>
       <path id="DejaVuSans-41" d="M 2188 4044 
L 1331 1722 
L 3047 1722 
L 2188 4044 
z
M 1831 4666 
L 2547 4666 
L 4325 0 
L 3669 0 
L 3244 1197 
L 1141 1197 
L 716 0 
L 50 0 
L 1831 4666 
z
" transform="scale(0.015625)"/>
       <path id="DejaVuSans-76" d="M 191 3500 
L 800 3500 
L 1894 563 
L 2988 3500 
L 3597 3500 
L 2284 0 
L 1503 0 
L 191 3500 
z
" transform="scale(0.015625)"/>
       <path id="DejaVuSans-72" d="M 2631 2963 
Q 2534 3019 2420 3045 
Q 2306 3072 2169 3072 
Q 1681 3072 1420 2755 
Q 1159 2438 1159 1844 
L 1159 0 
L 581 0 
L 581 3500 
L 1159 3500 
L 1159 2956 
Q 1341 3275 1631 3429 
Q 1922 3584 2338 3584 
Q 2397 3584 2469 3576 
Q 2541 3569 2628 3553 
L 2631 2963 
z
" transform="scale(0.015625)"/>
       <path id="DejaVuSans-61" d="M 2194 1759 
Q 1497 1759 1228 1600 
Q 959 1441 959 1056 
Q 959 750 1161 570 
Q 1363 391 1709 391 
Q 2188 391 2477 730 
Q 2766 1069 2766 1631 
L 2766 1759 
L 2194 1759 
z
M 3341 1997 
L 3341 0 
L 2766 0 
L 2766 531 
Q 2569 213 2275 61 
Q 1981 -91 1556 -91 
Q 1019 -91 701 211 
Q 384 513 384 1019 
Q 384 1609 779 1909 
Q 1175 2209 1959 2209 
L 2766 2209 
L 2766 2266 
Q 2766 2663 2505 2880 
Q 2244 3097 1772 3097 
Q 1472 3097 1187 3025 
Q 903 2953 641 2809 
L 641 3341 
Q 956 3463 1253 3523 
Q 1550 3584 1831 3584 
Q 2591 3584 2966 3190 
Q 3341 2797 3341 1997 
z
" transform="scale(0.015625)"/>
       <path id="DejaVuSans-67" d="M 2906 1791 
Q 2906 2416 2648 2759 
Q 2391 3103 1925 3103 
Q 1463 3103 1205 2759 
Q 947 2416 947 1791 
Q 947 1169 1205 825 
Q 1463 481 1925 481 
Q 2391 481 2648 825 
Q 2906 1169 2906 1791 
z
M 3481 434 
Q 3481 -459 3084 -895 
Q 2688 -1331 1869 -1331 
Q 1566 -1331 1297 -1286 
Q 1028 -1241 775 -1147 
L 775 -588 
Q 1028 -725 1275 -790 
Q 1522 -856 1778 -856 
Q 2344 -856 2625 -561 
Q 2906 -266 2906 331 
L 2906 616 
Q 2728 306 2450 153 
Q 2172 0 1784 0 
Q 1141 0 747 490 
Q 353 981 353 1791 
Q 353 2603 747 3093 
Q 1141 3584 1784 3584 
Q 2172 3584 2450 3431 
Q 2728 3278 2906 2969 
L 2906 3500 
L 3481 3500 
L 3481 434 
z
" transform="scale(0.015625)"/>
       <path id="DejaVuSans-20" transform="scale(0.015625)"/>
       <path id="DejaVuSans-66" d="M 2375 4863 
L 2375 4384 
L 1825 4384 
Q 1516 4384 1395 4259 
Q 1275 4134 1275 3809 
L 1275 3500 
L 2222 3500 
L 2222 3053 
L 1275 3053 
L 1275 0 
L 697 0 
L 697 3053 
L 147 3053 
L 147 3500 
L 697 3500 
L 697 3744 
Q 697 4328 969 4595 
Q 1241 4863 1831 4863 
L 2375 4863 
z
" transform="scale(0.015625)"/>
       <path id="DejaVuSans-53" d="M 3425 4513 
L 3425 3897 
Q 3066 4069 2747 4153 
Q 2428 4238 2131 4238 
Q 1616 4238 1336 4038 
Q 1056 3838 1056 3469 
Q 1056 3159 1242 3001 
Q 1428 2844 1947 2747 
L 2328 2669 
Q 3034 2534 3370 2195 
Q 3706 1856 3706 1288 
Q 3706 609 3251 259 
Q 2797 -91 1919 -91 
Q 1588 -91 1214 -16 
Q 841 59 441 206 
L 441 856 
Q 825 641 1194 531 
Q 1563 422 1919 422 
Q 2459 422 2753 634 
Q 3047 847 3047 1241 
Q 3047 1584 2836 1778 
Q 2625 1972 2144 2069 
L 1759 2144 
Q 1053 2284 737 2584 
Q 422 2884 422 3419 
Q 422 4038 858 4394 
Q 1294 4750 2059 4750 
Q 2388 4750 2728 4690 
Q 3069 4631 3425 4513 
z
" transform="scale(0.015625)"/>
       <path id="DejaVuSans-69" d="M 603 3500 
L 1178 3500 
L 1178 0 
L 603 0 
L 603 3500 
z
M 603 4863 
L 1178 4863 
L 1178 4134 
L 603 4134 
L 603 4863 
z
" transform="scale(0.015625)"/>
       <path id="DejaVuSans-5f" d="M 3263 -1063 
L 3263 -1509 
L -63 -1509 
L -63 -1063 
L 3263 -1063 
z
" transform="scale(0.015625)"/>
       <path id="DejaVuSans-74" d="M 1172 4494 
L 1172 3500 
L 2356 3500 
L 2356 3053 
L 1172 3053 
L 1172 1153 
Q 1172 725 1289 603 
Q 1406 481 1766 481 
L 2356 481 
L 2356 0 
L 1766 0 
Q 1100 0 847 248 
Q 594 497 594 1153 
L 594 3053 
L 172 3053 
L 172 3500 
L 594 3500 
L 594 4494 
L 1172 4494 
z
" transform="scale(0.015625)"/>
      </defs>
      <use xlink:href="#DejaVuSans-41"/>
      <use xlink:href="#DejaVuSans-76" x="62.533203"/>
      <use xlink:href="#DejaVuSans-65" x="121.712891"/>
      <use xlink:href="#DejaVuSans-72" x="183.236328"/>
      <use xlink:href="#DejaVuSans-61" x="224.349609"/>
      <use xlink:href="#DejaVuSans-67" x="285.628906"/>
      <use xlink:href="#DejaVuSans-65" x="349.105469"/>
      <use xlink:href="#DejaVuSans-20" x="410.628906"/>
      <use xlink:href="#DejaVuSans-6f" x="442.416016"/>
      <use xlink:href="#DejaVuSans-66" x="503.597656"/>
      <use xlink:href="#DejaVuSans-20" x="538.802734"/>
      <use xlink:href="#DejaVuSans-53" x="570.589844"/>
      <use xlink:href="#DejaVuSans-65" x="634.066406"/>
      <use xlink:href="#DejaVuSans-73" x="695.589844"/>
      <use xlink:href="#DejaVuSans-73" x="747.689453"/>
      <use xlink:href="#DejaVuSans-69" x="799.789062"/>
      <use xlink:href="#DejaVuSans-6f" x="827.572266"/>
      <use xlink:href="#DejaVuSans-6e" x="888.753906"/>
      <use xlink:href="#DejaVuSans-20" x="952.132812"/>
      <use xlink:href="#DejaVuSans-35" x="983.919922"/>
      <use xlink:href="#DejaVuSans-5f" x="1047.542969"/>
      <use xlink:href="#DejaVuSans-74" x="1097.542969"/>
      <use xlink:href="#DejaVuSans-61" x="1136.751953"/>
      <use xlink:href="#DejaVuSans-63" x="1198.03125"/>
      <use xlink:href="#DejaVuSans-34" x="1253.011719"/>
     </g>
    </g>
    <g id="line2d_19">
     <path d="M 101.855406 38.465205 
L 111.855406 38.465205 
L 121.855406 38.465205 
" style="fill: none; stroke: #e41a1c; stroke-width: 1.5; stroke-linecap: square"/>
    </g>
    <g id="text_19">
     <!-- Target (n=404) -->
     <g transform="translate(129.855406 41.965205)scale(0.1 -0.1)">
      <defs>
       <path id="DejaVuSans-54" d="M -19 4666 
L 3928 4666 
L 3928 4134 
L 2272 4134 
L 2272 0 
L 1638 0 
L 1638 4134 
L -19 4134 
L -19 4666 
z
" transform="scale(0.015625)"/>
       <path id="DejaVuSans-28" d="M 1984 4856 
Q 1566 4138 1362 3434 
Q 1159 2731 1159 2009 
Q 1159 1288 1364 580 
Q 1569 -128 1984 -844 
L 1484 -844 
Q 1016 -109 783 600 
Q 550 1309 550 2009 
Q 550 2706 781 3412 
Q 1013 4119 1484 4856 
L 1984 4856 
z
" transform="scale(0.015625)"/>
       <path id="DejaVuSans-3d" d="M 678 2906 
L 4684 2906 
L 4684 2381 
L 678 2381 
L 678 2906 
z
M 678 1631 
L 4684 1631 
L 4684 1100 
L 678 1100 
L 678 1631 
z
" transform="scale(0.015625)"/>
       <path id="DejaVuSans-29" d="M 513 4856 
L 1013 4856 
Q 1481 4119 1714 3412 
Q 1947 2706 1947 2009 
Q 1947 1309 1714 600 
Q 1481 -109 1013 -844 
L 513 -844 
Q 928 -128 1133 580 
Q 1338 1288 1338 2009 
Q 1338 2731 1133 3434 
Q 928 4138 513 4856 
z
" transform="scale(0.015625)"/>
      </defs>
      <use xlink:href="#DejaVuSans-54"/>
      <use xlink:href="#DejaVuSans-61" x="44.583984"/>
      <use xlink:href="#DejaVuSans-72" x="105.863281"/>
      <use xlink:href="#DejaVuSans-67" x="145.226562"/>
      <use xlink:href="#DejaVuSans-65" x="208.703125"/>
      <use xlink:href="#DejaVuSans-74" x="270.226562"/>
      <use xlink:href="#DejaVuSans-20" x="309.435547"/>
      <use xlink:href="#DejaVuSans-28" x="341.222656"/>
      <use xlink:href="#DejaVuSans-6e" x="380.236328"/>
      <use xlink:href="#DejaVuSans-3d" x="443.615234"/>
      <use xlink:href="#DejaVuSans-34" x="527.404297"/>
      <use xlink:href="#DejaVuSans-30" x="591.027344"/>
      <use xlink:href="#DejaVuSans-34" x="654.650391"/>
      <use xlink:href="#DejaVuSans-29" x="718.273438"/>
     </g>
    </g>
    <g id="line2d_20">
     <path d="M 225.585093 38.465205 
L 235.585093 38.465205 
L 245.585093 38.465205 
" style="fill: none; stroke: #377eb8; stroke-width: 1.5; stroke-linecap: square"/>
    </g>
    <g id="text_20">
     <!-- Non-Target (n=1228) -->
     <g transform="translate(253.585093 41.965205)scale(0.1 -0.1)">
      <defs>
       <path id="DejaVuSans-4e" d="M 628 4666 
L 1478 4666 
L 3547 763 
L 3547 4666 
L 4159 4666 
L 4159 0 
L 3309 0 
L 1241 3903 
L 1241 0 
L 628 0 
L 628 4666 
z
" transform="scale(0.015625)"/>
       <path id="DejaVuSans-2d" d="M 313 2009 
L 1997 2009 
L 1997 1497 
L 313 1497 
L 313 2009 
z
" transform="scale(0.015625)"/>
      </defs>
      <use xlink:href="#DejaVuSans-4e"/>
      <use xlink:href="#DejaVuSans-6f" x="74.804688"/>
      <use xlink:href="#DejaVuSans-6e" x="135.986328"/>
      <use xlink:href="#DejaVuSans-2d" x="199.365234"/>
      <use xlink:href="#DejaVuSans-54" x="226.324219"/>
      <use xlink:href="#DejaVuSans-61" x="270.908203"/>
      <use xlink:href="#DejaVuSans-72" x="332.1875"/>
      <use xlink:href="#DejaVuSans-67" x="371.550781"/>
      <use xlink:href="#DejaVuSans-65" x="435.027344"/>
      <use xlink:href="#DejaVuSans-74" x="496.550781"/>
      <use xlink:href="#DejaVuSans-20" x="535.759766"/>
      <use xlink:href="#DejaVuSans-28" x="567.546875"/>
      <use xlink:href="#DejaVuSans-6e" x="606.560547"/>
      <use xlink:href="#DejaVuSans-3d" x="669.939453"/>
      <use xlink:href="#DejaVuSans-31" x="753.728516"/>
      <use xlink:href="#DejaVuSans-32" x="817.351562"/>
      <use xlink:href="#DejaVuSans-32" x="880.974609"/>
      <use xlink:href="#DejaVuSans-38" x="944.597656"/>
      <use xlink:href="#DejaVuSans-29" x="1008.220703"/>
     </g>
    </g>
   </g>
  </g>
 </g>
 <defs>
  <clipPath id="pe6af0e2bb4">
   <rect x="46.55" y="71.241125" width="367.065499" height="246.958875"/>
  </clipPath>
 </defs>
</svg>
