<?xml version="1.0" encoding="utf-8" standalone="no"?>
<!DOCTYPE svg PUBLIC "-//W3C//DTD SVG 1.1//EN"
  "http://www.w3.org/Graphics/SVG/1.1/DTD/svg11.dtd">
<svg xmlns:xlink="http://www.w3.org/1999/xlink" width="432pt" height="360pt" viewBox="0 0 432 360" xmlns="http://www.w3.org/2000/svg" version="1.1">
 <metadata>
  <rdf:RDF xmlns:dc="http://purl.org/dc/elements/1.1/" xmlns:cc="http://creativecommons.org/ns#" xmlns:rdf="http://www.w3.org/1999/02/22-rdf-syntax-ns#">
   <cc:Work>
    <dc:type rdf:resource="http://purl.org/dc/dcmitype/StillImage"/>
    <dc:date>2022-11-02T16:57:01.118257</dc:date>
    <dc:format>image/svg+xml</dc:format>
    <dc:creator>
     <cc:Agent>
      <dc:title>Matplotlib v3.5.1, https://matplotlib.org/</dc:title>
     </cc:Agent>
    </dc:creator>
   </cc:Work>
  </rdf:RDF>
 </metadata>
 <defs>
  <style type="text/css">*{stroke-linejoin: round; stroke-linecap: butt}</style>
 </defs>
 <g id="figure_1">
  <g id="patch_1">
   <path d="M 0 360 
L 432 360 
L 432 0 
L 0 0 
L 0 360 
z
" style="fill: none"/>
  </g>
  <g id="axes_1">
   <g id="patch_2">
    <path d="M 46.55 318.2 
L 413.615499 318.2 
L 413.615499 71.241125 
L 46.55 71.241125 
L 46.55 318.2 
z
" style="fill: none"/>
   </g>
   <g id="PolyCollection_1">
    <defs>
     <path id="m5b4ea09a3f" d="M 46.55 -153.269156 
L 46.55 -113.051345 
L 47.346238 -110.10243 
L 48.142475 -106.909711 
L 48.938713 -104.180216 
L 49.73495 -102.334758 
L 50.531188 -101.442081 
L 51.327425 -101.37253 
L 52.123663 -102.010503 
L 52.9199 -103.329011 
L 53.716138 -105.294457 
L 54.512375 -107.735605 
L 55.308613 -110.268711 
L 56.10485 -112.284537 
L 56.901088 -113.028975 
L 57.697325 -111.851181 
L 58.493563 -108.578329 
L 59.2898 -103.747593 
L 60.086038 -98.474365 
L 60.882275 -94.070386 
L 61.678513 -91.643456 
L 62.47475 -91.811914 
L 63.270988 -94.577179 
L 64.067226 -99.323515 
L 64.863463 -104.906903 
L 65.659701 -109.883056 
L 66.455938 -112.907749 
L 67.252176 -113.166097 
L 68.048413 -110.606216 
L 68.844651 -105.890619 
L 69.640888 -100.158181 
L 70.437126 -94.723688 
L 71.233363 -90.757216 
L 72.029601 -88.962173 
L 72.825838 -89.376617 
L 73.622076 -91.431679 
L 74.418313 -94.226018 
L 75.214551 -96.828046 
L 76.010788 -98.452376 
L 76.807026 -98.513397 
L 77.603263 -96.689983 
L 78.399501 -93.10086 
L 79.195739 -88.416178 
L 79.991976 -83.635647 
L 80.788214 -79.679992 
L 81.584451 -77.120226 
L 82.380689 -76.128652 
L 83.176926 -76.574092 
L 83.973164 -78.132298 
L 84.769401 -80.301287 
L 85.565639 -82.371637 
L 86.361876 -83.532908 
L 87.158114 -83.174827 
L 87.954351 -81.203297 
L 88.750589 -78.132878 
L 89.546826 -74.902605 
L 90.343064 -72.547528 
L 91.139301 -71.875846 
L 91.935539 -73.220378 
L 92.731776 -76.278619 
L 93.528014 -80.105523 
L 94.324251 -83.362266 
L 95.120489 -84.795182 
L 95.916727 -83.728711 
L 96.712964 -80.326521 
L 97.509202 -75.527979 
L 98.305439 -70.739863 
L 99.101677 -67.42186 
L 99.897914 -66.655931 
L 100.694152 -68.770265 
L 101.490389 -73.175672 
L 102.286627 -78.572291 
L 103.082864 -83.468199 
L 103.879102 -86.735478 
L 104.675339 -87.944555 
L 105.471577 -87.406516 
L 106.267814 -85.999711 
L 107.064052 -84.863792 
L 107.860289 -85.001121 
L 108.656527 -86.874671 
L 109.452764 -90.198062 
L 110.249002 -94.079334 
L 111.04524 -97.466786 
L 111.841477 -99.625369 
L 112.637715 -100.358941 
L 113.433952 -99.925851 
L 114.23019 -98.80868 
L 115.026427 -97.501512 
L 115.822665 -96.373745 
L 116.618902 -95.595718 
L 117.41514 -95.11692 
L 118.211377 -94.723632 
L 119.007615 -94.182402 
L 119.803852 -93.398331 
L 120.60009 -92.473421 
L 121.396327 -91.614324 
L 122.192565 -90.966405 
L 122.988802 -90.510493 
L 123.78504 -90.091828 
L 124.581277 -89.536093 
L 125.377515 -88.757108 
L 126.173752 -87.806143 
L 126.96999 -86.871995 
L 127.766228 -86.241131 
L 128.562465 -86.20134 
L 129.358703 -86.893376 
L 130.15494 -88.186065 
L 130.951178 -89.67585 
L 131.747415 -90.830392 
L 132.543653 -91.189588 
L 133.33989 -90.522733 
L 134.136128 -88.906527 
L 134.932365 -86.730146 
L 135.728603 -84.615996 
L 136.52484 -83.235996 
L 137.321078 -83.067669 
L 138.117315 -84.216588 
L 138.913553 -86.406869 
L 139.70979 -89.105986 
L 140.506028 -91.666066 
L 141.302265 -93.433754 
L 142.098503 -93.882067 
L 142.89474 -92.796041 
L 143.690978 -90.417245 
L 144.487216 -87.38698 
L 145.283453 -84.4702 
L 146.079691 -82.244389 
L 146.875928 -80.944579 
L 147.672166 -80.503525 
L 148.468403 -80.69574 
L 149.264641 -81.275374 
L 150.060878 -82.070036 
L 150.857116 -83.043428 
L 151.653353 -84.304492 
L 152.449591 -86.01508 
L 153.245828 -88.221698 
L 154.042066 -90.724874 
L 154.838303 -93.088208 
L 155.634541 -94.794432 
L 156.430778 -95.458882 
L 157.227016 -94.98289 
L 158.023253 -93.593967 
L 158.819491 -91.801101 
L 159.615729 -90.304914 
L 160.411966 -89.859079 
L 161.208204 -91.065912 
L 162.004441 -94.150457 
L 162.800679 -98.827202 
L 163.596916 -104.357985 
L 164.393154 -109.79662 
L 165.189391 -114.306236 
L 165.985629 -117.402395 
L 166.781866 -119.040502 
L 167.578104 -119.564931 
L 168.374341 -119.579263 
L 169.170579 -119.767134 
L 169.966816 -120.666668 
L 170.763054 -122.454779 
L 171.559291 -124.869256 
L 172.355529 -127.355427 
L 173.151766 -129.373283 
L 173.948004 -130.678047 
L 174.744241 -131.408391 
L 175.540479 -131.971467 
L 176.336717 -132.830313 
L 177.132954 -134.305266 
L 177.929192 -136.437969 
L 178.725429 -138.935456 
L 179.521667 -141.22543 
L 180.317904 -142.638798 
L 181.114142 -142.664818 
L 181.910379 -141.166463 
L 182.706617 -138.455488 
L 183.502854 -135.199689 
L 184.299092 -132.206914 
L 185.095329 -130.169212 
L 185.891567 -129.46249 
L 186.687804 -130.082615 
L 187.484042 -131.738311 
L 188.280279 -134.041781 
L 189.076517 -136.68246 
L 189.872754 -139.500836 
L 190.668992 -142.456218 
L 191.46523 -145.534129 
L 192.261467 -148.642086 
L 193.057705 -151.53498 
L 193.853942 -153.81796 
L 194.65018 -155.066624 
L 195.446417 -155.033168 
L 196.242655 -153.81579 
L 197.038892 -151.86141 
L 197.83513 -149.786763 
L 198.631367 -148.1328 
L 199.427605 -147.192476 
L 200.223842 -146.967067 
L 201.02008 -147.219639 
L 201.816317 -147.58569 
L 202.612555 -147.750869 
L 203.408792 -147.673628 
L 204.20503 -147.716092 
L 205.001267 -148.526471 
L 205.797505 -150.684765 
L 206.593742 -154.320824 
L 207.38998 -158.940799 
L 208.186218 -163.556486 
L 208.982455 -167.015689 
L 209.778693 -168.351717 
L 210.57493 -167.056232 
L 211.371168 -163.266441 
L 212.167405 -157.823089 
L 212.963643 -152.102017 
L 213.75988 -147.605639 
L 214.556118 -145.463768 
L 215.352355 -146.080371 
L 216.148593 -149.071253 
L 216.94483 -153.462799 
L 217.741068 -158.023756 
L 218.537305 -161.620079 
L 219.333543 -163.518992 
L 220.12978 -163.5616 
L 220.926018 -162.127985 
L 221.722255 -159.897617 
L 222.518493 -157.52589 
L 223.31473 -155.404978 
L 224.110968 -153.609431 
L 224.907206 -152.005795 
L 225.703443 -150.429252 
L 226.499681 -148.83332 
L 227.295918 -147.364634 
L 228.092156 -146.347047 
L 228.888393 -146.172336 
L 229.684631 -147.120884 
L 230.480868 -149.188025 
L 231.277106 -152.021907 
L 232.073343 -155.028768 
L 232.869581 -157.593205 
L 233.665818 -159.286069 
L 234.462056 -159.962788 
L 235.258293 -159.752577 
L 236.054531 -159.000961 
L 236.850768 -158.200977 
L 237.647006 -157.882902 
L 238.443243 -158.438786 
L 239.239481 -159.954485 
L 240.035719 -162.172568 
L 240.831956 -164.626786 
L 241.628194 -166.852993 
L 242.424431 -168.526531 
L 243.220669 -169.460372 
L 244.016906 -169.534757 
L 244.813144 -168.678923 
L 245.609381 -166.944783 
L 246.405619 -164.581601 
L 247.201856 -161.994013 
L 247.998094 -159.600831 
L 248.794331 -157.725608 
L 249.590569 -156.58782 
L 250.386806 -156.338479 
L 251.183044 -157.054795 
L 251.979281 -158.686065 
L 252.775519 -161.014626 
L 253.571756 -163.680353 
L 254.367994 -166.25346 
L 255.164231 -168.311557 
L 255.960469 -169.506087 
L 256.756707 -169.632524 
L 257.552944 -168.692473 
L 258.349182 -166.894295 
L 259.145419 -164.564276 
L 259.941657 -162.020036 
L 260.737894 -159.490354 
L 261.534132 -157.116306 
L 262.330369 -155.000922 
L 263.126607 -153.250924 
L 263.922844 -151.986411 
L 264.719082 -151.336692 
L 265.515319 -151.441039 
L 266.311557 -152.435181 
L 267.107794 -154.386002 
L 267.904032 -157.182548 
L 268.700269 -160.456508 
L 269.496507 -163.607645 
L 270.292744 -165.943975 
L 271.088982 -166.879893 
L 271.88522 -166.122702 
L 272.681457 -163.8049 
L 273.477695 -160.535209 
L 274.273932 -157.321799 
L 275.07017 -155.320354 
L 275.866407 -155.448243 
L 276.662645 -158.030201 
L 277.458882 -162.658607 
L 278.25512 -168.332629 
L 279.051357 -173.79304 
L 279.847595 -177.901832 
L 280.643832 -179.950373 
L 281.44007 -179.842973 
L 282.236307 -178.127331 
L 283.032545 -175.841663 
L 283.828782 -174.188642 
L 284.62502 -174.124945 
L 285.421257 -176.022717 
L 286.217495 -179.540928 
L 287.013732 -183.754643 
L 287.80997 -187.487142 
L 288.606208 -189.71342 
L 289.402445 -189.880646 
L 290.198683 -188.041295 
L 290.99492 -184.788933 
L 291.791158 -181.060745 
L 292.587395 -177.880035 
L 293.383633 -176.086828 
L 294.17987 -176.109706 
L 294.976108 -177.859852 
L 295.772345 -180.801254 
L 296.568583 -184.170107 
L 297.36482 -187.23028 
L 298.161058 -189.451073 
L 298.957295 -190.570408 
L 299.753533 -190.583212 
L 300.54977 -189.701115 
L 301.346008 -188.288556 
L 302.142245 -186.759327 
L 302.938483 -185.448456 
L 303.73472 -184.512083 
L 304.530958 -183.911694 
L 305.327196 -183.497045 
L 306.123433 -183.13266 
L 306.919671 -182.768168 
L 307.715908 -182.403349 
L 308.512146 -182.005581 
L 309.308383 -181.485246 
L 310.104621 -180.764178 
L 310.900858 -179.872095 
L 311.697096 -178.97232 
L 312.493333 -178.288423 
L 313.289571 -178.000852 
L 314.085808 -178.192081 
L 314.882046 -178.84596 
L 315.678283 -179.857564 
L 316.474521 -181.046193 
L 317.270758 -182.206419 
L 318.066996 -183.200357 
L 318.863233 -184.022584 
L 319.659471 -184.764252 
L 320.455709 -185.498259 
L 321.251946 -186.186652 
L 322.048184 -186.686528 
L 322.844421 -186.818457 
L 323.640659 -186.411725 
L 324.436896 -185.308745 
L 325.233134 -183.388903 
L 326.029371 -180.65183 
L 326.825609 -177.317581 
L 327.621846 -173.854556 
L 328.418084 -170.882334 
L 329.214321 -168.986688 
L 330.010559 -168.540668 
L 330.806796 -169.6075 
L 331.603034 -171.94461 
L 332.399271 -175.081991 
L 333.195509 -178.426236 
L 333.991746 -181.351352 
L 334.787984 -183.274389 
L 335.584221 -183.7475 
L 336.380459 -182.579212 
L 337.176697 -179.928445 
L 337.972934 -176.283698 
L 338.769172 -172.318124 
L 339.565409 -168.709595 
L 340.361647 -166.009958 
L 341.157884 -164.571052 
L 341.954122 -164.491433 
L 342.750359 -165.576995 
L 343.546597 -167.357612 
L 344.342834 -169.198982 
L 345.139072 -170.487124 
L 345.935309 -170.808126 
L 346.731547 -170.053148 
L 347.527784 -168.42748 
L 348.324022 -166.379589 
L 349.120259 -164.475065 
L 349.916497 -163.242227 
L 350.712734 -163.025159 
L 351.508972 -163.889018 
L 352.30521 -165.611051 
L 353.101447 -167.759248 
L 353.897685 -169.826189 
L 354.693922 -171.365922 
L 355.49016 -172.086531 
L 356.286397 -171.878683 
L 357.082635 -170.79639 
L 357.878872 -169.025765 
L 358.67511 -166.865959 
L 359.471347 -164.717119 
L 360.267585 -163.052649 
L 361.063822 -162.359719 
L 361.86006 -163.046106 
L 362.656297 -165.320906 
L 363.452535 -169.070147 
L 364.248772 -173.774224 
L 365.04501 -178.530717 
L 365.841247 -182.219839 
L 366.637485 -183.786195 
L 367.433722 -182.551188 
L 368.22996 -178.455303 
L 369.026198 -172.153083 
L 369.822435 -164.916308 
L 370.618673 -158.333809 
L 371.41491 -153.855195 
L 372.211148 -152.316683 
L 373.007385 -153.642348 
L 373.803623 -156.861322 
L 374.59986 -160.443934 
L 375.396098 -162.826923 
L 376.192335 -162.93402 
L 376.988573 -160.511105 
L 377.78481 -156.165987 
L 378.581048 -151.111609 
L 379.377285 -146.72416 
L 380.173523 -144.091741 
L 380.96976 -143.708066 
L 381.765998 -145.386717 
L 382.562235 -148.396339 
L 383.358473 -151.768038 
L 384.15471 -154.673496 
L 384.950948 -156.718691 
L 385.747186 -158.010549 
L 386.543423 -158.97213 
L 387.339661 -160.03195 
L 388.135898 -161.372631 
L 388.932136 -162.859889 
L 389.728373 -164.151942 
L 390.524611 -164.901965 
L 391.320848 -164.950083 
L 392.117086 -164.424851 
L 392.913323 -163.70603 
L 393.709561 -163.251305 
L 394.505798 -163.361356 
L 395.302036 -164.002852 
L 396.098273 -164.781301 
L 396.894511 -165.075294 
L 397.690748 -164.278097 
L 398.486986 -162.067749 
L 399.283223 -158.612968 
L 400.079461 -154.60595 
L 400.875699 -151.051279 
L 401.671936 -148.868129 
L 402.468174 -148.499698 
L 403.264411 -149.743723 
L 404.060649 -151.891979 
L 404.856886 -154.084987 
L 405.653124 -155.685605 
L 406.449361 -156.512878 
L 407.245599 -156.878704 
L 408.041836 -157.440346 
L 408.838074 -158.921943 
L 409.634311 -161.795242 
L 410.430549 -166.033552 
L 411.226786 -171.038023 
L 412.023024 -175.780784 
L 412.819261 -179.134487 
L 413.615499 -180.282174 
L 413.615499 -272.458919 
L 413.615499 -272.458919 
L 412.819261 -270.176852 
L 412.023024 -265.936173 
L 411.226786 -260.763476 
L 410.430549 -255.903168 
L 409.634311 -252.382086 
L 408.838074 -250.650109 
L 408.041836 -250.446722 
L 407.245599 -250.955357 
L 406.449361 -251.18344 
L 405.653124 -250.40791 
L 404.856886 -248.492294 
L 404.060649 -245.929832 
L 403.264411 -243.59599 
L 402.468174 -242.35049 
L 401.671936 -242.698818 
L 400.875699 -244.646345 
L 400.079461 -247.745135 
L 399.283223 -251.263956 
L 398.486986 -254.417277 
L 397.690748 -256.608605 
L 396.894511 -257.625739 
L 396.098273 -257.694475 
L 395.302036 -257.337316 
L 394.505798 -257.100217 
L 393.709561 -257.297916 
L 392.913323 -257.906821 
L 392.117086 -258.634018 
L 391.320848 -259.101068 
L 390.524611 -259.044581 
L 389.728373 -258.439891 
L 388.932136 -257.484774 
L 388.135898 -256.446625 
L 387.339661 -255.462546 
L 386.543423 -254.420174 
L 385.747186 -252.994436 
L 384.950948 -250.816931 
L 384.15471 -247.688793 
L 383.358473 -243.748329 
L 382.562235 -239.539311 
L 381.765998 -235.944846 
L 380.96976 -233.961466 
L 380.173523 -234.34348 
L 379.377285 -237.248104 
L 378.581048 -242.063768 
L 377.78481 -247.535143 
L 376.988573 -252.151724 
L 376.192335 -254.649232 
L 375.396098 -254.440471 
L 374.59986 -251.827459 
L 373.803623 -247.922083 
L 373.007385 -244.300574 
L 372.211148 -242.511236 
L 371.41491 -243.601746 
L 370.618673 -247.810287 
L 369.822435 -254.498087 
L 369.026198 -262.332059 
L 368.22996 -269.669592 
L 367.433722 -275.036166 
L 366.637485 -277.533472 
L 365.841247 -277.030537 
L 365.04501 -274.090465 
L 364.248772 -269.705099 
L 363.452535 -264.969747 
L 362.656297 -260.812133 
L 361.86006 -257.83447 
L 361.063822 -256.276868 
L 360.267585 -256.076149 
L 359.471347 -256.970256 
L 358.67511 -258.593082 
L 357.878872 -260.527875 
L 357.082635 -262.330949 
L 356.286397 -263.565417 
L 355.49016 -263.87042 
L 354.693922 -263.053387 
L 353.897685 -261.166798 
L 353.101447 -258.531531 
L 352.30521 -255.686063 
L 351.508972 -253.2633 
L 350.712734 -251.82066 
L 349.916497 -251.670598 
L 349.120259 -252.768935 
L 348.324022 -254.708239 
L 347.527784 -256.832499 
L 346.731547 -258.444848 
L 345.935309 -259.036796 
L 345.139072 -258.449998 
L 344.342834 -256.906252 
L 343.546597 -254.905704 
L 342.750359 -253.05581 
L 341.954122 -251.904844 
L 341.157884 -251.816251 
L 340.361647 -252.89051 
L 339.565409 -254.948489 
L 338.769172 -257.597699 
L 337.972934 -260.368379 
L 337.176697 -262.850442 
L 336.380459 -264.751179 
L 335.584221 -265.860229 
L 334.787984 -266.004242 
L 333.991746 -265.083332 
L 333.195509 -263.174397 
L 332.399271 -260.5987 
L 331.603034 -257.883702 
L 330.806796 -255.635568 
L 330.010559 -254.385644 
L 329.214321 -254.467882 
L 328.418084 -255.953972 
L 327.621846 -258.647219 
L 326.825609 -262.121642 
L 326.029371 -265.795545 
L 325.233134 -269.044653 
L 324.436896 -271.358631 
L 323.640659 -272.499568 
L 322.844421 -272.575008 
L 322.048184 -271.957198 
L 321.251946 -271.074855 
L 320.455709 -270.205678 
L 319.659471 -269.405026 
L 318.863233 -268.584777 
L 318.066996 -267.63456 
L 317.270758 -266.490053 
L 316.474521 -265.149069 
L 315.678283 -263.689394 
L 314.882046 -262.287026 
L 314.085808 -261.183754 
L 313.289571 -260.588199 
L 312.493333 -260.576015 
L 311.697096 -261.069269 
L 310.900858 -261.894532 
L 310.104621 -262.84928 
L 309.308383 -263.731052 
L 308.512146 -264.361901 
L 307.715908 -264.650634 
L 306.919671 -264.66461 
L 306.123433 -264.632419 
L 305.327196 -264.83949 
L 304.530958 -265.474396 
L 303.73472 -266.536082 
L 302.938483 -267.86289 
L 302.142245 -269.22928 
L 301.346008 -270.416441 
L 300.54977 -271.216375 
L 299.753533 -271.403058 
L 298.957295 -270.737284 
L 298.161058 -269.04431 
L 297.36482 -266.332781 
L 296.568583 -262.876009 
L 295.772345 -259.194865 
L 294.976108 -255.948641 
L 294.17987 -253.78463 
L 293.383633 -253.185421 
L 292.587395 -254.324395 
L 291.791158 -256.953016 
L 290.99492 -260.379138 
L 290.198683 -263.606858 
L 289.402445 -265.630025 
L 288.606208 -265.767519 
L 287.80997 -263.891801 
L 287.013732 -260.464146 
L 286.217495 -256.382957 
L 285.421257 -252.707619 
L 284.62502 -250.337253 
L 283.828782 -249.732011 
L 283.032545 -250.758043 
L 282.236307 -252.707792 
L 281.44007 -254.503566 
L 280.643832 -255.044585 
L 279.847595 -253.599191 
L 279.051357 -250.093406 
L 278.25512 -245.154875 
L 277.458882 -239.886362 
L 276.662645 -235.479789 
L 275.866407 -232.849526 
L 275.07017 -232.410005 
L 274.273932 -234.016157 
L 273.477695 -237.025897 
L 272.681457 -240.458623 
L 271.88522 -243.248197 
L 271.088982 -244.549335 
L 270.292744 -243.980659 
L 269.496507 -241.691255 
L 268.700269 -238.241268 
L 267.904032 -234.386158 
L 267.107794 -230.868366 
L 266.311557 -228.26709 
L 265.515319 -226.908975 
L 264.719082 -226.839011 
L 263.922844 -227.865868 
L 263.126607 -229.674604 
L 262.330369 -231.949303 
L 261.534132 -234.436317 
L 260.737894 -236.931341 
L 259.941657 -239.239415 
L 259.145419 -241.168104 
L 258.349182 -242.564429 
L 257.552944 -243.352284 
L 256.756707 -243.526383 
L 255.960469 -243.111306 
L 255.164231 -242.138509 
L 254.367994 -240.6706 
L 253.571756 -238.836556 
L 252.775519 -236.829022 
L 251.979281 -234.869402 
L 251.183044 -233.179598 
L 250.386806 -231.969679 
L 249.590569 -231.412726 
L 248.794331 -231.593836 
L 247.998094 -232.473882 
L 247.201856 -233.918862 
L 246.405619 -235.774997 
L 245.609381 -237.899297 
L 244.813144 -240.0937 
L 244.016906 -242.023533 
L 243.220669 -243.259347 
L 242.424431 -243.45624 
L 241.628194 -242.529938 
L 240.831956 -240.696884 
L 240.035719 -238.372523 
L 239.239481 -236.025872 
L 238.443243 -234.081277 
L 237.647006 -232.863384 
L 236.850768 -232.52397 
L 236.054531 -232.93931 
L 235.258293 -233.664897 
L 234.462056 -234.054425 
L 233.665818 -233.528823 
L 232.869581 -231.83908 
L 232.073343 -229.166573 
L 231.277106 -226.029156 
L 230.480868 -223.077963 
L 229.684631 -220.893696 
L 228.888393 -219.839486 
L 228.092156 -219.983525 
L 227.295918 -221.104796 
L 226.499681 -222.800572 
L 225.703443 -224.673138 
L 224.907206 -226.505776 
L 224.110968 -228.318561 
L 223.31473 -230.263606 
L 222.518493 -232.427183 
L 221.722255 -234.662556 
L 220.926018 -236.546314 
L 220.12978 -237.474241 
L 219.333543 -236.859551 
L 218.537305 -234.378701 
L 217.741068 -230.196748 
L 216.94483 -225.072288 
L 216.148593 -220.238493 
L 215.352355 -217.041969 
L 214.556118 -216.472328 
L 213.75988 -218.804049 
L 212.963643 -223.502462 
L 212.167405 -229.390288 
L 211.371168 -234.981188 
L 210.57493 -238.890883 
L 209.778693 -240.24282 
L 208.982455 -238.939751 
L 208.186218 -235.647066 
L 207.38998 -231.454685 
L 206.593742 -227.391867 
L 205.797505 -224.078886 
L 205.001267 -221.665664 
L 204.20503 -219.983563 
L 203.408792 -218.749485 
L 202.612555 -217.719471 
L 201.816317 -216.788463 
L 201.02008 -216.056734 
L 200.223842 -215.818761 
L 199.427605 -216.408582 
L 198.631367 -217.954518 
L 197.83513 -220.219283 
L 197.038892 -222.654184 
L 196.242655 -224.622926 
L 195.446417 -225.635035 
L 194.65018 -225.469142 
L 193.853942 -224.171506 
L 193.057705 -221.985584 
L 192.261467 -219.253646 
L 191.46523 -216.298919 
L 190.668992 -213.319234 
L 189.872754 -210.359815 
L 189.076517 -207.399878 
L 188.280279 -204.500731 
L 187.484042 -201.906409 
L 186.687804 -200.022522 
L 185.891567 -199.283361 
L 185.095329 -199.974718 
L 184.299092 -202.082234 
L 183.502854 -205.220038 
L 182.706617 -208.675876 
L 181.910379 -211.586613 
L 181.114142 -213.196102 
L 180.317904 -213.096648 
L 179.521667 -211.356244 
L 178.725429 -208.48345 
L 177.929192 -205.241041 
L 177.132954 -202.366763 
L 176.336717 -200.297293 
L 175.540479 -199.019193 
L 174.744241 -198.135417 
L 173.948004 -197.116833 
L 173.151766 -195.588296 
L 172.355529 -193.490427 
L 171.559291 -191.066924 
L 170.763054 -188.743688 
L 169.966816 -186.972163 
L 169.170579 -186.059998 
L 168.374341 -186.001667 
L 167.578104 -186.380496 
L 166.781866 -186.446135 
L 165.985629 -185.390067 
L 165.189391 -182.689575 
L 164.393154 -178.32978 
L 163.596916 -172.803845 
L 162.800679 -166.932437 
L 162.004441 -161.615573 
L 161.208204 -157.606372 
L 160.411966 -155.340124 
L 159.615729 -154.832207 
L 158.819491 -155.674215 
L 158.023253 -157.160879 
L 157.227016 -158.528776 
L 156.430778 -159.203517 
L 155.634541 -158.928044 
L 154.838303 -157.72604 
L 154.042066 -155.774605 
L 153.245828 -153.302702 
L 152.449591 -150.563521 
L 151.653353 -147.841022 
L 150.857116 -145.432069 
L 150.060878 -143.592858 
L 149.264641 -142.493769 
L 148.468403 -142.224744 
L 147.672166 -142.821979 
L 146.875928 -144.250633 
L 146.079691 -146.350182 
L 145.283453 -148.81938 
L 144.487216 -151.277654 
L 143.690978 -153.351557 
L 142.89474 -154.710546 
L 142.098503 -155.050078 
L 141.302265 -154.123299 
L 140.506028 -151.895871 
L 139.70979 -148.716874 
L 138.913553 -145.312457 
L 138.117315 -142.548525 
L 137.321078 -141.102745 
L 136.52484 -141.240847 
L 135.728603 -142.775939 
L 134.932365 -145.155847 
L 134.136128 -147.618031 
L 133.33989 -149.406203 
L 132.543653 -150.019582 
L 131.747415 -149.388758 
L 130.951178 -147.871751 
L 130.15494 -146.07207 
L 129.358703 -144.592556 
L 128.562465 -143.845321 
L 127.766228 -143.959373 
L 126.96999 -144.775415 
L 126.173752 -145.928436 
L 125.377515 -147.014816 
L 124.581277 -147.778402 
L 123.78504 -148.203756 
L 122.988802 -148.457193 
L 122.192565 -148.734243 
L 121.396327 -149.137011 
L 120.60009 -149.652726 
L 119.803852 -150.205717 
L 119.007615 -150.717751 
L 118.211377 -151.150158 
L 117.41514 -151.539311 
L 116.618902 -152.014838 
L 115.822665 -152.747228 
L 115.026427 -153.802284 
L 114.23019 -154.98182 
L 113.433952 -155.794626 
L 112.637715 -155.636151 
L 111.841477 -154.09632 
L 111.04524 -151.204258 
L 110.249002 -147.454534 
L 109.452764 -143.622516 
L 108.656527 -140.513596 
L 107.860289 -138.746681 
L 107.064052 -138.555833 
L 106.267814 -139.615794 
L 105.471577 -141.009371 
L 104.675339 -141.478141 
L 103.879102 -139.934913 
L 103.082864 -135.985373 
L 102.286627 -130.162553 
L 101.490389 -123.766406 
L 100.694152 -118.424783 
L 99.897914 -115.570973 
L 99.101677 -115.973107 
L 98.305439 -119.414684 
L 97.509202 -124.673688 
L 96.712964 -129.912917 
L 95.916727 -133.358718 
L 95.120489 -133.936175 
L 94.324251 -131.578275 
L 93.528014 -127.142711 
L 92.731776 -122.050205 
L 91.935539 -117.80305 
L 91.139301 -115.503106 
L 90.343064 -115.490193 
L 89.546826 -117.259829 
L 88.750589 -119.740263 
L 87.954351 -121.788103 
L 87.158114 -122.623792 
L 86.361876 -122.011373 
L 85.565639 -120.195027 
L 84.769401 -117.747293 
L 83.973164 -115.423298 
L 83.176926 -113.974931 
L 82.380689 -113.900955 
L 81.584451 -115.261088 
L 80.788214 -117.713614 
L 79.991976 -120.750644 
L 79.195739 -123.943508 
L 78.399501 -127.033979 
L 77.603263 -129.807381 
L 76.807026 -131.866539 
L 76.010788 -132.645921 
L 75.214551 -131.772231 
L 74.418313 -129.405672 
L 73.622076 -126.276724 
L 72.825838 -123.453696 
L 72.029601 -122.003096 
L 71.233363 -122.679148 
L 70.437126 -125.691795 
L 69.640888 -130.565234 
L 68.844651 -136.161458 
L 68.048413 -140.975805 
L 67.252176 -143.652245 
L 66.455938 -143.466547 
L 65.659701 -140.550424 
L 64.863463 -135.819132 
L 64.067226 -130.695574 
L 63.270988 -126.713257 
L 62.47475 -125.049157 
L 61.678513 -126.124826 
L 60.882275 -129.496852 
L 60.086038 -134.117842 
L 59.2898 -138.803824 
L 58.493563 -142.650586 
L 57.697325 -145.2064 
L 56.901088 -146.374404 
L 56.10485 -146.242115 
L 55.308613 -145.037309 
L 54.512375 -143.138865 
L 53.716138 -141.015191 
L 52.9199 -139.132799 
L 52.123663 -137.911867 
L 51.327425 -137.698817 
L 50.531188 -138.681143 
L 49.73495 -140.784346 
L 48.938713 -143.686049 
L 48.142475 -146.964827 
L 47.346238 -150.252415 
L 46.55 -153.269156 
z
" style="stroke: #e41a1c; stroke-opacity: 0.3"/>
    </defs>
    <g clip-path="url(#p00cbe2fd49)">
     <use xlink:href="#m5b4ea09a3f" x="0" y="360" style="fill: #e41a1c; fill-opacity: 0.3; stroke: #e41a1c; stroke-opacity: 0.3"/>
    </g>
   </g>
   <g id="PolyCollection_2">
    <defs>
     <path id="mfec0666a3e" d="M 46.55 -134.067437 
L 46.55 -109.77198 
L 47.346238 -110.925107 
L 48.142475 -111.740252 
L 48.938713 -112.011031 
L 49.73495 -111.715933 
L 50.531188 -111.001944 
L 51.327425 -110.141115 
L 52.123663 -109.4467 
L 52.9199 -109.148586 
L 53.716138 -109.292185 
L 54.512375 -109.73229 
L 55.308613 -110.221553 
L 56.10485 -110.534949 
L 56.901088 -110.563227 
L 57.697325 -110.331737 
L 58.493563 -109.943289 
L 59.2898 -109.487623 
L 60.086038 -108.97798 
L 60.882275 -108.358075 
L 61.678513 -107.571053 
L 62.47475 -106.62355 
L 63.270988 -105.580163 
L 64.067226 -104.50636 
L 64.863463 -103.4301 
L 65.659701 -102.349101 
L 66.455938 -101.253066 
L 67.252176 -100.138591 
L 68.048413 -99.040269 
L 68.844651 -98.091565 
L 69.640888 -97.552128 
L 70.437126 -97.72171 
L 71.233363 -98.771403 
L 72.029601 -100.617431 
L 72.825838 -102.929787 
L 73.622076 -105.258883 
L 74.418313 -107.170787 
L 75.214551 -108.322467 
L 76.010788 -108.516668 
L 76.807026 -107.769575 
L 77.603263 -106.340796 
L 78.399501 -104.656147 
L 79.195739 -103.135738 
L 79.991976 -102.030074 
L 80.788214 -101.357168 
L 81.584451 -100.948053 
L 82.380689 -100.549008 
L 83.176926 -99.935189 
L 83.973164 -99.010885 
L 84.769401 -97.865521 
L 85.565639 -96.749471 
L 86.361876 -95.965658 
L 87.158114 -95.726178 
L 87.954351 -96.047443 
L 88.750589 -96.734639 
L 89.546826 -97.461821 
L 90.343064 -97.912324 
L 91.139301 -97.914712 
L 91.935539 -97.504474 
L 92.731776 -96.877056 
L 93.528014 -96.259577 
L 94.324251 -95.7756 
L 95.120489 -95.378561 
L 95.916727 -94.884931 
L 96.712964 -94.07879 
L 97.509202 -92.829785 
L 98.305439 -91.177801 
L 99.101677 -89.356696 
L 99.897914 -87.743831 
L 100.694152 -86.745775 
L 101.490389 -86.65808 
L 102.286627 -87.54772 
L 103.082864 -89.197779 
L 103.879102 -91.138874 
L 104.675339 -92.774821 
L 105.471577 -93.568245 
L 106.267814 -93.214194 
L 107.064052 -91.722891 
L 107.860289 -89.378498 
L 108.656527 -86.606125 
L 109.452764 -83.816953 
L 110.249002 -81.294698 
L 111.04524 -79.15458 
L 111.841477 -77.38091 
L 112.637715 -75.924281 
L 113.433952 -74.813819 
L 114.23019 -74.217667 
L 115.026427 -74.395517 
L 115.822665 -75.550905 
L 116.618902 -77.665333 
L 117.41514 -80.417704 
L 118.211377 -83.2428 
L 119.007615 -85.503224 
L 119.803852 -86.695437 
L 120.60009 -86.611206 
L 121.396327 -85.40748 
L 122.192565 -83.563748 
L 122.988802 -81.727955 
L 123.78504 -80.489786 
L 124.581277 -80.166267 
L 125.377515 -80.695895 
L 126.173752 -81.690352 
L 126.96999 -82.614413 
L 127.766228 -83.008344 
L 128.562465 -82.663483 
L 129.358703 -81.692422 
L 130.15494 -80.476666 
L 130.951178 -79.514424 
L 131.747415 -79.220837 
L 132.543653 -79.756616 
L 133.33989 -80.960137 
L 134.136128 -82.419051 
L 134.932365 -83.654342 
L 135.728603 -84.336986 
L 136.52484 -84.438747 
L 137.321078 -84.242046 
L 138.117315 -84.196448 
L 138.913553 -84.687402 
L 139.70979 -85.83075 
L 140.506028 -87.392923 
L 141.302265 -88.871238 
L 142.098503 -89.693425 
L 142.89474 -89.450246 
L 143.690978 -88.07235 
L 144.487216 -85.886056 
L 145.283453 -83.522029 
L 146.079691 -81.70103 
L 146.875928 -80.972807 
L 147.672166 -81.513767 
L 148.468403 -83.071791 
L 149.264641 -85.083738 
L 150.060878 -86.912277 
L 150.857116 -88.095804 
L 151.653353 -88.505689 
L 152.449591 -88.355637 
L 153.245828 -88.07506 
L 154.042066 -88.109189 
L 154.838303 -88.729286 
L 155.634541 -89.927578 
L 156.430778 -91.438069 
L 157.227016 -92.874014 
L 158.023253 -93.91982 
L 158.819491 -94.486152 
L 159.615729 -94.753299 
L 160.411966 -95.083003 
L 161.208204 -95.840065 
L 162.004441 -97.1999 
L 162.800679 -99.020755 
L 163.596916 -100.839074 
L 164.393154 -102.007477 
L 165.189391 -101.938345 
L 165.985629 -100.361404 
L 166.781866 -97.486464 
L 167.578104 -93.999232 
L 168.374341 -90.887508 
L 169.170579 -89.156244 
L 169.966816 -89.52246 
L 170.763054 -92.185701 
L 171.559291 -96.750845 
L 172.355529 -102.333108 
L 173.151766 -107.807693 
L 173.948004 -112.112822 
L 174.744241 -114.506078 
L 175.540479 -114.710764 
L 176.336717 -112.93201 
L 177.132954 -109.752849 
L 177.929192 -105.944032 
L 178.725429 -102.2491 
L 179.521667 -99.218414 
L 180.317904 -97.14103 
L 181.114142 -96.070501 
L 181.910379 -95.896721 
L 182.706617 -96.414425 
L 183.502854 -97.372534 
L 184.299092 -98.513052 
L 185.095329 -99.603675 
L 185.891567 -100.45728 
L 186.687804 -100.936495 
L 187.484042 -100.954648 
L 188.280279 -100.48367 
L 189.076517 -99.567695 
L 189.872754 -98.330754 
L 190.668992 -96.969989 
L 191.46523 -95.732792 
L 192.261467 -94.877375 
L 193.057705 -94.615303 
L 193.853942 -95.046194 
L 194.65018 -96.113473 
L 195.446417 -97.611544 
L 196.242655 -99.248767 
L 197.038892 -100.735414 
L 197.83513 -101.851248 
L 198.631367 -102.467693 
L 199.427605 -102.534747 
L 200.223842 -102.061737 
L 201.02008 -101.111519 
L 201.816317 -99.803597 
L 202.612555 -98.305121 
L 203.408792 -96.799818 
L 204.20503 -95.449088 
L 205.001267 -94.368568 
L 205.797505 -93.630249 
L 206.593742 -93.280521 
L 207.38998 -93.349741 
L 208.186218 -93.834492 
L 208.982455 -94.665152 
L 209.778693 -95.700419 
L 210.57493 -96.776356 
L 211.371168 -97.786951 
L 212.167405 -98.736041 
L 212.963643 -99.718524 
L 213.75988 -100.842314 
L 214.556118 -102.13924 
L 215.352355 -103.505666 
L 216.148593 -104.688001 
L 216.94483 -105.316135 
L 217.741068 -104.990957 
L 218.537305 -103.421895 
L 219.333543 -100.575108 
L 220.12978 -96.76107 
L 220.926018 -92.599912 
L 221.722255 -88.862005 
L 222.518493 -86.247058 
L 223.31473 -85.183894 
L 224.110968 -85.706178 
L 224.907206 -87.426233 
L 225.703443 -89.618062 
L 226.499681 -91.410995 
L 227.295918 -92.058173 
L 228.092156 -91.189129 
L 228.888393 -88.93101 
L 229.684631 -85.837182 
L 230.480868 -82.671542 
L 231.277106 -80.163862 
L 232.073343 -78.82349 
L 232.869581 -78.829706 
L 233.665818 -79.989104 
L 234.462056 -81.778174 
L 235.258293 -83.498761 
L 236.054531 -84.514079 
L 236.850768 -84.459014 
L 237.647006 -83.319557 
L 238.443243 -81.370746 
L 239.239481 -79.050014 
L 240.035719 -76.837239 
L 240.831956 -75.155947 
L 241.628194 -74.28037 
L 242.424431 -74.262272 
L 243.220669 -74.925271 
L 244.016906 -75.947168 
L 244.813144 -76.9888 
L 245.609381 -77.800349 
L 246.405619 -78.272878 
L 247.201856 -78.440266 
L 247.998094 -78.439498 
L 248.794331 -78.428252 
L 249.590569 -78.479136 
L 250.386806 -78.505669 
L 251.183044 -78.272972 
L 251.979281 -77.498012 
L 252.775519 -75.982529 
L 253.571756 -73.707488 
L 254.367994 -70.854367 
L 255.164231 -67.766061 
L 255.960469 -64.877793 
L 256.756707 -62.635039 
L 257.552944 -61.396964 
L 258.349182 -61.330613 
L 259.145419 -62.335202 
L 259.941657 -64.050788 
L 260.737894 -65.970001 
L 261.534132 -67.608554 
L 262.330369 -68.65027 
L 263.126607 -69.004559 
L 263.922844 -68.780962 
L 264.719082 -68.227403 
L 265.515319 -67.660355 
L 266.311557 -67.377982 
L 267.107794 -67.553891 
L 267.904032 -68.153857 
L 268.700269 -68.93273 
L 269.496507 -69.523046 
L 270.292744 -69.567072 
L 271.088982 -68.829439 
L 271.88522 -67.262341 
L 272.681457 -65.028688 
L 273.477695 -62.483462 
L 274.273932 -60.098035 
L 275.07017 -58.329457 
L 275.866407 -57.477946 
L 276.662645 -57.593753 
L 277.458882 -58.471016 
L 278.25512 -59.725863 
L 279.051357 -60.926095 
L 279.847595 -61.728153 
L 280.643832 -61.978346 
L 281.44007 -61.748161 
L 282.236307 -61.297291 
L 283.032545 -60.983193 
L 283.828782 -61.149614 
L 284.62502 -62.026531 
L 285.421257 -63.669667 
L 286.217495 -65.95894 
L 287.013732 -68.653922 
L 287.80997 -71.476237 
L 288.606208 -74.17818 
L 289.402445 -76.575837 
L 290.198683 -78.552733 
L 290.99492 -80.048098 
L 291.791158 -81.035643 
L 292.587395 -81.498377 
L 293.383633 -81.417981 
L 294.17987 -80.797285 
L 294.976108 -79.702387 
L 295.772345 -78.27822 
L 296.568583 -76.706266 
L 297.36482 -75.13445 
L 298.161058 -73.642921 
L 298.957295 -72.275498 
L 299.753533 -71.09963 
L 300.54977 -70.232481 
L 301.346008 -69.811105 
L 302.142245 -69.935277 
L 302.938483 -70.614087 
L 303.73472 -71.72286 
L 304.530958 -72.978508 
L 305.327196 -73.966623 
L 306.123433 -74.249473 
L 306.919671 -73.531398 
L 307.715908 -71.804297 
L 308.512146 -69.396993 
L 309.308383 -66.90161 
L 310.104621 -64.999112 
L 310.900858 -64.230906 
L 311.697096 -64.781986 
L 312.493333 -66.360792 
L 313.289571 -68.249984 
L 314.085808 -69.535372 
L 314.882046 -69.430017 
L 315.678283 -67.566584 
L 316.474521 -64.154018 
L 317.270758 -59.948602 
L 318.066996 -56.039166 
L 318.863233 -53.499694 
L 319.659471 -53.025403 
L 320.455709 -54.699331 
L 321.251946 -57.990743 
L 322.048184 -61.97495 
L 322.844421 -65.661372 
L 323.640659 -68.290756 
L 324.436896 -69.510454 
L 325.233134 -69.39854 
L 326.029371 -68.350917 
L 326.825609 -66.881428 
L 327.621846 -65.415083 
L 328.418084 -64.157168 
L 329.214321 -63.083171 
L 330.010559 -62.036334 
L 330.806796 -60.875351 
L 331.603034 -59.600477 
L 332.399271 -58.397407 
L 333.195509 -57.572683 
L 333.991746 -57.408612 
L 334.787984 -58.015018 
L 335.584221 -59.2598 
L 336.380459 -60.813652 
L 337.176697 -62.281876 
L 337.972934 -63.358585 
L 338.769172 -63.936855 
L 339.565409 -64.129708 
L 340.361647 -64.189661 
L 341.157884 -64.357485 
L 341.954122 -64.713744 
L 342.750359 -65.116646 
L 343.546597 -65.266653 
L 344.342834 -64.865897 
L 345.139072 -63.790482 
L 345.935309 -62.193615 
L 346.731547 -60.494011 
L 347.527784 -59.250084 
L 348.324022 -58.963421 
L 349.120259 -59.886837 
L 349.916497 -61.916868 
L 350.712734 -64.616139 
L 351.508972 -67.352753 
L 352.30521 -69.49838 
L 353.101447 -70.619194 
L 353.897685 -70.600798 
L 354.693922 -69.66825 
L 355.49016 -68.286804 
L 356.286397 -66.971886 
L 357.082635 -66.08234 
L 357.878872 -65.687751 
L 358.67511 -65.568666 
L 359.471347 -65.34175 
L 360.267585 -64.648317 
L 361.063822 -63.323669 
L 361.86006 -61.483924 
L 362.656297 -59.50196 
L 363.452535 -57.880847 
L 364.248772 -57.072052 
L 365.04501 -57.311829 
L 365.841247 -58.545819 
L 366.637485 -60.469754 
L 367.433722 -62.655602 
L 368.22996 -64.69538 
L 369.026198 -66.304109 
L 369.822435 -67.360893 
L 370.618673 -67.895709 
L 371.41491 -68.037408 
L 372.211148 -67.940962 
L 373.007385 -67.721994 
L 373.803623 -67.430552 
L 374.59986 -67.07813 
L 375.396098 -66.696337 
L 376.192335 -66.380527 
L 376.988573 -66.284112 
L 377.78481 -66.56445 
L 378.581048 -67.309379 
L 379.377285 -68.478215 
L 380.173523 -69.8768 
L 380.96976 -71.181175 
L 381.765998 -72.019952 
L 382.562235 -72.104172 
L 383.358473 -71.358418 
L 384.15471 -69.989469 
L 384.950948 -68.450201 
L 385.747186 -67.305904 
L 386.543423 -67.05256 
L 387.339661 -67.948598 
L 388.135898 -69.910369 
L 388.932136 -72.505235 
L 389.728373 -75.057062 
L 390.524611 -76.846232 
L 391.320848 -77.343121 
L 392.117086 -76.388442 
L 392.913323 -74.247328 
L 393.709561 -71.517038 
L 394.505798 -68.929377 
L 395.302036 -67.125041 
L 396.098273 -66.477695 
L 396.894511 -67.020191 
L 397.690748 -68.487437 
L 398.486986 -70.44989 
L 399.283223 -72.479943 
L 400.079461 -74.285158 
L 400.875699 -75.763001 
L 401.671936 -76.970212 
L 402.468174 -78.03645 
L 403.264411 -79.068929 
L 404.060649 -80.0894 
L 404.856886 -81.02452 
L 405.653124 -81.748489 
L 406.449361 -82.159998 
L 407.245599 -82.263173 
L 408.041836 -82.213237 
L 408.838074 -82.291474 
L 409.634311 -82.802271 
L 410.430549 -83.93206 
L 411.226786 -85.642681 
L 412.023024 -87.658622 
L 412.819261 -89.555183 
L 413.615499 -90.903219 
L 413.615499 -143.583899 
L 413.615499 -143.583899 
L 412.819261 -142.178032 
L 412.023024 -140.176235 
L 411.226786 -138.032615 
L 410.430549 -136.1712 
L 409.634311 -134.859281 
L 408.838074 -134.156044 
L 408.041836 -133.930833 
L 407.245599 -133.931303 
L 406.449361 -133.879936 
L 405.653124 -133.571425 
L 404.856886 -132.933894 
L 404.060649 -132.023567 
L 403.264411 -130.954816 
L 402.468174 -129.806823 
L 401.671936 -128.564152 
L 400.875699 -127.128727 
L 400.079461 -125.398011 
L 399.283223 -123.366636 
L 398.486986 -121.196977 
L 397.690748 -119.219551 
L 396.894511 -117.854367 
L 396.098273 -117.476 
L 395.302036 -118.268213 
L 394.505798 -120.123022 
L 393.709561 -122.628752 
L 392.913323 -125.161536 
L 392.117086 -127.055455 
L 391.320848 -127.795252 
L 390.524611 -127.167981 
L 389.728373 -125.327744 
L 388.932136 -122.756118 
L 388.135898 -120.126638 
L 387.339661 -118.106083 
L 386.543423 -117.150101 
L 385.747186 -117.365585 
L 384.950948 -118.494897 
L 384.15471 -120.0273 
L 383.358473 -121.386138 
L 382.562235 -122.114222 
L 381.765998 -121.996663 
L 380.96976 -121.096429 
L 380.173523 -119.70517 
L 379.377285 -118.227567 
L 378.581048 -117.035478 
L 377.78481 -116.346823 
L 376.988573 -116.17974 
L 376.192335 -116.394402 
L 375.396098 -116.786293 
L 374.59986 -117.175625 
L 373.803623 -117.45347 
L 373.007385 -117.580456 
L 372.211148 -117.553399 
L 371.41491 -117.359059 
L 370.618673 -116.937551 
L 369.822435 -116.180569 
L 369.026198 -114.981128 
L 368.22996 -113.320634 
L 367.433722 -111.342555 
L 366.637485 -109.357426 
L 365.841247 -107.762183 
L 365.04501 -106.909508 
L 364.248772 -106.987136 
L 363.452535 -107.953011 
L 362.656297 -109.544249 
L 361.86006 -111.356372 
L 361.063822 -112.973094 
L 360.267585 -114.107976 
L 359.471347 -114.704347 
L 358.67511 -114.944519 
L 357.878872 -115.156292 
L 357.082635 -115.654116 
L 356.286397 -116.583161 
L 355.49016 -117.830031 
L 354.693922 -119.032607 
L 353.897685 -119.692466 
L 353.101447 -119.360488 
L 352.30521 -117.834914 
L 351.508972 -115.288923 
L 350.712734 -112.257119 
L 349.916497 -109.468703 
L 349.120259 -107.591006 
L 348.324022 -106.997126 
L 347.527784 -107.651598 
L 346.731547 -109.150104 
L 345.935309 -110.886309 
L 345.139072 -112.277608 
L 344.342834 -112.962762 
L 343.546597 -112.895099 
L 342.750359 -112.300572 
L 341.954122 -111.533256 
L 341.157884 -110.9035 
L 340.361647 -110.551615 
L 339.565409 -110.406486 
L 338.769172 -110.23467 
L 337.972934 -109.759651 
L 337.176697 -108.806131 
L 336.380459 -107.404625 
L 335.584221 -105.801497 
L 334.787984 -104.366826 
L 333.991746 -103.448629 
L 333.195509 -103.245454 
L 332.399271 -103.750206 
L 331.603034 -104.779724 
L 330.806796 -106.072303 
L 330.010559 -107.412096 
L 329.214321 -108.721228 
L 328.418084 -110.064493 
L 327.621846 -111.554005 
L 326.825609 -113.201902 
L 326.029371 -114.804668 
L 325.233134 -115.93286 
L 324.436896 -116.054435 
L 323.640659 -114.758557 
L 322.844421 -111.989428 
L 322.048184 -108.173558 
L 321.251946 -104.156865 
L 320.455709 -100.957942 
L 319.659471 -99.438308 
L 318.863233 -100.022212 
L 318.066996 -102.557876 
L 317.270758 -106.352947 
L 316.474521 -110.375964 
L 315.678283 -113.576889 
L 314.882046 -115.230039 
L 314.085808 -115.168343 
L 313.289571 -113.808743 
L 312.493333 -111.964439 
L 311.697096 -110.535576 
L 310.900858 -110.202672 
L 310.104621 -111.219163 
L 309.308383 -113.35801 
L 308.512146 -116.025088 
L 307.715908 -118.496169 
L 306.919671 -120.177691 
L 306.123433 -120.781742 
L 305.327196 -120.361128 
L 304.530958 -119.227767 
L 303.73472 -117.816799 
L 302.938483 -116.54826 
L 302.142245 -115.719693 
L 301.346008 -115.45934 
L 300.54977 -115.754988 
L 299.753533 -116.529793 
L 298.957295 -117.702167 
L 298.161058 -119.189482 
L 297.36482 -120.87895 
L 296.568583 -122.620493 
L 295.772345 -124.257981 
L 294.976108 -125.663075 
L 294.17987 -126.737404 
L 293.383633 -127.39184 
L 292.587395 -127.539467 
L 291.791158 -127.115252 
L 290.99492 -126.096968 
L 290.198683 -124.501721 
L 289.402445 -122.369662 
L 288.606208 -119.765779 
L 287.80997 -116.808094 
L 287.013732 -113.695278 
L 286.217495 -110.700776 
L 285.421257 -108.125095 
L 284.62502 -106.221997 
L 283.828782 -105.122323 
L 283.032545 -104.779796 
L 282.236307 -104.964183 
L 281.44007 -105.318803 
L 280.643832 -105.472818 
L 279.847595 -105.168095 
L 279.051357 -104.350314 
L 278.25512 -103.189828 
L 277.458882 -102.026119 
L 276.662645 -101.255927 
L 275.866407 -101.2045 
L 275.07017 -102.025134 
L 274.273932 -103.657068 
L 273.477695 -105.844338 
L 272.681457 -108.199919 
L 271.88522 -110.30041 
L 271.088982 -111.798286 
L 270.292744 -112.522474 
L 269.496507 -112.521744 
L 268.700269 -112.024725 
L 267.904032 -111.3417 
L 267.107794 -110.764737 
L 266.311557 -110.500608 
L 265.515319 -110.628455 
L 264.719082 -111.069045 
L 263.922844 -111.584588 
L 263.126607 -111.844847 
L 262.330369 -111.556049 
L 261.534132 -110.589094 
L 260.737894 -109.03744 
L 259.941657 -107.190271 
L 259.145419 -105.45829 
L 258.349182 -104.287564 
L 257.552944 -104.065581 
L 256.756707 -105.016253 
L 255.960469 -107.107851 
L 255.164231 -110.026932 
L 254.367994 -113.259691 
L 253.571756 -116.260485 
L 252.775519 -118.626415 
L 251.979281 -120.193786 
L 251.183044 -121.02501 
L 250.386806 -121.317643 
L 249.590569 -121.297766 
L 248.794331 -121.142092 
L 247.998094 -120.935702 
L 247.201856 -120.660322 
L 246.405619 -120.216972 
L 245.609381 -119.494103 
L 244.813144 -118.463028 
L 244.016906 -117.247389 
L 243.220669 -116.118664 
L 242.424431 -115.41963 
L 241.628194 -115.459374 
L 240.831956 -116.414605 
L 240.035719 -118.250513 
L 239.239481 -120.677137 
L 238.443243 -123.185059 
L 237.647006 -125.186488 
L 236.850768 -126.215074 
L 236.054531 -126.084516 
L 235.258293 -124.933686 
L 234.462056 -123.168639 
L 233.665818 -121.360826 
L 232.869581 -120.131407 
L 232.073343 -120.003213 
L 231.277106 -121.225287 
L 230.480868 -123.645607 
L 229.684631 -126.724389 
L 228.888393 -129.70619 
L 228.092156 -131.868247 
L 227.295918 -132.733429 
L 226.499681 -132.189975 
L 225.703443 -130.520519 
L 224.907206 -128.348613 
L 224.110968 -126.490564 
L 223.31473 -125.722132 
L 222.518493 -126.529587 
L 221.722255 -128.94993 
L 220.926018 -132.573451 
L 220.12978 -136.698528 
L 219.333543 -140.557532 
L 218.537305 -143.523257 
L 217.741068 -145.243649 
L 216.94483 -145.688207 
L 216.148593 -145.1044 
L 215.352355 -143.895357 
L 214.556118 -142.459103 
L 213.75988 -141.057602 
L 212.963643 -139.774589 
L 212.167405 -138.568241 
L 211.371168 -137.36758 
L 210.57493 -136.14794 
L 209.778693 -134.956361 
L 208.982455 -133.900488 
L 208.186218 -133.124652 
L 207.38998 -132.775805 
L 206.593742 -132.953471 
L 205.797505 -133.658471 
L 205.001267 -134.777238 
L 204.20503 -136.123566 
L 203.408792 -137.5146 
L 202.612555 -138.829842 
L 201.816317 -140.017082 
L 201.02008 -141.04745 
L 200.223842 -141.856785 
L 199.427605 -142.321709 
L 198.631367 -142.295456 
L 197.83513 -141.682849 
L 197.038892 -140.505659 
L 196.242655 -138.919319 
L 195.446417 -137.177062 
L 194.65018 -135.567669 
L 193.853942 -134.357749 
L 193.057705 -133.749566 
L 192.261467 -133.847582 
L 191.46523 -134.630142 
L 190.668992 -135.938971 
L 189.872754 -137.505041 
L 189.076517 -139.011672 
L 188.280279 -140.170162 
L 187.484042 -140.777735 
L 186.687804 -140.744513 
L 185.891567 -140.094427 
L 185.095329 -138.949399 
L 184.299092 -137.504787 
L 183.502854 -136.005031 
L 182.706617 -134.728766 
L 181.910379 -133.978466 
L 181.114142 -134.052611 
L 180.317904 -135.181419 
L 179.521667 -137.438214 
L 178.725429 -140.66809 
L 177.929192 -144.470328 
L 177.132954 -148.241446 
L 176.336717 -151.2677 
L 175.540479 -152.857567 
L 174.744241 -152.504472 
L 173.948004 -150.049503 
L 173.151766 -145.785385 
L 172.355529 -140.441883 
L 171.559291 -135.034763 
L 170.763054 -130.618525 
L 169.966816 -128.015204 
L 169.170579 -127.595681 
L 168.374341 -129.177601 
L 167.578104 -132.080366 
L 166.781866 -135.332992 
L 165.985629 -137.972621 
L 165.189391 -139.32978 
L 164.393154 -139.200214 
L 163.596916 -137.852015 
L 162.800679 -135.878089 
L 162.004441 -133.952143 
L 161.208204 -132.575034 
L 160.411966 -131.905711 
L 159.615729 -131.744376 
L 158.819491 -131.670965 
L 158.023253 -131.268054 
L 157.227016 -130.321338 
L 156.430778 -128.911255 
L 155.634541 -127.364231 
L 154.838303 -126.090955 
L 154.042066 -125.383054 
L 153.245828 -125.259123 
L 152.449591 -125.43586 
L 151.653353 -125.446483 
L 150.857116 -124.856803 
L 150.060878 -123.478978 
L 149.264641 -121.483973 
L 148.468403 -119.362064 
L 147.672166 -117.748033 
L 146.875928 -117.18204 
L 146.079691 -117.898297 
L 145.283453 -119.720073 
L 144.487216 -122.10254 
L 143.690978 -124.314629 
L 142.89474 -125.698034 
L 142.098503 -125.902831 
L 141.302265 -124.999525 
L 140.506028 -123.417951 
L 139.70979 -121.74427 
L 138.913553 -120.473778 
L 138.117315 -119.828814 
L 137.321078 -119.708664 
L 136.52484 -119.773756 
L 135.728603 -119.617002 
L 134.932365 -118.952979 
L 134.136128 -117.754504 
L 133.33989 -116.281041 
L 132.543653 -114.980637 
L 131.747415 -114.300488 
L 130.951178 -114.484481 
L 130.15494 -115.445989 
L 129.358703 -116.778459 
L 128.562465 -117.911878 
L 127.766228 -118.3546 
L 126.96999 -117.91059 
L 126.173752 -116.768976 
L 125.377515 -115.423136 
L 124.581277 -114.461102 
L 123.78504 -114.323335 
L 122.988802 -115.125238 
L 122.192565 -116.604412 
L 121.396327 -118.205016 
L 120.60009 -119.272715 
L 119.803852 -119.295974 
L 119.007615 -118.097353 
L 118.211377 -115.887718 
L 117.41514 -113.162279 
L 116.618902 -110.502439 
L 115.822665 -108.387085 
L 115.026427 -107.086994 
L 114.23019 -106.65512 
L 113.433952 -106.984066 
L 112.637715 -107.894159 
L 111.841477 -109.222525 
L 111.04524 -110.883356 
L 110.249002 -112.865583 
L 109.452764 -115.159075 
L 108.656527 -117.650615 
L 107.860289 -120.063397 
L 107.064052 -121.993699 
L 106.267814 -123.036012 
L 105.471577 -122.938902 
L 104.675339 -121.721719 
L 103.879102 -119.706573 
L 103.082864 -117.450549 
L 102.286627 -115.589517 
L 101.490389 -114.635882 
L 100.694152 -114.803674 
L 99.897914 -115.944127 
L 99.101677 -117.626927 
L 98.305439 -119.329338 
L 97.509202 -120.643466 
L 96.712964 -121.412706 
L 95.916727 -121.745072 
L 95.120489 -121.904765 
L 94.324251 -122.141924 
L 93.528014 -122.554559 
L 92.731776 -123.051333 
L 91.935539 -123.416535 
L 91.139301 -123.427361 
L 90.343064 -122.963761 
L 89.546826 -122.068552 
L 88.750589 -120.942606 
L 87.954351 -119.881154 
L 87.158114 -119.171095 
L 86.361876 -118.985388 
L 85.565639 -119.319424 
L 84.769401 -119.998702 
L 83.973164 -120.753907 
L 83.176926 -121.334562 
L 82.380689 -121.621606 
L 81.584451 -121.690763 
L 80.788214 -121.782743 
L 79.991976 -122.178232 
L 79.195739 -123.041442 
L 78.399501 -124.323172 
L 77.603263 -125.765831 
L 76.807026 -126.982058 
L 76.010788 -127.56255 
L 75.214551 -127.200746 
L 74.418313 -125.822872 
L 73.622076 -123.659133 
L 72.825838 -121.177262 
L 72.029601 -118.885939 
L 71.233363 -117.138722 
L 70.437126 -116.074402 
L 69.640888 -115.682295 
L 68.844651 -115.883025 
L 68.048413 -116.557754 
L 67.252176 -117.547953 
L 66.455938 -118.68604 
L 65.659701 -119.856686 
L 64.863463 -121.019201 
L 64.067226 -122.167948 
L 63.270988 -123.289682 
L 62.47475 -124.368246 
L 61.678513 -125.410964 
L 60.882275 -126.44057 
L 60.086038 -127.451317 
L 59.2898 -128.386449 
L 58.493563 -129.166226 
L 57.697325 -129.731474 
L 56.901088 -130.064605 
L 56.10485 -130.186266 
L 55.308613 -130.145462 
L 54.512375 -130.019624 
L 53.716138 -129.922862 
L 52.9199 -130.003314 
L 52.123663 -130.410414 
L 51.327425 -131.228044 
L 50.531188 -132.393122 
L 49.73495 -133.654226 
L 48.938713 -134.640016 
L 48.142475 -135.037592 
L 47.346238 -134.772112 
L 46.55 -134.067437 
z
" style="stroke: #377eb8; stroke-opacity: 0.3"/>
    </defs>
    <g clip-path="url(#p00cbe2fd49)">
     <use xlink:href="#mfec0666a3e" x="0" y="360" style="fill: #377eb8; fill-opacity: 0.3; stroke: #377eb8; stroke-opacity: 0.3"/>
    </g>
   </g>
   <g id="patch_3">
    <path d="M 229.843878 318.2 
L 229.843878 71.241125 
L 331.762281 71.241125 
L 331.762281 318.2 
z
" clip-path="url(#p00cbe2fd49)" style="fill: #808080; opacity: 0.3"/>
   </g>
   <g id="matplotlib.axis_1">
    <g id="xtick_1">
     <g id="line2d_1">
      <defs>
       <path id="me0ed0ec9c3" d="M 0 0 
L 0 3.5 
" style="stroke: #000000; stroke-width: 0.8"/>
      </defs>
      <g>
       <use xlink:href="#me0ed0ec9c3" x="87.158114" y="318.2" style="stroke: #000000; stroke-width: 0.8"/>
      </g>
     </g>
     <g id="text_1">
      <!-- 0.0 -->
      <g transform="translate(79.206551 332.798437)scale(0.1 -0.1)">
       <defs>
        <path id="DejaVuSans-30" d="M 2034 4250 
Q 1547 4250 1301 3770 
Q 1056 3291 1056 2328 
Q 1056 1369 1301 889 
Q 1547 409 2034 409 
Q 2525 409 2770 889 
Q 3016 1369 3016 2328 
Q 3016 3291 2770 3770 
Q 2525 4250 2034 4250 
z
M 2034 4750 
Q 2819 4750 3233 4129 
Q 3647 3509 3647 2328 
Q 3647 1150 3233 529 
Q 2819 -91 2034 -91 
Q 1250 -91 836 529 
Q 422 1150 422 2328 
Q 422 3509 836 4129 
Q 1250 4750 2034 4750 
z
" transform="scale(0.015625)"/>
        <path id="DejaVuSans-2e" d="M 684 794 
L 1344 794 
L 1344 0 
L 684 0 
L 684 794 
z
" transform="scale(0.015625)"/>
       </defs>
       <use xlink:href="#DejaVuSans-30"/>
       <use xlink:href="#DejaVuSans-2e" x="63.623047"/>
       <use xlink:href="#DejaVuSans-30" x="95.410156"/>
      </g>
     </g>
    </g>
    <g id="xtick_2">
     <g id="line2d_2">
      <g>
       <use xlink:href="#me0ed0ec9c3" x="168.692836" y="318.2" style="stroke: #000000; stroke-width: 0.8"/>
      </g>
     </g>
     <g id="text_2">
      <!-- 0.2 -->
      <g transform="translate(160.741274 332.798437)scale(0.1 -0.1)">
       <defs>
        <path id="DejaVuSans-32" d="M 1228 531 
L 3431 531 
L 3431 0 
L 469 0 
L 469 531 
Q 828 903 1448 1529 
Q 2069 2156 2228 2338 
Q 2531 2678 2651 2914 
Q 2772 3150 2772 3378 
Q 2772 3750 2511 3984 
Q 2250 4219 1831 4219 
Q 1534 4219 1204 4116 
Q 875 4013 500 3803 
L 500 4441 
Q 881 4594 1212 4672 
Q 1544 4750 1819 4750 
Q 2544 4750 2975 4387 
Q 3406 4025 3406 3419 
Q 3406 3131 3298 2873 
Q 3191 2616 2906 2266 
Q 2828 2175 2409 1742 
Q 1991 1309 1228 531 
z
" transform="scale(0.015625)"/>
       </defs>
       <use xlink:href="#DejaVuSans-30"/>
       <use xlink:href="#DejaVuSans-2e" x="63.623047"/>
       <use xlink:href="#DejaVuSans-32" x="95.410156"/>
      </g>
     </g>
    </g>
    <g id="xtick_3">
     <g id="line2d_3">
      <g>
       <use xlink:href="#me0ed0ec9c3" x="250.227559" y="318.2" style="stroke: #000000; stroke-width: 0.8"/>
      </g>
     </g>
     <g id="text_3">
      <!-- 0.4 -->
      <g transform="translate(242.275996 332.798437)scale(0.1 -0.1)">
       <defs>
        <path id="DejaVuSans-34" d="M 2419 4116 
L 825 1625 
L 2419 1625 
L 2419 4116 
z
M 2253 4666 
L 3047 4666 
L 3047 1625 
L 3713 1625 
L 3713 1100 
L 3047 1100 
L 3047 0 
L 2419 0 
L 2419 1100 
L 313 1100 
L 313 1709 
L 2253 4666 
z
" transform="scale(0.015625)"/>
       </defs>
       <use xlink:href="#DejaVuSans-30"/>
       <use xlink:href="#DejaVuSans-2e" x="63.623047"/>
       <use xlink:href="#DejaVuSans-34" x="95.410156"/>
      </g>
     </g>
    </g>
    <g id="xtick_4">
     <g id="line2d_4">
      <g>
       <use xlink:href="#me0ed0ec9c3" x="331.762281" y="318.2" style="stroke: #000000; stroke-width: 0.8"/>
      </g>
     </g>
     <g id="text_4">
      <!-- 0.6 -->
      <g transform="translate(323.810719 332.798437)scale(0.1 -0.1)">
       <defs>
        <path id="DejaVuSans-36" d="M 2113 2584 
Q 1688 2584 1439 2293 
Q 1191 2003 1191 1497 
Q 1191 994 1439 701 
Q 1688 409 2113 409 
Q 2538 409 2786 701 
Q 3034 994 3034 1497 
Q 3034 2003 2786 2293 
Q 2538 2584 2113 2584 
z
M 3366 4563 
L 3366 3988 
Q 3128 4100 2886 4159 
Q 2644 4219 2406 4219 
Q 1781 4219 1451 3797 
Q 1122 3375 1075 2522 
Q 1259 2794 1537 2939 
Q 1816 3084 2150 3084 
Q 2853 3084 3261 2657 
Q 3669 2231 3669 1497 
Q 3669 778 3244 343 
Q 2819 -91 2113 -91 
Q 1303 -91 875 529 
Q 447 1150 447 2328 
Q 447 3434 972 4092 
Q 1497 4750 2381 4750 
Q 2619 4750 2861 4703 
Q 3103 4656 3366 4563 
z
" transform="scale(0.015625)"/>
       </defs>
       <use xlink:href="#DejaVuSans-30"/>
       <use xlink:href="#DejaVuSans-2e" x="63.623047"/>
       <use xlink:href="#DejaVuSans-36" x="95.410156"/>
      </g>
     </g>
    </g>
    <g id="xtick_5">
     <g id="line2d_5">
      <g>
       <use xlink:href="#me0ed0ec9c3" x="413.297004" y="318.2" style="stroke: #000000; stroke-width: 0.8"/>
      </g>
     </g>
     <g id="text_5">
      <!-- 0.8 -->
      <g transform="translate(405.345441 332.798437)scale(0.1 -0.1)">
       <defs>
        <path id="DejaVuSans-38" d="M 2034 2216 
Q 1584 2216 1326 1975 
Q 1069 1734 1069 1313 
Q 1069 891 1326 650 
Q 1584 409 2034 409 
Q 2484 409 2743 651 
Q 3003 894 3003 1313 
Q 3003 1734 2745 1975 
Q 2488 2216 2034 2216 
z
M 1403 2484 
Q 997 2584 770 2862 
Q 544 3141 544 3541 
Q 544 4100 942 4425 
Q 1341 4750 2034 4750 
Q 2731 4750 3128 4425 
Q 3525 4100 3525 3541 
Q 3525 3141 3298 2862 
Q 3072 2584 2669 2484 
Q 3125 2378 3379 2068 
Q 3634 1759 3634 1313 
Q 3634 634 3220 271 
Q 2806 -91 2034 -91 
Q 1263 -91 848 271 
Q 434 634 434 1313 
Q 434 1759 690 2068 
Q 947 2378 1403 2484 
z
M 1172 3481 
Q 1172 3119 1398 2916 
Q 1625 2713 2034 2713 
Q 2441 2713 2670 2916 
Q 2900 3119 2900 3481 
Q 2900 3844 2670 4047 
Q 2441 4250 2034 4250 
Q 1625 4250 1398 4047 
Q 1172 3844 1172 3481 
z
" transform="scale(0.015625)"/>
       </defs>
       <use xlink:href="#DejaVuSans-30"/>
       <use xlink:href="#DejaVuSans-2e" x="63.623047"/>
       <use xlink:href="#DejaVuSans-38" x="95.410156"/>
      </g>
     </g>
    </g>
    <g id="text_6">
     <!-- seconds -->
     <g transform="translate(209.645249 346.476562)scale(0.1 -0.1)">
      <defs>
       <path id="DejaVuSans-73" d="M 2834 3397 
L 2834 2853 
Q 2591 2978 2328 3040 
Q 2066 3103 1784 3103 
Q 1356 3103 1142 2972 
Q 928 2841 928 2578 
Q 928 2378 1081 2264 
Q 1234 2150 1697 2047 
L 1894 2003 
Q 2506 1872 2764 1633 
Q 3022 1394 3022 966 
Q 3022 478 2636 193 
Q 2250 -91 1575 -91 
Q 1294 -91 989 -36 
Q 684 19 347 128 
L 347 722 
Q 666 556 975 473 
Q 1284 391 1588 391 
Q 1994 391 2212 530 
Q 2431 669 2431 922 
Q 2431 1156 2273 1281 
Q 2116 1406 1581 1522 
L 1381 1569 
Q 847 1681 609 1914 
Q 372 2147 372 2553 
Q 372 3047 722 3315 
Q 1072 3584 1716 3584 
Q 2034 3584 2315 3537 
Q 2597 3491 2834 3397 
z
" transform="scale(0.015625)"/>
       <path id="DejaVuSans-65" d="M 3597 1894 
L 3597 1613 
L 953 1613 
Q 991 1019 1311 708 
Q 1631 397 2203 397 
Q 2534 397 2845 478 
Q 3156 559 3463 722 
L 3463 178 
Q 3153 47 2828 -22 
Q 2503 -91 2169 -91 
Q 1331 -91 842 396 
Q 353 884 353 1716 
Q 353 2575 817 3079 
Q 1281 3584 2069 3584 
Q 2775 3584 3186 3129 
Q 3597 2675 3597 1894 
z
M 3022 2063 
Q 3016 2534 2758 2815 
Q 2500 3097 2075 3097 
Q 1594 3097 1305 2825 
Q 1016 2553 972 2059 
L 3022 2063 
z
" transform="scale(0.015625)"/>
       <path id="DejaVuSans-63" d="M 3122 3366 
L 3122 2828 
Q 2878 2963 2633 3030 
Q 2388 3097 2138 3097 
Q 1578 3097 1268 2742 
Q 959 2388 959 1747 
Q 959 1106 1268 751 
Q 1578 397 2138 397 
Q 2388 397 2633 464 
Q 2878 531 3122 666 
L 3122 134 
Q 2881 22 2623 -34 
Q 2366 -91 2075 -91 
Q 1284 -91 818 406 
Q 353 903 353 1747 
Q 353 2603 823 3093 
Q 1294 3584 2113 3584 
Q 2378 3584 2631 3529 
Q 2884 3475 3122 3366 
z
" transform="scale(0.015625)"/>
       <path id="DejaVuSans-6f" d="M 1959 3097 
Q 1497 3097 1228 2736 
Q 959 2375 959 1747 
Q 959 1119 1226 758 
Q 1494 397 1959 397 
Q 2419 397 2687 759 
Q 2956 1122 2956 1747 
Q 2956 2369 2687 2733 
Q 2419 3097 1959 3097 
z
M 1959 3584 
Q 2709 3584 3137 3096 
Q 3566 2609 3566 1747 
Q 3566 888 3137 398 
Q 2709 -91 1959 -91 
Q 1206 -91 779 398 
Q 353 888 353 1747 
Q 353 2609 779 3096 
Q 1206 3584 1959 3584 
z
" transform="scale(0.015625)"/>
       <path id="DejaVuSans-6e" d="M 3513 2113 
L 3513 0 
L 2938 0 
L 2938 2094 
Q 2938 2591 2744 2837 
Q 2550 3084 2163 3084 
Q 1697 3084 1428 2787 
Q 1159 2491 1159 1978 
L 1159 0 
L 581 0 
L 581 3500 
L 1159 3500 
L 1159 2956 
Q 1366 3272 1645 3428 
Q 1925 3584 2291 3584 
Q 2894 3584 3203 3211 
Q 3513 2838 3513 2113 
z
" transform="scale(0.015625)"/>
       <path id="DejaVuSans-64" d="M 2906 2969 
L 2906 4863 
L 3481 4863 
L 3481 0 
L 2906 0 
L 2906 525 
Q 2725 213 2448 61 
Q 2172 -91 1784 -91 
Q 1150 -91 751 415 
Q 353 922 353 1747 
Q 353 2572 751 3078 
Q 1150 3584 1784 3584 
Q 2172 3584 2448 3432 
Q 2725 3281 2906 2969 
z
M 947 1747 
Q 947 1113 1208 752 
Q 1469 391 1925 391 
Q 2381 391 2643 752 
Q 2906 1113 2906 1747 
Q 2906 2381 2643 2742 
Q 2381 3103 1925 3103 
Q 1469 3103 1208 2742 
Q 947 2381 947 1747 
z
" transform="scale(0.015625)"/>
      </defs>
      <use xlink:href="#DejaVuSans-73"/>
      <use xlink:href="#DejaVuSans-65" x="52.099609"/>
      <use xlink:href="#DejaVuSans-63" x="113.623047"/>
      <use xlink:href="#DejaVuSans-6f" x="168.603516"/>
      <use xlink:href="#DejaVuSans-6e" x="229.785156"/>
      <use xlink:href="#DejaVuSans-64" x="293.164062"/>
      <use xlink:href="#DejaVuSans-73" x="356.640625"/>
     </g>
    </g>
   </g>
   <g id="matplotlib.axis_2">
    <g id="ytick_1">
     <g id="line2d_6">
      <defs>
       <path id="m5c95d67618" d="M 0 0 
L -3.5 0 
" style="stroke: #000000; stroke-width: 0.8"/>
      </defs>
      <g>
       <use xlink:href="#m5c95d67618" x="46.55" y="315.285618" style="stroke: #000000; stroke-width: 0.8"/>
      </g>
     </g>
     <g id="text_7">
      <!-- 2 -->
      <g transform="translate(24.807812 319.084837)scale(0.1 -0.1)">
       <defs>
        <path id="DejaVuSans-2212" d="M 678 2272 
L 4684 2272 
L 4684 1741 
L 678 1741 
L 678 2272 
z
" transform="scale(0.015625)"/>
       </defs>
       <use xlink:href="#DejaVuSans-2212"/>
       <use xlink:href="#DejaVuSans-32" x="83.789062"/>
      </g>
     </g>
    </g>
    <g id="ytick_2">
     <g id="line2d_7">
      <g>
       <use xlink:href="#m5c95d67618" x="46.55" y="280.174099" style="stroke: #000000; stroke-width: 0.8"/>
      </g>
     </g>
     <g id="text_8">
      <!-- 1 -->
      <g transform="translate(24.807812 283.973318)scale(0.1 -0.1)">
       <defs>
        <path id="DejaVuSans-31" d="M 794 531 
L 1825 531 
L 1825 4091 
L 703 3866 
L 703 4441 
L 1819 4666 
L 2450 4666 
L 2450 531 
L 3481 531 
L 3481 0 
L 794 0 
L 794 531 
z
" transform="scale(0.015625)"/>
       </defs>
       <use xlink:href="#DejaVuSans-2212"/>
       <use xlink:href="#DejaVuSans-31" x="83.789062"/>
      </g>
     </g>
    </g>
    <g id="ytick_3">
     <g id="line2d_8">
      <g>
       <use xlink:href="#m5c95d67618" x="46.55" y="245.062581" style="stroke: #000000; stroke-width: 0.8"/>
      </g>
     </g>
     <g id="text_9">
      <!-- 0 -->
      <g transform="translate(33.1875 248.8618)scale(0.1 -0.1)">
       <use xlink:href="#DejaVuSans-30"/>
      </g>
     </g>
    </g>
    <g id="ytick_4">
     <g id="line2d_9">
      <g>
       <use xlink:href="#m5c95d67618" x="46.55" y="209.951063" style="stroke: #000000; stroke-width: 0.8"/>
      </g>
     </g>
     <g id="text_10">
      <!-- 1 -->
      <g transform="translate(33.1875 213.750281)scale(0.1 -0.1)">
       <use xlink:href="#DejaVuSans-31"/>
      </g>
     </g>
    </g>
    <g id="ytick_5">
     <g id="line2d_10">
      <g>
       <use xlink:href="#m5c95d67618" x="46.55" y="174.839544" style="stroke: #000000; stroke-width: 0.8"/>
      </g>
     </g>
     <g id="text_11">
      <!-- 2 -->
      <g transform="translate(33.1875 178.638763)scale(0.1 -0.1)">
       <use xlink:href="#DejaVuSans-32"/>
      </g>
     </g>
    </g>
    <g id="ytick_6">
     <g id="line2d_11">
      <g>
       <use xlink:href="#m5c95d67618" x="46.55" y="139.728026" style="stroke: #000000; stroke-width: 0.8"/>
      </g>
     </g>
     <g id="text_12">
      <!-- 3 -->
      <g transform="translate(33.1875 143.527245)scale(0.1 -0.1)">
       <defs>
        <path id="DejaVuSans-33" d="M 2597 2516 
Q 3050 2419 3304 2112 
Q 3559 1806 3559 1356 
Q 3559 666 3084 287 
Q 2609 -91 1734 -91 
Q 1441 -91 1130 -33 
Q 819 25 488 141 
L 488 750 
Q 750 597 1062 519 
Q 1375 441 1716 441 
Q 2309 441 2620 675 
Q 2931 909 2931 1356 
Q 2931 1769 2642 2001 
Q 2353 2234 1838 2234 
L 1294 2234 
L 1294 2753 
L 1863 2753 
Q 2328 2753 2575 2939 
Q 2822 3125 2822 3475 
Q 2822 3834 2567 4026 
Q 2313 4219 1838 4219 
Q 1578 4219 1281 4162 
Q 984 4106 628 3988 
L 628 4550 
Q 988 4650 1302 4700 
Q 1616 4750 1894 4750 
Q 2613 4750 3031 4423 
Q 3450 4097 3450 3541 
Q 3450 3153 3228 2886 
Q 3006 2619 2597 2516 
z
" transform="scale(0.015625)"/>
       </defs>
       <use xlink:href="#DejaVuSans-33"/>
      </g>
     </g>
    </g>
    <g id="ytick_7">
     <g id="line2d_12">
      <g>
       <use xlink:href="#m5c95d67618" x="46.55" y="104.616507" style="stroke: #000000; stroke-width: 0.8"/>
      </g>
     </g>
     <g id="text_13">
      <!-- 4 -->
      <g transform="translate(33.1875 108.415726)scale(0.1 -0.1)">
       <use xlink:href="#DejaVuSans-34"/>
      </g>
     </g>
    </g>
    <g id="text_14">
     <!-- V -->
     <g transform="translate(18.728125 201.322125)rotate(-90)scale(0.1 -0.1)">
      <defs>
       <path id="DejaVuSans-b5" d="M 544 -1331 
L 544 3500 
L 1119 3500 
L 1119 1325 
Q 1119 872 1334 640 
Q 1550 409 1972 409 
Q 2434 409 2667 671 
Q 2900 934 2900 1459 
L 2900 3500 
L 3475 3500 
L 3475 806 
Q 3475 619 3529 530 
Q 3584 441 3700 441 
Q 3728 441 3778 458 
Q 3828 475 3916 513 
L 3916 50 
Q 3788 -22 3673 -56 
Q 3559 -91 3450 -91 
Q 3234 -91 3106 31 
Q 2978 153 2931 403 
Q 2775 156 2548 32 
Q 2322 -91 2016 -91 
Q 1697 -91 1473 31 
Q 1250 153 1119 397 
L 1119 -1331 
L 544 -1331 
z
" transform="scale(0.015625)"/>
       <path id="DejaVuSans-56" d="M 1831 0 
L 50 4666 
L 709 4666 
L 2188 738 
L 3669 4666 
L 4325 4666 
L 2547 0 
L 1831 0 
z
" transform="scale(0.015625)"/>
      </defs>
      <use xlink:href="#DejaVuSans-b5"/>
      <use xlink:href="#DejaVuSans-56" x="63.623047"/>
     </g>
    </g>
   </g>
   <g id="line2d_13">
    <path d="M 46.55 226.839749 
L 49.73495 238.440448 
L 50.531188 239.938388 
L 51.327425 240.464327 
L 52.123663 240.038815 
L 52.9199 238.769095 
L 53.716138 236.845176 
L 55.308613 232.34699 
L 56.10485 230.736674 
L 56.901088 230.298311 
L 57.697325 231.47121 
L 58.493563 234.385543 
L 59.2898 238.724291 
L 60.882275 248.216381 
L 61.678513 251.115859 
L 62.47475 251.569465 
L 63.270988 249.354782 
L 64.067226 244.990456 
L 65.659701 234.78326 
L 66.455938 231.812852 
L 67.252176 231.590829 
L 68.048413 234.208989 
L 68.844651 238.973962 
L 70.437126 249.792258 
L 71.233363 253.281818 
L 72.029601 254.517365 
L 72.825838 253.584843 
L 73.622076 251.145799 
L 74.418313 248.184155 
L 75.214551 245.699861 
L 76.010788 244.450851 
L 76.807026 244.810032 
L 77.603263 246.751318 
L 78.399501 249.932581 
L 80.788214 261.303197 
L 81.584451 263.809343 
L 82.380689 264.985196 
L 83.176926 264.725488 
L 83.973164 263.222202 
L 85.565639 258.716668 
L 86.361876 257.22786 
L 87.158114 257.10069 
L 87.954351 258.5043 
L 90.343064 265.981139 
L 91.139301 266.310524 
L 91.935539 264.488286 
L 92.731776 260.835588 
L 94.324251 252.52973 
L 95.120489 250.634321 
L 95.916727 251.456286 
L 96.712964 254.880281 
L 98.305439 264.922727 
L 99.101677 268.302516 
L 99.897914 268.886548 
L 100.694152 266.402476 
L 101.490389 261.528961 
L 103.082864 250.273214 
L 103.879102 246.664804 
L 104.675339 245.288652 
L 105.471577 245.792056 
L 106.267814 247.192247 
L 107.064052 248.290188 
L 107.860289 248.126099 
L 108.656527 246.305867 
L 109.452764 243.089711 
L 111.04524 235.664478 
L 111.841477 233.139156 
L 112.637715 232.002454 
L 113.433952 232.139761 
L 114.23019 233.10475 
L 115.822665 235.439514 
L 116.618902 236.194722 
L 119.803852 238.197976 
L 121.396327 239.624333 
L 122.192565 240.149676 
L 124.581277 241.342752 
L 125.377515 242.114038 
L 126.96999 244.176295 
L 127.766228 244.899748 
L 128.562465 244.97667 
L 129.358703 244.257034 
L 130.15494 242.870933 
L 130.951178 241.2262 
L 131.747415 239.890425 
L 132.543653 239.395415 
L 133.33989 240.035532 
L 134.136128 241.737721 
L 135.728603 246.304033 
L 136.52484 247.761579 
L 137.321078 247.914793 
L 138.117315 246.617443 
L 138.913553 244.140337 
L 140.506028 238.219032 
L 141.302265 236.221474 
L 142.098503 235.533927 
L 142.89474 236.246707 
L 143.690978 238.115599 
L 146.079691 245.702715 
L 146.875928 247.402394 
L 147.672166 248.337248 
L 148.468403 248.539758 
L 149.264641 248.115429 
L 150.060878 247.168553 
L 150.857116 245.762251 
L 151.653353 243.927243 
L 153.245828 239.2378 
L 154.838303 234.592876 
L 155.634541 233.138762 
L 156.430778 232.6688 
L 157.227016 233.244167 
L 158.023253 234.622577 
L 158.819491 236.262342 
L 159.615729 237.431439 
L 160.411966 237.400399 
L 161.208204 235.663858 
L 162.004441 232.116985 
L 163.596916 221.419085 
L 164.393154 215.9368 
L 165.189391 211.502095 
L 165.985629 208.603769 
L 166.781866 207.256682 
L 167.578104 207.027286 
L 168.374341 207.209535 
L 169.170579 207.086434 
L 169.966816 206.180584 
L 170.763054 204.400767 
L 173.151766 197.51921 
L 173.948004 196.10256 
L 176.336717 193.436197 
L 177.132954 191.663986 
L 178.725429 186.290547 
L 179.521667 183.709163 
L 180.317904 182.132277 
L 181.114142 182.06954 
L 181.910379 183.623462 
L 182.706617 186.434318 
L 184.299092 192.855426 
L 185.095329 194.928035 
L 185.891567 195.627075 
L 186.687804 194.947431 
L 187.484042 193.17764 
L 189.076517 187.958831 
L 193.853942 171.005267 
L 194.65018 169.732117 
L 195.446417 169.665899 
L 196.242655 170.780642 
L 198.631367 176.956341 
L 199.427605 178.199471 
L 200.223842 178.607086 
L 201.02008 178.361814 
L 204.20503 176.150172 
L 205.001267 174.903933 
L 205.797505 172.618175 
L 206.593742 169.143654 
L 208.186218 160.398224 
L 208.982455 157.02228 
L 209.778693 155.702732 
L 210.57493 157.026442 
L 211.371168 160.876186 
L 213.75988 176.795156 
L 214.556118 179.031952 
L 215.352355 178.43883 
L 216.148593 175.345127 
L 218.537305 162.00061 
L 219.333543 159.810728 
L 220.12978 159.48208 
L 220.926018 160.66285 
L 222.518493 165.023464 
L 224.110968 169.036004 
L 227.295918 175.765285 
L 228.092156 176.834714 
L 228.888393 176.994089 
L 229.684631 175.99271 
L 230.480868 173.867006 
L 232.869581 165.283857 
L 233.665818 163.592554 
L 234.462056 162.991394 
L 235.258293 163.291263 
L 236.850768 164.637527 
L 237.647006 164.626857 
L 238.443243 163.739968 
L 239.239481 162.009822 
L 241.628194 155.308534 
L 242.424431 154.008615 
L 243.220669 153.64014 
L 244.016906 154.220855 
L 244.813144 155.613689 
L 246.405619 159.821701 
L 247.998094 163.962643 
L 248.794331 165.340278 
L 249.590569 165.999727 
L 250.386806 165.845921 
L 251.183044 164.882804 
L 251.979281 163.222267 
L 255.164231 154.774967 
L 255.960469 153.691304 
L 256.756707 153.420546 
L 257.552944 153.977621 
L 258.349182 155.270638 
L 259.145419 157.13381 
L 260.737894 161.789152 
L 262.330369 166.524888 
L 263.126607 168.537236 
L 263.922844 170.07386 
L 264.719082 170.912148 
L 265.515319 170.824993 
L 266.311557 169.648865 
L 267.107794 167.372816 
L 268.700269 160.651112 
L 269.496507 157.35055 
L 270.292744 155.037683 
L 271.088982 154.285386 
L 271.88522 155.314551 
L 272.681457 157.868238 
L 274.273932 164.331022 
L 275.07017 166.13482 
L 275.866407 165.851115 
L 276.662645 163.245005 
L 277.458882 158.727515 
L 279.051357 148.056777 
L 279.847595 144.249488 
L 280.643832 142.502521 
L 281.44007 142.82673 
L 282.236307 144.582439 
L 283.032545 146.700147 
L 283.828782 148.039673 
L 284.62502 147.768901 
L 285.421257 145.634832 
L 286.217495 142.038057 
L 287.80997 134.310529 
L 288.606208 132.25953 
L 289.402445 132.244665 
L 290.198683 134.175923 
L 292.587395 143.897785 
L 293.383633 145.363876 
L 294.17987 145.052832 
L 294.976108 143.095754 
L 296.568583 136.476942 
L 297.36482 133.21847 
L 298.161058 130.752309 
L 298.957295 129.346154 
L 299.753533 129.006865 
L 300.54977 129.541255 
L 301.346008 130.647502 
L 302.938483 133.344327 
L 303.73472 134.475918 
L 304.530958 135.306955 
L 305.327196 135.831733 
L 306.123433 136.117461 
L 307.715908 136.473009 
L 308.512146 136.816259 
L 309.308383 137.391851 
L 310.900858 139.116687 
L 311.697096 139.979205 
L 312.493333 140.567781 
L 313.289571 140.705474 
L 314.085808 140.312083 
L 314.882046 139.433507 
L 318.066996 134.582541 
L 319.659471 132.915361 
L 322.048184 130.678137 
L 322.844421 130.303268 
L 323.640659 130.544353 
L 324.436896 131.666312 
L 325.233134 133.783222 
L 326.029371 136.776313 
L 327.621846 143.749113 
L 328.418084 146.581847 
L 329.214321 148.272715 
L 330.010559 148.536844 
L 330.806796 147.378466 
L 331.603034 145.085844 
L 333.195509 139.199684 
L 333.991746 136.782658 
L 334.787984 135.360685 
L 335.584221 135.196135 
L 336.380459 136.334804 
L 337.176697 138.610556 
L 340.361647 150.549766 
L 341.157884 151.806348 
L 341.954122 151.801861 
L 342.750359 150.683598 
L 344.342834 146.947383 
L 345.139072 145.531439 
L 345.935309 145.077539 
L 346.731547 145.751002 
L 347.527784 147.37001 
L 349.120259 151.378 
L 349.916497 152.543587 
L 350.712734 152.577091 
L 351.508972 151.423841 
L 352.30521 149.351443 
L 353.897685 144.503507 
L 354.693922 142.790346 
L 355.49016 142.021524 
L 356.286397 142.27795 
L 357.082635 143.436331 
L 358.67511 147.270479 
L 359.471347 149.156312 
L 360.267585 150.435601 
L 361.063822 150.681707 
L 361.86006 149.559712 
L 362.656297 146.93348 
L 363.452535 142.980053 
L 365.04501 133.689409 
L 365.841247 130.374812 
L 366.637485 129.340167 
L 367.433722 131.206323 
L 368.22996 135.937553 
L 370.618673 156.927952 
L 371.41491 161.271529 
L 372.211148 162.586041 
L 373.007385 161.028539 
L 374.59986 153.864304 
L 375.396098 151.366303 
L 376.192335 151.208374 
L 376.988573 153.668586 
L 377.78481 158.149435 
L 379.377285 168.013868 
L 380.173523 170.782389 
L 380.96976 171.165234 
L 381.765998 169.334219 
L 382.562235 166.032175 
L 384.15471 158.818856 
L 384.950948 156.232189 
L 385.747186 154.497507 
L 389.728373 148.704084 
L 390.524611 148.026727 
L 391.320848 147.974424 
L 392.117086 148.470565 
L 392.913323 149.193574 
L 393.709561 149.72539 
L 394.505798 149.769214 
L 395.302036 149.329916 
L 396.098273 148.762112 
L 396.894511 148.649484 
L 397.690748 149.556649 
L 398.486986 151.757487 
L 400.079461 158.824457 
L 400.875699 162.151188 
L 401.671936 164.216526 
L 402.468174 164.574906 
L 403.264411 163.330143 
L 404.856886 158.71136 
L 405.653124 156.953243 
L 406.449361 156.151841 
L 408.041836 156.056466 
L 408.838074 155.213974 
L 409.634311 152.911336 
L 410.430549 149.03164 
L 412.023024 139.141522 
L 412.819261 135.34433 
L 413.615499 133.629454 
L 413.615499 133.629454 
" clip-path="url(#p00cbe2fd49)" style="fill: none; stroke: #e41a1c; stroke-width: 1.5; stroke-linecap: square"/>
   </g>
   <g id="line2d_14">
    <path d="M 46.55 238.080292 
L 47.346238 237.151391 
L 48.142475 236.611078 
L 48.938713 236.674476 
L 49.73495 237.31492 
L 51.327425 239.315421 
L 52.123663 240.071443 
L 52.9199 240.42405 
L 53.716138 240.392477 
L 56.10485 239.639392 
L 56.901088 239.686084 
L 57.697325 239.968394 
L 58.493563 240.445243 
L 60.086038 241.785351 
L 61.678513 243.508992 
L 64.067226 246.662846 
L 68.048413 252.200989 
L 68.844651 253.012705 
L 69.640888 253.382789 
L 70.437126 253.101944 
L 71.233363 252.044937 
L 72.029601 250.248315 
L 74.418313 243.50317 
L 75.214551 242.238393 
L 76.010788 241.960391 
L 76.807026 242.624183 
L 77.603263 243.946686 
L 79.195739 246.91141 
L 79.991976 247.895847 
L 80.788214 248.430044 
L 82.380689 248.914693 
L 83.176926 249.365124 
L 83.973164 250.117604 
L 85.565639 251.965552 
L 86.361876 252.524477 
L 87.158114 252.551363 
L 87.954351 252.035701 
L 90.343064 249.561957 
L 91.139301 249.328963 
L 91.935539 249.539496 
L 94.324251 251.041238 
L 95.916727 251.684998 
L 96.712964 252.254252 
L 97.509202 253.263374 
L 98.305439 254.74643 
L 99.897914 258.156021 
L 100.694152 259.225276 
L 101.490389 259.353019 
L 102.286627 258.431381 
L 103.082864 256.675836 
L 104.675339 252.75173 
L 105.471577 251.746427 
L 106.267814 251.874897 
L 107.064052 253.141705 
L 107.860289 255.279053 
L 110.249002 262.91986 
L 111.04524 264.981032 
L 111.841477 266.698282 
L 112.637715 268.09078 
L 113.433952 269.101058 
L 114.23019 269.563607 
L 115.026427 269.258745 
L 115.822665 268.031005 
L 116.618902 265.916114 
L 118.211377 260.434741 
L 119.007615 258.199711 
L 119.803852 257.004295 
L 120.60009 257.058039 
L 121.396327 258.193752 
L 122.988802 261.573403 
L 123.78504 262.59344 
L 124.581277 262.686315 
L 125.377515 261.940485 
L 126.96999 259.737499 
L 127.766228 259.318528 
L 128.562465 259.712319 
L 129.358703 260.764559 
L 130.15494 262.038673 
L 130.951178 263.000547 
L 131.747415 263.239338 
L 132.543653 262.631373 
L 133.33989 261.379411 
L 134.136128 259.913223 
L 134.932365 258.69634 
L 135.728603 258.023006 
L 136.52484 257.893748 
L 137.321078 258.024645 
L 138.117315 257.987369 
L 138.913553 257.41941 
L 139.70979 256.21249 
L 141.302265 253.064618 
L 142.098503 252.201872 
L 142.89474 252.42586 
L 143.690978 253.80651 
L 146.079691 260.200337 
L 146.875928 260.922577 
L 147.672166 260.3691 
L 148.468403 258.783072 
L 150.060878 254.804373 
L 150.857116 253.523696 
L 151.653353 253.023914 
L 152.449591 253.104252 
L 153.245828 253.332909 
L 154.042066 253.253878 
L 154.838303 252.58988 
L 155.634541 251.354096 
L 157.227016 248.402324 
L 158.023253 247.406063 
L 158.819491 246.921442 
L 160.411966 246.505643 
L 161.208204 245.79245 
L 162.004441 244.423979 
L 163.596916 240.654456 
L 164.393154 239.396155 
L 165.189391 239.365938 
L 165.985629 240.832988 
L 166.781866 243.590272 
L 168.374341 249.967445 
L 169.170579 251.624037 
L 169.966816 251.231168 
L 170.763054 248.597887 
L 171.559291 244.107196 
L 173.151766 233.203461 
L 173.948004 228.918838 
L 174.744241 226.494725 
L 175.540479 226.215835 
L 176.336717 227.900145 
L 177.132954 231.002852 
L 178.725429 238.541405 
L 179.521667 241.671686 
L 180.317904 243.838775 
L 181.114142 244.938444 
L 181.910379 245.062406 
L 182.706617 244.428404 
L 183.502854 243.311217 
L 185.095329 240.723463 
L 185.891567 239.724146 
L 186.687804 239.159496 
L 187.484042 239.133808 
L 188.280279 239.673084 
L 189.076517 240.710317 
L 191.46523 244.818533 
L 192.261467 245.637522 
L 193.057705 245.817566 
L 193.853942 245.298029 
L 194.65018 244.159429 
L 197.038892 239.379464 
L 197.83513 238.232952 
L 198.631367 237.618426 
L 199.427605 237.571772 
L 200.223842 238.040739 
L 201.02008 238.920515 
L 202.612555 241.432518 
L 204.20503 244.213673 
L 205.001267 245.427097 
L 205.797505 246.35564 
L 206.593742 246.883004 
L 207.38998 246.937227 
L 208.186218 246.520428 
L 208.982455 245.71718 
L 211.371168 242.422734 
L 213.75988 239.050042 
L 216.148593 235.103799 
L 216.94483 234.497829 
L 217.741068 234.882697 
L 218.537305 236.527424 
L 219.333543 239.43368 
L 221.722255 251.094032 
L 222.518493 253.611677 
L 223.31473 254.546987 
L 224.110968 253.901629 
L 224.907206 252.112577 
L 225.703443 249.930709 
L 226.499681 248.199515 
L 227.295918 247.604199 
L 228.092156 248.471312 
L 228.888393 250.6814 
L 230.480868 256.841426 
L 231.277106 259.305425 
L 232.073343 260.586648 
L 232.869581 260.519443 
L 233.665818 259.325035 
L 235.258293 255.783776 
L 236.054531 254.700703 
L 236.850768 254.662956 
L 237.647006 255.746978 
L 238.443243 257.722098 
L 240.035719 262.456124 
L 240.831956 264.214724 
L 241.628194 265.130128 
L 242.424431 265.159049 
L 243.220669 264.478032 
L 245.609381 261.352774 
L 246.405619 260.755075 
L 247.201856 260.449706 
L 249.590569 260.111549 
L 250.386806 260.088344 
L 251.183044 260.351009 
L 251.979281 261.154101 
L 252.775519 262.695528 
L 253.571756 265.016013 
L 255.960469 274.007178 
L 256.756707 276.174354 
L 257.552944 277.268728 
L 258.349182 277.190911 
L 259.145419 276.103254 
L 261.534132 270.901176 
L 262.330369 269.896841 
L 263.126607 269.575297 
L 263.922844 269.817225 
L 265.515319 270.855595 
L 266.311557 271.060705 
L 267.107794 270.840686 
L 267.904032 270.252221 
L 268.700269 269.521272 
L 269.496507 268.977605 
L 270.292744 268.955227 
L 271.088982 269.686138 
L 271.88522 271.218624 
L 273.477695 275.8361 
L 274.273932 278.122448 
L 275.07017 279.822704 
L 275.866407 280.658777 
L 276.662645 280.57516 
L 277.458882 279.751432 
L 279.051357 277.361796 
L 279.847595 276.551876 
L 280.643832 276.274418 
L 281.44007 276.466518 
L 282.236307 276.869263 
L 283.032545 277.118506 
L 283.828782 276.864031 
L 284.62502 275.875736 
L 285.421257 274.102619 
L 286.217495 271.670142 
L 289.402445 260.52725 
L 290.198683 258.472773 
L 290.99492 256.927467 
L 291.791158 255.924552 
L 292.587395 255.481078 
L 293.383633 255.595089 
L 294.17987 256.232655 
L 294.976108 257.317269 
L 296.568583 260.336621 
L 298.161058 263.583799 
L 298.957295 265.011167 
L 299.753533 266.185289 
L 300.54977 267.006265 
L 301.346008 267.364778 
L 302.142245 267.172515 
L 302.938483 266.418826 
L 305.327196 262.836124 
L 306.123433 262.484392 
L 306.919671 263.145455 
L 307.715908 264.849767 
L 310.104621 271.890862 
L 310.900858 272.783211 
L 311.697096 272.341219 
L 312.493333 270.837384 
L 313.289571 268.970637 
L 314.085808 267.648142 
L 314.882046 267.669972 
L 315.678283 269.428264 
L 316.474521 272.735009 
L 318.066996 280.701479 
L 318.863233 283.239047 
L 319.659471 283.768144 
L 320.455709 282.171364 
L 321.251946 278.926196 
L 322.844421 271.1746 
L 323.640659 268.475344 
L 324.436896 267.217556 
L 325.233134 267.3343 
L 326.029371 268.422207 
L 328.418084 272.889169 
L 332.399271 278.926194 
L 333.195509 279.590932 
L 333.991746 279.57138 
L 334.787984 278.809078 
L 335.584221 277.469351 
L 337.176697 274.455996 
L 337.972934 273.440882 
L 338.769172 272.914238 
L 341.157884 272.369508 
L 343.546597 270.919124 
L 344.342834 271.085671 
L 345.139072 271.965955 
L 347.527784 276.549159 
L 348.324022 277.019727 
L 349.120259 276.261079 
L 349.916497 274.307215 
L 352.30521 266.333353 
L 353.101447 265.010159 
L 353.897685 264.853368 
L 354.693922 265.649572 
L 356.286397 268.222477 
L 357.082635 269.131772 
L 357.878872 269.577978 
L 359.471347 269.976951 
L 360.267585 270.621853 
L 361.063822 271.851619 
L 363.452535 277.083071 
L 364.248772 277.970406 
L 365.04501 277.889332 
L 365.841247 276.845999 
L 366.637485 275.08641 
L 368.22996 270.991993 
L 369.026198 269.357381 
L 369.822435 268.229269 
L 370.618673 267.58337 
L 371.41491 267.301767 
L 372.211148 267.25282 
L 373.007385 267.348775 
L 374.59986 267.873122 
L 376.192335 268.612536 
L 376.988573 268.768074 
L 377.78481 268.544364 
L 378.581048 267.827572 
L 379.377285 266.647109 
L 380.96976 263.861198 
L 381.765998 262.991693 
L 382.562235 262.890803 
L 383.358473 263.627722 
L 385.747186 267.664256 
L 386.543423 267.898669 
L 387.339661 266.97266 
L 388.135898 264.981496 
L 389.728373 259.807597 
L 390.524611 257.992894 
L 391.320848 257.430813 
L 392.117086 258.278052 
L 392.913323 260.295568 
L 394.505798 265.473801 
L 395.302036 267.303373 
L 396.098273 268.023153 
L 396.894511 267.562721 
L 397.690748 266.146506 
L 400.875699 258.554136 
L 402.468174 256.078363 
L 404.060649 253.943517 
L 404.856886 253.020793 
L 405.653124 252.340043 
L 406.449361 251.980033 
L 408.838074 251.776241 
L 409.634311 251.169224 
L 410.430549 249.94837 
L 411.226786 248.162352 
L 412.819261 244.133392 
L 413.615499 242.756441 
L 413.615499 242.756441 
" clip-path="url(#p00cbe2fd49)" style="fill: none; stroke: #377eb8; stroke-width: 1.5; stroke-linecap: square"/>
   </g>
   <g id="line2d_15">
    <path d="M 87.158114 318.2 
L 87.158114 71.241125 
" clip-path="url(#p00cbe2fd49)" style="fill: none; stroke: #000000; stroke-width: 0.5; stroke-linecap: square"/>
   </g>
   <g id="line2d_16">
    <path d="M 46.55 245.062581 
L 413.615499 245.062581 
" clip-path="url(#p00cbe2fd49)" style="fill: none; stroke: #000000; stroke-width: 0.5; stroke-linecap: square"/>
   </g>
   <g id="patch_4">
    <path d="M 46.55 318.2 
L 46.55 71.241125 
" style="fill: none; stroke: #000000; stroke-width: 0.8; stroke-linejoin: miter; stroke-linecap: square"/>
   </g>
   <g id="patch_5">
    <path d="M 413.615499 318.2 
L 413.615499 71.241125 
" style="fill: none; stroke: #000000; stroke-width: 0.8; stroke-linejoin: miter; stroke-linecap: square"/>
   </g>
   <g id="patch_6">
    <path d="M 46.55 318.2 
L 413.615499 318.2 
" style="fill: none; stroke: #000000; stroke-width: 0.8; stroke-linejoin: miter; stroke-linecap: square"/>
   </g>
   <g id="patch_7">
    <path d="M 46.55 71.241125 
L 413.615499 71.241125 
" style="fill: none; stroke: #000000; stroke-width: 0.8; stroke-linejoin: miter; stroke-linecap: square"/>
   </g>
   <g id="text_15">
    <!-- Cz -->
    <g transform="translate(222.743999 65.241125)scale(0.12 -0.12)">
     <defs>
      <path id="DejaVuSans-43" d="M 4122 4306 
L 4122 3641 
Q 3803 3938 3442 4084 
Q 3081 4231 2675 4231 
Q 1875 4231 1450 3742 
Q 1025 3253 1025 2328 
Q 1025 1406 1450 917 
Q 1875 428 2675 428 
Q 3081 428 3442 575 
Q 3803 722 4122 1019 
L 4122 359 
Q 3791 134 3420 21 
Q 3050 -91 2638 -91 
Q 1578 -91 968 557 
Q 359 1206 359 2328 
Q 359 3453 968 4101 
Q 1578 4750 2638 4750 
Q 3056 4750 3426 4639 
Q 3797 4528 4122 4306 
z
" transform="scale(0.015625)"/>
      <path id="DejaVuSans-7a" d="M 353 3500 
L 3084 3500 
L 3084 2975 
L 922 459 
L 3084 459 
L 3084 0 
L 275 0 
L 275 525 
L 2438 3041 
L 353 3041 
L 353 3500 
z
" transform="scale(0.015625)"/>
     </defs>
     <use xlink:href="#DejaVuSans-43"/>
     <use xlink:href="#DejaVuSans-7a" x="69.824219"/>
    </g>
   </g>
   <g id="legend_1">
    <g id="patch_8">
     <path d="M 99.855406 48.044893 
L 360.310093 48.044893 
Q 362.310093 48.044893 362.310093 46.044893 
L 362.310093 17.410517 
Q 362.310093 15.410517 360.310093 15.410517 
L 99.855406 15.410517 
Q 97.855406 15.410517 97.855406 17.410517 
L 97.855406 46.044893 
Q 97.855406 48.044893 99.855406 48.044893 
z
" style="fill: #ffffff; opacity: 0.8; stroke: #cccccc; stroke-linejoin: miter"/>
    </g>
    <g id="text_16">
     <!-- Average of Session 13_tac4 -->
     <g transform="translate(161.068687 27.008955)scale(0.1 -0.1)">
      <defs>
       <path id="DejaVuSans-41" d="M 2188 4044 
L 1331 1722 
L 3047 1722 
L 2188 4044 
z
M 1831 4666 
L 2547 4666 
L 4325 0 
L 3669 0 
L 3244 1197 
L 1141 1197 
L 716 0 
L 50 0 
L 1831 4666 
z
" transform="scale(0.015625)"/>
       <path id="DejaVuSans-76" d="M 191 3500 
L 800 3500 
L 1894 563 
L 2988 3500 
L 3597 3500 
L 2284 0 
L 1503 0 
L 191 3500 
z
" transform="scale(0.015625)"/>
       <path id="DejaVuSans-72" d="M 2631 2963 
Q 2534 3019 2420 3045 
Q 2306 3072 2169 3072 
Q 1681 3072 1420 2755 
Q 1159 2438 1159 1844 
L 1159 0 
L 581 0 
L 581 3500 
L 1159 3500 
L 1159 2956 
Q 1341 3275 1631 3429 
Q 1922 3584 2338 3584 
Q 2397 3584 2469 3576 
Q 2541 3569 2628 3553 
L 2631 2963 
z
" transform="scale(0.015625)"/>
       <path id="DejaVuSans-61" d="M 2194 1759 
Q 1497 1759 1228 1600 
Q 959 1441 959 1056 
Q 959 750 1161 570 
Q 1363 391 1709 391 
Q 2188 391 2477 730 
Q 2766 1069 2766 1631 
L 2766 1759 
L 2194 1759 
z
M 3341 1997 
L 3341 0 
L 2766 0 
L 2766 531 
Q 2569 213 2275 61 
Q 1981 -91 1556 -91 
Q 1019 -91 701 211 
Q 384 513 384 1019 
Q 384 1609 779 1909 
Q 1175 2209 1959 2209 
L 2766 2209 
L 2766 2266 
Q 2766 2663 2505 2880 
Q 2244 3097 1772 3097 
Q 1472 3097 1187 3025 
Q 903 2953 641 2809 
L 641 3341 
Q 956 3463 1253 3523 
Q 1550 3584 1831 3584 
Q 2591 3584 2966 3190 
Q 3341 2797 3341 1997 
z
" transform="scale(0.015625)"/>
       <path id="DejaVuSans-67" d="M 2906 1791 
Q 2906 2416 2648 2759 
Q 2391 3103 1925 3103 
Q 1463 3103 1205 2759 
Q 947 2416 947 1791 
Q 947 1169 1205 825 
Q 1463 481 1925 481 
Q 2391 481 2648 825 
Q 2906 1169 2906 1791 
z
M 3481 434 
Q 3481 -459 3084 -895 
Q 2688 -1331 1869 -1331 
Q 1566 -1331 1297 -1286 
Q 1028 -1241 775 -1147 
L 775 -588 
Q 1028 -725 1275 -790 
Q 1522 -856 1778 -856 
Q 2344 -856 2625 -561 
Q 2906 -266 2906 331 
L 2906 616 
Q 2728 306 2450 153 
Q 2172 0 1784 0 
Q 1141 0 747 490 
Q 353 981 353 1791 
Q 353 2603 747 3093 
Q 1141 3584 1784 3584 
Q 2172 3584 2450 3431 
Q 2728 3278 2906 2969 
L 2906 3500 
L 3481 3500 
L 3481 434 
z
" transform="scale(0.015625)"/>
       <path id="DejaVuSans-20" transform="scale(0.015625)"/>
       <path id="DejaVuSans-66" d="M 2375 4863 
L 2375 4384 
L 1825 4384 
Q 1516 4384 1395 4259 
Q 1275 4134 1275 3809 
L 1275 3500 
L 2222 3500 
L 2222 3053 
L 1275 3053 
L 1275 0 
L 697 0 
L 697 3053 
L 147 3053 
L 147 3500 
L 697 3500 
L 697 3744 
Q 697 4328 969 4595 
Q 1241 4863 1831 4863 
L 2375 4863 
z
" transform="scale(0.015625)"/>
       <path id="DejaVuSans-53" d="M 3425 4513 
L 3425 3897 
Q 3066 4069 2747 4153 
Q 2428 4238 2131 4238 
Q 1616 4238 1336 4038 
Q 1056 3838 1056 3469 
Q 1056 3159 1242 3001 
Q 1428 2844 1947 2747 
L 2328 2669 
Q 3034 2534 3370 2195 
Q 3706 1856 3706 1288 
Q 3706 609 3251 259 
Q 2797 -91 1919 -91 
Q 1588 -91 1214 -16 
Q 841 59 441 206 
L 441 856 
Q 825 641 1194 531 
Q 1563 422 1919 422 
Q 2459 422 2753 634 
Q 3047 847 3047 1241 
Q 3047 1584 2836 1778 
Q 2625 1972 2144 2069 
L 1759 2144 
Q 1053 2284 737 2584 
Q 422 2884 422 3419 
Q 422 4038 858 4394 
Q 1294 4750 2059 4750 
Q 2388 4750 2728 4690 
Q 3069 4631 3425 4513 
z
" transform="scale(0.015625)"/>
       <path id="DejaVuSans-69" d="M 603 3500 
L 1178 3500 
L 1178 0 
L 603 0 
L 603 3500 
z
M 603 4863 
L 1178 4863 
L 1178 4134 
L 603 4134 
L 603 4863 
z
" transform="scale(0.015625)"/>
       <path id="DejaVuSans-5f" d="M 3263 -1063 
L 3263 -1509 
L -63 -1509 
L -63 -1063 
L 3263 -1063 
z
" transform="scale(0.015625)"/>
       <path id="DejaVuSans-74" d="M 1172 4494 
L 1172 3500 
L 2356 3500 
L 2356 3053 
L 1172 3053 
L 1172 1153 
Q 1172 725 1289 603 
Q 1406 481 1766 481 
L 2356 481 
L 2356 0 
L 1766 0 
Q 1100 0 847 248 
Q 594 497 594 1153 
L 594 3053 
L 172 3053 
L 172 3500 
L 594 3500 
L 594 4494 
L 1172 4494 
z
" transform="scale(0.015625)"/>
      </defs>
      <use xlink:href="#DejaVuSans-41"/>
      <use xlink:href="#DejaVuSans-76" x="62.533203"/>
      <use xlink:href="#DejaVuSans-65" x="121.712891"/>
      <use xlink:href="#DejaVuSans-72" x="183.236328"/>
      <use xlink:href="#DejaVuSans-61" x="224.349609"/>
      <use xlink:href="#DejaVuSans-67" x="285.628906"/>
      <use xlink:href="#DejaVuSans-65" x="349.105469"/>
      <use xlink:href="#DejaVuSans-20" x="410.628906"/>
      <use xlink:href="#DejaVuSans-6f" x="442.416016"/>
      <use xlink:href="#DejaVuSans-66" x="503.597656"/>
      <use xlink:href="#DejaVuSans-20" x="538.802734"/>
      <use xlink:href="#DejaVuSans-53" x="570.589844"/>
      <use xlink:href="#DejaVuSans-65" x="634.066406"/>
      <use xlink:href="#DejaVuSans-73" x="695.589844"/>
      <use xlink:href="#DejaVuSans-73" x="747.689453"/>
      <use xlink:href="#DejaVuSans-69" x="799.789062"/>
      <use xlink:href="#DejaVuSans-6f" x="827.572266"/>
      <use xlink:href="#DejaVuSans-6e" x="888.753906"/>
      <use xlink:href="#DejaVuSans-20" x="952.132812"/>
      <use xlink:href="#DejaVuSans-31" x="983.919922"/>
      <use xlink:href="#DejaVuSans-33" x="1047.542969"/>
      <use xlink:href="#DejaVuSans-5f" x="1111.166016"/>
      <use xlink:href="#DejaVuSans-74" x="1161.166016"/>
      <use xlink:href="#DejaVuSans-61" x="1200.375"/>
      <use xlink:href="#DejaVuSans-63" x="1261.654297"/>
      <use xlink:href="#DejaVuSans-34" x="1316.634766"/>
     </g>
    </g>
    <g id="line2d_17">
     <path d="M 101.855406 38.465205 
L 111.855406 38.465205 
L 121.855406 38.465205 
" style="fill: none; stroke: #e41a1c; stroke-width: 1.5; stroke-linecap: square"/>
    </g>
    <g id="text_17">
     <!-- Target (n=398) -->
     <g transform="translate(129.855406 41.965205)scale(0.1 -0.1)">
      <defs>
       <path id="DejaVuSans-54" d="M -19 4666 
L 3928 4666 
L 3928 4134 
L 2272 4134 
L 2272 0 
L 1638 0 
L 1638 4134 
L -19 4134 
L -19 4666 
z
" transform="scale(0.015625)"/>
       <path id="DejaVuSans-28" d="M 1984 4856 
Q 1566 4138 1362 3434 
Q 1159 2731 1159 2009 
Q 1159 1288 1364 580 
Q 1569 -128 1984 -844 
L 1484 -844 
Q 1016 -109 783 600 
Q 550 1309 550 2009 
Q 550 2706 781 3412 
Q 1013 4119 1484 4856 
L 1984 4856 
z
" transform="scale(0.015625)"/>
       <path id="DejaVuSans-3d" d="M 678 2906 
L 4684 2906 
L 4684 2381 
L 678 2381 
L 678 2906 
z
M 678 1631 
L 4684 1631 
L 4684 1100 
L 678 1100 
L 678 1631 
z
" transform="scale(0.015625)"/>
       <path id="DejaVuSans-39" d="M 703 97 
L 703 672 
Q 941 559 1184 500 
Q 1428 441 1663 441 
Q 2288 441 2617 861 
Q 2947 1281 2994 2138 
Q 2813 1869 2534 1725 
Q 2256 1581 1919 1581 
Q 1219 1581 811 2004 
Q 403 2428 403 3163 
Q 403 3881 828 4315 
Q 1253 4750 1959 4750 
Q 2769 4750 3195 4129 
Q 3622 3509 3622 2328 
Q 3622 1225 3098 567 
Q 2575 -91 1691 -91 
Q 1453 -91 1209 -44 
Q 966 3 703 97 
z
M 1959 2075 
Q 2384 2075 2632 2365 
Q 2881 2656 2881 3163 
Q 2881 3666 2632 3958 
Q 2384 4250 1959 4250 
Q 1534 4250 1286 3958 
Q 1038 3666 1038 3163 
Q 1038 2656 1286 2365 
Q 1534 2075 1959 2075 
z
" transform="scale(0.015625)"/>
       <path id="DejaVuSans-29" d="M 513 4856 
L 1013 4856 
Q 1481 4119 1714 3412 
Q 1947 2706 1947 2009 
Q 1947 1309 1714 600 
Q 1481 -109 1013 -844 
L 513 -844 
Q 928 -128 1133 580 
Q 1338 1288 1338 2009 
Q 1338 2731 1133 3434 
Q 928 4138 513 4856 
z
" transform="scale(0.015625)"/>
      </defs>
      <use xlink:href="#DejaVuSans-54"/>
      <use xlink:href="#DejaVuSans-61" x="44.583984"/>
      <use xlink:href="#DejaVuSans-72" x="105.863281"/>
      <use xlink:href="#DejaVuSans-67" x="145.226562"/>
      <use xlink:href="#DejaVuSans-65" x="208.703125"/>
      <use xlink:href="#DejaVuSans-74" x="270.226562"/>
      <use xlink:href="#DejaVuSans-20" x="309.435547"/>
      <use xlink:href="#DejaVuSans-28" x="341.222656"/>
      <use xlink:href="#DejaVuSans-6e" x="380.236328"/>
      <use xlink:href="#DejaVuSans-3d" x="443.615234"/>
      <use xlink:href="#DejaVuSans-33" x="527.404297"/>
      <use xlink:href="#DejaVuSans-39" x="591.027344"/>
      <use xlink:href="#DejaVuSans-38" x="654.650391"/>
      <use xlink:href="#DejaVuSans-29" x="718.273438"/>
     </g>
    </g>
    <g id="line2d_18">
     <path d="M 225.585093 38.465205 
L 235.585093 38.465205 
L 245.585093 38.465205 
" style="fill: none; stroke: #377eb8; stroke-width: 1.5; stroke-linecap: square"/>
    </g>
    <g id="text_18">
     <!-- Non-Target (n=1204) -->
     <g transform="translate(253.585093 41.965205)scale(0.1 -0.1)">
      <defs>
       <path id="DejaVuSans-4e" d="M 628 4666 
L 1478 4666 
L 3547 763 
L 3547 4666 
L 4159 4666 
L 4159 0 
L 3309 0 
L 1241 3903 
L 1241 0 
L 628 0 
L 628 4666 
z
" transform="scale(0.015625)"/>
       <path id="DejaVuSans-2d" d="M 313 2009 
L 1997 2009 
L 1997 1497 
L 313 1497 
L 313 2009 
z
" transform="scale(0.015625)"/>
      </defs>
      <use xlink:href="#DejaVuSans-4e"/>
      <use xlink:href="#DejaVuSans-6f" x="74.804688"/>
      <use xlink:href="#DejaVuSans-6e" x="135.986328"/>
      <use xlink:href="#DejaVuSans-2d" x="199.365234"/>
      <use xlink:href="#DejaVuSans-54" x="226.324219"/>
      <use xlink:href="#DejaVuSans-61" x="270.908203"/>
      <use xlink:href="#DejaVuSans-72" x="332.1875"/>
      <use xlink:href="#DejaVuSans-67" x="371.550781"/>
      <use xlink:href="#DejaVuSans-65" x="435.027344"/>
      <use xlink:href="#DejaVuSans-74" x="496.550781"/>
      <use xlink:href="#DejaVuSans-20" x="535.759766"/>
      <use xlink:href="#DejaVuSans-28" x="567.546875"/>
      <use xlink:href="#DejaVuSans-6e" x="606.560547"/>
      <use xlink:href="#DejaVuSans-3d" x="669.939453"/>
      <use xlink:href="#DejaVuSans-31" x="753.728516"/>
      <use xlink:href="#DejaVuSans-32" x="817.351562"/>
      <use xlink:href="#DejaVuSans-30" x="880.974609"/>
      <use xlink:href="#DejaVuSans-34" x="944.597656"/>
      <use xlink:href="#DejaVuSans-29" x="1008.220703"/>
     </g>
    </g>
   </g>
  </g>
 </g>
 <defs>
  <clipPath id="p00cbe2fd49">
   <rect x="46.55" y="71.241125" width="367.065499" height="246.958875"/>
  </clipPath>
 </defs>
</svg>
