<?xml version="1.0" encoding="utf-8" standalone="no"?>
<!DOCTYPE svg PUBLIC "-//W3C//DTD SVG 1.1//EN"
  "http://www.w3.org/Graphics/SVG/1.1/DTD/svg11.dtd">
<svg xmlns:xlink="http://www.w3.org/1999/xlink" width="432pt" height="360pt" viewBox="0 0 432 360" xmlns="http://www.w3.org/2000/svg" version="1.1">
 <metadata>
  <rdf:RDF xmlns:dc="http://purl.org/dc/elements/1.1/" xmlns:cc="http://creativecommons.org/ns#" xmlns:rdf="http://www.w3.org/1999/02/22-rdf-syntax-ns#">
   <cc:Work>
    <dc:type rdf:resource="http://purl.org/dc/dcmitype/StillImage"/>
    <dc:date>2022-11-02T16:57:07.193300</dc:date>
    <dc:format>image/svg+xml</dc:format>
    <dc:creator>
     <cc:Agent>
      <dc:title>Matplotlib v3.5.1, https://matplotlib.org/</dc:title>
     </cc:Agent>
    </dc:creator>
   </cc:Work>
  </rdf:RDF>
 </metadata>
 <defs>
  <style type="text/css">*{stroke-linejoin: round; stroke-linecap: butt}</style>
 </defs>
 <g id="figure_1">
  <g id="patch_1">
   <path d="M 0 360 
L 432 360 
L 432 0 
L 0 0 
L 0 360 
z
" style="fill: none"/>
  </g>
  <g id="axes_1">
   <g id="patch_2">
    <path d="M 46.55 318.2 
L 413.615499 318.2 
L 413.615499 71.241125 
L 46.55 71.241125 
L 46.55 318.2 
z
" style="fill: none"/>
   </g>
   <g id="PolyCollection_1">
    <defs>
     <path id="m0c4cb59fd9" d="M 46.55 -133.77151 
L 46.55 -100.28017 
L 47.346238 -100.267588 
L 48.142475 -99.097579 
L 48.938713 -97.02762 
L 49.73495 -94.709487 
L 50.531188 -93.037575 
L 51.327425 -92.818455 
L 52.123663 -94.383015 
L 52.9199 -97.402918 
L 53.716138 -101.06282 
L 54.512375 -104.436627 
L 55.308613 -106.751139 
L 56.10485 -107.448475 
L 56.901088 -106.205766 
L 57.697325 -103.040727 
L 58.493563 -98.47649 
L 59.2898 -93.51891 
L 60.086038 -89.277182 
L 60.882275 -86.525942 
L 61.678513 -85.560524 
L 62.47475 -86.331559 
L 63.270988 -88.600437 
L 64.067226 -91.933373 
L 64.863463 -95.634781 
L 65.659701 -98.825095 
L 66.455938 -100.71187 
L 67.252176 -100.873727 
L 68.048413 -99.334488 
L 68.844651 -96.461575 
L 69.640888 -92.865067 
L 70.437126 -89.340555 
L 71.233363 -86.786319 
L 72.029601 -86.032814 
L 72.825838 -87.599167 
L 73.622076 -91.475092 
L 74.418313 -97.040881 
L 75.214551 -103.187667 
L 76.010788 -108.634387 
L 76.807026 -112.351956 
L 77.603263 -113.90346 
L 78.399501 -113.511875 
L 79.195739 -111.852123 
L 79.991976 -109.739131 
L 80.788214 -107.878477 
L 81.584451 -106.729729 
L 82.380689 -106.436851 
L 83.176926 -106.81137 
L 83.973164 -107.425204 
L 84.769401 -107.813207 
L 85.565639 -107.677301 
L 86.361876 -106.976746 
L 87.158114 -105.879826 
L 87.954351 -104.637558 
L 88.750589 -103.456503 
L 89.546826 -102.420987 
L 90.343064 -101.489912 
L 91.139301 -100.570412 
L 91.935539 -99.636264 
L 92.731776 -98.825334 
L 93.528014 -98.436427 
L 94.324251 -98.78998 
L 95.120489 -100.01317 
L 95.916727 -101.884257 
L 96.712964 -103.846273 
L 97.509202 -105.192273 
L 98.305439 -105.317902 
L 99.101677 -103.924535 
L 99.897914 -101.121279 
L 100.694152 -97.437072 
L 101.490389 -93.751796 
L 102.286627 -91.10776 
L 103.082864 -90.382765 
L 103.879102 -91.946049 
L 104.675339 -95.496317 
L 105.471577 -100.169132 
L 106.267814 -104.839528 
L 107.064052 -108.466012 
L 107.860289 -110.354541 
L 108.656527 -110.294852 
L 109.452764 -108.560112 
L 110.249002 -105.77144 
L 111.04524 -102.672309 
L 111.841477 -99.90889 
L 112.637715 -97.899281 
L 113.433952 -96.814044 
L 114.23019 -96.636734 
L 115.026427 -97.244388 
L 115.822665 -98.444445 
L 116.618902 -99.948205 
L 117.41514 -101.337167 
L 118.211377 -102.101868 
L 119.007615 -101.782529 
L 119.803852 -100.15807 
L 120.60009 -97.38197 
L 121.396327 -93.98486 
L 122.192565 -90.747997 
L 122.988802 -88.511007 
L 123.78504 -87.951201 
L 124.581277 -89.342644 
L 125.377515 -92.375455 
L 126.173752 -96.180801 
L 126.96999 -99.629932 
L 127.766228 -101.796298 
L 128.562465 -102.3217 
L 129.358703 -101.475983 
L 130.15494 -99.940885 
L 130.951178 -98.509542 
L 131.747415 -97.858765 
L 132.543653 -98.42432 
L 133.33989 -100.322228 
L 134.136128 -103.299468 
L 134.932365 -106.78666 
L 135.728603 -110.102984 
L 136.52484 -112.753428 
L 137.321078 -114.663308 
L 138.117315 -116.190933 
L 138.913553 -117.892893 
L 139.70979 -120.195715 
L 140.506028 -123.169732 
L 141.302265 -126.502589 
L 142.098503 -129.6413 
L 142.89474 -131.991959 
L 143.690978 -133.084983 
L 144.487216 -132.687636 
L 145.283453 -130.873082 
L 146.079691 -128.027163 
L 146.875928 -124.762351 
L 147.672166 -121.748345 
L 148.468403 -119.524459 
L 149.264641 -118.370278 
L 150.060878 -118.263564 
L 150.857116 -118.912155 
L 151.653353 -119.83999 
L 152.449591 -120.523773 
L 153.245828 -120.566816 
L 154.042066 -119.851788 
L 154.838303 -118.583634 
L 155.634541 -117.184884 
L 156.430778 -116.115203 
L 157.227016 -115.73581 
L 158.023253 -116.273958 
L 158.819491 -117.83278 
L 159.615729 -120.364378 
L 160.411966 -123.618555 
L 161.208204 -127.157741 
L 162.004441 -130.48558 
L 162.800679 -133.226045 
L 163.596916 -135.226616 
L 164.393154 -136.526479 
L 165.189391 -137.265686 
L 165.985629 -137.642941 
L 166.781866 -137.930286 
L 167.578104 -138.463868 
L 168.374341 -139.56472 
L 169.170579 -141.443943 
L 169.966816 -144.162438 
L 170.763054 -147.633326 
L 171.559291 -151.609092 
L 172.355529 -155.659114 
L 173.151766 -159.21618 
L 173.948004 -161.733112 
L 174.744241 -162.874849 
L 175.540479 -162.617416 
L 176.336717 -161.209389 
L 177.132954 -159.066063 
L 177.929192 -156.67499 
L 178.725429 -154.515292 
L 179.521667 -152.955658 
L 180.317904 -152.152087 
L 181.114142 -152.023383 
L 181.910379 -152.343814 
L 182.706617 -152.890837 
L 183.502854 -153.549292 
L 184.299092 -154.331388 
L 185.095329 -155.341845 
L 185.891567 -156.718005 
L 186.687804 -158.541667 
L 187.484042 -160.738007 
L 188.280279 -163.025459 
L 189.076517 -164.976378 
L 189.872754 -166.174905 
L 190.668992 -166.392308 
L 191.46523 -165.689211 
L 192.261467 -164.396384 
L 193.057705 -162.985871 
L 193.853942 -161.892403 
L 194.65018 -161.367662 
L 195.446417 -161.435144 
L 196.242655 -161.952675 
L 197.038892 -162.721689 
L 197.83513 -163.575808 
L 198.631367 -164.430773 
L 199.427605 -165.303784 
L 200.223842 -166.293897 
L 201.02008 -167.512897 
L 201.816317 -168.989057 
L 202.612555 -170.606262 
L 203.408792 -172.130593 
L 204.20503 -173.310324 
L 205.001267 -173.975791 
L 205.797505 -174.081108 
L 206.593742 -173.695151 
L 207.38998 -172.984329 
L 208.186218 -172.192143 
L 208.982455 -171.581049 
L 209.778693 -171.330089 
L 210.57493 -171.44923 
L 211.371168 -171.778184 
L 212.167405 -172.072585 
L 212.963643 -172.123945 
L 213.75988 -171.853369 
L 214.556118 -171.34432 
L 215.352355 -170.80413 
L 216.148593 -170.469096 
L 216.94483 -170.494175 
L 217.741068 -170.880337 
L 218.537305 -171.469655 
L 219.333543 -171.996146 
L 220.12978 -172.162887 
L 220.926018 -171.730982 
L 221.722255 -170.616363 
L 222.518493 -168.961321 
L 223.31473 -167.120701 
L 224.110968 -165.54502 
L 224.907206 -164.621408 
L 225.703443 -164.559321 
L 226.499681 -165.366524 
L 227.295918 -166.897955 
L 228.092156 -168.920792 
L 228.888393 -171.151578 
L 229.684631 -173.273552 
L 230.480868 -174.974484 
L 231.277106 -176.015349 
L 232.073343 -176.296749 
L 232.869581 -175.888688 
L 233.665818 -175.022076 
L 234.462056 -174.060847 
L 235.258293 -173.45323 
L 236.054531 -173.638686 
L 236.850768 -174.909056 
L 237.647006 -177.279655 
L 238.443243 -180.451435 
L 239.239481 -183.894849 
L 240.035719 -187.010369 
L 240.831956 -189.282082 
L 241.628194 -190.373171 
L 242.424431 -190.17059 
L 243.220669 -188.803126 
L 244.016906 -186.62013 
L 244.813144 -184.100262 
L 245.609381 -181.704225 
L 246.405619 -179.762091 
L 247.201856 -178.457717 
L 247.998094 -177.881106 
L 248.794331 -178.063542 
L 249.590569 -178.959811 
L 250.386806 -180.422662 
L 251.183044 -182.225226 
L 251.979281 -184.134709 
L 252.775519 -185.956327 
L 253.571756 -187.502234 
L 254.367994 -188.543989 
L 255.164231 -188.838171 
L 255.960469 -188.23677 
L 256.756707 -186.810843 
L 257.552944 -184.899538 
L 258.349182 -183.03885 
L 259.145419 -181.799356 
L 259.941657 -181.60062 
L 260.737894 -182.577048 
L 261.534132 -184.538944 
L 262.330369 -187.040959 
L 263.126607 -189.534965 
L 263.922844 -191.552485 
L 264.719082 -192.851411 
L 265.515319 -193.473368 
L 266.311557 -193.693823 
L 267.107794 -193.890467 
L 267.904032 -194.38912 
L 268.700269 -195.351263 
L 269.496507 -196.735821 
L 270.292744 -198.326824 
L 271.088982 -199.798109 
L 271.88522 -200.796426 
L 272.681457 -201.033875 
L 273.477695 -200.378195 
L 274.273932 -198.915869 
L 275.07017 -196.955262 
L 275.866407 -194.956675 
L 276.662645 -193.417826 
L 277.458882 -192.765982 
L 278.25512 -193.289099 
L 279.051357 -195.105261 
L 279.847595 -198.152969 
L 280.643832 -202.190925 
L 281.44007 -206.813424 
L 282.236307 -211.500646 
L 283.032545 -215.714868 
L 283.828782 -219.021608 
L 284.62502 -221.18625 
L 285.421257 -222.202992 
L 286.217495 -222.25584 
L 287.013732 -221.645488 
L 287.80997 -220.71045 
L 288.606208 -219.741913 
L 289.402445 -218.891788 
L 290.198683 -218.116573 
L 290.99492 -217.217078 
L 291.791158 -215.974211 
L 292.587395 -214.297688 
L 293.383633 -212.288683 
L 294.17987 -210.1896 
L 294.976108 -208.274382 
L 295.772345 -206.743299 
L 296.568583 -205.646211 
L 297.36482 -204.837236 
L 298.161058 -203.986998 
L 298.957295 -202.683433 
L 299.753533 -200.599468 
L 300.54977 -197.645101 
L 301.346008 -194.023071 
L 302.142245 -190.171495 
L 302.938483 -186.639896 
L 303.73472 -183.958402 
L 304.530958 -182.530197 
L 305.327196 -182.546131 
L 306.123433 -183.926484 
L 306.919671 -186.31962 
L 307.715908 -189.176727 
L 308.512146 -191.881777 
L 309.308383 -193.888758 
L 310.104621 -194.830418 
L 310.900858 -194.583589 
L 311.697096 -193.288328 
L 312.493333 -191.316912 
L 313.289571 -189.191093 
L 314.085808 -187.462941 
L 314.882046 -186.592731 
L 315.678283 -186.853278 
L 316.474521 -188.274444 
L 317.270758 -190.626527 
L 318.066996 -193.444972 
L 318.863233 -196.108322 
L 319.659471 -197.979449 
L 320.455709 -198.59146 
L 321.251946 -197.808133 
L 322.048184 -195.873264 
L 322.844421 -193.312682 
L 323.640659 -190.749443 
L 324.436896 -188.734373 
L 325.233134 -187.655443 
L 326.029371 -187.710944 
L 326.825609 -188.887867 
L 327.621846 -190.92938 
L 328.418084 -193.348244 
L 329.214321 -195.545874 
L 330.010559 -197.018783 
L 330.806796 -197.54415 
L 331.603034 -197.21914 
L 332.399271 -196.334904 
L 333.195509 -195.198642 
L 333.991746 -194.030252 
L 334.787984 -192.96852 
L 335.584221 -192.116645 
L 336.380459 -191.549539 
L 337.176697 -191.28073 
L 337.972934 -191.240713 
L 338.769172 -191.294721 
L 339.565409 -191.281979 
L 340.361647 -191.043204 
L 341.157884 -190.428313 
L 341.954122 -189.297916 
L 342.750359 -187.542233 
L 343.546597 -185.129613 
L 344.342834 -182.176793 
L 345.139072 -179.00308 
L 345.935309 -176.107733 
L 346.731547 -174.035887 
L 347.527784 -173.176601 
L 348.324022 -173.596859 
L 349.120259 -175.009175 
L 349.916497 -176.892111 
L 350.712734 -178.680125 
L 351.508972 -179.912789 
L 352.30521 -180.311643 
L 353.101447 -179.823729 
L 353.897685 -178.649947 
L 354.693922 -177.230822 
L 355.49016 -176.143126 
L 356.286397 -175.900757 
L 357.082635 -176.726027 
L 357.878872 -178.410561 
L 358.67511 -180.357426 
L 359.471347 -181.79181 
L 360.267585 -182.044431 
L 361.063822 -180.774174 
L 361.86006 -178.055416 
L 362.656297 -174.332906 
L 363.452535 -170.281187 
L 364.248772 -166.603072 
L 365.04501 -163.810713 
L 365.841247 -162.065332 
L 366.637485 -161.159726 
L 367.433722 -160.669035 
L 368.22996 -160.180198 
L 369.026198 -159.457906 
L 369.822435 -158.468818 
L 370.618673 -157.305127 
L 371.41491 -156.095651 
L 372.211148 -154.95724 
L 373.007385 -153.985519 
L 373.803623 -153.249366 
L 374.59986 -152.766442 
L 375.396098 -152.476163 
L 376.192335 -152.244798 
L 376.988573 -151.915618 
L 377.78481 -151.376305 
L 378.581048 -150.592791 
L 379.377285 -149.579977 
L 380.173523 -148.343381 
L 380.96976 -146.857754 
L 381.765998 -145.114202 
L 382.562235 -143.199334 
L 383.358473 -141.331163 
L 384.15471 -139.803447 
L 384.950948 -138.861153 
L 385.747186 -138.580353 
L 386.543423 -138.814635 
L 387.339661 -139.222211 
L 388.135898 -139.353714 
L 388.932136 -138.778796 
L 389.728373 -137.233143 
L 390.524611 -134.754092 
L 391.320848 -131.753157 
L 392.117086 -128.969053 
L 392.913323 -127.274153 
L 393.709561 -127.376793 
L 394.505798 -129.537509 
L 395.302036 -133.43033 
L 396.098273 -138.214408 
L 396.894511 -142.781485 
L 397.690748 -146.074635 
L 398.486986 -147.362219 
L 399.283223 -146.398664 
L 400.079461 -143.457353 
L 400.875699 -139.249925 
L 401.671936 -134.749222 
L 402.468174 -130.938184 
L 403.264411 -128.544352 
L 404.060649 -127.854757 
L 404.856886 -128.686253 
L 405.653124 -130.508378 
L 406.449361 -132.655143 
L 407.245599 -134.543613 
L 408.041836 -135.831441 
L 408.838074 -136.471952 
L 409.634311 -136.660711 
L 410.430549 -136.708558 
L 411.226786 -136.904857 
L 412.023024 -137.427884 
L 412.819261 -138.320142 
L 413.615499 -139.509648 
L 413.615499 -203.578403 
L 413.615499 -203.578403 
L 412.819261 -201.817037 
L 412.023024 -200.422295 
L 411.226786 -199.657003 
L 410.430549 -199.581142 
L 409.634311 -199.999908 
L 408.838074 -200.517115 
L 408.041836 -200.668131 
L 407.245599 -200.083015 
L 406.449361 -198.63216 
L 405.653124 -196.5109 
L 404.856886 -194.22654 
L 404.060649 -192.475523 
L 403.264411 -191.938753 
L 402.468174 -193.055707 
L 401.671936 -195.845033 
L 400.875699 -199.825524 
L 400.079461 -204.080186 
L 399.283223 -207.47978 
L 398.486986 -209.024175 
L 397.690748 -208.176764 
L 396.894511 -205.049136 
L 396.098273 -200.361831 
L 395.302036 -195.210825 
L 394.505798 -190.743569 
L 393.709561 -187.859738 
L 392.913323 -187.015345 
L 392.117086 -188.1546 
L 391.320848 -190.764316 
L 390.524611 -194.035399 
L 389.728373 -197.10565 
L 388.932136 -199.322894 
L 388.135898 -200.432933 
L 387.339661 -200.612432 
L 386.543423 -200.337135 
L 385.747186 -200.152808 
L 384.950948 -200.458832 
L 384.15471 -201.397743 
L 383.358473 -202.873248 
L 382.562235 -204.645244 
L 381.765998 -206.430618 
L 380.96976 -207.976132 
L 380.173523 -209.110299 
L 379.377285 -209.782112 
L 378.581048 -210.06895 
L 377.78481 -210.133581 
L 376.988573 -210.143829 
L 376.192335 -210.206948 
L 375.396098 -210.368547 
L 374.59986 -210.668717 
L 373.803623 -211.19275 
L 373.007385 -212.054962 
L 372.211148 -213.312933 
L 371.41491 -214.874358 
L 370.618673 -216.482663 
L 369.822435 -217.820363 
L 369.026198 -218.681238 
L 368.22996 -219.1086 
L 367.433722 -219.409292 
L 366.637485 -220.031871 
L 365.841247 -221.385713 
L 365.04501 -223.700691 
L 364.248772 -226.960262 
L 363.452535 -230.881391 
L 362.656297 -234.941462 
L 361.86006 -238.47998 
L 361.063822 -240.884215 
L 360.267585 -241.79966 
L 359.471347 -241.26209 
L 358.67511 -239.682142 
L 357.878872 -237.700511 
L 357.082635 -235.99129 
L 356.286397 -235.080962 
L 355.49016 -235.21659 
L 354.693922 -236.29007 
L 353.897685 -237.850752 
L 353.101447 -239.235477 
L 352.30521 -239.808122 
L 351.508972 -239.224421 
L 350.712734 -237.59017 
L 349.916497 -235.422846 
L 349.120259 -233.424129 
L 348.324022 -232.18961 
L 347.527784 -232.020684 
L 346.731547 -232.913962 
L 345.935309 -234.666684 
L 345.139072 -236.994729 
L 344.342834 -239.607428 
L 343.546597 -242.244341 
L 342.750359 -244.703805 
L 341.954122 -246.869963 
L 341.157884 -248.717088 
L 340.361647 -250.276078 
L 339.565409 -251.581388 
L 338.769172 -252.63384 
L 337.972934 -253.403477 
L 337.176697 -253.871973 
L 336.380459 -254.092132 
L 335.584221 -254.217031 
L 334.787984 -254.456439 
L 333.991746 -254.959029 
L 333.195509 -255.691491 
L 332.399271 -256.41565 
L 331.603034 -256.793788 
L 330.806796 -256.542513 
L 330.010559 -255.529589 
L 329.214321 -253.777404 
L 328.418084 -251.434771 
L 327.621846 -248.783143 
L 326.825609 -246.254328 
L 326.029371 -244.376357 
L 325.233134 -243.613185 
L 324.436896 -244.165228 
L 323.640659 -245.856351 
L 322.844421 -248.191601 
L 322.048184 -250.548968 
L 321.251946 -252.384585 
L 320.455709 -253.353552 
L 319.659471 -253.331355 
L 318.863233 -252.388086 
L 318.066996 -250.764294 
L 317.270758 -248.844553 
L 316.474521 -247.092345 
L 315.678283 -245.944114 
L 314.882046 -245.695996 
L 314.085808 -246.427 
L 313.289571 -247.982757 
L 312.493333 -250.013382 
L 311.697096 -252.043715 
L 310.900858 -253.559379 
L 310.104621 -254.107033 
L 309.308383 -253.403602 
L 308.512146 -251.430945 
L 307.715908 -248.479209 
L 306.919671 -245.112786 
L 306.123433 -242.060603 
L 305.327196 -240.055977 
L 304.530958 -239.657735 
L 303.73472 -241.090991 
L 302.938483 -244.157992 
L 302.142245 -248.275388 
L 301.346008 -252.650124 
L 300.54977 -256.529131 
L 299.753533 -259.415 
L 298.957295 -261.167319 
L 298.161058 -261.977949 
L 297.36482 -262.262071 
L 296.568583 -262.512324 
L 295.772345 -263.143114 
L 294.976108 -264.355399 
L 294.17987 -266.078399 
L 293.383633 -268.033272 
L 292.587395 -269.889652 
L 291.791158 -271.420021 
L 290.99492 -272.567489 
L 290.198683 -273.422309 
L 289.402445 -274.155091 
L 288.606208 -274.938926 
L 287.80997 -275.858776 
L 287.013732 -276.821645 
L 286.217495 -277.524668 
L 285.421257 -277.533472 
L 284.62502 -276.450733 
L 283.828782 -274.082793 
L 283.032545 -270.517799 
L 282.236307 -266.096524 
L 281.44007 -261.317371 
L 280.643832 -256.726358 
L 279.847595 -252.818995 
L 279.051357 -249.961952 
L 278.25512 -248.344415 
L 277.458882 -247.968852 
L 276.662645 -248.678411 
L 275.866407 -250.20375 
L 275.07017 -252.207743 
L 274.273932 -254.314537 
L 273.477695 -256.128444 
L 272.681457 -257.270851 
L 271.88522 -257.459859 
L 271.088982 -256.614126 
L 270.292744 -254.917502 
L 269.496507 -252.785902 
L 268.700269 -250.730535 
L 267.904032 -249.171583 
L 267.107794 -248.286026 
L 266.311557 -247.952965 
L 265.515319 -247.812214 
L 264.719082 -247.405808 
L 263.922844 -246.352278 
L 263.126607 -244.498071 
L 262.330369 -241.995564 
L 261.534132 -239.276692 
L 260.737894 -236.926275 
L 259.941657 -235.496925 
L 259.145419 -235.328162 
L 258.349182 -236.434144 
L 257.552944 -238.496865 
L 256.756707 -240.958913 
L 255.960469 -243.176269 
L 255.164231 -244.581048 
L 254.367994 -244.823477 
L 253.571756 -243.860595 
L 252.775519 -241.961352 
L 251.979281 -239.605485 
L 251.183044 -237.296317 
L 250.386806 -235.373502 
L 249.590569 -233.945351 
L 248.794331 -232.980405 
L 247.998094 -232.456651 
L 247.201856 -232.438092 
L 246.405619 -233.028539 
L 245.609381 -234.270283 
L 244.813144 -236.075006 
L 244.016906 -238.215074 
L 243.220669 -240.344623 
L 242.424431 -242.031266 
L 241.628194 -242.833509 
L 240.831956 -242.437734 
L 240.035719 -240.795855 
L 239.239481 -238.165289 
L 238.443243 -235.023099 
L 237.647006 -231.913497 
L 236.850768 -229.31053 
L 236.054531 -227.530831 
L 235.258293 -226.684118 
L 234.462056 -226.648693 
L 233.665818 -227.091275 
L 232.869581 -227.556233 
L 232.073343 -227.610859 
L 231.277106 -226.981765 
L 230.480868 -225.619668 
L 229.684631 -223.683798 
L 228.888393 -221.480058 
L 228.092156 -219.386412 
L 227.295918 -217.768002 
L 226.499681 -216.878929 
L 225.703443 -216.781928 
L 224.907206 -217.337853 
L 224.110968 -218.279952 
L 223.31473 -219.325347 
L 222.518493 -220.258204 
L 221.722255 -220.951064 
L 220.926018 -221.34121 
L 220.12978 -221.412493 
L 219.333543 -221.21151 
L 218.537305 -220.865523 
L 217.741068 -220.552964 
L 216.94483 -220.429778 
L 216.148593 -220.562203 
L 215.352355 -220.904748 
L 214.556118 -221.322158 
L 213.75988 -221.63749 
L 212.963643 -221.692753 
L 212.167405 -221.409679 
L 211.371168 -220.82915 
L 210.57493 -220.108127 
L 209.778693 -219.475028 
L 208.982455 -219.160587 
L 208.186218 -219.320064 
L 207.38998 -219.959152 
L 206.593742 -220.897517 
L 205.797505 -221.819469 
L 205.001267 -222.412784 
L 204.20503 -222.509817 
L 203.408792 -222.130326 
L 202.612555 -221.410535 
L 201.816317 -220.490327 
L 201.02008 -219.440377 
L 200.223842 -218.249208 
L 199.427605 -216.849244 
L 198.631367 -215.168351 
L 197.83513 -213.205549 
L 197.038892 -211.108174 
L 196.242655 -209.19515 
L 195.446417 -207.877978 
L 194.65018 -207.500367 
L 193.853942 -208.185016 
L 193.057705 -209.771019 
L 192.261467 -211.856243 
L 191.46523 -213.907646 
L 190.668992 -215.39804 
L 189.872754 -215.934509 
L 189.076517 -215.347253 
L 188.280279 -213.719378 
L 187.484042 -211.355446 
L 186.687804 -208.696831 
L 185.891567 -206.197535 
L 185.095329 -204.188681 
L 184.299092 -202.78698 
L 183.502854 -201.907695 
L 182.706617 -201.385712 
L 181.910379 -201.11771 
L 181.114142 -201.127762 
L 180.317904 -201.538839 
L 179.521667 -202.498126 
L 178.725429 -204.092308 
L 177.929192 -206.256488 
L 177.132954 -208.699777 
L 176.336717 -210.914663 
L 175.540479 -212.31801 
L 174.744241 -212.460924 
L 173.948004 -211.172282 
L 173.151766 -208.561626 
L 172.355529 -204.933521 
L 171.559291 -200.710534 
L 170.763054 -196.383436 
L 169.966816 -192.436025 
L 169.170579 -189.229003 
L 168.374341 -186.909194 
L 167.578104 -185.414549 
L 166.781866 -184.552852 
L 165.985629 -184.065136 
L 165.189391 -183.637841 
L 164.393154 -182.923558 
L 163.596916 -181.62572 
L 162.800679 -179.601814 
L 162.004441 -176.893496 
L 161.208204 -173.669824 
L 160.411966 -170.167611 
L 159.615729 -166.694001 
L 158.819491 -163.643319 
L 158.023253 -161.434075 
L 157.227016 -160.351066 
L 156.430778 -160.393002 
L 155.634541 -161.255769 
L 154.838303 -162.471563 
L 154.042066 -163.593951 
L 153.245828 -164.315913 
L 152.449591 -164.504004 
L 151.653353 -164.203154 
L 150.857116 -163.643991 
L 150.060878 -163.216387 
L 149.264641 -163.364668 
L 148.468403 -164.42383 
L 147.672166 -166.472563 
L 146.875928 -169.274202 
L 146.079691 -172.325432 
L 145.283453 -174.982377 
L 144.487216 -176.627577 
L 143.690978 -176.845872 
L 142.89474 -175.565507 
L 142.098503 -173.09546 
L 141.302265 -170.008155 
L 140.506028 -166.902912 
L 139.70979 -164.176994 
L 138.913553 -161.926249 
L 138.117315 -159.994663 
L 137.321078 -158.102768 
L 136.52484 -155.971083 
L 135.728603 -153.404286 
L 134.932365 -150.36713 
L 134.136128 -147.072012 
L 133.33989 -144.005564 
L 132.543653 -141.797881 
L 131.747415 -140.939422 
L 130.951178 -141.475895 
L 130.15494 -142.883656 
L 129.358703 -144.249753 
L 128.562465 -144.664951 
L 127.766228 -143.593243 
L 126.96999 -141.030622 
L 126.173752 -137.434952 
L 125.377515 -133.558133 
L 124.581277 -130.282419 
L 123.78504 -128.436087 
L 122.988802 -128.555958 
L 122.192565 -130.667051 
L 121.396327 -134.21829 
L 120.60009 -138.259412 
L 119.803852 -141.777207 
L 119.007615 -144.005648 
L 118.211377 -144.593341 
L 117.41514 -143.630461 
L 116.618902 -141.57904 
L 115.822665 -139.137006 
L 115.026427 -137.056218 
L 114.23019 -135.949534 
L 113.433952 -136.140314 
L 112.637715 -137.610304 
L 111.841477 -140.053094 
L 111.04524 -142.982447 
L 110.249002 -145.838014 
L 109.452764 -148.065909 
L 108.656527 -149.180518 
L 107.860289 -148.828486 
L 107.064052 -146.877182 
L 106.267814 -143.513326 
L 105.471577 -139.281824 
L 104.675339 -134.999315 
L 103.879102 -131.558304 
L 103.082864 -129.700203 
L 102.286627 -129.823332 
L 101.490389 -131.85534 
L 100.694152 -135.212346 
L 99.897914 -138.906165 
L 99.101677 -141.846989 
L 98.305439 -143.244029 
L 97.509202 -142.881295 
L 96.712964 -141.122134 
L 95.916727 -138.678566 
L 95.120489 -136.302365 
L 94.324251 -134.550777 
L 93.528014 -133.683861 
L 92.731776 -133.671917 
L 91.935539 -134.272386 
L 91.139301 -135.150901 
L 90.343064 -136.018271 
L 89.546826 -136.728758 
L 88.750589 -137.284388 
L 87.954351 -137.746372 
L 87.158114 -138.11816 
L 86.361876 -138.287866 
L 85.565639 -138.075363 
L 84.769401 -137.354193 
L 83.973164 -136.170714 
L 83.176926 -134.797005 
L 82.380689 -133.693679 
L 81.584451 -133.374914 
L 80.788214 -134.182708 
L 79.991976 -136.042658 
L 79.195739 -138.362307 
L 78.399501 -140.198296 
L 77.603263 -140.620614 
L 76.807026 -139.060916 
L 76.010788 -135.47948 
L 75.214551 -130.338045 
L 74.418313 -124.476711 
L 73.622076 -118.950182 
L 72.825838 -114.800818 
L 72.029601 -112.788517 
L 71.233363 -113.168266 
L 70.437126 -115.601417 
L 69.640888 -119.238847 
L 68.844651 -122.967647 
L 68.048413 -125.754616 
L 67.252176 -126.957574 
L 66.455938 -126.463419 
L 65.659701 -124.580419 
L 64.863463 -121.782288 
L 64.067226 -118.555501 
L 63.270988 -115.443909 
L 62.47475 -113.0965 
L 61.678513 -112.142135 
L 60.882275 -112.938969 
L 60.086038 -115.418907 
L 59.2898 -119.166865 
L 58.493563 -123.607073 
L 57.697325 -128.076948 
L 56.901088 -131.764222 
L 56.10485 -133.782143 
L 55.308613 -133.552227 
L 54.512375 -131.186663 
L 53.716138 -127.526356 
L 52.9199 -123.796459 
L 52.123663 -121.100479 
L 51.327425 -120.087582 
L 50.531188 -120.90591 
L 49.73495 -123.27369 
L 48.938713 -126.552385 
L 48.142475 -129.880535 
L 47.346238 -132.441688 
L 46.55 -133.77151 
z
" style="stroke: #e41a1c; stroke-opacity: 0.3"/>
    </defs>
    <g clip-path="url(#p35845099c4)">
     <use xlink:href="#m0c4cb59fd9" x="0" y="360" style="fill: #e41a1c; fill-opacity: 0.3; stroke: #e41a1c; stroke-opacity: 0.3"/>
    </g>
   </g>
   <g id="PolyCollection_2">
    <defs>
     <path id="mfc05063897" d="M 46.55 -131.698258 
L 46.55 -112.638706 
L 47.346238 -110.893304 
L 48.142475 -109.261769 
L 48.938713 -107.906255 
L 49.73495 -106.874498 
L 50.531188 -106.11117 
L 51.327425 -105.50244 
L 52.123663 -104.928368 
L 52.9199 -104.31131 
L 53.716138 -103.654399 
L 54.512375 -103.059457 
L 55.308613 -102.702129 
L 56.10485 -102.764651 
L 56.901088 -103.359774 
L 57.697325 -104.486269 
L 58.493563 -106.027552 
L 59.2898 -107.774437 
L 60.086038 -109.456896 
L 60.882275 -110.787649 
L 61.678513 -111.521061 
L 62.47475 -111.510448 
L 63.270988 -110.742881 
L 64.067226 -109.350602 
L 64.863463 -107.608081 
L 65.659701 -105.902201 
L 66.455938 -104.647764 
L 67.252176 -104.161127 
L 68.048413 -104.550434 
L 68.844651 -105.682231 
L 69.640888 -107.236483 
L 70.437126 -108.802071 
L 71.233363 -109.956699 
L 72.029601 -110.330632 
L 72.825838 -109.686378 
L 73.622076 -108.006796 
L 74.418313 -105.533319 
L 75.214551 -102.699312 
L 76.010788 -99.983019 
L 76.807026 -97.772864 
L 77.603263 -96.313443 
L 78.399501 -95.718736 
L 79.195739 -95.988415 
L 79.991976 -96.999624 
L 80.788214 -98.509377 
L 81.584451 -100.209904 
L 82.380689 -101.825552 
L 83.176926 -103.174669 
L 83.973164 -104.139636 
L 84.769401 -104.60177 
L 85.565639 -104.440362 
L 86.361876 -103.618274 
L 87.158114 -102.271562 
L 87.954351 -100.69641 
L 88.750589 -99.226673 
L 89.546826 -98.100101 
L 90.343064 -97.402825 
L 91.139301 -97.100443 
L 91.935539 -97.090956 
L 92.731776 -97.22452 
L 93.528014 -97.311446 
L 94.324251 -97.165305 
L 95.120489 -96.682545 
L 95.916727 -95.911042 
L 96.712964 -95.044465 
L 97.509202 -94.327772 
L 98.305439 -93.938223 
L 99.101677 -93.925309 
L 99.897914 -94.237114 
L 100.694152 -94.805022 
L 101.490389 -95.627079 
L 102.286627 -96.78749 
L 103.082864 -98.38872 
L 103.879102 -100.433219 
L 104.675339 -102.726585 
L 105.471577 -104.863047 
L 106.267814 -106.317574 
L 107.064052 -106.616106 
L 107.860289 -105.512749 
L 108.656527 -103.096986 
L 109.452764 -99.792493 
L 110.249002 -96.255402 
L 111.04524 -93.205355 
L 111.841477 -91.239088 
L 112.637715 -90.674725 
L 113.433952 -91.470761 
L 114.23019 -93.248576 
L 115.026427 -95.41707 
L 115.822665 -97.357556 
L 116.618902 -98.599738 
L 117.41514 -98.9252 
L 118.211377 -98.370195 
L 119.007615 -97.146847 
L 119.803852 -95.530308 
L 120.60009 -93.764962 
L 121.396327 -92.021204 
L 122.192565 -90.404482 
L 122.988802 -88.993519 
L 123.78504 -87.874189 
L 124.581277 -87.142464 
L 125.377515 -86.86788 
L 126.173752 -87.031954 
L 126.96999 -87.474445 
L 127.766228 -87.888065 
L 128.562465 -87.887747 
L 129.358703 -87.142147 
L 130.15494 -85.512945 
L 130.951178 -83.133774 
L 131.747415 -80.389891 
L 132.543653 -77.806676 
L 133.33989 -75.88927 
L 134.136128 -74.965128 
L 134.932365 -75.075391 
L 135.728603 -75.952346 
L 136.52484 -77.1034 
L 137.321078 -77.984717 
L 138.117315 -78.197765 
L 138.913553 -77.621526 
L 139.70979 -76.427802 
L 140.506028 -74.991692 
L 141.302265 -73.752611 
L 142.098503 -73.08315 
L 142.89474 -73.200113 
L 143.690978 -74.12811 
L 144.487216 -75.715111 
L 145.283453 -77.68991 
L 146.079691 -79.73822 
L 146.875928 -81.568634 
L 147.672166 -82.952895 
L 148.468403 -83.743459 
L 149.264641 -83.879635 
L 150.060878 -83.384077 
L 150.857116 -82.353353 
L 151.653353 -80.948581 
L 152.449591 -79.389819 
L 153.245828 -77.945691 
L 154.042066 -76.901036 
L 154.838303 -76.493698 
L 155.634541 -76.834401 
L 156.430778 -77.846814 
L 157.227016 -79.265116 
L 158.023253 -80.703461 
L 158.819491 -81.776126 
L 159.615729 -82.219651 
L 160.411966 -81.967585 
L 161.208204 -81.156907 
L 162.004441 -80.074553 
L 162.800679 -79.07321 
L 163.596916 -78.479865 
L 164.393154 -78.513586 
L 165.189391 -79.228067 
L 165.985629 -80.500079 
L 166.781866 -82.076534 
L 167.578104 -83.664119 
L 168.374341 -85.020974 
L 169.170579 -86.015002 
L 169.966816 -86.638368 
L 170.763054 -86.986939 
L 171.559291 -87.214382 
L 172.355529 -87.470301 
L 173.151766 -87.842522 
L 173.948004 -88.331623 
L 174.744241 -88.870425 
L 175.540479 -89.370607 
L 176.336717 -89.763199 
L 177.132954 -90.013178 
L 177.929192 -90.114062 
L 178.725429 -90.075184 
L 179.521667 -89.905596 
L 180.317904 -89.596028 
L 181.114142 -89.110549 
L 181.910379 -88.398546 
L 182.706617 -87.423347 
L 183.502854 -86.185611 
L 184.299092 -84.727413 
L 185.095329 -83.124908 
L 185.891567 -81.482176 
L 186.687804 -79.921962 
L 187.484042 -78.561409 
L 188.280279 -77.474238 
L 189.076517 -76.665265 
L 189.872754 -76.076551 
L 190.668992 -75.616546 
L 191.46523 -75.188253 
L 192.261467 -74.708816 
L 193.057705 -74.132281 
L 193.853942 -73.477137 
L 194.65018 -72.834517 
L 195.446417 -72.327973 
L 196.242655 -72.034501 
L 197.038892 -71.918797 
L 197.83513 -71.829362 
L 198.631367 -71.560684 
L 199.427605 -70.94474 
L 200.223842 -69.928635 
L 201.02008 -68.614712 
L 201.816317 -67.255856 
L 202.612555 -66.200924 
L 203.408792 -65.793289 
L 204.20503 -66.250855 
L 205.001267 -67.57874 
L 205.797505 -69.558699 
L 206.593742 -71.819576 
L 207.38998 -73.954982 
L 208.186218 -75.636071 
L 208.982455 -76.683657 
L 209.778693 -77.08861 
L 210.57493 -76.986298 
L 211.371168 -76.598197 
L 212.167405 -76.158441 
L 212.963643 -75.849506 
L 213.75988 -75.768849 
L 214.556118 -75.935379 
L 215.352355 -76.32209 
L 216.148593 -76.88894 
L 216.94483 -77.594665 
L 217.741068 -78.382676 
L 218.537305 -79.154039 
L 219.333543 -79.751541 
L 220.12978 -79.977557 
L 220.926018 -79.654073 
L 221.722255 -78.708265 
L 222.518493 -77.243968 
L 223.31473 -75.554384 
L 224.110968 -74.051975 
L 224.907206 -73.129645 
L 225.703443 -73.004578 
L 226.499681 -73.610994 
L 227.295918 -74.594076 
L 228.092156 -75.417784 
L 228.888393 -75.552389 
L 229.684631 -74.67164 
L 230.480868 -72.781822 
L 231.277106 -70.230606 
L 232.073343 -67.592288 
L 232.869581 -65.472554 
L 233.665818 -64.304401 
L 234.462056 -64.204848 
L 235.258293 -64.938865 
L 236.054531 -66.003053 
L 236.850768 -66.802161 
L 237.647006 -66.855681 
L 238.443243 -65.955618 
L 239.239481 -64.215497 
L 240.035719 -61.996002 
L 240.831956 -59.745435 
L 241.628194 -57.827019 
L 242.424431 -56.405885 
L 243.220669 -55.437601 
L 244.016906 -54.750905 
L 244.813144 -54.173712 
L 245.609381 -53.635834 
L 246.405619 -53.20159 
L 247.201856 -53.025403 
L 247.998094 -53.259843 
L 248.794331 -53.963019 
L 249.590569 -55.048589 
L 250.386806 -56.300197 
L 251.183044 -57.442259 
L 251.979281 -58.232058 
L 252.775519 -58.531817 
L 253.571756 -58.334993 
L 254.367994 -57.747104 
L 255.164231 -56.939948 
L 255.960469 -56.099834 
L 256.756707 -55.38447 
L 257.552944 -54.901933 
L 258.349182 -54.719273 
L 259.145419 -54.893308 
L 259.941657 -55.495222 
L 260.737894 -56.599269 
L 261.534132 -58.230996 
L 262.330369 -60.302494 
L 263.126607 -62.576483 
L 263.922844 -64.691451 
L 264.719082 -66.253044 
L 265.515319 -66.966687 
L 266.311557 -66.758697 
L 267.107794 -65.825762 
L 267.904032 -64.579132 
L 268.700269 -63.501252 
L 269.496507 -62.974927 
L 270.292744 -63.153191 
L 271.088982 -63.915065 
L 271.88522 -64.918835 
L 272.681457 -65.734396 
L 273.477695 -66.010075 
L 274.273932 -65.609848 
L 275.07017 -64.662531 
L 275.866407 -63.503998 
L 276.662645 -62.543518 
L 277.458882 -62.115241 
L 278.25512 -62.369776 
L 279.051357 -63.238234 
L 279.847595 -64.476499 
L 280.643832 -65.773107 
L 281.44007 -66.876853 
L 282.236307 -67.685448 
L 283.032545 -68.256581 
L 283.828782 -68.7462 
L 284.62502 -69.316722 
L 285.421257 -70.061303 
L 286.217495 -70.969283 
L 287.013732 -71.934899 
L 287.80997 -72.800205 
L 288.606208 -73.416118 
L 289.402445 -73.699904 
L 290.198683 -73.663726 
L 290.99492 -73.401794 
L 291.791158 -73.038672 
L 292.587395 -72.659511 
L 293.383633 -72.257079 
L 294.17987 -71.729849 
L 294.976108 -70.940369 
L 295.772345 -69.808463 
L 296.568583 -68.386034 
L 297.36482 -66.872907 
L 298.161058 -65.566339 
L 298.957295 -64.76862 
L 299.753533 -64.687906 
L 300.54977 -65.364049 
L 301.346008 -66.645951 
L 302.142245 -68.231783 
L 302.938483 -69.761656 
L 303.73472 -70.922323 
L 304.530958 -71.524734 
L 305.327196 -71.537655 
L 306.123433 -71.081092 
L 306.919671 -70.385084 
L 307.715908 -69.716328 
L 308.512146 -69.289665 
L 309.308383 -69.200968 
L 310.104621 -69.413518 
L 310.900858 -69.796412 
L 311.697096 -70.185003 
L 312.493333 -70.435466 
L 313.289571 -70.464885 
L 314.085808 -70.274774 
L 314.882046 -69.944507 
L 315.678283 -69.588957 
L 316.474521 -69.300337 
L 317.270758 -69.114595 
L 318.066996 -69.022554 
L 318.863233 -69.006018 
L 319.659471 -69.061431 
L 320.455709 -69.192937 
L 321.251946 -69.390808 
L 322.048184 -69.613288 
L 322.844421 -69.77872 
L 323.640659 -69.766972 
L 324.436896 -69.441054 
L 325.233134 -68.70068 
L 326.029371 -67.554005 
L 326.825609 -66.16627 
L 327.621846 -64.846754 
L 328.418084 -63.969532 
L 329.214321 -63.856733 
L 330.010559 -64.66653 
L 330.806796 -66.32076 
L 331.603034 -68.496326 
L 332.399271 -70.693969 
L 333.195509 -72.376619 
L 333.991746 -73.137116 
L 334.787984 -72.831264 
L 335.584221 -71.618935 
L 336.380459 -69.895124 
L 337.176697 -68.142916 
L 337.972934 -66.77266 
L 338.769172 -66.011247 
L 339.565409 -65.875723 
L 340.361647 -66.225388 
L 341.157884 -66.855015 
L 341.954122 -67.585217 
L 342.750359 -68.317457 
L 343.546597 -69.039708 
L 344.342834 -69.785583 
L 345.139072 -70.563808 
L 345.935309 -71.293428 
L 346.731547 -71.789821 
L 347.527784 -71.831898 
L 348.324022 -71.292121 
L 349.120259 -70.266705 
L 349.916497 -69.127015 
L 350.712734 -68.440202 
L 351.508972 -68.77044 
L 352.30521 -70.437795 
L 353.101447 -73.339436 
L 353.897685 -76.912441 
L 354.693922 -80.26292 
L 355.49016 -82.426765 
L 356.286397 -82.681985 
L 357.082635 -80.806826 
L 357.878872 -77.185626 
L 358.67511 -72.714128 
L 359.471347 -68.534185 
L 360.267585 -65.69566 
L 361.063822 -64.864272 
L 361.86006 -66.164217 
L 362.656297 -69.187082 
L 363.452535 -73.144648 
L 364.248772 -77.106477 
L 365.04501 -80.245463 
L 365.841247 -82.018837 
L 366.637485 -82.239679 
L 367.433722 -81.040456 
L 368.22996 -78.768561 
L 369.026198 -75.870146 
L 369.822435 -72.805138 
L 370.618673 -70.0051 
L 371.41491 -67.852412 
L 372.211148 -66.647082 
L 373.007385 -66.54586 
L 373.803623 -67.494575 
L 374.59986 -69.197272 
L 375.396098 -71.157348 
L 376.192335 -72.792488 
L 376.988573 -73.589626 
L 377.78481 -73.251995 
L 378.581048 -71.796935 
L 379.377285 -69.57348 
L 380.173523 -67.182834 
L 380.96976 -65.309876 
L 381.765998 -64.509321 
L 382.562235 -65.017919 
L 383.358473 -66.665826 
L 384.15471 -68.930618 
L 384.950948 -71.124257 
L 385.747186 -72.645364 
L 386.543423 -73.193668 
L 387.339661 -72.857164 
L 388.135898 -72.045325 
L 388.932136 -71.313081 
L 389.728373 -71.156398 
L 390.524611 -71.851165 
L 391.320848 -73.374729 
L 392.117086 -75.421915 
L 392.913323 -77.51173 
L 393.709561 -79.155866 
L 394.505798 -80.027939 
L 395.302036 -80.062248 
L 396.098273 -79.443168 
L 396.894511 -78.502493 
L 397.690748 -77.583236 
L 398.486986 -76.924223 
L 399.283223 -76.60014 
L 400.079461 -76.528032 
L 400.875699 -76.53589 
L 401.671936 -76.467941 
L 402.468174 -76.279195 
L 403.264411 -76.06885 
L 404.060649 -76.031609 
L 404.856886 -76.35419 
L 405.653124 -77.117009 
L 406.449361 -78.251461 
L 407.245599 -79.562076 
L 408.041836 -80.788232 
L 408.838074 -81.679259 
L 409.634311 -82.071833 
L 410.430549 -81.95326 
L 411.226786 -81.483601 
L 412.023024 -80.948437 
L 412.819261 -80.651072 
L 413.615499 -80.797559 
L 413.615499 -117.106552 
L 413.615499 -117.106552 
L 412.819261 -117.172561 
L 412.023024 -117.623873 
L 411.226786 -118.21655 
L 410.430549 -118.654954 
L 409.634311 -118.668569 
L 408.838074 -118.095667 
L 408.041836 -116.952619 
L 407.245599 -115.449626 
L 406.449361 -113.92613 
L 405.653124 -112.721106 
L 404.856886 -112.043272 
L 404.060649 -111.907191 
L 403.264411 -112.158089 
L 402.468174 -112.5576 
L 401.671936 -112.884892 
L 400.875699 -113.018701 
L 400.079461 -112.979146 
L 399.283223 -112.914233 
L 398.486986 -113.02604 
L 397.690748 -113.456935 
L 396.894511 -114.186101 
L 396.098273 -114.994962 
L 395.302036 -115.529932 
L 394.505798 -115.438889 
L 393.709561 -114.518734 
L 392.913323 -112.815505 
L 392.117086 -110.639083 
L 391.320848 -108.482581 
L 390.524611 -106.861106 
L 389.728373 -106.116627 
L 388.932136 -106.267439 
L 388.135898 -106.981025 
L 387.339661 -107.696501 
L 386.543423 -107.845795 
L 385.747186 -107.075383 
L 384.950948 -105.379946 
L 384.15471 -103.107405 
L 383.358473 -100.846174 
L 382.562235 -99.236648 
L 381.765998 -98.762875 
L 380.96976 -99.587518 
L 380.173523 -101.487438 
L 379.377285 -103.917525 
L 378.581048 -106.184681 
L 377.78481 -107.671946 
L 376.988573 -108.03183 
L 376.192335 -107.278548 
L 375.396098 -105.750565 
L 374.59986 -103.971407 
L 373.803623 -102.479799 
L 373.007385 -101.699004 
L 372.211148 -101.875442 
L 371.41491 -103.072836 
L 370.618673 -105.190452 
L 369.822435 -107.983713 
L 369.026198 -111.084326 
L 368.22996 -114.029137 
L 367.433722 -116.30902 
L 366.637485 -117.44469 
L 365.841247 -117.088353 
L 365.04501 -115.135156 
L 364.248772 -111.81155 
L 363.452535 -107.698088 
L 362.656297 -103.652695 
L 361.86006 -100.626256 
L 361.063822 -99.406507 
L 360.267585 -100.368063 
L 359.471347 -103.32405 
L 358.67511 -107.546358 
L 357.878872 -111.957937 
L 357.082635 -115.436027 
L 356.286397 -117.128815 
L 355.49016 -116.688511 
L 354.693922 -114.351905 
L 353.897685 -110.843968 
L 353.101447 -107.134414 
L 352.30521 -104.129935 
L 351.508972 -102.411696 
L 350.712734 -102.106587 
L 349.916497 -102.920951 
L 349.120259 -104.299748 
L 348.324022 -105.63912 
L 347.527784 -106.478115 
L 346.731547 -106.613742 
L 345.935309 -106.110905 
L 345.139072 -105.215112 
L 344.342834 -104.212167 
L 343.546597 -103.299408 
L 342.750359 -102.528837 
L 341.954122 -101.845451 
L 341.157884 -101.192229 
L 340.361647 -100.609868 
L 339.565409 -100.26382 
L 338.769172 -100.377962 
L 337.972934 -101.11099 
L 337.176697 -102.443095 
L 336.380459 -104.132904 
L 335.584221 -105.767894 
L 334.787984 -106.887805 
L 333.991746 -107.133269 
L 333.195509 -106.366457 
L 332.399271 -104.724428 
L 331.603034 -102.588485 
L 330.806796 -100.476526 
L 330.010559 -98.88837 
L 329.214321 -98.15415 
L 328.418084 -98.342233 
L 327.621846 -99.263181 
L 326.825609 -100.562494 
L 326.029371 -101.853908 
L 325.233134 -102.835236 
L 324.436896 -103.352152 
L 323.640659 -103.407685 
L 322.844421 -103.128558 
L 322.048184 -102.701855 
L 321.251946 -102.301299 
L 320.455709 -102.033229 
L 319.659471 -101.927148 
L 318.863233 -101.965399 
L 318.066996 -102.1186 
L 317.270758 -102.357893 
L 316.474521 -102.650648 
L 315.678283 -102.958144 
L 314.882046 -103.241888 
L 314.085808 -103.466662 
L 313.289571 -103.595239 
L 312.493333 -103.589358 
L 311.697096 -103.432455 
L 310.900858 -103.163655 
L 310.104621 -102.88735 
L 309.308383 -102.741665 
L 308.512146 -102.841527 
L 307.715908 -103.226647 
L 306.919671 -103.831899 
L 306.123433 -104.484654 
L 305.327196 -104.935839 
L 304.530958 -104.932017 
L 303.73472 -104.314135 
L 302.938483 -103.098509 
L 302.142245 -101.495177 
L 301.346008 -99.851799 
L 300.54977 -98.549579 
L 299.753533 -97.892377 
L 298.957295 -98.022062 
L 298.161058 -98.884351 
L 297.36482 -100.254835 
L 296.568583 -101.820448 
L 295.772345 -103.283579 
L 294.976108 -104.445314 
L 294.17987 -105.2397 
L 293.383633 -105.718504 
L 292.587395 -106.002313 
L 291.791158 -106.214616 
L 290.99492 -106.419973 
L 290.198683 -106.588805 
L 289.402445 -106.610536 
L 288.606208 -106.355334 
L 287.80997 -105.754979 
L 287.013732 -104.857517 
L 286.217495 -103.822278 
L 285.421257 -102.851576 
L 284.62502 -102.092338 
L 283.828782 -101.559479 
L 283.032545 -101.127233 
L 282.236307 -100.596636 
L 281.44007 -99.803313 
L 280.643832 -98.710603 
L 279.847595 -97.447201 
L 279.051357 -96.275546 
L 278.25512 -95.501425 
L 277.458882 -95.351457 
L 276.662645 -95.864217 
L 275.866407 -96.847475 
L 275.07017 -97.931898 
L 274.273932 -98.704773 
L 273.477695 -98.866359 
L 272.681457 -98.344012 
L 271.88522 -97.320735 
L 271.088982 -96.169841 
L 270.292744 -95.316662 
L 269.496507 -95.07475 
L 268.700269 -95.521065 
L 267.904032 -96.46454 
L 267.107794 -97.520416 
L 266.311557 -98.252357 
L 265.515319 -98.319041 
L 264.719082 -97.57259 
L 263.922844 -96.085477 
L 263.126607 -94.108186 
L 262.330369 -91.977569 
L 261.534132 -90.011004 
L 260.737894 -88.427393 
L 259.941657 -87.320652 
L 259.145419 -86.683873 
L 258.349182 -86.459687 
L 257.552944 -86.587835 
L 256.756707 -87.026958 
L 255.960469 -87.739778 
L 255.164231 -88.650477 
L 254.367994 -89.605728 
L 253.571756 -90.378063 
L 252.775519 -90.728813 
L 251.979281 -90.503649 
L 251.183044 -89.708328 
L 250.386806 -88.5212 
L 249.590569 -87.233286 
L 248.794331 -86.143214 
L 247.998094 -85.453868 
L 247.201856 -85.214823 
L 246.405619 -85.334867 
L 245.609381 -85.657411 
L 244.813144 -86.062176 
L 244.016906 -86.541599 
L 243.220669 -87.212088 
L 242.424431 -88.253117 
L 241.628194 -89.802083 
L 240.831956 -91.851738 
L 240.035719 -94.196858 
L 239.239481 -96.460748 
L 238.443243 -98.203061 
L 237.647006 -99.0758 
L 236.850768 -98.969747 
L 236.054531 -98.090619 
L 235.258293 -96.925031 
L 234.462056 -96.095212 
L 233.665818 -96.145264 
L 232.869581 -97.337383 
L 232.073343 -99.542667 
L 231.277106 -102.278534 
L 230.480868 -104.881707 
L 229.684631 -106.745962 
L 228.888393 -107.529761 
L 228.092156 -107.258005 
L 227.295918 -106.289858 
L 226.499681 -105.174143 
L 225.703443 -104.451276 
L 224.907206 -104.474378 
L 224.110968 -105.310124 
L 223.31473 -106.746118 
L 222.518493 -108.390685 
L 221.722255 -109.819238 
L 220.926018 -110.712256 
L 220.12978 -110.939717 
L 219.333543 -110.570309 
L 218.537305 -109.811854 
L 217.741068 -108.914602 
L 216.94483 -108.081052 
L 216.148593 -107.418556 
L 215.352355 -106.946397 
L 214.556118 -106.639896 
L 213.75988 -106.476729 
L 212.963643 -106.455803 
L 212.167405 -106.57913 
L 211.371168 -106.809369 
L 210.57493 -107.03096 
L 209.778693 -107.046329 
L 208.982455 -106.624835 
L 208.186218 -105.59458 
L 207.38998 -103.93529 
L 206.593742 -101.822361 
L 205.797505 -99.594192 
L 205.001267 -97.654642 
L 204.20503 -96.352885 
L 203.408792 -95.88647 
L 202.612555 -96.255986 
L 201.816317 -97.275496 
L 201.02008 -98.633876 
L 200.223842 -99.992856 
L 199.427605 -101.093089 
L 198.631367 -101.825474 
L 197.83513 -102.234685 
L 197.038892 -102.460286 
L 196.242655 -102.657333 
L 195.446417 -102.939493 
L 194.65018 -103.356195 
L 193.853942 -103.890463 
L 193.057705 -104.468683 
L 192.261467 -104.991184 
L 191.46523 -105.387859 
L 190.668992 -105.671904 
L 189.872754 -105.949907 
L 189.076517 -106.374405 
L 188.280279 -107.071865 
L 187.484042 -108.093816 
L 186.687804 -109.410256 
L 185.891567 -110.928764 
L 185.095329 -112.519443 
L 184.299092 -114.044621 
L 183.502854 -115.394407 
L 182.706617 -116.515531 
L 181.910379 -117.41185 
L 181.114142 -118.115717 
L 180.317904 -118.653895 
L 179.521667 -119.031866 
L 178.725429 -119.237752 
L 177.929192 -119.253387 
L 177.132954 -119.065697 
L 176.336717 -118.682215 
L 175.540479 -118.144996 
L 174.744241 -117.529119 
L 173.948004 -116.919546 
L 173.151766 -116.379782 
L 172.355529 -115.931206 
L 171.559291 -115.547603 
L 170.763054 -115.156387 
L 169.966816 -114.646438 
L 169.170579 -113.894512 
L 168.374341 -112.816014 
L 167.578104 -111.421303 
L 166.781866 -109.843674 
L 165.985629 -108.319709 
L 165.189391 -107.12972 
L 164.393154 -106.518584 
L 163.596916 -106.614082 
L 162.800679 -107.36305 
L 162.004441 -108.515487 
L 161.208204 -109.681641 
L 160.411966 -110.453368 
L 159.615729 -110.541323 
L 158.819491 -109.868423 
L 158.023253 -108.586084 
L 157.227016 -107.015404 
L 156.430778 -105.547359 
L 155.634541 -104.537866 
L 154.838303 -104.22346 
L 154.042066 -104.671627 
L 153.245828 -105.773012 
L 152.449591 -107.27647 
L 151.653353 -108.85902 
L 150.857116 -110.209059 
L 150.060878 -111.093365 
L 149.264641 -111.383567 
L 148.468403 -111.040871 
L 147.672166 -110.083775 
L 146.875928 -108.572212 
L 146.079691 -106.622264 
L 145.283453 -104.432335 
L 144.487216 -102.290457 
L 143.690978 -100.538912 
L 142.89474 -99.495514 
L 142.098503 -99.350801 
L 141.302265 -100.078413 
L 140.506028 -101.40564 
L 139.70979 -102.876714 
L 138.913553 -103.99767 
L 138.117315 -104.407093 
L 137.321078 -104.002089 
L 136.52484 -102.973097 
L 135.728603 -101.743485 
L 134.932365 -100.840026 
L 134.136128 -100.728869 
L 133.33989 -101.658348 
L 132.543653 -103.562993 
L 131.747415 -106.076886 
L 130.951178 -108.662386 
L 130.15494 -110.800942 
L 129.358703 -112.162072 
L 128.562465 -112.685043 
L 127.766228 -112.557086 
L 126.96999 -112.116332 
L 126.173752 -111.72504 
L 125.377515 -111.657256 
L 124.581277 -112.035835 
L 123.78504 -112.836911 
L 122.988802 -113.951134 
L 122.192565 -115.262822 
L 121.396327 -116.70054 
L 120.60009 -118.231621 
L 119.803852 -119.809035 
L 119.007615 -121.308848 
L 118.211377 -122.505736 
L 117.41514 -123.114818 
L 116.618902 -122.892725 
L 115.822665 -121.758779 
L 115.026427 -119.882329 
L 114.23019 -117.693566 
L 113.433952 -115.79817 
L 112.637715 -114.812133 
L 111.841477 -115.165065 
L 111.04524 -116.941081 
L 110.249002 -119.82412 
L 109.452764 -123.181241 
L 108.656527 -126.259362 
L 107.860289 -128.417142 
L 107.064052 -129.299722 
L 106.267814 -128.891693 
L 105.471577 -127.449851 
L 104.675339 -125.370549 
L 103.879102 -123.059683 
L 103.082864 -120.84599 
L 102.286627 -118.945714 
L 101.490389 -117.468677 
L 100.694152 -116.443266 
L 99.897914 -115.842875 
L 99.101677 -115.609964 
L 98.305439 -115.679369 
L 97.509202 -115.992988 
L 96.712964 -116.49752 
L 95.916727 -117.126252 
L 95.120489 -117.77373 
L 94.324251 -118.287328 
L 93.528014 -118.509714 
L 92.731776 -118.373414 
L 91.935539 -117.980551 
L 91.139301 -117.591557 
L 90.343064 -117.506746 
L 89.546826 -117.904815 
L 88.750589 -118.750396 
L 87.954351 -119.834494 
L 87.158114 -120.893779 
L 86.361876 -121.704653 
L 85.565639 -122.101718 
L 84.769401 -121.958802 
L 83.973164 -121.206724 
L 83.176926 -119.890395 
L 82.380689 -118.190858 
L 81.584451 -116.366747 
L 80.788214 -114.655086 
L 79.991976 -113.227301 
L 79.195739 -112.233934 
L 78.399501 -111.856786 
L 77.603263 -112.283028 
L 76.807026 -113.605006 
L 76.010788 -115.724916 
L 75.214551 -118.345855 
L 74.418313 -121.051483 
L 73.622076 -123.410174 
L 72.825838 -125.053588 
L 72.029601 -125.735622 
L 71.233363 -125.398219 
L 70.437126 -124.224083 
L 69.640888 -122.614791 
L 68.844651 -121.067998 
L 68.048413 -120.008749 
L 67.252176 -119.6718 
L 66.455938 -120.085331 
L 65.659701 -121.119999 
L 64.863463 -122.544546 
L 64.067226 -124.065347 
L 63.270988 -125.366385 
L 62.47475 -126.171247 
L 61.678513 -126.310901 
L 60.882275 -125.760795 
L 60.086038 -124.634715 
L 59.2898 -123.153337 
L 58.493563 -121.600096 
L 57.697325 -120.261355 
L 56.901088 -119.357305 
L 56.10485 -118.991261 
L 55.308613 -119.142974 
L 54.512375 -119.699756 
L 53.716138 -120.501393 
L 52.9199 -121.385269 
L 52.123663 -122.234657 
L 51.327425 -123.024127 
L 50.531188 -123.833952 
L 49.73495 -124.81265 
L 48.938713 -126.097948 
L 48.142475 -127.740625 
L 47.346238 -129.668328 
L 46.55 -131.698258 
z
" style="stroke: #377eb8; stroke-opacity: 0.3"/>
    </defs>
    <g clip-path="url(#p35845099c4)">
     <use xlink:href="#mfc05063897" x="0" y="360" style="fill: #377eb8; fill-opacity: 0.3; stroke: #377eb8; stroke-opacity: 0.3"/>
    </g>
   </g>
   <g id="patch_3">
    <path d="M 229.843878 318.2 
L 229.843878 71.241125 
L 331.762281 71.241125 
L 331.762281 318.2 
z
" clip-path="url(#p35845099c4)" style="fill: #808080; opacity: 0.3"/>
   </g>
   <g id="matplotlib.axis_1">
    <g id="xtick_1">
     <g id="line2d_1">
      <defs>
       <path id="m5629f91c83" d="M 0 0 
L 0 3.5 
" style="stroke: #000000; stroke-width: 0.8"/>
      </defs>
      <g>
       <use xlink:href="#m5629f91c83" x="87.158114" y="318.2" style="stroke: #000000; stroke-width: 0.8"/>
      </g>
     </g>
     <g id="text_1">
      <!-- 0.0 -->
      <g transform="translate(79.206551 332.798437)scale(0.1 -0.1)">
       <defs>
        <path id="DejaVuSans-30" d="M 2034 4250 
Q 1547 4250 1301 3770 
Q 1056 3291 1056 2328 
Q 1056 1369 1301 889 
Q 1547 409 2034 409 
Q 2525 409 2770 889 
Q 3016 1369 3016 2328 
Q 3016 3291 2770 3770 
Q 2525 4250 2034 4250 
z
M 2034 4750 
Q 2819 4750 3233 4129 
Q 3647 3509 3647 2328 
Q 3647 1150 3233 529 
Q 2819 -91 2034 -91 
Q 1250 -91 836 529 
Q 422 1150 422 2328 
Q 422 3509 836 4129 
Q 1250 4750 2034 4750 
z
" transform="scale(0.015625)"/>
        <path id="DejaVuSans-2e" d="M 684 794 
L 1344 794 
L 1344 0 
L 684 0 
L 684 794 
z
" transform="scale(0.015625)"/>
       </defs>
       <use xlink:href="#DejaVuSans-30"/>
       <use xlink:href="#DejaVuSans-2e" x="63.623047"/>
       <use xlink:href="#DejaVuSans-30" x="95.410156"/>
      </g>
     </g>
    </g>
    <g id="xtick_2">
     <g id="line2d_2">
      <g>
       <use xlink:href="#m5629f91c83" x="168.692836" y="318.2" style="stroke: #000000; stroke-width: 0.8"/>
      </g>
     </g>
     <g id="text_2">
      <!-- 0.2 -->
      <g transform="translate(160.741274 332.798437)scale(0.1 -0.1)">
       <defs>
        <path id="DejaVuSans-32" d="M 1228 531 
L 3431 531 
L 3431 0 
L 469 0 
L 469 531 
Q 828 903 1448 1529 
Q 2069 2156 2228 2338 
Q 2531 2678 2651 2914 
Q 2772 3150 2772 3378 
Q 2772 3750 2511 3984 
Q 2250 4219 1831 4219 
Q 1534 4219 1204 4116 
Q 875 4013 500 3803 
L 500 4441 
Q 881 4594 1212 4672 
Q 1544 4750 1819 4750 
Q 2544 4750 2975 4387 
Q 3406 4025 3406 3419 
Q 3406 3131 3298 2873 
Q 3191 2616 2906 2266 
Q 2828 2175 2409 1742 
Q 1991 1309 1228 531 
z
" transform="scale(0.015625)"/>
       </defs>
       <use xlink:href="#DejaVuSans-30"/>
       <use xlink:href="#DejaVuSans-2e" x="63.623047"/>
       <use xlink:href="#DejaVuSans-32" x="95.410156"/>
      </g>
     </g>
    </g>
    <g id="xtick_3">
     <g id="line2d_3">
      <g>
       <use xlink:href="#m5629f91c83" x="250.227559" y="318.2" style="stroke: #000000; stroke-width: 0.8"/>
      </g>
     </g>
     <g id="text_3">
      <!-- 0.4 -->
      <g transform="translate(242.275996 332.798437)scale(0.1 -0.1)">
       <defs>
        <path id="DejaVuSans-34" d="M 2419 4116 
L 825 1625 
L 2419 1625 
L 2419 4116 
z
M 2253 4666 
L 3047 4666 
L 3047 1625 
L 3713 1625 
L 3713 1100 
L 3047 1100 
L 3047 0 
L 2419 0 
L 2419 1100 
L 313 1100 
L 313 1709 
L 2253 4666 
z
" transform="scale(0.015625)"/>
       </defs>
       <use xlink:href="#DejaVuSans-30"/>
       <use xlink:href="#DejaVuSans-2e" x="63.623047"/>
       <use xlink:href="#DejaVuSans-34" x="95.410156"/>
      </g>
     </g>
    </g>
    <g id="xtick_4">
     <g id="line2d_4">
      <g>
       <use xlink:href="#m5629f91c83" x="331.762281" y="318.2" style="stroke: #000000; stroke-width: 0.8"/>
      </g>
     </g>
     <g id="text_4">
      <!-- 0.6 -->
      <g transform="translate(323.810719 332.798437)scale(0.1 -0.1)">
       <defs>
        <path id="DejaVuSans-36" d="M 2113 2584 
Q 1688 2584 1439 2293 
Q 1191 2003 1191 1497 
Q 1191 994 1439 701 
Q 1688 409 2113 409 
Q 2538 409 2786 701 
Q 3034 994 3034 1497 
Q 3034 2003 2786 2293 
Q 2538 2584 2113 2584 
z
M 3366 4563 
L 3366 3988 
Q 3128 4100 2886 4159 
Q 2644 4219 2406 4219 
Q 1781 4219 1451 3797 
Q 1122 3375 1075 2522 
Q 1259 2794 1537 2939 
Q 1816 3084 2150 3084 
Q 2853 3084 3261 2657 
Q 3669 2231 3669 1497 
Q 3669 778 3244 343 
Q 2819 -91 2113 -91 
Q 1303 -91 875 529 
Q 447 1150 447 2328 
Q 447 3434 972 4092 
Q 1497 4750 2381 4750 
Q 2619 4750 2861 4703 
Q 3103 4656 3366 4563 
z
" transform="scale(0.015625)"/>
       </defs>
       <use xlink:href="#DejaVuSans-30"/>
       <use xlink:href="#DejaVuSans-2e" x="63.623047"/>
       <use xlink:href="#DejaVuSans-36" x="95.410156"/>
      </g>
     </g>
    </g>
    <g id="xtick_5">
     <g id="line2d_5">
      <g>
       <use xlink:href="#m5629f91c83" x="413.297004" y="318.2" style="stroke: #000000; stroke-width: 0.8"/>
      </g>
     </g>
     <g id="text_5">
      <!-- 0.8 -->
      <g transform="translate(405.345441 332.798437)scale(0.1 -0.1)">
       <defs>
        <path id="DejaVuSans-38" d="M 2034 2216 
Q 1584 2216 1326 1975 
Q 1069 1734 1069 1313 
Q 1069 891 1326 650 
Q 1584 409 2034 409 
Q 2484 409 2743 651 
Q 3003 894 3003 1313 
Q 3003 1734 2745 1975 
Q 2488 2216 2034 2216 
z
M 1403 2484 
Q 997 2584 770 2862 
Q 544 3141 544 3541 
Q 544 4100 942 4425 
Q 1341 4750 2034 4750 
Q 2731 4750 3128 4425 
Q 3525 4100 3525 3541 
Q 3525 3141 3298 2862 
Q 3072 2584 2669 2484 
Q 3125 2378 3379 2068 
Q 3634 1759 3634 1313 
Q 3634 634 3220 271 
Q 2806 -91 2034 -91 
Q 1263 -91 848 271 
Q 434 634 434 1313 
Q 434 1759 690 2068 
Q 947 2378 1403 2484 
z
M 1172 3481 
Q 1172 3119 1398 2916 
Q 1625 2713 2034 2713 
Q 2441 2713 2670 2916 
Q 2900 3119 2900 3481 
Q 2900 3844 2670 4047 
Q 2441 4250 2034 4250 
Q 1625 4250 1398 4047 
Q 1172 3844 1172 3481 
z
" transform="scale(0.015625)"/>
       </defs>
       <use xlink:href="#DejaVuSans-30"/>
       <use xlink:href="#DejaVuSans-2e" x="63.623047"/>
       <use xlink:href="#DejaVuSans-38" x="95.410156"/>
      </g>
     </g>
    </g>
    <g id="text_6">
     <!-- seconds -->
     <g transform="translate(209.645249 346.476562)scale(0.1 -0.1)">
      <defs>
       <path id="DejaVuSans-73" d="M 2834 3397 
L 2834 2853 
Q 2591 2978 2328 3040 
Q 2066 3103 1784 3103 
Q 1356 3103 1142 2972 
Q 928 2841 928 2578 
Q 928 2378 1081 2264 
Q 1234 2150 1697 2047 
L 1894 2003 
Q 2506 1872 2764 1633 
Q 3022 1394 3022 966 
Q 3022 478 2636 193 
Q 2250 -91 1575 -91 
Q 1294 -91 989 -36 
Q 684 19 347 128 
L 347 722 
Q 666 556 975 473 
Q 1284 391 1588 391 
Q 1994 391 2212 530 
Q 2431 669 2431 922 
Q 2431 1156 2273 1281 
Q 2116 1406 1581 1522 
L 1381 1569 
Q 847 1681 609 1914 
Q 372 2147 372 2553 
Q 372 3047 722 3315 
Q 1072 3584 1716 3584 
Q 2034 3584 2315 3537 
Q 2597 3491 2834 3397 
z
" transform="scale(0.015625)"/>
       <path id="DejaVuSans-65" d="M 3597 1894 
L 3597 1613 
L 953 1613 
Q 991 1019 1311 708 
Q 1631 397 2203 397 
Q 2534 397 2845 478 
Q 3156 559 3463 722 
L 3463 178 
Q 3153 47 2828 -22 
Q 2503 -91 2169 -91 
Q 1331 -91 842 396 
Q 353 884 353 1716 
Q 353 2575 817 3079 
Q 1281 3584 2069 3584 
Q 2775 3584 3186 3129 
Q 3597 2675 3597 1894 
z
M 3022 2063 
Q 3016 2534 2758 2815 
Q 2500 3097 2075 3097 
Q 1594 3097 1305 2825 
Q 1016 2553 972 2059 
L 3022 2063 
z
" transform="scale(0.015625)"/>
       <path id="DejaVuSans-63" d="M 3122 3366 
L 3122 2828 
Q 2878 2963 2633 3030 
Q 2388 3097 2138 3097 
Q 1578 3097 1268 2742 
Q 959 2388 959 1747 
Q 959 1106 1268 751 
Q 1578 397 2138 397 
Q 2388 397 2633 464 
Q 2878 531 3122 666 
L 3122 134 
Q 2881 22 2623 -34 
Q 2366 -91 2075 -91 
Q 1284 -91 818 406 
Q 353 903 353 1747 
Q 353 2603 823 3093 
Q 1294 3584 2113 3584 
Q 2378 3584 2631 3529 
Q 2884 3475 3122 3366 
z
" transform="scale(0.015625)"/>
       <path id="DejaVuSans-6f" d="M 1959 3097 
Q 1497 3097 1228 2736 
Q 959 2375 959 1747 
Q 959 1119 1226 758 
Q 1494 397 1959 397 
Q 2419 397 2687 759 
Q 2956 1122 2956 1747 
Q 2956 2369 2687 2733 
Q 2419 3097 1959 3097 
z
M 1959 3584 
Q 2709 3584 3137 3096 
Q 3566 2609 3566 1747 
Q 3566 888 3137 398 
Q 2709 -91 1959 -91 
Q 1206 -91 779 398 
Q 353 888 353 1747 
Q 353 2609 779 3096 
Q 1206 3584 1959 3584 
z
" transform="scale(0.015625)"/>
       <path id="DejaVuSans-6e" d="M 3513 2113 
L 3513 0 
L 2938 0 
L 2938 2094 
Q 2938 2591 2744 2837 
Q 2550 3084 2163 3084 
Q 1697 3084 1428 2787 
Q 1159 2491 1159 1978 
L 1159 0 
L 581 0 
L 581 3500 
L 1159 3500 
L 1159 2956 
Q 1366 3272 1645 3428 
Q 1925 3584 2291 3584 
Q 2894 3584 3203 3211 
Q 3513 2838 3513 2113 
z
" transform="scale(0.015625)"/>
       <path id="DejaVuSans-64" d="M 2906 2969 
L 2906 4863 
L 3481 4863 
L 3481 0 
L 2906 0 
L 2906 525 
Q 2725 213 2448 61 
Q 2172 -91 1784 -91 
Q 1150 -91 751 415 
Q 353 922 353 1747 
Q 353 2572 751 3078 
Q 1150 3584 1784 3584 
Q 2172 3584 2448 3432 
Q 2725 3281 2906 2969 
z
M 947 1747 
Q 947 1113 1208 752 
Q 1469 391 1925 391 
Q 2381 391 2643 752 
Q 2906 1113 2906 1747 
Q 2906 2381 2643 2742 
Q 2381 3103 1925 3103 
Q 1469 3103 1208 2742 
Q 947 2381 947 1747 
z
" transform="scale(0.015625)"/>
      </defs>
      <use xlink:href="#DejaVuSans-73"/>
      <use xlink:href="#DejaVuSans-65" x="52.099609"/>
      <use xlink:href="#DejaVuSans-63" x="113.623047"/>
      <use xlink:href="#DejaVuSans-6f" x="168.603516"/>
      <use xlink:href="#DejaVuSans-6e" x="229.785156"/>
      <use xlink:href="#DejaVuSans-64" x="293.164062"/>
      <use xlink:href="#DejaVuSans-73" x="356.640625"/>
     </g>
    </g>
   </g>
   <g id="matplotlib.axis_2">
    <g id="ytick_1">
     <g id="line2d_6">
      <defs>
       <path id="mb0d61721c1" d="M 0 0 
L -3.5 0 
" style="stroke: #000000; stroke-width: 0.8"/>
      </defs>
      <g>
       <use xlink:href="#mb0d61721c1" x="46.55" y="302.538715" style="stroke: #000000; stroke-width: 0.8"/>
      </g>
     </g>
     <g id="text_7">
      <!-- 2 -->
      <g transform="translate(24.807812 306.337934)scale(0.1 -0.1)">
       <defs>
        <path id="DejaVuSans-2212" d="M 678 2272 
L 4684 2272 
L 4684 1741 
L 678 1741 
L 678 2272 
z
" transform="scale(0.015625)"/>
       </defs>
       <use xlink:href="#DejaVuSans-2212"/>
       <use xlink:href="#DejaVuSans-32" x="83.789062"/>
      </g>
     </g>
    </g>
    <g id="ytick_2">
     <g id="line2d_7">
      <g>
       <use xlink:href="#mb0d61721c1" x="46.55" y="274.645601" style="stroke: #000000; stroke-width: 0.8"/>
      </g>
     </g>
     <g id="text_8">
      <!-- 1 -->
      <g transform="translate(24.807812 278.444819)scale(0.1 -0.1)">
       <defs>
        <path id="DejaVuSans-31" d="M 794 531 
L 1825 531 
L 1825 4091 
L 703 3866 
L 703 4441 
L 1819 4666 
L 2450 4666 
L 2450 531 
L 3481 531 
L 3481 0 
L 794 0 
L 794 531 
z
" transform="scale(0.015625)"/>
       </defs>
       <use xlink:href="#DejaVuSans-2212"/>
       <use xlink:href="#DejaVuSans-31" x="83.789062"/>
      </g>
     </g>
    </g>
    <g id="ytick_3">
     <g id="line2d_8">
      <g>
       <use xlink:href="#mb0d61721c1" x="46.55" y="246.752486" style="stroke: #000000; stroke-width: 0.8"/>
      </g>
     </g>
     <g id="text_9">
      <!-- 0 -->
      <g transform="translate(33.1875 250.551705)scale(0.1 -0.1)">
       <use xlink:href="#DejaVuSans-30"/>
      </g>
     </g>
    </g>
    <g id="ytick_4">
     <g id="line2d_9">
      <g>
       <use xlink:href="#mb0d61721c1" x="46.55" y="218.859372" style="stroke: #000000; stroke-width: 0.8"/>
      </g>
     </g>
     <g id="text_10">
      <!-- 1 -->
      <g transform="translate(33.1875 222.658591)scale(0.1 -0.1)">
       <use xlink:href="#DejaVuSans-31"/>
      </g>
     </g>
    </g>
    <g id="ytick_5">
     <g id="line2d_10">
      <g>
       <use xlink:href="#mb0d61721c1" x="46.55" y="190.966258" style="stroke: #000000; stroke-width: 0.8"/>
      </g>
     </g>
     <g id="text_11">
      <!-- 2 -->
      <g transform="translate(33.1875 194.765477)scale(0.1 -0.1)">
       <use xlink:href="#DejaVuSans-32"/>
      </g>
     </g>
    </g>
    <g id="ytick_6">
     <g id="line2d_11">
      <g>
       <use xlink:href="#mb0d61721c1" x="46.55" y="163.073144" style="stroke: #000000; stroke-width: 0.8"/>
      </g>
     </g>
     <g id="text_12">
      <!-- 3 -->
      <g transform="translate(33.1875 166.872362)scale(0.1 -0.1)">
       <defs>
        <path id="DejaVuSans-33" d="M 2597 2516 
Q 3050 2419 3304 2112 
Q 3559 1806 3559 1356 
Q 3559 666 3084 287 
Q 2609 -91 1734 -91 
Q 1441 -91 1130 -33 
Q 819 25 488 141 
L 488 750 
Q 750 597 1062 519 
Q 1375 441 1716 441 
Q 2309 441 2620 675 
Q 2931 909 2931 1356 
Q 2931 1769 2642 2001 
Q 2353 2234 1838 2234 
L 1294 2234 
L 1294 2753 
L 1863 2753 
Q 2328 2753 2575 2939 
Q 2822 3125 2822 3475 
Q 2822 3834 2567 4026 
Q 2313 4219 1838 4219 
Q 1578 4219 1281 4162 
Q 984 4106 628 3988 
L 628 4550 
Q 988 4650 1302 4700 
Q 1616 4750 1894 4750 
Q 2613 4750 3031 4423 
Q 3450 4097 3450 3541 
Q 3450 3153 3228 2886 
Q 3006 2619 2597 2516 
z
" transform="scale(0.015625)"/>
       </defs>
       <use xlink:href="#DejaVuSans-33"/>
      </g>
     </g>
    </g>
    <g id="ytick_7">
     <g id="line2d_12">
      <g>
       <use xlink:href="#mb0d61721c1" x="46.55" y="135.180029" style="stroke: #000000; stroke-width: 0.8"/>
      </g>
     </g>
     <g id="text_13">
      <!-- 4 -->
      <g transform="translate(33.1875 138.979248)scale(0.1 -0.1)">
       <use xlink:href="#DejaVuSans-34"/>
      </g>
     </g>
    </g>
    <g id="ytick_8">
     <g id="line2d_13">
      <g>
       <use xlink:href="#mb0d61721c1" x="46.55" y="107.286915" style="stroke: #000000; stroke-width: 0.8"/>
      </g>
     </g>
     <g id="text_14">
      <!-- 5 -->
      <g transform="translate(33.1875 111.086134)scale(0.1 -0.1)">
       <defs>
        <path id="DejaVuSans-35" d="M 691 4666 
L 3169 4666 
L 3169 4134 
L 1269 4134 
L 1269 2991 
Q 1406 3038 1543 3061 
Q 1681 3084 1819 3084 
Q 2600 3084 3056 2656 
Q 3513 2228 3513 1497 
Q 3513 744 3044 326 
Q 2575 -91 1722 -91 
Q 1428 -91 1123 -41 
Q 819 9 494 109 
L 494 744 
Q 775 591 1075 516 
Q 1375 441 1709 441 
Q 2250 441 2565 725 
Q 2881 1009 2881 1497 
Q 2881 1984 2565 2268 
Q 2250 2553 1709 2553 
Q 1456 2553 1204 2497 
Q 953 2441 691 2322 
L 691 4666 
z
" transform="scale(0.015625)"/>
       </defs>
       <use xlink:href="#DejaVuSans-35"/>
      </g>
     </g>
    </g>
    <g id="ytick_9">
     <g id="line2d_14">
      <g>
       <use xlink:href="#mb0d61721c1" x="46.55" y="79.393801" style="stroke: #000000; stroke-width: 0.8"/>
      </g>
     </g>
     <g id="text_15">
      <!-- 6 -->
      <g transform="translate(33.1875 83.193019)scale(0.1 -0.1)">
       <use xlink:href="#DejaVuSans-36"/>
      </g>
     </g>
    </g>
    <g id="text_16">
     <!-- V -->
     <g transform="translate(18.728125 201.322125)rotate(-90)scale(0.1 -0.1)">
      <defs>
       <path id="DejaVuSans-b5" d="M 544 -1331 
L 544 3500 
L 1119 3500 
L 1119 1325 
Q 1119 872 1334 640 
Q 1550 409 1972 409 
Q 2434 409 2667 671 
Q 2900 934 2900 1459 
L 2900 3500 
L 3475 3500 
L 3475 806 
Q 3475 619 3529 530 
Q 3584 441 3700 441 
Q 3728 441 3778 458 
Q 3828 475 3916 513 
L 3916 50 
Q 3788 -22 3673 -56 
Q 3559 -91 3450 -91 
Q 3234 -91 3106 31 
Q 2978 153 2931 403 
Q 2775 156 2548 32 
Q 2322 -91 2016 -91 
Q 1697 -91 1473 31 
Q 1250 153 1119 397 
L 1119 -1331 
L 544 -1331 
z
" transform="scale(0.015625)"/>
       <path id="DejaVuSans-56" d="M 1831 0 
L 50 4666 
L 709 4666 
L 2188 738 
L 3669 4666 
L 4325 4666 
L 2547 0 
L 1831 0 
z
" transform="scale(0.015625)"/>
      </defs>
      <use xlink:href="#DejaVuSans-b5"/>
      <use xlink:href="#DejaVuSans-56" x="63.623047"/>
     </g>
    </g>
   </g>
   <g id="line2d_15">
    <path d="M 46.55 242.97416 
L 47.346238 243.645362 
L 48.142475 245.510943 
L 49.73495 251.008411 
L 50.531188 253.028257 
L 51.327425 253.546981 
L 52.123663 252.258253 
L 52.9199 249.400311 
L 54.512375 242.188355 
L 55.308613 239.848317 
L 56.10485 239.384691 
L 56.901088 241.015006 
L 57.697325 244.441162 
L 60.086038 257.651956 
L 60.882275 260.267545 
L 61.678513 261.148671 
L 62.47475 260.285971 
L 63.270988 257.977827 
L 65.659701 248.297243 
L 66.455938 246.412355 
L 67.252176 246.08435 
L 68.048413 247.455448 
L 68.844651 250.285389 
L 70.437126 257.529014 
L 71.233363 260.022707 
L 72.029601 260.589334 
L 72.825838 258.800008 
L 73.622076 254.787363 
L 76.010788 237.943066 
L 76.807026 234.293564 
L 77.603263 232.737963 
L 78.399501 233.144914 
L 79.195739 234.892785 
L 79.991976 237.109105 
L 80.788214 238.969408 
L 81.584451 239.947678 
L 82.380689 239.934735 
L 83.176926 239.195812 
L 83.973164 238.202041 
L 84.769401 237.4163 
L 85.565639 237.123668 
L 86.361876 237.367694 
L 87.158114 238.001007 
L 91.139301 242.139344 
L 91.935539 243.045675 
L 92.731776 243.751375 
L 93.528014 243.939856 
L 94.324251 243.329621 
L 95.120489 241.842232 
L 96.712964 237.515796 
L 97.509202 235.963216 
L 98.305439 235.719034 
L 99.101677 237.114238 
L 99.897914 239.986278 
L 101.490389 247.196432 
L 102.286627 249.534454 
L 103.082864 249.958516 
L 103.879102 248.247823 
L 104.675339 244.752184 
L 106.267814 235.823573 
L 107.064052 232.328403 
L 107.860289 230.408486 
L 108.656527 230.262315 
L 109.452764 231.686989 
L 110.249002 234.195273 
L 111.841477 240.019008 
L 112.637715 242.245208 
L 113.433952 243.522821 
L 114.23019 243.706866 
L 115.026427 242.849697 
L 115.822665 241.209274 
L 117.41514 237.516186 
L 118.211377 236.652396 
L 119.007615 237.105912 
L 119.803852 239.032361 
L 120.60009 242.179309 
L 122.192565 249.292476 
L 122.988802 251.466517 
L 123.78504 251.806356 
L 124.581277 250.187469 
L 125.377515 247.033206 
L 126.96999 239.669723 
L 127.766228 237.305229 
L 128.562465 236.506674 
L 129.358703 237.137132 
L 130.951178 240.007281 
L 131.747415 240.600907 
L 132.543653 239.888899 
L 133.33989 237.836104 
L 134.932365 231.423105 
L 135.728603 228.246365 
L 136.52484 225.637744 
L 137.321078 223.616962 
L 138.913553 220.090429 
L 139.70979 217.813645 
L 141.302265 211.744628 
L 142.098503 208.63162 
L 142.89474 206.221267 
L 143.690978 205.034573 
L 144.487216 205.342393 
L 145.283453 207.072271 
L 146.079691 209.823703 
L 147.672166 215.889546 
L 148.468403 218.025856 
L 149.264641 219.132527 
L 150.060878 219.260024 
L 150.857116 218.721927 
L 151.653353 217.978428 
L 152.449591 217.486111 
L 153.245828 217.558635 
L 154.042066 218.27713 
L 156.430778 221.745898 
L 157.227016 221.956562 
L 158.023253 221.145984 
L 158.819491 219.261951 
L 159.615729 216.47081 
L 162.004441 206.310462 
L 162.800679 203.58607 
L 163.596916 201.573832 
L 164.393154 200.274982 
L 165.189391 199.548236 
L 166.781866 198.758431 
L 167.578104 198.060792 
L 168.374341 196.763043 
L 169.170579 194.663527 
L 169.966816 191.700768 
L 171.559291 183.840187 
L 173.151766 176.111097 
L 173.948004 173.547303 
L 174.744241 172.332114 
L 175.540479 172.532287 
L 176.336717 173.937974 
L 178.725429 180.6962 
L 179.521667 182.273108 
L 180.317904 183.154537 
L 181.114142 183.424428 
L 181.910379 183.269238 
L 182.706617 182.861726 
L 183.502854 182.271507 
L 184.299092 181.440816 
L 185.095329 180.234737 
L 185.891567 178.54223 
L 187.484042 173.953274 
L 188.280279 171.627582 
L 189.076517 169.838184 
L 189.872754 168.945293 
L 190.668992 169.104826 
L 191.46523 170.201572 
L 193.853942 174.961291 
L 194.65018 175.565985 
L 195.446417 175.343439 
L 196.242655 174.426087 
L 201.02008 166.523363 
L 203.408792 162.86954 
L 204.20503 162.089929 
L 205.001267 161.805713 
L 205.797505 162.049712 
L 206.593742 162.703666 
L 208.186218 164.243897 
L 208.982455 164.629182 
L 209.778693 164.597441 
L 210.57493 164.221322 
L 212.167405 163.258868 
L 212.963643 163.091651 
L 213.75988 163.254571 
L 216.148593 164.484351 
L 216.94483 164.538024 
L 217.741068 164.283349 
L 219.333543 163.396172 
L 220.12978 163.21231 
L 220.926018 163.463904 
L 221.722255 164.216287 
L 222.518493 165.390237 
L 224.110968 168.087514 
L 224.907206 169.020369 
L 225.703443 169.329376 
L 226.499681 168.877273 
L 227.295918 167.667021 
L 228.092156 165.846398 
L 229.684631 161.521325 
L 230.480868 159.702924 
L 231.277106 158.501443 
L 232.073343 158.046196 
L 232.869581 158.277539 
L 234.462056 159.64523 
L 235.258293 159.931326 
L 236.054531 159.415241 
L 236.850768 157.890207 
L 237.647006 155.403424 
L 240.035719 146.096888 
L 240.831956 144.140092 
L 241.628194 143.39666 
L 242.424431 143.899072 
L 243.220669 145.426126 
L 245.609381 152.012746 
L 246.405619 153.604685 
L 247.201856 154.552095 
L 247.998094 154.831122 
L 248.794331 154.478026 
L 249.590569 153.547419 
L 250.386806 152.101918 
L 251.979281 148.129903 
L 252.775519 146.041161 
L 253.571756 144.318585 
L 254.367994 143.316267 
L 255.164231 143.290391 
L 255.960469 144.29348 
L 256.756707 146.115122 
L 258.349182 150.263503 
L 259.145419 151.436241 
L 259.941657 151.451227 
L 260.737894 150.248338 
L 261.534132 148.092182 
L 263.126607 142.983482 
L 263.922844 141.047619 
L 264.719082 139.87139 
L 265.515319 139.357209 
L 267.107794 138.911754 
L 267.904032 138.219648 
L 268.700269 136.959101 
L 271.088982 131.793883 
L 271.88522 130.871857 
L 272.681457 130.847637 
L 273.477695 131.74668 
L 274.273932 133.384797 
L 275.866407 137.419788 
L 276.662645 138.951882 
L 277.458882 139.632583 
L 278.25512 139.183243 
L 279.051357 137.466393 
L 279.847595 134.514018 
L 280.643832 130.541358 
L 283.032545 116.883667 
L 283.828782 113.447799 
L 284.62502 111.181508 
L 285.421257 110.131768 
L 286.217495 110.109746 
L 287.013732 110.766434 
L 289.402445 113.47656 
L 290.99492 115.107717 
L 291.791158 116.302884 
L 292.587395 117.90633 
L 294.976108 123.685109 
L 295.772345 125.056794 
L 296.568583 125.920732 
L 298.161058 127.017526 
L 298.957295 128.074624 
L 299.753533 129.992766 
L 300.54977 132.912884 
L 303.73472 147.475303 
L 304.530958 148.906034 
L 305.327196 148.698946 
L 306.123433 147.006457 
L 307.715908 141.172032 
L 308.512146 138.343639 
L 309.308383 136.35382 
L 310.104621 135.531274 
L 310.900858 135.928516 
L 311.697096 137.333978 
L 314.085808 143.05503 
L 314.882046 143.855637 
L 315.678283 143.601304 
L 316.474521 142.316605 
L 317.270758 140.26446 
L 318.863233 135.751796 
L 319.659471 134.344598 
L 320.455709 134.027494 
L 321.251946 134.903641 
L 322.048184 136.788884 
L 323.640659 141.697103 
L 324.436896 143.550199 
L 325.233134 144.365686 
L 326.029371 143.95635 
L 326.825609 142.428902 
L 329.214321 135.338361 
L 330.010559 133.725814 
L 330.806796 132.956668 
L 331.603034 132.993536 
L 332.399271 133.624723 
L 334.787984 136.287521 
L 335.584221 136.833162 
L 337.176697 137.423649 
L 338.769172 138.03572 
L 339.565409 138.568316 
L 340.361647 139.340359 
L 341.157884 140.4273 
L 341.954122 141.916061 
L 342.750359 143.876981 
L 343.546597 146.313023 
L 345.935309 154.612791 
L 346.731547 156.525075 
L 347.527784 157.401357 
L 348.324022 157.106766 
L 349.120259 155.783348 
L 350.712734 151.864853 
L 351.508972 150.431395 
L 352.30521 149.940118 
L 353.101447 150.470397 
L 353.897685 151.749651 
L 354.693922 153.239554 
L 355.49016 154.320142 
L 356.286397 154.509141 
L 357.082635 153.641341 
L 357.878872 151.944464 
L 358.67511 149.980216 
L 359.471347 148.47305 
L 360.267585 148.077954 
L 361.063822 149.170805 
L 361.86006 151.732302 
L 363.452535 159.418711 
L 364.248772 163.218333 
L 365.04501 166.244298 
L 365.841247 168.274477 
L 366.637485 169.404201 
L 367.433722 169.960837 
L 368.22996 170.355601 
L 369.026198 170.930428 
L 369.822435 171.855409 
L 371.41491 174.514995 
L 372.211148 175.864914 
L 373.007385 176.979759 
L 373.803623 177.778942 
L 374.59986 178.28242 
L 376.192335 178.774127 
L 377.78481 179.245057 
L 378.581048 179.669129 
L 379.377285 180.318956 
L 380.173523 181.27316 
L 380.96976 182.583057 
L 382.562235 186.077711 
L 383.358473 187.897795 
L 384.15471 189.399405 
L 384.950948 190.340007 
L 385.747186 190.63342 
L 386.543423 190.424115 
L 387.339661 190.082679 
L 388.135898 190.106677 
L 388.932136 190.949155 
L 389.728373 192.830604 
L 392.117086 201.438173 
L 392.913323 202.855251 
L 393.709561 202.381734 
L 394.505798 199.859461 
L 395.302036 195.679422 
L 396.894511 186.084689 
L 397.690748 182.874301 
L 398.486986 181.806803 
L 399.283223 183.060778 
L 400.079461 186.23123 
L 401.671936 194.702873 
L 402.468174 198.003055 
L 403.264411 199.758447 
L 404.060649 199.83486 
L 404.856886 198.543604 
L 407.245599 192.686686 
L 408.041836 191.750214 
L 408.838074 191.505467 
L 410.430549 191.85515 
L 411.226786 191.71907 
L 412.023024 191.07491 
L 412.819261 189.931411 
L 413.615499 188.455974 
L 413.615499 188.455974 
" clip-path="url(#p35845099c4)" style="fill: none; stroke: #e41a1c; stroke-width: 1.5; stroke-linecap: square"/>
   </g>
   <g id="line2d_16">
    <path d="M 46.55 237.831518 
L 48.142475 241.498803 
L 48.938713 242.997898 
L 49.73495 244.156426 
L 51.327425 245.736717 
L 53.716138 247.922104 
L 54.512375 248.620394 
L 55.308613 249.077448 
L 56.10485 249.122044 
L 56.901088 248.641461 
L 57.697325 247.626188 
L 59.2898 244.536113 
L 60.086038 242.954195 
L 60.882275 241.725778 
L 61.678513 241.084019 
L 62.47475 241.159152 
L 63.270988 241.945367 
L 64.067226 243.292026 
L 65.659701 246.4889 
L 66.455938 247.633452 
L 67.252176 248.083536 
L 68.048413 247.720409 
L 68.844651 246.624885 
L 70.437126 243.486923 
L 71.233363 242.322541 
L 72.029601 241.966873 
L 72.825838 242.630017 
L 73.622076 244.291515 
L 75.214551 249.477416 
L 76.010788 252.146033 
L 76.807026 254.311065 
L 77.603263 255.701764 
L 78.399501 256.212239 
L 79.195739 255.888825 
L 79.991976 254.886538 
L 80.788214 253.417768 
L 83.176926 248.467468 
L 83.973164 247.32682 
L 84.769401 246.719714 
L 85.565639 246.72896 
L 86.361876 247.338537 
L 87.158114 248.41733 
L 88.750589 251.011466 
L 89.546826 251.997542 
L 90.343064 252.545214 
L 91.139301 252.654 
L 93.528014 252.08942 
L 94.324251 252.273684 
L 95.120489 252.771863 
L 97.509202 254.83962 
L 98.305439 255.191204 
L 99.101677 255.232363 
L 99.897914 254.960006 
L 100.694152 254.375856 
L 101.490389 253.452122 
L 102.286627 252.133398 
L 103.082864 250.382645 
L 105.471577 243.843551 
L 106.267814 242.395367 
L 107.064052 242.042086 
L 107.860289 243.035055 
L 108.656527 245.321826 
L 111.04524 254.926782 
L 111.841477 256.797923 
L 112.637715 257.256571 
L 113.433952 256.365534 
L 114.23019 254.528929 
L 115.822665 250.441833 
L 116.618902 249.253768 
L 117.41514 248.979991 
L 118.211377 249.562034 
L 119.007615 250.772152 
L 122.988802 258.527673 
L 123.78504 259.64445 
L 124.581277 260.410851 
L 125.377515 260.737432 
L 126.173752 260.621503 
L 127.766228 259.777424 
L 128.562465 259.713605 
L 129.358703 260.34789 
L 130.15494 261.843056 
L 130.951178 264.10192 
L 132.543653 269.315165 
L 133.33989 271.226191 
L 134.136128 272.153001 
L 134.932365 272.042291 
L 135.728603 271.152084 
L 136.52484 269.961752 
L 137.321078 269.006597 
L 138.117315 268.697571 
L 138.913553 269.190402 
L 139.70979 270.347742 
L 141.302265 273.084488 
L 142.098503 273.783025 
L 142.89474 273.652186 
L 143.690978 272.666489 
L 144.487216 270.997216 
L 146.875928 264.929577 
L 147.672166 263.481665 
L 148.468403 262.607835 
L 149.264641 262.368399 
L 150.060878 262.761279 
L 150.857116 263.718794 
L 152.449591 266.666855 
L 153.245828 268.140648 
L 154.042066 269.213669 
L 154.838303 269.641421 
L 155.634541 269.313866 
L 156.430778 268.302913 
L 158.819491 264.177725 
L 159.615729 263.619513 
L 160.411966 263.789524 
L 161.208204 264.580726 
L 162.800679 266.78187 
L 163.596916 267.453027 
L 164.393154 267.483915 
L 165.189391 266.821107 
L 165.985629 265.590106 
L 168.374341 261.081506 
L 169.170579 260.045243 
L 169.966816 259.357597 
L 171.559291 258.619008 
L 173.151766 257.888848 
L 176.336717 255.777293 
L 177.132954 255.460563 
L 177.929192 255.316275 
L 178.725429 255.343532 
L 179.521667 255.531269 
L 180.317904 255.875038 
L 181.114142 256.386867 
L 181.910379 257.094802 
L 182.706617 258.030561 
L 183.502854 259.209991 
L 185.095329 262.177825 
L 186.687804 265.333891 
L 187.484042 266.672387 
L 188.280279 267.726948 
L 189.076517 268.480165 
L 189.872754 268.986771 
L 192.261467 270.15 
L 195.446417 272.366267 
L 196.242655 272.654083 
L 197.83513 272.967976 
L 198.631367 273.306921 
L 199.427605 273.981086 
L 200.223842 275.039254 
L 201.816317 277.734324 
L 202.612555 278.771545 
L 203.408792 279.16012 
L 204.20503 278.69813 
L 205.001267 277.383309 
L 206.593742 273.179031 
L 207.38998 271.054864 
L 208.186218 269.384675 
L 208.982455 268.345754 
L 209.778693 267.932531 
L 210.57493 267.991371 
L 212.963643 268.847345 
L 213.75988 268.877211 
L 214.556118 268.712363 
L 215.352355 268.365757 
L 216.148593 267.846252 
L 217.741068 266.351361 
L 219.333543 264.839075 
L 220.12978 264.541363 
L 220.926018 264.816835 
L 221.722255 265.736249 
L 223.31473 268.849749 
L 224.110968 270.318951 
L 224.907206 271.197989 
L 225.703443 271.272073 
L 226.499681 270.607432 
L 228.092156 268.662106 
L 228.888393 268.458925 
L 229.684631 269.291199 
L 230.480868 271.168236 
L 232.869581 278.595032 
L 233.665818 279.775167 
L 234.462056 279.84997 
L 235.258293 279.068052 
L 236.054531 277.953164 
L 236.850768 277.114046 
L 237.647006 277.03426 
L 238.443243 277.920661 
L 239.239481 279.661878 
L 241.628194 286.185449 
L 242.424431 287.670499 
L 243.220669 288.675155 
L 244.016906 289.353748 
L 245.609381 290.353378 
L 246.405619 290.731772 
L 247.201856 290.879887 
L 247.998094 290.643144 
L 248.794331 289.946884 
L 250.386806 287.589301 
L 251.183044 286.424706 
L 251.979281 285.632147 
L 252.775519 285.369685 
L 253.571756 285.643472 
L 254.367994 286.323584 
L 255.960469 288.080194 
L 256.756707 288.794286 
L 257.552944 289.255116 
L 258.349182 289.41052 
L 259.145419 289.21141 
L 259.941657 288.592063 
L 260.737894 287.486669 
L 261.534132 285.879 
L 264.719082 278.087183 
L 265.515319 277.357136 
L 266.311557 277.494473 
L 267.107794 278.326911 
L 268.700269 280.488842 
L 269.496507 280.975162 
L 270.292744 280.765073 
L 271.088982 279.957547 
L 272.681457 277.960796 
L 273.477695 277.561783 
L 274.273932 277.84269 
L 275.07017 278.702786 
L 276.662645 280.796133 
L 277.458882 281.266651 
L 278.25512 281.064399 
L 279.051357 280.24311 
L 281.44007 276.659917 
L 282.236307 275.858958 
L 285.421257 273.54356 
L 287.80997 270.722408 
L 288.606208 270.114274 
L 289.402445 269.84478 
L 290.198683 269.873735 
L 291.791158 270.373356 
L 293.383633 271.012208 
L 294.17987 271.515225 
L 294.976108 272.307158 
L 295.772345 273.453979 
L 298.161058 277.774655 
L 298.957295 278.604659 
L 299.753533 278.709859 
L 300.54977 278.043186 
L 301.346008 276.751125 
L 302.938483 273.569918 
L 303.73472 272.381771 
L 304.530958 271.771624 
L 305.327196 271.763253 
L 306.123433 272.217127 
L 307.715908 273.528512 
L 308.512146 273.934404 
L 309.308383 274.028684 
L 310.104621 273.849566 
L 311.697096 273.191271 
L 312.493333 272.987588 
L 313.289571 272.969938 
L 314.085808 273.129282 
L 318.066996 274.429423 
L 319.659471 274.50571 
L 320.455709 274.386917 
L 322.048184 273.842429 
L 322.844421 273.546361 
L 323.640659 273.412671 
L 324.436896 273.603397 
L 325.233134 274.232042 
L 326.029371 275.296043 
L 327.621846 277.945032 
L 328.418084 278.844117 
L 329.214321 278.994558 
L 330.010559 278.22255 
L 330.806796 276.601357 
L 332.399271 272.290801 
L 333.195509 270.628462 
L 333.991746 269.864808 
L 334.787984 270.140465 
L 335.584221 271.306585 
L 337.176697 274.706994 
L 337.972934 276.058175 
L 338.769172 276.805396 
L 339.565409 276.930229 
L 340.361647 276.582372 
L 341.954122 275.284666 
L 343.546597 273.830442 
L 345.935309 271.297833 
L 346.731547 270.798219 
L 347.527784 270.844994 
L 348.324022 271.534379 
L 349.916497 273.976017 
L 350.712734 274.726606 
L 351.508972 274.408932 
L 352.30521 272.716135 
L 353.101447 269.763075 
L 354.693922 262.692588 
L 355.49016 260.442362 
L 356.286397 260.0946 
L 357.082635 261.878573 
L 357.878872 265.428218 
L 359.471347 274.070882 
L 360.267585 276.968138 
L 361.063822 277.86461 
L 361.86006 276.604764 
L 362.656297 273.580112 
L 364.248772 265.540986 
L 365.04501 262.309691 
L 365.841247 260.446405 
L 366.637485 260.157815 
L 367.433722 261.325262 
L 368.22996 263.601151 
L 370.618673 272.402224 
L 371.41491 274.537376 
L 372.211148 275.738738 
L 373.007385 275.877568 
L 373.803623 275.012813 
L 374.59986 273.415661 
L 375.396098 271.546043 
L 376.192335 269.964482 
L 376.988573 269.189272 
L 377.78481 269.53803 
L 378.581048 271.009192 
L 380.96976 277.551303 
L 381.765998 278.363902 
L 382.562235 277.872716 
L 383.358473 276.244 
L 384.950948 271.747899 
L 385.747186 270.139626 
L 386.543423 269.480268 
L 387.339661 269.723168 
L 388.932136 271.20974 
L 389.728373 271.363487 
L 390.524611 270.643865 
L 391.320848 269.071345 
L 392.913323 264.836382 
L 393.709561 263.1627 
L 394.505798 262.266586 
L 395.302036 262.20391 
L 396.098273 262.780935 
L 397.690748 264.479915 
L 398.486986 265.024869 
L 399.283223 265.242813 
L 401.671936 265.323583 
L 404.060649 266.0306 
L 404.856886 265.801269 
L 405.653124 265.080942 
L 406.449361 263.911204 
L 408.041836 261.129575 
L 408.838074 260.112537 
L 409.634311 259.629799 
L 410.430549 259.695893 
L 412.819261 261.088184 
L 413.615499 261.047945 
L 413.615499 261.047945 
" clip-path="url(#p35845099c4)" style="fill: none; stroke: #377eb8; stroke-width: 1.5; stroke-linecap: square"/>
   </g>
   <g id="line2d_17">
    <path d="M 87.158114 318.2 
L 87.158114 71.241125 
" clip-path="url(#p35845099c4)" style="fill: none; stroke: #000000; stroke-width: 0.5; stroke-linecap: square"/>
   </g>
   <g id="line2d_18">
    <path d="M 46.55 246.752486 
L 413.615499 246.752486 
" clip-path="url(#p35845099c4)" style="fill: none; stroke: #000000; stroke-width: 0.5; stroke-linecap: square"/>
   </g>
   <g id="patch_4">
    <path d="M 46.55 318.2 
L 46.55 71.241125 
" style="fill: none; stroke: #000000; stroke-width: 0.8; stroke-linejoin: miter; stroke-linecap: square"/>
   </g>
   <g id="patch_5">
    <path d="M 413.615499 318.2 
L 413.615499 71.241125 
" style="fill: none; stroke: #000000; stroke-width: 0.8; stroke-linejoin: miter; stroke-linecap: square"/>
   </g>
   <g id="patch_6">
    <path d="M 46.55 318.2 
L 413.615499 318.2 
" style="fill: none; stroke: #000000; stroke-width: 0.8; stroke-linejoin: miter; stroke-linecap: square"/>
   </g>
   <g id="patch_7">
    <path d="M 46.55 71.241125 
L 413.615499 71.241125 
" style="fill: none; stroke: #000000; stroke-width: 0.8; stroke-linejoin: miter; stroke-linecap: square"/>
   </g>
   <g id="text_17">
    <!-- Cz -->
    <g transform="translate(222.743999 65.241125)scale(0.12 -0.12)">
     <defs>
      <path id="DejaVuSans-43" d="M 4122 4306 
L 4122 3641 
Q 3803 3938 3442 4084 
Q 3081 4231 2675 4231 
Q 1875 4231 1450 3742 
Q 1025 3253 1025 2328 
Q 1025 1406 1450 917 
Q 1875 428 2675 428 
Q 3081 428 3442 575 
Q 3803 722 4122 1019 
L 4122 359 
Q 3791 134 3420 21 
Q 3050 -91 2638 -91 
Q 1578 -91 968 557 
Q 359 1206 359 2328 
Q 359 3453 968 4101 
Q 1578 4750 2638 4750 
Q 3056 4750 3426 4639 
Q 3797 4528 4122 4306 
z
" transform="scale(0.015625)"/>
      <path id="DejaVuSans-7a" d="M 353 3500 
L 3084 3500 
L 3084 2975 
L 922 459 
L 3084 459 
L 3084 0 
L 275 0 
L 275 525 
L 2438 3041 
L 353 3041 
L 353 3500 
z
" transform="scale(0.015625)"/>
     </defs>
     <use xlink:href="#DejaVuSans-43"/>
     <use xlink:href="#DejaVuSans-7a" x="69.824219"/>
    </g>
   </g>
   <g id="legend_1">
    <g id="patch_8">
     <path d="M 99.855406 48.044893 
L 360.310093 48.044893 
Q 362.310093 48.044893 362.310093 46.044893 
L 362.310093 17.410517 
Q 362.310093 15.410517 360.310093 15.410517 
L 99.855406 15.410517 
Q 97.855406 15.410517 97.855406 17.410517 
L 97.855406 46.044893 
Q 97.855406 48.044893 99.855406 48.044893 
z
" style="fill: #ffffff; opacity: 0.8; stroke: #cccccc; stroke-linejoin: miter"/>
    </g>
    <g id="text_18">
     <!-- Average of Session 18_tac4 -->
     <g transform="translate(161.068687 27.008955)scale(0.1 -0.1)">
      <defs>
       <path id="DejaVuSans-41" d="M 2188 4044 
L 1331 1722 
L 3047 1722 
L 2188 4044 
z
M 1831 4666 
L 2547 4666 
L 4325 0 
L 3669 0 
L 3244 1197 
L 1141 1197 
L 716 0 
L 50 0 
L 1831 4666 
z
" transform="scale(0.015625)"/>
       <path id="DejaVuSans-76" d="M 191 3500 
L 800 3500 
L 1894 563 
L 2988 3500 
L 3597 3500 
L 2284 0 
L 1503 0 
L 191 3500 
z
" transform="scale(0.015625)"/>
       <path id="DejaVuSans-72" d="M 2631 2963 
Q 2534 3019 2420 3045 
Q 2306 3072 2169 3072 
Q 1681 3072 1420 2755 
Q 1159 2438 1159 1844 
L 1159 0 
L 581 0 
L 581 3500 
L 1159 3500 
L 1159 2956 
Q 1341 3275 1631 3429 
Q 1922 3584 2338 3584 
Q 2397 3584 2469 3576 
Q 2541 3569 2628 3553 
L 2631 2963 
z
" transform="scale(0.015625)"/>
       <path id="DejaVuSans-61" d="M 2194 1759 
Q 1497 1759 1228 1600 
Q 959 1441 959 1056 
Q 959 750 1161 570 
Q 1363 391 1709 391 
Q 2188 391 2477 730 
Q 2766 1069 2766 1631 
L 2766 1759 
L 2194 1759 
z
M 3341 1997 
L 3341 0 
L 2766 0 
L 2766 531 
Q 2569 213 2275 61 
Q 1981 -91 1556 -91 
Q 1019 -91 701 211 
Q 384 513 384 1019 
Q 384 1609 779 1909 
Q 1175 2209 1959 2209 
L 2766 2209 
L 2766 2266 
Q 2766 2663 2505 2880 
Q 2244 3097 1772 3097 
Q 1472 3097 1187 3025 
Q 903 2953 641 2809 
L 641 3341 
Q 956 3463 1253 3523 
Q 1550 3584 1831 3584 
Q 2591 3584 2966 3190 
Q 3341 2797 3341 1997 
z
" transform="scale(0.015625)"/>
       <path id="DejaVuSans-67" d="M 2906 1791 
Q 2906 2416 2648 2759 
Q 2391 3103 1925 3103 
Q 1463 3103 1205 2759 
Q 947 2416 947 1791 
Q 947 1169 1205 825 
Q 1463 481 1925 481 
Q 2391 481 2648 825 
Q 2906 1169 2906 1791 
z
M 3481 434 
Q 3481 -459 3084 -895 
Q 2688 -1331 1869 -1331 
Q 1566 -1331 1297 -1286 
Q 1028 -1241 775 -1147 
L 775 -588 
Q 1028 -725 1275 -790 
Q 1522 -856 1778 -856 
Q 2344 -856 2625 -561 
Q 2906 -266 2906 331 
L 2906 616 
Q 2728 306 2450 153 
Q 2172 0 1784 0 
Q 1141 0 747 490 
Q 353 981 353 1791 
Q 353 2603 747 3093 
Q 1141 3584 1784 3584 
Q 2172 3584 2450 3431 
Q 2728 3278 2906 2969 
L 2906 3500 
L 3481 3500 
L 3481 434 
z
" transform="scale(0.015625)"/>
       <path id="DejaVuSans-20" transform="scale(0.015625)"/>
       <path id="DejaVuSans-66" d="M 2375 4863 
L 2375 4384 
L 1825 4384 
Q 1516 4384 1395 4259 
Q 1275 4134 1275 3809 
L 1275 3500 
L 2222 3500 
L 2222 3053 
L 1275 3053 
L 1275 0 
L 697 0 
L 697 3053 
L 147 3053 
L 147 3500 
L 697 3500 
L 697 3744 
Q 697 4328 969 4595 
Q 1241 4863 1831 4863 
L 2375 4863 
z
" transform="scale(0.015625)"/>
       <path id="DejaVuSans-53" d="M 3425 4513 
L 3425 3897 
Q 3066 4069 2747 4153 
Q 2428 4238 2131 4238 
Q 1616 4238 1336 4038 
Q 1056 3838 1056 3469 
Q 1056 3159 1242 3001 
Q 1428 2844 1947 2747 
L 2328 2669 
Q 3034 2534 3370 2195 
Q 3706 1856 3706 1288 
Q 3706 609 3251 259 
Q 2797 -91 1919 -91 
Q 1588 -91 1214 -16 
Q 841 59 441 206 
L 441 856 
Q 825 641 1194 531 
Q 1563 422 1919 422 
Q 2459 422 2753 634 
Q 3047 847 3047 1241 
Q 3047 1584 2836 1778 
Q 2625 1972 2144 2069 
L 1759 2144 
Q 1053 2284 737 2584 
Q 422 2884 422 3419 
Q 422 4038 858 4394 
Q 1294 4750 2059 4750 
Q 2388 4750 2728 4690 
Q 3069 4631 3425 4513 
z
" transform="scale(0.015625)"/>
       <path id="DejaVuSans-69" d="M 603 3500 
L 1178 3500 
L 1178 0 
L 603 0 
L 603 3500 
z
M 603 4863 
L 1178 4863 
L 1178 4134 
L 603 4134 
L 603 4863 
z
" transform="scale(0.015625)"/>
       <path id="DejaVuSans-5f" d="M 3263 -1063 
L 3263 -1509 
L -63 -1509 
L -63 -1063 
L 3263 -1063 
z
" transform="scale(0.015625)"/>
       <path id="DejaVuSans-74" d="M 1172 4494 
L 1172 3500 
L 2356 3500 
L 2356 3053 
L 1172 3053 
L 1172 1153 
Q 1172 725 1289 603 
Q 1406 481 1766 481 
L 2356 481 
L 2356 0 
L 1766 0 
Q 1100 0 847 248 
Q 594 497 594 1153 
L 594 3053 
L 172 3053 
L 172 3500 
L 594 3500 
L 594 4494 
L 1172 4494 
z
" transform="scale(0.015625)"/>
      </defs>
      <use xlink:href="#DejaVuSans-41"/>
      <use xlink:href="#DejaVuSans-76" x="62.533203"/>
      <use xlink:href="#DejaVuSans-65" x="121.712891"/>
      <use xlink:href="#DejaVuSans-72" x="183.236328"/>
      <use xlink:href="#DejaVuSans-61" x="224.349609"/>
      <use xlink:href="#DejaVuSans-67" x="285.628906"/>
      <use xlink:href="#DejaVuSans-65" x="349.105469"/>
      <use xlink:href="#DejaVuSans-20" x="410.628906"/>
      <use xlink:href="#DejaVuSans-6f" x="442.416016"/>
      <use xlink:href="#DejaVuSans-66" x="503.597656"/>
      <use xlink:href="#DejaVuSans-20" x="538.802734"/>
      <use xlink:href="#DejaVuSans-53" x="570.589844"/>
      <use xlink:href="#DejaVuSans-65" x="634.066406"/>
      <use xlink:href="#DejaVuSans-73" x="695.589844"/>
      <use xlink:href="#DejaVuSans-73" x="747.689453"/>
      <use xlink:href="#DejaVuSans-69" x="799.789062"/>
      <use xlink:href="#DejaVuSans-6f" x="827.572266"/>
      <use xlink:href="#DejaVuSans-6e" x="888.753906"/>
      <use xlink:href="#DejaVuSans-20" x="952.132812"/>
      <use xlink:href="#DejaVuSans-31" x="983.919922"/>
      <use xlink:href="#DejaVuSans-38" x="1047.542969"/>
      <use xlink:href="#DejaVuSans-5f" x="1111.166016"/>
      <use xlink:href="#DejaVuSans-74" x="1161.166016"/>
      <use xlink:href="#DejaVuSans-61" x="1200.375"/>
      <use xlink:href="#DejaVuSans-63" x="1261.654297"/>
      <use xlink:href="#DejaVuSans-34" x="1316.634766"/>
     </g>
    </g>
    <g id="line2d_19">
     <path d="M 101.855406 38.465205 
L 111.855406 38.465205 
L 121.855406 38.465205 
" style="fill: none; stroke: #e41a1c; stroke-width: 1.5; stroke-linecap: square"/>
    </g>
    <g id="text_19">
     <!-- Target (n=416) -->
     <g transform="translate(129.855406 41.965205)scale(0.1 -0.1)">
      <defs>
       <path id="DejaVuSans-54" d="M -19 4666 
L 3928 4666 
L 3928 4134 
L 2272 4134 
L 2272 0 
L 1638 0 
L 1638 4134 
L -19 4134 
L -19 4666 
z
" transform="scale(0.015625)"/>
       <path id="DejaVuSans-28" d="M 1984 4856 
Q 1566 4138 1362 3434 
Q 1159 2731 1159 2009 
Q 1159 1288 1364 580 
Q 1569 -128 1984 -844 
L 1484 -844 
Q 1016 -109 783 600 
Q 550 1309 550 2009 
Q 550 2706 781 3412 
Q 1013 4119 1484 4856 
L 1984 4856 
z
" transform="scale(0.015625)"/>
       <path id="DejaVuSans-3d" d="M 678 2906 
L 4684 2906 
L 4684 2381 
L 678 2381 
L 678 2906 
z
M 678 1631 
L 4684 1631 
L 4684 1100 
L 678 1100 
L 678 1631 
z
" transform="scale(0.015625)"/>
       <path id="DejaVuSans-29" d="M 513 4856 
L 1013 4856 
Q 1481 4119 1714 3412 
Q 1947 2706 1947 2009 
Q 1947 1309 1714 600 
Q 1481 -109 1013 -844 
L 513 -844 
Q 928 -128 1133 580 
Q 1338 1288 1338 2009 
Q 1338 2731 1133 3434 
Q 928 4138 513 4856 
z
" transform="scale(0.015625)"/>
      </defs>
      <use xlink:href="#DejaVuSans-54"/>
      <use xlink:href="#DejaVuSans-61" x="44.583984"/>
      <use xlink:href="#DejaVuSans-72" x="105.863281"/>
      <use xlink:href="#DejaVuSans-67" x="145.226562"/>
      <use xlink:href="#DejaVuSans-65" x="208.703125"/>
      <use xlink:href="#DejaVuSans-74" x="270.226562"/>
      <use xlink:href="#DejaVuSans-20" x="309.435547"/>
      <use xlink:href="#DejaVuSans-28" x="341.222656"/>
      <use xlink:href="#DejaVuSans-6e" x="380.236328"/>
      <use xlink:href="#DejaVuSans-3d" x="443.615234"/>
      <use xlink:href="#DejaVuSans-34" x="527.404297"/>
      <use xlink:href="#DejaVuSans-31" x="591.027344"/>
      <use xlink:href="#DejaVuSans-36" x="654.650391"/>
      <use xlink:href="#DejaVuSans-29" x="718.273438"/>
     </g>
    </g>
    <g id="line2d_20">
     <path d="M 225.585093 38.465205 
L 235.585093 38.465205 
L 245.585093 38.465205 
" style="fill: none; stroke: #377eb8; stroke-width: 1.5; stroke-linecap: square"/>
    </g>
    <g id="text_20">
     <!-- Non-Target (n=1226) -->
     <g transform="translate(253.585093 41.965205)scale(0.1 -0.1)">
      <defs>
       <path id="DejaVuSans-4e" d="M 628 4666 
L 1478 4666 
L 3547 763 
L 3547 4666 
L 4159 4666 
L 4159 0 
L 3309 0 
L 1241 3903 
L 1241 0 
L 628 0 
L 628 4666 
z
" transform="scale(0.015625)"/>
       <path id="DejaVuSans-2d" d="M 313 2009 
L 1997 2009 
L 1997 1497 
L 313 1497 
L 313 2009 
z
" transform="scale(0.015625)"/>
      </defs>
      <use xlink:href="#DejaVuSans-4e"/>
      <use xlink:href="#DejaVuSans-6f" x="74.804688"/>
      <use xlink:href="#DejaVuSans-6e" x="135.986328"/>
      <use xlink:href="#DejaVuSans-2d" x="199.365234"/>
      <use xlink:href="#DejaVuSans-54" x="226.324219"/>
      <use xlink:href="#DejaVuSans-61" x="270.908203"/>
      <use xlink:href="#DejaVuSans-72" x="332.1875"/>
      <use xlink:href="#DejaVuSans-67" x="371.550781"/>
      <use xlink:href="#DejaVuSans-65" x="435.027344"/>
      <use xlink:href="#DejaVuSans-74" x="496.550781"/>
      <use xlink:href="#DejaVuSans-20" x="535.759766"/>
      <use xlink:href="#DejaVuSans-28" x="567.546875"/>
      <use xlink:href="#DejaVuSans-6e" x="606.560547"/>
      <use xlink:href="#DejaVuSans-3d" x="669.939453"/>
      <use xlink:href="#DejaVuSans-31" x="753.728516"/>
      <use xlink:href="#DejaVuSans-32" x="817.351562"/>
      <use xlink:href="#DejaVuSans-32" x="880.974609"/>
      <use xlink:href="#DejaVuSans-36" x="944.597656"/>
      <use xlink:href="#DejaVuSans-29" x="1008.220703"/>
     </g>
    </g>
   </g>
  </g>
 </g>
 <defs>
  <clipPath id="p35845099c4">
   <rect x="46.55" y="71.241125" width="367.065499" height="246.958875"/>
  </clipPath>
 </defs>
</svg>
