<?xml version="1.0" encoding="utf-8" standalone="no"?>
<!DOCTYPE svg PUBLIC "-//W3C//DTD SVG 1.1//EN"
  "http://www.w3.org/Graphics/SVG/1.1/DTD/svg11.dtd">
<svg xmlns:xlink="http://www.w3.org/1999/xlink" width="432pt" height="360pt" viewBox="0 0 432 360" xmlns="http://www.w3.org/2000/svg" version="1.1">
 <metadata>
  <rdf:RDF xmlns:dc="http://purl.org/dc/elements/1.1/" xmlns:cc="http://creativecommons.org/ns#" xmlns:rdf="http://www.w3.org/1999/02/22-rdf-syntax-ns#">
   <cc:Work>
    <dc:type rdf:resource="http://purl.org/dc/dcmitype/StillImage"/>
    <dc:date>2022-11-02T16:57:12.088653</dc:date>
    <dc:format>image/svg+xml</dc:format>
    <dc:creator>
     <cc:Agent>
      <dc:title>Matplotlib v3.5.1, https://matplotlib.org/</dc:title>
     </cc:Agent>
    </dc:creator>
   </cc:Work>
  </rdf:RDF>
 </metadata>
 <defs>
  <style type="text/css">*{stroke-linejoin: round; stroke-linecap: butt}</style>
 </defs>
 <g id="figure_1">
  <g id="patch_1">
   <path d="M 0 360 
L 432 360 
L 432 0 
L 0 0 
L 0 360 
z
" style="fill: none"/>
  </g>
  <g id="axes_1">
   <g id="patch_2">
    <path d="M 46.55 318.2 
L 413.615499 318.2 
L 413.615499 71.241125 
L 46.55 71.241125 
L 46.55 318.2 
z
" style="fill: none"/>
   </g>
   <g id="PolyCollection_1">
    <defs>
     <path id="me773d11af9" d="M 46.55 -121.902262 
L 46.55 -89.697226 
L 47.346238 -90.534479 
L 48.142475 -91.968821 
L 48.938713 -93.701302 
L 49.73495 -95.306049 
L 50.531188 -96.408136 
L 51.327425 -96.830641 
L 52.123663 -96.644374 
L 52.9199 -96.129283 
L 53.716138 -95.688348 
L 54.512375 -95.73509 
L 55.308613 -96.560197 
L 56.10485 -98.203336 
L 56.901088 -100.395334 
L 57.697325 -102.617135 
L 58.493563 -104.254 
L 59.2898 -104.784761 
L 60.086038 -103.959785 
L 60.882275 -101.927974 
L 61.678513 -99.244174 
L 62.47475 -96.687545 
L 63.270988 -94.946162 
L 64.067226 -94.349185 
L 64.863463 -94.796323 
L 65.659701 -95.892886 
L 66.455938 -97.156683 
L 67.252176 -98.157257 
L 68.048413 -98.581697 
L 68.844651 -98.291702 
L 69.640888 -97.378434 
L 70.437126 -96.172029 
L 71.233363 -95.17077 
L 72.029601 -94.899151 
L 72.825838 -95.744644 
L 73.622076 -97.828643 
L 74.418313 -100.940901 
L 75.214551 -104.552822 
L 76.010788 -107.924161 
L 76.807026 -110.302608 
L 77.603263 -111.164163 
L 78.399501 -110.382656 
L 79.195739 -108.238572 
L 79.991976 -105.290106 
L 80.788214 -102.202075 
L 81.584451 -99.604992 
L 82.380689 -97.989997 
L 83.176926 -97.608013 
L 83.973164 -98.381958 
L 84.769401 -99.90342 
L 85.565639 -101.561602 
L 86.361876 -102.750402 
L 87.158114 -103.045522 
L 87.954351 -102.293711 
L 88.750589 -100.640508 
L 89.546826 -98.52919 
L 90.343064 -96.637039 
L 91.139301 -95.6911 
L 91.935539 -96.20044 
L 92.731776 -98.243674 
L 93.528014 -101.431906 
L 94.324251 -105.048131 
L 95.120489 -108.26057 
L 95.916727 -110.315033 
L 96.712964 -110.694907 
L 97.509202 -109.266499 
L 98.305439 -106.37028 
L 99.101677 -102.785314 
L 99.897914 -99.525182 
L 100.694152 -97.526025 
L 101.490389 -97.353644 
L 102.286627 -99.039344 
L 103.082864 -102.088506 
L 103.879102 -105.644727 
L 104.675339 -108.749105 
L 105.471577 -110.609879 
L 106.267814 -110.797907 
L 107.064052 -109.320363 
L 107.860289 -106.572602 
L 108.656527 -103.192599 
L 109.452764 -99.849558 
L 110.249002 -97.028601 
L 111.04524 -94.898102 
L 111.841477 -93.332068 
L 112.637715 -92.067968 
L 113.433952 -90.904768 
L 114.23019 -89.829053 
L 115.026427 -89.020699 
L 115.822665 -88.769512 
L 116.618902 -89.355452 
L 117.41514 -90.922486 
L 118.211377 -93.373007 
L 119.007615 -96.341626 
L 119.803852 -99.300434 
L 120.60009 -101.769938 
L 121.396327 -103.512431 
L 122.192565 -104.58395 
L 122.988802 -105.248403 
L 123.78504 -105.86026 
L 124.581277 -106.786712 
L 125.377515 -108.342464 
L 126.173752 -110.694106 
L 126.96999 -113.76119 
L 127.766228 -117.202103 
L 128.562465 -120.519673 
L 129.358703 -123.225964 
L 130.15494 -124.967533 
L 130.951178 -125.58109 
L 131.747415 -125.117364 
L 132.543653 -123.855107 
L 133.33989 -122.262333 
L 134.136128 -120.869104 
L 134.932365 -120.097748 
L 135.728603 -120.141534 
L 136.52484 -120.934307 
L 137.321078 -122.175677 
L 138.117315 -123.367924 
L 138.913553 -123.893409 
L 139.70979 -123.181072 
L 140.506028 -120.93547 
L 141.302265 -117.30329 
L 142.098503 -112.866081 
L 142.89474 -108.460794 
L 143.690978 -104.939705 
L 144.487216 -102.957145 
L 145.283453 -102.813911 
L 146.079691 -104.36489 
L 146.875928 -107.02591 
L 147.672166 -109.92672 
L 148.468403 -112.191507 
L 149.264641 -113.240558 
L 150.060878 -112.97792 
L 150.857116 -111.793861 
L 151.653353 -110.404566 
L 152.449591 -109.605635 
L 153.245828 -110.019187 
L 154.042066 -111.896543 
L 154.838303 -115.021841 
L 155.634541 -118.753425 
L 156.430778 -122.205043 
L 157.227016 -124.525435 
L 158.023253 -125.187275 
L 158.819491 -124.1808 
L 159.615729 -122.035539 
L 160.411966 -119.658288 
L 161.208204 -118.043103 
L 162.004441 -117.955205 
L 162.800679 -119.698013 
L 163.596916 -123.045154 
L 164.393154 -127.350752 
L 165.189391 -131.77529 
L 165.985629 -135.531154 
L 166.781866 -138.080303 
L 167.578104 -139.25443 
L 168.374341 -139.286508 
L 169.170579 -138.727827 
L 169.966816 -138.254853 
L 170.763054 -138.426685 
L 171.559291 -139.501178 
L 172.355529 -141.388999 
L 173.151766 -143.740177 
L 173.948004 -146.095168 
L 174.744241 -148.030518 
L 175.540479 -149.264476 
L 176.336717 -149.708053 
L 177.132954 -149.453818 
L 177.929192 -148.707871 
L 178.725429 -147.699431 
L 179.521667 -146.617188 
L 180.317904 -145.598044 
L 181.114142 -144.752203 
L 181.910379 -144.195445 
L 182.706617 -144.064447 
L 183.502854 -144.503891 
L 184.299092 -145.616258 
L 185.095329 -147.379885 
L 185.891567 -149.578056 
L 186.687804 -151.805339 
L 187.484042 -153.578422 
L 188.280279 -154.511034 
L 189.076517 -154.462337 
L 189.872754 -153.598472 
L 190.668992 -152.363213 
L 191.46523 -151.376729 
L 192.261467 -151.273808 
L 193.057705 -152.505447 
L 193.853942 -155.17824 
L 194.65018 -159.012269 
L 195.446417 -163.438883 
L 196.242655 -167.769464 
L 197.038892 -171.349104 
L 197.83513 -173.669857 
L 198.631367 -174.465312 
L 199.427605 -173.785504 
L 200.223842 -171.989098 
L 201.02008 -169.615013 
L 201.816317 -167.191508 
L 202.612555 -165.104092 
L 203.408792 -163.570262 
L 204.20503 -162.676354 
L 205.001267 -162.41198 
L 205.797505 -162.681225 
L 206.593742 -163.30685 
L 207.38998 -164.044686 
L 208.186218 -164.617834 
L 208.982455 -164.77815 
L 209.778693 -164.390528 
L 210.57493 -163.504483 
L 211.371168 -162.360588 
L 212.167405 -161.315785 
L 212.963643 -160.726618 
L 213.75988 -160.832885 
L 214.556118 -161.655633 
L 215.352355 -162.928298 
L 216.148593 -164.118383 
L 216.94483 -164.595486 
L 217.741068 -163.912094 
L 218.537305 -162.038829 
L 219.333543 -159.390356 
L 220.12978 -156.645607 
L 220.926018 -154.509355 
L 221.722255 -153.526115 
L 222.518493 -153.958657 
L 223.31473 -155.706697 
L 224.110968 -158.280414 
L 224.907206 -160.884973 
L 225.703443 -162.642384 
L 226.499681 -162.887427 
L 227.295918 -161.410975 
L 228.092156 -158.537717 
L 228.888393 -155.009343 
L 229.684631 -151.732388 
L 230.480868 -149.49251 
L 231.277106 -148.735417 
L 232.073343 -149.475887 
L 232.869581 -151.337897 
L 233.665818 -153.685297 
L 234.462056 -155.805507 
L 235.258293 -157.117818 
L 236.054531 -157.35778 
L 236.850768 -156.667157 
L 237.647006 -155.541347 
L 238.443243 -154.644702 
L 239.239481 -154.566176 
L 240.035719 -155.606549 
L 240.831956 -157.677928 
L 241.628194 -160.357633 
L 242.424431 -163.074169 
L 243.220669 -165.334462 
L 244.016906 -166.879946 
L 244.813144 -167.714106 
L 245.609381 -168.030437 
L 246.405619 -168.107553 
L 247.201856 -168.214994 
L 247.998094 -168.531558 
L 248.794331 -169.080377 
L 249.590569 -169.719172 
L 250.386806 -170.217253 
L 251.183044 -170.383212 
L 251.979281 -170.161447 
L 252.775519 -169.631182 
L 253.571756 -168.921396 
L 254.367994 -168.116426 
L 255.164231 -167.218648 
L 255.960469 -166.175028 
L 256.756707 -164.930558 
L 257.552944 -163.477441 
L 258.349182 -161.896191 
L 259.145419 -160.38177 
L 259.941657 -159.230087 
L 260.737894 -158.755796 
L 261.534132 -159.149979 
L 262.330369 -160.351004 
L 263.126607 -162.024742 
L 263.922844 -163.697387 
L 264.719082 -164.984043 
L 265.515319 -165.784573 
L 266.311557 -166.333554 
L 267.107794 -167.082607 
L 267.904032 -168.489833 
L 268.700269 -170.829473 
L 269.496507 -174.104385 
L 270.292744 -178.069747 
L 271.088982 -182.317975 
L 271.88522 -186.386274 
L 272.681457 -189.879918 
L 273.477695 -192.592428 
L 274.273932 -194.567745 
L 275.07017 -196.050267 
L 275.866407 -197.326259 
L 276.662645 -198.547622 
L 277.458882 -199.658145 
L 278.25512 -200.469286 
L 279.051357 -200.812741 
L 279.847595 -200.652908 
L 280.643832 -200.107563 
L 281.44007 -199.397926 
L 282.236307 -198.763087 
L 283.032545 -198.369673 
L 283.828782 -198.248029 
L 284.62502 -198.297159 
L 285.421257 -198.369037 
L 286.217495 -198.391455 
L 287.013732 -198.458254 
L 287.80997 -198.834553 
L 288.606208 -199.871838 
L 289.402445 -201.855967 
L 290.198683 -204.854699 
L 290.99492 -208.618626 
L 291.791158 -212.587454 
L 292.587395 -216.013176 
L 293.383633 -218.172139 
L 294.17987 -218.608241 
L 294.976108 -217.327479 
L 295.772345 -214.857524 
L 296.568583 -212.119796 
L 297.36482 -210.130633 
L 298.161058 -209.635885 
L 298.957295 -210.829274 
L 299.753533 -213.268647 
L 300.54977 -216.011622 
L 301.346008 -217.915433 
L 302.142245 -218.015924 
L 302.938483 -215.880183 
L 303.73472 -211.801119 
L 304.530958 -206.729813 
L 305.327196 -201.948724 
L 306.123433 -198.632456 
L 306.919671 -197.491639 
L 307.715908 -198.615043 
L 308.512146 -201.491728 
L 309.308383 -205.166181 
L 310.104621 -208.491731 
L 310.900858 -210.455038 
L 311.697096 -210.483312 
L 312.493333 -208.605308 
L 313.289571 -205.385816 
L 314.085808 -201.679759 
L 314.882046 -198.343303 
L 315.678283 -196.023906 
L 316.474521 -195.060718 
L 317.270758 -195.469843 
L 318.066996 -196.988752 
L 318.863233 -199.170505 
L 319.659471 -201.506815 
L 320.455709 -203.542791 
L 321.251946 -204.960366 
L 322.048184 -205.628857 
L 322.844421 -205.624079 
L 323.640659 -205.195071 
L 324.436896 -204.661966 
L 325.233134 -204.274537 
L 326.029371 -204.097526 
L 326.825609 -203.970095 
L 327.621846 -203.544991 
L 328.418084 -202.383527 
L 329.214321 -200.093573 
L 330.010559 -196.494829 
L 330.806796 -191.763275 
L 331.603034 -186.475581 
L 332.399271 -181.495942 
L 333.195509 -177.727229 
L 333.991746 -175.827338 
L 334.787984 -175.991009 
L 335.584221 -177.868802 
L 336.380459 -180.6461 
L 337.176697 -183.268569 
L 337.972934 -184.756786 
L 338.769172 -184.509482 
L 339.565409 -182.487334 
L 340.361647 -179.211913 
L 341.157884 -175.589316 
L 341.954122 -172.619417 
L 342.750359 -171.079067 
L 343.546597 -171.278583 
L 344.342834 -172.979527 
L 345.139072 -175.50636 
L 345.935309 -177.995739 
L 346.731547 -179.66896 
L 347.527784 -180.035952 
L 348.324022 -178.995002 
L 349.120259 -176.828513 
L 349.916497 -174.095061 
L 350.712734 -171.433179 
L 351.508972 -169.340784 
L 352.30521 -168.028539 
L 353.101447 -167.408619 
L 353.897685 -167.196435 
L 354.693922 -167.040781 
L 355.49016 -166.62286 
L 356.286397 -165.72572 
L 357.082635 -164.293164 
L 357.878872 -162.465478 
L 358.67511 -160.558487 
L 359.471347 -158.975033 
L 360.267585 -158.088007 
L 361.063822 -158.146489 
L 361.86006 -159.234843 
L 362.656297 -161.276666 
L 363.452535 -164.062128 
L 364.248772 -167.289181 
L 365.04501 -170.618887 
L 365.841247 -173.734905 
L 366.637485 -176.393404 
L 367.433722 -178.447604 
L 368.22996 -179.841629 
L 369.026198 -180.575894 
L 369.822435 -180.657341 
L 370.618673 -180.060297 
L 371.41491 -178.727851 
L 372.211148 -176.614679 
L 373.007385 -173.748004 
L 373.803623 -170.271381 
L 374.59986 -166.451676 
L 375.396098 -162.648532 
L 376.192335 -159.250706 
L 376.988573 -156.582888 
L 377.78481 -154.804323 
L 378.581048 -153.842427 
L 379.377285 -153.412355 
L 380.173523 -153.123591 
L 380.96976 -152.62279 
L 381.765998 -151.707413 
L 382.562235 -150.377251 
L 383.358473 -148.828772 
L 384.15471 -147.413702 
L 384.950948 -146.563122 
L 385.747186 -146.682045 
L 386.543423 -148.023832 
L 387.339661 -150.58577 
L 388.135898 -154.073749 
L 388.932136 -157.955964 
L 389.728373 -161.586753 
L 390.524611 -164.358827 
L 391.320848 -165.836569 
L 392.117086 -165.83908 
L 392.913323 -164.46058 
L 393.709561 -162.033193 
L 394.505798 -159.04465 
L 395.302036 -156.026453 
L 396.098273 -153.434553 
L 396.894511 -151.559837 
L 397.690748 -150.493837 
L 398.486986 -150.169966 
L 399.283223 -150.447305 
L 400.079461 -151.193089 
L 400.875699 -152.32586 
L 401.671936 -153.80827 
L 402.468174 -155.602836 
L 403.264411 -157.613262 
L 404.060649 -159.635691 
L 404.856886 -161.339973 
L 405.653124 -162.306034 
L 406.449361 -162.124248 
L 407.245599 -160.540577 
L 408.041836 -157.594856 
L 408.838074 -153.685308 
L 409.634311 -149.50993 
L 410.430549 -145.880069 
L 411.226786 -143.468257 
L 412.023024 -142.587367 
L 412.819261 -143.094876 
L 413.615499 -144.458967 
L 413.615499 -213.812176 
L 413.615499 -213.812176 
L 412.819261 -212.180766 
L 412.023024 -211.649074 
L 411.226786 -212.693575 
L 410.430549 -215.339582 
L 409.634311 -219.168872 
L 408.838074 -223.452125 
L 408.041836 -227.354308 
L 407.245599 -230.15233 
L 406.449361 -231.411077 
L 405.653124 -231.068816 
L 404.856886 -229.410766 
L 404.060649 -226.94279 
L 403.264411 -224.214872 
L 402.468174 -221.66269 
L 401.671936 -219.526009 
L 400.875699 -217.866739 
L 400.079461 -216.657806 
L 399.283223 -215.885491 
L 398.486986 -215.606351 
L 397.690748 -215.935346 
L 396.894511 -216.982402 
L 396.098273 -218.775624 
L 395.302036 -221.203674 
L 394.505798 -223.991626 
L 393.709561 -226.724391 
L 392.913323 -228.911459 
L 392.117086 -230.092073 
L 391.320848 -229.952368 
L 390.524611 -228.416567 
L 389.728373 -225.680269 
L 388.932136 -222.176631 
L 388.135898 -218.489043 
L 387.339661 -215.235696 
L 386.543423 -212.9493 
L 385.747186 -211.972649 
L 384.950948 -212.382742 
L 384.15471 -213.961275 
L 383.358473 -216.235957 
L 382.562235 -218.606502 
L 381.765998 -220.528926 
L 380.96976 -221.692053 
L 380.173523 -222.10406 
L 379.377285 -222.062162 
L 378.581048 -222.028918 
L 377.78481 -222.477037 
L 376.988573 -223.754439 
L 376.192335 -225.992593 
L 375.396098 -229.06704 
L 374.59986 -232.627488 
L 373.803623 -236.198666 
L 373.007385 -239.326868 
L 372.211148 -241.706736 
L 371.41491 -243.233456 
L 370.618673 -243.969835 
L 369.822435 -244.060901 
L 369.026198 -243.641738 
L 368.22996 -242.772739 
L 367.433722 -241.419471 
L 366.637485 -239.489036 
L 365.841247 -236.910499 
L 365.04501 -233.726941 
L 364.248772 -230.154658 
L 363.452535 -226.578944 
L 362.656297 -223.482342 
L 361.86006 -221.327046 
L 361.063822 -220.424851 
L 360.267585 -220.843414 
L 359.471347 -222.386851 
L 358.67511 -224.656471 
L 357.878872 -227.158504 
L 357.082635 -229.415836 
L 356.286397 -231.062675 
L 355.49016 -231.926041 
L 354.693922 -232.082925 
L 353.897685 -231.859117 
L 353.101447 -231.733662 
L 352.30521 -232.163608 
L 351.508972 -233.406428 
L 350.712734 -235.423761 
L 349.916497 -237.888703 
L 349.120259 -240.266614 
L 348.324022 -241.941159 
L 347.527784 -242.384001 
L 346.731547 -241.347562 
L 345.935309 -239.009865 
L 345.139072 -235.981881 
L 344.342834 -233.145005 
L 343.546597 -231.378403 
L 342.750359 -231.286742 
L 341.954122 -233.012645 
L 341.157884 -236.178292 
L 340.361647 -239.97567 
L 339.565409 -243.39705 
L 338.769172 -245.546034 
L 337.972934 -245.922938 
L 337.176697 -244.581314 
L 336.380459 -242.107809 
L 335.584221 -239.439217 
L 334.787984 -237.579594 
L 333.991746 -237.303416 
L 333.195509 -238.941057 
L 332.399271 -242.318702 
L 331.603034 -246.860693 
L 330.806796 -251.793619 
L 330.010559 -256.361158 
L 329.214321 -259.996888 
L 328.418084 -262.429384 
L 327.621846 -263.707452 
L 326.825609 -264.131053 
L 326.029371 -264.105668 
L 325.233134 -263.985103 
L 324.436896 -263.973485 
L 323.640659 -264.107668 
L 322.844421 -264.29315 
L 322.048184 -264.350807 
L 321.251946 -264.069757 
L 320.455709 -263.282445 
L 319.659471 -261.954198 
L 318.863233 -260.246069 
L 318.066996 -258.516387 
L 317.270758 -257.256234 
L 316.474521 -256.97236 
L 315.678283 -258.031801 
L 314.882046 -260.502913 
L 314.085808 -264.058987 
L 313.289571 -268.010748 
L 312.493333 -271.475497 
L 311.697096 -273.616212 
L 310.900858 -273.869253 
L 310.104621 -272.115304 
L 309.308383 -268.774491 
L 308.512146 -264.778375 
L 307.715908 -261.359205 
L 306.919671 -259.667055 
L 306.123433 -260.350248 
L 305.327196 -263.300783 
L 304.530958 -267.699161 
L 303.73472 -272.309413 
L 302.938483 -275.883136 
L 302.142245 -277.533472 
L 301.346008 -276.995233 
L 300.54977 -274.708809 
L 299.753533 -271.678362 
L 298.957295 -269.114375 
L 298.161058 -267.986645 
L 297.36482 -268.675832 
L 296.568583 -270.862465 
L 295.772345 -273.671824 
L 294.976108 -275.996226 
L 294.17987 -276.877506 
L 293.383633 -275.826633 
L 292.587395 -272.972627 
L 291.791158 -268.986468 
L 290.99492 -264.807219 
L 290.198683 -261.28778 
L 289.402445 -258.911889 
L 288.606208 -257.695448 
L 287.80997 -257.292459 
L 287.013732 -257.232086 
L 286.217495 -257.160683 
L 285.421257 -256.983804 
L 284.62502 -256.844608 
L 283.828782 -256.97699 
L 283.032545 -257.524783 
L 282.236307 -258.422691 
L 281.44007 -259.389608 
L 280.643832 -260.034817 
L 279.847595 -260.033939 
L 279.051357 -259.288202 
L 278.25512 -257.97576 
L 277.458882 -256.449029 
L 276.662645 -255.034239 
L 275.866407 -253.858966 
L 275.07017 -252.796198 
L 274.273932 -251.517462 
L 273.477695 -249.607815 
L 272.681457 -246.717455 
L 271.88522 -242.727272 
L 271.088982 -237.867575 
L 270.292744 -232.708977 
L 269.496507 -227.986176 
L 268.700269 -224.31434 
L 267.904032 -221.943658 
L 267.107794 -220.690804 
L 266.311557 -220.070874 
L 265.515319 -219.534808 
L 264.719082 -218.684357 
L 263.922844 -217.381783 
L 263.126607 -215.743412 
L 262.330369 -214.059298 
L 261.534132 -212.684299 
L 260.737894 -211.921249 
L 259.941657 -211.914668 
L 259.145419 -212.586872 
L 258.349182 -213.660222 
L 257.552944 -214.779237 
L 256.756707 -215.679613 
L 255.960469 -216.303805 
L 255.164231 -216.788756 
L 254.367994 -217.336885 
L 253.571756 -218.062201 
L 252.775519 -218.912232 
L 251.979281 -219.702284 
L 251.183044 -220.216789 
L 250.386806 -220.31037 
L 249.590569 -219.971143 
L 248.794331 -219.336869 
L 247.998094 -218.655356 
L 247.201856 -218.182003 
L 246.405619 -218.034795 
L 245.609381 -218.08596 
L 244.813144 -217.982296 
L 244.016906 -217.313559 
L 243.220669 -215.835768 
L 242.424431 -213.616801 
L 241.628194 -211.031066 
L 240.831956 -208.625005 
L 240.035719 -206.926557 
L 239.239481 -206.267301 
L 238.443243 -206.661377 
L 237.647006 -207.776919 
L 236.850768 -209.02306 
L 236.054531 -209.737092 
L 235.258293 -209.413712 
L 234.462056 -207.900246 
L 233.665818 -205.485352 
L 232.869581 -202.839225 
L 232.073343 -200.803276 
L 231.277106 -200.091088 
L 230.480868 -201.020659 
L 229.684631 -203.398634 
L 228.888393 -206.598343 
L 228.092156 -209.779695 
L 227.295918 -212.15226 
L 226.499681 -213.191994 
L 225.703443 -212.755068 
L 224.907206 -211.080475 
L 224.110968 -208.710165 
L 223.31473 -206.354768 
L 222.518493 -204.714258 
L 221.722255 -204.271771 
L 220.926018 -205.126824 
L 220.12978 -206.95921 
L 219.333543 -209.173089 
L 218.537305 -211.154974 
L 217.741068 -212.493398 
L 216.94483 -213.044967 
L 216.148593 -212.870574 
L 215.352355 -212.162814 
L 214.556118 -211.220705 
L 213.75988 -210.404977 
L 212.963643 -210.027662 
L 212.167405 -210.228677 
L 211.371168 -210.927738 
L 210.57493 -211.88269 
L 209.778693 -212.802893 
L 208.982455 -213.446347 
L 208.186218 -213.677029 
L 207.38998 -213.492367 
L 206.593742 -213.022078 
L 205.797505 -212.489297 
L 205.001267 -212.14483 
L 204.20503 -212.203475 
L 203.408792 -212.798067 
L 202.612555 -213.947657 
L 201.816317 -215.54229 
L 201.02008 -217.359581 
L 200.223842 -219.10927 
L 199.427605 -220.471828 
L 198.631367 -221.106933 
L 197.83513 -220.671477 
L 197.038892 -218.915259 
L 196.242655 -215.843527 
L 195.446417 -211.81753 
L 194.65018 -207.496263 
L 193.853942 -203.639174 
L 193.057705 -200.875433 
L 192.261467 -199.534817 
L 191.46523 -199.573377 
L 190.668992 -200.591291 
L 189.872754 -201.945356 
L 189.076517 -202.953185 
L 188.280279 -203.121095 
L 187.484042 -202.290232 
L 186.687804 -200.636629 
L 185.891567 -198.552466 
L 185.095329 -196.488824 
L 184.299092 -194.821264 
L 183.502854 -193.762549 
L 182.706617 -193.32895 
L 181.910379 -193.377402 
L 181.114142 -193.703225 
L 180.317904 -194.145858 
L 179.521667 -194.638446 
L 178.725429 -195.177928 
L 177.929192 -195.747649 
L 177.132954 -196.250879 
L 176.336717 -196.492777 
L 175.540479 -196.225836 
L 174.744241 -195.250363 
L 173.948004 -193.534217 
L 173.151766 -191.287374 
L 172.355529 -188.932179 
L 171.559291 -186.963489 
L 170.763054 -185.760606 
L 169.966816 -185.437067 
L 169.170579 -185.782956 
L 168.374341 -186.30578 
L 167.578104 -186.357627 
L 166.781866 -185.334766 
L 165.985629 -182.909022 
L 165.189391 -179.201283 
L 164.393154 -174.793503 
L 163.596916 -170.55452 
L 162.800679 -167.344925 
L 162.004441 -165.733198 
L 161.208204 -165.827588 
L 160.411966 -167.260048 
L 159.615729 -169.305058 
L 158.819491 -171.091485 
L 158.023253 -171.849167 
L 157.227016 -171.125284 
L 156.430778 -168.910671 
L 155.634541 -165.640605 
L 154.838303 -162.06506 
L 154.042066 -159.018242 
L 153.245828 -157.149591 
L 152.449591 -156.702784 
L 151.653353 -157.426033 
L 150.857116 -158.664191 
L 150.060878 -159.601445 
L 149.264641 -159.559202 
L 148.468403 -158.230084 
L 147.672166 -155.770467 
L 146.875928 -152.746436 
L 146.079691 -149.975355 
L 145.283453 -148.304602 
L 144.487216 -148.363589 
L 143.690978 -150.34728 
L 142.89474 -153.925134 
L 142.098503 -158.344364 
L 141.302265 -162.692221 
L 140.506028 -166.18304 
L 139.70979 -168.341062 
L 138.913553 -169.055768 
L 138.117315 -168.552973 
L 137.321078 -167.325998 
L 136.52484 -166.004042 
L 135.728603 -165.151397 
L 134.932365 -165.069517 
L 134.136128 -165.720397 
L 133.33989 -166.801839 
L 132.543653 -167.896688 
L 131.747415 -168.593975 
L 130.951178 -168.557044 
L 130.15494 -167.577482 
L 129.358703 -165.632314 
L 128.562465 -162.900414 
L 127.766228 -159.700502 
L 126.96999 -156.38916 
L 126.173752 -153.292021 
L 125.377515 -150.671246 
L 124.581277 -148.682447 
L 123.78504 -147.302373 
L 122.988802 -146.289578 
L 122.192565 -145.257157 
L 121.396327 -143.851524 
L 120.60009 -141.914162 
L 119.803852 -139.520459 
L 119.007615 -136.906397 
L 118.211377 -134.37971 
L 117.41514 -132.2637 
L 116.618902 -130.837976 
L 115.822665 -130.25338 
L 115.026427 -130.468793 
L 114.23019 -131.276399 
L 113.433952 -132.41734 
L 112.637715 -133.713021 
L 111.841477 -135.127658 
L 111.04524 -136.744996 
L 110.249002 -138.694769 
L 109.452764 -141.060519 
L 108.656527 -143.783997 
L 107.860289 -146.592206 
L 107.064052 -149.000644 
L 106.267814 -150.428998 
L 105.471577 -150.416856 
L 104.675339 -148.84195 
L 103.879102 -146.027397 
L 103.082864 -142.682939 
L 102.286627 -139.703555 
L 101.490389 -137.898804 
L 100.694152 -137.745259 
L 99.897914 -139.242847 
L 99.101677 -141.918125 
L 98.305439 -144.960159 
L 97.509202 -147.436506 
L 96.712964 -148.538135 
L 95.916727 -147.811529 
L 95.120489 -145.312751 
L 94.324251 -141.604291 
L 93.528014 -137.55961 
L 92.731776 -134.05474 
L 91.935539 -131.701708 
L 91.139301 -130.737245 
L 90.343064 -131.049327 
L 89.546826 -132.254334 
L 88.750589 -133.779256 
L 87.954351 -134.977793 
L 87.158114 -135.314817 
L 86.361876 -134.559945 
L 85.565639 -132.871932 
L 84.769401 -130.723152 
L 83.973164 -128.727567 
L 83.176926 -127.469401 
L 82.380689 -127.367822 
L 81.584451 -128.559393 
L 80.788214 -130.81397 
L 79.991976 -133.553453 
L 79.195739 -136.016923 
L 78.399501 -137.508472 
L 77.603263 -137.601762 
L 76.807026 -136.216573 
L 76.010788 -133.575971 
L 75.214551 -130.120739 
L 74.418313 -126.430786 
L 73.622076 -123.131453 
L 72.825838 -120.761418 
L 72.029601 -119.63408 
L 71.233363 -119.750896 
L 70.437126 -120.803156 
L 69.640888 -122.258317 
L 68.844651 -123.505658 
L 68.048413 -124.033748 
L 67.252176 -123.605209 
L 66.455938 -122.366874 
L 65.659701 -120.824585 
L 64.863463 -119.652483 
L 64.067226 -119.409542 
L 63.270988 -120.330008 
L 62.47475 -122.294473 
L 61.678513 -124.924032 
L 60.882275 -127.691032 
L 60.086038 -130.006575 
L 59.2898 -131.324863 
L 58.493563 -131.306916 
L 57.697325 -129.979399 
L 56.901088 -127.76355 
L 56.10485 -125.334205 
L 55.308613 -123.382104 
L 54.512375 -122.381806 
L 53.716138 -122.441959 
L 52.9199 -123.284078 
L 52.123663 -124.372017 
L 51.327425 -125.152084 
L 50.531188 -125.287151 
L 49.73495 -124.762117 
L 48.938713 -123.825766 
L 48.142475 -122.837143 
L 47.346238 -122.123407 
L 46.55 -121.902262 
z
" style="stroke: #e41a1c; stroke-opacity: 0.3"/>
    </defs>
    <g clip-path="url(#p153961063a)">
     <use xlink:href="#me773d11af9" x="0" y="360" style="fill: #e41a1c; fill-opacity: 0.3; stroke: #e41a1c; stroke-opacity: 0.3"/>
    </g>
   </g>
   <g id="PolyCollection_2">
    <defs>
     <path id="m84b9e311db" d="M 46.55 -126.686595 
L 46.55 -108.62069 
L 47.346238 -108.661708 
L 48.142475 -108.472569 
L 48.938713 -108.326548 
L 49.73495 -108.463901 
L 50.531188 -108.992344 
L 51.327425 -109.85999 
L 52.123663 -110.898699 
L 52.9199 -111.890958 
L 53.716138 -112.625676 
L 54.512375 -112.942846 
L 55.308613 -112.776073 
L 56.10485 -112.180516 
L 56.901088 -111.322589 
L 57.697325 -110.430419 
L 58.493563 -109.731346 
L 59.2898 -109.396768 
L 60.086038 -109.492002 
L 60.882275 -109.942729 
L 61.678513 -110.540582 
L 62.47475 -111.005891 
L 63.270988 -111.084555 
L 64.067226 -110.628151 
L 64.863463 -109.629434 
L 65.659701 -108.22342 
L 66.455938 -106.665397 
L 67.252176 -105.276698 
L 68.048413 -104.354553 
L 68.844651 -104.071536 
L 69.640888 -104.408872 
L 70.437126 -105.15309 
L 71.233363 -105.953213 
L 72.029601 -106.420564 
L 72.825838 -106.253494 
L 73.622076 -105.354732 
L 74.418313 -103.886072 
L 75.214551 -102.216076 
L 76.010788 -100.773695 
L 76.807026 -99.876549 
L 77.603263 -99.61059 
L 78.399501 -99.804596 
L 79.195739 -100.101613 
L 79.991976 -100.09183 
L 80.788214 -99.459705 
L 81.584451 -98.098459 
L 82.380689 -96.156386 
L 83.176926 -94.002069 
L 83.973164 -92.122048 
L 84.769401 -90.981089 
L 85.565639 -90.878281 
L 86.361876 -91.840621 
L 87.158114 -93.596004 
L 87.954351 -95.65021 
L 88.750589 -97.445797 
L 89.546826 -98.535911 
L 90.343064 -98.703078 
L 91.139301 -97.994187 
L 91.935539 -96.686506 
L 92.731776 -95.208003 
L 93.528014 -94.027897 
L 94.324251 -93.529904 
L 95.120489 -93.895761 
L 95.916727 -95.041868 
L 96.712964 -96.641843 
L 97.509202 -98.229991 
L 98.305439 -99.342634 
L 99.101677 -99.645731 
L 99.897914 -99.015636 
L 100.694152 -97.563604 
L 101.490389 -95.601839 
L 102.286627 -93.553393 
L 103.082864 -91.823962 
L 103.879102 -90.676323 
L 104.675339 -90.156563 
L 105.471577 -90.099594 
L 106.267814 -90.203925 
L 107.064052 -90.138694 
L 107.860289 -89.647824 
L 108.656527 -88.629133 
L 109.452764 -87.16942 
L 110.249002 -85.515956 
L 111.04524 -83.985129 
L 111.841477 -82.842583 
L 112.637715 -82.211633 
L 113.433952 -82.051921 
L 114.23019 -82.208168 
L 115.026427 -82.489534 
L 115.822665 -82.734754 
L 116.618902 -82.845379 
L 117.41514 -82.792304 
L 118.211377 -82.604875 
L 119.007615 -82.345041 
L 119.803852 -82.074996 
L 120.60009 -81.832686 
L 121.396327 -81.624601 
L 122.192565 -81.432057 
L 122.988802 -81.221822 
L 123.78504 -80.958235 
L 124.581277 -80.617197 
L 125.377515 -80.200298 
L 126.173752 -79.740706 
L 126.96999 -79.297794 
L 127.766228 -78.948142 
L 128.562465 -78.779955 
L 129.358703 -78.883351 
L 130.15494 -79.322531 
L 130.951178 -80.088825 
L 131.747415 -81.058124 
L 132.543653 -81.986209 
L 133.33989 -82.55889 
L 134.136128 -82.484002 
L 134.932365 -81.590651 
L 135.728603 -79.902019 
L 136.52484 -77.655599 
L 137.321078 -75.267018 
L 138.117315 -73.238324 
L 138.913553 -72.024904 
L 139.70979 -71.893578 
L 140.506028 -72.8214 
L 141.302265 -74.485427 
L 142.098503 -76.361316 
L 142.89474 -77.896658 
L 143.690978 -78.684096 
L 144.487216 -78.566512 
L 145.283453 -77.648773 
L 146.079691 -76.23207 
L 146.875928 -74.702886 
L 147.672166 -73.408903 
L 148.468403 -72.556063 
L 149.264641 -72.162788 
L 150.060878 -72.096601 
L 150.857116 -72.177274 
L 151.653353 -72.289709 
L 152.449591 -72.443536 
L 153.245828 -72.75283 
L 154.042066 -73.359177 
L 154.838303 -74.344937 
L 155.634541 -75.669564 
L 156.430778 -77.146448 
L 157.227016 -78.464886 
L 158.023253 -79.263233 
L 158.819491 -79.243186 
L 159.615729 -78.287884 
L 160.411966 -76.530612 
L 161.208204 -74.334995 
L 162.004441 -72.188825 
L 162.800679 -70.556879 
L 163.596916 -69.75205 
L 164.393154 -69.866033 
L 165.189391 -70.769749 
L 165.985629 -72.169495 
L 166.781866 -73.696107 
L 167.578104 -75.002516 
L 168.374341 -75.84199 
L 169.170579 -76.110286 
L 169.966816 -75.843717 
L 170.763054 -75.183385 
L 171.559291 -74.324075 
L 172.355529 -73.466682 
L 173.151766 -72.786705 
L 173.948004 -72.42267 
L 174.744241 -72.476163 
L 175.540479 -73.008146 
L 176.336717 -74.018116 
L 177.132954 -75.411428 
L 177.929192 -76.978716 
L 178.725429 -78.414822 
L 179.521667 -79.385704 
L 180.317904 -79.62273 
L 181.114142 -79.005872 
L 181.910379 -77.607474 
L 182.706617 -75.687498 
L 183.502854 -73.643884 
L 184.299092 -71.922383 
L 185.095329 -70.897283 
L 185.891567 -70.754736 
L 186.687804 -71.427211 
L 187.484042 -72.616493 
L 188.280279 -73.900397 
L 189.076517 -74.875001 
L 189.872754 -75.274242 
L 190.668992 -75.033156 
L 191.46523 -74.289361 
L 192.261467 -73.331369 
L 193.057705 -72.508714 
L 193.853942 -72.127012 
L 194.65018 -72.356944 
L 195.446417 -73.18445 
L 196.242655 -74.416976 
L 197.038892 -75.744488 
L 197.83513 -76.838194 
L 198.631367 -77.456628 
L 199.427605 -77.520726 
L 200.223842 -77.127249 
L 201.02008 -76.49735 
L 201.816317 -75.890618 
L 202.612555 -75.526093 
L 203.408792 -75.534986 
L 204.20503 -75.943994 
L 205.001267 -76.678296 
L 205.797505 -77.580848 
L 206.593742 -78.450762 
L 207.38998 -79.096444 
L 208.186218 -79.384883 
L 208.982455 -79.267945 
L 209.778693 -78.78014 
L 210.57493 -78.017543 
L 211.371168 -77.109663 
L 212.167405 -76.191119 
L 212.963643 -75.377198 
L 213.75988 -74.748857 
L 214.556118 -74.348979 
L 215.352355 -74.18612 
L 216.148593 -74.240359 
L 216.94483 -74.469913 
L 217.741068 -74.820872 
L 218.537305 -75.237437 
L 219.333543 -75.671942 
L 220.12978 -76.090786 
L 220.926018 -76.481032 
L 221.722255 -76.856068 
L 222.518493 -77.251288 
L 223.31473 -77.70285 
L 224.110968 -78.218684 
L 224.907206 -78.763755 
L 225.703443 -79.269745 
L 226.499681 -79.662062 
L 227.295918 -79.878736 
L 228.092156 -79.873577 
L 228.888393 -79.615484 
L 229.684631 -79.095432 
L 230.480868 -78.334622 
L 231.277106 -77.376281 
L 232.073343 -76.261705 
L 232.869581 -75.008033 
L 233.665818 -73.613264 
L 234.462056 -72.090992 
L 235.258293 -70.508384 
L 236.054531 -68.991381 
L 236.850768 -67.685068 
L 237.647006 -66.694752 
L 238.443243 -66.042205 
L 239.239481 -65.660063 
L 240.035719 -65.415194 
L 240.831956 -65.139124 
L 241.628194 -64.655347 
L 242.424431 -63.814251 
L 243.220669 -62.543128 
L 244.016906 -60.89559 
L 244.813144 -59.066477 
L 245.609381 -57.352941 
L 246.405619 -56.071042 
L 247.201856 -55.462162 
L 247.998094 -55.623186 
L 248.794331 -56.478881 
L 249.590569 -57.799944 
L 250.386806 -59.263622 
L 251.183044 -60.538226 
L 251.979281 -61.368205 
L 252.775519 -61.630252 
L 253.571756 -61.347055 
L 254.367994 -60.663369 
L 255.164231 -59.798542 
L 255.960469 -58.988099 
L 256.756707 -58.424144 
L 257.552944 -58.20673 
L 258.349182 -58.32099 
L 259.145419 -58.648439 
L 259.941657 -59.006785 
L 260.737894 -59.203842 
L 261.534132 -59.092151 
L 262.330369 -58.614503 
L 263.126607 -57.829711 
L 263.922844 -56.902596 
L 264.719082 -56.051108 
L 265.515319 -55.465331 
L 266.311557 -55.236116 
L 267.107794 -55.325381 
L 267.904032 -55.587385 
L 268.700269 -55.824948 
L 269.496507 -55.856619 
L 270.292744 -55.575809 
L 271.088982 -54.98884 
L 271.88522 -54.221619 
L 272.681457 -53.488571 
L 273.477695 -53.028295 
L 274.273932 -53.025403 
L 275.07017 -53.547346 
L 275.866407 -54.521414 
L 276.662645 -55.760406 
L 277.458882 -57.028279 
L 278.25512 -58.118752 
L 279.051357 -58.915563 
L 279.847595 -59.412098 
L 280.643832 -59.688413 
L 281.44007 -59.860577 
L 282.236307 -60.026043 
L 283.032545 -60.224547 
L 283.828782 -60.429608 
L 284.62502 -60.570106 
L 285.421257 -60.573358 
L 286.217495 -60.411117 
L 287.013732 -60.127241 
L 287.80997 -59.831029 
L 288.606208 -59.653825 
L 289.402445 -59.687649 
L 290.198683 -59.937814 
L 290.99492 -60.320429 
L 291.791158 -60.707861 
L 292.587395 -60.996787 
L 293.383633 -61.159801 
L 294.17987 -61.255524 
L 294.976108 -61.398424 
L 295.772345 -61.70692 
L 296.568583 -62.251659 
L 297.36482 -63.020511 
L 298.161058 -63.914967 
L 298.957295 -64.786586 
L 299.753533 -65.504228 
L 300.54977 -66.020681 
L 301.346008 -66.400247 
L 302.142245 -66.789679 
L 302.938483 -67.345477 
L 303.73472 -68.154045 
L 304.530958 -69.17905 
L 305.327196 -70.258783 
L 306.123433 -71.156383 
L 306.919671 -71.645938 
L 307.715908 -71.60057 
L 308.512146 -71.045277 
L 309.308383 -70.152773 
L 310.104621 -69.18272 
L 310.900858 -68.38681 
L 311.697096 -67.91535 
L 312.493333 -67.764337 
L 313.289571 -67.789151 
L 314.085808 -67.780106 
L 314.882046 -67.563619 
L 315.678283 -67.078165 
L 316.474521 -66.39163 
L 317.270758 -65.659685 
L 318.066996 -65.050945 
L 318.863233 -64.672924 
L 319.659471 -64.528157 
L 320.455709 -64.519644 
L 321.251946 -64.505629 
L 322.048184 -64.379782 
L 322.844421 -64.131808 
L 323.640659 -63.853051 
L 324.436896 -63.684403 
L 325.233134 -63.737664 
L 326.029371 -64.032006 
L 326.825609 -64.472702 
L 327.621846 -64.880591 
L 328.418084 -65.060757 
L 329.214321 -64.887442 
L 330.010559 -64.371073 
L 330.806796 -63.674827 
L 331.603034 -63.067583 
L 332.399271 -62.82985 
L 333.195509 -63.151187 
L 333.991746 -64.055357 
L 334.787984 -65.38281 
L 335.584221 -66.835314 
L 336.380459 -68.072743 
L 337.176697 -68.832491 
L 337.972934 -69.027139 
L 338.769172 -68.77861 
L 339.565409 -68.372326 
L 340.361647 -68.154064 
L 341.157884 -68.411833 
L 341.954122 -69.284802 
L 342.750359 -70.720782 
L 343.546597 -72.485893 
L 344.342834 -74.22273 
L 345.139072 -75.548968 
L 345.935309 -76.175543 
L 346.731547 -76.004766 
L 347.527784 -75.167656 
L 348.324022 -73.980797 
L 349.120259 -72.842039 
L 349.916497 -72.107504 
L 350.712734 -71.990308 
L 351.508972 -72.5045 
L 352.30521 -73.464377 
L 353.101447 -74.542312 
L 353.897685 -75.37278 
L 354.693922 -75.671009 
L 355.49016 -75.32181 
L 356.286397 -74.405852 
L 357.082635 -73.15887 
L 357.878872 -71.884084 
L 358.67511 -70.84851 
L 359.471347 -70.195558 
L 360.267585 -69.904085 
L 361.063822 -69.81291 
L 361.86006 -69.703682 
L 362.656297 -69.403535 
L 363.452535 -68.856243 
L 364.248772 -68.130856 
L 365.04501 -67.374259 
L 365.841247 -66.739589 
L 366.637485 -66.323709 
L 367.433722 -66.136582 
L 368.22996 -66.113752 
L 369.026198 -66.167077 
L 369.822435 -66.247587 
L 370.618673 -66.382487 
L 371.41491 -66.662126 
L 372.211148 -67.188817 
L 373.007385 -68.020115 
L 373.803623 -69.136002 
L 374.59986 -70.439582 
L 375.396098 -71.786326 
L 376.192335 -73.037169 
L 376.988573 -74.121614 
L 377.78481 -75.0802 
L 378.581048 -76.050731 
L 379.377285 -77.19239 
L 380.173523 -78.582039 
L 380.96976 -80.140272 
L 381.765998 -81.627376 
L 382.562235 -82.709943 
L 383.358473 -83.068121 
L 384.15471 -82.505067 
L 384.950948 -81.021605 
L 385.747186 -78.831525 
L 386.543423 -76.305746 
L 387.339661 -73.861603 
L 388.135898 -71.83706 
L 388.932136 -70.398719 
L 389.728373 -69.518087 
L 390.524611 -69.023746 
L 391.320848 -68.702205 
L 392.117086 -68.402549 
L 392.913323 -68.093118 
L 393.709561 -67.846239 
L 394.505798 -67.767386 
L 395.302036 -67.913148 
L 396.098273 -68.242178 
L 396.894511 -68.619245 
L 397.690748 -68.868282 
L 398.486986 -68.851325 
L 399.283223 -68.544615 
L 400.079461 -68.076482 
L 400.875699 -67.700357 
L 401.671936 -67.702718 
L 402.468174 -68.282697 
L 403.264411 -69.459663 
L 404.060649 -71.049425 
L 404.856886 -72.718006 
L 405.653124 -74.086666 
L 406.449361 -74.853461 
L 407.245599 -74.895853 
L 408.041836 -74.321204 
L 408.838074 -73.442074 
L 409.634311 -72.67651 
L 410.430549 -72.409888 
L 411.226786 -72.871956 
L 412.023024 -74.079804 
L 412.819261 -75.859992 
L 413.615499 -77.928795 
L 413.615499 -117.270121 
L 413.615499 -117.270121 
L 412.819261 -115.245921 
L 412.023024 -113.568001 
L 411.226786 -112.507933 
L 410.430549 -112.198592 
L 409.634311 -112.577113 
L 408.838074 -113.388979 
L 408.041836 -114.250482 
L 407.245599 -114.75421 
L 406.449361 -114.588932 
L 405.653124 -113.641939 
L 404.856886 -112.043044 
L 404.060649 -110.124675 
L 403.264411 -108.305547 
L 402.468174 -106.944631 
L 401.671936 -106.227511 
L 400.875699 -106.126627 
L 400.079461 -106.441538 
L 399.283223 -106.890523 
L 398.486986 -107.21825 
L 397.690748 -107.283268 
L 396.894511 -107.094533 
L 396.098273 -106.781977 
L 395.302036 -106.515114 
L 394.505798 -106.414025 
L 393.709561 -106.499984 
L 392.913323 -106.709737 
L 392.117086 -106.956962 
L 391.320848 -107.20337 
L 390.524611 -107.503166 
L 389.728373 -108.001687 
L 388.932136 -108.886359 
L 388.135898 -110.303761 
L 387.339661 -112.274318 
L 386.543423 -114.639501 
L 385.747186 -117.074355 
L 384.950948 -119.169118 
L 384.15471 -120.554068 
L 383.358473 -121.019432 
L 382.562235 -120.581577 
L 381.765998 -119.46465 
L 380.96976 -118.005461 
L 380.173523 -116.523132 
L 379.377285 -115.214755 
L 378.581048 -114.116953 
L 377.78481 -113.135717 
L 376.988573 -112.118631 
L 376.192335 -110.93728 
L 375.396098 -109.552873 
L 374.59986 -108.043874 
L 373.803623 -106.578755 
L 373.007385 -105.341852 
L 372.211148 -104.449761 
L 371.41491 -103.907871 
L 370.618673 -103.629967 
L 369.822435 -103.502017 
L 369.026198 -103.445324 
L 368.22996 -103.446913 
L 367.433722 -103.551856 
L 366.637485 -103.827124 
L 365.841247 -104.313374 
L 365.04501 -104.985186 
L 364.248772 -105.742929 
L 363.452535 -106.447628 
L 362.656297 -106.984161 
L 361.86006 -107.318467 
L 361.063822 -107.518885 
L 360.267585 -107.733814 
L 359.471347 -108.13685 
L 358.67511 -108.856366 
L 357.878872 -109.909979 
L 357.082635 -111.17042 
L 356.286397 -112.386958 
L 355.49016 -113.26521 
L 354.693922 -113.575556 
L 353.897685 -113.24376 
L 353.101447 -112.387299 
L 352.30521 -111.286518 
L 351.508972 -110.301651 
L 350.712734 -109.759687 
L 349.916497 -109.845294 
L 349.120259 -110.534138 
L 348.324022 -111.598005 
L 347.527784 -112.680535 
L 346.731547 -113.411935 
L 345.935309 -113.518561 
L 345.139072 -112.895114 
L 344.342834 -111.628843 
L 343.546597 -109.97573 
L 342.750359 -108.291426 
L 341.954122 -106.924945 
L 341.157884 -106.10542 
L 340.361647 -105.865612 
L 339.565409 -106.03685 
L 338.769172 -106.317525 
L 337.972934 -106.38393 
L 337.176697 -105.999609 
L 336.380459 -105.088059 
L 335.584221 -103.754491 
L 334.787984 -102.252606 
L 333.991746 -100.904046 
L 333.195509 -99.990555 
L 332.399271 -99.655431 
L 331.603034 -99.855107 
L 330.806796 -100.382268 
L 330.010559 -100.952008 
L 329.214321 -101.309382 
L 328.418084 -101.318406 
L 327.621846 -101.000514 
L 326.825609 -100.510438 
L 326.029371 -100.059299 
L 325.233134 -99.817195 
L 324.436896 -99.841194 
L 323.640659 -100.063018 
L 322.844421 -100.33901 
L 322.048184 -100.529398 
L 321.251946 -100.566161 
L 320.455709 -100.481722 
L 319.659471 -100.392184 
L 318.863233 -100.444389 
L 318.066996 -100.745191 
L 317.270758 -101.302459 
L 316.474521 -102.008037 
L 315.678283 -102.678821 
L 314.882046 -103.13924 
L 314.085808 -103.303599 
L 313.289571 -103.218106 
L 312.493333 -103.045747 
L 311.697096 -103.002106 
L 310.900858 -103.26624 
L 310.104621 -103.899136 
L 309.308383 -104.802774 
L 308.512146 -105.743314 
L 307.715908 -106.43531 
L 306.919671 -106.652328 
L 306.123433 -106.314082 
L 305.327196 -105.511674 
L 304.530958 -104.46314 
L 303.73472 -103.420433 
L 302.938483 -102.569482 
L 302.142245 -101.966855 
L 301.346008 -101.538518 
L 300.54977 -101.136038 
L 299.753533 -100.61763 
L 298.957295 -99.916591 
L 298.161058 -99.069694 
L 297.36482 -98.199374 
L 296.568583 -97.457722 
L 295.772345 -96.954641 
L 294.976108 -96.702713 
L 294.17987 -96.609573 
L 293.383633 -96.52512 
L 292.587395 -96.317385 
L 291.791158 -95.934732 
L 290.99492 -95.42355 
L 290.198683 -94.900857 
L 289.402445 -94.50223 
L 288.606208 -94.328757 
L 287.80997 -94.409794 
L 287.013732 -94.69079 
L 286.217495 -95.052272 
L 285.421257 -95.354774 
L 284.62502 -95.493533 
L 283.828782 -95.435892 
L 283.032545 -95.221735 
L 282.236307 -94.926625 
L 281.44007 -94.608049 
L 280.643832 -94.264657 
L 279.847595 -93.830334 
L 279.051357 -93.20909 
L 278.25512 -92.330524 
L 277.458882 -91.199844 
L 276.662645 -89.919052 
L 275.866407 -88.670514 
L 275.07017 -87.667543 
L 274.273932 -87.088788 
L 273.477695 -87.018294 
L 272.681457 -87.413094 
L 271.88522 -88.109766 
L 271.088982 -88.871428 
L 270.292744 -89.461705 
L 269.496507 -89.721732 
L 268.700269 -89.622341 
L 267.904032 -89.27035 
L 267.107794 -88.865305 
L 266.311557 -88.625383 
L 265.515319 -88.714455 
L 264.719082 -89.196703 
L 263.922844 -90.025716 
L 263.126607 -91.05993 
L 262.330369 -92.09541 
L 261.534132 -92.917082 
L 260.737894 -93.363721 
L 259.941657 -93.387483 
L 259.145419 -93.078019 
L 258.349182 -92.637116 
L 257.552944 -92.311767 
L 256.756707 -92.31073 
L 255.960469 -92.731696 
L 255.164231 -93.519901 
L 254.367994 -94.472214 
L 253.571756 -95.291592 
L 252.775519 -95.679979 
L 251.979281 -95.438724 
L 251.183044 -94.538909 
L 250.386806 -93.137213 
L 249.590569 -91.535798 
L 248.794331 -90.102986 
L 247.998094 -89.177971 
L 247.201856 -88.985285 
L 246.405619 -89.578646 
L 245.609381 -90.835118 
L 244.813144 -92.498907 
L 244.016906 -94.256402 
L 243.220669 -95.815455 
L 242.424431 -96.970704 
L 241.628194 -97.647486 
L 240.831956 -97.91753 
L 240.035719 -97.971989 
L 239.239481 -98.051439 
L 238.443243 -98.35707 
L 237.647006 -98.988413 
L 236.850768 -99.938662 
L 236.054531 -101.137615 
L 235.258293 -102.501805 
L 234.462056 -103.959419 
L 233.665818 -105.443534 
L 232.869581 -106.878899 
L 232.073343 -108.184678 
L 231.277106 -109.293152 
L 230.480868 -110.164465 
L 229.684631 -110.783346 
L 228.888393 -111.145151 
L 228.092156 -111.249158 
L 227.295918 -111.11145 
L 226.499681 -110.781383 
L 225.703443 -110.339609 
L 224.907206 -109.871185 
L 224.110968 -109.433719 
L 223.31473 -109.045488 
L 222.518493 -108.695707 
L 221.722255 -108.362824 
L 220.926018 -108.022904 
L 220.12978 -107.653798 
L 219.333543 -107.24428 
L 218.537305 -106.807636 
L 217.741068 -106.387981 
L 216.94483 -106.050935 
L 216.148593 -105.864317 
L 215.352355 -105.878538 
L 214.556118 -106.116394 
L 213.75988 -106.568695 
L 212.963643 -107.196068 
L 212.167405 -107.935937 
L 211.371168 -108.712173 
L 210.57493 -109.442956 
L 209.778693 -110.045779 
L 208.982455 -110.444034 
L 208.186218 -110.578429 
L 207.38998 -110.421563 
L 206.593742 -109.990498 
L 205.797505 -109.354831 
L 205.001267 -108.637204 
L 204.20503 -107.997909 
L 203.408792 -107.594872 
L 202.612555 -107.525504 
L 201.816317 -107.775808 
L 201.02008 -108.208548 
L 200.223842 -108.602387 
L 199.427605 -108.724181 
L 198.631367 -108.403502 
L 197.83513 -107.58662 
L 197.038892 -106.361978 
L 196.242655 -104.95292 
L 195.446417 -103.671106 
L 194.65018 -102.830391 
L 193.853942 -102.641786 
L 193.057705 -103.127581 
L 192.261467 -104.092365 
L 191.46523 -105.170099 
L 190.668992 -105.938766 
L 189.872754 -106.065986 
L 189.076517 -105.432397 
L 188.280279 -104.182519 
L 187.484042 -102.680327 
L 186.687804 -101.388583 
L 185.891567 -100.724063 
L 185.095329 -100.940883 
L 184.299092 -102.067811 
L 183.502854 -103.90356 
L 182.706617 -106.068477 
L 181.910379 -108.105833 
L 181.114142 -109.608102 
L 180.317904 -110.323863 
L 179.521667 -110.203788 
L 178.725429 -109.375547 
L 177.929192 -108.074226 
L 177.132954 -106.569302 
L 176.336717 -105.111752 
L 175.540479 -103.903524 
L 174.744241 -103.080966 
L 173.948004 -102.707059 
L 173.151766 -102.772114 
L 172.355529 -103.202081 
L 171.559291 -103.868845 
L 170.763054 -104.599336 
L 169.966816 -105.187268 
L 169.170579 -105.419651 
L 168.374341 -105.124402 
L 167.578104 -104.230768 
L 166.781866 -102.820255 
L 165.985629 -101.142458 
L 165.189391 -99.577316 
L 164.393154 -98.544524 
L 163.596916 -98.378942 
L 162.800679 -99.216562 
L 162.004441 -100.937059 
L 161.208204 -103.187724 
L 160.411966 -105.478537 
L 159.615729 -107.312206 
L 158.819491 -108.309918 
L 158.023253 -108.30301 
L 157.227016 -107.3698 
L 156.430778 -105.803983 
L 155.634541 -104.015579 
L 154.838303 -102.392086 
L 154.042066 -101.174261 
L 153.245828 -100.404575 
L 152.449591 -99.97081 
L 151.653353 -99.714713 
L 150.857116 -99.537746 
L 150.060878 -99.453732 
L 149.264641 -99.574459 
L 148.468403 -100.046871 
L 147.672166 -100.968649 
L 146.875928 -102.307148 
L 146.079691 -103.853393 
L 145.283453 -105.246119 
L 144.487216 -106.076464 
L 143.690978 -106.041365 
L 142.89474 -105.075848 
L 142.098503 -103.399973 
L 141.302265 -101.461305 
L 140.506028 -99.803927 
L 139.70979 -98.916202 
L 138.913553 -99.098432 
L 138.117315 -100.380259 
L 137.321078 -102.509216 
L 136.52484 -105.02261 
L 135.728603 -107.387172 
L 134.932365 -109.158384 
L 134.136128 -110.097172 
L 133.33989 -110.203086 
L 132.543653 -109.666189 
L 131.747415 -108.769802 
L 130.951178 -107.795414 
L 130.15494 -106.959132 
L 129.358703 -106.385267 
L 128.562465 -106.107643 
L 127.766228 -106.089246 
L 126.96999 -106.254187 
L 126.173752 -106.523135 
L 125.377515 -106.837141 
L 124.581277 -107.159199 
L 123.78504 -107.461295 
L 122.988802 -107.716307 
L 122.192565 -107.90516 
L 121.396327 -108.029075 
L 120.60009 -108.109697 
L 119.803852 -108.171952 
L 119.007615 -108.221982 
L 118.211377 -108.234883 
L 117.41514 -108.160375 
L 116.618902 -107.947713 
L 115.822665 -107.584422 
L 115.026427 -107.132776 
L 114.23019 -106.737853 
L 113.433952 -106.58995 
L 112.637715 -106.851786 
L 111.841477 -107.590171 
L 111.04524 -108.745603 
L 110.249002 -110.145331 
L 109.452764 -111.547124 
L 108.656527 -112.70139 
L 107.860289 -113.424114 
L 107.064052 -113.667598 
L 106.267814 -113.560374 
L 105.471577 -113.38301 
L 104.675339 -113.47445 
L 103.879102 -114.105266 
L 103.082864 -115.373993 
L 102.286627 -117.164581 
L 101.490389 -119.171252 
L 100.694152 -120.977568 
L 99.897914 -122.170631 
L 99.101677 -122.463784 
L 98.305439 -121.791583 
L 97.509202 -120.339617 
L 96.712964 -118.49201 
L 95.916727 -116.716965 
L 95.120489 -115.436762 
L 94.324251 -114.923367 
L 93.528014 -115.233986 
L 92.731776 -116.190241 
L 91.935539 -117.410039 
L 91.139301 -118.402135 
L 90.343064 -118.71185 
L 89.546826 -118.071224 
L 88.750589 -116.49221 
L 87.954351 -114.264063 
L 87.158114 -111.86448 
L 86.361876 -109.826092 
L 85.565639 -108.600423 
L 84.769401 -108.441593 
L 83.973164 -109.33 
L 83.176926 -110.96653 
L 82.380689 -112.859057 
L 81.584451 -114.485622 
L 80.788214 -115.471496 
L 79.991976 -115.710029 
L 79.195739 -115.382076 
L 78.399501 -114.869994 
L 77.603263 -114.600473 
L 76.807026 -114.878705 
L 76.010788 -115.780865 
L 75.214551 -117.141935 
L 74.418313 -118.63244 
L 73.622076 -119.880944 
L 72.825838 -120.595432 
L 72.029601 -120.652843 
L 71.233363 -120.143336 
L 70.437126 -119.353886 
L 69.640888 -118.678729 
L 68.844651 -118.479952 
L 68.048413 -118.959224 
L 67.252176 -120.09706 
L 66.455938 -121.673281 
L 65.659701 -123.345995 
L 64.863463 -124.75991 
L 64.067226 -125.656366 
L 63.270988 -125.949677 
L 62.47475 -125.735752 
L 61.678513 -125.229768 
L 60.882275 -124.674902 
L 60.086038 -124.277474 
L 59.2898 -124.180932 
L 58.493563 -124.45317 
L 57.697325 -125.073429 
L 56.901088 -125.931029 
L 56.10485 -126.85251 
L 55.308613 -127.644317 
L 54.512375 -128.135294 
L 53.716138 -128.215826 
L 52.9199 -127.876978 
L 52.123663 -127.231043 
L 51.327425 -126.484081 
L 50.531188 -125.861354 
L 49.73495 -125.52616 
L 48.938713 -125.536322 
L 48.142475 -125.842001 
L 47.346238 -126.298952 
L 46.55 -126.686595 
z
" style="stroke: #377eb8; stroke-opacity: 0.3"/>
    </defs>
    <g clip-path="url(#p153961063a)">
     <use xlink:href="#m84b9e311db" x="0" y="360" style="fill: #377eb8; fill-opacity: 0.3; stroke: #377eb8; stroke-opacity: 0.3"/>
    </g>
   </g>
   <g id="patch_3">
    <path d="M 229.843878 318.2 
L 229.843878 71.241125 
L 331.762281 71.241125 
L 331.762281 318.2 
z
" clip-path="url(#p153961063a)" style="fill: #808080; opacity: 0.3"/>
   </g>
   <g id="matplotlib.axis_1">
    <g id="xtick_1">
     <g id="line2d_1">
      <defs>
       <path id="mecb57c187c" d="M 0 0 
L 0 3.5 
" style="stroke: #000000; stroke-width: 0.8"/>
      </defs>
      <g>
       <use xlink:href="#mecb57c187c" x="87.158114" y="318.2" style="stroke: #000000; stroke-width: 0.8"/>
      </g>
     </g>
     <g id="text_1">
      <!-- 0.0 -->
      <g transform="translate(79.206551 332.798437)scale(0.1 -0.1)">
       <defs>
        <path id="DejaVuSans-30" d="M 2034 4250 
Q 1547 4250 1301 3770 
Q 1056 3291 1056 2328 
Q 1056 1369 1301 889 
Q 1547 409 2034 409 
Q 2525 409 2770 889 
Q 3016 1369 3016 2328 
Q 3016 3291 2770 3770 
Q 2525 4250 2034 4250 
z
M 2034 4750 
Q 2819 4750 3233 4129 
Q 3647 3509 3647 2328 
Q 3647 1150 3233 529 
Q 2819 -91 2034 -91 
Q 1250 -91 836 529 
Q 422 1150 422 2328 
Q 422 3509 836 4129 
Q 1250 4750 2034 4750 
z
" transform="scale(0.015625)"/>
        <path id="DejaVuSans-2e" d="M 684 794 
L 1344 794 
L 1344 0 
L 684 0 
L 684 794 
z
" transform="scale(0.015625)"/>
       </defs>
       <use xlink:href="#DejaVuSans-30"/>
       <use xlink:href="#DejaVuSans-2e" x="63.623047"/>
       <use xlink:href="#DejaVuSans-30" x="95.410156"/>
      </g>
     </g>
    </g>
    <g id="xtick_2">
     <g id="line2d_2">
      <g>
       <use xlink:href="#mecb57c187c" x="168.692836" y="318.2" style="stroke: #000000; stroke-width: 0.8"/>
      </g>
     </g>
     <g id="text_2">
      <!-- 0.2 -->
      <g transform="translate(160.741274 332.798437)scale(0.1 -0.1)">
       <defs>
        <path id="DejaVuSans-32" d="M 1228 531 
L 3431 531 
L 3431 0 
L 469 0 
L 469 531 
Q 828 903 1448 1529 
Q 2069 2156 2228 2338 
Q 2531 2678 2651 2914 
Q 2772 3150 2772 3378 
Q 2772 3750 2511 3984 
Q 2250 4219 1831 4219 
Q 1534 4219 1204 4116 
Q 875 4013 500 3803 
L 500 4441 
Q 881 4594 1212 4672 
Q 1544 4750 1819 4750 
Q 2544 4750 2975 4387 
Q 3406 4025 3406 3419 
Q 3406 3131 3298 2873 
Q 3191 2616 2906 2266 
Q 2828 2175 2409 1742 
Q 1991 1309 1228 531 
z
" transform="scale(0.015625)"/>
       </defs>
       <use xlink:href="#DejaVuSans-30"/>
       <use xlink:href="#DejaVuSans-2e" x="63.623047"/>
       <use xlink:href="#DejaVuSans-32" x="95.410156"/>
      </g>
     </g>
    </g>
    <g id="xtick_3">
     <g id="line2d_3">
      <g>
       <use xlink:href="#mecb57c187c" x="250.227559" y="318.2" style="stroke: #000000; stroke-width: 0.8"/>
      </g>
     </g>
     <g id="text_3">
      <!-- 0.4 -->
      <g transform="translate(242.275996 332.798437)scale(0.1 -0.1)">
       <defs>
        <path id="DejaVuSans-34" d="M 2419 4116 
L 825 1625 
L 2419 1625 
L 2419 4116 
z
M 2253 4666 
L 3047 4666 
L 3047 1625 
L 3713 1625 
L 3713 1100 
L 3047 1100 
L 3047 0 
L 2419 0 
L 2419 1100 
L 313 1100 
L 313 1709 
L 2253 4666 
z
" transform="scale(0.015625)"/>
       </defs>
       <use xlink:href="#DejaVuSans-30"/>
       <use xlink:href="#DejaVuSans-2e" x="63.623047"/>
       <use xlink:href="#DejaVuSans-34" x="95.410156"/>
      </g>
     </g>
    </g>
    <g id="xtick_4">
     <g id="line2d_4">
      <g>
       <use xlink:href="#mecb57c187c" x="331.762281" y="318.2" style="stroke: #000000; stroke-width: 0.8"/>
      </g>
     </g>
     <g id="text_4">
      <!-- 0.6 -->
      <g transform="translate(323.810719 332.798437)scale(0.1 -0.1)">
       <defs>
        <path id="DejaVuSans-36" d="M 2113 2584 
Q 1688 2584 1439 2293 
Q 1191 2003 1191 1497 
Q 1191 994 1439 701 
Q 1688 409 2113 409 
Q 2538 409 2786 701 
Q 3034 994 3034 1497 
Q 3034 2003 2786 2293 
Q 2538 2584 2113 2584 
z
M 3366 4563 
L 3366 3988 
Q 3128 4100 2886 4159 
Q 2644 4219 2406 4219 
Q 1781 4219 1451 3797 
Q 1122 3375 1075 2522 
Q 1259 2794 1537 2939 
Q 1816 3084 2150 3084 
Q 2853 3084 3261 2657 
Q 3669 2231 3669 1497 
Q 3669 778 3244 343 
Q 2819 -91 2113 -91 
Q 1303 -91 875 529 
Q 447 1150 447 2328 
Q 447 3434 972 4092 
Q 1497 4750 2381 4750 
Q 2619 4750 2861 4703 
Q 3103 4656 3366 4563 
z
" transform="scale(0.015625)"/>
       </defs>
       <use xlink:href="#DejaVuSans-30"/>
       <use xlink:href="#DejaVuSans-2e" x="63.623047"/>
       <use xlink:href="#DejaVuSans-36" x="95.410156"/>
      </g>
     </g>
    </g>
    <g id="xtick_5">
     <g id="line2d_5">
      <g>
       <use xlink:href="#mecb57c187c" x="413.297004" y="318.2" style="stroke: #000000; stroke-width: 0.8"/>
      </g>
     </g>
     <g id="text_5">
      <!-- 0.8 -->
      <g transform="translate(405.345441 332.798437)scale(0.1 -0.1)">
       <defs>
        <path id="DejaVuSans-38" d="M 2034 2216 
Q 1584 2216 1326 1975 
Q 1069 1734 1069 1313 
Q 1069 891 1326 650 
Q 1584 409 2034 409 
Q 2484 409 2743 651 
Q 3003 894 3003 1313 
Q 3003 1734 2745 1975 
Q 2488 2216 2034 2216 
z
M 1403 2484 
Q 997 2584 770 2862 
Q 544 3141 544 3541 
Q 544 4100 942 4425 
Q 1341 4750 2034 4750 
Q 2731 4750 3128 4425 
Q 3525 4100 3525 3541 
Q 3525 3141 3298 2862 
Q 3072 2584 2669 2484 
Q 3125 2378 3379 2068 
Q 3634 1759 3634 1313 
Q 3634 634 3220 271 
Q 2806 -91 2034 -91 
Q 1263 -91 848 271 
Q 434 634 434 1313 
Q 434 1759 690 2068 
Q 947 2378 1403 2484 
z
M 1172 3481 
Q 1172 3119 1398 2916 
Q 1625 2713 2034 2713 
Q 2441 2713 2670 2916 
Q 2900 3119 2900 3481 
Q 2900 3844 2670 4047 
Q 2441 4250 2034 4250 
Q 1625 4250 1398 4047 
Q 1172 3844 1172 3481 
z
" transform="scale(0.015625)"/>
       </defs>
       <use xlink:href="#DejaVuSans-30"/>
       <use xlink:href="#DejaVuSans-2e" x="63.623047"/>
       <use xlink:href="#DejaVuSans-38" x="95.410156"/>
      </g>
     </g>
    </g>
    <g id="text_6">
     <!-- seconds -->
     <g transform="translate(209.645249 346.476562)scale(0.1 -0.1)">
      <defs>
       <path id="DejaVuSans-73" d="M 2834 3397 
L 2834 2853 
Q 2591 2978 2328 3040 
Q 2066 3103 1784 3103 
Q 1356 3103 1142 2972 
Q 928 2841 928 2578 
Q 928 2378 1081 2264 
Q 1234 2150 1697 2047 
L 1894 2003 
Q 2506 1872 2764 1633 
Q 3022 1394 3022 966 
Q 3022 478 2636 193 
Q 2250 -91 1575 -91 
Q 1294 -91 989 -36 
Q 684 19 347 128 
L 347 722 
Q 666 556 975 473 
Q 1284 391 1588 391 
Q 1994 391 2212 530 
Q 2431 669 2431 922 
Q 2431 1156 2273 1281 
Q 2116 1406 1581 1522 
L 1381 1569 
Q 847 1681 609 1914 
Q 372 2147 372 2553 
Q 372 3047 722 3315 
Q 1072 3584 1716 3584 
Q 2034 3584 2315 3537 
Q 2597 3491 2834 3397 
z
" transform="scale(0.015625)"/>
       <path id="DejaVuSans-65" d="M 3597 1894 
L 3597 1613 
L 953 1613 
Q 991 1019 1311 708 
Q 1631 397 2203 397 
Q 2534 397 2845 478 
Q 3156 559 3463 722 
L 3463 178 
Q 3153 47 2828 -22 
Q 2503 -91 2169 -91 
Q 1331 -91 842 396 
Q 353 884 353 1716 
Q 353 2575 817 3079 
Q 1281 3584 2069 3584 
Q 2775 3584 3186 3129 
Q 3597 2675 3597 1894 
z
M 3022 2063 
Q 3016 2534 2758 2815 
Q 2500 3097 2075 3097 
Q 1594 3097 1305 2825 
Q 1016 2553 972 2059 
L 3022 2063 
z
" transform="scale(0.015625)"/>
       <path id="DejaVuSans-63" d="M 3122 3366 
L 3122 2828 
Q 2878 2963 2633 3030 
Q 2388 3097 2138 3097 
Q 1578 3097 1268 2742 
Q 959 2388 959 1747 
Q 959 1106 1268 751 
Q 1578 397 2138 397 
Q 2388 397 2633 464 
Q 2878 531 3122 666 
L 3122 134 
Q 2881 22 2623 -34 
Q 2366 -91 2075 -91 
Q 1284 -91 818 406 
Q 353 903 353 1747 
Q 353 2603 823 3093 
Q 1294 3584 2113 3584 
Q 2378 3584 2631 3529 
Q 2884 3475 3122 3366 
z
" transform="scale(0.015625)"/>
       <path id="DejaVuSans-6f" d="M 1959 3097 
Q 1497 3097 1228 2736 
Q 959 2375 959 1747 
Q 959 1119 1226 758 
Q 1494 397 1959 397 
Q 2419 397 2687 759 
Q 2956 1122 2956 1747 
Q 2956 2369 2687 2733 
Q 2419 3097 1959 3097 
z
M 1959 3584 
Q 2709 3584 3137 3096 
Q 3566 2609 3566 1747 
Q 3566 888 3137 398 
Q 2709 -91 1959 -91 
Q 1206 -91 779 398 
Q 353 888 353 1747 
Q 353 2609 779 3096 
Q 1206 3584 1959 3584 
z
" transform="scale(0.015625)"/>
       <path id="DejaVuSans-6e" d="M 3513 2113 
L 3513 0 
L 2938 0 
L 2938 2094 
Q 2938 2591 2744 2837 
Q 2550 3084 2163 3084 
Q 1697 3084 1428 2787 
Q 1159 2491 1159 1978 
L 1159 0 
L 581 0 
L 581 3500 
L 1159 3500 
L 1159 2956 
Q 1366 3272 1645 3428 
Q 1925 3584 2291 3584 
Q 2894 3584 3203 3211 
Q 3513 2838 3513 2113 
z
" transform="scale(0.015625)"/>
       <path id="DejaVuSans-64" d="M 2906 2969 
L 2906 4863 
L 3481 4863 
L 3481 0 
L 2906 0 
L 2906 525 
Q 2725 213 2448 61 
Q 2172 -91 1784 -91 
Q 1150 -91 751 415 
Q 353 922 353 1747 
Q 353 2572 751 3078 
Q 1150 3584 1784 3584 
Q 2172 3584 2448 3432 
Q 2725 3281 2906 2969 
z
M 947 1747 
Q 947 1113 1208 752 
Q 1469 391 1925 391 
Q 2381 391 2643 752 
Q 2906 1113 2906 1747 
Q 2906 2381 2643 2742 
Q 2381 3103 1925 3103 
Q 1469 3103 1208 2742 
Q 947 2381 947 1747 
z
" transform="scale(0.015625)"/>
      </defs>
      <use xlink:href="#DejaVuSans-73"/>
      <use xlink:href="#DejaVuSans-65" x="52.099609"/>
      <use xlink:href="#DejaVuSans-63" x="113.623047"/>
      <use xlink:href="#DejaVuSans-6f" x="168.603516"/>
      <use xlink:href="#DejaVuSans-6e" x="229.785156"/>
      <use xlink:href="#DejaVuSans-64" x="293.164062"/>
      <use xlink:href="#DejaVuSans-73" x="356.640625"/>
     </g>
    </g>
   </g>
   <g id="matplotlib.axis_2">
    <g id="ytick_1">
     <g id="line2d_6">
      <defs>
       <path id="mc6a868b5c9" d="M 0 0 
L -3.5 0 
" style="stroke: #000000; stroke-width: 0.8"/>
      </defs>
      <g>
       <use xlink:href="#mc6a868b5c9" x="46.55" y="301.951597" style="stroke: #000000; stroke-width: 0.8"/>
      </g>
     </g>
     <g id="text_7">
      <!-- 2 -->
      <g transform="translate(24.807812 305.750815)scale(0.1 -0.1)">
       <defs>
        <path id="DejaVuSans-2212" d="M 678 2272 
L 4684 2272 
L 4684 1741 
L 678 1741 
L 678 2272 
z
" transform="scale(0.015625)"/>
       </defs>
       <use xlink:href="#DejaVuSans-2212"/>
       <use xlink:href="#DejaVuSans-32" x="83.789062"/>
      </g>
     </g>
    </g>
    <g id="ytick_2">
     <g id="line2d_7">
      <g>
       <use xlink:href="#mc6a868b5c9" x="46.55" y="247.13111" style="stroke: #000000; stroke-width: 0.8"/>
      </g>
     </g>
     <g id="text_8">
      <!-- 0 -->
      <g transform="translate(33.1875 250.930329)scale(0.1 -0.1)">
       <use xlink:href="#DejaVuSans-30"/>
      </g>
     </g>
    </g>
    <g id="ytick_3">
     <g id="line2d_8">
      <g>
       <use xlink:href="#mc6a868b5c9" x="46.55" y="192.310623" style="stroke: #000000; stroke-width: 0.8"/>
      </g>
     </g>
     <g id="text_9">
      <!-- 2 -->
      <g transform="translate(33.1875 196.109842)scale(0.1 -0.1)">
       <use xlink:href="#DejaVuSans-32"/>
      </g>
     </g>
    </g>
    <g id="ytick_4">
     <g id="line2d_9">
      <g>
       <use xlink:href="#mc6a868b5c9" x="46.55" y="137.490136" style="stroke: #000000; stroke-width: 0.8"/>
      </g>
     </g>
     <g id="text_10">
      <!-- 4 -->
      <g transform="translate(33.1875 141.289355)scale(0.1 -0.1)">
       <use xlink:href="#DejaVuSans-34"/>
      </g>
     </g>
    </g>
    <g id="ytick_5">
     <g id="line2d_10">
      <g>
       <use xlink:href="#mc6a868b5c9" x="46.55" y="82.669649" style="stroke: #000000; stroke-width: 0.8"/>
      </g>
     </g>
     <g id="text_11">
      <!-- 6 -->
      <g transform="translate(33.1875 86.468868)scale(0.1 -0.1)">
       <use xlink:href="#DejaVuSans-36"/>
      </g>
     </g>
    </g>
    <g id="text_12">
     <!-- V -->
     <g transform="translate(18.728125 201.322125)rotate(-90)scale(0.1 -0.1)">
      <defs>
       <path id="DejaVuSans-b5" d="M 544 -1331 
L 544 3500 
L 1119 3500 
L 1119 1325 
Q 1119 872 1334 640 
Q 1550 409 1972 409 
Q 2434 409 2667 671 
Q 2900 934 2900 1459 
L 2900 3500 
L 3475 3500 
L 3475 806 
Q 3475 619 3529 530 
Q 3584 441 3700 441 
Q 3728 441 3778 458 
Q 3828 475 3916 513 
L 3916 50 
Q 3788 -22 3673 -56 
Q 3559 -91 3450 -91 
Q 3234 -91 3106 31 
Q 2978 153 2931 403 
Q 2775 156 2548 32 
Q 2322 -91 2016 -91 
Q 1697 -91 1473 31 
Q 1250 153 1119 397 
L 1119 -1331 
L 544 -1331 
z
" transform="scale(0.015625)"/>
       <path id="DejaVuSans-56" d="M 1831 0 
L 50 4666 
L 709 4666 
L 2188 738 
L 3669 4666 
L 4325 4666 
L 2547 0 
L 1831 0 
z
" transform="scale(0.015625)"/>
      </defs>
      <use xlink:href="#DejaVuSans-b5"/>
      <use xlink:href="#DejaVuSans-56" x="63.623047"/>
     </g>
    </g>
   </g>
   <g id="line2d_11">
    <path d="M 46.55 254.200256 
L 47.346238 253.671057 
L 48.142475 252.597018 
L 49.73495 249.965917 
L 50.531188 249.152356 
L 51.327425 249.008638 
L 52.123663 249.491804 
L 52.9199 250.293319 
L 53.716138 250.934846 
L 54.512375 250.941552 
L 55.308613 250.028849 
L 56.10485 248.23123 
L 57.697325 243.701733 
L 58.493563 242.219542 
L 59.2898 241.945188 
L 60.086038 243.01682 
L 60.882275 245.190497 
L 62.47475 250.508991 
L 63.270988 252.361915 
L 64.067226 253.120637 
L 64.863463 252.775597 
L 65.659701 251.641265 
L 66.455938 250.238222 
L 67.252176 249.118767 
L 68.048413 248.692278 
L 68.844651 249.10132 
L 69.640888 250.181624 
L 70.437126 251.512408 
L 71.233363 252.539167 
L 72.029601 252.733385 
L 72.825838 251.746969 
L 73.622076 249.519952 
L 75.214551 242.663219 
L 76.010788 239.249934 
L 76.807026 236.74041 
L 77.603263 235.617038 
L 78.399501 236.054436 
L 79.195739 237.872252 
L 81.584451 245.917808 
L 82.380689 247.32109 
L 83.176926 247.461293 
L 83.973164 246.445237 
L 86.361876 241.344827 
L 87.158114 240.81983 
L 87.954351 241.364248 
L 88.750589 242.790118 
L 90.343064 246.156817 
L 91.139301 246.785827 
L 91.935539 246.048926 
L 92.731776 243.850793 
L 93.528014 240.504242 
L 95.120489 233.213339 
L 95.916727 230.936719 
L 96.712964 230.383479 
L 97.509202 231.648497 
L 98.305439 234.334781 
L 99.897914 240.615986 
L 100.694152 242.364358 
L 101.490389 242.373776 
L 102.286627 240.62855 
L 103.082864 237.614278 
L 104.675339 231.204473 
L 105.471577 229.486633 
L 106.267814 229.386548 
L 107.064052 230.839496 
L 107.860289 233.417596 
L 109.452764 239.544961 
L 110.249002 242.138315 
L 111.04524 244.178451 
L 111.841477 245.770137 
L 113.433952 248.338946 
L 114.23019 249.447274 
L 115.026427 250.255254 
L 115.822665 250.488554 
L 116.618902 249.903286 
L 117.41514 248.406907 
L 118.211377 246.123642 
L 120.60009 238.15795 
L 121.396327 236.318023 
L 122.192565 235.079447 
L 123.78504 233.418684 
L 124.581277 232.265421 
L 125.377515 230.493145 
L 126.173752 228.006936 
L 127.766228 221.548697 
L 128.562465 218.289956 
L 129.358703 215.570861 
L 130.15494 213.727492 
L 130.951178 212.930933 
L 131.747415 213.144331 
L 132.543653 214.124103 
L 134.136128 216.70525 
L 134.932365 217.416367 
L 135.728603 217.353534 
L 136.52484 216.530826 
L 138.117315 214.039551 
L 138.913553 213.525412 
L 139.70979 214.238933 
L 140.506028 216.440745 
L 141.302265 220.002245 
L 142.89474 228.807036 
L 143.690978 232.356508 
L 144.487216 234.339633 
L 145.283453 234.440744 
L 146.079691 232.829878 
L 148.468403 224.789205 
L 149.264641 223.60012 
L 150.060878 223.710317 
L 150.857116 224.770974 
L 151.653353 226.084701 
L 152.449591 226.845791 
L 153.245828 226.415611 
L 154.042066 224.542608 
L 154.838303 221.45655 
L 156.430778 214.442143 
L 157.227016 212.174641 
L 158.023253 211.481779 
L 158.819491 212.363858 
L 161.208204 218.064654 
L 162.004441 218.155799 
L 162.800679 216.478531 
L 163.596916 213.200163 
L 165.985629 200.779912 
L 166.781866 198.292466 
L 167.578104 197.193972 
L 168.374341 197.203856 
L 169.966816 198.15404 
L 170.763054 197.906355 
L 171.559291 196.767667 
L 172.355529 194.839411 
L 173.948004 190.185308 
L 174.744241 188.359559 
L 175.540479 187.254844 
L 176.336717 186.899585 
L 177.132954 187.147651 
L 177.929192 187.77224 
L 181.114142 190.772286 
L 181.910379 191.213576 
L 182.706617 191.303302 
L 183.502854 190.86678 
L 184.299092 189.781239 
L 185.095329 188.065645 
L 186.687804 183.779016 
L 187.484042 182.065673 
L 188.280279 181.183936 
L 189.076517 181.292239 
L 189.872754 182.228086 
L 190.668992 183.522748 
L 191.46523 184.524947 
L 192.261467 184.595687 
L 193.057705 183.30956 
L 193.853942 180.591293 
L 195.446417 172.371794 
L 196.242655 168.193505 
L 197.038892 164.867818 
L 197.83513 162.829333 
L 198.631367 162.213878 
L 199.427605 162.871334 
L 200.223842 164.450816 
L 202.612555 170.474125 
L 203.408792 171.815835 
L 204.20503 172.560085 
L 205.001267 172.721595 
L 205.797505 172.414739 
L 207.38998 171.231474 
L 208.186218 170.852568 
L 208.982455 170.887752 
L 209.778693 171.403289 
L 212.167405 174.227769 
L 212.963643 174.62286 
L 213.75988 174.381069 
L 214.556118 173.561831 
L 216.148593 171.505522 
L 216.94483 171.179773 
L 217.741068 171.797254 
L 218.537305 173.403099 
L 220.926018 180.181911 
L 221.722255 181.101057 
L 222.518493 180.663542 
L 223.31473 178.969268 
L 224.907206 174.017276 
L 225.703443 172.301274 
L 226.499681 171.960289 
L 227.295918 173.218382 
L 228.092156 175.841294 
L 229.684631 182.434489 
L 230.480868 184.743415 
L 231.277106 185.586748 
L 232.073343 184.860418 
L 232.869581 182.911439 
L 234.462056 178.147123 
L 235.258293 176.734235 
L 236.054531 176.452564 
L 236.850768 177.154892 
L 238.443243 179.34696 
L 239.239481 179.583262 
L 240.035719 178.733447 
L 240.831956 176.848533 
L 243.220669 169.414885 
L 244.016906 167.903248 
L 244.813144 167.151799 
L 245.609381 166.941802 
L 246.405619 166.928826 
L 247.201856 166.801501 
L 247.998094 166.406543 
L 249.590569 165.154842 
L 250.386806 164.736189 
L 251.183044 164.699999 
L 251.979281 165.068134 
L 253.571756 166.508201 
L 256.756707 169.694915 
L 258.349182 172.221794 
L 259.145419 173.515679 
L 259.941657 174.427622 
L 260.737894 174.661477 
L 261.534132 174.082861 
L 262.330369 172.794849 
L 263.922844 169.460415 
L 264.719082 168.1658 
L 265.515319 167.34031 
L 266.311557 166.797786 
L 267.107794 166.113294 
L 267.904032 164.783254 
L 268.700269 162.428094 
L 269.496507 158.95472 
L 272.681457 141.701313 
L 273.477695 138.899878 
L 274.273932 136.957397 
L 275.866407 134.407387 
L 278.25512 130.777477 
L 279.051357 129.949529 
L 279.847595 129.656576 
L 280.643832 129.92881 
L 283.032545 132.052772 
L 283.828782 132.38749 
L 284.62502 132.429116 
L 287.80997 131.936494 
L 288.606208 131.216357 
L 289.402445 129.616072 
L 290.198683 126.92876 
L 292.587395 115.507098 
L 293.383633 113.000614 
L 294.17987 112.257126 
L 294.976108 113.338147 
L 295.772345 115.735326 
L 296.568583 118.50887 
L 297.36482 120.596768 
L 298.161058 121.188735 
L 298.957295 120.028176 
L 299.753533 117.526495 
L 300.54977 114.639784 
L 301.346008 112.544667 
L 302.142245 112.225302 
L 302.938483 114.118341 
L 303.73472 117.944734 
L 305.327196 127.375247 
L 306.123433 130.508648 
L 306.919671 131.420653 
L 307.715908 130.012876 
L 308.512146 126.864948 
L 310.104621 119.696483 
L 310.900858 117.837854 
L 311.697096 117.950238 
L 312.493333 119.959598 
L 313.289571 123.301718 
L 314.882046 130.576892 
L 315.678283 132.972147 
L 316.474521 133.983461 
L 317.270758 133.636962 
L 318.066996 132.247431 
L 320.455709 126.587382 
L 321.251946 125.484938 
L 322.048184 125.010168 
L 322.844421 125.041386 
L 325.233134 125.87018 
L 326.825609 125.949426 
L 327.621846 126.373778 
L 328.418084 127.593545 
L 329.214321 129.954769 
L 330.010559 133.572007 
L 333.195509 151.665857 
L 333.991746 153.434623 
L 334.787984 153.214698 
L 335.584221 151.34599 
L 337.176697 146.075059 
L 337.972934 144.660138 
L 338.769172 144.972242 
L 339.565409 147.057808 
L 341.954122 157.183969 
L 342.750359 158.817095 
L 343.546597 158.671507 
L 344.342834 156.937734 
L 345.935309 151.497198 
L 346.731547 149.491739 
L 347.527784 148.790024 
L 348.324022 149.531919 
L 349.120259 151.452436 
L 350.712734 156.57153 
L 351.508972 158.626394 
L 352.30521 159.903926 
L 353.101447 160.42886 
L 354.693922 160.438147 
L 355.49016 160.72555 
L 356.286397 161.605803 
L 357.082635 163.1455 
L 359.471347 169.319058 
L 360.267585 170.53429 
L 361.063822 170.71433 
L 361.86006 169.719056 
L 362.656297 167.620496 
L 363.452535 164.679464 
L 365.841247 154.677298 
L 366.637485 152.05878 
L 367.433722 150.066463 
L 368.22996 148.692816 
L 369.026198 147.891184 
L 369.822435 147.640879 
L 370.618673 147.984934 
L 371.41491 149.019347 
L 372.211148 150.839292 
L 373.007385 153.462564 
L 374.59986 160.460418 
L 376.192335 167.378351 
L 376.988573 169.831336 
L 377.78481 171.35932 
L 378.581048 172.064328 
L 380.173523 172.386175 
L 380.96976 172.842579 
L 381.765998 173.881831 
L 382.562235 175.508124 
L 384.15471 179.312512 
L 384.950948 180.527068 
L 385.747186 180.672653 
L 386.543423 179.513434 
L 387.339661 177.089267 
L 388.932136 169.933702 
L 389.728373 166.366489 
L 390.524611 163.612303 
L 391.320848 162.105532 
L 392.117086 162.034424 
L 392.913323 163.31398 
L 393.709561 165.621208 
L 396.098273 173.894912 
L 396.894511 175.72888 
L 397.690748 176.785409 
L 398.486986 177.111842 
L 399.283223 176.833602 
L 400.079461 176.074552 
L 400.875699 174.9037 
L 401.671936 173.332861 
L 402.468174 171.367237 
L 404.856886 164.624631 
L 405.653124 163.312575 
L 406.449361 163.232337 
L 407.245599 164.653547 
L 408.041836 167.525418 
L 410.430549 179.390174 
L 411.226786 181.919084 
L 412.023024 182.881779 
L 412.819261 182.362179 
L 413.615499 180.864428 
L 413.615499 180.864428 
" clip-path="url(#p153961063a)" style="fill: none; stroke: #e41a1c; stroke-width: 1.5; stroke-linecap: square"/>
   </g>
   <g id="line2d_12">
    <path d="M 46.55 242.346358 
L 47.346238 242.51967 
L 48.938713 243.068565 
L 49.73495 243.004969 
L 50.531188 242.573151 
L 52.123663 240.935129 
L 52.9199 240.116032 
L 53.716138 239.579249 
L 54.512375 239.46093 
L 55.308613 239.789805 
L 56.10485 240.483487 
L 57.697325 242.248076 
L 58.493563 242.907742 
L 59.2898 243.21115 
L 60.086038 243.115262 
L 60.882275 242.691185 
L 62.47475 241.629179 
L 63.270988 241.482884 
L 64.067226 241.857741 
L 64.863463 242.805328 
L 66.455938 245.830661 
L 67.252176 247.313121 
L 68.048413 248.343111 
L 68.844651 248.724256 
L 69.640888 248.4562 
L 72.029601 246.463296 
L 72.825838 246.575537 
L 73.622076 247.382162 
L 74.418313 248.740744 
L 76.010788 251.72272 
L 76.807026 252.622373 
L 77.603263 252.894469 
L 78.399501 252.662705 
L 79.195739 252.258156 
L 79.991976 252.099071 
L 80.788214 252.534399 
L 81.584451 253.70796 
L 83.973164 259.273976 
L 84.769401 260.288659 
L 85.565639 260.260648 
L 86.361876 259.166644 
L 87.158114 257.269758 
L 88.750589 253.030997 
L 89.546826 251.696432 
L 90.343064 251.292536 
L 91.139301 251.801839 
L 91.935539 252.951728 
L 92.731776 254.300878 
L 93.528014 255.369059 
L 94.324251 255.773364 
L 95.120489 255.333738 
L 95.916727 254.120583 
L 97.509202 250.715196 
L 98.305439 249.432891 
L 99.101677 248.945242 
L 99.897914 249.406866 
L 100.694152 250.729414 
L 103.082864 256.401023 
L 103.879102 257.609206 
L 104.675339 258.184494 
L 105.471577 258.258698 
L 106.267814 258.11785 
L 107.064052 258.096854 
L 107.860289 258.464031 
L 108.656527 259.334738 
L 109.452764 260.641728 
L 111.04524 263.634634 
L 111.841477 264.783623 
L 112.637715 265.46829 
L 113.433952 265.679064 
L 114.23019 265.526989 
L 116.618902 264.603454 
L 117.41514 264.523661 
L 119.007615 264.716489 
L 122.988802 265.530935 
L 124.581277 266.111802 
L 127.766228 267.481306 
L 128.562465 267.556201 
L 129.358703 267.365691 
L 130.15494 266.859169 
L 130.951178 266.05788 
L 132.543653 264.173801 
L 133.33989 263.619012 
L 134.136128 263.709413 
L 134.932365 264.625482 
L 135.728603 266.355404 
L 138.117315 273.190709 
L 138.913553 274.438332 
L 139.70979 274.59511 
L 140.506028 273.687336 
L 142.89474 268.513747 
L 143.690978 267.637269 
L 144.487216 267.678512 
L 145.283453 268.552554 
L 147.672166 272.811224 
L 148.468403 273.698533 
L 149.264641 274.131376 
L 150.060878 274.224834 
L 151.653353 273.997789 
L 152.449591 273.792827 
L 153.245828 273.421298 
L 154.042066 272.733281 
L 154.838303 271.631489 
L 157.227016 267.082657 
L 158.023253 266.216879 
L 158.819491 266.223448 
L 159.615729 267.199955 
L 160.411966 268.995425 
L 162.004441 273.437058 
L 162.800679 275.11328 
L 163.596916 275.934504 
L 164.393154 275.794721 
L 165.189391 274.826468 
L 167.578104 270.383358 
L 168.374341 269.516804 
L 169.170579 269.235032 
L 169.966816 269.484508 
L 170.763054 270.10864 
L 172.355529 271.665619 
L 173.151766 272.220591 
L 173.948004 272.435136 
L 174.744241 272.221435 
L 175.540479 271.544165 
L 176.336717 270.435066 
L 178.725429 266.104816 
L 179.521667 265.205254 
L 180.317904 265.026704 
L 181.114142 265.693013 
L 181.910379 267.143346 
L 184.299092 273.004903 
L 185.095329 274.080917 
L 185.891567 274.260601 
L 186.687804 273.592103 
L 189.076517 269.846301 
L 189.872754 269.329886 
L 190.668992 269.514039 
L 191.46523 270.27027 
L 193.057705 272.181852 
L 193.853942 272.615601 
L 194.65018 272.406332 
L 195.446417 271.572222 
L 197.83513 267.787593 
L 198.631367 267.069935 
L 199.427605 266.877546 
L 200.223842 267.135182 
L 201.816317 268.166787 
L 202.612555 268.474201 
L 203.408792 268.435071 
L 204.20503 268.029049 
L 205.797505 266.53216 
L 206.593742 265.77937 
L 207.38998 265.240997 
L 208.186218 265.018344 
L 208.982455 265.144011 
L 209.778693 265.58704 
L 211.371168 267.089082 
L 212.963643 268.713367 
L 213.75988 269.341224 
L 214.556118 269.767313 
L 215.352355 269.967671 
L 216.148593 269.947662 
L 216.94483 269.739576 
L 218.537305 268.977464 
L 220.926018 267.748032 
L 223.31473 266.625831 
L 226.499681 264.778277 
L 227.295918 264.504907 
L 228.092156 264.438633 
L 228.888393 264.619683 
L 229.684631 265.060611 
L 230.480868 265.750457 
L 231.277106 266.665283 
L 232.869581 269.056534 
L 236.850768 276.188135 
L 237.647006 277.158417 
L 238.443243 277.800363 
L 239.239481 278.144249 
L 240.831956 278.471673 
L 241.628194 278.848583 
L 242.424431 279.607523 
L 243.220669 280.820708 
L 244.813144 284.217308 
L 245.609381 285.905971 
L 246.405619 287.175156 
L 247.201856 287.776277 
L 247.998094 287.599421 
L 248.794331 286.709066 
L 251.183044 282.461433 
L 251.979281 281.596536 
L 252.775519 281.344885 
L 253.571756 281.680677 
L 254.367994 282.432208 
L 255.960469 284.140103 
L 256.756707 284.632563 
L 257.552944 284.740752 
L 258.349182 284.520947 
L 259.941657 283.802866 
L 260.737894 283.716219 
L 261.534132 283.995383 
L 262.330369 284.645043 
L 264.719082 287.376094 
L 265.515319 287.910107 
L 266.311557 288.069251 
L 267.107794 287.904657 
L 268.700269 287.276356 
L 269.496507 287.210825 
L 270.292744 287.481243 
L 271.088982 288.069866 
L 272.681457 289.549168 
L 273.477695 289.976706 
L 274.273932 289.942904 
L 275.07017 289.392556 
L 275.866407 288.404036 
L 278.25512 284.775362 
L 279.051357 283.937674 
L 279.847595 283.378784 
L 281.44007 282.765687 
L 283.828782 282.06725 
L 284.62502 281.968181 
L 285.421257 282.035934 
L 287.013732 282.590984 
L 287.80997 282.879588 
L 288.606208 283.008709 
L 289.402445 282.905061 
L 290.198683 282.580665 
L 292.587395 281.342914 
L 294.17987 281.067451 
L 294.976108 280.949432 
L 295.772345 280.669219 
L 296.568583 280.145309 
L 298.161058 278.507669 
L 299.753533 276.939071 
L 301.346008 276.030618 
L 302.142245 275.621733 
L 302.938483 275.04252 
L 303.73472 274.212761 
L 306.123433 271.264768 
L 306.919671 270.850867 
L 307.715908 270.98206 
L 308.512146 271.605705 
L 310.104621 273.459072 
L 310.900858 274.173475 
L 311.697096 274.541272 
L 312.493333 274.594958 
L 314.085808 274.458147 
L 314.882046 274.648571 
L 315.678283 275.121507 
L 318.066996 277.101932 
L 318.863233 277.441344 
L 319.659471 277.53983 
L 321.251946 277.464105 
L 322.048184 277.54541 
L 324.436896 278.237201 
L 325.233134 278.22257 
L 326.029371 277.954348 
L 327.621846 277.059448 
L 328.418084 276.810419 
L 329.214321 276.901588 
L 330.010559 277.33846 
L 331.603034 278.538655 
L 332.399271 278.75736 
L 333.195509 278.429129 
L 333.991746 277.520298 
L 336.380459 273.419599 
L 337.176697 272.58395 
L 337.972934 272.294466 
L 338.769172 272.451933 
L 339.565409 272.795412 
L 340.361647 272.990162 
L 341.157884 272.741373 
L 341.954122 271.895127 
L 342.750359 270.493896 
L 344.342834 267.074213 
L 345.139072 265.777959 
L 345.935309 265.152948 
L 346.731547 265.29165 
L 347.527784 266.075904 
L 349.120259 268.311912 
L 349.916497 269.023601 
L 350.712734 269.125002 
L 351.508972 268.596925 
L 353.897685 265.69173 
L 354.693922 265.376717 
L 355.49016 265.70649 
L 356.286397 266.603595 
L 358.67511 270.147562 
L 359.471347 270.833796 
L 360.267585 271.181051 
L 361.86006 271.488926 
L 362.656297 271.806152 
L 363.452535 272.348065 
L 365.841247 274.473518 
L 366.637485 274.924584 
L 367.433722 275.155781 
L 369.026198 275.193799 
L 370.618673 274.993773 
L 371.41491 274.715001 
L 372.211148 274.180711 
L 373.007385 273.319016 
L 373.803623 272.142622 
L 376.192335 268.012775 
L 377.78481 265.892041 
L 379.377285 263.796428 
L 380.96976 260.927134 
L 381.765998 259.453987 
L 382.562235 258.35424 
L 383.358473 257.956224 
L 384.15471 258.470432 
L 384.950948 259.904639 
L 385.747186 262.04706 
L 387.339661 266.932039 
L 388.135898 268.92959 
L 388.932136 270.357461 
L 389.728373 271.240113 
L 390.524611 271.736544 
L 392.913323 272.598572 
L 393.709561 272.826888 
L 394.505798 272.909294 
L 395.302036 272.785869 
L 397.690748 271.924225 
L 398.486986 271.965212 
L 399.283223 272.282431 
L 400.875699 273.086508 
L 401.671936 273.034885 
L 402.468174 272.386336 
L 403.264411 271.117395 
L 405.653124 266.135697 
L 406.449361 265.278803 
L 407.245599 265.174969 
L 408.041836 265.714157 
L 409.634311 267.373188 
L 410.430549 267.69576 
L 411.226786 267.310055 
L 412.023024 266.176097 
L 412.819261 264.447044 
L 413.615499 262.400542 
L 413.615499 262.400542 
" clip-path="url(#p153961063a)" style="fill: none; stroke: #377eb8; stroke-width: 1.5; stroke-linecap: square"/>
   </g>
   <g id="line2d_13">
    <path d="M 87.158114 318.2 
L 87.158114 71.241125 
" clip-path="url(#p153961063a)" style="fill: none; stroke: #000000; stroke-width: 0.5; stroke-linecap: square"/>
   </g>
   <g id="line2d_14">
    <path d="M 46.55 247.13111 
L 413.615499 247.13111 
" clip-path="url(#p153961063a)" style="fill: none; stroke: #000000; stroke-width: 0.5; stroke-linecap: square"/>
   </g>
   <g id="patch_4">
    <path d="M 46.55 318.2 
L 46.55 71.241125 
" style="fill: none; stroke: #000000; stroke-width: 0.8; stroke-linejoin: miter; stroke-linecap: square"/>
   </g>
   <g id="patch_5">
    <path d="M 413.615499 318.2 
L 413.615499 71.241125 
" style="fill: none; stroke: #000000; stroke-width: 0.8; stroke-linejoin: miter; stroke-linecap: square"/>
   </g>
   <g id="patch_6">
    <path d="M 46.55 318.2 
L 413.615499 318.2 
" style="fill: none; stroke: #000000; stroke-width: 0.8; stroke-linejoin: miter; stroke-linecap: square"/>
   </g>
   <g id="patch_7">
    <path d="M 46.55 71.241125 
L 413.615499 71.241125 
" style="fill: none; stroke: #000000; stroke-width: 0.8; stroke-linejoin: miter; stroke-linecap: square"/>
   </g>
   <g id="text_13">
    <!-- Cz -->
    <g transform="translate(222.743999 65.241125)scale(0.12 -0.12)">
     <defs>
      <path id="DejaVuSans-43" d="M 4122 4306 
L 4122 3641 
Q 3803 3938 3442 4084 
Q 3081 4231 2675 4231 
Q 1875 4231 1450 3742 
Q 1025 3253 1025 2328 
Q 1025 1406 1450 917 
Q 1875 428 2675 428 
Q 3081 428 3442 575 
Q 3803 722 4122 1019 
L 4122 359 
Q 3791 134 3420 21 
Q 3050 -91 2638 -91 
Q 1578 -91 968 557 
Q 359 1206 359 2328 
Q 359 3453 968 4101 
Q 1578 4750 2638 4750 
Q 3056 4750 3426 4639 
Q 3797 4528 4122 4306 
z
" transform="scale(0.015625)"/>
      <path id="DejaVuSans-7a" d="M 353 3500 
L 3084 3500 
L 3084 2975 
L 922 459 
L 3084 459 
L 3084 0 
L 275 0 
L 275 525 
L 2438 3041 
L 353 3041 
L 353 3500 
z
" transform="scale(0.015625)"/>
     </defs>
     <use xlink:href="#DejaVuSans-43"/>
     <use xlink:href="#DejaVuSans-7a" x="69.824219"/>
    </g>
   </g>
   <g id="legend_1">
    <g id="patch_8">
     <path d="M 99.855406 48.044893 
L 360.310093 48.044893 
Q 362.310093 48.044893 362.310093 46.044893 
L 362.310093 17.410517 
Q 362.310093 15.410517 360.310093 15.410517 
L 99.855406 15.410517 
Q 97.855406 15.410517 97.855406 17.410517 
L 97.855406 46.044893 
Q 97.855406 48.044893 99.855406 48.044893 
z
" style="fill: #ffffff; opacity: 0.8; stroke: #cccccc; stroke-linejoin: miter"/>
    </g>
    <g id="text_14">
     <!-- Average of Session 22_tac4 -->
     <g transform="translate(161.068687 27.008955)scale(0.1 -0.1)">
      <defs>
       <path id="DejaVuSans-41" d="M 2188 4044 
L 1331 1722 
L 3047 1722 
L 2188 4044 
z
M 1831 4666 
L 2547 4666 
L 4325 0 
L 3669 0 
L 3244 1197 
L 1141 1197 
L 716 0 
L 50 0 
L 1831 4666 
z
" transform="scale(0.015625)"/>
       <path id="DejaVuSans-76" d="M 191 3500 
L 800 3500 
L 1894 563 
L 2988 3500 
L 3597 3500 
L 2284 0 
L 1503 0 
L 191 3500 
z
" transform="scale(0.015625)"/>
       <path id="DejaVuSans-72" d="M 2631 2963 
Q 2534 3019 2420 3045 
Q 2306 3072 2169 3072 
Q 1681 3072 1420 2755 
Q 1159 2438 1159 1844 
L 1159 0 
L 581 0 
L 581 3500 
L 1159 3500 
L 1159 2956 
Q 1341 3275 1631 3429 
Q 1922 3584 2338 3584 
Q 2397 3584 2469 3576 
Q 2541 3569 2628 3553 
L 2631 2963 
z
" transform="scale(0.015625)"/>
       <path id="DejaVuSans-61" d="M 2194 1759 
Q 1497 1759 1228 1600 
Q 959 1441 959 1056 
Q 959 750 1161 570 
Q 1363 391 1709 391 
Q 2188 391 2477 730 
Q 2766 1069 2766 1631 
L 2766 1759 
L 2194 1759 
z
M 3341 1997 
L 3341 0 
L 2766 0 
L 2766 531 
Q 2569 213 2275 61 
Q 1981 -91 1556 -91 
Q 1019 -91 701 211 
Q 384 513 384 1019 
Q 384 1609 779 1909 
Q 1175 2209 1959 2209 
L 2766 2209 
L 2766 2266 
Q 2766 2663 2505 2880 
Q 2244 3097 1772 3097 
Q 1472 3097 1187 3025 
Q 903 2953 641 2809 
L 641 3341 
Q 956 3463 1253 3523 
Q 1550 3584 1831 3584 
Q 2591 3584 2966 3190 
Q 3341 2797 3341 1997 
z
" transform="scale(0.015625)"/>
       <path id="DejaVuSans-67" d="M 2906 1791 
Q 2906 2416 2648 2759 
Q 2391 3103 1925 3103 
Q 1463 3103 1205 2759 
Q 947 2416 947 1791 
Q 947 1169 1205 825 
Q 1463 481 1925 481 
Q 2391 481 2648 825 
Q 2906 1169 2906 1791 
z
M 3481 434 
Q 3481 -459 3084 -895 
Q 2688 -1331 1869 -1331 
Q 1566 -1331 1297 -1286 
Q 1028 -1241 775 -1147 
L 775 -588 
Q 1028 -725 1275 -790 
Q 1522 -856 1778 -856 
Q 2344 -856 2625 -561 
Q 2906 -266 2906 331 
L 2906 616 
Q 2728 306 2450 153 
Q 2172 0 1784 0 
Q 1141 0 747 490 
Q 353 981 353 1791 
Q 353 2603 747 3093 
Q 1141 3584 1784 3584 
Q 2172 3584 2450 3431 
Q 2728 3278 2906 2969 
L 2906 3500 
L 3481 3500 
L 3481 434 
z
" transform="scale(0.015625)"/>
       <path id="DejaVuSans-20" transform="scale(0.015625)"/>
       <path id="DejaVuSans-66" d="M 2375 4863 
L 2375 4384 
L 1825 4384 
Q 1516 4384 1395 4259 
Q 1275 4134 1275 3809 
L 1275 3500 
L 2222 3500 
L 2222 3053 
L 1275 3053 
L 1275 0 
L 697 0 
L 697 3053 
L 147 3053 
L 147 3500 
L 697 3500 
L 697 3744 
Q 697 4328 969 4595 
Q 1241 4863 1831 4863 
L 2375 4863 
z
" transform="scale(0.015625)"/>
       <path id="DejaVuSans-53" d="M 3425 4513 
L 3425 3897 
Q 3066 4069 2747 4153 
Q 2428 4238 2131 4238 
Q 1616 4238 1336 4038 
Q 1056 3838 1056 3469 
Q 1056 3159 1242 3001 
Q 1428 2844 1947 2747 
L 2328 2669 
Q 3034 2534 3370 2195 
Q 3706 1856 3706 1288 
Q 3706 609 3251 259 
Q 2797 -91 1919 -91 
Q 1588 -91 1214 -16 
Q 841 59 441 206 
L 441 856 
Q 825 641 1194 531 
Q 1563 422 1919 422 
Q 2459 422 2753 634 
Q 3047 847 3047 1241 
Q 3047 1584 2836 1778 
Q 2625 1972 2144 2069 
L 1759 2144 
Q 1053 2284 737 2584 
Q 422 2884 422 3419 
Q 422 4038 858 4394 
Q 1294 4750 2059 4750 
Q 2388 4750 2728 4690 
Q 3069 4631 3425 4513 
z
" transform="scale(0.015625)"/>
       <path id="DejaVuSans-69" d="M 603 3500 
L 1178 3500 
L 1178 0 
L 603 0 
L 603 3500 
z
M 603 4863 
L 1178 4863 
L 1178 4134 
L 603 4134 
L 603 4863 
z
" transform="scale(0.015625)"/>
       <path id="DejaVuSans-5f" d="M 3263 -1063 
L 3263 -1509 
L -63 -1509 
L -63 -1063 
L 3263 -1063 
z
" transform="scale(0.015625)"/>
       <path id="DejaVuSans-74" d="M 1172 4494 
L 1172 3500 
L 2356 3500 
L 2356 3053 
L 1172 3053 
L 1172 1153 
Q 1172 725 1289 603 
Q 1406 481 1766 481 
L 2356 481 
L 2356 0 
L 1766 0 
Q 1100 0 847 248 
Q 594 497 594 1153 
L 594 3053 
L 172 3053 
L 172 3500 
L 594 3500 
L 594 4494 
L 1172 4494 
z
" transform="scale(0.015625)"/>
      </defs>
      <use xlink:href="#DejaVuSans-41"/>
      <use xlink:href="#DejaVuSans-76" x="62.533203"/>
      <use xlink:href="#DejaVuSans-65" x="121.712891"/>
      <use xlink:href="#DejaVuSans-72" x="183.236328"/>
      <use xlink:href="#DejaVuSans-61" x="224.349609"/>
      <use xlink:href="#DejaVuSans-67" x="285.628906"/>
      <use xlink:href="#DejaVuSans-65" x="349.105469"/>
      <use xlink:href="#DejaVuSans-20" x="410.628906"/>
      <use xlink:href="#DejaVuSans-6f" x="442.416016"/>
      <use xlink:href="#DejaVuSans-66" x="503.597656"/>
      <use xlink:href="#DejaVuSans-20" x="538.802734"/>
      <use xlink:href="#DejaVuSans-53" x="570.589844"/>
      <use xlink:href="#DejaVuSans-65" x="634.066406"/>
      <use xlink:href="#DejaVuSans-73" x="695.589844"/>
      <use xlink:href="#DejaVuSans-73" x="747.689453"/>
      <use xlink:href="#DejaVuSans-69" x="799.789062"/>
      <use xlink:href="#DejaVuSans-6f" x="827.572266"/>
      <use xlink:href="#DejaVuSans-6e" x="888.753906"/>
      <use xlink:href="#DejaVuSans-20" x="952.132812"/>
      <use xlink:href="#DejaVuSans-32" x="983.919922"/>
      <use xlink:href="#DejaVuSans-32" x="1047.542969"/>
      <use xlink:href="#DejaVuSans-5f" x="1111.166016"/>
      <use xlink:href="#DejaVuSans-74" x="1161.166016"/>
      <use xlink:href="#DejaVuSans-61" x="1200.375"/>
      <use xlink:href="#DejaVuSans-63" x="1261.654297"/>
      <use xlink:href="#DejaVuSans-34" x="1316.634766"/>
     </g>
    </g>
    <g id="line2d_15">
     <path d="M 101.855406 38.465205 
L 111.855406 38.465205 
L 121.855406 38.465205 
" style="fill: none; stroke: #e41a1c; stroke-width: 1.5; stroke-linecap: square"/>
    </g>
    <g id="text_15">
     <!-- Target (n=409) -->
     <g transform="translate(129.855406 41.965205)scale(0.1 -0.1)">
      <defs>
       <path id="DejaVuSans-54" d="M -19 4666 
L 3928 4666 
L 3928 4134 
L 2272 4134 
L 2272 0 
L 1638 0 
L 1638 4134 
L -19 4134 
L -19 4666 
z
" transform="scale(0.015625)"/>
       <path id="DejaVuSans-28" d="M 1984 4856 
Q 1566 4138 1362 3434 
Q 1159 2731 1159 2009 
Q 1159 1288 1364 580 
Q 1569 -128 1984 -844 
L 1484 -844 
Q 1016 -109 783 600 
Q 550 1309 550 2009 
Q 550 2706 781 3412 
Q 1013 4119 1484 4856 
L 1984 4856 
z
" transform="scale(0.015625)"/>
       <path id="DejaVuSans-3d" d="M 678 2906 
L 4684 2906 
L 4684 2381 
L 678 2381 
L 678 2906 
z
M 678 1631 
L 4684 1631 
L 4684 1100 
L 678 1100 
L 678 1631 
z
" transform="scale(0.015625)"/>
       <path id="DejaVuSans-39" d="M 703 97 
L 703 672 
Q 941 559 1184 500 
Q 1428 441 1663 441 
Q 2288 441 2617 861 
Q 2947 1281 2994 2138 
Q 2813 1869 2534 1725 
Q 2256 1581 1919 1581 
Q 1219 1581 811 2004 
Q 403 2428 403 3163 
Q 403 3881 828 4315 
Q 1253 4750 1959 4750 
Q 2769 4750 3195 4129 
Q 3622 3509 3622 2328 
Q 3622 1225 3098 567 
Q 2575 -91 1691 -91 
Q 1453 -91 1209 -44 
Q 966 3 703 97 
z
M 1959 2075 
Q 2384 2075 2632 2365 
Q 2881 2656 2881 3163 
Q 2881 3666 2632 3958 
Q 2384 4250 1959 4250 
Q 1534 4250 1286 3958 
Q 1038 3666 1038 3163 
Q 1038 2656 1286 2365 
Q 1534 2075 1959 2075 
z
" transform="scale(0.015625)"/>
       <path id="DejaVuSans-29" d="M 513 4856 
L 1013 4856 
Q 1481 4119 1714 3412 
Q 1947 2706 1947 2009 
Q 1947 1309 1714 600 
Q 1481 -109 1013 -844 
L 513 -844 
Q 928 -128 1133 580 
Q 1338 1288 1338 2009 
Q 1338 2731 1133 3434 
Q 928 4138 513 4856 
z
" transform="scale(0.015625)"/>
      </defs>
      <use xlink:href="#DejaVuSans-54"/>
      <use xlink:href="#DejaVuSans-61" x="44.583984"/>
      <use xlink:href="#DejaVuSans-72" x="105.863281"/>
      <use xlink:href="#DejaVuSans-67" x="145.226562"/>
      <use xlink:href="#DejaVuSans-65" x="208.703125"/>
      <use xlink:href="#DejaVuSans-74" x="270.226562"/>
      <use xlink:href="#DejaVuSans-20" x="309.435547"/>
      <use xlink:href="#DejaVuSans-28" x="341.222656"/>
      <use xlink:href="#DejaVuSans-6e" x="380.236328"/>
      <use xlink:href="#DejaVuSans-3d" x="443.615234"/>
      <use xlink:href="#DejaVuSans-34" x="527.404297"/>
      <use xlink:href="#DejaVuSans-30" x="591.027344"/>
      <use xlink:href="#DejaVuSans-39" x="654.650391"/>
      <use xlink:href="#DejaVuSans-29" x="718.273438"/>
     </g>
    </g>
    <g id="line2d_16">
     <path d="M 225.585093 38.465205 
L 235.585093 38.465205 
L 245.585093 38.465205 
" style="fill: none; stroke: #377eb8; stroke-width: 1.5; stroke-linecap: square"/>
    </g>
    <g id="text_16">
     <!-- Non-Target (n=1247) -->
     <g transform="translate(253.585093 41.965205)scale(0.1 -0.1)">
      <defs>
       <path id="DejaVuSans-4e" d="M 628 4666 
L 1478 4666 
L 3547 763 
L 3547 4666 
L 4159 4666 
L 4159 0 
L 3309 0 
L 1241 3903 
L 1241 0 
L 628 0 
L 628 4666 
z
" transform="scale(0.015625)"/>
       <path id="DejaVuSans-2d" d="M 313 2009 
L 1997 2009 
L 1997 1497 
L 313 1497 
L 313 2009 
z
" transform="scale(0.015625)"/>
       <path id="DejaVuSans-31" d="M 794 531 
L 1825 531 
L 1825 4091 
L 703 3866 
L 703 4441 
L 1819 4666 
L 2450 4666 
L 2450 531 
L 3481 531 
L 3481 0 
L 794 0 
L 794 531 
z
" transform="scale(0.015625)"/>
       <path id="DejaVuSans-37" d="M 525 4666 
L 3525 4666 
L 3525 4397 
L 1831 0 
L 1172 0 
L 2766 4134 
L 525 4134 
L 525 4666 
z
" transform="scale(0.015625)"/>
      </defs>
      <use xlink:href="#DejaVuSans-4e"/>
      <use xlink:href="#DejaVuSans-6f" x="74.804688"/>
      <use xlink:href="#DejaVuSans-6e" x="135.986328"/>
      <use xlink:href="#DejaVuSans-2d" x="199.365234"/>
      <use xlink:href="#DejaVuSans-54" x="226.324219"/>
      <use xlink:href="#DejaVuSans-61" x="270.908203"/>
      <use xlink:href="#DejaVuSans-72" x="332.1875"/>
      <use xlink:href="#DejaVuSans-67" x="371.550781"/>
      <use xlink:href="#DejaVuSans-65" x="435.027344"/>
      <use xlink:href="#DejaVuSans-74" x="496.550781"/>
      <use xlink:href="#DejaVuSans-20" x="535.759766"/>
      <use xlink:href="#DejaVuSans-28" x="567.546875"/>
      <use xlink:href="#DejaVuSans-6e" x="606.560547"/>
      <use xlink:href="#DejaVuSans-3d" x="669.939453"/>
      <use xlink:href="#DejaVuSans-31" x="753.728516"/>
      <use xlink:href="#DejaVuSans-32" x="817.351562"/>
      <use xlink:href="#DejaVuSans-34" x="880.974609"/>
      <use xlink:href="#DejaVuSans-37" x="944.597656"/>
      <use xlink:href="#DejaVuSans-29" x="1008.220703"/>
     </g>
    </g>
   </g>
  </g>
 </g>
 <defs>
  <clipPath id="p153961063a">
   <rect x="46.55" y="71.241125" width="367.065499" height="246.958875"/>
  </clipPath>
 </defs>
</svg>
