<?xml version="1.0" encoding="utf-8" standalone="no"?>
<!DOCTYPE svg PUBLIC "-//W3C//DTD SVG 1.1//EN"
  "http://www.w3.org/Graphics/SVG/1.1/DTD/svg11.dtd">
<svg xmlns:xlink="http://www.w3.org/1999/xlink" width="432pt" height="360pt" viewBox="0 0 432 360" xmlns="http://www.w3.org/2000/svg" version="1.1">
 <metadata>
  <rdf:RDF xmlns:dc="http://purl.org/dc/elements/1.1/" xmlns:cc="http://creativecommons.org/ns#" xmlns:rdf="http://www.w3.org/1999/02/22-rdf-syntax-ns#">
   <cc:Work>
    <dc:type rdf:resource="http://purl.org/dc/dcmitype/StillImage"/>
    <dc:date>2022-11-02T17:00:55.158153</dc:date>
    <dc:format>image/svg+xml</dc:format>
    <dc:creator>
     <cc:Agent>
      <dc:title>Matplotlib v3.5.1, https://matplotlib.org/</dc:title>
     </cc:Agent>
    </dc:creator>
   </cc:Work>
  </rdf:RDF>
 </metadata>
 <defs>
  <style type="text/css">*{stroke-linejoin: round; stroke-linecap: butt}</style>
 </defs>
 <g id="figure_1">
  <g id="patch_1">
   <path d="M 0 360 
L 432 360 
L 432 0 
L 0 0 
L 0 360 
z
" style="fill: none"/>
  </g>
  <g id="axes_1">
   <g id="patch_2">
    <path d="M 46.55 318.2 
L 413.615499 318.2 
L 413.615499 71.241125 
L 46.55 71.241125 
L 46.55 318.2 
z
" style="fill: none"/>
   </g>
   <g id="PolyCollection_1">
    <defs>
     <path id="m88d6841e8b" d="M 46.55 -142.67669 
L 46.55 -96.488828 
L 47.346238 -101.25379 
L 48.142475 -104.36475 
L 48.938713 -105.359998 
L 49.73495 -104.361569 
L 50.531188 -101.915265 
L 51.327425 -98.752395 
L 52.123663 -95.57142 
L 52.9199 -92.873666 
L 53.716138 -90.859526 
L 54.512375 -89.433852 
L 55.308613 -88.360498 
L 56.10485 -87.498877 
L 56.901088 -86.982916 
L 57.697325 -87.227393 
L 58.493563 -88.743894 
L 59.2898 -91.867827 
L 60.086038 -96.564234 
L 60.882275 -102.408935 
L 61.678513 -108.678519 
L 62.47475 -114.460784 
L 63.270988 -118.826382 
L 64.067226 -121.09211 
L 64.863463 -121.071263 
L 65.659701 -119.154331 
L 66.455938 -116.155324 
L 67.252176 -113.020068 
L 68.048413 -110.561981 
L 68.844651 -109.30491 
L 69.640888 -109.40832 
L 70.437126 -110.661327 
L 71.233363 -112.587398 
L 72.029601 -114.67287 
L 72.825838 -116.616555 
L 73.622076 -118.414458 
L 74.418313 -120.208494 
L 75.214551 -122.061797 
L 76.010788 -123.854953 
L 76.807026 -125.330375 
L 77.603263 -126.193088 
L 78.399501 -126.206998 
L 79.195739 -125.297662 
L 79.991976 -123.646728 
L 80.788214 -121.690045 
L 81.584451 -119.957818 
L 82.380689 -118.834384 
L 83.176926 -118.400034 
L 83.973164 -118.451113 
L 84.769401 -118.646609 
L 85.565639 -118.643734 
L 86.361876 -118.159928 
L 87.158114 -117.010768 
L 87.954351 -115.158147 
L 88.750589 -112.730021 
L 89.546826 -109.9733 
L 90.343064 -107.16277 
L 91.139301 -104.523311 
L 91.935539 -102.190766 
L 92.731776 -100.210566 
L 93.528014 -98.55955 
L 94.324251 -97.193705 
L 95.120489 -96.106791 
L 95.916727 -95.352685 
L 96.712964 -94.99901 
L 97.509202 -95.047503 
L 98.305439 -95.392492 
L 99.101677 -95.850097 
L 99.897914 -96.236121 
L 100.694152 -96.444127 
L 101.490389 -96.489912 
L 102.286627 -96.516398 
L 103.082864 -96.763594 
L 103.879102 -97.50156 
L 104.675339 -98.933471 
L 105.471577 -101.104302 
L 106.267814 -103.86175 
L 107.064052 -106.891006 
L 107.860289 -109.807371 
L 108.656527 -112.26794 
L 109.452764 -114.060015 
L 110.249002 -115.135906 
L 111.04524 -115.589369 
L 111.841477 -115.58941 
L 112.637715 -115.303198 
L 113.433952 -114.836234 
L 114.23019 -114.207459 
L 115.026427 -113.364276 
L 115.822665 -112.232974 
L 116.618902 -110.790334 
L 117.41514 -109.132902 
L 118.211377 -107.507706 
L 119.007615 -106.282426 
L 119.803852 -105.856334 
L 120.60009 -106.540922 
L 121.396327 -108.451354 
L 122.192565 -111.445797 
L 122.988802 -115.134851 
L 123.78504 -118.964205 
L 124.581277 -122.347334 
L 125.377515 -124.809464 
L 126.173752 -126.098242 
L 126.96999 -126.228359 
L 127.766228 -125.447092 
L 128.562465 -124.129226 
L 129.358703 -122.633231 
L 130.15494 -121.172859 
L 130.951178 -119.764604 
L 131.747415 -118.283572 
L 132.543653 -116.600841 
L 133.33989 -114.724198 
L 134.136128 -112.864297 
L 134.932365 -111.399056 
L 135.728603 -110.757053 
L 136.52484 -111.263256 
L 137.321078 -112.990344 
L 138.117315 -115.681272 
L 138.913553 -118.795733 
L 139.70979 -121.684084 
L 140.506028 -123.822674 
L 141.302265 -125.007879 
L 142.098503 -125.429145 
L 142.89474 -125.593998 
L 143.690978 -126.128066 
L 144.487216 -127.514632 
L 145.283453 -129.876629 
L 146.079691 -132.905472 
L 146.875928 -135.976371 
L 147.672166 -138.38948 
L 148.468403 -139.614631 
L 149.264641 -139.442252 
L 150.060878 -138.014584 
L 150.857116 -135.760963 
L 151.653353 -133.266992 
L 152.449591 -131.107048 
L 153.245828 -129.688494 
L 154.042066 -129.168735 
L 154.838303 -129.47288 
L 155.634541 -130.381611 
L 156.430778 -131.6379 
L 157.227016 -133.044529 
L 158.023253 -134.539573 
L 158.819491 -136.216796 
L 159.615729 -138.25053 
L 160.411966 -140.74282 
L 161.208204 -143.59082 
L 162.004441 -146.48227 
L 162.800679 -149.040503 
L 163.596916 -151.017356 
L 164.393154 -152.376856 
L 165.189391 -153.215255 
L 165.985629 -153.61997 
L 166.781866 -153.597929 
L 167.578104 -153.109501 
L 168.374341 -152.155076 
L 169.170579 -150.834095 
L 169.966816 -149.342185 
L 170.763054 -147.925745 
L 171.559291 -146.834332 
L 172.355529 -146.290216 
L 173.151766 -146.460243 
L 173.948004 -147.406316 
L 174.744241 -149.026073 
L 175.540479 -151.036639 
L 176.336717 -153.048705 
L 177.132954 -154.715591 
L 177.929192 -155.879224 
L 178.725429 -156.626609 
L 179.521667 -157.231482 
L 180.317904 -158.03017 
L 181.114142 -159.304399 
L 181.910379 -161.205513 
L 182.706617 -163.714267 
L 183.502854 -166.624772 
L 184.299092 -169.563611 
L 185.095329 -172.058055 
L 185.891567 -173.63773 
L 186.687804 -173.9317 
L 187.484042 -172.736328 
L 188.280279 -170.059244 
L 189.076517 -166.144272 
L 189.872754 -161.459262 
L 190.668992 -156.62325 
L 191.46523 -152.283067 
L 192.261467 -148.984867 
L 193.057705 -147.085867 
L 193.853942 -146.715478 
L 194.65018 -147.765245 
L 195.446417 -149.890276 
L 196.242655 -152.543183 
L 197.038892 -155.076734 
L 197.83513 -156.917578 
L 198.631367 -157.75169 
L 199.427605 -157.625168 
L 200.223842 -156.889442 
L 201.02008 -156.022565 
L 201.816317 -155.432988 
L 202.612555 -155.350511 
L 203.408792 -155.82171 
L 204.20503 -156.745976 
L 205.001267 -157.898672 
L 205.797505 -158.967025 
L 206.593742 -159.649161 
L 207.38998 -159.792643 
L 208.186218 -159.465264 
L 208.982455 -158.878223 
L 209.778693 -158.216388 
L 210.57493 -157.520656 
L 211.371168 -156.715312 
L 212.167405 -155.740659 
L 212.963643 -154.665879 
L 213.75988 -153.696432 
L 214.556118 -153.099892 
L 215.352355 -153.123515 
L 216.148593 -153.934715 
L 216.94483 -155.571941 
L 217.741068 -157.90726 
L 218.537305 -160.657743 
L 219.333543 -163.473304 
L 220.12978 -166.068415 
L 220.926018 -168.320246 
L 221.722255 -170.275093 
L 222.518493 -172.067375 
L 223.31473 -173.804671 
L 224.110968 -175.474513 
L 224.907206 -176.904123 
L 225.703443 -177.784746 
L 226.499681 -177.763731 
L 227.295918 -176.584976 
L 228.092156 -174.222186 
L 228.888393 -170.933236 
L 229.684631 -167.197561 
L 230.480868 -163.561839 
L 231.277106 -160.461296 
L 232.073343 -158.084437 
L 232.869581 -156.321777 
L 233.665818 -154.822071 
L 234.462056 -153.156379 
L 235.258293 -151.043742 
L 236.054531 -148.533498 
L 236.850768 -146.02868 
L 237.647006 -144.116345 
L 238.443243 -143.290432 
L 239.239481 -143.709745 
L 240.035719 -145.0988 
L 240.831956 -146.821047 
L 241.628194 -148.088607 
L 242.424431 -148.239029 
L 243.220669 -146.996479 
L 244.016906 -144.624012 
L 244.813144 -141.88877 
L 245.609381 -139.816526 
L 246.405619 -139.324569 
L 247.201856 -140.887656 
L 247.998094 -144.372096 
L 248.794331 -149.084955 
L 249.590569 -153.990188 
L 250.386806 -157.998595 
L 251.183044 -160.24826 
L 251.979281 -160.316728 
L 252.775519 -158.313925 
L 253.571756 -154.817653 
L 254.367994 -150.668477 
L 255.164231 -146.717361 
L 255.960469 -143.640442 
L 256.756707 -141.867154 
L 257.552944 -141.578383 
L 258.349182 -142.71503 
L 259.145419 -144.993082 
L 259.941657 -147.96335 
L 260.737894 -151.124012 
L 261.534132 -154.031681 
L 262.330369 -156.346615 
L 263.126607 -157.818651 
L 263.922844 -158.289303 
L 264.719082 -157.753589 
L 265.515319 -156.438642 
L 266.311557 -154.810505 
L 267.107794 -153.472129 
L 267.904032 -152.996981 
L 268.700269 -153.773318 
L 269.496507 -155.907774 
L 270.292744 -159.201557 
L 271.088982 -163.194775 
L 271.88522 -167.273204 
L 272.681457 -170.821601 
L 273.477695 -173.390014 
L 274.273932 -174.821851 
L 275.07017 -175.288902 
L 275.866407 -175.19962 
L 276.662645 -175.003392 
L 277.458882 -174.970888 
L 278.25512 -175.060671 
L 279.051357 -174.942178 
L 279.847595 -174.162125 
L 280.643832 -172.367972 
L 281.44007 -169.485494 
L 282.236307 -165.78597 
L 283.032545 -161.827974 
L 283.828782 -158.296226 
L 284.62502 -155.786773 
L 285.421257 -154.613324 
L 286.217495 -154.709152 
L 287.013732 -155.659225 
L 287.80997 -156.844103 
L 288.606208 -157.642461 
L 289.402445 -157.630909 
L 290.198683 -156.721826 
L 290.99492 -155.182603 
L 291.791158 -153.508092 
L 292.587395 -152.184241 
L 293.383633 -151.457982 
L 294.17987 -151.242529 
L 294.976108 -151.209612 
L 295.772345 -151.00723 
L 296.568583 -150.475343 
L 297.36482 -149.755722 
L 298.161058 -149.256671 
L 298.957295 -149.494293 
L 299.753533 -150.868307 
L 300.54977 -153.452234 
L 301.346008 -156.886613 
L 302.142245 -160.441834 
L 302.938483 -163.258437 
L 303.73472 -164.683041 
L 304.530958 -164.554896 
L 305.327196 -163.305616 
L 306.123433 -161.81843 
L 306.919671 -161.10464 
L 307.715908 -161.929933 
L 308.512146 -164.532069 
L 309.308383 -168.528091 
L 310.104621 -173.033376 
L 310.900858 -176.947275 
L 311.697096 -179.30896 
L 312.493333 -179.60272 
L 313.289571 -177.904044 
L 314.085808 -174.815633 
L 314.882046 -171.228246 
L 315.678283 -168.013899 
L 316.474521 -165.773359 
L 317.270758 -164.717707 
L 318.066996 -164.693017 
L 318.863233 -165.304493 
L 319.659471 -166.081428 
L 320.455709 -166.632253 
L 321.251946 -166.746519 
L 322.048184 -166.416776 
L 322.844421 -165.777653 
L 323.640659 -165.00105 
L 324.436896 -164.206792 
L 325.233134 -163.428621 
L 326.029371 -162.630599 
L 326.825609 -161.739758 
L 327.621846 -160.674209 
L 328.418084 -159.371974 
L 329.214321 -157.829011 
L 330.010559 -156.134197 
L 330.806796 -154.477904 
L 331.603034 -153.127169 
L 332.399271 -152.380361 
L 333.195509 -152.511548 
L 333.991746 -153.701444 
L 334.787984 -155.961397 
L 335.584221 -159.081584 
L 336.380459 -162.637157 
L 337.176697 -166.054203 
L 337.972934 -168.705191 
L 338.769172 -170.010297 
L 339.565409 -169.548745 
L 340.361647 -167.177334 
L 341.157884 -163.10529 
L 341.954122 -157.858208 
L 342.750359 -152.129433 
L 343.546597 -146.600383 
L 344.342834 -141.812324 
L 345.139072 -138.100431 
L 345.935309 -135.55393 
L 346.731547 -133.998346 
L 347.527784 -133.045623 
L 348.324022 -132.25033 
L 349.120259 -131.321412 
L 349.916497 -130.262974 
L 350.712734 -129.350522 
L 351.508972 -128.970356 
L 352.30521 -129.429064 
L 353.101447 -130.820411 
L 353.897685 -132.980779 
L 354.693922 -135.53145 
L 355.49016 -137.990827 
L 356.286397 -139.924202 
L 357.082635 -141.080024 
L 357.878872 -141.456885 
L 358.67511 -141.272571 
L 359.471347 -140.851077 
L 360.267585 -140.48016 
L 361.063822 -140.296104 
L 361.86006 -140.229529 
L 362.656297 -140.015976 
L 363.452535 -139.263513 
L 364.248772 -137.570467 
L 365.04501 -134.673403 
L 365.841247 -130.57538 
L 366.637485 -125.594884 
L 367.433722 -120.303922 
L 368.22996 -115.380968 
L 369.026198 -111.439966 
L 369.822435 -108.890462 
L 370.618673 -107.855621 
L 371.41491 -108.159563 
L 372.211148 -109.394553 
L 373.007385 -111.055542 
L 373.803623 -112.700329 
L 374.59986 -114.070332 
L 375.396098 -115.128621 
L 376.192335 -116.019417 
L 376.988573 -116.985311 
L 377.78481 -118.272695 
L 378.581048 -120.036362 
L 379.377285 -122.250364 
L 380.173523 -124.656434 
L 380.96976 -126.790534 
L 381.765998 -128.102097 
L 382.562235 -128.129086 
L 383.358473 -126.655436 
L 384.15471 -123.787718 
L 384.950948 -119.931614 
L 385.747186 -115.686558 
L 386.543423 -111.688868 
L 387.339661 -108.43563 
L 388.135898 -106.135321 
L 388.932136 -104.646867 
L 389.728373 -103.554078 
L 390.524611 -102.363035 
L 391.320848 -100.737833 
L 392.117086 -98.671176 
L 392.913323 -96.519267 
L 393.709561 -94.895549 
L 394.505798 -94.464641 
L 395.302036 -95.700254 
L 396.098273 -98.683818 
L 396.894511 -103.024471 
L 397.690748 -107.950649 
L 398.486986 -112.557073 
L 399.283223 -116.105886 
L 400.079461 -118.25184 
L 400.875699 -119.105916 
L 401.671936 -119.13627 
L 402.468174 -118.970056 
L 403.264411 -119.175764 
L 404.060649 -120.087512 
L 404.856886 -121.701921 
L 405.653124 -123.672014 
L 406.449361 -125.413627 
L 407.245599 -126.307893 
L 408.041836 -125.9274 
L 408.838074 -124.182842 
L 409.634311 -121.322739 
L 410.430549 -117.810832 
L 411.226786 -114.166096 
L 412.023024 -110.850774 
L 412.819261 -108.227269 
L 413.615499 -106.553812 
L 413.615499 -213.048669 
L 413.615499 -213.048669 
L 412.819261 -214.402754 
L 412.023024 -216.708402 
L 411.226786 -219.730266 
L 410.430549 -223.097983 
L 409.634311 -226.350406 
L 408.838074 -229.029461 
L 408.041836 -230.78742 
L 407.245599 -231.469165 
L 406.449361 -231.15113 
L 405.653124 -230.140953 
L 404.856886 -228.917983 
L 404.060649 -227.99189 
L 403.264411 -227.697424 
L 402.468174 -228.010115 
L 401.671936 -228.49348 
L 400.875699 -228.436657 
L 400.079461 -227.134706 
L 399.283223 -224.187149 
L 398.486986 -219.679945 
L 397.690748 -214.182001 
L 396.894511 -208.573328 
L 396.098273 -203.782398 
L 395.302036 -200.522831 
L 394.505798 -199.101934 
L 393.709561 -199.356765 
L 392.913323 -200.742138 
L 392.117086 -202.55083 
L 391.320848 -204.18197 
L 390.524611 -205.344695 
L 389.728373 -206.116937 
L 388.932136 -206.855223 
L 388.135898 -208.015508 
L 387.339661 -209.962429 
L 386.543423 -212.819975 
L 385.747186 -216.402583 
L 384.950948 -220.248678 
L 384.15471 -223.753768 
L 383.358473 -226.358475 
L 382.562235 -227.714712 
L 381.765998 -227.764693 
L 380.96976 -226.718562 
L 380.173523 -224.965318 
L 379.377285 -222.960945 
L 378.581048 -221.116845 
L 377.78481 -219.698265 
L 376.988573 -218.752146 
L 376.192335 -218.099096 
L 375.396098 -217.413241 
L 374.59986 -216.368115 
L 373.803623 -214.789132 
L 373.007385 -212.747683 
L 372.211148 -210.569225 
L 371.41491 -208.765479 
L 370.618673 -207.914275 
L 369.822435 -208.506116 
L 369.026198 -210.784778 
L 368.22996 -214.632232 
L 367.433722 -219.56036 
L 366.637485 -224.829502 
L 365.841247 -229.652402 
L 365.04501 -233.406869 
L 364.248772 -235.789367 
L 363.452535 -236.872294 
L 362.656297 -237.052032 
L 361.86006 -236.897809 
L 361.063822 -236.938641 
L 360.267585 -237.466271 
L 359.471347 -238.440736 
L 358.67511 -239.541495 
L 357.878872 -240.330662 
L 357.082635 -240.443367 
L 356.286397 -239.722292 
L 355.49016 -238.255548 
L 354.693922 -236.323095 
L 353.897685 -234.287755 
L 353.101447 -232.473758 
L 352.30521 -231.074224 
L 351.508972 -230.121856 
L 350.712734 -229.53628 
L 349.916497 -229.220788 
L 349.120259 -229.145251 
L 348.324022 -229.363486 
L 347.527784 -229.975725 
L 346.731547 -231.098932 
L 345.935309 -232.874969 
L 345.139072 -235.468086 
L 344.342834 -238.994863 
L 343.546597 -243.408056 
L 342.750359 -248.423195 
L 341.954122 -253.559152 
L 341.157884 -258.267259 
L 340.361647 -262.060835 
L 339.565409 -264.587315 
L 338.769172 -265.66071 
L 337.972934 -265.293835 
L 337.176697 -263.718432 
L 336.380459 -261.34698 
L 335.584221 -258.671369 
L 334.787984 -256.150808 
L 333.991746 -254.140945 
L 333.195509 -252.868805 
L 332.399271 -252.427516 
L 331.603034 -252.777408 
L 330.806796 -253.764184 
L 330.010559 -255.161254 
L 329.214321 -256.722996 
L 328.418084 -258.231658 
L 327.621846 -259.535975 
L 326.825609 -260.584028 
L 326.029371 -261.434768 
L 325.233134 -262.223323 
L 324.436896 -263.080385 
L 323.640659 -264.045622 
L 322.844421 -265.026544 
L 322.048184 -265.824119 
L 321.251946 -266.210952 
L 320.455709 -266.032806 
L 319.659471 -265.306077 
L 318.863233 -264.27864 
L 318.066996 -263.412503 
L 317.270758 -263.263526 
L 316.474521 -264.276607 
L 315.678283 -266.57509 
L 314.882046 -269.842837 
L 314.085808 -273.363095 
L 313.289571 -276.210642 
L 312.493333 -277.533472 
L 311.697096 -276.830291 
L 310.900858 -274.132889 
L 310.104621 -270.026059 
L 309.308383 -265.483206 
L 308.512146 -261.555768 
L 307.715908 -259.018735 
L 306.919671 -258.108655 
L 306.123433 -258.462971 
L 305.327196 -259.284414 
L 304.530958 -259.659402 
L 303.73472 -258.897632 
L 302.938483 -256.76627 
L 302.142245 -253.545553 
L 301.346008 -249.903346 
L 300.54977 -246.642334 
L 299.753533 -244.407461 
L 298.957295 -243.457671 
L 298.161058 -243.595258 
L 297.36482 -244.287677 
L 296.568583 -244.929978 
L 295.772345 -245.120006 
L 294.976108 -244.812222 
L 294.17987 -244.286374 
L 293.383633 -243.969137 
L 292.587395 -244.213763 
L 291.791158 -245.135116 
L 290.99492 -246.551739 
L 290.198683 -248.04154 
L 289.402445 -249.097901 
L 288.606208 -249.347867 
L 287.80997 -248.750466 
L 287.013732 -247.67049 
L 286.217495 -246.767421 
L 285.421257 -246.740127 
L 284.62502 -248.046304 
L 283.828782 -250.725199 
L 283.032545 -254.391098 
L 282.236307 -258.385331 
L 281.44007 -262.01723 
L 280.643832 -264.796208 
L 279.847595 -266.56221 
L 279.051357 -267.467331 
L 278.25512 -267.832286 
L 277.458882 -267.963777 
L 276.662645 -268.018478 
L 275.866407 -267.952005 
L 275.07017 -267.546166 
L 274.273932 -266.492882 
L 273.477695 -264.514937 
L 272.681457 -261.496587 
L 271.88522 -257.58458 
L 271.088982 -253.206481 
L 270.292744 -248.980781 
L 269.496507 -245.540917 
L 268.700269 -243.338961 
L 267.904032 -242.50889 
L 267.107794 -242.846339 
L 266.311557 -243.904131 
L 265.515319 -245.147266 
L 264.719082 -246.089833 
L 263.922844 -246.372839 
L 263.126607 -245.798245 
L 262.330369 -244.351116 
L 261.534132 -242.203738 
L 260.737894 -239.667629 
L 259.941657 -237.094975 
L 259.145419 -234.797081 
L 258.349182 -233.04199 
L 257.552944 -232.104438 
L 256.756707 -232.272278 
L 255.960469 -233.751123 
L 255.164231 -236.512729 
L 254.367994 -240.197107 
L 253.571756 -244.143186 
L 252.775519 -247.53095 
L 251.979281 -249.570582 
L 251.183044 -249.693359 
L 250.386806 -247.720658 
L 249.590569 -243.965212 
L 248.794331 -239.195014 
L 247.998094 -234.430696 
L 247.201856 -230.639225 
L 246.405619 -228.450513 
L 245.609381 -228.006459 
L 244.813144 -228.977547 
L 244.016906 -230.71305 
L 243.220669 -232.460738 
L 242.424431 -233.596263 
L 241.628194 -233.808534 
L 240.831956 -233.179236 
L 240.035719 -232.117068 
L 239.239481 -231.162046 
L 238.443243 -230.754172 
L 237.647006 -231.079155 
L 236.850768 -232.05123 
L 236.054531 -233.410938 
L 235.258293 -234.866693 
L 234.462056 -236.216641 
L 233.665818 -237.425007 
L 232.869581 -238.641719 
L 232.073343 -240.144539 
L 231.277106 -242.201268 
L 230.480868 -244.906696 
L 229.684631 -248.086805 
L 228.888393 -251.33214 
L 228.092156 -254.142328 
L 227.295918 -256.104366 
L 226.499681 -257.022624 
L 225.703443 -256.959299 
L 224.907206 -256.181539 
L 224.110968 -255.035555 
L 223.31473 -253.793714 
L 222.518493 -252.544071 
L 221.722255 -251.181733 
L 220.926018 -249.50415 
L 220.12978 -247.350739 
L 219.333543 -244.708755 
L 218.537305 -241.742783 
L 217.741068 -238.755232 
L 216.94483 -236.107827 
L 216.148593 -234.125079 
L 215.352355 -232.998376 
L 214.556118 -232.728663 
L 213.75988 -233.150345 
L 212.963643 -234.033081 
L 212.167405 -235.188467 
L 211.371168 -236.497541 
L 210.57493 -237.853948 
L 209.778693 -239.106266 
L 208.982455 -240.075086 
L 208.186218 -240.624313 
L 207.38998 -240.706184 
L 206.593742 -240.339986 
L 205.797505 -239.571108 
L 205.001267 -238.486526 
L 204.20503 -237.280917 
L 203.408792 -236.271331 
L 202.612555 -235.784543 
L 201.816317 -235.970051 
L 201.02008 -236.680574 
L 200.223842 -237.512267 
L 199.427605 -237.966576 
L 198.631367 -237.62381 
L 197.83513 -236.255322 
L 197.038892 -233.872736 
L 196.242655 -230.747082 
L 195.446417 -227.392245 
L 194.65018 -224.485702 
L 193.853942 -222.7095 
L 193.057705 -222.551861 
L 192.261467 -224.153577 
L 191.46523 -227.275283 
L 190.668992 -231.394822 
L 189.872754 -235.871868 
L 189.076517 -240.094298 
L 188.280279 -243.563718 
L 187.484042 -245.931624 
L 186.687804 -247.020258 
L 185.891567 -246.840037 
L 185.095329 -245.586338 
L 184.299092 -243.60036 
L 183.502854 -241.304326 
L 182.706617 -239.127564 
L 181.910379 -237.425927 
L 181.114142 -236.395007 
L 180.317904 -236.006219 
L 179.521667 -236.013578 
L 178.725429 -236.048014 
L 177.929192 -235.755847 
L 177.132954 -234.910101 
L 176.336717 -233.458371 
L 175.540479 -231.520103 
L 174.744241 -229.362633 
L 173.948004 -227.356741 
L 173.151766 -225.891902 
L 172.355529 -225.252855 
L 171.559291 -225.50634 
L 170.763054 -226.467797 
L 169.966816 -227.780767 
L 169.170579 -229.063387 
L 168.374341 -230.030927 
L 167.578104 -230.530491 
L 166.781866 -230.495627 
L 165.985629 -229.887395 
L 165.189391 -228.68815 
L 164.393154 -226.950376 
L 163.596916 -224.83979 
L 162.800679 -222.598651 
L 162.004441 -220.430055 
L 161.208204 -218.40123 
L 160.411966 -216.46006 
L 159.615729 -214.535051 
L 158.819491 -212.610102 
L 158.023253 -210.717494 
L 157.227016 -208.889167 
L 156.430778 -207.145903 
L 155.634541 -205.558003 
L 154.838303 -204.320344 
L 154.042066 -203.749984 
L 153.245828 -204.176046 
L 152.449591 -205.776799 
L 151.653353 -208.446225 
L 150.857116 -211.746221 
L 150.060878 -214.972349 
L 149.264641 -217.336421 
L 148.468403 -218.219314 
L 147.672166 -217.388084 
L 146.875928 -215.067023 
L 146.079691 -211.827971 
L 145.283453 -208.364832 
L 144.487216 -205.261969 
L 143.690978 -202.83493 
L 142.89474 -201.071386 
L 142.098503 -199.67518 
L 141.302265 -198.204455 
L 140.506028 -196.264829 
L 139.70979 -193.682482 
L 138.913553 -190.581524 
L 138.117315 -187.338577 
L 137.321078 -184.446854 
L 136.52484 -182.34787 
L 135.728603 -181.289269 
L 134.932365 -181.259001 
L 134.136128 -182.02504 
L 133.33989 -183.264205 
L 132.543653 -184.70607 
L 131.747415 -186.21514 
L 130.951178 -187.773909 
L 130.15494 -189.398215 
L 129.358703 -191.04278 
L 128.562465 -192.539085 
L 127.766228 -193.586236 
L 126.96999 -193.807214 
L 126.173752 -192.866284 
L 125.377515 -190.610508 
L 124.581277 -187.171633 
L 123.78504 -182.97281 
L 122.988802 -178.628102 
L 122.192565 -174.773262 
L 121.396327 -171.894568 
L 120.60009 -170.218347 
L 119.803852 -169.692906 
L 119.007615 -170.058193 
L 118.211377 -170.963603 
L 117.41514 -172.083708 
L 116.618902 -173.19273 
L 115.822665 -174.183858 
L 115.026427 -175.043129 
L 114.23019 -175.799539 
L 113.433952 -176.470375 
L 112.637715 -177.022076 
L 111.841477 -177.357931 
L 111.04524 -177.33651 
L 110.249002 -176.81085 
L 109.452764 -175.670197 
L 108.656527 -173.868915 
L 107.860289 -171.439211 
L 107.064052 -168.492273 
L 106.267814 -165.215055 
L 105.471577 -161.859785 
L 104.675339 -158.71855 
L 103.879102 -156.075856 
L 103.082864 -154.141673 
L 102.286627 -152.98435 
L 101.490389 -152.497044 
L 100.694152 -152.42752 
L 99.897914 -152.466269 
L 99.101677 -152.348495 
L 98.305439 -151.92577 
L 97.509202 -151.19506 
L 96.712964 -150.294275 
L 95.916727 -149.467598 
L 95.120489 -148.995728 
L 94.324251 -149.099252 
L 93.528014 -149.859536 
L 92.731776 -151.208634 
L 91.935539 -152.987744 
L 91.139301 -155.01333 
L 90.343064 -157.101367 
L 89.546826 -159.059725 
L 88.750589 -160.684716 
L 87.954351 -161.785036 
L 87.158114 -162.219704 
L 86.361876 -161.950174 
L 85.565639 -161.101393 
L 84.769401 -159.995221 
L 83.973164 -159.088117 
L 83.176926 -158.79402 
L 82.380689 -159.293992 
L 81.584451 -160.475419 
L 80.788214 -162.020116 
L 79.991976 -163.53686 
L 79.195739 -164.651142 
L 78.399501 -165.056656 
L 77.603263 -164.579075 
L 76.807026 -163.245517 
L 76.010788 -161.277382 
L 75.214551 -158.970601 
L 74.418313 -156.556018 
L 73.622076 -154.158496 
L 72.825838 -151.857406 
L 72.029601 -149.743068 
L 71.233363 -147.90932 
L 70.437126 -146.454463 
L 69.640888 -145.550446 
L 68.844651 -145.480011 
L 68.048413 -146.51759 
L 67.252176 -148.691188 
L 66.455938 -151.598437 
L 65.659701 -154.4321 
L 64.863463 -156.210745 
L 64.067226 -156.080155 
L 63.270988 -153.572187 
L 62.47475 -148.782649 
L 61.678513 -142.429321 
L 60.882275 -135.715986 
L 60.086038 -129.970776 
L 59.2898 -126.170934 
L 58.493563 -124.613432 
L 57.697325 -124.925034 
L 56.901088 -126.338895 
L 56.10485 -128.041437 
L 55.308613 -129.463491 
L 54.512375 -130.454169 
L 53.716138 -131.297314 
L 52.9199 -132.555062 
L 52.123663 -134.770481 
L 51.327425 -138.124014 
L 50.531188 -142.204861 
L 49.73495 -146.062393 
L 48.938713 -148.558382 
L 48.142475 -148.839722 
L 47.346238 -146.699093 
L 46.55 -142.67669 
z
" style="stroke: #e41a1c; stroke-opacity: 0.3"/>
    </defs>
    <g clip-path="url(#pb4c86a0266)">
     <use xlink:href="#m88d6841e8b" x="0" y="360" style="fill: #e41a1c; fill-opacity: 0.3; stroke: #e41a1c; stroke-opacity: 0.3"/>
    </g>
   </g>
   <g id="PolyCollection_2">
    <defs>
     <path id="m3048740681" d="M 46.55 -134.239441 
L 46.55 -107.059228 
L 47.346238 -108.615248 
L 48.142475 -109.885578 
L 48.938713 -110.78967 
L 49.73495 -111.374059 
L 50.531188 -111.790081 
L 51.327425 -112.235918 
L 52.123663 -112.874007 
L 52.9199 -113.762476 
L 53.716138 -114.84369 
L 54.512375 -115.996307 
L 55.308613 -117.112611 
L 56.10485 -118.149393 
L 56.901088 -119.126739 
L 57.697325 -120.085309 
L 58.493563 -121.031254 
L 59.2898 -121.899693 
L 60.086038 -122.560168 
L 60.882275 -122.870536 
L 61.678513 -122.752026 
L 62.47475 -122.239386 
L 63.270988 -121.477167 
L 64.067226 -120.670395 
L 64.863463 -120.018063 
L 65.659701 -119.656498 
L 66.455938 -119.628418 
L 67.252176 -119.882461 
L 68.048413 -120.297866 
L 68.844651 -120.72722 
L 69.640888 -121.046158 
L 70.437126 -121.192229 
L 71.233363 -121.175473 
L 72.029601 -121.055638 
L 72.825838 -120.895748 
L 73.622076 -120.715903 
L 74.418313 -120.471823 
L 75.214551 -120.075626 
L 76.010788 -119.451947 
L 76.807026 -118.594583 
L 77.603263 -117.58583 
L 78.399501 -116.570072 
L 79.195739 -115.704589 
L 79.991976 -115.121311 
L 80.788214 -114.907856 
L 81.584451 -115.093569 
L 82.380689 -115.63277 
L 83.176926 -116.4071 
L 83.973164 -117.270395 
L 84.769401 -118.120946 
L 85.565639 -118.9501 
L 86.361876 -119.823224 
L 87.158114 -120.805033 
L 87.954351 -121.882826 
L 88.750589 -122.932043 
L 89.546826 -123.73296 
L 90.343064 -124.023567 
L 91.139301 -123.569846 
L 91.935539 -122.236022 
L 92.731776 -120.037963 
L 93.528014 -117.162895 
L 94.324251 -113.944274 
L 95.120489 -110.791588 
L 95.916727 -108.091762 
L 96.712964 -106.114962 
L 97.509202 -104.960185 
L 98.305439 -104.561773 
L 99.101677 -104.747612 
L 99.897914 -105.318726 
L 100.694152 -106.112222 
L 101.490389 -107.027946 
L 102.286627 -108.026616 
L 103.082864 -109.116242 
L 103.879102 -110.333266 
L 104.675339 -111.717695 
L 105.471577 -113.289697 
L 106.267814 -115.041015 
L 107.064052 -116.944076 
L 107.860289 -118.962056 
L 108.656527 -121.039271 
L 109.452764 -123.072367 
L 110.249002 -124.888089 
L 111.04524 -126.254338 
L 111.841477 -126.925427 
L 112.637715 -126.704876 
L 113.433952 -125.506406 
L 114.23019 -123.400009 
L 115.026427 -120.628712 
L 115.822665 -117.577081 
L 116.618902 -114.683926 
L 117.41514 -112.31779 
L 118.211377 -110.664793 
L 119.007615 -109.676307 
L 119.803852 -109.099214 
L 120.60009 -108.573843 
L 121.396327 -107.760773 
L 122.192565 -106.45698 
L 122.988802 -104.672904 
L 123.78504 -102.650905 
L 124.581277 -100.812327 
L 125.377515 -99.637153 
L 126.173752 -99.506472 
L 126.96999 -100.563254 
L 127.766228 -102.650069 
L 128.562465 -105.353743 
L 129.358703 -108.139982 
L 130.15494 -110.519093 
L 130.951178 -112.17609 
L 131.747415 -113.021319 
L 132.543653 -113.159503 
L 133.33989 -112.80979 
L 134.136128 -112.218383 
L 134.932365 -111.589415 
L 135.728603 -111.040717 
L 136.52484 -110.587021 
L 137.321078 -110.163069 
L 138.117315 -109.680375 
L 138.913553 -109.088405 
L 139.70979 -108.401192 
L 140.506028 -107.673768 
L 141.302265 -106.953362 
L 142.098503 -106.250334 
L 142.89474 -105.551762 
L 143.690978 -104.85976 
L 144.487216 -104.219388 
L 145.283453 -103.720364 
L 146.079691 -103.478628 
L 146.875928 -103.606616 
L 147.672166 -104.176403 
L 148.468403 -105.184328 
L 149.264641 -106.536213 
L 150.060878 -108.073136 
L 150.857116 -109.633744 
L 151.653353 -111.120765 
L 152.449591 -112.530679 
L 153.245828 -113.927925 
L 154.042066 -115.378884 
L 154.838303 -116.883946 
L 155.634541 -118.346691 
L 156.430778 -119.594839 
L 157.227016 -120.443151 
L 158.023253 -120.769507 
L 158.819491 -120.574523 
L 159.615729 -120.001055 
L 160.411966 -119.299961 
L 161.208204 -118.746205 
L 162.004441 -118.534039 
L 162.800679 -118.695219 
L 163.596916 -119.082495 
L 164.393154 -119.431296 
L 165.189391 -119.475098 
L 165.985629 -119.064961 
L 166.781866 -118.242968 
L 167.578104 -117.239408 
L 168.374341 -116.39245 
L 169.170579 -116.020502 
L 169.966816 -116.296403 
L 170.763054 -117.174929 
L 171.559291 -118.404375 
L 172.355529 -119.618738 
L 173.151766 -120.473926 
L 173.948004 -120.773863 
L 174.744241 -120.537672 
L 175.540479 -119.981951 
L 176.336717 -119.428277 
L 177.132954 -119.176369 
L 177.929192 -119.397479 
L 178.725429 -120.091333 
L 179.521667 -121.118316 
L 180.317904 -122.283681 
L 181.114142 -123.427731 
L 181.910379 -124.482014 
L 182.706617 -125.471029 
L 183.502854 -126.468521 
L 184.299092 -127.537275 
L 185.095329 -128.684627 
L 185.891567 -129.852003 
L 186.687804 -130.935641 
L 187.484042 -131.819671 
L 188.280279 -132.404499 
L 189.076517 -132.620239 
L 189.872754 -132.424552 
L 190.668992 -131.789384 
L 191.46523 -130.687004 
L 192.261467 -129.092631 
L 193.057705 -127.016041 
L 193.853942 -124.555489 
L 194.65018 -121.932252 
L 195.446417 -119.466044 
L 196.242655 -117.483959 
L 197.038892 -116.202974 
L 197.83513 -115.644047 
L 198.631367 -115.615896 
L 199.427605 -115.769924 
L 200.223842 -115.700933 
L 201.02008 -115.06592 
L 201.816317 -113.694877 
L 202.612555 -111.663137 
L 203.408792 -109.291245 
L 204.20503 -107.058703 
L 205.001267 -105.456916 
L 205.797505 -104.835195 
L 206.593742 -105.292621 
L 207.38998 -106.645054 
L 208.186218 -108.473659 
L 208.982455 -110.243837 
L 209.778693 -111.463377 
L 210.57493 -111.829626 
L 211.371168 -111.312513 
L 212.167405 -110.14313 
L 212.963643 -108.714581 
L 213.75988 -107.437095 
L 214.556118 -106.603409 
L 215.352355 -106.312945 
L 216.148593 -106.476134 
L 216.94483 -106.885509 
L 217.741068 -107.314539 
L 218.537305 -107.602481 
L 219.333543 -107.699839 
L 220.12978 -107.670719 
L 220.926018 -107.655153 
L 221.722255 -107.797241 
L 222.518493 -108.155718 
L 223.31473 -108.636233 
L 224.110968 -108.98836 
L 224.907206 -108.878524 
L 225.703443 -108.005081 
L 226.499681 -106.203865 
L 227.295918 -103.504224 
L 228.092156 -100.124731 
L 228.888393 -96.418287 
L 229.684631 -92.786339 
L 230.480868 -89.587548 
L 231.277106 -87.067688 
L 232.073343 -85.327634 
L 232.869581 -84.329878 
L 233.665818 -83.930234 
L 234.462056 -83.919704 
L 235.258293 -84.065654 
L 236.054531 -84.143504 
L 236.850768 -83.953192 
L 237.647006 -83.324843 
L 238.443243 -82.130561 
L 239.239481 -80.312415 
L 240.035719 -77.917881 
L 240.831956 -75.114996 
L 241.628194 -72.16614 
L 242.424431 -69.365384 
L 243.220669 -66.965514 
L 244.016906 -65.120427 
L 244.813144 -63.852009 
L 245.609381 -63.046778 
L 246.405619 -62.48637 
L 247.201856 -61.912819 
L 247.998094 -61.111616 
L 248.794331 -59.980459 
L 249.590569 -58.555248 
L 250.386806 -56.986 
L 251.183044 -55.479691 
L 251.979281 -54.235351 
L 252.775519 -53.395708 
L 253.571756 -53.025403 
L 254.367994 -53.113398 
L 255.164231 -53.588772 
L 255.960469 -54.338994 
L 256.756707 -55.225909 
L 257.552944 -56.099873 
L 258.349182 -56.815892 
L 259.145419 -57.252301 
L 259.941657 -57.331807 
L 260.737894 -57.044226 
L 261.534132 -56.466819 
L 262.330369 -55.771421 
L 263.126607 -55.205318 
L 263.922844 -55.043812 
L 264.719082 -55.524024 
L 265.515319 -56.781047 
L 266.311557 -58.804798 
L 267.107794 -61.429554 
L 267.904032 -64.361007 
L 268.700269 -67.237379 
L 269.496507 -69.711334 
L 270.292744 -71.532009 
L 271.088982 -72.604207 
L 271.88522 -73.00547 
L 272.681457 -72.950411 
L 273.477695 -72.708072 
L 274.273932 -72.500661 
L 275.07017 -72.425537 
L 275.866407 -72.431892 
L 276.662645 -72.35373 
L 277.458882 -71.979164 
L 278.25512 -71.131679 
L 279.051357 -69.747477 
L 279.847595 -67.930157 
L 280.643832 -65.956121 
L 281.44007 -64.21145 
L 282.236307 -63.072625 
L 283.032545 -62.77863 
L 283.828782 -63.347347 
L 284.62502 -64.563552 
L 285.421257 -66.032365 
L 286.217495 -67.278797 
L 287.013732 -67.875566 
L 287.80997 -67.574585 
L 288.606208 -66.401032 
L 289.402445 -64.665711 
L 290.198683 -62.880064 
L 290.99492 -61.601131 
L 291.791158 -61.263994 
L 292.587395 -62.058012 
L 293.383633 -63.881094 
L 294.17987 -66.378255 
L 294.976108 -69.047869 
L 295.772345 -71.380668 
L 296.568583 -72.988724 
L 297.36482 -73.685292 
L 298.161058 -73.497268 
L 298.957295 -72.618422 
L 299.753533 -71.32976 
L 300.54977 -69.917386 
L 301.346008 -68.610378 
L 302.142245 -67.551775 
L 302.938483 -66.80214 
L 303.73472 -66.367825 
L 304.530958 -66.237507 
L 305.327196 -66.407879 
L 306.123433 -66.885946 
L 306.919671 -67.669958 
L 307.715908 -68.725645 
L 308.512146 -69.978248 
L 309.308383 -71.330128 
L 310.104621 -72.69334 
L 310.900858 -74.015724 
L 311.697096 -75.285898 
L 312.493333 -76.518335 
L 313.289571 -77.728796 
L 314.085808 -78.910408 
L 314.882046 -80.019253 
L 315.678283 -80.978622 
L 316.474521 -81.704368 
L 317.270758 -82.141897 
L 318.066996 -82.296362 
L 318.863233 -82.241209 
L 319.659471 -82.102073 
L 320.455709 -82.021252 
L 321.251946 -82.107711 
L 322.048184 -82.384936 
L 322.844421 -82.759391 
L 323.640659 -83.037342 
L 324.436896 -82.995838 
L 325.233134 -82.478191 
L 326.029371 -81.467248 
L 326.825609 -80.106289 
L 327.621846 -78.665626 
L 328.418084 -77.473025 
L 329.214321 -76.824375 
L 330.010559 -76.895839 
L 330.806796 -77.68665 
L 331.603034 -79.021154 
L 332.399271 -80.615499 
L 333.195509 -82.180046 
L 333.991746 -83.510323 
L 334.787984 -84.526036 
L 335.584221 -85.24797 
L 336.380459 -85.732166 
L 337.176697 -85.998916 
L 337.972934 -85.994311 
L 338.769172 -85.60355 
L 339.565409 -84.707376 
L 340.361647 -83.249615 
L 341.157884 -81.287367 
L 341.954122 -79.004421 
L 342.750359 -76.683909 
L 343.546597 -74.643126 
L 344.342834 -73.145604 
L 345.139072 -72.323726 
L 345.935309 -72.150218 
L 346.731547 -72.475284 
L 347.527784 -73.106817 
L 348.324022 -73.891846 
L 349.120259 -74.763407 
L 349.916497 -75.740928 
L 350.712734 -76.893421 
L 351.508972 -78.28586 
L 352.30521 -79.932679 
L 353.101447 -81.77886 
L 353.897685 -83.717807 
L 354.693922 -85.636472 
L 355.49016 -87.464005 
L 356.286397 -89.197266 
L 357.082635 -90.887836 
L 357.878872 -92.593795 
L 358.67511 -94.317558 
L 359.471347 -95.963715 
L 360.267585 -97.34295 
L 361.063822 -98.229614 
L 361.86006 -98.449271 
L 362.656297 -97.956379 
L 363.452535 -96.868706 
L 364.248772 -95.445935 
L 365.04501 -94.019933 
L 365.841247 -92.894882 
L 366.637485 -92.247705 
L 367.433722 -92.066956 
L 368.22996 -92.161951 
L 369.026198 -92.244386 
L 369.822435 -92.048747 
L 370.618673 -91.4415 
L 371.41491 -90.479637 
L 372.211148 -89.403119 
L 373.007385 -88.563048 
L 373.803623 -88.303314 
L 374.59986 -88.832098 
L 375.396098 -90.136322 
L 376.192335 -91.981732 
L 376.988573 -94.000058 
L 377.78481 -95.821273 
L 378.581048 -97.192004 
L 379.377285 -98.041565 
L 380.173523 -98.483239 
L 380.96976 -98.758753 
L 381.765998 -99.146343 
L 382.562235 -99.862736 
L 383.358473 -100.99364 
L 384.15471 -102.475552 
L 384.950948 -104.127097 
L 385.747186 -105.71297 
L 386.543423 -107.018298 
L 387.339661 -107.913096 
L 388.135898 -108.385989 
L 388.932136 -108.534483 
L 389.728373 -108.520254 
L 390.524611 -108.518369 
L 391.320848 -108.686051 
L 392.117086 -109.151291 
L 392.913323 -110.001453 
L 393.709561 -111.261259 
L 394.505798 -112.872278 
L 395.302036 -114.69196 
L 396.098273 -116.514651 
L 396.894511 -118.103546 
L 397.690748 -119.227913 
L 398.486986 -119.711569 
L 399.283223 -119.492242 
L 400.079461 -118.670094 
L 400.875699 -117.510429 
L 401.671936 -116.380794 
L 402.468174 -115.638373 
L 403.264411 -115.514449 
L 404.060649 -116.047365 
L 404.856886 -117.091203 
L 405.653124 -118.394067 
L 406.449361 -119.708172 
L 407.245599 -120.883255 
L 408.041836 -121.906438 
L 408.838074 -122.87776 
L 409.634311 -123.938668 
L 410.430549 -125.187363 
L 411.226786 -126.61499 
L 412.023024 -128.083552 
L 412.819261 -129.353338 
L 413.615499 -130.156907 
L 413.615499 -191.375405 
L 413.615499 -191.375405 
L 412.819261 -190.168749 
L 412.023024 -188.523217 
L 411.226786 -186.82999 
L 410.430549 -185.415474 
L 409.634311 -184.410457 
L 408.838074 -183.713816 
L 408.041836 -183.066881 
L 407.245599 -182.197707 
L 406.449361 -180.962791 
L 405.653124 -179.421627 
L 404.856886 -177.817431 
L 404.060649 -176.480851 
L 403.264411 -175.703348 
L 402.468174 -175.631523 
L 401.671936 -176.21748 
L 400.875699 -177.234756 
L 400.079461 -178.344389 
L 399.283223 -179.185362 
L 398.486986 -179.463433 
L 397.690748 -179.019562 
L 396.894511 -177.862474 
L 396.098273 -176.153151 
L 395.302036 -174.144436 
L 394.505798 -172.10203 
L 393.709561 -170.244362 
L 392.913323 -168.721066 
L 392.117086 -167.617382 
L 391.320848 -166.955798 
L 390.524611 -166.683248 
L 389.728373 -166.66094 
L 388.932136 -166.680482 
L 388.135898 -166.509532 
L 387.339661 -165.950182 
L 386.543423 -164.89222 
L 385.747186 -163.351619 
L 384.950948 -161.483714 
L 384.15471 -159.55565 
L 383.358473 -157.871245 
L 382.562235 -156.667433 
L 381.765998 -156.02303 
L 380.96976 -155.820341 
L 380.173523 -155.775721 
L 379.377285 -155.53188 
L 378.581048 -154.783341 
L 377.78481 -153.392568 
L 376.988573 -151.451155 
L 376.192335 -149.25773 
L 375.396098 -147.221107 
L 374.59986 -145.730383 
L 373.803623 -145.038067 
L 373.007385 -145.189185 
L 372.211148 -146.010675 
L 371.41491 -147.166805 
L 370.618673 -148.272139 
L 369.822435 -149.027195 
L 369.026198 -149.322173 
L 368.22996 -149.263251 
L 367.433722 -149.114501 
L 366.637485 -149.184672 
L 365.841247 -149.704152 
L 365.04501 -150.732625 
L 364.248772 -152.126499 
L 363.452535 -153.579476 
L 362.656297 -154.724794 
L 361.86006 -155.259659 
L 361.063822 -155.038803 
L 360.267585 -154.102139 
L 359.471347 -152.634132 
L 358.67511 -150.881866 
L 357.878872 -149.067953 
L 357.082635 -147.327972 
L 356.286397 -145.690071 
L 355.49016 -144.097889 
L 354.693922 -142.465847 
L 353.897685 -140.738608 
L 353.101447 -138.926625 
L 352.30521 -137.102797 
L 351.508972 -135.365791 
L 350.712734 -133.791677 
L 349.916497 -132.400333 
L 349.120259 -131.157283 
L 348.324022 -130.013004 
L 347.527784 -128.959079 
L 346.731547 -128.067538 
L 345.935309 -127.489044 
L 345.139072 -127.409649 
L 344.342834 -127.984999 
L 343.546597 -129.275758 
L 342.750359 -131.203971 
L 341.954122 -133.549585 
L 341.157884 -135.996659 
L 340.361647 -138.219645 
L 339.565409 -139.974113 
L 338.769172 -141.148462 
L 337.972934 -141.755632 
L 337.176697 -141.878673 
L 336.380459 -141.608019 
L 335.584221 -141.000579 
L 334.787984 -140.076593 
L 333.991746 -138.848854 
L 333.195509 -137.366304 
L 332.399271 -135.748439 
L 331.603034 -134.190953 
L 330.806796 -132.935374 
L 330.010559 -132.208803 
L 329.214321 -132.151966 
L 328.418084 -132.75889 
L 327.621846 -133.855948 
L 326.825609 -135.140814 
L 326.029371 -136.277279 
L 325.233134 -137.008888 
L 324.436896 -137.237725 
L 323.640659 -137.036073 
L 322.844421 -136.594473 
L 322.048184 -136.141083 
L 321.251946 -135.86393 
L 320.455709 -135.853778 
L 319.659471 -136.079262 
L 318.863233 -136.40469 
L 318.066996 -136.647428 
L 317.270758 -136.649504 
L 316.474521 -136.326104 
L 315.678283 -135.672012 
L 314.882046 -134.73426 
L 314.085808 -133.575503 
L 313.289571 -132.248521 
L 312.493333 -130.789726 
L 311.697096 -129.23023 
L 310.900858 -127.616436 
L 310.104621 -126.024482 
L 309.308383 -124.554398 
L 308.512146 -123.302479 
L 307.715908 -122.328336 
L 306.919671 -121.638531 
L 306.123433 -121.195848 
L 305.327196 -120.946254 
L 304.530958 -120.84944 
L 303.73472 -120.900996 
L 302.938483 -121.138578 
L 302.142245 -121.626378 
L 301.346008 -122.416844 
L 300.54977 -123.498701 
L 299.753533 -124.752099 
L 298.957295 -125.936602 
L 298.161058 -126.728455 
L 297.36482 -126.805165 
L 296.568583 -125.950524 
L 295.772345 -124.143444 
L 294.976108 -121.597187 
L 294.17987 -118.731144 
L 293.383633 -116.077377 
L 292.587395 -114.143936 
L 291.791158 -113.273511 
L 290.99492 -113.541821 
L 290.198683 -114.733174 
L 289.402445 -116.403465 
L 288.606208 -118.008956 
L 287.80997 -119.058678 
L 287.013732 -119.2488 
L 286.217495 -118.546928 
L 285.421257 -117.203566 
L 284.62502 -115.677986 
L 283.828782 -114.492225 
L 283.032545 -114.061501 
L 282.236307 -114.568448 
L 281.44007 -115.92801 
L 280.643832 -117.841911 
L 279.847595 -119.905379 
L 279.051357 -121.724947 
L 278.25512 -123.021167 
L 277.458882 -123.695553 
L 276.662645 -123.840843 
L 275.866407 -123.68404 
L 275.07017 -123.480903 
L 274.273932 -123.408638 
L 273.477695 -123.502273 
L 272.681457 -123.651722 
L 271.88522 -123.644494 
L 271.088982 -123.231925 
L 270.292744 -122.202628 
L 269.496507 -120.450887 
L 268.700269 -118.023616 
L 267.904032 -115.127869 
L 267.107794 -112.090937 
L 266.311557 -109.283235 
L 265.515319 -107.028174 
L 264.719082 -105.527013 
L 263.922844 -104.820714 
L 263.126607 -104.797136 
L 262.330369 -105.2355 
L 261.534132 -105.869123 
L 260.737894 -106.44732 
L 259.941657 -106.782688 
L 259.145419 -106.778112 
L 258.349182 -106.428681 
L 257.552944 -105.801837 
L 256.756707 -105.007756 
L 255.960469 -104.174917 
L 255.164231 -103.43754 
L 254.367994 -102.928531 
L 253.571756 -102.767236 
L 252.775519 -103.037005 
L 251.979281 -103.759872 
L 251.183044 -104.879764 
L 250.386806 -106.263899 
L 249.590569 -107.726765 
L 248.794331 -109.073597 
L 247.998094 -110.153681 
L 247.201856 -110.907513 
L 246.405619 -111.395813 
L 245.609381 -111.798114 
L 244.813144 -112.373415 
L 244.016906 -113.384573 
L 243.220669 -115.0061 
L 242.424431 -117.252403 
L 241.628194 -119.961757 
L 240.831956 -122.845717 
L 240.035719 -125.575568 
L 239.239481 -127.867476 
L 238.443243 -129.540188 
L 237.647006 -130.541095 
L 236.850768 -130.944655 
L 236.054531 -130.925057 
L 235.258293 -130.709372 
L 234.462056 -130.528142 
L 233.665818 -130.586881 
L 232.869581 -131.062912 
L 232.073343 -132.109479 
L 231.277106 -133.843603 
L 230.480868 -136.311591 
L 229.684631 -139.447046 
L 228.888393 -143.044978 
L 228.092156 -146.771776 
L 227.295918 -150.220396 
L 226.499681 -153.004164 
L 225.703443 -154.860952 
L 224.907206 -155.727059 
L 224.110968 -155.749822 
L 223.31473 -155.235822 
L 222.518493 -154.556149 
L 221.722255 -154.039357 
L 220.926018 -153.878314 
L 220.12978 -154.078624 
L 219.333543 -154.475313 
L 218.537305 -154.824938 
L 217.741068 -154.937287 
L 216.94483 -154.779607 
L 216.148593 -154.497902 
L 215.352355 -154.347851 
L 214.556118 -154.572152 
L 213.75988 -155.281868 
L 212.963643 -156.389468 
L 212.167405 -157.616952 
L 211.371168 -158.576076 
L 210.57493 -158.895083 
L 209.778693 -158.350757 
L 208.982455 -156.962159 
L 208.186218 -155.012744 
L 207.38998 -152.98805 
L 206.593742 -151.440349 
L 205.797505 -150.81935 
L 205.001267 -151.328023 
L 204.20503 -152.86014 
L 203.408792 -155.043969 
L 202.612555 -157.371846 
L 201.816317 -159.364208 
L 201.02008 -160.712952 
L 200.223842 -161.36317 
L 199.427605 -161.510215 
L 198.631367 -161.511851 
L 197.83513 -161.747639 
L 197.038892 -162.485538 
L 196.242655 -163.813516 
L 195.446417 -165.651789 
L 194.65018 -167.816739 
L 193.853942 -170.090148 
L 193.057705 -172.265052 
L 192.261467 -174.168972 
L 191.46523 -175.678081 
L 190.668992 -176.725978 
L 189.872754 -177.297826 
L 189.076517 -177.414222 
L 188.280279 -177.1161 
L 187.484042 -176.462961 
L 186.687804 -175.539291 
L 185.891567 -174.452273 
L 185.095329 -173.309918 
L 184.299092 -172.187166 
L 183.502854 -171.101827 
L 182.706617 -170.01683 
L 181.910379 -168.872577 
L 181.114142 -167.635754 
L 180.317904 -166.341426 
L 179.521667 -165.105673 
L 178.725429 -164.097759 
L 177.929192 -163.478503 
L 177.132954 -163.328574 
L 176.336717 -163.594661 
L 175.540479 -164.080685 
L 174.744241 -164.495334 
L 173.948004 -164.546384 
L 173.151766 -164.050697 
L 172.355529 -163.016281 
L 171.559291 -161.657671 
L 170.763054 -160.329152 
L 169.966816 -159.396785 
L 169.170579 -159.098321 
L 168.374341 -159.448905 
L 167.578104 -160.233718 
L 166.781866 -161.093861 
L 165.985629 -161.672538 
L 165.189391 -161.76033 
L 164.393154 -161.376763 
L 163.596916 -160.751631 
L 162.800679 -160.216306 
L 162.004441 -160.055187 
L 161.208204 -160.382322 
L 160.411966 -161.092643 
L 159.615729 -161.903885 
L 158.819491 -162.469484 
L 158.023253 -162.513993 
L 157.227016 -161.933608 
L 156.430778 -160.817544 
L 155.634541 -159.383654 
L 154.838303 -157.864808 
L 154.042066 -156.407107 
L 153.245828 -155.029709 
L 152.449591 -153.657536 
L 151.653353 -152.196937 
L 150.857116 -150.611082 
L 150.060878 -148.957439 
L 149.264641 -147.375691 
L 148.468403 -146.038429 
L 147.672166 -145.087648 
L 146.875928 -144.581088 
L 146.079691 -144.470022 
L 145.283453 -144.623873 
L 144.487216 -144.8955 
L 143.690978 -145.194347 
L 142.89474 -145.521982 
L 142.098503 -145.945763 
L 141.302265 -146.530086 
L 140.506028 -147.275076 
L 139.70979 -148.100519 
L 138.913553 -148.874841 
L 138.117315 -149.465656 
L 137.321078 -149.792154 
L 136.52484 -149.865116 
L 135.728603 -149.79454 
L 134.932365 -149.745304 
L 134.136128 -149.844337 
L 133.33989 -150.080302 
L 132.543653 -150.262036 
L 131.747415 -150.073727 
L 130.951178 -149.209321 
L 130.15494 -147.518225 
L 129.358703 -145.094231 
L 128.562465 -142.27341 
L 127.766228 -139.54664 
L 126.96999 -137.421471 
L 126.173752 -136.279354 
L 125.377515 -136.268574 
L 124.581277 -137.263889 
L 123.78504 -138.906279 
L 122.988802 -140.717022 
L 122.192565 -142.2555 
L 121.396327 -143.267083 
L 120.60009 -143.762497 
L 119.803852 -143.99439 
L 119.007615 -144.343567 
L 118.211377 -145.167246 
L 117.41514 -146.673164 
L 116.618902 -148.859932 
L 115.822665 -151.527468 
L 115.026427 -154.337217 
L 114.23019 -156.896781 
L 113.433952 -158.850798 
L 112.637715 -159.958646 
L 111.841477 -160.140729 
L 111.04524 -159.47592 
L 110.249002 -158.153656 
L 109.452764 -156.40717 
L 108.656527 -154.458013 
L 107.860289 -152.483024 
L 107.064052 -150.595761 
L 106.267814 -148.838713 
L 105.471577 -147.192788 
L 104.675339 -145.608921 
L 103.879102 -144.047717 
L 103.082864 -142.503037 
L 102.286627 -141.000117 
L 101.490389 -139.581705 
L 100.694152 -138.302678 
L 99.897914 -137.237097 
L 99.101677 -136.483249 
L 98.305439 -136.153993 
L 97.509202 -136.356668 
L 96.712964 -137.172396 
L 95.916727 -138.634818 
L 95.120489 -140.703716 
L 94.324251 -143.237768 
L 93.528014 -145.985414 
L 92.731776 -148.610456 
L 91.935539 -150.757229 
L 91.139301 -152.138387 
L 90.343064 -152.61135 
L 89.546826 -152.209757 
L 88.750589 -151.115215 
L 87.954351 -149.583027 
L 87.158114 -147.857685 
L 86.361876 -146.116839 
L 85.565639 -144.459623 
L 84.769401 -142.925831 
L 83.973164 -141.522487 
L 83.176926 -140.250663 
L 82.380689 -139.138116 
L 81.584451 -138.264527 
L 80.788214 -137.748503 
L 79.991976 -137.68443 
L 79.195739 -138.066042 
L 78.399501 -138.758735 
L 77.603263 -139.550604 
L 76.807026 -140.247784 
L 76.010788 -140.749213 
L 75.214551 -141.063461 
L 74.418313 -141.270226 
L 73.622076 -141.461058 
L 72.825838 -141.689675 
L 72.029601 -141.945553 
L 71.233363 -142.155813 
L 70.437126 -142.217396 
L 69.640888 -142.050876 
L 68.844651 -141.653981 
L 68.048413 -141.125616 
L 67.252176 -140.644784 
L 66.455938 -140.407219 
L 65.659701 -140.543331 
L 64.863463 -141.05526 
L 64.067226 -141.807899 
L 63.270988 -142.582189 
L 62.47475 -143.16481 
L 61.678513 -143.427324 
L 60.882275 -143.356521 
L 60.086038 -143.026044 
L 59.2898 -142.535621 
L 58.493563 -141.958815 
L 57.697325 -141.321735 
L 56.901088 -140.610892 
L 56.10485 -139.802358 
L 55.308613 -138.898652 
L 54.512375 -137.953989 
L 53.716138 -137.070094 
L 52.9199 -136.364056 
L 52.123663 -135.927036 
L 51.327425 -135.789452 
L 50.531188 -135.896561 
L 49.73495 -136.100208 
L 48.938713 -136.184912 
L 48.142475 -135.941369 
L 47.346238 -135.267216 
L 46.55 -134.239441 
z
" style="stroke: #377eb8; stroke-opacity: 0.3"/>
    </defs>
    <g clip-path="url(#pb4c86a0266)">
     <use xlink:href="#m3048740681" x="0" y="360" style="fill: #377eb8; fill-opacity: 0.3; stroke: #377eb8; stroke-opacity: 0.3"/>
    </g>
   </g>
   <g id="patch_3">
    <path d="M 229.843878 318.2 
L 229.843878 71.241125 
L 331.762281 71.241125 
L 331.762281 318.2 
z
" clip-path="url(#pb4c86a0266)" style="fill: #808080; opacity: 0.3"/>
   </g>
   <g id="matplotlib.axis_1">
    <g id="xtick_1">
     <g id="line2d_1">
      <defs>
       <path id="m099e8627ee" d="M 0 0 
L 0 3.5 
" style="stroke: #000000; stroke-width: 0.8"/>
      </defs>
      <g>
       <use xlink:href="#m099e8627ee" x="87.158114" y="318.2" style="stroke: #000000; stroke-width: 0.8"/>
      </g>
     </g>
     <g id="text_1">
      <!-- 0.0 -->
      <g transform="translate(79.206551 332.798437)scale(0.1 -0.1)">
       <defs>
        <path id="DejaVuSans-30" d="M 2034 4250 
Q 1547 4250 1301 3770 
Q 1056 3291 1056 2328 
Q 1056 1369 1301 889 
Q 1547 409 2034 409 
Q 2525 409 2770 889 
Q 3016 1369 3016 2328 
Q 3016 3291 2770 3770 
Q 2525 4250 2034 4250 
z
M 2034 4750 
Q 2819 4750 3233 4129 
Q 3647 3509 3647 2328 
Q 3647 1150 3233 529 
Q 2819 -91 2034 -91 
Q 1250 -91 836 529 
Q 422 1150 422 2328 
Q 422 3509 836 4129 
Q 1250 4750 2034 4750 
z
" transform="scale(0.015625)"/>
        <path id="DejaVuSans-2e" d="M 684 794 
L 1344 794 
L 1344 0 
L 684 0 
L 684 794 
z
" transform="scale(0.015625)"/>
       </defs>
       <use xlink:href="#DejaVuSans-30"/>
       <use xlink:href="#DejaVuSans-2e" x="63.623047"/>
       <use xlink:href="#DejaVuSans-30" x="95.410156"/>
      </g>
     </g>
    </g>
    <g id="xtick_2">
     <g id="line2d_2">
      <g>
       <use xlink:href="#m099e8627ee" x="168.692836" y="318.2" style="stroke: #000000; stroke-width: 0.8"/>
      </g>
     </g>
     <g id="text_2">
      <!-- 0.2 -->
      <g transform="translate(160.741274 332.798437)scale(0.1 -0.1)">
       <defs>
        <path id="DejaVuSans-32" d="M 1228 531 
L 3431 531 
L 3431 0 
L 469 0 
L 469 531 
Q 828 903 1448 1529 
Q 2069 2156 2228 2338 
Q 2531 2678 2651 2914 
Q 2772 3150 2772 3378 
Q 2772 3750 2511 3984 
Q 2250 4219 1831 4219 
Q 1534 4219 1204 4116 
Q 875 4013 500 3803 
L 500 4441 
Q 881 4594 1212 4672 
Q 1544 4750 1819 4750 
Q 2544 4750 2975 4387 
Q 3406 4025 3406 3419 
Q 3406 3131 3298 2873 
Q 3191 2616 2906 2266 
Q 2828 2175 2409 1742 
Q 1991 1309 1228 531 
z
" transform="scale(0.015625)"/>
       </defs>
       <use xlink:href="#DejaVuSans-30"/>
       <use xlink:href="#DejaVuSans-2e" x="63.623047"/>
       <use xlink:href="#DejaVuSans-32" x="95.410156"/>
      </g>
     </g>
    </g>
    <g id="xtick_3">
     <g id="line2d_3">
      <g>
       <use xlink:href="#m099e8627ee" x="250.227559" y="318.2" style="stroke: #000000; stroke-width: 0.8"/>
      </g>
     </g>
     <g id="text_3">
      <!-- 0.4 -->
      <g transform="translate(242.275996 332.798437)scale(0.1 -0.1)">
       <defs>
        <path id="DejaVuSans-34" d="M 2419 4116 
L 825 1625 
L 2419 1625 
L 2419 4116 
z
M 2253 4666 
L 3047 4666 
L 3047 1625 
L 3713 1625 
L 3713 1100 
L 3047 1100 
L 3047 0 
L 2419 0 
L 2419 1100 
L 313 1100 
L 313 1709 
L 2253 4666 
z
" transform="scale(0.015625)"/>
       </defs>
       <use xlink:href="#DejaVuSans-30"/>
       <use xlink:href="#DejaVuSans-2e" x="63.623047"/>
       <use xlink:href="#DejaVuSans-34" x="95.410156"/>
      </g>
     </g>
    </g>
    <g id="xtick_4">
     <g id="line2d_4">
      <g>
       <use xlink:href="#m099e8627ee" x="331.762281" y="318.2" style="stroke: #000000; stroke-width: 0.8"/>
      </g>
     </g>
     <g id="text_4">
      <!-- 0.6 -->
      <g transform="translate(323.810719 332.798437)scale(0.1 -0.1)">
       <defs>
        <path id="DejaVuSans-36" d="M 2113 2584 
Q 1688 2584 1439 2293 
Q 1191 2003 1191 1497 
Q 1191 994 1439 701 
Q 1688 409 2113 409 
Q 2538 409 2786 701 
Q 3034 994 3034 1497 
Q 3034 2003 2786 2293 
Q 2538 2584 2113 2584 
z
M 3366 4563 
L 3366 3988 
Q 3128 4100 2886 4159 
Q 2644 4219 2406 4219 
Q 1781 4219 1451 3797 
Q 1122 3375 1075 2522 
Q 1259 2794 1537 2939 
Q 1816 3084 2150 3084 
Q 2853 3084 3261 2657 
Q 3669 2231 3669 1497 
Q 3669 778 3244 343 
Q 2819 -91 2113 -91 
Q 1303 -91 875 529 
Q 447 1150 447 2328 
Q 447 3434 972 4092 
Q 1497 4750 2381 4750 
Q 2619 4750 2861 4703 
Q 3103 4656 3366 4563 
z
" transform="scale(0.015625)"/>
       </defs>
       <use xlink:href="#DejaVuSans-30"/>
       <use xlink:href="#DejaVuSans-2e" x="63.623047"/>
       <use xlink:href="#DejaVuSans-36" x="95.410156"/>
      </g>
     </g>
    </g>
    <g id="xtick_5">
     <g id="line2d_5">
      <g>
       <use xlink:href="#m099e8627ee" x="413.297004" y="318.2" style="stroke: #000000; stroke-width: 0.8"/>
      </g>
     </g>
     <g id="text_5">
      <!-- 0.8 -->
      <g transform="translate(405.345441 332.798437)scale(0.1 -0.1)">
       <defs>
        <path id="DejaVuSans-38" d="M 2034 2216 
Q 1584 2216 1326 1975 
Q 1069 1734 1069 1313 
Q 1069 891 1326 650 
Q 1584 409 2034 409 
Q 2484 409 2743 651 
Q 3003 894 3003 1313 
Q 3003 1734 2745 1975 
Q 2488 2216 2034 2216 
z
M 1403 2484 
Q 997 2584 770 2862 
Q 544 3141 544 3541 
Q 544 4100 942 4425 
Q 1341 4750 2034 4750 
Q 2731 4750 3128 4425 
Q 3525 4100 3525 3541 
Q 3525 3141 3298 2862 
Q 3072 2584 2669 2484 
Q 3125 2378 3379 2068 
Q 3634 1759 3634 1313 
Q 3634 634 3220 271 
Q 2806 -91 2034 -91 
Q 1263 -91 848 271 
Q 434 634 434 1313 
Q 434 1759 690 2068 
Q 947 2378 1403 2484 
z
M 1172 3481 
Q 1172 3119 1398 2916 
Q 1625 2713 2034 2713 
Q 2441 2713 2670 2916 
Q 2900 3119 2900 3481 
Q 2900 3844 2670 4047 
Q 2441 4250 2034 4250 
Q 1625 4250 1398 4047 
Q 1172 3844 1172 3481 
z
" transform="scale(0.015625)"/>
       </defs>
       <use xlink:href="#DejaVuSans-30"/>
       <use xlink:href="#DejaVuSans-2e" x="63.623047"/>
       <use xlink:href="#DejaVuSans-38" x="95.410156"/>
      </g>
     </g>
    </g>
    <g id="text_6">
     <!-- seconds -->
     <g transform="translate(209.645249 346.476562)scale(0.1 -0.1)">
      <defs>
       <path id="DejaVuSans-73" d="M 2834 3397 
L 2834 2853 
Q 2591 2978 2328 3040 
Q 2066 3103 1784 3103 
Q 1356 3103 1142 2972 
Q 928 2841 928 2578 
Q 928 2378 1081 2264 
Q 1234 2150 1697 2047 
L 1894 2003 
Q 2506 1872 2764 1633 
Q 3022 1394 3022 966 
Q 3022 478 2636 193 
Q 2250 -91 1575 -91 
Q 1294 -91 989 -36 
Q 684 19 347 128 
L 347 722 
Q 666 556 975 473 
Q 1284 391 1588 391 
Q 1994 391 2212 530 
Q 2431 669 2431 922 
Q 2431 1156 2273 1281 
Q 2116 1406 1581 1522 
L 1381 1569 
Q 847 1681 609 1914 
Q 372 2147 372 2553 
Q 372 3047 722 3315 
Q 1072 3584 1716 3584 
Q 2034 3584 2315 3537 
Q 2597 3491 2834 3397 
z
" transform="scale(0.015625)"/>
       <path id="DejaVuSans-65" d="M 3597 1894 
L 3597 1613 
L 953 1613 
Q 991 1019 1311 708 
Q 1631 397 2203 397 
Q 2534 397 2845 478 
Q 3156 559 3463 722 
L 3463 178 
Q 3153 47 2828 -22 
Q 2503 -91 2169 -91 
Q 1331 -91 842 396 
Q 353 884 353 1716 
Q 353 2575 817 3079 
Q 1281 3584 2069 3584 
Q 2775 3584 3186 3129 
Q 3597 2675 3597 1894 
z
M 3022 2063 
Q 3016 2534 2758 2815 
Q 2500 3097 2075 3097 
Q 1594 3097 1305 2825 
Q 1016 2553 972 2059 
L 3022 2063 
z
" transform="scale(0.015625)"/>
       <path id="DejaVuSans-63" d="M 3122 3366 
L 3122 2828 
Q 2878 2963 2633 3030 
Q 2388 3097 2138 3097 
Q 1578 3097 1268 2742 
Q 959 2388 959 1747 
Q 959 1106 1268 751 
Q 1578 397 2138 397 
Q 2388 397 2633 464 
Q 2878 531 3122 666 
L 3122 134 
Q 2881 22 2623 -34 
Q 2366 -91 2075 -91 
Q 1284 -91 818 406 
Q 353 903 353 1747 
Q 353 2603 823 3093 
Q 1294 3584 2113 3584 
Q 2378 3584 2631 3529 
Q 2884 3475 3122 3366 
z
" transform="scale(0.015625)"/>
       <path id="DejaVuSans-6f" d="M 1959 3097 
Q 1497 3097 1228 2736 
Q 959 2375 959 1747 
Q 959 1119 1226 758 
Q 1494 397 1959 397 
Q 2419 397 2687 759 
Q 2956 1122 2956 1747 
Q 2956 2369 2687 2733 
Q 2419 3097 1959 3097 
z
M 1959 3584 
Q 2709 3584 3137 3096 
Q 3566 2609 3566 1747 
Q 3566 888 3137 398 
Q 2709 -91 1959 -91 
Q 1206 -91 779 398 
Q 353 888 353 1747 
Q 353 2609 779 3096 
Q 1206 3584 1959 3584 
z
" transform="scale(0.015625)"/>
       <path id="DejaVuSans-6e" d="M 3513 2113 
L 3513 0 
L 2938 0 
L 2938 2094 
Q 2938 2591 2744 2837 
Q 2550 3084 2163 3084 
Q 1697 3084 1428 2787 
Q 1159 2491 1159 1978 
L 1159 0 
L 581 0 
L 581 3500 
L 1159 3500 
L 1159 2956 
Q 1366 3272 1645 3428 
Q 1925 3584 2291 3584 
Q 2894 3584 3203 3211 
Q 3513 2838 3513 2113 
z
" transform="scale(0.015625)"/>
       <path id="DejaVuSans-64" d="M 2906 2969 
L 2906 4863 
L 3481 4863 
L 3481 0 
L 2906 0 
L 2906 525 
Q 2725 213 2448 61 
Q 2172 -91 1784 -91 
Q 1150 -91 751 415 
Q 353 922 353 1747 
Q 353 2572 751 3078 
Q 1150 3584 1784 3584 
Q 2172 3584 2448 3432 
Q 2725 3281 2906 2969 
z
M 947 1747 
Q 947 1113 1208 752 
Q 1469 391 1925 391 
Q 2381 391 2643 752 
Q 2906 1113 2906 1747 
Q 2906 2381 2643 2742 
Q 2381 3103 1925 3103 
Q 1469 3103 1208 2742 
Q 947 2381 947 1747 
z
" transform="scale(0.015625)"/>
      </defs>
      <use xlink:href="#DejaVuSans-73"/>
      <use xlink:href="#DejaVuSans-65" x="52.099609"/>
      <use xlink:href="#DejaVuSans-63" x="113.623047"/>
      <use xlink:href="#DejaVuSans-6f" x="168.603516"/>
      <use xlink:href="#DejaVuSans-6e" x="229.785156"/>
      <use xlink:href="#DejaVuSans-64" x="293.164062"/>
      <use xlink:href="#DejaVuSans-73" x="356.640625"/>
     </g>
    </g>
   </g>
   <g id="matplotlib.axis_2">
    <g id="ytick_1">
     <g id="line2d_6">
      <defs>
       <path id="m8d9eae2abe" d="M 0 0 
L -3.5 0 
" style="stroke: #000000; stroke-width: 0.8"/>
      </defs>
      <g>
       <use xlink:href="#m8d9eae2abe" x="46.55" y="304.699986" style="stroke: #000000; stroke-width: 0.8"/>
      </g>
     </g>
     <g id="text_7">
      <!-- 2 -->
      <g transform="translate(24.807812 308.499205)scale(0.1 -0.1)">
       <defs>
        <path id="DejaVuSans-2212" d="M 678 2272 
L 4684 2272 
L 4684 1741 
L 678 1741 
L 678 2272 
z
" transform="scale(0.015625)"/>
       </defs>
       <use xlink:href="#DejaVuSans-2212"/>
       <use xlink:href="#DejaVuSans-32" x="83.789062"/>
      </g>
     </g>
    </g>
    <g id="ytick_2">
     <g id="line2d_7">
      <g>
       <use xlink:href="#m8d9eae2abe" x="46.55" y="267.840705" style="stroke: #000000; stroke-width: 0.8"/>
      </g>
     </g>
     <g id="text_8">
      <!-- 1 -->
      <g transform="translate(24.807812 271.639924)scale(0.1 -0.1)">
       <defs>
        <path id="DejaVuSans-31" d="M 794 531 
L 1825 531 
L 1825 4091 
L 703 3866 
L 703 4441 
L 1819 4666 
L 2450 4666 
L 2450 531 
L 3481 531 
L 3481 0 
L 794 0 
L 794 531 
z
" transform="scale(0.015625)"/>
       </defs>
       <use xlink:href="#DejaVuSans-2212"/>
       <use xlink:href="#DejaVuSans-31" x="83.789062"/>
      </g>
     </g>
    </g>
    <g id="ytick_3">
     <g id="line2d_8">
      <g>
       <use xlink:href="#m8d9eae2abe" x="46.55" y="230.981424" style="stroke: #000000; stroke-width: 0.8"/>
      </g>
     </g>
     <g id="text_9">
      <!-- 0 -->
      <g transform="translate(33.1875 234.780643)scale(0.1 -0.1)">
       <use xlink:href="#DejaVuSans-30"/>
      </g>
     </g>
    </g>
    <g id="ytick_4">
     <g id="line2d_9">
      <g>
       <use xlink:href="#m8d9eae2abe" x="46.55" y="194.122143" style="stroke: #000000; stroke-width: 0.8"/>
      </g>
     </g>
     <g id="text_10">
      <!-- 1 -->
      <g transform="translate(33.1875 197.921362)scale(0.1 -0.1)">
       <use xlink:href="#DejaVuSans-31"/>
      </g>
     </g>
    </g>
    <g id="ytick_5">
     <g id="line2d_10">
      <g>
       <use xlink:href="#m8d9eae2abe" x="46.55" y="157.262862" style="stroke: #000000; stroke-width: 0.8"/>
      </g>
     </g>
     <g id="text_11">
      <!-- 2 -->
      <g transform="translate(33.1875 161.062081)scale(0.1 -0.1)">
       <use xlink:href="#DejaVuSans-32"/>
      </g>
     </g>
    </g>
    <g id="ytick_6">
     <g id="line2d_11">
      <g>
       <use xlink:href="#m8d9eae2abe" x="46.55" y="120.403581" style="stroke: #000000; stroke-width: 0.8"/>
      </g>
     </g>
     <g id="text_12">
      <!-- 3 -->
      <g transform="translate(33.1875 124.202799)scale(0.1 -0.1)">
       <defs>
        <path id="DejaVuSans-33" d="M 2597 2516 
Q 3050 2419 3304 2112 
Q 3559 1806 3559 1356 
Q 3559 666 3084 287 
Q 2609 -91 1734 -91 
Q 1441 -91 1130 -33 
Q 819 25 488 141 
L 488 750 
Q 750 597 1062 519 
Q 1375 441 1716 441 
Q 2309 441 2620 675 
Q 2931 909 2931 1356 
Q 2931 1769 2642 2001 
Q 2353 2234 1838 2234 
L 1294 2234 
L 1294 2753 
L 1863 2753 
Q 2328 2753 2575 2939 
Q 2822 3125 2822 3475 
Q 2822 3834 2567 4026 
Q 2313 4219 1838 4219 
Q 1578 4219 1281 4162 
Q 984 4106 628 3988 
L 628 4550 
Q 988 4650 1302 4700 
Q 1616 4750 1894 4750 
Q 2613 4750 3031 4423 
Q 3450 4097 3450 3541 
Q 3450 3153 3228 2886 
Q 3006 2619 2597 2516 
z
" transform="scale(0.015625)"/>
       </defs>
       <use xlink:href="#DejaVuSans-33"/>
      </g>
     </g>
    </g>
    <g id="ytick_7">
     <g id="line2d_12">
      <g>
       <use xlink:href="#m8d9eae2abe" x="46.55" y="83.5443" style="stroke: #000000; stroke-width: 0.8"/>
      </g>
     </g>
     <g id="text_13">
      <!-- 4 -->
      <g transform="translate(33.1875 87.343518)scale(0.1 -0.1)">
       <use xlink:href="#DejaVuSans-34"/>
      </g>
     </g>
    </g>
    <g id="text_14">
     <!-- V -->
     <g transform="translate(18.728125 201.322125)rotate(-90)scale(0.1 -0.1)">
      <defs>
       <path id="DejaVuSans-b5" d="M 544 -1331 
L 544 3500 
L 1119 3500 
L 1119 1325 
Q 1119 872 1334 640 
Q 1550 409 1972 409 
Q 2434 409 2667 671 
Q 2900 934 2900 1459 
L 2900 3500 
L 3475 3500 
L 3475 806 
Q 3475 619 3529 530 
Q 3584 441 3700 441 
Q 3728 441 3778 458 
Q 3828 475 3916 513 
L 3916 50 
Q 3788 -22 3673 -56 
Q 3559 -91 3450 -91 
Q 3234 -91 3106 31 
Q 2978 153 2931 403 
Q 2775 156 2548 32 
Q 2322 -91 2016 -91 
Q 1697 -91 1473 31 
Q 1250 153 1119 397 
L 1119 -1331 
L 544 -1331 
z
" transform="scale(0.015625)"/>
       <path id="DejaVuSans-56" d="M 1831 0 
L 50 4666 
L 709 4666 
L 2188 738 
L 3669 4666 
L 4325 4666 
L 2547 0 
L 1831 0 
z
" transform="scale(0.015625)"/>
      </defs>
      <use xlink:href="#DejaVuSans-b5"/>
      <use xlink:href="#DejaVuSans-56" x="63.623047"/>
     </g>
    </g>
   </g>
   <g id="line2d_13">
    <path d="M 46.55 240.417241 
L 47.346238 236.023559 
L 48.142475 233.397764 
L 48.938713 233.04081 
L 49.73495 234.788019 
L 50.531188 237.939937 
L 52.123663 244.82905 
L 52.9199 247.285636 
L 53.716138 248.92158 
L 56.901088 253.339095 
L 57.697325 253.923787 
L 58.493563 253.321337 
L 59.2898 250.980619 
L 60.086038 246.732495 
L 61.678513 234.44608 
L 62.47475 228.378283 
L 63.270988 223.800716 
L 64.067226 221.413867 
L 64.863463 221.358996 
L 65.659701 223.206784 
L 67.252176 229.144372 
L 68.048413 231.460215 
L 68.844651 232.607539 
L 69.640888 232.520617 
L 70.437126 231.442105 
L 71.233363 229.751641 
L 73.622076 223.713523 
L 76.010788 217.433833 
L 76.807026 215.712054 
L 77.603263 214.613918 
L 78.399501 214.368173 
L 79.195739 215.025598 
L 79.991976 216.408206 
L 81.584451 219.783381 
L 82.380689 220.935812 
L 83.176926 221.402973 
L 83.973164 221.230385 
L 85.565639 220.127437 
L 86.361876 219.944949 
L 87.158114 220.384764 
L 87.954351 221.528409 
L 88.750589 223.292632 
L 90.343064 227.867932 
L 91.935539 232.410745 
L 92.731776 234.2904 
L 93.528014 235.790457 
L 94.324251 236.853522 
L 95.120489 237.44874 
L 95.916727 237.589858 
L 96.712964 237.353358 
L 99.101677 235.900704 
L 99.897914 235.648805 
L 101.490389 235.506522 
L 102.286627 235.249626 
L 103.082864 234.547366 
L 103.879102 233.211292 
L 104.675339 231.173989 
L 105.471577 228.517957 
L 107.860289 219.376709 
L 108.656527 216.931572 
L 109.452764 215.134894 
L 110.249002 214.026622 
L 111.04524 213.53706 
L 111.841477 213.526329 
L 112.637715 213.837363 
L 113.433952 214.346696 
L 114.23019 214.996501 
L 115.026427 215.796297 
L 115.822665 216.791584 
L 117.41514 219.391695 
L 118.211377 220.764345 
L 119.007615 221.829691 
L 119.803852 222.22538 
L 120.60009 221.620366 
L 121.396327 219.827039 
L 122.192565 216.890471 
L 125.377515 202.290014 
L 126.173752 200.517737 
L 126.96999 199.982213 
L 127.766228 200.483336 
L 128.562465 201.665845 
L 132.543653 209.346544 
L 134.136128 212.555332 
L 134.932365 213.670972 
L 135.728603 213.976839 
L 136.52484 213.194437 
L 137.321078 211.281401 
L 138.913553 205.311372 
L 139.70979 202.316717 
L 140.506028 199.956249 
L 141.302265 198.393833 
L 143.690978 195.518502 
L 144.487216 193.6117 
L 145.283453 190.87927 
L 146.875928 184.478303 
L 147.672166 182.111218 
L 148.468403 181.083027 
L 149.264641 181.610664 
L 150.060878 183.506533 
L 152.449591 191.558076 
L 153.245828 193.06773 
L 154.042066 193.540641 
L 154.838303 193.103388 
L 155.634541 192.030193 
L 157.227016 189.033152 
L 158.819491 185.586551 
L 160.411966 181.39856 
L 163.596916 172.071427 
L 164.393154 170.336384 
L 165.189391 169.048298 
L 165.985629 168.246318 
L 166.781866 167.953222 
L 167.578104 168.180004 
L 168.374341 168.906999 
L 169.170579 170.051259 
L 170.763054 172.803229 
L 171.559291 173.829664 
L 172.355529 174.228465 
L 173.151766 173.823928 
L 173.948004 172.618472 
L 175.540479 168.721629 
L 176.336717 166.746462 
L 177.132954 165.187154 
L 177.929192 164.182465 
L 178.725429 163.662688 
L 180.317904 162.981805 
L 181.114142 162.150297 
L 181.910379 160.68428 
L 182.706617 158.579084 
L 185.095329 151.177804 
L 185.891567 149.761117 
L 186.687804 149.524021 
L 187.484042 150.666024 
L 188.280279 153.188519 
L 189.076517 156.880715 
L 191.46523 170.220825 
L 192.261467 173.430778 
L 193.057705 175.181136 
L 193.853942 175.287511 
L 194.65018 173.874527 
L 195.446417 171.35874 
L 197.038892 165.525265 
L 197.83513 163.41355 
L 198.631367 162.31225 
L 199.427605 162.204128 
L 200.223842 162.799145 
L 201.02008 163.648431 
L 201.816317 164.29848 
L 202.612555 164.432473 
L 203.408792 163.953479 
L 204.20503 162.986553 
L 205.797505 160.730934 
L 206.593742 160.005426 
L 207.38998 159.750587 
L 208.186218 159.955211 
L 208.982455 160.523345 
L 210.57493 162.312698 
L 213.75988 166.576612 
L 214.556118 167.085723 
L 215.352355 166.939055 
L 216.148593 165.970103 
L 216.94483 164.160116 
L 217.741068 161.668754 
L 220.12978 153.290423 
L 220.926018 151.087802 
L 222.518493 147.694277 
L 224.110968 144.744966 
L 224.907206 143.457169 
L 225.703443 142.627977 
L 226.499681 142.606823 
L 227.295918 143.655329 
L 228.092156 145.817743 
L 228.888393 148.867312 
L 230.480868 155.765732 
L 231.277106 158.668718 
L 232.073343 160.885512 
L 232.869581 162.518252 
L 234.462056 165.31349 
L 236.054531 169.027782 
L 236.850768 170.960045 
L 237.647006 172.40225 
L 238.443243 172.977698 
L 239.239481 172.564104 
L 240.035719 171.392066 
L 240.831956 169.999859 
L 241.628194 169.051429 
L 242.424431 169.082354 
L 243.220669 170.271392 
L 244.813144 174.566841 
L 245.609381 176.088507 
L 246.405619 176.112459 
L 247.201856 174.236559 
L 247.998094 170.598604 
L 249.590569 161.0223 
L 250.386806 157.140374 
L 251.183044 155.02919 
L 251.979281 155.056345 
L 252.775519 157.077563 
L 253.571756 160.51958 
L 255.164231 168.384955 
L 255.960469 171.304218 
L 256.756707 172.930284 
L 257.552944 173.158589 
L 258.349182 172.12149 
L 259.145419 170.104918 
L 262.330369 159.651134 
L 263.126607 158.191552 
L 263.922844 157.668929 
L 264.719082 158.078289 
L 265.515319 159.207046 
L 266.311557 160.642682 
L 267.107794 161.840766 
L 267.904032 162.247065 
L 268.700269 161.44386 
L 269.496507 159.275654 
L 270.292744 155.908831 
L 272.681457 143.840906 
L 273.477695 141.047524 
L 274.273932 139.342633 
L 275.07017 138.582466 
L 275.866407 138.424187 
L 278.25512 138.553521 
L 279.051357 138.795246 
L 279.847595 139.637833 
L 280.643832 141.41791 
L 281.44007 144.248638 
L 283.828782 155.489287 
L 284.62502 158.083462 
L 285.421257 159.323275 
L 286.217495 159.261714 
L 287.013732 158.335143 
L 287.80997 157.202715 
L 288.606208 156.504836 
L 289.402445 156.635595 
L 290.198683 157.618317 
L 291.791158 160.678396 
L 292.587395 161.800998 
L 293.383633 162.28644 
L 294.17987 162.235548 
L 294.976108 161.989083 
L 295.772345 161.936382 
L 296.568583 162.297339 
L 298.161058 163.574035 
L 298.957295 163.524018 
L 299.753533 162.362116 
L 300.54977 159.952716 
L 302.938483 149.987647 
L 303.73472 148.209663 
L 304.530958 147.892851 
L 305.327196 148.704985 
L 306.123433 149.8593 
L 306.919671 150.393353 
L 307.715908 149.525666 
L 308.512146 146.956081 
L 310.104621 138.470283 
L 310.900858 134.459918 
L 311.697096 131.930375 
L 312.493333 131.431904 
L 313.289571 132.942657 
L 314.085808 135.910636 
L 315.678283 142.705505 
L 316.474521 144.975017 
L 317.270758 146.009384 
L 318.066996 145.94724 
L 318.863233 145.208434 
L 319.659471 144.306248 
L 320.455709 143.667471 
L 321.251946 143.521264 
L 322.048184 143.879553 
L 322.844421 144.597902 
L 327.621846 149.894908 
L 328.418084 151.198184 
L 330.806796 155.878956 
L 331.603034 157.047711 
L 332.399271 157.596062 
L 333.195509 157.309824 
L 333.991746 156.078806 
L 334.787984 153.943898 
L 337.972934 143.000487 
L 338.769172 142.164496 
L 339.565409 142.93197 
L 340.361647 145.380916 
L 341.157884 149.313725 
L 342.750359 159.723686 
L 344.342834 169.596406 
L 345.139072 173.215742 
L 345.935309 175.78555 
L 346.731547 177.451361 
L 347.527784 178.489326 
L 349.120259 179.766668 
L 349.916497 180.258119 
L 350.712734 180.556599 
L 351.508972 180.453894 
L 352.30521 179.748356 
L 353.101447 178.352915 
L 353.897685 176.365733 
L 355.49016 171.876812 
L 356.286397 170.176753 
L 357.082635 169.238305 
L 357.878872 169.106227 
L 358.67511 169.592967 
L 360.267585 171.026785 
L 361.063822 171.382627 
L 362.656297 171.465996 
L 363.452535 171.932096 
L 364.248772 173.320083 
L 365.04501 175.959864 
L 365.841247 179.886109 
L 369.026198 198.887628 
L 369.822435 201.301711 
L 370.618673 202.115052 
L 371.41491 201.537479 
L 372.211148 200.018111 
L 373.803623 196.25527 
L 374.59986 194.780776 
L 375.396098 193.729069 
L 376.988573 192.131272 
L 377.78481 191.01452 
L 378.581048 189.423396 
L 380.96976 183.245452 
L 381.765998 182.066605 
L 382.562235 182.078101 
L 383.358473 183.493045 
L 384.15471 186.229257 
L 387.339661 200.80097 
L 388.135898 202.924586 
L 388.932136 204.248955 
L 390.524611 206.146135 
L 391.320848 207.540098 
L 393.709561 212.873843 
L 394.505798 213.216713 
L 395.302036 211.888457 
L 396.098273 208.766892 
L 396.894511 204.2011 
L 398.486986 193.881491 
L 399.283223 189.853482 
L 400.079461 187.306727 
L 400.875699 186.228713 
L 401.671936 186.185125 
L 402.468174 186.509915 
L 403.264411 186.563406 
L 404.060649 185.960299 
L 404.856886 184.690048 
L 406.449361 181.717622 
L 407.245599 181.111471 
L 408.041836 181.64259 
L 408.838074 183.393848 
L 409.634311 186.163428 
L 412.023024 196.220412 
L 412.819261 198.684988 
L 413.615499 200.19876 
L 413.615499 200.19876 
" clip-path="url(#pb4c86a0266)" style="fill: none; stroke: #e41a1c; stroke-width: 1.5; stroke-linecap: square"/>
   </g>
   <g id="line2d_14">
    <path d="M 46.55 239.350666 
L 47.346238 238.058768 
L 48.142475 237.086526 
L 48.938713 236.512709 
L 49.73495 236.262866 
L 51.327425 235.987315 
L 52.123663 235.599478 
L 52.9199 234.936734 
L 54.512375 233.024852 
L 56.10485 231.024124 
L 58.493563 228.504966 
L 60.086038 227.206894 
L 60.882275 226.886472 
L 61.678513 226.910325 
L 62.47475 227.297902 
L 64.067226 228.760853 
L 64.863463 229.463338 
L 65.659701 229.900085 
L 66.455938 229.982182 
L 67.252176 229.736377 
L 69.640888 228.451483 
L 70.437126 228.295187 
L 71.233363 228.334357 
L 73.622076 228.911519 
L 75.214551 229.430456 
L 76.010788 229.89942 
L 76.807026 230.578817 
L 79.195739 233.114685 
L 79.991976 233.597129 
L 80.788214 233.67182 
L 81.584451 233.320952 
L 82.380689 232.614557 
L 83.973164 230.603559 
L 85.565639 228.295139 
L 87.158114 225.668641 
L 88.750589 222.976371 
L 89.546826 222.028642 
L 90.343064 221.682541 
L 91.139301 222.145884 
L 91.935539 223.503375 
L 92.731776 225.67579 
L 95.916727 236.63671 
L 96.712964 238.356321 
L 97.509202 239.341574 
L 98.305439 239.642117 
L 99.101677 239.38457 
L 99.897914 238.722089 
L 101.490389 236.695174 
L 103.082864 234.19036 
L 104.675339 231.336692 
L 106.267814 228.060136 
L 107.860289 224.27746 
L 110.249002 218.479127 
L 111.04524 217.134871 
L 111.841477 216.466922 
L 112.637715 216.668239 
L 113.433952 217.821398 
L 114.23019 219.851605 
L 117.41514 230.504523 
L 118.211377 232.08398 
L 119.007615 232.990063 
L 121.396327 234.486072 
L 122.192565 235.64376 
L 123.78504 239.221408 
L 124.581277 240.961892 
L 125.377515 242.047136 
L 126.173752 242.107087 
L 126.96999 241.007638 
L 127.766228 238.901646 
L 130.15494 230.981341 
L 130.951178 229.307295 
L 131.747415 228.452477 
L 132.543653 228.28923 
L 133.33989 228.554954 
L 134.932365 229.33264 
L 138.117315 230.426984 
L 138.913553 231.018377 
L 142.098503 233.901951 
L 143.690978 234.972946 
L 145.283453 235.827881 
L 146.079691 236.025675 
L 146.875928 235.906148 
L 147.672166 235.367974 
L 148.468403 234.388621 
L 150.060878 231.484712 
L 152.449591 226.905893 
L 154.838303 222.625623 
L 156.430778 219.793809 
L 157.227016 218.81162 
L 158.023253 218.35825 
L 158.819491 218.477997 
L 159.615729 219.04753 
L 161.208204 220.435737 
L 162.004441 220.705387 
L 162.800679 220.544238 
L 164.393154 219.59597 
L 165.189391 219.382286 
L 165.985629 219.63125 
L 166.781866 220.331586 
L 168.374341 222.079323 
L 169.170579 222.440588 
L 169.966816 222.153406 
L 170.763054 221.247959 
L 172.355529 218.682491 
L 173.151766 217.737688 
L 173.948004 217.339876 
L 174.744241 217.483497 
L 176.336717 218.488531 
L 177.132954 218.747528 
L 177.929192 218.562009 
L 178.725429 217.905454 
L 179.521667 216.888005 
L 182.706617 212.256071 
L 185.095329 209.002728 
L 186.687804 206.762534 
L 187.484042 205.858684 
L 188.280279 205.2397 
L 189.076517 204.98277 
L 189.872754 205.138811 
L 190.668992 205.742319 
L 191.46523 206.817458 
L 192.261467 208.369199 
L 193.057705 210.359453 
L 196.242655 219.351262 
L 197.038892 220.655744 
L 197.83513 221.304157 
L 198.631367 221.436126 
L 199.427605 221.359931 
L 200.223842 221.467948 
L 201.02008 222.110564 
L 201.816317 223.470458 
L 202.612555 225.482509 
L 204.20503 230.040578 
L 205.001267 231.607531 
L 205.797505 232.172727 
L 206.593742 231.633515 
L 207.38998 230.183448 
L 208.982455 226.397002 
L 209.778693 225.092933 
L 210.57493 224.637645 
L 211.371168 225.055706 
L 212.167405 226.119959 
L 213.75988 228.640518 
L 214.556118 229.41222 
L 215.352355 229.669602 
L 216.148593 229.512982 
L 217.741068 228.874087 
L 218.537305 228.78629 
L 220.926018 229.233267 
L 221.722255 229.081701 
L 222.518493 228.644067 
L 223.31473 228.063972 
L 224.110968 227.630909 
L 224.907206 227.697208 
L 225.703443 228.566984 
L 226.499681 230.395986 
L 227.295918 233.13769 
L 228.888393 240.268367 
L 230.480868 247.05043 
L 231.277106 249.544354 
L 232.073343 251.281444 
L 232.869581 252.303605 
L 233.665818 252.741442 
L 234.462056 252.776077 
L 236.054531 252.465719 
L 236.850768 252.551077 
L 237.647006 253.067031 
L 238.443243 254.164625 
L 239.239481 255.910055 
L 240.035719 258.253275 
L 243.220669 269.014193 
L 244.016906 270.7475 
L 244.813144 271.887288 
L 245.609381 272.577554 
L 247.201856 273.589834 
L 247.998094 274.367351 
L 248.794331 275.472972 
L 251.979281 281.002388 
L 252.775519 281.783643 
L 253.571756 282.10368 
L 254.367994 281.979035 
L 255.164231 281.486844 
L 256.756707 279.883168 
L 257.552944 279.049145 
L 258.349182 278.377713 
L 259.145419 277.984794 
L 259.941657 277.942753 
L 260.737894 278.254227 
L 263.126607 279.998773 
L 263.922844 280.067737 
L 264.719082 279.474482 
L 265.515319 278.09539 
L 266.311557 275.955983 
L 267.904032 270.255562 
L 268.700269 267.369502 
L 269.496507 264.91889 
L 270.292744 263.132681 
L 271.088982 262.081934 
L 271.88522 261.675018 
L 272.681457 261.698933 
L 274.273932 262.045351 
L 275.866407 261.942034 
L 276.662645 261.902714 
L 277.458882 262.162641 
L 278.25512 262.923577 
L 279.051357 264.263788 
L 281.44007 269.93027 
L 282.236307 271.179464 
L 283.032545 271.579935 
L 283.828782 271.080214 
L 284.62502 269.879231 
L 286.217495 267.087138 
L 287.013732 266.437817 
L 287.80997 266.683369 
L 288.606208 267.795006 
L 290.198683 271.193381 
L 290.99492 272.428524 
L 291.791158 272.731248 
L 292.587395 271.899026 
L 293.383633 270.020765 
L 295.772345 262.237944 
L 296.568583 260.530376 
L 297.36482 259.754771 
L 298.161058 259.887139 
L 298.957295 260.722488 
L 301.346008 264.486389 
L 302.142245 265.410924 
L 302.938483 266.029641 
L 303.73472 266.36559 
L 304.530958 266.456526 
L 305.327196 266.322933 
L 306.123433 265.959103 
L 306.919671 265.345756 
L 307.715908 264.47301 
L 309.308383 262.057737 
L 314.085808 253.757045 
L 315.678283 251.674683 
L 316.474521 250.984764 
L 317.270758 250.6043 
L 318.066996 250.528105 
L 321.251946 251.014179 
L 322.048184 250.73699 
L 323.640659 249.963292 
L 324.436896 249.883218 
L 325.233134 250.25646 
L 326.029371 251.127736 
L 328.418084 254.884042 
L 329.214321 255.51183 
L 330.010559 255.447679 
L 330.806796 254.688988 
L 331.603034 253.393947 
L 333.991746 248.820412 
L 334.787984 247.698686 
L 335.584221 246.875725 
L 336.380459 246.329907 
L 337.176697 246.061206 
L 337.972934 246.125028 
L 338.769172 246.623994 
L 339.565409 247.659256 
L 340.361647 249.26537 
L 341.954122 253.722997 
L 342.750359 256.05606 
L 343.546597 258.040558 
L 344.342834 259.434699 
L 345.139072 260.133312 
L 345.935309 260.180369 
L 346.731547 259.728589 
L 347.527784 258.967052 
L 349.120259 257.039655 
L 350.712734 254.657451 
L 352.30521 251.482262 
L 356.286397 242.556332 
L 360.267585 234.277455 
L 361.063822 233.365792 
L 361.86006 233.145535 
L 362.656297 233.659414 
L 363.452535 234.775909 
L 365.04501 237.623721 
L 365.841247 238.700483 
L 366.637485 239.283811 
L 367.433722 239.409272 
L 369.026198 239.216721 
L 369.822435 239.462029 
L 370.618673 240.143181 
L 373.007385 243.123883 
L 373.803623 243.329309 
L 374.59986 242.718759 
L 375.396098 241.321286 
L 377.78481 235.393079 
L 378.581048 234.012328 
L 379.377285 233.213277 
L 380.173523 232.87052 
L 380.96976 232.710453 
L 381.765998 232.415314 
L 382.562235 231.734916 
L 383.358473 230.567558 
L 384.950948 227.194595 
L 385.747186 225.467705 
L 386.543423 224.044741 
L 387.339661 223.068361 
L 388.135898 222.552239 
L 388.932136 222.392518 
L 390.524611 222.399192 
L 391.320848 222.179076 
L 392.117086 221.615663 
L 392.913323 220.63874 
L 393.709561 219.247189 
L 395.302036 215.581802 
L 396.894511 212.01699 
L 397.690748 210.876263 
L 398.486986 210.412499 
L 399.283223 210.661198 
L 400.079461 211.492758 
L 401.671936 213.700863 
L 402.468174 214.365052 
L 403.264411 214.391101 
L 404.060649 213.735892 
L 404.856886 212.545683 
L 406.449361 209.664519 
L 407.245599 208.459519 
L 408.838074 206.704212 
L 409.634311 205.825437 
L 410.430549 204.698581 
L 413.615499 199.233844 
L 413.615499 199.233844 
" clip-path="url(#pb4c86a0266)" style="fill: none; stroke: #377eb8; stroke-width: 1.5; stroke-linecap: square"/>
   </g>
   <g id="line2d_15">
    <path d="M 87.158114 318.2 
L 87.158114 71.241125 
" clip-path="url(#pb4c86a0266)" style="fill: none; stroke: #000000; stroke-width: 0.5; stroke-linecap: square"/>
   </g>
   <g id="line2d_16">
    <path d="M 46.55 230.981424 
L 413.615499 230.981424 
" clip-path="url(#pb4c86a0266)" style="fill: none; stroke: #000000; stroke-width: 0.5; stroke-linecap: square"/>
   </g>
   <g id="patch_4">
    <path d="M 46.55 318.2 
L 46.55 71.241125 
" style="fill: none; stroke: #000000; stroke-width: 0.8; stroke-linejoin: miter; stroke-linecap: square"/>
   </g>
   <g id="patch_5">
    <path d="M 413.615499 318.2 
L 413.615499 71.241125 
" style="fill: none; stroke: #000000; stroke-width: 0.8; stroke-linejoin: miter; stroke-linecap: square"/>
   </g>
   <g id="patch_6">
    <path d="M 46.55 318.2 
L 413.615499 318.2 
" style="fill: none; stroke: #000000; stroke-width: 0.8; stroke-linejoin: miter; stroke-linecap: square"/>
   </g>
   <g id="patch_7">
    <path d="M 46.55 71.241125 
L 413.615499 71.241125 
" style="fill: none; stroke: #000000; stroke-width: 0.8; stroke-linejoin: miter; stroke-linecap: square"/>
   </g>
   <g id="text_15">
    <!-- Cz -->
    <g transform="translate(222.743999 65.241125)scale(0.12 -0.12)">
     <defs>
      <path id="DejaVuSans-43" d="M 4122 4306 
L 4122 3641 
Q 3803 3938 3442 4084 
Q 3081 4231 2675 4231 
Q 1875 4231 1450 3742 
Q 1025 3253 1025 2328 
Q 1025 1406 1450 917 
Q 1875 428 2675 428 
Q 3081 428 3442 575 
Q 3803 722 4122 1019 
L 4122 359 
Q 3791 134 3420 21 
Q 3050 -91 2638 -91 
Q 1578 -91 968 557 
Q 359 1206 359 2328 
Q 359 3453 968 4101 
Q 1578 4750 2638 4750 
Q 3056 4750 3426 4639 
Q 3797 4528 4122 4306 
z
" transform="scale(0.015625)"/>
      <path id="DejaVuSans-7a" d="M 353 3500 
L 3084 3500 
L 3084 2975 
L 922 459 
L 3084 459 
L 3084 0 
L 275 0 
L 275 525 
L 2438 3041 
L 353 3041 
L 353 3500 
z
" transform="scale(0.015625)"/>
     </defs>
     <use xlink:href="#DejaVuSans-43"/>
     <use xlink:href="#DejaVuSans-7a" x="69.824219"/>
    </g>
   </g>
   <g id="legend_1">
    <g id="patch_8">
     <path d="M 99.855406 48.044893 
L 360.310093 48.044893 
Q 362.310093 48.044893 362.310093 46.044893 
L 362.310093 17.410517 
Q 362.310093 15.410517 360.310093 15.410517 
L 99.855406 15.410517 
Q 97.855406 15.410517 97.855406 17.410517 
L 97.855406 46.044893 
Q 97.855406 48.044893 99.855406 48.044893 
z
" style="fill: #ffffff; opacity: 0.8; stroke: #cccccc; stroke-linejoin: miter"/>
    </g>
    <g id="text_16">
     <!-- Average of Session 2_tac4 -->
     <g transform="translate(164.249937 27.008955)scale(0.1 -0.1)">
      <defs>
       <path id="DejaVuSans-41" d="M 2188 4044 
L 1331 1722 
L 3047 1722 
L 2188 4044 
z
M 1831 4666 
L 2547 4666 
L 4325 0 
L 3669 0 
L 3244 1197 
L 1141 1197 
L 716 0 
L 50 0 
L 1831 4666 
z
" transform="scale(0.015625)"/>
       <path id="DejaVuSans-76" d="M 191 3500 
L 800 3500 
L 1894 563 
L 2988 3500 
L 3597 3500 
L 2284 0 
L 1503 0 
L 191 3500 
z
" transform="scale(0.015625)"/>
       <path id="DejaVuSans-72" d="M 2631 2963 
Q 2534 3019 2420 3045 
Q 2306 3072 2169 3072 
Q 1681 3072 1420 2755 
Q 1159 2438 1159 1844 
L 1159 0 
L 581 0 
L 581 3500 
L 1159 3500 
L 1159 2956 
Q 1341 3275 1631 3429 
Q 1922 3584 2338 3584 
Q 2397 3584 2469 3576 
Q 2541 3569 2628 3553 
L 2631 2963 
z
" transform="scale(0.015625)"/>
       <path id="DejaVuSans-61" d="M 2194 1759 
Q 1497 1759 1228 1600 
Q 959 1441 959 1056 
Q 959 750 1161 570 
Q 1363 391 1709 391 
Q 2188 391 2477 730 
Q 2766 1069 2766 1631 
L 2766 1759 
L 2194 1759 
z
M 3341 1997 
L 3341 0 
L 2766 0 
L 2766 531 
Q 2569 213 2275 61 
Q 1981 -91 1556 -91 
Q 1019 -91 701 211 
Q 384 513 384 1019 
Q 384 1609 779 1909 
Q 1175 2209 1959 2209 
L 2766 2209 
L 2766 2266 
Q 2766 2663 2505 2880 
Q 2244 3097 1772 3097 
Q 1472 3097 1187 3025 
Q 903 2953 641 2809 
L 641 3341 
Q 956 3463 1253 3523 
Q 1550 3584 1831 3584 
Q 2591 3584 2966 3190 
Q 3341 2797 3341 1997 
z
" transform="scale(0.015625)"/>
       <path id="DejaVuSans-67" d="M 2906 1791 
Q 2906 2416 2648 2759 
Q 2391 3103 1925 3103 
Q 1463 3103 1205 2759 
Q 947 2416 947 1791 
Q 947 1169 1205 825 
Q 1463 481 1925 481 
Q 2391 481 2648 825 
Q 2906 1169 2906 1791 
z
M 3481 434 
Q 3481 -459 3084 -895 
Q 2688 -1331 1869 -1331 
Q 1566 -1331 1297 -1286 
Q 1028 -1241 775 -1147 
L 775 -588 
Q 1028 -725 1275 -790 
Q 1522 -856 1778 -856 
Q 2344 -856 2625 -561 
Q 2906 -266 2906 331 
L 2906 616 
Q 2728 306 2450 153 
Q 2172 0 1784 0 
Q 1141 0 747 490 
Q 353 981 353 1791 
Q 353 2603 747 3093 
Q 1141 3584 1784 3584 
Q 2172 3584 2450 3431 
Q 2728 3278 2906 2969 
L 2906 3500 
L 3481 3500 
L 3481 434 
z
" transform="scale(0.015625)"/>
       <path id="DejaVuSans-20" transform="scale(0.015625)"/>
       <path id="DejaVuSans-66" d="M 2375 4863 
L 2375 4384 
L 1825 4384 
Q 1516 4384 1395 4259 
Q 1275 4134 1275 3809 
L 1275 3500 
L 2222 3500 
L 2222 3053 
L 1275 3053 
L 1275 0 
L 697 0 
L 697 3053 
L 147 3053 
L 147 3500 
L 697 3500 
L 697 3744 
Q 697 4328 969 4595 
Q 1241 4863 1831 4863 
L 2375 4863 
z
" transform="scale(0.015625)"/>
       <path id="DejaVuSans-53" d="M 3425 4513 
L 3425 3897 
Q 3066 4069 2747 4153 
Q 2428 4238 2131 4238 
Q 1616 4238 1336 4038 
Q 1056 3838 1056 3469 
Q 1056 3159 1242 3001 
Q 1428 2844 1947 2747 
L 2328 2669 
Q 3034 2534 3370 2195 
Q 3706 1856 3706 1288 
Q 3706 609 3251 259 
Q 2797 -91 1919 -91 
Q 1588 -91 1214 -16 
Q 841 59 441 206 
L 441 856 
Q 825 641 1194 531 
Q 1563 422 1919 422 
Q 2459 422 2753 634 
Q 3047 847 3047 1241 
Q 3047 1584 2836 1778 
Q 2625 1972 2144 2069 
L 1759 2144 
Q 1053 2284 737 2584 
Q 422 2884 422 3419 
Q 422 4038 858 4394 
Q 1294 4750 2059 4750 
Q 2388 4750 2728 4690 
Q 3069 4631 3425 4513 
z
" transform="scale(0.015625)"/>
       <path id="DejaVuSans-69" d="M 603 3500 
L 1178 3500 
L 1178 0 
L 603 0 
L 603 3500 
z
M 603 4863 
L 1178 4863 
L 1178 4134 
L 603 4134 
L 603 4863 
z
" transform="scale(0.015625)"/>
       <path id="DejaVuSans-5f" d="M 3263 -1063 
L 3263 -1509 
L -63 -1509 
L -63 -1063 
L 3263 -1063 
z
" transform="scale(0.015625)"/>
       <path id="DejaVuSans-74" d="M 1172 4494 
L 1172 3500 
L 2356 3500 
L 2356 3053 
L 1172 3053 
L 1172 1153 
Q 1172 725 1289 603 
Q 1406 481 1766 481 
L 2356 481 
L 2356 0 
L 1766 0 
Q 1100 0 847 248 
Q 594 497 594 1153 
L 594 3053 
L 172 3053 
L 172 3500 
L 594 3500 
L 594 4494 
L 1172 4494 
z
" transform="scale(0.015625)"/>
      </defs>
      <use xlink:href="#DejaVuSans-41"/>
      <use xlink:href="#DejaVuSans-76" x="62.533203"/>
      <use xlink:href="#DejaVuSans-65" x="121.712891"/>
      <use xlink:href="#DejaVuSans-72" x="183.236328"/>
      <use xlink:href="#DejaVuSans-61" x="224.349609"/>
      <use xlink:href="#DejaVuSans-67" x="285.628906"/>
      <use xlink:href="#DejaVuSans-65" x="349.105469"/>
      <use xlink:href="#DejaVuSans-20" x="410.628906"/>
      <use xlink:href="#DejaVuSans-6f" x="442.416016"/>
      <use xlink:href="#DejaVuSans-66" x="503.597656"/>
      <use xlink:href="#DejaVuSans-20" x="538.802734"/>
      <use xlink:href="#DejaVuSans-53" x="570.589844"/>
      <use xlink:href="#DejaVuSans-65" x="634.066406"/>
      <use xlink:href="#DejaVuSans-73" x="695.589844"/>
      <use xlink:href="#DejaVuSans-73" x="747.689453"/>
      <use xlink:href="#DejaVuSans-69" x="799.789062"/>
      <use xlink:href="#DejaVuSans-6f" x="827.572266"/>
      <use xlink:href="#DejaVuSans-6e" x="888.753906"/>
      <use xlink:href="#DejaVuSans-20" x="952.132812"/>
      <use xlink:href="#DejaVuSans-32" x="983.919922"/>
      <use xlink:href="#DejaVuSans-5f" x="1047.542969"/>
      <use xlink:href="#DejaVuSans-74" x="1097.542969"/>
      <use xlink:href="#DejaVuSans-61" x="1136.751953"/>
      <use xlink:href="#DejaVuSans-63" x="1198.03125"/>
      <use xlink:href="#DejaVuSans-34" x="1253.011719"/>
     </g>
    </g>
    <g id="line2d_17">
     <path d="M 101.855406 38.465205 
L 111.855406 38.465205 
L 121.855406 38.465205 
" style="fill: none; stroke: #e41a1c; stroke-width: 1.5; stroke-linecap: square"/>
    </g>
    <g id="text_17">
     <!-- Target (n=370) -->
     <g transform="translate(129.855406 41.965205)scale(0.1 -0.1)">
      <defs>
       <path id="DejaVuSans-54" d="M -19 4666 
L 3928 4666 
L 3928 4134 
L 2272 4134 
L 2272 0 
L 1638 0 
L 1638 4134 
L -19 4134 
L -19 4666 
z
" transform="scale(0.015625)"/>
       <path id="DejaVuSans-28" d="M 1984 4856 
Q 1566 4138 1362 3434 
Q 1159 2731 1159 2009 
Q 1159 1288 1364 580 
Q 1569 -128 1984 -844 
L 1484 -844 
Q 1016 -109 783 600 
Q 550 1309 550 2009 
Q 550 2706 781 3412 
Q 1013 4119 1484 4856 
L 1984 4856 
z
" transform="scale(0.015625)"/>
       <path id="DejaVuSans-3d" d="M 678 2906 
L 4684 2906 
L 4684 2381 
L 678 2381 
L 678 2906 
z
M 678 1631 
L 4684 1631 
L 4684 1100 
L 678 1100 
L 678 1631 
z
" transform="scale(0.015625)"/>
       <path id="DejaVuSans-37" d="M 525 4666 
L 3525 4666 
L 3525 4397 
L 1831 0 
L 1172 0 
L 2766 4134 
L 525 4134 
L 525 4666 
z
" transform="scale(0.015625)"/>
       <path id="DejaVuSans-29" d="M 513 4856 
L 1013 4856 
Q 1481 4119 1714 3412 
Q 1947 2706 1947 2009 
Q 1947 1309 1714 600 
Q 1481 -109 1013 -844 
L 513 -844 
Q 928 -128 1133 580 
Q 1338 1288 1338 2009 
Q 1338 2731 1133 3434 
Q 928 4138 513 4856 
z
" transform="scale(0.015625)"/>
      </defs>
      <use xlink:href="#DejaVuSans-54"/>
      <use xlink:href="#DejaVuSans-61" x="44.583984"/>
      <use xlink:href="#DejaVuSans-72" x="105.863281"/>
      <use xlink:href="#DejaVuSans-67" x="145.226562"/>
      <use xlink:href="#DejaVuSans-65" x="208.703125"/>
      <use xlink:href="#DejaVuSans-74" x="270.226562"/>
      <use xlink:href="#DejaVuSans-20" x="309.435547"/>
      <use xlink:href="#DejaVuSans-28" x="341.222656"/>
      <use xlink:href="#DejaVuSans-6e" x="380.236328"/>
      <use xlink:href="#DejaVuSans-3d" x="443.615234"/>
      <use xlink:href="#DejaVuSans-33" x="527.404297"/>
      <use xlink:href="#DejaVuSans-37" x="591.027344"/>
      <use xlink:href="#DejaVuSans-30" x="654.650391"/>
      <use xlink:href="#DejaVuSans-29" x="718.273438"/>
     </g>
    </g>
    <g id="line2d_18">
     <path d="M 225.585093 38.465205 
L 235.585093 38.465205 
L 245.585093 38.465205 
" style="fill: none; stroke: #377eb8; stroke-width: 1.5; stroke-linecap: square"/>
    </g>
    <g id="text_18">
     <!-- Non-Target (n=1104) -->
     <g transform="translate(253.585093 41.965205)scale(0.1 -0.1)">
      <defs>
       <path id="DejaVuSans-4e" d="M 628 4666 
L 1478 4666 
L 3547 763 
L 3547 4666 
L 4159 4666 
L 4159 0 
L 3309 0 
L 1241 3903 
L 1241 0 
L 628 0 
L 628 4666 
z
" transform="scale(0.015625)"/>
       <path id="DejaVuSans-2d" d="M 313 2009 
L 1997 2009 
L 1997 1497 
L 313 1497 
L 313 2009 
z
" transform="scale(0.015625)"/>
      </defs>
      <use xlink:href="#DejaVuSans-4e"/>
      <use xlink:href="#DejaVuSans-6f" x="74.804688"/>
      <use xlink:href="#DejaVuSans-6e" x="135.986328"/>
      <use xlink:href="#DejaVuSans-2d" x="199.365234"/>
      <use xlink:href="#DejaVuSans-54" x="226.324219"/>
      <use xlink:href="#DejaVuSans-61" x="270.908203"/>
      <use xlink:href="#DejaVuSans-72" x="332.1875"/>
      <use xlink:href="#DejaVuSans-67" x="371.550781"/>
      <use xlink:href="#DejaVuSans-65" x="435.027344"/>
      <use xlink:href="#DejaVuSans-74" x="496.550781"/>
      <use xlink:href="#DejaVuSans-20" x="535.759766"/>
      <use xlink:href="#DejaVuSans-28" x="567.546875"/>
      <use xlink:href="#DejaVuSans-6e" x="606.560547"/>
      <use xlink:href="#DejaVuSans-3d" x="669.939453"/>
      <use xlink:href="#DejaVuSans-31" x="753.728516"/>
      <use xlink:href="#DejaVuSans-31" x="817.351562"/>
      <use xlink:href="#DejaVuSans-30" x="880.974609"/>
      <use xlink:href="#DejaVuSans-34" x="944.597656"/>
      <use xlink:href="#DejaVuSans-29" x="1008.220703"/>
     </g>
    </g>
   </g>
  </g>
 </g>
 <defs>
  <clipPath id="pb4c86a0266">
   <rect x="46.55" y="71.241125" width="367.065499" height="246.958875"/>
  </clipPath>
 </defs>
</svg>
