<?xml version="1.0" encoding="utf-8" standalone="no"?>
<!DOCTYPE svg PUBLIC "-//W3C//DTD SVG 1.1//EN"
  "http://www.w3.org/Graphics/SVG/1.1/DTD/svg11.dtd">
<svg xmlns:xlink="http://www.w3.org/1999/xlink" width="432pt" height="360pt" viewBox="0 0 432 360" xmlns="http://www.w3.org/2000/svg" version="1.1">
 <metadata>
  <rdf:RDF xmlns:dc="http://purl.org/dc/elements/1.1/" xmlns:cc="http://creativecommons.org/ns#" xmlns:rdf="http://www.w3.org/1999/02/22-rdf-syntax-ns#">
   <cc:Work>
    <dc:type rdf:resource="http://purl.org/dc/dcmitype/StillImage"/>
    <dc:date>2022-11-02T16:57:02.330893</dc:date>
    <dc:format>image/svg+xml</dc:format>
    <dc:creator>
     <cc:Agent>
      <dc:title>Matplotlib v3.5.1, https://matplotlib.org/</dc:title>
     </cc:Agent>
    </dc:creator>
   </cc:Work>
  </rdf:RDF>
 </metadata>
 <defs>
  <style type="text/css">*{stroke-linejoin: round; stroke-linecap: butt}</style>
 </defs>
 <g id="figure_1">
  <g id="patch_1">
   <path d="M 0 360 
L 432 360 
L 432 0 
L 0 0 
L 0 360 
z
" style="fill: none"/>
  </g>
  <g id="axes_1">
   <g id="patch_2">
    <path d="M 46.55 318.2 
L 413.615499 318.2 
L 413.615499 71.241125 
L 46.55 71.241125 
L 46.55 318.2 
z
" style="fill: none"/>
   </g>
   <g id="PolyCollection_1">
    <defs>
     <path id="mcc82ac3d59" d="M 46.55 -145.873273 
L 46.55 -104.277756 
L 47.346238 -102.682175 
L 48.142475 -101.786055 
L 48.938713 -101.505177 
L 49.73495 -101.533024 
L 50.531188 -101.354471 
L 51.327425 -100.406156 
L 52.123663 -98.37847 
L 52.9199 -95.469891 
L 53.716138 -92.349073 
L 54.512375 -89.815437 
L 55.308613 -88.434282 
L 56.10485 -88.391532 
L 56.901088 -89.572208 
L 57.697325 -91.676998 
L 58.493563 -94.249567 
L 59.2898 -96.704161 
L 60.086038 -98.464597 
L 60.882275 -99.163102 
L 61.678513 -98.762613 
L 62.47475 -97.543411 
L 63.270988 -96.010542 
L 64.067226 -94.771946 
L 64.863463 -94.361323 
L 65.659701 -95.013068 
L 66.455938 -96.510647 
L 67.252176 -98.254923 
L 68.048413 -99.577865 
L 68.844651 -100.094257 
L 69.640888 -99.802132 
L 70.437126 -98.944777 
L 71.233363 -97.870186 
L 72.029601 -96.975296 
L 72.825838 -96.639419 
L 73.622076 -97.062116 
L 74.418313 -98.084029 
L 75.214551 -99.163587 
L 76.010788 -99.587253 
L 76.807026 -98.813005 
L 77.603263 -96.731924 
L 78.399501 -93.696314 
L 79.195739 -90.35305 
L 79.991976 -87.415932 
L 80.788214 -85.463607 
L 81.584451 -84.78503 
L 82.380689 -85.289858 
L 83.176926 -86.529563 
L 83.973164 -87.858367 
L 84.769401 -88.690532 
L 85.565639 -88.741275 
L 86.361876 -88.123499 
L 87.158114 -87.238254 
L 87.954351 -86.524132 
L 88.750589 -86.226429 
L 89.546826 -86.330394 
L 90.343064 -86.675288 
L 91.139301 -87.128021 
L 91.935539 -87.682445 
L 92.731776 -88.458553 
L 93.528014 -89.652342 
L 94.324251 -91.47257 
L 95.120489 -94.052726 
L 95.916727 -97.321398 
L 96.712964 -100.894447 
L 97.509202 -104.118288 
L 98.305439 -106.30255 
L 99.101677 -107.007876 
L 99.897914 -106.209561 
L 100.694152 -104.277815 
L 101.490389 -101.841713 
L 102.286627 -99.621033 
L 103.082864 -98.256252 
L 103.879102 -98.143164 
L 104.675339 -99.32574 
L 105.471577 -101.527147 
L 106.267814 -104.32138 
L 107.064052 -107.343737 
L 107.860289 -110.421626 
L 108.656527 -113.574804 
L 109.452764 -116.905249 
L 110.249002 -120.433048 
L 111.04524 -123.963444 
L 111.841477 -127.08166 
L 112.637715 -129.30874 
L 113.433952 -130.324851 
L 114.23019 -130.095172 
L 115.026427 -128.816772 
L 115.822665 -126.762604 
L 116.618902 -124.164694 
L 117.41514 -121.199815 
L 118.211377 -118.014023 
L 119.007615 -114.711353 
L 119.803852 -111.353059 
L 120.60009 -108.049681 
L 121.396327 -105.097233 
L 122.192565 -102.99187 
L 122.988802 -102.230231 
L 123.78504 -103.006717 
L 124.581277 -105.022804 
L 125.377515 -107.535747 
L 126.173752 -109.606606 
L 126.96999 -110.406305 
L 127.766228 -109.462631 
L 128.562465 -106.800687 
L 129.358703 -102.948233 
L 130.15494 -98.782886 
L 130.951178 -95.25496 
L 131.747415 -93.097209 
L 132.543653 -92.644763 
L 133.33989 -93.809707 
L 134.136128 -96.164405 
L 134.932365 -99.075495 
L 135.728603 -101.87295 
L 136.52484 -104.053711 
L 137.321078 -105.465936 
L 138.117315 -106.348094 
L 138.913553 -107.146599 
L 139.70979 -108.228354 
L 140.506028 -109.703089 
L 141.302265 -111.45577 
L 142.098503 -113.310899 
L 142.89474 -115.166646 
L 143.690978 -117.00453 
L 144.487216 -118.822307 
L 145.283453 -120.597347 
L 146.079691 -122.312283 
L 146.875928 -123.970127 
L 147.672166 -125.539585 
L 148.468403 -126.886808 
L 149.264641 -127.792189 
L 150.060878 -128.063619 
L 150.857116 -127.65484 
L 151.653353 -126.687287 
L 152.449591 -125.369807 
L 153.245828 -123.903847 
L 154.042066 -122.447088 
L 154.838303 -121.127076 
L 155.634541 -120.057997 
L 156.430778 -119.345887 
L 157.227016 -119.099117 
L 158.023253 -119.432941 
L 158.819491 -120.422772 
L 159.615729 -122.00593 
L 160.411966 -123.919489 
L 161.208204 -125.767581 
L 162.004441 -127.207771 
L 162.800679 -128.129478 
L 163.596916 -128.695265 
L 164.393154 -129.239382 
L 165.189391 -130.123396 
L 165.985629 -131.633996 
L 166.781866 -133.926122 
L 167.578104 -136.971124 
L 168.374341 -140.512998 
L 169.170579 -144.09432 
L 169.966816 -147.186863 
L 170.763054 -149.370449 
L 171.559291 -150.459534 
L 172.355529 -150.524828 
L 173.151766 -149.835949 
L 173.948004 -148.784161 
L 174.744241 -147.820965 
L 175.540479 -147.40028 
L 176.336717 -147.889528 
L 177.132954 -149.45075 
L 177.929192 -151.949981 
L 178.725429 -154.961319 
L 179.521667 -157.887507 
L 180.317904 -160.159302 
L 181.114142 -161.428612 
L 181.910379 -161.664512 
L 182.706617 -161.121259 
L 183.502854 -160.225648 
L 184.299092 -159.450949 
L 185.095329 -159.206152 
L 185.891567 -159.73939 
L 186.687804 -161.069002 
L 187.484042 -162.978178 
L 188.280279 -165.092945 
L 189.076517 -167.017748 
L 189.872754 -168.470405 
L 190.668992 -169.358947 
L 191.46523 -169.767607 
L 192.261467 -169.856881 
L 193.057705 -169.729058 
L 193.853942 -169.342341 
L 194.65018 -168.536677 
L 195.446417 -167.1608 
L 196.242655 -165.21683 
L 197.038892 -162.929053 
L 197.83513 -160.704962 
L 198.631367 -159.022025 
L 199.427605 -158.285373 
L 200.223842 -158.682493 
L 201.02008 -160.073518 
L 201.816317 -161.990825 
L 202.612555 -163.797112 
L 203.408792 -164.946246 
L 204.20503 -165.207151 
L 205.001267 -164.743127 
L 205.797505 -164.043534 
L 206.593742 -163.767116 
L 207.38998 -164.54049 
L 208.186218 -166.73341 
L 208.982455 -170.27526 
L 209.778693 -174.628066 
L 210.57493 -178.971242 
L 211.371168 -182.509678 
L 212.167405 -184.74198 
L 212.963643 -185.58723 
L 213.75988 -185.369994 
L 214.556118 -184.689404 
L 215.352355 -184.180456 
L 216.148593 -184.224674 
L 216.94483 -184.756881 
L 217.741068 -185.304495 
L 218.537305 -185.25133 
L 219.333543 -184.165315 
L 220.12978 -182.004679 
L 220.926018 -179.129123 
L 221.722255 -176.162311 
L 222.518493 -173.784115 
L 223.31473 -172.511167 
L 224.110968 -172.51715 
L 224.907206 -173.555526 
L 225.703443 -175.032705 
L 226.499681 -176.219663 
L 227.295918 -176.523552 
L 228.092156 -175.711243 
L 228.888393 -173.991281 
L 229.684631 -171.913649 
L 230.480868 -170.128693 
L 231.277106 -169.119258 
L 232.073343 -169.029027 
L 232.869581 -169.645193 
L 233.665818 -170.509791 
L 234.462056 -171.096492 
L 235.258293 -170.999415 
L 236.054531 -170.085454 
L 236.850768 -168.547638 
L 237.647006 -166.816398 
L 238.443243 -165.36621 
L 239.239481 -164.528961 
L 240.035719 -164.40891 
L 240.831956 -164.906063 
L 241.628194 -165.791083 
L 242.424431 -166.789526 
L 243.220669 -167.673793 
L 244.016906 -168.351595 
L 244.813144 -168.895572 
L 245.609381 -169.466176 
L 246.405619 -170.169995 
L 247.201856 -170.96831 
L 247.998094 -171.709343 
L 248.794331 -172.247836 
L 249.590569 -172.554995 
L 250.386806 -172.757476 
L 251.183044 -173.113435 
L 251.979281 -173.953048 
L 252.775519 -175.581073 
L 253.571756 -178.135936 
L 254.367994 -181.461697 
L 255.164231 -185.096324 
L 255.960469 -188.425514 
L 256.756707 -190.932245 
L 257.552944 -192.400525 
L 258.349182 -192.971272 
L 259.145419 -193.052271 
L 259.941657 -193.152094 
L 260.737894 -193.70179 
L 261.534132 -194.894947 
L 262.330369 -196.577706 
L 263.126607 -198.25336 
L 263.922844 -199.256693 
L 264.719082 -199.058428 
L 265.515319 -197.545229 
L 266.311557 -195.104047 
L 267.107794 -192.46758 
L 267.904032 -190.430945 
L 268.700269 -189.592518 
L 269.496507 -190.203295 
L 270.292744 -192.119814 
L 271.088982 -194.82976 
L 271.88522 -197.559896 
L 272.681457 -199.492533 
L 273.477695 -200.057324 
L 274.273932 -199.179332 
L 275.07017 -197.335893 
L 275.866407 -195.359736 
L 276.662645 -194.083111 
L 277.458882 -194.009114 
L 278.25512 -195.159555 
L 279.051357 -197.138853 
L 279.847595 -199.343652 
L 280.643832 -201.196664 
L 281.44007 -202.320043 
L 282.236307 -202.630794 
L 283.032545 -202.355962 
L 283.828782 -201.942285 
L 284.62502 -201.857883 
L 285.421257 -202.365743 
L 286.217495 -203.395949 
L 287.013732 -204.584308 
L 287.80997 -205.43262 
L 288.606208 -205.490113 
L 289.402445 -204.49592 
L 290.198683 -202.478179 
L 290.99492 -199.798574 
L 291.791158 -197.090235 
L 292.587395 -195.056701 
L 293.383633 -194.198703 
L 294.17987 -194.610303 
L 294.976108 -195.950839 
L 295.772345 -197.594145 
L 296.568583 -198.86793 
L 297.36482 -199.272374 
L 298.161058 -198.604999 
L 298.957295 -196.976661 
L 299.753533 -194.744951 
L 300.54977 -192.40354 
L 301.346008 -190.457522 
L 302.142245 -189.302252 
L 302.938483 -189.125887 
L 303.73472 -189.867768 
L 304.530958 -191.257035 
L 305.327196 -192.916577 
L 306.123433 -194.473566 
L 306.919671 -195.620433 
L 307.715908 -196.1259 
L 308.512146 -195.840127 
L 309.308383 -194.717556 
L 310.104621 -192.834876 
L 310.900858 -190.380532 
L 311.697096 -187.624279 
L 312.493333 -184.882388 
L 313.289571 -182.468301 
L 314.085808 -180.606237 
L 314.882046 -179.323445 
L 315.678283 -178.390535 
L 316.474521 -177.375395 
L 317.270758 -175.801761 
L 318.066996 -173.334931 
L 318.863233 -169.919637 
L 319.659471 -165.835492 
L 320.455709 -161.653107 
L 321.251946 -158.079563 
L 322.048184 -155.719567 
L 322.844421 -154.841153 
L 323.640659 -155.258958 
L 324.436896 -156.39588 
L 325.233134 -157.486829 
L 326.029371 -157.826522 
L 326.825609 -156.976366 
L 327.621846 -154.890593 
L 328.418084 -151.940847 
L 329.214321 -148.815578 
L 330.010559 -146.289929 
L 330.806796 -144.926082 
L 331.603034 -144.831165 
L 332.399271 -145.596639 
L 333.195509 -146.453189 
L 333.991746 -146.564872 
L 334.787984 -145.333089 
L 335.584221 -142.606386 
L 336.380459 -138.74415 
L 337.176697 -134.517234 
L 337.972934 -130.86261 
L 338.769172 -128.569238 
L 339.565409 -128.030331 
L 340.361647 -129.179415 
L 341.157884 -131.605262 
L 341.954122 -134.708325 
L 342.750359 -137.79031 
L 343.546597 -140.125885 
L 344.342834 -141.112713 
L 345.139072 -140.476768 
L 345.935309 -138.39765 
L 346.731547 -135.45078 
L 347.527784 -132.404406 
L 348.324022 -129.997101 
L 349.120259 -128.775557 
L 349.916497 -128.984919 
L 350.712734 -130.49488 
L 351.508972 -132.811596 
L 352.30521 -135.238106 
L 353.101447 -137.137685 
L 353.897685 -138.14634 
L 354.693922 -138.226298 
L 355.49016 -137.591607 
L 356.286397 -136.602855 
L 357.082635 -135.691261 
L 357.878872 -135.297453 
L 358.67511 -135.765434 
L 359.471347 -137.179967 
L 360.267585 -139.241386 
L 361.063822 -141.296308 
L 361.86006 -142.548887 
L 362.656297 -142.359631 
L 363.452535 -140.481842 
L 364.248772 -137.128136 
L 365.04501 -132.872749 
L 365.841247 -128.476102 
L 366.637485 -124.710354 
L 367.433722 -122.220862 
L 368.22996 -121.434382 
L 369.026198 -122.514233 
L 369.822435 -125.347314 
L 370.618673 -129.543657 
L 371.41491 -134.454364 
L 372.211148 -139.248777 
L 373.007385 -143.081765 
L 373.803623 -145.312405 
L 374.59986 -145.667904 
L 375.396098 -144.274212 
L 376.192335 -141.576561 
L 376.988573 -138.224755 
L 377.78481 -134.953598 
L 378.581048 -132.425982 
L 379.377285 -131.025984 
L 380.173523 -130.690188 
L 380.96976 -130.91182 
L 381.765998 -130.961181 
L 382.562235 -130.21689 
L 383.358473 -128.430845 
L 384.15471 -125.809109 
L 384.950948 -122.915083 
L 385.747186 -120.474761 
L 386.543423 -119.14969 
L 387.339661 -119.314645 
L 388.135898 -120.902376 
L 388.932136 -123.408386 
L 389.728373 -126.092004 
L 390.524611 -128.290986 
L 391.320848 -129.693055 
L 392.117086 -130.438653 
L 392.913323 -131.030009 
L 393.709561 -132.108047 
L 394.505798 -134.185718 
L 395.302036 -137.421427 
L 396.098273 -141.515199 
L 396.894511 -145.789878 
L 397.690748 -149.443748 
L 398.486986 -151.856657 
L 399.283223 -152.78437 
L 400.079461 -152.344421 
L 400.875699 -150.839479 
L 401.671936 -148.563285 
L 402.468174 -145.719348 
L 403.264411 -142.472568 
L 404.060649 -139.039877 
L 404.856886 -135.718229 
L 405.653124 -132.841204 
L 406.449361 -130.721319 
L 407.245599 -129.611144 
L 408.041836 -129.66144 
L 408.838074 -130.839356 
L 409.634311 -132.828077 
L 410.430549 -135.001335 
L 411.226786 -136.551948 
L 412.023024 -136.751983 
L 412.819261 -135.224224 
L 413.615499 -132.086841 
L 413.615499 -212.216711 
L 413.615499 -212.216711 
L 412.819261 -214.899583 
L 412.023024 -216.44694 
L 411.226786 -216.623538 
L 410.430549 -215.546673 
L 409.634311 -213.677269 
L 408.838074 -211.708722 
L 408.041836 -210.363593 
L 407.245599 -210.155254 
L 406.449361 -211.219819 
L 405.653124 -213.321999 
L 404.856886 -216.043582 
L 404.060649 -219.028138 
L 403.264411 -222.109132 
L 402.468174 -225.239298 
L 401.671936 -228.297972 
L 400.875699 -230.951987 
L 400.079461 -232.692383 
L 399.283223 -233.017188 
L 398.486986 -231.63663 
L 397.690748 -228.596077 
L 396.894511 -224.284388 
L 396.098273 -219.352586 
L 395.302036 -214.573098 
L 394.505798 -210.650511 
L 393.709561 -208.009136 
L 392.913323 -206.634498 
L 392.117086 -206.068392 
L 391.320848 -205.598054 
L 390.524611 -204.565482 
L 389.728373 -202.649064 
L 388.932136 -199.996909 
L 388.135898 -197.176136 
L 387.339661 -194.970273 
L 386.543423 -194.089639 
L 385.747186 -194.882708 
L 384.950948 -197.163042 
L 384.15471 -200.25817 
L 383.358473 -203.288686 
L 382.562235 -205.537482 
L 381.765998 -206.710124 
L 380.96976 -206.979373 
L 380.173523 -206.850462 
L 379.377285 -206.951082 
L 378.581048 -207.817469 
L 377.78481 -209.701355 
L 376.988573 -212.433508 
L 376.192335 -215.419875 
L 375.396098 -217.827181 
L 374.59986 -218.897083 
L 373.803623 -218.219585 
L 373.007385 -215.825017 
L 372.211148 -212.093534 
L 371.41491 -207.597228 
L 370.618673 -202.981516 
L 369.822435 -198.894652 
L 369.026198 -195.915582 
L 368.22996 -194.460578 
L 367.433722 -194.699511 
L 366.637485 -196.518687 
L 365.841247 -199.541383 
L 365.04501 -203.198721 
L 364.248772 -206.843749 
L 363.452535 -209.89168 
L 362.656297 -211.943917 
L 361.86006 -212.850282 
L 361.063822 -212.706053 
L 360.267585 -211.819404 
L 359.471347 -210.663464 
L 358.67511 -209.782608 
L 357.878872 -209.626373 
L 357.082635 -210.343495 
L 356.286397 -211.644006 
L 355.49016 -212.857686 
L 354.693922 -213.212978 
L 353.897685 -212.196541 
L 353.101447 -209.792152 
L 352.30521 -206.482076 
L 351.508972 -203.040975 
L 350.712734 -200.267052 
L 349.916497 -198.784442 
L 349.120259 -198.930248 
L 348.324022 -200.676424 
L 347.527784 -203.600664 
L 346.731547 -206.973208 
L 345.935309 -209.961291 
L 345.139072 -211.853123 
L 344.342834 -212.200054 
L 343.546597 -210.873107 
L 342.750359 -208.100968 
L 341.954122 -204.501717 
L 341.157884 -201.017656 
L 340.361647 -198.672241 
L 339.565409 -198.214751 
L 338.769172 -199.854479 
L 337.972934 -203.234865 
L 337.176697 -207.605618 
L 336.380459 -212.059348 
L 335.584221 -215.755454 
L 334.787984 -218.11527 
L 333.991746 -218.966907 
L 333.195509 -218.587989 
L 332.399271 -217.605999 
L 331.603034 -216.78317 
L 330.806796 -216.771133 
L 330.010559 -217.917444 
L 329.214321 -220.16698 
L 328.418084 -223.074042 
L 327.621846 -225.934527 
L 326.825609 -228.027689 
L 326.029371 -228.900107 
L 325.233134 -228.566602 
L 324.436896 -227.517103 
L 323.640659 -226.517006 
L 322.844421 -226.302819 
L 322.048184 -227.320006 
L 321.251946 -229.600964 
L 320.455709 -232.795151 
L 319.659471 -236.312366 
L 318.863233 -239.530112 
L 318.066996 -242.009345 
L 317.270758 -243.644502 
L 316.474521 -244.678257 
L 315.678283 -245.570744 
L 314.882046 -246.797489 
L 314.085808 -248.679171 
L 313.289571 -251.294688 
L 312.493333 -254.470649 
L 311.697096 -257.834541 
L 310.900858 -260.92965 
L 310.104621 -263.364562 
L 309.308383 -264.930566 
L 308.512146 -265.627689 
L 307.715908 -265.603667 
L 306.919671 -265.070602 
L 306.123433 -264.256956 
L 305.327196 -263.393322 
L 304.530958 -262.69967 
L 303.73472 -262.366299 
L 302.938483 -262.543199 
L 302.142245 -263.332447 
L 301.346008 -264.757757 
L 300.54977 -266.708078 
L 299.753533 -268.897188 
L 298.957295 -270.896756 
L 298.161058 -272.260098 
L 297.36482 -272.689998 
L 296.568583 -272.168366 
L 295.772345 -270.980767 
L 294.976108 -269.621642 
L 294.17987 -268.625536 
L 293.383633 -268.401392 
L 292.587395 -269.128208 
L 291.791158 -270.72379 
L 290.99492 -272.866992 
L 290.198683 -275.061748 
L 289.402445 -276.758046 
L 288.606208 -277.533472 
L 287.80997 -277.26789 
L 287.013732 -276.196375 
L 286.217495 -274.78859 
L 285.421257 -273.527471 
L 284.62502 -272.720189 
L 283.828782 -272.41899 
L 283.032545 -272.441418 
L 282.236307 -272.452704 
L 281.44007 -272.098297 
L 280.643832 -271.172064 
L 279.847595 -269.75138 
L 279.051357 -268.200581 
L 278.25512 -267.012767 
L 277.458882 -266.577757 
L 276.662645 -267.011128 
L 275.866407 -268.11752 
L 275.07017 -269.47099 
L 274.273932 -270.551054 
L 273.477695 -270.880742 
L 272.681457 -270.149889 
L 271.88522 -268.33176 
L 271.088982 -265.765984 
L 270.292744 -263.126431 
L 269.496507 -261.217864 
L 268.700269 -260.656074 
L 267.904032 -261.590332 
L 267.107794 -263.633838 
L 266.311557 -266.04634 
L 265.515319 -268.052691 
L 264.719082 -269.11915 
L 263.922844 -269.076732 
L 263.126607 -268.098705 
L 262.330369 -266.601791 
L 261.534132 -265.107918 
L 260.737894 -264.06327 
L 259.941657 -263.646136 
L 259.145419 -263.659205 
L 258.349182 -263.595108 
L 257.552944 -262.864141 
L 256.756707 -261.061328 
L 255.960469 -258.130157 
L 255.164231 -254.363737 
L 254.367994 -250.286157 
L 253.571756 -246.492888 
L 252.775519 -243.495373 
L 251.979281 -241.582931 
L 251.183044 -240.732637 
L 250.386806 -240.626276 
L 249.590569 -240.798885 
L 248.794331 -240.84633 
L 247.998094 -240.56499 
L 247.201856 -239.955841 
L 246.405619 -239.135111 
L 245.609381 -238.240866 
L 244.813144 -237.380629 
L 244.016906 -236.6052 
L 243.220669 -235.894369 
L 242.424431 -235.18075 
L 241.628194 -234.433363 
L 240.831956 -233.748967 
L 240.035719 -233.355545 
L 239.239481 -233.496916 
L 238.443243 -234.276675 
L 237.647006 -235.574453 
L 236.850768 -237.080582 
L 236.054531 -238.409463 
L 235.258293 -239.230673 
L 234.462056 -239.385872 
L 233.665818 -238.96871 
L 232.869581 -238.321554 
L 232.073343 -237.911057 
L 231.277106 -238.118085 
L 230.480868 -239.050048 
L 229.684631 -240.475913 
L 228.888393 -241.907798 
L 228.092156 -242.78243 
L 227.295918 -242.672332 
L 226.499681 -241.462199 
L 225.703443 -239.432897 
L 224.907206 -237.209941 
L 224.110968 -235.574513 
L 223.31473 -235.193677 
L 222.518493 -236.367228 
L 221.722255 -238.89351 
L 220.926018 -242.126173 
L 220.12978 -245.220648 
L 219.333543 -247.46696 
L 218.537305 -248.5435 
L 217.741068 -248.569888 
L 216.94483 -247.966515 
L 216.148593 -247.234803 
L 215.352355 -246.763685 
L 214.556118 -246.692628 
L 213.75988 -246.836581 
L 212.963643 -246.716752 
L 212.167405 -245.74643 
L 211.371168 -243.525284 
L 210.57493 -240.078735 
L 209.778693 -235.895323 
L 208.982455 -231.75789 
L 208.186218 -228.477832 
L 207.38998 -226.635618 
L 206.593742 -226.381831 
L 205.797505 -227.357077 
L 205.001267 -228.804158 
L 204.20503 -229.870394 
L 203.408792 -229.960298 
L 202.612555 -228.951017 
L 201.816317 -227.18321 
L 201.02008 -225.281639 
L 200.223842 -223.918488 
L 199.427605 -223.596759 
L 198.631367 -224.492308 
L 197.83513 -226.400219 
L 197.038892 -228.826666 
L 196.242655 -231.196201 
L 195.446417 -233.062477 
L 194.65018 -234.214257 
L 193.853942 -234.656095 
L 193.057705 -234.522628 
L 192.261467 -233.990271 
L 191.46523 -233.209407 
L 190.668992 -232.257931 
L 189.872754 -231.126634 
L 189.076517 -229.752339 
L 188.280279 -228.092246 
L 187.484042 -226.199875 
L 186.687804 -224.255765 
L 185.891567 -222.529936 
L 185.095329 -221.284989 
L 184.299092 -220.655372 
L 183.502854 -220.559176 
L 182.706617 -220.699739 
L 181.910379 -220.672412 
L 181.114142 -220.12203 
L 180.317904 -218.862513 
L 179.521667 -216.911428 
L 178.725429 -214.464565 
L 177.929192 -211.857258 
L 177.132954 -209.519772 
L 176.336717 -207.901534 
L 175.540479 -207.351019 
L 174.744241 -207.975181 
L 173.948004 -209.539102 
L 173.151766 -211.480059 
L 172.355529 -213.064185 
L 171.559291 -213.625609 
L 170.763054 -212.777079 
L 169.966816 -210.506217 
L 169.170579 -207.139809 
L 168.374341 -203.22245 
L 167.578104 -199.371469 
L 166.781866 -196.134722 
L 165.985629 -193.849744 
L 165.189391 -192.533781 
L 164.393154 -191.879691 
L 163.596916 -191.400339 
L 162.800679 -190.653032 
L 162.004441 -189.40615 
L 161.208204 -187.661326 
L 160.411966 -185.568783 
L 159.615729 -183.34628 
L 158.819491 -181.25483 
L 158.023253 -179.582556 
L 157.227016 -178.579636 
L 156.430778 -178.365419 
L 155.634541 -178.886395 
L 154.838303 -179.964603 
L 154.042066 -181.383357 
L 153.245828 -182.932624 
L 152.449591 -184.40737 
L 151.653353 -185.608898 
L 150.857116 -186.371822 
L 150.060878 -186.584994 
L 149.264641 -186.181421 
L 148.468403 -185.129617 
L 147.672166 -183.471462 
L 146.875928 -181.37993 
L 146.079691 -179.149301 
L 145.283453 -177.073784 
L 144.487216 -175.288513 
L 143.690978 -173.716024 
L 142.89474 -172.17509 
L 142.098503 -170.543571 
L 141.302265 -168.82652 
L 140.506028 -167.097703 
L 139.70979 -165.407592 
L 138.913553 -163.753436 
L 138.117315 -162.108444 
L 137.321078 -160.439637 
L 136.52484 -158.677979 
L 135.728603 -156.701167 
L 134.932365 -154.430941 
L 134.136128 -152.020505 
L 133.33989 -149.952203 
L 132.543653 -148.909133 
L 131.747415 -149.467717 
L 130.951178 -151.789856 
L 130.15494 -155.487874 
L 129.358703 -159.718013 
L 128.562465 -163.442479 
L 127.766228 -165.758373 
L 126.96999 -166.192502 
L 126.173752 -164.85956 
L 125.377515 -162.402944 
L 124.581277 -159.727611 
L 123.78504 -157.66151 
L 122.988802 -156.724538 
L 122.192565 -157.08144 
L 121.396327 -158.618435 
L 120.60009 -161.046451 
L 119.803852 -163.997525 
L 119.007615 -167.143208 
L 118.211377 -170.318271 
L 117.41514 -173.540286 
L 116.618902 -176.853335 
L 115.822665 -180.100463 
L 115.026427 -182.842817 
L 114.23019 -184.520192 
L 113.433952 -184.717253 
L 112.637715 -183.334069 
L 111.841477 -180.581273 
L 111.04524 -176.86356 
L 110.249002 -172.653523 
L 109.452764 -168.391265 
L 108.656527 -164.397056 
L 107.860289 -160.815251 
L 107.064052 -157.63907 
L 106.267814 -154.822301 
L 105.471577 -152.408117 
L 104.675339 -150.589718 
L 103.879102 -149.667007 
L 103.082864 -149.910277 
L 102.286627 -151.369332 
L 101.490389 -153.709998 
L 100.694152 -156.200339 
L 99.897914 -157.920733 
L 99.101677 -158.116411 
L 98.305439 -156.491928 
L 97.509202 -153.290033 
L 96.712964 -149.150709 
L 95.916727 -144.866922 
L 95.120489 -141.146316 
L 94.324251 -138.413289 
L 93.528014 -136.683401 
L 92.731776 -135.594933 
L 91.935539 -134.637495 
L 91.139301 -133.460481 
L 90.343064 -132.05865 
L 89.546826 -130.717426 
L 88.750589 -129.773063 
L 87.954351 -129.370138 
L 87.158114 -129.373054 
L 86.361876 -129.441369 
L 85.565639 -129.180821 
L 84.769401 -128.294813 
L 83.973164 -126.704204 
L 83.176926 -124.618375 
L 82.380689 -122.524099 
L 81.584451 -121.057962 
L 80.788214 -120.777294 
L 79.991976 -121.914354 
L 79.195739 -124.238581 
L 78.399501 -127.125405 
L 77.603263 -129.8181 
L 76.807026 -131.736058 
L 76.010788 -132.651163 
L 75.214551 -132.667101 
L 74.418313 -132.093616 
L 73.622076 -131.330851 
L 72.825838 -130.77034 
L 72.029601 -130.669793 
L 71.233363 -131.020263 
L 70.437126 -131.508378 
L 69.640888 -131.675642 
L 68.844651 -131.218426 
L 68.048413 -130.201146 
L 67.252176 -128.991961 
L 66.455938 -127.990134 
L 65.659701 -127.441343 
L 64.863463 -127.461443 
L 64.067226 -128.092452 
L 63.270988 -129.264609 
L 62.47475 -130.719323 
L 61.678513 -132.014769 
L 60.882275 -132.665442 
L 60.086038 -132.329711 
L 59.2898 -130.929304 
L 58.493563 -128.687229 
L 57.697325 -126.121944 
L 56.901088 -123.969777 
L 56.10485 -122.968994 
L 55.308613 -123.548645 
L 54.512375 -125.635159 
L 53.716138 -128.743695 
L 52.9199 -132.249388 
L 52.123663 -135.603868 
L 51.327425 -138.390894 
L 50.531188 -140.327176 
L 49.73495 -141.362844 
L 48.938713 -141.816485 
L 48.142475 -142.33234 
L 47.346238 -143.583333 
L 46.55 -145.873273 
z
" style="stroke: #e41a1c; stroke-opacity: 0.3"/>
    </defs>
    <g clip-path="url(#p29a15db6ac)">
     <use xlink:href="#mcc82ac3d59" x="0" y="360" style="fill: #e41a1c; fill-opacity: 0.3; stroke: #e41a1c; stroke-opacity: 0.3"/>
    </g>
   </g>
   <g id="PolyCollection_2">
    <defs>
     <path id="md309b7d6ea" d="M 46.55 -136.994366 
L 46.55 -112.879186 
L 47.346238 -112.000133 
L 48.142475 -111.245223 
L 48.938713 -110.593022 
L 49.73495 -110.101706 
L 50.531188 -109.885546 
L 51.327425 -110.036932 
L 52.123663 -110.551783 
L 52.9199 -111.31169 
L 53.716138 -112.131023 
L 54.512375 -112.823526 
L 55.308613 -113.236448 
L 56.10485 -113.258541 
L 56.901088 -112.841178 
L 57.697325 -112.031627 
L 58.493563 -110.980527 
L 59.2898 -109.906104 
L 60.086038 -109.038297 
L 60.882275 -108.567843 
L 61.678513 -108.596949 
L 62.47475 -109.089952 
L 63.270988 -109.854588 
L 64.067226 -110.584754 
L 64.863463 -110.951434 
L 65.659701 -110.68812 
L 66.455938 -109.630155 
L 67.252176 -107.723052 
L 68.048413 -105.04145 
L 68.844651 -101.821369 
L 69.640888 -98.456145 
L 70.437126 -95.419735 
L 71.233363 -93.147681 
L 72.029601 -91.933468 
L 72.825838 -91.863241 
L 73.622076 -92.777556 
L 74.418313 -94.262379 
L 75.214551 -95.707271 
L 76.010788 -96.458874 
L 76.807026 -96.031577 
L 77.603263 -94.283462 
L 78.399501 -91.483472 
L 79.195739 -88.257778 
L 79.991976 -85.441333 
L 80.788214 -83.862086 
L 81.584451 -84.09232 
L 82.380689 -86.238447 
L 83.176926 -89.865066 
L 83.973164 -94.105763 
L 84.769401 -97.922198 
L 85.565639 -100.407734 
L 86.361876 -101.033293 
L 87.158114 -99.774724 
L 87.954351 -97.094827 
L 88.750589 -93.78098 
L 89.546826 -90.68419 
L 90.343064 -88.454405 
L 91.139301 -87.377016 
L 91.935539 -87.365712 
L 92.731776 -88.0821 
L 93.528014 -89.092556 
L 94.324251 -89.990276 
L 95.120489 -90.471422 
L 95.916727 -90.381555 
L 96.712964 -89.7347 
L 97.509202 -88.693278 
L 98.305439 -87.508721 
L 99.101677 -86.449951 
L 99.897914 -85.753712 
L 100.694152 -85.602299 
L 101.490389 -86.104388 
L 102.286627 -87.260311 
L 103.082864 -88.927898 
L 103.879102 -90.826529 
L 104.675339 -92.597701 
L 105.471577 -93.898369 
L 106.267814 -94.484826 
L 107.064052 -94.264078 
L 107.860289 -93.312816 
L 108.656527 -91.867226 
L 109.452764 -90.278227 
L 110.249002 -88.922516 
L 111.04524 -88.075188 
L 111.841477 -87.789266 
L 112.637715 -87.852426 
L 113.433952 -87.861874 
L 114.23019 -87.393307 
L 115.026427 -86.185665 
L 115.822665 -84.254279 
L 116.618902 -81.885966 
L 117.41514 -79.53047 
L 118.211377 -77.644047 
L 119.007615 -76.549224 
L 119.803852 -76.355567 
L 120.60009 -76.952245 
L 121.396327 -78.057882 
L 122.192565 -79.309625 
L 122.988802 -80.37382 
L 123.78504 -81.048755 
L 124.581277 -81.317467 
L 125.377515 -81.319504 
L 126.173752 -81.250669 
L 126.96999 -81.245369 
L 127.766228 -81.308129 
L 128.562465 -81.326098 
L 129.358703 -81.14169 
L 130.15494 -80.636281 
L 130.951178 -79.78684 
L 131.747415 -78.682648 
L 132.543653 -77.503074 
L 133.33989 -76.461453 
L 134.136128 -75.727524 
L 134.932365 -75.355504 
L 135.728603 -75.253433 
L 136.52484 -75.216661 
L 137.321078 -75.0175 
L 138.117315 -74.513468 
L 138.913553 -73.726731 
L 139.70979 -72.859862 
L 140.506028 -72.238837 
L 141.302265 -72.201401 
L 142.098503 -72.970888 
L 142.89474 -74.565071 
L 143.690978 -76.780396 
L 144.487216 -79.262645 
L 145.283453 -81.636128 
L 146.079691 -83.634841 
L 146.875928 -85.179278 
L 147.672166 -86.371421 
L 148.468403 -87.419506 
L 149.264641 -88.531061 
L 150.060878 -89.815996 
L 150.857116 -91.228348 
L 151.653353 -92.562816 
L 152.449591 -93.514792 
L 153.245828 -93.795654 
L 154.042066 -93.265463 
L 154.838303 -92.022994 
L 155.634541 -90.401203 
L 156.430778 -88.860246 
L 157.227016 -87.824882 
L 158.023253 -87.540121 
L 158.819491 -87.999716 
L 159.615729 -88.958928 
L 160.411966 -90.011681 
L 161.208204 -90.705803 
L 162.004441 -90.670136 
L 162.800679 -89.721328 
L 163.596916 -87.916912 
L 164.393154 -85.533806 
L 165.189391 -82.976807 
L 165.985629 -80.650947 
L 166.781866 -78.850183 
L 167.578104 -77.706267 
L 168.374341 -77.207526 
L 169.170579 -77.261079 
L 169.966816 -77.756031 
L 170.763054 -78.59582 
L 171.559291 -79.692101 
L 172.355529 -80.934256 
L 173.151766 -82.157611 
L 173.948004 -83.132402 
L 174.744241 -83.590782 
L 175.540479 -83.297929 
L 176.336717 -82.15084 
L 177.132954 -80.26333 
L 177.929192 -77.989178 
L 178.725429 -75.856969 
L 179.521667 -74.429425 
L 180.317904 -74.133175 
L 181.114142 -75.116246 
L 181.910379 -77.181803 
L 182.706617 -79.826495 
L 183.502854 -82.381255 
L 184.299092 -84.213764 
L 185.095329 -84.920159 
L 185.891567 -84.433201 
L 186.687804 -83.012579 
L 187.484042 -81.134128 
L 188.280279 -79.327527 
L 189.076517 -78.019356 
L 189.872754 -77.429963 
L 190.668992 -77.553306 
L 191.46523 -78.217159 
L 192.261467 -79.18635 
L 193.057705 -80.258001 
L 193.853942 -81.315769 
L 194.65018 -82.338372 
L 195.446417 -83.37064 
L 196.242655 -84.465512 
L 197.038892 -85.61567 
L 197.83513 -86.713068 
L 198.631367 -87.574624 
L 199.427605 -88.033944 
L 200.223842 -88.045397 
L 201.02008 -87.727658 
L 201.816317 -87.315139 
L 202.612555 -87.049787 
L 203.408792 -87.074605 
L 204.20503 -87.37439 
L 205.001267 -87.780522 
L 205.797505 -88.034887 
L 206.593742 -87.891718 
L 207.38998 -87.221401 
L 208.186218 -86.075559 
L 208.982455 -84.687363 
L 209.778693 -83.405683 
L 210.57493 -82.580426 
L 211.371168 -82.430394 
L 212.167405 -82.943706 
L 212.963643 -83.866531 
L 213.75988 -84.801144 
L 214.556118 -85.371867 
L 215.352355 -85.379132 
L 216.148593 -84.875132 
L 216.94483 -84.138486 
L 217.741068 -83.560021 
L 218.537305 -83.469264 
L 219.333543 -83.956725 
L 220.12978 -84.778734 
L 220.926018 -85.419926 
L 221.722255 -85.30792 
L 222.518493 -84.07935 
L 223.31473 -81.763826 
L 224.110968 -78.806624 
L 224.907206 -75.937025 
L 225.703443 -73.94185 
L 226.499681 -73.415028 
L 227.295918 -74.553692 
L 228.092156 -77.071893 
L 228.888393 -80.280044 
L 229.684631 -83.312522 
L 230.480868 -85.410855 
L 231.277106 -86.14334 
L 232.073343 -85.482899 
L 232.869581 -83.737397 
L 233.665818 -81.382619 
L 234.462056 -78.871047 
L 235.258293 -76.48668 
L 236.054531 -74.294585 
L 236.850768 -72.195423 
L 237.647006 -70.050799 
L 238.443243 -67.81481 
L 239.239481 -65.606323 
L 240.035719 -63.684214 
L 240.831956 -62.332303 
L 241.628194 -61.707091 
L 242.424431 -61.727313 
L 243.220669 -62.069867 
L 244.016906 -62.281605 
L 244.813144 -61.952743 
L 245.609381 -60.869642 
L 246.405619 -59.09004 
L 247.201856 -56.929638 
L 247.998094 -54.875263 
L 248.794331 -53.44484 
L 249.590569 -53.025403 
L 250.386806 -53.744634 
L 251.183044 -55.436276 
L 251.979281 -57.719544 
L 252.775519 -60.1502 
L 253.571756 -62.366777 
L 254.367994 -64.174082 
L 255.164231 -65.553584 
L 255.960469 -66.621399 
L 256.756707 -67.556769 
L 257.552944 -68.521103 
L 258.349182 -69.594149 
L 259.145419 -70.75608 
L 259.941657 -71.923174 
L 260.737894 -73.009553 
L 261.534132 -73.971104 
L 262.330369 -74.808101 
L 263.126607 -75.53935 
L 263.922844 -76.174261 
L 264.719082 -76.695345 
L 265.515319 -77.048939 
L 266.311557 -77.145366 
L 267.107794 -76.878027 
L 267.904032 -76.164195 
L 268.700269 -74.989606 
L 269.496507 -73.430076 
L 270.292744 -71.640127 
L 271.088982 -69.821876 
L 271.88522 -68.189905 
L 272.681457 -66.93287 
L 273.477695 -66.170225 
L 274.273932 -65.919476 
L 275.07017 -66.100508 
L 275.866407 -66.583163 
L 276.662645 -67.246359 
L 277.458882 -68.005658 
L 278.25512 -68.80185 
L 279.051357 -69.584623 
L 279.847595 -70.318651 
L 280.643832 -70.998816 
L 281.44007 -71.642764 
L 282.236307 -72.25917 
L 283.032545 -72.825951 
L 283.828782 -73.306828 
L 284.62502 -73.693951 
L 285.421257 -74.034436 
L 286.217495 -74.411587 
L 287.013732 -74.893369 
L 287.80997 -75.486319 
L 288.606208 -76.121163 
L 289.402445 -76.668647 
L 290.198683 -76.972271 
L 290.99492 -76.89123 
L 291.791158 -76.349911 
L 292.587395 -75.378661 
L 293.383633 -74.119103 
L 294.17987 -72.778451 
L 294.976108 -71.550699 
L 295.772345 -70.549524 
L 296.568583 -69.789539 
L 297.36482 -69.214088 
L 298.161058 -68.736797 
L 298.957295 -68.271637 
L 299.753533 -67.75368 
L 300.54977 -67.161097 
L 301.346008 -66.532001 
L 302.142245 -65.953971 
L 302.938483 -65.515939 
L 303.73472 -65.249261 
L 304.530958 -65.105235 
L 305.327196 -64.988495 
L 306.123433 -64.818471 
L 306.919671 -64.576746 
L 307.715908 -64.322087 
L 308.512146 -64.177633 
L 309.308383 -64.295057 
L 310.104621 -64.795486 
L 310.900858 -65.699987 
L 311.697096 -66.885263 
L 312.493333 -68.098083 
L 313.289571 -69.025737 
L 314.085808 -69.38566 
L 314.882046 -69.000411 
L 315.678283 -67.849185 
L 316.474521 -66.095635 
L 317.270758 -64.078472 
L 318.066996 -62.246659 
L 318.863233 -61.045868 
L 319.659471 -60.795987 
L 320.455709 -61.603728 
L 321.251946 -63.327124 
L 322.048184 -65.586366 
L 322.844421 -67.820657 
L 323.640659 -69.401848 
L 324.436896 -69.799273 
L 325.233134 -68.75151 
L 326.029371 -66.378263 
L 326.825609 -63.184005 
L 327.621846 -59.948278 
L 328.418084 -57.533039 
L 329.214321 -56.654681 
L 330.010559 -57.677998 
L 330.806796 -60.494824 
L 331.603034 -64.537091 
L 332.399271 -68.930709 
L 333.195509 -72.741205 
L 333.991746 -75.227455 
L 334.787984 -76.022015 
L 335.584221 -75.187482 
L 336.380459 -73.141621 
L 337.176697 -70.488161 
L 337.972934 -67.822321 
L 338.769172 -65.58373 
L 339.565409 -63.999217 
L 340.361647 -63.111738 
L 341.157884 -62.858874 
L 341.954122 -63.156088 
L 342.750359 -63.947347 
L 343.546597 -65.201846 
L 344.342834 -66.862765 
L 345.139072 -68.786504 
L 345.935309 -70.724981 
L 346.731547 -72.379362 
L 347.527784 -73.503844 
L 348.324022 -74.001966 
L 349.120259 -73.965316 
L 349.916497 -73.643049 
L 350.712734 -73.360975 
L 351.508972 -73.416059 
L 352.30521 -73.974712 
L 353.101447 -75.011566 
L 353.897685 -76.322715 
L 354.693922 -77.617196 
L 355.49016 -78.64717 
L 356.286397 -79.313861 
L 357.082635 -79.700193 
L 357.878872 -80.020255 
L 358.67511 -80.513058 
L 359.471347 -81.325976 
L 360.267585 -82.433421 
L 361.063822 -83.623595 
L 361.86006 -84.561563 
L 362.656297 -84.906033 
L 363.452535 -84.43446 
L 364.248772 -83.127419 
L 365.04501 -81.179019 
L 365.841247 -78.929414 
L 366.637485 -76.748202 
L 367.433722 -74.919325 
L 368.22996 -73.575104 
L 369.026198 -72.697648 
L 369.822435 -72.17017 
L 370.618673 -71.843698 
L 371.41491 -71.592276 
L 372.211148 -71.345053 
L 373.007385 -71.091802 
L 373.803623 -70.86205 
L 374.59986 -70.685666 
L 375.396098 -70.55411 
L 376.192335 -70.404578 
L 376.988573 -70.136629 
L 377.78481 -69.651776 
L 378.581048 -68.897442 
L 379.377285 -67.900424 
L 380.173523 -66.780006 
L 380.96976 -65.730644 
L 381.765998 -64.967416 
L 382.562235 -64.645147 
L 383.358473 -64.787322 
L 384.15471 -65.26758 
L 384.950948 -65.861551 
L 385.747186 -66.345128 
L 386.543423 -66.589487 
L 387.339661 -66.611443 
L 388.135898 -66.566218 
L 388.932136 -66.692042 
L 389.728373 -67.22362 
L 390.524611 -68.297081 
L 391.320848 -69.878431 
L 392.117086 -71.751081 
L 392.913323 -73.58141 
L 393.709561 -75.044671 
L 394.505798 -75.95623 
L 395.302036 -76.344251 
L 396.098273 -76.429644 
L 396.894511 -76.52641 
L 397.690748 -76.909437 
L 398.486986 -77.703296 
L 399.283223 -78.831533 
L 400.079461 -80.042945 
L 400.875699 -81.007801 
L 401.671936 -81.452785 
L 402.468174 -81.283162 
L 403.264411 -80.639211 
L 404.060649 -79.859267 
L 404.856886 -79.362124 
L 405.653124 -79.493376 
L 406.449361 -80.390545 
L 407.245599 -81.914867 
L 408.041836 -83.68024 
L 408.838074 -85.179201 
L 409.634311 -85.963568 
L 410.430549 -85.807247 
L 411.226786 -84.783954 
L 412.023024 -83.233484 
L 412.819261 -81.638855 
L 413.615499 -80.465903 
L 413.615499 -128.979019 
L 413.615499 -128.979019 
L 412.819261 -129.914612 
L 412.023024 -131.340116 
L 411.226786 -132.814253 
L 410.430549 -133.839071 
L 409.634311 -134.034604 
L 408.838074 -133.280208 
L 408.041836 -131.764921 
L 407.245599 -129.927653 
L 406.449361 -128.306963 
L 405.653124 -127.350432 
L 404.856886 -127.252004 
L 404.060649 -127.883819 
L 403.264411 -128.855223 
L 402.468174 -129.675056 
L 401.671936 -129.945207 
L 400.875699 -129.503706 
L 400.079461 -128.464363 
L 399.283223 -127.145196 
L 398.486986 -125.919953 
L 397.690748 -125.055384 
L 396.894511 -124.603573 
L 396.098273 -124.395247 
L 395.302036 -124.132165 
L 394.505798 -123.529023 
L 393.709561 -122.436005 
L 392.913323 -120.892099 
L 392.117086 -119.099577 
L 391.320848 -117.343582 
L 390.524611 -115.891362 
L 389.728373 -114.90231 
L 388.932136 -114.376629 
L 388.135898 -114.163973 
L 387.339661 -114.034248 
L 386.543423 -113.782816 
L 385.747186 -113.320903 
L 384.950948 -112.708022 
L 384.15471 -112.116255 
L 383.358473 -111.753334 
L 382.562235 -111.785352 
L 381.765998 -112.284636 
L 380.96976 -113.207377 
L 380.173523 -114.400059 
L 379.377285 -115.637521 
L 378.581048 -116.69085 
L 377.78481 -117.404479 
L 376.988573 -117.747407 
L 376.192335 -117.811661 
L 375.396098 -117.759731 
L 374.59986 -117.749523 
L 373.803623 -117.872457 
L 373.007385 -118.128258 
L 372.211148 -118.442962 
L 371.41491 -118.723174 
L 370.618673 -118.926401 
L 369.822435 -119.114102 
L 369.026198 -119.453992 
L 368.22996 -120.160375 
L 367.433722 -121.396517 
L 366.637485 -123.186027 
L 365.841247 -125.374276 
L 365.04501 -127.654001 
L 364.248772 -129.643944 
L 363.452535 -130.996001 
L 362.656297 -131.499687 
L 361.86006 -131.150083 
L 361.063822 -130.151253 
L 360.267585 -128.847555 
L 359.471347 -127.603907 
L 358.67511 -126.679065 
L 357.878872 -126.141832 
L 357.082635 -125.865282 
L 356.286397 -125.601791 
L 355.49016 -125.105189 
L 354.693922 -124.244703 
L 353.897685 -123.062325 
L 353.101447 -121.75474 
L 352.30521 -120.592516 
L 351.508972 -119.808257 
L 350.712734 -119.494107 
L 349.916497 -119.551112 
L 349.120259 -119.719937 
L 348.324022 -119.685671 
L 347.527784 -119.204862 
L 346.731547 -118.18851 
L 345.935309 -116.707848 
L 345.139072 -114.940711 
L 344.342834 -113.101787 
L 343.546597 -111.389211 
L 342.750359 -109.958532 
L 341.954122 -108.924081 
L 341.157884 -108.381514 
L 340.361647 -108.432829 
L 339.565409 -109.184123 
L 338.769172 -110.69587 
L 337.972934 -112.899244 
L 337.176697 -115.524687 
L 336.380459 -118.092597 
L 335.584221 -119.990456 
L 334.787984 -120.624961 
L 333.991746 -119.606824 
L 333.195509 -116.90704 
L 332.399271 -112.922102 
L 331.603034 -108.410329 
L 330.806796 -104.30836 
L 330.010559 -101.48334 
L 329.214321 -100.498097 
L 328.418084 -101.459116 
L 327.621846 -103.992378 
L 326.825609 -107.357022 
L 326.029371 -110.662962 
L 325.233134 -113.119427 
L 324.436896 -114.230595 
L 323.640659 -113.885086 
L 322.844421 -112.336324 
L 322.048184 -110.103404 
L 321.251946 -107.825407 
L 320.455709 -106.097888 
L 319.659471 -105.327613 
L 318.863233 -105.64849 
L 318.066996 -106.922708 
L 317.270758 -108.810786 
L 316.474521 -110.869586 
L 315.678283 -112.649736 
L 314.882046 -113.788353 
L 314.085808 -114.093481 
L 313.289571 -113.593887 
L 312.493333 -112.521328 
L 311.697096 -111.223418 
L 310.900858 -110.046481 
L 310.104621 -109.238222 
L 309.308383 -108.895014 
L 308.512146 -108.954421 
L 307.715908 -109.232322 
L 306.919671 -109.50405 
L 306.123433 -109.606067 
L 305.327196 -109.508885 
L 304.530958 -109.319981 
L 303.73472 -109.219745 
L 302.938483 -109.373993 
L 302.142245 -109.867016 
L 301.346008 -110.67054 
L 300.54977 -111.647667 
L 299.753533 -112.597172 
L 298.957295 -113.337836 
L 298.161058 -113.799789 
L 297.36482 -114.066698 
L 296.568583 -114.334524 
L 295.772345 -114.806975 
L 294.976108 -115.59102 
L 294.17987 -116.651273 
L 293.383633 -117.834646 
L 292.587395 -118.9341 
L 291.791158 -119.755504 
L 290.99492 -120.170871 
L 290.198683 -120.152675 
L 289.402445 -119.780523 
L 288.606208 -119.21052 
L 287.80997 -118.613821 
L 287.013732 -118.113673 
L 286.217495 -117.754325 
L 285.421257 -117.510789 
L 284.62502 -117.318564 
L 283.828782 -117.096984 
L 283.032545 -116.761578 
L 282.236307 -116.240826 
L 281.44007 -115.503562 
L 280.643832 -114.578331 
L 279.847595 -113.541332 
L 279.051357 -112.476766 
L 278.25512 -111.444877 
L 277.458882 -110.489313 
L 276.662645 -109.671385 
L 275.866407 -109.085982 
L 275.07017 -108.834592 
L 274.273932 -108.981695 
L 273.477695 -109.53653 
L 272.681457 -110.466738 
L 271.88522 -111.714605 
L 271.088982 -113.195274 
L 270.292744 -114.788054 
L 269.496507 -116.344076 
L 268.700269 -117.715035 
L 267.904032 -118.784019 
L 267.107794 -119.480779 
L 266.311557 -119.783374 
L 265.515319 -119.716286 
L 264.719082 -119.343005 
L 263.922844 -118.743711 
L 263.126607 -117.983227 
L 262.330369 -117.091985 
L 261.534132 -116.076825 
L 260.737894 -114.950585 
L 259.941657 -113.751934 
L 259.145419 -112.53894 
L 258.349182 -111.365117 
L 257.552944 -110.255289 
L 256.756707 -109.187401 
L 255.960469 -108.079688 
L 255.164231 -106.793685 
L 254.367994 -105.172362 
L 253.571756 -103.116291 
L 252.775519 -100.665965 
L 251.979281 -98.040041 
L 251.183044 -95.600668 
L 250.386806 -93.758728 
L 249.590569 -92.856533 
L 248.794331 -93.061611 
L 247.998094 -94.295792 
L 247.201856 -96.226881 
L 246.405619 -98.349052 
L 245.609381 -100.146452 
L 244.813144 -101.278521 
L 244.016906 -101.696246 
L 243.220669 -101.632048 
L 242.424431 -101.478538 
L 241.628194 -101.625621 
L 240.831956 -102.3274 
L 240.035719 -103.638733 
L 239.239481 -105.430747 
L 238.443243 -107.473715 
L 237.647006 -109.55462 
L 236.850768 -111.577961 
L 236.054531 -113.597586 
L 235.258293 -115.756329 
L 234.462056 -118.157511 
L 233.665818 -120.731848 
L 232.869581 -123.173461 
L 232.073343 -124.993266 
L 231.277106 -125.685208 
L 230.480868 -124.94192 
L 229.684631 -122.824 
L 228.888393 -119.80304 
L 228.092156 -116.654955 
L 227.295918 -114.240931 
L 226.499681 -113.247332 
L 225.703443 -113.964259 
L 224.907206 -116.180197 
L 224.110968 -119.248154 
L 223.31473 -122.316326 
L 222.518493 -124.632596 
L 221.722255 -125.788428 
L 220.926018 -125.804858 
L 220.12978 -125.053414 
L 219.333543 -124.076535 
L 218.537305 -123.383142 
L 217.741068 -123.273683 
L 216.94483 -123.739945 
L 216.148593 -124.482828 
L 215.352355 -125.058307 
L 214.556118 -125.093147 
L 213.75988 -124.461707 
L 212.963643 -123.33897 
L 212.167405 -122.120447 
L 211.371168 -121.261116 
L 210.57493 -121.101891 
L 209.778693 -121.741257 
L 208.982455 -122.996492 
L 208.186218 -124.476282 
L 207.38998 -125.74098 
L 206.593742 -126.477524 
L 205.797505 -126.607558 
L 205.001267 -126.286948 
L 204.20503 -125.809449 
L 203.408792 -125.465371 
L 202.612555 -125.41936 
L 201.816317 -125.659453 
L 201.02008 -126.032662 
L 200.223842 -126.33502 
L 199.427605 -126.398013 
L 198.631367 -126.131157 
L 197.83513 -125.523128 
L 197.038892 -124.62543 
L 196.242655 -123.527211 
L 195.446417 -122.317377 
L 194.65018 -121.045777 
L 193.853942 -119.714427 
L 193.057705 -118.318949 
L 192.261467 -116.919572 
L 191.46523 -115.687375 
L 190.668992 -114.881351 
L 189.872754 -114.757414 
L 189.076517 -115.451989 
L 188.280279 -116.89215 
L 187.484042 -118.76983 
L 186.687804 -120.597054 
L 185.891567 -121.834268 
L 185.095329 -122.054042 
L 184.299092 -121.082202 
L 183.502854 -119.064362 
L 182.706617 -116.436495 
L 181.910379 -113.811939 
L 181.114142 -111.817335 
L 180.317904 -110.920192 
L 179.521667 -111.29802 
L 178.725429 -112.79428 
L 177.929192 -114.978332 
L 177.132954 -117.285027 
L 176.336717 -119.180715 
L 175.540479 -120.300711 
L 174.744241 -120.521524 
L 173.948004 -119.954409 
L 173.151766 -118.869477 
L 172.355529 -117.582415 
L 171.559291 -116.351474 
L 170.763054 -115.327343 
L 169.966816 -114.569429 
L 169.170579 -114.104834 
L 168.374341 -113.985916 
L 167.578104 -114.309915 
L 166.781866 -115.189588 
L 165.985629 -116.689665 
L 165.189391 -118.758674 
L 164.393154 -121.188261 
L 163.596916 -123.624199 
L 162.800679 -125.639564 
L 162.004441 -126.859682 
L 161.208204 -127.100364 
L 160.411966 -126.460434 
L 159.615729 -125.316757 
L 158.819491 -124.208305 
L 158.023253 -123.646831 
L 157.227016 -123.931875 
L 156.430778 -125.050207 
L 155.634541 -126.6966 
L 154.838303 -128.392972 
L 154.042066 -129.648928 
L 153.245828 -130.108963 
L 152.449591 -129.648382 
L 151.653353 -128.395185 
L 150.857116 -126.668925 
L 150.060878 -124.85062 
L 149.264641 -123.228829 
L 148.468403 -121.88803 
L 147.672166 -120.693842 
L 146.875928 -119.382387 
L 146.079691 -117.70644 
L 145.283453 -115.566098 
L 144.487216 -113.067963 
L 143.690978 -110.496418 
L 142.89474 -108.21823 
L 142.098503 -106.56101 
L 141.302265 -105.707441 
L 140.506028 -105.639136 
L 139.70979 -106.148796 
L 138.913553 -106.917462 
L 138.117315 -107.629285 
L 137.321078 -108.080199 
L 136.52484 -108.238578 
L 135.728603 -108.236693 
L 134.932365 -108.300326 
L 134.136128 -108.646457 
L 133.33989 -109.387542 
L 132.543653 -110.477635 
L 131.747415 -111.723583 
L 130.951178 -112.862108 
L 130.15494 -113.671928 
L 129.358703 -114.066201 
L 128.562465 -114.116078 
L 127.766228 -113.993382 
L 126.96999 -113.86823 
L 126.173752 -113.820851 
L 125.377515 -113.808777 
L 124.581277 -113.692377 
L 123.78504 -113.298108 
L 122.988802 -112.4986 
L 122.192565 -111.292591 
L 121.396327 -109.858434 
L 120.60009 -108.543574 
L 119.803852 -107.768395 
L 119.007615 -107.870036 
L 118.211377 -108.957194 
L 117.41514 -110.851643 
L 116.618902 -113.147009 
L 115.822665 -115.354243 
L 115.026427 -117.067638 
L 114.23019 -118.086319 
L 113.433952 -118.454204 
L 112.637715 -118.419478 
L 111.841477 -118.340764 
L 111.04524 -118.569973 
L 110.249002 -119.335588 
L 109.452764 -120.651492 
L 108.656527 -122.283338 
L 107.860289 -123.803329 
L 107.064052 -124.734159 
L 106.267814 -124.728171 
L 105.471577 -123.696208 
L 104.675339 -121.82645 
L 103.879102 -119.495471 
L 103.082864 -117.12915 
L 102.286627 -115.087351 
L 101.490389 -113.610546 
L 100.694152 -112.814172 
L 99.897914 -112.698203 
L 99.101677 -113.158877 
L 98.305439 -114.009619 
L 97.509202 -115.013869 
L 96.712964 -115.91866 
L 95.916727 -116.482332 
L 95.120489 -116.511694 
L 94.324251 -115.928084 
L 93.528014 -114.846537 
L 92.731776 -113.60937 
L 91.935539 -112.717955 
L 91.139301 -112.664534 
L 90.343064 -113.737231 
L 89.546826 -115.890688 
L 88.750589 -118.726095 
L 87.954351 -121.571115 
L 87.158114 -123.635476 
L 86.361876 -124.217657 
L 85.565639 -122.922416 
L 84.769401 -119.820883 
L 83.973164 -115.476726 
L 83.176926 -110.806544 
L 82.380689 -106.821753 
L 81.584451 -104.349087 
L 80.788214 -103.815865 
L 79.991976 -105.146722 
L 79.195739 -107.793896 
L 78.399501 -110.905694 
L 77.603263 -113.595683 
L 76.807026 -115.216184 
L 76.010788 -115.525506 
L 75.214551 -114.69882 
L 74.418313 -113.216886 
L 73.622076 -111.703378 
L 72.825838 -110.758079 
L 72.029601 -110.808036 
L 71.233363 -112.008458 
L 70.437126 -114.2341 
L 69.640888 -117.164074 
L 68.844651 -120.402271 
L 68.048413 -123.563235 
L 67.252176 -126.306634 
L 66.455938 -128.362426 
L 65.659701 -129.579174 
L 64.863463 -129.965963 
L 64.067226 -129.682574 
L 63.270988 -128.98196 
L 62.47475 -128.1498 
L 61.678513 -127.466806 
L 60.882275 -127.174626 
L 60.086038 -127.42149 
L 59.2898 -128.204218 
L 58.493563 -129.356186 
L 57.697325 -130.606026 
L 56.901088 -131.673688 
L 56.10485 -132.354948 
L 55.308613 -132.576449 
L 54.512375 -132.417751 
L 53.716138 -132.082611 
L 52.9199 -131.808578 
L 52.123663 -131.756316 
L 51.327425 -131.959042 
L 50.531188 -132.364049 
L 49.73495 -132.915264 
L 48.938713 -133.608088 
L 48.142475 -134.4877 
L 47.346238 -135.608548 
L 46.55 -136.994366 
z
" style="stroke: #377eb8; stroke-opacity: 0.3"/>
    </defs>
    <g clip-path="url(#p29a15db6ac)">
     <use xlink:href="#md309b7d6ea" x="0" y="360" style="fill: #377eb8; fill-opacity: 0.3; stroke: #377eb8; stroke-opacity: 0.3"/>
    </g>
   </g>
   <g id="patch_3">
    <path d="M 229.843878 318.2 
L 229.843878 71.241125 
L 331.762281 71.241125 
L 331.762281 318.2 
z
" clip-path="url(#p29a15db6ac)" style="fill: #808080; opacity: 0.3"/>
   </g>
   <g id="matplotlib.axis_1">
    <g id="xtick_1">
     <g id="line2d_1">
      <defs>
       <path id="m22702c6972" d="M 0 0 
L 0 3.5 
" style="stroke: #000000; stroke-width: 0.8"/>
      </defs>
      <g>
       <use xlink:href="#m22702c6972" x="87.158114" y="318.2" style="stroke: #000000; stroke-width: 0.8"/>
      </g>
     </g>
     <g id="text_1">
      <!-- 0.0 -->
      <g transform="translate(79.206551 332.798437)scale(0.1 -0.1)">
       <defs>
        <path id="DejaVuSans-30" d="M 2034 4250 
Q 1547 4250 1301 3770 
Q 1056 3291 1056 2328 
Q 1056 1369 1301 889 
Q 1547 409 2034 409 
Q 2525 409 2770 889 
Q 3016 1369 3016 2328 
Q 3016 3291 2770 3770 
Q 2525 4250 2034 4250 
z
M 2034 4750 
Q 2819 4750 3233 4129 
Q 3647 3509 3647 2328 
Q 3647 1150 3233 529 
Q 2819 -91 2034 -91 
Q 1250 -91 836 529 
Q 422 1150 422 2328 
Q 422 3509 836 4129 
Q 1250 4750 2034 4750 
z
" transform="scale(0.015625)"/>
        <path id="DejaVuSans-2e" d="M 684 794 
L 1344 794 
L 1344 0 
L 684 0 
L 684 794 
z
" transform="scale(0.015625)"/>
       </defs>
       <use xlink:href="#DejaVuSans-30"/>
       <use xlink:href="#DejaVuSans-2e" x="63.623047"/>
       <use xlink:href="#DejaVuSans-30" x="95.410156"/>
      </g>
     </g>
    </g>
    <g id="xtick_2">
     <g id="line2d_2">
      <g>
       <use xlink:href="#m22702c6972" x="168.692836" y="318.2" style="stroke: #000000; stroke-width: 0.8"/>
      </g>
     </g>
     <g id="text_2">
      <!-- 0.2 -->
      <g transform="translate(160.741274 332.798437)scale(0.1 -0.1)">
       <defs>
        <path id="DejaVuSans-32" d="M 1228 531 
L 3431 531 
L 3431 0 
L 469 0 
L 469 531 
Q 828 903 1448 1529 
Q 2069 2156 2228 2338 
Q 2531 2678 2651 2914 
Q 2772 3150 2772 3378 
Q 2772 3750 2511 3984 
Q 2250 4219 1831 4219 
Q 1534 4219 1204 4116 
Q 875 4013 500 3803 
L 500 4441 
Q 881 4594 1212 4672 
Q 1544 4750 1819 4750 
Q 2544 4750 2975 4387 
Q 3406 4025 3406 3419 
Q 3406 3131 3298 2873 
Q 3191 2616 2906 2266 
Q 2828 2175 2409 1742 
Q 1991 1309 1228 531 
z
" transform="scale(0.015625)"/>
       </defs>
       <use xlink:href="#DejaVuSans-30"/>
       <use xlink:href="#DejaVuSans-2e" x="63.623047"/>
       <use xlink:href="#DejaVuSans-32" x="95.410156"/>
      </g>
     </g>
    </g>
    <g id="xtick_3">
     <g id="line2d_3">
      <g>
       <use xlink:href="#m22702c6972" x="250.227559" y="318.2" style="stroke: #000000; stroke-width: 0.8"/>
      </g>
     </g>
     <g id="text_3">
      <!-- 0.4 -->
      <g transform="translate(242.275996 332.798437)scale(0.1 -0.1)">
       <defs>
        <path id="DejaVuSans-34" d="M 2419 4116 
L 825 1625 
L 2419 1625 
L 2419 4116 
z
M 2253 4666 
L 3047 4666 
L 3047 1625 
L 3713 1625 
L 3713 1100 
L 3047 1100 
L 3047 0 
L 2419 0 
L 2419 1100 
L 313 1100 
L 313 1709 
L 2253 4666 
z
" transform="scale(0.015625)"/>
       </defs>
       <use xlink:href="#DejaVuSans-30"/>
       <use xlink:href="#DejaVuSans-2e" x="63.623047"/>
       <use xlink:href="#DejaVuSans-34" x="95.410156"/>
      </g>
     </g>
    </g>
    <g id="xtick_4">
     <g id="line2d_4">
      <g>
       <use xlink:href="#m22702c6972" x="331.762281" y="318.2" style="stroke: #000000; stroke-width: 0.8"/>
      </g>
     </g>
     <g id="text_4">
      <!-- 0.6 -->
      <g transform="translate(323.810719 332.798437)scale(0.1 -0.1)">
       <defs>
        <path id="DejaVuSans-36" d="M 2113 2584 
Q 1688 2584 1439 2293 
Q 1191 2003 1191 1497 
Q 1191 994 1439 701 
Q 1688 409 2113 409 
Q 2538 409 2786 701 
Q 3034 994 3034 1497 
Q 3034 2003 2786 2293 
Q 2538 2584 2113 2584 
z
M 3366 4563 
L 3366 3988 
Q 3128 4100 2886 4159 
Q 2644 4219 2406 4219 
Q 1781 4219 1451 3797 
Q 1122 3375 1075 2522 
Q 1259 2794 1537 2939 
Q 1816 3084 2150 3084 
Q 2853 3084 3261 2657 
Q 3669 2231 3669 1497 
Q 3669 778 3244 343 
Q 2819 -91 2113 -91 
Q 1303 -91 875 529 
Q 447 1150 447 2328 
Q 447 3434 972 4092 
Q 1497 4750 2381 4750 
Q 2619 4750 2861 4703 
Q 3103 4656 3366 4563 
z
" transform="scale(0.015625)"/>
       </defs>
       <use xlink:href="#DejaVuSans-30"/>
       <use xlink:href="#DejaVuSans-2e" x="63.623047"/>
       <use xlink:href="#DejaVuSans-36" x="95.410156"/>
      </g>
     </g>
    </g>
    <g id="xtick_5">
     <g id="line2d_5">
      <g>
       <use xlink:href="#m22702c6972" x="413.297004" y="318.2" style="stroke: #000000; stroke-width: 0.8"/>
      </g>
     </g>
     <g id="text_5">
      <!-- 0.8 -->
      <g transform="translate(405.345441 332.798437)scale(0.1 -0.1)">
       <defs>
        <path id="DejaVuSans-38" d="M 2034 2216 
Q 1584 2216 1326 1975 
Q 1069 1734 1069 1313 
Q 1069 891 1326 650 
Q 1584 409 2034 409 
Q 2484 409 2743 651 
Q 3003 894 3003 1313 
Q 3003 1734 2745 1975 
Q 2488 2216 2034 2216 
z
M 1403 2484 
Q 997 2584 770 2862 
Q 544 3141 544 3541 
Q 544 4100 942 4425 
Q 1341 4750 2034 4750 
Q 2731 4750 3128 4425 
Q 3525 4100 3525 3541 
Q 3525 3141 3298 2862 
Q 3072 2584 2669 2484 
Q 3125 2378 3379 2068 
Q 3634 1759 3634 1313 
Q 3634 634 3220 271 
Q 2806 -91 2034 -91 
Q 1263 -91 848 271 
Q 434 634 434 1313 
Q 434 1759 690 2068 
Q 947 2378 1403 2484 
z
M 1172 3481 
Q 1172 3119 1398 2916 
Q 1625 2713 2034 2713 
Q 2441 2713 2670 2916 
Q 2900 3119 2900 3481 
Q 2900 3844 2670 4047 
Q 2441 4250 2034 4250 
Q 1625 4250 1398 4047 
Q 1172 3844 1172 3481 
z
" transform="scale(0.015625)"/>
       </defs>
       <use xlink:href="#DejaVuSans-30"/>
       <use xlink:href="#DejaVuSans-2e" x="63.623047"/>
       <use xlink:href="#DejaVuSans-38" x="95.410156"/>
      </g>
     </g>
    </g>
    <g id="text_6">
     <!-- seconds -->
     <g transform="translate(209.645249 346.476562)scale(0.1 -0.1)">
      <defs>
       <path id="DejaVuSans-73" d="M 2834 3397 
L 2834 2853 
Q 2591 2978 2328 3040 
Q 2066 3103 1784 3103 
Q 1356 3103 1142 2972 
Q 928 2841 928 2578 
Q 928 2378 1081 2264 
Q 1234 2150 1697 2047 
L 1894 2003 
Q 2506 1872 2764 1633 
Q 3022 1394 3022 966 
Q 3022 478 2636 193 
Q 2250 -91 1575 -91 
Q 1294 -91 989 -36 
Q 684 19 347 128 
L 347 722 
Q 666 556 975 473 
Q 1284 391 1588 391 
Q 1994 391 2212 530 
Q 2431 669 2431 922 
Q 2431 1156 2273 1281 
Q 2116 1406 1581 1522 
L 1381 1569 
Q 847 1681 609 1914 
Q 372 2147 372 2553 
Q 372 3047 722 3315 
Q 1072 3584 1716 3584 
Q 2034 3584 2315 3537 
Q 2597 3491 2834 3397 
z
" transform="scale(0.015625)"/>
       <path id="DejaVuSans-65" d="M 3597 1894 
L 3597 1613 
L 953 1613 
Q 991 1019 1311 708 
Q 1631 397 2203 397 
Q 2534 397 2845 478 
Q 3156 559 3463 722 
L 3463 178 
Q 3153 47 2828 -22 
Q 2503 -91 2169 -91 
Q 1331 -91 842 396 
Q 353 884 353 1716 
Q 353 2575 817 3079 
Q 1281 3584 2069 3584 
Q 2775 3584 3186 3129 
Q 3597 2675 3597 1894 
z
M 3022 2063 
Q 3016 2534 2758 2815 
Q 2500 3097 2075 3097 
Q 1594 3097 1305 2825 
Q 1016 2553 972 2059 
L 3022 2063 
z
" transform="scale(0.015625)"/>
       <path id="DejaVuSans-63" d="M 3122 3366 
L 3122 2828 
Q 2878 2963 2633 3030 
Q 2388 3097 2138 3097 
Q 1578 3097 1268 2742 
Q 959 2388 959 1747 
Q 959 1106 1268 751 
Q 1578 397 2138 397 
Q 2388 397 2633 464 
Q 2878 531 3122 666 
L 3122 134 
Q 2881 22 2623 -34 
Q 2366 -91 2075 -91 
Q 1284 -91 818 406 
Q 353 903 353 1747 
Q 353 2603 823 3093 
Q 1294 3584 2113 3584 
Q 2378 3584 2631 3529 
Q 2884 3475 3122 3366 
z
" transform="scale(0.015625)"/>
       <path id="DejaVuSans-6f" d="M 1959 3097 
Q 1497 3097 1228 2736 
Q 959 2375 959 1747 
Q 959 1119 1226 758 
Q 1494 397 1959 397 
Q 2419 397 2687 759 
Q 2956 1122 2956 1747 
Q 2956 2369 2687 2733 
Q 2419 3097 1959 3097 
z
M 1959 3584 
Q 2709 3584 3137 3096 
Q 3566 2609 3566 1747 
Q 3566 888 3137 398 
Q 2709 -91 1959 -91 
Q 1206 -91 779 398 
Q 353 888 353 1747 
Q 353 2609 779 3096 
Q 1206 3584 1959 3584 
z
" transform="scale(0.015625)"/>
       <path id="DejaVuSans-6e" d="M 3513 2113 
L 3513 0 
L 2938 0 
L 2938 2094 
Q 2938 2591 2744 2837 
Q 2550 3084 2163 3084 
Q 1697 3084 1428 2787 
Q 1159 2491 1159 1978 
L 1159 0 
L 581 0 
L 581 3500 
L 1159 3500 
L 1159 2956 
Q 1366 3272 1645 3428 
Q 1925 3584 2291 3584 
Q 2894 3584 3203 3211 
Q 3513 2838 3513 2113 
z
" transform="scale(0.015625)"/>
       <path id="DejaVuSans-64" d="M 2906 2969 
L 2906 4863 
L 3481 4863 
L 3481 0 
L 2906 0 
L 2906 525 
Q 2725 213 2448 61 
Q 2172 -91 1784 -91 
Q 1150 -91 751 415 
Q 353 922 353 1747 
Q 353 2572 751 3078 
Q 1150 3584 1784 3584 
Q 2172 3584 2448 3432 
Q 2725 3281 2906 2969 
z
M 947 1747 
Q 947 1113 1208 752 
Q 1469 391 1925 391 
Q 2381 391 2643 752 
Q 2906 1113 2906 1747 
Q 2906 2381 2643 2742 
Q 2381 3103 1925 3103 
Q 1469 3103 1208 2742 
Q 947 2381 947 1747 
z
" transform="scale(0.015625)"/>
      </defs>
      <use xlink:href="#DejaVuSans-73"/>
      <use xlink:href="#DejaVuSans-65" x="52.099609"/>
      <use xlink:href="#DejaVuSans-63" x="113.623047"/>
      <use xlink:href="#DejaVuSans-6f" x="168.603516"/>
      <use xlink:href="#DejaVuSans-6e" x="229.785156"/>
      <use xlink:href="#DejaVuSans-64" x="293.164062"/>
      <use xlink:href="#DejaVuSans-73" x="356.640625"/>
     </g>
    </g>
   </g>
   <g id="matplotlib.axis_2">
    <g id="ytick_1">
     <g id="line2d_6">
      <defs>
       <path id="me0580cb3a1" d="M 0 0 
L -3.5 0 
" style="stroke: #000000; stroke-width: 0.8"/>
      </defs>
      <g>
       <use xlink:href="#me0580cb3a1" x="46.55" y="310.831878" style="stroke: #000000; stroke-width: 0.8"/>
      </g>
     </g>
     <g id="text_7">
      <!-- 2 -->
      <g transform="translate(24.807812 314.631097)scale(0.1 -0.1)">
       <defs>
        <path id="DejaVuSans-2212" d="M 678 2272 
L 4684 2272 
L 4684 1741 
L 678 1741 
L 678 2272 
z
" transform="scale(0.015625)"/>
       </defs>
       <use xlink:href="#DejaVuSans-2212"/>
       <use xlink:href="#DejaVuSans-32" x="83.789062"/>
      </g>
     </g>
    </g>
    <g id="ytick_2">
     <g id="line2d_7">
      <g>
       <use xlink:href="#me0580cb3a1" x="46.55" y="279.056802" style="stroke: #000000; stroke-width: 0.8"/>
      </g>
     </g>
     <g id="text_8">
      <!-- 1 -->
      <g transform="translate(24.807812 282.856021)scale(0.1 -0.1)">
       <defs>
        <path id="DejaVuSans-31" d="M 794 531 
L 1825 531 
L 1825 4091 
L 703 3866 
L 703 4441 
L 1819 4666 
L 2450 4666 
L 2450 531 
L 3481 531 
L 3481 0 
L 794 0 
L 794 531 
z
" transform="scale(0.015625)"/>
       </defs>
       <use xlink:href="#DejaVuSans-2212"/>
       <use xlink:href="#DejaVuSans-31" x="83.789062"/>
      </g>
     </g>
    </g>
    <g id="ytick_3">
     <g id="line2d_8">
      <g>
       <use xlink:href="#me0580cb3a1" x="46.55" y="247.281726" style="stroke: #000000; stroke-width: 0.8"/>
      </g>
     </g>
     <g id="text_9">
      <!-- 0 -->
      <g transform="translate(33.1875 251.080945)scale(0.1 -0.1)">
       <use xlink:href="#DejaVuSans-30"/>
      </g>
     </g>
    </g>
    <g id="ytick_4">
     <g id="line2d_9">
      <g>
       <use xlink:href="#me0580cb3a1" x="46.55" y="215.50665" style="stroke: #000000; stroke-width: 0.8"/>
      </g>
     </g>
     <g id="text_10">
      <!-- 1 -->
      <g transform="translate(33.1875 219.305869)scale(0.1 -0.1)">
       <use xlink:href="#DejaVuSans-31"/>
      </g>
     </g>
    </g>
    <g id="ytick_5">
     <g id="line2d_10">
      <g>
       <use xlink:href="#me0580cb3a1" x="46.55" y="183.731574" style="stroke: #000000; stroke-width: 0.8"/>
      </g>
     </g>
     <g id="text_11">
      <!-- 2 -->
      <g transform="translate(33.1875 187.530793)scale(0.1 -0.1)">
       <use xlink:href="#DejaVuSans-32"/>
      </g>
     </g>
    </g>
    <g id="ytick_6">
     <g id="line2d_11">
      <g>
       <use xlink:href="#me0580cb3a1" x="46.55" y="151.956499" style="stroke: #000000; stroke-width: 0.8"/>
      </g>
     </g>
     <g id="text_12">
      <!-- 3 -->
      <g transform="translate(33.1875 155.755717)scale(0.1 -0.1)">
       <defs>
        <path id="DejaVuSans-33" d="M 2597 2516 
Q 3050 2419 3304 2112 
Q 3559 1806 3559 1356 
Q 3559 666 3084 287 
Q 2609 -91 1734 -91 
Q 1441 -91 1130 -33 
Q 819 25 488 141 
L 488 750 
Q 750 597 1062 519 
Q 1375 441 1716 441 
Q 2309 441 2620 675 
Q 2931 909 2931 1356 
Q 2931 1769 2642 2001 
Q 2353 2234 1838 2234 
L 1294 2234 
L 1294 2753 
L 1863 2753 
Q 2328 2753 2575 2939 
Q 2822 3125 2822 3475 
Q 2822 3834 2567 4026 
Q 2313 4219 1838 4219 
Q 1578 4219 1281 4162 
Q 984 4106 628 3988 
L 628 4550 
Q 988 4650 1302 4700 
Q 1616 4750 1894 4750 
Q 2613 4750 3031 4423 
Q 3450 4097 3450 3541 
Q 3450 3153 3228 2886 
Q 3006 2619 2597 2516 
z
" transform="scale(0.015625)"/>
       </defs>
       <use xlink:href="#DejaVuSans-33"/>
      </g>
     </g>
    </g>
    <g id="ytick_7">
     <g id="line2d_12">
      <g>
       <use xlink:href="#me0580cb3a1" x="46.55" y="120.181423" style="stroke: #000000; stroke-width: 0.8"/>
      </g>
     </g>
     <g id="text_13">
      <!-- 4 -->
      <g transform="translate(33.1875 123.980641)scale(0.1 -0.1)">
       <use xlink:href="#DejaVuSans-34"/>
      </g>
     </g>
    </g>
    <g id="ytick_8">
     <g id="line2d_13">
      <g>
       <use xlink:href="#me0580cb3a1" x="46.55" y="88.406347" style="stroke: #000000; stroke-width: 0.8"/>
      </g>
     </g>
     <g id="text_14">
      <!-- 5 -->
      <g transform="translate(33.1875 92.205565)scale(0.1 -0.1)">
       <defs>
        <path id="DejaVuSans-35" d="M 691 4666 
L 3169 4666 
L 3169 4134 
L 1269 4134 
L 1269 2991 
Q 1406 3038 1543 3061 
Q 1681 3084 1819 3084 
Q 2600 3084 3056 2656 
Q 3513 2228 3513 1497 
Q 3513 744 3044 326 
Q 2575 -91 1722 -91 
Q 1428 -91 1123 -41 
Q 819 9 494 109 
L 494 744 
Q 775 591 1075 516 
Q 1375 441 1709 441 
Q 2250 441 2565 725 
Q 2881 1009 2881 1497 
Q 2881 1984 2565 2268 
Q 2250 2553 1709 2553 
Q 1456 2553 1204 2497 
Q 953 2441 691 2322 
L 691 4666 
z
" transform="scale(0.015625)"/>
       </defs>
       <use xlink:href="#DejaVuSans-35"/>
      </g>
     </g>
    </g>
    <g id="text_15">
     <!-- V -->
     <g transform="translate(18.728125 201.322125)rotate(-90)scale(0.1 -0.1)">
      <defs>
       <path id="DejaVuSans-b5" d="M 544 -1331 
L 544 3500 
L 1119 3500 
L 1119 1325 
Q 1119 872 1334 640 
Q 1550 409 1972 409 
Q 2434 409 2667 671 
Q 2900 934 2900 1459 
L 2900 3500 
L 3475 3500 
L 3475 806 
Q 3475 619 3529 530 
Q 3584 441 3700 441 
Q 3728 441 3778 458 
Q 3828 475 3916 513 
L 3916 50 
Q 3788 -22 3673 -56 
Q 3559 -91 3450 -91 
Q 3234 -91 3106 31 
Q 2978 153 2931 403 
Q 2775 156 2548 32 
Q 2322 -91 2016 -91 
Q 1697 -91 1473 31 
Q 1250 153 1119 397 
L 1119 -1331 
L 544 -1331 
z
" transform="scale(0.015625)"/>
       <path id="DejaVuSans-56" d="M 1831 0 
L 50 4666 
L 709 4666 
L 2188 738 
L 3669 4666 
L 4325 4666 
L 2547 0 
L 1831 0 
z
" transform="scale(0.015625)"/>
      </defs>
      <use xlink:href="#DejaVuSans-b5"/>
      <use xlink:href="#DejaVuSans-56" x="63.623047"/>
     </g>
    </g>
   </g>
   <g id="line2d_14">
    <path d="M 46.55 234.924485 
L 47.346238 236.867246 
L 48.142475 237.940803 
L 48.938713 238.339169 
L 49.73495 238.552066 
L 50.531188 239.159176 
L 51.327425 240.601475 
L 52.123663 243.008831 
L 54.512375 252.274702 
L 55.308613 254.008536 
L 56.10485 254.319737 
L 56.901088 253.229008 
L 57.697325 251.100529 
L 59.2898 246.183268 
L 60.086038 244.602846 
L 60.882275 244.085728 
L 61.678513 244.611309 
L 62.47475 245.868633 
L 63.270988 247.362425 
L 64.067226 248.567801 
L 64.863463 249.088617 
L 65.659701 248.772795 
L 66.455938 247.74961 
L 68.048413 245.110494 
L 68.844651 244.343658 
L 69.640888 244.261113 
L 70.437126 244.773423 
L 71.233363 245.554776 
L 72.029601 246.177456 
L 72.825838 246.295121 
L 73.622076 245.803517 
L 75.214551 244.084656 
L 76.010788 243.880792 
L 76.807026 244.725469 
L 77.603263 246.724988 
L 79.991976 255.334857 
L 80.788214 256.87955 
L 81.584451 257.078504 
L 82.380689 256.093022 
L 83.973164 252.718714 
L 84.769401 251.507328 
L 85.565639 251.038952 
L 86.361876 251.217566 
L 87.954351 252.052865 
L 88.750589 252.000254 
L 89.546826 251.47609 
L 92.731776 247.973257 
L 93.528014 246.832128 
L 94.324251 245.05707 
L 95.120489 242.400479 
L 96.712964 234.977422 
L 97.509202 231.295839 
L 98.305439 228.602761 
L 99.101677 227.437856 
L 99.897914 227.934853 
L 100.694152 229.760923 
L 102.286627 234.504817 
L 103.082864 235.916735 
L 103.879102 236.094915 
L 104.675339 235.042271 
L 105.471577 233.032368 
L 107.064052 227.508597 
L 108.656527 221.01407 
L 111.841477 206.168533 
L 112.637715 203.678596 
L 113.433952 202.478948 
L 114.23019 202.692318 
L 115.026427 204.170206 
L 115.822665 206.568466 
L 117.41514 212.62995 
L 120.60009 225.451934 
L 121.396327 228.142166 
L 122.192565 229.963345 
L 122.988802 230.522615 
L 123.78504 229.665887 
L 124.581277 227.624792 
L 126.173752 222.766917 
L 126.96999 221.700597 
L 127.766228 222.389498 
L 128.562465 224.878417 
L 130.951178 236.477592 
L 131.747415 238.717537 
L 132.543653 239.223052 
L 133.33989 238.119045 
L 134.136128 235.907545 
L 135.728603 230.712942 
L 136.52484 228.634155 
L 137.321078 227.047213 
L 139.70979 223.182027 
L 141.302265 219.858855 
L 148.468403 203.991787 
L 149.264641 203.013195 
L 150.060878 202.675694 
L 150.857116 202.986669 
L 151.653353 203.851907 
L 152.449591 205.111412 
L 154.838303 209.45416 
L 155.634541 210.527804 
L 156.430778 211.144347 
L 157.227016 211.160624 
L 158.023253 210.492252 
L 158.819491 209.161199 
L 160.411966 205.255864 
L 161.208204 203.285546 
L 162.004441 201.693039 
L 162.800679 200.608745 
L 163.596916 199.952198 
L 164.393154 199.440464 
L 165.189391 198.671412 
L 165.985629 197.25813 
L 166.781866 194.969578 
L 167.578104 191.828703 
L 169.966816 181.15346 
L 170.763054 178.926236 
L 171.559291 177.957429 
L 172.355529 178.205494 
L 173.151766 179.341996 
L 174.744241 182.101927 
L 175.540479 182.624351 
L 176.336717 182.104469 
L 177.132954 180.514739 
L 177.929192 178.096381 
L 179.521667 172.600532 
L 180.317904 170.489093 
L 181.114142 169.224679 
L 181.910379 168.831538 
L 182.706617 169.089501 
L 183.502854 169.607588 
L 184.299092 169.946839 
L 185.095329 169.754429 
L 185.891567 168.865337 
L 186.687804 167.337617 
L 189.076517 161.614957 
L 189.872754 160.201481 
L 190.668992 159.191561 
L 191.46523 158.511493 
L 192.261467 158.076424 
L 193.057705 157.874157 
L 193.853942 158.000782 
L 194.65018 158.624533 
L 195.446417 159.888362 
L 196.242655 161.793484 
L 197.83513 166.44741 
L 198.631367 168.242833 
L 199.427605 169.058934 
L 200.223842 168.699509 
L 201.02008 167.322421 
L 202.612555 163.625935 
L 203.408792 162.546728 
L 204.20503 162.461227 
L 205.001267 163.226358 
L 205.797505 164.299694 
L 206.593742 164.925526 
L 207.38998 164.411946 
L 208.186218 162.394379 
L 208.982455 158.983425 
L 210.57493 150.475012 
L 211.371168 146.982519 
L 212.167405 144.755795 
L 212.963643 143.848009 
L 213.75988 143.896712 
L 214.556118 144.308984 
L 215.352355 144.527929 
L 216.148593 144.270262 
L 217.741068 143.062808 
L 218.537305 143.102585 
L 219.333543 144.183863 
L 220.12978 146.387336 
L 222.518493 154.924328 
L 223.31473 156.147578 
L 224.110968 155.954169 
L 224.907206 154.617266 
L 226.499681 151.159069 
L 227.295918 150.402058 
L 228.092156 150.753164 
L 228.888393 152.05046 
L 230.480868 155.410629 
L 231.277106 156.381329 
L 232.073343 156.529958 
L 232.869581 156.016627 
L 233.665818 155.260749 
L 234.462056 154.758818 
L 235.258293 154.884956 
L 236.054531 155.752541 
L 238.443243 160.178558 
L 239.239481 160.987062 
L 240.035719 161.117773 
L 240.831956 160.672485 
L 244.813144 156.8619 
L 246.405619 155.347447 
L 247.998094 153.862833 
L 248.794331 153.452917 
L 249.590569 153.32306 
L 250.386806 153.308124 
L 251.183044 153.076964 
L 251.979281 152.23201 
L 252.775519 150.461777 
L 253.571756 147.685588 
L 255.960469 136.722164 
L 256.756707 134.003214 
L 257.552944 132.367667 
L 258.349182 131.71681 
L 259.941657 131.600885 
L 260.737894 131.11747 
L 261.534132 129.998568 
L 263.126607 126.823967 
L 263.922844 125.833288 
L 264.719082 125.911211 
L 265.515319 127.20104 
L 267.904032 133.989361 
L 268.700269 134.875704 
L 269.496507 134.289421 
L 270.292744 132.376878 
L 271.88522 127.054172 
L 272.681457 125.178789 
L 273.477695 124.530967 
L 274.273932 125.134807 
L 276.662645 129.452881 
L 277.458882 129.706564 
L 278.25512 128.913839 
L 279.051357 127.330283 
L 280.643832 123.815636 
L 281.44007 122.79083 
L 282.236307 122.458251 
L 283.828782 122.819362 
L 284.62502 122.710964 
L 285.421257 122.053393 
L 287.80997 118.649745 
L 288.606208 118.488208 
L 289.402445 119.373017 
L 290.198683 121.230036 
L 291.791158 126.092987 
L 292.587395 127.907546 
L 293.383633 128.699953 
L 294.17987 128.38208 
L 294.976108 127.213759 
L 295.772345 125.712544 
L 296.568583 124.481852 
L 297.36482 124.018814 
L 298.161058 124.567451 
L 298.957295 126.063291 
L 301.346008 132.39236 
L 302.142245 133.682651 
L 302.938483 134.165457 
L 303.73472 133.882966 
L 304.530958 133.021647 
L 306.919671 129.654482 
L 307.715908 129.135216 
L 308.512146 129.266092 
L 309.308383 130.175939 
L 310.104621 131.900281 
L 310.900858 134.344909 
L 313.289571 143.118506 
L 314.085808 145.357296 
L 314.882046 146.939533 
L 317.270758 150.276869 
L 318.066996 152.327862 
L 318.863233 155.275125 
L 321.251946 166.159736 
L 322.048184 168.480213 
L 322.844421 169.428014 
L 323.640659 169.112018 
L 325.233134 166.973285 
L 326.029371 166.636686 
L 326.825609 167.497972 
L 327.621846 169.58744 
L 330.010559 177.896314 
L 330.806796 179.151392 
L 331.603034 179.192833 
L 333.195509 177.479411 
L 333.991746 177.234111 
L 334.787984 178.275821 
L 335.584221 180.81908 
L 336.380459 184.598251 
L 337.972934 192.951262 
L 338.769172 195.788142 
L 339.565409 196.877459 
L 340.361647 196.074172 
L 341.157884 193.688541 
L 342.750359 187.054361 
L 343.546597 184.500504 
L 344.342834 183.343616 
L 345.139072 183.835054 
L 345.935309 185.82053 
L 348.324022 194.663237 
L 349.120259 196.147097 
L 349.916497 196.11532 
L 350.712734 194.619034 
L 351.508972 192.073714 
L 353.101447 186.535081 
L 353.897685 184.82856 
L 354.693922 184.280362 
L 355.49016 184.775353 
L 357.082635 186.982622 
L 357.878872 187.538087 
L 358.67511 187.225979 
L 359.471347 186.078285 
L 361.063822 182.99882 
L 361.86006 182.300415 
L 362.656297 182.848226 
L 363.452535 184.813239 
L 364.248772 188.014057 
L 366.637485 199.385479 
L 367.433722 201.539813 
L 368.22996 202.05252 
L 369.026198 200.785093 
L 369.822435 197.879017 
L 370.618673 193.737414 
L 372.211148 184.328845 
L 373.007385 180.546609 
L 373.803623 178.234005 
L 374.59986 177.717506 
L 375.396098 178.949304 
L 376.192335 181.501782 
L 377.78481 187.672524 
L 378.581048 189.878274 
L 379.377285 191.011467 
L 380.173523 191.229675 
L 380.96976 191.054404 
L 381.765998 191.164347 
L 382.562235 192.122814 
L 383.358473 194.140234 
L 385.747186 202.321266 
L 386.543423 203.380336 
L 387.339661 202.857541 
L 388.135898 200.960744 
L 389.728373 195.629466 
L 390.524611 193.571766 
L 391.320848 192.354445 
L 392.913323 191.167746 
L 393.709561 189.941408 
L 394.505798 187.581886 
L 395.302036 184.002738 
L 397.690748 170.980087 
L 398.486986 168.253356 
L 399.283223 167.099221 
L 400.079461 167.481598 
L 400.875699 169.104267 
L 401.671936 171.569372 
L 403.264411 177.70915 
L 404.856886 184.119095 
L 405.653124 186.918398 
L 406.449361 189.029431 
L 407.245599 190.116801 
L 408.041836 189.987483 
L 408.838074 188.725961 
L 410.430549 184.725996 
L 411.226786 183.412257 
L 412.023024 183.400538 
L 412.819261 184.938097 
L 413.615499 187.848224 
L 413.615499 187.848224 
" clip-path="url(#p29a15db6ac)" style="fill: none; stroke: #e41a1c; stroke-width: 1.5; stroke-linecap: square"/>
   </g>
   <g id="line2d_15">
    <path d="M 46.55 235.063224 
L 47.346238 236.195659 
L 48.142475 237.133539 
L 48.938713 237.899445 
L 49.73495 238.491515 
L 50.531188 238.875202 
L 51.327425 239.002013 
L 52.123663 238.84595 
L 52.9199 238.439866 
L 54.512375 237.379362 
L 55.308613 237.093552 
L 56.10485 237.193256 
L 56.901088 237.742567 
L 57.697325 238.681174 
L 59.2898 240.944839 
L 60.086038 241.770107 
L 60.882275 242.128766 
L 61.678513 241.968122 
L 62.47475 241.380124 
L 64.067226 239.866336 
L 64.863463 239.541301 
L 65.659701 239.866353 
L 66.455938 241.00371 
L 67.252176 242.985157 
L 68.048413 245.697657 
L 70.437126 255.173083 
L 71.233363 257.42193 
L 72.029601 258.629248 
L 72.825838 258.68934 
L 73.622076 257.759533 
L 75.214551 254.796954 
L 76.010788 254.00781 
L 76.807026 254.37612 
L 77.603263 256.060427 
L 78.399501 258.805417 
L 79.991976 264.705972 
L 80.788214 266.161025 
L 81.584451 265.779297 
L 82.380689 263.4699 
L 83.176926 259.664195 
L 84.769401 251.12846 
L 85.565639 248.334925 
L 86.361876 247.374525 
L 87.158114 248.2949 
L 87.954351 250.667029 
L 89.546826 256.712561 
L 90.343064 258.904182 
L 91.139301 259.979225 
L 91.935539 259.958167 
L 92.731776 259.154265 
L 94.324251 257.04082 
L 95.120489 256.508442 
L 95.916727 256.568056 
L 96.712964 257.17332 
L 99.101677 260.195586 
L 99.897914 260.774042 
L 100.694152 260.791764 
L 101.490389 260.142533 
L 102.286627 258.826169 
L 103.879102 254.839 
L 104.675339 252.787925 
L 105.471577 251.202712 
L 106.267814 250.393502 
L 107.064052 250.500882 
L 107.860289 251.441927 
L 110.249002 255.870948 
L 111.04524 256.67742 
L 111.841477 256.934985 
L 113.433952 256.841961 
L 114.23019 257.260187 
L 115.026427 258.373349 
L 115.822665 260.195739 
L 117.41514 264.808944 
L 118.211377 266.69938 
L 119.007615 267.79037 
L 119.803852 267.938019 
L 120.60009 267.252091 
L 122.988802 263.56379 
L 123.78504 262.826568 
L 124.581277 262.495078 
L 126.173752 262.46424 
L 127.766228 262.349244 
L 128.562465 262.278912 
L 129.358703 262.396055 
L 130.15494 262.845895 
L 130.951178 263.675526 
L 133.33989 267.075503 
L 134.136128 267.81301 
L 134.932365 268.172085 
L 137.321078 268.45115 
L 138.117315 268.928624 
L 140.506028 271.061014 
L 141.302265 271.045579 
L 142.098503 270.234051 
L 142.89474 268.608349 
L 144.487216 263.834696 
L 145.283453 261.398887 
L 146.079691 259.32936 
L 146.875928 257.719168 
L 150.060878 252.666692 
L 151.653353 249.521 
L 152.449591 248.418413 
L 153.245828 248.047692 
L 154.042066 248.542805 
L 154.838303 249.792017 
L 156.430778 253.044774 
L 157.227016 254.121621 
L 158.023253 254.406524 
L 158.819491 253.895989 
L 160.411966 251.763942 
L 161.208204 251.096917 
L 162.004441 251.235091 
L 162.800679 252.319554 
L 163.596916 254.229445 
L 165.985629 261.329694 
L 166.781866 262.980114 
L 167.578104 263.991909 
L 168.374341 264.403279 
L 169.170579 264.317043 
L 169.966816 263.83727 
L 170.763054 263.038418 
L 172.355529 260.741664 
L 173.151766 259.486456 
L 173.948004 258.456595 
L 174.744241 257.943847 
L 175.540479 258.20068 
L 176.336717 259.334223 
L 177.132954 261.225822 
L 178.725429 265.674375 
L 179.521667 267.136278 
L 180.317904 267.473317 
L 181.114142 266.533209 
L 181.910379 264.503129 
L 183.502854 259.277192 
L 184.299092 257.352017 
L 185.095329 256.5129 
L 185.891567 256.866265 
L 186.687804 258.195183 
L 188.280279 261.890162 
L 189.076517 263.264328 
L 189.872754 263.906312 
L 190.668992 263.782671 
L 191.46523 263.047733 
L 193.057705 260.711525 
L 196.242655 256.003639 
L 197.83513 253.881902 
L 198.631367 253.14711 
L 199.427605 252.784021 
L 200.223842 252.809791 
L 202.612555 253.765426 
L 203.408792 253.730012 
L 204.20503 253.40808 
L 205.001267 252.966265 
L 205.797505 252.678778 
L 206.593742 252.815379 
L 207.38998 253.51881 
L 208.186218 254.724079 
L 209.778693 257.42653 
L 210.57493 258.158842 
L 211.371168 258.154245 
L 212.167405 257.467923 
L 213.75988 255.368574 
L 214.556118 254.767493 
L 215.352355 254.781281 
L 216.148593 255.32102 
L 216.94483 256.060784 
L 217.741068 256.583148 
L 218.537305 256.573797 
L 219.333543 255.98337 
L 220.12978 255.083926 
L 220.926018 254.387608 
L 221.722255 254.451826 
L 222.518493 255.644027 
L 223.31473 257.959924 
L 224.907206 263.941389 
L 225.703443 266.046946 
L 226.499681 266.66882 
L 227.295918 265.602689 
L 228.092156 263.136576 
L 229.684631 256.931739 
L 230.480868 254.823613 
L 231.277106 254.085726 
L 232.073343 254.761917 
L 232.869581 256.544571 
L 236.054531 266.053914 
L 240.035719 276.338526 
L 240.831956 277.670149 
L 241.628194 278.333644 
L 242.424431 278.397074 
L 244.016906 278.011075 
L 244.813144 278.384368 
L 245.609381 279.491953 
L 246.405619 281.280454 
L 247.998094 285.414472 
L 248.794331 286.746775 
L 249.590569 287.059032 
L 250.386806 286.248319 
L 251.183044 284.481528 
L 254.367994 275.326778 
L 255.164231 273.826365 
L 256.756707 271.627915 
L 258.349182 269.520367 
L 261.534132 264.976035 
L 263.126607 263.238712 
L 264.719082 261.980825 
L 265.515319 261.617387 
L 266.311557 261.53563 
L 267.107794 261.820597 
L 267.904032 262.525893 
L 268.700269 263.647679 
L 270.292744 266.78591 
L 271.88522 270.047745 
L 272.681457 271.300196 
L 273.477695 272.146622 
L 274.273932 272.549415 
L 275.07017 272.53245 
L 275.866407 272.165428 
L 276.662645 271.541128 
L 278.25512 269.876636 
L 280.643832 267.211426 
L 282.236307 265.750002 
L 283.032545 265.206235 
L 284.62502 264.493742 
L 286.217495 263.917044 
L 287.013732 263.496479 
L 290.198683 261.437527 
L 290.99492 261.468949 
L 291.791158 261.947293 
L 292.587395 262.843619 
L 294.976108 266.429141 
L 295.772345 267.321751 
L 296.568583 267.937969 
L 298.957295 269.195263 
L 299.753533 269.824574 
L 302.142245 272.089506 
L 302.938483 272.555034 
L 303.73472 272.765497 
L 306.919671 272.959602 
L 308.512146 273.433973 
L 309.308383 273.404964 
L 310.104621 272.983146 
L 310.900858 272.126766 
L 313.289571 268.690188 
L 314.085808 268.26043 
L 314.882046 268.605618 
L 315.678283 269.750539 
L 316.474521 271.51739 
L 318.066996 275.415317 
L 318.863233 276.652821 
L 319.659471 276.9382 
L 320.455709 276.149192 
L 321.251946 274.423735 
L 322.844421 269.92151 
L 323.640659 268.356533 
L 324.436896 267.985066 
L 325.233134 269.064532 
L 326.029371 271.479388 
L 327.621846 278.029672 
L 328.418084 280.503922 
L 329.214321 281.423611 
L 330.010559 280.419331 
L 330.806796 277.598408 
L 333.195509 265.175877 
L 333.991746 262.58286 
L 334.787984 261.676512 
L 335.584221 262.411031 
L 336.380459 264.382891 
L 338.769172 271.8602 
L 339.565409 273.40833 
L 340.361647 274.227717 
L 341.157884 274.379806 
L 341.954122 273.959915 
L 342.750359 273.047061 
L 343.546597 271.704471 
L 345.139072 268.136392 
L 345.935309 266.283586 
L 346.731547 264.716064 
L 347.527784 263.645647 
L 348.324022 263.156181 
L 349.120259 263.157373 
L 350.712734 263.572459 
L 351.508972 263.387842 
L 352.30521 262.716386 
L 353.101447 261.616847 
L 354.693922 259.069051 
L 355.49016 258.12382 
L 356.286397 257.542174 
L 357.878872 256.918956 
L 358.67511 256.403938 
L 359.471347 255.535058 
L 361.86006 252.144177 
L 362.656297 251.79714 
L 363.452535 252.284769 
L 364.248772 253.614318 
L 365.841247 257.848155 
L 366.637485 260.032886 
L 367.433722 261.842079 
L 368.22996 263.13226 
L 369.026198 263.92418 
L 369.822435 264.357864 
L 373.803623 265.632746 
L 375.396098 265.843079 
L 376.192335 265.89188 
L 376.988573 266.057982 
L 377.78481 266.471872 
L 378.581048 267.205854 
L 380.173523 269.409968 
L 380.96976 270.53099 
L 381.765998 271.373974 
L 382.562235 271.78475 
L 383.358473 271.729672 
L 384.15471 271.308083 
L 385.747186 270.166985 
L 386.543423 269.813849 
L 388.932136 269.465665 
L 389.728373 268.937035 
L 390.524611 267.905779 
L 391.320848 266.388994 
L 392.913323 262.763246 
L 393.709561 261.259662 
L 394.505798 260.257374 
L 395.302036 259.761792 
L 396.894511 259.435008 
L 397.690748 259.017589 
L 398.486986 258.188375 
L 400.875699 254.744246 
L 401.671936 254.301004 
L 402.468174 254.520891 
L 404.856886 256.692936 
L 405.653124 256.578096 
L 406.449361 255.651246 
L 408.838074 250.770296 
L 409.634311 250.000914 
L 410.430549 250.176841 
L 411.226786 251.200896 
L 412.819261 254.223266 
L 413.615499 255.277539 
L 413.615499 255.277539 
" clip-path="url(#p29a15db6ac)" style="fill: none; stroke: #377eb8; stroke-width: 1.5; stroke-linecap: square"/>
   </g>
   <g id="line2d_16">
    <path d="M 87.158114 318.2 
L 87.158114 71.241125 
" clip-path="url(#p29a15db6ac)" style="fill: none; stroke: #000000; stroke-width: 0.5; stroke-linecap: square"/>
   </g>
   <g id="line2d_17">
    <path d="M 46.55 247.281726 
L 413.615499 247.281726 
" clip-path="url(#p29a15db6ac)" style="fill: none; stroke: #000000; stroke-width: 0.5; stroke-linecap: square"/>
   </g>
   <g id="patch_4">
    <path d="M 46.55 318.2 
L 46.55 71.241125 
" style="fill: none; stroke: #000000; stroke-width: 0.8; stroke-linejoin: miter; stroke-linecap: square"/>
   </g>
   <g id="patch_5">
    <path d="M 413.615499 318.2 
L 413.615499 71.241125 
" style="fill: none; stroke: #000000; stroke-width: 0.8; stroke-linejoin: miter; stroke-linecap: square"/>
   </g>
   <g id="patch_6">
    <path d="M 46.55 318.2 
L 413.615499 318.2 
" style="fill: none; stroke: #000000; stroke-width: 0.8; stroke-linejoin: miter; stroke-linecap: square"/>
   </g>
   <g id="patch_7">
    <path d="M 46.55 71.241125 
L 413.615499 71.241125 
" style="fill: none; stroke: #000000; stroke-width: 0.8; stroke-linejoin: miter; stroke-linecap: square"/>
   </g>
   <g id="text_16">
    <!-- Cz -->
    <g transform="translate(222.743999 65.241125)scale(0.12 -0.12)">
     <defs>
      <path id="DejaVuSans-43" d="M 4122 4306 
L 4122 3641 
Q 3803 3938 3442 4084 
Q 3081 4231 2675 4231 
Q 1875 4231 1450 3742 
Q 1025 3253 1025 2328 
Q 1025 1406 1450 917 
Q 1875 428 2675 428 
Q 3081 428 3442 575 
Q 3803 722 4122 1019 
L 4122 359 
Q 3791 134 3420 21 
Q 3050 -91 2638 -91 
Q 1578 -91 968 557 
Q 359 1206 359 2328 
Q 359 3453 968 4101 
Q 1578 4750 2638 4750 
Q 3056 4750 3426 4639 
Q 3797 4528 4122 4306 
z
" transform="scale(0.015625)"/>
      <path id="DejaVuSans-7a" d="M 353 3500 
L 3084 3500 
L 3084 2975 
L 922 459 
L 3084 459 
L 3084 0 
L 275 0 
L 275 525 
L 2438 3041 
L 353 3041 
L 353 3500 
z
" transform="scale(0.015625)"/>
     </defs>
     <use xlink:href="#DejaVuSans-43"/>
     <use xlink:href="#DejaVuSans-7a" x="69.824219"/>
    </g>
   </g>
   <g id="legend_1">
    <g id="patch_8">
     <path d="M 99.855406 48.044893 
L 360.310093 48.044893 
Q 362.310093 48.044893 362.310093 46.044893 
L 362.310093 17.410517 
Q 362.310093 15.410517 360.310093 15.410517 
L 99.855406 15.410517 
Q 97.855406 15.410517 97.855406 17.410517 
L 97.855406 46.044893 
Q 97.855406 48.044893 99.855406 48.044893 
z
" style="fill: #ffffff; opacity: 0.8; stroke: #cccccc; stroke-linejoin: miter"/>
    </g>
    <g id="text_17">
     <!-- Average of Session 14_tac4 -->
     <g transform="translate(161.068687 27.008955)scale(0.1 -0.1)">
      <defs>
       <path id="DejaVuSans-41" d="M 2188 4044 
L 1331 1722 
L 3047 1722 
L 2188 4044 
z
M 1831 4666 
L 2547 4666 
L 4325 0 
L 3669 0 
L 3244 1197 
L 1141 1197 
L 716 0 
L 50 0 
L 1831 4666 
z
" transform="scale(0.015625)"/>
       <path id="DejaVuSans-76" d="M 191 3500 
L 800 3500 
L 1894 563 
L 2988 3500 
L 3597 3500 
L 2284 0 
L 1503 0 
L 191 3500 
z
" transform="scale(0.015625)"/>
       <path id="DejaVuSans-72" d="M 2631 2963 
Q 2534 3019 2420 3045 
Q 2306 3072 2169 3072 
Q 1681 3072 1420 2755 
Q 1159 2438 1159 1844 
L 1159 0 
L 581 0 
L 581 3500 
L 1159 3500 
L 1159 2956 
Q 1341 3275 1631 3429 
Q 1922 3584 2338 3584 
Q 2397 3584 2469 3576 
Q 2541 3569 2628 3553 
L 2631 2963 
z
" transform="scale(0.015625)"/>
       <path id="DejaVuSans-61" d="M 2194 1759 
Q 1497 1759 1228 1600 
Q 959 1441 959 1056 
Q 959 750 1161 570 
Q 1363 391 1709 391 
Q 2188 391 2477 730 
Q 2766 1069 2766 1631 
L 2766 1759 
L 2194 1759 
z
M 3341 1997 
L 3341 0 
L 2766 0 
L 2766 531 
Q 2569 213 2275 61 
Q 1981 -91 1556 -91 
Q 1019 -91 701 211 
Q 384 513 384 1019 
Q 384 1609 779 1909 
Q 1175 2209 1959 2209 
L 2766 2209 
L 2766 2266 
Q 2766 2663 2505 2880 
Q 2244 3097 1772 3097 
Q 1472 3097 1187 3025 
Q 903 2953 641 2809 
L 641 3341 
Q 956 3463 1253 3523 
Q 1550 3584 1831 3584 
Q 2591 3584 2966 3190 
Q 3341 2797 3341 1997 
z
" transform="scale(0.015625)"/>
       <path id="DejaVuSans-67" d="M 2906 1791 
Q 2906 2416 2648 2759 
Q 2391 3103 1925 3103 
Q 1463 3103 1205 2759 
Q 947 2416 947 1791 
Q 947 1169 1205 825 
Q 1463 481 1925 481 
Q 2391 481 2648 825 
Q 2906 1169 2906 1791 
z
M 3481 434 
Q 3481 -459 3084 -895 
Q 2688 -1331 1869 -1331 
Q 1566 -1331 1297 -1286 
Q 1028 -1241 775 -1147 
L 775 -588 
Q 1028 -725 1275 -790 
Q 1522 -856 1778 -856 
Q 2344 -856 2625 -561 
Q 2906 -266 2906 331 
L 2906 616 
Q 2728 306 2450 153 
Q 2172 0 1784 0 
Q 1141 0 747 490 
Q 353 981 353 1791 
Q 353 2603 747 3093 
Q 1141 3584 1784 3584 
Q 2172 3584 2450 3431 
Q 2728 3278 2906 2969 
L 2906 3500 
L 3481 3500 
L 3481 434 
z
" transform="scale(0.015625)"/>
       <path id="DejaVuSans-20" transform="scale(0.015625)"/>
       <path id="DejaVuSans-66" d="M 2375 4863 
L 2375 4384 
L 1825 4384 
Q 1516 4384 1395 4259 
Q 1275 4134 1275 3809 
L 1275 3500 
L 2222 3500 
L 2222 3053 
L 1275 3053 
L 1275 0 
L 697 0 
L 697 3053 
L 147 3053 
L 147 3500 
L 697 3500 
L 697 3744 
Q 697 4328 969 4595 
Q 1241 4863 1831 4863 
L 2375 4863 
z
" transform="scale(0.015625)"/>
       <path id="DejaVuSans-53" d="M 3425 4513 
L 3425 3897 
Q 3066 4069 2747 4153 
Q 2428 4238 2131 4238 
Q 1616 4238 1336 4038 
Q 1056 3838 1056 3469 
Q 1056 3159 1242 3001 
Q 1428 2844 1947 2747 
L 2328 2669 
Q 3034 2534 3370 2195 
Q 3706 1856 3706 1288 
Q 3706 609 3251 259 
Q 2797 -91 1919 -91 
Q 1588 -91 1214 -16 
Q 841 59 441 206 
L 441 856 
Q 825 641 1194 531 
Q 1563 422 1919 422 
Q 2459 422 2753 634 
Q 3047 847 3047 1241 
Q 3047 1584 2836 1778 
Q 2625 1972 2144 2069 
L 1759 2144 
Q 1053 2284 737 2584 
Q 422 2884 422 3419 
Q 422 4038 858 4394 
Q 1294 4750 2059 4750 
Q 2388 4750 2728 4690 
Q 3069 4631 3425 4513 
z
" transform="scale(0.015625)"/>
       <path id="DejaVuSans-69" d="M 603 3500 
L 1178 3500 
L 1178 0 
L 603 0 
L 603 3500 
z
M 603 4863 
L 1178 4863 
L 1178 4134 
L 603 4134 
L 603 4863 
z
" transform="scale(0.015625)"/>
       <path id="DejaVuSans-5f" d="M 3263 -1063 
L 3263 -1509 
L -63 -1509 
L -63 -1063 
L 3263 -1063 
z
" transform="scale(0.015625)"/>
       <path id="DejaVuSans-74" d="M 1172 4494 
L 1172 3500 
L 2356 3500 
L 2356 3053 
L 1172 3053 
L 1172 1153 
Q 1172 725 1289 603 
Q 1406 481 1766 481 
L 2356 481 
L 2356 0 
L 1766 0 
Q 1100 0 847 248 
Q 594 497 594 1153 
L 594 3053 
L 172 3053 
L 172 3500 
L 594 3500 
L 594 4494 
L 1172 4494 
z
" transform="scale(0.015625)"/>
      </defs>
      <use xlink:href="#DejaVuSans-41"/>
      <use xlink:href="#DejaVuSans-76" x="62.533203"/>
      <use xlink:href="#DejaVuSans-65" x="121.712891"/>
      <use xlink:href="#DejaVuSans-72" x="183.236328"/>
      <use xlink:href="#DejaVuSans-61" x="224.349609"/>
      <use xlink:href="#DejaVuSans-67" x="285.628906"/>
      <use xlink:href="#DejaVuSans-65" x="349.105469"/>
      <use xlink:href="#DejaVuSans-20" x="410.628906"/>
      <use xlink:href="#DejaVuSans-6f" x="442.416016"/>
      <use xlink:href="#DejaVuSans-66" x="503.597656"/>
      <use xlink:href="#DejaVuSans-20" x="538.802734"/>
      <use xlink:href="#DejaVuSans-53" x="570.589844"/>
      <use xlink:href="#DejaVuSans-65" x="634.066406"/>
      <use xlink:href="#DejaVuSans-73" x="695.589844"/>
      <use xlink:href="#DejaVuSans-73" x="747.689453"/>
      <use xlink:href="#DejaVuSans-69" x="799.789062"/>
      <use xlink:href="#DejaVuSans-6f" x="827.572266"/>
      <use xlink:href="#DejaVuSans-6e" x="888.753906"/>
      <use xlink:href="#DejaVuSans-20" x="952.132812"/>
      <use xlink:href="#DejaVuSans-31" x="983.919922"/>
      <use xlink:href="#DejaVuSans-34" x="1047.542969"/>
      <use xlink:href="#DejaVuSans-5f" x="1111.166016"/>
      <use xlink:href="#DejaVuSans-74" x="1161.166016"/>
      <use xlink:href="#DejaVuSans-61" x="1200.375"/>
      <use xlink:href="#DejaVuSans-63" x="1261.654297"/>
      <use xlink:href="#DejaVuSans-34" x="1316.634766"/>
     </g>
    </g>
    <g id="line2d_18">
     <path d="M 101.855406 38.465205 
L 111.855406 38.465205 
L 121.855406 38.465205 
" style="fill: none; stroke: #e41a1c; stroke-width: 1.5; stroke-linecap: square"/>
    </g>
    <g id="text_18">
     <!-- Target (n=384) -->
     <g transform="translate(129.855406 41.965205)scale(0.1 -0.1)">
      <defs>
       <path id="DejaVuSans-54" d="M -19 4666 
L 3928 4666 
L 3928 4134 
L 2272 4134 
L 2272 0 
L 1638 0 
L 1638 4134 
L -19 4134 
L -19 4666 
z
" transform="scale(0.015625)"/>
       <path id="DejaVuSans-28" d="M 1984 4856 
Q 1566 4138 1362 3434 
Q 1159 2731 1159 2009 
Q 1159 1288 1364 580 
Q 1569 -128 1984 -844 
L 1484 -844 
Q 1016 -109 783 600 
Q 550 1309 550 2009 
Q 550 2706 781 3412 
Q 1013 4119 1484 4856 
L 1984 4856 
z
" transform="scale(0.015625)"/>
       <path id="DejaVuSans-3d" d="M 678 2906 
L 4684 2906 
L 4684 2381 
L 678 2381 
L 678 2906 
z
M 678 1631 
L 4684 1631 
L 4684 1100 
L 678 1100 
L 678 1631 
z
" transform="scale(0.015625)"/>
       <path id="DejaVuSans-29" d="M 513 4856 
L 1013 4856 
Q 1481 4119 1714 3412 
Q 1947 2706 1947 2009 
Q 1947 1309 1714 600 
Q 1481 -109 1013 -844 
L 513 -844 
Q 928 -128 1133 580 
Q 1338 1288 1338 2009 
Q 1338 2731 1133 3434 
Q 928 4138 513 4856 
z
" transform="scale(0.015625)"/>
      </defs>
      <use xlink:href="#DejaVuSans-54"/>
      <use xlink:href="#DejaVuSans-61" x="44.583984"/>
      <use xlink:href="#DejaVuSans-72" x="105.863281"/>
      <use xlink:href="#DejaVuSans-67" x="145.226562"/>
      <use xlink:href="#DejaVuSans-65" x="208.703125"/>
      <use xlink:href="#DejaVuSans-74" x="270.226562"/>
      <use xlink:href="#DejaVuSans-20" x="309.435547"/>
      <use xlink:href="#DejaVuSans-28" x="341.222656"/>
      <use xlink:href="#DejaVuSans-6e" x="380.236328"/>
      <use xlink:href="#DejaVuSans-3d" x="443.615234"/>
      <use xlink:href="#DejaVuSans-33" x="527.404297"/>
      <use xlink:href="#DejaVuSans-38" x="591.027344"/>
      <use xlink:href="#DejaVuSans-34" x="654.650391"/>
      <use xlink:href="#DejaVuSans-29" x="718.273438"/>
     </g>
    </g>
    <g id="line2d_19">
     <path d="M 225.585093 38.465205 
L 235.585093 38.465205 
L 245.585093 38.465205 
" style="fill: none; stroke: #377eb8; stroke-width: 1.5; stroke-linecap: square"/>
    </g>
    <g id="text_19">
     <!-- Non-Target (n=1155) -->
     <g transform="translate(253.585093 41.965205)scale(0.1 -0.1)">
      <defs>
       <path id="DejaVuSans-4e" d="M 628 4666 
L 1478 4666 
L 3547 763 
L 3547 4666 
L 4159 4666 
L 4159 0 
L 3309 0 
L 1241 3903 
L 1241 0 
L 628 0 
L 628 4666 
z
" transform="scale(0.015625)"/>
       <path id="DejaVuSans-2d" d="M 313 2009 
L 1997 2009 
L 1997 1497 
L 313 1497 
L 313 2009 
z
" transform="scale(0.015625)"/>
      </defs>
      <use xlink:href="#DejaVuSans-4e"/>
      <use xlink:href="#DejaVuSans-6f" x="74.804688"/>
      <use xlink:href="#DejaVuSans-6e" x="135.986328"/>
      <use xlink:href="#DejaVuSans-2d" x="199.365234"/>
      <use xlink:href="#DejaVuSans-54" x="226.324219"/>
      <use xlink:href="#DejaVuSans-61" x="270.908203"/>
      <use xlink:href="#DejaVuSans-72" x="332.1875"/>
      <use xlink:href="#DejaVuSans-67" x="371.550781"/>
      <use xlink:href="#DejaVuSans-65" x="435.027344"/>
      <use xlink:href="#DejaVuSans-74" x="496.550781"/>
      <use xlink:href="#DejaVuSans-20" x="535.759766"/>
      <use xlink:href="#DejaVuSans-28" x="567.546875"/>
      <use xlink:href="#DejaVuSans-6e" x="606.560547"/>
      <use xlink:href="#DejaVuSans-3d" x="669.939453"/>
      <use xlink:href="#DejaVuSans-31" x="753.728516"/>
      <use xlink:href="#DejaVuSans-31" x="817.351562"/>
      <use xlink:href="#DejaVuSans-35" x="880.974609"/>
      <use xlink:href="#DejaVuSans-35" x="944.597656"/>
      <use xlink:href="#DejaVuSans-29" x="1008.220703"/>
     </g>
    </g>
   </g>
  </g>
 </g>
 <defs>
  <clipPath id="p29a15db6ac">
   <rect x="46.55" y="71.241125" width="367.065499" height="246.958875"/>
  </clipPath>
 </defs>
</svg>
