<?xml version="1.0" encoding="utf-8" standalone="no"?>
<!DOCTYPE svg PUBLIC "-//W3C//DTD SVG 1.1//EN"
  "http://www.w3.org/Graphics/SVG/1.1/DTD/svg11.dtd">
<svg xmlns:xlink="http://www.w3.org/1999/xlink" width="432pt" height="360pt" viewBox="0 0 432 360" xmlns="http://www.w3.org/2000/svg" version="1.1">
 <metadata>
  <rdf:RDF xmlns:dc="http://purl.org/dc/elements/1.1/" xmlns:cc="http://creativecommons.org/ns#" xmlns:rdf="http://www.w3.org/1999/02/22-rdf-syntax-ns#">
   <cc:Work>
    <dc:type rdf:resource="http://purl.org/dc/dcmitype/StillImage"/>
    <dc:date>2022-11-02T16:57:18.800700</dc:date>
    <dc:format>image/svg+xml</dc:format>
    <dc:creator>
     <cc:Agent>
      <dc:title>Matplotlib v3.5.1, https://matplotlib.org/</dc:title>
     </cc:Agent>
    </dc:creator>
   </cc:Work>
  </rdf:RDF>
 </metadata>
 <defs>
  <style type="text/css">*{stroke-linejoin: round; stroke-linecap: butt}</style>
 </defs>
 <g id="figure_1">
  <g id="patch_1">
   <path d="M 0 360 
L 432 360 
L 432 0 
L 0 0 
L 0 360 
z
" style="fill: none"/>
  </g>
  <g id="axes_1">
   <g id="patch_2">
    <path d="M 46.55 318.2 
L 413.615499 318.2 
L 413.615499 71.241125 
L 46.55 71.241125 
L 46.55 318.2 
z
" style="fill: none"/>
   </g>
   <g id="PolyCollection_1">
    <defs>
     <path id="m534372f535" d="M 46.55 -147.481584 
L 46.55 -112.942 
L 47.346238 -109.56259 
L 48.142475 -106.476912 
L 48.938713 -103.867216 
L 49.73495 -101.934453 
L 50.531188 -100.87143 
L 51.327425 -100.790584 
L 52.123663 -101.61245 
L 52.9199 -102.976121 
L 53.716138 -104.2705 
L 54.512375 -104.826269 
L 55.308613 -104.187864 
L 56.10485 -102.313443 
L 56.901088 -99.590285 
L 57.697325 -96.672584 
L 58.493563 -94.249441 
L 59.2898 -92.844593 
L 60.086038 -92.663989 
L 60.882275 -93.493836 
L 61.678513 -94.730395 
L 62.47475 -95.608915 
L 63.270988 -95.571504 
L 64.067226 -94.580001 
L 64.863463 -93.142067 
L 65.659701 -92.011151 
L 66.455938 -91.781792 
L 67.252176 -92.61927 
L 68.048413 -94.217522 
L 68.844651 -95.95791 
L 69.640888 -97.177041 
L 70.437126 -97.436109 
L 71.233363 -96.695569 
L 72.029601 -95.328733 
L 72.825838 -93.964222 
L 73.622076 -93.224433 
L 74.418313 -93.484645 
L 75.214551 -94.769116 
L 76.010788 -96.810499 
L 76.807026 -99.193037 
L 77.603263 -101.488975 
L 78.399501 -103.363486 
L 79.195739 -104.655173 
L 79.991976 -105.415873 
L 80.788214 -105.854828 
L 81.584451 -106.166204 
L 82.380689 -106.343664 
L 83.176926 -106.151812 
L 83.973164 -105.320869 
L 84.769401 -103.824781 
L 85.565639 -101.990672 
L 86.361876 -100.355288 
L 87.158114 -99.410743 
L 87.954351 -99.404194 
L 88.750589 -100.253102 
L 89.546826 -101.563903 
L 90.343064 -102.734446 
L 91.139301 -103.142985 
L 91.935539 -102.402286 
L 92.731776 -100.576444 
L 93.528014 -98.214038 
L 94.324251 -96.134703 
L 95.120489 -95.065274 
L 95.916727 -95.31689 
L 96.712964 -96.667919 
L 97.509202 -98.49673 
L 98.305439 -100.055433 
L 99.101677 -100.721126 
L 99.897914 -100.152231 
L 100.694152 -98.358763 
L 101.490389 -95.690324 
L 102.286627 -92.74008 
L 103.082864 -90.189623 
L 103.879102 -88.642519 
L 104.675339 -88.488076 
L 105.471577 -89.818759 
L 106.267814 -92.416964 
L 107.064052 -95.820079 
L 107.860289 -99.44932 
L 108.656527 -102.756723 
L 109.452764 -105.334083 
L 110.249002 -106.954938 
L 111.04524 -107.565484 
L 111.841477 -107.257539 
L 112.637715 -106.23518 
L 113.433952 -104.763919 
L 114.23019 -103.102222 
L 115.026427 -101.438518 
L 115.822665 -99.858848 
L 116.618902 -98.350514 
L 117.41514 -96.834686 
L 118.211377 -95.223022 
L 119.007615 -93.487315 
L 119.803852 -91.708247 
L 120.60009 -90.064069 
L 121.396327 -88.756547 
L 122.192565 -87.916829 
L 122.988802 -87.541128 
L 123.78504 -87.477397 
L 124.581277 -87.456308 
L 125.377515 -87.153237 
L 126.173752 -86.270533 
L 126.96999 -84.621494 
L 127.766228 -82.187819 
L 128.562465 -79.131978 
L 129.358703 -75.76624 
L 130.15494 -72.485659 
L 130.951178 -69.664284 
L 131.747415 -67.527134 
L 132.543653 -66.049399 
L 133.33989 -64.948915 
L 134.136128 -63.798511 
L 134.932365 -62.218033 
L 135.728603 -60.061432 
L 136.52484 -57.517895 
L 137.321078 -55.085044 
L 138.117315 -53.418464 
L 138.913553 -53.103548 
L 139.70979 -54.432811 
L 140.506028 -57.287108 
L 141.302265 -61.183572 
L 142.098503 -65.464562 
L 142.89474 -69.517834 
L 143.690978 -72.920912 
L 144.487216 -75.489272 
L 145.283453 -77.26933 
L 146.079691 -78.505528 
L 146.875928 -79.575072 
L 147.672166 -80.878048 
L 148.468403 -82.706796 
L 149.264641 -85.155952 
L 150.060878 -88.120764 
L 150.857116 -91.370851 
L 151.653353 -94.639192 
L 152.449591 -97.676703 
L 153.245828 -100.271082 
L 154.042066 -102.260206 
L 154.838303 -103.559184 
L 155.634541 -104.192202 
L 156.430778 -104.30872 
L 157.227016 -104.171067 
L 158.023253 -104.11009 
L 158.819491 -104.450508 
L 159.615729 -105.41781 
L 160.411966 -107.05414 
L 161.208204 -109.1833 
L 162.004441 -111.457492 
L 162.800679 -113.485797 
L 163.596916 -114.999695 
L 164.393154 -115.98051 
L 165.189391 -116.679871 
L 165.985629 -117.508579 
L 166.781866 -118.831827 
L 167.578104 -120.757533 
L 168.374341 -123.01691 
L 169.170579 -125.004233 
L 169.966816 -125.977431 
L 170.763054 -125.350017 
L 171.559291 -122.962346 
L 172.355529 -119.224932 
L 173.151766 -115.07319 
L 173.948004 -111.733708 
L 174.744241 -110.357223 
L 175.540479 -111.622252 
L 176.336717 -115.451958 
L 177.132954 -120.981409 
L 177.929192 -126.83326 
L 178.725429 -131.62423 
L 179.521667 -134.49282 
L 180.317904 -135.3994 
L 181.114142 -135.064014 
L 181.910379 -134.6064 
L 182.706617 -135.081487 
L 183.502854 -137.099673 
L 184.299092 -140.640089 
L 185.095329 -145.082696 
L 185.891567 -149.434935 
L 186.687804 -152.686087 
L 187.484042 -154.170499 
L 188.280279 -153.792796 
L 189.076517 -152.015157 
L 189.872754 -149.610499 
L 190.668992 -147.304522 
L 191.46523 -145.487507 
L 192.261467 -144.129737 
L 193.057705 -142.911154 
L 193.853942 -141.458345 
L 194.65018 -139.557007 
L 195.446417 -137.25159 
L 196.242655 -134.816235 
L 197.038892 -132.630371 
L 197.83513 -131.015927 
L 198.631367 -130.103447 
L 199.427605 -129.793262 
L 200.223842 -129.844397 
L 201.02008 -130.050216 
L 201.816317 -130.395524 
L 202.612555 -131.092736 
L 203.408792 -132.465655 
L 204.20503 -134.736535 
L 205.001267 -137.825183 
L 205.797505 -141.267324 
L 206.593742 -144.311665 
L 207.38998 -146.169529 
L 208.186218 -146.321735 
L 208.982455 -144.752032 
L 209.778693 -142.007158 
L 210.57493 -139.056512 
L 211.371168 -136.997429 
L 212.167405 -136.698408 
L 212.963643 -138.49413 
L 213.75988 -142.046666 
L 214.556118 -146.446451 
L 215.352355 -150.536746 
L 216.148593 -153.340691 
L 216.94483 -154.408804 
L 217.741068 -153.933444 
L 218.537305 -152.596039 
L 219.333543 -151.243176 
L 220.12978 -150.545738 
L 220.926018 -150.772775 
L 221.722255 -151.752173 
L 222.518493 -153.017953 
L 223.31473 -154.067733 
L 224.110968 -154.601668 
L 224.907206 -154.62618 
L 225.703443 -154.390177 
L 226.499681 -154.218053 
L 227.295918 -154.340096 
L 228.092156 -154.787256 
L 228.888393 -155.371767 
L 229.684631 -155.758954 
L 230.480868 -155.61832 
L 231.277106 -154.795108 
L 232.073343 -153.404329 
L 232.869581 -151.778225 
L 233.665818 -150.292636 
L 234.462056 -149.181614 
L 235.258293 -148.443186 
L 236.054531 -147.854969 
L 236.850768 -147.062866 
L 237.647006 -145.723141 
L 238.443243 -143.681745 
L 239.239481 -141.125419 
L 240.035719 -138.606335 
L 240.831956 -136.88551 
L 241.628194 -136.643249 
L 242.424431 -138.193659 
L 243.220669 -141.346693 
L 244.016906 -145.481388 
L 244.813144 -149.787723 
L 245.609381 -153.563234 
L 246.405619 -156.439697 
L 247.201856 -158.455974 
L 247.998094 -159.963187 
L 248.794331 -161.417898 
L 249.590569 -163.15485 
L 250.386806 -165.222889 
L 251.183044 -167.34309 
L 251.979281 -169.017501 
L 252.775519 -169.763465 
L 253.571756 -169.373109 
L 254.367994 -168.062252 
L 255.164231 -166.425884 
L 255.960469 -165.225484 
L 256.756707 -165.112742 
L 257.552944 -166.401701 
L 258.349182 -168.96121 
L 259.145419 -172.257444 
L 259.941657 -175.539074 
L 260.737894 -178.108116 
L 261.534132 -179.571111 
L 262.330369 -179.966402 
L 263.126607 -179.727341 
L 263.922844 -179.516105 
L 264.719082 -179.998836 
L 265.515319 -181.633254 
L 266.311557 -184.530949 
L 267.107794 -188.437985 
L 267.904032 -192.834331 
L 268.700269 -197.101205 
L 269.496507 -200.687951 
L 270.292744 -203.235732 
L 271.088982 -204.646134 
L 271.88522 -205.088717 
L 272.681457 -204.938096 
L 273.477695 -204.649845 
L 274.273932 -204.618921 
L 275.07017 -205.074365 
L 275.866407 -206.037976 
L 276.662645 -207.34253 
L 277.458882 -208.692358 
L 278.25512 -209.748247 
L 279.051357 -210.21451 
L 279.847595 -209.906213 
L 280.643832 -208.789659 
L 281.44007 -207.002735 
L 282.236307 -204.848395 
L 283.032545 -202.732053 
L 283.828782 -201.033038 
L 284.62502 -199.961939 
L 285.421257 -199.489589 
L 286.217495 -199.393337 
L 287.013732 -199.385275 
L 287.80997 -199.238398 
L 288.606208 -198.849952 
L 289.402445 -198.240225 
L 290.198683 -197.513807 
L 290.99492 -196.801511 
L 291.791158 -196.195205 
L 292.587395 -195.697373 
L 293.383633 -195.207424 
L 294.17987 -194.548452 
L 294.976108 -193.521599 
L 295.772345 -191.977813 
L 296.568583 -189.890563 
L 297.36482 -187.401625 
L 298.161058 -184.79944 
L 298.957295 -182.421798 
L 299.753533 -180.535517 
L 300.54977 -179.268716 
L 301.346008 -178.623758 
L 302.142245 -178.532192 
L 302.938483 -178.895877 
L 303.73472 -179.590051 
L 304.530958 -180.446219 
L 305.327196 -181.246195 
L 306.123433 -181.746472 
L 306.919671 -181.732326 
L 307.715908 -181.085626 
L 308.512146 -179.841244 
L 309.308383 -178.202526 
L 310.104621 -176.493294 
L 310.900858 -175.047676 
L 311.697096 -174.072273 
L 312.493333 -173.539588 
L 313.289571 -173.17063 
L 314.085808 -172.53178 
L 314.882046 -171.22125 
L 315.678283 -169.065686 
L 316.474521 -166.240125 
L 317.270758 -163.253918 
L 318.066996 -160.798139 
L 318.863233 -159.49813 
L 319.659471 -159.648403 
L 320.455709 -161.02709 
L 321.251946 -162.884226 
L 322.048184 -164.148631 
L 322.844421 -163.801877 
L 323.640659 -161.275796 
L 324.436896 -156.70424 
L 325.233134 -150.920568 
L 326.029371 -145.199365 
L 326.825609 -140.839465 
L 327.621846 -138.73789 
L 328.418084 -139.104975 
L 329.214321 -141.419229 
L 330.010559 -144.633444 
L 330.806796 -147.54619 
L 331.603034 -149.191049 
L 332.399271 -149.100797 
L 333.195509 -147.372121 
L 333.991746 -144.546364 
L 334.787984 -141.382615 
L 335.584221 -138.611524 
L 336.380459 -136.736822 
L 337.176697 -135.92706 
L 337.972934 -136.020755 
L 338.769172 -136.63933 
L 339.565409 -137.363664 
L 340.361647 -137.896304 
L 341.157884 -138.126203 
L 341.954122 -138.064224 
L 342.750359 -137.710958 
L 343.546597 -136.971907 
L 344.342834 -135.689196 
L 345.139072 -133.758624 
L 345.935309 -131.236824 
L 346.731547 -128.362404 
L 347.527784 -125.485825 
L 348.324022 -122.955292 
L 349.120259 -121.003654 
L 349.916497 -119.65796 
L 350.712734 -118.695004 
L 351.508972 -117.687321 
L 352.30521 -116.163699 
L 353.101447 -113.831336 
L 353.897685 -110.735599 
L 354.693922 -107.250688 
L 355.49016 -103.904899 
L 356.286397 -101.150678 
L 357.082635 -99.201961 
L 357.878872 -97.994879 
L 358.67511 -97.258275 
L 359.471347 -96.655779 
L 360.267585 -95.955895 
L 361.063822 -95.164285 
L 361.86006 -94.536823 
L 362.656297 -94.43899 
L 363.452535 -95.116375 
L 364.248772 -96.509612 
L 365.04501 -98.22326 
L 365.841247 -99.664864 
L 366.637485 -100.275309 
L 367.433722 -99.739457 
L 368.22996 -98.101779 
L 369.026198 -95.764259 
L 369.822435 -93.375111 
L 370.618673 -91.635939 
L 371.41491 -91.079895 
L 372.211148 -91.895215 
L 373.007385 -93.866496 
L 373.803623 -96.467289 
L 374.59986 -99.070173 
L 375.396098 -101.177645 
L 376.192335 -102.565034 
L 376.988573 -103.286857 
L 377.78481 -103.583186 
L 378.581048 -103.760328 
L 379.377285 -104.094674 
L 380.173523 -104.769874 
L 380.96976 -105.849083 
L 381.765998 -107.29292 
L 382.562235 -109.018475 
L 383.358473 -110.953248 
L 384.15471 -113.028475 
L 384.950948 -115.114436 
L 385.747186 -116.972066 
L 386.543423 -118.292806 
L 387.339661 -118.815736 
L 388.135898 -118.435813 
L 388.932136 -117.239125 
L 389.728373 -115.482425 
L 390.524611 -113.556767 
L 391.320848 -111.920949 
L 392.117086 -110.965759 
L 392.913323 -110.836188 
L 393.709561 -111.32011 
L 394.505798 -111.902954 
L 395.302036 -111.980844 
L 396.098273 -111.109548 
L 396.894511 -109.149942 
L 397.690748 -106.269937 
L 398.486986 -102.861284 
L 399.283223 -99.427952 
L 400.079461 -96.454208 
L 400.875699 -94.256582 
L 401.671936 -92.867799 
L 402.468174 -92.022803 
L 403.264411 -91.27439 
L 404.060649 -90.191044 
L 404.856886 -88.540987 
L 405.653124 -86.377118 
L 406.449361 -83.996219 
L 407.245599 -81.809562 
L 408.041836 -80.194899 
L 408.838074 -79.393733 
L 409.634311 -79.482971 
L 410.430549 -80.407633 
L 411.226786 -82.041027 
L 412.023024 -84.248273 
L 412.819261 -86.940262 
L 413.615499 -90.093621 
L 413.615499 -171.38799 
L 413.615499 -171.38799 
L 412.819261 -167.499819 
L 412.023024 -164.098022 
L 411.226786 -161.434725 
L 410.430549 -159.702067 
L 409.634311 -159.014984 
L 408.838074 -159.372429 
L 408.041836 -160.615269 
L 407.245599 -162.427251 
L 406.449361 -164.403432 
L 405.653124 -166.163581 
L 404.856886 -167.46218 
L 404.060649 -168.252434 
L 403.264411 -168.685996 
L 402.468174 -169.057455 
L 401.671936 -169.7187 
L 400.875699 -170.984991 
L 400.079461 -173.042557 
L 399.283223 -175.868949 
L 398.486986 -179.196901 
L 397.690748 -182.56589 
L 396.894511 -185.475661 
L 396.098273 -187.581467 
L 395.302036 -188.817278 
L 394.505798 -189.372132 
L 393.709561 -189.557087 
L 392.913323 -189.672522 
L 392.117086 -189.941407 
L 391.320848 -190.484267 
L 390.524611 -191.292132 
L 389.728373 -192.205913 
L 388.932136 -192.953347 
L 388.135898 -193.263817 
L 387.339661 -192.995428 
L 386.543423 -192.175154 
L 385.747186 -190.930685 
L 384.950948 -189.39631 
L 384.15471 -187.678545 
L 383.358473 -185.877128 
L 382.562235 -184.101164 
L 381.765998 -182.453006 
L 380.96976 -181.006058 
L 380.173523 -179.802016 
L 379.377285 -178.85204 
L 378.581048 -178.113166 
L 377.78481 -177.451552 
L 376.988573 -176.644577 
L 376.192335 -175.45693 
L 375.396098 -173.761892 
L 374.59986 -171.635577 
L 373.803623 -169.370441 
L 373.007385 -167.406667 
L 372.211148 -166.211759 
L 371.41491 -166.137326 
L 370.618673 -167.28333 
L 369.822435 -169.417368 
L 369.026198 -172.001266 
L 368.22996 -174.34338 
L 367.433722 -175.832693 
L 366.637485 -176.156998 
L 365.841247 -175.400534 
L 365.04501 -173.971485 
L 364.248772 -172.401427 
L 363.452535 -171.128427 
L 362.656297 -170.368062 
L 361.86006 -170.106068 
L 361.063822 -170.180507 
L 360.267585 -170.400268 
L 359.471347 -170.659384 
L 358.67511 -171.01564 
L 357.878872 -171.695478 
L 357.082635 -172.996879 
L 356.286397 -175.120418 
L 355.49016 -178.02559 
L 354.693922 -181.407274 
L 353.897685 -184.80541 
L 353.101447 -187.776838 
L 352.30521 -190.041532 
L 351.508972 -191.561511 
L 350.712734 -192.551695 
L 349.916497 -193.419689 
L 349.120259 -194.625584 
L 348.324022 -196.491715 
L 347.527784 -199.05074 
L 346.731547 -202.027898 
L 345.935309 -204.974188 
L 345.139072 -207.463895 
L 344.342834 -209.238508 
L 343.546597 -210.241529 
L 342.750359 -210.570966 
L 341.954122 -210.40836 
L 341.157884 -209.958343 
L 340.361647 -209.401789 
L 339.565409 -208.865914 
L 338.769172 -208.433309 
L 337.972934 -208.201292 
L 337.176697 -208.348081 
L 336.380459 -209.125645 
L 335.584221 -210.741329 
L 334.787984 -213.178836 
L 333.991746 -216.071571 
L 333.195509 -218.733198 
L 332.399271 -220.369983 
L 331.603034 -220.395752 
L 330.806796 -218.708719 
L 330.010559 -215.803362 
L 329.214321 -212.662173 
L 328.418084 -210.459925 
L 327.621846 -210.181533 
L 326.825609 -212.283965 
L 326.029371 -216.521611 
L 325.233134 -222.006287 
L 324.436896 -227.491319 
L 323.640659 -231.78163 
L 322.844421 -234.117157 
L 322.048184 -234.391764 
L 321.251946 -233.141878 
L 320.455709 -231.32622 
L 319.659471 -229.980214 
L 318.863233 -229.861865 
L 318.066996 -231.210672 
L 317.270758 -233.709672 
L 316.474521 -236.665142 
L 315.678283 -239.321637 
L 314.882046 -241.166689 
L 314.085808 -242.094237 
L 313.289571 -242.377315 
L 312.493333 -242.493702 
L 311.697096 -242.901966 
L 310.900858 -243.86217 
L 310.104621 -245.363868 
L 309.308383 -247.168299 
L 308.512146 -248.931527 
L 307.715908 -250.34578 
L 306.919671 -251.236686 
L 306.123433 -251.585183 
L 305.327196 -251.484838 
L 304.530958 -251.074536 
L 303.73472 -250.49043 
L 302.938483 -249.859371 
L 302.142245 -249.321426 
L 301.346008 -249.044622 
L 300.54977 -249.203667 
L 299.753533 -249.929853 
L 298.957295 -251.265198 
L 298.161058 -253.144533 
L 297.36482 -255.399718 
L 296.568583 -257.777134 
L 295.772345 -259.979025 
L 294.976108 -261.743964 
L 294.17987 -262.944539 
L 293.383633 -263.641248 
L 292.587395 -264.047983 
L 291.791158 -264.422305 
L 290.99492 -264.944463 
L 290.198683 -265.645101 
L 289.402445 -266.412339 
L 288.606208 -267.070946 
L 287.80997 -267.494834 
L 287.013732 -267.693078 
L 286.217495 -267.817332 
L 285.421257 -268.086785 
L 284.62502 -268.685811 
L 283.828782 -269.700185 
L 283.032545 -271.107348 
L 282.236307 -272.788301 
L 281.44007 -274.536134 
L 280.643832 -276.077356 
L 279.847595 -277.136404 
L 279.051357 -277.533472 
L 278.25512 -277.259468 
L 277.458882 -276.481167 
L 276.662645 -275.480718 
L 275.866407 -274.566078 
L 275.07017 -273.982938 
L 274.273932 -273.844321 
L 273.477695 -274.091909 
L 272.681457 -274.499236 
L 271.88522 -274.712723 
L 271.088982 -274.319033 
L 270.292744 -272.936252 
L 269.496507 -270.328342 
L 268.700269 -266.516214 
L 267.904032 -261.829624 
L 267.107794 -256.853948 
L 266.311557 -252.276283 
L 265.515319 -248.684239 
L 264.719082 -246.385329 
L 263.922844 -245.30292 
L 263.126607 -244.987996 
L 262.330369 -244.761455 
L 261.534132 -243.953554 
L 260.737894 -242.153204 
L 259.941657 -239.365218 
L 259.145419 -236.015087 
L 258.349182 -232.803393 
L 257.552944 -230.457741 
L 256.756707 -229.460137 
L 255.960469 -229.850678 
L 255.164231 -231.200373 
L 254.367994 -232.777332 
L 253.571756 -233.830939 
L 252.775519 -233.863008 
L 251.979281 -232.778596 
L 251.183044 -230.877703 
L 250.386806 -228.704183 
L 249.590569 -226.799648 
L 248.794331 -225.446422 
L 247.998094 -224.517262 
L 247.201856 -223.524782 
L 246.405619 -221.863457 
L 245.609381 -219.127313 
L 244.813144 -215.348705 
L 244.016906 -211.047802 
L 243.220669 -207.072074 
L 242.424431 -204.295535 
L 241.628194 -203.303588 
L 240.831956 -204.18824 
L 240.035719 -206.52325 
L 239.239481 -209.515541 
L 238.443243 -212.276674 
L 237.647006 -214.129491 
L 236.850768 -214.84733 
L 236.054531 -214.72397 
L 235.258293 -214.420701 
L 234.462056 -214.638066 
L 233.665818 -215.770065 
L 232.869581 -217.729506 
L 232.073343 -220.024749 
L 231.277106 -222.007201 
L 230.480868 -223.144063 
L 229.684631 -223.212045 
L 228.888393 -222.363309 
L 228.092156 -221.046071 
L 227.295918 -219.799933 
L 226.499681 -219.007513 
L 225.703443 -218.729235 
L 224.907206 -218.716755 
L 224.110968 -218.590595 
L 223.31473 -218.067611 
L 222.518493 -217.113303 
L 221.722255 -215.957053 
L 220.926018 -214.978928 
L 220.12978 -214.518873 
L 219.333543 -214.68378 
L 218.537305 -215.239519 
L 217.741068 -215.652927 
L 216.94483 -215.282504 
L 216.148593 -213.640906 
L 215.352355 -210.618082 
L 214.556118 -206.57876 
L 213.75988 -202.299195 
L 212.963643 -198.750313 
L 212.167405 -196.778751 
L 211.371168 -196.789203 
L 210.57493 -198.561088 
L 209.778693 -201.299693 
L 208.982455 -203.922692 
L 208.186218 -205.463778 
L 207.38998 -205.413482 
L 206.593742 -203.854104 
L 205.797505 -201.351161 
L 205.001267 -198.672152 
L 204.20503 -196.466773 
L 203.408792 -195.045019 
L 202.612555 -194.333389 
L 201.816317 -194.009237 
L 201.02008 -193.727174 
L 200.223842 -193.32077 
L 199.427605 -192.888675 
L 198.631367 -192.736296 
L 197.83513 -193.206867 
L 197.038892 -194.480394 
L 196.242655 -196.439821 
L 195.446417 -198.687735 
L 194.65018 -200.726973 
L 193.853942 -202.218135 
L 193.057705 -203.164701 
L 192.261467 -203.909627 
L 191.46523 -204.938733 
L 190.668992 -206.598692 
L 189.872754 -208.876803 
L 189.076517 -211.336902 
L 188.280279 -213.236065 
L 187.484042 -213.782227 
L 186.687804 -212.449665 
L 185.891567 -209.238237 
L 185.095329 -204.757761 
L 184.299092 -200.066502 
L 183.502854 -196.290291 
L 182.706617 -194.167595 
L 181.910379 -193.730202 
L 181.114142 -194.288272 
L 180.317904 -194.734408 
L 179.521667 -194.011942 
L 178.725429 -191.52703 
L 177.929192 -187.351348 
L 177.132954 -182.187448 
L 176.336717 -177.147851 
L 175.540479 -173.413364 
L 174.744241 -171.854659 
L 173.948004 -172.736958 
L 173.151766 -175.625876 
L 172.355529 -179.546945 
L 171.559291 -183.343107 
L 170.763054 -186.077619 
L 169.966816 -187.308685 
L 169.170579 -187.135163 
L 168.374341 -186.029329 
L 167.578104 -184.56212 
L 166.781866 -183.15158 
L 165.985629 -181.930837 
L 165.189391 -180.766777 
L 164.393154 -179.39414 
L 163.596916 -177.588244 
L 162.800679 -175.296205 
L 162.004441 -172.677263 
L 161.208204 -170.046741 
L 160.411966 -167.755818 
L 159.615729 -166.059047 
L 158.819491 -165.022163 
L 158.023253 -164.503304 
L 157.227016 -164.208851 
L 156.430778 -163.794612 
L 155.634541 -162.967555 
L 154.838303 -161.549307 
L 154.042066 -159.486275 
L 153.245828 -156.824044 
L 152.449591 -153.680243 
L 151.653353 -150.23581 
L 150.857116 -146.731813 
L 150.060878 -143.444887 
L 149.264641 -140.633447 
L 148.468403 -138.47388 
L 147.672166 -137.008859 
L 146.875928 -136.112918 
L 146.079691 -135.479273 
L 145.283453 -134.653458 
L 144.487216 -133.146936 
L 143.690978 -130.621333 
L 142.89474 -127.064814 
L 142.098503 -122.853706 
L 141.302265 -118.64211 
L 140.506028 -115.127827 
L 139.70979 -112.824589 
L 138.913553 -111.944911 
L 138.117315 -112.401286 
L 137.321078 -113.878364 
L 136.52484 -115.93934 
L 135.728603 -118.145722 
L 134.932365 -120.166594 
L 134.136128 -121.848235 
L 133.33989 -123.225787 
L 132.543653 -124.482255 
L 131.747415 -125.873813 
L 130.951178 -127.63738 
L 130.15494 -129.894688 
L 129.358703 -132.579262 
L 128.562465 -135.426018 
L 127.766228 -138.050038 
L 126.96999 -140.089557 
L 126.173752 -141.341742 
L 125.377515 -141.826386 
L 124.581277 -141.760945 
L 123.78504 -141.471233 
L 122.988802 -141.275449 
L 122.192565 -141.383532 
L 121.396327 -141.852869 
L 120.60009 -142.617488 
L 119.803852 -143.563971 
L 119.007615 -144.600889 
L 118.211377 -145.686342 
L 117.41514 -146.818887 
L 116.618902 -148.016986 
L 115.822665 -149.296784 
L 115.026427 -150.643559 
L 114.23019 -151.98509 
L 113.433952 -153.186988 
L 112.637715 -154.074124 
L 111.841477 -154.459629 
L 111.04524 -154.166868 
L 110.249002 -153.052279 
L 109.452764 -151.043323 
L 108.656527 -148.184456 
L 107.860289 -144.669052 
L 107.064052 -140.845621 
L 106.267814 -137.200236 
L 105.471577 -134.306833 
L 104.675339 -132.723939 
L 103.879102 -132.83398 
L 103.082864 -134.66887 
L 102.286627 -137.8079 
L 101.490389 -141.428612 
L 100.694152 -144.525862 
L 99.897914 -146.23194 
L 99.101677 -146.121454 
L 98.305439 -144.379134 
L 97.509202 -141.74154 
L 96.712964 -139.204676 
L 95.916727 -137.619359 
L 95.120489 -137.385753 
L 94.324251 -138.383368 
L 93.528014 -140.103168 
L 92.731776 -141.870232 
L 91.935539 -143.065113 
L 91.139301 -143.293552 
L 90.343064 -142.489556 
L 89.546826 -140.934718 
L 88.750589 -139.154938 
L 87.954351 -137.696548 
L 87.158114 -136.882672 
L 86.361876 -136.698852 
L 85.565639 -136.87942 
L 84.769401 -137.116477 
L 83.973164 -137.225026 
L 83.176926 -137.152311 
L 82.380689 -136.88675 
L 81.584451 -136.414269 
L 80.788214 -135.735979 
L 79.991976 -134.850797 
L 79.195739 -133.68749 
L 78.399501 -132.081924 
L 77.603263 -129.887239 
L 76.807026 -127.169173 
L 76.010788 -124.318634 
L 75.214551 -121.958591 
L 74.418313 -120.675378 
L 73.622076 -120.734652 
L 72.825838 -121.948667 
L 72.029601 -123.746042 
L 71.233363 -125.385399 
L 70.437126 -126.222509 
L 69.640888 -125.941223 
L 68.844651 -124.664437 
L 68.048413 -122.89099 
L 67.252176 -121.272137 
L 66.455938 -120.326108 
L 65.659701 -120.233096 
L 64.863463 -120.807566 
L 64.067226 -121.638011 
L 63.270988 -122.288626 
L 62.47475 -122.451734 
L 61.678513 -122.044391 
L 60.882275 -121.29351 
L 60.086038 -120.739736 
L 59.2898 -121.055726 
L 58.493563 -122.71601 
L 57.697325 -125.695683 
L 56.901088 -129.408375 
L 56.10485 -132.950581 
L 55.308613 -135.491224 
L 54.512375 -136.579992 
L 53.716138 -136.262992 
L 52.9199 -135.018914 
L 52.123663 -133.579815 
L 51.327425 -132.697389 
L 50.531188 -132.911932 
L 49.73495 -134.397745 
L 48.938713 -136.961494 
L 48.142475 -140.207253 
L 47.346238 -143.771167 
L 46.55 -147.481584 
z
" style="stroke: #e41a1c; stroke-opacity: 0.3"/>
    </defs>
    <g clip-path="url(#pe918dffda6)">
     <use xlink:href="#m534372f535" x="0" y="360" style="fill: #e41a1c; fill-opacity: 0.3; stroke: #e41a1c; stroke-opacity: 0.3"/>
    </g>
   </g>
   <g id="PolyCollection_2">
    <defs>
     <path id="mb0babceb36" d="M 46.55 -133.532069 
L 46.55 -113.474233 
L 47.346238 -112.126655 
L 48.142475 -110.798702 
L 48.938713 -109.633268 
L 49.73495 -108.741562 
L 50.531188 -108.190471 
L 51.327425 -107.960412 
L 52.123663 -107.912842 
L 52.9199 -107.825922 
L 53.716138 -107.500998 
L 54.512375 -106.872474 
L 55.308613 -106.035933 
L 56.10485 -105.177165 
L 56.901088 -104.467968 
L 57.697325 -104.007866 
L 58.493563 -103.841814 
L 59.2898 -104.008823 
L 60.086038 -104.544701 
L 60.882275 -105.433541 
L 61.678513 -106.572036 
L 62.47475 -107.783842 
L 63.270988 -108.868645 
L 64.067226 -109.646725 
L 64.863463 -109.974897 
L 65.659701 -109.752699 
L 66.455938 -108.951418 
L 67.252176 -107.660711 
L 68.048413 -106.118956 
L 68.844651 -104.698722 
L 69.640888 -103.837668 
L 70.437126 -103.915111 
L 71.233363 -105.097992 
L 72.029601 -107.223081 
L 72.825838 -109.792667 
L 73.622076 -112.111719 
L 74.418313 -113.5266 
L 75.214551 -113.664979 
L 76.010788 -112.55714 
L 76.807026 -110.581477 
L 77.603263 -108.28406 
L 78.399501 -106.172719 
L 79.195739 -104.562188 
L 79.991976 -103.502353 
L 80.788214 -102.79504 
L 81.584451 -102.097651 
L 82.380689 -101.089062 
L 83.176926 -99.632345 
L 83.973164 -97.84829 
L 84.769401 -96.053315 
L 85.565639 -94.60116 
L 86.361876 -93.724262 
L 87.158114 -93.452106 
L 87.954351 -93.619593 
L 88.750589 -93.936795 
L 89.546826 -94.091045 
L 90.343064 -93.856371 
L 91.139301 -93.177267 
L 91.935539 -92.188336 
L 92.731776 -91.14557 
L 93.528014 -90.288811 
L 94.324251 -89.710735 
L 95.120489 -89.314462 
L 95.916727 -88.885722 
L 96.712964 -88.236904 
L 97.509202 -87.342332 
L 98.305439 -86.387552 
L 99.101677 -85.698812 
L 99.897914 -85.585257 
L 100.694152 -86.175121 
L 101.490389 -87.326141 
L 102.286627 -88.645534 
L 103.082864 -89.609604 
L 103.879102 -89.74751 
L 104.675339 -88.832571 
L 105.471577 -87.001861 
L 106.267814 -84.729494 
L 107.064052 -82.642645 
L 107.860289 -81.262319 
L 108.656527 -80.798172 
L 109.452764 -81.089977 
L 110.249002 -81.705733 
L 111.04524 -82.141048 
L 111.841477 -82.038325 
L 112.637715 -81.340969 
L 113.433952 -80.312819 
L 114.23019 -79.40456 
L 115.026427 -79.02718 
L 115.822665 -79.346275 
L 116.618902 -80.196774 
L 117.41514 -81.14939 
L 118.211377 -81.688127 
L 119.007615 -81.421718 
L 119.803852 -80.248211 
L 120.60009 -78.407602 
L 121.396327 -76.395556 
L 122.192565 -74.769566 
L 122.988802 -73.929839 
L 123.78504 -73.967319 
L 124.581277 -74.637124 
L 125.377515 -75.463764 
L 126.173752 -75.93797 
L 126.96999 -75.728796 
L 127.766228 -74.819759 
L 128.562465 -73.505308 
L 129.358703 -72.253781 
L 130.15494 -71.512004 
L 130.951178 -71.544133 
L 131.747415 -72.36069 
L 132.543653 -73.745057 
L 133.33989 -75.354472 
L 134.136128 -76.855051 
L 134.932365 -78.034385 
L 135.728603 -78.839417 
L 136.52484 -79.329585 
L 137.321078 -79.58951 
L 138.117315 -79.661503 
L 138.913553 -79.52642 
L 139.70979 -79.1256 
L 140.506028 -78.411325 
L 141.302265 -77.416942 
L 142.098503 -76.319875 
L 142.89474 -75.445807 
L 143.690978 -75.173353 
L 144.487216 -75.766585 
L 145.283453 -77.230625 
L 146.079691 -79.280376 
L 146.875928 -81.43665 
L 147.672166 -83.190556 
L 148.468403 -84.164389 
L 149.264641 -84.227942 
L 150.060878 -83.547093 
L 150.857116 -82.541491 
L 151.653353 -81.742944 
L 152.449591 -81.591941 
L 153.245828 -82.256104 
L 154.042066 -83.555123 
L 154.838303 -85.026256 
L 155.634541 -86.098907 
L 156.430778 -86.305152 
L 157.227016 -85.448028 
L 158.023253 -83.672959 
L 158.819491 -81.422697 
L 159.615729 -79.291988 
L 160.411966 -77.831006 
L 161.208204 -77.368636 
L 162.004441 -77.923948 
L 162.800679 -79.238527 
L 163.596916 -80.906482 
L 164.393154 -82.534192 
L 165.189391 -83.857888 
L 165.985629 -84.783179 
L 166.781866 -85.354481 
L 167.578104 -85.684228 
L 168.374341 -85.874889 
L 169.170579 -85.964507 
L 169.966816 -85.919621 
L 170.763054 -85.679218 
L 171.559291 -85.223485 
L 172.355529 -84.622556 
L 173.151766 -84.032847 
L 173.948004 -83.644193 
L 174.744241 -83.607368 
L 175.540479 -83.970996 
L 176.336717 -84.643199 
L 177.132954 -85.390047 
L 177.929192 -85.884515 
L 178.725429 -85.806422 
L 179.521667 -84.965339 
L 180.317904 -83.396069 
L 181.114142 -81.379148 
L 181.910379 -79.369414 
L 182.706617 -77.856993 
L 183.502854 -77.214447 
L 184.299092 -77.585861 
L 185.095329 -78.851336 
L 185.891567 -80.670506 
L 186.687804 -82.585754 
L 187.484042 -84.152839 
L 188.280279 -85.059137 
L 189.076517 -85.188242 
L 189.872754 -84.60838 
L 190.668992 -83.49918 
L 191.46523 -82.063164 
L 192.261467 -80.466915 
L 193.057705 -78.827292 
L 193.853942 -77.227192 
L 194.65018 -75.734458 
L 195.446417 -74.406784 
L 196.242655 -73.27936 
L 197.038892 -72.342357 
L 197.83513 -71.523765 
L 198.631367 -70.698019 
L 199.427605 -69.733495 
L 200.223842 -68.56789 
L 201.02008 -67.275883 
L 201.816317 -66.089037 
L 202.612555 -65.349505 
L 203.408792 -65.40968 
L 204.20503 -66.509312 
L 205.001267 -68.667719 
L 205.797505 -71.629697 
L 206.593742 -74.896575 
L 207.38998 -77.846868 
L 208.186218 -79.910487 
L 208.982455 -80.732822 
L 209.778693 -80.269787 
L 210.57493 -78.784824 
L 211.371168 -76.755018 
L 212.167405 -74.72049 
L 212.963643 -73.126825 
L 213.75988 -72.212004 
L 214.556118 -71.974 
L 215.352355 -72.22085 
L 216.148593 -72.670758 
L 216.94483 -73.055238 
L 217.741068 -73.190364 
L 218.537305 -73.004403 
L 219.333543 -72.527678 
L 220.12978 -71.857579 
L 220.926018 -71.113638 
L 221.722255 -70.397426 
L 222.518493 -69.766962 
L 223.31473 -69.22532 
L 224.110968 -68.718372 
L 224.907206 -68.14204 
L 225.703443 -67.366219 
L 226.499681 -66.274972 
L 227.295918 -64.808132 
L 228.092156 -62.984904 
L 228.888393 -60.902685 
L 229.684631 -58.719932 
L 230.480868 -56.634766 
L 231.277106 -54.862683 
L 232.073343 -53.608007 
L 232.869581 -53.025403 
L 233.665818 -53.178993 
L 234.462056 -54.01753 
L 235.258293 -55.381213 
L 236.054531 -57.040298 
L 236.850768 -58.748529 
L 237.647006 -60.288799 
L 238.443243 -61.499266 
L 239.239481 -62.284869 
L 240.035719 -62.624678 
L 240.831956 -62.574125 
L 241.628194 -62.248567 
L 242.424431 -61.782233 
L 243.220669 -61.280913 
L 244.016906 -60.799038 
L 244.813144 -60.355039 
L 245.609381 -59.967365 
L 246.405619 -59.678175 
L 247.201856 -59.547576 
L 247.998094 -59.630199 
L 248.794331 -59.956508 
L 249.590569 -60.528954 
L 250.386806 -61.327163 
L 251.183044 -62.312808 
L 251.979281 -63.430932 
L 252.775519 -64.614073 
L 253.571756 -65.795848 
L 254.367994 -66.932939 
L 255.164231 -68.024579 
L 255.960469 -69.116755 
L 256.756707 -70.286083 
L 257.552944 -71.610601 
L 258.349182 -73.139166 
L 259.145419 -74.867667 
L 259.941657 -76.724979 
L 260.737894 -78.572216 
L 261.534132 -80.220794 
L 262.330369 -81.470239 
L 263.126607 -82.156466 
L 263.922844 -82.194799 
L 264.719082 -81.603947 
L 265.515319 -80.50519 
L 266.311557 -79.099694 
L 267.107794 -77.632018 
L 267.904032 -76.347787 
L 268.700269 -75.450587 
L 269.496507 -75.061687 
L 270.292744 -75.189624 
L 271.088982 -75.721196 
L 271.88522 -76.443704 
L 272.681457 -77.096999 
L 273.477695 -77.438808 
L 274.273932 -77.301049 
L 275.07017 -76.625404 
L 275.866407 -75.480208 
L 276.662645 -74.060559 
L 277.458882 -72.661819 
L 278.25512 -71.614153 
L 279.051357 -71.186578 
L 279.847595 -71.498331 
L 280.643832 -72.482706 
L 281.44007 -73.922278 
L 282.236307 -75.535636 
L 283.032545 -77.074134 
L 283.828782 -78.392994 
L 284.62502 -79.479889 
L 285.421257 -80.43977 
L 286.217495 -81.442117 
L 287.013732 -82.642551 
L 287.80997 -84.100561 
L 288.606208 -85.725537 
L 289.402445 -87.279857 
L 290.198683 -88.444391 
L 290.99492 -88.920579 
L 291.791158 -88.525524 
L 292.587395 -87.243177 
L 293.383633 -85.220123 
L 294.17987 -82.719846 
L 294.976108 -80.059551 
L 295.772345 -77.549643 
L 296.568583 -75.447901 
L 297.36482 -73.932138 
L 298.161058 -73.086673 
L 298.957295 -72.891893 
L 299.753533 -73.212562 
L 300.54977 -73.798888 
L 301.346008 -74.326758 
L 302.142245 -74.48812 
L 302.938483 -74.102736 
L 303.73472 -73.192902 
L 304.530958 -71.976089 
L 305.327196 -70.780912 
L 306.123433 -69.932347 
L 306.919671 -69.653569 
L 307.715908 -70.006255 
L 308.512146 -70.87244 
L 309.308383 -71.981348 
L 310.104621 -72.987515 
L 310.900858 -73.586924 
L 311.697096 -73.628749 
L 312.493333 -73.169072 
L 313.289571 -72.436699 
L 314.085808 -71.728818 
L 314.882046 -71.291332 
L 315.678283 -71.239864 
L 316.474521 -71.549667 
L 317.270758 -72.10824 
L 318.066996 -72.796807 
L 318.863233 -73.554858 
L 319.659471 -74.394378 
L 320.455709 -75.3634 
L 321.251946 -76.490954 
L 322.048184 -77.749287 
L 322.844421 -79.050584 
L 323.640659 -80.270799 
L 324.436896 -81.283459 
L 325.233134 -81.988408 
L 326.029371 -82.32678 
L 326.825609 -82.280947 
L 327.621846 -81.86544 
L 328.418084 -81.116984 
L 329.214321 -80.085992 
L 330.010559 -78.830769 
L 330.806796 -77.420503 
L 331.603034 -75.952182 
L 332.399271 -74.571179 
L 333.195509 -73.469854 
L 333.991746 -72.843571 
L 334.787984 -72.813321 
L 335.584221 -73.352868 
L 336.380459 -74.264164 
L 337.176697 -75.220458 
L 337.972934 -75.862011 
L 338.769172 -75.90712 
L 339.565409 -75.23995 
L 340.361647 -73.947401 
L 341.157884 -72.291842 
L 341.954122 -70.62422 
L 342.750359 -69.267233 
L 343.546597 -68.417051 
L 344.342834 -68.106978 
L 345.139072 -68.244151 
L 345.935309 -68.689427 
L 346.731547 -69.328083 
L 347.527784 -70.091827 
L 348.324022 -70.932429 
L 349.120259 -71.781043 
L 349.916497 -72.530616 
L 350.712734 -73.055536 
L 351.508972 -73.259091 
L 352.30521 -73.130829 
L 353.101447 -72.792636 
L 353.897685 -72.504728 
L 354.693922 -72.602939 
L 355.49016 -73.369791 
L 356.286397 -74.891043 
L 357.082635 -76.975538 
L 357.878872 -79.190405 
L 358.67511 -81.003162 
L 359.471347 -81.971019 
L 360.267585 -81.903456 
L 361.063822 -80.939016 
L 361.86006 -79.503786 
L 362.656297 -78.156629 
L 363.452535 -77.372861 
L 364.248772 -77.354393 
L 365.04501 -77.951292 
L 365.841247 -78.731563 
L 366.637485 -79.16713 
L 367.433722 -78.853181 
L 368.22996 -77.669295 
L 369.026198 -75.820843 
L 369.822435 -73.750086 
L 370.618673 -71.957907 
L 371.41491 -70.809365 
L 372.211148 -70.397461 
L 373.007385 -70.512301 
L 373.803623 -70.72339 
L 374.59986 -70.545172 
L 375.396098 -69.625491 
L 376.192335 -67.882293 
L 376.988573 -65.530043 
L 377.78481 -62.98652 
L 378.581048 -60.708498 
L 379.377285 -59.032413 
L 380.173523 -58.079659 
L 380.96976 -57.748133 
L 381.765998 -57.778852 
L 382.562235 -57.867153 
L 383.358473 -57.776816 
L 384.15471 -57.415587 
L 384.950948 -56.847202 
L 385.747186 -56.242266 
L 386.543423 -55.794094 
L 387.339661 -55.636528 
L 388.135898 -55.799348 
L 388.932136 -56.223538 
L 389.728373 -56.83119 
L 390.524611 -57.610379 
L 391.320848 -58.65833 
L 392.117086 -60.14721 
L 392.913323 -62.228447 
L 393.709561 -64.932422 
L 394.505798 -68.119245 
L 395.302036 -71.501547 
L 396.098273 -74.724153 
L 396.894511 -77.46986 
L 397.690748 -79.559508 
L 398.486986 -81.014221 
L 399.283223 -82.050169 
L 400.079461 -82.995719 
L 400.875699 -84.155804 
L 401.671936 -85.678698 
L 402.468174 -87.484113 
L 403.264411 -89.286119 
L 404.060649 -90.704007 
L 404.856886 -91.418402 
L 405.653124 -91.311196 
L 406.449361 -90.532846 
L 407.245599 -89.466435 
L 408.041836 -88.597186 
L 408.838074 -88.335592 
L 409.634311 -88.866609 
L 410.430549 -90.091409 
L 411.226786 -91.686855 
L 412.023024 -93.251227 
L 412.819261 -94.464872 
L 413.615499 -95.195759 
L 413.615499 -143.419668 
L 413.615499 -143.419668 
L 412.819261 -142.399881 
L 412.023024 -140.886202 
L 411.226786 -139.028249 
L 410.430549 -137.155651 
L 409.634311 -135.665658 
L 408.838074 -134.875861 
L 408.041836 -134.899233 
L 407.245599 -135.587745 
L 406.449361 -136.567396 
L 405.653124 -137.357158 
L 404.856886 -137.532219 
L 404.060649 -136.870601 
L 403.264411 -135.423345 
L 402.468174 -133.477671 
L 401.671936 -131.428961 
L 400.875699 -129.616744 
L 400.079461 -128.192968 
L 399.283223 -127.072649 
L 398.486986 -125.980998 
L 397.690748 -124.574266 
L 396.894511 -122.586267 
L 396.098273 -119.942368 
L 395.302036 -116.793239 
L 394.505798 -113.454008 
L 393.709561 -110.280381 
L 392.913323 -107.544822 
L 392.117086 -105.370665 
L 391.320848 -103.741384 
L 390.524611 -102.558592 
L 389.728373 -101.707395 
L 388.932136 -101.103572 
L 388.135898 -100.716545 
L 387.339661 -100.565121 
L 386.543423 -100.682324 
L 385.747186 -101.060609 
L 384.950948 -101.609964 
L 384.15471 -102.162626 
L 383.358473 -102.533563 
L 382.562235 -102.612195 
L 381.765998 -102.439688 
L 380.96976 -102.228241 
L 380.173523 -102.301259 
L 379.377285 -102.9685 
L 378.581048 -104.385663 
L 377.78481 -106.464339 
L 376.988573 -108.879731 
L 376.192335 -111.177444 
L 375.396098 -112.935433 
L 374.59986 -113.918604 
L 373.803623 -114.17034 
L 373.007385 -114.005157 
L 372.211148 -113.895358 
L 371.41491 -114.284121 
L 370.618673 -115.39734 
L 369.822435 -117.139688 
L 369.026198 -119.128412 
L 368.22996 -120.854082 
L 367.433722 -121.897316 
L 366.637485 -122.10632 
L 365.841247 -121.659038 
L 365.04501 -120.984121 
L 364.248772 -120.576329 
L 363.452535 -120.786731 
L 362.656297 -121.674717 
L 361.86006 -122.978421 
L 361.063822 -124.211765 
L 360.267585 -124.850433 
L 359.471347 -124.536743 
L 358.67511 -123.221637 
L 357.878872 -121.181761 
L 357.082635 -118.903427 
L 356.286397 -116.891935 
L 355.49016 -115.497266 
L 354.693922 -114.823421 
L 353.897685 -114.736669 
L 353.101447 -114.949679 
L 352.30521 -115.143366 
L 351.508972 -115.083231 
L 350.712734 -114.68753 
L 349.916497 -114.020402 
L 349.120259 -113.220733 
L 348.324022 -112.415946 
L 347.527784 -111.676841 
L 346.731547 -111.032272 
L 345.935309 -110.515105 
L 345.139072 -110.195422 
L 344.342834 -110.17714 
L 343.546597 -110.563302 
L 342.750359 -111.408423 
L 341.954122 -112.675458 
L 341.157884 -114.213131 
L 340.361647 -115.769131 
L 339.565409 -117.047424 
L 338.769172 -117.798972 
L 337.972934 -117.912539 
L 337.176697 -117.462616 
L 336.380459 -116.688149 
L 335.584221 -115.909997 
L 334.787984 -115.42576 
L 333.991746 -115.425677 
L 333.195509 -115.954719 
L 332.399271 -116.92217 
L 331.603034 -118.147582 
L 330.806796 -119.427497 
L 330.010559 -120.600643 
L 329.214321 -121.582229 
L 328.418084 -122.350892 
L 327.621846 -122.900452 
L 326.825609 -123.19346 
L 326.029371 -123.152044 
L 325.233134 -122.693923 
L 324.436896 -121.788871 
L 323.640659 -120.498668 
L 322.844421 -118.973797 
L 322.048184 -117.405826 
L 321.251946 -115.959861 
L 320.455709 -114.723861 
L 319.659471 -113.701129 
L 318.863233 -112.844695 
L 318.066996 -112.108766 
L 317.270758 -111.48697 
L 316.474521 -111.021577 
L 315.678283 -110.783416 
L 314.882046 -110.833103 
L 314.085808 -111.177708 
L 313.289571 -111.74052 
L 312.493333 -112.360983 
L 311.697096 -112.831247 
L 310.900858 -112.960765 
L 310.104621 -112.650005 
L 309.308383 -111.948691 
L 308.512146 -111.069133 
L 307.715908 -110.331315 
L 306.919671 -110.045098 
L 306.123433 -110.37605 
L 305.327196 -111.265597 
L 304.530958 -112.45342 
L 303.73472 -113.589467 
L 302.938483 -114.369961 
L 302.142245 -114.632143 
L 301.346008 -114.38382 
L 300.54977 -113.784202 
L 299.753533 -113.099754 
L 298.957295 -112.644062 
L 298.161058 -112.704035 
L 297.36482 -113.46667 
L 296.568583 -114.971373 
L 295.772345 -117.105793 
L 294.976108 -119.64 
L 294.17987 -122.276998 
L 293.383633 -124.702598 
L 292.587395 -126.631423 
L 291.791158 -127.850219 
L 290.99492 -128.253683 
L 290.198683 -127.863821 
L 289.402445 -126.82597 
L 288.606208 -125.378798 
L 287.80997 -123.799116 
L 287.013732 -122.329126 
L 286.217495 -121.10537 
L 285.421257 -120.118222 
L 284.62502 -119.227493 
L 283.828782 -118.238251 
L 283.032545 -117.007794 
L 282.236307 -115.531897 
L 281.44007 -113.965738 
L 280.643832 -112.570682 
L 279.847595 -111.617407 
L 279.051357 -111.292339 
L 278.25512 -111.640534 
L 277.458882 -112.553688 
L 276.662645 -113.797111 
L 275.866407 -115.067268 
L 275.07017 -116.070583 
L 274.273932 -116.60507 
L 273.477695 -116.615111 
L 272.681457 -116.194997 
L 271.88522 -115.542771 
L 271.088982 -114.89304 
L 270.292744 -114.461026 
L 269.496507 -114.408948 
L 268.700269 -114.825541 
L 267.904032 -115.709272 
L 267.107794 -116.958536 
L 266.311557 -118.379556 
L 265.515319 -119.718136 
L 264.719082 -120.711212 
L 263.922844 -121.145498 
L 263.126607 -120.906013 
L 262.330369 -119.99878 
L 261.534132 -118.540919 
L 260.737894 -116.724023 
L 259.941657 -114.764433 
L 259.145419 -112.853677 
L 258.349182 -111.119534 
L 257.552944 -109.607549 
L 256.756707 -108.288796 
L 255.960469 -107.089424 
L 255.164231 -105.927423 
L 254.367994 -104.741171 
L 253.571756 -103.502839 
L 252.775519 -102.220489 
L 251.979281 -100.935078 
L 251.183044 -99.713857 
L 250.386806 -98.636384 
L 249.590569 -97.772317 
L 248.794331 -97.15884 
L 247.998094 -96.791486 
L 247.201856 -96.635857 
L 246.405619 -96.652984 
L 245.609381 -96.818626 
L 244.813144 -97.121343 
L 244.016906 -97.542811 
L 243.220669 -98.040206 
L 242.424431 -98.546907 
L 241.628194 -98.986638 
L 240.831956 -99.281937 
L 240.035719 -99.348358 
L 239.239481 -99.08923 
L 238.443243 -98.41396 
L 237.647006 -97.281566 
L 236.850768 -95.742896 
L 236.054531 -93.952275 
L 235.258293 -92.141852 
L 234.462056 -90.574383 
L 233.665818 -89.494638 
L 232.869581 -89.089236 
L 232.073343 -89.455127 
L 231.277106 -90.577133 
L 230.480868 -92.32168 
L 229.684631 -94.457398 
L 228.888393 -96.70523 
L 228.092156 -98.804616 
L 227.295918 -100.569952 
L 226.499681 -101.916368 
L 225.703443 -102.852256 
L 224.907206 -103.453614 
L 224.110968 -103.837169 
L 223.31473 -104.137109 
L 222.518493 -104.479385 
L 221.722255 -104.949978 
L 220.926018 -105.565706 
L 220.12978 -106.262493 
L 219.333543 -106.911234 
L 218.537305 -107.358963 
L 217.741068 -107.484921 
L 216.94483 -107.257324 
L 216.148593 -106.772408 
L 215.352355 -106.254645 
L 214.556118 -106.00648 
L 213.75988 -106.317696 
L 212.963643 -107.363608 
L 212.167405 -109.124231 
L 211.371168 -111.349614 
L 210.57493 -113.588835 
L 209.778693 -115.28906 
L 208.982455 -115.94669 
L 208.186218 -115.264862 
L 207.38998 -113.258649 
L 206.593742 -110.266872 
L 205.797505 -106.865039 
L 205.001267 -103.708055 
L 204.20503 -101.351688 
L 203.408792 -100.109206 
L 202.612555 -99.991383 
L 201.816317 -100.750263 
L 201.02008 -102.003855 
L 200.223842 -103.383475 
L 199.427605 -104.642012 
L 198.631367 -105.69133 
L 197.83513 -106.575354 
L 197.038892 -107.407931 
L 196.242655 -108.306589 
L 195.446417 -109.346152 
L 194.65018 -110.545095 
L 193.853942 -111.880652 
L 193.057705 -113.311543 
L 192.261467 -114.784382 
L 191.46523 -116.218281 
L 190.668992 -117.486271 
L 189.872754 -118.418033 
L 189.076517 -118.832925 
L 188.280279 -118.593193 
L 187.484042 -117.660699 
L 186.687804 -116.14163 
L 185.891567 -114.301125 
L 185.095329 -112.528516 
L 184.299092 -111.246911 
L 183.502854 -110.790086 
L 182.706617 -111.292893 
L 181.910379 -112.641728 
L 181.114142 -114.506222 
L 180.317904 -116.438353 
L 179.521667 -118.001729 
L 178.725429 -118.890557 
L 177.929192 -119.007408 
L 177.132954 -118.480306 
L 176.336717 -117.611805 
L 175.540479 -116.772219 
L 174.744241 -116.271535 
L 173.948004 -116.259484 
L 173.151766 -116.697137 
L 172.355529 -117.408869 
L 171.559291 -118.178728 
L 170.763054 -118.836008 
L 169.966816 -119.29342 
L 169.170579 -119.536487 
L 168.374341 -119.584232 
L 167.578104 -119.443263 
L 166.781866 -119.075206 
L 165.985629 -118.398372 
L 165.189391 -117.335274 
L 164.393154 -115.88925 
L 163.596916 -114.205386 
L 162.800679 -112.57232 
L 162.004441 -111.355343 
L 161.208204 -110.886827 
L 160.411966 -111.352901 
L 159.615729 -112.710952 
L 158.819491 -114.667048 
L 158.023253 -116.732967 
L 157.227016 -118.360399 
L 156.430778 -119.116838 
L 155.634541 -118.838646 
L 154.838303 -117.69403 
L 154.042066 -116.122396 
L 153.245828 -114.671332 
L 152.449591 -113.796759 
L 151.653353 -113.702065 
L 150.857116 -114.269402 
L 150.060878 -115.101893 
L 149.264641 -115.665584 
L 148.468403 -115.492261 
L 147.672166 -114.371638 
L 146.875928 -112.44631 
L 146.079691 -110.156677 
L 145.283453 -108.060506 
L 144.487216 -106.623128 
L 143.690978 -106.078771 
L 142.89474 -106.399436 
L 142.098503 -107.343736 
L 141.302265 -108.547907 
L 140.506028 -109.64115 
L 139.70979 -110.364075 
L 138.913553 -110.640146 
L 138.117315 -110.553558 
L 137.321078 -110.243721 
L 136.52484 -109.789051 
L 135.728603 -109.159236 
L 134.932365 -108.258553 
L 134.136128 -107.019127 
L 133.33989 -105.485789 
L 132.543653 -103.853431 
L 131.747415 -102.436881 
L 130.951178 -101.570405 
L 130.15494 -101.4669 
L 129.358703 -102.103407 
L 128.562465 -103.200812 
L 127.766228 -104.318008 
L 126.96999 -105.019388 
L 126.173752 -105.044349 
L 125.377515 -104.415886 
L 124.581277 -103.449092 
L 123.78504 -102.645841 
L 122.988802 -102.49967 
L 122.192565 -103.283423 
L 121.396327 -104.916586 
L 120.60009 -106.979687 
L 119.803852 -108.873631 
L 119.007615 -110.056257 
L 118.211377 -110.257817 
L 117.41514 -109.58476 
L 116.618902 -108.462794 
L 115.822665 -107.439912 
L 115.026427 -106.94163 
L 114.23019 -107.097161 
L 113.433952 -107.712512 
L 112.637715 -108.3876 
L 111.841477 -108.714538 
L 111.04524 -108.474341 
L 110.249002 -107.754032 
L 109.452764 -106.928219 
L 108.656527 -106.499646 
L 107.860289 -106.867191 
L 107.064052 -108.136262 
L 106.267814 -110.061132 
L 105.471577 -112.133181 
L 104.675339 -113.765247 
L 103.879102 -114.500597 
L 103.082864 -114.179591 
L 102.286627 -113.004111 
L 101.490389 -111.460669 
L 100.694152 -110.121887 
L 99.897914 -109.415793 
L 99.101677 -109.477312 
L 98.305439 -110.145762 
L 97.509202 -111.085703 
L 96.712964 -111.954606 
L 95.916727 -112.540866 
L 95.120489 -112.826217 
L 94.324251 -112.959718 
L 93.528014 -113.161898 
L 92.731776 -113.603323 
L 91.935539 -114.309872 
L 91.139301 -115.13367 
L 90.343064 -115.807582 
L 89.546826 -116.07466 
L 88.750589 -115.838473 
L 87.954351 -115.24639 
L 87.158114 -114.644395 
L 86.361876 -114.418655 
L 85.565639 -114.809949 
L 84.769401 -115.806596 
L 83.973164 -117.168762 
L 83.176926 -118.553242 
L 82.380689 -119.664543 
L 81.584451 -120.372277 
L 80.788214 -120.765427 
L 79.991976 -121.123546 
L 79.195739 -121.79676 
L 78.399501 -123.027219 
L 77.603263 -124.794393 
L 76.807026 -126.776204 
L 76.010788 -128.459505 
L 75.214551 -129.343108 
L 74.418313 -129.12588 
L 73.622076 -127.800957 
L 72.825838 -125.649358 
L 72.029601 -123.16536 
L 71.233363 -120.931897 
L 70.437126 -119.463415 
L 69.640888 -119.058814 
L 68.844651 -119.714066 
L 68.048413 -121.130713 
L 67.252176 -122.827417 
L 66.455938 -124.312383 
L 65.659701 -125.235466 
L 64.863463 -125.461298 
L 64.067226 -125.056996 
L 63.270988 -124.218736 
L 62.47475 -123.171139 
L 61.678513 -122.08687 
L 60.882275 -121.070869 
L 60.086038 -120.209516 
L 59.2898 -119.626401 
L 58.493563 -119.477889 
L 57.697325 -119.87036 
L 56.901088 -120.762131 
L 56.10485 -121.95124 
L 55.308613 -123.168304 
L 54.512375 -124.193962 
L 53.716138 -124.924665 
L 52.9199 -125.369329 
L 52.123663 -125.613361 
L 51.327425 -125.798642 
L 50.531188 -126.118865 
L 49.73495 -126.78634 
L 48.938713 -127.949619 
L 48.142475 -129.602934 
L 47.346238 -131.561724 
L 46.55 -133.532069 
z
" style="stroke: #377eb8; stroke-opacity: 0.3"/>
    </defs>
    <g clip-path="url(#pe918dffda6)">
     <use xlink:href="#mb0babceb36" x="0" y="360" style="fill: #377eb8; fill-opacity: 0.3; stroke: #377eb8; stroke-opacity: 0.3"/>
    </g>
   </g>
   <g id="patch_3">
    <path d="M 229.843878 318.2 
L 229.843878 71.241125 
L 331.762281 71.241125 
L 331.762281 318.2 
z
" clip-path="url(#pe918dffda6)" style="fill: #808080; opacity: 0.3"/>
   </g>
   <g id="matplotlib.axis_1">
    <g id="xtick_1">
     <g id="line2d_1">
      <defs>
       <path id="mf5af9dd1bf" d="M 0 0 
L 0 3.5 
" style="stroke: #000000; stroke-width: 0.8"/>
      </defs>
      <g>
       <use xlink:href="#mf5af9dd1bf" x="87.158114" y="318.2" style="stroke: #000000; stroke-width: 0.8"/>
      </g>
     </g>
     <g id="text_1">
      <!-- 0.0 -->
      <g transform="translate(79.206551 332.798437)scale(0.1 -0.1)">
       <defs>
        <path id="DejaVuSans-30" d="M 2034 4250 
Q 1547 4250 1301 3770 
Q 1056 3291 1056 2328 
Q 1056 1369 1301 889 
Q 1547 409 2034 409 
Q 2525 409 2770 889 
Q 3016 1369 3016 2328 
Q 3016 3291 2770 3770 
Q 2525 4250 2034 4250 
z
M 2034 4750 
Q 2819 4750 3233 4129 
Q 3647 3509 3647 2328 
Q 3647 1150 3233 529 
Q 2819 -91 2034 -91 
Q 1250 -91 836 529 
Q 422 1150 422 2328 
Q 422 3509 836 4129 
Q 1250 4750 2034 4750 
z
" transform="scale(0.015625)"/>
        <path id="DejaVuSans-2e" d="M 684 794 
L 1344 794 
L 1344 0 
L 684 0 
L 684 794 
z
" transform="scale(0.015625)"/>
       </defs>
       <use xlink:href="#DejaVuSans-30"/>
       <use xlink:href="#DejaVuSans-2e" x="63.623047"/>
       <use xlink:href="#DejaVuSans-30" x="95.410156"/>
      </g>
     </g>
    </g>
    <g id="xtick_2">
     <g id="line2d_2">
      <g>
       <use xlink:href="#mf5af9dd1bf" x="168.692836" y="318.2" style="stroke: #000000; stroke-width: 0.8"/>
      </g>
     </g>
     <g id="text_2">
      <!-- 0.2 -->
      <g transform="translate(160.741274 332.798437)scale(0.1 -0.1)">
       <defs>
        <path id="DejaVuSans-32" d="M 1228 531 
L 3431 531 
L 3431 0 
L 469 0 
L 469 531 
Q 828 903 1448 1529 
Q 2069 2156 2228 2338 
Q 2531 2678 2651 2914 
Q 2772 3150 2772 3378 
Q 2772 3750 2511 3984 
Q 2250 4219 1831 4219 
Q 1534 4219 1204 4116 
Q 875 4013 500 3803 
L 500 4441 
Q 881 4594 1212 4672 
Q 1544 4750 1819 4750 
Q 2544 4750 2975 4387 
Q 3406 4025 3406 3419 
Q 3406 3131 3298 2873 
Q 3191 2616 2906 2266 
Q 2828 2175 2409 1742 
Q 1991 1309 1228 531 
z
" transform="scale(0.015625)"/>
       </defs>
       <use xlink:href="#DejaVuSans-30"/>
       <use xlink:href="#DejaVuSans-2e" x="63.623047"/>
       <use xlink:href="#DejaVuSans-32" x="95.410156"/>
      </g>
     </g>
    </g>
    <g id="xtick_3">
     <g id="line2d_3">
      <g>
       <use xlink:href="#mf5af9dd1bf" x="250.227559" y="318.2" style="stroke: #000000; stroke-width: 0.8"/>
      </g>
     </g>
     <g id="text_3">
      <!-- 0.4 -->
      <g transform="translate(242.275996 332.798437)scale(0.1 -0.1)">
       <defs>
        <path id="DejaVuSans-34" d="M 2419 4116 
L 825 1625 
L 2419 1625 
L 2419 4116 
z
M 2253 4666 
L 3047 4666 
L 3047 1625 
L 3713 1625 
L 3713 1100 
L 3047 1100 
L 3047 0 
L 2419 0 
L 2419 1100 
L 313 1100 
L 313 1709 
L 2253 4666 
z
" transform="scale(0.015625)"/>
       </defs>
       <use xlink:href="#DejaVuSans-30"/>
       <use xlink:href="#DejaVuSans-2e" x="63.623047"/>
       <use xlink:href="#DejaVuSans-34" x="95.410156"/>
      </g>
     </g>
    </g>
    <g id="xtick_4">
     <g id="line2d_4">
      <g>
       <use xlink:href="#mf5af9dd1bf" x="331.762281" y="318.2" style="stroke: #000000; stroke-width: 0.8"/>
      </g>
     </g>
     <g id="text_4">
      <!-- 0.6 -->
      <g transform="translate(323.810719 332.798437)scale(0.1 -0.1)">
       <defs>
        <path id="DejaVuSans-36" d="M 2113 2584 
Q 1688 2584 1439 2293 
Q 1191 2003 1191 1497 
Q 1191 994 1439 701 
Q 1688 409 2113 409 
Q 2538 409 2786 701 
Q 3034 994 3034 1497 
Q 3034 2003 2786 2293 
Q 2538 2584 2113 2584 
z
M 3366 4563 
L 3366 3988 
Q 3128 4100 2886 4159 
Q 2644 4219 2406 4219 
Q 1781 4219 1451 3797 
Q 1122 3375 1075 2522 
Q 1259 2794 1537 2939 
Q 1816 3084 2150 3084 
Q 2853 3084 3261 2657 
Q 3669 2231 3669 1497 
Q 3669 778 3244 343 
Q 2819 -91 2113 -91 
Q 1303 -91 875 529 
Q 447 1150 447 2328 
Q 447 3434 972 4092 
Q 1497 4750 2381 4750 
Q 2619 4750 2861 4703 
Q 3103 4656 3366 4563 
z
" transform="scale(0.015625)"/>
       </defs>
       <use xlink:href="#DejaVuSans-30"/>
       <use xlink:href="#DejaVuSans-2e" x="63.623047"/>
       <use xlink:href="#DejaVuSans-36" x="95.410156"/>
      </g>
     </g>
    </g>
    <g id="xtick_5">
     <g id="line2d_5">
      <g>
       <use xlink:href="#mf5af9dd1bf" x="413.297004" y="318.2" style="stroke: #000000; stroke-width: 0.8"/>
      </g>
     </g>
     <g id="text_5">
      <!-- 0.8 -->
      <g transform="translate(405.345441 332.798437)scale(0.1 -0.1)">
       <defs>
        <path id="DejaVuSans-38" d="M 2034 2216 
Q 1584 2216 1326 1975 
Q 1069 1734 1069 1313 
Q 1069 891 1326 650 
Q 1584 409 2034 409 
Q 2484 409 2743 651 
Q 3003 894 3003 1313 
Q 3003 1734 2745 1975 
Q 2488 2216 2034 2216 
z
M 1403 2484 
Q 997 2584 770 2862 
Q 544 3141 544 3541 
Q 544 4100 942 4425 
Q 1341 4750 2034 4750 
Q 2731 4750 3128 4425 
Q 3525 4100 3525 3541 
Q 3525 3141 3298 2862 
Q 3072 2584 2669 2484 
Q 3125 2378 3379 2068 
Q 3634 1759 3634 1313 
Q 3634 634 3220 271 
Q 2806 -91 2034 -91 
Q 1263 -91 848 271 
Q 434 634 434 1313 
Q 434 1759 690 2068 
Q 947 2378 1403 2484 
z
M 1172 3481 
Q 1172 3119 1398 2916 
Q 1625 2713 2034 2713 
Q 2441 2713 2670 2916 
Q 2900 3119 2900 3481 
Q 2900 3844 2670 4047 
Q 2441 4250 2034 4250 
Q 1625 4250 1398 4047 
Q 1172 3844 1172 3481 
z
" transform="scale(0.015625)"/>
       </defs>
       <use xlink:href="#DejaVuSans-30"/>
       <use xlink:href="#DejaVuSans-2e" x="63.623047"/>
       <use xlink:href="#DejaVuSans-38" x="95.410156"/>
      </g>
     </g>
    </g>
    <g id="text_6">
     <!-- seconds -->
     <g transform="translate(209.645249 346.476562)scale(0.1 -0.1)">
      <defs>
       <path id="DejaVuSans-73" d="M 2834 3397 
L 2834 2853 
Q 2591 2978 2328 3040 
Q 2066 3103 1784 3103 
Q 1356 3103 1142 2972 
Q 928 2841 928 2578 
Q 928 2378 1081 2264 
Q 1234 2150 1697 2047 
L 1894 2003 
Q 2506 1872 2764 1633 
Q 3022 1394 3022 966 
Q 3022 478 2636 193 
Q 2250 -91 1575 -91 
Q 1294 -91 989 -36 
Q 684 19 347 128 
L 347 722 
Q 666 556 975 473 
Q 1284 391 1588 391 
Q 1994 391 2212 530 
Q 2431 669 2431 922 
Q 2431 1156 2273 1281 
Q 2116 1406 1581 1522 
L 1381 1569 
Q 847 1681 609 1914 
Q 372 2147 372 2553 
Q 372 3047 722 3315 
Q 1072 3584 1716 3584 
Q 2034 3584 2315 3537 
Q 2597 3491 2834 3397 
z
" transform="scale(0.015625)"/>
       <path id="DejaVuSans-65" d="M 3597 1894 
L 3597 1613 
L 953 1613 
Q 991 1019 1311 708 
Q 1631 397 2203 397 
Q 2534 397 2845 478 
Q 3156 559 3463 722 
L 3463 178 
Q 3153 47 2828 -22 
Q 2503 -91 2169 -91 
Q 1331 -91 842 396 
Q 353 884 353 1716 
Q 353 2575 817 3079 
Q 1281 3584 2069 3584 
Q 2775 3584 3186 3129 
Q 3597 2675 3597 1894 
z
M 3022 2063 
Q 3016 2534 2758 2815 
Q 2500 3097 2075 3097 
Q 1594 3097 1305 2825 
Q 1016 2553 972 2059 
L 3022 2063 
z
" transform="scale(0.015625)"/>
       <path id="DejaVuSans-63" d="M 3122 3366 
L 3122 2828 
Q 2878 2963 2633 3030 
Q 2388 3097 2138 3097 
Q 1578 3097 1268 2742 
Q 959 2388 959 1747 
Q 959 1106 1268 751 
Q 1578 397 2138 397 
Q 2388 397 2633 464 
Q 2878 531 3122 666 
L 3122 134 
Q 2881 22 2623 -34 
Q 2366 -91 2075 -91 
Q 1284 -91 818 406 
Q 353 903 353 1747 
Q 353 2603 823 3093 
Q 1294 3584 2113 3584 
Q 2378 3584 2631 3529 
Q 2884 3475 3122 3366 
z
" transform="scale(0.015625)"/>
       <path id="DejaVuSans-6f" d="M 1959 3097 
Q 1497 3097 1228 2736 
Q 959 2375 959 1747 
Q 959 1119 1226 758 
Q 1494 397 1959 397 
Q 2419 397 2687 759 
Q 2956 1122 2956 1747 
Q 2956 2369 2687 2733 
Q 2419 3097 1959 3097 
z
M 1959 3584 
Q 2709 3584 3137 3096 
Q 3566 2609 3566 1747 
Q 3566 888 3137 398 
Q 2709 -91 1959 -91 
Q 1206 -91 779 398 
Q 353 888 353 1747 
Q 353 2609 779 3096 
Q 1206 3584 1959 3584 
z
" transform="scale(0.015625)"/>
       <path id="DejaVuSans-6e" d="M 3513 2113 
L 3513 0 
L 2938 0 
L 2938 2094 
Q 2938 2591 2744 2837 
Q 2550 3084 2163 3084 
Q 1697 3084 1428 2787 
Q 1159 2491 1159 1978 
L 1159 0 
L 581 0 
L 581 3500 
L 1159 3500 
L 1159 2956 
Q 1366 3272 1645 3428 
Q 1925 3584 2291 3584 
Q 2894 3584 3203 3211 
Q 3513 2838 3513 2113 
z
" transform="scale(0.015625)"/>
       <path id="DejaVuSans-64" d="M 2906 2969 
L 2906 4863 
L 3481 4863 
L 3481 0 
L 2906 0 
L 2906 525 
Q 2725 213 2448 61 
Q 2172 -91 1784 -91 
Q 1150 -91 751 415 
Q 353 922 353 1747 
Q 353 2572 751 3078 
Q 1150 3584 1784 3584 
Q 2172 3584 2448 3432 
Q 2725 3281 2906 2969 
z
M 947 1747 
Q 947 1113 1208 752 
Q 1469 391 1925 391 
Q 2381 391 2643 752 
Q 2906 1113 2906 1747 
Q 2906 2381 2643 2742 
Q 2381 3103 1925 3103 
Q 1469 3103 1208 2742 
Q 947 2381 947 1747 
z
" transform="scale(0.015625)"/>
      </defs>
      <use xlink:href="#DejaVuSans-73"/>
      <use xlink:href="#DejaVuSans-65" x="52.099609"/>
      <use xlink:href="#DejaVuSans-63" x="113.623047"/>
      <use xlink:href="#DejaVuSans-6f" x="168.603516"/>
      <use xlink:href="#DejaVuSans-6e" x="229.785156"/>
      <use xlink:href="#DejaVuSans-64" x="293.164062"/>
      <use xlink:href="#DejaVuSans-73" x="356.640625"/>
     </g>
    </g>
   </g>
   <g id="matplotlib.axis_2">
    <g id="ytick_1">
     <g id="line2d_6">
      <defs>
       <path id="m42afa12634" d="M 0 0 
L -3.5 0 
" style="stroke: #000000; stroke-width: 0.8"/>
      </defs>
      <g>
       <use xlink:href="#m42afa12634" x="46.55" y="309.89002" style="stroke: #000000; stroke-width: 0.8"/>
      </g>
     </g>
     <g id="text_7">
      <!-- 2 -->
      <g transform="translate(24.807812 313.689239)scale(0.1 -0.1)">
       <defs>
        <path id="DejaVuSans-2212" d="M 678 2272 
L 4684 2272 
L 4684 1741 
L 678 1741 
L 678 2272 
z
" transform="scale(0.015625)"/>
       </defs>
       <use xlink:href="#DejaVuSans-2212"/>
       <use xlink:href="#DejaVuSans-32" x="83.789062"/>
      </g>
     </g>
    </g>
    <g id="ytick_2">
     <g id="line2d_7">
      <g>
       <use xlink:href="#m42afa12634" x="46.55" y="277.674671" style="stroke: #000000; stroke-width: 0.8"/>
      </g>
     </g>
     <g id="text_8">
      <!-- 1 -->
      <g transform="translate(24.807812 281.47389)scale(0.1 -0.1)">
       <defs>
        <path id="DejaVuSans-31" d="M 794 531 
L 1825 531 
L 1825 4091 
L 703 3866 
L 703 4441 
L 1819 4666 
L 2450 4666 
L 2450 531 
L 3481 531 
L 3481 0 
L 794 0 
L 794 531 
z
" transform="scale(0.015625)"/>
       </defs>
       <use xlink:href="#DejaVuSans-2212"/>
       <use xlink:href="#DejaVuSans-31" x="83.789062"/>
      </g>
     </g>
    </g>
    <g id="ytick_3">
     <g id="line2d_8">
      <g>
       <use xlink:href="#m42afa12634" x="46.55" y="245.459322" style="stroke: #000000; stroke-width: 0.8"/>
      </g>
     </g>
     <g id="text_9">
      <!-- 0 -->
      <g transform="translate(33.1875 249.25854)scale(0.1 -0.1)">
       <use xlink:href="#DejaVuSans-30"/>
      </g>
     </g>
    </g>
    <g id="ytick_4">
     <g id="line2d_9">
      <g>
       <use xlink:href="#m42afa12634" x="46.55" y="213.243972" style="stroke: #000000; stroke-width: 0.8"/>
      </g>
     </g>
     <g id="text_10">
      <!-- 1 -->
      <g transform="translate(33.1875 217.043191)scale(0.1 -0.1)">
       <use xlink:href="#DejaVuSans-31"/>
      </g>
     </g>
    </g>
    <g id="ytick_5">
     <g id="line2d_10">
      <g>
       <use xlink:href="#m42afa12634" x="46.55" y="181.028623" style="stroke: #000000; stroke-width: 0.8"/>
      </g>
     </g>
     <g id="text_11">
      <!-- 2 -->
      <g transform="translate(33.1875 184.827842)scale(0.1 -0.1)">
       <use xlink:href="#DejaVuSans-32"/>
      </g>
     </g>
    </g>
    <g id="ytick_6">
     <g id="line2d_11">
      <g>
       <use xlink:href="#m42afa12634" x="46.55" y="148.813274" style="stroke: #000000; stroke-width: 0.8"/>
      </g>
     </g>
     <g id="text_12">
      <!-- 3 -->
      <g transform="translate(33.1875 152.612493)scale(0.1 -0.1)">
       <defs>
        <path id="DejaVuSans-33" d="M 2597 2516 
Q 3050 2419 3304 2112 
Q 3559 1806 3559 1356 
Q 3559 666 3084 287 
Q 2609 -91 1734 -91 
Q 1441 -91 1130 -33 
Q 819 25 488 141 
L 488 750 
Q 750 597 1062 519 
Q 1375 441 1716 441 
Q 2309 441 2620 675 
Q 2931 909 2931 1356 
Q 2931 1769 2642 2001 
Q 2353 2234 1838 2234 
L 1294 2234 
L 1294 2753 
L 1863 2753 
Q 2328 2753 2575 2939 
Q 2822 3125 2822 3475 
Q 2822 3834 2567 4026 
Q 2313 4219 1838 4219 
Q 1578 4219 1281 4162 
Q 984 4106 628 3988 
L 628 4550 
Q 988 4650 1302 4700 
Q 1616 4750 1894 4750 
Q 2613 4750 3031 4423 
Q 3450 4097 3450 3541 
Q 3450 3153 3228 2886 
Q 3006 2619 2597 2516 
z
" transform="scale(0.015625)"/>
       </defs>
       <use xlink:href="#DejaVuSans-33"/>
      </g>
     </g>
    </g>
    <g id="ytick_7">
     <g id="line2d_12">
      <g>
       <use xlink:href="#m42afa12634" x="46.55" y="116.597925" style="stroke: #000000; stroke-width: 0.8"/>
      </g>
     </g>
     <g id="text_13">
      <!-- 4 -->
      <g transform="translate(33.1875 120.397143)scale(0.1 -0.1)">
       <use xlink:href="#DejaVuSans-34"/>
      </g>
     </g>
    </g>
    <g id="ytick_8">
     <g id="line2d_13">
      <g>
       <use xlink:href="#m42afa12634" x="46.55" y="84.382575" style="stroke: #000000; stroke-width: 0.8"/>
      </g>
     </g>
     <g id="text_14">
      <!-- 5 -->
      <g transform="translate(33.1875 88.181794)scale(0.1 -0.1)">
       <defs>
        <path id="DejaVuSans-35" d="M 691 4666 
L 3169 4666 
L 3169 4134 
L 1269 4134 
L 1269 2991 
Q 1406 3038 1543 3061 
Q 1681 3084 1819 3084 
Q 2600 3084 3056 2656 
Q 3513 2228 3513 1497 
Q 3513 744 3044 326 
Q 2575 -91 1722 -91 
Q 1428 -91 1123 -41 
Q 819 9 494 109 
L 494 744 
Q 775 591 1075 516 
Q 1375 441 1709 441 
Q 2250 441 2565 725 
Q 2881 1009 2881 1497 
Q 2881 1984 2565 2268 
Q 2250 2553 1709 2553 
Q 1456 2553 1204 2497 
Q 953 2441 691 2322 
L 691 4666 
z
" transform="scale(0.015625)"/>
       </defs>
       <use xlink:href="#DejaVuSans-35"/>
      </g>
     </g>
    </g>
    <g id="text_15">
     <!-- V -->
     <g transform="translate(18.728125 201.322125)rotate(-90)scale(0.1 -0.1)">
      <defs>
       <path id="DejaVuSans-b5" d="M 544 -1331 
L 544 3500 
L 1119 3500 
L 1119 1325 
Q 1119 872 1334 640 
Q 1550 409 1972 409 
Q 2434 409 2667 671 
Q 2900 934 2900 1459 
L 2900 3500 
L 3475 3500 
L 3475 806 
Q 3475 619 3529 530 
Q 3584 441 3700 441 
Q 3728 441 3778 458 
Q 3828 475 3916 513 
L 3916 50 
Q 3788 -22 3673 -56 
Q 3559 -91 3450 -91 
Q 3234 -91 3106 31 
Q 2978 153 2931 403 
Q 2775 156 2548 32 
Q 2322 -91 2016 -91 
Q 1697 -91 1473 31 
Q 1250 153 1119 397 
L 1119 -1331 
L 544 -1331 
z
" transform="scale(0.015625)"/>
       <path id="DejaVuSans-56" d="M 1831 0 
L 50 4666 
L 709 4666 
L 2188 738 
L 3669 4666 
L 4325 4666 
L 2547 0 
L 1831 0 
z
" transform="scale(0.015625)"/>
      </defs>
      <use xlink:href="#DejaVuSans-b5"/>
      <use xlink:href="#DejaVuSans-56" x="63.623047"/>
     </g>
    </g>
   </g>
   <g id="line2d_14">
    <path d="M 46.55 229.788208 
L 48.142475 236.657918 
L 48.938713 239.585645 
L 49.73495 241.833901 
L 50.531188 243.108319 
L 51.327425 243.256013 
L 52.123663 242.403868 
L 53.716138 239.733254 
L 54.512375 239.296869 
L 55.308613 240.160456 
L 56.10485 242.367988 
L 58.493563 251.517274 
L 59.2898 253.049841 
L 60.086038 253.298138 
L 60.882275 252.606327 
L 61.678513 251.612607 
L 62.47475 250.969676 
L 63.270988 251.069935 
L 64.067226 251.890994 
L 64.863463 253.025184 
L 65.659701 253.877876 
L 66.455938 253.94605 
L 67.252176 253.054297 
L 69.640888 248.440868 
L 70.437126 248.170691 
L 71.233363 248.959516 
L 72.825838 252.043556 
L 73.622076 253.020457 
L 74.418313 252.919988 
L 75.214551 251.636146 
L 76.010788 249.435433 
L 77.603263 244.311893 
L 78.399501 242.277295 
L 79.195739 240.828668 
L 79.991976 239.866665 
L 80.788214 239.204596 
L 81.584451 238.709764 
L 82.380689 238.384793 
L 83.176926 238.347938 
L 83.973164 238.727053 
L 84.769401 239.529371 
L 86.361876 241.47293 
L 87.158114 241.853293 
L 87.954351 241.449629 
L 88.750589 240.29598 
L 90.343064 237.387999 
L 91.139301 236.781731 
L 91.935539 237.2663 
L 92.731776 238.776662 
L 94.324251 242.740965 
L 95.120489 243.774487 
L 95.916727 243.531875 
L 96.712964 242.063703 
L 98.305439 237.782717 
L 99.101677 236.57871 
L 99.897914 236.807915 
L 100.694152 238.557687 
L 103.082864 247.570754 
L 103.879102 249.261751 
L 104.675339 249.393992 
L 105.471577 247.937204 
L 106.267814 245.1914 
L 108.656527 234.529411 
L 109.452764 231.811297 
L 110.249002 229.996392 
L 111.04524 229.133824 
L 111.841477 229.141416 
L 112.637715 229.845348 
L 113.433952 231.024546 
L 119.803852 242.363891 
L 120.60009 243.659222 
L 121.396327 244.695292 
L 122.192565 245.34982 
L 122.988802 245.591711 
L 124.581277 245.391373 
L 125.377515 245.510189 
L 126.173752 246.193863 
L 126.96999 247.644474 
L 127.766228 249.881071 
L 130.951178 261.349168 
L 131.747415 263.299527 
L 132.543653 264.734173 
L 134.136128 267.176627 
L 134.932365 268.807686 
L 136.52484 273.271383 
L 137.321078 275.518296 
L 138.117315 277.090125 
L 138.913553 277.47577 
L 139.70979 276.3713 
L 140.506028 273.792533 
L 141.302265 270.087159 
L 142.89474 261.708676 
L 143.690978 258.228877 
L 144.487216 255.681896 
L 145.283453 254.038606 
L 147.672166 251.056546 
L 148.468403 249.409662 
L 149.264641 247.105301 
L 150.857116 240.948668 
L 152.449591 234.321527 
L 153.245828 231.452437 
L 154.042066 229.126759 
L 154.838303 227.445754 
L 155.634541 226.420122 
L 156.430778 225.948334 
L 158.023253 225.693303 
L 158.819491 225.263665 
L 159.615729 224.261571 
L 160.411966 222.595021 
L 162.004441 217.932623 
L 162.800679 215.608999 
L 163.596916 213.70603 
L 164.393154 212.312675 
L 165.985629 210.280292 
L 166.781866 209.008297 
L 169.170579 203.930302 
L 169.966816 203.356942 
L 170.763054 204.286182 
L 171.559291 206.847274 
L 173.948004 217.764667 
L 174.744241 218.894059 
L 175.540479 217.482192 
L 176.336717 213.700096 
L 178.725429 198.42437 
L 179.521667 195.747619 
L 180.317904 194.933096 
L 181.910379 195.831699 
L 182.706617 195.375459 
L 183.502854 193.305018 
L 184.299092 189.646705 
L 185.891567 180.663414 
L 186.687804 177.432124 
L 187.484042 176.023637 
L 188.280279 176.48557 
L 189.076517 178.323971 
L 190.668992 183.048393 
L 191.46523 184.78688 
L 192.261467 185.980318 
L 193.057705 186.962072 
L 193.853942 188.16176 
L 194.65018 189.85801 
L 197.038892 196.444618 
L 197.83513 197.888603 
L 198.631367 198.580129 
L 199.427605 198.659031 
L 201.02008 198.111305 
L 201.816317 197.79762 
L 202.612555 197.286937 
L 203.408792 196.244663 
L 204.20503 194.398346 
L 205.001267 191.751332 
L 206.593742 185.917116 
L 207.38998 184.208494 
L 208.186218 184.107244 
L 208.982455 185.662638 
L 210.57493 191.1912 
L 211.371168 193.106684 
L 212.167405 193.26142 
L 212.963643 191.377779 
L 213.75988 187.82707 
L 215.352355 179.422586 
L 216.148593 176.509201 
L 216.94483 175.154346 
L 217.741068 175.206814 
L 219.333543 177.036522 
L 220.12978 177.467695 
L 220.926018 177.124148 
L 221.722255 176.145387 
L 222.518493 174.934372 
L 223.31473 173.932328 
L 224.110968 173.403868 
L 224.907206 173.328532 
L 225.703443 173.440294 
L 226.499681 173.387217 
L 227.295918 172.929986 
L 229.684631 170.5145 
L 230.480868 170.618809 
L 231.277106 171.598846 
L 232.073343 173.285461 
L 233.665818 176.968649 
L 234.462056 178.09016 
L 235.258293 178.568056 
L 236.054531 178.710531 
L 236.850768 179.044902 
L 237.647006 180.073684 
L 238.443243 182.020791 
L 240.035719 187.435207 
L 240.831956 189.463125 
L 241.628194 190.026581 
L 242.424431 188.755403 
L 243.220669 185.790617 
L 245.609381 173.654727 
L 246.405619 170.848423 
L 247.201856 169.009622 
L 248.794331 166.56784 
L 249.590569 165.022751 
L 251.979281 159.101951 
L 252.775519 158.186764 
L 253.571756 158.397976 
L 254.367994 159.580208 
L 255.164231 161.186872 
L 255.960469 162.461919 
L 256.756707 162.713561 
L 257.552944 161.570279 
L 258.349182 159.117699 
L 259.941657 152.547854 
L 260.737894 149.86934 
L 261.534132 148.237668 
L 262.330369 147.636072 
L 263.922844 147.590488 
L 264.719082 146.807917 
L 265.515319 144.841253 
L 266.311557 141.596384 
L 267.904032 132.668023 
L 268.700269 128.191291 
L 269.496507 124.491853 
L 270.292744 121.914008 
L 271.088982 120.517416 
L 271.88522 120.09928 
L 272.681457 120.281334 
L 273.477695 120.629123 
L 274.273932 120.768379 
L 275.07017 120.471349 
L 275.866407 119.697973 
L 278.25512 116.496142 
L 279.051357 116.126009 
L 279.847595 116.478691 
L 280.643832 117.566493 
L 281.44007 119.230566 
L 283.032545 123.0803 
L 283.828782 124.633389 
L 284.62502 125.676125 
L 285.421257 126.211813 
L 286.217495 126.394666 
L 287.80997 126.633384 
L 288.606208 127.039551 
L 290.198683 128.420546 
L 291.791158 129.691245 
L 293.383633 130.575664 
L 294.17987 131.253504 
L 294.976108 132.367219 
L 295.772345 134.021581 
L 297.36482 138.599329 
L 298.957295 143.156502 
L 299.753533 144.767315 
L 300.54977 145.763808 
L 301.346008 146.16581 
L 302.142245 146.073191 
L 302.938483 145.622376 
L 305.327196 143.634484 
L 306.123433 143.334173 
L 306.919671 143.515494 
L 307.715908 144.284297 
L 308.512146 145.613614 
L 310.900858 150.545077 
L 311.697096 151.512881 
L 312.493333 151.983355 
L 313.289571 152.226027 
L 314.085808 152.686991 
L 314.882046 153.806031 
L 315.678283 155.806338 
L 318.066996 163.995595 
L 318.863233 165.320003 
L 319.659471 165.185691 
L 320.455709 163.823345 
L 321.251946 161.986948 
L 322.048184 160.729802 
L 322.844421 161.040483 
L 323.640659 163.471287 
L 324.436896 167.902221 
L 326.029371 179.139512 
L 326.825609 183.438285 
L 327.621846 185.540289 
L 328.418084 185.21755 
L 329.214321 182.959299 
L 330.806796 176.872545 
L 331.603034 175.206599 
L 332.399271 175.26461 
L 333.195509 176.94734 
L 335.584221 185.323574 
L 336.380459 187.068766 
L 337.176697 187.86243 
L 337.972934 187.888977 
L 338.769172 187.463681 
L 340.361647 186.350953 
L 341.157884 185.957727 
L 341.954122 185.763708 
L 342.750359 185.859038 
L 343.546597 186.393282 
L 344.342834 187.536148 
L 345.139072 189.388741 
L 345.935309 191.894494 
L 348.324022 200.276497 
L 349.120259 202.185381 
L 349.916497 203.461175 
L 351.508972 205.375584 
L 352.30521 206.897384 
L 353.101447 209.195913 
L 354.693922 215.671019 
L 355.49016 219.034755 
L 356.286397 221.864452 
L 357.082635 223.90058 
L 357.878872 225.154822 
L 358.67511 225.863042 
L 361.86006 227.678554 
L 362.656297 227.596474 
L 363.452535 226.877599 
L 364.248772 225.544481 
L 365.841247 222.467301 
L 366.637485 221.783846 
L 367.433722 222.213925 
L 368.22996 223.777421 
L 370.618673 230.540365 
L 371.41491 231.391389 
L 372.211148 230.946513 
L 373.007385 229.363419 
L 375.396098 222.530231 
L 376.192335 220.989018 
L 376.988573 220.034283 
L 378.581048 219.063253 
L 379.377285 218.526643 
L 380.173523 217.714055 
L 380.96976 216.572429 
L 381.765998 215.127037 
L 383.358473 211.584812 
L 385.747186 206.048624 
L 386.543423 204.76602 
L 387.339661 204.094418 
L 388.135898 204.150185 
L 388.932136 204.903764 
L 391.320848 208.797392 
L 392.117086 209.546417 
L 392.913323 209.745645 
L 394.505798 209.362457 
L 395.302036 209.600939 
L 396.098273 210.654492 
L 396.894511 212.687198 
L 397.690748 215.582087 
L 399.283223 222.351549 
L 400.079461 225.251617 
L 400.875699 227.379214 
L 401.671936 228.706751 
L 402.468174 229.459871 
L 403.264411 230.019807 
L 404.060649 230.778261 
L 404.856886 231.998416 
L 405.653124 233.729651 
L 407.245599 237.881593 
L 408.041836 239.594916 
L 408.838074 240.616919 
L 409.634311 240.751022 
L 410.430549 239.94515 
L 411.226786 238.262124 
L 412.023024 235.826852 
L 412.819261 232.779959 
L 413.615499 229.259195 
L 413.615499 229.259195 
" clip-path="url(#pe918dffda6)" style="fill: none; stroke: #e41a1c; stroke-width: 1.5; stroke-linecap: square"/>
   </g>
   <g id="line2d_15">
    <path d="M 46.55 236.496849 
L 48.142475 239.799182 
L 48.938713 241.208556 
L 49.73495 242.236049 
L 50.531188 242.845332 
L 51.327425 243.120473 
L 52.9199 243.402375 
L 53.716138 243.787169 
L 54.512375 244.466782 
L 57.697325 248.060887 
L 58.493563 248.340148 
L 59.2898 248.182388 
L 60.086038 247.622892 
L 60.882275 246.747795 
L 63.270988 243.456309 
L 64.067226 242.648139 
L 64.863463 242.281902 
L 65.659701 242.505917 
L 66.455938 243.3681 
L 67.252176 244.755936 
L 68.844651 247.793606 
L 69.640888 248.551759 
L 70.437126 248.310737 
L 71.233363 246.985055 
L 72.029601 244.80578 
L 73.622076 240.043662 
L 74.418313 238.67376 
L 75.214551 238.495957 
L 76.010788 239.491678 
L 76.807026 241.32116 
L 78.399501 245.400031 
L 79.195739 246.820526 
L 79.991976 247.68705 
L 81.584451 248.765036 
L 82.380689 249.623198 
L 83.176926 250.907206 
L 84.769401 254.070045 
L 85.565639 255.294446 
L 86.361876 255.928541 
L 87.158114 255.951749 
L 89.546826 254.917148 
L 90.343064 255.168023 
L 91.139301 255.844532 
L 92.731776 257.625554 
L 93.528014 258.274645 
L 94.324251 258.664774 
L 95.916727 259.286706 
L 96.712964 259.904245 
L 99.101677 262.411938 
L 99.897914 262.499475 
L 100.694152 261.851496 
L 103.082864 258.105402 
L 103.879102 257.875947 
L 104.675339 258.701091 
L 105.471577 260.432479 
L 107.064052 264.610547 
L 107.860289 265.935245 
L 108.656527 266.351091 
L 109.452764 265.990902 
L 111.04524 264.692305 
L 111.841477 264.623568 
L 112.637715 265.135715 
L 114.23019 266.749139 
L 115.026427 267.015595 
L 115.822665 266.606906 
L 117.41514 264.632925 
L 118.211377 264.027028 
L 119.007615 264.261012 
L 119.803852 265.439079 
L 122.192565 270.973505 
L 122.988802 271.785245 
L 123.78504 271.69342 
L 124.581277 270.956892 
L 125.377515 270.060175 
L 126.173752 269.508841 
L 126.96999 269.625908 
L 127.766228 270.431116 
L 129.358703 272.821406 
L 130.15494 273.510548 
L 130.951178 273.442731 
L 131.747415 272.601214 
L 133.33989 269.57987 
L 134.136128 268.062911 
L 134.932365 266.853531 
L 135.728603 266.000673 
L 136.52484 265.440682 
L 137.321078 265.083385 
L 138.117315 264.892469 
L 138.913553 264.916717 
L 139.70979 265.255163 
L 140.506028 265.973762 
L 142.89474 269.077379 
L 143.690978 269.373938 
L 144.487216 268.805143 
L 145.283453 267.354434 
L 147.672166 261.218903 
L 148.468403 260.171675 
L 149.264641 260.053237 
L 150.060878 260.675507 
L 150.857116 261.594553 
L 151.653353 262.277496 
L 152.449591 262.30565 
L 153.245828 261.536282 
L 155.634541 257.531223 
L 156.430778 257.289005 
L 157.227016 258.095786 
L 158.023253 259.797037 
L 159.615729 263.99853 
L 160.411966 265.408047 
L 161.208204 265.872269 
L 162.004441 265.360355 
L 162.800679 264.094577 
L 164.393154 260.788279 
L 165.189391 259.403419 
L 165.985629 258.409224 
L 166.781866 257.785156 
L 167.578104 257.436254 
L 168.374341 257.270439 
L 169.170579 257.249503 
L 169.966816 257.39348 
L 170.763054 257.742387 
L 172.355529 258.984287 
L 173.151766 259.635008 
L 173.948004 260.048162 
L 174.744241 260.060548 
L 175.540479 259.628393 
L 177.132954 258.064823 
L 177.929192 257.554038 
L 178.725429 257.651511 
L 179.521667 258.516466 
L 180.317904 260.082789 
L 181.910379 263.994429 
L 182.706617 265.425057 
L 183.502854 265.997733 
L 184.299092 265.583614 
L 185.095329 264.310074 
L 187.484042 259.093231 
L 188.280279 258.173835 
L 189.076517 257.989416 
L 189.872754 258.486794 
L 190.668992 259.507275 
L 192.261467 262.374352 
L 194.65018 266.860223 
L 196.242655 269.207025 
L 199.427605 272.812247 
L 201.816317 276.58035 
L 202.612555 277.329556 
L 203.408792 277.240557 
L 204.20503 276.0695 
L 205.001267 273.812113 
L 207.38998 264.447241 
L 208.186218 262.412326 
L 208.982455 261.660244 
L 209.778693 262.220577 
L 210.57493 263.81317 
L 212.167405 268.077639 
L 212.963643 269.754784 
L 213.75988 270.73515 
L 214.556118 271.00976 
L 215.352355 270.762253 
L 216.94483 269.843719 
L 217.741068 269.662357 
L 218.537305 269.818317 
L 219.333543 270.280544 
L 222.518493 272.876827 
L 224.907206 274.202173 
L 225.703443 274.890763 
L 226.499681 275.90433 
L 227.295918 277.310958 
L 228.092156 279.10524 
L 231.277106 287.280092 
L 232.073343 288.468433 
L 232.869581 288.94268 
L 233.665818 288.663184 
L 234.462056 287.704043 
L 235.258293 286.238467 
L 237.647006 281.214817 
L 238.443243 280.043387 
L 239.239481 279.31295 
L 240.035719 279.013482 
L 240.831956 279.071969 
L 241.628194 279.382398 
L 245.609381 281.607004 
L 246.405619 281.83442 
L 247.201856 281.908284 
L 247.998094 281.789157 
L 248.794331 281.442326 
L 249.590569 280.849364 
L 250.386806 280.018226 
L 251.979281 277.816995 
L 255.164231 273.023999 
L 256.756707 270.71256 
L 258.349182 267.87065 
L 259.941657 264.255294 
L 261.534132 260.619144 
L 262.330369 259.265491 
L 263.126607 258.46876 
L 263.922844 258.329852 
L 264.719082 258.842421 
L 265.515319 259.888337 
L 267.904032 263.97147 
L 268.700269 264.861936 
L 269.496507 265.264683 
L 270.292744 265.174675 
L 271.088982 264.692882 
L 272.681457 263.354002 
L 273.477695 262.973041 
L 274.273932 263.046941 
L 275.07017 263.652006 
L 275.866407 264.726262 
L 277.458882 267.392247 
L 278.25512 268.372657 
L 279.051357 268.760542 
L 279.847595 268.442131 
L 280.643832 267.473306 
L 282.236307 264.466233 
L 283.828782 261.684378 
L 287.013732 257.514162 
L 290.198683 251.845894 
L 290.99492 251.412869 
L 291.791158 251.812128 
L 292.587395 253.0627 
L 293.383633 255.03864 
L 296.568583 264.790363 
L 297.36482 266.300596 
L 298.161058 267.104646 
L 298.957295 267.232022 
L 299.753533 266.843842 
L 301.346008 265.644711 
L 302.142245 265.439869 
L 302.938483 265.763651 
L 303.73472 266.608816 
L 305.327196 268.976745 
L 306.123433 269.845802 
L 306.919671 270.150666 
L 307.715908 269.831215 
L 308.512146 269.029214 
L 310.104621 267.18124 
L 310.900858 266.726156 
L 311.697096 266.770002 
L 312.493333 267.234972 
L 314.085808 268.546737 
L 314.882046 268.937782 
L 315.678283 268.98836 
L 316.474521 268.714378 
L 317.270758 268.202395 
L 318.863233 266.800224 
L 320.455709 264.956369 
L 322.048184 262.422443 
L 323.640659 259.615266 
L 324.436896 258.463835 
L 325.233134 257.658834 
L 326.029371 257.260588 
L 326.825609 257.262796 
L 327.621846 257.617054 
L 328.418084 258.266062 
L 329.214321 259.165889 
L 330.806796 261.576 
L 332.399271 264.253326 
L 333.195509 265.287713 
L 333.991746 265.865376 
L 334.787984 265.88046 
L 335.584221 265.368568 
L 337.176697 263.658463 
L 337.972934 263.112725 
L 338.769172 263.146954 
L 339.565409 263.856313 
L 340.361647 265.141734 
L 341.954122 268.350161 
L 342.750359 269.662172 
L 343.546597 270.509823 
L 344.342834 270.857941 
L 345.139072 270.780213 
L 345.935309 270.397734 
L 347.527784 269.115666 
L 349.916497 266.724491 
L 350.712734 266.128467 
L 351.508972 265.828839 
L 352.30521 265.862903 
L 353.897685 266.379301 
L 354.693922 266.28682 
L 355.49016 265.566471 
L 356.286397 264.108511 
L 358.67511 257.8876 
L 359.471347 256.746119 
L 360.267585 256.623056 
L 361.063822 257.424609 
L 362.656297 260.084327 
L 363.452535 260.920204 
L 364.248772 261.034639 
L 365.04501 260.532294 
L 365.841247 259.804699 
L 366.637485 259.363275 
L 367.433722 259.624751 
L 368.22996 260.738312 
L 370.618673 266.322377 
L 371.41491 267.453257 
L 372.211148 267.85359 
L 373.803623 267.553135 
L 374.59986 267.768112 
L 375.396098 268.719538 
L 376.192335 270.470132 
L 378.581048 277.452919 
L 379.377285 278.999544 
L 380.173523 279.809541 
L 380.96976 280.011813 
L 382.562235 279.760326 
L 383.358473 279.844811 
L 384.15471 280.210893 
L 386.543423 281.761791 
L 387.339661 281.899175 
L 388.135898 281.742054 
L 388.932136 281.336445 
L 389.728373 280.730707 
L 390.524611 279.915514 
L 391.320848 278.800143 
L 392.117086 277.241062 
L 392.913323 275.113366 
L 393.709561 272.393599 
L 396.894511 259.971936 
L 397.690748 257.933113 
L 398.486986 256.502391 
L 400.079461 254.405656 
L 400.875699 253.113726 
L 401.671936 251.446171 
L 403.264411 247.645268 
L 404.060649 246.212696 
L 404.856886 245.524689 
L 405.653124 245.665823 
L 406.449361 246.449879 
L 407.245599 247.47291 
L 408.041836 248.251791 
L 408.838074 248.394273 
L 409.634311 247.733867 
L 410.430549 246.37647 
L 412.023024 242.931286 
L 412.819261 241.567624 
L 413.615499 240.692287 
L 413.615499 240.692287 
" clip-path="url(#pe918dffda6)" style="fill: none; stroke: #377eb8; stroke-width: 1.5; stroke-linecap: square"/>
   </g>
   <g id="line2d_16">
    <path d="M 87.158114 318.2 
L 87.158114 71.241125 
" clip-path="url(#pe918dffda6)" style="fill: none; stroke: #000000; stroke-width: 0.5; stroke-linecap: square"/>
   </g>
   <g id="line2d_17">
    <path d="M 46.55 245.459322 
L 413.615499 245.459322 
" clip-path="url(#pe918dffda6)" style="fill: none; stroke: #000000; stroke-width: 0.5; stroke-linecap: square"/>
   </g>
   <g id="patch_4">
    <path d="M 46.55 318.2 
L 46.55 71.241125 
" style="fill: none; stroke: #000000; stroke-width: 0.8; stroke-linejoin: miter; stroke-linecap: square"/>
   </g>
   <g id="patch_5">
    <path d="M 413.615499 318.2 
L 413.615499 71.241125 
" style="fill: none; stroke: #000000; stroke-width: 0.8; stroke-linejoin: miter; stroke-linecap: square"/>
   </g>
   <g id="patch_6">
    <path d="M 46.55 318.2 
L 413.615499 318.2 
" style="fill: none; stroke: #000000; stroke-width: 0.8; stroke-linejoin: miter; stroke-linecap: square"/>
   </g>
   <g id="patch_7">
    <path d="M 46.55 71.241125 
L 413.615499 71.241125 
" style="fill: none; stroke: #000000; stroke-width: 0.8; stroke-linejoin: miter; stroke-linecap: square"/>
   </g>
   <g id="text_16">
    <!-- Cz -->
    <g transform="translate(222.743999 65.241125)scale(0.12 -0.12)">
     <defs>
      <path id="DejaVuSans-43" d="M 4122 4306 
L 4122 3641 
Q 3803 3938 3442 4084 
Q 3081 4231 2675 4231 
Q 1875 4231 1450 3742 
Q 1025 3253 1025 2328 
Q 1025 1406 1450 917 
Q 1875 428 2675 428 
Q 3081 428 3442 575 
Q 3803 722 4122 1019 
L 4122 359 
Q 3791 134 3420 21 
Q 3050 -91 2638 -91 
Q 1578 -91 968 557 
Q 359 1206 359 2328 
Q 359 3453 968 4101 
Q 1578 4750 2638 4750 
Q 3056 4750 3426 4639 
Q 3797 4528 4122 4306 
z
" transform="scale(0.015625)"/>
      <path id="DejaVuSans-7a" d="M 353 3500 
L 3084 3500 
L 3084 2975 
L 922 459 
L 3084 459 
L 3084 0 
L 275 0 
L 275 525 
L 2438 3041 
L 353 3041 
L 353 3500 
z
" transform="scale(0.015625)"/>
     </defs>
     <use xlink:href="#DejaVuSans-43"/>
     <use xlink:href="#DejaVuSans-7a" x="69.824219"/>
    </g>
   </g>
   <g id="legend_1">
    <g id="patch_8">
     <path d="M 99.855406 48.044893 
L 360.310093 48.044893 
Q 362.310093 48.044893 362.310093 46.044893 
L 362.310093 17.410517 
Q 362.310093 15.410517 360.310093 15.410517 
L 99.855406 15.410517 
Q 97.855406 15.410517 97.855406 17.410517 
L 97.855406 46.044893 
Q 97.855406 48.044893 99.855406 48.044893 
z
" style="fill: #ffffff; opacity: 0.8; stroke: #cccccc; stroke-linejoin: miter"/>
    </g>
    <g id="text_17">
     <!-- Average of Session 27_tac4 -->
     <g transform="translate(161.068687 27.008955)scale(0.1 -0.1)">
      <defs>
       <path id="DejaVuSans-41" d="M 2188 4044 
L 1331 1722 
L 3047 1722 
L 2188 4044 
z
M 1831 4666 
L 2547 4666 
L 4325 0 
L 3669 0 
L 3244 1197 
L 1141 1197 
L 716 0 
L 50 0 
L 1831 4666 
z
" transform="scale(0.015625)"/>
       <path id="DejaVuSans-76" d="M 191 3500 
L 800 3500 
L 1894 563 
L 2988 3500 
L 3597 3500 
L 2284 0 
L 1503 0 
L 191 3500 
z
" transform="scale(0.015625)"/>
       <path id="DejaVuSans-72" d="M 2631 2963 
Q 2534 3019 2420 3045 
Q 2306 3072 2169 3072 
Q 1681 3072 1420 2755 
Q 1159 2438 1159 1844 
L 1159 0 
L 581 0 
L 581 3500 
L 1159 3500 
L 1159 2956 
Q 1341 3275 1631 3429 
Q 1922 3584 2338 3584 
Q 2397 3584 2469 3576 
Q 2541 3569 2628 3553 
L 2631 2963 
z
" transform="scale(0.015625)"/>
       <path id="DejaVuSans-61" d="M 2194 1759 
Q 1497 1759 1228 1600 
Q 959 1441 959 1056 
Q 959 750 1161 570 
Q 1363 391 1709 391 
Q 2188 391 2477 730 
Q 2766 1069 2766 1631 
L 2766 1759 
L 2194 1759 
z
M 3341 1997 
L 3341 0 
L 2766 0 
L 2766 531 
Q 2569 213 2275 61 
Q 1981 -91 1556 -91 
Q 1019 -91 701 211 
Q 384 513 384 1019 
Q 384 1609 779 1909 
Q 1175 2209 1959 2209 
L 2766 2209 
L 2766 2266 
Q 2766 2663 2505 2880 
Q 2244 3097 1772 3097 
Q 1472 3097 1187 3025 
Q 903 2953 641 2809 
L 641 3341 
Q 956 3463 1253 3523 
Q 1550 3584 1831 3584 
Q 2591 3584 2966 3190 
Q 3341 2797 3341 1997 
z
" transform="scale(0.015625)"/>
       <path id="DejaVuSans-67" d="M 2906 1791 
Q 2906 2416 2648 2759 
Q 2391 3103 1925 3103 
Q 1463 3103 1205 2759 
Q 947 2416 947 1791 
Q 947 1169 1205 825 
Q 1463 481 1925 481 
Q 2391 481 2648 825 
Q 2906 1169 2906 1791 
z
M 3481 434 
Q 3481 -459 3084 -895 
Q 2688 -1331 1869 -1331 
Q 1566 -1331 1297 -1286 
Q 1028 -1241 775 -1147 
L 775 -588 
Q 1028 -725 1275 -790 
Q 1522 -856 1778 -856 
Q 2344 -856 2625 -561 
Q 2906 -266 2906 331 
L 2906 616 
Q 2728 306 2450 153 
Q 2172 0 1784 0 
Q 1141 0 747 490 
Q 353 981 353 1791 
Q 353 2603 747 3093 
Q 1141 3584 1784 3584 
Q 2172 3584 2450 3431 
Q 2728 3278 2906 2969 
L 2906 3500 
L 3481 3500 
L 3481 434 
z
" transform="scale(0.015625)"/>
       <path id="DejaVuSans-20" transform="scale(0.015625)"/>
       <path id="DejaVuSans-66" d="M 2375 4863 
L 2375 4384 
L 1825 4384 
Q 1516 4384 1395 4259 
Q 1275 4134 1275 3809 
L 1275 3500 
L 2222 3500 
L 2222 3053 
L 1275 3053 
L 1275 0 
L 697 0 
L 697 3053 
L 147 3053 
L 147 3500 
L 697 3500 
L 697 3744 
Q 697 4328 969 4595 
Q 1241 4863 1831 4863 
L 2375 4863 
z
" transform="scale(0.015625)"/>
       <path id="DejaVuSans-53" d="M 3425 4513 
L 3425 3897 
Q 3066 4069 2747 4153 
Q 2428 4238 2131 4238 
Q 1616 4238 1336 4038 
Q 1056 3838 1056 3469 
Q 1056 3159 1242 3001 
Q 1428 2844 1947 2747 
L 2328 2669 
Q 3034 2534 3370 2195 
Q 3706 1856 3706 1288 
Q 3706 609 3251 259 
Q 2797 -91 1919 -91 
Q 1588 -91 1214 -16 
Q 841 59 441 206 
L 441 856 
Q 825 641 1194 531 
Q 1563 422 1919 422 
Q 2459 422 2753 634 
Q 3047 847 3047 1241 
Q 3047 1584 2836 1778 
Q 2625 1972 2144 2069 
L 1759 2144 
Q 1053 2284 737 2584 
Q 422 2884 422 3419 
Q 422 4038 858 4394 
Q 1294 4750 2059 4750 
Q 2388 4750 2728 4690 
Q 3069 4631 3425 4513 
z
" transform="scale(0.015625)"/>
       <path id="DejaVuSans-69" d="M 603 3500 
L 1178 3500 
L 1178 0 
L 603 0 
L 603 3500 
z
M 603 4863 
L 1178 4863 
L 1178 4134 
L 603 4134 
L 603 4863 
z
" transform="scale(0.015625)"/>
       <path id="DejaVuSans-37" d="M 525 4666 
L 3525 4666 
L 3525 4397 
L 1831 0 
L 1172 0 
L 2766 4134 
L 525 4134 
L 525 4666 
z
" transform="scale(0.015625)"/>
       <path id="DejaVuSans-5f" d="M 3263 -1063 
L 3263 -1509 
L -63 -1509 
L -63 -1063 
L 3263 -1063 
z
" transform="scale(0.015625)"/>
       <path id="DejaVuSans-74" d="M 1172 4494 
L 1172 3500 
L 2356 3500 
L 2356 3053 
L 1172 3053 
L 1172 1153 
Q 1172 725 1289 603 
Q 1406 481 1766 481 
L 2356 481 
L 2356 0 
L 1766 0 
Q 1100 0 847 248 
Q 594 497 594 1153 
L 594 3053 
L 172 3053 
L 172 3500 
L 594 3500 
L 594 4494 
L 1172 4494 
z
" transform="scale(0.015625)"/>
      </defs>
      <use xlink:href="#DejaVuSans-41"/>
      <use xlink:href="#DejaVuSans-76" x="62.533203"/>
      <use xlink:href="#DejaVuSans-65" x="121.712891"/>
      <use xlink:href="#DejaVuSans-72" x="183.236328"/>
      <use xlink:href="#DejaVuSans-61" x="224.349609"/>
      <use xlink:href="#DejaVuSans-67" x="285.628906"/>
      <use xlink:href="#DejaVuSans-65" x="349.105469"/>
      <use xlink:href="#DejaVuSans-20" x="410.628906"/>
      <use xlink:href="#DejaVuSans-6f" x="442.416016"/>
      <use xlink:href="#DejaVuSans-66" x="503.597656"/>
      <use xlink:href="#DejaVuSans-20" x="538.802734"/>
      <use xlink:href="#DejaVuSans-53" x="570.589844"/>
      <use xlink:href="#DejaVuSans-65" x="634.066406"/>
      <use xlink:href="#DejaVuSans-73" x="695.589844"/>
      <use xlink:href="#DejaVuSans-73" x="747.689453"/>
      <use xlink:href="#DejaVuSans-69" x="799.789062"/>
      <use xlink:href="#DejaVuSans-6f" x="827.572266"/>
      <use xlink:href="#DejaVuSans-6e" x="888.753906"/>
      <use xlink:href="#DejaVuSans-20" x="952.132812"/>
      <use xlink:href="#DejaVuSans-32" x="983.919922"/>
      <use xlink:href="#DejaVuSans-37" x="1047.542969"/>
      <use xlink:href="#DejaVuSans-5f" x="1111.166016"/>
      <use xlink:href="#DejaVuSans-74" x="1161.166016"/>
      <use xlink:href="#DejaVuSans-61" x="1200.375"/>
      <use xlink:href="#DejaVuSans-63" x="1261.654297"/>
      <use xlink:href="#DejaVuSans-34" x="1316.634766"/>
     </g>
    </g>
    <g id="line2d_18">
     <path d="M 101.855406 38.465205 
L 111.855406 38.465205 
L 121.855406 38.465205 
" style="fill: none; stroke: #e41a1c; stroke-width: 1.5; stroke-linecap: square"/>
    </g>
    <g id="text_18">
     <!-- Target (n=409) -->
     <g transform="translate(129.855406 41.965205)scale(0.1 -0.1)">
      <defs>
       <path id="DejaVuSans-54" d="M -19 4666 
L 3928 4666 
L 3928 4134 
L 2272 4134 
L 2272 0 
L 1638 0 
L 1638 4134 
L -19 4134 
L -19 4666 
z
" transform="scale(0.015625)"/>
       <path id="DejaVuSans-28" d="M 1984 4856 
Q 1566 4138 1362 3434 
Q 1159 2731 1159 2009 
Q 1159 1288 1364 580 
Q 1569 -128 1984 -844 
L 1484 -844 
Q 1016 -109 783 600 
Q 550 1309 550 2009 
Q 550 2706 781 3412 
Q 1013 4119 1484 4856 
L 1984 4856 
z
" transform="scale(0.015625)"/>
       <path id="DejaVuSans-3d" d="M 678 2906 
L 4684 2906 
L 4684 2381 
L 678 2381 
L 678 2906 
z
M 678 1631 
L 4684 1631 
L 4684 1100 
L 678 1100 
L 678 1631 
z
" transform="scale(0.015625)"/>
       <path id="DejaVuSans-39" d="M 703 97 
L 703 672 
Q 941 559 1184 500 
Q 1428 441 1663 441 
Q 2288 441 2617 861 
Q 2947 1281 2994 2138 
Q 2813 1869 2534 1725 
Q 2256 1581 1919 1581 
Q 1219 1581 811 2004 
Q 403 2428 403 3163 
Q 403 3881 828 4315 
Q 1253 4750 1959 4750 
Q 2769 4750 3195 4129 
Q 3622 3509 3622 2328 
Q 3622 1225 3098 567 
Q 2575 -91 1691 -91 
Q 1453 -91 1209 -44 
Q 966 3 703 97 
z
M 1959 2075 
Q 2384 2075 2632 2365 
Q 2881 2656 2881 3163 
Q 2881 3666 2632 3958 
Q 2384 4250 1959 4250 
Q 1534 4250 1286 3958 
Q 1038 3666 1038 3163 
Q 1038 2656 1286 2365 
Q 1534 2075 1959 2075 
z
" transform="scale(0.015625)"/>
       <path id="DejaVuSans-29" d="M 513 4856 
L 1013 4856 
Q 1481 4119 1714 3412 
Q 1947 2706 1947 2009 
Q 1947 1309 1714 600 
Q 1481 -109 1013 -844 
L 513 -844 
Q 928 -128 1133 580 
Q 1338 1288 1338 2009 
Q 1338 2731 1133 3434 
Q 928 4138 513 4856 
z
" transform="scale(0.015625)"/>
      </defs>
      <use xlink:href="#DejaVuSans-54"/>
      <use xlink:href="#DejaVuSans-61" x="44.583984"/>
      <use xlink:href="#DejaVuSans-72" x="105.863281"/>
      <use xlink:href="#DejaVuSans-67" x="145.226562"/>
      <use xlink:href="#DejaVuSans-65" x="208.703125"/>
      <use xlink:href="#DejaVuSans-74" x="270.226562"/>
      <use xlink:href="#DejaVuSans-20" x="309.435547"/>
      <use xlink:href="#DejaVuSans-28" x="341.222656"/>
      <use xlink:href="#DejaVuSans-6e" x="380.236328"/>
      <use xlink:href="#DejaVuSans-3d" x="443.615234"/>
      <use xlink:href="#DejaVuSans-34" x="527.404297"/>
      <use xlink:href="#DejaVuSans-30" x="591.027344"/>
      <use xlink:href="#DejaVuSans-39" x="654.650391"/>
      <use xlink:href="#DejaVuSans-29" x="718.273438"/>
     </g>
    </g>
    <g id="line2d_19">
     <path d="M 225.585093 38.465205 
L 235.585093 38.465205 
L 245.585093 38.465205 
" style="fill: none; stroke: #377eb8; stroke-width: 1.5; stroke-linecap: square"/>
    </g>
    <g id="text_19">
     <!-- Non-Target (n=1225) -->
     <g transform="translate(253.585093 41.965205)scale(0.1 -0.1)">
      <defs>
       <path id="DejaVuSans-4e" d="M 628 4666 
L 1478 4666 
L 3547 763 
L 3547 4666 
L 4159 4666 
L 4159 0 
L 3309 0 
L 1241 3903 
L 1241 0 
L 628 0 
L 628 4666 
z
" transform="scale(0.015625)"/>
       <path id="DejaVuSans-2d" d="M 313 2009 
L 1997 2009 
L 1997 1497 
L 313 1497 
L 313 2009 
z
" transform="scale(0.015625)"/>
      </defs>
      <use xlink:href="#DejaVuSans-4e"/>
      <use xlink:href="#DejaVuSans-6f" x="74.804688"/>
      <use xlink:href="#DejaVuSans-6e" x="135.986328"/>
      <use xlink:href="#DejaVuSans-2d" x="199.365234"/>
      <use xlink:href="#DejaVuSans-54" x="226.324219"/>
      <use xlink:href="#DejaVuSans-61" x="270.908203"/>
      <use xlink:href="#DejaVuSans-72" x="332.1875"/>
      <use xlink:href="#DejaVuSans-67" x="371.550781"/>
      <use xlink:href="#DejaVuSans-65" x="435.027344"/>
      <use xlink:href="#DejaVuSans-74" x="496.550781"/>
      <use xlink:href="#DejaVuSans-20" x="535.759766"/>
      <use xlink:href="#DejaVuSans-28" x="567.546875"/>
      <use xlink:href="#DejaVuSans-6e" x="606.560547"/>
      <use xlink:href="#DejaVuSans-3d" x="669.939453"/>
      <use xlink:href="#DejaVuSans-31" x="753.728516"/>
      <use xlink:href="#DejaVuSans-32" x="817.351562"/>
      <use xlink:href="#DejaVuSans-32" x="880.974609"/>
      <use xlink:href="#DejaVuSans-35" x="944.597656"/>
      <use xlink:href="#DejaVuSans-29" x="1008.220703"/>
     </g>
    </g>
   </g>
  </g>
 </g>
 <defs>
  <clipPath id="pe918dffda6">
   <rect x="46.55" y="71.241125" width="367.065499" height="246.958875"/>
  </clipPath>
 </defs>
</svg>
