<?xml version="1.0" encoding="utf-8" standalone="no"?>
<!DOCTYPE svg PUBLIC "-//W3C//DTD SVG 1.1//EN"
  "http://www.w3.org/Graphics/SVG/1.1/DTD/svg11.dtd">
<svg xmlns:xlink="http://www.w3.org/1999/xlink" width="432pt" height="360pt" viewBox="0 0 432 360" xmlns="http://www.w3.org/2000/svg" version="1.1">
 <metadata>
  <rdf:RDF xmlns:dc="http://purl.org/dc/elements/1.1/" xmlns:cc="http://creativecommons.org/ns#" xmlns:rdf="http://www.w3.org/1999/02/22-rdf-syntax-ns#">
   <cc:Work>
    <dc:type rdf:resource="http://purl.org/dc/dcmitype/StillImage"/>
    <dc:date>2022-11-02T16:56:55.020508</dc:date>
    <dc:format>image/svg+xml</dc:format>
    <dc:creator>
     <cc:Agent>
      <dc:title>Matplotlib v3.5.1, https://matplotlib.org/</dc:title>
     </cc:Agent>
    </dc:creator>
   </cc:Work>
  </rdf:RDF>
 </metadata>
 <defs>
  <style type="text/css">*{stroke-linejoin: round; stroke-linecap: butt}</style>
 </defs>
 <g id="figure_1">
  <g id="patch_1">
   <path d="M 0 360 
L 432 360 
L 432 0 
L 0 0 
L 0 360 
z
" style="fill: none"/>
  </g>
  <g id="axes_1">
   <g id="patch_2">
    <path d="M 46.55 318.2 
L 413.615499 318.2 
L 413.615499 71.241125 
L 46.55 71.241125 
L 46.55 318.2 
z
" style="fill: none"/>
   </g>
   <g id="PolyCollection_1">
    <defs>
     <path id="mad3dd7c9fa" d="M 46.55 -126.700215 
L 46.55 -83.56208 
L 47.346238 -84.419308 
L 48.142475 -85.49515 
L 48.938713 -86.536012 
L 49.73495 -87.196101 
L 50.531188 -87.185636 
L 51.327425 -86.413611 
L 52.123663 -85.049446 
L 52.9199 -83.504477 
L 53.716138 -82.356022 
L 54.512375 -82.21968 
L 55.308613 -83.581439 
L 56.10485 -86.634114 
L 56.901088 -91.171609 
L 57.697325 -96.585716 
L 58.493563 -101.993322 
L 59.2898 -106.471563 
L 60.086038 -109.31549 
L 60.882275 -110.224427 
L 61.678513 -109.375057 
L 62.47475 -107.388745 
L 63.270988 -105.178348 
L 64.067226 -103.637578 
L 64.863463 -103.275102 
L 65.659701 -104.023775 
L 66.455938 -105.322699 
L 67.252176 -106.395157 
L 68.048413 -106.575456 
L 68.844651 -105.573422 
L 69.640888 -103.590009 
L 70.437126 -101.211291 
L 71.233363 -99.11555 
L 72.029601 -97.773776 
L 72.825838 -97.31512 
L 73.622076 -97.590917 
L 74.418313 -98.331304 
L 75.214551 -99.249924 
L 76.010788 -100.053744 
L 76.807026 -100.439279 
L 77.603263 -100.135214 
L 78.399501 -98.947668 
L 79.195739 -96.754739 
L 79.991976 -93.511693 
L 80.788214 -89.336771 
L 81.584451 -84.641733 
L 82.380689 -80.167619 
L 83.176926 -76.813607 
L 83.973164 -75.3086 
L 84.769401 -75.914686 
L 85.565639 -78.321559 
L 86.361876 -81.752053 
L 87.158114 -85.198761 
L 87.954351 -87.706123 
L 88.750589 -88.639186 
L 89.546826 -87.867156 
L 90.343064 -85.78324 
L 91.139301 -83.134984 
L 91.935539 -80.720917 
L 92.731776 -79.086652 
L 93.528014 -78.358162 
L 94.324251 -78.282746 
L 95.120489 -78.43468 
L 95.916727 -78.469936 
L 96.712964 -78.315389 
L 97.509202 -78.222717 
L 98.305439 -78.667474 
L 99.101677 -80.123836 
L 99.897914 -82.8 
L 100.694152 -86.457506 
L 101.490389 -90.421259 
L 102.286627 -93.801185 
L 103.082864 -95.832212 
L 103.879102 -96.170188 
L 104.675339 -95.011188 
L 105.471577 -92.991766 
L 106.267814 -90.927998 
L 107.064052 -89.512004 
L 107.860289 -89.087914 
L 108.656527 -89.581863 
L 109.452764 -90.594021 
L 110.249002 -91.603605 
L 111.04524 -92.197699 
L 111.841477 -92.223154 
L 112.637715 -91.799378 
L 113.433952 -91.197061 
L 114.23019 -90.653286 
L 115.026427 -90.227478 
L 115.822665 -89.778901 
L 116.618902 -89.067079 
L 117.41514 -87.90069 
L 118.211377 -86.255078 
L 119.007615 -84.315705 
L 119.803852 -82.439405 
L 120.60009 -81.043338 
L 121.396327 -80.448845 
L 122.192565 -80.728761 
L 122.988802 -81.628494 
L 123.78504 -82.626111 
L 124.581277 -83.125845 
L 125.377515 -82.706231 
L 126.173752 -81.307477 
L 126.96999 -79.265794 
L 127.766228 -77.167669 
L 128.562465 -75.589361 
L 129.358703 -74.852142 
L 130.15494 -74.906769 
L 130.951178 -75.373889 
L 131.747415 -75.691115 
L 132.543653 -75.302671 
L 133.33989 -73.847489 
L 134.136128 -71.313939 
L 134.932365 -68.115411 
L 135.728603 -65.019357 
L 136.52484 -62.898442 
L 137.321078 -62.392334 
L 138.117315 -63.654773 
L 138.913553 -66.319568 
L 139.70979 -69.694788 
L 140.506028 -73.069317 
L 141.302265 -75.960231 
L 142.098503 -78.195644 
L 142.89474 -79.854541 
L 143.690978 -81.141737 
L 144.487216 -82.260174 
L 145.283453 -83.318558 
L 146.079691 -84.297833 
L 146.875928 -85.081207 
L 147.672166 -85.532284 
L 148.468403 -85.58568 
L 149.264641 -85.30106 
L 150.060878 -84.85353 
L 150.857116 -84.47213 
L 151.653353 -84.3661 
L 152.449591 -84.662498 
L 153.245828 -85.360159 
L 154.042066 -86.313713 
L 154.838303 -87.272306 
L 155.634541 -87.975623 
L 156.430778 -88.275722 
L 157.227016 -88.226452 
L 158.023253 -88.093359 
L 158.819491 -88.279679 
L 159.615729 -89.203732 
L 160.411966 -91.169229 
L 161.208204 -94.262649 
L 162.004441 -98.310067 
L 162.800679 -102.921994 
L 163.596916 -107.620523 
L 164.393154 -112.00003 
L 165.189391 -115.840617 
L 165.985629 -119.1109 
L 166.781866 -121.873952 
L 167.578104 -124.177942 
L 168.374341 -126.002098 
L 169.170579 -127.277884 
L 169.966816 -127.947007 
L 170.763054 -128.00594 
L 171.559291 -127.50875 
L 172.355529 -126.543826 
L 173.151766 -125.21774 
L 173.948004 -123.661528 
L 174.744241 -122.040726 
L 175.540479 -120.54175 
L 176.336717 -119.321804 
L 177.132954 -118.445259 
L 177.929192 -117.855128 
L 178.725429 -117.40686 
L 179.521667 -116.938328 
L 180.317904 -116.326019 
L 181.114142 -115.505941 
L 181.910379 -114.47852 
L 182.706617 -113.31846 
L 183.502854 -112.180991 
L 184.299092 -111.275264 
L 185.095329 -110.798873 
L 185.891567 -110.871235 
L 186.687804 -111.513655 
L 187.484042 -112.670177 
L 188.280279 -114.231605 
L 189.076517 -116.032279 
L 189.872754 -117.839531 
L 190.668992 -119.374075 
L 191.46523 -120.377375 
L 192.261467 -120.701991 
L 193.057705 -120.375885 
L 193.853942 -119.606837 
L 194.65018 -118.735383 
L 195.446417 -118.166188 
L 196.242655 -118.295233 
L 197.038892 -119.431292 
L 197.83513 -121.710207 
L 198.631367 -125.023964 
L 199.427605 -129.013577 
L 200.223842 -133.152622 
L 201.02008 -136.889387 
L 201.816317 -139.775948 
L 202.612555 -141.546412 
L 203.408792 -142.162666 
L 204.20503 -141.847581 
L 205.001267 -141.078413 
L 205.797505 -140.48141 
L 206.593742 -140.61926 
L 207.38998 -141.763088 
L 208.186218 -143.784262 
L 208.982455 -146.224483 
L 209.778693 -148.486454 
L 210.57493 -150.03015 
L 211.371168 -150.498777 
L 212.167405 -149.778846 
L 212.963643 -148.0322 
L 213.75988 -145.698159 
L 214.556118 -143.416102 
L 215.352355 -141.850132 
L 216.148593 -141.493561 
L 216.94483 -142.561403 
L 217.741068 -144.99784 
L 218.537305 -148.540093 
L 219.333543 -152.783968 
L 220.12978 -157.251343 
L 220.926018 -161.480935 
L 221.722255 -165.128319 
L 222.518493 -168.018973 
L 223.31473 -170.11938 
L 224.110968 -171.46691 
L 224.907206 -172.132452 
L 225.703443 -172.229542 
L 226.499681 -171.918183 
L 227.295918 -171.366612 
L 228.092156 -170.70217 
L 228.888393 -169.997641 
L 229.684631 -169.288785 
L 230.480868 -168.57875 
L 231.277106 -167.816495 
L 232.073343 -166.900008 
L 232.869581 -165.737742 
L 233.665818 -164.317975 
L 234.462056 -162.70487 
L 235.258293 -160.969958 
L 236.054531 -159.149557 
L 236.850768 -157.285018 
L 237.647006 -155.504233 
L 238.443243 -154.051114 
L 239.239481 -153.220073 
L 240.035719 -153.247972 
L 240.831956 -154.23702 
L 241.628194 -156.120537 
L 242.424431 -158.645817 
L 243.220669 -161.381186 
L 244.016906 -163.784076 
L 244.813144 -165.333194 
L 245.609381 -165.680682 
L 246.405619 -164.762884 
L 247.201856 -162.834128 
L 247.998094 -160.4201 
L 248.794331 -158.200854 
L 249.590569 -156.835334 
L 250.386806 -156.757741 
L 251.183044 -158.019308 
L 251.979281 -160.250173 
L 252.775519 -162.768621 
L 253.571756 -164.797055 
L 254.367994 -165.709706 
L 255.164231 -165.234701 
L 255.960469 -163.549879 
L 256.756707 -161.244996 
L 257.552944 -159.155037 
L 258.349182 -158.111896 
L 259.145419 -158.6894 
L 259.941657 -161.030716 
L 260.737894 -164.814047 
L 261.534132 -169.356581 
L 262.330369 -173.818717 
L 263.126607 -177.451634 
L 263.922844 -179.821078 
L 264.719082 -180.934283 
L 265.515319 -181.22406 
L 266.311557 -181.390073 
L 267.107794 -182.157885 
L 267.904032 -184.050639 
L 268.700269 -187.245144 
L 269.496507 -191.531892 
L 270.292744 -196.372109 
L 271.088982 -201.03983 
L 271.88522 -204.823976 
L 272.681457 -207.231715 
L 273.477695 -208.117047 
L 274.273932 -207.685262 
L 275.07017 -206.384755 
L 275.866407 -204.744043 
L 276.662645 -203.210952 
L 277.458882 -202.043836 
L 278.25512 -201.289005 
L 279.051357 -200.855253 
L 279.847595 -200.636088 
L 280.643832 -200.59301 
L 281.44007 -200.753377 
L 282.236307 -201.156127 
L 283.032545 -201.802011 
L 283.828782 -202.624266 
L 284.62502 -203.457659 
L 285.421257 -204.00859 
L 286.217495 -203.878182 
L 287.013732 -202.683501 
L 287.80997 -200.24008 
L 288.606208 -196.692543 
L 289.402445 -192.505679 
L 290.198683 -188.333589 
L 290.99492 -184.852078 
L 291.791158 -182.615416 
L 292.587395 -181.954475 
L 293.383633 -182.920002 
L 294.17987 -185.280827 
L 294.976108 -188.581204 
L 295.772345 -192.234599 
L 296.568583 -195.623085 
L 297.36482 -198.189038 
L 298.161058 -199.527571 
L 298.957295 -199.473328 
L 299.753533 -198.153488 
L 300.54977 -195.980914 
L 301.346008 -193.576662 
L 302.142245 -191.62782 
L 302.938483 -190.702194 
L 303.73472 -191.073079 
L 304.530958 -192.618016 
L 305.327196 -194.838925 
L 306.123433 -197.001767 
L 306.919671 -198.337771 
L 307.715908 -198.234654 
L 308.512146 -196.379681 
L 309.308383 -192.83729 
L 310.104621 -188.037712 
L 310.900858 -182.656294 
L 311.697096 -177.40782 
L 312.493333 -172.835706 
L 313.289571 -169.190293 
L 314.085808 -166.441117 
L 314.882046 -164.393892 
L 315.678283 -162.838305 
L 316.474521 -161.660556 
L 317.270758 -160.882311 
L 318.066996 -160.616894 
L 318.863233 -160.96766 
L 319.659471 -161.922621 
L 320.455709 -163.30013 
L 321.251946 -164.770974 
L 322.048184 -165.947204 
L 322.844421 -166.50315 
L 323.640659 -166.281944 
L 324.436896 -165.347939 
L 325.233134 -163.967184 
L 326.029371 -162.519497 
L 326.825609 -161.364927 
L 327.621846 -160.708407 
L 328.418084 -160.515686 
L 329.214321 -160.525722 
L 330.010559 -160.371493 
L 330.806796 -159.756591 
L 331.603034 -158.578823 
L 332.399271 -156.919878 
L 333.195509 -154.930879 
L 333.991746 -152.721383 
L 334.787984 -150.333252 
L 335.584221 -147.78754 
L 336.380459 -145.13131 
L 337.176697 -142.442789 
L 337.972934 -139.830098 
L 338.769172 -137.462153 
L 339.565409 -135.593505 
L 340.361647 -134.509145 
L 341.157884 -134.388279 
L 341.954122 -135.182587 
L 342.750359 -136.604988 
L 343.546597 -138.237204 
L 344.342834 -139.680331 
L 345.139072 -140.667483 
L 345.935309 -141.117515 
L 346.731547 -141.145857 
L 347.527784 -141.022645 
L 348.324022 -141.060601 
L 349.120259 -141.471158 
L 349.916497 -142.279841 
L 350.712734 -143.355554 
L 351.508972 -144.517214 
L 352.30521 -145.627791 
L 353.101447 -146.613033 
L 353.897685 -147.421001 
L 354.693922 -147.983881 
L 355.49016 -148.221851 
L 356.286397 -148.074672 
L 357.082635 -147.526558 
L 357.878872 -146.619274 
L 358.67511 -145.473268 
L 359.471347 -144.317999 
L 360.267585 -143.485326 
L 361.063822 -143.32168 
L 361.86006 -144.030244 
L 362.656297 -145.526353 
L 363.452535 -147.403336 
L 364.248772 -149.046389 
L 365.04501 -149.851896 
L 365.841247 -149.456977 
L 366.637485 -147.877028 
L 367.433722 -145.48862 
L 368.22996 -142.864031 
L 369.026198 -140.52696 
L 369.822435 -138.727792 
L 370.618673 -137.329503 
L 371.41491 -135.854714 
L 372.211148 -133.681739 
L 373.007385 -130.317633 
L 373.803623 -125.65149 
L 374.59986 -120.084652 
L 375.396098 -114.462612 
L 376.192335 -109.813513 
L 376.988573 -106.992581 
L 377.78481 -106.377357 
L 378.581048 -107.733434 
L 379.377285 -110.292744 
L 380.173523 -113.004556 
L 380.96976 -114.865109 
L 381.765998 -115.219932 
L 382.562235 -113.944648 
L 383.358473 -111.444658 
L 384.15471 -108.476869 
L 384.950948 -105.867818 
L 385.747186 -104.236782 
L 386.543423 -103.82444 
L 387.339661 -104.477122 
L 388.135898 -105.771769 
L 388.932136 -107.214327 
L 389.728373 -108.42926 
L 390.524611 -109.278252 
L 391.320848 -109.877541 
L 392.117086 -110.52474 
L 392.913323 -111.569904 
L 393.709561 -113.277823 
L 394.505798 -115.729301 
L 395.302036 -118.799991 
L 396.098273 -122.224181 
L 396.894511 -125.70843 
L 397.690748 -129.039156 
L 398.486986 -132.139458 
L 399.283223 -135.061098 
L 400.079461 -137.922698 
L 400.875699 -140.820856 
L 401.671936 -143.748318 
L 402.468174 -146.554429 
L 403.264411 -148.974874 
L 404.060649 -150.722364 
L 404.856886 -151.589956 
L 405.653124 -151.509067 
L 406.449361 -150.548949 
L 407.245599 -148.88575 
L 408.041836 -146.765911 
L 408.838074 -144.463357 
L 409.634311 -142.219729 
L 410.430549 -140.182176 
L 411.226786 -138.378667 
L 412.023024 -136.761355 
L 412.819261 -135.292914 
L 413.615499 -134.010098 
L 413.615499 -215.773951 
L 413.615499 -215.773951 
L 412.819261 -216.713479 
L 412.023024 -218.04161 
L 411.226786 -219.706024 
L 410.430549 -221.62887 
L 409.634311 -223.727448 
L 408.838074 -225.917968 
L 408.041836 -228.089735 
L 407.245599 -230.068358 
L 406.449361 -231.610322 
L 405.653124 -232.460435 
L 404.856886 -232.447074 
L 404.060649 -231.551033 
L 403.264411 -229.902588 
L 402.468174 -227.71993 
L 401.671936 -225.233617 
L 400.875699 -222.62844 
L 400.079461 -220.010273 
L 399.283223 -217.393983 
L 398.486986 -214.717784 
L 397.690748 -211.888281 
L 396.894511 -208.845231 
L 396.098273 -205.614539 
L 395.302036 -202.322189 
L 394.505798 -199.166436 
L 393.709561 -196.359447 
L 392.913323 -194.053469 
L 392.117086 -192.274928 
L 391.320848 -190.899339 
L 390.524611 -189.691417 
L 389.728373 -188.409425 
L 388.932136 -186.936749 
L 388.135898 -185.374964 
L 387.339661 -184.04343 
L 386.543423 -183.372279 
L 385.747186 -183.727114 
L 384.950948 -185.228279 
L 384.15471 -187.639343 
L 383.358473 -190.381963 
L 382.562235 -192.687169 
L 381.765998 -193.840539 
L 380.96976 -193.441074 
L 380.173523 -191.582027 
L 379.377285 -188.871964 
L 378.581048 -186.269754 
L 377.78481 -184.782243 
L 376.988573 -185.13565 
L 376.192335 -187.548307 
L 375.396098 -191.688513 
L 374.59986 -196.81682 
L 373.803623 -202.046481 
L 373.007385 -206.628069 
L 372.211148 -210.168625 
L 371.41491 -212.71053 
L 370.618673 -214.639888 
L 369.822435 -216.466489 
L 369.026198 -218.575293 
L 368.22996 -221.05887 
L 367.433722 -223.69932 
L 366.637485 -226.08834 
L 365.841247 -227.814735 
L 365.04501 -228.633214 
L 364.248772 -228.550022 
L 363.452535 -227.801572 
L 362.656297 -226.752564 
L 361.86006 -225.770182 
L 361.063822 -225.121955 
L 360.267585 -224.919417 
L 359.471347 -225.112935 
L 358.67511 -225.535022 
L 357.878872 -225.981346 
L 357.082635 -226.302799 
L 356.286397 -226.45973 
L 355.49016 -226.491792 
L 354.693922 -226.42187 
L 353.897685 -226.176759 
L 353.101447 -225.60405 
L 352.30521 -224.576413 
L 351.508972 -223.099205 
L 350.712734 -221.340248 
L 349.916497 -219.565123 
L 349.120259 -218.031202 
L 348.324022 -216.907595 
L 347.527784 -216.241952 
L 346.731547 -215.952168 
L 345.935309 -215.839652 
L 345.139072 -215.653392 
L 344.342834 -215.20883 
L 343.546597 -214.498994 
L 342.750359 -213.71395 
L 341.954122 -213.153218 
L 341.157884 -213.098711 
L 340.361647 -213.73006 
L 339.565409 -215.098434 
L 338.769172 -217.124139 
L 337.972934 -219.608201 
L 337.176697 -222.289435 
L 336.380459 -224.950429 
L 335.584221 -227.50241 
L 334.787984 -229.967052 
L 333.991746 -232.359867 
L 333.195509 -234.581051 
L 332.399271 -236.422105 
L 331.603034 -237.683057 
L 330.806796 -238.293135 
L 330.010559 -238.348945 
L 329.214321 -238.071587 
L 328.418084 -237.737224 
L 327.621846 -237.611804 
L 326.825609 -237.880539 
L 326.029371 -238.568576 
L 325.233134 -239.490956 
L 324.436896 -240.285316 
L 323.640659 -240.540407 
L 322.844421 -239.969544 
L 322.048184 -238.547608 
L 321.251946 -236.549532 
L 320.455709 -234.46946 
L 319.659471 -232.850128 
L 318.863233 -232.097151 
L 318.066996 -232.361021 
L 317.270758 -233.529984 
L 316.474521 -235.324922 
L 315.678283 -237.451019 
L 314.882046 -239.740003 
L 314.085808 -242.218756 
L 313.289571 -245.073277 
L 312.493333 -248.526293 
L 311.697096 -252.686381 
L 310.900858 -257.434673 
L 310.104621 -262.391695 
L 309.308383 -266.970501 
L 308.512146 -270.509137 
L 307.715908 -272.465311 
L 306.919671 -272.616397 
L 306.123433 -271.168769 
L 305.327196 -268.710845 
L 304.530958 -266.028894 
L 303.73472 -263.87197 
L 302.938483 -262.758475 
L 302.142245 -262.873953 
L 301.346008 -264.059574 
L 300.54977 -265.87314 
L 299.753533 -267.70964 
L 298.957295 -268.958202 
L 298.161058 -269.149073 
L 297.36482 -268.05733 
L 296.568583 -265.749809 
L 295.772345 -262.57282 
L 294.976108 -259.076898 
L 294.17987 -255.891825 
L 293.383633 -253.586934 
L 292.587395 -252.555763 
L 291.791158 -252.95172 
L 290.99492 -254.674444 
L 290.198683 -257.402736 
L 289.402445 -260.673476 
L 288.606208 -263.995869 
L 287.80997 -266.956835 
L 287.013732 -269.267578 
L 286.217495 -270.758875 
L 285.421257 -271.381936 
L 284.62502 -271.234814 
L 283.828782 -270.563664 
L 283.032545 -269.694891 
L 282.236307 -268.923174 
L 281.44007 -268.432071 
L 280.643832 -268.30105 
L 279.847595 -268.568207 
L 279.051357 -269.267834 
L 278.25512 -270.406811 
L 277.458882 -271.920926 
L 276.662645 -273.656304 
L 275.866407 -275.376512 
L 275.07017 -276.780152 
L 274.273932 -277.533472 
L 273.477695 -277.329335 
L 272.681457 -275.970822 
L 271.88522 -273.446821 
L 271.088982 -269.969251 
L 270.292744 -265.956829 
L 269.496507 -261.964316 
L 268.700269 -258.55286 
L 267.904032 -256.118208 
L 267.107794 -254.741098 
L 266.311557 -254.136681 
L 265.515319 -253.736864 
L 264.719082 -252.873497 
L 263.922844 -250.994715 
L 263.126607 -247.844705 
L 262.330369 -243.559957 
L 261.534132 -238.661272 
L 260.737894 -233.933725 
L 259.941657 -230.210036 
L 259.145419 -228.123841 
L 258.349182 -227.91777 
L 257.552944 -229.368178 
L 256.756707 -231.843959 
L 255.960469 -234.480451 
L 255.164231 -236.420758 
L 254.367994 -237.05701 
L 253.571756 -236.202945 
L 252.775519 -234.138399 
L 251.979281 -231.507772 
L 251.183044 -229.1086 
L 250.386806 -227.650505 
L 249.590569 -227.558965 
L 248.794331 -228.866079 
L 247.998094 -231.206364 
L 247.201856 -233.918382 
L 246.405619 -236.234953 
L 245.609381 -237.506699 
L 244.813144 -237.38198 
L 244.016906 -235.875978 
L 243.220669 -233.320276 
L 242.424431 -230.241587 
L 241.628194 -227.221462 
L 240.831956 -224.762945 
L 240.035719 -223.185544 
L 239.239481 -222.586493 
L 238.443243 -222.882889 
L 237.647006 -223.896164 
L 236.850768 -225.4128 
L 236.054531 -227.194854 
L 235.258293 -228.986583 
L 234.462056 -230.57189 
L 233.665818 -231.855038 
L 232.869581 -232.878712 
L 232.073343 -233.750364 
L 231.277106 -234.547091 
L 230.480868 -235.286643 
L 229.684631 -235.966949 
L 228.888393 -236.602558 
L 228.092156 -237.210535 
L 227.295918 -237.77642 
L 226.499681 -238.249709 
L 225.703443 -238.565314 
L 224.907206 -238.64134 
L 224.110968 -238.345008 
L 223.31473 -237.484255 
L 222.518493 -235.86159 
L 221.722255 -233.352103 
L 220.926018 -229.947711 
L 220.12978 -225.765475 
L 219.333543 -221.055358 
L 218.537305 -216.217396 
L 217.741068 -211.783893 
L 216.94483 -208.319271 
L 216.148593 -206.25819 
L 215.352355 -205.769912 
L 214.556118 -206.717647 
L 213.75988 -208.700924 
L 212.963643 -211.133285 
L 212.167405 -213.346388 
L 211.371168 -214.743799 
L 210.57493 -214.983303 
L 209.778693 -214.095133 
L 208.982455 -212.447107 
L 208.186218 -210.566043 
L 207.38998 -208.927043 
L 206.593742 -207.823123 
L 205.797505 -207.333496 
L 205.001267 -207.336947 
L 204.20503 -207.530883 
L 203.408792 -207.472882 
L 202.612555 -206.688257 
L 201.816317 -204.846098 
L 201.02008 -201.914996 
L 200.223842 -198.193499 
L 199.427605 -194.199566 
L 198.631367 -190.50026 
L 197.83513 -187.570793 
L 197.038892 -185.713774 
L 196.242655 -185.022535 
L 195.446417 -185.369942 
L 194.65018 -186.43504 
L 193.853942 -187.780087 
L 193.057705 -188.96411 
L 192.261467 -189.643877 
L 191.46523 -189.624681 
L 190.668992 -188.86532 
L 189.872754 -187.463258 
L 189.076517 -185.636475 
L 188.280279 -183.696315 
L 187.484042 -181.989707 
L 186.687804 -180.805866 
L 185.891567 -180.286275 
L 185.095329 -180.396729 
L 184.299092 -180.976883 
L 183.502854 -181.826225 
L 182.706617 -182.76597 
L 181.910379 -183.662076 
L 181.114142 -184.424699 
L 180.317904 -185.012783 
L 179.521667 -185.443083 
L 178.725429 -185.777848 
L 177.929192 -186.087617 
L 177.132954 -186.423243 
L 176.336717 -186.820066 
L 175.540479 -187.315939 
L 174.744241 -187.947829 
L 173.948004 -188.716376 
L 173.151766 -189.544926 
L 172.355529 -190.277789 
L 171.559291 -190.735872 
L 170.763054 -190.793205 
L 169.966816 -190.415332 
L 169.170579 -189.63608 
L 168.374341 -188.487934 
L 167.578104 -186.93613 
L 166.781866 -184.867754 
L 165.985629 -182.147968 
L 165.189391 -178.702337 
L 164.393154 -174.577413 
L 163.596916 -169.952764 
L 162.800679 -165.119384 
L 162.004441 -160.447488 
L 161.208204 -156.34819 
L 160.411966 -153.207139 
L 159.615729 -151.278509 
L 158.819491 -150.576257 
L 158.023253 -150.830016 
L 157.227016 -151.543086 
L 156.430778 -152.139484 
L 155.634541 -152.144827 
L 154.838303 -151.335781 
L 154.042066 -149.805498 
L 153.245828 -147.921275 
L 152.449591 -146.183248 
L 151.653353 -145.026881 
L 150.857116 -144.645334 
L 150.060878 -144.922381 
L 149.264641 -145.511752 
L 148.468403 -146.008668 
L 147.672166 -146.115673 
L 146.875928 -145.729562 
L 146.079691 -144.924778 
L 145.283453 -143.856505 
L 144.487216 -142.632983 
L 143.690978 -141.219495 
L 142.89474 -139.427462 
L 142.098503 -137.01174 
L 141.302265 -133.840153 
L 140.506028 -130.041965 
L 139.70979 -126.041494 
L 138.913553 -122.448446 
L 138.117315 -119.867232 
L 137.321078 -118.724045 
L 136.52484 -119.167389 
L 135.728603 -121.034653 
L 134.932365 -123.864726 
L 134.136128 -126.967036 
L 133.33989 -129.581883 
L 132.543653 -131.12865 
L 131.747415 -131.443084 
L 130.951178 -130.860081 
L 130.15494 -130.067503 
L 129.358703 -129.793989 
L 128.562465 -130.495455 
L 127.766228 -132.193552 
L 126.96999 -134.510901 
L 126.173752 -136.848336 
L 125.377515 -138.616757 
L 124.581277 -139.442994 
L 123.78504 -139.290081 
L 122.988802 -138.459866 
L 122.192565 -137.477397 
L 121.396327 -136.892145 
L 120.60009 -137.068045 
L 119.803852 -138.045019 
L 119.007615 -139.538725 
L 118.211377 -141.08562 
L 117.41514 -142.27132 
L 116.618902 -142.918162 
L 115.822665 -143.124885 
L 115.026427 -143.150586 
L 114.23019 -143.22997 
L 113.433952 -143.43072 
L 112.637715 -143.619475 
L 111.841477 -143.540801 
L 111.04524 -142.964481 
L 110.249002 -141.835868 
L 109.452764 -140.364721 
L 108.656527 -139.00073 
L 107.860289 -138.281496 
L 107.064052 -138.603134 
L 106.267814 -140.015296 
L 105.471577 -142.138221 
L 104.675339 -144.251302 
L 103.879102 -145.529355 
L 103.082864 -145.33218 
L 102.286627 -143.427956 
L 101.490389 -140.069121 
L 100.694152 -135.904099 
L 99.897914 -131.761867 
L 99.101677 -128.381316 
L 98.305439 -126.181653 
L 97.509202 -125.157027 
L 96.712964 -124.941641 
L 95.916727 -125.030693 
L 95.120489 -125.0561 
L 94.324251 -124.966619 
L 93.528014 -125.017181 
L 92.731776 -125.585559 
L 91.935539 -126.915906 
L 91.139301 -128.91287 
L 90.343064 -131.082305 
L 89.546826 -132.651085 
L 88.750589 -132.828353 
L 87.954351 -131.124724 
L 87.158114 -127.60493 
L 86.361876 -122.948641 
L 85.565639 -118.260986 
L 84.769401 -114.698452 
L 83.973164 -113.080862 
L 83.176926 -113.669109 
L 82.380689 -116.177178 
L 81.584451 -119.940308 
L 80.788214 -124.11714 
L 79.991976 -127.88009 
L 79.195739 -130.607399 
L 78.399501 -132.035941 
L 77.603263 -132.280362 
L 76.807026 -131.693264 
L 76.010788 -130.660704 
L 75.214551 -129.486182 
L 74.418313 -128.416724 
L 73.622076 -127.71191 
L 72.825838 -127.617522 
L 72.029601 -128.256408 
L 71.233363 -129.558285 
L 70.437126 -131.284743 
L 69.640888 -133.102873 
L 68.844651 -134.655666 
L 68.048413 -135.622415 
L 67.252176 -135.804036 
L 66.455938 -135.240111 
L 65.659701 -134.272699 
L 64.863463 -133.463701 
L 64.067226 -133.384654 
L 63.270988 -134.377571 
L 62.47475 -136.368449 
L 61.678513 -138.774954 
L 60.882275 -140.604728 
L 60.086038 -140.816325 
L 59.2898 -138.790584 
L 58.493563 -134.629459 
L 57.697325 -129.142168 
L 56.901088 -123.559326 
L 56.10485 -119.109852 
L 55.308613 -116.622352 
L 54.512375 -116.292266 
L 53.716138 -117.691357 
L 52.9199 -120.00076 
L 52.123663 -122.357314 
L 51.327425 -124.160953 
L 50.531188 -125.220944 
L 49.73495 -125.699922 
L 48.938713 -125.90955 
L 48.142475 -126.098523 
L 47.346238 -126.364011 
L 46.55 -126.700215 
z
" style="stroke: #e41a1c; stroke-opacity: 0.3"/>
    </defs>
    <g clip-path="url(#pefccbfcc9b)">
     <use xlink:href="#mad3dd7c9fa" x="0" y="360" style="fill: #e41a1c; fill-opacity: 0.3; stroke: #e41a1c; stroke-opacity: 0.3"/>
    </g>
   </g>
   <g id="PolyCollection_2">
    <defs>
     <path id="m8e63aa2c99" d="M 46.55 -129.302694 
L 46.55 -105.687565 
L 47.346238 -106.509756 
L 48.142475 -107.540135 
L 48.938713 -108.527219 
L 49.73495 -109.202437 
L 50.531188 -109.34754 
L 51.327425 -108.869517 
L 52.123663 -107.84778 
L 52.9199 -106.521727 
L 53.716138 -105.213826 
L 54.512375 -104.214701 
L 55.308613 -103.685868 
L 56.10485 -103.625029 
L 56.901088 -103.901111 
L 57.697325 -104.324844 
L 58.493563 -104.712477 
L 59.2898 -104.927356 
L 60.086038 -104.906265 
L 60.882275 -104.663587 
L 61.678513 -104.266445 
L 62.47475 -103.786331 
L 63.270988 -103.259341 
L 64.067226 -102.688522 
L 64.863463 -102.087309 
L 65.659701 -101.520519 
L 66.455938 -101.105642 
L 67.252176 -100.969873 
L 68.048413 -101.1909 
L 68.844651 -101.746419 
L 69.640888 -102.490459 
L 70.437126 -103.170067 
L 71.233363 -103.487564 
L 72.029601 -103.196335 
L 72.825838 -102.199819 
L 73.622076 -100.61125 
L 74.418313 -98.742008 
L 75.214551 -97.012849 
L 76.010788 -95.820986 
L 76.807026 -95.417297 
L 77.603263 -95.830748 
L 78.399501 -96.843654 
L 79.195739 -98.024179 
L 79.991976 -98.827154 
L 80.788214 -98.76199 
L 81.584451 -97.584287 
L 82.380689 -95.423234 
L 83.176926 -92.746483 
L 83.973164 -90.153047 
L 84.769401 -88.114753 
L 85.565639 -86.812069 
L 86.361876 -86.124145 
L 87.158114 -85.730228 
L 87.954351 -85.245346 
L 88.750589 -84.35418 
L 89.546826 -82.934769 
L 90.343064 -81.136163 
L 91.139301 -79.351263 
L 91.935539 -78.070382 
L 92.731776 -77.676781 
L 93.528014 -78.290485 
L 94.324251 -79.729821 
L 95.120489 -81.588909 
L 95.916727 -83.375943 
L 96.712964 -84.654996 
L 97.509202 -85.159613 
L 98.305439 -84.856668 
L 99.101677 -83.937039 
L 99.897914 -82.733203 
L 100.694152 -81.600843 
L 101.490389 -80.817412 
L 102.286627 -80.529428 
L 103.082864 -80.749184 
L 103.879102 -81.383666 
L 104.675339 -82.274228 
L 105.471577 -83.234013 
L 106.267814 -84.080493 
L 107.064052 -84.665437 
L 107.860289 -84.900017 
L 108.656527 -84.766786 
L 109.452764 -84.313453 
L 110.249002 -83.636732 
L 111.04524 -82.872131 
L 111.841477 -82.189886 
L 112.637715 -81.776761 
L 113.433952 -81.783783 
L 114.23019 -82.254587 
L 115.026427 -83.080474 
L 115.822665 -84.020716 
L 116.618902 -84.788137 
L 117.41514 -85.160094 
L 118.211377 -85.060612 
L 119.007615 -84.580206 
L 119.803852 -83.93043 
L 120.60009 -83.353832 
L 121.396327 -83.022864 
L 122.192565 -82.967972 
L 122.988802 -83.066091 
L 123.78504 -83.09106 
L 124.581277 -82.805028 
L 125.377515 -82.062776 
L 126.173752 -80.897326 
L 126.96999 -79.547565 
L 127.766228 -78.397541 
L 128.562465 -77.835102 
L 129.358703 -78.086032 
L 130.15494 -79.103556 
L 130.951178 -80.567275 
L 131.747415 -81.987913 
L 132.543653 -82.865431 
L 133.33989 -82.843121 
L 134.136128 -81.81977 
L 134.932365 -79.993626 
L 135.728603 -77.818368 
L 136.52484 -75.868013 
L 137.321078 -74.645816 
L 138.117315 -74.409228 
L 138.913553 -75.087197 
L 139.70979 -76.322751 
L 140.506028 -77.614173 
L 141.302265 -78.494204 
L 142.098503 -78.687319 
L 142.89474 -78.200926 
L 143.690978 -77.324329 
L 144.487216 -76.530305 
L 145.283453 -76.305652 
L 146.079691 -76.973098 
L 146.875928 -78.578517 
L 147.672166 -80.885148 
L 148.468403 -83.464538 
L 149.264641 -85.838837 
L 150.060878 -87.625551 
L 150.857116 -88.644992 
L 151.653353 -88.960146 
L 152.449591 -88.832939 
L 153.245828 -88.608911 
L 154.042066 -88.577308 
L 154.838303 -88.870136 
L 155.634541 -89.43955 
L 156.430778 -90.104835 
L 157.227016 -90.633173 
L 158.023253 -90.8221 
L 158.819491 -90.566101 
L 159.615729 -89.894051 
L 160.411966 -88.965082 
L 161.208204 -88.015166 
L 162.004441 -87.27078 
L 162.800679 -86.866401 
L 163.596916 -86.808623 
L 164.393154 -86.998622 
L 165.189391 -87.289395 
L 165.985629 -87.541704 
L 166.781866 -87.655353 
L 167.578104 -87.572483 
L 168.374341 -87.267356 
L 169.170579 -86.731379 
L 169.966816 -85.967674 
L 170.763054 -85.001704 
L 171.559291 -83.905914 
L 172.355529 -82.81732 
L 173.151766 -81.920102 
L 173.948004 -81.3846 
L 174.744241 -81.294256 
L 175.540479 -81.598077 
L 176.336717 -82.112722 
L 177.132954 -82.571286 
L 177.929192 -82.700804 
L 178.725429 -82.309723 
L 179.521667 -81.366623 
L 180.317904 -80.041386 
L 181.114142 -78.676896 
L 181.910379 -77.683298 
L 182.706617 -77.392843 
L 183.502854 -77.93574 
L 184.299092 -79.187306 
L 185.095329 -80.804115 
L 185.891567 -82.330498 
L 186.687804 -83.331478 
L 187.484042 -83.511905 
L 188.280279 -82.789674 
L 189.076517 -81.307879 
L 189.872754 -79.384942 
L 190.668992 -77.417942 
L 191.46523 -75.767538 
L 192.261467 -74.6621 
L 193.057705 -74.157277 
L 193.853942 -74.164413 
L 194.65018 -74.527598 
L 195.446417 -75.10414 
L 196.242655 -75.805526 
L 197.038892 -76.583961 
L 197.83513 -77.384713 
L 198.631367 -78.102349 
L 199.427605 -78.568083 
L 200.223842 -78.578091 
L 201.02008 -77.948961 
L 201.816317 -76.581061 
L 202.612555 -74.507391 
L 203.408792 -71.913822 
L 204.20503 -69.125939 
L 205.001267 -66.560051 
L 205.797505 -64.639856 
L 206.593742 -63.693057 
L 207.38998 -63.860293 
L 208.186218 -65.052574 
L 208.982455 -66.980597 
L 209.778693 -69.248232 
L 210.57493 -71.471702 
L 211.371168 -73.376975 
L 212.167405 -74.845107 
L 212.963643 -75.900652 
L 213.75988 -76.658124 
L 214.556118 -77.25389 
L 215.352355 -77.786806 
L 216.148593 -78.279222 
L 216.94483 -78.664079 
L 217.741068 -78.804954 
L 218.537305 -78.550567 
L 219.333543 -77.808238 
L 220.12978 -76.601328 
L 220.926018 -75.076345 
L 221.722255 -73.448871 
L 222.518493 -71.917014 
L 223.31473 -70.590449 
L 224.110968 -69.46662 
L 224.907206 -68.455814 
L 225.703443 -67.439213 
L 226.499681 -66.336027 
L 227.295918 -65.155345 
L 228.092156 -64.008198 
L 228.888393 -63.069421 
L 229.684631 -62.502464 
L 230.480868 -62.383039 
L 231.277106 -62.660874 
L 232.073343 -63.173069 
L 232.869581 -63.691195 
L 233.665818 -63.979061 
L 234.462056 -63.848865 
L 235.258293 -63.2068 
L 236.054531 -62.076118 
L 236.850768 -60.58796 
L 237.647006 -58.939761 
L 238.443243 -57.334485 
L 239.239481 -55.925875 
L 240.035719 -54.792508 
L 240.831956 -53.947567 
L 241.628194 -53.373906 
L 242.424431 -53.061886 
L 243.220669 -53.025403 
L 244.016906 -53.286004 
L 244.813144 -53.838819 
L 245.609381 -54.623016 
L 246.405619 -55.515552 
L 247.201856 -56.353642 
L 247.998094 -56.978933 
L 248.794331 -57.287812 
L 249.590569 -57.269154 
L 250.386806 -57.013245 
L 251.183044 -56.684567 
L 251.979281 -56.466684 
L 252.775519 -56.500419 
L 253.571756 -56.834207 
L 254.367994 -57.398891 
L 255.164231 -58.019398 
L 255.960469 -58.470421 
L 256.756707 -58.561354 
L 257.552944 -58.20944 
L 258.349182 -57.462797 
L 259.145419 -56.468081 
L 259.941657 -55.414315 
L 260.737894 -54.487511 
L 261.534132 -53.843477 
L 262.330369 -53.585996 
L 263.126607 -53.749095 
L 263.922844 -54.299693 
L 264.719082 -55.165861 
L 265.515319 -56.271567 
L 266.311557 -57.552343 
L 267.107794 -58.948219 
L 267.904032 -60.391974 
L 268.700269 -61.809962 
L 269.496507 -63.133834 
L 270.292744 -64.312186 
L 271.088982 -65.320973 
L 271.88522 -66.175465 
L 272.681457 -66.933727 
L 273.477695 -67.673505 
L 274.273932 -68.444492 
L 275.07017 -69.227096 
L 275.866407 -69.931234 
L 276.662645 -70.442002 
L 277.458882 -70.682659 
L 278.25512 -70.657512 
L 279.051357 -70.455144 
L 279.847595 -70.219716 
L 280.643832 -70.107613 
L 281.44007 -70.241769 
L 282.236307 -70.6726 
L 283.032545 -71.354601 
L 283.828782 -72.148137 
L 284.62502 -72.852345 
L 285.421257 -73.266787 
L 286.217495 -73.263955 
L 287.013732 -72.839714 
L 287.80997 -72.111417 
L 288.606208 -71.260059 
L 289.402445 -70.446852 
L 290.198683 -69.750054 
L 290.99492 -69.154211 
L 291.791158 -68.588745 
L 292.587395 -67.986402 
L 293.383633 -67.329688 
L 294.17987 -66.666203 
L 294.976108 -66.087901 
L 295.772345 -65.681719 
L 296.568583 -65.471159 
L 297.36482 -65.375169 
L 298.161058 -65.209963 
L 298.957295 -64.747992 
L 299.753533 -63.820028 
L 300.54977 -62.415745 
L 301.346008 -60.729808 
L 302.142245 -59.124966 
L 302.938483 -58.022293 
L 303.73472 -57.764143 
L 304.530958 -58.504244 
L 305.327196 -60.161503 
L 306.123433 -62.446223 
L 306.919671 -64.948112 
L 307.715908 -67.260714 
L 308.512146 -69.102539 
L 309.308383 -70.386703 
L 310.104621 -71.21259 
L 310.900858 -71.78678 
L 311.697096 -72.314709 
L 312.493333 -72.916004 
L 313.289571 -73.596819 
L 314.085808 -74.276565 
L 314.882046 -74.844386 
L 315.678283 -75.213783 
L 316.474521 -75.352551 
L 317.270758 -75.278622 
L 318.066996 -75.029708 
L 318.863233 -74.625035 
L 319.659471 -74.041137 
L 320.455709 -73.221879 
L 321.251946 -72.128099 
L 322.048184 -70.802693 
L 322.844421 -69.408907 
L 323.640659 -68.206502 
L 324.436896 -67.465122 
L 325.233134 -67.351443 
L 326.029371 -67.840679 
L 326.825609 -68.688543 
L 327.621846 -69.479215 
L 328.418084 -69.744696 
L 329.214321 -69.131044 
L 330.010559 -67.555436 
L 330.806796 -65.278142 
L 331.603034 -62.834718 
L 332.399271 -60.841706 
L 333.195509 -59.763337 
L 333.991746 -59.746994 
L 334.787984 -60.588089 
L 335.584221 -61.817944 
L 336.380459 -62.870467 
L 337.176697 -63.277445 
L 337.972934 -62.835212 
L 338.769172 -61.679656 
L 339.565409 -60.229802 
L 340.361647 -59.018699 
L 341.157884 -58.48519 
L 341.954122 -58.817487 
L 342.750359 -59.90545 
L 343.546597 -61.403205 
L 344.342834 -62.865887 
L 345.139072 -63.911982 
L 345.935309 -64.358597 
L 346.731547 -64.278231 
L 347.527784 -63.953294 
L 348.324022 -63.750999 
L 349.120259 -63.976353 
L 349.916497 -64.762889 
L 350.712734 -66.034885 
L 351.508972 -67.542983 
L 352.30521 -68.952383 
L 353.101447 -69.952637 
L 353.897685 -70.351087 
L 354.693922 -70.119451 
L 355.49016 -69.383929 
L 356.286397 -68.372823 
L 357.082635 -67.345606 
L 357.878872 -66.5242 
L 358.67511 -66.044147 
L 359.471347 -65.939935 
L 360.267585 -66.165961 
L 361.063822 -66.636629 
L 361.86006 -67.2596 
L 362.656297 -67.947304 
L 363.452535 -68.614475 
L 364.248772 -69.1804 
L 365.04501 -69.583591 
L 365.841247 -69.799006 
L 366.637485 -69.846264 
L 367.433722 -69.78745 
L 368.22996 -69.715271 
L 369.026198 -69.730844 
L 369.822435 -69.913544 
L 370.618673 -70.292227 
L 371.41491 -70.831318 
L 372.211148 -71.439784 
L 373.007385 -72.000329 
L 373.803623 -72.40905 
L 374.59986 -72.614963 
L 375.396098 -72.645118 
L 376.192335 -72.596019 
L 376.988573 -72.583874 
L 377.78481 -72.673835 
L 378.581048 -72.827796 
L 379.377285 -72.901214 
L 380.173523 -72.690479 
L 380.96976 -72.00696 
L 381.765998 -70.75121 
L 382.562235 -68.972875 
L 383.358473 -66.90286 
L 384.15471 -64.93358 
L 384.950948 -63.526154 
L 385.747186 -63.062535 
L 386.543423 -63.702972 
L 387.339661 -65.31652 
L 388.135898 -67.516479 
L 388.932136 -69.781707 
L 389.728373 -71.61279 
L 390.524611 -72.671572 
L 391.320848 -72.871295 
L 392.117086 -72.395456 
L 392.913323 -71.634904 
L 393.709561 -71.054942 
L 394.505798 -71.037267 
L 395.302036 -71.75663 
L 396.098273 -73.135117 
L 396.894511 -74.882433 
L 397.690748 -76.59871 
L 398.486986 -77.90523 
L 399.283223 -78.56399 
L 400.079461 -78.54908 
L 400.875699 -78.041015 
L 401.671936 -77.343274 
L 402.468174 -76.758495 
L 403.264411 -76.481159 
L 404.060649 -76.549584 
L 404.856886 -76.86687 
L 405.653124 -77.270875 
L 406.449361 -77.61961 
L 407.245599 -77.862139 
L 408.041836 -78.07349 
L 408.838074 -78.439029 
L 409.634311 -79.185403 
L 410.430549 -80.482184 
L 411.226786 -82.354775 
L 412.023024 -84.651916 
L 412.819261 -87.084228 
L 413.615499 -89.315426 
L 413.615499 -138.298559 
L 413.615499 -138.298559 
L 412.819261 -136.204006 
L 412.023024 -133.910201 
L 411.226786 -131.706554 
L 410.430549 -129.834462 
L 409.634311 -128.430348 
L 408.838074 -127.501903 
L 408.041836 -126.939638 
L 407.245599 -126.563733 
L 406.449361 -126.196765 
L 405.653124 -125.739717 
L 404.856886 -125.213721 
L 404.060649 -124.744051 
L 403.264411 -124.4902 
L 402.468174 -124.554997 
L 401.671936 -124.916608 
L 400.875699 -125.4134 
L 400.079461 -125.78433 
L 399.283223 -125.7494 
L 398.486986 -125.108216 
L 397.690748 -123.828079 
L 396.894511 -122.085657 
L 396.098273 -120.233341 
L 395.302036 -118.690121 
L 394.505798 -117.793767 
L 393.709561 -117.674805 
L 392.913323 -118.201639 
L 392.117086 -119.015891 
L 391.320848 -119.644148 
L 390.524611 -119.653848 
L 389.728373 -118.806555 
L 388.932136 -117.152741 
L 388.135898 -115.025682 
L 387.339661 -112.931318 
L 386.543423 -111.381013 
L 385.747186 -110.736653 
L 384.950948 -111.122327 
L 384.15471 -112.41506 
L 383.358473 -114.297724 
L 382.562235 -116.354036 
L 381.765998 -118.1882 
L 380.96976 -119.538907 
L 380.173523 -120.342039 
L 379.377285 -120.71152 
L 378.581048 -120.848505 
L 377.78481 -120.931017 
L 376.988573 -121.042236 
L 376.192335 -121.161465 
L 375.396098 -121.200977 
L 374.59986 -121.059283 
L 373.803623 -120.671267 
L 373.007385 -120.0429 
L 372.211148 -119.259028 
L 371.41491 -118.4574 
L 370.618673 -117.776985 
L 369.822435 -117.30426 
L 369.026198 -117.043869 
L 368.22996 -116.924814 
L 367.433722 -116.833151 
L 366.637485 -116.654994 
L 365.841247 -116.314794 
L 365.04501 -115.79472 
L 364.248772 -115.126941 
L 363.452535 -114.367981 
L 362.656297 -113.577061 
L 361.86006 -112.812221 
L 361.063822 -112.139153 
L 360.267585 -111.636272 
L 359.471347 -111.385746 
L 358.67511 -111.454529 
L 357.878872 -111.873588 
L 357.082635 -112.616619 
L 356.286397 -113.579517 
L 355.49016 -114.57407 
L 354.693922 -115.355292 
L 353.897685 -115.685772 
L 353.101447 -115.415891 
L 352.30521 -114.546626 
L 351.508972 -113.246722 
L 350.712734 -111.811519 
L 349.916497 -110.570362 
L 349.120259 -109.770235 
L 348.324022 -109.480733 
L 347.527784 -109.563293 
L 346.731547 -109.723751 
L 345.935309 -109.627884 
L 345.139072 -109.03503 
L 344.342834 -107.903954 
L 343.546597 -106.433679 
L 342.750359 -105.01434 
L 341.954122 -104.091456 
L 341.157884 -103.990392 
L 340.361647 -104.7749 
L 339.565409 -106.203738 
L 338.769172 -107.804355 
L 337.972934 -109.032342 
L 337.176697 -109.459893 
L 336.380459 -108.935263 
L 335.584221 -107.659852 
L 334.787984 -106.139798 
L 333.991746 -105.012212 
L 333.195509 -104.808695 
L 332.399271 -105.758786 
L 331.603034 -107.716976 
L 330.806796 -110.23072 
L 330.010559 -112.701804 
L 329.214321 -114.574197 
L 328.418084 -115.498206 
L 327.621846 -115.432536 
L 326.825609 -114.646966 
L 326.029371 -113.612391 
L 325.233134 -112.818052 
L 324.436896 -112.597141 
L 323.640659 -113.036461 
L 322.844421 -113.999522 
L 322.048184 -115.229344 
L 321.251946 -116.468201 
L 320.455709 -117.542267 
L 319.659471 -118.389794 
L 318.863233 -119.034863 
L 318.066996 -119.526621 
L 317.270758 -119.878673 
L 316.474521 -120.046054 
L 315.678283 -119.953631 
L 314.882046 -119.557377 
L 314.085808 -118.897346 
L 313.289571 -118.102937 
L 312.493333 -117.338972 
L 311.697096 -116.719199 
L 310.900858 -116.23331 
L 310.104621 -115.728923 
L 309.308383 -114.961133 
L 308.512146 -113.693625 
L 307.715908 -111.81161 
L 306.919671 -109.402275 
L 306.123433 -106.768469 
L 305.327196 -104.360215 
L 304.530958 -102.636038 
L 303.73472 -101.90499 
L 302.938483 -102.216683 
L 302.142245 -103.349566 
L 301.346008 -104.899885 
L 300.54977 -106.427679 
L 299.753533 -107.597001 
L 298.957295 -108.261788 
L 298.161058 -108.478551 
L 297.36482 -108.453605 
L 296.568583 -108.446493 
L 295.772345 -108.665139 
L 294.976108 -109.192636 
L 294.17987 -109.973932 
L 293.383633 -110.864555 
L 292.587395 -111.714421 
L 291.791158 -112.441199 
L 290.99492 -113.055427 
L 290.198683 -113.631448 
L 289.402445 -114.247876 
L 288.606208 -114.932897 
L 287.80997 -115.640088 
L 287.013732 -116.260464 
L 286.217495 -116.659683 
L 285.421257 -116.725131 
L 284.62502 -116.413645 
L 283.828782 -115.784251 
L 283.032545 -114.994093 
L 282.236307 -114.248427 
L 281.44007 -113.722168 
L 280.643832 -113.48936 
L 279.847595 -113.496606 
L 279.051357 -113.595383 
L 278.25512 -113.614826 
L 277.458882 -113.435963 
L 276.662645 -113.030126 
L 275.866407 -112.447035 
L 275.07017 -111.768259 
L 274.273932 -111.060647 
L 273.477695 -110.35467 
L 272.681457 -109.642933 
L 271.88522 -108.885417 
L 271.088982 -108.018227 
L 270.292744 -106.975743 
L 269.496507 -105.724061 
L 268.700269 -104.285535 
L 267.904032 -102.735661 
L 267.107794 -101.175611 
L 266.311557 -99.703051 
L 265.515319 -98.398489 
L 264.719082 -97.324101 
L 263.922844 -96.523761 
L 263.126607 -96.024357 
L 262.330369 -95.844024 
L 261.534132 -95.997166 
L 260.737894 -96.478939 
L 259.941657 -97.231857 
L 259.145419 -98.124888 
L 258.349182 -98.973658 
L 257.552944 -99.597424 
L 256.756707 -99.876948 
L 255.960469 -99.782271 
L 255.164231 -99.371304 
L 254.367994 -98.775492 
L 253.571756 -98.174593 
L 252.775519 -97.74989 
L 251.979281 -97.622533 
L 251.183044 -97.804435 
L 250.386806 -98.189394 
L 249.590569 -98.591009 
L 248.794331 -98.810223 
L 247.998094 -98.703857 
L 247.201856 -98.229957 
L 246.405619 -97.457152 
L 245.609381 -96.536797 
L 244.813144 -95.649954 
L 244.016906 -94.953529 
L 243.220669 -94.548866 
L 242.424431 -94.479307 
L 241.628194 -94.747205 
L 240.831956 -95.336161 
L 240.035719 -96.2278 
L 239.239481 -97.403324 
L 238.443243 -98.827836 
L 237.647006 -100.424079 
L 236.850768 -102.051152 
L 236.054531 -103.507592 
L 235.258293 -104.570814 
L 234.462056 -105.066743 
L 233.665818 -104.944194 
L 232.869581 -104.319698 
L 232.073343 -103.462214 
L 231.277106 -102.710911 
L 230.480868 -102.358082 
L 229.684631 -102.55386 
L 228.888393 -103.275742 
L 228.092156 -104.366933 
L 227.295918 -105.615954 
L 226.499681 -106.841201 
L 225.703443 -107.952309 
L 224.907206 -108.971878 
L 224.110968 -110.010008 
L 223.31473 -111.198245 
L 222.518493 -112.613073 
L 221.722255 -114.226854 
L 220.926018 -115.907624 
L 220.12978 -117.459198 
L 219.333543 -118.679779 
L 218.537305 -119.419149 
L 217.741068 -119.621611 
L 216.94483 -119.343457 
L 216.148593 -118.732749 
L 215.352355 -117.967017 
L 214.556118 -117.171072 
L 213.75988 -116.356501 
L 212.963643 -115.418563 
L 212.167405 -114.194537 
L 211.371168 -112.556004 
L 210.57493 -110.493574 
L 209.778693 -108.158412 
L 208.982455 -105.845498 
L 208.186218 -103.929002 
L 207.38998 -102.772642 
L 206.593742 -102.638938 
L 205.797505 -103.617922 
L 205.001267 -105.591429 
L 204.20503 -108.244743 
L 203.408792 -111.131718 
L 202.612555 -113.784528 
L 201.816317 -115.831682 
L 201.02008 -117.079747 
L 200.223842 -117.530167 
L 199.427605 -117.332345 
L 198.631367 -116.701112 
L 197.83513 -115.839937 
L 197.038892 -114.901541 
L 196.242655 -113.989577 
L 195.446417 -113.186799 
L 194.65018 -112.582579 
L 193.853942 -112.282468 
L 193.057705 -112.394886 
L 192.261467 -113.003157 
L 191.46523 -114.131382 
L 190.668992 -115.70999 
L 189.872754 -117.553812 
L 189.076517 -119.371785 
L 188.280279 -120.822121 
L 187.484042 -121.606089 
L 186.687804 -121.570368 
L 185.891567 -120.773526 
L 185.095329 -119.481328 
L 184.299092 -118.08806 
L 183.502854 -116.993578 
L 182.706617 -116.483661 
L 181.910379 -116.653856 
L 181.114142 -117.400349 
L 180.317904 -118.470075 
L 179.521667 -119.545174 
L 178.725429 -120.337814 
L 177.929192 -120.675141 
L 177.132954 -120.548576 
L 176.336717 -120.106015 
L 175.540479 -119.586124 
L 174.744241 -119.225744 
L 173.948004 -119.185793 
L 173.151766 -119.524398 
L 172.355529 -120.21083 
L 171.559291 -121.153077 
L 170.763054 -122.22075 
L 169.966816 -123.267747 
L 169.170579 -124.157027 
L 168.374341 -124.784968 
L 167.578104 -125.096508 
L 166.781866 -125.090536 
L 165.985629 -124.821642 
L 165.189391 -124.400817 
L 164.393154 -123.982074 
L 163.596916 -123.731271 
L 162.800679 -123.78091 
L 162.004441 -124.19042 
L 161.208204 -124.923837 
L 160.411966 -125.846729 
L 159.615729 -126.745232 
L 158.819491 -127.373981 
L 158.023253 -127.531516 
L 157.227016 -127.144596 
L 156.430778 -126.317165 
L 155.634541 -125.306624 
L 154.838303 -124.424687 
L 154.042066 -123.906621 
L 153.245828 -123.810969 
L 152.449591 -123.991414 
L 151.653353 -124.144058 
L 150.857116 -123.909249 
L 150.060878 -122.997642 
L 149.264641 -121.306583 
L 148.468403 -118.985707 
L 147.672166 -116.413807 
L 146.875928 -114.081631 
L 146.079691 -112.424053 
L 145.283453 -111.671578 
L 144.487216 -111.775868 
L 143.690978 -112.429827 
L 142.89474 -113.171156 
L 142.098503 -113.538935 
L 141.302265 -113.238634 
L 140.506028 -112.259784 
L 139.70979 -110.893392 
L 138.913553 -109.630611 
L 138.117315 -108.981158 
L 137.321078 -109.287462 
L 136.52484 -110.602295 
L 135.728603 -112.663227 
L 134.932365 -114.965516 
L 134.136128 -116.913613 
L 133.33989 -118.012001 
L 132.543653 -118.034576 
L 131.747415 -117.102293 
L 130.951178 -115.628083 
L 130.15494 -114.14974 
L 129.358703 -113.130206 
L 128.562465 -112.813381 
L 127.766228 -113.181112 
L 126.96999 -114.003397 
L 126.173752 -114.944296 
L 125.377515 -115.685372 
L 124.581277 -116.03439 
L 123.78504 -115.987622 
L 122.988802 -115.715824 
L 122.192565 -115.472013 
L 121.396327 -115.464296 
L 120.60009 -115.758354 
L 119.803852 -116.254487 
L 119.007615 -116.740839 
L 118.211377 -116.990857 
L 117.41514 -116.858723 
L 116.618902 -116.334041 
L 115.822665 -115.537641 
L 115.026427 -114.668125 
L 114.23019 -113.93183 
L 113.433952 -113.486518 
L 112.637715 -113.407976 
L 111.841477 -113.674075 
L 111.04524 -114.167348 
L 110.249002 -114.706026 
L 109.452764 -115.102302 
L 108.656527 -115.222402 
L 107.860289 -115.014722 
L 107.064052 -114.493493 
L 106.267814 -113.702163 
L 105.471577 -112.694813 
L 104.675339 -111.551159 
L 103.879102 -110.402942 
L 103.082864 -109.437385 
L 102.286627 -108.859827 
L 101.490389 -108.822117 
L 100.694152 -109.34591 
L 99.897914 -110.279953 
L 99.101677 -111.319054 
L 98.305439 -112.082544 
L 97.509202 -112.227797 
L 96.712964 -111.567021 
L 95.916727 -110.152208 
L 95.120489 -108.290796 
L 94.324251 -106.465358 
L 93.528014 -105.171865 
L 92.731776 -104.742551 
L 91.935539 -105.237544 
L 91.139301 -106.444715 
L 90.343064 -107.966568 
L 89.546826 -109.350945 
L 88.750589 -110.235229 
L 87.954351 -110.476894 
L 87.158114 -110.227305 
L 86.361876 -109.890167 
L 85.565639 -109.951155 
L 84.769401 -110.750784 
L 83.973164 -112.329922 
L 83.176926 -114.427602 
L 82.380689 -116.597593 
L 81.584451 -118.356547 
L 80.788214 -119.309395 
L 79.991976 -119.255264 
L 79.195739 -118.276414 
L 78.399501 -116.756667 
L 77.603263 -115.275131 
L 76.807026 -114.397312 
L 76.010788 -114.457251 
L 75.214551 -115.438724 
L 74.418313 -117.014737 
L 73.622076 -118.706177 
L 72.825838 -120.071438 
L 72.029601 -120.84797 
L 71.233363 -121.005515 
L 70.437126 -120.709613 
L 69.640888 -120.225189 
L 68.844651 -119.802906 
L 68.048413 -119.593704 
L 67.252176 -119.622705 
L 66.455938 -119.82665 
L 65.659701 -120.125686 
L 64.863463 -120.483406 
L 64.067226 -120.918579 
L 63.270988 -121.466919 
L 62.47475 -122.127618 
L 61.678513 -122.838858 
L 60.882275 -123.48586 
L 60.086038 -123.928454 
L 59.2898 -124.044467 
L 58.493563 -123.789075 
L 57.697325 -123.24785 
L 56.901088 -122.645392 
L 56.10485 -122.282875 
L 55.308613 -122.427217 
L 54.512375 -123.207868 
L 53.716138 -124.573785 
L 52.9199 -126.315929 
L 52.123663 -128.128629 
L 51.327425 -129.687307 
L 50.531188 -130.730553 
L 49.73495 -131.130128 
L 48.938713 -130.931554 
L 48.142475 -130.346874 
L 47.346238 -129.694978 
L 46.55 -129.302694 
z
" style="stroke: #377eb8; stroke-opacity: 0.3"/>
    </defs>
    <g clip-path="url(#pefccbfcc9b)">
     <use xlink:href="#m8e63aa2c99" x="0" y="360" style="fill: #377eb8; fill-opacity: 0.3; stroke: #377eb8; stroke-opacity: 0.3"/>
    </g>
   </g>
   <g id="patch_3">
    <path d="M 229.843878 318.2 
L 229.843878 71.241125 
L 331.762281 71.241125 
L 331.762281 318.2 
z
" clip-path="url(#pefccbfcc9b)" style="fill: #808080; opacity: 0.3"/>
   </g>
   <g id="matplotlib.axis_1">
    <g id="xtick_1">
     <g id="line2d_1">
      <defs>
       <path id="m030a7a3336" d="M 0 0 
L 0 3.5 
" style="stroke: #000000; stroke-width: 0.8"/>
      </defs>
      <g>
       <use xlink:href="#m030a7a3336" x="87.158114" y="318.2" style="stroke: #000000; stroke-width: 0.8"/>
      </g>
     </g>
     <g id="text_1">
      <!-- 0.0 -->
      <g transform="translate(79.206551 332.798437)scale(0.1 -0.1)">
       <defs>
        <path id="DejaVuSans-30" d="M 2034 4250 
Q 1547 4250 1301 3770 
Q 1056 3291 1056 2328 
Q 1056 1369 1301 889 
Q 1547 409 2034 409 
Q 2525 409 2770 889 
Q 3016 1369 3016 2328 
Q 3016 3291 2770 3770 
Q 2525 4250 2034 4250 
z
M 2034 4750 
Q 2819 4750 3233 4129 
Q 3647 3509 3647 2328 
Q 3647 1150 3233 529 
Q 2819 -91 2034 -91 
Q 1250 -91 836 529 
Q 422 1150 422 2328 
Q 422 3509 836 4129 
Q 1250 4750 2034 4750 
z
" transform="scale(0.015625)"/>
        <path id="DejaVuSans-2e" d="M 684 794 
L 1344 794 
L 1344 0 
L 684 0 
L 684 794 
z
" transform="scale(0.015625)"/>
       </defs>
       <use xlink:href="#DejaVuSans-30"/>
       <use xlink:href="#DejaVuSans-2e" x="63.623047"/>
       <use xlink:href="#DejaVuSans-30" x="95.410156"/>
      </g>
     </g>
    </g>
    <g id="xtick_2">
     <g id="line2d_2">
      <g>
       <use xlink:href="#m030a7a3336" x="168.692836" y="318.2" style="stroke: #000000; stroke-width: 0.8"/>
      </g>
     </g>
     <g id="text_2">
      <!-- 0.2 -->
      <g transform="translate(160.741274 332.798437)scale(0.1 -0.1)">
       <defs>
        <path id="DejaVuSans-32" d="M 1228 531 
L 3431 531 
L 3431 0 
L 469 0 
L 469 531 
Q 828 903 1448 1529 
Q 2069 2156 2228 2338 
Q 2531 2678 2651 2914 
Q 2772 3150 2772 3378 
Q 2772 3750 2511 3984 
Q 2250 4219 1831 4219 
Q 1534 4219 1204 4116 
Q 875 4013 500 3803 
L 500 4441 
Q 881 4594 1212 4672 
Q 1544 4750 1819 4750 
Q 2544 4750 2975 4387 
Q 3406 4025 3406 3419 
Q 3406 3131 3298 2873 
Q 3191 2616 2906 2266 
Q 2828 2175 2409 1742 
Q 1991 1309 1228 531 
z
" transform="scale(0.015625)"/>
       </defs>
       <use xlink:href="#DejaVuSans-30"/>
       <use xlink:href="#DejaVuSans-2e" x="63.623047"/>
       <use xlink:href="#DejaVuSans-32" x="95.410156"/>
      </g>
     </g>
    </g>
    <g id="xtick_3">
     <g id="line2d_3">
      <g>
       <use xlink:href="#m030a7a3336" x="250.227559" y="318.2" style="stroke: #000000; stroke-width: 0.8"/>
      </g>
     </g>
     <g id="text_3">
      <!-- 0.4 -->
      <g transform="translate(242.275996 332.798437)scale(0.1 -0.1)">
       <defs>
        <path id="DejaVuSans-34" d="M 2419 4116 
L 825 1625 
L 2419 1625 
L 2419 4116 
z
M 2253 4666 
L 3047 4666 
L 3047 1625 
L 3713 1625 
L 3713 1100 
L 3047 1100 
L 3047 0 
L 2419 0 
L 2419 1100 
L 313 1100 
L 313 1709 
L 2253 4666 
z
" transform="scale(0.015625)"/>
       </defs>
       <use xlink:href="#DejaVuSans-30"/>
       <use xlink:href="#DejaVuSans-2e" x="63.623047"/>
       <use xlink:href="#DejaVuSans-34" x="95.410156"/>
      </g>
     </g>
    </g>
    <g id="xtick_4">
     <g id="line2d_4">
      <g>
       <use xlink:href="#m030a7a3336" x="331.762281" y="318.2" style="stroke: #000000; stroke-width: 0.8"/>
      </g>
     </g>
     <g id="text_4">
      <!-- 0.6 -->
      <g transform="translate(323.810719 332.798437)scale(0.1 -0.1)">
       <defs>
        <path id="DejaVuSans-36" d="M 2113 2584 
Q 1688 2584 1439 2293 
Q 1191 2003 1191 1497 
Q 1191 994 1439 701 
Q 1688 409 2113 409 
Q 2538 409 2786 701 
Q 3034 994 3034 1497 
Q 3034 2003 2786 2293 
Q 2538 2584 2113 2584 
z
M 3366 4563 
L 3366 3988 
Q 3128 4100 2886 4159 
Q 2644 4219 2406 4219 
Q 1781 4219 1451 3797 
Q 1122 3375 1075 2522 
Q 1259 2794 1537 2939 
Q 1816 3084 2150 3084 
Q 2853 3084 3261 2657 
Q 3669 2231 3669 1497 
Q 3669 778 3244 343 
Q 2819 -91 2113 -91 
Q 1303 -91 875 529 
Q 447 1150 447 2328 
Q 447 3434 972 4092 
Q 1497 4750 2381 4750 
Q 2619 4750 2861 4703 
Q 3103 4656 3366 4563 
z
" transform="scale(0.015625)"/>
       </defs>
       <use xlink:href="#DejaVuSans-30"/>
       <use xlink:href="#DejaVuSans-2e" x="63.623047"/>
       <use xlink:href="#DejaVuSans-36" x="95.410156"/>
      </g>
     </g>
    </g>
    <g id="xtick_5">
     <g id="line2d_5">
      <g>
       <use xlink:href="#m030a7a3336" x="413.297004" y="318.2" style="stroke: #000000; stroke-width: 0.8"/>
      </g>
     </g>
     <g id="text_5">
      <!-- 0.8 -->
      <g transform="translate(405.345441 332.798437)scale(0.1 -0.1)">
       <defs>
        <path id="DejaVuSans-38" d="M 2034 2216 
Q 1584 2216 1326 1975 
Q 1069 1734 1069 1313 
Q 1069 891 1326 650 
Q 1584 409 2034 409 
Q 2484 409 2743 651 
Q 3003 894 3003 1313 
Q 3003 1734 2745 1975 
Q 2488 2216 2034 2216 
z
M 1403 2484 
Q 997 2584 770 2862 
Q 544 3141 544 3541 
Q 544 4100 942 4425 
Q 1341 4750 2034 4750 
Q 2731 4750 3128 4425 
Q 3525 4100 3525 3541 
Q 3525 3141 3298 2862 
Q 3072 2584 2669 2484 
Q 3125 2378 3379 2068 
Q 3634 1759 3634 1313 
Q 3634 634 3220 271 
Q 2806 -91 2034 -91 
Q 1263 -91 848 271 
Q 434 634 434 1313 
Q 434 1759 690 2068 
Q 947 2378 1403 2484 
z
M 1172 3481 
Q 1172 3119 1398 2916 
Q 1625 2713 2034 2713 
Q 2441 2713 2670 2916 
Q 2900 3119 2900 3481 
Q 2900 3844 2670 4047 
Q 2441 4250 2034 4250 
Q 1625 4250 1398 4047 
Q 1172 3844 1172 3481 
z
" transform="scale(0.015625)"/>
       </defs>
       <use xlink:href="#DejaVuSans-30"/>
       <use xlink:href="#DejaVuSans-2e" x="63.623047"/>
       <use xlink:href="#DejaVuSans-38" x="95.410156"/>
      </g>
     </g>
    </g>
    <g id="text_6">
     <!-- seconds -->
     <g transform="translate(209.645249 346.476562)scale(0.1 -0.1)">
      <defs>
       <path id="DejaVuSans-73" d="M 2834 3397 
L 2834 2853 
Q 2591 2978 2328 3040 
Q 2066 3103 1784 3103 
Q 1356 3103 1142 2972 
Q 928 2841 928 2578 
Q 928 2378 1081 2264 
Q 1234 2150 1697 2047 
L 1894 2003 
Q 2506 1872 2764 1633 
Q 3022 1394 3022 966 
Q 3022 478 2636 193 
Q 2250 -91 1575 -91 
Q 1294 -91 989 -36 
Q 684 19 347 128 
L 347 722 
Q 666 556 975 473 
Q 1284 391 1588 391 
Q 1994 391 2212 530 
Q 2431 669 2431 922 
Q 2431 1156 2273 1281 
Q 2116 1406 1581 1522 
L 1381 1569 
Q 847 1681 609 1914 
Q 372 2147 372 2553 
Q 372 3047 722 3315 
Q 1072 3584 1716 3584 
Q 2034 3584 2315 3537 
Q 2597 3491 2834 3397 
z
" transform="scale(0.015625)"/>
       <path id="DejaVuSans-65" d="M 3597 1894 
L 3597 1613 
L 953 1613 
Q 991 1019 1311 708 
Q 1631 397 2203 397 
Q 2534 397 2845 478 
Q 3156 559 3463 722 
L 3463 178 
Q 3153 47 2828 -22 
Q 2503 -91 2169 -91 
Q 1331 -91 842 396 
Q 353 884 353 1716 
Q 353 2575 817 3079 
Q 1281 3584 2069 3584 
Q 2775 3584 3186 3129 
Q 3597 2675 3597 1894 
z
M 3022 2063 
Q 3016 2534 2758 2815 
Q 2500 3097 2075 3097 
Q 1594 3097 1305 2825 
Q 1016 2553 972 2059 
L 3022 2063 
z
" transform="scale(0.015625)"/>
       <path id="DejaVuSans-63" d="M 3122 3366 
L 3122 2828 
Q 2878 2963 2633 3030 
Q 2388 3097 2138 3097 
Q 1578 3097 1268 2742 
Q 959 2388 959 1747 
Q 959 1106 1268 751 
Q 1578 397 2138 397 
Q 2388 397 2633 464 
Q 2878 531 3122 666 
L 3122 134 
Q 2881 22 2623 -34 
Q 2366 -91 2075 -91 
Q 1284 -91 818 406 
Q 353 903 353 1747 
Q 353 2603 823 3093 
Q 1294 3584 2113 3584 
Q 2378 3584 2631 3529 
Q 2884 3475 3122 3366 
z
" transform="scale(0.015625)"/>
       <path id="DejaVuSans-6f" d="M 1959 3097 
Q 1497 3097 1228 2736 
Q 959 2375 959 1747 
Q 959 1119 1226 758 
Q 1494 397 1959 397 
Q 2419 397 2687 759 
Q 2956 1122 2956 1747 
Q 2956 2369 2687 2733 
Q 2419 3097 1959 3097 
z
M 1959 3584 
Q 2709 3584 3137 3096 
Q 3566 2609 3566 1747 
Q 3566 888 3137 398 
Q 2709 -91 1959 -91 
Q 1206 -91 779 398 
Q 353 888 353 1747 
Q 353 2609 779 3096 
Q 1206 3584 1959 3584 
z
" transform="scale(0.015625)"/>
       <path id="DejaVuSans-6e" d="M 3513 2113 
L 3513 0 
L 2938 0 
L 2938 2094 
Q 2938 2591 2744 2837 
Q 2550 3084 2163 3084 
Q 1697 3084 1428 2787 
Q 1159 2491 1159 1978 
L 1159 0 
L 581 0 
L 581 3500 
L 1159 3500 
L 1159 2956 
Q 1366 3272 1645 3428 
Q 1925 3584 2291 3584 
Q 2894 3584 3203 3211 
Q 3513 2838 3513 2113 
z
" transform="scale(0.015625)"/>
       <path id="DejaVuSans-64" d="M 2906 2969 
L 2906 4863 
L 3481 4863 
L 3481 0 
L 2906 0 
L 2906 525 
Q 2725 213 2448 61 
Q 2172 -91 1784 -91 
Q 1150 -91 751 415 
Q 353 922 353 1747 
Q 353 2572 751 3078 
Q 1150 3584 1784 3584 
Q 2172 3584 2448 3432 
Q 2725 3281 2906 2969 
z
M 947 1747 
Q 947 1113 1208 752 
Q 1469 391 1925 391 
Q 2381 391 2643 752 
Q 2906 1113 2906 1747 
Q 2906 2381 2643 2742 
Q 2381 3103 1925 3103 
Q 1469 3103 1208 2742 
Q 947 2381 947 1747 
z
" transform="scale(0.015625)"/>
      </defs>
      <use xlink:href="#DejaVuSans-73"/>
      <use xlink:href="#DejaVuSans-65" x="52.099609"/>
      <use xlink:href="#DejaVuSans-63" x="113.623047"/>
      <use xlink:href="#DejaVuSans-6f" x="168.603516"/>
      <use xlink:href="#DejaVuSans-6e" x="229.785156"/>
      <use xlink:href="#DejaVuSans-64" x="293.164062"/>
      <use xlink:href="#DejaVuSans-73" x="356.640625"/>
     </g>
    </g>
   </g>
   <g id="matplotlib.axis_2">
    <g id="ytick_1">
     <g id="line2d_6">
      <defs>
       <path id="m45d912dc3d" d="M 0 0 
L -3.5 0 
" style="stroke: #000000; stroke-width: 0.8"/>
      </defs>
      <g>
       <use xlink:href="#m45d912dc3d" x="46.55" y="314.230421" style="stroke: #000000; stroke-width: 0.8"/>
      </g>
     </g>
     <g id="text_7">
      <!-- 2 -->
      <g transform="translate(24.807812 318.02964)scale(0.1 -0.1)">
       <defs>
        <path id="DejaVuSans-2212" d="M 678 2272 
L 4684 2272 
L 4684 1741 
L 678 1741 
L 678 2272 
z
" transform="scale(0.015625)"/>
       </defs>
       <use xlink:href="#DejaVuSans-2212"/>
       <use xlink:href="#DejaVuSans-32" x="83.789062"/>
      </g>
     </g>
    </g>
    <g id="ytick_2">
     <g id="line2d_7">
      <g>
       <use xlink:href="#m45d912dc3d" x="46.55" y="281.677898" style="stroke: #000000; stroke-width: 0.8"/>
      </g>
     </g>
     <g id="text_8">
      <!-- 1 -->
      <g transform="translate(24.807812 285.477117)scale(0.1 -0.1)">
       <defs>
        <path id="DejaVuSans-31" d="M 794 531 
L 1825 531 
L 1825 4091 
L 703 3866 
L 703 4441 
L 1819 4666 
L 2450 4666 
L 2450 531 
L 3481 531 
L 3481 0 
L 794 0 
L 794 531 
z
" transform="scale(0.015625)"/>
       </defs>
       <use xlink:href="#DejaVuSans-2212"/>
       <use xlink:href="#DejaVuSans-31" x="83.789062"/>
      </g>
     </g>
    </g>
    <g id="ytick_3">
     <g id="line2d_8">
      <g>
       <use xlink:href="#m45d912dc3d" x="46.55" y="249.125375" style="stroke: #000000; stroke-width: 0.8"/>
      </g>
     </g>
     <g id="text_9">
      <!-- 0 -->
      <g transform="translate(33.1875 252.924593)scale(0.1 -0.1)">
       <use xlink:href="#DejaVuSans-30"/>
      </g>
     </g>
    </g>
    <g id="ytick_4">
     <g id="line2d_9">
      <g>
       <use xlink:href="#m45d912dc3d" x="46.55" y="216.572851" style="stroke: #000000; stroke-width: 0.8"/>
      </g>
     </g>
     <g id="text_10">
      <!-- 1 -->
      <g transform="translate(33.1875 220.37207)scale(0.1 -0.1)">
       <use xlink:href="#DejaVuSans-31"/>
      </g>
     </g>
    </g>
    <g id="ytick_5">
     <g id="line2d_10">
      <g>
       <use xlink:href="#m45d912dc3d" x="46.55" y="184.020328" style="stroke: #000000; stroke-width: 0.8"/>
      </g>
     </g>
     <g id="text_11">
      <!-- 2 -->
      <g transform="translate(33.1875 187.819547)scale(0.1 -0.1)">
       <use xlink:href="#DejaVuSans-32"/>
      </g>
     </g>
    </g>
    <g id="ytick_6">
     <g id="line2d_11">
      <g>
       <use xlink:href="#m45d912dc3d" x="46.55" y="151.467805" style="stroke: #000000; stroke-width: 0.8"/>
      </g>
     </g>
     <g id="text_12">
      <!-- 3 -->
      <g transform="translate(33.1875 155.267024)scale(0.1 -0.1)">
       <defs>
        <path id="DejaVuSans-33" d="M 2597 2516 
Q 3050 2419 3304 2112 
Q 3559 1806 3559 1356 
Q 3559 666 3084 287 
Q 2609 -91 1734 -91 
Q 1441 -91 1130 -33 
Q 819 25 488 141 
L 488 750 
Q 750 597 1062 519 
Q 1375 441 1716 441 
Q 2309 441 2620 675 
Q 2931 909 2931 1356 
Q 2931 1769 2642 2001 
Q 2353 2234 1838 2234 
L 1294 2234 
L 1294 2753 
L 1863 2753 
Q 2328 2753 2575 2939 
Q 2822 3125 2822 3475 
Q 2822 3834 2567 4026 
Q 2313 4219 1838 4219 
Q 1578 4219 1281 4162 
Q 984 4106 628 3988 
L 628 4550 
Q 988 4650 1302 4700 
Q 1616 4750 1894 4750 
Q 2613 4750 3031 4423 
Q 3450 4097 3450 3541 
Q 3450 3153 3228 2886 
Q 3006 2619 2597 2516 
z
" transform="scale(0.015625)"/>
       </defs>
       <use xlink:href="#DejaVuSans-33"/>
      </g>
     </g>
    </g>
    <g id="ytick_7">
     <g id="line2d_12">
      <g>
       <use xlink:href="#m45d912dc3d" x="46.55" y="118.915282" style="stroke: #000000; stroke-width: 0.8"/>
      </g>
     </g>
     <g id="text_13">
      <!-- 4 -->
      <g transform="translate(33.1875 122.714501)scale(0.1 -0.1)">
       <use xlink:href="#DejaVuSans-34"/>
      </g>
     </g>
    </g>
    <g id="ytick_8">
     <g id="line2d_13">
      <g>
       <use xlink:href="#m45d912dc3d" x="46.55" y="86.362759" style="stroke: #000000; stroke-width: 0.8"/>
      </g>
     </g>
     <g id="text_14">
      <!-- 5 -->
      <g transform="translate(33.1875 90.161977)scale(0.1 -0.1)">
       <defs>
        <path id="DejaVuSans-35" d="M 691 4666 
L 3169 4666 
L 3169 4134 
L 1269 4134 
L 1269 2991 
Q 1406 3038 1543 3061 
Q 1681 3084 1819 3084 
Q 2600 3084 3056 2656 
Q 3513 2228 3513 1497 
Q 3513 744 3044 326 
Q 2575 -91 1722 -91 
Q 1428 -91 1123 -41 
Q 819 9 494 109 
L 494 744 
Q 775 591 1075 516 
Q 1375 441 1709 441 
Q 2250 441 2565 725 
Q 2881 1009 2881 1497 
Q 2881 1984 2565 2268 
Q 2250 2553 1709 2553 
Q 1456 2553 1204 2497 
Q 953 2441 691 2322 
L 691 4666 
z
" transform="scale(0.015625)"/>
       </defs>
       <use xlink:href="#DejaVuSans-35"/>
      </g>
     </g>
    </g>
    <g id="text_15">
     <!-- V -->
     <g transform="translate(18.728125 201.322125)rotate(-90)scale(0.1 -0.1)">
      <defs>
       <path id="DejaVuSans-b5" d="M 544 -1331 
L 544 3500 
L 1119 3500 
L 1119 1325 
Q 1119 872 1334 640 
Q 1550 409 1972 409 
Q 2434 409 2667 671 
Q 2900 934 2900 1459 
L 2900 3500 
L 3475 3500 
L 3475 806 
Q 3475 619 3529 530 
Q 3584 441 3700 441 
Q 3728 441 3778 458 
Q 3828 475 3916 513 
L 3916 50 
Q 3788 -22 3673 -56 
Q 3559 -91 3450 -91 
Q 3234 -91 3106 31 
Q 2978 153 2931 403 
Q 2775 156 2548 32 
Q 2322 -91 2016 -91 
Q 1697 -91 1473 31 
Q 1250 153 1119 397 
L 1119 -1331 
L 544 -1331 
z
" transform="scale(0.015625)"/>
       <path id="DejaVuSans-56" d="M 1831 0 
L 50 4666 
L 709 4666 
L 2188 738 
L 3669 4666 
L 4325 4666 
L 2547 0 
L 1831 0 
z
" transform="scale(0.015625)"/>
      </defs>
      <use xlink:href="#DejaVuSans-b5"/>
      <use xlink:href="#DejaVuSans-56" x="63.623047"/>
     </g>
    </g>
   </g>
   <g id="line2d_14">
    <path d="M 46.55 254.868853 
L 47.346238 254.60834 
L 48.938713 253.777219 
L 49.73495 253.551989 
L 50.531188 253.79671 
L 51.327425 254.712718 
L 52.123663 256.29662 
L 53.716138 259.97631 
L 54.512375 260.744027 
L 55.308613 259.898105 
L 56.10485 257.128017 
L 56.901088 252.634532 
L 58.493563 241.688609 
L 59.2898 237.368927 
L 60.086038 234.934092 
L 60.882275 234.585422 
L 61.678513 235.924995 
L 63.270988 240.22204 
L 64.067226 241.488884 
L 64.863463 241.630598 
L 65.659701 240.851763 
L 66.455938 239.718595 
L 67.252176 238.900404 
L 68.048413 238.901065 
L 68.844651 239.885456 
L 69.640888 241.653559 
L 71.233363 245.663082 
L 72.029601 246.984908 
L 72.825838 247.533679 
L 73.622076 247.348586 
L 74.418313 246.625986 
L 76.010788 244.642776 
L 76.807026 243.933728 
L 77.603263 243.792212 
L 78.399501 244.508196 
L 79.195739 246.318931 
L 79.991976 249.304108 
L 81.584451 257.70898 
L 82.380689 261.827601 
L 83.176926 264.758642 
L 83.973164 265.805269 
L 84.769401 264.693431 
L 85.565639 261.708727 
L 87.158114 253.598155 
L 87.954351 250.584577 
L 88.750589 249.26623 
L 89.546826 249.74088 
L 90.343064 251.567227 
L 91.935539 256.181589 
L 92.731776 257.663895 
L 93.528014 258.312328 
L 94.324251 258.375318 
L 95.120489 258.25461 
L 95.916727 258.249685 
L 96.712964 258.371485 
L 97.509202 258.310128 
L 98.305439 257.575436 
L 99.101677 255.747424 
L 99.897914 252.719066 
L 102.286627 241.385429 
L 103.082864 239.417804 
L 103.879102 239.150228 
L 104.675339 240.368755 
L 106.267814 244.528353 
L 107.064052 245.942431 
L 107.860289 246.315295 
L 108.656527 245.708703 
L 110.249002 243.280264 
L 111.04524 242.41891 
L 111.841477 242.118023 
L 112.637715 242.290573 
L 114.23019 243.058372 
L 115.822665 243.548107 
L 116.618902 244.00738 
L 117.41514 244.913995 
L 118.211377 246.329651 
L 119.803852 249.757788 
L 120.60009 250.944309 
L 121.396327 251.329505 
L 122.192565 250.896921 
L 123.78504 249.041904 
L 124.581277 248.715581 
L 125.377515 249.338506 
L 126.173752 250.922094 
L 127.766228 255.31939 
L 128.562465 256.957592 
L 129.358703 257.676934 
L 130.15494 257.512864 
L 130.951178 256.883015 
L 131.747415 256.4329 
L 132.543653 256.784339 
L 133.33989 258.285314 
L 134.136128 260.859512 
L 135.728603 266.972995 
L 136.52484 268.967085 
L 137.321078 269.441811 
L 138.117315 268.238997 
L 138.913553 265.615993 
L 141.302265 255.099808 
L 142.098503 252.396308 
L 142.89474 250.358999 
L 143.690978 248.819384 
L 145.283453 246.412469 
L 146.079691 245.388695 
L 146.875928 244.594616 
L 147.672166 244.176022 
L 148.468403 244.202826 
L 149.264641 244.593594 
L 150.060878 245.112044 
L 150.857116 245.441268 
L 151.653353 245.30351 
L 152.449591 244.577127 
L 154.042066 241.940395 
L 154.838303 240.695956 
L 155.634541 239.939775 
L 156.430778 239.792397 
L 158.023253 240.538312 
L 158.819491 240.572032 
L 159.615729 239.75888 
L 160.411966 237.811816 
L 161.208204 234.69458 
L 162.800679 225.979311 
L 164.393154 216.711278 
L 165.189391 212.728523 
L 165.985629 209.370566 
L 166.781866 206.629147 
L 167.578104 204.442964 
L 168.374341 202.754984 
L 169.170579 201.543018 
L 169.966816 200.81883 
L 170.763054 200.600427 
L 171.559291 200.877689 
L 172.355529 201.589193 
L 173.948004 203.811048 
L 175.540479 206.071156 
L 176.336717 206.929065 
L 177.132954 207.565749 
L 178.725429 208.407646 
L 180.317904 209.330599 
L 181.114142 210.03468 
L 182.706617 211.957785 
L 184.299092 213.873927 
L 185.095329 214.402199 
L 185.891567 214.421245 
L 186.687804 213.84024 
L 187.484042 212.670058 
L 189.076517 209.165623 
L 189.872754 207.348606 
L 190.668992 205.880302 
L 191.46523 204.998972 
L 192.261467 204.827066 
L 193.057705 205.330002 
L 195.446417 208.231935 
L 196.242655 208.341116 
L 197.038892 207.427467 
L 197.83513 205.3595 
L 198.631367 202.237888 
L 201.02008 190.597809 
L 201.816317 187.688977 
L 202.612555 185.882666 
L 203.408792 185.182226 
L 204.20503 185.310768 
L 205.001267 185.79232 
L 205.797505 186.092547 
L 206.593742 185.778808 
L 207.38998 184.654934 
L 208.186218 182.824847 
L 209.778693 178.709206 
L 210.57493 177.493273 
L 211.371168 177.378712 
L 212.167405 178.437383 
L 212.963643 180.417258 
L 214.556118 184.933125 
L 215.352355 186.189978 
L 216.148593 186.124124 
L 216.94483 184.559663 
L 217.741068 181.609133 
L 219.333543 173.080337 
L 220.926018 164.285677 
L 221.722255 160.759789 
L 222.518493 158.059719 
L 223.31473 156.198183 
L 224.110968 155.094041 
L 224.907206 154.613104 
L 225.703443 154.602572 
L 226.499681 154.916054 
L 228.092156 156.043648 
L 230.480868 158.067304 
L 232.073343 159.674814 
L 232.869581 160.691773 
L 233.665818 161.913494 
L 235.258293 165.021729 
L 237.647006 170.299801 
L 238.443243 171.532999 
L 239.239481 172.096717 
L 240.035719 171.783242 
L 240.831956 170.500017 
L 241.628194 168.329 
L 244.016906 160.169973 
L 244.813144 158.642413 
L 245.609381 158.40631 
L 246.405619 159.501082 
L 247.201856 161.623745 
L 248.794331 166.466534 
L 249.590569 167.802851 
L 250.386806 167.795877 
L 251.183044 166.436046 
L 253.571756 159.5 
L 254.367994 158.616642 
L 255.164231 159.172271 
L 255.960469 160.984835 
L 257.552944 165.738393 
L 258.349182 166.985167 
L 259.145419 166.593379 
L 259.941657 164.379624 
L 260.737894 160.626114 
L 263.126607 147.351831 
L 263.922844 144.592104 
L 264.719082 143.09611 
L 265.515319 142.519538 
L 266.311557 142.236623 
L 267.107794 141.550508 
L 267.904032 139.915577 
L 268.700269 137.100998 
L 269.496507 133.251896 
L 271.088982 124.49546 
L 271.88522 120.864602 
L 272.681457 118.398731 
L 273.477695 117.276809 
L 274.273932 117.390633 
L 275.07017 118.417547 
L 277.458882 123.017619 
L 278.25512 124.152092 
L 279.051357 124.938457 
L 279.847595 125.397852 
L 280.643832 125.55297 
L 281.44007 125.407276 
L 282.236307 124.96035 
L 283.828782 123.406035 
L 284.62502 122.653764 
L 285.421257 122.304737 
L 286.217495 122.681472 
L 287.013732 124.02446 
L 287.80997 126.401543 
L 288.606208 129.655794 
L 290.198683 137.131837 
L 290.99492 140.236739 
L 291.791158 142.216432 
L 292.587395 142.744881 
L 293.383633 141.746532 
L 294.17987 139.413674 
L 297.36482 126.876816 
L 298.161058 125.661678 
L 298.957295 125.784235 
L 299.753533 127.068436 
L 301.346008 131.181882 
L 302.142245 132.749114 
L 302.938483 133.269666 
L 303.73472 132.527476 
L 304.530958 130.676545 
L 306.123433 125.914732 
L 306.919671 124.522916 
L 307.715908 124.650017 
L 308.512146 126.555591 
L 309.308383 130.096104 
L 310.900858 139.954516 
L 312.493333 149.319001 
L 313.289571 152.868215 
L 314.085808 155.670064 
L 314.882046 157.933053 
L 316.474521 161.507261 
L 317.270758 162.793852 
L 318.066996 163.511042 
L 318.863233 163.467595 
L 319.659471 162.613625 
L 320.455709 161.115205 
L 322.048184 157.752594 
L 322.844421 156.763653 
L 323.640659 156.588825 
L 324.436896 157.183372 
L 326.825609 160.377267 
L 327.621846 160.839895 
L 328.418084 160.873545 
L 330.010559 160.639781 
L 330.806796 160.975137 
L 331.603034 161.86906 
L 332.399271 163.329009 
L 333.195509 165.244035 
L 334.787984 169.849848 
L 337.176697 177.633888 
L 338.769172 182.706854 
L 339.565409 184.654031 
L 340.361647 185.880397 
L 341.157884 186.256505 
L 341.954122 185.832097 
L 342.750359 184.840531 
L 344.342834 182.55542 
L 345.139072 181.839562 
L 345.935309 181.521416 
L 347.527784 181.367701 
L 348.324022 181.015902 
L 349.120259 180.24882 
L 349.916497 179.077518 
L 352.30521 174.897898 
L 353.101447 173.891458 
L 353.897685 173.20112 
L 354.693922 172.797125 
L 355.49016 172.643178 
L 356.286397 172.732799 
L 357.082635 173.085322 
L 357.878872 173.69969 
L 359.471347 175.284533 
L 360.267585 175.797628 
L 361.063822 175.778183 
L 361.86006 175.099787 
L 362.656297 173.860542 
L 363.452535 172.397546 
L 364.248772 171.201794 
L 365.04501 170.757445 
L 365.841247 171.364144 
L 366.637485 173.017316 
L 369.822435 182.402859 
L 371.41491 185.717378 
L 372.211148 188.074818 
L 373.007385 191.527149 
L 373.803623 196.151014 
L 375.396098 206.924437 
L 376.192335 211.31909 
L 376.988573 213.935885 
L 377.78481 214.4202 
L 378.581048 212.998406 
L 380.173523 207.706709 
L 380.96976 205.846908 
L 381.765998 205.469765 
L 382.562235 206.684091 
L 383.358473 209.086689 
L 384.950948 214.451951 
L 385.747186 216.018052 
L 386.543423 216.401641 
L 387.339661 215.739724 
L 388.932136 212.924462 
L 389.728373 211.580658 
L 391.320848 209.61156 
L 392.117086 208.600166 
L 392.913323 207.188313 
L 393.709561 205.181365 
L 394.505798 202.552131 
L 396.098273 196.08064 
L 397.690748 189.536282 
L 400.079461 181.033515 
L 402.468174 172.86282 
L 403.264411 170.561269 
L 404.060649 168.863301 
L 404.856886 167.981485 
L 405.653124 168.015249 
L 406.449361 168.920364 
L 407.245599 170.522946 
L 408.838074 174.809338 
L 410.430549 179.094477 
L 412.023024 182.598517 
L 412.819261 183.996803 
L 413.615499 185.107975 
L 413.615499 185.107975 
" clip-path="url(#pefccbfcc9b)" style="fill: none; stroke: #e41a1c; stroke-width: 1.5; stroke-linecap: square"/>
   </g>
   <g id="line2d_15">
    <path d="M 46.55 242.50487 
L 47.346238 241.897633 
L 48.938713 240.270613 
L 49.73495 239.833717 
L 50.531188 239.960953 
L 51.327425 240.721588 
L 52.123663 242.011796 
L 53.716138 245.106194 
L 54.512375 246.288715 
L 55.308613 246.943458 
L 56.10485 247.046048 
L 56.901088 246.726748 
L 58.493563 245.749224 
L 59.2898 245.514089 
L 60.086038 245.58264 
L 60.882275 245.925276 
L 62.47475 247.043026 
L 64.863463 248.714642 
L 66.455938 249.533854 
L 67.252176 249.703711 
L 68.048413 249.607698 
L 68.844651 249.225338 
L 70.437126 248.06016 
L 71.233363 247.753461 
L 72.029601 247.977848 
L 72.825838 248.864371 
L 73.622076 250.341286 
L 75.214551 253.774214 
L 76.010788 254.860882 
L 76.807026 255.092696 
L 77.603263 254.447061 
L 79.195739 251.849704 
L 79.991976 250.958791 
L 80.788214 250.964308 
L 81.584451 252.029583 
L 82.380689 253.989586 
L 83.973164 258.758515 
L 84.769401 260.567232 
L 85.565639 261.618388 
L 86.361876 261.992844 
L 87.954351 262.13888 
L 88.750589 262.705295 
L 89.546826 263.857143 
L 91.139301 267.102011 
L 91.935539 268.346037 
L 92.731776 268.790334 
L 93.528014 268.268825 
L 94.324251 266.902411 
L 95.916727 263.235925 
L 96.712964 261.888991 
L 97.509202 261.306295 
L 98.305439 261.530394 
L 99.101677 262.371954 
L 100.694152 264.526624 
L 101.490389 265.180236 
L 102.286627 265.305372 
L 103.082864 264.906716 
L 103.879102 264.106696 
L 106.267814 261.108672 
L 107.064052 260.420535 
L 107.860289 260.04263 
L 108.656527 260.005406 
L 109.452764 260.292123 
L 111.04524 261.480261 
L 111.841477 262.068019 
L 112.637715 262.407632 
L 113.433952 262.36485 
L 114.23019 261.906791 
L 116.618902 259.438911 
L 117.41514 258.990592 
L 118.211377 258.974265 
L 119.007615 259.339478 
L 120.60009 260.443907 
L 121.396327 260.75642 
L 122.192565 260.780008 
L 123.78504 260.460659 
L 124.581277 260.580291 
L 125.377515 261.125926 
L 126.173752 262.079189 
L 127.766228 264.210673 
L 128.562465 264.675759 
L 129.358703 264.391881 
L 130.15494 263.373352 
L 131.747415 260.454897 
L 132.543653 259.549997 
L 133.33989 259.572439 
L 134.136128 260.633308 
L 134.932365 262.520429 
L 136.52484 266.764846 
L 137.321078 268.033361 
L 138.117315 268.304807 
L 138.913553 267.641096 
L 140.506028 265.063022 
L 141.302265 264.133581 
L 142.098503 263.886873 
L 142.89474 264.313959 
L 144.487216 265.846914 
L 145.283453 266.011385 
L 146.079691 265.301424 
L 146.875928 263.669926 
L 150.060878 254.688403 
L 150.857116 253.72288 
L 151.653353 253.447898 
L 154.042066 253.758036 
L 154.838303 253.352588 
L 157.227016 251.111115 
L 158.023253 250.823192 
L 158.819491 251.029959 
L 159.615729 251.680358 
L 162.004441 254.2694 
L 162.800679 254.676344 
L 163.596916 254.730053 
L 164.393154 254.509652 
L 165.985629 253.818327 
L 166.781866 253.627056 
L 167.578104 253.665505 
L 168.374341 253.973838 
L 169.170579 254.555797 
L 169.966816 255.38229 
L 173.151766 259.27775 
L 173.948004 259.714803 
L 174.744241 259.74 
L 175.540479 259.407899 
L 177.132954 258.440069 
L 177.929192 258.312027 
L 178.725429 258.676231 
L 179.521667 259.544101 
L 181.114142 261.961378 
L 181.910379 262.831423 
L 182.706617 263.061748 
L 183.502854 262.535341 
L 184.299092 261.362317 
L 185.891567 258.447988 
L 186.687804 257.549077 
L 187.484042 257.441003 
L 188.280279 258.194103 
L 189.076517 259.660168 
L 191.46523 265.05054 
L 192.261467 266.167372 
L 193.057705 266.723919 
L 193.853942 266.776559 
L 194.65018 266.444911 
L 195.446417 265.85453 
L 197.038892 264.257249 
L 198.631367 262.59827 
L 199.427605 262.049786 
L 200.223842 261.945871 
L 201.02008 262.485646 
L 201.816317 263.793629 
L 202.612555 265.85404 
L 205.001267 273.92426 
L 205.797505 275.871111 
L 206.593742 276.834003 
L 207.38998 276.683532 
L 208.186218 275.509212 
L 208.982455 273.586953 
L 211.371168 267.033511 
L 212.167405 265.480178 
L 212.963643 264.340393 
L 214.556118 262.787519 
L 216.148593 261.494015 
L 216.94483 260.996232 
L 217.741068 260.786717 
L 218.537305 261.015142 
L 219.333543 261.755992 
L 220.12978 262.969737 
L 223.31473 269.105653 
L 224.907206 271.286154 
L 226.499681 273.411386 
L 228.888393 276.827418 
L 229.684631 277.471838 
L 230.480868 277.629439 
L 231.277106 277.314108 
L 233.665818 275.538372 
L 234.462056 275.542196 
L 235.258293 276.111193 
L 236.054531 277.208145 
L 237.647006 280.31808 
L 239.239481 283.335401 
L 240.035719 284.489846 
L 240.831956 285.358136 
L 241.628194 285.939445 
L 242.424431 286.229404 
L 243.220669 286.212865 
L 244.016906 285.880233 
L 244.813144 285.255613 
L 247.201856 282.708201 
L 247.998094 282.158605 
L 248.794331 281.950983 
L 249.590569 282.069919 
L 251.979281 282.955392 
L 252.775519 282.874845 
L 253.571756 282.4956 
L 255.960469 280.873654 
L 256.756707 280.780849 
L 257.552944 281.096568 
L 258.349182 281.781773 
L 260.737894 284.516775 
L 261.534132 285.079679 
L 262.330369 285.28499 
L 263.126607 285.113274 
L 263.922844 284.588273 
L 264.719082 283.755019 
L 265.515319 282.664972 
L 267.107794 279.938085 
L 269.496507 275.571052 
L 271.088982 273.3304 
L 272.681457 271.71167 
L 275.866407 268.810866 
L 276.662645 268.263936 
L 277.458882 267.940689 
L 278.25512 267.863831 
L 280.643832 268.201514 
L 281.44007 268.018031 
L 282.236307 267.539486 
L 284.62502 265.367005 
L 285.421257 265.004041 
L 286.217495 265.038181 
L 287.013732 265.449911 
L 288.606208 266.903522 
L 290.198683 268.309249 
L 292.587395 270.149588 
L 294.976108 272.359732 
L 295.772345 272.826571 
L 296.568583 273.041174 
L 298.161058 273.155743 
L 298.957295 273.49511 
L 299.753533 274.291485 
L 300.54977 275.578288 
L 302.142245 278.762734 
L 302.938483 279.880512 
L 303.73472 280.165434 
L 304.530958 279.429859 
L 305.327196 277.739141 
L 308.512146 268.601918 
L 309.308383 267.326082 
L 310.104621 266.529244 
L 312.493333 264.872512 
L 314.882046 262.799119 
L 315.678283 262.416293 
L 316.474521 262.300698 
L 317.270758 262.421352 
L 318.066996 262.721835 
L 318.863233 263.170051 
L 319.659471 263.784534 
L 320.455709 264.617927 
L 321.251946 265.70185 
L 323.640659 269.378518 
L 324.436896 269.968868 
L 325.233134 269.915252 
L 326.029371 269.273465 
L 327.621846 267.544125 
L 328.418084 267.378549 
L 329.214321 268.14738 
L 330.010559 269.87138 
L 332.399271 276.699754 
L 333.195509 277.713984 
L 333.991746 277.620397 
L 334.787984 276.636056 
L 336.380459 274.097135 
L 337.176697 273.631331 
L 337.972934 274.066223 
L 338.769172 275.257994 
L 340.361647 278.1032 
L 341.157884 278.762209 
L 341.954122 278.545528 
L 342.750359 277.540105 
L 344.342834 274.61508 
L 345.139072 273.526494 
L 345.935309 273.00676 
L 346.731547 272.999009 
L 348.324022 273.384134 
L 349.120259 273.126706 
L 349.916497 272.333375 
L 350.712734 271.076798 
L 352.30521 268.250496 
L 353.101447 267.315736 
L 353.897685 266.981571 
L 354.693922 267.262629 
L 355.49016 268.021001 
L 357.082635 270.018887 
L 357.878872 270.801106 
L 358.67511 271.250662 
L 359.471347 271.337159 
L 360.267585 271.098884 
L 361.063822 270.612109 
L 362.656297 269.237818 
L 364.248772 267.84633 
L 365.04501 267.310845 
L 365.841247 266.9431 
L 366.637485 266.749371 
L 369.026198 266.612643 
L 369.822435 266.391098 
L 370.618673 265.965394 
L 372.211148 264.650594 
L 373.007385 263.978386 
L 373.803623 263.459842 
L 374.59986 263.162877 
L 375.396098 263.076953 
L 379.377285 263.193633 
L 380.173523 263.483741 
L 380.96976 264.227067 
L 381.765998 265.530295 
L 383.358473 269.399708 
L 384.15471 271.32568 
L 384.950948 272.67576 
L 385.747186 273.100406 
L 386.543423 272.458008 
L 387.339661 270.876081 
L 388.932136 266.532776 
L 389.728373 264.790327 
L 390.524611 263.83729 
L 391.320848 263.742279 
L 392.117086 264.294327 
L 392.913323 265.081729 
L 393.709561 265.635126 
L 394.505798 265.584483 
L 395.302036 264.776625 
L 396.098273 263.315771 
L 397.690748 259.786605 
L 398.486986 258.493277 
L 399.283223 257.843305 
L 400.079461 257.833295 
L 400.875699 258.272793 
L 402.468174 259.343254 
L 403.264411 259.51432 
L 404.060649 259.353183 
L 408.838074 257.029534 
L 409.634311 256.192125 
L 410.430549 254.841677 
L 411.226786 252.969336 
L 413.615499 246.193008 
L 413.615499 246.193008 
" clip-path="url(#pefccbfcc9b)" style="fill: none; stroke: #377eb8; stroke-width: 1.5; stroke-linecap: square"/>
   </g>
   <g id="line2d_16">
    <path d="M 87.158114 318.2 
L 87.158114 71.241125 
" clip-path="url(#pefccbfcc9b)" style="fill: none; stroke: #000000; stroke-width: 0.5; stroke-linecap: square"/>
   </g>
   <g id="line2d_17">
    <path d="M 46.55 249.125375 
L 413.615499 249.125375 
" clip-path="url(#pefccbfcc9b)" style="fill: none; stroke: #000000; stroke-width: 0.5; stroke-linecap: square"/>
   </g>
   <g id="patch_4">
    <path d="M 46.55 318.2 
L 46.55 71.241125 
" style="fill: none; stroke: #000000; stroke-width: 0.8; stroke-linejoin: miter; stroke-linecap: square"/>
   </g>
   <g id="patch_5">
    <path d="M 413.615499 318.2 
L 413.615499 71.241125 
" style="fill: none; stroke: #000000; stroke-width: 0.8; stroke-linejoin: miter; stroke-linecap: square"/>
   </g>
   <g id="patch_6">
    <path d="M 46.55 318.2 
L 413.615499 318.2 
" style="fill: none; stroke: #000000; stroke-width: 0.8; stroke-linejoin: miter; stroke-linecap: square"/>
   </g>
   <g id="patch_7">
    <path d="M 46.55 71.241125 
L 413.615499 71.241125 
" style="fill: none; stroke: #000000; stroke-width: 0.8; stroke-linejoin: miter; stroke-linecap: square"/>
   </g>
   <g id="text_16">
    <!-- Cz -->
    <g transform="translate(222.743999 65.241125)scale(0.12 -0.12)">
     <defs>
      <path id="DejaVuSans-43" d="M 4122 4306 
L 4122 3641 
Q 3803 3938 3442 4084 
Q 3081 4231 2675 4231 
Q 1875 4231 1450 3742 
Q 1025 3253 1025 2328 
Q 1025 1406 1450 917 
Q 1875 428 2675 428 
Q 3081 428 3442 575 
Q 3803 722 4122 1019 
L 4122 359 
Q 3791 134 3420 21 
Q 3050 -91 2638 -91 
Q 1578 -91 968 557 
Q 359 1206 359 2328 
Q 359 3453 968 4101 
Q 1578 4750 2638 4750 
Q 3056 4750 3426 4639 
Q 3797 4528 4122 4306 
z
" transform="scale(0.015625)"/>
      <path id="DejaVuSans-7a" d="M 353 3500 
L 3084 3500 
L 3084 2975 
L 922 459 
L 3084 459 
L 3084 0 
L 275 0 
L 275 525 
L 2438 3041 
L 353 3041 
L 353 3500 
z
" transform="scale(0.015625)"/>
     </defs>
     <use xlink:href="#DejaVuSans-43"/>
     <use xlink:href="#DejaVuSans-7a" x="69.824219"/>
    </g>
   </g>
   <g id="legend_1">
    <g id="patch_8">
     <path d="M 99.855406 48.044893 
L 360.310093 48.044893 
Q 362.310093 48.044893 362.310093 46.044893 
L 362.310093 17.410517 
Q 362.310093 15.410517 360.310093 15.410517 
L 99.855406 15.410517 
Q 97.855406 15.410517 97.855406 17.410517 
L 97.855406 46.044893 
Q 97.855406 48.044893 99.855406 48.044893 
z
" style="fill: #ffffff; opacity: 0.8; stroke: #cccccc; stroke-linejoin: miter"/>
    </g>
    <g id="text_17">
     <!-- Average of Session 8_tac4 -->
     <g transform="translate(164.249937 27.008955)scale(0.1 -0.1)">
      <defs>
       <path id="DejaVuSans-41" d="M 2188 4044 
L 1331 1722 
L 3047 1722 
L 2188 4044 
z
M 1831 4666 
L 2547 4666 
L 4325 0 
L 3669 0 
L 3244 1197 
L 1141 1197 
L 716 0 
L 50 0 
L 1831 4666 
z
" transform="scale(0.015625)"/>
       <path id="DejaVuSans-76" d="M 191 3500 
L 800 3500 
L 1894 563 
L 2988 3500 
L 3597 3500 
L 2284 0 
L 1503 0 
L 191 3500 
z
" transform="scale(0.015625)"/>
       <path id="DejaVuSans-72" d="M 2631 2963 
Q 2534 3019 2420 3045 
Q 2306 3072 2169 3072 
Q 1681 3072 1420 2755 
Q 1159 2438 1159 1844 
L 1159 0 
L 581 0 
L 581 3500 
L 1159 3500 
L 1159 2956 
Q 1341 3275 1631 3429 
Q 1922 3584 2338 3584 
Q 2397 3584 2469 3576 
Q 2541 3569 2628 3553 
L 2631 2963 
z
" transform="scale(0.015625)"/>
       <path id="DejaVuSans-61" d="M 2194 1759 
Q 1497 1759 1228 1600 
Q 959 1441 959 1056 
Q 959 750 1161 570 
Q 1363 391 1709 391 
Q 2188 391 2477 730 
Q 2766 1069 2766 1631 
L 2766 1759 
L 2194 1759 
z
M 3341 1997 
L 3341 0 
L 2766 0 
L 2766 531 
Q 2569 213 2275 61 
Q 1981 -91 1556 -91 
Q 1019 -91 701 211 
Q 384 513 384 1019 
Q 384 1609 779 1909 
Q 1175 2209 1959 2209 
L 2766 2209 
L 2766 2266 
Q 2766 2663 2505 2880 
Q 2244 3097 1772 3097 
Q 1472 3097 1187 3025 
Q 903 2953 641 2809 
L 641 3341 
Q 956 3463 1253 3523 
Q 1550 3584 1831 3584 
Q 2591 3584 2966 3190 
Q 3341 2797 3341 1997 
z
" transform="scale(0.015625)"/>
       <path id="DejaVuSans-67" d="M 2906 1791 
Q 2906 2416 2648 2759 
Q 2391 3103 1925 3103 
Q 1463 3103 1205 2759 
Q 947 2416 947 1791 
Q 947 1169 1205 825 
Q 1463 481 1925 481 
Q 2391 481 2648 825 
Q 2906 1169 2906 1791 
z
M 3481 434 
Q 3481 -459 3084 -895 
Q 2688 -1331 1869 -1331 
Q 1566 -1331 1297 -1286 
Q 1028 -1241 775 -1147 
L 775 -588 
Q 1028 -725 1275 -790 
Q 1522 -856 1778 -856 
Q 2344 -856 2625 -561 
Q 2906 -266 2906 331 
L 2906 616 
Q 2728 306 2450 153 
Q 2172 0 1784 0 
Q 1141 0 747 490 
Q 353 981 353 1791 
Q 353 2603 747 3093 
Q 1141 3584 1784 3584 
Q 2172 3584 2450 3431 
Q 2728 3278 2906 2969 
L 2906 3500 
L 3481 3500 
L 3481 434 
z
" transform="scale(0.015625)"/>
       <path id="DejaVuSans-20" transform="scale(0.015625)"/>
       <path id="DejaVuSans-66" d="M 2375 4863 
L 2375 4384 
L 1825 4384 
Q 1516 4384 1395 4259 
Q 1275 4134 1275 3809 
L 1275 3500 
L 2222 3500 
L 2222 3053 
L 1275 3053 
L 1275 0 
L 697 0 
L 697 3053 
L 147 3053 
L 147 3500 
L 697 3500 
L 697 3744 
Q 697 4328 969 4595 
Q 1241 4863 1831 4863 
L 2375 4863 
z
" transform="scale(0.015625)"/>
       <path id="DejaVuSans-53" d="M 3425 4513 
L 3425 3897 
Q 3066 4069 2747 4153 
Q 2428 4238 2131 4238 
Q 1616 4238 1336 4038 
Q 1056 3838 1056 3469 
Q 1056 3159 1242 3001 
Q 1428 2844 1947 2747 
L 2328 2669 
Q 3034 2534 3370 2195 
Q 3706 1856 3706 1288 
Q 3706 609 3251 259 
Q 2797 -91 1919 -91 
Q 1588 -91 1214 -16 
Q 841 59 441 206 
L 441 856 
Q 825 641 1194 531 
Q 1563 422 1919 422 
Q 2459 422 2753 634 
Q 3047 847 3047 1241 
Q 3047 1584 2836 1778 
Q 2625 1972 2144 2069 
L 1759 2144 
Q 1053 2284 737 2584 
Q 422 2884 422 3419 
Q 422 4038 858 4394 
Q 1294 4750 2059 4750 
Q 2388 4750 2728 4690 
Q 3069 4631 3425 4513 
z
" transform="scale(0.015625)"/>
       <path id="DejaVuSans-69" d="M 603 3500 
L 1178 3500 
L 1178 0 
L 603 0 
L 603 3500 
z
M 603 4863 
L 1178 4863 
L 1178 4134 
L 603 4134 
L 603 4863 
z
" transform="scale(0.015625)"/>
       <path id="DejaVuSans-5f" d="M 3263 -1063 
L 3263 -1509 
L -63 -1509 
L -63 -1063 
L 3263 -1063 
z
" transform="scale(0.015625)"/>
       <path id="DejaVuSans-74" d="M 1172 4494 
L 1172 3500 
L 2356 3500 
L 2356 3053 
L 1172 3053 
L 1172 1153 
Q 1172 725 1289 603 
Q 1406 481 1766 481 
L 2356 481 
L 2356 0 
L 1766 0 
Q 1100 0 847 248 
Q 594 497 594 1153 
L 594 3053 
L 172 3053 
L 172 3500 
L 594 3500 
L 594 4494 
L 1172 4494 
z
" transform="scale(0.015625)"/>
      </defs>
      <use xlink:href="#DejaVuSans-41"/>
      <use xlink:href="#DejaVuSans-76" x="62.533203"/>
      <use xlink:href="#DejaVuSans-65" x="121.712891"/>
      <use xlink:href="#DejaVuSans-72" x="183.236328"/>
      <use xlink:href="#DejaVuSans-61" x="224.349609"/>
      <use xlink:href="#DejaVuSans-67" x="285.628906"/>
      <use xlink:href="#DejaVuSans-65" x="349.105469"/>
      <use xlink:href="#DejaVuSans-20" x="410.628906"/>
      <use xlink:href="#DejaVuSans-6f" x="442.416016"/>
      <use xlink:href="#DejaVuSans-66" x="503.597656"/>
      <use xlink:href="#DejaVuSans-20" x="538.802734"/>
      <use xlink:href="#DejaVuSans-53" x="570.589844"/>
      <use xlink:href="#DejaVuSans-65" x="634.066406"/>
      <use xlink:href="#DejaVuSans-73" x="695.589844"/>
      <use xlink:href="#DejaVuSans-73" x="747.689453"/>
      <use xlink:href="#DejaVuSans-69" x="799.789062"/>
      <use xlink:href="#DejaVuSans-6f" x="827.572266"/>
      <use xlink:href="#DejaVuSans-6e" x="888.753906"/>
      <use xlink:href="#DejaVuSans-20" x="952.132812"/>
      <use xlink:href="#DejaVuSans-38" x="983.919922"/>
      <use xlink:href="#DejaVuSans-5f" x="1047.542969"/>
      <use xlink:href="#DejaVuSans-74" x="1097.542969"/>
      <use xlink:href="#DejaVuSans-61" x="1136.751953"/>
      <use xlink:href="#DejaVuSans-63" x="1198.03125"/>
      <use xlink:href="#DejaVuSans-34" x="1253.011719"/>
     </g>
    </g>
    <g id="line2d_18">
     <path d="M 101.855406 38.465205 
L 111.855406 38.465205 
L 121.855406 38.465205 
" style="fill: none; stroke: #e41a1c; stroke-width: 1.5; stroke-linecap: square"/>
    </g>
    <g id="text_18">
     <!-- Target (n=412) -->
     <g transform="translate(129.855406 41.965205)scale(0.1 -0.1)">
      <defs>
       <path id="DejaVuSans-54" d="M -19 4666 
L 3928 4666 
L 3928 4134 
L 2272 4134 
L 2272 0 
L 1638 0 
L 1638 4134 
L -19 4134 
L -19 4666 
z
" transform="scale(0.015625)"/>
       <path id="DejaVuSans-28" d="M 1984 4856 
Q 1566 4138 1362 3434 
Q 1159 2731 1159 2009 
Q 1159 1288 1364 580 
Q 1569 -128 1984 -844 
L 1484 -844 
Q 1016 -109 783 600 
Q 550 1309 550 2009 
Q 550 2706 781 3412 
Q 1013 4119 1484 4856 
L 1984 4856 
z
" transform="scale(0.015625)"/>
       <path id="DejaVuSans-3d" d="M 678 2906 
L 4684 2906 
L 4684 2381 
L 678 2381 
L 678 2906 
z
M 678 1631 
L 4684 1631 
L 4684 1100 
L 678 1100 
L 678 1631 
z
" transform="scale(0.015625)"/>
       <path id="DejaVuSans-29" d="M 513 4856 
L 1013 4856 
Q 1481 4119 1714 3412 
Q 1947 2706 1947 2009 
Q 1947 1309 1714 600 
Q 1481 -109 1013 -844 
L 513 -844 
Q 928 -128 1133 580 
Q 1338 1288 1338 2009 
Q 1338 2731 1133 3434 
Q 928 4138 513 4856 
z
" transform="scale(0.015625)"/>
      </defs>
      <use xlink:href="#DejaVuSans-54"/>
      <use xlink:href="#DejaVuSans-61" x="44.583984"/>
      <use xlink:href="#DejaVuSans-72" x="105.863281"/>
      <use xlink:href="#DejaVuSans-67" x="145.226562"/>
      <use xlink:href="#DejaVuSans-65" x="208.703125"/>
      <use xlink:href="#DejaVuSans-74" x="270.226562"/>
      <use xlink:href="#DejaVuSans-20" x="309.435547"/>
      <use xlink:href="#DejaVuSans-28" x="341.222656"/>
      <use xlink:href="#DejaVuSans-6e" x="380.236328"/>
      <use xlink:href="#DejaVuSans-3d" x="443.615234"/>
      <use xlink:href="#DejaVuSans-34" x="527.404297"/>
      <use xlink:href="#DejaVuSans-31" x="591.027344"/>
      <use xlink:href="#DejaVuSans-32" x="654.650391"/>
      <use xlink:href="#DejaVuSans-29" x="718.273438"/>
     </g>
    </g>
    <g id="line2d_19">
     <path d="M 225.585093 38.465205 
L 235.585093 38.465205 
L 245.585093 38.465205 
" style="fill: none; stroke: #377eb8; stroke-width: 1.5; stroke-linecap: square"/>
    </g>
    <g id="text_19">
     <!-- Non-Target (n=1243) -->
     <g transform="translate(253.585093 41.965205)scale(0.1 -0.1)">
      <defs>
       <path id="DejaVuSans-4e" d="M 628 4666 
L 1478 4666 
L 3547 763 
L 3547 4666 
L 4159 4666 
L 4159 0 
L 3309 0 
L 1241 3903 
L 1241 0 
L 628 0 
L 628 4666 
z
" transform="scale(0.015625)"/>
       <path id="DejaVuSans-2d" d="M 313 2009 
L 1997 2009 
L 1997 1497 
L 313 1497 
L 313 2009 
z
" transform="scale(0.015625)"/>
      </defs>
      <use xlink:href="#DejaVuSans-4e"/>
      <use xlink:href="#DejaVuSans-6f" x="74.804688"/>
      <use xlink:href="#DejaVuSans-6e" x="135.986328"/>
      <use xlink:href="#DejaVuSans-2d" x="199.365234"/>
      <use xlink:href="#DejaVuSans-54" x="226.324219"/>
      <use xlink:href="#DejaVuSans-61" x="270.908203"/>
      <use xlink:href="#DejaVuSans-72" x="332.1875"/>
      <use xlink:href="#DejaVuSans-67" x="371.550781"/>
      <use xlink:href="#DejaVuSans-65" x="435.027344"/>
      <use xlink:href="#DejaVuSans-74" x="496.550781"/>
      <use xlink:href="#DejaVuSans-20" x="535.759766"/>
      <use xlink:href="#DejaVuSans-28" x="567.546875"/>
      <use xlink:href="#DejaVuSans-6e" x="606.560547"/>
      <use xlink:href="#DejaVuSans-3d" x="669.939453"/>
      <use xlink:href="#DejaVuSans-31" x="753.728516"/>
      <use xlink:href="#DejaVuSans-32" x="817.351562"/>
      <use xlink:href="#DejaVuSans-34" x="880.974609"/>
      <use xlink:href="#DejaVuSans-33" x="944.597656"/>
      <use xlink:href="#DejaVuSans-29" x="1008.220703"/>
     </g>
    </g>
   </g>
  </g>
 </g>
 <defs>
  <clipPath id="pefccbfcc9b">
   <rect x="46.55" y="71.241125" width="367.065499" height="246.958875"/>
  </clipPath>
 </defs>
</svg>
