<?xml version="1.0" encoding="utf-8" standalone="no"?>
<!DOCTYPE svg PUBLIC "-//W3C//DTD SVG 1.1//EN"
  "http://www.w3.org/Graphics/SVG/1.1/DTD/svg11.dtd">
<svg xmlns:xlink="http://www.w3.org/1999/xlink" width="432pt" height="360pt" viewBox="0 0 432 360" xmlns="http://www.w3.org/2000/svg" version="1.1">
 <metadata>
  <rdf:RDF xmlns:dc="http://purl.org/dc/elements/1.1/" xmlns:cc="http://creativecommons.org/ns#" xmlns:rdf="http://www.w3.org/1999/02/22-rdf-syntax-ns#">
   <cc:Work>
    <dc:type rdf:resource="http://purl.org/dc/dcmitype/StillImage"/>
    <dc:date>2022-11-02T16:56:56.128595</dc:date>
    <dc:format>image/svg+xml</dc:format>
    <dc:creator>
     <cc:Agent>
      <dc:title>Matplotlib v3.5.1, https://matplotlib.org/</dc:title>
     </cc:Agent>
    </dc:creator>
   </cc:Work>
  </rdf:RDF>
 </metadata>
 <defs>
  <style type="text/css">*{stroke-linejoin: round; stroke-linecap: butt}</style>
 </defs>
 <g id="figure_1">
  <g id="patch_1">
   <path d="M 0 360 
L 432 360 
L 432 0 
L 0 0 
L 0 360 
z
" style="fill: none"/>
  </g>
  <g id="axes_1">
   <g id="patch_2">
    <path d="M 46.55 318.2 
L 413.615499 318.2 
L 413.615499 71.241125 
L 46.55 71.241125 
L 46.55 318.2 
z
" style="fill: none"/>
   </g>
   <g id="PolyCollection_1">
    <defs>
     <path id="m8c40ddfc43" d="M 46.55 -150.917094 
L 46.55 -113.454999 
L 47.346238 -114.183673 
L 48.142475 -113.787528 
L 48.938713 -112.382095 
L 49.73495 -110.387487 
L 50.531188 -108.401194 
L 51.327425 -107.004487 
L 52.123663 -106.589464 
L 52.9199 -107.254154 
L 53.716138 -108.767772 
L 54.512375 -110.616642 
L 55.308613 -112.151138 
L 56.10485 -112.810824 
L 56.901088 -112.333555 
L 57.697325 -110.839395 
L 58.493563 -108.754741 
L 59.2898 -106.643292 
L 60.086038 -105.037046 
L 60.882275 -104.305672 
L 61.678513 -104.55763 
L 62.47475 -105.594782 
L 63.270988 -106.969059 
L 64.067226 -108.153818 
L 64.863463 -108.764183 
L 65.659701 -108.695697 
L 66.455938 -108.080687 
L 67.252176 -107.120023 
L 68.048413 -105.934711 
L 68.844651 -104.550159 
L 69.640888 -103.012861 
L 70.437126 -101.502095 
L 71.233363 -100.290933 
L 72.029601 -99.596564 
L 72.825838 -99.463443 
L 73.622076 -99.767061 
L 74.418313 -100.323223 
L 75.214551 -100.995708 
L 76.010788 -101.694519 
L 76.807026 -102.306737 
L 77.603263 -102.687955 
L 78.399501 -102.761694 
L 79.195739 -102.658202 
L 79.991976 -102.752693 
L 80.788214 -103.519702 
L 81.584451 -105.288431 
L 82.380689 -108.078979 
L 83.176926 -111.61436 
L 83.973164 -115.444222 
L 84.769401 -119.056895 
L 85.565639 -121.945855 
L 86.361876 -123.693755 
L 87.158114 -124.092195 
L 87.954351 -123.251761 
L 88.750589 -121.620076 
L 89.546826 -119.853018 
L 90.343064 -118.581214 
L 91.139301 -118.191565 
L 91.935539 -118.721127 
L 92.731776 -119.883562 
L 93.528014 -121.200038 
L 94.324251 -122.188402 
L 95.120489 -122.552638 
L 95.916727 -122.297829 
L 96.712964 -121.710279 
L 97.509202 -121.210909 
L 98.305439 -121.166374 
L 99.101677 -121.747133 
L 99.897914 -122.888152 
L 100.694152 -124.348859 
L 101.490389 -125.823107 
L 102.286627 -127.036353 
L 103.082864 -127.795201 
L 103.879102 -127.994817 
L 104.675339 -127.608666 
L 105.471577 -126.661692 
L 106.267814 -125.194954 
L 107.064052 -123.243995 
L 107.860289 -120.860363 
L 108.656527 -118.173339 
L 109.452764 -115.443941 
L 110.249002 -113.055035 
L 111.04524 -111.423985 
L 111.841477 -110.875496 
L 112.637715 -111.527985 
L 113.433952 -113.230156 
L 114.23019 -115.566517 
L 115.026427 -117.942363 
L 115.822665 -119.737847 
L 116.618902 -120.482655 
L 117.41514 -119.982013 
L 118.211377 -118.352385 
L 119.007615 -115.969348 
L 119.803852 -113.353441 
L 120.60009 -111.020027 
L 121.396327 -109.32656 
L 122.192565 -108.371307 
L 122.988802 -107.995865 
L 123.78504 -107.897941 
L 124.581277 -107.796053 
L 125.377515 -107.562097 
L 126.173752 -107.26258 
L 126.96999 -107.09952 
L 127.766228 -107.283174 
L 128.562465 -107.894883 
L 129.358703 -108.810549 
L 130.15494 -109.734788 
L 130.951178 -110.338054 
L 131.747415 -110.420231 
L 132.543653 -110.00236 
L 133.33989 -109.304511 
L 134.136128 -108.646141 
L 134.932365 -108.327769 
L 135.728603 -108.531879 
L 136.52484 -109.271156 
L 137.321078 -110.406538 
L 138.117315 -111.735067 
L 138.913553 -113.098888 
L 139.70979 -114.446549 
L 140.506028 -115.814018 
L 141.302265 -117.252915 
L 142.098503 -118.760027 
L 142.89474 -120.243884 
L 143.690978 -121.535319 
L 144.487216 -122.437982 
L 145.283453 -122.809232 
L 146.079691 -122.642811 
L 146.875928 -122.105162 
L 147.672166 -121.492624 
L 148.468403 -121.127022 
L 149.264641 -121.24884 
L 150.060878 -121.963172 
L 150.857116 -123.246806 
L 151.653353 -124.987956 
L 152.449591 -127.031522 
L 153.245828 -129.221827 
L 154.042066 -131.439644 
L 154.838303 -133.622289 
L 155.634541 -135.750298 
L 156.430778 -137.789875 
L 157.227016 -139.613768 
L 158.023253 -140.964399 
L 158.819491 -141.516618 
L 159.615729 -141.029901 
L 160.411966 -139.506212 
L 161.208204 -137.256931 
L 162.004441 -134.833984 
L 162.800679 -132.866126 
L 163.596916 -131.865486 
L 164.393154 -132.068541 
L 165.189391 -133.354528 
L 165.985629 -135.268954 
L 166.781866 -137.159658 
L 167.578104 -138.392773 
L 168.374341 -138.567685 
L 169.170579 -137.63347 
L 169.966816 -135.854632 
L 170.763054 -133.656316 
L 171.559291 -131.438165 
L 172.355529 -129.447638 
L 173.151766 -127.762056 
L 173.948004 -126.369182 
L 174.744241 -125.277944 
L 175.540479 -124.588803 
L 176.336717 -124.484116 
L 177.132954 -125.157488 
L 177.929192 -126.729612 
L 178.725429 -129.195182 
L 179.521667 -132.421913 
L 180.317904 -136.192372 
L 181.114142 -140.25936 
L 181.910379 -144.393576 
L 182.706617 -148.415491 
L 183.502854 -152.206851 
L 184.299092 -155.688572 
L 185.095329 -158.762034 
L 185.891567 -161.248655 
L 186.687804 -162.888024 
L 187.484042 -163.427717 
L 188.280279 -162.765338 
L 189.076517 -161.053182 
L 189.872754 -158.695498 
L 190.668992 -156.241843 
L 191.46523 -154.231857 
L 192.261467 -153.044153 
L 193.057705 -152.782778 
L 193.853942 -153.228589 
L 194.65018 -153.892076 
L 195.446417 -154.170384 
L 196.242655 -153.558862 
L 197.038892 -151.829019 
L 197.83513 -149.099496 
L 198.631367 -145.781531 
L 199.427605 -142.429942 
L 200.223842 -139.556964 
L 201.02008 -137.467468 
L 201.816317 -136.172397 
L 202.612555 -135.412806 
L 203.408792 -134.783226 
L 204.20503 -133.900019 
L 205.001267 -132.545218 
L 205.797505 -130.73482 
L 206.593742 -128.696063 
L 207.38998 -126.767587 
L 208.186218 -125.261811 
L 208.982455 -124.343089 
L 209.778693 -123.972426 
L 210.57493 -123.941839 
L 211.371168 -123.978592 
L 212.167405 -123.86692 
L 212.963643 -123.533631 
L 213.75988 -123.060484 
L 214.556118 -122.623155 
L 215.352355 -122.384067 
L 216.148593 -122.383653 
L 216.94483 -122.475841 
L 217.741068 -122.339853 
L 218.537305 -121.57339 
L 219.333543 -119.840674 
L 220.12978 -117.019112 
L 220.926018 -113.285146 
L 221.722255 -109.103824 
L 222.518493 -105.127931 
L 223.31473 -102.042986 
L 224.110968 -100.401061 
L 224.907206 -100.483801 
L 225.703443 -102.235292 
L 226.499681 -105.299412 
L 227.295918 -109.15675 
L 228.092156 -113.297075 
L 228.888393 -117.337476 
L 229.684631 -121.043515 
L 230.480868 -124.294059 
L 231.277106 -127.06168 
L 232.073343 -129.429454 
L 232.869581 -131.588344 
L 233.665818 -133.761746 
L 234.462056 -136.088495 
L 235.258293 -138.549971 
L 236.054531 -140.985978 
L 236.850768 -143.165375 
L 237.647006 -144.846574 
L 238.443243 -145.802869 
L 239.239481 -145.845937 
L 240.035719 -144.883629 
L 240.831956 -143.000466 
L 241.628194 -140.511247 
L 242.424431 -137.944013 
L 243.220669 -135.9419 
L 244.016906 -135.105909 
L 244.813144 -135.825318 
L 245.609381 -138.149671 
L 246.405619 -141.757997 
L 247.201856 -146.049134 
L 247.998094 -150.329717 
L 248.794331 -154.033636 
L 249.590569 -156.889615 
L 250.386806 -158.970552 
L 251.183044 -160.606237 
L 251.979281 -162.2015 
L 252.775519 -164.046361 
L 253.571756 -166.200711 
L 254.367994 -168.491311 
L 255.164231 -170.605734 
L 255.960469 -172.236735 
L 256.756707 -173.221786 
L 257.552944 -173.627564 
L 258.349182 -173.744084 
L 259.145419 -173.987822 
L 259.941657 -174.751529 
L 260.737894 -176.262499 
L 261.534132 -178.503755 
L 262.330369 -181.223408 
L 263.126607 -184.026081 
L 263.922844 -186.509982 
L 264.719082 -188.397642 
L 265.515319 -189.600612 
L 266.311557 -190.190013 
L 267.107794 -190.298987 
L 267.904032 -190.023105 
L 268.700269 -189.376582 
L 269.496507 -188.318688 
L 270.292744 -186.823935 
L 271.088982 -184.964047 
L 271.88522 -182.963775 
L 272.681457 -181.19117 
L 273.477695 -180.057375 
L 274.273932 -179.852559 
L 275.07017 -180.605025 
L 275.866407 -182.055566 
L 276.662645 -183.771602 
L 277.458882 -185.328122 
L 278.25512 -186.456483 
L 279.051357 -187.104025 
L 279.847595 -187.410046 
L 280.643832 -187.629775 
L 281.44007 -188.035872 
L 282.236307 -188.819723 
L 283.032545 -190.015512 
L 283.828782 -191.471803 
L 284.62502 -192.89275 
L 285.421257 -193.946484 
L 286.217495 -194.406731 
L 287.013732 -194.269345 
L 287.80997 -193.779381 
L 288.606208 -193.335347 
L 289.402445 -193.306012 
L 290.198683 -193.860336 
L 290.99492 -194.905122 
L 291.791158 -196.156434 
L 292.587395 -197.291093 
L 293.383633 -198.091561 
L 294.17987 -198.523366 
L 294.976108 -198.730809 
L 295.772345 -198.969935 
L 296.568583 -199.509365 
L 297.36482 -200.535489 
L 298.161058 -202.09064 
L 298.957295 -204.054316 
L 299.753533 -206.162993 
L 300.54977 -208.064435 
L 301.346008 -209.403586 
L 302.142245 -209.922357 
L 302.938483 -209.535763 
L 303.73472 -208.34786 
L 304.530958 -206.601577 
L 305.327196 -204.592773 
L 306.123433 -202.589729 
L 306.919671 -200.782039 
L 307.715908 -199.260252 
L 308.512146 -198.018371 
L 309.308383 -196.971048 
L 310.104621 -195.978019 
L 310.900858 -194.871745 
L 311.697096 -193.490018 
L 312.493333 -191.714863 
L 313.289571 -189.508838 
L 314.085808 -186.929896 
L 314.882046 -184.11436 
L 315.678283 -181.243726 
L 316.474521 -178.517251 
L 317.270758 -176.129741 
L 318.066996 -174.231918 
L 318.863233 -172.869643 
L 319.659471 -171.937296 
L 320.455709 -171.189179 
L 321.251946 -170.316152 
L 322.048184 -169.048558 
L 322.844421 -167.23114 
L 323.640659 -164.85252 
L 324.436896 -162.04525 
L 325.233134 -159.07151 
L 326.029371 -156.281682 
L 326.825609 -154.031465 
L 327.621846 -152.578919 
L 328.418084 -152.007005 
L 329.214321 -152.2048 
L 330.010559 -152.904545 
L 330.806796 -153.758246 
L 331.603034 -154.441991 
L 332.399271 -154.768398 
L 333.195509 -154.763405 
L 333.991746 -154.656709 
L 334.787984 -154.771882 
L 335.584221 -155.362223 
L 336.380459 -156.471855 
L 337.176697 -157.883375 
L 337.972934 -159.171518 
L 338.769172 -159.839014 
L 339.565409 -159.481316 
L 340.361647 -157.919297 
L 341.157884 -155.252355 
L 341.954122 -151.821728 
L 342.750359 -148.106462 
L 343.546597 -144.59362 
L 344.342834 -141.665326 
L 345.139072 -139.531912 
L 345.935309 -138.219351 
L 346.731547 -137.597913 
L 347.527784 -137.432687 
L 348.324022 -137.44378 
L 349.120259 -137.373051 
L 349.916497 -137.049126 
L 350.712734 -136.427708 
L 351.508972 -135.58316 
L 352.30521 -134.655229 
L 353.101447 -133.787034 
L 353.897685 -133.09124 
L 354.693922 -132.64416 
L 355.49016 -132.482445 
L 356.286397 -132.585759 
L 357.082635 -132.858175 
L 357.878872 -133.130767 
L 358.67511 -133.19228 
L 359.471347 -132.839321 
L 360.267585 -131.933692 
L 361.063822 -130.453066 
L 361.86006 -128.509201 
L 362.656297 -126.30961 
L 363.452535 -124.072553 
L 364.248772 -121.94659 
L 365.04501 -119.983786 
L 365.841247 -118.171166 
L 366.637485 -116.479328 
L 367.433722 -114.890503 
L 368.22996 -113.401356 
L 369.026198 -112.018232 
L 369.822435 -110.752152 
L 370.618673 -109.604803 
L 371.41491 -108.546379 
L 372.211148 -107.507352 
L 373.007385 -106.4067 
L 373.803623 -105.211119 
L 374.59986 -103.99516 
L 375.396098 -102.967373 
L 376.192335 -102.433624 
L 376.988573 -102.684706 
L 377.78481 -103.834029 
L 378.581048 -105.682782 
L 379.377285 -107.706339 
L 380.173523 -109.197098 
L 380.96976 -109.507838 
L 381.765998 -108.281951 
L 382.562235 -105.574152 
L 383.358473 -101.831311 
L 384.15471 -97.759915 
L 384.950948 -94.133989 
L 385.747186 -91.592236 
L 386.543423 -90.477261 
L 387.339661 -90.76497 
L 388.135898 -92.11078 
L 388.932136 -93.993923 
L 389.728373 -95.900356 
L 390.524611 -97.477891 
L 391.320848 -98.623985 
L 392.117086 -99.489008 
L 392.913323 -100.396849 
L 393.709561 -101.700252 
L 394.505798 -103.619296 
L 395.302036 -106.134177 
L 396.098273 -108.986833 
L 396.894511 -111.789846 
L 397.690748 -114.183225 
L 398.486986 -115.961614 
L 399.283223 -117.122925 
L 400.079461 -117.834738 
L 400.875699 -118.345334 
L 401.671936 -118.87616 
L 402.468174 -119.53257 
L 403.264411 -120.26468 
L 404.060649 -120.89542 
L 404.856886 -121.207724 
L 405.653124 -121.055113 
L 406.449361 -120.442529 
L 407.245599 -119.531974 
L 408.041836 -118.566183 
L 408.838074 -117.753872 
L 409.634311 -117.183848 
L 410.430549 -116.813406 
L 411.226786 -116.527972 
L 412.023024 -116.228566 
L 412.819261 -115.897276 
L 413.615499 -115.612608 
L 413.615499 -194.881341 
L 413.615499 -194.881341 
L 412.819261 -195.460801 
L 412.023024 -196.27519 
L 411.226786 -197.200694 
L 410.430549 -198.167029 
L 409.634311 -199.146505 
L 408.838074 -200.118687 
L 408.041836 -201.043882 
L 407.245599 -201.859791 
L 406.449361 -202.493782 
L 405.653124 -202.878602 
L 404.856886 -202.967765 
L 404.060649 -202.752423 
L 403.264411 -202.273681 
L 402.468174 -201.614324 
L 401.671936 -200.860745 
L 400.875699 -200.04921 
L 400.079461 -199.129098 
L 399.283223 -197.97219 
L 398.486986 -196.432932 
L 397.690748 -194.432715 
L 396.894511 -192.022477 
L 396.098273 -189.388178 
L 395.302036 -186.797146 
L 394.505798 -184.511581 
L 393.709561 -182.699987 
L 392.913323 -181.369128 
L 392.117086 -180.33805 
L 391.320848 -179.27957 
L 390.524611 -177.841945 
L 389.728373 -175.820743 
L 388.932136 -173.304398 
L 388.135898 -170.712757 
L 387.339661 -168.693406 
L 386.543423 -167.912306 
L 385.747186 -168.814353 
L 384.950948 -171.439802 
L 384.15471 -175.361857 
L 383.358473 -179.777581 
L 382.562235 -183.735169 
L 381.765998 -186.423139 
L 380.96976 -187.408692 
L 380.173523 -186.738113 
L 379.377285 -184.872637 
L 378.581048 -182.513357 
L 377.78481 -180.395904 
L 376.988573 -179.11149 
L 376.192335 -178.977842 
L 375.396098 -179.97708 
L 374.59986 -181.786678 
L 373.803623 -183.910546 
L 373.007385 -185.867372 
L 372.211148 -187.354323 
L 371.41491 -188.319949 
L 370.618673 -188.931931 
L 369.822435 -189.469517 
L 369.026198 -190.193211 
L 368.22996 -191.249194 
L 367.433722 -192.64944 
L 366.637485 -194.325028 
L 365.841247 -196.200441 
L 365.04501 -198.230624 
L 364.248772 -200.386909 
L 363.452535 -202.625023 
L 362.656297 -204.87095 
L 361.86006 -207.026528 
L 361.063822 -208.977682 
L 360.267585 -210.599821 
L 359.471347 -211.777312 
L 358.67511 -212.444872 
L 357.878872 -212.628805 
L 357.082635 -212.455524 
L 356.286397 -212.119741 
L 355.49016 -211.830555 
L 354.693922 -211.757049 
L 353.897685 -211.983993 
L 353.101447 -212.488901 
L 352.30521 -213.154264 
L 351.508972 -213.814089 
L 350.712734 -214.309799 
L 349.916497 -214.526397 
L 349.120259 -214.407675 
L 348.324022 -213.971111 
L 347.527784 -213.335741 
L 346.731547 -212.741214 
L 345.935309 -212.519698 
L 345.139072 -213.005752 
L 344.342834 -214.412404 
L 343.546597 -216.728339 
L 342.750359 -219.685506 
L 341.954122 -222.815744 
L 341.157884 -225.579959 
L 340.361647 -227.524822 
L 339.565409 -228.411323 
L 338.769172 -228.269681 
L 337.972934 -227.364993 
L 337.176697 -226.093298 
L 336.380459 -224.848565 
L 335.584221 -223.908714 
L 334.787984 -223.374347 
L 333.991746 -223.173096 
L 333.195509 -223.116015 
L 332.399271 -222.97711 
L 331.603034 -222.575504 
L 330.806796 -221.8489 
L 330.010559 -220.90308 
L 329.214321 -220.008357 
L 328.418084 -219.525708 
L 327.621846 -219.787562 
L 326.825609 -220.989038 
L 326.029371 -223.134311 
L 325.233134 -226.043909 
L 324.436896 -229.404187 
L 323.640659 -232.842772 
L 322.844421 -236.022641 
L 322.048184 -238.726783 
L 321.251946 -240.893477 
L 320.455709 -242.588658 
L 319.659471 -243.948158 
L 318.863233 -245.138185 
L 318.066996 -246.34363 
L 317.270758 -247.756988 
L 316.474521 -249.539314 
L 315.678283 -251.763633 
L 314.882046 -254.381013 
L 314.085808 -257.236019 
L 313.289571 -260.115791 
L 312.493333 -262.798833 
L 311.697096 -265.091422 
L 310.900858 -266.863971 
L 310.104621 -268.089725 
L 309.308383 -268.866913 
L 308.512146 -269.402104 
L 307.715908 -269.951992 
L 306.919671 -270.741906 
L 306.123433 -271.888214 
L 305.327196 -273.351391 
L 304.530958 -274.938576 
L 303.73472 -276.357293 
L 302.938483 -277.300651 
L 302.142245 -277.533472 
L 301.346008 -276.956169 
L 300.54977 -275.638896 
L 299.753533 -273.822064 
L 298.957295 -271.871164 
L 298.161058 -270.177439 
L 297.36482 -269.026192 
L 296.568583 -268.488286 
L 295.772345 -268.392211 
L 294.976108 -268.395701 
L 294.17987 -268.12618 
L 293.383633 -267.330657 
L 292.587395 -265.974685 
L 291.791158 -264.249382 
L 290.99492 -262.485072 
L 290.198683 -261.014249 
L 289.402445 -260.050415 
L 288.606208 -259.627408 
L 287.80997 -259.601789 
L 287.013732 -259.698627 
L 286.217495 -259.588505 
L 285.421257 -258.995399 
L 284.62502 -257.814591 
L 283.828782 -256.186351 
L 283.032545 -254.466349 
L 282.236307 -253.084469 
L 281.44007 -252.349226 
L 280.643832 -252.292501 
L 279.847595 -252.639507 
L 279.051357 -252.928237 
L 278.25512 -252.72862 
L 277.458882 -251.850176 
L 276.662645 -250.433571 
L 275.866407 -248.884416 
L 275.07017 -247.696288 
L 274.273932 -247.263624 
L 273.477695 -247.765786 
L 272.681457 -249.136195 
L 271.88522 -251.101513 
L 271.088982 -253.269847 
L 270.292744 -255.253505 
L 269.496507 -256.788393 
L 268.700269 -257.791685 
L 267.904032 -258.323486 
L 267.107794 -258.48023 
L 266.311557 -258.292991 
L 265.515319 -257.689096 
L 264.719082 -256.531855 
L 263.922844 -254.710389 
L 263.126607 -252.237737 
L 262.330369 -249.313428 
L 261.534132 -246.310946 
L 260.737894 -243.674671 
L 259.941657 -241.758946 
L 259.145419 -240.677978 
L 258.349182 -240.24392 
L 257.552944 -240.028067 
L 256.756707 -239.52315 
L 255.960469 -238.340343 
L 255.164231 -236.359355 
L 254.367994 -233.766425 
L 253.571756 -230.958343 
L 252.775519 -228.354037 
L 251.979281 -226.201668 
L 251.183044 -224.471979 
L 250.386806 -222.879943 
L 249.590569 -221.014198 
L 248.794331 -218.515102 
L 247.998094 -215.236767 
L 247.201856 -211.338671 
L 246.405619 -207.27468 
L 245.609381 -203.677016 
L 244.813144 -201.170791 
L 244.016906 -200.181427 
L 243.220669 -200.799833 
L 242.424431 -202.750034 
L 241.628194 -205.469173 
L 240.831956 -208.266299 
L 240.035719 -210.50357 
L 239.239481 -211.738339 
L 238.443243 -211.794132 
L 237.647006 -210.755282 
L 236.850768 -208.893376 
L 236.054531 -206.545719 
L 235.258293 -203.990312 
L 234.462056 -201.379601 
L 233.665818 -198.763039 
L 232.869581 -196.156487 
L 232.073343 -193.577086 
L 231.277106 -191.006139 
L 230.480868 -188.33166 
L 229.684631 -185.365334 
L 228.888393 -181.960443 
L 228.092156 -178.148641 
L 227.295918 -174.193996 
L 226.499681 -170.536239 
L 225.703443 -167.673352 
L 224.907206 -166.043407 
L 224.110968 -165.926188 
L 223.31473 -167.362686 
L 222.518493 -170.110488 
L 221.722255 -173.671555 
L 220.926018 -177.406089 
L 220.12978 -180.700172 
L 219.333543 -183.122163 
L 218.537305 -184.511863 
L 217.741068 -184.980854 
L 216.94483 -184.835982 
L 216.148593 -184.457751 
L 215.352355 -184.173417 
L 214.556118 -184.166774 
L 213.75988 -184.452097 
L 212.963643 -184.916546 
L 212.167405 -185.407138 
L 211.371168 -185.821088 
L 210.57493 -186.160044 
L 209.778693 -186.529257 
L 208.982455 -187.086119 
L 208.186218 -187.964492 
L 207.38998 -189.203376 
L 206.593742 -190.710017 
L 205.797505 -192.277169 
L 205.001267 -193.655466 
L 204.20503 -194.657865 
L 203.408792 -195.252119 
L 202.612555 -195.595161 
L 201.816317 -195.989723 
L 201.02008 -196.777274 
L 200.223842 -198.206812 
L 199.427605 -200.325709 
L 198.631367 -202.934158 
L 197.83513 -205.629867 
L 197.038892 -207.938951 
L 196.242655 -209.485664 
L 195.446417 -210.131989 
L 194.65018 -210.029607 
L 193.853942 -209.571944 
L 193.057705 -209.266373 
L 192.261467 -209.56318 
L 191.46523 -210.692361 
L 190.668992 -212.57102 
L 189.872754 -214.832279 
L 189.076517 -216.963025 
L 188.280279 -218.480746 
L 187.484042 -219.059298 
L 186.687804 -218.564659 
L 185.891567 -217.026913 
L 185.095329 -214.592665 
L 184.299092 -211.474459 
L 183.502854 -207.895041 
L 182.706617 -204.040599 
L 181.910379 -200.050292 
L 181.114142 -196.05166 
L 180.317904 -192.20855 
L 179.521667 -188.730184 
L 178.725429 -185.823249 
L 177.929192 -183.621735 
L 177.132954 -182.150852 
L 176.336717 -181.34997 
L 175.540479 -181.137707 
L 174.744241 -181.473878 
L 173.948004 -182.375041 
L 173.151766 -183.868953 
L 172.355529 -185.915373 
L 171.559291 -188.3443 
L 170.763054 -190.851394 
L 169.966816 -193.050688 
L 169.170579 -194.569699 
L 168.374341 -195.155514 
L 167.578104 -194.757215 
L 166.781866 -193.559957 
L 165.985629 -191.962634 
L 165.189391 -190.498124 
L 164.393154 -189.697357 
L 163.596916 -189.921905 
L 162.800679 -191.226776 
L 162.004441 -193.32507 
L 161.208204 -195.683936 
L 160.411966 -197.710506 
L 159.615729 -198.939651 
L 158.819491 -199.14601 
L 158.023253 -198.361708 
L 157.227016 -196.817214 
L 156.430778 -194.840962 
L 155.634541 -192.739148 
L 154.838303 -190.685812 
L 154.042066 -188.673288 
L 153.245828 -186.564745 
L 152.449591 -184.231796 
L 151.653353 -181.695227 
L 150.857116 -179.176142 
L 150.060878 -177.021014 
L 149.264641 -175.54228 
L 148.468403 -174.867065 
L 147.672166 -174.878851 
L 146.875928 -175.273159 
L 146.079691 -175.680337 
L 145.283453 -175.789652 
L 144.487216 -175.43107 
L 143.690978 -174.600969 
L 142.89474 -173.429973 
L 142.098503 -172.102208 
L 141.302265 -170.759953 
L 140.506028 -169.446416 
L 139.70979 -168.120727 
L 138.913553 -166.726742 
L 138.117315 -165.260234 
L 137.321078 -163.791641 
L 136.52484 -162.444237 
L 135.728603 -161.351288 
L 134.932365 -160.607808 
L 134.136128 -160.226052 
L 133.33989 -160.116018 
L 132.543653 -160.113556 
L 131.747415 -160.051281 
L 130.951178 -159.8242 
L 130.15494 -159.40644 
L 129.358703 -158.826466 
L 128.562465 -158.140288 
L 127.766228 -157.418053 
L 126.96999 -156.730402 
L 126.173752 -156.130721 
L 125.377515 -155.649851 
L 124.581277 -155.317001 
L 123.78504 -155.195021 
L 122.988802 -155.400017 
L 122.192565 -156.083055 
L 121.396327 -157.375312 
L 120.60009 -159.312375 
L 119.803852 -161.759654 
L 119.007615 -164.375515 
L 118.211377 -166.654317 
L 117.41514 -168.065367 
L 116.618902 -168.24231 
L 115.822665 -167.13249 
L 115.026427 -165.033596 
L 114.23019 -162.508337 
L 113.433952 -160.221438 
L 112.637715 -158.756217 
L 111.841477 -158.463894 
L 111.04524 -159.391624 
L 110.249002 -161.31369 
L 109.452764 -163.843342 
L 108.656527 -166.563869 
L 107.860289 -169.122698 
L 107.064052 -171.272963 
L 106.267814 -172.879512 
L 105.471577 -173.903646 
L 104.675339 -174.36901 
L 103.879102 -174.319317 
L 103.082864 -173.796659 
L 102.286627 -172.860614 
L 101.490389 -171.630034 
L 100.694152 -170.294016 
L 99.897914 -169.069849 
L 99.101677 -168.124658 
L 98.305439 -167.51282 
L 97.509202 -167.162982 
L 96.712964 -166.913327 
L 95.916727 -166.572911 
L 95.120489 -165.983056 
L 94.324251 -165.059474 
L 93.528014 -163.82294 
L 92.731776 -162.419699 
L 91.935539 -161.111167 
L 91.139301 -160.204062 
L 90.343064 -159.932264 
L 89.546826 -160.343866 
L 88.750589 -161.24493 
L 87.954351 -162.213057 
L 87.158114 -162.67321 
L 86.361876 -162.038721 
L 85.565639 -159.913138 
L 84.769401 -156.281951 
L 83.973164 -151.579596 
L 83.176926 -146.563782 
L 82.380689 -142.032993 
L 81.584451 -138.536464 
L 80.788214 -136.240862 
L 79.991976 -134.998889 
L 79.195739 -134.496905 
L 78.399501 -134.35538 
L 77.603263 -134.176423 
L 76.807026 -133.620161 
L 76.010788 -132.534422 
L 75.214551 -131.043168 
L 74.418313 -129.496582 
L 73.622076 -128.280865 
L 72.825838 -127.606091 
L 72.029601 -127.442058 
L 71.233363 -127.644579 
L 70.437126 -128.129206 
L 69.640888 -128.937045 
L 68.844651 -130.147838 
L 68.048413 -131.713974 
L 67.252176 -133.389153 
L 66.455938 -134.832434 
L 65.659701 -135.775862 
L 64.863463 -136.12215 
L 64.067226 -135.936946 
L 63.270988 -135.383567 
L 62.47475 -134.690183 
L 61.678513 -134.158736 
L 60.882275 -134.143539 
L 60.086038 -134.941261 
L 59.2898 -136.631457 
L 58.493563 -138.974073 
L 57.697325 -141.456034 
L 56.901088 -143.477608 
L 56.10485 -144.573657 
L 55.308613 -144.567972 
L 54.512375 -143.631697 
L 53.716138 -142.25063 
L 52.9199 -141.095345 
L 52.123663 -140.799746 
L 51.327425 -141.713234 
L 50.531188 -143.746 
L 49.73495 -146.400884 
L 48.938713 -148.971839 
L 48.142475 -150.798498 
L 47.346238 -151.468995 
L 46.55 -150.917094 
z
" style="stroke: #e41a1c; stroke-opacity: 0.3"/>
    </defs>
    <g clip-path="url(#p2275c118cd)">
     <use xlink:href="#m8c40ddfc43" x="0" y="360" style="fill: #e41a1c; fill-opacity: 0.3; stroke: #e41a1c; stroke-opacity: 0.3"/>
    </g>
   </g>
   <g id="PolyCollection_2">
    <defs>
     <path id="mcdc3125e6d" d="M 46.55 -144.356638 
L 46.55 -121.722379 
L 47.346238 -120.342617 
L 48.142475 -119.309043 
L 48.938713 -118.803092 
L 49.73495 -118.846914 
L 50.531188 -119.318178 
L 51.327425 -120.001128 
L 52.123663 -120.646718 
L 52.9199 -121.030006 
L 53.716138 -121.006291 
L 54.512375 -120.555779 
L 55.308613 -119.794709 
L 56.10485 -118.935943 
L 56.901088 -118.211502 
L 57.697325 -117.793693 
L 58.493563 -117.745806 
L 59.2898 -118.011413 
L 60.086038 -118.438476 
L 60.882275 -118.834136 
L 61.678513 -119.038453 
L 62.47475 -118.988052 
L 63.270988 -118.733148 
L 64.067226 -118.39837 
L 64.863463 -118.11858 
L 65.659701 -117.988329 
L 66.455938 -118.037599 
L 67.252176 -118.228151 
L 68.048413 -118.465816 
L 68.844651 -118.629788 
L 69.640888 -118.611487 
L 70.437126 -118.342785 
L 71.233363 -117.7974 
L 72.029601 -116.972831 
L 72.825838 -115.876384 
L 73.622076 -114.526708 
L 74.418313 -112.962324 
L 75.214551 -111.245272 
L 76.010788 -109.458562 
L 76.807026 -107.702634 
L 77.603263 -106.08962 
L 78.399501 -104.728371 
L 79.195739 -103.699879 
L 79.991976 -103.035971 
L 80.788214 -102.716285 
L 81.584451 -102.684389 
L 82.380689 -102.871636 
L 83.176926 -103.217127 
L 83.973164 -103.678508 
L 84.769401 -104.231576 
L 85.565639 -104.858318 
L 86.361876 -105.526795 
L 87.158114 -106.172244 
L 87.954351 -106.693149 
L 88.750589 -106.971444 
L 89.546826 -106.913915 
L 90.343064 -106.496421 
L 91.139301 -105.784661 
L 91.935539 -104.914688 
L 92.731776 -104.04255 
L 93.528014 -103.291271 
L 94.324251 -102.719754 
L 95.120489 -102.319116 
L 95.916727 -102.029104 
L 96.712964 -101.767996 
L 97.509202 -101.470709 
L 98.305439 -101.120373 
L 99.101677 -100.752435 
L 99.897914 -100.422294 
L 100.694152 -100.158548 
L 101.490389 -99.938524 
L 102.286627 -99.701367 
L 103.082864 -99.37979 
L 103.879102 -98.925382 
L 104.675339 -98.325502 
L 105.471577 -97.621838 
L 106.267814 -96.926217 
L 107.064052 -96.409294 
L 107.860289 -96.245567 
L 108.656527 -96.535948 
L 109.452764 -97.256224 
L 110.249002 -98.262908 
L 111.04524 -99.346653 
L 111.841477 -100.296202 
L 112.637715 -100.945852 
L 113.433952 -101.20018 
L 114.23019 -101.040646 
L 115.026427 -100.516855 
L 115.822665 -99.725436 
L 116.618902 -98.784214 
L 117.41514 -97.811778 
L 118.211377 -96.916177 
L 119.007615 -96.189024 
L 119.803852 -95.699496 
L 120.60009 -95.485667 
L 121.396327 -95.543358 
L 122.192565 -95.816499 
L 122.988802 -96.196935 
L 123.78504 -96.543616 
L 124.581277 -96.723257 
L 125.377515 -96.656994 
L 126.173752 -96.348807 
L 126.96999 -95.878668 
L 127.766228 -95.362081 
L 128.562465 -94.89421 
L 129.358703 -94.503562 
L 130.15494 -94.133267 
L 130.951178 -93.661287 
L 131.747415 -92.953047 
L 132.543653 -91.926258 
L 133.33989 -90.59836 
L 134.136128 -89.092944 
L 134.932365 -87.602238 
L 135.728603 -86.322765 
L 136.52484 -85.39471 
L 137.321078 -84.866156 
L 138.117315 -84.695391 
L 138.913553 -84.787582 
L 139.70979 -85.047103 
L 140.506028 -85.419458 
L 141.302265 -85.904729 
L 142.098503 -86.545069 
L 142.89474 -87.400949 
L 143.690978 -88.529096 
L 144.487216 -89.963843 
L 145.283453 -91.701209 
L 146.079691 -93.692245 
L 146.875928 -95.854531 
L 147.672166 -98.099962 
L 148.468403 -100.36212 
L 149.264641 -102.603227 
L 150.060878 -104.795507 
L 150.857116 -106.893396 
L 151.653353 -108.819007 
L 152.449591 -110.470914 
L 153.245828 -111.750628 
L 154.042066 -112.59468 
L 154.838303 -113.001929 
L 155.634541 -113.047867 
L 156.430778 -112.87942 
L 157.227016 -112.686491 
L 158.023253 -112.654206 
L 158.819491 -112.90894 
L 159.615729 -113.476446 
L 160.411966 -114.26944 
L 161.208204 -115.112882 
L 162.004441 -115.800797 
L 162.800679 -116.162564 
L 163.596916 -116.112683 
L 164.393154 -115.668178 
L 165.189391 -114.934069 
L 165.985629 -114.066628 
L 166.781866 -113.225533 
L 167.578104 -112.527523 
L 168.374341 -112.017863 
L 169.170579 -111.67057 
L 169.966816 -111.415071 
L 170.763054 -111.17331 
L 171.559291 -110.890242 
L 172.355529 -110.549091 
L 173.151766 -110.168653 
L 173.948004 -109.781145 
L 174.744241 -109.395431 
L 175.540479 -108.964499 
L 176.336717 -108.382913 
L 177.132954 -107.525563 
L 177.929192 -106.31119 
L 178.725429 -104.7565 
L 179.521667 -102.993845 
L 180.317904 -101.247198 
L 181.114142 -99.777026 
L 181.910379 -98.807402 
L 182.706617 -98.451682 
L 183.502854 -98.662012 
L 184.299092 -99.227896 
L 185.095329 -99.832654 
L 185.891567 -100.14854 
L 186.687804 -99.932949 
L 187.484042 -99.090708 
L 188.280279 -97.684476 
L 189.076517 -95.895454 
L 189.872754 -93.953863 
L 190.668992 -92.068626 
L 191.46523 -90.38327 
L 192.261467 -88.969405 
L 193.057705 -87.849728 
L 193.853942 -87.032837 
L 194.65018 -86.540453 
L 195.446417 -86.412549 
L 196.242655 -86.681644 
L 197.038892 -87.32222 
L 197.83513 -88.203907 
L 198.631367 -89.087252 
L 199.427605 -89.682438 
L 200.223842 -89.753735 
L 201.02008 -89.220455 
L 201.816317 -88.203039 
L 202.612555 -86.991849 
L 203.408792 -85.952473 
L 204.20503 -85.404817 
L 205.001267 -85.51973 
L 205.797505 -86.269657 
L 206.593742 -87.449138 
L 207.38998 -88.756549 
L 208.186218 -89.903154 
L 208.982455 -90.709666 
L 209.778693 -91.1568 
L 210.57493 -91.371163 
L 211.371168 -91.549873 
L 212.167405 -91.855305 
L 212.963643 -92.329474 
L 213.75988 -92.871241 
L 214.556118 -93.28225 
L 215.352355 -93.35312 
L 216.148593 -92.948248 
L 216.94483 -92.058195 
L 217.741068 -90.805753 
L 218.537305 -89.40466 
L 219.333543 -88.08263 
L 220.12978 -86.994306 
L 220.926018 -86.159271 
L 221.722255 -85.453177 
L 222.518493 -84.657875 
L 223.31473 -83.551242 
L 224.110968 -82.002623 
L 224.907206 -80.038306 
L 225.703443 -77.850005 
L 226.499681 -75.740015 
L 227.295918 -74.020668 
L 228.092156 -72.908731 
L 228.888393 -72.458597 
L 229.684631 -72.558391 
L 230.480868 -72.983876 
L 231.277106 -73.481733 
L 232.073343 -73.84612 
L 232.869581 -73.96493 
L 233.665818 -73.826686 
L 234.462056 -73.495554 
L 235.258293 -73.068652 
L 236.054531 -72.629769 
L 236.850768 -72.213649 
L 237.647006 -71.795372 
L 238.443243 -71.311013 
L 239.239481 -70.698008 
L 240.035719 -69.929706 
L 240.831956 -69.021657 
L 241.628194 -68.00798 
L 242.424431 -66.907678 
L 243.220669 -65.706186 
L 244.016906 -64.363892 
L 244.813144 -62.844944 
L 245.609381 -61.148866 
L 246.405619 -59.332984 
L 247.201856 -57.51668 
L 247.998094 -55.86115 
L 248.794331 -54.525619 
L 249.590569 -53.61449 
L 250.386806 -53.140623 
L 251.183044 -53.025403 
L 251.979281 -53.136319 
L 252.775519 -53.342661 
L 253.571756 -53.563941 
L 254.367994 -53.79488 
L 255.164231 -54.102149 
L 255.960469 -54.593032 
L 256.756707 -55.360027 
L 257.552944 -56.418054 
L 258.349182 -57.665254 
L 259.145419 -58.897752 
L 259.941657 -59.881702 
L 260.737894 -60.450545 
L 261.534132 -60.578335 
L 262.330369 -60.394245 
L 263.126607 -60.135956 
L 263.922844 -60.067675 
L 264.719082 -60.396109 
L 265.515319 -61.211279 
L 266.311557 -62.46934 
L 267.107794 -64.021054 
L 267.904032 -65.672213 
L 268.700269 -67.248585 
L 269.496507 -68.639108 
L 270.292744 -69.804102 
L 271.088982 -70.756254 
L 271.88522 -71.529446 
L 272.681457 -72.152121 
L 273.477695 -72.635867 
L 274.273932 -72.982418 
L 275.07017 -73.20348 
L 275.866407 -73.338642 
L 276.662645 -73.458887 
L 277.458882 -73.646199 
L 278.25512 -73.95686 
L 279.051357 -74.385552 
L 279.847595 -74.850891 
L 280.643832 -75.214775 
L 281.44007 -75.331951 
L 282.236307 -75.111806 
L 283.032545 -74.566619 
L 283.828782 -73.826856 
L 284.62502 -73.115314 
L 285.421257 -72.687356 
L 286.217495 -72.756433 
L 287.013732 -73.430443 
L 287.80997 -74.681606 
L 288.606208 -76.35969 
L 289.402445 -78.240099 
L 290.198683 -80.085623 
L 290.99492 -81.698251 
L 291.791158 -82.947038 
L 292.587395 -83.770887 
L 293.383633 -84.165025 
L 294.17987 -84.163364 
L 294.976108 -83.82699 
L 295.772345 -83.242135 
L 296.568583 -82.521511 
L 297.36482 -81.797788 
L 298.161058 -81.202412 
L 298.957295 -80.834025 
L 299.753533 -80.72861 
L 300.54977 -80.842932 
L 301.346008 -81.057201 
L 302.142245 -81.200154 
L 302.938483 -81.095303 
L 303.73472 -80.619169 
L 304.530958 -79.750888 
L 305.327196 -78.589644 
L 306.123433 -77.329128 
L 306.919671 -76.198859 
L 307.715908 -75.396632 
L 308.512146 -75.036164 
L 309.308383 -75.125852 
L 310.104621 -75.579818 
L 310.900858 -76.251191 
L 311.697096 -76.971655 
L 312.493333 -77.583909 
L 313.289571 -77.962178 
L 314.085808 -78.023498 
L 314.882046 -77.730717 
L 315.678283 -77.090253 
L 316.474521 -76.145896 
L 317.270758 -74.976299 
L 318.066996 -73.698886 
L 318.863233 -72.469426 
L 319.659471 -71.460295 
L 320.455709 -70.814521 
L 321.251946 -70.595322 
L 322.048184 -70.760477 
L 322.844421 -71.173498 
L 323.640659 -71.64168 
L 324.436896 -71.963438 
L 325.233134 -71.975759 
L 326.029371 -71.600386 
L 326.825609 -70.881435 
L 327.621846 -69.997188 
L 328.418084 -69.23022 
L 329.214321 -68.897349 
L 330.010559 -69.260584 
L 330.806796 -70.448478 
L 331.603034 -72.411444 
L 332.399271 -74.922388 
L 333.195509 -77.622851 
L 333.991746 -80.103789 
L 334.787984 -82.005295 
L 335.584221 -83.10749 
L 336.380459 -83.385742 
L 337.176697 -83.012353 
L 337.972934 -82.303399 
L 338.769172 -81.626107 
L 339.565409 -81.292733 
L 340.361647 -81.470828 
L 341.157884 -82.139269 
L 341.954122 -83.10768 
L 342.750359 -84.094098 
L 343.546597 -84.830138 
L 344.342834 -85.150594 
L 345.139072 -85.035365 
L 345.935309 -84.59706 
L 346.731547 -84.029886 
L 347.527784 -83.540787 
L 348.324022 -83.28408 
L 349.120259 -83.318676 
L 349.916497 -83.600745 
L 350.712734 -84.009955 
L 351.508972 -84.392421 
L 352.30521 -84.601622 
L 353.101447 -84.532191 
L 353.897685 -84.143778 
L 354.693922 -83.473402 
L 355.49016 -82.627729 
L 356.286397 -81.75599 
L 357.082635 -81.018525 
L 357.878872 -80.565385 
L 358.67511 -80.522582 
L 359.471347 -80.972208 
L 360.267585 -81.920393 
L 361.063822 -83.26939 
L 361.86006 -84.817611 
L 362.656297 -86.297408 
L 363.452535 -87.438784 
L 364.248772 -88.036987 
L 365.04501 -88.005958 
L 365.841247 -87.404224 
L 366.637485 -86.423065 
L 367.433722 -85.333601 
L 368.22996 -84.407581 
L 369.026198 -83.841587 
L 369.822435 -83.712852 
L 370.618673 -83.979038 
L 371.41491 -84.514415 
L 372.211148 -85.166306 
L 373.007385 -85.811833 
L 373.803623 -86.393614 
L 374.59986 -86.917425 
L 375.396098 -87.410683 
L 376.192335 -87.864518 
L 376.988573 -88.196334 
L 377.78481 -88.26178 
L 378.581048 -87.913739 
L 379.377285 -87.080174 
L 380.173523 -85.819126 
L 380.96976 -84.32327 
L 381.765998 -82.870995 
L 382.562235 -81.742582 
L 383.358473 -81.132041 
L 384.15471 -81.086194 
L 384.950948 -81.498222 
L 385.747186 -82.158493 
L 386.543423 -82.843303 
L 387.339661 -83.40233 
L 388.135898 -83.806414 
L 388.932136 -84.137016 
L 389.728373 -84.526552 
L 390.524611 -85.082791 
L 391.320848 -85.833717 
L 392.117086 -86.718663 
L 392.913323 -87.625647 
L 393.709561 -88.454228 
L 394.505798 -89.173744 
L 395.302036 -89.850267 
L 396.098273 -90.62852 
L 396.894511 -91.67362 
L 397.690748 -93.096688 
L 398.486986 -94.899075 
L 399.283223 -96.962899 
L 400.079461 -99.092553 
L 400.875699 -101.086731 
L 401.671936 -102.808379 
L 402.468174 -104.223983 
L 403.264411 -105.398122 
L 404.060649 -106.446845 
L 404.856886 -107.469895 
L 405.653124 -108.492078 
L 406.449361 -109.443178 
L 407.245599 -110.187947 
L 408.041836 -110.591744 
L 408.838074 -110.590243 
L 409.634311 -110.232166 
L 410.430549 -109.676001 
L 411.226786 -109.142387 
L 412.023024 -108.837208 
L 412.819261 -108.875435 
L 413.615499 -109.238626 
L 413.615499 -155.556282 
L 413.615499 -155.556282 
L 412.819261 -155.133244 
L 412.023024 -155.055869 
L 411.226786 -155.331827 
L 410.430549 -155.836249 
L 409.634311 -156.349411 
L 408.838074 -156.632996 
L 408.041836 -156.516538 
L 407.245599 -155.956263 
L 406.449361 -155.040236 
L 405.653124 -153.936327 
L 404.856886 -152.809424 
L 404.060649 -151.745269 
L 403.264411 -150.713341 
L 402.468174 -149.584645 
L 401.671936 -148.198159 
L 400.875699 -146.447752 
L 400.079461 -144.349437 
L 399.283223 -142.0545 
L 398.486986 -139.800593 
L 397.690748 -137.823916 
L 396.894511 -136.273003 
L 396.098273 -135.160736 
L 395.302036 -134.372589 
L 394.505798 -133.725789 
L 393.709561 -133.053675 
L 392.913323 -132.277739 
L 392.117086 -131.433993 
L 391.320848 -130.64113 
L 390.524611 -130.027229 
L 389.728373 -129.653147 
L 388.932136 -129.471977 
L 388.135898 -129.344475 
L 387.339661 -129.103015 
L 386.543423 -128.632914 
L 385.747186 -127.935866 
L 384.950948 -127.146799 
L 384.15471 -126.495617 
L 383.358473 -126.226491 
L 382.562235 -126.504928 
L 381.765998 -127.350125 
L 380.96976 -128.620529 
L 380.173523 -130.061471 
L 379.377285 -131.391658 
L 378.581048 -132.390313 
L 377.78481 -132.94921 
L 376.988573 -133.075832 
L 376.192335 -132.858032 
L 375.396098 -132.412782 
L 374.59986 -131.842056 
L 373.803623 -131.20831 
L 373.007385 -130.537328 
L 372.211148 -129.84494 
L 371.41491 -129.173487 
L 370.618673 -128.613237 
L 369.822435 -128.287621 
L 369.026198 -128.302728 
L 368.22996 -128.686893 
L 367.433722 -129.354523 
L 366.637485 -130.114498 
L 365.841247 -130.720893 
L 365.04501 -130.945241 
L 364.248772 -130.645762 
L 363.452535 -129.811604 
L 362.656297 -128.56639 
L 361.86006 -127.128757 
L 361.063822 -125.746246 
L 360.267585 -124.632773 
L 359.471347 -123.9316 
L 358.67511 -123.70428 
L 357.878872 -123.93331 
L 357.082635 -124.532135 
L 356.286397 -125.36571 
L 355.49016 -126.280985 
L 354.693922 -127.136948 
L 353.897685 -127.821531 
L 353.101447 -128.257678 
L 352.30521 -128.411899 
L 351.508972 -128.31019 
L 350.712734 -128.047396 
L 349.916497 -127.77153 
L 349.120259 -127.638194 
L 348.324022 -127.755509 
L 347.527784 -128.140462 
L 346.731547 -128.7028 
L 345.935309 -129.263341 
L 345.139072 -129.605837 
L 344.342834 -129.550228 
L 343.546597 -129.021786 
L 342.750359 -128.086691 
L 341.954122 -126.939538 
L 341.157884 -125.848222 
L 340.361647 -125.076374 
L 339.565409 -124.803827 
L 338.769172 -125.063273 
L 337.972934 -125.712057 
L 337.176697 -126.454891 
L 336.380459 -126.918908 
L 335.584221 -126.760507 
L 334.787984 -125.769827 
L 333.991746 -123.938341 
L 333.195509 -121.468433 
L 332.399271 -118.722672 
L 331.603034 -116.128446 
L 330.806796 -114.066624 
L 330.010559 -112.779531 
L 329.214321 -112.32251 
L 328.418084 -112.571024 
L 327.621846 -113.273586 
L 326.825609 -114.127851 
L 326.029371 -114.856825 
L 325.233134 -115.270357 
L 324.436896 -115.303423 
L 323.640659 -115.022455 
L 322.844421 -114.593782 
L 322.048184 -114.221372 
L 321.251946 -114.07933 
L 320.455709 -114.268098 
L 319.659471 -114.805756 
L 318.863233 -115.642358 
L 318.066996 -116.678391 
L 317.270758 -117.781 
L 316.474521 -118.803539 
L 315.678283 -119.613605 
L 314.882046 -120.120954 
L 314.085808 -120.29174 
L 313.289571 -120.146093 
L 312.493333 -119.748365 
L 311.697096 -119.198941 
L 310.900858 -118.628417 
L 310.104621 -118.18329 
L 309.308383 -118.000861 
L 308.512146 -118.178275 
L 307.715908 -118.745982 
L 306.919671 -119.654843 
L 306.123433 -120.782806 
L 305.327196 -121.961856 
L 304.530958 -123.019036 
L 303.73472 -123.818433 
L 302.938483 -124.29348 
L 302.142245 -124.462215 
L 301.346008 -124.420818 
L 300.54977 -124.313456 
L 299.753533 -124.285127 
L 298.957295 -124.435361 
L 298.161058 -124.79264 
L 297.36482 -125.318784 
L 296.568583 -125.933719 
L 295.772345 -126.542739 
L 294.976108 -127.052185 
L 294.17987 -127.371463 
L 293.383633 -127.409017 
L 292.587395 -127.07298 
L 291.791158 -126.284628 
L 290.99492 -125.0067 
L 290.198683 -123.278284 
L 289.402445 -121.238676 
L 288.606208 -119.121609 
L 287.80997 -117.21216 
L 287.013732 -115.776401 
L 286.217495 -114.986594 
L 285.421257 -114.867939 
L 284.62502 -115.286314 
L 283.828782 -115.985758 
L 283.032545 -116.667062 
L 282.236307 -117.080941 
L 281.44007 -117.100553 
L 280.643832 -116.746167 
L 279.847595 -116.155385 
L 279.051357 -115.515401 
L 278.25512 -114.985844 
L 277.458882 -114.6429 
L 276.662645 -114.463035 
L 275.866407 -114.347993 
L 275.07017 -114.175537 
L 274.273932 -113.851018 
L 273.477695 -113.337349 
L 272.681457 -112.651084 
L 271.88522 -111.831645 
L 271.088982 -110.901725 
L 270.292744 -109.845113 
L 269.496507 -108.617915 
L 268.700269 -107.188629 
L 267.904032 -105.583744 
L 267.107794 -103.911038 
L 266.311557 -102.346214 
L 265.515319 -101.083854 
L 264.719082 -100.270602 
L 263.922844 -99.944765 
L 263.126607 -100.008444 
L 262.330369 -100.249306 
L 261.534132 -100.40837 
L 260.737894 -100.266509 
L 259.941657 -99.713189 
L 259.145419 -98.771621 
L 258.349182 -97.578871 
L 257.552944 -96.33554 
L 256.756707 -95.241301 
L 255.960469 -94.431884 
L 255.164231 -93.93728 
L 254.367994 -93.682667 
L 253.571756 -93.539043 
L 252.775519 -93.402117 
L 251.979281 -93.255556 
L 251.183044 -93.182823 
L 250.386806 -93.324045 
L 249.590569 -93.805844 
L 248.794331 -94.682076 
L 247.998094 -95.910753 
L 247.201856 -97.371117 
L 246.405619 -98.909954 
L 245.609381 -100.39779 
L 244.813144 -101.771747 
L 244.016906 -103.044556 
L 243.220669 -104.273406 
L 242.424431 -105.505753 
L 241.628194 -106.735505 
L 240.831956 -107.894692 
L 240.035719 -108.882589 
L 239.239481 -109.611518 
L 238.443243 -110.046291 
L 237.647006 -110.223196 
L 236.850768 -110.243018 
L 236.054531 -110.238089 
L 235.258293 -110.320985 
L 234.462056 -110.533692 
L 233.665818 -110.824052 
L 232.869581 -111.069326 
L 232.073343 -111.14178 
L 231.277106 -110.985 
L 230.480868 -110.661577 
L 229.684631 -110.347665 
L 228.888393 -110.276408 
L 228.092156 -110.656291 
L 227.295918 -111.596404 
L 226.499681 -113.066899 
L 225.703443 -114.906041 
L 224.907206 -116.869208 
L 224.110968 -118.704676 
L 223.31473 -120.233695 
L 222.518493 -121.407845 
L 221.722255 -122.31993 
L 220.926018 -123.158228 
L 220.12978 -124.121174 
L 219.333543 -125.32718 
L 218.537305 -126.755524 
L 217.741068 -128.241681 
L 216.94483 -129.531806 
L 216.148593 -130.379439 
L 215.352355 -130.645812 
L 214.556118 -130.357511 
L 213.75988 -129.692177 
L 212.963643 -128.899935 
L 212.167405 -128.200406 
L 211.371168 -127.702269 
L 210.57493 -127.37447 
L 209.778693 -127.07375 
L 208.982455 -126.617411 
L 208.186218 -125.875514 
L 207.38998 -124.84783 
L 206.593742 -123.689246 
L 205.797505 -122.665825 
L 205.001267 -122.056155 
L 204.20503 -122.039991 
L 203.408792 -122.622 
L 202.612555 -123.623358 
L 201.816317 -124.741775 
L 201.02008 -125.654601 
L 200.223842 -126.12182 
L 199.427605 -126.049851 
L 198.631367 -125.499885 
L 197.83513 -124.650594 
L 197.038892 -123.737067 
L 196.242655 -122.986201 
L 195.446417 -122.564194 
L 194.65018 -122.549867 
L 193.853942 -122.943072 
L 193.057705 -123.701855 
L 192.261467 -124.783355 
L 191.46523 -126.159872 
L 190.668992 -127.799791 
L 189.872754 -129.629361 
L 189.076517 -131.505771 
L 188.280279 -133.223711 
L 187.484042 -134.560198 
L 186.687804 -135.343449 
L 185.891567 -135.518703 
L 185.095329 -135.181873 
L 184.299092 -134.563887 
L 183.502854 -133.969977 
L 182.706617 -133.695943 
L 181.910379 -133.948385 
L 181.114142 -134.791509 
L 180.317904 -136.135786 
L 179.521667 -137.774136 
L 178.725429 -139.455547 
L 177.929192 -140.965662 
L 177.132954 -142.179002 
L 176.336717 -143.066823 
L 175.540479 -143.672094 
L 174.744241 -144.0758 
L 173.948004 -144.368423 
L 173.151766 -144.627644 
L 172.355529 -144.90294 
L 171.559291 -145.213229 
L 170.763054 -145.560782 
L 169.966816 -145.951491 
L 169.170579 -146.40399 
L 168.374341 -146.939903 
L 167.578104 -147.564437 
L 166.781866 -148.251701 
L 165.985629 -148.941949 
L 165.189391 -149.550623 
L 164.393154 -149.986739 
L 163.596916 -150.178049 
L 162.800679 -150.094983 
L 162.004441 -149.762501 
L 161.208204 -149.253332 
L 160.411966 -148.667334 
L 159.615729 -148.107594 
L 158.819491 -147.658832 
L 158.023253 -147.367648 
L 157.227016 -147.226388 
L 156.430778 -147.16585 
L 155.634541 -147.063824 
L 154.838303 -146.771603 
L 154.042066 -146.15285 
L 153.245828 -145.121665 
L 152.449591 -143.664952 
L 151.653353 -141.840732 
L 150.857116 -139.754762 
L 150.060878 -137.528417 
L 149.264641 -135.271254 
L 148.468403 -133.064168 
L 147.672166 -130.952066 
L 146.875928 -128.946414 
L 146.079691 -127.041028 
L 145.283453 -125.237576 
L 144.487216 -123.565212 
L 143.690978 -122.077393 
L 142.89474 -120.825393 
L 142.098503 -119.827928 
L 141.302265 -119.061442 
L 140.506028 -118.479838 
L 139.70979 -118.048902 
L 138.913553 -117.770884 
L 138.117315 -117.684617 
L 137.321078 -117.845196 
L 136.52484 -118.294773 
L 135.728603 -119.036306 
L 134.932365 -120.019177 
L 134.136128 -121.143508 
L 133.33989 -122.284699 
L 132.543653 -123.328342 
L 131.747415 -124.203561 
L 130.951178 -124.898797 
L 130.15494 -125.456763 
L 129.358703 -125.950241 
L 128.562465 -126.445998 
L 127.766228 -126.970116 
L 126.96999 -127.490799 
L 126.173752 -127.929935 
L 125.377515 -128.196498 
L 124.581277 -128.226953 
L 123.78504 -128.014862 
L 122.988802 -127.620938 
L 122.192565 -127.161816 
L 121.396327 -126.779889 
L 120.60009 -126.602385 
L 119.803852 -126.705144 
L 119.007615 -127.096718 
L 118.211377 -127.727583 
L 117.41514 -128.514396 
L 116.618902 -129.361195 
L 115.822665 -130.168053 
L 115.026427 -130.830603 
L 114.23019 -131.2409 
L 113.433952 -131.299275 
L 112.637715 -130.941024 
L 111.841477 -130.171285 
L 111.04524 -129.089573 
L 110.249002 -127.88193 
L 109.452764 -126.774668 
L 108.656527 -125.969543 
L 107.860289 -125.591748 
L 107.064052 -125.665709 
L 106.267814 -126.11469 
L 105.471577 -126.777368 
L 104.675339 -127.448839 
L 103.879102 -127.949425 
L 103.082864 -128.194973 
L 102.286627 -128.223474 
L 101.490389 -128.155978 
L 100.694152 -128.117414 
L 99.897914 -128.172314 
L 99.101677 -128.310526 
L 98.305439 -128.474356 
L 97.509202 -128.597014 
L 96.712964 -128.634465 
L 95.916727 -128.588021 
L 95.120489 -128.512406 
L 94.324251 -128.498471 
L 93.528014 -128.629226 
L 92.731776 -128.931892 
L 91.935539 -129.356051 
L 91.139301 -129.789552 
L 90.343064 -130.097804 
L 89.546826 -130.163586 
L 88.750589 -129.915087 
L 87.954351 -129.34102 
L 87.158114 -128.491853 
L 86.361876 -127.463914 
L 85.565639 -126.368399 
L 84.769401 -125.297578 
L 83.973164 -124.304716 
L 83.176926 -123.408918 
L 82.380689 -122.621533 
L 81.584451 -121.97708 
L 80.788214 -121.547437 
L 79.991976 -121.429197 
L 79.195739 -121.711859 
L 78.399501 -122.443807 
L 77.603263 -123.609593 
L 76.807026 -125.123803 
L 76.010788 -126.844142 
L 75.214551 -128.604037 
L 74.418313 -130.255444 
L 73.622076 -131.700793 
L 72.825838 -132.897186 
L 72.029601 -133.836642 
L 71.233363 -134.523485 
L 70.437126 -134.966574 
L 69.640888 -135.183781 
L 68.844651 -135.206093 
L 68.048413 -135.078152 
L 67.252176 -134.860107 
L 66.455938 -134.62837 
L 65.659701 -134.463149 
L 64.863463 -134.420124 
L 64.067226 -134.504491 
L 63.270988 -134.670397 
L 62.47475 -134.848774 
L 61.678513 -134.981844 
L 60.882275 -135.044924 
L 60.086038 -135.057266 
L 59.2898 -135.088307 
L 58.493563 -135.247734 
L 57.697325 -135.646361 
L 56.901088 -136.34057 
L 56.10485 -137.292427 
L 55.308613 -138.368007 
L 54.512375 -139.372846 
L 53.716138 -140.108657 
L 52.9199 -140.437732 
L 52.123663 -140.342431 
L 51.327425 -139.956886 
L 50.531188 -139.544746 
L 49.73495 -139.416902 
L 48.938713 -139.821942 
L 48.142475 -140.859247 
L 47.346238 -142.448781 
L 46.55 -144.356638 
z
" style="stroke: #377eb8; stroke-opacity: 0.3"/>
    </defs>
    <g clip-path="url(#p2275c118cd)">
     <use xlink:href="#mcdc3125e6d" x="0" y="360" style="fill: #377eb8; fill-opacity: 0.3; stroke: #377eb8; stroke-opacity: 0.3"/>
    </g>
   </g>
   <g id="patch_3">
    <path d="M 229.843878 318.2 
L 229.843878 71.241125 
L 331.762281 71.241125 
L 331.762281 318.2 
z
" clip-path="url(#p2275c118cd)" style="fill: #808080; opacity: 0.3"/>
   </g>
   <g id="matplotlib.axis_1">
    <g id="xtick_1">
     <g id="line2d_1">
      <defs>
       <path id="mbf153bbac2" d="M 0 0 
L 0 3.5 
" style="stroke: #000000; stroke-width: 0.8"/>
      </defs>
      <g>
       <use xlink:href="#mbf153bbac2" x="87.158114" y="318.2" style="stroke: #000000; stroke-width: 0.8"/>
      </g>
     </g>
     <g id="text_1">
      <!-- 0.0 -->
      <g transform="translate(79.206551 332.798437)scale(0.1 -0.1)">
       <defs>
        <path id="DejaVuSans-30" d="M 2034 4250 
Q 1547 4250 1301 3770 
Q 1056 3291 1056 2328 
Q 1056 1369 1301 889 
Q 1547 409 2034 409 
Q 2525 409 2770 889 
Q 3016 1369 3016 2328 
Q 3016 3291 2770 3770 
Q 2525 4250 2034 4250 
z
M 2034 4750 
Q 2819 4750 3233 4129 
Q 3647 3509 3647 2328 
Q 3647 1150 3233 529 
Q 2819 -91 2034 -91 
Q 1250 -91 836 529 
Q 422 1150 422 2328 
Q 422 3509 836 4129 
Q 1250 4750 2034 4750 
z
" transform="scale(0.015625)"/>
        <path id="DejaVuSans-2e" d="M 684 794 
L 1344 794 
L 1344 0 
L 684 0 
L 684 794 
z
" transform="scale(0.015625)"/>
       </defs>
       <use xlink:href="#DejaVuSans-30"/>
       <use xlink:href="#DejaVuSans-2e" x="63.623047"/>
       <use xlink:href="#DejaVuSans-30" x="95.410156"/>
      </g>
     </g>
    </g>
    <g id="xtick_2">
     <g id="line2d_2">
      <g>
       <use xlink:href="#mbf153bbac2" x="168.692836" y="318.2" style="stroke: #000000; stroke-width: 0.8"/>
      </g>
     </g>
     <g id="text_2">
      <!-- 0.2 -->
      <g transform="translate(160.741274 332.798437)scale(0.1 -0.1)">
       <defs>
        <path id="DejaVuSans-32" d="M 1228 531 
L 3431 531 
L 3431 0 
L 469 0 
L 469 531 
Q 828 903 1448 1529 
Q 2069 2156 2228 2338 
Q 2531 2678 2651 2914 
Q 2772 3150 2772 3378 
Q 2772 3750 2511 3984 
Q 2250 4219 1831 4219 
Q 1534 4219 1204 4116 
Q 875 4013 500 3803 
L 500 4441 
Q 881 4594 1212 4672 
Q 1544 4750 1819 4750 
Q 2544 4750 2975 4387 
Q 3406 4025 3406 3419 
Q 3406 3131 3298 2873 
Q 3191 2616 2906 2266 
Q 2828 2175 2409 1742 
Q 1991 1309 1228 531 
z
" transform="scale(0.015625)"/>
       </defs>
       <use xlink:href="#DejaVuSans-30"/>
       <use xlink:href="#DejaVuSans-2e" x="63.623047"/>
       <use xlink:href="#DejaVuSans-32" x="95.410156"/>
      </g>
     </g>
    </g>
    <g id="xtick_3">
     <g id="line2d_3">
      <g>
       <use xlink:href="#mbf153bbac2" x="250.227559" y="318.2" style="stroke: #000000; stroke-width: 0.8"/>
      </g>
     </g>
     <g id="text_3">
      <!-- 0.4 -->
      <g transform="translate(242.275996 332.798437)scale(0.1 -0.1)">
       <defs>
        <path id="DejaVuSans-34" d="M 2419 4116 
L 825 1625 
L 2419 1625 
L 2419 4116 
z
M 2253 4666 
L 3047 4666 
L 3047 1625 
L 3713 1625 
L 3713 1100 
L 3047 1100 
L 3047 0 
L 2419 0 
L 2419 1100 
L 313 1100 
L 313 1709 
L 2253 4666 
z
" transform="scale(0.015625)"/>
       </defs>
       <use xlink:href="#DejaVuSans-30"/>
       <use xlink:href="#DejaVuSans-2e" x="63.623047"/>
       <use xlink:href="#DejaVuSans-34" x="95.410156"/>
      </g>
     </g>
    </g>
    <g id="xtick_4">
     <g id="line2d_4">
      <g>
       <use xlink:href="#mbf153bbac2" x="331.762281" y="318.2" style="stroke: #000000; stroke-width: 0.8"/>
      </g>
     </g>
     <g id="text_4">
      <!-- 0.6 -->
      <g transform="translate(323.810719 332.798437)scale(0.1 -0.1)">
       <defs>
        <path id="DejaVuSans-36" d="M 2113 2584 
Q 1688 2584 1439 2293 
Q 1191 2003 1191 1497 
Q 1191 994 1439 701 
Q 1688 409 2113 409 
Q 2538 409 2786 701 
Q 3034 994 3034 1497 
Q 3034 2003 2786 2293 
Q 2538 2584 2113 2584 
z
M 3366 4563 
L 3366 3988 
Q 3128 4100 2886 4159 
Q 2644 4219 2406 4219 
Q 1781 4219 1451 3797 
Q 1122 3375 1075 2522 
Q 1259 2794 1537 2939 
Q 1816 3084 2150 3084 
Q 2853 3084 3261 2657 
Q 3669 2231 3669 1497 
Q 3669 778 3244 343 
Q 2819 -91 2113 -91 
Q 1303 -91 875 529 
Q 447 1150 447 2328 
Q 447 3434 972 4092 
Q 1497 4750 2381 4750 
Q 2619 4750 2861 4703 
Q 3103 4656 3366 4563 
z
" transform="scale(0.015625)"/>
       </defs>
       <use xlink:href="#DejaVuSans-30"/>
       <use xlink:href="#DejaVuSans-2e" x="63.623047"/>
       <use xlink:href="#DejaVuSans-36" x="95.410156"/>
      </g>
     </g>
    </g>
    <g id="xtick_5">
     <g id="line2d_5">
      <g>
       <use xlink:href="#mbf153bbac2" x="413.297004" y="318.2" style="stroke: #000000; stroke-width: 0.8"/>
      </g>
     </g>
     <g id="text_5">
      <!-- 0.8 -->
      <g transform="translate(405.345441 332.798437)scale(0.1 -0.1)">
       <defs>
        <path id="DejaVuSans-38" d="M 2034 2216 
Q 1584 2216 1326 1975 
Q 1069 1734 1069 1313 
Q 1069 891 1326 650 
Q 1584 409 2034 409 
Q 2484 409 2743 651 
Q 3003 894 3003 1313 
Q 3003 1734 2745 1975 
Q 2488 2216 2034 2216 
z
M 1403 2484 
Q 997 2584 770 2862 
Q 544 3141 544 3541 
Q 544 4100 942 4425 
Q 1341 4750 2034 4750 
Q 2731 4750 3128 4425 
Q 3525 4100 3525 3541 
Q 3525 3141 3298 2862 
Q 3072 2584 2669 2484 
Q 3125 2378 3379 2068 
Q 3634 1759 3634 1313 
Q 3634 634 3220 271 
Q 2806 -91 2034 -91 
Q 1263 -91 848 271 
Q 434 634 434 1313 
Q 434 1759 690 2068 
Q 947 2378 1403 2484 
z
M 1172 3481 
Q 1172 3119 1398 2916 
Q 1625 2713 2034 2713 
Q 2441 2713 2670 2916 
Q 2900 3119 2900 3481 
Q 2900 3844 2670 4047 
Q 2441 4250 2034 4250 
Q 1625 4250 1398 4047 
Q 1172 3844 1172 3481 
z
" transform="scale(0.015625)"/>
       </defs>
       <use xlink:href="#DejaVuSans-30"/>
       <use xlink:href="#DejaVuSans-2e" x="63.623047"/>
       <use xlink:href="#DejaVuSans-38" x="95.410156"/>
      </g>
     </g>
    </g>
    <g id="text_6">
     <!-- seconds -->
     <g transform="translate(209.645249 346.476562)scale(0.1 -0.1)">
      <defs>
       <path id="DejaVuSans-73" d="M 2834 3397 
L 2834 2853 
Q 2591 2978 2328 3040 
Q 2066 3103 1784 3103 
Q 1356 3103 1142 2972 
Q 928 2841 928 2578 
Q 928 2378 1081 2264 
Q 1234 2150 1697 2047 
L 1894 2003 
Q 2506 1872 2764 1633 
Q 3022 1394 3022 966 
Q 3022 478 2636 193 
Q 2250 -91 1575 -91 
Q 1294 -91 989 -36 
Q 684 19 347 128 
L 347 722 
Q 666 556 975 473 
Q 1284 391 1588 391 
Q 1994 391 2212 530 
Q 2431 669 2431 922 
Q 2431 1156 2273 1281 
Q 2116 1406 1581 1522 
L 1381 1569 
Q 847 1681 609 1914 
Q 372 2147 372 2553 
Q 372 3047 722 3315 
Q 1072 3584 1716 3584 
Q 2034 3584 2315 3537 
Q 2597 3491 2834 3397 
z
" transform="scale(0.015625)"/>
       <path id="DejaVuSans-65" d="M 3597 1894 
L 3597 1613 
L 953 1613 
Q 991 1019 1311 708 
Q 1631 397 2203 397 
Q 2534 397 2845 478 
Q 3156 559 3463 722 
L 3463 178 
Q 3153 47 2828 -22 
Q 2503 -91 2169 -91 
Q 1331 -91 842 396 
Q 353 884 353 1716 
Q 353 2575 817 3079 
Q 1281 3584 2069 3584 
Q 2775 3584 3186 3129 
Q 3597 2675 3597 1894 
z
M 3022 2063 
Q 3016 2534 2758 2815 
Q 2500 3097 2075 3097 
Q 1594 3097 1305 2825 
Q 1016 2553 972 2059 
L 3022 2063 
z
" transform="scale(0.015625)"/>
       <path id="DejaVuSans-63" d="M 3122 3366 
L 3122 2828 
Q 2878 2963 2633 3030 
Q 2388 3097 2138 3097 
Q 1578 3097 1268 2742 
Q 959 2388 959 1747 
Q 959 1106 1268 751 
Q 1578 397 2138 397 
Q 2388 397 2633 464 
Q 2878 531 3122 666 
L 3122 134 
Q 2881 22 2623 -34 
Q 2366 -91 2075 -91 
Q 1284 -91 818 406 
Q 353 903 353 1747 
Q 353 2603 823 3093 
Q 1294 3584 2113 3584 
Q 2378 3584 2631 3529 
Q 2884 3475 3122 3366 
z
" transform="scale(0.015625)"/>
       <path id="DejaVuSans-6f" d="M 1959 3097 
Q 1497 3097 1228 2736 
Q 959 2375 959 1747 
Q 959 1119 1226 758 
Q 1494 397 1959 397 
Q 2419 397 2687 759 
Q 2956 1122 2956 1747 
Q 2956 2369 2687 2733 
Q 2419 3097 1959 3097 
z
M 1959 3584 
Q 2709 3584 3137 3096 
Q 3566 2609 3566 1747 
Q 3566 888 3137 398 
Q 2709 -91 1959 -91 
Q 1206 -91 779 398 
Q 353 888 353 1747 
Q 353 2609 779 3096 
Q 1206 3584 1959 3584 
z
" transform="scale(0.015625)"/>
       <path id="DejaVuSans-6e" d="M 3513 2113 
L 3513 0 
L 2938 0 
L 2938 2094 
Q 2938 2591 2744 2837 
Q 2550 3084 2163 3084 
Q 1697 3084 1428 2787 
Q 1159 2491 1159 1978 
L 1159 0 
L 581 0 
L 581 3500 
L 1159 3500 
L 1159 2956 
Q 1366 3272 1645 3428 
Q 1925 3584 2291 3584 
Q 2894 3584 3203 3211 
Q 3513 2838 3513 2113 
z
" transform="scale(0.015625)"/>
       <path id="DejaVuSans-64" d="M 2906 2969 
L 2906 4863 
L 3481 4863 
L 3481 0 
L 2906 0 
L 2906 525 
Q 2725 213 2448 61 
Q 2172 -91 1784 -91 
Q 1150 -91 751 415 
Q 353 922 353 1747 
Q 353 2572 751 3078 
Q 1150 3584 1784 3584 
Q 2172 3584 2448 3432 
Q 2725 3281 2906 2969 
z
M 947 1747 
Q 947 1113 1208 752 
Q 1469 391 1925 391 
Q 2381 391 2643 752 
Q 2906 1113 2906 1747 
Q 2906 2381 2643 2742 
Q 2381 3103 1925 3103 
Q 1469 3103 1208 2742 
Q 947 2381 947 1747 
z
" transform="scale(0.015625)"/>
      </defs>
      <use xlink:href="#DejaVuSans-73"/>
      <use xlink:href="#DejaVuSans-65" x="52.099609"/>
      <use xlink:href="#DejaVuSans-63" x="113.623047"/>
      <use xlink:href="#DejaVuSans-6f" x="168.603516"/>
      <use xlink:href="#DejaVuSans-6e" x="229.785156"/>
      <use xlink:href="#DejaVuSans-64" x="293.164062"/>
      <use xlink:href="#DejaVuSans-73" x="356.640625"/>
     </g>
    </g>
   </g>
   <g id="matplotlib.axis_2">
    <g id="ytick_1">
     <g id="line2d_6">
      <defs>
       <path id="m3a7a7c9b93" d="M 0 0 
L -3.5 0 
" style="stroke: #000000; stroke-width: 0.8"/>
      </defs>
      <g>
       <use xlink:href="#m3a7a7c9b93" x="46.55" y="297.091272" style="stroke: #000000; stroke-width: 0.8"/>
      </g>
     </g>
     <g id="text_7">
      <!-- 2 -->
      <g transform="translate(24.807812 300.890491)scale(0.1 -0.1)">
       <defs>
        <path id="DejaVuSans-2212" d="M 678 2272 
L 4684 2272 
L 4684 1741 
L 678 1741 
L 678 2272 
z
" transform="scale(0.015625)"/>
       </defs>
       <use xlink:href="#DejaVuSans-2212"/>
       <use xlink:href="#DejaVuSans-32" x="83.789062"/>
      </g>
     </g>
    </g>
    <g id="ytick_2">
     <g id="line2d_7">
      <g>
       <use xlink:href="#m3a7a7c9b93" x="46.55" y="266.728295" style="stroke: #000000; stroke-width: 0.8"/>
      </g>
     </g>
     <g id="text_8">
      <!-- 1 -->
      <g transform="translate(24.807812 270.527514)scale(0.1 -0.1)">
       <defs>
        <path id="DejaVuSans-31" d="M 794 531 
L 1825 531 
L 1825 4091 
L 703 3866 
L 703 4441 
L 1819 4666 
L 2450 4666 
L 2450 531 
L 3481 531 
L 3481 0 
L 794 0 
L 794 531 
z
" transform="scale(0.015625)"/>
       </defs>
       <use xlink:href="#DejaVuSans-2212"/>
       <use xlink:href="#DejaVuSans-31" x="83.789062"/>
      </g>
     </g>
    </g>
    <g id="ytick_3">
     <g id="line2d_8">
      <g>
       <use xlink:href="#m3a7a7c9b93" x="46.55" y="236.365318" style="stroke: #000000; stroke-width: 0.8"/>
      </g>
     </g>
     <g id="text_9">
      <!-- 0 -->
      <g transform="translate(33.1875 240.164537)scale(0.1 -0.1)">
       <use xlink:href="#DejaVuSans-30"/>
      </g>
     </g>
    </g>
    <g id="ytick_4">
     <g id="line2d_9">
      <g>
       <use xlink:href="#m3a7a7c9b93" x="46.55" y="206.002342" style="stroke: #000000; stroke-width: 0.8"/>
      </g>
     </g>
     <g id="text_10">
      <!-- 1 -->
      <g transform="translate(33.1875 209.80156)scale(0.1 -0.1)">
       <use xlink:href="#DejaVuSans-31"/>
      </g>
     </g>
    </g>
    <g id="ytick_5">
     <g id="line2d_10">
      <g>
       <use xlink:href="#m3a7a7c9b93" x="46.55" y="175.639365" style="stroke: #000000; stroke-width: 0.8"/>
      </g>
     </g>
     <g id="text_11">
      <!-- 2 -->
      <g transform="translate(33.1875 179.438583)scale(0.1 -0.1)">
       <use xlink:href="#DejaVuSans-32"/>
      </g>
     </g>
    </g>
    <g id="ytick_6">
     <g id="line2d_11">
      <g>
       <use xlink:href="#m3a7a7c9b93" x="46.55" y="145.276388" style="stroke: #000000; stroke-width: 0.8"/>
      </g>
     </g>
     <g id="text_12">
      <!-- 3 -->
      <g transform="translate(33.1875 149.075607)scale(0.1 -0.1)">
       <defs>
        <path id="DejaVuSans-33" d="M 2597 2516 
Q 3050 2419 3304 2112 
Q 3559 1806 3559 1356 
Q 3559 666 3084 287 
Q 2609 -91 1734 -91 
Q 1441 -91 1130 -33 
Q 819 25 488 141 
L 488 750 
Q 750 597 1062 519 
Q 1375 441 1716 441 
Q 2309 441 2620 675 
Q 2931 909 2931 1356 
Q 2931 1769 2642 2001 
Q 2353 2234 1838 2234 
L 1294 2234 
L 1294 2753 
L 1863 2753 
Q 2328 2753 2575 2939 
Q 2822 3125 2822 3475 
Q 2822 3834 2567 4026 
Q 2313 4219 1838 4219 
Q 1578 4219 1281 4162 
Q 984 4106 628 3988 
L 628 4550 
Q 988 4650 1302 4700 
Q 1616 4750 1894 4750 
Q 2613 4750 3031 4423 
Q 3450 4097 3450 3541 
Q 3450 3153 3228 2886 
Q 3006 2619 2597 2516 
z
" transform="scale(0.015625)"/>
       </defs>
       <use xlink:href="#DejaVuSans-33"/>
      </g>
     </g>
    </g>
    <g id="ytick_7">
     <g id="line2d_12">
      <g>
       <use xlink:href="#m3a7a7c9b93" x="46.55" y="114.913411" style="stroke: #000000; stroke-width: 0.8"/>
      </g>
     </g>
     <g id="text_13">
      <!-- 4 -->
      <g transform="translate(33.1875 118.71263)scale(0.1 -0.1)">
       <use xlink:href="#DejaVuSans-34"/>
      </g>
     </g>
    </g>
    <g id="ytick_8">
     <g id="line2d_13">
      <g>
       <use xlink:href="#m3a7a7c9b93" x="46.55" y="84.550434" style="stroke: #000000; stroke-width: 0.8"/>
      </g>
     </g>
     <g id="text_14">
      <!-- 5 -->
      <g transform="translate(33.1875 88.349653)scale(0.1 -0.1)">
       <defs>
        <path id="DejaVuSans-35" d="M 691 4666 
L 3169 4666 
L 3169 4134 
L 1269 4134 
L 1269 2991 
Q 1406 3038 1543 3061 
Q 1681 3084 1819 3084 
Q 2600 3084 3056 2656 
Q 3513 2228 3513 1497 
Q 3513 744 3044 326 
Q 2575 -91 1722 -91 
Q 1428 -91 1123 -41 
Q 819 9 494 109 
L 494 744 
Q 775 591 1075 516 
Q 1375 441 1709 441 
Q 2250 441 2565 725 
Q 2881 1009 2881 1497 
Q 2881 1984 2565 2268 
Q 2250 2553 1709 2553 
Q 1456 2553 1204 2497 
Q 953 2441 691 2322 
L 691 4666 
z
" transform="scale(0.015625)"/>
       </defs>
       <use xlink:href="#DejaVuSans-35"/>
      </g>
     </g>
    </g>
    <g id="text_15">
     <!-- V -->
     <g transform="translate(18.728125 201.322125)rotate(-90)scale(0.1 -0.1)">
      <defs>
       <path id="DejaVuSans-b5" d="M 544 -1331 
L 544 3500 
L 1119 3500 
L 1119 1325 
Q 1119 872 1334 640 
Q 1550 409 1972 409 
Q 2434 409 2667 671 
Q 2900 934 2900 1459 
L 2900 3500 
L 3475 3500 
L 3475 806 
Q 3475 619 3529 530 
Q 3584 441 3700 441 
Q 3728 441 3778 458 
Q 3828 475 3916 513 
L 3916 50 
Q 3788 -22 3673 -56 
Q 3559 -91 3450 -91 
Q 3234 -91 3106 31 
Q 2978 153 2931 403 
Q 2775 156 2548 32 
Q 2322 -91 2016 -91 
Q 1697 -91 1473 31 
Q 1250 153 1119 397 
L 1119 -1331 
L 544 -1331 
z
" transform="scale(0.015625)"/>
       <path id="DejaVuSans-56" d="M 1831 0 
L 50 4666 
L 709 4666 
L 2188 738 
L 3669 4666 
L 4325 4666 
L 2547 0 
L 1831 0 
z
" transform="scale(0.015625)"/>
      </defs>
      <use xlink:href="#DejaVuSans-b5"/>
      <use xlink:href="#DejaVuSans-56" x="63.623047"/>
     </g>
    </g>
   </g>
   <g id="line2d_14">
    <path d="M 46.55 227.813954 
L 47.346238 227.173666 
L 48.142475 227.706987 
L 48.938713 229.323033 
L 50.531188 233.926403 
L 51.327425 235.64114 
L 52.123663 236.305395 
L 52.9199 235.82525 
L 53.716138 234.490799 
L 54.512375 232.87583 
L 55.308613 231.640445 
L 56.10485 231.30776 
L 56.901088 232.094418 
L 57.697325 233.852286 
L 59.2898 238.362625 
L 60.086038 240.010846 
L 60.882275 240.775394 
L 61.678513 240.641817 
L 62.47475 239.857517 
L 64.067226 237.954618 
L 64.863463 237.556833 
L 65.659701 237.76422 
L 66.455938 238.543439 
L 67.252176 239.745412 
L 69.640888 244.025047 
L 70.437126 245.18435 
L 71.233363 246.032244 
L 72.029601 246.480689 
L 72.825838 246.465233 
L 73.622076 245.976037 
L 74.418313 245.090097 
L 76.010788 242.885529 
L 76.807026 242.036551 
L 77.603263 241.567811 
L 79.991976 241.124209 
L 80.788214 240.119718 
L 81.584451 238.087552 
L 82.380689 234.944014 
L 85.565639 219.070504 
L 86.361876 217.133762 
L 87.158114 216.617297 
L 87.954351 217.267591 
L 89.546826 219.901558 
L 90.343064 220.743261 
L 91.139301 220.802187 
L 91.935539 220.083853 
L 94.324251 216.376062 
L 95.120489 215.732153 
L 95.916727 215.56463 
L 97.509202 215.813054 
L 98.305439 215.660403 
L 99.101677 215.064104 
L 99.897914 214.020999 
L 102.286627 210.051516 
L 103.082864 209.20407 
L 103.879102 208.842933 
L 104.675339 209.011162 
L 105.471577 209.717331 
L 106.267814 210.962767 
L 107.064052 212.741521 
L 107.860289 215.00847 
L 110.249002 222.815637 
L 111.04524 224.592195 
L 111.841477 225.330305 
L 112.637715 224.857899 
L 113.433952 223.274203 
L 115.822665 216.564832 
L 116.618902 215.637517 
L 117.41514 215.97631 
L 118.211377 217.496649 
L 119.803852 222.443453 
L 120.60009 224.833799 
L 121.396327 226.649064 
L 122.192565 227.772819 
L 122.988802 228.302059 
L 123.78504 228.453519 
L 125.377515 228.394026 
L 126.173752 228.30335 
L 126.96999 228.085039 
L 127.766228 227.649386 
L 129.358703 226.181492 
L 130.15494 225.429386 
L 130.951178 224.918873 
L 131.747415 224.764244 
L 132.543653 224.942042 
L 134.136128 225.563903 
L 134.932365 225.532212 
L 135.728603 225.058417 
L 136.52484 224.142304 
L 138.117315 221.50235 
L 142.89474 213.163072 
L 143.690978 211.931856 
L 144.487216 211.065474 
L 145.283453 210.700558 
L 146.079691 210.838426 
L 147.672166 211.814262 
L 148.468403 212.002956 
L 149.264641 211.60444 
L 150.060878 210.507907 
L 150.857116 208.788526 
L 153.245828 202.106714 
L 156.430778 193.684582 
L 157.227016 191.784509 
L 158.023253 190.336946 
L 158.819491 189.668686 
L 159.615729 190.015224 
L 160.411966 191.391641 
L 162.800679 197.953549 
L 163.596916 199.106304 
L 164.393154 199.117051 
L 165.189391 198.073674 
L 166.781866 194.640192 
L 167.578104 193.425006 
L 168.374341 193.138401 
L 169.170579 193.898415 
L 169.966816 195.54734 
L 173.151766 204.184495 
L 173.948004 205.627888 
L 174.744241 206.624089 
L 175.540479 207.136745 
L 176.336717 207.082957 
L 177.132954 206.34583 
L 177.929192 204.824326 
L 178.725429 202.490784 
L 179.521667 199.423952 
L 181.114142 191.84449 
L 183.502854 179.949054 
L 185.095329 173.322651 
L 185.891567 170.862216 
L 186.687804 169.273659 
L 187.484042 168.756492 
L 188.280279 169.376958 
L 189.076517 170.991897 
L 191.46523 177.537891 
L 192.261467 178.696334 
L 193.057705 178.975424 
L 193.853942 178.599733 
L 194.65018 178.039159 
L 195.446417 177.848814 
L 196.242655 178.477737 
L 197.038892 180.116015 
L 197.83513 182.635318 
L 199.427605 188.622174 
L 200.223842 191.118112 
L 201.02008 192.877629 
L 201.816317 193.91894 
L 204.20503 195.721058 
L 205.001267 196.899658 
L 206.593742 200.29696 
L 207.38998 202.014518 
L 208.186218 203.386849 
L 208.982455 204.285396 
L 209.778693 204.749158 
L 212.167405 205.362971 
L 214.556118 206.605035 
L 215.352355 206.721258 
L 217.741068 206.339647 
L 218.537305 206.957373 
L 219.333543 208.518581 
L 220.12978 211.140358 
L 221.722255 218.61231 
L 222.518493 222.380791 
L 223.31473 225.297164 
L 224.110968 226.836376 
L 224.907206 226.736396 
L 225.703443 225.045678 
L 226.499681 222.082175 
L 230.480868 203.68714 
L 232.073343 198.49673 
L 235.258293 188.729859 
L 236.850768 183.970625 
L 237.647006 182.199072 
L 238.443243 181.201499 
L 239.239481 181.207862 
L 240.035719 182.3064 
L 240.831956 184.366618 
L 242.424431 189.652976 
L 243.220669 191.629133 
L 244.016906 192.356332 
L 244.813144 191.501945 
L 245.609381 189.086656 
L 246.405619 185.483661 
L 247.998094 177.216758 
L 248.794331 173.725631 
L 249.590569 171.048094 
L 250.386806 169.074752 
L 251.979281 165.798416 
L 252.775519 163.799801 
L 255.164231 156.517456 
L 255.960469 154.711461 
L 256.756707 153.627532 
L 257.552944 153.172184 
L 258.349182 153.005998 
L 259.145419 152.6671 
L 259.941657 151.744762 
L 260.737894 150.031415 
L 261.534132 147.59265 
L 263.922844 139.389815 
L 264.719082 137.535251 
L 265.515319 136.355146 
L 266.311557 135.758498 
L 267.107794 135.610392 
L 267.904032 135.826704 
L 268.700269 136.415867 
L 269.496507 137.446459 
L 270.292744 138.96128 
L 272.681457 144.836317 
L 273.477695 146.08842 
L 274.273932 146.441909 
L 275.07017 145.849344 
L 275.866407 144.530009 
L 277.458882 141.410851 
L 278.25512 140.407449 
L 279.051357 139.983869 
L 280.643832 140.038862 
L 281.44007 139.807451 
L 282.236307 139.047904 
L 283.032545 137.759069 
L 284.62502 134.64633 
L 285.421257 133.529059 
L 286.217495 133.002382 
L 287.013732 133.016014 
L 288.606208 133.518622 
L 289.402445 133.321787 
L 290.198683 132.562707 
L 290.99492 131.304903 
L 292.587395 128.367111 
L 293.383633 127.288891 
L 294.17987 126.675227 
L 294.976108 126.436745 
L 295.772345 126.318927 
L 296.568583 126.001175 
L 297.36482 125.219159 
L 298.161058 123.86596 
L 301.346008 116.820122 
L 302.142245 116.272085 
L 302.938483 116.581793 
L 303.73472 117.647424 
L 305.327196 121.027918 
L 306.919671 124.238028 
L 307.715908 125.393878 
L 310.900858 129.132142 
L 311.697096 130.70928 
L 312.493333 132.743152 
L 314.085808 137.917043 
L 315.678283 143.49632 
L 316.474521 145.971717 
L 317.270758 148.056635 
L 318.066996 149.712226 
L 318.863233 150.996086 
L 320.455709 153.111081 
L 321.251946 154.395185 
L 322.048184 156.112329 
L 322.844421 158.373109 
L 324.436896 164.275282 
L 326.029371 170.292003 
L 326.825609 172.489748 
L 327.621846 173.816759 
L 328.418084 174.233644 
L 329.214321 173.893422 
L 331.603034 171.491253 
L 332.399271 171.127246 
L 334.787984 170.926886 
L 335.584221 170.364532 
L 336.380459 169.33979 
L 337.972934 166.731744 
L 338.769172 165.945652 
L 339.565409 166.053681 
L 340.361647 167.277941 
L 341.157884 169.583843 
L 342.750359 176.104016 
L 343.546597 179.33902 
L 344.342834 181.961135 
L 345.139072 183.731168 
L 345.935309 184.630475 
L 346.731547 184.830436 
L 349.120259 184.109637 
L 349.916497 184.212239 
L 350.712734 184.631247 
L 352.30521 186.095254 
L 353.101447 186.862033 
L 353.897685 187.462384 
L 354.693922 187.799395 
L 355.49016 187.8435 
L 357.082635 187.34315 
L 357.878872 187.120214 
L 358.67511 187.181424 
L 359.471347 187.691683 
L 360.267585 188.733244 
L 361.063822 190.284626 
L 362.656297 194.40972 
L 365.04501 200.892795 
L 366.637485 204.597822 
L 368.22996 207.674725 
L 369.026198 208.894279 
L 370.618673 210.731633 
L 371.41491 211.566836 
L 372.211148 212.569162 
L 373.007385 213.862964 
L 375.396098 218.527774 
L 376.192335 219.294267 
L 376.988573 219.101902 
L 377.78481 217.885033 
L 380.173523 212.032394 
L 380.96976 211.541735 
L 381.765998 212.647455 
L 382.562235 215.345339 
L 384.950948 227.213105 
L 385.747186 229.796705 
L 386.543423 230.805217 
L 387.339661 230.270812 
L 388.135898 228.588232 
L 389.728373 224.13945 
L 390.524611 222.340082 
L 391.320848 221.048222 
L 392.913323 219.117012 
L 393.709561 217.799881 
L 394.505798 215.934561 
L 396.098273 210.812494 
L 397.690748 205.69203 
L 398.486986 203.802727 
L 399.283223 202.452443 
L 400.079461 201.518082 
L 403.264411 198.73082 
L 404.060649 198.176079 
L 404.856886 197.912255 
L 405.653124 198.033142 
L 406.449361 198.531844 
L 408.041836 200.194967 
L 409.634311 201.834824 
L 412.023024 203.748122 
L 412.819261 204.320961 
L 413.615499 204.753025 
L 413.615499 204.753025 
" clip-path="url(#p2275c118cd)" style="fill: none; stroke: #e41a1c; stroke-width: 1.5; stroke-linecap: square"/>
   </g>
   <g id="line2d_15">
    <path d="M 46.55 226.960491 
L 47.346238 228.604301 
L 48.142475 229.915855 
L 48.938713 230.687483 
L 49.73495 230.868092 
L 50.531188 230.568538 
L 52.123663 229.505425 
L 52.9199 229.266131 
L 53.716138 229.442526 
L 54.512375 230.035687 
L 56.901088 232.723964 
L 57.697325 233.279973 
L 58.493563 233.50323 
L 59.2898 233.45014 
L 60.882275 233.06047 
L 61.678513 232.989852 
L 62.47475 233.081587 
L 64.863463 233.730648 
L 65.659701 233.774261 
L 67.252176 233.455871 
L 68.844651 233.08206 
L 69.640888 233.102366 
L 70.437126 233.345321 
L 71.233363 233.839558 
L 72.029601 234.595263 
L 72.825838 235.613215 
L 73.622076 236.88625 
L 75.214551 240.075346 
L 77.603263 245.150393 
L 78.399501 246.413911 
L 79.195739 247.294131 
L 79.991976 247.767416 
L 80.788214 247.868139 
L 81.584451 247.669266 
L 82.380689 247.253416 
L 83.973164 246.008388 
L 85.565639 244.386641 
L 87.158114 242.667952 
L 87.954351 241.982916 
L 88.750589 241.556734 
L 89.546826 241.46125 
L 90.343064 241.702887 
L 91.139301 242.212894 
L 93.528014 244.039751 
L 94.324251 244.390887 
L 95.916727 244.691438 
L 97.509202 244.966139 
L 100.694152 245.862019 
L 103.082864 246.212619 
L 103.879102 246.562597 
L 104.675339 247.11283 
L 106.267814 248.479546 
L 107.064052 248.962499 
L 107.860289 249.081343 
L 108.656527 248.747255 
L 109.452764 247.984554 
L 111.841477 244.766256 
L 112.637715 244.056562 
L 113.433952 243.750272 
L 114.23019 243.859227 
L 115.026427 244.326271 
L 116.618902 245.927295 
L 118.211377 247.67812 
L 119.007615 248.357129 
L 119.803852 248.79768 
L 120.60009 248.955974 
L 121.396327 248.838377 
L 122.988802 248.091063 
L 123.78504 247.720761 
L 124.581277 247.524895 
L 125.377515 247.573254 
L 126.173752 247.860629 
L 130.15494 250.204985 
L 130.951178 250.719958 
L 131.747415 251.421696 
L 132.543653 252.3727 
L 134.136128 254.881774 
L 135.728603 257.320464 
L 136.52484 258.155258 
L 137.321078 258.644324 
L 138.117315 258.809996 
L 138.913553 258.720767 
L 139.70979 258.451997 
L 140.506028 258.050352 
L 141.302265 257.516915 
L 142.098503 256.813502 
L 142.89474 255.886829 
L 143.690978 254.696755 
L 144.487216 253.235472 
L 146.079691 249.633364 
L 148.468403 243.286856 
L 151.653353 234.670131 
L 152.449591 232.932067 
L 153.245828 231.563853 
L 154.042066 230.626235 
L 154.838303 230.113234 
L 155.634541 229.944155 
L 158.023253 229.989073 
L 158.819491 229.716114 
L 159.615729 229.20798 
L 162.004441 227.218351 
L 162.800679 226.871227 
L 163.596916 226.854634 
L 164.393154 227.172542 
L 165.189391 227.757654 
L 167.578104 229.95402 
L 169.170579 230.96272 
L 172.355529 232.273984 
L 175.540479 233.681703 
L 176.336717 234.275132 
L 177.132954 235.147718 
L 177.929192 236.361574 
L 179.521667 239.61601 
L 180.317904 241.308508 
L 181.114142 242.715733 
L 181.910379 243.622107 
L 182.706617 243.926187 
L 183.502854 243.684006 
L 185.095329 242.492737 
L 185.891567 242.166379 
L 186.687804 242.361801 
L 187.484042 243.174547 
L 188.280279 244.545907 
L 192.261467 253.12362 
L 193.057705 254.224208 
L 193.853942 255.012045 
L 194.65018 255.45484 
L 195.446417 255.511628 
L 196.242655 255.166077 
L 197.038892 254.470357 
L 198.631367 252.706431 
L 199.427605 252.133856 
L 200.223842 252.062222 
L 201.02008 252.562472 
L 201.816317 253.527593 
L 203.408792 255.712763 
L 204.20503 256.277596 
L 205.001267 256.212058 
L 205.797505 255.532259 
L 208.186218 252.110666 
L 208.982455 251.336462 
L 209.778693 250.884725 
L 211.371168 250.373929 
L 212.167405 249.972144 
L 214.556118 248.18012 
L 215.352355 248.000534 
L 216.148593 248.336157 
L 216.94483 249.205 
L 218.537305 251.919908 
L 219.333543 253.295095 
L 220.12978 254.44226 
L 221.722255 256.113446 
L 222.518493 256.96714 
L 223.31473 258.107531 
L 224.110968 259.646351 
L 227.295918 267.191464 
L 228.092156 268.217489 
L 228.888393 268.632497 
L 229.684631 268.546972 
L 232.073343 267.50605 
L 232.869581 267.482872 
L 233.665818 267.674631 
L 236.054531 268.566071 
L 237.647006 268.990716 
L 238.443243 269.321348 
L 239.239481 269.845237 
L 240.035719 270.593852 
L 241.628194 272.628257 
L 244.016906 276.295776 
L 245.609381 279.226672 
L 247.998094 284.114048 
L 248.794331 285.396152 
L 249.590569 286.289833 
L 250.386806 286.767666 
L 251.183044 286.895887 
L 252.775519 286.627611 
L 255.164231 285.980285 
L 255.960469 285.487542 
L 256.756707 284.699336 
L 258.349182 282.377937 
L 259.145419 281.165313 
L 259.941657 280.202555 
L 260.737894 279.641473 
L 261.534132 279.506647 
L 263.922844 279.99378 
L 264.719082 279.666644 
L 265.515319 278.852433 
L 266.311557 277.592223 
L 269.496507 271.371489 
L 271.088982 269.17101 
L 272.681457 267.598397 
L 273.477695 267.013392 
L 274.273932 266.583282 
L 275.07017 266.310492 
L 277.458882 265.855451 
L 278.25512 265.528648 
L 280.643832 264.019529 
L 281.44007 263.783748 
L 282.236307 263.903626 
L 283.032545 264.38316 
L 284.62502 265.799186 
L 285.421257 266.222352 
L 286.217495 266.128487 
L 287.013732 265.396578 
L 287.80997 264.053117 
L 289.402445 260.260612 
L 290.99492 256.647525 
L 291.791158 255.384167 
L 292.587395 254.578066 
L 293.383633 254.212979 
L 294.17987 254.232587 
L 294.976108 254.560412 
L 296.568583 255.772385 
L 298.161058 257.002474 
L 298.957295 257.365307 
L 299.753533 257.493132 
L 302.938483 257.305608 
L 303.73472 257.781199 
L 304.530958 258.615038 
L 307.715908 262.928693 
L 308.512146 263.39278 
L 309.308383 263.436643 
L 310.104621 263.118446 
L 313.289571 260.945864 
L 314.085808 260.842381 
L 314.882046 261.074165 
L 315.678283 261.648071 
L 316.474521 262.525282 
L 319.659471 266.866975 
L 320.455709 267.458691 
L 321.251946 267.662674 
L 322.048184 267.509076 
L 324.436896 266.36657 
L 325.233134 266.376942 
L 326.029371 266.771394 
L 327.621846 268.364613 
L 328.418084 269.099378 
L 329.214321 269.390071 
L 330.010559 268.979943 
L 330.806796 267.742449 
L 331.603034 265.730055 
L 333.991746 257.978935 
L 334.787984 256.112439 
L 335.584221 255.066001 
L 336.380459 254.847675 
L 337.176697 255.266378 
L 338.769172 256.65531 
L 339.565409 256.95172 
L 340.361647 256.726399 
L 341.157884 256.006254 
L 343.546597 253.074038 
L 344.342834 252.649589 
L 345.139072 252.679399 
L 345.935309 253.069799 
L 347.527784 254.159376 
L 348.324022 254.480205 
L 349.120259 254.521565 
L 349.916497 254.313862 
L 351.508972 253.648695 
L 352.30521 253.493239 
L 353.101447 253.605065 
L 353.897685 254.017345 
L 354.693922 254.694825 
L 357.082635 257.22467 
L 357.878872 257.750652 
L 358.67511 257.886569 
L 359.471347 257.548096 
L 360.267585 256.723417 
L 361.063822 255.492182 
L 362.656297 252.568101 
L 363.452535 251.374806 
L 364.248772 250.658625 
L 365.04501 250.5244 
L 365.841247 250.937442 
L 368.22996 253.452763 
L 369.026198 253.927843 
L 369.822435 253.999764 
L 370.618673 253.703862 
L 372.211148 252.494377 
L 374.59986 250.62026 
L 376.192335 249.638725 
L 376.988573 249.363917 
L 377.78481 249.394505 
L 378.581048 249.847974 
L 379.377285 250.764084 
L 380.96976 253.528101 
L 381.765998 254.88944 
L 382.562235 255.876245 
L 383.358473 256.320734 
L 384.15471 256.209095 
L 384.950948 255.67749 
L 386.543423 254.261892 
L 387.339661 253.747328 
L 388.932136 253.195503 
L 389.728373 252.910151 
L 390.524611 252.44499 
L 391.320848 251.762576 
L 394.505798 248.550233 
L 396.098273 247.105372 
L 396.894511 246.026688 
L 397.690748 244.539698 
L 399.283223 240.4913 
L 400.875699 236.232758 
L 401.671936 234.496731 
L 402.468174 233.095686 
L 404.060649 230.903943 
L 406.449361 227.758293 
L 407.245599 226.927895 
L 408.041836 226.445859 
L 408.838074 226.388381 
L 409.634311 226.709211 
L 411.226786 227.762893 
L 412.023024 228.053462 
L 412.819261 227.99566 
L 413.615499 227.602546 
L 413.615499 227.602546 
" clip-path="url(#p2275c118cd)" style="fill: none; stroke: #377eb8; stroke-width: 1.5; stroke-linecap: square"/>
   </g>
   <g id="line2d_16">
    <path d="M 87.158114 318.2 
L 87.158114 71.241125 
" clip-path="url(#p2275c118cd)" style="fill: none; stroke: #000000; stroke-width: 0.5; stroke-linecap: square"/>
   </g>
   <g id="line2d_17">
    <path d="M 46.55 236.365318 
L 413.615499 236.365318 
" clip-path="url(#p2275c118cd)" style="fill: none; stroke: #000000; stroke-width: 0.5; stroke-linecap: square"/>
   </g>
   <g id="patch_4">
    <path d="M 46.55 318.2 
L 46.55 71.241125 
" style="fill: none; stroke: #000000; stroke-width: 0.8; stroke-linejoin: miter; stroke-linecap: square"/>
   </g>
   <g id="patch_5">
    <path d="M 413.615499 318.2 
L 413.615499 71.241125 
" style="fill: none; stroke: #000000; stroke-width: 0.8; stroke-linejoin: miter; stroke-linecap: square"/>
   </g>
   <g id="patch_6">
    <path d="M 46.55 318.2 
L 413.615499 318.2 
" style="fill: none; stroke: #000000; stroke-width: 0.8; stroke-linejoin: miter; stroke-linecap: square"/>
   </g>
   <g id="patch_7">
    <path d="M 46.55 71.241125 
L 413.615499 71.241125 
" style="fill: none; stroke: #000000; stroke-width: 0.8; stroke-linejoin: miter; stroke-linecap: square"/>
   </g>
   <g id="text_16">
    <!-- Cz -->
    <g transform="translate(222.743999 65.241125)scale(0.12 -0.12)">
     <defs>
      <path id="DejaVuSans-43" d="M 4122 4306 
L 4122 3641 
Q 3803 3938 3442 4084 
Q 3081 4231 2675 4231 
Q 1875 4231 1450 3742 
Q 1025 3253 1025 2328 
Q 1025 1406 1450 917 
Q 1875 428 2675 428 
Q 3081 428 3442 575 
Q 3803 722 4122 1019 
L 4122 359 
Q 3791 134 3420 21 
Q 3050 -91 2638 -91 
Q 1578 -91 968 557 
Q 359 1206 359 2328 
Q 359 3453 968 4101 
Q 1578 4750 2638 4750 
Q 3056 4750 3426 4639 
Q 3797 4528 4122 4306 
z
" transform="scale(0.015625)"/>
      <path id="DejaVuSans-7a" d="M 353 3500 
L 3084 3500 
L 3084 2975 
L 922 459 
L 3084 459 
L 3084 0 
L 275 0 
L 275 525 
L 2438 3041 
L 353 3041 
L 353 3500 
z
" transform="scale(0.015625)"/>
     </defs>
     <use xlink:href="#DejaVuSans-43"/>
     <use xlink:href="#DejaVuSans-7a" x="69.824219"/>
    </g>
   </g>
   <g id="legend_1">
    <g id="patch_8">
     <path d="M 99.855406 48.044893 
L 360.310093 48.044893 
Q 362.310093 48.044893 362.310093 46.044893 
L 362.310093 17.410517 
Q 362.310093 15.410517 360.310093 15.410517 
L 99.855406 15.410517 
Q 97.855406 15.410517 97.855406 17.410517 
L 97.855406 46.044893 
Q 97.855406 48.044893 99.855406 48.044893 
z
" style="fill: #ffffff; opacity: 0.8; stroke: #cccccc; stroke-linejoin: miter"/>
    </g>
    <g id="text_17">
     <!-- Average of Session 9_tac4 -->
     <g transform="translate(164.249937 27.008955)scale(0.1 -0.1)">
      <defs>
       <path id="DejaVuSans-41" d="M 2188 4044 
L 1331 1722 
L 3047 1722 
L 2188 4044 
z
M 1831 4666 
L 2547 4666 
L 4325 0 
L 3669 0 
L 3244 1197 
L 1141 1197 
L 716 0 
L 50 0 
L 1831 4666 
z
" transform="scale(0.015625)"/>
       <path id="DejaVuSans-76" d="M 191 3500 
L 800 3500 
L 1894 563 
L 2988 3500 
L 3597 3500 
L 2284 0 
L 1503 0 
L 191 3500 
z
" transform="scale(0.015625)"/>
       <path id="DejaVuSans-72" d="M 2631 2963 
Q 2534 3019 2420 3045 
Q 2306 3072 2169 3072 
Q 1681 3072 1420 2755 
Q 1159 2438 1159 1844 
L 1159 0 
L 581 0 
L 581 3500 
L 1159 3500 
L 1159 2956 
Q 1341 3275 1631 3429 
Q 1922 3584 2338 3584 
Q 2397 3584 2469 3576 
Q 2541 3569 2628 3553 
L 2631 2963 
z
" transform="scale(0.015625)"/>
       <path id="DejaVuSans-61" d="M 2194 1759 
Q 1497 1759 1228 1600 
Q 959 1441 959 1056 
Q 959 750 1161 570 
Q 1363 391 1709 391 
Q 2188 391 2477 730 
Q 2766 1069 2766 1631 
L 2766 1759 
L 2194 1759 
z
M 3341 1997 
L 3341 0 
L 2766 0 
L 2766 531 
Q 2569 213 2275 61 
Q 1981 -91 1556 -91 
Q 1019 -91 701 211 
Q 384 513 384 1019 
Q 384 1609 779 1909 
Q 1175 2209 1959 2209 
L 2766 2209 
L 2766 2266 
Q 2766 2663 2505 2880 
Q 2244 3097 1772 3097 
Q 1472 3097 1187 3025 
Q 903 2953 641 2809 
L 641 3341 
Q 956 3463 1253 3523 
Q 1550 3584 1831 3584 
Q 2591 3584 2966 3190 
Q 3341 2797 3341 1997 
z
" transform="scale(0.015625)"/>
       <path id="DejaVuSans-67" d="M 2906 1791 
Q 2906 2416 2648 2759 
Q 2391 3103 1925 3103 
Q 1463 3103 1205 2759 
Q 947 2416 947 1791 
Q 947 1169 1205 825 
Q 1463 481 1925 481 
Q 2391 481 2648 825 
Q 2906 1169 2906 1791 
z
M 3481 434 
Q 3481 -459 3084 -895 
Q 2688 -1331 1869 -1331 
Q 1566 -1331 1297 -1286 
Q 1028 -1241 775 -1147 
L 775 -588 
Q 1028 -725 1275 -790 
Q 1522 -856 1778 -856 
Q 2344 -856 2625 -561 
Q 2906 -266 2906 331 
L 2906 616 
Q 2728 306 2450 153 
Q 2172 0 1784 0 
Q 1141 0 747 490 
Q 353 981 353 1791 
Q 353 2603 747 3093 
Q 1141 3584 1784 3584 
Q 2172 3584 2450 3431 
Q 2728 3278 2906 2969 
L 2906 3500 
L 3481 3500 
L 3481 434 
z
" transform="scale(0.015625)"/>
       <path id="DejaVuSans-20" transform="scale(0.015625)"/>
       <path id="DejaVuSans-66" d="M 2375 4863 
L 2375 4384 
L 1825 4384 
Q 1516 4384 1395 4259 
Q 1275 4134 1275 3809 
L 1275 3500 
L 2222 3500 
L 2222 3053 
L 1275 3053 
L 1275 0 
L 697 0 
L 697 3053 
L 147 3053 
L 147 3500 
L 697 3500 
L 697 3744 
Q 697 4328 969 4595 
Q 1241 4863 1831 4863 
L 2375 4863 
z
" transform="scale(0.015625)"/>
       <path id="DejaVuSans-53" d="M 3425 4513 
L 3425 3897 
Q 3066 4069 2747 4153 
Q 2428 4238 2131 4238 
Q 1616 4238 1336 4038 
Q 1056 3838 1056 3469 
Q 1056 3159 1242 3001 
Q 1428 2844 1947 2747 
L 2328 2669 
Q 3034 2534 3370 2195 
Q 3706 1856 3706 1288 
Q 3706 609 3251 259 
Q 2797 -91 1919 -91 
Q 1588 -91 1214 -16 
Q 841 59 441 206 
L 441 856 
Q 825 641 1194 531 
Q 1563 422 1919 422 
Q 2459 422 2753 634 
Q 3047 847 3047 1241 
Q 3047 1584 2836 1778 
Q 2625 1972 2144 2069 
L 1759 2144 
Q 1053 2284 737 2584 
Q 422 2884 422 3419 
Q 422 4038 858 4394 
Q 1294 4750 2059 4750 
Q 2388 4750 2728 4690 
Q 3069 4631 3425 4513 
z
" transform="scale(0.015625)"/>
       <path id="DejaVuSans-69" d="M 603 3500 
L 1178 3500 
L 1178 0 
L 603 0 
L 603 3500 
z
M 603 4863 
L 1178 4863 
L 1178 4134 
L 603 4134 
L 603 4863 
z
" transform="scale(0.015625)"/>
       <path id="DejaVuSans-39" d="M 703 97 
L 703 672 
Q 941 559 1184 500 
Q 1428 441 1663 441 
Q 2288 441 2617 861 
Q 2947 1281 2994 2138 
Q 2813 1869 2534 1725 
Q 2256 1581 1919 1581 
Q 1219 1581 811 2004 
Q 403 2428 403 3163 
Q 403 3881 828 4315 
Q 1253 4750 1959 4750 
Q 2769 4750 3195 4129 
Q 3622 3509 3622 2328 
Q 3622 1225 3098 567 
Q 2575 -91 1691 -91 
Q 1453 -91 1209 -44 
Q 966 3 703 97 
z
M 1959 2075 
Q 2384 2075 2632 2365 
Q 2881 2656 2881 3163 
Q 2881 3666 2632 3958 
Q 2384 4250 1959 4250 
Q 1534 4250 1286 3958 
Q 1038 3666 1038 3163 
Q 1038 2656 1286 2365 
Q 1534 2075 1959 2075 
z
" transform="scale(0.015625)"/>
       <path id="DejaVuSans-5f" d="M 3263 -1063 
L 3263 -1509 
L -63 -1509 
L -63 -1063 
L 3263 -1063 
z
" transform="scale(0.015625)"/>
       <path id="DejaVuSans-74" d="M 1172 4494 
L 1172 3500 
L 2356 3500 
L 2356 3053 
L 1172 3053 
L 1172 1153 
Q 1172 725 1289 603 
Q 1406 481 1766 481 
L 2356 481 
L 2356 0 
L 1766 0 
Q 1100 0 847 248 
Q 594 497 594 1153 
L 594 3053 
L 172 3053 
L 172 3500 
L 594 3500 
L 594 4494 
L 1172 4494 
z
" transform="scale(0.015625)"/>
      </defs>
      <use xlink:href="#DejaVuSans-41"/>
      <use xlink:href="#DejaVuSans-76" x="62.533203"/>
      <use xlink:href="#DejaVuSans-65" x="121.712891"/>
      <use xlink:href="#DejaVuSans-72" x="183.236328"/>
      <use xlink:href="#DejaVuSans-61" x="224.349609"/>
      <use xlink:href="#DejaVuSans-67" x="285.628906"/>
      <use xlink:href="#DejaVuSans-65" x="349.105469"/>
      <use xlink:href="#DejaVuSans-20" x="410.628906"/>
      <use xlink:href="#DejaVuSans-6f" x="442.416016"/>
      <use xlink:href="#DejaVuSans-66" x="503.597656"/>
      <use xlink:href="#DejaVuSans-20" x="538.802734"/>
      <use xlink:href="#DejaVuSans-53" x="570.589844"/>
      <use xlink:href="#DejaVuSans-65" x="634.066406"/>
      <use xlink:href="#DejaVuSans-73" x="695.589844"/>
      <use xlink:href="#DejaVuSans-73" x="747.689453"/>
      <use xlink:href="#DejaVuSans-69" x="799.789062"/>
      <use xlink:href="#DejaVuSans-6f" x="827.572266"/>
      <use xlink:href="#DejaVuSans-6e" x="888.753906"/>
      <use xlink:href="#DejaVuSans-20" x="952.132812"/>
      <use xlink:href="#DejaVuSans-39" x="983.919922"/>
      <use xlink:href="#DejaVuSans-5f" x="1047.542969"/>
      <use xlink:href="#DejaVuSans-74" x="1097.542969"/>
      <use xlink:href="#DejaVuSans-61" x="1136.751953"/>
      <use xlink:href="#DejaVuSans-63" x="1198.03125"/>
      <use xlink:href="#DejaVuSans-34" x="1253.011719"/>
     </g>
    </g>
    <g id="line2d_18">
     <path d="M 101.855406 38.465205 
L 111.855406 38.465205 
L 121.855406 38.465205 
" style="fill: none; stroke: #e41a1c; stroke-width: 1.5; stroke-linecap: square"/>
    </g>
    <g id="text_18">
     <!-- Target (n=356) -->
     <g transform="translate(129.855406 41.965205)scale(0.1 -0.1)">
      <defs>
       <path id="DejaVuSans-54" d="M -19 4666 
L 3928 4666 
L 3928 4134 
L 2272 4134 
L 2272 0 
L 1638 0 
L 1638 4134 
L -19 4134 
L -19 4666 
z
" transform="scale(0.015625)"/>
       <path id="DejaVuSans-28" d="M 1984 4856 
Q 1566 4138 1362 3434 
Q 1159 2731 1159 2009 
Q 1159 1288 1364 580 
Q 1569 -128 1984 -844 
L 1484 -844 
Q 1016 -109 783 600 
Q 550 1309 550 2009 
Q 550 2706 781 3412 
Q 1013 4119 1484 4856 
L 1984 4856 
z
" transform="scale(0.015625)"/>
       <path id="DejaVuSans-3d" d="M 678 2906 
L 4684 2906 
L 4684 2381 
L 678 2381 
L 678 2906 
z
M 678 1631 
L 4684 1631 
L 4684 1100 
L 678 1100 
L 678 1631 
z
" transform="scale(0.015625)"/>
       <path id="DejaVuSans-29" d="M 513 4856 
L 1013 4856 
Q 1481 4119 1714 3412 
Q 1947 2706 1947 2009 
Q 1947 1309 1714 600 
Q 1481 -109 1013 -844 
L 513 -844 
Q 928 -128 1133 580 
Q 1338 1288 1338 2009 
Q 1338 2731 1133 3434 
Q 928 4138 513 4856 
z
" transform="scale(0.015625)"/>
      </defs>
      <use xlink:href="#DejaVuSans-54"/>
      <use xlink:href="#DejaVuSans-61" x="44.583984"/>
      <use xlink:href="#DejaVuSans-72" x="105.863281"/>
      <use xlink:href="#DejaVuSans-67" x="145.226562"/>
      <use xlink:href="#DejaVuSans-65" x="208.703125"/>
      <use xlink:href="#DejaVuSans-74" x="270.226562"/>
      <use xlink:href="#DejaVuSans-20" x="309.435547"/>
      <use xlink:href="#DejaVuSans-28" x="341.222656"/>
      <use xlink:href="#DejaVuSans-6e" x="380.236328"/>
      <use xlink:href="#DejaVuSans-3d" x="443.615234"/>
      <use xlink:href="#DejaVuSans-33" x="527.404297"/>
      <use xlink:href="#DejaVuSans-35" x="591.027344"/>
      <use xlink:href="#DejaVuSans-36" x="654.650391"/>
      <use xlink:href="#DejaVuSans-29" x="718.273438"/>
     </g>
    </g>
    <g id="line2d_19">
     <path d="M 225.585093 38.465205 
L 235.585093 38.465205 
L 245.585093 38.465205 
" style="fill: none; stroke: #377eb8; stroke-width: 1.5; stroke-linecap: square"/>
    </g>
    <g id="text_19">
     <!-- Non-Target (n=1064) -->
     <g transform="translate(253.585093 41.965205)scale(0.1 -0.1)">
      <defs>
       <path id="DejaVuSans-4e" d="M 628 4666 
L 1478 4666 
L 3547 763 
L 3547 4666 
L 4159 4666 
L 4159 0 
L 3309 0 
L 1241 3903 
L 1241 0 
L 628 0 
L 628 4666 
z
" transform="scale(0.015625)"/>
       <path id="DejaVuSans-2d" d="M 313 2009 
L 1997 2009 
L 1997 1497 
L 313 1497 
L 313 2009 
z
" transform="scale(0.015625)"/>
      </defs>
      <use xlink:href="#DejaVuSans-4e"/>
      <use xlink:href="#DejaVuSans-6f" x="74.804688"/>
      <use xlink:href="#DejaVuSans-6e" x="135.986328"/>
      <use xlink:href="#DejaVuSans-2d" x="199.365234"/>
      <use xlink:href="#DejaVuSans-54" x="226.324219"/>
      <use xlink:href="#DejaVuSans-61" x="270.908203"/>
      <use xlink:href="#DejaVuSans-72" x="332.1875"/>
      <use xlink:href="#DejaVuSans-67" x="371.550781"/>
      <use xlink:href="#DejaVuSans-65" x="435.027344"/>
      <use xlink:href="#DejaVuSans-74" x="496.550781"/>
      <use xlink:href="#DejaVuSans-20" x="535.759766"/>
      <use xlink:href="#DejaVuSans-28" x="567.546875"/>
      <use xlink:href="#DejaVuSans-6e" x="606.560547"/>
      <use xlink:href="#DejaVuSans-3d" x="669.939453"/>
      <use xlink:href="#DejaVuSans-31" x="753.728516"/>
      <use xlink:href="#DejaVuSans-30" x="817.351562"/>
      <use xlink:href="#DejaVuSans-36" x="880.974609"/>
      <use xlink:href="#DejaVuSans-34" x="944.597656"/>
      <use xlink:href="#DejaVuSans-29" x="1008.220703"/>
     </g>
    </g>
   </g>
  </g>
 </g>
 <defs>
  <clipPath id="p2275c118cd">
   <rect x="46.55" y="71.241125" width="367.065499" height="246.958875"/>
  </clipPath>
 </defs>
</svg>
