<?xml version="1.0" encoding="utf-8" standalone="no"?>
<!DOCTYPE svg PUBLIC "-//W3C//DTD SVG 1.1//EN"
  "http://www.w3.org/Graphics/SVG/1.1/DTD/svg11.dtd">
<svg xmlns:xlink="http://www.w3.org/1999/xlink" width="432pt" height="360pt" viewBox="0 0 432 360" xmlns="http://www.w3.org/2000/svg" version="1.1">
 <metadata>
  <rdf:RDF xmlns:dc="http://purl.org/dc/elements/1.1/" xmlns:cc="http://creativecommons.org/ns#" xmlns:rdf="http://www.w3.org/1999/02/22-rdf-syntax-ns#">
   <cc:Work>
    <dc:type rdf:resource="http://purl.org/dc/dcmitype/StillImage"/>
    <dc:date>2022-11-02T16:57:14.645814</dc:date>
    <dc:format>image/svg+xml</dc:format>
    <dc:creator>
     <cc:Agent>
      <dc:title>Matplotlib v3.5.1, https://matplotlib.org/</dc:title>
     </cc:Agent>
    </dc:creator>
   </cc:Work>
  </rdf:RDF>
 </metadata>
 <defs>
  <style type="text/css">*{stroke-linejoin: round; stroke-linecap: butt}</style>
 </defs>
 <g id="figure_1">
  <g id="patch_1">
   <path d="M 0 360 
L 432 360 
L 432 0 
L 0 0 
L 0 360 
z
" style="fill: none"/>
  </g>
  <g id="axes_1">
   <g id="patch_2">
    <path d="M 46.55 318.2 
L 413.615499 318.2 
L 413.615499 71.241125 
L 46.55 71.241125 
L 46.55 318.2 
z
" style="fill: none"/>
   </g>
   <g id="PolyCollection_1">
    <defs>
     <path id="m60f268fd3f" d="M 46.55 -143.256495 
L 46.55 -108.91416 
L 47.346238 -107.711428 
L 48.142475 -105.955265 
L 48.938713 -104.413488 
L 49.73495 -103.897626 
L 50.531188 -104.924619 
L 51.327425 -107.467747 
L 52.123663 -110.935135 
L 52.9199 -114.367711 
L 53.716138 -116.741201 
L 54.512375 -117.261701 
L 55.308613 -115.598654 
L 56.10485 -112.006582 
L 56.901088 -107.280832 
L 57.697325 -102.540421 
L 58.493563 -98.913361 
L 59.2898 -97.237459 
L 60.086038 -97.840399 
L 60.882275 -100.421223 
L 61.678513 -104.091904 
L 62.47475 -107.627143 
L 63.270988 -109.871612 
L 64.067226 -110.165924 
L 64.863463 -108.600493 
L 65.659701 -105.932236 
L 66.455938 -103.195445 
L 67.252176 -101.246648 
L 68.048413 -100.474919 
L 68.844651 -100.757015 
L 69.640888 -101.598725 
L 70.437126 -102.357606 
L 71.233363 -102.476896 
L 72.029601 -101.680299 
L 72.825838 -100.06157 
L 73.622076 -98.022876 
L 74.418313 -96.09096 
L 75.214551 -94.707737 
L 76.010788 -94.091769 
L 76.807026 -94.206549 
L 77.603263 -94.814666 
L 78.399501 -95.58284 
L 79.195739 -96.200607 
L 79.991976 -96.467085 
L 80.788214 -96.310658 
L 81.584451 -95.743518 
L 82.380689 -94.789573 
L 83.176926 -93.437569 
L 83.973164 -91.658693 
L 84.769401 -89.491244 
L 85.565639 -87.143499 
L 86.361876 -85.036498 
L 87.158114 -83.738378 
L 87.954351 -83.812347 
L 88.750589 -85.648474 
L 89.546826 -89.339491 
L 90.343064 -94.615628 
L 91.139301 -100.838053 
L 91.935539 -107.080967 
L 92.731776 -112.332248 
L 93.528014 -115.769071 
L 94.324251 -116.98953 
L 95.120489 -116.092237 
L 95.916727 -113.589676 
L 96.712964 -110.228884 
L 97.509202 -106.801147 
L 98.305439 -103.97028 
L 99.101677 -102.123761 
L 99.897914 -101.293318 
L 100.694152 -101.210002 
L 101.490389 -101.488816 
L 102.286627 -101.843685 
L 103.082864 -102.21037 
L 103.879102 -102.721984 
L 104.675339 -103.571363 
L 105.471577 -104.843734 
L 106.267814 -106.396834 
L 107.064052 -107.844705 
L 107.860289 -108.667827 
L 108.656527 -108.414636 
L 109.452764 -106.898851 
L 110.249002 -104.294191 
L 111.04524 -101.094686 
L 111.841477 -97.976346 
L 112.637715 -95.612217 
L 113.433952 -94.481347 
L 114.23019 -94.713859 
L 115.026427 -96.034344 
L 115.822665 -97.857968 
L 116.618902 -99.526281 
L 117.41514 -100.580307 
L 118.211377 -100.934912 
L 119.007615 -100.880756 
L 119.803852 -100.939368 
L 120.60009 -101.646211 
L 121.396327 -103.330507 
L 122.192565 -105.957496 
L 122.988802 -109.108449 
L 123.78504 -112.140969 
L 124.581277 -114.469835 
L 125.377515 -115.810838 
L 126.173752 -116.252346 
L 126.96999 -116.15336 
L 127.766228 -115.967348 
L 128.562465 -116.080526 
L 129.358703 -116.692747 
L 130.15494 -117.743522 
L 130.951178 -118.911863 
L 131.747415 -119.729166 
L 132.543653 -119.787127 
L 133.33989 -118.938054 
L 134.136128 -117.364563 
L 134.932365 -115.480674 
L 135.728603 -113.738612 
L 136.52484 -112.446291 
L 137.321078 -111.660646 
L 138.117315 -111.182486 
L 138.913553 -110.655308 
L 139.70979 -109.73906 
L 140.506028 -108.287331 
L 141.302265 -106.437967 
L 142.098503 -104.565153 
L 142.89474 -103.120188 
L 143.690978 -102.445601 
L 144.487216 -102.64717 
L 145.283453 -103.567637 
L 146.079691 -104.86104 
L 146.875928 -106.132578 
L 147.672166 -107.088547 
L 148.468403 -107.63869 
L 149.264641 -107.912803 
L 150.060878 -108.187085 
L 150.857116 -108.75008 
L 151.653353 -109.763053 
L 152.449591 -111.176153 
L 153.245828 -112.739962 
L 154.042066 -114.107245 
L 154.838303 -114.975874 
L 155.634541 -115.210524 
L 156.430778 -114.901625 
L 157.227016 -114.349438 
L 158.023253 -113.977539 
L 158.819491 -114.191465 
L 159.615729 -115.223252 
L 160.411966 -117.03033 
L 161.208204 -119.308336 
L 162.004441 -121.618929 
L 162.800679 -123.559985 
L 163.596916 -124.884804 
L 164.393154 -125.532235 
L 165.189391 -125.597778 
L 165.985629 -125.287189 
L 166.781866 -124.861789 
L 167.578104 -124.568081 
L 168.374341 -124.567063 
L 169.170579 -124.903189 
L 169.966816 -125.532941 
L 170.763054 -126.385487 
L 171.559291 -127.406186 
L 172.355529 -128.558161 
L 173.151766 -129.792803 
L 173.948004 -131.011997 
L 174.744241 -132.040875 
L 175.540479 -132.633385 
L 176.336717 -132.537013 
L 177.132954 -131.617569 
L 177.929192 -129.986744 
L 178.725429 -128.038223 
L 179.521667 -126.342775 
L 180.317904 -125.449305 
L 181.114142 -125.691811 
L 181.910379 -127.078793 
L 182.706617 -129.287872 
L 183.502854 -131.753175 
L 184.299092 -133.82459 
L 185.095329 -134.968987 
L 185.891567 -134.954692 
L 186.687804 -133.941106 
L 187.484042 -132.424903 
L 188.280279 -131.062318 
L 189.076517 -130.443469 
L 189.872754 -130.901935 
L 190.668992 -132.414197 
L 191.46523 -134.611991 
L 192.261467 -136.904678 
L 193.057705 -138.677607 
L 193.853942 -139.501484 
L 194.65018 -139.281502 
L 195.446417 -138.297014 
L 196.242655 -137.114819 
L 197.038892 -136.392668 
L 197.83513 -136.6356 
L 198.631367 -138.006924 
L 199.427605 -140.280338 
L 200.223842 -142.947468 
L 201.02008 -145.419566 
L 201.816317 -147.227699 
L 202.612555 -148.139747 
L 203.408792 -148.160698 
L 204.20503 -147.440076 
L 205.001267 -146.151252 
L 205.797505 -144.414794 
L 206.593742 -142.30478 
L 207.38998 -139.918924 
L 208.186218 -137.446056 
L 208.982455 -135.167363 
L 209.778693 -133.380357 
L 210.57493 -132.289205 
L 211.371168 -131.919366 
L 212.167405 -132.086926 
L 212.963643 -132.423006 
L 213.75988 -132.450983 
L 214.556118 -131.720357 
L 215.352355 -129.97792 
L 216.148593 -127.313656 
L 216.94483 -124.20207 
L 217.741068 -121.394069 
L 218.537305 -119.685538 
L 219.333543 -119.652659 
L 220.12978 -121.460278 
L 220.926018 -124.808669 
L 221.722255 -129.018569 
L 222.518493 -133.208469 
L 223.31473 -136.510134 
L 224.110968 -138.276783 
L 224.907206 -138.23884 
L 225.703443 -136.558478 
L 226.499681 -133.753158 
L 227.295918 -130.517769 
L 228.092156 -127.532236 
L 228.888393 -125.337975 
L 229.684631 -124.300323 
L 230.480868 -124.608161 
L 231.277106 -126.256437 
L 232.073343 -129.010076 
L 232.869581 -132.396209 
L 233.665818 -135.767921 
L 234.462056 -138.441147 
L 235.258293 -139.868025 
L 236.054531 -139.798563 
L 236.850768 -138.387648 
L 237.647006 -136.211161 
L 238.443243 -134.163419 
L 239.239481 -133.23178 
L 240.035719 -134.188468 
L 240.831956 -137.29188 
L 241.628194 -142.120739 
L 242.424431 -147.637892 
L 243.220669 -152.488836 
L 244.016906 -155.431879 
L 244.813144 -155.740742 
L 245.609381 -153.444026 
L 246.405619 -149.330605 
L 247.201856 -144.718809 
L 247.998094 -141.053656 
L 248.794331 -139.458519 
L 249.590569 -140.398588 
L 250.386806 -143.578253 
L 251.183044 -148.095614 
L 251.979281 -152.776656 
L 252.775519 -156.566399 
L 253.571756 -158.85538 
L 254.367994 -159.639731 
L 255.164231 -159.459096 
L 255.960469 -159.140469 
L 256.756707 -159.462673 
L 257.552944 -160.885142 
L 258.349182 -163.42785 
L 259.145419 -166.700475 
L 259.941657 -170.042362 
L 260.737894 -172.744534 
L 261.534132 -174.304286 
L 262.330369 -174.610824 
L 263.126607 -173.960492 
L 263.922844 -172.895906 
L 264.719082 -171.978665 
L 265.515319 -171.624208 
L 266.311557 -172.039051 
L 267.107794 -173.214028 
L 267.904032 -174.936505 
L 268.700269 -176.84581 
L 269.496507 -178.553243 
L 270.292744 -179.777047 
L 271.088982 -180.404093 
L 271.88522 -180.45267 
L 272.681457 -180.004296 
L 273.477695 -179.178949 
L 274.273932 -178.144844 
L 275.07017 -177.096208 
L 275.866407 -176.178939 
L 276.662645 -175.427414 
L 277.458882 -174.77866 
L 278.25512 -174.150489 
L 279.051357 -173.512688 
L 279.847595 -172.909127 
L 280.643832 -172.452041 
L 281.44007 -172.32028 
L 282.236307 -172.749673 
L 283.032545 -173.973849 
L 283.828782 -176.104429 
L 284.62502 -179.005163 
L 285.421257 -182.243102 
L 286.217495 -185.161752 
L 287.013732 -187.05773 
L 287.80997 -187.398817 
L 288.606208 -186.008012 
L 289.402445 -183.148237 
L 290.198683 -179.473847 
L 290.99492 -175.861899 
L 291.791158 -173.176383 
L 292.587395 -172.034118 
L 293.383633 -172.637109 
L 294.17987 -174.722175 
L 294.976108 -177.651446 
L 295.772345 -180.621384 
L 296.568583 -182.920203 
L 297.36482 -184.143464 
L 298.161058 -184.296105 
L 298.957295 -183.75256 
L 299.753533 -183.096898 
L 300.54977 -182.906084 
L 301.346008 -183.558545 
L 302.142245 -185.130639 
L 302.938483 -187.394546 
L 303.73472 -189.890472 
L 304.530958 -192.045369 
L 305.327196 -193.327988 
L 306.123433 -193.421409 
L 306.919671 -192.353461 
L 307.715908 -190.506474 
L 308.512146 -188.483639 
L 309.308383 -186.901311 
L 310.104621 -186.209034 
L 310.900858 -186.589099 
L 311.697096 -187.925215 
L 312.493333 -189.823996 
L 313.289571 -191.705156 
L 314.085808 -192.972802 
L 314.882046 -193.217825 
L 315.678283 -192.352507 
L 316.474521 -190.612121 
L 317.270758 -188.445167 
L 318.066996 -186.362445 
L 318.863233 -184.794864 
L 319.659471 -183.975436 
L 320.455709 -183.866023 
L 321.251946 -184.174012 
L 322.048184 -184.481265 
L 322.844421 -184.432511 
L 323.640659 -183.881892 
L 324.436896 -182.930897 
L 325.233134 -181.869914 
L 326.029371 -181.076399 
L 326.825609 -180.902177 
L 327.621846 -181.553838 
L 328.418084 -182.98974 
L 329.214321 -184.897512 
L 330.010559 -186.800434 
L 330.806796 -188.259085 
L 331.603034 -189.059136 
L 332.399271 -189.280948 
L 333.195509 -189.230744 
L 333.991746 -189.296501 
L 334.787984 -189.806419 
L 335.584221 -190.930114 
L 336.380459 -192.626279 
L 337.176697 -194.635449 
L 337.972934 -196.526322 
L 338.769172 -197.799737 
L 339.565409 -198.029325 
L 340.361647 -196.990041 
L 341.157884 -194.719473 
L 341.954122 -191.488959 
L 342.750359 -187.714406 
L 343.546597 -183.864008 
L 344.342834 -180.39487 
L 345.139072 -177.703532 
L 345.935309 -176.062078 
L 346.731547 -175.546984 
L 347.527784 -176.005595 
L 348.324022 -177.095055 
L 349.120259 -178.37867 
L 349.916497 -179.432835 
L 350.712734 -179.934847 
L 351.508972 -179.732379 
L 352.30521 -178.893631 
L 353.101447 -177.709161 
L 353.897685 -176.610921 
L 354.693922 -176.01638 
L 355.49016 -176.163811 
L 356.286397 -177.020702 
L 357.082635 -178.308137 
L 357.878872 -179.627078 
L 358.67511 -180.630681 
L 359.471347 -181.168353 
L 360.267585 -181.337861 
L 361.063822 -181.425414 
L 361.86006 -181.773103 
L 362.656297 -182.645613 
L 363.452535 -184.146717 
L 364.248772 -186.189148 
L 365.04501 -188.507013 
L 365.841247 -190.721349 
L 366.637485 -192.463409 
L 367.433722 -193.508536 
L 368.22996 -193.842425 
L 369.026198 -193.621162 
L 369.822435 -193.062626 
L 370.618673 -192.343367 
L 371.41491 -191.547836 
L 372.211148 -190.669386 
L 373.007385 -189.645342 
L 373.803623 -188.414297 
L 374.59986 -186.977536 
L 375.396098 -185.430199 
L 376.192335 -183.935656 
L 376.988573 -182.656296 
L 377.78481 -181.684363 
L 378.581048 -181.010756 
L 379.377285 -180.541716 
L 380.173523 -180.155119 
L 380.96976 -179.778925 
L 381.765998 -179.458675 
L 382.562235 -179.366953 
L 383.358473 -179.729624 
L 384.15471 -180.6997 
L 384.950948 -182.251579 
L 385.747186 -184.157052 
L 386.543423 -186.054365 
L 387.339661 -187.577712 
L 388.135898 -188.496689 
L 388.932136 -188.812577 
L 389.728373 -188.764156 
L 390.524611 -188.725132 
L 391.320848 -189.03349 
L 392.117086 -189.838772 
L 392.913323 -191.04354 
L 393.709561 -192.353069 
L 394.505798 -193.387623 
L 395.302036 -193.803275 
L 396.098273 -193.39385 
L 396.894511 -192.158645 
L 397.690748 -190.31275 
L 398.486986 -188.222924 
L 399.283223 -186.286953 
L 400.079461 -184.808796 
L 400.875699 -183.921813 
L 401.671936 -183.578303 
L 402.468174 -183.591798 
L 403.264411 -183.713921 
L 404.060649 -183.731556 
L 404.856886 -183.559622 
L 405.653124 -183.289806 
L 406.449361 -183.162334 
L 407.245599 -183.463715 
L 408.041836 -184.39578 
L 408.838074 -185.976527 
L 409.634311 -188.015217 
L 410.430549 -190.169821 
L 411.226786 -192.06348 
L 412.023024 -193.412726 
L 412.819261 -194.111196 
L 413.615499 -194.232132 
L 413.615499 -272.736673 
L 413.615499 -272.736673 
L 412.819261 -272.331969 
L 412.023024 -271.611113 
L 411.226786 -270.55322 
L 410.430549 -269.249612 
L 409.634311 -267.875781 
L 408.838074 -266.64109 
L 408.041836 -265.725376 
L 407.245599 -265.217669 
L 406.449361 -265.081132 
L 405.653124 -265.16263 
L 404.856886 -265.248991 
L 404.060649 -265.15575 
L 403.264411 -264.82243 
L 402.468174 -264.376364 
L 401.671936 -264.123907 
L 400.875699 -264.448683 
L 400.079461 -265.644822 
L 399.283223 -267.760599 
L 398.486986 -270.533069 
L 397.690748 -273.446724 
L 396.894511 -275.88829 
L 396.098273 -277.337698 
L 395.302036 -277.533472 
L 394.505798 -276.558594 
L 393.709561 -274.807775 
L 392.913323 -272.834922 
L 392.117086 -271.138766 
L 391.320848 -269.988397 
L 390.524611 -269.369451 
L 389.728373 -269.053944 
L 388.932136 -268.732356 
L 388.135898 -268.140931 
L 387.339661 -267.148219 
L 386.543423 -265.789321 
L 385.747186 -264.242317 
L 384.950948 -262.753073 
L 384.15471 -261.540297 
L 383.358473 -260.727406 
L 382.562235 -260.327267 
L 381.765998 -260.269917 
L 380.96976 -260.447742 
L 380.173523 -260.762437 
L 379.377285 -261.166808 
L 378.581048 -261.684121 
L 377.78481 -262.383918 
L 376.988573 -263.321406 
L 376.192335 -264.481806 
L 375.396098 -265.770206 
L 374.59986 -267.050522 
L 373.803623 -268.205466 
L 373.007385 -269.185973 
L 372.211148 -270.029373 
L 371.41491 -270.830501 
L 370.618673 -271.664524 
L 369.822435 -272.495726 
L 369.026198 -273.135942 
L 368.22996 -273.294556 
L 367.433722 -272.698275 
L 366.637485 -271.215581 
L 365.841247 -268.932395 
L 365.04501 -266.162675 
L 364.248772 -263.392224 
L 363.452535 -261.150212 
L 362.656297 -259.824917 
L 361.86006 -259.497789 
L 361.063822 -259.897681 
L 360.267585 -260.517139 
L 359.471347 -260.828634 
L 358.67511 -260.489242 
L 357.878872 -259.452178 
L 357.082635 -257.961408 
L 356.286397 -256.448303 
L 355.49016 -255.372312 
L 354.693922 -255.05992 
L 353.897685 -255.595326 
L 353.101447 -256.793885 
L 352.30521 -258.258385 
L 351.508972 -259.499887 
L 350.712734 -260.096382 
L 349.916497 -259.844515 
L 349.120259 -258.841182 
L 348.324022 -257.449435 
L 347.527784 -256.164462 
L 346.731547 -255.453144 
L 345.935309 -255.642026 
L 345.139072 -256.873377 
L 344.342834 -259.099838 
L 343.546597 -262.0917 
L 342.750359 -265.465284 
L 341.954122 -268.751495 
L 341.157884 -271.493744 
L 340.361647 -273.33589 
L 339.565409 -274.071072 
L 338.769172 -273.657807 
L 337.972934 -272.226356 
L 337.176697 -270.076729 
L 336.380459 -267.639942 
L 335.584221 -265.379313 
L 334.787984 -263.648731 
L 333.991746 -262.56804 
L 333.195509 -261.986055 
L 332.399271 -261.5625 
L 331.603034 -260.930416 
L 330.806796 -259.853721 
L 330.010559 -258.308831 
L 329.214321 -256.479024 
L 328.418084 -254.694652 
L 327.621846 -253.344238 
L 326.825609 -252.754786 
L 326.029371 -253.054022 
L 325.233134 -254.077577 
L 324.436896 -255.402144 
L 323.640659 -256.520021 
L 322.844421 -257.066049 
L 322.048184 -256.968872 
L 321.251946 -256.459129 
L 320.455709 -255.959664 
L 319.659471 -255.925108 
L 318.863233 -256.680058 
L 318.066996 -258.28529 
L 317.270758 -260.477181 
L 316.474521 -262.732076 
L 315.678283 -264.452958 
L 314.882046 -265.192525 
L 314.085808 -264.801724 
L 313.289571 -263.453387 
L 312.493333 -261.570327 
L 311.697096 -259.708606 
L 310.900858 -258.414867 
L 310.104621 -258.06655 
L 309.308383 -258.742826 
L 308.512146 -260.197005 
L 307.715908 -261.953424 
L 306.919671 -263.470918 
L 306.123433 -264.287659 
L 305.327196 -264.109797 
L 304.530958 -262.86544 
L 303.73472 -260.741479 
L 302.938483 -258.169824 
L 302.142245 -255.719765 
L 301.346008 -253.91209 
L 300.54977 -253.033951 
L 299.753533 -253.038935 
L 298.957295 -253.567752 
L 298.161058 -254.070817 
L 297.36482 -253.987682 
L 296.568583 -252.934177 
L 295.772345 -250.847243 
L 294.976108 -248.041606 
L 294.17987 -245.150338 
L 293.383633 -242.955216 
L 292.587395 -242.148937 
L 291.791158 -243.09929 
L 290.99492 -245.696971 
L 290.198683 -249.352445 
L 289.402445 -253.156451 
L 288.606208 -256.150324 
L 287.80997 -257.606528 
L 287.013732 -257.223168 
L 286.217495 -255.176452 
L 285.421257 -252.028246 
L 284.62502 -248.533433 
L 283.828782 -245.419764 
L 283.032545 -243.209905 
L 282.236307 -242.124748 
L 281.44007 -242.074888 
L 280.643832 -242.735675 
L 279.847595 -243.692188 
L 279.051357 -244.607204 
L 278.25512 -245.332586 
L 277.458882 -245.905148 
L 276.662645 -246.446122 
L 275.866407 -247.052567 
L 275.07017 -247.75602 
L 274.273932 -248.538601 
L 273.477695 -249.341544 
L 272.681457 -250.041276 
L 271.88522 -250.441908 
L 271.088982 -250.334444 
L 270.292744 -249.594024 
L 269.496507 -248.237537 
L 268.700269 -246.412102 
L 267.904032 -244.359722 
L 267.107794 -242.40032 
L 266.311557 -240.90114 
L 265.515319 -240.172769 
L 264.719082 -240.307392 
L 263.922844 -241.069526 
L 263.126607 -241.938697 
L 262.330369 -242.29011 
L 261.534132 -241.611386 
L 260.737894 -239.671042 
L 259.941657 -236.613792 
L 259.145419 -232.969239 
L 258.349182 -229.532641 
L 257.552944 -227.097122 
L 256.756707 -226.115612 
L 255.960469 -226.459503 
L 255.164231 -227.414545 
L 254.367994 -227.925473 
L 253.571756 -226.984953 
L 252.775519 -224.024626 
L 251.979281 -219.177997 
L 251.183044 -213.315892 
L 250.386806 -207.813981 
L 249.590569 -204.108264 
L 248.794331 -203.194674 
L 247.998094 -205.26649 
L 247.201856 -209.622354 
L 246.405619 -214.867562 
L 245.609381 -219.338462 
L 244.813144 -221.616429 
L 244.016906 -220.962806 
L 243.220669 -217.522207 
L 242.424431 -212.225491 
L 241.628194 -206.445832 
L 240.831956 -201.553851 
L 240.035719 -198.527977 
L 239.239481 -197.722571 
L 238.443243 -198.832659 
L 237.647006 -201.045999 
L 236.850768 -203.328729 
L 236.054531 -204.750849 
L 235.258293 -204.743335 
L 234.462056 -203.207774 
L 233.665818 -200.463769 
L 232.869581 -197.086999 
L 232.073343 -193.725795 
L 231.277106 -190.966283 
L 230.480868 -189.26022 
L 229.684631 -188.884317 
L 228.888393 -189.899965 
L 228.092156 -192.119722 
L 227.295918 -195.114923 
L 226.499681 -198.282926 
L 225.703443 -200.954 
L 224.907206 -202.505567 
L 224.110968 -202.473724 
L 223.31473 -200.668711 
L 222.518493 -197.277691 
L 221.722255 -192.894912 
L 220.926018 -188.419143 
L 220.12978 -184.820123 
L 219.333543 -182.855062 
L 218.537305 -182.849564 
L 217.741068 -184.624231 
L 216.94483 -187.579635 
L 216.148593 -190.895402 
L 215.352355 -193.775606 
L 214.556118 -195.672827 
L 213.75988 -196.431696 
L 212.963643 -196.306801 
L 212.167405 -195.841438 
L 211.371168 -195.645082 
L 210.57493 -196.160223 
L 209.778693 -197.525199 
L 208.982455 -199.589599 
L 208.186218 -202.045999 
L 207.38998 -204.580124 
L 206.593742 -206.957141 
L 205.797505 -209.025908 
L 205.001267 -210.677774 
L 204.20503 -211.805722 
L 203.408792 -212.288792 
L 202.612555 -212.007554 
L 201.816317 -210.887861 
L 201.02008 -208.960937 
L 200.223842 -206.414193 
L 199.427605 -203.601637 
L 198.631367 -200.99283 
L 197.83513 -199.062921 
L 197.038892 -198.150626 
L 196.242655 -198.327744 
L 195.446417 -199.331172 
L 194.65018 -200.604358 
L 193.853942 -201.466699 
L 193.057705 -201.366103 
L 192.261467 -200.106363 
L 191.46523 -197.939021 
L 190.668992 -195.473681 
L 189.872754 -193.442444 
L 189.076517 -192.41265 
L 188.280279 -192.564691 
L 187.484042 -193.628318 
L 186.687804 -195.001446 
L 185.891567 -195.990216 
L 185.095329 -196.0633 
L 184.299092 -195.02821 
L 183.502854 -193.08252 
L 182.706617 -190.732866 
L 181.910379 -188.607703 
L 181.114142 -187.229482 
L 180.317904 -186.840789 
L 179.521667 -187.359426 
L 178.725429 -188.465799 
L 177.929192 -189.75245 
L 177.132954 -190.849278 
L 176.336717 -191.485855 
L 175.540479 -191.512141 
L 174.744241 -190.907309 
L 173.948004 -189.770531 
L 173.151766 -188.27655 
L 172.355529 -186.612199 
L 171.559291 -184.934077 
L 170.763054 -183.366867 
L 169.966816 -182.021843 
L 169.170579 -181.002509 
L 168.374341 -180.388037 
L 167.578104 -180.208089 
L 166.781866 -180.418368 
L 165.985629 -180.877103 
L 165.189391 -181.337882 
L 164.393154 -181.494071 
L 163.596916 -181.086993 
L 162.800679 -180.029509 
L 162.004441 -178.463038 
L 161.208204 -176.705485 
L 160.411966 -175.125498 
L 159.615729 -174.018576 
L 158.819491 -173.530217 
L 158.023253 -173.623877 
L 157.227016 -174.085018 
L 156.430778 -174.57089 
L 155.634541 -174.714639 
L 154.838303 -174.257584 
L 154.042066 -173.149652 
L 153.245828 -171.563774 
L 152.449591 -169.817277 
L 151.653353 -168.241838 
L 150.857116 -167.059363 
L 150.060878 -166.307852 
L 149.264641 -165.840265 
L 148.468403 -165.397706 
L 147.672166 -164.732301 
L 146.875928 -163.730616 
L 146.079691 -162.483095 
L 145.283453 -161.26565 
L 144.487216 -160.43747 
L 143.690978 -160.297009 
L 142.89474 -160.958823 
L 142.098503 -162.305709 
L 141.302265 -164.034454 
L 140.506028 -165.768096 
L 139.70979 -167.181987 
L 138.913553 -168.099101 
L 138.117315 -168.53379 
L 137.321078 -168.673376 
L 136.52484 -168.793464 
L 135.728603 -169.12953 
L 134.932365 -169.764341 
L 134.136128 -170.595206 
L 133.33989 -171.397626 
L 132.543653 -171.938131 
L 131.747415 -172.071626 
L 130.951178 -171.797154 
L 130.15494 -171.271007 
L 129.358703 -170.756723 
L 128.562465 -170.49368 
L 127.766228 -170.530452 
L 126.96999 -170.633318 
L 126.173752 -170.360434 
L 125.377515 -169.278727 
L 124.581277 -167.190895 
L 123.78504 -164.236277 
L 122.988802 -160.830328 
L 122.192565 -157.512884 
L 121.396327 -154.786766 
L 120.60009 -152.973486 
L 119.803852 -152.10226 
L 119.007615 -151.88629 
L 118.211377 -151.834237 
L 117.41514 -151.465291 
L 116.618902 -150.518173 
L 115.822665 -149.051466 
L 115.026427 -147.410777 
L 114.23019 -146.100575 
L 113.433952 -145.605303 
L 112.637715 -146.201352 
L 111.841477 -147.821518 
L 111.04524 -150.045531 
L 110.249002 -152.247615 
L 109.452764 -153.841842 
L 108.656527 -154.498771 
L 107.860289 -154.225504 
L 107.064052 -153.292925 
L 106.267814 -152.078848 
L 105.471577 -150.912056 
L 104.675339 -149.967805 
L 103.879102 -149.239702 
L 103.082864 -148.596655 
L 102.286627 -147.899836 
L 101.490389 -147.118772 
L 100.694152 -146.389201 
L 99.897914 -145.994576 
L 99.101677 -146.28973 
L 98.305439 -147.578993 
L 97.509202 -149.957132 
L 96.712964 -153.157759 
L 95.916727 -156.505021 
L 95.120489 -159.050808 
L 94.324251 -159.866015 
L 93.528014 -158.345583 
L 92.731776 -154.39205 
L 91.935539 -148.435254 
L 91.139301 -141.322465 
L 90.343064 -134.124268 
L 89.546826 -127.884029 
L 88.750589 -123.35612 
L 87.954351 -120.824788 
L 87.158114 -120.09653 
L 86.361876 -120.667365 
L 85.565639 -121.958144 
L 84.769401 -123.493536 
L 83.973164 -124.968309 
L 83.176926 -126.221587 
L 82.380689 -127.17199 
L 81.584451 -127.755247 
L 80.788214 -127.889134 
L 79.991976 -127.484066 
L 79.195739 -126.500974 
L 78.399501 -125.028935 
L 77.603263 -123.335254 
L 76.807026 -121.844252 
L 76.010788 -121.026662 
L 75.214551 -121.224679 
L 74.418313 -122.487007 
L 73.622076 -124.507162 
L 72.825838 -126.710907 
L 72.029601 -128.457776 
L 71.233363 -129.275871 
L 70.437126 -129.050774 
L 69.640888 -128.100795 
L 68.844651 -127.085052 
L 68.048413 -126.741976 
L 67.252176 -127.554954 
L 66.455938 -129.518134 
L 65.659701 -132.127861 
L 64.863463 -134.581381 
L 64.067226 -136.059812 
L 63.270988 -135.975628 
L 62.47475 -134.153683 
L 61.678513 -130.959585 
L 60.882275 -127.306488 
L 60.086038 -124.444627 
L 59.2898 -123.558473 
L 58.493563 -125.31574 
L 57.697325 -129.561948 
L 56.901088 -135.327897 
L 56.10485 -141.163862 
L 55.308613 -145.632263 
L 54.512375 -147.756701 
L 53.716138 -147.294073 
L 52.9199 -144.761965 
L 52.123663 -141.216322 
L 51.327425 -137.861192 
L 50.531188 -135.657052 
L 49.73495 -135.088683 
L 48.938713 -136.131367 
L 48.142475 -138.341033 
L 47.346238 -140.992028 
L 46.55 -143.256495 
z
" style="stroke: #e41a1c; stroke-opacity: 0.3"/>
    </defs>
    <g clip-path="url(#pf1070387cf)">
     <use xlink:href="#m60f268fd3f" x="0" y="360" style="fill: #e41a1c; fill-opacity: 0.3; stroke: #e41a1c; stroke-opacity: 0.3"/>
    </g>
   </g>
   <g id="PolyCollection_2">
    <defs>
     <path id="m7b72c9a364" d="M 46.55 -123.563449 
L 46.55 -102.873643 
L 47.346238 -104.228464 
L 48.142475 -105.181982 
L 48.938713 -105.704735 
L 49.73495 -105.935145 
L 50.531188 -106.121293 
L 51.327425 -106.525229 
L 52.123663 -107.320284 
L 52.9199 -108.514012 
L 53.716138 -109.927043 
L 54.512375 -111.243563 
L 55.308613 -112.119211 
L 56.10485 -112.304175 
L 56.901088 -111.734136 
L 57.697325 -110.56116 
L 58.493563 -109.120053 
L 59.2898 -107.839385 
L 60.086038 -107.117698 
L 60.882275 -107.201453 
L 61.678513 -108.108315 
L 62.47475 -109.621708 
L 63.270988 -111.351768 
L 64.067226 -112.840173 
L 64.863463 -113.683943 
L 65.659701 -113.650385 
L 66.455938 -112.747144 
L 67.252176 -111.214009 
L 68.048413 -109.431186 
L 68.844651 -107.78128 
L 69.640888 -106.523361 
L 70.437126 -105.721695 
L 71.233363 -105.243609 
L 72.029601 -104.825747 
L 72.825838 -104.196736 
L 73.622076 -103.214721 
L 74.418313 -101.948144 
L 75.214551 -100.649342 
L 76.010788 -99.641908 
L 76.807026 -99.197618 
L 77.603263 -99.47262 
L 78.399501 -100.507436 
L 79.195739 -102.230204 
L 79.991976 -104.437207 
L 80.788214 -106.801507 
L 81.584451 -108.949183 
L 82.380689 -110.577703 
L 83.176926 -111.546418 
L 83.973164 -111.878694 
L 84.769401 -111.689055 
L 85.565639 -111.108191 
L 86.361876 -110.254987 
L 87.158114 -109.247698 
L 87.954351 -108.219223 
L 88.750589 -107.311721 
L 89.546826 -106.648469 
L 90.343064 -106.294841 
L 91.139301 -106.225537 
L 91.935539 -106.316868 
L 92.731776 -106.377339 
L 93.528014 -106.212905 
L 94.324251 -105.70292 
L 95.120489 -104.85469 
L 95.916727 -103.813225 
L 96.712964 -102.819346 
L 97.509202 -102.126711 
L 98.305439 -101.903507 
L 99.101677 -102.154909 
L 99.897914 -102.701674 
L 100.694152 -103.232763 
L 101.490389 -103.420026 
L 102.286627 -103.054646 
L 103.082864 -102.14964 
L 103.879102 -100.95875 
L 104.675339 -99.891949 
L 105.471577 -99.356288 
L 106.267814 -99.590825 
L 107.064052 -100.568161 
L 107.860289 -101.998325 
L 108.656527 -103.424705 
L 109.452764 -104.376737 
L 110.249002 -104.537023 
L 111.04524 -103.870448 
L 111.841477 -102.65689 
L 112.637715 -101.397511 
L 113.433952 -100.630252 
L 114.23019 -100.743122 
L 115.026427 -101.86688 
L 115.822665 -103.87166 
L 116.618902 -106.438291 
L 117.41514 -109.164459 
L 118.211377 -111.679142 
L 119.007615 -113.737623 
L 119.803852 -115.260989 
L 120.60009 -116.302932 
L 121.396327 -116.97116 
L 122.192565 -117.356805 
L 122.988802 -117.506122 
L 123.78504 -117.429031 
L 124.581277 -117.121926 
L 125.377515 -116.591593 
L 126.173752 -115.874838 
L 126.96999 -115.041835 
L 127.766228 -114.171178 
L 128.562465 -113.306228 
L 129.358703 -112.42528 
L 130.15494 -111.45355 
L 130.951178 -110.313731 
L 131.747415 -108.987402 
L 132.543653 -107.559159 
L 133.33989 -106.225893 
L 134.136128 -105.258587 
L 134.932365 -104.914654 
L 135.728603 -105.327944 
L 136.52484 -106.431559 
L 137.321078 -107.961741 
L 138.117315 -109.546272 
L 138.913553 -110.833649 
L 139.70979 -111.605379 
L 140.506028 -111.834913 
L 141.302265 -111.683769 
L 142.098503 -111.437599 
L 142.89474 -111.393713 
L 143.690978 -111.731894 
L 144.487216 -112.42163 
L 145.283453 -113.213494 
L 146.079691 -113.725877 
L 146.875928 -113.593309 
L 147.672166 -112.615197 
L 148.468403 -110.844773 
L 149.264641 -108.585277 
L 150.060878 -106.299537 
L 150.857116 -104.471065 
L 151.653353 -103.464672 
L 152.449591 -103.424866 
L 153.245828 -104.236411 
L 154.042066 -105.560648 
L 154.838303 -106.943303 
L 155.634541 -107.959884 
L 156.430778 -108.343324 
L 157.227016 -108.046989 
L 158.023253 -107.230415 
L 158.819491 -106.186876 
L 159.615729 -105.243154 
L 160.411966 -104.658801 
L 161.208204 -104.552028 
L 162.004441 -104.87789 
L 162.800679 -105.466979 
L 163.596916 -106.102522 
L 164.393154 -106.596911 
L 165.189391 -106.840143 
L 165.985629 -106.816211 
L 166.781866 -106.594348 
L 167.578104 -106.299287 
L 168.374341 -106.065628 
L 169.170579 -105.990864 
L 169.966816 -106.106536 
L 170.763054 -106.375496 
L 171.559291 -106.706178 
L 172.355529 -106.971413 
L 173.151766 -107.031513 
L 173.948004 -106.769249 
L 174.744241 -106.135175 
L 175.540479 -105.184876 
L 176.336717 -104.0856 
L 177.132954 -103.083302 
L 177.929192 -102.439511 
L 178.725429 -102.357335 
L 179.521667 -102.916857 
L 180.317904 -104.038272 
L 181.114142 -105.486684 
L 181.910379 -106.922111 
L 182.706617 -107.982336 
L 183.502854 -108.373629 
L 184.299092 -107.941533 
L 185.095329 -106.701849 
L 185.891567 -104.825159 
L 186.687804 -102.58269 
L 187.484042 -100.272778 
L 188.280279 -98.15263 
L 189.076517 -96.395249 
L 189.872754 -95.077827 
L 190.668992 -94.195635 
L 191.46523 -93.690269 
L 192.261467 -93.482513 
L 193.057705 -93.50175 
L 193.853942 -93.704234 
L 194.65018 -94.073389 
L 195.446417 -94.601353 
L 196.242655 -95.262878 
L 197.038892 -96.000531 
L 197.83513 -96.734083 
L 198.631367 -97.388999 
L 199.427605 -97.924031 
L 200.223842 -98.33798 
L 201.02008 -98.651212 
L 201.816317 -98.876291 
L 202.612555 -98.998757 
L 203.408792 -98.97961 
L 204.20503 -98.774958 
L 205.001267 -98.359348 
L 205.797505 -97.742905 
L 206.593742 -96.979718 
L 207.38998 -96.165976 
L 208.186218 -95.421637 
L 208.982455 -94.852204 
L 209.778693 -94.502161 
L 210.57493 -94.326135 
L 211.371168 -94.199427 
L 212.167405 -93.965857 
L 212.963643 -93.496058 
L 213.75988 -92.725998 
L 214.556118 -91.664972 
L 215.352355 -90.384243 
L 216.148593 -89.001437 
L 216.94483 -87.664309 
L 217.741068 -86.527509 
L 218.537305 -85.720875 
L 219.333543 -85.319704 
L 220.12978 -85.330865 
L 220.926018 -85.698733 
L 221.722255 -86.321979 
L 222.518493 -87.066354 
L 223.31473 -87.766354 
L 224.110968 -88.224463 
L 224.907206 -88.225617 
L 225.703443 -87.577921 
L 226.499681 -86.173435 
L 227.295918 -84.046861 
L 228.092156 -81.402738 
L 228.888393 -78.589024 
L 229.684631 -76.017349 
L 230.480868 -74.056388 
L 231.277106 -72.937485 
L 232.073343 -72.70212 
L 232.869581 -73.199304 
L 233.665818 -74.125351 
L 234.462056 -75.096585 
L 235.258293 -75.744485 
L 236.054531 -75.812707 
L 236.850768 -75.224259 
L 237.647006 -74.089927 
L 238.443243 -72.65178 
L 239.239481 -71.184437 
L 240.035719 -69.894121 
L 240.831956 -68.851282 
L 241.628194 -67.976266 
L 242.424431 -67.079398 
L 243.220669 -65.941156 
L 244.016906 -64.405049 
L 244.813144 -62.448575 
L 245.609381 -60.204756 
L 246.405619 -57.924173 
L 247.201856 -55.893087 
L 247.998094 -54.342889 
L 248.794331 -53.389607 
L 249.590569 -53.025403 
L 250.386806 -53.155466 
L 251.183044 -53.652453 
L 251.979281 -54.400413 
L 252.775519 -55.315308 
L 253.571756 -56.343036 
L 254.367994 -57.440779 
L 255.164231 -58.550778 
L 255.960469 -59.582124 
L 256.756707 -60.417508 
L 257.552944 -60.948606 
L 258.349182 -61.122068 
L 259.145419 -60.969649 
L 259.941657 -60.607513 
L 260.737894 -60.207631 
L 261.534132 -59.951387 
L 262.330369 -59.975671 
L 263.126607 -60.325802 
L 263.922844 -60.936684 
L 264.719082 -61.658792 
L 265.515319 -62.323293 
L 266.311557 -62.817161 
L 267.107794 -63.133363 
L 267.904032 -63.375625 
L 268.700269 -63.716796 
L 269.496507 -64.324466 
L 270.292744 -65.279133 
L 271.088982 -66.517969 
L 271.88522 -67.831629 
L 272.681457 -68.917908 
L 273.477695 -69.46879 
L 274.273932 -69.257583 
L 275.07017 -68.203935 
L 275.866407 -66.407948 
L 276.662645 -64.146285 
L 277.458882 -61.821398 
L 278.25512 -59.867143 
L 279.051357 -58.637903 
L 279.847595 -58.32117 
L 280.643832 -58.900296 
L 281.44007 -60.168687 
L 282.236307 -61.782089 
L 283.032545 -63.337452 
L 283.828782 -64.468046 
L 284.62502 -64.934335 
L 285.421257 -64.679263 
L 286.217495 -63.826797 
L 287.013732 -62.6316 
L 287.80997 -61.407988 
L 288.606208 -60.462061 
L 289.402445 -60.034188 
L 290.198683 -60.251289 
L 290.99492 -61.0952 
L 291.791158 -62.40239 
L 292.587395 -63.904831 
L 293.383633 -65.303611 
L 294.17987 -66.351207 
L 294.976108 -66.916435 
L 295.772345 -67.015286 
L 296.568583 -66.801875 
L 297.36482 -66.522526 
L 298.161058 -66.443574 
L 298.957295 -66.770296 
L 299.753533 -67.576559 
L 300.54977 -68.762613 
L 301.346008 -70.055717 
L 302.142245 -71.064638 
L 302.938483 -71.386542 
L 303.73472 -70.741295 
L 304.530958 -69.08752 
L 305.327196 -66.674133 
L 306.123433 -64.003204 
L 306.919671 -61.710922 
L 307.715908 -60.398331 
L 308.512146 -60.45732 
L 309.308383 -61.941719 
L 310.104621 -64.527862 
L 310.900858 -67.588121 
L 311.697096 -70.363965 
L 312.493333 -72.185238 
L 313.289571 -72.661411 
L 314.085808 -71.780957 
L 314.882046 -69.889977 
L 315.678283 -67.56279 
L 316.474521 -65.409804 
L 317.270758 -63.884871 
L 318.066996 -63.15326 
L 318.863233 -63.062271 
L 319.659471 -63.222729 
L 320.455709 -63.171207 
L 321.251946 -62.554285 
L 322.048184 -61.268173 
L 322.844421 -59.502773 
L 323.640659 -57.675002 
L 324.436896 -56.280513 
L 325.233134 -55.725249 
L 326.029371 -56.199925 
L 326.825609 -57.633451 
L 327.621846 -59.724086 
L 328.418084 -62.023985 
L 329.214321 -64.048837 
L 330.010559 -65.38835 
L 330.806796 -65.793569 
L 331.603034 -65.218418 
L 332.399271 -63.806584 
L 333.195509 -61.838884 
L 333.991746 -59.669874 
L 334.787984 -57.673322 
L 335.584221 -56.197197 
L 336.380459 -55.520907 
L 337.176697 -55.814026 
L 337.972934 -57.103094 
L 338.769172 -59.252903 
L 339.565409 -61.968379 
L 340.361647 -64.828439 
L 341.157884 -67.363424 
L 341.954122 -69.169072 
L 342.750359 -70.020933 
L 343.546597 -69.9399 
L 344.342834 -69.177037 
L 345.139072 -68.122727 
L 345.935309 -67.176118 
L 346.731547 -66.620906 
L 347.527784 -66.545647 
L 348.324022 -66.832887 
L 349.120259 -67.22277 
L 349.916497 -67.43168 
L 350.712734 -67.281127 
L 351.508972 -66.781422 
L 352.30521 -66.130002 
L 353.101447 -65.620593 
L 353.897685 -65.503449 
L 354.693922 -65.861394 
L 355.49016 -66.559555 
L 356.286397 -67.289845 
L 357.082635 -67.687322 
L 357.878872 -67.4696 
L 358.67511 -66.550586 
L 359.471347 -65.09269 
L 360.267585 -63.476285 
L 361.063822 -62.186108 
L 361.86006 -61.648034 
L 362.656297 -62.08044 
L 363.452535 -63.425276 
L 364.248772 -65.386304 
L 365.04501 -67.549818 
L 365.841247 -69.531076 
L 366.637485 -71.090299 
L 367.433722 -72.184232 
L 368.22996 -72.943493 
L 369.026198 -73.588829 
L 369.822435 -74.321772 
L 370.618673 -75.238424 
L 371.41491 -76.30384 
L 372.211148 -77.390456 
L 373.007385 -78.350533 
L 373.803623 -79.081345 
L 374.59986 -79.554918 
L 375.396098 -79.805721 
L 376.192335 -79.888627 
L 376.988573 -79.831072 
L 377.78481 -79.605427 
L 378.581048 -79.137823 
L 379.377285 -78.350822 
L 380.173523 -77.22027 
L 380.96976 -75.820015 
L 381.765998 -74.332413 
L 382.562235 -73.012642 
L 383.358473 -72.111279 
L 384.15471 -71.781715 
L 384.950948 -72.015464 
L 385.747186 -72.641948 
L 386.543423 -73.397313 
L 387.339661 -74.030214 
L 388.135898 -74.396582 
L 388.932136 -74.506454 
L 389.728373 -74.509535 
L 390.524611 -74.626275 
L 391.320848 -75.045902 
L 392.117086 -75.826071 
L 392.913323 -76.837052 
L 393.709561 -77.783911 
L 394.505798 -78.308877 
L 395.302036 -78.135505 
L 396.098273 -77.190702 
L 396.894511 -75.648918 
L 397.690748 -73.882308 
L 398.486986 -72.343358 
L 399.283223 -71.427067 
L 400.079461 -71.355908 
L 400.875699 -72.117349 
L 401.671936 -73.471125 
L 402.468174 -75.028201 
L 403.264411 -76.378557 
L 404.060649 -77.220202 
L 404.856886 -77.438794 
L 405.653124 -77.113767 
L 406.449361 -76.464077 
L 407.245599 -75.76535 
L 408.041836 -75.265705 
L 408.838074 -75.117455 
L 409.634311 -75.340486 
L 410.430549 -75.831355 
L 411.226786 -76.415773 
L 412.023024 -76.919334 
L 412.819261 -77.224403 
L 413.615499 -77.297335 
L 413.615499 -122.047394 
L 413.615499 -122.047394 
L 412.819261 -121.751452 
L 412.023024 -121.298438 
L 411.226786 -120.736619 
L 410.430549 -120.180608 
L 409.634311 -119.780283 
L 408.838074 -119.675312 
L 408.041836 -119.945132 
L 407.245599 -120.563368 
L 406.449361 -121.374 
L 405.653124 -122.112457 
L 404.856886 -122.479987 
L 404.060649 -122.248364 
L 403.264411 -121.350583 
L 402.468174 -119.919928 
L 401.671936 -118.265312 
L 400.875699 -116.792177 
L 400.079461 -115.888613 
L 399.283223 -115.804639 
L 398.486986 -116.56416 
L 397.690748 -117.949385 
L 396.894511 -119.572358 
L 396.098273 -121.006964 
L 395.302036 -121.925627 
L 394.505798 -122.188158 
L 393.709561 -121.858803 
L 392.913323 -121.158058 
L 392.117086 -120.372077 
L 391.320848 -119.74811 
L 390.524611 -119.40757 
L 389.728373 -119.308228 
L 388.932136 -119.274589 
L 388.135898 -119.088704 
L 387.339661 -118.602701 
L 386.543423 -117.819805 
L 385.747186 -116.905583 
L 384.950948 -116.12794 
L 384.15471 -115.757968 
L 383.358473 -115.974554 
L 382.562235 -116.805022 
L 381.765998 -118.117433 
L 380.96976 -119.665804 
L 380.173523 -121.173513 
L 379.377285 -122.422725 
L 378.581048 -123.310742 
L 377.78481 -123.849725 
L 376.988573 -124.116641 
L 376.192335 -124.185155 
L 375.396098 -124.076555 
L 374.59986 -123.753186 
L 373.803623 -123.155037 
L 373.007385 -122.257451 
L 372.211148 -121.115194 
L 371.41491 -119.863417 
L 370.618673 -118.670188 
L 369.822435 -117.663677 
L 369.026198 -116.869928 
L 368.22996 -116.190147 
L 367.433722 -115.429475 
L 366.637485 -114.372717 
L 365.841247 -112.885196 
L 365.04501 -110.999194 
L 364.248772 -108.941233 
L 363.452535 -107.076438 
L 362.656297 -105.787575 
L 361.86006 -105.339155 
L 361.063822 -105.780458 
L 360.267585 -106.919603 
L 359.471347 -108.375922 
L 358.67511 -109.697859 
L 357.878872 -110.513456 
L 357.082635 -110.659655 
L 356.286397 -110.232197 
L 355.49016 -109.528592 
L 354.693922 -108.910078 
L 353.897685 -108.649428 
L 353.101447 -108.831893 
L 352.30521 -109.342615 
L 351.508972 -109.933617 
L 350.712734 -110.337348 
L 349.916497 -110.382966 
L 349.120259 -110.073365 
L 348.324022 -109.592386 
L 347.527784 -109.235632 
L 346.731547 -109.286354 
L 345.935309 -109.883582 
L 345.139072 -110.938537 
L 344.342834 -112.139039 
L 343.546597 -113.043492 
L 342.750359 -113.22542 
L 341.954122 -112.41102 
L 341.157884 -110.563523 
L 340.361647 -107.896552 
L 339.565409 -104.822199 
L 338.769172 -101.851077 
L 337.972934 -99.469421 
L 337.176697 -98.027067 
L 336.380459 -97.670929 
L 335.584221 -98.340586 
L 334.787984 -99.812629 
L 333.991746 -101.762908 
L 333.195509 -103.823998 
L 332.399271 -105.633223 
L 331.603034 -106.875007 
L 330.806796 -107.318996 
L 330.010559 -106.853599 
L 329.214321 -105.515715 
L 328.418084 -103.511532 
L 327.621846 -101.208756 
L 326.825609 -99.076714 
L 326.029371 -97.572801 
L 325.233134 -97.009766 
L 324.436896 -97.458474 
L 323.640659 -98.728396 
L 322.844421 -100.433336 
L 322.048184 -102.118083 
L 321.251946 -103.404805 
L 320.455709 -104.114879 
L 319.659471 -104.326907 
L 318.863233 -104.347048 
L 318.066996 -104.594234 
L 317.270758 -105.43422 
L 316.474521 -107.019888 
L 315.678283 -109.198676 
L 314.882046 -111.528175 
L 314.085808 -113.40304 
L 313.289571 -114.253413 
L 312.493333 -113.744646 
L 311.697096 -111.905572 
L 310.900858 -109.140238 
L 310.104621 -106.121253 
L 309.308383 -103.601601 
L 308.512146 -102.203283 
L 307.715908 -102.244657 
L 306.919671 -103.657342 
L 306.123433 -106.018801 
L 305.327196 -108.690123 
L 304.530958 -111.011007 
L 303.73472 -112.484242 
L 302.938483 -112.891873 
L 302.142245 -112.317117 
L 301.346008 -111.080575 
L 300.54977 -109.620453 
L 299.753533 -108.353701 
L 298.957295 -107.555467 
L 298.161058 -107.291028 
L 297.36482 -107.420344 
L 296.568583 -107.669089 
L 295.772345 -107.734749 
L 294.976108 -107.387776 
L 294.17987 -106.537594 
L 293.383633 -105.25036 
L 292.587395 -103.721575 
L 291.791158 -102.218483 
L 290.99492 -101.013039 
L 290.198683 -100.322108 
L 289.402445 -100.26154 
L 288.606208 -100.81573 
L 287.80997 -101.829024 
L 287.013732 -103.030434 
L 286.217495 -104.095447 
L 285.421257 -104.729321 
L 284.62502 -104.74153 
L 283.828782 -104.087072 
L 283.032545 -102.87141 
L 282.236307 -101.330753 
L 281.44007 -99.794251 
L 280.643832 -98.623788 
L 279.847595 -98.132497 
L 279.051357 -98.502589 
L 278.25512 -99.733252 
L 277.458882 -101.63647 
L 276.662645 -103.877331 
L 275.866407 -106.044621 
L 275.07017 -107.739475 
L 274.273932 -108.668745 
L 273.477695 -108.71895 
L 272.681457 -107.980045 
L 271.88522 -106.703813 
L 271.088982 -105.213269 
L 270.292744 -103.802568 
L 269.496507 -102.663822 
L 268.700269 -101.856852 
L 267.904032 -101.320843 
L 267.107794 -100.92 
L 266.311557 -100.508906 
L 265.515319 -99.994654 
L 264.719082 -99.371271 
L 263.922844 -98.71516 
L 263.126607 -98.148619 
L 262.330369 -97.787865 
L 261.534132 -97.692493 
L 260.737894 -97.832649 
L 259.941657 -98.089745 
L 259.145419 -98.296234 
L 258.349182 -98.29854 
L 257.552944 -98.010465 
L 256.756707 -97.430189 
L 255.960469 -96.619735 
L 255.164231 -95.666882 
L 254.367994 -94.651152 
L 253.571756 -93.625442 
L 252.775519 -92.618747 
L 251.979281 -91.660231 
L 251.183044 -90.814038 
L 250.386806 -90.201518 
L 249.590569 -89.988672 
L 248.794331 -90.336622 
L 247.998094 -91.337867 
L 247.201856 -92.969582 
L 246.405619 -95.083351 
L 245.609381 -97.433219 
L 244.813144 -99.733365 
L 244.016906 -101.731207 
L 243.220669 -103.276698 
L 242.424431 -104.365113 
L 241.628194 -105.134183 
L 240.831956 -105.810822 
L 240.035719 -106.621316 
L 239.239481 -107.697583 
L 238.443243 -109.016934 
L 237.647006 -110.401348 
L 236.850768 -111.577461 
L 236.054531 -112.274218 
L 235.258293 -112.324853 
L 234.462056 -111.741818 
L 233.665818 -110.740526 
L 232.869581 -109.697442 
L 232.073343 -109.047549 
L 231.277106 -109.152359 
L 230.480868 -110.188628 
L 229.684631 -112.101608 
L 228.888393 -114.634233 
L 228.092156 -117.408956 
L 227.295918 -120.025217 
L 226.499681 -122.144432 
L 225.703443 -123.549342 
L 224.907206 -124.173593 
L 224.110968 -124.09973 
L 223.31473 -123.526903 
L 222.518493 -122.716003 
L 221.722255 -121.926425 
L 220.926018 -121.361884 
L 220.12978 -121.140851 
L 219.333543 -121.298731 
L 218.537305 -121.813426 
L 217.741068 -122.633799 
L 216.94483 -123.692715 
L 216.148593 -124.901799 
L 215.352355 -126.143158 
L 214.556118 -127.278792 
L 213.75988 -128.184915 
L 212.963643 -128.794891 
L 212.167405 -129.123254 
L 211.371168 -129.255372 
L 210.57493 -129.312088 
L 209.778693 -129.411794 
L 208.982455 -129.643987 
L 208.186218 -130.053032 
L 207.38998 -130.627996 
L 206.593742 -131.302547 
L 205.797505 -131.97378 
L 205.001267 -132.539061 
L 204.20503 -132.933451 
L 203.408792 -133.145276 
L 202.612555 -133.20231 
L 201.816317 -133.141751 
L 201.02008 -132.985971 
L 200.223842 -132.73671 
L 199.427605 -132.384799 
L 198.631367 -131.924212 
L 197.83513 -131.362336 
L 197.038892 -130.725342 
L 196.242655 -130.059766 
L 195.446417 -129.428418 
L 194.65018 -128.897628 
L 193.853942 -128.518828 
L 193.057705 -128.316054 
L 192.261467 -128.292118 
L 191.46523 -128.454834 
L 190.668992 -128.846725 
L 189.872754 -129.553296 
L 189.076517 -130.675353 
L 188.280279 -132.273149 
L 187.484042 -134.308703 
L 186.687804 -136.615549 
L 185.891567 -138.91327 
L 185.095329 -140.865775 
L 184.299092 -142.166752 
L 183.502854 -142.625718 
L 182.706617 -142.226472 
L 181.910379 -141.137521 
L 181.114142 -139.669615 
L 180.317904 -138.194286 
L 179.521667 -137.049691 
L 178.725429 -136.461791 
L 177.929192 -136.501318 
L 177.132954 -137.085513 
L 176.336717 -138.020039 
L 175.540479 -139.063835 
L 174.744241 -139.993443 
L 173.948004 -140.648903 
L 173.151766 -140.956699 
L 172.355529 -140.933924 
L 171.559291 -140.675635 
L 170.763054 -140.323249 
L 169.966816 -140.017535 
L 169.170579 -139.851855 
L 168.374341 -139.845701 
L 167.578104 -139.946355 
L 166.781866 -140.050396 
L 165.985629 -140.033874 
L 165.189391 -139.788527 
L 164.393154 -139.263655 
L 163.596916 -138.501872 
L 162.800679 -137.646767 
L 162.004441 -136.910043 
L 161.208204 -136.508473 
L 160.411966 -136.593971 
L 159.615729 -137.195687 
L 158.819491 -138.187256 
L 158.023253 -139.29564 
L 157.227016 -140.165582 
L 156.430778 -140.4711 
L 155.634541 -140.034642 
L 154.838303 -138.904707 
L 154.042066 -137.361403 
L 153.245828 -135.84902 
L 152.449591 -134.854076 
L 151.653353 -134.758459 
L 150.857116 -135.709563 
L 150.060878 -137.557712 
L 149.264641 -139.895363 
L 148.468403 -142.189016 
L 147.672166 -143.95078 
L 146.875928 -144.882891 
L 146.079691 -144.947459 
L 145.283453 -144.347139 
L 144.487216 -143.433111 
L 143.690978 -142.575742 
L 142.89474 -142.040195 
L 142.098503 -141.904425 
L 141.302265 -142.043874 
L 140.506028 -142.189555 
L 139.70979 -142.044396 
L 138.913553 -141.415411 
L 138.117315 -140.302224 
L 137.321078 -138.899203 
L 136.52484 -137.516724 
L 135.728603 -136.469076 
L 134.932365 -135.980182 
L 134.136128 -136.131962 
L 133.33989 -136.857094 
L 132.543653 -137.97225 
L 131.747415 -139.245862 
L 130.951178 -140.480523 
L 130.15494 -141.572588 
L 129.358703 -142.518913 
L 128.562465 -143.375587 
L 127.766228 -144.201069 
L 126.96999 -145.013823 
L 126.173752 -145.776083 
L 125.377515 -146.405424 
L 124.581277 -146.811116 
L 123.78504 -146.939011 
L 122.988802 -146.792856 
L 122.192565 -146.409498 
L 121.396327 -145.802798 
L 120.60009 -144.921698 
L 119.803852 -143.658247 
L 119.007615 -141.902045 
L 118.211377 -139.611749 
L 117.41514 -136.87671 
L 116.618902 -133.948997 
L 115.822665 -131.220883 
L 115.026427 -129.128108 
L 114.23019 -127.998669 
L 113.433952 -127.916924 
L 112.637715 -128.67749 
L 111.841477 -129.849724 
L 111.04524 -130.915355 
L 110.249002 -131.424553 
L 109.452764 -131.12962 
L 108.656527 -130.065958 
L 107.860289 -128.547464 
L 107.064052 -127.057482 
L 106.267814 -126.064862 
L 105.471577 -125.844802 
L 104.675339 -126.386154 
L 103.879102 -127.416808 
L 103.082864 -128.521085 
L 102.286627 -129.295527 
L 101.490389 -129.489028 
L 100.694152 -129.083941 
L 99.897914 -128.291137 
L 99.101677 -127.460321 
L 98.305439 -126.94016 
L 97.509202 -126.944534 
L 96.712964 -127.477629 
L 95.916727 -128.345596 
L 95.120489 -129.24643 
L 94.324251 -129.896565 
L 93.528014 -130.1378 
L 92.731776 -129.981206 
L 91.935539 -129.578671 
L 91.139301 -129.146741 
L 90.343064 -128.881789 
L 89.546826 -128.898924 
L 88.750589 -129.210132 
L 87.954351 -129.739846 
L 87.158114 -130.361518 
L 86.361876 -130.931458 
L 85.565639 -131.305732 
L 84.769401 -131.347006 
L 83.973164 -130.938213 
L 83.176926 -130.006035 
L 82.380689 -128.536914 
L 81.584451 -126.572219 
L 80.788214 -124.202326 
L 79.991976 -121.591298 
L 79.195739 -119.014074 
L 78.399501 -116.841901 
L 77.603263 -115.43824 
L 76.807026 -115.000651 
L 76.010788 -115.453869 
L 75.214551 -116.486513 
L 74.418313 -117.70294 
L 73.622076 -118.78158 
L 72.825838 -119.565742 
L 72.029601 -120.077438 
L 71.233363 -120.480845 
L 70.437126 -121.017833 
L 69.640888 -121.917325 
L 68.844651 -123.291534 
L 68.048413 -125.062715 
L 67.252176 -126.962724 
L 66.455938 -128.608314 
L 65.659701 -129.618361 
L 64.863463 -129.73288 
L 64.067226 -128.903799 
L 63.270988 -127.331758 
L 62.47475 -125.427298 
L 61.678513 -123.697102 
L 60.882275 -122.591554 
L 60.086038 -122.371505 
L 59.2898 -123.041295 
L 58.493563 -124.361669 
L 57.697325 -125.929284 
L 56.901088 -127.298846 
L 56.10485 -128.115534 
L 55.308613 -128.215777 
L 54.512375 -127.660535 
L 53.716138 -126.693551 
L 52.9199 -125.647597 
L 52.123663 -124.833544 
L 51.327425 -124.442328 
L 50.531188 -124.484738 
L 49.73495 -124.790682 
L 48.938713 -125.075205 
L 48.142475 -125.050865 
L 47.346238 -124.542921 
L 46.55 -123.563449 
z
" style="stroke: #377eb8; stroke-opacity: 0.3"/>
    </defs>
    <g clip-path="url(#pf1070387cf)">
     <use xlink:href="#m7b72c9a364" x="0" y="360" style="fill: #377eb8; fill-opacity: 0.3; stroke: #377eb8; stroke-opacity: 0.3"/>
    </g>
   </g>
   <g id="patch_3">
    <path d="M 229.843878 318.2 
L 229.843878 71.241125 
L 331.762281 71.241125 
L 331.762281 318.2 
z
" clip-path="url(#pf1070387cf)" style="fill: #808080; opacity: 0.3"/>
   </g>
   <g id="matplotlib.axis_1">
    <g id="xtick_1">
     <g id="line2d_1">
      <defs>
       <path id="mb418d656ee" d="M 0 0 
L 0 3.5 
" style="stroke: #000000; stroke-width: 0.8"/>
      </defs>
      <g>
       <use xlink:href="#mb418d656ee" x="87.158114" y="318.2" style="stroke: #000000; stroke-width: 0.8"/>
      </g>
     </g>
     <g id="text_1">
      <!-- 0.0 -->
      <g transform="translate(79.206551 332.798437)scale(0.1 -0.1)">
       <defs>
        <path id="DejaVuSans-30" d="M 2034 4250 
Q 1547 4250 1301 3770 
Q 1056 3291 1056 2328 
Q 1056 1369 1301 889 
Q 1547 409 2034 409 
Q 2525 409 2770 889 
Q 3016 1369 3016 2328 
Q 3016 3291 2770 3770 
Q 2525 4250 2034 4250 
z
M 2034 4750 
Q 2819 4750 3233 4129 
Q 3647 3509 3647 2328 
Q 3647 1150 3233 529 
Q 2819 -91 2034 -91 
Q 1250 -91 836 529 
Q 422 1150 422 2328 
Q 422 3509 836 4129 
Q 1250 4750 2034 4750 
z
" transform="scale(0.015625)"/>
        <path id="DejaVuSans-2e" d="M 684 794 
L 1344 794 
L 1344 0 
L 684 0 
L 684 794 
z
" transform="scale(0.015625)"/>
       </defs>
       <use xlink:href="#DejaVuSans-30"/>
       <use xlink:href="#DejaVuSans-2e" x="63.623047"/>
       <use xlink:href="#DejaVuSans-30" x="95.410156"/>
      </g>
     </g>
    </g>
    <g id="xtick_2">
     <g id="line2d_2">
      <g>
       <use xlink:href="#mb418d656ee" x="168.692836" y="318.2" style="stroke: #000000; stroke-width: 0.8"/>
      </g>
     </g>
     <g id="text_2">
      <!-- 0.2 -->
      <g transform="translate(160.741274 332.798437)scale(0.1 -0.1)">
       <defs>
        <path id="DejaVuSans-32" d="M 1228 531 
L 3431 531 
L 3431 0 
L 469 0 
L 469 531 
Q 828 903 1448 1529 
Q 2069 2156 2228 2338 
Q 2531 2678 2651 2914 
Q 2772 3150 2772 3378 
Q 2772 3750 2511 3984 
Q 2250 4219 1831 4219 
Q 1534 4219 1204 4116 
Q 875 4013 500 3803 
L 500 4441 
Q 881 4594 1212 4672 
Q 1544 4750 1819 4750 
Q 2544 4750 2975 4387 
Q 3406 4025 3406 3419 
Q 3406 3131 3298 2873 
Q 3191 2616 2906 2266 
Q 2828 2175 2409 1742 
Q 1991 1309 1228 531 
z
" transform="scale(0.015625)"/>
       </defs>
       <use xlink:href="#DejaVuSans-30"/>
       <use xlink:href="#DejaVuSans-2e" x="63.623047"/>
       <use xlink:href="#DejaVuSans-32" x="95.410156"/>
      </g>
     </g>
    </g>
    <g id="xtick_3">
     <g id="line2d_3">
      <g>
       <use xlink:href="#mb418d656ee" x="250.227559" y="318.2" style="stroke: #000000; stroke-width: 0.8"/>
      </g>
     </g>
     <g id="text_3">
      <!-- 0.4 -->
      <g transform="translate(242.275996 332.798437)scale(0.1 -0.1)">
       <defs>
        <path id="DejaVuSans-34" d="M 2419 4116 
L 825 1625 
L 2419 1625 
L 2419 4116 
z
M 2253 4666 
L 3047 4666 
L 3047 1625 
L 3713 1625 
L 3713 1100 
L 3047 1100 
L 3047 0 
L 2419 0 
L 2419 1100 
L 313 1100 
L 313 1709 
L 2253 4666 
z
" transform="scale(0.015625)"/>
       </defs>
       <use xlink:href="#DejaVuSans-30"/>
       <use xlink:href="#DejaVuSans-2e" x="63.623047"/>
       <use xlink:href="#DejaVuSans-34" x="95.410156"/>
      </g>
     </g>
    </g>
    <g id="xtick_4">
     <g id="line2d_4">
      <g>
       <use xlink:href="#mb418d656ee" x="331.762281" y="318.2" style="stroke: #000000; stroke-width: 0.8"/>
      </g>
     </g>
     <g id="text_4">
      <!-- 0.6 -->
      <g transform="translate(323.810719 332.798437)scale(0.1 -0.1)">
       <defs>
        <path id="DejaVuSans-36" d="M 2113 2584 
Q 1688 2584 1439 2293 
Q 1191 2003 1191 1497 
Q 1191 994 1439 701 
Q 1688 409 2113 409 
Q 2538 409 2786 701 
Q 3034 994 3034 1497 
Q 3034 2003 2786 2293 
Q 2538 2584 2113 2584 
z
M 3366 4563 
L 3366 3988 
Q 3128 4100 2886 4159 
Q 2644 4219 2406 4219 
Q 1781 4219 1451 3797 
Q 1122 3375 1075 2522 
Q 1259 2794 1537 2939 
Q 1816 3084 2150 3084 
Q 2853 3084 3261 2657 
Q 3669 2231 3669 1497 
Q 3669 778 3244 343 
Q 2819 -91 2113 -91 
Q 1303 -91 875 529 
Q 447 1150 447 2328 
Q 447 3434 972 4092 
Q 1497 4750 2381 4750 
Q 2619 4750 2861 4703 
Q 3103 4656 3366 4563 
z
" transform="scale(0.015625)"/>
       </defs>
       <use xlink:href="#DejaVuSans-30"/>
       <use xlink:href="#DejaVuSans-2e" x="63.623047"/>
       <use xlink:href="#DejaVuSans-36" x="95.410156"/>
      </g>
     </g>
    </g>
    <g id="xtick_5">
     <g id="line2d_5">
      <g>
       <use xlink:href="#mb418d656ee" x="413.297004" y="318.2" style="stroke: #000000; stroke-width: 0.8"/>
      </g>
     </g>
     <g id="text_5">
      <!-- 0.8 -->
      <g transform="translate(405.345441 332.798437)scale(0.1 -0.1)">
       <defs>
        <path id="DejaVuSans-38" d="M 2034 2216 
Q 1584 2216 1326 1975 
Q 1069 1734 1069 1313 
Q 1069 891 1326 650 
Q 1584 409 2034 409 
Q 2484 409 2743 651 
Q 3003 894 3003 1313 
Q 3003 1734 2745 1975 
Q 2488 2216 2034 2216 
z
M 1403 2484 
Q 997 2584 770 2862 
Q 544 3141 544 3541 
Q 544 4100 942 4425 
Q 1341 4750 2034 4750 
Q 2731 4750 3128 4425 
Q 3525 4100 3525 3541 
Q 3525 3141 3298 2862 
Q 3072 2584 2669 2484 
Q 3125 2378 3379 2068 
Q 3634 1759 3634 1313 
Q 3634 634 3220 271 
Q 2806 -91 2034 -91 
Q 1263 -91 848 271 
Q 434 634 434 1313 
Q 434 1759 690 2068 
Q 947 2378 1403 2484 
z
M 1172 3481 
Q 1172 3119 1398 2916 
Q 1625 2713 2034 2713 
Q 2441 2713 2670 2916 
Q 2900 3119 2900 3481 
Q 2900 3844 2670 4047 
Q 2441 4250 2034 4250 
Q 1625 4250 1398 4047 
Q 1172 3844 1172 3481 
z
" transform="scale(0.015625)"/>
       </defs>
       <use xlink:href="#DejaVuSans-30"/>
       <use xlink:href="#DejaVuSans-2e" x="63.623047"/>
       <use xlink:href="#DejaVuSans-38" x="95.410156"/>
      </g>
     </g>
    </g>
    <g id="text_6">
     <!-- seconds -->
     <g transform="translate(209.645249 346.476562)scale(0.1 -0.1)">
      <defs>
       <path id="DejaVuSans-73" d="M 2834 3397 
L 2834 2853 
Q 2591 2978 2328 3040 
Q 2066 3103 1784 3103 
Q 1356 3103 1142 2972 
Q 928 2841 928 2578 
Q 928 2378 1081 2264 
Q 1234 2150 1697 2047 
L 1894 2003 
Q 2506 1872 2764 1633 
Q 3022 1394 3022 966 
Q 3022 478 2636 193 
Q 2250 -91 1575 -91 
Q 1294 -91 989 -36 
Q 684 19 347 128 
L 347 722 
Q 666 556 975 473 
Q 1284 391 1588 391 
Q 1994 391 2212 530 
Q 2431 669 2431 922 
Q 2431 1156 2273 1281 
Q 2116 1406 1581 1522 
L 1381 1569 
Q 847 1681 609 1914 
Q 372 2147 372 2553 
Q 372 3047 722 3315 
Q 1072 3584 1716 3584 
Q 2034 3584 2315 3537 
Q 2597 3491 2834 3397 
z
" transform="scale(0.015625)"/>
       <path id="DejaVuSans-65" d="M 3597 1894 
L 3597 1613 
L 953 1613 
Q 991 1019 1311 708 
Q 1631 397 2203 397 
Q 2534 397 2845 478 
Q 3156 559 3463 722 
L 3463 178 
Q 3153 47 2828 -22 
Q 2503 -91 2169 -91 
Q 1331 -91 842 396 
Q 353 884 353 1716 
Q 353 2575 817 3079 
Q 1281 3584 2069 3584 
Q 2775 3584 3186 3129 
Q 3597 2675 3597 1894 
z
M 3022 2063 
Q 3016 2534 2758 2815 
Q 2500 3097 2075 3097 
Q 1594 3097 1305 2825 
Q 1016 2553 972 2059 
L 3022 2063 
z
" transform="scale(0.015625)"/>
       <path id="DejaVuSans-63" d="M 3122 3366 
L 3122 2828 
Q 2878 2963 2633 3030 
Q 2388 3097 2138 3097 
Q 1578 3097 1268 2742 
Q 959 2388 959 1747 
Q 959 1106 1268 751 
Q 1578 397 2138 397 
Q 2388 397 2633 464 
Q 2878 531 3122 666 
L 3122 134 
Q 2881 22 2623 -34 
Q 2366 -91 2075 -91 
Q 1284 -91 818 406 
Q 353 903 353 1747 
Q 353 2603 823 3093 
Q 1294 3584 2113 3584 
Q 2378 3584 2631 3529 
Q 2884 3475 3122 3366 
z
" transform="scale(0.015625)"/>
       <path id="DejaVuSans-6f" d="M 1959 3097 
Q 1497 3097 1228 2736 
Q 959 2375 959 1747 
Q 959 1119 1226 758 
Q 1494 397 1959 397 
Q 2419 397 2687 759 
Q 2956 1122 2956 1747 
Q 2956 2369 2687 2733 
Q 2419 3097 1959 3097 
z
M 1959 3584 
Q 2709 3584 3137 3096 
Q 3566 2609 3566 1747 
Q 3566 888 3137 398 
Q 2709 -91 1959 -91 
Q 1206 -91 779 398 
Q 353 888 353 1747 
Q 353 2609 779 3096 
Q 1206 3584 1959 3584 
z
" transform="scale(0.015625)"/>
       <path id="DejaVuSans-6e" d="M 3513 2113 
L 3513 0 
L 2938 0 
L 2938 2094 
Q 2938 2591 2744 2837 
Q 2550 3084 2163 3084 
Q 1697 3084 1428 2787 
Q 1159 2491 1159 1978 
L 1159 0 
L 581 0 
L 581 3500 
L 1159 3500 
L 1159 2956 
Q 1366 3272 1645 3428 
Q 1925 3584 2291 3584 
Q 2894 3584 3203 3211 
Q 3513 2838 3513 2113 
z
" transform="scale(0.015625)"/>
       <path id="DejaVuSans-64" d="M 2906 2969 
L 2906 4863 
L 3481 4863 
L 3481 0 
L 2906 0 
L 2906 525 
Q 2725 213 2448 61 
Q 2172 -91 1784 -91 
Q 1150 -91 751 415 
Q 353 922 353 1747 
Q 353 2572 751 3078 
Q 1150 3584 1784 3584 
Q 2172 3584 2448 3432 
Q 2725 3281 2906 2969 
z
M 947 1747 
Q 947 1113 1208 752 
Q 1469 391 1925 391 
Q 2381 391 2643 752 
Q 2906 1113 2906 1747 
Q 2906 2381 2643 2742 
Q 2381 3103 1925 3103 
Q 1469 3103 1208 2742 
Q 947 2381 947 1747 
z
" transform="scale(0.015625)"/>
      </defs>
      <use xlink:href="#DejaVuSans-73"/>
      <use xlink:href="#DejaVuSans-65" x="52.099609"/>
      <use xlink:href="#DejaVuSans-63" x="113.623047"/>
      <use xlink:href="#DejaVuSans-6f" x="168.603516"/>
      <use xlink:href="#DejaVuSans-6e" x="229.785156"/>
      <use xlink:href="#DejaVuSans-64" x="293.164062"/>
      <use xlink:href="#DejaVuSans-73" x="356.640625"/>
     </g>
    </g>
   </g>
   <g id="matplotlib.axis_2">
    <g id="ytick_1">
     <g id="line2d_6">
      <defs>
       <path id="mfb095e3649" d="M 0 0 
L -3.5 0 
" style="stroke: #000000; stroke-width: 0.8"/>
      </defs>
      <g>
       <use xlink:href="#mfb095e3649" x="46.55" y="300.738752" style="stroke: #000000; stroke-width: 0.8"/>
      </g>
     </g>
     <g id="text_7">
      <!-- 2 -->
      <g transform="translate(24.807812 304.537971)scale(0.1 -0.1)">
       <defs>
        <path id="DejaVuSans-2212" d="M 678 2272 
L 4684 2272 
L 4684 1741 
L 678 1741 
L 678 2272 
z
" transform="scale(0.015625)"/>
       </defs>
       <use xlink:href="#DejaVuSans-2212"/>
       <use xlink:href="#DejaVuSans-32" x="83.789062"/>
      </g>
     </g>
    </g>
    <g id="ytick_2">
     <g id="line2d_7">
      <g>
       <use xlink:href="#mfb095e3649" x="46.55" y="272.375215" style="stroke: #000000; stroke-width: 0.8"/>
      </g>
     </g>
     <g id="text_8">
      <!-- 1 -->
      <g transform="translate(24.807812 276.174434)scale(0.1 -0.1)">
       <defs>
        <path id="DejaVuSans-31" d="M 794 531 
L 1825 531 
L 1825 4091 
L 703 3866 
L 703 4441 
L 1819 4666 
L 2450 4666 
L 2450 531 
L 3481 531 
L 3481 0 
L 794 0 
L 794 531 
z
" transform="scale(0.015625)"/>
       </defs>
       <use xlink:href="#DejaVuSans-2212"/>
       <use xlink:href="#DejaVuSans-31" x="83.789062"/>
      </g>
     </g>
    </g>
    <g id="ytick_3">
     <g id="line2d_8">
      <g>
       <use xlink:href="#mfb095e3649" x="46.55" y="244.011679" style="stroke: #000000; stroke-width: 0.8"/>
      </g>
     </g>
     <g id="text_9">
      <!-- 0 -->
      <g transform="translate(33.1875 247.810898)scale(0.1 -0.1)">
       <use xlink:href="#DejaVuSans-30"/>
      </g>
     </g>
    </g>
    <g id="ytick_4">
     <g id="line2d_9">
      <g>
       <use xlink:href="#mfb095e3649" x="46.55" y="215.648142" style="stroke: #000000; stroke-width: 0.8"/>
      </g>
     </g>
     <g id="text_10">
      <!-- 1 -->
      <g transform="translate(33.1875 219.447361)scale(0.1 -0.1)">
       <use xlink:href="#DejaVuSans-31"/>
      </g>
     </g>
    </g>
    <g id="ytick_5">
     <g id="line2d_10">
      <g>
       <use xlink:href="#mfb095e3649" x="46.55" y="187.284606" style="stroke: #000000; stroke-width: 0.8"/>
      </g>
     </g>
     <g id="text_11">
      <!-- 2 -->
      <g transform="translate(33.1875 191.083825)scale(0.1 -0.1)">
       <use xlink:href="#DejaVuSans-32"/>
      </g>
     </g>
    </g>
    <g id="ytick_6">
     <g id="line2d_11">
      <g>
       <use xlink:href="#mfb095e3649" x="46.55" y="158.92107" style="stroke: #000000; stroke-width: 0.8"/>
      </g>
     </g>
     <g id="text_12">
      <!-- 3 -->
      <g transform="translate(33.1875 162.720288)scale(0.1 -0.1)">
       <defs>
        <path id="DejaVuSans-33" d="M 2597 2516 
Q 3050 2419 3304 2112 
Q 3559 1806 3559 1356 
Q 3559 666 3084 287 
Q 2609 -91 1734 -91 
Q 1441 -91 1130 -33 
Q 819 25 488 141 
L 488 750 
Q 750 597 1062 519 
Q 1375 441 1716 441 
Q 2309 441 2620 675 
Q 2931 909 2931 1356 
Q 2931 1769 2642 2001 
Q 2353 2234 1838 2234 
L 1294 2234 
L 1294 2753 
L 1863 2753 
Q 2328 2753 2575 2939 
Q 2822 3125 2822 3475 
Q 2822 3834 2567 4026 
Q 2313 4219 1838 4219 
Q 1578 4219 1281 4162 
Q 984 4106 628 3988 
L 628 4550 
Q 988 4650 1302 4700 
Q 1616 4750 1894 4750 
Q 2613 4750 3031 4423 
Q 3450 4097 3450 3541 
Q 3450 3153 3228 2886 
Q 3006 2619 2597 2516 
z
" transform="scale(0.015625)"/>
       </defs>
       <use xlink:href="#DejaVuSans-33"/>
      </g>
     </g>
    </g>
    <g id="ytick_7">
     <g id="line2d_12">
      <g>
       <use xlink:href="#mfb095e3649" x="46.55" y="130.557533" style="stroke: #000000; stroke-width: 0.8"/>
      </g>
     </g>
     <g id="text_13">
      <!-- 4 -->
      <g transform="translate(33.1875 134.356752)scale(0.1 -0.1)">
       <use xlink:href="#DejaVuSans-34"/>
      </g>
     </g>
    </g>
    <g id="ytick_8">
     <g id="line2d_13">
      <g>
       <use xlink:href="#mfb095e3649" x="46.55" y="102.193997" style="stroke: #000000; stroke-width: 0.8"/>
      </g>
     </g>
     <g id="text_14">
      <!-- 5 -->
      <g transform="translate(33.1875 105.993215)scale(0.1 -0.1)">
       <defs>
        <path id="DejaVuSans-35" d="M 691 4666 
L 3169 4666 
L 3169 4134 
L 1269 4134 
L 1269 2991 
Q 1406 3038 1543 3061 
Q 1681 3084 1819 3084 
Q 2600 3084 3056 2656 
Q 3513 2228 3513 1497 
Q 3513 744 3044 326 
Q 2575 -91 1722 -91 
Q 1428 -91 1123 -41 
Q 819 9 494 109 
L 494 744 
Q 775 591 1075 516 
Q 1375 441 1709 441 
Q 2250 441 2565 725 
Q 2881 1009 2881 1497 
Q 2881 1984 2565 2268 
Q 2250 2553 1709 2553 
Q 1456 2553 1204 2497 
Q 953 2441 691 2322 
L 691 4666 
z
" transform="scale(0.015625)"/>
       </defs>
       <use xlink:href="#DejaVuSans-35"/>
      </g>
     </g>
    </g>
    <g id="ytick_9">
     <g id="line2d_14">
      <g>
       <use xlink:href="#mfb095e3649" x="46.55" y="73.83046" style="stroke: #000000; stroke-width: 0.8"/>
      </g>
     </g>
     <g id="text_15">
      <!-- 6 -->
      <g transform="translate(33.1875 77.629679)scale(0.1 -0.1)">
       <use xlink:href="#DejaVuSans-36"/>
      </g>
     </g>
    </g>
    <g id="text_16">
     <!-- V -->
     <g transform="translate(18.728125 201.322125)rotate(-90)scale(0.1 -0.1)">
      <defs>
       <path id="DejaVuSans-b5" d="M 544 -1331 
L 544 3500 
L 1119 3500 
L 1119 1325 
Q 1119 872 1334 640 
Q 1550 409 1972 409 
Q 2434 409 2667 671 
Q 2900 934 2900 1459 
L 2900 3500 
L 3475 3500 
L 3475 806 
Q 3475 619 3529 530 
Q 3584 441 3700 441 
Q 3728 441 3778 458 
Q 3828 475 3916 513 
L 3916 50 
Q 3788 -22 3673 -56 
Q 3559 -91 3450 -91 
Q 3234 -91 3106 31 
Q 2978 153 2931 403 
Q 2775 156 2548 32 
Q 2322 -91 2016 -91 
Q 1697 -91 1473 31 
Q 1250 153 1119 397 
L 1119 -1331 
L 544 -1331 
z
" transform="scale(0.015625)"/>
       <path id="DejaVuSans-56" d="M 1831 0 
L 50 4666 
L 709 4666 
L 2188 738 
L 3669 4666 
L 4325 4666 
L 2547 0 
L 1831 0 
z
" transform="scale(0.015625)"/>
      </defs>
      <use xlink:href="#DejaVuSans-b5"/>
      <use xlink:href="#DejaVuSans-56" x="63.623047"/>
     </g>
    </g>
   </g>
   <g id="line2d_15">
    <path d="M 46.55 233.914673 
L 47.346238 235.648272 
L 48.142475 237.851851 
L 48.938713 239.727572 
L 49.73495 240.506845 
L 50.531188 239.709165 
L 51.327425 237.335531 
L 52.9199 230.435162 
L 53.716138 227.982363 
L 54.512375 227.490799 
L 55.308613 229.384541 
L 56.10485 233.414778 
L 57.697325 243.948815 
L 58.493563 247.885449 
L 59.2898 249.602034 
L 60.086038 248.857487 
L 60.882275 246.136144 
L 62.47475 239.109587 
L 63.270988 237.07638 
L 64.067226 236.887132 
L 64.863463 238.409063 
L 66.455938 243.643211 
L 67.252176 245.599199 
L 68.048413 246.391553 
L 68.844651 246.078966 
L 70.437126 244.29581 
L 71.233363 244.123617 
L 72.029601 244.930962 
L 72.825838 246.613761 
L 74.418313 250.711017 
L 75.214551 252.033792 
L 76.010788 252.440785 
L 76.807026 251.9746 
L 79.195739 248.64921 
L 79.991976 248.024425 
L 80.788214 247.900104 
L 81.584451 248.250618 
L 82.380689 249.019219 
L 83.176926 250.170422 
L 83.973164 251.686499 
L 86.361876 257.148069 
L 87.158114 258.082546 
L 87.954351 257.681432 
L 88.750589 255.497703 
L 89.546826 251.38824 
L 90.343064 245.630052 
L 91.935539 232.241889 
L 92.731776 226.637851 
L 93.528014 222.942673 
L 94.324251 221.572228 
L 95.120489 222.428477 
L 95.916727 224.952652 
L 97.509202 231.62086 
L 98.305439 234.225364 
L 99.101677 235.793255 
L 99.897914 236.356053 
L 100.694152 236.200398 
L 103.082864 234.596487 
L 103.879102 234.019157 
L 104.675339 233.230416 
L 105.471577 232.122105 
L 107.064052 229.431185 
L 107.860289 228.553334 
L 108.656527 228.543297 
L 109.452764 229.629653 
L 110.249002 231.729097 
L 111.841477 237.101068 
L 112.637715 239.093215 
L 113.433952 239.956675 
L 114.23019 239.592783 
L 115.026427 238.27744 
L 116.618902 234.977773 
L 117.41514 233.977201 
L 118.211377 233.615425 
L 119.007615 233.616477 
L 119.803852 233.479186 
L 120.60009 232.690151 
L 121.396327 230.941363 
L 122.192565 228.26481 
L 123.78504 221.811377 
L 124.581277 219.169635 
L 125.377515 217.455217 
L 126.173752 216.69361 
L 126.96999 216.606661 
L 127.766228 216.7511 
L 128.562465 216.712897 
L 129.358703 216.275265 
L 130.951178 214.645492 
L 131.747415 214.099604 
L 132.543653 214.137371 
L 133.33989 214.83216 
L 135.728603 218.565929 
L 136.52484 219.380123 
L 137.321078 219.832989 
L 138.117315 220.141862 
L 138.913553 220.622795 
L 139.70979 221.539476 
L 140.506028 222.972287 
L 142.098503 226.564569 
L 142.89474 227.960494 
L 143.690978 228.628695 
L 144.487216 228.45768 
L 145.283453 227.583357 
L 146.875928 225.068403 
L 147.672166 224.089576 
L 148.468403 223.481802 
L 150.060878 222.752532 
L 150.857116 222.095279 
L 151.653353 220.997554 
L 154.042066 216.371551 
L 154.838303 215.383271 
L 155.634541 215.037419 
L 156.430778 215.263742 
L 158.023253 216.199292 
L 158.819491 216.139159 
L 159.615729 215.379086 
L 160.411966 213.922086 
L 162.800679 208.205253 
L 163.596916 207.014102 
L 164.393154 206.486847 
L 165.189391 206.53217 
L 167.578104 207.611915 
L 168.374341 207.52245 
L 169.170579 207.047151 
L 169.966816 206.222608 
L 170.763054 205.123823 
L 172.355529 202.41482 
L 173.948004 199.608736 
L 174.744241 198.525908 
L 175.540479 197.927237 
L 176.336717 197.988566 
L 177.132954 198.766577 
L 177.929192 200.130403 
L 179.521667 203.148899 
L 180.317904 203.854953 
L 181.114142 203.539353 
L 181.910379 202.156752 
L 184.299092 195.5736 
L 185.095329 194.483856 
L 185.891567 194.527546 
L 186.687804 195.528724 
L 187.484042 196.97339 
L 188.280279 198.186495 
L 189.076517 198.57194 
L 189.872754 197.827811 
L 190.668992 196.056061 
L 192.261467 191.49448 
L 193.057705 189.978145 
L 193.853942 189.515909 
L 194.65018 190.05707 
L 196.242655 192.278718 
L 197.038892 192.728353 
L 197.83513 192.150739 
L 198.631367 190.500123 
L 200.223842 185.319169 
L 201.02008 182.809748 
L 201.816317 180.94222 
L 202.612555 179.92635 
L 203.408792 179.775255 
L 204.20503 180.377101 
L 205.001267 181.585487 
L 205.797505 183.279649 
L 207.38998 187.750476 
L 208.982455 192.621519 
L 209.778693 194.547222 
L 210.57493 195.775286 
L 211.371168 196.217776 
L 212.167405 196.035818 
L 212.963643 195.635096 
L 213.75988 195.558661 
L 214.556118 196.303408 
L 215.352355 198.123237 
L 216.148593 200.895471 
L 217.741068 206.99085 
L 218.537305 208.732449 
L 219.333543 208.74614 
L 220.12978 206.8598 
L 220.926018 203.386094 
L 222.518493 194.75692 
L 223.31473 191.410578 
L 224.110968 189.624746 
L 224.907206 189.627796 
L 225.703443 191.243761 
L 226.499681 193.981958 
L 228.092156 200.174021 
L 228.888393 202.38103 
L 229.684631 203.40768 
L 230.480868 203.065809 
L 231.277106 201.38864 
L 232.073343 198.632064 
L 233.665818 191.884155 
L 234.462056 189.17554 
L 235.258293 187.69432 
L 236.054531 187.725294 
L 236.850768 189.141811 
L 238.443243 193.501961 
L 239.239481 194.522825 
L 240.035719 193.641778 
L 240.831956 190.577135 
L 241.628194 185.716714 
L 243.220669 174.994479 
L 244.016906 171.802657 
L 244.813144 171.321414 
L 245.609381 173.608756 
L 246.405619 177.900917 
L 247.201856 182.829418 
L 247.998094 186.839927 
L 248.794331 188.673404 
L 249.590569 187.746574 
L 250.386806 184.303883 
L 252.775519 169.704487 
L 253.571756 167.079833 
L 254.367994 166.217398 
L 255.164231 166.56318 
L 255.960469 167.200014 
L 256.756707 167.210858 
L 257.552944 166.008868 
L 258.349182 163.519755 
L 260.737894 153.792212 
L 261.534132 152.042164 
L 262.330369 151.549533 
L 263.126607 152.050405 
L 264.719082 153.856972 
L 265.515319 154.101511 
L 266.311557 153.529905 
L 267.107794 152.192826 
L 269.496507 146.60461 
L 270.292744 145.314465 
L 271.088982 144.630732 
L 271.88522 144.552711 
L 272.681457 144.977214 
L 273.477695 145.739753 
L 275.866407 148.384247 
L 277.458882 149.658096 
L 279.051357 150.940054 
L 280.643832 152.406142 
L 281.44007 152.802416 
L 282.236307 152.56279 
L 283.032545 151.408123 
L 283.828782 149.237904 
L 286.217495 139.830898 
L 287.013732 137.859551 
L 287.80997 137.497328 
L 288.606208 138.920832 
L 289.402445 141.847656 
L 290.99492 149.220565 
L 291.791158 151.862163 
L 292.587395 152.908472 
L 293.383633 152.203838 
L 294.17987 150.063744 
L 295.772345 144.265687 
L 296.568583 142.07281 
L 297.36482 140.934427 
L 298.161058 140.816539 
L 299.753533 141.932083 
L 300.54977 142.029983 
L 301.346008 141.264683 
L 302.142245 139.574798 
L 304.530958 132.544596 
L 305.327196 131.281107 
L 306.123433 131.145466 
L 306.919671 132.087811 
L 309.308383 137.177932 
L 310.104621 137.862208 
L 310.900858 137.498017 
L 311.697096 136.183089 
L 313.289571 132.420729 
L 314.085808 131.112737 
L 314.882046 130.794825 
L 315.678283 131.597267 
L 316.474521 133.327901 
L 318.066996 137.676133 
L 318.863233 139.262539 
L 319.659471 140.049728 
L 320.455709 140.087156 
L 322.048184 139.274931 
L 322.844421 139.25072 
L 323.640659 139.799043 
L 326.029371 142.93479 
L 326.825609 143.171519 
L 327.621846 142.550962 
L 328.418084 141.157804 
L 330.010559 137.445368 
L 330.806796 135.943597 
L 331.603034 135.005224 
L 332.399271 134.578276 
L 333.195509 134.3916 
L 333.991746 134.06773 
L 334.787984 133.272425 
L 335.584221 131.845287 
L 337.972934 125.623661 
L 338.769172 124.271228 
L 339.565409 123.949802 
L 340.361647 124.837034 
L 341.157884 126.893391 
L 341.954122 129.879773 
L 344.342834 140.252646 
L 345.139072 142.711546 
L 345.935309 144.147948 
L 346.731547 144.499936 
L 347.527784 143.914972 
L 349.916497 140.361325 
L 350.712734 139.984386 
L 351.508972 140.383867 
L 352.30521 141.423992 
L 353.897685 143.896877 
L 354.693922 144.46185 
L 355.49016 144.231938 
L 356.286397 143.265498 
L 357.878872 140.460372 
L 358.67511 139.440039 
L 359.471347 139.001506 
L 360.267585 139.0725 
L 361.063822 139.338452 
L 361.86006 139.364554 
L 362.656297 138.764735 
L 363.452535 137.351535 
L 364.248772 135.209314 
L 365.841247 130.173128 
L 366.637485 128.160505 
L 367.433722 126.896595 
L 368.22996 126.431509 
L 369.026198 126.621448 
L 369.822435 127.220824 
L 372.211148 129.65062 
L 373.007385 130.584342 
L 374.59986 132.985971 
L 376.988573 137.011149 
L 377.78481 137.965859 
L 378.581048 138.652561 
L 380.173523 139.541222 
L 381.765998 140.135704 
L 382.562235 140.15289 
L 383.358473 139.771485 
L 384.15471 138.880001 
L 384.950948 137.497674 
L 387.339661 132.637034 
L 388.135898 131.68119 
L 388.932136 131.227533 
L 390.524611 130.952709 
L 391.320848 130.489057 
L 392.117086 129.511231 
L 394.505798 125.026892 
L 395.302036 124.331627 
L 396.098273 124.634226 
L 396.894511 125.976533 
L 397.690748 128.120263 
L 399.283223 132.976224 
L 400.079461 134.773191 
L 400.875699 135.814752 
L 401.671936 136.148895 
L 402.468174 136.015919 
L 404.060649 135.556347 
L 404.856886 135.595693 
L 406.449361 135.878267 
L 407.245599 135.659308 
L 408.041836 134.939422 
L 408.838074 133.691192 
L 411.226786 128.69165 
L 412.023024 127.488081 
L 412.819261 126.778418 
L 413.615499 126.515598 
L 413.615499 126.515598 
" clip-path="url(#pf1070387cf)" style="fill: none; stroke: #e41a1c; stroke-width: 1.5; stroke-linecap: square"/>
   </g>
   <g id="line2d_16">
    <path d="M 46.55 246.781454 
L 47.346238 245.614308 
L 48.142475 244.883577 
L 48.938713 244.61003 
L 50.531188 244.696985 
L 51.327425 244.516222 
L 52.123663 243.923086 
L 52.9199 242.919196 
L 54.512375 240.547951 
L 55.308613 239.832506 
L 56.10485 239.790146 
L 56.901088 240.483509 
L 57.697325 241.754778 
L 59.2898 244.55966 
L 60.086038 245.255398 
L 60.882275 245.103496 
L 61.678513 244.097292 
L 64.067226 239.128014 
L 64.863463 238.291589 
L 65.659701 238.365627 
L 66.455938 239.322271 
L 67.252176 240.911633 
L 68.844651 244.463593 
L 69.640888 245.779657 
L 70.437126 246.630236 
L 72.825838 248.118761 
L 73.622076 249.00185 
L 76.010788 252.452111 
L 76.807026 252.900865 
L 77.603263 252.54457 
L 78.399501 251.325332 
L 79.195739 249.377861 
L 81.584451 242.239299 
L 82.380689 240.442692 
L 83.176926 239.223773 
L 83.973164 238.591546 
L 84.769401 238.481969 
L 85.565639 238.793038 
L 86.361876 239.406778 
L 88.750589 241.739074 
L 89.546826 242.226303 
L 90.343064 242.411685 
L 91.139301 242.313861 
L 92.731776 241.820728 
L 93.528014 241.824648 
L 94.324251 242.200258 
L 95.120489 242.94944 
L 96.712964 244.851513 
L 97.509202 245.464377 
L 98.305439 245.578166 
L 99.101677 245.192385 
L 100.694152 243.841648 
L 101.490389 243.545473 
L 102.286627 243.824914 
L 103.082864 244.664637 
L 104.675339 246.860948 
L 105.471577 247.399455 
L 106.267814 247.172156 
L 107.064052 246.187179 
L 108.656527 243.254669 
L 109.452764 242.246821 
L 110.249002 242.019212 
L 111.04524 242.607098 
L 112.637715 244.9625 
L 113.433952 245.726412 
L 114.23019 245.629105 
L 115.026427 244.502506 
L 115.822665 242.453729 
L 119.007615 232.180166 
L 119.803852 230.540382 
L 120.60009 229.387685 
L 121.396327 228.613021 
L 122.192565 228.116849 
L 122.988802 227.850511 
L 123.78504 227.815979 
L 124.581277 228.033479 
L 125.377515 228.501492 
L 126.96999 229.972171 
L 130.15494 233.486931 
L 131.747415 235.883368 
L 133.33989 238.458506 
L 134.136128 239.304726 
L 134.932365 239.552582 
L 135.728603 239.10149 
L 136.52484 238.025859 
L 138.913553 233.87547 
L 139.70979 233.175112 
L 140.506028 232.987766 
L 142.098503 233.328988 
L 142.89474 233.283046 
L 143.690978 232.846182 
L 146.079691 230.663332 
L 146.875928 230.7619 
L 147.672166 231.717011 
L 148.468403 233.483105 
L 150.060878 238.071376 
L 150.857116 239.909686 
L 151.653353 240.888434 
L 152.449591 240.860529 
L 153.245828 239.957285 
L 154.838303 237.075995 
L 155.634541 236.002737 
L 156.430778 235.592788 
L 157.227016 235.893714 
L 158.023253 236.736972 
L 159.615729 238.78058 
L 160.411966 239.373614 
L 161.208204 239.46975 
L 162.004441 239.106034 
L 164.393154 237.069717 
L 165.189391 236.685665 
L 165.985629 236.574957 
L 167.578104 236.877179 
L 168.374341 237.044336 
L 169.170579 237.078641 
L 169.966816 236.937964 
L 172.355529 236.047331 
L 173.151766 236.005894 
L 173.948004 236.290924 
L 174.744241 236.935691 
L 177.929192 240.529585 
L 178.725429 240.590437 
L 179.521667 240.016726 
L 180.317904 238.883721 
L 181.910379 235.970184 
L 182.706617 234.895596 
L 183.502854 234.500327 
L 184.299092 234.945858 
L 185.095329 236.216188 
L 185.891567 238.130786 
L 188.280279 244.787111 
L 189.076517 246.464699 
L 189.872754 247.684439 
L 190.668992 248.47882 
L 191.46523 248.927449 
L 192.261467 249.112684 
L 193.057705 249.091098 
L 193.853942 248.888469 
L 194.65018 248.514492 
L 196.242655 247.338678 
L 198.631367 245.343395 
L 200.223842 244.462655 
L 201.816317 243.990979 
L 202.612555 243.899466 
L 203.408792 243.937557 
L 204.20503 244.145796 
L 205.001267 244.550796 
L 206.593742 245.858867 
L 208.186218 247.262665 
L 208.982455 247.751904 
L 209.778693 248.043022 
L 212.167405 248.455444 
L 212.963643 248.854525 
L 213.75988 249.544543 
L 214.556118 250.528118 
L 217.741068 255.419346 
L 218.537305 256.232849 
L 219.333543 256.690782 
L 220.12978 256.764142 
L 220.926018 256.469691 
L 221.722255 255.875798 
L 223.31473 254.353372 
L 224.110968 253.837904 
L 224.907206 253.800395 
L 225.703443 254.436369 
L 226.499681 255.841066 
L 227.295918 257.963961 
L 229.684631 265.940522 
L 230.480868 267.877492 
L 231.277106 268.955078 
L 232.073343 269.125165 
L 232.869581 268.551627 
L 234.462056 266.580799 
L 235.258293 265.965331 
L 236.054531 265.956538 
L 236.850768 266.59914 
L 237.647006 267.754362 
L 239.239481 270.55899 
L 240.035719 271.742282 
L 241.628194 273.444775 
L 242.424431 274.277744 
L 243.220669 275.391073 
L 244.016906 276.931872 
L 245.609381 281.181012 
L 247.201856 285.568666 
L 247.998094 287.159622 
L 248.794331 288.136885 
L 249.590569 288.492962 
L 250.386806 288.321508 
L 251.183044 287.766754 
L 252.775519 286.032972 
L 256.756707 281.076151 
L 257.552944 280.520464 
L 258.349182 280.289696 
L 259.145419 280.367059 
L 261.534132 281.17806 
L 262.330369 281.118232 
L 263.126607 280.76279 
L 264.719082 279.484968 
L 266.311557 278.336966 
L 268.700269 277.213176 
L 269.496507 276.505856 
L 270.292744 275.45915 
L 272.681457 271.551024 
L 273.477695 270.90613 
L 274.273932 271.036836 
L 275.07017 272.028295 
L 275.866407 273.773716 
L 278.25512 280.199803 
L 279.051357 281.429754 
L 279.847595 281.773167 
L 280.643832 281.237958 
L 281.44007 280.018531 
L 283.032545 276.895569 
L 283.828782 275.722441 
L 284.62502 275.162067 
L 285.421257 275.295708 
L 286.217495 276.038878 
L 288.606208 279.361105 
L 289.402445 279.852136 
L 290.198683 279.713301 
L 290.99492 278.94588 
L 291.791158 277.689563 
L 293.383633 274.723015 
L 294.17987 273.5556 
L 294.976108 272.847894 
L 295.772345 272.624983 
L 296.568583 272.764518 
L 297.36482 273.028565 
L 298.161058 273.132699 
L 298.957295 272.837118 
L 299.753533 272.03487 
L 302.142245 268.309122 
L 302.938483 267.860793 
L 303.73472 268.387232 
L 304.530958 269.950737 
L 306.919671 277.315868 
L 307.715908 278.678506 
L 308.512146 278.669698 
L 309.308383 277.22834 
L 310.104621 274.675442 
L 311.697096 268.865231 
L 312.493333 267.035058 
L 313.289571 266.542588 
L 314.085808 267.408002 
L 314.882046 269.290924 
L 316.474521 273.785154 
L 317.270758 275.340454 
L 318.066996 276.126253 
L 318.863233 276.29534 
L 319.659471 276.225182 
L 320.455709 276.356957 
L 321.251946 277.020455 
L 322.048184 278.306872 
L 323.640659 281.798301 
L 324.436896 283.130506 
L 325.233134 283.632493 
L 326.029371 283.113637 
L 326.825609 281.644917 
L 329.214321 275.217724 
L 330.010559 273.879026 
L 330.806796 273.443717 
L 331.603034 273.953288 
L 332.399271 275.280097 
L 333.991746 279.283609 
L 334.787984 281.257024 
L 335.584221 282.731109 
L 336.380459 283.404082 
L 337.176697 283.079453 
L 337.972934 281.713743 
L 338.769172 279.44801 
L 341.157884 271.036527 
L 341.954122 269.209954 
L 342.750359 268.376823 
L 343.546597 268.508304 
L 344.342834 269.341962 
L 345.935309 271.47015 
L 346.731547 272.04637 
L 347.527784 272.10936 
L 349.916497 271.092677 
L 350.712734 271.190762 
L 351.508972 271.642481 
L 353.101447 272.773757 
L 353.897685 272.923562 
L 354.693922 272.614264 
L 356.286397 271.238979 
L 357.082635 270.826511 
L 357.878872 271.008472 
L 358.67511 271.875778 
L 361.063822 276.016717 
L 361.86006 276.506406 
L 362.656297 276.065992 
L 363.452535 274.749143 
L 366.637485 267.268492 
L 367.433722 266.193147 
L 370.618673 263.045694 
L 373.007385 259.696008 
L 373.803623 258.881809 
L 374.59986 258.345948 
L 375.396098 258.058862 
L 376.192335 257.963109 
L 376.988573 258.026143 
L 377.78481 258.272424 
L 378.581048 258.775717 
L 379.377285 259.613226 
L 380.173523 260.803109 
L 382.562235 265.091168 
L 383.358473 265.957083 
L 384.15471 266.230159 
L 384.950948 265.928298 
L 388.135898 263.257357 
L 388.932136 263.109479 
L 390.524611 262.983077 
L 391.320848 262.602994 
L 392.117086 261.900926 
L 393.709561 260.178643 
L 394.505798 259.751483 
L 395.302036 259.969434 
L 396.098273 260.901167 
L 398.486986 265.546241 
L 399.283223 266.384147 
L 400.079461 266.37774 
L 400.875699 265.545237 
L 403.264411 261.13543 
L 404.060649 260.265717 
L 404.856886 260.04061 
L 405.653124 260.386888 
L 408.041836 262.394581 
L 408.838074 262.603616 
L 409.634311 262.439616 
L 411.226786 261.423804 
L 412.023024 260.891114 
L 412.819261 260.512072 
L 413.615499 260.327636 
L 413.615499 260.327636 
" clip-path="url(#pf1070387cf)" style="fill: none; stroke: #377eb8; stroke-width: 1.5; stroke-linecap: square"/>
   </g>
   <g id="line2d_17">
    <path d="M 87.158114 318.2 
L 87.158114 71.241125 
" clip-path="url(#pf1070387cf)" style="fill: none; stroke: #000000; stroke-width: 0.5; stroke-linecap: square"/>
   </g>
   <g id="line2d_18">
    <path d="M 46.55 244.011679 
L 413.615499 244.011679 
" clip-path="url(#pf1070387cf)" style="fill: none; stroke: #000000; stroke-width: 0.5; stroke-linecap: square"/>
   </g>
   <g id="patch_4">
    <path d="M 46.55 318.2 
L 46.55 71.241125 
" style="fill: none; stroke: #000000; stroke-width: 0.8; stroke-linejoin: miter; stroke-linecap: square"/>
   </g>
   <g id="patch_5">
    <path d="M 413.615499 318.2 
L 413.615499 71.241125 
" style="fill: none; stroke: #000000; stroke-width: 0.8; stroke-linejoin: miter; stroke-linecap: square"/>
   </g>
   <g id="patch_6">
    <path d="M 46.55 318.2 
L 413.615499 318.2 
" style="fill: none; stroke: #000000; stroke-width: 0.8; stroke-linejoin: miter; stroke-linecap: square"/>
   </g>
   <g id="patch_7">
    <path d="M 46.55 71.241125 
L 413.615499 71.241125 
" style="fill: none; stroke: #000000; stroke-width: 0.8; stroke-linejoin: miter; stroke-linecap: square"/>
   </g>
   <g id="text_17">
    <!-- Cz -->
    <g transform="translate(222.743999 65.241125)scale(0.12 -0.12)">
     <defs>
      <path id="DejaVuSans-43" d="M 4122 4306 
L 4122 3641 
Q 3803 3938 3442 4084 
Q 3081 4231 2675 4231 
Q 1875 4231 1450 3742 
Q 1025 3253 1025 2328 
Q 1025 1406 1450 917 
Q 1875 428 2675 428 
Q 3081 428 3442 575 
Q 3803 722 4122 1019 
L 4122 359 
Q 3791 134 3420 21 
Q 3050 -91 2638 -91 
Q 1578 -91 968 557 
Q 359 1206 359 2328 
Q 359 3453 968 4101 
Q 1578 4750 2638 4750 
Q 3056 4750 3426 4639 
Q 3797 4528 4122 4306 
z
" transform="scale(0.015625)"/>
      <path id="DejaVuSans-7a" d="M 353 3500 
L 3084 3500 
L 3084 2975 
L 922 459 
L 3084 459 
L 3084 0 
L 275 0 
L 275 525 
L 2438 3041 
L 353 3041 
L 353 3500 
z
" transform="scale(0.015625)"/>
     </defs>
     <use xlink:href="#DejaVuSans-43"/>
     <use xlink:href="#DejaVuSans-7a" x="69.824219"/>
    </g>
   </g>
   <g id="legend_1">
    <g id="patch_8">
     <path d="M 99.855406 48.044893 
L 360.310093 48.044893 
Q 362.310093 48.044893 362.310093 46.044893 
L 362.310093 17.410517 
Q 362.310093 15.410517 360.310093 15.410517 
L 99.855406 15.410517 
Q 97.855406 15.410517 97.855406 17.410517 
L 97.855406 46.044893 
Q 97.855406 48.044893 99.855406 48.044893 
z
" style="fill: #ffffff; opacity: 0.8; stroke: #cccccc; stroke-linejoin: miter"/>
    </g>
    <g id="text_18">
     <!-- Average of Session 24_tac4 -->
     <g transform="translate(161.068687 27.008955)scale(0.1 -0.1)">
      <defs>
       <path id="DejaVuSans-41" d="M 2188 4044 
L 1331 1722 
L 3047 1722 
L 2188 4044 
z
M 1831 4666 
L 2547 4666 
L 4325 0 
L 3669 0 
L 3244 1197 
L 1141 1197 
L 716 0 
L 50 0 
L 1831 4666 
z
" transform="scale(0.015625)"/>
       <path id="DejaVuSans-76" d="M 191 3500 
L 800 3500 
L 1894 563 
L 2988 3500 
L 3597 3500 
L 2284 0 
L 1503 0 
L 191 3500 
z
" transform="scale(0.015625)"/>
       <path id="DejaVuSans-72" d="M 2631 2963 
Q 2534 3019 2420 3045 
Q 2306 3072 2169 3072 
Q 1681 3072 1420 2755 
Q 1159 2438 1159 1844 
L 1159 0 
L 581 0 
L 581 3500 
L 1159 3500 
L 1159 2956 
Q 1341 3275 1631 3429 
Q 1922 3584 2338 3584 
Q 2397 3584 2469 3576 
Q 2541 3569 2628 3553 
L 2631 2963 
z
" transform="scale(0.015625)"/>
       <path id="DejaVuSans-61" d="M 2194 1759 
Q 1497 1759 1228 1600 
Q 959 1441 959 1056 
Q 959 750 1161 570 
Q 1363 391 1709 391 
Q 2188 391 2477 730 
Q 2766 1069 2766 1631 
L 2766 1759 
L 2194 1759 
z
M 3341 1997 
L 3341 0 
L 2766 0 
L 2766 531 
Q 2569 213 2275 61 
Q 1981 -91 1556 -91 
Q 1019 -91 701 211 
Q 384 513 384 1019 
Q 384 1609 779 1909 
Q 1175 2209 1959 2209 
L 2766 2209 
L 2766 2266 
Q 2766 2663 2505 2880 
Q 2244 3097 1772 3097 
Q 1472 3097 1187 3025 
Q 903 2953 641 2809 
L 641 3341 
Q 956 3463 1253 3523 
Q 1550 3584 1831 3584 
Q 2591 3584 2966 3190 
Q 3341 2797 3341 1997 
z
" transform="scale(0.015625)"/>
       <path id="DejaVuSans-67" d="M 2906 1791 
Q 2906 2416 2648 2759 
Q 2391 3103 1925 3103 
Q 1463 3103 1205 2759 
Q 947 2416 947 1791 
Q 947 1169 1205 825 
Q 1463 481 1925 481 
Q 2391 481 2648 825 
Q 2906 1169 2906 1791 
z
M 3481 434 
Q 3481 -459 3084 -895 
Q 2688 -1331 1869 -1331 
Q 1566 -1331 1297 -1286 
Q 1028 -1241 775 -1147 
L 775 -588 
Q 1028 -725 1275 -790 
Q 1522 -856 1778 -856 
Q 2344 -856 2625 -561 
Q 2906 -266 2906 331 
L 2906 616 
Q 2728 306 2450 153 
Q 2172 0 1784 0 
Q 1141 0 747 490 
Q 353 981 353 1791 
Q 353 2603 747 3093 
Q 1141 3584 1784 3584 
Q 2172 3584 2450 3431 
Q 2728 3278 2906 2969 
L 2906 3500 
L 3481 3500 
L 3481 434 
z
" transform="scale(0.015625)"/>
       <path id="DejaVuSans-20" transform="scale(0.015625)"/>
       <path id="DejaVuSans-66" d="M 2375 4863 
L 2375 4384 
L 1825 4384 
Q 1516 4384 1395 4259 
Q 1275 4134 1275 3809 
L 1275 3500 
L 2222 3500 
L 2222 3053 
L 1275 3053 
L 1275 0 
L 697 0 
L 697 3053 
L 147 3053 
L 147 3500 
L 697 3500 
L 697 3744 
Q 697 4328 969 4595 
Q 1241 4863 1831 4863 
L 2375 4863 
z
" transform="scale(0.015625)"/>
       <path id="DejaVuSans-53" d="M 3425 4513 
L 3425 3897 
Q 3066 4069 2747 4153 
Q 2428 4238 2131 4238 
Q 1616 4238 1336 4038 
Q 1056 3838 1056 3469 
Q 1056 3159 1242 3001 
Q 1428 2844 1947 2747 
L 2328 2669 
Q 3034 2534 3370 2195 
Q 3706 1856 3706 1288 
Q 3706 609 3251 259 
Q 2797 -91 1919 -91 
Q 1588 -91 1214 -16 
Q 841 59 441 206 
L 441 856 
Q 825 641 1194 531 
Q 1563 422 1919 422 
Q 2459 422 2753 634 
Q 3047 847 3047 1241 
Q 3047 1584 2836 1778 
Q 2625 1972 2144 2069 
L 1759 2144 
Q 1053 2284 737 2584 
Q 422 2884 422 3419 
Q 422 4038 858 4394 
Q 1294 4750 2059 4750 
Q 2388 4750 2728 4690 
Q 3069 4631 3425 4513 
z
" transform="scale(0.015625)"/>
       <path id="DejaVuSans-69" d="M 603 3500 
L 1178 3500 
L 1178 0 
L 603 0 
L 603 3500 
z
M 603 4863 
L 1178 4863 
L 1178 4134 
L 603 4134 
L 603 4863 
z
" transform="scale(0.015625)"/>
       <path id="DejaVuSans-5f" d="M 3263 -1063 
L 3263 -1509 
L -63 -1509 
L -63 -1063 
L 3263 -1063 
z
" transform="scale(0.015625)"/>
       <path id="DejaVuSans-74" d="M 1172 4494 
L 1172 3500 
L 2356 3500 
L 2356 3053 
L 1172 3053 
L 1172 1153 
Q 1172 725 1289 603 
Q 1406 481 1766 481 
L 2356 481 
L 2356 0 
L 1766 0 
Q 1100 0 847 248 
Q 594 497 594 1153 
L 594 3053 
L 172 3053 
L 172 3500 
L 594 3500 
L 594 4494 
L 1172 4494 
z
" transform="scale(0.015625)"/>
      </defs>
      <use xlink:href="#DejaVuSans-41"/>
      <use xlink:href="#DejaVuSans-76" x="62.533203"/>
      <use xlink:href="#DejaVuSans-65" x="121.712891"/>
      <use xlink:href="#DejaVuSans-72" x="183.236328"/>
      <use xlink:href="#DejaVuSans-61" x="224.349609"/>
      <use xlink:href="#DejaVuSans-67" x="285.628906"/>
      <use xlink:href="#DejaVuSans-65" x="349.105469"/>
      <use xlink:href="#DejaVuSans-20" x="410.628906"/>
      <use xlink:href="#DejaVuSans-6f" x="442.416016"/>
      <use xlink:href="#DejaVuSans-66" x="503.597656"/>
      <use xlink:href="#DejaVuSans-20" x="538.802734"/>
      <use xlink:href="#DejaVuSans-53" x="570.589844"/>
      <use xlink:href="#DejaVuSans-65" x="634.066406"/>
      <use xlink:href="#DejaVuSans-73" x="695.589844"/>
      <use xlink:href="#DejaVuSans-73" x="747.689453"/>
      <use xlink:href="#DejaVuSans-69" x="799.789062"/>
      <use xlink:href="#DejaVuSans-6f" x="827.572266"/>
      <use xlink:href="#DejaVuSans-6e" x="888.753906"/>
      <use xlink:href="#DejaVuSans-20" x="952.132812"/>
      <use xlink:href="#DejaVuSans-32" x="983.919922"/>
      <use xlink:href="#DejaVuSans-34" x="1047.542969"/>
      <use xlink:href="#DejaVuSans-5f" x="1111.166016"/>
      <use xlink:href="#DejaVuSans-74" x="1161.166016"/>
      <use xlink:href="#DejaVuSans-61" x="1200.375"/>
      <use xlink:href="#DejaVuSans-63" x="1261.654297"/>
      <use xlink:href="#DejaVuSans-34" x="1316.634766"/>
     </g>
    </g>
    <g id="line2d_19">
     <path d="M 101.855406 38.465205 
L 111.855406 38.465205 
L 121.855406 38.465205 
" style="fill: none; stroke: #e41a1c; stroke-width: 1.5; stroke-linecap: square"/>
    </g>
    <g id="text_19">
     <!-- Target (n=391) -->
     <g transform="translate(129.855406 41.965205)scale(0.1 -0.1)">
      <defs>
       <path id="DejaVuSans-54" d="M -19 4666 
L 3928 4666 
L 3928 4134 
L 2272 4134 
L 2272 0 
L 1638 0 
L 1638 4134 
L -19 4134 
L -19 4666 
z
" transform="scale(0.015625)"/>
       <path id="DejaVuSans-28" d="M 1984 4856 
Q 1566 4138 1362 3434 
Q 1159 2731 1159 2009 
Q 1159 1288 1364 580 
Q 1569 -128 1984 -844 
L 1484 -844 
Q 1016 -109 783 600 
Q 550 1309 550 2009 
Q 550 2706 781 3412 
Q 1013 4119 1484 4856 
L 1984 4856 
z
" transform="scale(0.015625)"/>
       <path id="DejaVuSans-3d" d="M 678 2906 
L 4684 2906 
L 4684 2381 
L 678 2381 
L 678 2906 
z
M 678 1631 
L 4684 1631 
L 4684 1100 
L 678 1100 
L 678 1631 
z
" transform="scale(0.015625)"/>
       <path id="DejaVuSans-39" d="M 703 97 
L 703 672 
Q 941 559 1184 500 
Q 1428 441 1663 441 
Q 2288 441 2617 861 
Q 2947 1281 2994 2138 
Q 2813 1869 2534 1725 
Q 2256 1581 1919 1581 
Q 1219 1581 811 2004 
Q 403 2428 403 3163 
Q 403 3881 828 4315 
Q 1253 4750 1959 4750 
Q 2769 4750 3195 4129 
Q 3622 3509 3622 2328 
Q 3622 1225 3098 567 
Q 2575 -91 1691 -91 
Q 1453 -91 1209 -44 
Q 966 3 703 97 
z
M 1959 2075 
Q 2384 2075 2632 2365 
Q 2881 2656 2881 3163 
Q 2881 3666 2632 3958 
Q 2384 4250 1959 4250 
Q 1534 4250 1286 3958 
Q 1038 3666 1038 3163 
Q 1038 2656 1286 2365 
Q 1534 2075 1959 2075 
z
" transform="scale(0.015625)"/>
       <path id="DejaVuSans-29" d="M 513 4856 
L 1013 4856 
Q 1481 4119 1714 3412 
Q 1947 2706 1947 2009 
Q 1947 1309 1714 600 
Q 1481 -109 1013 -844 
L 513 -844 
Q 928 -128 1133 580 
Q 1338 1288 1338 2009 
Q 1338 2731 1133 3434 
Q 928 4138 513 4856 
z
" transform="scale(0.015625)"/>
      </defs>
      <use xlink:href="#DejaVuSans-54"/>
      <use xlink:href="#DejaVuSans-61" x="44.583984"/>
      <use xlink:href="#DejaVuSans-72" x="105.863281"/>
      <use xlink:href="#DejaVuSans-67" x="145.226562"/>
      <use xlink:href="#DejaVuSans-65" x="208.703125"/>
      <use xlink:href="#DejaVuSans-74" x="270.226562"/>
      <use xlink:href="#DejaVuSans-20" x="309.435547"/>
      <use xlink:href="#DejaVuSans-28" x="341.222656"/>
      <use xlink:href="#DejaVuSans-6e" x="380.236328"/>
      <use xlink:href="#DejaVuSans-3d" x="443.615234"/>
      <use xlink:href="#DejaVuSans-33" x="527.404297"/>
      <use xlink:href="#DejaVuSans-39" x="591.027344"/>
      <use xlink:href="#DejaVuSans-31" x="654.650391"/>
      <use xlink:href="#DejaVuSans-29" x="718.273438"/>
     </g>
    </g>
    <g id="line2d_20">
     <path d="M 225.585093 38.465205 
L 235.585093 38.465205 
L 245.585093 38.465205 
" style="fill: none; stroke: #377eb8; stroke-width: 1.5; stroke-linecap: square"/>
    </g>
    <g id="text_20">
     <!-- Non-Target (n=1197) -->
     <g transform="translate(253.585093 41.965205)scale(0.1 -0.1)">
      <defs>
       <path id="DejaVuSans-4e" d="M 628 4666 
L 1478 4666 
L 3547 763 
L 3547 4666 
L 4159 4666 
L 4159 0 
L 3309 0 
L 1241 3903 
L 1241 0 
L 628 0 
L 628 4666 
z
" transform="scale(0.015625)"/>
       <path id="DejaVuSans-2d" d="M 313 2009 
L 1997 2009 
L 1997 1497 
L 313 1497 
L 313 2009 
z
" transform="scale(0.015625)"/>
       <path id="DejaVuSans-37" d="M 525 4666 
L 3525 4666 
L 3525 4397 
L 1831 0 
L 1172 0 
L 2766 4134 
L 525 4134 
L 525 4666 
z
" transform="scale(0.015625)"/>
      </defs>
      <use xlink:href="#DejaVuSans-4e"/>
      <use xlink:href="#DejaVuSans-6f" x="74.804688"/>
      <use xlink:href="#DejaVuSans-6e" x="135.986328"/>
      <use xlink:href="#DejaVuSans-2d" x="199.365234"/>
      <use xlink:href="#DejaVuSans-54" x="226.324219"/>
      <use xlink:href="#DejaVuSans-61" x="270.908203"/>
      <use xlink:href="#DejaVuSans-72" x="332.1875"/>
      <use xlink:href="#DejaVuSans-67" x="371.550781"/>
      <use xlink:href="#DejaVuSans-65" x="435.027344"/>
      <use xlink:href="#DejaVuSans-74" x="496.550781"/>
      <use xlink:href="#DejaVuSans-20" x="535.759766"/>
      <use xlink:href="#DejaVuSans-28" x="567.546875"/>
      <use xlink:href="#DejaVuSans-6e" x="606.560547"/>
      <use xlink:href="#DejaVuSans-3d" x="669.939453"/>
      <use xlink:href="#DejaVuSans-31" x="753.728516"/>
      <use xlink:href="#DejaVuSans-31" x="817.351562"/>
      <use xlink:href="#DejaVuSans-39" x="880.974609"/>
      <use xlink:href="#DejaVuSans-37" x="944.597656"/>
      <use xlink:href="#DejaVuSans-29" x="1008.220703"/>
     </g>
    </g>
   </g>
  </g>
 </g>
 <defs>
  <clipPath id="pf1070387cf">
   <rect x="46.55" y="71.241125" width="367.065499" height="246.958875"/>
  </clipPath>
 </defs>
</svg>
